g ATM
v -1.7348645 1.5872147 1.618299
v -1.7348645 0.0019242764 1.618299
v -1.7348645 0.0019242764 -1.6222212
v -1.7348645 1.5872147 -1.6222212
v 1.7387867 1.5872147 -1.6222212
v 1.7387867 0.0019242764 -1.6222212
v 1.7387867 0.0019242764 1.618299
v 1.7387867 1.5872147 1.618299
v 1.808726 5.371707 1.6726961
v 1.808726 5.6514645 1.6726961
v 1.808726 5.6514645 -1.5056558
v 1.808726 5.371707 -1.6610763
v 1.808726 4.695627 1.6726961
v 1.808726 4.695627 -2.034086
v 1.808726 3.7397907 1.6726961
v 1.808726 3.7397907 -2.1972775
v 1.808726 2.7761824 1.6726961
v 1.808726 2.7761824 -2.267217
v 1.808726 1.5872147 1.6726961
v 1.808726 1.5872147 -2.298301
v -0.7324014 5.6514645 -1.5056558
v -1.8048036 5.6514645 1.6726961
v -1.8048036 5.6514645 -1.5056558
v 1.4745717 5.6514645 -1.5056558
v 1.808726 5.6514645 1.6726961
v 1.808726 5.6514645 -1.5056558
v -1.8048036 5.371707 -1.6610763
v -1.8048036 5.6514645 -1.5056558
v -1.8048036 5.6514645 1.6726961
v -1.8048036 5.371707 1.6726961
v -1.8048036 4.695627 -2.034086
v -1.8048036 4.695627 1.6726961
v -1.8048036 3.7397907 -2.1972775
v -1.8048036 3.7397907 1.6726961
v -1.8048036 2.7761824 -2.267217
v -1.8048036 2.7761824 1.6726961
v -1.8048036 1.5872147 -2.298301
v -1.8048036 1.5872147 1.6726961
v -0.7324014 2.7761824 -2.267217
v -0.7324014 3.7397907 -2.1972775
v -1.8048036 3.7397907 -2.1972775
v -1.8048036 2.7761824 -2.267217
v -1.8048036 1.5872147 -2.298301
v -0.37493396 2.4031732 -2.274988
v -0.37493396 2.2011263 -2.282759
v 1.1248752 2.4031732 -2.274988
v 1.808726 1.5872147 -2.298301
v 1.4745717 2.7761824 -2.267217
v 1.1248752 2.2011263 -2.282759
v 1.808726 2.7761824 -2.267217
v 1.4745717 3.7397907 -2.1972775
v 1.808726 3.7397907 -2.1972775
v 1.808726 3.7397907 -2.1972775
v 1.808726 4.695627 -2.034086
v 1.4745717 4.695627 -2.034086
v 1.4745717 3.7397907 -2.1972775
v 1.4745717 5.371707 -1.6610763
v 1.4745717 5.177431 -0.6042161
v 1.4745717 4.695627 -0.9150574
v 1.4745717 4.695627 -2.034086
v 1.4745717 3.7397907 -1.1481884
v 1.4745717 3.7397907 -2.1972775
v 1.4745717 3.118108 -1.2103566
v 1.4745717 2.7761824 -2.267217
v -0.7324014 4.695627 -2.034086
v -0.7324014 5.177431 -0.6042161
v -0.7324014 5.371707 -1.6610763
v -0.7324014 4.695627 -0.9150574
v -0.7324014 3.7397907 -2.1972775
v -0.7324014 3.7397907 -1.1481884
v -0.7324014 2.7761824 -2.267217
v -0.7324014 3.118108 -1.2103566
v -1.8048036 1.5872147 1.6726961
v 1.808726 2.7761824 1.6726961
v 1.808726 1.5872147 1.6726961
v -1.8048036 2.7761824 1.6726961
v 1.808726 3.7397907 1.6726961
v -1.8048036 3.7397907 1.6726961
v 1.808726 4.695627 1.6726961
v -1.8048036 4.695627 1.6726961
v 1.808726 5.371707 1.6726961
v -1.8048036 5.371707 1.6726961
v 1.808726 5.6514645 1.6726961
v -1.8048036 5.6514645 1.6726961
v 1.808726 5.371707 -1.6610763
v 1.808726 5.6514645 -1.5056558
v 1.4745717 5.6514645 -1.5056558
v 1.4745717 5.371707 -1.6610763
v 1.808726 4.695627 -2.034086
v 1.4745717 4.695627 -2.034086
v -0.7324014 5.6514645 -1.5056558
v -0.7324014 5.371707 -1.6610763
v -1.8048036 5.6514645 -1.5056558
v -1.8048036 5.371707 -1.6610763
v -0.7324014 4.695627 -2.034086
v -1.8048036 4.695627 -2.034086
v 1.7387867 0.0019242764 1.618299
v 1.7387867 0.0019242764 -1.6222212
v -1.7348645 0.0019242764 -1.6222212
v -1.7348645 0.0019242764 1.618299
v -1.7348645 1.5872147 -1.6222212
v -1.7348645 0.0019242764 -1.6222212
v 1.7387867 0.0019242764 -1.6222212
v 1.7387867 1.5872147 -1.6222212
v 1.7387867 1.5872147 1.618299
v 1.7387867 0.0019242764 1.618299
v -1.7348645 0.0019242764 1.618299
v -1.7348645 1.5872147 1.618299
v -0.7324014 5.371707 -1.6610763
v -0.7324014 5.177431 -0.6042161
v 1.4745717 5.177431 -0.6042161
v 1.4745717 5.371707 -1.6610763
v 1.4745717 3.118108 -1.2103566
v 1.4745717 3.7397907 -1.1481884
v -0.7324014 3.7397907 -1.1481884
v -0.7324014 3.118108 -1.2103566
v 1.4745717 4.695627 -0.9150574
v 1.4745717 5.177431 -0.6042161
v -0.7324014 5.177431 -0.6042161
v -0.7324014 4.695627 -0.9150574
v 1.4745717 2.7761824 -2.267217
v 1.4745717 3.118108 -1.2103566
v -0.7324014 3.118108 -1.2103566
v -0.7324014 2.7761824 -2.267217
v -0.35939193 3.7941878 -1.1326462
v -0.35939193 3.7786458 -1.0393939
v -0.35939193 4.6256886 -0.829576
v -0.35939193 4.6412306 -0.92282844
v 1.1015621 4.6412306 -0.92282844
v 1.1015621 4.6256886 -0.829576
v 1.1015621 3.7786458 -1.0393939
v 1.1015621 3.7941878 -1.1326462
v -0.35939193 4.6412306 -0.92282844
v -0.35939193 4.6256886 -0.829576
v 1.1015621 4.6256886 -0.829576
v 1.1015621 4.6412306 -0.92282844
v 1.1015621 3.7941878 -1.1326462
v 1.1015621 3.7786458 -1.0393939
v -0.35939193 3.7786458 -1.0393939
v -0.35939193 3.7941878 -1.1326462
v -1.0743268 4.2759914 -2.0030017
v -1.1287239 4.2604494 -2.034086
v -1.1287239 4.1594267 -2.057399
v -1.0743268 4.136113 -2.034086
v -1.4551072 4.2759914 -2.0030017
v -1.4084811 4.2604494 -2.034086
v -1.1287239 4.2604494 -2.034086
v -1.0743268 4.2759914 -2.0030017
v -1.0743268 4.136113 -2.034086
v -1.1287239 4.1594267 -2.057399
v -1.4084811 4.1594267 -2.057399
v -1.4551072 4.136113 -2.034086
v -1.4551072 4.136113 -2.034086
v -1.4084811 4.1594267 -2.057399
v -1.4084811 4.2604494 -2.034086
v -1.4551072 4.2759914 -2.0030017
v -0.37493396 2.2011263 -2.282759
v -0.37493396 2.2011263 -2.1661935
v -0.37493396 2.2632945 -2.1972775
v -0.37493396 2.4031732 -2.274988
v -0.37493396 2.3332336 -2.1972775
v -0.37493396 2.3954022 -2.1584225
v 1.1248752 2.2632945 -2.1972775
v 1.1248752 2.2011263 -2.1661935
v 1.1248752 2.2011263 -2.282759
v 1.1248752 2.4031732 -2.274988
v 1.1248752 2.3332336 -2.1972775
v 1.1248752 2.3954022 -2.1584225
v -0.37493396 2.4031732 -2.274988
v -0.37493396 2.3954022 -2.1584225
v 1.1248752 2.3954022 -2.1584225
v 1.1248752 2.4031732 -2.274988
v 1.1248752 2.2011263 -2.282759
v 1.1248752 2.2011263 -2.1661935
v -0.37493396 2.2011263 -2.1661935
v -0.37493396 2.2011263 -2.282759
v -0.17288709 2.9082901 -1.8164971
v -0.17288709 2.9782293 -1.6066792
v 0.11464119 2.9782293 -1.6066792
v 0.11464119 2.9082901 -1.8164971
v -0.17288709 3.0093133 -1.5134268
v -0.17288709 3.087024 -1.3036089
v 0.11464119 3.087024 -1.3036089
v 0.11464119 3.0093133 -1.5134268
v 0.23120666 2.799496 -2.1195672
v 0.23120666 2.877206 -1.9097494
v 0.5109637 2.877206 -1.9097494
v 0.5109637 2.799496 -2.1195672
v 0.23120666 2.9082901 -1.8164971
v 0.23120666 2.9782293 -1.6066792
v 0.5109637 2.9782293 -1.6066792
v 0.5109637 2.9082901 -1.8164971
v 0.23120666 3.0093133 -1.5134268
v 0.23120666 3.087024 -1.3036089
v 0.5109637 3.087024 -1.3036089
v 0.5109637 3.0093133 -1.5134268
v 0.62752914 2.9082901 -1.8164971
v 0.62752914 2.9782293 -1.6066792
v 0.9150574 2.9782293 -1.6066792
v 0.9150574 2.9082901 -1.8164971
v 0.62752914 3.0093133 -1.5134268
v 0.62752914 3.087024 -1.3036089
v 0.9150574 3.087024 -1.3036089
v 0.9150574 3.0093133 -1.5134268
v -0.17288709 2.9316032 -1.8398101
v 0.11464119 2.9316032 -1.8398101
v 0.11464119 3.0015423 -1.6299922
v -0.17288709 3.0015423 -1.6299922
v -0.17288709 3.040398 -1.5367398
v 0.11464119 3.040398 -1.5367398
v 0.11464119 3.110337 -1.326922
v -0.17288709 3.110337 -1.326922
v 0.23120666 2.83058 -2.1428804
v 0.5109637 2.83058 -2.1428804
v 0.5109637 2.9005191 -1.9330626
v 0.23120666 2.9005191 -1.9330626
v 0.23120666 2.9316032 -1.8398101
v 0.5109637 2.9316032 -1.8398101
v 0.5109637 3.0015423 -1.6299922
v 0.23120666 3.0015423 -1.6299922
v 0.23120666 3.040398 -1.5367398
v 0.5109637 3.040398 -1.5367398
v 0.5109637 3.110337 -1.326922
v 0.23120666 3.110337 -1.326922
v 0.62752914 2.9316032 -1.8398101
v 0.9150574 2.9316032 -1.8398101
v 0.9150574 3.0015423 -1.6299922
v 0.62752914 3.0015423 -1.6299922
v 0.62752914 3.040398 -1.5367398
v 0.9150574 3.040398 -1.5367398
v 0.9150574 3.110337 -1.326922
v 0.62752914 3.110337 -1.326922
v 0.62752914 3.087024 -1.3036089
v 0.62752914 3.110337 -1.326922
v 0.9150574 3.110337 -1.326922
v 0.9150574 3.087024 -1.3036089
v 0.5109637 2.877206 -1.9097494
v 0.5109637 2.9005191 -1.9330626
v 0.5109637 2.83058 -2.1428804
v 0.5109637 2.799496 -2.1195672
v 0.11464119 2.9782293 -1.6066792
v 0.11464119 3.0015423 -1.6299922
v 0.11464119 2.9316032 -1.8398101
v 0.11464119 2.9082901 -1.8164971
v 0.23120666 3.0093133 -1.5134268
v 0.23120666 3.040398 -1.5367398
v 0.23120666 3.110337 -1.326922
v 0.23120666 3.087024 -1.3036089
v 0.62752914 2.9782293 -1.6066792
v 0.62752914 3.0015423 -1.6299922
v 0.9150574 3.0015423 -1.6299922
v 0.9150574 2.9782293 -1.6066792
v 0.11464119 2.9082901 -1.8164971
v 0.11464119 2.9316032 -1.8398101
v -0.17288709 2.9316032 -1.8398101
v -0.17288709 2.9082901 -1.8164971
v 0.5109637 3.0093133 -1.5134268
v 0.5109637 3.040398 -1.5367398
v 0.23120666 3.040398 -1.5367398
v 0.23120666 3.0093133 -1.5134268
v 0.11464119 3.087024 -1.3036089
v 0.11464119 3.110337 -1.326922
v 0.11464119 3.040398 -1.5367398
v 0.11464119 3.0093133 -1.5134268
v 0.9150574 3.087024 -1.3036089
v 0.9150574 3.110337 -1.326922
v 0.9150574 3.040398 -1.5367398
v 0.9150574 3.0093133 -1.5134268
v 0.5109637 2.9082901 -1.8164971
v 0.5109637 2.9316032 -1.8398101
v 0.23120666 2.9316032 -1.8398101
v 0.23120666 2.9082901 -1.8164971
v 0.11464119 3.0093133 -1.5134268
v 0.11464119 3.040398 -1.5367398
v -0.17288709 3.040398 -1.5367398
v -0.17288709 3.0093133 -1.5134268
v 0.62752914 2.9082901 -1.8164971
v 0.62752914 2.9316032 -1.8398101
v 0.62752914 3.0015423 -1.6299922
v 0.62752914 2.9782293 -1.6066792
v 0.5109637 2.799496 -2.1195672
v 0.5109637 2.83058 -2.1428804
v 0.23120666 2.83058 -2.1428804
v 0.23120666 2.799496 -2.1195672
v 0.9150574 2.9782293 -1.6066792
v 0.9150574 3.0015423 -1.6299922
v 0.9150574 2.9316032 -1.8398101
v 0.9150574 2.9082901 -1.8164971
v -0.17288709 2.9082901 -1.8164971
v -0.17288709 2.9316032 -1.8398101
v -0.17288709 3.0015423 -1.6299922
v -0.17288709 2.9782293 -1.6066792
v 0.23120666 3.087024 -1.3036089
v 0.23120666 3.110337 -1.326922
v 0.5109637 3.110337 -1.326922
v 0.5109637 3.087024 -1.3036089
v 0.23120666 2.799496 -2.1195672
v 0.23120666 2.83058 -2.1428804
v 0.23120666 2.9005191 -1.9330626
v 0.23120666 2.877206 -1.9097494
v 0.23120666 2.9782293 -1.6066792
v 0.23120666 3.0015423 -1.6299922
v 0.5109637 3.0015423 -1.6299922
v 0.5109637 2.9782293 -1.6066792
v 0.62752914 3.0093133 -1.5134268
v 0.62752914 3.040398 -1.5367398
v 0.62752914 3.110337 -1.326922
v 0.62752914 3.087024 -1.3036089
v -0.17288709 3.0093133 -1.5134268
v -0.17288709 3.040398 -1.5367398
v -0.17288709 3.110337 -1.326922
v -0.17288709 3.087024 -1.3036089
v 0.23120666 2.877206 -1.9097494
v 0.23120666 2.9005191 -1.9330626
v 0.5109637 2.9005191 -1.9330626
v 0.5109637 2.877206 -1.9097494
v 0.9150574 3.0093133 -1.5134268
v 0.9150574 3.040398 -1.5367398
v 0.62752914 3.040398 -1.5367398
v 0.62752914 3.0093133 -1.5134268
v -0.17288709 2.9782293 -1.6066792
v -0.17288709 3.0015423 -1.6299922
v 0.11464119 3.0015423 -1.6299922
v 0.11464119 2.9782293 -1.6066792
v 0.5109637 3.087024 -1.3036089
v 0.5109637 3.110337 -1.326922
v 0.5109637 3.040398 -1.5367398
v 0.5109637 3.0093133 -1.5134268
v 0.9150574 2.9082901 -1.8164971
v 0.9150574 2.9316032 -1.8398101
v 0.62752914 2.9316032 -1.8398101
v 0.62752914 2.9082901 -1.8164971
v 0.23120666 2.9082901 -1.8164971
v 0.23120666 2.9316032 -1.8398101
v 0.23120666 3.0015423 -1.6299922
v 0.23120666 2.9782293 -1.6066792
v 0.5109637 2.9782293 -1.6066792
v 0.5109637 3.0015423 -1.6299922
v 0.5109637 2.9316032 -1.8398101
v 0.5109637 2.9082901 -1.8164971
v -0.17288709 3.087024 -1.3036089
v -0.17288709 3.110337 -1.326922
v 0.11464119 3.110337 -1.326922
v 0.11464119 3.087024 -1.3036089
v 0.62752914 2.799496 -2.1195672
v 0.62752914 2.877206 -1.9097494
v 0.9150574 2.877206 -1.9097494
v 0.9150574 2.799496 -2.1195672
v 0.62752914 2.83058 -2.1428804
v 0.9150574 2.83058 -2.1428804
v 0.9150574 2.9005191 -1.9330626
v 0.62752914 2.9005191 -1.9330626
v 0.62752914 2.799496 -2.1195672
v 0.62752914 2.83058 -2.1428804
v 0.62752914 2.9005191 -1.9330626
v 0.62752914 2.877206 -1.9097494
v 0.62752914 2.877206 -1.9097494
v 0.62752914 2.9005191 -1.9330626
v 0.9150574 2.9005191 -1.9330626
v 0.9150574 2.877206 -1.9097494
v 0.9150574 2.877206 -1.9097494
v 0.9150574 2.9005191 -1.9330626
v 0.9150574 2.83058 -2.1428804
v 0.9150574 2.799496 -2.1195672
v 0.9150574 2.799496 -2.1195672
v 0.9150574 2.83058 -2.1428804
v 0.62752914 2.83058 -2.1428804
v 0.62752914 2.799496 -2.1195672
v -0.17288709 2.799496 -2.1195672
v -0.17288709 2.877206 -1.9097494
v 0.11464119 2.877206 -1.9097494
v 0.11464119 2.799496 -2.1195672
v -0.17288709 2.83058 -2.1428804
v 0.11464119 2.83058 -2.1428804
v 0.11464119 2.9005191 -1.9330626
v -0.17288709 2.9005191 -1.9330626
v 0.11464119 2.799496 -2.1195672
v 0.11464119 2.83058 -2.1428804
v -0.17288709 2.83058 -2.1428804
v -0.17288709 2.799496 -2.1195672
v -0.17288709 2.799496 -2.1195672
v -0.17288709 2.83058 -2.1428804
v -0.17288709 2.9005191 -1.9330626
v -0.17288709 2.877206 -1.9097494
v -0.17288709 2.877206 -1.9097494
v -0.17288709 2.9005191 -1.9330626
v 0.11464119 2.9005191 -1.9330626
v 0.11464119 2.877206 -1.9097494
v 0.11464119 2.877206 -1.9097494
v 0.11464119 2.9005191 -1.9330626
v 0.11464119 2.83058 -2.1428804
v 0.11464119 2.799496 -2.1195672
v 1.1015621 3.7786458 -1.0393939
v 1.1015621 4.6256886 -0.829576
v -0.35939193 4.6256886 -0.829576
v -0.35939193 3.7786458 -1.0393939
v -1.1598082 4.221595 -2.041857
v -1.1598082 4.1905107 -1.6843895
v -1.1598082 4.167197 -1.6921606
v -1.1598082 4.1982813 -2.049628
v -1.1598082 4.167197 -1.6921606
v -1.1598082 4.1905107 -1.6843895
v -1.3773971 4.1905107 -1.6843895
v -1.3773971 4.167197 -1.6921606
v -1.3773971 4.221595 -2.041857
v -1.3773971 4.1905107 -1.6843895
v -1.1598082 4.1905107 -1.6843895
v -1.1598082 4.221595 -2.041857
v -1.1598082 4.1982813 -2.049628
v -1.1598082 4.167197 -1.6921606
v -1.3773971 4.167197 -1.6921606
v -1.3773971 4.1982813 -2.049628
v -1.3773971 4.1982813 -2.049628
v -1.3773971 4.167197 -1.6921606
v -1.3773971 4.1905107 -1.6843895
v -1.3773971 4.221595 -2.041857
v -0.8878219 4.361473 -2.088483
v -1.0043874 4.3070755 -2.0030017
v -1.0043874 4.1127996 -2.034086
v -0.8878219 4.0661736 -2.1428804
v -1.6493831 4.361473 -2.088483
v -1.5328176 4.3070755 -2.0030017
v -1.0043874 4.3070755 -2.0030017
v -0.8878219 4.361473 -2.088483
v -0.8878219 4.0661736 -2.1428804
v -1.0043874 4.1127996 -2.034086
v -1.5328176 4.1127996 -2.034086
v -1.6493831 4.0661736 -2.1428804
v -1.6493831 4.0661736 -2.1428804
v -1.5328176 4.1127996 -2.034086
v -1.5328176 4.3070755 -2.0030017
v -1.6493831 4.361473 -2.088483
v 1.1248752 2.3332336 -2.1972775
v 1.1248752 2.3954022 -2.1584225
v -0.37493396 2.3954022 -2.1584225
v -0.37493396 2.3332336 -2.1972775
v 1.1248752 2.2011263 -2.1661935
v 1.1248752 2.2632945 -2.1972775
v -0.37493396 2.2632945 -2.1972775
v -0.37493396 2.2011263 -2.1661935
v 1.1248752 2.2632945 -2.1972775
v 1.1248752 2.3332336 -2.1972775
v -0.37493396 2.3332336 -2.1972775
v -0.37493396 2.2632945 -2.1972775
v -1.0043874 4.1127996 -2.034086
v -1.4551072 4.136113 -2.034086
v -1.5328176 4.1127996 -2.034086
v -1.0743268 4.136113 -2.034086
v -1.4551072 4.2759914 -2.0030017
v -1.0043874 4.3070755 -2.0030017
v -1.5328176 4.3070755 -2.0030017
v -1.0743268 4.2759914 -2.0030017
v -1.1287239 4.1594267 -2.057399
v -1.3773971 4.1982813 -2.049628
v -1.4084811 4.1594267 -2.057399
v -1.1598082 4.1982813 -2.049628
v -1.3773971 4.221595 -2.041857
v -1.1287239 4.2604494 -2.034086
v -1.4084811 4.2604494 -2.034086
v -1.1598082 4.221595 -2.041857
v -0.7324014 3.7397907 -2.1972775
v -1.6493831 4.0661736 -2.1428804
v -1.8048036 3.7397907 -2.1972775
v -0.8878219 4.0661736 -2.1428804
v -1.6493831 4.361473 -2.088483
v -0.7324014 4.695627 -2.034086
v -1.8048036 4.695627 -2.034086
v -0.8878219 4.361473 -2.088483
v 1.4745717 4.695627 -0.9150574
v 1.1015621 3.7941878 -1.1326462
v 1.4745717 3.7397907 -1.1481884
v 1.1015621 4.6412306 -0.92282844
v -0.35939193 3.7941878 -1.1326462
v -0.7324014 4.695627 -0.9150574
v -0.7324014 3.7397907 -1.1481884
v -0.35939193 4.6412306 -0.92282844
v -1.7348645 1.5872147 -1.6222212
v -1.8048036 1.5872147 1.6726961
v -1.7348645 1.5872147 1.618299
v -1.8048036 1.5872147 -2.298301
v 1.808726 1.5872147 1.6726961
v 1.7387867 1.5872147 -1.6222212
v 1.7387867 1.5872147 1.618299
v 1.808726 1.5872147 -2.298301
vt 0.65278286 0.03058207
vt 0.65278286 0.03058207
vt 0.65278286 0.03058207
vt 0.65278286 0.03058207
vt 0.65278286 0.03058207
vt 0.65278286 0.03058207
vt 0.65278286 0.03058207
vt 0.65278286 0.03058207
vt 0.65278286 0.03058207
vt 0.65278286 0.03058207
vt 0.65278286 0.03058207
vt 0.65278286 0.03058207
vt 0.65278286 0.03058207
vt 0.65278286 0.03058207
vt 0.65278286 0.03058207
vt 0.65278286 0.03058207
vt 0.65278286 0.03058207
vt 0.65278286 0.03058207
vt 0.65278286 0.03058207
vt 0.65278286 0.03058207
vt 0.65278286 0.03058207
vt 0.65278286 0.03058207
vt 0.65278286 0.03058207
vt 0.65278286 0.03058207
vt 0.65278286 0.03058207
vt 0.65278286 0.03058207
vt 0.65278286 0.03058207
vt 0.65278286 0.03058207
vt 0.65278286 0.03058207
vt 0.65278286 0.03058207
vt 0.65278286 0.03058207
vt 0.65278286 0.03058207
vt 0.65278286 0.03058207
vt 0.65278286 0.03058207
vt 0.65278286 0.03058207
vt 0.65278286 0.03058207
vt 0.65278286 0.03058207
vt 0.65278286 0.03058207
vt 0.65278286 0.03058207
vt 0.65278286 0.03058207
vt 0.65278286 0.03058207
vt 0.65278286 0.03058207
vt 0.65278286 0.03058207
vt 0.65278286 0.03058207
vt 0.65278286 0.03058207
vt 0.65278286 0.03058207
vt 0.65278286 0.03058207
vt 0.65278286 0.03058207
vt 0.65278286 0.03058207
vt 0.65278286 0.03058207
vt 0.65278286 0.03058207
vt 0.65278286 0.03058207
vt 0.65278286 0.03058207
vt 0.65278286 0.03058207
vt 0.65278286 0.03058207
vt 0.65278286 0.03058207
vt 0.7173509 0.03058207
vt 0.7173509 0.03058207
vt 0.7173509 0.03058207
vt 0.7173509 0.03058207
vt 0.7173509 0.03058207
vt 0.7173509 0.03058207
vt 0.7173509 0.03058207
vt 0.7173509 0.03058207
vt 0.7173509 0.03058207
vt 0.7173509 0.03058207
vt 0.7173509 0.03058207
vt 0.7173509 0.03058207
vt 0.7173509 0.03058207
vt 0.7173509 0.03058207
vt 0.7173509 0.03058207
vt 0.7173509 0.03058207
vt 0.65278286 0.03058207
vt 0.65278286 0.03058207
vt 0.65278286 0.03058207
vt 0.65278286 0.03058207
vt 0.65278286 0.03058207
vt 0.65278286 0.03058207
vt 0.65278286 0.03058207
vt 0.65278286 0.03058207
vt 0.65278286 0.03058207
vt 0.65278286 0.03058207
vt 0.65278286 0.03058207
vt 0.65278286 0.03058207
vt 0.65278286 0.03058207
vt 0.65278286 0.03058207
vt 0.65278286 0.03058207
vt 0.65278286 0.03058207
vt 0.65278286 0.03058207
vt 0.65278286 0.03058207
vt 0.65278286 0.03058207
vt 0.65278286 0.03058207
vt 0.65278286 0.03058207
vt 0.65278286 0.03058207
vt 0.65278286 0.03058207
vt 0.65278286 0.03058207
vt 0.65278286 0.03058207
vt 0.65278286 0.03058207
vt 0.65278286 0.03058207
vt 0.65278286 0.03058207
vt 0.65278286 0.03058207
vt 0.65278286 0.03058207
vt 0.65278286 0.03058207
vt 0.65278286 0.03058207
vt 0.65278286 0.03058207
vt 0.65278286 0.03058207
vt 0.65278286 0.03058207
vt 0.65278286 0.03058207
vt 0.7173509 0.03058207
vt 0.7173509 0.03058207
vt 0.7173509 0.03058207
vt 0.7173509 0.03058207
vt 0.7173509 0.03058207
vt 0.7173509 0.03058207
vt 0.7173509 0.03058207
vt 0.7173509 0.03058207
vt 0.7173509 0.03058207
vt 0.7173509 0.03058207
vt 0.7173509 0.03058207
vt 0.7173509 0.03058207
vt 0.7173509 0.03058207
vt 0.7173509 0.03058207
vt 0.7173509 0.03058207
vt 0.7173509 0.03058207
vt 0.778984 0.03058207
vt 0.778984 0.03058207
vt 0.778984 0.03058207
vt 0.778984 0.03058207
vt 0.778984 0.03058207
vt 0.778984 0.03058207
vt 0.778984 0.03058207
vt 0.778984 0.03058207
vt 0.778984 0.03058207
vt 0.778984 0.03058207
vt 0.778984 0.03058207
vt 0.778984 0.03058207
vt 0.778984 0.03058207
vt 0.778984 0.03058207
vt 0.778984 0.03058207
vt 0.778984 0.03058207
vt 0.778984 0.03058207
vt 0.778984 0.03058207
vt 0.778984 0.03058207
vt 0.778984 0.03058207
vt 0.778984 0.03058207
vt 0.778984 0.03058207
vt 0.778984 0.03058207
vt 0.778984 0.03058207
vt 0.778984 0.03058207
vt 0.778984 0.03058207
vt 0.778984 0.03058207
vt 0.778984 0.03058207
vt 0.778984 0.03058207
vt 0.778984 0.03058207
vt 0.778984 0.03058207
vt 0.778984 0.03058207
vt 0.7173509 0.03058207
vt 0.7173509 0.03058207
vt 0.7173509 0.03058207
vt 0.7173509 0.03058207
vt 0.7173509 0.03058207
vt 0.7173509 0.03058207
vt 0.7173509 0.03058207
vt 0.7173509 0.03058207
vt 0.7173509 0.03058207
vt 0.7173509 0.03058207
vt 0.7173509 0.03058207
vt 0.7173509 0.03058207
vt 0.7173509 0.03058207
vt 0.7173509 0.03058207
vt 0.7173509 0.03058207
vt 0.7173509 0.03058207
vt 0.7173509 0.03058207
vt 0.7173509 0.03058207
vt 0.7173509 0.03058207
vt 0.7173509 0.03058207
vt 0.5970196 0.65278286
vt 0.5970196 0.65278286
vt 0.5970196 0.65278286
vt 0.5970196 0.65278286
vt 0.5970196 0.65278286
vt 0.5970196 0.65278286
vt 0.5970196 0.65278286
vt 0.5970196 0.65278286
vt 0.5970196 0.65278286
vt 0.5970196 0.65278286
vt 0.5970196 0.65278286
vt 0.5970196 0.65278286
vt 0.5970196 0.65278286
vt 0.5970196 0.65278286
vt 0.5970196 0.65278286
vt 0.5970196 0.65278286
vt 0.5970196 0.65278286
vt 0.5970196 0.65278286
vt 0.5970196 0.65278286
vt 0.5970196 0.65278286
vt 0.5970196 0.65278286
vt 0.5970196 0.65278286
vt 0.5970196 0.65278286
vt 0.5970196 0.65278286
vt 0.5970196 0.65278286
vt 0.5970196 0.65278286
vt 0.5970196 0.65278286
vt 0.5970196 0.65278286
vt 0.5970196 0.65278286
vt 0.5970196 0.65278286
vt 0.5970196 0.65278286
vt 0.5970196 0.65278286
vt 0.5970196 0.65278286
vt 0.5970196 0.65278286
vt 0.5970196 0.65278286
vt 0.5970196 0.65278286
vt 0.5970196 0.65278286
vt 0.5970196 0.65278286
vt 0.5970196 0.65278286
vt 0.5970196 0.65278286
vt 0.5970196 0.65278286
vt 0.5970196 0.65278286
vt 0.5970196 0.65278286
vt 0.5970196 0.65278286
vt 0.5970196 0.65278286
vt 0.5970196 0.65278286
vt 0.5970196 0.65278286
vt 0.5970196 0.65278286
vt 0.5970196 0.65278286
vt 0.5970196 0.65278286
vt 0.5970196 0.65278286
vt 0.5970196 0.65278286
vt 0.5970196 0.65278286
vt 0.5970196 0.65278286
vt 0.5970196 0.65278286
vt 0.5970196 0.65278286
vt 0.5970196 0.65278286
vt 0.5970196 0.65278286
vt 0.5970196 0.65278286
vt 0.5970196 0.65278286
vt 0.5970196 0.65278286
vt 0.5970196 0.65278286
vt 0.5970196 0.65278286
vt 0.5970196 0.65278286
vt 0.5970196 0.65278286
vt 0.5970196 0.65278286
vt 0.5970196 0.65278286
vt 0.5970196 0.65278286
vt 0.5970196 0.65278286
vt 0.5970196 0.65278286
vt 0.5970196 0.65278286
vt 0.5970196 0.65278286
vt 0.5970196 0.65278286
vt 0.5970196 0.65278286
vt 0.5970196 0.65278286
vt 0.5970196 0.65278286
vt 0.5970196 0.65278286
vt 0.5970196 0.65278286
vt 0.5970196 0.65278286
vt 0.5970196 0.65278286
vt 0.5970196 0.65278286
vt 0.5970196 0.65278286
vt 0.5970196 0.65278286
vt 0.5970196 0.65278286
vt 0.5970196 0.65278286
vt 0.5970196 0.65278286
vt 0.5970196 0.65278286
vt 0.5970196 0.65278286
vt 0.5970196 0.65278286
vt 0.5970196 0.65278286
vt 0.5970196 0.65278286
vt 0.5970196 0.65278286
vt 0.5970196 0.65278286
vt 0.5970196 0.65278286
vt 0.5970196 0.65278286
vt 0.5970196 0.65278286
vt 0.5970196 0.65278286
vt 0.5970196 0.65278286
vt 0.5970196 0.65278286
vt 0.5970196 0.65278286
vt 0.5970196 0.65278286
vt 0.5970196 0.65278286
vt 0.5970196 0.65278286
vt 0.5970196 0.65278286
vt 0.5970196 0.65278286
vt 0.5970196 0.65278286
vt 0.5970196 0.65278286
vt 0.5970196 0.65278286
vt 0.5970196 0.65278286
vt 0.5970196 0.65278286
vt 0.5970196 0.65278286
vt 0.5970196 0.65278286
vt 0.5970196 0.65278286
vt 0.5970196 0.65278286
vt 0.5970196 0.65278286
vt 0.5970196 0.65278286
vt 0.5970196 0.65278286
vt 0.5970196 0.65278286
vt 0.5970196 0.65278286
vt 0.5970196 0.65278286
vt 0.5970196 0.65278286
vt 0.5970196 0.65278286
vt 0.5970196 0.65278286
vt 0.5970196 0.65278286
vt 0.5970196 0.65278286
vt 0.5970196 0.65278286
vt 0.5970196 0.65278286
vt 0.5970196 0.65278286
vt 0.5970196 0.65278286
vt 0.5970196 0.65278286
vt 0.5970196 0.65278286
vt 0.5970196 0.65278286
vt 0.5970196 0.65278286
vt 0.5970196 0.65278286
vt 0.5970196 0.65278286
vt 0.5970196 0.65278286
vt 0.5970196 0.65278286
vt 0.5970196 0.65278286
vt 0.5970196 0.65278286
vt 0.5970196 0.65278286
vt 0.5970196 0.65278286
vt 0.5970196 0.65278286
vt 0.5970196 0.65278286
vt 0.5970196 0.65278286
vt 0.5970196 0.65278286
vt 0.5970196 0.65278286
vt 0.5970196 0.65278286
vt 0.5970196 0.65278286
vt 0.5970196 0.65278286
vt 0.5970196 0.65278286
vt 0.5970196 0.65278286
vt 0.5970196 0.65278286
vt 0.5970196 0.65278286
vt 0.5970196 0.65278286
vt 0.5970196 0.65278286
vt 0.5970196 0.65278286
vt 0.5970196 0.65278286
vt 0.5970196 0.65278286
vt 0.5970196 0.65278286
vt 0.5970196 0.65278286
vt 0.5970196 0.65278286
vt 0.5970196 0.65278286
vt 0.5970196 0.65278286
vt 0.5970196 0.65278286
vt 0.5970196 0.65278286
vt 0.5970196 0.65278286
vt 0.5970196 0.65278286
vt 0.5970196 0.65278286
vt 0.5970196 0.65278286
vt 0.5970196 0.65278286
vt 0.5970196 0.65278286
vt 0.5970196 0.65278286
vt 0.5970196 0.65278286
vt 0.5970196 0.65278286
vt 0.5970196 0.65278286
vt 0.5970196 0.65278286
vt 0.5970196 0.65278286
vt 0.5970196 0.65278286
vt 0.5970196 0.65278286
vt 0.5970196 0.65278286
vt 0.5970196 0.65278286
vt 0.5970196 0.65278286
vt 0.5970196 0.65278286
vt 0.5970196 0.65278286
vt 0.5970196 0.65278286
vt 0.5970196 0.65278286
vt 0.5970196 0.65278286
vt 0.5970196 0.65278286
vt 0.5970196 0.65278286
vt 0.5970196 0.65278286
vt 0.5970196 0.65278286
vt 0.5970196 0.65278286
vt 0.5970196 0.65278286
vt 0.5970196 0.65278286
vt 0.5970196 0.65278286
vt 0.5970196 0.65278286
vt 0.5970196 0.65278286
vt 0.5970196 0.65278286
vt 0.5970196 0.65278286
vt 0.5970196 0.65278286
vt 0.5970196 0.65278286
vt 0.5970196 0.65278286
vt 0.5970196 0.65278286
vt 0.5970196 0.65278286
vt 0.5970196 0.65278286
vt 0.5970196 0.65278286
vt 0.5970196 0.65278286
vt 0.5970196 0.65278286
vt 0.5970196 0.65278286
vt 0.5970196 0.65278286
vt 0.5970196 0.65278286
vt 0.5970196 0.65278286
vt 0.5970196 0.65278286
vt 0.5970196 0.65278286
vt 0.5970196 0.65278286
vt 0.5970196 0.65278286
vt 0.15384826 0.4678836
vt 0.15384826 0.4678836
vt 0.15384826 0.4678836
vt 0.15384826 0.4678836
vt 0.778984 0.03058207
vt 0.778984 0.03058207
vt 0.778984 0.03058207
vt 0.778984 0.03058207
vt 0.778984 0.03058207
vt 0.778984 0.03058207
vt 0.778984 0.03058207
vt 0.778984 0.03058207
vt 0.778984 0.03058207
vt 0.778984 0.03058207
vt 0.778984 0.03058207
vt 0.778984 0.03058207
vt 0.778984 0.03058207
vt 0.778984 0.03058207
vt 0.778984 0.03058207
vt 0.778984 0.03058207
vt 0.778984 0.03058207
vt 0.778984 0.03058207
vt 0.778984 0.03058207
vt 0.778984 0.03058207
vt 0.65278286 0.03058207
vt 0.65278286 0.03058207
vt 0.65278286 0.03058207
vt 0.65278286 0.03058207
vt 0.65278286 0.03058207
vt 0.65278286 0.03058207
vt 0.65278286 0.03058207
vt 0.65278286 0.03058207
vt 0.65278286 0.03058207
vt 0.65278286 0.03058207
vt 0.65278286 0.03058207
vt 0.65278286 0.03058207
vt 0.65278286 0.03058207
vt 0.65278286 0.03058207
vt 0.65278286 0.03058207
vt 0.65278286 0.03058207
vt 0.778984 0.03058207
vt 0.778984 0.03058207
vt 0.778984 0.03058207
vt 0.778984 0.03058207
vt 0.778984 0.03058207
vt 0.778984 0.03058207
vt 0.778984 0.03058207
vt 0.778984 0.03058207
vt 0.778984 0.03058207
vt 0.778984 0.03058207
vt 0.778984 0.03058207
vt 0.778984 0.03058207
vt 0.65278286 0.03058207
vt 0.65278286 0.03058207
vt 0.65278286 0.03058207
vt 0.65278286 0.03058207
vt 0.65278286 0.03058207
vt 0.65278286 0.03058207
vt 0.65278286 0.03058207
vt 0.65278286 0.03058207
vt 0.778984 0.03058207
vt 0.778984 0.03058207
vt 0.778984 0.03058207
vt 0.778984 0.03058207
vt 0.778984 0.03058207
vt 0.778984 0.03058207
vt 0.778984 0.03058207
vt 0.778984 0.03058207
vt 0.65278286 0.03058207
vt 0.65278286 0.03058207
vt 0.65278286 0.03058207
vt 0.65278286 0.03058207
vt 0.65278286 0.03058207
vt 0.65278286 0.03058207
vt 0.65278286 0.03058207
vt 0.65278286 0.03058207
vt 0.7173509 0.03058207
vt 0.7173509 0.03058207
vt 0.7173509 0.03058207
vt 0.7173509 0.03058207
vt 0.7173509 0.03058207
vt 0.7173509 0.03058207
vt 0.7173509 0.03058207
vt 0.7173509 0.03058207
vt 0.65278286 0.03058207
vt 0.65278286 0.03058207
vt 0.65278286 0.03058207
vt 0.65278286 0.03058207
vt 0.65278286 0.03058207
vt 0.65278286 0.03058207
vt 0.65278286 0.03058207
vt 0.65278286 0.03058207
vn -0.999874 0.015871048 -0.00034391563
vn -0.999874 0.015871048 -0.00034391563
vn -0.999874 0.015871048 -0.00034391563
vn -0.999874 0.015871048 -0.00034391563
vn 0.999874 0.015871048 -0.00034391563
vn 0.999874 0.015871048 -0.00034391563
vn 0.999874 0.015871048 -0.00034391563
vn 0.999874 0.015871048 -0.00034391563
vn 0.999874 0.015871048 -0.00034391563
vn 0.999874 0.015871048 -0.00034391563
vn 0.999874 0.015871048 -0.00034391563
vn 0.999874 0.015871048 -0.00034391563
vn 0.999874 0.015871048 -0.00034391563
vn 0.999874 0.015871048 -0.00034391563
vn 0.999874 0.015871048 -0.00034391563
vn 0.999874 0.015871048 -0.00034391563
vn 0.999874 0.015871048 -0.00034391563
vn 0.999874 0.015871048 -0.00034391563
vn 0.999874 0.015871048 -0.00034391563
vn 0.999874 0.015871048 -0.00034391563
vn -0.015871048 0.999874 -0.00034526698
vn -0.015871048 0.999874 -0.00034526698
vn -0.015871048 0.999874 -0.00034526698
vn -0.015871048 0.999874 -0.00034526698
vn -0.015871048 0.999874 -0.00034526698
vn -0.015871048 0.999874 -0.00034526698
vn -0.999874 0.015871048 -0.00034391563
vn -0.999874 0.015871048 -0.00034391563
vn -0.999874 0.015871048 -0.00034391563
vn -0.999874 0.015871048 -0.00034391563
vn -0.999874 0.015871048 -0.00034391563
vn -0.999874 0.015871048 -0.00034391563
vn -0.999874 0.015871048 -0.00034391563
vn -0.999874 0.015871048 -0.00034391563
vn -0.999874 0.015871048 -0.00034391563
vn -0.999874 0.015871048 -0.00034391563
vn -0.999874 0.015871048 -0.00034391563
vn -0.999874 0.015871048 -0.00034391563
vn -0.015871048 0.047613025 -0.9987398
vn -0.015871048 0.07935512 -0.9967201
vn -0.015871048 0.07935512 -0.9967201
vn -0.015871048 0.015871048 -0.99974805
vn -0.015871048 0.015871048 -0.99974805
vn 0.015870988 0.047613025 -0.9987398
vn 0.015870988 0.015871048 -0.99974805
vn -0.015871048 0.047613025 -0.9987398
vn 0.015870988 0.015871048 -0.99974805
vn -0.015871048 0.07935512 -0.9967201
vn -0.015871048 0.015871048 -0.99974805
vn -0.015871048 0.07935512 -0.9967201
vn -0.015871048 0.07935512 -0.9967201
vn -0.015871048 0.07935512 -0.9967201
vn -0.015871048 0.17458117 -0.98451483
vn -0.015871048 0.17458117 -0.98451483
vn -0.015871048 0.17458117 -0.98451483
vn -0.015871048 0.17458117 -0.98451483
vn -0.999874 0.015871048 -0.00034391563
vn -0.999874 0.015871048 -0.00034391563
vn -0.999874 0.015871048 -0.00034391563
vn -0.999874 0.015871048 -0.00034391563
vn -0.999874 0.015871048 -0.00034391563
vn -0.999874 0.015871048 -0.00034391563
vn -0.999874 0.015871048 -0.00034391563
vn -0.999874 0.015871048 -0.00034391563
vn 0.999874 0.015871048 -0.00034391563
vn 0.999874 0.015871048 -0.00034391563
vn 0.999874 0.015871048 -0.00034391563
vn 0.999874 0.015871048 -0.00034391563
vn 0.999874 0.015871048 -0.00034391563
vn 0.999874 0.015871048 -0.00034391563
vn 0.999874 0.015871048 -0.00034391563
vn 0.999874 0.015871048 -0.00034391563
vn -0.015871048 0.015871048 0.99974805
vn -0.015871048 0.015871048 0.99974805
vn -0.015871048 0.015871048 0.99974805
vn -0.015871048 0.015871048 0.99974805
vn -0.015871048 0.015871048 0.99974805
vn -0.015871048 0.015871048 0.99974805
vn -0.015871048 0.015871048 0.99974805
vn -0.015871048 0.015871048 0.99974805
vn -0.015871048 0.015871048 0.99974805
vn -0.015871048 0.015871048 0.99974805
vn -0.015871048 0.015871048 0.99974805
vn -0.015871048 0.015871048 0.99974805
vn -0.015871048 0.49200153 -0.87044966
vn -0.015871048 0.49200153 -0.87044966
vn -0.015871048 0.49200153 -0.87044966
vn -0.015871048 0.49200153 -0.87044966
vn -0.015871048 0.49200153 -0.87044966
vn -0.015871048 0.49200153 -0.87044966
vn -0.015871048 0.49200153 -0.87044966
vn -0.015871048 0.49200153 -0.87044966
vn -0.015871048 0.49200153 -0.87044966
vn -0.015871048 0.49200153 -0.87044966
vn -0.015871048 0.49200153 -0.87044966
vn -0.015871048 0.49200153 -0.87044966
vn -0.015871048 -0.999874 -0.00034526698
vn -0.015871048 -0.999874 -0.00034526698
vn -0.015871048 -0.999874 -0.00034526698
vn -0.015871048 -0.999874 -0.00034526698
vn -0.015871048 0.015871048 -0.99974805
vn -0.015871048 0.015871048 -0.99974805
vn -0.015871048 0.015871048 -0.99974805
vn -0.015871048 0.015871048 -0.99974805
vn -0.015871048 0.015871048 0.99974805
vn -0.015871048 0.015871048 0.99974805
vn -0.015871048 0.015871048 0.99974805
vn -0.015871048 0.015871048 0.99974805
vn -0.015871048 -0.96813196 -0.24993728
vn -0.015871048 -0.96813196 -0.24993728
vn -0.015871048 -0.96813196 -0.24993728
vn -0.015871048 -0.96813196 -0.24993728
vn -0.015871048 0.1110971 -0.9936828
vn -0.015871048 0.1110971 -0.9936828
vn -0.015871048 0.1110971 -0.9936828
vn -0.015871048 0.1110971 -0.9936828
vn -0.015871048 0.5237435 -0.85172814
vn -0.015871048 0.5237435 -0.85172814
vn -0.015871048 0.5237435 -0.85172814
vn -0.015871048 0.5237435 -0.85172814
vn -0.015871048 0.968132 -0.24993704
vn -0.015871048 0.968132 -0.24993704
vn -0.015871048 0.968132 -0.24993704
vn -0.015871048 0.968132 -0.24993704
vn 0.999874 0.015871048 -0.00034391563
vn 0.999874 0.015871048 -0.00034391563
vn 0.999874 0.015871048 -0.00034391563
vn 0.999874 0.015871048 -0.00034391563
vn -0.999874 0.015871048 -0.00034391563
vn -0.999874 0.015871048 -0.00034391563
vn -0.999874 0.015871048 -0.00034391563
vn -0.999874 0.015871048 -0.00034391563
vn -0.015871048 -0.999874 -0.00034526698
vn -0.015871048 -0.999874 -0.00034526698
vn -0.015871048 -0.999874 -0.00034526698
vn -0.015871048 -0.999874 -0.00034526698
vn -0.015871048 0.999874 -0.00034526698
vn -0.015871048 0.999874 -0.00034526698
vn -0.015871048 0.999874 -0.00034526698
vn -0.015871048 0.999874 -0.00034526698
vn 0.46025944 0.1428392 -0.87621814
vn 0.46025944 0.1428392 -0.87621814
vn 0.46025944 0.1428392 -0.87621814
vn 0.46025944 0.1428392 -0.87621814
vn -0.015871048 0.8411639 -0.5405474
vn -0.015871048 0.8411639 -0.5405474
vn -0.015871048 0.8411639 -0.5405474
vn -0.015871048 0.8411639 -0.5405474
vn -0.015871048 -0.68245363 -0.7307566
vn -0.015871048 -0.68245363 -0.7307566
vn -0.015871048 -0.68245363 -0.7307566
vn -0.015871048 -0.68245363 -0.7307566
vn -0.46025944 0.1428392 -0.87621814
vn -0.46025944 0.1428392 -0.87621814
vn -0.46025944 0.1428392 -0.87621814
vn -0.46025944 0.1428392 -0.87621814
vn 0.999874 0.015871048 -0.00034391563
vn 0.999874 0.015871048 -0.00034391563
vn 0.999874 0.015871048 -0.00034391563
vn 0.999874 0.015871048 -0.00034391563
vn 0.999874 0.015871048 -0.00034391563
vn 0.999874 0.015871048 -0.00034391563
vn -0.999874 0.015871048 -0.00034391563
vn -0.999874 0.015871048 -0.00034391563
vn -0.999874 0.015871048 -0.00034391563
vn -0.999874 0.015871048 -0.00034391563
vn -0.999874 0.015871048 -0.00034391563
vn -0.999874 0.015871048 -0.00034391563
vn -0.015871048 -0.999874 -0.00034526698
vn -0.015871048 -0.999874 -0.00034526698
vn -0.015871048 -0.999874 -0.00034526698
vn -0.015871048 -0.999874 -0.00034526698
vn -0.015871048 0.999874 -0.00034526698
vn -0.015871048 0.999874 -0.00034526698
vn -0.015871048 0.999874 -0.00034526698
vn -0.015871048 0.999874 -0.00034526698
vn -0.015871048 -0.9363899 0.35060233
vn -0.015871048 -0.9363899 0.35060233
vn -0.015871048 -0.9363899 0.35060233
vn -0.015871048 -0.9363899 0.35060233
vn -0.015871048 -0.9363899 0.35060233
vn -0.015871048 -0.9363899 0.35060233
vn -0.015871048 -0.9363899 0.35060233
vn -0.015871048 -0.9363899 0.35060233
vn -0.015871048 -0.9363899 0.35060233
vn -0.015871048 -0.9363899 0.35060233
vn -0.015871048 -0.9363899 0.35060233
vn -0.015871048 -0.9363899 0.35060233
vn -0.015871048 -0.9363899 0.35060233
vn -0.015871048 -0.9363899 0.35060233
vn -0.015871048 -0.9363899 0.35060233
vn -0.015871048 -0.9363899 0.35060233
vn -0.015871048 -0.9363899 0.35060233
vn -0.015871048 -0.9363899 0.35060233
vn -0.015871048 -0.9363899 0.35060233
vn -0.015871048 -0.9363899 0.35060233
vn -0.015871048 -0.9363899 0.35060233
vn -0.015871048 -0.9363899 0.35060233
vn -0.015871048 -0.9363899 0.35060233
vn -0.015871048 -0.9363899 0.35060233
vn -0.015871048 -0.9363899 0.35060233
vn -0.015871048 -0.9363899 0.35060233
vn -0.015871048 -0.9363899 0.35060233
vn -0.015871048 -0.9363899 0.35060233
vn -0.015871048 0.9363899 -0.35060233
vn -0.015871048 0.9363899 -0.35060233
vn -0.015871048 0.9363899 -0.35060233
vn -0.015871048 0.9363899 -0.35060233
vn -0.015871048 0.9363899 -0.35060233
vn -0.015871048 0.9363899 -0.35060233
vn -0.015871048 0.9363899 -0.35060233
vn -0.015871048 0.9363899 -0.35060233
vn -0.015871048 0.9363899 -0.35060233
vn -0.015871048 0.9363899 -0.35060233
vn -0.015871048 0.9363899 -0.35060233
vn -0.015871048 0.9363899 -0.35060233
vn -0.015871048 0.9363899 -0.35060233
vn -0.015871048 0.9363899 -0.35060233
vn -0.015871048 0.9363899 -0.35060233
vn -0.015871048 0.9363899 -0.35060233
vn -0.015871048 0.9363899 -0.35060233
vn -0.015871048 0.9363899 -0.35060233
vn -0.015871048 0.9363899 -0.35060233
vn -0.015871048 0.9363899 -0.35060233
vn -0.015871048 0.9363899 -0.35060233
vn -0.015871048 0.9363899 -0.35060233
vn -0.015871048 0.9363899 -0.35060233
vn -0.015871048 0.9363899 -0.35060233
vn -0.015871048 0.9363899 -0.35060233
vn -0.015871048 0.9363899 -0.35060233
vn -0.015871048 0.9363899 -0.35060233
vn -0.015871048 0.9363899 -0.35060233
vn -0.015871048 0.65071166 0.759159
vn -0.015871048 0.65071166 0.759159
vn -0.015871048 0.65071166 0.759159
vn -0.015871048 0.65071166 0.759159
vn 0.999874 0.015871048 -0.00034391563
vn 0.999874 0.015871048 -0.00034391563
vn 0.999874 0.015871048 -0.00034391563
vn 0.999874 0.015871048 -0.00034391563
vn 0.999874 0.015871048 -0.00034391563
vn 0.999874 0.015871048 -0.00034391563
vn 0.999874 0.015871048 -0.00034391563
vn 0.999874 0.015871048 -0.00034391563
vn -0.999874 0.015871048 -0.00034391563
vn -0.999874 0.015871048 -0.00034391563
vn -0.999874 0.015871048 -0.00034391563
vn -0.999874 0.015871048 -0.00034391563
vn -0.015871048 0.65071166 0.759159
vn -0.015871048 0.65071166 0.759159
vn -0.015871048 0.65071166 0.759159
vn -0.015871048 0.65071166 0.759159
vn -0.015871048 -0.65071166 -0.759159
vn -0.015871048 -0.65071166 -0.759159
vn -0.015871048 -0.65071166 -0.759159
vn -0.015871048 -0.65071166 -0.759159
vn -0.015871048 -0.65071166 -0.759159
vn -0.015871048 -0.65071166 -0.759159
vn -0.015871048 -0.65071166 -0.759159
vn -0.015871048 -0.65071166 -0.759159
vn 0.999874 0.015871048 -0.00034391563
vn 0.999874 0.015871048 -0.00034391563
vn 0.999874 0.015871048 -0.00034391563
vn 0.999874 0.015871048 -0.00034391563
vn 0.999874 0.015871048 -0.00034391563
vn 0.999874 0.015871048 -0.00034391563
vn 0.999874 0.015871048 -0.00034391563
vn 0.999874 0.015871048 -0.00034391563
vn -0.015871048 -0.65071166 -0.759159
vn -0.015871048 -0.65071166 -0.759159
vn -0.015871048 -0.65071166 -0.759159
vn -0.015871048 -0.65071166 -0.759159
vn -0.015871048 -0.65071166 -0.759159
vn -0.015871048 -0.65071166 -0.759159
vn -0.015871048 -0.65071166 -0.759159
vn -0.015871048 -0.65071166 -0.759159
vn -0.999874 0.015871048 -0.00034391563
vn -0.999874 0.015871048 -0.00034391563
vn -0.999874 0.015871048 -0.00034391563
vn -0.999874 0.015871048 -0.00034391563
vn -0.015871048 -0.65071166 -0.759159
vn -0.015871048 -0.65071166 -0.759159
vn -0.015871048 -0.65071166 -0.759159
vn -0.015871048 -0.65071166 -0.759159
vn 0.999874 0.015871048 -0.00034391563
vn 0.999874 0.015871048 -0.00034391563
vn 0.999874 0.015871048 -0.00034391563
vn 0.999874 0.015871048 -0.00034391563
vn -0.999874 0.015871048 -0.00034391563
vn -0.999874 0.015871048 -0.00034391563
vn -0.999874 0.015871048 -0.00034391563
vn -0.999874 0.015871048 -0.00034391563
vn -0.015871048 0.65071166 0.759159
vn -0.015871048 0.65071166 0.759159
vn -0.015871048 0.65071166 0.759159
vn -0.015871048 0.65071166 0.759159
vn -0.999874 0.015871048 -0.00034391563
vn -0.999874 0.015871048 -0.00034391563
vn -0.999874 0.015871048 -0.00034391563
vn -0.999874 0.015871048 -0.00034391563
vn -0.015871048 0.65071166 0.759159
vn -0.015871048 0.65071166 0.759159
vn -0.015871048 0.65071166 0.759159
vn -0.015871048 0.65071166 0.759159
vn -0.999874 0.015871048 -0.00034391563
vn -0.999874 0.015871048 -0.00034391563
vn -0.999874 0.015871048 -0.00034391563
vn -0.999874 0.015871048 -0.00034391563
vn -0.999874 0.015871048 -0.00034391563
vn -0.999874 0.015871048 -0.00034391563
vn -0.999874 0.015871048 -0.00034391563
vn -0.999874 0.015871048 -0.00034391563
vn -0.015871048 0.65071166 0.759159
vn -0.015871048 0.65071166 0.759159
vn -0.015871048 0.65071166 0.759159
vn -0.015871048 0.65071166 0.759159
vn -0.015871048 -0.65071166 -0.759159
vn -0.015871048 -0.65071166 -0.759159
vn -0.015871048 -0.65071166 -0.759159
vn -0.015871048 -0.65071166 -0.759159
vn -0.015871048 0.65071166 0.759159
vn -0.015871048 0.65071166 0.759159
vn -0.015871048 0.65071166 0.759159
vn -0.015871048 0.65071166 0.759159
vn 0.999874 0.015871048 -0.00034391563
vn 0.999874 0.015871048 -0.00034391563
vn 0.999874 0.015871048 -0.00034391563
vn 0.999874 0.015871048 -0.00034391563
vn -0.015871048 -0.65071166 -0.759159
vn -0.015871048 -0.65071166 -0.759159
vn -0.015871048 -0.65071166 -0.759159
vn -0.015871048 -0.65071166 -0.759159
vn -0.999874 0.015871048 -0.00034391563
vn -0.999874 0.015871048 -0.00034391563
vn -0.999874 0.015871048 -0.00034391563
vn -0.999874 0.015871048 -0.00034391563
vn 0.999874 0.015871048 -0.00034391563
vn 0.999874 0.015871048 -0.00034391563
vn 0.999874 0.015871048 -0.00034391563
vn 0.999874 0.015871048 -0.00034391563
vn -0.015871048 0.65071166 0.759159
vn -0.015871048 0.65071166 0.759159
vn -0.015871048 0.65071166 0.759159
vn -0.015871048 0.65071166 0.759159
vn -0.015871048 -0.9363899 0.35060233
vn -0.015871048 -0.9363899 0.35060233
vn -0.015871048 -0.9363899 0.35060233
vn -0.015871048 -0.9363899 0.35060233
vn -0.015871048 0.9363899 -0.35060233
vn -0.015871048 0.9363899 -0.35060233
vn -0.015871048 0.9363899 -0.35060233
vn -0.015871048 0.9363899 -0.35060233
vn -0.999874 0.015871048 -0.00034391563
vn -0.999874 0.015871048 -0.00034391563
vn -0.999874 0.015871048 -0.00034391563
vn -0.999874 0.015871048 -0.00034391563
vn -0.015871048 0.65071166 0.759159
vn -0.015871048 0.65071166 0.759159
vn -0.015871048 0.65071166 0.759159
vn -0.015871048 0.65071166 0.759159
vn 0.999874 0.015871048 -0.00034391563
vn 0.999874 0.015871048 -0.00034391563
vn 0.999874 0.015871048 -0.00034391563
vn 0.999874 0.015871048 -0.00034391563
vn -0.015871048 -0.65071166 -0.759159
vn -0.015871048 -0.65071166 -0.759159
vn -0.015871048 -0.65071166 -0.759159
vn -0.015871048 -0.65071166 -0.759159
vn -0.015871048 -0.9363899 0.35060233
vn -0.015871048 -0.9363899 0.35060233
vn -0.015871048 -0.9363899 0.35060233
vn -0.015871048 -0.9363899 0.35060233
vn -0.015871048 0.9363899 -0.35060233
vn -0.015871048 0.9363899 -0.35060233
vn -0.015871048 0.9363899 -0.35060233
vn -0.015871048 0.9363899 -0.35060233
vn -0.015871048 -0.65071166 -0.759159
vn -0.015871048 -0.65071166 -0.759159
vn -0.015871048 -0.65071166 -0.759159
vn -0.015871048 -0.65071166 -0.759159
vn -0.999874 0.015871048 -0.00034391563
vn -0.999874 0.015871048 -0.00034391563
vn -0.999874 0.015871048 -0.00034391563
vn -0.999874 0.015871048 -0.00034391563
vn -0.015871048 0.65071166 0.759159
vn -0.015871048 0.65071166 0.759159
vn -0.015871048 0.65071166 0.759159
vn -0.015871048 0.65071166 0.759159
vn 0.999874 0.015871048 -0.00034391563
vn 0.999874 0.015871048 -0.00034391563
vn 0.999874 0.015871048 -0.00034391563
vn 0.999874 0.015871048 -0.00034391563
vn -0.015871048 0.23806524 -0.97111946
vn -0.015871048 0.23806524 -0.97111946
vn -0.015871048 0.23806524 -0.97111946
vn -0.015871048 0.23806524 -0.97111946
vn -0.999874 0.015871048 -0.00034391563
vn -0.999874 0.015871048 -0.00034391563
vn -0.999874 0.015871048 -0.00034391563
vn -0.999874 0.015871048 -0.00034391563
vn -0.015871048 0.17458117 -0.98451483
vn -0.015871048 0.17458117 -0.98451483
vn -0.015871048 0.17458117 -0.98451483
vn -0.015871048 0.17458117 -0.98451483
vn -0.015871048 -0.999874 -0.00034526698
vn -0.015871048 -0.999874 -0.00034526698
vn -0.015871048 -0.999874 -0.00034526698
vn -0.015871048 -0.999874 -0.00034526698
vn -0.015871048 0.999874 -0.00034526698
vn -0.015871048 0.999874 -0.00034526698
vn -0.015871048 0.999874 -0.00034526698
vn -0.015871048 0.999874 -0.00034526698
vn 0.999874 0.015871048 -0.00034391563
vn 0.999874 0.015871048 -0.00034391563
vn 0.999874 0.015871048 -0.00034391563
vn 0.999874 0.015871048 -0.00034391563
vn -0.65071166 0.1428392 -0.7457689
vn -0.65071166 0.1428392 -0.7457689
vn -0.65071166 0.1428392 -0.7457689
vn -0.65071166 0.1428392 -0.7457689
vn -0.015871048 -0.8411638 -0.5405475
vn -0.015871048 -0.8411638 -0.5405475
vn -0.015871048 -0.8411638 -0.5405475
vn -0.015871048 -0.8411638 -0.5405475
vn -0.015871048 0.9363899 -0.35060233
vn -0.015871048 0.9363899 -0.35060233
vn -0.015871048 0.9363899 -0.35060233
vn -0.015871048 0.9363899 -0.35060233
vn 0.65071166 0.1428392 -0.7457689
vn 0.65071166 0.1428392 -0.7457689
vn 0.65071166 0.1428392 -0.7457689
vn 0.65071166 0.1428392 -0.7457689
vn -0.015871048 0.49200153 -0.87044966
vn -0.015871048 0.49200153 -0.87044966
vn -0.015871048 0.49200153 -0.87044966
vn -0.015871048 0.49200153 -0.87044966
vn -0.015871048 -0.4285174 -0.90339416
vn -0.015871048 -0.4285174 -0.90339416
vn -0.015871048 -0.4285174 -0.90339416
vn -0.015871048 -0.4285174 -0.90339416
vn -0.015871048 0.047613025 -0.9987398
vn -0.015871048 0.047613025 -0.9987398
vn -0.015871048 0.047613025 -0.9987398
vn -0.015871048 0.047613025 -0.9987398
vn -0.015871048 0.17458117 -0.98451483
vn -0.015871048 0.17458117 -0.98451483
vn -0.015871048 0.17458117 -0.98451483
vn -0.015871048 0.17458117 -0.98451483
vn -0.015871048 0.17458117 -0.98451483
vn -0.015871048 0.17458117 -0.98451483
vn -0.015871048 0.17458117 -0.98451483
vn -0.015871048 0.17458117 -0.98451483
vn -0.015871048 0.17458117 -0.98451483
vn -0.015871048 0.17458117 -0.98451483
vn -0.015871048 0.17458117 -0.98451483
vn -0.015871048 0.17458117 -0.98451483
vn -0.015871048 0.17458117 -0.98451483
vn -0.015871048 0.17458117 -0.98451483
vn -0.015871048 0.17458117 -0.98451483
vn -0.015871048 0.17458117 -0.98451483
vn -0.015871048 0.17458117 -0.98451483
vn -0.015871048 0.17458117 -0.98451483
vn -0.015871048 0.17458117 -0.98451483
vn -0.015871048 0.17458117 -0.98451483
vn -0.015871048 0.17458117 -0.98451483
vn -0.015871048 0.17458117 -0.98451483
vn -0.015871048 0.17458117 -0.98451483
vn -0.015871048 0.17458117 -0.98451483
vn -0.015871048 0.23806524 -0.97111946
vn -0.015871048 0.23806524 -0.97111946
vn -0.015871048 0.23806524 -0.97111946
vn -0.015871048 0.23806524 -0.97111946
vn -0.015871048 0.23806524 -0.97111946
vn -0.015871048 0.23806524 -0.97111946
vn -0.015871048 0.23806524 -0.97111946
vn -0.015871048 0.23806524 -0.97111946
vn -0.015871048 -0.999874 -0.00034526698
vn -0.015871048 -0.999874 -0.00034526698
vn -0.015871048 -0.999874 -0.00034526698
vn -0.015871048 -0.999874 -0.00034526698
vn -0.015871048 -0.999874 -0.00034526698
vn -0.015871048 -0.999874 -0.00034526698
vn -0.015871048 -0.999874 -0.00034526698
vn -0.015871048 -0.999874 -0.00034526698
g ATM_0
f 3/3/3 2/2/2 1/1/1
f 4/4/4 3/3/3 1/1/1
f 7/7/7 6/6/6 5/5/5
f 8/8/8 7/7/7 5/5/5
f 11/11/11 10/10/10 9/9/9
f 12/12/12 11/11/11 9/9/9
f 12/12/12 9/9/9 13/13/13
f 14/14/14 12/12/12 13/13/13
f 14/14/14 13/13/13 15/15/15
f 16/16/16 14/14/14 15/15/15
f 16/16/16 15/15/15 17/17/17
f 18/18/18 16/16/16 17/17/17
f 18/18/18 17/17/17 19/19/19
f 20/20/20 18/18/18 19/19/19
f 23/23/23 22/22/22 21/21/21
f 21/21/21 22/22/22 24/24/24
f 22/22/22 25/25/25 24/24/24
f 24/24/24 25/25/25 26/26/26
f 29/29/29 28/28/28 27/27/27
f 30/30/30 29/29/29 27/27/27
f 30/30/30 27/27/27 31/31/31
f 32/32/32 30/30/30 31/31/31
f 32/32/32 31/31/31 33/33/33
f 34/34/34 32/32/32 33/33/33
f 34/34/34 33/33/33 35/35/35
f 36/36/36 34/34/34 35/35/35
f 36/36/36 35/35/35 37/37/37
f 38/38/38 36/36/36 37/37/37
f 41/41/41 40/40/40 39/39/39
f 42/42/42 41/41/41 39/39/39
f 42/42/42 39/39/39 43/43/43
f 39/39/39 44/44/44 43/43/43
f 44/44/44 45/45/45 43/43/43
f 46/46/46 44/44/44 39/39/39
f 43/43/43 45/45/45 47/47/47
f 48/48/48 46/46/46 39/39/39
f 45/45/45 49/49/49 47/47/47
f 49/49/49 46/46/46 48/48/48
f 47/47/47 49/49/49 48/48/48
f 48/48/48 50/50/50 47/47/47
f 48/48/48 51/51/51 50/50/50
f 51/51/51 52/52/52 50/50/50
f 55/55/55 54/54/54 53/53/53
f 56/56/56 55/55/55 53/53/53
f 59/59/59 58/58/58 57/57/57
f 60/60/60 59/59/59 57/57/57
f 61/61/61 59/59/59 60/60/60
f 62/62/62 61/61/61 60/60/60
f 63/63/63 61/61/61 62/62/62
f 64/64/64 63/63/63 62/62/62
f 67/67/67 66/66/66 65/65/65
f 66/66/66 68/68/68 65/65/65
f 65/65/65 68/68/68 69/69/69
f 68/68/68 70/70/70 69/69/69
f 69/69/69 70/70/70 71/71/71
f 70/70/70 72/72/72 71/71/71
f 75/75/75 74/74/74 73/73/73
f 74/74/74 76/76/76 73/73/73
f 74/74/74 77/77/77 76/76/76
f 77/77/77 78/78/78 76/76/76
f 77/77/77 79/79/79 78/78/78
f 79/79/79 80/80/80 78/78/78
f 79/79/79 81/81/81 80/80/80
f 81/81/81 82/82/82 80/80/80
f 81/81/81 83/83/83 82/82/82
f 83/83/83 84/84/84 82/82/82
f 87/87/87 86/86/86 85/85/85
f 88/88/88 87/87/87 85/85/85
f 88/88/88 85/85/85 89/89/89
f 90/90/90 88/88/88 89/89/89
f 91/91/91 87/87/87 88/88/88
f 92/92/92 91/91/91 88/88/88
f 93/93/93 91/91/91 92/92/92
f 94/94/94 93/93/93 92/92/92
f 94/94/94 92/92/92 95/95/95
f 96/96/96 94/94/94 95/95/95
f 99/99/99 98/98/98 97/97/97
f 100/100/100 99/99/99 97/97/97
f 103/103/103 102/102/102 101/101/101
f 104/104/104 103/103/103 101/101/101
f 107/107/107 106/106/106 105/105/105
f 108/108/108 107/107/107 105/105/105
f 111/111/111 110/110/110 109/109/109
f 112/112/112 111/111/111 109/109/109
f 115/115/115 114/114/114 113/113/113
f 116/116/116 115/115/115 113/113/113
f 119/119/119 118/118/118 117/117/117
f 120/120/120 119/119/119 117/117/117
f 123/123/123 122/122/122 121/121/121
f 124/124/124 123/123/123 121/121/121
f 127/127/127 126/126/126 125/125/125
f 128/128/128 127/127/127 125/125/125
f 131/131/131 130/130/130 129/129/129
f 132/132/132 131/131/131 129/129/129
f 135/135/135 134/134/134 133/133/133
f 136/136/136 135/135/135 133/133/133
f 139/139/139 138/138/138 137/137/137
f 140/140/140 139/139/139 137/137/137
f 143/143/143 142/142/142 141/141/141
f 144/144/144 143/143/143 141/141/141
f 147/147/147 146/146/146 145/145/145
f 148/148/148 147/147/147 145/145/145
f 151/151/151 150/150/150 149/149/149
f 152/152/152 151/151/151 149/149/149
f 155/155/155 154/154/154 153/153/153
f 156/156/156 155/155/155 153/153/153
f 159/159/159 158/158/158 157/157/157
f 157/157/157 160/160/160 159/159/159
f 160/160/160 161/161/161 159/159/159
f 160/160/160 162/162/162 161/161/161
f 165/165/165 164/164/164 163/163/163
f 163/163/163 166/166/166 165/165/165
f 163/163/163 167/167/167 166/166/166
f 167/167/167 168/168/168 166/166/166
f 171/171/171 170/170/170 169/169/169
f 172/172/172 171/171/171 169/169/169
f 175/175/175 174/174/174 173/173/173
f 176/176/176 175/175/175 173/173/173
f 179/179/179 178/178/178 177/177/177
f 180/180/180 179/179/179 177/177/177
f 183/183/183 182/182/182 181/181/181
f 184/184/184 183/183/183 181/181/181
f 187/187/187 186/186/186 185/185/185
f 188/188/188 187/187/187 185/185/185
f 191/191/191 190/190/190 189/189/189
f 192/192/192 191/191/191 189/189/189
f 195/195/195 194/194/194 193/193/193
f 196/196/196 195/195/195 193/193/193
f 199/199/199 198/198/198 197/197/197
f 200/200/200 199/199/199 197/197/197
f 203/203/203 202/202/202 201/201/201
f 204/204/204 203/203/203 201/201/201
f 207/207/207 206/206/206 205/205/205
f 208/208/208 207/207/207 205/205/205
f 211/211/211 210/210/210 209/209/209
f 212/212/212 211/211/211 209/209/209
f 215/215/215 214/214/214 213/213/213
f 216/216/216 215/215/215 213/213/213
f 219/219/219 218/218/218 217/217/217
f 220/220/220 219/219/219 217/217/217
f 223/223/223 222/222/222 221/221/221
f 224/224/224 223/223/223 221/221/221
f 227/227/227 226/226/226 225/225/225
f 228/228/228 227/227/227 225/225/225
f 231/231/231 230/230/230 229/229/229
f 232/232/232 231/231/231 229/229/229
f 235/235/235 234/234/234 233/233/233
f 236/236/236 235/235/235 233/233/233
f 239/239/239 238/238/238 237/237/237
f 240/240/240 239/239/239 237/237/237
f 243/243/243 242/242/242 241/241/241
f 244/244/244 243/243/243 241/241/241
f 247/247/247 246/246/246 245/245/245
f 248/248/248 247/247/247 245/245/245
f 251/251/251 250/250/250 249/249/249
f 252/252/252 251/251/251 249/249/249
f 255/255/255 254/254/254 253/253/253
f 256/256/256 255/255/255 253/253/253
f 259/259/259 258/258/258 257/257/257
f 260/260/260 259/259/259 257/257/257
f 263/263/263 262/262/262 261/261/261
f 264/264/264 263/263/263 261/261/261
f 267/267/267 266/266/266 265/265/265
f 268/268/268 267/267/267 265/265/265
f 271/271/271 270/270/270 269/269/269
f 272/272/272 271/271/271 269/269/269
f 275/275/275 274/274/274 273/273/273
f 276/276/276 275/275/275 273/273/273
f 279/279/279 278/278/278 277/277/277
f 280/280/280 279/279/279 277/277/277
f 283/283/283 282/282/282 281/281/281
f 284/284/284 283/283/283 281/281/281
f 287/287/287 286/286/286 285/285/285
f 288/288/288 287/287/287 285/285/285
f 291/291/291 290/290/290 289/289/289
f 292/292/292 291/291/291 289/289/289
f 295/295/295 294/294/294 293/293/293
f 296/296/296 295/295/295 293/293/293
f 299/299/299 298/298/298 297/297/297
f 300/300/300 299/299/299 297/297/297
f 303/303/303 302/302/302 301/301/301
f 304/304/304 303/303/303 301/301/301
f 307/307/307 306/306/306 305/305/305
f 308/308/308 307/307/307 305/305/305
f 311/311/311 310/310/310 309/309/309
f 312/312/312 311/311/311 309/309/309
f 315/315/315 314/314/314 313/313/313
f 316/316/316 315/315/315 313/313/313
f 319/319/319 318/318/318 317/317/317
f 320/320/320 319/319/319 317/317/317
f 323/323/323 322/322/322 321/321/321
f 324/324/324 323/323/323 321/321/321
f 327/327/327 326/326/326 325/325/325
f 328/328/328 327/327/327 325/325/325
f 331/331/331 330/330/330 329/329/329
f 332/332/332 331/331/331 329/329/329
f 335/335/335 334/334/334 333/333/333
f 336/336/336 335/335/335 333/333/333
f 339/339/339 338/338/338 337/337/337
f 340/340/340 339/339/339 337/337/337
f 343/343/343 342/342/342 341/341/341
f 344/344/344 343/343/343 341/341/341
f 347/347/347 346/346/346 345/345/345
f 348/348/348 347/347/347 345/345/345
f 351/351/351 350/350/350 349/349/349
f 352/352/352 351/351/351 349/349/349
f 355/355/355 354/354/354 353/353/353
f 356/356/356 355/355/355 353/353/353
f 359/359/359 358/358/358 357/357/357
f 360/360/360 359/359/359 357/357/357
f 363/363/363 362/362/362 361/361/361
f 364/364/364 363/363/363 361/361/361
f 367/367/367 366/366/366 365/365/365
f 368/368/368 367/367/367 365/365/365
f 371/371/371 370/370/370 369/369/369
f 372/372/372 371/371/371 369/369/369
f 375/375/375 374/374/374 373/373/373
f 376/376/376 375/375/375 373/373/373
f 379/379/379 378/378/378 377/377/377
f 380/380/380 379/379/379 377/377/377
f 383/383/383 382/382/382 381/381/381
f 384/384/384 383/383/383 381/381/381
f 387/387/387 386/386/386 385/385/385
f 388/388/388 387/387/387 385/385/385
f 391/391/391 390/390/390 389/389/389
f 392/392/392 391/391/391 389/389/389
f 395/395/395 394/394/394 393/393/393
f 396/396/396 395/395/395 393/393/393
f 399/399/399 398/398/398 397/397/397
f 400/400/400 399/399/399 397/397/397
f 403/403/403 402/402/402 401/401/401
f 404/404/404 403/403/403 401/401/401
f 407/407/407 406/406/406 405/405/405
f 408/408/408 407/407/407 405/405/405
f 411/411/411 410/410/410 409/409/409
f 412/412/412 411/411/411 409/409/409
f 415/415/415 414/414/414 413/413/413
f 416/416/416 415/415/415 413/413/413
f 419/419/419 418/418/418 417/417/417
f 420/420/420 419/419/419 417/417/417
f 423/423/423 422/422/422 421/421/421
f 424/424/424 423/423/423 421/421/421
f 427/427/427 426/426/426 425/425/425
f 428/428/428 427/427/427 425/425/425
f 431/431/431 430/430/430 429/429/429
f 432/432/432 431/431/431 429/429/429
f 435/435/435 434/434/434 433/433/433
f 436/436/436 435/435/435 433/433/433
f 439/439/439 438/438/438 437/437/437
f 440/440/440 439/439/439 437/437/437
f 443/443/443 442/442/442 441/441/441
f 444/444/444 443/443/443 441/441/441
f 447/447/447 446/446/446 445/445/445
f 446/446/446 448/448/448 445/445/445
f 449/449/449 446/446/446 447/447/447
f 445/445/445 448/448/448 450/450/450
f 451/451/451 449/449/449 447/447/447
f 448/448/448 452/452/452 450/450/450
f 452/452/452 449/449/449 451/451/451
f 450/450/450 452/452/452 451/451/451
f 455/455/455 454/454/454 453/453/453
f 454/454/454 456/456/456 453/453/453
f 457/457/457 454/454/454 455/455/455
f 453/453/453 456/456/456 458/458/458
f 459/459/459 457/457/457 455/455/455
f 456/456/456 460/460/460 458/458/458
f 460/460/460 457/457/457 459/459/459
f 458/458/458 460/460/460 459/459/459
f 463/463/463 462/462/462 461/461/461
f 462/462/462 464/464/464 461/461/461
f 465/465/465 462/462/462 463/463/463
f 461/461/461 464/464/464 466/466/466
f 467/467/467 465/465/465 463/463/463
f 464/464/464 468/468/468 466/466/466
f 468/468/468 465/465/465 467/467/467
f 466/466/466 468/468/468 467/467/467
f 471/471/471 470/470/470 469/469/469
f 470/470/470 472/472/472 469/469/469
f 473/473/473 470/470/470 471/471/471
f 469/469/469 472/472/472 474/474/474
f 475/475/475 473/473/473 471/471/471
f 472/472/472 476/476/476 474/474/474
f 476/476/476 473/473/473 475/475/475
f 474/474/474 476/476/476 475/475/475
f 479/479/479 478/478/478 477/477/477
f 478/478/478 480/480/480 477/477/477
f 481/481/481 478/478/478 479/479/479
f 477/477/477 480/480/480 482/482/482
f 483/483/483 481/481/481 479/479/479
f 480/480/480 484/484/484 482/482/482
f 484/484/484 481/481/481 483/483/483
f 482/482/482 484/484/484 483/483/483
