g barrel01.012
v -2.3727245 1.3135715 -1.223983
v 0.003014803 1.3135715 -2.3125572
v -1.3282819 1.3135715 -1.988927
v 0.003014803 1.3135715 1.74753
v -3.0494056 1.3135715 -0.13540888
v -3.3509703 1.3135715 1.1002698
v -3.2479968 1.3135715 1.74753
v 2.371399 1.3135715 -1.223983
v 1.3269563 1.3135715 -1.988927
v 3.0480802 1.3135715 -0.13540888
v 3.3496447 1.3135715 1.1002698
v 3.2466714 1.3135715 1.74753
v -3.2479968 1.3135715 1.74753
v -3.2479968 1.4165444 1.74753
v 0.003014803 1.4165444 1.74753
v 0.003014803 1.3135715 1.74753
v 3.2466714 1.3135715 1.74753
v 3.2466714 1.4165444 1.74753
v -1.3282819 1.3135715 -1.988927
v 0.003014803 1.3135715 -2.3125572
v 0.003014803 1.4165444 -2.3125572
v -1.3282819 1.4165444 -1.988927
v -2.3727245 1.3135715 -1.223983
v -1.3282819 1.3135715 -1.988927
v -1.3282819 1.4165444 -1.988927
v -2.3727245 1.4165444 -1.223983
v -3.3509703 1.3135715 1.1002698
v -3.0494056 1.3135715 -0.13540888
v -3.0494056 1.4165444 -0.13540888
v -3.3509703 1.4165444 1.1002698
v 0.003014803 1.4165444 1.74753
v -3.2479968 1.4165444 1.74753
v -3.3509703 1.4165444 1.1002698
v -3.0494056 1.4165444 -0.13540888
v -2.3727245 1.4165444 -1.223983
v -1.3282819 1.4165444 -1.988927
v 0.003014803 1.4165444 -2.3125572
v 1.3269563 1.4165444 -1.988927
v 2.371399 1.4165444 -1.223983
v 3.0480802 1.4165444 -0.13540888
v 3.3496447 1.4165444 1.1002698
v 3.2466714 1.4165444 1.74753
v -3.2479968 1.3135715 1.74753
v -3.3509703 1.3135715 1.1002698
v -3.3509703 1.4165444 1.1002698
v -3.2479968 1.4165444 1.74753
v -3.0494056 1.3135715 -0.13540888
v -2.3727245 1.3135715 -1.223983
v -2.3727245 1.4165444 -1.223983
v -3.0494056 1.4165444 -0.13540888
v -2.196199 4.0717826 -0.9224186
v 0.003014803 4.0717826 -1.9300852
v -1.2253084 4.0717826 -1.6358759
v 0.003014803 4.0717826 1.2253084
v -2.8213935 4.0717826 0.07789278
v -3.1008925 4.0717826 1.2253084
v 2.1948733 4.0717826 -0.9224186
v 1.2313383 4.0717826 -1.6358759
v 2.8274233 4.0717826 0.07789278
v 3.099567 4.0717826 1.2253084
v -3.1008925 4.0717826 1.2253084
v -3.1008925 4.174756 1.2253084
v 0.003014803 4.174756 1.2253084
v 0.003014803 4.0717826 1.2253084
v 3.099567 4.0717826 1.2253084
v 3.099567 4.174756 1.2253084
v -1.2253084 4.0717826 -1.6358759
v 0.003014803 4.0717826 -1.9300852
v 0.003014803 4.174756 -1.9300852
v -1.2253084 4.174756 -1.6358759
v -2.196199 4.0717826 -0.9224186
v -1.2253084 4.0717826 -1.6358759
v -1.2253084 4.174756 -1.6358759
v -2.196199 4.174756 -0.9224186
v -3.1008925 4.0717826 1.2253084
v -2.8213935 4.0717826 0.07789278
v -2.8213935 4.174756 0.07789278
v -3.1008925 4.174756 1.2253084
v 0.003014803 4.174756 1.2253084
v -3.1008925 4.174756 1.2253084
v -2.8213935 4.174756 0.07789278
v -2.196199 4.174756 -0.9224186
v -1.2253084 4.174756 -1.6358759
v 0.003014803 4.174756 -1.9300852
v 1.2313383 4.174756 -1.6358759
v 2.1948733 4.174756 -0.9224186
v 2.8274233 4.174756 0.07789278
v 3.099567 4.174756 1.2253084
v -2.8213935 4.0717826 0.07789278
v -2.196199 4.0717826 -0.9224186
v -2.196199 4.174756 -0.9224186
v -2.8213935 4.174756 0.07789278
v 1.3269563 1.3135715 -1.988927
v 1.3269563 1.4165444 -1.988927
v 0.003014803 1.4165444 -2.3125572
v 0.003014803 1.3135715 -2.3125572
v 2.371399 1.3135715 -1.223983
v 2.371399 1.4165444 -1.223983
v 1.3269563 1.4165444 -1.988927
v 1.3269563 1.3135715 -1.988927
v 3.3496447 1.3135715 1.1002698
v 3.3496447 1.4165444 1.1002698
v 3.0480802 1.4165444 -0.13540888
v 3.0480802 1.3135715 -0.13540888
v 3.2466714 1.3135715 1.74753
v 3.2466714 1.4165444 1.74753
v 3.3496447 1.4165444 1.1002698
v 3.3496447 1.3135715 1.1002698
v 3.0480802 1.3135715 -0.13540888
v 3.0480802 1.4165444 -0.13540888
v 2.371399 1.4165444 -1.223983
v 2.371399 1.3135715 -1.223983
v 1.2313383 4.0717826 -1.6358759
v 1.2313383 4.174756 -1.6358759
v 0.003014803 4.174756 -1.9300852
v 0.003014803 4.0717826 -1.9300852
v 2.1948733 4.0717826 -0.9224186
v 2.1948733 4.174756 -0.9224186
v 1.2313383 4.174756 -1.6358759
v 1.2313383 4.0717826 -1.6358759
v 3.099567 4.0717826 1.2253084
v 3.099567 4.174756 1.2253084
v 2.8274233 4.174756 0.07789278
v 2.8274233 4.0717826 0.07789278
v 2.8274233 4.0717826 0.07789278
v 2.8274233 4.174756 0.07789278
v 2.1948733 4.174756 -0.9224186
v 2.1948733 4.0717826 -0.9224186
vt 0.21855488 0.09101184
vt 0.21855488 0.09101184
vt 0.21855488 0.09101184
vt 0.21855488 0.09101184
vt 0.21855488 0.09101184
vt 0.21855488 0.09101184
vt 0.21855488 0.09101184
vt 0.21855488 0.09101184
vt 0.21855488 0.09101184
vt 0.21855488 0.09101184
vt 0.21855488 0.09101184
vt 0.21855488 0.09101184
vt 0.21855488 0.09101184
vt 0.21855488 0.09101184
vt 0.21855488 0.09101184
vt 0.21855488 0.09101184
vt 0.21855488 0.09101184
vt 0.21855488 0.09101184
vt 0.21855488 0.09101184
vt 0.21855488 0.09101184
vt 0.21855488 0.09101184
vt 0.21855488 0.09101184
vt 0.21855488 0.09101184
vt 0.21855488 0.09101184
vt 0.21855488 0.09101184
vt 0.21855488 0.09101184
vt 0.21855488 0.09101184
vt 0.21855488 0.09101184
vt 0.21855488 0.09101184
vt 0.21855488 0.09101184
vt 0.21855488 0.09101184
vt 0.21855488 0.09101184
vt 0.21855488 0.09101184
vt 0.21855488 0.09101184
vt 0.21855488 0.09101184
vt 0.21855488 0.09101184
vt 0.21855488 0.09101184
vt 0.21855488 0.09101184
vt 0.21855488 0.09101184
vt 0.21855488 0.09101184
vt 0.21855488 0.09101184
vt 0.21855488 0.09101184
vt 0.21855488 0.09101184
vt 0.21855488 0.09101184
vt 0.21855488 0.09101184
vt 0.21855488 0.09101184
vt 0.21855488 0.09101184
vt 0.21855488 0.09101184
vt 0.21855488 0.09101184
vt 0.21855488 0.09101184
vt 0.21855488 0.09101184
vt 0.21855488 0.09101184
vt 0.21855488 0.09101184
vt 0.21855488 0.09101184
vt 0.21855488 0.09101184
vt 0.21855488 0.09101184
vt 0.21855488 0.09101184
vt 0.21855488 0.09101184
vt 0.21855488 0.09101184
vt 0.21855488 0.09101184
vt 0.21855488 0.09101184
vt 0.21855488 0.09101184
vt 0.21855488 0.09101184
vt 0.21855488 0.09101184
vt 0.21855488 0.09101184
vt 0.21855488 0.09101184
vt 0.21855488 0.09101184
vt 0.21855488 0.09101184
vt 0.21855488 0.09101184
vt 0.21855488 0.09101184
vt 0.21855488 0.09101184
vt 0.21855488 0.09101184
vt 0.21855488 0.09101184
vt 0.21855488 0.09101184
vt 0.21855488 0.09101184
vt 0.21855488 0.09101184
vt 0.21855488 0.09101184
vt 0.21855488 0.09101184
vt 0.21855488 0.09101184
vt 0.21855488 0.09101184
vt 0.21855488 0.09101184
vt 0.21855488 0.09101184
vt 0.21855488 0.09101184
vt 0.21855488 0.09101184
vt 0.21855488 0.09101184
vt 0.21855488 0.09101184
vt 0.21855488 0.09101184
vt 0.21855488 0.09101184
vt 0.21855488 0.09101184
vt 0.21855488 0.09101184
vt 0.21855488 0.09101184
vt 0.21855488 0.09101184
vt 0.21855488 0.09101184
vt 0.21855488 0.09101184
vt 0.21855488 0.09101184
vt 0.21855488 0.09101184
vt 0.21855488 0.09101184
vt 0.21855488 0.09101184
vt 0.21855488 0.09101184
vt 0.21855488 0.09101184
vt 0.21855488 0.09101184
vt 0.21855488 0.09101184
vt 0.21855488 0.09101184
vt 0.21855488 0.09101184
vt 0.21855488 0.09101184
vt 0.21855488 0.09101184
vt 0.21855488 0.09101184
vt 0.21855488 0.09101184
vt 0.21855488 0.09101184
vt 0.21855488 0.09101184
vt 0.21855488 0.09101184
vt 0.21855488 0.09101184
vt 0.21855488 0.09101184
vt 0.21855488 0.09101184
vt 0.21855488 0.09101184
vt 0.21855488 0.09101184
vt 0.21855488 0.09101184
vt 0.21855488 0.09101184
vt 0.21855488 0.09101184
vt 0.21855488 0.09101184
vt 0.21855488 0.09101184
vt 0.21855488 0.09101184
vt 0.21855488 0.09101184
vt 0.21855488 0.09101184
vt 0.21855488 0.09101184
vt 0.21855488 0.09101184
vt 0.21855488 0.09101184
vt 0.21855488 0.09101184
vn -0.015871048 -0.999874 -0.00034526698
vn -0.015871048 -0.999874 -0.00034526698
vn -0.015871048 -0.999874 -0.00034526698
vn -0.015871048 -0.999874 -0.00034526698
vn -0.015871048 -0.999874 -0.00034526698
vn -0.015871048 -0.999874 -0.00034526698
vn -0.015871048 -0.999874 -0.00034526698
vn -0.015871048 -0.999874 -0.00034526698
vn -0.015871048 -0.999874 -0.00034526698
vn -0.015871048 -0.999874 -0.00034526698
vn -0.015871048 -0.999874 -0.00034526698
vn -0.015871048 -0.999874 -0.00034526698
vn -0.015871048 0.015871048 0.99974805
vn -0.015871048 0.015871048 0.99974805
vn -0.015871048 0.015871048 0.99974805
vn -0.015871048 0.015871048 0.99974805
vn -0.015871048 0.015871048 0.99974805
vn -0.015871048 0.015871048 0.99974805
vn -0.23806524 0.015871048 -0.97111946
vn -0.23806524 0.015871048 -0.97111946
vn -0.23806524 0.015871048 -0.97111946
vn -0.23806524 0.015871048 -0.97111946
vn -0.5872276 0.015871048 -0.80926627
vn -0.5872276 0.015871048 -0.80926627
vn -0.5872276 0.015871048 -0.80926627
vn -0.5872276 0.015871048 -0.80926627
vn -0.968132 0.015871048 -0.24993704
vn -0.968132 0.015871048 -0.24993704
vn -0.968132 0.015871048 -0.24993704
vn -0.968132 0.015871048 -0.24993704
vn -0.015871048 0.999874 -0.00034526698
vn -0.015871048 0.999874 -0.00034526698
vn -0.015871048 0.999874 -0.00034526698
vn -0.015871048 0.999874 -0.00034526698
vn -0.015871048 0.999874 -0.00034526698
vn -0.015871048 0.999874 -0.00034526698
vn -0.015871048 0.999874 -0.00034526698
vn -0.015871048 0.999874 -0.00034526698
vn -0.015871048 0.999874 -0.00034526698
vn -0.015871048 0.999874 -0.00034526698
vn -0.015871048 0.999874 -0.00034526698
vn -0.015871048 0.999874 -0.00034526698
vn -0.999874 0.015871048 -0.00034391563
vn -0.999874 0.015871048 -0.00034391563
vn -0.999874 0.015871048 -0.00034391563
vn -0.999874 0.015871048 -0.00034391563
vn -0.8411639 0.015871048 -0.5405474
vn -0.8411639 0.015871048 -0.5405474
vn -0.8411639 0.015871048 -0.5405474
vn -0.8411639 0.015871048 -0.5405474
vn -0.015871048 -0.999874 -0.00034526698
vn -0.015871048 -0.999874 -0.00034526698
vn -0.015871048 -0.999874 -0.00034526698
vn -0.015871048 -0.999874 -0.00034526698
vn -0.015871048 -0.999874 -0.00034526698
vn -0.015871048 -0.999874 -0.00034526698
vn -0.015871048 -0.999874 -0.00034526698
vn -0.015871048 -0.999874 -0.00034526698
vn -0.015871048 -0.999874 -0.00034526698
vn -0.015871048 -0.999874 -0.00034526698
vn -0.015871048 0.015871048 0.99974805
vn -0.015871048 0.015871048 0.99974805
vn -0.015871048 0.015871048 0.99974805
vn -0.015871048 0.015871048 0.99974805
vn -0.015871048 0.015871048 0.99974805
vn -0.015871048 0.015871048 0.99974805
vn -0.23806524 0.015871048 -0.97111946
vn -0.23806524 0.015871048 -0.97111946
vn -0.23806524 0.015871048 -0.97111946
vn -0.23806524 0.015871048 -0.97111946
vn -0.5872276 0.015871048 -0.80926627
vn -0.5872276 0.015871048 -0.80926627
vn -0.5872276 0.015871048 -0.80926627
vn -0.5872276 0.015871048 -0.80926627
vn -0.968132 0.015871048 -0.24993704
vn -0.968132 0.015871048 -0.24993704
vn -0.968132 0.015871048 -0.24993704
vn -0.968132 0.015871048 -0.24993704
vn -0.015871048 0.999874 -0.00034526698
vn -0.015871048 0.999874 -0.00034526698
vn -0.015871048 0.999874 -0.00034526698
vn -0.015871048 0.999874 -0.00034526698
vn -0.015871048 0.999874 -0.00034526698
vn -0.015871048 0.999874 -0.00034526698
vn -0.015871048 0.999874 -0.00034526698
vn -0.015871048 0.999874 -0.00034526698
vn -0.015871048 0.999874 -0.00034526698
vn -0.015871048 0.999874 -0.00034526698
vn -0.8411639 0.015871048 -0.5405474
vn -0.8411639 0.015871048 -0.5405474
vn -0.8411639 0.015871048 -0.5405474
vn -0.8411639 0.015871048 -0.5405474
vn 0.23806524 0.015871048 -0.97111946
vn 0.23806524 0.015871048 -0.97111946
vn 0.23806524 0.015871048 -0.97111946
vn 0.23806524 0.015871048 -0.97111946
vn 0.5872276 0.015871048 -0.80926627
vn 0.5872276 0.015871048 -0.80926627
vn 0.5872276 0.015871048 -0.80926627
vn 0.5872276 0.015871048 -0.80926627
vn 0.96813196 0.015871048 -0.24993728
vn 0.96813196 0.015871048 -0.24993728
vn 0.96813196 0.015871048 -0.24993728
vn 0.96813196 0.015871048 -0.24993728
vn 0.999874 0.015871048 -0.00034391563
vn 0.999874 0.015871048 -0.00034391563
vn 0.999874 0.015871048 -0.00034391563
vn 0.999874 0.015871048 -0.00034391563
vn 0.8411638 0.015871048 -0.5405475
vn 0.8411638 0.015871048 -0.5405475
vn 0.8411638 0.015871048 -0.5405475
vn 0.8411638 0.015871048 -0.5405475
vn 0.23806524 0.015871048 -0.97111946
vn 0.23806524 0.015871048 -0.97111946
vn 0.23806524 0.015871048 -0.97111946
vn 0.23806524 0.015871048 -0.97111946
vn 0.5872276 0.015871048 -0.80926627
vn 0.5872276 0.015871048 -0.80926627
vn 0.5872276 0.015871048 -0.80926627
vn 0.5872276 0.015871048 -0.80926627
vn 0.96813196 0.015871048 -0.24993728
vn 0.96813196 0.015871048 -0.24993728
vn 0.96813196 0.015871048 -0.24993728
vn 0.96813196 0.015871048 -0.24993728
vn 0.8411638 0.015871048 -0.5405475
vn 0.8411638 0.015871048 -0.5405475
vn 0.8411638 0.015871048 -0.5405475
vn 0.8411638 0.015871048 -0.5405475
g barrel01.012_0
f 3/3/3 2/2/2 1/1/1
f 2/2/2 4/4/4 1/1/1
f 1/1/1 4/4/4 5/5/5
f 5/5/5 4/4/4 6/6/6
f 6/6/6 4/4/4 7/7/7
f 4/4/4 2/2/2 8/8/8
f 2/2/2 9/9/9 8/8/8
f 4/4/4 8/8/8 10/10/10
f 4/4/4 10/10/10 11/11/11
f 4/4/4 11/11/11 12/12/12
f 15/15/15 14/14/14 13/13/13
f 16/16/16 15/15/15 13/13/13
f 15/15/15 16/16/16 17/17/17
f 18/18/18 15/15/15 17/17/17
f 21/21/21 20/20/20 19/19/19
f 22/22/22 21/21/21 19/19/19
f 25/25/25 24/24/24 23/23/23
f 26/26/26 25/25/25 23/23/23
f 29/29/29 28/28/28 27/27/27
f 30/30/30 29/29/29 27/27/27
f 33/33/33 32/32/32 31/31/31
f 34/34/34 33/33/33 31/31/31
f 35/35/35 34/34/34 31/31/31
f 36/36/36 35/35/35 31/31/31
f 37/37/37 36/36/36 31/31/31
f 38/38/38 37/37/37 31/31/31
f 39/39/39 38/38/38 31/31/31
f 40/40/40 39/39/39 31/31/31
f 41/41/41 40/40/40 31/31/31
f 42/42/42 41/41/41 31/31/31
f 45/45/45 44/44/44 43/43/43
f 46/46/46 45/45/45 43/43/43
f 49/49/49 48/48/48 47/47/47
f 50/50/50 49/49/49 47/47/47
f 53/53/53 52/52/52 51/51/51
f 52/52/52 54/54/54 51/51/51
f 51/51/51 54/54/54 55/55/55
f 55/55/55 54/54/54 56/56/56
f 54/54/54 52/52/52 57/57/57
f 52/52/52 58/58/58 57/57/57
f 54/54/54 57/57/57 59/59/59
f 54/54/54 59/59/59 60/60/60
f 63/63/63 62/62/62 61/61/61
f 64/64/64 63/63/63 61/61/61
f 63/63/63 64/64/64 65/65/65
f 66/66/66 63/63/63 65/65/65
f 69/69/69 68/68/68 67/67/67
f 70/70/70 69/69/69 67/67/67
f 73/73/73 72/72/72 71/71/71
f 74/74/74 73/73/73 71/71/71
f 77/77/77 76/76/76 75/75/75
f 78/78/78 77/77/77 75/75/75
f 81/81/81 80/80/80 79/79/79
f 82/82/82 81/81/81 79/79/79
f 83/83/83 82/82/82 79/79/79
f 84/84/84 83/83/83 79/79/79
f 85/85/85 84/84/84 79/79/79
f 86/86/86 85/85/85 79/79/79
f 87/87/87 86/86/86 79/79/79
f 88/88/88 87/87/87 79/79/79
f 91/91/91 90/90/90 89/89/89
f 92/92/92 91/91/91 89/89/89
f 95/95/95 94/94/94 93/93/93
f 96/96/96 95/95/95 93/93/93
f 99/99/99 98/98/98 97/97/97
f 100/100/100 99/99/99 97/97/97
f 103/103/103 102/102/102 101/101/101
f 104/104/104 103/103/103 101/101/101
f 107/107/107 106/106/106 105/105/105
f 108/108/108 107/107/107 105/105/105
f 111/111/111 110/110/110 109/109/109
f 112/112/112 111/111/111 109/109/109
f 115/115/115 114/114/114 113/113/113
f 116/116/116 115/115/115 113/113/113
f 119/119/119 118/118/118 117/117/117
f 120/120/120 119/119/119 117/117/117
f 123/123/123 122/122/122 121/121/121
f 124/124/124 123/123/123 121/121/121
f 127/127/127 126/126/126 125/125/125
f 128/128/128 127/127/127 125/125/125
