g barrel01_Mat
v 4.501793 0.0037064552 -5.0416675
v 5.0024037 0.0037064552 -4.5410566
v -0.0037064552 0.0037064552 0.0037064552
v -4.49939 0.0037064552 -5.0416675
v 5.0024037 0.0037064552 4.4601264
v -5.0000005 0.0037064552 -4.5410566
v 4.501793 0.0037064552 4.9607368
v -5.0000005 0.0037064552 4.4601264
v -4.49939 0.0037064552 4.9607368
vt 0.7869759 0.09069431
vt 0.7869759 0.09069431
vt 0.7869759 0.09069431
vt 0.7869759 0.09069431
vt 0.7869759 0.09069431
vt 0.7869759 0.09069431
vt 0.7869759 0.09069431
vt 0.7869759 0.09069431
vt 0.7869759 0.09069431
vn -0 1 -0
vn -0 1 -0
vn -0 1 -0
vn -0 1 -0
vn -0 1 -0
vn -0 1 -0
vn -0 1 -0
vn -0 1 -0
vn -0 1 -0
g barrel01_Mat_0
f 3/3/3 2/2/2 1/1/1
f 1/1/1 4/4/4 3/3/3
f 5/5/5 2/2/2 3/3/3
f 3/3/3 4/4/4 6/6/6
f 3/3/3 7/7/7 5/5/5
f 6/6/6 8/8/8 3/3/3
f 9/9/9 7/7/7 3/3/3
f 3/3/3 8/8/8 9/9/9
