g barrel01.014
v 2.1198454 5.9999247 2.6085348
v 2.1198454 5.9999247 2.391138
v -2.119392 5.9999247 2.391138
v -2.119392 5.9999247 2.6085348
v 1.6198328 9 2.6085348
v 2.1198454 8.499988 2.6085348
v 2.1198454 5.9999247 2.6085348
v -2.119392 5.9999247 2.6085348
v -1.6193793 9 2.6085348
v -2.119392 8.499988 2.6085348
v 1.6198328 9 2.6085348
v -1.6193793 9 2.6085348
v -1.6193793 9 2.391138
v 1.6198328 9 2.391138
v -2.119392 5.9999247 2.391138
v -2.119392 8.499988 2.391138
v -2.119392 8.499988 2.6085348
v -2.119392 5.9999247 2.6085348
v -2.119392 5.9999247 2.391138
v 2.1198454 5.9999247 2.391138
v 2.1198454 8.499988 2.391138
v 1.6198328 9 2.391138
v -1.6193793 9 2.391138
v -2.119392 8.499988 2.391138
v 2.1198454 8.499988 2.6085348
v 1.6198328 9 2.6085348
v 1.6198328 9 2.391138
v 2.1198454 8.499988 2.391138
v -2.119392 8.499988 2.391138
v -1.6193793 9 2.391138
v -1.6193793 9 2.6085348
v -2.119392 8.499988 2.6085348
v -2.119392 5.9999247 2.6085348
v 2.1198454 5.9999247 2.6085348
v 2.1198454 5.9999247 2.391138
v -2.119392 5.9999247 2.391138
v 1.6198328 9 2.6085348
v 2.1198454 8.499988 2.6085348
v 2.1198454 5.9999247 2.6085348
v -2.119392 5.9999247 2.6085348
v -1.6193793 9 2.6085348
v -2.119392 8.499988 2.6085348
v -1.6193793 9 2.6085348
v -1.6193793 9 2.391138
v 1.6198328 9 2.391138
v 1.6198328 9 2.6085348
v 2.1198454 5.9999247 2.391138
v 2.1198454 5.9999247 2.6085348
v 2.1198454 8.499988 2.6085348
v 2.1198454 8.499988 2.391138
v -2.119392 5.9999247 2.391138
v 2.1198454 5.9999247 2.391138
v 2.1198454 8.499988 2.391138
v 1.6198328 9 2.391138
v -1.6193793 9 2.391138
v -2.119392 8.499988 2.391138
v -2.119392 8.499988 2.6085348
v -2.119392 8.499988 2.391138
v -1.6193793 9 2.391138
v -1.6193793 9 2.6085348
v 2.1198454 8.499988 2.391138
v 2.1198454 8.499988 2.6085348
v 1.6198328 9 2.6085348
v 1.6198328 9 2.391138
vt 0.21855488 0.09101183
vt 0.21855488 0.09101183
vt 0.21855488 0.09101183
vt 0.21855488 0.09101183
vt 0.21855488 0.09101183
vt 0.21855488 0.09101183
vt 0.21855488 0.09101183
vt 0.21855488 0.09101183
vt 0.21855488 0.09101183
vt 0.21855488 0.09101183
vt 0.21855488 0.09101183
vt 0.21855488 0.09101183
vt 0.21855488 0.09101183
vt 0.21855488 0.09101183
vt 0.21855488 0.09101183
vt 0.21855488 0.09101183
vt 0.21855488 0.09101183
vt 0.21855488 0.09101183
vt 0.21855488 0.09101183
vt 0.21855488 0.09101183
vt 0.21855488 0.09101183
vt 0.21855488 0.09101183
vt 0.21855488 0.09101183
vt 0.21855488 0.09101183
vt 0.21855488 0.09101183
vt 0.21855488 0.09101183
vt 0.21855488 0.09101183
vt 0.21855488 0.09101183
vt 0.21855488 0.09101183
vt 0.21855488 0.09101183
vt 0.21855488 0.09101183
vt 0.21855488 0.09101183
vt 0.21855488 0.09101183
vt 0.21855488 0.09101183
vt 0.21855488 0.09101183
vt 0.21855488 0.09101183
vt 0.21855488 0.09101183
vt 0.21855488 0.09101183
vt 0.21855488 0.09101183
vt 0.21855488 0.09101183
vt 0.21855488 0.09101183
vt 0.21855488 0.09101183
vt 0.21855488 0.09101183
vt 0.21855488 0.09101183
vt 0.21855488 0.09101183
vt 0.21855488 0.09101183
vt 0.21855488 0.09101183
vt 0.21855488 0.09101183
vt 0.21855488 0.09101183
vt 0.21855488 0.09101183
vt 0.21855488 0.09101183
vt 0.21855488 0.09101183
vt 0.21855488 0.09101183
vt 0.21855488 0.09101183
vt 0.21855488 0.09101183
vt 0.21855488 0.09101183
vt 0.21855488 0.09101183
vt 0.21855488 0.09101183
vt 0.21855488 0.09101183
vt 0.21855488 0.09101183
vt 0.21855488 0.09101183
vt 0.21855488 0.09101183
vt 0.21855488 0.09101183
vt 0.21855488 0.09101183
vn -0.015871048 -0.999874 -0.00034526698
vn -0.015871048 -0.999874 -0.00034526698
vn -0.015871048 -0.999874 -0.00034526698
vn -0.015871048 -0.999874 -0.00034526698
vn -0.015871048 0.015871048 0.99974805
vn -0.015871048 0.015871048 0.99974805
vn -0.015871048 0.015871048 0.99974805
vn -0.015871048 0.015871048 0.99974805
vn -0.015871048 0.015871048 0.99974805
vn -0.015871048 0.015871048 0.99974805
vn -0.015871048 0.999874 -0.00034526698
vn -0.015871048 0.999874 -0.00034526698
vn -0.015871048 0.999874 -0.00034526698
vn -0.015871048 0.999874 -0.00034526698
vn -0.999874 0.015871048 -0.00034391563
vn -0.999874 0.015871048 -0.00034391563
vn -0.999874 0.015871048 -0.00034391563
vn -0.999874 0.015871048 -0.00034391563
vn -0.015871048 0.015871048 -0.99974805
vn -0.015871048 0.015871048 -0.99974805
vn -0.015871048 0.015871048 -0.99974805
vn -0.015871048 0.015871048 -0.99974805
vn -0.015871048 0.015871048 -0.99974805
vn -0.015871048 0.015871048 -0.99974805
vn 0.70710677 0.70710677 -0
vn 0.70710677 0.70710677 -0
vn 0.70710677 0.70710677 -0
vn 0.70710677 0.70710677 -0
vn -0.70710677 0.70710677 -0
vn -0.70710677 0.70710677 -0
vn -0.70710677 0.70710677 -0
vn -0.70710677 0.70710677 -0
vn -0.015871048 -0.999874 -0.00034526698
vn -0.015871048 -0.999874 -0.00034526698
vn -0.015871048 -0.999874 -0.00034526698
vn -0.015871048 -0.999874 -0.00034526698
vn -0.015871048 0.015871048 0.99974805
vn -0.015871048 0.015871048 0.99974805
vn -0.015871048 0.015871048 0.99974805
vn -0.015871048 0.015871048 0.99974805
vn -0.015871048 0.015871048 0.99974805
vn -0.015871048 0.015871048 0.99974805
vn -0.015871048 0.999874 -0.00034526698
vn -0.015871048 0.999874 -0.00034526698
vn -0.015871048 0.999874 -0.00034526698
vn -0.015871048 0.999874 -0.00034526698
vn 0.999874 0.015871048 -0.00034391563
vn 0.999874 0.015871048 -0.00034391563
vn 0.999874 0.015871048 -0.00034391563
vn 0.999874 0.015871048 -0.00034391563
vn -0.015871048 0.015871048 -0.99974805
vn -0.015871048 0.015871048 -0.99974805
vn -0.015871048 0.015871048 -0.99974805
vn -0.015871048 0.015871048 -0.99974805
vn -0.015871048 0.015871048 -0.99974805
vn -0.015871048 0.015871048 -0.99974805
vn -0.70710677 0.70710677 -0
vn -0.70710677 0.70710677 -0
vn -0.70710677 0.70710677 -0
vn -0.70710677 0.70710677 -0
vn 0.70710677 0.70710677 -0
vn 0.70710677 0.70710677 -0
vn 0.70710677 0.70710677 -0
vn 0.70710677 0.70710677 -0
g barrel01.014_0
f 3/3/3 2/2/2 1/1/1
f 4/4/4 3/3/3 1/1/1
f 7/7/7 6/6/6 5/5/5
f 5/5/5 8/8/8 7/7/7
f 5/5/5 9/9/9 8/8/8
f 9/9/9 10/10/10 8/8/8
f 13/13/13 12/12/12 11/11/11
f 14/14/14 13/13/13 11/11/11
f 17/17/17 16/16/16 15/15/15
f 18/18/18 17/17/17 15/15/15
f 21/21/21 20/20/20 19/19/19
f 19/19/19 22/22/22 21/21/21
f 19/19/19 23/23/23 22/22/22
f 19/19/19 24/24/24 23/23/23
f 27/27/27 26/26/26 25/25/25
f 28/28/28 27/27/27 25/25/25
f 31/31/31 30/30/30 29/29/29
f 32/32/32 31/31/31 29/29/29
f 35/35/35 34/34/34 33/33/33
f 36/36/36 35/35/35 33/33/33
f 39/39/39 38/38/38 37/37/37
f 37/37/37 40/40/40 39/39/39
f 37/37/37 41/41/41 40/40/40
f 41/41/41 42/42/42 40/40/40
f 45/45/45 44/44/44 43/43/43
f 46/46/46 45/45/45 43/43/43
f 49/49/49 48/48/48 47/47/47
f 50/50/50 49/49/49 47/47/47
f 53/53/53 52/52/52 51/51/51
f 51/51/51 54/54/54 53/53/53
f 51/51/51 55/55/55 54/54/54
f 51/51/51 56/56/56 55/55/55
f 59/59/59 58/58/58 57/57/57
f 60/60/60 59/59/59 57/57/57
f 63/63/63 62/62/62 61/61/61
f 64/64/64 63/63/63 61/61/61
