g barrel01
v 2.6782951 7.1983037 -0.002055645
v 2.7313952 6.4124236 -1.1277754
v 2.4765153 7.1983037 -1.0215755
v 2.954415 6.4124236 -0.002055645
v 3.0393753 4.798184 -1.2552154
v 3.294255 4.798184 -0.002055645
v 3.294255 2.4086843 -0.002055645
v 3.0393753 2.4086843 -1.2552154
v 2.954415 0.78382444 -0.002055645
v 2.7313952 0.78382444 -1.1277754
v 2.7207751 0.22096443 -0.002055645
v 2.5189953 0.22096443 -1.0428154
v -2.472404 7.1983037 -1.0321953
v -2.9609241 6.4124236 -0.002055645
v -2.684804 7.1983037 -0.002055645
v -2.727284 6.4124236 -1.1383953
v -3.290144 4.798184 -0.002055645
v -3.035264 4.798184 -1.2658355
v -3.035264 2.4086843 -1.2658355
v -3.290144 2.4086843 -0.002055645
v -2.727284 0.78382444 -1.1383953
v -2.9609241 0.78382444 -0.002055645
v -2.514884 0.22096443 -1.0428154
v -2.727284 0.22096443 -0.002055645
v -2.4830241 7.1983037 1.0280843
v -2.090084 6.4124236 2.090084
v -1.8989244 7.1983037 1.8989244
v -2.737904 6.4124236 1.134284
v -2.3237243 4.798184 2.3237243
v -3.0458841 4.798184 1.261724
v -3.0458841 2.4086843 1.261724
v -2.3237243 2.4086843 2.3237243
v -2.737904 0.78382444 1.134284
v -2.090084 0.78382444 2.090084
v -2.514884 0.22096443 1.0387044
v -1.9307842 0.22096443 1.9307842
v 2.4765153 7.1983037 1.0280843
v 2.954415 6.4124236 -0.002055645
v 2.6782951 7.1983037 -0.002055645
v 2.7313952 6.4124236 1.134284
v 3.294255 4.798184 -0.002055645
v 3.0393753 4.798184 1.261724
v 3.0393753 2.4086843 1.261724
v 3.294255 2.4086843 -0.002055645
v 2.7313952 0.78382444 1.134284
v 2.954415 0.78382444 -0.002055645
v 2.5189953 0.22096443 1.049324
v 2.7207751 0.22096443 -0.002055645
v 1.0215755 7.1983037 2.4830241
v 2.0941954 6.4124236 2.090084
v 1.8924153 7.1983037 1.8989244
v 1.1277754 6.4124236 2.737904
v 2.327835 4.798184 2.3237243
v 1.2552154 4.798184 3.0458841
v 1.2552154 2.4086843 3.0458841
v 2.327835 2.4086843 2.3237243
v 1.1277754 0.78382444 2.737904
v 2.0941954 0.78382444 2.090084
v 1.0428154 0.22096443 2.514884
v 1.9242753 0.22096443 1.9307842
v 0.002055645 7.1983037 2.684804
v 1.1277754 6.4124236 2.737904
v 1.0215755 7.1983037 2.4830241
v 0.002055645 6.4124236 2.9609241
v 1.2552154 4.798184 3.0458841
v 0.002055645 4.798184 3.290144
v 0.002055645 2.4086843 3.290144
v 1.2552154 2.4086843 3.0458841
v 0.002055645 0.78382444 2.9609241
v 1.1277754 0.78382444 2.737904
v 0.002055645 0.22096443 2.727284
v 1.0428154 0.22096443 2.514884
v 1.8924153 7.1983037 1.8989244
v 2.7313952 6.4124236 1.134284
v 2.4765153 7.1983037 1.0280843
v 2.0941954 6.4124236 2.090084
v 3.0393753 4.798184 1.261724
v 2.327835 4.798184 2.3237243
v 2.327835 2.4086843 2.3237243
v 3.0393753 2.4086843 1.261724
v 2.0941954 0.78382444 2.090084
v 2.7313952 0.78382444 1.134284
v 1.9242753 0.22096443 1.9307842
v 2.5189953 0.22096443 1.049324
v -1.0280843 7.1983037 2.472404
v 0.002055645 6.4124236 2.9609241
v 0.002055645 7.1983037 2.684804
v -1.134284 6.4124236 2.727284
v 0.002055645 4.798184 3.290144
v -1.261724 4.798184 3.035264
v -1.261724 2.4086843 3.035264
v 0.002055645 2.4086843 3.290144
v -1.134284 0.78382444 2.727284
v 0.002055645 0.78382444 2.9609241
v -1.049324 0.22096443 2.514884
v 0.002055645 0.22096443 2.727284
v -1.8989244 7.1983037 1.8989244
v -1.134284 6.4124236 2.727284
v -1.0280843 7.1983037 2.472404
v -2.090084 6.4124236 2.090084
v -1.261724 4.798184 3.035264
v -2.3237243 4.798184 2.3237243
v -2.3237243 2.4086843 2.3237243
v -1.261724 2.4086843 3.035264
v -2.090084 0.78382444 2.090084
v -1.134284 0.78382444 2.727284
v -1.9307842 0.22096443 1.9307842
v -1.049324 0.22096443 2.514884
v -2.684804 7.1983037 -0.002055645
v -2.737904 6.4124236 1.134284
v -2.4830241 7.1983037 1.0280843
v -2.9609241 6.4124236 -0.002055645
v -3.0458841 4.798184 1.261724
v -3.290144 4.798184 -0.002055645
v -3.290144 2.4086843 -0.002055645
v -3.0458841 2.4086843 1.261724
v -2.9609241 0.78382444 -0.002055645
v -2.737904 0.78382444 1.134284
v -2.727284 0.22096443 -0.002055645
v -2.514884 0.22096443 1.0387044
v -2.652944 7.1983037 -1.0959153
v -2.472404 7.1983037 -1.0321953
v -2.684804 7.1983037 -0.002055645
v -2.8759642 7.1983037 -0.002055645
v -2.4830241 7.1983037 1.0280843
v -2.652944 7.1983037 1.091804
v -1.8989244 7.1983037 1.8989244
v -2.0263643 7.1983037 2.0263643
v -1.0280843 7.1983037 2.472404
v -1.1024241 7.1983037 2.652944
v 0.002055645 7.1983037 2.684804
v 0.002055645 7.1983037 2.865344
v 1.0215755 7.1983037 2.4830241
v 1.0959153 7.1983037 2.652944
v 1.8924153 7.1983037 1.8989244
v 2.0304751 7.1983037 2.036984
v 2.4765153 7.1983037 1.0280843
v 2.6464353 7.1983037 1.1024241
v 2.6782951 7.1983037 -0.002055645
v 2.869455 7.1983037 -0.002055645
v 2.4765153 7.1983037 -1.0215755
v 2.6570554 7.1983037 -1.0959153
v -2.652944 7.1983037 -1.0959153
v -2.8759642 7.1983037 -0.002055645
v -3.162704 6.4230437 -0.002055645
v -2.9184442 6.4230437 -1.2127354
v -3.4919238 4.808804 -0.002055645
v -3.2264237 4.808804 -1.3401754
v -3.4919238 2.387444 -0.002055645
v -3.2264237 2.387444 -1.3401754
v -2.9184442 0.7732043 -1.2127354
v -3.162704 0.7732043 -0.002055645
v -2.652944 -0.002055645 -1.0959153
v -2.8759642 -0.002055645 -0.002055645
v 2.0304751 7.1983037 2.036984
v 2.6464353 7.1983037 1.1024241
v 2.9225552 6.4230437 1.2086244
v 2.2322552 6.4230437 2.2387643
v 3.230535 4.808804 1.3360643
v 2.4658952 4.808804 2.472404
v 3.230535 2.387444 1.3360643
v 2.4658952 2.387444 2.472404
v 2.2322552 0.7732043 2.2387643
v 2.9225552 0.7732043 1.2086244
v 2.0304751 -0.002055645 2.036984
v 2.6464353 -0.002055645 1.1024241
v 0.002055645 7.1983037 2.865344
v 1.0959153 7.1983037 2.652944
v 1.2127354 6.4230437 2.9184442
v 0.002055645 6.4230437 3.162704
v 1.3295555 4.808804 3.2264237
v 0.002055645 4.808804 3.4919238
v 1.3295555 2.387444 3.2264237
v 0.002055645 2.387444 3.4919238
v 0.002055645 0.7732043 3.162704
v 1.2127354 0.7732043 2.9184442
v 0.002055645 -0.002055645 2.865344
v 1.0959153 -0.002055645 2.652944
v -2.0263643 7.1983037 2.0263643
v -1.1024241 7.1983037 2.652944
v -1.2086244 6.4230437 2.9184442
v -2.2387643 6.4230437 2.2387643
v -1.3360643 4.808804 3.2264237
v -2.472404 4.808804 2.472404
v -1.3360643 2.387444 3.2264237
v -2.472404 2.387444 2.472404
v -2.2387643 0.7732043 2.2387643
v -1.2086244 0.7732043 2.9184442
v -2.0263643 -0.002055645 2.0263643
v -1.1024241 -0.002055645 2.652944
v 1.0959153 7.1983037 2.652944
v 2.0304751 7.1983037 2.036984
v 2.2322552 6.4230437 2.2387643
v 1.2127354 6.4230437 2.9184442
v 2.4658952 4.808804 2.472404
v 1.3295555 4.808804 3.2264237
v 2.4658952 2.387444 2.472404
v 1.3295555 2.387444 3.2264237
v 1.2127354 0.7732043 2.9184442
v 2.2322552 0.7732043 2.2387643
v 1.0959153 -0.002055645 2.652944
v 2.0304751 -0.002055645 2.036984
v -2.8759642 7.1983037 -0.002055645
v -2.652944 7.1983037 1.091804
v -2.9184442 6.4230437 1.2086244
v -3.162704 6.4230437 -0.002055645
v -3.2264237 4.808804 1.3360643
v -3.4919238 4.808804 -0.002055645
v -3.2264237 2.387444 1.3360643
v -3.4919238 2.387444 -0.002055645
v -3.162704 0.7732043 -0.002055645
v -2.9184442 0.7732043 1.2086244
v -2.8759642 -0.002055645 -0.002055645
v -2.652944 -0.002055645 1.091804
v 2.869455 7.1983037 -0.002055645
v 2.6570554 7.1983037 -1.0959153
v 2.9225552 6.4230437 -1.2127354
v 3.166815 6.4230437 -0.002055645
v 3.230535 4.808804 -1.3295555
v 3.496035 4.808804 -0.002055645
v 3.496035 2.387444 -0.002055645
v 3.230535 2.387444 -1.3295555
v 3.166815 0.7732043 -0.002055645
v 2.9225552 0.7732043 -1.2127354
v 2.869455 -0.002055645 -0.002055645
v 2.6570554 -0.002055645 -1.0959153
v -1.1024241 7.1983037 2.652944
v 0.002055645 7.1983037 2.865344
v 0.002055645 6.4230437 3.162704
v -1.2086244 6.4230437 2.9184442
v 0.002055645 4.808804 3.4919238
v -1.3360643 4.808804 3.2264237
v 0.002055645 2.387444 3.4919238
v -1.3360643 2.387444 3.2264237
v -1.2086244 0.7732043 2.9184442
v 0.002055645 0.7732043 3.162704
v -1.1024241 -0.002055645 2.652944
v 0.002055645 -0.002055645 2.865344
v -2.652944 7.1983037 1.091804
v -2.0263643 7.1983037 2.0263643
v -2.2387643 6.4230437 2.2387643
v -2.9184442 6.4230437 1.2086244
v -2.472404 4.808804 2.472404
v -3.2264237 4.808804 1.3360643
v -2.472404 2.387444 2.472404
v -3.2264237 2.387444 1.3360643
v -2.9184442 0.7732043 1.2086244
v -2.2387643 0.7732043 2.2387643
v -2.652944 -0.002055645 1.091804
v -2.0263643 -0.002055645 2.0263643
v 2.6464353 7.1983037 1.1024241
v 2.869455 7.1983037 -0.002055645
v 3.166815 6.4230437 -0.002055645
v 2.9225552 6.4230437 1.2086244
v 3.496035 4.808804 -0.002055645
v 3.230535 4.808804 1.3360643
v 3.496035 2.387444 -0.002055645
v 3.230535 2.387444 1.3360643
v 2.9225552 0.7732043 1.2086244
v 3.166815 0.7732043 -0.002055645
v 2.6464353 -0.002055645 1.1024241
v 2.869455 -0.002055645 -0.002055645
v 0.002055645 0.22096443 2.727284
v -1.049324 0.22096443 2.514884
v 1.0428154 0.22096443 2.514884
v -1.9307842 0.22096443 1.9307842
v 1.9242753 0.22096443 1.9307842
v -2.514884 0.22096443 1.0387044
v 2.5189953 0.22096443 1.049324
v -2.727284 0.22096443 -0.002055645
v 2.7207751 0.22096443 -0.002055645
v -2.514884 0.22096443 -1.0428154
v 2.5189953 0.22096443 -1.0428154
v -3.6618438 4.5008235 -0.002055645
v -3.385724 4.5008235 -1.4038954
v -3.3113837 5.1274037 -1.3720355
v -3.587504 5.1274037 -0.002055645
v -3.385724 4.5008235 1.3997841
v -3.3113837 5.1274037 1.3679242
v -2.599844 4.5008235 2.5892239
v -2.5361242 5.1274037 2.5361242
v -1.4104042 4.5008235 3.385724
v -1.3785443 5.1274037 3.3113837
v 0.002055645 4.5008235 3.6618438
v -0.008564472 5.1274037 3.587504
v 1.4038954 4.5008235 3.385724
v 1.3720355 5.1274037 3.3113837
v 2.5933352 4.5008235 2.5892239
v 2.5296154 5.1274037 2.5361242
v 3.3898351 4.5008235 1.4104042
v 3.3048751 5.1274037 1.3785443
v 3.665955 4.5008235 0.008564472
v 3.580995 5.1274037 0.008564472
v 3.3898351 4.5008235 -1.4038954
v 3.315495 5.1274037 -1.3720355
v -3.6618438 2.695424 -0.002055645
v -3.3113837 2.0688443 -1.3720355
v -3.385724 2.695424 -1.4038954
v -3.587504 2.0688443 -0.002055645
v -3.385724 2.695424 1.3997841
v -3.3113837 2.0688443 1.3679242
v -2.599844 2.695424 2.5892239
v -2.5361242 2.0688443 2.5361242
v -1.4104042 2.695424 3.385724
v -1.3785443 2.0688443 3.3113837
v 0.002055645 2.695424 3.6618438
v -0.008564472 2.0688443 3.587504
v 1.4038954 2.695424 3.385724
v 1.3720355 2.0688443 3.3113837
v 2.5933352 2.695424 2.5892239
v 2.5296154 2.0688443 2.5361242
v 3.3898351 2.695424 1.4104042
v 3.3048751 2.0688443 1.3785443
v 3.665955 2.695424 0.008564472
v 3.580995 2.0688443 0.008564472
v 3.3898351 2.695424 -1.4038954
v 3.315495 2.0688443 -1.3720355
v 2.9225552 0.7732043 -1.2127354
v 3.230535 2.387444 -1.3295555
v 3.230535 4.808804 -1.3295555
v 3.0393753 2.4086843 -1.2552154
v 3.0393753 4.798184 -1.2552154
v 2.7313952 0.78382444 -1.1277754
v 2.9225552 6.4230437 -1.2127354
v 2.6570554 -0.002055645 -1.0959153
v 2.7313952 6.4124236 -1.1277754
v 2.6570554 7.1983037 -1.0959153
v 2.4765153 7.1983037 -1.0215755
v 2.5189953 0.22096443 -1.0428154
v 0.002055645 -0.002055645 -1.0321953
v -2.514884 0.22096443 -1.0428154
v -2.652944 -0.002055645 -1.0959153
v -2.727284 0.78382444 -1.1383953
v -2.9184442 0.7732043 -1.2127354
v -3.035264 2.4086843 -1.2658355
v -3.2264237 2.387444 -1.3401754
v -3.035264 4.798184 -1.2658355
v -3.2264237 4.808804 -1.3401754
v -2.9184442 6.4230437 -1.2127354
v -2.727284 6.4124236 -1.1383953
v -2.652944 7.1983037 -1.0959153
v -2.472404 7.1983037 -1.0321953
v 2.6570554 -0.002055645 -1.0959153
v -2.652944 -0.002055645 -1.0959153
v -2.8759642 -0.002055645 -0.002055645
v 2.869455 -0.002055645 -0.002055645
v -2.652944 -0.002055645 1.091804
v 2.6464353 -0.002055645 1.1024241
v -2.0263643 -0.002055645 2.0263643
v 2.0304751 -0.002055645 2.036984
v -1.1024241 -0.002055645 2.652944
v 1.0959153 -0.002055645 2.652944
v 0.002055645 -0.002055645 2.865344
v -3.385724 2.695424 -1.4038954
v -3.1520839 2.7910042 -1.3083155
v -3.4069638 2.7910042 -0.002055645
v -3.6618438 2.695424 -0.002055645
v -3.1520839 2.7910042 1.304204
v -3.385724 2.695424 1.3997841
v -2.4086843 2.7910042 2.4086843
v -2.599844 2.695424 2.5892239
v -1.304204 2.7910042 3.1520839
v -1.4104042 2.695424 3.385724
v 0.002055645 2.7910042 3.417584
v 0.002055645 2.695424 3.6618438
v 1.2976954 2.7910042 3.1520839
v 1.4038954 2.695424 3.385724
v 2.4127953 2.7910042 2.419304
v 2.5933352 2.695424 2.5892239
v 3.145575 2.7910042 1.3148241
v 3.3898351 2.695424 1.4104042
v 3.411075 2.7910042 0.008564472
v 3.665955 2.695424 0.008564472
v 3.1561952 2.7910042 -1.2976954
v 3.3898351 2.695424 -1.4038954
v -3.385724 4.5008235 -1.4038954
v -3.1520839 4.468964 -1.3083155
v -3.077744 5.053064 -1.2764554
v -3.3113837 5.1274037 -1.3720355
v -3.3113837 5.1274037 -1.3720355
v -3.077744 5.053064 -1.2764554
v -3.332624 5.053064 -0.002055645
v -3.587504 5.1274037 -0.002055645
v -3.077744 5.053064 1.2723441
v -3.3113837 5.1274037 1.3679242
v -2.3555841 5.053064 2.3555841
v -2.5361242 5.1274037 2.5361242
v -1.2829642 5.053064 3.077744
v -1.3785443 5.1274037 3.3113837
v 0.002055645 5.053064 3.332624
v -0.008564472 5.1274037 3.587504
v 1.2764554 5.053064 3.0883641
v 1.3720355 5.1274037 3.3113837
v 2.3490753 5.053064 2.3662043
v 2.5296154 5.1274037 2.5361242
v 3.0818553 5.053064 1.2829642
v 3.3048751 5.1274037 1.3785443
v 3.336735 5.053064 0.008564472
v 3.580995 5.1274037 0.008564472
v 3.0818553 5.053064 -1.2658355
v 3.315495 5.1274037 -1.3720355
v -3.3113837 2.0688443 -1.3720355
v -3.077744 2.206904 -1.2764554
v -3.1520839 2.7910042 -1.3083155
v -3.385724 2.695424 -1.4038954
v 3.315495 5.1274037 -1.3720355
v 3.0818553 5.053064 -1.2658355
v 3.1561952 4.468964 -1.2976954
v 3.3898351 4.5008235 -1.4038954
v 3.3898351 2.695424 -1.4038954
v 3.1561952 2.7910042 -1.2976954
v 3.0818553 2.206904 -1.2658355
v 3.315495 2.0688443 -1.3720355
vt 0.2204714 0.093078256
vt 0.2204714 0.093078256
vt 0.2204714 0.093078256
vt 0.2204714 0.093078256
vt 0.2204714 0.093078256
vt 0.2204714 0.093078256
vt 0.2204714 0.093078256
vt 0.2204714 0.093078256
vt 0.2204714 0.093078256
vt 0.2204714 0.093078256
vt 0.2204714 0.093078256
vt 0.2204714 0.093078256
vt 0.2204714 0.093078256
vt 0.2204714 0.093078256
vt 0.2204714 0.093078256
vt 0.2204714 0.093078256
vt 0.2204714 0.093078256
vt 0.2204714 0.093078256
vt 0.2204714 0.093078256
vt 0.2204714 0.093078256
vt 0.2204714 0.093078256
vt 0.2204714 0.093078256
vt 0.2204714 0.093078256
vt 0.2204714 0.093078256
vt 0.2204714 0.093078256
vt 0.2204714 0.093078256
vt 0.2204714 0.093078256
vt 0.2204714 0.093078256
vt 0.2204714 0.093078256
vt 0.2204714 0.093078256
vt 0.2204714 0.093078256
vt 0.2204714 0.093078256
vt 0.2204714 0.093078256
vt 0.2204714 0.093078256
vt 0.2204714 0.093078256
vt 0.2204714 0.093078256
vt 0.2204714 0.093078256
vt 0.2204714 0.093078256
vt 0.2204714 0.093078256
vt 0.2204714 0.093078256
vt 0.2204714 0.093078256
vt 0.2204714 0.093078256
vt 0.2204714 0.093078256
vt 0.2204714 0.093078256
vt 0.2204714 0.093078256
vt 0.2204714 0.093078256
vt 0.2204714 0.093078256
vt 0.2204714 0.093078256
vt 0.2204714 0.093078256
vt 0.2204714 0.093078256
vt 0.2204714 0.093078256
vt 0.2204714 0.093078256
vt 0.2204714 0.093078256
vt 0.2204714 0.093078256
vt 0.2204714 0.093078256
vt 0.2204714 0.093078256
vt 0.2204714 0.093078256
vt 0.2204714 0.093078256
vt 0.2204714 0.093078256
vt 0.2204714 0.093078256
vt 0.2204714 0.093078256
vt 0.2204714 0.093078256
vt 0.2204714 0.093078256
vt 0.2204714 0.093078256
vt 0.2204714 0.093078256
vt 0.2204714 0.093078256
vt 0.2204714 0.093078256
vt 0.2204714 0.093078256
vt 0.2204714 0.093078256
vt 0.2204714 0.093078256
vt 0.2204714 0.093078256
vt 0.2204714 0.093078256
vt 0.2204714 0.093078256
vt 0.2204714 0.093078256
vt 0.2204714 0.093078256
vt 0.2204714 0.093078256
vt 0.2204714 0.093078256
vt 0.2204714 0.093078256
vt 0.2204714 0.093078256
vt 0.2204714 0.093078256
vt 0.2204714 0.093078256
vt 0.2204714 0.093078256
vt 0.2204714 0.093078256
vt 0.2204714 0.093078256
vt 0.2204714 0.093078256
vt 0.2204714 0.093078256
vt 0.2204714 0.093078256
vt 0.2204714 0.093078256
vt 0.2204714 0.093078256
vt 0.2204714 0.093078256
vt 0.2204714 0.093078256
vt 0.2204714 0.093078256
vt 0.2204714 0.093078256
vt 0.2204714 0.093078256
vt 0.2204714 0.093078256
vt 0.2204714 0.093078256
vt 0.2204714 0.093078256
vt 0.2204714 0.093078256
vt 0.2204714 0.093078256
vt 0.2204714 0.093078256
vt 0.2204714 0.093078256
vt 0.2204714 0.093078256
vt 0.2204714 0.093078256
vt 0.2204714 0.093078256
vt 0.2204714 0.093078256
vt 0.2204714 0.093078256
vt 0.2204714 0.093078256
vt 0.2204714 0.093078256
vt 0.2204714 0.093078256
vt 0.2204714 0.093078256
vt 0.2204714 0.093078256
vt 0.2204714 0.093078256
vt 0.2204714 0.093078256
vt 0.2204714 0.093078256
vt 0.2204714 0.093078256
vt 0.2204714 0.093078256
vt 0.2204714 0.093078256
vt 0.2204714 0.093078256
vt 0.2204714 0.093078256
vt 0.2204714 0.093078256
vt 0.2204714 0.093078256
vt 0.2204714 0.093078256
vt 0.2204714 0.093078256
vt 0.2204714 0.093078256
vt 0.2204714 0.093078256
vt 0.2204714 0.093078256
vt 0.2204714 0.093078256
vt 0.2204714 0.093078256
vt 0.2204714 0.093078256
vt 0.2204714 0.093078256
vt 0.2204714 0.093078256
vt 0.2204714 0.093078256
vt 0.2204714 0.093078256
vt 0.2204714 0.093078256
vt 0.2204714 0.093078256
vt 0.2204714 0.093078256
vt 0.2204714 0.093078256
vt 0.2204714 0.093078256
vt 0.2204714 0.093078256
vt 0.2204714 0.093078256
vt 0.2204714 0.093078256
vt 0.2204714 0.093078256
vt 0.2204714 0.093078256
vt 0.2204714 0.093078256
vt 0.2204714 0.093078256
vt 0.2204714 0.093078256
vt 0.2204714 0.093078256
vt 0.2204714 0.093078256
vt 0.2204714 0.093078256
vt 0.2204714 0.093078256
vt 0.2204714 0.093078256
vt 0.2204714 0.093078256
vt 0.2204714 0.093078256
vt 0.2204714 0.093078256
vt 0.2204714 0.093078256
vt 0.2204714 0.093078256
vt 0.2204714 0.093078256
vt 0.2204714 0.093078256
vt 0.2204714 0.093078256
vt 0.2204714 0.093078256
vt 0.2204714 0.093078256
vt 0.2204714 0.093078256
vt 0.2204714 0.093078256
vt 0.2204714 0.093078256
vt 0.2204714 0.093078256
vt 0.2204714 0.093078256
vt 0.2204714 0.093078256
vt 0.2204714 0.093078256
vt 0.2204714 0.093078256
vt 0.2204714 0.093078256
vt 0.2204714 0.093078256
vt 0.2204714 0.093078256
vt 0.2204714 0.093078256
vt 0.2204714 0.093078256
vt 0.2204714 0.093078256
vt 0.2204714 0.093078256
vt 0.2204714 0.093078256
vt 0.2204714 0.093078256
vt 0.2204714 0.093078256
vt 0.2204714 0.093078256
vt 0.2204714 0.093078256
vt 0.2204714 0.093078256
vt 0.2204714 0.093078256
vt 0.2204714 0.093078256
vt 0.2204714 0.093078256
vt 0.2204714 0.093078256
vt 0.2204714 0.093078256
vt 0.2204714 0.093078256
vt 0.2204714 0.093078256
vt 0.2204714 0.093078256
vt 0.2204714 0.093078256
vt 0.2204714 0.093078256
vt 0.2204714 0.093078256
vt 0.2204714 0.093078256
vt 0.2204714 0.093078256
vt 0.2204714 0.093078256
vt 0.2204714 0.093078256
vt 0.2204714 0.093078256
vt 0.2204714 0.093078256
vt 0.2204714 0.093078256
vt 0.2204714 0.093078256
vt 0.2204714 0.093078256
vt 0.2204714 0.093078256
vt 0.2204714 0.093078256
vt 0.2204714 0.093078256
vt 0.2204714 0.093078256
vt 0.2204714 0.093078256
vt 0.2204714 0.093078256
vt 0.2204714 0.093078256
vt 0.2204714 0.093078256
vt 0.2204714 0.093078256
vt 0.2204714 0.093078256
vt 0.2204714 0.093078256
vt 0.2204714 0.093078256
vt 0.2204714 0.093078256
vt 0.2204714 0.093078256
vt 0.2204714 0.093078256
vt 0.2204714 0.093078256
vt 0.2204714 0.093078256
vt 0.2204714 0.093078256
vt 0.2204714 0.093078256
vt 0.2204714 0.093078256
vt 0.2204714 0.093078256
vt 0.2204714 0.093078256
vt 0.2204714 0.093078256
vt 0.2204714 0.093078256
vt 0.2204714 0.093078256
vt 0.2204714 0.093078256
vt 0.2204714 0.093078256
vt 0.2204714 0.093078256
vt 0.2204714 0.093078256
vt 0.2204714 0.093078256
vt 0.2204714 0.093078256
vt 0.2204714 0.093078256
vt 0.2204714 0.093078256
vt 0.2204714 0.093078256
vt 0.2204714 0.093078256
vt 0.2204714 0.093078256
vt 0.2204714 0.093078256
vt 0.2204714 0.093078256
vt 0.2204714 0.093078256
vt 0.2204714 0.093078256
vt 0.2204714 0.093078256
vt 0.2204714 0.093078256
vt 0.2204714 0.093078256
vt 0.2204714 0.093078256
vt 0.2204714 0.093078256
vt 0.2204714 0.093078256
vt 0.2204714 0.093078256
vt 0.2204714 0.093078256
vt 0.2204714 0.093078256
vt 0.2204714 0.093078256
vt 0.2204714 0.093078256
vt 0.2204714 0.093078256
vt 0.2204714 0.093078256
vt 0.2204714 0.093078256
vt 0.2204714 0.093078256
vt 0.2204714 0.093078256
vt 0.2204714 0.093078256
vt 0.2204714 0.093078256
vt 0.2204714 0.093078256
vt 0.2204714 0.093078256
vt 0.2204714 0.093078256
vt 0.2204714 0.093078256
vt 0.2204714 0.093078256
vt 0.2204714 0.093078256
vt 0.2204714 0.093078256
vt 0.2204714 0.093078256
vt 0.2204714 0.093078256
vt 0.2204714 0.093078256
vt 0.2204714 0.093078256
vt 0.2204714 0.093078256
vt 0.2204714 0.093078256
vt 0.97105795 0.15505329
vt 0.97105795 0.15505329
vt 0.97105795 0.15505329
vt 0.97105795 0.15505329
vt 0.97105795 0.15505329
vt 0.97105795 0.15505329
vt 0.97105795 0.15505329
vt 0.97105795 0.15505329
vt 0.97105795 0.15505329
vt 0.97105795 0.15505329
vt 0.97105795 0.15505329
vt 0.97105795 0.15505329
vt 0.97105795 0.15505329
vt 0.97105795 0.15505329
vt 0.97105795 0.15505329
vt 0.97105795 0.15505329
vt 0.97105795 0.15505329
vt 0.97105795 0.15505329
vt 0.97105795 0.15505329
vt 0.97105795 0.15505329
vt 0.97105795 0.15505329
vt 0.97105795 0.15505329
vt 0.97105795 0.15505329
vt 0.97105795 0.15505329
vt 0.97105795 0.15505329
vt 0.97105795 0.15505329
vt 0.97105795 0.15505329
vt 0.97105795 0.15505329
vt 0.97105795 0.15505329
vt 0.97105795 0.15505329
vt 0.97105795 0.15505329
vt 0.97105795 0.15505329
vt 0.97105795 0.15505329
vt 0.97105795 0.15505329
vt 0.97105795 0.15505329
vt 0.97105795 0.15505329
vt 0.97105795 0.15505329
vt 0.97105795 0.15505329
vt 0.97105795 0.15505329
vt 0.97105795 0.15505329
vt 0.97105795 0.15505329
vt 0.97105795 0.15505329
vt 0.97105795 0.15505329
vt 0.97105795 0.15505329
vt 0.2204714 0.093078256
vt 0.2204714 0.093078256
vt 0.2204714 0.093078256
vt 0.2204714 0.093078256
vt 0.2204714 0.093078256
vt 0.2204714 0.093078256
vt 0.2204714 0.093078256
vt 0.2204714 0.093078256
vt 0.2204714 0.093078256
vt 0.2204714 0.093078256
vt 0.2204714 0.093078256
vt 0.2204714 0.093078256
vt 0.2204714 0.093078256
vt 0.2204714 0.093078256
vt 0.2204714 0.093078256
vt 0.2204714 0.093078256
vt 0.2204714 0.093078256
vt 0.2204714 0.093078256
vt 0.2204714 0.093078256
vt 0.2204714 0.093078256
vt 0.2204714 0.093078256
vt 0.2204714 0.093078256
vt 0.2204714 0.093078256
vt 0.2204714 0.093078256
vt 0.2204714 0.093078256
vt 0.2204714 0.093078256
vt 0.2204714 0.093078256
vt 0.2204714 0.093078256
vt 0.2204714 0.093078256
vt 0.2204714 0.093078256
vt 0.2204714 0.093078256
vt 0.2204714 0.093078256
vt 0.2204714 0.093078256
vt 0.2204714 0.093078256
vt 0.2204714 0.093078256
vt 0.2204714 0.093078256
vt 0.97105795 0.15505329
vt 0.97105795 0.15505329
vt 0.97105795 0.15505329
vt 0.97105795 0.15505329
vt 0.97105795 0.15505329
vt 0.97105795 0.15505329
vt 0.97105795 0.15505329
vt 0.97105795 0.15505329
vt 0.97105795 0.15505329
vt 0.97105795 0.15505329
vt 0.97105795 0.15505329
vt 0.97105795 0.15505329
vt 0.97105795 0.15505329
vt 0.97105795 0.15505329
vt 0.97105795 0.15505329
vt 0.97105795 0.15505329
vt 0.97105795 0.15505329
vt 0.97105795 0.15505329
vt 0.97105795 0.15505329
vt 0.97105795 0.15505329
vt 0.97105795 0.15505329
vt 0.97105795 0.15505329
vt 0.97105795 0.15505329
vt 0.97105795 0.15505329
vt 0.97105795 0.15505329
vt 0.97105795 0.15505329
vt 0.97105795 0.15505329
vt 0.97105795 0.15505329
vt 0.97105795 0.15505329
vt 0.97105795 0.15505329
vt 0.97105795 0.15505329
vt 0.97105795 0.15505329
vt 0.97105795 0.15505329
vt 0.97105795 0.15505329
vt 0.97105795 0.15505329
vt 0.97105795 0.15505329
vt 0.97105795 0.15505329
vt 0.97105795 0.15505329
vt 0.97105795 0.15505329
vt 0.97105795 0.15505329
vt 0.97105795 0.15505329
vt 0.97105795 0.15505329
vt 0.97105795 0.15505329
vt 0.97105795 0.15505329
vt 0.97105795 0.15505329
vt 0.97105795 0.15505329
vt 0.97105795 0.15505329
vt 0.97105795 0.15505329
vt 0.97105795 0.15505329
vt 0.97105795 0.15505329
vt 0.97105795 0.15505329
vt 0.97105795 0.15505329
vt 0.97105795 0.15505329
vt 0.97105795 0.15505329
vt 0.97105795 0.15505329
vt 0.97105795 0.15505329
vt 0.97105795 0.15505329
vt 0.97105795 0.15505329
vt 0.97105795 0.15505329
vt 0.97105795 0.15505329
vn -0.9363899 -0.33329135 0.109958015
vn -0.9363899 -0.26980728 0.22445028
vn -0.9363899 -0.33329135 0.109958015
vn -0.9363899 -0.26980728 0.22445028
vn -0.968132 -0.1110971 0.22445011
vn -0.968132 -0.1110971 0.22445011
vn -0.968132 0.1110971 0.22445011
vn -0.968132 0.1110971 0.22445011
vn -0.9363899 0.26980734 0.2244502
vn -0.9363899 0.26980734 0.2244502
vn -0.90464795 0.3650334 0.21991521
vn -0.90464795 0.3650334 0.21991521
vn 0.9363899 -0.33329135 0.109958015
vn 0.9363899 -0.26980728 0.22445028
vn 0.9363899 -0.33329135 0.109958015
vn 0.9363899 -0.26980728 0.22445028
vn 0.96813196 -0.1110971 0.22445038
vn 0.96813196 -0.1110971 0.22445038
vn 0.96813196 0.1110971 0.22445038
vn 0.96813196 0.1110971 0.22445038
vn 0.9363899 0.26980734 0.2244502
vn 0.9363899 0.26980734 0.2244502
vn 0.9046479 0.3650334 0.21991548
vn 0.9046479 0.3650334 0.21991548
vn 0.7776798 -0.33329135 -0.5330394
vn 0.8094218 -0.26980728 -0.521575
vn 0.7776798 -0.33329135 -0.5330394
vn 0.8094218 -0.26980728 -0.521575
vn 0.8411638 -0.1110971 -0.52924556
vn 0.8411638 -0.1110971 -0.52924556
vn 0.8411638 0.1110971 -0.52924556
vn 0.8411638 0.1110971 -0.52924556
vn 0.8094218 0.26980734 -0.521575
vn 0.8094218 0.26980734 -0.521575
vn 0.7776798 0.3650334 -0.51182497
vn 0.7776798 0.3650334 -0.51182497
vn -0.9363899 -0.33329135 -0.109958015
vn -0.9363899 -0.26980728 -0.22445028
vn -0.9363899 -0.33329135 -0.109958015
vn -0.9363899 -0.26980728 -0.22445028
vn -0.968132 -0.1110971 -0.22445011
vn -0.968132 -0.1110971 -0.22445011
vn -0.968132 0.1110971 -0.22445011
vn -0.968132 0.1110971 -0.22445011
vn -0.9363899 0.26980734 -0.2244502
vn -0.9363899 0.26980734 -0.2244502
vn -0.90464795 0.3650334 -0.21991521
vn -0.90464795 0.3650334 -0.21991521
vn -0.5237435 -0.33329135 -0.7839704
vn -0.5237435 -0.26980728 -0.8080203
vn -0.5237435 -0.33329135 -0.7839704
vn -0.5237435 -0.26980728 -0.8080203
vn -0.5554856 -0.1110971 -0.8240711
vn -0.5554856 -0.1110971 -0.8240711
vn -0.5554856 0.1110971 -0.8240711
vn -0.5554856 0.1110971 -0.8240711
vn -0.5237435 0.26980734 -0.8080203
vn -0.5237435 0.26980734 -0.8080203
vn -0.5237435 0.3650334 -0.7697034
vn -0.5237435 0.3650334 -0.7697034
vn -0.17458117 -0.33329135 -0.92651945
vn -0.17458117 -0.26980728 -0.94695586
vn -0.17458117 -0.33329135 -0.92651945
vn -0.17458117 -0.26980728 -0.94695586
vn -0.20632327 -0.1110971 -0.97215647
vn -0.20632327 -0.1110971 -0.97215647
vn -0.20632327 0.1110971 -0.97215647
vn -0.20632327 0.1110971 -0.97215647
vn -0.17458117 0.26980734 -0.94695586
vn -0.17458117 0.26980734 -0.94695586
vn -0.17458117 0.3650334 -0.9144791
vn -0.17458117 0.3650334 -0.9144791
vn -0.7776798 -0.33329135 -0.5330394
vn -0.8094218 -0.26980728 -0.521575
vn -0.7776798 -0.33329135 -0.5330394
vn -0.8094218 -0.26980728 -0.521575
vn -0.8411639 -0.1110971 -0.52924544
vn -0.8411639 -0.1110971 -0.52924544
vn -0.8411639 0.1110971 -0.52924544
vn -0.8411639 0.1110971 -0.52924544
vn -0.8094218 0.26980734 -0.521575
vn -0.8094218 0.26980734 -0.521575
vn -0.7776798 0.3650334 -0.51182497
vn -0.7776798 0.3650334 -0.51182497
vn 0.17458117 -0.33329135 -0.92651945
vn 0.17458117 -0.26980728 -0.94695586
vn 0.17458117 -0.33329135 -0.92651945
vn 0.17458117 -0.26980728 -0.94695586
vn 0.2063232 -0.1110971 -0.97215647
vn 0.2063232 -0.1110971 -0.97215647
vn 0.2063232 0.1110971 -0.97215647
vn 0.2063232 0.1110971 -0.97215647
vn 0.17458117 0.26980734 -0.94695586
vn 0.17458117 0.26980734 -0.94695586
vn 0.17458117 0.3650334 -0.9144791
vn 0.17458117 0.3650334 -0.9144791
vn 0.5237435 -0.33329135 -0.7839704
vn 0.5237435 -0.26980728 -0.8080203
vn 0.5237435 -0.33329135 -0.7839704
vn 0.5237435 -0.26980728 -0.8080203
vn 0.55548555 -0.1110971 -0.8240711
vn 0.55548555 -0.1110971 -0.8240711
vn 0.55548555 0.1110971 -0.8240711
vn 0.55548555 0.1110971 -0.8240711
vn 0.5237435 0.26980734 -0.8080203
vn 0.5237435 0.26980734 -0.8080203
vn 0.5237435 0.3650334 -0.7697034
vn 0.5237435 0.3650334 -0.7697034
vn 0.9363899 -0.33329135 -0.109958015
vn 0.9363899 -0.26980728 -0.22445028
vn 0.9363899 -0.33329135 -0.109958015
vn 0.9363899 -0.26980728 -0.22445028
vn 0.96813196 -0.1110971 -0.22445038
vn 0.96813196 -0.1110971 -0.22445038
vn 0.96813196 0.1110971 -0.22445038
vn 0.96813196 0.1110971 -0.22445038
vn 0.9363899 0.26980734 -0.2244502
vn 0.9363899 0.26980734 -0.2244502
vn 0.9046479 0.3650334 -0.21991548
vn 0.9046479 0.3650334 -0.21991548
vn 0.015870988 0.999874 -0.00034526698
vn 0.015870988 0.999874 -0.00034526698
vn -0.015871048 0.999874 -0.00034526698
vn -0.015871048 0.999874 -0.00034526698
vn -0.015871048 0.999874 -0.00034526698
vn -0.015871048 0.999874 -0.00034526698
vn -0.015871048 0.999874 -0.00034526698
vn -0.015871048 0.999874 -0.00034526698
vn -0.015871048 0.999874 -0.00034526698
vn -0.015871048 0.999874 -0.00034526698
vn -0.015871048 0.999874 -0.00034526698
vn -0.015871048 0.999874 -0.00034526698
vn 0.015870988 0.999874 -0.00034526698
vn 0.015870988 0.999874 -0.00034526698
vn 0.015870988 0.999874 -0.00034526698
vn 0.015870988 0.999874 -0.00034526698
vn 0.015870988 0.999874 -0.00034526698
vn 0.015870988 0.999874 -0.00034526698
vn -0.015871048 0.999874 -0.00034526698
vn -0.015871048 0.999874 -0.00034526698
vn -0.015871048 0.999874 -0.00034526698
vn -0.015871048 0.999874 -0.00034526698
vn -0.90464795 0.3332913 -0.26557294
vn -0.90464795 0.3332913 -0.26557294
vn -0.9363899 0.26980734 -0.2244502
vn -0.9363899 0.26980734 -0.2244502
vn -0.968132 0.1110971 -0.22445011
vn -0.968132 0.1110971 -0.22445011
vn -0.968132 -0.1110971 -0.22445011
vn -0.968132 -0.1110971 -0.22445011
vn -0.9363899 -0.26980728 -0.22445028
vn -0.9363899 -0.26980728 -0.22445028
vn -0.90464795 -0.33329135 -0.26557288
vn -0.90464795 -0.33329135 -0.26557288
vn 0.7776798 0.3332913 0.53303945
vn 0.7776798 0.3332913 0.53303945
vn 0.8094218 0.26980734 0.521575
vn 0.8094218 0.26980734 0.521575
vn 0.8411638 0.1110971 0.52924556
vn 0.8411638 0.1110971 0.52924556
vn 0.8411638 -0.1110971 0.52924556
vn 0.8411638 -0.1110971 0.52924556
vn 0.8094218 -0.26980728 0.521575
vn 0.8094218 -0.26980728 0.521575
vn 0.7776798 -0.33329135 0.5330394
vn 0.7776798 -0.33329135 0.5330394
vn 0.17458117 0.3332913 0.92651945
vn 0.17458117 0.3332913 0.92651945
vn 0.17458117 0.26980734 0.94695586
vn 0.17458117 0.26980734 0.94695586
vn 0.2063232 0.1110971 0.97215647
vn 0.2063232 0.1110971 0.97215647
vn 0.2063232 -0.1110971 0.97215647
vn 0.2063232 -0.1110971 0.97215647
vn 0.17458117 -0.26980728 0.94695586
vn 0.17458117 -0.26980728 0.94695586
vn 0.17458117 -0.33329135 0.92651945
vn 0.17458117 -0.33329135 0.92651945
vn -0.5237435 0.3332913 0.7839704
vn -0.5237435 0.3332913 0.7839704
vn -0.5237435 0.26980734 0.8080203
vn -0.5237435 0.26980734 0.8080203
vn -0.5554856 0.1110971 0.8240711
vn -0.5554856 0.1110971 0.8240711
vn -0.5554856 -0.1110971 0.8240711
vn -0.5554856 -0.1110971 0.8240711
vn -0.5237435 -0.26980728 0.8080203
vn -0.5237435 -0.26980728 0.8080203
vn -0.5237435 -0.33329135 0.7839704
vn -0.5237435 -0.33329135 0.7839704
vn 0.5237435 0.3332913 0.7839704
vn 0.5237435 0.3332913 0.7839704
vn 0.5237435 0.26980734 0.8080203
vn 0.5237435 0.26980734 0.8080203
vn 0.55548555 0.1110971 0.8240711
vn 0.55548555 0.1110971 0.8240711
vn 0.55548555 -0.1110971 0.8240711
vn 0.55548555 -0.1110971 0.8240711
vn 0.5237435 -0.26980728 0.8080203
vn 0.5237435 -0.26980728 0.8080203
vn 0.5237435 -0.33329135 0.7839704
vn 0.5237435 -0.33329135 0.7839704
vn -0.90464795 0.3332913 0.26557294
vn -0.90464795 0.3332913 0.26557294
vn -0.9363899 0.26980734 0.2244502
vn -0.9363899 0.26980734 0.2244502
vn -0.968132 0.1110971 0.22445011
vn -0.968132 0.1110971 0.22445011
vn -0.968132 -0.1110971 0.22445011
vn -0.968132 -0.1110971 0.22445011
vn -0.9363899 -0.26980728 0.22445028
vn -0.9363899 -0.26980728 0.22445028
vn -0.90464795 -0.33329135 0.26557288
vn -0.90464795 -0.33329135 0.26557288
vn 0.9046479 0.3332913 -0.26557317
vn 0.9046479 0.3332913 -0.26557317
vn 0.9363899 0.26980734 -0.2244502
vn 0.9363899 0.26980734 -0.2244502
vn 0.96813196 0.1110971 -0.22445038
vn 0.96813196 0.1110971 -0.22445038
vn 0.96813196 -0.1110971 -0.22445038
vn 0.96813196 -0.1110971 -0.22445038
vn 0.9363899 -0.26980728 -0.22445028
vn 0.9363899 -0.26980728 -0.22445028
vn 0.9046479 -0.33329135 -0.26557308
vn 0.9046479 -0.33329135 -0.26557308
vn -0.17458117 0.3332913 0.92651945
vn -0.17458117 0.3332913 0.92651945
vn -0.17458117 0.26980734 0.94695586
vn -0.17458117 0.26980734 0.94695586
vn -0.20632327 0.1110971 0.97215647
vn -0.20632327 0.1110971 0.97215647
vn -0.20632327 -0.1110971 0.97215647
vn -0.20632327 -0.1110971 0.97215647
vn -0.17458117 -0.26980728 0.94695586
vn -0.17458117 -0.26980728 0.94695586
vn -0.17458117 -0.33329135 0.92651945
vn -0.17458117 -0.33329135 0.92651945
vn -0.7776798 0.3332913 0.53303945
vn -0.7776798 0.3332913 0.53303945
vn -0.8094218 0.26980734 0.521575
vn -0.8094218 0.26980734 0.521575
vn -0.8411639 0.1110971 0.52924544
vn -0.8411639 0.1110971 0.52924544
vn -0.8411639 -0.1110971 0.52924544
vn -0.8411639 -0.1110971 0.52924544
vn -0.8094218 -0.26980728 0.521575
vn -0.8094218 -0.26980728 0.521575
vn -0.7776798 -0.33329135 0.5330394
vn -0.7776798 -0.33329135 0.5330394
vn 0.9046479 0.3332913 0.26557317
vn 0.9046479 0.3332913 0.26557317
vn 0.9363899 0.26980734 0.2244502
vn 0.9363899 0.26980734 0.2244502
vn 0.96813196 0.1110971 0.22445038
vn 0.96813196 0.1110971 0.22445038
vn 0.96813196 -0.1110971 0.22445038
vn 0.96813196 -0.1110971 0.22445038
vn 0.9363899 -0.26980728 0.22445028
vn 0.9363899 -0.26980728 0.22445028
vn 0.9046479 -0.33329135 0.26557308
vn 0.9046479 -0.33329135 0.26557308
vn -0.015871048 0.999874 -0.00034526698
vn -0.015871048 0.999874 -0.00034526698
vn -0.015871048 0.999874 -0.00034526698
vn -0.015871048 0.999874 -0.00034526698
vn -0.015871048 0.999874 -0.00034526698
vn -0.015871048 0.999874 -0.00034526698
vn -0.015871048 0.999874 -0.00034526698
vn -0.015871048 0.999874 -0.00034526698
vn -0.015871048 0.999874 -0.00034526698
vn -0.015871048 0.999874 -0.00034526698
vn -0.015871048 0.999874 -0.00034526698
vn -0.98994946 0.14142141 -0
vn -0.968132 0.1428392 -0.20571189
vn -0.968132 0.1428392 -0.20571189
vn -0.98994946 0.14142141 -0
vn -0.90464795 0.1428392 0.40150845
vn -0.90464795 0.1428392 0.40150845
vn -0.7141957 0.1428392 0.68521637
vn -0.7141957 0.1428392 0.68521637
vn -0.3650334 0.1428392 0.9199715
vn -0.3650334 0.1428392 0.9199715
vn -0.015871048 0.1428392 0.98961866
vn -0.015871048 0.1428392 0.98961866
vn 0.36503333 0.1428392 0.9199715
vn 0.36503333 0.1428392 0.9199715
vn 0.7141957 0.1428392 0.68521637
vn 0.7141957 0.1428392 0.68521637
vn 0.9046479 0.1428392 0.4015086
vn 0.9046479 0.1428392 0.4015086
vn 0.98994946 0.14142141 -0
vn 0.98994946 0.14142141 -0
vn 0.96813196 0.1428392 -0.20571218
vn 0.96813196 0.1428392 -0.20571218
vn -0.98994946 -0.14142135 -0
vn -0.968132 -0.14283913 -0.20571193
vn -0.968132 -0.14283913 -0.20571193
vn -0.98994946 -0.14142135 -0
vn -0.90464795 -0.14283913 0.40150848
vn -0.90464795 -0.14283913 0.40150848
vn -0.7141957 -0.14283913 0.68521637
vn -0.7141957 -0.14283913 0.68521637
vn -0.3650334 -0.14283913 0.9199715
vn -0.3650334 -0.14283913 0.9199715
vn -0.015871048 -0.14283913 0.98961866
vn -0.015871048 -0.14283913 0.98961866
vn 0.36503333 -0.14283913 0.9199715
vn 0.36503333 -0.14283913 0.9199715
vn 0.7141957 -0.14283913 0.68521637
vn 0.7141957 -0.14283913 0.68521637
vn 0.9046479 -0.14283913 0.40150863
vn 0.9046479 -0.14283913 0.40150863
vn 0.98994946 -0.14142135 -0
vn 0.98994946 -0.14142135 -0
vn 0.96813196 -0.14283913 -0.20571221
vn 0.96813196 -0.14283913 -0.20571221
vn 0.015870988 0.015871048 -0.99974805
vn 0.015870988 0.015871048 -0.99974805
vn 0.015870988 0.015871048 -0.99974805
vn 0.015870988 0.015871048 -0.99974805
vn 0.015870988 0.015871048 -0.99974805
vn 0.015870988 0.015871048 -0.99974805
vn 0.015870988 0.015871048 -0.99974805
vn 0.015870988 0.015871048 -0.99974805
vn 0.015870988 0.015871048 -0.99974805
vn 0.015870988 0.015871048 -0.99974805
vn 0.015870988 0.015871048 -0.99974805
vn 0.015870988 0.015871048 -0.99974805
vn 0.015870988 0.015871048 -0.99974805
vn 0.015870988 0.015871048 -0.99974805
vn 0.015870988 0.015871048 -0.99974805
vn 0.015870988 0.015871048 -0.99974805
vn 0.015870988 0.015871048 -0.99974805
vn 0.015870988 0.015871048 -0.99974805
vn 0.015870988 0.015871048 -0.99974805
vn 0.015870988 0.015871048 -0.99974805
vn 0.015870988 0.015871048 -0.99974805
vn 0.015870988 0.015871048 -0.99974805
vn 0.015870988 0.015871048 -0.99974805
vn 0.015870988 0.015871048 -0.99974805
vn 0.015870988 0.015871048 -0.99974805
vn -0.015871048 -0.999874 -0.00034526698
vn -0.015871048 -0.999874 -0.00034526698
vn -0.015871048 -0.999874 -0.00034526698
vn -0.015871048 -0.999874 -0.00034526698
vn -0.015871048 -0.999874 -0.00034526698
vn -0.015871048 -0.999874 -0.00034526698
vn -0.015871048 -0.999874 -0.00034526698
vn -0.015871048 -0.999874 -0.00034526698
vn -0.015871048 -0.999874 -0.00034526698
vn -0.015871048 -0.999874 -0.00034526698
vn -0.015871048 -0.999874 -0.00034526698
vn -0.3332913 0.9363899 -0.10995819
vn -0.3332913 0.9363899 -0.10995819
vn -0.3332913 0.9363899 0.10995819
vn -0.3332913 0.9363899 -0.10995819
vn -0.3332913 0.9363899 0.10995819
vn -0.3332913 0.9363899 0.10995819
vn -0.23806524 0.9363899 0.25787365
vn -0.23806524 0.9363899 0.25787365
vn -0.1428392 0.9363899 0.32057896
vn -0.1428392 0.9363899 0.32057896
vn -0.015871048 0.9363899 0.35060233
vn -0.015871048 0.9363899 0.35060233
vn 0.14283913 0.9363899 0.32057896
vn 0.14283913 0.9363899 0.32057896
vn 0.23806524 0.9363899 0.25787365
vn 0.23806524 0.9363899 0.25787365
vn 0.33329135 0.9363899 0.10995791
vn 0.33329135 0.9363899 0.10995791
vn 0.33329135 0.9363899 0.10995791
vn 0.33329135 0.9363899 -0.10995791
vn 0.33329135 0.9363899 -0.10995791
vn 0.33329135 0.9363899 -0.10995791
vn 0.39677536 -0.015870988 -0.9177785
vn 0.39677536 -0.015870988 -0.9177785
vn 0.39677536 -0.015870988 -0.9177785
vn 0.39677536 -0.015870988 -0.9177785
vn 0.29738364 0.95475805 -0
vn 0.29738364 0.95475805 -0
vn 0.29738364 0.95475805 -0
vn 0.29738364 0.95475805 -0
vn 0.26845825 0.96329135 -0
vn 0.26845825 0.96329135 -0
vn 0.2063232 0.968132 -0.1419547
vn 0.2063232 0.968132 -0.1419547
vn 0.1110971 0.968132 -0.2244501
vn 0.1110971 0.968132 -0.2244501
vn 0.015870988 0.968132 -0.24993704
vn 0.015870988 0.968132 -0.24993704
vn -0.1110971 0.968132 -0.2244501
vn -0.1110971 0.968132 -0.2244501
vn -0.20632327 0.968132 -0.1419547
vn -0.20632327 0.968132 -0.1419547
vn -0.2684583 0.96329135 -0
vn -0.2684583 0.96329135 -0
vn -0.29738364 0.95475805 -0
vn -0.29738364 0.95475805 -0
vn -0.29738364 0.95475805 -0
vn -0.29738364 0.95475805 -0
vn 0.39677536 0.015871048 -0.9177785
vn 0.39677536 0.015871048 -0.9177785
vn 0.39677536 0.015871048 -0.9177785
vn 0.39677536 0.015871048 -0.9177785
vn -0.39677536 -0.015870988 -0.9177785
vn -0.39677536 -0.015870988 -0.9177785
vn -0.39677536 -0.015870988 -0.9177785
vn -0.39677536 -0.015870988 -0.9177785
vn -0.39677536 0.015871048 -0.9177785
vn -0.39677536 0.015871048 -0.9177785
vn -0.39677536 0.015871048 -0.9177785
vn -0.39677536 0.015871048 -0.9177785
g barrel01_0
f 3/3/3 2/2/2 1/1/1
f 2/2/2 4/4/4 1/1/1
f 2/2/2 5/5/5 4/4/4
f 5/5/5 6/6/6 4/4/4
f 6/6/6 5/5/5 7/7/7
f 5/5/5 8/8/8 7/7/7
f 7/7/7 8/8/8 9/9/9
f 8/8/8 10/10/10 9/9/9
f 9/9/9 10/10/10 11/11/11
f 10/10/10 12/12/12 11/11/11
f 15/15/15 14/14/14 13/13/13
f 14/14/14 16/16/16 13/13/13
f 16/16/16 14/14/14 17/17/17
f 18/18/18 16/16/16 17/17/17
f 19/19/19 18/18/18 17/17/17
f 20/20/20 19/19/19 17/17/17
f 21/21/21 19/19/19 20/20/20
f 22/22/22 21/21/21 20/20/20
f 21/21/21 22/22/22 23/23/23
f 22/22/22 24/24/24 23/23/23
f 27/27/27 26/26/26 25/25/25
f 26/26/26 28/28/28 25/25/25
f 28/28/28 26/26/26 29/29/29
f 30/30/30 28/28/28 29/29/29
f 31/31/31 30/30/30 29/29/29
f 32/32/32 31/31/31 29/29/29
f 33/33/33 31/31/31 32/32/32
f 34/34/34 33/33/33 32/32/32
f 33/33/33 34/34/34 35/35/35
f 34/34/34 36/36/36 35/35/35
f 39/39/39 38/38/38 37/37/37
f 38/38/38 40/40/40 37/37/37
f 40/40/40 38/38/38 41/41/41
f 42/42/42 40/40/40 41/41/41
f 43/43/43 42/42/42 41/41/41
f 44/44/44 43/43/43 41/41/41
f 45/45/45 43/43/43 44/44/44
f 46/46/46 45/45/45 44/44/44
f 45/45/45 46/46/46 47/47/47
f 46/46/46 48/48/48 47/47/47
f 51/51/51 50/50/50 49/49/49
f 50/50/50 52/52/52 49/49/49
f 52/52/52 50/50/50 53/53/53
f 54/54/54 52/52/52 53/53/53
f 55/55/55 54/54/54 53/53/53
f 56/56/56 55/55/55 53/53/53
f 57/57/57 55/55/55 56/56/56
f 58/58/58 57/57/57 56/56/56
f 57/57/57 58/58/58 59/59/59
f 58/58/58 60/60/60 59/59/59
f 63/63/63 62/62/62 61/61/61
f 62/62/62 64/64/64 61/61/61
f 64/64/64 62/62/62 65/65/65
f 66/66/66 64/64/64 65/65/65
f 67/67/67 66/66/66 65/65/65
f 68/68/68 67/67/67 65/65/65
f 69/69/69 67/67/67 68/68/68
f 70/70/70 69/69/69 68/68/68
f 69/69/69 70/70/70 71/71/71
f 70/70/70 72/72/72 71/71/71
f 75/75/75 74/74/74 73/73/73
f 74/74/74 76/76/76 73/73/73
f 76/76/76 74/74/74 77/77/77
f 78/78/78 76/76/76 77/77/77
f 79/79/79 78/78/78 77/77/77
f 80/80/80 79/79/79 77/77/77
f 81/81/81 79/79/79 80/80/80
f 82/82/82 81/81/81 80/80/80
f 81/81/81 82/82/82 83/83/83
f 82/82/82 84/84/84 83/83/83
f 87/87/87 86/86/86 85/85/85
f 86/86/86 88/88/88 85/85/85
f 88/88/88 86/86/86 89/89/89
f 90/90/90 88/88/88 89/89/89
f 91/91/91 90/90/90 89/89/89
f 92/92/92 91/91/91 89/89/89
f 93/93/93 91/91/91 92/92/92
f 94/94/94 93/93/93 92/92/92
f 93/93/93 94/94/94 95/95/95
f 94/94/94 96/96/96 95/95/95
f 99/99/99 98/98/98 97/97/97
f 98/98/98 100/100/100 97/97/97
f 100/100/100 98/98/98 101/101/101
f 102/102/102 100/100/100 101/101/101
f 103/103/103 102/102/102 101/101/101
f 104/104/104 103/103/103 101/101/101
f 105/105/105 103/103/103 104/104/104
f 106/106/106 105/105/105 104/104/104
f 105/105/105 106/106/106 107/107/107
f 106/106/106 108/108/108 107/107/107
f 111/111/111 110/110/110 109/109/109
f 110/110/110 112/112/112 109/109/109
f 112/112/112 110/110/110 113/113/113
f 114/114/114 112/112/112 113/113/113
f 115/115/115 114/114/114 113/113/113
f 116/116/116 115/115/115 113/113/113
f 117/117/117 115/115/115 116/116/116
f 118/118/118 117/117/117 116/116/116
f 117/117/117 118/118/118 119/119/119
f 118/118/118 120/120/120 119/119/119
f 123/123/123 122/122/122 121/121/121
f 124/124/124 123/123/123 121/121/121
f 125/125/125 123/123/123 124/124/124
f 126/126/126 125/125/125 124/124/124
f 127/127/127 125/125/125 126/126/126
f 128/128/128 127/127/127 126/126/126
f 129/129/129 127/127/127 128/128/128
f 130/130/130 129/129/129 128/128/128
f 131/131/131 129/129/129 130/130/130
f 132/132/132 131/131/131 130/130/130
f 133/133/133 131/131/131 132/132/132
f 134/134/134 133/133/133 132/132/132
f 135/135/135 133/133/133 134/134/134
f 136/136/136 135/135/135 134/134/134
f 137/137/137 135/135/135 136/136/136
f 138/138/138 137/137/137 136/136/136
f 139/139/139 137/137/137 138/138/138
f 140/140/140 139/139/139 138/138/138
f 141/141/141 139/139/139 140/140/140
f 142/142/142 141/141/141 140/140/140
f 145/145/145 144/144/144 143/143/143
f 146/146/146 145/145/145 143/143/143
f 147/147/147 145/145/145 146/146/146
f 148/148/148 147/147/147 146/146/146
f 149/149/149 147/147/147 148/148/148
f 150/150/150 149/149/149 148/148/148
f 149/149/149 150/150/150 151/151/151
f 152/152/152 149/149/149 151/151/151
f 152/152/152 151/151/151 153/153/153
f 154/154/154 152/152/152 153/153/153
f 157/157/157 156/156/156 155/155/155
f 158/158/158 157/157/157 155/155/155
f 159/159/159 157/157/157 158/158/158
f 160/160/160 159/159/159 158/158/158
f 161/161/161 159/159/159 160/160/160
f 162/162/162 161/161/161 160/160/160
f 161/161/161 162/162/162 163/163/163
f 164/164/164 161/161/161 163/163/163
f 164/164/164 163/163/163 165/165/165
f 166/166/166 164/164/164 165/165/165
f 169/169/169 168/168/168 167/167/167
f 170/170/170 169/169/169 167/167/167
f 171/171/171 169/169/169 170/170/170
f 172/172/172 171/171/171 170/170/170
f 173/173/173 171/171/171 172/172/172
f 174/174/174 173/173/173 172/172/172
f 173/173/173 174/174/174 175/175/175
f 176/176/176 173/173/173 175/175/175
f 176/176/176 175/175/175 177/177/177
f 178/178/178 176/176/176 177/177/177
f 181/181/181 180/180/180 179/179/179
f 182/182/182 181/181/181 179/179/179
f 183/183/183 181/181/181 182/182/182
f 184/184/184 183/183/183 182/182/182
f 185/185/185 183/183/183 184/184/184
f 186/186/186 185/185/185 184/184/184
f 185/185/185 186/186/186 187/187/187
f 188/188/188 185/185/185 187/187/187
f 188/188/188 187/187/187 189/189/189
f 190/190/190 188/188/188 189/189/189
f 193/193/193 192/192/192 191/191/191
f 194/194/194 193/193/193 191/191/191
f 195/195/195 193/193/193 194/194/194
f 196/196/196 195/195/195 194/194/194
f 197/197/197 195/195/195 196/196/196
f 198/198/198 197/197/197 196/196/196
f 197/197/197 198/198/198 199/199/199
f 200/200/200 197/197/197 199/199/199
f 200/200/200 199/199/199 201/201/201
f 202/202/202 200/200/200 201/201/201
f 205/205/205 204/204/204 203/203/203
f 206/206/206 205/205/205 203/203/203
f 207/207/207 205/205/205 206/206/206
f 208/208/208 207/207/207 206/206/206
f 209/209/209 207/207/207 208/208/208
f 210/210/210 209/209/209 208/208/208
f 209/209/209 210/210/210 211/211/211
f 212/212/212 209/209/209 211/211/211
f 212/212/212 211/211/211 213/213/213
f 214/214/214 212/212/212 213/213/213
f 217/217/217 216/216/216 215/215/215
f 218/218/218 217/217/217 215/215/215
f 219/219/219 217/217/217 218/218/218
f 220/220/220 219/219/219 218/218/218
f 219/219/219 220/220/220 221/221/221
f 222/222/222 219/219/219 221/221/221
f 222/222/222 221/221/221 223/223/223
f 224/224/224 222/222/222 223/223/223
f 224/224/224 223/223/223 225/225/225
f 226/226/226 224/224/224 225/225/225
f 229/229/229 228/228/228 227/227/227
f 230/230/230 229/229/229 227/227/227
f 231/231/231 229/229/229 230/230/230
f 232/232/232 231/231/231 230/230/230
f 233/233/233 231/231/231 232/232/232
f 234/234/234 233/233/233 232/232/232
f 233/233/233 234/234/234 235/235/235
f 236/236/236 233/233/233 235/235/235
f 236/236/236 235/235/235 237/237/237
f 238/238/238 236/236/236 237/237/237
f 241/241/241 240/240/240 239/239/239
f 242/242/242 241/241/241 239/239/239
f 243/243/243 241/241/241 242/242/242
f 244/244/244 243/243/243 242/242/242
f 245/245/245 243/243/243 244/244/244
f 246/246/246 245/245/245 244/244/244
f 245/245/245 246/246/246 247/247/247
f 248/248/248 245/245/245 247/247/247
f 248/248/248 247/247/247 249/249/249
f 250/250/250 248/248/248 249/249/249
f 253/253/253 252/252/252 251/251/251
f 254/254/254 253/253/253 251/251/251
f 255/255/255 253/253/253 254/254/254
f 256/256/256 255/255/255 254/254/254
f 257/257/257 255/255/255 256/256/256
f 258/258/258 257/257/257 256/256/256
f 257/257/257 258/258/258 259/259/259
f 260/260/260 257/257/257 259/259/259
f 260/260/260 259/259/259 261/261/261
f 262/262/262 260/260/260 261/261/261
f 265/265/265 264/264/264 263/263/263
f 266/266/266 264/264/264 265/265/265
f 267/267/267 266/266/266 265/265/265
f 268/268/268 266/266/266 267/267/267
f 269/269/269 268/268/268 267/267/267
f 270/270/270 268/268/268 269/269/269
f 271/271/271 270/270/270 269/269/269
f 272/272/272 270/270/270 271/271/271
f 273/273/273 272/272/272 271/271/271
f 276/276/276 275/275/275 274/274/274
f 277/277/277 276/276/276 274/274/274
f 277/277/277 274/274/274 278/278/278
f 279/279/279 277/277/277 278/278/278
f 279/279/279 278/278/278 280/280/280
f 281/281/281 279/279/279 280/280/280
f 281/281/281 280/280/280 282/282/282
f 283/283/283 281/281/281 282/282/282
f 283/283/283 282/282/282 284/284/284
f 285/285/285 283/283/283 284/284/284
f 285/285/285 284/284/284 286/286/286
f 287/287/287 285/285/285 286/286/286
f 287/287/287 286/286/286 288/288/288
f 289/289/289 287/287/287 288/288/288
f 289/289/289 288/288/288 290/290/290
f 291/291/291 289/289/289 290/290/290
f 291/291/291 290/290/290 292/292/292
f 293/293/293 291/291/291 292/292/292
f 292/292/292 294/294/294 293/293/293
f 294/294/294 295/295/295 293/293/293
f 298/298/298 297/297/297 296/296/296
f 297/297/297 299/299/299 296/296/296
f 296/296/296 299/299/299 300/300/300
f 299/299/299 301/301/301 300/300/300
f 300/300/300 301/301/301 302/302/302
f 301/301/301 303/303/303 302/302/302
f 302/302/302 303/303/303 304/304/304
f 303/303/303 305/305/305 304/304/304
f 304/304/304 305/305/305 306/306/306
f 305/305/305 307/307/307 306/306/306
f 306/306/306 307/307/307 308/308/308
f 307/307/307 309/309/309 308/308/308
f 308/308/308 309/309/309 310/310/310
f 309/309/309 311/311/311 310/310/310
f 310/310/310 311/311/311 312/312/312
f 311/311/311 313/313/313 312/312/312
f 312/312/312 313/313/313 314/314/314
f 313/313/313 315/315/315 314/314/314
f 316/316/316 314/314/314 315/315/315
f 317/317/317 316/316/316 315/315/315
f 320/320/320 319/319/319 318/318/318
f 318/318/318 321/321/321 320/320/320
f 320/320/320 321/321/321 322/322/322
f 318/318/318 323/323/323 321/321/321
f 322/322/322 324/324/324 320/320/320
f 318/318/318 325/325/325 323/323/323
f 322/322/322 326/326/326 324/324/324
f 326/326/326 327/327/327 324/324/324
f 326/326/326 328/328/328 327/327/327
f 325/325/325 329/329/329 323/323/323
f 325/325/325 330/330/330 329/329/329
f 330/330/330 331/331/331 329/329/329
f 330/330/330 332/332/332 331/331/331
f 332/332/332 333/333/333 331/331/331
f 332/332/332 334/334/334 333/333/333
f 334/334/334 335/335/335 333/333/333
f 334/334/334 336/336/336 335/335/335
f 336/336/336 337/337/337 335/335/335
f 337/337/337 336/336/336 338/338/338
f 337/337/337 338/338/338 339/339/339
f 340/340/340 337/337/337 339/339/339
f 340/340/340 339/339/339 341/341/341
f 341/341/341 342/342/342 340/340/340
f 345/345/345 344/344/344 343/343/343
f 346/346/346 345/345/345 343/343/343
f 347/347/347 345/345/345 346/346/346
f 348/348/348 347/347/347 346/346/346
f 349/349/349 347/347/347 348/348/348
f 350/350/350 349/349/349 348/348/348
f 351/351/351 349/349/349 350/350/350
f 352/352/352 351/351/351 350/350/350
f 352/352/352 353/353/353 351/351/351
f 356/356/356 355/355/355 354/354/354
f 357/357/357 356/356/356 354/354/354
f 358/358/358 356/356/356 357/357/357
f 359/359/359 358/358/358 357/357/357
f 360/360/360 358/358/358 359/359/359
f 361/361/361 360/360/360 359/359/359
f 362/362/362 360/360/360 361/361/361
f 363/363/363 362/362/362 361/361/361
f 364/364/364 362/362/362 363/363/363
f 365/365/365 364/364/364 363/363/363
f 366/366/366 364/364/364 365/365/365
f 367/367/367 366/366/366 365/365/365
f 368/368/368 366/366/366 367/367/367
f 369/369/369 368/368/368 367/367/367
f 370/370/370 368/368/368 369/369/369
f 371/371/371 370/370/370 369/369/369
f 372/372/372 370/370/370 371/371/371
f 373/373/373 372/372/372 371/371/371
f 374/374/374 372/372/372 373/373/373
f 375/375/375 374/374/374 373/373/373
f 378/378/378 377/377/377 376/376/376
f 379/379/379 378/378/378 376/376/376
f 382/382/382 381/381/381 380/380/380
f 383/383/383 382/382/382 380/380/380
f 384/384/384 382/382/382 383/383/383
f 385/385/385 384/384/384 383/383/383
f 386/386/386 384/384/384 385/385/385
f 387/387/387 386/386/386 385/385/385
f 388/388/388 386/386/386 387/387/387
f 389/389/389 388/388/388 387/387/387
f 390/390/390 388/388/388 389/389/389
f 391/391/391 390/390/390 389/389/389
f 392/392/392 390/390/390 391/391/391
f 393/393/393 392/392/392 391/391/391
f 394/394/394 392/392/392 393/393/393
f 395/395/395 394/394/394 393/393/393
f 396/396/396 394/394/394 395/395/395
f 397/397/397 396/396/396 395/395/395
f 398/398/398 396/396/396 397/397/397
f 399/399/399 398/398/398 397/397/397
f 400/400/400 398/398/398 399/399/399
f 401/401/401 400/400/400 399/399/399
f 404/404/404 403/403/403 402/402/402
f 405/405/405 404/404/404 402/402/402
f 408/408/408 407/407/407 406/406/406
f 409/409/409 408/408/408 406/406/406
f 412/412/412 411/411/411 410/410/410
f 413/413/413 412/412/412 410/410/410
