g billboardSign
v -5.0425663 0.5738462 15.599998
v 5.0570884 0.57384855 15.599998
v 5.0570884 0.57384855 18.469217
v -5.0425663 0.5738462 18.469217
v -5.501637 -0.5738418 15.599998
v -5.5016418 0.5738461 19.043062
v -5.5016375 -0.5738418 19.043062
v -5.5016418 0.5738461 15.599998
v -5.5016365 -0.5738418 12.156937
v -5.5016418 0.5738461 12.156937
v 5.057093 -0.5738394 15.599998
v -5.042562 -0.57384175 15.599998
v -5.042562 -0.57384175 18.469217
v 5.057093 -0.5738394 18.469217
v 5.516164 0.5738486 15.599998
v 5.516168 -0.5738393 19.043062
v 5.5161633 0.5738486 19.043062
v 5.516168 -0.5738393 15.599998
v 5.5161643 0.5738486 12.156937
v 5.516168 -0.5738393 12.156937
v 5.516168 -0.5738393 12.156937
v 5.5161643 0.5738486 12.156937
v -5.5016418 0.5738461 12.156937
v -5.5016365 -0.5738418 12.156937
v -5.5016375 -0.5738418 19.043062
v -5.5016418 0.5738461 19.043062
v 5.5161633 0.5738486 19.043062
v 5.516168 -0.5738393 19.043062
v 5.057093 -0.5738394 12.73078
v -5.0425615 -0.57384175 12.73078
v -5.042562 -0.57384175 15.599998
v 5.057093 -0.5738394 15.599998
v -5.0425663 0.5738462 12.73078
v 5.057089 0.57384855 12.73078
v 5.0570884 0.57384855 15.599998
v -5.0425663 0.5738462 15.599998
v 5.0570884 0.57384855 15.599998
v 5.516164 0.5738486 15.599998
v 5.5161633 0.5738486 19.043062
v 5.0570884 0.57384855 18.469217
v 5.057089 0.57384855 12.73078
v -5.5016418 0.5738461 19.043062
v 5.5161643 0.5738486 12.156937
v -5.0425663 0.5738462 18.469217
v -5.0425663 0.5738462 12.73078
v -5.5016418 0.5738461 15.599998
v -5.5016418 0.5738461 12.156937
v -5.0425663 0.5738462 15.599998
v 5.057093 -0.5738394 15.599998
v 5.516168 -0.5738393 15.599998
v 5.516168 -0.5738393 12.156937
v 5.057093 -0.5738394 12.73078
v 5.057093 -0.5738394 18.469217
v -5.5016365 -0.5738418 12.156937
v 5.516168 -0.5738393 19.043062
v -5.0425615 -0.57384175 12.73078
v -5.042562 -0.57384175 18.469217
v -5.501637 -0.5738418 15.599998
v -5.5016375 -0.5738418 19.043062
v -5.042562 -0.57384175 15.599998
v -0.48697415 -1.8046137E-08 0
v -0.34221682 0.3494753 0
v -0.3209423 0.32820082 14.099999
v -0.45688748 -1.6686467E-08 14.099999
v -0.34221676 -0.34947532 0
v -0.3209423 -0.32820082 14.099999
v 0.007258557 -0.4942327 0
v 0.007258555 0.46414608 14.099999
v 0.0072585526 0.4942327 0
v 0.007258559 -0.46414608 14.099999
v 0.35673392 -0.3494753 0
v 0.33545947 -0.32820088 14.099999
v 0.5014913 1.0866597E-09 0
v 0.33545947 0.32820088 14.099999
v 0.35673386 0.34947535 0
v 0.47140464 9.627037E-10 14.099999
vt 0.21887505 0.46674383
vt 0.21887505 0.46674383
vt 0.21887504 0.46674383
vt 0.21887505 0.46674383
vt 0.65637505 0.029243827
vt 0.65637505 0.029243827
vt 0.65637505 0.029243827
vt 0.65637505 0.029243827
vt 0.65637505 0.029243827
vt 0.65637505 0.029243827
vt 0.21887505 0.46674383
vt 0.21887505 0.46674383
vt 0.21887505 0.46674383
vt 0.21887505 0.46674383
vt 0.65637505 0.029243827
vt 0.65637505 0.029243827
vt 0.65637505 0.029243827
vt 0.65637505 0.029243827
vt 0.65637505 0.029243827
vt 0.65637505 0.029243827
vt 0.65637505 0.029243827
vt 0.65637505 0.029243827
vt 0.65637505 0.029243827
vt 0.65637505 0.029243827
vt 0.65637505 0.029243827
vt 0.65637505 0.029243827
vt 0.65637505 0.029243827
vt 0.65637505 0.029243827
vt 0.21887505 0.6542438
vt 0.21887502 0.6542438
vt 0.21887505 0.6542438
vt 0.21887505 0.6542438
vt 0.21887505 0.6542438
vt 0.21887505 0.6542438
vt 0.21887505 0.6542438
vt 0.21887505 0.6542438
vt 0.65637505 0.029243827
vt 0.65637505 0.029243827
vt 0.65637505 0.029243827
vt 0.65637505 0.029243827
vt 0.65637505 0.029243827
vt 0.65637505 0.029243827
vt 0.65637505 0.029243827
vt 0.65637505 0.029243827
vt 0.65637505 0.029243827
vt 0.65637505 0.029243827
vt 0.65637505 0.029243827
vt 0.65637505 0.029243827
vt 0.65637505 0.029243827
vt 0.65637505 0.029243827
vt 0.65637505 0.029243827
vt 0.65637505 0.029243827
vt 0.65637505 0.029243827
vt 0.65637505 0.029243827
vt 0.65637505 0.029243827
vt 0.65637505 0.029243827
vt 0.65637505 0.029243827
vt 0.65637505 0.029243827
vt 0.65637505 0.029243827
vt 0.65637505 0.029243827
vt 0.78255695 0.09320492
vt 0.78255695 0.09320492
vt 0.78255695 0.09320492
vt 0.78255695 0.09320492
vt 0.78255695 0.09320492
vt 0.78255695 0.09320492
vt 0.78255695 0.09320492
vt 0.78255695 0.09320492
vt 0.78255695 0.09320492
vt 0.78255695 0.09320492
vt 0.78255695 0.09320492
vt 0.78255695 0.09320492
vt 0.78255695 0.09320492
vt 0.78255695 0.09320492
vt 0.78255695 0.09320492
vt 0.78255695 0.09320492
vn -0 1 0
vn -0 1 0
vn -0 1 0
vn -0 1 0
vn -1 0 0
vn -1 0 0
vn -1 0 0
vn -1 0 0
vn -1 0 0
vn -1 0 0
vn -0 -1 0
vn -0 -1 0
vn -0 -1 0
vn -0 -1 0
vn 1 0 0
vn 1 0 0
vn 1 0 0
vn 1 0 0
vn 1 0 0
vn 1 0 0
vn -0 0 -1
vn -0 0 -1
vn -0 0 -1
vn -0 0 -1
vn -0 0 1
vn -0 0 1
vn -0 0 1
vn -0 0 1
vn -0 -1 0
vn -0 -1 0
vn -0 -1 0
vn -0 -1 0
vn -0 1 0
vn -0 1 0
vn -0 1 0
vn -0 1 0
vn -0 1 0
vn -0 1 0
vn -0 1 0
vn -0 1 0
vn -0 1 0
vn -0 1 0
vn -0 1 0
vn -0 1 0
vn -0 1 0
vn -0 1 0
vn -0 1 0
vn -0 1 0
vn -0 -1 0
vn -0 -1 0
vn -0 -1 0
vn -0 -1 0
vn -0 -1 0
vn -0 -1 0
vn -0 -1 0
vn -0 -1 0
vn -0 -1 0
vn -0 -1 0
vn -0 -1 0
vn -0 -1 0
vn -0.99999774 0 0.0021338009
vn -0.70710516 0.7071051 0.0021338002
vn -0.5485289 0.54852873 0.6310564
vn -0.77573687 0 0.6310566
vn -0.70710516 -0.70710516 0.0021338
vn -0.5485288 -0.5485288 0.6310564
vn -0 -0.99999774 0.0021338004
vn -0 0.77573687 0.6310566
vn -0 0.99999774 0.0021337983
vn -0 -0.77573687 0.63105655
vn 0.70710516 -0.70710516 0.0021338
vn 0.5485288 -0.5485288 0.6310564
vn 0.99999774 0 0.0021337983
vn 0.5485288 0.54852885 0.6310564
vn 0.7071051 0.70710516 0.0021337976
vn 0.77573675 0 0.63105655
g billboardSign_0
f 3/3/3 2/2/2 1/1/1
f 4/4/4 3/3/3 1/1/1
f 7/7/7 6/6/6 5/5/5
f 6/6/6 8/8/8 5/5/5
f 5/5/5 8/8/8 9/9/9
f 8/8/8 10/10/10 9/9/9
f 13/13/13 12/12/12 11/11/11
f 14/14/14 13/13/13 11/11/11
f 17/17/17 16/16/16 15/15/15
f 16/16/16 18/18/18 15/15/15
f 15/15/15 18/18/18 19/19/19
f 18/18/18 20/20/20 19/19/19
f 23/23/23 22/22/22 21/21/21
f 24/24/24 23/23/23 21/21/21
f 27/27/27 26/26/26 25/25/25
f 28/28/28 27/27/27 25/25/25
f 31/31/31 30/30/30 29/29/29
f 32/32/32 31/31/31 29/29/29
f 35/35/35 34/34/34 33/33/33
f 36/36/36 35/35/35 33/33/33
f 39/39/39 38/38/38 37/37/37
f 40/40/40 39/39/39 37/37/37
f 37/37/37 38/38/38 41/41/41
f 42/42/42 39/39/39 40/40/40
f 38/38/38 43/43/43 41/41/41
f 44/44/44 42/42/42 40/40/40
f 41/41/41 43/43/43 45/45/45
f 46/46/46 42/42/42 44/44/44
f 43/43/43 47/47/47 45/45/45
f 48/48/48 46/46/46 44/44/44
f 45/45/45 47/47/47 48/48/48
f 47/47/47 46/46/46 48/48/48
f 51/51/51 50/50/50 49/49/49
f 52/52/52 51/51/51 49/49/49
f 49/49/49 50/50/50 53/53/53
f 54/54/54 51/51/51 52/52/52
f 50/50/50 55/55/55 53/53/53
f 56/56/56 54/54/54 52/52/52
f 53/53/53 55/55/55 57/57/57
f 58/58/58 54/54/54 56/56/56
f 55/55/55 59/59/59 57/57/57
f 60/60/60 58/58/58 56/56/56
f 57/57/57 59/59/59 60/60/60
f 59/59/59 58/58/58 60/60/60
f 63/63/63 62/62/62 61/61/61
f 64/64/64 63/63/63 61/61/61
f 64/64/64 61/61/61 65/65/65
f 66/66/66 64/64/64 65/65/65
f 63/63/63 64/64/64 66/66/66
f 66/66/66 65/65/65 67/67/67
f 63/63/63 68/68/68 62/62/62
f 68/68/68 63/63/63 66/66/66
f 68/68/68 69/69/69 62/62/62
f 70/70/70 66/66/66 67/67/67
f 68/68/68 66/66/66 70/70/70
f 70/70/70 67/67/67 71/71/71
f 72/72/72 70/70/70 71/71/71
f 68/68/68 70/70/70 72/72/72
f 72/72/72 71/71/71 73/73/73
f 68/68/68 74/74/74 69/69/69
f 74/74/74 68/68/68 72/72/72
f 74/74/74 75/75/75 69/69/69
f 76/76/76 73/73/73 75/75/75
f 76/76/76 72/72/72 73/73/73
f 74/74/74 76/76/76 75/75/75
f 72/72/72 76/76/76 74/74/74
