g blender
v -1.1631793 0.35099542 1.2484084
v -0.9977344 0.9977344 -0.7519702
v -0.9977344 0.9977344 1.2484084
v -1.1631793 0.35099542 -1.0728328
v -1.2484084 5.185604E-05 1.2484084
v -1.2484084 5.185604E-05 -1.42879
v -1.1631793 0.35099542 -1.42879
v -1.1631793 0.35099542 -1.0728328
v 1.1630756 0.35099542 -1.0728328
v 0.9976307 0.9977344 -0.7519702
v -0.9977344 0.9977344 -0.7519702
v 1.1630756 0.35099542 -1.0728328
v 0.9976307 0.9977344 1.2484084
v 0.9976307 0.9977344 -0.7519702
v 1.1630756 0.35099542 1.2484084
v 1.2483047 5.185604E-05 -1.42879
v 1.2483047 5.185604E-05 1.2484084
v 1.1630756 0.35099542 -1.42879
v 1.1630756 0.35099542 1.2484084
v -0.9977344 0.9977344 1.2484084
v 0.9976307 0.9977344 1.2484084
v -1.1631793 0.35099542 1.2484084
v 1.2483047 5.185604E-05 1.2484084
v -1.2484084 5.185604E-05 1.2484084
v -1.2484084 5.185604E-05 -1.42879
v -1.2484084 5.185604E-05 1.2484084
v 1.2483047 5.185604E-05 1.2484084
v 1.2483047 5.185604E-05 -1.42879
v 0.9976307 0.9977344 -0.7519702
v 0.9976307 0.9977344 1.2484084
v -0.9977344 0.9977344 1.2484084
v -0.9977344 0.9977344 -0.7519702
v 0.29073 0.9977344 -0.45116138
v -5.185604E-05 0.9977344 -0.51132315
v -0.2908337 0.9977344 -0.45116138
v 0.53639054 0.9977344 -0.29073
v -0.53649414 0.9977344 -0.29073
v 0.7018354 0.9977344 -0.04005599
v -0.701939 0.9977344 -0.04005599
v -0.7621008 0.9977344 0.25072587
v 0.7619971 0.9977344 0.25072587
v -0.701939 0.9977344 0.5415077
v 0.7018354 0.9977344 0.5415077
v 0.53639054 0.9977344 0.78716815
v -0.53649414 0.9977344 0.78716815
v 0.29073 0.9977344 0.952613
v -0.2908337 0.9977344 0.952613
v -5.185604E-05 0.9977344 1.0127748
v -0.23067188 3.6999998 -0.30075693
v -5.185604E-05 3.6999998 -0.34587824
v 0.23056829 3.6999998 -0.30075693
v -0.42118418 3.6999998 -0.17040646
v 0.42108047 3.6999998 -0.17040646
v -0.55153465 3.6999998 0.02010572
v 0.551431 3.6999998 0.02010572
v -0.59665596 3.6999998 0.25072587
v 0.5965523 3.6999998 0.25072587
v 0.551431 3.6999998 0.47633243
v -0.55153465 3.6999998 0.47633243
v 0.42108047 3.6999998 0.6718582
v -0.42118418 3.6999998 0.6718582
v -0.23067188 3.6999998 0.80220854
v 0.23056829 3.6999998 0.80220854
v -5.185604E-05 3.6999998 0.84733
v -1.1631793 0.35099542 -1.0728328
v -1.1631793 0.35099542 -1.42879
v 1.1630756 0.35099542 -1.42879
v 1.1630756 0.35099542 -1.0728328
v -1.2484084 5.185604E-05 -1.42879
v 1.2483047 5.185604E-05 -1.42879
v 1.1630756 0.35099542 -1.42879
v -1.1631793 0.35099542 -1.42879
v 0.42108047 3.4994607 0.6718582
v 0.551431 3.6999998 0.47633243
v 0.551431 3.4994607 0.47633243
v 0.42108047 3.6999998 0.6718582
v 0.5965523 3.6999998 0.25072587
v 0.23056829 3.4994607 0.80220854
v 0.5965523 3.4994607 0.25072587
v 0.23056829 3.6999998 0.80220854
v 0.551431 3.6999998 0.02010572
v -5.185604E-05 3.4994607 0.84733
v 0.551431 3.4994607 0.02010572
v -5.185604E-05 3.6999998 0.84733
v 0.42108047 3.6999998 -0.17040646
v -0.23067188 3.4994607 0.80220854
v 0.42108047 3.4994607 -0.17040646
v -0.23067188 3.6999998 0.80220854
v 0.23056829 3.6999998 -0.30075693
v -0.42118418 3.4994607 0.6718582
v 0.23056829 3.4994607 -0.30075693
v -0.42118418 3.6999998 0.6718582
v -5.185604E-05 3.6999998 -0.34587824
v -0.55153465 3.4994607 0.47633243
v -5.185604E-05 3.4994607 -0.34587824
v -0.55153465 3.6999998 0.47633243
v -0.23067188 3.6999998 -0.30075693
v -0.59665596 3.4994607 0.25072587
v -0.23067188 3.4994607 -0.30075693
v -0.59665596 3.6999998 0.25072587
v -0.42118418 3.6999998 -0.17040646
v -0.55153465 3.4994607 0.02010572
v -0.42118418 3.4994607 -0.17040646
v -0.55153465 3.6999998 0.02010572
v 0.23056829 3.4994607 -0.30075693
v 0.43612093 3.4994607 -0.8071185
v 0.8071185 3.4994607 -0.55644447
v 0.42108047 3.4994607 -0.17040646
v -5.185604E-05 3.4994607 -0.34587824
v 1.052779 3.4994607 -0.18544698
v -5.185604E-05 3.4994607 -0.89234763
v 0.551431 3.4994607 0.02010572
v -0.23067188 3.4994607 -0.30075693
v 1.1430216 3.4994607 0.25072587
v -0.43622458 3.4994607 -0.8071185
v 0.5965523 3.4994607 0.25072587
v -0.42118418 3.4994607 -0.17040646
v 1.052779 3.4994607 0.6868986
v -0.807222 3.4994607 -0.55644447
v 0.551431 3.4994607 0.47633243
v -0.55153465 3.4994607 0.02010572
v 0.8071185 3.4994607 1.057896
v -1.0528826 3.4994607 -0.18544698
v 0.42108047 3.4994607 0.6718582
v -0.59665596 3.4994607 0.25072587
v 0.43612093 3.4994607 1.3035566
v -1.1431252 3.4994607 0.25072587
v 0.23056829 3.4994607 0.80220854
v -0.55153465 3.4994607 0.47633243
v -5.185604E-05 3.4994607 1.3937992
v -1.0528826 3.4994607 0.6868986
v -5.185604E-05 3.4994607 0.84733
v -0.42118418 3.4994607 0.6718582
v -0.43622458 3.4994607 1.3035566
v -0.807222 3.4994607 1.057896
v -0.23067188 3.4994607 0.80220854
v -5.185604E-05 2.9981127 -0.89234763
v -5.185604E-05 3.4994607 -0.89234763
v -0.43622458 3.4994607 -0.8071185
v -0.43622458 2.9981127 -0.8071185
v 0.43612093 2.9981127 -0.8071185
v -0.807222 3.4994607 -0.55644447
v 0.43612093 3.4994607 -0.8071185
v -0.807222 2.9981127 -0.55644447
v 0.8071185 2.9981127 -0.55644447
v -1.0528826 3.4994607 -0.18544698
v 0.8071185 3.4994607 -0.55644447
v -1.0528826 2.9981127 -0.18544698
v 1.052779 2.9981127 -0.18544698
v -1.1431252 3.4994607 0.25072587
v 1.052779 3.4994607 -0.18544698
v -1.1431252 2.9981127 0.25072587
v 1.1430216 2.9981127 0.25072587
v -1.0528826 3.4994607 0.6868986
v 1.1430216 3.4994607 0.25072587
v -1.0528826 2.9981127 0.6868986
v 1.052779 2.9981127 0.6868986
v -0.807222 3.4994607 1.057896
v 1.052779 3.4994607 0.6868986
v -0.807222 2.9981127 1.057896
v 0.8071185 2.9981127 1.057896
v -0.43622458 3.4994607 1.3035566
v 0.8071185 3.4994607 1.057896
v -0.43622458 2.9981127 1.3035566
v 0.43612093 2.9981127 1.3035566
v -5.185604E-05 3.4994607 1.3937992
v 0.43612093 3.4994607 1.3035566
v -5.185604E-05 2.9981127 1.3937992
v -0.53649414 0.9977344 -0.29073
v -0.2908337 0.9977344 -0.45116138
v -0.43622458 2.9981127 -0.8071185
v -0.807222 2.9981127 -0.55644447
v -5.185604E-05 2.9981127 -0.89234763
v -0.701939 0.9977344 -0.04005599
v -5.185604E-05 0.9977344 -0.51132315
v -1.0528826 2.9981127 -0.18544698
v 0.43612093 2.9981127 -0.8071185
v -0.7621008 0.9977344 0.25072587
v 0.29073 0.9977344 -0.45116138
v -1.1431252 2.9981127 0.25072587
v 0.8071185 2.9981127 -0.55644447
v -0.701939 0.9977344 0.5415077
v 0.53639054 0.9977344 -0.29073
v -1.0528826 2.9981127 0.6868986
v 1.052779 2.9981127 -0.18544698
v -0.53649414 0.9977344 0.78716815
v 0.7018354 0.9977344 -0.04005599
v -0.807222 2.9981127 1.057896
v 1.1430216 2.9981127 0.25072587
v -0.2908337 0.9977344 0.952613
v 0.7619971 0.9977344 0.25072587
v -0.43622458 2.9981127 1.3035566
v 1.052779 2.9981127 0.6868986
v -5.185604E-05 0.9977344 1.0127748
v 0.7018354 0.9977344 0.5415077
v -5.185604E-05 2.9981127 1.3937992
v 0.8071185 2.9981127 1.057896
v 0.29073 0.9977344 0.952613
v 0.53639054 0.9977344 0.78716815
v 0.43612093 2.9981127 1.3035566
vt 0.21493961 0.8446486
vt 0.21493961 0.8446486
vt 0.21493961 0.8446486
vt 0.21493961 0.8446486
vt 0.21493961 0.8446486
vt 0.21493961 0.8446486
vt 0.21493961 0.8446486
vt 0.5283159 0.09077163
vt 0.5283159 0.09077163
vt 0.5283159 0.09077163
vt 0.5283159 0.09077163
vt 0.21493961 0.8446486
vt 0.21493961 0.8446486
vt 0.21493961 0.8446486
vt 0.21493961 0.8446486
vt 0.21493961 0.8446486
vt 0.21493961 0.8446486
vt 0.21493961 0.8446486
vt 0.21493961 0.8446486
vt 0.21493961 0.8446486
vt 0.21493961 0.8446486
vt 0.21493961 0.8446486
vt 0.21493961 0.8446486
vt 0.21493961 0.8446486
vt 0.21493961 0.8446486
vt 0.21493961 0.8446486
vt 0.21493961 0.8446486
vt 0.21493961 0.8446486
vt 0.15285562 0.8446486
vt 0.15285562 0.8446486
vt 0.15285562 0.8446486
vt 0.15285562 0.8446486
vt 0.21493961 0.8446486
vt 0.21493961 0.8446486
vt 0.21493961 0.8446486
vt 0.21493961 0.8446486
vt 0.21493961 0.8446486
vt 0.21493961 0.8446486
vt 0.21493961 0.8446486
vt 0.21493961 0.8446486
vt 0.21493961 0.8446486
vt 0.21493961 0.8446486
vt 0.21493961 0.8446486
vt 0.21493961 0.8446486
vt 0.21493961 0.8446486
vt 0.21493961 0.8446486
vt 0.21493961 0.8446486
vt 0.21493961 0.8446486
vt 0.71752423 0.09372801
vt 0.71752423 0.09372801
vt 0.71752423 0.09372801
vt 0.71752423 0.09372801
vt 0.71752423 0.09372801
vt 0.71752423 0.09372801
vt 0.71752423 0.09372801
vt 0.71752423 0.09372801
vt 0.71752423 0.09372801
vt 0.71752423 0.09372801
vt 0.71752423 0.09372801
vt 0.71752423 0.09372801
vt 0.71752423 0.09372801
vt 0.71752423 0.09372801
vt 0.71752423 0.09372801
vt 0.71752423 0.09372801
vt 0.5283159 0.09077163
vt 0.5283159 0.09077163
vt 0.5283159 0.09077163
vt 0.5283159 0.09077163
vt 0.21493961 0.8446486
vt 0.21493961 0.8446486
vt 0.21493961 0.8446486
vt 0.21493961 0.8446486
vt 0.71752423 0.09372801
vt 0.71752423 0.09372801
vt 0.71752423 0.09372801
vt 0.71752423 0.09372801
vt 0.71752423 0.09372801
vt 0.71752423 0.09372801
vt 0.71752423 0.09372801
vt 0.71752423 0.09372801
vt 0.71752423 0.09372801
vt 0.71752423 0.09372801
vt 0.71752423 0.09372801
vt 0.71752423 0.09372801
vt 0.71752423 0.09372801
vt 0.71752423 0.09372801
vt 0.71752423 0.09372801
vt 0.71752423 0.09372801
vt 0.71752423 0.09372801
vt 0.71752423 0.09372801
vt 0.71752423 0.09372801
vt 0.71752423 0.09372801
vt 0.71752423 0.09372801
vt 0.71752423 0.09372801
vt 0.71752423 0.09372801
vt 0.71752423 0.09372801
vt 0.71752423 0.09372801
vt 0.71752423 0.09372801
vt 0.71752423 0.09372801
vt 0.71752423 0.09372801
vt 0.71752423 0.09372801
vt 0.71752423 0.09372801
vt 0.71752423 0.09372801
vt 0.71752423 0.09372801
vt 0.21493961 0.8446486
vt 0.21493961 0.8446486
vt 0.21493961 0.8446486
vt 0.21493961 0.8446486
vt 0.21493961 0.8446486
vt 0.21493961 0.8446486
vt 0.21493961 0.8446486
vt 0.21493961 0.8446486
vt 0.21493961 0.8446486
vt 0.21493961 0.8446486
vt 0.21493961 0.8446486
vt 0.21493961 0.8446486
vt 0.21493961 0.8446486
vt 0.21493961 0.8446486
vt 0.21493961 0.8446486
vt 0.21493961 0.8446486
vt 0.21493961 0.8446486
vt 0.21493961 0.8446486
vt 0.21493961 0.8446486
vt 0.21493961 0.8446486
vt 0.21493961 0.8446486
vt 0.21493961 0.8446486
vt 0.21493961 0.8446486
vt 0.21493961 0.8446486
vt 0.21493961 0.8446486
vt 0.21493961 0.8446486
vt 0.21493961 0.8446486
vt 0.21493961 0.8446486
vt 0.21493961 0.8446486
vt 0.21493961 0.8446486
vt 0.21493961 0.8446486
vt 0.21493961 0.8446486
vt 0.21493961 0.8446486
vt 0.21493961 0.8446486
vt 0.21493961 0.8446486
vt 0.21493961 0.8446486
vt 0.21493961 0.8446486
vt 0.21493961 0.8446486
vt 0.21493961 0.8446486
vt 0.21493961 0.8446486
vt 0.21493961 0.8446486
vt 0.21493961 0.8446486
vt 0.21493961 0.8446486
vt 0.21493961 0.8446486
vt 0.21493961 0.8446486
vt 0.21493961 0.8446486
vt 0.21493961 0.8446486
vt 0.21493961 0.8446486
vt 0.21493961 0.8446486
vt 0.21493961 0.8446486
vt 0.21493961 0.8446486
vt 0.21493961 0.8446486
vt 0.21493961 0.8446486
vt 0.21493961 0.8446486
vt 0.21493961 0.8446486
vt 0.21493961 0.8446486
vt 0.21493961 0.8446486
vt 0.21493961 0.8446486
vt 0.21493961 0.8446486
vt 0.21493961 0.8446486
vt 0.21493961 0.8446486
vt 0.21493961 0.8446486
vt 0.21493961 0.8446486
vt 0.21493961 0.8446486
vt 0.21789598 0.5933563
vt 0.21789598 0.5933563
vt 0.21789598 0.5933563
vt 0.21789598 0.5933563
vt 0.21789598 0.5933563
vt 0.21789598 0.5933563
vt 0.21789598 0.5933563
vt 0.21789598 0.5933563
vt 0.21789598 0.5933563
vt 0.21789598 0.5933563
vt 0.21789598 0.5933563
vt 0.21789598 0.5933563
vt 0.21789598 0.5933563
vt 0.21789598 0.5933563
vt 0.21789598 0.5933563
vt 0.21789598 0.5933563
vt 0.21789598 0.5933563
vt 0.21789598 0.5933563
vt 0.21789598 0.5933563
vt 0.21789598 0.5933563
vt 0.21789598 0.5933563
vt 0.21789598 0.5933563
vt 0.21789598 0.5933563
vt 0.21789598 0.5933563
vt 0.21789598 0.5933563
vt 0.21789598 0.5933563
vt 0.21789598 0.5933563
vt 0.21789598 0.5933563
vt 0.21789598 0.5933563
vt 0.21789598 0.5933563
vt 0.21789598 0.5933563
vt 0.21789598 0.5933563
vn -0.968132 0.23806524 -0.07775189
vn -0.968132 0.23806524 -0.07775189
vn -0.968132 0.23806524 -0.07775189
vn -0.968132 0.23806524 -0.07775189
vn -0.968132 0.23806524 -0.07775189
vn -0.968132 0.23806524 -0.07775189
vn -0.968132 0.23806524 -0.07775189
vn -0.015871048 0.46025944 -0.8876426
vn -0.015871048 0.46025944 -0.8876426
vn -0.015871048 0.46025944 -0.8876426
vn -0.015871048 0.46025944 -0.8876426
vn 0.96813196 0.23806524 -0.07775266
vn 0.96813196 0.23806524 -0.07775266
vn 0.96813196 0.23806524 -0.07775266
vn 0.96813196 0.23806524 -0.07775266
vn 0.96813196 0.23806524 -0.07775266
vn 0.96813196 0.23806524 -0.07775266
vn 0.96813196 0.23806524 -0.07775266
vn -0.015871048 0.015871048 0.99974805
vn -0.015871048 0.015871048 0.99974805
vn -0.015871048 0.015871048 0.99974805
vn -0.015871048 0.015871048 0.99974805
vn -0.015871048 0.015871048 0.99974805
vn -0.015871048 0.015871048 0.99974805
vn -0.015871048 -0.999874 -0.00034526698
vn -0.015871048 -0.999874 -0.00034526698
vn -0.015871048 -0.999874 -0.00034526698
vn -0.015871048 -0.999874 -0.00034526698
vn -0.015871048 0.999874 -0.00034526698
vn -0.015871048 0.999874 -0.00034526698
vn -0.015871048 0.999874 -0.00034526698
vn -0.015871048 0.999874 -0.00034526698
vn -0.015871048 -0.999874 -0.00034526698
vn -0.015871048 -0.999874 -0.00034526698
vn -0.015871048 -0.999874 -0.00034526698
vn -0.015871048 -0.999874 -0.00034526698
vn -0.015871048 -0.999874 -0.00034526698
vn -0.015871048 -0.999874 -0.00034526698
vn -0.015871048 -0.999874 -0.00034526698
vn -0.015871048 -0.999874 -0.00034526698
vn -0.015871048 -0.999874 -0.00034526698
vn -0.015871048 -0.999874 -0.00034526698
vn -0.015871048 -0.999874 -0.00034526698
vn -0.015871048 -0.999874 -0.00034526698
vn -0.015871048 -0.999874 -0.00034526698
vn -0.015871048 -0.999874 -0.00034526698
vn -0.015871048 -0.999874 -0.00034526698
vn -0.015871048 -0.999874 -0.00034526698
vn -0.015871048 0.999874 -0.00034526698
vn -0.015871048 0.999874 -0.00034526698
vn -0.015871048 0.999874 -0.00034526698
vn -0.015871048 0.999874 -0.00034526698
vn -0.015871048 0.999874 -0.00034526698
vn -0.015871048 0.999874 -0.00034526698
vn -0.015871048 0.999874 -0.00034526698
vn -0.015871048 0.999874 -0.00034526698
vn -0.015871048 0.999874 -0.00034526698
vn -0.015871048 0.999874 -0.00034526698
vn -0.015871048 0.999874 -0.00034526698
vn -0.015871048 0.999874 -0.00034526698
vn -0.015871048 0.999874 -0.00034526698
vn -0.015871048 0.999874 -0.00034526698
vn -0.015871048 0.999874 -0.00034526698
vn -0.015871048 0.999874 -0.00034526698
vn -0.015871048 0.999874 -0.00034526698
vn -0.015871048 0.999874 -0.00034526698
vn -0.015871048 0.999874 -0.00034526698
vn -0.015871048 0.999874 -0.00034526698
vn -0.015871048 0.015871048 -0.99974805
vn -0.015871048 0.015871048 -0.99974805
vn -0.015871048 0.015871048 -0.99974805
vn -0.015871048 0.015871048 -0.99974805
vn 0.7141957 0.015871048 0.6997661
vn 0.9363899 0.015871048 0.35060233
vn 0.9363899 0.015871048 0.35060233
vn 0.7141957 0.015871048 0.6997661
vn 0.999874 0.015871048 -0.00034391563
vn 0.39677536 0.015871048 0.9177785
vn 0.999874 0.015871048 -0.00034391563
vn 0.39677536 0.015871048 0.9177785
vn 0.9363899 0.015871048 -0.35060233
vn -0.015871048 0.015871048 0.99974805
vn 0.9363899 0.015871048 -0.35060233
vn -0.015871048 0.015871048 0.99974805
vn 0.7141957 0.015871048 -0.6997661
vn -0.39677536 0.015871048 0.9177785
vn 0.7141957 0.015871048 -0.6997661
vn -0.39677536 0.015871048 0.9177785
vn 0.39677536 0.015871048 -0.9177785
vn -0.7141957 0.015871048 0.6997661
vn 0.39677536 0.015871048 -0.9177785
vn -0.7141957 0.015871048 0.6997661
vn -0.015871048 0.015871048 -0.99974805
vn -0.9363899 0.015871048 0.35060233
vn -0.015871048 0.015871048 -0.99974805
vn -0.9363899 0.015871048 0.35060233
vn -0.39677536 0.015871048 -0.9177785
vn -0.999874 0.015871048 -0.00034391563
vn -0.39677536 0.015871048 -0.9177785
vn -0.999874 0.015871048 -0.00034391563
vn -0.7141957 0.015871048 -0.6997661
vn -0.9363899 0.015871048 -0.35060233
vn -0.7141957 0.015871048 -0.6997661
vn -0.9363899 0.015871048 -0.35060233
vn -0.015871048 0.999874 -0.00034526698
vn -0.015871048 0.999874 -0.00034526698
vn -0.015871048 0.999874 -0.00034526698
vn -0.015871048 0.999874 -0.00034526698
vn -0.015871048 0.999874 -0.00034526698
vn -0.015871048 0.999874 -0.00034526698
vn -0.015871048 0.999874 -0.00034526698
vn -0.015871048 0.999874 -0.00034526698
vn -0.015871048 0.999874 -0.00034526698
vn -0.015871048 0.999874 -0.00034526698
vn -0.015871048 0.999874 -0.00034526698
vn -0.015871048 0.999874 -0.00034526698
vn -0.015871048 0.999874 -0.00034526698
vn -0.015871048 0.999874 -0.00034526698
vn -0.015871048 0.999874 -0.00034526698
vn -0.015871048 0.999874 -0.00034526698
vn -0.015871048 0.999874 -0.00034526698
vn -0.015871048 0.999874 -0.00034526698
vn -0.015871048 0.999874 -0.00034526698
vn -0.015871048 0.999874 -0.00034526698
vn -0.015871048 0.999874 -0.00034526698
vn -0.015871048 0.999874 -0.00034526698
vn -0.015871048 0.999874 -0.00034526698
vn -0.015871048 0.999874 -0.00034526698
vn -0.015871048 0.999874 -0.00034526698
vn -0.015871048 0.999874 -0.00034526698
vn -0.015871048 0.999874 -0.00034526698
vn -0.015871048 0.999874 -0.00034526698
vn -0.015871048 0.999874 -0.00034526698
vn -0.015871048 0.999874 -0.00034526698
vn -0.015871048 0.999874 -0.00034526698
vn -0.015871048 0.999874 -0.00034526698
vn -0.015871048 -0.07935506 -0.9967201
vn -0.015871048 0.015871048 -0.99974805
vn -0.39677536 0.015871048 -0.9177785
vn -0.39677536 -0.07935506 -0.91447914
vn 0.39677536 -0.07935506 -0.91447914
vn -0.7141957 0.015871048 -0.6997661
vn 0.39677536 0.015871048 -0.9177785
vn -0.7141957 -0.07935506 -0.69543314
vn 0.7141957 -0.07935506 -0.69543314
vn -0.9363899 0.015871048 -0.35060233
vn 0.7141957 0.015871048 -0.6997661
vn -0.90464795 -0.07935506 -0.41870615
vn 0.9046479 -0.07935506 -0.4187063
vn -0.999874 0.015871048 -0.00034391563
vn 0.9363899 0.015871048 -0.35060233
vn -0.9968654 -0.079116285 -0
vn 0.9968654 -0.079116285 -0
vn -0.9363899 0.015871048 0.35060233
vn 0.999874 0.015871048 -0.00034391563
vn -0.90464795 -0.07935506 0.41870615
vn 0.9046479 -0.07935506 0.4187063
vn -0.7141957 0.015871048 0.6997661
vn 0.9363899 0.015871048 0.35060233
vn -0.7141957 -0.07935506 0.69543314
vn 0.7141957 -0.07935506 0.69543314
vn -0.39677536 0.015871048 0.9177785
vn 0.7141957 0.015871048 0.6997661
vn -0.39677536 -0.07935506 0.91447914
vn 0.39677536 -0.07935506 0.91447914
vn -0.015871048 0.015871048 0.99974805
vn 0.39677536 0.015871048 0.9177785
vn -0.015871048 -0.07935506 0.9967201
vn -0.68245375 -0.17458117 -0.7097734
vn -0.3650334 -0.17458117 -0.9144791
vn -0.39677536 -0.07935506 -0.91447914
vn -0.7141957 -0.07935506 -0.69543314
vn -0.015871048 -0.07935506 -0.9967201
vn -0.90464795 -0.17458117 -0.38875893
vn -0.015871048 -0.17458117 -0.98451483
vn -0.90464795 -0.07935506 -0.41870615
vn 0.39677536 -0.07935506 -0.91447914
vn -0.968132 -0.17458117 -0.17956011
vn 0.36503333 -0.17458117 -0.91447914
vn -0.9968654 -0.079116285 -0
vn 0.7141957 -0.07935506 -0.69543314
vn -0.90464795 -0.17458117 0.38875893
vn 0.68245363 -0.17458117 -0.70977354
vn -0.90464795 -0.07935506 0.41870615
vn 0.9046479 -0.07935506 -0.4187063
vn -0.68245375 -0.17458117 0.7097734
vn 0.9046479 -0.17458117 -0.38875908
vn -0.7141957 -0.07935506 0.69543314
vn 0.9968654 -0.079116285 -0
vn -0.3650334 -0.17458117 0.9144791
vn 0.96813196 -0.17458117 -0.17956044
vn -0.39677536 -0.07935506 0.91447914
vn 0.9046479 -0.07935506 0.4187063
vn -0.015871048 -0.17458117 0.98451483
vn 0.9046479 -0.17458117 0.38875908
vn -0.015871048 -0.07935506 0.9967201
vn 0.7141957 -0.07935506 0.69543314
vn 0.36503333 -0.17458117 0.91447914
vn 0.68245363 -0.17458117 0.70977354
vn 0.39677536 -0.07935506 0.91447914
g blender_0
f 3/3/3 2/2/2 1/1/1
f 2/2/2 4/4/4 1/1/1
f 1/1/1 4/4/4 5/5/5
f 4/4/4 6/6/6 5/5/5
f 4/4/4 7/7/7 6/6/6
f 10/10/10 9/9/9 8/8/8
f 11/11/11 10/10/10 8/8/8
f 14/14/14 13/13/13 12/12/12
f 13/13/13 15/15/15 12/12/12
f 12/12/12 15/15/15 16/16/16
f 15/15/15 17/17/17 16/16/16
f 16/16/16 18/18/18 12/12/12
f 21/21/21 20/20/20 19/19/19
f 20/20/20 22/22/22 19/19/19
f 19/19/19 22/22/22 23/23/23
f 22/22/22 24/24/24 23/23/23
f 27/27/27 26/26/26 25/25/25
f 28/28/28 27/27/27 25/25/25
f 31/31/31 30/30/30 29/29/29
f 32/32/32 31/31/31 29/29/29
f 35/35/35 34/34/34 33/33/33
f 33/33/33 36/36/36 35/35/35
f 36/36/36 37/37/37 35/35/35
f 36/36/36 38/38/38 37/37/37
f 38/38/38 39/39/39 37/37/37
f 38/38/38 40/40/40 39/39/39
f 38/38/38 41/41/41 40/40/40
f 41/41/41 42/42/42 40/40/40
f 41/41/41 43/43/43 42/42/42
f 43/43/43 44/44/44 42/42/42
f 44/44/44 45/45/45 42/42/42
f 44/44/44 46/46/46 45/45/45
f 46/46/46 47/47/47 45/45/45
f 46/46/46 48/48/48 47/47/47
f 51/51/51 50/50/50 49/49/49
f 49/49/49 52/52/52 51/51/51
f 52/52/52 53/53/53 51/51/51
f 52/52/52 54/54/54 53/53/53
f 54/54/54 55/55/55 53/53/53
f 54/54/54 56/56/56 55/55/55
f 56/56/56 57/57/57 55/55/55
f 56/56/56 58/58/58 57/57/57
f 56/56/56 59/59/59 58/58/58
f 59/59/59 60/60/60 58/58/58
f 59/59/59 61/61/61 60/60/60
f 61/61/61 62/62/62 60/60/60
f 62/62/62 63/63/63 60/60/60
f 62/62/62 64/64/64 63/63/63
f 67/67/67 66/66/66 65/65/65
f 68/68/68 67/67/67 65/65/65
f 71/71/71 70/70/70 69/69/69
f 72/72/72 71/71/71 69/69/69
f 75/75/75 74/74/74 73/73/73
f 74/74/74 76/76/76 73/73/73
f 77/77/77 74/74/74 75/75/75
f 73/73/73 76/76/76 78/78/78
f 79/79/79 77/77/77 75/75/75
f 76/76/76 80/80/80 78/78/78
f 81/81/81 77/77/77 79/79/79
f 78/78/78 80/80/80 82/82/82
f 83/83/83 81/81/81 79/79/79
f 80/80/80 84/84/84 82/82/82
f 85/85/85 81/81/81 83/83/83
f 82/82/82 84/84/84 86/86/86
f 87/87/87 85/85/85 83/83/83
f 84/84/84 88/88/88 86/86/86
f 89/89/89 85/85/85 87/87/87
f 86/86/86 88/88/88 90/90/90
f 91/91/91 89/89/89 87/87/87
f 88/88/88 92/92/92 90/90/90
f 93/93/93 89/89/89 91/91/91
f 90/90/90 92/92/92 94/94/94
f 95/95/95 93/93/93 91/91/91
f 92/92/92 96/96/96 94/94/94
f 97/97/97 93/93/93 95/95/95
f 94/94/94 96/96/96 98/98/98
f 99/99/99 97/97/97 95/95/95
f 96/96/96 100/100/100 98/98/98
f 101/101/101 97/97/97 99/99/99
f 98/98/98 100/100/100 102/102/102
f 103/103/103 101/101/101 99/99/99
f 100/100/100 104/104/104 102/102/102
f 104/104/104 101/101/101 103/103/103
f 102/102/102 104/104/104 103/103/103
f 107/107/107 106/106/106 105/105/105
f 108/108/108 107/107/107 105/105/105
f 105/105/105 106/106/106 109/109/109
f 110/110/110 107/107/107 108/108/108
f 106/106/106 111/111/111 109/109/109
f 112/112/112 110/110/110 108/108/108
f 109/109/109 111/111/111 113/113/113
f 114/114/114 110/110/110 112/112/112
f 111/111/111 115/115/115 113/113/113
f 116/116/116 114/114/114 112/112/112
f 113/113/113 115/115/115 117/117/117
f 118/118/118 114/114/114 116/116/116
f 115/115/115 119/119/119 117/117/117
f 120/120/120 118/118/118 116/116/116
f 117/117/117 119/119/119 121/121/121
f 122/122/122 118/118/118 120/120/120
f 119/119/119 123/123/123 121/121/121
f 124/124/124 122/122/122 120/120/120
f 121/121/121 123/123/123 125/125/125
f 126/126/126 122/122/122 124/124/124
f 123/123/123 127/127/127 125/125/125
f 128/128/128 126/126/126 124/124/124
f 125/125/125 127/127/127 129/129/129
f 130/130/130 126/126/126 128/128/128
f 127/127/127 131/131/131 129/129/129
f 132/132/132 130/130/130 128/128/128
f 129/129/129 131/131/131 133/133/133
f 134/134/134 130/130/130 132/132/132
f 131/131/131 135/135/135 133/133/133
f 136/136/136 134/134/134 132/132/132
f 133/133/133 135/135/135 136/136/136
f 135/135/135 134/134/134 136/136/136
f 139/139/139 138/138/138 137/137/137
f 140/140/140 139/139/139 137/137/137
f 137/137/137 138/138/138 141/141/141
f 142/142/142 139/139/139 140/140/140
f 138/138/138 143/143/143 141/141/141
f 144/144/144 142/142/142 140/140/140
f 141/141/141 143/143/143 145/145/145
f 146/146/146 142/142/142 144/144/144
f 143/143/143 147/147/147 145/145/145
f 148/148/148 146/146/146 144/144/144
f 145/145/145 147/147/147 149/149/149
f 150/150/150 146/146/146 148/148/148
f 147/147/147 151/151/151 149/149/149
f 152/152/152 150/150/150 148/148/148
f 149/149/149 151/151/151 153/153/153
f 154/154/154 150/150/150 152/152/152
f 151/151/151 155/155/155 153/153/153
f 156/156/156 154/154/154 152/152/152
f 153/153/153 155/155/155 157/157/157
f 158/158/158 154/154/154 156/156/156
f 155/155/155 159/159/159 157/157/157
f 160/160/160 158/158/158 156/156/156
f 157/157/157 159/159/159 161/161/161
f 162/162/162 158/158/158 160/160/160
f 159/159/159 163/163/163 161/161/161
f 164/164/164 162/162/162 160/160/160
f 161/161/161 163/163/163 165/165/165
f 166/166/166 162/162/162 164/164/164
f 163/163/163 167/167/167 165/165/165
f 168/168/168 166/166/166 164/164/164
f 165/165/165 167/167/167 168/168/168
f 167/167/167 166/166/166 168/168/168
f 171/171/171 170/170/170 169/169/169
f 172/172/172 171/171/171 169/169/169
f 171/171/171 173/173/173 170/170/170
f 172/172/172 169/169/169 174/174/174
f 173/173/173 175/175/175 170/170/170
f 176/176/176 172/172/172 174/174/174
f 173/173/173 177/177/177 175/175/175
f 176/176/176 174/174/174 178/178/178
f 177/177/177 179/179/179 175/175/175
f 180/180/180 176/176/176 178/178/178
f 177/177/177 181/181/181 179/179/179
f 180/180/180 178/178/178 182/182/182
f 181/181/181 183/183/183 179/179/179
f 184/184/184 180/180/180 182/182/182
f 181/181/181 185/185/185 183/183/183
f 184/184/184 182/182/182 186/186/186
f 185/185/185 187/187/187 183/183/183
f 188/188/188 184/184/184 186/186/186
f 185/185/185 189/189/189 187/187/187
f 188/188/188 186/186/186 190/190/190
f 189/189/189 191/191/191 187/187/187
f 192/192/192 188/188/188 190/190/190
f 189/189/189 193/193/193 191/191/191
f 192/192/192 190/190/190 194/194/194
f 193/193/193 195/195/195 191/191/191
f 196/196/196 192/192/192 194/194/194
f 193/193/193 197/197/197 195/195/195
f 196/196/196 194/194/194 198/198/198
f 197/197/197 199/199/199 195/195/195
f 200/200/200 196/196/196 198/198/198
f 200/200/200 198/198/198 199/199/199
f 197/197/197 200/200/200 199/199/199
