g bowl
v -0.8599708 1.0007331 -2.0784457
v -0.8247802 1.0403225 -1.994868
v -1.5241935 1.0403225 -1.5241935
v -1.5901761 1.0007331 -1.5901759
v -0.0021994114 1.0007331 -2.25
v -1.9948683 1.0403225 -0.82478
v -0.0021994114 1.0403225 -2.1576247
v -2.078446 1.0007331 -0.8599707
v 0.8599707 1.0007331 -2.0784457
v -2.1576247 1.0403225 0.0021994114
v 0.82478 1.0403225 -1.994868
v -2.25 1.0007331 0.0021994114
v 1.5901759 1.0007331 -1.5901759
v -1.9948683 1.0403225 0.8247802
v 1.5241935 1.0403225 -1.5241935
v -2.078446 1.0007331 0.8599708
v 2.0784457 1.0007331 -0.8599707
v -1.5241935 1.0403225 1.5241935
v 1.994868 1.0403225 -0.82478
v -1.5901761 1.0007331 1.5901761
v 2.25 1.0007331 0.0021994114
v -0.8247802 1.0403225 1.9948683
v 2.1576247 1.0403225 0.0021994114
v -0.8599708 1.0007331 2.078446
v 2.0784457 1.0007331 0.8599708
v -0.0021994114 1.0403225 2.1576247
v 1.994868 1.0403225 0.8247802
v -0.0021994114 1.0007331 2.25
v 1.5901759 1.0007331 1.5901761
v 0.82478 1.0403225 1.9948683
v 1.5241935 1.0403225 1.5241935
v 0.8599707 1.0007331 2.078446
v -0.73680353 0.47287393 -1.7793255
v -1.5241935 1.0403225 -1.5241935
v -0.8247802 1.0403225 -1.994868
v -1.3614371 0.47287393 -1.3614368
v -1.9948683 1.0403225 -0.82478
v -0.0021994114 0.47287393 -1.9244868
v -0.0021994114 1.0403225 -2.1576247
v -1.7793255 0.47287393 -0.73680353
v -2.1576247 1.0403225 0.0021994114
v 0.73680353 0.47287393 -1.7793255
v 0.82478 1.0403225 -1.994868
v -1.9244871 0.47287393 0.0021994114
v -1.9948683 1.0403225 0.8247802
v 1.3614368 0.47287393 -1.3614368
v 1.5241935 1.0403225 -1.5241935
v -1.7793255 0.47287393 0.73680353
v -1.5241935 1.0403225 1.5241935
v 1.7793255 0.47287393 -0.73680353
v 1.994868 1.0403225 -0.82478
v -1.3614371 0.47287393 1.3614371
v -0.8247802 1.0403225 1.9948683
v 1.9244868 0.47287393 0.0021994114
v 2.1576247 1.0403225 0.0021994114
v -0.73680353 0.47287393 1.7793255
v -0.0021994114 1.0403225 2.1576247
v 1.7793255 0.47287393 0.73680353
v 1.994868 1.0403225 0.8247802
v -0.0021994114 0.47287393 1.9244871
v 0.82478 1.0403225 1.9948683
v 1.3614368 0.47287393 1.3614371
v 1.5241935 1.0403225 1.5241935
v 0.73680353 0.47287393 1.7793255
v 1.6165689 0.090176105 0.0021994114
v 1.4934018 0.090176105 0.6180353
v 1.1414956 0.090176105 1.1414957
v 0.6180352 0.090176105 1.4934018
v -0.0021994114 0.090176105 1.616569
v -0.6180353 0.090176105 1.4934018
v -1.1414957 0.090176105 1.1414957
v -1.4934018 0.090176105 0.6180353
v -1.616569 0.090176105 0.0021994114
v 1.4934018 0.090176105 -0.6180352
v -1.4934018 0.090176105 -0.6180352
v -1.1414957 0.090176105 -1.1414956
v 1.1414956 0.090176105 -1.1414956
v 0.6180352 0.090176105 -1.4934018
v -0.6180353 0.090176105 -1.4934018
v -0.0021994114 0.090176105 -1.6165689
v -0.7675953 0.42008805 -1.8585044
v -0.8599708 1.0007331 -2.0784457
v -1.5901761 1.0007331 -1.5901759
v -1.4230206 0.42008805 -1.4230205
v -2.078446 1.0007331 -0.8599707
v -0.0021994114 0.42008805 -2.0080645
v -0.0021994114 1.0007331 -2.25
v -1.8585043 0.42008805 -0.7675953
v -2.25 1.0007331 0.0021994114
v 0.7675953 0.42008805 -1.8585044
v 0.8599707 1.0007331 -2.0784457
v -2.0080647 0.42008805 0.0021994114
v -2.078446 1.0007331 0.8599708
v 1.4230205 0.42008805 -1.4230205
v 1.5901759 1.0007331 -1.5901759
v -1.8585043 0.42008805 0.7675953
v -1.5901761 1.0007331 1.5901761
v 1.8585044 0.42008805 -0.7675953
v 2.0784457 1.0007331 -0.8599707
v -1.4230206 0.42008805 1.4230206
v -0.8599708 1.0007331 2.078446
v 2.0080645 0.42008805 0.0021994114
v 2.25 1.0007331 0.0021994114
v -0.7675953 0.42008805 1.8585043
v -0.0021994114 1.0007331 2.25
v 1.8585044 0.42008805 0.7675953
v 2.0784457 1.0007331 0.8599708
v -0.0021994114 0.42008805 2.0080647
v 0.8599707 1.0007331 2.078446
v 1.4230205 0.42008805 1.4230206
v 1.5901759 1.0007331 1.5901761
v 0.7675953 0.42008805 1.8585043
v 1.6605572 0.0021994114 0.0021994114
v 1.5329912 0.0021994114 0.6356306
v 1.1766862 0.0021994114 1.1766863
v 0.6356305 0.0021994114 1.5329912
v -0.0021994114 0.0021994114 1.6605573
v -0.6356306 0.0021994114 1.5329912
v -1.1766863 0.0021994114 1.1766863
v -1.5329912 0.0021994114 0.6356306
v -1.6605573 0.0021994114 0.0021994114
v 1.5329912 0.0021994114 -0.6356305
v -1.5329912 0.0021994114 -0.6356305
v -1.1766863 0.0021994114 -1.1766862
v 1.1766862 0.0021994114 -1.1766862
v 0.6356305 0.0021994114 -1.5329912
v -0.6356306 0.0021994114 -1.5329912
v -0.0021994114 0.0021994114 -1.6605572
vt 0.030478776 0.78177565
vt 0.030478776 0.78177565
vt 0.030478776 0.78177565
vt 0.030478776 0.78177565
vt 0.030478776 0.78177565
vt 0.030478776 0.78177565
vt 0.030478776 0.78177565
vt 0.030478776 0.78177565
vt 0.030478776 0.78177565
vt 0.030478776 0.78177565
vt 0.030478776 0.78177565
vt 0.030478776 0.78177565
vt 0.030478776 0.78177565
vt 0.030478776 0.78177565
vt 0.030478776 0.78177565
vt 0.030478776 0.78177565
vt 0.030478776 0.78177565
vt 0.030478776 0.78177565
vt 0.030478776 0.78177565
vt 0.030478776 0.78177565
vt 0.030478776 0.78177565
vt 0.030478776 0.78177565
vt 0.030478776 0.78177565
vt 0.030478776 0.78177565
vt 0.030478776 0.78177565
vt 0.030478776 0.78177565
vt 0.030478776 0.78177565
vt 0.030478776 0.78177565
vt 0.030478776 0.78177565
vt 0.030478776 0.78177565
vt 0.030478776 0.78177565
vt 0.030478776 0.78177565
vt 0.030478776 0.78177565
vt 0.030478776 0.78177565
vt 0.030478776 0.78177565
vt 0.030478776 0.78177565
vt 0.030478776 0.78177565
vt 0.030478776 0.78177565
vt 0.030478776 0.78177565
vt 0.030478776 0.78177565
vt 0.030478776 0.78177565
vt 0.030478776 0.78177565
vt 0.030478776 0.78177565
vt 0.030478776 0.78177565
vt 0.030478776 0.78177565
vt 0.030478776 0.78177565
vt 0.030478776 0.78177565
vt 0.030478776 0.78177565
vt 0.030478776 0.78177565
vt 0.030478776 0.78177565
vt 0.030478776 0.78177565
vt 0.030478776 0.78177565
vt 0.030478776 0.78177565
vt 0.030478776 0.78177565
vt 0.030478776 0.78177565
vt 0.030478776 0.78177565
vt 0.030478776 0.78177565
vt 0.030478776 0.78177565
vt 0.030478776 0.78177565
vt 0.030478776 0.78177565
vt 0.030478776 0.78177565
vt 0.030478776 0.78177565
vt 0.030478776 0.78177565
vt 0.030478776 0.78177565
vt 0.030478776 0.78177565
vt 0.030478776 0.78177565
vt 0.030478776 0.78177565
vt 0.030478776 0.78177565
vt 0.030478776 0.78177565
vt 0.030478776 0.78177565
vt 0.030478776 0.78177565
vt 0.030478776 0.78177565
vt 0.030478776 0.78177565
vt 0.030478776 0.78177565
vt 0.030478776 0.78177565
vt 0.030478776 0.78177565
vt 0.030478776 0.78177565
vt 0.030478776 0.78177565
vt 0.030478776 0.78177565
vt 0.030478776 0.78177565
vt 0.030478776 0.78177565
vt 0.030478776 0.78177565
vt 0.030478776 0.78177565
vt 0.030478776 0.78177565
vt 0.030478776 0.78177565
vt 0.030478776 0.78177565
vt 0.030478776 0.78177565
vt 0.030478776 0.78177565
vt 0.030478776 0.78177565
vt 0.030478776 0.78177565
vt 0.030478776 0.78177565
vt 0.030478776 0.78177565
vt 0.030478776 0.78177565
vt 0.030478776 0.78177565
vt 0.030478776 0.78177565
vt 0.030478776 0.78177565
vt 0.030478776 0.78177565
vt 0.030478776 0.78177565
vt 0.030478776 0.78177565
vt 0.030478776 0.78177565
vt 0.030478776 0.78177565
vt 0.030478776 0.78177565
vt 0.030478776 0.78177565
vt 0.030478776 0.78177565
vt 0.030478776 0.78177565
vt 0.030478776 0.78177565
vt 0.030478776 0.78177565
vt 0.030478776 0.78177565
vt 0.030478776 0.78177565
vt 0.030478776 0.78177565
vt 0.030478776 0.78177565
vt 0.030478776 0.78177565
vt 0.030478776 0.78177565
vt 0.030478776 0.78177565
vt 0.030478776 0.78177565
vt 0.030478776 0.78177565
vt 0.030478776 0.78177565
vt 0.030478776 0.78177565
vt 0.030478776 0.78177565
vt 0.030478776 0.78177565
vt 0.030478776 0.78177565
vt 0.030478776 0.78177565
vt 0.030478776 0.78177565
vt 0.030478776 0.78177565
vt 0.030478776 0.78177565
vt 0.030478776 0.78177565
vt 0.030478776 0.78177565
vt 0.030478776 0.78177565
vn -0.13210064 0.92470425 -0.35703143
vn -0.13210064 0.92470425 -0.35703143
vn -0.2788791 0.92470425 -0.25913018
vn -0.2788791 0.92470425 -0.25913018
vn -0.014677882 0.92470425 -0.38040322
vn -0.36694616 0.92470425 -0.101353355
vn -0.014677882 0.92470425 -0.38040322
vn -0.36694616 0.92470425 -0.101353355
vn 0.13210058 0.92470425 -0.35703143
vn -0.39391926 0.919145 -0
vn 0.13210058 0.92470425 -0.35703143
vn -0.39391926 0.919145 -0
vn 0.27887905 0.92470425 -0.2591303
vn -0.36694616 0.92470425 0.101353355
vn 0.27887905 0.92470425 -0.2591303
vn -0.36694616 0.92470425 0.101353355
vn 0.3669461 0.92470425 -0.10135365
vn -0.2788791 0.92470425 0.25913018
vn 0.3669461 0.92470425 -0.10135365
vn -0.2788791 0.92470425 0.25913018
vn 0.39391926 0.919145 -0
vn -0.13210064 0.92470425 0.35703143
vn 0.39391926 0.919145 -0
vn -0.13210064 0.92470425 0.35703143
vn 0.3669461 0.92470425 0.10135365
vn -0.014677882 0.92470425 0.38040322
vn 0.3669461 0.92470425 0.10135365
vn -0.014677882 0.92470425 0.38040322
vn 0.27887905 0.92470425 0.2591303
vn 0.13210058 0.92470425 0.35703143
vn 0.27887905 0.92470425 0.2591303
vn 0.13210058 0.92470425 0.35703143
vn 0.33759046 0.5137246 0.78874564
vn 0.66050303 0.36694616 0.65504676
vn 0.3669461 0.36694616 0.85481054
vn 0.6017916 0.5137246 0.61150134
vn 0.86599284 0.36694616 0.3397159
vn -0.014677882 0.5137246 0.8578296
vn -0.014677882 0.36694616 0.93012637
vn 0.8072815 0.5137246 0.29048857
vn 0.92470425 0.36694616 -0.101353504
vn -0.3375904 0.5137246 0.78874564
vn -0.36694616 0.36694616 0.8548105
vn 0.8600546 0.51020193 -0
vn 0.86599284 0.36694616 -0.3397159
vn -0.6017917 0.5137246 0.6115013
vn -0.6605031 0.36694616 0.6550467
vn 0.8072815 0.5137246 -0.29048857
vn 0.66050303 0.36694616 -0.65504676
vn -0.80728155 0.5137246 0.29048836
vn -0.86599284 0.36694616 0.3397159
vn 0.6017916 0.5137246 -0.61150134
vn 0.3669461 0.36694616 -0.85481054
vn -0.8600546 0.51020193 -0
vn -0.92470425 0.36694616 -0.101353504
vn 0.33759046 0.5137246 -0.78874564
vn -0.014677882 0.36694616 -0.93012637
vn -0.80728155 0.5137246 -0.29048836
vn -0.86599284 0.36694616 -0.3397159
vn -0.014677882 0.5137246 -0.8578296
vn -0.36694616 0.36694616 -0.8548105
vn -0.6017917 0.5137246 -0.6115013
vn -0.6605031 0.36694616 -0.6550467
vn -0.3375904 0.5137246 -0.78874564
vn -0.48436886 0.86599284 -0.12427069
vn -0.42565757 0.8953486 -0.13102098
vn -0.3375904 0.8953486 -0.29048845
vn -0.19081205 0.8953486 -0.40241966
vn -0.014677882 0.8953486 -0.44512406
vn 0.19081199 0.8953486 -0.40241975
vn 0.33759046 0.8953486 -0.29048845
vn 0.4256575 0.8953486 -0.1310212
vn 0.4843689 0.86599284 -0.124270454
vn -0.42565757 0.8953486 0.13102098
vn 0.4256575 0.8953486 0.1310212
vn 0.33759046 0.8953486 0.29048845
vn -0.3375904 0.8953486 0.29048845
vn -0.19081205 0.8953486 0.40241966
vn 0.19081199 0.8953486 0.40241975
vn -0.014677882 0.8953486 0.44512406
vn -0.3375904 -0.51372457 -0.7887457
vn -0.36694616 -0.3963018 -0.84160286
vn -0.6605031 -0.3963018 -0.6377151
vn -0.6017917 -0.51372457 -0.61150134
vn -0.86599284 -0.3963018 -0.3049611
vn -0.014677882 -0.51372457 -0.85782963
vn -0.014677882 -0.3963018 -0.91800296
vn -0.80728155 -0.51372457 -0.29048845
vn -0.919145 -0.39391926 -0
vn 0.33759046 -0.51372457 -0.7887457
vn 0.3669461 -0.3963018 -0.84160286
vn -0.8600546 -0.5102019 -0
vn -0.86599284 -0.3963018 0.3049611
vn 0.6017916 -0.51372457 -0.61150134
vn 0.66050303 -0.3963018 -0.6377151
vn -0.80728155 -0.51372457 0.29048845
vn -0.6605031 -0.3963018 0.6377151
vn 0.8072815 -0.51372457 -0.29048866
vn 0.86599284 -0.3963018 -0.3049611
vn -0.6017917 -0.51372457 0.61150134
vn -0.36694616 -0.3963018 0.84160286
vn 0.8600546 -0.5102019 -0
vn 0.919145 -0.39391926 -0
vn -0.3375904 -0.51372457 0.7887457
vn -0.014677882 -0.3963018 0.91800296
vn 0.8072815 -0.51372457 0.29048866
vn 0.86599284 -0.3963018 0.3049611
vn -0.014677882 -0.51372457 0.85782963
vn 0.3669461 -0.3963018 0.84160286
vn 0.6017916 -0.51372457 0.61150134
vn 0.66050303 -0.3963018 0.6377151
vn 0.33759046 -0.51372457 0.7887457
vn 0.45304984 -0.8914852 -0
vn 0.4256575 -0.89534855 0.13102165
vn 0.33759046 -0.89534855 0.29048866
vn 0.19081199 -0.89534855 0.4024199
vn -0.014677882 -0.89534855 0.4451242
vn -0.19081205 -0.89534855 0.4024198
vn -0.3375904 -0.89534855 0.29048866
vn -0.42565757 -0.89534855 0.13102143
vn -0.45304987 -0.8914852 -0
vn 0.4256575 -0.89534855 -0.13102165
vn -0.42565757 -0.89534855 -0.13102143
vn -0.3375904 -0.89534855 -0.29048866
vn 0.33759046 -0.89534855 -0.29048866
vn 0.19081199 -0.89534855 -0.4024199
vn -0.19081205 -0.89534855 -0.4024198
vn -0.014677882 -0.89534855 -0.4451242
g bowl_0
f 3/3/3 2/2/2 1/1/1
f 4/4/4 3/3/3 1/1/1
f 1/1/1 2/2/2 5/5/5
f 6/6/6 3/3/3 4/4/4
f 2/2/2 7/7/7 5/5/5
f 8/8/8 6/6/6 4/4/4
f 5/5/5 7/7/7 9/9/9
f 10/10/10 6/6/6 8/8/8
f 7/7/7 11/11/11 9/9/9
f 12/12/12 10/10/10 8/8/8
f 9/9/9 11/11/11 13/13/13
f 14/14/14 10/10/10 12/12/12
f 11/11/11 15/15/15 13/13/13
f 16/16/16 14/14/14 12/12/12
f 13/13/13 15/15/15 17/17/17
f 18/18/18 14/14/14 16/16/16
f 15/15/15 19/19/19 17/17/17
f 20/20/20 18/18/18 16/16/16
f 17/17/17 19/19/19 21/21/21
f 22/22/22 18/18/18 20/20/20
f 19/19/19 23/23/23 21/21/21
f 24/24/24 22/22/22 20/20/20
f 21/21/21 23/23/23 25/25/25
f 26/26/26 22/22/22 24/24/24
f 23/23/23 27/27/27 25/25/25
f 28/28/28 26/26/26 24/24/24
f 25/25/25 27/27/27 29/29/29
f 30/30/30 26/26/26 28/28/28
f 27/27/27 31/31/31 29/29/29
f 32/32/32 30/30/30 28/28/28
f 29/29/29 31/31/31 32/32/32
f 31/31/31 30/30/30 32/32/32
f 35/35/35 34/34/34 33/33/33
f 34/34/34 36/36/36 33/33/33
f 34/34/34 37/37/37 36/36/36
f 35/35/35 33/33/33 38/38/38
f 39/39/39 35/35/35 38/38/38
f 37/37/37 40/40/40 36/36/36
f 37/37/37 41/41/41 40/40/40
f 39/39/39 38/38/38 42/42/42
f 43/43/43 39/39/39 42/42/42
f 41/41/41 44/44/44 40/40/40
f 41/41/41 45/45/45 44/44/44
f 43/43/43 42/42/42 46/46/46
f 47/47/47 43/43/43 46/46/46
f 45/45/45 48/48/48 44/44/44
f 45/45/45 49/49/49 48/48/48
f 47/47/47 46/46/46 50/50/50
f 51/51/51 47/47/47 50/50/50
f 49/49/49 52/52/52 48/48/48
f 49/49/49 53/53/53 52/52/52
f 51/51/51 50/50/50 54/54/54
f 55/55/55 51/51/51 54/54/54
f 53/53/53 56/56/56 52/52/52
f 53/53/53 57/57/57 56/56/56
f 55/55/55 54/54/54 58/58/58
f 59/59/59 55/55/55 58/58/58
f 57/57/57 60/60/60 56/56/56
f 57/57/57 61/61/61 60/60/60
f 59/59/59 58/58/58 62/62/62
f 63/63/63 59/59/59 62/62/62
f 61/61/61 63/63/63 64/64/64
f 61/61/61 64/64/64 60/60/60
f 63/63/63 62/62/62 64/64/64
f 65/65/65 54/54/54 50/50/50
f 66/66/66 58/58/58 54/54/54
f 65/65/65 66/66/66 54/54/54
f 67/67/67 62/62/62 58/58/58
f 66/66/66 67/67/67 58/58/58
f 68/68/68 64/64/64 62/62/62
f 67/67/67 68/68/68 62/62/62
f 69/69/69 60/60/60 64/64/64
f 68/68/68 69/69/69 64/64/64
f 69/69/69 70/70/70 60/60/60
f 70/70/70 69/69/69 68/68/68
f 70/70/70 68/68/68 67/67/67
f 70/70/70 56/56/56 60/60/60
f 70/70/70 71/71/71 56/56/56
f 71/71/71 70/70/70 67/67/67
f 71/71/71 52/52/52 56/56/56
f 72/72/72 67/67/67 66/66/66
f 72/72/72 71/71/71 67/67/67
f 71/71/71 72/72/72 52/52/52
f 72/72/72 66/66/66 65/65/65
f 72/72/72 48/48/48 52/52/52
f 72/72/72 73/73/73 48/48/48
f 73/73/73 72/72/72 65/65/65
f 73/73/73 44/44/44 48/48/48
f 73/73/73 65/65/65 74/74/74
f 74/74/74 65/65/65 50/50/50
f 74/74/74 50/50/50 46/46/46
f 73/73/73 75/75/75 44/44/44
f 75/75/75 73/73/73 74/74/74
f 75/75/75 40/40/40 44/44/44
f 75/75/75 76/76/76 40/40/40
f 76/76/76 75/75/75 74/74/74
f 76/76/76 36/36/36 40/40/40
f 77/77/77 74/74/74 46/46/46
f 76/76/76 74/74/74 77/77/77
f 77/77/77 46/46/46 42/42/42
f 78/78/78 77/77/77 42/42/42
f 76/76/76 77/77/77 78/78/78
f 78/78/78 42/42/42 38/38/38
f 76/76/76 79/79/79 36/36/36
f 79/79/79 76/76/76 78/78/78
f 79/79/79 33/33/33 36/36/36
f 80/80/80 78/78/78 38/38/38
f 80/80/80 38/38/38 33/33/33
f 78/78/78 80/80/80 79/79/79
f 79/79/79 80/80/80 33/33/33
f 83/83/83 82/82/82 81/81/81
f 84/84/84 83/83/83 81/81/81
f 85/85/85 83/83/83 84/84/84
f 81/81/81 82/82/82 86/86/86
f 82/82/82 87/87/87 86/86/86
f 88/88/88 85/85/85 84/84/84
f 89/89/89 85/85/85 88/88/88
f 86/86/86 87/87/87 90/90/90
f 87/87/87 91/91/91 90/90/90
f 92/92/92 89/89/89 88/88/88
f 93/93/93 89/89/89 92/92/92
f 90/90/90 91/91/91 94/94/94
f 91/91/91 95/95/95 94/94/94
f 96/96/96 93/93/93 92/92/92
f 97/97/97 93/93/93 96/96/96
f 94/94/94 95/95/95 98/98/98
f 95/95/95 99/99/99 98/98/98
f 100/100/100 97/97/97 96/96/96
f 101/101/101 97/97/97 100/100/100
f 98/98/98 99/99/99 102/102/102
f 99/99/99 103/103/103 102/102/102
f 104/104/104 101/101/101 100/100/100
f 105/105/105 101/101/101 104/104/104
f 102/102/102 103/103/103 106/106/106
f 103/103/103 107/107/107 106/106/106
f 108/108/108 105/105/105 104/104/104
f 109/109/109 105/105/105 108/108/108
f 106/106/106 107/107/107 110/110/110
f 107/107/107 111/111/111 110/110/110
f 111/111/111 109/109/109 112/112/112
f 112/112/112 109/109/109 108/108/108
f 110/110/110 111/111/111 112/112/112
f 102/102/102 113/113/113 98/98/98
f 106/106/106 114/114/114 102/102/102
f 114/114/114 113/113/113 102/102/102
f 110/110/110 115/115/115 106/106/106
f 115/115/115 114/114/114 106/106/106
f 112/112/112 116/116/116 110/110/110
f 116/116/116 115/115/115 110/110/110
f 108/108/108 117/117/117 112/112/112
f 117/117/117 116/116/116 112/112/112
f 118/118/118 117/117/117 108/108/108
f 116/116/116 117/117/117 118/118/118
f 104/104/104 118/118/118 108/108/108
f 116/116/116 118/118/118 119/119/119
f 119/119/119 118/118/118 104/104/104
f 115/115/115 116/116/116 119/119/119
f 100/100/100 119/119/119 104/104/104
f 114/114/114 115/115/115 120/120/120
f 115/115/115 119/119/119 120/120/120
f 120/120/120 119/119/119 100/100/100
f 113/113/113 114/114/114 120/120/120
f 96/96/96 120/120/120 100/100/100
f 121/121/121 120/120/120 96/96/96
f 113/113/113 120/120/120 121/121/121
f 92/92/92 121/121/121 96/96/96
f 122/122/122 113/113/113 121/121/121
f 113/113/113 122/122/122 98/98/98
f 98/98/98 122/122/122 94/94/94
f 123/123/123 121/121/121 92/92/92
f 122/122/122 121/121/121 123/123/123
f 88/88/88 123/123/123 92/92/92
f 124/124/124 123/123/123 88/88/88
f 122/122/122 123/123/123 124/124/124
f 84/84/84 124/124/124 88/88/88
f 122/122/122 125/125/125 94/94/94
f 125/125/125 122/122/122 124/124/124
f 94/94/94 125/125/125 90/90/90
f 125/125/125 126/126/126 90/90/90
f 126/126/126 125/125/125 124/124/124
f 90/90/90 126/126/126 86/86/86
f 127/127/127 124/124/124 84/84/84
f 126/126/126 124/124/124 127/127/127
f 81/81/81 127/127/127 84/84/84
f 126/126/126 128/128/128 86/86/86
f 127/127/127 128/128/128 126/126/126
f 128/128/128 127/127/127 81/81/81
f 86/86/86 128/128/128 81/81/81
