g bread
v -0.56505 0.7319906 0.7518251
v 0.43824592 0.8295102 0.73529625
v 0.5589059 0.75017214 0.75017214
v 0.75063956 0.5600914 -0.7539453
v -0.5716616 0.7452135 -0.73080504
v -0.73860204 0.59314895 -0.75063956
v -0.56505 0.7319906 0.7518251
v -0.3700106 0.83446884 0.7369492
v 0.43824592 0.8295102 0.73529625
v -0.36505198 0.8295102 -0.7126234
v -0.5716616 0.7452135 -0.73080504
v 0.45808044 0.82620454 -0.7126234
v 0.45808044 0.82620454 -0.7126234
v -0.5716616 0.7452135 -0.73080504
v 0.5787404 0.7518251 -0.7258464
v 0.75063956 0.5600914 -0.7539453
v 0.7572511 0.41794407 -0.73576367
v -0.73860204 0.59314895 -0.75063956
v -0.7518251 0.44273722 -0.76386255
v 0.6861774 0.22290468 -0.772127
v -0.69562733 0.22786331 -0.772127
v 0.63493824 -0.5952692 -0.7688212
v -0.6344708 -0.5952692 -0.7688212
v 0.6713015 -0.5952692 -0.73741657
v 0.63493824 -0.5952692 -0.7688212
v -0.6344708 -0.5952692 -0.7688212
v -0.6708342 -0.5952692 -0.73741657
v 0.6713015 -0.5952692 0.7485193
v -0.6691812 -0.5936163 0.74686646
v -0.6377766 -0.5936163 0.7749653
v 0.63989687 -0.5952692 0.77661824
v -0.73529625 0.5419098 0.7633952
v -0.56505 0.7319906 0.7518251
v 0.5589059 0.75017214 0.75017214
v 0.73245794 0.52868676 0.7633952
v 0.73906946 0.37496924 0.765048
v -0.7220733 0.38984513 0.765048
v 0.70270616 0.21794605 0.7633952
v -0.6757928 0.21794605 0.7633952
v 0.63989687 -0.5952692 0.77661824
v -0.6377766 -0.5936163 0.7749653
v 0.8101431 0.41794407 -0.73411083
v 0.7969201 0.5303396 0.7138089
v 0.78204423 0.5766202 -0.7225407
v 0.8051845 0.37496924 0.7171147
v 0.73411083 0.21794605 0.73529625
v 0.7241936 0.22125173 -0.7407223
v 0.6713015 -0.5952692 -0.73741657
v 0.6713015 -0.5952692 0.7485193
v 0.78204423 0.5766202 -0.7225407
v 0.7969201 0.5303396 0.7138089
v 0.6266738 0.7485193 0.70058596
v 0.6266738 0.75017214 -0.69609463
v 0.75063956 0.5600914 -0.7539453
v 0.78204423 0.5766202 -0.7225407
v 0.8101431 0.41794407 -0.73411083
v 0.7572511 0.41794407 -0.73576367
v 0.6861774 0.22290468 -0.772127
v 0.7241936 0.22125173 -0.7407223
v 0.63493824 -0.5952692 -0.7688212
v 0.6713015 -0.5952692 -0.73741657
v 0.5787404 0.7518251 -0.7258464
v 0.4613862 0.8559563 -0.6762601
v 0.45808044 0.82620454 -0.7126234
v 0.6266738 0.7485193 0.70058596
v -0.3733164 0.859262 -0.6762601
v -0.36505198 0.8295102 -0.7126234
v -0.5799259 0.77331245 -0.6977475
v -0.5716616 0.7452135 -0.73080504
v -0.3848865 0.88074946 0.67744565
v 0.43494016 0.8774437 0.67744565
v -0.7782711 0.59314895 -0.7208878
v -0.73860204 0.59314895 -0.75063956
v -0.7898412 0.44769585 -0.73411083
v -0.7518251 0.44273722 -0.76386255
v -0.69562733 0.22786331 -0.772127
v -0.73033774 0.22786331 -0.7407223
v -0.6708342 -0.5952692 -0.73741657
v -0.6344708 -0.5952692 -0.7688212
v -0.79645276 0.54356265 0.7138089
v -0.7898412 0.44769585 -0.73411083
v -0.7832297 0.39149797 0.7171147
v -0.7071974 0.21794605 0.73529625
v -0.73033774 0.22786331 -0.7407223
v -0.6708342 -0.5952692 -0.73741657
v -0.6691812 -0.5936163 0.74686646
v -0.5914961 0.77331245 0.7022388
v -0.73529625 0.5419098 0.7633952
v -0.56505 0.7319906 0.7518251
v -0.3700106 0.83446884 0.7369492
v 0.43824592 0.8295102 0.73529625
v 0.5589059 0.75017214 0.75017214
v 0.7969201 0.5303396 0.7138089
v 0.73245794 0.52868676 0.7633952
v -0.7220733 0.38984513 0.765048
v -0.7832297 0.39149797 0.7171147
v 0.8051845 0.37496924 0.7171147
v 0.73906946 0.37496924 0.765048
v -0.7071974 0.21794605 0.73529625
v -0.6757928 0.21794605 0.7633952
v -0.6377766 -0.5936163 0.7749653
v -0.6691812 -0.5936163 0.74686646
v 0.70270616 0.21794605 0.7633952
v 0.73411083 0.21794605 0.73529625
v 0.6713015 -0.5952692 0.7485193
v 0.63989687 -0.5952692 0.77661824
vt 0.7859093 0.904204
vt 0.7859093 0.904204
vt 0.7859093 0.904204
vt 0.7859093 0.904204
vt 0.7859093 0.904204
vt 0.7859093 0.904204
vt 0.7859093 0.904204
vt 0.7859093 0.904204
vt 0.7859093 0.904204
vt 0.7859093 0.904204
vt 0.7859093 0.904204
vt 0.7859093 0.904204
vt 0.7859093 0.904204
vt 0.7859093 0.904204
vt 0.7859093 0.904204
vt 0.7859093 0.904204
vt 0.7859093 0.904204
vt 0.7859093 0.904204
vt 0.7859093 0.904204
vt 0.7859093 0.904204
vt 0.7859093 0.904204
vt 0.7859093 0.904204
vt 0.7859093 0.904204
vt 0.9105792 0.96653897
vt 0.9105792 0.96653897
vt 0.9105792 0.96653897
vt 0.9105792 0.96653897
vt 0.9105792 0.96653897
vt 0.9105792 0.96653897
vt 0.9105792 0.96653897
vt 0.9105792 0.96653897
vt 0.7859093 0.904204
vt 0.7859093 0.904204
vt 0.7859093 0.904204
vt 0.7859093 0.904204
vt 0.7859093 0.904204
vt 0.7859093 0.904204
vt 0.7859093 0.904204
vt 0.7859093 0.904204
vt 0.7859093 0.904204
vt 0.7859093 0.904204
vt 0.9105792 0.96653897
vt 0.9105792 0.96653897
vt 0.9105792 0.96653897
vt 0.9105792 0.96653897
vt 0.9105792 0.96653897
vt 0.9105792 0.96653897
vt 0.9105792 0.96653897
vt 0.9105792 0.96653897
vt 0.9105792 0.96653897
vt 0.9105792 0.96653897
vt 0.9105792 0.96653897
vt 0.9105792 0.96653897
vt 0.9105792 0.96653897
vt 0.9105792 0.96653897
vt 0.9105792 0.96653897
vt 0.9105792 0.96653897
vt 0.9105792 0.96653897
vt 0.9105792 0.96653897
vt 0.9105792 0.96653897
vt 0.9105792 0.96653897
vt 0.9105792 0.96653897
vt 0.9105792 0.96653897
vt 0.9105792 0.96653897
vt 0.9105792 0.96653897
vt 0.9105792 0.96653897
vt 0.9105792 0.96653897
vt 0.9105792 0.96653897
vt 0.9105792 0.96653897
vt 0.9105792 0.96653897
vt 0.9105792 0.96653897
vt 0.9105792 0.96653897
vt 0.9105792 0.96653897
vt 0.9105792 0.96653897
vt 0.9105792 0.96653897
vt 0.9105792 0.96653897
vt 0.9105792 0.96653897
vt 0.9105792 0.96653897
vt 0.9105792 0.96653897
vt 0.9105792 0.96653897
vt 0.9105792 0.96653897
vt 0.9105792 0.96653897
vt 0.9105792 0.96653897
vt 0.9105792 0.96653897
vt 0.9105792 0.96653897
vt 0.9105792 0.96653897
vt 0.9105792 0.96653897
vt 0.9105792 0.96653897
vt 0.9105792 0.96653897
vt 0.9105792 0.96653897
vt 0.9105792 0.96653897
vt 0.9105792 0.96653897
vt 0.9105792 0.96653897
vt 0.9105792 0.96653897
vt 0.9105792 0.96653897
vt 0.9105792 0.96653897
vt 0.9105792 0.96653897
vt 0.9105792 0.96653897
vt 0.9105792 0.96653897
vt 0.9105792 0.96653897
vt 0.9105792 0.96653897
vt 0.9105792 0.96653897
vt 0.9105792 0.96653897
vt 0.9105792 0.96653897
vt 0.9105792 0.96653897
vt 0.9105792 0.96653897
vn 0.016740441 0.078402996 0.9967812
vn -0.014973998 0.17354631 0.9847118
vn -0.014973998 0.078402996 0.9968093
vn 0.016740441 0.046688557 -0.9987692
vn 0.016740441 0.14183187 -0.9897492
vn 0.016740441 0.046688557 -0.9987692
vn 0.016740441 0.078402996 0.9967812
vn 0.016740441 0.14183187 0.9897492
vn -0.014973998 0.17354631 0.9847118
vn 0.016740441 0.20526087 -0.9785641
vn 0.016740441 0.14183187 -0.9897492
vn 0.016740441 0.20526087 -0.9785641
vn 0.016740441 0.20526087 -0.9785641
vn 0.016740441 0.14183187 -0.9897492
vn 0.016740441 0.14183187 -0.9897492
vn 0.016740441 0.046688557 -0.9987692
vn 0.016740441 0.078402996 -0.9967812
vn 0.016740441 0.046688557 -0.9987692
vn 0.016740441 0.014973998 -0.9997477
vn 0.016740441 0.078402996 -0.9967812
vn -0.014973998 0.014973998 -0.99977577
vn -0.014973998 -0.016740441 -0.9997477
vn -0.014973998 -0.016740441 -0.9997477
vn -0.014973986 -0.99988794 -0
vn -0.014973986 -0.99988794 -0
vn -0.014973986 -0.99988794 -0
vn -0.014973986 -0.99988794 -0
vn -0.014973986 -0.99988794 -0
vn -0.014973986 -0.99988794 -0
vn -0.014973986 -0.99988794 -0
vn -0.014973986 -0.99988794 -0
vn -0.014973998 0.014973998 0.99977577
vn 0.016740441 0.078402996 0.9967812
vn -0.014973998 0.078402996 0.9968093
vn -0.014973998 0.014973998 0.99977577
vn -0.014973998 0.014973998 0.99977577
vn -0.014973998 0.014973998 0.99977577
vn -0.014973998 0.014973998 0.99977577
vn -0.014973998 0.014973998 0.99977577
vn -0.014973998 0.014973998 0.99977577
vn -0.014973998 0.014973998 0.99977577
vn 0.98984426 -0.14215572 -0
vn 0.9211954 0.38910013 -0
vn 0.9211954 0.38910013 -0
vn 0.9849749 -0.17269787 -0
vn 0.96817434 -0.23874164 -0.07510588
vn 0.96817434 -0.23874164 -0.07510588
vn 0.99680114 -0.07992176 -0
vn 0.99680114 -0.07992176 -0
vn 0.9211954 0.38910013 -0
vn 0.9211954 0.38910013 -0
vn 0.6193152 0.6809778 0.39079133
vn 0.58760077 0.71269226 -0.3831384
vn 0.39731395 0.26868975 -0.8774665
vn 0.42902845 0.3004042 -0.85187554
vn 0.33388507 -0.016740441 -0.9424651
vn 0.33388507 -0.016740441 -0.9424651
vn 0.5241718 -0.04845488 -0.85023296
vn 0.4924574 -0.04845488 -0.86898667
vn 0.6510297 -0.04845488 -0.7575041
vn 0.6510297 -0.04845488 -0.7575041
vn 0.39731395 0.64926326 -0.6485359
vn 0.23874164 0.902979 -0.3572553
vn 0.2070272 0.7444067 -0.63482153
vn 0.6193152 0.6809778 0.39079133
vn -0.17354631 0.93469346 -0.31020927
vn -0.110117435 0.7444067 -0.65858394
vn -0.49069095 0.8078356 -0.3265334
vn -0.39554763 0.64926326 -0.64961475
vn -0.20526087 0.93469346 0.29020014
vn 0.23874164 0.93469346 0.26334503
vn -0.83955014 0.3638332 -0.40346128
vn -0.55411994 0.42726207 -0.7144216
vn -0.6175488 0.014973998 -0.78639
vn -0.6175488 -0.016740441 -0.78635436
vn -0.64926326 -0.08016932 -0.75632674
vn -0.64926326 -0.11188382 -0.75228935
vn -0.64926326 -0.04845488 -0.75901866
vn -0.64926326 -0.04845488 -0.75901866
vn -0.8712646 0.33211863 0.36137962
vn -0.98492277 -0.17299433 -0
vn -0.98492277 -0.17299433 -0
vn -0.9664079 -0.17531276 0.18793939
vn -0.9664079 -0.2070272 0.15230073
vn -0.99812245 -0.04845488 0.037465993
vn -0.99812245 -0.04845488 0.037465993
vn -0.5224055 0.77612114 0.35316923
vn -0.5858344 0.26868975 0.76459396
vn -0.42726207 0.5858344 0.6886546
vn -0.14183187 0.7444067 0.65248936
vn 0.23874164 0.77612114 0.5836424
vn 0.4607429 0.64926326 0.60512245
vn 0.58760077 0.20526087 0.7826834
vn 0.55588627 0.26868975 0.78663605
vn -0.6175488 -0.11188382 0.7785342
vn -0.6175488 -0.11188382 0.7785342
vn 0.6193152 -0.04845488 0.7836458
vn 0.6193152 -0.08016932 0.78103876
vn -0.64926326 -0.11188382 0.75228935
vn -0.64926326 -0.08016932 0.75632674
vn -0.64926326 -0.016740441 0.7603795
vn -0.64926326 -0.016740441 0.7603795
vn 0.6510297 -0.11188382 0.75076115
vn 0.6193152 -0.11188382 0.77712977
vn 0.6510297 -0.04845488 0.7575041
vn 0.6510297 -0.04845488 0.7575041
g bread_0
f 3/3/3 2/2/2 1/1/1
f 6/6/6 5/5/5 4/4/4
f 9/9/9 8/8/8 7/7/7
f 12/12/12 11/11/11 10/10/10
f 15/15/15 14/14/14 13/13/13
f 15/15/15 16/16/16 14/14/14
f 18/18/18 16/16/16 17/17/17
f 19/19/19 18/18/18 17/17/17
f 20/20/20 19/19/19 17/17/17
f 21/21/21 19/19/19 20/20/20
f 21/21/21 20/20/20 22/22/22
f 23/23/23 21/21/21 22/22/22
f 26/26/26 25/25/25 24/24/24
f 24/24/24 27/27/27 26/26/26
f 24/24/24 28/28/28 27/27/27
f 28/28/28 29/29/29 27/27/27
f 28/28/28 30/30/30 29/29/29
f 28/28/28 31/31/31 30/30/30
f 34/34/34 33/33/33 32/32/32
f 35/35/35 34/34/34 32/32/32
f 35/35/35 32/32/32 36/36/36
f 32/32/32 37/37/37 36/36/36
f 36/36/36 37/37/37 38/38/38
f 37/37/37 39/39/39 38/38/38
f 38/38/38 39/39/39 40/40/40
f 39/39/39 41/41/41 40/40/40
f 44/44/44 43/43/43 42/42/42
f 43/43/43 45/45/45 42/42/42
f 45/45/45 46/46/46 42/42/42
f 46/46/46 47/47/47 42/42/42
f 47/47/47 46/46/46 48/48/48
f 46/46/46 49/49/49 48/48/48
f 52/52/52 51/51/51 50/50/50
f 53/53/53 52/52/52 50/50/50
f 53/53/53 55/55/55 54/54/54
f 54/54/54 55/55/55 56/56/56
f 57/57/57 54/54/54 56/56/56
f 58/58/58 57/57/57 56/56/56
f 59/59/59 58/58/58 56/56/56
f 58/58/58 59/59/59 60/60/60
f 59/59/59 61/61/61 60/60/60
f 62/62/62 53/53/53 54/54/54
f 63/63/63 53/53/53 62/62/62
f 64/64/64 63/63/63 62/62/62
f 65/65/65 53/53/53 63/63/63
f 66/66/66 63/63/63 64/64/64
f 67/67/67 66/66/66 64/64/64
f 68/68/68 66/66/66 67/67/67
f 69/69/69 68/68/68 67/67/67
f 66/66/66 70/70/70 63/63/63
f 66/66/66 68/68/68 70/70/70
f 71/71/71 65/65/65 63/63/63
f 70/70/70 71/71/71 63/63/63
f 72/72/72 68/68/68 69/69/69
f 73/73/73 72/72/72 69/69/69
f 74/74/74 72/72/72 73/73/73
f 75/75/75 74/74/74 73/73/73
f 75/75/75 76/76/76 74/74/74
f 76/76/76 77/77/77 74/74/74
f 78/78/78 77/77/77 76/76/76
f 79/79/79 78/78/78 76/76/76
f 68/68/68 72/72/72 80/80/80
f 72/72/72 81/81/81 80/80/80
f 81/81/81 82/82/82 80/80/80
f 82/82/82 81/81/81 83/83/83
f 81/81/81 84/84/84 83/83/83
f 84/84/84 85/85/85 83/83/83
f 85/85/85 86/86/86 83/83/83
f 87/87/87 68/68/68 80/80/80
f 68/68/68 87/87/87 70/70/70
f 87/87/87 80/80/80 88/88/88
f 89/89/89 87/87/87 88/88/88
f 70/70/70 87/87/87 89/89/89
f 90/90/90 70/70/70 89/89/89
f 71/71/71 70/70/70 90/90/90
f 91/91/91 71/71/71 90/90/90
f 65/65/65 71/71/71 91/91/91
f 92/92/92 65/65/65 91/91/91
f 93/93/93 65/65/65 92/92/92
f 94/94/94 93/93/93 92/92/92
f 88/88/88 80/80/80 95/95/95
f 80/80/80 96/96/96 95/95/95
f 97/97/97 93/93/93 94/94/94
f 98/98/98 97/97/97 94/94/94
f 96/96/96 99/99/99 95/95/95
f 99/99/99 100/100/100 95/95/95
f 100/100/100 99/99/99 101/101/101
f 99/99/99 102/102/102 101/101/101
f 98/98/98 103/103/103 97/97/97
f 103/103/103 104/104/104 97/97/97
f 105/105/105 104/104/104 103/103/103
f 106/106/106 105/105/105 103/103/103
