g briefcase.001
v -1.6957575 0.66815776 -1.2196044
v -1.7833148 0.6681401 -1.2508715
v -1.7142669 0.6681578 -1.3573045
v 1.7830588 0.6681407 1.227914
v 1.8046681 0.6681405 1.0819379
v 1.8046681 0.20910257 1.0820198
v 1.7830588 0.20914035 1.2280159
v 1.719051 0.6681583 1.3182498
v 1.769955 0.07760695 1.2199268
v 1.7912239 0.077606976 1.0820284
v 1.719051 0.20916381 1.3183403
v 1.6130849 0.66814137 1.3476621
v 1.6130849 0.2091638 1.3477335
v 1.6130849 0.07760694 1.3302202
v 1.723549 5.5310757E-06 1.1721668
v 1.7303532 5.426549E-06 1.0820465
v 1.6849681 5.519145E-06 1.2453966
v 1.6130849 5.5164815E-06 1.2617455
v 1.7102813 0.077606946 1.2994347
v -1.774999 0.66813964 -1.071844
v -1.774999 0.6681412 1.0537921
v -1.7977043 0.6681405 1.0819379
v -1.7977043 0.20910257 1.0820198
v -1.7977043 0.6681401 -1.1057023
v -1.7976788 0.20859283 -1.1056137
v -1.6957575 0.66815776 -1.2196044
v -1.7142669 0.6681578 -1.3573045
v -1.6090192 0.6681402 -1.3776635
v 1.6130849 0.6681397 -1.3776101
v 1.7068292 0.66815776 -1.2196044
v 1.711743 0.6681578 -1.3503712
v 1.7837142 0.6681401 -1.2453278
v 1.7068292 0.6681412 1.2119828
v 1.8046681 0.6681405 1.0819379
v 1.7830588 0.6681407 1.227914
v 1.719051 0.6681583 1.3182498
v 1.6130849 0.66814137 1.3476621
v -1.6957575 0.6681412 1.2119828
v -1.6084269 0.66814137 1.3476621
v -1.7102603 0.6681583 1.3232356
v -1.7832645 0.66814023 1.2182266
v -1.774999 0.6681412 1.0537921
v -1.7977043 0.6681405 1.0819379
v -1.774999 0.66813964 -1.071844
v -1.7833148 0.6681401 -1.2508715
v -1.7977043 0.6681401 -1.1057023
v 1.8046681 0.6681401 -1.1057023
v 1.7068292 0.66815776 -1.2196044
v 1.7837142 0.6681401 -1.2453278
v 1.8046681 0.6681405 1.0819379
v -1.4284512 0.6781578 -1.4133757
v -1.0805815 0.6781578 -1.4133757
v -1.0714616 0.6781578 -1.3584155
v -1.439035 0.6781578 -1.3584155
v 1.7303532 5.426549E-06 1.0820465
v 1.7912618 0.07760662 -1.1056108
v 1.7303532 5.1869115E-06 -1.1055775
v 1.7912239 0.077606976 1.0820284
v 1.8046681 0.20910257 1.0820198
v 1.8046681 0.20859283 -1.1056137
v 1.6130849 0.2091638 1.3477335
v -1.6084269 0.2091638 1.3477335
v -1.6084269 0.66814137 1.3476621
v 1.6130849 0.66814137 1.3476621
v 1.6130849 0.2085297 -1.3775387
v 1.711743 0.6681578 -1.3503712
v 1.6130849 0.6681397 -1.3776101
v 1.711743 0.2085297 -1.3503399
v 1.7837142 0.6681401 -1.2453278
v 1.7037925 0.07760654 -1.3297081
v 1.6130849 0.077606544 -1.3600655
v 1.7837142 0.20855674 -1.2452755
v 1.8046681 0.6681401 -1.1057023
v 1.8046681 0.20859283 -1.1056137
v 1.7912618 0.07760662 -1.1056108
v 1.7712654 0.07760652 -1.2372913
v 1.6759967 -4.8019874E-06 -1.2570715
v 1.6130849 -4.7999424E-06 -1.2696228
v 1.718522 -1.9506826E-06 -1.1974211
v 1.7303532 5.1869115E-06 -1.1055775
v -1.6090192 0.077606544 -1.3600655
v -1.6717416 -4.803172E-06 -1.2497997
v -1.6090192 5.0944286E-06 -1.2696228
v -1.7087356 0.07760654 -1.3397503
v -1.6090192 0.2085297 -1.3775387
v -1.7136117 -4.81134E-06 -1.1996622
v -1.7142669 0.2085297 -1.3572311
v -1.6090192 0.6681402 -1.3776635
v -1.7142669 0.6681578 -1.3573045
v -1.7833148 0.20855841 -1.2605381
v -1.7833148 0.6681401 -1.2508715
v -1.7730211 0.07760652 -1.2518873
v -1.7976788 0.20859283 -1.1056137
v -1.7977043 0.6681401 -1.1057023
v -1.7873849 0.07760662 -1.1056108
v -1.7233895 -4.7074595E-06 -1.1055775
v 1.6130849 0.077606544 -1.3600655
v -1.6090192 5.0944286E-06 -1.2696228
v 1.6130849 -4.7999424E-06 -1.2696228
v -1.6090192 0.077606544 -1.3600655
v -1.6090192 0.2085297 -1.3775387
v 1.6130849 0.2085297 -1.3775387
v -1.6084269 0.07760694 1.3302202
v -1.6084269 0.2091638 1.3477335
v 1.6130849 0.2091638 1.3477335
v 1.6130849 0.07760694 1.3302202
v 1.6130849 5.5164815E-06 1.2617455
v -1.6084269 5.5164815E-06 1.2617455
v -1.7873849 0.07760662 -1.1056108
v -1.7233895 -4.4678222E-06 1.0820465
v -1.7233895 -4.7074595E-06 -1.1055775
v -1.7873849 0.077606976 1.0820284
v -1.7977043 0.20910257 1.0820198
v -1.7976788 0.20859283 -1.1056137
v -1.7873849 0.077606976 1.0820284
v -1.717795 -4.3639866E-06 1.1764097
v -1.7233895 -4.4678222E-06 1.0820465
v -1.7707278 0.07760695 1.2157593
v -1.7832645 0.20913868 1.2183084
v -1.7977043 0.20910257 1.0820198
v -1.7977043 0.6681405 1.0819379
v -1.7832645 0.66814023 1.2182266
v -1.7102603 0.20916381 1.323308
v -1.7102603 0.6681583 1.3232356
v -1.7074379 0.07760694 1.306982
v -1.6796042 -4.374985E-06 1.2439194
v -1.6084269 0.07760694 1.3302202
v -1.6084269 5.5164815E-06 1.2617455
v -1.6084269 0.2091638 1.3477335
v -1.6084269 0.66814137 1.3476621
v -1.4259561 0.6681583 1.3665706
v -1.0499068 0.6681583 1.3665706
v -1.0499343 0.45158604 1.3665887
v -1.4259526 0.45158604 1.3665887
v 1.0283076 0.6681583 1.3665706
v 1.3954941 0.6681583 1.3665706
v 1.3954629 0.45626977 1.3665887
v 1.028309 0.45626977 1.3665887
v 1.8046681 0.20859283 -1.1056137
v 1.8046681 0.20910257 1.0820198
v 1.8046681 0.6681405 1.0819379
v 1.8046681 0.6681401 -1.1057023
v 1.6130849 0.6681397 -1.3776101
v -1.6090192 0.6681402 -1.3776635
v -1.6090192 0.2085297 -1.3775387
v 1.6130849 0.2085297 -1.3775387
v 1.4461111 0.6781578 -1.3584155
v 1.4354182 0.6781578 -1.4133757
v 1.0875489 0.6781578 -1.4133757
v 1.0769647 0.6781578 -1.3584155
v -0 0 0
v 1.6130849 -4.7999424E-06 -1.2696228
v -1.6090192 5.0944286E-06 -1.2696228
v 1.6759967 -4.8019874E-06 -1.2570715
v -1.6717416 -4.803172E-06 -1.2497997
v 1.718522 -1.9506826E-06 -1.1974211
v -1.7136117 -4.81134E-06 -1.1996622
v 1.7303532 5.1869115E-06 -1.1055775
v -1.7233895 -4.7074595E-06 -1.1055775
v 1.7303532 5.426549E-06 1.0820465
v -1.7233895 -4.4678222E-06 1.0820465
v 1.723549 5.5310757E-06 1.1721668
v -1.717795 -4.3639866E-06 1.1764097
v 1.6849681 5.519145E-06 1.2453966
v -1.6796042 -4.374985E-06 1.2439194
v 1.6130849 5.5164815E-06 1.2617455
v -1.6084269 5.5164815E-06 1.2617455
v -1.4284512 0.40469775 -1.4133757
v -1.4284512 0.6781578 -1.4133757
v -1.439035 0.6781578 -1.3584155
v -1.4390336 0.40469775 -1.3584155
v -1.0805815 0.6781578 -1.4133757
v -1.0714604 0.40469775 -1.3584155
v -1.0805815 0.40469775 -1.4133757
v -1.0714616 0.6781578 -1.3584155
v 1.0875489 0.40469775 -1.4133757
v 1.0875489 0.6781578 -1.4133757
v 1.0769647 0.6781578 -1.3584155
v 1.0769662 0.40469775 -1.3584155
v 1.4354182 0.6781578 -1.4133757
v 1.4354182 0.40469775 -1.4133757
v 1.446705 0.40469775 -1.3549193
v 1.4461111 0.6781578 -1.3584155
v 0.3826437 0.65245605 -1.3584155
v 0.5020462 0.632148 -1.4940289
v 0.5020462 0.65245605 -1.3584155
v 0.51957905 0.632148 -1.3584155
v 0.48519886 0.33013812 -1.4396181
v 0.38264364 0.632148 -1.4940299
v 0.36696285 0.632148 -1.3584155
v 0.3480345 0.4255288 -1.4154205
v 0.36290646 0.42552882 -1.5636654
v 0.28318387 0.36891082 -1.4346895
v 0.4714849 0.34549206 -1.5853481
v 0.40458015 0.24290767 -1.4661083
v 0.39450392 0.26302868 -1.6120243
v 0.30820653 0.20029727 -1.4765491
v 0.2887298 0.3447823 -1.5906048
v -0.28581554 0.36891082 -1.4346895
v 0.30820653 0.22446042 -1.6219244
v -0.3109839 0.20029727 -1.4765491
v -0.29136634 0.3447823 -1.5906048
v -0.3109839 0.22446042 -1.6219244
v -0.39728013 0.26302868 -1.6120243
v -0.40736008 0.24290767 -1.4661083
v -0.36554056 0.42552882 -1.5636654
v -0.3506698 0.4255288 -1.4154205
v -0.4742623 0.34549206 -1.5853481
v -0.48797375 0.33013812 -1.4396181
v -0.385421 0.63212204 -1.4940299
v -0.3697415 0.63212204 -1.3584155
v -0.38542095 0.65245605 -1.3584155
v -0.50458544 0.63212204 -1.494048
v -0.5223513 0.632148 -1.3584155
v -0.50482595 0.65245605 -1.3584155
v 0.6234409 0.4352202 -1.3584155
v 0.47762415 0.47566938 -1.4940289
v 0.47762415 0.4352202 -1.3584155
v 0.47759873 0.64778745 -1.3584155
v 0.6234409 0.47566938 -1.4940289
v 0.677162 0.47566935 -1.3584155
v 0.677162 0.6182195 -1.3584155
v 0.6234409 0.6182195 -1.4940289
v 0.6234409 0.64778745 -1.3584155
v 0.47759873 0.6182195 -1.4940289
v -0.63072014 0.47566938 -1.4940289
v -0.6856969 0.47566935 -1.3584155
v -0.63072014 0.4352202 -1.3584155
v -0.6856969 0.6182195 -1.3584155
v -0.48033386 0.47566938 -1.4940289
v -0.48033386 0.4352202 -1.3584155
v -0.48030943 0.64778745 -1.3584155
v -0.63072014 0.6182195 -1.4940289
v -0.63072014 0.64778745 -1.3584155
v -0.48030943 0.6182195 -1.4940289
v -1.6957575 0.07865437 -1.2195129
v -1.6957575 0.07922057 1.2120743
v -1.6957575 0.6681412 1.2119828
v 1.7068292 0.6681412 1.2119828
v -1.6957575 0.66815776 -1.2196044
v 1.7068292 0.07922057 1.2120743
v 1.7068292 0.66815776 -1.2196044
v 1.7068292 0.07865437 -1.2195129
vt 0.7255159 0.01929
vt 0.7255159 0.01929
vt 0.7255159 0.01929
vt 0.7705414 0.017112568
vt 0.7705414 0.017112568
vt 0.7705414 0.017112568
vt 0.7705414 0.017112568
vt 0.7705414 0.017112568
vt 0.7705414 0.017112568
vt 0.7705414 0.017112568
vt 0.7705414 0.017112568
vt 0.7705414 0.017112568
vt 0.7705414 0.017112568
vt 0.7705414 0.017112568
vt 0.7705414 0.017112568
vt 0.7705414 0.017112568
vt 0.7705414 0.017112568
vt 0.7705414 0.017112568
vt 0.7705414 0.017112568
vt 0.7255159 0.01929
vt 0.7255159 0.01929
vt 0.7255159 0.01929
vt 0.7255159 0.01929
vt 0.7255159 0.01929
vt 0.7255159 0.01929
vt 0.71850157 0.0930828
vt 0.71850157 0.0930828
vt 0.71850157 0.0930828
vt 0.71850157 0.0930828
vt 0.71850157 0.0930828
vt 0.71850157 0.0930828
vt 0.71850157 0.0930828
vt 0.71850157 0.0930828
vt 0.71850157 0.0930828
vt 0.71850157 0.0930828
vt 0.71850157 0.0930828
vt 0.71850157 0.0930828
vt 0.71850157 0.0930828
vt 0.71850157 0.0930828
vt 0.71850157 0.0930828
vt 0.71850157 0.0930828
vt 0.71850157 0.0930828
vt 0.71850157 0.0930828
vt 0.71850157 0.0930828
vt 0.71850157 0.0930828
vt 0.71850157 0.0930828
vt 0.7255159 0.01929
vt 0.7255159 0.01929
vt 0.7255159 0.01929
vt 0.7255159 0.01929
vt 0.85829175 0.0152843
vt 0.85829175 0.0152843
vt 0.85829175 0.0152843
vt 0.85829175 0.0152843
vt 0.7255159 0.01929
vt 0.7255159 0.01929
vt 0.7255159 0.01929
vt 0.7255159 0.01929
vt 0.7255159 0.01929
vt 0.7255159 0.01929
vt 0.7255159 0.01929
vt 0.7255159 0.01929
vt 0.7255159 0.01929
vt 0.7255159 0.01929
vt 0.7705414 0.017112568
vt 0.7705414 0.017112568
vt 0.7705414 0.017112568
vt 0.7705414 0.017112568
vt 0.7705414 0.017112568
vt 0.7705414 0.017112568
vt 0.7705414 0.017112568
vt 0.7705414 0.017112568
vt 0.7705414 0.017112568
vt 0.7705414 0.017112568
vt 0.7705414 0.017112568
vt 0.7705414 0.017112568
vt 0.7705414 0.017112568
vt 0.7705414 0.017112568
vt 0.7705414 0.017112568
vt 0.7705414 0.017112568
vt 0.7705414 0.017112568
vt 0.7705414 0.017112568
vt 0.7705414 0.017112568
vt 0.7705414 0.017112568
vt 0.7705414 0.017112568
vt 0.7705414 0.017112568
vt 0.7705414 0.017112568
vt 0.7705414 0.017112568
vt 0.7705414 0.017112568
vt 0.7705414 0.017112568
vt 0.7705414 0.017112568
vt 0.7705414 0.017112568
vt 0.7705414 0.017112568
vt 0.7705414 0.017112568
vt 0.7705414 0.017112568
vt 0.7705414 0.017112568
vt 0.7255159 0.01929
vt 0.7255159 0.01929
vt 0.7255159 0.01929
vt 0.7255159 0.01929
vt 0.7255159 0.01929
vt 0.7255159 0.01929
vt 0.7255159 0.01929
vt 0.7255159 0.01929
vt 0.7255159 0.01929
vt 0.7255159 0.01929
vt 0.7255159 0.01929
vt 0.7255159 0.01929
vt 0.7255159 0.01929
vt 0.7255159 0.01929
vt 0.7255159 0.01929
vt 0.7255159 0.01929
vt 0.7255159 0.01929
vt 0.7255159 0.01929
vt 0.7705414 0.017112568
vt 0.7705414 0.017112568
vt 0.7705414 0.017112568
vt 0.7705414 0.017112568
vt 0.7705414 0.017112568
vt 0.7705414 0.017112568
vt 0.7705414 0.017112568
vt 0.7705414 0.017112568
vt 0.7705414 0.017112568
vt 0.7705414 0.017112568
vt 0.7705414 0.017112568
vt 0.7705414 0.017112568
vt 0.7705414 0.017112568
vt 0.7705414 0.017112568
vt 0.7705414 0.017112568
vt 0.7705414 0.017112568
vt 0.7948468 0.0438485
vt 0.7948468 0.0438485
vt 0.7948468 0.0438485
vt 0.7948468 0.0438485
vt 0.7948468 0.0438485
vt 0.7948468 0.0438485
vt 0.7948468 0.0438485
vt 0.7948468 0.0438485
vt 0.7255159 0.01929
vt 0.7255159 0.01929
vt 0.7255159 0.01929
vt 0.7255159 0.01929
vt 0.7255159 0.01929
vt 0.7255159 0.01929
vt 0.7255159 0.01929
vt 0.7255159 0.01929
vt 0.85829175 0.0152843
vt 0.85829175 0.0152843
vt 0.85829175 0.0152843
vt 0.85829175 0.0152843
vt 0.7133579 0.028766513
vt 0.7133579 0.028766513
vt 0.7133579 0.028766513
vt 0.7133579 0.028766513
vt 0.7133579 0.028766513
vt 0.7133579 0.028766513
vt 0.7133579 0.028766513
vt 0.7133579 0.028766513
vt 0.7133579 0.028766513
vt 0.7133579 0.028766513
vt 0.7133579 0.028766513
vt 0.7133579 0.028766513
vt 0.7133579 0.028766513
vt 0.7133579 0.028766513
vt 0.7133579 0.028766513
vt 0.7133579 0.028766513
vt 0.7133579 0.028766513
vt 0.7826941 0.025619462
vt 0.7826941 0.025619462
vt 0.7826941 0.025619462
vt 0.7826941 0.025619462
vt 0.7826941 0.025619462
vt 0.7826941 0.025619462
vt 0.7826941 0.025619462
vt 0.7826941 0.025619462
vt 0.7826941 0.025619462
vt 0.7826941 0.025619462
vt 0.7826941 0.025619462
vt 0.7826941 0.025619462
vt 0.7826941 0.025619462
vt 0.7826941 0.025619462
vt 0.7826941 0.025619462
vt 0.7826941 0.025619462
vt 0.90263844 0.032535434
vt 0.90263844 0.032535434
vt 0.90263844 0.032535434
vt 0.90263844 0.032535434
vt 0.90263844 0.032535434
vt 0.90263844 0.032535434
vt 0.90263844 0.032535434
vt 0.90263844 0.032535434
vt 0.90263844 0.032535434
vt 0.90263844 0.032535434
vt 0.90263844 0.032535434
vt 0.90263844 0.032535434
vt 0.90263844 0.032535434
vt 0.90263844 0.032535434
vt 0.90263844 0.032535434
vt 0.90263844 0.032535434
vt 0.90263844 0.032535434
vt 0.90263844 0.032535434
vt 0.90263844 0.032535434
vt 0.90263844 0.032535434
vt 0.90263844 0.032535434
vt 0.90263844 0.032535434
vt 0.90263844 0.032535434
vt 0.90263844 0.032535434
vt 0.90263844 0.032535434
vt 0.90263844 0.032535434
vt 0.90263844 0.032535434
vt 0.90263844 0.032535434
vt 0.90263844 0.032535434
vt 0.90263844 0.032535434
vt 0.90263844 0.032535434
vt 0.90263844 0.032535434
vt 0.90263844 0.032535434
vt 0.90263844 0.032535434
vt 0.90263844 0.032535434
vt 0.90263844 0.032535434
vt 0.90263844 0.032535434
vt 0.90263844 0.032535434
vt 0.90263844 0.032535434
vt 0.90263844 0.032535434
vt 0.90263844 0.032535434
vt 0.90263844 0.032535434
vt 0.90263844 0.032535434
vt 0.90263844 0.032535434
vt 0.90263844 0.032535434
vt 0.90263844 0.032535434
vt 0.90263844 0.032535434
vt 0.90263844 0.032535434
vt 0.90263844 0.032535434
vt 0.90263844 0.032535434
vt 0.90263844 0.032535434
vt 0.90263844 0.032535434
vt 0.8406369 0.028149784
vt 0.8406369 0.028149784
vt 0.8406369 0.028149784
vt 0.8406369 0.028149784
vt 0.8406369 0.028149784
vt 0.8406369 0.028149784
vt 0.8406369 0.028149784
vt 0.8406369 0.028149784
vn 0.30139077 0.9045799 0.30149427
vn -0.7076372 0.65981007 -0.25278512
vn -0.42769673 0.6285164 -0.6496482
vn 0.6985817 0.65832424 0.28034422
vn 0.7209535 0.6909485 0.05306678
vn 0.9959382 -0.05147467 0.07387474
vn 0.9244336 -0.058884192 0.37676927
vn 0.4422144 0.6390294 0.62935513
vn 0.8641692 -0.35974267 0.3518477
vn 0.92991364 -0.36216116 0.06402942
vn 0.5721631 -0.06969776 0.81717294
vn 0.09915024 0.67800814 0.7283365
vn 0.13798387 -0.06851389 0.9880619
vn 0.12684609 -0.39994118 0.90772074
vn 0.46868464 -0.8711945 0.14613329
vn 0.45334256 -0.8908767 0.028624058
vn 0.31788912 -0.8577896 0.40391022
vn 0.06399894 -0.8960875 0.43923932
vn 0.5338116 -0.38650224 0.7521046
vn -0.9988159 0.04864945 0
vn -0.9988159 0.04864945 0
vn -0.9988159 0.04864945 0
vn -0.9988159 0.04864945 0
vn -0.9988159 0.04864945 0
vn -0.9988159 0.04864945 0
vn 0.30139077 0.9045799 0.30149427
vn -0.42769673 0.6285164 -0.6496482
vn -0.06927329 0.68612397 -0.72417897
vn 0.09860772 0.67798537 -0.7284314
vn -0.30137548 0.904588 0.3014854
vn 0.44745308 0.63742745 -0.62727356
vn 0.69920653 0.65990037 -0.2750304
vn -0.30155972 0.90449727 -0.30157313
vn 0.7209535 0.6909485 0.05306678
vn 0.6985817 0.65832424 0.28034422
vn 0.4422144 0.6390294 0.62935513
vn 0.09915024 0.67800814 0.7283365
vn 0.30156246 0.9044969 -0.30157164
vn -0.08589781 0.6816562 0.72661304
vn -0.43566862 0.6352208 0.6377205
vn -0.70791835 0.65525347 0.26361808
vn -0.5295783 0.84826106 0
vn -0.7888547 0.61316377 0.041693915
vn -0.55135584 0.83427024 0
vn -0.7076372 0.65981007 -0.25278512
vn -0.77745914 0.6278335 -0.037178908
vn 0.7211688 0.6906667 -0.05380663
vn -0.30137548 0.904588 0.3014854
vn 0.69920653 0.65990037 -0.2750304
vn 0.7209535 0.6909485 0.05306678
vn -0.5150366 0.5880206 -0.6236739
vn 0.5237499 0.58649266 -0.6178287
vn 0.73497516 0.66703457 -0.12196873
vn -0.7375788 0.6601556 -0.14202845
vn 0.45334256 -0.8908767 0.028624058
vn 0.9277111 -0.36716598 -0.06738948
vn 0.45330432 -0.890743 -0.033044774
vn 0.92991364 -0.36216116 0.06402942
vn 0.9959382 -0.05147467 0.07387474
vn 0.9959325 -0.05093715 -0.07432301
vn -0 0.00015576361 1
vn -0 0.00015576361 1
vn -0 0.00015576361 1
vn -0 0.00015576361 1
vn 0.13928677 -0.070203304 -0.9877604
vn 0.44745308 0.63742745 -0.62727356
vn 0.09860772 0.67798537 -0.7284314
vn 0.57830715 -0.07122037 -0.8127044
vn 0.69920653 0.65990037 -0.2750304
vn 0.5204243 -0.42926744 -0.73816526
vn 0.12512429 -0.4591503 -0.8795026
vn 0.92712104 -0.058079425 -0.37023416
vn 0.7211688 0.6906667 -0.05380663
vn 0.9959325 -0.05093715 -0.07432301
vn 0.9277111 -0.36716598 -0.06738948
vn 0.85558903 -0.3793232 -0.35225174
vn 0.2786612 -0.888918 -0.36355558
vn 0.054613955 -0.9268285 -0.37149197
vn 0.44905865 -0.8779552 -0.16595486
vn 0.45330432 -0.890743 -0.033044774
vn -0.09208607 -0.4713635 -0.87711835
vn -0.23070915 -0.91782254 -0.32307124
vn -0.047795635 -0.9280593 -0.369353
vn -0.48247465 -0.44826075 -0.75251603
vn -0.09585442 -0.066825666 -0.9931497
vn -0.42929128 -0.89138335 -0.14541224
vn -0.5406656 -0.06254652 -0.8389092
vn -0.06927329 0.68612397 -0.72417897
vn -0.42769673 0.6285164 -0.6496482
vn -0.93574554 -0.046625935 -0.3495803
vn -0.7076372 0.65981007 -0.25278512
vn -0.8503322 -0.40438366 -0.33676258
vn -0.99849045 -0.027457772 -0.047570273
vn -0.77745914 0.6278335 -0.037178908
vn -0.92700446 -0.37236935 -0.044764277
vn -0.43700668 -0.8991809 -0.022335745
vn 0.12512429 -0.4591503 -0.8795026
vn -0.047795635 -0.9280593 -0.369353
vn 0.054613955 -0.9268285 -0.37149197
vn -0.09208607 -0.4713635 -0.87711835
vn -0.09585442 -0.066825666 -0.9931497
vn 0.13928677 -0.070203304 -0.9877604
vn -0.105457865 -0.4056393 0.9079291
vn -0.11604841 -0.06483226 0.9911254
vn 0.13798387 -0.06851389 0.9880619
vn 0.12684609 -0.39994118 0.90772074
vn 0.06399894 -0.8960875 0.43923932
vn -0.054418173 -0.89894664 0.43466496
vn -0.92700446 -0.37236935 -0.044764277
vn -0.43921092 -0.89811724 0.021891804
vn -0.43700668 -0.8991809 -0.022335745
vn -0.9292367 -0.36613482 0.049643617
vn -0.99806315 -0.02919537 0.054931343
vn -0.99849045 -0.027457772 -0.047570273
vn -0.9292367 -0.36613482 0.049643617
vn -0.45824564 -0.8773818 0.14216937
vn -0.43921092 -0.89811724 0.021891804
vn -0.8719792 -0.3610118 0.33063987
vn -0.935818 -0.04496152 0.34960428
vn -0.99806315 -0.02919537 0.054931343
vn -0.7888547 0.61316377 0.041693915
vn -0.70791835 0.65525347 0.26361808
vn -0.5581596 -0.057136882 0.82776403
vn -0.43566862 0.6352208 0.6377205
vn -0.52323866 -0.3863203 0.7595907
vn -0.2998932 -0.8717819 0.38737628
vn -0.105457865 -0.4056393 0.9079291
vn -0.054418173 -0.89894664 0.43466496
vn -0.11604841 -0.06483226 0.9911254
vn -0.08589781 0.6816562 0.72661304
vn -0 8.389498E-05 1
vn -0 8.389498E-05 1
vn -0 8.389498E-05 1
vn -0 8.389498E-05 1
vn -0 8.510815E-05 1
vn -0 8.510815E-05 1
vn -0 8.510815E-05 1
vn -0 8.510815E-05 1
vn 1 0 0
vn 1 0 0
vn 1 0 0
vn 1 0 0
vn -0 -0.00021347862 -1
vn -0 -0.00021347862 -1
vn -0 -0.00021347862 -1
vn -0 -0.00021347862 -1
vn 0.74042964 -0.65663856 -0.14349143
vn 0.5145355 -0.5883013 -0.62382275
vn -0.5150344 -0.58802277 -0.62367374
vn -0.7375773 -0.6601566 -0.1420311
vn -0 -1 0
vn 0.054613955 -0.9268285 -0.37149197
vn -0.047795635 -0.9280593 -0.369353
vn 0.2786612 -0.888918 -0.36355558
vn -0.23070915 -0.91782254 -0.32307124
vn 0.44905865 -0.8779552 -0.16595486
vn -0.42929128 -0.89138335 -0.14541224
vn 0.45330432 -0.890743 -0.033044774
vn -0.43700668 -0.8991809 -0.022335745
vn 0.45334256 -0.8908767 0.028624058
vn -0.43921092 -0.89811724 0.021891804
vn 0.46868464 -0.8711945 0.14613329
vn -0.45824564 -0.8773818 0.14216937
vn 0.31788912 -0.8577896 0.40391022
vn -0.2998932 -0.8717819 0.38737628
vn 0.06399894 -0.8960875 0.43923932
vn -0.054418173 -0.89894664 0.43466496
vn -0.51503825 -0.58801687 -0.62367594
vn -0.5150366 0.5880206 -0.6236739
vn -0.7375788 0.6601556 -0.14202845
vn -0.7375715 -0.66016406 -0.14202704
vn 0.5237499 0.58649266 -0.6178287
vn 0.73498124 -0.6670276 -0.121969745
vn 0.52374834 -0.5864958 -0.61782694
vn 0.73497516 0.66703457 -0.12196873
vn -0.5150369 -0.5880172 -0.6236768
vn -0.5150344 -0.58802277 -0.62367374
vn -0.7375773 -0.6601566 -0.1420311
vn -0.73537266 -0.6627025 -0.14160657
vn 0.5145355 -0.5883013 -0.62382275
vn 0.5146792 -0.58799064 -0.623997
vn 0.73701334 -0.66061425 -0.14282936
vn 0.74042964 -0.65663856 -0.14349143
vn -0.42140526 0.8968722 -0.13430513
vn 0.59974504 0.5840414 -0.5469932
vn 0.39834085 0.9071228 -0.13584079
vn 0.93443185 0.33747223 -0.11379587
vn 0.92903364 -0.34563744 -0.13202707
vn -0.5305279 0.64898026 -0.5453115
vn -0.9124251 0.39640936 -0.101686165
vn -0.904726 0.41120687 -0.11126401
vn -0.4495584 0.48857388 -0.74779195
vn -0.39316204 0.9094148 -0.13560365
vn 0.69250214 -0.13056642 -0.70950204
vn 0.60817873 -0.77986294 -0.14809582
vn 0.45403668 -0.42439297 -0.7834164
vn 0.21467036 -0.9633306 -0.16096784
vn -0.14624934 0.63031906 -0.7624363
vn 0.39315158 0.90941846 -0.13560876
vn 0.16348276 -0.5771356 -0.80011743
vn -0.21466888 -0.9633305 -0.16097046
vn 0.14625809 0.6303152 -0.76243776
vn -0.16348119 -0.5771364 -0.80011714
vn -0.4540365 -0.42438093 -0.7834231
vn -0.6081853 -0.7798571 -0.14809987
vn 0.44959056 0.4887171 -0.74767905
vn 0.90456194 0.41157323 -0.11124379
vn -0.6924713 -0.13039443 -0.70956385
vn -0.9290951 -0.34529662 -0.13248655
vn 0.5303321 0.649137 -0.54531556
vn 0.91243887 0.39637917 -0.10168018
vn 0.42166045 0.8967306 -0.13445
vn -0.59915036 0.5843176 -0.54734993
vn -0.93427587 0.3375055 -0.114972584
vn -0.3987325 0.90682703 -0.13666458
vn 0.2895099 -0.91724336 -0.27358463
vn -0.59409654 -0.4807057 -0.6449584
vn -0.6319326 -0.7426972 -0.22149968
vn -0.65353435 0.73951834 -0.1612622
vn 0.46656188 -0.50294274 -0.7275772
vn 0.8581294 -0.38478428 -0.33993387
vn 0.8364847 0.43645635 -0.3313597
vn 0.462019 0.52897906 -0.7118424
vn 0.2359274 0.94946504 -0.20701303
vn -0.5895325 0.50666213 -0.62908256
vn -0.4637012 -0.5034538 -0.7290511
vn -0.85446745 -0.3871638 -0.34639508
vn -0.28489253 -0.91857016 -0.27398014
vn -0.833132 0.43797126 -0.3377458
vn 0.5940984 -0.48070416 -0.6449579
vn 0.6319343 -0.7426956 -0.22149998
vn 0.6535326 0.73952 -0.16126156
vn -0.45916024 0.5294952 -0.71330696
vn -0.23158813 0.95048434 -0.20723504
vn 0.5895309 0.50666374 -0.6290829
vn 0.57734615 0.5774644 0.5772403
vn 0.5773544 0.5772361 -0.57746035
vn 0.30156246 0.9044969 -0.30157164
vn -0.30155972 0.90449727 -0.30157313
vn 0.30139077 0.9045799 0.30149427
vn -0.5773544 0.5772361 -0.5774603
vn -0.30137548 0.904588 0.3014854
vn -0.57734615 0.5774644 0.57724035
g briefcase.001_0
f 3/3/3 2/2/2 1/1/1
f 6/6/6 5/5/5 4/4/4
f 7/7/7 6/6/6 4/4/4
f 4/4/4 8/8/8 7/7/7
f 6/6/6 7/7/7 9/9/9
f 10/10/10 6/6/6 9/9/9
f 8/8/8 11/11/11 7/7/7
f 7/7/7 11/11/11 9/9/9
f 8/8/8 12/12/12 11/11/11
f 12/12/12 13/13/13 11/11/11
f 11/11/11 13/13/13 14/14/14
f 10/10/10 9/9/9 15/15/15
f 16/16/16 10/10/10 15/15/15
f 15/15/15 9/9/9 17/17/17
f 18/18/18 17/17/17 14/14/14
f 11/11/11 19/19/19 9/9/9
f 19/19/19 11/11/11 14/14/14
f 17/17/17 19/19/19 14/14/14
f 9/9/9 19/19/19 17/17/17
f 22/22/22 21/21/21 20/20/20
f 20/20/20 23/23/23 22/22/22
f 23/23/23 20/20/20 24/24/24
f 24/24/24 25/25/25 23/23/23
f 28/28/28 27/27/27 26/26/26
f 29/29/29 28/28/28 26/26/26
f 30/30/30 29/29/29 26/26/26
f 30/30/30 31/31/31 29/29/29
f 30/30/30 32/32/32 31/31/31
f 34/34/34 30/30/30 33/33/33
f 33/33/33 35/35/35 34/34/34
f 36/36/36 35/35/35 33/33/33
f 37/37/37 36/36/36 33/33/33
f 37/37/37 33/33/33 38/38/38
f 39/39/39 37/37/37 38/38/38
f 40/40/40 39/39/39 38/38/38
f 41/41/41 40/40/40 38/38/38
f 38/38/38 42/42/42 41/41/41
f 42/42/42 38/38/38 26/26/26
f 42/42/42 43/43/43 41/41/41
f 44/44/44 42/42/42 26/26/26
f 26/26/26 45/45/45 44/44/44
f 45/45/45 46/46/46 44/44/44
f 49/49/49 48/48/48 47/47/47
f 50/50/50 47/47/47 48/48/48
f 53/53/53 52/52/52 51/51/51
f 54/54/54 53/53/53 51/51/51
f 57/57/57 56/56/56 55/55/55
f 56/56/56 58/58/58 55/55/55
f 58/58/58 56/56/56 59/59/59
f 56/56/56 60/60/60 59/59/59
f 63/63/63 62/62/62 61/61/61
f 64/64/64 63/63/63 61/61/61
f 67/67/67 66/66/66 65/65/65
f 66/66/66 68/68/68 65/65/65
f 68/68/68 66/66/66 69/69/69
f 65/65/65 68/68/68 70/70/70
f 71/71/71 65/65/65 70/70/70
f 72/72/72 68/68/68 69/69/69
f 72/72/72 69/69/69 73/73/73
f 74/74/74 72/72/72 73/73/73
f 74/74/74 75/75/75 72/72/72
f 72/72/72 76/76/76 68/68/68
f 76/76/76 70/70/70 68/68/68
f 75/75/75 76/76/76 72/72/72
f 71/71/71 70/70/70 77/77/77
f 70/70/70 76/76/76 77/77/77
f 78/78/78 71/71/71 77/77/77
f 76/76/76 79/79/79 77/77/77
f 79/79/79 76/76/76 75/75/75
f 80/80/80 79/79/79 75/75/75
f 83/83/83 82/82/82 81/81/81
f 82/82/82 84/84/84 81/81/81
f 81/81/81 84/84/84 85/85/85
f 82/82/82 86/86/86 84/84/84
f 84/84/84 87/87/87 85/85/85
f 88/88/88 85/85/85 87/87/87
f 89/89/89 88/88/88 87/87/87
f 89/89/89 87/87/87 90/90/90
f 90/90/90 87/87/87 84/84/84
f 91/91/91 89/89/89 90/90/90
f 86/86/86 92/92/92 84/84/84
f 92/92/92 90/90/90 84/84/84
f 91/91/91 90/90/90 93/93/93
f 93/93/93 90/90/90 92/92/92
f 94/94/94 91/91/91 93/93/93
f 95/95/95 93/93/93 92/92/92
f 95/95/95 92/92/92 86/86/86
f 96/96/96 95/95/95 86/86/86
f 99/99/99 98/98/98 97/97/97
f 98/98/98 100/100/100 97/97/97
f 100/100/100 101/101/101 97/97/97
f 101/101/101 102/102/102 97/97/97
f 105/105/105 104/104/104 103/103/103
f 106/106/106 105/105/105 103/103/103
f 107/107/107 106/106/106 103/103/103
f 108/108/108 107/107/107 103/103/103
f 111/111/111 110/110/110 109/109/109
f 110/110/110 112/112/112 109/109/109
f 112/112/112 113/113/113 109/109/109
f 113/113/113 114/114/114 109/109/109
f 117/117/117 116/116/116 115/115/115
f 116/116/116 118/118/118 115/115/115
f 115/115/115 118/118/118 119/119/119
f 120/120/120 115/115/115 119/119/119
f 120/120/120 119/119/119 121/121/121
f 119/119/119 122/122/122 121/121/121
f 119/119/119 123/123/123 122/122/122
f 119/119/119 118/118/118 123/123/123
f 123/123/123 124/124/124 122/122/122
f 125/125/125 118/118/118 116/116/116
f 118/118/118 125/125/125 123/123/123
f 126/126/126 125/125/125 116/116/116
f 127/127/127 125/125/125 126/126/126
f 125/125/125 127/127/127 123/123/123
f 128/128/128 127/127/127 126/126/126
f 127/127/127 129/129/129 123/123/123
f 124/124/124 123/123/123 129/129/129
f 130/130/130 124/124/124 129/129/129
f 133/133/133 132/132/132 131/131/131
f 134/134/134 133/133/133 131/131/131
f 137/137/137 136/136/136 135/135/135
f 138/138/138 137/137/137 135/135/135
f 141/141/141 140/140/140 139/139/139
f 142/142/142 141/141/141 139/139/139
f 145/145/145 144/144/144 143/143/143
f 146/146/146 145/145/145 143/143/143
f 149/149/149 148/148/148 147/147/147
f 150/150/150 149/149/149 147/147/147
f 153/153/153 152/152/152 151/151/151
f 152/152/152 154/154/154 151/151/151
f 155/155/155 153/153/153 151/151/151
f 154/154/154 156/156/156 151/151/151
f 157/157/157 155/155/155 151/151/151
f 156/156/156 158/158/158 151/151/151
f 159/159/159 157/157/157 151/151/151
f 158/158/158 160/160/160 151/151/151
f 161/161/161 159/159/159 151/151/151
f 160/160/160 162/162/162 151/151/151
f 163/163/163 161/161/161 151/151/151
f 162/162/162 164/164/164 151/151/151
f 165/165/165 163/163/163 151/151/151
f 164/164/164 166/166/166 151/151/151
f 167/167/167 165/165/165 151/151/151
f 166/166/166 167/167/167 151/151/151
f 170/170/170 169/169/169 168/168/168
f 171/171/171 170/170/170 168/168/168
f 168/168/168 169/169/169 172/172/172
f 171/171/171 168/168/168 173/173/173
f 174/174/174 168/168/168 172/172/172
f 168/168/168 174/174/174 173/173/173
f 174/174/174 172/172/172 175/175/175
f 173/173/173 174/174/174 175/175/175
f 178/178/178 177/177/177 176/176/176
f 179/179/179 178/178/178 176/176/176
f 176/176/176 177/177/177 180/180/180
f 179/179/179 176/176/176 181/181/181
f 181/181/181 176/176/176 180/180/180
f 182/182/182 179/179/179 181/181/181
f 181/181/181 180/180/180 183/183/183
f 182/182/182 181/181/181 183/183/183
f 186/186/186 185/185/185 184/184/184
f 185/185/185 186/186/186 187/187/187
f 187/187/187 188/188/188 185/185/185
f 185/185/185 189/189/189 184/184/184
f 184/184/184 189/189/189 190/190/190
f 190/190/190 189/189/189 191/191/191
f 189/189/189 192/192/192 191/191/191
f 189/189/189 185/185/185 192/192/192
f 191/191/191 192/192/192 193/193/193
f 188/188/188 194/194/194 185/185/185
f 185/185/185 194/194/194 192/192/192
f 194/194/194 188/188/188 195/195/195
f 196/196/196 194/194/194 195/195/195
f 192/192/192 194/194/194 196/196/196
f 196/196/196 195/195/195 197/197/197
f 192/192/192 198/198/198 193/193/193
f 198/198/198 192/192/192 196/196/196
f 193/193/193 198/198/198 199/199/199
f 200/200/200 196/196/196 197/197/197
f 200/200/200 198/198/198 196/196/196
f 197/197/197 201/201/201 200/200/200
f 198/198/198 202/202/202 199/199/199
f 198/198/198 200/200/200 202/202/202
f 201/201/201 203/203/203 200/200/200
f 200/200/200 203/203/203 202/202/202
f 203/203/203 201/201/201 204/204/204
f 204/204/204 202/202/202 203/203/203
f 201/201/201 205/205/205 204/204/204
f 199/199/199 202/202/202 206/206/206
f 206/206/206 202/202/202 204/204/204
f 207/207/207 199/199/199 206/206/206
f 204/204/204 205/205/205 208/208/208
f 208/208/208 206/206/206 204/204/204
f 205/205/205 209/209/209 208/208/208
f 207/207/207 206/206/206 210/210/210
f 210/210/210 206/206/206 208/208/208
f 211/211/211 207/207/207 210/210/210
f 212/212/212 211/211/211 210/210/210
f 213/213/213 208/208/208 209/209/209
f 213/213/213 210/210/210 208/208/208
f 212/212/212 210/210/210 213/213/213
f 214/214/214 213/213/213 209/209/209
f 215/215/215 212/212/212 213/213/213
f 214/214/214 215/215/215 213/213/213
f 218/218/218 217/217/217 216/216/216
f 218/218/218 219/219/219 217/217/217
f 217/217/217 220/220/220 216/216/216
f 221/221/221 216/216/216 220/220/220
f 221/221/221 220/220/220 222/222/222
f 220/220/220 223/223/223 222/222/222
f 220/220/220 217/217/217 223/223/223
f 224/224/224 222/222/222 223/223/223
f 219/219/219 224/224/224 223/223/223
f 217/217/217 225/225/225 223/223/223
f 225/225/225 219/219/219 223/223/223
f 219/219/219 225/225/225 217/217/217
f 228/228/228 227/227/227 226/226/226
f 227/227/227 229/229/229 226/226/226
f 228/228/228 226/226/226 230/230/230
f 231/231/231 228/228/228 230/230/230
f 231/231/231 230/230/230 232/232/232
f 229/229/229 233/233/233 226/226/226
f 226/226/226 233/233/233 230/230/230
f 229/229/229 234/234/234 233/233/233
f 233/233/233 234/234/234 232/232/232
f 233/233/233 235/235/235 230/230/230
f 235/235/235 233/233/233 232/232/232
f 230/230/230 235/235/235 232/232/232
f 238/238/238 237/237/237 236/236/236
f 238/238/238 239/239/239 237/237/237
f 240/240/240 238/238/238 236/236/236
f 239/239/239 241/241/241 237/237/237
f 237/237/237 241/241/241 236/236/236
f 239/239/239 242/242/242 241/241/241
f 240/240/240 236/236/236 243/243/243
f 241/241/241 243/243/243 236/236/236
f 242/242/242 243/243/243 241/241/241
f 242/242/242 240/240/240 243/243/243
