g briefcase_Top.001
v -1.7165966 -2.4554984E-06 -2.7049675
v -1.6113489 -9.59639E-07 -2.7253246
v -1.6113489 0.21255165 -2.7251997
v -1.7165966 0.21254985 -2.704895
v -1.7856443 0.21252288 -2.5985336
v -1.7856443 -9.358058E-07 -2.5985336
v -1.7110648 0.32500312 -2.687417
v -1.6113489 0.32500315 -2.7077398
v -1.8000085 0.21248683 -2.4532738
v -1.8000335 -9.1715805E-07 -2.4533634
v -1.789714 0.32500657 -2.4532738
v -1.7753502 0.32500312 -2.5898933
v -1.7159412 0.4023366 -2.5473232
v -1.7257186 0.40233657 -2.4532375
v -1.6113489 0.42121848 -2.4530754
v -1.6740713 0.4023346 -2.5974712
v -1.6113489 0.40232757 -2.6172895
v -1.575917 0.37384447 -0.32976615
v -1.6113608 0.42071113 -0.27202785
v -1.6113489 0.42121848 -2.4530754
v -1.5759175 0.37434825 -2.3952951
v -1.800033 -1.0575201E-06 -0.26572227
v -1.8000335 -9.1715805E-07 -2.4533634
v -1.8000085 0.21248683 -2.4532738
v -1.800033 0.21198131 -0.26564878
v 1.8023388 0.21198131 -0.26564878
v 1.7889321 0.32500657 -2.4532738
v 1.8023384 0.21248683 -2.4532738
v 1.7888948 0.32500514 -0.26563826
v 1.728024 0.40232763 -0.26562107
v 1.7280236 0.40232763 -2.4532375
v 1.6107686 0.42071113 -0.27202785
v 1.6107553 0.42121848 -2.4530754
v 1.6107553 0.40233663 -2.6172895
v -1.6113489 0.42121848 -2.4530754
v -1.6113489 0.40232757 -2.6172895
v 1.6107553 0.32500315 -2.7077398
v -1.6113489 0.32500315 -2.7077398
v -1.6113489 0.21255165 -2.7251997
v 1.6107553 0.21255165 -2.7251997
v -1.7257186 0.40233657 -2.4532375
v -1.6113608 0.42071113 -0.27202785
v -1.6107557 0.4023277 -0.08592213
v -1.7257183 0.4023386 -0.26562107
v 1.6107557 0.4023277 -0.08592308
v -1.789714 0.32500657 -2.4532738
v -1.7897136 0.32500514 -0.2656373
v -1.800033 0.21198131 -0.26564878
v -1.8000085 0.21248683 -2.4532738
v -1.6107557 0.32500517 -0.017437844
v 1.6107557 0.32500517 -0.017438797
v 1.6107557 0.21192008 7.2539035E-05
v -1.6107557 0.21192008 7.2539035E-05
v -1.575917 0.37384447 -0.32976615
v 1.5753124 0.37384447 -0.32976615
v 1.6107686 0.42071113 -0.27202785
v -1.6113608 0.42071113 -0.27202785
v 1.5753119 0.37434825 -2.3952951
v 1.6107553 0.42121848 -2.4530754
v 1.6107686 0.42071113 -0.27202785
v 1.5753124 0.37384447 -0.32976615
v -1.575917 0.37384447 -0.32976615
v -1.5759175 0.37434825 -2.3952951
v 1.5753119 0.37434825 -2.3952951
v 1.5753124 0.37384447 -0.32976615
v 1.8023384 -9.1715805E-07 -2.4533634
v 1.8023388 -1.0575201E-06 -0.26572227
v 1.8023388 0.21198131 -0.26564878
v 1.8023384 0.21248683 -2.4532738
v 1.5753119 0.37434825 -2.3952951
v -1.5759175 0.37434825 -2.3952951
v -1.6113489 0.42121848 -2.4530754
v 1.6107553 0.42121848 -2.4530754
v -1.0522637 0.15339315 0.018920941
v -1.0522361 1.6981989E-05 0.018909454
v -1.4282852 1.6981989E-05 0.018909454
v -1.4282818 0.15339297 0.018922849
v 1.6107557 0 0
v -1.6107557 0 0
v -1.6107557 0.21192008 7.2539035E-05
v 1.6107557 0.21192008 7.2539035E-05
v -1.7125895 -1.2448064E-06 -0.024425507
v -1.6107557 0.21192008 7.2539035E-05
v -1.6107557 0 0
v -1.7125895 0.21192008 -0.024349153
v -1.7855937 -1.2151802E-06 -0.12943459
v -1.7064909 0.32500517 -0.040683653
v -1.6107557 0.32500517 -0.017437844
v -1.7855937 0.21194533 -0.12935919
v -1.800033 -1.0575201E-06 -0.26572227
v -1.800033 0.21198131 -0.26564878
v -1.7730564 0.3250052 -0.14030161
v -1.7897136 0.32500514 -0.2656373
v -1.7201238 0.40233868 -0.1712569
v -1.7257183 0.4023386 -0.26562107
v -1.6113608 0.42071113 -0.27202785
v -1.6819334 0.40233496 -0.103747256
v -1.6107557 0.4023277 -0.08592213
v 1.7094134 -2.0402213E-06 -2.6980371
v 1.6107553 0.21255165 -2.7251997
v 1.6107553 -1.6749098E-06 -2.7252712
v 1.7094134 0.21254985 -2.6980019
v 1.7813846 -9.3737015E-07 -2.592989
v 1.7014629 0.32500312 -2.677373
v 1.6107553 0.32500315 -2.7077398
v 1.7813846 0.21252652 -2.5929356
v 1.8023384 -9.1715805E-07 -2.4533634
v 1.8023384 0.21248683 -2.4532738
v 1.7889321 0.32500657 -2.4532738
v 1.7689357 0.32500482 -2.5849628
v 1.7161922 0.40233457 -2.5450926
v 1.7280236 0.40232763 -2.4532375
v 1.6107553 0.42121848 -2.4530754
v 1.6736674 0.4023383 -2.604743
v 1.6107553 0.40233663 -2.6172895
v -1.6113489 -9.59639E-07 -2.7253246
v 1.6107553 -1.6749098E-06 -2.7252712
v 1.6107553 0.21255165 -2.7251997
v -1.6113489 0.21255165 -2.7251997
v 1.3931336 0.14870936 0.018920941
v 1.3931655 1.6981989E-05 0.018909454
v 1.0259784 1.6981989E-05 0.018909454
v 1.0259795 0.14870936 0.018920941
v -1.6957575 -1.6613659E-06 -2.5672655
v -1.7856443 -9.358058E-07 -2.5985336
v -1.8000335 -9.1715805E-07 -2.4533634
v -1.7165966 -2.4554984E-06 -2.7049675
v -1.800033 -1.0575201E-06 -0.26572227
v -1.6113489 -9.59639E-07 -2.7253246
v -1.6957575 -1.2622227E-06 -0.13567813
v 1.7068292 -1.4566092E-06 -2.5672655
v -1.7855937 -1.2151802E-06 -0.12943459
v 1.6107553 -1.6749098E-06 -2.7252712
v -1.7125895 -1.2448064E-06 -0.024425507
v -1.6107557 0 0
v 1.6107557 0 0
v 1.7094134 -2.0402213E-06 -2.6980371
v 1.7813846 -9.3737015E-07 -2.592989
v 1.8023384 -9.1715805E-07 -2.4533634
v 1.7068292 -6.39351E-07 -0.13567811
v 1.7167219 -4.089339E-07 -0.029414177
v 1.8023388 -1.0575201E-06 -0.26572227
v 1.7807301 -8.0068077E-07 -0.11974716
v 1.7167219 0.2119201 -0.029327333
v 1.7167219 -4.089339E-07 -0.029414177
v 1.6107557 0 0
v 1.6107557 0.21192008 7.2539035E-05
v 1.6107557 0.32500517 -0.017438797
v 1.7807301 0.21194354 -0.11965078
v 1.7807301 -8.0068077E-07 -0.11974716
v 1.8023388 -1.0575201E-06 -0.26572227
v 1.8023388 0.21198131 -0.26564878
v 1.7676259 0.3250052 -0.1330699
v 1.7888948 0.32500514 -0.26563826
v 1.7059995 0.32500517 -0.049765494
v 1.6826389 0.4023277 -0.102270015
v 1.6107557 0.4023277 -0.08592308
v 1.6107686 0.42071113 -0.27202785
v 1.7212203 0.40232772 -0.17549884
v 1.728024 0.40232763 -0.26562107
v -1.6957575 -1.6613659E-06 -2.5672655
v 1.7068292 0.32167533 -2.5672655
v 1.7068292 -1.4566092E-06 -2.5672655
v -1.6957575 0.32167512 -2.5672655
v -1.6957575 -1.2622227E-06 -0.13567813
v -1.6957575 0.32167554 -0.1356782
v 1.7068292 -6.39351E-07 -0.13567811
v 1.7068292 0.32167616 -0.13567819
v 1.0745234 1.6677906E-05 -2.7060766
v 1.0859668 0.1453433 -2.7610369
v 1.075321 0.15341268 -2.7060766
v 1.1969402 0.23582374 -2.7060766
v 1.0852196 1.6693411E-05 -2.7610369
v 1.4437815 1.6677906E-05 -2.7060766
v 1.1969402 0.22535336 -2.7610369
v 1.4330891 1.6693411E-05 -2.7610369
v 1.328834 0.22535336 -2.7610369
v 1.32905 0.23582374 -2.7060766
v 1.4323432 0.1453433 -2.7610369
v 1.4429889 0.15341268 -2.7060766
v -1.0836567 0.1453433 -2.7610369
v -1.0722184 1.6677906E-05 -2.7060766
v -1.0730109 0.15341268 -2.7060766
v -1.1869504 0.23582374 -2.7060766
v -1.1871657 0.22535336 -2.7610369
v -1.0829108 1.6693411E-05 -2.7610369
v -1.3190601 0.23582374 -2.7060766
v -1.3190601 0.22535336 -2.7610369
v -1.441477 1.6677906E-05 -2.7060766
v -1.4307808 1.6693411E-05 -2.7610369
v -1.4300336 0.1453433 -2.7610369
v -1.4406792 0.15341268 -2.7060766
vt 0.77942944 0.030890703
vt 0.77942944 0.030890703
vt 0.77942944 0.030890703
vt 0.77942944 0.030890703
vt 0.77942944 0.030890703
vt 0.77942944 0.030890703
vt 0.77942944 0.030890703
vt 0.77942944 0.030890703
vt 0.77942944 0.030890703
vt 0.77942944 0.030890703
vt 0.77942944 0.030890703
vt 0.77942944 0.030890703
vt 0.77942944 0.030890703
vt 0.77942944 0.030890703
vt 0.77942944 0.030890703
vt 0.77942944 0.030890703
vt 0.77942944 0.030890703
vt 0.71790874 0.03146138
vt 0.71790874 0.03146138
vt 0.71790874 0.03146138
vt 0.71790874 0.03146138
vt 0.71790874 0.03146138
vt 0.71790874 0.03146138
vt 0.71790874 0.03146138
vt 0.71790874 0.03146138
vt 0.71790874 0.03146138
vt 0.71790874 0.03146138
vt 0.71790874 0.03146138
vt 0.71790874 0.03146138
vt 0.71790874 0.03146138
vt 0.71790874 0.03146138
vt 0.71790874 0.03146138
vt 0.71790874 0.03146138
vt 0.71790874 0.03146138
vt 0.71790874 0.03146138
vt 0.71790874 0.03146138
vt 0.71790874 0.03146138
vt 0.71790874 0.03146138
vt 0.71790874 0.03146138
vt 0.71790874 0.03146138
vt 0.71790874 0.03146138
vt 0.71790874 0.03146138
vt 0.71790874 0.03146138
vt 0.71790874 0.03146138
vt 0.71790874 0.03146138
vt 0.71790874 0.03146138
vt 0.71790874 0.03146138
vt 0.71790874 0.03146138
vt 0.71790874 0.03146138
vt 0.71790874 0.03146138
vt 0.71790874 0.03146138
vt 0.71790874 0.03146138
vt 0.71790874 0.03146138
vt 0.7255159 0.01929
vt 0.7255159 0.01929
vt 0.7255159 0.01929
vt 0.7255159 0.01929
vt 0.71790874 0.03146138
vt 0.71790874 0.03146138
vt 0.71790874 0.03146138
vt 0.71790874 0.03146138
vt 0.7255159 0.01929
vt 0.7255159 0.01929
vt 0.7255159 0.01929
vt 0.7255159 0.01929
vt 0.71790874 0.03146138
vt 0.71790874 0.03146138
vt 0.71790874 0.03146138
vt 0.71790874 0.03146138
vt 0.71790874 0.03146138
vt 0.71790874 0.03146138
vt 0.71790874 0.03146138
vt 0.71790874 0.03146138
vt 0.7635515 0.017768592
vt 0.7635515 0.017768592
vt 0.7635515 0.017768592
vt 0.7635515 0.017768592
vt 0.71790874 0.03146138
vt 0.71790874 0.03146138
vt 0.71790874 0.03146138
vt 0.71790874 0.03146138
vt 0.77942944 0.030890703
vt 0.77942944 0.030890703
vt 0.77942944 0.030890703
vt 0.77942944 0.030890703
vt 0.77942944 0.030890703
vt 0.77942944 0.030890703
vt 0.77942944 0.030890703
vt 0.77942944 0.030890703
vt 0.77942944 0.030890703
vt 0.77942944 0.030890703
vt 0.77942944 0.030890703
vt 0.77942944 0.030890703
vt 0.77942944 0.030890703
vt 0.77942944 0.030890703
vt 0.77942944 0.030890703
vt 0.77942944 0.030890703
vt 0.77942944 0.030890703
vt 0.77942944 0.030890703
vt 0.77942944 0.030890703
vt 0.77942944 0.030890703
vt 0.77942944 0.030890703
vt 0.77942944 0.030890703
vt 0.77942944 0.030890703
vt 0.77942944 0.030890703
vt 0.77942944 0.030890703
vt 0.77942944 0.030890703
vt 0.77942944 0.030890703
vt 0.77942944 0.030890703
vt 0.77942944 0.030890703
vt 0.77942944 0.030890703
vt 0.77942944 0.030890703
vt 0.77942944 0.030890703
vt 0.77942944 0.030890703
vt 0.77942944 0.030890703
vt 0.71790874 0.03146138
vt 0.71790874 0.03146138
vt 0.71790874 0.03146138
vt 0.71790874 0.03146138
vt 0.7635515 0.017768592
vt 0.7635515 0.017768592
vt 0.7635515 0.017768592
vt 0.7635515 0.017768592
vt 0.7212226 0.035507604
vt 0.7212226 0.035507604
vt 0.7212226 0.035507604
vt 0.7212226 0.035507604
vt 0.7212226 0.035507604
vt 0.7212226 0.035507604
vt 0.7212226 0.035507604
vt 0.7212226 0.035507604
vt 0.7212226 0.035507604
vt 0.7212226 0.035507604
vt 0.7212226 0.035507604
vt 0.7212226 0.035507604
vt 0.7212226 0.035507604
vt 0.7212226 0.035507604
vt 0.7212226 0.035507604
vt 0.7212226 0.035507604
vt 0.7212226 0.035507604
vt 0.7212226 0.035507604
vt 0.7212226 0.035507604
vt 0.7212226 0.035507604
vt 0.77942944 0.030890703
vt 0.77942944 0.030890703
vt 0.77942944 0.030890703
vt 0.77942944 0.030890703
vt 0.77942944 0.030890703
vt 0.77942944 0.030890703
vt 0.77942944 0.030890703
vt 0.77942944 0.030890703
vt 0.77942944 0.030890703
vt 0.77942944 0.030890703
vt 0.77942944 0.030890703
vt 0.77942944 0.030890703
vt 0.77942944 0.030890703
vt 0.77942944 0.030890703
vt 0.77942944 0.030890703
vt 0.77942944 0.030890703
vt 0.77942944 0.030890703
vt 0.8406369 0.028149784
vt 0.8406369 0.028149784
vt 0.8406369 0.028149784
vt 0.8406369 0.028149784
vt 0.8406369 0.028149784
vt 0.8406369 0.028149784
vt 0.8406369 0.028149784
vt 0.8406369 0.028149784
vt 0.7938024 0.041580662
vt 0.7938024 0.041580662
vt 0.7938024 0.041580662
vt 0.7938024 0.041580662
vt 0.7938024 0.041580662
vt 0.7938024 0.041580662
vt 0.7938024 0.041580662
vt 0.7938024 0.041580662
vt 0.7938024 0.041580662
vt 0.7938024 0.041580662
vt 0.7938024 0.041580662
vt 0.7938024 0.041580662
vt 0.7938024 0.041580662
vt 0.7938024 0.041580662
vt 0.7938024 0.041580662
vt 0.7938024 0.041580662
vt 0.7938024 0.041580662
vt 0.7938024 0.041580662
vt 0.7938024 0.041580662
vt 0.7938024 0.041580662
vt 0.7938024 0.041580662
vt 0.7938024 0.041580662
vt 0.7938024 0.041580662
vt 0.7938024 0.041580662
vn -0.43458897 -0.6286126 -0.64496416
vn -0.06930005 -0.68608254 -0.7242155
vn -0.09571429 0.07762781 -0.9923773
vn -0.553284 0.07420974 -0.82968044
vn -0.9407272 0.055419605 -0.33460605
vn -0.7109545 -0.6575969 -0.24921897
vn -0.4972273 0.45395344 -0.7393858
vn -0.09157638 0.48169196 -0.8715426
vn -0.99767345 0.04645315 -0.049898215
vn -0.7170386 -0.69613296 -0.035418846
vn -0.9244537 0.37836426 -0.047179483
vn -0.8572924 0.4052252 -0.31755683
vn -0.478396 0.86125284 -0.17140798
vn -0.50613123 0.86204225 -0.026725626
vn 0.033928797 0.9968064 0.07229067
vn -0.26416233 0.8949502 -0.35955867
vn -0.054493535 0.9077571 -0.41594175
vn 0.79765546 0.6031135 0.00014576453
vn 0.79765546 0.6031135 0.00014576453
vn 0.79765546 0.6031135 0.00014576453
vn 0.79765546 0.6031135 0.00014576453
vn -1 5.86982E-05 0
vn -1 5.86982E-05 0
vn -1 5.86982E-05 0
vn -1 5.86982E-05 0
vn 0.995374 0.06067382 0.07449389
vn 0.924304 0.37569982 -0.067169555
vn 0.9954815 0.05918756 -0.07425165
vn 0.9263622 0.37095937 0.06513187
vn 0.5196553 0.8537974 0.031437628
vn 0.51896787 0.85399574 -0.03692752
vn -0.0360068 0.9961669 -0.07971841
vn -0.035625488 0.99674726 0.07228959
vn 0.05868711 0.90564007 -0.41996664
vn 0.033928797 0.9968064 0.07229067
vn -0.054493535 0.9077571 -0.41594175
vn 0.124467656 0.47012663 -0.8737784
vn -0.09157638 0.48169196 -0.8715426
vn -0.09571429 0.07762781 -0.9923773
vn 0.13899936 0.08147617 -0.98693514
vn -0.50613123 0.86204225 -0.026725626
vn 0.034382764 0.99619555 -0.08007637
vn -0.06002326 0.8780953 0.47470596
vn -0.50819165 0.86089516 0.024510385
vn 0.07087891 0.87419707 0.48037043
vn -0.9244537 0.37836426 -0.047179483
vn -0.9262735 0.37335983 0.05118441
vn -0.9972324 0.049188506 0.05575071
vn -0.99767345 0.04645315 -0.049898215
vn -0.10680363 0.41607088 0.9030382
vn 0.13088255 0.41104636 0.90216994
vn 0.13996954 0.08150672 0.9867954
vn -0.11675948 0.07592321 0.990254
vn -0 0.77641493 -0.6302221
vn -0 0.77641493 -0.6302221
vn -0 0.77641493 -0.6302221
vn -0 0.77641493 -0.6302221
vn -0.7975554 0.6032457 0.00014626078
vn -0.7975554 0.6032457 0.00014626078
vn -0.7975554 0.6032457 0.00014626078
vn -0.7975554 0.6032457 0.00014626078
vn -0 1 0.00024389804
vn -0 1 0.00024389804
vn -0 1 0.00024389804
vn -0 1 0.00024389804
vn 1 0 0
vn 1 0 0
vn 1 0 0
vn 1 0 0
vn -0 0.776615 0.62997544
vn -0 0.776615 0.62997544
vn -0 0.776615 0.62997544
vn -0 0.776615 0.62997544
vn -0 -8.110279E-05 1
vn -0 -8.110279E-05 1
vn -0 -8.110279E-05 1
vn -0 -8.110279E-05 1
vn -0 -0.00034229428 1
vn -0 -0.00034229428 1
vn -0 -0.00034229428 1
vn -0 -0.00034229428 1
vn -0.43571106 -0.6351894 0.6377228
vn -0.11675948 0.07592321 0.990254
vn -0.08590808 -0.68172777 0.7265446
vn -0.5612323 0.07506908 0.8242469
vn -0.7078868 -0.6552923 0.26360658
vn -0.5215562 0.3988849 0.7542346
vn -0.10680363 0.41607088 0.9030382
vn -0.9336952 0.061551146 0.35273886
vn -0.7176051 -0.6954184 0.03789689
vn -0.9972324 0.049188506 0.05575071
vn -0.8728739 0.36984062 0.318291
vn -0.9262735 0.37335983 0.05118441
vn -0.50988024 0.84401494 0.16631566
vn -0.50819165 0.86089516 0.024510385
vn 0.034382764 0.99619555 -0.08007637
vn -0.3300199 0.84703 0.41668573
vn -0.06002326 0.8780953 0.47470596
vn 0.4475175 -0.63733006 -0.62732637
vn 0.13899936 0.08147617 -0.98693514
vn 0.098632336 -0.67796594 -0.72844625
vn 0.5773038 0.08250208 -0.8123508
vn 0.6991345 -0.65996855 -0.2750501
vn 0.5180166 0.44052237 -0.73321134
vn 0.124467656 0.47012663 -0.8737784
vn 0.9265095 0.067432635 -0.37017956
vn 0.72111124 -0.690726 -0.053815585
vn 0.9954815 0.05918756 -0.07425165
vn 0.924304 0.37569982 -0.067169555
vn 0.8519971 0.3889507 -0.3504546
vn 0.49518606 0.84833884 -0.18738158
vn 0.51896787 0.85399574 -0.03692752
vn -0.035625488 0.99674726 0.07228959
vn 0.29759875 0.8681569 -0.3971632
vn 0.05868711 0.90564007 -0.41996664
vn -0 0.00046230794 -0.9999999
vn -0 0.00046230794 -0.9999999
vn -0 0.00046230794 -0.9999999
vn -0 0.00046230794 -0.9999999
vn -0 -7.7258446E-05 1
vn -0 -7.7258446E-05 1
vn -0 -7.7258446E-05 1
vn -0 -7.7258446E-05 1
vn 0.30150864 -0.90453446 0.301513
vn -0.7109545 -0.6575969 -0.24921897
vn -0.7170386 -0.69613296 -0.035418846
vn -0.43458897 -0.6286126 -0.64496416
vn -0.7176051 -0.6954184 0.03789689
vn -0.06930005 -0.68608254 -0.7242155
vn 0.3015121 -0.9045342 -0.3015099
vn -0.3015084 -0.9045345 0.30151263
vn -0.7078868 -0.6552923 0.26360658
vn 0.098632336 -0.67796594 -0.72844625
vn -0.43571106 -0.6351894 0.6377228
vn -0.08590808 -0.68172777 0.7265446
vn 0.09917976 -0.6780792 0.7282664
vn 0.4475175 -0.63733006 -0.62732637
vn 0.6991345 -0.65996855 -0.2750501
vn 0.72111124 -0.690726 -0.053815585
vn -0.30151296 -0.90453434 -0.30150896
vn 0.4422633 -0.6389967 0.62935406
vn 0.72094285 -0.6909606 0.05305547
vn 0.69853723 -0.65836924 0.28034887
vn 0.5738744 0.08872013 0.8141234
vn 0.4422633 -0.6389967 0.62935406
vn 0.09917976 -0.6780792 0.7282664
vn 0.13996954 0.08150672 0.9867954
vn 0.13088255 0.41104636 0.90216994
vn 0.92220426 0.07554578 0.379252
vn 0.69853723 -0.65836924 0.28034887
vn 0.72094285 -0.6909606 0.05305547
vn 0.995374 0.06067382 0.07449389
vn 0.8627389 0.36989322 0.34476158
vn 0.9263622 0.37095937 0.06513187
vn 0.5346644 0.39986992 0.7444716
vn 0.3443398 0.83277565 0.43349144
vn 0.07087891 0.87419707 0.48037043
vn -0.0360068 0.9961669 -0.07971841
vn 0.51924694 0.83797634 0.16786404
vn 0.5196553 0.8537974 0.031437628
vn 0.30150864 -0.90453446 0.301513
vn -0.57735026 -0.57735026 0.5773503
vn -0.3015084 -0.9045345 0.30151263
vn 0.5773503 -0.5773502 0.5773504
vn 0.3015121 -0.9045342 -0.3015099
vn 0.57735026 -0.5773504 -0.57735014
vn -0.30151296 -0.90453434 -0.30150896
vn -0.5773502 -0.5773505 -0.5773502
vn -0.6367945 -0.5664236 0.5231223
vn -0.6388272 0.32608423 -0.69682765
vn -0.7433741 0.40127334 0.53513986
vn -0.23794885 0.7864478 0.5699825
vn -0.51595336 -0.58691573 -0.6239568
vn 0.6367722 -0.56643844 0.5231335
vn -0.21625705 0.66296846 -0.7167327
vn 0.51596415 -0.58691275 -0.6239507
vn 0.22783443 0.6616024 -0.7144045
vn 0.25085402 0.7847987 0.5667127
vn 0.64242905 0.3144862 -0.6988443
vn 0.74789876 0.38903743 0.5378637
vn 0.6424287 0.3144871 -0.69884425
vn 0.6367724 -0.5664383 0.5231334
vn 0.7478983 0.38903797 0.53786397
vn 0.25085136 0.7847995 0.5667128
vn 0.2278352 0.66160244 -0.7144042
vn 0.5159638 -0.5869129 -0.62395084
vn -0.23794872 0.78644854 0.56998163
vn -0.21625681 0.66296786 -0.71673334
vn -0.63679504 -0.5664232 0.52312225
vn -0.5159534 -0.5869155 -0.6239569
vn -0.63882685 0.32608408 -0.6968281
vn -0.7433742 0.4012736 0.5351394
g briefcase_Top.001_0
f 3/3/3 2/2/2 1/1/1
f 4/4/4 3/3/3 1/1/1
f 5/5/5 4/4/4 1/1/1
f 6/6/6 5/5/5 1/1/1
f 3/3/3 4/4/4 7/7/7
f 7/7/7 4/4/4 5/5/5
f 8/8/8 3/3/3 7/7/7
f 9/9/9 5/5/5 6/6/6
f 10/10/10 9/9/9 6/6/6
f 5/5/5 9/9/9 11/11/11
f 12/12/12 5/5/5 11/11/11
f 12/12/12 7/7/7 5/5/5
f 13/13/13 12/12/12 11/11/11
f 12/12/12 13/13/13 7/7/7
f 14/14/14 13/13/13 11/11/11
f 14/14/14 15/15/15 13/13/13
f 8/8/8 7/7/7 16/16/16
f 13/13/13 16/16/16 7/7/7
f 13/13/13 15/15/15 16/16/16
f 17/17/17 8/8/8 16/16/16
f 15/15/15 17/17/17 16/16/16
f 20/20/20 19/19/19 18/18/18
f 21/21/21 20/20/20 18/18/18
f 24/24/24 23/23/23 22/22/22
f 25/25/25 24/24/24 22/22/22
f 28/28/28 27/27/27 26/26/26
f 27/27/27 29/29/29 26/26/26
f 29/29/29 27/27/27 30/30/30
f 27/27/27 31/31/31 30/30/30
f 30/30/30 31/31/31 32/32/32
f 31/31/31 33/33/33 32/32/32
f 35/35/35 33/33/33 34/34/34
f 36/36/36 35/35/35 34/34/34
f 36/36/36 34/34/34 37/37/37
f 38/38/38 36/36/36 37/37/37
f 39/39/39 38/38/38 37/37/37
f 40/40/40 39/39/39 37/37/37
f 42/42/42 35/35/35 41/41/41
f 32/32/32 42/42/42 43/43/43
f 44/44/44 42/42/42 41/41/41
f 45/45/45 32/32/32 43/43/43
f 44/44/44 41/41/41 46/46/46
f 47/47/47 44/44/44 46/46/46
f 48/48/48 47/47/47 46/46/46
f 49/49/49 48/48/48 46/46/46
f 45/45/45 43/43/43 50/50/50
f 51/51/51 45/45/45 50/50/50
f 52/52/52 51/51/51 50/50/50
f 53/53/53 52/52/52 50/50/50
f 56/56/56 55/55/55 54/54/54
f 57/57/57 56/56/56 54/54/54
f 60/60/60 59/59/59 58/58/58
f 61/61/61 60/60/60 58/58/58
f 64/64/64 63/63/63 62/62/62
f 65/65/65 64/64/64 62/62/62
f 68/68/68 67/67/67 66/66/66
f 69/69/69 68/68/68 66/66/66
f 72/72/72 71/71/71 70/70/70
f 73/73/73 72/72/72 70/70/70
f 76/76/76 75/75/75 74/74/74
f 77/77/77 76/76/76 74/74/74
f 80/80/80 79/79/79 78/78/78
f 81/81/81 80/80/80 78/78/78
f 84/84/84 83/83/83 82/82/82
f 83/83/83 85/85/85 82/82/82
f 82/82/82 85/85/85 86/86/86
f 87/87/87 85/85/85 83/83/83
f 88/88/88 87/87/87 83/83/83
f 85/85/85 89/89/89 86/86/86
f 89/89/89 85/85/85 87/87/87
f 90/90/90 86/86/86 89/89/89
f 91/91/91 90/90/90 89/89/89
f 91/91/91 89/89/89 92/92/92
f 92/92/92 89/89/89 87/87/87
f 93/93/93 91/91/91 92/92/92
f 93/93/93 92/92/92 94/94/94
f 94/94/94 92/92/92 87/87/87
f 95/95/95 93/93/93 94/94/94
f 95/95/95 94/94/94 96/96/96
f 97/97/97 87/87/87 88/88/88
f 97/97/97 94/94/94 87/87/87
f 94/94/94 97/97/97 96/96/96
f 98/98/98 97/97/97 88/88/88
f 96/96/96 97/97/97 98/98/98
f 101/101/101 100/100/100 99/99/99
f 100/100/100 102/102/102 99/99/99
f 103/103/103 99/99/99 102/102/102
f 104/104/104 102/102/102 100/100/100
f 105/105/105 104/104/104 100/100/100
f 106/106/106 103/103/103 102/102/102
f 107/107/107 103/103/103 106/106/106
f 108/108/108 107/107/107 106/106/106
f 108/108/108 106/106/106 109/109/109
f 106/106/106 102/102/102 110/110/110
f 106/106/106 110/110/110 109/109/109
f 102/102/102 104/104/104 110/110/110
f 109/109/109 110/110/110 111/111/111
f 111/111/111 110/110/110 104/104/104
f 112/112/112 109/109/109 111/111/111
f 112/112/112 111/111/111 113/113/113
f 114/114/114 104/104/104 105/105/105
f 114/114/114 111/111/111 104/104/104
f 111/111/111 114/114/114 113/113/113
f 115/115/115 114/114/114 105/105/105
f 113/113/113 114/114/114 115/115/115
f 118/118/118 117/117/117 116/116/116
f 119/119/119 118/118/118 116/116/116
f 122/122/122 121/121/121 120/120/120
f 123/123/123 122/122/122 120/120/120
f 126/126/126 125/125/125 124/124/124
f 125/125/125 127/127/127 124/124/124
f 128/128/128 126/126/126 124/124/124
f 127/127/127 129/129/129 124/124/124
f 130/130/130 128/128/128 124/124/124
f 124/124/124 129/129/129 131/131/131
f 132/132/132 128/128/128 130/130/130
f 129/129/129 133/133/133 131/131/131
f 134/134/134 132/132/132 130/130/130
f 135/135/135 134/134/134 130/130/130
f 136/136/136 135/135/135 130/130/130
f 133/133/133 137/137/137 131/131/131
f 137/137/137 138/138/138 131/131/131
f 138/138/138 139/139/139 131/131/131
f 140/140/140 136/136/136 130/130/130
f 131/131/131 139/139/139 140/140/140
f 141/141/141 136/136/136 140/140/140
f 139/139/139 142/142/142 140/140/140
f 143/143/143 141/141/141 140/140/140
f 142/142/142 143/143/143 140/140/140
f 146/146/146 145/145/145 144/144/144
f 147/147/147 146/146/146 144/144/144
f 147/147/147 144/144/144 148/148/148
f 149/149/149 144/144/144 145/145/145
f 150/150/150 149/149/149 145/145/145
f 150/150/150 151/151/151 149/149/149
f 151/151/151 152/152/152 149/149/149
f 153/153/153 149/149/149 152/152/152
f 144/144/144 149/149/149 153/153/153
f 154/154/154 153/153/153 152/152/152
f 144/144/144 155/155/155 148/148/148
f 155/155/155 144/144/144 153/153/153
f 148/148/148 155/155/155 156/156/156
f 156/156/156 155/155/155 153/153/153
f 157/157/157 148/148/148 156/156/156
f 158/158/158 157/157/157 156/156/156
f 159/159/159 153/153/153 154/154/154
f 159/159/159 156/156/156 153/153/153
f 159/159/159 158/158/158 156/156/156
f 160/160/160 159/159/159 154/154/154
f 160/160/160 158/158/158 159/159/159
f 163/163/163 162/162/162 161/161/161
f 162/162/162 164/164/164 161/161/161
f 161/161/161 164/164/164 165/165/165
f 164/164/164 166/166/166 165/165/165
f 164/164/164 162/162/162 166/166/166
f 165/165/165 166/166/166 167/167/167
f 168/168/168 162/162/162 163/163/163
f 167/167/167 168/168/168 163/163/163
f 166/166/166 168/168/168 167/167/167
f 162/162/162 168/168/168 166/166/166
f 171/171/171 170/170/170 169/169/169
f 171/171/171 169/169/169 172/172/172
f 170/170/170 171/171/171 172/172/172
f 170/170/170 173/173/173 169/169/169
f 169/169/169 174/174/174 172/172/172
f 174/174/174 169/169/169 173/173/173
f 170/170/170 175/175/175 173/173/173
f 175/175/175 170/170/170 172/172/172
f 173/173/173 175/175/175 176/176/176
f 176/176/176 174/174/174 173/173/173
f 175/175/175 172/172/172 177/177/177
f 175/175/175 177/177/177 176/176/176
f 172/172/172 178/178/178 177/177/177
f 174/174/174 178/178/178 172/172/172
f 176/176/176 177/177/177 179/179/179
f 177/177/177 178/178/178 179/179/179
f 174/174/174 176/176/176 179/179/179
f 178/178/178 180/180/180 179/179/179
f 180/180/180 174/174/174 179/179/179
f 180/180/180 178/178/178 174/174/174
f 183/183/183 182/182/182 181/181/181
f 184/184/184 183/183/183 181/181/181
f 183/183/183 184/184/184 182/182/182
f 185/185/185 184/184/184 181/181/181
f 182/182/182 186/186/186 181/181/181
f 186/186/186 185/185/185 181/181/181
f 187/187/187 184/184/184 185/185/185
f 182/182/182 184/184/184 187/187/187
f 188/188/188 185/185/185 186/186/186
f 188/188/188 187/187/187 185/185/185
f 186/186/186 182/182/182 189/189/189
f 189/189/189 182/182/182 187/187/187
f 190/190/190 188/188/188 186/186/186
f 190/190/190 186/186/186 189/189/189
f 191/191/191 188/188/188 190/190/190
f 188/188/188 191/191/191 187/187/187
f 191/191/191 190/190/190 189/189/189
f 191/191/191 192/192/192 187/187/187
f 192/192/192 191/191/191 189/189/189
f 192/192/192 189/189/189 187/187/187
