g candyCorn
v -0.42355514 -0.32163703 -0.46769696
v -0.18060485 -0.27287108 -0.6073324
v -0.20124209 0.3306179 -0.3529066
v -0.3550632 0.2998125 -0.2644779
v -0.026572034 0.36145163 -0.3840389
v -0.5966188 -0.36313897 -0.2588486
v 0.09529066 -0.22427909 -0.6565414
v -0.46461123 0.27372456 -0.13222101
v 0.14234696 0.38761616 -0.35313573
v -0.6734377 -0.39097834 -0.012528315
v 0.36218446 -0.18322596 -0.6078245
v -0.5132089 0.2563144 0.02372098
v 0.2797976 0.40511674 -0.26490968
v -0.6422646 -0.40078038 0.23376517
v 0.57944524 -0.1558833 -0.4685402
v -0.4934653 0.25020635 0.17960668
v 0.3648675 0.41126668 -0.13280088
v -0.5078302 -0.39097834 0.44247448
v 0.71391624 -0.14630215 -0.2598442
v -0.40838844 0.2563144 0.31171295
v 0.3846181 0.40511674 0.023082137
v -0.2906517 -0.3631389 0.58178866
v 0.7450526 -0.1558833 -0.013537616
v -0.27092272 0.27372456 0.39993364
v 0.3360354 0.38761616 0.1790189
v -0.023832291 -0.32163703 0.6305327
v 0.66815144 -0.18322596 0.23281285
v -0.10199109 0.2998125 0.43083212
v 0.22650006 0.36145163 0.3112711
v 0.2520343 -0.27287108 0.5813342
v 0.49501354 -0.22427909 0.44168824
v 0.07268358 0.3306179 0.39969814
v -0.5132089 0.2563144 0.02372098
v -0.46461123 0.27372456 -0.13222101
v -0.42302978 0.4825154 -0.09133716
v -0.46257797 0.46844286 0.03562007
v -0.4934653 0.25020635 0.17960668
v -0.44650003 0.46351635 0.16251272
v -0.40838844 0.2563144 0.31171295
v -0.31312796 0.7089562 0.11396929
v -0.37725142 0.46844286 0.2700528
v -0.27092272 0.27372456 0.39993364
v -0.33385104 0.5036661 -0.19902946
v -0.3550632 0.2998125 -0.2644779
v -0.26534918 0.4825154 0.34188664
v -0.10199109 0.2998125 0.43083212
v -0.2503394 0.7268341 -0.009967782
v -0.1428307 0.8046959 0.051986136
v -0.20861457 0.5287136 -0.27103502
v -0.20124209 0.3306179 -0.3529066
v -0.18536401 0.7268341 0.16855086
v -0.12781106 0.5036661 0.3670608
v 0.07268358 0.3306179 0.39969814
v -0.17048109 0.7428346 -0.055874936
v -0.06640829 0.55384994 -0.2963707
v -0.026572034 0.36145163 -0.3840389
v -0.09468038 0.7428346 0.15238583
v 0.014409877 0.5287136 0.34171978
v 0.22650006 0.36145163 0.3112711
v -0.07979744 0.75883514 -0.07203998
v 0.07109116 0.5752339 -0.27118254
v 0.14234696 0.38761616 -0.35313573
v 0.18294948 0.5895717 -0.19933264
v 0.2797976 0.40511674 -0.26490968
v -0.01482198 0.75883514 0.10647866
v 0.1396317 0.55384994 0.2697196
v 0.3360354 0.38761616 0.1790189
v 0.047966555 0.77671313 -0.017458344
v 0.2521781 0.59461856 -0.09178529
v 0.3648675 0.41126668 -0.13280088
v 0.22877173 0.5752339 0.16204137
v 0.3846181 0.40511674 0.023082137
v 0.26827604 0.5895717 0.035100006
v -0.5966188 -0.36313897 -0.2588486
v -0.3374898 -0.5895193 -0.40295324
v -0.42355514 -0.32163703 -0.46769696
v -0.49836418 -0.6286413 -0.20772865
v -0.6734377 -0.39097834 -0.012528315
v -0.10447156 -0.5425526 -0.53719103
v -0.18060485 -0.27287108 -0.6073324
v -0.56410927 -0.65320545 0.0055592507
v -0.6422646 -0.40078038 0.23376517
v 0.16040125 -0.4960934 -0.58417076
v 0.09529066 -0.22427909 -0.6565414
v -0.5396381 -0.6610414 0.1964122
v -0.5078302 -0.39097834 0.44247448
v 0.4093486 -0.45831507 -0.5381092
v 0.36218446 -0.18322596 -0.6078245
v -0.4357063 -0.6532055 0.35834372
v -0.2906517 -0.3631389 0.58178866
v 0.59707093 -0.43531787 -0.4170755
v 0.57944524 -0.1558833 -0.4685402
v -0.24824354 -0.62864125 0.47947174
v -0.023832291 -0.32163703 0.6305327
v 0.7011251 -0.42822057 -0.25518858
v 0.71391624 -0.14630215 -0.2598442
v 0.0004811436 -0.5895193 0.5256143
v 0.2520343 -0.27287108 0.5813342
v 0.7254739 -0.4353178 -0.06429133
v 0.7450526 -0.1558833 -0.013537616
v 0.26526976 -0.54255265 0.47866526
v 0.49501354 -0.22427909 0.44168824
v 0.6594691 -0.45831496 0.14909138
v 0.66815144 -0.18322596 0.23281285
v 0.49837226 -0.4960934 0.34439683
v 0.62325233 -0.64498734 -0.22684519
v 0.6389886 -0.6499514 -0.10129753
v 0.113229126 -0.7406898 -0.04121205
v 0.5546065 -0.6499514 -0.3331355
v 0.5877331 -0.6682629 0.061515525
v 0.41068834 -0.6682629 -0.4249112
v 0.45258704 -0.7004434 0.22381212
v 0.20283814 -0.7004434 -0.4623674
v 0.25163764 -0.74068975 0.3390626
v -0.025179528 -0.74068975 -0.42148668
v 0.023620218 -0.7809361 0.37994328
v -0.22612871 -0.7809361 -0.30623624
v -0.18423007 -0.8131166 0.34248713
v -0.36127502 -0.8131166 -0.14393936
v -0.32814816 -0.8314281 0.25071156
v -0.4125303 -0.8314281 0.018873274
v -0.39679408 -0.83639216 0.14442126
vt 0.5312851 0.46974462
vt 0.5312851 0.46974462
vt 0.53128505 0.46974462
vt 0.5312851 0.46974462
vt 0.5312851 0.46974462
vt 0.5312851 0.46974462
vt 0.5312851 0.46974462
vt 0.5312851 0.46974462
vt 0.5312851 0.4697446
vt 0.5312851 0.46974462
vt 0.5312851 0.46974462
vt 0.53128505 0.46974462
vt 0.5312851 0.46974462
vt 0.5312851 0.46974462
vt 0.5312851 0.46974462
vt 0.53128505 0.4697446
vt 0.5312851 0.46974462
vt 0.5312851 0.46974462
vt 0.5312851 0.46974462
vt 0.5312851 0.46974462
vt 0.53128517 0.46974465
vt 0.5312851 0.46974462
vt 0.5312851 0.46974462
vt 0.5312851 0.46974462
vt 0.53128505 0.46974462
vt 0.5312851 0.46974462
vt 0.5312851 0.46974462
vt 0.53128505 0.46974462
vt 0.53128517 0.4697446
vt 0.5312851 0.46974462
vt 0.5312851 0.46974462
vt 0.5312851 0.46974462
vt 0.9064894 0.03317532
vt 0.90648925 0.03317532
vt 0.9064893 0.03317532
vt 0.9064893 0.03317532
vt 0.90648925 0.03317532
vt 0.9064893 0.03317532
vt 0.9064894 0.03317532
vt 0.9064893 0.03317532
vt 0.9064893 0.03317532
vt 0.9064894 0.03317532
vt 0.9064893 0.03317532
vt 0.9064893 0.03317532
vt 0.9064893 0.03317532
vt 0.90648925 0.03317532
vt 0.9064893 0.03317532
vt 0.9064893 0.03317532
vt 0.9064893 0.03317532
vt 0.9064893 0.03317532
vt 0.9064893 0.03317532
vt 0.9064893 0.03317532
vt 0.9064893 0.03317532
vt 0.9064893 0.03317532
vt 0.9064893 0.03317532
vt 0.9064894 0.03317532
vt 0.9064893 0.03317532
vt 0.9064893 0.03317532
vt 0.9064894 0.03317532
vt 0.9064893 0.03317532
vt 0.9064893 0.03317532
vt 0.9064894 0.03317532
vt 0.9064893 0.03317532
vt 0.9064894 0.03317532
vt 0.9064893 0.03317532
vt 0.9064893 0.03317532
vt 0.9064894 0.03317532
vt 0.9064893 0.03317532
vt 0.9064893 0.03317532
vt 0.9064893 0.03317532
vt 0.9064893 0.03317532
vt 0.9064894 0.03317532
vt 0.9064893 0.03317532
vt 0.7206405 0.4083795
vt 0.7206405 0.4083795
vt 0.7206405 0.4083795
vt 0.7206405 0.4083795
vt 0.7206405 0.4083795
vt 0.7206405 0.4083795
vt 0.7206405 0.4083795
vt 0.7206405 0.4083795
vt 0.7206405 0.4083795
vt 0.7206405 0.4083795
vt 0.7206405 0.4083795
vt 0.7206405 0.4083795
vt 0.7206405 0.4083795
vt 0.7206405 0.4083795
vt 0.7206405 0.4083795
vt 0.7206405 0.4083795
vt 0.7206405 0.4083795
vt 0.7206405 0.4083795
vt 0.7206405 0.4083795
vt 0.7206405 0.4083795
vt 0.7206405 0.4083795
vt 0.7206405 0.4083795
vt 0.7206405 0.4083795
vt 0.7206405 0.4083795
vt 0.7206405 0.4083795
vt 0.7206405 0.4083795
vt 0.7206405 0.4083795
vt 0.7206405 0.4083795
vt 0.7206405 0.4083795
vt 0.7206405 0.4083795
vt 0.7206405 0.4083795
vt 0.7206405 0.4083795
vt 0.7206405 0.4083795
vt 0.7206405 0.4083795
vt 0.7206405 0.4083795
vt 0.7206405 0.4083795
vt 0.7206405 0.4083795
vt 0.7206405 0.4083795
vt 0.7206405 0.4083795
vt 0.7206405 0.4083795
vt 0.7206405 0.4083795
vt 0.7206405 0.4083795
vt 0.7206405 0.4083795
vt 0.7206405 0.4083795
vt 0.7206405 0.4083795
vt 0.7206405 0.4083795
vt 0.7206405 0.4083795
vt 0.7206405 0.4083795
vt 0.7206405 0.4083795
vn -0.63891995 -0.0327401 -0.7685762
vn -0.34493938 0.017961679 -0.9384531
vn -0.377522 0.34533003 -0.85919976
vn -0.65217054 0.29614225 -0.69783473
vn -0.06535028 0.40625498 -0.91141987
vn -0.8715025 -0.065411635 -0.48600903
vn -0.013195013 0.0846729 -0.99632144
vn -0.86441064 0.26067802 -0.42993173
vn 0.264343 0.472481 -0.8407642
vn -0.9920346 -0.08017705 -0.09715416
vn 0.33924228 0.16177636 -0.92668396
vn -0.96853125 0.23948486 -0.06778032
vn 0.5711376 0.5283933 -0.6281738
vn -0.9364398 -0.083133705 0.34083623
vn 0.67231613 0.23212701 -0.70292825
vn -0.91394514 0.23248437 0.3326489
vn 0.7841085 0.55111265 -0.28539208
vn -0.6974931 -0.080176994 0.712092
vn 0.90668434 0.26271603 -0.33000594
vn -0.6983697 0.23948485 0.67448264
vn 0.84129924 0.52839327 0.11408895
vn -0.3552091 -0.06541157 0.9324955
vn 0.96685755 0.23212713 0.10631784
vn -0.38582242 0.26067793 0.88497907
vn 0.74293137 0.47248104 0.4741463
vn 0.0045900717 -0.032740083 0.99945337
vn 0.8555357 0.16177647 0.49182022
vn -0.051032167 0.29614213 0.9537796
vn 0.5357881 0.406255 0.7401945
vn 0.33898708 0.017961718 0.9406196
vn 0.6303151 0.08467298 0.7717081
vn 0.26308435 0.34533 0.9008517
vn -0.96853125 0.23948486 -0.06778032
vn -0.86441064 0.26067802 -0.42993173
vn -0.8142286 0.42787272 -0.39237314
vn -0.9172151 0.3910709 -0.07602721
vn -0.91394514 0.23248437 0.3326489
vn -0.87726796 0.35839745 0.31929955
vn -0.6983697 0.23948485 0.67448264
vn -0.6519163 0.7202112 0.2372781
vn -0.65375817 0.39107078 0.64781475
vn -0.38582242 0.26067793 0.88497907
vn -0.62320054 0.4691605 -0.62570727
vn -0.65217054 0.29614225 -0.69783473
vn -0.3715231 0.4278727 0.8239512
vn -0.051032167 0.29614213 0.9537796
vn -0.57189345 0.74025756 -0.3534922
vn -0.16317573 0.98480785 0.05939116
vn -0.37665218 0.51924694 -0.76714784
vn -0.377522 0.34533003 -0.85919976
vn -0.21087539 0.74025774 0.6383965
vn -0.07520263 0.46916044 0.8799051
vn 0.26308435 0.34533 0.9008517
vn -0.33939743 0.77516013 -0.5328565
vn -0.096642196 0.56796557 -0.81735885
vn -0.06535028 0.40625498 -0.91141987
vn 0.082520016 0.7751601 0.6263523
vn 0.20458087 0.51924694 0.82977676
vn 0.5357881 0.406255 0.7401945
vn -0.05064186 0.8380669 -0.5432121
vn 0.19825245 0.61785793 -0.760886
vn 0.264343 0.472481 -0.8407642
vn 0.4807 0.65338004 -0.58482635
vn 0.5711376 0.5283933 -0.6281738
vn 0.31037578 0.83806676 0.44867688
vn 0.45135587 0.5679656 0.6882535
vn 0.74293137 0.47248104 0.4741463
vn 0.3811298 0.91405517 -0.1387197
vn 0.70917565 0.65608275 -0.25811887
vn 0.7841085 0.55111265 -0.28539208
vn 0.6409582 0.61785805 0.45543838
vn 0.84129924 0.52839327 0.11408895
vn 0.7441567 0.65338004 0.13901512
vn -0.8715025 -0.065411635 -0.48600903
vn -0.50640076 -0.47649652 -0.71868575
vn -0.63891995 -0.0327401 -0.7685762
vn -0.7270967 -0.5056493 -0.46438044
vn -0.9920346 -0.08017705 -0.09715416
vn -0.23627484 -0.4305142 -0.87110955
vn -0.34493938 0.017961679 -0.9384531
vn -0.8482638 -0.5182579 -0.10889096
vn -0.9364398 -0.083133705 0.34083623
vn 0.06606881 -0.36907643 -0.92704767
vn -0.013195013 0.0846729 -0.99632144
vn -0.8021795 -0.5208281 0.29196933
vn -0.6974931 -0.080176994 0.712092
vn 0.39128402 -0.29579264 -0.87143755
vn 0.33924228 0.16177636 -0.92668396
vn -0.5798142 -0.5182577 0.6286688
vn -0.3552091 -0.06541157 0.9324955
vn 0.70331734 -0.22711402 -0.67362005
vn 0.67231613 0.23212701 -0.70292825
vn -0.25849026 -0.50564915 0.8231049
vn 0.0045900717 -0.032740083 0.99945337
vn 0.92119306 -0.19744879 -0.33528674
vn 0.90668434 0.26271603 -0.33000594
vn 0.074036784 -0.47649652 0.8760534
vn 0.33898708 0.017961718 0.9406196
vn 0.97176695 -0.22711393 0.06393952
vn 0.96685755 0.23212713 0.10631784
vn 0.37894127 -0.4305143 0.8191831
vn 0.6303151 0.08467298 0.7717081
vn 0.8598903 -0.2957925 0.41604742
vn 0.8555357 0.16177647 0.49182022
vn 0.6465065 -0.36907646 0.66769135
vn 0.63966024 -0.73255104 -0.2328173
vn 0.6653035 -0.7465709 -0.0017462879
vn 0.16317596 -0.9848077 -0.05939117
vn 0.51077473 -0.7465708 -0.42631102
vn 0.5936153 -0.77950776 0.19997156
vn 0.32619673 -0.7795075 -0.53475565
vn 0.46686795 -0.8159813 0.34089416
vn 0.13851905 -0.81598115 -0.5612371
vn 0.31406 -0.8488349 0.42525962
vn -0.03276789 -0.8488347 -0.52764183
vn 0.1419872 -0.876943 0.4591411
vn -0.18636185 -0.876943 -0.44298998
vn -0.047931664 -0.8998897 0.43347573
vn -0.31535065 -0.8998897 -0.30125165
vn -0.23536807 -0.915576 0.32607126
vn -0.38989672 -0.9155761 -0.09849348
vn -0.36564663 -0.92119 0.13308443
g candyCorn_0
f 3/3/3 2/2/2 1/1/1
f 4/4/4 3/3/3 1/1/1
f 3/3/3 5/5/5 2/2/2
f 4/4/4 1/1/1 6/6/6
f 5/5/5 7/7/7 2/2/2
f 8/8/8 4/4/4 6/6/6
f 5/5/5 9/9/9 7/7/7
f 8/8/8 6/6/6 10/10/10
f 9/9/9 11/11/11 7/7/7
f 12/12/12 8/8/8 10/10/10
f 9/9/9 13/13/13 11/11/11
f 12/12/12 10/10/10 14/14/14
f 13/13/13 15/15/15 11/11/11
f 16/16/16 12/12/12 14/14/14
f 13/13/13 17/17/17 15/15/15
f 16/16/16 14/14/14 18/18/18
f 17/17/17 19/19/19 15/15/15
f 20/20/20 16/16/16 18/18/18
f 17/17/17 21/21/21 19/19/19
f 20/20/20 18/18/18 22/22/22
f 21/21/21 23/23/23 19/19/19
f 24/24/24 20/20/20 22/22/22
f 21/21/21 25/25/25 23/23/23
f 24/24/24 22/22/22 26/26/26
f 25/25/25 27/27/27 23/23/23
f 28/28/28 24/24/24 26/26/26
f 25/25/25 29/29/29 27/27/27
f 28/28/28 26/26/26 30/30/30
f 29/29/29 31/31/31 27/27/27
f 32/32/32 28/28/28 30/30/30
f 32/32/32 30/30/30 31/31/31
f 29/29/29 32/32/32 31/31/31
f 35/35/35 34/34/34 33/33/33
f 36/36/36 35/35/35 33/33/33
f 36/36/36 33/33/33 37/37/37
f 38/38/38 36/36/36 37/37/37
f 38/38/38 37/37/37 39/39/39
f 38/38/38 40/40/40 36/36/36
f 36/36/36 40/40/40 35/35/35
f 41/41/41 38/38/38 39/39/39
f 41/41/41 40/40/40 38/38/38
f 41/41/41 39/39/39 42/42/42
f 35/35/35 43/43/43 34/34/34
f 43/43/43 44/44/44 34/34/34
f 45/45/45 41/41/41 42/42/42
f 45/45/45 42/42/42 46/46/46
f 35/35/35 47/47/47 43/43/43
f 40/40/40 47/47/47 35/35/35
f 40/40/40 48/48/48 47/47/47
f 43/43/43 49/49/49 44/44/44
f 43/43/43 47/47/47 49/49/49
f 49/49/49 50/50/50 44/44/44
f 51/51/51 40/40/40 41/41/41
f 45/45/45 51/51/51 41/41/41
f 51/51/51 48/48/48 40/40/40
f 52/52/52 45/45/45 46/46/46
f 52/52/52 51/51/51 45/45/45
f 52/52/52 46/46/46 53/53/53
f 47/47/47 54/54/54 49/49/49
f 47/47/47 48/48/48 54/54/54
f 49/49/49 55/55/55 50/50/50
f 49/49/49 54/54/54 55/55/55
f 55/55/55 56/56/56 50/50/50
f 57/57/57 51/51/51 52/52/52
f 57/57/57 48/48/48 51/51/51
f 58/58/58 52/52/52 53/53/53
f 58/58/58 57/57/57 52/52/52
f 58/58/58 53/53/53 59/59/59
f 54/54/54 60/60/60 55/55/55
f 54/54/54 48/48/48 60/60/60
f 55/55/55 61/61/61 56/56/56
f 55/55/55 60/60/60 61/61/61
f 61/61/61 62/62/62 56/56/56
f 61/61/61 63/63/63 62/62/62
f 61/61/61 60/60/60 63/63/63
f 63/63/63 64/64/64 62/62/62
f 65/65/65 57/57/57 58/58/58
f 65/65/65 48/48/48 57/57/57
f 66/66/66 58/58/58 59/59/59
f 66/66/66 65/65/65 58/58/58
f 66/66/66 59/59/59 67/67/67
f 60/60/60 48/48/48 68/68/68
f 60/60/60 68/68/68 63/63/63
f 68/68/68 48/48/48 65/65/65
f 63/63/63 69/69/69 64/64/64
f 63/63/63 68/68/68 69/69/69
f 69/69/69 70/70/70 64/64/64
f 71/71/71 66/66/66 67/67/67
f 71/71/71 65/65/65 66/66/66
f 68/68/68 65/65/65 71/71/71
f 71/71/71 67/67/67 72/72/72
f 73/73/73 72/72/72 70/70/70
f 69/69/69 73/73/73 70/70/70
f 69/69/69 68/68/68 73/73/73
f 73/73/73 68/68/68 71/71/71
f 73/73/73 71/71/71 72/72/72
f 76/76/76 75/75/75 74/74/74
f 75/75/75 77/77/77 74/74/74
f 74/74/74 77/77/77 78/78/78
f 79/79/79 75/75/75 76/76/76
f 80/80/80 79/79/79 76/76/76
f 77/77/77 81/81/81 78/78/78
f 78/78/78 81/81/81 82/82/82
f 83/83/83 79/79/79 80/80/80
f 84/84/84 83/83/83 80/80/80
f 81/81/81 85/85/85 82/82/82
f 82/82/82 85/85/85 86/86/86
f 87/87/87 83/83/83 84/84/84
f 88/88/88 87/87/87 84/84/84
f 85/85/85 89/89/89 86/86/86
f 86/86/86 89/89/89 90/90/90
f 91/91/91 87/87/87 88/88/88
f 92/92/92 91/91/91 88/88/88
f 89/89/89 93/93/93 90/90/90
f 90/90/90 93/93/93 94/94/94
f 95/95/95 91/91/91 92/92/92
f 96/96/96 95/95/95 92/92/92
f 93/93/93 97/97/97 94/94/94
f 94/94/94 97/97/97 98/98/98
f 99/99/99 95/95/95 96/96/96
f 100/100/100 99/99/99 96/96/96
f 97/97/97 101/101/101 98/98/98
f 98/98/98 101/101/101 102/102/102
f 103/103/103 99/99/99 100/100/100
f 104/104/104 103/103/103 100/100/100
f 102/102/102 105/105/105 104/104/104
f 101/101/101 105/105/105 102/102/102
f 105/105/105 103/103/103 104/104/104
f 95/95/95 106/106/106 91/91/91
f 99/99/99 107/107/107 95/95/95
f 107/107/107 106/106/106 95/95/95
f 107/107/107 108/108/108 106/106/106
f 106/106/106 109/109/109 91/91/91
f 106/106/106 108/108/108 109/109/109
f 91/91/91 109/109/109 87/87/87
f 110/110/110 107/107/107 99/99/99
f 103/103/103 110/110/110 99/99/99
f 110/110/110 108/108/108 107/107/107
f 109/109/109 111/111/111 87/87/87
f 109/109/109 108/108/108 111/111/111
f 87/87/87 111/111/111 83/83/83
f 112/112/112 110/110/110 103/103/103
f 105/105/105 112/112/112 103/103/103
f 112/112/112 108/108/108 110/110/110
f 111/111/111 113/113/113 83/83/83
f 111/111/111 108/108/108 113/113/113
f 83/83/83 113/113/113 79/79/79
f 114/114/114 112/112/112 105/105/105
f 114/114/114 108/108/108 112/112/112
f 113/113/113 108/108/108 115/115/115
f 113/113/113 115/115/115 79/79/79
f 116/116/116 108/108/108 114/114/114
f 101/101/101 114/114/114 105/105/105
f 116/116/116 114/114/114 101/101/101
f 79/79/79 115/115/115 75/75/75
f 97/97/97 116/116/116 101/101/101
f 115/115/115 117/117/117 75/75/75
f 115/115/115 108/108/108 117/117/117
f 75/75/75 117/117/117 77/77/77
f 118/118/118 116/116/116 97/97/97
f 118/118/118 108/108/108 116/116/116
f 93/93/93 118/118/118 97/97/97
f 117/117/117 119/119/119 77/77/77
f 117/117/117 108/108/108 119/119/119
f 77/77/77 119/119/119 81/81/81
f 120/120/120 118/118/118 93/93/93
f 120/120/120 108/108/108 118/118/118
f 89/89/89 120/120/120 93/93/93
f 119/119/119 121/121/121 81/81/81
f 119/119/119 108/108/108 121/121/121
f 81/81/81 121/121/121 85/85/85
f 122/122/122 120/120/120 89/89/89
f 122/122/122 108/108/108 120/120/120
f 85/85/85 122/122/122 89/89/89
f 121/121/121 122/122/122 85/85/85
f 121/121/121 108/108/108 122/122/122
