g car_Customer01
v 1.7724322 2.1410086 5.794519
v 1.772432 1.6844577 5.794519
v -1.772432 1.6844577 5.794519
v -1.7724322 2.1410086 5.794519
v -3.3890512 0.7713533 -5.5653777
v -3.389136 0.77135324 -5.368087
v 3.389136 0.77135324 -5.368087
v 3.3890512 0.7713533 -5.5653777
v -2.768065 6.644175 2.2631392
v -2.7774682 6.556693 -1.2425437
v 2.7774682 6.556693 -1.2425437
v 2.768065 6.644175 2.2631392
v 3.388985 1.5505457 -5.720927
v 3.389069 1.5505458 -5.523637
v -3.389069 1.5505458 -5.523637
v -3.388985 1.5505457 -5.720927
v -2.265075 6.1044574 -1.4094455
v -2.7427874 3.3224168 -2.4362173
v 2.7427874 3.3224168 -2.4362173
v 2.265075 6.1044574 -1.4094455
v -2.889674 3.326907 3.0627642
v -2.386372 6.238475 2.3530345
v 2.386372 6.238475 2.3530345
v 2.889674 3.326907 3.0627642
v 1.680023 1.6345893 -5.52673
v 3.2139475 1.6345886 -5.527724
v 3.2138848 2.5632617 -5.6748757
v 1.67996 2.5632622 -5.6738815
v 3.3943417 3.0975108 -2.5192294
v 3.3890028 2.647304 -5.6791887
v 3.389069 1.5505458 -5.523637
v 3.389136 0.77135324 -5.368087
v 3.3906536 0.77135324 -2.068797
v 3.3926523 0.7713531 3.1832008
v 3.40391 3.100346 3.1031294
v 3.3939164 1.684457 5.793469
v 3.3939166 0.77135307 5.793469
v 3.3939164 2.1410077 5.793469
v 3.393917 2.5975587 5.7934694
v 3.362669 3.326546 2.6730506
v 3.3550267 3.3230371 -2.0767477
v 2.839717 6.240987 1.9627244
v 2.7774682 6.556693 -1.2425437
v 2.768065 6.644175 2.2631392
v 2.8484902 6.1630416 -1.012046
v 3.389136 0.77135324 -5.368087
v 3.389069 1.5505458 -5.523637
v 3.388985 1.5505457 -5.720927
v 3.3890512 0.7713533 -5.5653777
v 3.3939164 1.684457 5.793469
v 3.3939166 0.77135307 5.793469
v 3.3939903 0.77135324 5.9651065
v 3.39399 1.684457 5.965106
v 3.3550267 3.3230371 -2.0767477
v 3.362669 3.326546 2.6730506
v 2.839717 6.240987 1.9627244
v 2.8484902 6.1630416 -1.012046
v 2.768065 6.644175 2.2631392
v 3.40391 3.100346 3.1031294
v 2.889674 3.326907 3.0627642
v 2.386372 6.238475 2.3530345
v 2.5831742 2.1410081 5.793994
v 3.3939164 2.1410077 5.793469
v 3.3939164 1.684457 5.793469
v 1.772432 1.6844577 5.794519
v 1.7724322 2.1410086 5.794519
v 3.39399 1.684457 5.965106
v 1.772432 1.6844577 5.794519
v 3.3939164 1.684457 5.793469
v -3.39399 1.684457 5.965106
v -1.772432 1.6844577 5.794519
v -3.3939164 1.684457 5.793469
v 3.3939164 2.1410077 5.793469
v 2.5831742 2.1410081 5.793994
v 2.8858004 2.597559 5.7944
v 3.393917 2.5975587 5.7934694
v 3.40391 3.100346 3.1031294
v 2.8909266 3.0999014 3.1040668
v 2.889674 3.326907 3.0627642
v -2.8909266 3.0999014 3.1040668
v -2.889674 3.326907 3.0627642
v -3.40391 3.100346 3.1031294
v 3.40391 3.100346 3.1031294
v 2.8859844 2.6156018 5.6977696
v 2.8909266 3.0999014 3.1040668
v 3.393917 2.5975587 5.7934694
v 2.8858004 2.597559 5.7944
v 2.5833583 2.159051 5.6973634
v 2.5831742 2.1410081 5.793994
v 1.7724322 2.1410086 5.794519
v -1.7724322 2.1410086 5.794519
v -2.5833583 2.159051 5.6973634
v -2.5831742 2.1410081 5.793994
v -2.8858004 2.597559 5.7944
v -2.8859844 2.6156018 5.6977696
v -3.393917 2.5975587 5.7934694
v -3.40391 3.100346 3.1031294
v -2.8909266 3.0999014 3.1040668
v -3.3939166 0.77135307 5.793469
v -3.3939903 0.77135324 5.9651065
v 3.3939903 0.77135324 5.9651065
v 3.3939166 0.77135307 5.793469
v -3.3939903 0.77135324 5.9651065
v -3.39399 1.684457 5.965106
v 3.39399 1.684457 5.965106
v 3.3939903 0.77135324 5.9651065
v 3.3939166 0.77135307 5.793469
v -3.3926523 0.7713531 3.1832008
v -3.3939166 0.77135307 5.793469
v 3.3926523 0.7713531 3.1832008
v -3.3906536 0.77135324 -2.068797
v 3.3906536 0.77135324 -2.068797
v -3.389136 0.77135324 -5.368087
v 3.389136 0.77135324 -5.368087
v 3.3890512 0.7713533 -5.5653777
v 3.388985 1.5505457 -5.720927
v -3.388985 1.5505457 -5.720927
v -3.3890512 0.7713533 -5.5653777
v 2.768065 6.644175 2.2631392
v 2.386372 6.238475 2.3530345
v -2.386372 6.238475 2.3530345
v -2.768065 6.644175 2.2631392
v -3.3943417 3.0975108 -2.5192294
v -3.3890028 2.647304 -5.6791887
v 3.3890028 2.647304 -5.6791887
v 3.3943417 3.0975108 -2.5192294
v -1.67996 2.5632622 -5.6738815
v -1.680023 1.6345893 -5.52673
v 1.680023 1.6345893 -5.52673
v 1.67996 2.5632622 -5.6738815
v -1.680023 1.6345893 -5.52673
v -1.67996 2.5632622 -5.6738815
v -3.2138848 2.5632617 -5.6748757
v -3.2139475 1.6345886 -5.527724
v -3.3943417 3.0975108 -2.5192294
v -3.389069 1.5505458 -5.523637
v -3.3890028 2.647304 -5.6791887
v -3.389136 0.77135324 -5.368087
v -3.3906536 0.77135324 -2.068797
v -3.3926523 0.7713531 3.1832008
v -3.40391 3.100346 3.1031294
v -3.3939164 1.684457 5.793469
v -3.3939166 0.77135307 5.793469
v -3.3939164 2.1410077 5.793469
v -3.393917 2.5975587 5.7934694
v -3.362669 3.326546 2.6730506
v -3.3550267 3.3230371 -2.0767477
v -2.839717 6.240987 1.9627244
v -2.7774682 6.556693 -1.2425437
v -2.768065 6.644175 2.2631392
v -2.8484902 6.1630416 -1.012046
v -3.389136 0.77135324 -5.368087
v -3.3890512 0.7713533 -5.5653777
v -3.388985 1.5505457 -5.720927
v -3.389069 1.5505458 -5.523637
v -3.3939164 1.684457 5.793469
v -3.39399 1.684457 5.965106
v -3.3939903 0.77135324 5.9651065
v -3.3939166 0.77135307 5.793469
v -3.3550267 3.3230371 -2.0767477
v -2.8484902 6.1630416 -1.012046
v -2.839717 6.240987 1.9627244
v -3.362669 3.326546 2.6730506
v -2.768065 6.644175 2.2631392
v -2.386372 6.238475 2.3530345
v -2.889674 3.326907 3.0627642
v -3.40391 3.100346 3.1031294
v -1.7724322 2.1410086 5.794519
v -1.772432 1.6844577 5.794519
v -3.3939164 1.684457 5.793469
v -2.5831742 2.1410081 5.793994
v -3.3939164 2.1410077 5.793469
v -3.3939164 2.1410077 5.793469
v -3.393917 2.5975587 5.7934694
v -2.8858004 2.597559 5.7944
v -2.5831742 2.1410081 5.793994
v -2.8909266 3.0999014 3.1040668
v -2.883515 0.95541906 5.477069
v -2.8859844 2.6156018 5.6977696
v -2.5833583 2.159051 5.6973634
v -2.888641 0.95541906 2.7867353
v 2.8909266 3.0999014 3.1040668
v 2.883515 0.95541906 5.477069
v 2.5833583 2.159051 5.6973634
v 2.8859844 2.6156018 5.6977696
v 2.888641 0.95541906 2.7867353
v -3.3890028 2.647304 -5.6791887
v -3.2138848 2.5632617 -5.6748757
v -1.67996 2.5632622 -5.6738815
v 1.67996 2.5632622 -5.6738815
v -3.2139475 1.6345886 -5.527724
v -3.389069 1.5505458 -5.523637
v -1.680023 1.6345893 -5.52673
v 3.3890028 2.647304 -5.6791887
v 3.2138848 2.5632617 -5.6748757
v 3.2139475 1.6345886 -5.527724
v 3.389069 1.5505458 -5.523637
v 1.680023 1.6345893 -5.52673
v 3.3943417 3.0975108 -2.5192294
v 2.265075 6.1044574 -1.4094455
v 2.7427874 3.3224168 -2.4362173
v -2.7427874 3.3224168 -2.4362173
v 2.7774682 6.556693 -1.2425437
v -3.3943417 3.0975108 -2.5192294
v -2.7774682 6.556693 -1.2425437
v -2.265075 6.1044574 -1.4094455
vt 0.34505928 0.9637451
vt 0.34505928 0.9637451
vt 0.34505928 0.9637451
vt 0.34505928 0.9637451
vt 0.84179264 0.15555218
vt 0.84179264 0.15555218
vt 0.84179264 0.15555218
vt 0.84179264 0.15555218
vt 0.34505928 0.9637451
vt 0.34505928 0.9637451
vt 0.34505928 0.9637451
vt 0.34505928 0.9637451
vt 0.84179264 0.15555218
vt 0.84179264 0.15555218
vt 0.84179264 0.15555218
vt 0.84179264 0.15555218
vt 0.09294063 0.5930128
vt 0.09294063 0.5930128
vt 0.09294063 0.5930128
vt 0.09294063 0.5930128
vt 0.09294063 0.5930128
vt 0.09294063 0.5930128
vt 0.09294063 0.5930128
vt 0.09294063 0.5930128
vt 0.5954709 0.15265717
vt 0.5954709 0.15265717
vt 0.5954709 0.15265717
vt 0.5954709 0.15265717
vt 0.34505928 0.9637451
vt 0.34505928 0.9637451
vt 0.34505928 0.9637451
vt 0.34505928 0.9637451
vt 0.34505928 0.9637451
vt 0.34505928 0.9637451
vt 0.34505928 0.9637451
vt 0.34505928 0.9637451
vt 0.34505928 0.9637451
vt 0.34505928 0.9637451
vt 0.34505928 0.9637451
vt 0.34505928 0.96374506
vt 0.34505928 0.9637451
vt 0.34505928 0.9637451
vt 0.34505928 0.9637451
vt 0.34505928 0.9637451
vt 0.34505928 0.9637451
vt 0.84179264 0.15555218
vt 0.84179264 0.15555218
vt 0.84179264 0.15555218
vt 0.84179264 0.15555218
vt 0.84179264 0.15555218
vt 0.84179264 0.15555218
vt 0.84179264 0.15555218
vt 0.84179264 0.15555218
vt 0.09294063 0.5930128
vt 0.09294063 0.5930128
vt 0.09294063 0.5930128
vt 0.09294063 0.5930128
vt 0.34505928 0.9637451
vt 0.34505928 0.9637451
vt 0.34505928 0.9637451
vt 0.34505928 0.9637451
vt 0.22050558 0.84343016
vt 0.22050558 0.84343016
vt 0.22050558 0.84343016
vt 0.22050558 0.84343016
vt 0.22050558 0.84343016
vt 0.84179264 0.15555218
vt 0.84179264 0.15555218
vt 0.84179264 0.15555218
vt 0.84179264 0.15555218
vt 0.84179264 0.15555218
vt 0.84179264 0.15555218
vt 0.34505928 0.9637451
vt 0.34505928 0.9637451
vt 0.34505928 0.9637451
vt 0.34505928 0.9637451
vt 0.34505928 0.9637451
vt 0.34505928 0.9637451
vt 0.34505928 0.9637451
vt 0.34505928 0.9637451
vt 0.34505928 0.9637451
vt 0.34505928 0.9637451
vt 0.34505928 0.9637451
vt 0.34505928 0.9637451
vt 0.34505928 0.9637451
vt 0.34505928 0.9637451
vt 0.34505928 0.9637451
vt 0.34505928 0.9637451
vt 0.34505928 0.9637451
vt 0.34505928 0.9637451
vt 0.34505928 0.9637451
vt 0.34505928 0.9637451
vt 0.34505928 0.9637451
vt 0.34505928 0.9637451
vt 0.34505928 0.9637451
vt 0.34505928 0.9637451
vt 0.34505928 0.9637451
vt 0.34505928 0.9637451
vt 0.84179264 0.15555218
vt 0.84179264 0.15555218
vt 0.84179264 0.15555218
vt 0.84179264 0.15555218
vt 0.84179264 0.15555218
vt 0.84179264 0.15555218
vt 0.84179264 0.15555218
vt 0.84179264 0.15555218
vt 0.34505928 0.9637451
vt 0.34505928 0.9637451
vt 0.34505928 0.9637451
vt 0.34505928 0.9637451
vt 0.34505928 0.9637451
vt 0.34505928 0.9637451
vt 0.34505928 0.9637451
vt 0.34505928 0.9637451
vt 0.84179264 0.15555218
vt 0.84179264 0.15555218
vt 0.84179264 0.15555218
vt 0.84179264 0.15555218
vt 0.34505928 0.9637451
vt 0.34505928 0.9637451
vt 0.34505928 0.9637451
vt 0.34505928 0.9637451
vt 0.34505928 0.9637451
vt 0.34505928 0.9637451
vt 0.34505928 0.9637451
vt 0.34505928 0.9637451
vt 0.7222562 0.030729681
vt 0.7222562 0.030729681
vt 0.7222562 0.030729681
vt 0.7222562 0.030729681
vt 0.5954709 0.15265717
vt 0.5954709 0.15265717
vt 0.5954709 0.15265717
vt 0.5954709 0.15265717
vt 0.34505928 0.9637451
vt 0.34505928 0.9637451
vt 0.34505928 0.9637451
vt 0.34505928 0.9637451
vt 0.34505928 0.9637451
vt 0.34505928 0.9637451
vt 0.34505928 0.9637451
vt 0.34505928 0.9637451
vt 0.34505928 0.9637451
vt 0.34505928 0.9637451
vt 0.34505928 0.9637451
vt 0.34505928 0.96374506
vt 0.34505928 0.9637451
vt 0.34505928 0.9637451
vt 0.34505928 0.9637451
vt 0.34505928 0.9637451
vt 0.34505928 0.9637451
vt 0.84179264 0.15555218
vt 0.84179264 0.15555218
vt 0.84179264 0.15555218
vt 0.84179264 0.15555218
vt 0.84179264 0.15555218
vt 0.84179264 0.15555218
vt 0.84179264 0.15555218
vt 0.84179264 0.15555218
vt 0.09294063 0.5930128
vt 0.09294063 0.5930128
vt 0.09294063 0.5930128
vt 0.09294063 0.5930128
vt 0.34505928 0.9637451
vt 0.34505928 0.9637451
vt 0.34505928 0.9637451
vt 0.34505928 0.9637451
vt 0.22050558 0.84343016
vt 0.22050558 0.84343016
vt 0.22050558 0.84343016
vt 0.22050558 0.84343016
vt 0.22050558 0.84343016
vt 0.34505928 0.9637451
vt 0.34505928 0.9637451
vt 0.34505928 0.9637451
vt 0.34505928 0.9637451
vt 0.78245014 0.03776765
vt 0.78245014 0.03776765
vt 0.78245014 0.03776765
vt 0.78245014 0.03776765
vt 0.78245014 0.03776765
vt 0.78245014 0.03776765
vt 0.78245014 0.03776765
vt 0.78245014 0.03776765
vt 0.78245014 0.03776765
vt 0.78245014 0.03776765
vt 0.33709657 0.97559154
vt 0.33709657 0.97559154
vt 0.33709657 0.97559154
vt 0.33709657 0.97559154
vt 0.33709657 0.97559154
vt 0.33709657 0.97559154
vt 0.33709657 0.97559154
vt 0.33709657 0.97559154
vt 0.33709657 0.97559154
vt 0.33709657 0.97559154
vt 0.33709657 0.97559154
vt 0.33709657 0.97559154
vt 0.34505928 0.9637451
vt 0.34505928 0.9637451
vt 0.34505925 0.96374506
vt 0.34505925 0.96374506
vt 0.34505928 0.9637451
vt 0.34505928 0.9637451
vt 0.34505928 0.9637451
vt 0.34505928 0.9637451
vn 0.00089911517 0 0.99999964
vn 0.00089911517 0 0.99999964
vn -0.00089911476 0 0.99999964
vn -0.00089911534 0 0.99999964
vn -0 -1 0
vn -0 -1 0
vn -0 -1 0
vn -0 -1 0
vn -0 0.99968874 -0.024946563
vn -0 0.99968874 -0.024946563
vn -0 0.99968874 -0.024946563
vn -0 0.99968874 -0.024946563
vn -0 1 0
vn -0 1 0
vn -0 1 0
vn -0 1 0
vn -0 0.34624255 -0.938145
vn -0 0.34624255 -0.938145
vn -0 0.34624255 -0.938145
vn -0 0.34624255 -0.938145
vn -0 0.23682745 0.9715517
vn -0 0.23682745 0.9715517
vn 0.00047279694 0.23690435 0.9715328
vn 0.0003309602 0.2368813 0.9715386
vn -0.0066951294 -0.09642381 -0.9953178
vn -0.021497333 -0.10304541 -0.9944443
vn -0.00064006454 -0.1565006 -0.98767763
vn -0.00089521107 -0.15650114 -0.9876774
vn 0.99824476 0.056912426 -0.01638268
vn 0.99999857 -0.00017564515 -0.0016645987
vn 0.9999995 -0.0005451808 -0.00086769
vn 0.9999995 -0.0007390687 -0.0006121265
vn 0.99999666 -0.0024454156 -0.0009275521
vn 0.9999943 -0.0033943627 -0.00014989529
vn 0.99859244 0.05303522 -0.0005005787
vn 0.99999833 -0.001506491 0.0010292472
vn 0.99999857 -0.0017270519 0.0001478072
vn 0.9999931 0 0.0037144278
vn 0.9999931 0 0.0037144283
vn 0.98439676 0.1759546 -0.0017254795
vn 0.9809833 0.1911532 -0.033649627
vn 0.9843395 0.176275 -0.00172409
vn 0.9872133 0.14904574 0.056526117
vn 0.9843342 0.17630455 -0.0017286266
vn 0.98563486 0.1677689 0.019431276
vn 0.9999995 -0.0007390687 -0.0006121265
vn 0.9999995 -0.0005451808 -0.00086769
vn 0.9999999 0 -0.0004285276
vn 0.9999999 0 -0.0004285276
vn 0.99999833 -0.001506491 0.0010292472
vn 0.99999857 -0.0017270519 0.0001478072
vn 0.9999999 0 -0.0004283086
vn 0.9999999 0 -0.0004283086
vn 0.9809833 0.1911532 -0.033649627
vn 0.98439676 0.1759546 -0.0017254795
vn 0.9843395 0.176275 -0.00172409
vn 0.98563486 0.1677689 0.019431276
vn -0.050680734 0.20398422 0.97766143
vn -0.06039974 0.23343997 0.9704935
vn 0.074585564 0.23653942 0.96875495
vn 0.06920407 0.26428917 0.9619574
vn 0.0007565074 -0.00019359669 0.99999976
vn 0.00087568606 -0.0004054309 0.9999995
vn 0.0006475518 0 0.99999976
vn 0.00089911517 0 0.99999964
vn 0.00089911517 0 0.99999964
vn -0 1 0
vn -0 1 0
vn -0 1 0
vn -0 1 0
vn -0 1 0
vn -0 1 0
vn 0.00087568606 -0.0004054309 0.9999995
vn 0.0007565074 -0.00019359669 0.99999976
vn 0.00110382 -0.00081092777 0.99999905
vn 0.0006207206 0.00012598152 0.9999999
vn 0.00036997307 0.17590791 0.9844065
vn 0.0012391022 0.17198806 0.98509824
vn -0.0005058761 0.17562227 0.98445743
vn -0.001239159 0.17198806 0.98509824
vn 0.0005058754 0.17562225 0.98445743
vn -0.00036997424 0.17590791 0.9844065
vn -9.942936E-05 0.9829957 0.1836284
vn -0.27220258 0.9622265 -0.0050944835
vn -9.942936E-05 0.9829957 0.1836284
vn -4.653973E-05 0.98299754 0.18361862
vn -0.7499585 0.5374959 0.3855648
vn -0.49168432 0.85615563 0.15888351
vn -0.44487518 0.88052964 0.16356522
vn 6.948475E-05 0.98307884 0.18318288
vn -5.868341E-05 0.98309636 0.18308924
vn 0.4916841 0.85615593 0.15888306
vn 0.44487506 0.8805298 0.16356482
vn 0.74995834 0.53749645 0.38556454
vn 0.27220246 0.9622265 -0.005094793
vn 4.6492016E-05 0.98299754 0.18361868
vn 9.937507E-05 0.9829957 0.18362844
vn 9.937507E-05 0.9829957 0.18362844
vn -0 -1 0
vn -0 -1 0
vn -0 -1 0
vn -0 -1 0
vn -0.0004793835 0 0.9999999
vn -0.0004793837 0 0.9999999
vn 0.0004793837 0 0.9999999
vn 0.0004793835 0 0.9999999
vn -0 -1 0
vn -0 -1 0
vn -0 -1 0
vn -0 -1 0
vn -0 -1 0
vn -0 -1 0
vn -0 -1 0
vn -0 -1 0
vn -0 -0.19576594 -0.9806506
vn -0 -0.19576594 -0.9806506
vn -0 -0.19576594 -0.9806506
vn -0 -0.19576594 -0.9806506
vn 0.0007750347 0.21550326 0.9765029
vn 0.00066978694 0.21553808 0.97649527
vn -0.0007916829 0.21539351 0.976527
vn -0.0008720734 0.21539958 0.9765256
vn -0 0.99000275 -0.141048
vn -0 0.99000275 -0.141048
vn -0 0.99000275 -0.141048
vn -0 0.99000275 -0.141048
vn 0.00079935184 -0.15650071 -0.9876775
vn 0.006695175 -0.09642434 -0.9953178
vn -0.0066951294 -0.09642381 -0.9953178
vn -0.00089521107 -0.15650114 -0.9876774
vn 0.006695175 -0.09642434 -0.9953178
vn 0.00079935184 -0.15650071 -0.9876775
vn 0.00064007327 -0.1565004 -0.98767763
vn 0.02149735 -0.10304533 -0.9944443
vn -0.99824476 0.05691242 -0.016382614
vn -0.9999995 -0.00054518087 -0.0008675175
vn -0.99999857 -0.00017564515 -0.0016645987
vn -0.9999995 -0.0007390688 -0.0006119193
vn -0.99999666 -0.0024454156 -0.00092754886
vn -0.9999943 -0.003394363 -0.00014992096
vn -0.99859244 0.053035215 -0.00050055486
vn -0.99999833 -0.0015064909 0.0010289924
vn -0.99999857 -0.0017270519 0.0001474335
vn -0.9999931 0 0.0037144278
vn -0.9999931 0 0.0037144283
vn -0.98439676 0.17595455 -0.0017254204
vn -0.9809833 0.19115278 -0.03364969
vn -0.9843395 0.17627499 -0.0017240173
vn -0.9872133 0.14904577 0.05652629
vn -0.9843342 0.17630453 -0.0017285235
vn -0.98563504 0.16776712 0.019430682
vn -0.9999995 -0.0007390688 -0.0006119193
vn -0.9999999 0 -0.00042805384
vn -0.9999999 0 -0.00042805384
vn -0.9999995 -0.00054518087 -0.0008675175
vn -0.99999833 -0.0015064909 0.0010289924
vn -0.9999999 0 -0.0004290001
vn -0.9999999 0 -0.0004290001
vn -0.99999857 -0.0017270519 0.0001474335
vn -0.9809833 0.19115278 -0.03364969
vn -0.98563504 0.16776712 0.019430682
vn -0.9843395 0.17627499 -0.0017240173
vn -0.98439676 0.17595455 -0.0017254204
vn 0.050680704 0.20398428 0.97766143
vn -0.0692041 0.26428923 0.9619574
vn -0.074585594 0.23653947 0.96875495
vn 0.060399696 0.23344006 0.9704935
vn -0.00089911534 0 0.99999964
vn -0.00089911476 0 0.99999964
vn -0.0006475518 0 0.99999976
vn -0.00075650733 -0.0001931567 0.99999976
vn -0.00087568624 -0.00040514185 0.9999995
vn -0.00087568624 -0.00040514185 0.9999995
vn -0.0006207203 0.00012598147 0.9999999
vn -0.0011038203 -0.00081092765 0.99999905
vn -0.00075650733 -0.0001931567 0.99999976
vn 0.6993963 -0.10377662 0.7071599
vn 0.5874496 0.61960983 -0.5205637
vn 0.95236135 -0.0524856 -0.30042166
vn 0.1091128 0.15256621 -0.98225147
vn 0.57021546 0.53699726 0.6216817
vn -0.6993963 -0.10377662 0.7071599
vn -0.5874496 0.61960983 -0.5205637
vn -0.1091128 0.15256621 -0.98225147
vn -0.95236135 -0.05248561 -0.30042163
vn -0.57021546 0.53699726 0.6216817
vn -0.048412863 -0.13161911 -0.9901175
vn -0.04531465 -0.10257163 -0.9936929
vn 0.000675631 -0.049625628 -0.99876773
vn -0.00067509606 -0.049625598 -0.99876773
vn 0.02149735 -0.10304533 -0.9944443
vn 0.06285739 -0.10465867 -0.99251974
vn 0.006695175 -0.09642434 -0.9953178
vn 0.0484129 -0.1316192 -0.9901175
vn 0.045314673 -0.10257169 -0.9936929
vn -0.021497333 -0.10304541 -0.9944443
vn -0.062857345 -0.104658775 -0.99251974
vn -0.0066951294 -0.09642381 -0.9953178
vn 0.02907483 0.3468501 -0.9374699
vn -0.031238055 0.34193945 -0.93920267
vn -0.030964347 0.3454403 -0.9379298
vn 0.00036335448 0.34543145 -0.93844384
vn 0.028289374 0.3494291 -0.93653566
vn 0.00047004054 0.3452295 -0.9385182
vn 0.0005496419 0.34707668 -0.9378366
vn 0.00059911044 0.34704655 -0.93784773
g car_Customer01_0
f 3/3/3 2/2/2 1/1/1
f 4/4/4 3/3/3 1/1/1
f 7/7/7 6/6/6 5/5/5
f 8/8/8 7/7/7 5/5/5
f 11/11/11 10/10/10 9/9/9
f 12/12/12 11/11/11 9/9/9
f 15/15/15 14/14/14 13/13/13
f 16/16/16 15/15/15 13/13/13
f 19/19/19 18/18/18 17/17/17
f 20/20/20 19/19/19 17/17/17
f 23/23/23 22/22/22 21/21/21
f 24/24/24 23/23/23 21/21/21
f 27/27/27 26/26/26 25/25/25
f 28/28/28 27/27/27 25/25/25
f 31/31/31 30/30/30 29/29/29
f 32/32/32 31/31/31 29/29/29
f 33/33/33 32/32/32 29/29/29
f 34/34/34 33/33/33 29/29/29
f 35/35/35 34/34/34 29/29/29
f 35/35/35 36/36/36 34/34/34
f 36/36/36 37/37/37 34/34/34
f 38/38/38 36/36/36 35/35/35
f 39/39/39 38/38/38 35/35/35
f 40/40/40 35/35/35 29/29/29
f 41/41/41 40/40/40 29/29/29
f 40/40/40 42/42/42 35/35/35
f 41/41/41 29/29/29 43/43/43
f 42/42/42 44/44/44 35/35/35
f 45/45/45 41/41/41 43/43/43
f 45/45/45 43/43/43 44/44/44
f 42/42/42 45/45/45 44/44/44
f 48/48/48 47/47/47 46/46/46
f 49/49/49 48/48/48 46/46/46
f 52/52/52 51/51/51 50/50/50
f 53/53/53 52/52/52 50/50/50
f 56/56/56 55/55/55 54/54/54
f 57/57/57 56/56/56 54/54/54
f 60/60/60 59/59/59 58/58/58
f 61/61/61 60/60/60 58/58/58
f 64/64/64 63/63/63 62/62/62
f 62/62/62 65/65/65 64/64/64
f 62/62/62 66/66/66 65/65/65
f 69/69/69 68/68/68 67/67/67
f 70/70/70 67/67/67 68/68/68
f 71/71/71 70/70/70 68/68/68
f 71/71/71 72/72/72 70/70/70
f 75/75/75 74/74/74 73/73/73
f 76/76/76 75/75/75 73/73/73
f 79/79/79 78/78/78 77/77/77
f 78/78/78 79/79/79 80/80/80
f 79/79/79 81/81/81 80/80/80
f 80/80/80 81/81/81 82/82/82
f 85/85/85 84/84/84 83/83/83
f 84/84/84 86/86/86 83/83/83
f 84/84/84 87/87/87 86/86/86
f 84/84/84 88/88/88 87/87/87
f 88/88/88 89/89/89 87/87/87
f 88/88/88 90/90/90 89/89/89
f 90/90/90 88/88/88 91/91/91
f 88/88/88 92/92/92 91/91/91
f 91/91/91 92/92/92 93/93/93
f 93/93/93 92/92/92 94/94/94
f 92/92/92 95/95/95 94/94/94
f 94/94/94 95/95/95 96/96/96
f 96/96/96 95/95/95 97/97/97
f 95/95/95 98/98/98 97/97/97
f 101/101/101 100/100/100 99/99/99
f 102/102/102 101/101/101 99/99/99
f 105/105/105 104/104/104 103/103/103
f 106/106/106 105/105/105 103/103/103
f 109/109/109 108/108/108 107/107/107
f 108/108/108 110/110/110 107/107/107
f 110/110/110 108/108/108 111/111/111
f 112/112/112 110/110/110 111/111/111
f 111/111/111 113/113/113 112/112/112
f 113/113/113 114/114/114 112/112/112
f 117/117/117 116/116/116 115/115/115
f 118/118/118 117/117/117 115/115/115
f 121/121/121 120/120/120 119/119/119
f 122/122/122 121/121/121 119/119/119
f 125/125/125 124/124/124 123/123/123
f 126/126/126 125/125/125 123/123/123
f 129/129/129 128/128/128 127/127/127
f 130/130/130 129/129/129 127/127/127
f 133/133/133 132/132/132 131/131/131
f 134/134/134 133/133/133 131/131/131
f 137/137/137 136/136/136 135/135/135
f 136/136/136 138/138/138 135/135/135
f 138/138/138 139/139/139 135/135/135
f 139/139/139 140/140/140 135/135/135
f 140/140/140 141/141/141 135/135/135
f 142/142/142 141/141/141 140/140/140
f 143/143/143 142/142/142 140/140/140
f 142/142/142 144/144/144 141/141/141
f 144/144/144 145/145/145 141/141/141
f 141/141/141 146/146/146 135/135/135
f 146/146/146 147/147/147 135/135/135
f 148/148/148 146/146/146 141/141/141
f 135/135/135 147/147/147 149/149/149
f 150/150/150 148/148/148 141/141/141
f 147/147/147 151/151/151 149/149/149
f 151/151/151 148/148/148 150/150/150
f 149/149/149 151/151/151 150/150/150
f 154/154/154 153/153/153 152/152/152
f 155/155/155 154/154/154 152/152/152
f 158/158/158 157/157/157 156/156/156
f 159/159/159 158/158/158 156/156/156
f 162/162/162 161/161/161 160/160/160
f 163/163/163 162/162/162 160/160/160
f 166/166/166 165/165/165 164/164/164
f 167/167/167 166/166/166 164/164/164
f 170/170/170 169/169/169 168/168/168
f 168/168/168 171/171/171 170/170/170
f 171/171/171 172/172/172 170/170/170
f 175/175/175 174/174/174 173/173/173
f 176/176/176 175/175/175 173/173/173
f 179/179/179 178/178/178 177/177/177
f 180/180/180 178/178/178 179/179/179
f 178/178/178 181/181/181 177/177/177
f 177/177/177 181/181/181 182/182/182
f 183/183/183 178/178/178 180/180/180
f 178/178/178 183/183/183 181/181/181
f 184/184/184 183/183/183 180/180/180
f 183/183/183 184/184/184 185/185/185
f 183/183/183 185/185/185 182/182/182
f 181/181/181 186/186/186 182/182/182
f 186/186/186 183/183/183 182/182/182
f 183/183/183 186/186/186 181/181/181
f 189/189/189 188/188/188 187/187/187
f 189/189/189 187/187/187 190/190/190
f 188/188/188 191/191/191 187/187/187
f 191/191/191 192/192/192 187/187/187
f 191/191/191 193/193/193 192/192/192
f 187/187/187 194/194/194 190/190/190
f 195/195/195 190/190/190 194/194/194
f 196/196/196 195/195/195 194/194/194
f 197/197/197 192/192/192 193/193/193
f 197/197/197 196/196/196 194/194/194
f 198/198/198 197/197/197 193/193/193
f 198/198/198 196/196/196 197/197/197
f 201/201/201 200/200/200 199/199/199
f 201/201/201 199/199/199 202/202/202
f 200/200/200 203/203/203 199/199/199
f 199/199/199 204/204/204 202/202/202
f 205/205/205 203/203/203 200/200/200
f 206/206/206 202/202/202 204/204/204
f 206/206/206 205/205/205 200/200/200
f 205/205/205 206/206/206 204/204/204
