g car_Customer02
v 1.7690806 2.135347 5.7980137
v 1.7690806 1.6880903 5.7980137
v -1.7727065 1.6880903 5.7980137
v -1.7727065 2.135347 5.7980137
v -3.3925 0.76940155 -5.564716
v -3.3925 0.76940155 -5.371308
v 3.388874 0.76940155 -5.371308
v 3.388874 0.76940155 -5.564716
v -2.7639236 6.6441746 2.256227
v -2.7760115 6.559559 -1.2492962
v 2.7723854 6.559559 -1.2492962
v 2.7723854 6.6441746 2.256227
v 2.8932655 3.1023874 3.1023874
v 2.8932655 0.95072174 2.7880993
v -2.8848038 0.95072174 2.7880993
v -2.8968916 3.1023874 3.1023874
v 3.388874 1.5551224 -5.72186
v 3.388874 1.5551224 -5.528452
v -3.3925 1.5551224 -5.528452
v -3.3925 1.5551224 -5.72186
v -2.2683148 6.100214 -1.4064403
v -2.739747 3.319972 -2.433921
v 2.7482095 3.319972 -2.433921
v 2.264689 6.100214 -1.4064403
v -2.8848038 3.3320599 3.066124
v -2.3891954 6.233182 2.352931
v 2.385569 6.233182 2.352931
v 2.8932655 3.3320599 3.066124
v 1.6844645 1.6397386 -5.528452
v 3.2196417 1.6397386 -5.528452
v 3.2196417 2.5584269 -5.6735077
v 1.6844645 2.5584269 -5.6735077
v 3.388874 3.1023874 -2.5185373
v 3.388874 2.6430435 -5.685596
v 3.388874 1.5551224 -5.528452
v 3.388874 0.76940155 -5.371308
v 3.388874 0.76940155 -2.0712807
v 3.388874 0.76940155 3.187004
v 3.4009619 3.1023874 3.1023874
v 3.388874 1.6880903 5.7980137
v 3.388874 0.76940155 5.7980137
v 3.388874 2.135347 5.7980137
v 3.388874 2.5946913 5.7980137
v 3.364698 3.3320599 2.6672192
v 3.3526099 3.319972 -2.0833688
v 2.8449135 6.2452707 1.9661145
v 2.7723854 6.559559 -1.2492962
v 2.7723854 6.6441746 2.256227
v 2.8449135 6.160654 -1.0075359
v 3.388874 0.76940155 -5.371308
v 3.388874 1.5551224 -5.528452
v 3.388874 1.5551224 -5.72186
v 3.388874 0.76940155 -5.564716
v 3.388874 1.6880903 5.7980137
v 3.388874 0.76940155 5.7980137
v 3.388874 0.76940155 5.967246
v 3.388874 1.6880903 5.967246
v 3.3526099 3.319972 -2.0833688
v 3.364698 3.3320599 2.6672192
v 2.8449135 6.2452707 1.9661145
v 2.8449135 6.160654 -1.0075359
v 2.7723854 6.6441746 2.256227
v 3.4009619 3.1023874 3.1023874
v 2.8932655 3.3320599 3.066124
v 2.385569 6.233182 2.352931
v 2.5789773 2.135347 5.7980137
v 3.388874 2.135347 5.7980137
v 3.388874 1.6880903 5.7980137
v 1.7690806 1.6880903 5.7980137
v 1.7690806 2.135347 5.7980137
v 3.388874 1.6880903 5.967246
v 1.7690806 1.6880903 5.7980137
v 3.388874 1.6880903 5.7980137
v -3.3925 1.6880903 5.967246
v -1.7727065 1.6880903 5.7980137
v -3.3925 1.6880903 5.7980137
v 3.388874 2.135347 5.7980137
v 2.5789773 2.135347 5.7980137
v 2.8811774 2.5946913 5.7980137
v 3.388874 2.5946913 5.7980137
v 3.4009619 3.1023874 3.1023874
v 2.8932655 3.1023874 3.1023874
v 2.8932655 3.3320599 3.066124
v -2.8968916 3.1023874 3.1023874
v -2.8848038 3.3320599 3.066124
v -3.4045877 3.1023874 3.1023874
v 2.8932655 3.1023874 3.1023874
v 2.8811774 2.618867 5.70131
v 2.8811774 0.95072174 5.4716377
v 2.8932655 0.95072174 2.7880993
v 3.4009619 3.1023874 3.1023874
v 2.8811774 2.618867 5.70131
v 2.8932655 3.1023874 3.1023874
v 3.388874 2.5946913 5.7980137
v 2.8811774 2.5946913 5.7980137
v 2.5789773 2.159523 5.70131
v 2.5789773 2.135347 5.7980137
v 1.7690806 2.135347 5.7980137
v -1.7727065 2.135347 5.7980137
v -2.5826035 2.159523 5.70131
v -2.5826035 2.135347 5.7980137
v -2.8848038 2.5946913 5.7980137
v -2.8848038 2.618867 5.70131
v -3.3925 2.5946913 5.7980137
v -3.4045877 3.1023874 3.1023874
v -2.8968916 3.1023874 3.1023874
v 2.8811774 2.618867 5.70131
v 2.5789773 2.159523 5.70131
v 2.8811774 0.95072174 5.4716377
v -2.5826035 2.159523 5.70131
v -2.8848038 0.95072174 5.4716377
v -2.8848038 2.618867 5.70131
v -2.8848038 0.95072174 2.7880993
v 2.8932655 0.95072174 2.7880993
v 2.8811774 0.95072174 5.4716377
v -2.8848038 0.95072174 5.4716377
v -3.3925 0.76940155 5.7980137
v -3.3925 0.76940155 5.967246
v 3.388874 0.76940155 5.967246
v 3.388874 0.76940155 5.7980137
v -3.3925 0.76940155 5.967246
v -3.3925 1.6880903 5.967246
v 3.388874 1.6880903 5.967246
v 3.388874 0.76940155 5.967246
v 3.388874 0.76940155 5.7980137
v -3.3925 0.76940155 3.187004
v -3.3925 0.76940155 5.7980137
v 3.388874 0.76940155 3.187004
v -3.3925 0.76940155 -2.0712807
v 3.388874 0.76940155 -2.0712807
v -3.3925 0.76940155 -5.371308
v 3.388874 0.76940155 -5.371308
v 3.388874 0.76940155 -5.564716
v 3.388874 1.5551224 -5.72186
v -3.3925 1.5551224 -5.72186
v -3.3925 0.76940155 -5.564716
v 2.7723854 6.6441746 2.256227
v 2.385569 6.233182 2.352931
v -2.3891954 6.233182 2.352931
v -2.7639236 6.6441746 2.256227
v -3.3925 3.1023874 -2.5185373
v -3.3925 2.6430435 -5.685596
v 3.388874 2.6430435 -5.685596
v 3.388874 3.1023874 -2.5185373
v -1.6760025 2.5584269 -5.6735077
v -1.6760025 1.6397386 -5.528452
v 1.6844645 1.6397386 -5.528452
v 1.6844645 2.5584269 -5.6735077
v -1.6760025 1.6397386 -5.528452
v -1.6760025 2.5584269 -5.6735077
v -3.2111797 2.5584269 -5.6735077
v -3.2111797 1.6397386 -5.528452
v -3.3925 3.1023874 -2.5185373
v -3.3925 1.5551224 -5.528452
v -3.3925 2.6430435 -5.685596
v -3.3925 0.76940155 -5.371308
v -3.3925 0.76940155 -2.0712807
v -3.3925 0.76940155 3.187004
v -3.4045877 3.1023874 3.1023874
v -3.3925 1.6880903 5.7980137
v -3.3925 0.76940155 5.7980137
v -3.3925 2.135347 5.7980137
v -3.3925 2.5946913 5.7980137
v -3.3683243 3.3320599 2.6672192
v -3.3562355 3.319972 -2.0833688
v -2.8364515 6.2452707 1.9661145
v -2.7760115 6.559559 -1.2492962
v -2.7639236 6.6441746 2.256227
v -2.8485394 6.160654 -1.0075359
v -3.3925 0.76940155 -5.371308
v -3.3925 0.76940155 -5.564716
v -3.3925 1.5551224 -5.72186
v -3.3925 1.5551224 -5.528452
v -3.3925 1.6880903 5.7980137
v -3.3925 1.6880903 5.967246
v -3.3925 0.76940155 5.967246
v -3.3925 0.76940155 5.7980137
v -3.3562355 3.319972 -2.0833688
v -2.8485394 6.160654 -1.0075359
v -2.8364515 6.2452707 1.9661145
v -3.3683243 3.3320599 2.6672192
v -2.7639236 6.6441746 2.256227
v -2.3891954 6.233182 2.352931
v -2.8848038 3.3320599 3.066124
v -3.4045877 3.1023874 3.1023874
v -1.7727065 2.135347 5.7980137
v -1.7727065 1.6880903 5.7980137
v -3.3925 1.6880903 5.7980137
v -2.5826035 2.135347 5.7980137
v -3.3925 2.135347 5.7980137
v -3.3925 2.135347 5.7980137
v -3.3925 2.5946913 5.7980137
v -2.8848038 2.5946913 5.7980137
v -2.5826035 2.135347 5.7980137
v -2.8968916 3.1023874 3.1023874
v -2.8848038 0.95072174 2.7880993
v -2.8848038 0.95072174 5.4716377
v -2.8848038 2.618867 5.70131
v -3.3925 2.6430435 -5.685596
v -3.2111797 2.5584269 -5.6735077
v -1.6760025 2.5584269 -5.6735077
v 1.6844645 2.5584269 -5.6735077
v -3.2111797 1.6397386 -5.528452
v -3.3925 1.5551224 -5.528452
v -1.6760025 1.6397386 -5.528452
v 3.388874 2.6430435 -5.685596
v 3.2196417 2.5584269 -5.6735077
v 3.2196417 1.6397386 -5.528452
v 3.388874 1.5551224 -5.528452
v 1.6844645 1.6397386 -5.528452
v 3.388874 3.1023874 -2.5185373
v 2.264689 6.100214 -1.4064403
v 2.7482095 3.319972 -2.433921
v -2.739747 3.319972 -2.433921
v 2.7723854 6.559559 -1.2492962
v -3.3925 3.1023874 -2.5185373
v -2.7760115 6.559559 -1.2492962
v -2.2683148 6.100214 -1.4064403
vt 0.84287274 0.59271896
vt 0.84287274 0.59271896
vt 0.84287274 0.59271896
vt 0.84287274 0.59271896
vt 0.84287274 0.15409319
vt 0.84287274 0.15409319
vt 0.84287274 0.15409319
vt 0.84287274 0.15409319
vt 0.84287274 0.59271896
vt 0.84287274 0.59271896
vt 0.84287274 0.59271896
vt 0.84287274 0.59271896
vt 0.40767375 0.9045545
vt 0.40767375 0.9045545
vt 0.40767375 0.9045545
vt 0.40767375 0.9045545
vt 0.84287274 0.15409319
vt 0.84287274 0.15409319
vt 0.84287274 0.15409319
vt 0.84287274 0.15409319
vt 0.092411436 0.59271896
vt 0.092411436 0.59271896
vt 0.092411436 0.59271896
vt 0.092411436 0.59271896
vt 0.092411436 0.59271896
vt 0.092411436 0.59271896
vt 0.092411436 0.59271896
vt 0.092411436 0.59271896
vt 0.59614575 0.15409319
vt 0.59614575 0.15409319
vt 0.59614575 0.15409319
vt 0.59614575 0.15409319
vt 0.84287274 0.59271896
vt 0.84287274 0.59271896
vt 0.84287274 0.59271896
vt 0.84287274 0.59271896
vt 0.84287274 0.59271896
vt 0.84287274 0.59271896
vt 0.84287274 0.59271896
vt 0.84287274 0.59271896
vt 0.84287274 0.59271896
vt 0.84287274 0.59271896
vt 0.84287274 0.59271896
vt 0.84287274 0.59271896
vt 0.84287274 0.59271896
vt 0.84287274 0.59271896
vt 0.84287274 0.59271896
vt 0.84287274 0.59271896
vt 0.84287274 0.59271896
vt 0.84287274 0.15409319
vt 0.84287274 0.15409319
vt 0.84287274 0.15409319
vt 0.84287274 0.15409319
vt 0.84287274 0.15409319
vt 0.84287274 0.15409319
vt 0.84287274 0.15409319
vt 0.84287274 0.15409319
vt 0.092411436 0.59271896
vt 0.092411436 0.59271896
vt 0.092411436 0.59271896
vt 0.092411436 0.59271896
vt 0.84287274 0.59271896
vt 0.84287274 0.59271896
vt 0.84287274 0.59271896
vt 0.84287274 0.59271896
vt 0.21920171 0.84287274
vt 0.21920171 0.84287274
vt 0.21920171 0.84287274
vt 0.21920171 0.84287274
vt 0.21920171 0.84287274
vt 0.84287274 0.15409319
vt 0.84287274 0.15409319
vt 0.84287274 0.15409319
vt 0.84287274 0.15409319
vt 0.84287274 0.15409319
vt 0.84287274 0.15409319
vt 0.84287274 0.59271896
vt 0.84287274 0.59271896
vt 0.84287274 0.59271896
vt 0.84287274 0.59271896
vt 0.84287274 0.59271896
vt 0.84287274 0.59271896
vt 0.84287274 0.59271896
vt 0.84287274 0.59271896
vt 0.84287274 0.59271896
vt 0.84287274 0.59271896
vt 0.40767375 0.9045545
vt 0.40767375 0.9045545
vt 0.40767375 0.9045545
vt 0.40767375 0.9045545
vt 0.84287274 0.59271896
vt 0.84287274 0.59271896
vt 0.84287274 0.59271896
vt 0.84287274 0.59271896
vt 0.84287274 0.59271896
vt 0.84287274 0.59271896
vt 0.84287274 0.59271896
vt 0.84287274 0.59271896
vt 0.84287274 0.59271896
vt 0.84287274 0.59271896
vt 0.84287274 0.59271896
vt 0.84287274 0.59271896
vt 0.84287274 0.59271896
vt 0.84287274 0.59271896
vt 0.84287274 0.59271896
vt 0.84287274 0.59271896
vt 0.40767375 0.9045545
vt 0.40767375 0.9045545
vt 0.40767375 0.9045545
vt 0.40767375 0.9045545
vt 0.40767375 0.9045545
vt 0.40767375 0.9045545
vt 0.40767375 0.9045545
vt 0.40767375 0.9045545
vt 0.40767375 0.9045545
vt 0.40767375 0.9045545
vt 0.84287274 0.15409319
vt 0.84287274 0.15409319
vt 0.84287274 0.15409319
vt 0.84287274 0.15409319
vt 0.84287274 0.15409319
vt 0.84287274 0.15409319
vt 0.84287274 0.15409319
vt 0.84287274 0.15409319
vt 0.84287274 0.59271896
vt 0.84287274 0.59271896
vt 0.84287274 0.59271896
vt 0.84287274 0.59271896
vt 0.84287274 0.59271896
vt 0.84287274 0.59271896
vt 0.84287274 0.59271896
vt 0.84287274 0.59271896
vt 0.84287274 0.15409319
vt 0.84287274 0.15409319
vt 0.84287274 0.15409319
vt 0.84287274 0.15409319
vt 0.84287274 0.59271896
vt 0.84287274 0.59271896
vt 0.84287274 0.59271896
vt 0.84287274 0.59271896
vt 0.84287274 0.59271896
vt 0.84287274 0.59271896
vt 0.84287274 0.59271896
vt 0.84287274 0.59271896
vt 0.72293603 0.030729681
vt 0.72293603 0.030729681
vt 0.72293603 0.030729681
vt 0.72293603 0.030729681
vt 0.59614575 0.15409319
vt 0.59614575 0.15409319
vt 0.59614575 0.15409319
vt 0.59614575 0.15409319
vt 0.84287274 0.59271896
vt 0.84287274 0.59271896
vt 0.84287274 0.59271896
vt 0.84287274 0.59271896
vt 0.84287274 0.59271896
vt 0.84287274 0.59271896
vt 0.84287274 0.59271896
vt 0.84287274 0.59271896
vt 0.84287274 0.59271896
vt 0.84287274 0.59271896
vt 0.84287274 0.59271896
vt 0.84287274 0.59271896
vt 0.84287274 0.59271896
vt 0.84287274 0.59271896
vt 0.84287274 0.59271896
vt 0.84287274 0.59271896
vt 0.84287274 0.59271896
vt 0.84287274 0.15409319
vt 0.84287274 0.15409319
vt 0.84287274 0.15409319
vt 0.84287274 0.15409319
vt 0.84287274 0.15409319
vt 0.84287274 0.15409319
vt 0.84287274 0.15409319
vt 0.84287274 0.15409319
vt 0.092411436 0.59271896
vt 0.092411436 0.59271896
vt 0.092411436 0.59271896
vt 0.092411436 0.59271896
vt 0.84287274 0.59271896
vt 0.84287274 0.59271896
vt 0.84287274 0.59271896
vt 0.84287274 0.59271896
vt 0.21920171 0.84287274
vt 0.21920171 0.84287274
vt 0.21920171 0.84287274
vt 0.21920171 0.84287274
vt 0.21920171 0.84287274
vt 0.84287274 0.59271896
vt 0.84287274 0.59271896
vt 0.84287274 0.59271896
vt 0.84287274 0.59271896
vt 0.40767375 0.9045545
vt 0.40767375 0.9045545
vt 0.40767375 0.9045545
vt 0.40767375 0.9045545
vt 0.84287274 0.59271896
vt 0.84287274 0.59271896
vt 0.84287274 0.59271896
vt 0.84287274 0.59271896
vt 0.84287274 0.59271896
vt 0.84287274 0.59271896
vt 0.84287274 0.59271896
vt 0.84287274 0.59271896
vt 0.84287274 0.59271896
vt 0.84287274 0.59271896
vt 0.84287274 0.59271896
vt 0.84287274 0.59271896
vt 0.84287274 0.59271896
vt 0.84287274 0.59271896
vt 0.84287274 0.59271896
vt 0.84287274 0.59271896
vt 0.84287274 0.59271896
vt 0.84287274 0.59271896
vt 0.84287274 0.59271896
vt 0.84287274 0.59271896
vn 0.015870988 0.015871048 0.99974805
vn 0.015870988 0.015871048 0.99974805
vn -0.015871048 0.015871048 0.99974805
vn -0.015871048 0.015871048 0.99974805
vn -0.015871048 -0.999874 -0.00034526698
vn -0.015871048 -0.999874 -0.00034526698
vn -0.015871048 -0.999874 -0.00034526698
vn -0.015871048 -0.999874 -0.00034526698
vn -0.015871048 0.999874 -0.00034526698
vn -0.015871048 0.999874 -0.00034526698
vn -0.015871048 0.999874 -0.00034526698
vn -0.015871048 0.999874 -0.00034526698
vn -0.015871048 -0.14283913 0.98961866
vn -0.015871048 -0.14283913 0.98961866
vn -0.015871048 -0.14283913 0.98961866
vn -0.015871048 -0.14283913 0.98961866
vn -0.015871048 0.999874 -0.00034526698
vn -0.015871048 0.999874 -0.00034526698
vn -0.015871048 0.999874 -0.00034526698
vn -0.015871048 0.999874 -0.00034526698
vn -0.015871048 0.3332913 -0.9426903
vn -0.015871048 0.3332913 -0.9426903
vn -0.015871048 0.3332913 -0.9426903
vn -0.015871048 0.3332913 -0.9426903
vn -0.015871048 0.23806524 0.97111946
vn -0.015871048 0.23806524 0.97111946
vn 0.015870988 0.23806524 0.97111946
vn 0.015870988 0.23806524 0.97111946
vn -0.015871048 -0.1110971 -0.9936828
vn -0.015871048 -0.1110971 -0.9936828
vn -0.015871048 -0.14283913 -0.98961866
vn -0.015871048 -0.14283913 -0.98961866
vn 0.99886817 0.04756513 -0
vn 0.999874 -0.015870988 -0.00034665503
vn 0.999874 -0.015870988 -0.00034665503
vn 0.999874 -0.015870988 -0.00034665503
vn 0.999874 -0.015870988 -0.00034665503
vn 0.999874 -0.015870988 -0.00034665503
vn 0.99886817 0.04756513 -0
vn 0.999874 -0.015870988 -0.00034665503
vn 0.999874 -0.015870988 -0.00034665503
vn 0.999874 0.015871048 -0.00034391563
vn 0.999874 0.015871048 -0.00034391563
vn 0.9850967 0.172001 -0
vn 0.96813196 0.20632327 -0.14195509
vn 0.9850967 0.172001 -0
vn 0.98994946 0.14142141 -0
vn 0.9850967 0.172001 -0
vn 0.9850967 0.172001 -0
vn 0.999874 -0.015870988 -0.00034665503
vn 0.999874 -0.015870988 -0.00034665503
vn 0.999874 0.015871048 -0.00034391563
vn 0.999874 0.015871048 -0.00034391563
vn 0.999874 -0.015870988 -0.00034665503
vn 0.999874 -0.015870988 -0.00034665503
vn 0.999874 0.015871048 -0.00034391563
vn 0.999874 0.015871048 -0.00034391563
vn 0.96813196 0.20632327 -0.14195509
vn 0.9850967 0.172001 -0
vn 0.9850967 0.172001 -0
vn 0.9850967 0.172001 -0
vn -0.047613025 0.20632327 0.9773248
vn -0.047613025 0.23806524 0.9700814
vn 0.07935506 0.23806524 0.9680019
vn 0.07935506 0.26980734 0.9596389
vn 0.015870988 -0.015870988 0.99974805
vn 0.015870988 -0.015870988 0.99974805
vn 0.015870988 0.015871048 0.99974805
vn 0.015870988 0.015871048 0.99974805
vn 0.015870988 0.015871048 0.99974805
vn -0.015871048 0.999874 -0.00034526698
vn -0.015871048 0.999874 -0.00034526698
vn -0.015871048 0.999874 -0.00034526698
vn -0.015871048 0.999874 -0.00034526698
vn -0.015871048 0.999874 -0.00034526698
vn -0.015871048 0.999874 -0.00034526698
vn 0.015870988 -0.015870988 0.99974805
vn 0.015870988 -0.015870988 0.99974805
vn 0.015870988 -0.015870988 0.99974805
vn 0.015870988 0.015871048 0.99974805
vn 0.015870988 0.17458117 0.98451483
vn 0.015870988 0.17458117 0.98451483
vn -0.015871048 0.17458117 0.98451483
vn -0.015871048 0.17458117 0.98451483
vn 0.015870988 0.17458117 0.98451483
vn -0.015871048 0.17458117 0.98451483
vn -0.999874 0.015871048 -0.00034391563
vn -0.9938838 -0.110431515 -0
vn -0.999874 0.015871048 -0.00034391563
vn -0.999874 0.015871048 -0.00034391563
vn -0.015871048 0.968132 0.24993704
vn -0.2684583 0.96329135 -0
vn -0.015871048 0.968132 0.24993704
vn -0.015871048 0.968132 0.24993704
vn -0.7459378 0.5237435 0.41142374
vn -0.49200153 0.8411639 0.2244501
vn -0.46025944 0.87290585 0.16185382
vn 0.015870988 0.968132 0.24993704
vn -0.015871048 0.968132 0.24993704
vn 0.49200147 0.8411639 0.22445023
vn 0.46025944 0.87290585 0.16185382
vn 0.7459377 0.5237435 0.41142398
vn 0.26845825 0.96329135 -0
vn 0.015870988 0.968132 0.24993704
vn 0.015870988 0.968132 0.24993704
vn 0.015870988 0.968132 0.24993704
vn -0.26980734 0.015871048 -0.9627835
vn -0.1110971 0.1428392 -0.98349094
vn -0.015871048 0.17458117 -0.98451483
vn 0.1110971 0.1428392 -0.98349094
vn 0.015870988 0.17458117 -0.98451483
vn 0.26980728 0.015871048 -0.9627835
vn -0.015871048 0.999874 -0.00034526698
vn -0.015871048 0.999874 -0.00034526698
vn -0.015871048 0.999874 -0.00034526698
vn -0.015871048 0.999874 -0.00034526698
vn -0.015871048 -0.999874 -0.00034526698
vn -0.015871048 -0.999874 -0.00034526698
vn -0.015871048 -0.999874 -0.00034526698
vn -0.015871048 -0.999874 -0.00034526698
vn -0.015871048 0.015871048 0.99974805
vn -0.015871048 0.015871048 0.99974805
vn 0.015870988 0.015871048 0.99974805
vn 0.015870988 0.015871048 0.99974805
vn -0.015871048 -0.999874 -0.00034526698
vn -0.015871048 -0.999874 -0.00034526698
vn -0.015871048 -0.999874 -0.00034526698
vn -0.015871048 -0.999874 -0.00034526698
vn -0.015871048 -0.999874 -0.00034526698
vn -0.015871048 -0.999874 -0.00034526698
vn -0.015871048 -0.999874 -0.00034526698
vn -0.015871048 -0.999874 -0.00034526698
vn -0.015871048 -0.2063232 -0.97835517
vn -0.015871048 -0.2063232 -0.97835517
vn -0.015871048 -0.2063232 -0.97835517
vn -0.015871048 -0.2063232 -0.97835517
vn 0.015870988 0.20632327 0.97835517
vn 0.015870988 0.20632327 0.97835517
vn -0.015871048 0.20632327 0.97835517
vn -0.015871048 0.20632327 0.97835517
vn -0.015871048 0.999874 -0.00034526698
vn -0.015871048 0.999874 -0.00034526698
vn -0.015871048 0.999874 -0.00034526698
vn -0.015871048 0.999874 -0.00034526698
vn 0.015870988 -0.14283913 -0.98961866
vn 0.015870988 -0.1110971 -0.9936828
vn -0.015871048 -0.1110971 -0.9936828
vn -0.015871048 -0.14283913 -0.98961866
vn 0.015870988 -0.1110971 -0.9936828
vn 0.015870988 -0.14283913 -0.98961866
vn 0.015870988 -0.14283913 -0.98961866
vn 0.015870988 -0.1110971 -0.9936828
vn -0.99886817 0.04756513 -0
vn -0.999874 -0.015870988 -0.00034665503
vn -0.999874 -0.015870988 -0.00034665503
vn -0.999874 -0.015870988 -0.00034665503
vn -0.999874 -0.015870988 -0.00034665503
vn -0.999874 -0.015870988 -0.00034665503
vn -0.99886817 0.04756513 -0
vn -0.999874 -0.015870988 -0.00034665503
vn -0.999874 -0.015870988 -0.00034665503
vn -0.999874 0.015871048 -0.00034391563
vn -0.999874 0.015871048 -0.00034391563
vn -0.9850967 0.172001 -0
vn -0.968132 0.20632327 -0.14195466
vn -0.9850967 0.172001 -0
vn -0.98994946 0.14142141 -0
vn -0.9850967 0.172001 -0
vn -0.9850967 0.172001 -0
vn -0.999874 -0.015870988 -0.00034665503
vn -0.999874 0.015871048 -0.00034391563
vn -0.999874 0.015871048 -0.00034391563
vn -0.999874 -0.015870988 -0.00034665503
vn -0.999874 -0.015870988 -0.00034665503
vn -0.999874 0.015871048 -0.00034391563
vn -0.999874 0.015871048 -0.00034391563
vn -0.999874 -0.015870988 -0.00034665503
vn -0.968132 0.20632327 -0.14195466
vn -0.9850967 0.172001 -0
vn -0.9850967 0.172001 -0
vn -0.9850967 0.172001 -0
vn 0.047613025 0.20632327 0.9773248
vn -0.07935512 0.26980734 0.9596389
vn -0.07935512 0.23806524 0.9680019
vn 0.047613025 0.23806524 0.9700814
vn -0.015871048 0.015871048 0.99974805
vn -0.015871048 0.015871048 0.99974805
vn -0.015871048 0.015871048 0.99974805
vn -0.015871048 -0.015870988 0.99974805
vn -0.015871048 -0.015870988 0.99974805
vn -0.015871048 -0.015870988 0.99974805
vn -0.015871048 0.015871048 0.99974805
vn -0.015871048 -0.015870988 0.99974805
vn -0.015871048 -0.015870988 0.99974805
vn 0.999874 0.015871048 -0.00034391563
vn 0.999874 0.015871048 -0.00034391563
vn 0.999874 0.015871048 -0.00034391563
vn 0.9938838 -0.110431515 -0
vn -0.047613025 -0.14283913 -0.9886
vn -0.047613025 -0.1110971 -0.99266833
vn 0.015870988 -0.047613025 -0.9987398
vn -0.015871048 -0.047613025 -0.9987398
vn 0.015870988 -0.1110971 -0.9936828
vn 0.047613025 -0.1110971 -0.99266833
vn 0.015870988 -0.1110971 -0.9936828
vn 0.047613025 -0.14283913 -0.9886
vn 0.047613025 -0.1110971 -0.99266833
vn -0.015871048 -0.1110971 -0.9936828
vn -0.047613025 -0.1110971 -0.99266833
vn -0.015871048 -0.1110971 -0.9936828
vn 0.015870988 0.3332913 -0.9426903
vn -0.015871048 0.3332913 -0.9426903
vn -0.015871048 0.3332913 -0.9426903
vn 0.015870988 0.3332913 -0.9426903
vn 0.015870988 0.3650334 -0.93085915
vn 0.015870988 0.3332913 -0.9426903
vn 0.015870988 0.3332913 -0.9426903
vn 0.015870988 0.3332913 -0.9426903
g car_Customer02_0
f 3/3/3 2/2/2 1/1/1
f 4/4/4 3/3/3 1/1/1
f 7/7/7 6/6/6 5/5/5
f 8/8/8 7/7/7 5/5/5
f 11/11/11 10/10/10 9/9/9
f 12/12/12 11/11/11 9/9/9
f 15/15/15 14/14/14 13/13/13
f 16/16/16 15/15/15 13/13/13
f 19/19/19 18/18/18 17/17/17
f 20/20/20 19/19/19 17/17/17
f 23/23/23 22/22/22 21/21/21
f 24/24/24 23/23/23 21/21/21
f 27/27/27 26/26/26 25/25/25
f 28/28/28 27/27/27 25/25/25
f 31/31/31 30/30/30 29/29/29
f 32/32/32 31/31/31 29/29/29
f 35/35/35 34/34/34 33/33/33
f 36/36/36 35/35/35 33/33/33
f 37/37/37 36/36/36 33/33/33
f 38/38/38 37/37/37 33/33/33
f 39/39/39 38/38/38 33/33/33
f 39/39/39 40/40/40 38/38/38
f 40/40/40 41/41/41 38/38/38
f 42/42/42 40/40/40 39/39/39
f 43/43/43 42/42/42 39/39/39
f 44/44/44 39/39/39 33/33/33
f 45/45/45 44/44/44 33/33/33
f 44/44/44 46/46/46 39/39/39
f 45/45/45 33/33/33 47/47/47
f 46/46/46 48/48/48 39/39/39
f 49/49/49 45/45/45 47/47/47
f 49/49/49 47/47/47 48/48/48
f 46/46/46 49/49/49 48/48/48
f 52/52/52 51/51/51 50/50/50
f 53/53/53 52/52/52 50/50/50
f 56/56/56 55/55/55 54/54/54
f 57/57/57 56/56/56 54/54/54
f 60/60/60 59/59/59 58/58/58
f 61/61/61 60/60/60 58/58/58
f 64/64/64 63/63/63 62/62/62
f 65/65/65 64/64/64 62/62/62
f 68/68/68 67/67/67 66/66/66
f 66/66/66 69/69/69 68/68/68
f 66/66/66 70/70/70 69/69/69
f 73/73/73 72/72/72 71/71/71
f 74/74/74 71/71/71 72/72/72
f 75/75/75 74/74/74 72/72/72
f 75/75/75 76/76/76 74/74/74
f 79/79/79 78/78/78 77/77/77
f 80/80/80 79/79/79 77/77/77
f 83/83/83 82/82/82 81/81/81
f 82/82/82 83/83/83 84/84/84
f 83/83/83 85/85/85 84/84/84
f 84/84/84 85/85/85 86/86/86
f 89/89/89 88/88/88 87/87/87
f 90/90/90 89/89/89 87/87/87
f 93/93/93 92/92/92 91/91/91
f 92/92/92 94/94/94 91/91/91
f 92/92/92 95/95/95 94/94/94
f 92/92/92 96/96/96 95/95/95
f 96/96/96 97/97/97 95/95/95
f 96/96/96 98/98/98 97/97/97
f 98/98/98 96/96/96 99/99/99
f 96/96/96 100/100/100 99/99/99
f 99/99/99 100/100/100 101/101/101
f 101/101/101 100/100/100 102/102/102
f 100/100/100 103/103/103 102/102/102
f 102/102/102 103/103/103 104/104/104
f 104/104/104 103/103/103 105/105/105
f 103/103/103 106/106/106 105/105/105
f 109/109/109 108/108/108 107/107/107
f 108/108/108 109/109/109 110/110/110
f 109/109/109 111/111/111 110/110/110
f 110/110/110 111/111/111 112/112/112
f 115/115/115 114/114/114 113/113/113
f 116/116/116 115/115/115 113/113/113
f 119/119/119 118/118/118 117/117/117
f 120/120/120 119/119/119 117/117/117
f 123/123/123 122/122/122 121/121/121
f 124/124/124 123/123/123 121/121/121
f 127/127/127 126/126/126 125/125/125
f 126/126/126 128/128/128 125/125/125
f 128/128/128 126/126/126 129/129/129
f 130/130/130 128/128/128 129/129/129
f 129/129/129 131/131/131 130/130/130
f 131/131/131 132/132/132 130/130/130
f 135/135/135 134/134/134 133/133/133
f 136/136/136 135/135/135 133/133/133
f 139/139/139 138/138/138 137/137/137
f 140/140/140 139/139/139 137/137/137
f 143/143/143 142/142/142 141/141/141
f 144/144/144 143/143/143 141/141/141
f 147/147/147 146/146/146 145/145/145
f 148/148/148 147/147/147 145/145/145
f 151/151/151 150/150/150 149/149/149
f 152/152/152 151/151/151 149/149/149
f 155/155/155 154/154/154 153/153/153
f 154/154/154 156/156/156 153/153/153
f 156/156/156 157/157/157 153/153/153
f 157/157/157 158/158/158 153/153/153
f 158/158/158 159/159/159 153/153/153
f 160/160/160 159/159/159 158/158/158
f 161/161/161 160/160/160 158/158/158
f 160/160/160 162/162/162 159/159/159
f 162/162/162 163/163/163 159/159/159
f 159/159/159 164/164/164 153/153/153
f 164/164/164 165/165/165 153/153/153
f 166/166/166 164/164/164 159/159/159
f 153/153/153 165/165/165 167/167/167
f 168/168/168 166/166/166 159/159/159
f 165/165/165 169/169/169 167/167/167
f 169/169/169 166/166/166 168/168/168
f 167/167/167 169/169/169 168/168/168
f 172/172/172 171/171/171 170/170/170
f 173/173/173 172/172/172 170/170/170
f 176/176/176 175/175/175 174/174/174
f 177/177/177 176/176/176 174/174/174
f 180/180/180 179/179/179 178/178/178
f 181/181/181 180/180/180 178/178/178
f 184/184/184 183/183/183 182/182/182
f 185/185/185 184/184/184 182/182/182
f 188/188/188 187/187/187 186/186/186
f 186/186/186 189/189/189 188/188/188
f 189/189/189 190/190/190 188/188/188
f 193/193/193 192/192/192 191/191/191
f 194/194/194 193/193/193 191/191/191
f 197/197/197 196/196/196 195/195/195
f 198/198/198 197/197/197 195/195/195
f 201/201/201 200/200/200 199/199/199
f 201/201/201 199/199/199 202/202/202
f 200/200/200 203/203/203 199/199/199
f 203/203/203 204/204/204 199/199/199
f 203/203/203 205/205/205 204/204/204
f 199/199/199 206/206/206 202/202/202
f 207/207/207 202/202/202 206/206/206
f 208/208/208 207/207/207 206/206/206
f 209/209/209 204/204/204 205/205/205
f 209/209/209 208/208/208 206/206/206
f 210/210/210 209/209/209 205/205/205
f 210/210/210 208/208/208 209/209/209
f 213/213/213 212/212/212 211/211/211
f 213/213/213 211/211/211 214/214/214
f 212/212/212 215/215/215 211/211/211
f 211/211/211 216/216/216 214/214/214
f 217/217/217 215/215/215 212/212/212
f 218/218/218 214/214/214 216/216/216
f 218/218/218 217/217/217 212/212/212
f 217/217/217 218/218/218 216/216/216
