g car_Customer03
v 1.7670722 2.145197 5.880707
v 1.7670722 1.6856232 5.880707
v -1.7681108 1.6856232 5.880707
v -1.7681108 2.145197 5.880707
v -3.3942947 0.7664757 -5.8561006
v -3.3942947 0.7664757 -5.655773
v 3.3932562 0.7664757 -5.655773
v 3.3932562 0.7664757 -5.8561006
v -2.7697458 5.4918365 2.0980616
v -2.7815304 5.397566 -2.1088064
v 2.780491 5.397566 -2.1088064
v 2.7687073 5.4918365 2.0980616
v 2.8865466 3.0996962 3.0996962
v 2.8865466 0.955019 2.8286657
v -2.8875856 0.955019 2.8286657
v -2.8875856 3.0996962 3.0996962
v 3.3932562 1.5559998 -6.0092916
v 3.3932562 1.5559998 -5.8089647
v -3.3942947 1.5559998 -5.8089647
v -3.3942947 1.5559998 -6.0092916
v -2.2630367 4.9497757 -2.3091335
v -2.7461786 3.3235912 -3.5464475
v 2.7451394 3.3235912 -3.5464475
v 2.2619977 4.9497757 -2.3091335
v -2.8875856 3.3235912 3.0525608
v -2.3808756 5.079399 2.2041168
v 2.391621 5.079399 2.2041168
v 2.8865466 3.3235912 3.0525608
v 1.6845846 1.6384873 -5.8207483
v 3.2164972 1.6384873 -5.8207483
v 3.2164972 2.5576353 -5.962156
v 1.6845846 2.5576353 -5.962156
v 3.3932562 3.0996962 -3.640719
v 3.3932562 2.651907 -5.962156
v 3.3932562 1.5559998 -5.8089647
v 3.3932562 0.7664757 -5.655773
v 3.3932562 0.7664757 -2.3562691
v 3.3932562 0.7664757 2.8993692
v 3.4050403 3.0996962 3.0996962
v 3.3932562 1.6856232 5.868923
v 3.3932562 0.7664757 5.868923
v 3.3932562 2.145197 5.868923
v 3.3932562 2.592987 5.868923
v 3.3932562 0.7664757 -5.655773
v 3.3932562 1.5559998 -5.8089647
v 3.3932562 1.5559998 -6.0092916
v 3.3932562 0.7664757 -5.8561006
v 3.3932562 3.0996962 -3.640719
v 2.780491 5.397566 -2.1088064
v 2.2619977 4.9497757 -2.3091335
v 2.7451394 3.3235912 -3.5464475
v 3.3932562 1.6856232 5.868923
v 3.3932562 0.7664757 5.868923
v 3.3932562 0.7664757 6.045682
v 3.3932562 1.6856232 6.045682
v 3.3579044 3.3235912 -3.1104417
v 3.3579044 3.3235912 2.5812035
v 2.839411 5.0911827 1.732759
v 2.8511949 5.0086956 -1.8377757
v 2.7687073 5.4918365 2.0980616
v 3.4050403 3.0996962 3.0996962
v 2.8865466 3.3235912 3.0525608
v 2.391621 5.079399 2.2041168
v 2.5801642 2.145197 5.868923
v 3.3932562 2.145197 5.868923
v 3.3932562 1.6856232 5.868923
v 1.7670722 1.6856232 5.880707
v 1.7670722 2.145197 5.880707
v 3.3932562 1.6856232 6.045682
v 1.7670722 1.6856232 5.880707
v 3.3932562 1.6856232 5.868923
v -3.3942947 1.6856232 6.045682
v -1.7681108 1.6856232 5.880707
v -3.3942947 1.6856232 5.868923
v 3.3932562 2.145197 5.868923
v 2.5801642 2.145197 5.868923
v 2.8865466 2.592987 5.880707
v 3.3932562 2.592987 5.868923
v 3.4050403 3.0996962 3.0996962
v 2.8865466 3.0996962 3.0996962
v 2.8865466 3.3235912 3.0525608
v -2.8875856 3.0996962 3.0996962
v -2.8875856 3.3235912 3.0525608
v -3.4060793 3.0996962 3.0996962
v 2.8865466 3.0996962 3.0996962
v 2.8865466 2.6165552 5.7746515
v 2.8865466 0.955019 5.562541
v 2.8865466 0.955019 2.8286657
v 3.4050403 3.0996962 3.0996962
v 2.8865466 2.6165552 5.7746515
v 2.8865466 3.0996962 3.0996962
v 3.3932562 2.592987 5.868923
v 2.8865466 2.592987 5.880707
v 2.5801642 2.1569815 5.7746515
v 2.5801642 2.145197 5.868923
v 1.7670722 2.145197 5.880707
v -1.7681108 2.145197 5.880707
v -2.5812035 2.1569815 5.7746515
v -2.5812035 2.145197 5.868923
v -2.8875856 2.592987 5.880707
v -2.8875856 2.6165552 5.7746515
v -3.3942947 2.592987 5.868923
v -3.4060793 3.0996962 3.0996962
v -2.8875856 3.0996962 3.0996962
v 2.8865466 2.6165552 5.7746515
v 2.5801642 2.1569815 5.7746515
v 2.8865466 0.955019 5.562541
v -2.5812035 2.1569815 5.7746515
v -2.8875856 0.955019 5.562541
v -2.8875856 2.6165552 5.7746515
v -2.8875856 0.955019 2.8286657
v 2.8865466 0.955019 2.8286657
v 2.8865466 0.955019 5.562541
v -2.8875856 0.955019 5.562541
v -3.3942947 0.7664757 5.868923
v -3.3942947 0.7664757 6.045682
v 3.3932562 0.7664757 6.045682
v 3.3932562 0.7664757 5.868923
v -3.3942947 0.7664757 6.045682
v -3.3942947 1.6856232 6.045682
v 3.3932562 1.6856232 6.045682
v 3.3932562 0.7664757 6.045682
v 3.3932562 0.7664757 5.868923
v -3.3942947 0.7664757 2.8993692
v -3.3942947 0.7664757 5.868923
v 3.3932562 0.7664757 2.8993692
v -3.3942947 0.7664757 -2.3562691
v 3.3932562 0.7664757 -2.3562691
v -3.3942947 0.7664757 -5.655773
v 3.3932562 0.7664757 -5.655773
v 3.3932562 0.7664757 -5.8561006
v 3.3932562 1.5559998 -6.0092916
v -3.3942947 1.5559998 -6.0092916
v -3.3942947 0.7664757 -5.8561006
v 2.2619977 4.9497757 -2.3091335
v 2.780491 5.397566 -2.1088064
v -2.7815304 5.397566 -2.1088064
v -2.2630367 4.9497757 -2.3091335
v 2.7687073 5.4918365 2.0980616
v 2.391621 5.079399 2.2041168
v -2.3808756 5.079399 2.2041168
v -2.7697458 5.4918365 2.0980616
v -3.3942947 3.0996962 -3.640719
v -3.3942947 2.651907 -5.962156
v 3.3932562 2.651907 -5.962156
v 3.3932562 3.0996962 -3.640719
v -1.6856232 2.5576353 -5.962156
v -1.6856232 1.6384873 -5.8207483
v 1.6845846 1.6384873 -5.8207483
v 1.6845846 2.5576353 -5.962156
v -2.7461786 3.3235912 -3.5464475
v -3.3942947 3.0996962 -3.640719
v 3.3932562 3.0996962 -3.640719
v 2.7451394 3.3235912 -3.5464475
v -1.6856232 1.6384873 -5.8207483
v -1.6856232 2.5576353 -5.962156
v -3.217536 2.5576353 -5.962156
v -3.217536 1.6384873 -5.8207483
v -3.3942947 3.0996962 -3.640719
v -3.3942947 1.5559998 -5.8089647
v -3.3942947 2.651907 -5.962156
v -3.3942947 0.7664757 -5.655773
v -3.3942947 0.7664757 -2.3562691
v -3.3942947 0.7664757 2.8993692
v -3.4060793 3.0996962 3.0996962
v -3.3942947 1.6856232 5.868923
v -3.3942947 0.7664757 5.868923
v -3.3942947 2.145197 5.868923
v -3.3942947 2.592987 5.868923
v -3.3942947 0.7664757 -5.655773
v -3.3942947 0.7664757 -5.8561006
v -3.3942947 1.5559998 -6.0092916
v -3.3942947 1.5559998 -5.8089647
v -3.3942947 3.0996962 -3.640719
v -2.7461786 3.3235912 -3.5464475
v -2.2630367 4.9497757 -2.3091335
v -2.7815304 5.397566 -2.1088064
v -3.3942947 1.6856232 5.868923
v -3.3942947 1.6856232 6.045682
v -3.3942947 0.7664757 6.045682
v -3.3942947 0.7664757 5.868923
v -3.358943 3.3235912 -3.1104417
v -2.852234 5.0086956 -1.8377757
v -2.8404493 5.0911827 1.732759
v -3.358943 3.3235912 2.5812035
v -2.7697458 5.4918365 2.0980616
v -2.3808756 5.079399 2.2041168
v -2.8875856 3.3235912 3.0525608
v -3.4060793 3.0996962 3.0996962
v -1.7681108 2.145197 5.880707
v -1.7681108 1.6856232 5.880707
v -3.3942947 1.6856232 5.868923
v -2.5812035 2.145197 5.868923
v -3.3942947 2.145197 5.868923
v -3.3942947 2.145197 5.868923
v -3.3942947 2.592987 5.868923
v -2.8875856 2.592987 5.880707
v -2.5812035 2.145197 5.868923
v -2.8875856 3.0996962 3.0996962
v -2.8875856 0.955019 2.8286657
v -2.8875856 0.955019 5.562541
v -2.8875856 2.6165552 5.7746515
v -3.3942947 2.651907 -5.962156
v -3.217536 2.5576353 -5.962156
v -1.6856232 2.5576353 -5.962156
v 1.6845846 2.5576353 -5.962156
v -3.217536 1.6384873 -5.8207483
v -3.3942947 1.5559998 -5.8089647
v -1.6856232 1.6384873 -5.8207483
v 3.3932562 2.651907 -5.962156
v 3.2164972 2.5576353 -5.962156
v 3.2164972 1.6384873 -5.8207483
v 3.3932562 1.5559998 -5.8089647
v 1.6845846 1.6384873 -5.8207483
v -2.7815304 5.397566 -2.1088064
v -2.852234 5.0086956 -1.8377757
v -3.358943 3.3235912 -3.1104417
v -3.3942947 3.0996962 -3.640719
v -2.7697458 5.4918365 2.0980616
v -3.358943 3.3235912 2.5812035
v -2.8404493 5.0911827 1.732759
v -3.4060793 3.0996962 3.0996962
v 2.780491 5.397566 -2.1088064
v 3.3932562 3.0996962 -3.640719
v 3.3579044 3.3235912 -3.1104417
v 2.8511949 5.0086956 -1.8377757
v 3.3579044 3.3235912 2.5812035
v 2.7687073 5.4918365 2.0980616
v 3.4050403 3.0996962 3.0996962
v 2.839411 5.0911827 1.732759
vt 0.5295981 0.40230063
vt 0.5295981 0.40230063
vt 0.5295981 0.40230063
vt 0.5295981 0.40230063
vt 0.84268105 0.15458667
vt 0.84268105 0.15458667
vt 0.84268105 0.15458667
vt 0.84268105 0.15458667
vt 0.5915266 0.90805006
vt 0.5915266 0.90805006
vt 0.5915266 0.90805006
vt 0.5915266 0.90805006
vt 0.3438126 0.6568955
vt 0.3438126 0.6568955
vt 0.3438126 0.6568955
vt 0.3438126 0.6568955
vt 0.84268105 0.15458667
vt 0.84268105 0.15458667
vt 0.84268105 0.15458667
vt 0.84268105 0.15458667
vt 0.09265818 0.5915266
vt 0.09265818 0.5915266
vt 0.09265818 0.5915266
vt 0.09265818 0.5915266
vt 0.09265818 0.5915266
vt 0.09265818 0.5915266
vt 0.09265818 0.5915266
vt 0.09265818 0.5915266
vt 0.594967 0.1511462
vt 0.594967 0.1511462
vt 0.594967 0.1511462
vt 0.594967 0.1511462
vt 0.5295981 0.40230063
vt 0.5295981 0.40230063
vt 0.5295981 0.40230063
vt 0.5295981 0.40230063
vt 0.5295981 0.40230063
vt 0.5295981 0.40230063
vt 0.5295981 0.40230063
vt 0.5295981 0.40230063
vt 0.5295981 0.40230063
vt 0.5295981 0.40230063
vt 0.5295981 0.40230063
vt 0.84268105 0.15458667
vt 0.84268105 0.15458667
vt 0.84268105 0.15458667
vt 0.84268105 0.15458667
vt 0.5915266 0.90805006
vt 0.5915266 0.90805006
vt 0.5915266 0.90805006
vt 0.5915266 0.90805006
vt 0.84268105 0.15458667
vt 0.84268105 0.15458667
vt 0.84268105 0.15458667
vt 0.84268105 0.15458667
vt 0.09265818 0.5915266
vt 0.09265818 0.5915266
vt 0.09265818 0.5915266
vt 0.09265818 0.5915266
vt 0.5915266 0.90805006
vt 0.5915266 0.90805006
vt 0.5915266 0.90805006
vt 0.5915266 0.90805006
vt 0.21995564 0.84268105
vt 0.21995564 0.84268105
vt 0.21995564 0.84268105
vt 0.21995564 0.84268105
vt 0.21995564 0.84268105
vt 0.84268105 0.15458667
vt 0.84268105 0.15458667
vt 0.84268105 0.15458667
vt 0.84268105 0.15458667
vt 0.84268105 0.15458667
vt 0.84268105 0.15458667
vt 0.5295981 0.40230063
vt 0.5295981 0.40230063
vt 0.5295981 0.40230063
vt 0.5295981 0.40230063
vt 0.5915266 0.90805006
vt 0.5915266 0.90805006
vt 0.5915266 0.90805006
vt 0.5915266 0.90805006
vt 0.5915266 0.90805006
vt 0.5915266 0.90805006
vt 0.3438126 0.6568955
vt 0.3438126 0.6568955
vt 0.3438126 0.6568955
vt 0.3438126 0.6568955
vt 0.5295981 0.40230063
vt 0.5295981 0.40230063
vt 0.5295981 0.40230063
vt 0.5295981 0.40230063
vt 0.5295981 0.40230063
vt 0.5295981 0.40230063
vt 0.5295981 0.40230063
vt 0.5295981 0.40230063
vt 0.5295981 0.40230063
vt 0.5295981 0.40230063
vt 0.5295981 0.40230063
vt 0.5295981 0.40230063
vt 0.5295981 0.40230063
vt 0.5295981 0.40230063
vt 0.5295981 0.40230063
vt 0.5295981 0.40230063
vt 0.3438126 0.6568955
vt 0.3438126 0.6568955
vt 0.3438126 0.6568955
vt 0.3438126 0.6568955
vt 0.3438126 0.6568955
vt 0.3438126 0.6568955
vt 0.3438126 0.6568955
vt 0.3438126 0.6568955
vt 0.3438126 0.6568955
vt 0.3438126 0.6568955
vt 0.84268105 0.15458667
vt 0.84268105 0.15458667
vt 0.84268105 0.15458667
vt 0.84268105 0.15458667
vt 0.84268105 0.15458667
vt 0.84268105 0.15458667
vt 0.84268105 0.15458667
vt 0.84268105 0.15458667
vt 0.5295981 0.40230063
vt 0.5295981 0.40230063
vt 0.5295981 0.40230063
vt 0.5295981 0.40230063
vt 0.5295981 0.40230063
vt 0.5295981 0.40230063
vt 0.5295981 0.40230063
vt 0.5295981 0.40230063
vt 0.84268105 0.15458667
vt 0.84268105 0.15458667
vt 0.84268105 0.15458667
vt 0.84268105 0.15458667
vt 0.5915266 0.90805006
vt 0.5915266 0.90805006
vt 0.5915266 0.90805006
vt 0.5915266 0.90805006
vt 0.5915266 0.90805006
vt 0.5915266 0.90805006
vt 0.5915266 0.90805006
vt 0.5915266 0.90805006
vt 0.5295981 0.40230063
vt 0.5295981 0.40230063
vt 0.5295981 0.40230063
vt 0.5295981 0.40230063
vt 0.7222645 0.030729681
vt 0.7222645 0.030729681
vt 0.7222645 0.030729681
vt 0.7222645 0.030729681
vt 0.5915266 0.90805006
vt 0.5915266 0.90805006
vt 0.5915266 0.90805006
vt 0.5915266 0.90805006
vt 0.594967 0.1511462
vt 0.594967 0.1511462
vt 0.594967 0.1511462
vt 0.594967 0.1511462
vt 0.5295981 0.40230063
vt 0.5295981 0.40230063
vt 0.5295981 0.40230063
vt 0.5295981 0.40230063
vt 0.5295981 0.40230063
vt 0.5295981 0.40230063
vt 0.5295981 0.40230063
vt 0.5295981 0.40230063
vt 0.5295981 0.40230063
vt 0.5295981 0.40230063
vt 0.5295981 0.40230063
vt 0.84268105 0.15458667
vt 0.84268105 0.15458667
vt 0.84268105 0.15458667
vt 0.84268105 0.15458667
vt 0.5915266 0.90805006
vt 0.5915266 0.90805006
vt 0.5915266 0.90805006
vt 0.5915266 0.90805006
vt 0.84268105 0.15458667
vt 0.84268105 0.15458667
vt 0.84268105 0.15458667
vt 0.84268105 0.15458667
vt 0.09265818 0.5915266
vt 0.09265818 0.5915266
vt 0.09265818 0.5915266
vt 0.09265818 0.5915266
vt 0.5915266 0.90805006
vt 0.5915266 0.90805006
vt 0.5915266 0.90805006
vt 0.5915266 0.90805006
vt 0.21995564 0.84268105
vt 0.21995564 0.84268105
vt 0.21995564 0.84268105
vt 0.21995564 0.84268105
vt 0.21995564 0.84268105
vt 0.5295981 0.40230063
vt 0.5295981 0.40230063
vt 0.5295981 0.40230063
vt 0.5295981 0.40230063
vt 0.3438126 0.6568955
vt 0.3438126 0.6568955
vt 0.3438126 0.6568955
vt 0.3438126 0.6568955
vt 0.5295981 0.40230063
vt 0.5295981 0.40230063
vt 0.5295981 0.40230063
vt 0.5295981 0.40230063
vt 0.5295981 0.40230063
vt 0.5295981 0.40230063
vt 0.5295981 0.40230063
vt 0.5295981 0.40230063
vt 0.5295981 0.40230063
vt 0.5295981 0.40230063
vt 0.5295981 0.40230063
vt 0.5295981 0.40230063
vt 0.5915266 0.90805006
vt 0.5915266 0.90805006
vt 0.5915266 0.90805006
vt 0.5915266 0.90805006
vt 0.5915266 0.90805006
vt 0.5915266 0.90805006
vt 0.5915266 0.90805006
vt 0.5915266 0.90805006
vt 0.5915266 0.90805006
vt 0.5915266 0.90805006
vt 0.5915266 0.90805006
vt 0.5915266 0.90805006
vt 0.5915266 0.90805006
vt 0.5915266 0.90805006
vt 0.5915266 0.90805006
vt 0.5915266 0.90805006
vn 0.015870988 0.015871048 0.99974805
vn 0.015870988 0.015871048 0.99974805
vn -0.015871048 0.015871048 0.99974805
vn -0.015871048 0.015871048 0.99974805
vn -0.015871048 -0.999874 -0.00034526698
vn -0.015871048 -0.999874 -0.00034526698
vn -0.015871048 -0.999874 -0.00034526698
vn -0.015871048 -0.999874 -0.00034526698
vn -0.015871048 0.999874 -0.00034526698
vn -0.015871048 0.999874 -0.00034526698
vn -0.015871048 0.999874 -0.00034526698
vn -0.015871048 0.999874 -0.00034526698
vn -0.015871048 -0.14283913 0.98961866
vn -0.015871048 -0.14283913 0.98961866
vn -0.015871048 -0.14283913 0.98961866
vn -0.015871048 -0.14283913 0.98961866
vn -0.015871048 0.999874 -0.00034526698
vn -0.015871048 0.999874 -0.00034526698
vn -0.015871048 0.999874 -0.00034526698
vn -0.015871048 0.999874 -0.00034526698
vn -0.015871048 0.6189697 -0.78525454
vn -0.015871048 0.6189697 -0.78525454
vn -0.015871048 0.6189697 -0.78525454
vn -0.015871048 0.6189697 -0.78525454
vn -0.015871048 0.42851746 0.9033941
vn -0.015871048 0.42851746 0.9033941
vn 0.015870988 0.42851746 0.9033941
vn 0.015870988 0.42851746 0.9033941
vn -0.015871048 -0.1110971 -0.9936828
vn -0.015871048 -0.1110971 -0.9936828
vn -0.015871048 -0.14283913 -0.98961866
vn -0.015871048 -0.14283913 -0.98961866
vn 0.9968654 0.079116344 -0
vn 0.999874 -0.015870988 -0.00034665503
vn 0.999874 -0.015870988 -0.00034665503
vn 0.999874 -0.015870988 -0.00034665503
vn 0.999874 -0.015870988 -0.00034665503
vn 0.999874 -0.015870988 -0.00034665503
vn 0.9968654 0.079116344 -0
vn 0.999874 -0.015870988 -0.00034665503
vn 0.999874 -0.015870988 -0.00034665503
vn 0.999874 0.015871048 -0.00034391563
vn 0.999874 0.015871048 -0.00034391563
vn 0.999874 -0.015870988 -0.00034665503
vn 0.999874 -0.015870988 -0.00034665503
vn 0.999874 0.015871048 -0.00034391563
vn 0.999874 0.015871048 -0.00034391563
vn -0.015871048 0.5554856 -0.8313747
vn -0.015871048 0.5872276 -0.80926627
vn -0.07935512 0.5554856 -0.82773095
vn -0.07935512 0.5554856 -0.82773095
vn 0.999874 -0.015870988 -0.00034665503
vn 0.999874 -0.015870988 -0.00034665503
vn 0.999874 0.015871048 -0.00034391563
vn 0.999874 0.015871048 -0.00034391563
vn 0.96813196 0.23806524 -0.07775266
vn 0.96813196 0.23806524 -0.07775266
vn 0.96813196 0.23806524 -0.07775266
vn 0.96813196 0.23806524 0.07775266
vn -0.07935512 0.3650334 0.9276063
vn -0.07935512 0.39677536 0.91447914
vn 0.047613025 0.39677536 0.91668004
vn 0.047613025 0.42851746 0.90227807
vn 0.015870988 -0.015870988 0.99974805
vn 0.015870988 -0.015870988 0.99974805
vn 0.015870988 0.015871048 0.99974805
vn 0.015870988 0.015871048 0.99974805
vn 0.015870988 0.015871048 0.99974805
vn -0.015871048 0.999874 -0.00034526698
vn -0.015871048 0.999874 -0.00034526698
vn -0.015871048 0.999874 -0.00034526698
vn -0.015871048 0.999874 -0.00034526698
vn -0.015871048 0.999874 -0.00034526698
vn -0.015871048 0.999874 -0.00034526698
vn 0.015870988 -0.015870988 0.99974805
vn 0.015870988 -0.015870988 0.99974805
vn 0.015870988 -0.015870988 0.99974805
vn 0.015870988 0.015871048 0.99974805
vn 0.015870988 0.20632327 0.97835517
vn 0.015870988 0.20632327 0.97835517
vn -0.015871048 0.20632327 0.97835517
vn -0.015871048 0.20632327 0.97835517
vn 0.015870988 0.20632327 0.97835517
vn -0.015871048 0.20632327 0.97835517
vn -0.999874 0.015871048 -0.00034391563
vn -0.9938838 -0.110431515 -0
vn -0.999874 0.015871048 -0.00034391563
vn -0.999874 0.015871048 -0.00034391563
vn 0.015870988 0.968132 0.24993704
vn -0.2684583 0.96329135 -0
vn 0.015870988 0.968132 0.24993704
vn 0.015870988 0.968132 0.24993704
vn -0.7459378 0.5237435 0.41142374
vn -0.49200153 0.8411639 0.2244501
vn -0.46025944 0.87290585 0.16185382
vn 0.015870988 0.968132 0.24993704
vn -0.015871048 0.968132 0.24993704
vn 0.49200147 0.8411639 0.22445023
vn 0.46025944 0.87290585 0.16185382
vn 0.7459377 0.5237435 0.41142398
vn 0.26845825 0.96329135 -0
vn -0.015871048 0.968132 0.24993704
vn -0.015871048 0.968132 0.24993704
vn -0.015871048 0.968132 0.24993704
vn -0.26980734 0.015871048 -0.9627835
vn -0.1110971 0.1428392 -0.98349094
vn -0.015871048 0.17458117 -0.98451483
vn 0.1110971 0.1428392 -0.98349094
vn 0.015870988 0.17458117 -0.98451483
vn 0.26980728 0.015871048 -0.9627835
vn -0.015871048 0.999874 -0.00034526698
vn -0.015871048 0.999874 -0.00034526698
vn -0.015871048 0.999874 -0.00034526698
vn -0.015871048 0.999874 -0.00034526698
vn -0.015871048 -0.999874 -0.00034526698
vn -0.015871048 -0.999874 -0.00034526698
vn -0.015871048 -0.999874 -0.00034526698
vn -0.015871048 -0.999874 -0.00034526698
vn -0.015871048 0.015871048 0.99974805
vn -0.015871048 0.015871048 0.99974805
vn 0.015870988 0.015871048 0.99974805
vn 0.015870988 0.015871048 0.99974805
vn -0.015871048 -0.999874 -0.00034526698
vn -0.015871048 -0.999874 -0.00034526698
vn -0.015871048 -0.999874 -0.00034526698
vn -0.015871048 -0.999874 -0.00034526698
vn -0.015871048 -0.999874 -0.00034526698
vn -0.015871048 -0.999874 -0.00034526698
vn -0.015871048 -0.999874 -0.00034526698
vn -0.015871048 -0.999874 -0.00034526698
vn -0.015871048 -0.2063232 -0.97835517
vn -0.015871048 -0.2063232 -0.97835517
vn -0.015871048 -0.2063232 -0.97835517
vn -0.015871048 -0.2063232 -0.97835517
vn -0.015871048 0.39677536 -0.9177785
vn -0.015871048 0.39677536 -0.9177785
vn 0.015870988 0.39677536 -0.9177785
vn 0.015870988 0.39677536 -0.9177785
vn 0.015870988 0.26980734 0.9627835
vn 0.015870988 0.26980734 0.9627835
vn -0.015871048 0.26980734 0.9627835
vn -0.015871048 0.26980734 0.9627835
vn -0.015871048 0.968132 -0.24993704
vn -0.015871048 0.968132 -0.24993704
vn -0.015871048 0.968132 -0.24993704
vn -0.015871048 0.968132 -0.24993704
vn 0.015870988 -0.14283913 -0.98961866
vn 0.015870988 -0.1110971 -0.9936828
vn -0.015871048 -0.1110971 -0.9936828
vn -0.015871048 -0.14283913 -0.98961866
vn 0.015870988 0.39677536 -0.9177785
vn 0.015870988 0.39677536 -0.9177785
vn -0.015871048 0.39677536 -0.9177785
vn -0.015871048 0.39677536 -0.9177785
vn 0.015870988 -0.1110971 -0.9936828
vn 0.015870988 -0.14283913 -0.98961866
vn 0.015870988 -0.14283913 -0.98961866
vn 0.015870988 -0.1110971 -0.9936828
vn -0.9968654 0.079116344 -0
vn -0.999874 -0.015870988 -0.00034665503
vn -0.999874 -0.015870988 -0.00034665503
vn -0.999874 -0.015870988 -0.00034665503
vn -0.999874 -0.015870988 -0.00034665503
vn -0.999874 -0.015870988 -0.00034665503
vn -0.9968654 0.079116344 -0
vn -0.999874 -0.015870988 -0.00034665503
vn -0.999874 -0.015870988 -0.00034665503
vn -0.999874 0.015871048 -0.00034391563
vn -0.999874 0.015871048 -0.00034391563
vn -0.999874 -0.015870988 -0.00034665503
vn -0.999874 0.015871048 -0.00034391563
vn -0.999874 0.015871048 -0.00034391563
vn -0.999874 -0.015870988 -0.00034665503
vn 0.015870988 0.5554856 -0.8313747
vn 0.07935506 0.5554856 -0.82773095
vn 0.07935506 0.5554856 -0.82773095
vn 0.015870988 0.5872276 -0.80926627
vn -0.999874 -0.015870988 -0.00034665503
vn -0.999874 0.015871048 -0.00034391563
vn -0.999874 0.015871048 -0.00034391563
vn -0.999874 -0.015870988 -0.00034665503
vn -0.968132 0.23806524 -0.07775189
vn -0.968132 0.23806524 0.07775189
vn -0.968132 0.23806524 -0.07775189
vn -0.968132 0.23806524 -0.07775189
vn 0.07935506 0.3650334 0.9276063
vn -0.047613025 0.42851746 0.90227807
vn -0.047613025 0.39677536 0.91668004
vn 0.07935506 0.39677536 0.91447914
vn -0.015871048 0.015871048 0.99974805
vn -0.015871048 0.015871048 0.99974805
vn -0.015871048 0.015871048 0.99974805
vn -0.015871048 -0.015870988 0.99974805
vn -0.015871048 -0.015870988 0.99974805
vn -0.015871048 -0.015870988 0.99974805
vn -0.015871048 0.015871048 0.99974805
vn -0.015871048 -0.015870988 0.99974805
vn -0.015871048 -0.015870988 0.99974805
vn 0.999874 0.015871048 -0.00034391563
vn 0.999874 0.015871048 -0.00034391563
vn 0.999874 0.015871048 -0.00034391563
vn 0.9938838 -0.110431515 -0
vn -0.047613025 -0.14283913 -0.9886
vn -0.047613025 -0.1110971 -0.99266833
vn 0.015870988 -0.047613025 -0.9987398
vn -0.015871048 -0.047613025 -0.9987398
vn 0.015870988 -0.1110971 -0.9936828
vn 0.047613025 -0.1110971 -0.99266833
vn 0.015870988 -0.1110971 -0.9936828
vn 0.047613025 -0.14283913 -0.9886
vn 0.047613025 -0.1110971 -0.99266833
vn -0.015871048 -0.1110971 -0.9936828
vn -0.047613025 -0.1110971 -0.99266833
vn -0.015871048 -0.1110971 -0.9936828
vn -0.968132 0.20632327 0.14195466
vn -0.968132 0.23806524 0.07775189
vn -0.968132 0.23806524 -0.07775189
vn -0.9968654 0.079116344 -0
vn -0.968132 0.23806524 -0.07775189
vn -0.968132 0.23806524 -0.07775189
vn -0.968132 0.23806524 -0.07775189
vn -0.9968654 0.079116344 -0
vn 0.96813196 0.20632327 0.14195509
vn 0.9968654 0.079116344 -0
vn 0.96813196 0.23806524 -0.07775266
vn 0.96813196 0.23806524 0.07775266
vn 0.96813196 0.23806524 -0.07775266
vn 0.96813196 0.23806524 -0.07775266
vn 0.9968654 0.079116344 -0
vn 0.96813196 0.23806524 -0.07775266
g car_Customer03_0
f 3/3/3 2/2/2 1/1/1
f 4/4/4 3/3/3 1/1/1
f 7/7/7 6/6/6 5/5/5
f 8/8/8 7/7/7 5/5/5
f 11/11/11 10/10/10 9/9/9
f 12/12/12 11/11/11 9/9/9
f 15/15/15 14/14/14 13/13/13
f 16/16/16 15/15/15 13/13/13
f 19/19/19 18/18/18 17/17/17
f 20/20/20 19/19/19 17/17/17
f 23/23/23 22/22/22 21/21/21
f 24/24/24 23/23/23 21/21/21
f 27/27/27 26/26/26 25/25/25
f 28/28/28 27/27/27 25/25/25
f 31/31/31 30/30/30 29/29/29
f 32/32/32 31/31/31 29/29/29
f 35/35/35 34/34/34 33/33/33
f 36/36/36 35/35/35 33/33/33
f 37/37/37 36/36/36 33/33/33
f 38/38/38 37/37/37 33/33/33
f 39/39/39 38/38/38 33/33/33
f 39/39/39 40/40/40 38/38/38
f 40/40/40 41/41/41 38/38/38
f 42/42/42 40/40/40 39/39/39
f 43/43/43 42/42/42 39/39/39
f 46/46/46 45/45/45 44/44/44
f 47/47/47 46/46/46 44/44/44
f 50/50/50 49/49/49 48/48/48
f 51/51/51 50/50/50 48/48/48
f 54/54/54 53/53/53 52/52/52
f 55/55/55 54/54/54 52/52/52
f 58/58/58 57/57/57 56/56/56
f 59/59/59 58/58/58 56/56/56
f 62/62/62 61/61/61 60/60/60
f 63/63/63 62/62/62 60/60/60
f 66/66/66 65/65/65 64/64/64
f 64/64/64 67/67/67 66/66/66
f 64/64/64 68/68/68 67/67/67
f 71/71/71 70/70/70 69/69/69
f 72/72/72 69/69/69 70/70/70
f 73/73/73 72/72/72 70/70/70
f 73/73/73 74/74/74 72/72/72
f 77/77/77 76/76/76 75/75/75
f 78/78/78 77/77/77 75/75/75
f 81/81/81 80/80/80 79/79/79
f 80/80/80 81/81/81 82/82/82
f 81/81/81 83/83/83 82/82/82
f 82/82/82 83/83/83 84/84/84
f 87/87/87 86/86/86 85/85/85
f 88/88/88 87/87/87 85/85/85
f 91/91/91 90/90/90 89/89/89
f 90/90/90 92/92/92 89/89/89
f 90/90/90 93/93/93 92/92/92
f 90/90/90 94/94/94 93/93/93
f 94/94/94 95/95/95 93/93/93
f 94/94/94 96/96/96 95/95/95
f 96/96/96 94/94/94 97/97/97
f 94/94/94 98/98/98 97/97/97
f 97/97/97 98/98/98 99/99/99
f 99/99/99 98/98/98 100/100/100
f 98/98/98 101/101/101 100/100/100
f 100/100/100 101/101/101 102/102/102
f 102/102/102 101/101/101 103/103/103
f 101/101/101 104/104/104 103/103/103
f 107/107/107 106/106/106 105/105/105
f 106/106/106 107/107/107 108/108/108
f 107/107/107 109/109/109 108/108/108
f 108/108/108 109/109/109 110/110/110
f 113/113/113 112/112/112 111/111/111
f 114/114/114 113/113/113 111/111/111
f 117/117/117 116/116/116 115/115/115
f 118/118/118 117/117/117 115/115/115
f 121/121/121 120/120/120 119/119/119
f 122/122/122 121/121/121 119/119/119
f 125/125/125 124/124/124 123/123/123
f 124/124/124 126/126/126 123/123/123
f 126/126/126 124/124/124 127/127/127
f 128/128/128 126/126/126 127/127/127
f 127/127/127 129/129/129 128/128/128
f 129/129/129 130/130/130 128/128/128
f 133/133/133 132/132/132 131/131/131
f 134/134/134 133/133/133 131/131/131
f 137/137/137 136/136/136 135/135/135
f 138/138/138 137/137/137 135/135/135
f 141/141/141 140/140/140 139/139/139
f 142/142/142 141/141/141 139/139/139
f 145/145/145 144/144/144 143/143/143
f 146/146/146 145/145/145 143/143/143
f 149/149/149 148/148/148 147/147/147
f 150/150/150 149/149/149 147/147/147
f 153/153/153 152/152/152 151/151/151
f 154/154/154 153/153/153 151/151/151
f 157/157/157 156/156/156 155/155/155
f 158/158/158 157/157/157 155/155/155
f 161/161/161 160/160/160 159/159/159
f 160/160/160 162/162/162 159/159/159
f 162/162/162 163/163/163 159/159/159
f 163/163/163 164/164/164 159/159/159
f 164/164/164 165/165/165 159/159/159
f 166/166/166 165/165/165 164/164/164
f 167/167/167 166/166/166 164/164/164
f 166/166/166 168/168/168 165/165/165
f 168/168/168 169/169/169 165/165/165
f 172/172/172 171/171/171 170/170/170
f 173/173/173 172/172/172 170/170/170
f 176/176/176 175/175/175 174/174/174
f 177/177/177 176/176/176 174/174/174
f 180/180/180 179/179/179 178/178/178
f 181/181/181 180/180/180 178/178/178
f 184/184/184 183/183/183 182/182/182
f 185/185/185 184/184/184 182/182/182
f 188/188/188 187/187/187 186/186/186
f 189/189/189 188/188/188 186/186/186
f 192/192/192 191/191/191 190/190/190
f 190/190/190 193/193/193 192/192/192
f 193/193/193 194/194/194 192/192/192
f 197/197/197 196/196/196 195/195/195
f 198/198/198 197/197/197 195/195/195
f 201/201/201 200/200/200 199/199/199
f 202/202/202 201/201/201 199/199/199
f 205/205/205 204/204/204 203/203/203
f 205/205/205 203/203/203 206/206/206
f 204/204/204 207/207/207 203/203/203
f 207/207/207 208/208/208 203/203/203
f 207/207/207 209/209/209 208/208/208
f 203/203/203 210/210/210 206/206/206
f 211/211/211 206/206/206 210/210/210
f 212/212/212 211/211/211 210/210/210
f 213/213/213 208/208/208 209/209/209
f 213/213/213 212/212/212 210/210/210
f 214/214/214 213/213/213 209/209/209
f 214/214/214 212/212/212 213/213/213
f 217/217/217 216/216/216 215/215/215
f 218/218/218 217/217/217 215/215/215
f 215/215/215 216/216/216 219/219/219
f 220/220/220 217/217/217 218/218/218
f 216/216/216 221/221/221 219/219/219
f 222/222/222 220/220/220 218/218/218
f 219/219/219 221/221/221 222/222/222
f 221/221/221 220/220/220 222/222/222
f 225/225/225 224/224/224 223/223/223
f 226/226/226 225/225/225 223/223/223
f 225/225/225 227/227/227 224/224/224
f 226/226/226 223/223/223 228/228/228
f 227/227/227 229/229/229 224/224/224
f 230/230/230 226/226/226 228/228/228
f 230/230/230 228/228/228 229/229/229
f 227/227/227 230/230/230 229/229/229
