g car_Customer04_Trunk
v 1.7655818 -0.9576529 2.7712502
v 2.878603 -0.5000148 2.7712502
v 2.5791607 -0.9576529 2.7712502
v -1.7712259 -0.9576529 2.7712502
v -2.8842473 -0.5000148 2.7712502
v -2.584805 -0.9576529 2.7712502
v -2.8898969 0.0028221607 -0.0028276443
v 2.8899026 0.0028221607 0.0028221607
v 2.878603 -0.5000148 2.7712502
v -2.8842473 -0.5000148 2.7712502
v 1.7655818 -0.9576529 2.6695528
v 2.5791607 -0.9576529 2.6752024
v 2.878603 -0.61866164 2.6808524
v -1.7712259 -0.9576529 2.6695528
v -2.8842473 -0.61866164 2.6752024
v -2.584805 -0.9576529 2.6695528
v -2.8898969 -0.098875284 -0.025427103
v -2.8842473 -0.61866164 2.6752024
v 2.878603 -0.61866164 2.6808524
v 2.8899026 -0.098875284 -0.019777298
v 2.5791607 -0.9576529 2.7712502
v 2.5791607 -0.9576529 2.6752024
v 1.7655818 -0.9576529 2.6695528
v 1.7655818 -0.9576529 2.7712502
v -1.7712259 -0.9576529 2.6695528
v -1.7712259 -0.9576529 2.7712502
v -2.584805 -0.9576529 2.6695528
v -2.584805 -0.9576529 2.7712502
v 2.878603 -0.5000148 2.7712502
v 2.878603 -0.61866164 2.6808524
v 2.5791607 -0.9576529 2.6752024
v 2.5791607 -0.9576529 2.7712502
v -2.584805 -0.9576529 2.7712502
v -2.584805 -0.9576529 2.6695528
v -2.8842473 -0.61866164 2.6752024
v -2.8842473 -0.5000148 2.7712502
v -2.8898969 0.0028221607 -0.0028276443
v -2.8898969 -0.098875284 -0.025427103
v 2.8899026 -0.098875284 -0.019777298
v 2.8899026 0.0028221607 0.0028221607
v -2.8842473 -0.5000148 2.7712502
v -2.8842473 -0.61866164 2.6752024
v -2.8898969 -0.098875284 -0.025427103
v -2.8898969 0.0028221607 -0.0028276443
v 2.8899026 0.0028221607 0.0028221607
v 2.8899026 -0.098875284 -0.019777298
v 2.878603 -0.61866164 2.6808524
v 2.878603 -0.5000148 2.7712502
vt 0.09248994 0.65805763
vt 0.09248994 0.65805763
vt 0.09248994 0.65805763
vt 0.09248994 0.65805763
vt 0.09248994 0.65805763
vt 0.09248994 0.65805763
vt 0.09248994 0.65805763
vt 0.09248994 0.65805763
vt 0.09248994 0.65805763
vt 0.09248994 0.65805763
vt 0.09248994 0.65805763
vt 0.09248994 0.65805763
vt 0.09248994 0.65805763
vt 0.09248994 0.65805763
vt 0.09248994 0.65805763
vt 0.09248994 0.65805763
vt 0.09248994 0.65805763
vt 0.09248994 0.65805763
vt 0.09248994 0.65805763
vt 0.09248994 0.65805763
vt 0.09248994 0.65805763
vt 0.09248994 0.65805763
vt 0.09248994 0.65805763
vt 0.09248994 0.65805763
vt 0.09248994 0.65805763
vt 0.09248994 0.65805763
vt 0.09248994 0.65805763
vt 0.09248994 0.65805763
vt 0.09248994 0.65805763
vt 0.09248994 0.65805763
vt 0.09248994 0.65805763
vt 0.09248994 0.65805763
vt 0.09248994 0.65805763
vt 0.09248994 0.65805763
vt 0.09248994 0.65805763
vt 0.09248994 0.65805763
vt 0.09248994 0.65805763
vt 0.09248994 0.65805763
vt 0.09248994 0.65805763
vt 0.09248994 0.65805763
vt 0.09248994 0.65805763
vt 0.09248994 0.65805763
vt 0.09248994 0.65805763
vt 0.09248994 0.65805763
vt 0.09248994 0.65805763
vt 0.09248994 0.65805763
vt 0.09248994 0.65805763
vt 0.09248994 0.65805763
vn -0.015870929 0.015870929 0.99974805
vn -0.015870929 0.015870929 0.99974805
vn -0.015870929 0.015870929 0.99974805
vn -0.015870929 0.015870929 0.99974805
vn -0.015870929 -0.015871108 0.99974805
vn -0.015870929 -0.015871108 0.99974805
vn -0.015870929 0.9681319 0.2499374
vn -0.015870929 0.9681319 0.2499374
vn -0.015870929 0.9681319 0.2499374
vn -0.015870929 0.9681319 0.2499374
vn 0.015871108 0.015870929 -0.99974805
vn 0.015871108 0.015870929 -0.99974805
vn 0.015871108 0.015870929 -0.99974805
vn 0.015871108 0.015870929 -0.99974805
vn 0.015871108 0.015870929 -0.99974805
vn 0.015871108 0.015870929 -0.99974805
vn 0.015871108 -0.9681321 -0.2499368
vn 0.015871108 -0.9681321 -0.2499368
vn 0.015871108 -0.9681321 -0.2499368
vn 0.015871108 -0.9681321 -0.2499368
vn -0.015870929 -0.9998741 -0
vn -0.015870929 -0.9998741 -0
vn -0.015870929 -0.9998741 -0
vn -0.015870929 -0.9998741 -0
vn -0.015870929 -0.9998741 -0
vn -0.015870929 -0.9998741 -0
vn -0.015870929 -0.9998741 -0
vn -0.015870929 -0.9998741 -0
vn 0.7459378 -0.55548567 0.36744037
vn 0.7459378 -0.55548567 0.36744037
vn 0.7459378 -0.55548567 0.36744037
vn 0.7459378 -0.55548567 0.36744037
vn -0.7459377 -0.55548567 0.3674406
vn -0.7459377 -0.55548567 0.3674406
vn -0.7459377 -0.55548567 0.3674406
vn -0.7459377 -0.55548567 0.3674406
vn 0.015871108 0.20632315 -0.97835517
vn 0.015871108 0.20632315 -0.97835517
vn 0.015871108 0.20632315 -0.97835517
vn 0.015871108 0.20632315 -0.97835517
vn -0.9998739 -0.015871108 -0.00059565494
vn -0.9998739 -0.015871108 -0.00059565494
vn -0.9998739 -0.015871108 -0.00059565494
vn -0.9998739 -0.015871108 -0.00059565494
vn 0.9998741 -0.015871108 -0
vn 0.9998741 -0.015871108 -0
vn 0.9998741 -0.015871108 -0
vn 0.9998741 -0.015871108 -0
g car_Customer04_Trunk_0
f 3/3/3 2/2/2 1/1/1
f 1/1/1 2/2/2 4/4/4
f 2/2/2 5/5/5 4/4/4
f 4/4/4 5/5/5 6/6/6
f 9/9/9 8/8/8 7/7/7
f 10/10/10 9/9/9 7/7/7
f 13/13/13 12/12/12 11/11/11
f 13/13/13 11/11/11 14/14/14
f 15/15/15 13/13/13 14/14/14
f 15/15/15 14/14/14 16/16/16
f 19/19/19 18/18/18 17/17/17
f 20/20/20 19/19/19 17/17/17
f 23/23/23 22/22/22 21/21/21
f 24/24/24 23/23/23 21/21/21
f 25/25/25 23/23/23 24/24/24
f 26/26/26 25/25/25 24/24/24
f 27/27/27 25/25/25 26/26/26
f 28/28/28 27/27/27 26/26/26
f 31/31/31 30/30/30 29/29/29
f 32/32/32 31/31/31 29/29/29
f 35/35/35 34/34/34 33/33/33
f 36/36/36 35/35/35 33/33/33
f 39/39/39 38/38/38 37/37/37
f 40/40/40 39/39/39 37/37/37
f 43/43/43 42/42/42 41/41/41
f 44/44/44 43/43/43 41/41/41
f 47/47/47 46/46/46 45/45/45
f 48/48/48 47/47/47 45/45/45
