g car_Wheels
v 2.9604354 0.39238632 -2.252696
v 2.9604354 4.2070317E-14 -3.2000015
v 2.960435 0.39238632 -4.1473064
v 2.9604354 1.3396912 -1.8603092
v 2.960435 1.3396913 -4.539693
v 2.9604354 2.286996 -2.252696
v 2.960435 2.286996 -4.1473064
v 2.9604354 2.6793826 -3.2000003
v 2.9604366 0.39238614 3.9609842
v 2.9604363 -1.0852017E-07 3.0136786
v 2.9604363 0.39238614 2.0663738
v 2.9604366 1.3396909 4.3533707
v 2.9604363 1.339691 1.6739883
v 2.9604366 2.2869956 3.9609842
v 2.9604363 2.2869956 2.0663738
v 2.9604363 2.6793823 3.0136795
v 3.7328959 0.39238673 -4.1473055
v 3.7328959 0.63180465 -3.9078875
v 3.7328959 1.3396915 -4.201104
v 3.732896 1.3396915 -4.539692
v 3.7328959 2.0475783 -3.9078875
v 3.7328959 2.2869964 -4.1473055
v 3.7328959 2.3407946 -3.2000015
v 3.7328959 2.6793826 -3.2000015
v 3.7328959 2.0475783 -2.4921145
v 3.7328959 2.2869964 -2.2526965
v 3.7328959 1.3396913 -2.198898
v 3.7328966 1.3396913 -1.8603098
v 3.7328959 0.63180465 -2.4921145
v 3.7328959 0.39238673 -2.2526965
v 3.7328959 0.33858815 -3.200001
v 3.7328959 5.304764E-14 -3.200001
v 3.7328959 0.63180465 -3.9078875
v 3.7328975 2.2869961 3.9609842
v 3.7328975 1.339691 4.014782
v 3.7328975 1.339691 4.3533697
v 3.7328975 2.047578 3.7215662
v 3.7328975 2.6793823 3.0136786
v 3.7328975 2.3407943 3.0136786
v 3.732897 2.2869961 2.0663743
v 3.732897 2.047578 2.3057923
v 3.732897 1.3396913 1.6739872
v 3.732897 1.3396913 2.0125751
v 3.732897 0.39238656 2.0663743
v 3.732897 0.63180447 2.3057923
v 3.7328975 -1.08520155E-07 3.013679
v 3.7328975 0.338588 3.013679
v 3.7328975 1.339691 4.3533697
v 3.7328975 1.339691 4.014782
v 3.7328975 0.63180447 3.7215662
v 3.7328975 0.39238656 3.9609842
v 3.7328975 0.338588 3.013679
v 3.7328975 -1.08520155E-07 3.013679
v -2.960435 0.39238632 -4.1473064
v -2.9604354 4.2070317E-14 -3.2000015
v -2.9604354 0.39238632 -2.252696
v -2.960435 1.3396913 -4.539693
v -2.9604354 1.3396912 -1.8603092
v -2.9604354 2.286996 -2.252696
v -2.960435 2.286996 -4.1473064
v -2.9604354 2.6793826 -3.2000003
v -2.9604363 0.39238614 2.0663738
v -2.9604363 -1.0852017E-07 3.0136786
v -2.9604366 0.39238614 3.9609842
v -2.9604363 1.339691 1.6739883
v -2.9604366 1.3396909 4.3533707
v -2.9604366 2.2869956 3.9609842
v -2.9604363 2.2869956 2.0663738
v -2.9604363 2.6793823 3.0136795
v -3.7328959 0.39238673 -4.1473055
v -3.7328959 1.3396915 -4.201104
v -3.7328959 0.63180465 -3.9078875
v -3.732896 1.3396915 -4.539692
v -3.7328959 2.0475783 -3.9078875
v -3.7328959 2.2869964 -4.1473055
v -3.7328959 2.3407946 -3.2000015
v -3.7328959 2.6793826 -3.2000015
v -3.7328959 2.0475783 -2.4921145
v -3.7328959 2.2869964 -2.2526965
v -3.7328959 1.3396913 -2.198898
v -3.7328966 1.3396913 -1.8603098
v -3.7328959 0.63180465 -2.4921145
v -3.7328959 0.39238673 -2.2526965
v -3.7328959 0.33858815 -3.200001
v -3.7328959 5.304764E-14 -3.200001
v -3.7328959 0.63180465 -3.9078875
v -3.7328975 2.2869961 3.9609842
v -3.7328975 1.339691 4.3533697
v -3.7328975 1.339691 4.014782
v -3.7328975 2.047578 3.7215662
v -3.7328975 2.6793823 3.0136786
v -3.7328975 2.3407943 3.0136786
v -3.732897 2.2869961 2.0663743
v -3.732897 2.047578 2.3057923
v -3.732897 1.3396913 1.6739872
v -3.732897 1.3396913 2.0125751
v -3.732897 0.39238656 2.0663743
v -3.732897 0.63180447 2.3057923
v -3.7328975 -1.08520155E-07 3.013679
v -3.7328975 0.338588 3.013679
v -3.7328975 1.339691 4.3533697
v -3.7328975 0.63180447 3.7215662
v -3.7328975 1.339691 4.014782
v -3.7328975 0.39238656 3.9609842
v -3.7328975 0.338588 3.013679
v -3.7328975 -1.08520155E-07 3.013679
v -3.6415231 1.3396913 2.0125751
v -3.6415231 2.047578 2.3057923
v -3.6415238 1.3396912 3.0136786
v -3.6415231 0.63180447 2.3057923
v -3.6415238 2.3407943 3.0136786
v -3.6415238 0.338588 3.013679
v -3.6415238 2.047578 3.7215662
v -3.6415238 0.63180447 3.7215662
v -3.6415238 1.339691 4.014782
v -3.641522 1.3396915 -4.201104
v -3.641522 2.0475783 -3.9078875
v -3.641522 1.3396914 -3.2000003
v -3.641522 0.63180465 -3.9078875
v -3.641522 2.3407946 -3.2000015
v -3.641522 0.33858815 -3.200001
v -3.641522 2.0475783 -2.4921143
v -3.641522 0.63180465 -2.4921143
v -3.641522 1.3396913 -2.198898
v 3.6415231 1.3396913 2.0125751
v 3.6415238 1.3396912 3.0136786
v 3.6415231 2.047578 2.3057923
v 3.6415231 0.63180447 2.3057923
v 3.6415238 2.3407943 3.0136786
v 3.6415238 0.338588 3.013679
v 3.6415238 2.047578 3.7215662
v 3.6415238 0.63180447 3.7215662
v 3.6415238 1.339691 4.014782
v 3.641522 1.3396915 -4.201104
v 3.641522 1.3396914 -3.2000003
v 3.641522 2.0475783 -3.9078875
v 3.641522 0.63180465 -3.9078875
v 3.641522 2.3407946 -3.2000015
v 3.641522 0.33858815 -3.200001
v 3.641522 2.0475783 -2.4921143
v 3.641522 0.63180465 -2.4921143
v 3.641522 1.3396913 -2.198898
v -3.7328959 0.33858815 -3.200001
v -3.7328959 0.63180465 -3.9078875
v -3.641522 0.63180465 -3.9078875
v -3.641522 0.33858815 -3.200001
v -3.641522 1.3396915 -4.201104
v -3.7328959 0.63180465 -2.4921145
v -3.7328959 1.3396915 -4.201104
v -3.641522 0.63180465 -2.4921143
v -3.641522 2.0475783 -3.9078875
v -3.7328959 1.3396913 -2.198898
v -3.7328959 2.0475783 -3.9078875
v -3.641522 1.3396913 -2.198898
v -3.641522 2.3407946 -3.2000015
v -3.7328959 2.0475783 -2.4921145
v -3.7328959 2.3407946 -3.2000015
v -3.641522 2.0475783 -2.4921143
v -3.7328975 2.047578 3.7215662
v -3.7328975 1.339691 4.014782
v -3.6415238 1.339691 4.014782
v -3.6415238 2.047578 3.7215662
v -3.6415238 0.63180447 3.7215662
v -3.7328975 2.3407943 3.0136786
v -3.7328975 0.63180447 3.7215662
v -3.6415238 2.3407943 3.0136786
v -3.6415238 0.338588 3.013679
v -3.732897 2.047578 2.3057923
v -3.7328975 0.338588 3.013679
v -3.6415231 2.047578 2.3057923
v -3.6415231 0.63180447 2.3057923
v -3.732897 1.3396913 2.0125751
v -3.732897 0.63180447 2.3057923
v -3.6415231 1.3396913 2.0125751
v -3.732897 1.3396913 1.6739872
v -2.9604363 1.339691 1.6739883
v -2.9604363 2.2869956 2.0663738
v -3.732897 0.39238656 2.0663743
v -3.732897 2.2869961 2.0663743
v -2.9604363 0.39238614 2.0663738
v -2.9604363 2.6793823 3.0136795
v -3.7328975 -1.08520155E-07 3.013679
v -3.7328975 2.6793823 3.0136786
v -2.9604363 -1.0852017E-07 3.0136786
v -2.9604366 2.2869956 3.9609842
v -3.7328975 0.39238656 3.9609842
v -3.7328975 2.2869961 3.9609842
v -2.9604366 0.39238614 3.9609842
v -2.9604366 1.3396909 4.3533707
v -3.7328975 1.339691 4.3533697
v -3.732896 1.3396915 -4.539692
v -2.960435 1.3396913 -4.539693
v -2.960435 2.286996 -4.1473064
v -3.7328959 0.39238673 -4.1473055
v -3.7328959 2.2869964 -4.1473055
v -2.960435 0.39238632 -4.1473064
v -2.9604354 2.6793826 -3.2000003
v -3.7328959 5.304764E-14 -3.200001
v -3.7328959 2.6793826 -3.2000015
v -2.9604354 4.2070317E-14 -3.2000015
v -2.9604354 2.286996 -2.252696
v -3.7328959 0.39238673 -2.2526965
v -3.7328959 2.2869964 -2.2526965
v -2.9604354 0.39238632 -2.252696
v -2.9604354 1.3396912 -1.8603092
v -3.7328966 1.3396913 -1.8603098
v 3.7328959 0.33858815 -3.200001
v 3.641522 0.63180465 -3.9078875
v 3.7328959 0.63180465 -3.9078875
v 3.641522 0.33858815 -3.200001
v 3.641522 1.3396915 -4.201104
v 3.7328959 0.63180465 -2.4921145
v 3.7328959 1.3396915 -4.201104
v 3.641522 0.63180465 -2.4921143
v 3.641522 2.0475783 -3.9078875
v 3.7328959 1.3396913 -2.198898
v 3.7328959 2.0475783 -3.9078875
v 3.641522 1.3396913 -2.198898
v 3.641522 2.3407946 -3.2000015
v 3.7328959 2.0475783 -2.4921145
v 3.7328959 2.3407946 -3.2000015
v 3.641522 2.0475783 -2.4921143
v 3.7328975 2.047578 3.7215662
v 3.6415238 1.339691 4.014782
v 3.7328975 1.339691 4.014782
v 3.6415238 2.047578 3.7215662
v 3.6415238 0.63180447 3.7215662
v 3.7328975 2.3407943 3.0136786
v 3.7328975 0.63180447 3.7215662
v 3.6415238 2.3407943 3.0136786
v 3.6415238 0.338588 3.013679
v 3.732897 2.047578 2.3057923
v 3.7328975 0.338588 3.013679
v 3.6415231 2.047578 2.3057923
v 3.6415231 0.63180447 2.3057923
v 3.732897 1.3396913 2.0125751
v 3.732897 0.63180447 2.3057923
v 3.6415231 1.3396913 2.0125751
v 3.732897 1.3396913 1.6739872
v 3.732897 2.2869961 2.0663743
v 2.9604363 2.2869956 2.0663738
v 2.9604363 1.339691 1.6739883
v 2.9604363 2.6793823 3.0136795
v 3.732897 0.39238656 2.0663743
v 3.7328975 2.6793823 3.0136786
v 2.9604363 0.39238614 2.0663738
v 2.9604366 2.2869956 3.9609842
v 3.7328975 -1.08520155E-07 3.013679
v 3.7328975 2.2869961 3.9609842
v 2.9604363 -1.0852017E-07 3.0136786
v 2.9604366 1.3396909 4.3533707
v 3.7328975 0.39238656 3.9609842
v 3.7328975 1.339691 4.3533697
v 2.9604366 0.39238614 3.9609842
v 3.732896 1.3396915 -4.539692
v 3.7328959 2.2869964 -4.1473055
v 2.960435 2.286996 -4.1473064
v 2.960435 1.3396913 -4.539693
v 2.9604354 2.6793826 -3.2000003
v 3.7328959 0.39238673 -4.1473055
v 3.7328959 2.6793826 -3.2000015
v 2.960435 0.39238632 -4.1473064
v 2.9604354 2.286996 -2.252696
v 3.7328959 5.304764E-14 -3.200001
v 3.7328959 2.2869964 -2.2526965
v 2.9604354 4.2070317E-14 -3.2000015
v 2.9604354 1.3396912 -1.8603092
v 3.7328959 0.39238673 -2.2526965
v 3.7328966 1.3396913 -1.8603098
v 2.9604354 0.39238632 -2.252696
vt 0.7807462 0.028660387
vt 0.7807462 0.028660387
vt 0.7807462 0.028660387
vt 0.7807462 0.028660387
vt 0.7807462 0.028660387
vt 0.7807462 0.028660387
vt 0.7807462 0.028660387
vt 0.7807462 0.028660387
vt 0.7807462 0.028660387
vt 0.7807462 0.028660387
vt 0.7807462 0.028660387
vt 0.7807462 0.028660387
vt 0.7807462 0.028660387
vt 0.7807462 0.028660387
vt 0.7807462 0.028660387
vt 0.7807462 0.028660387
vt 0.7807462 0.028660387
vt 0.78074616 0.028660387
vt 0.7807463 0.028660389
vt 0.7807462 0.028660387
vt 0.78074616 0.028660385
vt 0.7807462 0.028660387
vt 0.7807462 0.028660387
vt 0.7807462 0.028660387
vt 0.7807462 0.028660385
vt 0.7807462 0.028660387
vt 0.78074616 0.028660387
vt 0.7807462 0.028660387
vt 0.7807462 0.028660387
vt 0.7807462 0.028660387
vt 0.7807462 0.028660389
vt 0.7807462 0.028660387
vt 0.78074616 0.028660387
vt 0.7807462 0.028660387
vt 0.78074616 0.028660387
vt 0.7807462 0.028660387
vt 0.7807462 0.028660389
vt 0.7807462 0.028660387
vt 0.7807462 0.028660387
vt 0.7807462 0.028660387
vt 0.78074616 0.028660385
vt 0.7807462 0.028660387
vt 0.7807462 0.028660387
vt 0.7807462 0.028660387
vt 0.78074616 0.028660387
vt 0.7807462 0.028660387
vt 0.7807463 0.028660389
vt 0.7807462 0.028660387
vt 0.78074616 0.028660387
vt 0.7807462 0.028660389
vt 0.7807462 0.028660387
vt 0.7807463 0.028660389
vt 0.7807462 0.028660387
vt 0.7807462 0.028660387
vt 0.7807462 0.028660387
vt 0.7807462 0.028660387
vt 0.7807462 0.028660387
vt 0.7807462 0.028660387
vt 0.7807462 0.028660387
vt 0.7807462 0.028660387
vt 0.7807462 0.028660387
vt 0.7807462 0.028660387
vt 0.7807462 0.028660387
vt 0.7807462 0.028660387
vt 0.7807462 0.028660387
vt 0.7807462 0.028660387
vt 0.7807462 0.028660387
vt 0.7807462 0.028660387
vt 0.7807462 0.028660387
vt 0.7807462 0.028660387
vt 0.7807463 0.028660389
vt 0.78074616 0.028660387
vt 0.7807462 0.028660387
vt 0.78074616 0.028660385
vt 0.7807462 0.028660387
vt 0.7807462 0.028660387
vt 0.7807462 0.028660387
vt 0.7807462 0.028660385
vt 0.7807462 0.028660387
vt 0.78074616 0.028660387
vt 0.7807462 0.028660387
vt 0.7807462 0.028660387
vt 0.7807462 0.028660387
vt 0.7807462 0.028660389
vt 0.7807462 0.028660387
vt 0.78074616 0.028660387
vt 0.7807462 0.028660387
vt 0.7807462 0.028660387
vt 0.78074616 0.028660387
vt 0.7807462 0.028660389
vt 0.7807462 0.028660387
vt 0.7807462 0.028660387
vt 0.7807462 0.028660387
vt 0.78074616 0.028660385
vt 0.7807462 0.028660387
vt 0.7807462 0.028660387
vt 0.7807462 0.028660387
vt 0.78074616 0.028660387
vt 0.7807462 0.028660387
vt 0.7807463 0.028660389
vt 0.7807462 0.028660387
vt 0.7807462 0.028660389
vt 0.78074616 0.028660387
vt 0.7807462 0.028660387
vt 0.7807463 0.028660389
vt 0.7807462 0.028660387
vt 0.7194452 0.032701075
vt 0.7194452 0.032701075
vt 0.7194452 0.032701075
vt 0.7194452 0.032701075
vt 0.7194452 0.032701075
vt 0.7194452 0.032701075
vt 0.7194452 0.032701075
vt 0.7194452 0.032701075
vt 0.7194452 0.032701075
vt 0.7194452 0.032701075
vt 0.7194452 0.032701075
vt 0.7194452 0.032701075
vt 0.7194452 0.032701075
vt 0.7194452 0.032701075
vt 0.7194452 0.032701075
vt 0.7194452 0.032701075
vt 0.7194452 0.032701075
vt 0.7194452 0.032701075
vt 0.7194452 0.032701075
vt 0.7194452 0.032701075
vt 0.7194452 0.032701075
vt 0.7194452 0.032701075
vt 0.7194452 0.032701075
vt 0.7194452 0.032701075
vt 0.7194452 0.032701075
vt 0.7194452 0.032701075
vt 0.7194452 0.032701075
vt 0.7194452 0.032701075
vt 0.7194452 0.032701075
vt 0.7194452 0.032701075
vt 0.7194452 0.032701075
vt 0.7194452 0.032701075
vt 0.7194452 0.032701075
vt 0.7194452 0.032701075
vt 0.7194452 0.032701075
vt 0.7194452 0.032701075
vt 0.845121 0.02921635
vt 0.845121 0.02921635
vt 0.845121 0.02921635
vt 0.845121 0.02921635
vt 0.845121 0.02921635
vt 0.845121 0.02921635
vt 0.845121 0.02921635
vt 0.845121 0.02921635
vt 0.845121 0.02921635
vt 0.845121 0.02921635
vt 0.845121 0.02921635
vt 0.845121 0.02921635
vt 0.845121 0.02921635
vt 0.845121 0.02921635
vt 0.845121 0.02921635
vt 0.845121 0.02921635
vt 0.845121 0.02921635
vt 0.845121 0.02921635
vt 0.845121 0.02921635
vt 0.845121 0.02921635
vt 0.845121 0.02921635
vt 0.845121 0.02921635
vt 0.845121 0.02921635
vt 0.845121 0.02921635
vt 0.845121 0.02921635
vt 0.845121 0.02921635
vt 0.845121 0.02921635
vt 0.845121 0.02921635
vt 0.845121 0.02921635
vt 0.845121 0.02921635
vt 0.845121 0.02921635
vt 0.845121 0.02921635
vt 0.8446825 0.03180167
vt 0.8446825 0.03180167
vt 0.8446825 0.03180167
vt 0.8446825 0.03180167
vt 0.8446825 0.03180167
vt 0.8446825 0.03180167
vt 0.8446825 0.03180167
vt 0.8446825 0.03180167
vt 0.8446825 0.03180167
vt 0.8446825 0.03180167
vt 0.8446825 0.03180167
vt 0.8446825 0.03180167
vt 0.8446825 0.03180167
vt 0.8446825 0.03180167
vt 0.8446825 0.03180167
vt 0.8446825 0.03180167
vt 0.8446825 0.03180167
vt 0.8446825 0.03180167
vt 0.8446825 0.03180167
vt 0.8446825 0.03180167
vt 0.8446825 0.03180167
vt 0.8446825 0.03180167
vt 0.8446825 0.03180167
vt 0.8446825 0.03180167
vt 0.8446825 0.03180167
vt 0.8446825 0.03180167
vt 0.8446825 0.03180167
vt 0.8446825 0.03180167
vt 0.8446825 0.03180167
vt 0.8446825 0.03180167
vt 0.8446825 0.03180167
vt 0.8446825 0.03180167
vt 0.845121 0.02921635
vt 0.845121 0.02921635
vt 0.845121 0.02921635
vt 0.845121 0.02921635
vt 0.845121 0.02921635
vt 0.845121 0.02921635
vt 0.845121 0.02921635
vt 0.845121 0.02921635
vt 0.845121 0.02921635
vt 0.845121 0.02921635
vt 0.845121 0.02921635
vt 0.845121 0.02921635
vt 0.845121 0.02921635
vt 0.845121 0.02921635
vt 0.845121 0.02921635
vt 0.845121 0.02921635
vt 0.845121 0.02921635
vt 0.845121 0.02921635
vt 0.845121 0.02921635
vt 0.845121 0.02921635
vt 0.845121 0.02921635
vt 0.845121 0.02921635
vt 0.845121 0.02921635
vt 0.845121 0.02921635
vt 0.845121 0.02921635
vt 0.845121 0.02921635
vt 0.845121 0.02921635
vt 0.845121 0.02921635
vt 0.845121 0.02921635
vt 0.845121 0.02921635
vt 0.845121 0.02921635
vt 0.845121 0.02921635
vt 0.8446825 0.03180167
vt 0.8446825 0.03180167
vt 0.8446825 0.03180167
vt 0.8446825 0.03180167
vt 0.8446825 0.03180167
vt 0.8446825 0.03180167
vt 0.8446825 0.03180167
vt 0.8446825 0.03180167
vt 0.8446825 0.03180167
vt 0.8446825 0.03180167
vt 0.8446825 0.03180167
vt 0.8446825 0.03180167
vt 0.8446825 0.03180167
vt 0.8446825 0.03180167
vt 0.8446825 0.03180167
vt 0.8446825 0.03180167
vt 0.8446825 0.03180167
vt 0.8446825 0.03180167
vt 0.8446825 0.03180167
vt 0.8446825 0.03180167
vt 0.8446825 0.03180167
vt 0.8446825 0.03180167
vt 0.8446825 0.03180167
vt 0.8446825 0.03180167
vt 0.8446825 0.03180167
vt 0.8446825 0.03180167
vt 0.8446825 0.03180167
vt 0.8446825 0.03180167
vt 0.8446825 0.03180167
vt 0.8446825 0.03180167
vt 0.8446825 0.03180167
vt 0.8446825 0.03180167
vn -1 0 0
vn -1 0 0
vn -1 0 0
vn -1 0 0
vn -1 0 0
vn -1 0 0
vn -1 0 0
vn -1 0 0
vn -1 0 0
vn -1 0 0
vn -1 0 0
vn -1 0 0
vn -1 0 0
vn -1 0 0
vn -1 0 0
vn -1 0 0
vn 1 0 0
vn 1 0 0
vn 1 0 0
vn 1 0 0
vn 1 0 0
vn 1 0 0
vn 1 0 0
vn 1 0 0
vn 1 0 0
vn 1 0 0
vn 1 0 0
vn 1 0 0
vn 1 0 0
vn 1 0 0
vn 1 0 0
vn 1 0 0
vn 1 0 0
vn 1 0 0
vn 1 0 0
vn 1 0 0
vn 1 0 0
vn 1 0 0
vn 1 0 0
vn 1 0 0
vn 1 0 0
vn 1 0 0
vn 1 0 0
vn 1 0 0
vn 1 0 0
vn 1 0 0
vn 1 0 0
vn 1 0 0
vn 1 0 0
vn 1 0 0
vn 1 0 0
vn 1 0 0
vn 1 0 0
vn 1 0 0
vn 1 0 0
vn 1 0 0
vn 1 0 0
vn 1 0 0
vn 1 0 0
vn 1 0 0
vn 1 0 0
vn 1 0 0
vn 1 0 0
vn 1 0 0
vn 1 0 0
vn 1 0 0
vn 1 0 0
vn 1 0 0
vn 1 0 0
vn -1 0 0
vn -1 0 0
vn -1 0 0
vn -1 0 0
vn -1 0 0
vn -1 0 0
vn -1 0 0
vn -1 0 0
vn -1 0 0
vn -1 0 0
vn -1 0 0
vn -1 0 0
vn -1 0 0
vn -1 0 0
vn -1 0 0
vn -1 0 0
vn -1 0 0
vn -1 0 0
vn -1 0 0
vn -1 0 0
vn -1 0 0
vn -1 0 0
vn -1 0 0
vn -1 0 0
vn -1 0 0
vn -1 0 0
vn -1 0 0
vn -1 0 0
vn -1 0 0
vn -1 0 0
vn -1 0 0
vn -1 0 0
vn -1 0 0
vn -1 0 0
vn -1 0 0
vn -1 0 0
vn -1 0 0
vn -1 0 0
vn -1 0 0
vn -1 0 0
vn -1 0 0
vn -1 0 0
vn -1 0 0
vn -1 0 0
vn -1 0 0
vn -1 0 0
vn -1 0 0
vn -1 0 0
vn -1 0 0
vn -1 0 0
vn -1 0 0
vn -1 0 0
vn -1 0 0
vn -1 0 0
vn -1 0 0
vn 1 0 0
vn 1 0 0
vn 1 0 0
vn 1 0 0
vn 1 0 0
vn 1 0 0
vn 1 0 0
vn 1 0 0
vn 1 0 0
vn 1 0 0
vn 1 0 0
vn 1 0 0
vn 1 0 0
vn 1 0 0
vn 1 0 0
vn 1 0 0
vn 1 0 0
vn 1 0 0
vn -0 1 0
vn -0 0.70710623 0.70710725
vn -0 0.70710623 0.70710725
vn -0 1 0
vn -0 0 1
vn -0 0.70710695 -0.70710653
vn -0 0 1
vn -0 0.7071063 -0.7071072
vn -0 -0.7071067 0.70710677
vn -0 0 -1
vn -0 -0.7071067 0.70710677
vn -0 0 -1
vn -0 -1 0
vn -0 -0.7071072 -0.70710635
vn -0 -1 0
vn -0 -0.70710653 -0.70710695
vn -0 -0.70710707 -0.7071065
vn -0 0 -1
vn -0 0 -1
vn -0 -0.70710707 -0.7071065
vn -0 0.7071063 -0.7071072
vn -0 -1 0
vn -0 0.7071063 -0.7071072
vn -0 -1 0
vn -0 1 0
vn -0 -0.70710695 0.7071066
vn -0 1 0
vn -0 -0.70710677 0.70710677
vn -0 0.7071068 0.70710665
vn -0 0 1
vn -0 0.707107 0.70710653
vn -0 0 1
vn -0 0 -1
vn -0 0 -1
vn -0 0.7071066 -0.70710695
vn -0 -0.7071067 -0.70710677
vn -0 0.70710695 -0.70710653
vn -0 -0.70710665 -0.7071068
vn -0 1 0
vn -0 -1 0
vn -0 1 0
vn -0 -1 0
vn -0 0.7071066 0.7071069
vn -0 -0.7071067 0.70710677
vn -0 0.70710677 0.70710677
vn -0 -0.7071068 0.70710665
vn -0 0 1
vn -0 0 1
vn -0 0 -1
vn -0 0 -1
vn -0 0.7071066 -0.7071069
vn -0 -0.70710677 -0.70710677
vn -0 0.70710707 -0.7071064
vn -0 -0.7071066 -0.7071069
vn -0 1 0
vn -0 -1 0
vn -0 1 0
vn -0 -1 0
vn -0 0.7071066 0.7071069
vn -0 -0.70710677 0.70710677
vn -0 0.7071068 0.7071067
vn -0 -0.7071068 0.7071067
vn -0 0 1
vn -0 0 1
vn -0 1 0
vn -0 0.70710623 0.70710725
vn -0 0.70710623 0.70710725
vn -0 1 0
vn -0 0 1
vn -0 0.70710695 -0.70710653
vn -0 0 1
vn -0 0.7071063 -0.7071072
vn -0 -0.7071067 0.70710677
vn -0 0 -1
vn -0 -0.7071067 0.70710677
vn -0 0 -1
vn -0 -1 0
vn -0 -0.7071072 -0.70710635
vn -0 -1 0
vn -0 -0.70710653 -0.70710695
vn -0 -0.70710707 -0.7071065
vn -0 0 -1
vn -0 0 -1
vn -0 -0.70710707 -0.7071065
vn -0 0.7071063 -0.7071072
vn -0 -1 0
vn -0 0.7071063 -0.7071072
vn -0 -1 0
vn -0 1 0
vn -0 -0.7071069 0.70710665
vn -0 1 0
vn -0 -0.70710677 0.70710677
vn -0 0.7071068 0.70710665
vn -0 0 1
vn -0 0.707107 0.70710653
vn -0 0 1
vn -0 0 -1
vn -0 0.70710695 -0.70710653
vn -0 0.7071066 -0.70710695
vn -0 0 -1
vn -0 1 0
vn -0 -0.7071067 -0.70710677
vn -0 1 0
vn -0 -0.70710665 -0.7071068
vn -0 0.7071066 0.70710695
vn -0 -1 0
vn -0 0.7071067 0.7071068
vn -0 -1 0
vn -0 0 1
vn -0 -0.70710677 0.70710677
vn -0 0 1
vn -0 -0.7071069 0.70710665
vn -0 0 -1
vn -0 0.707107 -0.7071065
vn -0 0.70710665 -0.7071069
vn -0 0 -1
vn -0 1 0
vn -0 -0.70710677 -0.7071067
vn -0 1 0
vn -0 -0.7071066 -0.7071069
vn -0 0.7071066 0.70710695
vn -0 -1 0
vn -0 0.7071068 0.70710665
vn -0 -1 0
vn -0 0 1
vn -0 -0.70710677 0.70710677
vn -0 0 1
vn -0 -0.7071068 0.7071067
g car_Wheels_0
f 3/3/3 2/2/2 1/1/1
f 1/1/1 4/4/4 3/3/3
f 4/4/4 5/5/5 3/3/3
f 4/4/4 6/6/6 5/5/5
f 6/6/6 7/7/7 5/5/5
f 6/6/6 8/8/8 7/7/7
f 11/11/11 10/10/10 9/9/9
f 9/9/9 12/12/12 11/11/11
f 12/12/12 13/13/13 11/11/11
f 12/12/12 14/14/14 13/13/13
f 14/14/14 15/15/15 13/13/13
f 14/14/14 16/16/16 15/15/15
f 19/19/19 18/18/18 17/17/17
f 20/20/20 19/19/19 17/17/17
f 21/21/21 19/19/19 20/20/20
f 22/22/22 21/21/21 20/20/20
f 23/23/23 21/21/21 22/22/22
f 24/24/24 23/23/23 22/22/22
f 25/25/25 23/23/23 24/24/24
f 26/26/26 25/25/25 24/24/24
f 27/27/27 25/25/25 26/26/26
f 28/28/28 27/27/27 26/26/26
f 29/29/29 27/27/27 28/28/28
f 30/30/30 29/29/29 28/28/28
f 31/31/31 29/29/29 30/30/30
f 32/32/32 31/31/31 30/30/30
f 17/17/17 33/33/33 32/32/32
f 33/33/33 31/31/31 32/32/32
f 36/36/36 35/35/35 34/34/34
f 35/35/35 37/37/37 34/34/34
f 34/34/34 37/37/37 38/38/38
f 37/37/37 39/39/39 38/38/38
f 38/38/38 39/39/39 40/40/40
f 39/39/39 41/41/41 40/40/40
f 40/40/40 41/41/41 42/42/42
f 41/41/41 43/43/43 42/42/42
f 42/42/42 43/43/43 44/44/44
f 43/43/43 45/45/45 44/44/44
f 44/44/44 45/45/45 46/46/46
f 45/45/45 47/47/47 46/46/46
f 50/50/50 49/49/49 48/48/48
f 51/51/51 50/50/50 48/48/48
f 52/52/52 50/50/50 51/51/51
f 53/53/53 52/52/52 51/51/51
f 56/56/56 55/55/55 54/54/54
f 54/54/54 57/57/57 56/56/56
f 57/57/57 58/58/58 56/56/56
f 57/57/57 59/59/59 58/58/58
f 57/57/57 60/60/60 59/59/59
f 60/60/60 61/61/61 59/59/59
f 64/64/64 63/63/63 62/62/62
f 62/62/62 65/65/65 64/64/64
f 65/65/65 66/66/66 64/64/64
f 65/65/65 67/67/67 66/66/66
f 65/65/65 68/68/68 67/67/67
f 68/68/68 69/69/69 67/67/67
f 72/72/72 71/71/71 70/70/70
f 71/71/71 73/73/73 70/70/70
f 71/71/71 74/74/74 73/73/73
f 74/74/74 75/75/75 73/73/73
f 74/74/74 76/76/76 75/75/75
f 76/76/76 77/77/77 75/75/75
f 76/76/76 78/78/78 77/77/77
f 78/78/78 79/79/79 77/77/77
f 78/78/78 80/80/80 79/79/79
f 80/80/80 81/81/81 79/79/79
f 80/80/80 82/82/82 81/81/81
f 82/82/82 83/83/83 81/81/81
f 82/82/82 84/84/84 83/83/83
f 84/84/84 85/85/85 83/83/83
f 86/86/86 70/70/70 85/85/85
f 84/84/84 86/86/86 85/85/85
f 89/89/89 88/88/88 87/87/87
f 90/90/90 89/89/89 87/87/87
f 90/90/90 87/87/87 91/91/91
f 92/92/92 90/90/90 91/91/91
f 92/92/92 91/91/91 93/93/93
f 94/94/94 92/92/92 93/93/93
f 94/94/94 93/93/93 95/95/95
f 96/96/96 94/94/94 95/95/95
f 96/96/96 95/95/95 97/97/97
f 98/98/98 96/96/96 97/97/97
f 98/98/98 97/97/97 99/99/99
f 100/100/100 98/98/98 99/99/99
f 103/103/103 102/102/102 101/101/101
f 102/102/102 104/104/104 101/101/101
f 102/102/102 105/105/105 104/104/104
f 105/105/105 106/106/106 104/104/104
f 109/109/109 108/108/108 107/107/107
f 109/109/109 107/107/107 110/110/110
f 109/109/109 111/111/111 108/108/108
f 109/109/109 110/110/110 112/112/112
f 109/109/109 113/113/113 111/111/111
f 109/109/109 112/112/112 114/114/114
f 109/109/109 115/115/115 113/113/113
f 109/109/109 114/114/114 115/115/115
f 118/118/118 117/117/117 116/116/116
f 118/118/118 116/116/116 119/119/119
f 118/118/118 120/120/120 117/117/117
f 118/118/118 119/119/119 121/121/121
f 118/118/118 122/122/122 120/120/120
f 118/118/118 121/121/121 123/123/123
f 118/118/118 124/124/124 122/122/122
f 118/118/118 123/123/123 124/124/124
f 127/127/127 126/126/126 125/125/125
f 125/125/125 126/126/126 128/128/128
f 129/129/129 126/126/126 127/127/127
f 128/128/128 126/126/126 130/130/130
f 131/131/131 126/126/126 129/129/129
f 130/130/130 126/126/126 132/132/132
f 133/133/133 126/126/126 131/131/131
f 132/132/132 126/126/126 133/133/133
f 136/136/136 135/135/135 134/134/134
f 134/134/134 135/135/135 137/137/137
f 138/138/138 135/135/135 136/136/136
f 137/137/137 135/135/135 139/139/139
f 140/140/140 135/135/135 138/138/138
f 139/139/139 135/135/135 141/141/141
f 142/142/142 135/135/135 140/140/140
f 141/141/141 135/135/135 142/142/142
f 145/145/145 144/144/144 143/143/143
f 146/146/146 145/145/145 143/143/143
f 145/145/145 147/147/147 144/144/144
f 146/146/146 143/143/143 148/148/148
f 147/147/147 149/149/149 144/144/144
f 150/150/150 146/146/146 148/148/148
f 147/147/147 151/151/151 149/149/149
f 150/150/150 148/148/148 152/152/152
f 151/151/151 153/153/153 149/149/149
f 154/154/154 150/150/150 152/152/152
f 151/151/151 155/155/155 153/153/153
f 154/154/154 152/152/152 156/156/156
f 155/155/155 157/157/157 153/153/153
f 158/158/158 154/154/154 156/156/156
f 158/158/158 156/156/156 157/157/157
f 155/155/155 158/158/158 157/157/157
f 161/161/161 160/160/160 159/159/159
f 162/162/162 161/161/161 159/159/159
f 161/161/161 163/163/163 160/160/160
f 162/162/162 159/159/159 164/164/164
f 163/163/163 165/165/165 160/160/160
f 166/166/166 162/162/162 164/164/164
f 163/163/163 167/167/167 165/165/165
f 166/166/166 164/164/164 168/168/168
f 167/167/167 169/169/169 165/165/165
f 170/170/170 166/166/166 168/168/168
f 167/167/167 171/171/171 169/169/169
f 170/170/170 168/168/168 172/172/172
f 171/171/171 173/173/173 169/169/169
f 174/174/174 170/170/170 172/172/172
f 174/174/174 172/172/172 173/173/173
f 171/171/171 174/174/174 173/173/173
f 177/177/177 176/176/176 175/175/175
f 175/175/175 176/176/176 178/178/178
f 179/179/179 177/177/177 175/175/175
f 176/176/176 180/180/180 178/178/178
f 181/181/181 177/177/177 179/179/179
f 178/178/178 180/180/180 182/182/182
f 183/183/183 181/181/181 179/179/179
f 180/180/180 184/184/184 182/182/182
f 185/185/185 181/181/181 183/183/183
f 182/182/182 184/184/184 186/186/186
f 187/187/187 185/185/185 183/183/183
f 184/184/184 188/188/188 186/186/186
f 189/189/189 185/185/185 187/187/187
f 186/186/186 188/188/188 190/190/190
f 190/190/190 189/189/189 187/187/187
f 188/188/188 189/189/189 190/190/190
f 193/193/193 192/192/192 191/191/191
f 191/191/191 192/192/192 194/194/194
f 195/195/195 193/193/193 191/191/191
f 192/192/192 196/196/196 194/194/194
f 197/197/197 193/193/193 195/195/195
f 194/194/194 196/196/196 198/198/198
f 199/199/199 197/197/197 195/195/195
f 196/196/196 200/200/200 198/198/198
f 201/201/201 197/197/197 199/199/199
f 198/198/198 200/200/200 202/202/202
f 203/203/203 201/201/201 199/199/199
f 200/200/200 204/204/204 202/202/202
f 205/205/205 201/201/201 203/203/203
f 202/202/202 204/204/204 206/206/206
f 206/206/206 205/205/205 203/203/203
f 204/204/204 205/205/205 206/206/206
f 209/209/209 208/208/208 207/207/207
f 208/208/208 210/210/210 207/207/207
f 211/211/211 208/208/208 209/209/209
f 207/207/207 210/210/210 212/212/212
f 213/213/213 211/211/211 209/209/209
f 210/210/210 214/214/214 212/212/212
f 215/215/215 211/211/211 213/213/213
f 212/212/212 214/214/214 216/216/216
f 217/217/217 215/215/215 213/213/213
f 214/214/214 218/218/218 216/216/216
f 219/219/219 215/215/215 217/217/217
f 216/216/216 218/218/218 220/220/220
f 221/221/221 219/219/219 217/217/217
f 218/218/218 222/222/222 220/220/220
f 222/222/222 219/219/219 221/221/221
f 220/220/220 222/222/222 221/221/221
f 225/225/225 224/224/224 223/223/223
f 224/224/224 226/226/226 223/223/223
f 227/227/227 224/224/224 225/225/225
f 223/223/223 226/226/226 228/228/228
f 229/229/229 227/227/227 225/225/225
f 226/226/226 230/230/230 228/228/228
f 231/231/231 227/227/227 229/229/229
f 228/228/228 230/230/230 232/232/232
f 233/233/233 231/231/231 229/229/229
f 230/230/230 234/234/234 232/232/232
f 235/235/235 231/231/231 233/233/233
f 232/232/232 234/234/234 236/236/236
f 237/237/237 235/235/235 233/233/233
f 234/234/234 238/238/238 236/236/236
f 238/238/238 235/235/235 237/237/237
f 236/236/236 238/238/238 237/237/237
f 241/241/241 240/240/240 239/239/239
f 242/242/242 241/241/241 239/239/239
f 241/241/241 243/243/243 240/240/240
f 242/242/242 239/239/239 244/244/244
f 243/243/243 245/245/245 240/240/240
f 246/246/246 242/242/242 244/244/244
f 243/243/243 247/247/247 245/245/245
f 246/246/246 244/244/244 248/248/248
f 247/247/247 249/249/249 245/245/245
f 250/250/250 246/246/246 248/248/248
f 247/247/247 251/251/251 249/249/249
f 250/250/250 248/248/248 252/252/252
f 251/251/251 253/253/253 249/249/249
f 254/254/254 250/250/250 252/252/252
f 254/254/254 252/252/252 253/253/253
f 251/251/251 254/254/254 253/253/253
f 257/257/257 256/256/256 255/255/255
f 258/258/258 257/257/257 255/255/255
f 257/257/257 259/259/259 256/256/256
f 258/258/258 255/255/255 260/260/260
f 259/259/259 261/261/261 256/256/256
f 262/262/262 258/258/258 260/260/260
f 259/259/259 263/263/263 261/261/261
f 262/262/262 260/260/260 264/264/264
f 263/263/263 265/265/265 261/261/261
f 266/266/266 262/262/262 264/264/264
f 263/263/263 267/267/267 265/265/265
f 266/266/266 264/264/264 268/268/268
f 267/267/267 269/269/269 265/265/265
f 270/270/270 266/266/266 268/268/268
f 270/270/270 268/268/268 269/269/269
f 267/267/267 270/270/270 269/269/269
