g casherDesk_Cafe
v -1.9959402 2.9988728 -8.367701
v 1.9981966 2.9988728 5.6381693
v -1.9959402 2.9988728 5.6381693
v 1.9981966 2.9988728 -12.361836
v -5.620574 2.9988728 -8.367701
v -5.620574 2.9988728 -12.361836
v -1.5032711 2.8053246 -8.860369
v -1.5032711 0.9930067 -8.860369
v -5.127906 0.9930067 -8.860369
v -5.127906 2.8053246 -8.860369
v -5.127906 0.9930067 -11.869167
v -5.127906 2.8053246 -11.869167
v -5.127906 2.8053246 -8.860369
v -5.127906 0.9930067 -8.860369
v 1.5055275 0.9930067 -11.869167
v 1.5055275 2.8053246 -11.869167
v -5.127906 2.8053246 -11.869167
v -5.127906 0.9930067 -11.869167
v 1.5055275 0.9930067 5.145501
v 1.5055275 2.8053246 5.145501
v 1.5055275 2.8053246 -11.869167
v 1.5055275 0.9930067 -11.869167
v -1.5032711 0.9930067 5.145501
v -1.5032711 2.8053246 5.145501
v 1.5055275 2.8053246 5.145501
v 1.5055275 0.9930067 5.145501
v -1.5032711 0.9930067 -8.860369
v -1.5032711 2.8053246 -8.860369
v -1.5032711 2.8053246 5.145501
v -1.5032711 0.9930067 5.145501
v -1.9959402 2.8053246 -8.367701
v -1.9959402 2.9988728 -8.367701
v -1.9959402 2.9988728 5.6381693
v -1.9959402 2.8053246 5.6381693
v -1.9959402 2.8053246 5.6381693
v -1.9959402 2.9988728 5.6381693
v 1.9981966 2.9988728 5.6381693
v 1.9981966 2.8053246 5.6381693
v 1.9981966 2.8053246 5.6381693
v 1.9981966 2.9988728 5.6381693
v 1.9981966 2.9988728 -12.361836
v 1.9981966 2.8053246 -12.361836
v 1.9981966 2.8053246 -12.361836
v 1.9981966 2.9988728 -12.361836
v -5.620574 2.9988728 -12.361836
v -5.620574 2.8053246 -12.361836
v -5.620574 2.8053246 -12.361836
v -5.620574 2.9988728 -12.361836
v -5.620574 2.9988728 -8.367701
v -5.620574 2.8053246 -8.367701
v -1.9959402 2.9988728 -8.367701
v -1.9959402 2.8053246 -8.367701
v -5.620574 2.8053246 -8.367701
v -5.620574 2.9988728 -8.367701
v -5.127906 2.8053246 -8.860369
v -5.620574 2.8053246 -12.361836
v -5.620574 2.8053246 -8.367701
v -5.127906 2.8053246 -11.869167
v -1.5032711 2.8053246 -8.860369
v 1.9981966 2.8053246 -12.361836
v -1.9959402 2.8053246 -8.367701
v 1.5055275 2.8053246 -11.869167
v -1.5032711 2.8053246 5.145501
v 1.9981966 2.8053246 5.6381693
v -1.9959402 2.8053246 5.6381693
v 1.5055275 2.8053246 5.145501
vt 0.65781003 0.8398385
vt 0.65781003 0.8398385
vt 0.65781003 0.8398385
vt 0.65781003 0.8398385
vt 0.65781003 0.8398385
vt 0.65781003 0.8398385
vt 0.5951247 0.90252376
vt 0.5951247 0.90252376
vt 0.5951247 0.90252376
vt 0.5951247 0.90252376
vt 0.5951247 0.90252376
vt 0.5951247 0.90252376
vt 0.5951247 0.90252376
vt 0.5951247 0.90252376
vt 0.5951247 0.90252376
vt 0.5951247 0.90252376
vt 0.5951247 0.90252376
vt 0.5951247 0.90252376
vt 0.5951247 0.90252376
vt 0.5951247 0.90252376
vt 0.5951247 0.90252376
vt 0.5951247 0.90252376
vt 0.5951247 0.90252376
vt 0.5951247 0.90252376
vt 0.5951247 0.90252376
vt 0.5951247 0.90252376
vt 0.5951247 0.90252376
vt 0.5951247 0.90252376
vt 0.5951247 0.90252376
vt 0.5951247 0.90252376
vt 0.65781003 0.8398385
vt 0.65781003 0.8398385
vt 0.65781003 0.8398385
vt 0.65781003 0.8398385
vt 0.65781003 0.8398385
vt 0.65781003 0.8398385
vt 0.65781003 0.8398385
vt 0.65781003 0.8398385
vt 0.65781003 0.8398385
vt 0.65781003 0.8398385
vt 0.65781003 0.8398385
vt 0.65781003 0.8398385
vt 0.65781003 0.8398385
vt 0.65781003 0.8398385
vt 0.65781003 0.8398385
vt 0.65781003 0.8398385
vt 0.65781003 0.8398385
vt 0.65781003 0.8398385
vt 0.65781003 0.8398385
vt 0.65781003 0.8398385
vt 0.65781003 0.8398385
vt 0.65781003 0.8398385
vt 0.65781003 0.8398385
vt 0.65781003 0.8398385
vt 0.65781003 0.8398385
vt 0.65781003 0.8398385
vt 0.65781003 0.8398385
vt 0.65781003 0.8398385
vt 0.65781003 0.8398385
vt 0.65781003 0.8398385
vt 0.65781003 0.8398385
vt 0.65781003 0.8398385
vt 0.65781003 0.8398385
vt 0.65781003 0.8398385
vt 0.65781003 0.8398385
vt 0.65781003 0.8398385
vn -0.015871048 0.999874 -0.00034526698
vn -0.015871048 0.999874 -0.00034526698
vn -0.015871048 0.999874 -0.00034526698
vn -0.015871048 0.999874 -0.00034526698
vn -0.015871048 0.999874 -0.00034526698
vn -0.015871048 0.999874 -0.00034526698
vn -0.015871048 0.015871048 0.99974805
vn -0.015871048 0.015871048 0.99974805
vn -0.015871048 0.015871048 0.99974805
vn -0.015871048 0.015871048 0.99974805
vn -0.999874 0.015871048 -0.00034391563
vn -0.999874 0.015871048 -0.00034391563
vn -0.999874 0.015871048 -0.00034391563
vn -0.999874 0.015871048 -0.00034391563
vn -0.015871048 0.015871048 -0.99974805
vn -0.015871048 0.015871048 -0.99974805
vn -0.015871048 0.015871048 -0.99974805
vn -0.015871048 0.015871048 -0.99974805
vn 0.999874 0.015871048 -0.00034391563
vn 0.999874 0.015871048 -0.00034391563
vn 0.999874 0.015871048 -0.00034391563
vn 0.999874 0.015871048 -0.00034391563
vn -0.015871048 0.015871048 0.99974805
vn -0.015871048 0.015871048 0.99974805
vn -0.015871048 0.015871048 0.99974805
vn -0.015871048 0.015871048 0.99974805
vn -0.999874 0.015871048 -0.00034391563
vn -0.999874 0.015871048 -0.00034391563
vn -0.999874 0.015871048 -0.00034391563
vn -0.999874 0.015871048 -0.00034391563
vn -0.999874 0.015871048 -0.00034391563
vn -0.999874 0.015871048 -0.00034391563
vn -0.999874 0.015871048 -0.00034391563
vn -0.999874 0.015871048 -0.00034391563
vn -0.015871048 0.015871048 0.99974805
vn -0.015871048 0.015871048 0.99974805
vn -0.015871048 0.015871048 0.99974805
vn -0.015871048 0.015871048 0.99974805
vn 0.999874 0.015871048 -0.00034391563
vn 0.999874 0.015871048 -0.00034391563
vn 0.999874 0.015871048 -0.00034391563
vn 0.999874 0.015871048 -0.00034391563
vn -0.015871048 0.015871048 -0.99974805
vn -0.015871048 0.015871048 -0.99974805
vn -0.015871048 0.015871048 -0.99974805
vn -0.015871048 0.015871048 -0.99974805
vn -0.999874 0.015871048 -0.00034391563
vn -0.999874 0.015871048 -0.00034391563
vn -0.999874 0.015871048 -0.00034391563
vn -0.999874 0.015871048 -0.00034391563
vn -0.015871048 0.015871048 0.99974805
vn -0.015871048 0.015871048 0.99974805
vn -0.015871048 0.015871048 0.99974805
vn -0.015871048 0.015871048 0.99974805
vn -0.015871048 -0.999874 -0.00034526698
vn -0.015871048 -0.999874 -0.00034526698
vn -0.015871048 -0.999874 -0.00034526698
vn -0.015871048 -0.999874 -0.00034526698
vn -0.015871048 -0.999874 -0.00034526698
vn -0.015871048 -0.999874 -0.00034526698
vn -0.015871048 -0.999874 -0.00034526698
vn -0.015871048 -0.999874 -0.00034526698
vn -0.015871048 -0.999874 -0.00034526698
vn -0.015871048 -0.999874 -0.00034526698
vn -0.015871048 -0.999874 -0.00034526698
vn -0.015871048 -0.999874 -0.00034526698
g casherDesk_Cafe_0
f 3/3/3 2/2/2 1/1/1
f 2/2/2 4/4/4 1/1/1
f 5/5/5 1/1/1 4/4/4
f 6/6/6 5/5/5 4/4/4
f 9/9/9 8/8/8 7/7/7
f 10/10/10 9/9/9 7/7/7
f 13/13/13 12/12/12 11/11/11
f 14/14/14 13/13/13 11/11/11
f 17/17/17 16/16/16 15/15/15
f 18/18/18 17/17/17 15/15/15
f 21/21/21 20/20/20 19/19/19
f 22/22/22 21/21/21 19/19/19
f 25/25/25 24/24/24 23/23/23
f 26/26/26 25/25/25 23/23/23
f 29/29/29 28/28/28 27/27/27
f 30/30/30 29/29/29 27/27/27
f 33/33/33 32/32/32 31/31/31
f 34/34/34 33/33/33 31/31/31
f 37/37/37 36/36/36 35/35/35
f 38/38/38 37/37/37 35/35/35
f 41/41/41 40/40/40 39/39/39
f 42/42/42 41/41/41 39/39/39
f 45/45/45 44/44/44 43/43/43
f 46/46/46 45/45/45 43/43/43
f 49/49/49 48/48/48 47/47/47
f 50/50/50 49/49/49 47/47/47
f 53/53/53 52/52/52 51/51/51
f 54/54/54 53/53/53 51/51/51
f 57/57/57 56/56/56 55/55/55
f 56/56/56 58/58/58 55/55/55
f 57/57/57 55/55/55 59/59/59
f 56/56/56 60/60/60 58/58/58
f 61/61/61 57/57/57 59/59/59
f 60/60/60 62/62/62 58/58/58
f 61/61/61 59/59/59 63/63/63
f 60/60/60 64/64/64 62/62/62
f 65/65/65 61/61/61 63/63/63
f 64/64/64 66/66/66 62/62/62
f 65/65/65 63/63/63 66/66/66
f 64/64/64 65/65/65 66/66/66
