g cashierDesk_Mat
v -5 0.0967741 -5.4946237
v -4.505377 0.0967741 -6
v 4.4946237 0.0967741 -6
v 5 0.0967741 -5.4946237
v -5 0.0967741 0.50537634
v 5 0.0967741 0.50537634
v -4.505377 0.0967741 1
v 4.4946237 0.0967741 1
vt 0.724476 0.15319431
vt 0.724476 0.15319431
vt 0.724476 0.15319431
vt 0.724476 0.15319431
vt 0.724476 0.15319431
vt 0.724476 0.15319431
vt 0.724476 0.15319431
vt 0.724476 0.15319431
vn -0 1 -0
vn -0 1 -0
vn -0 1 -0
vn -0 1 -0
vn -0 1 -0
vn -0 1 -0
vn -0 1 -0
vn -0 1 -0
g cashierDesk_Mat_0
f 3/3/3 2/2/2 1/1/1
f 1/1/1 4/4/4 3/3/3
f 1/1/1 5/5/5 4/4/4
f 5/5/5 6/6/6 4/4/4
f 5/5/5 7/7/7 6/6/6
f 7/7/7 8/8/8 6/6/6
