g cash
v 0.7662371 0.4021328 -0.3131296
v 0.59470356 0.4021328 -0.36329508
v 0.56719345 0.4021328 -0.4943726
v 0.7662371 0.4021328 -0.4943726
v 0.82773024 0.4021328 -0.5720482
v -0.56719345 0.4021328 -0.4943726
v 0.82773024 0.4021328 0.5720481
v -0.82773024 0.4021328 -0.5720482
v 0.7662371 0.4021328 0.3131296
v 0.7662371 0.4021328 0.49437255
v 0.56719345 0.4021328 0.49437255
v 0.59470356 0.4021328 0.36329514
v -0.82773024 0.4021328 0.5720481
v -0.56719345 0.4021328 0.49437255
v -0.7662371 0.4021328 0.49437255
v -0.7662371 0.4021328 0.3131296
v -0.5947035 0.4021328 0.36329514
v -0.7662371 0.4021328 -0.3131296
v -0.5947035 0.4021328 -0.36329508
v -0.7662371 0.4021328 -0.4943726
v -0.7662371 0.4021328 0.3131296
v -0.7662371 0.4021328 -0.3131296
v -0.5947035 0.4021328 -0.36329508
v -0.5947035 0.4021328 0.36329514
v -0.82773024 -0.28885603 0.5720481
v -0.82773024 -0.42478824 0.5720481
v -0.82773024 -0.42478824 -0.5720482
v -0.82773024 -0.28885603 -0.5720482
v -0.82773024 -0.28885603 -0.5720482
v -0.82773024 -0.42478824 -0.5720482
v 0.82773024 -0.42478824 -0.5720482
v 0.82773024 -0.28885603 -0.5720482
v -0.5947035 0.4021328 0.36329514
v 0.59470356 0.4021328 0.36329514
v 0.56719345 0.4021328 0.49437255
v -0.56719345 0.4021328 0.49437255
v 0.7662371 0.4021328 -0.3131296
v 0.7662371 0.4021328 0.3131296
v 0.59470356 0.4021328 0.36329514
v 0.59470356 0.4021328 -0.36329508
v -0.82773024 -0.42478824 0.5720481
v 0.82773024 -0.42478824 0.5720481
v 0.82773024 -0.42478824 -0.5720482
v -0.82773024 -0.42478824 -0.5720482
v -0.00080913305 0.41507882 -0.38433224
v -0.38433224 0.41507882 0.00080913305
v -0.2710554 0.41507882 -0.27105534
v 0.00080913305 0.41507882 0.38433224
v -0.2710554 0.41507882 0.2710554
v 0.38433224 0.41507882 0.00080913305
v 0.27105534 0.41507882 0.2710554
v 0.27105534 0.41507882 -0.27105534
v 0.56719345 0.4021328 -0.4943726
v 0.59470356 0.4021328 -0.36329508
v -0.5947035 0.4021328 -0.36329508
v -0.56719345 0.4021328 -0.4943726
v -0.5947035 0.4021328 -0.36329508
v 0.59470356 0.4021328 -0.36329508
v 0.59470356 0.4021328 0.36329514
v -0.5947035 0.4021328 0.36329514
v 0.82773024 0.26458234 0.5720481
v 0.82773024 0.4021328 0.5720481
v 0.82773024 0.4021328 -0.5720482
v 0.82773024 0.26458234 -0.5720482
v -0.82773024 0.26458234 0.5720481
v -0.82773024 0.4021328 0.5720481
v 0.82773024 0.4021328 0.5720481
v 0.82773024 0.26458234 0.5720481
v 0.82773024 -0.28885603 0.5720481
v 0.82773024 -0.42478824 0.5720481
v -0.82773024 -0.42478824 0.5720481
v -0.82773024 -0.28885603 0.5720481
v 0.82773024 0.26458234 -0.5720482
v 0.82773024 0.4021328 -0.5720482
v -0.82773024 0.4021328 -0.5720482
v -0.82773024 0.26458234 -0.5720482
v -0.82773024 0.26458234 -0.5720482
v -0.82773024 0.4021328 -0.5720482
v -0.82773024 0.4021328 0.5720481
v -0.82773024 0.26458234 0.5720481
v 0.82773024 -0.28885603 0.5720481
v -0.82773024 -0.28885603 0.5720481
v -0.82773024 -0.28885603 -0.5720482
v 0.82773024 -0.28885603 -0.5720482
v 0.82773024 -0.28885603 -0.5720482
v 0.82773024 -0.42478824 -0.5720482
v 0.82773024 -0.42478824 0.5720481
v 0.82773024 -0.28885603 0.5720481
v -0.82773024 -0.1108495 0.5720481
v -0.82773024 -0.24678177 0.5720481
v -0.82773024 -0.24678177 -0.5720482
v -0.82773024 -0.1108495 -0.5720482
v -0.82773024 -0.1108495 -0.5720482
v -0.82773024 -0.24678177 -0.5720482
v 0.82773024 -0.24678177 -0.5720482
v 0.82773024 -0.1108495 -0.5720482
v -0.82773024 -0.24678177 0.5720481
v 0.82773024 -0.24678177 0.5720481
v 0.82773024 -0.24678177 -0.5720482
v -0.82773024 -0.24678177 -0.5720482
v 0.82773024 -0.1108495 0.5720481
v 0.82773024 -0.24678177 0.5720481
v -0.82773024 -0.24678177 0.5720481
v -0.82773024 -0.1108495 0.5720481
v 0.82773024 -0.1108495 0.5720481
v -0.82773024 -0.1108495 0.5720481
v -0.82773024 -0.1108495 -0.5720482
v 0.82773024 -0.1108495 -0.5720482
v 0.82773024 -0.1108495 -0.5720482
v 0.82773024 -0.24678177 -0.5720482
v 0.82773024 -0.24678177 0.5720481
v 0.82773024 -0.1108495 0.5720481
v -0.82773024 0.0639205 0.5720481
v -0.82773024 -0.07201171 0.5720481
v -0.82773024 -0.07201171 -0.5720482
v -0.82773024 0.0639205 -0.5720482
v -0.82773024 0.0639205 -0.5720482
v -0.82773024 -0.07201171 -0.5720482
v 0.82773024 -0.07201171 -0.5720482
v 0.82773024 0.0639205 -0.5720482
v -0.82773024 -0.07201171 0.5720481
v 0.82773024 -0.07201171 0.5720481
v 0.82773024 -0.07201171 -0.5720482
v -0.82773024 -0.07201171 -0.5720482
v 0.82773024 0.0639205 0.5720481
v 0.82773024 -0.07201171 0.5720481
v -0.82773024 -0.07201171 0.5720481
v -0.82773024 0.0639205 0.5720481
v 0.82773024 0.0639205 0.5720481
v -0.82773024 0.0639205 0.5720481
v -0.82773024 0.0639205 -0.5720482
v 0.82773024 0.0639205 -0.5720482
v 0.82773024 0.0639205 -0.5720482
v 0.82773024 -0.07201171 -0.5720482
v 0.82773024 -0.07201171 0.5720481
v 0.82773024 0.0639205 0.5720481
v -0.82773024 0.22898108 0.5720481
v -0.82773024 0.091430604 0.5720481
v -0.82773024 0.091430604 -0.5720482
v -0.82773024 0.22898108 -0.5720482
v -0.82773024 0.22898108 -0.5720482
v -0.82773024 0.091430604 -0.5720482
v 0.82773024 0.091430604 -0.5720482
v 0.82773024 0.22898108 -0.5720482
v -0.82773024 0.091430604 0.5720481
v 0.82773024 0.091430604 0.5720481
v 0.82773024 0.091430604 -0.5720482
v -0.82773024 0.091430604 -0.5720482
v 0.82773024 0.22898108 0.5720481
v 0.82773024 0.091430604 0.5720481
v -0.82773024 0.091430604 0.5720481
v -0.82773024 0.22898108 0.5720481
v 0.82773024 0.22898108 0.5720481
v -0.82773024 0.22898108 0.5720481
v -0.82773024 0.22898108 -0.5720482
v 0.82773024 0.22898108 -0.5720482
v 0.82773024 0.22898108 -0.5720482
v 0.82773024 0.091430604 -0.5720482
v 0.82773024 0.091430604 0.5720481
v 0.82773024 0.22898108 0.5720481
v 0.82773024 0.26458234 -0.5720482
v -0.82773024 0.26458234 -0.5720482
v -0.82773024 0.26458234 0.5720481
v 0.82773024 0.26458234 0.5720481
vt 0.6515904 0.46776688
vt 0.6515904 0.46776688
vt 0.6515904 0.46776688
vt 0.6515904 0.46776688
vt 0.6515904 0.46776688
vt 0.6515904 0.46776688
vt 0.6515904 0.46776688
vt 0.6515904 0.46776688
vt 0.6515904 0.46776688
vt 0.6515904 0.46776688
vt 0.6515904 0.46776688
vt 0.6515904 0.46776688
vt 0.6515904 0.46776688
vt 0.6515904 0.46776688
vt 0.6515904 0.46776688
vt 0.6515904 0.46776688
vt 0.6515904 0.46776688
vt 0.6515904 0.46776688
vt 0.6515904 0.46776688
vt 0.6515904 0.46776688
vt 0.53149235 0.4665414
vt 0.53149235 0.4665414
vt 0.53149235 0.4665414
vt 0.53149235 0.4665414
vt 0.6515904 0.46776688
vt 0.6515904 0.46776688
vt 0.6515904 0.46776688
vt 0.6515904 0.46776688
vt 0.6515904 0.46776688
vt 0.6515904 0.46776688
vt 0.6515904 0.46776688
vt 0.6515904 0.46776688
vt 0.53149235 0.4665414
vt 0.53149235 0.4665414
vt 0.53149235 0.4665414
vt 0.53149235 0.4665414
vt 0.53149235 0.4665414
vt 0.53149235 0.4665414
vt 0.53149235 0.4665414
vt 0.53149235 0.4665414
vt 0.3390904 0.46776688
vt 0.3390904 0.46776688
vt 0.3390904 0.46776688
vt 0.3390904 0.46776688
vt 0.6515904 0.46776688
vt 0.6515904 0.46776688
vt 0.6515904 0.46776688
vt 0.6515904 0.46776688
vt 0.6515904 0.46776688
vt 0.6515904 0.46776688
vt 0.6515904 0.46776688
vt 0.6515904 0.46776688
vt 0.53149235 0.4665414
vt 0.53149235 0.4665414
vt 0.53149235 0.4665414
vt 0.53149235 0.4665414
vt 0.53149235 0.4665414
vt 0.53149235 0.4665414
vt 0.53149235 0.4665414
vt 0.53149235 0.4665414
vt 0.6515904 0.46776688
vt 0.6515904 0.46776688
vt 0.6515904 0.46776688
vt 0.6515904 0.46776688
vt 0.6515904 0.46776688
vt 0.6515904 0.46776688
vt 0.6515904 0.46776688
vt 0.6515904 0.46776688
vt 0.6515904 0.46776688
vt 0.6515904 0.46776688
vt 0.6515904 0.46776688
vt 0.6515904 0.46776688
vt 0.6515904 0.46776688
vt 0.6515904 0.46776688
vt 0.6515904 0.46776688
vt 0.6515904 0.46776688
vt 0.6515904 0.46776688
vt 0.6515904 0.46776688
vt 0.6515904 0.46776688
vt 0.6515904 0.46776688
vt 0.6515904 0.46776688
vt 0.6515904 0.46776688
vt 0.6515904 0.46776688
vt 0.6515904 0.46776688
vt 0.6515904 0.46776688
vt 0.6515904 0.46776688
vt 0.6515904 0.46776688
vt 0.6515904 0.46776688
vt 0.6515904 0.46776688
vt 0.6515904 0.46776688
vt 0.6515904 0.46776688
vt 0.6515904 0.46776688
vt 0.6515904 0.46776688
vt 0.6515904 0.46776688
vt 0.6515904 0.46776688
vt 0.6515904 0.46776688
vt 0.3390904 0.46776688
vt 0.3390904 0.46776688
vt 0.3390904 0.46776688
vt 0.3390904 0.46776688
vt 0.6515904 0.46776688
vt 0.6515904 0.46776688
vt 0.6515904 0.46776688
vt 0.6515904 0.46776688
vt 0.6515904 0.46776688
vt 0.6515904 0.46776688
vt 0.6515904 0.46776688
vt 0.6515904 0.46776688
vt 0.6515904 0.46776688
vt 0.6515904 0.46776688
vt 0.6515904 0.46776688
vt 0.6515904 0.46776688
vt 0.6515904 0.46776688
vt 0.6515904 0.46776688
vt 0.6515904 0.46776688
vt 0.6515904 0.46776688
vt 0.6515904 0.46776688
vt 0.6515904 0.46776688
vt 0.6515904 0.46776688
vt 0.6515904 0.46776688
vt 0.3390904 0.46776688
vt 0.3390904 0.46776688
vt 0.3390904 0.46776688
vt 0.3390904 0.46776688
vt 0.6515904 0.46776688
vt 0.6515904 0.46776688
vt 0.6515904 0.46776688
vt 0.6515904 0.46776688
vt 0.6515904 0.46776688
vt 0.6515904 0.46776688
vt 0.6515904 0.46776688
vt 0.6515904 0.46776688
vt 0.6515904 0.46776688
vt 0.6515904 0.46776688
vt 0.6515904 0.46776688
vt 0.6515904 0.46776688
vt 0.6515904 0.46776688
vt 0.6515904 0.46776688
vt 0.6515904 0.46776688
vt 0.6515904 0.46776688
vt 0.6515904 0.46776688
vt 0.6515904 0.46776688
vt 0.6515904 0.46776688
vt 0.6515904 0.46776688
vt 0.3390904 0.46776688
vt 0.3390904 0.46776688
vt 0.3390904 0.46776688
vt 0.3390904 0.46776688
vt 0.6515904 0.46776688
vt 0.6515904 0.46776688
vt 0.6515904 0.46776688
vt 0.6515904 0.46776688
vt 0.6515904 0.46776688
vt 0.6515904 0.46776688
vt 0.6515904 0.46776688
vt 0.6515904 0.46776688
vt 0.6515904 0.46776688
vt 0.6515904 0.46776688
vt 0.6515904 0.46776688
vt 0.6515904 0.46776688
vt 0.3390904 0.46776688
vt 0.3390904 0.46776688
vt 0.3390904 0.46776688
vt 0.3390904 0.46776688
vn -0.015871048 0.999874 -0.00034526698
vn -0.015871048 0.999874 -0.00034526698
vn -0.015871048 0.999874 -0.00034526698
vn -0.015871048 0.999874 -0.00034526698
vn -0.015871048 0.999874 -0.00034526698
vn -0.015871048 0.999874 -0.00034526698
vn -0.015871048 0.999874 -0.00034526698
vn -0.015871048 0.999874 -0.00034526698
vn -0.015871048 0.999874 -0.00034526698
vn -0.015871048 0.999874 -0.00034526698
vn -0.015871048 0.999874 -0.00034526698
vn -0.015871048 0.999874 -0.00034526698
vn -0.015871048 0.999874 -0.00034526698
vn -0.015871048 0.999874 -0.00034526698
vn -0.015871048 0.999874 -0.00034526698
vn -0.015871048 0.999874 -0.00034526698
vn -0.015871048 0.999874 -0.00034526698
vn -0.015871048 0.999874 -0.00034526698
vn -0.015871048 0.999874 -0.00034526698
vn -0.015871048 0.999874 -0.00034526698
vn -0.015871048 0.999874 -0.00034526698
vn -0.015871048 0.999874 -0.00034526698
vn -0.015871048 0.999874 -0.00034526698
vn -0.015871048 0.999874 -0.00034526698
vn -0.999874 0.015871048 -0.00034391563
vn -0.999874 0.015871048 -0.00034391563
vn -0.999874 0.015871048 -0.00034391563
vn -0.999874 0.015871048 -0.00034391563
vn -0.015871048 0.015871048 -0.99974805
vn -0.015871048 0.015871048 -0.99974805
vn -0.015871048 0.015871048 -0.99974805
vn -0.015871048 0.015871048 -0.99974805
vn -0.015871048 0.999874 -0.00034526698
vn -0.015871048 0.999874 -0.00034526698
vn -0.015871048 0.999874 -0.00034526698
vn -0.015871048 0.999874 -0.00034526698
vn -0.015871048 0.999874 -0.00034526698
vn -0.015871048 0.999874 -0.00034526698
vn -0.015871048 0.999874 -0.00034526698
vn -0.015871048 0.999874 -0.00034526698
vn -0.015871048 -0.999874 -0.00034526698
vn -0.015871048 -0.999874 -0.00034526698
vn -0.015871048 -0.999874 -0.00034526698
vn -0.015871048 -0.999874 -0.00034526698
vn -0.015871048 0.999874 -0.00034526698
vn -0.015871048 0.999874 -0.00034526698
vn -0.015871048 0.999874 -0.00034526698
vn -0.015871048 0.999874 -0.00034526698
vn -0.015871048 0.999874 -0.00034526698
vn -0.015871048 0.999874 -0.00034526698
vn -0.015871048 0.999874 -0.00034526698
vn -0.015871048 0.999874 -0.00034526698
vn -0.015871048 0.999874 -0.00034526698
vn -0.015871048 0.999874 -0.00034526698
vn -0.015871048 0.999874 -0.00034526698
vn -0.015871048 0.999874 -0.00034526698
vn -0.015871048 0.999874 -0.00034526698
vn -0.015871048 0.999874 -0.00034526698
vn -0.015871048 0.999874 -0.00034526698
vn -0.015871048 0.999874 -0.00034526698
vn 0.999874 0.015871048 -0.00034391563
vn 0.999874 0.015871048 -0.00034391563
vn 0.999874 0.015871048 -0.00034391563
vn 0.999874 0.015871048 -0.00034391563
vn -0.015871048 0.015871048 0.99974805
vn -0.015871048 0.015871048 0.99974805
vn -0.015871048 0.015871048 0.99974805
vn -0.015871048 0.015871048 0.99974805
vn -0.015871048 0.015871048 0.99974805
vn -0.015871048 0.015871048 0.99974805
vn -0.015871048 0.015871048 0.99974805
vn -0.015871048 0.015871048 0.99974805
vn -0.015871048 0.015871048 -0.99974805
vn -0.015871048 0.015871048 -0.99974805
vn -0.015871048 0.015871048 -0.99974805
vn -0.015871048 0.015871048 -0.99974805
vn -0.999874 0.015871048 -0.00034391563
vn -0.999874 0.015871048 -0.00034391563
vn -0.999874 0.015871048 -0.00034391563
vn -0.999874 0.015871048 -0.00034391563
vn -0.015871048 0.999874 -0.00034526698
vn -0.015871048 0.999874 -0.00034526698
vn -0.015871048 0.999874 -0.00034526698
vn -0.015871048 0.999874 -0.00034526698
vn 0.999874 0.015871048 -0.00034391563
vn 0.999874 0.015871048 -0.00034391563
vn 0.999874 0.015871048 -0.00034391563
vn 0.999874 0.015871048 -0.00034391563
vn -0.999874 0.015871048 -0.00034391563
vn -0.999874 0.015871048 -0.00034391563
vn -0.999874 0.015871048 -0.00034391563
vn -0.999874 0.015871048 -0.00034391563
vn -0.015871048 0.015871048 -0.99974805
vn -0.015871048 0.015871048 -0.99974805
vn -0.015871048 0.015871048 -0.99974805
vn -0.015871048 0.015871048 -0.99974805
vn -0.015871048 -0.999874 -0.00034526698
vn -0.015871048 -0.999874 -0.00034526698
vn -0.015871048 -0.999874 -0.00034526698
vn -0.015871048 -0.999874 -0.00034526698
vn -0.015871048 0.015871048 0.99974805
vn -0.015871048 0.015871048 0.99974805
vn -0.015871048 0.015871048 0.99974805
vn -0.015871048 0.015871048 0.99974805
vn -0.015871048 0.999874 -0.00034526698
vn -0.015871048 0.999874 -0.00034526698
vn -0.015871048 0.999874 -0.00034526698
vn -0.015871048 0.999874 -0.00034526698
vn 0.999874 0.015871048 -0.00034391563
vn 0.999874 0.015871048 -0.00034391563
vn 0.999874 0.015871048 -0.00034391563
vn 0.999874 0.015871048 -0.00034391563
vn -0.999874 0.015871048 -0.00034391563
vn -0.999874 0.015871048 -0.00034391563
vn -0.999874 0.015871048 -0.00034391563
vn -0.999874 0.015871048 -0.00034391563
vn -0.015871048 0.015871048 -0.99974805
vn -0.015871048 0.015871048 -0.99974805
vn -0.015871048 0.015871048 -0.99974805
vn -0.015871048 0.015871048 -0.99974805
vn -0.015871048 -0.999874 -0.00034526698
vn -0.015871048 -0.999874 -0.00034526698
vn -0.015871048 -0.999874 -0.00034526698
vn -0.015871048 -0.999874 -0.00034526698
vn -0.015871048 0.015871048 0.99974805
vn -0.015871048 0.015871048 0.99974805
vn -0.015871048 0.015871048 0.99974805
vn -0.015871048 0.015871048 0.99974805
vn -0.015871048 0.999874 -0.00034526698
vn -0.015871048 0.999874 -0.00034526698
vn -0.015871048 0.999874 -0.00034526698
vn -0.015871048 0.999874 -0.00034526698
vn 0.999874 0.015871048 -0.00034391563
vn 0.999874 0.015871048 -0.00034391563
vn 0.999874 0.015871048 -0.00034391563
vn 0.999874 0.015871048 -0.00034391563
vn -0.999874 0.015871048 -0.00034391563
vn -0.999874 0.015871048 -0.00034391563
vn -0.999874 0.015871048 -0.00034391563
vn -0.999874 0.015871048 -0.00034391563
vn -0.015871048 0.015871048 -0.99974805
vn -0.015871048 0.015871048 -0.99974805
vn -0.015871048 0.015871048 -0.99974805
vn -0.015871048 0.015871048 -0.99974805
vn -0.015871048 -0.999874 -0.00034526698
vn -0.015871048 -0.999874 -0.00034526698
vn -0.015871048 -0.999874 -0.00034526698
vn -0.015871048 -0.999874 -0.00034526698
vn -0.015871048 0.015871048 0.99974805
vn -0.015871048 0.015871048 0.99974805
vn -0.015871048 0.015871048 0.99974805
vn -0.015871048 0.015871048 0.99974805
vn -0.015871048 0.999874 -0.00034526698
vn -0.015871048 0.999874 -0.00034526698
vn -0.015871048 0.999874 -0.00034526698
vn -0.015871048 0.999874 -0.00034526698
vn 0.999874 0.015871048 -0.00034391563
vn 0.999874 0.015871048 -0.00034391563
vn 0.999874 0.015871048 -0.00034391563
vn 0.999874 0.015871048 -0.00034391563
vn -0.015871048 -0.999874 -0.00034526698
vn -0.015871048 -0.999874 -0.00034526698
vn -0.015871048 -0.999874 -0.00034526698
vn -0.015871048 -0.999874 -0.00034526698
g cash_0
f 3/3/3 2/2/2 1/1/1
f 4/4/4 3/3/3 1/1/1
f 4/4/4 5/5/5 3/3/3
f 4/4/4 1/1/1 5/5/5
f 3/3/3 5/5/5 6/6/6
f 5/5/5 1/1/1 7/7/7
f 8/8/8 6/6/6 5/5/5
f 9/9/9 7/7/7 1/1/1
f 10/10/10 7/7/7 9/9/9
f 10/10/10 9/9/9 11/11/11
f 10/10/10 11/11/11 7/7/7
f 9/9/9 12/12/12 11/11/11
f 7/7/7 11/11/11 13/13/13
f 14/14/14 13/13/13 11/11/11
f 15/15/15 13/13/13 14/14/14
f 15/15/15 14/14/14 16/16/16
f 15/15/15 16/16/16 13/13/13
f 13/13/13 16/16/16 8/8/8
f 14/14/14 17/17/17 16/16/16
f 18/18/18 8/8/8 16/16/16
f 18/18/18 19/19/19 6/6/6
f 20/20/20 8/8/8 18/18/18
f 20/20/20 18/18/18 6/6/6
f 20/20/20 6/6/6 8/8/8
f 23/23/23 22/22/22 21/21/21
f 24/24/24 23/23/23 21/21/21
f 27/27/27 26/26/26 25/25/25
f 28/28/28 27/27/27 25/25/25
f 31/31/31 30/30/30 29/29/29
f 32/32/32 31/31/31 29/29/29
f 35/35/35 34/34/34 33/33/33
f 36/36/36 35/35/35 33/33/33
f 39/39/39 38/38/38 37/37/37
f 40/40/40 39/39/39 37/37/37
f 43/43/43 42/42/42 41/41/41
f 44/44/44 43/43/43 41/41/41
f 47/47/47 46/46/46 45/45/45
f 45/45/45 46/46/46 48/48/48
f 49/49/49 48/48/48 46/46/46
f 50/50/50 45/45/45 48/48/48
f 51/51/51 50/50/50 48/48/48
f 52/52/52 45/45/45 50/50/50
f 55/55/55 54/54/54 53/53/53
f 56/56/56 55/55/55 53/53/53
f 59/59/59 58/58/58 57/57/57
f 60/60/60 59/59/59 57/57/57
f 63/63/63 62/62/62 61/61/61
f 64/64/64 63/63/63 61/61/61
f 67/67/67 66/66/66 65/65/65
f 68/68/68 67/67/67 65/65/65
f 71/71/71 70/70/70 69/69/69
f 72/72/72 71/71/71 69/69/69
f 75/75/75 74/74/74 73/73/73
f 76/76/76 75/75/75 73/73/73
f 79/79/79 78/78/78 77/77/77
f 80/80/80 79/79/79 77/77/77
f 83/83/83 82/82/82 81/81/81
f 84/84/84 83/83/83 81/81/81
f 87/87/87 86/86/86 85/85/85
f 88/88/88 87/87/87 85/85/85
f 91/91/91 90/90/90 89/89/89
f 92/92/92 91/91/91 89/89/89
f 95/95/95 94/94/94 93/93/93
f 96/96/96 95/95/95 93/93/93
f 99/99/99 98/98/98 97/97/97
f 100/100/100 99/99/99 97/97/97
f 103/103/103 102/102/102 101/101/101
f 104/104/104 103/103/103 101/101/101
f 107/107/107 106/106/106 105/105/105
f 108/108/108 107/107/107 105/105/105
f 111/111/111 110/110/110 109/109/109
f 112/112/112 111/111/111 109/109/109
f 115/115/115 114/114/114 113/113/113
f 116/116/116 115/115/115 113/113/113
f 119/119/119 118/118/118 117/117/117
f 120/120/120 119/119/119 117/117/117
f 123/123/123 122/122/122 121/121/121
f 124/124/124 123/123/123 121/121/121
f 127/127/127 126/126/126 125/125/125
f 128/128/128 127/127/127 125/125/125
f 131/131/131 130/130/130 129/129/129
f 132/132/132 131/131/131 129/129/129
f 135/135/135 134/134/134 133/133/133
f 136/136/136 135/135/135 133/133/133
f 139/139/139 138/138/138 137/137/137
f 140/140/140 139/139/139 137/137/137
f 143/143/143 142/142/142 141/141/141
f 144/144/144 143/143/143 141/141/141
f 147/147/147 146/146/146 145/145/145
f 148/148/148 147/147/147 145/145/145
f 151/151/151 150/150/150 149/149/149
f 152/152/152 151/151/151 149/149/149
f 155/155/155 154/154/154 153/153/153
f 156/156/156 155/155/155 153/153/153
f 159/159/159 158/158/158 157/157/157
f 160/160/160 159/159/159 157/157/157
f 163/163/163 162/162/162 161/161/161
f 164/164/164 163/163/163 161/161/161
