g cashBag
v 0.6043762 0.8780601 1.1545324
v 0.09324934 1.2530154 0.87706125
v 0.5560497 1.1754087 0.7762487
v 0.008732662 0.9748801 1.2715722
v -0.37356502 1.3019931 0.7767113
v -0.58664095 1.031046 1.1316693
v -0.7001466 1.2954044 0.42484623
v -0.99558866 1.0124798 0.674168
v -0.85443485 1.2507706 -0.02768566
v -1.181085 0.9449017 0.09248139
v -0.71822035 1.1665754 -0.48035896
v -0.9943892 0.8295156 -0.48206398
v -0.4056899 1.0729599 -0.8325453
v -0.5845119 0.70577574 -0.9238476
v 0.057110496 0.9953488 -0.93335354
v 0.011131644 0.6089515 -1.0408876
v 0.52392495 0.94637114 -0.83300793
v 0.60650516 0.5527898 -0.90098464
v 0.8505065 0.9529597 -0.48114294
v 1.0154487 0.5713517 -0.44347915
v 1.0047946 0.9975977 -0.028611017
v 1.2009492 0.6389299 0.13820748
v 0.8685758 1.0817931 0.42406225
v 1.0047946 0.9975977 -0.028611017
v 1.0142534 0.75431603 0.71274865
v 0.5560497 1.1754087 0.7762487
v 0.20990194 0.7935989 -0.23902628
v 0.15251158 0.9296422 -0.33961448
v 0.15592493 0.9156208 -0.47164997
v 0.22818722 0.74147546 -0.41128516
v 0.25879315 0.6641978 -0.467651
v -0.25858492 1.91455 -0.8179136
v 0.14301635 0.9942271 0.6230398
v -0.34547558 2.1204278 -0.9724311
v 0.14667328 0.9738365 0.35662824
v 0.12838794 1.02596 0.5288871
v 0.056125686 1.2001051 0.46852225
v 0.07901637 1.1391451 0.35275722
v -0.46125236 2.450457 0.118259616
v -0.3583842 2.1990345 0.12225843
v -0.4306465 2.3731797 0.06189377
v -0.41236123 2.3210561 -0.110365085
v -0.35497087 2.1850128 -0.009777004
v -0.3491325 2.1408188 -0.7060197
v -0.2814756 1.97551 -0.7021486
v -0.33084723 2.0886953 -0.87827843
v -0.41236123 2.3210561 -0.110365085
v -0.3491325 2.1408188 -0.7060197
v -0.2814756 1.97551 -0.7021486
v -0.35497087 2.1850128 -0.009777004
v -0.35497087 2.1850128 -0.009777004
v 0.07901637 1.1391451 0.35275722
v 0.056125686 1.2001051 0.46852225
v -0.3583842 2.1990345 0.12225843
v 0.20990194 0.7935989 -0.23902628
v 0.14667328 0.9738365 0.35662824
v 0.07901637 1.1391451 0.35275722
v 0.15251158 0.9296422 -0.33961448
v -0.04979348 1.451825 -0.54063153
v -0.2288008 1.9003223 -0.29202327
v -0.16029078 1.7231234 -0.5163228
v -0.12743463 1.6731461 0.19079697
v -0.21519135 1.8796211 0.0008752551
v 0.051572695 1.224649 -0.057811372
v -0.016937392 1.401848 0.16648817
v 0.037963256 1.2453501 -0.35070992
v 0.15592493 0.9156208 -0.47164997
v 0.15251158 0.9296422 -0.33961448
v -0.2814756 1.97551 -0.7021486
v -0.25858492 1.91455 -0.8179136
v -0.2814756 1.97551 -0.7021486
v 0.15251158 0.9296422 -0.33961448
v 0.07901637 1.1391451 0.35275722
v -0.35497087 2.1850128 -0.009777004
v 0.016656859 0.94256324 0.6252596
v 0.14301635 0.9942271 0.6230398
v 0.25879315 0.6641978 -0.467651
v 0.13243358 0.6125339 -0.46543118
v -0.5876118 2.3987932 0.12047935
v -0.46125236 2.450457 0.118259616
v 0.14301635 0.9942271 0.6230398
v 0.016656859 0.94256324 0.6252596
v 0.13243358 0.6125339 -0.46543118
v 0.25879315 0.6641978 -0.467651
v -0.34547558 2.1204278 -0.9724311
v -0.47183505 2.068764 -0.9702113
v -0.47183505 2.068764 -0.9702113
v -0.34547558 2.1204278 -0.9724311
v -0.46125236 2.450457 0.118259616
v -0.5876118 2.3987932 0.12047935
v -0.7729806 2.3230026 0.12373585
v -0.8991358 2.2714221 0.12595198
v -0.78335905 1.9413929 -0.9647388
v -0.65720356 1.9929733 -0.9669549
v -0.65720356 1.9929733 -0.9669549
v -0.78335905 1.9413929 -0.9647388
v -0.17909029 0.48516268 -0.4599585
v -0.052934974 0.5367433 -0.46217465
v -0.8991358 2.2714221 0.12595198
v -0.29486713 0.8151921 0.63073224
v -0.17909029 0.48516268 -0.4599585
v -0.78335905 1.9413929 -0.9647388
v -0.16871177 0.8667726 0.628516
v -0.29486713 0.8151921 0.63073224
v -0.8991358 2.2714221 0.12595198
v -0.7729806 2.3230026 0.12373585
v -0.16871177 0.8667726 0.628516
v -0.7729806 2.3230026 0.12373585
v -0.65720356 1.9929733 -0.9669549
v -0.052934974 0.5367433 -0.46217465
v -0.052934974 0.5367433 -0.46217465
v -0.17909029 0.48516268 -0.4599585
v -0.29486713 0.8151921 0.63073224
v -0.16871177 0.8667726 0.628516
v -0.6215359 2.3849227 0.12107537
v -0.74769115 2.3333423 0.1232915
v -0.6319144 2.003313 -0.9673992
v -0.505759 2.0548937 -0.9696153
v -0.505759 2.0548937 -0.9696153
v -0.6319144 2.003313 -0.9673992
v -0.027645694 0.5470831 -0.462619
v 0.098509654 0.5986636 -0.46483517
v -0.74769115 2.3333423 0.1232915
v -0.1434225 0.8771125 0.6280717
v -0.027645694 0.5470831 -0.462619
v -0.6319144 2.003313 -0.9673992
v -0.017267184 0.92869294 0.6258555
v -0.1434225 0.8771125 0.6280717
v -0.74769115 2.3333423 0.1232915
v -0.6215359 2.3849227 0.12107537
v -0.017267184 0.92869294 0.6258555
v -0.6215359 2.3849227 0.12107537
v -0.505759 2.0548937 -0.9696153
v 0.098509654 0.5986636 -0.46483517
v 0.098509654 0.5986636 -0.46483517
v -0.027645694 0.5470831 -0.462619
v -0.1434225 0.8771125 0.6280717
v -0.017267184 0.92869294 0.6258555
v 0.13243358 0.6125339 -0.46543118
v -0.47183505 2.068764 -0.9702113
v -0.5876118 2.3987932 0.12047935
v 0.016656859 0.94256324 0.6252596
v 1.0131106 1.8325499 0.6539823
v 0.97406346 1.6958383 0.5457943
v 1.0733385 1.6393971 0.47796747
v 1.1690702 1.7805221 0.57852346
v 1.2671711 1.8019615 0.5770285
v 0.52420396 0.82987845 -0.09884019
v 0.27968273 2.1313863 1.0548105
v 0.46664765 0.62185246 -0.26383656
v 0.47381762 2.0124574 0.9149114
v 0.3178581 2.0644855 0.9903702
v 0.22212642 1.9233605 0.88981426
v 0.34720472 1.9049575 0.84909093
v -0.5208407 0.9512772 0.21394558
v -0.32700813 1.1138418 0.31300664
v -0.4227398 0.97271675 0.21245061
v -0.26678032 0.92068887 0.13699183
v -0.22773308 1.0574005 0.2451798
v 0.27251276 0.7407814 -0.1239374
v 0.39912567 0.84828126 -0.05811681
v 0.42847228 0.6887535 -0.19939618
v -0.26678032 0.92068887 0.13699183
v 0.27251276 0.7407814 -0.1239374
v 0.39912567 0.84828126 -0.05811681
v -0.22773308 1.0574005 0.2451798
v -0.22773308 1.0574005 0.2451798
v 0.34720472 1.9049575 0.84909093
v 0.22212642 1.9233605 0.88981426
v -0.32700813 1.1138418 0.31300664
v 1.0131106 1.8325499 0.6539823
v 0.47381762 2.0124574 0.9149114
v 0.34720472 1.9049575 0.84909093
v 0.97406346 1.6958383 0.5457943
v 0.7022132 1.2748802 0.22501099
v 0.18538652 1.1115599 0.19013818
v 0.47391182 1.1136422 0.13399398
v 0.039993197 1.495796 0.5454167
v 0.0056515634 1.2698531 0.36055502
v 0.55681986 1.6591164 0.5802895
v 0.2682945 1.657034 0.63643366
v 0.7365548 1.5008231 0.40987268
v 1.0733385 1.6393971 0.47796747
v 0.97406346 1.6958383 0.5457943
v 0.39912567 0.84828126 -0.05811681
v 0.52420396 0.82987845 -0.09884019
v 0.39912567 0.84828126 -0.05811681
v 0.97406346 1.6958383 0.5457943
v 0.34720472 1.9049575 0.84909093
v -0.22773308 1.0574005 0.2451798
v 0.30033594 2.044058 1.1577088
v 0.27968273 2.1313863 1.0548105
v 1.2671711 1.8019615 0.5770285
v 1.2878244 1.7146333 0.6799267
v -0.50018746 0.863949 0.31684378
v -0.5208407 0.9512772 0.21394558
v 0.27968273 2.1313863 1.0548105
v 0.30033594 2.044058 1.1577088
v 1.2878244 1.7146333 0.6799267
v 1.2671711 1.8019615 0.5770285
v 0.46664765 0.62185246 -0.26383656
v 0.48730087 0.5345242 -0.16093838
v 0.48730087 0.5345242 -0.16093838
v 0.46664765 0.62185246 -0.26383656
v -0.5208407 0.9512772 0.21394558
v -0.50018746 0.863949 0.31684378
v 1.2878244 1.7146333 0.6799267
v 0.48730087 0.5345242 -0.16093838
v -0.50018746 0.863949 0.31684378
v 0.30033594 2.044058 1.1577088
v 1.434536 1.5914732 -0.58368945
v 1.278737 1.5044953 -0.59268624
v 1.2377403 1.4617132 -0.71155846
v 1.4097714 1.5481975 -0.757581
v 1.4527954 1.556359 -0.8479579
v 0.25093848 0.9656226 -0.447565
v 1.6095964 1.8303671 0.25307024
v 0.014244437 0.8331628 -0.46311063
v 1.520169 1.741116 0.01761062
v 1.5449334 1.7843916 0.19150211
v 1.3729024 1.6979072 0.2375246
v 1.3782744 1.6784358 0.106247626
v 0.17104542 1.1071706 0.6379175
v 0.3861004 1.2018166 0.5015181
v 0.21406937 1.1153321 0.5475406
v 0.18930489 1.0720565 0.3736491
v 0.3451038 1.1590345 0.38264585
v 0.10367185 0.92241377 -0.227651
v 0.24556643 0.985094 -0.316288
v 0.07890737 0.8791381 -0.40154248
v 0.18930489 1.0720565 0.3736491
v 0.10367185 0.92241377 -0.227651
v 0.24556643 0.985094 -0.316288
v 0.3451038 1.1590345 0.38264585
v 0.3451038 1.1590345 0.38264585
v 1.3782744 1.6784358 0.106247626
v 1.3729024 1.6979072 0.2375246
v 0.3861004 1.2018166 0.5015181
v 1.434536 1.5914732 -0.58368945
v 1.520169 1.741116 0.01761062
v 1.3782744 1.6784358 0.106247626
v 1.278737 1.5044953 -0.59268624
v 0.752862 1.2517086 -0.47621912
v 0.4717029 1.1758077 -0.017756341
v 0.5322747 1.1599822 -0.30495656
v 0.85801435 1.4354613 0.26214185
v 0.60662866 1.2899148 0.2171435
v 1.1391734 1.5113621 -0.19632092
v 1.0786016 1.5271877 0.090879336
v 1.0042477 1.3972551 -0.43122074
v 1.2377403 1.4617132 -0.71155846
v 1.278737 1.5044953 -0.59268624
v 0.24556643 0.985094 -0.316288
v 0.25093848 0.9656226 -0.447565
v 0.24556643 0.985094 -0.316288
v 1.278737 1.5044953 -0.59268624
v 1.3782744 1.6784358 0.106247626
v 0.3451038 1.1590345 0.38264585
v 1.6745234 1.7119755 0.27328733
v 1.6095964 1.8303671 0.25307024
v 1.4527954 1.556359 -0.8479579
v 1.5177224 1.4379675 -0.8277408
v 0.2359724 0.98877907 0.65813464
v 0.17104542 1.1071706 0.6379175
v 1.6095964 1.8303671 0.25307024
v 1.6745234 1.7119755 0.27328733
v 1.5177224 1.4379675 -0.8277408
v 1.4527954 1.556359 -0.8479579
v 0.014244437 0.8331628 -0.46311063
v 0.07917142 0.71477115 -0.4428935
v 0.07917142 0.71477115 -0.4428935
v 0.014244437 0.8331628 -0.46311063
v 0.17104542 1.1071706 0.6379175
v 0.2359724 0.98877907 0.65813464
v 1.5177224 1.4379675 -0.8277408
v 0.07917142 0.71477115 -0.4428935
v 0.2359724 0.98877907 0.65813464
v 1.6745234 1.7119755 0.27328733
v 0.61922276 1.6020766 -1.1551306
v 0.47731045 1.522041 -1.0818189
v 0.36932072 1.5048075 -1.1572037
v 0.49208692 1.5950197 -1.2836257
v 0.4749659 1.6201717 -1.3793333
v -0.33488864 0.98733395 -0.43202317
v 1.2799518 1.6648544 -0.5657418
v -0.55162424 0.8658034 -0.32217154
v 1.0588465 1.626479 -0.7108073
v 1.1859825 1.6335361 -0.5823123
v 1.0632162 1.5433239 -0.45589015
v 0.98831636 1.5504059 -0.56535023
v 0.25336167 0.9104862 0.49141994
v 0.35900685 1.0258503 0.26929036
v 0.23624066 0.93563825 0.39571247
v 0.10910478 0.9285812 0.26721743
v 0.25101712 1.0086167 0.1939057
v -0.3305189 0.90417874 -0.177106
v -0.25998873 0.9802521 -0.32256308
v -0.45765477 0.89712185 -0.30560103
v 0.10910478 0.9285812 0.26721743
v -0.3305189 0.90417874 -0.177106
v -0.25998873 0.9802521 -0.32256308
v 0.25101712 1.0086167 0.1939057
v 0.25101712 1.0086167 0.1939057
v 0.98831636 1.5504059 -0.56535023
v 1.0632162 1.5433239 -0.45589015
v 0.35900685 1.0258503 0.26929036
v 0.61922276 1.6020766 -1.1551306
v 1.0588465 1.626479 -0.7108073
v 0.98831636 1.5504059 -0.56535023
v 0.47731045 1.522041 -1.0818189
v 0.089496136 1.2624686 -0.7127225
v 0.12124933 1.102442 -0.19466576
v 0.00014618039 1.1431067 -0.45939913
v 0.62932813 1.2924333 -0.1671195
v 0.381865 1.164295 -0.07359957
v 0.59757483 1.4524598 -0.6851762
v 0.718678 1.411795 -0.42044273
v 0.33695924 1.3906068 -0.8062423
v 0.36932072 1.5048075 -1.1572037
v 0.47731045 1.522041 -1.0818189
v -0.25998873 0.9802521 -0.32256308
v -0.33488864 0.98733395 -0.43202317
v -0.25998873 0.9802521 -0.32256308
v 0.47731045 1.522041 -1.0818189
v 0.98831636 1.5504059 -0.56535023
v 0.25101712 1.0086167 0.1939057
v 1.3275454 1.543439 -0.6061639
v 1.2799518 1.6648544 -0.5657418
v 0.4749659 1.6201717 -1.3793333
v 0.52255964 1.4987563 -1.4197552
v 0.30095538 0.78907084 0.45099783
v 0.25336167 0.9104862 0.49141994
v 1.2799518 1.6648544 -0.5657418
v 1.3275454 1.543439 -0.6061639
v 0.52255964 1.4987563 -1.4197552
v 0.4749659 1.6201717 -1.3793333
v -0.55162424 0.8658034 -0.32217154
v -0.5040305 0.74438804 -0.36259368
v -0.5040305 0.74438804 -0.36259368
v -0.55162424 0.8658034 -0.32217154
v 0.25336167 0.9104862 0.49141994
v 0.30095538 0.78907084 0.45099783
v 0.52255964 1.4987563 -1.4197552
v -0.5040305 0.74438804 -0.36259368
v 0.30095538 0.78907084 0.45099783
v 1.3275454 1.543439 -0.6061639
v -0.2819516 0.8371428 0.11109024
v -0.17679662 0.9673049 0.17369774
v -0.18900442 1.0016032 0.3014327
v -0.3242684 0.8579031 0.28574023
v -0.38509214 0.82199687 0.3571326
v 0.5868944 1.8258936 0.39144745
v -0.11715561 0.6905498 -0.748698
v 0.74600595 2.0236402 0.4883553
v -0.1356245 0.76535624 -0.49283257
v -0.09330779 0.74459606 -0.66748255
v 0.041956067 0.88829625 -0.6517901
v -0.0067102313 0.88386214 -0.5282848
v 1.0139427 1.8921928 -0.61747533
v 0.817855 1.7125866 -0.56177515
v 0.953119 1.8562868 -0.546083
v 0.91080225 1.8770468 -0.37143296
v 0.80564725 1.746885 -0.43404037
v 0.7644751 1.9488337 0.23248994
v 0.63556075 1.8303279 0.26794213
v 0.7221583 1.9695938 0.40713987
v 0.91080225 1.8770468 -0.37143296
v 0.7644751 1.9488337 0.23248994
v 0.63556075 1.8303279 0.26794213
v 0.80564725 1.746885 -0.43404037
v 0.80564725 1.746885 -0.43404037
v -0.0067102313 0.88386214 -0.5282848
v 0.041956067 0.88829625 -0.6517901
v 0.817855 1.7125866 -0.56177515
v -0.2819516 0.8371428 0.11109024
v -0.1356245 0.76535624 -0.49283257
v -0.0067102313 0.88386214 -0.5282848
v -0.17679662 0.9673049 0.17369774
v 0.21515617 1.4104142 0.23723614
v 0.56740475 1.6451135 -0.10311183
v 0.42702037 1.5946282 0.1501604
v 0.3948372 1.3222644 -0.5043455
v 0.5540741 1.5322969 -0.374217
v 0.04258868 1.0875654 -0.16399759
v 0.18297315 1.1380508 -0.4172698
v 0.05591929 1.200382 0.10710753
v -0.18900442 1.0016032 0.3014327
v -0.17679662 0.9673049 0.17369774
v 0.63556075 1.8303279 0.26794213
v 0.5868944 1.8258936 0.39144745
v 0.63556075 1.8303279 0.26794213
v -0.17679662 0.9673049 0.17369774
v -0.0067102313 0.88386214 -0.5282848
v 0.80564725 1.746885 -0.43404037
v -0.022717297 0.5979549 -0.71480966
v -0.11715561 0.6905498 -0.748698
v -0.38509214 0.82199687 0.3571326
v -0.29065388 0.7294021 0.39102104
v 1.1083809 1.7995982 -0.5835869
v 1.0139427 1.8921928 -0.61747533
v -0.11715561 0.6905498 -0.748698
v -0.022717297 0.5979549 -0.71480966
v -0.29065388 0.7294021 0.39102104
v -0.38509214 0.82199687 0.3571326
v 0.74600595 2.0236402 0.4883553
v 0.84044445 1.9310453 0.52224374
v 0.84044445 1.9310453 0.52224374
v 0.74600595 2.0236402 0.4883553
v 1.0139427 1.8921928 -0.61747533
v 1.1083809 1.7995982 -0.5835869
v 1.133735 1.774739 -0.5744887
v 1.2280207 1.6822938 -0.5406551
v 0.96008414 1.813741 0.5651754
v 0.8657984 1.9061861 0.5313418
v 0.8657984 1.9061861 0.5313418
v 0.96008414 1.813741 0.5651754
v -0.17101401 0.6120978 0.43395272
v -0.26529974 0.70454293 0.40011916
v 1.2280207 1.6822938 -0.5406551
v 0.09692249 0.4806506 -0.671878
v -0.17101401 0.6120978 0.43395272
v 0.96008414 1.813741 0.5651754
v 0.0026367903 0.57309586 -0.7057114
v 0.09692249 0.4806506 -0.671878
v 1.2280207 1.6822938 -0.5406551
v 1.133735 1.774739 -0.5744887
v 0.0026367903 0.57309586 -0.7057114
v 1.133735 1.774739 -0.5744887
v 0.8657984 1.9061861 0.5313418
v -0.26529974 0.70454293 0.40011916
v -0.26529974 0.70454293 0.40011916
v -0.17101401 0.6120978 0.43395272
v 0.09692249 0.4806506 -0.671878
v 0.0026367903 0.57309586 -0.7057114
v -0.29065388 0.7294021 0.39102104
v 0.84044445 1.9310453 0.52224374
v 1.1083809 1.7995982 -0.5835869
v -0.022717297 0.5979549 -0.71480966
v 0.09324934 1.2530154 0.87706125
v -0.32021484 1.3232799 0.6898621
v -0.37356502 1.3019931 0.7767113
v 0.10237904 1.2830917 0.7804687
v 0.5560497 1.1754087 0.7762487
v 0.52478135 1.2264974 0.6899742
v -0.37356502 1.3019931 0.7767113
v -0.32021484 1.3232799 0.6898621
v -0.6147641 1.3131567 0.3722862
v -0.7001466 1.2954044 0.42484623
v -0.75418544 1.2760465 -0.03690631
v -0.85443485 1.2507706 -0.02768566
v -0.62955487 1.203409 -0.4467448
v -0.71822035 1.1665754 -0.48035896
v -0.34638312 1.128023 -0.76761824
v -0.4056899 1.0729599 -0.8325453
v 0.07482526 1.063237 -0.86005443
v 0.057110496 0.9953488 -0.93335354
v 0.50187707 1.0273662 -0.7727954
v 0.52392495 0.94637114 -0.83300793
v 0.79952896 1.0357565 -0.4515783
v 0.8505065 0.9529597 -0.48114294
v 0.93917334 1.0767587 -0.04093131
v 1.0047946 0.9975977 -0.028611017
v 0.808873 1.1472013 0.37474984
v 0.8685758 1.0817931 0.42406225
v 0.52478135 1.2264974 0.6899742
v 0.5560497 1.1754087 0.7762487
v -0.5580846 1.7805413 -1.290659
v 0.050736085 1.5608938 -1.4450841
v 0.6816017 1.3483278 -1.3172749
v 1.1463342 1.255149 -0.83251953
v 1.3896456 1.2777934 -0.20165403
v 1.245553 1.4428984 0.4375266
v 0.8579989 1.5975765 0.94058263
v -0.94564295 2.0102644 -0.78760296
v 0.24917825 1.9363925 1.095008
v 0.09324934 1.2530154 0.87706125
v -1.0897355 2.1753688 -0.1484181
v -0.38169158 2.1143193 0.9672027
v -0.8464197 2.1980135 0.48244318
v 1.184732 1.5091789 0.390896
v 0.82477033 1.649675 0.8558781
v 1.3252193 1.3586203 -0.20695977
v 0.25940236 1.9660648 0.99835485
v -0.32748446 2.1354861 0.8808114
v 1.0983082 1.3377882 -0.797834
v -0.7606539 2.2158017 0.43049744
v -0.9894884 2.2006333 -0.15769413
v 0.6665069 1.428086 -1.2529606
v -0.85644114 2.0466816 -0.7549182
v 0.07214213 1.6274263 -1.3714032
v -0.49569583 1.8344278 -1.2274662
v -1.3930434 0.36444595 0.9193815
v -1.181085 0.9449017 0.09248139
v -0.99558866 1.0124798 0.674168
v -1.6567389 0.36414713 0.095565654
v -0.9943892 0.8295156 -0.48206398
v -0.8134105 0.33729067 1.5623019
v -0.58664095 1.031046 1.1316693
v -1.3937408 0.325327 -0.72518706
v -0.5845119 0.70577574 -0.9238476
v 0.029374339 0.28000236 1.7499356
v 0.008732662 0.9748801 1.2715722
v -0.8146474 0.2677401 -1.3613732
v 0.011131644 0.6089515 -1.0408876
v 0.8720053 0.21402681 1.5721077
v 0.6043762 0.8780601 1.1545324
v 0.02798386 0.20176029 -1.5392014
v 0.60650516 0.5527898 -0.90098464
v 1.4510987 0.15644006 0.9359215
v 1.0142534 0.75431603 0.71274865
v 0.8707685 0.14447644 -1.3515674
v 1.0154487 0.5713517 -0.44347915
v 1.714097 0.11761984 0.11516866
v 1.2009492 0.6389299 0.13820748
v 1.4504012 0.117321014 -0.7086471
v 0.8764668 -0.5917605 1.4623417
v 1.4325529 -0.5192685 0.8459086
v 1.6835027 -0.45663375 0.053879134
v 1.4269367 -0.4274305 -0.73757184
v 0.866481 -0.42849708 -1.3527328
v 0.053829066 -0.47178996 -1.5277464
v 0.06506571 -0.65546167 1.6392144
v -0.75757205 -0.5354911 -1.3508736
v -0.7475863 -0.69875467 1.4642009
v -1.3136581 -0.6079831 -0.7344404
v -1.3080378 -0.6998211 0.84904003
v -1.564608 -0.6706222 0.057588935
v 0.62132317 -0.9275094 1.0307579
v 0.058678403 -0.924121 1.1532726
v -0.5039749 -0.92215455 1.0320945
v -0.89079213 -0.9228014 0.60609686
v 0.05406896 -0.99776065 0.062206894
v 1.0081447 -0.931836 0.6038393
v -1.0666196 -0.9251617 0.058000136
v -0.89079213 -0.9291971 -0.4905121
v 1.1839722 -0.9358671 0.055327
v -0.5039749 -0.9335238 -0.9174307
v 1.0081447 -0.9382317 -0.49276966
v 0.058674127 -0.9369122 -1.0399454
v 0.62132317 -0.93887854 -0.9187672
v 0.82477033 1.649675 0.8558781
v 0.52478135 1.2264974 0.6899742
v 0.808873 1.1472013 0.37474984
v 1.184732 1.5091789 0.390896
v 0.25940236 1.9660648 0.99835485
v 0.93917334 1.0767587 -0.04093131
v 0.10237904 1.2830917 0.7804687
v 1.3252193 1.3586203 -0.20695977
v -0.32748446 2.1354861 0.8808114
v 0.79952896 1.0357565 -0.4515783
v -0.32021484 1.3232799 0.6898621
v 1.0983082 1.3377882 -0.797834
v -0.7606539 2.2158017 0.43049744
v 0.50187707 1.0273662 -0.7727954
v -0.6147641 1.3131567 0.3722862
v 0.6665069 1.428086 -1.2529606
v -0.9894884 2.2006333 -0.15769413
v 0.07482526 1.063237 -0.86005443
v -0.75418544 1.2760465 -0.03690631
v 0.07214213 1.6274263 -1.3714032
v -0.85644114 2.0466816 -0.7549182
v -0.34638312 1.128023 -0.76761824
v -0.62955487 1.203409 -0.4467448
v -0.49569583 1.8344278 -1.2274662
vt 0.28020325 0.09323633
vt 0.28020325 0.09323633
vt 0.28020325 0.09323633
vt 0.28020325 0.09323633
vt 0.28020325 0.09323633
vt 0.28020325 0.09323633
vt 0.28020325 0.09323633
vt 0.28020325 0.09323633
vt 0.28020325 0.09323633
vt 0.28020325 0.09323633
vt 0.28020325 0.09323633
vt 0.28020325 0.09323633
vt 0.28020325 0.09323633
vt 0.28020325 0.09323633
vt 0.28020325 0.09323633
vt 0.28020325 0.09323633
vt 0.28020325 0.09323633
vt 0.28020325 0.09323633
vt 0.28020325 0.09323633
vt 0.28020325 0.09323633
vt 0.28020325 0.09323633
vt 0.28020325 0.09323633
vt 0.28020325 0.09323633
vt 0.28020325 0.09323633
vt 0.28020325 0.09323633
vt 0.28020325 0.09323633
vt 0.6515904 0.46786523
vt 0.6515904 0.46786523
vt 0.6515904 0.46786523
vt 0.6515904 0.46786523
vt 0.6515904 0.46786523
vt 0.6515904 0.46786523
vt 0.6515904 0.46786523
vt 0.6515904 0.46786523
vt 0.6515904 0.46786523
vt 0.6515904 0.46786523
vt 0.6515904 0.46786523
vt 0.6515904 0.46786523
vt 0.6515904 0.46786523
vt 0.6515904 0.46786523
vt 0.6515904 0.46786523
vt 0.6515904 0.46786523
vt 0.6515904 0.46786523
vt 0.6515904 0.46786523
vt 0.6515904 0.46786523
vt 0.6515904 0.46786523
vt 0.5320014 0.46659657
vt 0.5320013 0.46659657
vt 0.5320014 0.46659657
vt 0.5320014 0.4665966
vt 0.5320014 0.4665966
vt 0.5320013 0.46659657
vt 0.5320013 0.46659654
vt 0.5320014 0.46659654
vt 0.5320013 0.46659657
vt 0.5320013 0.46659657
vt 0.5320013 0.46659657
vt 0.5320013 0.4665966
vt 0.6515904 0.46786523
vt 0.6515904 0.46786523
vt 0.6515904 0.46786523
vt 0.6515904 0.46786523
vt 0.6515904 0.46786523
vt 0.6515904 0.46786523
vt 0.6515904 0.46786523
vt 0.6515904 0.46786523
vt 0.5320013 0.46659654
vt 0.5320013 0.4665966
vt 0.5320014 0.46659657
vt 0.5320013 0.46659654
vt 0.5320014 0.46659657
vt 0.5320013 0.4665966
vt 0.5320013 0.46659657
vt 0.5320014 0.4665966
vt 0.6515904 0.46786523
vt 0.6515904 0.46786523
vt 0.6515904 0.46786523
vt 0.6515904 0.46786523
vt 0.6515904 0.46786523
vt 0.6515904 0.46786523
vt 0.6515904 0.46786523
vt 0.6515904 0.46786523
vt 0.6515904 0.46786523
vt 0.6515904 0.46786523
vt 0.6515904 0.46786523
vt 0.6515904 0.46786523
vt 0.6515904 0.46786523
vt 0.6515904 0.46786523
vt 0.6515904 0.46786523
vt 0.6515904 0.46786523
vt 0.6515904 0.46786523
vt 0.6515904 0.46786523
vt 0.6515904 0.46786523
vt 0.6515904 0.46786523
vt 0.6515904 0.46786523
vt 0.6515904 0.46786523
vt 0.6515904 0.46786523
vt 0.6515904 0.46786523
vt 0.6515904 0.46786523
vt 0.6515904 0.46786523
vt 0.6515904 0.46786523
vt 0.6515904 0.46786523
vt 0.6515904 0.46786523
vt 0.6515904 0.46786523
vt 0.6515904 0.46786523
vt 0.6515904 0.46786523
vt 0.6515904 0.46786523
vt 0.6515904 0.46786523
vt 0.6515904 0.46786523
vt 0.6515904 0.46786523
vt 0.6515904 0.46786523
vt 0.6515904 0.46786523
vt 0.6515904 0.46786523
vt 0.6515904 0.46786523
vt 0.6515904 0.46786523
vt 0.6515904 0.46786523
vt 0.6515904 0.46786523
vt 0.6515904 0.46786523
vt 0.6515904 0.46786523
vt 0.6515904 0.46786523
vt 0.6515904 0.46786523
vt 0.6515904 0.46786523
vt 0.6515904 0.46786523
vt 0.6515904 0.46786523
vt 0.6515904 0.46786523
vt 0.6515904 0.46786523
vt 0.6515904 0.46786523
vt 0.6515904 0.46786523
vt 0.6515904 0.46786523
vt 0.6515904 0.46786523
vt 0.6515904 0.46786523
vt 0.6515904 0.46786523
vt 0.6515904 0.46786523
vt 0.6515904 0.46786523
vt 0.6515904 0.46786523
vt 0.6515904 0.46786523
vt 0.6515904 0.46786523
vt 0.6515904 0.46786523
vt 0.6515904 0.46786523
vt 0.6515904 0.46786523
vt 0.6515904 0.46786523
vt 0.6515904 0.46786523
vt 0.6515904 0.46786523
vt 0.6515904 0.46786523
vt 0.6515904 0.46786523
vt 0.6515904 0.46786523
vt 0.6515904 0.46786523
vt 0.6515904 0.46786523
vt 0.6515904 0.46786523
vt 0.6515904 0.46786523
vt 0.6515904 0.46786523
vt 0.6515904 0.46786523
vt 0.6515904 0.46786523
vt 0.6515904 0.46786523
vt 0.6515904 0.46786523
vt 0.6515904 0.46786523
vt 0.6515904 0.46786523
vt 0.6515904 0.46786523
vt 0.6515904 0.46786523
vt 0.6515904 0.46786523
vt 0.6515904 0.46786523
vt 0.6515904 0.46786523
vt 0.5320014 0.46659657
vt 0.5320013 0.46659657
vt 0.5320014 0.46659657
vt 0.5320014 0.4665966
vt 0.5320014 0.4665966
vt 0.5320013 0.46659657
vt 0.5320013 0.46659654
vt 0.5320014 0.46659654
vt 0.5320013 0.46659657
vt 0.5320013 0.46659657
vt 0.5320013 0.46659657
vt 0.5320013 0.4665966
vt 0.6515904 0.46786523
vt 0.6515904 0.46786523
vt 0.6515904 0.46786523
vt 0.6515904 0.46786523
vt 0.6515904 0.46786523
vt 0.6515904 0.46786523
vt 0.6515904 0.46786523
vt 0.6515904 0.46786523
vt 0.5320013 0.46659654
vt 0.5320013 0.4665966
vt 0.5320014 0.46659657
vt 0.5320013 0.46659654
vt 0.5320014 0.46659657
vt 0.5320013 0.4665966
vt 0.5320013 0.46659657
vt 0.5320014 0.4665966
vt 0.6515904 0.46786523
vt 0.6515904 0.46786523
vt 0.6515904 0.46786523
vt 0.6515904 0.46786523
vt 0.6515904 0.46786523
vt 0.6515904 0.46786523
vt 0.6515904 0.46786523
vt 0.6515904 0.46786523
vt 0.6515904 0.46786523
vt 0.6515904 0.46786523
vt 0.6515904 0.46786523
vt 0.6515904 0.46786523
vt 0.6515904 0.46786523
vt 0.6515904 0.46786523
vt 0.6515904 0.46786523
vt 0.6515904 0.46786523
vt 0.6515904 0.46786523
vt 0.6515904 0.46786523
vt 0.6515904 0.46786523
vt 0.6515904 0.46786523
vt 0.6515904 0.46786523
vt 0.6515904 0.46786523
vt 0.6515904 0.46786523
vt 0.6515904 0.46786523
vt 0.6515904 0.46786523
vt 0.6515904 0.46786523
vt 0.6515904 0.46786523
vt 0.6515904 0.46786523
vt 0.6515904 0.46786523
vt 0.6515904 0.46786523
vt 0.6515904 0.46786523
vt 0.6515904 0.46786523
vt 0.6515904 0.46786523
vt 0.6515904 0.46786523
vt 0.6515904 0.46786523
vt 0.6515904 0.46786523
vt 0.6515904 0.46786523
vt 0.6515904 0.46786523
vt 0.6515904 0.46786523
vt 0.6515904 0.46786523
vt 0.5320014 0.46659657
vt 0.5320013 0.46659657
vt 0.5320014 0.46659657
vt 0.5320014 0.4665966
vt 0.5320014 0.4665966
vt 0.5320013 0.46659657
vt 0.5320013 0.46659654
vt 0.5320014 0.46659654
vt 0.5320013 0.46659657
vt 0.5320013 0.46659657
vt 0.5320013 0.46659657
vt 0.5320013 0.4665966
vt 0.6515904 0.46786523
vt 0.6515904 0.46786523
vt 0.6515904 0.46786523
vt 0.6515904 0.46786523
vt 0.6515904 0.46786523
vt 0.6515904 0.46786523
vt 0.6515904 0.46786523
vt 0.6515904 0.46786523
vt 0.5320013 0.46659654
vt 0.5320013 0.4665966
vt 0.5320014 0.46659657
vt 0.5320013 0.46659654
vt 0.5320014 0.46659657
vt 0.5320013 0.4665966
vt 0.5320013 0.46659657
vt 0.5320014 0.4665966
vt 0.6515904 0.46786523
vt 0.6515904 0.46786523
vt 0.6515904 0.46786523
vt 0.6515904 0.46786523
vt 0.6515904 0.46786523
vt 0.6515904 0.46786523
vt 0.6515904 0.46786523
vt 0.6515904 0.46786523
vt 0.6515904 0.46786523
vt 0.6515904 0.46786523
vt 0.6515904 0.46786523
vt 0.6515904 0.46786523
vt 0.6515904 0.46786523
vt 0.6515904 0.46786523
vt 0.6515904 0.46786523
vt 0.6515904 0.46786523
vt 0.6515904 0.46786523
vt 0.6515904 0.46786523
vt 0.6515904 0.46786523
vt 0.6515904 0.46786523
vt 0.6515904 0.46786523
vt 0.6515904 0.46786523
vt 0.6515904 0.46786523
vt 0.6515904 0.46786523
vt 0.6515904 0.46786523
vt 0.6515904 0.46786523
vt 0.6515904 0.46786523
vt 0.6515904 0.46786523
vt 0.6515904 0.46786523
vt 0.6515904 0.46786523
vt 0.6515904 0.46786523
vt 0.6515904 0.46786523
vt 0.6515904 0.46786523
vt 0.6515904 0.46786523
vt 0.6515904 0.46786523
vt 0.6515904 0.46786523
vt 0.6515904 0.46786523
vt 0.6515904 0.46786523
vt 0.6515904 0.46786523
vt 0.6515904 0.46786523
vt 0.5320014 0.46659657
vt 0.5320013 0.46659657
vt 0.5320014 0.46659657
vt 0.5320014 0.4665966
vt 0.5320014 0.4665966
vt 0.5320013 0.46659657
vt 0.5320013 0.46659654
vt 0.5320014 0.46659654
vt 0.5320013 0.46659657
vt 0.5320013 0.46659657
vt 0.5320013 0.46659657
vt 0.5320013 0.4665966
vt 0.6515904 0.46786523
vt 0.6515904 0.46786523
vt 0.6515904 0.46786523
vt 0.6515904 0.46786523
vt 0.6515904 0.46786523
vt 0.6515904 0.46786523
vt 0.6515904 0.46786523
vt 0.6515904 0.46786523
vt 0.5320013 0.46659654
vt 0.5320013 0.4665966
vt 0.5320014 0.46659657
vt 0.5320013 0.46659654
vt 0.5320014 0.46659657
vt 0.5320013 0.4665966
vt 0.5320013 0.46659657
vt 0.5320014 0.4665966
vt 0.6515904 0.46786523
vt 0.6515904 0.46786523
vt 0.6515904 0.46786523
vt 0.6515904 0.46786523
vt 0.6515904 0.46786523
vt 0.6515904 0.46786523
vt 0.6515904 0.46786523
vt 0.6515904 0.46786523
vt 0.6515904 0.46786523
vt 0.6515904 0.46786523
vt 0.6515904 0.46786523
vt 0.6515904 0.46786523
vt 0.6515904 0.46786523
vt 0.6515904 0.46786523
vt 0.6515904 0.46786523
vt 0.6515904 0.46786523
vt 0.6515904 0.46786523
vt 0.6515904 0.46786523
vt 0.6515904 0.46786523
vt 0.6515904 0.46786523
vt 0.6515904 0.46786523
vt 0.6515904 0.46786523
vt 0.6515904 0.46786523
vt 0.6515904 0.46786523
vt 0.6515904 0.46786523
vt 0.6515904 0.46786523
vt 0.6515904 0.46786523
vt 0.6515904 0.46786523
vt 0.6515904 0.46786523
vt 0.6515904 0.46786523
vt 0.6515904 0.46786523
vt 0.6515904 0.46786523
vt 0.6515904 0.46786523
vt 0.6515904 0.46786523
vt 0.6515904 0.46786523
vt 0.6515904 0.46786523
vt 0.6515904 0.46786523
vt 0.6515904 0.46786523
vt 0.6515904 0.46786523
vt 0.6515904 0.46786523
vt 0.5320014 0.46659657
vt 0.5320013 0.46659657
vt 0.5320014 0.46659657
vt 0.5320014 0.4665966
vt 0.5320014 0.4665966
vt 0.5320013 0.46659657
vt 0.5320013 0.46659654
vt 0.5320014 0.46659654
vt 0.5320013 0.46659657
vt 0.5320013 0.46659657
vt 0.5320013 0.46659657
vt 0.5320013 0.4665966
vt 0.6515904 0.46786523
vt 0.6515904 0.46786523
vt 0.6515904 0.46786523
vt 0.6515904 0.46786523
vt 0.6515904 0.46786523
vt 0.6515904 0.46786523
vt 0.6515904 0.46786523
vt 0.6515904 0.46786523
vt 0.5320013 0.46659654
vt 0.5320013 0.4665966
vt 0.5320014 0.46659657
vt 0.5320013 0.46659654
vt 0.5320014 0.46659657
vt 0.5320013 0.4665966
vt 0.5320013 0.46659657
vt 0.5320014 0.4665966
vt 0.6515904 0.46786523
vt 0.6515904 0.46786523
vt 0.6515904 0.46786523
vt 0.6515904 0.46786523
vt 0.6515904 0.46786523
vt 0.6515904 0.46786523
vt 0.6515904 0.46786523
vt 0.6515904 0.46786523
vt 0.6515904 0.46786523
vt 0.6515904 0.46786523
vt 0.6515904 0.46786523
vt 0.6515904 0.46786523
vt 0.6515904 0.46786523
vt 0.6515904 0.46786523
vt 0.6515904 0.46786523
vt 0.6515904 0.46786523
vt 0.6515904 0.46786523
vt 0.6515904 0.46786523
vt 0.6515904 0.46786523
vt 0.6515904 0.46786523
vt 0.6515904 0.46786523
vt 0.6515904 0.46786523
vt 0.6515904 0.46786523
vt 0.6515904 0.46786523
vt 0.6515904 0.46786523
vt 0.6515904 0.46786523
vt 0.6515904 0.46786523
vt 0.6515904 0.46786523
vt 0.6515904 0.46786523
vt 0.6515904 0.46786523
vt 0.6515904 0.46786523
vt 0.6515904 0.46786523
vt 0.6515904 0.46786523
vt 0.6515904 0.46786523
vt 0.6515904 0.46786523
vt 0.6515904 0.46786523
vt 0.6515904 0.46786523
vt 0.6515904 0.46786523
vt 0.6515904 0.46786523
vt 0.6515904 0.46786523
vt 0.6515904 0.46786523
vt 0.6515904 0.46786523
vt 0.6515904 0.46786523
vt 0.6515904 0.46786523
vt 0.9704055 0.9690943
vt 0.9704055 0.9690943
vt 0.9704055 0.9690943
vt 0.9704055 0.9690943
vt 0.9704055 0.9690943
vt 0.9704055 0.9690943
vt 0.84870553 0.9707282
vt 0.84870553 0.9707282
vt 0.84870553 0.9707282
vt 0.84870553 0.9707282
vt 0.84870553 0.9707282
vt 0.84870553 0.9707282
vt 0.84870553 0.9707282
vt 0.84870553 0.9707282
vt 0.84870553 0.9707282
vt 0.84870553 0.9707282
vt 0.84870553 0.9707282
vt 0.84870553 0.9707282
vt 0.84870553 0.9707282
vt 0.84870553 0.9707282
vt 0.84870553 0.9707282
vt 0.84870553 0.9707282
vt 0.84870553 0.9707282
vt 0.84870553 0.9707282
vt 0.84870553 0.9707282
vt 0.84870553 0.9707282
vt 0.84870553 0.9707282
vt 0.84870553 0.9707282
vt 0.84870553 0.9707282
vt 0.84870553 0.9707282
vt 0.84870553 0.9707282
vt 0.84870553 0.9707282
vt 0.84870553 0.9707282
vt 0.84870553 0.9707282
vt 0.84870553 0.9707282
vt 0.84870553 0.9707282
vt 0.84870553 0.9707282
vt 0.84870553 0.9707282
vt 0.84870553 0.9707282
vt 0.84870553 0.9707282
vt 0.84870553 0.9707282
vt 0.84870553 0.9707282
vt 0.84870553 0.9707282
vt 0.84870553 0.9707282
vt 0.84870553 0.9707282
vt 0.84870553 0.9707282
vt 0.84870553 0.9707282
vt 0.84870553 0.9707282
vt 0.84870553 0.9707282
vt 0.84870553 0.9707282
vt 0.84870553 0.9707282
vt 0.84870553 0.9707282
vt 0.84870553 0.9707282
vt 0.84870553 0.9707282
vt 0.84870553 0.9707282
vt 0.84870553 0.9707282
vt 0.84870553 0.9707282
vt 0.84870553 0.9707282
vt 0.84870553 0.9707282
vt 0.84870553 0.9707282
vt 0.84870553 0.9707282
vt 0.84870553 0.9707282
vt 0.84870553 0.9707282
vt 0.84870553 0.9707282
vt 0.84870553 0.9707282
vt 0.84870553 0.9707282
vt 0.84870553 0.9707282
vt 0.84870553 0.9707282
vt 0.84870553 0.9707282
vt 0.84870553 0.9707282
vt 0.84870553 0.9707282
vt 0.84870553 0.9707282
vt 0.84870553 0.9707282
vt 0.84870553 0.9707282
vt 0.84870553 0.9707282
vt 0.84870553 0.9707282
vt 0.84870553 0.9707282
vt 0.84870553 0.9707282
vt 0.84870553 0.9707282
vt 0.84870553 0.9707282
vt 0.84870553 0.9707282
vt 0.84870553 0.9707282
vt 0.84870553 0.9707282
vt 0.84870553 0.9707282
vt 0.84870553 0.9707282
vt 0.84870553 0.9707282
vt 0.84870553 0.9707282
vt 0.84870553 0.9707282
vt 0.84870553 0.9707282
vt 0.84870553 0.9707282
vt 0.84870553 0.9707282
vt 0.84870553 0.9707282
vt 0.84870553 0.9707282
vt 0.84870553 0.9707282
vt 0.84870553 0.9707282
vt 0.84870553 0.9707282
vt 0.84870553 0.9707282
vt 0.84870553 0.9707282
vt 0.84870553 0.9707282
vt 0.84870553 0.9707282
vt 0.84870553 0.9707282
vt 0.84870553 0.9707282
vt 0.96603715 0.9690943
vt 0.96603715 0.9690943
vt 0.96603715 0.9690943
vt 0.96603715 0.9690943
vt 0.96603715 0.9690943
vt 0.96603715 0.9690943
vt 0.96603715 0.9690943
vt 0.96603715 0.9690943
vt 0.96603715 0.9690943
vt 0.96603715 0.9690943
vt 0.96603715 0.9690943
vt 0.96603715 0.9690943
vt 0.96603715 0.9690943
vt 0.96603715 0.9690943
vt 0.96603715 0.9690943
vt 0.96603715 0.9690943
vt 0.96603715 0.9690943
vt 0.96603715 0.9690943
vt 0.96603715 0.9690943
vt 0.96603715 0.9690943
vt 0.96603715 0.9690943
vt 0.96603715 0.9690943
vt 0.96603715 0.9690943
vt 0.96603715 0.9690943
vn 0.45546123 0.6810296 0.5733705
vn -0.16354391 0.30027682 0.9397272
vn -0.6281678 0.23370667 0.74214983
vn 0.07480218 0.69833195 0.7118547
vn -0.074304104 0.5910668 0.8031929
vn -0.32867876 0.71623784 0.6156082
vn -0.885468 0.44425157 0.13633406
vn -0.6475214 0.68664575 0.33050534
vn -0.96373534 0.07445069 -0.2562638
vn -0.75649494 0.6487567 -0.08264477
vn -0.87295187 0.1387111 -0.467669
vn -0.64251167 0.59105766 -0.4876777
vn 0.3173561 0.17631297 -0.9317719
vn -0.3264759 0.56391406 -0.7585608
vn -0.37571916 0.3238355 -0.86831194
vn 0.07017297 0.53939754 -0.8391222
vn 0.33206487 -0.03565066 -0.9425826
vn 0.43950558 0.56303614 -0.6998752
vn 0.71199507 -0.04227479 -0.70091075
vn 0.7025822 0.5662234 -0.43100953
vn 0.2551224 0.31136033 0.9154056
vn 0.78772616 0.61177206 -0.07226673
vn 0.8078856 0.24288686 -0.53696084
vn 0.16942151 0.098233335 0.9806357
vn 0.71733624 0.6311421 0.2951077
vn -0.78392774 0.52797526 0.32664862
vn 0.92549807 0.37840325 -0.01625854
vn 0.92549807 0.37840325 -0.01625854
vn 0.92549795 0.37840346 -0.016257918
vn 0.92549795 0.37840346 -0.016257918
vn 0.92549795 0.37840346 -0.016257918
vn 0.92549795 0.37840334 -0.016258784
vn 0.92549783 0.37840375 -0.016258301
vn 0.9254988 0.37840158 -0.016258603
vn 0.92549783 0.37840375 -0.016258301
vn 0.92549783 0.37840375 -0.016258301
vn 0.92549783 0.37840363 -0.016258588
vn 0.92549783 0.37840363 -0.016258588
vn 0.9254978 0.37840408 -0.016257497
vn 0.9254978 0.37840408 -0.016257497
vn 0.9254978 0.37840408 -0.016257497
vn 0.92549783 0.3784037 -0.016259326
vn 0.92549783 0.3784037 -0.016259326
vn 0.9254988 0.37840158 -0.016258603
vn 0.92549795 0.37840334 -0.016258784
vn 0.9254988 0.37840158 -0.016258603
vn 0.92549795 0.37840343 -0.016258346
vn 0.92549795 0.37840343 -0.016258346
vn 0.92549795 0.37840343 -0.016258346
vn 0.92549795 0.37840343 -0.016258346
vn 0.92549795 0.37840343 -0.016258944
vn 0.92549795 0.37840343 -0.016258944
vn 0.92549795 0.37840343 -0.016258944
vn 0.92549795 0.37840343 -0.016258944
vn 0.92549807 0.37840322 -0.016258594
vn 0.92549807 0.37840322 -0.016258594
vn 0.92549807 0.37840322 -0.016258594
vn 0.92549807 0.37840322 -0.016258594
vn 0.92549795 0.37840357 -0.01625854
vn 0.92549795 0.37840357 -0.01625854
vn 0.92549807 0.37840322 -0.01625845
vn 0.92549795 0.37840357 -0.01625854
vn 0.9254985 0.37840232 -0.016258787
vn 0.92549795 0.37840357 -0.01625854
vn 0.92549807 0.37840334 -0.016258596
vn 0.9254982 0.37840313 -0.01625856
vn 0.92549807 0.37840325 -0.016258659
vn 0.92549807 0.37840325 -0.016258659
vn 0.92549807 0.37840325 -0.016258659
vn 0.92549807 0.37840325 -0.016258659
vn 0.92549795 0.37840357 -0.016258523
vn 0.92549795 0.37840357 -0.016258523
vn 0.92549795 0.37840357 -0.016258523
vn 0.92549795 0.37840357 -0.016258523
vn 0.3650155 -0.87965256 0.30491814
vn 0.3650155 -0.87965256 0.30491814
vn 0.3650155 -0.87965256 0.30491814
vn 0.3650155 -0.87965256 0.30491814
vn -0.10108035 0.2881358 0.9522397
vn -0.10108035 0.2881358 0.9522397
vn -0.10108035 0.2881358 0.9522397
vn -0.10108035 0.2881358 0.9522397
vn 0.10107981 -0.2881359 -0.9522398
vn 0.10107981 -0.2881359 -0.9522398
vn 0.10107981 -0.2881359 -0.9522398
vn 0.10107981 -0.2881359 -0.9522398
vn -0.36501408 0.87965316 -0.3049182
vn -0.36501408 0.87965316 -0.3049182
vn -0.36501408 0.87965316 -0.3049182
vn -0.36501408 0.87965316 -0.3049182
vn -0.3650149 0.87965274 -0.30491823
vn -0.3650149 0.87965274 -0.30491823
vn -0.3650149 0.87965274 -0.30491823
vn -0.3650149 0.87965274 -0.30491823
vn 0.101080626 -0.2881358 -0.9522397
vn 0.101080626 -0.2881358 -0.9522397
vn 0.101080626 -0.2881358 -0.9522397
vn 0.101080626 -0.2881358 -0.9522397
vn -0.92549795 -0.37840343 0.016258487
vn -0.92549795 -0.37840343 0.016258487
vn -0.92549795 -0.37840343 0.016258487
vn -0.92549795 -0.37840343 0.016258487
vn -0.10108064 0.28813568 0.9522398
vn -0.10108064 0.28813568 0.9522398
vn -0.10108064 0.28813568 0.9522398
vn -0.10108064 0.28813568 0.9522398
vn 0.92549795 0.37840343 -0.016258458
vn 0.92549795 0.37840343 -0.016258458
vn 0.92549795 0.37840343 -0.016258458
vn 0.92549795 0.37840343 -0.016258458
vn 0.36501536 -0.87965256 0.30491835
vn 0.36501536 -0.87965256 0.30491835
vn 0.36501536 -0.87965256 0.30491835
vn 0.36501536 -0.87965256 0.30491835
vn -0.36501378 0.8796532 -0.3049182
vn -0.36501378 0.8796532 -0.3049182
vn -0.36501378 0.8796532 -0.3049182
vn -0.36501378 0.8796532 -0.3049182
vn 0.10108111 -0.2881356 -0.9522397
vn 0.10108111 -0.2881356 -0.9522397
vn 0.10108111 -0.2881356 -0.9522397
vn 0.10108111 -0.2881356 -0.9522397
vn -0.92549795 -0.3784034 0.01625857
vn -0.92549795 -0.3784034 0.01625857
vn -0.92549795 -0.3784034 0.01625857
vn -0.92549795 -0.3784034 0.01625857
vn -0.10108021 0.2881358 0.9522398
vn -0.10108021 0.2881358 0.9522398
vn -0.10108021 0.2881358 0.9522398
vn -0.10108021 0.2881358 0.9522398
vn 0.92549795 0.37840354 -0.016258437
vn 0.92549795 0.37840354 -0.016258437
vn 0.92549795 0.37840354 -0.016258437
vn 0.92549795 0.37840354 -0.016258437
vn 0.36501572 -0.8796524 0.30491823
vn 0.36501572 -0.8796524 0.30491823
vn 0.36501572 -0.8796524 0.30491823
vn 0.36501572 -0.8796524 0.30491823
vn -0.92549795 -0.37840334 0.016258582
vn -0.92549795 -0.37840334 0.016258582
vn -0.92549795 -0.37840334 0.016258582
vn -0.92549795 -0.37840334 0.016258582
vn -0.15127061 0.6396206 -0.7536595
vn -0.15127061 0.6396206 -0.7536595
vn -0.1512701 0.63962024 -0.7536599
vn -0.1512701 0.63962024 -0.7536599
vn -0.1512701 0.63962024 -0.7536599
vn -0.15127093 0.63962054 -0.7536596
vn -0.1512688 0.6396227 -0.7536582
vn -0.1512701 0.6396215 -0.75365883
vn -0.1512688 0.6396227 -0.7536582
vn -0.1512688 0.6396227 -0.7536582
vn -0.15127091 0.6396195 -0.7536604
vn -0.15127091 0.6396195 -0.7536604
vn -0.15127209 0.63962024 -0.7536595
vn -0.15127209 0.63962024 -0.7536595
vn -0.15127209 0.63962024 -0.7536595
vn -0.15127021 0.6396206 -0.7536596
vn -0.15127021 0.6396206 -0.7536596
vn -0.1512701 0.6396215 -0.75365883
vn -0.15127093 0.63962054 -0.7536596
vn -0.1512701 0.6396215 -0.75365883
vn -0.15127084 0.6396207 -0.75365937
vn -0.15127084 0.6396207 -0.75365937
vn -0.15127084 0.6396207 -0.75365937
vn -0.15127084 0.6396207 -0.75365937
vn -0.15127037 0.6396203 -0.75365984
vn -0.15127037 0.6396203 -0.75365984
vn -0.15127037 0.6396203 -0.75365984
vn -0.15127037 0.6396203 -0.75365984
vn -0.1512712 0.6396206 -0.75365937
vn -0.1512712 0.6396206 -0.75365937
vn -0.1512712 0.6396206 -0.75365937
vn -0.1512712 0.6396206 -0.75365937
vn -0.15127094 0.6396204 -0.7536596
vn -0.15127094 0.6396204 -0.7536596
vn -0.15127084 0.6396209 -0.75365925
vn -0.15127094 0.6396204 -0.7536596
vn -0.15127204 0.6396203 -0.7536594
vn -0.15127094 0.6396204 -0.7536596
vn -0.15127076 0.63962114 -0.75365907
vn -0.15127106 0.6396202 -0.7536598
vn -0.1512714 0.6396204 -0.7536596
vn -0.1512714 0.6396204 -0.7536596
vn -0.1512714 0.6396204 -0.7536596
vn -0.1512714 0.6396204 -0.7536596
vn -0.15127076 0.6396204 -0.75365967
vn -0.15127076 0.6396204 -0.75365967
vn -0.15127076 0.6396204 -0.75365967
vn -0.15127076 0.6396204 -0.75365967
vn 0.483565 0.71285903 0.5079338
vn 0.483565 0.71285903 0.5079338
vn 0.483565 0.71285903 0.5079338
vn 0.483565 0.71285903 0.5079338
vn -0.86213773 0.28760824 0.41713312
vn -0.86213773 0.28760824 0.41713312
vn -0.86213773 0.28760824 0.41713312
vn -0.86213773 0.28760824 0.41713312
vn 0.86213773 -0.28760797 -0.4171333
vn 0.86213773 -0.28760797 -0.4171333
vn 0.86213773 -0.28760797 -0.4171333
vn 0.86213773 -0.28760797 -0.4171333
vn -0.48356533 -0.71285874 -0.5079341
vn -0.48356533 -0.71285874 -0.5079341
vn -0.48356533 -0.71285874 -0.5079341
vn -0.48356533 -0.71285874 -0.5079341
vn 0.15127084 -0.63962054 0.7536596
vn 0.15127084 -0.63962054 0.7536596
vn 0.15127084 -0.63962054 0.7536596
vn 0.15127084 -0.63962054 0.7536596
vn -0.4755466 0.86713815 -0.14807668
vn -0.4755466 0.86713815 -0.14807668
vn -0.47554648 0.86713874 -0.14807412
vn -0.47554648 0.86713874 -0.14807412
vn -0.47554648 0.86713874 -0.14807412
vn -0.47554672 0.86713815 -0.14807668
vn -0.47554857 0.86713684 -0.14807859
vn -0.47554368 0.8671397 -0.14807738
vn -0.47554857 0.86713684 -0.14807859
vn -0.47554857 0.86713684 -0.14807859
vn -0.47554687 0.86713797 -0.14807716
vn -0.47554687 0.86713797 -0.14807716
vn -0.47554725 0.8671379 -0.14807677
vn -0.47554725 0.8671379 -0.14807677
vn -0.47554725 0.8671379 -0.14807677
vn -0.4755469 0.8671381 -0.14807642
vn -0.4755469 0.8671381 -0.14807642
vn -0.47554368 0.8671397 -0.14807738
vn -0.47554672 0.86713815 -0.14807668
vn -0.47554368 0.8671397 -0.14807738
vn -0.47554678 0.8671381 -0.14807656
vn -0.47554678 0.8671381 -0.14807656
vn -0.47554678 0.8671381 -0.14807656
vn -0.47554678 0.8671381 -0.14807656
vn -0.4755465 0.86713827 -0.14807646
vn -0.4755465 0.86713827 -0.14807646
vn -0.4755465 0.86713827 -0.14807646
vn -0.4755465 0.86713827 -0.14807646
vn -0.47554615 0.86713845 -0.14807656
vn -0.47554615 0.86713845 -0.14807656
vn -0.47554615 0.86713845 -0.14807656
vn -0.47554615 0.86713845 -0.14807656
vn -0.47554636 0.8671383 -0.14807683
vn -0.47554636 0.8671383 -0.14807683
vn -0.47554702 0.86713797 -0.14807647
vn -0.47554636 0.8671383 -0.14807683
vn -0.47554678 0.86713815 -0.14807652
vn -0.47554636 0.8671383 -0.14807683
vn -0.4755477 0.8671376 -0.14807647
vn -0.47554693 0.8671381 -0.14807633
vn -0.4755468 0.86713815 -0.14807636
vn -0.4755468 0.86713815 -0.14807636
vn -0.4755468 0.86713815 -0.14807636
vn -0.4755468 0.86713815 -0.14807636
vn -0.4755465 0.86713827 -0.14807665
vn -0.4755465 0.86713827 -0.14807665
vn -0.4755465 0.86713827 -0.14807665
vn -0.4755465 0.86713827 -0.14807665
vn 0.8689738 0.4368544 -0.232471
vn 0.8689738 0.4368544 -0.232471
vn 0.8689738 0.4368544 -0.232471
vn 0.8689738 0.4368544 -0.232471
vn 0.13689682 0.2392258 0.961265
vn 0.13689682 0.2392258 0.961265
vn 0.13689682 0.2392258 0.961265
vn 0.13689682 0.2392258 0.961265
vn -0.13689682 -0.2392258 -0.961265
vn -0.13689682 -0.2392258 -0.961265
vn -0.13689682 -0.2392258 -0.961265
vn -0.13689682 -0.2392258 -0.961265
vn -0.8689735 -0.4368548 0.23247139
vn -0.8689735 -0.4368548 0.23247139
vn -0.8689735 -0.4368548 0.23247139
vn -0.8689735 -0.4368548 0.23247139
vn 0.47554663 -0.86713827 0.14807665
vn 0.47554663 -0.86713827 0.14807665
vn 0.47554663 -0.86713827 0.14807665
vn 0.47554663 -0.86713827 0.14807665
vn -0.34859237 0.8892855 0.29606515
vn -0.34859237 0.8892855 0.29606515
vn -0.34859532 0.88928473 0.2960639
vn -0.34859532 0.88928473 0.2960639
vn -0.34859532 0.88928473 0.2960639
vn -0.34859145 0.889286 0.29606482
vn -0.34859246 0.8892857 0.29606473
vn -0.34859076 0.88928616 0.29606524
vn -0.34859246 0.8892857 0.29606473
vn -0.34859246 0.8892857 0.29606473
vn -0.34859133 0.88928616 0.29606462
vn -0.34859133 0.88928616 0.29606462
vn -0.34859237 0.8892858 0.29606438
vn -0.34859237 0.8892858 0.29606438
vn -0.34859237 0.8892858 0.29606438
vn -0.34859145 0.88928616 0.29606417
vn -0.34859145 0.88928616 0.29606417
vn -0.34859076 0.88928616 0.29606524
vn -0.34859145 0.889286 0.29606482
vn -0.34859076 0.88928616 0.29606524
vn -0.34859145 0.8892861 0.29606467
vn -0.34859145 0.8892861 0.29606467
vn -0.34859145 0.8892861 0.29606467
vn -0.34859145 0.8892861 0.29606467
vn -0.34859172 0.8892858 0.2960649
vn -0.34859172 0.8892858 0.2960649
vn -0.34859172 0.8892858 0.2960649
vn -0.34859172 0.8892858 0.2960649
vn -0.34859177 0.889286 0.29606462
vn -0.34859177 0.889286 0.29606462
vn -0.34859177 0.889286 0.29606462
vn -0.34859177 0.889286 0.29606462
vn -0.34859163 0.889286 0.29606467
vn -0.34859163 0.889286 0.29606467
vn -0.34859332 0.88928545 0.29606447
vn -0.34859163 0.889286 0.29606467
vn -0.34859177 0.8892858 0.29606515
vn -0.34859163 0.889286 0.29606467
vn -0.3485935 0.8892853 0.29606462
vn -0.34859204 0.88928586 0.29606453
vn -0.34859183 0.8892858 0.2960649
vn -0.34859183 0.8892858 0.2960649
vn -0.34859183 0.8892858 0.2960649
vn -0.34859183 0.8892858 0.2960649
vn -0.3485919 0.88928586 0.29606465
vn -0.3485919 0.88928586 0.29606465
vn -0.3485919 0.88928586 0.29606465
vn -0.3485919 0.88928586 0.29606465
vn 0.6201233 0.45568502 -0.6385908
vn 0.6201233 0.45568502 -0.6385908
vn 0.6201233 0.45568502 -0.6385908
vn 0.6201233 0.45568502 -0.6385908
vn 0.702802 0.03901052 0.71031517
vn 0.702802 0.03901052 0.71031517
vn 0.702802 0.03901052 0.71031517
vn 0.702802 0.03901052 0.71031517
vn -0.7028014 -0.039011385 -0.71031564
vn -0.7028014 -0.039011385 -0.71031564
vn -0.7028014 -0.039011385 -0.71031564
vn -0.7028014 -0.039011385 -0.71031564
vn -0.6201237 -0.4556849 0.6385905
vn -0.6201237 -0.4556849 0.6385905
vn -0.6201237 -0.4556849 0.6385905
vn -0.6201237 -0.4556849 0.6385905
vn 0.34859177 -0.88928586 -0.29606462
vn 0.34859177 -0.88928586 -0.29606462
vn 0.34859177 -0.88928586 -0.29606462
vn 0.34859177 -0.88928586 -0.29606462
vn -0.6916965 0.67819446 -0.24821
vn -0.6916965 0.67819446 -0.24821
vn -0.69169724 0.6781945 -0.24820796
vn -0.69169724 0.6781945 -0.24820796
vn -0.69169724 0.6781945 -0.24820796
vn -0.6916965 0.67819476 -0.24820898
vn -0.69169736 0.6781939 -0.2482092
vn -0.691699 0.678192 -0.2482098
vn -0.69169736 0.6781939 -0.2482092
vn -0.69169736 0.6781939 -0.2482092
vn -0.69169694 0.67819434 -0.24820933
vn -0.69169694 0.67819434 -0.24820933
vn -0.69169694 0.67819417 -0.24820977
vn -0.69169694 0.67819417 -0.24820977
vn -0.69169694 0.67819417 -0.24820977
vn -0.6916968 0.6781944 -0.24820912
vn -0.6916968 0.6781944 -0.24820912
vn -0.691699 0.678192 -0.2482098
vn -0.6916965 0.67819476 -0.24820898
vn -0.691699 0.678192 -0.2482098
vn -0.6916965 0.6781945 -0.24820957
vn -0.6916965 0.6781945 -0.24820957
vn -0.6916965 0.6781945 -0.24820957
vn -0.6916965 0.6781945 -0.24820957
vn -0.69169676 0.67819446 -0.24820916
vn -0.69169676 0.67819446 -0.24820916
vn -0.69169676 0.67819446 -0.24820916
vn -0.69169676 0.67819446 -0.24820916
vn -0.69169647 0.67819464 -0.24820946
vn -0.69169647 0.67819464 -0.24820946
vn -0.69169647 0.67819464 -0.24820946
vn -0.69169647 0.67819464 -0.24820946
vn -0.69169676 0.6781944 -0.24820933
vn -0.69169676 0.6781944 -0.24820933
vn -0.69169796 0.6781931 -0.24820992
vn -0.69169676 0.6781944 -0.24820933
vn -0.69169724 0.678194 -0.24820916
vn -0.69169676 0.6781944 -0.24820933
vn -0.6916964 0.6781946 -0.24820963
vn -0.69169617 0.678195 -0.24820964
vn -0.6916969 0.6781944 -0.24820921
vn -0.6916969 0.6781944 -0.24820921
vn -0.6916969 0.6781944 -0.24820921
vn -0.6916969 0.6781944 -0.24820921
vn -0.69169676 0.6781944 -0.24820945
vn -0.69169676 0.6781944 -0.24820945
vn -0.69169676 0.6781944 -0.24820945
vn -0.69169676 0.6781944 -0.24820945
vn -0.68325347 -0.725866 -0.0792665
vn -0.68325347 -0.725866 -0.0792665
vn -0.68325347 -0.725866 -0.0792665
vn -0.68325347 -0.725866 -0.0792665
vn 0.23392534 -0.11476094 -0.9654578
vn 0.23392534 -0.11476094 -0.9654578
vn 0.23392534 -0.11476094 -0.9654578
vn 0.23392534 -0.11476094 -0.9654578
vn -0.23392528 0.11476121 0.9654578
vn -0.23392528 0.11476121 0.9654578
vn -0.23392528 0.11476121 0.9654578
vn -0.23392528 0.11476121 0.9654578
vn 0.6832529 0.7258667 0.07926643
vn 0.6832529 0.7258667 0.07926643
vn 0.6832529 0.7258667 0.07926643
vn 0.6832529 0.7258667 0.07926643
vn 0.6832535 0.72586596 0.0792665
vn 0.6832535 0.72586596 0.0792665
vn 0.6832535 0.72586596 0.0792665
vn 0.6832535 0.72586596 0.0792665
vn -0.23392493 0.114760935 0.9654579
vn -0.23392493 0.114760935 0.9654579
vn -0.23392493 0.114760935 0.9654579
vn -0.23392493 0.114760935 0.9654579
vn 0.69169676 -0.67819434 0.24820943
vn 0.69169676 -0.67819434 0.24820943
vn 0.69169676 -0.67819434 0.24820943
vn 0.69169676 -0.67819434 0.24820943
vn 0.23392469 -0.11476115 -0.9654579
vn 0.23392469 -0.11476115 -0.9654579
vn 0.23392469 -0.11476115 -0.9654579
vn 0.23392469 -0.11476115 -0.9654579
vn -0.69169676 0.67819446 -0.2482094
vn -0.69169676 0.67819446 -0.2482094
vn -0.69169676 0.67819446 -0.2482094
vn -0.69169676 0.67819446 -0.2482094
vn -0.68325305 -0.7258665 -0.07926655
vn -0.68325305 -0.7258665 -0.07926655
vn -0.68325305 -0.7258665 -0.07926655
vn -0.68325305 -0.7258665 -0.07926655
vn 0.6916968 -0.67819434 0.2482093
vn 0.6916968 -0.67819434 0.2482093
vn 0.6916968 -0.67819434 0.2482093
vn 0.6916968 -0.67819434 0.2482093
vn -0.5726517 -0.21558951 0.79094326
vn 0.10539353 0.3509603 -0.9304402
vn 0.13670275 -0.73883253 0.65987784
vn 0.92606694 0.12954064 -0.35442808
vn -0.39617023 -0.9173274 -0.039491583
vn -0.78135264 -0.6132488 0.115818985
vn 0.13670275 -0.73883253 0.65987784
vn 0.10539353 0.3509603 -0.9304402
vn 0.9285713 0.363753 0.07375121
vn -0.86530924 -0.29300886 0.40667635
vn 0.64868677 0.59570414 0.47364768
vn 0.03245899 -0.9495799 -0.31184044
vn 0.87606996 0.2261255 -0.42587417
vn -0.14814721 -0.8826956 -0.44598287
vn 0.3643743 0.6284695 0.68720984
vn -0.49692285 -0.38436788 -0.77802896
vn 0.19549572 0.65327 0.7314504
vn -0.63645893 -0.77093333 0.024121955
vn 0.35693103 0.62459606 0.69460785
vn 0.07827172 -0.9571224 0.27890936
vn 0.030103598 0.6463538 0.7624439
vn -0.46878397 -0.8811947 -0.061135083
vn -0.17698921 0.54576087 -0.81903595
vn 0.93201494 0.15356107 -0.3282789
vn -0.5311228 0.80530864 -0.26341313
vn 0.8889874 -0.397956 0.2265665
vn -0.78135264 -0.6132488 0.115818985
vn -0.39617023 -0.9173274 -0.039491583
vn 0.6313202 -0.22709 -0.74152875
vn 0.020554394 -0.9396399 -0.34154716
vn 0.26201287 -0.9559735 -0.13215184
vn 0.7765391 -0.06534511 0.6266713
vn 0.51676536 -0.8080844 0.28275993
vn -0.10819303 0.2493251 0.9623571
vn 0.3239783 -0.52038044 0.79008996
vn -0.66712 -0.7101526 -0.22502035
vn -0.020082368 -0.6194015 0.7848174
vn -0.5726517 -0.21558951 0.79094326
vn -0.2920732 0.04397169 -0.95538455
vn -0.87754667 0.43793336 -0.1952595
vn -0.6944721 -0.5057274 0.51180893
vn -0.8332449 0.43553287 -0.34060854
vn -0.12445421 0.6857079 -0.71715814
vn -0.515627 0.8443426 0.14565119
vn 0.927061 0.03468427 -0.3733025
vn 0.6148427 -0.0015218556 -0.78864825
vn -0.39267734 0.589852 0.70560557
vn 0.8018414 0.2952476 0.519499
vn 0.9987733 -0.006928592 -0.049028583
vn -0.6941508 0.68690723 -0.2152045
vn -0.03306141 0.5890795 0.80739844
vn -0.73147166 0.6559255 0.18630843
vn 0.7573706 0.24967864 0.60336584
vn -0.8357781 0.26426843 0.48128697
vn -0.75649494 0.6487567 -0.08264477
vn -0.6475214 0.68664575 0.33050534
vn -0.9527753 0.30346766 -0.011250648
vn -0.64251167 0.59105766 -0.4876777
vn -0.47351807 0.24945484 0.8447206
vn -0.32867876 0.71623784 0.6156082
vn -0.7984451 0.3428393 -0.49492088
vn -0.3264759 0.56391406 -0.7585608
vn 0.023558533 0.23895483 0.97074485
vn 0.07480218 0.69833195 0.7118547
vn -0.43423513 0.39225668 -0.8109096
vn 0.07017297 0.53939754 -0.8391222
vn 0.5145779 0.2618139 0.8164944
vn 0.45546123 0.6810296 0.5733705
vn 0.03293255 0.413997 -0.9096823
vn 0.43950558 0.56303614 -0.6998752
vn 0.8494423 0.2899984 0.44084993
vn 0.71733624 0.6311421 0.2951077
vn 0.46134317 0.41946033 -0.78180265
vn 0.7025822 0.5662234 -0.43100953
vn 0.9358868 0.35005695 -0.039698854
vn 0.78772616 0.61177206 -0.07226673
vn 0.7910252 0.38897625 -0.47220412
vn 0.4281213 -0.5173631 0.74097747
vn 0.77364856 -0.4576288 0.43822798
vn 0.90655625 -0.4220274 0.0069768643
vn 0.80413884 -0.37732303 -0.45933437
vn 0.4777566 -0.38439435 -0.78993016
vn 0.029013604 -0.40864456 -0.9122324
vn 0.002153076 -0.5489724 0.8358377
vn -0.39905125 -0.46985236 -0.7873989
vn -0.42179072 -0.58963317 0.68878543
vn -0.7175228 -0.5168136 -0.46697396
vn -0.7165186 -0.58371055 0.3819465
vn -0.81954926 -0.570718 -0.05118522
vn 0.15590765 -0.93610656 0.3152734
vn -0.012423872 -0.95070726 0.30984083
vn -0.1618523 -0.9605545 0.22613896
vn -0.26609686 -0.9557921 0.12511544
vn -0.004994217 -0.99996877 0.006124651
vn 0.34873667 -0.9109692 0.22026794
vn -0.32216123 -0.9456394 -0.04447786
vn -0.31392223 -0.9225405 -0.2244367
vn 0.44748944 -0.8936111 0.03481787
vn -0.16679282 -0.9039538 -0.39376098
vn 0.4313588 -0.8759179 -0.21609558
vn 0.03729707 -0.8819843 -0.4698006
vn 0.27961114 -0.8776215 -0.38935593
vn -0.12445421 0.6857079 -0.71715814
vn -0.78135264 -0.6132488 0.115818985
vn -0.5311228 0.80530864 -0.26341313
vn -0.8332449 0.43553287 -0.34060854
vn 0.927061 0.03468427 -0.3733025
vn -0.17698921 0.54576087 -0.81903595
vn 0.92606694 0.12954064 -0.35442808
vn -0.515627 0.8443426 0.14565119
vn 0.6148427 -0.0015218556 -0.78864825
vn 0.030103598 0.6463538 0.7624439
vn 0.10539353 0.3509603 -0.9304402
vn -0.39267734 0.589852 0.70560557
vn 0.8018414 0.2952476 0.519499
vn 0.35693103 0.62459606 0.69460785
vn 0.9285713 0.363753 0.07375121
vn -0.6941508 0.68690723 -0.2152045
vn 0.9987733 -0.006928592 -0.049028583
vn 0.19549572 0.65327 0.7314504
vn 0.64868677 0.59570414 0.47364768
vn -0.73147166 0.6559255 0.18630843
vn -0.03306141 0.5890795 0.80739844
vn 0.3643743 0.6284695 0.68720984
vn 0.87606996 0.2261255 -0.42587417
vn 0.7573706 0.24967864 0.60336584
g cashBag_0
f 3/3/3 2/2/2 1/1/1
f 2/2/2 4/4/4 1/1/1
f 2/2/2 5/5/5 4/4/4
f 5/5/5 6/6/6 4/4/4
f 5/5/5 7/7/7 6/6/6
f 7/7/7 8/8/8 6/6/6
f 7/7/7 9/9/9 8/8/8
f 9/9/9 10/10/10 8/8/8
f 9/9/9 11/11/11 10/10/10
f 11/11/11 12/12/12 10/10/10
f 11/11/11 13/13/13 12/12/12
f 13/13/13 14/14/14 12/12/12
f 13/13/13 15/15/15 14/14/14
f 15/15/15 16/16/16 14/14/14
f 15/15/15 17/17/17 16/16/16
f 17/17/17 18/18/18 16/16/16
f 17/17/17 19/19/19 18/18/18
f 19/19/19 20/20/20 18/18/18
f 19/19/19 21/21/21 20/20/20
f 21/21/21 22/22/22 20/20/20
f 24/24/24 23/23/23 22/22/22
f 23/23/23 25/25/25 22/22/22
f 23/23/23 26/26/26 25/25/25
f 26/26/26 1/1/1 25/25/25
f 29/29/29 28/28/28 27/27/27
f 30/30/30 29/29/29 27/27/27
f 30/30/30 31/31/31 29/29/29
f 30/30/30 27/27/27 31/31/31
f 29/29/29 31/31/31 32/32/32
f 31/31/31 27/27/27 33/33/33
f 34/34/34 32/32/32 31/31/31
f 35/35/35 33/33/33 27/27/27
f 36/36/36 33/33/33 35/35/35
f 36/36/36 35/35/35 37/37/37
f 36/36/36 37/37/37 33/33/33
f 35/35/35 38/38/38 37/37/37
f 33/33/33 37/37/37 39/39/39
f 40/40/40 39/39/39 37/37/37
f 41/41/41 39/39/39 40/40/40
f 41/41/41 40/40/40 42/42/42
f 41/41/41 42/42/42 39/39/39
f 39/39/39 42/42/42 34/34/34
f 40/40/40 43/43/43 42/42/42
f 44/44/44 34/34/34 42/42/42
f 44/44/44 45/45/45 32/32/32
f 46/46/46 34/34/34 44/44/44
f 46/46/46 44/44/44 32/32/32
f 46/46/46 32/32/32 34/34/34
f 49/49/49 48/48/48 47/47/47
f 50/50/50 49/49/49 47/47/47
f 53/53/53 52/52/52 51/51/51
f 54/54/54 53/53/53 51/51/51
f 57/57/57 56/56/56 55/55/55
f 58/58/58 57/57/57 55/55/55
f 61/61/61 60/60/60 59/59/59
f 59/59/59 60/60/60 62/62/62
f 63/63/63 62/62/62 60/60/60
f 64/64/64 59/59/59 62/62/62
f 65/65/65 64/64/64 62/62/62
f 66/66/66 59/59/59 64/64/64
f 69/69/69 68/68/68 67/67/67
f 70/70/70 69/69/69 67/67/67
f 73/73/73 72/72/72 71/71/71
f 74/74/74 73/73/73 71/71/71
f 77/77/77 76/76/76 75/75/75
f 78/78/78 77/77/77 75/75/75
f 81/81/81 80/80/80 79/79/79
f 82/82/82 81/81/81 79/79/79
f 85/85/85 84/84/84 83/83/83
f 86/86/86 85/85/85 83/83/83
f 89/89/89 88/88/88 87/87/87
f 90/90/90 89/89/89 87/87/87
f 93/93/93 92/92/92 91/91/91
f 94/94/94 93/93/93 91/91/91
f 97/97/97 96/96/96 95/95/95
f 98/98/98 97/97/97 95/95/95
f 101/101/101 100/100/100 99/99/99
f 102/102/102 101/101/101 99/99/99
f 105/105/105 104/104/104 103/103/103
f 106/106/106 105/105/105 103/103/103
f 109/109/109 108/108/108 107/107/107
f 110/110/110 109/109/109 107/107/107
f 113/113/113 112/112/112 111/111/111
f 114/114/114 113/113/113 111/111/111
f 117/117/117 116/116/116 115/115/115
f 118/118/118 117/117/117 115/115/115
f 121/121/121 120/120/120 119/119/119
f 122/122/122 121/121/121 119/119/119
f 125/125/125 124/124/124 123/123/123
f 126/126/126 125/125/125 123/123/123
f 129/129/129 128/128/128 127/127/127
f 130/130/130 129/129/129 127/127/127
f 133/133/133 132/132/132 131/131/131
f 134/134/134 133/133/133 131/131/131
f 137/137/137 136/136/136 135/135/135
f 138/138/138 137/137/137 135/135/135
f 141/141/141 140/140/140 139/139/139
f 142/142/142 141/141/141 139/139/139
f 145/145/145 144/144/144 143/143/143
f 146/146/146 145/145/145 143/143/143
f 146/146/146 147/147/147 145/145/145
f 146/146/146 143/143/143 147/147/147
f 145/145/145 147/147/147 148/148/148
f 147/147/147 143/143/143 149/149/149
f 150/150/150 148/148/148 147/147/147
f 151/151/151 149/149/149 143/143/143
f 152/152/152 149/149/149 151/151/151
f 152/152/152 151/151/151 153/153/153
f 152/152/152 153/153/153 149/149/149
f 151/151/151 154/154/154 153/153/153
f 149/149/149 153/153/153 155/155/155
f 156/156/156 155/155/155 153/153/153
f 157/157/157 155/155/155 156/156/156
f 157/157/157 156/156/156 158/158/158
f 157/157/157 158/158/158 155/155/155
f 155/155/155 158/158/158 150/150/150
f 156/156/156 159/159/159 158/158/158
f 160/160/160 150/150/150 158/158/158
f 160/160/160 161/161/161 148/148/148
f 162/162/162 150/150/150 160/160/160
f 162/162/162 160/160/160 148/148/148
f 162/162/162 148/148/148 150/150/150
f 165/165/165 164/164/164 163/163/163
f 166/166/166 165/165/165 163/163/163
f 169/169/169 168/168/168 167/167/167
f 170/170/170 169/169/169 167/167/167
f 173/173/173 172/172/172 171/171/171
f 174/174/174 173/173/173 171/171/171
f 177/177/177 176/176/176 175/175/175
f 175/175/175 176/176/176 178/178/178
f 179/179/179 178/178/178 176/176/176
f 180/180/180 175/175/175 178/178/178
f 181/181/181 180/180/180 178/178/178
f 182/182/182 175/175/175 180/180/180
f 185/185/185 184/184/184 183/183/183
f 186/186/186 185/185/185 183/183/183
f 189/189/189 188/188/188 187/187/187
f 190/190/190 189/189/189 187/187/187
f 193/193/193 192/192/192 191/191/191
f 194/194/194 193/193/193 191/191/191
f 197/197/197 196/196/196 195/195/195
f 198/198/198 197/197/197 195/195/195
f 201/201/201 200/200/200 199/199/199
f 202/202/202 201/201/201 199/199/199
f 205/205/205 204/204/204 203/203/203
f 206/206/206 205/205/205 203/203/203
f 209/209/209 208/208/208 207/207/207
f 210/210/210 209/209/209 207/207/207
f 213/213/213 212/212/212 211/211/211
f 214/214/214 213/213/213 211/211/211
f 214/214/214 215/215/215 213/213/213
f 214/214/214 211/211/211 215/215/215
f 213/213/213 215/215/215 216/216/216
f 215/215/215 211/211/211 217/217/217
f 218/218/218 216/216/216 215/215/215
f 219/219/219 217/217/217 211/211/211
f 220/220/220 217/217/217 219/219/219
f 220/220/220 219/219/219 221/221/221
f 220/220/220 221/221/221 217/217/217
f 219/219/219 222/222/222 221/221/221
f 217/217/217 221/221/221 223/223/223
f 224/224/224 223/223/223 221/221/221
f 225/225/225 223/223/223 224/224/224
f 225/225/225 224/224/224 226/226/226
f 225/225/225 226/226/226 223/223/223
f 223/223/223 226/226/226 218/218/218
f 224/224/224 227/227/227 226/226/226
f 228/228/228 218/218/218 226/226/226
f 228/228/228 229/229/229 216/216/216
f 230/230/230 218/218/218 228/228/228
f 230/230/230 228/228/228 216/216/216
f 230/230/230 216/216/216 218/218/218
f 233/233/233 232/232/232 231/231/231
f 234/234/234 233/233/233 231/231/231
f 237/237/237 236/236/236 235/235/235
f 238/238/238 237/237/237 235/235/235
f 241/241/241 240/240/240 239/239/239
f 242/242/242 241/241/241 239/239/239
f 245/245/245 244/244/244 243/243/243
f 243/243/243 244/244/244 246/246/246
f 247/247/247 246/246/246 244/244/244
f 248/248/248 243/243/243 246/246/246
f 249/249/249 248/248/248 246/246/246
f 250/250/250 243/243/243 248/248/248
f 253/253/253 252/252/252 251/251/251
f 254/254/254 253/253/253 251/251/251
f 257/257/257 256/256/256 255/255/255
f 258/258/258 257/257/257 255/255/255
f 261/261/261 260/260/260 259/259/259
f 262/262/262 261/261/261 259/259/259
f 265/265/265 264/264/264 263/263/263
f 266/266/266 265/265/265 263/263/263
f 269/269/269 268/268/268 267/267/267
f 270/270/270 269/269/269 267/267/267
f 273/273/273 272/272/272 271/271/271
f 274/274/274 273/273/273 271/271/271
f 277/277/277 276/276/276 275/275/275
f 278/278/278 277/277/277 275/275/275
f 281/281/281 280/280/280 279/279/279
f 282/282/282 281/281/281 279/279/279
f 282/282/282 283/283/283 281/281/281
f 282/282/282 279/279/279 283/283/283
f 281/281/281 283/283/283 284/284/284
f 283/283/283 279/279/279 285/285/285
f 286/286/286 284/284/284 283/283/283
f 287/287/287 285/285/285 279/279/279
f 288/288/288 285/285/285 287/287/287
f 288/288/288 287/287/287 289/289/289
f 288/288/288 289/289/289 285/285/285
f 287/287/287 290/290/290 289/289/289
f 285/285/285 289/289/289 291/291/291
f 292/292/292 291/291/291 289/289/289
f 293/293/293 291/291/291 292/292/292
f 293/293/293 292/292/292 294/294/294
f 293/293/293 294/294/294 291/291/291
f 291/291/291 294/294/294 286/286/286
f 292/292/292 295/295/295 294/294/294
f 296/296/296 286/286/286 294/294/294
f 296/296/296 297/297/297 284/284/284
f 298/298/298 286/286/286 296/296/296
f 298/298/298 296/296/296 284/284/284
f 298/298/298 284/284/284 286/286/286
f 301/301/301 300/300/300 299/299/299
f 302/302/302 301/301/301 299/299/299
f 305/305/305 304/304/304 303/303/303
f 306/306/306 305/305/305 303/303/303
f 309/309/309 308/308/308 307/307/307
f 310/310/310 309/309/309 307/307/307
f 313/313/313 312/312/312 311/311/311
f 311/311/311 312/312/312 314/314/314
f 315/315/315 314/314/314 312/312/312
f 316/316/316 311/311/311 314/314/314
f 317/317/317 316/316/316 314/314/314
f 318/318/318 311/311/311 316/316/316
f 321/321/321 320/320/320 319/319/319
f 322/322/322 321/321/321 319/319/319
f 325/325/325 324/324/324 323/323/323
f 326/326/326 325/325/325 323/323/323
f 329/329/329 328/328/328 327/327/327
f 330/330/330 329/329/329 327/327/327
f 333/333/333 332/332/332 331/331/331
f 334/334/334 333/333/333 331/331/331
f 337/337/337 336/336/336 335/335/335
f 338/338/338 337/337/337 335/335/335
f 341/341/341 340/340/340 339/339/339
f 342/342/342 341/341/341 339/339/339
f 345/345/345 344/344/344 343/343/343
f 346/346/346 345/345/345 343/343/343
f 349/349/349 348/348/348 347/347/347
f 350/350/350 349/349/349 347/347/347
f 350/350/350 351/351/351 349/349/349
f 350/350/350 347/347/347 351/351/351
f 349/349/349 351/351/351 352/352/352
f 351/351/351 347/347/347 353/353/353
f 354/354/354 352/352/352 351/351/351
f 355/355/355 353/353/353 347/347/347
f 356/356/356 353/353/353 355/355/355
f 356/356/356 355/355/355 357/357/357
f 356/356/356 357/357/357 353/353/353
f 355/355/355 358/358/358 357/357/357
f 353/353/353 357/357/357 359/359/359
f 360/360/360 359/359/359 357/357/357
f 361/361/361 359/359/359 360/360/360
f 361/361/361 360/360/360 362/362/362
f 361/361/361 362/362/362 359/359/359
f 359/359/359 362/362/362 354/354/354
f 360/360/360 363/363/363 362/362/362
f 364/364/364 354/354/354 362/362/362
f 364/364/364 365/365/365 352/352/352
f 366/366/366 354/354/354 364/364/364
f 366/366/366 364/364/364 352/352/352
f 366/366/366 352/352/352 354/354/354
f 369/369/369 368/368/368 367/367/367
f 370/370/370 369/369/369 367/367/367
f 373/373/373 372/372/372 371/371/371
f 374/374/374 373/373/373 371/371/371
f 377/377/377 376/376/376 375/375/375
f 378/378/378 377/377/377 375/375/375
f 381/381/381 380/380/380 379/379/379
f 379/379/379 380/380/380 382/382/382
f 383/383/383 382/382/382 380/380/380
f 384/384/384 379/379/379 382/382/382
f 385/385/385 384/384/384 382/382/382
f 386/386/386 379/379/379 384/384/384
f 389/389/389 388/388/388 387/387/387
f 390/390/390 389/389/389 387/387/387
f 393/393/393 392/392/392 391/391/391
f 394/394/394 393/393/393 391/391/391
f 397/397/397 396/396/396 395/395/395
f 398/398/398 397/397/397 395/395/395
f 401/401/401 400/400/400 399/399/399
f 402/402/402 401/401/401 399/399/399
f 405/405/405 404/404/404 403/403/403
f 406/406/406 405/405/405 403/403/403
f 409/409/409 408/408/408 407/407/407
f 410/410/410 409/409/409 407/407/407
f 413/413/413 412/412/412 411/411/411
f 414/414/414 413/413/413 411/411/411
f 417/417/417 416/416/416 415/415/415
f 418/418/418 417/417/417 415/415/415
f 421/421/421 420/420/420 419/419/419
f 422/422/422 421/421/421 419/419/419
f 425/425/425 424/424/424 423/423/423
f 426/426/426 425/425/425 423/423/423
f 429/429/429 428/428/428 427/427/427
f 430/430/430 429/429/429 427/427/427
f 433/433/433 432/432/432 431/431/431
f 434/434/434 433/433/433 431/431/431
f 437/437/437 436/436/436 435/435/435
f 438/438/438 437/437/437 435/435/435
f 441/441/441 440/440/440 439/439/439
f 440/440/440 442/442/442 439/439/439
f 439/439/439 442/442/442 443/443/443
f 442/442/442 444/444/444 443/443/443
f 447/447/447 446/446/446 445/445/445
f 448/448/448 447/447/447 445/445/445
f 449/449/449 447/447/447 448/448/448
f 450/450/450 449/449/449 448/448/448
f 451/451/451 449/449/449 450/450/450
f 452/452/452 451/451/451 450/450/450
f 453/453/453 451/451/451 452/452/452
f 454/454/454 453/453/453 452/452/452
f 455/455/455 453/453/453 454/454/454
f 456/456/456 455/455/455 454/454/454
f 457/457/457 455/455/455 456/456/456
f 458/458/458 457/457/457 456/456/456
f 459/459/459 457/457/457 458/458/458
f 460/460/460 459/459/459 458/458/458
f 461/461/461 459/459/459 460/460/460
f 462/462/462 461/461/461 460/460/460
f 463/463/463 461/461/461 462/462/462
f 464/464/464 463/463/463 462/462/462
f 465/465/465 463/463/463 464/464/464
f 466/466/466 465/465/465 464/464/464
f 454/454/454 452/452/452 467/467/467
f 456/456/456 454/454/454 468/468/468
f 454/454/454 467/467/467 468/468/468
f 458/458/458 456/456/456 469/469/469
f 456/456/456 468/468/468 469/469/469
f 460/460/460 458/458/458 470/470/470
f 458/458/458 469/469/469 470/470/470
f 462/462/462 460/460/460 471/471/471
f 460/460/460 470/470/470 471/471/471
f 464/464/464 462/462/462 472/472/472
f 462/462/462 471/471/471 472/472/472
f 466/466/466 464/464/464 473/473/473
f 464/464/464 472/472/472 473/473/473
f 452/452/452 474/474/474 467/467/467
f 452/452/452 450/450/450 474/474/474
f 466/466/466 473/473/473 475/475/475
f 476/476/476 466/466/466 475/475/475
f 450/450/450 477/477/477 474/474/474
f 450/450/450 448/448/448 477/477/477
f 476/476/476 475/475/475 478/478/478
f 445/445/445 476/476/476 478/478/478
f 448/448/448 445/445/445 479/479/479
f 448/448/448 479/479/479 477/477/477
f 445/445/445 478/478/478 479/479/479
f 472/472/472 480/480/480 473/473/473
f 480/480/480 481/481/481 473/473/473
f 473/473/473 481/481/481 475/475/475
f 482/482/482 480/480/480 472/472/472
f 481/481/481 483/483/483 475/475/475
f 475/475/475 483/483/483 478/478/478
f 471/471/471 482/482/482 472/472/472
f 483/483/483 484/484/484 478/478/478
f 478/478/478 484/484/484 479/479/479
f 485/485/485 482/482/482 471/471/471
f 484/484/484 486/486/486 479/479/479
f 479/479/479 486/486/486 477/477/477
f 470/470/470 485/485/485 471/471/471
f 486/486/486 487/487/487 477/477/477
f 488/488/488 485/485/485 470/470/470
f 477/477/477 487/487/487 474/474/474
f 469/469/469 488/488/488 470/470/470
f 487/487/487 489/489/489 474/474/474
f 490/490/490 488/488/488 469/469/469
f 474/474/474 489/489/489 467/467/467
f 468/468/468 490/490/490 469/469/469
f 489/489/489 491/491/491 467/467/467
f 491/491/491 490/490/490 468/468/468
f 467/467/467 491/491/491 468/468/468
f 494/494/494 493/493/493 492/492/492
f 493/493/493 495/495/495 492/492/492
f 493/493/493 496/496/496 495/495/495
f 494/494/494 492/492/492 497/497/497
f 498/498/498 494/494/494 497/497/497
f 496/496/496 499/499/499 495/495/495
f 496/496/496 500/500/500 499/499/499
f 498/498/498 497/497/497 501/501/501
f 502/502/502 498/498/498 501/501/501
f 500/500/500 503/503/503 499/499/499
f 500/500/500 504/504/504 503/503/503
f 502/502/502 501/501/501 505/505/505
f 506/506/506 502/502/502 505/505/505
f 504/504/504 507/507/507 503/503/503
f 504/504/504 508/508/508 507/507/507
f 506/506/506 505/505/505 509/509/509
f 510/510/510 506/506/506 509/509/509
f 508/508/508 511/511/511 507/507/507
f 508/508/508 512/512/512 511/511/511
f 510/510/510 509/509/509 513/513/513
f 514/514/514 510/510/510 513/513/513
f 512/512/512 514/514/514 515/515/515
f 512/512/512 515/515/515 511/511/511
f 514/514/514 513/513/513 515/515/515
f 505/505/505 501/501/501 516/516/516
f 509/509/509 505/505/505 517/517/517
f 505/505/505 516/516/516 517/517/517
f 513/513/513 509/509/509 518/518/518
f 509/509/509 517/517/517 518/518/518
f 515/515/515 513/513/513 519/519/519
f 513/513/513 518/518/518 519/519/519
f 511/511/511 515/515/515 520/520/520
f 515/515/515 519/519/519 520/520/520
f 507/507/507 511/511/511 521/521/521
f 511/511/511 520/520/520 521/521/521
f 501/501/501 522/522/522 516/516/516
f 501/501/501 497/497/497 522/522/522
f 507/507/507 521/521/521 523/523/523
f 503/503/503 507/507/507 523/523/523
f 497/497/497 524/524/524 522/522/522
f 497/497/497 492/492/492 524/524/524
f 503/503/503 523/523/523 525/525/525
f 499/499/499 503/503/503 525/525/525
f 492/492/492 526/526/526 524/524/524
f 492/492/492 495/495/495 526/526/526
f 495/495/495 499/499/499 527/527/527
f 499/499/499 525/525/525 527/527/527
f 495/495/495 527/527/527 526/526/526
f 516/516/516 522/522/522 528/528/528
f 522/522/522 524/524/524 529/529/529
f 522/522/522 529/529/529 528/528/528
f 524/524/524 526/526/526 530/530/530
f 524/524/524 530/530/530 529/529/529
f 526/526/526 527/527/527 531/531/531
f 526/526/526 531/531/531 530/530/530
f 529/529/529 530/530/530 532/532/532
f 528/528/528 529/529/529 532/532/532
f 530/530/530 531/531/531 532/532/532
f 533/533/533 528/528/528 532/532/532
f 516/516/516 528/528/528 533/533/533
f 531/531/531 534/534/534 532/532/532
f 527/527/527 534/534/534 531/531/531
f 527/527/527 525/525/525 534/534/534
f 517/517/517 516/516/516 533/533/533
f 525/525/525 535/535/535 534/534/534
f 534/534/534 535/535/535 532/532/532
f 525/525/525 523/523/523 535/535/535
f 517/517/517 533/533/533 536/536/536
f 536/536/536 533/533/533 532/532/532
f 518/518/518 517/517/517 536/536/536
f 523/523/523 537/537/537 535/535/535
f 535/535/535 537/537/537 532/532/532
f 523/523/523 521/521/521 537/537/537
f 518/518/518 536/536/536 538/538/538
f 538/538/538 536/536/536 532/532/532
f 519/519/519 518/518/518 538/538/538
f 521/521/521 539/539/539 537/537/537
f 537/537/537 539/539/539 532/532/532
f 521/521/521 520/520/520 539/539/539
f 519/519/519 538/538/538 540/540/540
f 540/540/540 538/538/538 532/532/532
f 539/539/539 540/540/540 532/532/532
f 520/520/520 540/540/540 539/539/539
f 520/520/520 519/519/519 540/540/540
f 543/543/543 542/542/542 541/541/541
f 544/544/544 543/543/543 541/541/541
f 541/541/541 542/542/542 545/545/545
f 546/546/546 543/543/543 544/544/544
f 542/542/542 547/547/547 545/545/545
f 548/548/548 546/546/546 544/544/544
f 545/545/545 547/547/547 549/549/549
f 550/550/550 546/546/546 548/548/548
f 547/547/547 551/551/551 549/549/549
f 552/552/552 550/550/550 548/548/548
f 549/549/549 551/551/551 553/553/553
f 554/554/554 550/550/550 552/552/552
f 551/551/551 555/555/555 553/553/553
f 556/556/556 554/554/554 552/552/552
f 553/553/553 555/555/555 557/557/557
f 558/558/558 554/554/554 556/556/556
f 555/555/555 559/559/559 557/557/557
f 560/560/560 558/558/558 556/556/556
f 557/557/557 559/559/559 561/561/561
f 562/562/562 558/558/558 560/560/560
f 559/559/559 563/563/563 561/561/561
f 564/564/564 562/562/562 560/560/560
f 561/561/561 563/563/563 564/564/564
f 563/563/563 562/562/562 564/564/564
