g cashierIcon
v 0.88507855 0.20593975 -0.85716844
v 0.8643193 0.6834872 -1.0996189
v -0.4593243 0.5237173 -1.3009768
v -0.4385649 0.046170045 -1.0585253
v 0.4810185 1.355194 0.25624335
v 0.36494967 1.6277314 0.80298775
v -0.7737157 1.4902898 0.6297702
v -0.657646 1.2177521 0.08302581
v 0.4627514 1.8615017 1.2550664
v 0.48351115 1.3839558 1.4975116
v -1.0305988 1.2011961 1.2671797
v -1.0513587 1.6787417 1.0247343
v -1.0305988 1.2011961 1.2671797
v 0.48351115 1.3839558 1.4975116
v 0.7165732 0.8367145 0.39967608
v -0.79753697 0.6539546 0.16934434
v -0.64126086 0.5221109 -0.1037218
v 0.6823824 0.6818806 0.09763566
v -0.4385649 0.046170045 -1.0585253
v 0.88507855 0.20593975 -0.85716844
v -0.81829625 1.1315004 -0.0731072
v -0.9908952 1.5367736 0.7399184
v -0.97729236 1.2238336 0.8988034
v -0.79753697 0.6539546 0.16934434
v -0.6620212 0.999658 -0.3461731
v -0.64126086 0.5221109 -0.1037218
v -0.4385649 0.046170045 -1.0585253
v -0.4593243 0.5237173 -1.3009768
v -1.0305988 1.2011961 1.2671797
v -1.0074049 1.2945417 1.0406494
v -1.021009 1.6074816 0.88176817
v -1.0513587 1.6787417 1.0247343
v 0.7518467 0.71927553 -1.0194907
v 0.5081014 1.2916025 0.12866879
v -0.6305632 1.1541606 -0.04454875
v -0.38681877 0.58183336 -1.1927085
v 0.6616224 1.159428 -0.14481552
v 0.8643193 0.6834872 -1.0996189
v 0.88507855 0.20593975 -0.85716844
v 0.6823824 0.6818806 0.09763566
v 0.69581383 1.3142604 0.15722415
v 0.7165732 0.8367145 0.39967608
v 0.52321476 1.7195338 0.9702504
v 0.53681797 1.4065931 1.1291356
v 0.50670487 1.4773017 1.2709816
v 0.48351115 1.3839558 1.4975116
v 0.4931016 1.7902416 1.1121001
v 0.4627514 1.8615017 1.2550664
v 0.53681797 1.4065931 1.1291356
v 0.50670487 1.4773017 1.2709816
v -1.0074049 1.2945417 1.0406494
v -0.97729236 1.2238336 0.8988034
v 0.4931016 1.7902416 1.1121001
v 0.4627514 1.8615017 1.2550664
v -1.0513587 1.6787417 1.0247343
v -1.021009 1.6074816 0.88176817
v 0.52321476 1.7195338 0.9702504
v 0.53681797 1.4065931 1.1291356
v -0.97729236 1.2238336 0.8988034
v -0.9908952 1.5367736 0.7399184
v 0.50670487 1.4773017 1.2709816
v 0.4931016 1.7902416 1.1121001
v -1.021009 1.6074816 0.88176817
v -1.0074049 1.2945417 1.0406494
v 0.55518305 0.5823457 -0.31762588
v 0.47927955 1.0300027 -0.17386414
v -0.43206483 0.9199993 -0.3125012
v -0.35628054 0.4719761 -0.45518547
v 0.47927955 1.0300027 -0.17386414
v 0.38217404 0.7328133 0.7002783
v -0.5291701 0.62280995 0.5616421
v -0.43206483 0.9199993 -0.3125012
v 0.38217404 0.7328133 0.7002783
v 0.45807725 0.28515875 0.5565179
v -0.45314682 0.17552157 0.41680408
v -0.5291701 0.62280995 0.5616421
v 1.1305635 -1.6462638 0.40927416
v 1.3132931 -1.0870273 -1.2356505
v -0.4016429 -1.2940278 -1.4965324
v -0.5843721 -1.8532646 0.14839157
v -0.35628054 0.4719761 -0.45518547
v -0.43206483 0.9199993 -0.3125012
v -0.5291701 0.62280995 0.5616421
v -0.45314682 0.17552157 0.41680408
v 0.45807725 0.28515875 0.5565179
v 0.38217404 0.7328133 0.7002783
v 0.47927955 1.0300027 -0.17386414
v 0.55518305 0.5823457 -0.31762588
v 1.3132931 -1.0870273 -1.2356505
v 1.2447594 -0.68283534 -1.1058469
v -0.47255602 -0.8971162 -1.345315
v -0.4016429 -1.2940278 -1.4965324
v -0.4016429 -1.2940278 -1.4965324
v -0.47255602 -0.8971162 -1.345315
v -0.6505266 -1.4417928 0.2567801
v -0.5843721 -1.8532646 0.14839157
v 1.06203 -1.2420734 0.53907657
v 1.1305635 -1.6462638 0.40927416
v -0.5843721 -1.8532646 0.14839157
v -0.6505266 -1.4417928 0.2567801
v 1.1305635 -1.6462638 0.40927416
v 1.06203 -1.2420734 0.53907657
v 1.2447594 -0.68283534 -1.1058469
v 1.3132931 -1.0870273 -1.2356505
v 0.65588146 -0.9206115 -0.676357
v 0.4109206 0.5240927 -0.21240108
v -0.23975427 0.4453039 -0.31060755
v 0.004388798 -1.0019027 -0.7672015
v 0.004388798 -1.0019027 -0.7672015
v -0.23975427 0.4453039 -0.31060755
v -0.30890557 0.23367034 0.3118921
v -0.063126996 -1.2085345 -0.15942214
v 0.3415991 0.31193912 0.4116282
v 0.5865598 -1.1327673 -0.052328467
v -0.063126996 -1.2085345 -0.15942214
v -0.30890557 0.23367034 0.3118921
v 0.5865598 -1.1327673 -0.052328467
v 0.3415991 0.31193912 0.4116282
v 0.4109206 0.5240927 -0.21240108
v 0.65588146 -0.9206115 -0.676357
v -0.657646 1.2177521 0.08302581
v -0.7737157 1.4902898 0.6297702
v -0.9908952 1.5367736 0.7399184
v 0.36494967 1.6277314 0.80298775
v 0.52321476 1.7195338 0.9702504
v 0.4810185 1.355194 0.25624335
v 0.69581383 1.3142604 0.15722415
v -0.81829625 1.1315004 -0.0731072
v 0.5081014 1.2916025 0.12866879
v 0.6616224 1.159428 -0.14481552
v 0.7518467 0.71927553 -1.0194907
v 0.8643193 0.6834872 -1.0996189
v -0.6305632 1.1541606 -0.04454875
v -0.6620212 0.999658 -0.3461731
v -0.38681877 0.58183336 -1.1927085
v -0.4593243 0.5237173 -1.3009768
v -0.30890557 0.23367034 0.3118921
v 0.45807725 0.28515875 0.5565179
v 0.3415991 0.31193912 0.4116282
v -0.45314682 0.17552157 0.41680408
v 0.55518305 0.5823457 -0.31762588
v -0.23975427 0.4453039 -0.31060755
v 0.4109206 0.5240927 -0.21240108
v -0.35628054 0.4719761 -0.45518547
v -0.6505266 -1.4417928 0.2567801
v 0.5865598 -1.1327673 -0.052328467
v 1.06203 -1.2420734 0.53907657
v -0.063126996 -1.2085345 -0.15942214
v 0.65588146 -0.9206115 -0.676357
v -0.47255602 -0.8971162 -1.345315
v 1.2447594 -0.68283534 -1.1058469
v 0.004388798 -1.0019027 -0.7672015
vt 0.7205517 0.09644425
vt 0.7205517 0.09644425
vt 0.7205517 0.09644425
vt 0.7205517 0.09644425
vt 0.15922597 0.46449104
vt 0.15922597 0.46449104
vt 0.15922597 0.46449104
vt 0.15922597 0.46449104
vt 0.7205517 0.09644425
vt 0.7205517 0.09644425
vt 0.7205517 0.09644425
vt 0.7205517 0.09644425
vt 0.7205517 0.09644425
vt 0.7205517 0.09644425
vt 0.7205517 0.09644425
vt 0.7205517 0.09644425
vt 0.7205517 0.09644425
vt 0.7205517 0.09644425
vt 0.7205517 0.09644425
vt 0.7205517 0.09644425
vt 0.7205517 0.09644425
vt 0.7205517 0.09644425
vt 0.7205517 0.09644425
vt 0.7205517 0.09644425
vt 0.7205517 0.09644425
vt 0.7205517 0.09644425
vt 0.7205517 0.09644425
vt 0.7205517 0.09644425
vt 0.7205517 0.09644425
vt 0.7205517 0.09644425
vt 0.7205517 0.09644425
vt 0.7205517 0.09644425
vt 0.8455517 0.03394425
vt 0.8455517 0.03394425
vt 0.8455517 0.03394425
vt 0.8455517 0.03394425
vt 0.7205517 0.09644425
vt 0.7205517 0.09644425
vt 0.7205517 0.09644425
vt 0.7205517 0.09644425
vt 0.7205517 0.09644425
vt 0.7205517 0.09644425
vt 0.7205517 0.09644425
vt 0.7205517 0.09644425
vt 0.7205517 0.09644425
vt 0.7205517 0.09644425
vt 0.7205517 0.09644425
vt 0.7205517 0.09644425
vt 0.7205517 0.09644425
vt 0.7205517 0.09644425
vt 0.7205517 0.09644425
vt 0.7205517 0.09644425
vt 0.7205517 0.09644425
vt 0.7205517 0.09644425
vt 0.7205517 0.09644425
vt 0.7205517 0.09644425
vt 0.7205517 0.09644425
vt 0.7205517 0.09644425
vt 0.7205517 0.09644425
vt 0.7205517 0.09644425
vt 0.7205517 0.09644425
vt 0.7205517 0.09644425
vt 0.7205517 0.09644425
vt 0.7205517 0.09644425
vt 0.7205517 0.09644425
vt 0.7205517 0.09644425
vt 0.7205517 0.09644425
vt 0.7205517 0.09644425
vt 0.7205517 0.09644425
vt 0.7205517 0.09644425
vt 0.7205517 0.09644425
vt 0.7205517 0.09644425
vt 0.7205517 0.09644425
vt 0.7205517 0.09644425
vt 0.7205517 0.09644425
vt 0.7205517 0.09644425
vt 0.7205517 0.09644425
vt 0.7205517 0.09644425
vt 0.7205517 0.09644425
vt 0.7205517 0.09644425
vt 0.7205517 0.09644425
vt 0.7205517 0.09644425
vt 0.7205517 0.09644425
vt 0.7205517 0.09644425
vt 0.7205517 0.09644425
vt 0.7205517 0.09644425
vt 0.7205517 0.09644425
vt 0.7205517 0.09644425
vt 0.7205517 0.09644425
vt 0.7205517 0.09644425
vt 0.7205517 0.09644425
vt 0.7205517 0.09644425
vt 0.7205517 0.09644425
vt 0.7205517 0.09644425
vt 0.7205517 0.09644425
vt 0.7205517 0.09644425
vt 0.7205517 0.09644425
vt 0.7205517 0.09644425
vt 0.7205517 0.09644425
vt 0.7205517 0.09644425
vt 0.7205517 0.09644425
vt 0.7205517 0.09644425
vt 0.7205517 0.09644425
vt 0.7205517 0.09644425
vt 0.7205517 0.09644425
vt 0.7205517 0.09644425
vt 0.7205517 0.09644425
vt 0.7205517 0.09644425
vt 0.7205517 0.09644425
vt 0.7205517 0.09644425
vt 0.7205517 0.09644425
vt 0.7205517 0.09644425
vt 0.7205517 0.09644425
vt 0.7205517 0.09644425
vt 0.7205517 0.09644425
vt 0.7205517 0.09644425
vt 0.7205517 0.09644425
vt 0.7205517 0.09644425
vt 0.7205517 0.09644425
vt 0.7205517 0.09644425
vt 0.7205517 0.09644425
vt 0.7205517 0.09644425
vt 0.7205517 0.09644425
vt 0.7205517 0.09644425
vt 0.7205517 0.09644425
vt 0.7205517 0.09644425
vt 0.7205517 0.09644425
vt 0.7205517 0.09644425
vt 0.7205517 0.09644425
vt 0.7205517 0.09644425
vt 0.7205517 0.09644425
vt 0.7205517 0.09644425
vt 0.7205517 0.09644425
vt 0.7205517 0.09644425
vt 0.7205517 0.09644425
vt 0.7205517 0.09644425
vt 0.7205517 0.09644425
vt 0.7205517 0.09644425
vt 0.7205517 0.09644425
vt 0.7205517 0.09644425
vt 0.7205517 0.09644425
vt 0.7205517 0.09644425
vt 0.7205517 0.09644425
vt 0.7205517 0.09644425
vt 0.7205517 0.09644425
vt 0.7205517 0.09644425
vt 0.7205517 0.09644425
vt 0.7205517 0.09644425
vt 0.7205517 0.09644425
vt 0.7205517 0.09644425
vt 0.7205517 0.09644425
vt 0.7205517 0.09644425
vn 0.18665606 -0.43827876 -0.8792447
vn 0.18665606 -0.43827876 -0.8792447
vn 0.18665606 -0.43827876 -0.8792447
vn 0.18665606 -0.43827876 -0.8792447
vn -0.03873788 0.8909943 -0.45235896
vn -0.038734846 0.8909911 -0.4523654
vn -0.03872884 0.89099187 -0.4523645
vn -0.038728688 0.8909953 -0.45235762
vn -0.1866559 0.4382715 0.8792484
vn -0.1866559 0.4382715 0.8792484
vn -0.1866559 0.4382715 0.8792484
vn -0.1866559 0.4382715 0.8792484
vn 0.03873239 -0.89099437 0.45235926
vn 0.03873239 -0.89099437 0.45235926
vn 0.03873218 -0.8909937 0.45236045
vn 0.038732182 -0.8909937 0.4523605
vn 0.038732443 -0.890994 0.4523597
vn 0.03873244 -0.890994 0.4523597
vn 0.038733065 -0.89099544 0.45235696
vn 0.038733065 -0.89099544 0.45235696
vn -0.94465744 -0.18023352 -0.27411368
vn -0.98166144 -0.11849088 -0.14933443
vn -0.98166144 -0.118490845 -0.14933431
vn -0.94465744 -0.1802335 -0.27411363
vn -0.9446575 -0.18023384 -0.27411324
vn -0.9446575 -0.18023384 -0.2741132
vn -0.98166144 -0.11849158 -0.14933367
vn -0.98166144 -0.11849158 -0.14933367
vn -0.98166144 -0.11849111 -0.1493343
vn -0.98166144 -0.11849114 -0.14933428
vn -0.98166144 -0.11849145 -0.14933434
vn -0.98166144 -0.11849145 -0.14933434
vn -0.038739078 0.89099896 -0.45234957
vn -0.03873867 0.8909946 -0.4523583
vn -0.038727466 0.8909959 -0.4523567
vn -0.038730446 0.891 -0.4523483
vn 0.998295 0.054286316 0.021447992
vn 0.98166156 0.118490994 0.14933398
vn 0.98166156 0.118490994 0.14933398
vn 0.998295 0.05428634 0.021448033
vn 0.998295 0.054286364 0.021447886
vn 0.998295 0.054286327 0.021448083
vn 0.98166144 0.1184912 0.14933398
vn 0.98166144 0.11849023 0.1493348
vn 0.9816613 0.11849015 0.1493354
vn 0.98166144 0.11849012 0.14933543
vn 0.9816613 0.11849064 0.14933553
vn 0.9816613 0.11849064 0.14933553
vn -0.038730305 0.8909895 -0.45236892
vn -0.038730305 0.8909895 -0.45236892
vn -0.038730305 0.8909895 -0.45236892
vn -0.038730305 0.8909895 -0.45236892
vn -0.038737345 0.89100575 -0.4523364
vn -0.038737345 0.89100575 -0.4523364
vn -0.038737345 0.89100575 -0.4523364
vn -0.038737345 0.89100575 -0.4523364
vn -0.18665665 0.43829057 0.87923867
vn -0.18665665 0.43829057 0.87923867
vn -0.18665665 0.43829057 0.87923867
vn -0.18665665 0.43829057 0.87923867
vn 0.18665634 -0.4382824 -0.87924284
vn 0.18665634 -0.4382824 -0.87924284
vn 0.18665634 -0.4382824 -0.87924284
vn 0.18665634 -0.4382824 -0.87924284
vn 0.10418407 0.3189162 -0.9420394
vn 0.10418407 0.3189162 -0.9420394
vn 0.10418407 0.3189162 -0.9420394
vn 0.10418407 0.3189162 -0.9420394
vn -0.1593738 0.9399383 0.3018541
vn -0.1593738 0.9399383 0.3018541
vn -0.1593738 0.9399383 0.3018541
vn -0.1593738 0.9399383 0.3018541
vn -0.10501055 -0.3213196 0.94113046
vn -0.10501055 -0.3213196 0.94113046
vn -0.10501055 -0.3213196 0.94113046
vn -0.10501055 -0.3213196 0.94113046
vn 0.15937392 -0.9399386 -0.3018533
vn 0.15937392 -0.9399386 -0.3018533
vn 0.15937392 -0.9399386 -0.3018533
vn 0.15937392 -0.9399386 -0.3018533
vn -0.98166144 -0.11849163 -0.14933354
vn -0.98166144 -0.11849163 -0.14933354
vn -0.98166144 -0.11849163 -0.14933354
vn -0.98166144 -0.11849163 -0.14933354
vn 0.98166156 0.11849071 0.14933361
vn 0.98166156 0.11849071 0.14933361
vn 0.98166156 0.11849071 0.14933361
vn 0.98166156 0.11849071 0.14933361
vn 0.09395836 0.34407574 -0.93422896
vn 0.09395836 0.34407574 -0.93422896
vn 0.09395836 0.34407574 -0.93422896
vn 0.09395836 0.34407574 -0.93422896
vn -0.98166156 -0.118491024 -0.14933364
vn -0.98166156 -0.118491024 -0.14933364
vn -0.98166156 -0.118491024 -0.14933364
vn -0.98166156 -0.118491024 -0.14933364
vn -0.115159504 -0.29592383 0.9482444
vn -0.115159504 -0.29592383 0.9482444
vn -0.115159504 -0.29592383 0.9482444
vn -0.115159504 -0.29592383 0.9482444
vn 0.98166156 0.11849047 0.14933385
vn 0.98166156 0.11849047 0.14933385
vn 0.98166156 0.11849047 0.14933385
vn 0.98166156 0.11849047 0.14933385
vn 0.09800851 0.31687486 -0.94339
vn 0.09800851 0.31687486 -0.94339
vn 0.09800851 0.31687486 -0.94339
vn 0.09800851 0.31687486 -0.94339
vn -0.98166156 -0.118491165 -0.14933327
vn -0.98166156 -0.118491165 -0.14933327
vn -0.98166156 -0.118491165 -0.14933327
vn -0.98166156 -0.118491165 -0.14933327
vn -0.11118156 -0.32334253 0.9397278
vn -0.11118156 -0.32334253 0.9397278
vn -0.11118156 -0.32334253 0.9397278
vn -0.11118156 -0.32334253 0.9397278
vn 0.98166156 0.11849069 0.1493339
vn 0.98166156 0.11849069 0.1493339
vn 0.98166156 0.11849069 0.1493339
vn 0.98166156 0.11849069 0.1493339
vn -0.038728688 0.8909953 -0.45235762
vn -0.03872884 0.89099187 -0.4523645
vn -0.0387273 0.8909916 -0.452365
vn -0.038734846 0.8909911 -0.4523654
vn -0.03873666 0.8909905 -0.4523664
vn -0.03873788 0.8909943 -0.45235896
vn -0.0387435 0.89099324 -0.45236042
vn -0.03872294 0.8909956 -0.45235738
vn -0.03873867 0.8909946 -0.4523583
vn -0.038744185 0.89099354 -0.45235988
vn -0.038739078 0.89099896 -0.45234957
vn -0.03874092 0.8910013 -0.4523447
vn -0.038727466 0.8909959 -0.4523567
vn -0.03872178 0.8909962 -0.45235664
vn -0.038730446 0.891 -0.4523483
vn -0.03873063 0.89100254 -0.4523432
vn 0.15937328 -0.939939 -0.30185226
vn 0.15937412 -0.9399389 -0.30185223
vn 0.15937415 -0.9399389 -0.30185223
vn 0.1593733 -0.939939 -0.3018523
vn 0.15937416 -0.9399387 -0.30185282
vn 0.1593733 -0.9399388 -0.30185282
vn 0.15937415 -0.9399387 -0.3018528
vn 0.15937328 -0.9399388 -0.30185285
vn -0.15937422 0.9399382 0.30185425
vn -0.15937363 0.9399383 0.3018543
vn -0.15937363 0.9399383 0.3018543
vn -0.1593742 0.9399383 0.30185425
vn -0.15937348 0.9399385 0.3018538
vn -0.15937404 0.93993837 0.30185375
vn -0.15937348 0.9399385 0.3018538
vn -0.15937404 0.93993837 0.3018537
g cashierIcon_0
f 3/3/3 2/2/2 1/1/1
f 4/4/4 3/3/3 1/1/1
f 7/7/7 6/6/6 5/5/5
f 8/8/8 7/7/7 5/5/5
f 11/11/11 10/10/10 9/9/9
f 12/12/12 11/11/11 9/9/9
f 15/15/15 14/14/14 13/13/13
f 16/16/16 15/15/15 13/13/13
f 16/16/16 17/17/17 15/15/15
f 17/17/17 18/18/18 15/15/15
f 17/17/17 19/19/19 18/18/18
f 19/19/19 20/20/20 18/18/18
f 23/23/23 22/22/22 21/21/21
f 24/24/24 23/23/23 21/21/21
f 24/24/24 21/21/21 25/25/25
f 26/26/26 24/24/24 25/25/25
f 26/26/26 25/25/25 27/27/27
f 25/25/25 28/28/28 27/27/27
f 24/24/24 29/29/29 23/23/23
f 29/29/29 30/30/30 23/23/23
f 31/31/31 30/30/30 29/29/29
f 32/32/32 31/31/31 29/29/29
f 35/35/35 34/34/34 33/33/33
f 36/36/36 35/35/35 33/33/33
f 39/39/39 38/38/38 37/37/37
f 40/40/40 39/39/39 37/37/37
f 40/40/40 37/37/37 41/41/41
f 42/42/42 40/40/40 41/41/41
f 41/41/41 43/43/43 42/42/42
f 43/43/43 44/44/44 42/42/42
f 44/44/44 45/45/45 42/42/42
f 45/45/45 46/46/46 42/42/42
f 45/45/45 47/47/47 46/46/46
f 47/47/47 48/48/48 46/46/46
f 51/51/51 50/50/50 49/49/49
f 52/52/52 51/51/51 49/49/49
f 55/55/55 54/54/54 53/53/53
f 56/56/56 55/55/55 53/53/53
f 59/59/59 58/58/58 57/57/57
f 60/60/60 59/59/59 57/57/57
f 63/63/63 62/62/62 61/61/61
f 64/64/64 63/63/63 61/61/61
f 67/67/67 66/66/66 65/65/65
f 68/68/68 67/67/67 65/65/65
f 71/71/71 70/70/70 69/69/69
f 72/72/72 71/71/71 69/69/69
f 75/75/75 74/74/74 73/73/73
f 76/76/76 75/75/75 73/73/73
f 79/79/79 78/78/78 77/77/77
f 80/80/80 79/79/79 77/77/77
f 83/83/83 82/82/82 81/81/81
f 84/84/84 83/83/83 81/81/81
f 87/87/87 86/86/86 85/85/85
f 88/88/88 87/87/87 85/85/85
f 91/91/91 90/90/90 89/89/89
f 92/92/92 91/91/91 89/89/89
f 95/95/95 94/94/94 93/93/93
f 96/96/96 95/95/95 93/93/93
f 99/99/99 98/98/98 97/97/97
f 100/100/100 99/99/99 97/97/97
f 103/103/103 102/102/102 101/101/101
f 104/104/104 103/103/103 101/101/101
f 107/107/107 106/106/106 105/105/105
f 108/108/108 107/107/107 105/105/105
f 111/111/111 110/110/110 109/109/109
f 112/112/112 111/111/111 109/109/109
f 115/115/115 114/114/114 113/113/113
f 116/116/116 115/115/115 113/113/113
f 119/119/119 118/118/118 117/117/117
f 120/120/120 119/119/119 117/117/117
f 123/123/123 122/122/122 121/121/121
f 124/124/124 122/122/122 123/123/123
f 125/125/125 124/124/124 123/123/123
f 126/126/126 124/124/124 125/125/125
f 127/127/127 126/126/126 125/125/125
f 128/128/128 123/123/123 121/121/121
f 129/129/129 126/126/126 127/127/127
f 121/121/121 126/126/126 129/129/129
f 129/129/129 127/127/127 130/130/130
f 131/131/131 129/129/129 130/130/130
f 130/130/130 132/132/132 131/131/131
f 133/133/133 121/121/121 129/129/129
f 128/128/128 121/121/121 133/133/133
f 134/134/134 128/128/128 133/133/133
f 135/135/135 131/131/131 132/132/132
f 134/134/134 133/133/133 135/135/135
f 136/136/136 135/135/135 132/132/132
f 135/135/135 136/136/136 134/134/134
f 139/139/139 138/138/138 137/137/137
f 138/138/138 140/140/140 137/137/137
f 141/141/141 138/138/138 139/139/139
f 137/137/137 140/140/140 142/142/142
f 143/143/143 141/141/141 139/139/139
f 140/140/140 144/144/144 142/142/142
f 144/144/144 141/141/141 143/143/143
f 142/142/142 144/144/144 143/143/143
f 147/147/147 146/146/146 145/145/145
f 146/146/146 148/148/148 145/145/145
f 149/149/149 146/146/146 147/147/147
f 145/145/145 148/148/148 150/150/150
f 151/151/151 149/149/149 147/147/147
f 148/148/148 152/152/152 150/150/150
f 152/152/152 149/149/149 151/151/151
f 150/150/150 152/152/152 151/151/151
