g Cat_LOD2
v 0.49198064 0.73383856 1.0742991
v 0.5344126 0.73383236 0.87073904
v 0.57360685 0.540247 0.8837371
v 0.52355886 0.55897856 1.0981401
v 0.38246498 0.7281579 1.2433792
v 0.39587313 0.57128507 1.277898
v 0.19936542 0.58876485 1.3870451
v 0.19607061 0.7542757 1.3330247
v 1.2480777E-08 0.59850496 1.4319348
v 1.2480777E-08 0.77157736 1.3682541
v -0.19607058 0.75427574 1.3330246
v -0.19936539 0.58876485 1.3870451
v -0.38246495 0.7281578 1.2433794
v -0.39587313 0.571285 1.277898
v -0.4919806 0.73383856 1.0742991
v -0.52355886 0.5589786 1.0981401
v -0.5344127 0.73383236 0.87073904
v -0.57360685 0.540247 0.8837371
v 0.5305087 0.20292512 1.158744
v 0.58153194 0.124417216 0.9421495
v 0.57607573 -0.05861861 1.0129704
v 0.52527714 0.047419652 1.2173089
v 0.39994624 0.25882107 1.3376552
v 0.39735425 0.12323246 1.3834256
v 0.20469874 0.15812132 1.4880025
v 0.20383401 0.2810705 1.4524198
v 1.2480777E-08 0.16931176 1.5309505
v 1.2480777E-08 0.28658473 1.5008844
v -0.20383398 0.2810705 1.4524198
v -0.20469871 0.1581213 1.4880024
v -0.39994624 0.25882104 1.3376552
v -0.39735425 0.12323246 1.3834256
v -0.5305087 0.20292512 1.158744
v -0.5252771 0.04741966 1.217309
v -0.58153194 0.12441723 0.94214946
v -0.5760758 -0.058618616 1.0129704
v 0.19086324 0.7073093 0.4151654
v 0.19625156 0.8662317 0.48682958
v 1.2015116E-08 0.8984674 0.46567658
v 1.2946439E-08 0.7304053 0.3838786
v 0.19119526 0.4831854 0.38476476
v -0.1908632 0.7073093 0.4151654
v -0.19625153 0.8662317 0.4868296
v -0.19119522 0.4831854 0.38476476
v 1.2015116E-08 0.4990786 0.346965
v 0.1959749 -0.07977988 0.43430135
v -0.19597484 -0.07977988 0.43430135
v 1.2713608E-08 -0.084599935 0.39792916
v 0.20031883 -0.36036307 0.5311142
v -0.2003188 -0.3603631 0.5311141
v 1.4110592E-08 -0.37998232 0.49955046
v 0.20294507 -0.5804449 0.6861762
v -0.20294504 -0.5804449 0.6861762
v 1.2713608E-08 -0.61146486 0.6590895
v 0.20239316 -0.71235937 0.8631288
v -0.20239313 -0.71235937 0.86312866
v 1.166587E-08 -0.74708885 0.83806616
v 0.19965665 -0.7824391 1.046469
v 1.2480777E-08 -0.8168977 1.0252553
v -0.19965662 -0.7824391 1.046469
v 0.12485299 -0.8372154 1.4129323
v 0.19511797 -0.811822 1.2211989
v 1.166587E-08 -0.84607905 1.2092352
v 1.2364362E-08 -0.85229516 1.3815303
v -0.12485296 -0.8372154 1.4129323
v -0.19511794 -0.811822 1.2211987
v 0.47603732 -0.24268375 1.623701
v 0.4999728 -0.43191376 1.6411418
v 0.45741558 -0.25405905 1.7025046
v 0.52353776 -0.41975817 1.5424235
v 0.46029082 -0.603064 1.5660217
v 0.47964472 -0.597349 1.4523813
v 0.36557475 -0.73841584 1.391914
v 0.357047 -0.73732996 1.5179162
v 0.24724685 -0.7914107 1.3865439
v 0.24990022 -0.7943486 1.534724
v -0.4760373 -0.24268375 1.6237009
v -0.45741558 -0.25405905 1.7025049
v -0.4999728 -0.4319138 1.6411418
v -0.52353776 -0.41975817 1.5424234
v -0.46029082 -0.603064 1.5660217
v -0.47964478 -0.597349 1.4523813
v -0.357047 -0.73732996 1.5179162
v -0.36557475 -0.73841584 1.3919142
v -0.24990019 -0.7943486 1.5347238
v -0.2472468 -0.7914106 1.3865439
v 0.3907098 -0.62258464 0.93429744
v 0.20294507 -0.5804449 0.6861762
v 0.20239316 -0.71235937 0.8631288
v 0.39425108 -0.4967866 0.76532483
v 0.5145927 -0.47537985 1.0704659
v 0.5197935 -0.35908023 0.9242742
v 0.5617459 -0.31108028 1.2388599
v 0.5691316 -0.20935307 1.1226199
v 0.39425108 -0.4967866 0.76532483
v 0.20031883 -0.36036307 0.5311142
v 0.20294507 -0.5804449 0.6861762
v 0.39407715 -0.29855737 0.62101156
v 0.5197935 -0.35908023 0.9242742
v 0.1959749 -0.07977988 0.43430135
v 0.5232368 -0.18396515 0.7958904
v 0.5691316 -0.20935307 1.1226199
v 0.39248753 -0.048544303 0.5339289
v 0.19119526 0.4831854 0.38476476
v 0.5260945 0.032364376 0.7174916
v 0.3897534 0.46904352 0.4858569
v 0.19086324 0.7073093 0.4151654
v 0.5213902 0.50156885 0.66708
v 0.37859255 0.6779371 0.4999496
v 0.19625156 0.8662317 0.48682958
v 0.49055842 0.7061565 0.66773
v 0.357822 0.803927 0.5284683
v 0.57607573 -0.05861861 1.0129704
v 0.58153194 0.124417216 0.9421495
v 0.52527714 0.047419652 1.2173089
v 0.57360685 0.540247 0.8837371
v 0.52355886 0.55897856 1.0981401
v 0.5305087 0.20292512 1.158744
v 0.5344126 0.73383236 0.87073904
v 0.39587313 0.57128507 1.277898
v 0.39994624 0.25882107 1.3376552
v 0.20383401 0.2810705 1.4524198
v 0.19936542 0.58876485 1.3870451
v 1.2480777E-08 0.28658473 1.5008844
v 1.2480777E-08 0.59850496 1.4319348
v -0.19936539 0.58876485 1.3870451
v -0.20383398 0.2810705 1.4524198
v -0.39587313 0.571285 1.277898
v -0.39994624 0.25882104 1.3376552
v -0.52355886 0.5589786 1.0981401
v -0.5305087 0.20292512 1.158744
v -0.57360685 0.540247 0.8837371
v -0.58153194 0.12441723 0.94214946
v -0.5213902 0.50156885 0.66708
v -0.5260945 0.032364372 0.71749157
v -0.5760758 -0.058618616 1.0129704
v -0.49055842 0.70615643 0.66773
v -0.5344127 0.73383236 0.87073904
v -0.38975337 0.46904358 0.48585695
v -0.37859255 0.6779371 0.49994963
v -0.4188462 0.8634945 0.6726247
v -0.357822 0.803927 0.52846825
v -0.44959033 0.8968833 0.864492
v -0.4919806 0.73383856 1.0742991
v -0.4198677 0.88147336 1.0594301
v -0.38246495 0.7281578 1.2433794
v -0.3599755 0.83718514 1.2077756
v -0.19607058 0.75427574 1.3330246
v -0.1983424 0.8950072 1.250638
v 1.2480777E-08 0.77157736 1.3682541
v -0.22283138 1.0153136 1.0691813
v -0.2374542 1.0551312 0.8615568
v -0.2222824 0.9992002 0.65946573
v -0.19625153 0.8662317 0.4868296
v -0.1908632 0.7073093 0.4151654
v -0.19119522 0.4831854 0.38476476
v -0.39248753 -0.048544303 0.5339289
v -0.19597484 -0.07977988 0.43430135
v 1.2480777E-08 0.92378426 1.2731916
v 1.1549455E-08 1.0665 1.0792361
v 1.1549455E-08 1.1175067 0.8608726
v 1.166587E-08 1.0509995 0.6488399
v 1.2015116E-08 0.8984674 0.46567658
v 0.22228242 0.9992002 0.65946573
v 0.19834243 0.8950072 1.2506379
v 0.19607061 0.7542757 1.3330247
v 0.22283141 1.0153136 1.0691812
v 0.23745424 1.0551313 0.8615568
v 0.4188462 0.8634945 0.6726247
v 0.44959033 0.8968833 0.864492
v 0.49198064 0.73383856 1.0742991
v 0.4198677 0.88147336 1.0594301
v 0.38246498 0.7281579 1.2433792
v 0.3599755 0.83718514 1.2077755
v -0.3907098 -0.62258464 0.93429744
v -0.20239313 -0.71235937 0.86312866
v -0.20294504 -0.5804449 0.6861762
v -0.39425114 -0.49678653 0.76532483
v -0.5197935 -0.35908026 0.92427415
v -0.51459265 -0.47537985 1.0704659
v -0.5691316 -0.20935309 1.12262
v -0.5617459 -0.31108028 1.2388601
v -0.39425114 -0.49678653 0.76532483
v -0.20294504 -0.5804449 0.6861762
v -0.2003188 -0.3603631 0.5311141
v -0.39407715 -0.29855737 0.62101156
v -0.52323675 -0.18396515 0.7958904
v -0.5197935 -0.35908026 0.92427415
v -0.5691316 -0.20935309 1.12262
v -0.5252771 0.04741966 1.217309
v -0.5617459 -0.31108028 1.2388601
v -0.49819666 -0.18588635 1.4722351
v -0.37333196 -0.087810114 1.5928823
v -0.39735425 0.12323246 1.3834256
v -0.20469871 0.1581213 1.4880024
v -0.19491109 -0.015313316 1.6525694
v 1.2480777E-08 0.16931176 1.5309505
v 1.2131531E-08 0.011849457 1.6796669
v 0.20469874 0.15812132 1.4880025
v 0.19491112 -0.015313316 1.6525694
v 0.39735425 0.12323246 1.3834256
v 0.37333202 -0.087810114 1.5928822
v 0.49819666 -0.18588635 1.4722351
v 0.5617459 -0.31108028 1.2388599
v 1.1782285E-08 -0.11851501 1.9778533
v 0.18206486 -0.13048333 1.9434514
v 0.31908646 -0.15613706 1.8793049
v 0.47603732 -0.24268375 1.623701
v 0.52353776 -0.41975817 1.5424235
v 0.45741558 -0.25405905 1.7025046
v -0.18206483 -0.13048331 1.9434516
v 1.2480777E-08 -0.29602578 2.0565262
v 0.50583005 -0.5450476 1.2132266
v 0.5145927 -0.47537985 1.0704659
v 0.3907098 -0.62258464 0.93429744
v 0.49396437 -0.58184385 1.3376842
v 0.38326582 -0.69473296 1.1048855
v 0.20239316 -0.71235937 0.8631288
v 0.19965665 -0.7824391 1.046469
v 0.47964472 -0.597349 1.4523813
v 0.37460047 -0.7290447 1.2557842
v 0.36557475 -0.73841584 1.391914
v 0.19511797 -0.811822 1.2211989
v 0.24724685 -0.7914107 1.3865439
v 0.12485299 -0.8372154 1.4129323
v 0.15168813 -0.84075814 1.5877463
v 0.24990022 -0.7943486 1.534724
v 0.07869037 -0.95536387 1.5501727
v 1.2480777E-08 -0.97016823 1.5412531
v 1.2364362E-08 -0.85229516 1.3815303
v -0.12485296 -0.8372154 1.4129323
v 0.087500535 -0.96197814 1.6198956
v 0.10120855 -0.8315159 1.7420391
v 0.06784684 -0.94816047 1.6842853
v 1.2480777E-08 -0.98943007 1.6229234
v -0.07869034 -0.95536387 1.5501727
v 1.2480777E-08 -0.96448684 1.6930417
v -0.087500505 -0.96197814 1.6198958
v 0.16943592 -0.766048 1.8034048
v 0.357047 -0.73732996 1.5179162
v -0.15168805 -0.84075814 1.5877463
v 0.30831578 -0.70925415 1.7430307
v 0.46029082 -0.603064 1.5660217
v -0.06784681 -0.9481605 1.6842853
v 1.2480777E-08 -0.8513023 1.7789997
v -0.10120852 -0.83151597 1.7420392
v -0.16943586 -0.766048 1.8034048
v 1.2480777E-08 -0.802242 1.8344971
v 1.2480777E-08 -0.699292 1.9808626
v -0.24990019 -0.7943486 1.5347238
v -0.2472468 -0.7914106 1.3865439
v -0.19511794 -0.811822 1.2211987
v -0.36557475 -0.73841584 1.3919142
v -0.37460044 -0.72904485 1.2557843
v -0.47964478 -0.597349 1.4523813
v -0.49396437 -0.58184385 1.3376842
v -0.52353776 -0.41975817 1.5424234
v -0.30831575 -0.709254 1.7430307
v -0.357047 -0.73732996 1.5179162
v -0.50583005 -0.5450476 1.2132266
v -0.51459265 -0.47537985 1.0704659
v -0.3832658 -0.694733 1.1048855
v -0.3907098 -0.62258464 0.93429744
v -0.19965662 -0.7824391 1.046469
v -0.20239313 -0.71235937 0.86312866
v -0.4760373 -0.24268375 1.6237009
v -0.31908643 -0.15613706 1.8793049
v -0.45741558 -0.25405905 1.7025049
v -0.2020492 -0.29519176 2.0085292
v -0.36780834 -0.28571153 1.8898623
v -0.39200854 -0.46687475 1.8744895
v -0.4999728 -0.4319138 1.6411418
v -0.21456839 -0.50136286 2.0140388
v 1.2480777E-08 -0.51709574 2.0668879
v -0.3660852 -0.62175286 1.8142216
v -0.46029082 -0.603064 1.5660217
v -0.2012294 -0.67105985 1.9379214
v 0.20204923 -0.29519176 2.008529
v 0.21456842 -0.501363 2.0140388
v 0.36780834 -0.28571153 1.8898623
v 0.4999728 -0.43191376 1.6411418
v 0.39200854 -0.46687472 1.8744897
v 0.20122942 -0.67105985 1.9379214
v 0.36608523 -0.62175286 1.8142216
v 0.16399674 -0.47535056 2.0384235
v 0.21150033 -0.4776954 1.981325
v 0.1581455 -0.47164673 2.024905
v 0.223389 -0.48494452 2.0017045
v 0.19946797 -0.4788551 2.0917714
v 0.28713724 -0.4635024 1.9709643
v 0.2772675 -0.46291742 1.9588301
v 0.255921 -0.48457006 2.0623627
v 0.25287235 -0.4844033 2.1491237
v 0.31194466 -0.46099222 2.0330164
v 0.28748173 -0.4859946 2.1334193
v 0.29638833 -0.48222935 2.1582656
v 0.31959128 -0.46964124 2.1164837
v -0.3832658 -0.694733 1.1048855
v -0.50583005 -0.5450476 1.2132266
v -0.49396437 -0.58184385 1.3376842
v -0.37460044 -0.72904485 1.2557843
v -0.19511794 -0.811822 1.2211987
v -0.19965662 -0.7824391 1.046469
v 1.166587E-08 -0.84607905 1.2092352
v 1.2480777E-08 -0.8168977 1.0252553
v 0.19511797 -0.811822 1.2211989
v 0.19965665 -0.7824391 1.046469
v 0.37460047 -0.7290447 1.2557842
v 0.38326582 -0.69473296 1.1048855
v 0.49396437 -0.58184385 1.3376842
v 0.50583005 -0.5450476 1.2132266
v 1.43434224E-08 1.2004354 0.7492918
v 1.43434224E-08 1.3558251 0.6771412
v -0.1328745 1.4029279 0.78137183
v 0.13287453 1.4029279 0.78137183
v -0.13881879 1.2490702 0.85646206
v 0.13881882 1.2490702 0.85646206
v 1.2480777E-08 1.2972543 0.9639498
v 1.2480777E-08 1.4496665 0.8861879
v -0.2772675 -0.46291742 1.9588299
v -0.28713724 -0.4635024 1.9709643
v -0.22338897 -0.48494452 2.0017047
v -0.21150029 -0.47769538 1.9813251
v -0.15814547 -0.47164667 2.0249047
v -0.1639967 -0.47535053 2.0384235
v -0.3119447 -0.4609922 2.0330164
v -0.25592104 -0.48457006 2.0623627
v -0.19946794 -0.4788551 2.0917711
v -0.25287238 -0.48440325 2.1491237
v -0.28748167 -0.48599458 2.1334193
v -0.3195913 -0.46964124 2.1164837
v -0.29638833 -0.48222935 2.158266
v -0.114472255 1.7653956 0.601076
v 1.43434224E-08 1.715865 0.51155794
v 1.2480777E-08 1.8004062 0.4916383
v 0.114472285 1.7653956 0.601076
v 0.08764824 1.8405335 0.56107813
v 1.1549455E-08 1.8127 0.6921462
v 1.34121E-08 1.878278 0.63211393
v 1.2480777E-08 1.876689 0.5411303
v -0.08764821 1.8405335 0.56107813
v -0.35818473 0.59557545 0.5017512
v -0.45074332 0.6881338 0.50180817
v -0.45766684 0.68813384 0.8508483
v -0.35818473 0.78069246 0.50182253
v -0.35818475 0.588652 0.85056096
v -0.35818473 0.787616 0.85093427
v -0.25870278 0.68813384 0.8509342
v -0.26562616 0.6881338 0.5018225
v -0.45766684 -0.3155192 0.8495642
v -0.45074335 -0.31551918 0.49740797
v -0.3581848 -0.22296064 0.4924027
v -0.35818475 -0.4080778 0.5003257
v -0.3581848 -0.21603727 0.847722
v -0.35818475 -0.41500118 0.8507588
v -0.26562625 -0.31551915 0.4958654
v -0.2587028 -0.3155192 0.8497754
v 0.35859862 0.6086579 0.10516482
v 0.2719727 0.68813384 0.25556025
v 0.35818473 0.60192186 0.25555795
v 0.44439685 0.68813384 0.25556025
v 0.43775302 0.6881371 0.10516484
v 0.35818473 0.77434593 0.25556025
v 0.35820326 0.7676871 0.105164856
v 0.27865356 0.6881372 0.10516484
v 0.41405833 0.6881836 0.028232703
v 0.35986558 0.6327717 0.028232697
v 0.30270797 0.6881835 0.028232703
v 0.3582843 0.74384105 0.02823271
v 0.35871866 0.6882864 0.009748219
v 0.45766684 -0.3155192 0.8495642
v 0.3581848 -0.22296064 0.49240273
v 0.45074335 -0.31551915 0.497408
v 0.35818475 -0.4080778 0.5003257
v 0.3581848 -0.21603727 0.847722
v 0.35818475 -0.41500118 0.8507588
v 0.26562622 -0.31551915 0.4958654
v 0.2587028 -0.3155192 0.8497754
v -0.3203161 -0.7344819 1.7615923
v -0.24551871 -0.77924067 1.7380164
v -0.3171889 -0.7525098 1.695989
v -0.27585483 -0.74486226 1.8119236
v -0.27546945 -0.78523886 1.6529458
v -0.21527229 -0.77344644 1.8224102
v -0.21491353 -0.8140499 1.664249
v -0.17416137 -0.8054741 1.7799567
v -0.1709297 -0.8239281 1.7150128
v 0.3203161 -0.734482 1.7615923
v 0.31718892 -0.7525098 1.695989
v 0.24551874 -0.7792405 1.7380165
v 0.27585483 -0.74486226 1.8119236
v 0.27546945 -0.78523886 1.652946
v 0.21527228 -0.77344644 1.8224102
v 0.21491355 -0.8140499 1.664249
v 0.1741614 -0.8054741 1.7799568
v 0.17092972 -0.823928 1.7150127
v 0.1581455 -0.47164673 2.024905
v 0.14871323 -0.40872562 2.030551
v 0.16399674 -0.47535056 2.0384235
v 0.19946797 -0.4788551 2.0917714
v 0.14589904 -0.40965587 2.0103805
v 0.21150033 -0.4776954 1.981325
v 0.19909956 -0.40859607 1.9461935
v 0.2772675 -0.46291742 1.9588301
v 0.21214479 -0.36096632 1.9601392
v 0.18328609 -0.41582564 2.0929894
v 0.25287235 -0.4844033 2.1491237
v 0.2806768 -0.40591952 1.9347215
v 0.22483462 -0.3441812 1.9782672
v 0.29934382 -0.40278658 1.9481741
v 0.28713724 -0.4635024 1.9709643
v 0.33000332 -0.4041466 2.019013
v 0.31194466 -0.46099222 2.0330164
v 0.24427596 -0.4330707 2.1630576
v 0.29638833 -0.48222935 2.1582656
v 0.25804284 -0.34716055 2.0488048
v 0.3345409 -0.42079762 2.1226392
v 0.31959128 -0.46964124 2.1164837
v 0.30171102 -0.4369278 2.1806252
v 0.28786483 -0.37741968 2.1321485
v -0.25287238 -0.48440325 2.1491237
v -0.18328607 -0.41582566 2.0929892
v -0.19946794 -0.4788551 2.0917711
v -0.1639967 -0.47535053 2.0384235
v -0.1487132 -0.40872562 2.030551
v -0.15814547 -0.47164667 2.0249047
v -0.145899 -0.40965587 2.0103803
v -0.21150029 -0.47769538 1.9813251
v -0.21214476 -0.3609663 1.9601394
v -0.19909953 -0.40859607 1.9461935
v -0.28067678 -0.40591952 1.9347215
v -0.2772675 -0.46291742 1.9588299
v -0.28713724 -0.4635024 1.9709643
v -0.22483459 -0.34418124 1.9782671
v -0.29934385 -0.40278658 1.9481741
v -0.25804284 -0.34716055 2.0488045
v -0.33000332 -0.4041466 2.019013
v -0.3119447 -0.4609922 2.0330164
v -0.3195913 -0.46964124 2.1164837
v -0.24427593 -0.4330707 2.1630578
v -0.3345409 -0.42079762 2.1226392
v -0.29638833 -0.48222935 2.158266
v -0.28786483 -0.37741968 2.1321483
v -0.30171102 -0.4369278 2.1806252
v 0.055552073 1.0761783 0.6963329
v 0.060511652 1.0401198 0.70514643
v 0.028421443 1.0603935 0.74675417
v 0.04545193 1.034784 0.6910412
v 0.021851595 1.1061926 0.732779
v 0.001784646 1.0991229 0.7139657
v 0.0018334085 1.0509869 0.72184247
v 0.05968329 1.0723014 0.78764683
v -0.042749397 1.0360214 0.6916961
v 0.044187922 1.0721518 0.685689
v 0.05466344 1.1074187 0.776509
v 0.0013597565 1.1136706 0.7514704
v -0.018378023 1.1067164 0.73296595
v 0.043056797 1.0782286 0.80182284
v 0.042221967 1.1118139 0.78719825
v 0.0012380352 1.0702955 0.77140814
v -0.043290567 1.0781885 0.8002381
v -0.04186919 1.1119941 0.78585523
v -0.05710542 1.0732938 0.7872986
v -0.05235814 1.1082778 0.7760309
v -0.024779523 1.0610822 0.74703526
v -0.052908808 1.0781888 0.69805956
v -0.058139846 1.0423784 0.70703465
v -0.04133372 1.0734894 0.6865572
v -0.14770845 1.0771285 0.94395655
v 1.43434224E-08 1.2004354 0.7492918
v -0.13881879 1.2490702 0.85646206
v 1.2480777E-08 1.2972543 0.9639498
v 1.43434224E-08 1.0241454 0.83344454
v 1.2480777E-08 1.1296288 1.0545665
v 0.14770848 1.0771285 0.9439565
v 0.13881882 1.2490702 0.85646206
v 0.23002535 -0.91656536 1.4422194
v 0.09588776 -0.9036571 1.5564947
v 0.0894492 -0.9103026 1.5469849
v 0.09105454 -0.92139 1.5529428
v 0.23485431 -0.91158116 1.4493518
v 0.097493105 -0.9147445 1.5624527
v 0.23605834 -0.9198967 1.4538205
v 0.23122936 -0.9248809 1.446688
v 0.29284593 -0.94435596 1.558712
v 0.10087281 -0.91194886 1.6092764
v 0.09750519 -0.92023957 1.5993675
v 0.0968023 -0.9300904 1.6080052
v 0.29537168 -0.938138 1.5661436
v 0.10016995 -0.92179984 1.6179141
v 0.2923188 -0.9517441 1.5651903
v 0.29484448 -0.9455261 1.572622
v -0.05979992 -0.9985937 1.6534592
v 1.2480777E-08 -0.97456443 1.5857048
v -0.08458686 -0.9664579 1.652406
v -0.0699505 -0.9636214 1.6801233
v -0.05686466 -0.9914283 1.6733344
v 1.2480777E-08 -0.9616101 1.7048497
v 1.2480777E-08 -1.0052233 1.6061763
v 1.26554E-08 -1.0116787 1.6582907
v 0.059799943 -0.9985937 1.6534592
v 0.08458689 -0.9664579 1.652406
v 1.2480777E-08 -0.99570376 1.6865201
v 0.056864686 -0.9914283 1.6733344
v 0.06995053 -0.9636214 1.6801233
v -0.31168437 -0.66537476 1.8204639
v -0.35626945 -0.70999503 1.7280487
v -0.364017 -0.6610028 1.7198818
v -0.33240473 -0.7022339 1.6190097
v -0.3144145 -0.7134918 1.8084929
v -0.2541219 -0.77444327 1.7293346
v -0.2164381 -0.7059522 1.8668988
v -0.23823784 -0.745945 1.8456311
v -0.13080849 -0.7636355 1.8198384
v -0.16975233 -0.7920795 1.8079928
v -0.09919625 -0.8048665 1.7189662
v -0.14446929 -0.82505554 1.7273163
v -0.15152869 -0.8004947 1.6183841
v -0.1863241 -0.8215589 1.6468725
v -0.24677488 -0.7599175 1.5719494
v -0.26250076 -0.78910583 1.6097343
v -0.33098635 -0.7429712 1.6473725
v 0.31168437 -0.66537476 1.8204639
v 0.364017 -0.6610028 1.7198818
v 0.35626948 -0.70999503 1.7280486
v 0.33240473 -0.7022339 1.6190097
v 0.31441453 -0.7134918 1.8084929
v 0.25412193 -0.7744432 1.7293342
v 0.21643813 -0.7059522 1.8668988
v 0.23823789 -0.7459448 1.8456309
v 0.13080852 -0.7636355 1.8198384
v 0.16975236 -0.7920795 1.8079927
v 0.09919628 -0.8048665 1.7189662
v 0.14446932 -0.82505536 1.7273163
v 0.15152872 -0.8004947 1.6183841
v 0.18632415 -0.8215589 1.6468723
v 0.24677491 -0.7599175 1.5719494
v 0.26250073 -0.78910583 1.6097342
v 0.33098635 -0.7429711 1.6473725
v 0.35818473 0.60192186 0.25555795
v 0.2719727 0.68813384 0.25556025
v 0.26562616 0.6881338 0.5018225
v 0.35818473 0.77434593 0.25556025
v 0.35818473 0.59557545 0.5017512
v 0.35818473 0.78069246 0.50182253
v 0.45074332 0.6881339 0.50180817
v 0.44439685 0.68813384 0.25556025
v 1.2480777E-08 1.5835158 0.81900275
v 1.2480777E-08 1.7078378 0.7539554
v 0.1243891 1.6584674 0.65576726
v 0.12894356 1.5351018 0.7172212
v -0.12894353 1.5351015 0.7172212
v 1.2480777E-08 1.6080334 0.5586094
v -0.12438907 1.6584674 0.65576726
v 1.0618132E-08 1.4862323 0.616229
v 1.43434224E-08 1.0241454 0.83344454
v 0.15575822 0.89847505 1.0381498
v 0.14770848 1.0771285 0.9439565
v 1.2480777E-08 0.8372398 0.92701215
v 1.0618132E-08 0.9590737 1.1493608
v -0.14770845 1.0771285 0.94395655
v 1.2480777E-08 1.1296288 1.0545665
v -0.15575819 0.89847505 1.0381498
v -0.1328745 1.4029279 0.78137183
v 1.2480777E-08 1.5835158 0.81900275
v 1.2480777E-08 1.4496665 0.8861879
v -0.12894353 1.5351015 0.7172212
v 0.12894356 1.5351018 0.7172212
v 1.43434224E-08 1.3558251 0.6771412
v 0.13287453 1.4029279 0.78137183
v 1.0618132E-08 1.4862323 0.616229
v -0.12438907 1.6584674 0.65576726
v -0.114472255 1.7653956 0.601076
v 1.1549455E-08 1.8127 0.6921462
v 1.2480777E-08 1.7078378 0.7539554
v 1.2480777E-08 1.6080334 0.5586094
v 0.114472285 1.7653956 0.601076
v 1.43434224E-08 1.715865 0.51155794
v 0.1243891 1.6584674 0.65576726
v -0.44439685 0.68813384 0.25556025
v -0.35820326 0.76768696 0.10516486
v -0.35818475 0.774346 0.25556025
v -0.43775302 0.6881372 0.10516485
v -0.35818473 0.60192186 0.25555795
v -0.27865356 0.6881372 0.10516485
v -0.2719727 0.68813384 0.25556025
v -0.35859862 0.60865784 0.105164826
v -0.35986558 0.6327717 0.028232697
v -0.30270794 0.6881835 0.028232703
v -0.3582843 0.74384105 0.028232712
v -0.41405833 0.6881835 0.028232703
v -0.35871866 0.68828636 0.009748219
v -0.44439688 -0.31551912 0.25394753
v -0.43775308 -0.31550738 0.10501377
v -0.35820335 -0.23595774 0.10425328
v -0.35818475 -0.22930712 0.24992107
v -0.35818475 -0.4017313 0.2551045
v -0.27865362 -0.31550738 0.104621105
v -0.27197272 -0.3155191 0.25208062
v -0.35859865 -0.3948083 0.105141066
v -0.35986456 -0.3700846 0.028232574
v -0.302707 -0.31534284 0.028232584
v -0.35828334 -0.25972992 0.028232591
v -0.41405737 -0.3153428 0.028232584
v -0.3587147 -0.31497738 0.009748098
v 0.35818473 0.787616 0.85093427
v 0.35818473 0.78069246 0.50182253
v 0.45074332 0.6881339 0.50180817
v 0.45766684 0.68813384 0.8508483
v 0.25870278 0.68813384 0.8509342
v 0.35818473 0.59557545 0.5017512
v 0.26562616 0.6881338 0.5018225
v 0.35818475 0.588652 0.85056096
v 0.35820335 -0.23595776 0.10425327
v 0.43775308 -0.31550738 0.105013765
v 0.44439685 -0.31551912 0.25394753
v 0.35818473 -0.22930712 0.24992102
v 0.3581848 -0.40173128 0.2551045
v 0.27865362 -0.31550744 0.104621105
v 0.27197272 -0.3155191 0.2520806
v 0.35859862 -0.3948083 0.105141066
v 0.302707 -0.31534284 0.028232582
v 0.35828334 -0.2597299 0.02823259
v 0.41405737 -0.31534284 0.028232582
v 0.3587147 -0.31497735 0.009748098
v 0.35986456 -0.37008455 0.028232574
v -0.2348543 -0.91158116 1.4493519
v -0.09588773 -0.9036571 1.5564947
v -0.097493075 -0.9147445 1.5624527
v -0.23605831 -0.9198968 1.4538205
v -0.09105451 -0.92139 1.5529428
v -0.23122936 -0.92488086 1.446688
v -0.08944917 -0.9103026 1.5469849
v -0.23002537 -0.9165654 1.4422195
v -0.09680227 -0.9300904 1.6080052
v -0.2948445 -0.9455261 1.572622
v -0.10016992 -0.92179984 1.6179141
v -0.2923188 -0.9517441 1.5651901
v -0.09750516 -0.92023957 1.5993675
v -0.29537168 -0.938138 1.5661436
v -0.10087278 -0.91194886 1.6092764
v -0.29284593 -0.944356 1.5587119
v -0.45074332 0.6881338 0.50180817
v -0.44439685 0.68813384 0.25556025
v -0.35818475 0.774346 0.25556025
v -0.35818473 0.78069246 0.50182253
v -0.35818473 0.59557545 0.5017512
v -0.2719727 0.68813384 0.25556025
v -0.35818473 0.60192186 0.25555795
v -0.26562616 0.6881338 0.5018225
v -0.45074335 -0.31551918 0.49740797
v -0.44439688 -0.31551912 0.25394753
v -0.35818475 -0.22930712 0.24992107
v -0.3581848 -0.22296064 0.4924027
v -0.35818475 -0.4080778 0.5003257
v -0.27197272 -0.3155191 0.25208062
v -0.35818475 -0.4017313 0.2551045
v -0.26562625 -0.31551915 0.4958654
v 0.44439685 -0.31551912 0.25394753
v 0.45074335 -0.31551915 0.497408
v 0.3581848 -0.22296064 0.49240273
v 0.35818473 -0.22930712 0.24992102
v 0.3581848 -0.40173128 0.2551045
v 0.26562622 -0.31551915 0.4958654
v 0.35818475 -0.4080778 0.5003257
v 0.27197272 -0.3155191 0.2520806
vt 0.5506751 0.98613954
vt 0.5506751 0.98613954
vt 0.5506751 0.98613954
vt 0.5506751 0.98613954
vt 0.5506751 0.98613954
vt 0.5506751 0.98613954
vt 0.5506751 0.98613954
vt 0.5506751 0.98613954
vt 0.5506751 0.98613954
vt 0.5506751 0.98613954
vt 0.5506751 0.98613954
vt 0.5506751 0.98613954
vt 0.5506751 0.98613954
vt 0.5506751 0.98613954
vt 0.5506751 0.98613954
vt 0.5506751 0.98613954
vt 0.5506751 0.98613954
vt 0.5506751 0.98613954
vt 0.5506751 0.98613954
vt 0.5506751 0.98613954
vt 0.5506751 0.98613954
vt 0.5506751 0.98613954
vt 0.5506751 0.98613954
vt 0.5506751 0.98613954
vt 0.5506751 0.98613954
vt 0.5506751 0.98613954
vt 0.5506751 0.98613954
vt 0.5506751 0.98613954
vt 0.5506751 0.98613954
vt 0.5506751 0.98613954
vt 0.5506751 0.98613954
vt 0.5506751 0.98613954
vt 0.5506751 0.98613954
vt 0.5506751 0.98613954
vt 0.5506751 0.98613954
vt 0.5506751 0.98613954
vt 0.7688474 0.92103124
vt 0.7688474 0.92103124
vt 0.7688474 0.92103124
vt 0.7688474 0.92103124
vt 0.7688474 0.92103124
vt 0.7688474 0.92103124
vt 0.7688474 0.92103124
vt 0.7688474 0.92103124
vt 0.7688474 0.92103124
vt 0.7688474 0.92103124
vt 0.7688474 0.92103124
vt 0.7688474 0.92103124
vt 0.7688474 0.92103124
vt 0.7688474 0.92103124
vt 0.7688474 0.92103124
vt 0.7688474 0.92103124
vt 0.7688474 0.92103124
vt 0.7688474 0.92103124
vt 0.7688474 0.92103124
vt 0.7688474 0.92103124
vt 0.7688474 0.92103124
vt 0.7688474 0.92103124
vt 0.7688474 0.92103124
vt 0.7688474 0.92103124
vt 0.7688474 0.92103124
vt 0.7688474 0.92103124
vt 0.7688474 0.92103124
vt 0.7688474 0.92103124
vt 0.7688474 0.92103124
vt 0.7688474 0.92103124
vt 0.5506751 0.98613954
vt 0.5506751 0.98613954
vt 0.5506751 0.98613954
vt 0.5506751 0.98613954
vt 0.5506751 0.98613954
vt 0.5506751 0.98613954
vt 0.5506751 0.98613954
vt 0.5506751 0.98613954
vt 0.5506751 0.98613954
vt 0.5506751 0.98613954
vt 0.5506751 0.98613954
vt 0.5506751 0.98613954
vt 0.5506751 0.98613954
vt 0.5506751 0.98613954
vt 0.5506751 0.98613954
vt 0.5506751 0.98613954
vt 0.5506751 0.98613954
vt 0.5506751 0.98613954
vt 0.5506751 0.98613954
vt 0.5506751 0.98613954
vt 0.5506751 0.98613954
vt 0.5506751 0.98613954
vt 0.5506751 0.98613954
vt 0.5506751 0.98613954
vt 0.5506751 0.98613954
vt 0.5506751 0.98613954
vt 0.5506751 0.98613954
vt 0.5506751 0.98613954
vt 0.7281267 0.78771436
vt 0.7281267 0.78771436
vt 0.7281267 0.78771436
vt 0.7281267 0.78771436
vt 0.7281267 0.78771436
vt 0.7281267 0.78771436
vt 0.7281267 0.78771436
vt 0.7281267 0.78771436
vt 0.7281267 0.78771436
vt 0.7281267 0.78771436
vt 0.7281267 0.78771436
vt 0.7281267 0.78771436
vt 0.7281267 0.78771436
vt 0.7281267 0.78771436
vt 0.7281267 0.78771436
vt 0.7281267 0.78771436
vt 0.7281267 0.78771436
vt 0.7281267 0.78771436
vt 0.7281267 0.78771436
vt 0.7281267 0.78771436
vt 0.7281267 0.78771436
vt 0.7281267 0.78771436
vt 0.7281267 0.78771436
vt 0.7281267 0.78771436
vt 0.7281267 0.78771436
vt 0.7281267 0.78771436
vt 0.7281267 0.78771436
vt 0.7281267 0.78771436
vt 0.7281267 0.78771436
vt 0.7281267 0.78771436
vt 0.7281267 0.78771436
vt 0.7281267 0.78771436
vt 0.7281267 0.78771436
vt 0.7281267 0.78771436
vt 0.7281267 0.78771436
vt 0.7281267 0.78771436
vt 0.7281267 0.78771436
vt 0.7281267 0.78771436
vt 0.7281267 0.78771436
vt 0.7281267 0.78771436
vt 0.7281267 0.78771436
vt 0.7281267 0.78771436
vt 0.7281267 0.78771436
vt 0.7281267 0.78771436
vt 0.7281267 0.78771436
vt 0.7281267 0.78771436
vt 0.7281267 0.78771436
vt 0.7281267 0.78771436
vt 0.7281267 0.78771436
vt 0.7281267 0.78771436
vt 0.7281267 0.78771436
vt 0.7281267 0.78771436
vt 0.7281267 0.78771436
vt 0.7281267 0.78771436
vt 0.7281267 0.78771436
vt 0.7281267 0.78771436
vt 0.7281267 0.78771436
vt 0.7281267 0.78771436
vt 0.7281267 0.78771436
vt 0.7281267 0.78771436
vt 0.7281267 0.78771436
vt 0.7281267 0.78771436
vt 0.7281267 0.78771436
vt 0.7281267 0.78771436
vt 0.7281267 0.78771436
vt 0.7281267 0.78771436
vt 0.7281267 0.78771436
vt 0.7281267 0.78771436
vt 0.7281267 0.78771436
vt 0.7281267 0.78771436
vt 0.7281267 0.78771436
vt 0.7281267 0.78771436
vt 0.7281267 0.78771436
vt 0.7281267 0.78771436
vt 0.7281267 0.78771436
vt 0.7281267 0.78771436
vt 0.7281267 0.78771436
vt 0.7281267 0.78771436
vt 0.7281267 0.78771436
vt 0.7281267 0.78771436
vt 0.5506751 0.98613954
vt 0.5506751 0.98613954
vt 0.5506751 0.98613954
vt 0.5506751 0.98613954
vt 0.5506751 0.98613954
vt 0.5506751 0.98613954
vt 0.5506751 0.98613954
vt 0.5506751 0.98613954
vt 0.7281267 0.78771436
vt 0.7281267 0.78771436
vt 0.7281267 0.78771436
vt 0.7281267 0.78771436
vt 0.7281267 0.78771436
vt 0.7281267 0.78771436
vt 0.7281267 0.78771436
vt 0.7281267 0.78771436
vt 0.7281267 0.78771436
vt 0.7281267 0.78771436
vt 0.7281267 0.78771436
vt 0.7281267 0.78771436
vt 0.7281267 0.78771436
vt 0.7281267 0.78771436
vt 0.7281267 0.78771436
vt 0.7281267 0.78771436
vt 0.7281267 0.78771436
vt 0.7281267 0.78771436
vt 0.7281267 0.78771436
vt 0.7281267 0.78771436
vt 0.7281267 0.78771436
vt 0.7281267 0.78771436
vt 0.7281267 0.78771436
vt 0.7281267 0.78771436
vt 0.7281267 0.78771436
vt 0.7281267 0.78771436
vt 0.7281267 0.78771436
vt 0.7281267 0.78771436
vt 0.7281267 0.78771436
vt 0.7281267 0.78771436
vt 0.7281267 0.78771436
vt 0.7281267 0.78771436
vt 0.7281267 0.78771436
vt 0.7281267 0.78771436
vt 0.7281267 0.78771436
vt 0.7281267 0.78771436
vt 0.7281267 0.78771436
vt 0.7281267 0.78771436
vt 0.7281267 0.78771436
vt 0.7281267 0.78771436
vt 0.7281267 0.78771436
vt 0.7281267 0.78771436
vt 0.7281267 0.78771436
vt 0.7281267 0.78771436
vt 0.7281267 0.78771436
vt 0.7281267 0.78771436
vt 0.7281267 0.78771436
vt 0.7281267 0.78771436
vt 0.7281267 0.78771436
vt 0.7281267 0.78771436
vt 0.7281267 0.78771436
vt 0.7281267 0.78771436
vt 0.7281267 0.78771436
vt 0.7281267 0.78771436
vt 0.7281267 0.78771436
vt 0.7281267 0.78771436
vt 0.7281267 0.78771436
vt 0.7281267 0.78771436
vt 0.7281267 0.78771436
vt 0.7281267 0.78771436
vt 0.7281267 0.78771436
vt 0.7281267 0.78771436
vt 0.7281267 0.78771436
vt 0.7281267 0.78771436
vt 0.7281267 0.78771436
vt 0.7281267 0.78771436
vt 0.7281267 0.78771436
vt 0.7281267 0.78771436
vt 0.7281267 0.78771436
vt 0.7281267 0.78771436
vt 0.7281267 0.78771436
vt 0.7281267 0.78771436
vt 0.7281267 0.78771436
vt 0.7281267 0.78771436
vt 0.7281267 0.78771436
vt 0.7281267 0.78771436
vt 0.7281267 0.78771436
vt 0.7281267 0.78771436
vt 0.7281267 0.78771436
vt 0.7281267 0.78771436
vt 0.7281267 0.78771436
vt 0.7281267 0.78771436
vt 0.7281267 0.78771436
vt 0.7281267 0.78771436
vt 0.7281267 0.78771436
vt 0.7281267 0.78771436
vt 0.7281267 0.78771436
vt 0.7281267 0.78771436
vt 0.7281267 0.78771436
vt 0.7281267 0.78771436
vt 0.7281267 0.78771436
vt 0.7281267 0.78771436
vt 0.7281267 0.78771436
vt 0.7281267 0.78771436
vt 0.7281267 0.78771436
vt 0.7281267 0.78771436
vt 0.7281267 0.78771436
vt 0.7281267 0.78771436
vt 0.7281267 0.78771436
vt 0.7281267 0.78771436
vt 0.7281267 0.78771436
vt 0.7281267 0.78771436
vt 0.7863436 0.90862966
vt 0.7863436 0.90862966
vt 0.7863436 0.90862966
vt 0.7863436 0.90862966
vt 0.7863436 0.90862966
vt 0.7863436 0.90862966
vt 0.7863436 0.90862966
vt 0.7863436 0.90862966
vt 0.7863436 0.90862966
vt 0.7863436 0.90862966
vt 0.7863436 0.90862966
vt 0.7863436 0.90862966
vt 0.7863436 0.90862966
vt 0.5506751 0.98613954
vt 0.5506751 0.98613954
vt 0.5506751 0.98613954
vt 0.5506751 0.98613954
vt 0.5506751 0.98613954
vt 0.5506751 0.98613954
vt 0.5506751 0.98613954
vt 0.5506751 0.98613954
vt 0.5506751 0.98613954
vt 0.5506751 0.98613954
vt 0.5506751 0.98613954
vt 0.5506751 0.98613954
vt 0.5506751 0.98613954
vt 0.5506751 0.98613954
vt 0.5506751 0.98613954
vt 0.5506751 0.98613954
vt 0.5506751 0.98613954
vt 0.5506751 0.98613954
vt 0.5506751 0.98613954
vt 0.5506751 0.98613954
vt 0.5506751 0.98613954
vt 0.5506751 0.98613954
vt 0.7863436 0.90862966
vt 0.7863436 0.90862966
vt 0.7863436 0.90862966
vt 0.7863436 0.90862966
vt 0.7863436 0.90862966
vt 0.7863436 0.90862966
vt 0.7863436 0.90862966
vt 0.7863436 0.90862966
vt 0.7863436 0.90862966
vt 0.7863436 0.90862966
vt 0.7863436 0.90862966
vt 0.7863436 0.90862966
vt 0.7863436 0.90862966
vt 0.5506751 0.98613954
vt 0.5506751 0.98613954
vt 0.5506751 0.98613954
vt 0.5506751 0.98613954
vt 0.5506751 0.98613954
vt 0.5506751 0.98613954
vt 0.5506751 0.98613954
vt 0.5506751 0.98613954
vt 0.5506751 0.98613954
vt 0.5506751 0.98613954
vt 0.5506751 0.98613954
vt 0.5506751 0.98613954
vt 0.5506751 0.98613954
vt 0.5506751 0.98613954
vt 0.5506751 0.98613954
vt 0.5506751 0.98613954
vt 0.5506751 0.98613954
vt 0.5506751 0.98613954
vt 0.5506751 0.98613954
vt 0.5506751 0.98613954
vt 0.5506751 0.98613954
vt 0.5506751 0.98613954
vt 0.5506751 0.98613954
vt 0.5506751 0.98613954
vt 0.5506751 0.98613954
vt 0.5506751 0.98613954
vt 0.5506751 0.98613954
vt 0.5506751 0.98613954
vt 0.5506751 0.98613954
vt 0.5506751 0.98613954
vt 0.5506751 0.98613954
vt 0.5506751 0.98613954
vt 0.5506751 0.98613954
vt 0.5506751 0.98613954
vt 0.5506751 0.98613954
vt 0.5506751 0.98613954
vt 0.5506751 0.98613954
vt 0.5506751 0.98613954
vt 0.5506751 0.98613954
vt 0.5506751 0.98613954
vt 0.5506751 0.98613954
vt 0.5506751 0.98613954
vt 0.5506751 0.98613954
vt 0.5506751 0.98613954
vt 0.5506751 0.98613954
vt 0.5506751 0.98613954
vt 0.47972634 0.08082494
vt 0.47972634 0.08082494
vt 0.47972634 0.08082494
vt 0.47972634 0.08082494
vt 0.47972634 0.08082494
vt 0.47972634 0.08082494
vt 0.47972634 0.08082494
vt 0.47972634 0.08082494
vt 0.47972634 0.08082494
vt 0.47972634 0.08082494
vt 0.47972634 0.08082494
vt 0.47972634 0.08082494
vt 0.47972634 0.08082494
vt 0.47972634 0.08082494
vt 0.47972634 0.08082494
vt 0.47972634 0.08082494
vt 0.47972634 0.08082494
vt 0.47972634 0.08082494
vt 0.5310596 0.96443677
vt 0.5310596 0.96443677
vt 0.5310596 0.96443677
vt 0.5310596 0.96443677
vt 0.5310596 0.96443677
vt 0.5310596 0.96443677
vt 0.5310596 0.96443677
vt 0.5310596 0.96443677
vt 0.5310596 0.96443677
vt 0.5310596 0.96443677
vt 0.5310596 0.96443677
vt 0.5310596 0.96443677
vt 0.5310596 0.96443677
vt 0.5310596 0.96443677
vt 0.5310596 0.96443677
vt 0.5310596 0.96443677
vt 0.5310596 0.96443677
vt 0.5310596 0.96443677
vt 0.5310596 0.96443677
vt 0.5310596 0.96443677
vt 0.5310596 0.96443677
vt 0.5310596 0.96443677
vt 0.5310596 0.96443677
vt 0.5310596 0.96443677
vt 0.5310596 0.96443677
vt 0.5310596 0.96443677
vt 0.5310596 0.96443677
vt 0.5310596 0.96443677
vt 0.5310596 0.96443677
vt 0.5310596 0.96443677
vt 0.5310596 0.96443677
vt 0.5310596 0.96443677
vt 0.5310596 0.96443677
vt 0.5310596 0.96443677
vt 0.5310596 0.96443677
vt 0.5310596 0.96443677
vt 0.5310596 0.96443677
vt 0.5310596 0.96443677
vt 0.5310596 0.96443677
vt 0.5310596 0.96443677
vt 0.5310596 0.96443677
vt 0.5310596 0.96443677
vt 0.5310596 0.96443677
vt 0.5310596 0.96443677
vt 0.5310596 0.96443677
vt 0.5310596 0.96443677
vt 0.5310596 0.96443677
vt 0.5310596 0.96443677
vt 0.7680909 0.83893687
vt 0.7680909 0.83893687
vt 0.7680909 0.83893687
vt 0.7680909 0.83893687
vt 0.7680909 0.83893687
vt 0.7680909 0.83893687
vt 0.7680909 0.83893687
vt 0.7680909 0.83893687
vt 0.7680909 0.83893687
vt 0.7680909 0.83893687
vt 0.7680909 0.83893687
vt 0.7680909 0.83893687
vt 0.7680909 0.83893687
vt 0.7680909 0.83893687
vt 0.7680909 0.83893687
vt 0.7680909 0.83893687
vt 0.7680909 0.83893687
vt 0.7680909 0.83893687
vt 0.7680909 0.83893687
vt 0.7680909 0.83893687
vt 0.7680909 0.83893687
vt 0.7680909 0.83893687
vt 0.7680909 0.83893687
vt 0.7680909 0.83893687
vt 0.70642394 0.7722124
vt 0.70642394 0.7722124
vt 0.70642394 0.7722124
vt 0.70642394 0.7722124
vt 0.70642394 0.7722124
vt 0.70642394 0.7722124
vt 0.70642394 0.7722124
vt 0.70642394 0.7722124
vt 0.5310596 0.96443677
vt 0.5310596 0.96443677
vt 0.5310596 0.96443677
vt 0.5310596 0.96443677
vt 0.5310596 0.96443677
vt 0.5310596 0.96443677
vt 0.5310596 0.96443677
vt 0.5310596 0.96443677
vt 0.5310596 0.96443677
vt 0.5310596 0.96443677
vt 0.5310596 0.96443677
vt 0.5310596 0.96443677
vt 0.5310596 0.96443677
vt 0.5310596 0.96443677
vt 0.5310596 0.96443677
vt 0.5310596 0.96443677
vt 0.7680909 0.83893687
vt 0.7680909 0.83893687
vt 0.7680909 0.83893687
vt 0.7680909 0.83893687
vt 0.7680909 0.83893687
vt 0.7680909 0.83893687
vt 0.7680909 0.83893687
vt 0.7680909 0.83893687
vt 0.7680909 0.83893687
vt 0.7680909 0.83893687
vt 0.7680909 0.83893687
vt 0.7680909 0.83893687
vt 0.7680909 0.83893687
vt 0.5293478 0.03741947
vt 0.5293478 0.03741947
vt 0.5293478 0.03741947
vt 0.5293478 0.03741947
vt 0.5293478 0.03741947
vt 0.52934754 0.03741947
vt 0.5293478 0.03741947
vt 0.5293478 0.03741947
vt 0.5293478 0.03741947
vt 0.5293478 0.03741947
vt 0.5293478 0.03741947
vt 0.5293478 0.03741947
vt 0.5293478 0.03741947
vt 0.5293478 0.03741947
vt 0.5293478 0.03741947
vt 0.5293478 0.03741947
vt 0.5293478 0.03741947
vt 0.5293478 0.03741947
vt 0.5293478 0.03741947
vt 0.5293478 0.03741947
vt 0.5293478 0.03741947
vt 0.5293478 0.03741947
vt 0.52934766 0.03741947
vt 0.5293478 0.03741947
vt 0.5293478 0.03741947
vt 0.5293478 0.03741947
vt 0.5293478 0.03741947
vt 0.5293478 0.03741947
vt 0.5293478 0.03741947
vt 0.5293478 0.03741947
vt 0.5293478 0.03741947
vt 0.5293478 0.03741947
vt 0.5293478 0.03741947
vt 0.5293478 0.03741947
vt 0.70642394 0.7722124
vt 0.70642394 0.7722124
vt 0.70642394 0.7722124
vt 0.70642394 0.7722124
vt 0.70642394 0.7722124
vt 0.70642394 0.7722124
vt 0.70642394 0.7722124
vt 0.70642394 0.7722124
vt 0.5506751 0.98613954
vt 0.5506751 0.98613954
vt 0.5506751 0.98613954
vt 0.5506751 0.98613954
vt 0.5506751 0.98613954
vt 0.5506751 0.98613954
vt 0.5506751 0.98613954
vt 0.5506751 0.98613954
vt 0.5506751 0.98613954
vt 0.5506751 0.98613954
vt 0.5506751 0.98613954
vt 0.5506751 0.98613954
vt 0.5506751 0.98613954
vt 0.5506751 0.98613954
vt 0.5506751 0.98613954
vt 0.5506751 0.98613954
vt 0.70642394 0.7722124
vt 0.70642394 0.7722124
vt 0.70642394 0.7722124
vt 0.70642394 0.7722124
vt 0.70642394 0.7722124
vt 0.70642394 0.7722124
vt 0.70642394 0.7722124
vt 0.70642394 0.7722124
vt 0.70642394 0.7722124
vt 0.70642394 0.7722124
vt 0.70642394 0.7722124
vt 0.70642394 0.7722124
vt 0.70642394 0.7722124
vt 0.70642394 0.7722124
vt 0.70642394 0.7722124
vt 0.70642394 0.7722124
vt 0.5506751 0.98613954
vt 0.5506751 0.98613954
vt 0.5506751 0.98613954
vt 0.5506751 0.98613954
vt 0.5506751 0.98613954
vt 0.5506751 0.98613954
vt 0.5506751 0.98613954
vt 0.5506751 0.98613954
vt 0.5506751 0.98613954
vt 0.5506751 0.98613954
vt 0.5506751 0.98613954
vt 0.5506751 0.98613954
vt 0.5506751 0.98613954
vt 0.5506751 0.98613954
vt 0.5506751 0.98613954
vt 0.5506751 0.98613954
vt 0.5506751 0.98613954
vt 0.5506751 0.98613954
vt 0.5506751 0.98613954
vt 0.5506751 0.98613954
vt 0.5506751 0.98613954
vt 0.5506751 0.98613954
vt 0.5506751 0.98613954
vt 0.5506751 0.98613954
vt 0.5506751 0.98613954
vt 0.5506751 0.98613954
vt 0.5506751 0.98613954
vt 0.5506751 0.98613954
vt 0.5506751 0.98613954
vt 0.5506751 0.98613954
vt 0.5506751 0.98613954
vt 0.5506751 0.98613954
vt 0.5506751 0.98613954
vt 0.5506751 0.98613954
vt 0.5506751 0.98613954
vt 0.5506751 0.98613954
vt 0.5506751 0.98613954
vt 0.5506751 0.98613954
vt 0.5506751 0.98613954
vt 0.5506751 0.98613954
vt 0.5506751 0.98613954
vt 0.5506751 0.98613954
vt 0.5506751 0.98613954
vt 0.5506751 0.98613954
vt 0.5506751 0.98613954
vt 0.5506751 0.98613954
vt 0.5506751 0.98613954
vt 0.5310596 0.96443677
vt 0.5310596 0.96443677
vt 0.5310596 0.96443677
vt 0.5310596 0.96443677
vt 0.5310596 0.96443677
vt 0.5310596 0.96443677
vt 0.5310596 0.96443677
vt 0.5310596 0.96443677
vt 0.5310596 0.96443677
vt 0.5310596 0.96443677
vt 0.5310596 0.96443677
vt 0.5310596 0.96443677
vt 0.5310596 0.96443677
vt 0.5310596 0.96443677
vt 0.5310596 0.96443677
vt 0.5310596 0.96443677
vt 0.70642394 0.7722124
vt 0.70642394 0.7722124
vt 0.70642394 0.7722124
vt 0.70642394 0.7722124
vt 0.70642394 0.7722124
vt 0.70642394 0.7722124
vt 0.70642394 0.7722124
vt 0.70642394 0.7722124
vt 0.70642394 0.7722124
vt 0.70642394 0.7722124
vt 0.70642394 0.7722124
vt 0.70642394 0.7722124
vt 0.70642394 0.7722124
vt 0.70642394 0.7722124
vt 0.70642394 0.7722124
vt 0.70642394 0.7722124
vt 0.70642394 0.7722124
vt 0.70642394 0.7722124
vt 0.70642394 0.7722124
vt 0.70642394 0.7722124
vt 0.70642394 0.7722124
vt 0.70642394 0.7722124
vt 0.70642394 0.7722124
vt 0.70642394 0.7722124
vn 0.8803839 0.31670165 0.35302135
vn 0.94671035 0.3209784 -0.026691914
vn 0.9943673 0.104080155 -0.020026168
vn 0.9108681 0.14617693 0.38594237
vn 0.64349693 0.31824532 0.6961549
vn 0.66826445 0.19218412 0.71867085
vn 0.3545129 0.24380235 0.9027076
vn 0.31831348 0.38057792 0.8682379
vn -0 0.2718733 0.962333
vn -0 0.42617565 0.9046404
vn -0.31831324 0.3805777 0.8682381
vn -0.35451284 0.24380235 0.9027076
vn -0.64349693 0.31824502 0.6961551
vn -0.6682647 0.19218403 0.7186708
vn -0.8803841 0.3167015 0.35302123
vn -0.9108682 0.14617689 0.38594216
vn -0.94671035 0.32097843 -0.02669199
vn -0.9943673 0.104080155 -0.020026203
vn 0.91872585 0.09741463 0.38269222
vn 0.9998729 -0.0033198972 -0.015593471
vn 0.9995565 -0.029762132 0.0009400883
vn 0.92484665 0.16543823 0.3424747
vn 0.6816957 0.18315695 0.7083392
vn 0.68639404 0.35567266 0.6343188
vn 0.3653684 0.46152303 0.80839497
vn 0.36922482 0.22762707 0.9010321
vn -0 0.4962719 0.86816716
vn -0 0.23948446 0.97090024
vn -0.36922467 0.22762685 0.9010322
vn -0.3653684 0.4615229 0.8083951
vn -0.68169564 0.18315688 0.7083393
vn -0.68639386 0.35567272 0.6343189
vn -0.9187259 0.097414605 0.38269198
vn -0.92484665 0.16543832 0.34247473
vn -0.9998729 -0.0033199098 -0.015593551
vn -0.9995565 -0.02976219 0.0009400033
vn 0.30216843 0.24975367 -0.91995513
vn 0.3136558 0.57476467 -0.7558212
vn -0 0.6194509 -0.7850354
vn -0 0.29328725 -0.95602435
vn 0.31882676 0.020406995 -0.9475932
vn -0.30216837 0.24975364 -0.91995513
vn -0.3136557 0.57476467 -0.7558212
vn -0.31882685 0.020407002 -0.9475932
vn -0 0.03564934 -0.99936444
vn 0.32481235 -0.1971507 -0.92500186
vn -0.32481232 -0.1971506 -0.92500186
vn -0 -0.2060299 -0.9785458
vn 0.33807486 -0.42821416 -0.8380561
vn -0.33807477 -0.42821416 -0.8380561
vn -0 -0.4532172 -0.8914001
vn 0.3553423 -0.65152866 -0.67025536
vn -0.35534233 -0.65152866 -0.6702553
vn -0 -0.6951586 -0.71885633
vn 0.35666087 -0.8183832 -0.4506018
vn -0.35666093 -0.8183832 -0.4506018
vn -0 -0.87555933 -0.4831105
vn 0.33553836 -0.90874916 -0.24817151
vn -0 -0.9655827 -0.26009628
vn -0.33553827 -0.90874904 -0.24817152
vn 0.36245543 -0.9138801 -0.1828912
vn 0.31147796 -0.9454111 -0.095808856
vn -0 -0.9940785 -0.10866405
vn -0 -0.9514028 -0.30794924
vn -0.3624555 -0.9138801 -0.1828912
vn -0.31147775 -0.9454112 -0.09580894
vn 0.89646035 0.35613874 0.263674
vn 0.9482131 -0.098521635 0.30196935
vn 0.88133425 0.323001 0.3448484
vn 0.98342186 -0.07802033 0.16368948
vn 0.8529382 -0.48109704 0.2025884
vn 0.8769297 -0.47365308 0.081529014
vn 0.612659 -0.7902431 0.012842576
vn 0.61582327 -0.77836335 0.122115456
vn 0.39720216 -0.9175591 -0.017768526
vn 0.4430126 -0.89236075 0.08621
vn -0.8964605 0.3561388 0.26367387
vn -0.8813341 0.32300106 0.34484828
vn -0.9482131 -0.09852175 0.30196914
vn -0.98342186 -0.07802029 0.16368936
vn -0.85293806 -0.4810974 0.20258851
vn -0.8769298 -0.47365293 0.081529
vn -0.61582303 -0.7783636 0.122115545
vn -0.61265856 -0.79024327 0.012842833
vn -0.4430126 -0.89236075 0.08620974
vn -0.39720178 -0.9175593 -0.017768418
vn 0.687007 -0.63883704 -0.3462781
vn 0.3553423 -0.65152866 -0.67025536
vn 0.35666087 -0.8183832 -0.4506018
vn 0.6940827 -0.5064208 -0.51165146
vn 0.918908 -0.3553026 -0.17137153
vn 0.9258088 -0.27744013 -0.25671983
vn 0.99612856 -0.06205293 0.06226672
vn 0.99902046 -0.037830234 0.022959039
vn 0.6940827 -0.5064208 -0.51165146
vn 0.33807486 -0.42821416 -0.8380561
vn 0.3553423 -0.65152866 -0.67025536
vn 0.6800518 -0.3371805 -0.651029
vn 0.9258088 -0.27744013 -0.25671983
vn 0.32481235 -0.1971507 -0.92500186
vn 0.92222893 -0.18940932 -0.33707267
vn 0.99902046 -0.037830234 0.022959039
vn 0.6591227 -0.15855315 -0.7351313
vn 0.31882676 0.020406995 -0.9475932
vn 0.9128473 -0.08834748 -0.3986285
vn 0.64702034 0.014082192 -0.76234263
vn 0.30216843 0.24975367 -0.91995513
vn 0.9063297 0.048503958 -0.41977832
vn 0.6325803 0.20684557 -0.7463625
vn 0.3136558 0.57476467 -0.7558212
vn 0.8797642 0.25548652 -0.40092587
vn 0.5768704 0.46277082 -0.67310005
vn 0.9995565 -0.029762132 0.0009400883
vn 0.9998729 -0.0033198972 -0.015593471
vn 0.92484665 0.16543823 0.3424747
vn 0.9943673 0.104080155 -0.020026168
vn 0.9108681 0.14617693 0.38594237
vn 0.91872585 0.09741463 0.38269222
vn 0.94671035 0.3209784 -0.026691914
vn 0.66826445 0.19218412 0.71867085
vn 0.6816957 0.18315695 0.7083392
vn 0.36922482 0.22762707 0.9010321
vn 0.3545129 0.24380235 0.9027076
vn -0 0.23948446 0.97090024
vn -0 0.2718733 0.962333
vn -0.35451284 0.24380235 0.9027076
vn -0.36922467 0.22762685 0.9010322
vn -0.6682647 0.19218403 0.7186708
vn -0.68169564 0.18315688 0.7083393
vn -0.9108682 0.14617689 0.38594216
vn -0.9187259 0.097414605 0.38269198
vn -0.9943673 0.104080155 -0.020026203
vn -0.9998729 -0.0033199098 -0.015593551
vn -0.90632963 0.04850394 -0.41977844
vn -0.91284716 -0.08834748 -0.39862856
vn -0.9995565 -0.02976219 0.0009400033
vn -0.8797642 0.25548634 -0.40092596
vn -0.94671035 0.32097843 -0.02669199
vn -0.64702034 0.014082233 -0.76234263
vn -0.63258034 0.2068454 -0.7463625
vn -0.70980775 0.5855988 -0.39146772
vn -0.5768704 0.4627707 -0.6731001
vn -0.76177096 0.6469607 -0.033865552
vn -0.8803841 0.3167015 0.35302123
vn -0.70943695 0.6233143 0.32890496
vn -0.64349693 0.31824502 0.6961551
vn -0.5781892 0.53536767 0.6156936
vn -0.31831324 0.3805777 0.8682381
vn -0.31472078 0.6406516 0.70036876
vn -0 0.42617565 0.9046404
vn -0.37670928 0.85121393 0.36541066
vn -0.4203668 0.9065836 -0.03739008
vn -0.3777907 0.8195902 -0.43075055
vn -0.3136557 0.57476467 -0.7558212
vn -0.30216837 0.24975364 -0.91995513
vn -0.31882685 0.020407002 -0.9475932
vn -0.6591228 -0.15855306 -0.7351313
vn -0.32481232 -0.1971506 -0.92500186
vn -0 0.68142486 0.7318881
vn -0 0.91552705 0.40225634
vn -0 0.9992867 -0.037763044
vn -0 0.8850567 -0.4654832
vn -0 0.6194509 -0.7850354
vn 0.37779078 0.8195902 -0.43075073
vn 0.31472102 0.6406517 0.7003685
vn 0.31831348 0.38057792 0.8682379
vn 0.37670928 0.8512139 0.36541075
vn 0.42036676 0.9065835 -0.03739
vn 0.7098078 0.58559877 -0.39146775
vn 0.7617711 0.6469605 -0.03386542
vn 0.8803839 0.31670165 0.35302135
vn 0.70943683 0.6233144 0.32890514
vn 0.64349693 0.31824532 0.6961549
vn 0.5781892 0.53536797 0.61569345
vn -0.6870071 -0.638837 -0.34627792
vn -0.35666093 -0.8183832 -0.4506018
vn -0.35534233 -0.65152866 -0.6702553
vn -0.69408286 -0.5064208 -0.51165134
vn -0.9258088 -0.27744022 -0.2567197
vn -0.9189079 -0.3553027 -0.17137153
vn -0.99902046 -0.03783028 0.022959081
vn -0.99612856 -0.06205293 0.06226683
vn -0.69408286 -0.5064208 -0.51165134
vn -0.35534233 -0.65152866 -0.6702553
vn -0.33807477 -0.42821416 -0.8380561
vn -0.680052 -0.33718053 -0.65102893
vn -0.92222893 -0.18940933 -0.33707264
vn -0.9258088 -0.27744022 -0.2567197
vn -0.99902046 -0.03783028 0.022959081
vn -0.92484665 0.16543832 0.34247473
vn -0.99612856 -0.06205293 0.06226683
vn -0.91037595 0.2911197 0.2940495
vn -0.652007 0.61468464 0.44390276
vn -0.68639386 0.35567272 0.6343189
vn -0.3653684 0.4615229 0.8083951
vn -0.31606844 0.7843194 0.5338013
vn -0 0.4962719 0.86816716
vn -0 0.82385397 0.5668021
vn 0.3653684 0.46152303 0.80839497
vn 0.31606853 0.78431934 0.53380144
vn 0.68639404 0.35567266 0.6343188
vn 0.65200704 0.6146844 0.44390288
vn 0.91037595 0.2911198 0.2940493
vn 0.99612856 -0.06205293 0.06226672
vn -0 0.69695854 0.7171114
vn 0.32559586 0.6706767 0.6664684
vn 0.5967492 0.59433717 0.53912306
vn 0.89646035 0.35613874 0.263674
vn 0.98342186 -0.07802033 0.16368948
vn 0.88133425 0.323001 0.3448484
vn -0.32559562 0.6706767 0.66646856
vn -0 0.21860346 0.9758138
vn 0.9082794 -0.41176242 -0.07402748
vn 0.918908 -0.3553026 -0.17137153
vn 0.687007 -0.63883704 -0.3462781
vn 0.894652 -0.44674143 0.0044642375
vn 0.65801626 -0.72673273 -0.19716568
vn 0.35666087 -0.8183832 -0.4506018
vn 0.33553836 -0.90874916 -0.24817151
vn 0.8769297 -0.47365308 0.081529014
vn 0.62474895 -0.7775213 -0.07175999
vn 0.612659 -0.7902431 0.012842576
vn 0.31147796 -0.9454111 -0.095808856
vn 0.39720216 -0.9175591 -0.017768526
vn 0.36245543 -0.9138801 -0.1828912
vn 0.6947369 -0.712085 0.101367734
vn 0.4430126 -0.89236075 0.08621
vn 0.5318214 -0.7857087 -0.31595543
vn -0 -0.91413575 -0.40540808
vn -0 -0.9514028 -0.30794924
vn -0.3624555 -0.9138801 -0.1828912
vn 0.64449984 -0.75871664 0.09470468
vn 0.5067677 -0.7040818 0.4974488
vn 0.5480699 -0.66286546 0.5101263
vn -0 -0.9975262 0.07029557
vn -0.5318217 -0.7857085 -0.31595534
vn -0 -0.80498964 0.59328884
vn -0.6444997 -0.75871664 0.09470535
vn 0.41441414 -0.8070769 0.4205803
vn 0.61582327 -0.77836335 0.122115456
vn -0.69473714 -0.7120849 0.10136765
vn 0.57945246 -0.7594553 0.2957406
vn 0.8529382 -0.48109704 0.2025884
vn -0.5480692 -0.6628659 0.5101265
vn -0 -0.6997558 0.71438223
vn -0.50676745 -0.7040818 0.49744895
vn -0.41441435 -0.8070768 0.4205802
vn -0 -0.8160621 0.57796437
vn -0 -0.6482574 0.76142126
vn -0.4430126 -0.89236075 0.08620974
vn -0.39720178 -0.9175593 -0.017768418
vn -0.31147775 -0.9454112 -0.09580894
vn -0.61265856 -0.79024327 0.012842833
vn -0.62474865 -0.77752143 -0.07175988
vn -0.8769298 -0.47365293 0.081529
vn -0.8946521 -0.4467412 0.0044642636
vn -0.98342186 -0.07802029 0.16368936
vn -0.57945246 -0.7594553 0.29574046
vn -0.61582303 -0.7783636 0.122115545
vn -0.90827954 -0.4117623 -0.07402766
vn -0.9189079 -0.3553027 -0.17137153
vn -0.6580162 -0.7267326 -0.1971658
vn -0.6870071 -0.638837 -0.34627792
vn -0.33553827 -0.90874904 -0.24817152
vn -0.35666093 -0.8183832 -0.4506018
vn -0.8964605 0.3561388 0.26367387
vn -0.59674925 0.59433734 0.5391228
vn -0.8813341 0.32300106 0.34484828
vn -0.39292732 0.1984262 0.897906
vn -0.73823595 0.19387388 0.6460811
vn -0.787347 -0.14542708 0.5991123
vn -0.9482131 -0.09852175 0.30196914
vn -0.44062606 -0.18397859 0.87863564
vn -0 -0.20006979 0.9797816
vn -0.7267884 -0.5158138 0.45355773
vn -0.85293806 -0.4810974 0.20258851
vn -0.42398593 -0.5992285 0.6790885
vn 0.39292744 0.19842647 0.89790595
vn 0.44062594 -0.18397853 0.87863564
vn 0.7382358 0.19387417 0.6460811
vn 0.9482131 -0.098521635 0.30196935
vn 0.78734696 -0.1454268 0.59911245
vn 0.42398578 -0.59922856 0.6790885
vn 0.72678846 -0.5158137 0.45355785
vn -0.66666144 -0.71645373 0.2055637
vn -0.28906745 -0.7609131 -0.58090556
vn -0.78496397 -0.58777577 -0.1958344
vn 0.016674638 -0.9888271 -0.14813103
vn -0.5644385 -0.73425084 0.3772066
vn 0.573613 -0.7099749 -0.40853873
vn 0.23047431 -0.65613717 -0.7185859
vn 0.120740466 -0.99086374 -0.060089458
vn -0.36986446 -0.7491398 0.5495361
vn 0.71504104 -0.67050576 -0.19783413
vn 0.19035321 -0.98168176 -0.008154
vn 0.34901214 -0.72751415 0.5906891
vn 0.76617444 -0.64067703 0.050095595
vn -0.6580162 -0.7267326 -0.1971658
vn -0.90827954 -0.4117623 -0.07402766
vn -0.8946521 -0.4467412 0.0044642636
vn -0.62474865 -0.77752143 -0.07175988
vn -0.31147775 -0.9454112 -0.09580894
vn -0.33553827 -0.90874904 -0.24817152
vn -0 -0.9940785 -0.10866405
vn -0 -0.9655827 -0.26009628
vn 0.31147796 -0.9454111 -0.095808856
vn 0.33553836 -0.90874916 -0.24817151
vn 0.62474895 -0.7775213 -0.07175999
vn 0.65801626 -0.72673273 -0.19716568
vn 0.894652 -0.44674143 0.0044642375
vn 0.9082794 -0.41176242 -0.07402748
vn -0 -0.4206334 -0.9072307
vn -0 -0.4179376 -0.90847576
vn -0.9996902 0.021916667 -0.0118028205
vn 0.9996902 0.021916628 -0.011803085
vn -0.9994475 0.02780461 -0.01820954
vn 0.9994475 0.027804555 -0.018209448
vn -0 0.4710468 0.8821082
vn -0 0.4564619 0.889743
vn -0.23047376 -0.65613765 -0.7185856
vn -0.57361263 -0.7099762 -0.40853694
vn -0.016673796 -0.98882735 -0.14812952
vn 0.28906733 -0.7609141 -0.58090436
vn 0.7849615 -0.5877786 -0.19583604
vn 0.6666613 -0.7164535 0.20556523
vn -0.71504116 -0.6705058 -0.19783396
vn -0.1207404 -0.99086386 -0.06008887
vn 0.5644384 -0.73425144 0.37720588
vn 0.36986426 -0.749141 0.5495346
vn -0.1903529 -0.9816819 -0.008155629
vn -0.766174 -0.6406776 0.05009603
vn -0.34901217 -0.72751284 0.59069073
vn -0.98453355 0.15619072 -0.07936102
vn -0 -0.31554198 -0.9489116
vn -0 0.08398726 -0.9964669
vn 0.98453355 0.15619071 -0.07936091
vn 0.81975293 0.503964 -0.27207607
vn -0 0.5968272 0.80236983
vn -0 0.8807995 0.47348943
vn -0 0.8746285 -0.48479387
vn -0.819753 0.5039639 -0.27207616
vn -0 -0.99974066 -0.022772942
vn -0.9997408 0 -0.02276912
vn -0.9998029 0.0008622543 -0.019834254
vn -0 0.9997408 -0.022765653
vn 0.00019829383 -0.99980325 -0.019837722
vn 0.00019873411 0.99980336 -0.01982894
vn 0.999803 0.00086247723 -0.019831698
vn 0.9997408 0 -0.022767363
vn -0.9997812 -0.007211529 -0.019635132
vn -0.9997403 -0.00037533685 -0.022784255
vn -7.9672114E-05 0.9997385 -0.022867143
vn -7.64329E-05 -0.99974185 -0.02272245
vn 0.00044317378 0.99980885 -0.019550288
vn 0.00045045017 -0.99980634 -0.019675177
vn 0.9997404 -0.00037655645 -0.02277872
vn 0.99978215 -0.007218283 -0.019587666
vn 0.0011551921 -0.9865545 -0.16342872
vn -0.9993761 -0.00034021834 -0.03531904
vn -1.9070792E-05 -0.99938774 -0.034989256
vn 0.9994035 0.00023185738 -0.034532763
vn 0.9870963 0.0012757623 -0.16012242
vn -2.7016675E-05 0.9993924 -0.03485533
vn -0.00026037413 0.98670864 -0.16249944
vn -0.9861108 -0.0019543457 -0.16607739
vn 0.7946427 0.0029543443 -0.6070703
vn 0.012798381 -0.7925936 -0.6096158
vn -0.7912747 -0.0036274642 -0.6114501
vn -0.00024326767 0.7933688 -0.6087413
vn 0.0005898466 0.00021458326 -0.9999999
vn 0.9997812 -0.007211582 -0.019635143
vn 7.975275E-05 0.9997385 -0.022867149
vn 0.9997403 -0.0003751756 -0.022784304
vn 7.656719E-05 -0.99974185 -0.02272251
vn -0.00044295908 0.99980885 -0.019550294
vn -0.00045034135 -0.99980634 -0.019675136
vn -0.9997404 -0.0003766371 -0.022778742
vn -0.99978215 -0.007218283 -0.019587616
vn -0.44979998 -0.86623925 0.21750769
vn -0.44971943 -0.8656549 0.21998645
vn -0.45080617 -0.8655248 0.2182672
vn -0.44830966 -0.8666114 0.21909592
vn -0.4518917 -0.8645061 0.22005254
vn -0.44752058 -0.8668149 0.21990283
vn -0.4511417 -0.8646927 0.22085664
vn -0.44861352 -0.8657849 0.2217258
vn -0.4496517 -0.86505187 0.22248276
vn 0.44979835 -0.8662402 0.21750686
vn 0.45080504 -0.8655255 0.21826696
vn 0.4497186 -0.8656554 0.21998598
vn 0.44830844 -0.8666123 0.2190948
vn 0.45189103 -0.8645062 0.2200535
vn 0.4475204 -0.8668153 0.21990158
vn 0.45114166 -0.8646925 0.22085755
vn 0.44861278 -0.8657857 0.22172442
vn 0.44965094 -0.8650525 0.22248206
vn -0.78496397 -0.58777577 -0.1958344
vn -0.8830038 0.3632955 0.297188
vn -0.66666144 -0.71645373 0.2055637
vn -0.5644385 -0.73425084 0.3772066
vn -0.9391217 0.19767512 -0.28102478
vn -0.28906745 -0.7609131 -0.58090556
vn -0.4846153 -0.030027455 -0.87421185
vn 0.23047431 -0.65613717 -0.7185859
vn -0.35561255 0.69029784 -0.63010204
vn -0.7558366 0.33254695 0.56402445
vn -0.36986446 -0.7491398 0.5495361
vn 0.25888917 0.09528911 -0.9611953
vn -0.083784886 0.97431266 -0.20903303
vn 0.74644023 0.2661677 -0.60990304
vn 0.573613 -0.7099749 -0.40853873
vn 0.9332997 0.29172447 -0.20940024
vn 0.71504104 -0.67050576 -0.19783413
vn -0.5208889 0.18856966 0.8325359
vn 0.34901214 -0.72751415 0.5906891
vn 0.08928447 0.9786522 0.18511693
vn 0.94764775 0.21537015 0.23575294
vn 0.76617444 -0.64067703 0.050095595
vn 0.36352617 0.07655519 0.9284332
vn 0.17463543 0.8534526 0.49104092
vn 0.36986426 -0.749141 0.5495346
vn 0.75583696 0.33254674 0.56402415
vn 0.5644384 -0.73425144 0.37720588
vn 0.6666613 -0.7164535 0.20556523
vn 0.88300365 0.3632941 0.2971901
vn 0.7849615 -0.5877786 -0.19583604
vn 0.9391217 0.19767372 -0.28102592
vn 0.28906733 -0.7609141 -0.58090436
vn 0.3556139 0.69029874 -0.63010037
vn 0.48461494 -0.030025685 -0.8742121
vn -0.25888842 0.09528915 -0.9611955
vn -0.23047376 -0.65613765 -0.7185856
vn -0.57361263 -0.7099762 -0.40853694
vn 0.08378344 0.97431266 -0.20903365
vn -0.7464412 0.26616722 -0.6099022
vn -0.08928453 0.9786523 0.18511647
vn -0.93329984 0.29172438 -0.20940015
vn -0.71504116 -0.6705058 -0.19783396
vn -0.766174 -0.6406776 0.05009603
vn 0.52088976 0.18857035 0.83253527
vn -0.9476473 0.21537122 0.23575377
vn -0.34901217 -0.72751284 0.59069073
vn -0.17463411 0.85345364 0.49103948
vn -0.36352655 0.076556586 0.9284328
vn 0.82919216 0.49453768 -0.2605242
vn 0.97603184 0.09898641 -0.19381316
vn 0.9921251 0.12300829 -0.023597483
vn 0.093126856 -0.13674043 -0.98621976
vn 0.48275208 0.81370217 -0.32378885
vn 0.006113603 0.67425233 -0.73847574
vn -0.016755681 -0.16290648 -0.9864993
vn 0.987767 0.15308195 0.029703239
vn -0.10691044 -0.13088228 -0.98561656
vn 0.07489755 0.26023743 -0.9626354
vn 0.8314432 0.55129325 -0.06912307
vn 0.001373865 0.9873842 0.15833674
vn -0.4634971 0.82387394 -0.32619348
vn 0.080554575 0.41021317 0.9084251
vn 0.073380865 0.7892389 0.6096861
vn -0.025697375 0.3990932 0.91655016
vn -0.11911852 0.4072509 0.905515
vn -0.10021556 0.7874388 0.60819155
vn -0.9898642 0.14174071 0.008854171
vn -0.82940763 0.5501086 -0.09728048
vn -0.99225956 0.122968055 -0.017313218
vn -0.8246271 0.51297975 -0.23841572
vn -0.980257 0.11166013 -0.16318186
vn -0.09373972 0.26273963 -0.9603025
vn -0.9993698 0.030008152 -0.01896366
vn -0 -0.4206334 -0.9072307
vn -0.9994475 0.02780461 -0.01820954
vn -0 0.4710468 0.8821082
vn -0 -0.43369454 -0.90106
vn -0 0.48617724 0.8738603
vn 0.9993698 0.030008066 -0.0189639
vn 0.9994475 0.027804555 -0.018209448
vn 0.08066232 0.17795382 -0.9807273
vn 0.24929133 0.93446344 0.25422826
vn -0.5700705 0.2571908 -0.7803029
vn -0.14082716 -0.9780383 -0.15365124
vn 0.6565323 0.7330901 -0.17760672
vn 0.57896644 -0.31200165 0.7532946
vn 0.89816695 -0.27173576 0.34562394
vn 0.28989214 -0.8269324 -0.48181477
vn 0.4275251 -0.009481241 -0.9039538
vn 0.1544871 0.98293984 0.09981532
vn -0.19576119 0.06399964 -0.9785609
vn -0.12024449 -0.9916026 -0.04759782
vn 0.7101249 0.70159954 -0.05899799
vn 0.20792745 -0.14151436 0.9678533
vn 0.41588134 -0.8940625 -0.16641754
vn 0.7014072 -0.16684133 0.6929587
vn -0.59386355 -0.80098206 -0.07585443
vn -0 -0.5633616 -0.82621044
vn -0.8076711 -0.5834854 -0.08492465
vn -0.570146 -0.49987534 0.65196484
vn -0.4493713 -0.6476705 0.6152954
vn -0 -0.42592764 0.90475726
vn -0 -0.790073 -0.61301273
vn -0 -0.9847152 0.17417245
vn 0.593863 -0.8009824 -0.075854965
vn 0.8076709 -0.5834856 -0.08492522
vn -0 -0.68545395 0.72811604
vn 0.44937074 -0.64767027 0.61529595
vn 0.57014585 -0.49987504 0.6519653
vn -0.71930534 -0.1290117 0.68260956
vn -0.8762792 -0.44988763 0.1724415
vn -0.98291093 -0.13448144 0.12570186
vn -0.83457094 -0.33405307 -0.43806383
vn -0.69244254 -0.46259198 0.55365336
vn -0.46663254 -0.8602716 0.20539466
vn -0.19954021 -0.37307933 0.906088
vn -0.33198935 -0.6156665 0.7146592
vn 0.28689632 -0.6756277 0.6791301
vn -0.008257476 -0.8342741 0.551288
vn 0.42279926 -0.8981303 0.12084192
vn 0.100415915 -0.9804765 0.16906346
vn 0.17162995 -0.8806717 -0.44154337
vn -0.08663448 -0.97369736 -0.2107323
vn -0.3605723 -0.6595338 -0.6595474
vn -0.44387472 -0.8146979 -0.37315226
vn -0.7708189 -0.6020142 -0.20836748
vn 0.7193046 -0.1290132 0.68261003
vn 0.9829108 -0.1344815 0.12570189
vn 0.8762789 -0.44988823 0.17244077
vn 0.83457094 -0.33405268 -0.43806407
vn 0.69244164 -0.4625931 0.5536534
vn 0.46663213 -0.86027175 0.20539464
vn 0.19954087 -0.37308154 0.9060869
vn 0.33198988 -0.61566716 0.7146584
vn -0.28689235 -0.67562985 0.6791297
vn 0.008260119 -0.8342749 0.5512868
vn -0.42279702 -0.89813125 0.12084256
vn -0.100414395 -0.9804765 0.1690642
vn -0.17163037 -0.8806719 -0.44154274
vn 0.08663477 -0.97369736 -0.21073213
vn 0.36057258 -0.65953285 -0.65954816
vn 0.4438744 -0.81469786 -0.3731528
vn 0.7708187 -0.6020146 -0.20836747
vn -1.9070792E-05 -0.99938774 -0.034989256
vn -0.9993761 -0.00034021834 -0.03531904
vn -0.9997408 0 -0.022767331
vn -2.7016675E-05 0.9993924 -0.03485533
vn -0 -0.99974066 -0.022772893
vn -0 0.9997408 -0.022765651
vn 0.9997408 0 -0.022769105
vn 0.9994035 0.00023185738 -0.034532763
vn -0 0.4601942 0.8878183
vn -0 0.49029192 0.87155825
vn 0.9986915 0.04624024 -0.021846654
vn 0.9996928 0.022876076 -0.009535669
vn -0.9996928 0.022875862 -0.009536187
vn -0 -0.40951714 -0.91230243
vn -0.9986914 0.04624036 -0.021846915
vn -0 -0.42153713 -0.9068112
vn -0 -0.43369454 -0.90106
vn 0.9994259 0.025733626 -0.022040537
vn 0.9993698 0.030008066 -0.0189639
vn -0 -0.44251087 -0.8967632
vn -0 0.49050856 0.8714364
vn -0.9993698 0.030008152 -0.01896366
vn -0 0.48617724 0.8738603
vn -0.9994259 0.025733657 -0.022040416
vn -0.9996902 0.021916667 -0.0118028205
vn -0 0.4601942 0.8878183
vn -0 0.4564619 0.889743
vn -0.9996928 0.022875862 -0.009536187
vn 0.9996928 0.022876076 -0.009535669
vn -0 -0.4179376 -0.90847576
vn 0.9996902 0.021916628 -0.011803085
vn -0 -0.42153713 -0.9068112
vn -0.9986914 0.04624036 -0.021846915
vn -0.98453355 0.15619072 -0.07936102
vn -0 0.5968272 0.80236983
vn -0 0.49029192 0.87155825
vn -0 -0.40951714 -0.91230243
vn 0.98453355 0.15619071 -0.07936091
vn -0 -0.31554198 -0.9489116
vn 0.9986915 0.04624024 -0.021846654
vn -0.9994035 0.00023172269 -0.03453276
vn 0.00026041648 0.98670864 -0.1624996
vn 2.6720389E-05 0.9993924 -0.03485533
vn -0.9870963 0.0012765983 -0.1601225
vn 1.8963046E-05 -0.99938774 -0.03498917
vn 0.9861108 -0.0019542181 -0.16607715
vn 0.9993761 -0.00034008364 -0.03531896
vn -0.0011554337 -0.9865545 -0.16342834
vn -0.012798587 -0.7925938 -0.60961574
vn 0.7912748 -0.0036271096 -0.61144996
vn 0.00024338732 0.7933688 -0.6087413
vn -0.79464257 0.0029536355 -0.60707027
vn -0.00059020467 0.00021457764 -0.9999999
vn -0.99938595 -0.00035498358 -0.035036404
vn -0.9868396 -9.670299E-05 -0.16170214
vn 7.516852E-05 0.9864674 -0.16395721
vn -0.000109897155 0.99936324 -0.035680987
vn -0.00011599936 -0.999371 -0.035465196
vn 0.9857072 -0.003326287 -0.16843434
vn 0.9993498 -0.0009411913 -0.036043447
vn -0.0013638705 -0.986212 -0.16548117
vn -0.012987577 -0.7912211 -0.6113923
vn 0.7902933 -0.005006404 -0.61270833
vn 5.932196E-05 0.7932067 -0.6089526
vn -0.79399216 0.0015505875 -0.6079261
vn -0.00058447465 0.00078494055 -0.9999995
vn -0.0001988424 0.99980336 -0.019828938
vn -0 0.9997408 -0.022765651
vn 0.9997408 0 -0.022769105
vn 0.9998029 0.0008623085 -0.019834226
vn -0.999803 0.00086247723 -0.019831643
vn -0 -0.99974066 -0.022772893
vn -0.9997408 0 -0.022767331
vn -0.00019807761 -0.99980325 -0.01983764
vn -7.5225355E-05 0.9864674 -0.16395721
vn 0.9868396 -9.6773896E-05 -0.16170207
vn 0.99938595 -0.00035501047 -0.035036415
vn 0.00010989717 0.99936324 -0.035681058
vn 0.00011637631 -0.999371 -0.035465214
vn -0.9857072 -0.0033268856 -0.16843423
vn -0.9993498 -0.00094138004 -0.036043525
vn 0.0013637003 -0.986212 -0.16548097
vn -0.7902934 -0.005006501 -0.61270815
vn -5.9385715E-05 0.7932067 -0.6089526
vn 0.7939922 0.0015500775 -0.60792595
vn 0.0005844466 0.0007850917 -0.9999995
vn 0.012987808 -0.79122114 -0.6113923
vn -0.6565312 0.73309094 -0.17760761
vn -0.24929419 0.9344635 0.2542252
vn -0.5789629 -0.31200552 0.75329584
vn -0.8981654 -0.27173886 0.3456254
vn 0.14083 -0.9780382 -0.15364963
vn -0.28989357 -0.82693183 -0.48181468
vn 0.57006806 0.25718483 -0.7803066
vn -0.08066499 0.17794947 -0.9807279
vn 0.12024701 -0.9916021 -0.04760047
vn -0.7014059 -0.16684045 0.6929604
vn -0.20792747 -0.14151834 0.9678526
vn -0.4158834 -0.8940609 -0.16642116
vn 0.19576263 0.06399843 -0.9785607
vn -0.71012396 0.7016003 -0.058999125
vn -0.15448816 0.98293984 0.09981372
vn -0.42752564 -0.009478756 -0.9039536
vn -0.9997408 0 -0.02276912
vn -0.9994035 0.00023172269 -0.03453276
vn 2.6720389E-05 0.9993924 -0.03485533
vn -0 0.9997408 -0.022765653
vn -0 -0.99974066 -0.022772942
vn 0.9993761 -0.00034008364 -0.03531896
vn 1.8963046E-05 -0.99938774 -0.03498917
vn 0.9997408 0 -0.022767363
vn -0.9997403 -0.00037533685 -0.022784255
vn -0.99938595 -0.00035498358 -0.035036404
vn -0.000109897155 0.99936324 -0.035680987
vn -7.9672114E-05 0.9997385 -0.022867143
vn -7.64329E-05 -0.99974185 -0.02272245
vn 0.9993498 -0.0009411913 -0.036043447
vn -0.00011599936 -0.999371 -0.035465196
vn 0.9997404 -0.00037655645 -0.02277872
vn 0.99938595 -0.00035501047 -0.035036415
vn 0.9997403 -0.0003751756 -0.022784304
vn 7.975275E-05 0.9997385 -0.022867149
vn 0.00010989717 0.99936324 -0.035681058
vn 0.00011637631 -0.999371 -0.035465214
vn -0.9997404 -0.0003766371 -0.022778742
vn 7.656719E-05 -0.99974185 -0.02272251
vn -0.9993498 -0.00094138004 -0.036043525
g Cat_LOD2_0
f 3/3/3 2/2/2 1/1/1
f 4/4/4 3/3/3 1/1/1
f 4/4/4 1/1/1 5/5/5
f 6/6/6 4/4/4 5/5/5
f 6/6/6 5/5/5 7/7/7
f 5/5/5 8/8/8 7/7/7
f 7/7/7 8/8/8 9/9/9
f 8/8/8 10/10/10 9/9/9
f 10/10/10 11/11/11 9/9/9
f 11/11/11 12/12/12 9/9/9
f 11/11/11 13/13/13 12/12/12
f 13/13/13 14/14/14 12/12/12
f 14/14/14 13/13/13 15/15/15
f 16/16/16 14/14/14 15/15/15
f 16/16/16 15/15/15 17/17/17
f 18/18/18 16/16/16 17/17/17
f 21/21/21 20/20/20 19/19/19
f 22/22/22 21/21/21 19/19/19
f 22/22/22 19/19/19 23/23/23
f 24/24/24 22/22/22 23/23/23
f 24/24/24 23/23/23 25/25/25
f 23/23/23 26/26/26 25/25/25
f 25/25/25 26/26/26 27/27/27
f 26/26/26 28/28/28 27/27/27
f 28/28/28 29/29/29 27/27/27
f 29/29/29 30/30/30 27/27/27
f 29/29/29 31/31/31 30/30/30
f 31/31/31 32/32/32 30/30/30
f 32/32/32 31/31/31 33/33/33
f 34/34/34 32/32/32 33/33/33
f 34/34/34 33/33/33 35/35/35
f 36/36/36 34/34/34 35/35/35
f 39/39/39 38/38/38 37/37/37
f 40/40/40 39/39/39 37/37/37
f 40/40/40 37/37/37 41/41/41
f 39/39/39 40/40/40 42/42/42
f 43/43/43 39/39/39 42/42/42
f 42/42/42 40/40/40 44/44/44
f 45/45/45 40/40/40 41/41/41
f 40/40/40 45/45/45 44/44/44
f 45/45/45 41/41/41 46/46/46
f 44/44/44 45/45/45 47/47/47
f 48/48/48 45/45/45 46/46/46
f 45/45/45 48/48/48 47/47/47
f 48/48/48 46/46/46 49/49/49
f 47/47/47 48/48/48 50/50/50
f 51/51/51 48/48/48 49/49/49
f 48/48/48 51/51/51 50/50/50
f 51/51/51 49/49/49 52/52/52
f 50/50/50 51/51/51 53/53/53
f 54/54/54 51/51/51 52/52/52
f 51/51/51 54/54/54 53/53/53
f 54/54/54 52/52/52 55/55/55
f 53/53/53 54/54/54 56/56/56
f 57/57/57 54/54/54 55/55/55
f 54/54/54 57/57/57 56/56/56
f 57/57/57 55/55/55 58/58/58
f 59/59/59 57/57/57 58/58/58
f 56/56/56 57/57/57 59/59/59
f 60/60/60 56/56/56 59/59/59
f 63/63/63 62/62/62 61/61/61
f 64/64/64 63/63/63 61/61/61
f 63/63/63 64/64/64 65/65/65
f 66/66/66 63/63/63 65/65/65
f 69/69/69 68/68/68 67/67/67
f 68/68/68 70/70/70 67/67/67
f 68/68/68 71/71/71 70/70/70
f 71/71/71 72/72/72 70/70/70
f 73/73/73 72/72/72 71/71/71
f 74/74/74 73/73/73 71/71/71
f 75/75/75 73/73/73 74/74/74
f 76/76/76 75/75/75 74/74/74
f 79/79/79 78/78/78 77/77/77
f 80/80/80 79/79/79 77/77/77
f 81/81/81 79/79/79 80/80/80
f 82/82/82 81/81/81 80/80/80
f 81/81/81 82/82/82 83/83/83
f 82/82/82 84/84/84 83/83/83
f 83/83/83 84/84/84 85/85/85
f 84/84/84 86/86/86 85/85/85
f 89/89/89 88/88/88 87/87/87
f 88/88/88 90/90/90 87/87/87
f 87/87/87 90/90/90 91/91/91
f 90/90/90 92/92/92 91/91/91
f 91/91/91 92/92/92 93/93/93
f 92/92/92 94/94/94 93/93/93
f 97/97/97 96/96/96 95/95/95
f 96/96/96 98/98/98 95/95/95
f 95/95/95 98/98/98 99/99/99
f 96/96/96 100/100/100 98/98/98
f 98/98/98 101/101/101 99/99/99
f 99/99/99 101/101/101 102/102/102
f 100/100/100 103/103/103 98/98/98
f 100/100/100 104/104/104 103/103/103
f 101/101/101 98/98/98 105/105/105
f 98/98/98 103/103/103 105/105/105
f 104/104/104 106/106/106 103/103/103
f 104/104/104 107/107/107 106/106/106
f 105/105/105 103/103/103 108/108/108
f 103/103/103 106/106/106 108/108/108
f 107/107/107 109/109/109 106/106/106
f 107/107/107 110/110/110 109/109/109
f 106/106/106 109/109/109 111/111/111
f 108/108/108 106/106/106 111/111/111
f 110/110/110 112/112/112 109/109/109
f 111/111/111 109/109/109 112/112/112
f 101/101/101 113/113/113 102/102/102
f 113/113/113 101/101/101 114/114/114
f 101/101/101 105/105/105 114/114/114
f 102/102/102 113/113/113 115/115/115
f 105/105/105 108/108/108 116/116/116
f 114/114/114 105/105/105 116/116/116
f 114/114/114 116/116/116 117/117/117
f 118/118/118 114/114/114 117/117/117
f 116/116/116 108/108/108 119/119/119
f 108/108/108 111/111/111 119/119/119
f 118/118/118 117/117/117 120/120/120
f 121/121/121 118/118/118 120/120/120
f 121/121/121 120/120/120 122/122/122
f 120/120/120 123/123/123 122/122/122
f 122/122/122 123/123/123 124/124/124
f 123/123/123 125/125/125 124/124/124
f 125/125/125 126/126/126 124/124/124
f 126/126/126 127/127/127 124/124/124
f 126/126/126 128/128/128 127/127/127
f 128/128/128 129/129/129 127/127/127
f 129/129/129 128/128/128 130/130/130
f 131/131/131 129/129/129 130/130/130
f 131/131/131 130/130/130 132/132/132
f 133/133/133 131/131/131 132/132/132
f 133/133/133 132/132/132 134/134/134
f 135/135/135 133/133/133 134/134/134
f 136/136/136 133/133/133 135/135/135
f 134/134/134 132/132/132 137/137/137
f 132/132/132 138/138/138 137/137/137
f 135/135/135 134/134/134 139/139/139
f 134/134/134 137/137/137 140/140/140
f 139/139/139 134/134/134 140/140/140
f 137/137/137 138/138/138 141/141/141
f 140/140/140 137/137/137 142/142/142
f 137/137/137 141/141/141 142/142/142
f 138/138/138 143/143/143 141/141/141
f 138/138/138 144/144/144 143/143/143
f 144/144/144 145/145/145 143/143/143
f 144/144/144 146/146/146 145/145/145
f 146/146/146 147/147/147 145/145/145
f 147/147/147 146/146/146 148/148/148
f 149/149/149 147/147/147 148/148/148
f 147/147/147 149/149/149 145/145/145
f 149/149/149 148/148/148 150/150/150
f 145/145/145 151/151/151 143/143/143
f 149/149/149 151/151/151 145/145/145
f 143/143/143 152/152/152 141/141/141
f 151/151/151 152/152/152 143/143/143
f 141/141/141 153/153/153 142/142/142
f 152/152/152 153/153/153 141/141/141
f 142/142/142 154/154/154 140/140/140
f 153/153/153 154/154/154 142/142/142
f 154/154/154 155/155/155 140/140/140
f 140/140/140 155/155/155 139/139/139
f 155/155/155 156/156/156 139/139/139
f 139/139/139 156/156/156 157/157/157
f 157/157/157 135/135/135 139/139/139
f 156/156/156 158/158/158 157/157/157
f 149/149/149 159/159/159 151/151/151
f 159/159/159 149/149/149 150/150/150
f 151/151/151 160/160/160 152/152/152
f 159/159/159 160/160/160 151/151/151
f 152/152/152 161/161/161 153/153/153
f 160/160/160 161/161/161 152/152/152
f 153/153/153 162/162/162 154/154/154
f 161/161/161 162/162/162 153/153/153
f 162/162/162 163/163/163 154/154/154
f 163/163/163 162/162/162 110/110/110
f 162/162/162 164/164/164 110/110/110
f 162/162/162 161/161/161 164/164/164
f 110/110/110 164/164/164 112/112/112
f 165/165/165 159/159/159 150/150/150
f 166/166/166 165/165/165 150/150/150
f 160/160/160 159/159/159 167/167/167
f 159/159/159 165/165/165 167/167/167
f 161/161/161 160/160/160 168/168/168
f 161/161/161 168/168/168 164/164/164
f 160/160/160 167/167/167 168/168/168
f 164/164/164 169/169/169 112/112/112
f 164/164/164 168/168/168 169/169/169
f 169/169/169 111/111/111 112/112/112
f 119/119/119 111/111/111 169/169/169
f 168/168/168 170/170/170 169/169/169
f 170/170/170 119/119/119 169/169/169
f 168/168/168 167/167/167 170/170/170
f 171/171/171 119/119/119 170/170/170
f 167/167/167 172/172/172 170/170/170
f 172/172/172 171/171/171 170/170/170
f 167/167/167 165/165/165 172/172/172
f 173/173/173 171/171/171 172/172/172
f 174/174/174 165/165/165 166/166/166
f 165/165/165 174/174/174 172/172/172
f 173/173/173 174/174/174 166/166/166
f 174/174/174 173/173/173 172/172/172
f 177/177/177 176/176/176 175/175/175
f 178/178/178 177/177/177 175/175/175
f 178/178/178 175/175/175 179/179/179
f 175/175/175 180/180/180 179/179/179
f 179/179/179 180/180/180 181/181/181
f 180/180/180 182/182/182 181/181/181
f 185/185/185 184/184/184 183/183/183
f 186/186/186 185/185/185 183/183/183
f 158/158/158 185/185/185 186/186/186
f 157/157/157 158/158/158 186/186/186
f 186/186/186 183/183/183 187/187/187
f 186/186/186 187/187/187 157/157/157
f 187/187/187 135/135/135 157/157/157
f 183/183/183 188/188/188 187/187/187
f 187/187/187 136/136/136 135/135/135
f 187/187/187 188/188/188 136/136/136
f 188/188/188 189/189/189 136/136/136
f 136/136/136 189/189/189 190/190/190
f 189/189/189 191/191/191 190/190/190
f 191/191/191 192/192/192 190/190/190
f 192/192/192 193/193/193 190/190/190
f 193/193/193 194/194/194 190/190/190
f 195/195/195 194/194/194 193/193/193
f 196/196/196 195/195/195 193/193/193
f 197/197/197 195/195/195 196/196/196
f 198/198/198 197/197/197 196/196/196
f 199/199/199 197/197/197 198/198/198
f 200/200/200 199/199/199 198/198/198
f 201/201/201 199/199/199 200/200/200
f 202/202/202 201/201/201 200/200/200
f 115/115/115 201/201/201 202/202/202
f 203/203/203 115/115/115 202/202/202
f 115/115/115 203/203/203 102/102/102
f 203/203/203 204/204/204 102/102/102
f 198/198/198 196/196/196 205/205/205
f 200/200/200 198/198/198 206/206/206
f 198/198/198 205/205/205 206/206/206
f 202/202/202 200/200/200 207/207/207
f 200/200/200 206/206/206 207/207/207
f 208/208/208 203/203/203 202/202/202
f 202/202/202 207/207/207 208/208/208
f 203/203/203 208/208/208 209/209/209
f 204/204/204 203/203/203 209/209/209
f 207/207/207 210/210/210 208/208/208
f 196/196/196 211/211/211 205/205/205
f 211/211/211 196/196/196 193/193/193
f 206/206/206 205/205/205 212/212/212
f 205/205/205 211/211/211 212/212/212
f 213/213/213 204/204/204 209/209/209
f 213/213/213 214/214/214 204/204/204
f 215/215/215 214/214/214 213/213/213
f 216/216/216 213/213/213 209/209/209
f 217/217/217 215/215/215 213/213/213
f 218/218/218 215/215/215 217/217/217
f 219/219/219 218/218/218 217/217/217
f 209/209/209 220/220/220 216/216/216
f 221/221/221 216/216/216 220/220/220
f 222/222/222 221/221/221 220/220/220
f 223/223/223 221/221/221 222/222/222
f 224/224/224 223/223/223 222/222/222
f 225/225/225 223/223/223 224/224/224
f 225/225/225 224/224/224 226/226/226
f 224/224/224 227/227/227 226/226/226
f 228/228/228 225/225/225 226/226/226
f 228/228/228 229/229/229 225/225/225
f 229/229/229 230/230/230 225/225/225
f 230/230/230 229/229/229 231/231/231
f 232/232/232 228/228/228 226/226/226
f 229/229/229 228/228/228 232/232/232
f 226/226/226 227/227/227 233/233/233
f 234/234/234 232/232/232 226/226/226
f 233/233/233 234/234/234 226/226/226
f 235/235/235 229/229/229 232/232/232
f 235/235/235 232/232/232 234/234/234
f 229/229/229 236/236/236 231/231/231
f 236/236/236 229/229/229 235/235/235
f 237/237/237 235/235/235 234/234/234
f 237/237/237 234/234/234 233/233/233
f 238/238/238 236/236/236 235/235/235
f 238/238/238 235/235/235 237/237/237
f 227/227/227 239/239/239 233/233/233
f 227/227/227 240/240/240 239/239/239
f 231/231/231 236/236/236 241/241/241
f 236/236/236 238/238/238 241/241/241
f 240/240/240 242/242/242 239/239/239
f 240/240/240 243/243/243 242/242/242
f 244/244/244 238/238/238 237/237/237
f 245/245/245 237/237/237 233/233/233
f 244/244/244 237/237/237 245/245/245
f 238/238/238 244/244/244 246/246/246
f 241/241/241 238/238/238 246/246/246
f 246/246/246 244/244/244 245/245/245
f 241/241/241 246/246/246 247/247/247
f 247/247/247 246/246/246 245/245/245
f 248/248/248 245/245/245 233/233/233
f 239/239/239 248/248/248 233/233/233
f 248/248/248 247/247/247 245/245/245
f 249/249/249 248/248/248 239/239/239
f 248/248/248 249/249/249 247/247/247
f 231/231/231 241/241/241 250/250/250
f 250/250/250 241/241/241 247/247/247
f 251/251/251 231/231/231 250/250/250
f 252/252/252 231/231/231 251/251/251
f 252/252/252 251/251/251 253/253/253
f 254/254/254 252/252/252 253/253/253
f 253/253/253 255/255/255 254/254/254
f 255/255/255 256/256/256 254/254/254
f 256/256/256 255/255/255 257/257/257
f 250/250/250 247/247/247 258/258/258
f 259/259/259 250/250/250 258/258/258
f 256/256/256 257/257/257 191/191/191
f 260/260/260 256/256/256 191/191/191
f 191/191/191 257/257/257 192/192/192
f 261/261/261 260/260/260 191/191/191
f 262/262/262 260/260/260 261/261/261
f 263/263/263 262/262/262 261/261/261
f 262/262/262 263/263/263 264/264/264
f 263/263/263 265/265/265 264/264/264
f 257/257/257 266/266/266 192/192/192
f 266/266/266 193/193/193 192/192/192
f 193/193/193 266/266/266 267/267/267
f 267/267/267 211/211/211 193/193/193
f 266/266/266 268/268/268 267/267/267
f 211/211/211 267/267/267 269/269/269
f 211/211/211 269/269/269 212/212/212
f 270/270/270 267/267/267 268/268/268
f 267/267/267 270/270/270 269/269/269
f 271/271/271 270/270/270 268/268/268
f 272/272/272 271/271/271 268/268/268
f 269/269/269 270/270/270 273/273/273
f 270/270/270 271/271/271 273/273/273
f 212/212/212 269/269/269 274/274/274
f 269/269/269 273/273/273 274/274/274
f 275/275/275 271/271/271 272/272/272
f 276/276/276 275/275/275 272/272/272
f 276/276/276 259/259/259 275/275/275
f 259/259/259 258/258/258 275/275/275
f 271/271/271 275/275/275 277/277/277
f 277/277/277 275/275/275 258/258/258
f 273/273/273 271/271/271 277/277/277
f 247/247/247 277/277/277 258/258/258
f 249/249/249 277/277/277 247/247/247
f 273/273/273 277/277/277 249/249/249
f 274/274/274 273/273/273 249/249/249
f 278/278/278 212/212/212 274/274/274
f 278/278/278 206/206/206 212/212/212
f 207/207/207 206/206/206 278/278/278
f 279/279/279 274/274/274 249/249/249
f 279/279/279 278/278/278 274/274/274
f 280/280/280 207/207/207 278/278/278
f 280/280/280 278/278/278 279/279/279
f 280/280/280 210/210/210 207/207/207
f 210/210/210 280/280/280 281/281/281
f 280/280/280 282/282/282 281/281/281
f 282/282/282 280/280/280 279/279/279
f 281/281/281 282/282/282 243/243/243
f 283/283/283 279/279/279 249/249/249
f 282/282/282 279/279/279 283/283/283
f 283/283/283 249/249/249 239/239/239
f 283/283/283 239/239/239 242/242/242
f 282/282/282 284/284/284 243/243/243
f 243/243/243 284/284/284 242/242/242
f 284/284/284 283/283/283 242/242/242
f 284/284/284 282/282/282 283/283/283
f 287/287/287 286/286/286 285/285/285
f 286/286/286 288/288/288 285/285/285
f 285/285/285 288/288/288 289/289/289
f 288/288/288 286/286/286 290/290/290
f 286/286/286 291/291/291 290/290/290
f 288/288/288 292/292/292 289/289/289
f 288/288/288 290/290/290 292/292/292
f 289/289/289 292/292/292 293/293/293
f 290/290/290 294/294/294 292/292/292
f 292/292/292 295/295/295 293/293/293
f 292/292/292 294/294/294 295/295/295
f 293/293/293 295/295/295 296/296/296
f 294/294/294 297/297/297 295/295/295
f 295/295/295 297/297/297 296/296/296
f 300/300/300 299/299/299 298/298/298
f 301/301/301 300/300/300 298/298/298
f 301/301/301 298/298/298 302/302/302
f 298/298/298 303/303/303 302/302/302
f 302/302/302 303/303/303 304/304/304
f 303/303/303 305/305/305 304/304/304
f 304/304/304 305/305/305 306/306/306
f 305/305/305 307/307/307 306/306/306
f 306/306/306 307/307/307 308/308/308
f 307/307/307 309/309/309 308/308/308
f 308/308/308 309/309/309 310/310/310
f 309/309/309 311/311/311 310/310/310
f 314/314/314 313/313/313 312/312/312
f 313/313/313 315/315/315 312/312/312
f 316/316/316 314/314/314 312/312/312
f 315/315/315 317/317/317 312/312/312
f 314/314/314 316/316/316 318/318/318
f 315/315/315 319/319/319 317/317/317
f 319/319/319 314/314/314 318/318/318
f 319/319/319 318/318/318 317/317/317
f 322/322/322 321/321/321 320/320/320
f 323/323/323 322/322/322 320/320/320
f 322/322/322 323/323/323 324/324/324
f 325/325/325 322/322/322 324/324/324
f 321/321/321 322/322/322 326/326/326
f 327/327/327 322/322/322 325/325/325
f 322/322/322 327/327/327 326/326/326
f 328/328/328 327/327/327 325/325/325
f 328/328/328 329/329/329 327/327/327
f 327/327/327 330/330/330 326/326/326
f 329/329/329 330/330/330 327/327/327
f 330/330/330 331/331/331 326/326/326
f 329/329/329 332/332/332 330/330/330
f 330/330/330 332/332/332 331/331/331
f 335/335/335 334/334/334 333/333/333
f 334/334/334 335/335/335 336/336/336
f 335/335/335 337/337/337 336/336/336
f 336/336/336 337/337/337 338/338/338
f 338/338/338 339/339/339 333/333/333
f 337/337/337 339/339/339 338/338/338
f 335/335/335 340/340/340 337/337/337
f 337/337/337 340/340/340 339/339/339
f 341/341/341 335/335/335 333/333/333
f 339/339/339 341/341/341 333/333/333
f 335/335/335 341/341/341 340/340/340
f 340/340/340 341/341/341 339/339/339
f 344/344/344 343/343/343 342/342/342
f 345/345/345 343/343/343 344/344/344
f 346/346/346 344/344/344 342/342/342
f 347/347/347 345/345/345 344/344/344
f 346/346/346 342/342/342 348/348/348
f 349/349/349 345/345/345 347/347/347
f 342/342/342 349/349/349 348/348/348
f 348/348/348 349/349/349 347/347/347
f 352/352/352 351/351/351 350/350/350
f 350/350/350 351/351/351 353/353/353
f 354/354/354 352/352/352 350/350/350
f 355/355/355 350/350/350 353/353/353
f 356/356/356 352/352/352 354/354/354
f 355/355/355 353/353/353 357/357/357
f 357/357/357 356/356/356 354/354/354
f 353/353/353 356/356/356 357/357/357
f 360/360/360 359/359/359 358/358/358
f 360/360/360 358/358/358 361/361/361
f 358/358/358 362/362/362 361/361/361
f 361/361/361 362/362/362 363/363/363
f 363/363/363 364/364/364 359/359/359
f 362/362/362 364/364/364 363/363/363
f 359/359/359 365/365/365 358/358/358
f 364/364/364 365/365/365 359/359/359
f 362/362/362 366/366/366 364/364/364
f 358/358/358 367/367/367 362/362/362
f 367/367/367 366/366/366 362/362/362
f 365/365/365 368/368/368 358/358/358
f 368/368/368 367/367/367 358/358/358
f 364/364/364 369/369/369 365/365/365
f 366/366/366 369/369/369 364/364/364
f 369/369/369 368/368/368 365/365/365
f 370/370/370 367/367/367 368/368/368
f 367/367/367 370/370/370 366/366/366
f 369/369/369 370/370/370 368/368/368
f 366/366/366 370/370/370 369/369/369
f 373/373/373 372/372/372 371/371/371
f 373/373/373 371/371/371 374/374/374
f 372/372/372 375/375/375 371/371/371
f 371/371/371 376/376/376 374/374/374
f 372/372/372 377/377/377 375/375/375
f 374/374/374 376/376/376 378/378/378
f 377/377/377 378/378/378 375/375/375
f 377/377/377 374/374/374 378/378/378
f 381/381/381 380/380/380 379/379/379
f 380/380/380 382/382/382 379/379/379
f 380/380/380 381/381/381 383/383/383
f 380/380/380 384/384/384 382/382/382
f 380/380/380 383/383/383 385/385/385
f 380/380/380 386/386/386 384/384/384
f 380/380/380 385/385/385 387/387/387
f 380/380/380 387/387/387 386/386/386
f 390/390/390 389/389/389 388/388/388
f 391/391/391 390/390/390 388/388/388
f 389/389/389 390/390/390 392/392/392
f 393/393/393 390/390/390 391/391/391
f 392/392/392 390/390/390 394/394/394
f 395/395/395 390/390/390 393/393/393
f 394/394/394 390/390/390 396/396/396
f 396/396/396 390/390/390 395/395/395
f 399/399/399 398/398/398 397/397/397
f 399/399/399 400/400/400 398/398/398
f 398/398/398 401/401/401 397/397/397
f 402/402/402 397/397/397 401/401/401
f 403/403/403 402/402/402 401/401/401
f 404/404/404 402/402/402 403/403/403
f 405/405/405 403/403/403 401/401/401
f 405/405/405 401/401/401 398/398/398
f 400/400/400 406/406/406 398/398/398
f 400/400/400 407/407/407 406/406/406
f 408/408/408 404/404/404 403/403/403
f 403/403/403 405/405/405 408/408/408
f 409/409/409 405/405/405 398/398/398
f 405/405/405 409/409/409 408/408/408
f 409/409/409 398/398/398 406/406/406
f 404/404/404 408/408/408 410/410/410
f 409/409/409 410/410/410 408/408/408
f 411/411/411 404/404/404 410/410/410
f 411/411/411 410/410/410 412/412/412
f 412/412/412 410/410/410 409/409/409
f 413/413/413 411/411/411 412/412/412
f 407/407/407 414/414/414 406/406/406
f 407/407/407 415/415/415 414/414/414
f 416/416/416 409/409/409 406/406/406
f 416/416/416 412/412/412 409/409/409
f 416/416/416 406/406/406 414/414/414
f 413/413/413 412/412/412 417/417/417
f 417/417/417 412/412/412 416/416/416
f 418/418/418 413/413/413 417/417/417
f 415/415/415 418/418/418 419/419/419
f 415/415/415 419/419/419 414/414/414
f 418/418/418 417/417/417 419/419/419
f 420/420/420 416/416/416 414/414/414
f 414/414/414 419/419/419 420/420/420
f 420/420/420 419/419/419 417/417/417
f 420/420/420 417/417/417 416/416/416
f 423/423/423 422/422/422 421/421/421
f 422/422/422 423/423/423 424/424/424
f 425/425/425 422/422/422 424/424/424
f 424/424/424 426/426/426 425/425/425
f 426/426/426 427/427/427 425/425/425
f 426/426/426 428/428/428 427/427/427
f 427/427/427 429/429/429 425/425/425
f 428/428/428 430/430/430 427/427/427
f 427/427/427 430/430/430 429/429/429
f 430/430/430 428/428/428 431/431/431
f 429/429/429 430/430/430 431/431/431
f 428/428/428 432/432/432 431/431/431
f 432/432/432 433/433/433 431/431/431
f 429/429/429 434/434/434 425/425/425
f 425/425/425 434/434/434 422/422/422
f 429/429/429 431/431/431 435/435/435
f 433/433/433 435/435/435 431/431/431
f 434/434/434 429/429/429 435/435/435
f 434/434/434 436/436/436 422/422/422
f 434/434/434 435/435/435 436/436/436
f 437/437/437 435/435/435 433/433/433
f 435/435/435 437/437/437 436/436/436
f 438/438/438 437/437/437 433/433/433
f 437/437/437 438/438/438 439/439/439
f 440/440/440 422/422/422 436/436/436
f 422/422/422 440/440/440 421/421/421
f 441/441/441 437/437/437 439/439/439
f 439/439/439 442/442/442 441/441/441
f 436/436/436 437/437/437 443/443/443
f 443/443/443 440/440/440 436/436/436
f 437/437/437 441/441/441 443/443/443
f 421/421/421 440/440/440 444/444/444
f 442/442/442 421/421/421 444/444/444
f 444/444/444 440/440/440 443/443/443
f 443/443/443 441/441/441 444/444/444
f 442/442/442 444/444/444 441/441/441
f 447/447/447 446/446/446 445/445/445
f 445/445/445 446/446/446 448/448/448
f 449/449/449 447/447/447 445/445/445
f 450/450/450 449/449/449 445/445/445
f 448/448/448 451/451/451 450/450/450
f 452/452/452 447/447/447 449/449/449
f 450/450/450 451/451/451 453/453/453
f 454/454/454 445/445/445 448/448/448
f 454/454/454 448/448/448 450/450/450
f 454/454/454 450/450/450 445/445/445
f 455/455/455 452/452/452 449/449/449
f 455/455/455 449/449/449 456/456/456
f 456/456/456 449/449/449 457/457/457
f 449/449/449 450/450/450 457/457/457
f 458/458/458 452/452/452 455/455/455
f 459/459/459 458/458/458 455/455/455
f 459/459/459 455/455/455 456/456/456
f 458/458/458 459/459/459 456/456/456
f 460/460/460 458/458/458 456/456/456
f 461/461/461 460/460/460 456/456/456
f 462/462/462 461/461/461 456/456/456
f 463/463/463 461/461/461 462/462/462
f 462/462/462 456/456/456 464/464/464
f 464/464/464 463/463/463 462/462/462
f 456/456/456 457/457/457 464/464/464
f 464/464/464 457/457/457 463/463/463
f 457/457/457 465/465/465 463/463/463
f 457/457/457 466/466/466 465/465/465
f 457/457/457 450/450/450 466/466/466
f 466/466/466 467/467/467 465/465/465
f 453/453/453 467/467/467 466/466/466
f 450/450/450 468/468/468 466/466/466
f 468/468/468 453/453/453 466/466/466
f 468/468/468 450/450/450 453/453/453
f 471/471/471 470/470/470 469/469/469
f 472/472/472 471/471/471 469/469/469
f 470/470/470 473/473/473 469/469/469
f 474/474/474 472/472/472 469/469/469
f 473/473/473 470/470/470 475/475/475
f 476/476/476 472/472/472 474/474/474
f 470/470/470 476/476/476 475/475/475
f 475/475/475 476/476/476 474/474/474
f 479/479/479 478/478/478 477/477/477
f 479/479/479 477/477/477 480/480/480
f 478/478/478 481/481/481 477/477/477
f 478/478/478 482/482/482 481/481/481
f 482/482/482 483/483/483 481/481/481
f 482/482/482 480/480/480 483/483/483
f 481/481/481 483/483/483 477/477/477
f 480/480/480 484/484/484 483/483/483
f 483/483/483 484/484/484 477/477/477
f 477/477/477 484/484/484 480/480/480
f 487/487/487 486/486/486 485/485/485
f 487/487/487 485/485/485 488/488/488
f 486/486/486 489/489/489 485/485/485
f 486/486/486 490/490/490 489/489/489
f 488/488/488 491/491/491 490/490/490
f 485/485/485 491/491/491 488/488/488
f 489/489/489 492/492/492 485/485/485
f 490/490/490 492/492/492 489/489/489
f 491/491/491 492/492/492 490/490/490
f 492/492/492 491/491/491 485/485/485
f 495/495/495 494/494/494 493/493/493
f 496/496/496 495/495/495 493/493/493
f 497/497/497 496/496/496 493/493/493
f 498/498/498 496/496/496 497/497/497
f 494/494/494 499/499/499 493/493/493
f 493/493/493 500/500/500 497/497/497
f 499/499/499 500/500/500 493/493/493
f 501/501/501 499/499/499 494/494/494
f 500/500/500 499/499/499 501/501/501
f 502/502/502 501/501/501 494/494/494
f 500/500/500 503/503/503 497/497/497
f 503/503/503 498/498/498 497/497/497
f 503/503/503 500/500/500 501/501/501
f 504/504/504 501/501/501 502/502/502
f 504/504/504 503/503/503 501/501/501
f 498/498/498 503/503/503 504/504/504
f 505/505/505 504/504/504 502/502/502
f 505/505/505 498/498/498 504/504/504
f 508/508/508 507/507/507 506/506/506
f 508/508/508 509/509/509 507/507/507
f 507/507/507 510/510/510 506/506/506
f 511/511/511 510/510/510 507/507/507
f 506/506/506 510/510/510 512/512/512
f 510/510/510 513/513/513 512/512/512
f 511/511/511 513/513/513 510/510/510
f 512/512/512 513/513/513 514/514/514
f 513/513/513 515/515/515 514/514/514
f 511/511/511 515/515/515 513/513/513
f 514/514/514 515/515/515 516/516/516
f 515/515/515 517/517/517 516/516/516
f 511/511/511 517/517/517 515/515/515
f 516/516/516 517/517/517 518/518/518
f 517/517/517 519/519/519 518/518/518
f 511/511/511 519/519/519 517/517/517
f 518/518/518 519/519/519 520/520/520
f 519/519/519 521/521/521 520/520/520
f 520/520/520 521/521/521 509/509/509
f 511/511/511 521/521/521 519/519/519
f 509/509/509 522/522/522 507/507/507
f 521/521/521 522/522/522 509/509/509
f 511/511/511 507/507/507 522/522/522
f 511/511/511 522/522/522 521/521/521
f 525/525/525 524/524/524 523/523/523
f 526/526/526 524/524/524 525/525/525
f 527/527/527 525/525/525 523/523/523
f 528/528/528 525/525/525 527/527/527
f 527/527/527 523/523/523 529/529/529
f 530/530/530 527/527/527 529/529/529
f 528/528/528 527/527/527 530/530/530
f 530/530/530 529/529/529 531/531/531
f 532/532/532 530/530/530 531/531/531
f 528/528/528 530/530/530 532/532/532
f 532/532/532 531/531/531 533/533/533
f 534/534/534 532/532/532 533/533/533
f 528/528/528 532/532/532 534/534/534
f 534/534/534 533/533/533 535/535/535
f 536/536/536 534/534/534 535/535/535
f 528/528/528 534/534/534 536/536/536
f 536/536/536 535/535/535 537/537/537
f 538/538/538 536/536/536 537/537/537
f 538/538/538 537/537/537 526/526/526
f 528/528/528 536/536/536 538/538/538
f 539/539/539 526/526/526 525/525/525
f 539/539/539 538/538/538 526/526/526
f 528/528/528 538/538/538 539/539/539
f 528/528/528 539/539/539 525/525/525
f 542/542/542 541/541/541 540/540/540
f 543/543/543 541/541/541 542/542/542
f 544/544/544 542/542/542 540/540/540
f 545/545/545 543/543/543 542/542/542
f 544/544/544 540/540/540 546/546/546
f 547/547/547 543/543/543 545/545/545
f 546/546/546 547/547/547 545/545/545
f 540/540/540 547/547/547 546/546/546
f 550/550/550 549/549/549 548/548/548
f 551/551/551 550/550/550 548/548/548
f 548/548/548 549/549/549 552/552/552
f 553/553/553 550/550/550 551/551/551
f 549/549/549 554/554/554 552/552/552
f 555/555/555 553/553/553 551/551/551
f 552/552/552 554/554/554 555/555/555
f 554/554/554 553/553/553 555/555/555
f 558/558/558 557/557/557 556/556/556
f 557/557/557 559/559/559 556/556/556
f 560/560/560 557/557/557 558/558/558
f 556/556/556 559/559/559 561/561/561
f 562/562/562 560/560/560 558/558/558
f 559/559/559 563/563/563 561/561/561
f 563/563/563 560/560/560 562/562/562
f 561/561/561 563/563/563 562/562/562
f 566/566/566 565/565/565 564/564/564
f 565/565/565 567/567/567 564/564/564
f 568/568/568 565/565/565 566/566/566
f 564/564/564 567/567/567 569/569/569
f 570/570/570 568/568/568 566/566/566
f 567/567/567 571/571/571 569/569/569
f 571/571/571 568/568/568 570/570/570
f 569/569/569 571/571/571 570/570/570
f 574/574/574 573/573/573 572/572/572
f 575/575/575 574/574/574 572/572/572
f 572/572/572 573/573/573 576/576/576
f 577/577/577 574/574/574 575/575/575
f 573/573/573 578/578/578 576/576/576
f 579/579/579 577/577/577 575/575/575
f 576/576/576 578/578/578 579/579/579
f 578/578/578 577/577/577 579/579/579
f 582/582/582 581/581/581 580/580/580
f 581/581/581 583/583/583 580/580/580
f 580/580/580 583/583/583 584/584/584
f 585/585/585 581/581/581 582/582/582
f 586/586/586 585/585/585 582/582/582
f 584/584/584 587/587/587 586/586/586
f 583/583/583 587/587/587 584/584/584
f 587/587/587 585/585/585 586/586/586
f 587/587/587 588/588/588 585/585/585
f 588/588/588 587/587/587 583/583/583
f 585/585/585 589/589/589 581/581/581
f 588/588/588 589/589/589 585/585/585
f 581/581/581 590/590/590 583/583/583
f 589/589/589 590/590/590 581/581/581
f 591/591/591 588/588/588 583/583/583
f 590/590/590 591/591/591 583/583/583
f 588/588/588 592/592/592 589/589/589
f 592/592/592 588/588/588 591/591/591
f 592/592/592 591/591/591 590/590/590
f 592/592/592 590/590/590 589/589/589
f 595/595/595 594/594/594 593/593/593
f 596/596/596 595/595/595 593/593/593
f 593/593/593 594/594/594 597/597/597
f 598/598/598 595/595/595 596/596/596
f 599/599/599 598/598/598 596/596/596
f 597/597/597 600/600/600 599/599/599
f 594/594/594 600/600/600 597/597/597
f 600/600/600 598/598/598 599/599/599
f 600/600/600 601/601/601 598/598/598
f 601/601/601 600/600/600 594/594/594
f 598/598/598 602/602/602 595/595/595
f 601/601/601 602/602/602 598/598/598
f 595/595/595 603/603/603 594/594/594
f 602/602/602 603/603/603 595/595/595
f 604/604/604 601/601/601 594/594/594
f 603/603/603 604/604/604 594/594/594
f 601/601/601 605/605/605 602/602/602
f 605/605/605 601/601/601 604/604/604
f 605/605/605 604/604/604 603/603/603
f 605/605/605 603/603/603 602/602/602
f 608/608/608 607/607/607 606/606/606
f 609/609/609 608/608/608 606/606/606
f 606/606/606 607/607/607 610/610/610
f 611/611/611 608/608/608 609/609/609
f 607/607/607 612/612/612 610/610/610
f 613/613/613 611/611/611 609/609/609
f 610/610/610 612/612/612 613/613/613
f 612/612/612 611/611/611 613/613/613
f 616/616/616 615/615/615 614/614/614
f 617/617/617 616/616/616 614/614/614
f 616/616/616 618/618/618 615/615/615
f 617/617/617 614/614/614 619/619/619
f 620/620/620 617/617/617 619/619/619
f 618/618/618 620/620/620 621/621/621
f 620/620/620 619/619/619 621/621/621
f 618/618/618 621/621/621 615/615/615
f 622/622/622 619/619/619 614/614/614
f 621/621/621 619/619/619 622/622/622
f 623/623/623 614/614/614 615/615/615
f 623/623/623 622/622/622 614/614/614
f 615/615/615 621/621/621 624/624/624
f 624/624/624 623/623/623 615/615/615
f 623/623/623 625/625/625 622/622/622
f 624/624/624 625/625/625 623/623/623
f 621/621/621 626/626/626 624/624/624
f 626/626/626 621/621/621 622/622/622
f 626/626/626 625/625/625 624/624/624
f 625/625/625 626/626/626 622/622/622
f 629/629/629 628/628/628 627/627/627
f 630/630/630 629/629/629 627/627/627
f 631/631/631 629/629/629 630/630/630
f 632/632/632 631/631/631 630/630/630
f 630/630/630 627/627/627 632/632/632
f 631/631/631 632/632/632 633/633/633
f 634/634/634 627/627/627 628/628/628
f 633/633/633 634/634/634 628/628/628
f 632/632/632 634/634/634 633/633/633
f 627/627/627 634/634/634 632/632/632
f 637/637/637 636/636/636 635/635/635
f 636/636/636 638/638/638 635/635/635
f 635/635/635 638/638/638 639/639/639
f 640/640/640 636/636/636 637/637/637
f 636/636/636 640/640/640 638/638/638
f 641/641/641 640/640/640 637/637/637
f 639/639/639 642/642/642 641/641/641
f 638/638/638 642/642/642 639/639/639
f 642/642/642 640/640/640 641/641/641
f 640/640/640 642/642/642 638/638/638
f 645/645/645 644/644/644 643/643/643
f 646/646/646 645/645/645 643/643/643
f 643/643/643 644/644/644 647/647/647
f 648/648/648 645/645/645 646/646/646
f 644/644/644 649/649/649 647/647/647
f 650/650/650 648/648/648 646/646/646
f 647/647/647 649/649/649 650/650/650
f 649/649/649 648/648/648 650/650/650
f 653/653/653 652/652/652 651/651/651
f 654/654/654 653/653/653 651/651/651
f 651/651/651 652/652/652 655/655/655
f 656/656/656 653/653/653 654/654/654
f 652/652/652 657/657/657 655/655/655
f 658/658/658 656/656/656 654/654/654
f 655/655/655 657/657/657 658/658/658
f 657/657/657 656/656/656 658/658/658
f 661/661/661 660/660/660 659/659/659
f 662/662/662 661/661/661 659/659/659
f 659/659/659 660/660/660 663/663/663
f 664/664/664 661/661/661 662/662/662
f 660/660/660 665/665/665 663/663/663
f 666/666/666 664/664/664 662/662/662
f 663/663/663 665/665/665 666/666/666
f 665/665/665 664/664/664 666/666/666
