g cheese
v 0.6359923 0.15605561 -0.49311337
v 0.6784935 0.16166821 -0.5980143
v 0.5629038 0.15768373 -0.5995591
v -0.5006626 0.34979928 -0.34071025
v -0.5209868 0.5800897 -0.33137462
v -0.51619 0.44206136 -0.26858827
v -0.20419854 0.5009714 -0.3985063
v -0.27446955 0.58102876 -0.529725
v -0.24013478 0.5799887 -0.42272305
v -0.24351966 0.50283015 -0.5318439
v -0.2569342 0.34655786 -0.39175835
v -0.3043006 0.34846476 -0.5281373
v -0.35664457 0.32566506 -0.5245037
v -0.37991327 0.2839511 -0.36861184
v -0.4470063 0.28605214 -0.51727796
v -0.5006626 0.34979928 -0.34071025
v -0.5865505 0.35215253 -0.5032964
v -0.632812 0.48067355 -0.49784788
v -0.51619 0.44206136 -0.26858827
v -0.64264303 0.5080456 -0.49665365
v -0.5209868 0.5800897 -0.33137462
v -0.6110533 0.58102876 -0.5001241
v -0.06354375 -0.07190023 -0.41324046
v -0.0147841275 -0.15195142 -0.54445064
v 0.03525421 -0.15274434 -0.46926227
v -0.14621449 -0.07062802 -0.537606
v -0.10312659 0.11969643 -0.3896039
v -0.19956449 0.12116746 -0.5347303
v -0.0608958 0.30981117 -0.41311863
v -0.14356098 0.3110839 -0.53747547
v 0.038636386 0.38707715 -0.46965685
v -0.011456907 0.38787013 -0.5449313
v 0.03525421 -0.15274434 -0.46926227
v -0.0147841275 -0.15195142 -0.54445064
v 0.116622865 -0.07516532 -0.5529959
v 0.11967936 -0.07488358 -0.48659927
v 0.11967936 -0.07488358 -0.48659927
v 0.116622865 -0.07516532 -0.5529959
v 0.17142197 0.11475101 -0.5576236
v 0.16212478 0.115231566 -0.50977844
v 0.119187504 0.30654663 -0.55300426
v 0.12994897 0.32211423 -0.4938507
v 0.12994897 0.32211423 -0.4938507
v 0.119187504 0.30654663 -0.55300426
v -0.011456907 0.38787013 -0.5449313
v 0.038636386 0.38707715 -0.46965685
v 0.11967936 -0.07488358 -0.48659927
v -0.06354375 -0.07190023 -0.41324046
v 0.03525421 -0.15274434 -0.46926227
v -0.10312659 0.11969643 -0.3896039
v 0.16212478 0.115231566 -0.50977844
v -0.0608958 0.30981117 -0.41311863
v 0.038636386 0.38707715 -0.46965685
v 0.12994897 0.32211423 -0.4938507
v -0.34590805 -0.50264275 0.54326403
v -0.013528466 -0.5026428 0.76823676
v 0.67352647 -0.50264275 -0.59769285
v -0.58905417 -0.5026429 0.25789452
v -0.7570777 -0.5026428 -0.07344565
v -0.8383533 -0.5026427 -0.47375467
v -0.3380947 0.5810287 0.54405975
v -0.0057219267 0.58102876 0.7690221
v -0.013528466 -0.5026428 0.76823676
v -0.34590805 -0.50264275 0.54326403
v -0.58124137 0.5810287 0.25869024
v -0.58905417 -0.5026429 0.25789452
v -0.7492644 0.58102876 -0.072650045
v -0.7570777 -0.5026428 -0.07344565
v -0.8305464 0.581029 -0.47296825
v -0.8383533 -0.5026427 -0.47375467
v 0.58799577 0.0975208 -0.38725993
v 0.6359923 0.15605561 -0.49311337
v 0.5629038 0.15768373 -0.5995591
v 0.4482463 0.0998712 -0.5949118
v 0.562503 -0.045765996 -0.34672496
v 0.4005918 -0.0431163 -0.5876448
v 0.5857277 -0.18986939 -0.3871671
v 0.44597888 -0.18751888 -0.59481865
v 0.6711885 -0.22478302 -0.5780303
v 0.5857277 -0.18986939 -0.3871671
v 0.44597888 -0.18751888 -0.59481865
v 0.5658205 -0.21517962 -0.5997259
v -0.6110533 0.58102876 -0.5001241
v -0.632812 0.48067355 -0.49784788
v -0.64264303 0.5080456 -0.49665365
v -0.8305464 0.581029 -0.47296825
v -0.5865505 0.35215253 -0.5032964
v -0.649653 -0.1135681 -0.49669322
v -0.67837787 -0.18784957 -0.4934726
v -0.5815677 -0.08353475 -0.5043
v -0.8383533 -0.5026427 -0.47375467
v -0.6511333 -0.26286596 -0.4968656
v -0.58369124 -0.29467392 -0.50459135
v -0.4470063 0.28605214 -0.51727796
v -0.5137128 -0.11534269 -0.51138043
v 0.67352647 -0.50264275 -0.59769285
v -0.48609728 -0.19035901 -0.51419365
v -0.5152329 -0.2646405 -0.51161563
v -0.35664457 0.32566506 -0.5245037
v 0.44597888 -0.18751888 -0.59481865
v 0.5658205 -0.21517962 -0.5997259
v 0.6711885 -0.22478302 -0.5780303
v -0.19956449 0.12116746 -0.5347303
v -0.3043006 0.34846476 -0.5281373
v -0.14621449 -0.07062802 -0.537606
v -0.14356098 0.3110839 -0.53747547
v -0.0147841275 -0.15195142 -0.54445064
v -0.24351966 0.50283015 -0.5318439
v 0.116622865 -0.07516532 -0.5529959
v 0.4005918 -0.0431163 -0.5876448
v 0.17142197 0.11475101 -0.5576236
v -0.011456907 0.38787013 -0.5449313
v -0.27446955 0.58102876 -0.529725
v 0.4482463 0.0998712 -0.5949118
v 0.68054014 0.5810287 -0.5981467
v 0.119187504 0.30654663 -0.55300426
v 0.5629038 0.15768373 -0.5995591
v 0.6784935 0.16166821 -0.5980143
v 0.27369928 0.4627313 0.23149398
v 0.2924522 0.5811891 0.19289038
v 0.19461441 0.5822315 0.08164245
v 0.17126238 0.4650805 0.11041084
v 0.2903335 0.35146314 0.19306609
v 0.19263515 0.35298076 0.08203262
v 0.33284777 0.30372772 0.09948787
v 0.24610832 0.3056802 0.013030082
v 0.3635374 0.33590955 0.03362891
v 0.29999086 0.3508873 -0.05653107
v 0.3763158 0.34921533 0.006540805
v 0.3956255 0.4605642 -0.031193167
v 0.3536929 0.4610778 -0.094174385
v 0.37827185 0.58118916 0.0065242946
v 0.30844933 0.5822316 -0.061941206
v 0.17126238 0.4650805 0.11041084
v 0.19461441 0.5822315 0.08164245
v 0.19263515 0.35298076 0.08203262
v 0.24610832 0.3056802 0.013030082
v 0.30844933 0.5822316 -0.061941206
v 0.29999086 0.3508873 -0.05653107
v 0.3536929 0.4610778 -0.094174385
v -0.24013478 0.5799887 -0.42272305
v -0.2569342 0.34655786 -0.39175835
v -0.20419854 0.5009714 -0.3985063
v -0.37991327 0.2839511 -0.36861184
v -0.5209868 0.5800897 -0.33137462
v -0.5006626 0.34979928 -0.34071025
v -0.54627067 -0.08391975 -0.45113084
v -0.47494668 -0.18839009 -0.48830888
v -0.49553847 -0.115540296 -0.48400006
v -0.5973382 -0.11414079 -0.41789874
v -0.6190406 -0.18849973 -0.40410528
v -0.5988273 -0.26343846 -0.4180855
v -0.5484006 -0.29505897 -0.45143166
v -0.49706328 -0.26483792 -0.48424205
v -0.108917 0.29418406 0.35884318
v -0.09315288 0.40282875 0.34865746
v -0.06665498 0.1968051 0.32814673
v -0.028947145 0.45910203 0.3030086
v 0.045683324 0.43004632 0.24800193
v 0.0085736215 0.1677402 0.27407554
v 0.0721679 0.22402273 0.22746995
v 0.0873647 0.33267632 0.21639654
v 0.21684784 -0.23508944 0.040806085
v 0.2389496 -0.15573724 0.023496777
v 0.23775092 -0.31506038 0.023950249
v 0.29080352 -0.123487115 -0.018315583
v 0.28879032 -0.34880412 -0.018171519
v 0.34063452 -0.31655383 -0.059999704
v 0.3416896 -0.15723069 -0.06067753
v 0.3622494 -0.23720156 -0.078070015
v -0.8305464 0.581029 -0.47296825
v -0.6110533 0.58102876 -0.5001241
v -0.5209868 0.5800897 -0.33137462
v -0.7492644 0.58102876 -0.072650045
v 0.68054014 0.5810287 -0.5981467
v -0.58124137 0.5810287 0.25869024
v -0.24013478 0.5799887 -0.42272305
v -0.27446955 0.58102876 -0.529725
v -0.3380947 0.5810287 0.54405975
v 0.19461441 0.5822315 0.08164245
v 0.30844933 0.5822316 -0.061941206
v 0.37827185 0.58118916 0.0065242946
v 0.2924522 0.5811891 0.19289038
v -0.0057219267 0.58102876 0.7690221
v 0.67352647 -0.50264275 -0.59769285
v 0.5857277 -0.18986939 -0.3871671
v 0.6711885 -0.22478302 -0.5780303
v 0.37775072 -0.316976 -0.0042193234
v 0.39176854 -0.23754077 -0.03372532
v 0.3445011 -0.34942633 0.0656133
v 0.562503 -0.045765996 -0.34672496
v -0.013528466 -0.5026428 0.76823676
v 0.31253034 -0.31588292 0.1364812
v 0.37874275 -0.15765284 -0.0049959123
v 0.29951504 -0.23599498 0.1652275
v 0.3635374 0.33590955 0.03362891
v 0.3464895 -0.124109164 0.06543043
v 0.58799577 0.0975208 -0.38725993
v 0.33284777 0.30372772 0.09948787
v 0.3763158 0.34921533 0.006540805
v 0.3956255 0.4605642 -0.031193167
v 0.37827185 0.58118916 0.0065242946
v 0.6359923 0.15605561 -0.49311337
v 0.68054014 0.5810287 -0.5981467
v 0.6784935 0.16166821 -0.5980143
v 0.31365687 -0.15655975 0.13591489
v 0.2903335 0.35146314 0.19306609
v 0.19392487 0.22152565 0.41073307
v 0.15461606 0.16474344 0.49387482
v 0.19895762 0.3303879 0.38436255
v 0.10342991 0.19331276 0.58410144
v 0.071076214 0.29048693 0.6296948
v 0.16740754 0.4275496 0.4312139
v 0.27369928 0.4627313 0.23149398
v 0.2924522 0.5811891 0.19289038
v 0.11709148 0.4561054 0.5228015
v -0.0057219267 0.58102876 0.7690221
v 0.076900244 0.399337 0.6045624
v 0.15461606 0.16474344 0.49387482
v 0.10342991 0.19331276 0.58410144
v -0.06665498 0.1968051 0.32814673
v 0.0085736215 0.1677402 0.27407554
v -0.108917 0.29418406 0.35884318
v 0.19392487 0.22152565 0.41073307
v 0.071076214 0.29048693 0.6296948
v 0.0721679 0.22402273 0.22746995
v -0.09315288 0.40282875 0.34865746
v 0.19895762 0.3303879 0.38436255
v 0.076900244 0.399337 0.6045624
v 0.0873647 0.33267632 0.21639654
v -0.028947145 0.45910203 0.3030086
v 0.16740754 0.4275496 0.4312139
v 0.11709148 0.4561054 0.5228015
v 0.045683324 0.43004632 0.24800193
v 0.3445011 -0.34942633 0.0656133
v 0.31253034 -0.31588292 0.1364812
v 0.23775092 -0.31506038 0.023950249
v 0.28879032 -0.34880412 -0.018171519
v 0.21684784 -0.23508944 0.040806085
v 0.37775072 -0.316976 -0.0042193234
v 0.29951504 -0.23599498 0.1652275
v 0.34063452 -0.31655383 -0.059999704
v 0.2389496 -0.15573724 0.023496777
v 0.39176854 -0.23754077 -0.03372532
v 0.31365687 -0.15655975 0.13591489
v 0.3622494 -0.23720156 -0.078070015
v 0.29080352 -0.123487115 -0.018315583
v 0.37874275 -0.15765284 -0.0049959123
v 0.3464895 -0.124109164 0.06543043
v 0.3416896 -0.15723069 -0.06067753
v -0.54627067 -0.08391975 -0.45113084
v -0.5815677 -0.08353475 -0.5043
v -0.649653 -0.1135681 -0.49669322
v -0.49553847 -0.115540296 -0.48400006
v -0.5973382 -0.11414079 -0.41789874
v -0.5137128 -0.11534269 -0.51138043
v -0.67837787 -0.18784957 -0.4934726
v -0.47494668 -0.18839009 -0.48830888
v -0.6190406 -0.18849973 -0.40410528
v -0.48609728 -0.19035901 -0.51419365
v -0.6511333 -0.26286596 -0.4968656
v -0.49706328 -0.26483792 -0.48424205
v -0.5988273 -0.26343846 -0.4180855
v -0.5152329 -0.2646405 -0.51161563
v -0.58369124 -0.29467392 -0.50459135
v -0.5484006 -0.29505897 -0.45143166
vt 0.90049356 0.76647854
vt 0.90049356 0.76647854
vt 0.90049356 0.76647854
vt 0.7842827 0.77624416
vt 0.7842827 0.77624416
vt 0.7842827 0.77624416
vt 0.7842827 0.77624416
vt 0.7842827 0.77624416
vt 0.78428274 0.7762442
vt 0.7842827 0.77624416
vt 0.7842827 0.77624416
vt 0.7842827 0.77624416
vt 0.7842827 0.77624416
vt 0.7842827 0.77624416
vt 0.7842827 0.77624416
vt 0.7842827 0.77624416
vt 0.7842827 0.77624416
vt 0.7842827 0.77624416
vt 0.7842827 0.77624416
vt 0.7842827 0.77624416
vt 0.7842827 0.77624416
vt 0.7842827 0.77624416
vt 0.7842827 0.77624416
vt 0.7842827 0.77624416
vt 0.7842827 0.77624416
vt 0.7842827 0.77624416
vt 0.7842827 0.77624416
vt 0.7842827 0.77624416
vt 0.7842827 0.77624416
vt 0.7842827 0.77624416
vt 0.7842827 0.77624416
vt 0.7842827 0.77624416
vt 0.7842827 0.77624416
vt 0.7842827 0.77624416
vt 0.7842827 0.77624416
vt 0.7842827 0.77624416
vt 0.34983325 0.96674365
vt 0.34983325 0.96674365
vt 0.34983325 0.96674365
vt 0.34983325 0.96674365
vt 0.34983325 0.96674365
vt 0.34983325 0.96674365
vt 0.7842827 0.77624416
vt 0.7842827 0.77624416
vt 0.7842827 0.77624416
vt 0.7842827 0.77624416
vt 0.7842827 0.77624416
vt 0.7842827 0.77624416
vt 0.7842827 0.77624416
vt 0.7842827 0.77624416
vt 0.7842827 0.77624416
vt 0.7842827 0.77624416
vt 0.7842827 0.77624416
vt 0.7842827 0.77624416
vt 0.90049356 0.76647854
vt 0.90049356 0.76647854
vt 0.90049356 0.76647854
vt 0.90049356 0.76647854
vt 0.90049356 0.76647854
vt 0.90049356 0.76647854
vt 0.90049356 0.76647854
vt 0.90049356 0.76647854
vt 0.90049356 0.76647854
vt 0.90049356 0.76647854
vt 0.90049356 0.76647854
vt 0.90049356 0.76647854
vt 0.90049356 0.76647854
vt 0.90049356 0.76647854
vt 0.90049356 0.76647854
vt 0.90049356 0.76647854
vt 0.7842827 0.77624416
vt 0.7842827 0.77624416
vt 0.7842827 0.77624416
vt 0.7842827 0.77624416
vt 0.7842827 0.77624416
vt 0.7842827 0.77624416
vt 0.7842827 0.77624416
vt 0.7842827 0.77624416
vt 0.7842827 0.77624416
vt 0.7842827 0.77624416
vt 0.7842827 0.77624416
vt 0.7842827 0.77624416
vt 0.90049356 0.76647854
vt 0.90049356 0.76647854
vt 0.90049356 0.76647854
vt 0.90049356 0.76647854
vt 0.90049356 0.76647854
vt 0.90049356 0.76647854
vt 0.90049356 0.76647854
vt 0.90049356 0.76647854
vt 0.90049356 0.76647854
vt 0.90049356 0.76647854
vt 0.90049356 0.76647854
vt 0.90049356 0.76647854
vt 0.90049356 0.76647854
vt 0.90049356 0.76647854
vt 0.90049356 0.76647854
vt 0.90049356 0.76647854
vt 0.90049356 0.76647854
vt 0.90049356 0.76647854
vt 0.90049356 0.76647854
vt 0.90049356 0.76647854
vt 0.90049356 0.76647854
vt 0.90049356 0.76647854
vt 0.90049356 0.76647854
vt 0.90049356 0.76647854
vt 0.90049356 0.76647854
vt 0.90049356 0.76647854
vt 0.90049356 0.76647854
vt 0.90049356 0.76647854
vt 0.90049356 0.76647854
vt 0.90049356 0.76647854
vt 0.90049356 0.76647854
vt 0.90049356 0.76647854
vt 0.90049356 0.76647854
vt 0.90049356 0.76647854
vt 0.90049356 0.76647854
vt 0.90049356 0.76647854
vt 0.7842827 0.77624416
vt 0.7842827 0.77624416
vt 0.7842827 0.77624416
vt 0.7842827 0.77624416
vt 0.7842827 0.77624416
vt 0.7842827 0.77624416
vt 0.7842827 0.77624416
vt 0.7842827 0.77624416
vt 0.7842827 0.77624416
vt 0.7842827 0.77624416
vt 0.7842827 0.77624416
vt 0.7842827 0.77624416
vt 0.7842827 0.77624416
vt 0.7842827 0.77624416
vt 0.7842827 0.77624416
vt 0.7842827 0.77624416
vt 0.7842827 0.77624416
vt 0.7842827 0.77624416
vt 0.7842827 0.77624416
vt 0.7842827 0.77624416
vt 0.7842827 0.77624416
vt 0.7842827 0.77624416
vt 0.78428274 0.7762442
vt 0.7842827 0.77624416
vt 0.7842827 0.77624416
vt 0.7842827 0.77624416
vt 0.7842827 0.77624416
vt 0.7842827 0.77624416
vt 0.7842827 0.77624416
vt 0.7842827 0.77624416
vt 0.7842827 0.77624416
vt 0.7842827 0.77624416
vt 0.7842827 0.77624416
vt 0.7842827 0.77624416
vt 0.7842827 0.77624416
vt 0.7842827 0.77624416
vt 0.7842827 0.77624416
vt 0.7842827 0.77624416
vt 0.7842827 0.77624416
vt 0.7842827 0.77624416
vt 0.7842827 0.77624416
vt 0.7842827 0.77624416
vt 0.7842827 0.77624416
vt 0.7842827 0.77624416
vt 0.7842827 0.77624416
vt 0.7842827 0.77624416
vt 0.7842827 0.77624416
vt 0.7842827 0.77624416
vt 0.7842827 0.77624416
vt 0.7842827 0.77624416
vt 0.7842827 0.77624416
vt 0.7842827 0.77624416
vt 0.90049356 0.76647854
vt 0.90049356 0.76647854
vt 0.90049356 0.76647854
vt 0.90049356 0.76647854
vt 0.90049356 0.76647854
vt 0.90049356 0.76647854
vt 0.90049356 0.76647854
vt 0.90049356 0.76647854
vt 0.90049356 0.76647854
vt 0.90049356 0.76647854
vt 0.90049356 0.76647854
vt 0.90049356 0.76647854
vt 0.90049356 0.76647854
vt 0.90049356 0.76647854
vt 0.90049356 0.76647854
vt 0.90049356 0.76647854
vt 0.90049356 0.76647854
vt 0.90049356 0.76647854
vt 0.90049356 0.76647854
vt 0.90049356 0.76647854
vt 0.90049356 0.76647854
vt 0.90049356 0.76647854
vt 0.90049356 0.76647854
vt 0.90049356 0.76647854
vt 0.90049356 0.76647854
vt 0.90049356 0.76647854
vt 0.90049356 0.76647854
vt 0.90049356 0.76647854
vt 0.90049356 0.76647854
vt 0.90049356 0.76647854
vt 0.90049356 0.76647854
vt 0.90049356 0.76647854
vt 0.90049356 0.76647854
vt 0.90049356 0.76647854
vt 0.90049356 0.76647854
vt 0.90049356 0.76647854
vt 0.90049356 0.76647854
vt 0.90049356 0.76647854
vt 0.90049356 0.76647854
vt 0.90049356 0.76647854
vt 0.90049356 0.76647854
vt 0.90049356 0.76647854
vt 0.90049356 0.76647854
vt 0.90049356 0.76647854
vt 0.90049356 0.76647854
vt 0.90049356 0.76647854
vt 0.90049356 0.76647854
vt 0.90049356 0.76647854
vt 0.7842827 0.77624416
vt 0.7842827 0.77624416
vt 0.7842827 0.77624416
vt 0.7842827 0.77624416
vt 0.7842827 0.77624416
vt 0.7842827 0.77624416
vt 0.7842827 0.77624416
vt 0.7842827 0.77624416
vt 0.7842827 0.77624416
vt 0.7842827 0.77624416
vt 0.7842827 0.77624416
vt 0.7842827 0.77624416
vt 0.7842827 0.77624416
vt 0.7842827 0.77624416
vt 0.7842827 0.77624416
vt 0.7842827 0.77624416
vt 0.7842827 0.77624416
vt 0.7842827 0.77624416
vt 0.7842827 0.77624416
vt 0.7842827 0.77624416
vt 0.7842827 0.77624416
vt 0.7842827 0.77624416
vt 0.7842827 0.77624416
vt 0.7842827 0.77624416
vt 0.7842827 0.77624416
vt 0.7842827 0.77624416
vt 0.7842827 0.77624416
vt 0.7842827 0.77624416
vt 0.7842827 0.77624416
vt 0.7842827 0.77624416
vt 0.7842827 0.77624416
vt 0.7842827 0.77624416
vt 0.7842827 0.77624416
vt 0.7842827 0.77624416
vt 0.7842827 0.77624416
vt 0.7842827 0.77624416
vt 0.7842827 0.77624416
vt 0.7842827 0.77624416
vt 0.7842827 0.77624416
vt 0.7842827 0.77624416
vt 0.7842827 0.77624416
vt 0.7842827 0.77624416
vt 0.7842827 0.77624416
vt 0.7842827 0.77624416
vt 0.7842827 0.77624416
vt 0.7842827 0.77624416
vt 0.7842827 0.77624416
vt 0.7842827 0.77624416
vn 0.30042598 -0.9289513 -0.21631838
vn 0.034947578 -0.9986173 -0.039270338
vn 0.3030683 -0.9276823 -0.21807142
vn -0.99077994 -0.08310331 -0.1069993
vn -0.99077994 -0.08310331 -0.1069993
vn -0.99077994 -0.08310331 -0.1069993
vn -0.95262706 0.044328555 0.300893
vn -0.89882 -0.34426135 0.27130574
vn -0.89882 -0.34426135 0.27130574
vn -0.9540161 -0.005454257 0.299706
vn -0.71893543 0.6478649 0.25179946
vn -0.67758286 0.69479984 0.24111155
vn -0.3993542 0.8999874 0.17475343
vn -0.045917436 0.9988446 0.014175147
vn 0.10651248 0.9932888 -0.045083057
vn 0.68523425 0.6540858 -0.32035264
vn 0.7068704 0.6252579 -0.3307368
vn 0.85370487 0.34652153 -0.38872975
vn 0.88084483 0.11112375 -0.46017808
vn 0.88274115 -0.012656426 -0.46968916
vn 0.8282484 -0.26088512 -0.4959271
vn 0.8282484 -0.26088512 -0.4959271
vn 0.6884774 0.56731474 -0.45183277
vn 0.4873045 0.81418794 -0.3156456
vn 0.4873045 0.81418794 -0.3156456
vn 0.72718024 0.49237028 -0.47831002
vn 0.8327991 -0.005493206 -0.5535481
vn 0.83278626 -0.0067987368 -0.5535528
vn 0.6753052 -0.5805368 -0.45490652
vn 0.7147721 -0.50828505 -0.48036158
vn 0.4631141 -0.8278431 -0.31654572
vn 0.4631141 -0.8278431 -0.31654572
vn -0.55265206 0.8064795 0.21015806
vn -0.55265206 0.8064795 0.21015806
vn -0.8214571 0.5642038 0.08296
vn -0.80421126 0.5869094 0.093710035
vn -0.80421126 0.5869094 0.093710035
vn -0.8214571 0.5642038 0.08296
vn -0.9998042 0.019063305 -0.005304865
vn -0.9997811 0.020177422 -0.0055490197
vn -0.82462853 -0.53490293 0.18402877
vn -0.75861055 -0.6136642 0.21892048
vn -0.75861055 -0.6136642 0.21892048
vn -0.82462853 -0.53490293 0.18402877
vn -0.49089924 -0.8135698 0.31164446
vn -0.49089924 -0.8135698 0.31164446
vn -0.38867238 0.057686243 -0.9195685
vn -0.3695343 0.07643303 -0.9260682
vn -0.36228743 0.18963252 -0.9125718
vn -0.40263334 -0.005514619 -0.9153447
vn -0.40132466 -0.022730729 -0.91565377
vn -0.43232659 -0.04772746 -0.90045315
vn -0.3926566 -0.042778883 -0.9186897
vn -0.22982132 0.039124515 -0.9724461
vn -0 -1 0
vn -0 -1 0
vn -0 -1 0
vn -0 -1 0
vn -0 -1 0
vn -0 -1 0
vn -0.66653955 0.004259426 0.74545753
vn -0.5605194 0.003435494 0.8281341
vn -0.5605194 0.003435494 0.8281341
vn -0.66728836 0.004265309 0.74478734
vn -0.83212674 0.0055922675 0.55455726
vn -0.83251005 0.005595454 0.55398154
vn -0.9443651 0.006566314 0.32883343
vn -0.9445369 0.0065679126 0.3283397
vn -0.9799805 0.0069175414 0.19897306
vn -0.9799805 0.0069175414 0.19897306
vn 0.6911595 -0.5470038 -0.4723192
vn 0.30042598 -0.9289513 -0.21631838
vn 0.3030683 -0.9276823 -0.21807142
vn 0.68986213 -0.54935473 -0.4714867
vn 0.8297647 -0.00621784 -0.5580786
vn 0.829743 -0.008173929 -0.5580858
vn 0.7985298 0.27802166 -0.53390473
vn 0.7985298 0.27802166 -0.53390473
vn 0.17140168 0.9762774 -0.1323019
vn 0.17140168 0.9762774 -0.1323019
vn 0.17140168 0.9762774 -0.1323019
vn 0.17140168 0.9762774 -0.1323019
vn -0.12343335 0.0042549227 -0.9923437
vn -0.12583376 -0.0016433677 -0.99205
vn -0.12343335 0.0042549227 -0.9923437
vn -0.12328967 0.0017875145 -0.9923692
vn -0.115522586 0.0013699218 -0.99330395
vn -0.11721514 0.00238048 -0.9931037
vn -0.12395483 0.0015288098 -0.9922867
vn -0.10582232 0.0012998753 -0.99438417
vn -0.10474977 -0.020998446 -0.99427694
vn -0.11978152 -0.0021647858 -0.9927979
vn -0.09131212 -0.03563897 -0.99518436
vn -0.089614145 0.0008082391 -0.99597627
vn -0.09824038 0.0015487875 -0.9951616
vn -0.010155114 -0.018104743 -0.9997845
vn -0.08096994 0.0035254774 -0.9967103
vn -0.08289774 -0.03412967 -0.9959735
vn -0.07164018 -0.0018076153 -0.99742883
vn -0.08654279 -0.01782909 -0.9960886
vn 0.041117612 0.008340052 -0.99911946
vn 0.20735212 0.07078941 -0.9757018
vn -0.066104464 -0.002306235 -0.99781007
vn -0.062005796 -0.00047374243 -0.9980757
vn -0.06465136 -0.011591821 -0.9978405
vn -0.057216916 0.0005287075 -0.99836165
vn -0.083966486 0.20070109 -0.9760475
vn -0.05482482 0.0038584922 -0.99848855
vn -0.11126304 0.043497324 -0.9928387
vn -0.12634921 0.003901299 -0.99197817
vn -0.1300452 -0.0026493508 -0.9915045
vn -0.067297 -0.01298903 -0.9976484
vn -0.06296735 -0.007171816 -0.9979899
vn -0.107343584 0.013968054 -0.9941239
vn -0.06696695 0.014517157 -0.9976496
vn -0.09134832 -0.00015167033 -0.99581903
vn -0.026943328 0.010821819 -0.9995784
vn 0.013376736 -0.00038090712 -0.9999105
vn 0.7575665 0.0016337226 -0.652756
vn 0.71866524 -0.30685827 -0.6239857
vn 0.71866524 -0.30685827 -0.6239857
vn 0.7575459 -0.0011427755 -0.652781
vn 0.61301583 0.58637744 -0.5295026
vn 0.5652528 0.6634366 -0.49024585
vn 0.10636833 0.9917824 -0.071087055
vn 0.011748098 0.9992361 0.037272982
vn -0.28409883 0.89938694 0.33225128
vn -0.49055132 0.7071926 0.50915426
vn -0.4762361 0.72433794 0.49853173
vn -0.74460816 0.039479423 0.6663334
vn -0.7448653 0.035981856 0.6662439
vn -0.7132128 -0.3588565 0.6021209
vn -0.7132128 -0.3588565 0.6021209
vn 0.7877292 -0.0057525896 0.6159947
vn 0.7872821 -0.008701064 0.6165317
vn 0.78840435 -0.005759883 0.6151304
vn 0.78746027 -0.008558913 0.61630595
vn 0.74288857 -0.008250949 0.66936415
vn 0.7515826 -0.00860963 0.6595828
vn 0.5767148 -0.0019812426 0.8169431
vn -0.107070416 -0.07183239 -0.99165326
vn -0.07499533 -0.1258223 -0.9892141
vn 0.3099669 -0.14690995 -0.93932843
vn -0.239639 -0.047694143 -0.9696898
vn -0.287077 -0.016324652 -0.95776844
vn -0.287077 -0.016324652 -0.95776844
vn -0.53647476 -0.06688038 -0.8412621
vn -0.5375455 0.00505312 -0.8432196
vn -0.59142077 -0.12000869 -0.79738283
vn -0.51168954 -0.029186372 -0.8586745
vn -0.50453 0.006169518 -0.8633721
vn -0.5115844 0.041403294 -0.85823494
vn -0.5356255 0.078150585 -0.84083164
vn -0.5861705 0.12701358 -0.8001699
vn 0.5768642 -0.0071240827 0.816809
vn 0.5820407 -0.0060924096 0.8131368
vn 0.58520997 -0.005243315 0.8108648
vn 0.585735 -0.005159359 0.81048614
vn 0.5899957 -0.0043164073 0.80739474
vn 0.5894246 -0.004461198 0.807811
vn 0.5943803 -0.0037345192 0.80417544
vn 0.6004961 -0.0024946937 0.79962385
vn 0.6220179 -0.002451201 0.7829992
vn 0.63065547 -0.003845779 0.7760535
vn 0.6306614 -0.0038467506 0.7760486
vn 0.632943 -0.0037395987 0.7741894
vn 0.6329477 -0.0037378124 0.7741856
vn 0.6352075 -0.0030650431 0.77233547
vn 0.6352021 -0.0030663668 0.77233994
vn 0.6435666 -0.0010054767 0.7653894
vn 0.002643378 0.9999962 0.0008546668
vn 0.002643378 0.9999962 0.0008546668
vn -9.988506E-05 0.9999951 -0.0031244364
vn 0.00048243202 0.99999964 -0.00077190786
vn -0.00019705293 0.9999999 -0.00039093176
vn -0 1 0
vn -0.0011181614 0.9999993 -0.00046878934
vn 0.0006806886 0.9999547 0.00950095
vn -5.22861E-05 0.9999999 0.00051618234
vn -0.006358218 0.99996626 -0.0052166693
vn -0.010811969 0.999894 -0.009746221
vn 0.010191372 0.99993646 0.004829872
vn 0.00085974083 0.9999976 0.0020003216
vn 0.00085974083 0.9999976 0.0020003216
vn 0.8971489 -0.037844956 0.4401042
vn 0.8883374 -0.032337412 0.45805117
vn 0.9110031 -0.021478 0.41183957
vn 0.8914953 0.01321487 0.452837
vn 0.87701535 0.011125966 0.48033363
vn 0.8944353 -0.0263123 0.4464227
vn 0.88003063 -0.009444953 0.47482285
vn 0.8846506 -0.029415354 0.4653257
vn 0.8937787 -0.054481298 0.4451871
vn 0.887902 -0.007595476 0.45996994
vn 0.89732015 -0.024320038 0.44070992
vn 0.8954804 0.008598818 0.44501778
vn 0.90817875 -0.004735284 0.41855597
vn 0.89095956 0.013531584 0.45388082
vn 0.90821344 -0.004743183 0.41848037
vn 0.88875264 0.032018214 0.45726755
vn 0.87102115 -0.019872844 0.49084324
vn 0.8864418 0.0038656963 0.46282393
vn 0.90878516 0.0165813 0.41693455
vn 0.9001526 0.013245091 0.43537325
vn 0.9268925 -0.0044051204 0.3753012
vn 0.90987027 -0.0091502005 0.41479203
vn 0.90402704 0.011147816 0.42732996
vn 0.9093732 0.006718227 0.4159269
vn 0.89095616 -0.022283137 0.45354214
vn 0.89457273 0.041797552 0.4449636
vn 0.8436763 0.00025632407 0.53685206
vn 0.9933443 0.0799229 0.082942426
vn 0.88311857 0.02122658 0.46866956
vn 0.88604325 0.017074091 0.46328813
vn 0.8830601 0.0031266394 0.46924958
vn 0.8887156 -0.015069269 0.45821124
vn 0.88910264 -0.0013863189 0.45770565
vn 0.9787288 -0.1957886 0.061292917
vn -0.0053683016 0.9998379 0.01718936
vn 0.58980787 0.7113537 -0.3822337
vn 0.5327203 0.7734675 -0.34344897
vn -0.13450621 0.98556626 0.10279686
vn 0.8231722 0.15979525 -0.5448421
vn -0.6652246 0.59572977 0.45009148
vn 0.9933443 0.0799229 0.082942426
vn -0.70561266 0.5249522 0.475958
vn 0.69956565 -0.53632855 -0.47218603
vn -0.8232382 -0.15970524 0.5447687
vn 0.9787288 -0.1957886 0.061292917
vn -0.8232512 -0.15960428 0.5447787
vn 0.11491556 -0.9893028 -0.08985755
vn -0.4857519 -0.8166703 0.31160006
vn 0.24135761 -0.9548181 -0.17340392
vn -0.54128355 -0.7648998 0.3491995
vn 0.14321315 0.9857861 -0.08783944
vn 0.68490535 0.5723316 -0.45093364
vn 0.62620145 0.6623632 -0.41127482
vn -0.010402617 0.9998418 0.014427894
vn 0.8328274 -0.009150613 -0.55345726
vn -0.57000715 0.7260112 0.38470715
vn 0.83284855 -0.0070547783 -0.553456
vn -0.6278902 0.65350515 0.42271137
vn 0.6104326 -0.6773069 -0.4106426
vn -0.8324137 0.009602283 0.55407155
vn 0.67229366 -0.5869929 -0.45106614
vn -0.83244085 0.0069884895 0.5540699
vn -0.036143035 -0.9992072 0.016697355
vn -0.587823 -0.71108145 0.3857815
vn 0.11882814 -0.9891615 -0.08625153
vn -0.6424805 -0.6391661 0.42271212
vn -0.014727706 -0.9998884 0.0025167405
vn 0.10393227 -0.99166095 -0.07620166
vn 0.66738117 -0.59532416 -0.44742778
vn -0.6712169 -0.6274518 0.39467975
vn 0.6227768 -0.66119903 -0.41828802
vn -0.61793345 -0.6945173 0.36851573
vn 0.83303785 -0.007888605 -0.5531598
vn -0.8758548 -0.009039659 0.48249
vn 0.8330355 -0.008119501 -0.55315983
vn -0.87612695 0.018920545 0.48170903
vn 0.6799391 0.5810962 -0.44722492
vn -0.66434586 0.64052135 0.38519743
vn 0.63750285 0.64683 -0.41857025
vn -0.60768604 0.70752484 0.36073026
vn 0.1281915 0.98868096 -0.07795434
vn 0.009878378 0.999951 0.0006684687
g cheese_0
f 3/3/3 2/2/2 1/1/1
f 6/6/6 5/5/5 4/4/4
f 9/9/9 8/8/8 7/7/7
f 8/8/8 10/10/10 7/7/7
f 7/7/7 10/10/10 11/11/11
f 10/10/10 12/12/12 11/11/11
f 12/12/12 13/13/13 11/11/11
f 13/13/13 14/14/14 11/11/11
f 14/14/14 13/13/13 15/15/15
f 14/14/14 15/15/15 16/16/16
f 15/15/15 17/17/17 16/16/16
f 16/16/16 17/17/17 18/18/18
f 19/19/19 16/16/16 18/18/18
f 19/19/19 18/18/18 20/20/20
f 19/19/19 20/20/20 21/21/21
f 20/20/20 22/22/22 21/21/21
f 25/25/25 24/24/24 23/23/23
f 24/24/24 26/26/26 23/23/23
f 23/23/23 26/26/26 27/27/27
f 26/26/26 28/28/28 27/27/27
f 27/27/27 28/28/28 29/29/29
f 28/28/28 30/30/30 29/29/29
f 29/29/29 30/30/30 31/31/31
f 30/30/30 32/32/32 31/31/31
f 35/35/35 34/34/34 33/33/33
f 36/36/36 35/35/35 33/33/33
f 39/39/39 38/38/38 37/37/37
f 40/40/40 39/39/39 37/37/37
f 41/41/41 39/39/39 40/40/40
f 42/42/42 41/41/41 40/40/40
f 45/45/45 44/44/44 43/43/43
f 46/46/46 45/45/45 43/43/43
f 49/49/49 48/48/48 47/47/47
f 50/50/50 47/47/47 48/48/48
f 47/47/47 50/50/50 51/51/51
f 50/50/50 52/52/52 51/51/51
f 53/53/53 51/51/51 52/52/52
f 54/54/54 51/51/51 53/53/53
f 57/57/57 56/56/56 55/55/55
f 57/57/57 55/55/55 58/58/58
f 57/57/57 58/58/58 59/59/59
f 57/57/57 59/59/59 60/60/60
f 63/63/63 62/62/62 61/61/61
f 64/64/64 63/63/63 61/61/61
f 64/64/64 61/61/61 65/65/65
f 66/66/66 64/64/64 65/65/65
f 66/66/66 65/65/65 67/67/67
f 68/68/68 66/66/66 67/67/67
f 68/68/68 67/67/67 69/69/69
f 70/70/70 68/68/68 69/69/69
f 73/73/73 72/72/72 71/71/71
f 74/74/74 73/73/73 71/71/71
f 74/74/74 71/71/71 75/75/75
f 76/76/76 74/74/74 75/75/75
f 76/76/76 75/75/75 77/77/77
f 78/78/78 76/76/76 77/77/77
f 81/81/81 80/80/80 79/79/79
f 82/82/82 81/81/81 79/79/79
f 85/85/85 84/84/84 83/83/83
f 84/84/84 86/86/86 83/83/83
f 84/84/84 87/87/87 86/86/86
f 87/87/87 88/88/88 86/86/86
f 86/86/86 88/88/88 89/89/89
f 88/88/88 87/87/87 90/90/90
f 91/91/91 86/86/86 89/89/89
f 89/89/89 92/92/92 91/91/91
f 92/92/92 93/93/93 91/91/91
f 90/90/90 87/87/87 94/94/94
f 95/95/95 90/90/90 94/94/94
f 93/93/93 96/96/96 91/91/91
f 97/97/97 95/95/95 94/94/94
f 98/98/98 96/96/96 93/93/93
f 99/99/99 97/97/97 94/94/94
f 100/100/100 96/96/96 98/98/98
f 100/100/100 98/98/98 97/97/97
f 101/101/101 96/96/96 100/100/100
f 102/102/102 96/96/96 101/101/101
f 103/103/103 97/97/97 99/99/99
f 99/99/99 104/104/104 103/103/103
f 105/105/105 97/97/97 103/103/103
f 103/103/103 104/104/104 106/106/106
f 107/107/107 97/97/97 105/105/105
f 100/100/100 97/97/97 107/107/107
f 104/104/104 108/108/108 106/106/106
f 109/109/109 100/100/100 107/107/107
f 100/100/100 109/109/109 110/110/110
f 109/109/109 111/111/111 110/110/110
f 112/112/112 106/106/106 108/108/108
f 113/113/113 112/112/112 108/108/108
f 114/114/114 110/110/110 111/111/111
f 115/115/115 112/112/112 113/113/113
f 116/116/116 114/114/114 111/111/111
f 112/112/112 115/115/115 116/116/116
f 116/116/116 115/115/115 114/114/114
f 114/114/114 115/115/115 117/117/117
f 118/118/118 117/117/117 115/115/115
f 121/121/121 120/120/120 119/119/119
f 122/122/122 121/121/121 119/119/119
f 119/119/119 123/123/123 122/122/122
f 123/123/123 124/124/124 122/122/122
f 124/124/124 123/123/123 125/125/125
f 126/126/126 124/124/124 125/125/125
f 125/125/125 127/127/127 126/126/126
f 126/126/126 127/127/127 128/128/128
f 127/127/127 129/129/129 128/128/128
f 128/128/128 129/129/129 130/130/130
f 131/131/131 128/128/128 130/130/130
f 131/131/131 130/130/130 132/132/132
f 133/133/133 131/131/131 132/132/132
f 136/136/136 135/135/135 134/134/134
f 137/137/137 135/135/135 136/136/136
f 135/135/135 137/137/137 138/138/138
f 137/137/137 139/139/139 138/138/138
f 140/140/140 138/138/138 139/139/139
f 143/143/143 142/142/142 141/141/141
f 141/141/141 142/142/142 144/144/144
f 145/145/145 141/141/141 144/144/144
f 146/146/146 145/145/145 144/144/144
f 149/149/149 148/148/148 147/147/147
f 147/147/147 148/148/148 150/150/150
f 150/150/150 148/148/148 151/151/151
f 151/151/151 148/148/148 152/152/152
f 148/148/148 153/153/153 152/152/152
f 154/154/154 153/153/153 148/148/148
f 157/157/157 156/156/156 155/155/155
f 156/156/156 157/157/157 158/158/158
f 158/158/158 157/157/157 159/159/159
f 157/157/157 160/160/160 159/159/159
f 161/161/161 159/159/159 160/160/160
f 162/162/162 159/159/159 161/161/161
f 165/165/165 164/164/164 163/163/163
f 164/164/164 165/165/165 166/166/166
f 165/165/165 167/167/167 166/166/166
f 166/166/166 167/167/167 168/168/168
f 169/169/169 166/166/166 168/168/168
f 170/170/170 169/169/169 168/168/168
f 173/173/173 172/172/172 171/171/171
f 174/174/174 173/173/173 171/171/171
f 173/173/173 174/174/174 175/175/175
f 176/176/176 175/175/175 174/174/174
f 177/177/177 173/173/173 175/175/175
f 178/178/178 177/177/177 175/175/175
f 179/179/179 175/175/175 176/176/176
f 179/179/179 180/180/180 175/175/175
f 181/181/181 175/175/175 180/180/180
f 182/182/182 175/175/175 181/181/181
f 180/180/180 179/179/179 183/183/183
f 179/179/179 184/184/184 183/183/183
f 187/187/187 186/186/186 185/185/185
f 188/188/188 185/185/185 186/186/186
f 189/189/189 188/188/188 186/186/186
f 190/190/190 185/185/185 188/188/188
f 186/186/186 191/191/191 189/189/189
f 190/190/190 192/192/192 185/185/185
f 193/193/193 192/192/192 190/190/190
f 191/191/191 194/194/194 189/189/189
f 195/195/195 192/192/192 193/193/193
f 194/194/194 191/191/191 196/196/196
f 194/194/194 196/196/196 197/197/197
f 191/191/191 198/198/198 196/196/196
f 196/196/196 199/199/199 197/197/197
f 196/196/196 198/198/198 200/200/200
f 198/198/198 201/201/201 200/200/200
f 198/198/198 202/202/202 201/201/201
f 203/203/203 202/202/202 198/198/198
f 204/204/204 202/202/202 203/203/203
f 205/205/205 204/204/204 203/203/203
f 206/206/206 197/197/197 199/199/199
f 207/207/207 206/206/206 199/199/199
f 195/195/195 206/206/206 208/208/208
f 206/206/206 207/207/207 208/208/208
f 209/209/209 195/195/195 208/208/208
f 208/208/208 207/207/207 210/210/210
f 195/195/195 209/209/209 192/192/192
f 211/211/211 192/192/192 209/209/209
f 212/212/212 192/192/192 211/211/211
f 210/210/210 207/207/207 213/213/213
f 207/207/207 214/214/214 213/213/213
f 214/214/214 215/215/215 213/213/213
f 216/216/216 213/213/213 215/215/215
f 217/217/217 192/192/192 212/212/212
f 217/217/217 216/216/216 215/215/215
f 212/212/212 218/218/218 217/217/217
f 218/218/218 216/216/216 217/217/217
f 221/221/221 220/220/220 219/219/219
f 222/222/222 221/221/221 219/219/219
f 221/221/221 223/223/223 220/220/220
f 222/222/222 219/219/219 224/224/224
f 223/223/223 225/225/225 220/220/220
f 226/226/226 222/222/222 224/224/224
f 223/223/223 227/227/227 225/225/225
f 226/226/226 224/224/224 228/228/228
f 227/227/227 229/229/229 225/225/225
f 230/230/230 226/226/226 228/228/228
f 227/227/227 231/231/231 229/229/229
f 230/230/230 228/228/228 232/232/232
f 231/231/231 233/233/233 229/229/229
f 234/234/234 230/230/230 232/232/232
f 234/234/234 232/232/232 233/233/233
f 231/231/231 234/234/234 233/233/233
f 237/237/237 236/236/236 235/235/235
f 238/238/238 237/237/237 235/235/235
f 237/237/237 239/239/239 236/236/236
f 238/238/238 235/235/235 240/240/240
f 239/239/239 241/241/241 236/236/236
f 242/242/242 238/238/238 240/240/240
f 239/239/239 243/243/243 241/241/241
f 242/242/242 240/240/240 244/244/244
f 243/243/243 245/245/245 241/241/241
f 246/246/246 242/242/242 244/244/244
f 243/243/243 247/247/247 245/245/245
f 246/246/246 244/244/244 248/248/248
f 247/247/247 249/249/249 245/245/245
f 250/250/250 246/246/246 248/248/248
f 250/250/250 248/248/248 249/249/249
f 247/247/247 250/250/250 249/249/249
f 253/253/253 252/252/252 251/251/251
f 251/251/251 252/252/252 254/254/254
f 255/255/255 253/253/253 251/251/251
f 252/252/252 256/256/256 254/254/254
f 257/257/257 253/253/253 255/255/255
f 254/254/254 256/256/256 258/258/258
f 259/259/259 257/257/257 255/255/255
f 256/256/256 260/260/260 258/258/258
f 261/261/261 257/257/257 259/259/259
f 258/258/258 260/260/260 262/262/262
f 263/263/263 261/261/261 259/259/259
f 260/260/260 264/264/264 262/262/262
f 265/265/265 261/261/261 263/263/263
f 262/262/262 264/264/264 266/266/266
f 266/266/266 265/265/265 263/263/263
f 264/264/264 265/265/265 266/266/266
