g chicken_Feed
v -1.8507538 0.113800526 -4.133708
v 0.8349557 0.12839699 -3.4038959
v -1.8799467 0.113800526 -2.542717
v -0.9457865 0.113800526 -5.3889856
v -0.74143887 0.113800526 -1.739923
v 0.74737835 0.113800526 -5.418178
v 1.3750172 0.113800526 -2.2945805
v 1.7837119 0.113800526 -4.367248
v 1.9150782 0.113800526 -3.360107
v -0.15758896 0.09920406 1.0771532
v 0.3532796 0.09920406 3.9964027
v -2.0113125 0.09920406 1.7485809
v 1.5793643 0.09920406 1.4128666
v -2.3470268 0.09920406 4.2299433
v 2.4259467 0.09920406 3.1498203
v -0.668458 0.09920406 5.7187605
v 1.8275008 0.09920406 4.7116194
v 0.84955215 0.09920406 5.353854
v -2.4346046 0.2305708 -2.265388
v -1.8799467 0.113800526 -2.542717
v -0.74143887 0.113800526 -1.739923
v -0.9165945 0.2305708 -1.1706696
v 1.3750172 0.113800526 -2.2945805
v -2.4054117 0.2305708 -4.250478
v -1.8507538 0.113800526 -4.133708
v 1.739923 0.2305708 -1.8858857
v 1.9150782 0.113800526 -3.360107
v -1.2523079 0.2305708 -5.8706617
v -0.9457865 0.113800526 -5.3889856
v 2.4697356 0.2305708 -3.2871256
v 1.7837119 0.113800526 -4.367248
v 0.90793705 0.2305708 -5.9582396
v 0.74737835 0.113800526 -5.418178
v 2.250792 0.2305708 -4.644577
v -2.843299 0.05541563 -4.3234596
v -2.8578959 0.05541563 -2.0610409
v -1.5004444 0.05541563 -6.235568
v -1.0187683 0.05541563 -0.7327819
v 0.9955144 0.05541563 -6.381531
v 2.031848 0.05541563 -1.5501719
v 2.6156983 0.05541563 -4.8781166
v 2.8930268 0.05541563 -3.2433367
v -0.15758896 0.09920406 1.0771532
v -0.25976276 0.09920406 0.3911295
v 3.1849518 0.09920406 -4.8781166
v 1.5793643 0.09920406 1.4128666
v -2.0113125 0.09920406 1.7485809
v 3.301722 0.09920406 -0.5138383
v 3.068182 0.09920406 3.0768394
v 2.4259467 0.09920406 3.1498203
v 2.309177 0.09920406 5.0911217
v 1.8275008 0.09920406 4.7116194
v 1.0393033 0.09920406 5.908511
v 0.84955215 0.09920406 5.353854
v -0.9165945 0.09920406 6.390188
v -0.668458 0.09920406 5.7187605
v -3.0914354 0.09920406 4.463483
v -2.3470268 0.09920406 4.2299433
v -3.324975 0.09920406 0.6246691
v -3.2373981 0.09920406 -4.1483045
v 3.360107 -0.10514307 3.4125528
v 3.6228395 -0.10514307 -0.5284343
v 2.5281205 -0.10514307 5.6311827
v 1.1268806 -0.10514307 6.53615
v -1.0187683 -0.10514307 7.061615
v -3.4125528 -0.10514307 4.945159
v -3.6752853 -0.10514307 0.7268429
v -3.5731115 -0.10514307 -4.5278068
v 3.4768767 -0.10514307 -5.3306007
v -2.5221815 -0.10514307 -6.9799767
v 1.973463 0.09920406 -6.352338
v 2.1486182 -0.10514307 -6.950784
v 0.26570177 0.09920406 -7.1843243
v 0.26570177 -0.10514307 -7.870348
v -2.274045 0.09920406 -6.3669343
vt 0.15456928 0.9649482
vt 0.15456928 0.9649482
vt 0.15456928 0.9649482
vt 0.15456928 0.9649482
vt 0.15456928 0.9649482
vt 0.15456928 0.9649482
vt 0.15456928 0.9649482
vt 0.15456928 0.9649482
vt 0.15456928 0.9649482
vt 0.21953636 0.3392126
vt 0.21953636 0.3392126
vt 0.21953636 0.3392126
vt 0.21953636 0.3392126
vt 0.21953636 0.3392126
vt 0.21953636 0.3392126
vt 0.21953636 0.3392126
vt 0.21953636 0.3392126
vt 0.21953636 0.3392126
vt 0.09302151 0.9649482
vt 0.09302151 0.9649482
vt 0.09302151 0.9649482
vt 0.09302151 0.9649482
vt 0.09302151 0.9649482
vt 0.09302151 0.9649482
vt 0.09302151 0.9649482
vt 0.09302151 0.9649482
vt 0.09302151 0.9649482
vt 0.09302151 0.9649482
vt 0.09302151 0.9649482
vt 0.09302151 0.9649482
vt 0.09302151 0.9649482
vt 0.09302151 0.9649482
vt 0.09302151 0.9649482
vt 0.09302151 0.9649482
vt 0.09302151 0.9649482
vt 0.09302151 0.9649482
vt 0.09302151 0.9649482
vt 0.09302151 0.9649482
vt 0.09302151 0.9649482
vt 0.09302151 0.9649482
vt 0.09302151 0.9649482
vt 0.09302151 0.9649482
vt 0.15456928 0.3392126
vt 0.15456928 0.3392126
vt 0.15456928 0.3392126
vt 0.15456928 0.3392126
vt 0.15456928 0.3392126
vt 0.15456928 0.3392126
vt 0.15456928 0.3392126
vt 0.15456928 0.3392126
vt 0.15456928 0.3392126
vt 0.15456928 0.3392126
vt 0.15456928 0.3392126
vt 0.15456928 0.3392126
vt 0.15456928 0.3392126
vt 0.15456928 0.3392126
vt 0.15456928 0.3392126
vt 0.15456928 0.3392126
vt 0.15456928 0.3392126
vt 0.15456928 0.3392126
vt 0.15456928 0.3392126
vt 0.15456928 0.3392126
vt 0.15456928 0.3392126
vt 0.15456928 0.3392126
vt 0.15456928 0.3392126
vt 0.15456928 0.3392126
vt 0.15456928 0.3392126
vt 0.15456928 0.3392126
vt 0.15456928 0.3392126
vt 0.15456928 0.3392126
vt 0.15456928 0.3392126
vt 0.15456928 0.3392126
vt 0.15456928 0.3392126
vt 0.15456928 0.3392126
vt 0.15456928 0.3392126
vn 0.120199315 0.9927497 -0
vn -0.0007790923 0.99999624 -0.002629475
vn 0.096256845 0.99535656 -0
vn 0.047908336 0.9988517 -0
vn 0.023585638 0.99972177 -0
vn -0.049460962 0.9987761 -0
vn -0.0736919 0.997281 -0
vn -0.121723376 0.992564 -0
vn -0.121723376 0.992564 -0
vn -0.0007790923 0.99999624 -0.002629475
vn -0.0007790923 0.99999624 -0.002629475
vn -0.0007790923 0.99999624 -0.002629475
vn -0.0007790923 0.99999624 -0.002629475
vn -0.0007790923 0.99999624 -0.002629475
vn -0.0007790923 0.99999624 -0.002629475
vn -0.0007790923 0.99999624 -0.002629475
vn -0.0007790923 0.99999624 -0.002629475
vn -0.0007790923 0.99999624 -0.002629475
vn -0.14700598 0.9756251 0.16292614
vn 0.096256845 0.99535656 -0
vn 0.023585638 0.99972177 -0
vn -0.02515024 0.9756251 0.21799803
vn -0.0736919 0.997281 -0
vn -0.14544335 0.98936665 -0
vn 0.120199315 0.9927497 -0
vn 0.096705526 0.9756251 0.19698654
vn -0.121723376 0.992564 -0
vn -0.073892534 0.9756251 -0.2066291
vn 0.047908336 0.9988517 -0
vn 0.14393389 0.98958737 -0
vn -0.121723376 0.992564 -0
vn 0.07233438 0.9756251 -0.2071796
vn -0.049460962 0.9987761 -0
vn 0.120199315 0.9927497 -0
vn -0.36634636 0.9268828 -0.08172295
vn -0.317604 0.9268828 0.20003998
vn -0.19574827 0.9268828 -0.3202669
vn -0.073892534 0.9268828 0.3680057
vn 0.1210767 0.9268828 -0.35528678
vn 0.24293244 0.9268828 0.28613302
vn 0.34041706 0.9268828 -0.15812813
vn 0.38712135 0.9220288 -0
vn -0.0007790923 0.99999624 -0.002629475
vn -0.0007790923 0.99999624 -0.002629475
vn 0.2673036 0.95125395 -0.15383339
vn -0.0007790923 0.99999624 -0.002629475
vn -0.0007790923 0.99999624 -0.002629475
vn 0.29167473 0.95125395 0.10020865
vn 0.29167473 0.95125395 0.10020865
vn -0.0007790923 0.99999624 -0.002629475
vn 0.19419014 0.9756251 0.10220486
vn -0.0007790923 0.99999624 -0.002629475
vn 0.07233438 0.9756251 0.2071796
vn -0.0007790923 0.99999624 -0.002629475
vn -0.049521387 0.9756251 0.21378328
vn -0.0007790923 0.99999624 -0.002629475
vn -0.24308234 0.97000563 -0
vn -0.0007790923 0.99999624 -0.002629475
vn -0.26567534 0.96406263 -0
vn -0.26567534 0.96406263 -0
vn 0.46227282 0.8781405 0.12317905
vn 0.5312688 0.8472033 -0
vn 0.24293244 0.9268828 0.28613302
vn 0.1210767 0.95125395 0.28364822
vn -0.073892534 0.95125395 0.2994258
vn -0.29323286 0.9268828 0.23431332
vn -0.4859062 0.8740109 -0
vn -0.41508865 0.90251166 -0.114778556
vn 0.34041706 0.9268828 -0.15812813
vn -0.19574827 0.95125395 -0.23832439
vn 0.1210767 0.9756251 -0.18301935
vn 0.19419014 0.95125395 -0.23959564
vn 0.023592114 0.9756251 -0.21817213
vn 0.023592114 0.95125395 -0.30750498
vn -0.17137712 0.9756251 -0.13706034
g chicken_Feed_0
f 3/3/3 2/2/2 1/1/1
f 1/1/1 2/2/2 4/4/4
f 5/5/5 2/2/2 3/3/3
f 4/4/4 2/2/2 6/6/6
f 7/7/7 2/2/2 5/5/5
f 6/6/6 2/2/2 8/8/8
f 9/9/9 2/2/2 7/7/7
f 8/8/8 2/2/2 9/9/9
f 12/12/12 11/11/11 10/10/10
f 10/10/10 11/11/11 13/13/13
f 14/14/14 11/11/11 12/12/12
f 13/13/13 11/11/11 15/15/15
f 16/16/16 11/11/11 14/14/14
f 15/15/15 11/11/11 17/17/17
f 18/18/18 11/11/11 16/16/16
f 17/17/17 11/11/11 18/18/18
f 21/21/21 20/20/20 19/19/19
f 22/22/22 21/21/21 19/19/19
f 23/23/23 21/21/21 22/22/22
f 19/19/19 20/20/20 24/24/24
f 20/20/20 25/25/25 24/24/24
f 26/26/26 23/23/23 22/22/22
f 27/27/27 23/23/23 26/26/26
f 24/24/24 25/25/25 28/28/28
f 25/25/25 29/29/29 28/28/28
f 30/30/30 27/27/27 26/26/26
f 31/31/31 27/27/27 30/30/30
f 28/28/28 29/29/29 32/32/32
f 29/29/29 33/33/33 32/32/32
f 33/33/33 31/31/31 34/34/34
f 34/34/34 31/31/31 30/30/30
f 32/32/32 33/33/33 34/34/34
f 19/19/19 24/24/24 35/35/35
f 36/36/36 19/19/19 35/35/35
f 22/22/22 19/19/19 36/36/36
f 35/35/35 24/24/24 37/37/37
f 24/24/24 28/28/28 37/37/37
f 38/38/38 22/22/22 36/36/36
f 26/26/26 22/22/22 38/38/38
f 37/37/37 28/28/28 39/39/39
f 28/28/28 32/32/32 39/39/39
f 40/40/40 26/26/26 38/38/38
f 30/30/30 26/26/26 40/40/40
f 39/39/39 32/32/32 41/41/41
f 32/32/32 34/34/34 41/41/41
f 42/42/42 30/30/30 40/40/40
f 41/41/41 34/34/34 42/42/42
f 34/34/34 30/30/30 42/42/42
f 45/45/45 44/44/44 43/43/43
f 46/46/46 45/45/45 43/43/43
f 43/43/43 44/44/44 47/47/47
f 45/45/45 46/46/46 48/48/48
f 48/48/48 46/46/46 49/49/49
f 46/46/46 50/50/50 49/49/49
f 51/51/51 49/49/49 50/50/50
f 52/52/52 51/51/51 50/50/50
f 53/53/53 51/51/51 52/52/52
f 54/54/54 53/53/53 52/52/52
f 55/55/55 53/53/53 54/54/54
f 56/56/56 55/55/55 54/54/54
f 57/57/57 55/55/55 56/56/56
f 58/58/58 57/57/57 56/56/56
f 47/47/47 59/59/59 58/58/58
f 59/59/59 57/57/57 58/58/58
f 47/47/47 60/60/60 59/59/59
f 44/44/44 60/60/60 47/47/47
f 49/49/49 61/61/61 48/48/48
f 61/61/61 62/62/62 48/48/48
f 63/63/63 61/61/61 49/49/49
f 51/51/51 63/63/63 49/49/49
f 64/64/64 63/63/63 51/51/51
f 53/53/53 64/64/64 51/51/51
f 65/65/65 64/64/64 53/53/53
f 55/55/55 65/65/65 53/53/53
f 66/66/66 65/65/65 55/55/55
f 57/57/57 66/66/66 55/55/55
f 67/67/67 66/66/66 57/57/57
f 59/59/59 67/67/67 57/57/57
f 68/68/68 67/67/67 59/59/59
f 48/48/48 62/62/62 45/45/45
f 60/60/60 68/68/68 59/59/59
f 62/62/62 69/69/69 45/45/45
f 70/70/70 68/68/68 60/60/60
f 45/45/45 69/69/69 71/71/71
f 45/45/45 71/71/71 44/44/44
f 69/69/69 72/72/72 71/71/71
f 71/71/71 73/73/73 44/44/44
f 71/71/71 72/72/72 73/73/73
f 44/44/44 73/73/73 60/60/60
f 72/72/72 74/74/74 73/73/73
f 75/75/75 70/70/70 60/60/60
f 73/73/73 75/75/75 60/60/60
f 74/74/74 70/70/70 75/75/75
f 73/73/73 74/74/74 75/75/75
