g chicken
v 58.561047 49.16601 -53.828957
v -66.255455 43.42907 2.533864
v 66.255486 43.42908 2.533868
v -58.561005 49.165997 -53.828957
v -41.710526 77.99914 -95.850174
v 41.710514 77.99914 -95.850174
v -73.45786 135.46346 57.683033
v -81.392845 146.546 9.072718
v -77.287766 151.37033 15.347426
v -77.459854 97.82958 40.62742
v -79.16725 81.83604 9.105063
v -81.34939 142.87248 -2.671664
v -77.145874 87.05846 -27.641973
v -78.71264 142.03198 -18.381748
v -68.26949 107.095604 -48.590816
v -70.99285 143.18492 -48.952343
v -68.26949 107.095604 -48.590816
v -55.080738 107.120476 -53.490658
v -58.228218 150.44476 -52.441628
v -70.99285 143.18492 -48.952343
v 18.286888 224.93054 95.210976
v 26.56468 228.0041 95.56316
v 29.314224 220.31131 95.56319
v 20.92904 218.11674 95.211
v 11.415229 219.28006 94.85879
v 13.949996 213.34532 94.8588
v -38.845028 43.005993 -17.749725
v -38.845024 50.963806 -17.749725
v -38.845024 50.963806 -1.1892817
v -38.845028 42.05152 -1.1892817
v -38.845028 30.495478 -17.749722
v -38.845028 30.495478 -1.1892781
v -38.845028 23.234917 -1.1892793
v -38.845028 23.234917 -17.749722
v -38.845028 12.210748 -17.749722
v -38.845028 12.210748 -1.1892798
v -42.847828 -2.5793525E-11 -0.8838506
v -40.651188 -5.1089525E-08 -18.788544
v -47.289253 0.15234414 40.680763
v -44.294506 11.529814 37.34131
v -8.804826 252.74414 32.160774
v -11.892116 243.08641 30.42347
v 11.892116 243.08641 30.42347
v 8.804823 252.74414 32.160774
v 53.02377 138.46313 91.057205
v 63.13696 69.274635 60.01073
v -63.13692 69.274635 60.010704
v -53.02378 138.46313 91.05719
v -47.209103 183.79128 92.8968
v 47.20911 183.79129 92.89682
v 37.58514 229.11949 94.73644
v -37.585125 229.11942 94.73638
v 24.486435 243.69177 85.15293
v -24.486454 243.69176 85.15286
v 10.038526 195.46983 110.38469
v 18.612375 214.166 86.43238
v 18.612371 190.25342 87.73483
v 10.038526 204.30672 112.16157
v -3.2840612E-07 195.49405 120.0833
v -77.145874 87.05846 -27.641973
v -65.05261 83.70384 -30.64213
v -55.080738 107.120476 -53.490658
v -68.26949 107.095604 -48.590816
v -47.797436 160.15276 -76.46414
v -4.1324675E-08 165.98222 -119.31241
v 47.797436 160.15276 -76.46413
v -61.57212 158.90651 -46.18464
v 61.572144 158.90651 -46.184612
v 70.32403 160.05583 -14.839235
v -70.32403 160.05583 -14.839256
v -70.46713 160.90431 0.38640594
v 70.46715 160.90431 0.3864094
v 47.797436 160.15276 -76.46413
v -4.1324675E-08 165.98222 -119.31241
v 19.006374 125.43223 -115.74887
v 41.710514 77.99914 -95.850174
v 61.572144 158.90651 -46.184612
v 58.561047 49.16601 -53.828957
v 66.255486 43.42908 2.533868
v 70.32403 160.05583 -14.839235
v 70.46715 160.90431 0.3864094
v 63.13696 69.274635 60.01073
v 63.868336 169.33736 10.698195
v 53.02377 138.46313 91.057205
v 47.20911 183.79129 92.89682
v 54.296295 201.20895 18.104584
v 37.58514 229.11949 94.73644
v 40.34311 233.08057 19.999529
v 24.486435 243.69177 85.15293
v 26.263227 249.97989 55.42091
v 28.040014 245.36705 25.688883
v -28.040058 245.36705 25.688828
v 40.34311 233.08057 19.999529
v 28.040014 245.36705 25.688883
v -40.343163 233.08052 19.999496
v 54.296295 201.20895 18.104584
v -54.296364 201.20892 18.104563
v -63.868385 169.33736 10.698195
v 63.868336 169.33736 10.698195
v -70.46713 160.90431 0.38640594
v 70.46715 160.90431 0.3864094
v -26.263254 249.97989 55.420845
v -28.040058 245.36705 25.688828
v 28.040014 245.36705 25.688883
v 26.263227 249.97989 55.42091
v -24.486454 243.69176 85.15286
v 24.486435 243.69177 85.15293
v -44.294506 11.529814 37.34131
v -38.845028 12.210748 -1.1892798
v -22.282963 12.210748 -1.1892798
v -16.833487 11.529814 37.34131
v -19.006382 125.43223 -115.74889
v 19.006374 125.43223 -115.74887
v -4.1324675E-08 165.98222 -119.31241
v 41.710514 77.99914 -95.850174
v -41.710526 77.99914 -95.850174
v -47.797436 160.15276 -76.46414
v -19.006382 125.43223 -115.74889
v -4.1324675E-08 165.98222 -119.31241
v -41.710526 77.99914 -95.850174
v -61.57212 158.90651 -46.18464
v -58.561005 49.165997 -53.828957
v -70.32403 160.05583 -14.839256
v -66.255455 43.42907 2.533864
v -70.46713 160.90431 0.38640594
v -63.13692 69.274635 60.010704
v -53.02378 138.46313 91.05719
v -63.868385 169.33736 10.698195
v -47.209103 183.79128 92.8968
v -54.296364 201.20892 18.104563
v -37.585125 229.11942 94.73638
v -40.343163 233.08052 19.999496
v -26.263254 249.97989 55.420845
v -24.486454 243.69176 85.15286
v -28.040058 245.36705 25.688828
v 44.294506 11.529814 37.34131
v 47.289253 0.15234414 40.680763
v 13.838735 0.15234414 40.680763
v 16.833487 11.529814 37.34131
v 8.804824 262.09384 80.30176
v 11.892116 243.08641 79.30585
v -11.892116 243.08641 79.30585
v -8.804825 262.09384 80.30176
v 22.282963 12.210748 -17.749722
v 20.476799 -5.1089525E-08 -18.788544
v 40.651188 -5.1089525E-08 -18.788544
v 38.845028 12.210748 -17.749722
v 38.845028 23.234917 -17.749722
v 22.282963 23.234917 -17.749725
v 22.282963 30.495478 -17.749723
v 38.845028 30.495478 -17.749722
v 38.845028 43.005993 -17.749725
v 22.282969 43.005993 -17.749725
v 38.845024 50.963806 -17.749725
v 22.28297 50.963806 -17.749725
v 47.289253 0.15234414 40.680763
v 44.294506 11.529814 37.34131
v 38.845028 12.210748 -1.1892798
v 42.847828 -2.5793525E-11 -0.8838506
v 38.845028 12.210748 -17.749722
v 40.651188 -5.1089525E-08 -18.788544
v 38.845028 23.234917 -1.1892793
v 38.845028 23.234917 -17.749722
v 38.845028 30.495478 -17.749722
v 38.845028 30.495478 -1.1892781
v 38.845028 42.05152 -1.1892817
v 38.845028 43.005993 -17.749725
v 38.845024 50.963806 -1.1892817
v 38.845024 50.963806 -17.749725
v 44.294506 11.529814 37.34131
v 16.833487 11.529814 37.34131
v 22.282963 12.210748 -1.1892798
v 38.845028 12.210748 -1.1892798
v 38.845028 42.05152 -1.1892817
v 22.28297 50.963806 -1.1892817
v 38.845024 50.963806 -1.1892817
v 22.282963 42.05152 -1.1892817
v 38.845028 30.495478 -1.1892781
v 22.282963 30.495478 -1.1892798
v 22.282963 23.234917 -1.1892807
v 38.845028 23.234917 -1.1892793
v 38.845028 12.210748 -1.1892798
v 22.282963 12.210748 -1.1892798
v -38.845028 42.05152 -1.1892817
v -38.845024 50.963806 -1.1892817
v -22.28297 50.963806 -1.1892817
v -22.282963 42.05152 -1.1892817
v -38.845028 30.495478 -1.1892781
v -22.282963 30.495478 -1.1892798
v -22.282963 23.234917 -1.1892807
v -38.845028 23.234917 -1.1892793
v -38.845028 12.210748 -1.1892798
v -22.282963 12.210748 -1.1892798
v 18.286888 224.93054 93.37478
v 11.415229 219.28006 94.85879
v 11.415229 219.28006 93.726974
v 18.286888 224.93054 95.210976
v 26.56468 228.0041 93.022575
v 26.56468 228.0041 95.56316
v -10.572433 219.39574 94.85879
v -13.027559 213.42757 94.8588
v -20.069822 218.10521 95.211
v -17.519073 224.95372 95.210976
v -28.483622 220.18736 95.56319
v -25.837255 227.91629 95.56316
v -13.838735 0.15234414 40.680763
v -42.847828 -2.5793525E-11 -0.8838506
v -47.289253 0.15234414 40.680763
v -18.280157 -2.5793525E-11 -0.8838513
v -20.476799 -5.1089525E-08 -18.788544
v -40.651188 -5.1089525E-08 -18.788544
v -16.833487 11.529814 37.34131
v -18.280157 -2.5793525E-11 -0.8838513
v -13.838735 0.15234414 40.680763
v -22.282963 12.210748 -1.1892798
v -20.476799 -5.1089525E-08 -18.788544
v -22.282963 12.210748 -17.749722
v -22.282963 23.234917 -17.749725
v -22.282963 23.234917 -1.1892807
v -22.282963 30.495478 -1.1892798
v -22.282963 30.495478 -17.749723
v -22.282969 43.005993 -17.749725
v -22.282963 42.05152 -1.1892817
v -22.28297 50.963806 -17.749725
v -22.28297 50.963806 -1.1892817
v -22.282963 12.210748 -17.749722
v -40.651188 -5.1089525E-08 -18.788544
v -20.476799 -5.1089525E-08 -18.788544
v -38.845028 12.210748 -17.749722
v -38.845028 23.234917 -17.749722
v -22.282963 23.234917 -17.749725
v -22.282963 30.495478 -17.749723
v -38.845028 30.495478 -17.749722
v -38.845028 43.005993 -17.749725
v -22.282969 43.005993 -17.749725
v -38.845024 50.963806 -17.749725
v -22.28297 50.963806 -17.749725
v 11.415229 219.28006 93.726974
v 11.415229 219.28006 94.85879
v 13.949996 213.34532 94.8588
v 13.949996 213.34532 93.726974
v 22.282963 42.05152 -1.1892817
v 22.28297 50.963806 -17.749725
v 22.28297 50.963806 -1.1892817
v 22.282969 43.005993 -17.749725
v 22.282963 30.495478 -1.1892798
v 22.282963 30.495478 -17.749723
v 22.282963 23.234917 -17.749725
v 22.282963 23.234917 -1.1892807
v 22.282963 12.210748 -1.1892798
v 22.282963 12.210748 -17.749722
v 20.476799 -5.1089525E-08 -18.788544
v 18.280157 -2.5793525E-11 -0.8838513
v 16.833487 11.529814 37.34131
v 13.838735 0.15234414 40.680763
v 6.734131 179.55714 91.43021
v -6.734131 179.55714 91.43021
v -6.734131 176.17177 99.061646
v 6.734131 176.17177 99.061646
v 73.45786 135.46346 57.683033
v 77.287766 151.37033 15.347426
v 81.392845 146.546 9.072718
v 77.459854 97.82958 40.62742
v 79.16725 81.83604 9.105063
v 81.34939 142.87248 -2.671664
v 77.145874 87.05846 -27.641973
v 78.71264 142.03198 -18.381748
v 68.26949 107.095604 -48.590816
v 70.99285 143.18492 -48.952343
v -55.080738 107.120476 -53.490658
v -67.05749 149.10907 -18.973682
v -58.228218 150.44476 -52.441628
v -65.05261 83.70384 -30.64213
v -69.86772 150.46251 -2.03177
v -67.241066 77.42325 10.763747
v -70.0022 154.01852 8.718934
v -65.27175 95.738266 46.99202
v -60.639618 139.74225 66.524765
v -66.45721 157.38737 14.430607
v -44.294506 11.529814 37.34131
v -16.833487 11.529814 37.34131
v -13.838735 0.15234414 40.680763
v -47.289253 0.15234414 40.680763
v 77.145874 87.05846 -27.641973
v 68.26949 107.095604 -48.590816
v 55.080738 107.120476 -53.49066
v 65.05261 83.70384 -30.642138
v 70.99285 143.18492 -48.952343
v 67.05749 149.10907 -18.973682
v 58.228218 150.44476 -52.441628
v 78.71264 142.03198 -18.381748
v 69.86772 150.46251 -2.03177
v 81.34939 142.87248 -2.671664
v 70.0022 154.01852 8.718934
v 81.392845 146.546 9.072718
v 66.45721 157.38737 14.430607
v 77.287766 151.37033 15.347426
v 68.26949 107.095604 -48.590816
v 70.99285 143.18492 -48.952343
v 58.228218 150.44476 -52.441628
v 55.080738 107.120476 -53.49066
v -70.99285 143.18492 -48.952343
v -58.228218 150.44476 -52.441628
v -67.05749 149.10907 -18.973682
v -78.71264 142.03198 -18.381748
v -69.86772 150.46251 -2.03177
v -81.34939 142.87248 -2.671664
v -70.0022 154.01852 8.718934
v -81.392845 146.546 9.072718
v -66.45721 157.38737 14.430607
v -77.287766 151.37033 15.347426
v 77.287766 151.37033 15.347426
v 73.45786 135.46346 57.683033
v 60.639618 139.74225 66.524765
v 66.45721 157.38737 14.430607
v 77.459854 97.82958 40.62742
v 79.16725 81.83604 9.105063
v 67.241066 77.42325 10.763747
v 65.27175 95.738266 46.99202
v 79.16725 81.83604 9.105063
v 77.145874 87.05846 -27.641973
v 65.05261 83.70384 -30.642138
v 67.241066 77.42325 10.763747
v 42.847828 -2.5793525E-11 -0.8838506
v 40.651188 -5.1089525E-08 -18.788544
v 20.476799 -5.1089525E-08 -18.788544
v 18.280157 -2.5793525E-11 -0.8838513
v 13.838735 0.15234414 40.680763
v 47.289253 0.15234414 40.680763
v 70.0022 154.01852 8.718934
v 66.45721 157.38737 14.430607
v 60.639618 139.74225 66.524765
v 65.27175 95.738266 46.99202
v 67.241066 77.42325 10.763747
v 69.86772 150.46251 -2.03177
v 65.05261 83.70384 -30.642138
v 67.05749 149.10907 -18.973682
v 55.080738 107.120476 -53.49066
v 58.228218 150.44476 -52.441628
v 10.038526 204.30672 112.16157
v -18.612375 214.166 86.43238
v 18.612375 214.166 86.43238
v -10.038524 204.30672 112.16157
v -3.2840612E-07 195.49405 120.0833
v -77.287766 151.37033 15.347426
v -66.45721 157.38737 14.430607
v -60.639618 139.74225 66.524765
v -73.45786 135.46346 57.683033
v -73.45786 135.46346 57.683033
v -60.639618 139.74225 66.524765
v -65.27175 95.738266 46.99202
v -77.459854 97.82958 40.62742
v -77.459854 97.82958 40.62742
v -65.27175 95.738266 46.99202
v -67.241066 77.42325 10.763747
v -79.16725 81.83604 9.105063
v 73.45786 135.46346 57.683033
v 77.459854 97.82958 40.62742
v 65.27175 95.738266 46.99202
v 60.639618 139.74225 66.524765
v -10.038522 195.46983 110.38469
v -18.612375 190.25342 87.73483
v -18.612375 214.166 86.43238
v -10.038524 204.30672 112.16157
v -3.2840612E-07 195.49405 120.0833
v -8.804826 261.2222 54.89251
v -11.892116 243.08641 30.42347
v -8.804826 252.74414 32.160774
v -11.892116 243.08641 54.864655
v -11.892116 243.08641 79.30585
v -8.804825 262.09384 80.30176
v 10.038526 195.46983 110.38469
v -10.038522 195.46983 110.38469
v -3.2840612E-07 195.49405 120.0833
v -18.612375 190.25342 87.73483
v 18.612371 190.25342 87.73483
v -8.804826 261.2222 54.89251
v -8.804826 252.74414 32.160774
v 8.804823 252.74414 32.160774
v 8.804823 261.2222 54.89251
v 8.804824 262.09384 80.30176
v -8.804825 262.09384 80.30176
v 63.13696 69.274635 60.01073
v 66.255486 43.42908 2.533868
v -66.255455 43.42907 2.533864
v -63.13692 69.274635 60.010704
v 8.804823 261.2222 54.89251
v 8.804823 252.74414 32.160774
v 11.892116 243.08641 30.42347
v 11.892116 243.08641 54.864655
v 11.892116 243.08641 79.30585
v 8.804824 262.09384 80.30176
v -8.237587 195.66505 101.46669
v -6.734131 176.17177 99.061646
v -6.734131 179.55714 91.43021
v -8.237587 194.96817 91.43021
v 20.92904 218.11674 95.211
v 29.314224 220.31131 95.56319
v 29.31423 220.31131 93.02259
v 20.92904 218.11674 93.37479
v 13.949996 213.34532 93.726974
v 13.949996 213.34532 94.8588
v -20.069822 218.10521 95.211
v -28.483622 220.18736 93.02259
v -28.483622 220.18736 95.56319
v -20.069822 218.10521 93.37479
v -13.027559 213.42757 93.72699
v -13.027559 213.42757 94.8588
v 26.56468 228.0041 95.56316
v 26.56468 228.0041 93.022575
v 29.31423 220.31131 93.02259
v 29.314224 220.31131 95.56319
v -25.83725 227.91629 93.022575
v -17.519073 224.95372 95.210976
v -25.837255 227.91629 95.56316
v -17.519077 224.95372 93.37478
v -10.572433 219.39574 94.85879
v -10.572433 219.39574 93.72699
v -10.572433 219.39574 93.72699
v -13.027559 213.42757 93.72699
v -13.027559 213.42757 94.8588
v -10.572433 219.39574 94.85879
v -25.837255 227.91629 95.56316
v -28.483622 220.18736 95.56319
v -28.483622 220.18736 93.02259
v -25.83725 227.91629 93.022575
v 8.237587 194.96817 91.43021
v 6.734131 179.55714 91.43021
v 6.734131 176.17177 99.061646
v 8.237587 195.66505 101.46669
v -79.16725 81.83604 9.105063
v -67.241066 77.42325 10.763747
v -65.05261 83.70384 -30.64213
v -77.145874 87.05846 -27.641973
v 8.237587 195.66505 101.46669
v 6.734131 176.17177 99.061646
v -6.734131 176.17177 99.061646
v -8.237587 195.66505 101.46669
vt 0.5941261 0.028951466
vt 0.5941261 0.028951466
vt 0.5941261 0.028951466
vt 0.5941261 0.028951466
vt 0.5941261 0.028951466
vt 0.5941261 0.028951466
vt 0.5941261 0.028951466
vt 0.5941261 0.028951466
vt 0.5941261 0.028951466
vt 0.5941261 0.028951466
vt 0.5941261 0.028951466
vt 0.5941261 0.028951466
vt 0.5941261 0.028951466
vt 0.5941261 0.028951466
vt 0.5941261 0.028951466
vt 0.5941261 0.028951466
vt 0.5941261 0.028951466
vt 0.5941261 0.028951466
vt 0.5941261 0.028951466
vt 0.5941261 0.028951466
vt 0.9066261 0.028951466
vt 0.9066261 0.028951466
vt 0.9066261 0.028951466
vt 0.9066261 0.028951466
vt 0.9066261 0.028951466
vt 0.9066261 0.028951466
vt 0.40645397 0.9633317
vt 0.40645397 0.9633317
vt 0.40645397 0.9633317
vt 0.40645397 0.9633317
vt 0.40645397 0.9633317
vt 0.40645397 0.9633317
vt 0.40645397 0.9633317
vt 0.40645397 0.9633317
vt 0.40645397 0.9633317
vt 0.40645397 0.9633317
vt 0.40645397 0.9633317
vt 0.40645397 0.9633317
vt 0.40645397 0.9633317
vt 0.40645397 0.9633317
vt 0.2776602 0.84360784
vt 0.2776602 0.84360784
vt 0.2776602 0.84360784
vt 0.2776602 0.84360784
vt 0.5941261 0.028951466
vt 0.5941261 0.028951466
vt 0.5941261 0.028951466
vt 0.5941261 0.028951466
vt 0.5941261 0.028951466
vt 0.5941261 0.028951466
vt 0.5941261 0.028951466
vt 0.5941261 0.028951466
vt 0.5941261 0.028951466
vt 0.5941261 0.028951466
vt 0.40645397 0.9633317
vt 0.40645397 0.9633317
vt 0.40645397 0.9633317
vt 0.40645397 0.9633317
vt 0.40645397 0.9633317
vt 0.5941261 0.028951466
vt 0.5941261 0.028951466
vt 0.5941261 0.028951466
vt 0.5941261 0.028951466
vt 0.5941261 0.028951466
vt 0.5941261 0.028951466
vt 0.5941261 0.028951466
vt 0.5941261 0.028951466
vt 0.5941261 0.028951466
vt 0.5941261 0.028951466
vt 0.5941261 0.028951466
vt 0.5941261 0.028951466
vt 0.5941261 0.028951466
vt 0.5941261 0.028951466
vt 0.5941261 0.028951466
vt 0.5941261 0.028951466
vt 0.5941261 0.028951466
vt 0.5941261 0.028951466
vt 0.5941261 0.028951466
vt 0.5941261 0.028951466
vt 0.5941261 0.028951466
vt 0.5941261 0.028951466
vt 0.5941261 0.028951466
vt 0.5941261 0.028951466
vt 0.5941261 0.028951466
vt 0.5941261 0.028951466
vt 0.5941261 0.028951466
vt 0.5941261 0.028951466
vt 0.5941261 0.028951466
vt 0.5941261 0.028951466
vt 0.5941261 0.028951466
vt 0.5941261 0.028951466
vt 0.5941261 0.028951466
vt 0.5941261 0.028951466
vt 0.5941261 0.028951466
vt 0.5941261 0.028951466
vt 0.5941261 0.028951466
vt 0.5941261 0.028951466
vt 0.5941261 0.028951466
vt 0.5941261 0.028951466
vt 0.5941261 0.028951466
vt 0.5941261 0.028951466
vt 0.5941261 0.028951466
vt 0.5941261 0.028951466
vt 0.5941261 0.028951466
vt 0.5941261 0.028951466
vt 0.5941261 0.028951466
vt 0.5941261 0.028951466
vt 0.40645397 0.9633317
vt 0.40645397 0.9633317
vt 0.40645397 0.9633317
vt 0.40645397 0.9633317
vt 0.5941261 0.028951466
vt 0.5941261 0.028951466
vt 0.5941261 0.028951466
vt 0.5941261 0.028951466
vt 0.5941261 0.028951466
vt 0.5941261 0.028951466
vt 0.5941261 0.028951466
vt 0.5941261 0.028951466
vt 0.5941261 0.028951466
vt 0.5941261 0.028951466
vt 0.5941261 0.028951466
vt 0.5941261 0.028951466
vt 0.5941261 0.028951466
vt 0.5941261 0.028951466
vt 0.5941261 0.028951466
vt 0.5941261 0.028951466
vt 0.5941261 0.028951466
vt 0.5941261 0.028951466
vt 0.5941261 0.028951466
vt 0.5941261 0.028951466
vt 0.5941261 0.028951466
vt 0.5941261 0.028951466
vt 0.5941261 0.028951466
vt 0.5941261 0.028951466
vt 0.40645397 0.9633317
vt 0.40645397 0.9633317
vt 0.40645397 0.9633317
vt 0.40645397 0.9633317
vt 0.2776602 0.84360784
vt 0.2776602 0.84360784
vt 0.2776602 0.84360784
vt 0.2776602 0.84360784
vt 0.40645397 0.9633317
vt 0.40645397 0.9633317
vt 0.40645397 0.9633317
vt 0.40645397 0.9633317
vt 0.40645397 0.9633317
vt 0.40645397 0.9633317
vt 0.40645397 0.9633317
vt 0.40645397 0.9633317
vt 0.40645397 0.9633317
vt 0.40645397 0.9633317
vt 0.40645397 0.9633317
vt 0.40645397 0.9633317
vt 0.40645397 0.9633317
vt 0.40645397 0.9633317
vt 0.40645397 0.9633317
vt 0.40645397 0.9633317
vt 0.40645397 0.9633317
vt 0.40645397 0.9633317
vt 0.40645397 0.9633317
vt 0.40645397 0.9633317
vt 0.40645397 0.9633317
vt 0.40645397 0.9633317
vt 0.40645397 0.9633317
vt 0.40645397 0.9633317
vt 0.40645397 0.9633317
vt 0.40645397 0.9633317
vt 0.40645397 0.9633317
vt 0.40645397 0.9633317
vt 0.40645397 0.9633317
vt 0.40645397 0.9633317
vt 0.40645397 0.9633317
vt 0.40645397 0.9633317
vt 0.40645397 0.9633317
vt 0.40645397 0.9633317
vt 0.40645397 0.9633317
vt 0.40645397 0.9633317
vt 0.40645397 0.9633317
vt 0.40645397 0.9633317
vt 0.40645397 0.9633317
vt 0.40645397 0.9633317
vt 0.40645397 0.9633317
vt 0.40645397 0.9633317
vt 0.40645397 0.9633317
vt 0.40645397 0.9633317
vt 0.40645397 0.9633317
vt 0.40645397 0.9633317
vt 0.40645397 0.9633317
vt 0.40645397 0.9633317
vt 0.40645397 0.9633317
vt 0.40645397 0.9633317
vt 0.9066261 0.028951466
vt 0.9066261 0.028951466
vt 0.9066261 0.028951466
vt 0.9066261 0.028951466
vt 0.9066261 0.028951466
vt 0.9066261 0.028951466
vt 0.9066261 0.028951466
vt 0.9066261 0.028951466
vt 0.9066261 0.028951466
vt 0.9066261 0.028951466
vt 0.9066261 0.028951466
vt 0.9066261 0.028951466
vt 0.40645397 0.9633317
vt 0.40645397 0.9633317
vt 0.40645397 0.9633317
vt 0.40645397 0.9633317
vt 0.40645397 0.9633317
vt 0.40645397 0.9633317
vt 0.40645397 0.9633317
vt 0.40645397 0.9633317
vt 0.40645397 0.9633317
vt 0.40645397 0.9633317
vt 0.40645397 0.9633317
vt 0.40645397 0.9633317
vt 0.40645397 0.9633317
vt 0.40645397 0.9633317
vt 0.40645397 0.9633317
vt 0.40645397 0.9633317
vt 0.40645397 0.9633317
vt 0.40645397 0.9633317
vt 0.40645397 0.9633317
vt 0.40645397 0.9633317
vt 0.40645397 0.9633317
vt 0.40645397 0.9633317
vt 0.40645397 0.9633317
vt 0.40645397 0.9633317
vt 0.40645397 0.9633317
vt 0.40645397 0.9633317
vt 0.40645397 0.9633317
vt 0.40645397 0.9633317
vt 0.40645397 0.9633317
vt 0.40645397 0.9633317
vt 0.40645397 0.9633317
vt 0.40645397 0.9633317
vt 0.9066261 0.028951466
vt 0.9066261 0.028951466
vt 0.9066261 0.028951466
vt 0.9066261 0.028951466
vt 0.40645397 0.9633317
vt 0.40645397 0.9633317
vt 0.40645397 0.9633317
vt 0.40645397 0.9633317
vt 0.40645397 0.9633317
vt 0.40645397 0.9633317
vt 0.40645397 0.9633317
vt 0.40645397 0.9633317
vt 0.40645397 0.9633317
vt 0.40645397 0.9633317
vt 0.40645397 0.9633317
vt 0.40645397 0.9633317
vt 0.40645397 0.9633317
vt 0.40645397 0.9633317
vt 0.2776602 0.84360784
vt 0.2776602 0.84360784
vt 0.2776602 0.84360784
vt 0.2776602 0.84360784
vt 0.5941261 0.028951466
vt 0.5941261 0.028951466
vt 0.5941261 0.028951466
vt 0.5941261 0.028951466
vt 0.5941261 0.028951466
vt 0.5941261 0.028951466
vt 0.5941261 0.028951466
vt 0.5941261 0.028951466
vt 0.5941261 0.028951466
vt 0.5941261 0.028951466
vt 0.5941261 0.028951466
vt 0.5941261 0.028951466
vt 0.5941261 0.028951466
vt 0.5941261 0.028951466
vt 0.5941261 0.028951466
vt 0.5941261 0.028951466
vt 0.5941261 0.028951466
vt 0.5941261 0.028951466
vt 0.5941261 0.028951466
vt 0.5941261 0.028951466
vt 0.40645397 0.9633317
vt 0.40645397 0.9633317
vt 0.40645397 0.9633317
vt 0.40645397 0.9633317
vt 0.5941261 0.028951466
vt 0.5941261 0.028951466
vt 0.5941261 0.028951466
vt 0.5941261 0.028951466
vt 0.5941261 0.028951466
vt 0.5941261 0.028951466
vt 0.5941261 0.028951466
vt 0.5941261 0.028951466
vt 0.5941261 0.028951466
vt 0.5941261 0.028951466
vt 0.5941261 0.028951466
vt 0.5941261 0.028951466
vt 0.5941261 0.028951466
vt 0.5941261 0.028951466
vt 0.5941261 0.028951466
vt 0.5941261 0.028951466
vt 0.5941261 0.028951466
vt 0.5941261 0.028951466
vt 0.5941261 0.028951466
vt 0.5941261 0.028951466
vt 0.5941261 0.028951466
vt 0.5941261 0.028951466
vt 0.5941261 0.028951466
vt 0.5941261 0.028951466
vt 0.5941261 0.028951466
vt 0.5941261 0.028951466
vt 0.5941261 0.028951466
vt 0.5941261 0.028951466
vt 0.5941261 0.028951466
vt 0.5941261 0.028951466
vt 0.5941261 0.028951466
vt 0.5941261 0.028951466
vt 0.5941261 0.028951466
vt 0.5941261 0.028951466
vt 0.5941261 0.028951466
vt 0.5941261 0.028951466
vt 0.5941261 0.028951466
vt 0.5941261 0.028951466
vt 0.5941261 0.028951466
vt 0.5941261 0.028951466
vt 0.40645397 0.9633317
vt 0.40645397 0.9633317
vt 0.40645397 0.9633317
vt 0.40645397 0.9633317
vt 0.40645397 0.9633317
vt 0.40645397 0.9633317
vt 0.5941261 0.028951466
vt 0.5941261 0.028951466
vt 0.5941261 0.028951466
vt 0.5941261 0.028951466
vt 0.5941261 0.028951466
vt 0.5941261 0.028951466
vt 0.5941261 0.028951466
vt 0.5941261 0.028951466
vt 0.5941261 0.028951466
vt 0.5941261 0.028951466
vt 0.40645397 0.9633317
vt 0.40645397 0.9633317
vt 0.40645397 0.9633317
vt 0.40645397 0.9633317
vt 0.40645397 0.9633317
vt 0.5941261 0.028951466
vt 0.5941261 0.028951466
vt 0.5941261 0.028951466
vt 0.5941261 0.028951466
vt 0.5941261 0.028951466
vt 0.5941261 0.028951466
vt 0.5941261 0.028951466
vt 0.5941261 0.028951466
vt 0.5941261 0.028951466
vt 0.5941261 0.028951466
vt 0.5941261 0.028951466
vt 0.5941261 0.028951466
vt 0.5941261 0.028951466
vt 0.5941261 0.028951466
vt 0.5941261 0.028951466
vt 0.5941261 0.028951466
vt 0.40645397 0.9633317
vt 0.40645397 0.9633317
vt 0.40645397 0.9633317
vt 0.40645397 0.9633317
vt 0.40645397 0.9633317
vt 0.2776602 0.84360784
vt 0.2776602 0.84360784
vt 0.2776602 0.84360784
vt 0.2776602 0.84360784
vt 0.2776602 0.84360784
vt 0.2776602 0.84360784
vt 0.40645397 0.9633317
vt 0.40645397 0.9633317
vt 0.40645397 0.9633317
vt 0.40645397 0.9633317
vt 0.40645397 0.9633317
vt 0.2776602 0.84360784
vt 0.2776602 0.84360784
vt 0.2776602 0.84360784
vt 0.2776602 0.84360784
vt 0.2776602 0.84360784
vt 0.2776602 0.84360784
vt 0.5941261 0.028951466
vt 0.5941261 0.028951466
vt 0.5941261 0.028951466
vt 0.5941261 0.028951466
vt 0.2776602 0.84360784
vt 0.2776602 0.84360784
vt 0.2776602 0.84360784
vt 0.2776602 0.84360784
vt 0.2776602 0.84360784
vt 0.2776602 0.84360784
vt 0.2776602 0.84360784
vt 0.2776602 0.84360784
vt 0.2776602 0.84360784
vt 0.2776602 0.84360784
vt 0.9066261 0.028951466
vt 0.9066261 0.028951466
vt 0.9066261 0.028951466
vt 0.9066261 0.028951466
vt 0.9066261 0.028951466
vt 0.9066261 0.028951466
vt 0.9066261 0.028951466
vt 0.9066261 0.028951466
vt 0.9066261 0.028951466
vt 0.9066261 0.028951466
vt 0.9066261 0.028951466
vt 0.9066261 0.028951466
vt 0.9066261 0.028951466
vt 0.9066261 0.028951466
vt 0.9066261 0.028951466
vt 0.9066261 0.028951466
vt 0.9066261 0.028951466
vt 0.9066261 0.028951466
vt 0.9066261 0.028951466
vt 0.9066261 0.028951466
vt 0.9066261 0.028951466
vt 0.9066261 0.028951466
vt 0.9066261 0.028951466
vt 0.9066261 0.028951466
vt 0.9066261 0.028951466
vt 0.9066261 0.028951466
vt 0.9066261 0.028951466
vt 0.9066261 0.028951466
vt 0.9066261 0.028951466
vt 0.9066261 0.028951466
vt 0.2776602 0.84360784
vt 0.2776602 0.84360784
vt 0.2776602 0.84360784
vt 0.2776602 0.84360784
vt 0.5941261 0.028951466
vt 0.5941261 0.028951466
vt 0.5941261 0.028951466
vt 0.5941261 0.028951466
vt 0.2776602 0.84360784
vt 0.2776602 0.84360784
vt 0.2776602 0.84360784
vt 0.2776602 0.84360784
vn -0 -0.9516594 -0.30715546
vn -0 -0.9948597 -0.10126248
vn -0 -0.9948597 -0.10126248
vn -0 -0.9516594 -0.30715552
vn -0 -0.8245587 -0.56577647
vn -0 -0.8245587 -0.56577647
vn -0.9818579 0.06998602 0.17622988
vn -0.988376 0.099558435 0.11489575
vn -0.87087864 0.42893302 0.23997241
vn -0.9938019 -0.008407486 0.1108477
vn -0.99916446 -0.040844835 0.0014599172
vn -0.99779344 -0.025816666 -0.061170746
vn -0.9811063 -0.010430364 -0.19318773
vn -0.9747038 -0.014315059 -0.2230416
vn -0.94535804 -0.0006684243 -0.3260335
vn -0.9661272 -0.075377956 -0.24681236
vn -0.32953057 -0.007535028 -0.94411486
vn -0.348264 -0.002599853 -0.9373929
vn -0.27661952 -0.021267686 -0.96074414
vn -0.24847959 -0.028450452 -0.9682192
vn -0.03825836 -0.014350674 0.9991648
vn -0.037501432 -0.013337692 0.99920756
vn -0.037797 -0.014044901 0.9991867
vn -0.038377404 -0.014952657 0.99915147
vn -0.03892045 -0.015802044 0.9991173
vn -0.039012853 -0.01656298 0.9991014
vn -1 0 0
vn -1 0 0
vn -1 0 0
vn -1 0 0
vn -1 0 0
vn -1 0 0
vn -1 0 0
vn -1 0 0
vn -0.9929395 0.112357415 -0.038040157
vn -0.9786971 0.20233104 -0.034843363
vn -0.9570883 0.27940905 -0.0768934
vn -0.98052084 0.15526788 -0.120294265
vn -0.96330076 0.23700225 -0.12602188
vn -0.96738607 0.21557099 -0.13301635
vn -0 0.17704612 -0.9842026
vn -0 0.17704612 -0.9842026
vn -0 0.17704612 -0.9842026
vn -0 0.17704612 -0.9842026
vn -0 -0.24461465 0.9696204
vn -0 -0.40939572 0.9123569
vn -0 -0.40939572 0.9123569
vn -0 -0.24461459 0.9696204
vn -0 -0.040550847 0.9991774
vn -0 -0.040550847 0.9991774
vn -0 0.1687407 0.98566043
vn -0 0.16874084 0.98566043
vn -0 0.5494751 0.8355101
vn -0 0.5494751 0.8355101
vn 0.86313045 -0.07738392 0.49901652
vn 0.9415072 -3.135065E-05 0.33699268
vn 0.9365135 0.019067358 0.3501127
vn 0.87696135 -0.09473304 0.471131
vn 0.6874915 -0.14315343 0.71194285
vn -0.32593635 -0.59161323 -0.73740035
vn -0.3438261 -0.57669175 -0.74108726
vn -0.29133463 -0.6191497 -0.729231
vn -0.26732177 -0.63726395 -0.7227958
vn -0 0.9977937 0.06639172
vn -0 0.99087185 0.1348072
vn -0 0.9977937 0.06639171
vn -0 0.9999765 -0.006859321
vn -0 0.9999765 -0.0068593323
vn -0 0.99889153 -0.04707217
vn -0 0.99889153 -0.04707216
vn -0 0.9984509 -0.055640686
vn -0 0.9984509 -0.055640686
vn 0.83575374 0.0960917 -0.54063123
vn 0.6631634 0.24879883 -0.7059132
vn 0.72099555 0.16391349 -0.67327386
vn 0.88677466 0.032235153 -0.4610765
vn 0.9497601 -0.020620085 -0.31229874
vn 0.9723459 -0.010427881 -0.23331243
vn 0.99814427 -0.031770635 -0.051948745
vn 0.9877466 -0.056148972 -0.1456158
vn 0.97886467 0.06786127 0.1929218
vn 0.99237263 0.017012209 0.12209481
vn 0.9509844 0.17886434 0.25226176
vn 0.98134387 0.09310857 0.16821113
vn 0.972475 0.17256708 0.1565668
vn 0.94882935 0.29375735 0.11588571
vn 0.88883746 0.44774234 0.097441114
vn 0.8535748 0.5198027 0.03485961
vn 0.75847894 0.64686185 0.079243235
vn 0.8689366 0.4811776 0.11583354
vn 0.68824786 0.722004 -0.07088719
vn -0 0.42019197 -0.90743524
vn -0 0.16856775 -0.98569006
vn -0 0.42019552 -0.90743357
vn -0 0.16856666 -0.9856902
vn -0 0.16269726 -0.98667604
vn -0 0.1626973 -0.98667604
vn -0 0.59169936 -0.80615866
vn -0 0.5916997 -0.8061585
vn -0 0.77409977 -0.63306355
vn -0 0.77409977 -0.63306355
vn -0 0.9997918 0.020406315
vn -0 0.9881777 -0.15331295
vn -0 0.9881777 -0.15331295
vn -0 0.9997918 0.020406637
vn -0 0.97835857 0.20691636
vn -0 0.97835857 0.20691636
vn -0 0.99984384 0.017669795
vn -0 0.99984384 0.017669795
vn -0 0.99984384 0.017669795
vn -0 0.99984384 0.017669795
vn -0 -0.2811902 -0.959652
vn -0 -0.2811902 -0.959652
vn -0 -0.087542444 -0.99616075
vn -0 -0.3868491 -0.92214304
vn -0 -0.3868491 -0.92214304
vn -0.83575386 0.09609165 -0.5406309
vn -0.7209956 0.16391358 -0.6732738
vn -0.6631633 0.24879938 -0.70591307
vn -0.88677496 0.03223489 -0.46107596
vn -0.9433089 0.0056032976 -0.33186877
vn -0.9681875 -0.028194705 -0.24863237
vn -0.991475 -0.028590875 -0.12712167
vn -0.9981395 -0.045383394 -0.04071793
vn -0.98991966 0.08357176 0.1143447
vn -0.9921523 0.001991563 0.12501936
vn -0.97605556 0.09860606 0.19388738
vn -0.92785716 0.30245483 0.21817927
vn -0.97247475 0.17256735 0.15656781
vn -0.9488292 0.29375765 0.11588668
vn -0.8939447 0.43008944 0.12603983
vn -0.8550885 0.5178516 0.0255624
vn -0.7885551 0.6118957 0.061355826
vn -0.6634623 0.7230065 0.19256021
vn -0.68824756 0.7220045 -0.07088641
vn -0 0.28163418 0.95952183
vn -0 0.28163418 0.95952183
vn -0 0.28163418 0.95952183
vn -0 0.28163418 0.95952183
vn -0 -0.052324086 0.99863017
vn -0 -0.052324086 0.99863017
vn -0 -0.052324086 0.99863017
vn -0 -0.052324086 0.99863017
vn -0 0.044310164 -0.99901783
vn -0 0.084768236 -0.9964007
vn -0 0.084768236 -0.9964007
vn -0 0.04431016 -0.99901783
vn -0 0 -1
vn -0 0 -1
vn -0 0 -1
vn -0 0 -1
vn -0 0 -1
vn -0 0 -1
vn -0 0 -1
vn -0 0 -1
vn 0.96330076 0.23700222 -0.12602186
vn 0.96738607 0.21557097 -0.13301636
vn 0.9787038 0.20229447 -0.034867823
vn 0.9570883 0.27940905 -0.07689339
vn 0.9929395 0.112357415 -0.038040165
vn 0.98052084 0.15526788 -0.12029428
vn 1 0 0
vn 1 0 0
vn 1 0 0
vn 1 0 0
vn 1 0 0
vn 1 0 0
vn 1 0 0
vn 1 0 0
vn -0 0.99984384 0.017669793
vn -0 0.99984384 0.017669793
vn -0 0.99984384 0.017669793
vn -0 0.99984384 0.017669793
vn -0 0 1
vn -0 0 1
vn -0 0 1
vn -0 0 1
vn -0 0 1
vn -0 0 1
vn -0 0 1
vn -0 0 1
vn -0 0 1
vn -0 0 1
vn -0 0 1
vn -0 0 1
vn -0 0 1
vn -0 0 1
vn -0 0 1
vn -0 0 1
vn -0 0 1
vn -0 0 1
vn -0 0 1
vn -0 0 1
vn -0.49480522 0.86900395 0
vn -0.6351349 0.7724012 0
vn -0.6351349 0.7724012 0
vn -0.49480525 0.86900383 0
vn -0.34808415 0.9374633 0
vn -0.34808415 0.9374633 0
vn 0.039128553 -0.01528013 0.9991173
vn 0.03923113 -0.016039763 0.9991014
vn 0.038784064 -0.0148688285 0.999137
vn 0.038493045 -0.014314824 0.99915636
vn 0.037981477 -0.013537819 0.9991867
vn 0.0377146 -0.012922527 0.99920505
vn -0 -0.9999933 0.0036652123
vn -0 -0.9999981 0.0019665852
vn -0 -0.9999933 0.0036652123
vn -0 -0.9999981 0.001966585
vn -0 -1 0
vn -0 -1 0
vn 0.9650517 0.23857379 -0.108433165
vn 0.9467581 0.29875684 -0.11997257
vn 0.968895 0.22439466 -0.10435227
vn 0.98061967 0.18435912 -0.06630881
vn 0.97533834 0.21516433 -0.04918743
vn 0.99716336 0.07526694 0
vn 1 0 0
vn 1 0 0
vn 1 0 0
vn 1 0 0
vn 1 0 0
vn 1 0 0
vn 1 0 0
vn 1 0 0
vn -0 0.04431017 -0.99901783
vn -0 0.08476825 -0.9964007
vn -0 0.08476825 -0.9964007
vn -0 0.044310167 -0.99901783
vn -0 0 -1
vn -0 0 -1
vn -0 0 -1
vn -0 0 -1
vn -0 0 -1
vn -0 0 -1
vn -0 0 -1
vn -0 0 -1
vn -0.9196315 -0.39278215 0
vn -0.9196315 -0.39278215 0
vn -0.9196315 -0.39278215 0
vn -0.9196315 -0.39278215 0
vn -1 0 0
vn -1 0 0
vn -1 0 0
vn -1 0 0
vn -1 0 0
vn -1 0 0
vn -1 0 0
vn -1 0 0
vn -0.98061967 0.1843591 -0.0663088
vn -0.99716336 0.075266965 0
vn -0.97533834 0.21516433 -0.04918742
vn -0.9467581 0.29875684 -0.11997259
vn -0.96505 0.23855989 -0.108479075
vn -0.968895 0.22439466 -0.10435228
vn -0 -0.9140945 -0.40550113
vn -0 -0.9140945 -0.40550113
vn -0 -0.9140945 -0.40550113
vn -0 -0.9140945 -0.40550113
vn 0.9818579 0.069986016 0.17622988
vn 0.87087864 0.42893302 0.23997243
vn 0.988376 0.09955842 0.11489575
vn 0.9938019 -0.008407494 0.11084771
vn 0.99916446 -0.040844835 0.0014599581
vn 0.99779344 -0.025816662 -0.0611707
vn 0.9811064 -0.010430362 -0.19318767
vn 0.9747038 -0.01431502 -0.2230416
vn 0.94535804 -0.00066841935 -0.3260335
vn 0.9661272 -0.075377956 -0.2468125
vn 0.941897 -0.0073981956 0.33582044
vn 0.97457254 0.012022666 0.22374947
vn 0.9643151 0.06383533 0.2569466
vn 0.98138636 0.00971587 0.19179763
vn 0.9976513 0.026671639 0.06309123
vn 0.9991842 0.040310208 -0.0024439357
vn 0.9886769 -0.100517154 -0.111420155
vn 0.993818 0.007922685 -0.11073862
vn 0.9830351 -0.05879392 -0.17373909
vn 0.8485373 -0.46510658 -0.25230995
vn -0 0.28163415 0.95952183
vn -0 0.28163415 0.95952183
vn -0 0.28163415 0.95952183
vn -0 0.28163415 0.95952183
vn 0.3259365 -0.5916132 -0.73740035
vn 0.26732188 -0.6372639 -0.7227958
vn 0.29133478 -0.6191496 -0.729231
vn 0.3438262 -0.5766917 -0.74108726
vn 0.5142834 0.8516771 -0.10079057
vn 0.51860076 0.84610873 -0.12309889
vn 0.5125854 0.8526509 -0.10120596
vn 0.52488166 0.8418336 -0.12575972
vn 0.5262902 0.82337564 -0.21230009
vn 0.5364289 0.82081205 -0.19624358
vn 0.5395038 0.81940335 -0.193685
vn 0.5264312 0.8114081 -0.2539432
vn 0.522598 0.82543445 -0.21342266
vn 0.48122743 0.81830376 -0.31432322
vn 0.32953063 -0.007534856 -0.9441148
vn 0.24848048 -0.028453805 -0.9682189
vn 0.27661964 -0.021267526 -0.96074414
vn 0.3482641 -0.0025996915 -0.9373929
vn -0.514283 0.85167736 -0.10079062
vn -0.51258504 0.8526512 -0.10120603
vn -0.51860076 0.8461087 -0.123098895
vn -0.52488166 0.8418336 -0.1257597
vn -0.5262902 0.82337564 -0.21229997
vn -0.536429 0.82081205 -0.1962435
vn -0.53950405 0.8194032 -0.19368471
vn -0.5264311 0.81140816 -0.25394312
vn -0.5225984 0.8254344 -0.2134224
vn -0.48122764 0.8183037 -0.31432316
vn 0.44645098 0.83019227 0.3338599
vn 0.5019839 0.7936818 0.3436296
vn 0.4878747 0.80344343 0.34125808
vn 0.4364662 0.8362313 0.33198574
vn 0.36772048 -0.82160896 0.43559182
vn 0.3649897 -0.82213837 0.43688792
vn 0.36571744 -0.82199806 0.43654305
vn 0.3682339 -0.82150865 0.43534747
vn 0.31882846 -0.934695 -0.15714273
vn 0.29873505 -0.9424152 -0.15036987
vn 0.30436578 -0.940306 -0.15227023
vn 0.32313076 -0.9329715 -0.15858968
vn -0 -0.9999981 0.0019665852
vn -0 -1 0
vn -0 -1 0
vn -0 -0.9999981 0.001966585
vn -0 -0.9999933 0.0036652123
vn -0 -0.9999933 0.0036652123
vn -0.9886769 -0.10051714 -0.11142015
vn -0.8485373 -0.46510652 -0.25231
vn -0.9830351 -0.05879391 -0.17373908
vn -0.993818 0.007922689 -0.11073863
vn -0.9991842 0.04031021 -0.0024439492
vn -0.9976513 0.026671646 0.06309121
vn -0.98138636 0.009715852 0.19179758
vn -0.97457254 0.012022667 0.22374943
vn -0.941897 -0.0073982156 0.33582038
vn -0.9643151 0.06383534 0.2569465
vn -0 0.87067944 0.491851
vn -0 0.9337895 0.3578231
vn -0 0.9337895 0.3578231
vn -0 0.87067944 0.49185094
vn -0 0.6685142 0.74369943
vn -0.44645098 0.83019227 0.3338599
vn -0.4364662 0.8362313 0.33198574
vn -0.4878747 0.80344343 0.34125808
vn -0.5019839 0.7936818 0.3436296
vn -0.46675748 -0.3182491 0.8251393
vn -0.46407726 -0.31811753 0.8267004
vn -0.47784624 -0.31876493 0.818567
vn -0.48114422 -0.31890875 0.81657666
vn -0.36772063 -0.82160896 0.43559167
vn -0.368234 -0.8215086 0.43534732
vn -0.3657176 -0.82199806 0.43654296
vn -0.36498988 -0.82213837 0.43688783
vn 0.46675748 -0.31824917 0.8251393
vn 0.48114422 -0.31890884 0.81657666
vn 0.47784624 -0.31876507 0.818567
vn 0.46407726 -0.3181176 0.8267004
vn -0.8631391 -0.07743149 0.49899417
vn -0.9365135 0.019067362 0.3501127
vn -0.941507 -3.190049E-05 0.33699337
vn -0.87696123 -0.09473379 0.47113088
vn -0.6874913 -0.14315535 0.7119425
vn -0.9830776 0.18265457 -0.013992461
vn -0.96534157 0.2526476 -0.0654585
vn -0.93916607 0.32180968 -0.12002299
vn -0.9858182 0.16781707 0
vn -0.9865567 0.16338433 -0.0033871129
vn -0.98700154 0.16061628 -0.005499273
vn -0 -0.98680127 0.16193593
vn -0 -0.98680127 0.16193594
vn -0 -0.9999969 0.0024968167
vn -0 -0.9744898 0.2244316
vn -0 -0.9744898 0.2244316
vn -0 0.9809241 -0.19439083
vn -0 0.93695563 -0.34944817
vn -0 0.93695563 -0.34944817
vn -0 0.9809241 -0.19439083
vn -0 0.99941206 -0.034283992
vn -0 0.99941206 -0.034283992
vn -0 -0.9120344 0.41011363
vn -0 -0.9120344 0.41011363
vn -0 -0.9120344 0.41011363
vn -0 -0.9120344 0.41011363
vn 0.98307747 0.18265516 -0.01399204
vn 0.939166 0.32181 -0.120023064
vn 0.9653408 0.25265172 -0.065453365
vn 0.98581797 0.16781798 0
vn 0.98653215 0.16353509 -0.0032717816
vn 0.98700154 0.16061635 -0.005499305
vn -0.9959705 -0.08951044 -0.0055383323
vn -0.9968156 -0.07288752 -0.03234207
vn -0.9965912 -0.07966939 -0.021422662
vn -0.9952526 -0.097091645 0.0067385565
vn 0.41076064 -0.91174316 0
vn 0.25319192 -0.9674161 0
vn 0.25319192 -0.9674161 0
vn 0.41076064 -0.91174316 0
vn 0.56438565 -0.8255113 0
vn 0.56438565 -0.8255113 0
vn -0.39852262 -0.9171584 0
vn -0.24022043 -0.9707183 0
vn -0.24022043 -0.9707183 0
vn -0.39852256 -0.91715854 0
vn -0.5532902 -0.83298856 0
vn -0.5532902 -0.83298856 0
vn 0.94165975 0.3365665 0
vn 0.94165975 0.3365665 0
vn 0.94165975 0.3365665 0
vn 0.94165975 0.3365665 0
vn 0.33551383 0.9420353 0
vn 0.48313448 0.8755461 0
vn 0.33551383 0.9420353 0
vn 0.48313403 0.8755464 0
vn 0.6247411 0.7808321 0
vn 0.6247411 0.7808321 0
vn 0.924807 -0.3804368 0
vn 0.924807 -0.3804368 0
vn 0.924807 -0.3804368 0
vn 0.924807 -0.3804368 0
vn -0.94607973 0.32393405 0
vn -0.94607973 0.32393405 0
vn -0.94607973 0.32393405 0
vn -0.94607973 0.32393405 0
vn 0.99660313 -0.08213796 -0.005969748
vn 0.9943547 -0.096998416 -0.043011524
vn 0.99571794 -0.089318916 -0.023831913
vn 0.9969735 -0.07755474 0.0053936765
vn -0.3188281 -0.934695 -0.15714274
vn -0.32313043 -0.9329716 -0.15858972
vn -0.30436546 -0.9403061 -0.15227029
vn -0.2987347 -0.9424153 -0.15036991
vn -0 -0.122449785 0.99247473
vn -0 -0.122449785 0.99247473
vn -0 -0.122449785 0.99247473
vn -0 -0.122449785 0.99247473
g chicken_0
f 3/3/3 2/2/2 1/1/1
f 2/2/2 4/4/4 1/1/1
f 4/4/4 5/5/5 1/1/1
f 5/5/5 6/6/6 1/1/1
f 9/9/9 8/8/8 7/7/7
f 8/8/8 10/10/10 7/7/7
f 10/10/10 8/8/8 11/11/11
f 8/8/8 12/12/12 11/11/11
f 11/11/11 12/12/12 13/13/13
f 12/12/12 14/14/14 13/13/13
f 13/13/13 14/14/14 15/15/15
f 16/16/16 15/15/15 14/14/14
f 19/19/19 18/18/18 17/17/17
f 20/20/20 19/19/19 17/17/17
f 23/23/23 22/22/22 21/21/21
f 24/24/24 23/23/23 21/21/21
f 24/24/24 21/21/21 25/25/25
f 26/26/26 24/24/24 25/25/25
f 29/29/29 28/28/28 27/27/27
f 30/30/30 29/29/29 27/27/27
f 30/30/30 27/27/27 31/31/31
f 32/32/32 30/30/30 31/31/31
f 33/33/33 32/32/32 31/31/31
f 34/34/34 33/33/33 31/31/31
f 33/33/33 34/34/34 35/35/35
f 36/36/36 33/33/33 35/35/35
f 37/37/37 36/36/36 35/35/35
f 38/38/38 37/37/37 35/35/35
f 36/36/36 37/37/37 39/39/39
f 40/40/40 36/36/36 39/39/39
f 43/43/43 42/42/42 41/41/41
f 44/44/44 43/43/43 41/41/41
f 47/47/47 46/46/46 45/45/45
f 48/48/48 47/47/47 45/45/45
f 48/48/48 45/45/45 49/49/49
f 45/45/45 50/50/50 49/49/49
f 50/50/50 51/51/51 49/49/49
f 51/51/51 52/52/52 49/49/49
f 51/51/51 53/53/53 52/52/52
f 53/53/53 54/54/54 52/52/52
f 57/57/57 56/56/56 55/55/55
f 56/56/56 58/58/58 55/55/55
f 59/59/59 55/55/55 58/58/58
f 62/62/62 61/61/61 60/60/60
f 63/63/63 62/62/62 60/60/60
f 66/66/66 65/65/65 64/64/64
f 66/66/66 64/64/64 67/67/67
f 68/68/68 66/66/66 67/67/67
f 69/69/69 68/68/68 67/67/67
f 70/70/70 69/69/69 67/67/67
f 69/69/69 70/70/70 71/71/71
f 72/72/72 69/69/69 71/71/71
f 75/75/75 74/74/74 73/73/73
f 76/76/76 75/75/75 73/73/73
f 76/76/76 73/73/73 77/77/77
f 78/78/78 76/76/76 77/77/77
f 79/79/79 78/78/78 77/77/77
f 80/80/80 79/79/79 77/77/77
f 79/79/79 80/80/80 81/81/81
f 82/82/82 79/79/79 81/81/81
f 82/82/82 81/81/81 83/83/83
f 84/84/84 82/82/82 83/83/83
f 84/84/84 83/83/83 85/85/85
f 83/83/83 86/86/86 85/85/85
f 85/85/85 86/86/86 87/87/87
f 86/86/86 88/88/88 87/87/87
f 89/89/89 87/87/87 88/88/88
f 90/90/90 89/89/89 88/88/88
f 91/91/91 90/90/90 88/88/88
f 94/94/94 93/93/93 92/92/92
f 95/95/95 92/92/92 93/93/93
f 95/95/95 93/93/93 96/96/96
f 97/97/97 95/95/95 96/96/96
f 98/98/98 97/97/97 96/96/96
f 99/99/99 98/98/98 96/96/96
f 98/98/98 99/99/99 100/100/100
f 99/99/99 101/101/101 100/100/100
f 104/104/104 103/103/103 102/102/102
f 105/105/105 104/104/104 102/102/102
f 105/105/105 102/102/102 106/106/106
f 107/107/107 105/105/105 106/106/106
f 110/110/110 109/109/109 108/108/108
f 111/111/111 110/110/110 108/108/108
f 114/114/114 113/113/113 112/112/112
f 113/113/113 115/115/115 112/112/112
f 115/115/115 116/116/116 112/112/112
f 119/119/119 118/118/118 117/117/117
f 117/117/117 118/118/118 120/120/120
f 117/117/117 120/120/120 121/121/121
f 120/120/120 122/122/122 121/121/121
f 121/121/121 122/122/122 123/123/123
f 122/122/122 124/124/124 123/123/123
f 123/123/123 124/124/124 125/125/125
f 124/124/124 126/126/126 125/125/125
f 126/126/126 127/127/127 125/125/125
f 127/127/127 128/128/128 125/125/125
f 128/128/128 127/127/127 129/129/129
f 130/130/130 128/128/128 129/129/129
f 129/129/129 131/131/131 130/130/130
f 131/131/131 132/132/132 130/130/130
f 133/133/133 132/132/132 131/131/131
f 134/134/134 133/133/133 131/131/131
f 135/135/135 132/132/132 133/133/133
f 138/138/138 137/137/137 136/136/136
f 139/139/139 138/138/138 136/136/136
f 142/142/142 141/141/141 140/140/140
f 143/143/143 142/142/142 140/140/140
f 146/146/146 145/145/145 144/144/144
f 147/147/147 146/146/146 144/144/144
f 148/148/148 147/147/147 144/144/144
f 149/149/149 148/148/148 144/144/144
f 148/148/148 149/149/149 150/150/150
f 151/151/151 148/148/148 150/150/150
f 152/152/152 151/151/151 150/150/150
f 153/153/153 152/152/152 150/150/150
f 154/154/154 152/152/152 153/153/153
f 155/155/155 154/154/154 153/153/153
f 158/158/158 157/157/157 156/156/156
f 159/159/159 158/158/158 156/156/156
f 158/158/158 159/159/159 160/160/160
f 159/159/159 161/161/161 160/160/160
f 162/162/162 158/158/158 160/160/160
f 163/163/163 162/162/162 160/160/160
f 162/162/162 163/163/163 164/164/164
f 165/165/165 162/162/162 164/164/164
f 166/166/166 165/165/165 164/164/164
f 167/167/167 166/166/166 164/164/164
f 168/168/168 166/166/166 167/167/167
f 169/169/169 168/168/168 167/167/167
f 172/172/172 171/171/171 170/170/170
f 173/173/173 172/172/172 170/170/170
f 176/176/176 175/175/175 174/174/174
f 175/175/175 177/177/177 174/174/174
f 174/174/174 177/177/177 178/178/178
f 177/177/177 179/179/179 178/178/178
f 179/179/179 180/180/180 178/178/178
f 180/180/180 181/181/181 178/178/178
f 181/181/181 180/180/180 182/182/182
f 180/180/180 183/183/183 182/182/182
f 186/186/186 185/185/185 184/184/184
f 187/187/187 186/186/186 184/184/184
f 187/187/187 184/184/184 188/188/188
f 189/189/189 187/187/187 188/188/188
f 190/190/190 189/189/189 188/188/188
f 191/191/191 190/190/190 188/188/188
f 190/190/190 191/191/191 192/192/192
f 193/193/193 190/190/190 192/192/192
f 196/196/196 195/195/195 194/194/194
f 195/195/195 197/197/197 194/194/194
f 194/194/194 197/197/197 198/198/198
f 197/197/197 199/199/199 198/198/198
f 202/202/202 201/201/201 200/200/200
f 203/203/203 202/202/202 200/200/200
f 204/204/204 202/202/202 203/203/203
f 205/205/205 204/204/204 203/203/203
f 208/208/208 207/207/207 206/206/206
f 207/207/207 209/209/209 206/206/206
f 210/210/210 209/209/209 207/207/207
f 211/211/211 210/210/210 207/207/207
f 214/214/214 213/213/213 212/212/212
f 213/213/213 215/215/215 212/212/212
f 213/213/213 216/216/216 215/215/215
f 216/216/216 217/217/217 215/215/215
f 217/217/217 218/218/218 215/215/215
f 218/218/218 219/219/219 215/215/215
f 219/219/219 218/218/218 220/220/220
f 218/218/218 221/221/221 220/220/220
f 221/221/221 222/222/222 220/220/220
f 222/222/222 223/223/223 220/220/220
f 222/222/222 224/224/224 223/223/223
f 224/224/224 225/225/225 223/223/223
f 228/228/228 227/227/227 226/226/226
f 227/227/227 229/229/229 226/226/226
f 229/229/229 230/230/230 226/226/226
f 230/230/230 231/231/231 226/226/226
f 231/231/231 230/230/230 232/232/232
f 230/230/230 233/233/233 232/232/232
f 233/233/233 234/234/234 232/232/232
f 234/234/234 235/235/235 232/232/232
f 234/234/234 236/236/236 235/235/235
f 236/236/236 237/237/237 235/235/235
f 240/240/240 239/239/239 238/238/238
f 241/241/241 240/240/240 238/238/238
f 244/244/244 243/243/243 242/242/242
f 243/243/243 245/245/245 242/242/242
f 242/242/242 245/245/245 246/246/246
f 245/245/245 247/247/247 246/246/246
f 247/247/247 248/248/248 246/246/246
f 248/248/248 249/249/249 246/246/246
f 249/249/249 248/248/248 250/250/250
f 248/248/248 251/251/251 250/250/250
f 251/251/251 252/252/252 250/250/250
f 252/252/252 253/253/253 250/250/250
f 250/250/250 253/253/253 254/254/254
f 253/253/253 255/255/255 254/254/254
f 258/258/258 257/257/257 256/256/256
f 259/259/259 258/258/258 256/256/256
f 262/262/262 261/261/261 260/260/260
f 263/263/263 262/262/262 260/260/260
f 262/262/262 263/263/263 264/264/264
f 265/265/265 262/262/262 264/264/264
f 265/265/265 264/264/264 266/266/266
f 267/267/267 265/265/265 266/266/266
f 266/266/266 268/268/268 267/267/267
f 269/269/269 267/267/267 268/268/268
f 272/272/272 271/271/271 270/270/270
f 273/273/273 270/270/270 271/271/271
f 273/273/273 271/271/271 274/274/274
f 275/275/275 273/273/273 274/274/274
f 275/275/275 274/274/274 276/276/276
f 277/277/277 275/275/275 276/276/276
f 278/278/278 277/277/277 276/276/276
f 279/279/279 278/278/278 276/276/276
f 282/282/282 281/281/281 280/280/280
f 283/283/283 282/282/282 280/280/280
f 286/286/286 285/285/285 284/284/284
f 287/287/287 286/286/286 284/284/284
f 290/290/290 289/289/289 288/288/288
f 289/289/289 291/291/291 288/288/288
f 289/289/289 292/292/292 291/291/291
f 292/292/292 293/293/293 291/291/291
f 292/292/292 294/294/294 293/293/293
f 294/294/294 295/295/295 293/293/293
f 294/294/294 296/296/296 295/295/295
f 297/297/297 295/295/295 296/296/296
f 300/300/300 299/299/299 298/298/298
f 301/301/301 300/300/300 298/298/298
f 304/304/304 303/303/303 302/302/302
f 305/305/305 304/304/304 302/302/302
f 306/306/306 304/304/304 305/305/305
f 307/307/307 306/306/306 305/305/305
f 308/308/308 306/306/306 307/307/307
f 309/309/309 308/308/308 307/307/307
f 308/308/308 309/309/309 310/310/310
f 311/311/311 310/310/310 309/309/309
f 314/314/314 313/313/313 312/312/312
f 315/315/315 314/314/314 312/312/312
f 318/318/318 317/317/317 316/316/316
f 319/319/319 318/318/318 316/316/316
f 322/322/322 321/321/321 320/320/320
f 323/323/323 322/322/322 320/320/320
f 326/326/326 325/325/325 324/324/324
f 327/327/327 326/326/326 324/324/324
f 327/327/327 324/324/324 328/328/328
f 324/324/324 329/329/329 328/328/328
f 332/332/332 331/331/331 330/330/330
f 333/333/333 332/332/332 330/330/330
f 334/334/334 333/333/333 330/330/330
f 335/335/335 334/334/334 330/330/330
f 336/336/336 334/334/334 335/335/335
f 337/337/337 336/336/336 335/335/335
f 336/336/336 337/337/337 338/338/338
f 339/339/339 338/338/338 337/337/337
f 342/342/342 341/341/341 340/340/340
f 341/341/341 343/343/343 340/340/340
f 344/344/344 340/340/340 343/343/343
f 347/347/347 346/346/346 345/345/345
f 348/348/348 347/347/347 345/345/345
f 351/351/351 350/350/350 349/349/349
f 352/352/352 351/351/351 349/349/349
f 355/355/355 354/354/354 353/353/353
f 356/356/356 355/355/355 353/353/353
f 359/359/359 358/358/358 357/357/357
f 360/360/360 359/359/359 357/357/357
f 363/363/363 362/362/362 361/361/361
f 364/364/364 363/363/363 361/361/361
f 365/365/365 364/364/364 361/361/361
f 368/368/368 367/367/367 366/366/366
f 367/367/367 369/369/369 366/366/366
f 369/369/369 370/370/370 366/366/366
f 370/370/370 371/371/371 366/366/366
f 374/374/374 373/373/373 372/372/372
f 373/373/373 375/375/375 372/372/372
f 375/375/375 376/376/376 372/372/372
f 379/379/379 378/378/378 377/377/377
f 380/380/380 379/379/379 377/377/377
f 381/381/381 380/380/380 377/377/377
f 382/382/382 381/381/381 377/377/377
f 385/385/385 384/384/384 383/383/383
f 386/386/386 385/385/385 383/383/383
f 389/389/389 388/388/388 387/387/387
f 390/390/390 389/389/389 387/387/387
f 391/391/391 390/390/390 387/387/387
f 392/392/392 391/391/391 387/387/387
f 395/395/395 394/394/394 393/393/393
f 396/396/396 395/395/395 393/393/393
f 399/399/399 398/398/398 397/397/397
f 400/400/400 399/399/399 397/397/397
f 401/401/401 400/400/400 397/397/397
f 402/402/402 401/401/401 397/397/397
f 405/405/405 404/404/404 403/403/403
f 404/404/404 406/406/406 403/403/403
f 406/406/406 407/407/407 403/403/403
f 407/407/407 408/408/408 403/403/403
f 411/411/411 410/410/410 409/409/409
f 412/412/412 411/411/411 409/409/409
f 415/415/415 414/414/414 413/413/413
f 414/414/414 416/416/416 413/413/413
f 414/414/414 417/417/417 416/416/416
f 417/417/417 418/418/418 416/416/416
f 421/421/421 420/420/420 419/419/419
f 422/422/422 421/421/421 419/419/419
f 425/425/425 424/424/424 423/423/423
f 426/426/426 425/425/425 423/423/423
f 429/429/429 428/428/428 427/427/427
f 430/430/430 429/429/429 427/427/427
f 433/433/433 432/432/432 431/431/431
f 434/434/434 433/433/433 431/431/431
f 437/437/437 436/436/436 435/435/435
f 438/438/438 437/437/437 435/435/435
