g city_BillboardSign
v -1.5127699 4.6800003 -0.17215389
v 1.5171266 4.6800003 -0.17215458
v 1.5171266 5.540766 -0.17215458
v -1.5127699 5.540766 -0.17215389
v -1.6504912 4.6800003 0.17215255
v -1.6504927 5.712919 -0.17215383
v -1.6504912 5.712919 0.17215255
v -1.6504927 4.6800003 -0.17215383
v -1.650491 3.6470814 0.17215255
v -1.6504927 3.6470814 -0.17215383
v 1.517128 4.6800003 0.17215183
v -1.5127687 4.6800003 0.17215252
v -1.5127687 5.540766 0.17215252
v 1.517128 5.540766 0.17215183
v 1.654849 4.6800003 -0.1721546
v 1.6548505 5.712919 0.1721518
v 1.654849 5.712919 -0.1721546
v 1.6548505 4.6800003 0.1721518
v 1.6548495 3.6470814 -0.1721546
v 1.6548505 3.6470814 0.1721518
v 1.6548505 3.6470814 0.1721518
v 1.6548495 3.6470814 -0.1721546
v -1.6504927 3.6470814 -0.17215383
v -1.650491 3.6470814 0.17215255
v -1.6504912 5.712919 0.17215255
v -1.6504927 5.712919 -0.17215383
v 1.654849 5.712919 -0.1721546
v 1.6548505 5.712919 0.1721518
v 1.517128 3.819234 0.17215183
v -1.5127685 3.819234 0.17215252
v -1.5127687 4.6800003 0.17215252
v 1.517128 4.6800003 0.17215183
v -1.5127699 3.819234 -0.17215389
v 1.5171266 3.819234 -0.17215458
v 1.5171266 4.6800003 -0.17215458
v -1.5127699 4.6800003 -0.17215389
v 1.5171266 4.6800003 -0.17215458
v 1.654849 4.6800003 -0.1721546
v 1.654849 5.712919 -0.1721546
v 1.5171266 5.540766 -0.17215458
v 1.5171266 3.819234 -0.17215458
v -1.6504927 5.712919 -0.17215383
v 1.6548495 3.6470814 -0.1721546
v -1.5127699 5.540766 -0.17215389
v -1.5127699 3.819234 -0.17215389
v -1.6504927 4.6800003 -0.17215383
v -1.6504927 3.6470814 -0.17215383
v -1.5127699 4.6800003 -0.17215389
v 1.517128 4.6800003 0.17215183
v 1.6548505 4.6800003 0.1721518
v 1.6548505 3.6470814 0.1721518
v 1.517128 3.819234 0.17215183
v 1.517128 5.540766 0.17215183
v -1.650491 3.6470814 0.17215255
v 1.6548505 5.712919 0.1721518
v -1.5127685 3.819234 0.17215252
v -1.5127687 5.540766 0.17215252
v -1.6504912 4.6800003 0.17215255
v -1.6504912 5.712919 0.17215255
v -1.5127687 4.6800003 0.17215252
v -0.14609227 0 5.413842E-09
v -0.10266505 0 -0.1048426
v -0.09628269 4.2300005 -0.09846026
v -0.13706625 4.2300005 5.0059406E-09
v -0.10266504 0 0.1048426
v 0.0021775663 4.2300005 -0.13924384
v 0.0021775658 0 -0.14826983
v 0.10063785 4.2300005 -0.09846026
v 0.10702017 0 -0.1048426
v 0.14142141 4.2300005 -2.888111E-10
v 0.1504474 0 -3.259979E-10
v 0.10063785 4.2300005 0.09846026
v 0.10702017 0 0.1048426
v -0.09628269 4.2300005 0.09846026
v 0.0021775672 0 0.14826983
v 0.0021775677 4.2300005 0.13924384
vt 0.21887505 0.46674383
vt 0.21887505 0.46674383
vt 0.21887504 0.46674383
vt 0.21887505 0.46674383
vt 0.65637505 0.029243827
vt 0.65637505 0.029243827
vt 0.65637505 0.029243827
vt 0.65637505 0.029243827
vt 0.65637505 0.029243827
vt 0.65637505 0.029243827
vt 0.21887505 0.46674383
vt 0.21887505 0.46674383
vt 0.21887505 0.46674383
vt 0.21887505 0.46674383
vt 0.65637505 0.029243827
vt 0.65637505 0.029243827
vt 0.65637505 0.029243827
vt 0.65637505 0.029243827
vt 0.65637505 0.029243827
vt 0.65637505 0.029243827
vt 0.65637505 0.029243827
vt 0.65637505 0.029243827
vt 0.65637505 0.029243827
vt 0.65637505 0.029243827
vt 0.65637505 0.029243827
vt 0.65637505 0.029243827
vt 0.65637505 0.029243827
vt 0.65637505 0.029243827
vt 0.21887505 0.6542438
vt 0.21887502 0.6542438
vt 0.21887505 0.6542438
vt 0.21887505 0.6542438
vt 0.21887505 0.6542438
vt 0.21887505 0.6542438
vt 0.21887505 0.6542438
vt 0.21887505 0.6542438
vt 0.65637505 0.029243827
vt 0.65637505 0.029243827
vt 0.65637505 0.029243827
vt 0.65637505 0.029243827
vt 0.65637505 0.029243827
vt 0.65637505 0.029243827
vt 0.65637505 0.029243827
vt 0.65637505 0.029243827
vt 0.65637505 0.029243827
vt 0.65637505 0.029243827
vt 0.65637505 0.029243827
vt 0.65637505 0.029243827
vt 0.65637505 0.029243827
vt 0.65637505 0.029243827
vt 0.65637505 0.029243827
vt 0.65637505 0.029243827
vt 0.65637505 0.029243827
vt 0.65637505 0.029243827
vt 0.65637505 0.029243827
vt 0.65637505 0.029243827
vt 0.65637505 0.029243827
vt 0.65637505 0.029243827
vt 0.65637505 0.029243827
vt 0.65637505 0.029243827
vt 0.78255695 0.09320492
vt 0.78255695 0.09320492
vt 0.78255695 0.09320492
vt 0.78255695 0.09320492
vt 0.78255695 0.09320492
vt 0.78255695 0.09320492
vt 0.78255695 0.09320492
vt 0.78255695 0.09320492
vt 0.78255695 0.09320492
vt 0.78255695 0.09320492
vt 0.78255695 0.09320492
vt 0.78255695 0.09320492
vt 0.78255695 0.09320492
vt 0.78255695 0.09320492
vt 0.78255695 0.09320492
vt 0.78255695 0.09320492
vn -0 0 -1
vn -0 0 -1
vn -0 0 -1
vn -0 0 -1
vn -1 0 0
vn -1 0 0
vn -1 0 0
vn -1 0 0
vn -1 0 0
vn -1 0 0
vn -0 0 1
vn -0 0 1
vn -0 0 1
vn -0 0 1
vn 1 0 0
vn 1 0 0
vn 1 0 0
vn 1 0 0
vn 1 0 0
vn 1 0 0
vn -0 -1 0
vn -0 -1 0
vn -0 -1 0
vn -0 -1 0
vn -0 1 0
vn -0 1 0
vn -0 1 0
vn -0 1 0
vn -0 0 1
vn -0 0 1
vn -0 0 1
vn -0 0 1
vn -0 0 -1
vn -0 0 -1
vn -0 0 -1
vn -0 0 -1
vn -0 0 -1
vn -0 0 -1
vn -0 0 -1
vn -0 0 -1
vn -0 0 -1
vn -0 0 -1
vn -0 0 -1
vn -0 0 -1
vn -0 0 -1
vn -0 0 -1
vn -0 0 -1
vn -0 0 -1
vn -0 0 1
vn -0 0 1
vn -0 0 1
vn -0 0 1
vn -0 0 1
vn -0 0 1
vn -0 0 1
vn -0 0 1
vn -0 0 1
vn -0 0 1
vn -0 0 1
vn -0 0 1
vn -0.99999774 0.0021338044 0
vn -0.7071052 0.0021338027 -0.7071051
vn -0.5485249 0.63106334 -0.54852486
vn -0.7757312 0.63106346 0
vn -0.7071052 0.0021338013 0.7071051
vn -0 0.63106334 -0.7757313
vn -0 0.0021337988 -0.99999774
vn 0.54852486 0.63106334 -0.54852486
vn 0.70710516 0.0021337972 -0.70710516
vn 0.7757313 0.6310634 0
vn 0.99999774 0.0021337965 0
vn 0.5485249 0.63106334 0.54852486
vn 0.7071052 0.0021337972 0.7071051
vn -0.5485248 0.6310634 0.5485248
vn -0 0.0021337983 0.99999774
vn -0 0.63106334 0.7757313
g city_BillboardSign_0
f 3/3/3 2/2/2 1/1/1
f 4/4/4 3/3/3 1/1/1
f 7/7/7 6/6/6 5/5/5
f 6/6/6 8/8/8 5/5/5
f 5/5/5 8/8/8 9/9/9
f 8/8/8 10/10/10 9/9/9
f 13/13/13 12/12/12 11/11/11
f 14/14/14 13/13/13 11/11/11
f 17/17/17 16/16/16 15/15/15
f 16/16/16 18/18/18 15/15/15
f 15/15/15 18/18/18 19/19/19
f 18/18/18 20/20/20 19/19/19
f 23/23/23 22/22/22 21/21/21
f 24/24/24 23/23/23 21/21/21
f 27/27/27 26/26/26 25/25/25
f 28/28/28 27/27/27 25/25/25
f 31/31/31 30/30/30 29/29/29
f 32/32/32 31/31/31 29/29/29
f 35/35/35 34/34/34 33/33/33
f 36/36/36 35/35/35 33/33/33
f 39/39/39 38/38/38 37/37/37
f 40/40/40 39/39/39 37/37/37
f 37/37/37 38/38/38 41/41/41
f 42/42/42 39/39/39 40/40/40
f 38/38/38 43/43/43 41/41/41
f 44/44/44 42/42/42 40/40/40
f 41/41/41 43/43/43 45/45/45
f 46/46/46 42/42/42 44/44/44
f 43/43/43 47/47/47 45/45/45
f 48/48/48 46/46/46 44/44/44
f 45/45/45 47/47/47 48/48/48
f 47/47/47 46/46/46 48/48/48
f 51/51/51 50/50/50 49/49/49
f 52/52/52 51/51/51 49/49/49
f 49/49/49 50/50/50 53/53/53
f 54/54/54 51/51/51 52/52/52
f 50/50/50 55/55/55 53/53/53
f 56/56/56 54/54/54 52/52/52
f 53/53/53 55/55/55 57/57/57
f 58/58/58 54/54/54 56/56/56
f 55/55/55 59/59/59 57/57/57
f 60/60/60 58/58/58 56/56/56
f 57/57/57 59/59/59 60/60/60
f 59/59/59 58/58/58 60/60/60
f 63/63/63 62/62/62 61/61/61
f 64/64/64 63/63/63 61/61/61
f 64/64/64 61/61/61 65/65/65
f 63/63/63 66/66/66 62/62/62
f 66/66/66 67/67/67 62/62/62
f 68/68/68 66/66/66 63/63/63
f 66/66/66 68/68/68 67/67/67
f 63/63/63 64/64/64 68/68/68
f 68/68/68 69/69/69 67/67/67
f 68/68/68 70/70/70 69/69/69
f 64/64/64 70/70/70 68/68/68
f 70/70/70 71/71/71 69/69/69
f 70/70/70 72/72/72 71/71/71
f 64/64/64 72/72/72 70/70/70
f 72/72/72 73/73/73 71/71/71
f 74/74/74 64/64/64 65/65/65
f 64/64/64 74/74/74 72/72/72
f 74/74/74 65/65/65 75/75/75
f 76/76/76 75/75/75 73/73/73
f 72/72/72 76/76/76 73/73/73
f 76/76/76 74/74/74 75/75/75
f 74/74/74 76/76/76 72/72/72
