g city_Tree03
v 0.4186402 6.194033 1.7512057
v 0.29495445 4.393481 2.0532308
v -1.3222232 5.2305965 1.1540173
v 0.4186402 6.194033 1.7512057
v -1.3222232 5.2305965 1.1540173
v -0.537625 6.4113064 0.1785403
v -0.537625 6.4113064 0.1785403
v -1.3222232 5.2305965 1.1540173
v -0.94985116 5.2037077 -0.56907403
v -0.94985116 5.2037077 -0.56907403
v -1.3222232 5.2305965 1.1540173
v -0.82930785 4.003039 0.18379723
v -0.82930785 4.003039 0.18379723
v -1.3222232 5.2305965 1.1540173
v 0.29495445 4.393481 2.0532308
v 1.3916398 3.471634 0.925172
v -0.82930785 4.003039 0.18379723
v 0.29495445 4.393481 2.0532308
v 1.6037109 5.185667 1.5038962
v 1.3916398 3.471634 0.925172
v 0.29495445 4.393481 2.0532308
v 1.6037109 5.185667 1.5038962
v 0.29495445 4.393481 2.0532308
v 0.4186402 6.194033 1.7512057
v -0.94985116 5.2037077 -0.56907403
v -0.82930785 4.003039 0.18379723
v 0.27559814 4.13177 -1.1042153
v 1.7976779 5.3507843 0.22796026
v -0.537625 6.4113064 0.1785403
v 0.44083023 5.5965843 -1.2462041
v 0.44083023 5.5965843 -1.2462041
v -0.537625 6.4113064 0.1785403
v -0.94985116 5.2037077 -0.56907403
v 0.44083023 5.5965843 -1.2462041
v -0.94985116 5.2037077 -0.56907403
v 0.27559814 4.13177 -1.1042153
v 0.44083023 5.5965843 -1.2462041
v 0.27559814 4.13177 -1.1042153
v 1.7976779 5.3507843 0.22796026
v 1.7976779 5.3507843 0.22796026
v 0.27559814 4.13177 -1.1042153
v 1.3916398 3.471634 0.925172
v 1.7976779 5.3507843 0.22796026
v 1.3916398 3.471634 0.925172
v 1.6037109 5.185667 1.5038962
v 0.27559814 4.13177 -1.1042153
v -0.82930785 4.003039 0.18379723
v 1.3916398 3.471634 0.925172
v 0.4186402 6.194033 1.7512057
v 1.7976779 5.3507843 0.22796026
v 1.6037109 5.185667 1.5038962
v 0.4186402 6.194033 1.7512057
v -0.537625 6.4113064 0.1785403
v 1.7976779 5.3507843 0.22796026
v -0.7431264 3.5252578 -1.2202529
v -0.076571524 3.7381437 -1.5466323
v -0.046927884 3.9919126 -0.7653402
v -0.7431264 3.5252578 -1.2202529
v -0.046927884 3.9919126 -0.7653402
v -0.45557472 3.3081646 -0.14019403
v -0.45557472 3.3081646 -0.14019403
v -0.046927884 3.9919126 -0.7653402
v 0.3118861 3.4547806 -0.16127542
v 0.3118861 3.4547806 -0.16127542
v -0.046927884 3.9919126 -0.7653402
v 0.6595644 3.7244318 -1.2409396
v 0.6595644 3.7244318 -1.2409396
v -0.046927884 3.9919126 -0.7653402
v -0.076571524 3.7381437 -1.5466323
v 0.37774602 3.1241086 -1.4574926
v 0.6595644 3.7244318 -1.2409396
v -0.076571524 3.7381437 -1.5466323
v -0.44591233 2.9723136 -1.6121358
v 0.37774602 3.1241086 -1.4574926
v -0.076571524 3.7381437 -1.5466323
v -0.44591233 2.9723136 -1.6121358
v -0.076571524 3.7381437 -1.5466323
v -0.7431264 3.5252578 -1.2202529
v -0.633839 2.7112212 -0.86900926
v 0.082489714 2.8043747 -0.5471575
v 0.07177408 2.4301355 -1.1274716
v -0.633839 2.7112212 -0.86900926
v -0.45557472 3.3081646 -0.14019403
v 0.082489714 2.8043747 -0.5471575
v 0.082489714 2.8043747 -0.5471575
v -0.45557472 3.3081646 -0.14019403
v 0.3118861 3.4547806 -0.16127542
v 0.082489714 2.8043747 -0.5471575
v 0.3118861 3.4547806 -0.16127542
v 0.7353158 2.879636 -0.85487515
v 0.082489714 2.8043747 -0.5471575
v 0.7353158 2.879636 -0.85487515
v 0.07177408 2.4301355 -1.1274716
v 0.07177408 2.4301355 -1.1274716
v 0.7353158 2.879636 -0.85487515
v 0.37774602 3.1241086 -1.4574926
v 0.07177408 2.4301355 -1.1274716
v 0.37774602 3.1241086 -1.4574926
v -0.44591233 2.9723136 -1.6121358
v 0.07177408 2.4301355 -1.1274716
v -0.44591233 2.9723136 -1.6121358
v -0.633839 2.7112212 -0.86900926
v -0.7431264 3.5252578 -1.2202529
v -0.633839 2.7112212 -0.86900926
v -0.44591233 2.9723136 -1.6121358
v -0.7431264 3.5252578 -1.2202529
v -0.45557472 3.3081646 -0.14019403
v -0.633839 2.7112212 -0.86900926
v 0.3118861 3.4547806 -0.16127542
v 0.6595644 3.7244318 -1.2409396
v 0.7353158 2.879636 -0.85487515
v 0.7353158 2.879636 -0.85487515
v 0.6595644 3.7244318 -1.2409396
v 0.37774602 3.1241086 -1.4574926
v 1.1430014 3.1767936 -0.19930011
v 1.3501129 3.2857075 0.4739631
v 0.40796703 3.1182027 0.12701565
v 1.1430014 3.1767936 -0.19930011
v 0.40796703 3.1182027 0.12701565
v 0.4259076 2.635067 -0.34449866
v 0.4259076 2.635067 -0.34449866
v 0.40796703 3.1182027 0.12701565
v 0.21722008 2.4316025 0.312871
v 0.21722008 2.4316025 0.312871
v 0.40796703 3.1182027 0.12701565
v 0.78348196 2.8551488 0.84972775
v 0.78348196 2.8551488 0.84972775
v 0.40796703 3.1182027 0.12701565
v 1.3501129 3.2857075 0.4739631
v 1.7040498 2.772591 0.92459774
v 0.78348196 2.8551488 0.84972775
v 1.3501129 3.2857075 0.4739631
v 1.9230235 2.9672003 0.26821753
v 1.7040498 2.772591 0.92459774
v 1.3501129 3.2857075 0.4739631
v 1.9230235 2.9672003 0.26821753
v 1.3501129 3.2857075 0.4739631
v 1.1430014 3.1767936 -0.19930011
v 1.4192139 2.5423696 -0.15239215
v 0.8892784 2.2744927 0.21893676
v 1.7393113 2.2882102 0.48788604
v 1.4192139 2.5423696 -0.15239215
v 0.4259076 2.635067 -0.34449866
v 0.8892784 2.2744927 0.21893676
v 0.8892784 2.2744927 0.21893676
v 0.4259076 2.635067 -0.34449866
v 0.21722008 2.4316025 0.312871
v 0.8892784 2.2744927 0.21893676
v 0.21722008 2.4316025 0.312871
v 1.0263649 2.2201982 0.8259657
v 0.8892784 2.2744927 0.21893676
v 1.0263649 2.2201982 0.8259657
v 1.7393113 2.2882102 0.48788604
v 1.7393113 2.2882102 0.48788604
v 1.0263649 2.2201982 0.8259657
v 1.7040498 2.772591 0.92459774
v 1.7393113 2.2882102 0.48788604
v 1.7040498 2.772591 0.92459774
v 1.9230235 2.9672003 0.26821753
v 1.7393113 2.2882102 0.48788604
v 1.9230235 2.9672003 0.26821753
v 1.4192139 2.5423696 -0.15239215
v 1.1430014 3.1767936 -0.19930011
v 1.4192139 2.5423696 -0.15239215
v 1.9230235 2.9672003 0.26821753
v 1.1430014 3.1767936 -0.19930011
v 0.4259076 2.635067 -0.34449866
v 1.4192139 2.5423696 -0.15239215
v 0.21722008 2.4316025 0.312871
v 0.78348196 2.8551488 0.84972775
v 1.0263649 2.2201982 0.8259657
v 1.0263649 2.2201982 0.8259657
v 0.78348196 2.8551488 0.84972775
v 1.7040498 2.772591 0.92459774
v 0.0010639653 -3.608436E-08 -0.22699523
v 0.23592094 -2.2301357E-08 -0.086311296
v 0.35280144 1.5465937 0.00672587
v 0.2536659 1.6760657 -0.09208143
v -0.20530918 0 -0.047106665
v 0.0010639653 -3.608436E-08 -0.22699523
v 0.2536659 1.6760657 -0.09208143
v 0.07180514 1.6769426 0.0133766215
v 0.13963133 1.6685157 0.19074604
v 0.07180514 1.6769426 0.0133766215
v 0.06792161 3.2818546 -0.019214252
v 0.11941173 3.2818546 0.10163369
v 0.33401874 1.663444 0.17144284
v 0.13963133 1.6685157 0.19074604
v 0.11941173 3.2818546 0.10163369
v 0.25025636 3.2818546 0.09000774
v 0.35280144 1.5465937 0.00672587
v 0.33401874 1.663444 0.17144284
v 0.25025636 3.2818546 0.09000774
v 0.27963263 3.2818546 -0.03802547
v 0.2536659 1.6760657 -0.09208143
v 0.35280144 1.5465937 0.00672587
v 0.27963263 3.2818546 -0.03802547
v 0.16694354 3.2818546 -0.10552843
v 0.07180514 1.6769426 0.0133766215
v 0.2536659 1.6760657 -0.09208143
v 0.16694354 3.2818546 -0.10552843
v 0.06792161 3.2818546 -0.019214252
v 0.11941173 3.2818546 0.10163369
v 0.06792161 3.2818546 -0.019214252
v 0.38045514 5.229494 0.26975942
v 0.41041055 5.2080946 0.34866494
v 0.25025636 3.2818546 0.09000774
v 0.11941173 3.2818546 0.10163369
v 0.41041055 5.2080946 0.34866494
v 0.48924235 5.1736546 0.34070465
v 0.27963263 3.2818546 -0.03802547
v 0.25025636 3.2818546 0.09000774
v 0.48924235 5.1736546 0.34070465
v 0.5093432 5.1733437 0.2586508
v 0.16694354 3.2818546 -0.10552843
v 0.27963263 3.2818546 -0.03802547
v 0.5093432 5.1733437 0.2586508
v 0.44143695 5.208068 0.21391283
v 0.06792161 3.2818546 -0.019214252
v 0.16694354 3.2818546 -0.10552843
v 0.44143695 5.208068 0.21391283
v 0.38045514 5.229494 0.26975942
v 0.078097425 2.2048707 0.047690466
v 0.10495245 2.1784387 -0.016483603
v 0.044011846 2.7902358 -1.0275737
v 0.029804781 2.8306367 -0.96242577
v 0.14918847 2.28762 0.06343553
v 0.078097425 2.2048707 0.047690466
v 0.029804781 2.8306367 -0.96242577
v 0.098070614 2.8559701 -0.93443555
v 0.224783 2.276957 -0.0074890554
v 0.14918847 2.28762 0.06343553
v 0.098070614 2.8559701 -0.93443555
v 0.1544705 2.8312209 -0.9822749
v 0.19447403 2.2119176 -0.061004024
v 0.224783 2.276957 -0.0074890554
v 0.1544705 2.8312209 -0.9822749
v 0.12106704 2.7905724 -1.0398245
v 0.10495245 2.1784387 -0.016483603
v 0.19447403 2.2119176 -0.061004024
v 0.12106704 2.7905724 -1.0398245
v 0.044011846 2.7902358 -1.0275737
v 0.20307784 1.6937783 -0.07986643
v 0.26695496 1.6145883 -0.030951358
v 1.0066217 2.0134676 0.19234881
v 0.95422006 2.0546055 0.15719116
v 0.11867284 1.733372 -0.0063052587
v 0.20307784 1.6937783 -0.07986643
v 0.95422006 2.0546055 0.15719116
v 0.9038345 2.077191 0.2123629
v 0.14769262 1.6896105 0.096812434
v 0.11867284 1.733372 -0.0063052587
v 0.9038345 2.077191 0.2123629
v 0.9250082 2.0523157 0.28050214
v 0.2413734 1.6205215 0.0812303
v 0.14769262 1.6896105 0.096812434
v 0.9250082 2.0523157 0.28050214
v 0.988788 2.0125937 0.26848784
v 0.26695496 1.6145883 -0.030951358
v 0.2413734 1.6205215 0.0812303
v 0.988788 2.0125937 0.26848784
v 1.0066217 2.0134676 0.19234881
v 0.95422006 2.0546055 0.15719116
v 1.0066217 2.0134676 0.19234881
v 1.3277634 2.8806143 0.2646196
v 1.2758253 2.9258537 0.22796568
v 0.9038345 2.077191 0.2123629
v 0.95422006 2.0546055 0.15719116
v 1.2758253 2.9258537 0.22796568
v 1.2262775 2.953813 0.28135973
v 0.9250082 2.0523157 0.28050214
v 0.9038345 2.077191 0.2123629
v 1.2262775 2.953813 0.28135973
v 1.2475929 2.9258537 0.35101286
v 0.988788 2.0125937 0.26848784
v 0.9250082 2.0523157 0.28050214
v 1.2475929 2.9258537 0.35101286
v 1.310315 2.8806143 0.3406669
v 1.0066217 2.0134676 0.19234881
v 0.988788 2.0125937 0.26848784
v 1.310315 2.8806143 0.3406669
v 1.3277634 2.8806143 0.2646196
v -0.09799779 3.608436E-08 0.20475447
v -0.20530918 0 -0.047106665
v 0.07180514 1.6769426 0.0133766215
v 0.13963133 1.6685157 0.19074604
v 0.17469743 2.2301357E-08 0.18052463
v -0.09799779 3.608436E-08 0.20475447
v 0.13963133 1.6685157 0.19074604
v 0.33401874 1.663444 0.17144284
v 0.23592094 -2.2301357E-08 -0.086311296
v 0.17469743 2.2301357E-08 0.18052463
v 0.33401874 1.663444 0.17144284
v 0.35280144 1.5465937 0.00672587
v 0.44143695 5.208068 0.21391283
v 0.5093432 5.1733437 0.2586508
v 0.443959 5.199237 0.2833955
v 0.38045514 5.229494 0.26975942
v 0.48924235 5.1736546 0.34070465
v 0.41041055 5.2080946 0.34866494
vt 0.28123915 0.40637943
vt 0.28123915 0.40637943
vt 0.28123915 0.40637943
vt 0.28123915 0.40637943
vt 0.28123915 0.40637943
vt 0.28123915 0.40637943
vt 0.28123915 0.40637943
vt 0.28123915 0.40637943
vt 0.28123915 0.40637943
vt 0.28123915 0.40637943
vt 0.28123915 0.40637943
vt 0.28123915 0.40637943
vt 0.28123915 0.40637943
vt 0.28123915 0.40637943
vt 0.28123915 0.40637943
vt 0.28123915 0.40637943
vt 0.28123915 0.40637943
vt 0.28123915 0.40637943
vt 0.28123915 0.40637943
vt 0.28123915 0.40637943
vt 0.28123915 0.40637943
vt 0.28123915 0.40637943
vt 0.28123915 0.40637943
vt 0.28123915 0.40637943
vt 0.28123915 0.40637943
vt 0.28123915 0.40637943
vt 0.28123915 0.40637943
vt 0.28123915 0.40637943
vt 0.28123915 0.40637943
vt 0.28123915 0.40637943
vt 0.28123915 0.40637943
vt 0.28123915 0.40637943
vt 0.28123915 0.40637943
vt 0.28123915 0.40637943
vt 0.28123915 0.40637943
vt 0.28123915 0.40637943
vt 0.28123915 0.40637943
vt 0.28123915 0.40637943
vt 0.28123915 0.40637943
vt 0.28123915 0.40637943
vt 0.28123915 0.40637943
vt 0.28123915 0.40637943
vt 0.28123915 0.40637943
vt 0.28123915 0.40637943
vt 0.28123915 0.40637943
vt 0.28123915 0.40637943
vt 0.28123915 0.40637943
vt 0.28123915 0.40637943
vt 0.28123915 0.40637943
vt 0.28123915 0.40637943
vt 0.28123915 0.40637943
vt 0.28123915 0.40637943
vt 0.28123915 0.40637943
vt 0.28123915 0.40637943
vt 0.34373915 0.40512943
vt 0.34373915 0.40512943
vt 0.34373915 0.40512943
vt 0.34373915 0.40512943
vt 0.34373915 0.40512943
vt 0.34373915 0.40512943
vt 0.34373915 0.40512943
vt 0.34373915 0.40512943
vt 0.34373915 0.40512943
vt 0.34373915 0.40512943
vt 0.34373915 0.40512943
vt 0.34373915 0.40512943
vt 0.34373915 0.40512943
vt 0.34373915 0.40512943
vt 0.34373915 0.40512943
vt 0.34373915 0.40512943
vt 0.34373915 0.40512943
vt 0.34373915 0.40512943
vt 0.34373915 0.40512943
vt 0.34373915 0.40512943
vt 0.34373915 0.40512943
vt 0.34373915 0.40512943
vt 0.34373915 0.40512943
vt 0.34373915 0.40512943
vt 0.34373915 0.40512943
vt 0.34373915 0.40512943
vt 0.34373915 0.40512943
vt 0.34373915 0.40512943
vt 0.34373915 0.40512943
vt 0.34373915 0.40512943
vt 0.34373915 0.40512943
vt 0.34373915 0.40512943
vt 0.34373915 0.40512943
vt 0.34373915 0.40512943
vt 0.34373915 0.40512943
vt 0.34373915 0.40512943
vt 0.34373915 0.40512943
vt 0.34373915 0.40512943
vt 0.34373915 0.40512943
vt 0.34373915 0.40512943
vt 0.34373915 0.40512943
vt 0.34373915 0.40512943
vt 0.34373915 0.40512943
vt 0.34373915 0.40512943
vt 0.34373915 0.40512943
vt 0.34373915 0.40512943
vt 0.34373915 0.40512943
vt 0.34373915 0.40512943
vt 0.34373915 0.40512943
vt 0.34373915 0.40512943
vt 0.34373915 0.40512943
vt 0.34373915 0.40512943
vt 0.34373915 0.40512943
vt 0.34373915 0.40512943
vt 0.34373915 0.40512943
vt 0.34373915 0.40512943
vt 0.34373915 0.40512943
vt 0.34373915 0.40512943
vt 0.34373915 0.40512943
vt 0.34373915 0.40512943
vt 0.34373915 0.40512943
vt 0.34373915 0.40512943
vt 0.34373915 0.40512943
vt 0.34373915 0.40512943
vt 0.34373915 0.40512943
vt 0.34373915 0.40512943
vt 0.34373915 0.40512943
vt 0.34373915 0.40512943
vt 0.34373915 0.40512943
vt 0.34373915 0.40512943
vt 0.34373915 0.40512943
vt 0.34373915 0.40512943
vt 0.34373915 0.40512943
vt 0.34373915 0.40512943
vt 0.34373915 0.40512943
vt 0.34373915 0.40512943
vt 0.34373915 0.40512943
vt 0.34373915 0.40512943
vt 0.34373915 0.40512943
vt 0.34373915 0.40512943
vt 0.34373915 0.40512943
vt 0.34373915 0.40512943
vt 0.34373915 0.40512943
vt 0.34373915 0.40512943
vt 0.34373915 0.40512943
vt 0.34373915 0.40512943
vt 0.34373915 0.40512943
vt 0.34373915 0.40512943
vt 0.34373915 0.40512943
vt 0.34373915 0.40512943
vt 0.34373915 0.40512943
vt 0.34373915 0.40512943
vt 0.34373915 0.40512943
vt 0.34373915 0.40512943
vt 0.34373915 0.40512943
vt 0.34373915 0.40512943
vt 0.34373915 0.40512943
vt 0.34373915 0.40512943
vt 0.34373915 0.40512943
vt 0.34373915 0.40512943
vt 0.34373915 0.40512943
vt 0.34373915 0.40512943
vt 0.34373915 0.40512943
vt 0.34373915 0.40512943
vt 0.34373915 0.40512943
vt 0.34373915 0.40512943
vt 0.34373915 0.40512943
vt 0.34373915 0.40512943
vt 0.34373915 0.40512943
vt 0.34373915 0.40512943
vt 0.34373915 0.40512943
vt 0.34373915 0.40512943
vt 0.34373915 0.40512943
vt 0.34373915 0.40512943
vt 0.34373915 0.40512943
vt 0.34373915 0.40512943
vt 0.34373915 0.40512943
vt 0.34373915 0.40512943
vt 0.34373915 0.40512943
vt 0.34373915 0.40512943
vt 0.65638196 0.9091983
vt 0.65638196 0.9091983
vt 0.65638196 0.9091983
vt 0.65638196 0.9091983
vt 0.65638196 0.9091983
vt 0.65638196 0.9091983
vt 0.65638196 0.9091983
vt 0.65638196 0.9091983
vt 0.65638196 0.9091983
vt 0.65638196 0.9091983
vt 0.65638196 0.9091983
vt 0.65638196 0.9091983
vt 0.65638196 0.9091983
vt 0.65638196 0.9091983
vt 0.65638196 0.9091983
vt 0.65638196 0.9091983
vt 0.65638196 0.9091983
vt 0.65638196 0.9091983
vt 0.65638196 0.9091983
vt 0.65638196 0.9091983
vt 0.65638196 0.9091983
vt 0.65638196 0.9091983
vt 0.65638196 0.9091983
vt 0.65638196 0.9091983
vt 0.65638196 0.9091983
vt 0.65638196 0.9091983
vt 0.65638196 0.9091983
vt 0.65638196 0.9091983
vt 0.65638196 0.9091983
vt 0.65638196 0.9091983
vt 0.65638196 0.9091983
vt 0.65638196 0.9091983
vt 0.65638196 0.9091983
vt 0.65638196 0.9091983
vt 0.65638196 0.9091983
vt 0.65638196 0.9091983
vt 0.65638196 0.9091983
vt 0.65638196 0.9091983
vt 0.65638196 0.9091983
vt 0.65638196 0.9091983
vt 0.65638196 0.9091983
vt 0.65638196 0.9091983
vt 0.65638196 0.9091983
vt 0.65638196 0.9091983
vt 0.65638196 0.9091983
vt 0.65638196 0.9091983
vt 0.65638196 0.9091983
vt 0.65638196 0.9091983
vt 0.65638196 0.9091983
vt 0.65638196 0.9091983
vt 0.65638196 0.9091983
vt 0.65638196 0.9091983
vt 0.65638196 0.9091983
vt 0.65638196 0.9091983
vt 0.65638196 0.9091983
vt 0.65638196 0.9091983
vt 0.65638196 0.9091983
vt 0.65638196 0.9091983
vt 0.65638196 0.9091983
vt 0.65638196 0.9091983
vt 0.65638196 0.9091983
vt 0.65638196 0.9091983
vt 0.65638196 0.9091983
vt 0.65638196 0.9091983
vt 0.65638196 0.9091983
vt 0.65638196 0.9091983
vt 0.65638196 0.9091983
vt 0.65638196 0.9091983
vt 0.65638196 0.9091983
vt 0.65638196 0.9091983
vt 0.65638196 0.9091983
vt 0.65638196 0.9091983
vt 0.65638196 0.9091983
vt 0.65638196 0.9091983
vt 0.65638196 0.9091983
vt 0.65638196 0.9091983
vt 0.65638196 0.9091983
vt 0.65638196 0.9091983
vt 0.65638196 0.9091983
vt 0.65638196 0.9091983
vt 0.65638196 0.9091983
vt 0.65638196 0.9091983
vt 0.65638196 0.9091983
vt 0.65638196 0.9091983
vt 0.65638196 0.9091983
vt 0.65638196 0.9091983
vt 0.65638196 0.9091983
vt 0.65638196 0.9091983
vt 0.65638196 0.9091983
vt 0.65638196 0.9091983
vt 0.65638196 0.9091983
vt 0.65638196 0.9091983
vt 0.65638196 0.9091983
vt 0.65638196 0.9091983
vt 0.65638196 0.9091983
vt 0.65638196 0.9091983
vt 0.65638196 0.9091983
vt 0.65638196 0.9091983
vt 0.65638196 0.9091983
vt 0.65638196 0.9091983
vt 0.65638196 0.9091983
vt 0.65638196 0.9091983
vt 0.65638196 0.9091983
vt 0.65638196 0.9091983
vt 0.65638196 0.9091983
vt 0.65638196 0.9091983
vt 0.65638196 0.9091983
vt 0.65638196 0.9091983
vt 0.65638196 0.9091983
vt 0.65638196 0.9091983
vt 0.65638196 0.9091983
vt 0.65638196 0.9091983
vt 0.65638196 0.9091983
vt 0.65638196 0.9091983
vt 0.65638196 0.9091983
vt 0.65638196 0.9091983
vt 0.65638196 0.9091983
vt 0.65638196 0.9091983
vt 0.65638196 0.9091983
vt 0.65638196 0.9091983
vt 0.65638196 0.9091983
vt 0.65638196 0.9091983
vt 0.65638196 0.9091983
vt 0.65638196 0.9091983
vt 0.65638196 0.9091983
vt 0.65638196 0.9091983
vn -0.40610164 0.17823815 0.8962771
vn -0.40610164 0.17823815 0.8962771
vn -0.40610164 0.17823815 0.8962771
vn -0.5456063 0.71868664 0.43104914
vn -0.5456063 0.71868664 0.43104914
vn -0.5456063 0.71868664 0.43104914
vn -0.8838183 0.42404336 -0.19761667
vn -0.8838183 0.42404336 -0.19761667
vn -0.8838183 0.42404336 -0.19761667
vn -0.95358497 -0.22277583 -0.2025998
vn -0.95358497 -0.22277583 -0.2025998
vn -0.95358497 -0.22277583 -0.2025998
vn -0.6001291 -0.63027054 0.49254853
vn -0.6001291 -0.63027054 0.49254853
vn -0.6001291 -0.63027054 0.49254853
vn -0.33344102 -0.862502 0.38066718
vn -0.33344102 -0.862502 0.38066718
vn -0.33344102 -0.862502 0.38066718
vn 0.52801496 -0.32958898 0.78266937
vn 0.52801496 -0.32958898 0.78266937
vn 0.52801496 -0.32958898 0.78266937
vn 0.31215805 0.13626738 0.9402067
vn 0.31215805 0.13626738 0.9402067
vn 0.31215805 0.13626738 0.9402067
vn -0.6563883 -0.4469844 -0.6077494
vn -0.6563883 -0.4469844 -0.6077494
vn -0.6563883 -0.4469844 -0.6077494
vn 0.40668944 0.8849754 -0.2267647
vn 0.40668944 0.8849754 -0.2267647
vn 0.40668944 0.8849754 -0.2267647
vn -0.48381472 0.5740995 -0.66055524
vn -0.48381472 0.5740995 -0.66055524
vn -0.48381472 0.5740995 -0.66055524
vn -0.42846724 -0.03917083 -0.9027079
vn -0.42846724 -0.03917083 -0.9027079
vn -0.42846724 -0.03917083 -0.9027079
vn 0.7154671 -0.14691293 -0.6830251
vn 0.7154671 -0.14691293 -0.6830251
vn 0.7154671 -0.14691293 -0.6830251
vn 0.76121 -0.36369115 -0.5369246
vn 0.76121 -0.36369115 -0.5369246
vn 0.76121 -0.36369115 -0.5369246
vn 0.9781788 -0.16406548 0.12747052
vn 0.9781788 -0.16406548 0.12747052
vn 0.9781788 -0.16406548 0.12747052
vn -0.15389107 -0.96139866 -0.22810109
vn -0.15389107 -0.96139866 -0.22810109
vn -0.15389107 -0.96139866 -0.22810109
vn 0.6588971 0.7267303 0.19421045
vn 0.6588971 0.7267303 0.19421045
vn 0.6588971 0.7267303 0.19421045
vn 0.41239643 0.9022335 -0.1261103
vn 0.41239643 0.9022335 -0.1261103
vn 0.41239643 0.9022335 -0.1261103
vn -0.40961832 0.87208915 -0.26771873
vn -0.40961832 0.87208915 -0.26771873
vn -0.40961832 0.87208915 -0.26771873
vn -0.6614131 0.68155 0.3130851
vn -0.6614131 0.68155 0.3130851
vn -0.6614131 0.68155 0.3130851
vn -0.11591825 0.7070697 0.69757825
vn -0.11591825 0.7070697 0.69757825
vn -0.11591825 0.7070697 0.69757825
vn 0.5334336 0.76416385 0.3626322
vn 0.5334336 0.76416385 0.3626322
vn 0.5334336 0.76416385 0.3626322
vn 0.14648029 0.93918294 -0.3106107
vn 0.14648029 0.93918294 -0.3106107
vn 0.14648029 0.93918294 -0.3106107
vn 0.38156003 0.14990118 -0.9121083
vn 0.38156003 0.14990118 -0.9121083
vn 0.38156003 0.14990118 -0.9121083
vn 0.18548742 -0.005409371 -0.9826317
vn 0.18548742 -0.005409371 -0.9826317
vn 0.18548742 -0.005409371 -0.9826317
vn -0.4959863 0.30862296 -0.8116338
vn -0.4959863 0.30862296 -0.8116338
vn -0.4959863 0.30862296 -0.8116338
vn -0.13394241 -0.831699 0.53882843
vn -0.13394241 -0.831699 0.53882843
vn -0.13394241 -0.831699 0.53882843
vn -0.19635949 -0.7344748 0.6496075
vn -0.19635949 -0.7344748 0.6496075
vn -0.19635949 -0.7344748 0.6496075
vn 0.12578563 -0.53863555 0.83309644
vn 0.12578563 -0.53863555 0.83309644
vn 0.12578563 -0.53863555 0.83309644
vn 0.4035961 -0.56793433 0.71732885
vn 0.4035961 -0.56793433 0.71732885
vn 0.4035961 -0.56793433 0.71732885
vn 0.3307939 -0.7958586 0.5071334
vn 0.3307939 -0.7958586 0.5071334
vn 0.3307939 -0.7958586 0.5071334
vn 0.6065425 -0.54341227 -0.5803527
vn 0.6065425 -0.54341227 -0.5803527
vn 0.6065425 -0.54341227 -0.5803527
vn 0.24814536 -0.5030901 -0.8278431
vn 0.24814536 -0.5030901 -0.8278431
vn 0.24814536 -0.5030901 -0.8278431
vn -0.46128377 -0.7941431 -0.39566922
vn -0.46128377 -0.7941431 -0.39566922
vn -0.46128377 -0.7941431 -0.39566922
vn -0.9100802 -0.261063 -0.32186952
vn -0.9100802 -0.261063 -0.32186952
vn -0.9100802 -0.261063 -0.32186952
vn -0.96715254 -0.02051983 0.2533672
vn -0.96715254 -0.02051983 0.2533672
vn -0.96715254 -0.02051983 0.2533672
vn 0.9043817 0.241781 0.3516187
vn 0.9043817 0.241781 0.3516187
vn 0.9043817 0.241781 0.3516187
vn 0.81186885 -0.180883 -0.555113
vn 0.81186885 -0.180883 -0.555113
vn 0.81186885 -0.180883 -0.555113
vn -0.13121518 0.9842039 -0.11884988
vn -0.13121518 0.9842039 -0.11884988
vn -0.13121518 0.9842039 -0.11884988
vn -0.35186094 0.6470585 -0.67639434
vn -0.35186094 0.6470585 -0.67639434
vn -0.35186094 0.6470585 -0.67639434
vn -0.950149 0.19898719 -0.2400437
vn -0.950149 0.19898719 -0.2400437
vn -0.950149 0.19898719 -0.2400437
vn -0.76932603 0.35711905 0.52972007
vn -0.76932603 0.35711905 0.52972007
vn -0.76932603 0.35711905 0.52972007
vn -0.3183523 0.8255791 0.46590874
vn -0.3183523 0.8255791 0.46590874
vn -0.3183523 0.8255791 0.46590874
vn -0.0020599898 0.6590747 0.7520747
vn -0.0020599898 0.6590747 0.7520747
vn -0.0020599898 0.6590747 0.7520747
vn 0.550905 0.7320154 0.4008205
vn 0.550905 0.7320154 0.4008205
vn 0.550905 0.7320154 0.4008205
vn 0.39460236 0.880177 -0.2637755
vn 0.39460236 0.880177 -0.2637755
vn 0.39460236 0.880177 -0.2637755
vn 0.1500018 -0.8909323 -0.42864782
vn 0.1500018 -0.8909323 -0.42864782
vn 0.1500018 -0.8909323 -0.42864782
vn 0.030067718 -0.83049744 -0.5562102
vn 0.030067718 -0.83049744 -0.5562102
vn 0.030067718 -0.83049744 -0.5562102
vn -0.25978386 -0.8961213 -0.35983187
vn -0.25978386 -0.8961213 -0.35983187
vn -0.25978386 -0.8961213 -0.35983187
vn -0.23207474 -0.9720846 -0.034536306
vn -0.23207474 -0.9720846 -0.034536306
vn -0.23207474 -0.9720846 -0.034536306
vn 0.04756403 -0.9938863 -0.09963786
vn 0.04756403 -0.9938863 -0.09963786
vn 0.04756403 -0.9938863 -0.09963786
vn 0.38847402 -0.601264 0.69826186
vn 0.38847402 -0.601264 0.69826186
vn 0.38847402 -0.601264 0.69826186
vn 0.94876754 -0.17067613 0.26591307
vn 0.94876754 -0.17067613 0.26591307
vn 0.94876754 -0.17067613 0.26591307
vn 0.7599374 -0.37693304 -0.5295437
vn 0.7599374 -0.37693304 -0.5295437
vn 0.7599374 -0.37693304 -0.5295437
vn 0.5402656 0.17435011 -0.8232345
vn 0.5402656 0.17435011 -0.8232345
vn 0.5402656 0.17435011 -0.8232345
vn 0.19081655 0.010501615 -0.9815695
vn 0.19081655 0.010501615 -0.9815695
vn 0.19081655 0.010501615 -0.9815695
vn -0.5640627 -0.24527352 0.7884631
vn -0.5640627 -0.24527352 0.7884631
vn -0.5640627 -0.24527352 0.7884631
vn -0.08714203 -0.07052155 0.99369663
vn -0.08714203 -0.07052155 0.99369663
vn -0.08714203 -0.07052155 0.99369663
vn 0.5804113 -0.008948244 -0.81427425
vn 0.5804113 -0.008948244 -0.81427425
vn 0.5804113 -0.008948244 -0.81427425
vn 0.5804113 -0.008948244 -0.81427425
vn -0.5862657 0.13912804 -0.7980827
vn -0.5862657 0.13912804 -0.7980827
vn -0.5862657 0.13912804 -0.7980827
vn -0.5862657 0.13912804 -0.7980827
vn -0.9283525 0.007100981 0.37163317
vn -0.9283525 0.007100981 0.37163317
vn -0.9283525 0.007100981 0.37163317
vn -0.9283525 0.007100981 0.37163317
vn 0.09538355 0.055519078 0.9938911
vn 0.09538355 0.055519078 0.9938911
vn 0.09538355 0.055519078 0.9938911
vn 0.09538355 0.055519078 0.9938911
vn 0.9885179 0.051600266 0.14202029
vn 0.9885179 0.051600266 0.14202029
vn 0.9885179 0.051600266 0.14202029
vn 0.9885179 0.051600266 0.14202029
vn 0.62357426 0.016227365 -0.7815957
vn 0.62357426 0.016227365 -0.7815957
vn 0.62357426 0.016227365 -0.7815957
vn 0.62357426 0.016227365 -0.7815957
vn -0.56370324 -0.027744604 -0.8255113
vn -0.56370324 -0.027744604 -0.8255113
vn -0.56370324 -0.027744604 -0.8255113
vn -0.56370324 -0.027744604 -0.8255113
vn -0.91882455 0.0899792 0.38427216
vn -0.91882455 0.0899792 0.38427216
vn -0.91882455 0.0899792 0.38427216
vn -0.91882455 0.0899792 0.38427216
vn 0.06954422 -0.13844176 0.9879259
vn 0.06954422 -0.13844176 0.9879259
vn 0.06954422 -0.13844176 0.9879259
vn 0.06954422 -0.13844176 0.9879259
vn 0.96201175 -0.15199159 0.22678599
vn 0.96201175 -0.15199159 0.22678599
vn 0.96201175 -0.15199159 0.22678599
vn 0.96201175 -0.15199159 0.22678599
vn 0.53574395 0.06510849 -0.8418666
vn 0.53574395 0.06510849 -0.8418666
vn 0.53574395 0.06510849 -0.8418666
vn 0.53574395 0.06510849 -0.8418666
vn -0.632898 0.21282136 -0.74441063
vn -0.632898 0.21282136 -0.74441063
vn -0.632898 0.21282136 -0.74441063
vn -0.632898 0.21282136 -0.74441063
vn -0.9407051 -0.30957094 -0.13870762
vn -0.9407051 -0.30957094 -0.13870762
vn -0.9407051 -0.30957094 -0.13870762
vn -0.9407051 -0.30957094 -0.13870762
vn -0.6350439 0.6497267 0.41782102
vn -0.6350439 0.6497267 0.41782102
vn -0.6350439 0.6497267 0.41782102
vn -0.6350439 0.6497267 0.41782102
vn 0.5479403 0.7410854 0.3880127
vn 0.5479403 0.7410854 0.3880127
vn 0.5479403 0.7410854 0.3880127
vn 0.5479403 0.7410854 0.3880127
vn 0.92223537 -0.30114 -0.24247992
vn 0.92223537 -0.30114 -0.24247992
vn 0.92223537 -0.30114 -0.24247992
vn 0.92223537 -0.30114 -0.24247992
vn -0.00074577646 -0.8581789 -0.5133501
vn -0.00074577646 -0.8581789 -0.5133501
vn -0.00074577646 -0.8581789 -0.5133501
vn -0.00074577646 -0.8581789 -0.5133501
vn 0.39523602 -0.23796271 -0.88722163
vn 0.39523602 -0.23796271 -0.88722163
vn 0.39523602 -0.23796271 -0.88722163
vn 0.39523602 -0.23796271 -0.88722163
vn -0.19035698 0.7910398 -0.5813951
vn -0.19035698 0.7910398 -0.5813951
vn -0.19035698 0.7910398 -0.5813951
vn -0.19035698 0.7910398 -0.5813951
vn -0.46160358 0.7684059 0.4432546
vn -0.46160358 0.7684059 0.4432546
vn -0.46160358 0.7684059 0.4432546
vn -0.46160358 0.7684059 0.4432546
vn -0.06455461 -0.33208147 0.9410391
vn -0.06455461 -0.33208147 0.9410391
vn -0.06455461 -0.33208147 0.9410391
vn -0.06455461 -0.33208147 0.9410391
vn 0.4387697 -0.88985443 0.12506086
vn 0.4387697 -0.88985443 0.12506086
vn 0.4387697 -0.88985443 0.12506086
vn 0.4387697 -0.88985443 0.12506086
vn 0.4979118 -0.113347456 -0.8597885
vn 0.4979118 -0.113347456 -0.8597885
vn 0.4979118 -0.113347456 -0.8597885
vn 0.4979118 -0.113347456 -0.8597885
vn -0.6327839 0.29056135 -0.71774554
vn -0.6327839 0.29056135 -0.71774554
vn -0.6327839 0.29056135 -0.71774554
vn -0.6327839 0.29056135 -0.71774554
vn -0.8764529 0.29253614 0.3824303
vn -0.8764529 0.29253614 0.3824303
vn -0.8764529 0.29253614 0.3824303
vn -0.8764529 0.29253614 0.3824303
vn 0.09638723 -0.11663758 0.9884863
vn 0.09638723 -0.11663758 0.9884863
vn 0.09638723 -0.11663758 0.9884863
vn 0.09638723 -0.11663758 0.9884863
vn 0.9111943 -0.35490316 0.20920941
vn 0.9111943 -0.35490316 0.20920941
vn 0.9111943 -0.35490316 0.20920941
vn 0.9111943 -0.35490316 0.20920941
vn -0.91638374 0.13576654 0.37657455
vn -0.91638374 0.13576654 0.37657455
vn -0.91638374 0.13576654 0.37657455
vn -0.91638374 0.13576654 0.37657455
vn 0.09275435 -0.00415021 0.99568033
vn 0.09275435 -0.00415021 0.99568033
vn 0.09275435 -0.00415021 0.99568033
vn 0.09275435 -0.00415021 0.99568033
vn 0.97471523 -0.08922558 0.20486319
vn 0.97471523 -0.08922558 0.20486319
vn 0.97471523 -0.08922558 0.20486319
vn 0.97471523 -0.08922558 0.20486319
vn 0.39921272 0.91124225 0.10132562
vn 0.3970648 0.91298383 0.09380882
vn 0.41275257 0.90647084 0.08914051
vn 0.41275257 0.90647084 0.08914051
vn 0.40609914 0.9098429 0.08526072
vn 0.41275257 0.90647084 0.08914051
g city_Tree03_0
f 3/3/3 2/2/2 1/1/1
f 6/6/6 5/5/5 4/4/4
f 9/9/9 8/8/8 7/7/7
f 12/12/12 11/11/11 10/10/10
f 15/15/15 14/14/14 13/13/13
f 18/18/18 17/17/17 16/16/16
f 21/21/21 20/20/20 19/19/19
f 24/24/24 23/23/23 22/22/22
f 27/27/27 26/26/26 25/25/25
f 30/30/30 29/29/29 28/28/28
f 33/33/33 32/32/32 31/31/31
f 36/36/36 35/35/35 34/34/34
f 39/39/39 38/38/38 37/37/37
f 42/42/42 41/41/41 40/40/40
f 45/45/45 44/44/44 43/43/43
f 48/48/48 47/47/47 46/46/46
f 51/51/51 50/50/50 49/49/49
f 54/54/54 53/53/53 52/52/52
f 57/57/57 56/56/56 55/55/55
f 60/60/60 59/59/59 58/58/58
f 63/63/63 62/62/62 61/61/61
f 66/66/66 65/65/65 64/64/64
f 69/69/69 68/68/68 67/67/67
f 72/72/72 71/71/71 70/70/70
f 75/75/75 74/74/74 73/73/73
f 78/78/78 77/77/77 76/76/76
f 81/81/81 80/80/80 79/79/79
f 84/84/84 83/83/83 82/82/82
f 87/87/87 86/86/86 85/85/85
f 90/90/90 89/89/89 88/88/88
f 93/93/93 92/92/92 91/91/91
f 96/96/96 95/95/95 94/94/94
f 99/99/99 98/98/98 97/97/97
f 102/102/102 101/101/101 100/100/100
f 105/105/105 104/104/104 103/103/103
f 108/108/108 107/107/107 106/106/106
f 111/111/111 110/110/110 109/109/109
f 114/114/114 113/113/113 112/112/112
f 117/117/117 116/116/116 115/115/115
f 120/120/120 119/119/119 118/118/118
f 123/123/123 122/122/122 121/121/121
f 126/126/126 125/125/125 124/124/124
f 129/129/129 128/128/128 127/127/127
f 132/132/132 131/131/131 130/130/130
f 135/135/135 134/134/134 133/133/133
f 138/138/138 137/137/137 136/136/136
f 141/141/141 140/140/140 139/139/139
f 144/144/144 143/143/143 142/142/142
f 147/147/147 146/146/146 145/145/145
f 150/150/150 149/149/149 148/148/148
f 153/153/153 152/152/152 151/151/151
f 156/156/156 155/155/155 154/154/154
f 159/159/159 158/158/158 157/157/157
f 162/162/162 161/161/161 160/160/160
f 165/165/165 164/164/164 163/163/163
f 168/168/168 167/167/167 166/166/166
f 171/171/171 170/170/170 169/169/169
f 174/174/174 173/173/173 172/172/172
f 177/177/177 176/176/176 175/175/175
f 178/178/178 177/177/177 175/175/175
f 181/181/181 180/180/180 179/179/179
f 182/182/182 181/181/181 179/179/179
f 185/185/185 184/184/184 183/183/183
f 186/186/186 185/185/185 183/183/183
f 189/189/189 188/188/188 187/187/187
f 190/190/190 189/189/189 187/187/187
f 193/193/193 192/192/192 191/191/191
f 194/194/194 193/193/193 191/191/191
f 197/197/197 196/196/196 195/195/195
f 198/198/198 197/197/197 195/195/195
f 201/201/201 200/200/200 199/199/199
f 202/202/202 201/201/201 199/199/199
f 205/205/205 204/204/204 203/203/203
f 206/206/206 205/205/205 203/203/203
f 209/209/209 208/208/208 207/207/207
f 210/210/210 209/209/209 207/207/207
f 213/213/213 212/212/212 211/211/211
f 214/214/214 213/213/213 211/211/211
f 217/217/217 216/216/216 215/215/215
f 218/218/218 217/217/217 215/215/215
f 221/221/221 220/220/220 219/219/219
f 222/222/222 221/221/221 219/219/219
f 225/225/225 224/224/224 223/223/223
f 226/226/226 225/225/225 223/223/223
f 229/229/229 228/228/228 227/227/227
f 230/230/230 229/229/229 227/227/227
f 233/233/233 232/232/232 231/231/231
f 234/234/234 233/233/233 231/231/231
f 237/237/237 236/236/236 235/235/235
f 238/238/238 237/237/237 235/235/235
f 241/241/241 240/240/240 239/239/239
f 242/242/242 241/241/241 239/239/239
f 245/245/245 244/244/244 243/243/243
f 246/246/246 245/245/245 243/243/243
f 249/249/249 248/248/248 247/247/247
f 250/250/250 249/249/249 247/247/247
f 253/253/253 252/252/252 251/251/251
f 254/254/254 253/253/253 251/251/251
f 257/257/257 256/256/256 255/255/255
f 258/258/258 257/257/257 255/255/255
f 261/261/261 260/260/260 259/259/259
f 262/262/262 261/261/261 259/259/259
f 265/265/265 264/264/264 263/263/263
f 266/266/266 265/265/265 263/263/263
f 269/269/269 268/268/268 267/267/267
f 270/270/270 269/269/269 267/267/267
f 273/273/273 272/272/272 271/271/271
f 274/274/274 273/273/273 271/271/271
f 277/277/277 276/276/276 275/275/275
f 278/278/278 277/277/277 275/275/275
f 281/281/281 280/280/280 279/279/279
f 282/282/282 281/281/281 279/279/279
f 285/285/285 284/284/284 283/283/283
f 286/286/286 285/285/285 283/283/283
f 289/289/289 288/288/288 287/287/287
f 290/290/290 289/289/289 287/287/287
f 293/293/293 292/292/292 291/291/291
f 294/294/294 293/293/293 291/291/291
f 297/297/297 296/296/296 295/295/295
f 297/297/297 295/295/295 298/298/298
f 297/297/297 299/299/299 296/296/296
f 297/297/297 298/298/298 300/300/300
f 297/297/297 300/300/300 299/299/299
