g city_Cactus
v 0.21560144 1.8185418 0.18080607
v 0.2199818 1.4689997 -0.17662822
v 0.4834162 1.5854329 0.07054871
v -0.13689184 1.4664384 0.24859121
v 0.21560144 1.8185418 0.18080607
v 0.15328386 1.5850235 0.46368343
v -0.44889688 2.0353148 -0.5861436
v -0.4283576 2.0237412 -0.36028305
v -0.6541975 2.0352218 -0.33946046
v -0.6744552 2.0467184 -0.56508875
v -0.101446286 2.748999 0.16213737
v -0.12450944 2.7368162 -0.104474984
v 0.14205724 2.748999 -0.12805974
v 0.16508885 2.7611754 0.13852613
v 0.16508885 2.7611754 0.13852613
v 0.14205724 2.748999 -0.12805974
v 0.2285494 2.5154538 -0.20667943
v 0.26553938 2.5317795 0.22281383
v -0.101446286 2.748999 0.16213737
v 0.16508885 2.7611754 0.13852613
v 0.26553938 2.5317795 0.22281383
v -0.16385204 2.5154538 0.26096782
v -0.12450944 2.7368162 -0.104474984
v -0.101446286 2.748999 0.16213737
v -0.16385204 2.5154538 0.26096782
v -0.20143925 2.4990714 -0.16902657
v 0.14205724 2.748999 -0.12805974
v -0.12450944 2.7368162 -0.104474984
v -0.20143925 2.4990714 -0.16902657
v 0.2285494 2.5154538 -0.20667943
v 0.26553938 2.5317795 0.22281383
v 0.2285494 2.5154538 -0.20667943
v 0.23903967 1.825747 -0.17066778
v 0.27296734 1.8238975 0.22896022
v -0.16385204 2.5154538 0.26096782
v 0.26553938 2.5317795 0.22281383
v 0.27296734 1.8238975 0.22896022
v -0.12656596 1.8260386 0.26505464
v -0.20143925 2.4990714 -0.16902657
v -0.16385204 2.5154538 0.26096782
v -0.12656596 1.8260386 0.26505464
v -0.16266371 1.8275986 -0.13657202
v 0.2285494 2.5154538 -0.20667943
v -0.20143925 2.4990714 -0.16902657
v -0.16266371 1.8275986 -0.13657202
v 0.23903967 1.825747 -0.17066778
v 0.23903967 1.825747 -0.17066778
v 0.2199818 1.4689997 -0.17662822
v 0.21560144 1.8185418 0.18080607
v 0.27296734 1.8238975 0.22896022
v 0.21560144 1.8185418 0.18080607
v -0.13689184 1.4664384 0.24859121
v -0.12656596 1.8260386 0.26505464
v 0.27296734 1.8238975 0.22896022
v -0.16266371 1.8275986 -0.13657202
v -0.12656596 1.8260386 0.26505464
v -0.13689184 1.4664384 0.24859121
v -0.16181792 1.4852008 -0.13346343
v 0.23903967 1.825747 -0.17066778
v -0.16266371 1.8275986 -0.13657202
v -0.16181792 1.4852008 -0.13346343
v 0.2199818 1.4689997 -0.17662822
v 0.24594797 1.0746906 0.19669786
v 0.22845352 0.9121283 -0.22795273
v 0.25307634 0.86276305 0.19614789
v 0.242612 1.1974705 -0.22106801
v 0.2418017 1.3212484 0.20544778
v 0.2796868 1.3651104 0.07130618
v 0.2199818 1.4689997 -0.17662822
v 0.25307634 0.86276305 0.19614789
v -0.17438209 0.91471404 0.2550633
v -0.16787605 1.1953766 0.26783568
v 0.24594797 1.0746906 0.19669786
v 0.2418017 1.3212484 0.20544778
v 0.10701975 1.3718927 0.25823808
v -0.13689184 1.4664384 0.24859121
v -0.16976762 1.3214343 -0.1502109
v -0.16787605 1.1953766 0.26783568
v -0.17438209 0.91471404 0.2550633
v -0.15215264 1.2837398 -0.14181298
v 0.242612 1.1974705 -0.22106801
v -0.16976762 1.3214343 -0.1502109
v -0.15215264 1.2837398 -0.14181298
v 0.22845352 0.9121283 -0.22795273
v -0.44000563 0.8598197 -0.36846122
v -0.22027066 0.7486653 -0.19580749
v 0.22845352 0.9121283 -0.22795273
v -0.19209632 1.0715082 -0.49481705
v -0.17438209 0.91471404 0.2550633
v -0.22027066 0.7486653 -0.19580749
v -0.44000563 0.8598197 -0.36846122
v -0.51712036 1.0699987 -0.09996466
v -0.15215264 1.2837398 -0.14181298
v -0.17438209 0.91471404 0.2550633
v -0.51712036 1.0699987 -0.09996466
v -0.2515464 1.3108287 -0.21073538
v 0.22845352 0.9121283 -0.22795273
v -0.15215264 1.2837398 -0.14181298
v -0.2515464 1.3108287 -0.21073538
v -0.19209632 1.0715082 -0.49481705
v -0.44000563 0.8598197 -0.36846122
v -0.19209632 1.0715082 -0.49481705
v -0.38281223 1.3534454 -0.6915901
v -0.7530787 1.2492963 -0.63052064
v -0.51712036 1.0699987 -0.09996466
v -0.44000563 0.8598197 -0.36846122
v -0.7530787 1.2492963 -0.63052064
v -0.74611056 1.354266 -0.25552347
v -0.2515464 1.3108287 -0.21073538
v -0.51712036 1.0699987 -0.09996466
v -0.74611056 1.354266 -0.25552347
v -0.34949332 1.4724503 -0.2949025
v -0.19209632 1.0715082 -0.49481705
v -0.2515464 1.3108287 -0.21073538
v -0.34949332 1.4724503 -0.2949025
v -0.38281223 1.3534454 -0.6915901
v -0.7530787 1.2492963 -0.63052064
v -0.38281223 1.3534454 -0.6915901
v -0.38134235 1.7801292 -0.70231646
v -0.79214996 1.7832737 -0.66316056
v -0.74611056 1.354266 -0.25552347
v -0.7530787 1.2492963 -0.63052064
v -0.79214996 1.7832737 -0.66316056
v -0.75605786 1.7801011 -0.25205183
v -0.34949332 1.4724503 -0.2949025
v -0.74611056 1.354266 -0.25552347
v -0.75605786 1.7801011 -0.25205183
v -0.34183884 1.7765534 -0.28839186
v -0.38281223 1.3534454 -0.6915901
v -0.34949332 1.4724503 -0.2949025
v -0.34183884 1.7765534 -0.28839186
v -0.38134235 1.7801292 -0.70231646
v -0.79214996 1.7832737 -0.66316056
v -0.38134235 1.7801292 -0.70231646
v -0.44889688 2.0353148 -0.5861436
v -0.6744552 2.0467184 -0.56508875
v -0.75605786 1.7801011 -0.25205183
v -0.79214996 1.7832737 -0.66316056
v -0.6744552 2.0467184 -0.56508875
v -0.6541975 2.0352218 -0.33946046
v -0.34183884 1.7765534 -0.28839186
v -0.75605786 1.7801011 -0.25205183
v -0.6541975 2.0352218 -0.33946046
v -0.4283576 2.0237412 -0.36028305
v -0.38134235 1.7801292 -0.70231646
v -0.34183884 1.7765534 -0.28839186
v -0.4283576 2.0237412 -0.36028305
v -0.44889688 2.0353148 -0.5861436
v 0.2199818 1.4689997 -0.17662822
v -0.16181792 1.4852008 -0.13346343
v -0.16976762 1.3214343 -0.1502109
v 0.242612 1.1974705 -0.22106801
v -0.16181792 1.4852008 -0.13346343
v -0.13689184 1.4664384 0.24859121
v -0.16787605 1.1953766 0.26783568
v -0.16976762 1.3214343 -0.1502109
v -0.17727083 -0.07095446 0.21788321
v 0.21806277 -0.053950436 0.18297078
v 0.18379821 -0.07095754 -0.21240251
v -0.21151732 -0.08784872 -0.17747052
v 0.21806277 -0.053950436 0.18297078
v -0.17727083 -0.07095446 0.21788321
v -0.22160423 0.4208812 0.21929178
v 0.21806699 0.4126244 0.18345694
v 0.18379821 -0.07095754 -0.21240251
v 0.21806277 -0.053950436 0.18297078
v 0.21806699 0.4126244 0.18345694
v 0.17731628 0.4159093 -0.25641027
v -0.21151732 -0.08784872 -0.17747052
v 0.18379821 -0.07095754 -0.21240251
v 0.17731628 0.4159093 -0.25641027
v -0.25744292 0.42443562 -0.21565966
v -0.17727083 -0.07095446 0.21788321
v -0.21151732 -0.08784872 -0.17747052
v -0.25744292 0.42443562 -0.21565966
v -0.22160423 0.4208812 0.21929178
v 0.21806699 0.4126244 0.18345694
v -0.22160423 0.4208812 0.21929178
v -0.17438209 0.91471404 0.2550633
v 0.25307634 0.86276305 0.19614789
v 0.25307634 0.86276305 0.19614789
v 0.22845352 0.9121283 -0.22795273
v 0.17731628 0.4159093 -0.25641027
v 0.21806699 0.4126244 0.18345694
v 0.22845352 0.9121283 -0.22795273
v -0.22027066 0.7486653 -0.19580749
v -0.25744292 0.42443562 -0.21565966
v 0.17731628 0.4159093 -0.25641027
v -0.22027066 0.7486653 -0.19580749
v -0.17438209 0.91471404 0.2550633
v -0.22160423 0.4208812 0.21929178
v -0.25744292 0.42443562 -0.21565966
v 0.6267472 2.6322272 0.5765454
v 0.40612993 2.620249 0.5932343
v 0.3883158 2.6436243 0.37362015
v 0.6088803 2.65558 0.3569932
v 0.15328386 1.5850235 0.46368343
v 0.41180003 1.3721807 0.3451639
v 0.2418017 1.3212484 0.20544778
v 0.10701975 1.3718927 0.25823808
v -0.13689184 1.4664384 0.24859121
v 0.4834162 1.5854329 0.07054871
v 0.2199818 1.4689997 -0.17662822
v 0.2796868 1.3651104 0.07130618
v 0.41180003 1.3721807 0.3451639
v 0.2418017 1.3212484 0.20544778
v 0.21560144 1.8185418 0.18080607
v 0.4834162 1.5854329 0.07054871
v 0.6488159 1.766423 0.21063222
v 0.30259183 1.9052881 0.25383875
v 0.15328386 1.5850235 0.46368343
v 0.21560144 1.8185418 0.18080607
v 0.30259183 1.9052881 0.25383875
v 0.32000813 1.7663585 0.60231245
v 0.41180003 1.3721807 0.3451639
v 0.15328386 1.5850235 0.46368343
v 0.32000813 1.7663585 0.60231245
v 0.64217114 1.6451045 0.53884125
v 0.4834162 1.5854329 0.07054871
v 0.41180003 1.3721807 0.3451639
v 0.64217114 1.6451045 0.53884125
v 0.6488159 1.766423 0.21063222
v 0.30259183 1.9052881 0.25383875
v 0.6488159 1.766423 0.21063222
v 0.6990267 1.9905363 0.21778986
v 0.29962653 2.02328 0.24901262
v 0.71499664 2.4550362 0.2208496
v 0.28752828 2.445254 0.25339776
v 0.32000813 1.7663585 0.60231245
v 0.30259183 1.9052881 0.25383875
v 0.29962653 2.02328 0.24901262
v 0.33411545 1.9827933 0.648702
v 0.64217114 1.6451045 0.53884125
v 0.32000813 1.7663585 0.60231245
v 0.33411545 1.9827933 0.648702
v 0.7276699 1.9512992 0.61052513
v 0.6488159 1.766423 0.21063222
v 0.64217114 1.6451045 0.53884125
v 0.7276699 1.9512992 0.61052513
v 0.6990267 1.9905363 0.21778986
v 0.33411545 1.9827933 0.648702
v 0.29962653 2.02328 0.24901262
v 0.28752828 2.445254 0.25339776
v 0.32078904 2.4134018 0.68180287
v 0.7276699 1.9512992 0.61052513
v 0.33411545 1.9827933 0.648702
v 0.32078904 2.4134018 0.68180287
v 0.7502847 2.4232535 0.6471052
v 0.6990267 1.9905363 0.21778986
v 0.7276699 1.9512992 0.61052513
v 0.7502847 2.4232535 0.6471052
v 0.71499664 2.4550362 0.2208496
v 0.28752828 2.445254 0.25339776
v 0.71499664 2.4550362 0.2208496
v 0.6088803 2.65558 0.3569932
v 0.3883158 2.6436243 0.37362015
v 0.32078904 2.4134018 0.68180287
v 0.28752828 2.445254 0.25339776
v 0.3883158 2.6436243 0.37362015
v 0.40612993 2.620249 0.5932343
v 0.7502847 2.4232535 0.6471052
v 0.32078904 2.4134018 0.68180287
v 0.40612993 2.620249 0.5932343
v 0.6267472 2.6322272 0.5765454
v 0.71499664 2.4550362 0.2208496
v 0.7502847 2.4232535 0.6471052
v 0.6267472 2.6322272 0.5765454
v 0.6088803 2.65558 0.3569932
vt 0.34289443 0.46728307
vt 0.34289443 0.46728307
vt 0.34289443 0.46728307
vt 0.34289443 0.46728307
vt 0.34289443 0.46728307
vt 0.34289443 0.46728307
vt 0.34289443 0.46728307
vt 0.34289443 0.46728307
vt 0.34289443 0.46728307
vt 0.34289443 0.46728307
vt 0.34289443 0.46728307
vt 0.34289443 0.46728307
vt 0.34289443 0.46728307
vt 0.34289443 0.46728307
vt 0.34289443 0.46728307
vt 0.34289443 0.46728307
vt 0.34289443 0.46728307
vt 0.34289443 0.46728307
vt 0.34289443 0.46728307
vt 0.34289443 0.46728307
vt 0.34289443 0.46728307
vt 0.34289443 0.46728307
vt 0.34289443 0.46728307
vt 0.34289443 0.46728307
vt 0.34289443 0.46728307
vt 0.34289443 0.46728307
vt 0.34289443 0.46728307
vt 0.34289443 0.46728307
vt 0.34289443 0.46728307
vt 0.34289443 0.46728307
vt 0.34289443 0.46728307
vt 0.34289443 0.46728307
vt 0.34289443 0.46728307
vt 0.34289443 0.46728307
vt 0.34289443 0.46728307
vt 0.34289443 0.46728307
vt 0.34289443 0.46728307
vt 0.34289443 0.46728307
vt 0.34289443 0.46728307
vt 0.34289443 0.46728307
vt 0.34289443 0.46728307
vt 0.34289443 0.46728307
vt 0.34289443 0.46728307
vt 0.34289443 0.46728307
vt 0.34289443 0.46728307
vt 0.34289443 0.46728307
vt 0.34289443 0.46728307
vt 0.34289443 0.46728307
vt 0.34289443 0.46728307
vt 0.34289443 0.46728307
vt 0.34289443 0.46728307
vt 0.34289443 0.46728307
vt 0.34289443 0.46728307
vt 0.34289443 0.46728307
vt 0.34289443 0.46728307
vt 0.34289443 0.46728307
vt 0.34289443 0.46728307
vt 0.34289443 0.46728307
vt 0.34289443 0.46728307
vt 0.34289443 0.46728307
vt 0.34289443 0.46728307
vt 0.34289443 0.46728307
vt 0.34289443 0.46728307
vt 0.34289443 0.46728307
vt 0.34289443 0.46728307
vt 0.34289443 0.46728307
vt 0.34289443 0.46728307
vt 0.34289443 0.46728307
vt 0.34289443 0.46728307
vt 0.34289443 0.46728307
vt 0.34289443 0.46728307
vt 0.34289443 0.46728307
vt 0.34289443 0.46728307
vt 0.34289443 0.46728307
vt 0.34289443 0.46728307
vt 0.34289443 0.46728307
vt 0.34289443 0.46728307
vt 0.34289443 0.46728307
vt 0.34289443 0.46728307
vt 0.34289443 0.46728307
vt 0.34289443 0.46728307
vt 0.34289443 0.46728307
vt 0.34289443 0.46728307
vt 0.34289443 0.46728307
vt 0.34289443 0.46728307
vt 0.34289443 0.46728307
vt 0.34289443 0.46728307
vt 0.34289443 0.46728307
vt 0.34289443 0.46728307
vt 0.34289443 0.46728307
vt 0.34289443 0.46728307
vt 0.34289443 0.46728307
vt 0.34289443 0.46728307
vt 0.34289443 0.46728307
vt 0.34289443 0.46728307
vt 0.34289443 0.46728307
vt 0.34289443 0.46728307
vt 0.34289443 0.46728307
vt 0.34289443 0.46728307
vt 0.34289443 0.46728307
vt 0.34289443 0.46728307
vt 0.34289443 0.46728307
vt 0.34289443 0.46728307
vt 0.34289443 0.46728307
vt 0.34289443 0.46728307
vt 0.34289443 0.46728307
vt 0.34289443 0.46728307
vt 0.34289443 0.46728307
vt 0.34289443 0.46728307
vt 0.34289443 0.46728307
vt 0.34289443 0.46728307
vt 0.34289443 0.46728307
vt 0.34289443 0.46728307
vt 0.34289443 0.46728307
vt 0.34289443 0.46728307
vt 0.34289443 0.46728307
vt 0.34289443 0.46728307
vt 0.34289443 0.46728307
vt 0.34289443 0.46728307
vt 0.34289443 0.46728307
vt 0.34289443 0.46728307
vt 0.34289443 0.46728307
vt 0.34289443 0.46728307
vt 0.34289443 0.46728307
vt 0.34289443 0.46728307
vt 0.34289443 0.46728307
vt 0.34289443 0.46728307
vt 0.34289443 0.46728307
vt 0.34289443 0.46728307
vt 0.34289443 0.46728307
vt 0.34289443 0.46728307
vt 0.34289443 0.46728307
vt 0.34289443 0.46728307
vt 0.34289443 0.46728307
vt 0.34289443 0.46728307
vt 0.34289443 0.46728307
vt 0.34289443 0.46728307
vt 0.34289443 0.46728307
vt 0.34289443 0.46728307
vt 0.34289443 0.46728307
vt 0.34289443 0.46728307
vt 0.34289443 0.46728307
vt 0.34289443 0.46728307
vt 0.34289443 0.46728307
vt 0.34289443 0.46728307
vt 0.34289443 0.46728307
vt 0.34289443 0.46728307
vt 0.34289443 0.46728307
vt 0.34289443 0.46728307
vt 0.34289443 0.46728307
vt 0.34289443 0.46728307
vt 0.34289443 0.46728307
vt 0.34289443 0.46728307
vt 0.34289443 0.46728307
vt 0.34289443 0.46728307
vt 0.34289443 0.46728307
vt 0.34289443 0.46728307
vt 0.34289443 0.46728307
vt 0.34289443 0.46728307
vt 0.34289443 0.46728307
vt 0.34289443 0.46728307
vt 0.34289443 0.46728307
vt 0.34289443 0.46728307
vt 0.34289443 0.46728307
vt 0.34289443 0.46728307
vt 0.34289443 0.46728307
vt 0.34289443 0.46728307
vt 0.34289443 0.46728307
vt 0.34289443 0.46728307
vt 0.34289443 0.46728307
vt 0.34289443 0.46728307
vt 0.34289443 0.46728307
vt 0.34289443 0.46728307
vt 0.34289443 0.46728307
vt 0.34289443 0.46728307
vt 0.34289443 0.46728307
vt 0.34289443 0.46728307
vt 0.34289443 0.46728307
vt 0.34289443 0.46728307
vt 0.34289443 0.46728307
vt 0.34289443 0.46728307
vt 0.34289443 0.46728307
vt 0.34289443 0.46728307
vt 0.34289443 0.46728307
vt 0.34289443 0.46728307
vt 0.34289443 0.46728307
vt 0.34289443 0.46728307
vt 0.34289443 0.46728307
vt 0.34289443 0.46728307
vt 0.34289443 0.46728307
vt 0.34289443 0.46728307
vt 0.34289443 0.46728307
vt 0.34289443 0.46728307
vt 0.34289443 0.46728307
vt 0.34289443 0.46728307
vt 0.34289443 0.46728307
vt 0.34289443 0.46728307
vt 0.34289443 0.46728307
vt 0.34289443 0.46728307
vt 0.34289443 0.46728307
vt 0.34289443 0.46728307
vt 0.34289443 0.46728307
vt 0.34289443 0.46728307
vt 0.34289443 0.46728307
vt 0.34289443 0.46728307
vt 0.34289443 0.46728307
vt 0.34289443 0.46728307
vt 0.34289443 0.46728307
vt 0.34289443 0.46728307
vt 0.34289443 0.46728307
vt 0.34289443 0.46728307
vt 0.34289443 0.46728307
vt 0.34289443 0.46728307
vt 0.34289443 0.46728307
vt 0.34289443 0.46728307
vt 0.34289443 0.46728307
vt 0.34289443 0.46728307
vt 0.34289443 0.46728307
vt 0.34289443 0.46728307
vt 0.34289443 0.46728307
vt 0.34289443 0.46728307
vt 0.34289443 0.46728307
vt 0.34289443 0.46728307
vt 0.34289443 0.46728307
vt 0.34289443 0.46728307
vt 0.34289443 0.46728307
vt 0.34289443 0.46728307
vt 0.34289443 0.46728307
vt 0.34289443 0.46728307
vt 0.34289443 0.46728307
vt 0.34289443 0.46728307
vt 0.34289443 0.46728307
vt 0.34289443 0.46728307
vt 0.34289443 0.46728307
vt 0.34289443 0.46728307
vt 0.34289443 0.46728307
vt 0.34289443 0.46728307
vt 0.34289443 0.46728307
vt 0.34289443 0.46728307
vt 0.34289443 0.46728307
vt 0.34289443 0.46728307
vt 0.34289443 0.46728307
vt 0.34289443 0.46728307
vt 0.34289443 0.46728307
vt 0.34289443 0.46728307
vt 0.34289443 0.46728307
vt 0.34289443 0.46728307
vt 0.34289443 0.46728307
vt 0.34289443 0.46728307
vt 0.34289443 0.46728307
vt 0.34289443 0.46728307
vt 0.34289443 0.46728307
vt 0.34289443 0.46728307
vt 0.34289443 0.46728307
vt 0.34289443 0.46728307
vt 0.34289443 0.46728307
vt 0.34289443 0.46728307
vt 0.34289443 0.46728307
vt 0.34289443 0.46728307
vt 0.34289443 0.46728307
vt 0.34289443 0.46728307
vt 0.34289443 0.46728307
vt 0.34289443 0.46728307
vt 0.34289443 0.46728307
vt 0.34289443 0.46728307
vt 0.34289443 0.46728307
vt 0.34289443 0.46728307
vt 0.34289443 0.46728307
vn 0.31946173 0.6794457 -0.66052836
vn 0.31946173 0.6794457 -0.66052836
vn 0.31946173 0.6794457 -0.66052836
vn -0.5956403 0.6789375 0.42925104
vn -0.5956403 0.6789375 0.42925104
vn -0.5956403 0.6789375 0.42925104
vn 0.054953314 0.9974235 0.04611244
vn 0.054953314 0.9974235 0.04611244
vn 0.054953314 0.9974235 0.04611244
vn 0.05471552 0.99744594 0.04591099
vn -0.049268685 0.9979297 -0.04133903
vn -0.049268685 0.9979297 -0.04133903
vn -0.049268685 0.9979297 -0.04133903
vn -0.049251042 0.9979311 -0.04132544
vn 0.9234739 0.3717514 -0.09485124
vn 0.9234739 0.3717514 -0.09485124
vn 0.9234739 0.3717514 -0.09485124
vn 0.9234739 0.3717514 -0.09485124
vn 0.06695187 0.3717513 0.92591494
vn 0.06695187 0.3717513 0.92591494
vn 0.06695187 0.3717513 0.92591494
vn 0.06695187 0.3717513 0.92591494
vn -0.9550991 0.28756335 0.07136434
vn -0.9550991 0.28756335 0.07136434
vn -0.9550991 0.28756335 0.07136434
vn -0.9550991 0.28756335 0.07136434
vn -0.0955742 0.2875631 -0.9529812
vn -0.0955742 0.2875631 -0.9529812
vn -0.0955742 0.2875631 -0.9529812
vn -0.0955742 0.2875631 -0.9529812
vn 0.99629503 0.010197395 -0.085394666
vn 0.99629503 0.010197395 -0.085394666
vn 0.99629503 0.010197395 -0.085394666
vn 0.99629503 0.010197395 -0.085394666
vn 0.08903803 0.010143366 0.9959766
vn 0.08903803 0.010143366 0.9959766
vn 0.08903803 0.010143366 0.9959766
vn 0.08903803 0.010143366 0.9959766
vn -0.99460334 -0.053197782 0.08907398
vn -0.99460334 -0.053197782 0.08907398
vn -0.99460334 -0.053197782 0.08907398
vn -0.99460334 -0.053197782 0.08907398
vn -0.084906444 -0.053119354 -0.994972
vn -0.084906444 -0.053119354 -0.994972
vn -0.084906444 -0.053119354 -0.994972
vn -0.084906444 -0.053119354 -0.994972
vn 0.97477865 -0.21478862 0.060600583
vn 0.97477865 -0.21478862 0.060600583
vn 0.97477865 -0.21478862 0.060600583
vn 0.97477865 -0.21478862 0.060600583
vn 0.22935155 -0.21078649 0.95024574
vn 0.22935155 -0.21078649 0.95024574
vn 0.22935155 -0.21078649 0.95024574
vn 0.22935155 -0.21078649 0.95024574
vn -0.9968863 0.011979728 0.07793639
vn -0.9968863 0.011979728 0.07793639
vn -0.9968863 0.011979728 0.07793639
vn -0.9968863 0.011979728 0.07793639
vn -0.09798017 0.006611627 -0.9951664
vn -0.09798017 0.006611627 -0.9951664
vn -0.09798017 0.006611627 -0.9951664
vn -0.09798017 0.006611627 -0.9951664
vn 0.9992606 -0.013589274 -0.03596469
vn 0.9992606 -0.013589274 -0.03596469
vn 0.9992606 -0.013589274 -0.03596469
vn 0.9992606 -0.013589274 -0.03596469
vn 0.99859697 -0.028467659 -0.044650573
vn 0.99859697 -0.028467659 -0.044650573
vn 0.99859697 -0.028467659 -0.044650573
vn 0.14739653 -0.026554234 0.98872095
vn 0.14739653 -0.026554234 0.98872095
vn 0.14739653 -0.026554234 0.98872095
vn 0.14739653 -0.026554234 0.98872095
vn 0.12130035 -0.05496436 0.99109286
vn 0.12130035 -0.05496436 0.99109286
vn 0.12130035 -0.05496436 0.99109286
vn -0.9983693 -0.034209725 -0.04569928
vn -0.9983693 -0.034209725 -0.04569928
vn -0.9983693 -0.034209725 -0.04569928
vn -0.9983693 -0.034209725 -0.04569928
vn -0.19824298 -0.0067123394 -0.98012984
vn -0.19824298 -0.0067123394 -0.98012984
vn -0.19824298 -0.0067123394 -0.98012984
vn -0.19824298 -0.0067123394 -0.98012984
vn 0.20199138 -0.67493105 -0.70969546
vn 0.20199138 -0.67493105 -0.70969546
vn 0.20199138 -0.67493105 -0.70969546
vn 0.20199138 -0.67493105 -0.70969546
vn -0.6406909 -0.69143784 0.3338098
vn -0.6406909 -0.69143784 0.3338098
vn -0.6406909 -0.69143784 0.3338098
vn -0.6406909 -0.69143784 0.3338098
vn -0.33104488 0.69106674 0.6425233
vn -0.33104488 0.69106674 0.6425233
vn -0.33104488 0.69106674 0.6425233
vn -0.33104488 0.69106674 0.6425233
vn 0.55228585 0.6853968 -0.47456455
vn 0.55228585 0.6853968 -0.47456455
vn 0.55228585 0.6853968 -0.47456455
vn 0.55228585 0.6853968 -0.47456455
vn 0.027738683 -0.54972994 -0.8348818
vn 0.027738683 -0.54972994 -0.8348818
vn 0.027738683 -0.54972994 -0.8348818
vn 0.027738683 -0.54972994 -0.8348818
vn -0.8177504 -0.5470977 0.17879704
vn -0.8177504 -0.5470977 0.17879704
vn -0.8177504 -0.5470977 0.17879704
vn -0.8177504 -0.5470977 0.17879704
vn -0.0413368 0.4494497 0.8923487
vn -0.0413368 0.4494497 0.8923487
vn -0.0413368 0.4494497 0.8923487
vn -0.0413368 0.4494497 0.8923487
vn 0.87424415 0.4426361 -0.19942538
vn 0.87424415 0.4426361 -0.19942538
vn 0.87424415 0.4426361 -0.19942538
vn 0.87424415 0.4426361 -0.19942538
vn -0.120819844 -0.04948489 -0.9914403
vn -0.120819844 -0.04948489 -0.9914403
vn -0.120819844 -0.04948489 -0.9914403
vn -0.120819844 -0.04948489 -0.9914403
vn -0.9969336 -0.049061764 0.060961977
vn -0.9969336 -0.049061764 0.060961977
vn -0.9969336 -0.049061764 0.060961977
vn -0.9969336 -0.049061764 0.060961977
vn 0.094837114 -0.013314859 0.99540377
vn 0.094837114 -0.013314859 0.99540377
vn 0.094837114 -0.013314859 0.99540377
vn 0.094837114 -0.013314859 0.99540377
vn 0.9960681 -0.012942159 -0.08764015
vn 0.9960681 -0.012942159 -0.08764015
vn 0.9960681 -0.012942159 -0.08764015
vn 0.9960681 -0.012942159 -0.08764015
vn -0.07807877 0.38707578 -0.91873616
vn -0.07807877 0.38707578 -0.91873616
vn -0.07807877 0.38707578 -0.91873616
vn -0.07807877 0.38707578 -0.91873616
vn -0.91778016 0.38672486 0.09013081
vn -0.91778016 0.38672486 0.09013081
vn -0.91778016 0.38672486 0.09013081
vn -0.91778016 0.38672486 0.09013081
vn 0.091849975 0.29847 0.9499891
vn 0.091849975 0.29847 0.9499891
vn 0.091849975 0.29847 0.9499891
vn 0.091849975 0.29847 0.9499891
vn 0.9507633 0.29883155 -0.0821515
vn 0.9507633 0.29883155 -0.0821515
vn 0.9507633 0.29883155 -0.0821515
vn 0.9507633 0.29883155 -0.0821515
vn -0.11755584 0.13434228 -0.9839373
vn -0.11755584 0.13434228 -0.9839373
vn -0.11755584 0.13434228 -0.9839373
vn -0.11755584 0.13434228 -0.9839373
vn -0.9947684 0.08935445 0.049515776
vn -0.9947684 0.08935445 0.049515776
vn -0.9947684 0.08935445 0.049515776
vn -0.9947684 0.08935445 0.049515776
vn 0.04636985 -0.998166 0.038917836
vn 0.04636985 -0.998166 0.038917836
vn 0.04636985 -0.998166 0.038917836
vn 0.046067532 -0.99818975 0.038664192
vn 0.08440402 0.0019340556 0.99642974
vn 0.08440402 0.0019340556 0.99642974
vn 0.08440402 0.0019340556 0.99642974
vn 0.08440402 0.0019340556 0.99642974
vn 0.9959836 0.0026815303 -0.0894961
vn 0.9959836 0.0026815303 -0.0894961
vn 0.9959836 0.0026815303 -0.0894961
vn 0.9959836 0.0026815303 -0.0894961
vn -0.089597255 -0.086327046 -0.99222976
vn -0.089597255 -0.086327046 -0.99222976
vn -0.089597255 -0.086327046 -0.99222976
vn -0.089597255 -0.086327046 -0.99222976
vn -0.9926387 -0.08610719 0.085171
vn -0.9926387 -0.08610719 0.085171
vn -0.9926387 -0.08610719 0.085171
vn -0.9926387 -0.08610719 0.085171
vn 0.10430489 -0.06005198 0.9927307
vn 0.10430489 -0.06005198 0.9927307
vn 0.10430489 -0.06005198 0.9927307
vn 0.10430489 -0.06005198 0.9927307
vn 0.9929657 -0.08689214 -0.08042952
vn 0.9929657 -0.08689214 -0.08042952
vn 0.9929657 -0.08689214 -0.08042952
vn 0.9929657 -0.08689214 -0.08042952
vn -0.09397916 0.0685976 -0.9932081
vn -0.09397916 0.0685976 -0.9932081
vn -0.09397916 0.0685976 -0.9932081
vn -0.09397916 0.0685976 -0.9932081
vn -0.9925142 0.097379774 0.073707566
vn -0.9925142 0.097379774 0.073707566
vn -0.9925142 0.097379774 0.073707566
vn -0.9925142 0.097379774 0.073707566
vn -0.04563524 0.9929509 0.10938937
vn -0.04563524 0.9929509 0.10938937
vn -0.04563524 0.9929509 0.10938937
vn -0.045584235 0.99296004 0.10932646
vn -0.22395986 -0.6873386 0.6909468
vn -0.22395986 -0.6873386 0.6909468
vn -0.22395986 -0.6873386 0.6909468
vn -0.22395986 -0.6873386 0.6909468
vn -0.22395986 -0.6873386 0.6909468
vn 0.647338 -0.6812477 -0.3418405
vn 0.647338 -0.6812477 -0.3418405
vn 0.647338 -0.6812477 -0.3418405
vn 0.647338 -0.6812477 -0.3418405
vn 0.647338 -0.6812477 -0.3418405
vn 0.12265124 0.54472977 -0.829594
vn 0.12265124 0.54472977 -0.829594
vn 0.12265124 0.54472977 -0.829594
vn 0.12265124 0.54472977 -0.829594
vn -0.79598355 0.54443955 0.264567
vn -0.79598355 0.54443955 0.264567
vn -0.79598355 0.54443955 0.264567
vn -0.79598355 0.54443955 0.264567
vn -0.059334088 -0.5550742 0.82968193
vn -0.059334088 -0.5550742 0.82968193
vn -0.059334088 -0.5550742 0.82968193
vn -0.059334088 -0.5550742 0.82968193
vn 0.807079 -0.5544666 -0.20295388
vn 0.807079 -0.5544666 -0.20295388
vn 0.807079 -0.5544666 -0.20295388
vn 0.807079 -0.5544666 -0.20295388
vn -0.094778754 0.01987228 -0.99530005
vn -0.094778754 0.01987228 -0.99530005
vn -0.094778754 0.01987228 -0.99530005
vn -0.094778754 0.01987228 -0.99530005
vn -0.07665177 0.008708053 -0.9970198
vn -0.07665177 0.008708053 -0.9970198
vn -0.9969048 0.0239055 0.07489487
vn -0.9969048 0.0239055 0.07489487
vn -0.9969048 0.0239055 0.07489487
vn -0.9969048 0.0239055 0.07489487
vn 0.08725499 -0.2353204 0.9679932
vn 0.08725499 -0.2353204 0.9679932
vn 0.08725499 -0.2353204 0.9679932
vn 0.08725499 -0.2353204 0.9679932
vn 0.96837777 -0.23562057 -0.082021646
vn 0.96837777 -0.23562057 -0.082021646
vn 0.96837777 -0.23562057 -0.082021646
vn 0.96837777 -0.23562057 -0.082021646
vn -0.9963529 -0.033168636 0.0786181
vn -0.9963529 -0.033168636 0.0786181
vn -0.9963529 -0.033168636 0.0786181
vn -0.9963529 -0.033168636 0.0786181
vn 0.0859072 -0.07756849 0.9932789
vn 0.0859072 -0.07756849 0.9932789
vn 0.0859072 -0.07756849 0.9932789
vn 0.0859072 -0.07756849 0.9932789
vn 0.99600345 -0.03760917 -0.08101033
vn 0.99600345 -0.03760917 -0.08101033
vn 0.99600345 -0.03760917 -0.08101033
vn 0.99600345 -0.03760917 -0.08101033
vn -0.081710204 0.53805965 -0.838937
vn -0.081710204 0.53805965 -0.838937
vn -0.081710204 0.53805965 -0.838937
vn -0.081710204 0.53805965 -0.838937
vn -0.9066996 0.40817487 0.10624995
vn -0.9066996 0.40817487 0.10624995
vn -0.9066996 0.40817487 0.10624995
vn -0.9066996 0.40817487 0.10624995
vn 0.061388973 0.3616472 0.9302917
vn 0.061388973 0.3616472 0.9302917
vn 0.061388973 0.3616472 0.9302917
vn 0.061388973 0.3616472 0.9302917
vn 0.8698049 0.4925104 -0.029544005
vn 0.8698049 0.4925104 -0.029544005
vn 0.8698049 0.4925104 -0.029544005
vn 0.8698049 0.4925104 -0.029544005
g city_Cactus_0
f 3/3/3 2/2/2 1/1/1
f 6/6/6 5/5/5 4/4/4
f 9/9/9 8/8/8 7/7/7
f 10/10/10 9/9/9 7/7/7
f 13/13/13 12/12/12 11/11/11
f 13/13/13 11/11/11 14/14/14
f 17/17/17 16/16/16 15/15/15
f 18/18/18 17/17/17 15/15/15
f 21/21/21 20/20/20 19/19/19
f 22/22/22 21/21/21 19/19/19
f 25/25/25 24/24/24 23/23/23
f 26/26/26 25/25/25 23/23/23
f 29/29/29 28/28/28 27/27/27
f 30/30/30 29/29/29 27/27/27
f 33/33/33 32/32/32 31/31/31
f 34/34/34 33/33/33 31/31/31
f 37/37/37 36/36/36 35/35/35
f 38/38/38 37/37/37 35/35/35
f 41/41/41 40/40/40 39/39/39
f 42/42/42 41/41/41 39/39/39
f 45/45/45 44/44/44 43/43/43
f 46/46/46 45/45/45 43/43/43
f 49/49/49 48/48/48 47/47/47
f 50/50/50 49/49/49 47/47/47
f 53/53/53 52/52/52 51/51/51
f 54/54/54 53/53/53 51/51/51
f 57/57/57 56/56/56 55/55/55
f 58/58/58 57/57/57 55/55/55
f 61/61/61 60/60/60 59/59/59
f 62/62/62 61/61/61 59/59/59
f 65/65/65 64/64/64 63/63/63
f 64/64/64 66/66/66 63/63/63
f 67/67/67 63/63/63 66/66/66
f 66/66/66 68/68/68 67/67/67
f 66/66/66 69/69/69 68/68/68
f 72/72/72 71/71/71 70/70/70
f 73/73/73 72/72/72 70/70/70
f 72/72/72 73/73/73 74/74/74
f 74/74/74 75/75/75 72/72/72
f 75/75/75 76/76/76 72/72/72
f 79/79/79 78/78/78 77/77/77
f 80/80/80 79/79/79 77/77/77
f 83/83/83 82/82/82 81/81/81
f 84/84/84 83/83/83 81/81/81
f 87/87/87 86/86/86 85/85/85
f 88/88/88 87/87/87 85/85/85
f 91/91/91 90/90/90 89/89/89
f 92/92/92 91/91/91 89/89/89
f 95/95/95 94/94/94 93/93/93
f 96/96/96 95/95/95 93/93/93
f 99/99/99 98/98/98 97/97/97
f 100/100/100 99/99/99 97/97/97
f 103/103/103 102/102/102 101/101/101
f 104/104/104 103/103/103 101/101/101
f 107/107/107 106/106/106 105/105/105
f 108/108/108 107/107/107 105/105/105
f 111/111/111 110/110/110 109/109/109
f 112/112/112 111/111/111 109/109/109
f 115/115/115 114/114/114 113/113/113
f 116/116/116 115/115/115 113/113/113
f 119/119/119 118/118/118 117/117/117
f 120/120/120 119/119/119 117/117/117
f 123/123/123 122/122/122 121/121/121
f 124/124/124 123/123/123 121/121/121
f 127/127/127 126/126/126 125/125/125
f 128/128/128 127/127/127 125/125/125
f 131/131/131 130/130/130 129/129/129
f 132/132/132 131/131/131 129/129/129
f 135/135/135 134/134/134 133/133/133
f 136/136/136 135/135/135 133/133/133
f 139/139/139 138/138/138 137/137/137
f 140/140/140 139/139/139 137/137/137
f 143/143/143 142/142/142 141/141/141
f 144/144/144 143/143/143 141/141/141
f 147/147/147 146/146/146 145/145/145
f 148/148/148 147/147/147 145/145/145
f 151/151/151 150/150/150 149/149/149
f 152/152/152 151/151/151 149/149/149
f 155/155/155 154/154/154 153/153/153
f 156/156/156 155/155/155 153/153/153
f 159/159/159 158/158/158 157/157/157
f 160/160/160 159/159/159 157/157/157
f 163/163/163 162/162/162 161/161/161
f 164/164/164 163/163/163 161/161/161
f 167/167/167 166/166/166 165/165/165
f 168/168/168 167/167/167 165/165/165
f 171/171/171 170/170/170 169/169/169
f 172/172/172 171/171/171 169/169/169
f 175/175/175 174/174/174 173/173/173
f 176/176/176 175/175/175 173/173/173
f 179/179/179 178/178/178 177/177/177
f 180/180/180 179/179/179 177/177/177
f 183/183/183 182/182/182 181/181/181
f 184/184/184 183/183/183 181/181/181
f 187/187/187 186/186/186 185/185/185
f 188/188/188 187/187/187 185/185/185
f 191/191/191 190/190/190 189/189/189
f 192/192/192 191/191/191 189/189/189
f 195/195/195 194/194/194 193/193/193
f 195/195/195 193/193/193 196/196/196
f 199/199/199 198/198/198 197/197/197
f 197/197/197 200/200/200 199/199/199
f 197/197/197 201/201/201 200/200/200
f 204/204/204 203/203/203 202/202/202
f 202/202/202 205/205/205 204/204/204
f 205/205/205 206/206/206 204/204/204
f 209/209/209 208/208/208 207/207/207
f 210/210/210 209/209/209 207/207/207
f 213/213/213 212/212/212 211/211/211
f 214/214/214 213/213/213 211/211/211
f 217/217/217 216/216/216 215/215/215
f 218/218/218 217/217/217 215/215/215
f 221/221/221 220/220/220 219/219/219
f 222/222/222 221/221/221 219/219/219
f 225/225/225 224/224/224 223/223/223
f 226/226/226 225/225/225 223/223/223
f 227/227/227 225/225/225 226/226/226
f 228/228/228 227/227/227 226/226/226
f 231/231/231 230/230/230 229/229/229
f 232/232/232 231/231/231 229/229/229
f 235/235/235 234/234/234 233/233/233
f 236/236/236 235/235/235 233/233/233
f 239/239/239 238/238/238 237/237/237
f 240/240/240 239/239/239 237/237/237
f 243/243/243 242/242/242 241/241/241
f 244/244/244 243/243/243 241/241/241
f 247/247/247 246/246/246 245/245/245
f 248/248/248 247/247/247 245/245/245
f 251/251/251 250/250/250 249/249/249
f 252/252/252 251/251/251 249/249/249
f 255/255/255 254/254/254 253/253/253
f 256/256/256 255/255/255 253/253/253
f 259/259/259 258/258/258 257/257/257
f 260/260/260 259/259/259 257/257/257
f 263/263/263 262/262/262 261/261/261
f 264/264/264 263/263/263 261/261/261
f 267/267/267 266/266/266 265/265/265
f 268/268/268 267/267/267 265/265/265
