g city_Palmtree01
v 1.053083 4.954594 0.16871259
v 1.0261949 4.96885 0.298815
v 1.9437146 5.111921 0.49924552
v 1.9809904 5.092626 0.3219958
v 2.577858 4.7409377 0.04878796
v 1.264158 4.6270795 -0.23489612
v 1.053083 4.954594 0.16871259
v 1.9809904 5.092626 0.3219958
v 3.0566607 4.874214 0.8689903
v 3.136325 4.83235 0.48670018
v 3.087336 4.675795 0.5021018
v 3.0112333 4.7159243 0.86773705
v 2.4378338 5.019426 1.0610663
v 3.0566607 4.874214 0.8689903
v 3.0112333 4.7159243 0.86773705
v 2.4191022 4.844458 1.0429142
v 0.49107808 4.8048697 0.013340233
v 0.013111126 4.402753 -0.05151537
v 0.08848855 4.2640476 -0.01675725
v 0.56984884 4.624831 0.05671683
v -0.040797867 4.4312644 0.2077102
v 0.44107032 4.831688 0.25398207
v 0.52241105 4.6487317 0.2815758
v 0.036150895 4.291706 0.23469871
v 0.013111126 4.402753 -0.05151537
v -0.040797867 4.4312644 0.2077102
v 0.036150895 4.291706 0.23469871
v 0.08848855 4.2640476 -0.01675725
v 3.136325 4.83235 0.48670018
v 2.6084743 4.9087305 0.0032085218
v 2.577858 4.7409377 0.04878796
v 3.087336 4.675795 0.5021018
v 0.69528866 4.627571 -0.22501832
v 0.49107808 4.8048697 0.013340233
v 0.56984884 4.624831 0.05671683
v 0.74139524 4.4807158 -0.15828067
v 1.2378824 4.7939124 -0.30088297
v 0.69528866 4.627571 -0.22501832
v 0.74139524 4.4807158 -0.15828067
v 1.264158 4.6270795 -0.23489612
v 2.6084743 4.9087305 0.0032085218
v 2.577858 4.7409377 0.04878796
v 0.44107032 4.831688 0.25398207
v 0.5129517 4.709365 0.5786703
v 0.57452404 4.554663 0.566724
v 0.52241105 4.6487317 0.2815758
v 0.5129517 4.709365 0.5786703
v 1.1136128 4.9449444 0.89158344
v 1.1504076 4.768117 0.87600625
v 0.57452404 4.554663 0.566724
v 0.52241105 4.6487317 0.2815758
v 0.08848855 4.2640476 -0.01675725
v 0.036150895 4.291706 0.23469871
v 0.56984884 4.624831 0.05671683
v 1.0261949 4.96885 0.298815
v 1.053083 4.954594 0.16871259
v 0.56984884 4.624831 0.05671683
v 1.053083 4.954594 0.16871259
v 1.264158 4.6270795 -0.23489612
v 0.74139524 4.4807158 -0.15828067
v 1.0261949 4.96885 0.298815
v 0.52241105 4.6487317 0.2815758
v 0.57452404 4.554663 0.566724
v 1.1504076 4.768117 0.87600625
v 1.9437146 5.111921 0.49924552
v 1.0261949 4.96885 0.298815
v 1.1504076 4.768117 0.87600625
v 2.4191022 4.844458 1.0429142
v 1.9809904 5.092626 0.3219958
v 2.4460454 4.985148 0.4235137
v 3.087336 4.675795 0.5021018
v 2.577858 4.7409377 0.04878796
v 1.1136128 4.9449444 0.89158344
v 2.4378338 5.019426 1.0610663
v 2.4191022 4.844458 1.0429142
v 1.1504076 4.768117 0.87600625
v 2.4064734 5.006074 0.6138058
v 1.9437146 5.111921 0.49924552
v 2.4191022 4.844458 1.0429142
v 3.0112333 4.7159243 0.86773705
v 1.9809904 5.092626 0.3219958
v 1.9437146 5.111921 0.49924552
v 2.4064734 5.006074 0.6138058
v 2.4460454 4.985148 0.4235137
v 3.0112333 4.7159243 0.86773705
v 3.087336 4.675795 0.5021018
v 1.996902 5.3061676 0.25197783
v 1.00027 5.1549835 0.08643451
v 1.2378824 4.7939124 -0.30088297
v 2.6084743 4.9087305 0.0032085218
v 0.44107032 4.831688 0.25398207
v -0.040797867 4.4312644 0.2077102
v 0.013111126 4.402753 -0.05151537
v 0.49107808 4.8048697 0.013340233
v 0.95369554 5.1796083 0.30901602
v 1.00027 5.1549835 0.08643451
v 0.49107808 4.8048697 0.013340233
v 0.69528866 4.627571 -0.22501832
v 1.2378824 4.7939124 -0.30088297
v 1.00027 5.1549835 0.08643451
v 0.95369554 5.1796083 0.30901602
v 1.1136128 4.9449444 0.89158344
v 0.5129517 4.709365 0.5786703
v 0.44107032 4.831688 0.25398207
v 1.9409547 5.336231 0.52234906
v 2.4378338 5.019426 1.0610663
v 1.1136128 4.9449444 0.89158344
v 0.95369554 5.1796083 0.30901602
v 1.996902 5.3061676 0.25197783
v 2.6084743 4.9087305 0.0032085218
v 3.136325 4.83235 0.48670018
v 2.5135605 5.1930866 0.37921453
v 1.00027 5.1549835 0.08643451
v 1.996902 5.3061676 0.25197783
v 1.9409547 5.336231 0.52234906
v 0.95369554 5.1796083 0.30901602
v 2.4598894 5.2215242 0.63662434
v 3.0566607 4.874214 0.8689903
v 2.4378338 5.019426 1.0610663
v 1.9409547 5.336231 0.52234906
v 1.996902 5.3061676 0.25197783
v 2.5135605 5.1930866 0.37921453
v 2.4598894 5.2215242 0.63662434
v 1.9409547 5.336231 0.52234906
v 2.5135605 5.1930866 0.37921453
v 3.136325 4.83235 0.48670018
v 3.0566607 4.874214 0.8689903
v 2.4598894 5.2215242 0.63662434
v 0.23117754 5.012699 0.87148714
v 0.11389676 5.01074 0.8966706
v 0.26438165 5.236885 1.7293789
v 0.42565346 5.239787 1.6953759
v 0.92550206 5.0188437 2.1184888
v 0.69428825 4.776645 0.91785526
v 0.23117754 5.012699 0.87148714
v 0.42565346 5.239787 1.6953759
v 0.39255768 5.133434 2.8265157
v 0.75231814 5.139538 2.7499433
v 0.741572 4.982725 2.7255836
v 0.3981467 4.9769964 2.79876
v -0.01821357 5.171565 2.3670382
v 0.39255768 5.133434 2.8265157
v 0.3981467 4.9769964 2.79876
v 0.015165966 5.0042515 2.3572736
v 0.1771003 4.8278317 0.34542125
v 0.10944107 4.4051633 -0.04964815
v 0.12722234 4.279993 0.041477755
v 0.19447908 4.661814 0.4472313
v -0.13773707 4.4011006 0.003058746
v -0.051444367 4.824425 0.39415193
v -0.018553955 4.6574025 0.49208295
v -0.11239788 4.2760515 0.09252858
v 0.10944107 4.4051633 -0.04964815
v -0.13773707 4.4011006 0.003058746
v -0.11239788 4.2760515 0.09252858
v 0.12722234 4.279993 0.041477755
v 0.75231814 5.139538 2.7499433
v 0.9544225 5.1868095 2.1137009
v 0.92550206 5.0188437 2.1184888
v 0.741572 4.982725 2.7255836
v 0.47693717 4.71042 0.439489
v 0.1771003 4.8278317 0.34542125
v 0.19447908 4.661814 0.4472313
v 0.4557562 4.5707064 0.51858056
v 0.7195214 4.938046 0.85491157
v 0.47693717 4.71042 0.439489
v 0.4557562 4.5707064 0.51858056
v 0.69428825 4.776645 0.91785526
v 0.9544225 5.1868095 2.1137009
v 0.92550206 5.0188437 2.1184888
v -0.051444367 4.824425 0.39415193
v -0.28200465 4.6900916 0.58800584
v -0.22554043 4.552313 0.649544
v -0.018553955 4.6574025 0.49208295
v -0.28200465 4.6900916 0.58800584
v -0.35464096 4.9533014 1.1955011
v -0.30169594 4.791427 1.2356466
v -0.22554043 4.552313 0.649544
v -0.018553955 4.6574025 0.49208295
v 0.12722234 4.279993 0.041477755
v -0.11239788 4.2760515 0.09252858
v 0.19447908 4.661814 0.4472313
v 0.11389676 5.01074 0.8966706
v 0.23117754 5.012699 0.87148714
v 0.19447908 4.661814 0.4472313
v 0.23117754 5.012699 0.87148714
v 0.69428825 4.776645 0.91785526
v 0.4557562 4.5707064 0.51858056
v 0.11389676 5.01074 0.8966706
v -0.018553955 4.6574025 0.49208295
v -0.22554043 4.552313 0.649544
v -0.30169594 4.791427 1.2356466
v 0.26438165 5.236885 1.7293789
v 0.11389676 5.01074 0.8966706
v -0.30169594 4.791427 1.2356466
v 0.015165966 5.0042515 2.3572736
v 0.42565346 5.239787 1.6953759
v 0.5262206 5.190668 2.1304371
v 0.741572 4.982725 2.7255836
v 0.92550206 5.0188437 2.1184888
v -0.35464096 4.9533014 1.1955011
v -0.01821357 5.171565 2.3670382
v 0.015165966 5.0042515 2.3572736
v -0.30169594 4.791427 1.2356466
v 0.3519838 5.1878014 2.167595
v 0.26438165 5.236885 1.7293789
v 0.015165966 5.0042515 2.3572736
v 0.3981467 4.9769964 2.79876
v 0.42565346 5.239787 1.6953759
v 0.26438165 5.236885 1.7293789
v 0.3519838 5.1878014 2.167595
v 0.5262206 5.190668 2.1304371
v 0.3981467 4.9769964 2.79876
v 0.741572 4.982725 2.7255836
v 0.46490538 5.4532785 1.6639056
v 0.2563355 5.205596 0.7749121
v 0.7195214 4.938046 0.85491157
v 0.9544225 5.1868095 2.1137009
v -0.051444367 4.824425 0.39415193
v -0.13773707 4.4011006 0.003058746
v 0.10944107 4.4051633 -0.04964815
v 0.1771003 4.8278317 0.34542125
v 0.04617755 5.2022486 0.8194256
v 0.2563355 5.205596 0.7749121
v 0.1771003 4.8278317 0.34542125
v 0.47693717 4.71042 0.439489
v 0.7195214 4.938046 0.85491157
v 0.2563355 5.205596 0.7749121
v 0.04617755 5.2022486 0.8194256
v -0.35464096 4.9533014 1.1955011
v -0.28200465 4.6900916 0.58800584
v -0.051444367 4.824425 0.39415193
v 0.21058357 5.449456 1.7183764
v -0.01821357 5.171565 2.3670382
v -0.35464096 4.9533014 1.1955011
v 0.04617755 5.2022486 0.8194256
v 0.46490538 5.4532785 1.6639056
v 0.9544225 5.1868095 2.1137009
v 0.75231814 5.139538 2.7499433
v 0.56338257 5.4031897 2.1561842
v 0.2563355 5.205596 0.7749121
v 0.46490538 5.4532785 1.6639056
v 0.21058357 5.449456 1.7183764
v 0.04617755 5.2022486 0.8194256
v 0.32194334 5.399328 2.2075152
v 0.39255768 5.133434 2.8265157
v -0.01821357 5.171565 2.3670382
v 0.21058357 5.449456 1.7183764
v 0.46490538 5.4532785 1.6639056
v 0.56338257 5.4031897 2.1561842
v 0.32194334 5.399328 2.2075152
v 0.21058357 5.449456 1.7183764
v -1.0546806 5.797986 1.1480799
v -0.31565982 5.055666 0.7574642
v -1.1115736 5.6495476 1.1693901
v -0.21238273 5.1781683 0.7197503
v -0.12912472 4.731187 0.5216454
v -0.019041872 4.828673 0.4823873
v 0.56338257 5.4031897 2.1561842
v 0.75231814 5.139538 2.7499433
v 0.39255768 5.133434 2.8265157
v 0.32194334 5.399328 2.2075152
v -0.37422305 5.155364 0.31595257
v -0.426978 5.1437197 0.23523742
v -0.9662597 5.5975227 0.49696523
v -0.8929019 5.614238 0.61009616
v -1.1115736 5.6495476 1.1693901
v -0.31565982 5.055666 0.7574642
v -0.37422305 5.155364 0.31595257
v -0.8929019 5.614238 0.61009616
v -1.8020558 5.8843536 0.88149834
v -1.6254244 5.9238014 1.152926
v -1.6483922 5.7785225 1.1797225
v -1.8164163 5.741124 0.9215876
v -1.5641761 5.7074146 0.43062544
v -1.8020558 5.8843536 0.88149834
v -1.8164163 5.741124 0.9215876
v -1.5867679 5.565593 0.5030295
v -0.011790892 4.849514 0.18961406
v 0.17275402 4.3797464 0.14869647
v 0.07031143 4.3056164 0.2219463
v -0.13570704 4.742432 0.27766415
v 0.048122533 4.3520737 -0.04274816
v -0.12600665 4.82445 0.013922546
v -0.24137706 4.7178698 0.11504978
v -0.050308317 4.278806 0.03659438
v 0.17275402 4.3797464 0.14869647
v 0.048122533 4.3520737 -0.04274816
v -0.050308317 4.278806 0.03659438
v 0.07031143 4.3056164 0.2219463
v -1.6254244 5.9238014 1.152926
v -1.0546806 5.797986 1.1480799
v -1.1115736 5.6495476 1.1693901
v -1.6483922 5.7785225 1.1797225
v -0.019041872 4.828673 0.4823873
v -0.011790892 4.849514 0.18961406
v -0.13570704 4.742432 0.27766415
v -0.12912472 4.731187 0.5216454
v -0.12600665 4.82445 0.013922546
v -0.38123065 4.7360063 -0.088327006
v -0.4480886 4.6480875 0.0152082145
v -0.24137706 4.7178698 0.11504978
v -0.38123065 4.7360063 -0.088327006
v -0.81407726 5.1222486 -0.06523415
v -0.87048733 5.005521 0.035909824
v -0.4480886 4.6480875 0.0152082145
v -0.24137706 4.7178698 0.11504978
v 0.07031143 4.3056164 0.2219463
v -0.050308317 4.278806 0.03659438
v -0.13570704 4.742432 0.27766415
v -0.426978 5.1437197 0.23523742
v -0.37422305 5.155364 0.31595257
v -0.13570704 4.742432 0.27766415
v -0.37422305 5.155364 0.31595257
v -0.31565982 5.055666 0.7574642
v -0.12912472 4.731187 0.5216454
v -0.426978 5.1437197 0.23523742
v -0.24137706 4.7178698 0.11504978
v -0.4480886 4.6480875 0.0152082145
v -0.87048733 5.005521 0.035909824
v -0.9662597 5.5975227 0.49696523
v -0.426978 5.1437197 0.23523742
v -0.87048733 5.005521 0.035909824
v -1.5867679 5.565593 0.5030295
v -0.8929019 5.614238 0.61009616
v -1.2053075 5.722471 0.806056
v -1.6483922 5.7785225 1.1797225
v -1.1115736 5.6495476 1.1693901
v -0.81407726 5.1222486 -0.06523415
v -1.5641761 5.7074146 0.43062544
v -1.5867679 5.565593 0.5030295
v -0.87048733 5.005521 0.035909824
v -1.2861254 5.704525 0.681931
v -0.9662597 5.5975227 0.49696523
v -1.5867679 5.565593 0.5030295
v -1.8164163 5.741124 0.9215876
v -0.8929019 5.614238 0.61009616
v -0.9662597 5.5975227 0.49696523
v -1.2861254 5.704525 0.681931
v -1.2053075 5.722471 0.806056
v -1.8164163 5.741124 0.9215876
v -1.6483922 5.7785225 1.1797225
v -0.79655445 5.7974825 0.5787538
v -0.23181897 5.295656 0.2602557
v -0.21238273 5.1781683 0.7197503
v -1.0546806 5.797986 1.1480799
v -0.12600665 4.82445 0.013922546
v 0.048122533 4.3520737 -0.04274816
v 0.17275402 4.3797464 0.14869647
v -0.011790892 4.849514 0.18961406
v -0.335333 5.272599 0.10068138
v -0.23181897 5.295656 0.2602557
v -0.011790892 4.849514 0.18961406
v -0.019041872 4.828673 0.4823873
v -0.21238273 5.1781683 0.7197503
v -0.23181897 5.295656 0.2602557
v -0.335333 5.272599 0.10068138
v -0.81407726 5.1222486 -0.06523415
v -0.38123065 4.7360063 -0.088327006
v -0.12600665 4.82445 0.013922546
v -0.9215627 5.7701674 0.38687688
v -1.5641761 5.7074146 0.43062544
v -0.81407726 5.1222486 -0.06523415
v -0.335333 5.272599 0.10068138
v -0.79655445 5.7974825 0.5787538
v -1.0546806 5.797986 1.1480799
v -1.6254244 5.9238014 1.152926
v -1.1601105 5.924327 0.78850484
v -0.23181897 5.295656 0.2602557
v -0.79655445 5.7974825 0.5787538
v -0.9215627 5.7701674 0.38687688
v -0.335333 5.272599 0.10068138
v -1.2777019 5.8982277 0.6075523
v -1.8020558 5.8843536 0.88149834
v -1.5641761 5.7074146 0.43062544
v -0.9215627 5.7701674 0.38687688
v -0.79655445 5.7974825 0.5787538
v -1.1601105 5.924327 0.78850484
v -1.2777019 5.8982277 0.6075523
v -0.9215627 5.7701674 0.38687688
v -0.8215525 5.1558743 -0.42024863
v -0.9212632 5.1491365 -0.21450478
v -1.8496225 5.227869 -0.63341796
v -1.7291145 5.23617 -0.8835051
v -1.1601105 5.924327 0.78850484
v -1.6254244 5.9238014 1.152926
v -1.8020558 5.8843536 0.88149834
v -1.2777019 5.8982277 0.6075523
v -0.13512087 3.9130106 -2.4485898
v -0.1954656 3.297371 -2.8318214
v 0.19727427 3.2971373 -2.831645
v 0.12935816 3.913083 -2.4485629
v -0.12290838 4.5549154 -0.45790642
v -0.11740911 4.617078 -1.0770224
v 0.111322105 4.6172447 -1.0768726
v 0.124332905 4.555112 -0.45813823
v -0.13230033 4.431759 0.15780452
v 0.13400196 4.4316587 0.15776937
v 0.111322105 4.6172447 -1.0768726
v 0.13563977 4.268619 -2.0373883
v 0.5252632 3.666071 -2.3875306
v 0.6207518 4.2298074 -1.178847
v -0.14209107 4.268565 -2.0369537
v -0.13512087 3.9130106 -2.4485898
v 0.12935816 3.913083 -2.4485629
v 0.13563977 4.268619 -2.0373883
v 0.12935816 3.913083 -2.4485629
v 0.19727427 3.2971373 -2.831645
v 0.5252632 3.666071 -2.3875306
v 0.13563977 4.268619 -2.0373883
v -0.11740911 4.617078 -1.0770224
v -0.58132184 4.268659 -1.0616342
v -0.550862 3.6936455 -2.347172
v -0.14209107 4.268565 -2.0369537
v -0.14209107 4.268565 -2.0369537
v -0.550862 3.6936455 -2.347172
v -0.1954656 3.297371 -2.8318214
v -0.13512087 3.9130106 -2.4485898
v -0.06953895 4.4028444 -1.0379354
v 0.06407544 4.402672 -1.0380737
v 0.08851774 4.076091 -1.929831
v -0.093633264 4.0761476 -1.9302626
v 0.111322105 4.6172447 -1.0768726
v 0.6207518 4.2298074 -1.178847
v 0.41266334 4.354329 -0.5040139
v 0.124332905 4.555112 -0.45813823
v -0.12290838 4.5549154 -0.45790642
v -0.41533858 4.3535533 -0.52027017
v -0.58132184 4.268659 -1.0616342
v -0.11740911 4.617078 -1.0770224
v -0.1006341 3.7536116 -2.296399
v 0.18827438 3.1797552 -2.7164865
v -0.18734676 3.1799426 -2.7165332
v 0.094852194 3.7535343 -2.2964246
v -0.093633264 4.0761476 -1.9302626
v 0.08851774 4.076091 -1.929831
v -0.115980566 4.354135 -0.44609702
v 0.06407544 4.402672 -1.0380737
v -0.06953895 4.4028444 -1.0379354
v 0.11506496 4.353627 -0.44514394
v -0.12863679 4.270201 0.15395786
v 0.12969318 4.2701254 0.15396136
v 0.57915187 4.0619383 -1.1244968
v 0.6207518 4.2298074 -1.178847
v 0.5252632 3.666071 -2.3875306
v 0.49261284 3.5253258 -2.2854578
v 0.094852194 3.7535343 -2.2964246
v 0.08851774 4.076091 -1.929831
v 0.49261284 3.5253258 -2.2854578
v 0.18827438 3.1797552 -2.7164865
v -0.06953895 4.4028444 -1.0379354
v -0.093633264 4.0761476 -1.9302626
v -0.51830024 3.5524025 -2.2463768
v -0.54032713 4.09875 -1.0133859
v -0.093633264 4.0761476 -1.9302626
v -0.1006341 3.7536116 -2.296399
v -0.18734676 3.1799426 -2.7165332
v -0.51830024 3.5524025 -2.2463768
v -0.54032713 4.09875 -1.0133859
v -0.51830024 3.5524025 -2.2463768
v -0.550862 3.6936455 -2.347172
v -0.58132184 4.268659 -1.0616342
v -0.3754893 4.1919947 -0.49888897
v -0.41533858 4.3535533 -0.52027017
v 0.06407544 4.402672 -1.0380737
v 0.11506496 4.353627 -0.44514394
v 0.37194937 4.193911 -0.4822278
v 0.57915187 4.0619383 -1.1244968
v -0.115980566 4.354135 -0.44609702
v -0.06953895 4.4028444 -1.0379354
v -0.54032713 4.09875 -1.0133859
v -0.3754893 4.1919947 -0.49888897
v 0.41266334 4.354329 -0.5040139
v 0.6207518 4.2298074 -1.178847
v 0.57915187 4.0619383 -1.1244968
v 0.37194937 4.193911 -0.4822278
v 0.57915187 4.0619383 -1.1244968
v 0.49261284 3.5253258 -2.2854578
v 0.08851774 4.076091 -1.929831
v 0.06407544 4.402672 -1.0380737
v 0.124332905 4.555112 -0.45813823
v 0.41266334 4.354329 -0.5040139
v 0.37194937 4.193911 -0.4822278
v 0.11506496 4.353627 -0.44514394
v -0.41533858 4.3535533 -0.52027017
v -0.12290838 4.5549154 -0.45790642
v -0.115980566 4.354135 -0.44609702
v -0.3754893 4.1919947 -0.49888897
v -0.1954656 3.297371 -2.8318214
v -0.550862 3.6936455 -2.347172
v -0.51830024 3.5524025 -2.2463768
v -0.18734676 3.1799426 -2.7165332
v -0.13230033 4.431759 0.15780452
v 0.13400196 4.4316587 0.15776937
v 0.12969318 4.2701254 0.15396136
v -0.12863679 4.270201 0.15395786
v 0.13400196 4.4316587 0.15776937
v 0.124332905 4.555112 -0.45813823
v 0.11506496 4.353627 -0.44514394
v 0.12969318 4.2701254 0.15396136
v -0.12290838 4.5549154 -0.45790642
v -0.13230033 4.431759 0.15780452
v -0.12863679 4.270201 0.15395786
v -0.115980566 4.354135 -0.44609702
v 0.5252632 3.666071 -2.3875306
v 0.19727427 3.2971373 -2.831645
v 0.18827438 3.1797552 -2.7164865
v 0.49261284 3.5253258 -2.2854578
v 0.19727427 3.2971373 -2.831645
v -0.1954656 3.297371 -2.8318214
v -0.18734676 3.1799426 -2.7165332
v 0.18827438 3.1797552 -2.7164865
v 0.37937474 0.0066420566 -0.0035073897
v 0.2700081 -0.004497461 0.2665534
v 0.20526755 1.0765283 0.43220198
v 0.29409745 1.077308 0.22762433
v 0.30665097 0.9717784 0.21266836
v 0.21549946 0.9811201 0.4276412
v 0.1924752 1.9808526 0.5239295
v 0.2754958 1.9748969 0.3325017
v 0.2974419 1.8675904 0.32781035
v 0.20943129 1.8833556 0.5356971
v 0.18476993 2.8767934 0.5246392
v 0.263619 2.8585954 0.34174037
v 0.29267612 2.7438188 0.3416434
v 0.20672342 2.7725139 0.54508436
v 0.18782169 3.6765118 0.4207511
v 0.26698774 3.637032 0.23681903
v 0.30725807 3.5443935 0.25221127
v 0.21737984 3.5964975 0.46360302
v 0.12974378 4.3849254 0.22019702
v 0.18406272 4.350769 0.09501921
v 1.7093507E-06 0.020613689 -0.37678218
v 0.2653415 0.01681161 -0.26891
v 0.20937797 1.0783029 0.01865201
v 1.6816177E-06 1.0780909 -0.068192
v 1.6539739E-06 0.9559603 -0.094474256
v 0.21761143 0.9613261 -0.0043421644
v 0.19613993 1.9693339 0.13722956
v 1.700078E-06 1.9669237 0.0560268
v 1.7383443E-06 1.8447711 0.031886224
v 0.21077201 1.8516197 0.11861585
v 0.18743092 2.8404484 0.15615083
v 1.7384168E-06 2.8332262 0.07896279
v 1.7386592E-06 2.7034216 0.053584963
v 0.20699355 2.7149615 0.1379674
v 0.18961513 3.5964718 0.051374763
v 1.7384168E-06 3.579957 -0.025957935
v 1.739081E-06 3.4695134 -0.046420895
v 0.2172721 3.4910402 0.04134097
v 0.13055971 4.3163004 -0.030946426
v 1.7381308E-06 4.3020806 -0.083404586
v -0.26533806 0.016811615 -0.26891
v 1.7093507E-06 0.020613689 -0.37678218
v 1.6816177E-06 1.0780909 -0.068192
v -0.20937452 1.0783032 0.018652512
v -0.21760803 0.96132684 -0.0043416927
v 1.6539739E-06 0.9559603 -0.094474256
v 1.700078E-06 1.9669237 0.0560268
v -0.19613644 1.9693339 0.13722958
v -0.21076849 1.8516197 0.11861579
v 1.7383443E-06 1.8447711 0.031886224
v 1.7384168E-06 2.8332262 0.07896279
v -0.18742743 2.8404484 0.15615083
v -0.20699006 2.7149615 0.1379674
v 1.7386592E-06 2.7034216 0.053584963
v 1.7384168E-06 3.579957 -0.025957935
v -0.18961164 3.5964718 0.051374763
v -0.21726862 3.4910402 0.041340977
v 1.739081E-06 3.4695134 -0.046420895
v 1.7381308E-06 4.3020806 -0.083404586
v -0.13055624 4.3163004 -0.030946426
v -0.2700046 -0.0044974606 0.2665534
v -0.3793713 0.0066420613 -0.0035073943
v -0.294094 1.0773075 0.22762433
v -0.20526403 1.0765289 0.43220204
v -0.21549594 0.9811201 0.42764133
v -0.30664742 0.9717777 0.2126683
v -0.2754923 1.9748962 0.3325023
v -0.19247165 1.9808526 0.5239295
v -0.20942783 1.8833566 0.53569776
v -0.29743826 1.8675895 0.3278104
v -0.26361552 2.8585954 0.34174037
v -0.18476641 2.8767943 0.52463925
v -0.20672 2.7725143 0.5450844
v -0.29267263 2.7438188 0.3416434
v -0.26698425 3.637032 0.23681897
v -0.18781817 3.6765118 0.4207517
v -0.21737635 3.5964975 0.46360302
v -0.3072546 3.5443935 0.25221127
v -0.18405926 4.350769 0.09501921
v -0.1297403 4.3849254 0.22019702
v 0.2700081 -0.004497461 0.2665534
v 1.7325465E-06 -0.009206811 0.37900794
v 1.7003802E-06 1.0768892 0.5150739
v 0.20526755 1.0765283 0.43220198
v 0.21549946 0.9811201 0.4276412
v 1.7384391E-06 0.98537886 0.51586205
v 1.7384168E-06 1.983634 0.6015482
v 0.1924752 1.9808526 0.5239295
v 0.20943129 1.8833556 0.5356971
v 1.7232255E-06 1.890007 0.62114453
v 1.7492703E-06 2.8841262 0.599359
v 0.18476993 2.8767934 0.5246392
v 0.20672342 2.7725139 0.54508436
v 1.7437233E-06 2.7839742 0.6292741
v 1.8062137E-06 3.6920123 0.49690378
v 0.18782169 3.6765118 0.4207511
v 0.21737984 3.5964975 0.46360302
v 1.7384627E-06 3.61692 0.55196124
v 1.7380369E-06 4.3988676 0.2719201
v 0.12974378 4.3849254 0.22019702
v 0.2653415 0.01681161 -0.26891
v 0.37937474 0.0066420566 -0.0035073897
v 0.29409745 1.077308 0.22762433
v 0.20937797 1.0783029 0.01865201
v 0.21761143 0.9613261 -0.0043421644
v 0.30665097 0.9717784 0.21266836
v 0.2754958 1.9748969 0.3325017
v 0.19613993 1.9693339 0.13722956
v 0.21077201 1.8516197 0.11861585
v 0.2974419 1.8675904 0.32781035
v 0.263619 2.8585954 0.34174037
v 0.18743092 2.8404484 0.15615083
v 0.20699355 2.7149615 0.1379674
v 0.29267612 2.7438188 0.3416434
v 0.26698774 3.637032 0.23681903
v 0.18961513 3.5964718 0.051374763
v 0.2172721 3.4910402 0.04134097
v 0.30725807 3.5443935 0.25221127
v 0.18406272 4.350769 0.09501921
v 0.13055971 4.3163004 -0.030946426
v -0.3793713 0.0066420613 -0.0035073943
v -0.26533806 0.016811615 -0.26891
v -0.20937452 1.0783032 0.018652512
v -0.294094 1.0773075 0.22762433
v -0.30664742 0.9717777 0.2126683
v -0.21760803 0.96132684 -0.0043416927
v -0.19613644 1.9693339 0.13722958
v -0.2754923 1.9748962 0.3325023
v -0.29743826 1.8675895 0.3278104
v -0.21076849 1.8516197 0.11861579
v -0.18742743 2.8404484 0.15615083
v -0.26361552 2.8585954 0.34174037
v -0.29267263 2.7438188 0.3416434
v -0.20699006 2.7149615 0.1379674
v -0.18961164 3.5964718 0.051374763
v -0.26698425 3.637032 0.23681897
v -0.3072546 3.5443935 0.25221127
v -0.21726862 3.4910402 0.041340977
v -0.13055624 4.3163004 -0.030946426
v -0.18405926 4.350769 0.09501921
v 1.7325465E-06 -0.009206811 0.37900794
v -0.2700046 -0.0044974606 0.2665534
v -0.20526403 1.0765289 0.43220204
v 1.7003802E-06 1.0768892 0.5150739
v 1.7384391E-06 0.98537886 0.51586205
v -0.21549594 0.9811201 0.42764133
v -0.19247165 1.9808526 0.5239295
v 1.7384168E-06 1.983634 0.6015482
v 1.7232255E-06 1.890007 0.62114453
v -0.20942783 1.8833566 0.53569776
v -0.18476641 2.8767943 0.52463925
v 1.7492703E-06 2.8841262 0.599359
v 1.7437233E-06 2.7839742 0.6292741
v -0.20672 2.7725143 0.5450844
v -0.18781817 3.6765118 0.4207517
v 1.8062137E-06 3.6920123 0.49690378
v 1.7384627E-06 3.61692 0.55196124
v -0.21737635 3.5964975 0.46360302
v -0.1297403 4.3849254 0.22019702
v 1.7380369E-06 4.3988676 0.2719201
v -2.3144126 5.074549 -0.870852
v -2.878858 4.670815 -1.089756
v -2.7079072 4.681943 -1.4431627
v -2.1992834 5.0822916 -1.1088318
v -0.4353118 4.8365726 0.016480193
v -0.9212632 5.1491365 -0.21450478
v -0.8215525 5.1558743 -0.42024863
v -0.32785183 4.8440323 -0.20606202
v 0.02413905 4.4697866 0.23722649
v 0.13994817 4.477449 -0.0024535565
v -0.8215525 5.1558743 -0.42024863
v -1.7291145 5.23617 -0.8835051
v -2.065749 4.843755 -1.4919107
v -0.8237431 4.860183 -0.9969518
v -1.8496225 5.227869 -0.63341796
v -2.3144126 5.074549 -0.870852
v -2.1992834 5.0822916 -1.1088318
v -1.7291145 5.23617 -0.8835051
v -2.1992834 5.0822916 -1.1088318
v -2.7079072 4.681943 -1.4431627
v -2.065749 4.843755 -1.4919107
v -1.7291145 5.23617 -0.8835051
v -0.9212632 5.1491365 -0.21450478
v -1.2360827 4.8121758 0.13790545
v -2.4907558 4.8209 -0.5023244
v -1.8496225 5.227869 -0.63341796
v -1.8496225 5.227869 -0.63341796
v -2.4907558 4.8209 -0.5023244
v -2.878858 4.670815 -1.089756
v -2.3144126 5.074549 -0.870852
v -0.94544935 4.9393873 -0.28616825
v -0.8874872 4.943171 -0.40649676
v -1.7303195 5.0151224 -0.8388629
v -1.8099132 5.010058 -0.6750995
v -0.8215525 5.1558743 -0.42024863
v -0.8237431 4.860183 -0.9969518
v -0.3126507 4.6886215 -0.524133
v -0.32785183 4.8440323 -0.20606202
v -0.4353118 4.8365726 0.016480193
v -0.68662477 4.67057 0.21456146
v -1.2360827 4.8121758 0.13790545
v -0.9212632 5.1491365 -0.21450478
v -2.231338 4.867585 -0.8756902
v -2.659152 4.527259 -1.4145832
v -2.822565 4.516533 -1.0765408
v -2.1463258 4.8732066 -1.0516338
v -1.8099132 5.010058 -0.6750995
v -1.7303195 5.0151224 -0.8388629
v -0.4949652 4.64915 -0.02611439
v -0.8874872 4.943171 -0.40649676
v -0.94544935 4.9393873 -0.28616825
v -0.39382893 4.6550083 -0.23376909
v -0.03570523 4.3244376 0.19952515
v 0.076675266 4.331875 -0.032960653
v -0.8575473 4.683726 -0.97276866
v -0.8237431 4.860183 -0.9969518
v -2.065749 4.843755 -1.4919107
v -2.0465064 4.672526 -1.451854
v -2.1463258 4.8732066 -1.0516338
v -1.7303195 5.0151224 -0.8388629
v -2.0465064 4.672526 -1.451854
v -2.659152 4.527259 -1.4145832
v -0.94544935 4.9393873 -0.28616825
v -1.8099132 5.010058 -0.6750995
v -2.4443715 4.6516414 -0.5215467
v -1.2397176 4.6387835 0.084993094
v -1.8099132 5.010058 -0.6750995
v -2.231338 4.867585 -0.8756902
v -2.822565 4.516533 -1.0765408
v -2.4443715 4.6516414 -0.5215467
v -1.2397176 4.6387835 0.084993094
v -2.4443715 4.6516414 -0.5215467
v -2.4907558 4.8209 -0.5023244
v -1.2360827 4.8121758 0.13790545
v -0.7099112 4.5158467 0.15402316
v -0.68662477 4.67057 0.21456146
v -0.8874872 4.943171 -0.40649676
v -0.39382893 4.6550083 -0.23376909
v -0.37024707 4.532429 -0.5117838
v -0.8575473 4.683726 -0.97276866
v -0.4949652 4.64915 -0.02611439
v -0.94544935 4.9393873 -0.28616825
v -1.2397176 4.6387835 0.084993094
v -0.7099112 4.5158467 0.15402316
v -0.3126507 4.6886215 -0.524133
v -0.8237431 4.860183 -0.9969518
v -0.8575473 4.683726 -0.97276866
v -0.37024707 4.532429 -0.5117838
v -0.8575473 4.683726 -0.97276866
v -2.0465064 4.672526 -1.451854
v -1.7303195 5.0151224 -0.8388629
v -0.8874872 4.943171 -0.40649676
v -0.32785183 4.8440323 -0.20606202
v -0.3126507 4.6886215 -0.524133
v -0.37024707 4.532429 -0.5117838
v -0.39382893 4.6550083 -0.23376909
v -0.68662477 4.67057 0.21456146
v -0.4353118 4.8365726 0.016480193
v -0.4949652 4.64915 -0.02611439
v -0.7099112 4.5158467 0.15402316
v -2.878858 4.670815 -1.089756
v -2.4907558 4.8209 -0.5023244
v -2.4443715 4.6516414 -0.5215467
v -2.822565 4.516533 -1.0765408
v 0.02413905 4.4697866 0.23722649
v 0.13994817 4.477449 -0.0024535565
v 0.076675266 4.331875 -0.032960653
v -0.03570523 4.3244376 0.19952515
v 0.13994817 4.477449 -0.0024535565
v -0.32785183 4.8440323 -0.20606202
v -0.39382893 4.6550083 -0.23376909
v 0.076675266 4.331875 -0.032960653
v 0.111322105 4.6172447 -1.0768726
v -0.11740911 4.617078 -1.0770224
v -0.14209107 4.268565 -2.0369537
v 0.13563977 4.268619 -2.0373883
v -0.4353118 4.8365726 0.016480193
v 0.02413905 4.4697866 0.23722649
v -0.03570523 4.3244376 0.19952515
v -0.4949652 4.64915 -0.02611439
v -2.065749 4.843755 -1.4919107
v -2.7079072 4.681943 -1.4431627
v -2.659152 4.527259 -1.4145832
v -2.0465064 4.672526 -1.451854
v -2.7079072 4.681943 -1.4431627
v -2.878858 4.670815 -1.089756
v -2.822565 4.516533 -1.0765408
v -2.659152 4.527259 -1.4145832
v 1.739081E-06 3.4695134 -0.046420895
v 1.7383882E-06 3.516059 0.26061162
v 0.2172721 3.4910402 0.04134097
v -0.21726862 3.4910402 0.041340977
v 0.30725807 3.5443935 0.25221127
v -0.3072546 3.5443935 0.25221127
v 0.21737984 3.5964975 0.46360302
v -0.21737635 3.5964975 0.46360302
v 1.7384627E-06 3.61692 0.55196124
v 0.20699355 2.7149615 0.1379674
v 1.7142934E-06 2.7155051 0.3461002
v 0.29267612 2.7438188 0.3416434
v 1.7386592E-06 2.7034216 0.053584963
v 0.20672342 2.7725139 0.54508436
v -0.20699006 2.7149615 0.1379674
v 1.7437233E-06 2.7839742 0.6292741
v -0.29267263 2.7438188 0.3416434
v -0.20672 2.7725143 0.5450844
v 0.20943129 1.8833556 0.5356971
v 1.7549946E-06 1.8389599 0.33142424
v 1.7232255E-06 1.890007 0.62114453
v 0.2974419 1.8675904 0.32781035
v -0.20942783 1.8833566 0.53569776
v 0.21077201 1.8516197 0.11861585
v -0.29743826 1.8675895 0.3278104
v 1.7383443E-06 1.8447711 0.031886224
v -0.21076849 1.8516197 0.11861579
v 0.21761143 0.9613261 -0.0043421644
v 1.7518719E-06 0.9426911 0.21676606
v 0.30665097 0.9717784 0.21266836
v 1.6539739E-06 0.9559603 -0.094474256
v 0.21549946 0.9811201 0.4276412
v -0.21760803 0.96132684 -0.0043416927
v 1.7384391E-06 0.98537886 0.51586205
v -0.30664742 0.9717777 0.2126683
v -0.21549594 0.9811201 0.42764133
vt 0.15673743 0.40886533
vt 0.15673743 0.40886533
vt 0.15673743 0.40886533
vt 0.15673743 0.40886533
vt 0.15673743 0.40886533
vt 0.15673743 0.40886533
vt 0.15673743 0.40886533
vt 0.15673743 0.40886533
vt 0.15673743 0.40886533
vt 0.15673743 0.40886533
vt 0.15673743 0.40886533
vt 0.15673743 0.40886533
vt 0.15673743 0.40886533
vt 0.15673743 0.40886533
vt 0.15673743 0.40886533
vt 0.15673743 0.40886533
vt 0.15673743 0.40886533
vt 0.15673743 0.40886533
vt 0.15673743 0.40886533
vt 0.15673743 0.40886533
vt 0.15673743 0.40886533
vt 0.15673743 0.40886533
vt 0.15673743 0.40886533
vt 0.15673743 0.40886533
vt 0.15673743 0.40886533
vt 0.15673743 0.40886533
vt 0.15673743 0.40886533
vt 0.15673743 0.40886533
vt 0.15673743 0.40886533
vt 0.15673743 0.40886533
vt 0.15673743 0.40886533
vt 0.15673743 0.40886533
vt 0.15673743 0.40886533
vt 0.15673743 0.40886533
vt 0.15673743 0.40886533
vt 0.15673743 0.40886533
vt 0.15673743 0.40886533
vt 0.15673743 0.40886533
vt 0.15673743 0.40886533
vt 0.15673743 0.40886533
vt 0.15673743 0.40886533
vt 0.15673743 0.40886533
vt 0.15673743 0.40886533
vt 0.15673743 0.40886533
vt 0.15673743 0.40886533
vt 0.15673743 0.40886533
vt 0.15673743 0.40886533
vt 0.15673743 0.40886533
vt 0.15673742 0.4088653
vt 0.15673743 0.40886533
vt 0.15673743 0.40886533
vt 0.15673743 0.40886533
vt 0.15673743 0.40886533
vt 0.15673743 0.40886533
vt 0.15673743 0.40886533
vt 0.15673743 0.40886533
vt 0.15673743 0.40886533
vt 0.15673743 0.40886533
vt 0.15673743 0.40886533
vt 0.15673743 0.40886533
vt 0.15673743 0.40886533
vt 0.15673743 0.40886533
vt 0.15673743 0.40886533
vt 0.15673742 0.4088653
vt 0.15673743 0.40886533
vt 0.15673743 0.40886533
vt 0.15673743 0.40886533
vt 0.15673743 0.40886533
vt 0.15673743 0.40886533
vt 0.15673743 0.40886533
vt 0.15673743 0.40886533
vt 0.15673743 0.40886533
vt 0.15673743 0.40886533
vt 0.15673743 0.40886533
vt 0.15673743 0.40886533
vt 0.15673743 0.40886533
vt 0.15673743 0.40886533
vt 0.15673743 0.40886533
vt 0.15673743 0.40886533
vt 0.15673743 0.40886533
vt 0.15673743 0.40886533
vt 0.15673743 0.40886533
vt 0.15673743 0.40886533
vt 0.15673743 0.40886533
vt 0.15673743 0.40886533
vt 0.15673743 0.40886533
vt 0.15673743 0.40886533
vt 0.15673743 0.40886533
vt 0.15673743 0.40886533
vt 0.15673743 0.40886533
vt 0.15673743 0.40886533
vt 0.15673743 0.40886533
vt 0.15673743 0.40886533
vt 0.15673743 0.40886533
vt 0.15673743 0.40886533
vt 0.15673743 0.40886533
vt 0.15673743 0.40886533
vt 0.15673743 0.40886533
vt 0.15673743 0.40886533
vt 0.15673743 0.40886533
vt 0.15673743 0.40886533
vt 0.15673743 0.40886533
vt 0.15673743 0.40886533
vt 0.15673743 0.40886533
vt 0.15673743 0.40886533
vt 0.15673743 0.40886533
vt 0.15673743 0.40886533
vt 0.15673743 0.40886533
vt 0.15673743 0.40886533
vt 0.15673743 0.40886533
vt 0.15673743 0.40886533
vt 0.15673743 0.40886533
vt 0.15673743 0.40886533
vt 0.15673743 0.40886533
vt 0.15673743 0.40886533
vt 0.15673743 0.40886533
vt 0.15673743 0.40886533
vt 0.15673743 0.40886533
vt 0.15673743 0.40886533
vt 0.15673743 0.40886533
vt 0.15673743 0.40886533
vt 0.15673743 0.40886533
vt 0.15673743 0.40886533
vt 0.15673743 0.40886533
vt 0.15673743 0.40886533
vt 0.15673743 0.40886533
vt 0.15673743 0.40886533
vt 0.15673743 0.40886533
vt 0.15673743 0.40886533
vt 0.15673743 0.40886533
vt 0.15673743 0.40886533
vt 0.15673743 0.40886533
vt 0.15673743 0.40886533
vt 0.15673743 0.40886533
vt 0.15673743 0.40886533
vt 0.15673743 0.40886533
vt 0.15673743 0.40886533
vt 0.15673743 0.40886533
vt 0.15673743 0.40886533
vt 0.15673743 0.40886533
vt 0.15673743 0.40886533
vt 0.15673743 0.40886533
vt 0.15673743 0.40886533
vt 0.15673743 0.40886533
vt 0.15673743 0.40886533
vt 0.15673743 0.40886533
vt 0.15673743 0.40886533
vt 0.15673743 0.40886533
vt 0.15673743 0.40886533
vt 0.15673743 0.40886533
vt 0.15673743 0.40886533
vt 0.15673743 0.40886533
vt 0.15673743 0.40886533
vt 0.15673743 0.40886533
vt 0.15673743 0.40886533
vt 0.15673743 0.40886533
vt 0.15673743 0.40886533
vt 0.15673743 0.40886533
vt 0.15673743 0.40886533
vt 0.15673743 0.40886533
vt 0.15673743 0.40886533
vt 0.15673743 0.40886533
vt 0.15673743 0.40886533
vt 0.15673743 0.40886533
vt 0.15673743 0.40886533
vt 0.15673743 0.40886533
vt 0.15673743 0.40886533
vt 0.15673743 0.40886533
vt 0.15673743 0.40886533
vt 0.15673743 0.40886533
vt 0.15673743 0.40886533
vt 0.15673743 0.40886533
vt 0.15673743 0.40886533
vt 0.15673743 0.40886533
vt 0.15673743 0.40886533
vt 0.15673743 0.40886533
vt 0.15673742 0.4088653
vt 0.15673743 0.40886533
vt 0.15673743 0.40886533
vt 0.15673743 0.40886533
vt 0.15673743 0.40886533
vt 0.15673743 0.40886533
vt 0.15673743 0.40886533
vt 0.15673743 0.40886533
vt 0.15673743 0.40886533
vt 0.15673743 0.40886533
vt 0.15673743 0.40886533
vt 0.15673743 0.40886533
vt 0.15673743 0.40886533
vt 0.15673743 0.40886533
vt 0.15673743 0.40886533
vt 0.15673742 0.4088653
vt 0.15673743 0.40886533
vt 0.15673743 0.40886533
vt 0.15673743 0.40886533
vt 0.15673743 0.40886533
vt 0.15673743 0.40886533
vt 0.15673743 0.40886533
vt 0.15673743 0.40886533
vt 0.15673743 0.40886533
vt 0.15673743 0.40886533
vt 0.15673743 0.40886533
vt 0.15673743 0.40886533
vt 0.15673743 0.40886533
vt 0.15673743 0.40886533
vt 0.15673743 0.40886533
vt 0.15673743 0.40886533
vt 0.15673743 0.40886533
vt 0.15673743 0.40886533
vt 0.15673743 0.40886533
vt 0.15673743 0.40886533
vt 0.15673743 0.40886533
vt 0.15673743 0.40886533
vt 0.15673743 0.40886533
vt 0.15673743 0.40886533
vt 0.15673743 0.40886533
vt 0.15673743 0.40886533
vt 0.15673743 0.40886533
vt 0.15673743 0.40886533
vt 0.15673743 0.40886533
vt 0.15673743 0.40886533
vt 0.15673743 0.40886533
vt 0.15673743 0.40886533
vt 0.15673743 0.40886533
vt 0.15673743 0.40886533
vt 0.15673743 0.40886533
vt 0.15673743 0.40886533
vt 0.15673743 0.40886533
vt 0.15673743 0.40886533
vt 0.15673743 0.40886533
vt 0.15673743 0.40886533
vt 0.15673743 0.40886533
vt 0.15673743 0.40886533
vt 0.15673743 0.40886533
vt 0.15673743 0.40886533
vt 0.15673743 0.40886533
vt 0.15673743 0.40886533
vt 0.15673743 0.40886533
vt 0.15673743 0.40886533
vt 0.15673743 0.40886533
vt 0.15673743 0.40886533
vt 0.15673743 0.40886533
vt 0.15673743 0.40886533
vt 0.15673743 0.40886533
vt 0.15673743 0.40886533
vt 0.15673743 0.40886533
vt 0.15673743 0.40886533
vt 0.15673743 0.40886533
vt 0.15673743 0.40886533
vt 0.15673743 0.40886533
vt 0.15673743 0.40886533
vt 0.15673743 0.40886533
vt 0.15673743 0.40886533
vt 0.15673743 0.40886533
vt 0.15673743 0.40886533
vt 0.15673743 0.40886533
vt 0.15673743 0.40886533
vt 0.15673743 0.40886533
vt 0.15673743 0.40886533
vt 0.15673743 0.40886533
vt 0.15673743 0.40886533
vt 0.15673743 0.40886533
vt 0.15673743 0.40886533
vt 0.15673743 0.40886533
vt 0.15673743 0.40886533
vt 0.15673743 0.40886533
vt 0.15673743 0.40886533
vt 0.15673743 0.40886533
vt 0.15673743 0.40886533
vt 0.15673743 0.40886533
vt 0.15673743 0.40886533
vt 0.15673743 0.40886533
vt 0.15673743 0.40886533
vt 0.15673743 0.40886533
vt 0.15673743 0.40886533
vt 0.15673743 0.40886533
vt 0.15673743 0.40886533
vt 0.15673743 0.40886533
vt 0.15673743 0.40886533
vt 0.15673743 0.40886533
vt 0.15673743 0.40886533
vt 0.15673743 0.40886533
vt 0.15673743 0.40886533
vt 0.15673743 0.40886533
vt 0.15673743 0.40886533
vt 0.15673743 0.40886533
vt 0.15673743 0.40886533
vt 0.15673743 0.40886533
vt 0.15673743 0.40886533
vt 0.15673743 0.40886533
vt 0.15673743 0.40886533
vt 0.15673743 0.40886533
vt 0.15673743 0.40886533
vt 0.15673743 0.40886533
vt 0.15673743 0.40886533
vt 0.15673743 0.40886533
vt 0.15673743 0.40886533
vt 0.15673743 0.40886533
vt 0.15673743 0.40886533
vt 0.15673743 0.40886533
vt 0.15673743 0.40886533
vt 0.15673743 0.40886533
vt 0.15673743 0.40886533
vt 0.15673743 0.40886533
vt 0.15673742 0.4088653
vt 0.15673743 0.40886533
vt 0.15673743 0.40886533
vt 0.15673743 0.40886533
vt 0.15673743 0.40886533
vt 0.15673743 0.40886533
vt 0.15673743 0.40886533
vt 0.15673743 0.40886533
vt 0.15673743 0.40886533
vt 0.15673743 0.40886533
vt 0.15673743 0.40886533
vt 0.15673743 0.40886533
vt 0.15673743 0.40886533
vt 0.15673743 0.40886533
vt 0.15673743 0.40886533
vt 0.15673742 0.4088653
vt 0.15673743 0.40886533
vt 0.15673743 0.40886533
vt 0.15673743 0.40886533
vt 0.15673743 0.40886533
vt 0.15673743 0.40886533
vt 0.15673743 0.40886533
vt 0.15673743 0.40886533
vt 0.15673743 0.40886533
vt 0.15673743 0.40886533
vt 0.15673743 0.40886533
vt 0.15673743 0.40886533
vt 0.15673743 0.40886533
vt 0.15673743 0.40886533
vt 0.15673743 0.40886533
vt 0.15673743 0.40886533
vt 0.15673743 0.40886533
vt 0.15673743 0.40886533
vt 0.15673743 0.40886533
vt 0.15673743 0.40886533
vt 0.15673743 0.40886533
vt 0.15673743 0.40886533
vt 0.15673743 0.40886533
vt 0.15673743 0.40886533
vt 0.15673743 0.40886533
vt 0.15673743 0.40886533
vt 0.15673743 0.40886533
vt 0.15673743 0.40886533
vt 0.15673743 0.40886533
vt 0.15673743 0.40886533
vt 0.15673743 0.40886533
vt 0.15673743 0.40886533
vt 0.15673743 0.40886533
vt 0.15673743 0.40886533
vt 0.15673743 0.40886533
vt 0.15673743 0.40886533
vt 0.15673743 0.40886533
vt 0.15673743 0.40886533
vt 0.15673743 0.40886533
vt 0.15673743 0.40886533
vt 0.15673743 0.40886533
vt 0.15673743 0.40886533
vt 0.15673743 0.40886533
vt 0.15673743 0.40886533
vt 0.15673743 0.40886533
vt 0.15673743 0.40886533
vt 0.15673743 0.40886533
vt 0.15673743 0.40886533
vt 0.15673743 0.40886533
vt 0.15673743 0.40886533
vt 0.15673743 0.40886533
vt 0.15673743 0.40886533
vt 0.15673743 0.40886533
vt 0.15673743 0.40886533
vt 0.15673743 0.40886533
vt 0.15673743 0.40886533
vt 0.15673743 0.40886533
vt 0.15673743 0.40886533
vt 0.15673743 0.40886533
vt 0.15673743 0.40886533
vt 0.15673743 0.40886533
vt 0.15673743 0.40886533
vt 0.15673743 0.40886533
vt 0.15673743 0.40886533
vt 0.15673743 0.40886533
vt 0.15673743 0.40886533
vt 0.15673743 0.40886533
vt 0.15673743 0.40886533
vt 0.15673743 0.40886533
vt 0.15673743 0.40886533
vt 0.15673743 0.40886533
vt 0.15673743 0.40886533
vt 0.15673743 0.40886533
vt 0.15673743 0.40886533
vt 0.15673743 0.40886533
vt 0.15673743 0.40886533
vt 0.15673743 0.40886533
vt 0.15673743 0.40886533
vt 0.15673743 0.40886533
vt 0.15673743 0.40886533
vt 0.15673743 0.40886533
vt 0.15673743 0.40886533
vt 0.15673743 0.40886533
vt 0.15673743 0.40886533
vt 0.15673743 0.40886533
vt 0.15673743 0.40886533
vt 0.15673743 0.40886533
vt 0.15673743 0.40886533
vt 0.15673743 0.40886533
vt 0.15673743 0.40886533
vt 0.15673743 0.40886533
vt 0.15673743 0.40886533
vt 0.15673743 0.40886533
vt 0.15673743 0.40886533
vt 0.15673743 0.40886533
vt 0.15673743 0.40886533
vt 0.15673743 0.40886533
vt 0.15673743 0.40886533
vt 0.15673743 0.40886533
vt 0.15673743 0.40886533
vt 0.15673743 0.40886533
vt 0.15673743 0.40886533
vt 0.15673743 0.40886533
vt 0.15673743 0.40886533
vt 0.15673743 0.40886533
vt 0.15673743 0.40886533
vt 0.15673743 0.40886533
vt 0.15673743 0.40886533
vt 0.15673743 0.40886533
vt 0.15673743 0.40886533
vt 0.15673743 0.40886533
vt 0.15673743 0.40886533
vt 0.15673743 0.40886533
vt 0.15673743 0.40886533
vt 0.15673743 0.40886533
vt 0.15673743 0.40886533
vt 0.15673743 0.40886533
vt 0.15673743 0.40886533
vt 0.15673743 0.40886533
vt 0.15673743 0.40886533
vt 0.15673743 0.40886533
vt 0.15673743 0.40886533
vt 0.15673743 0.40886533
vt 0.15673743 0.40886533
vt 0.15673743 0.40886533
vt 0.15673743 0.40886533
vt 0.15673743 0.40886533
vt 0.15673743 0.40886533
vt 0.15673743 0.40886533
vt 0.15673743 0.40886533
vt 0.15673743 0.40886533
vt 0.15673743 0.40886533
vt 0.15673743 0.40886533
vt 0.15673743 0.40886533
vt 0.15673743 0.40886533
vt 0.15673743 0.40886533
vt 0.15673743 0.40886533
vt 0.15673743 0.40886533
vt 0.15673743 0.40886533
vt 0.15673743 0.40886533
vt 0.15673743 0.40886533
vt 0.15673743 0.40886533
vt 0.15673743 0.40886533
vt 0.15673743 0.40886533
vt 0.15673743 0.40886533
vt 0.15673743 0.40886533
vt 0.15673743 0.40886533
vt 0.15673743 0.40886533
vt 0.15673742 0.4088653
vt 0.15673743 0.40886533
vt 0.15673743 0.40886533
vt 0.15673743 0.40886533
vt 0.15673743 0.40886533
vt 0.15673743 0.40886533
vt 0.15673743 0.40886533
vt 0.15673742 0.4088653
vt 0.15673743 0.40886533
vt 0.15673743 0.40886533
vt 0.15673743 0.40886533
vt 0.15673743 0.40886533
vt 0.15673743 0.40886533
vt 0.15673743 0.40886533
vt 0.15673743 0.40886533
vt 0.15673743 0.40886533
vt 0.15673743 0.40886533
vt 0.15673743 0.40886533
vt 0.15673743 0.40886533
vt 0.15673743 0.40886533
vt 0.15673743 0.40886533
vt 0.15673743 0.40886533
vt 0.15673743 0.40886533
vt 0.15673743 0.40886533
vt 0.15673743 0.40886533
vt 0.15673743 0.40886533
vt 0.15673743 0.40886533
vt 0.15673743 0.40886533
vt 0.15673743 0.40886533
vt 0.15673743 0.40886533
vt 0.15673743 0.40886533
vt 0.15673743 0.40886533
vt 0.15673743 0.40886533
vt 0.15673743 0.40886533
vt 0.15673743 0.40886533
vt 0.15673743 0.40886533
vt 0.15673743 0.40886533
vt 0.15673743 0.40886533
vt 0.15673743 0.40886533
vt 0.15673743 0.40886533
vt 0.15673743 0.40886533
vt 0.15673743 0.40886533
vt 0.15673743 0.40886533
vt 0.15673743 0.40886533
vt 0.15673743 0.40886533
vt 0.7192844 0.9069164
vt 0.7192844 0.9069164
vt 0.7192844 0.9069164
vt 0.7192844 0.9069164
vt 0.7192844 0.9069164
vt 0.7192844 0.9069164
vt 0.7192844 0.9069164
vt 0.7192844 0.9069164
vt 0.6567844 0.9069164
vt 0.6567844 0.9069164
vt 0.6567844 0.9069164
vt 0.6567844 0.9069164
vt 0.6567844 0.9069164
vt 0.6567844 0.9069164
vt 0.6567844 0.9069164
vt 0.6567844 0.9069164
vt 0.5942844 0.9069164
vt 0.5942844 0.9069164
vt 0.5942844 0.9069164
vt 0.5942844 0.9069164
vt 0.7192844 0.9069164
vt 0.7192844 0.9069164
vt 0.7192844 0.9069164
vt 0.7192844 0.9069164
vt 0.7192844 0.9069164
vt 0.7192844 0.9069164
vt 0.7192844 0.9069164
vt 0.7192844 0.9069164
vt 0.6567844 0.9069164
vt 0.6567844 0.9069164
vt 0.6567844 0.9069164
vt 0.6567844 0.9069164
vt 0.6567844 0.9069164
vt 0.6567844 0.9069164
vt 0.6567844 0.9069164
vt 0.6567844 0.9069164
vt 0.5942844 0.9069164
vt 0.5942844 0.9069164
vt 0.5942844 0.90691644
vt 0.5942844 0.9069164
vt 0.7192844 0.9069164
vt 0.7192844 0.9069164
vt 0.7192844 0.9069164
vt 0.7192844 0.9069164
vt 0.7192844 0.9069164
vt 0.7192844 0.9069164
vt 0.7192844 0.9069164
vt 0.7192844 0.9069164
vt 0.6567844 0.9069164
vt 0.6567844 0.9069164
vt 0.6567844 0.9069164
vt 0.6567844 0.9069164
vt 0.6567844 0.9069164
vt 0.6567844 0.9069164
vt 0.6567844 0.9069164
vt 0.6567844 0.9069164
vt 0.5942844 0.9069164
vt 0.5942844 0.9069164
vt 0.5942844 0.9069164
vt 0.5942844 0.9069164
vt 0.7192844 0.9069164
vt 0.7192844 0.9069164
vt 0.7192844 0.9069164
vt 0.7192844 0.9069164
vt 0.7192844 0.9069164
vt 0.7192844 0.9069164
vt 0.7192844 0.9069164
vt 0.7192844 0.9069164
vt 0.6567844 0.9069164
vt 0.6567844 0.9069164
vt 0.6567844 0.9069164
vt 0.6567844 0.9069164
vt 0.6567844 0.9069164
vt 0.6567844 0.9069164
vt 0.6567844 0.9069164
vt 0.6567844 0.9069164
vt 0.5942844 0.9069164
vt 0.5942844 0.9069164
vt 0.5942844 0.90691644
vt 0.5942844 0.90691644
vt 0.7192844 0.9069164
vt 0.7192844 0.9069164
vt 0.7192844 0.9069164
vt 0.7192844 0.9069164
vt 0.7192844 0.9069164
vt 0.7192844 0.9069164
vt 0.7192844 0.9069164
vt 0.7192844 0.9069164
vt 0.6567844 0.9069164
vt 0.6567844 0.9069164
vt 0.6567844 0.9069164
vt 0.6567844 0.9069164
vt 0.6567844 0.9069164
vt 0.6567844 0.9069164
vt 0.6567844 0.9069164
vt 0.6567844 0.9069164
vt 0.5942844 0.9069164
vt 0.5942844 0.9069164
vt 0.5942844 0.9069164
vt 0.5942844 0.9069164
vt 0.7192844 0.9069164
vt 0.7192844 0.9069164
vt 0.7192844 0.9069164
vt 0.7192844 0.9069164
vt 0.7192844 0.9069164
vt 0.7192844 0.9069164
vt 0.7192844 0.9069164
vt 0.7192844 0.9069164
vt 0.6567844 0.9069164
vt 0.6567844 0.9069164
vt 0.6567844 0.9069164
vt 0.6567844 0.9069164
vt 0.6567844 0.9069164
vt 0.6567844 0.9069164
vt 0.6567844 0.9069164
vt 0.6567844 0.9069164
vt 0.5942844 0.9069164
vt 0.5942844 0.9069164
vt 0.5942844 0.9069164
vt 0.5942844 0.90691644
vt 0.7192844 0.9069164
vt 0.7192844 0.9069164
vt 0.7192844 0.9069164
vt 0.7192844 0.9069164
vt 0.7192844 0.9069164
vt 0.7192844 0.9069164
vt 0.7192844 0.9069164
vt 0.7192844 0.9069164
vt 0.6567844 0.9069164
vt 0.6567844 0.9069164
vt 0.6567844 0.9069164
vt 0.6567844 0.9069164
vt 0.6567844 0.9069164
vt 0.6567844 0.9069164
vt 0.6567844 0.9069164
vt 0.6567844 0.9069164
vt 0.5942844 0.9069164
vt 0.5942844 0.9069164
vt 0.5942844 0.9069164
vt 0.5942844 0.90691644
vt 0.7192844 0.9069164
vt 0.7192844 0.9069164
vt 0.7192844 0.9069164
vt 0.7192844 0.9069164
vt 0.7192844 0.9069164
vt 0.7192844 0.9069164
vt 0.7192844 0.9069164
vt 0.7192844 0.9069164
vt 0.6567844 0.9069164
vt 0.6567844 0.9069164
vt 0.6567844 0.9069164
vt 0.6567844 0.9069164
vt 0.6567844 0.9069164
vt 0.6567844 0.9069164
vt 0.6567844 0.9069164
vt 0.6567844 0.9069164
vt 0.5942844 0.9069164
vt 0.5942844 0.9069164
vt 0.5942844 0.90691644
vt 0.5942844 0.9069164
vt 0.15673743 0.40886533
vt 0.15673743 0.40886533
vt 0.15673743 0.40886533
vt 0.15673743 0.40886533
vt 0.15673743 0.40886533
vt 0.15673743 0.40886533
vt 0.15673743 0.40886533
vt 0.15673743 0.40886533
vt 0.15673743 0.40886533
vt 0.15673743 0.40886533
vt 0.15673743 0.40886533
vt 0.15673743 0.40886533
vt 0.15673743 0.40886533
vt 0.15673743 0.40886533
vt 0.15673743 0.40886533
vt 0.15673743 0.40886533
vt 0.15673743 0.40886533
vt 0.15673743 0.40886533
vt 0.15673743 0.40886533
vt 0.15673743 0.40886533
vt 0.15673743 0.40886533
vt 0.15673743 0.40886533
vt 0.15673743 0.40886533
vt 0.15673743 0.40886533
vt 0.15673743 0.40886533
vt 0.15673743 0.40886533
vt 0.15673743 0.40886533
vt 0.15673743 0.40886533
vt 0.15673743 0.40886533
vt 0.15673743 0.40886533
vt 0.15673743 0.40886533
vt 0.15673743 0.40886533
vt 0.15673743 0.40886533
vt 0.15673743 0.40886533
vt 0.15673743 0.40886533
vt 0.15673743 0.40886533
vt 0.15673743 0.40886533
vt 0.15673743 0.40886533
vt 0.15673743 0.40886533
vt 0.15673743 0.40886533
vt 0.15673743 0.40886533
vt 0.15673743 0.40886533
vt 0.15673743 0.40886533
vt 0.15673743 0.40886533
vt 0.15673743 0.40886533
vt 0.15673743 0.40886533
vt 0.15673743 0.40886533
vt 0.15673743 0.40886533
vt 0.15673743 0.40886533
vt 0.15673743 0.40886533
vt 0.15673743 0.40886533
vt 0.15673743 0.40886533
vt 0.15673743 0.40886533
vt 0.15673743 0.40886533
vt 0.15673743 0.40886533
vt 0.15673743 0.40886533
vt 0.15673743 0.40886533
vt 0.15673743 0.40886533
vt 0.15673743 0.40886533
vt 0.15673743 0.40886533
vt 0.15673743 0.40886533
vt 0.15673743 0.40886533
vt 0.15673743 0.40886533
vt 0.15673743 0.40886533
vt 0.15673743 0.40886533
vt 0.15673743 0.40886533
vt 0.15673743 0.40886533
vt 0.15673743 0.40886533
vt 0.15673743 0.40886533
vt 0.15673743 0.40886533
vt 0.15673743 0.40886533
vt 0.15673743 0.40886533
vt 0.15673743 0.40886533
vt 0.15673743 0.40886533
vt 0.15673743 0.40886533
vt 0.15673743 0.40886533
vt 0.15673743 0.40886533
vt 0.15673743 0.40886533
vt 0.15673743 0.40886533
vt 0.15673742 0.4088653
vt 0.15673743 0.40886533
vt 0.15673743 0.40886533
vt 0.15673743 0.40886533
vt 0.15673743 0.40886533
vt 0.15673743 0.40886533
vt 0.15673743 0.40886533
vt 0.15673742 0.4088653
vt 0.15673743 0.40886533
vt 0.15673743 0.40886533
vt 0.15673743 0.40886533
vt 0.15673743 0.40886533
vt 0.15673743 0.40886533
vt 0.15673743 0.40886533
vt 0.15673743 0.40886533
vt 0.15673743 0.40886533
vt 0.15673743 0.40886533
vt 0.15673743 0.40886533
vt 0.15673743 0.40886533
vt 0.15673743 0.40886533
vt 0.15673743 0.40886533
vt 0.15673743 0.40886533
vt 0.15673743 0.40886533
vt 0.15673743 0.40886533
vt 0.15673743 0.40886533
vt 0.15673743 0.40886533
vt 0.15673743 0.40886533
vt 0.15673743 0.40886533
vt 0.15673743 0.40886533
vt 0.15673743 0.40886533
vt 0.15673743 0.40886533
vt 0.15673743 0.40886533
vt 0.15673743 0.40886533
vt 0.15673743 0.40886533
vt 0.15673743 0.40886533
vt 0.15673743 0.40886533
vt 0.15673743 0.40886533
vt 0.15673743 0.40886533
vt 0.15673743 0.40886533
vt 0.15673743 0.40886533
vt 0.15673743 0.40886533
vt 0.15673743 0.40886533
vt 0.15673743 0.40886533
vt 0.15673743 0.40886533
vt 0.15673743 0.40886533
vt 0.15673743 0.40886533
vt 0.15673743 0.40886533
vt 0.15673743 0.40886533
vt 0.15673743 0.40886533
vt 0.65615547 0.9046752
vt 0.65615547 0.9046752
vt 0.65615547 0.9046752
vt 0.65615547 0.9046752
vt 0.65615547 0.9046752
vt 0.65615547 0.9046752
vt 0.65615547 0.9046752
vt 0.65615547 0.9046752
vt 0.65615547 0.9046752
vt 0.71865547 0.9046752
vt 0.71865547 0.9046752
vt 0.71865547 0.9046752
vt 0.71865547 0.9046752
vt 0.71865547 0.9046752
vt 0.71865547 0.9046752
vt 0.71865547 0.9046752
vt 0.71865547 0.9046752
vt 0.71865547 0.9046752
vt 0.71865547 0.9046752
vt 0.71865547 0.9046752
vt 0.71865547 0.9046752
vt 0.71865547 0.9046752
vt 0.71865547 0.9046752
vt 0.71865547 0.9046752
vt 0.71865547 0.9046752
vt 0.71865547 0.9046752
vt 0.71865547 0.9046752
vt 0.71865547 0.9046752
vt 0.71865547 0.9046752
vt 0.71865547 0.9046752
vt 0.71865547 0.9046752
vt 0.71865547 0.9046752
vt 0.71865547 0.9046752
vt 0.71865547 0.9046752
vt 0.71865547 0.9046752
vt 0.71865547 0.9046752
vn 0.12423083 -0.98326313 0.1332683
vn 0.12423083 -0.98326313 0.1332683
vn 0.12423083 -0.98326313 0.1332683
vn 0.12423083 -0.98326313 0.1332683
vn -0.049568966 -0.7339629 0.6773783
vn -0.049568966 -0.7339629 0.6773783
vn -0.049568966 -0.7339629 0.6773783
vn -0.049568966 -0.7339629 0.6773783
vn 0.93611044 -0.27062848 0.22462757
vn 0.93611044 -0.27062848 0.22462757
vn 0.93611044 -0.27062848 0.22462757
vn 0.93611044 -0.27062848 0.22462757
vn 0.26631424 -0.10705022 0.9579233
vn 0.26631424 -0.10705022 0.9579233
vn 0.26631424 -0.10705022 0.9579233
vn 0.26631424 -0.10705022 0.9579233
vn 0.23612282 -0.1221215 -0.9640189
vn 0.23612282 -0.1221215 -0.9640189
vn 0.23612282 -0.1221215 -0.9640189
vn 0.23612282 -0.1221215 -0.9640189
vn -0.16237107 0.08665707 0.98291713
vn -0.16237107 0.08665707 0.98291713
vn -0.16237107 0.08665707 0.98291713
vn -0.16237107 0.08665707 0.98291713
vn -0.8585732 -0.49749297 -0.12390601
vn -0.8585732 -0.49749297 -0.12390601
vn -0.8585732 -0.49749297 -0.12390601
vn -0.8585732 -0.49749297 -0.12390601
vn 0.61954486 -0.2892527 -0.72972393
vn 0.61954486 -0.2892527 -0.72972393
vn 0.61954486 -0.2892527 -0.72972393
vn 0.61954486 -0.2892527 -0.72972393
vn -0.8198465 -0.4375849 -0.36928457
vn -0.8198465 -0.4375849 -0.36928457
vn -0.8198465 -0.4375849 -0.36928457
vn -0.8198465 -0.4375849 -0.36928457
vn 0.10848384 -0.35416296 -0.9288702
vn -0.01630528 -0.39280236 -0.91947836
vn -0.01630528 -0.39280236 -0.91947836
vn 0.10632686 -0.35488772 -0.928843
vn 0.22849554 -0.31058872 -0.9226725
vn 0.22849554 -0.31058872 -0.9226725
vn -0.9205959 -0.38733605 0.049739014
vn -0.9205959 -0.38733605 0.049739014
vn -0.9205959 -0.38733605 0.049739014
vn -0.9205959 -0.38733605 0.049739014
vn -0.40009084 -0.19308795 0.8959042
vn -0.40009084 -0.19308795 0.8959042
vn -0.40009084 -0.19308795 0.8959042
vn -0.40009084 -0.19308795 0.8959042
vn 0.5447523 -0.81393075 0.2018951
vn 0.56655 -0.79810274 0.20506838
vn 0.56655 -0.79810274 0.20506838
vn 0.5445427 -0.81407875 0.20186412
vn 0.5207625 -0.8303511 0.19830139
vn 0.5207625 -0.8303511 0.19830139
vn 0.29083687 -0.66557646 0.68732953
vn 0.29083687 -0.66557646 0.68732953
vn 0.29083687 -0.66557646 0.68732953
vn 0.29083687 -0.66557646 0.68732953
vn 0.4991305 -0.7835902 -0.36993933
vn 0.4991305 -0.7835902 -0.36993933
vn 0.4991305 -0.7835902 -0.36993933
vn 0.4991305 -0.7835902 -0.36993933
vn 0.16413867 -0.87591565 -0.45368525
vn 0.16413867 -0.87591565 -0.45368525
vn 0.16413867 -0.87591565 -0.45368525
vn 0.16413867 -0.87591565 -0.45368525
vn -0.37930927 -0.830537 0.40783918
vn -0.37930927 -0.830537 0.40783918
vn -0.37930927 -0.830537 0.40783918
vn -0.37930927 -0.830537 0.40783918
vn -0.12222273 -0.10094137 0.9873563
vn -0.12222273 -0.10094137 0.9873563
vn -0.12222273 -0.10094137 0.9873563
vn -0.12222273 -0.10094137 0.9873563
vn -0.22260036 -0.914489 -0.33787426
vn -0.22260036 -0.914489 -0.33787426
vn -0.22260036 -0.914489 -0.33787426
vn -0.22260036 -0.914489 -0.33787426
vn -0.23624949 -0.97003347 0.0567562
vn -0.23624949 -0.97003347 0.0567562
vn -0.34220612 -0.9390923 0.03163354
vn -0.34193096 -0.93919015 0.031700686
vn -0.43533278 -0.9002315 0.008286714
vn -0.43533278 -0.9002315 0.008286714
vn 0.067186326 0.68420297 -0.7261902
vn 0.067186326 0.68420297 -0.7261902
vn 0.067186326 0.68420297 -0.7261902
vn 0.067186326 0.68420297 -0.7261902
vn -0.57476026 0.7915986 -0.20741788
vn -0.61238337 0.7617108 -0.21162045
vn -0.61238337 0.7617108 -0.21162045
vn -0.574656 0.79167753 -0.20740578
vn -0.5349252 0.820243 -0.20262392
vn -0.5349252 0.820243 -0.20262392
vn -0.3003784 0.6077913 -0.7350936
vn -0.3003784 0.6077913 -0.7350936
vn -0.3003784 0.6077913 -0.7350936
vn -0.3003784 0.6077913 -0.7350936
vn -0.5264071 0.7367431 0.42438775
vn -0.5264071 0.7367431 0.42438775
vn -0.5264071 0.7367431 0.42438775
vn -0.5264071 0.7367431 0.42438775
vn -0.16909751 0.84159225 0.5129605
vn -0.16909751 0.84159225 0.5129605
vn -0.16909751 0.84159225 0.5129605
vn -0.16909751 0.84159225 0.5129605
vn 0.41940558 0.7718544 -0.4778491
vn 0.41940558 0.7718544 -0.4778491
vn 0.41940558 0.7718544 -0.4778491
vn 0.41940558 0.7718544 -0.4778491
vn -0.12661625 0.98267406 -0.13535127
vn -0.12661625 0.98267406 -0.13535127
vn -0.12661625 0.98267406 -0.13535127
vn -0.12661625 0.98267406 -0.13535127
vn 0.22898981 0.87421167 0.428156
vn 0.22898981 0.87421167 0.428156
vn 0.22898981 0.87421167 0.428156
vn 0.22898981 0.87421167 0.428156
vn 0.22784606 0.9718222 -0.0603973
vn 0.22784606 0.9718222 -0.0603973
vn 0.22784606 0.9718222 -0.0603973
vn 0.22784606 0.9718222 -0.0603973
vn 0.50018036 0.86587346 0.009096041
vn 0.50018036 0.86587346 0.009096041
vn 0.50018036 0.86587346 0.009096041
vn 0.50018036 0.86587346 0.009096041
vn 0.06990531 -0.96580195 0.24967957
vn 0.06990531 -0.96580195 0.24967957
vn 0.06990531 -0.96580195 0.24967957
vn 0.06990531 -0.96580195 0.24967957
vn -0.5233213 -0.79932475 0.29532143
vn -0.5233213 -0.79932475 0.29532143
vn -0.5233213 -0.79932475 0.29532143
vn -0.5233213 -0.79932475 0.29532143
vn 0.20810968 -0.16385353 0.9642833
vn 0.20810968 -0.16385353 0.9642833
vn 0.20810968 -0.16385353 0.9642833
vn 0.20810968 -0.16385353 0.9642833
vn -0.7460022 -0.16457689 0.645287
vn -0.7460022 -0.16457689 0.645287
vn -0.7460022 -0.16457689 0.645287
vn -0.7460022 -0.16457689 0.645287
vn 0.98518753 0.0053946855 -0.17139517
vn 0.98518753 0.0053946855 -0.17139517
vn 0.98518753 0.0053946855 -0.17139517
vn 0.98518753 0.0053946855 -0.17139517
vn -0.9672173 -0.031118698 0.25203612
vn -0.9672173 -0.031118698 0.25203612
vn -0.9672173 -0.031118698 0.25203612
vn -0.9672173 -0.031118698 0.25203612
vn -0.15806593 -0.5956466 -0.7875406
vn -0.15806593 -0.5956466 -0.7875406
vn -0.15806593 -0.5956466 -0.7875406
vn -0.15806593 -0.5956466 -0.7875406
vn 0.9490198 -0.13312598 0.2857254
vn 0.9490198 -0.13312598 0.2857254
vn 0.9490198 -0.13312598 0.2857254
vn 0.9490198 -0.13312598 0.2857254
vn 0.064018056 -0.5087795 -0.8585133
vn 0.064018056 -0.5087795 -0.8585133
vn 0.064018056 -0.5087795 -0.8585133
vn 0.064018056 -0.5087795 -0.8585133
vn 0.93488866 -0.24877211 -0.25317144
vn 0.88221234 -0.30513567 -0.35859954
vn 0.88221234 -0.30513567 -0.35859954
vn 0.9341003 -0.24979968 -0.25506228
vn 0.9709074 -0.18968715 -0.14614245
vn 0.9709074 -0.18968715 -0.14614245
vn -0.3491969 -0.5127236 -0.78433156
vn -0.3491969 -0.5127236 -0.78433156
vn -0.3491969 -0.5127236 -0.78433156
vn -0.3491969 -0.5127236 -0.78433156
vn -0.9416617 -0.3357113 0.02389737
vn -0.9416617 -0.3357113 0.02389737
vn -0.9416617 -0.3357113 0.02389737
vn -0.9416617 -0.3357113 0.02389737
vn 0.15066546 -0.7499208 0.64414173
vn 0.15403423 -0.73237944 0.66324496
vn 0.15403423 -0.73237944 0.66324496
vn 0.15063165 -0.7500918 0.6439507
vn 0.14688867 -0.76839745 0.62288773
vn 0.14688867 -0.76839745 0.62288773
vn -0.40804443 -0.68721604 0.6010273
vn -0.40804443 -0.68721604 0.6010273
vn -0.40804443 -0.68721604 0.6010273
vn -0.40804443 -0.68721604 0.6010273
vn 0.6425997 -0.67312115 0.366024
vn 0.6425997 -0.67312115 0.366024
vn 0.6425997 -0.67312115 0.366024
vn 0.6425997 -0.67312115 0.366024
vn 0.59793466 -0.80069685 0.03686105
vn 0.59793466 -0.80069685 0.03686105
vn 0.59793466 -0.80069685 0.03686105
vn 0.59793466 -0.80069685 0.03686105
vn -0.3957304 -0.91219825 -0.10626298
vn -0.3957304 -0.91219825 -0.10626298
vn -0.3957304 -0.91219825 -0.10626298
vn -0.3957304 -0.91219825 -0.10626298
vn -0.9278019 -0.21517491 0.30476785
vn -0.9278019 -0.21517491 0.30476785
vn -0.9278019 -0.21517491 0.30476785
vn -0.9278019 -0.21517491 0.30476785
vn 0.34376988 -0.9017222 -0.26214397
vn 0.34376988 -0.9017222 -0.26214397
vn 0.34376988 -0.9017222 -0.26214397
vn 0.34376988 -0.9017222 -0.26214397
vn -0.0063264244 -0.9938671 -0.11040018
vn -0.0063264244 -0.9938671 -0.11040018
vn -0.029834997 -0.97559017 -0.21756317
vn -0.029773993 -0.9756537 -0.21728641
vn -0.050959695 -0.9483918 -0.3129795
vn -0.050959695 -0.9483918 -0.3129795
vn 0.5868545 0.7538735 -0.2954257
vn 0.5868545 0.7538735 -0.2954257
vn 0.5868545 0.7538735 -0.2954257
vn 0.5868545 0.7538735 -0.2954257
vn -0.15476039 0.72218215 -0.67416775
vn -0.1617664 0.6873993 -0.70803523
vn -0.1617664 0.6873993 -0.70803523
vn -0.15474121 0.7222726 -0.67407525
vn -0.14720245 0.7559904 -0.6378165
vn -0.14720245 0.7559904 -0.6378165
vn 0.46032956 0.629257 -0.6262047
vn 0.46032956 0.629257 -0.6262047
vn 0.46032956 0.629257 -0.6262047
vn 0.46032956 0.629257 -0.6262047
vn -0.7008705 0.61351126 -0.36384654
vn -0.7008705 0.61351126 -0.36384654
vn -0.7008705 0.61351126 -0.36384654
vn -0.7008705 0.61351126 -0.36384654
vn -0.65326405 0.7570323 -0.012171034
vn -0.65326405 0.7570323 -0.012171034
vn -0.65326405 0.7570323 -0.012171034
vn -0.65326405 0.7570323 -0.012171034
vn 0.49060345 0.8631478 0.119516045
vn 0.49060345 0.8631478 0.119516045
vn 0.49060345 0.8631478 0.119516045
vn 0.49060345 0.8631478 0.119516045
vn -0.06876641 0.9650766 -0.25278118
vn -0.06876641 0.9650766 -0.25278118
vn -0.06876641 0.9650766 -0.25278118
vn -0.06876641 0.9650766 -0.25278118
vn -0.42319465 0.85059845 0.31207153
vn -0.42319465 0.85059845 0.31207153
vn -0.42319465 0.85059845 0.31207153
vn -0.42319465 0.85059845 0.31207153
vn 0.0059882277 0.99493754 0.10031707
vn 0.0059882277 0.99493754 0.10031707
vn 0.0059882277 0.99493754 0.10031707
vn 0.0059882277 0.99493754 0.10031707
vn 0.4239553 -0.053671435 0.90409136
vn 0.49008033 -0.1545008 0.85787576
vn 0.4239553 -0.053671435 0.90409136
vn 0.48895612 -0.15269889 0.8588393
vn 0.5474661 -0.2517333 0.7980671
vn 0.5474661 -0.2517333 0.7980671
vn 0.06712415 0.9195663 0.3871592
vn 0.06712415 0.9195663 0.3871592
vn 0.06712415 0.9195663 0.3871592
vn 0.06712415 0.9195663 0.3871592
vn -0.4599692 -0.78543234 0.41415516
vn -0.4599692 -0.78543234 0.41415516
vn -0.4599692 -0.78543234 0.41415516
vn -0.4599692 -0.78543234 0.41415516
vn -0.66661346 -0.7294121 -0.15357241
vn -0.66661346 -0.7294121 -0.15357241
vn -0.66661346 -0.7294121 -0.15357241
vn -0.66661346 -0.7294121 -0.15357241
vn -0.8311909 0.22537372 0.50826013
vn -0.8311909 0.22537372 0.50826013
vn -0.8311909 0.22537372 0.50826013
vn -0.8311909 0.22537372 0.50826013
vn -0.8894508 -0.063321345 -0.45262316
vn -0.8894508 -0.063321345 -0.45262316
vn -0.8894508 -0.063321345 -0.45262316
vn -0.8894508 -0.063321345 -0.45262316
vn 0.5061134 0.12710862 0.85304904
vn 0.5061134 0.12710862 0.85304904
vn 0.5061134 0.12710862 0.85304904
vn 0.5061134 0.12710862 0.85304904
vn -0.5829045 -0.114293486 -0.80446225
vn -0.5829045 -0.114293486 -0.80446225
vn -0.5829045 -0.114293486 -0.80446225
vn -0.5829045 -0.114293486 -0.80446225
vn 0.482584 -0.85488206 -0.19049734
vn 0.482584 -0.85488206 -0.19049734
vn 0.482584 -0.85488206 -0.19049734
vn 0.482584 -0.85488206 -0.19049734
vn 0.0477638 0.14878625 0.9877152
vn 0.0477638 0.14878625 0.9877152
vn 0.0477638 0.14878625 0.9877152
vn 0.0477638 0.14878625 0.9877152
vn 0.6435601 -0.76407903 -0.04487376
vn 0.6435601 -0.76407903 -0.04487376
vn 0.6435601 -0.76407903 -0.04487376
vn 0.6435601 -0.76407903 -0.04487376
vn 0.44358328 -0.81284267 -0.37751895
vn 0.44358328 -0.81284267 -0.37751895
vn 0.44358328 -0.81284267 -0.37751895
vn 0.44358328 -0.81284267 -0.37751895
vn -0.45427087 -0.4781581 -0.7516667
vn -0.45427087 -0.4781581 -0.7516667
vn -0.45427087 -0.4781581 -0.7516667
vn -0.45427087 -0.4781581 -0.7516667
vn -0.72313076 -0.43658674 0.5352326
vn -0.7335042 -0.41499838 0.53828245
vn -0.7335042 -0.41499838 0.53828245
vn -0.72301835 -0.43681455 0.5351985
vn -0.71123016 -0.46004558 0.5315163
vn -0.71123016 -0.46004558 0.5315163
vn -0.8661478 -0.49978578 0.0014262508
vn -0.8661478 -0.49978578 0.0014262508
vn -0.8661478 -0.49978578 0.0014262508
vn -0.8661478 -0.49978578 0.0014262508
vn -0.284046 -0.37890562 0.8807658
vn -0.284046 -0.37890562 0.8807658
vn -0.284046 -0.37890562 0.8807658
vn -0.284046 -0.37890562 0.8807658
vn -0.04368787 -0.61824965 0.78476673
vn -0.04368787 -0.61824965 0.78476673
vn -0.04368787 -0.61824965 0.78476673
vn -0.04368787 -0.61824965 0.78476673
vn -0.29303917 -0.9491705 -0.11490631
vn -0.29303917 -0.9491705 -0.11490631
vn -0.29303917 -0.9491705 -0.11490631
vn -0.29303917 -0.9491705 -0.11490631
vn -0.66535395 -0.26512706 -0.6978624
vn -0.66535395 -0.26512706 -0.6978624
vn -0.66535395 -0.26512706 -0.6978624
vn -0.66535395 -0.26512706 -0.6978624
vn 0.10258725 -0.86176175 0.49683252
vn 0.10258725 -0.86176175 0.49683252
vn 0.10258725 -0.86176175 0.49683252
vn 0.10258725 -0.86176175 0.49683252
vn -0.17274399 -0.9523474 0.2513841
vn -0.17274399 -0.9523474 0.2513841
vn -0.0840218 -0.9768708 0.19663116
vn -0.08424808 -0.97682273 0.19677289
vn -0.0027766046 -0.9894192 0.14505811
vn -0.0027766046 -0.9894192 0.14505811
vn 0.6793304 0.6946465 0.23659335
vn 0.6793304 0.6946465 0.23659335
vn 0.6793304 0.6946465 0.23659335
vn 0.6793304 0.6946465 0.23659335
vn 0.74388117 0.3936689 -0.5400607
vn 0.76262295 0.34688228 -0.54596597
vn 0.76262295 0.34688228 -0.54596597
vn 0.74383074 0.39378726 -0.5400438
vn 0.72263515 0.44067255 -0.5325469
vn 0.72263515 0.44067255 -0.5325469
vn 0.8957034 0.4396755 0.0663401
vn 0.8957034 0.4396755 0.0663401
vn 0.8957034 0.4396755 0.0663401
vn 0.8957034 0.4396755 0.0663401
vn 0.23790368 0.30452532 -0.9223157
vn 0.23790368 0.30452532 -0.9223157
vn 0.23790368 0.30452532 -0.9223157
vn 0.23790368 0.30452532 -0.9223157
vn -0.018842818 0.5700394 -0.8214012
vn -0.018842818 0.5700394 -0.8214012
vn -0.018842818 0.5700394 -0.8214012
vn -0.018842818 0.5700394 -0.8214012
vn 0.30372375 0.92323804 0.23533696
vn 0.30372375 0.92323804 0.23533696
vn 0.30372375 0.92323804 0.23533696
vn 0.30372375 0.92323804 0.23533696
vn 0.46328518 0.7837866 -0.41357625
vn 0.46328518 0.7837866 -0.41357625
vn 0.46328518 0.7837866 -0.41357625
vn 0.46328518 0.7837866 -0.41357625
vn -0.20242165 0.81178814 -0.5477458
vn -0.20242165 0.81178814 -0.5477458
vn -0.20242165 0.81178814 -0.5477458
vn -0.20242165 0.81178814 -0.5477458
vn 0.18347786 0.9492697 -0.25538787
vn 0.18347786 0.9492697 -0.25538787
vn 0.18347786 0.9492697 -0.25538787
vn 0.18347786 0.9492697 -0.25538787
vn 0.057235952 0.99652416 0.06052789
vn 0.057235952 0.99652416 0.06052789
vn 0.057235952 0.99652416 0.06052789
vn 0.057235952 0.99652416 0.06052789
vn -0.07552989 0.99263614 -0.09470324
vn -0.07552989 0.99263614 -0.09470324
vn -0.07552989 0.99263614 -0.09470324
vn -0.07552989 0.99263614 -0.09470324
vn 0.00039217935 0.52830046 -0.8490575
vn 0.00039217935 0.52830046 -0.8490575
vn 0.00039217935 0.52830046 -0.8490575
vn 0.00039217935 0.52830046 -0.8490575
vn -0.00040911665 0.9888826 0.14869781
vn -0.00074227387 0.99499583 0.099914186
vn -0.00074227387 0.99499583 0.099914186
vn -0.00040822514 0.9888631 0.1488277
vn -8.042852E-05 0.98053694 0.19633509
vn -8.042852E-05 0.98053694 0.19633509
vn 0.6238897 0.712861 -0.320298
vn 0.6238897 0.712861 -0.320298
vn 0.6238897 0.712861 -0.320298
vn 0.6238897 0.712861 -0.320298
vn -0.0006674344 0.7566039 -0.6538732
vn -0.0006674344 0.7566039 -0.6538732
vn -0.0006674344 0.7566039 -0.6538732
vn -0.0006674344 0.7566039 -0.6538732
vn 0.46414617 0.5781094 -0.67108715
vn 0.46414617 0.5781094 -0.67108715
vn 0.46414617 0.5781094 -0.67108715
vn 0.46414617 0.5781094 -0.67108715
vn -0.6470132 0.7045795 -0.2914473
vn -0.6470132 0.7045795 -0.2914473
vn -0.6470132 0.7045795 -0.2914473
vn -0.6470132 0.7045795 -0.2914473
vn -0.46728757 0.5751939 -0.6714122
vn -0.46728757 0.5751939 -0.6714122
vn -0.46728757 0.5751939 -0.6714122
vn -0.46728757 0.5751939 -0.6714122
vn -0.0010030608 -0.93902665 0.34384292
vn -0.0010030608 -0.93902665 0.34384292
vn -0.0010030608 -0.93902665 0.34384292
vn -0.0010030608 -0.93902665 0.34384292
vn 0.59885937 0.7991794 0.05176724
vn 0.59885937 0.7991794 0.05176724
vn 0.59885937 0.7991794 0.05176724
vn 0.59885937 0.7991794 0.05176724
vn -0.5893675 0.80518645 0.065732025
vn -0.5893675 0.80518645 0.065732025
vn -0.5893675 0.80518645 0.065732025
vn -0.5893675 0.80518645 0.065732025
vn -0.0006297432 -0.67129356 0.7411913
vn -0.00030352344 -0.5907856 0.80682856
vn -0.00030352344 -0.5907856 0.80682856
vn -0.00062881096 -0.67107147 0.7413923
vn -0.0009765331 -0.7505655 0.6607953
vn -0.0009765331 -0.7505655 0.6607953
vn -0.0012829722 -0.99380636 -0.111118086
vn -0.0016763465 -0.9966125 -0.08222305
vn -0.0016763465 -0.9966125 -0.08222305
vn -0.0012794648 -0.99377763 -0.11137496
vn -0.0009109734 -0.9903922 -0.1382844
vn -0.0009109734 -0.9903922 -0.1382844
vn 0.97497344 -0.22060852 0.027546221
vn 0.97497344 -0.22060852 0.027546221
vn 0.97497344 -0.22060852 0.027546221
vn 0.97497344 -0.22060852 0.027546221
vn -0.3818908 -0.63327557 0.67314297
vn -0.3818908 -0.63327557 0.67314297
vn -0.3818908 -0.63327557 0.67314297
vn -0.3818908 -0.63327557 0.67314297
vn 0.59058994 -0.7466487 0.3061361
vn 0.59058994 -0.7466487 0.3061361
vn 0.59058994 -0.7466487 0.3061361
vn 0.59058994 -0.7466487 0.3061361
vn 0.38471818 -0.6311434 0.67353535
vn 0.38471818 -0.6311434 0.67353535
vn 0.38471818 -0.6311434 0.67353535
vn 0.38471818 -0.6311434 0.67353535
vn -0.96372175 -0.18098913 0.19617157
vn -0.97772706 -0.19855 0.06802707
vn -0.97772706 -0.19855 0.06802707
vn -0.96410775 -0.1813233 0.19395405
vn -0.9338164 -0.16060194 0.31967783
vn -0.9338164 -0.16060194 0.31967783
vn -0.5453613 -0.83810484 -0.01270252
vn -0.5453613 -0.83810484 -0.01270252
vn -0.5453613 -0.83810484 -0.01270252
vn -0.5453613 -0.83810484 -0.01270252
vn 0.53860754 -0.84222233 -0.023736577
vn 0.53860754 -0.84222233 -0.023736577
vn 0.53860754 -0.84222233 -0.023736577
vn 0.53860754 -0.84222233 -0.023736577
vn 0.932399 -0.15844883 0.324848
vn 0.932399 -0.15844883 0.324848
vn 0.932399 -0.15844883 0.324848
vn 0.932399 -0.15844883 0.324848
vn -0.5688745 -0.75183153 0.33336347
vn -0.5688745 -0.75183153 0.33336347
vn -0.5688745 -0.75183153 0.33336347
vn -0.5688745 -0.75183153 0.33336347
vn 0.1934625 0.0673475 0.97879344
vn 0.1934625 0.0673475 0.97879344
vn 0.1934625 0.0673475 0.97879344
vn 0.1934625 0.0673475 0.97879344
vn -0.24020599 0.057751764 0.9690025
vn -0.24020599 0.057751764 0.9690025
vn -0.24020599 0.057751764 0.9690025
vn -0.24020599 0.057751764 0.9690025
vn -0.86690634 -0.39275175 -0.30695194
vn -0.86690634 -0.39275175 -0.30695194
vn -0.86690634 -0.39275175 -0.30695194
vn -0.86690634 -0.39275175 -0.30695194
vn 5.2423802E-05 -0.023685342 0.99971944
vn 5.2423802E-05 -0.023685342 0.99971944
vn 5.2423802E-05 -0.023685342 0.99971944
vn 5.2423802E-05 -0.023685342 0.99971944
vn 0.99892646 -0.038028795 -0.026453547
vn 0.99892646 -0.038028795 -0.026453547
vn 0.99892646 -0.038028795 -0.026453547
vn 0.99892646 -0.038028795 -0.026453547
vn -0.9992894 -0.029719314 -0.023184644
vn -0.9992894 -0.029719314 -0.023184644
vn -0.9992894 -0.029719314 -0.023184644
vn -0.9992894 -0.029719314 -0.023184644
vn 0.8669051 -0.39536458 -0.30358258
vn 0.8669051 -0.39536458 -0.30358258
vn 0.8669051 -0.39536458 -0.30358258
vn 0.8669051 -0.39536458 -0.30358258
vn -0.00017636723 -0.70044494 -0.71370643
vn -0.00017636723 -0.70044494 -0.71370643
vn -0.00017636723 -0.70044494 -0.71370643
vn -0.00017636723 -0.70044494 -0.71370643
vn 0.92281854 -0.0066883815 0.38517678
vn 0.92281854 -0.0066883815 0.38517678
vn 0.92281854 -0.0066883815 0.38517678
vn 0.92281854 -0.0066883815 0.38517678
vn 0.91875905 -0.017707318 0.39442134
vn 0.91875905 -0.017707318 0.39442134
vn 0.91875905 -0.017707318 0.39442134
vn 0.91875905 -0.017707318 0.39442134
vn 0.9201794 0.026553638 0.3905953
vn 0.9201794 0.026553638 0.3905953
vn 0.9201794 0.026553638 0.3905953
vn 0.9201794 0.026553638 0.3905953
vn 0.92203885 0.07138763 0.380458
vn 0.92203885 0.07138763 0.380458
vn 0.92203885 0.07138763 0.380458
vn 0.92203885 0.07138763 0.380458
vn 0.91740286 0.2067013 0.34006828
vn 0.91740286 0.2067013 0.34006828
vn 0.91740286 0.2067013 0.34006828
vn 0.91740286 0.2067013 0.34006828
vn 0.36804453 0.26081136 -0.89248
vn 0.36804453 0.26081136 -0.89248
vn 0.36804453 0.26081136 -0.89248
vn 0.36804453 0.26081136 -0.89248
vn 0.37682226 0.1365439 -0.91616637
vn 0.37682226 0.1365439 -0.91616637
vn 0.37682226 0.1365439 -0.91616637
vn 0.37682226 0.1365439 -0.91616637
vn 0.37895694 0.044028748 -0.92436624
vn 0.37895694 0.044028748 -0.92436624
vn 0.37895694 0.044028748 -0.92436624
vn 0.37895694 0.044028748 -0.92436624
vn 0.38130045 -0.083236724 -0.92069626
vn 0.38130045 -0.083236724 -0.92069626
vn 0.38130045 -0.083236724 -0.92069626
vn 0.38130045 -0.083236724 -0.92069626
vn 0.3772176 -0.041252047 -0.9252055
vn 0.3772176 -0.041252047 -0.9252055
vn 0.3772176 -0.041252047 -0.9252055
vn 0.3772176 -0.041252047 -0.9252055
vn -0.36804527 0.26081142 -0.89247984
vn -0.36804527 0.26081142 -0.89247984
vn -0.36804527 0.26081142 -0.89247984
vn -0.36804527 0.26081142 -0.89247984
vn -0.37682307 0.13654369 -0.91616595
vn -0.37682307 0.13654369 -0.91616595
vn -0.37682307 0.13654369 -0.91616595
vn -0.37682307 0.13654369 -0.91616595
vn -0.3789569 0.04402878 -0.92436635
vn -0.3789569 0.04402878 -0.92436635
vn -0.3789569 0.04402878 -0.92436635
vn -0.3789569 0.04402878 -0.92436635
vn -0.3813004 -0.08323673 -0.92069626
vn -0.3813004 -0.08323673 -0.92069626
vn -0.3813004 -0.08323673 -0.92069626
vn -0.3813004 -0.08323673 -0.92069626
vn -0.3772176 -0.041252058 -0.9252055
vn -0.3772176 -0.041252058 -0.9252055
vn -0.3772176 -0.041252058 -0.9252055
vn -0.3772176 -0.041252058 -0.9252055
vn -0.92281854 -0.006688424 0.3851769
vn -0.92281854 -0.006688424 0.3851769
vn -0.92281854 -0.006688424 0.3851769
vn -0.92281854 -0.006688424 0.3851769
vn -0.9187588 -0.017707504 0.39442185
vn -0.9187588 -0.017707504 0.39442185
vn -0.9187588 -0.017707504 0.39442185
vn -0.9187588 -0.017707504 0.39442185
vn -0.92017996 0.026553748 0.39059412
vn -0.92017996 0.026553748 0.39059412
vn -0.92017996 0.026553748 0.39059412
vn -0.92017996 0.026553748 0.39059412
vn -0.9220393 0.07138746 0.3804569
vn -0.9220393 0.07138746 0.3804569
vn -0.9220393 0.07138746 0.3804569
vn -0.9220393 0.07138746 0.3804569
vn -0.91740274 0.2067014 0.3400686
vn -0.91740274 0.2067014 0.3400686
vn -0.91740274 0.2067014 0.3400686
vn -0.91740274 0.2067014 0.3400686
vn 0.3784496 -0.1165372 0.91825646
vn 0.3784496 -0.1165372 0.91825646
vn 0.3784496 -0.1165372 0.91825646
vn 0.3784496 -0.1165372 0.91825646
vn 0.3741897 -0.0798365 0.9239091
vn 0.3741897 -0.0798365 0.9239091
vn 0.3741897 -0.0798365 0.9239091
vn 0.3741897 -0.0798365 0.9239091
vn 0.37695935 0.019979179 0.9260143
vn 0.37695935 0.019979179 0.9260143
vn 0.37695935 0.019979179 0.9260143
vn 0.37695935 0.019979179 0.9260143
vn 0.3809441 0.13358332 0.91489726
vn 0.3809441 0.13358332 0.91489726
vn 0.3809441 0.13358332 0.91489726
vn 0.3809441 0.13358332 0.91489726
vn 0.38197315 0.3113584 0.870145
vn 0.38197315 0.3113584 0.870145
vn 0.38197315 0.3113584 0.870145
vn 0.38197315 0.3113584 0.870145
vn 0.91278726 0.15262838 -0.37884578
vn 0.91278726 0.15262838 -0.37884578
vn 0.91278726 0.15262838 -0.37884578
vn 0.91278726 0.15262838 -0.37884578
vn 0.92225194 0.073466234 -0.37954444
vn 0.92225194 0.073466234 -0.37954444
vn 0.92225194 0.073466234 -0.37954444
vn 0.92225194 0.073466234 -0.37954444
vn 0.92269117 0.036617633 -0.38379705
vn 0.92269117 0.036617633 -0.38379705
vn 0.92269117 0.036617633 -0.38379705
vn 0.92269117 0.036617633 -0.38379705
vn 0.9233348 -0.018959936 -0.38352767
vn 0.9233348 -0.018959936 -0.38352767
vn 0.9233348 -0.018959936 -0.38352767
vn 0.9233348 -0.018959936 -0.38352767
vn 0.91253185 0.060504872 -0.40450546
vn 0.91253185 0.060504872 -0.40450546
vn 0.91253185 0.060504872 -0.40450546
vn 0.91253185 0.060504872 -0.40450546
vn -0.91278714 0.15262856 -0.37884578
vn -0.91278714 0.15262856 -0.37884578
vn -0.91278714 0.15262856 -0.37884578
vn -0.91278714 0.15262856 -0.37884578
vn -0.92225224 0.073466234 -0.37954384
vn -0.92225224 0.073466234 -0.37954384
vn -0.92225224 0.073466234 -0.37954384
vn -0.92225224 0.073466234 -0.37954384
vn -0.92269135 0.03661752 -0.3837965
vn -0.92269135 0.03661752 -0.3837965
vn -0.92269135 0.03661752 -0.3837965
vn -0.92269135 0.03661752 -0.3837965
vn -0.9233348 -0.018959954 -0.38352752
vn -0.9233348 -0.018959954 -0.38352752
vn -0.9233348 -0.018959954 -0.38352752
vn -0.9233348 -0.018959954 -0.38352752
vn -0.91253185 0.06050483 -0.40450552
vn -0.91253185 0.06050483 -0.40450552
vn -0.91253185 0.06050483 -0.40450552
vn -0.91253185 0.06050483 -0.40450552
vn -0.37844968 -0.11653719 0.91825646
vn -0.37844968 -0.11653719 0.91825646
vn -0.37844968 -0.11653719 0.91825646
vn -0.37844968 -0.11653719 0.91825646
vn -0.3741896 -0.07983648 0.92390925
vn -0.3741896 -0.07983648 0.92390925
vn -0.3741896 -0.07983648 0.92390925
vn -0.3741896 -0.07983648 0.92390925
vn -0.37695783 0.019979551 0.9260149
vn -0.37695783 0.019979551 0.9260149
vn -0.37695783 0.019979551 0.9260149
vn -0.37695783 0.019979551 0.9260149
vn -0.38094273 0.13358325 0.91489786
vn -0.38094273 0.13358325 0.91489786
vn -0.38094273 0.13358325 0.91489786
vn -0.38094273 0.13358325 0.91489786
vn -0.38197288 0.31135842 0.8701452
vn -0.38197288 0.31135842 0.8701452
vn -0.38197288 0.31135842 0.8701452
vn -0.38197288 0.31135842 0.8701452
vn -0.5097621 0.8316958 -0.22005633
vn -0.5097621 0.8316958 -0.22005633
vn -0.5097621 0.8316958 -0.22005633
vn -0.5097621 0.8316958 -0.22005633
vn 0.47913128 0.8385966 0.2592083
vn 0.4409449 0.8643091 0.2419451
vn 0.4409449 0.8643091 0.2419451
vn 0.47923186 0.8385251 0.25925365
vn 0.5155649 0.81132555 0.2755786
vn 0.5155649 0.81132555 0.2755786
vn 0.26431787 0.79930806 -0.53966904
vn 0.26431787 0.79930806 -0.53966904
vn 0.26431787 0.79930806 -0.53966904
vn 0.26431787 0.79930806 -0.53966904
vn -0.2668631 0.95880777 -0.097323775
vn -0.2668631 0.95880777 -0.097323775
vn -0.2668631 0.95880777 -0.097323775
vn -0.2668631 0.95880777 -0.097323775
vn -0.14318389 0.8169685 -0.55862415
vn -0.14318389 0.8169685 -0.55862415
vn -0.14318389 0.8169685 -0.55862415
vn -0.14318389 0.8169685 -0.55862415
vn -0.26786727 0.7429139 0.61345416
vn -0.26786727 0.7429139 0.61345416
vn -0.26786727 0.7429139 0.61345416
vn -0.26786727 0.7429139 0.61345416
vn -0.5497926 0.7873801 0.278856
vn -0.5497926 0.7873801 0.278856
vn -0.5497926 0.7873801 0.278856
vn -0.5497926 0.7873801 0.278856
vn -0.055422638 -0.99678385 -0.057881456
vn -0.055422638 -0.99678385 -0.057881456
vn -0.055422638 -0.99678385 -0.057881456
vn -0.055422638 -0.99678385 -0.057881456
vn 0.59150517 0.72340274 -0.35610414
vn 0.59150517 0.72340274 -0.35610414
vn 0.59150517 0.72340274 -0.35610414
vn 0.59150517 0.72340274 -0.35610414
vn 0.08816692 0.68856835 0.71979177
vn 0.08816692 0.68856835 0.71979177
vn 0.08816692 0.68856835 0.71979177
vn 0.08816692 0.68856835 0.71979177
vn 0.36909822 -0.9172802 0.14954503
vn 0.45242462 -0.87111676 0.19096486
vn 0.45242462 -0.87111676 0.19096486
vn 0.36934426 -0.9171612 0.1496668
vn 0.27403238 -0.9562206 0.10270492
vn 0.27403238 -0.9562206 0.10270492
vn -0.45064113 -0.8586556 -0.24419925
vn -0.42798626 -0.8731607 -0.23327671
vn -0.42798626 -0.8731607 -0.23327671
vn -0.4508411 -0.85852313 -0.24429555
vn -0.47165966 -0.84431183 -0.2543121
vn -0.47165966 -0.84431183 -0.2543121
vn 0.36739668 -0.18383987 -0.91171414
vn 0.36739668 -0.18383987 -0.91171414
vn 0.36739668 -0.18383987 -0.91171414
vn 0.36739668 -0.18383987 -0.91171414
vn 0.1607776 -0.865638 0.47415328
vn 0.1607776 -0.865638 0.47415328
vn 0.1607776 -0.865638 0.47415328
vn 0.1607776 -0.865638 0.47415328
vn 0.2402619 -0.7889131 -0.56558853
vn 0.2402619 -0.7889131 -0.56558853
vn 0.2402619 -0.7889131 -0.56558853
vn 0.2402619 -0.7889131 -0.56558853
vn 0.4954372 -0.8415807 -0.2151368
vn 0.4954372 -0.8415807 -0.2151368
vn 0.4954372 -0.8415807 -0.2151368
vn 0.4954372 -0.8415807 -0.2151368
vn -0.32277092 -0.27380064 0.9060089
vn -0.44091564 -0.2372405 0.8656272
vn -0.44091564 -0.2372405 0.8656272
vn -0.32488874 -0.27319974 0.90543324
vn -0.20051484 -0.30540967 0.9308698
vn -0.20051484 -0.30540967 0.9308698
vn -0.55003726 -0.7734193 0.31508976
vn -0.55003726 -0.7734193 0.31508976
vn -0.55003726 -0.7734193 0.31508976
vn -0.55003726 -0.7734193 0.31508976
vn -0.08896312 -0.741105 -0.66546893
vn -0.08896312 -0.741105 -0.66546893
vn -0.08896312 -0.741105 -0.66546893
vn -0.08896312 -0.741105 -0.66546893
vn 0.6165598 -0.25134912 -0.7461083
vn 0.6165598 -0.25134912 -0.7461083
vn 0.6165598 -0.25134912 -0.7461083
vn 0.6165598 -0.25134912 -0.7461083
vn -0.24365567 -0.8385776 0.48725712
vn -0.24365567 -0.8385776 0.48725712
vn -0.24365567 -0.8385776 0.48725712
vn -0.24365567 -0.8385776 0.48725712
vn 0.9159601 -0.33752942 0.21700439
vn 0.9159601 -0.33752942 0.21700439
vn 0.9159601 -0.33752942 0.21700439
vn 0.9159601 -0.33752942 0.21700439
vn 0.7157219 -0.35481927 0.60153586
vn 0.7157219 -0.35481927 0.60153586
vn 0.7157219 -0.35481927 0.60153586
vn 0.7157219 -0.35481927 0.60153586
vn -0.77208614 -0.2558274 0.5817518
vn -0.77208614 -0.2558274 0.5817518
vn -0.77208614 -0.2558274 0.5817518
vn -0.77208614 -0.2558274 0.5817518
vn 0.8162348 -0.43465474 0.38057327
vn 0.8162348 -0.43465474 0.38057327
vn 0.8162348 -0.43465474 0.38057327
vn 0.8162348 -0.43465474 0.38057327
vn 0.39911723 0.005349138 -0.91688424
vn 0.39911723 0.005349138 -0.91688424
vn 0.39911723 0.005349138 -0.91688424
vn 0.39911723 0.005349138 -0.91688424
vn -0.00060092227 0.9399827 -0.34122148
vn -0.00060092227 0.9399827 -0.34122148
vn -0.00060092227 0.9399827 -0.34122148
vn -0.00060092227 0.9399827 -0.34122148
vn -0.46465912 -0.046510812 0.88426733
vn -0.46465912 -0.046510812 0.88426733
vn -0.46465912 -0.046510812 0.88426733
vn -0.46465912 -0.046510812 0.88426733
vn -0.015826967 -0.20921154 -0.9777424
vn -0.015826967 -0.20921154 -0.9777424
vn -0.015826967 -0.20921154 -0.9777424
vn -0.015826967 -0.20921154 -0.9777424
vn -0.84148854 -0.3426142 -0.41774708
vn -0.84148854 -0.3426142 -0.41774708
vn -0.84148854 -0.3426142 -0.41774708
vn -0.84148854 -0.3426142 -0.41774708
vn -0 -0.9887034 0.14988543
vn -0 -0.97049797 0.24110922
vn 0.06636282 -0.9818293 0.17778416
vn -0.06636403 -0.9818293 0.17778422
vn 0.09565254 -0.9657755 0.24109831
vn -0.09565314 -0.9657754 0.24109831
vn 0.07000819 -0.9507984 0.3017969
vn -0.070009366 -0.9507983 0.30179682
vn -0 -0.9449768 0.32713747
vn 0.06824099 -0.99517727 0.070465736
vn -0 -0.99021846 0.1395258
vn 0.09745432 -0.9854371 0.13934283
vn -0 -0.9991479 0.04127386
vn 0.06984199 -0.97584075 0.20701905
vn -0.068239994 -0.99517727 0.070465714
vn -0 -0.97199064 0.23501913
vn -0.097453296 -0.9854371 0.13934396
vn -0.06984292 -0.9758405 0.20702012
vn 0.068350084 -0.9871464 0.14446554
vn -0 -0.9970196 0.0771486
vn -0 -0.98483 0.17352152
vn 0.09644995 -0.9924521 0.07573808
vn -0.06835127 -0.9871458 0.1444692
vn 0.06834277 -0.9976271 0.008340083
vn -0.096447006 -0.9924522 0.075740166
vn -0 -0.99981195 -0.01939694
vn -0.06834094 -0.9976272 0.008338502
vn 0.06827938 -0.9975235 -0.016872462
vn -0 -0.9988238 0.048487235
vn 0.09493938 -0.9944253 0.04587884
vn -0 -0.99909246 -0.042594567
vn 0.06709841 -0.99142843 0.11210454
vn -0.068279974 -0.9975235 -0.016875168
vn -0 -0.9899682 0.14129089
vn -0.09493758 -0.99442554 0.045877162
vn -0.067097306 -0.99142843 0.112105675
g city_Palmtree01_0
f 3/3/3 2/2/2 1/1/1
f 4/4/4 3/3/3 1/1/1
f 7/7/7 6/6/6 5/5/5
f 8/8/8 7/7/7 5/5/5
f 11/11/11 10/10/10 9/9/9
f 12/12/12 11/11/11 9/9/9
f 15/15/15 14/14/14 13/13/13
f 16/16/16 15/15/15 13/13/13
f 19/19/19 18/18/18 17/17/17
f 20/20/20 19/19/19 17/17/17
f 23/23/23 22/22/22 21/21/21
f 24/24/24 23/23/23 21/21/21
f 27/27/27 26/26/26 25/25/25
f 28/28/28 27/27/27 25/25/25
f 31/31/31 30/30/30 29/29/29
f 32/32/32 31/31/31 29/29/29
f 35/35/35 34/34/34 33/33/33
f 36/36/36 35/35/35 33/33/33
f 39/39/39 38/38/38 37/37/37
f 40/40/40 39/39/39 37/37/37
f 40/40/40 37/37/37 41/41/41
f 42/42/42 40/40/40 41/41/41
f 45/45/45 44/44/44 43/43/43
f 46/46/46 45/45/45 43/43/43
f 49/49/49 48/48/48 47/47/47
f 50/50/50 49/49/49 47/47/47
f 53/53/53 52/52/52 51/51/51
f 52/52/52 54/54/54 51/51/51
f 55/55/55 51/51/51 54/54/54
f 56/56/56 55/55/55 54/54/54
f 59/59/59 58/58/58 57/57/57
f 60/60/60 59/59/59 57/57/57
f 63/63/63 62/62/62 61/61/61
f 64/64/64 63/63/63 61/61/61
f 67/67/67 66/66/66 65/65/65
f 68/68/68 67/67/67 65/65/65
f 71/71/71 70/70/70 69/69/69
f 72/72/72 71/71/71 69/69/69
f 75/75/75 74/74/74 73/73/73
f 76/76/76 75/75/75 73/73/73
f 79/79/79 78/78/78 77/77/77
f 80/80/80 79/79/79 77/77/77
f 83/83/83 82/82/82 81/81/81
f 84/84/84 83/83/83 81/81/81
f 85/85/85 83/83/83 84/84/84
f 86/86/86 85/85/85 84/84/84
f 89/89/89 88/88/88 87/87/87
f 90/90/90 89/89/89 87/87/87
f 93/93/93 92/92/92 91/91/91
f 94/94/94 93/93/93 91/91/91
f 91/91/91 95/95/95 94/94/94
f 95/95/95 96/96/96 94/94/94
f 99/99/99 98/98/98 97/97/97
f 100/100/100 99/99/99 97/97/97
f 103/103/103 102/102/102 101/101/101
f 104/104/104 103/103/103 101/101/101
f 107/107/107 106/106/106 105/105/105
f 108/108/108 107/107/107 105/105/105
f 111/111/111 110/110/110 109/109/109
f 112/112/112 111/111/111 109/109/109
f 115/115/115 114/114/114 113/113/113
f 116/116/116 115/115/115 113/113/113
f 119/119/119 118/118/118 117/117/117
f 120/120/120 119/119/119 117/117/117
f 123/123/123 122/122/122 121/121/121
f 124/124/124 123/123/123 121/121/121
f 127/127/127 126/126/126 125/125/125
f 128/128/128 127/127/127 125/125/125
f 131/131/131 130/130/130 129/129/129
f 132/132/132 131/131/131 129/129/129
f 135/135/135 134/134/134 133/133/133
f 136/136/136 135/135/135 133/133/133
f 139/139/139 138/138/138 137/137/137
f 140/140/140 139/139/139 137/137/137
f 143/143/143 142/142/142 141/141/141
f 144/144/144 143/143/143 141/141/141
f 147/147/147 146/146/146 145/145/145
f 148/148/148 147/147/147 145/145/145
f 151/151/151 150/150/150 149/149/149
f 152/152/152 151/151/151 149/149/149
f 155/155/155 154/154/154 153/153/153
f 156/156/156 155/155/155 153/153/153
f 159/159/159 158/158/158 157/157/157
f 160/160/160 159/159/159 157/157/157
f 163/163/163 162/162/162 161/161/161
f 164/164/164 163/163/163 161/161/161
f 167/167/167 166/166/166 165/165/165
f 168/168/168 167/167/167 165/165/165
f 168/168/168 165/165/165 169/169/169
f 170/170/170 168/168/168 169/169/169
f 173/173/173 172/172/172 171/171/171
f 174/174/174 173/173/173 171/171/171
f 177/177/177 176/176/176 175/175/175
f 178/178/178 177/177/177 175/175/175
f 181/181/181 180/180/180 179/179/179
f 180/180/180 182/182/182 179/179/179
f 183/183/183 179/179/179 182/182/182
f 184/184/184 183/183/183 182/182/182
f 187/187/187 186/186/186 185/185/185
f 188/188/188 187/187/187 185/185/185
f 191/191/191 190/190/190 189/189/189
f 192/192/192 191/191/191 189/189/189
f 195/195/195 194/194/194 193/193/193
f 196/196/196 195/195/195 193/193/193
f 199/199/199 198/198/198 197/197/197
f 200/200/200 199/199/199 197/197/197
f 203/203/203 202/202/202 201/201/201
f 204/204/204 203/203/203 201/201/201
f 207/207/207 206/206/206 205/205/205
f 208/208/208 207/207/207 205/205/205
f 211/211/211 210/210/210 209/209/209
f 212/212/212 211/211/211 209/209/209
f 213/213/213 211/211/211 212/212/212
f 214/214/214 213/213/213 212/212/212
f 217/217/217 216/216/216 215/215/215
f 218/218/218 217/217/217 215/215/215
f 221/221/221 220/220/220 219/219/219
f 222/222/222 221/221/221 219/219/219
f 219/219/219 223/223/223 222/222/222
f 223/223/223 224/224/224 222/222/222
f 227/227/227 226/226/226 225/225/225
f 228/228/228 227/227/227 225/225/225
f 231/231/231 230/230/230 229/229/229
f 232/232/232 231/231/231 229/229/229
f 235/235/235 234/234/234 233/233/233
f 236/236/236 235/235/235 233/233/233
f 239/239/239 238/238/238 237/237/237
f 240/240/240 239/239/239 237/237/237
f 243/243/243 242/242/242 241/241/241
f 244/244/244 243/243/243 241/241/241
f 247/247/247 246/246/246 245/245/245
f 248/248/248 247/247/247 245/245/245
f 251/251/251 250/250/250 249/249/249
f 252/252/252 251/251/251 249/249/249
f 255/255/255 254/254/254 253/253/253
f 254/254/254 256/256/256 253/253/253
f 254/254/254 257/257/257 256/256/256
f 257/257/257 258/258/258 256/256/256
f 261/261/261 260/260/260 259/259/259
f 262/262/262 261/261/261 259/259/259
f 265/265/265 264/264/264 263/263/263
f 266/266/266 265/265/265 263/263/263
f 269/269/269 268/268/268 267/267/267
f 270/270/270 269/269/269 267/267/267
f 273/273/273 272/272/272 271/271/271
f 274/274/274 273/273/273 271/271/271
f 277/277/277 276/276/276 275/275/275
f 278/278/278 277/277/277 275/275/275
f 281/281/281 280/280/280 279/279/279
f 282/282/282 281/281/281 279/279/279
f 285/285/285 284/284/284 283/283/283
f 286/286/286 285/285/285 283/283/283
f 289/289/289 288/288/288 287/287/287
f 290/290/290 289/289/289 287/287/287
f 293/293/293 292/292/292 291/291/291
f 294/294/294 293/293/293 291/291/291
f 297/297/297 296/296/296 295/295/295
f 298/298/298 297/297/297 295/295/295
f 301/301/301 300/300/300 299/299/299
f 302/302/302 301/301/301 299/299/299
f 305/305/305 304/304/304 303/303/303
f 306/306/306 305/305/305 303/303/303
f 309/309/309 308/308/308 307/307/307
f 308/308/308 310/310/310 307/307/307
f 311/311/311 307/307/307 310/310/310
f 312/312/312 311/311/311 310/310/310
f 315/315/315 314/314/314 313/313/313
f 316/316/316 315/315/315 313/313/313
f 319/319/319 318/318/318 317/317/317
f 320/320/320 319/319/319 317/317/317
f 323/323/323 322/322/322 321/321/321
f 324/324/324 323/323/323 321/321/321
f 327/327/327 326/326/326 325/325/325
f 328/328/328 327/327/327 325/325/325
f 331/331/331 330/330/330 329/329/329
f 332/332/332 331/331/331 329/329/329
f 335/335/335 334/334/334 333/333/333
f 336/336/336 335/335/335 333/333/333
f 339/339/339 338/338/338 337/337/337
f 340/340/340 339/339/339 337/337/337
f 341/341/341 339/339/339 340/340/340
f 342/342/342 341/341/341 340/340/340
f 345/345/345 344/344/344 343/343/343
f 346/346/346 345/345/345 343/343/343
f 349/349/349 348/348/348 347/347/347
f 350/350/350 349/349/349 347/347/347
f 347/347/347 351/351/351 350/350/350
f 351/351/351 352/352/352 350/350/350
f 355/355/355 354/354/354 353/353/353
f 356/356/356 355/355/355 353/353/353
f 359/359/359 358/358/358 357/357/357
f 360/360/360 359/359/359 357/357/357
f 363/363/363 362/362/362 361/361/361
f 364/364/364 363/363/363 361/361/361
f 367/367/367 366/366/366 365/365/365
f 368/368/368 367/367/367 365/365/365
f 371/371/371 370/370/370 369/369/369
f 372/372/372 371/371/371 369/369/369
f 375/375/375 374/374/374 373/373/373
f 376/376/376 375/375/375 373/373/373
f 379/379/379 378/378/378 377/377/377
f 380/380/380 379/379/379 377/377/377
f 383/383/383 382/382/382 381/381/381
f 384/384/384 383/383/383 381/381/381
f 387/387/387 386/386/386 385/385/385
f 388/388/388 387/387/387 385/385/385
f 391/391/391 390/390/390 389/389/389
f 392/392/392 391/391/391 389/389/389
f 395/395/395 394/394/394 393/393/393
f 396/396/396 395/395/395 393/393/393
f 393/393/393 397/397/397 396/396/396
f 397/397/397 398/398/398 396/396/396
f 401/401/401 400/400/400 399/399/399
f 402/402/402 401/401/401 399/399/399
f 405/405/405 404/404/404 403/403/403
f 406/406/406 405/405/405 403/403/403
f 409/409/409 408/408/408 407/407/407
f 410/410/410 409/409/409 407/407/407
f 413/413/413 412/412/412 411/411/411
f 414/414/414 413/413/413 411/411/411
f 417/417/417 416/416/416 415/415/415
f 418/418/418 417/417/417 415/415/415
f 421/421/421 420/420/420 419/419/419
f 422/422/422 421/421/421 419/419/419
f 425/425/425 424/424/424 423/423/423
f 426/426/426 425/425/425 423/423/423
f 429/429/429 428/428/428 427/427/427
f 430/430/430 429/429/429 427/427/427
f 433/433/433 432/432/432 431/431/431
f 432/432/432 434/434/434 431/431/431
f 431/431/431 434/434/434 435/435/435
f 434/434/434 436/436/436 435/435/435
f 439/439/439 438/438/438 437/437/437
f 438/438/438 440/440/440 437/437/437
f 441/441/441 437/437/437 440/440/440
f 442/442/442 441/441/441 440/440/440
f 445/445/445 444/444/444 443/443/443
f 446/446/446 445/445/445 443/443/443
f 449/449/449 448/448/448 447/447/447
f 450/450/450 449/449/449 447/447/447
f 453/453/453 452/452/452 451/451/451
f 454/454/454 453/453/453 451/451/451
f 457/457/457 456/456/456 455/455/455
f 458/458/458 457/457/457 455/455/455
f 461/461/461 460/460/460 459/459/459
f 462/462/462 461/461/461 459/459/459
f 459/459/459 463/463/463 462/462/462
f 463/463/463 464/464/464 462/462/462
f 467/467/467 466/466/466 465/465/465
f 468/468/468 467/467/467 465/465/465
f 471/471/471 470/470/470 469/469/469
f 472/472/472 471/471/471 469/469/469
f 475/475/475 474/474/474 473/473/473
f 476/476/476 475/475/475 473/473/473
f 479/479/479 478/478/478 477/477/477
f 480/480/480 479/479/479 477/477/477
f 483/483/483 482/482/482 481/481/481
f 484/484/484 483/483/483 481/481/481
f 487/487/487 486/486/486 485/485/485
f 488/488/488 487/487/487 485/485/485
f 491/491/491 490/490/490 489/489/489
f 492/492/492 491/491/491 489/489/489
f 495/495/495 494/494/494 493/493/493
f 496/496/496 495/495/495 493/493/493
f 499/499/499 498/498/498 497/497/497
f 500/500/500 499/499/499 497/497/497
f 503/503/503 502/502/502 501/501/501
f 504/504/504 503/503/503 501/501/501
f 507/507/507 506/506/506 505/505/505
f 508/508/508 507/507/507 505/505/505
f 511/511/511 510/510/510 509/509/509
f 512/512/512 511/511/511 509/509/509
f 515/515/515 514/514/514 513/513/513
f 516/516/516 515/515/515 513/513/513
f 519/519/519 518/518/518 517/517/517
f 520/520/520 519/519/519 517/517/517
f 523/523/523 522/522/522 521/521/521
f 524/524/524 523/523/523 521/521/521
f 527/527/527 526/526/526 525/525/525
f 528/528/528 527/527/527 525/525/525
f 531/531/531 530/530/530 529/529/529
f 532/532/532 531/531/531 529/529/529
f 535/535/535 534/534/534 533/533/533
f 536/536/536 535/535/535 533/533/533
f 539/539/539 538/538/538 537/537/537
f 540/540/540 539/539/539 537/537/537
f 543/543/543 542/542/542 541/541/541
f 544/544/544 543/543/543 541/541/541
f 547/547/547 546/546/546 545/545/545
f 548/548/548 547/547/547 545/545/545
f 551/551/551 550/550/550 549/549/549
f 552/552/552 551/551/551 549/549/549
f 555/555/555 554/554/554 553/553/553
f 556/556/556 555/555/555 553/553/553
f 559/559/559 558/558/558 557/557/557
f 560/560/560 559/559/559 557/557/557
f 563/563/563 562/562/562 561/561/561
f 564/564/564 563/563/563 561/561/561
f 567/567/567 566/566/566 565/565/565
f 568/568/568 567/567/567 565/565/565
f 571/571/571 570/570/570 569/569/569
f 572/572/572 571/571/571 569/569/569
f 575/575/575 574/574/574 573/573/573
f 576/576/576 575/575/575 573/573/573
f 579/579/579 578/578/578 577/577/577
f 580/580/580 579/579/579 577/577/577
f 583/583/583 582/582/582 581/581/581
f 584/584/584 583/583/583 581/581/581
f 587/587/587 586/586/586 585/585/585
f 588/588/588 587/587/587 585/585/585
f 591/591/591 590/590/590 589/589/589
f 592/592/592 591/591/591 589/589/589
f 595/595/595 594/594/594 593/593/593
f 596/596/596 595/595/595 593/593/593
f 599/599/599 598/598/598 597/597/597
f 600/600/600 599/599/599 597/597/597
f 603/603/603 602/602/602 601/601/601
f 604/604/604 603/603/603 601/601/601
f 607/607/607 606/606/606 605/605/605
f 608/608/608 607/607/607 605/605/605
f 611/611/611 610/610/610 609/609/609
f 612/612/612 611/611/611 609/609/609
f 615/615/615 614/614/614 613/613/613
f 616/616/616 615/615/615 613/613/613
f 619/619/619 618/618/618 617/617/617
f 620/620/620 619/619/619 617/617/617
f 623/623/623 622/622/622 621/621/621
f 624/624/624 623/623/623 621/621/621
f 627/627/627 626/626/626 625/625/625
f 628/628/628 627/627/627 625/625/625
f 631/631/631 630/630/630 629/629/629
f 632/632/632 631/631/631 629/629/629
f 635/635/635 634/634/634 633/633/633
f 636/636/636 635/635/635 633/633/633
f 639/639/639 638/638/638 637/637/637
f 640/640/640 639/639/639 637/637/637
f 643/643/643 642/642/642 641/641/641
f 644/644/644 643/643/643 641/641/641
f 647/647/647 646/646/646 645/645/645
f 648/648/648 647/647/647 645/645/645
f 651/651/651 650/650/650 649/649/649
f 652/652/652 651/651/651 649/649/649
f 655/655/655 654/654/654 653/653/653
f 656/656/656 655/655/655 653/653/653
f 659/659/659 658/658/658 657/657/657
f 660/660/660 659/659/659 657/657/657
f 663/663/663 662/662/662 661/661/661
f 664/664/664 663/663/663 661/661/661
f 667/667/667 666/666/666 665/665/665
f 668/668/668 667/667/667 665/665/665
f 671/671/671 670/670/670 669/669/669
f 672/672/672 671/671/671 669/669/669
f 675/675/675 674/674/674 673/673/673
f 676/676/676 675/675/675 673/673/673
f 679/679/679 678/678/678 677/677/677
f 680/680/680 679/679/679 677/677/677
f 677/677/677 681/681/681 680/680/680
f 681/681/681 682/682/682 680/680/680
f 685/685/685 684/684/684 683/683/683
f 686/686/686 685/685/685 683/683/683
f 689/689/689 688/688/688 687/687/687
f 690/690/690 689/689/689 687/687/687
f 693/693/693 692/692/692 691/691/691
f 694/694/694 693/693/693 691/691/691
f 697/697/697 696/696/696 695/695/695
f 698/698/698 697/697/697 695/695/695
f 701/701/701 700/700/700 699/699/699
f 702/702/702 701/701/701 699/699/699
f 705/705/705 704/704/704 703/703/703
f 706/706/706 705/705/705 703/703/703
f 709/709/709 708/708/708 707/707/707
f 710/710/710 709/709/709 707/707/707
f 713/713/713 712/712/712 711/711/711
f 714/714/714 713/713/713 711/711/711
f 717/717/717 716/716/716 715/715/715
f 716/716/716 718/718/718 715/715/715
f 715/715/715 718/718/718 719/719/719
f 718/718/718 720/720/720 719/719/719
f 723/723/723 722/722/722 721/721/721
f 722/722/722 724/724/724 721/721/721
f 725/725/725 721/721/721 724/724/724
f 726/726/726 725/725/725 724/724/724
f 729/729/729 728/728/728 727/727/727
f 730/730/730 729/729/729 727/727/727
f 733/733/733 732/732/732 731/731/731
f 734/734/734 733/733/733 731/731/731
f 737/737/737 736/736/736 735/735/735
f 738/738/738 737/737/737 735/735/735
f 741/741/741 740/740/740 739/739/739
f 742/742/742 741/741/741 739/739/739
f 745/745/745 744/744/744 743/743/743
f 746/746/746 745/745/745 743/743/743
f 743/743/743 747/747/747 746/746/746
f 747/747/747 748/748/748 746/746/746
f 751/751/751 750/750/750 749/749/749
f 752/752/752 751/751/751 749/749/749
f 755/755/755 754/754/754 753/753/753
f 756/756/756 755/755/755 753/753/753
f 759/759/759 758/758/758 757/757/757
f 760/760/760 759/759/759 757/757/757
f 763/763/763 762/762/762 761/761/761
f 764/764/764 763/763/763 761/761/761
f 767/767/767 766/766/766 765/765/765
f 768/768/768 767/767/767 765/765/765
f 771/771/771 770/770/770 769/769/769
f 772/772/772 771/771/771 769/769/769
f 775/775/775 774/774/774 773/773/773
f 776/776/776 775/775/775 773/773/773
f 779/779/779 778/778/778 777/777/777
f 780/780/780 779/779/779 777/777/777
f 783/783/783 782/782/782 781/781/781
f 784/784/784 783/783/783 781/781/781
f 787/787/787 786/786/786 785/785/785
f 788/788/788 787/787/787 785/785/785
f 791/791/791 790/790/790 789/789/789
f 792/792/792 791/791/791 789/789/789
f 795/795/795 794/794/794 793/793/793
f 796/796/796 795/795/795 793/793/793
f 799/799/799 798/798/798 797/797/797
f 800/800/800 799/799/799 797/797/797
f 803/803/803 802/802/802 801/801/801
f 801/801/801 802/802/802 804/804/804
f 805/805/805 802/802/802 803/803/803
f 804/804/804 802/802/802 806/806/806
f 807/807/807 802/802/802 805/805/805
f 806/806/806 802/802/802 808/808/808
f 809/809/809 802/802/802 807/807/807
f 808/808/808 802/802/802 809/809/809
f 812/812/812 811/811/811 810/810/810
f 810/810/810 811/811/811 813/813/813
f 814/814/814 811/811/811 812/812/812
f 813/813/813 811/811/811 815/815/815
f 816/816/816 811/811/811 814/814/814
f 815/815/815 811/811/811 817/817/817
f 818/818/818 811/811/811 816/816/816
f 817/817/817 811/811/811 818/818/818
f 821/821/821 820/820/820 819/819/819
f 819/819/819 820/820/820 822/822/822
f 823/823/823 820/820/820 821/821/821
f 822/822/822 820/820/820 824/824/824
f 825/825/825 820/820/820 823/823/823
f 824/824/824 820/820/820 826/826/826
f 827/827/827 820/820/820 825/825/825
f 826/826/826 820/820/820 827/827/827
f 830/830/830 829/829/829 828/828/828
f 828/828/828 829/829/829 831/831/831
f 832/832/832 829/829/829 830/830/830
f 831/831/831 829/829/829 833/833/833
f 834/834/834 829/829/829 832/832/832
f 833/833/833 829/829/829 835/835/835
f 836/836/836 829/829/829 834/834/834
f 835/835/835 829/829/829 836/836/836
