g city_Tree01
v -1.4514275 5.312529 -1.703909
v -1.1706438 3.9823534 -1.9352809
v 0.21903932 5.4941154 -1.8479924
v -1.4514275 5.312529 -1.703909
v 0.21903932 5.4941154 -1.8479924
v -0.16472897 6.341078 -0.7816908
v -0.16472897 6.341078 -0.7816908
v 0.21903932 5.4941154 -1.8479924
v 0.9607959 5.506377 -0.51749057
v 0.9607959 5.506377 -0.51749057
v 0.21903932 5.4941154 -1.8479924
v 0.3684578 3.9918258 -1.2747543
v 0.3684578 3.9918258 -1.2747543
v 0.21903932 5.4941154 -1.8479924
v -1.1706438 3.9823534 -1.9352809
v -1.1787204 2.999451 -0.82452655
v 0.3684578 3.9918258 -1.2747543
v -1.1706438 3.9823534 -1.9352809
v -2.3040724 3.830023 -1.0889575
v -1.1787204 2.999451 -0.82452655
v -1.1706438 3.9823534 -1.9352809
v -2.3040724 3.830023 -1.0889575
v -1.1706438 3.9823534 -1.9352809
v -1.4514275 5.312529 -1.703909
v 0.9607959 5.506377 -0.51749057
v 0.3684578 3.9918258 -1.2747543
v 0.102095485 3.9218054 0.107517555
v -1.6296358 4.432559 -0.055048585
v -0.16472897 6.341078 -0.7816908
v -0.2976201 5.0467067 0.36052412
v -0.2976201 5.0467067 0.36052412
v -0.16472897 6.341078 -0.7816908
v 0.9607959 5.506377 -0.51749057
v -0.2976201 5.0467067 0.36052412
v 0.9607959 5.506377 -0.51749057
v 0.102095485 3.9218054 0.107517555
v -0.2976201 5.0467067 0.36052412
v 0.102095485 3.9218054 0.107517555
v -1.6296358 4.432559 -0.055048585
v -1.6296358 4.432559 -0.055048585
v 0.102095485 3.9218054 0.107517555
v -1.1787204 2.999451 -0.82452655
v -1.6296358 4.432559 -0.055048585
v -1.1787204 2.999451 -0.82452655
v -2.3040724 3.830023 -1.0889575
v 0.102095485 3.9218054 0.107517555
v 0.3684578 3.9918258 -1.2747543
v -1.1787204 2.999451 -0.82452655
v -1.4514275 5.312529 -1.703909
v -1.6296358 4.432559 -0.055048585
v -2.3040724 3.830023 -1.0889575
v -1.4514275 5.312529 -1.703909
v -0.16472897 6.341078 -0.7816908
v -1.6296358 4.432559 -0.055048585
v 0.61613125 5.9911585 0.3010886
v 1.4304307 5.2778616 0.5460681
v -0.4108966 5.695136 1.0283765
v 0.61613125 5.9911585 0.3010886
v -0.4108966 5.695136 1.0283765
v -0.7617898 5.664669 0.00261806
v -0.7617898 5.664669 0.00261806
v -0.4108966 5.695136 1.0283765
v -1.0468445 4.806454 0.6166866
v -1.0468445 4.806454 0.6166866
v -0.4108966 5.695136 1.0283765
v 0.14094661 4.6167264 1.2832365
v 0.14094661 4.6167264 1.2832365
v -0.4108966 5.695136 1.0283765
v 1.4304307 5.2778616 0.5460681
v 1.4417553 4.320659 0.71337485
v 0.14094661 4.6167264 1.2832365
v 1.4304307 5.2778616 0.5460681
v 0.116993785 3.9383965 0.44260687
v 0.14094661 4.6167264 1.2832365
v 1.4417553 4.320659 0.71337485
v -1.0468445 4.806454 0.6166866
v 0.14094661 4.6167264 1.2832365
v 0.116993785 3.9383965 0.44260687
v 0.66382086 5.239996 -0.48083755
v -0.18164828 4.651629 -0.052242804
v 1.1198065 4.262714 -0.2708373
v 0.66382086 5.239996 -0.48083755
v -0.7617898 5.664669 0.00261806
v -0.18164828 4.651629 -0.052242804
v -0.18164828 4.651629 -0.052242804
v -0.7617898 5.664669 0.00261806
v -1.0468445 4.806454 0.6166866
v -0.18164828 4.651629 -0.052242804
v -1.0468445 4.806454 0.6166866
v 0.116993785 3.9383965 0.44260687
v -0.18164828 4.651629 -0.052242804
v 0.116993785 3.9383965 0.44260687
v 1.1198065 4.262714 -0.2708373
v 1.1198065 4.262714 -0.2708373
v 0.116993785 3.9383965 0.44260687
v 1.4417553 4.320659 0.71337485
v 1.1198065 4.262714 -0.2708373
v 1.4417553 4.320659 0.71337485
v 1.4304307 5.2778616 0.5460681
v 1.1198065 4.262714 -0.2708373
v 1.4304307 5.2778616 0.5460681
v 0.66382086 5.239996 -0.48083755
v 0.61613125 5.9911585 0.3010886
v 0.66382086 5.239996 -0.48083755
v 1.4304307 5.2778616 0.5460681
v 0.61613125 5.9911585 0.3010886
v -0.7617898 5.664669 0.00261806
v 0.66382086 5.239996 -0.48083755
v 1.4134667 3.8574836 0.93841165
v 1.071804 3.8622606 1.7327718
v 0.51240224 4.34544 0.67703056
v 1.4134667 3.8574836 0.93841165
v 0.51240224 4.34544 0.67703056
v 0.67466486 3.7751374 0.017132914
v 0.67466486 3.7751374 0.017132914
v 0.51240224 4.34544 0.67703056
v -0.16163936 3.7623868 0.33326563
v -0.16163936 3.7623868 0.33326563
v 0.51240224 4.34544 0.67703056
v 0.06573377 3.8398936 1.4322125
v 0.06573377 3.8398936 1.4322125
v 0.51240224 4.34544 0.67703056
v 1.071804 3.8622606 1.7327718
v 0.7018616 3.0906365 2.0971284
v 0.06573377 3.8398936 1.4322125
v 1.071804 3.8622606 1.7327718
v 1.5374146 3.1029665 1.7834432
v 0.7018616 3.0906365 2.0971284
v 1.071804 3.8622606 1.7327718
v 1.5374146 3.1029665 1.7834432
v 1.071804 3.8622606 1.7327718
v 1.4134667 3.8574836 0.93841165
v 1.2665298 2.9881794 0.8340478
v 0.38341546 3.109716 0.6386503
v 0.8479649 2.5258474 1.4811538
v 1.2665298 2.9881794 0.8340478
v 0.67466486 3.7751374 0.017132914
v 0.38341546 3.109716 0.6386503
v 0.38341546 3.109716 0.6386503
v 0.67466486 3.7751374 0.017132914
v -0.16163936 3.7623868 0.33326563
v 0.38341546 3.109716 0.6386503
v -0.16163936 3.7623868 0.33326563
v -0.053299606 2.9861977 1.236924
v 0.38341546 3.109716 0.6386503
v -0.053299606 2.9861977 1.236924
v 0.8479649 2.5258474 1.4811538
v 0.8479649 2.5258474 1.4811538
v -0.053299606 2.9861977 1.236924
v 0.7018616 3.0906365 2.0971284
v 0.8479649 2.5258474 1.4811538
v 0.7018616 3.0906365 2.0971284
v 1.5374146 3.1029665 1.7834432
v 0.8479649 2.5258474 1.4811538
v 1.5374146 3.1029665 1.7834432
v 1.2665298 2.9881794 0.8340478
v 1.4134667 3.8574836 0.93841165
v 1.2665298 2.9881794 0.8340478
v 1.5374146 3.1029665 1.7834432
v 1.4134667 3.8574836 0.93841165
v 0.67466486 3.7751374 0.017132914
v 1.2665298 2.9881794 0.8340478
v -0.16163936 3.7623868 0.33326563
v 0.06573377 3.8398936 1.4322125
v -0.053299606 2.9861977 1.236924
v -0.053299606 2.9861977 1.236924
v 0.06573377 3.8398936 1.4322125
v 0.7018616 3.0906365 2.0971284
v -1.1275089 3.2120008 0.48150963
v -1.5958731 3.370964 -0.056707684
v -0.5128333 3.4750404 -0.1118609
v -1.1275089 3.2120008 0.48150963
v -0.5128333 3.4750404 -0.1118609
v -0.2198363 2.8747716 0.22902898
v -0.2198363 2.8747716 0.22902898
v -0.5128333 3.4750404 -0.1118609
v -0.17342278 2.8702202 -0.52536494
v -0.17342278 2.8702202 -0.52536494
v -0.5128333 3.4750404 -0.1118609
v -1.0404683 3.2034645 -0.7287372
v -1.0404683 3.2034645 -0.7287372
v -0.5128333 3.4750404 -0.1118609
v -1.5958731 3.370964 -0.056707684
v -1.926086 2.800366 -0.48504332
v -1.0404683 3.2034645 -0.7287372
v -1.5958731 3.370964 -0.056707684
v -1.9741497 2.8050795 0.2679151
v -1.926086 2.800366 -0.48504332
v -1.5958731 3.370964 -0.056707684
v -1.9741497 2.8050795 0.2679151
v -1.5958731 3.370964 -0.056707684
v -1.1275089 3.2120008 0.48150963
v -1.211549 2.4725149 0.38515943
v -0.7402235 2.455488 -0.22530504
v -1.658638 2.2133543 -0.17169103
v -1.211549 2.4725149 0.38515943
v -0.2198363 2.8747716 0.22902898
v -0.7402235 2.455488 -0.22530504
v -0.7402235 2.455488 -0.22530504
v -0.2198363 2.8747716 0.22902898
v -0.17342278 2.8702202 -0.52536494
v -0.7402235 2.455488 -0.22530504
v -0.17342278 2.8702202 -0.52536494
v -1.0632056 2.4579673 -0.77176183
v -0.7402235 2.455488 -0.22530504
v -1.0632056 2.4579673 -0.77176183
v -1.658638 2.2133543 -0.17169103
v -1.658638 2.2133543 -0.17169103
v -1.0632056 2.4579673 -0.77176183
v -1.926086 2.800366 -0.48504332
v -1.658638 2.2133543 -0.17169103
v -1.926086 2.800366 -0.48504332
v -1.9741497 2.8050795 0.2679151
v -1.658638 2.2133543 -0.17169103
v -1.9741497 2.8050795 0.2679151
v -1.211549 2.4725149 0.38515943
v -1.1275089 3.2120008 0.48150963
v -1.211549 2.4725149 0.38515943
v -1.9741497 2.8050795 0.2679151
v -1.1275089 3.2120008 0.48150963
v -0.2198363 2.8747716 0.22902898
v -1.211549 2.4725149 0.38515943
v -0.17342278 2.8702202 -0.52536494
v -1.0404683 3.2034645 -0.7287372
v -1.0632056 2.4579673 -0.77176183
v -1.0632056 2.4579673 -0.77176183
v -1.0404683 3.2034645 -0.7287372
v -1.926086 2.800366 -0.48504332
v -1.3533137 2.8806143 -0.039011233
v -1.2944939 2.9258537 -0.06312178
v -1.2581414 2.953813 4.8123724E-07
v -1.3533137 2.8806143 0.03901217
v -1.2944939 2.9258537 0.063122734
v 0.7020396 3.9682968 0.9865441
v 0.7729968 3.9403374 0.9700815
v 0.79547834 3.8950984 1.0295428
v 0.6806673 3.9403374 1.0561798
v 0.7384155 3.8950984 1.0827545
v 0.049726307 -3.6084355E-08 0.22148418
v -0.21064398 -2.2301357E-08 0.13688475
v -0.3068019 1.5566313 0.09951548
v -0.1175127 1.5566313 0.16101925
v 0.21064398 0 0
v 0.049726307 -3.6084355E-08 0.22148418
v -0.1175127 1.5566313 0.16101925
v -0.00052554737 1.5566313 2.5360745E-07
v -0.1175127 1.5566313 -0.16101874
v -0.00052554737 1.5566313 2.5360745E-07
v 0.22475755 3.3535237 0.27502316
v 0.14754605 3.3535237 0.16875066
v -0.3068019 1.5566313 -0.099514976
v -0.1175127 1.5566313 -0.16101874
v 0.14754605 3.3535237 0.16875066
v 0.02261519 3.3535237 0.20934315
v -0.3068019 1.5566313 0.09951548
v -0.3068019 1.5566313 -0.099514976
v 0.02261519 3.3535237 0.20934315
v 0.02261519 3.3535237 0.3407032
v -0.1175127 1.5566313 0.16101925
v -0.3068019 1.5566313 0.09951548
v 0.02261519 3.3535237 0.3407032
v 0.14754605 3.3535237 0.38129568
v -0.00052554737 1.5566313 2.5360745E-07
v -0.1175127 1.5566313 0.16101925
v 0.14754605 3.3535237 0.38129568
v 0.22475755 3.3535237 0.27502316
v 0.14754605 3.3535237 0.16875066
v 0.22475755 3.3535237 0.27502316
v -0.42550242 5.2309055 -0.17309852
v -0.47112644 5.2098103 -0.24228196
v 0.02261519 3.3535237 0.20934315
v 0.14754605 3.3535237 0.16875066
v -0.47112644 5.2098103 -0.24228196
v -0.54494774 5.1756783 -0.21585624
v 0.02261519 3.3535237 0.3407032
v 0.02261519 3.3535237 0.20934315
v -0.54494774 5.1756783 -0.21585624
v -0.54494774 5.1756783 -0.13034083
v 0.14754605 3.3535237 0.38129568
v 0.02261519 3.3535237 0.3407032
v -0.54494774 5.1756783 -0.13034083
v -0.47112644 5.2098103 -0.10391511
v 0.22475755 3.3535237 0.27502316
v 0.14754605 3.3535237 0.38129568
v -0.47112644 5.2098103 -0.10391511
v -0.42550242 5.2309055 -0.17309852
v 0.006689124 2.5841074 0.1016886
v 0.04049591 2.516079 0.19110423
v 0.5715829 3.0325015 0.7894435
v 0.54910135 3.0777407 0.729982
v -0.100013345 2.6261516 0.12644432
v 0.006689124 2.5841074 0.1016886
v 0.54910135 3.0777407 0.729982
v 0.4781443 3.1056998 0.7464446
v -0.13215232 2.5841074 0.23115987
v -0.100013345 2.6261516 0.12644432
v 0.4781443 3.1056998 0.7464446
v 0.45677185 3.0777404 0.81608045
v -0.045312814 2.516079 0.27112192
v -0.13215232 2.5841074 0.23115987
v 0.45677185 3.0777404 0.81608045
v 0.5145201 3.0325015 0.8426552
v 0.04049591 2.516079 0.19110423
v -0.045312814 2.516079 0.27112192
v 0.5145201 3.0325015 0.8426552
v 0.5715829 3.0325015 0.7894435
v 0.54910135 3.0777407 0.729982
v 0.5715829 3.0325015 0.7894435
v 0.79547834 3.8950984 1.0295428
v 0.7729968 3.9403374 0.9700815
v 0.4781443 3.1056998 0.7464446
v 0.54910135 3.0777407 0.729982
v 0.7729968 3.9403374 0.9700815
v 0.7020396 3.9682968 0.9865441
v 0.45677185 3.0777404 0.81608045
v 0.4781443 3.1056998 0.7464446
v 0.7020396 3.9682968 0.9865441
v 0.6806673 3.9403374 1.0561798
v 0.5145201 3.0325015 0.8426552
v 0.45677185 3.0777404 0.81608045
v 0.6806673 3.9403374 1.0561798
v 0.7384155 3.8950984 1.0827545
v 0.5715829 3.0325015 0.7894435
v 0.5145201 3.0325015 0.8426552
v 0.7384155 3.8950984 1.0827545
v 0.79547834 3.8950984 1.0295428
v -0.13677113 1.569624 0.09492096
v -0.22522187 1.5015953 0.058664463
v -1.0250199 2.0180178 0.03901203
v -0.96620023 2.063257 0.06312259
v -0.08210558 1.6116676 2.62574E-07
v -0.13677113 1.569624 0.09492096
v -0.96620023 2.063257 0.06312259
v -0.9298475 2.091216 3.4070237E-07
v -0.13677113 1.569624 -0.09492046
v -0.08210558 1.6116676 2.62574E-07
v -0.9298475 2.091216 3.4070237E-07
v -0.96620023 2.063257 -0.06312192
v -0.22522187 1.5015953 -0.05866397
v -0.13677113 1.569624 -0.09492046
v -0.96620023 2.063257 -0.06312192
v -1.0250199 2.0180178 -0.039011374
v -0.22522187 1.5015953 0.058664463
v -0.22522187 1.5015953 -0.05866397
v -1.0250199 2.0180178 -0.039011374
v -1.0250199 2.0180178 0.03901203
v -0.96620023 2.063257 0.06312259
v -1.0250199 2.0180178 0.03901203
v -1.3533137 2.8806143 0.03901217
v -1.2944939 2.9258537 0.063122734
v -0.9298475 2.091216 3.4070237E-07
v -0.96620023 2.063257 0.06312259
v -1.2944939 2.9258537 0.063122734
v -1.2581414 2.953813 4.8123724E-07
v -0.96620023 2.063257 -0.06312192
v -0.9298475 2.091216 3.4070237E-07
v -1.2581414 2.953813 4.8123724E-07
v -1.2944939 2.9258537 -0.06312178
v -1.0250199 2.0180178 -0.039011374
v -0.96620023 2.063257 -0.06312192
v -1.2944939 2.9258537 -0.06312178
v -1.3533137 2.8806143 -0.039011233
v -1.0250199 2.0180178 0.03901203
v -1.0250199 2.0180178 -0.039011374
v -1.3533137 2.8806143 -0.039011233
v -1.3533137 2.8806143 0.03901217
v 0.049726307 3.6084355E-08 -0.22148418
v 0.21064398 0 0
v -0.00052554737 1.5566313 2.5360745E-07
v -0.1175127 1.5566313 -0.16101874
v -0.21064398 2.2301357E-08 -0.13688475
v 0.049726307 3.6084355E-08 -0.22148418
v -0.1175127 1.5566313 -0.16101874
v -0.3068019 1.5566313 -0.099514976
v -0.21064398 -2.2301357E-08 0.13688475
v -0.21064398 2.2301357E-08 -0.13688475
v -0.3068019 1.5566313 -0.099514976
v -0.3068019 1.5566313 0.09951548
v -0.47112644 5.2098103 -0.10391511
v -0.54494774 5.1756783 -0.13034083
v -0.49153018 5.2003765 -0.17309852
v -0.42550242 5.2309055 -0.17309852
v -0.54494774 5.1756783 -0.21585624
v -0.47112644 5.2098103 -0.24228196
vt 0.34373915 0.40512943
vt 0.34373915 0.40512943
vt 0.34373915 0.40512943
vt 0.34373915 0.40512943
vt 0.34373915 0.40512943
vt 0.34373915 0.40512943
vt 0.34373915 0.40512943
vt 0.34373915 0.40512943
vt 0.34373915 0.40512943
vt 0.34373915 0.40512943
vt 0.34373915 0.40512943
vt 0.34373915 0.40512943
vt 0.34373915 0.40512943
vt 0.34373915 0.40512943
vt 0.34373915 0.40512943
vt 0.34373915 0.40512943
vt 0.34373915 0.40512943
vt 0.34373915 0.40512943
vt 0.34373915 0.40512943
vt 0.34373915 0.40512943
vt 0.34373915 0.40512943
vt 0.34373915 0.40512943
vt 0.34373915 0.40512943
vt 0.34373915 0.40512943
vt 0.34373915 0.40512943
vt 0.34373915 0.40512943
vt 0.34373915 0.40512943
vt 0.34373915 0.40512943
vt 0.34373915 0.40512943
vt 0.34373915 0.40512943
vt 0.34373915 0.40512943
vt 0.34373915 0.40512943
vt 0.34373915 0.40512943
vt 0.34373915 0.40512943
vt 0.34373915 0.40512943
vt 0.34373915 0.40512943
vt 0.34373915 0.40512943
vt 0.34373915 0.40512943
vt 0.34373915 0.40512943
vt 0.34373915 0.40512943
vt 0.34373915 0.40512943
vt 0.34373915 0.40512943
vt 0.34373915 0.40512943
vt 0.34373915 0.40512943
vt 0.34373915 0.40512943
vt 0.34373915 0.40512943
vt 0.34373915 0.40512943
vt 0.34373915 0.40512943
vt 0.34373915 0.40512943
vt 0.34373915 0.40512943
vt 0.34373915 0.40512943
vt 0.34373915 0.40512943
vt 0.34373915 0.40512943
vt 0.34373915 0.40512943
vt 0.28123915 0.40637943
vt 0.28123915 0.40637943
vt 0.28123915 0.40637943
vt 0.28123915 0.40637943
vt 0.28123915 0.40637943
vt 0.28123915 0.40637943
vt 0.28123915 0.40637943
vt 0.28123915 0.40637943
vt 0.28123915 0.40637943
vt 0.28123915 0.40637943
vt 0.28123915 0.40637943
vt 0.28123915 0.40637943
vt 0.28123915 0.40637943
vt 0.28123915 0.40637943
vt 0.28123915 0.40637943
vt 0.28123915 0.40637943
vt 0.28123915 0.40637943
vt 0.28123915 0.40637943
vt 0.28123915 0.40637943
vt 0.28123915 0.40637943
vt 0.28123915 0.40637943
vt 0.28123915 0.40637943
vt 0.28123915 0.40637943
vt 0.28123915 0.40637943
vt 0.28123915 0.40637943
vt 0.28123915 0.40637943
vt 0.28123915 0.40637943
vt 0.28123915 0.40637943
vt 0.28123915 0.40637943
vt 0.28123915 0.40637943
vt 0.28123915 0.40637943
vt 0.28123915 0.40637943
vt 0.28123915 0.40637943
vt 0.28123915 0.40637943
vt 0.28123915 0.40637943
vt 0.28123915 0.40637943
vt 0.28123915 0.40637943
vt 0.28123915 0.40637943
vt 0.28123915 0.40637943
vt 0.28123915 0.40637943
vt 0.28123915 0.40637943
vt 0.28123915 0.40637943
vt 0.28123915 0.40637943
vt 0.28123915 0.40637943
vt 0.28123915 0.40637943
vt 0.28123915 0.40637943
vt 0.28123915 0.40637943
vt 0.28123915 0.40637943
vt 0.28123915 0.40637943
vt 0.28123915 0.40637943
vt 0.28123915 0.40637943
vt 0.28123915 0.40637943
vt 0.28123915 0.40637943
vt 0.28123915 0.40637943
vt 0.34373915 0.40512943
vt 0.34373915 0.40512943
vt 0.34373915 0.40512943
vt 0.34373915 0.40512943
vt 0.34373915 0.40512943
vt 0.34373915 0.40512943
vt 0.34373915 0.40512943
vt 0.34373915 0.40512943
vt 0.34373915 0.40512943
vt 0.34373915 0.40512943
vt 0.34373915 0.40512943
vt 0.34373915 0.40512943
vt 0.34373915 0.40512943
vt 0.34373915 0.40512943
vt 0.34373915 0.40512943
vt 0.34373915 0.40512943
vt 0.34373915 0.40512943
vt 0.34373915 0.40512943
vt 0.34373915 0.40512943
vt 0.34373915 0.40512943
vt 0.34373915 0.40512943
vt 0.34373915 0.40512943
vt 0.34373915 0.40512943
vt 0.34373915 0.40512943
vt 0.34373915 0.40512943
vt 0.34373915 0.40512943
vt 0.34373915 0.40512943
vt 0.34373915 0.40512943
vt 0.34373915 0.40512943
vt 0.34373915 0.40512943
vt 0.34373915 0.40512943
vt 0.34373915 0.40512943
vt 0.34373915 0.40512943
vt 0.34373915 0.40512943
vt 0.34373915 0.40512943
vt 0.34373915 0.40512943
vt 0.34373915 0.40512943
vt 0.34373915 0.40512943
vt 0.34373915 0.40512943
vt 0.34373915 0.40512943
vt 0.34373915 0.40512943
vt 0.34373915 0.40512943
vt 0.34373915 0.40512943
vt 0.34373915 0.40512943
vt 0.34373915 0.40512943
vt 0.34373915 0.40512943
vt 0.34373915 0.40512943
vt 0.34373915 0.40512943
vt 0.34373915 0.40512943
vt 0.34373915 0.40512943
vt 0.34373915 0.40512943
vt 0.34373915 0.40512943
vt 0.34373915 0.40512943
vt 0.34373915 0.40512943
vt 0.34373915 0.40512943
vt 0.34373915 0.40512943
vt 0.34373915 0.40512943
vt 0.34373915 0.40512943
vt 0.34373915 0.40512943
vt 0.34373915 0.40512943
vt 0.28123915 0.40637943
vt 0.28123915 0.40637943
vt 0.28123915 0.40637943
vt 0.28123915 0.40637943
vt 0.28123915 0.40637943
vt 0.28123915 0.40637943
vt 0.28123915 0.40637943
vt 0.28123915 0.40637943
vt 0.28123915 0.40637943
vt 0.28123915 0.40637943
vt 0.28123915 0.40637943
vt 0.28123915 0.40637943
vt 0.28123915 0.40637943
vt 0.28123915 0.40637943
vt 0.28123915 0.40637943
vt 0.28123915 0.40637943
vt 0.28123915 0.40637943
vt 0.28123915 0.40637943
vt 0.28123915 0.40637943
vt 0.28123915 0.40637943
vt 0.28123915 0.40637943
vt 0.28123915 0.40637943
vt 0.28123915 0.40637943
vt 0.28123915 0.40637943
vt 0.28123915 0.40637943
vt 0.28123915 0.40637943
vt 0.28123915 0.40637943
vt 0.28123915 0.40637943
vt 0.28123915 0.40637943
vt 0.28123915 0.40637943
vt 0.28123915 0.40637943
vt 0.28123915 0.40637943
vt 0.28123915 0.40637943
vt 0.28123915 0.40637943
vt 0.28123915 0.40637943
vt 0.28123915 0.40637943
vt 0.28123915 0.40637943
vt 0.28123915 0.40637943
vt 0.28123915 0.40637943
vt 0.28123915 0.40637943
vt 0.28123915 0.40637943
vt 0.28123915 0.40637943
vt 0.28123915 0.40637943
vt 0.28123915 0.40637943
vt 0.28123915 0.40637943
vt 0.28123915 0.40637943
vt 0.28123915 0.40637943
vt 0.28123915 0.40637943
vt 0.28123915 0.40637943
vt 0.28123915 0.40637943
vt 0.28123915 0.40637943
vt 0.28123915 0.40637943
vt 0.28123915 0.40637943
vt 0.28123915 0.40637943
vt 0.28123915 0.40637943
vt 0.28123915 0.40637943
vt 0.28123915 0.40637943
vt 0.28123915 0.40637943
vt 0.28123915 0.40637943
vt 0.28123915 0.40637943
vt 0.65638196 0.9091983
vt 0.65638196 0.9091983
vt 0.65638196 0.9091983
vt 0.65638196 0.9091983
vt 0.65638196 0.9091983
vt 0.65638196 0.9091983
vt 0.65638196 0.9091983
vt 0.65638196 0.9091983
vt 0.65638196 0.9091983
vt 0.65638196 0.9091983
vt 0.65638196 0.9091983
vt 0.65638196 0.9091983
vt 0.65638196 0.9091983
vt 0.65638196 0.9091983
vt 0.65638196 0.9091983
vt 0.65638196 0.9091983
vt 0.65638196 0.9091983
vt 0.65638196 0.9091983
vt 0.65638196 0.9091983
vt 0.65638196 0.9091983
vt 0.65638196 0.9091983
vt 0.65638196 0.9091983
vt 0.65638196 0.9091983
vt 0.65638196 0.9091983
vt 0.65638196 0.9091983
vt 0.65638196 0.9091983
vt 0.65638196 0.9091983
vt 0.65638196 0.9091983
vt 0.65638196 0.9091983
vt 0.65638196 0.9091983
vt 0.65638196 0.9091983
vt 0.65638196 0.9091983
vt 0.65638196 0.9091983
vt 0.65638196 0.9091983
vt 0.65638196 0.9091983
vt 0.65638196 0.9091983
vt 0.65638196 0.9091983
vt 0.65638196 0.9091983
vt 0.65638196 0.9091983
vt 0.65638196 0.9091983
vt 0.65638196 0.9091983
vt 0.65638196 0.9091983
vt 0.65638196 0.9091983
vt 0.65638196 0.9091983
vt 0.65638196 0.9091983
vt 0.65638196 0.9091983
vt 0.65638196 0.9091983
vt 0.65638196 0.9091983
vt 0.65638196 0.9091983
vt 0.65638196 0.9091983
vt 0.65638196 0.9091983
vt 0.65638196 0.9091983
vt 0.65638196 0.9091983
vt 0.65638196 0.9091983
vt 0.65638196 0.9091983
vt 0.65638196 0.9091983
vt 0.65638196 0.9091983
vt 0.65638196 0.9091983
vt 0.65638196 0.9091983
vt 0.65638196 0.9091983
vt 0.65638196 0.9091983
vt 0.65638196 0.9091983
vt 0.65638196 0.9091983
vt 0.65638196 0.9091983
vt 0.65638196 0.9091983
vt 0.65638196 0.9091983
vt 0.65638196 0.9091983
vt 0.65638196 0.9091983
vt 0.65638196 0.9091983
vt 0.65638196 0.9091983
vt 0.65638196 0.9091983
vt 0.65638196 0.9091983
vt 0.65638196 0.9091983
vt 0.65638196 0.9091983
vt 0.65638196 0.9091983
vt 0.65638196 0.9091983
vt 0.65638196 0.9091983
vt 0.65638196 0.9091983
vt 0.65638196 0.9091983
vt 0.65638196 0.9091983
vt 0.65638196 0.9091983
vt 0.65638196 0.9091983
vt 0.65638196 0.9091983
vt 0.65638196 0.9091983
vt 0.65638196 0.9091983
vt 0.65638196 0.9091983
vt 0.65638196 0.9091983
vt 0.65638196 0.9091983
vt 0.65638196 0.9091983
vt 0.65638196 0.9091983
vt 0.65638196 0.9091983
vt 0.65638196 0.9091983
vt 0.65638196 0.9091983
vt 0.65638196 0.9091983
vt 0.65638196 0.9091983
vt 0.65638196 0.9091983
vt 0.65638196 0.9091983
vt 0.65638196 0.9091983
vt 0.65638196 0.9091983
vt 0.65638196 0.9091983
vt 0.65638196 0.9091983
vt 0.65638196 0.9091983
vt 0.65638196 0.9091983
vt 0.65638196 0.9091983
vt 0.65638196 0.9091983
vt 0.65638196 0.9091983
vt 0.65638196 0.9091983
vt 0.65638196 0.9091983
vt 0.65638196 0.9091983
vt 0.65638196 0.9091983
vt 0.65638196 0.9091983
vt 0.65638196 0.9091983
vt 0.65638196 0.9091983
vt 0.65638196 0.9091983
vt 0.65638196 0.9091983
vt 0.65638196 0.9091983
vt 0.65638196 0.9091983
vt 0.65638196 0.9091983
vt 0.65638196 0.9091983
vt 0.65638196 0.9091983
vt 0.65638196 0.9091983
vt 0.65638196 0.9091983
vt 0.65638196 0.9091983
vt 0.65638196 0.9091983
vt 0.65638196 0.9091983
vt 0.65638196 0.9091983
vt 0.65638196 0.9091983
vt 0.65638196 0.9091983
vt 0.65638196 0.9091983
vt 0.65638196 0.9091983
vt 0.65638196 0.9091983
vt 0.65638196 0.9091983
vt 0.65638196 0.9091983
vt 0.65638196 0.9091983
vt 0.65638196 0.9091983
vt 0.65638196 0.9091983
vt 0.65638196 0.9091983
vt 0.65638196 0.9091983
vt 0.65638196 0.9091983
vt 0.65638196 0.9091983
vt 0.65638196 0.9091983
vt 0.65638196 0.9091983
vt 0.65638196 0.9091983
vt 0.65638196 0.9091983
vt 0.65638196 0.9091983
vt 0.65638196 0.9091983
vt 0.65638196 0.9091983
vt 0.65638196 0.9091983
vt 0.65638196 0.9091983
vt 0.65638196 0.9091983
vt 0.65638196 0.9091983
vt 0.65638196 0.9091983
vt 0.65638196 0.9091983
vt 0.65638196 0.9091983
vt 0.65638196 0.9091983
vt 0.65638196 0.9091983
vn -0.101110645 0.14973496 -0.98354256
vn -0.101110645 0.14973496 -0.98354256
vn -0.101110645 0.14973496 -0.98354256
vn -0.13734412 0.75095445 -0.6459133
vn -0.13734412 0.75095445 -0.6459133
vn -0.13734412 0.75095445 -0.6459133
vn 0.6098885 0.71268314 -0.34658134
vn 0.6098885 0.71268314 -0.34658134
vn 0.6098885 0.71268314 -0.34658134
vn 0.86960155 -0.09815367 -0.4838998
vn 0.86960155 -0.09815367 -0.4838998
vn 0.86960155 -0.09815367 -0.4838998
vn 0.37813058 -0.2969678 -0.8768281
vn 0.37813058 -0.2969678 -0.8768281
vn 0.37813058 -0.2969678 -0.8768281
vn 0.27720675 -0.7205427 -0.63559
vn 0.27720675 -0.7205427 -0.63559
vn 0.27720675 -0.7205427 -0.63559
vn -0.36783963 -0.6950577 -0.6177287
vn -0.36783963 -0.6950577 -0.6177287
vn -0.36783963 -0.6950577 -0.6177287
vn -0.59935033 0.012704432 -0.800386
vn -0.59935033 0.012704432 -0.800386
vn -0.59935033 0.012704432 -0.800386
vn 0.89284223 -0.424462 0.15054823
vn 0.89284223 -0.424462 0.15054823
vn 0.89284223 -0.424462 0.15054823
vn -0.478113 0.6082228 0.63361907
vn -0.478113 0.6082228 0.63361907
vn -0.478113 0.6082228 0.63361907
vn 0.2858294 0.61739206 0.73289055
vn 0.2858294 0.61739206 0.73289055
vn 0.2858294 0.61739206 0.73289055
vn 0.5679991 0.016756617 0.8228586
vn 0.5679991 0.016756617 0.8228586
vn 0.5679991 0.016756617 0.8228586
vn -0.16946621 -0.2731919 0.9469147
vn -0.16946621 -0.2731919 0.9469147
vn -0.16946621 -0.2731919 0.9469147
vn -0.22954077 -0.5154981 0.82557416
vn -0.22954077 -0.5154981 0.82557416
vn -0.22954077 -0.5154981 0.82557416
vn -0.54107726 -0.52359426 0.6580915
vn -0.54107726 -0.52359426 0.6580915
vn -0.54107726 -0.52359426 0.6580915
vn 0.5519592 -0.8313924 0.06424683
vn 0.5519592 -0.8313924 0.06424683
vn 0.5519592 -0.8313924 0.06424683
vn -0.80869025 0.55078214 0.20654057
vn -0.80869025 0.55078214 0.20654057
vn -0.80869025 0.55078214 0.20654057
vn -0.71168673 0.64881206 0.26934153
vn -0.71168673 0.64881206 0.26934153
vn -0.71168673 0.64881206 0.26934153
vn 0.32728463 0.61886954 0.71406245
vn 0.32728463 0.61886954 0.71406245
vn 0.32728463 0.61886954 0.71406245
vn -0.24123447 0.96897775 0.053741157
vn -0.24123447 0.96897775 0.053741157
vn -0.24123447 0.96897775 0.053741157
vn -0.8377243 0.47323775 0.27251416
vn -0.8377243 0.47323775 0.27251416
vn -0.8377243 0.47323775 0.27251416
vn -0.49463797 -0.04803598 0.8677707
vn -0.49463797 -0.04803598 0.8677707
vn -0.49463797 -0.04803598 0.8677707
vn 0.3126548 0.3670372 0.87608826
vn 0.3126548 0.3670372 0.87608826
vn 0.3126548 0.3670372 0.87608826
vn 0.42650098 0.16062595 0.89011025
vn 0.42650098 0.16062595 0.89011025
vn 0.42650098 0.16062595 0.89011025
vn 0.096486986 -0.7759415 0.62338185
vn 0.096486986 -0.7759415 0.62338185
vn 0.096486986 -0.7759415 0.62338185
vn -0.43292528 -0.6954519 0.5735174
vn -0.43292528 -0.6954519 0.5735174
vn -0.43292528 -0.6954519 0.5735174
vn -0.24743126 -0.31252053 -0.91711974
vn -0.24743126 -0.31252053 -0.91711974
vn -0.24743126 -0.31252053 -0.91711974
vn -0.3584681 -0.15543506 -0.92051107
vn -0.3584681 -0.15543506 -0.92051107
vn -0.3584681 -0.15543506 -0.92051107
vn -0.61532784 -0.31320822 -0.72337556
vn -0.61532784 -0.31320822 -0.72337556
vn -0.61532784 -0.31320822 -0.72337556
vn -0.5464582 -0.6196804 -0.56336457
vn -0.5464582 -0.6196804 -0.56336457
vn -0.5464582 -0.6196804 -0.56336457
vn -0.30743614 -0.6259745 -0.7166861
vn -0.30743614 -0.6259745 -0.7166861
vn -0.30743614 -0.6259745 -0.7166861
vn 0.28392926 -0.9581515 -0.03646633
vn 0.28392926 -0.9581515 -0.03646633
vn 0.28392926 -0.9581515 -0.03646633
vn 0.95031637 -0.042652458 -0.30834976
vn 0.95031637 -0.042652458 -0.30834976
vn 0.95031637 -0.042652458 -0.30834976
vn 0.77465427 0.23531201 -0.58697444
vn 0.77465427 0.23531201 -0.58697444
vn 0.77465427 0.23531201 -0.58697444
vn 0.6494904 0.56774426 -0.505795
vn 0.6494904 0.56774426 -0.505795
vn 0.6494904 0.56774426 -0.505795
vn -0.020516604 0.7203736 -0.69328284
vn -0.020516604 0.7203736 -0.69328284
vn -0.020516604 0.7203736 -0.69328284
vn 0.42793205 0.88596255 0.17873019
vn 0.42793205 0.88596255 0.17873019
vn 0.42793205 0.88596255 0.17873019
vn 0.52126694 0.70490736 -0.48102656
vn 0.52126694 0.70490736 -0.48102656
vn 0.52126694 0.70490736 -0.48102656
vn -0.26278964 0.69710356 -0.66707444
vn -0.26278964 0.69710356 -0.66707444
vn -0.26278964 0.69710356 -0.66707444
vn -0.67709833 0.7305433 0.08856829
vn -0.67709833 0.7305433 0.08856829
vn -0.67709833 0.7305433 0.08856829
vn -0.1627365 0.8617057 0.48060378
vn -0.1627365 0.8617057 0.48060378
vn -0.1627365 0.8617057 0.48060378
vn -0.25653267 0.5105228 0.8207055
vn -0.25653267 0.5105228 0.8207055
vn -0.25653267 0.5105228 0.8207055
vn 0.33536854 0.26596588 0.9037645
vn 0.33536854 0.26596588 0.9037645
vn 0.33536854 0.26596588 0.9037645
vn 0.79220027 0.5083238 0.33767676
vn 0.79220027 0.5083238 0.33767676
vn 0.79220027 0.5083238 0.33767676
vn 0.014640685 -0.81803405 -0.5749835
vn 0.014640685 -0.81803405 -0.5749835
vn 0.014640685 -0.81803405 -0.5749835
vn 0.06257593 -0.69573957 -0.7155632
vn 0.06257593 -0.69573957 -0.7155632
vn 0.06257593 -0.69573957 -0.7155632
vn -0.2782051 -0.587786 -0.7596773
vn -0.2782051 -0.587786 -0.7596773
vn -0.2782051 -0.587786 -0.7596773
vn -0.5202836 -0.6776605 -0.51969343
vn -0.5202836 -0.6776605 -0.51969343
vn -0.5202836 -0.6776605 -0.51969343
vn -0.32346523 -0.85184383 -0.41198578
vn -0.32346523 -0.85184383 -0.41198578
vn -0.32346523 -0.85184383 -0.41198578
vn -0.49608737 -0.69538766 0.5199359
vn -0.49608737 -0.69538766 0.5199359
vn -0.49608737 -0.69538766 0.5199359
vn 0.26713663 -0.67788446 0.6849165
vn 0.26713663 -0.67788446 0.6849165
vn 0.26713663 -0.67788446 0.6849165
vn 0.6640513 -0.74098575 -0.099879876
vn 0.6640513 -0.74098575 -0.099879876
vn 0.6640513 -0.74098575 -0.099879876
vn 0.9574091 -0.13093415 -0.25734046
vn 0.9574091 -0.13093415 -0.25734046
vn 0.9574091 -0.13093415 -0.25734046
vn 0.7813447 -0.057461653 -0.6214489
vn 0.7813447 -0.057461653 -0.6214489
vn 0.7813447 -0.057461653 -0.6214489
vn -0.97641957 0.09140601 0.19557552
vn -0.97641957 0.09140601 0.19557552
vn -0.97641957 0.09140601 0.19557552
vn -0.7478132 -0.047218926 0.662228
vn -0.7478132 -0.047218926 0.662228
vn -0.7478132 -0.047218926 0.662228
vn -0.07276768 0.9375252 0.34022248
vn -0.07276768 0.9375252 0.34022248
vn -0.07276768 0.9375252 0.34022248
vn 0.41273174 0.59373164 0.69074976
vn 0.41273174 0.59373164 0.69074976
vn 0.41273174 0.59373164 0.69074976
vn 0.8855721 0.46161592 0.05169914
vn 0.8855721 0.46161592 0.05169914
vn 0.8855721 0.46161592 0.05169914
vn 0.40243134 0.65973943 -0.63465965
vn 0.40243134 0.65973943 -0.63465965
vn 0.40243134 0.65973943 -0.63465965
vn -0.106807016 0.9404636 -0.32267725
vn -0.106807016 0.9404636 -0.32267725
vn -0.106807016 0.9404636 -0.32267725
vn -0.4661562 0.6876345 -0.5566481
vn -0.4661562 0.6876345 -0.5566481
vn -0.4661562 0.6876345 -0.5566481
vn -0.8448595 0.5319152 -0.057260133
vn -0.8448595 0.5319152 -0.057260133
vn -0.8448595 0.5319152 -0.057260133
vn -0.46479842 0.6534458 0.5974705
vn -0.46479842 0.6534458 0.5974705
vn -0.46479842 0.6534458 0.5974705
vn 0.26064396 -0.93827003 0.22740693
vn 0.26064396 -0.93827003 0.22740693
vn 0.26064396 -0.93827003 0.22740693
vn 0.39897048 -0.854798 0.33187795
vn 0.39897048 -0.854798 0.33187795
vn 0.39897048 -0.854798 0.33187795
vn 0.6043697 -0.795597 0.041983414
vn 0.6043697 -0.795597 0.041983414
vn 0.6043697 -0.795597 0.041983414
vn 0.466264 -0.8393675 -0.27939215
vn 0.466264 -0.8393675 -0.27939215
vn 0.466264 -0.8393675 -0.27939215
vn 0.24398524 -0.95833313 -0.14855543
vn 0.24398524 -0.95833313 -0.14855543
vn 0.24398524 -0.95833313 -0.14855543
vn -0.45394567 -0.5716652 -0.68347067
vn -0.45394567 -0.5716652 -0.68347067
vn -0.45394567 -0.5716652 -0.68347067
vn -0.897343 -0.43795103 -0.054538585
vn -0.897343 -0.43795103 -0.054538585
vn -0.897343 -0.43795103 -0.054538585
vn -0.39036164 -0.6740456 0.6271206
vn -0.39036164 -0.6740456 0.6271206
vn -0.39036164 -0.6740456 0.6271206
vn -0.195617 -0.10481307 0.9750632
vn -0.195617 -0.10481307 0.9750632
vn -0.195617 -0.10481307 0.9750632
vn 0.2128423 -0.149988 0.9655059
vn 0.2128423 -0.149988 0.9655059
vn 0.2128423 -0.149988 0.9655059
vn 0.24568032 0.048381075 -0.9681428
vn 0.24568032 0.048381075 -0.9681428
vn 0.24568032 0.048381075 -0.9681428
vn -0.29172888 0.06397619 -0.9543592
vn -0.29172888 0.06397619 -0.9543592
vn -0.29172888 0.06397619 -0.9543592
vn -0.60965514 0.79266673 0
vn -0.60965514 0.79266673 0
vn -0.60965514 0.79266673 0
vn -0.60965514 0.79266673 0
vn -0.60965514 0.79266673 0
vn 0.4157823 0.7926683 0.44587228
vn 0.4157823 0.7926683 0.44587228
vn 0.4157823 0.7926683 0.44587228
vn 0.4157823 0.7926683 0.44587228
vn 0.4157823 0.7926683 0.44587228
vn -0.3090148 0.0037425791 0.95104986
vn -0.3090148 0.0037425791 0.95104986
vn -0.3090148 0.0037425791 0.95104986
vn -0.3090148 0.0037425791 0.95104986
vn 0.8041883 0.1090945 0.584277
vn 0.8041883 0.1090945 0.584277
vn 0.8041883 0.1090945 0.584277
vn 0.8041883 0.1090945 0.584277
vn 0.80896384 -0.0114653995 -0.58774656
vn 0.80896384 -0.0114653995 -0.58774656
vn 0.80896384 -0.0114653995 -0.58774656
vn 0.80896384 -0.0114653995 -0.58774656
vn -0.30179182 0.21497618 -0.9288202
vn -0.30179182 0.21497618 -0.9288202
vn -0.30179182 0.21497618 -0.9288202
vn -0.30179182 0.21497618 -0.9288202
vn -0.9836078 0.18032086 0
vn -0.9836078 0.18032086 0
vn -0.9836078 0.18032086 0
vn -0.9836078 0.18032086 0
vn -0.3082408 -0.07082634 0.9486682
vn -0.3082408 -0.07082634 0.9486682
vn -0.3082408 -0.07082634 0.9486682
vn -0.3082408 -0.07082634 0.9486682
vn 0.79459435 -0.1879808 0.57730675
vn 0.79459435 -0.1879808 0.57730675
vn 0.79459435 -0.1879808 0.57730675
vn 0.79459435 -0.1879808 0.57730675
vn 0.8031905 0.13971591 -0.5791065
vn 0.8031905 0.13971591 -0.5791065
vn 0.8031905 0.13971591 -0.5791065
vn 0.8031905 0.13971591 -0.5791065
vn -0.2599366 -0.292995 -0.9201015
vn -0.2599366 -0.292995 -0.9201015
vn -0.2599366 -0.292995 -0.9201015
vn -0.2599366 -0.292995 -0.9201015
vn -0.9547569 -0.29738703 0
vn -0.9547569 -0.29738703 0
vn -0.9547569 -0.29738703 0
vn -0.9547569 -0.29738703 0
vn -0.33717206 0.13353269 0.9319249
vn -0.33717206 0.13353269 0.9319249
vn -0.33717206 0.13353269 0.9319249
vn -0.33717206 0.13353269 0.9319249
vn 0.73218554 0.38866124 0.5593271
vn 0.73218554 0.38866124 0.5593271
vn 0.73218554 0.38866124 0.5593271
vn 0.73218554 0.38866124 0.5593271
vn 0.8223046 -0.25800574 -0.50719637
vn 0.8223046 -0.25800574 -0.50719637
vn 0.8223046 -0.25800574 -0.50719637
vn 0.8223046 -0.25800574 -0.50719637
vn 0.1276193 0.7234013 -0.6785307
vn 0.1276193 0.7234013 -0.6785307
vn 0.1276193 0.7234013 -0.6785307
vn 0.1276193 0.7234013 -0.6785307
vn -0.6857798 0.72340184 0.07997378
vn -0.6857798 0.72340184 0.07997378
vn -0.6857798 0.72340184 0.07997378
vn -0.6857798 0.72340184 0.07997378
vn -0.5633253 -0.2580058 0.7849189
vn -0.5633253 -0.2580058 0.7849189
vn -0.5633253 -0.2580058 0.7849189
vn -0.5633253 -0.2580058 0.7849189
vn 0.3699439 -0.8400936 0.39671674
vn 0.3699439 -0.8400936 0.39671674
vn 0.3699439 -0.8400936 0.39671674
vn 0.3699439 -0.8400936 0.39671674
vn 0.89736724 -0.11428167 -0.42622957
vn 0.89736724 -0.11428167 -0.42622957
vn 0.89736724 -0.11428167 -0.42622957
vn 0.89736724 -0.11428167 -0.42622957
vn -0.10549654 0.2919744 -0.95059
vn -0.10549654 0.2919744 -0.95059
vn -0.10549654 0.2919744 -0.95059
vn -0.10549654 0.2919744 -0.95059
vn -0.940915 0.29197437 -0.17155178
vn -0.940915 0.29197437 -0.17155178
vn -0.940915 0.29197437 -0.17155178
vn -0.940915 0.29197437 -0.17155178
vn -0.4877904 -0.11428181 0.86544794
vn -0.4877904 -0.11428181 0.86544794
vn -0.4877904 -0.11428181 0.86544794
vn -0.4877904 -0.11428181 0.86544794
vn 0.6373945 -0.355698 0.68352556
vn 0.6373945 -0.355698 0.68352556
vn 0.6373945 -0.355698 0.68352556
vn 0.6373945 -0.355698 0.68352556
vn -0.18986906 -0.25800592 0.9473028
vn -0.18986906 -0.25800592 0.9473028
vn -0.18986906 -0.25800592 0.9473028
vn -0.18986906 -0.25800592 0.9473028
vn 0.40921223 0.723402 0.5560889
vn 0.40921223 0.723402 0.5560889
vn 0.40921223 0.723402 0.5560889
vn 0.40921223 0.723402 0.5560889
vn 0.40921214 0.7234019 -0.5560891
vn 0.40921214 0.7234019 -0.5560891
vn 0.40921214 0.7234019 -0.5560891
vn 0.40921214 0.7234019 -0.5560891
vn -0.18986918 -0.25800565 -0.94730294
vn -0.18986918 -0.25800565 -0.94730294
vn -0.18986918 -0.25800565 -0.94730294
vn -0.18986918 -0.25800565 -0.94730294
vn -0.5424411 -0.8400939 0
vn -0.5424411 -0.8400939 0
vn -0.5424411 -0.8400939 0
vn -0.5424411 -0.8400939 0
vn -0.3002767 -0.11428182 0.94698125
vn -0.3002767 -0.11428182 0.94698125
vn -0.3002767 -0.11428182 0.94698125
vn -0.3002767 -0.11428182 0.94698125
vn 0.7671669 0.29197428 0.5711445
vn 0.7671669 0.29197428 0.5711445
vn 0.7671669 0.29197428 0.5711445
vn 0.7671669 0.29197428 0.5711445
vn 0.7671669 0.2919744 -0.57114434
vn 0.7671669 0.2919744 -0.57114434
vn 0.7671669 0.2919744 -0.57114434
vn 0.7671669 0.2919744 -0.57114434
vn -0.30027676 -0.11428154 -0.9469814
vn -0.30027676 -0.11428154 -0.9469814
vn -0.30027676 -0.11428154 -0.9469814
vn -0.30027676 -0.11428154 -0.9469814
vn -0.93460107 -0.3556978 0
vn -0.93460107 -0.3556978 0
vn -0.93460107 -0.3556978 0
vn -0.93460107 -0.3556978 0
vn 0.8041883 0.10909471 -0.58427703
vn 0.8041883 0.10909471 -0.58427703
vn 0.8041883 0.10909471 -0.58427703
vn 0.8041883 0.10909471 -0.58427703
vn -0.3090148 0.0037428928 -0.95104986
vn -0.3090148 0.0037428928 -0.95104986
vn -0.3090148 0.0037428928 -0.95104986
vn -0.3090148 0.0037428928 -0.95104986
vn -0.9980975 -0.061655555 0
vn -0.9980975 -0.061655555 0
vn -0.9980975 -0.061655555 0
vn -0.9980975 -0.061655555 0
vn -0.41967082 0.9076764 0
vn -0.41967598 0.907674 0
vn -0.41967568 0.90767413 0
vn -0.41967568 0.90767413 0
vn -0.41967556 0.9076742 0
vn -0.41967568 0.90767413 0
g city_Tree01_0
f 3/3/3 2/2/2 1/1/1
f 6/6/6 5/5/5 4/4/4
f 9/9/9 8/8/8 7/7/7
f 12/12/12 11/11/11 10/10/10
f 15/15/15 14/14/14 13/13/13
f 18/18/18 17/17/17 16/16/16
f 21/21/21 20/20/20 19/19/19
f 24/24/24 23/23/23 22/22/22
f 27/27/27 26/26/26 25/25/25
f 30/30/30 29/29/29 28/28/28
f 33/33/33 32/32/32 31/31/31
f 36/36/36 35/35/35 34/34/34
f 39/39/39 38/38/38 37/37/37
f 42/42/42 41/41/41 40/40/40
f 45/45/45 44/44/44 43/43/43
f 48/48/48 47/47/47 46/46/46
f 51/51/51 50/50/50 49/49/49
f 54/54/54 53/53/53 52/52/52
f 57/57/57 56/56/56 55/55/55
f 60/60/60 59/59/59 58/58/58
f 63/63/63 62/62/62 61/61/61
f 66/66/66 65/65/65 64/64/64
f 69/69/69 68/68/68 67/67/67
f 72/72/72 71/71/71 70/70/70
f 75/75/75 74/74/74 73/73/73
f 78/78/78 77/77/77 76/76/76
f 81/81/81 80/80/80 79/79/79
f 84/84/84 83/83/83 82/82/82
f 87/87/87 86/86/86 85/85/85
f 90/90/90 89/89/89 88/88/88
f 93/93/93 92/92/92 91/91/91
f 96/96/96 95/95/95 94/94/94
f 99/99/99 98/98/98 97/97/97
f 102/102/102 101/101/101 100/100/100
f 105/105/105 104/104/104 103/103/103
f 108/108/108 107/107/107 106/106/106
f 111/111/111 110/110/110 109/109/109
f 114/114/114 113/113/113 112/112/112
f 117/117/117 116/116/116 115/115/115
f 120/120/120 119/119/119 118/118/118
f 123/123/123 122/122/122 121/121/121
f 126/126/126 125/125/125 124/124/124
f 129/129/129 128/128/128 127/127/127
f 132/132/132 131/131/131 130/130/130
f 135/135/135 134/134/134 133/133/133
f 138/138/138 137/137/137 136/136/136
f 141/141/141 140/140/140 139/139/139
f 144/144/144 143/143/143 142/142/142
f 147/147/147 146/146/146 145/145/145
f 150/150/150 149/149/149 148/148/148
f 153/153/153 152/152/152 151/151/151
f 156/156/156 155/155/155 154/154/154
f 159/159/159 158/158/158 157/157/157
f 162/162/162 161/161/161 160/160/160
f 165/165/165 164/164/164 163/163/163
f 168/168/168 167/167/167 166/166/166
f 171/171/171 170/170/170 169/169/169
f 174/174/174 173/173/173 172/172/172
f 177/177/177 176/176/176 175/175/175
f 180/180/180 179/179/179 178/178/178
f 183/183/183 182/182/182 181/181/181
f 186/186/186 185/185/185 184/184/184
f 189/189/189 188/188/188 187/187/187
f 192/192/192 191/191/191 190/190/190
f 195/195/195 194/194/194 193/193/193
f 198/198/198 197/197/197 196/196/196
f 201/201/201 200/200/200 199/199/199
f 204/204/204 203/203/203 202/202/202
f 207/207/207 206/206/206 205/205/205
f 210/210/210 209/209/209 208/208/208
f 213/213/213 212/212/212 211/211/211
f 216/216/216 215/215/215 214/214/214
f 219/219/219 218/218/218 217/217/217
f 222/222/222 221/221/221 220/220/220
f 225/225/225 224/224/224 223/223/223
f 228/228/228 227/227/227 226/226/226
f 231/231/231 230/230/230 229/229/229
f 229/229/229 232/232/232 231/231/231
f 232/232/232 233/233/233 231/231/231
f 236/236/236 235/235/235 234/234/234
f 234/234/234 237/237/237 236/236/236
f 237/237/237 238/238/238 236/236/236
f 241/241/241 240/240/240 239/239/239
f 242/242/242 241/241/241 239/239/239
f 245/245/245 244/244/244 243/243/243
f 246/246/246 245/245/245 243/243/243
f 249/249/249 248/248/248 247/247/247
f 250/250/250 249/249/249 247/247/247
f 253/253/253 252/252/252 251/251/251
f 254/254/254 253/253/253 251/251/251
f 257/257/257 256/256/256 255/255/255
f 258/258/258 257/257/257 255/255/255
f 261/261/261 260/260/260 259/259/259
f 262/262/262 261/261/261 259/259/259
f 265/265/265 264/264/264 263/263/263
f 266/266/266 265/265/265 263/263/263
f 269/269/269 268/268/268 267/267/267
f 270/270/270 269/269/269 267/267/267
f 273/273/273 272/272/272 271/271/271
f 274/274/274 273/273/273 271/271/271
f 277/277/277 276/276/276 275/275/275
f 278/278/278 277/277/277 275/275/275
f 281/281/281 280/280/280 279/279/279
f 282/282/282 281/281/281 279/279/279
f 285/285/285 284/284/284 283/283/283
f 286/286/286 285/285/285 283/283/283
f 289/289/289 288/288/288 287/287/287
f 290/290/290 289/289/289 287/287/287
f 293/293/293 292/292/292 291/291/291
f 294/294/294 293/293/293 291/291/291
f 297/297/297 296/296/296 295/295/295
f 298/298/298 297/297/297 295/295/295
f 301/301/301 300/300/300 299/299/299
f 302/302/302 301/301/301 299/299/299
f 305/305/305 304/304/304 303/303/303
f 306/306/306 305/305/305 303/303/303
f 309/309/309 308/308/308 307/307/307
f 310/310/310 309/309/309 307/307/307
f 313/313/313 312/312/312 311/311/311
f 314/314/314 313/313/313 311/311/311
f 317/317/317 316/316/316 315/315/315
f 318/318/318 317/317/317 315/315/315
f 321/321/321 320/320/320 319/319/319
f 322/322/322 321/321/321 319/319/319
f 325/325/325 324/324/324 323/323/323
f 326/326/326 325/325/325 323/323/323
f 329/329/329 328/328/328 327/327/327
f 330/330/330 329/329/329 327/327/327
f 333/333/333 332/332/332 331/331/331
f 334/334/334 333/333/333 331/331/331
f 337/337/337 336/336/336 335/335/335
f 338/338/338 337/337/337 335/335/335
f 341/341/341 340/340/340 339/339/339
f 342/342/342 341/341/341 339/339/339
f 345/345/345 344/344/344 343/343/343
f 346/346/346 345/345/345 343/343/343
f 349/349/349 348/348/348 347/347/347
f 350/350/350 349/349/349 347/347/347
f 353/353/353 352/352/352 351/351/351
f 354/354/354 353/353/353 351/351/351
f 357/357/357 356/356/356 355/355/355
f 358/358/358 357/357/357 355/355/355
f 361/361/361 360/360/360 359/359/359
f 362/362/362 361/361/361 359/359/359
f 365/365/365 364/364/364 363/363/363
f 366/366/366 365/365/365 363/363/363
f 369/369/369 368/368/368 367/367/367
f 370/370/370 369/369/369 367/367/367
f 373/373/373 372/372/372 371/371/371
f 374/374/374 373/373/373 371/371/371
f 377/377/377 376/376/376 375/375/375
f 378/378/378 377/377/377 375/375/375
f 381/381/381 380/380/380 379/379/379
f 381/381/381 379/379/379 382/382/382
f 381/381/381 383/383/383 380/380/380
f 381/381/381 382/382/382 384/384/384
f 381/381/381 384/384/384 383/383/383
