g coffeeBag
v -0.7855651 -0.6462361 -0.08436555
v -0.47944254 0.09388298 0.8436896
v -0.41163057 -0.6462361 0.7119406
v -0.9095641 0.097757995 -0.072740674
v -0.77587765 0.73131543 0.020258605
v -0.40969306 0.7235655 0.7991274
v -0.4678176 0.89212674 0.3825683
v -0.721628 -0.09017801 0.40194315
v -0.47944254 0.09000808 0.8824393
v -0.47750503 -0.09792793 0.849502
v -0.73712796 0.09388298 0.40775555
v -0.93862635 0.097757995 -0.088240504
v -0.9134391 -0.09211552 -0.103740394
v 0.4718625 0.5085048 -0.6830483
v -0.31669372 0.13069528 -0.6442986
v 0.47961244 0.09582049 -0.785735
v -0.2701941 0.5162547 -0.5435494
v -0.86693937 0.5026923 -0.057240784
v -0.93862635 0.097757995 -0.088240504
v -0.86693937 0.5026923 -0.057240784
v -0.73712796 0.09388298 0.40775555
v -0.93862635 0.097757995 -0.088240504
v -0.7080657 0.49300486 0.421318
v -0.47944254 0.09000808 0.8824393
v -0.43875533 0.49106735 0.849502
v -0.4678176 0.89212674 0.3825683
v 0.2277394 0.73906547 0.545317
v -0.40969306 0.7235655 0.7991274
v 0.533862 0.89018923 -0.13474017
v 0.82060975 0.72744054 0.20238215
v 0.30136383 0.08807057 0.69837826
v 0.9639836 0.084195554 0.21594459
v 0.9000466 -0.11536533 0.20431966
v 0.2916764 -0.10955286 0.65962857
v -0.47750503 -0.09792793 0.849502
v -0.47944254 0.09000808 0.8824393
v 0.46023756 -0.101802945 -0.7702351
v 0.47961244 0.09582049 -0.785735
v -0.31669372 0.13069528 -0.6442986
v -0.3050689 -0.09599048 -0.61717385
v -0.9134391 -0.09211552 -0.103740394
v -0.93862635 0.097757995 -0.088240504
v 0.9155465 0.09388298 0.19656974
v 0.76442266 -0.6462361 0.18106979
v 0.21998948 -0.6675484 0.53175455
v 0.28198898 0.09388298 0.6828783
v 0.82060975 0.72744054 0.20238215
v -0.41163057 -0.6462361 0.7119406
v 0.2277394 0.73906547 0.545317
v -0.47944254 0.09388298 0.8436896
v -0.40969306 0.7235655 0.7991274
v 0.40211302 -0.6481736 -0.60361147
v 0.21998948 -0.6675484 0.53175455
v 0.76442266 -0.6462361 0.18106979
v -0.2682566 -0.661736 -0.51448715
v -0.7855651 -0.6462361 -0.08436555
v -0.41163057 -0.6462361 0.7119406
v 0.533862 0.89018923 -0.13474017
v 0.46992502 0.73325294 -0.55711186
v 0.82060975 0.72744054 0.20238215
v 0.9155465 0.09388298 0.19656974
v 0.4718625 0.097757995 -0.75473523
v 0.40211302 -0.6481736 -0.60361147
v 0.76442266 -0.6462361 0.18106979
v 0.30136383 0.08807057 0.69837826
v 0.90779656 0.49494237 0.21206957
v 0.9639836 0.084195554 0.21594459
v 0.29555136 0.49494237 0.6673785
v -0.43875533 0.49106735 0.849502
v -0.47944254 0.09000808 0.8824393
v 0.47961244 0.09582049 -0.785735
v 0.73342294 0.49300486 -0.21805197
v 0.4718625 0.5085048 -0.6830483
v 0.75473523 0.084195554 -0.28586394
v 0.9639836 0.084195554 0.21594459
v 0.90779656 0.49494237 0.21206957
v 0.6694859 -0.10761535 -0.30136383
v 0.47961244 0.09582049 -0.785735
v 0.46023756 -0.101802945 -0.7702351
v 0.75473523 0.084195554 -0.28586394
v 0.9000466 -0.11536533 0.20431966
v 0.9639836 0.084195554 0.21594459
v -0.4678176 0.89212674 0.3825683
v 0.533862 0.89018923 -0.13474017
v 0.51642466 1.0006258 -0.15411502
v -0.4658801 1.0180633 0.3476935
v -0.4678176 0.89212674 0.3825683
v -0.4658801 1.0180633 0.3476935
v 0.51642466 1.0006258 -0.15411502
v 0.533862 0.89018923 -0.13474017
v -0.31475633 0.12875777 -0.6113614
v -0.9095641 0.097757995 -0.072740674
v -0.7855651 -0.6462361 -0.08436555
v -0.2682566 -0.661736 -0.51448715
v 0.40211302 -0.6481736 -0.60361147
v 0.4718625 0.097757995 -0.75473523
v -0.77587765 0.73131543 0.020258605
v 0.46992502 0.73325294 -0.55711186
v -0.2236945 0.7468154 -0.41567546
v -0.4678176 0.89212674 0.3825683
v 0.533862 0.89018923 -0.13474017
v -0.31863123 0.13263267 -0.6501111
v -0.28181905 0.49881738 -0.5667993
v -0.5433795 0.33219367 -0.3963006
v -0.6305663 0.11907035 -0.38855064
v 0.055303276 0.35738093 -0.67723584
v -0.44263023 -0.059178233 -0.5106122
v 0.057240784 0.11907035 -0.7353604
v -0.3070063 -0.0824281 -0.6229863
v -0.0590083 -0.022366047 -0.69273573
vt 0.2791659 0.47408748
vt 0.2791659 0.47408748
vt 0.2791659 0.47408748
vt 0.2791659 0.47408748
vt 0.2791659 0.47408748
vt 0.2791659 0.47408748
vt 0.2791659 0.47408748
vt 0.22091344 0.6555662
vt 0.22091344 0.6555662
vt 0.22091344 0.6555662
vt 0.22091344 0.6555662
vt 0.22091344 0.6555662
vt 0.22091344 0.6555662
vt 0.21195154 0.6600472
vt 0.21195154 0.6600472
vt 0.21195154 0.6600472
vt 0.21195154 0.6600472
vt 0.21195154 0.6600472
vt 0.21195154 0.6600472
vt 0.21195154 0.6600472
vt 0.21195154 0.6600472
vt 0.21195154 0.6600472
vt 0.21195154 0.6600472
vt 0.21195154 0.6600472
vt 0.21195154 0.6600472
vt 0.2791659 0.47408748
vt 0.2791659 0.47408748
vt 0.2791659 0.47408748
vt 0.2791659 0.47408748
vt 0.2791659 0.47408748
vt 0.22091344 0.6555662
vt 0.22091344 0.6555662
vt 0.22091344 0.6555662
vt 0.22091344 0.6555662
vt 0.22091344 0.6555662
vt 0.22091344 0.6555662
vt 0.22091344 0.6555662
vt 0.22091344 0.6555662
vt 0.22091344 0.6555662
vt 0.22091344 0.6555662
vt 0.22091344 0.6555662
vt 0.22091344 0.6555662
vt 0.2791659 0.47408748
vt 0.2791659 0.47408748
vt 0.2791659 0.47408748
vt 0.2791659 0.47408748
vt 0.2791659 0.47408748
vt 0.2791659 0.47408748
vt 0.2791659 0.47408748
vt 0.2791659 0.47408748
vt 0.2791659 0.47408748
vt 0.2791659 0.47408748
vt 0.2791659 0.47408748
vt 0.2791659 0.47408748
vt 0.2791659 0.47408748
vt 0.2791659 0.47408748
vt 0.2791659 0.47408748
vt 0.2791659 0.47408748
vt 0.2791659 0.47408748
vt 0.2791659 0.47408748
vt 0.2791659 0.47408748
vt 0.2791659 0.47408748
vt 0.2791659 0.47408748
vt 0.2791659 0.47408748
vt 0.21195154 0.6600472
vt 0.21195154 0.6600472
vt 0.21195154 0.6600472
vt 0.21195154 0.6600472
vt 0.21195154 0.6600472
vt 0.21195154 0.6600472
vt 0.21195154 0.6600472
vt 0.21195154 0.6600472
vt 0.21195154 0.6600472
vt 0.21195154 0.6600472
vt 0.21195154 0.6600472
vt 0.21195154 0.6600472
vt 0.22091344 0.6555662
vt 0.22091344 0.6555662
vt 0.22091344 0.6555662
vt 0.22091344 0.6555662
vt 0.22091344 0.6555662
vt 0.22091344 0.6555662
vt 0.2791659 0.47408748
vt 0.2791659 0.47408748
vt 0.2791659 0.47408748
vt 0.2791659 0.47408748
vt 0.22091344 0.093206204
vt 0.22091344 0.093206204
vt 0.22091344 0.093206204
vt 0.22091344 0.093206204
vt 0.2791659 0.47408748
vt 0.2791659 0.47408748
vt 0.2791659 0.47408748
vt 0.2791659 0.47408748
vt 0.2791659 0.47408748
vt 0.2791659 0.47408748
vt 0.2791659 0.47408748
vt 0.2791659 0.47408748
vt 0.2791659 0.47408748
vt 0.2791659 0.47408748
vt 0.2791659 0.47408748
vt 0.28364685 0.08872525
vt 0.28364685 0.08872525
vt 0.28364685 0.08872525
vt 0.28364685 0.08872525
vt 0.28364685 0.08872525
vt 0.28364685 0.08872525
vt 0.28364685 0.08872525
vt 0.28364685 0.08872525
vt 0.28364685 0.08872525
vn -0.89815366 -0.1598286 0.4096032
vn -0.89815366 -0.0042429566 0.4396612
vn -0.89815366 -0.1598286 0.4096032
vn -0.89815366 -0.035360098 0.4382575
vn -0.8670366 0.21357691 0.45014715
vn -0.8670366 0.244694 0.4340189
vn -0.71145093 0.6180996 0.33435088
vn -0.89815366 -0.09759438 0.42871356
vn -0.8670366 -0.0042429566 0.4982264
vn -0.8670366 -0.09759438 0.48859277
vn -0.89815366 -0.0042429566 0.4396612
vn -0.92927086 -0.0042429566 0.3693747
vn -0.92927086 -0.12871146 0.34624994
vn -0.18245983 0.244694 -0.95227796
vn -0.43139684 0.08910835 -0.8977508
vn -0.18245983 0.08910835 -0.97916704
vn -0.43139684 0.244694 -0.8683442
vn -0.64921665 0.21357691 -0.7300018
vn -0.64921665 0.057991266 -0.75838953
vn -0.92927086 0.08910835 0.3584904
vn -0.89815366 -0.0042429566 0.4396612
vn -0.92927086 -0.0042429566 0.3693747
vn -0.89815366 0.08910835 0.4305574
vn -0.8670366 -0.0042429566 0.4982264
vn -0.8670366 0.08910835 0.49021146
vn 0.12871146 0.92927086 0.34624994
vn 0.1598286 0.92927086 0.33303225
vn 0.12871146 0.92927086 0.34624994
vn 0.1598286 0.92927086 0.33303225
vn 0.19094574 0.92927086 0.31622046
vn 0.4087656 -0.06647724 0.9102151
vn 0.5954684 -0.06647724 0.8006236
vn 0.5954684 -0.19094574 0.78035706
vn 0.4087656 -0.19094574 0.8924407
vn 0.22206289 -0.19094574 0.9561526
vn 0.22206289 -0.06647724 0.97276354
vn -0.18245983 -0.09759438 -0.9783577
vn -0.18245983 0.08910835 -0.97916704
vn -0.43139684 0.08910835 -0.8977508
vn -0.43139684 -0.09759438 -0.89686793
vn -0.64921665 -0.09759438 -0.75431633
vn -0.64921665 0.057991266 -0.75838953
vn 0.56435126 -0.0042429566 0.82552385
vn 0.56435126 -0.1598286 0.8099151
vn 0.4087656 -0.19094574 0.8924407
vn 0.4087656 -0.0042429566 0.91262954
vn 0.56435126 0.15134263 0.81154364
vn 0.22206289 -0.19094574 0.9561526
vn 0.43988276 0.15134263 0.88521105
vn 0.25318003 -0.035360098 0.96677274
vn 0.2842971 0.12022555 0.9511682
vn 0.035338327 -0.99937534 -0
vn 0.0042429566 -0.99999106 -0
vn 0.035338327 -0.99937534 -0
vn 0.0042429566 -0.99999106 -0
vn -0.026864728 -0.99963915 -0
vn -0.026864728 -0.99963915 -0
vn 0.7199369 0.5869825 -0.3703274
vn 0.87552255 0.244694 -0.41663545
vn 0.87552255 0.244694 -0.41663545
vn 0.9066397 -0.0042429566 -0.4218844
vn 0.9066397 -0.035360098 -0.42042133
vn 0.9066397 -0.1598286 -0.3904603
vn 0.9066397 -0.1598286 -0.3904603
vn 0.4087656 -0.06647724 0.9102151
vn 0.5954684 0.08910835 0.7984216
vn 0.5954684 -0.06647724 0.8006236
vn 0.4087656 0.057991266 0.91079503
vn 0.22206289 0.057991266 0.97330624
vn 0.22206289 -0.06647724 0.97276354
vn 0.87552255 -0.06647724 -0.4785823
vn 0.9066397 0.12022555 -0.40441346
vn 0.87552255 0.12022555 -0.46798083
vn 0.9066397 -0.06647724 -0.4166356
vn 0.9066397 -0.09759438 -0.4104629
vn 0.9066397 0.12022555 -0.40441346
vn 0.87552255 -0.25318003 -0.41153386
vn 0.87552255 -0.06647724 -0.4785823
vn 0.87552255 -0.22206289 -0.42912507
vn 0.9066397 -0.06647724 -0.4166356
vn 0.87552255 -0.31541425 -0.36602473
vn 0.9066397 -0.09759438 -0.4104629
vn -0.46251392 -0.22206289 -0.8583524
vn -0.46251392 -0.22206289 -0.8583524
vn -0.46251392 -0.22206289 -0.8583524
vn -0.46251392 -0.22206289 -0.8583524
vn 0.43988276 0.21357691 0.872289
vn 0.43988276 0.21357691 0.872289
vn 0.43988276 0.21357691 0.872289
vn 0.43988276 0.21357691 0.872289
vn -0.43139684 0.08910835 -0.8977508
vn -0.64921665 0.08910835 -0.7553658
vn -0.64921665 -0.12871146 -0.74963397
vn -0.43139684 -0.12871146 -0.8929334
vn -0.15134263 -0.1598286 -0.97547436
vn -0.18245983 0.08910835 -0.97916704
vn -0.493631 0.68033385 -0.54173267
vn -0.12022555 0.68033385 -0.7229742
vn -0.30692828 0.68033385 -0.6655381
vn -0.15134263 0.96038795 -0.23398812
vn -0.08910835 0.96038795 -0.26403546
vn -0.43139684 0.057991266 -0.9002965
vn -0.43139684 0.244694 -0.8683442
vn -0.6180996 0.244694 -0.74704605
vn -0.64921665 0.08910835 -0.7553658
vn -0.21357691 0.244694 -0.9457853
vn -0.64921665 -0.12871146 -0.74963397
vn -0.21357691 0.08910835 -0.97285384
vn -0.46251392 -0.12871146 -0.87721956
vn -0.244694 -0.12871146 -0.9610194
g coffeeBag_0
f 3/3/3 2/2/2 1/1/1
f 2/2/2 4/4/4 1/1/1
f 5/5/5 4/4/4 2/2/2
f 5/5/5 2/2/2 6/6/6
f 7/7/7 5/5/5 6/6/6
f 10/10/10 9/9/9 8/8/8
f 9/9/9 11/11/11 8/8/8
f 11/11/11 12/12/12 8/8/8
f 12/12/12 13/13/13 8/8/8
f 16/16/16 15/15/15 14/14/14
f 15/15/15 17/17/17 14/14/14
f 18/18/18 17/17/17 15/15/15
f 19/19/19 18/18/18 15/15/15
f 22/22/22 21/21/21 20/20/20
f 21/21/21 23/23/23 20/20/20
f 21/21/21 24/24/24 23/23/23
f 24/24/24 25/25/25 23/23/23
f 28/28/28 27/27/27 26/26/26
f 27/27/27 29/29/29 26/26/26
f 27/27/27 30/30/30 29/29/29
f 33/33/33 32/32/32 31/31/31
f 34/34/34 33/33/33 31/31/31
f 35/35/35 34/34/34 31/31/31
f 36/36/36 35/35/35 31/31/31
f 39/39/39 38/38/38 37/37/37
f 40/40/40 39/39/39 37/37/37
f 40/40/40 41/41/41 39/39/39
f 41/41/41 42/42/42 39/39/39
f 45/45/45 44/44/44 43/43/43
f 46/46/46 45/45/45 43/43/43
f 43/43/43 47/47/47 46/46/46
f 45/45/45 46/46/46 48/48/48
f 47/47/47 49/49/49 46/46/46
f 46/46/46 50/50/50 48/48/48
f 46/46/46 49/49/49 51/51/51
f 50/50/50 46/46/46 51/51/51
f 54/54/54 53/53/53 52/52/52
f 55/55/55 52/52/52 53/53/53
f 56/56/56 55/55/55 53/53/53
f 57/57/57 56/56/56 53/53/53
f 60/60/60 59/59/59 58/58/58
f 59/59/59 60/60/60 61/61/61
f 62/62/62 59/59/59 61/61/61
f 63/63/63 62/62/62 61/61/61
f 64/64/64 63/63/63 61/61/61
f 67/67/67 66/66/66 65/65/65
f 66/66/66 68/68/68 65/65/65
f 65/65/65 68/68/68 69/69/69
f 70/70/70 65/65/65 69/69/69
f 73/73/73 72/72/72 71/71/71
f 72/72/72 74/74/74 71/71/71
f 75/75/75 74/74/74 72/72/72
f 76/76/76 75/75/75 72/72/72
f 79/79/79 78/78/78 77/77/77
f 78/78/78 80/80/80 77/77/77
f 81/81/81 77/77/77 80/80/80
f 82/82/82 81/81/81 80/80/80
f 85/85/85 84/84/84 83/83/83
f 86/86/86 85/85/85 83/83/83
f 89/89/89 88/88/88 87/87/87
f 90/90/90 89/89/89 87/87/87
f 93/93/93 92/92/92 91/91/91
f 94/94/94 93/93/93 91/91/91
f 94/94/94 91/91/91 95/95/95
f 91/91/91 96/96/96 95/95/95
f 92/92/92 97/97/97 91/91/91
f 96/96/96 91/91/91 98/98/98
f 97/97/97 99/99/99 91/91/91
f 91/91/91 99/99/99 98/98/98
f 100/100/100 99/99/99 97/97/97
f 99/99/99 101/101/101 98/98/98
f 100/100/100 101/101/101 99/99/99
f 104/104/104 103/103/103 102/102/102
f 105/105/105 104/104/104 102/102/102
f 102/102/102 103/103/103 106/106/106
f 107/107/107 105/105/105 102/102/102
f 108/108/108 102/102/102 106/106/106
f 109/109/109 107/107/107 102/102/102
f 102/102/102 108/108/108 110/110/110
f 109/109/109 102/102/102 110/110/110
