g coffeeGrinder
v -1.4843149 1.4918404 -0.6148237
v -0.6148234 1.4918404 -1.484315
v 0.61482346 1.4918404 -1.484315
v 1.484315 1.4918404 -0.6148234
v -1.484315 1.4918404 0.61482364
v 1.484315 1.4918404 0.61482334
v 0.6148235 1.4918404 1.484315
v -0.6148234 1.4918404 1.484315
v 1.484315 0 -0.6148234
v 0.61482346 0 -1.484315
v -0.6148234 0 -1.484315
v -1.4843149 0 -0.6148237
v -1.484315 0 0.61482364
v 1.484315 0 0.61482334
v 0.6148235 0 1.484315
v -0.6148234 0 1.484315
v 1.9214394 3.5652003 -0.09797192
v 1.8234646 3.5652003 -0.1385538
v 1.7254909 3.5652003 -0.09797192
v 1.9620174 3.5652003 1.097523E-06
v 1.6849091 3.5652003 1.097523E-06
v 1.9214394 3.5652003 0.09797366
v 1.7254909 3.5652003 0.09797366
v 1.8234646 3.5652003 0.13855557
v 0.70710677 1.4918404 -0.70710677
v -0 1.4918404 -1
v -0.7071069 1.4918404 -0.7071067
v 1 1.4918404 4.371139E-08
v -1 1.4918404 -1.1924881E-08
v -0.7071067 1.4918404 0.7071068
v 0.70710677 1.4918404 0.70710677
v -8.742278E-08 1.4918404 1
v -0.7925575 1.7442198 -0.7925574
v 9.15902E-10 1.7442198 -1.1208456
v 0.7925575 1.7442198 -0.7925574
v -1.1208456 1.7442198 -3.1607698E-08
v 1.1208456 1.7442198 4.6926964E-08
v -0.79255736 1.7442198 0.7925575
v 0.7925575 1.7442198 0.7925574
v -1.1019159E-07 1.7442198 1.1208456
v 1.9712238 3.5652003 0.14555234
v 1.9712238 3.5652003 -0.14554346
v 2.0314999 3.5652003 4.968999E-06
v 1.8256698 3.5652003 -0.20583129
v 1.8256698 3.5652003 0.2058407
v 1.6619639 3.5652003 0.1544733
v 1.6619639 3.5652003 -0.15446848
v 0.7299161 3.5651975 -0.1544705
v 0.7299161 3.5651975 0.15447134
v 0.48587203 3.3641968 -0.15447052
v 0.48532605 3.3641968 0.15447132
v 0.15563941 3.3641968 -0.15447052
v 0.15563941 3.3641968 0.15447132
v -0.008066356 3.3641968 0.2058367
v -0.008066356 3.3641968 -0.2058353
v -0.15362161 3.3641968 -0.14554752
v -0.15362161 3.3641968 0.14554833
v -0.21390599 3.3641968 1.3503507E-07
v -0.12937543 3.4826941 -0.0746949
v 7.450581E-09 3.4826941 -0.14938985
v 0.12937543 3.4826941 -0.07469491
v 0.12937543 3.4826941 0.074694954
v -0.12937543 3.4826941 0.07469493
v -5.609496E-09 3.4826941 0.14938988
v 0.20706004 3.455917 0.119546175
v -7.641974E-09 3.455917 0.23909234
v -7.641974E-09 3.5799599 0.23909234
v 0.20706004 3.5799599 0.119546175
v 0.20706004 3.455917 -0.119546145
v 0.20706004 3.5799599 -0.119546145
v 1.3260138E-08 3.455917 -0.2390923
v 1.3260138E-08 3.5799599 -0.2390923
v -7.641974E-09 3.455917 0.23909234
v -0.20706004 3.5799599 0.11954615
v -7.641974E-09 3.5799599 0.23909234
v -0.20706004 3.455917 0.11954615
v -0.20706004 3.5799599 -0.11954611
v -0.20706004 3.455917 -0.11954611
v -0.20706004 3.455917 -0.11954611
v 1.3260138E-08 3.455917 -0.2390923
v 1.3260138E-08 3.5799599 -0.2390923
v -0.20706004 3.5799599 -0.11954611
v -0.20706004 3.5799599 -0.11954611
v 1.3260138E-08 3.5799599 -0.2390923
v 0.20706004 3.5799599 -0.119546145
v 0.20706004 3.5799599 0.119546175
v -0.20706004 3.5799599 0.11954615
v -7.641974E-09 3.5799599 0.23909234
v 0.20706004 3.455917 -0.119546145
v 1.3260138E-08 3.455917 -0.2390923
v -0.20706004 3.455917 -0.11954611
v 0.20706004 3.455917 0.119546175
v -0.20706004 3.455917 0.11954615
v -7.641974E-09 3.455917 0.23909234
v 0.7874246 3.442274 0.15447134
v 0.5428346 3.2412734 0.15447131
v 0.48532605 3.3641968 0.15447132
v 0.15563941 3.2412734 0.15447131
v 0.7299161 3.5651975 0.15447134
v 0.15563941 3.3641968 0.15447132
v -0.008066356 3.3641968 0.2058367
v -0.008066356 3.2412734 0.20583668
v -0.15362161 3.3641968 0.14554833
v -0.15362161 3.2412734 0.14554831
v -0.21390599 3.3641968 1.3503507E-07
v -0.21390599 3.2412734 1.2248853E-07
v -0.15362161 3.3641968 -0.14554752
v -0.15362161 3.2412734 -0.14554754
v 1.6619639 3.442274 0.1544733
v 1.6619639 3.5652003 0.1544733
v -0.008066356 3.3641968 -0.2058353
v -0.008066356 3.2412734 -0.20583531
v 1.8256698 3.5652003 0.2058407
v 1.8256698 3.442274 0.2058407
v 1.9712238 3.442274 0.14555234
v 1.9712238 3.5652003 0.14555234
v 2.0314999 3.442274 4.956452E-06
v 2.0314999 3.5652003 4.968999E-06
v 1.9712238 3.442274 -0.14554346
v 1.9712238 3.5652003 -0.14554346
v 1.8256698 3.442274 -0.20583129
v 1.8256698 3.5652003 -0.20583129
v 0.15563941 3.2412734 -0.15447053
v 0.15563941 3.3641968 -0.15447052
v 1.6619639 3.442274 -0.15446848
v 1.6619639 3.5652003 -0.15446848
v 0.7299161 3.5651975 -0.1544705
v 0.7874246 3.442274 -0.1544705
v 0.48587203 3.3641968 -0.15447052
v 0.54338056 3.2412734 -0.15447053
v 1.8234646 4.069105 1.1778396E-06
v 1.9670668 4.069105 -0.14359915
v 2.0265434 4.069105 1.1689826E-06
v 1.8234646 4.069105 -0.20308205
v 1.9670668 4.069105 0.1436021
v 1.6798636 4.069105 -0.14359915
v 1.8234646 4.069105 0.20308392
v 1.6203816 4.069105 1.1689826E-06
v 1.6798636 4.069105 0.1436021
v 1.7254909 3.5652003 0.09797366
v 1.8234646 3.6969523 0.13855559
v 1.8234646 3.5652003 0.13855557
v 1.9214394 3.5652003 0.09797366
v 1.9214394 3.6969523 0.09797367
v 1.9620174 3.5652003 1.097523E-06
v 1.9620174 3.6969523 1.1076229E-06
v 1.9214394 3.5652003 -0.09797192
v 1.7254909 3.6969523 0.09797367
v 1.6849091 3.6969523 1.1076229E-06
v 1.6849091 3.5652003 1.097523E-06
v 1.7254909 3.688087 -0.09797192
v 1.7254909 3.5652003 -0.09797192
v 1.8234646 3.688087 -0.13855378
v 1.8234646 3.5652003 -0.1385538
v 1.9214394 3.6969523 -0.09797192
v 1.6416146 3.9085922 -0.18184935
v 1.8234646 3.9085922 -0.2571741
v 2.005312 3.9085922 -0.18184935
v 2.0806344 3.9085922 1.154983E-06
v 2.005312 3.9085922 0.18185009
v 1.8234646 3.9085922 0.25717592
v 1.6416146 3.9085922 0.18185009
v 1.5662897 3.9085922 1.154983E-06
v 1.8234646 4.069105 -0.20308205
v 1.6798636 4.069105 -0.14359915
v 1.9670668 4.069105 -0.14359915
v 1.6203816 4.069105 1.1689826E-06
v 2.0265434 4.069105 1.1689826E-06
v 1.6798636 4.069105 0.1436021
v 1.8234646 4.069105 0.20308392
v 1.9670668 4.069105 0.1436021
v -0.6148234 0 -1.484315
v 0.61482346 0.21013665 -1.484315
v -0.6148234 0.21013665 -1.484315
v -1.4843149 0.21013665 -0.6148237
v 0.61482346 0 -1.484315
v -1.4843149 0 -0.6148237
v 1.484315 0 -0.6148234
v -1.484315 0.21013665 0.61482364
v 1.484315 0.21013665 -0.6148234
v -1.484315 0 0.61482364
v 1.484315 0 0.61482334
v -0.6148234 0.21013665 1.484315
v 1.484315 0.21013665 0.61482334
v -0.6148234 0 1.484315
v 0.6148235 0 1.484315
v 0.6148235 0.21013665 1.484315
v -0.6148234 1.2817037 -1.484315
v 0.61482346 1.4918404 -1.484315
v -0.6148234 1.4918404 -1.484315
v -1.4843149 1.4918404 -0.6148237
v -1.4843149 1.2817037 -0.6148237
v -1.484315 1.4918404 0.61482364
v -1.484315 1.2817037 0.61482364
v -0.6148234 1.4918404 1.484315
v -0.6148234 1.2817037 1.484315
v 0.6148235 1.4918404 1.484315
v 0.6148235 1.2817037 1.484315
v 1.484315 1.4918404 0.61482334
v 1.484315 1.2817037 0.61482334
v 1.484315 1.4918404 -0.6148234
v 1.484315 1.2817037 -0.6148234
v 0.61482346 1.2817037 -1.484315
v -1.3358835 1.1188505 -0.5533413
v -1.3358836 1.1188505 0.55334127
v -0.5533411 1.1188505 -1.3358836
v -0.5533411 1.1188505 1.3358836
v 0.55334115 1.1188505 -1.3358836
v 0.5533412 1.1188505 1.3358836
v 1.3358836 1.1188505 -0.5533411
v 1.3358836 1.1188505 0.55334103
v 1.257732 2.0203202 5.174813E-08
v 1.1208456 1.7442198 4.6926964E-08
v 0.7925575 1.7442198 -0.7925574
v 0.8893509 2.0203202 -0.8893508
v 9.15902E-10 1.7442198 -1.1208456
v 0.8893509 2.0203202 0.8893508
v 0.7925575 1.7442198 0.7925574
v 2.8476057E-09 2.0203202 -1.257732
v -0.7925575 1.7442198 -0.7925574
v -1.2182922E-07 2.0203202 1.257732
v -1.1019159E-07 1.7442198 1.1208456
v -0.8893509 2.0203202 -0.8893508
v -1.1208456 1.7442198 -3.1607698E-08
v -0.8893507 2.0203202 0.8893509
v -0.79255736 1.7442198 0.7925575
v -1.257732 2.0203202 -3.6377802E-08
v 1.4162163 2.9866726 5.6391144E-08
v 1.0014162 2.9866726 -1.0014161
v 1.0014162 2.9866726 1.0014161
v 1.328761E-09 2.9866726 -1.4162163
v -1.3905833E-07 2.9866726 1.4162163
v -1.0014162 2.9866726 -1.0014161
v -1.001416 2.9866726 1.0014162
v -1.4162163 2.9866726 -4.283936E-08
v -1.4162163 2.9866726 -4.283936E-08
v -1.6487406 2.9866726 -2.7837912E-08
v -1.1658357 2.9866726 -1.1658356
v -1.001416 2.9866726 1.0014162
v -1.0014162 2.9866726 -1.0014161
v -1.1658355 2.9866726 1.1658357
v 1.328761E-09 2.9866726 -1.6487406
v -1.3905833E-07 2.9866726 1.4162163
v 1.328761E-09 2.9866726 -1.4162163
v -1.4280869E-07 2.9866726 1.6487406
v 1.1658357 2.9866726 -1.1658356
v 1.0014162 2.9866726 1.0014161
v 1.0014162 2.9866726 -1.0014161
v 1.1658357 2.9866726 1.1658356
v 1.6487406 2.9866726 6.389187E-08
v 1.4162163 2.9866726 5.6391144E-08
v 6.917329E-10 2.6579814 -1.6487406
v -1.2131203 2.8223271 -1.2131202
v -1.1658357 2.6579814 -1.1658356
v -1.5752022E-10 2.8223271 -1.7156112
v 1.1658357 2.6579814 -1.1658356
v -1.7156112 2.8223271 -3.0780086E-08
v -1.6487406 2.6579814 -2.7837912E-08
v 1.2131203 2.8223271 -1.2131202
v 1.6487406 2.6579814 6.389187E-08
v -1.2131201 2.8223271 1.2131203
v -1.1658355 2.6579814 1.1658357
v 1.7156112 2.8223271 6.467012E-08
v 1.1658357 2.6579814 1.1658356
v -1.5014099E-07 2.8223271 1.7156112
v -1.4344572E-07 2.6579814 1.6487406
v 1.2131203 2.8223271 1.2131202
v -1.6487406 2.9866726 -2.7837912E-08
v -1.1658357 2.9866726 -1.1658356
v -1.1658355 2.9866726 1.1658357
v 1.328761E-09 2.9866726 -1.6487406
v -1.4280869E-07 2.9866726 1.6487406
v 1.1658357 2.9866726 -1.1658356
v 1.1658357 2.9866726 1.1658356
v 1.6487406 2.9866726 6.389187E-08
v 1.4988551 2.6579814 5.8083515E-08
v 1.6487406 2.6579814 6.389187E-08
v 1.1658357 2.6579814 -1.1658356
v 1.0598507 2.6579814 -1.0598506
v 1.0598507 2.6579814 1.0598506
v 6.917329E-10 2.6579814 -1.6487406
v 1.1658357 2.6579814 1.1658356
v 6.288481E-10 2.6579814 -1.4988551
v -1.304052E-07 2.6579814 1.4988551
v -1.1658357 2.6579814 -1.1658356
v -1.4344572E-07 2.6579814 1.6487406
v -1.0598507 2.6579814 -1.0598506
v -1.0598505 2.6579814 1.0598507
v -1.6487406 2.6579814 -2.7837912E-08
v -1.1658355 2.6579814 1.1658357
v -1.4988551 2.6579814 -2.5307191E-08
v 0.98525 2.0203202 -0.98525
v 1.0598507 2.6579814 -1.0598506
v 6.288481E-10 2.6579814 -1.4988551
v 1.3933539 2.0203202 5.5044E-08
v 1.4988551 2.6579814 5.8083515E-08
v -6.0227627E-09 2.0203202 -1.3933539
v -1.0598507 2.6579814 -1.0598506
v 0.98525 2.0203202 0.98525
v 1.0598507 2.6579814 1.0598506
v -0.9852501 2.0203202 -0.98524994
v -1.4988551 2.6579814 -2.5307191E-08
v -1.2783362E-07 2.0203202 1.3933539
v -1.304052E-07 2.6579814 1.4988551
v -1.3933539 2.0203202 -2.247701E-08
v -1.0598505 2.6579814 1.0598507
v -0.98524994 2.0203202 0.98525006
v 0.90415287 1.7442198 -0.90415287
v 1.2786653 1.7442198 5.1739796E-08
v 0.90415287 1.7442198 0.90415287
v -9.2066195E-09 1.7442198 -1.2786653
v -1.2099107E-07 1.7442198 1.2786653
v -0.904153 1.7442198 -0.9041528
v -0.9041528 1.7442198 0.9041529
v -1.2786653 1.7442198 -1.9400368E-08
v 0.70710677 1.6705599 0.70710677
v 1 1.6705599 4.371139E-08
v -8.742278E-08 1.6705599 1
v 0.70710677 1.6705599 -0.70710677
v -0.7071067 1.6705599 0.7071068
v -0 1.6705599 -1
v -1 1.6705599 -1.1924881E-08
v -0.7071069 1.6705599 -0.7071067
v -1 1.4918404 -1.1924881E-08
v -0.7071069 1.4918404 -0.7071067
v -0.7071069 1.6705599 -0.7071067
v -1 1.6705599 -1.1924881E-08
v -0 1.6705599 -1
v -0.7071067 1.4918404 0.7071068
v -0 1.4918404 -1
v -0.7071067 1.6705599 0.7071068
v 0.70710677 1.6705599 -0.70710677
v -8.742278E-08 1.4918404 1
v 0.70710677 1.4918404 -0.70710677
v -8.742278E-08 1.6705599 1
v 1 1.6705599 4.371139E-08
v 0.70710677 1.4918404 0.70710677
v 1 1.4918404 4.371139E-08
v 0.70710677 1.6705599 0.70710677
v -0.6148234 0.21013665 -1.484315
v -0.5533411 0.2544402 -1.3358836
v -1.3358835 0.2544402 -0.5533413
v -1.4843149 0.21013665 -0.6148237
v 0.61482346 0.21013665 -1.484315
v -1.3358836 0.2544402 0.55334127
v 0.55334115 0.2544402 -1.3358836
v -1.484315 0.21013665 0.61482364
v 1.484315 0.21013665 -0.6148234
v -0.5533411 0.2544402 1.3358836
v 1.3358836 0.2544402 -0.5533411
v -0.6148234 0.21013665 1.484315
v 1.484315 0.21013665 0.61482334
v 0.5533412 0.2544402 1.3358836
v 1.3358836 0.2544402 0.55334103
v 0.6148235 0.21013665 1.484315
v -1.3358835 0.2544402 -0.5533413
v -1.3358835 1.1188505 -0.5533413
v -1.3358836 1.1188505 0.55334127
v -1.3358836 0.2544402 0.55334127
v -0.5533411 0.2544402 -1.3358836
v -0.5533411 1.1188505 1.3358836
v -0.5533411 1.1188505 -1.3358836
v -0.5533411 0.2544402 1.3358836
v 0.55334115 0.2544402 -1.3358836
v 0.5533412 1.1188505 1.3358836
v 0.55334115 1.1188505 -1.3358836
v 0.5533412 0.2544402 1.3358836
v 1.3358836 0.2544402 -0.5533411
v 1.3358836 1.1188505 0.55334103
v 1.3358836 1.1188505 -0.5533411
v 1.3358836 0.2544402 0.55334103
v -0.12937543 1.4918399 0.07469493
v -0.12937543 1.4918399 -0.0746949
v -0.12937543 3.4826941 -0.0746949
v -0.12937543 3.4826941 0.07469493
v 7.450581E-09 3.4826941 -0.14938985
v -5.609496E-09 1.4918399 0.14938988
v 7.450581E-09 1.4918399 -0.14938985
v -5.609496E-09 3.4826941 0.14938988
v 0.12937543 3.4826941 -0.07469491
v 0.12937543 1.4918399 0.074694954
v 0.12937543 1.4918399 -0.07469491
v 0.12937543 3.4826941 0.074694954
vt 0.21797878 0.3442757
vt 0.21797878 0.3442757
vt 0.21797878 0.3442757
vt 0.21797878 0.3442757
vt 0.21797878 0.3442757
vt 0.21797878 0.3442757
vt 0.21797878 0.3442757
vt 0.21797878 0.3442757
vt 0.21797878 0.3442757
vt 0.21797878 0.3442757
vt 0.21797878 0.3442757
vt 0.21797878 0.3442757
vt 0.21797878 0.3442757
vt 0.21797878 0.3442757
vt 0.21797878 0.3442757
vt 0.21797878 0.3442757
vt 0.21797912 0.34427622
vt 0.21797912 0.34427622
vt 0.21797912 0.34427622
vt 0.21797912 0.34427622
vt 0.21797912 0.34427622
vt 0.21797912 0.34427622
vt 0.21797912 0.34427622
vt 0.21797912 0.34427622
vt 0.6554788 0.09427571
vt 0.6554788 0.09427571
vt 0.6554788 0.09427571
vt 0.6554788 0.09427571
vt 0.6554788 0.09427571
vt 0.6554788 0.09427571
vt 0.6554788 0.09427571
vt 0.6554788 0.09427571
vt 0.6554788 0.09427571
vt 0.6554788 0.09427571
vt 0.6554788 0.09427571
vt 0.6554788 0.09427571
vt 0.6554788 0.09427571
vt 0.6554788 0.09427571
vt 0.6554788 0.09427571
vt 0.6554788 0.09427571
vt 0.65547615 0.09427598
vt 0.65547615 0.09427598
vt 0.65547615 0.09427598
vt 0.65547615 0.09427598
vt 0.65547615 0.09427598
vt 0.65547615 0.09427598
vt 0.65547615 0.09427598
vt 0.65547615 0.09427598
vt 0.65547615 0.09427598
vt 0.65547615 0.09427598
vt 0.65547615 0.09427598
vt 0.65547615 0.09427598
vt 0.65547615 0.09427598
vt 0.65547615 0.09427598
vt 0.65547615 0.09427598
vt 0.65547615 0.09427598
vt 0.65547615 0.09427598
vt 0.65547615 0.09427598
vt 0.65547615 0.09427598
vt 0.65547615 0.09427598
vt 0.65547615 0.09427598
vt 0.65547615 0.09427598
vt 0.65547615 0.09427598
vt 0.65547615 0.09427598
vt 0.65547615 0.09427598
vt 0.65547615 0.09427598
vt 0.65547615 0.09427598
vt 0.65547615 0.09427598
vt 0.65547615 0.09427598
vt 0.65547615 0.09427598
vt 0.65547615 0.09427598
vt 0.65547615 0.09427598
vt 0.65547615 0.09427598
vt 0.65547615 0.09427598
vt 0.65547615 0.09427598
vt 0.65547615 0.09427598
vt 0.65547615 0.09427598
vt 0.65547615 0.09427598
vt 0.65547615 0.09427598
vt 0.65547615 0.09427598
vt 0.65547615 0.09427598
vt 0.65547615 0.09427598
vt 0.65547615 0.09427598
vt 0.65547615 0.09427598
vt 0.65547615 0.09427598
vt 0.65547615 0.09427598
vt 0.65547615 0.09427598
vt 0.65547615 0.09427598
vt 0.65547615 0.09427598
vt 0.65547615 0.09427598
vt 0.65547615 0.09427598
vt 0.65547615 0.09427598
vt 0.65547615 0.09427598
vt 0.65547615 0.09427598
vt 0.65547615 0.09427598
vt 0.65547615 0.09427598
vt 0.65547615 0.09427598
vt 0.65547615 0.09427598
vt 0.65547615 0.09427598
vt 0.65547615 0.09427598
vt 0.65547615 0.09427598
vt 0.65547615 0.09427598
vt 0.65547615 0.09427598
vt 0.65547615 0.09427598
vt 0.65547615 0.09427598
vt 0.65547615 0.09427598
vt 0.65547615 0.09427598
vt 0.65547615 0.09427598
vt 0.65547615 0.09427598
vt 0.65547615 0.09427598
vt 0.65547615 0.09427598
vt 0.65547615 0.09427598
vt 0.65547615 0.09427598
vt 0.65547615 0.09427598
vt 0.65547615 0.09427598
vt 0.65547615 0.09427598
vt 0.65547615 0.09427598
vt 0.65547615 0.09427598
vt 0.65547615 0.09427598
vt 0.65547615 0.09427598
vt 0.65547615 0.09427598
vt 0.65547615 0.09427598
vt 0.65547615 0.09427598
vt 0.65547615 0.09427598
vt 0.65547615 0.09427598
vt 0.65547615 0.09427598
vt 0.65547615 0.09427598
vt 0.65547615 0.09427598
vt 0.65547615 0.09427598
vt 0.65547615 0.09427598
vt 0.21797912 0.34427622
vt 0.21797912 0.34427622
vt 0.21797912 0.34427622
vt 0.21797912 0.34427622
vt 0.21797912 0.34427622
vt 0.21797912 0.34427622
vt 0.21797912 0.34427622
vt 0.21797912 0.34427622
vt 0.21797912 0.34427622
vt 0.21797912 0.34427622
vt 0.21797912 0.34427622
vt 0.21797912 0.34427622
vt 0.21797912 0.34427622
vt 0.21797912 0.34427622
vt 0.21797912 0.34427622
vt 0.21797912 0.34427622
vt 0.21797912 0.34427622
vt 0.21797912 0.34427622
vt 0.21797912 0.34427622
vt 0.21797912 0.34427622
vt 0.21797912 0.34427622
vt 0.21797912 0.34427622
vt 0.21797912 0.34427622
vt 0.21797912 0.34427622
vt 0.21797912 0.34427622
vt 0.21797912 0.34427622
vt 0.21797912 0.34427622
vt 0.21797912 0.34427622
vt 0.21797912 0.34427622
vt 0.21797912 0.34427622
vt 0.21797912 0.34427622
vt 0.21797912 0.34427622
vt 0.21797912 0.34427622
vt 0.21797912 0.34427622
vt 0.21797912 0.34427622
vt 0.21797912 0.34427622
vt 0.21797912 0.34427622
vt 0.21797912 0.34427622
vt 0.21797912 0.34427622
vt 0.21797912 0.34427622
vt 0.21797912 0.34427622
vt 0.21797878 0.3442757
vt 0.21797878 0.3442757
vt 0.21797878 0.3442757
vt 0.21797878 0.3442757
vt 0.21797878 0.3442757
vt 0.21797878 0.3442757
vt 0.21797878 0.3442757
vt 0.21797878 0.3442757
vt 0.21797878 0.3442757
vt 0.21797878 0.3442757
vt 0.21797878 0.3442757
vt 0.21797878 0.3442757
vt 0.21797878 0.3442757
vt 0.21797878 0.3442757
vt 0.21797878 0.3442757
vt 0.21797878 0.3442757
vt 0.21797878 0.3442757
vt 0.21797878 0.3442757
vt 0.21797878 0.3442757
vt 0.21797878 0.3442757
vt 0.21797878 0.3442757
vt 0.21797878 0.3442757
vt 0.21797878 0.3442757
vt 0.21797878 0.3442757
vt 0.21797878 0.3442757
vt 0.21797878 0.3442757
vt 0.21797878 0.3442757
vt 0.21797878 0.3442757
vt 0.21797878 0.3442757
vt 0.21797878 0.3442757
vt 0.21797878 0.3442757
vt 0.21797878 0.3442757
vt 0.21797878 0.3442757
vt 0.21797878 0.3442757
vt 0.21797878 0.3442757
vt 0.21797878 0.3442757
vt 0.21797878 0.3442757
vt 0.21797878 0.3442757
vt 0.21797878 0.3442757
vt 0.21797878 0.3442757
vt 0.6554788 0.09427571
vt 0.6554788 0.09427571
vt 0.6554788 0.09427571
vt 0.6554788 0.09427571
vt 0.6554788 0.09427571
vt 0.6554788 0.09427571
vt 0.6554788 0.09427571
vt 0.6554788 0.09427571
vt 0.6554788 0.09427571
vt 0.6554788 0.09427571
vt 0.6554788 0.09427571
vt 0.6554788 0.09427571
vt 0.6554788 0.09427571
vt 0.6554788 0.09427571
vt 0.6554788 0.09427571
vt 0.6554788 0.09427571
vt 0.6554788 0.09427571
vt 0.6554788 0.09427571
vt 0.6554788 0.09427571
vt 0.6554788 0.09427571
vt 0.6554788 0.09427571
vt 0.6554788 0.09427571
vt 0.6554788 0.09427571
vt 0.6554788 0.09427571
vt 0.6554788 0.09427571
vt 0.6554788 0.09427571
vt 0.6554788 0.09427571
vt 0.6554788 0.09427571
vt 0.6554788 0.09427571
vt 0.6554788 0.09427571
vt 0.6554788 0.09427571
vt 0.6554788 0.09427571
vt 0.6554788 0.09427571
vt 0.6554788 0.09427571
vt 0.6554788 0.09427571
vt 0.6554788 0.09427571
vt 0.6554788 0.09427571
vt 0.6554788 0.09427571
vt 0.6554788 0.09427571
vt 0.6554788 0.09427571
vt 0.6554788 0.09427571
vt 0.6554788 0.09427571
vt 0.6554788 0.09427571
vt 0.6554788 0.09427571
vt 0.6554788 0.09427571
vt 0.6554788 0.09427571
vt 0.6554788 0.09427571
vt 0.6554788 0.09427571
vt 0.6554788 0.09427571
vt 0.6554788 0.09427571
vt 0.6554788 0.09427571
vt 0.6554788 0.09427571
vt 0.6554788 0.09427571
vt 0.6554788 0.09427571
vt 0.6554788 0.09427571
vt 0.6554788 0.09427571
vt 0.6554788 0.09427571
vt 0.6554788 0.09427571
vt 0.6554788 0.09427571
vt 0.6554788 0.09427571
vt 0.6554788 0.09427571
vt 0.6554788 0.09427571
vt 0.6554788 0.09427571
vt 0.6554788 0.09427571
vt 0.6554788 0.09427571
vt 0.6554788 0.09427571
vt 0.6554788 0.09427571
vt 0.6554788 0.09427571
vt 0.6554788 0.09427571
vt 0.6554788 0.09427571
vt 0.6554788 0.09427571
vt 0.6554788 0.09427571
vt 0.6554788 0.09427571
vt 0.6554788 0.09427571
vt 0.6554788 0.09427571
vt 0.6554788 0.09427571
vt 0.6554788 0.09427571
vt 0.6554788 0.09427571
vt 0.6554788 0.09427571
vt 0.6554788 0.09427571
vt 0.6554788 0.09427571
vt 0.6554788 0.09427571
vt 0.6554788 0.09427571
vt 0.6554788 0.09427571
vt 0.6554788 0.09427571
vt 0.6554788 0.09427571
vt 0.6554788 0.09427571
vt 0.6554788 0.09427571
vt 0.6554788 0.09427571
vt 0.6554788 0.09427571
vt 0.6554788 0.09427571
vt 0.6554788 0.09427571
vt 0.6554788 0.09427571
vt 0.6554788 0.09427571
vt 0.6554788 0.09427571
vt 0.6554788 0.09427571
vt 0.6554788 0.09427571
vt 0.6554788 0.09427571
vt 0.6554788 0.09427571
vt 0.6554788 0.09427571
vt 0.6554788 0.09427571
vt 0.6554788 0.09427571
vt 0.6554788 0.09427571
vt 0.6554788 0.09427571
vt 0.6554788 0.09427571
vt 0.6554788 0.09427571
vt 0.6554788 0.09427571
vt 0.6554788 0.09427571
vt 0.6554788 0.09427571
vt 0.6554788 0.09427571
vt 0.6554788 0.09427571
vt 0.6554788 0.09427571
vt 0.6554788 0.09427571
vt 0.6554788 0.09427571
vt 0.6554788 0.09427571
vt 0.6554788 0.09427571
vt 0.6554788 0.09427571
vt 0.6554788 0.09427571
vt 0.6554788 0.09427571
vt 0.6554788 0.09427571
vt 0.6554788 0.09427571
vt 0.6554788 0.09427571
vt 0.6554788 0.09427571
vt 0.6554788 0.09427571
vt 0.6554788 0.09427571
vt 0.6554788 0.09427571
vt 0.6554788 0.09427571
vt 0.6554788 0.09427571
vt 0.21797878 0.3442757
vt 0.21797878 0.3442757
vt 0.21797878 0.3442757
vt 0.21797878 0.3442757
vt 0.21797878 0.3442757
vt 0.21797878 0.3442757
vt 0.21797878 0.3442757
vt 0.21797878 0.3442757
vt 0.21797878 0.3442757
vt 0.21797878 0.3442757
vt 0.21797878 0.3442757
vt 0.21797878 0.3442757
vt 0.21797878 0.3442757
vt 0.21797878 0.3442757
vt 0.21797878 0.3442757
vt 0.21797878 0.3442757
vt 0.21797878 0.3442757
vt 0.21797878 0.3442757
vt 0.21797878 0.3442757
vt 0.21797878 0.3442757
vt 0.21797878 0.3442757
vt 0.21797878 0.3442757
vt 0.21797878 0.3442757
vt 0.21797878 0.3442757
vt 0.21797878 0.3442757
vt 0.21797878 0.3442757
vt 0.21797878 0.3442757
vt 0.21797878 0.3442757
vt 0.21797878 0.3442757
vt 0.21797878 0.3442757
vt 0.21797878 0.3442757
vt 0.21797878 0.3442757
vt 0.65547615 0.09427598
vt 0.65547615 0.09427598
vt 0.65547615 0.09427598
vt 0.65547615 0.09427598
vt 0.65547615 0.09427598
vt 0.65547615 0.09427598
vt 0.65547615 0.09427598
vt 0.65547615 0.09427598
vt 0.65547615 0.09427598
vt 0.65547615 0.09427598
vt 0.65547615 0.09427598
vt 0.65547615 0.09427598
vn -0 1 0
vn -0 1 0
vn -0 1 0
vn -0 1 0
vn -0 1 0
vn -0 1 0
vn -0 1 0
vn -0 1 0
vn -0 -1 0
vn -0 -1 0
vn -0 -1 0
vn -0 -1 0
vn -0 -1 0
vn -0 -1 0
vn -0 -1 0
vn -0 -1 0
vn -0 -1 0
vn -0 -1 0
vn -0 -1 0
vn -0 -1 0
vn -0 -1 0
vn -0 -1 0
vn -0 -1 0
vn -0 -1 0
vn -0 -1 0
vn -0 -1 0
vn -0 -1 0
vn -0 -1 0
vn -0 -1 0
vn -0 -1 0
vn -0 -1 0
vn -0 -1 0
vn -0 1 0
vn -0 1 0
vn -0 1 0
vn -0 1 0
vn -0 1 0
vn -0 1 0
vn -0 1 0
vn -0 1 0
vn -0 1 0
vn -0 1 0
vn -0 1 0
vn -0 1 0
vn -0 1 0
vn -0 1 0
vn -0 1 0
vn -0.33746088 0.94133955 -0.00029816083
vn -0.3374604 0.9413397 -0.00029816042
vn -0.33779547 0.94121957 -0.00029845804
vn -0.33712262 0.9414607 -0.00029786353
vn -0 1 0
vn -0 1 0
vn -0 1 0
vn -0 1 0
vn -0 1 0
vn -0 1 0
vn -0 1 0
vn -0 1 0
vn -0 1 0
vn -0 1 0
vn -0 1 0
vn -0 1 0
vn -0 1 0
vn 0.8660256 0 0.49999976
vn 0.50000066 0 0.8660251
vn 0.50000066 0 0.8660251
vn 0.8660256 0 0.49999976
vn 0.8660256 0 -0.4999997
vn 0.8660256 0 -0.4999997
vn 0.50000066 0 -0.866025
vn 0.50000066 0 -0.866025
vn -0.49999997 0 0.86602545
vn -0.86602545 0 0.50000006
vn -0.49999997 0 0.86602545
vn -0.86602545 0 0.50000006
vn -1 0 0
vn -1 0 0
vn -0.4999999 0 -0.86602545
vn -0.4999999 0 -0.86602545
vn -0.4999999 0 -0.86602545
vn -0.4999999 0 -0.86602545
vn -0 1 0
vn -0 1 0
vn -0 1 0
vn -0 1 0
vn -0 1 0
vn -0 1 0
vn -0 -1 0
vn -0 -1 0
vn -0 -1 0
vn -0 -1 0
vn -0 -1 0
vn -0 -1 0
vn -0 0 1
vn -0 0 1
vn -0 0 1
vn 0.1514342 0 0.9884673
vn -0 0 1
vn 0.15143421 0 0.9884673
vn -0.04430857 0 0.99901795
vn -0.044308577 0 0.99901795
vn -0.7071089 0 0.7071046
vn -0.7071089 0 0.7071046
vn -1 0 0
vn -1 0 0
vn -0.70710725 0 -0.7071063
vn -0.70710725 0 -0.7071063
vn -0.15144083 0 0.9884664
vn -0.15144098 0 0.9884664
vn -0.04430801 0 -0.99901795
vn -0.044308014 0 -0.99901795
vn 0.044304073 0 0.9990181
vn 0.044304073 0 0.9990181
vn 0.7071269 0 0.7070866
vn 0.7071269 0 0.7070866
vn 1 0 0
vn 1 0 0
vn 0.7071261 0 -0.7070874
vn 0.7071261 0 -0.7070874
vn 0.044315446 0 -0.9990176
vn 0.044315446 0 -0.9990176
vn 0.15143268 0 -0.9884675
vn 0.15143265 0 -0.9884675
vn -0.15142594 0 -0.9884686
vn -0.15142612 0 -0.9884686
vn -0 0 -1
vn -0 0 -1
vn -0 0 -1
vn -0 0 -1
vn -0 1 0
vn -0 1 0
vn -0 1 0
vn -0 1 0
vn -0 1 0
vn -0 1 0
vn -0 1 0
vn -0 1 0
vn -0 1 0
vn -0.7071052 0 0.70710826
vn -0 -0.26914173 0.9631006
vn -0 0 1
vn 0.7071155 0 0.70709807
vn 0.6810245 -0.26914012 0.68100595
vn 1 0 0
vn 0.96310323 -0.2691321 0
vn 0.7071166 0 -0.70709693
vn -0.6810141 -0.2691418 0.6810157
vn -0.9622068 -0.27228394 0.0044208514
vn -1 0 0
vn -0.6863476 -0.2563479 -0.68059736
vn -0.707106 0 -0.7071075
vn 0.0040656393 -0.25634784 -0.96657604
vn -0 0 -1
vn 0.68351895 -0.27228275 -0.6772474
vn -0.7070622 -0.07926453 -0.7026949
vn 0.003089925 -0.079264976 -0.99684876
vn 0.7068755 -0.082445994 -0.70251673
vn 0.9963995 -0.08478221 0
vn 0.7045664 -0.08478369 0.70455515
vn -0 -0.08478344 0.9963994
vn -0.70456153 -0.08478256 0.70456016
vn -0.99659085 -0.08244556 0.0030757152
vn -0 0.3193512 -0.9476365
vn -0.6700811 0.31935143 -0.67007905
vn 0.6700941 0.31934443 -0.6700695
vn -0.947637 0.31934944 0
vn 0.947642 0.31933457 0
vn -0.6700811 0.31934658 0.6700814
vn -0 0.3193452 0.9476385
vn 0.67009425 0.31933942 0.67007166
vn -0.3826834 0 -0.9238795
vn 0.38268343 0 -0.9238795
vn -0.3826834 0 -0.9238795
vn -0.9238795 0 -0.38268355
vn 0.38268343 0 -0.9238795
vn -0.9238795 0 -0.38268355
vn 0.9238795 0 -0.3826834
vn -0.9238795 0 0.38268343
vn 0.9238795 0 -0.3826834
vn -0.9238795 0 0.38268343
vn 0.9238795 0 0.38268334
vn -0.38268334 0 0.9238795
vn 0.9238795 0 0.38268334
vn -0.38268334 0 0.9238795
vn 0.3826835 0 0.9238795
vn 0.3826835 0 0.9238795
vn -0.3584141 -0.3504499 -0.86528844
vn 0.38268346 0 -0.9238795
vn -0.3826833 0 -0.9238795
vn -0.92387944 0 -0.38268358
vn -0.86528844 -0.35044992 -0.35841438
vn -0.9238795 0 0.38268334
vn -0.86528844 -0.35044998 0.3584142
vn -0.38268346 0 0.9238795
vn -0.35841414 -0.35045 0.86528844
vn 0.3826835 0 0.9238795
vn 0.3584143 -0.35044995 0.86528844
vn 0.9238795 0 0.38268334
vn 0.86528844 -0.35044992 0.35841414
vn 0.9238795 0 -0.3826834
vn 0.86528844 -0.35044995 -0.35841414
vn 0.3584143 -0.35044998 -0.86528844
vn -0.6576934 -0.70229894 -0.2724255
vn -0.6576932 -0.7022992 0.27242547
vn -0.2724255 -0.70229906 -0.6576933
vn -0.27242526 -0.7022992 0.6576932
vn 0.2724256 -0.7022991 -0.65769315
vn 0.27242562 -0.70229906 0.65769327
vn 0.6576934 -0.70229906 -0.27242535
vn 0.6576934 -0.70229894 0.2724254
vn -0.9550843 0.2963342 0
vn -0.8959325 0.44419014 0
vn -0.63351995 0.44419017 0.63352
vn -0.6753466 0.2963342 0.6753466
vn -0 0.44419014 0.8959325
vn -0.6753466 0.2963341 -0.67534655
vn -0.63351995 0.44419017 -0.63352
vn -0 0.2963342 0.9550843
vn 0.63351995 0.44419017 0.63352
vn -0 0.29633412 -0.9550843
vn -0 0.44419008 -0.8959325
vn 0.6753466 0.29633418 0.6753466
vn 0.8959325 0.44419014 0
vn 0.67534655 0.29633412 -0.6753467
vn 0.63351995 0.4441901 -0.63352007
vn 0.9550843 0.29633415 0
vn -0.98681694 0.16184054 0
vn -0.69778496 0.16184059 0.697785
vn -0.697785 0.16184047 -0.69778496
vn -0 0.16184057 0.98681694
vn -0 0.16184051 -0.98681694
vn 0.697785 0.16184053 0.69778496
vn 0.6977849 0.16184051 -0.697785
vn 0.98681694 0.16184051 0
vn -0 1 0
vn -0 1 0
vn -0 1 0
vn -0 1 0
vn -0 1 0
vn -0 1 0
vn -0 1 0
vn -0 1 0
vn -0 1 0
vn -0 1 0
vn -0 1 0
vn -0 1 0
vn -0 1 0
vn -0 1 0
vn -0 1 0
vn -0 1 0
vn -0 -0.37688553 -0.9262598
vn -0.7071068 0 -0.7071067
vn -0.65496475 -0.3768854 -0.65496445
vn -0 0 -1
vn 0.65496475 -0.3768854 -0.65496445
vn -1 0 0
vn -0.92625993 -0.37688547 0
vn 0.7071068 0 -0.7071067
vn 0.9262598 -0.3768856 0
vn -0.70710665 0 0.7071068
vn -0.65496486 -0.3768852 0.6549646
vn 1 0 0
vn 0.6549645 -0.37688577 0.6549646
vn -0 0 1
vn -0 -0.37688556 0.9262598
vn 0.70710677 0 0.70710677
vn -0.9262597 0.37688577 0
vn -0.65496445 0.3768859 -0.65496457
vn -0.6549643 0.3768857 0.65496475
vn -0 0.37688604 -0.9262597
vn -0 0.37688604 0.9262597
vn 0.65496445 0.37688592 -0.65496457
vn 0.65496445 0.3768862 0.65496445
vn 0.9262597 0.3768858 0
vn -0 -1 0
vn -0 -1 0
vn -0 -1 0
vn -0 -1 0
vn -0 -1 0
vn -0 -1 0
vn -0 -1 0
vn -0 -1 0
vn -0 -1 0
vn -0 -1 0
vn -0 -1 0
vn -0 -1 0
vn -0 -1 0
vn -0 -1 0
vn -0 -1 0
vn -0 -1 0
vn 0.6812193 -0.26810545 -0.6812193
vn 0.6976229 -0.16323127 -0.69762295
vn -0 -0.16323128 -0.9865878
vn 0.9633896 -0.2681055 0
vn 0.9865878 -0.16323124 0
vn -0 -0.2681054 -0.9633896
vn -0.69762295 -0.16323122 -0.69762295
vn 0.68121934 -0.26810545 0.6812193
vn 0.697623 -0.16323124 0.6976229
vn -0.68121934 -0.26810548 -0.6812193
vn -0.9865878 -0.16323118 0
vn -0 -0.2681055 0.9633896
vn -0 -0.16323121 0.9865878
vn -0.9633896 -0.26810548 0
vn -0.69762284 -0.16323112 0.697623
vn -0.6812193 -0.26810548 0.68121934
vn 0.5032907 -0.70242226 -0.5032907
vn 0.7117606 -0.70242214 0
vn 0.5032908 -0.70242214 0.5032907
vn -0 -0.7024222 -0.7117606
vn -0 -0.70242226 0.71176046
vn -0.50329083 -0.7024222 -0.50329065
vn -0.50329065 -0.7024223 0.5032906
vn -0.7117606 -0.70242214 0
vn 0.1807041 -0.9667947 0.18070394
vn 0.2555542 -0.9667947 0
vn -0 -0.96679485 0.255554
vn 0.18070388 -0.96679485 -0.18070394
vn -0.180704 -0.96679485 0.18070394
vn -0 -0.96679485 -0.25555396
vn -0.2555542 -0.9667947 0
vn -0.18070412 -0.96679485 -0.18070391
vn -1 0 0
vn -0.70710677 0 -0.7071067
vn -0.70710677 0 -0.7071067
vn -1 0 0
vn -0 0 -1
vn -0.70710665 0 0.7071068
vn -0 0 -1
vn -0.70710665 0 0.7071068
vn 0.70710677 0 -0.70710677
vn -0 0 1
vn 0.70710677 0 -0.70710677
vn -0 0 1
vn 1 0 0
vn 0.70710677 0 0.70710677
vn 1 0 0
vn 0.70710677 0 0.70710677
vn -0.10173093 0.96401834 -0.24560018
vn -0.10173091 0.96401834 -0.24560018
vn -0.24560006 0.96401834 -0.10173093
vn -0.24560003 0.96401834 -0.10173095
vn 0.10173088 0.96401834 -0.24560006
vn -0.24560003 0.96401846 0.10173086
vn 0.10173088 0.96401834 -0.24560006
vn -0.2456 0.96401846 0.1017309
vn 0.24560009 0.96401834 -0.10173087
vn -0.10173083 0.96401834 0.24560012
vn 0.24560009 0.96401834 -0.10173085
vn -0.10173085 0.96401834 0.24560015
vn 0.24560018 0.96401834 0.101730935
vn 0.10173095 0.96401834 0.24560018
vn 0.24560018 0.96401834 0.10173092
vn 0.10173095 0.96401834 0.24560021
vn -0.92387944 0 -0.38268355
vn -0.92387944 0 -0.38268355
vn -0.9238795 0 0.38268346
vn -0.9238795 0 0.38268346
vn -0.3826834 0 -0.9238795
vn -0.38268334 0 0.9238795
vn -0.3826834 0 -0.9238795
vn -0.38268334 0 0.9238795
vn 0.38268346 0 -0.9238795
vn 0.3826835 0 0.9238795
vn 0.38268346 0 -0.9238795
vn 0.3826835 0 0.9238795
vn 0.9238795 0 -0.3826834
vn 0.9238795 0 0.38268334
vn 0.9238795 0 -0.3826834
vn 0.9238795 0 0.38268334
vn -0.86602545 0 0.5
vn -0.86602545 0 -0.5
vn -0.86602545 0 -0.5
vn -0.86602545 0 0.5
vn -0 0 -1
vn -0 0 1
vn -0 0 -1
vn -0 0 1
vn 0.86602545 0 -0.5
vn 0.86602545 0 0.50000006
vn 0.86602545 0 -0.5
vn 0.86602545 0 0.50000006
g coffeeGrinder_0
f 3/3/3 2/2/2 1/1/1
f 1/1/1 4/4/4 3/3/3
f 1/1/1 5/5/5 4/4/4
f 5/5/5 6/6/6 4/4/4
f 5/5/5 7/7/7 6/6/6
f 5/5/5 8/8/8 7/7/7
f 11/11/11 10/10/10 9/9/9
f 9/9/9 12/12/12 11/11/11
f 9/9/9 13/13/13 12/12/12
f 9/9/9 14/14/14 13/13/13
f 14/14/14 15/15/15 13/13/13
f 15/15/15 16/16/16 13/13/13
f 19/19/19 18/18/18 17/17/17
f 17/17/17 20/20/20 19/19/19
f 20/20/20 21/21/21 19/19/19
f 20/20/20 22/22/22 21/21/21
f 22/22/22 23/23/23 21/21/21
f 22/22/22 24/24/24 23/23/23
f 27/27/27 26/26/26 25/25/25
f 25/25/25 28/28/28 27/27/27
f 28/28/28 29/29/29 27/27/27
f 28/28/28 30/30/30 29/29/29
f 28/28/28 31/31/31 30/30/30
f 31/31/31 32/32/32 30/30/30
f 35/35/35 34/34/34 33/33/33
f 33/33/33 36/36/36 35/35/35
f 36/36/36 37/37/37 35/35/35
f 36/36/36 38/38/38 37/37/37
f 38/38/38 39/39/39 37/37/37
f 38/38/38 40/40/40 39/39/39
f 43/43/43 42/42/42 41/41/41
f 42/42/42 44/44/44 41/41/41
f 44/44/44 45/45/45 41/41/41
f 46/46/46 45/45/45 44/44/44
f 47/47/47 46/46/46 44/44/44
f 47/47/47 48/48/48 46/46/46
f 48/48/48 49/49/49 46/46/46
f 48/48/48 50/50/50 49/49/49
f 50/50/50 51/51/51 49/49/49
f 50/50/50 52/52/52 51/51/51
f 52/52/52 53/53/53 51/51/51
f 53/53/53 52/52/52 54/54/54
f 52/52/52 55/55/55 54/54/54
f 54/54/54 55/55/55 56/56/56
f 57/57/57 54/54/54 56/56/56
f 58/58/58 57/57/57 56/56/56
f 61/61/61 60/60/60 59/59/59
f 59/59/59 62/62/62 61/61/61
f 59/59/59 63/63/63 62/62/62
f 63/63/63 64/64/64 62/62/62
f 67/67/67 66/66/66 65/65/65
f 68/68/68 67/67/67 65/65/65
f 68/68/68 65/65/65 69/69/69
f 70/70/70 68/68/68 69/69/69
f 70/70/70 69/69/69 71/71/71
f 72/72/72 70/70/70 71/71/71
f 75/75/75 74/74/74 73/73/73
f 74/74/74 76/76/76 73/73/73
f 74/74/74 77/77/77 76/76/76
f 77/77/77 78/78/78 76/76/76
f 81/81/81 80/80/80 79/79/79
f 82/82/82 81/81/81 79/79/79
f 85/85/85 84/84/84 83/83/83
f 83/83/83 86/86/86 85/85/85
f 83/83/83 87/87/87 86/86/86
f 87/87/87 88/88/88 86/86/86
f 91/91/91 90/90/90 89/89/89
f 89/89/89 92/92/92 91/91/91
f 92/92/92 93/93/93 91/91/91
f 92/92/92 94/94/94 93/93/93
f 97/97/97 96/96/96 95/95/95
f 96/96/96 97/97/97 98/98/98
f 99/99/99 97/97/97 95/95/95
f 97/97/97 100/100/100 98/98/98
f 100/100/100 101/101/101 98/98/98
f 101/101/101 102/102/102 98/98/98
f 101/101/101 103/103/103 102/102/102
f 103/103/103 104/104/104 102/102/102
f 103/103/103 105/105/105 104/104/104
f 105/105/105 106/106/106 104/104/104
f 105/105/105 107/107/107 106/106/106
f 107/107/107 108/108/108 106/106/106
f 95/95/95 109/109/109 99/99/99
f 109/109/109 110/110/110 99/99/99
f 107/107/107 111/111/111 108/108/108
f 111/111/111 112/112/112 108/108/108
f 110/110/110 109/109/109 113/113/113
f 109/109/109 114/114/114 113/113/113
f 113/113/113 114/114/114 115/115/115
f 116/116/116 113/113/113 115/115/115
f 116/116/116 115/115/115 117/117/117
f 118/118/118 116/116/116 117/117/117
f 118/118/118 117/117/117 119/119/119
f 120/120/120 118/118/118 119/119/119
f 120/120/120 119/119/119 121/121/121
f 122/122/122 120/120/120 121/121/121
f 112/112/112 111/111/111 123/123/123
f 111/111/111 124/124/124 123/123/123
f 122/122/122 121/121/121 125/125/125
f 126/126/126 122/122/122 125/125/125
f 127/127/127 126/126/126 125/125/125
f 128/128/128 127/127/127 125/125/125
f 124/124/124 129/129/129 123/123/123
f 127/127/127 128/128/128 129/129/129
f 129/129/129 130/130/130 123/123/123
f 128/128/128 130/130/130 129/129/129
f 133/133/133 132/132/132 131/131/131
f 132/132/132 134/134/134 131/131/131
f 135/135/135 133/133/133 131/131/131
f 134/134/134 136/136/136 131/131/131
f 137/137/137 135/135/135 131/131/131
f 136/136/136 138/138/138 131/131/131
f 139/139/139 137/137/137 131/131/131
f 138/138/138 139/139/139 131/131/131
f 142/142/142 141/141/141 140/140/140
f 142/142/142 143/143/143 141/141/141
f 143/143/143 144/144/144 141/141/141
f 143/143/143 145/145/145 144/144/144
f 145/145/145 146/146/146 144/144/144
f 145/145/145 147/147/147 146/146/146
f 141/141/141 148/148/148 140/140/140
f 140/140/140 148/148/148 149/149/149
f 150/150/150 140/140/140 149/149/149
f 150/150/150 149/149/149 151/151/151
f 152/152/152 150/150/150 151/151/151
f 152/152/152 151/151/151 153/153/153
f 154/154/154 152/152/152 153/153/153
f 154/154/154 153/153/153 147/147/147
f 147/147/147 155/155/155 146/146/146
f 153/153/153 155/155/155 147/147/147
f 153/153/153 151/151/151 156/156/156
f 151/151/151 149/149/149 156/156/156
f 153/153/153 157/157/157 155/155/155
f 157/157/157 153/153/153 156/156/156
f 155/155/155 158/158/158 146/146/146
f 157/157/157 158/158/158 155/155/155
f 158/158/158 159/159/159 146/146/146
f 146/146/146 159/159/159 144/144/144
f 159/159/159 160/160/160 144/144/144
f 144/144/144 160/160/160 141/141/141
f 160/160/160 161/161/161 141/141/141
f 141/141/141 161/161/161 148/148/148
f 148/148/148 162/162/162 149/149/149
f 161/161/161 162/162/162 148/148/148
f 149/149/149 163/163/163 156/156/156
f 162/162/162 163/163/163 149/149/149
f 157/157/157 156/156/156 164/164/164
f 156/156/156 165/165/165 164/164/164
f 156/156/156 163/163/163 165/165/165
f 157/157/157 164/164/164 166/166/166
f 158/158/158 157/157/157 166/166/166
f 163/163/163 167/167/167 165/165/165
f 163/163/163 162/162/162 167/167/167
f 158/158/158 166/166/166 168/168/168
f 162/162/162 169/169/169 167/167/167
f 162/162/162 161/161/161 169/169/169
f 159/159/159 158/158/158 168/168/168
f 161/161/161 170/170/170 169/169/169
f 159/159/159 168/168/168 171/171/171
f 161/161/161 160/160/160 170/170/170
f 160/160/160 159/159/159 171/171/171
f 160/160/160 171/171/171 170/170/170
f 174/174/174 173/173/173 172/172/172
f 174/174/174 172/172/172 175/175/175
f 173/173/173 176/176/176 172/172/172
f 172/172/172 177/177/177 175/175/175
f 178/178/178 176/176/176 173/173/173
f 175/175/175 177/177/177 179/179/179
f 180/180/180 178/178/178 173/173/173
f 177/177/177 181/181/181 179/179/179
f 182/182/182 178/178/178 180/180/180
f 179/179/179 181/181/181 183/183/183
f 184/184/184 182/182/182 180/180/180
f 181/181/181 185/185/185 183/183/183
f 186/186/186 182/182/182 184/184/184
f 183/183/183 185/185/185 187/187/187
f 187/187/187 186/186/186 184/184/184
f 185/185/185 186/186/186 187/187/187
f 190/190/190 189/189/189 188/188/188
f 190/190/190 188/188/188 191/191/191
f 188/188/188 192/192/192 191/191/191
f 191/191/191 192/192/192 193/193/193
f 192/192/192 194/194/194 193/193/193
f 193/193/193 194/194/194 195/195/195
f 194/194/194 196/196/196 195/195/195
f 195/195/195 196/196/196 197/197/197
f 196/196/196 198/198/198 197/197/197
f 197/197/197 198/198/198 199/199/199
f 198/198/198 200/200/200 199/199/199
f 199/199/199 200/200/200 201/201/201
f 201/201/201 202/202/202 189/189/189
f 200/200/200 202/202/202 201/201/201
f 189/189/189 203/203/203 188/188/188
f 202/202/202 203/203/203 189/189/189
f 192/192/192 204/204/204 194/194/194
f 204/204/204 205/205/205 194/194/194
f 194/194/194 205/205/205 196/196/196
f 206/206/206 204/204/204 192/192/192
f 188/188/188 206/206/206 192/192/192
f 205/205/205 207/207/207 196/196/196
f 196/196/196 207/207/207 198/198/198
f 208/208/208 206/206/206 188/188/188
f 203/203/203 208/208/208 188/188/188
f 207/207/207 209/209/209 198/198/198
f 198/198/198 209/209/209 200/200/200
f 210/210/210 208/208/208 203/203/203
f 202/202/202 210/210/210 203/203/203
f 209/209/209 211/211/211 200/200/200
f 211/211/211 210/210/210 202/202/202
f 200/200/200 211/211/211 202/202/202
f 214/214/214 213/213/213 212/212/212
f 215/215/215 214/214/214 212/212/212
f 216/216/216 214/214/214 215/215/215
f 212/212/212 213/213/213 217/217/217
f 213/213/213 218/218/218 217/217/217
f 219/219/219 216/216/216 215/215/215
f 220/220/220 216/216/216 219/219/219
f 217/217/217 218/218/218 221/221/221
f 218/218/218 222/222/222 221/221/221
f 223/223/223 220/220/220 219/219/219
f 224/224/224 220/220/220 223/223/223
f 221/221/221 222/222/222 225/225/225
f 222/222/222 226/226/226 225/225/225
f 226/226/226 224/224/224 227/227/227
f 227/227/227 224/224/224 223/223/223
f 225/225/225 226/226/226 227/227/227
f 215/215/215 212/212/212 228/228/228
f 229/229/229 215/215/215 228/228/228
f 219/219/219 215/215/215 229/229/229
f 228/228/228 212/212/212 230/230/230
f 212/212/212 217/217/217 230/230/230
f 231/231/231 219/219/219 229/229/229
f 223/223/223 219/219/219 231/231/231
f 230/230/230 217/217/217 232/232/232
f 217/217/217 221/221/221 232/232/232
f 233/233/233 223/223/223 231/231/231
f 227/227/227 223/223/223 233/233/233
f 232/232/232 221/221/221 234/234/234
f 221/221/221 225/225/225 234/234/234
f 235/235/235 227/227/227 233/233/233
f 234/234/234 225/225/225 235/235/235
f 225/225/225 227/227/227 235/235/235
f 238/238/238 237/237/237 236/236/236
f 236/236/236 237/237/237 239/239/239
f 240/240/240 238/238/238 236/236/236
f 237/237/237 241/241/241 239/239/239
f 242/242/242 238/238/238 240/240/240
f 239/239/239 241/241/241 243/243/243
f 244/244/244 242/242/242 240/240/240
f 241/241/241 245/245/245 243/243/243
f 246/246/246 242/242/242 244/244/244
f 243/243/243 245/245/245 247/247/247
f 248/248/248 246/246/246 244/244/244
f 245/245/245 249/249/249 247/247/247
f 250/250/250 246/246/246 248/248/248
f 247/247/247 249/249/249 251/251/251
f 251/251/251 250/250/250 248/248/248
f 249/249/249 250/250/250 251/251/251
f 254/254/254 253/253/253 252/252/252
f 253/253/253 255/255/255 252/252/252
f 252/252/252 255/255/255 256/256/256
f 257/257/257 253/253/253 254/254/254
f 258/258/258 257/257/257 254/254/254
f 255/255/255 259/259/259 256/256/256
f 256/256/256 259/259/259 260/260/260
f 261/261/261 257/257/257 258/258/258
f 262/262/262 261/261/261 258/258/258
f 259/259/259 263/263/263 260/260/260
f 260/260/260 263/263/263 264/264/264
f 265/265/265 261/261/261 262/262/262
f 266/266/266 265/265/265 262/262/262
f 264/264/264 267/267/267 266/266/266
f 263/263/263 267/267/267 264/264/264
f 267/267/267 265/265/265 266/266/266
f 257/257/257 268/268/268 253/253/253
f 268/268/268 269/269/269 253/253/253
f 253/253/253 269/269/269 255/255/255
f 270/270/270 268/268/268 257/257/257
f 261/261/261 270/270/270 257/257/257
f 269/269/269 271/271/271 255/255/255
f 255/255/255 271/271/271 259/259/259
f 272/272/272 270/270/270 261/261/261
f 265/265/265 272/272/272 261/261/261
f 271/271/271 273/273/273 259/259/259
f 259/259/259 273/273/273 263/263/263
f 274/274/274 272/272/272 265/265/265
f 267/267/267 274/274/274 265/265/265
f 273/273/273 275/275/275 263/263/263
f 275/275/275 274/274/274 267/267/267
f 263/263/263 275/275/275 267/267/267
f 278/278/278 277/277/277 276/276/276
f 279/279/279 278/278/278 276/276/276
f 276/276/276 277/277/277 280/280/280
f 281/281/281 278/278/278 279/279/279
f 277/277/277 282/282/282 280/280/280
f 283/283/283 281/281/281 279/279/279
f 280/280/280 282/282/282 284/284/284
f 285/285/285 281/281/281 283/283/283
f 282/282/282 286/286/286 284/284/284
f 287/287/287 285/285/285 283/283/283
f 284/284/284 286/286/286 288/288/288
f 289/289/289 285/285/285 287/287/287
f 286/286/286 290/290/290 288/288/288
f 291/291/291 289/289/289 287/287/287
f 288/288/288 290/290/290 291/291/291
f 290/290/290 289/289/289 291/291/291
f 294/294/294 293/293/293 292/292/292
f 292/292/292 293/293/293 295/295/295
f 293/293/293 296/296/296 295/295/295
f 297/297/297 294/294/294 292/292/292
f 298/298/298 294/294/294 297/297/297
f 295/295/295 296/296/296 299/299/299
f 296/296/296 300/300/300 299/299/299
f 301/301/301 298/298/298 297/297/297
f 302/302/302 298/298/298 301/301/301
f 299/299/299 300/300/300 303/303/303
f 300/300/300 304/304/304 303/303/303
f 305/305/305 302/302/302 301/301/301
f 306/306/306 302/302/302 305/305/305
f 304/304/304 306/306/306 307/307/307
f 303/303/303 304/304/304 307/307/307
f 307/307/307 306/306/306 305/305/305
f 297/297/297 292/292/292 308/308/308
f 292/292/292 295/295/295 309/309/309
f 308/308/308 292/292/292 309/309/309
f 295/295/295 299/299/299 310/310/310
f 309/309/309 295/295/295 310/310/310
f 301/301/301 297/297/297 311/311/311
f 311/311/311 297/297/297 308/308/308
f 299/299/299 303/303/303 312/312/312
f 310/310/310 299/299/299 312/312/312
f 305/305/305 301/301/301 313/313/313
f 313/313/313 301/301/301 311/311/311
f 303/303/303 307/307/307 314/314/314
f 312/312/312 303/303/303 314/314/314
f 307/307/307 305/305/305 315/315/315
f 315/315/315 305/305/305 313/313/313
f 314/314/314 307/307/307 315/315/315
f 309/309/309 310/310/310 316/316/316
f 317/317/317 309/309/309 316/316/316
f 308/308/308 309/309/309 317/317/317
f 316/316/316 310/310/310 318/318/318
f 310/310/310 312/312/312 318/318/318
f 319/319/319 308/308/308 317/317/317
f 311/311/311 308/308/308 319/319/319
f 318/318/318 312/312/312 320/320/320
f 312/312/312 314/314/314 320/320/320
f 321/321/321 311/311/311 319/319/319
f 313/313/313 311/311/311 321/321/321
f 320/320/320 314/314/314 322/322/322
f 314/314/314 315/315/315 322/322/322
f 323/323/323 313/313/313 321/321/321
f 322/322/322 315/315/315 323/323/323
f 315/315/315 313/313/313 323/323/323
f 326/326/326 325/325/325 324/324/324
f 327/327/327 326/326/326 324/324/324
f 326/326/326 328/328/328 325/325/325
f 327/327/327 324/324/324 329/329/329
f 328/328/328 330/330/330 325/325/325
f 331/331/331 327/327/327 329/329/329
f 328/328/328 332/332/332 330/330/330
f 331/331/331 329/329/329 333/333/333
f 332/332/332 334/334/334 330/330/330
f 335/335/335 331/331/331 333/333/333
f 332/332/332 336/336/336 334/334/334
f 335/335/335 333/333/333 337/337/337
f 336/336/336 338/338/338 334/334/334
f 339/339/339 335/335/335 337/337/337
f 339/339/339 337/337/337 338/338/338
f 336/336/336 339/339/339 338/338/338
f 342/342/342 341/341/341 340/340/340
f 343/343/343 342/342/342 340/340/340
f 340/340/340 341/341/341 344/344/344
f 345/345/345 342/342/342 343/343/343
f 341/341/341 346/346/346 344/344/344
f 347/347/347 345/345/345 343/343/343
f 344/344/344 346/346/346 348/348/348
f 349/349/349 345/345/345 347/347/347
f 346/346/346 350/350/350 348/348/348
f 351/351/351 349/349/349 347/347/347
f 348/348/348 350/350/350 352/352/352
f 353/353/353 349/349/349 351/351/351
f 350/350/350 354/354/354 352/352/352
f 355/355/355 353/353/353 351/351/351
f 352/352/352 354/354/354 355/355/355
f 354/354/354 353/353/353 355/355/355
f 358/358/358 357/357/357 356/356/356
f 359/359/359 358/358/358 356/356/356
f 356/356/356 357/357/357 360/360/360
f 361/361/361 358/358/358 359/359/359
f 357/357/357 362/362/362 360/360/360
f 363/363/363 361/361/361 359/359/359
f 364/364/364 360/360/360 362/362/362
f 365/365/365 361/361/361 363/363/363
f 366/366/366 364/364/364 362/362/362
f 367/367/367 365/365/365 363/363/363
f 364/364/364 366/366/366 368/368/368
f 369/369/369 365/365/365 367/367/367
f 366/366/366 370/370/370 368/368/368
f 371/371/371 369/369/369 367/367/367
f 368/368/368 370/370/370 371/371/371
f 370/370/370 369/369/369 371/371/371
f 374/374/374 373/373/373 372/372/372
f 375/375/375 374/374/374 372/372/372
f 374/374/374 376/376/376 373/373/373
f 375/375/375 372/372/372 377/377/377
f 376/376/376 378/378/378 373/373/373
f 379/379/379 375/375/375 377/377/377
f 376/376/376 380/380/380 378/378/378
f 379/379/379 377/377/377 381/381/381
f 380/380/380 382/382/382 378/378/378
f 383/383/383 379/379/379 381/381/381
f 383/383/383 381/381/381 382/382/382
f 380/380/380 383/383/383 382/382/382
