g coffeeBean
v -0.0005505681 -0.4605331 0.0005505681
v 0.34890234 -0.37802342 -0.12078726
v 0.31169206 -0.37802342 -0.23403591
v 0.541425 -0.085194826 -0.40552664
v 0.31169206 -0.37802342 -0.23403591
v 0.6029028 -0.085194826 -0.2097683
v 0.25506777 -0.37802342 -0.3213991
v 0.42655852 -0.085194826 -0.601285
v 0.31169206 -0.37802342 -0.23403591
v -0.0005505681 -0.4605331 0.0005505681
v 0.59157795 0.22543001 -0.4637688
v 0.6029028 -0.085194826 -0.2097683
v 0.64334875 0.16718781 -0.2388894
v 0.62555254 -0.085194826 0.0005505681
v 0.34890234 -0.37802342 -0.12078726
v 0.67408764 0.15424508 0.0005505681
v 0.3602272 -0.37802342 0.0005505681
v -0.0005505681 -0.4605331 0.0005505681
v 0.6029028 -0.085194826 0.21248722
v 0.34890234 -0.37802342 0.12350619
v 0.6029028 -0.085194826 0.21248722
v 0.31169206 -0.37802342 0.23675478
v 0.541425 -0.085194826 0.40824556
v -0.0005505681 -0.4605331 0.0005505681
v 0.64334875 0.16718781 0.24160838
v 0.541425 -0.085194826 0.40824556
v 0.59157795 0.22543001 0.46648777
v 0.62878823 0.24160838 0.23837268
v 0.661145 0.21572292 0.0005505681
v 0.2696283 0.31602883 -0.056073785
v 0.64334875 0.16718781 -0.2388894
v 0.62878823 0.24160838 -0.2356537
v 0.59157795 0.22543001 -0.4637688
v 0.601285 0.2804364 -0.45567963
v 0.44435474 0.26102233 -0.6886482
v 0.59157795 0.22543001 -0.4637688
v 0.43464774 0.31602883 -0.67732334
v 0.2696283 0.31602883 -0.056073785
v -0.0005505681 -0.4605331 0.0005505681
v 0.34890234 -0.37802342 0.12350619
v 0.3602272 -0.37802342 0.0005505681
v -0.0005505681 -0.4605331 0.0005505681
v 0.09328401 -0.37802342 0.42927742
v 0.18064725 -0.37802342 0.38559592
v 0.09328401 -0.37802342 0.42927742
v -0.0005505681 -0.4605331 0.0005505681
v -0.0005505681 -0.37802342 0.4454558
v -0.0005505681 -0.4605331 0.0005505681
v -0.31279314 -0.37802342 0.23675478
v -0.25616884 -0.37802342 0.32411802
v 0.62878823 0.24160838 -0.2356537
v 0.2696283 0.31602883 -0.056073785
v 0.601285 0.2804364 -0.45567963
v 0.62878823 0.24160838 -0.2356537
v 0.661145 0.21572292 0.0005505681
v 0.2696283 0.31602883 -0.056073785
v 0.0026851296 0.29499698 -0.32948828
v -0.07982457 0.29499698 0.35000348
v -0.25293314 0.31602883 -0.06092727
v -0.18174839 -0.37802342 0.38559592
v -0.25616884 -0.37802342 0.32411802
v -0.18174839 -0.37802342 0.38559592
v -0.42765963 -0.085194826 0.6040039
v -0.2755829 -0.085194826 0.7172525
v -0.5425261 -0.085194826 0.40824556
v -0.31279314 -0.37802342 0.23675478
v -0.6040039 -0.085194826 0.21248722
v -0.34838557 -0.37802342 0.12350619
v -0.0005505681 -0.4605331 0.0005505681
v -0.4454558 0.26102233 0.69136715
v -0.5619402 0.22219431 0.46648777
v -0.25455105 0.19954455 0.80299795
v -0.2755829 -0.085194826 0.7172525
v -0.11703485 0.19145536 0.8191763
v -0.13483107 -0.085194826 0.74313796
v -0.5651758 0.2788186 0.45839858
v -0.43574882 0.31602883 0.68004227
v -0.6169466 0.2755829 0.25131536
v -0.63474286 0.15586293 0.24160838
v -0.6670996 0.25455105 0.0005505681
v -0.6719531 0.14777374 0.0005505681
v -0.62503576 -0.085194826 0.0005505681
v -0.6040039 -0.085194826 0.21248722
v -0.62988937 0.24646187 -0.2356537
v -0.25293314 0.31602883 -0.06092727
v -0.6719531 0.14777374 0.0005505681
v -0.63474286 0.15586293 -0.2388894
v -0.5651758 0.2788186 -0.45567963
v -0.25293314 0.31602883 -0.06092727
v -0.43574882 0.31602883 -0.67732334
v -0.5619402 0.22219431 -0.4637688
v -0.5619402 0.22219431 -0.4637688
v -0.4454558 0.26102233 -0.6886482
v -0.42765963 -0.085194826 -0.601285
v -0.5425261 -0.085194826 -0.40552664
v -0.6040039 -0.085194826 -0.2097683
v -0.6719531 0.14777374 0.0005505681
v -0.6040039 -0.085194826 -0.2097683
v -0.62503576 -0.085194826 0.0005505681
v -0.34838557 -0.37802342 -0.12078726
v -0.36132824 -0.37802342 0.0005505681
v -0.34838557 -0.37802342 0.12350619
v -0.6040039 -0.085194826 0.21248722
v -0.0005505681 -0.4605331 0.0005505681
v 0.25344992 0.20116234 -0.8083682
v 0.27448183 -0.085194826 -0.7161514
v 0.42655852 -0.085194826 -0.601285
v 0.44435474 0.26102233 -0.6886482
v 0.25344992 0.20116234 -0.8083682
v 0.44435474 0.26102233 -0.6886482
v 0.43464774 0.31602883 -0.67732334
v 0.24859643 0.25778675 -0.809986
v 0.2696283 0.31602883 -0.056073785
v 0.117551565 0.19469106 -0.82940006
v 0.27448183 -0.085194826 -0.7161514
v 0.115933776 0.25293314 -0.82940006
v 0.12240511 0.29499698 -0.32948828
v 0.06901646 0.23513699 -0.81483954
v 0.09813756 0.2270478 -0.30198503
v 0.044748902 0.16718781 -0.8018968
v 0.115933776 0.25293314 -0.82940006
v 0.13372993 -0.085194826 -0.74041903
v 0.117551565 0.19469106 -0.82940006
v 0.18064725 -0.37802342 -0.38287693
v 0.42655852 -0.085194826 -0.601285
v 0.25506777 -0.37802342 -0.3213991
v -0.0005505681 -0.4605331 0.0005505681
v 0.09328401 -0.37802342 -0.42655852
v -0.0005505681 -0.37802342 -0.44273692
v -0.0005505681 -0.085194826 -0.7663044
v -0.09438515 -0.37802342 -0.42655852
v -0.0005505681 -0.085194826 -0.7663044
v 0.13372993 -0.085194826 -0.74041903
v 0.010774314 0.1461559 -0.7695401
v 0.06254512 0.19630885 -0.2906602
v 0.09813756 0.2270478 -0.30198503
v -0.019964576 0.19630885 0.3338251
v -0.03128946 0.17689478 -0.7711579
v -0.13483107 -0.085194826 -0.74041903
v -0.09438515 -0.37802342 -0.42655852
v -0.0005505681 -0.37802342 -0.44273692
v -0.18174839 -0.37802342 -0.38287693
v -0.2755829 -0.085194826 -0.7161514
v -0.0005505681 -0.4605331 0.0005505681
v -0.25616884 -0.37802342 -0.3213991
v -0.31279314 -0.37802342 -0.23403591
v -0.34838557 -0.37802342 -0.12078726
v -0.36132824 -0.37802342 0.0005505681
v 0.015627801 0.2270478 0.3386786
v 0.12240511 0.29499698 -0.32948828
v 0.039895415 0.29499698 0.35000348
v 0.2696283 0.31602883 -0.056073785
v -0.005404055 0.1413024 0.7738769
v 0.023716986 0.1736592 0.7754947
v -0.036142945 0.1720413 0.7787304
v -0.055557013 0.2270478 0.3386786
v -0.0005505681 -0.085194826 0.7690233
v 0.023716986 0.1736592 0.7754947
v -0.0005505681 -0.37802342 0.4454558
v -0.09438515 -0.37802342 0.42927742
v -0.06041056 0.24160838 0.79490876
v -0.113799155 0.24969757 0.8256476
v -0.07982457 0.29499698 0.35000348
v 0.026952684 0.2270478 -0.30198503
v 0.0026851296 0.29499698 -0.32948828
v -0.25293314 0.31602883 -0.06092727
v -0.24969757 0.25455105 0.8127049
v -0.25455105 0.19954455 0.80299795
v -0.24969757 0.25455105 0.8127049
v -0.113799155 0.24969757 0.8256476
v -0.25455105 0.19954455 0.80299795
v -0.4454558 0.26102233 0.69136715
v -0.6169466 0.2755829 0.25131536
v -0.25293314 0.31602883 -0.06092727
v -0.5651758 0.2788186 0.45839858
v 0.44435474 0.26102233 -0.6886482
v 0.42655852 -0.085194826 -0.601285
v 0.541425 -0.085194826 -0.40552664
v 0.59157795 0.22543001 -0.4637688
v 0.31169206 -0.37802342 0.23675478
v 0.42655852 -0.085194826 0.6040039
v 0.541425 -0.085194826 0.40824556
v 0.25506777 -0.37802342 0.32411802
v -0.0005505681 -0.4605331 0.0005505681
v 0.64334875 0.16718781 0.24160838
v 0.59157795 0.22543001 0.46648777
v 0.601285 0.2804364 0.45839858
v 0.62878823 0.24160838 0.23837268
v 0.43464774 0.31602883 0.68004227
v 0.2696283 0.31602883 -0.056073785
v 0.59157795 0.22543001 0.46648777
v 0.541425 -0.085194826 0.40824556
v 0.42655852 -0.085194826 0.6040039
v 0.44435474 0.26102233 0.69136715
v 0.27448183 -0.085194826 0.7172525
v 0.25506777 -0.37802342 0.32411802
v 0.25344992 0.19954455 0.80299795
v 0.18064725 -0.37802342 0.38559592
v -0.0005505681 -0.4605331 0.0005505681
v 0.09328401 -0.37802342 0.42927742
v 0.13372993 -0.085194826 0.74313796
v 0.11431593 0.19145536 0.8191763
v 0.11431593 0.19145536 0.8191763
v 0.11108023 0.24807966 0.8256476
v 0.24859643 0.25455105 0.8127049
v 0.0479846 0.23999047 0.79652655
v 0.2696283 0.31602883 -0.056073785
v 0.039895415 0.29499698 0.35000348
v 0.43464774 0.31602883 0.68004227
v 0.015627801 0.2270478 0.3386786
v -0.0005505681 -0.085194826 0.7690233
v 0.13372993 -0.085194826 0.74313796
v 0.09328401 -0.37802342 0.42927742
v -0.0005505681 -0.37802342 0.4454558
v 0.44435474 0.26102233 0.69136715
v 0.25344992 0.19954455 0.80299795
v 0.59157795 0.22543001 0.46648777
v 0.601285 0.2804364 0.45839858
v -0.0005505681 -0.4605331 0.0005505681
v -0.09438515 -0.37802342 0.42927742
v -0.0005505681 -0.37802342 0.4454558
v -0.18174839 -0.37802342 0.38559592
v -0.13483107 -0.085194826 0.74313796
v -0.5619402 0.22219431 0.46648777
v -0.5425261 -0.085194826 0.40824556
v -0.6040039 -0.085194826 0.21248722
v -0.63474286 0.15586293 0.24160838
v -0.5425261 -0.085194826 -0.40552664
v -0.6040039 -0.085194826 -0.2097683
v -0.31279314 -0.37802342 -0.23403591
v -0.42765963 -0.085194826 -0.601285
v -0.25616884 -0.37802342 -0.3213991
v -0.18174839 -0.37802342 -0.38287693
v -0.4454558 0.26102233 -0.6886482
v -0.25455105 0.20116234 -0.8083682
v -0.13483107 -0.085194826 -0.74041903
v -0.11703485 0.19630885 -0.8245466
v -0.03128946 0.17689478 -0.7711579
v -0.113799155 0.25455105 -0.8229287
v -0.24969757 0.25778675 -0.809986
v -0.25293314 0.31602883 -0.06092727
v -0.05717486 0.24322617 -0.78895414
v 0.0026851296 0.29499698 -0.32948828
v 0.026952684 0.2270478 -0.30198503
v 0.06254512 0.19630885 -0.2906602
v -0.055557013 0.2270478 0.3386786
v -0.019964576 0.19630885 0.3338251
v -0.4454558 0.26102233 -0.6886482
v -0.25455105 0.20116234 -0.8083682
v -0.24969757 0.25778675 -0.809986
v -0.43574882 0.31602883 -0.67732334
v -0.25293314 0.31602883 -0.06092727
v -0.05717486 0.24322617 -0.78895414
v 0.0026851296 0.29499698 -0.32948828
v -0.25293314 0.31602883 -0.06092727
v -0.113799155 0.25455105 -0.8229287
vt 0.65421003 0.8431443
vt 0.65421003 0.8431443
vt 0.65421003 0.8431443
vt 0.65421003 0.8431443
vt 0.65421003 0.8431443
vt 0.65421003 0.8431443
vt 0.65421003 0.8431443
vt 0.65421003 0.8431443
vt 0.65421003 0.8431443
vt 0.65421003 0.8431443
vt 0.65421003 0.8431443
vt 0.65421003 0.8431443
vt 0.65421003 0.8431443
vt 0.65421003 0.8431443
vt 0.65421003 0.8431443
vt 0.65421003 0.8431443
vt 0.65421003 0.8431443
vt 0.65421003 0.8431443
vt 0.65421003 0.8431443
vt 0.65421003 0.8431443
vt 0.65421003 0.8431443
vt 0.65421003 0.8431443
vt 0.65421003 0.8431443
vt 0.65421003 0.8431443
vt 0.65421003 0.8431443
vt 0.65421003 0.8431443
vt 0.65421003 0.8431443
vt 0.65421003 0.8431443
vt 0.65421003 0.8431443
vt 0.65421003 0.8431443
vt 0.65421003 0.8431443
vt 0.65421003 0.8431443
vt 0.65421003 0.8431443
vt 0.65421003 0.8431443
vt 0.65421003 0.8431443
vt 0.65421003 0.8431443
vt 0.65421003 0.8431443
vt 0.65421003 0.8431443
vt 0.65421003 0.8431443
vt 0.65421003 0.8431443
vt 0.65421003 0.8431443
vt 0.65421003 0.8431443
vt 0.65421003 0.8431443
vt 0.65421003 0.8431443
vt 0.65421003 0.8431443
vt 0.65421003 0.8431443
vt 0.65421003 0.8431443
vt 0.65421003 0.8431443
vt 0.65421003 0.8431443
vt 0.65421003 0.8431443
vt 0.65421003 0.8431443
vt 0.65421003 0.8431443
vt 0.65421003 0.8431443
vt 0.65421003 0.8431443
vt 0.65421003 0.8431443
vt 0.65421003 0.8431443
vt 0.65421003 0.8431443
vt 0.65421003 0.8431443
vt 0.65421003 0.8431443
vt 0.65421003 0.8431443
vt 0.65421003 0.8431443
vt 0.65421003 0.8431443
vt 0.65421003 0.8431443
vt 0.65421003 0.8431443
vt 0.65421003 0.8431443
vt 0.65421003 0.8431443
vt 0.65421003 0.8431443
vt 0.65421003 0.8431443
vt 0.65421003 0.8431443
vt 0.65421003 0.8431443
vt 0.65421003 0.8431443
vt 0.65421003 0.8431443
vt 0.65421003 0.8431443
vt 0.65421003 0.8431443
vt 0.65421003 0.8431443
vt 0.65421003 0.8431443
vt 0.65421003 0.8431443
vt 0.65421003 0.8431443
vt 0.65421003 0.8431443
vt 0.65421003 0.8431443
vt 0.65421003 0.8431443
vt 0.65421003 0.8431443
vt 0.65421003 0.8431443
vt 0.65421003 0.8431443
vt 0.65421003 0.8431443
vt 0.65421003 0.8431443
vt 0.65421003 0.8431443
vt 0.65421003 0.8431443
vt 0.65421003 0.8431443
vt 0.65421003 0.8431443
vt 0.65421003 0.8431443
vt 0.65421003 0.8431443
vt 0.65421003 0.8431443
vt 0.65421003 0.8431443
vt 0.65421003 0.8431443
vt 0.65421003 0.8431443
vt 0.65421003 0.8431443
vt 0.65421003 0.8431443
vt 0.65421003 0.8431443
vt 0.65421003 0.8431443
vt 0.65421003 0.8431443
vt 0.65421003 0.8431443
vt 0.65421003 0.8431443
vt 0.65421003 0.8431443
vt 0.65421003 0.8431443
vt 0.65421003 0.8431443
vt 0.65421003 0.8431443
vt 0.65421003 0.8431443
vt 0.65421003 0.8431443
vt 0.65421003 0.8431443
vt 0.65421003 0.8431443
vt 0.65421003 0.8431443
vt 0.65421003 0.8431443
vt 0.65421003 0.8431443
vt 0.65421003 0.8431443
vt 0.65421003 0.8431443
vt 0.65421003 0.8431443
vt 0.65421003 0.8431443
vt 0.65421003 0.8431443
vt 0.65421003 0.8431443
vt 0.65421003 0.8431443
vt 0.65421003 0.8431443
vt 0.65421003 0.8431443
vt 0.65421003 0.8431443
vt 0.65421003 0.8431443
vt 0.65421003 0.8431443
vt 0.65421003 0.8431443
vt 0.65421003 0.8431443
vt 0.65421003 0.8431443
vt 0.65421003 0.8431443
vt 0.65421003 0.8431443
vt 0.65421003 0.8431443
vt 0.65421003 0.8431443
vt 0.65421003 0.8431443
vt 0.65421003 0.8431443
vt 0.65421003 0.8431443
vt 0.65421003 0.8431443
vt 0.65421003 0.8431443
vt 0.65421003 0.8431443
vt 0.65421003 0.8431443
vt 0.65421003 0.8431443
vt 0.65421003 0.8431443
vt 0.65421003 0.8431443
vt 0.65421003 0.8431443
vt 0.65421003 0.8431443
vt 0.65421003 0.8431443
vt 0.65421003 0.8431443
vt 0.65421003 0.8431443
vt 0.65421003 0.8431443
vt 0.65421003 0.8431443
vt 0.65421003 0.8431443
vt 0.65421003 0.8431443
vt 0.65421003 0.8431443
vt 0.65421003 0.8431443
vt 0.65421003 0.8431443
vt 0.65421003 0.8431443
vt 0.65421003 0.8431443
vt 0.65421003 0.8431443
vt 0.65421003 0.8431443
vt 0.65421003 0.8431443
vt 0.65421003 0.8431443
vt 0.65421003 0.8431443
vt 0.65421003 0.8431443
vt 0.65421003 0.8431443
vt 0.65421003 0.8431443
vt 0.65421003 0.8431443
vt 0.65421003 0.8431443
vt 0.65421003 0.8431443
vt 0.65421003 0.8431443
vt 0.65421003 0.8431443
vt 0.65421003 0.8431443
vt 0.65421003 0.8431443
vt 0.65421003 0.8431443
vt 0.65421003 0.8431443
vt 0.65421003 0.8431443
vt 0.65421003 0.8431443
vt 0.65421003 0.8431443
vt 0.65421003 0.8431443
vt 0.65421003 0.8431443
vt 0.65421003 0.8431443
vt 0.65421003 0.8431443
vt 0.65421003 0.8431443
vt 0.65421003 0.8431443
vt 0.65421003 0.8431443
vt 0.65421003 0.8431443
vt 0.65421003 0.8431443
vt 0.65421003 0.8431443
vt 0.65421003 0.8431443
vt 0.65421003 0.8431443
vt 0.65421003 0.8431443
vt 0.65421003 0.8431443
vt 0.65421003 0.8431443
vt 0.65421003 0.8431443
vt 0.65421003 0.8431443
vt 0.65421003 0.8431443
vt 0.65421003 0.8431443
vt 0.65421003 0.8431443
vt 0.65421003 0.8431443
vt 0.65421003 0.8431443
vt 0.65421003 0.8431443
vt 0.65421003 0.8431443
vt 0.65421003 0.8431443
vt 0.65421003 0.8431443
vt 0.65421003 0.8431443
vt 0.65421003 0.8431443
vt 0.65421003 0.8431443
vt 0.65421003 0.8431443
vt 0.65421003 0.8431443
vt 0.65421003 0.8431443
vt 0.65421003 0.8431443
vt 0.65421003 0.8431443
vt 0.65421003 0.8431443
vt 0.65421003 0.8431443
vt 0.65421003 0.8431443
vt 0.65421003 0.8431443
vt 0.65421003 0.8431443
vt 0.65421003 0.8431443
vt 0.65421003 0.8431443
vt 0.65421003 0.8431443
vt 0.65421003 0.8431443
vt 0.65421003 0.8431443
vt 0.65421003 0.8431443
vt 0.65421003 0.8431443
vt 0.65421003 0.8431443
vt 0.65421003 0.8431443
vt 0.65421003 0.8431443
vt 0.65421003 0.8431443
vt 0.65421003 0.8431443
vt 0.65421003 0.8431443
vt 0.65421003 0.8431443
vt 0.65421003 0.8431443
vt 0.65421003 0.8431443
vt 0.65421003 0.8431443
vt 0.65421003 0.8431443
vt 0.65421003 0.8431443
vt 0.65421003 0.8431443
vt 0.65421003 0.8431443
vt 0.65421003 0.8431443
vt 0.65421003 0.8431443
vt 0.65421003 0.8431443
vt 0.65421003 0.8431443
vt 0.65421003 0.8431443
vt 0.65421003 0.8431443
vt 0.65421003 0.8431443
vt 0.65421003 0.8431443
vt 0.65421003 0.8431443
vt 0.65421003 0.8431443
vt 0.65421003 0.8431443
vt 0.65421003 0.8431443
vt 0.65421003 0.8431443
vt 0.65421003 0.8431443
vt 0.65421003 0.8431443
vt 0.65421003 0.8431443
vt 0.65421003 0.8431443
vt 0.65421003 0.8431443
vt 0.65421003 0.8431443
vn -0.015856847 -0.99987435 -0
vn 0.49200922 -0.84116715 -0.22442101
vn 0.4602676 -0.8729088 -0.16181478
vn 0.80942553 -0.4602676 -0.3646698
vn 0.4602676 -0.8729088 -0.16181478
vn 0.8729088 -0.42852598 -0.23322894
vn 0.3650427 -0.8729088 -0.3236882
vn 0.6507174 -0.49200922 -0.5783545
vn 0.4602676 -0.8729088 -0.16181478
vn -0.015856847 -0.99987435 -0
vn 0.9046504 -0.047626376 -0.42348483
vn 0.8729088 -0.42852598 -0.23322894
vn 0.9681337 -0.047626376 -0.24586351
vn 0.903735 -0.42809236 -0
vn 0.49200922 -0.84116715 -0.22442101
vn 0.9998739 -0.015884735 -0
vn 0.52375084 -0.84116715 -0.13462137
vn -0.015856847 -0.99987435 -0
vn 0.8729088 -0.42852598 0.23322894
vn 0.49200922 -0.84116715 0.22442101
vn 0.8729088 -0.42852598 0.23322894
vn 0.4602676 -0.8729088 0.16181478
vn 0.80942553 -0.4602676 0.3646698
vn -0.015856847 -0.99987435 -0
vn 0.9681337 -0.047626376 0.24586351
vn 0.80942553 -0.4602676 0.3646698
vn 0.9046504 -0.047626376 0.42348483
vn 0.74594223 0.6506895 0.1420331
vn 0.76694924 0.6417077 -0
vn 0.015884757 0.9998474 0.007271129
vn 0.9681337 -0.047626376 -0.24586351
vn 0.74594223 0.6506895 -0.1420331
vn 0.9046504 -0.047626376 -0.42348483
vn 0.74594223 0.61894786 -0.24591409
vn 0.7142006 -0.015884757 -0.69976074
vn 0.9046504 -0.047626376 -0.42348483
vn 0.3967843 0.74591434 -0.53495234
vn 0.015884757 0.9998474 0.007271129
vn -0.015856847 -0.99987435 -0
vn 0.49200922 -0.84116715 0.22442101
vn 0.52375084 -0.84116715 -0.13462137
vn -0.015856847 -0.99987435 -0
vn 0.111109674 -0.8729088 0.47506303
vn 0.23807615 -0.9046504 0.35345072
vn 0.111109674 -0.8729088 0.47506303
vn -0.015856847 -0.99987435 -0
vn -0.015856862 -0.8729088 0.48762572
vn -0.015856847 -0.99987435 -0
vn -0.46023965 -0.8729088 0.16189414
vn -0.3650148 -0.8729088 0.3237197
vn 0.74594223 0.6506895 -0.1420331
vn 0.015884757 0.9998474 0.007271129
vn 0.74594223 0.61894786 -0.24591409
vn 0.74594223 0.6506895 -0.1420331
vn 0.76694924 0.6417077 -0
vn 0.015884757 0.9998474 0.007271129
vn 0.61897576 0.77765596 -0.11009172
vn 0.52375084 0.8411392 0.13479592
vn -0.015856862 0.9998474 -0.0073323525
vn -0.23804832 -0.9046504 0.35346952
vn -0.3650148 -0.8729088 0.3237197
vn -0.23804832 -0.9046504 0.35346952
vn -0.6506895 -0.4602676 0.6039511
vn -0.3650148 -0.49200922 0.79037404
vn -0.8093976 -0.42852598 0.40154833
vn -0.46023965 -0.8729088 0.16189414
vn -0.87288094 -0.42852598 0.23333319
vn -0.49198127 -0.84116715 0.22448222
vn -0.015856847 -0.99987435 -0
vn -0.7141727 -0.015884757 0.6997892
vn -0.90462255 -0.015884757 0.42591748
vn -0.3650148 -0.1428513 0.919977
vn -0.3650148 -0.49200922 0.79037404
vn 0.079368055 -0.1428513 0.98655677
vn -0.11108172 -0.49200922 0.86347425
vn -0.7141727 0.6506895 0.25799328
vn -0.42849803 0.74591434 0.5099032
vn -0.7141727 0.6824311 0.15570842
vn -0.9681058 -0.047626376 0.24597342
vn -0.7669379 0.64172137 -0
vn -0.99886745 -0.047579695 -0
vn -0.90372986 -0.42810312 -0
vn -0.87288094 -0.42852598 0.23333319
vn -0.77765596 0.61894786 -0.11024862
vn -0.015856862 0.9998474 -0.0073323525
vn -0.99886745 -0.047579695 -0
vn -0.9681058 -0.047626376 -0.24597342
vn -0.74591434 0.6506895 -0.14217947
vn -0.015856862 0.9998474 -0.0073323525
vn -0.42849803 0.74591434 -0.5099032
vn -0.90462255 -0.047626376 -0.4235443
vn -0.90462255 -0.047626376 -0.4235443
vn -0.7141727 -0.015884757 -0.6997892
vn -0.6506895 -0.4602676 -0.6039511
vn -0.8093976 -0.42852598 -0.40154833
vn -0.87288094 -0.42852598 -0.23333319
vn -0.99886745 -0.047579695 -0
vn -0.87288094 -0.42852598 -0.23333319
vn -0.90372986 -0.42810312 -0
vn -0.49198127 -0.84116715 -0.22448222
vn -0.523723 -0.84116715 -0.13472958
vn -0.49198127 -0.84116715 0.22448222
vn -0.87288094 -0.42852598 0.23333319
vn -0.015856847 -0.99987435 -0
vn 0.3650427 -0.111109674 -0.92433673
vn 0.3650427 -0.52375084 -0.76969403
vn 0.6507174 -0.49200922 -0.5783545
vn 0.7142006 -0.015884757 -0.69976074
vn 0.3650427 -0.111109674 -0.92433673
vn 0.7142006 -0.015884757 -0.69976074
vn 0.3967843 0.74591434 -0.53495234
vn 0.20633453 0.6506895 -0.73077303
vn 0.015884757 0.9998474 0.007271129
vn -0.04759848 -0.111109674 -0.9926676
vn 0.3650427 -0.52375084 -0.76969403
vn -0.0793401 0.6506895 -0.75518763
vn -0.58720624 0.8093976 -0.00802328
vn -0.58720624 0.5554646 -0.58876806
vn -0.8093976 0.5554646 -0.19061646
vn -0.58720624 0.17456508 -0.79038966
vn -0.0793401 0.6506895 -0.75518763
vn 0.111109674 -0.52375084 -0.8445944
vn -0.04759848 -0.111109674 -0.9926676
vn 0.23807615 -0.9046504 -0.35345072
vn 0.6507174 -0.49200922 -0.5783545
vn 0.3650427 -0.8729088 -0.3236882
vn -0.015856847 -0.99987435 -0
vn 0.111109674 -0.8729088 -0.47506303
vn -0.015856862 -0.8729088 -0.48762572
vn 0.015884757 -0.4602676 -0.8876381
vn -0.11108172 -0.8729088 -0.47506955
vn 0.015884757 -0.4602676 -0.8876381
vn 0.111109674 -0.52375084 -0.8445944
vn -0.04759848 0.46023965 -0.8865178
vn -0.047551896 0.9988689 -0
vn -0.8093976 0.5554646 -0.19061646
vn 0.015884757 0.9998474 0.007271129
vn 0.6507174 0.26978993 -0.70977485
vn -0.11108172 -0.52375084 -0.84459805
vn -0.11108172 -0.8729088 -0.47506955
vn -0.015856862 -0.8729088 -0.48762572
vn -0.23804832 -0.9046504 -0.35346952
vn -0.3650148 -0.52375084 -0.76970726
vn -0.015856847 -0.99987435 -0
vn -0.3650148 -0.8729088 -0.3237197
vn -0.46023965 -0.8729088 -0.16189414
vn -0.49198127 -0.84116715 -0.22448222
vn -0.523723 -0.84116715 -0.13472958
vn -0.8344667 0.5510583 -0
vn -0.58720624 0.8093976 -0.00802328
vn -0.58720624 0.8093976 0.00802328
vn 0.015884757 0.9998474 0.007271129
vn -0.015856862 0.30153155 0.9533243
vn -0.6824311 0.23804832 0.69110113
vn 0.6507174 0.26978993 0.70977485
vn 0.8344752 0.5510456 -0
vn -0.015856862 -0.4602676 0.8876386
vn -0.6824311 0.23804832 0.69110113
vn -0.015856862 -0.8729088 0.48762572
vn -0.11108172 -0.8729088 0.47506955
vn 0.58723414 0.61894786 0.52159333
vn 0.111109674 0.58720624 0.8017752
vn 0.52375084 0.8411392 0.13479592
vn 0.80942553 0.58720624 -0.0043775444
vn 0.61897576 0.77765596 -0.11009172
vn -0.015856862 0.9998474 -0.0073323525
vn -0.17456508 0.61894786 0.76578754
vn -0.3650148 -0.1428513 0.919977
vn -0.17456508 0.61894786 0.76578754
vn 0.111109674 0.58720624 0.8017752
vn -0.3650148 -0.1428513 0.919977
vn -0.7141727 -0.015884757 0.6997892
vn -0.7141727 0.6824311 0.15570842
vn -0.015856862 0.9998474 -0.0073323525
vn -0.7141727 0.6506895 0.25799328
vn 0.7142006 -0.015884757 -0.69976074
vn 0.6507174 -0.49200922 -0.5783545
vn 0.80942553 -0.4602676 -0.3646698
vn 0.9046504 -0.047626376 -0.42348483
vn 0.4602676 -0.8729088 0.16181478
vn 0.6507174 -0.49200922 0.5783545
vn 0.80942553 -0.4602676 0.3646698
vn 0.3650427 -0.8729088 0.3236882
vn -0.015856847 -0.99987435 -0
vn 0.9681337 -0.047626376 0.24586351
vn 0.9046504 -0.047626376 0.42348483
vn 0.74594223 0.61894786 0.24591409
vn 0.74594223 0.6506895 0.1420331
vn 0.3967843 0.74591434 0.53495234
vn 0.015884757 0.9998474 0.007271129
vn 0.9046504 -0.047626376 0.42348483
vn 0.80942553 -0.4602676 0.3646698
vn 0.6507174 -0.49200922 0.5783545
vn 0.682459 -0.047626376 0.7293706
vn 0.3650427 -0.49200922 0.79036117
vn 0.3650427 -0.8729088 0.3236882
vn 0.3650427 -0.1428513 0.9199659
vn 0.23807615 -0.9046504 0.35345072
vn -0.015856847 -0.99987435 -0
vn 0.111109674 -0.8729088 0.47506303
vn 0.111109674 -0.49200922 0.8634707
vn -0.04759848 -0.17459291 0.9834895
vn -0.04759848 -0.17459291 0.9834895
vn -0.11108172 0.58720624 0.8017791
vn 0.17459291 0.61894786 0.76578116
vn -0.5554646 0.58720624 0.5887681
vn 0.015884757 0.9998474 0.007271129
vn -0.58720624 0.8093976 0.00802328
vn 0.3967843 0.74591434 0.53495234
vn -0.8344667 0.5510583 -0
vn -0.015856862 -0.4602676 0.8876386
vn 0.111109674 -0.49200922 0.8634707
vn 0.111109674 -0.8729088 0.47506303
vn -0.015856862 -0.8729088 0.48762572
vn 0.682459 -0.047626376 0.7293706
vn 0.3650427 -0.1428513 0.9199659
vn 0.9046504 -0.047626376 0.42348483
vn 0.74594223 0.61894786 0.24591409
vn -0.015856847 -0.99987435 -0
vn -0.11108172 -0.8729088 0.47506955
vn -0.015856862 -0.8729088 0.48762572
vn -0.23804832 -0.9046504 0.35346952
vn -0.11108172 -0.49200922 0.86347425
vn -0.90462255 -0.015884757 0.42591748
vn -0.8093976 -0.42852598 0.40154833
vn -0.87288094 -0.42852598 0.23333319
vn -0.9681058 -0.047626376 0.24597342
vn -0.8093976 -0.42852598 -0.40154833
vn -0.87288094 -0.42852598 -0.23333319
vn -0.46023965 -0.8729088 -0.16189414
vn -0.6506895 -0.4602676 -0.6039511
vn -0.3650148 -0.8729088 -0.3237197
vn -0.23804832 -0.9046504 -0.35346952
vn -0.7141727 -0.015884757 -0.6997892
vn -0.3650148 -0.111109674 -0.92434776
vn -0.11108172 -0.52375084 -0.84459805
vn 0.111109674 -0.111109674 -0.98757744
vn 0.6507174 0.26978993 -0.70977485
vn 0.17459291 0.61894786 -0.76578116
vn -0.17456508 0.6506895 -0.7390062
vn -0.015856862 0.9998474 -0.0073323525
vn 0.58723414 0.61894786 -0.52159333
vn 0.61897576 0.77765596 -0.11009172
vn 0.80942553 0.58720624 -0.0043775444
vn -0.047551896 0.9988689 -0
vn 0.8344752 0.5510456 -0
vn 0.015884757 0.9998474 0.007271129
vn -0.7141727 -0.015884757 -0.6997892
vn -0.3650148 -0.111109674 -0.92434776
vn -0.17456508 0.6506895 -0.7390062
vn -0.42849803 0.74591434 -0.5099032
vn -0.015856862 0.9998474 -0.0073323525
vn 0.58723414 0.61894786 -0.52159333
vn 0.61897576 0.77765596 -0.11009172
vn -0.015856862 0.9998474 -0.0073323525
vn 0.17459291 0.61894786 -0.76578116
g coffeeBean_0
f 3/3/3 2/2/2 1/1/1
f 2/2/2 5/5/5 4/4/4
f 6/6/6 2/2/2 4/4/4
f 8/8/8 4/4/4 7/7/7
f 4/4/4 9/9/9 7/7/7
f 7/7/7 9/9/9 10/10/10
f 12/12/12 4/4/4 11/11/11
f 13/13/13 12/12/12 11/11/11
f 14/14/14 12/12/12 13/13/13
f 12/12/12 14/14/14 15/15/15
f 16/16/16 14/14/14 13/13/13
f 14/14/14 17/17/17 15/15/15
f 17/17/17 18/18/18 15/15/15
f 14/14/14 19/19/19 17/17/17
f 19/19/19 20/20/20 17/17/17
f 21/21/21 14/14/14 16/16/16
f 22/22/22 20/20/20 19/19/19
f 23/23/23 22/22/22 19/19/19
f 20/20/20 22/22/22 24/24/24
f 25/25/25 21/21/21 16/16/16
f 26/26/26 21/21/21 25/25/25
f 27/27/27 26/26/26 25/25/25
f 28/28/28 25/25/25 16/16/16
f 29/29/29 28/28/28 16/16/16
f 28/28/28 29/29/29 30/30/30
f 29/29/29 16/16/16 31/31/31
f 32/32/32 29/29/29 31/31/31
f 32/32/32 31/31/31 33/33/33
f 34/34/34 32/32/32 33/33/33
f 34/34/34 36/36/36 35/35/35
f 37/37/37 34/34/34 35/35/35
f 34/34/34 37/37/37 38/38/38
f 41/41/41 40/40/40 39/39/39
f 44/44/44 43/43/43 42/42/42
f 47/47/47 46/46/46 45/45/45
f 50/50/50 49/49/49 48/48/48
f 53/53/53 52/52/52 51/51/51
f 56/56/56 55/55/55 54/54/54
f 59/59/59 58/58/58 57/57/57
f 61/61/61 18/18/18 60/60/60
f 63/63/63 61/61/61 62/62/62
f 64/64/64 63/63/63 62/62/62
f 63/63/63 65/65/65 61/61/61
f 65/65/65 66/66/66 61/61/61
f 65/65/65 67/67/67 66/66/66
f 67/67/67 68/68/68 66/66/66
f 66/66/66 68/68/68 69/69/69
f 65/65/65 63/63/63 70/70/70
f 71/71/71 65/65/65 70/70/70
f 70/70/70 63/63/63 72/72/72
f 63/63/63 73/73/73 72/72/72
f 72/72/72 73/73/73 74/74/74
f 73/73/73 75/75/75 74/74/74
f 76/76/76 71/71/71 70/70/70
f 77/77/77 76/76/76 70/70/70
f 76/76/76 78/78/78 71/71/71
f 78/78/78 79/79/79 71/71/71
f 78/78/78 80/80/80 79/79/79
f 80/80/80 81/81/81 79/79/79
f 81/81/81 82/82/82 79/79/79
f 82/82/82 83/83/83 79/79/79
f 84/84/84 80/80/80 78/78/78
f 85/85/85 84/84/84 78/78/78
f 80/80/80 84/84/84 86/86/86
f 84/84/84 87/87/87 86/86/86
f 84/84/84 88/88/88 87/87/87
f 88/88/88 84/84/84 89/89/89
f 88/88/88 89/89/89 90/90/90
f 88/88/88 91/91/91 87/87/87
f 88/88/88 90/90/90 92/92/92
f 90/90/90 93/93/93 92/92/92
f 93/93/93 94/94/94 92/92/92
f 94/94/94 95/95/95 92/92/92
f 92/92/92 95/95/95 87/87/87
f 95/95/95 96/96/96 87/87/87
f 87/87/87 98/98/98 97/97/97
f 98/98/98 99/99/99 97/97/97
f 98/98/98 100/100/100 99/99/99
f 100/100/100 101/101/101 99/99/99
f 99/99/99 101/101/101 102/102/102
f 103/103/103 99/99/99 102/102/102
f 101/101/101 104/104/104 102/102/102
f 107/107/107 106/106/106 105/105/105
f 108/108/108 107/107/107 105/105/105
f 111/111/111 110/110/110 109/109/109
f 112/112/112 111/111/111 109/109/109
f 111/111/111 112/112/112 113/113/113
f 112/112/112 109/109/109 114/114/114
f 109/109/109 115/115/115 114/114/114
f 112/112/112 116/116/116 113/113/113
f 116/116/116 112/112/112 114/114/114
f 117/117/117 113/113/113 116/116/116
f 118/118/118 117/117/117 116/116/116
f 119/119/119 117/117/117 118/118/118
f 120/120/120 119/119/119 118/118/118
f 118/118/118 121/121/121 120/120/120
f 115/115/115 122/122/122 114/114/114
f 121/121/121 123/123/123 120/120/120
f 115/115/115 124/124/124 122/122/122
f 115/115/115 125/125/125 124/124/124
f 125/125/125 126/126/126 124/124/124
f 124/124/124 126/126/126 127/127/127
f 124/124/124 128/128/128 122/122/122
f 128/128/128 124/124/124 127/127/127
f 122/122/122 128/128/128 129/129/129
f 128/128/128 127/127/127 129/129/129
f 130/130/130 122/122/122 129/129/129
f 131/131/131 129/129/129 127/127/127
f 132/132/132 120/120/120 123/123/123
f 123/123/123 133/133/133 132/132/132
f 132/132/132 134/134/134 120/120/120
f 134/134/134 135/135/135 120/120/120
f 135/135/135 136/136/136 120/120/120
f 135/135/135 137/137/137 136/136/136
f 138/138/138 134/134/134 132/132/132
f 132/132/132 139/139/139 138/138/138
f 139/139/139 132/132/132 140/140/140
f 132/132/132 141/141/141 140/140/140
f 139/139/139 140/140/140 142/142/142
f 143/143/143 139/139/139 142/142/142
f 140/140/140 144/144/144 142/142/142
f 145/145/145 142/142/142 144/144/144
f 146/146/146 145/145/145 144/144/144
f 147/147/147 146/146/146 144/144/144
f 148/148/148 147/147/147 144/144/144
f 137/137/137 149/149/149 136/136/136
f 136/136/136 149/149/149 150/150/150
f 149/149/149 151/151/151 150/150/150
f 150/150/150 151/151/151 152/152/152
f 137/137/137 153/153/153 149/149/149
f 153/153/153 154/154/154 149/149/149
f 155/155/155 153/153/153 137/137/137
f 156/156/156 155/155/155 137/137/137
f 153/153/153 155/155/155 75/75/75
f 75/75/75 157/157/157 153/153/153
f 158/158/158 153/153/153 157/157/157
f 157/157/157 75/75/75 159/159/159
f 75/75/75 160/160/160 159/159/159
f 155/155/155 74/74/74 75/75/75
f 161/161/161 155/155/155 156/156/156
f 162/162/162 74/74/74 155/155/155
f 161/161/161 162/162/162 155/155/155
f 163/163/163 161/161/161 156/156/156
f 162/162/162 161/161/161 163/163/163
f 163/163/163 156/156/156 164/164/164
f 165/165/165 163/163/163 164/164/164
f 166/166/166 162/162/162 163/163/163
f 167/167/167 162/162/162 166/166/166
f 77/77/77 167/167/167 166/166/166
f 169/169/169 168/168/168 74/74/74
f 170/170/170 169/169/169 74/74/74
f 169/169/169 77/77/77 171/171/171
f 77/77/77 172/172/172 171/171/171
f 77/77/77 174/174/174 173/173/173
f 175/175/175 77/77/77 173/173/173
f 178/178/178 177/177/177 176/176/176
f 179/179/179 178/178/178 176/176/176
f 182/182/182 181/181/181 180/180/180
f 181/181/181 183/183/183 180/180/180
f 183/183/183 184/184/184 180/180/180
f 187/187/187 186/186/186 185/185/185
f 188/188/188 187/187/187 185/185/185
f 187/187/187 188/188/188 189/189/189
f 188/188/188 190/190/190 189/189/189
f 193/193/193 192/192/192 191/191/191
f 194/194/194 193/193/193 191/191/191
f 195/195/195 193/193/193 194/194/194
f 193/193/193 195/195/195 196/196/196
f 197/197/197 195/195/195 194/194/194
f 195/195/195 198/198/198 196/196/196
f 196/196/196 198/198/198 199/199/199
f 200/200/200 198/198/198 195/195/195
f 201/201/201 200/200/200 195/195/195
f 201/201/201 195/195/195 197/197/197
f 202/202/202 201/201/201 197/197/197
f 204/204/204 203/203/203 197/197/197
f 205/205/205 204/204/204 197/197/197
f 204/204/204 206/206/206 203/203/203
f 205/205/205 207/207/207 204/204/204
f 206/206/206 204/204/204 207/207/207
f 208/208/208 206/206/206 207/207/207
f 209/209/209 207/207/207 205/205/205
f 154/154/154 206/206/206 208/208/208
f 206/206/206 154/154/154 203/203/203
f 210/210/210 154/154/154 208/208/208
f 203/203/203 154/154/154 211/211/211
f 211/211/211 212/212/212 203/203/203
f 212/212/212 211/211/211 213/213/213
f 211/211/211 214/214/214 213/213/213
f 209/209/209 205/205/205 215/215/215
f 205/205/205 216/216/216 215/215/215
f 209/209/209 215/215/215 217/217/217
f 218/218/218 209/209/209 217/217/217
f 221/221/221 220/220/220 219/219/219
f 220/220/220 222/222/222 219/219/219
f 222/222/222 220/220/220 223/223/223
f 64/64/64 222/222/222 223/223/223
f 226/226/226 225/225/225 224/224/224
f 227/227/227 226/226/226 224/224/224
f 229/229/229 228/228/228 147/147/147
f 228/228/228 230/230/230 147/147/147
f 228/228/228 231/231/231 230/230/230
f 231/231/231 232/232/232 230/230/230
f 233/233/233 232/232/232 231/231/231
f 143/143/143 233/233/233 231/231/231
f 143/143/143 231/231/231 234/234/234
f 235/235/235 143/143/143 234/234/234
f 236/236/236 143/143/143 235/235/235
f 237/237/237 236/236/236 235/235/235
f 236/236/236 237/237/237 238/238/238
f 239/239/239 237/237/237 235/235/235
f 240/240/240 239/239/239 235/235/235
f 240/240/240 241/241/241 239/239/239
f 239/239/239 242/242/242 237/237/237
f 242/242/242 238/238/238 237/237/237
f 242/242/242 243/243/243 238/238/238
f 243/243/243 244/244/244 238/238/238
f 238/238/238 244/244/244 134/134/134
f 244/244/244 245/245/245 134/134/134
f 244/244/244 246/246/246 245/245/245
f 246/246/246 247/247/247 245/245/245
f 250/250/250 249/249/249 248/248/248
f 251/251/251 250/250/250 248/248/248
f 251/251/251 252/252/252 250/250/250
f 255/255/255 254/254/254 253/253/253
f 256/256/256 255/255/255 253/253/253
