g coffeeCup
v -0.47077405 -0.83466494 -0.27169436
v 0.0008158088 -0.83466494 -0.0008158088
v -0.27169454 -0.83466494 -0.47077382
v -0.54420495 -0.83466494 -0.0008158088
v 0.0008158088 -0.83466494 -0.5442048
v -0.47077405 -0.83466494 0.27169454
v 0.27169436 -0.83466494 -0.47077382
v -0.27169454 -0.83466494 0.47077405
v 0.47077382 -0.83466494 -0.27169436
v -0.0008159876 -0.83466494 0.54420495
v 0.5442048 -0.83466494 -0.0008158088
v 0.27169436 -0.83466494 0.47077405
v 0.47077382 -0.83466494 0.27169454
v 0.6355855 0.8346652 -0.0008158088
v 0.0008158088 0.8346652 -0.0008158088
v 0.55073196 0.8346652 -0.31738472
v 0.55073196 0.8346652 0.31738496
v 0.31738472 0.8346652 -0.55073196
v 0.31738472 0.8346652 0.55073214
v 0.0008158088 0.8346652 -0.6355855
v -0.0008159876 0.8346652 0.63558567
v -0.31738496 0.8346652 -0.55073196
v -0.31738496 0.8346652 0.55073214
v -0.55073214 0.8346652 -0.31738472
v -0.55073214 0.8346652 0.31738496
v -0.63558567 0.8346652 -0.0008158088
v -0.56215477 0.59642255 0.325544
v -0.55073214 0.8346652 0.31738496
v -0.31738496 0.8346652 0.55073214
v -0.325544 0.59642255 0.56215477
v -0.6502719 0.59642255 -0.0008158088
v -0.0008159876 0.8346652 0.63558567
v -0.63558567 0.8346652 -0.0008158088
v -0.0008159876 0.59642255 0.6502719
v -0.56215477 0.59642255 -0.32554376
v 0.31738472 0.8346652 0.55073214
v -0.55073214 0.8346652 -0.31738472
v 0.32554376 0.59642255 0.56215477
v -0.325544 0.59642255 -0.56215453
v 0.55073196 0.8346652 0.31738496
v -0.31738496 0.8346652 -0.55073196
v 0.56215453 0.59642255 0.325544
v 0.0008158088 0.59642255 -0.65027165
v 0.6355855 0.8346652 -0.0008158088
v 0.0008158088 0.8346652 -0.6355855
v 0.65027165 0.59642255 -0.0008158088
v 0.32554376 0.59642255 -0.56215453
v 0.55073196 0.8346652 -0.31738472
v 0.31738472 0.8346652 -0.55073196
v 0.56215453 0.59642255 -0.32554376
v -0.56215477 0.59642255 -0.32554376
v -0.6437447 0.59642255 -0.3712341
v -0.3712343 0.59642255 -0.64374447
v -0.6502719 0.59642255 -0.0008158088
v -0.325544 0.59642255 -0.56215453
v -0.74328446 0.59642255 -0.0008158088
v 0.0008158088 0.59642255 -0.7432842
v -0.56215477 0.59642255 0.325544
v 0.0008158088 0.59642255 -0.65027165
v -0.6437447 0.59642255 0.3712343
v 0.3712341 0.59642255 -0.64374447
v -0.325544 0.59642255 0.56215477
v 0.32554376 0.59642255 -0.56215453
v -0.3712343 0.59642255 0.6437447
v 0.64374447 0.59642255 -0.3712341
v -0.0008159876 0.59642255 0.6502719
v 0.56215453 0.59642255 -0.32554376
v -0.0008159876 0.59642255 0.74328446
v 0.7432842 0.59642255 -0.0008158088
v 0.32554376 0.59642255 0.56215477
v 0.65027165 0.59642255 -0.0008158088
v 0.3712341 0.59642255 0.6437447
v 0.64374447 0.59642255 0.3712343
v 0.56215453 0.59642255 0.325544
v -0.6861714 0.38918412 -0.0008158088
v -0.6796442 0.38918412 0.3924477
v -0.59315896 0.38918412 0.3434937
v -0.78407943 0.38918412 -0.0008158088
v -0.3924477 0.38918412 0.6796442
v -0.59315896 0.38918412 -0.34349352
v -0.3434937 0.38918412 0.59315896
v -0.6796442 0.38918412 -0.3924475
v -0.0008159876 0.38918412 0.78407943
v -0.3434937 0.38918412 -0.5931587
v -0.0008159876 0.38918412 0.6861714
v -0.3924477 0.38918412 -0.67964405
v 0.3924475 0.38918412 0.6796442
v 0.0008158088 0.38918412 -0.6861713
v 0.34349352 0.38918412 0.59315896
v 0.0008158088 0.38918412 -0.7840792
v 0.67964405 0.38918412 0.3924477
v 0.34349352 0.38918412 -0.5931587
v 0.5931587 0.38918412 0.3434937
v 0.3924475 0.38918412 -0.67964405
v 0.7840792 0.38918412 -0.0008158088
v 0.5931587 0.38918412 -0.34349352
v 0.6861713 0.38918412 -0.0008158088
v 0.67964405 0.38918412 -0.3924475
v -0.6796442 0.38918412 -0.3924475
v -0.3924477 0.38918412 -0.67964405
v -0.3712343 0.59642255 -0.64374447
v -0.6437447 0.59642255 -0.3712341
v 0.0008158088 0.59642255 -0.7432842
v -0.78407943 0.38918412 -0.0008158088
v 0.0008158088 0.38918412 -0.7840792
v -0.74328446 0.59642255 -0.0008158088
v 0.3712341 0.59642255 -0.64374447
v -0.6796442 0.38918412 0.3924477
v 0.3924475 0.38918412 -0.67964405
v -0.6437447 0.59642255 0.3712343
v 0.64374447 0.59642255 -0.3712341
v -0.3924477 0.38918412 0.6796442
v 0.67964405 0.38918412 -0.3924475
v -0.3712343 0.59642255 0.6437447
v 0.7432842 0.59642255 -0.0008158088
v -0.0008159876 0.38918412 0.78407943
v 0.7840792 0.38918412 -0.0008158088
v -0.0008159876 0.59642255 0.74328446
v 0.64374447 0.59642255 0.3712343
v 0.3924475 0.38918412 0.6796442
v 0.67964405 0.38918412 0.3924477
v 0.3712341 0.59642255 0.6437447
v 0.5442048 -0.83466494 -0.0008158088
v 0.5931587 0.38918412 0.3434937
v 0.6861713 0.38918412 -0.0008158088
v 0.47077382 -0.83466494 0.27169454
v 0.47077382 -0.83466494 -0.27169436
v 0.34349352 0.38918412 0.59315896
v 0.5931587 0.38918412 -0.34349352
v 0.27169436 -0.83466494 0.47077405
v 0.27169436 -0.83466494 -0.47077382
v -0.0008159876 0.38918412 0.6861714
v 0.34349352 0.38918412 -0.5931587
v -0.0008159876 -0.83466494 0.54420495
v 0.0008158088 -0.83466494 -0.5442048
v -0.3434937 0.38918412 0.59315896
v 0.0008158088 0.38918412 -0.6861713
v -0.27169454 -0.83466494 0.47077405
v -0.27169454 -0.83466494 -0.47077382
v -0.59315896 0.38918412 0.3434937
v -0.3434937 0.38918412 -0.5931587
v -0.47077405 -0.83466494 0.27169454
v -0.47077405 -0.83466494 -0.27169436
v -0.6861714 0.38918412 -0.0008158088
v -0.59315896 0.38918412 -0.34349352
v -0.54420495 -0.83466494 -0.0008158088
vt 0.09555273 0.093078375
vt 0.09555273 0.093078375
vt 0.09555273 0.093078375
vt 0.09555273 0.093078375
vt 0.09555273 0.093078375
vt 0.09555273 0.093078375
vt 0.09555273 0.093078375
vt 0.09555273 0.093078375
vt 0.09555273 0.093078375
vt 0.09555273 0.093078375
vt 0.09555273 0.093078375
vt 0.09555273 0.093078375
vt 0.09555273 0.093078375
vt 0.408558 0.093078375
vt 0.408558 0.093078375
vt 0.408558 0.093078375
vt 0.408558 0.093078375
vt 0.408558 0.093078375
vt 0.408558 0.093078375
vt 0.408558 0.093078375
vt 0.408558 0.093078375
vt 0.408558 0.093078375
vt 0.408558 0.093078375
vt 0.408558 0.093078375
vt 0.408558 0.093078375
vt 0.408558 0.093078375
vt 0.408558 0.093078375
vt 0.408558 0.093078375
vt 0.408558 0.093078375
vt 0.408558 0.093078375
vt 0.408558 0.093078375
vt 0.408558 0.093078375
vt 0.408558 0.093078375
vt 0.408558 0.093078375
vt 0.408558 0.093078375
vt 0.408558 0.093078375
vt 0.408558 0.093078375
vt 0.408558 0.093078375
vt 0.408558 0.093078375
vt 0.408558 0.093078375
vt 0.408558 0.093078375
vt 0.408558 0.093078375
vt 0.408558 0.093078375
vt 0.408558 0.093078375
vt 0.408558 0.093078375
vt 0.408558 0.093078375
vt 0.408558 0.093078375
vt 0.408558 0.093078375
vt 0.408558 0.093078375
vt 0.408558 0.093078375
vt 0.408558 0.093078375
vt 0.408558 0.093078375
vt 0.408558 0.093078375
vt 0.408558 0.093078375
vt 0.408558 0.093078375
vt 0.408558 0.093078375
vt 0.408558 0.093078375
vt 0.408558 0.093078375
vt 0.408558 0.093078375
vt 0.408558 0.093078375
vt 0.408558 0.093078375
vt 0.408558 0.093078375
vt 0.408558 0.093078375
vt 0.408558 0.093078375
vt 0.408558 0.093078375
vt 0.408558 0.093078375
vt 0.408558 0.093078375
vt 0.408558 0.093078375
vt 0.408558 0.093078375
vt 0.408558 0.093078375
vt 0.408558 0.093078375
vt 0.408558 0.093078375
vt 0.408558 0.093078375
vt 0.408558 0.093078375
vt 0.408558 0.093078375
vt 0.408558 0.093078375
vt 0.408558 0.093078375
vt 0.408558 0.093078375
vt 0.408558 0.093078375
vt 0.408558 0.093078375
vt 0.408558 0.093078375
vt 0.408558 0.093078375
vt 0.408558 0.093078375
vt 0.408558 0.093078375
vt 0.408558 0.093078375
vt 0.408558 0.093078375
vt 0.408558 0.093078375
vt 0.408558 0.093078375
vt 0.408558 0.093078375
vt 0.408558 0.093078375
vt 0.408558 0.093078375
vt 0.408558 0.093078375
vt 0.408558 0.093078375
vt 0.408558 0.093078375
vt 0.408558 0.093078375
vt 0.408558 0.093078375
vt 0.408558 0.093078375
vt 0.408558 0.093078375
vt 0.408558 0.093078375
vt 0.408558 0.093078375
vt 0.408558 0.093078375
vt 0.408558 0.093078375
vt 0.408558 0.093078375
vt 0.408558 0.093078375
vt 0.408558 0.093078375
vt 0.408558 0.093078375
vt 0.408558 0.093078375
vt 0.408558 0.093078375
vt 0.408558 0.093078375
vt 0.408558 0.093078375
vt 0.408558 0.093078375
vt 0.408558 0.093078375
vt 0.408558 0.093078375
vt 0.408558 0.093078375
vt 0.408558 0.093078375
vt 0.408558 0.093078375
vt 0.408558 0.093078375
vt 0.408558 0.093078375
vt 0.408558 0.093078375
vt 0.408558 0.093078375
vt 0.408558 0.093078375
vt 0.408558 0.093078375
vt 0.09555273 0.093078375
vt 0.09555273 0.093078375
vt 0.09555273 0.093078375
vt 0.09555273 0.093078375
vt 0.09555273 0.093078375
vt 0.09555273 0.093078375
vt 0.09555273 0.093078375
vt 0.09555273 0.093078375
vt 0.09555273 0.093078375
vt 0.09555273 0.093078375
vt 0.09555273 0.093078375
vt 0.09555273 0.093078375
vt 0.09555273 0.093078375
vt 0.09555273 0.093078375
vt 0.09555273 0.093078375
vt 0.09555273 0.093078375
vt 0.09555273 0.093078375
vt 0.09555273 0.093078375
vt 0.09555273 0.093078375
vt 0.09555273 0.093078375
vt 0.09555273 0.093078375
vt 0.09555273 0.093078375
vt 0.09555273 0.093078375
vt 0.09555273 0.093078375
vn -0.015871048 -0.999874 -0.00034526698
vn -0.015871048 -0.999874 -0.00034526698
vn -0.015871048 -0.999874 -0.00034526698
vn -0.015871048 -0.999874 -0.00034526698
vn -0.015871048 -0.999874 -0.00034526698
vn -0.015871048 -0.999874 -0.00034526698
vn -0.015871048 -0.999874 -0.00034526698
vn -0.015871048 -0.999874 -0.00034526698
vn -0.015871048 -0.999874 -0.00034526698
vn -0.015871048 -0.999874 -0.00034526698
vn -0.015871048 -0.999874 -0.00034526698
vn -0.015871048 -0.999874 -0.00034526698
vn -0.015871048 -0.999874 -0.00034526698
vn -0.015871048 0.999874 -0.00034526698
vn -0.015871048 0.999874 -0.00034526698
vn -0.015871048 0.999874 -0.00034526698
vn -0.015871048 0.999874 -0.00034526698
vn -0.015871048 0.999874 -0.00034526698
vn -0.015871048 0.999874 -0.00034526698
vn -0.015871048 0.999874 -0.00034526698
vn -0.015871048 0.999874 -0.00034526698
vn -0.015871048 0.999874 -0.00034526698
vn -0.015871048 0.999874 -0.00034526698
vn -0.015871048 0.999874 -0.00034526698
vn -0.015871048 0.999874 -0.00034526698
vn -0.015871048 0.999874 -0.00034526698
vn -0.87290585 0.047613025 0.48555985
vn -0.87290585 0.047613025 0.48555985
vn -0.49200153 0.047613025 0.86929137
vn -0.49200153 0.047613025 0.86929137
vn -0.99886817 0.04756513 -0
vn -0.015871048 0.047613025 0.9987398
vn -0.99886817 0.04756513 -0
vn -0.015871048 0.047613025 0.9987398
vn -0.87290585 0.047613025 -0.48555985
vn 0.49200147 0.047613025 0.8692914
vn -0.87290585 0.047613025 -0.48555985
vn 0.49200147 0.047613025 0.8692914
vn -0.49200153 0.047613025 -0.86929137
vn 0.87290585 0.047613025 0.48555985
vn -0.49200153 0.047613025 -0.86929137
vn 0.87290585 0.047613025 0.48555985
vn -0.015871048 0.047613025 -0.9987398
vn 0.99886817 0.04756513 -0
vn -0.015871048 0.047613025 -0.9987398
vn 0.99886817 0.04756513 -0
vn 0.49200147 0.047613025 -0.8692914
vn 0.87290585 0.047613025 -0.48555985
vn 0.49200147 0.047613025 -0.8692914
vn 0.87290585 0.047613025 -0.48555985
vn -0.015871048 0.999874 -0.00034526698
vn -0.015871048 0.999874 -0.00034526698
vn -0.015871048 0.999874 -0.00034526698
vn -0.015871048 0.999874 -0.00034526698
vn -0.015871048 0.999874 -0.00034526698
vn -0.015871048 0.999874 -0.00034526698
vn -0.015871048 0.999874 -0.00034526698
vn -0.015871048 0.999874 -0.00034526698
vn -0.015871048 0.999874 -0.00034526698
vn -0.015871048 0.999874 -0.00034526698
vn -0.015871048 0.999874 -0.00034526698
vn -0.015871048 0.999874 -0.00034526698
vn -0.015871048 0.999874 -0.00034526698
vn -0.015871048 0.999874 -0.00034526698
vn -0.015871048 0.999874 -0.00034526698
vn -0.015871048 0.999874 -0.00034526698
vn -0.015871048 0.999874 -0.00034526698
vn -0.015871048 0.999874 -0.00034526698
vn -0.015871048 0.999874 -0.00034526698
vn -0.015871048 0.999874 -0.00034526698
vn -0.015871048 0.999874 -0.00034526698
vn -0.015871048 0.999874 -0.00034526698
vn -0.015871048 0.999874 -0.00034526698
vn -0.015871048 0.999874 -0.00034526698
vn -0.015871048 -0.999874 -0.00034526698
vn -0.015871048 -0.999874 -0.00034526698
vn -0.015871048 -0.999874 -0.00034526698
vn -0.015871048 -0.999874 -0.00034526698
vn -0.015871048 -0.999874 -0.00034526698
vn -0.015871048 -0.999874 -0.00034526698
vn -0.015871048 -0.999874 -0.00034526698
vn -0.015871048 -0.999874 -0.00034526698
vn -0.015871048 -0.999874 -0.00034526698
vn -0.015871048 -0.999874 -0.00034526698
vn -0.015871048 -0.999874 -0.00034526698
vn -0.015871048 -0.999874 -0.00034526698
vn -0.015871048 -0.999874 -0.00034526698
vn -0.015871048 -0.999874 -0.00034526698
vn -0.015871048 -0.999874 -0.00034526698
vn -0.015871048 -0.999874 -0.00034526698
vn -0.015871048 -0.999874 -0.00034526698
vn -0.015871048 -0.999874 -0.00034526698
vn -0.015871048 -0.999874 -0.00034526698
vn -0.015871048 -0.999874 -0.00034526698
vn -0.015871048 -0.999874 -0.00034526698
vn -0.015871048 -0.999874 -0.00034526698
vn -0.015871048 -0.999874 -0.00034526698
vn -0.015871048 -0.999874 -0.00034526698
vn -0.8411639 0.20632327 -0.49987403
vn -0.49200153 0.20632327 -0.84579265
vn -0.49200153 0.20632327 -0.84579265
vn -0.8411639 0.20632327 -0.49987403
vn -0.015871048 0.20632327 -0.97835517
vn -0.968132 0.20632327 -0.14195466
vn -0.015871048 0.20632327 -0.97835517
vn -0.968132 0.20632327 -0.14195466
vn 0.49200147 0.20632327 -0.8457927
vn -0.8411639 0.20632327 0.49987403
vn 0.49200147 0.20632327 -0.8457927
vn -0.8411639 0.20632327 0.49987403
vn 0.8411638 0.20632327 -0.49987414
vn -0.49200153 0.20632327 0.84579265
vn 0.8411638 0.20632327 -0.49987414
vn -0.49200153 0.20632327 0.84579265
vn 0.96813196 0.20632327 -0.14195509
vn -0.015871048 0.20632327 0.97835517
vn 0.96813196 0.20632327 -0.14195509
vn -0.015871048 0.20632327 0.97835517
vn 0.8411638 0.20632327 0.49987414
vn 0.49200147 0.20632327 0.8457927
vn 0.8411638 0.20632327 0.49987414
vn 0.49200147 0.20632327 0.8457927
vn 0.9938838 -0.110431515 -0
vn 0.87290585 -0.1110971 0.47507137
vn 0.9938838 -0.110431515 -0
vn 0.87290585 -0.1110971 0.47507137
vn 0.87290585 -0.1110971 -0.47507137
vn 0.49200147 -0.1110971 0.8634767
vn 0.87290585 -0.1110971 -0.47507137
vn 0.49200147 -0.1110971 0.8634767
vn 0.49200147 -0.1110971 -0.8634767
vn -0.015871048 -0.1110971 0.9936828
vn 0.49200147 -0.1110971 -0.8634767
vn -0.015871048 -0.1110971 0.9936828
vn -0.015871048 -0.1110971 -0.9936828
vn -0.49200153 -0.1110971 0.86347663
vn -0.015871048 -0.1110971 -0.9936828
vn -0.49200153 -0.1110971 0.86347663
vn -0.49200153 -0.1110971 -0.86347663
vn -0.87290585 -0.1110971 0.47507137
vn -0.49200153 -0.1110971 -0.86347663
vn -0.87290585 -0.1110971 0.47507137
vn -0.87290585 -0.1110971 -0.47507137
vn -0.9938838 -0.110431515 -0
vn -0.87290585 -0.1110971 -0.47507137
vn -0.9938838 -0.110431515 -0
g coffeeCup_0
f 3/3/3 2/2/2 1/1/1
f 1/1/1 2/2/2 4/4/4
f 5/5/5 2/2/2 3/3/3
f 4/4/4 2/2/2 6/6/6
f 7/7/7 2/2/2 5/5/5
f 6/6/6 2/2/2 8/8/8
f 9/9/9 2/2/2 7/7/7
f 8/8/8 2/2/2 10/10/10
f 11/11/11 2/2/2 9/9/9
f 10/10/10 2/2/2 12/12/12
f 13/13/13 2/2/2 11/11/11
f 12/12/12 2/2/2 13/13/13
f 16/16/16 15/15/15 14/14/14
f 14/14/14 15/15/15 17/17/17
f 18/18/18 15/15/15 16/16/16
f 17/17/17 15/15/15 19/19/19
f 20/20/20 15/15/15 18/18/18
f 19/19/19 15/15/15 21/21/21
f 22/22/22 15/15/15 20/20/20
f 21/21/21 15/15/15 23/23/23
f 24/24/24 15/15/15 22/22/22
f 23/23/23 15/15/15 25/25/25
f 26/26/26 15/15/15 24/24/24
f 25/25/25 15/15/15 26/26/26
f 29/29/29 28/28/28 27/27/27
f 30/30/30 29/29/29 27/27/27
f 27/27/27 28/28/28 31/31/31
f 32/32/32 29/29/29 30/30/30
f 28/28/28 33/33/33 31/31/31
f 34/34/34 32/32/32 30/30/30
f 31/31/31 33/33/33 35/35/35
f 36/36/36 32/32/32 34/34/34
f 33/33/33 37/37/37 35/35/35
f 38/38/38 36/36/36 34/34/34
f 35/35/35 37/37/37 39/39/39
f 40/40/40 36/36/36 38/38/38
f 37/37/37 41/41/41 39/39/39
f 42/42/42 40/40/40 38/38/38
f 39/39/39 41/41/41 43/43/43
f 44/44/44 40/40/40 42/42/42
f 41/41/41 45/45/45 43/43/43
f 46/46/46 44/44/44 42/42/42
f 43/43/43 45/45/45 47/47/47
f 48/48/48 44/44/44 46/46/46
f 45/45/45 49/49/49 47/47/47
f 50/50/50 48/48/48 46/46/46
f 47/47/47 49/49/49 50/50/50
f 49/49/49 48/48/48 50/50/50
f 53/53/53 52/52/52 51/51/51
f 51/51/51 52/52/52 54/54/54
f 55/55/55 53/53/53 51/51/51
f 52/52/52 56/56/56 54/54/54
f 57/57/57 53/53/53 55/55/55
f 54/54/54 56/56/56 58/58/58
f 59/59/59 57/57/57 55/55/55
f 56/56/56 60/60/60 58/58/58
f 61/61/61 57/57/57 59/59/59
f 58/58/58 60/60/60 62/62/62
f 63/63/63 61/61/61 59/59/59
f 60/60/60 64/64/64 62/62/62
f 65/65/65 61/61/61 63/63/63
f 62/62/62 64/64/64 66/66/66
f 67/67/67 65/65/65 63/63/63
f 64/64/64 68/68/68 66/66/66
f 69/69/69 65/65/65 67/67/67
f 66/66/66 68/68/68 70/70/70
f 71/71/71 69/69/69 67/67/67
f 68/68/68 72/72/72 70/70/70
f 73/73/73 69/69/69 71/71/71
f 70/70/70 72/72/72 74/74/74
f 74/74/74 73/73/73 71/71/71
f 72/72/72 73/73/73 74/74/74
f 77/77/77 76/76/76 75/75/75
f 76/76/76 78/78/78 75/75/75
f 79/79/79 76/76/76 77/77/77
f 75/75/75 78/78/78 80/80/80
f 81/81/81 79/79/79 77/77/77
f 78/78/78 82/82/82 80/80/80
f 83/83/83 79/79/79 81/81/81
f 80/80/80 82/82/82 84/84/84
f 85/85/85 83/83/83 81/81/81
f 82/82/82 86/86/86 84/84/84
f 87/87/87 83/83/83 85/85/85
f 84/84/84 86/86/86 88/88/88
f 89/89/89 87/87/87 85/85/85
f 86/86/86 90/90/90 88/88/88
f 91/91/91 87/87/87 89/89/89
f 88/88/88 90/90/90 92/92/92
f 93/93/93 91/91/91 89/89/89
f 90/90/90 94/94/94 92/92/92
f 95/95/95 91/91/91 93/93/93
f 92/92/92 94/94/94 96/96/96
f 97/97/97 95/95/95 93/93/93
f 94/94/94 98/98/98 96/96/96
f 98/98/98 95/95/95 97/97/97
f 96/96/96 98/98/98 97/97/97
f 101/101/101 100/100/100 99/99/99
f 102/102/102 101/101/101 99/99/99
f 101/101/101 103/103/103 100/100/100
f 102/102/102 99/99/99 104/104/104
f 103/103/103 105/105/105 100/100/100
f 106/106/106 102/102/102 104/104/104
f 103/103/103 107/107/107 105/105/105
f 106/106/106 104/104/104 108/108/108
f 107/107/107 109/109/109 105/105/105
f 110/110/110 106/106/106 108/108/108
f 107/107/107 111/111/111 109/109/109
f 110/110/110 108/108/108 112/112/112
f 111/111/111 113/113/113 109/109/109
f 114/114/114 110/110/110 112/112/112
f 111/111/111 115/115/115 113/113/113
f 114/114/114 112/112/112 116/116/116
f 115/115/115 117/117/117 113/113/113
f 118/118/118 114/114/114 116/116/116
f 115/115/115 119/119/119 117/117/117
f 118/118/118 116/116/116 120/120/120
f 119/119/119 121/121/121 117/117/117
f 122/122/122 118/118/118 120/120/120
f 122/122/122 120/120/120 121/121/121
f 119/119/119 122/122/122 121/121/121
f 125/125/125 124/124/124 123/123/123
f 124/124/124 126/126/126 123/123/123
f 125/125/125 123/123/123 127/127/127
f 124/124/124 128/128/128 126/126/126
f 129/129/129 125/125/125 127/127/127
f 128/128/128 130/130/130 126/126/126
f 129/129/129 127/127/127 131/131/131
f 128/128/128 132/132/132 130/130/130
f 133/133/133 129/129/129 131/131/131
f 132/132/132 134/134/134 130/130/130
f 133/133/133 131/131/131 135/135/135
f 132/132/132 136/136/136 134/134/134
f 137/137/137 133/133/133 135/135/135
f 136/136/136 138/138/138 134/134/134
f 137/137/137 135/135/135 139/139/139
f 136/136/136 140/140/140 138/138/138
f 141/141/141 137/137/137 139/139/139
f 140/140/140 142/142/142 138/138/138
f 141/141/141 139/139/139 143/143/143
f 140/140/140 144/144/144 142/142/142
f 145/145/145 141/141/141 143/143/143
f 144/144/144 146/146/146 142/142/142
f 145/145/145 143/143/143 146/146/146
f 144/144/144 145/145/145 146/146/146
