g computer
v 2.5034485 1.2916416 3.0347338
v -2.503448 1.2916414 3.0347338
v -2.5034485 0.45014957 0.6926974
v 2.503448 0.45014971 0.69269717
v -2.292211 -0.02813544 1.0890036
v -2.292211 0.10377403 1.0416086
v 2.292211 0.10377413 1.0416081
v 2.292211 -0.028135346 1.0890031
v 2.503448 0.45014971 0.69269717
v 2.5034485 -0.09956218 0.8902082
v 2.5034485 0.7419296 3.2322445
v 2.5034485 1.2916416 3.0347338
v -2.503448 1.2916414 3.0347338
v -2.503448 0.74192953 3.232245
v -2.5034485 -0.099562354 0.89020854
v -2.5034485 0.45014957 0.6926974
v -2.5034485 0.45014957 0.6926974
v -2.5034485 -0.099562354 0.89020854
v 2.5034485 -0.09956218 0.8902082
v 2.503448 0.45014971 0.69269717
v 2.5034485 1.2916416 3.0347338
v 2.5034485 0.7419296 3.2322445
v -2.503448 0.74192953 3.232245
v -2.503448 1.2916414 3.0347338
v -1.2 -0.05618477 -1.1870456E-14
v -1.1999999 1.2 0
v -1.0876304 1.0876305 0.21942031
v -1.0876305 0.05618477 0.21942031
v -1.1999999 1.2 0
v 1.2 1.2 0
v 1.0876306 1.0876305 0.21942031
v -1.0876304 1.0876305 0.21942031
v 1.2 1.2 0
v 1.1999999 -0.05618477 -1.1870456E-14
v 1.0876305 0.05618477 0.21942031
v 1.0876306 1.0876305 0.21942031
v 1.1999999 -0.05618477 -1.1870456E-14
v -1.2 -0.05618477 -1.1870456E-14
v -1.0876305 0.05618477 0.21942031
v 1.0876305 0.05618477 0.21942031
v -1.1999999 1.2 0
v -1.2 -0.05618477 -1.1870456E-14
v 1.1999999 -0.05618477 -1.1870456E-14
v 1.2 1.2 0
v 1.0876306 1.0876305 0.21942031
v 1.0876305 0.05618477 0.21942031
v -1.0876305 0.05618477 0.21942031
v -1.0876304 1.0876305 0.21942031
v 2.2922113 0.80241215 2.986055
v 2.292211 0.10377413 1.0416081
v -2.292211 0.10377403 1.0416086
v -2.2922106 0.80241215 2.986055
v 2.2922113 0.67050266 3.0334496
v 2.2922113 0.80241215 2.986055
v -2.2922106 0.80241215 2.986055
v -2.2922106 0.67050266 3.0334501
v 2.292211 -0.028135346 1.0890031
v 2.292211 0.10377413 1.0416081
v 2.2922113 0.80241215 2.986055
v 2.2922113 0.67050266 3.0334496
v -2.2922106 0.67050266 3.0334501
v -2.2922106 0.80241215 2.986055
v -2.292211 0.10377403 1.0416086
v -2.292211 -0.02813544 1.0890036
v 0.5596248 0.8372655 0.21942031
v -0.5596247 0.8372655 0.21942031
v -0.5596248 0.65088844 0.21942031
v 0.5596247 0.65088844 0.21942031
v 0.5596248 0.8372655 2
v 0.5596247 0.65088844 2
v -0.5596248 0.65088844 2
v -0.5596247 0.8372655 2
v 0.5596247 0.65088844 0.21942031
v 0.5596247 0.65088844 2
v 0.5596248 0.8372655 2
v 0.5596248 0.8372655 0.21942031
v -0.5596247 0.8372655 0.21942031
v -0.5596247 0.8372655 2
v -0.5596248 0.65088844 2
v -0.5596248 0.65088844 0.21942031
v -0.5596248 0.65088844 0.21942031
v -0.5596248 0.65088844 2
v 0.5596247 0.65088844 2
v 0.5596247 0.65088844 0.21942031
v 0.5596248 0.8372655 0.21942031
v 0.5596248 0.8372655 2
v -0.5596247 0.8372655 2
v -0.5596247 0.8372655 0.21942031
v 1.5358592 -0.53051615 1.4901151E-08
v -1.5358585 -0.53051615 -1.4901172E-08
v -1.5358586 -1.5619619 -1.4901172E-08
v 1.535859 -1.5619619 1.4901151E-08
v 1.5358592 -0.53051615 0.12481722
v 1.535859 -1.5619619 0.12481722
v -1.5358586 -1.5619619 0.12481719
v -1.5358585 -0.53051615 0.12481719
v 1.535859 -1.5619619 1.4901151E-08
v 1.535859 -1.5619619 0.12481722
v 1.5358592 -0.53051615 0.12481722
v 1.5358592 -0.53051615 1.4901151E-08
v -1.5358585 -0.53051615 -1.4901172E-08
v -1.5358585 -0.53051615 0.12481719
v -1.5358586 -1.5619619 0.12481719
v -1.5358586 -1.5619619 -1.4901172E-08
v -1.5358586 -1.5619619 -1.4901172E-08
v -1.5358586 -1.5619619 0.12481719
v 1.535859 -1.5619619 0.12481722
v 1.535859 -1.5619619 1.4901151E-08
v 1.5358592 -0.53051615 1.4901151E-08
v 1.5358592 -0.53051615 0.12481722
v -1.5358585 -0.53051615 0.12481719
v -1.5358585 -0.53051615 -1.4901172E-08
v 2.6672146 0.14713934 -7.92466E-09
v 2.1035109 0.1471397 3.677882E-08
v 2.1035109 -0.884306 3.677882E-08
v 2.6672149 -0.88430643 -7.92466E-09
v 2.6672149 -0.88430643 0.1248172
v 2.574839 -0.71528053 0.30491367
v 2.5748389 -0.021886468 0.30491367
v 2.6672146 0.14713934 0.1248172
v 2.6672149 -0.88430643 -7.92466E-09
v 2.6672149 -0.88430643 0.1248172
v 2.6672146 0.14713934 0.1248172
v 2.6672146 0.14713934 -7.92466E-09
v 2.1035109 0.1471397 3.677882E-08
v 2.1035109 0.1471397 0.124817245
v 2.1035109 -0.884306 0.124817245
v 2.1035109 -0.884306 3.677882E-08
v 2.1035109 -0.884306 3.677882E-08
v 2.1035109 -0.884306 0.124817245
v 2.6672149 -0.88430643 0.1248172
v 2.6672149 -0.88430643 -7.92466E-09
v 2.6672146 0.14713934 -7.92466E-09
v 2.6672146 0.14713934 0.1248172
v 2.1035109 0.1471397 0.124817245
v 2.1035109 0.1471397 3.677882E-08
v 2.5748389 -0.021886468 0.30491367
v 2.574839 -0.71528053 0.30491367
v 2.1958866 -0.7152802 0.30491373
v 2.1958866 -0.02188623 0.30491373
v 2.1035109 0.1471397 0.124817245
v 2.1958866 -0.02188623 0.30491373
v 2.1958866 -0.7152802 0.30491373
v 2.1035109 -0.884306 0.124817245
v 2.1035109 -0.884306 0.124817245
v 2.1958866 -0.7152802 0.30491373
v 2.574839 -0.71528053 0.30491367
v 2.6672149 -0.88430643 0.1248172
v 2.6672146 0.14713934 0.1248172
v 2.5748389 -0.021886468 0.30491367
v 2.1958866 -0.02188623 0.30491373
v 2.1035109 0.1471397 0.124817245
v 2.2922113 0.67050266 3.0334496
v 2.5034485 -0.09956218 0.8902082
v 2.292211 -0.028135346 1.0890031
v 2.5034485 0.7419296 3.2322445
v -2.5034485 -0.099562354 0.89020854
v -2.2922106 0.67050266 3.0334501
v -2.292211 -0.02813544 1.0890036
v -2.503448 0.74192953 3.232245
vt 0.8455517 0.03394425
vt 0.8455517 0.03394425
vt 0.8455517 0.03394425
vt 0.8455517 0.03394425
vt 0.8455517 0.03394425
vt 0.8455517 0.03394425
vt 0.8455517 0.03394425
vt 0.8455517 0.03394425
vt 0.8455517 0.03394425
vt 0.8455517 0.03394425
vt 0.8455517 0.03394425
vt 0.8455517 0.03394425
vt 0.8455517 0.03394425
vt 0.8455517 0.03394425
vt 0.8455517 0.03394425
vt 0.8455517 0.03394425
vt 0.8455517 0.03394425
vt 0.8455517 0.03394425
vt 0.8455517 0.03394425
vt 0.8455517 0.03394425
vt 0.8455517 0.03394425
vt 0.8455517 0.03394425
vt 0.8455517 0.03394425
vt 0.8455517 0.03394425
vt 0.8455517 0.03394425
vt 0.8455517 0.03394425
vt 0.8455517 0.03394425
vt 0.8455517 0.03394425
vt 0.8455517 0.03394425
vt 0.8455517 0.03394425
vt 0.8455517 0.03394425
vt 0.8455517 0.03394425
vt 0.8455517 0.03394425
vt 0.8455517 0.03394425
vt 0.8455517 0.03394425
vt 0.8455517 0.03394425
vt 0.8455517 0.03394425
vt 0.8455517 0.03394425
vt 0.8455517 0.03394425
vt 0.8455517 0.03394425
vt 0.8455517 0.03394425
vt 0.8455517 0.03394425
vt 0.8455517 0.03394425
vt 0.8455517 0.03394425
vt 0.8455517 0.03394425
vt 0.8455517 0.03394425
vt 0.8455517 0.03394425
vt 0.8455517 0.03394425
vt 0.9080518 0.033944257
vt 0.9080517 0.03394425
vt 0.9080518 0.033944257
vt 0.9080518 0.033944257
vt 0.8455517 0.03394425
vt 0.8455517 0.03394425
vt 0.8455517 0.03394425
vt 0.8455517 0.03394425
vt 0.8455517 0.03394425
vt 0.8455517 0.03394425
vt 0.8455517 0.03394425
vt 0.8455517 0.03394425
vt 0.8455517 0.03394425
vt 0.8455517 0.03394425
vt 0.8455517 0.03394425
vt 0.8455517 0.03394425
vt 0.8455517 0.03394425
vt 0.8455517 0.03394425
vt 0.8455517 0.03394425
vt 0.8455517 0.03394425
vt 0.8455517 0.03394425
vt 0.8455517 0.03394425
vt 0.8455517 0.03394425
vt 0.8455517 0.03394425
vt 0.8455517 0.03394425
vt 0.8455517 0.03394425
vt 0.8455517 0.03394425
vt 0.8455517 0.03394425
vt 0.8455517 0.03394425
vt 0.8455517 0.03394425
vt 0.8455517 0.03394425
vt 0.8455517 0.03394425
vt 0.8455517 0.03394425
vt 0.8455517 0.03394425
vt 0.8455517 0.03394425
vt 0.8455517 0.03394425
vt 0.8455517 0.03394425
vt 0.8455517 0.03394425
vt 0.8455517 0.03394425
vt 0.8455517 0.03394425
vt 0.8455517 0.03394425
vt 0.8455517 0.03394425
vt 0.8455517 0.03394425
vt 0.8455517 0.03394425
vt 0.8455517 0.03394425
vt 0.8455517 0.03394425
vt 0.8455517 0.03394425
vt 0.8455517 0.03394425
vt 0.8455517 0.03394425
vt 0.8455517 0.03394425
vt 0.8455517 0.03394425
vt 0.8455517 0.03394425
vt 0.8455517 0.03394425
vt 0.8455517 0.03394425
vt 0.8455517 0.03394425
vt 0.8455517 0.03394425
vt 0.8455517 0.03394425
vt 0.8455517 0.03394425
vt 0.8455517 0.03394425
vt 0.8455517 0.03394425
vt 0.8455517 0.03394425
vt 0.8455517 0.03394425
vt 0.8455517 0.03394425
vt 0.8455517 0.03394425
vt 0.8455517 0.03394425
vt 0.8455517 0.03394425
vt 0.8455517 0.03394425
vt 0.8455517 0.03394425
vt 0.8455517 0.03394425
vt 0.8455517 0.03394425
vt 0.8455517 0.03394425
vt 0.8455517 0.03394425
vt 0.8455517 0.03394425
vt 0.8455517 0.03394425
vt 0.8455517 0.03394425
vt 0.8455517 0.03394425
vt 0.8455517 0.03394425
vt 0.8455517 0.03394425
vt 0.8455517 0.03394425
vt 0.8455517 0.03394425
vt 0.8455517 0.03394425
vt 0.8455517 0.03394425
vt 0.8455517 0.03394425
vt 0.8455517 0.03394425
vt 0.8455517 0.03394425
vt 0.8455517 0.03394425
vt 0.8455517 0.03394425
vt 0.8455517 0.03394425
vt 0.8455517 0.03394425
vt 0.8455517 0.03394425
vt 0.8455517 0.03394425
vt 0.8455517 0.03394425
vt 0.8455517 0.03394425
vt 0.8455517 0.03394425
vt 0.8455517 0.03394425
vt 0.8455517 0.03394425
vt 0.8455517 0.03394425
vt 0.8455517 0.03394425
vt 0.8455517 0.03394425
vt 0.8455517 0.03394425
vt 0.8455517 0.03394425
vt 0.8455517 0.03394425
vt 0.8455517 0.03394425
vt 0.8455517 0.03394425
vt 0.8455517 0.03394425
vt 0.8455517 0.03394425
vt 0.8455517 0.03394425
vt 0.8455517 0.03394425
vt 0.8455517 0.03394425
vt 0.8455517 0.03394425
vt 0.8455517 0.03394425
vt 0.8455517 0.03394425
vn -0 0.9410974 -0.33813554
vn -0 0.9410974 -0.33813554
vn -0 0.9410974 -0.33813554
vn -0 0.9410974 -0.33813554
vn -0 0.33813572 0.9410974
vn -0 0.33813572 0.9410974
vn -0 0.33813572 0.9410974
vn -0 0.33813572 0.9410974
vn 1 0 0
vn 1 0 0
vn 1 0 0
vn 1 0 0
vn -1 0 0
vn -1 0 0
vn -1 0 0
vn -1 0 0
vn -0 -0.33813557 -0.9410974
vn -0 -0.33813557 -0.9410974
vn -0 -0.33813557 -0.9410974
vn -0 -0.33813557 -0.9410974
vn -0 0.33813533 0.9410975
vn -0 0.33813533 0.9410975
vn -0 0.33813533 0.9410975
vn -0 0.33813533 0.9410975
vn -0.8900705 0 0.45582297
vn -0.8900705 0 0.45582297
vn -0.8900705 0 0.45582297
vn -0.8900705 0 0.45582297
vn -0 0.8900705 0.45582297
vn -0 0.8900705 0.45582297
vn -0 0.8900705 0.45582297
vn -0 0.8900705 0.45582297
vn 0.8900707 0 0.4558226
vn 0.8900707 0 0.4558226
vn 0.8900707 0 0.4558226
vn 0.8900707 0 0.4558226
vn -0 -0.8900705 0.45582297
vn -0 -0.8900705 0.45582297
vn -0 -0.8900705 0.45582297
vn -0 -0.8900705 0.45582297
vn -0 0 -1
vn -0 0 -1
vn -0 0 -1
vn -0 0 -1
vn -0 0 1
vn -0 0 1
vn -0 0 1
vn -0 0 1
vn -0 -0.9410974 0.33813554
vn -0 -0.9410974 0.33813554
vn -0 -0.9410974 0.33813554
vn -0 -0.9410974 0.33813554
vn -0 -0.3381357 -0.9410974
vn -0 -0.3381357 -0.9410974
vn -0 -0.3381357 -0.9410974
vn -0 -0.3381357 -0.9410974
vn -1 0 0
vn -1 0 0
vn -1 0 0
vn -1 0 0
vn 1 0 0
vn 1 0 0
vn 1 0 0
vn 1 0 0
vn -0 0 -1
vn -0 0 -1
vn -0 0 -1
vn -0 0 -1
vn -0 0 1
vn -0 0 1
vn -0 0 1
vn -0 0 1
vn 1 0 0
vn 1 0 0
vn 1 0 0
vn 1 0 0
vn -1 0 0
vn -1 0 0
vn -1 0 0
vn -1 0 0
vn -0 -1 0
vn -0 -1 0
vn -0 -1 0
vn -0 -1 0
vn -0 1 0
vn -0 1 0
vn -0 1 0
vn -0 1 0
vn -0 0 -1
vn -0 0 -1
vn -0 0 -1
vn -0 0 -1
vn -0 0 1
vn -0 0 1
vn -0 0 1
vn -0 0 1
vn 1 0 0
vn 1 0 0
vn 1 0 0
vn 1 0 0
vn -1 0 0
vn -1 0 0
vn -1 0 0
vn -1 0 0
vn -0 -1 0
vn -0 -1 0
vn -0 -1 0
vn -0 -1 0
vn -0 1 0
vn -0 1 0
vn -0 1 0
vn -0 1 0
vn -0 0 -1
vn -0 0 -1
vn -0 0 -1
vn -0 0 -1
vn 0.88978016 0 0.45638934
vn 0.88978016 0 0.45638934
vn 0.88978016 0 0.45638934
vn 0.88978016 0 0.45638934
vn 1 0 0
vn 1 0 0
vn 1 0 0
vn 1 0 0
vn -1 0 0
vn -1 0 0
vn -1 0 0
vn -1 0 0
vn -0 -1 0
vn -0 -1 0
vn -0 -1 0
vn -0 -1 0
vn -0 1 0
vn -0 1 0
vn -0 1 0
vn -0 1 0
vn -0 0 1
vn -0 0 1
vn -0 0 1
vn -0 0 1
vn -0.88978016 0 0.45638934
vn -0.88978016 0 0.45638934
vn -0.88978016 0 0.45638934
vn -0.88978016 0 0.45638934
vn -0 -0.7291629 0.6843403
vn -0 -0.7291629 0.6843403
vn -0 -0.7291629 0.6843403
vn -0 -0.7291629 0.6843403
vn -0 0.72916245 0.68434054
vn -0 0.72916245 0.68434054
vn -0 0.72916245 0.68434054
vn -0 0.72916245 0.68434054
vn -0 -0.9410975 0.33813545
vn -0 -0.9410976 0.3381352
vn -0 -0.9410976 0.3381352
vn -0 -0.9410975 0.33813545
vn -0 -0.9410976 0.33813515
vn -0 -0.9410976 0.33813515
vn -0 -0.9410976 0.33813515
vn -0 -0.9410976 0.33813515
g computer_0
f 3/3/3 2/2/2 1/1/1
f 4/4/4 3/3/3 1/1/1
f 7/7/7 6/6/6 5/5/5
f 8/8/8 7/7/7 5/5/5
f 11/11/11 10/10/10 9/9/9
f 12/12/12 11/11/11 9/9/9
f 15/15/15 14/14/14 13/13/13
f 16/16/16 15/15/15 13/13/13
f 19/19/19 18/18/18 17/17/17
f 20/20/20 19/19/19 17/17/17
f 23/23/23 22/22/22 21/21/21
f 24/24/24 23/23/23 21/21/21
f 27/27/27 26/26/26 25/25/25
f 28/28/28 27/27/27 25/25/25
f 31/31/31 30/30/30 29/29/29
f 32/32/32 31/31/31 29/29/29
f 35/35/35 34/34/34 33/33/33
f 36/36/36 35/35/35 33/33/33
f 39/39/39 38/38/38 37/37/37
f 40/40/40 39/39/39 37/37/37
f 43/43/43 42/42/42 41/41/41
f 44/44/44 43/43/43 41/41/41
f 47/47/47 46/46/46 45/45/45
f 48/48/48 47/47/47 45/45/45
f 51/51/51 50/50/50 49/49/49
f 52/52/52 51/51/51 49/49/49
f 55/55/55 54/54/54 53/53/53
f 56/56/56 55/55/55 53/53/53
f 59/59/59 58/58/58 57/57/57
f 60/60/60 59/59/59 57/57/57
f 63/63/63 62/62/62 61/61/61
f 64/64/64 63/63/63 61/61/61
f 67/67/67 66/66/66 65/65/65
f 68/68/68 67/67/67 65/65/65
f 71/71/71 70/70/70 69/69/69
f 72/72/72 71/71/71 69/69/69
f 75/75/75 74/74/74 73/73/73
f 76/76/76 75/75/75 73/73/73
f 79/79/79 78/78/78 77/77/77
f 80/80/80 79/79/79 77/77/77
f 83/83/83 82/82/82 81/81/81
f 84/84/84 83/83/83 81/81/81
f 87/87/87 86/86/86 85/85/85
f 88/88/88 87/87/87 85/85/85
f 91/91/91 90/90/90 89/89/89
f 92/92/92 91/91/91 89/89/89
f 95/95/95 94/94/94 93/93/93
f 96/96/96 95/95/95 93/93/93
f 99/99/99 98/98/98 97/97/97
f 100/100/100 99/99/99 97/97/97
f 103/103/103 102/102/102 101/101/101
f 104/104/104 103/103/103 101/101/101
f 107/107/107 106/106/106 105/105/105
f 108/108/108 107/107/107 105/105/105
f 111/111/111 110/110/110 109/109/109
f 112/112/112 111/111/111 109/109/109
f 115/115/115 114/114/114 113/113/113
f 116/116/116 115/115/115 113/113/113
f 119/119/119 118/118/118 117/117/117
f 120/120/120 119/119/119 117/117/117
f 123/123/123 122/122/122 121/121/121
f 124/124/124 123/123/123 121/121/121
f 127/127/127 126/126/126 125/125/125
f 128/128/128 127/127/127 125/125/125
f 131/131/131 130/130/130 129/129/129
f 132/132/132 131/131/131 129/129/129
f 135/135/135 134/134/134 133/133/133
f 136/136/136 135/135/135 133/133/133
f 139/139/139 138/138/138 137/137/137
f 140/140/140 139/139/139 137/137/137
f 143/143/143 142/142/142 141/141/141
f 144/144/144 143/143/143 141/141/141
f 147/147/147 146/146/146 145/145/145
f 148/148/148 147/147/147 145/145/145
f 151/151/151 150/150/150 149/149/149
f 152/152/152 151/151/151 149/149/149
f 155/155/155 154/154/154 153/153/153
f 154/154/154 156/156/156 153/153/153
f 157/157/157 154/154/154 155/155/155
f 153/153/153 156/156/156 158/158/158
f 159/159/159 157/157/157 155/155/155
f 156/156/156 160/160/160 158/158/158
f 160/160/160 157/157/157 159/159/159
f 158/158/158 160/160/160 159/159/159
