g cookie
v -0.5405669 -0.24144673 0.7438905
v -0.0009775162 -0.24144673 0.9178885
v 0.5405669 -0.24144673 0.7438905
v -0.5874878 -0.16324538 -0.80840665
v -0.5405669 -0.24144673 -0.7438905
v -0.0009775162 -0.24144673 -0.9178886
v -0.0009775162 -0.16324538 -1
v 0.5405669 -0.24144673 -0.7438905
v -0.0009775162 0.006842613 -1
v -0.5874878 0.006842613 -0.80840665
v 0.5874878 -0.16324538 -0.80840665
v 0.8729228 -0.24144673 -0.2844575
v 0.5874878 0.006842613 -0.80840665
v 0.95112413 -0.16324538 -0.30987293
v 0.8729228 -0.24144673 0.28445745
v 0.95112413 0.006842613 -0.30987293
v 0.95112413 -0.16324538 0.30987287
v 0.5405669 -0.24144673 0.7438905
v 0.95112413 0.006842613 0.30987287
v 0.5874878 -0.16324538 0.8084066
v -0.0009775162 -0.24144673 0.9178885
v 0.5874878 0.006842613 0.8084066
v -0.0009775162 -0.16324538 1
v -0.5405669 -0.24144673 0.7438905
v -0.0009775162 0.006842613 1
v -0.5874878 -0.16324538 0.8084066
v -0.8729228 -0.24144673 0.28445745
v -0.5874878 0.006842613 0.8084066
v -0.9511242 -0.16324538 0.30987287
v -0.8729228 -0.24144673 -0.2844575
v -0.9511242 0.006842613 0.30987287
v -0.9511242 -0.16324538 -0.30987293
v -0.5405669 -0.24144673 -0.7438905
v -0.5874878 -0.16324538 -0.80840665
v -0.9511242 0.006842613 -0.30987293
v 0.48778105 0.2394917 0.6695992
v -0.0009775162 0.2394917 0.82795703
v -0.0009775162 0.32160318 0.0009775162
v -0.48778105 0.2394917 0.6695992
v 0.78885627 0.2394917 0.25513196
v -0.78885627 0.2394917 0.25513196
v 0.78885627 0.2394917 -0.25513196
v -0.78885627 0.2394917 -0.25513196
v 0.48778105 0.2394917 -0.6695992
v -0.48778105 0.2394917 -0.6695992
v -0.0009775162 0.2394917 -0.827957
v 0.5405669 -0.24144673 -0.7438905
v -0.0009775162 -0.24144673 -0.9178886
v -0.5405669 -0.24144673 -0.7438905
v 0.8729228 -0.24144673 -0.2844575
v -0.8729228 -0.24144673 -0.2844575
v -0.8729228 -0.24144673 0.28445745
v -0.8729228 -0.24144673 0.28445745
v 0.8729228 -0.24144673 0.28445745
v 0.8729228 -0.24144673 -0.2844575
v 0.5405669 -0.24144673 0.7438905
v -0.5405669 -0.24144673 0.7438905
v 0.36070383 0.25904202 -0.17888564
v 0.36656892 0.31378305 -0.16911048
v 0.27859235 0.3235582 -0.13978493
v 0.26686215 0.2688172 -0.14760506
v 0.22385144 0.3294233 -0.06353861
v 0.20821112 0.27468228 -0.067448676
v 0.22385144 0.3294233 0.030303001
v 0.20821112 0.27468228 0.034213066
v 0.27859235 0.3235582 0.10654938
v 0.26686215 0.2688172 0.11436951
v 0.36656892 0.31378305 0.13587487
v 0.36070383 0.25904202 0.14565003
v 0.45650047 0.3059628 0.10654938
v 0.45650047 0.2512219 0.11436951
v 0.51124144 0.3000977 0.030303001
v 0.5151515 0.2453568 0.034213066
v 0.5151515 0.2453568 0.034213066
v 0.51124144 0.3000977 0.030303001
v 0.51124144 0.3000977 -0.06353861
v 0.5151515 0.2453568 -0.067448676
v 0.45650047 0.3059628 -0.13978493
v 0.45650047 0.2512219 -0.14760506
v 0.36656892 0.31378305 -0.16911048
v 0.36070383 0.25904202 -0.17888564
v -0.3352884 0.27077222 0.18866086
v -0.33724344 0.3294233 0.20234609
v -0.42717493 0.32160318 0.22971654
v -0.42912996 0.2629521 0.21994138
v -0.48191595 0.30987287 0.3059628
v -0.48778105 0.2512219 0.3000977
v -0.47996092 0.30205274 0.39980447
v -0.48778105 0.24340177 0.39980447
v -0.4252199 0.3000977 0.47605085
v -0.42912996 0.2394917 0.48191595
v -0.3352884 0.30400777 0.50537634
v -0.33333337 0.2453568 0.51124144
v -0.24731183 0.31378305 0.47605085
v -0.2394917 0.25317693 0.48191595
v -0.19257092 0.3235582 0.39980447
v -0.18084061 0.26490712 0.4017595
v -0.18084061 0.26490712 0.4017595
v -0.19257092 0.3235582 0.39980447
v -0.19257092 0.33137834 0.3059628
v -0.18084061 0.27272725 0.30205274
v -0.24731183 0.33333337 0.22971654
v -0.2394917 0.27663732 0.21994138
v -0.33724344 0.3294233 0.20234609
v -0.3352884 0.27077222 0.18866086
v -0.008797646 0.22189641 -0.8044966
v -0.008797646 0.27859235 -0.8005865
v -0.09677422 0.28054738 -0.771261
v -0.10263932 0.22580647 -0.773216
v -0.15151513 0.2883675 -0.69501466
v -0.16129029 0.2336266 -0.6911046
v -0.1495601 0.29814267 -0.60117304
v -0.15933526 0.24340177 -0.5933529
v -0.09481919 0.3059628 -0.5268817
v -0.100684285 0.2512219 -0.51319647
v -0.004887581 0.30791783 -0.49951124
v -0.004887581 0.25513196 -0.48387098
v 0.08504397 0.3059628 -0.5288367
v 0.08895403 0.2512219 -0.5151515
v 0.13978493 0.29814267 -0.6050831
v 0.14760506 0.24340177 -0.59530795
v 0.14760506 0.24340177 -0.59530795
v 0.13978493 0.29814267 -0.6050831
v 0.1378299 0.2883675 -0.6989247
v 0.14565003 0.2336266 -0.69501466
v 0.0811339 0.28054738 -0.773216
v 0.086999 0.22580647 -0.77517104
v -0.008797646 0.27859235 -0.8005865
v -0.008797646 0.22189641 -0.8044966
v -0.09677422 0.28054738 -0.771261
v -0.008797646 0.27859235 -0.8005865
v -0.006842613 0.33724344 -0.6539589
v -0.15151513 0.2883675 -0.69501466
v 0.0811339 0.28054738 -0.773216
v -0.1495601 0.29814267 -0.60117304
v 0.1378299 0.2883675 -0.6989247
v -0.09481919 0.3059628 -0.5268817
v 0.13978493 0.29814267 -0.6050831
v -0.004887581 0.30791783 -0.49951124
v 0.08504397 0.3059628 -0.5288367
v -0.42717493 0.32160318 0.22971654
v -0.33724344 0.3294233 0.20234609
v -0.3411535 0.35679376 0.3587488
v -0.48191595 0.30987287 0.3059628
v -0.24731183 0.33333337 0.22971654
v -0.47996092 0.30205274 0.39980447
v -0.19257092 0.33137834 0.3059628
v -0.4252199 0.3000977 0.47605085
v -0.19257092 0.3235582 0.39980447
v -0.3352884 0.30400777 0.50537634
v -0.24731183 0.31378305 0.47605085
v 0.27859235 0.3235582 -0.13978493
v 0.36656892 0.31378305 -0.16911048
v 0.370479 0.3587488 -0.016617775
v 0.22385144 0.3294233 -0.06353861
v 0.45650047 0.3059628 -0.13978493
v 0.22385144 0.3294233 0.030303001
v 0.51124144 0.3000977 -0.06353861
v 0.27859235 0.3235582 0.10654938
v 0.51124144 0.3000977 0.030303001
v 0.36656892 0.31378305 0.13587487
v 0.45650047 0.3059628 0.10654938
vt 0.9082419 0.9699245
vt 0.9082419 0.9699245
vt 0.9082419 0.9699245
vt 0.8455802 0.9699245
vt 0.8455802 0.9699245
vt 0.8455802 0.9699245
vt 0.8455802 0.9699245
vt 0.8455802 0.9699245
vt 0.8455802 0.9699245
vt 0.8455802 0.9699245
vt 0.8455802 0.9699245
vt 0.8455802 0.9699245
vt 0.8455802 0.9699245
vt 0.8455802 0.9699245
vt 0.8455802 0.9699245
vt 0.8455802 0.9699245
vt 0.8455802 0.9699245
vt 0.8455802 0.9699245
vt 0.8455802 0.9699245
vt 0.8455802 0.9699245
vt 0.8455802 0.9699245
vt 0.8455802 0.9699245
vt 0.8455802 0.9699245
vt 0.8455802 0.9699245
vt 0.8455802 0.9699245
vt 0.8455802 0.9699245
vt 0.8455802 0.9699245
vt 0.8455802 0.9699245
vt 0.8455802 0.9699245
vt 0.8455802 0.9699245
vt 0.8455802 0.9699245
vt 0.8455802 0.9699245
vt 0.8455802 0.9699245
vt 0.8455802 0.9699245
vt 0.8455802 0.9699245
vt 0.8455802 0.9699245
vt 0.8455802 0.9699245
vt 0.8455802 0.9699245
vt 0.8455802 0.9699245
vt 0.8455802 0.9699245
vt 0.8455802 0.9699245
vt 0.8455802 0.9699245
vt 0.8455802 0.9699245
vt 0.8455802 0.9699245
vt 0.8455802 0.9699245
vt 0.8455802 0.9699245
vt 0.9082419 0.9699245
vt 0.9082419 0.9699245
vt 0.9082419 0.9699245
vt 0.9082419 0.9699245
vt 0.9082419 0.9699245
vt 0.9082419 0.9699245
vt 0.9082419 0.9699245
vt 0.9082419 0.9699245
vt 0.9082419 0.9699245
vt 0.9082419 0.9699245
vt 0.9082419 0.9699245
vt 0.7202569 0.84460115
vt 0.7202569 0.84460115
vt 0.7202569 0.84460115
vt 0.7202569 0.84460115
vt 0.7202569 0.84460115
vt 0.7202569 0.84460115
vt 0.7202569 0.84460115
vt 0.7202569 0.84460115
vt 0.7202569 0.84460115
vt 0.7202569 0.84460115
vt 0.7202569 0.84460115
vt 0.7202569 0.84460115
vt 0.7202569 0.84460115
vt 0.7202569 0.84460115
vt 0.7202569 0.84460115
vt 0.7202569 0.84460115
vt 0.7202569 0.84460115
vt 0.7202569 0.84460115
vt 0.7202569 0.84460115
vt 0.7202569 0.84460115
vt 0.7202569 0.84460115
vt 0.7202569 0.84460115
vt 0.7202569 0.84460115
vt 0.7202569 0.84460115
vt 0.7202569 0.84460115
vt 0.7202569 0.84460115
vt 0.7202569 0.84460115
vt 0.7202569 0.84460115
vt 0.7202569 0.84460115
vt 0.7202569 0.84460115
vt 0.7202569 0.84460115
vt 0.7202569 0.84460115
vt 0.7202569 0.84460115
vt 0.7202569 0.84460115
vt 0.7202569 0.84460115
vt 0.7202569 0.84460115
vt 0.7202569 0.84460115
vt 0.7202569 0.84460115
vt 0.7202569 0.84460115
vt 0.7202569 0.84460115
vt 0.7202569 0.84460115
vt 0.7202569 0.84460115
vt 0.7202569 0.84460115
vt 0.7202569 0.84460115
vt 0.7202569 0.84460115
vt 0.7202569 0.84460115
vt 0.7202569 0.84460115
vt 0.7202569 0.84460115
vt 0.7202569 0.84460115
vt 0.7202569 0.84460115
vt 0.7202569 0.84460115
vt 0.7202569 0.84460115
vt 0.7202569 0.84460115
vt 0.7202569 0.84460115
vt 0.7202569 0.84460115
vt 0.7202569 0.84460115
vt 0.7202569 0.84460115
vt 0.7202569 0.84460115
vt 0.7202569 0.84460115
vt 0.7202569 0.84460115
vt 0.7202569 0.84460115
vt 0.7202569 0.84460115
vt 0.7202569 0.84460115
vt 0.7202569 0.84460115
vt 0.7202569 0.84460115
vt 0.7202569 0.84460115
vt 0.7202569 0.84460115
vt 0.7202569 0.84460115
vt 0.7202569 0.84460115
vt 0.7202569 0.84460115
vt 0.7202569 0.84460115
vt 0.7202569 0.84460115
vt 0.7202569 0.84460115
vt 0.7202569 0.84460115
vt 0.7202569 0.84460115
vt 0.7202569 0.84460115
vt 0.7202569 0.84460115
vt 0.7202569 0.84460115
vt 0.7202569 0.84460115
vt 0.7202569 0.84460115
vt 0.7202569 0.84460115
vt 0.7202569 0.84460115
vt 0.7202569 0.84460115
vt 0.7202569 0.84460115
vt 0.7202569 0.84460115
vt 0.7202569 0.84460115
vt 0.7202569 0.84460115
vt 0.7202569 0.84460115
vt 0.7202569 0.84460115
vt 0.7202569 0.84460115
vt 0.7202569 0.84460115
vt 0.7202569 0.84460115
vt 0.7202569 0.84460115
vt 0.7202569 0.84460115
vt 0.7202569 0.84460115
vt 0.7202569 0.84460115
vt 0.7202569 0.84460115
vt 0.7202569 0.84460115
vt 0.7202569 0.84460115
vt 0.7202569 0.84460115
vt 0.7202569 0.84460115
vt 0.7202569 0.84460115
vt 0.7202569 0.84460115
vt 0.7202569 0.84460115
vt 0.7202569 0.84460115
vn -0.25699824 -0.8883953 0.38040203
vn -0.009345591 -0.8883953 0.45898417
vn 0.23830706 -0.8883953 0.3923819
vn -0.5356075 -0.36213344 -0.7628787
vn -0.25699824 -0.8883953 -0.38040203
vn -0.009345591 -0.8883953 -0.45898417
vn -0.009345591 -0.36213344 -0.93207943
vn 0.23830706 -0.8883953 -0.3923819
vn -0.009345591 0.28795487 -0.9575984
vn -0.566564 0.28795487 -0.77206683
vn 0.5478729 -0.36213344 -0.75411844
vn 0.42404658 -0.8883953 -0.17589277
vn 0.5478729 0.28795487 -0.78544086
vn 0.8883953 -0.36213344 -0.28215805
vn 0.42404658 -0.8883953 0.17589277
vn 0.91935194 0.28795487 -0.2680933
vn 0.8883953 -0.36213344 0.28215805
vn 0.23830706 -0.8883953 0.3923819
vn 0.91935194 0.28795487 0.2680933
vn 0.5478729 -0.36213344 0.75411844
vn -0.009345591 -0.8883953 0.45898417
vn 0.5478729 0.28795487 0.78544086
vn -0.009345591 -0.36213344 0.93207943
vn -0.25699824 -0.8883953 0.38040203
vn -0.009345591 0.28795487 0.9575984
vn -0.5356075 -0.36213344 0.7628787
vn -0.41178113 -0.8883953 0.20295341
vn -0.566564 0.28795487 0.77206683
vn -0.8761299 -0.36213344 0.31820706
vn -0.41178113 -0.8883953 -0.20295341
vn -0.90708655 0.28795487 0.30704397
vn -0.8761299 -0.36213344 -0.31820706
vn -0.25699824 -0.8883953 -0.38040203
vn -0.5356075 -0.36213344 -0.7628787
vn -0.90708655 0.28795487 -0.30704397
vn 0.33117682 0.8451733 0.4195283
vn -0.009345591 0.8451733 0.53441066
vn -0.009345591 0.9999562 -0.00054591504
vn -0.31891137 0.8451733 0.4289261
vn 0.51691633 0.8451733 0.13593964
vn -0.5352882 0.84466946 -0
vn 0.51691633 0.8451733 -0.13593964
vn -0.5352882 0.84466946 -0
vn 0.33117682 0.8451733 -0.4195283
vn -0.31891137 0.8451733 -0.4289261
vn -0.009345591 0.8451733 -0.53441066
vn 0.23830706 -0.8883953 -0.3923819
vn -0.009345591 -0.8883953 -0.45898417
vn -0.25699824 -0.8883953 -0.38040203
vn 0.42404658 -0.8883953 -0.17589277
vn -0.41178113 -0.8883953 -0.20295341
vn -0.41178113 -0.8883953 0.20295341
vn -0.41178113 -0.8883953 0.20295341
vn 0.42404658 -0.8883953 0.17589277
vn 0.42404658 -0.8883953 -0.17589277
vn 0.23830706 -0.8883953 0.3923819
vn -0.25699824 -0.8883953 0.38040203
vn 0.021610975 0.16412848 -0.9862022
vn 0.021610975 0.16412848 -0.9862022
vn -0.566564 0.22604162 -0.792408
vn -0.566564 0.22604162 -0.792408
vn -0.90708655 0.25699824 -0.33338553
vn -0.90708655 0.25699824 -0.33338553
vn -0.90708655 0.25699824 0.33338553
vn -0.90708655 0.25699824 0.33338553
vn -0.566564 0.22604162 0.792408
vn -0.566564 0.22604162 0.792408
vn 0.021610975 0.19508511 0.98054814
vn 0.021610975 0.19508511 0.98054814
vn 0.6097861 0.13317186 0.78129774
vn 0.5788295 0.13317186 0.8045009
vn 0.9503085 0.071258724 0.30304447
vn 0.9503085 0.071258724 0.30304447
vn 0.9503085 0.071258724 0.30304447
vn 0.9503085 0.071258724 0.30304447
vn 0.9503085 0.071258724 -0.30304447
vn 0.9503085 0.071258724 -0.30304447
vn 0.5788295 0.10221535 -0.80901694
vn 0.5788295 0.10221535 -0.80901694
vn 0.021610975 0.16412848 -0.9862022
vn 0.021610975 0.16412848 -0.9862022
vn -0.009345591 0.19508511 -0.9807418
vn -0.009345591 0.19508511 -0.9807418
vn -0.59752065 0.16412848 -0.7848764
vn -0.59752065 0.16412848 -0.7848764
vn -0.93804306 0.13317186 -0.31990698
vn -0.93804306 0.13317186 -0.31990698
vn -0.93804306 0.10221535 0.33110005
vn -0.93804306 0.10221535 0.33110005
vn -0.59752065 0.10221535 0.7953119
vn -0.59752065 0.10221535 0.7953119
vn -0.009345591 0.13317186 0.9910489
vn -0.009345591 0.13317186 0.9910489
vn 0.5788295 0.16412848 0.7987605
vn 0.5478729 0.13317186 0.82589376
vn 0.91935194 0.19508511 0.3416633
vn 0.91935194 0.19508511 0.3416633
vn 0.91935194 0.19508511 0.3416633
vn 0.91935194 0.19508511 0.3416633
vn 0.91935194 0.19508511 -0.3416633
vn 0.91935194 0.19508511 -0.3416633
vn 0.5788295 0.22604162 -0.78349316
vn 0.5788295 0.22604162 -0.78349316
vn -0.009345591 0.19508511 -0.9807418
vn -0.009345591 0.19508511 -0.9807418
vn -0.009345591 0.071258724 -0.9974141
vn -0.009345591 0.071258724 -0.9974141
vn -0.59752065 0.10221535 -0.7953119
vn -0.59752065 0.10221535 -0.7953119
vn -0.93804306 0.13317186 -0.31990698
vn -0.93804306 0.13317186 -0.31990698
vn -0.93804306 0.22604162 0.26264122
vn -0.93804306 0.22604162 0.26264122
vn -0.566564 0.25699824 0.7829158
vn -0.566564 0.25699824 0.7829158
vn 0.021610975 0.28795487 0.9574001
vn 0.021610975 0.28795487 0.9574001
vn 0.5788295 0.25699824 0.7738917
vn 0.5788295 0.25699824 0.7738917
vn 0.9503085 0.19508511 0.24260163
vn 0.9503085 0.19508511 0.24260163
vn 0.9503085 0.19508511 0.24260163
vn 0.9503085 0.19508511 0.24260163
vn 0.91935194 0.13317186 -0.37021247
vn 0.9503085 0.13317186 -0.28138766
vn 0.5788295 0.071258724 -0.8123291
vn 0.5788295 0.071258724 -0.8123291
vn -0.009345591 0.071258724 -0.9974141
vn -0.009345591 0.071258724 -0.9974141
vn -0.16412848 0.93804306 -0.30518368
vn -0.009345591 0.93804306 -0.3463927
vn -0.009345591 0.9999562 -0.00054591504
vn -0.25699824 0.93804306 -0.23243739
vn 0.17639393 0.93804306 -0.29826233
vn -0.25635707 0.9665822 -0
vn 0.26926368 0.93804306 -0.21811078
vn -0.16412848 0.9689997 0.18466587
vn 0.2677335 0.9634931 -0
vn -0.009345591 0.9689997 0.24688521
vn 0.17639393 0.9689997 0.1729879
vn -0.22604162 0.9689997 -0.0997236
vn -0.071258724 0.9689997 -0.23656256
vn -0.07108159 0.99747056 -0
vn -0.31891137 0.93804306 0.13553873
vn 0.08323797 0.9965298 -0
vn -0.31891137 0.93804306 0.13553873
vn 0.17371951 0.9847952 -0
vn -0.22604162 0.93804306 0.2626412
vn 0.17639393 0.9689997 0.1729879
vn -0.071258724 0.93804306 0.33911273
vn 0.08352417 0.9689997 0.2325152
vn -0.071258724 0.9689997 -0.23656256
vn 0.08352417 0.9689997 -0.2325152
vn 0.08323797 0.9965298 -0
vn -0.16412848 0.9689997 -0.18466587
vn 0.26926368 0.93804306 -0.21811078
vn -0.16412848 0.9689997 0.18466587
vn 0.36014634 0.93289584 -0
vn -0.071258724 0.9689997 0.23656256
vn 0.36014634 0.93289584 -0
vn 0.08352417 0.9689997 0.2325152
vn 0.26926368 0.93804306 0.21811078
g cookie_0
f 3/3/3 2/2/2 1/1/1
f 6/6/6 5/5/5 4/4/4
f 7/7/7 6/6/6 4/4/4
f 8/8/8 6/6/6 7/7/7
f 9/9/9 7/7/7 4/4/4
f 10/10/10 9/9/9 4/4/4
f 11/11/11 8/8/8 7/7/7
f 12/12/12 8/8/8 11/11/11
f 9/9/9 13/13/13 7/7/7
f 13/13/13 11/11/11 7/7/7
f 14/14/14 12/12/12 11/11/11
f 15/15/15 12/12/12 14/14/14
f 13/13/13 16/16/16 11/11/11
f 16/16/16 14/14/14 11/11/11
f 17/17/17 15/15/15 14/14/14
f 18/18/18 15/15/15 17/17/17
f 16/16/16 19/19/19 14/14/14
f 19/19/19 17/17/17 14/14/14
f 20/20/20 18/18/18 17/17/17
f 21/21/21 18/18/18 20/20/20
f 19/19/19 22/22/22 17/17/17
f 22/22/22 20/20/20 17/17/17
f 23/23/23 21/21/21 20/20/20
f 24/24/24 21/21/21 23/23/23
f 22/22/22 25/25/25 20/20/20
f 25/25/25 23/23/23 20/20/20
f 26/26/26 24/24/24 23/23/23
f 27/27/27 24/24/24 26/26/26
f 25/25/25 28/28/28 23/23/23
f 28/28/28 26/26/26 23/23/23
f 29/29/29 27/27/27 26/26/26
f 30/30/30 27/27/27 29/29/29
f 28/28/28 31/31/31 26/26/26
f 31/31/31 29/29/29 26/26/26
f 32/32/32 30/30/30 29/29/29
f 33/33/33 30/30/30 32/32/32
f 34/34/34 33/33/33 32/32/32
f 10/10/10 34/34/34 32/32/32
f 35/35/35 32/32/32 29/29/29
f 31/31/31 35/35/35 29/29/29
f 35/35/35 10/10/10 32/32/32
f 22/22/22 36/36/36 25/25/25
f 25/25/25 37/37/37 28/28/28
f 36/36/36 37/37/37 25/25/25
f 36/36/36 38/38/38 37/37/37
f 37/37/37 38/38/38 39/39/39
f 37/37/37 39/39/39 28/28/28
f 28/28/28 39/39/39 31/31/31
f 40/40/40 38/38/38 36/36/36
f 40/40/40 36/36/36 22/22/22
f 19/19/19 40/40/40 22/22/22
f 39/39/39 41/41/41 31/31/31
f 31/31/31 41/41/41 35/35/35
f 39/39/39 38/38/38 41/41/41
f 42/42/42 40/40/40 19/19/19
f 42/42/42 38/38/38 40/40/40
f 16/16/16 42/42/42 19/19/19
f 41/41/41 43/43/43 35/35/35
f 35/35/35 43/43/43 10/10/10
f 41/41/41 38/38/38 43/43/43
f 44/44/44 42/42/42 16/16/16
f 44/44/44 38/38/38 42/42/42
f 13/13/13 44/44/44 16/16/16
f 43/43/43 45/45/45 10/10/10
f 43/43/43 38/38/38 45/45/45
f 10/10/10 45/45/45 9/9/9
f 46/46/46 44/44/44 13/13/13
f 46/46/46 38/38/38 44/44/44
f 9/9/9 46/46/46 13/13/13
f 45/45/45 46/46/46 9/9/9
f 45/45/45 38/38/38 46/46/46
f 49/49/49 48/48/48 47/47/47
f 47/47/47 50/50/50 49/49/49
f 50/50/50 51/51/51 49/49/49
f 50/50/50 52/52/52 51/51/51
f 55/55/55 54/54/54 53/53/53
f 54/54/54 56/56/56 53/53/53
f 56/56/56 57/57/57 53/53/53
f 60/60/60 59/59/59 58/58/58
f 61/61/61 60/60/60 58/58/58
f 62/62/62 60/60/60 61/61/61
f 63/63/63 62/62/62 61/61/61
f 64/64/64 62/62/62 63/63/63
f 65/65/65 64/64/64 63/63/63
f 66/66/66 64/64/64 65/65/65
f 67/67/67 66/66/66 65/65/65
f 68/68/68 66/66/66 67/67/67
f 69/69/69 68/68/68 67/67/67
f 70/70/70 68/68/68 69/69/69
f 71/71/71 70/70/70 69/69/69
f 72/72/72 70/70/70 71/71/71
f 73/73/73 72/72/72 71/71/71
f 76/76/76 75/75/75 74/74/74
f 77/77/77 76/76/76 74/74/74
f 78/78/78 76/76/76 77/77/77
f 79/79/79 78/78/78 77/77/77
f 80/80/80 78/78/78 79/79/79
f 81/81/81 80/80/80 79/79/79
f 84/84/84 83/83/83 82/82/82
f 85/85/85 84/84/84 82/82/82
f 86/86/86 84/84/84 85/85/85
f 87/87/87 86/86/86 85/85/85
f 88/88/88 86/86/86 87/87/87
f 89/89/89 88/88/88 87/87/87
f 90/90/90 88/88/88 89/89/89
f 91/91/91 90/90/90 89/89/89
f 92/92/92 90/90/90 91/91/91
f 93/93/93 92/92/92 91/91/91
f 94/94/94 92/92/92 93/93/93
f 95/95/95 94/94/94 93/93/93
f 96/96/96 94/94/94 95/95/95
f 97/97/97 96/96/96 95/95/95
f 100/100/100 99/99/99 98/98/98
f 101/101/101 100/100/100 98/98/98
f 102/102/102 100/100/100 101/101/101
f 103/103/103 102/102/102 101/101/101
f 104/104/104 102/102/102 103/103/103
f 105/105/105 104/104/104 103/103/103
f 108/108/108 107/107/107 106/106/106
f 109/109/109 108/108/108 106/106/106
f 110/110/110 108/108/108 109/109/109
f 111/111/111 110/110/110 109/109/109
f 112/112/112 110/110/110 111/111/111
f 113/113/113 112/112/112 111/111/111
f 114/114/114 112/112/112 113/113/113
f 115/115/115 114/114/114 113/113/113
f 116/116/116 114/114/114 115/115/115
f 117/117/117 116/116/116 115/115/115
f 118/118/118 116/116/116 117/117/117
f 119/119/119 118/118/118 117/117/117
f 120/120/120 118/118/118 119/119/119
f 121/121/121 120/120/120 119/119/119
f 124/124/124 123/123/123 122/122/122
f 125/125/125 124/124/124 122/122/122
f 126/126/126 124/124/124 125/125/125
f 127/127/127 126/126/126 125/125/125
f 128/128/128 126/126/126 127/127/127
f 129/129/129 128/128/128 127/127/127
f 132/132/132 131/131/131 130/130/130
f 132/132/132 130/130/130 133/133/133
f 132/132/132 134/134/134 131/131/131
f 132/132/132 133/133/133 135/135/135
f 132/132/132 136/136/136 134/134/134
f 132/132/132 135/135/135 137/137/137
f 132/132/132 138/138/138 136/136/136
f 132/132/132 137/137/137 139/139/139
f 132/132/132 140/140/140 138/138/138
f 132/132/132 139/139/139 140/140/140
f 143/143/143 142/142/142 141/141/141
f 143/143/143 141/141/141 144/144/144
f 143/143/143 145/145/145 142/142/142
f 143/143/143 144/144/144 146/146/146
f 143/143/143 147/147/147 145/145/145
f 143/143/143 146/146/146 148/148/148
f 143/143/143 149/149/149 147/147/147
f 143/143/143 148/148/148 150/150/150
f 143/143/143 151/151/151 149/149/149
f 143/143/143 150/150/150 151/151/151
f 154/154/154 153/153/153 152/152/152
f 154/154/154 152/152/152 155/155/155
f 154/154/154 156/156/156 153/153/153
f 154/154/154 155/155/155 157/157/157
f 154/154/154 158/158/158 156/156/156
f 154/154/154 157/157/157 159/159/159
f 154/154/154 160/160/160 158/158/158
f 154/154/154 159/159/159 161/161/161
f 154/154/154 162/162/162 160/160/160
f 154/154/154 161/161/161 162/162/162
