g coupon
v -0.40139133 0.11999999 -0.3901571
v 0.20882303 0.11999999 -0.012659889
v -0.40139133 0.11999999 0.3648373
v -0.882101 0.109999985 0.32207167
v -0.882101 0.109999985 -0.3473916
v -0.67852867 0.109999985 -0.40774655
v -0.67852867 0.109999985 0.38242662
v 0.67852867 0.109999985 0.38242662
v 0.6484428 0.109999985 0.5291506
v -0.6484428 0.109999985 0.5291506
v 0.67852867 0.109999985 -0.40774655
v 0.6484428 0.109999985 -0.5544704
v -0.6484428 0.109999985 -0.5544704
v 0.8821009 0.109999985 -0.3473916
v 0.8821009 0.109999985 0.32207167
v 0.2926755 0.11999999 -0.3901571
v 0.4327321 0.11999999 -0.3901571
v 0.4327321 0.11999999 0.3648373
v 0.2926755 0.11999999 0.3648373
v 1.1457444 0.09999999 0.14778906
v 1.2247537 0.09999999 -0.13136022
v 1.2246308 0.09999999 0.116696864
v 1.1577117 0.09999999 -0.15091512
v 1.1136717 0.09999999 0.26174176
v 1.1136717 0.09999999 -0.2347223
v -1.1136717 0.09999999 -0.2347223
v -1.1136717 0.09999999 0.26174176
v 1.1103985 0.09999999 0.7000537
v 1.1515781 0.09999999 0.37335134
v 1.1485629 0.09999999 0.61904997
v 1.2238008 0.09999999 0.40643084
v 1.2234983 0.09999999 0.57272965
v -1.1103985 0.09999999 0.7000537
v -1.1485629 0.09999999 0.61904997
v -1.1515781 0.09999999 0.37335134
v -1.2234983 0.09999999 0.57272965
v -1.2238008 0.09999999 0.40643084
v -1.1577117 0.09999999 -0.15091512
v -1.1457444 0.09999999 0.14778906
v -1.2247537 0.09999999 -0.13136022
v -1.2246308 0.09999999 0.116696864
v -1.1381567 0.09999999 -0.3464651
v -1.1086361 0.09999999 -0.71944594
v -1.142664 0.09999999 -0.6201748
v -1.2247537 0.09999999 -0.38836884
v -1.2239162 0.09999999 -0.5966948
v 1.1086361 0.09999999 -0.71944594
v 1.142664 0.09999999 -0.6201748
v 1.1381567 0.09999999 -0.3464651
v 1.2247537 0.09999999 -0.38836884
v 1.2239162 0.09999999 -0.5966948
v 1.2247537 -0.10000001 -0.38836884
v 1.2239162 -0.10000001 -0.5966948
v 1.142664 -0.10000001 -0.6201748
v 1.1381567 -0.10000001 -0.3464651
v 1.1136717 -0.10000001 -0.2347223
v 1.1086361 -0.099999994 -0.71944594
v -1.1136717 -0.10000001 -0.2347223
v -1.1086361 -0.099999994 -0.71944594
v -1.142664 -0.10000001 -0.6201748
v -1.1381567 -0.10000001 -0.3464651
v -1.2247537 -0.10000001 -0.38836884
v -1.2239162 -0.10000001 -0.5966948
v -1.1136717 -0.10000001 0.26174176
v -1.1577117 -0.10000001 -0.15091512
v -1.1457444 -0.10000001 0.14778906
v -1.2247537 -0.10000001 -0.13136022
v -1.2246308 -0.10000001 0.116696864
v 1.1136717 -0.10000001 0.26174176
v 1.1577117 -0.10000001 -0.15091512
v 1.1457444 -0.10000001 0.14778906
v 1.2247537 -0.10000001 -0.13136022
v 1.2246308 -0.10000001 0.116696864
v -1.1103985 -0.10000001 0.7000537
v -1.1515781 -0.10000001 0.37335134
v 1.1103985 -0.10000001 0.7000537
v -1.1485629 -0.10000001 0.61904997
v -1.2238008 -0.10000001 0.40643084
v -1.2234983 -0.10000001 0.57272965
v 1.1515781 -0.10000001 0.37335134
v 1.1485629 -0.10000001 0.61904997
v 1.2238008 -0.10000001 0.40643084
v 1.2234983 -0.10000001 0.57272965
v 1.2247537 0.09999999 -0.13136022
v 1.2247537 -0.10000001 -0.13136022
v 1.2246308 -0.10000001 0.116696864
v 1.2246308 0.09999999 0.116696864
v 1.1457444 -0.10000001 0.14778906
v 1.1457444 0.09999999 0.14778906
v 1.1136717 -0.10000001 0.26174176
v 1.1136717 0.09999999 0.26174176
v 1.1515781 -0.10000001 0.37335134
v 1.1515781 0.09999999 0.37335134
v 1.2238008 -0.10000001 0.40643084
v 1.2238008 0.09999999 0.40643084
v 1.2234983 -0.10000001 0.57272965
v 1.2234983 0.09999999 0.57272965
v 1.1485629 -0.10000001 0.61904997
v 1.1485629 0.09999999 0.61904997
v 1.1103985 -0.10000001 0.7000537
v 1.1103985 0.09999999 0.7000537
v -1.1103985 0.09999999 0.7000537
v -1.1103985 -0.10000001 0.7000537
v -1.1485629 0.09999999 0.61904997
v -1.1485629 -0.10000001 0.61904997
v -1.2234983 0.09999999 0.57272965
v -1.2234983 -0.10000001 0.57272965
v -1.2238008 0.09999999 0.40643084
v -1.2238008 -0.10000001 0.40643084
v -1.1515781 0.09999999 0.37335134
v -1.1515781 -0.10000001 0.37335134
v -1.1136717 0.09999999 0.26174176
v -1.1136717 -0.10000001 0.26174176
v -1.1457444 0.09999999 0.14778906
v -1.1457444 -0.10000001 0.14778906
v -1.2246308 0.09999999 0.116696864
v -1.2246308 -0.10000001 0.116696864
v -1.2247537 0.09999999 -0.13136022
v -1.2247537 -0.10000001 -0.13136022
v 1.1577117 0.09999999 -0.15091512
v 1.2247537 -0.10000001 -0.13136022
v 1.2247537 0.09999999 -0.13136022
v 1.1577117 -0.10000001 -0.15091512
v 1.1136717 0.09999999 -0.2347223
v 1.1136717 -0.10000001 -0.2347223
v 1.1381567 0.09999999 -0.3464651
v 1.1381567 -0.10000001 -0.3464651
v 1.2247537 0.09999999 -0.38836884
v 1.2247537 -0.10000001 -0.38836884
v 1.2239162 0.09999999 -0.5966948
v 1.2239162 -0.10000001 -0.5966948
v 1.142664 0.09999999 -0.6201748
v 1.2239162 -0.10000001 -0.5966948
v 1.2239162 0.09999999 -0.5966948
v 1.142664 -0.10000001 -0.6201748
v 1.1086361 0.09999999 -0.71944594
v 1.1086361 -0.099999994 -0.71944594
v -1.1577117 0.09999999 -0.15091512
v -1.2247537 0.09999999 -0.13136022
v -1.2247537 -0.10000001 -0.13136022
v -1.1577117 -0.10000001 -0.15091512
v -1.1136717 0.09999999 -0.2347223
v -1.1136717 -0.10000001 -0.2347223
v -1.1381567 0.09999999 -0.3464651
v -1.1381567 -0.10000001 -0.3464651
v -1.2247537 0.09999999 -0.38836884
v -1.2247537 -0.10000001 -0.38836884
v -1.2239162 0.09999999 -0.5966948
v -1.2239162 -0.10000001 -0.5966948
v 1.1086361 0.09999999 -0.71944594
v -1.1086361 0.09999999 -0.71944594
v -1.1086361 -0.099999994 -0.71944594
v 1.1086361 -0.099999994 -0.71944594
v -1.142664 0.09999999 -0.6201748
v -1.2239162 0.09999999 -0.5966948
v -1.2239162 -0.10000001 -0.5966948
v -1.142664 -0.10000001 -0.6201748
v -1.1086361 0.09999999 -0.71944594
v -1.1086361 -0.099999994 -0.71944594
v 0.67852867 0.109999985 -0.40774655
v 0.9576601 0.109999985 -0.4037999
v 0.8821009 0.109999985 -0.3473916
v 0.74344647 0.109999985 -0.46730983
v 0.9576601 0.109999985 0.37383503
v 0.6484428 0.109999985 -0.5544704
v 0.8821009 0.109999985 0.32207167
v 0.7100806 0.109999985 -0.63002956
v 0.74344647 0.109999985 0.44199002
v -0.6484428 0.109999985 -0.5544704
v 0.67852867 0.109999985 0.38242662
v -0.7100806 0.109999985 -0.63002956
v 0.7100806 0.109999985 0.60470974
v -0.67852867 0.109999985 -0.40774655
v 0.6484428 0.109999985 0.5291506
v -0.74344647 0.109999985 -0.46730983
v -0.7100806 0.109999985 0.60470974
v -0.882101 0.109999985 -0.3473916
v -0.6484428 0.109999985 0.5291506
v -0.9576602 0.109999985 -0.4037999
v -0.74344647 0.109999985 0.44199002
v -0.882101 0.109999985 0.32207167
v -0.67852867 0.109999985 0.38242662
v -0.9576602 0.109999985 0.37848008
vt 0.5339737 0.034097552
vt 0.5339737 0.034097552
vt 0.5339737 0.034097552
vt 0.2180652 0.7839775
vt 0.2180652 0.7839775
vt 0.2180652 0.7839775
vt 0.2180652 0.7839775
vt 0.2180652 0.7839775
vt 0.2180652 0.7839775
vt 0.2180652 0.7839775
vt 0.2180652 0.7839775
vt 0.2180652 0.7839775
vt 0.2180652 0.7839775
vt 0.2180652 0.7839775
vt 0.2180652 0.7839775
vt 0.5339737 0.034097552
vt 0.5339737 0.034097552
vt 0.5339737 0.034097552
vt 0.5339737 0.034097552
vt 0.15643463 0.7842168
vt 0.15643463 0.7842168
vt 0.15643463 0.7842168
vt 0.15643463 0.7842168
vt 0.15643463 0.7842168
vt 0.15643463 0.7842168
vt 0.15643463 0.7842168
vt 0.15643463 0.7842168
vt 0.15643463 0.7842168
vt 0.15643463 0.7842168
vt 0.15643463 0.7842168
vt 0.15643463 0.7842168
vt 0.15643463 0.7842168
vt 0.15643463 0.7842168
vt 0.15643463 0.7842168
vt 0.15643463 0.7842168
vt 0.15643463 0.7842168
vt 0.15643463 0.7842168
vt 0.15643463 0.7842168
vt 0.15643463 0.7842168
vt 0.15643463 0.7842168
vt 0.15643463 0.7842168
vt 0.15643463 0.7842168
vt 0.15643463 0.7842168
vt 0.15643463 0.7842169
vt 0.15643463 0.7842168
vt 0.15643463 0.7842168
vt 0.15643463 0.7842168
vt 0.15643463 0.7842169
vt 0.15643463 0.7842168
vt 0.15643463 0.7842168
vt 0.15643463 0.7842168
vt 0.15643463 0.7842168
vt 0.15643463 0.7842168
vt 0.15643463 0.7842169
vt 0.15643463 0.7842168
vt 0.15643463 0.7842168
vt 0.15643463 0.7842168
vt 0.15643463 0.7842168
vt 0.15643463 0.7842168
vt 0.15643463 0.7842169
vt 0.15643463 0.7842168
vt 0.15643463 0.7842168
vt 0.15643463 0.7842168
vt 0.15643463 0.7842168
vt 0.15643463 0.7842168
vt 0.15643463 0.7842168
vt 0.15643463 0.7842168
vt 0.15643463 0.7842168
vt 0.15643463 0.7842168
vt 0.15643463 0.7842168
vt 0.15643463 0.7842168
vt 0.15643463 0.7842168
vt 0.15643463 0.7842168
vt 0.15643463 0.7842168
vt 0.15643463 0.7842168
vt 0.15643463 0.7842168
vt 0.15643463 0.7842168
vt 0.15643463 0.7842168
vt 0.15643463 0.7842168
vt 0.15643463 0.7842168
vt 0.15643463 0.7842168
vt 0.15643463 0.7842168
vt 0.15643463 0.7842168
vt 0.27929252 0.7819644
vt 0.27929252 0.7819644
vt 0.27929252 0.7819644
vt 0.27929252 0.7819644
vt 0.27929252 0.7819644
vt 0.27929252 0.7819644
vt 0.27929252 0.7819644
vt 0.27929252 0.7819644
vt 0.27929252 0.7819644
vt 0.27929252 0.7819644
vt 0.27929252 0.7819644
vt 0.27929252 0.7819644
vt 0.27929252 0.7819644
vt 0.27929252 0.7819644
vt 0.27929252 0.7819644
vt 0.27929252 0.7819644
vt 0.27929252 0.7819644
vt 0.27929252 0.7819644
vt 0.27929252 0.7819644
vt 0.27929252 0.7819644
vt 0.27929252 0.7819644
vt 0.27929252 0.7819644
vt 0.27929252 0.7819644
vt 0.27929252 0.7819644
vt 0.27929252 0.7819644
vt 0.27929252 0.7819644
vt 0.27929252 0.7819644
vt 0.27929252 0.7819644
vt 0.27929252 0.7819644
vt 0.27929252 0.7819644
vt 0.27929252 0.7819644
vt 0.27929252 0.7819644
vt 0.27929252 0.7819644
vt 0.27929252 0.7819644
vt 0.27929252 0.7819644
vt 0.27929252 0.7819644
vt 0.27929252 0.7819644
vt 0.27929252 0.7819644
vt 0.27929252 0.7819644
vt 0.27929252 0.7819644
vt 0.27929252 0.7819644
vt 0.27929252 0.7819644
vt 0.27929252 0.7819644
vt 0.27929252 0.7819644
vt 0.27929252 0.7819644
vt 0.27929252 0.7819644
vt 0.27929252 0.7819644
vt 0.27929252 0.7819644
vt 0.27929252 0.7819644
vt 0.27929252 0.7819644
vt 0.27929252 0.7819644
vt 0.27929252 0.7819644
vt 0.27929252 0.7819644
vt 0.27929252 0.7819644
vt 0.27929252 0.7819644
vt 0.27929252 0.7819644
vt 0.27929252 0.7819644
vt 0.27929252 0.7819644
vt 0.27929252 0.7819644
vt 0.27929252 0.7819644
vt 0.27929252 0.7819644
vt 0.27929252 0.7819644
vt 0.27929252 0.7819644
vt 0.27929252 0.7819644
vt 0.27929252 0.7819644
vt 0.27929252 0.7819644
vt 0.27929252 0.7819644
vt 0.27929252 0.7819644
vt 0.27929252 0.7819644
vt 0.27929252 0.7819644
vt 0.27929252 0.7819644
vt 0.27929252 0.7819644
vt 0.27929252 0.7819644
vt 0.27929252 0.7819644
vt 0.27929252 0.7819644
vt 0.27929252 0.7819644
vt 0.027641207 0.78662556
vt 0.027641207 0.78662556
vt 0.027641207 0.78662556
vt 0.027641207 0.78662556
vt 0.027641207 0.78662556
vt 0.027641207 0.78662556
vt 0.027641207 0.78662556
vt 0.027641207 0.78662556
vt 0.027641207 0.78662556
vt 0.027641207 0.78662556
vt 0.027641207 0.78662556
vt 0.027641207 0.78662556
vt 0.027641207 0.78662556
vt 0.027641207 0.78662556
vt 0.027641207 0.78662556
vt 0.027641207 0.78662556
vt 0.027641207 0.78662556
vt 0.027641207 0.78662556
vt 0.027641207 0.78662556
vt 0.027641207 0.78662556
vt 0.027641207 0.78662556
vt 0.027641207 0.78662556
vt 0.027641207 0.78662556
vt 0.027641207 0.78662556
vn -0 1 0
vn -0 1 0
vn -0 1 0
vn -0 1 0
vn -0 1 0
vn -0 1 0
vn -0 1 0
vn -0 1 0
vn -0 1 0
vn -0 1 0
vn -0 1 0
vn -0 1 0
vn -0 1 0
vn -0 1 0
vn -0 1 0
vn -0 1 0
vn -0 1 0
vn -0 1 0
vn -0 1 0
vn -0 1 0
vn -0 1 0
vn -0 1 0
vn -0 1 0
vn -0 1 0
vn -0 1 0
vn -0 1 0
vn -0 1 0
vn -0 1 0
vn -0 1 0
vn -0 1 0
vn -0 1 0
vn -0 1 0
vn -0 1 0
vn -0 1 0
vn -0 1 0
vn -0 1 0
vn -0 1 0
vn -0 1 0
vn -0 1 0
vn -0 1 0
vn -0 1 0
vn -0 1 0
vn -0 1 0
vn -0 1 0
vn -0 1 0
vn -0 1 0
vn -0 1 0
vn -0 1 0
vn -0 1 0
vn -0 1 0
vn -0 1 0
vn -0 -1 0
vn -0 -1 0
vn -0 -1 0
vn -0 -1 0
vn -0 -1 0
vn -0 -1 0
vn -0 -1 0
vn -0 -1 0
vn -0 -1 0
vn -0 -1 0
vn -0 -1 0
vn -0 -1 0
vn -0 -1 0
vn -0 -1 0
vn -0 -1 0
vn -0 -1 0
vn -0 -1 0
vn -0 -1 0
vn -0 -1 0
vn -0 -1 0
vn -0 -1 0
vn -0 -1 0
vn -0 -1 0
vn -0 -1 0
vn -0 -1 0
vn -0 -1 0
vn -0 -1 0
vn -0 -1 0
vn -0 -1 0
vn -0 -1 0
vn -0 -1 0
vn -0 -1 0
vn 0.9999999 0 0.0004952895
vn 0.9999999 0 0.0004952895
vn 0.826506 0 0.56292784
vn 0.826506 0 0.56292784
vn 0.74192727 0 0.67048043
vn 0.74192727 0 0.67048043
vn 0.9996482 0 -0.026522275
vn 0.9996482 0 -0.026522275
vn 0.7422656 0 -0.6701059
vn 0.7422656 0 -0.6701059
vn 0.84204286 0 -0.5394106
vn 0.84204286 0 -0.5394106
vn 0.8729966 0 0.4877262
vn 0.8729966 0 0.4877262
vn 0.7460258 0 0.66591704
vn 0.7460258 0 0.66591704
vn 0.5356268 0 0.8444548
vn 0.5356268 0 0.8444548
vn -0.5356268 0 0.8444548
vn -0.5356268 0 0.8444548
vn -0.7460258 0 0.66591704
vn -0.7460258 0 0.66591704
vn -0.8729966 0 0.4877262
vn -0.8729966 0 0.4877262
vn -0.84204286 0 -0.5394106
vn -0.84204286 0 -0.5394106
vn -0.7422656 0 -0.6701059
vn -0.7422656 0 -0.6701059
vn -0.9996482 0 -0.026522275
vn -0.9996482 0 -0.026522275
vn -0.74192727 0 0.67048043
vn -0.74192727 0 0.67048043
vn -0.826506 0 0.56292784
vn -0.826506 0 0.56292784
vn -0.9999999 0 0.0004952895
vn -0.9999999 0 0.0004952895
vn 0.6329714 0 -0.77417505
vn 0.2800131 0 -0.95999616
vn 0.2800131 0 -0.95999616
vn 0.6329714 0 -0.77417505
vn 0.9910272 0 -0.13366045
vn 0.9910272 0 -0.13366045
vn 0.7851157 0 0.6193492
vn 0.7851157 0 0.6193492
vn 0.8482902 0 0.5295316
vn 0.8482902 0 0.5295316
vn 0.9999919 0 -0.004020204
vn 0.9999919 0 -0.004020204
vn 0.68960446 0 -0.72418624
vn 0.27761742 0 -0.9606917
vn 0.27761742 0 -0.9606917
vn 0.68960434 0 -0.72418624
vn 0.94596964 0 -0.32425508
vn 0.94596964 0 -0.32425508
vn -0.6329714 0 -0.77417505
vn -0.2800131 0 -0.95999616
vn -0.2800131 0 -0.95999616
vn -0.6329714 0 -0.77417505
vn -0.9910272 0 -0.13366045
vn -0.9910272 0 -0.13366045
vn -0.7851157 0 0.6193492
vn -0.7851157 0 0.6193492
vn -0.8482902 0 0.5295316
vn -0.8482902 0 0.5295316
vn -0.9999919 0 -0.004020204
vn -0.9999919 0 -0.004020204
vn -0 0 -1
vn -0 0 -1
vn -0 0 -1
vn -0 0 -1
vn -0.6896044 0 -0.72418624
vn -0.27761742 0 -0.9606917
vn -0.27761742 0 -0.9606917
vn -0.68960434 0 -0.72418624
vn -0.94596964 0 -0.32425517
vn -0.94596964 0 -0.32425517
vn -0 1 0
vn -0 1 0
vn -0 1 0
vn -0 1 0
vn -0 1 0
vn -0 1 0
vn -0 1 0
vn -0 1 0
vn -0 1 0
vn -0 1 0
vn -0 1 0
vn -0 1 0
vn -0 1 0
vn -0 1 0
vn -0 1 0
vn -0 1 0
vn -0 1 0
vn -0 1 0
vn -0 1 0
vn -0 1 0
vn -0 1 0
vn -0 1 0
vn -0 1 0
vn -0 1 0
g coupon_0
f 3/3/3 2/2/2 1/1/1
f 6/6/6 5/5/5 4/4/4
f 7/7/7 6/6/6 4/4/4
f 7/7/7 8/8/8 6/6/6
f 9/9/9 8/8/8 7/7/7
f 10/10/10 9/9/9 7/7/7
f 8/8/8 11/11/11 6/6/6
f 6/6/6 11/11/11 12/12/12
f 13/13/13 6/6/6 12/12/12
f 11/11/11 8/8/8 14/14/14
f 8/8/8 15/15/15 14/14/14
f 18/18/18 17/17/17 16/16/16
f 19/19/19 18/18/18 16/16/16
f 22/22/22 21/21/21 20/20/20
f 21/21/21 23/23/23 20/20/20
f 20/20/20 23/23/23 24/24/24
f 23/23/23 25/25/25 24/24/24
f 24/24/24 25/25/25 26/26/26
f 27/27/27 24/24/24 26/26/26
f 28/28/28 24/24/24 27/27/27
f 29/29/29 24/24/24 28/28/28
f 30/30/30 29/29/29 28/28/28
f 31/31/31 29/29/29 30/30/30
f 32/32/32 31/31/31 30/30/30
f 33/33/33 28/28/28 27/27/27
f 34/34/34 33/33/33 27/27/27
f 35/35/35 34/34/34 27/27/27
f 36/36/36 34/34/34 35/35/35
f 37/37/37 36/36/36 35/35/35
f 26/26/26 38/38/38 27/27/27
f 38/38/38 39/39/39 27/27/27
f 38/38/38 40/40/40 39/39/39
f 40/40/40 41/41/41 39/39/39
f 26/26/26 43/43/43 42/42/42
f 26/26/26 25/25/25 43/43/43
f 43/43/43 44/44/44 42/42/42
f 44/44/44 45/45/45 42/42/42
f 45/45/45 44/44/44 46/46/46
f 25/25/25 47/47/47 43/43/43
f 47/47/47 25/25/25 48/48/48
f 25/25/25 49/49/49 48/48/48
f 49/49/49 50/50/50 48/48/48
f 50/50/50 51/51/51 48/48/48
f 54/54/54 53/53/53 52/52/52
f 55/55/55 54/54/54 52/52/52
f 54/54/54 55/55/55 56/56/56
f 57/57/57 54/54/54 56/56/56
f 57/57/57 56/56/56 58/58/58
f 59/59/59 57/57/57 58/58/58
f 60/60/60 59/59/59 58/58/58
f 61/61/61 60/60/60 58/58/58
f 61/61/61 62/62/62 60/60/60
f 62/62/62 63/63/63 60/60/60
f 58/58/58 56/56/56 64/64/64
f 65/65/65 58/58/58 64/64/64
f 66/66/66 65/65/65 64/64/64
f 67/67/67 65/65/65 66/66/66
f 68/68/68 67/67/67 66/66/66
f 56/56/56 69/69/69 64/64/64
f 56/56/56 70/70/70 69/69/69
f 70/70/70 71/71/71 69/69/69
f 70/70/70 72/72/72 71/71/71
f 72/72/72 73/73/73 71/71/71
f 64/64/64 69/69/69 74/74/74
f 64/64/64 74/74/74 75/75/75
f 69/69/69 76/76/76 74/74/74
f 74/74/74 77/77/77 75/75/75
f 75/75/75 77/77/77 78/78/78
f 77/77/77 79/79/79 78/78/78
f 76/76/76 69/69/69 80/80/80
f 81/81/81 76/76/76 80/80/80
f 81/81/81 80/80/80 82/82/82
f 83/83/83 81/81/81 82/82/82
f 86/86/86 85/85/85 84/84/84
f 87/87/87 86/86/86 84/84/84
f 88/88/88 86/86/86 87/87/87
f 89/89/89 88/88/88 87/87/87
f 90/90/90 88/88/88 89/89/89
f 91/91/91 90/90/90 89/89/89
f 92/92/92 90/90/90 91/91/91
f 93/93/93 92/92/92 91/91/91
f 94/94/94 92/92/92 93/93/93
f 95/95/95 94/94/94 93/93/93
f 96/96/96 94/94/94 95/95/95
f 97/97/97 96/96/96 95/95/95
f 98/98/98 96/96/96 97/97/97
f 99/99/99 98/98/98 97/97/97
f 100/100/100 98/98/98 99/99/99
f 101/101/101 100/100/100 99/99/99
f 100/100/100 101/101/101 102/102/102
f 103/103/103 100/100/100 102/102/102
f 103/103/103 102/102/102 104/104/104
f 105/105/105 103/103/103 104/104/104
f 105/105/105 104/104/104 106/106/106
f 107/107/107 105/105/105 106/106/106
f 107/107/107 106/106/106 108/108/108
f 109/109/109 107/107/107 108/108/108
f 109/109/109 108/108/108 110/110/110
f 111/111/111 109/109/109 110/110/110
f 111/111/111 110/110/110 112/112/112
f 113/113/113 111/111/111 112/112/112
f 113/113/113 112/112/112 114/114/114
f 115/115/115 113/113/113 114/114/114
f 115/115/115 114/114/114 116/116/116
f 117/117/117 115/115/115 116/116/116
f 117/117/117 116/116/116 118/118/118
f 119/119/119 117/117/117 118/118/118
f 122/122/122 121/121/121 120/120/120
f 121/121/121 123/123/123 120/120/120
f 120/120/120 123/123/123 124/124/124
f 123/123/123 125/125/125 124/124/124
f 124/124/124 125/125/125 126/126/126
f 125/125/125 127/127/127 126/126/126
f 126/126/126 127/127/127 128/128/128
f 127/127/127 129/129/129 128/128/128
f 128/128/128 129/129/129 130/130/130
f 129/129/129 131/131/131 130/130/130
f 134/134/134 133/133/133 132/132/132
f 133/133/133 135/135/135 132/132/132
f 132/132/132 135/135/135 136/136/136
f 135/135/135 137/137/137 136/136/136
f 140/140/140 139/139/139 138/138/138
f 141/141/141 140/140/140 138/138/138
f 141/141/141 138/138/138 142/142/142
f 143/143/143 141/141/141 142/142/142
f 143/143/143 142/142/142 144/144/144
f 145/145/145 143/143/143 144/144/144
f 145/145/145 144/144/144 146/146/146
f 147/147/147 145/145/145 146/146/146
f 147/147/147 146/146/146 148/148/148
f 149/149/149 147/147/147 148/148/148
f 152/152/152 151/151/151 150/150/150
f 153/153/153 152/152/152 150/150/150
f 156/156/156 155/155/155 154/154/154
f 157/157/157 156/156/156 154/154/154
f 157/157/157 154/154/154 158/158/158
f 159/159/159 157/157/157 158/158/158
f 162/162/162 161/161/161 160/160/160
f 161/161/161 163/163/163 160/160/160
f 164/164/164 161/161/161 162/162/162
f 160/160/160 163/163/163 165/165/165
f 166/166/166 164/164/164 162/162/162
f 163/163/163 167/167/167 165/165/165
f 168/168/168 164/164/164 166/166/166
f 165/165/165 167/167/167 169/169/169
f 170/170/170 168/168/168 166/166/166
f 167/167/167 171/171/171 169/169/169
f 172/172/172 168/168/168 170/170/170
f 169/169/169 171/171/171 173/173/173
f 174/174/174 172/172/172 170/170/170
f 171/171/171 175/175/175 173/173/173
f 176/176/176 172/172/172 174/174/174
f 173/173/173 175/175/175 177/177/177
f 178/178/178 176/176/176 174/174/174
f 175/175/175 179/179/179 177/177/177
f 180/180/180 176/176/176 178/178/178
f 177/177/177 179/179/179 181/181/181
f 182/182/182 180/180/180 178/178/178
f 179/179/179 183/183/183 181/181/181
f 183/183/183 180/180/180 182/182/182
f 181/181/181 183/183/183 182/182/182
