g Crow_LOD2
v 0.29122055 -0.38002586 1.5025417
v 0.23422325 -0.37551448 1.6197935
v 0.25445908 -0.28805384 1.5804638
v 0.29122055 -0.38002586 1.5025417
v 0.24502906 -0.46559095 1.582711
v 0.23422325 -0.37551448 1.6197935
v 0.29122055 -0.38002586 1.5025417
v 0.27628326 -0.5096069 1.5009099
v 0.24502906 -0.46559095 1.582711
v 0.29122055 -0.38002586 1.5025417
v 0.31191412 -0.47122765 1.4180658
v 0.27628326 -0.5096069 1.5009099
v 0.29122055 -0.38002586 1.5025417
v 0.3321497 -0.383767 1.3787361
v 0.31191412 -0.47122765 1.4180658
v 0.29122055 -0.38002586 1.5025417
v 0.32134402 -0.29369044 1.4158182
v 0.3321497 -0.383767 1.3787361
v 0.29122055 -0.38002586 1.5025417
v 0.2900898 -0.24967436 1.4976195
v 0.32134402 -0.29369044 1.4158182
v 0.29122055 -0.38002586 1.5025417
v 0.25445908 -0.28805384 1.5804638
v 0.2900898 -0.24967436 1.4976195
v -0.29122055 -0.38002586 1.5025417
v -0.25445908 -0.28805384 1.5804638
v -0.23422325 -0.37551448 1.6197935
v -0.29122055 -0.38002586 1.5025417
v -0.23422325 -0.37551448 1.6197935
v -0.24502906 -0.46559095 1.582711
v -0.29122055 -0.38002586 1.5025417
v -0.24502906 -0.46559095 1.582711
v -0.27628326 -0.5096069 1.5009099
v -0.29122055 -0.38002586 1.5025417
v -0.27628326 -0.5096069 1.5009099
v -0.31191412 -0.47122765 1.4180658
v -0.29122055 -0.38002586 1.5025417
v -0.31191412 -0.47122765 1.4180658
v -0.3321497 -0.383767 1.3787361
v -0.29122055 -0.38002586 1.5025417
v -0.3321497 -0.383767 1.3787361
v -0.32134402 -0.29369044 1.4158182
v -0.29122055 -0.38002586 1.5025417
v -0.32134402 -0.29369044 1.4158182
v -0.2900898 -0.24967436 1.4976195
v -0.29122055 -0.38002586 1.5025417
v -0.2900898 -0.24967436 1.4976195
v -0.25445908 -0.28805384 1.5804638
v 0.16186526 -0.048429426 0.04944453
v 0.13265848 -0.15485951 0.02881431
v 0.12406626 -0.048725184 0.04944453
v 0.15199077 -0.1547133 0.02881431
v 0.16235979 -0.0417647 0.0064854347
v 0.15186079 -0.15631638 0.0053970404
v 0.20798524 -0.13901721 0.028814312
v 0.2082267 -0.14081389 0.0053970427
v 0.18550426 -0.022019982 0.048352446
v 0.22473378 -0.13089661 0.028814312
v 0.18902363 -0.023032578 0.010425298
v 0.22471319 -0.13289176 0.0053970427
v 0.16235979 -0.0417647 0.0064854347
v 0.2082267 -0.14081389 0.0053970427
v 0.18069525 0.012895765 0.013820683
v 0.18550426 -0.022019982 0.048352446
v 0.15928037 0.024623604 0.00938246
v 0.15788563 0.03674505 0.04665123
v 0.12589435 0.024362285 0.00938246
v 0.17984016 0.015710972 0.04665146
v 0.19695386 0.025187189 0.6247845
v 0.19734697 -0.019857021 0.6247845
v 0.16482478 0.056760415 0.6247845
v 0.16186526 -0.048429426 0.04944453
v 0.16577382 -0.05198614 0.6247845
v 0.122163795 -0.052379176 0.6247845
v 0.12406626 -0.048725184 0.04944453
v 0.1197805 0.05636729 0.6247845
v 0.12710588 0.036483128 0.046651464
v 0.08964164 0.024238259 0.6247845
v 0.105531216 0.015078721 0.04665146
v 0.10472398 0.012298708 0.013820683
v 0.105531216 0.015078721 0.04665146
v 0.10009194 -0.022714486 0.048352446
v 0.09690823 -0.023745937 0.010425414
v 0.1235435 -0.042059038 0.0064854347
v 0.0545388 -0.13421609 0.0053970437
v 0.07129057 -0.14184915 0.0053970423
v 0.052529693 -0.13211824 0.028814314
v 0.070621334 -0.13995762 0.028814312
v 0.12406626 -0.048725184 0.04944453
v 0.10009194 -0.022714486 0.048352446
v 0.09438525 -0.020805947 0.6247845
v 0.07129057 -0.14184915 0.0053970423
v 0.12406626 -0.048725184 0.04944453
v 0.070621334 -0.13995762 0.028814312
v 0.052529693 -0.13211824 0.028814314
v 0.09690823 -0.023745937 0.010425414
v 0.10009194 -0.022714486 0.048352446
v 0.22471319 -0.13289176 0.0053970427
v 0.2082267 -0.14081389 0.0053970427
v 0.20798524 -0.13901721 0.028814312
v 0.13283086 -0.15646426 0.0053970404
v 0.1235435 -0.042059038 0.0064854347
v 0.12406626 -0.048725184 0.04944453
v 0.13265848 -0.15485951 0.02881431
v 0.15199077 -0.1547133 0.02881431
v 0.13283086 -0.15646426 0.0053970404
v 0.16235979 -0.0417647 0.0064854347
v 0.1235435 -0.042059038 0.0064854347
v 0.13283086 -0.15646426 0.0053970404
v 0.15186079 -0.15631638 0.0053970404
v 0.09438525 -0.020805947 0.6247845
v 0.10009194 -0.022714486 0.048352446
v 0.105531216 0.015078721 0.04665146
v 0.08964164 0.024238259 0.6247845
v 0.1235435 -0.042059038 0.0064854347
v 0.15928037 0.024623604 0.00938246
v 0.12589435 0.024362285 0.00938246
v -0.10009194 -0.022714486 0.048352446
v -0.122163795 -0.052379176 0.6247845
v -0.09438525 -0.020805947 0.6247845
v -0.12406626 -0.048725184 0.04944453
v -0.052529693 -0.13211824 0.028814314
v -0.070621334 -0.13995762 0.028814312
v -0.07129057 -0.14184915 0.0053970423
v -0.0545388 -0.13421609 0.0053970437
v -0.1235435 -0.042059038 0.0064854347
v -0.09690823 -0.023745937 0.010425414
v -0.12589435 0.024362285 0.00938246
v -0.10472398 0.012298708 0.013820683
v -0.12710588 0.036483128 0.046651464
v -0.10009194 -0.022714486 0.048352446
v -0.105531216 0.015078721 0.04665146
v -0.15928037 0.024623604 0.00938246
v -0.15788563 0.03674505 0.04665123
v -0.18069525 0.012895765 0.013820683
v -0.16235979 -0.0417647 0.0064854347
v -0.16482478 0.056760415 0.6247845
v -0.1197805 0.05636729 0.6247845
v -0.08964164 0.024238259 0.6247845
v -0.105531216 0.015078721 0.04665146
v -0.19695386 0.025187189 0.6247845
v -0.17984016 0.015710972 0.04665146
v -0.19734697 -0.019857021 0.6247845
v -0.18550426 -0.022019982 0.048352446
v -0.16577382 -0.05198614 0.6247845
v -0.16186526 -0.048429426 0.04944453
v -0.12406626 -0.048725184 0.04944453
v -0.18902363 -0.023032578 0.010425298
v -0.2082267 -0.14081389 0.0053970427
v -0.22471319 -0.13289176 0.0053970427
v -0.18550426 -0.022019982 0.048352446
v -0.22473378 -0.13089661 0.028814312
v -0.20798524 -0.13901721 0.028814312
v -0.16186526 -0.048429426 0.04944453
v -0.2082267 -0.14081389 0.0053970427
v -0.16235979 -0.0417647 0.0064854347
v -0.15199077 -0.1547133 0.02881431
v -0.15186079 -0.15631638 0.0053970404
v -0.13265848 -0.15485951 0.02881431
v -0.12406626 -0.048725184 0.04944453
v -0.1235435 -0.042059038 0.0064854347
v -0.15928037 0.024623604 0.00938246
v -0.12589435 0.024362285 0.00938246
v -0.20798524 -0.13901721 0.028814312
v -0.22471319 -0.13289176 0.0053970427
v -0.2082267 -0.14081389 0.0053970427
v -0.13283086 -0.15646426 0.0053970404
v -0.15199077 -0.1547133 0.02881431
v -0.13265848 -0.15485951 0.02881431
v -0.1235435 -0.042059038 0.0064854347
v -0.13283086 -0.15646426 0.0053970404
v -0.12406626 -0.048725184 0.04944453
v -0.12406626 -0.048725184 0.04944453
v -0.070621334 -0.13995762 0.028814312
v -0.07129057 -0.14184915 0.0053970423
v -0.10009194 -0.022714486 0.048352446
v -0.09690823 -0.023745937 0.010425414
v -0.052529693 -0.13211824 0.028814314
v -0.16235979 -0.0417647 0.0064854347
v -0.15186079 -0.15631638 0.0053970404
v -0.13283086 -0.15646426 0.0053970404
v -0.1235435 -0.042059038 0.0064854347
v -0.09438525 -0.020805947 0.6247845
v -0.08964164 0.024238259 0.6247845
v -0.105531216 0.015078721 0.04665146
v -0.10009194 -0.022714486 0.048352446
v 0.39831188 0.31354666 0.5906464
v 0.42393842 0.17571114 0.59388196
v 0.43645138 0.21926545 0.64525473
v 0.38044265 0.31499404 0.64843464
v 0.33569083 0.1653572 0.5216024
v 0.34059483 0.064258724 0.5137734
v 0.3400415 0.07942347 0.6293372
v 0.3514662 -0.12093548 0.5149042
v 0.4429493 0.072708994 0.6178139
v 0.43645138 0.21926545 0.64525473
v 0.4233166 0.34744772 0.7164503
v 0.45237514 0.19839533 0.7121465
v 0.46337572 0.07650153 0.70765156
v 0.44852957 -0.12718265 0.61395586
v 0.44817272 0.21771629 0.7813553
v 0.38585827 0.31489944 0.79122007
v 0.46820346 -0.13505031 0.7014561
v 0.45624787 -0.2577513 0.6987138
v 0.45790157 0.06954985 0.8000759
v 0.43774784 -0.23794118 0.6094482
v 0.46036223 -0.12982644 0.7936051
v 0.39633837 0.0498465 0.92211896
v 0.44561487 0.16897191 0.8313237
v 0.41989973 0.3037807 0.8414581
v 0.36146274 -0.22649743 0.5319263
v 0.38398737 -0.31373915 0.59911466
v 0.35361183 -0.24538434 0.61588705
v 0.34962013 -0.13101636 0.6223557
v 0.36705405 -0.2659017 0.7052839
v 0.40047568 -0.34968334 0.6981836
v 0.36184078 -0.13937388 0.7095505
v 0.37592655 -0.24922915 0.80007535
v 0.40616965 -0.31887698 0.80447334
v 0.4507602 -0.2415748 0.79355764
v 0.40788582 -0.23593317 0.8858879
v 0.40514708 -0.13006136 0.9110413
v 0.3693983 -0.13404505 0.80116004
v 0.3494383 0.08381482 0.7168807
v 0.35653508 0.07505232 0.8073936
v 0.3420717 0.21115176 0.7211381
v 0.35298914 0.17740658 0.837415
v 0.34714106 0.22900988 0.7886544
v 0.33729762 0.36129588 0.7228359
v 0.34048966 0.2313374 0.6551081
v 0.39040595 0.1448527 0.9188607
v 0.38044277 0.2975796 0.8861427
v 0.35197565 0.3120104 0.8476246
v 0.37756476 0.35452932 0.8519089
v 0.37778902 0.38252756 0.8164449
v 0.32981604 0.18647599 0.6080077
v 0.32495934 0.32297 0.601721
v 0.37258407 0.39866555 0.75565964
v 0.3692419 0.41508028 0.7205083
v 0.37101367 0.39861763 0.6853921
v 0.33830813 0.31664854 0.5571517
v 0.36342287 0.38712803 0.6241594
v 0.34928858 0.36626634 0.5904413
v -0.15769899 -0.70952964 1.5393355
v -0.20003827 -0.5559272 1.5845834
v -0.07357467 -0.56564313 1.6676476
v -0.25649652 -0.55916 1.4572107
v -0.06006616 -0.72398704 1.5963963
v 0.06006616 -0.72398704 1.5963963
v 0.07357467 -0.56564313 1.6676476
v 0.20003827 -0.5559272 1.5845834
v 0.15769899 -0.70952964 1.5393355
v 0.25649652 -0.55916 1.4572107
v -0.19325545 -0.70392674 1.4593537
v -0.112833746 -0.832368 1.4916582
v -0.1736219 -0.7051254 1.3752761
v -0.2670758 -0.5495363 1.248416
v -0.09784181 -0.62484336 1.1626971
v 0.043965824 -0.8498816 1.5197028
v 0.112833746 -0.832368 1.4916582
v 0.13410369 -0.8223826 1.443837
v 0.19325545 -0.70392674 1.4593537
v 0.1736219 -0.7051254 1.3752761
v 0.2670758 -0.5495363 1.248416
v 0.09784181 -0.62484336 1.1626971
v 0.06962659 -0.7153297 1.30287
v -0.06962659 -0.7153297 1.30287
v -0.12200735 -0.8178116 1.390842
v 0.06803987 -0.93064827 1.4298558
v 0.12200735 -0.8178116 1.390842
v -0.050208177 -0.8250042 1.3410388
v -0.13410369 -0.8223826 1.443837
v 0.050208177 -0.8250042 1.3410388
v 0.07248511 -0.9165317 1.3791498
v 0.069522135 -0.9337044 1.3994238
v 0.028212812 -0.9421963 1.3483652
v -0.07248511 -0.9165317 1.3791498
v 0.025284737 -0.9621489 1.419731
v 0.021666307 -0.9859071 1.367837
v -0.021666307 -0.9859071 1.367837
v -0.028212812 -0.9421963 1.3483652
v -0.069522135 -0.9337044 1.3994238
v -0.06803987 -0.93064827 1.4298558
v -0.025284737 -0.9621489 1.419731
v -0.043965824 -0.8498816 1.5197028
v 0.20003827 -0.5559272 1.5845834
v 0.07357467 -0.56564313 1.6676476
v 0.07983383 -0.45340848 1.7036731
v -0.07357467 -0.56564313 1.6676476
v 0.21510537 -0.44792765 1.6037058
v 0.25649652 -0.55916 1.4572107
v 0.2810411 -0.45431697 1.4664187
v 0.22103953 -0.34392354 1.6130741
v 0.31916952 -0.43569654 1.2645626
v 0.2670758 -0.5495363 1.248416
v -0.07983383 -0.45340848 1.7036731
v -0.21510537 -0.44792765 1.6037058
v -0.20003827 -0.5559272 1.5845834
v -0.25649652 -0.55916 1.4572107
v -0.08403138 -0.3353248 1.7069573
v -0.22103953 -0.34392354 1.6130741
v -0.2810411 -0.45431697 1.4664187
v 0.08403138 -0.3353248 1.7069573
v -0.31916952 -0.43569654 1.2645626
v -0.2670758 -0.5495363 1.248416
v -0.088833176 -0.22392276 1.6764511
v 0.21673913 -0.26399723 1.6114306
v 0.088833176 -0.22392276 1.6764511
v 0.28691208 -0.33196673 1.484138
v 0.26117995 -0.22071661 1.5074801
v 0.33074582 -0.3024907 1.291524
v -0.28691208 -0.33196673 1.484138
v -0.21673913 -0.26399723 1.6114306
v -0.10370715 -0.12272219 1.5558059
v 0.10370715 -0.12272219 1.5558059
v 0.2981303 -0.17492557 1.3242195
v 0.35135326 -0.25404793 1.138217
v 0.11726252 -0.051742367 1.3613232
v -0.26117995 -0.22071661 1.5074801
v -0.33074582 -0.3024907 1.291524
v -0.11726252 -0.051742367 1.3613232
v -0.2981303 -0.17492557 1.3242195
v 0.30974057 -0.13042602 1.1987932
v -0.35135326 -0.25404793 1.138217
v 0.12019139 -0.009010109 1.2529724
v -0.12019139 -0.009010109 1.2529724
v -0.30974057 -0.13042602 1.1987932
v -0.37899676 -0.123240896 0.93859696
v -0.34886634 -0.37526888 1.0762324
v -0.12441007 0.1136567 1.1432887
v -0.31209123 -0.47393286 1.0232439
v -0.09784181 -0.62484336 1.1626971
v -0.32593074 -0.005465606 1.0477766
v -0.3843771 -0.2378313 0.82641494
v -0.33396876 0.16605939 0.9364522
v 0.12441007 0.1136567 1.1432887
v -0.12921545 0.29695252 1.0427268
v 0.32593074 -0.005465606 1.0477766
v 0.37899676 -0.123240896 0.93859696
v 0.12921545 0.29695252 1.0427268
v 0.33396876 0.16605939 0.9364522
v -0.13054626 0.46631885 0.9454021
v 0.38354695 0.05922289 0.8083632
v 0.13054626 0.46631885 0.9454021
v 0.32199988 0.31839696 0.8641496
v -0.38354695 0.05922289 0.8083632
v -0.32199988 0.31839696 0.8641496
v -0.3845856 -0.03572576 0.6755165
v -0.35712045 0.23513825 0.74686605
v -0.29739648 0.4367441 0.7976411
v -0.12904985 0.60531133 0.8152948
v -0.30712456 0.40638646 0.698816
v -0.35149014 0.1631392 0.62346524
v -0.31628096 0.114407614 0.5201387
v -0.34694657 -0.10737578 0.5611979
v -0.29906756 0.3506861 0.5896205
v -0.12770748 0.6314578 0.65189147
v 0.12904985 0.60531133 0.8152948
v -0.34945187 -0.33286557 0.7299287
v -0.1411878 -0.46457532 0.5921165
v -0.13902125 -0.1769114 0.39385134
v 0.29739648 0.4367441 0.7976411
v 0.30712456 0.40638646 0.698816
v 0.12770748 0.6314578 0.65189147
v 0.12201747 0.5613194 0.50875455
v 0.35712045 0.23513825 0.74686605
v -0.122935206 -0.60155666 0.95051867
v 0.122935206 -0.60155666 0.95051867
v 0.09784181 -0.62484336 1.1626971
v -0.12201747 0.5613194 0.50875455
v -0.116951 0.42033246 0.4122612
v 0.29906756 0.3506861 0.5896205
v -0.2823836 0.29551873 0.5155503
v 0.116951 0.42033246 0.4122612
v -0.1264839 0.13428387 0.36882082
v 0.1264839 0.13428387 0.36882082
v 0.13902125 -0.1769114 0.39385134
v 0.31628096 0.114407614 0.5201387
v 0.2823836 0.29551873 0.5155503
v 0.35149014 0.1631392 0.62346524
v 0.3845856 -0.03572576 0.6755165
v 0.34694657 -0.10737578 0.5611979
v 0.3843771 -0.2378313 0.82641494
v 0.1411878 -0.46457532 0.5921165
v 0.34945187 -0.33286557 0.7299287
v 0.34886634 -0.37526888 1.0762324
v 0.31209123 -0.47393286 1.0232439
v -0.030970218 0.59831494 0.5500874
v -0.05525199 0.6502489 0.5732031
v -0.05906162 0.61877614 0.5890131
v -0.042843096 0.6270331 0.6014084
v -0.023265332 0.63909066 0.52869326
v -0.05999381 0.57023454 0.512221
v -0.0431013 0.6564047 0.5825474
v -0 0.6148635 0.5757716
v -0 0.65147203 0.54801947
v -0.056341812 0.60176325 0.496482
v -0 0.62690866 0.50914514
v -0.045440428 0.5625946 0.49985376
v -0.045380525 0.59601367 0.48717517
v -0 0.58213943 0.5240422
v 0.045440428 0.5625946 0.49985376
v 0.0431013 0.6564047 0.5825474
v 0.042843096 0.6270331 0.6014084
v 0.05906162 0.61877614 0.5890131
v 0.05525199 0.6502489 0.5732031
v 0.030970218 0.59831494 0.5500874
v 0.023265332 0.63909066 0.52869326
v 0.056341812 0.60176325 0.496482
v 0.05999381 0.57023454 0.512221
v 0.045380525 0.59601367 0.48717517
v -0.3294841 -0.38539878 1.3985118
v -0.320961 -0.31466925 1.427366
v -0.29727003 -0.38280305 1.4953966
v -0.31365737 -0.45390683 1.429578
v -0.29642603 -0.27995726 1.4914001
v -0.28590673 -0.48383093 1.494113
v -0.26829684 -0.31023568 1.5568223
v -0.2612351 -0.449489 1.5583069
v -0.25255686 -0.3789227 1.587513
v 0.3294841 -0.38539878 1.3985118
v 0.29727003 -0.38280305 1.4953966
v 0.320961 -0.31466925 1.427366
v 0.31365737 -0.45390683 1.429578
v 0.29642603 -0.27995726 1.4914001
v 0.28590673 -0.48383093 1.494113
v 0.26829684 -0.31023568 1.5568223
v 0.2612351 -0.449489 1.5583069
v 0.25255686 -0.3789227 1.587513
v -0.2907262 -0.270248 1.3785444
v -0.32134402 -0.29369044 1.4158182
v -0.3321497 -0.383767 1.3787361
v -0.3042369 -0.3828737 1.3321791
v -0.25164813 -0.21521333 1.4808232
v -0.31191412 -0.47122765 1.4180658
v -0.2900898 -0.24967436 1.4976195
v -0.27893543 -0.49222875 1.3813546
v -0.20709768 -0.26320028 1.5844063
v -0.27628326 -0.5096069 1.5009099
v -0.25445908 -0.28805384 1.5804638
v -0.23438525 -0.5402156 1.4849372
v -0.18179637 -0.37255538 1.6335819
v -0.24502906 -0.46559095 1.582711
v -0.23422325 -0.37551448 1.6197935
v -0.19530705 -0.48518088 1.587216
v 0.2907262 -0.270248 1.3785444
v 0.3321497 -0.383767 1.3787361
v 0.32134402 -0.29369044 1.4158182
v 0.3042369 -0.3828737 1.3321791
v 0.25164813 -0.21521333 1.4808232
v 0.31191412 -0.47122765 1.4180658
v 0.2900898 -0.24967436 1.4976195
v 0.27893543 -0.49222875 1.3813546
v 0.20709768 -0.26320028 1.5844063
v 0.27628326 -0.5096069 1.5009099
v 0.25445908 -0.28805384 1.5804638
v 0.23438525 -0.5402156 1.4849372
v 0.18179637 -0.37255538 1.6335819
v 0.24502906 -0.46559095 1.582711
v 0.23422325 -0.37551448 1.6197935
v 0.19530705 -0.48518088 1.587216
v -0.35220888 -0.123420745 0.51877534
v -0.3619472 -0.2268998 0.5352737
v -0.35414803 -0.24530062 0.6171236
v -0.43668193 -0.23814563 0.6111485
v -0.38406077 -0.31215867 0.6012901
v -0.4001073 -0.34699664 0.697987
v -0.45509112 -0.2573058 0.69876045
v -0.36745772 -0.26547125 0.704981
v -0.35004562 -0.1320468 0.6232082
v -0.4057033 -0.31717175 0.8017476
v -0.4676472 -0.13528165 0.7015893
v -0.44754538 -0.12826587 0.61519617
v -0.4422525 0.06868846 0.61846876
v -0.3416186 0.057837106 0.51745623
v -0.46226093 0.070867196 0.70737535
v -0.45717013 0.06581693 0.7991563
v -0.45990074 -0.13007067 0.7929341
v -0.4047465 -0.13233408 0.90620047
v -0.44977888 -0.24145749 0.7919349
v -0.4074263 -0.23612978 0.88176805
v -0.3760296 -0.2488933 0.7987906
v -0.3621325 -0.14016601 0.70926875
v -0.36953017 -0.13484439 0.80046606
v -0.35693365 0.070553206 0.8061286
v -0.35014582 0.07702093 0.71625817
v -0.34067878 0.07440239 0.63009465
v -0.39619476 0.043742284 0.91728824
v -0.3430086 0.20117745 0.7204613
v -0.39037478 0.1376321 0.9145458
v -0.3307358 0.17900431 0.60926616
v -0.3412776 0.22269623 0.6557206
v -0.3384107 0.3479174 0.72212505
v -0.3805155 0.30294585 0.6491775
v -0.34780315 0.22041088 0.786918
v -0.38590476 0.30286714 0.7891676
v -0.33670005 0.15775281 0.52479583
v -0.32595637 0.3132709 0.60317737
v -0.35336268 0.17245325 0.8359686
v -0.35253733 0.30252787 0.84504116
v -0.38053334 0.28613812 0.8820048
v -0.4448516 0.16427359 0.8300213
v -0.44704592 0.20930746 0.7797438
v -0.42235714 0.33430097 0.7158952
v -0.4192798 0.294404 0.8389475
v -0.45079008 0.18869811 0.711681
v -0.37778613 0.3394095 0.84775263
v -0.37812293 0.3694905 0.8138798
v -0.43552732 0.21082571 0.64606684
v -0.37280783 0.3851193 0.7542783
v -0.3696291 0.39836434 0.7197674
v -0.3713194 0.38509303 0.6855402
v -0.42316684 0.16855764 0.59537345
v -0.39795616 0.30121124 0.5929299
v -0.36378205 0.37385985 0.6256306
v -0.3392881 0.3048166 0.5599769
v -0.3502756 0.35078064 0.59307694
v 0.19018883 0.7600699 0.38868815
v 0.1548855 0.81001663 0.34925723
v 0.14315803 0.7367106 0.35592815
v 0.15315464 0.7995028 0.42485812
v 0.10605751 0.7759653 0.39216232
v 0.14440952 0.7491978 0.490003
v 0.08678707 0.719677 0.4492905
v 0.13331388 0.67144424 0.40440398
v 0.19083244 0.7007945 0.44503278
v 0.14748962 0.5058367 0.6404456
v 0.10960063 0.5421867 0.67541087
v 0.10426462 0.48201686 0.6087322
v 0.06625612 0.5183723 0.6434162
v 0.10023133 0.47028247 0.6829931
v -0.00010781836 0.49499163 0.79739946
v 0.04243865 0.57023025 0.73797035
v -0 0.5219127 0.7162568
v -0.04243865 0.57023025 0.73797035
v -0 0.58321446 0.7875921
v -0.04747698 0.81681025 0.5393338
v -0 0.8655149 0.57798356
v 0.04747698 0.81681025 0.5393338
v -0 0.78602815 0.48609883
v 0.043671273 0.8866472 0.47862038
v -0 0.8722722 0.4274995
v -0.043671273 0.8866472 0.47862038
v -0 0.9358536 0.501218
v -0.000105877516 0.96051615 0.4167537
v -0.19018883 0.7600699 0.38868815
v -0.14315803 0.7367106 0.35592815
v -0.1548855 0.81001663 0.34925723
v -0.10605751 0.7759653 0.39216232
v -0.13331388 0.67144424 0.40440398
v -0.15315464 0.7995028 0.42485812
v -0.19083244 0.7007945 0.44503278
v -0.14440952 0.7491978 0.490003
v -0.08678707 0.719677 0.4492905
v -0.10426462 0.48201686 0.6087322
v -0.06625612 0.5183723 0.6434162
v -0.10960063 0.5421867 0.67541087
v -0.10023133 0.47028247 0.6829931
v -0.14748962 0.5058367 0.6404456
v 0.029157218 -0.29458728 1.8508884
v -2.7664304E-05 -0.30156803 1.8890796
v -0 -0.2738781 1.8683795
v -0 -0.3204617 1.858338
v -0.029157218 -0.29458728 1.8508884
v -0.03666259 -0.2721304 1.7166466
v -0 -0.24701637 1.7115752
v 0.03666259 -0.2721304 1.7166466
v -0 -0.29395735 1.7014585
v 2.3463965E-05 -0.26595548 1.6803448
v 0.026354088 -0.42136174 1.8269839
v -2.809882E-05 -0.43799466 1.8598039
v -0 -0.40613875 1.849721
v -0 -0.44709072 1.8261386
v -0.026354088 -0.42136174 1.8269839
v -0.03281915 -0.36223814 1.7124755
v -0 -0.33669674 1.7164253
v 0.03281915 -0.36223814 1.7124755
v -0 -0.37800965 1.6922827
v 2.3898481E-05 -0.3457403 1.6821202
vt 0.511508 0.012437582
vt 0.5115081 0.012437582
vt 0.5115081 0.012437552
vt 0.511508 0.012437552
vt 0.5115081 0.012437552
vt 0.5115081 0.012437582
vt 0.511508 0.012437552
vt 0.5115081 0.012437582
vt 0.5115081 0.012437552
vt 0.51150787 0.012437522
vt 0.5115081 0.012437552
vt 0.5115081 0.012437582
vt 0.51150787 0.012437522
vt 0.5115081 0.012437582
vt 0.5115081 0.012437552
vt 0.51150787 0.012437522
vt 0.5115081 0.012437552
vt 0.5115081 0.012437582
vt 0.51150787 0.012437493
vt 0.5115081 0.012437582
vt 0.5115081 0.012437552
vt 0.511508 0.012437582
vt 0.5115081 0.012437552
vt 0.5115081 0.012437582
vt 0.511508 0.012437582
vt 0.5115081 0.012437552
vt 0.5115081 0.012437582
vt 0.511508 0.012437552
vt 0.5115081 0.012437582
vt 0.5115081 0.012437552
vt 0.511508 0.012437552
vt 0.5115081 0.012437552
vt 0.5115081 0.012437582
vt 0.51150787 0.012437522
vt 0.5115081 0.012437582
vt 0.5115081 0.012437552
vt 0.51150787 0.012437522
vt 0.5115081 0.012437552
vt 0.5115081 0.012437582
vt 0.51150787 0.012437522
vt 0.5115081 0.012437582
vt 0.5115081 0.012437552
vt 0.51150787 0.012437493
vt 0.5115081 0.012437552
vt 0.5115081 0.012437582
vt 0.511508 0.012437582
vt 0.5115081 0.012437582
vt 0.5115081 0.012437552
vt 0.786042 0.017440796
vt 0.7860421 0.017440856
vt 0.786042 0.017440796
vt 0.7860421 0.017440796
vt 0.786042 0.017440796
vt 0.7860421 0.017440796
vt 0.7860421 0.017440796
vt 0.7860421 0.017440856
vt 0.7860421 0.017440736
vt 0.7860421 0.017440856
vt 0.7860421 0.017440796
vt 0.7860421 0.017440796
vt 0.786042 0.017440796
vt 0.7860421 0.017440796
vt 0.7860421 0.017440796
vt 0.7860421 0.017440796
vt 0.786042 0.017440736
vt 0.786042 0.017440736
vt 0.786042 0.017440736
vt 0.7860421 0.017440796
vt 0.786042 0.017440736
vt 0.786042 0.017440736
vt 0.786042 0.017440736
vt 0.786042 0.017440796
vt 0.786042 0.017440736
vt 0.786042 0.017440736
vt 0.786042 0.017440856
vt 0.786042 0.017440736
vt 0.786042 0.017440736
vt 0.786042 0.017440736
vt 0.786042 0.017440736
vt 0.7860421 0.017440796
vt 0.7860421 0.017440796
vt 0.786042 0.017440796
vt 0.7860421 0.017440736
vt 0.786042 0.017440796
vt 0.7860421 0.017440796
vt 0.7860421 0.017440856
vt 0.7860421 0.017440796
vt 0.7860421 0.017440856
vt 0.786042 0.017440796
vt 0.7860421 0.017440796
vt 0.786042 0.017440736
vt 0.7860421 0.017440796
vt 0.786042 0.017440856
vt 0.7860421 0.017440796
vt 0.7860421 0.017440796
vt 0.7860421 0.017440736
vt 0.786042 0.017440796
vt 0.7860421 0.017440856
vt 0.786042 0.017440856
vt 0.7860421 0.017440796
vt 0.7860421 0.017440796
vt 0.786042 0.017440856
vt 0.786042 0.017440796
vt 0.7860421 0.017440796
vt 0.7860421 0.017440856
vt 0.7860421 0.017440856
vt 0.786042 0.017440796
vt 0.786042 0.017440796
vt 0.7860421 0.017440796
vt 0.7860421 0.017440856
vt 0.786042 0.017440736
vt 0.786042 0.017440796
vt 0.7860421 0.017440796
vt 0.786042 0.017440736
vt 0.786042 0.017440856
vt 0.7860421 0.017440796
vt 0.7860421 0.017440736
vt 0.7860421 0.017440796
vt 0.786042 0.017440736
vt 0.786042 0.017440736
vt 0.786042 0.017440796
vt 0.7860421 0.017440796
vt 0.7860421 0.017440856
vt 0.7860421 0.017440856
vt 0.7860421 0.017440796
vt 0.786042 0.017440796
vt 0.7860421 0.017440736
vt 0.786042 0.017440736
vt 0.7860421 0.017440796
vt 0.786042 0.017440736
vt 0.786042 0.017440796
vt 0.7860421 0.017440796
vt 0.786042 0.017440736
vt 0.786042 0.017440736
vt 0.7860421 0.017440796
vt 0.786042 0.017440796
vt 0.786042 0.017440736
vt 0.786042 0.017440736
vt 0.786042 0.017440736
vt 0.786042 0.017440736
vt 0.786042 0.017440736
vt 0.7860421 0.017440796
vt 0.786042 0.017440736
vt 0.7860421 0.017440796
vt 0.786042 0.017440736
vt 0.786042 0.017440796
vt 0.786042 0.017440856
vt 0.7860421 0.017440796
vt 0.7860421 0.017440796
vt 0.7860421 0.017440796
vt 0.786042 0.017440796
vt 0.7860421 0.017440796
vt 0.7860421 0.017440796
vt 0.786042 0.017440796
vt 0.7860421 0.017440856
vt 0.786042 0.017440796
vt 0.7860421 0.017440796
vt 0.7860421 0.017440796
vt 0.7860421 0.017440856
vt 0.786042 0.017440796
vt 0.786042 0.017440856
vt 0.7860421 0.017440796
vt 0.7860421 0.017440736
vt 0.7860421 0.017440796
vt 0.7860421 0.017440856
vt 0.786042 0.017440856
vt 0.7860421 0.017440856
vt 0.7860421 0.017440856
vt 0.7860421 0.017440796
vt 0.786042 0.017440856
vt 0.7860421 0.017440796
vt 0.786042 0.017440796
vt 0.786042 0.017440856
vt 0.7860421 0.017440796
vt 0.7860421 0.017440796
vt 0.786042 0.017440796
vt 0.7860421 0.017440736
vt 0.7860421 0.017440796
vt 0.786042 0.017440796
vt 0.7860421 0.017440856
vt 0.7860421 0.017440796
vt 0.786042 0.017440796
vt 0.786042 0.017440736
vt 0.786042 0.017440736
vt 0.7860421 0.017440796
vt 0.786042 0.017440796
vt 0.72674847 0.02330017
vt 0.72674847 0.02330017
vt 0.7267484 0.02330017
vt 0.72674847 0.02330023
vt 0.72674847 0.023300111
vt 0.72674847 0.023300111
vt 0.72674847 0.02330023
vt 0.72674847 0.02330017
vt 0.72674847 0.023300111
vt 0.72674847 0.02330023
vt 0.72674847 0.02330017
vt 0.72674847 0.02330023
vt 0.72674847 0.02330023
vt 0.72674847 0.023300111
vt 0.72674847 0.02330023
vt 0.72674847 0.02330023
vt 0.72674847 0.023300111
vt 0.72674847 0.023300111
vt 0.72674847 0.02330017
vt 0.72674847 0.02330017
vt 0.72674847 0.02330017
vt 0.72674847 0.023300111
vt 0.72674847 0.02330017
vt 0.72674847 0.02330023
vt 0.72674847 0.02330017
vt 0.72674847 0.023300111
vt 0.72674847 0.023300111
vt 0.72674847 0.023300111
vt 0.72674847 0.023300111
vt 0.72674847 0.023300111
vt 0.72674847 0.023300111
vt 0.72674847 0.023300111
vt 0.72674847 0.023300111
vt 0.72674847 0.02330017
vt 0.72674847 0.02330023
vt 0.72674847 0.02330023
vt 0.72674847 0.023300111
vt 0.72674847 0.02330023
vt 0.72674847 0.023300111
vt 0.72674847 0.02330023
vt 0.72674847 0.02330017
vt 0.72674847 0.02330023
vt 0.72674847 0.02330017
vt 0.72674847 0.02330023
vt 0.72674847 0.023300111
vt 0.72674847 0.023300111
vt 0.72674847 0.02330017
vt 0.72674847 0.023300111
vt 0.72674847 0.023300111
vt 0.72674847 0.02330023
vt 0.72674847 0.02330023
vt 0.72674847 0.023300111
vt 0.72674847 0.023300111
vt 0.72674847 0.023300111
vt 0.72674847 0.02330017
vt 0.72674847 0.023300111
vt 0.72674847 0.02330017
vt 0.7153517 0.021731317
vt 0.7153517 0.021731317
vt 0.7153517 0.021731287
vt 0.7153517 0.021731317
vt 0.7153517 0.021731287
vt 0.7153517 0.021731317
vt 0.7153517 0.021731287
vt 0.7153517 0.021731317
vt 0.7153517 0.021731317
vt 0.7153517 0.021731317
vt 0.7153517 0.021731317
vt 0.7153517 0.021731287
vt 0.7153517 0.021731317
vt 0.7153517 0.021731317
vt 0.7153517 0.021731287
vt 0.7153517 0.021731287
vt 0.7153517 0.021731287
vt 0.7153517 0.021731317
vt 0.7153517 0.021731317
vt 0.7153517 0.021731317
vt 0.7153517 0.021731317
vt 0.7153517 0.021731287
vt 0.7153517 0.021731287
vt 0.7153517 0.021731317
vt 0.7153517 0.021731287
vt 0.7153517 0.021731317
vt 0.7153517 0.021731287
vt 0.7153517 0.021731317
vt 0.7153517 0.021731317
vt 0.7153517 0.021731287
vt 0.7153517 0.021731317
vt 0.7153517 0.021731317
vt 0.7153517 0.021731287
vt 0.7153517 0.021731317
vt 0.7153517 0.021731317
vt 0.7153517 0.021731317
vt 0.7153517 0.021731317
vt 0.7153517 0.021731287
vt 0.7153517 0.021731317
vt 0.7153517 0.021731317
vt 0.7153517 0.021731317
vt 0.7153517 0.021731317
vt 0.8453208 0.030565798
vt 0.8453208 0.030565768
vt 0.8453208 0.030565768
vt 0.8453208 0.030565768
vt 0.8453208 0.030565798
vt 0.8453208 0.030565798
vt 0.8453208 0.030565768
vt 0.8453208 0.030565768
vt 0.8453208 0.030565798
vt 0.8453208 0.030565798
vt 0.8453208 0.030565798
vt 0.8453208 0.030565798
vt 0.8453208 0.030565798
vt 0.8453208 0.030565798
vt 0.8453208 0.030565768
vt 0.8453208 0.030565768
vt 0.8453208 0.030565768
vt 0.8453208 0.030565798
vt 0.8453208 0.030565798
vt 0.8453208 0.030565798
vt 0.8453208 0.030565798
vt 0.8453208 0.030565798
vt 0.8453208 0.030565798
vt 0.8453208 0.030565798
vt 0.8453208 0.030565798
vt 0.8453208 0.030565768
vt 0.8453208 0.030565798
vt 0.8453208 0.030565798
vt 0.8453208 0.030565798
vt 0.8453208 0.030565798
vt 0.8453208 0.030565798
vt 0.8453208 0.030565768
vt 0.8453208 0.030565798
vt 0.8453208 0.030565798
vt 0.8453208 0.030565768
vt 0.8453208 0.030565798
vt 0.8453208 0.030565798
vt 0.8453208 0.030565798
vt 0.8453208 0.030565768
vt 0.8453208 0.030565798
vt 0.8453208 0.030565798
vt 0.8453208 0.030565798
vt 0.8453208 0.030565768
vt 0.8453208 0.030565798
vt 0.8453208 0.030565798
vt 0.8453208 0.030565798
vt 0.8453208 0.030565798
vt 0.8453208 0.030565798
vt 0.8453208 0.030565798
vt 0.8453208 0.030565798
vt 0.8453208 0.030565798
vt 0.8453208 0.030565798
vt 0.8453208 0.030565798
vt 0.8453208 0.030565768
vt 0.8453208 0.030565798
vt 0.8453208 0.030565798
vt 0.8453208 0.030565798
vt 0.8453208 0.030565798
vt 0.8453208 0.030565798
vt 0.8453208 0.030565798
vt 0.8453208 0.030565798
vt 0.8453208 0.030565798
vt 0.8453208 0.030565768
vt 0.8453208 0.030565798
vt 0.8453208 0.030565798
vt 0.8453208 0.030565768
vt 0.8453208 0.030565798
vt 0.8453208 0.030565768
vt 0.8453208 0.030565798
vt 0.8453208 0.030565798
vt 0.8453208 0.030565768
vt 0.8453208 0.030565768
vt 0.8453208 0.030565768
vt 0.8453208 0.030565798
vt 0.8453208 0.030565798
vt 0.8453208 0.030565798
vt 0.8453208 0.030565798
vt 0.8453208 0.030565798
vt 0.8453208 0.030565798
vt 0.8453208 0.030565768
vt 0.8453208 0.030565798
vt 0.8453208 0.030565768
vt 0.8453208 0.030565768
vt 0.8453208 0.030565798
vt 0.8453208 0.030565798
vt 0.8453208 0.030565798
vt 0.8453208 0.030565768
vt 0.8453208 0.030565798
vt 0.8453208 0.030565798
vt 0.8453208 0.030565798
vt 0.8453208 0.030565798
vt 0.8453208 0.030565798
vt 0.8453208 0.030565798
vt 0.8453208 0.030565798
vt 0.8453208 0.030565768
vt 0.8453208 0.030565768
vt 0.8453208 0.030565798
vt 0.8453208 0.030565798
vt 0.8453208 0.030565798
vt 0.8453208 0.030565798
vt 0.8453208 0.030565798
vt 0.8453208 0.030565798
vt 0.9107791 0.031406403
vt 0.9107791 0.031406403
vt 0.9107791 0.031406403
vt 0.9107791 0.031406403
vt 0.9107791 0.031406343
vt 0.9107791 0.031406403
vt 0.9107791 0.031406373
vt 0.9107791 0.031406403
vt 0.9107791 0.031406313
vt 0.9107791 0.031406373
vt 0.9107791 0.031406373
vt 0.9107791 0.031406403
vt 0.9107791 0.031406373
vt 0.9107791 0.031406403
vt 0.9107791 0.031406403
vt 0.9107791 0.031406373
vt 0.9107791 0.031406403
vt 0.9107791 0.031406403
vt 0.9107791 0.031406373
vt 0.9107791 0.031406403
vt 0.9107791 0.031406313
vt 0.9107791 0.031406373
vt 0.9107791 0.031406403
vt 0.9107791 0.031406373
vt 0.4835062 0.09879795
vt 0.4835062 0.09879795
vt 0.4835062 0.09879798
vt 0.4835062 0.09879795
vt 0.4835062 0.09879795
vt 0.4835062 0.09879795
vt 0.4835062 0.09879795
vt 0.4835062 0.09879795
vt 0.4835062 0.09879795
vt 0.4835062 0.09879795
vt 0.4835062 0.09879798
vt 0.4835062 0.09879795
vt 0.4835062 0.09879795
vt 0.4835062 0.09879795
vt 0.4835062 0.09879795
vt 0.4835062 0.09879795
vt 0.4835062 0.09879795
vt 0.4835062 0.09879795
vt 0.5115081 0.012437552
vt 0.5115081 0.012437552
vt 0.5115081 0.012437522
vt 0.5115081 0.012437552
vt 0.5115081 0.012437552
vt 0.5115081 0.012437552
vt 0.5115081 0.012437522
vt 0.5115081 0.012437552
vt 0.5115081 0.012437552
vt 0.5115081 0.012437522
vt 0.5115081 0.012437552
vt 0.5115081 0.012437552
vt 0.5115081 0.012437552
vt 0.5115081 0.012437552
vt 0.5115081 0.012437522
vt 0.5115081 0.012437552
vt 0.5115081 0.012437552
vt 0.5115081 0.012437522
vt 0.5115081 0.012437552
vt 0.5115081 0.012437552
vt 0.5115081 0.012437552
vt 0.5115081 0.012437552
vt 0.5115081 0.012437522
vt 0.5115081 0.012437552
vt 0.5115081 0.012437552
vt 0.5115081 0.012437522
vt 0.5115081 0.012437552
vt 0.5115081 0.012437552
vt 0.5115081 0.012437552
vt 0.5115081 0.012437552
vt 0.5115081 0.012437522
vt 0.5115081 0.012437552
vt 0.72674847 0.02330017
vt 0.72674847 0.02330017
vt 0.72674847 0.023300111
vt 0.72674847 0.02330017
vt 0.72674847 0.023300111
vt 0.72674847 0.023300111
vt 0.72674847 0.023300111
vt 0.72674847 0.023300111
vt 0.72674847 0.023300111
vt 0.72674847 0.023300111
vt 0.72674847 0.023300111
vt 0.72674847 0.023300111
vt 0.72674847 0.023300111
vt 0.72674847 0.023300111
vt 0.72674847 0.02330023
vt 0.72674847 0.02330023
vt 0.72674847 0.02330017
vt 0.72674847 0.02330023
vt 0.72674847 0.02330017
vt 0.72674847 0.02330023
vt 0.72674847 0.023300111
vt 0.72674847 0.023300111
vt 0.72674847 0.023300111
vt 0.72674847 0.023300111
vt 0.72674847 0.02330023
vt 0.72674847 0.02330023
vt 0.72674847 0.023300111
vt 0.72674847 0.02330023
vt 0.72674847 0.023300111
vt 0.72674847 0.02330023
vt 0.72674847 0.02330029
vt 0.72674847 0.02330017
vt 0.72674847 0.02330023
vt 0.72674847 0.02330029
vt 0.72674847 0.02330023
vt 0.72674847 0.023300111
vt 0.72674847 0.02330023
vt 0.72674847 0.02330017
vt 0.72674847 0.02330017
vt 0.72674847 0.023300111
vt 0.72674847 0.02330017
vt 0.72674847 0.02330023
vt 0.72674847 0.02330017
vt 0.72674847 0.02330023
vt 0.72674847 0.02330023
vt 0.72674847 0.023300111
vt 0.72674847 0.023300111
vt 0.72674847 0.02330029
vt 0.72674847 0.023300111
vt 0.72674847 0.023300111
vt 0.72674847 0.023300111
vt 0.72674847 0.02330017
vt 0.72674847 0.02330017
vt 0.72674847 0.023300111
vt 0.72674847 0.02330017
vt 0.72674847 0.02330017
vt 0.86289895 0.040331423
vt 0.86289895 0.040331423
vt 0.86289895 0.040331423
vt 0.86289895 0.040331423
vt 0.86289895 0.040331423
vt 0.86289895 0.040331423
vt 0.86289895 0.040331423
vt 0.86289895 0.040331423
vt 0.86289895 0.040331423
vt 0.86289895 0.040331423
vt 0.86289895 0.040331423
vt 0.86289895 0.040331423
vt 0.86289895 0.040331423
vt 0.86289895 0.040331423
vt 0.86289895 0.040331423
vt 0.86289895 0.040331423
vt 0.86289895 0.040331393
vt 0.86289895 0.040331423
vt 0.86289895 0.040331423
vt 0.86289895 0.040331423
vt 0.86289895 0.040331423
vt 0.86289895 0.040331423
vt 0.86289895 0.040331423
vt 0.86289895 0.040331423
vt 0.86289895 0.040331393
vt 0.86289895 0.040331423
vt 0.86289895 0.040331423
vt 0.86289895 0.040331423
vt 0.86289895 0.040331423
vt 0.86289895 0.040331423
vt 0.86289895 0.040331423
vt 0.86289895 0.040331423
vt 0.86289895 0.040331423
vt 0.86289895 0.040331423
vt 0.86289895 0.040331423
vt 0.86289895 0.040331423
vt 0.86289895 0.040331423
vt 0.86289895 0.040331423
vt 0.86289895 0.040331423
vt 0.86289895 0.040331423
vt 0.86289895 0.040331423
vt 0.86289895 0.040331423
vt 0.86289895 0.040331423
vt 0.86289895 0.040331423
vt 0.86289895 0.040331393
vt 0.86289895 0.040331423
vt 0.86289895 0.040331423
vt 0.86289895 0.040331423
vt 0.86289895 0.040331423
vt 0.86289895 0.040331423
vt 0.86289895 0.040331393
vt 0.86289895 0.040331423
vt 0.86289895 0.040331423
vt 0.86289895 0.040331423
vt 0.86289895 0.040331393
vt 0.86289895 0.040331423
vt 0.86289895 0.040331423
vt 0.86289895 0.040331423
vt 0.86289895 0.040331423
vt 0.86289895 0.040331423
vt 0.86289895 0.040331393
vt 0.86289895 0.040331423
vn 0.9250285 -0.04435732 0.37729916
vn 0.5599556 -0.019258088 0.82829875
vn 0.64640075 0.36404672 0.6705491
vn 0.9250285 -0.04435732 0.37729916
vn 0.60510457 -0.41342184 0.68039024
vn 0.5599556 -0.019258088 0.82829875
vn 0.9250285 -0.04435732 0.37729916
vn 0.73954153 -0.5918075 0.32069027
vn 0.60510457 -0.41342184 0.68039024
vn 0.9250285 -0.04435732 0.37729916
vn 0.8980054 -0.4381052 -0.040620852
vn 0.73954153 -0.5918075 0.32069027
vn 0.9250285 -0.04435732 0.37729916
vn 0.9780808 -0.054495383 -0.20096791
vn 0.8980054 -0.4381052 -0.040620852
vn 0.9250285 -0.04435732 0.37729916
vn 0.93930113 0.33936256 -0.050462518
vn 0.9780808 -0.054495383 -0.20096791
vn 0.9250285 -0.04435732 0.37729916
vn 0.7984932 0.51805395 0.30664104
vn 0.93930113 0.33936256 -0.050462518
vn 0.9250285 -0.04435732 0.37729916
vn 0.64640075 0.36404672 0.6705491
vn 0.7984932 0.51805395 0.30664104
vn -0.9250285 -0.044357322 0.3772992
vn -0.6464006 0.3640468 0.6705492
vn -0.5599554 -0.019258093 0.8282989
vn -0.9250285 -0.044357322 0.3772992
vn -0.5599554 -0.019258093 0.8282989
vn -0.6051045 -0.4134219 0.6803902
vn -0.9250285 -0.044357322 0.3772992
vn -0.6051045 -0.4134219 0.6803902
vn -0.73954153 -0.59180754 0.3206902
vn -0.9250285 -0.044357322 0.3772992
vn -0.73954153 -0.59180754 0.3206902
vn -0.8980054 -0.4381052 -0.04062086
vn -0.9250285 -0.044357322 0.3772992
vn -0.8980054 -0.4381052 -0.04062086
vn -0.9780808 -0.05449538 -0.20096792
vn -0.9250285 -0.044357322 0.3772992
vn -0.9780808 -0.05449538 -0.20096792
vn -0.93930113 0.33936256 -0.050462525
vn -0.9250285 -0.044357322 0.3772992
vn -0.93930113 0.33936256 -0.050462525
vn -0.7984932 0.5180539 0.3066411
vn -0.9250285 -0.044357322 0.3772992
vn -0.7984932 0.5180539 0.3066411
vn -0.6464006 0.3640468 0.6705492
vn 0.30135736 -0.7415547 0.59940004
vn -0.5637697 -0.6293675 0.53484607
vn -0.30144158 -0.7439727 0.5963535
vn 0.5641706 -0.62871873 0.53518623
vn 0.06521349 -0.08662342 -0.99410444
vn 0.54488236 -0.6160486 -0.56884736
vn -0.24613097 -0.8109596 0.53081465
vn -0.22855797 -0.7721241 -0.5929466
vn 0.9785701 -0.06479984 0.19545224
vn 0.78180504 -0.30481777 0.54393667
vn 0.72279006 0.2183227 -0.655675
vn 0.77523416 -0.3193108 -0.5450253
vn 0.06521349 -0.08662342 -0.99410444
vn -0.22855797 -0.7721241 -0.5929466
vn 0.7189818 0.42184836 -0.5523668
vn 0.9785701 -0.06479984 0.19545224
vn 0.24512434 0.6288234 -0.7378991
vn 0.332598 0.9324844 -0.1408956
vn -0.2557579 0.62493044 -0.7375972
vn 0.87586707 0.48056024 -0.043803636
vn 0.9057376 0.4226814 -0.031302426
vn 0.94288075 -0.33252993 -0.019998493
vn 0.37162623 0.9276702 -0.036358453
vn 0.30135736 -0.7415547 0.59940004
vn 0.40081796 -0.91611075 -0.009277299
vn -0.40334556 -0.9150232 -0.006695045
vn -0.30144158 -0.7439727 0.5963535
vn -0.39389005 0.9184531 -0.035979174
vn -0.35169023 0.92548704 -0.14066844
vn -0.92477286 0.3795393 -0.027297815
vn -0.8901448 0.45366532 -0.042778336
vn -0.724319 0.41193435 -0.55287635
vn -0.8901448 0.45366532 -0.042778336
vn -0.9772307 -0.06663086 0.20144567
vn -0.7035914 0.23246686 -0.6715045
vn -0.07120711 -0.09712602 -0.9927215
vn -0.76999646 -0.3195059 -0.55228746
vn 0.23169784 -0.7639402 -0.6022553
vn -0.7997289 -0.28191572 0.5300541
vn 0.22472823 -0.81535554 0.5335658
vn -0.30144158 -0.7439727 0.5963535
vn -0.9772307 -0.06663086 0.20144567
vn -0.9356467 -0.35268825 -0.013278665
vn 0.23169784 -0.7639402 -0.6022553
vn -0.30144158 -0.7439727 0.5963535
vn 0.22472823 -0.81535554 0.5335658
vn -0.7997289 -0.28191572 0.5300541
vn -0.7035914 0.23246686 -0.6715045
vn -0.9772307 -0.06663086 0.20144567
vn 0.77523416 -0.3193108 -0.5450253
vn -0.22855797 -0.7721241 -0.5929466
vn -0.24613097 -0.8109596 0.53081465
vn -0.5439835 -0.61879885 -0.5667186
vn -0.07120711 -0.09712602 -0.9927215
vn -0.30144158 -0.7439727 0.5963535
vn -0.5637697 -0.6293675 0.53484607
vn 0.5641706 -0.62871873 0.53518623
vn -0.5439835 -0.61879885 -0.5667186
vn 0.06521349 -0.08662342 -0.99410444
vn -0.07120711 -0.09712602 -0.9927215
vn -0.5439835 -0.61879885 -0.5667186
vn 0.54488236 -0.6160486 -0.56884736
vn -0.9356467 -0.35268825 -0.013278665
vn -0.9772307 -0.06663086 0.20144567
vn -0.8901448 0.45366532 -0.042778336
vn -0.92477286 0.3795393 -0.027297815
vn -0.07120711 -0.09712602 -0.9927215
vn 0.24512434 0.6288234 -0.7378991
vn -0.2557579 0.62493044 -0.7375972
vn 0.9772307 -0.066630885 0.20144565
vn 0.40334556 -0.9150232 -0.0066950414
vn 0.9356467 -0.35268822 -0.013278665
vn 0.3014416 -0.7439727 0.59635353
vn 0.7997288 -0.28191575 0.5300541
vn -0.22472821 -0.81535554 0.5335658
vn -0.23169787 -0.7639403 -0.6022552
vn 0.76999646 -0.31950596 -0.5522874
vn 0.071207106 -0.09712601 -0.9927215
vn 0.7035914 0.23246685 -0.6715045
vn 0.2557579 0.62493056 -0.7375972
vn 0.7243188 0.41193438 -0.5528763
vn 0.35169023 0.92548716 -0.14066845
vn 0.9772307 -0.066630885 0.20144565
vn 0.8901448 0.45366538 -0.042778328
vn -0.24512433 0.62882334 -0.7378991
vn -0.332598 0.9324844 -0.14089558
vn -0.7189819 0.42184836 -0.5523668
vn -0.0652135 -0.086623475 -0.99410444
vn -0.37162623 0.9276702 -0.036358453
vn 0.39389005 0.9184531 -0.035979174
vn 0.92477274 0.3795393 -0.027297812
vn 0.8901448 0.45366538 -0.042778328
vn -0.9057376 0.4226814 -0.031302426
vn -0.87586707 0.4805602 -0.04380363
vn -0.94288075 -0.33252993 -0.019998495
vn -0.9785701 -0.06479985 0.19545223
vn -0.40081796 -0.91611075 -0.009277298
vn -0.30135736 -0.74155474 0.5994
vn 0.3014416 -0.7439727 0.59635353
vn -0.72279006 0.21832265 -0.655675
vn 0.22855791 -0.7721241 -0.5929465
vn -0.77523416 -0.3193108 -0.5450252
vn -0.9785701 -0.06479985 0.19545223
vn -0.78180504 -0.30481774 0.5439366
vn 0.24613094 -0.8109596 0.5308146
vn -0.30135736 -0.74155474 0.5994
vn 0.22855791 -0.7721241 -0.5929465
vn -0.0652135 -0.086623475 -0.99410444
vn -0.5641707 -0.6287188 0.5351862
vn -0.5448823 -0.6160486 -0.5688475
vn 0.5637697 -0.62936753 0.534846
vn 0.3014416 -0.7439727 0.59635353
vn 0.071207106 -0.09712601 -0.9927215
vn -0.24512433 0.62882334 -0.7378991
vn 0.2557579 0.62493056 -0.7375972
vn 0.24613094 -0.8109596 0.5308146
vn -0.77523416 -0.3193108 -0.5450252
vn 0.22855791 -0.7721241 -0.5929465
vn 0.54398346 -0.6187988 -0.56671864
vn -0.5641707 -0.6287188 0.5351862
vn 0.5637697 -0.62936753 0.534846
vn 0.071207106 -0.09712601 -0.9927215
vn 0.54398346 -0.6187988 -0.56671864
vn 0.3014416 -0.7439727 0.59635353
vn 0.3014416 -0.7439727 0.59635353
vn -0.22472821 -0.81535554 0.5335658
vn -0.23169787 -0.7639403 -0.6022552
vn 0.9772307 -0.066630885 0.20144565
vn 0.7035914 0.23246685 -0.6715045
vn 0.7997288 -0.28191575 0.5300541
vn -0.0652135 -0.086623475 -0.99410444
vn -0.5448823 -0.6160486 -0.5688475
vn 0.54398346 -0.6187988 -0.56671864
vn 0.071207106 -0.09712601 -0.9927215
vn 0.9356467 -0.35268822 -0.013278665
vn 0.92477274 0.3795393 -0.027297812
vn 0.8901448 0.45366538 -0.042778328
vn 0.9772307 -0.066630885 0.20144565
vn 0.81600946 0.33950955 -0.46782675
vn 0.8319031 0.130152 -0.53944206
vn 0.93922603 0.2501155 -0.23515265
vn 0.21604294 0.9471137 -0.23727831
vn -0.39878356 0.030970143 -0.916522
vn -0.3757988 -0.04105511 -0.9257914
vn -0.9970605 -0.052854735 0.055468444
vn -0.35529163 -0.073009275 -0.9318999
vn 0.8808075 0.049136035 -0.470918
vn 0.93922603 0.2501155 -0.23515265
vn 0.912796 0.40523577 -0.050867844
vn 0.9789017 0.19124855 -0.071941204
vn 0.99539787 0.05498859 -0.07848172
vn 0.8802382 -0.01632142 -0.47425145
vn 0.9631282 0.2579139 0.076580346
vn 0.024820805 0.94629616 0.3223468
vn 0.996648 -0.036428593 -0.07324972
vn 0.94024044 -0.3297673 -0.084860854
vn 0.9663539 0.031646784 0.25526178
vn 0.83994675 -0.25354102 -0.47979817
vn 0.9661433 -0.036433056 0.25542083
vn -0.06458945 -0.086263284 0.9941764
vn 0.9399626 0.12342147 0.31817818
vn 0.90098315 0.34927452 0.25736505
vn -0.3101687 -0.3315591 -0.89099044
vn -0.13425241 -0.84863675 -0.51165617
vn -0.9759846 -0.21763569 -0.00942979
vn -0.9974038 -0.05433255 0.047261342
vn -0.96476305 -0.2415437 0.10435013
vn -0.040171463 -0.99912447 -0.011690345
vn -0.9927856 -0.0520521 0.108015515
vn -0.9475396 -0.21435839 0.23710568
vn -0.034891047 -0.87947404 0.47466633
vn 0.929073 -0.26982814 0.25301442
vn -0.030045325 -0.4020454 0.9151266
vn -0.047481768 -0.13572854 0.98960763
vn -0.9766099 -0.06474825 0.20503855
vn -0.994994 -0.050206136 0.086407885
vn -0.97861755 -0.0682468 0.19403592
vn -0.9974656 0.032163274 0.06346565
vn -0.9759783 -0.018056335 0.21711822
vn -0.9942894 0.08107876 0.06938892
vn -0.9704617 0.23760733 0.04179562
vn -0.9824302 0.09423268 0.16109374
vn -0.07761485 0.006749364 0.99696046
vn -0.0732652 0.29408386 0.9529674
vn -0.9542056 0.21704473 0.2058723
vn -0.061408415 0.70086646 0.7106442
vn -0.08274986 0.98634005 0.14242792
vn -0.99155575 -0.008950563 0.12937234
vn -0.95936185 0.22598714 0.16898172
vn -0.050178524 0.7734038 0.6319245
vn -0.08356992 0.9965018 0.0005666185
vn -0.092361845 0.7711815 -0.62987965
vn -0.37662497 0.33951724 -0.8619058
vn -0.04916003 0.99742305 0.05225372
vn -0.2691296 0.7756308 -0.57093453
vn -0.6986122 -0.42741874 0.5738067
vn -0.7320503 -0.3069836 0.6081641
vn -0.2831626 -0.3489266 0.8933471
vn -0.9107373 -0.35764322 0.20651656
vn -0.25673252 -0.4625487 0.84860885
vn 0.2567325 -0.46254873 0.8486089
vn 0.2831625 -0.34892666 0.8933472
vn 0.7320501 -0.3069836 0.6081641
vn 0.6986122 -0.4274188 0.5738067
vn 0.9107373 -0.35764313 0.2065165
vn -0.8905384 -0.43625027 0.12894647
vn -0.66191083 -0.5411895 0.5186404
vn -0.7676246 -0.5411044 -0.34345087
vn -0.7972979 -0.5963995 -0.09286464
vn -0.28476903 -0.90962094 -0.30248377
vn 0.21747549 -0.5914809 0.77643716
vn 0.6619109 -0.5411895 0.51864046
vn 0.88282484 -0.4682538 0.036858056
vn 0.8905384 -0.43625015 0.12894638
vn 0.7676246 -0.5411044 -0.3434509
vn 0.7972979 -0.5963995 -0.09286465
vn 0.28476894 -0.90962094 -0.30248374
vn 0.29826188 -0.63768023 -0.71021384
vn -0.29826197 -0.63768023 -0.71021384
vn -0.7761564 -0.3815948 -0.50196266
vn 0.6208651 -0.65854216 0.4252633
vn 0.7761563 -0.381595 -0.5019627
vn -0.31435078 -0.25192988 -0.9152676
vn -0.88282484 -0.4682538 0.036858115
vn 0.31435075 -0.25192988 -0.9152676
vn 0.76153785 -0.34718597 -0.5472862
vn 0.7918239 -0.6046957 -0.08577903
vn 0.35781473 -0.31303218 -0.87976104
vn -0.76153785 -0.34718594 -0.5472862
vn 0.27423903 -0.81008595 0.5182216
vn 0.33260873 -0.8839426 -0.32865936
vn -0.33260852 -0.88394266 -0.32865936
vn -0.35781452 -0.31303236 -0.87976104
vn -0.7918238 -0.60469586 -0.08577902
vn -0.62086517 -0.65854216 0.42526314
vn -0.27423918 -0.81008595 0.51822156
vn -0.21747567 -0.5914809 0.7764371
vn 0.7320501 -0.3069836 0.6081641
vn 0.2831625 -0.34892666 0.8933472
vn 0.29503432 -0.170593 0.9401344
vn -0.2831626 -0.3489266 0.8933471
vn 0.7540218 -0.16299227 0.6363054
vn 0.9107373 -0.35764313 0.2065165
vn 0.93901825 -0.19539428 0.28295875
vn 0.7517581 0.01081836 0.6593503
vn 0.96391475 -0.24467257 0.104898125
vn 0.7972979 -0.5963995 -0.09286465
vn -0.29503432 -0.17059302 0.9401344
vn -0.7540218 -0.16299233 0.6363055
vn -0.7320503 -0.3069836 0.6081641
vn -0.9107373 -0.35764322 0.20651656
vn -0.28366983 0.08142034 0.9554591
vn -0.7517581 0.010818326 0.6593502
vn -0.93901825 -0.1953943 0.28295875
vn 0.2836697 0.08142035 0.9554591
vn -0.96391475 -0.24467263 0.104898125
vn -0.7972979 -0.5963995 -0.09286464
vn -0.26972264 0.4998672 0.8230325
vn 0.6883329 0.328017 0.646995
vn 0.2697225 0.49986726 0.82303256
vn 0.9443825 0.016510962 0.32843402
vn 0.7942304 0.45610166 0.4014591
vn 0.98236966 0.042930845 0.18195266
vn -0.9443826 0.016510867 0.328434
vn -0.68833303 0.328017 0.64699495
vn -0.28504902 0.8254335 0.48724392
vn 0.2850491 0.8254335 0.487244
vn 0.82378715 0.4942882 0.27758574
vn 0.9854778 0.050302397 0.16218248
vn 0.30566895 0.8852102 0.35066992
vn -0.7942304 0.45610172 0.40145916
vn -0.98236966 0.04293073 0.18195264
vn -0.30566892 0.8852102 0.3506699
vn -0.8237872 0.4942882 0.27758574
vn 0.8287979 0.43843472 0.34766233
vn -0.9854778 0.05030233 0.16218247
vn 0.32066536 0.77594644 0.54321337
vn -0.32066527 0.7759465 0.54321337
vn -0.8287979 0.43843475 0.34766236
vn -0.9865283 0.058943305 0.15260288
vn -0.971875 -0.22977495 0.051599722
vn -0.3158543 0.5532679 0.77079874
vn -0.7884322 -0.60680264 -0.10082254
vn -0.28476903 -0.90962094 -0.30248377
vn -0.8230549 0.33205372 0.460783
vn -0.9877845 -0.14975807 -0.043060094
vn -0.8307278 0.2919645 0.4739706
vn 0.31585437 0.55326784 0.7707988
vn -0.31615514 0.46426052 0.82735
vn 0.8230549 0.33205366 0.460783
vn 0.9865283 0.058943305 0.1526029
vn 0.31615514 0.46426046 0.82735
vn 0.8307278 0.29196447 0.47397062
vn -0.31854397 0.5615388 0.76367795
vn 0.98983824 0.115313314 0.08320541
vn 0.31854382 0.5615388 0.76367795
vn 0.8378832 0.35536474 0.41432816
vn -0.98983824 0.11531336 0.083205394
vn -0.8378832 0.35536468 0.414328
vn -0.9846948 0.0040041166 -0.17424183
vn -0.9786886 0.20518051 -0.008336759
vn -0.8092477 0.5227798 0.2679914
vn -0.3692118 0.8360691 0.40579686
vn -0.88852274 0.4441687 -0.115072116
vn -0.95667624 0.14778133 -0.2508611
vn -0.7990792 0.06834931 -0.59732807
vn -0.82865566 -0.16938113 -0.5335165
vn -0.8608015 0.35609567 -0.36361614
vn -0.40453875 0.89903915 -0.16756181
vn 0.3692117 0.8360691 0.40579697
vn -0.83073145 -0.45725757 -0.31749138
vn -0.33719498 -0.7402497 -0.58166134
vn -0.33734703 -0.3150254 -0.8871054
vn 0.8092476 0.52278006 0.26799154
vn 0.88852274 0.44416875 -0.11507213
vn 0.4045388 0.89903915 -0.16756181
vn 0.3935747 0.699092 -0.59696686
vn 0.9786887 0.2051805 -0.0083367685
vn -0.30332735 -0.92544353 -0.22703908
vn 0.3033273 -0.92544365 -0.2270391
vn 0.28476894 -0.90962094 -0.30248374
vn -0.3935747 0.699092 -0.59696686
vn -0.34523994 0.36531925 -0.8644948
vn 0.8608015 0.35609558 -0.3636161
vn -0.7672161 0.22982106 -0.5988003
vn 0.34523994 0.36531925 -0.8644948
vn -0.32087347 0.040004935 -0.94627684
vn 0.32087344 0.04000495 -0.94627684
vn 0.33734706 -0.3150254 -0.8871054
vn 0.7990793 0.06834927 -0.59732795
vn 0.767216 0.22982098 -0.5988003
vn 0.95667624 0.14778122 -0.2508611
vn 0.9846948 0.0040040826 -0.17424183
vn 0.82865566 -0.16938116 -0.53351647
vn 0.9877845 -0.14975806 -0.043060105
vn 0.33719498 -0.7402497 -0.5816613
vn 0.83073145 -0.45725757 -0.31749138
vn 0.971875 -0.22977492 0.051599715
vn 0.7884321 -0.60680276 -0.100822546
vn -0.99019694 0.13013992 -0.05073183
vn -0.82896537 0.5409523 -0.1420809
vn -0.9888121 0.14751361 0.02214476
vn -0.0890102 0.5556471 0.82663983
vn -0.4855686 0.73539823 -0.4726655
vn -0.97812396 0.035296734 -0.20500666
vn -0.100851536 0.8874887 0.44965845
vn -0 0.5787941 0.81547374
vn -0 0.99939895 -0.034666628
vn -0.82705396 0.41861627 -0.3751561
vn -0 0.51641595 -0.8563379
vn -0.10726391 -0.34061012 -0.93406594
vn -0.11015032 0.07049289 -0.9914119
vn -0 -0.33305597 -0.9429071
vn 0.10726378 -0.34061015 -0.93406594
vn 0.1008515 0.8874888 0.4496584
vn 0.08901014 0.55564713 0.82663983
vn 0.9888121 0.14751363 0.022144655
vn 0.82896537 0.5409523 -0.142081
vn 0.99019694 0.13013992 -0.050731882
vn 0.48556885 0.735398 -0.47266537
vn 0.8270541 0.4186161 -0.3751562
vn 0.97812396 0.035296645 -0.20500682
vn 0.11015038 0.0704928 -0.9914119
vn -0.94761777 -0.044603385 0.3162769
vn -0.94330007 0.003424357 0.33192363
vn -0.9248811 -0.043132458 0.37780213
vn -0.9383979 -0.0920425 0.33307293
vn -0.92635936 0.022212615 0.37598535
vn -0.9194447 -0.10821963 0.37803426
vn -0.907232 0.0062107425 0.42058492
vn -0.9020805 -0.08909193 0.42227164
vn -0.8981941 -0.040804785 0.43770128
vn 0.94761777 -0.044603385 0.3162769
vn 0.9248811 -0.043132465 0.37780213
vn 0.94330007 0.003424357 0.33192363
vn 0.9383979 -0.0920425 0.33307293
vn 0.92635936 0.022212615 0.37598535
vn 0.9194447 -0.10821963 0.37803426
vn 0.907232 0.0062107425 0.42058492
vn 0.9020805 -0.08909193 0.42227164
vn 0.8981941 -0.040804785 0.43770128
vn -0.7885895 0.52751184 -0.31600305
vn -0.93930113 0.33936256 -0.050462525
vn -0.9780808 -0.05449538 -0.20096792
vn -0.85606647 -0.051980235 -0.51424533
vn -0.59759563 0.7720621 0.21633194
vn -0.8980054 -0.4381052 -0.04062086
vn -0.7984932 0.5180539 0.3066411
vn -0.72785664 -0.6158769 -0.3015301
vn -0.35783216 0.5638146 0.74435824
vn -0.73954153 -0.59180754 0.3206902
vn -0.6464006 0.3640468 0.6705492
vn -0.51274896 -0.8253072 0.23655154
vn -0.25428045 -0.001265637 0.96712965
vn -0.6051045 -0.4134219 0.6803902
vn -0.5599554 -0.019258093 0.8282989
vn -0.29710022 -0.57957536 0.7588305
vn 0.7885895 0.5275118 -0.316003
vn 0.9780808 -0.054495383 -0.20096791
vn 0.93930113 0.33936256 -0.050462518
vn 0.85606647 -0.051980246 -0.51424533
vn 0.59759563 0.7720621 0.21633193
vn 0.8980054 -0.4381052 -0.040620852
vn 0.7984932 0.51805395 0.30664104
vn 0.7278566 -0.6158769 -0.3015301
vn 0.35783243 0.5638146 0.7443581
vn 0.73954153 -0.5918075 0.32069027
vn 0.64640075 0.36404672 0.6705491
vn 0.512749 -0.82530713 0.23655164
vn 0.25428092 -0.001265625 0.9671295
vn 0.60510457 -0.41342184 0.68039024
vn 0.5599556 -0.019258088 0.82829875
vn 0.2971003 -0.5795753 0.7588305
vn 0.35615847 -0.075129636 -0.9314005
vn 0.30988863 -0.3330329 -0.8905381
vn 0.9756243 -0.21919858 -0.01044949
vn -0.8381367 -0.25632045 -0.48148403
vn 0.13392508 -0.8498511 -0.5097227
vn 0.041321907 -0.99906844 -0.012441991
vn -0.93885475 -0.33344918 -0.08581082
vn 0.96437883 -0.24322811 0.103987895
vn 0.9974353 -0.05456147 0.046324994
vn 0.036030818 -0.88141334 0.47096965
vn -0.9964289 -0.03784518 -0.075479716
vn -0.8783052 -0.01795458 -0.47776318
vn -0.87967354 0.050859854 -0.47285077
vn 0.37694108 -0.04087376 -0.92533493
vn -0.99511564 0.05814083 -0.07977867
vn -0.96570367 0.033671107 0.25745443
vn -0.9647836 -0.038060308 0.2602769
vn 0.05013914 -0.13707758 0.98929054
vn -0.92679054 -0.274807 0.25600868
vn 0.031412967 -0.40469298 0.9139129
vn 0.9464609 -0.21670969 0.2392668
vn 0.99280787 -0.0524675 0.1076089
vn 0.97612816 -0.0651323 0.2071998
vn 0.9783433 -0.06839121 0.19536392
vn 0.9949922 -0.04991659 0.086596556
vn 0.9971054 -0.052645456 0.054856572
vn 0.067385115 -0.08656552 0.9939646
vn 0.99745494 0.031674318 0.06387809
vn 0.07959715 0.00553033 0.9968118
vn 0.9917557 -0.008390694 0.1278681
vn 0.9822718 0.095480174 0.16132441
vn 0.9694082 0.24190678 0.041580036
vn -0.21768397 0.94926506 -0.22695696
vn 0.99422777 0.0822196 0.06892831
vn -0.022300834 0.9555083 0.29412
vn 0.39804766 0.03377688 -0.9167428
vn 0.95665276 0.2476015 0.15332578
vn 0.9754328 -0.014973484 0.21978763
vn 0.9446931 0.24084067 0.22260019
vn 0.07515987 0.30309746 0.94999105
vn -0.93887174 0.12968315 0.3189078
vn -0.9626548 0.26169667 0.06935732
vn -0.9113336 0.40849656 -0.051006105
vn -0.89219916 0.36646163 0.26398227
vn -0.9784041 0.19356246 -0.07251789
vn 0.052149113 0.6825867 0.7289415
vn 0.08120112 0.9831935 0.1635141
vn -0.93833834 0.25454322 -0.23394196
vn 0.052563034 0.79983264 0.5979171
vn 0.08412369 0.9964551 -0.0007333094
vn 0.090203874 0.7971789 -0.59696645
vn -0.82962435 0.13472106 -0.54182434
vn -0.8129168 0.34608412 -0.46839303
vn 0.06070372 0.9979564 0.019954203
vn 0.37037238 0.3517967 -0.85968804
vn 0.24865189 0.76146257 -0.5986211
vn 0.9664609 0.07758374 -0.24481443
vn 0.112725556 0.71436447 -0.69063467
vn -0.08143093 -0.38344815 -0.9199655
vn 0.16080745 0.8877163 0.43139395
vn -0.8907266 0.4004204 -0.21510373
vn 0.12252415 0.714991 0.6883137
vn -0.9811343 0.1922154 -0.020707924
vn -0.11228469 -0.6545451 -0.74763817
vn 0.98992467 -0.13731924 -0.034531817
vn 0.9152715 -0.3520709 0.19576547
vn 0.06317128 0.4320448 0.8996369
vn -0.1265124 -0.86819494 -0.47982505
vn -0.97816235 -0.06393028 0.19776595
vn -0.106895044 -0.7172542 0.6885636
vn -0.0010935598 -0.7793828 0.62654704
vn 0.986466 -0.124893636 0.10623716
vn 0.00032632882 -0.8427327 -0.538332
vn -0.9865694 -0.12441104 0.10584334
vn 0.00029513543 0.353524 0.9354254
vn -0.9998253 0.017471306 -0.006647632
vn -0 0.6668096 0.7452281
vn 0.9998253 0.017471306 -0.006647632
vn -0 -0.6176388 -0.78646183
vn 0.9808188 0.14348091 -0.13193846
vn 0.00028324447 -0.35418072 -0.935177
vn -0.9809382 0.14302164 -0.13154837
vn 0.0002883893 0.87002057 0.49301532
vn -0.0010607044 0.7635406 -0.645759
vn -0.9664609 0.07758376 -0.24481449
vn 0.0814309 -0.38344815 -0.9199655
vn -0.11272553 0.7143644 -0.6906348
vn 0.89072657 0.40042043 -0.2151039
vn 0.11228472 -0.6545452 -0.7476381
vn -0.16080755 0.8877165 0.43139365
vn -0.98992467 -0.1373192 -0.034531962
vn -0.122524254 0.7149911 0.68831354
vn 0.9811343 0.19221538 -0.020707924
vn 0.12651253 -0.868195 -0.47982496
vn 0.97816235 -0.06393031 0.19776607
vn -0.06317136 0.4320448 0.8996369
vn 0.10689501 -0.7172541 0.6885637
vn -0.9152715 -0.35207096 0.19576533
vn 0.96837103 -0.0368977 0.24677153
vn -0.0006043143 -0.18582693 0.98258233
vn 0.000163062 0.8423747 0.5388923
vn 0.00014564836 -0.97935355 0.20215508
vn -0.968447 -0.03684267 0.24648109
vn -0.96614933 0.048984494 -0.25329027
vn -0.00010180388 0.98260915 -0.18568611
vn 0.9662002 0.048951097 -0.25310284
vn -0.000114042174 -0.8519251 -0.5236637
vn 0.00044701487 0.18394382 -0.9829366
vn 0.97060937 -0.12072008 0.20819265
vn -0.0006597382 -0.47294772 0.8810902
vn 0.00017023686 0.6319601 0.7750009
vn 0.00015398774 -0.99531746 -0.09665949
vn -0.9706909 -0.12056716 0.2079005
vn -0.9670078 0.11085887 -0.22936022
vn -0.00010792073 0.9930681 0.11754006
vn 0.967066 0.11075306 -0.22916621
vn -0.00012103563 -0.64134365 -0.7672537
vn 0.0004957619 0.4816966 -0.87633795
g Crow_LOD2_0
f 3/3/3 2/2/2 1/1/1
f 6/6/6 5/5/5 4/4/4
f 9/9/9 8/8/8 7/7/7
f 12/12/12 11/11/11 10/10/10
f 15/15/15 14/14/14 13/13/13
f 18/18/18 17/17/17 16/16/16
f 21/21/21 20/20/20 19/19/19
f 24/24/24 23/23/23 22/22/22
f 27/27/27 26/26/26 25/25/25
f 30/30/30 29/29/29 28/28/28
f 33/33/33 32/32/32 31/31/31
f 36/36/36 35/35/35 34/34/34
f 39/39/39 38/38/38 37/37/37
f 42/42/42 41/41/41 40/40/40
f 45/45/45 44/44/44 43/43/43
f 48/48/48 47/47/47 46/46/46
f 51/51/51 50/50/50 49/49/49
f 50/50/50 52/52/52 49/49/49
f 53/53/53 49/49/49 52/52/52
f 54/54/54 53/53/53 52/52/52
f 49/49/49 53/53/53 55/55/55
f 53/53/53 56/56/56 55/55/55
f 49/49/49 55/55/55 57/57/57
f 55/55/55 58/58/58 57/57/57
f 59/59/59 57/57/57 58/58/58
f 60/60/60 59/59/59 58/58/58
f 61/61/61 59/59/59 60/60/60
f 62/62/62 61/61/61 60/60/60
f 59/59/59 61/61/61 63/63/63
f 59/59/59 63/63/63 64/64/64
f 61/61/61 65/65/65 63/63/63
f 65/65/65 66/66/66 63/63/63
f 65/65/65 67/67/67 66/66/66
f 63/63/63 68/68/68 64/64/64
f 66/66/66 68/68/68 63/63/63
f 68/68/68 69/69/69 64/64/64
f 69/69/69 70/70/70 64/64/64
f 71/71/71 69/69/69 68/68/68
f 66/66/66 71/71/71 68/68/68
f 64/64/64 70/70/70 72/72/72
f 70/70/70 73/73/73 72/72/72
f 73/73/73 74/74/74 72/72/72
f 74/74/74 75/75/75 72/72/72
f 76/76/76 71/71/71 66/66/66
f 77/77/77 76/76/76 66/66/66
f 67/67/67 77/77/77 66/66/66
f 76/76/76 77/77/77 78/78/78
f 77/77/77 79/79/79 78/78/78
f 67/67/67 80/80/80 77/77/77
f 80/80/80 81/81/81 77/77/77
f 82/82/82 81/81/81 80/80/80
f 83/83/83 82/82/82 80/80/80
f 80/80/80 67/67/67 83/83/83
f 67/67/67 84/84/84 83/83/83
f 85/85/85 83/83/83 84/84/84
f 86/86/86 85/85/85 84/84/84
f 87/87/87 85/85/85 86/86/86
f 88/88/88 87/87/87 86/86/86
f 87/87/87 88/88/88 89/89/89
f 90/90/90 87/87/87 89/89/89
f 91/91/91 90/90/90 89/89/89
f 74/74/74 91/91/91 89/89/89
f 84/84/84 93/93/93 92/92/92
f 93/93/93 94/94/94 92/92/92
f 96/96/96 85/85/85 95/95/95
f 97/97/97 96/96/96 95/95/95
f 99/99/99 98/98/98 58/58/58
f 100/100/100 99/99/99 58/58/58
f 103/103/103 102/102/102 101/101/101
f 104/104/104 103/103/103 101/101/101
f 104/104/104 106/106/106 105/105/105
f 106/106/106 54/54/54 105/105/105
f 109/109/109 108/108/108 107/107/107
f 110/110/110 109/109/109 107/107/107
f 113/113/113 112/112/112 111/111/111
f 114/114/114 113/113/113 111/111/111
f 117/117/117 116/116/116 115/115/115
f 116/116/116 61/61/61 115/115/115
f 120/120/120 119/119/119 118/118/118
f 119/119/119 121/121/121 118/118/118
f 122/122/122 118/118/118 121/121/121
f 123/123/123 122/122/122 121/121/121
f 123/123/123 124/124/124 122/122/122
f 124/124/124 125/125/125 122/122/122
f 125/125/125 124/124/124 126/126/126
f 127/127/127 125/125/125 126/126/126
f 126/126/126 128/128/128 127/127/127
f 128/128/128 129/129/129 127/127/127
f 128/128/128 130/130/130 129/129/129
f 127/127/127 129/129/129 131/131/131
f 129/129/129 132/132/132 131/131/131
f 130/130/130 132/132/132 129/129/129
f 128/128/128 133/133/133 130/130/130
f 133/133/133 134/134/134 130/130/130
f 133/133/133 135/135/135 134/134/134
f 133/133/133 136/136/136 135/135/135
f 134/134/134 137/137/137 130/130/130
f 137/137/137 138/138/138 130/130/130
f 130/130/130 138/138/138 139/139/139
f 140/140/140 130/130/130 139/139/139
f 141/141/141 137/137/137 134/134/134
f 142/142/142 141/141/141 134/134/134
f 135/135/135 142/142/142 134/134/134
f 143/143/143 141/141/141 142/142/142
f 144/144/144 143/143/143 142/142/142
f 144/144/144 142/142/142 135/135/135
f 145/145/145 143/143/143 144/144/144
f 146/146/146 145/145/145 144/144/144
f 145/145/145 146/146/146 147/147/147
f 119/119/119 145/145/145 147/147/147
f 148/148/148 144/144/144 135/135/135
f 136/136/136 148/148/148 135/135/135
f 148/148/148 136/136/136 149/149/149
f 150/150/150 148/148/148 149/149/149
f 151/151/151 148/148/148 150/150/150
f 152/152/152 151/151/151 150/150/150
f 152/152/152 153/153/153 151/151/151
f 153/153/153 154/154/154 151/151/151
f 153/153/153 155/155/155 154/154/154
f 155/155/155 156/156/156 154/154/154
f 157/157/157 154/154/154 156/156/156
f 158/158/158 157/157/157 156/156/156
f 157/157/157 159/159/159 154/154/154
f 159/159/159 160/160/160 154/154/154
f 136/136/136 162/162/162 161/161/161
f 162/162/162 163/163/163 161/161/161
f 152/152/152 165/165/165 164/164/164
f 165/165/165 166/166/166 164/164/164
f 168/168/168 158/158/158 167/167/167
f 169/169/169 168/168/168 167/167/167
f 169/169/169 171/171/171 170/170/170
f 172/172/172 169/169/169 170/170/170
f 174/174/174 173/173/173 126/126/126
f 175/175/175 174/174/174 126/126/126
f 125/125/125 177/177/177 176/176/176
f 178/178/178 125/125/125 176/176/176
f 181/181/181 180/180/180 179/179/179
f 182/182/182 181/181/181 179/179/179
f 185/185/185 184/184/184 183/183/183
f 186/186/186 185/185/185 183/183/183
f 189/189/189 188/188/188 187/187/187
f 187/187/187 190/190/190 189/189/189
f 187/187/187 188/188/188 191/191/191
f 191/191/191 188/188/188 192/192/192
f 192/192/192 193/193/193 191/191/191
f 193/193/193 192/192/192 194/194/194
f 188/188/188 195/195/195 192/192/192
f 192/192/192 195/195/195 194/194/194
f 188/188/188 196/196/196 195/195/195
f 196/196/196 190/190/190 197/197/197
f 195/195/195 196/196/196 198/198/198
f 197/197/197 198/198/198 196/196/196
f 199/199/199 195/195/195 198/198/198
f 195/195/195 200/200/200 194/194/194
f 200/200/200 195/195/195 199/199/199
f 201/201/201 198/198/198 197/197/197
f 199/199/199 198/198/198 201/201/201
f 197/197/197 202/202/202 201/201/201
f 203/203/203 200/200/200 199/199/199
f 203/203/203 204/204/204 200/200/200
f 203/203/203 199/199/199 205/205/205
f 205/205/205 199/199/199 201/201/201
f 194/194/194 200/200/200 206/206/206
f 204/204/204 206/206/206 200/200/200
f 207/207/207 203/203/203 205/205/205
f 204/204/204 203/203/203 207/207/207
f 207/207/207 205/205/205 208/208/208
f 205/205/205 201/201/201 209/209/209
f 205/205/205 209/209/209 208/208/208
f 201/201/201 202/202/202 210/210/210
f 210/210/210 209/209/209 201/201/201
f 211/211/211 194/194/194 206/206/206
f 206/206/206 212/212/212 211/211/211
f 206/206/206 204/204/204 212/212/212
f 211/211/211 213/213/213 194/194/194
f 212/212/212 213/213/213 211/211/211
f 213/213/213 214/214/214 194/194/194
f 214/214/214 193/193/193 194/194/194
f 215/215/215 213/213/213 212/212/212
f 214/214/214 213/213/213 215/215/215
f 204/204/204 216/216/216 212/212/212
f 216/216/216 215/215/215 212/212/212
f 217/217/217 214/214/214 215/215/215
f 215/215/215 216/216/216 218/218/218
f 217/217/217 215/215/215 218/218/218
f 216/216/216 204/204/204 219/219/219
f 216/216/216 219/219/219 218/218/218
f 204/204/204 220/220/220 219/219/219
f 220/220/220 204/204/204 207/207/207
f 219/219/219 220/220/220 221/221/221
f 219/219/219 221/221/221 218/218/218
f 220/220/220 207/207/207 222/222/222
f 221/221/221 220/220/220 222/222/222
f 221/221/221 222/222/222 218/218/218
f 222/222/222 207/207/207 208/208/208
f 222/222/222 223/223/223 218/218/218
f 223/223/223 217/217/217 218/218/218
f 223/223/223 222/222/222 208/208/208
f 217/217/217 224/224/224 214/214/214
f 224/224/224 193/193/193 214/214/214
f 217/217/217 223/223/223 225/225/225
f 224/224/224 217/217/217 225/225/225
f 225/225/225 223/223/223 208/208/208
f 224/224/224 226/226/226 193/193/193
f 226/226/226 224/224/224 225/225/225
f 227/227/227 225/225/225 208/208/208
f 228/228/228 226/226/226 225/225/225
f 225/225/225 227/227/227 228/228/228
f 229/229/229 226/226/226 228/228/228
f 226/226/226 230/230/230 193/193/193
f 230/230/230 226/226/226 229/229/229
f 231/231/231 227/227/227 208/208/208
f 209/209/209 231/231/231 208/208/208
f 232/232/232 231/231/231 209/209/209
f 227/227/227 231/231/231 232/232/232
f 210/210/210 232/232/232 209/209/209
f 228/228/228 227/227/227 233/233/233
f 233/233/233 227/227/227 232/232/232
f 210/210/210 234/234/234 232/232/232
f 234/234/234 233/233/233 232/232/232
f 234/234/234 210/210/210 235/235/235
f 233/233/233 234/234/234 235/235/235
f 202/202/202 235/235/235 210/210/210
f 233/233/233 235/235/235 202/202/202
f 233/233/233 202/202/202 228/228/228
f 228/228/228 202/202/202 229/229/229
f 193/193/193 230/230/230 236/236/236
f 193/193/193 236/236/236 191/191/191
f 237/237/237 236/236/236 230/230/230
f 191/191/191 236/236/236 237/237/237
f 202/202/202 238/238/238 229/229/229
f 197/197/197 238/238/238 202/202/202
f 239/239/239 238/238/238 197/197/197
f 239/239/239 229/229/229 238/238/238
f 239/239/239 197/197/197 240/240/240
f 229/229/229 239/239/239 240/240/240
f 190/190/190 240/240/240 197/197/197
f 229/229/229 240/240/240 190/190/190
f 229/229/229 190/190/190 230/230/230
f 230/230/230 190/190/190 237/237/237
f 241/241/241 191/191/191 237/237/237
f 241/241/241 187/187/187 191/191/191
f 190/190/190 242/242/242 237/237/237
f 187/187/187 242/242/242 190/190/190
f 243/243/243 187/187/187 241/241/241
f 243/243/243 241/241/241 237/237/237
f 187/187/187 243/243/243 242/242/242
f 242/242/242 243/243/243 237/237/237
f 246/246/246 245/245/245 244/244/244
f 245/245/245 247/247/247 244/244/244
f 248/248/248 246/246/246 244/244/244
f 246/246/246 248/248/248 249/249/249
f 250/250/250 246/246/246 249/249/249
f 251/251/251 250/250/250 249/249/249
f 252/252/252 251/251/251 249/249/249
f 253/253/253 251/251/251 252/252/252
f 247/247/247 254/254/254 244/244/244
f 248/248/248 244/244/244 255/255/255
f 244/244/244 254/254/254 255/255/255
f 254/254/254 247/247/247 256/256/256
f 247/247/247 257/257/257 256/256/256
f 256/256/256 257/257/257 258/258/258
f 259/259/259 249/249/249 248/248/248
f 252/252/252 249/249/249 260/260/260
f 249/249/249 259/259/259 260/260/260
f 252/252/252 260/260/260 261/261/261
f 262/262/262 253/253/253 252/252/252
f 262/262/262 252/252/252 261/261/261
f 262/262/262 263/263/263 253/253/253
f 263/263/263 262/262/262 261/261/261
f 263/263/263 264/264/264 253/253/253
f 265/265/265 264/264/264 263/263/263
f 258/258/258 265/265/265 266/266/266
f 266/266/266 265/265/265 263/263/263
f 267/267/267 256/256/256 258/258/258
f 267/267/267 258/258/258 266/266/266
f 268/268/268 256/256/256 267/267/267
f 254/254/254 256/256/256 268/268/268
f 260/260/260 259/259/259 269/269/269
f 261/261/261 260/260/260 269/269/269
f 266/266/266 263/263/263 270/270/270
f 270/270/270 263/263/263 261/261/261
f 271/271/271 267/267/267 266/266/266
f 271/271/271 268/268/268 267/267/267
f 272/272/272 254/254/254 268/268/268
f 254/254/254 272/272/272 255/255/255
f 273/273/273 266/266/266 270/270/270
f 273/273/273 271/271/271 266/266/266
f 274/274/274 270/270/270 261/261/261
f 273/273/273 270/270/270 274/274/274
f 275/275/275 261/261/261 269/269/269
f 275/275/275 274/274/274 261/261/261
f 276/276/276 273/273/273 274/274/274
f 271/271/271 273/273/273 276/276/276
f 277/277/277 268/268/268 271/271/271
f 272/272/272 268/268/268 277/277/277
f 275/275/275 269/269/269 278/278/278
f 259/259/259 278/278/278 269/269/269
f 275/275/275 279/279/279 274/274/274
f 279/279/279 276/276/276 274/274/274
f 279/279/279 275/275/275 278/278/278
f 279/279/279 280/280/280 276/276/276
f 280/280/280 279/279/279 278/278/278
f 281/281/281 271/271/271 276/276/276
f 281/281/281 277/277/277 271/271/271
f 280/280/280 281/281/281 276/276/276
f 281/281/281 280/280/280 277/277/277
f 282/282/282 272/272/272 277/277/277
f 280/280/280 282/282/282 277/277/277
f 272/272/272 282/282/282 283/283/283
f 283/283/283 282/282/282 280/280/280
f 255/255/255 272/272/272 283/283/283
f 284/284/284 280/280/280 278/278/278
f 284/284/284 278/278/278 259/259/259
f 284/284/284 283/283/283 280/280/280
f 285/285/285 255/255/255 283/283/283
f 284/284/284 285/285/285 283/283/283
f 285/285/285 284/284/284 259/259/259
f 285/285/285 248/248/248 255/255/255
f 285/285/285 259/259/259 248/248/248
f 288/288/288 287/287/287 286/286/286
f 289/289/289 287/287/287 288/288/288
f 290/290/290 288/288/288 286/286/286
f 290/290/290 286/286/286 291/291/291
f 292/292/292 290/290/290 291/291/291
f 288/288/288 290/290/290 293/293/293
f 290/290/290 292/292/292 293/293/293
f 292/292/292 291/291/291 294/294/294
f 291/291/291 295/295/295 294/294/294
f 296/296/296 289/289/289 288/288/288
f 289/289/289 296/296/296 297/297/297
f 298/298/298 289/289/289 297/297/297
f 298/298/298 297/297/297 299/299/299
f 296/296/296 288/288/288 300/300/300
f 297/297/297 296/296/296 301/301/301
f 296/296/296 300/300/300 301/301/301
f 297/297/297 302/302/302 299/299/299
f 302/302/302 297/297/297 301/301/301
f 288/288/288 303/303/303 300/300/300
f 303/303/303 288/288/288 293/293/293
f 299/299/299 302/302/302 304/304/304
f 305/305/305 299/299/299 304/304/304
f 301/301/301 300/300/300 306/306/306
f 300/300/300 303/303/303 306/306/306
f 293/293/293 307/307/307 303/303/303
f 303/303/303 308/308/308 306/306/306
f 307/307/307 308/308/308 303/303/303
f 293/293/293 309/309/309 307/307/307
f 292/292/292 309/309/309 293/293/293
f 309/309/309 310/310/310 307/307/307
f 307/307/307 310/310/310 308/308/308
f 311/311/311 309/309/309 292/292/292
f 309/309/309 311/311/311 310/310/310
f 294/294/294 311/311/311 292/292/292
f 312/312/312 302/302/302 301/301/301
f 313/313/313 301/301/301 306/306/306
f 312/312/312 301/301/301 313/313/313
f 314/314/314 306/306/306 308/308/308
f 306/306/306 314/314/314 313/313/313
f 310/310/310 315/315/315 308/308/308
f 315/315/315 314/314/314 308/308/308
f 311/311/311 316/316/316 310/310/310
f 310/310/310 316/316/316 315/315/315
f 311/311/311 294/294/294 317/317/317
f 311/311/311 317/317/317 316/316/316
f 316/316/316 318/318/318 315/315/315
f 314/314/314 315/315/315 318/318/318
f 314/314/314 319/319/319 313/313/313
f 319/319/319 312/312/312 313/313/313
f 302/302/302 312/312/312 320/320/320
f 304/304/304 302/302/302 320/320/320
f 319/319/319 314/314/314 321/321/321
f 321/321/321 314/314/314 318/318/318
f 319/319/319 322/322/322 312/312/312
f 322/322/322 320/320/320 312/312/312
f 322/322/322 319/319/319 321/321/321
f 316/316/316 323/323/323 318/318/318
f 317/317/317 323/323/323 316/316/316
f 304/304/304 320/320/320 324/324/324
f 324/324/324 320/320/320 322/322/322
f 321/321/321 318/318/318 325/325/325
f 323/323/323 325/325/325 318/318/318
f 322/322/322 321/321/321 326/326/326
f 326/326/326 321/321/321 325/325/325
f 327/327/327 322/322/322 326/326/326
f 327/327/327 324/324/324 322/322/322
f 328/328/328 324/324/324 327/327/327
f 329/329/329 304/304/304 324/324/324
f 329/329/329 324/324/324 328/328/328
f 305/305/305 304/304/304 329/329/329
f 326/326/326 330/330/330 327/327/327
f 330/330/330 326/326/326 325/325/325
f 331/331/331 305/305/305 329/329/329
f 332/332/332 305/305/305 331/331/331
f 333/333/333 328/328/328 327/327/327
f 330/330/330 333/333/333 327/327/327
f 331/331/331 329/329/329 334/334/334
f 334/334/334 329/329/329 328/328/328
f 333/333/333 330/330/330 335/335/335
f 328/328/328 333/333/333 335/335/335
f 336/336/336 330/330/330 325/325/325
f 330/330/330 337/337/337 335/335/335
f 337/337/337 330/330/330 336/336/336
f 338/338/338 336/336/336 325/325/325
f 323/323/323 338/338/338 325/325/325
f 339/339/339 338/338/338 323/323/323
f 317/317/317 339/339/339 323/323/323
f 340/340/340 337/337/337 336/336/336
f 338/338/338 341/341/341 336/336/336
f 341/341/341 340/340/340 336/336/336
f 342/342/342 337/337/337 340/340/340
f 335/335/335 337/337/337 342/342/342
f 338/338/338 339/339/339 343/343/343
f 341/341/341 338/338/338 343/343/343
f 340/340/340 341/341/341 344/344/344
f 344/344/344 342/342/342 340/340/340
f 345/345/345 341/341/341 343/343/343
f 341/341/341 345/345/345 344/344/344
f 346/346/346 328/328/328 335/335/335
f 347/347/347 335/335/335 342/342/342
f 346/346/346 335/335/335 347/347/347
f 346/346/346 348/348/348 328/328/328
f 348/348/348 334/334/334 328/328/328
f 349/349/349 346/346/346 347/347/347
f 346/346/346 349/349/349 348/348/348
f 350/350/350 347/347/347 342/342/342
f 347/347/347 350/350/350 349/349/349
f 351/351/351 350/350/350 342/342/342
f 351/351/351 342/342/342 344/344/344
f 350/350/350 352/352/352 349/349/349
f 352/352/352 350/350/350 351/351/351
f 349/349/349 353/353/353 348/348/348
f 349/349/349 352/352/352 353/353/353
f 348/348/348 353/353/353 354/354/354
f 334/334/334 348/348/348 355/355/355
f 355/355/355 348/348/348 354/354/354
f 352/352/352 356/356/356 353/353/353
f 353/353/353 356/356/356 354/354/354
f 357/357/357 352/352/352 351/351/351
f 356/356/356 352/352/352 357/357/357
f 358/358/358 351/351/351 344/344/344
f 357/357/357 351/351/351 358/358/358
f 359/359/359 334/334/334 355/355/355
f 360/360/360 359/359/359 355/355/355
f 359/359/359 331/331/331 334/334/334
f 331/331/331 359/359/359 360/360/360
f 361/361/361 355/355/355 354/354/354
f 361/361/361 360/360/360 355/355/355
f 358/358/358 344/344/344 362/362/362
f 344/344/344 345/345/345 362/362/362
f 358/358/358 362/362/362 363/363/363
f 362/362/362 345/345/345 363/363/363
f 364/364/364 357/357/357 358/358/358
f 364/364/364 358/358/358 363/363/363
f 357/357/357 364/364/364 365/365/365
f 364/364/364 363/363/363 365/365/365
f 345/345/345 366/366/366 363/363/363
f 366/366/366 345/345/345 343/343/343
f 367/367/367 331/331/331 360/360/360
f 367/367/367 332/332/332 331/331/331
f 332/332/332 367/367/367 368/368/368
f 367/367/367 360/360/360 368/368/368
f 369/369/369 332/332/332 368/368/368
f 369/369/369 368/368/368 295/295/295
f 370/370/370 357/357/357 365/365/365
f 370/370/370 356/356/356 357/357/357
f 356/356/356 370/370/370 371/371/371
f 371/371/371 370/370/370 365/365/365
f 363/363/363 372/372/372 365/365/365
f 363/363/363 366/366/366 372/372/372
f 373/373/373 356/356/356 371/371/371
f 356/356/356 373/373/373 354/354/354
f 373/373/373 371/371/371 354/354/354
f 374/374/374 371/371/371 365/365/365
f 365/365/365 372/372/372 374/374/374
f 371/371/371 375/375/375 354/354/354
f 375/375/375 371/371/371 374/374/374
f 375/375/375 361/361/361 354/354/354
f 361/361/361 375/375/375 376/376/376
f 376/376/376 375/375/375 374/374/374
f 377/377/377 361/361/361 376/376/376
f 360/360/360 361/361/361 377/377/377
f 378/378/378 376/376/376 374/374/374
f 377/377/377 376/376/376 378/378/378
f 372/372/372 379/379/379 374/374/374
f 379/379/379 378/378/378 374/374/374
f 372/372/372 380/380/380 379/379/379
f 380/380/380 378/378/378 379/379/379
f 366/366/366 380/380/380 372/372/372
f 380/380/380 366/366/366 381/381/381
f 380/380/380 381/381/381 378/378/378
f 366/366/366 343/343/343 381/381/381
f 343/343/343 339/339/339 381/381/381
f 381/381/381 382/382/382 378/378/378
f 382/382/382 377/377/377 378/378/378
f 339/339/339 383/383/383 381/381/381
f 381/381/381 383/383/383 382/382/382
f 383/383/383 339/339/339 317/317/317
f 384/384/384 360/360/360 377/377/377
f 360/360/360 384/384/384 368/368/368
f 382/382/382 385/385/385 377/377/377
f 383/383/383 385/385/385 382/382/382
f 385/385/385 384/384/384 377/377/377
f 386/386/386 383/383/383 317/317/317
f 385/385/385 383/383/383 386/386/386
f 294/294/294 386/386/386 317/317/317
f 386/386/386 294/294/294 295/295/295
f 368/368/368 387/387/387 295/295/295
f 368/368/368 384/384/384 387/387/387
f 384/384/384 385/385/385 387/387/387
f 387/387/387 385/385/385 386/386/386
f 387/387/387 386/386/386 295/295/295
f 390/390/390 389/389/389 388/388/388
f 389/389/389 390/390/390 391/391/391
f 389/389/389 392/392/392 388/388/388
f 393/393/393 388/388/388 392/392/392
f 394/394/394 389/389/389 391/391/391
f 391/391/391 395/395/395 394/394/394
f 394/394/394 396/396/396 389/389/389
f 395/395/395 396/396/396 394/394/394
f 396/396/396 392/392/392 389/389/389
f 397/397/397 393/393/393 392/392/392
f 392/392/392 398/398/398 397/397/397
f 399/399/399 393/393/393 397/397/397
f 400/400/400 399/399/399 397/397/397
f 398/398/398 400/400/400 397/397/397
f 401/401/401 399/399/399 400/400/400
f 398/398/398 401/401/401 400/400/400
f 402/402/402 401/401/401 398/398/398
f 396/396/396 395/395/395 403/403/403
f 395/395/395 404/404/404 403/403/403
f 403/403/403 404/404/404 405/405/405
f 406/406/406 403/403/403 405/405/405
f 396/396/396 403/403/403 406/406/406
f 405/405/405 407/407/407 406/406/406
f 396/396/396 408/408/408 392/392/392
f 408/408/408 396/396/396 406/406/406
f 407/407/407 408/408/408 406/406/406
f 408/408/408 398/398/398 392/392/392
f 408/408/408 407/407/407 409/409/409
f 398/398/398 408/408/408 409/409/409
f 407/407/407 410/410/410 409/409/409
f 409/409/409 410/410/410 402/402/402
f 411/411/411 402/402/402 398/398/398
f 411/411/411 409/409/409 402/402/402
f 411/411/411 398/398/398 409/409/409
f 414/414/414 413/413/413 412/412/412
f 414/414/414 412/412/412 415/415/415
f 414/414/414 416/416/416 413/413/413
f 414/414/414 415/415/415 417/417/417
f 414/414/414 418/418/418 416/416/416
f 414/414/414 417/417/417 419/419/419
f 414/414/414 420/420/420 418/418/418
f 414/414/414 419/419/419 420/420/420
f 423/423/423 422/422/422 421/421/421
f 421/421/421 422/422/422 424/424/424
f 425/425/425 422/422/422 423/423/423
f 424/424/424 422/422/422 426/426/426
f 427/427/427 422/422/422 425/425/425
f 426/426/426 422/422/422 428/428/428
f 429/429/429 422/422/422 427/427/427
f 428/428/428 422/422/422 429/429/429
f 432/432/432 431/431/431 430/430/430
f 433/433/433 432/432/432 430/430/430
f 430/430/430 431/431/431 434/434/434
f 435/435/435 432/432/432 433/433/433
f 431/431/431 436/436/436 434/434/434
f 437/437/437 435/435/435 433/433/433
f 434/434/434 436/436/436 438/438/438
f 439/439/439 435/435/435 437/437/437
f 436/436/436 440/440/440 438/438/438
f 441/441/441 439/439/439 437/437/437
f 438/438/438 440/440/440 442/442/442
f 443/443/443 439/439/439 441/441/441
f 440/440/440 444/444/444 442/442/442
f 445/445/445 443/443/443 441/441/441
f 442/442/442 444/444/444 445/445/445
f 444/444/444 443/443/443 445/445/445
f 448/448/448 447/447/447 446/446/446
f 447/447/447 449/449/449 446/446/446
f 448/448/448 446/446/446 450/450/450
f 447/447/447 451/451/451 449/449/449
f 452/452/452 448/448/448 450/450/450
f 451/451/451 453/453/453 449/449/449
f 452/452/452 450/450/450 454/454/454
f 451/451/451 455/455/455 453/453/453
f 456/456/456 452/452/452 454/454/454
f 455/455/455 457/457/457 453/453/453
f 456/456/456 454/454/454 458/458/458
f 455/455/455 459/459/459 457/457/457
f 460/460/460 456/456/456 458/458/458
f 459/459/459 461/461/461 457/457/457
f 460/460/460 458/458/458 461/461/461
f 459/459/459 460/460/460 461/461/461
f 464/464/464 463/463/463 462/462/462
f 462/462/462 463/463/463 465/465/465
f 466/466/466 463/463/463 464/464/464
f 466/466/466 465/465/465 463/463/463
f 467/467/467 466/466/466 464/464/464
f 468/468/468 465/465/465 466/466/466
f 467/467/467 468/468/468 466/466/466
f 469/469/469 467/467/467 464/464/464
f 470/470/470 464/464/464 462/462/462
f 464/464/464 470/470/470 469/469/469
f 468/468/468 467/467/467 471/471/471
f 471/471/471 467/467/467 469/469/469
f 468/468/468 472/472/472 465/465/465
f 473/473/473 462/462/462 465/465/465
f 472/472/472 473/473/473 465/465/465
f 462/462/462 473/473/473 474/474/474
f 470/470/470 462/462/462 475/475/475
f 475/475/475 462/462/462 474/474/474
f 472/472/472 476/476/476 473/473/473
f 476/476/476 474/474/474 473/473/473
f 476/476/476 472/472/472 477/477/477
f 472/472/472 468/468/468 478/478/478
f 472/472/472 478/478/478 477/477/477
f 477/477/477 478/478/478 479/479/479
f 468/468/468 480/480/480 478/478/478
f 480/480/480 468/468/468 471/471/471
f 478/478/478 480/480/480 479/479/479
f 471/471/471 481/481/481 480/480/480
f 480/480/480 481/481/481 479/479/479
f 471/471/471 482/482/482 481/481/481
f 479/479/479 481/481/481 482/482/482
f 482/482/482 471/471/471 469/469/469
f 469/469/469 483/483/483 482/482/482
f 470/470/470 483/483/483 469/469/469
f 483/483/483 484/484/484 482/482/482
f 484/484/484 479/479/479 482/482/482
f 484/484/484 485/485/485 479/479/479
f 483/483/483 486/486/486 484/484/484
f 486/486/486 483/483/483 470/470/470
f 486/486/486 485/485/485 484/484/484
f 487/487/487 486/486/486 470/470/470
f 487/487/487 470/470/470 475/475/475
f 488/488/488 477/477/477 479/479/479
f 485/485/485 488/488/488 479/479/479
f 486/486/486 489/489/489 485/485/485
f 489/489/489 486/486/486 487/487/487
f 477/477/477 488/488/488 490/490/490
f 488/488/488 485/485/485 490/490/490
f 487/487/487 475/475/475 491/491/491
f 492/492/492 489/489/489 487/487/487
f 487/487/487 491/491/491 492/492/492
f 493/493/493 489/489/489 492/492/492
f 492/492/492 494/494/494 493/493/493
f 489/489/489 495/495/495 485/485/485
f 495/495/495 489/489/489 493/493/493
f 493/493/493 496/496/496 495/495/495
f 475/475/475 497/497/497 491/491/491
f 497/497/497 475/475/475 474/474/474
f 492/492/492 491/491/491 498/498/498
f 498/498/498 494/494/494 492/492/492
f 498/498/498 491/491/491 497/497/497
f 495/495/495 499/499/499 485/485/485
f 485/485/485 499/499/499 490/490/490
f 500/500/500 499/499/499 495/495/495
f 495/495/495 496/496/496 500/500/500
f 499/499/499 500/500/500 490/490/490
f 500/500/500 501/501/501 490/490/490
f 502/502/502 490/490/490 501/501/501
f 502/502/502 477/477/477 490/490/490
f 477/477/477 502/502/502 503/503/503
f 503/503/503 496/496/496 504/504/504
f 476/476/476 477/477/477 503/503/503
f 505/505/505 502/502/502 501/501/501
f 503/503/503 502/502/502 505/505/505
f 505/505/505 496/496/496 503/503/503
f 506/506/506 476/476/476 503/503/503
f 504/504/504 506/506/506 503/503/503
f 474/474/474 476/476/476 506/506/506
f 500/500/500 507/507/507 501/501/501
f 501/501/501 507/507/507 505/505/505
f 507/507/507 500/500/500 508/508/508
f 505/505/505 507/507/507 508/508/508
f 496/496/496 508/508/508 500/500/500
f 505/505/505 508/508/508 496/496/496
f 509/509/509 474/474/474 506/506/506
f 509/509/509 506/506/506 504/504/504
f 496/496/496 510/510/510 504/504/504
f 493/493/493 510/510/510 496/496/496
f 493/493/493 511/511/511 510/510/510
f 511/511/511 504/504/504 510/510/510
f 511/511/511 493/493/493 512/512/512
f 504/504/504 511/511/511 512/512/512
f 494/494/494 512/512/512 493/493/493
f 504/504/504 512/512/512 494/494/494
f 504/504/504 494/494/494 509/509/509
f 509/509/509 513/513/513 474/474/474
f 513/513/513 497/497/497 474/474/474
f 514/514/514 513/513/513 509/509/509
f 509/509/509 494/494/494 514/514/514
f 513/513/513 514/514/514 497/497/497
f 494/494/494 515/515/515 514/514/514
f 498/498/498 515/515/515 494/494/494
f 514/514/514 516/516/516 497/497/497
f 516/516/516 498/498/498 497/497/497
f 515/515/515 517/517/517 514/514/514
f 498/498/498 517/517/517 515/515/515
f 517/517/517 516/516/516 514/514/514
f 517/517/517 498/498/498 516/516/516
f 520/520/520 519/519/519 518/518/518
f 519/519/519 521/521/521 518/518/518
f 521/521/521 519/519/519 522/522/522
f 522/522/522 519/519/519 520/520/520
f 521/521/521 522/522/522 523/523/523
f 518/518/518 521/521/521 523/523/523
f 522/522/522 520/520/520 524/524/524
f 522/522/522 524/524/524 523/523/523
f 520/520/520 518/518/518 525/525/525
f 520/520/520 525/525/525 524/524/524
f 526/526/526 518/518/518 523/523/523
f 518/518/518 526/526/526 525/525/525
f 526/526/526 523/523/523 527/527/527
f 526/526/526 527/527/527 525/525/525
f 523/523/523 524/524/524 528/528/528
f 523/523/523 528/528/528 527/527/527
f 527/527/527 529/529/529 525/525/525
f 525/525/525 529/529/529 524/524/524
f 524/524/524 530/530/530 528/528/528
f 529/529/529 530/530/530 524/524/524
f 528/528/528 531/531/531 527/527/527
f 530/530/530 531/531/531 528/528/528
f 529/529/529 531/531/531 530/530/530
f 531/531/531 529/529/529 527/527/527
f 534/534/534 533/533/533 532/532/532
f 532/532/532 535/535/535 534/534/534
f 536/536/536 535/535/535 532/532/532
f 532/532/532 533/533/533 536/536/536
f 537/537/537 535/535/535 536/536/536
f 534/534/534 535/535/535 537/537/537
f 536/536/536 533/533/533 538/538/538
f 538/538/538 537/537/537 536/536/536
f 533/533/533 534/534/534 539/539/539
f 533/533/533 539/539/539 538/538/538
f 534/534/534 540/540/540 539/539/539
f 540/540/540 534/534/534 537/537/537
f 539/539/539 540/540/540 541/541/541
f 538/538/538 539/539/539 541/541/541
f 542/542/542 540/540/540 537/537/537
f 540/540/540 542/542/542 541/541/541
f 537/537/537 538/538/538 543/543/543
f 543/543/543 542/542/542 537/537/537
f 544/544/544 538/538/538 541/541/541
f 538/538/538 544/544/544 543/543/543
f 542/542/542 543/543/543 545/545/545
f 545/545/545 541/541/541 542/542/542
f 544/544/544 541/541/541 545/545/545
f 545/545/545 543/543/543 544/544/544
f 548/548/548 547/547/547 546/546/546
f 548/548/548 549/549/549 547/547/547
f 547/547/547 550/550/550 546/546/546
f 550/550/550 547/547/547 549/549/549
f 551/551/551 548/548/548 546/546/546
f 549/549/549 548/548/548 551/551/551
f 551/551/551 546/546/546 552/552/552
f 550/550/550 552/552/552 546/546/546
f 551/551/551 553/553/553 549/549/549
f 553/553/553 551/551/551 552/552/552
f 554/554/554 550/550/550 549/549/549
f 553/553/553 554/554/554 549/549/549
f 555/555/555 550/550/550 554/554/554
f 550/550/550 555/555/555 552/552/552
f 556/556/556 554/554/554 553/553/553
f 556/556/556 555/555/555 554/554/554
f 553/553/553 552/552/552 557/557/557
f 557/557/557 556/556/556 553/553/553
f 556/556/556 558/558/558 555/555/555
f 557/557/557 558/558/558 556/556/556
f 552/552/552 559/559/559 557/557/557
f 555/555/555 559/559/559 552/552/552
f 558/558/558 557/557/557 559/559/559
f 555/555/555 558/558/558 559/559/559
f 562/562/562 561/561/561 560/560/560
f 560/560/560 561/561/561 563/563/563
f 564/564/564 561/561/561 562/562/562
f 563/563/563 561/561/561 564/564/564
f 565/565/565 564/564/564 562/562/562
f 563/563/563 564/564/564 565/565/565
f 562/562/562 560/560/560 566/566/566
f 566/566/566 565/565/565 562/562/562
f 560/560/560 563/563/563 567/567/567
f 560/560/560 567/567/567 566/566/566
f 568/568/568 563/563/563 565/565/565
f 563/563/563 568/568/568 567/567/567
f 569/569/569 565/565/565 566/566/566
f 566/566/566 567/567/567 569/569/569
f 569/569/569 567/567/567 568/568/568
f 568/568/568 565/565/565 569/569/569
f 572/572/572 571/571/571 570/570/570
f 570/570/570 571/571/571 573/573/573
f 574/574/574 571/571/571 572/572/572
f 573/573/573 571/571/571 574/574/574
f 575/575/575 574/574/574 572/572/572
f 573/573/573 574/574/574 575/575/575
f 572/572/572 570/570/570 576/576/576
f 576/576/576 575/575/575 572/572/572
f 577/577/577 570/570/570 573/573/573
f 570/570/570 577/577/577 576/576/576
f 578/578/578 573/573/573 575/575/575
f 578/578/578 577/577/577 573/573/573
f 579/579/579 575/575/575 576/576/576
f 576/576/576 577/577/577 579/579/579
f 579/579/579 577/577/577 578/578/578
f 578/578/578 575/575/575 579/579/579
