g Cube.001
v 6.461034 0.88373566 -7.7904043
v 6.5108852 0.7341814 -8.687729
v 6.54412 2.9442596 -8.920369
v 6.5108852 3.093814 -8.155981
v 6.5108852 0.7341814 -8.687729
v 7.374976 0.68433 -8.604644
v 7.3251247 2.8445568 -8.870518
v 6.54412 2.9442596 -8.920369
v 7.374976 0.68433 -8.604644
v 7.3417416 0.83388424 -7.773787
v 7.2918906 2.994111 -8.10613
v 7.3251247 2.8445568 -8.870518
v 7.3417416 0.83388424 -7.773787
v 6.461034 0.88373566 -7.7904043
v 6.5108852 3.093814 -8.155981
v 7.2918906 2.994111 -8.10613
v 7.3251247 2.8445568 -8.870518
v 7.2918906 2.994111 -8.10613
v 6.5108852 3.093814 -8.155981
v 6.54412 2.9442596 -8.920369
v -6.7163477 1.0499077 -7.7239356
v -7.28133 3.1602821 -8.172598
v -7.1650105 3.010728 -8.920369
v -6.600028 0.88373566 -8.604644
v -6.600028 0.88373566 -8.604644
v -7.1650105 3.010728 -8.920369
v -7.896164 2.6950026 -8.986837
v -7.4142666 0.6012449 -8.654495
v -7.4142666 0.6012449 -8.654495
v -7.896164 2.6950026 -8.986837
v -8.012484 2.8445568 -8.222449
v -7.547203 0.7507992 -7.8236384
v -7.547203 0.7507992 -7.8236384
v -8.012484 2.8445568 -8.222449
v -7.28133 3.1602821 -8.172598
v -6.7163477 1.0499077 -7.7239356
v -7.896164 2.6950026 -8.986837
v -7.1650105 3.010728 -8.920369
v -7.28133 3.1602821 -8.172598
v -8.012484 2.8445568 -8.222449
v 6.161926 1.0665245 5.220806
v 6.5275025 3.2267513 5.7027025
v 6.577354 3.0273457 6.450474
v 6.2450113 0.86711884 6.101514
v 6.2450113 0.86711884 6.101514
v 6.577354 3.0273457 6.450474
v 7.3417416 2.82794 6.350771
v 7.092485 0.70094776 5.9685764
v 7.092485 0.70094776 5.9685764
v 7.3417416 2.82794 6.350771
v 7.2752733 3.0273457 5.586383
v 7.0426335 0.90035343 5.154338
v 7.0426335 0.90035343 5.154338
v 7.2752733 3.0273457 5.586383
v 6.5275025 3.2267513 5.7027025
v 6.161926 1.0665245 5.220806
v 7.3417416 2.82794 6.350771
v 6.577354 3.0273457 6.450474
v 6.5275025 3.2267513 5.7027025
v 7.2752733 3.0273457 5.586383
v -6.6332617 0.95020485 4.905081
v -6.5834103 0.850502 5.752554
v -6.766199 3.0439625 5.9685764
v -6.8160505 3.1769 5.2041893
v -6.5834103 0.850502 5.752554
v -7.4475 0.7175646 5.7691717
v -7.547203 2.8777914 6.001811
v -6.766199 3.0439625 5.9685764
v -7.4475 0.7175646 5.7691717
v -7.4973526 0.850502 4.9216976
v -7.5970554 3.0273457 5.220806
v -7.547203 2.8777914 6.001811
v -7.4973526 0.850502 4.9216976
v -6.6332617 0.95020485 4.905081
v -6.8160505 3.1769 5.2041893
v -7.5970554 3.0273457 5.220806
v -7.547203 2.8777914 6.001811
v -7.5970554 3.0273457 5.220806
v -6.8160505 3.1769 5.2041893
v -6.766199 3.0439625 5.9685764
vt 0.21797734 0.031776037
vt 0.21797734 0.031776037
vt 0.21797734 0.031776037
vt 0.21797734 0.031776037
vt 0.21797734 0.031776037
vt 0.21797734 0.031776037
vt 0.21797734 0.031776037
vt 0.21797734 0.031776037
vt 0.21797734 0.031776037
vt 0.21797734 0.031776037
vt 0.21797734 0.031776037
vt 0.21797734 0.031776037
vt 0.21797734 0.031776037
vt 0.21797734 0.031776037
vt 0.21797734 0.031776037
vt 0.21797734 0.031776037
vt 0.21797734 0.031776037
vt 0.21797734 0.031776037
vt 0.21797734 0.031776037
vt 0.21797734 0.031776037
vt 0.21797734 0.031776037
vt 0.21797734 0.031776037
vt 0.21797734 0.031776037
vt 0.21797734 0.031776037
vt 0.21797734 0.031776037
vt 0.21797734 0.031776037
vt 0.21797734 0.031776037
vt 0.21797734 0.031776037
vt 0.21797734 0.031776037
vt 0.21797734 0.031776037
vt 0.21797734 0.031776037
vt 0.21797734 0.031776037
vt 0.21797734 0.031776037
vt 0.21797734 0.031776037
vt 0.21797734 0.031776037
vt 0.21797734 0.031776037
vt 0.21797734 0.031776037
vt 0.21797734 0.031776037
vt 0.21797734 0.031776037
vt 0.21797734 0.031776037
vt 0.21797734 0.031776037
vt 0.21797734 0.031776037
vt 0.21797734 0.031776037
vt 0.21797734 0.031776037
vt 0.21797734 0.031776037
vt 0.21797734 0.031776037
vt 0.21797734 0.031776037
vt 0.21797734 0.031776037
vt 0.21797734 0.031776037
vt 0.21797734 0.031776037
vt 0.21797734 0.031776037
vt 0.21797734 0.031776037
vt 0.21797734 0.031776037
vt 0.21797734 0.031776037
vt 0.21797734 0.031776037
vt 0.21797734 0.031776037
vt 0.21797734 0.031776037
vt 0.21797734 0.031776037
vt 0.21797734 0.031776037
vt 0.21797734 0.031776037
vt 0.21797734 0.031776037
vt 0.21797734 0.031776037
vt 0.21797734 0.031776037
vt 0.21797734 0.031776037
vt 0.21797734 0.031776037
vt 0.21797734 0.031776037
vt 0.21797734 0.031776037
vt 0.21797734 0.031776037
vt 0.21797734 0.031776037
vt 0.21797734 0.031776037
vt 0.21797734 0.031776037
vt 0.21797734 0.031776037
vt 0.21797734 0.031776037
vt 0.21797734 0.031776037
vt 0.21797734 0.031776037
vt 0.21797734 0.031776037
vt 0.21797734 0.031776037
vt 0.21797734 0.031776037
vt 0.21797734 0.031776037
vt 0.21797734 0.031776037
vn -0.9983207 0.015635967 -0.05577919
vn -0.9983207 0.015635967 -0.05577919
vn -0.9983207 0.015635967 -0.05577919
vn -0.9983207 0.015635967 -0.05577919
vn 0.07946259 -0.111162126 -0.9906204
vn 0.07946259 -0.111162126 -0.9906204
vn 0.07946259 -0.111162126 -0.9906204
vn 0.07946259 -0.111162126 -0.9906204
vn 0.9987484 0.047335386 0.01615451
vn 0.9987484 0.047335386 0.01615451
vn 0.9987484 0.047335386 0.01615451
vn 0.9987484 0.047335386 0.01615451
vn -0.047335386 0.142434 0.9886718
vn -0.047335386 0.142434 0.9886718
vn -0.047335386 0.142434 0.9886718
vn -0.047335386 0.142434 0.9886718
vn 0.14286166 0.9666213 -0.2126825
vn 0.14286166 0.9666213 -0.2126825
vn 0.14286166 0.9666213 -0.2126825
vn 0.14286166 0.9666213 -0.2126825
vn 0.9633617 0.2682055 -0
vn 0.9633617 0.2682055 -0
vn 0.9633617 0.2682055 -0
vn 0.9633617 0.2682055 -0
vn 0.111162126 -0.111162126 -0.9875657
vn 0.111162126 -0.111162126 -0.9875657
vn 0.111162126 -0.111162126 -0.9875657
vn 0.111162126 -0.111162126 -0.9875657
vn -0.9666213 -0.23796016 -0.094964586
vn -0.9666213 -0.23796016 -0.094964586
vn -0.9666213 -0.23796016 -0.094964586
vn -0.9666213 -0.23796016 -0.094964586
vn -0.142434 0.142434 0.9795025
vn -0.142434 0.142434 0.9795025
vn -0.142434 0.142434 0.9795025
vn -0.142434 0.142434 0.9795025
vn -0.36433053 0.9032222 -0.22683239
vn -0.36433053 0.9032222 -0.22683239
vn -0.36433053 0.9032222 -0.22683239
vn -0.36433053 0.9032222 -0.22683239
vn -0.989975 0.14124328 -0
vn -0.989975 0.14124328 -0
vn -0.989975 0.14124328 -0
vn -0.989975 0.14124328 -0
vn 0.111162126 -0.17456114 0.9783514
vn 0.111162126 -0.17456114 0.9783514
vn 0.111162126 -0.17456114 0.9783514
vn 0.111162126 -0.17456114 0.9783514
vn 0.993863 -0.11061837 -0
vn 0.993863 -0.11061837 -0
vn 0.993863 -0.11061837 -0
vn 0.993863 -0.11061837 -0
vn -0.047335386 0.20583296 -0.9774416
vn -0.047335386 0.20583296 -0.9774416
vn -0.047335386 0.20583296 -0.9774416
vn -0.047335386 0.20583296 -0.9774416
vn 0.2696597 0.93492174 0.23066199
vn 0.2696597 0.93492174 0.23066199
vn 0.2696597 0.93492174 0.23066199
vn 0.2696597 0.93492174 0.23066199
vn 0.9968835 0.07888735 -0
vn 0.9968835 0.07888735 -0
vn 0.9968835 0.07888735 -0
vn 0.9968835 0.07888735 -0
vn 0.04776311 -0.111162126 0.99265385
vn 0.04776311 -0.111162126 0.99265385
vn 0.04776311 -0.111162126 0.99265385
vn 0.04776311 -0.111162126 0.99265385
vn -0.9983207 -0.04776311 0.03277936
vn -0.9983207 -0.04776311 0.03277936
vn -0.9983207 -0.04776311 0.03277936
vn -0.9983207 -0.04776311 0.03277936
vn -0.047335386 0.142434 -0.9886718
vn -0.047335386 0.142434 -0.9886718
vn -0.047335386 0.142434 -0.9886718
vn -0.047335386 0.142434 -0.9886718
vn -0.20583296 0.9666213 0.15256503
vn -0.20583296 0.9666213 0.15256503
vn -0.20583296 0.9666213 0.15256503
vn -0.20583296 0.9666213 0.15256503
g Cube.001_0
f 3/3/3 2/2/2 1/1/1
f 4/4/4 3/3/3 1/1/1
f 7/7/7 6/6/6 5/5/5
f 8/8/8 7/7/7 5/5/5
f 11/11/11 10/10/10 9/9/9
f 12/12/12 11/11/11 9/9/9
f 15/15/15 14/14/14 13/13/13
f 16/16/16 15/15/15 13/13/13
f 19/19/19 18/18/18 17/17/17
f 20/20/20 19/19/19 17/17/17
f 23/23/23 22/22/22 21/21/21
f 24/24/24 23/23/23 21/21/21
f 27/27/27 26/26/26 25/25/25
f 28/28/28 27/27/27 25/25/25
f 31/31/31 30/30/30 29/29/29
f 32/32/32 31/31/31 29/29/29
f 35/35/35 34/34/34 33/33/33
f 36/36/36 35/35/35 33/33/33
f 39/39/39 38/38/38 37/37/37
f 40/40/40 39/39/39 37/37/37
f 43/43/43 42/42/42 41/41/41
f 44/44/44 43/43/43 41/41/41
f 47/47/47 46/46/46 45/45/45
f 48/48/48 47/47/47 45/45/45
f 51/51/51 50/50/50 49/49/49
f 52/52/52 51/51/51 49/49/49
f 55/55/55 54/54/54 53/53/53
f 56/56/56 55/55/55 53/53/53
f 59/59/59 58/58/58 57/57/57
f 60/60/60 59/59/59 57/57/57
f 63/63/63 62/62/62 61/61/61
f 64/64/64 63/63/63 61/61/61
f 67/67/67 66/66/66 65/65/65
f 68/68/68 67/67/67 65/65/65
f 71/71/71 70/70/70 69/69/69
f 72/72/72 71/71/71 69/69/69
f 75/75/75 74/74/74 73/73/73
f 76/76/76 75/75/75 73/73/73
f 79/79/79 78/78/78 77/77/77
f 80/80/80 79/79/79 77/77/77
