g deco_CoffeeSign
v -3.838869 -0.66031975 5.0839014
v -4.958849 -0.6603195 4.6425934
v -3.8619213 -0.66031975 5.0539417
v -2.7990913 -1.3458997 8.009824
v -2.7990913 -0.6603202 8.009824
v -2.2197018 -0.6603203 8.006317
v -2.2197018 -1.3458997 8.006317
v -1.7033253 -0.6603201 7.0192695
v -1.7033253 -1.3458997 7.019269
v -1.8380909 -0.6603199 5.881487
v -1.8380909 -1.3458995 5.881487
v -2.8167725 -0.66031975 5.1309505
v -2.8167725 -1.3458993 5.1309505
v -3.838869 -0.66031975 5.0839014
v -3.838869 -1.3458992 5.0839014
v -8.059628 -1.3458995 8.207607
v -2.7669525 -1.3458997 8.207607
v -2.7990913 -1.3458997 8.009824
v -2.856079 -1.3458997 7.6591434
v -2.2197018 -1.3458997 8.006317
v -7.703125 -1.3458992 6.013753
v -2.39674 -1.3458997 7.6591434
v -1.7033253 -1.3458997 7.019269
v -2.0310993 -1.3458997 6.836448
v -1.8380909 -1.3458995 5.881487
v -2.165863 -1.3458995 6.110014
v -2.8167725 -1.3458993 5.1309505
v -2.905859 -1.3458995 5.529463
v -3.1234531 -1.3458995 6.013753
v -3.838869 -1.3458992 5.0839014
v -3.52598 -1.3458993 5.490574
v -6.9646587 -1.3458991 5.0539412
v -5.867731 -1.3458991 4.6425934
v -4.958849 -1.3458992 4.6425934
v -3.8619213 -1.3458992 5.0539412
v -7.7325077 -1.345899 4.6425934
v -3.0940742 -1.3458992 4.6425934
v -7.7325077 -1.345899 4.2312455
v -3.0940742 -1.3458992 4.2312455
v -7.7325077 -0.6603193 4.2312455
v -7.7325077 -1.345899 4.2312455
v -3.0940742 -1.3458992 4.2312455
v -3.0940742 -0.6603196 4.2312455
v -2.7669525 -0.6603203 8.207607
v -2.7669525 -1.3458997 8.207607
v -8.059628 -1.3458995 8.207607
v -8.059628 -0.66031986 8.207607
v -5.867731 -0.66031945 4.6425934
v -5.867731 -1.3458991 4.6425934
v -7.7325077 -1.345899 4.6425934
v -7.7325077 -0.6603193 4.6425934
v -3.0940742 -0.6603196 4.6425934
v -3.0940742 -1.3458992 4.6425934
v -4.958849 -1.3458992 4.6425934
v -4.958849 -0.6603195 4.6425934
v -6.9646587 -0.66031945 5.0539417
v -6.9646587 -1.3458991 5.0539412
v -5.867731 -1.3458991 4.6425934
v -5.867731 -0.66031945 4.6425934
v -4.958849 -0.6603195 4.6425934
v -4.958849 -1.3458992 4.6425934
v -3.8619213 -1.3458992 5.0539412
v -3.8619213 -0.66031975 5.0539417
v -7.703125 -0.6603196 6.013753
v -7.703125 -1.3458992 6.013753
v -6.9646587 -1.3458991 5.0539412
v -6.9646587 -0.66031945 5.0539417
v -3.838869 -1.3458992 5.0839014
v -3.838869 -0.66031975 5.0839014
v -3.8619213 -0.66031975 5.0539417
v -3.8619213 -1.3458992 5.0539412
v -3.52598 -0.6603198 5.4905744
v -3.52598 -1.3458993 5.490574
v -3.1234531 -1.3458995 6.013753
v -3.1234531 -0.66031986 6.013753
v -8.059628 -0.66031986 8.207607
v -8.059628 -1.3458995 8.207607
v -7.703125 -1.3458992 6.013753
v -7.703125 -0.6603196 6.013753
v -2.7990913 -0.6603202 8.009824
v -2.7990913 -1.3458997 8.009824
v -2.7669525 -1.3458997 8.207607
v -2.7669525 -0.6603203 8.207607
v -2.856079 -0.6603201 7.6591434
v -3.1234531 -0.66031986 6.013753
v -3.1234531 -1.3458995 6.013753
v -2.856079 -1.3458997 7.6591434
v -7.7325077 -0.6603193 4.6425934
v -7.7325077 -1.345899 4.6425934
v -7.7325077 -1.345899 4.2312455
v -7.7325077 -0.6603193 4.2312455
v -3.0940742 -0.6603196 4.2312455
v -3.0940742 -1.3458992 4.2312455
v -3.0940742 -1.3458992 4.6425934
v -3.0940742 -0.6603196 4.6425934
v -3.52598 -1.3458993 5.490574
v -3.52598 -0.6603198 5.4905744
v -2.905859 -0.6603198 5.529463
v -2.905859 -1.3458995 5.529463
v -2.165863 -0.66032 6.110014
v -2.165863 -1.3458995 6.110014
v -2.0310993 -0.6603201 6.836448
v -2.0310993 -1.3458997 6.836448
v -2.39674 -0.6603201 7.6591434
v -2.39674 -1.3458997 7.6591434
v -2.856079 -1.3458997 7.6591434
v -2.856079 -0.6603201 7.6591434
vt 0.5309403 0.03203565
vt 0.5309403 0.03203565
vt 0.5309403 0.03203565
vt 0.5309403 0.03203565
vt 0.5309403 0.03203565
vt 0.5309403 0.03203565
vt 0.5309403 0.03203565
vt 0.5309403 0.03203565
vt 0.5309403 0.03203565
vt 0.5309403 0.03203565
vt 0.5309403 0.03203565
vt 0.5309403 0.03203565
vt 0.5309403 0.03203565
vt 0.5309403 0.03203565
vt 0.5309403 0.03203565
vt 0.5309403 0.03203565
vt 0.5309403 0.03203565
vt 0.5309403 0.03203565
vt 0.53094035 0.032035656
vt 0.5309403 0.03203565
vt 0.5309403 0.03203565
vt 0.5309403 0.03203565
vt 0.5309403 0.03203565
vt 0.5309403 0.03203565
vt 0.5309403 0.03203565
vt 0.5309403 0.03203565
vt 0.5309403 0.03203565
vt 0.5309403 0.03203565
vt 0.5309403 0.03203565
vt 0.53094023 0.032035645
vt 0.5309403 0.03203565
vt 0.5309403 0.03203565
vt 0.5309403 0.03203565
vt 0.5309403 0.03203565
vt 0.5309403 0.03203565
vt 0.5309403 0.03203565
vt 0.5309403 0.03203565
vt 0.5309403 0.03203565
vt 0.5309403 0.03203565
vt 0.5309403 0.03203565
vt 0.5309403 0.03203565
vt 0.5309403 0.03203565
vt 0.5309403 0.03203565
vt 0.5309403 0.03203565
vt 0.5309403 0.03203565
vt 0.5309403 0.03203565
vt 0.5309403 0.03203565
vt 0.5309403 0.03203565
vt 0.5309403 0.03203565
vt 0.5309403 0.03203565
vt 0.5309403 0.03203565
vt 0.5309403 0.03203565
vt 0.5309403 0.03203565
vt 0.5309403 0.03203565
vt 0.5309403 0.03203565
vt 0.5309403 0.03203565
vt 0.5309403 0.03203565
vt 0.5309403 0.03203565
vt 0.5309403 0.03203565
vt 0.5309403 0.03203565
vt 0.5309403 0.03203565
vt 0.5309403 0.03203565
vt 0.5309403 0.03203565
vt 0.5309403 0.03203565
vt 0.5309403 0.03203565
vt 0.5309403 0.03203565
vt 0.5309403 0.03203565
vt 0.5309403 0.03203565
vt 0.5309403 0.03203565
vt 0.5309403 0.03203565
vt 0.5309403 0.03203565
vt 0.5309403 0.03203565
vt 0.5309403 0.03203565
vt 0.5309403 0.03203565
vt 0.5309403 0.03203565
vt 0.5309403 0.03203565
vt 0.5309403 0.03203565
vt 0.5309403 0.03203565
vt 0.5309403 0.03203565
vt 0.5309403 0.03203565
vt 0.5309403 0.03203565
vt 0.5309403 0.03203565
vt 0.5309403 0.03203565
vt 0.5309403 0.03203565
vt 0.5309403 0.03203565
vt 0.5309403 0.03203565
vt 0.5309403 0.03203565
vt 0.5309403 0.03203565
vt 0.5309403 0.03203565
vt 0.5309403 0.03203565
vt 0.5309403 0.03203565
vt 0.5309403 0.03203565
vt 0.5309403 0.03203565
vt 0.5309403 0.03203565
vt 0.5309403 0.03203565
vt 0.5309403 0.03203565
vt 0.5309403 0.03203565
vt 0.5309403 0.03203565
vt 0.5309403 0.03203565
vt 0.5309403 0.03203565
vt 0.5309403 0.03203565
vt 0.5309403 0.03203565
vt 0.5309403 0.03203565
vt 0.5309403 0.03203565
vt 0.5309403 0.03203565
vt 0.5309403 0.03203565
vt 0.5309403 0.03203565
vn -0 1 0
vn -0 1 0
vn -0 1 0
vn 0.0060513234 0 0.99998176
vn 0.0060513234 0 0.99998176
vn 0.5204904 0 0.85386753
vn 0.52049035 0 0.85386753
vn 0.98347455 0 0.18104658
vn 0.98347455 0 0.18104635
vn 0.8691891 0 -0.49447984
vn 0.86918914 0 -0.49447984
vn 0.34300095 0 -0.9393351
vn 0.34300098 0 -0.9393351
vn 0.04598305 0 -0.9989422
vn 0.04598305 0 -0.9989422
vn -0 -1 0
vn -0 -1 0
vn -0 -1 0
vn -0 -1 0
vn -0 -1 0
vn -0 -1 0
vn -0 -1 0
vn -0 -1 0
vn -0 -1 0
vn -0 -1 0
vn -0 -1 0
vn -0 -1 0
vn -0 -1 0
vn -0 -1 0
vn -0 -1 0
vn -0 -1 0
vn -0 -1 0
vn -0 -1 0
vn -0 -1 0
vn -0 -1 1.0196903E-05
vn -0 -1 0
vn -0 -1 0
vn -0 -1 0
vn -0 -1 0
vn -0 0 -1
vn -0 0 -1
vn -0 0 -1
vn -0 0 -1
vn -0 0 1
vn -0 0 1
vn -0 0 1
vn -0 0 1
vn -0 0 1
vn -0 0 1
vn -0 0 1
vn -0 0 1
vn -0 0 1
vn -0 0 1
vn -0 0 1
vn -0 0 1
vn -0.35112405 0 -0.936329
vn -0.35112405 0 -0.936329
vn -0.35112405 0 -0.936329
vn -0.35112405 0 -0.936329
vn 0.35112402 0 -0.936329
vn 0.35112402 0 -0.936329
vn 0.35112402 0 -0.936329
vn 0.35112402 0 -0.936329
vn -0.79256403 0 -0.60978854
vn -0.79256403 0 -0.60978854
vn -0.79256403 0 -0.60978854
vn -0.79256403 0 -0.60978854
vn 0.7925436 0 -0.60981524
vn 0.7925436 0 -0.60981524
vn 0.7925436 0 -0.60981524
vn 0.7925436 0 -0.60981524
vn 0.79256433 0 -0.60978836
vn 0.79256433 0 -0.60978836
vn 0.79256433 0 -0.60978836
vn 0.79256433 0 -0.60978836
vn -0.9870526 0 -0.16039656
vn -0.9870526 0 -0.16039656
vn -0.9870526 0 -0.16039656
vn -0.9870526 0 -0.16039656
vn 0.9870536 0 -0.16039127
vn 0.9870536 0 -0.16039127
vn 0.9870536 0 -0.16039127
vn 0.9870536 0 -0.16039127
vn 0.987053 0 -0.1603949
vn 0.987053 0 -0.1603949
vn 0.987053 0 -0.1603949
vn 0.987053 0 -0.1603949
vn -1 0 0
vn -1 0 0
vn -1 0 0
vn -1 0 0
vn 1 0 0
vn 1 0 0
vn 1 0 0
vn 1 0 0
vn -0.06258875 0 0.9980394
vn -0.06258875 0 0.9980394
vn -0.3559532 0 0.9345038
vn -0.35595325 0 0.9345038
vn -0.8553898 0 0.5179849
vn -0.85538983 0 0.51798475
vn -0.99311686 0 -0.11712733
vn -0.99311686 0 -0.117127396
vn -0.5449144 0 -0.8384917
vn -0.5449144 0 -0.8384917
vn -0 0 -1
vn -0 0 -1
g deco_CoffeeSign_0
f 3/3/3 2/2/2 1/1/1
f 6/6/6 5/5/5 4/4/4
f 7/7/7 6/6/6 4/4/4
f 6/6/6 7/7/7 8/8/8
f 7/7/7 9/9/9 8/8/8
f 8/8/8 9/9/9 10/10/10
f 9/9/9 11/11/11 10/10/10
f 10/10/10 11/11/11 12/12/12
f 11/11/11 13/13/13 12/12/12
f 12/12/12 13/13/13 14/14/14
f 13/13/13 15/15/15 14/14/14
f 18/18/18 17/17/17 16/16/16
f 19/19/19 18/18/18 16/16/16
f 20/20/20 18/18/18 19/19/19
f 19/19/19 16/16/16 21/21/21
f 22/22/22 20/20/20 19/19/19
f 23/23/23 20/20/20 22/22/22
f 24/24/24 23/23/23 22/22/22
f 25/25/25 23/23/23 24/24/24
f 26/26/26 25/25/25 24/24/24
f 27/27/27 25/25/25 26/26/26
f 28/28/28 27/27/27 26/26/26
f 29/29/29 19/19/19 21/21/21
f 30/30/30 27/27/27 28/28/28
f 31/31/31 29/29/29 21/21/21
f 31/31/31 30/30/30 28/28/28
f 30/30/30 31/31/31 21/21/21
f 30/30/30 21/21/21 32/32/32
f 30/30/30 32/32/32 33/33/33
f 33/33/33 34/34/34 30/30/30
f 34/34/34 35/35/35 30/30/30
f 34/34/34 33/33/33 36/36/36
f 37/37/37 34/34/34 36/36/36
f 37/37/37 36/36/36 38/38/38
f 38/38/38 39/39/39 37/37/37
f 42/42/42 41/41/41 40/40/40
f 43/43/43 42/42/42 40/40/40
f 46/46/46 45/45/45 44/44/44
f 47/47/47 46/46/46 44/44/44
f 50/50/50 49/49/49 48/48/48
f 51/51/51 50/50/50 48/48/48
f 54/54/54 53/53/53 52/52/52
f 55/55/55 54/54/54 52/52/52
f 58/58/58 57/57/57 56/56/56
f 59/59/59 58/58/58 56/56/56
f 62/62/62 61/61/61 60/60/60
f 63/63/63 62/62/62 60/60/60
f 66/66/66 65/65/65 64/64/64
f 67/67/67 66/66/66 64/64/64
f 70/70/70 69/69/69 68/68/68
f 71/71/71 70/70/70 68/68/68
f 74/74/74 73/73/73 72/72/72
f 75/75/75 74/74/74 72/72/72
f 78/78/78 77/77/77 76/76/76
f 79/79/79 78/78/78 76/76/76
f 82/82/82 81/81/81 80/80/80
f 83/83/83 82/82/82 80/80/80
f 86/86/86 85/85/85 84/84/84
f 87/87/87 86/86/86 84/84/84
f 90/90/90 89/89/89 88/88/88
f 91/91/91 90/90/90 88/88/88
f 94/94/94 93/93/93 92/92/92
f 95/95/95 94/94/94 92/92/92
f 98/98/98 97/97/97 96/96/96
f 99/99/99 98/98/98 96/96/96
f 98/98/98 99/99/99 100/100/100
f 99/99/99 101/101/101 100/100/100
f 100/100/100 101/101/101 102/102/102
f 101/101/101 103/103/103 102/102/102
f 102/102/102 103/103/103 104/104/104
f 103/103/103 105/105/105 104/104/104
f 105/105/105 106/106/106 104/104/104
f 106/106/106 107/107/107 104/104/104
