g deskLamp
v -0 0.45 -0.05
v 0.31819803 0.31819803 -0.05
v 0.31819803 0.31819803 0.05
v -0 0.45 0.05
v 0.31819803 0.31819803 -0.05
v 0.45 -1.9670125E-08 -0.05
v 0.45 -1.9670125E-08 0.05
v 0.31819803 0.31819803 0.05
v 0.45 -1.9670125E-08 -0.05
v 0.31819803 -0.31819803 -0.05
v 0.31819803 -0.31819803 0.05
v 0.45 -1.9670125E-08 0.05
v 0.31819803 -0.31819803 -0.05
v -3.934025E-08 -0.45 -0.05
v -3.934025E-08 -0.45 0.05
v 0.31819803 -0.31819803 0.05
v -3.934025E-08 -0.45 -0.05
v -0.31819803 -0.31819806 -0.05
v -0.31819803 -0.31819806 0.05
v -3.934025E-08 -0.45 0.05
v -0.31819803 -0.31819806 -0.05
v -0.45 5.366196E-09 -0.05
v -0.45 5.366196E-09 0.05
v -0.31819803 -0.31819806 0.05
v 0.31819803 0.31819803 0.05
v 0.45 -1.9670125E-08 0.05
v 0.31819803 -0.31819803 0.05
v -0 0.45 0.05
v -3.934025E-08 -0.45 0.05
v -0.31819808 0.31819803 0.05
v -0.31819803 -0.31819806 0.05
v -0.45 5.366196E-09 0.05
v -0.45 5.366196E-09 -0.05
v -0.31819808 0.31819803 -0.05
v -0.31819808 0.31819803 0.05
v -0.45 5.366196E-09 0.05
v -0.31819808 0.31819803 -0.05
v -0 0.45 -0.05
v -0 0.45 0.05
v -0.31819808 0.31819803 0.05
v 0.31819803 -0.31819803 -0.05
v 0.45 -1.9670125E-08 -0.05
v 0.31819803 0.31819803 -0.05
v -3.934025E-08 -0.45 -0.05
v -0 0.45 -0.05
v -0.31819808 0.31819803 -0.05
v -0.31819803 -0.31819806 -0.05
v -0.45 5.366196E-09 -0.05
v 0.08084119 0.13442516 2.0739598
v 0.08084123 -0.13443035 2.0739598
v 1.5191624 -0.13443013 2.0739598
v 1.5191623 0.13442534 2.0739598
v 0.080841064 0.13442516 0.05000004
v 0.0808411 -0.13443035 0.05000004
v 0.08084123 -0.13443035 2.0739598
v 0.08084119 0.13442516 2.0739598
v -0.08083628 0.1344251 2.2260401
v 1.5191631 0.13442534 2.2260401
v 1.5191631 -0.13443013 2.2260401
v -0.08083624 -0.13443038 2.2260401
v -0.080836415 0.1344251 0.049999934
v -0.08083628 0.1344251 2.2260401
v -0.08083624 -0.13443038 2.2260401
v -0.080836385 -0.13443038 0.049999934
v 1.5191623 0.13442534 2.0739598
v 1.5191624 -0.13443013 2.0739598
v 1.5191631 -0.13443013 2.2260401
v 1.5191631 0.13442534 2.2260401
v 0.08084123 -0.13443035 2.0739598
v 0.0808411 -0.13443035 0.05000004
v -0.080836385 -0.13443038 0.049999934
v -0.08083624 -0.13443038 2.2260401
v 1.5191624 -0.13443013 2.0739598
v 1.5191631 -0.13443013 2.2260401
v 0.080841064 0.13442516 0.05000004
v -0.08083628 0.1344251 2.2260401
v -0.080836415 0.1344251 0.049999934
v 0.08084119 0.13442516 2.0739598
v 1.5191631 0.13442534 2.2260401
v 1.5191623 0.13442534 2.0739598
vt 0.7802589 0.026703238
vt 0.7802589 0.026703238
vt 0.7802589 0.026703238
vt 0.7802589 0.026703238
vt 0.7802589 0.026703238
vt 0.7802589 0.026703238
vt 0.7802589 0.026703238
vt 0.7802589 0.026703238
vt 0.7802589 0.026703238
vt 0.7802589 0.026703238
vt 0.7802589 0.026703238
vt 0.7802589 0.026703238
vt 0.7802589 0.026703238
vt 0.7802589 0.026703238
vt 0.7802589 0.026703238
vt 0.7802589 0.026703238
vt 0.7802589 0.026703238
vt 0.7802589 0.026703238
vt 0.7802589 0.026703238
vt 0.7802589 0.026703238
vt 0.7802589 0.026703238
vt 0.7802589 0.026703238
vt 0.7802589 0.026703238
vt 0.7802589 0.026703238
vt 0.7802589 0.026703238
vt 0.7802589 0.026703238
vt 0.7802589 0.026703238
vt 0.7802589 0.026703238
vt 0.7802589 0.026703238
vt 0.7802589 0.026703238
vt 0.7802589 0.026703238
vt 0.7802589 0.026703238
vt 0.7802589 0.026703238
vt 0.7802589 0.026703238
vt 0.7802589 0.026703238
vt 0.7802589 0.026703238
vt 0.7802589 0.026703238
vt 0.7802589 0.026703238
vt 0.7802589 0.026703238
vt 0.7802589 0.026703238
vt 0.7802589 0.026703238
vt 0.7802589 0.026703238
vt 0.7802589 0.026703238
vt 0.7802589 0.026703238
vt 0.7802589 0.026703238
vt 0.7802589 0.026703238
vt 0.7802589 0.026703238
vt 0.7802589 0.026703238
vt 0.7802589 0.026703238
vt 0.7802589 0.026703238
vt 0.7802589 0.026703238
vt 0.7802589 0.026703238
vt 0.7802589 0.026703238
vt 0.7802589 0.026703238
vt 0.7802589 0.026703238
vt 0.7802589 0.026703238
vt 0.7802589 0.026703238
vt 0.7802589 0.026703238
vt 0.7802589 0.026703238
vt 0.7802589 0.026703238
vt 0.7802589 0.026703238
vt 0.7802589 0.026703238
vt 0.7802589 0.026703238
vt 0.7802589 0.026703238
vt 0.7802589 0.026703238
vt 0.7802589 0.026703238
vt 0.7802589 0.026703238
vt 0.7802589 0.026703238
vt 0.7802589 0.026703238
vt 0.7802589 0.026703238
vt 0.7802589 0.026703238
vt 0.7802589 0.026703238
vt 0.7802589 0.026703238
vt 0.7802589 0.026703238
vt 0.7802589 0.026703238
vt 0.7802589 0.026703238
vt 0.7802589 0.026703238
vt 0.7802589 0.026703238
vt 0.7802589 0.026703238
vt 0.7802589 0.026703238
vn 0.38268352 0.9238795 0
vn 0.38268352 0.9238795 0
vn 0.38268352 0.9238795 0
vn 0.38268352 0.9238795 0
vn 0.9238795 0.38268346 0
vn 0.9238795 0.38268346 0
vn 0.9238795 0.38268346 0
vn 0.9238795 0.38268346 0
vn 0.9238795 -0.38268352 0
vn 0.9238795 -0.38268352 0
vn 0.9238795 -0.38268352 0
vn 0.9238795 -0.38268352 0
vn 0.38268346 -0.9238795 0
vn 0.38268346 -0.9238795 0
vn 0.38268346 -0.9238795 0
vn 0.38268346 -0.9238795 0
vn -0.3826835 -0.9238795 0
vn -0.3826835 -0.9238795 0
vn -0.3826835 -0.9238795 0
vn -0.3826835 -0.9238795 0
vn -0.9238795 -0.38268346 0
vn -0.9238795 -0.38268346 0
vn -0.9238795 -0.38268346 0
vn -0.9238795 -0.38268346 0
vn -0 0 1
vn -0 0 1
vn -0 0 1
vn -0 0 1
vn -0 0 1
vn -0 0 1
vn -0 0 1
vn -0 0 1
vn -0.9238795 0.38268328 0
vn -0.9238795 0.38268328 0
vn -0.9238795 0.38268328 0
vn -0.9238795 0.38268328 0
vn -0.3826834 0.9238795 0
vn -0.3826834 0.9238795 0
vn -0.3826834 0.9238795 0
vn -0.3826834 0.9238795 0
vn -0 0 -1
vn -0 0 -1
vn -0 0 -1
vn -0 0 -1
vn -0 0 -1
vn -0 0 -1
vn -0 0 -1
vn -0 0 -1
vn -0 0 -1
vn -0 0 -1
vn -0 0 -1
vn -0 0 -1
vn 1 0 0
vn 1 0 0
vn 1 0 0
vn 1 0 0
vn -0 0 1
vn -0 0 1
vn -0 0 1
vn -0 0 1
vn -1 0 0
vn -1 0 0
vn -1 0 0
vn -1 0 0
vn 1 0 0
vn 1 0 0
vn 1 0 0
vn 1 0 0
vn -0 -1 0
vn -0 -1 0
vn -0 -1 0
vn -0 -1 0
vn -0 -1 0
vn -0 -1 0
vn -0 1 0
vn -0 1 0
vn -0 1 0
vn -0 1 0
vn -0 1 0
vn -0 1 0
g deskLamp_0
f 3/3/3 2/2/2 1/1/1
f 4/4/4 3/3/3 1/1/1
f 7/7/7 6/6/6 5/5/5
f 8/8/8 7/7/7 5/5/5
f 11/11/11 10/10/10 9/9/9
f 12/12/12 11/11/11 9/9/9
f 15/15/15 14/14/14 13/13/13
f 16/16/16 15/15/15 13/13/13
f 19/19/19 18/18/18 17/17/17
f 20/20/20 19/19/19 17/17/17
f 23/23/23 22/22/22 21/21/21
f 24/24/24 23/23/23 21/21/21
f 27/27/27 26/26/26 25/25/25
f 25/25/25 28/28/28 27/27/27
f 28/28/28 29/29/29 27/27/27
f 28/28/28 30/30/30 29/29/29
f 30/30/30 31/31/31 29/29/29
f 30/30/30 32/32/32 31/31/31
f 35/35/35 34/34/34 33/33/33
f 36/36/36 35/35/35 33/33/33
f 39/39/39 38/38/38 37/37/37
f 40/40/40 39/39/39 37/37/37
f 43/43/43 42/42/42 41/41/41
f 41/41/41 44/44/44 43/43/43
f 44/44/44 45/45/45 43/43/43
f 44/44/44 46/46/46 45/45/45
f 44/44/44 47/47/47 46/46/46
f 47/47/47 48/48/48 46/46/46
f 51/51/51 50/50/50 49/49/49
f 52/52/52 51/51/51 49/49/49
f 55/55/55 54/54/54 53/53/53
f 56/56/56 55/55/55 53/53/53
f 59/59/59 58/58/58 57/57/57
f 60/60/60 59/59/59 57/57/57
f 63/63/63 62/62/62 61/61/61
f 64/64/64 63/63/63 61/61/61
f 67/67/67 66/66/66 65/65/65
f 68/68/68 67/67/67 65/65/65
f 71/71/71 70/70/70 69/69/69
f 72/72/72 71/71/71 69/69/69
f 72/72/72 69/69/69 73/73/73
f 74/74/74 72/72/72 73/73/73
f 77/77/77 76/76/76 75/75/75
f 76/76/76 78/78/78 75/75/75
f 76/76/76 79/79/79 78/78/78
f 79/79/79 80/80/80 78/78/78
