g Dog_LOD2
v 0.33972687 -0.44466797 1.8031096
v 0.27148232 -0.38237545 1.9517447
v 0.29171363 -0.45699978 1.9240263
v 0.32626235 -0.34834126 1.840304
v 0.27503073 -0.30090833 1.9611894
v 0.40288898 -0.32566458 1.6176013
v 0.32238007 -0.24995622 1.8809888
v 0.38761464 -0.23187564 1.6870313
v 0.43122563 -0.20123412 1.56514
v 0.38296494 -0.14999497 1.7579261
v 0.42309391 -0.13031289 1.6241494
v 0.41287985 -0.099536955 1.7016658
v -0.42309391 -0.13031289 1.6241497
v -0.43122563 -0.20123413 1.56514
v -0.402889 -0.32566458 1.6176014
v -0.38761464 -0.23187563 1.6870313
v -0.33972687 -0.44466797 1.8031096
v -0.38296494 -0.14999497 1.757926
v -0.41287985 -0.099536955 1.7016658
v -0.32238007 -0.24995622 1.8809888
v -0.32626238 -0.34834126 1.8403043
v -0.2917136 -0.45699978 1.9240265
v -0.27503073 -0.30090833 1.9611894
v -0.27148235 -0.38237545 1.9517444
v 0.23488438 0.83439016 1.1071787
v 0.43448135 0.6850883 1.109246
v 0.23340227 0.7074504 1.1768594
v 0.41326395 0.7851743 1.0768527
v 0.55457675 0.6904831 0.9702478
v 0.4790542 0.82614625 0.9522509
v 0.2575782 0.9430635 0.95350957
v -0.000579374 0.8566446 1.1243069
v -0.00077280495 0.985256 0.9600872
v -0.2336586 0.8332223 1.1085558
v -0.25758544 0.94318813 0.9536668
v -0.40883663 0.7860206 1.0774486
v -0.0001084256 1.0312586 0.7735347
v 0.6062583 0.6897679 0.79465026
v 0.51496315 0.8408687 0.78427213
v 0.27345517 0.97933376 0.77582705
v 0.62388325 0.5048619 0.804085
v 0.56650865 0.5242459 0.9875196
v 0.6415082 0.3199559 0.81351984
v 0.57844055 0.35800868 1.0047915
v -0.47677836 0.82763016 0.95162624
v -0.27348325 0.9797392 0.7753733
v -1.359823E-06 0.9683837 0.5923326
v -0.5532133 0.69224477 0.96852857
v -0.43152434 0.6874885 1.1087168
v -0.43446064 0.5361751 1.13209
v -0.566339 0.52580595 0.98625016
v -0.60628515 0.690153 0.793139
v -0.5148145 0.8420294 0.78298676
v -0.62393606 0.504382 0.8033036
v -0.5794647 0.35936713 1.0039719
v -0.26172727 0.92646015 0.60139954
v -0.566539 0.6653144 0.6135414
v -0.48895052 0.8093389 0.6144853
v -0.43784237 0.64191747 0.4679596
v -0.5774479 0.467241 0.61340034
v -0.64158696 0.3186111 0.81346834
v -0.62515104 0.1266307 0.83207065
v -0.5650385 0.18989223 1.0222311
v 1.2946439E-08 0.81929505 0.43929544
v -0.23815271 0.79687333 0.45591047
v -0.42025387 0.75181663 0.48988643
v -0.23998834 0.6475113 0.39960387
v 1.2946439E-08 0.66122353 0.37641615
v -0.2772083 0.4976494 0.38733995
v -0.28971037 0.23257628 0.38509482
v 0.2617629 0.9263895 0.60156727
v 0.23815447 0.79687274 0.4559142
v 0.2399898 0.64751154 0.3996057
v -0.43631798 0.43859503 0.45940217
v 0.48899642 0.8090711 0.6150004
v 0.42027617 0.75180674 0.48994207
v -0.43479362 0.2352725 0.45084468
v -0.28770888 -0.033521734 0.4041714
v -0.58835685 0.26916763 0.61325914
v -0.42595294 -0.013663761 0.4701271
v -0.28169647 -0.28000423 0.4735857
v -0.57245934 0.04870455 0.6324714
v -0.4140234 -0.24519609 0.53719866
v -0.2737839 -0.47953442 0.6146093
v 0.43786213 0.6419203 0.4680089
v -0.55186415 -0.15615329 0.6916605
v -0.40053958 -0.433006 0.67007256
v -0.26390204 -0.6152324 0.81454957
v 0.5665321 0.6652618 0.6140629
v 0.43632334 0.43864584 0.4593894
v 0.43478456 0.23537128 0.45076987
v 0.27720946 0.49765363 0.3873396
v 0.28969246 0.23260845 0.38505533
v 0.2876033 -0.033370055 0.4038518
v 0.5774468 0.4674823 0.61362976
v 0.58836156 0.26970288 0.61319655
v 0.4259227 -0.013465461 0.46963218
v 0.28150913 -0.2796794 0.47241858
v 0.57247275 0.04847091 0.63198763
v 0.41402847 -0.24472068 0.5354857
v 0.27365443 -0.47914556 0.6124132
v 0.62498486 0.12519744 0.8314845
v 0.40066952 -0.4323429 0.66686434
v 0.2638742 -0.61502206 0.81309795
v 0.55198383 -0.15627836 0.69031525
v 0.56347847 0.18611717 1.0223671
v 0.43539074 0.37840408 1.1571863
v 0.4227772 0.22222786 1.1755167
v 0.38572726 -0.5618543 0.85289675
v 0.2537443 -0.6995981 1.0426992
v 0.60152245 -0.05470045 0.8790099
v 0.5305303 -0.32248947 0.801933
v 0.5762052 -0.20132644 0.96825117
v 0.50884974 -0.4386969 0.9574293
v 0.3710237 -0.64176977 1.0650387
v 0.24204208 -0.7724374 1.2741134
v 0.54326874 0.02785163 1.0603611
v 0.52078027 -0.100324936 1.129012
v 0.40797308 0.08200765 1.2069517
v 0.22294368 0.23944256 1.2683713
v 0.39191362 -0.028727587 1.2582049
v 0.21517496 0.10775854 1.2947489
v 0.37356806 -0.101841435 1.3281133
v 0.4879737 -0.51118517 1.136079
v 0.55099034 -0.30445957 1.0922959
v 0.19091181 -0.07553065 1.4265666
v 8.9770554E-05 0.11827712 1.3306926
v 0.36410052 -0.7142088 1.3488127
v 0.5271489 -0.3688421 1.2365195
v 0.49700683 -0.1883936 1.2242488
v 0.47409746 -0.241203 1.3367159
v 0.4657206 -0.575702 1.3860018
v 0.3546657 -0.14399065 1.4144138
v 0.49971282 -0.42470443 1.446991
v 0.45004797 -0.28232715 1.507731
v 0.27456686 -0.8032749 1.4300597
v 0.15928218 -0.86279404 1.3995494
v 0.20704696 -0.9088094 1.6219988
v 0.10945949 -1.0581108 1.5194174
v 0.28918856 -0.8346553 1.5985736
v 0.36494902 -0.7676552 1.6654135
v 0.43677893 -0.6297038 1.6881061
v 0.33621427 -0.17077689 1.5549079
v 0.46125633 -0.47276613 1.7236869
v 0.15671147 -1.062507 1.6626538
v 0.07438692 -1.1982558 1.5909078
v 0.2822939 -0.84613615 1.7718145
v 0.42305937 -0.3132959 1.7440286
v 0.29202387 -0.79256546 1.9000555
v 0.2989735 -0.7271817 1.9687283
v 0.16270348 -0.8534809 1.9694134
v 0.1473507 -0.92541105 1.8346976
v 0.38761678 -0.49694994 1.9448566
v 0.1139617 -1.0731776 1.8104868
v 1.2480777E-08 -0.95200545 1.9182734
v 0.22022794 -0.51683515 2.1011102
v 0.1559162 -0.77364314 2.0455594
v 0.36192298 -0.32252896 1.9339514
v 0.20415583 -0.31471083 2.0628707
v 0.32686394 -0.18447424 1.7544962
v 0.17413293 -0.11426976 1.5888708
v 6.0214104E-05 -0.057858728 1.4496185
v -0.19128649 -0.07575553 1.4265704
v -0.21574368 0.111715026 1.2939945
v 1.2480777E-08 -0.5270739 2.1596491
v 1.2480777E-08 -0.31043112 2.111425
v 1.2480777E-08 -0.7675491 2.0764678
v 1.2480777E-08 -0.87939215 1.9964049
v -0.16270345 -0.8534809 1.9694134
v -0.15591617 -0.77364314 2.0455594
v -0.22022791 -0.51683515 2.1011102
v -0.38761684 -0.49694994 1.9448565
v -0.2989735 -0.7271817 1.9687283
v 1.2480777E-08 -0.15236484 1.9748408
v -0.2041558 -0.3147108 2.0628707
v -0.36192364 -0.32252923 1.9339502
v 0.17943208 -0.16644359 1.9472064
v 0.31132317 -0.20013422 1.8923398
v 0.1720198 -0.123654775 1.7824726
v 1.166587E-08 -0.10379663 1.799688
v -1.00922525E-05 -0.09428595 1.6048534
v -0.17943203 -0.16644359 1.9472064
v -0.17202681 -0.1236576 1.7824581
v -0.17436121 -0.11438291 1.5885715
v -0.31132355 -0.20013437 1.8923391
v -0.32690886 -0.18449523 1.7544053
v -0.33699968 -0.17130882 1.5537307
v -0.42312214 -0.31334147 1.7439268
v -0.3656524 -0.12465394 1.3707609
v -0.46126768 -0.47278786 1.7236717
v -0.45091075 -0.2830832 1.506473
v -0.4367849 -0.6296949 1.6880336
v -0.29202387 -0.79256546 1.9000555
v -0.49994096 -0.4251752 1.4466833
v -0.3649614 -0.7676261 1.6652108
v -0.47585192 -0.2434396 1.3352903
v -0.527586 -0.37010792 1.2366003
v -0.49828425 -0.1906752 1.2248144
v -0.46577415 -0.5757205 1.385242
v -0.4879408 -0.51160663 1.1360905
v -0.36420766 -0.71394557 1.3469766
v -0.37109774 -0.64160025 1.0635979
v -0.3929001 -0.027997762 1.2587409
v -0.52157325 -0.10040092 1.1302305
v -0.55117023 -0.30569273 1.0937845
v -0.4098879 0.08650071 1.2062547
v -0.22427507 0.2444466 1.2672046
v -0.42568234 0.22913863 1.1738681
v -0.54438305 0.0308449 1.0609533
v -0.57620037 -0.20119938 0.9698234
v -0.5085908 -0.43953568 0.95993423
v -0.6015663 -0.052889388 0.88005614
v -0.5302668 -0.32303873 0.8045655
v -0.38558728 -0.5622989 0.8551662
v -0.25380144 -0.699418 1.0415014
v -0.24450889 -0.77224606 1.2725482
v -0.27849182 -0.8031808 1.4292331
v -0.17675443 -0.86277986 1.3991259
v -0.22226714 -0.9088099 1.6219112
v -0.11706936 -1.0581193 1.5193862
v -0.29285625 -0.83463365 1.5983653
v -0.283027 -0.84613365 1.771789
v -0.1635185 -0.92541105 1.8346928
v -0.15998705 -1.0625093 1.662644
v -0.07438689 -1.1982558 1.5909078
v 1.2480777E-08 -1.0822924 1.8730922
v -0.11432784 -1.0731776 1.8104862
v -0.07642647 -1.2000537 1.7812833
v -0.089622594 -1.2111368 1.6867517
v 0.0764265 -1.2000538 1.7812833
v 1.2480777E-08 -1.2172308 1.8010575
v 1.2480777E-08 -1.246513 1.6907253
v 1.2597193E-08 -1.2150431 1.5760651
v 0.089622624 -1.2111367 1.6867517
v -0.000579374 0.8566446 1.1243069
v 0.23488438 0.83439016 1.1071787
v 0.23340227 0.7074504 1.1768594
v 0.0008476075 0.72075814 1.2039338
v -0.23130009 0.7065075 1.1782005
v -0.2336586 0.8332223 1.1085558
v -0.43152434 0.6874885 1.1087168
v -0.40883663 0.7860206 1.0774486
v -0.23072748 0.5510519 1.2133546
v -0.43446064 0.5361751 1.13209
v 0.0006228206 0.55985755 1.2460076
v 0.23153847 0.5495977 1.2129741
v 0.43493605 0.5317462 1.133216
v 0.43448135 0.6850883 1.109246
v 0.56650865 0.5242459 0.9875196
v 0.55457675 0.6904831 0.9702478
v 0.57844055 0.35800868 1.0047915
v 0.43539074 0.37840408 1.1571863
v 0.22967471 0.391745 1.2490889
v 0.4227772 0.22222786 1.1755167
v 0.22294368 0.23944256 1.2683713
v 0.00039803368 0.398957 1.2880813
v -0.23015487 0.3955963 1.2485088
v -8.8857116E-05 0.24744354 1.3072144
v 0.21517496 0.10775854 1.2947489
v 8.9770554E-05 0.11827712 1.3306926
v -0.21574368 0.111715026 1.2939945
v -0.22427507 0.2444466 1.2672046
v -0.42568234 0.22913863 1.1738681
v -0.4373969 0.38486162 1.1554633
v -0.566339 0.52580595 0.98625016
v -0.5650385 0.18989223 1.0222311
v -0.5794647 0.35936713 1.0039719
v -0.2772083 0.4976494 0.38733995
v 1.2946439E-08 0.66122353 0.37641615
v -0.23998834 0.6475113 0.39960387
v 1.2480777E-08 0.47066236 0.34497517
v 0.2399898 0.64751154 0.3996057
v 0.27720946 0.49765363 0.3873396
v -2.26437E-06 0.22715262 0.3361937
v -0.28971037 0.23257628 0.38509482
v 0.28969246 0.23260845 0.38505533
v -1.5755277E-05 -0.043501217 0.35495254
v -0.28770888 -0.033521734 0.4041714
v 0.2876033 -0.033370055 0.4038518
v -4.7498474E-05 -0.30202785 0.42642948
v -0.28169647 -0.28000423 0.4735857
v -8.779448E-05 -0.5130344 0.57338095
v 0.28150913 -0.2796794 0.47241858
v -0.2737839 -0.47953442 0.6146093
v 0.27365443 -0.47914556 0.6124132
v -0.26390204 -0.6152324 0.81454957
v 0.2638742 -0.61502206 0.81309795
v -4.6050267E-05 -0.65401685 0.78371674
v -0.25380144 -0.699418 1.0415014
v -5.8524065E-06 -0.73781925 1.0162562
v 0.2537443 -0.6995981 1.0426992
v -0.0007200277 -0.80408764 1.2181396
v 0.24204208 -0.7724374 1.2741134
v -0.24450889 -0.77224606 1.2725482
v 0.15928218 -0.86279404 1.3995494
v -0.0034992245 -0.88529253 1.3540477
v -0.001810923 -1.0620161 1.4651031
v -0.17675443 -0.86277986 1.3991259
v 0.10945949 -1.0581108 1.5194174
v -0.11706936 -1.0581193 1.5193862
v 0.07438692 -1.1982558 1.5909078
v -0.07438689 -1.1982558 1.5909078
v 1.2597193E-08 -1.2150431 1.5760651
v 0.1559162 -0.77364314 2.0455594
v 0.2989735 -0.7271817 1.9687283
v 0.29202387 -0.79256546 1.9000555
v 0.16270348 -0.8534809 1.9694134
v 0.49700683 -0.1883936 1.2242488
v 0.37356806 -0.101841435 1.3281133
v 0.39191362 -0.028727587 1.2582049
v 0.52078027 -0.100324936 1.129012
v 0.55099034 -0.30445957 1.0922959
v 0.5762052 -0.20132644 0.96825117
v 0.50884974 -0.4386969 0.9574293
v 0.5305303 -0.32248947 0.801933
v -0.2989735 -0.7271817 1.9687283
v -0.15591617 -0.77364314 2.0455594
v -0.16270345 -0.8534809 1.9694134
v -0.29202387 -0.79256546 1.9000555
v -0.37109774 -0.64160025 1.0635979
v -0.38558728 -0.5622989 0.8551662
v -0.5085908 -0.43953568 0.95993423
v -0.4879408 -0.51160663 1.1360905
v -0.55117023 -0.30569273 1.0937845
v -0.527586 -0.37010792 1.2366003
v -0.49828425 -0.1906752 1.2248144
v -0.47585192 -0.2434396 1.3352903
v 0.33972687 -0.44466797 1.8031096
v 0.29171363 -0.45699978 1.9240263
v 0.31131142 -0.47649235 1.9795185
v 0.27148232 -0.38237545 1.9517447
v 0.38003367 -0.4871746 1.8393615
v 0.40288898 -0.32566458 1.6176013
v 0.27398276 -0.3893601 2.0349653
v 0.27503073 -0.30090833 1.9611894
v 0.45433065 -0.3762833 1.626134
v 0.43122563 -0.20123412 1.56514
v 0.4778034 -0.21461166 1.5652179
v 0.42309391 -0.13031289 1.6241494
v 0.475857 -0.11254556 1.6252604
v 0.41287985 -0.099536955 1.7016658
v 0.50386953 -0.25665757 1.6128973
v 0.4887213 -0.37422207 1.6894368
v 0.45208713 -0.09263126 1.7310783
v 0.38296494 -0.14999497 1.7579261
v 0.5010379 -0.18501516 1.6811309
v 0.41772422 -0.4534376 1.8918769
v 0.48320824 -0.28126866 1.7708442
v 0.41305616 -0.12437885 1.808715
v 0.32238007 -0.24995622 1.8809888
v 0.48133937 -0.14423354 1.767585
v 0.4555704 -0.185407 1.8358501
v 0.4117033 -0.34916332 1.947093
v 0.3505751 -0.45649728 2.005856
v 0.33252886 -0.37728465 2.0489168
v 0.38633168 -0.2432665 1.9674973
v 0.34002364 -0.20754871 1.9351292
v 0.32700965 -0.29023054 2.0487347
v 0.28383085 -0.2841742 2.023525
v 0.04545193 0.9707398 0.66269267
v 0.060511652 0.9739642 0.67742467
v 0.055552073 1.0109217 0.6739574
v 0.028421443 0.98796093 0.7215417
v 0.021851595 1.0353072 0.7143867
v 0.001784646 1.0310532 0.6947443
v -0.018378023 1.0357982 0.714648
v -0.052908808 1.0126593 0.6759586
v 0.05968329 0.99378544 0.76373273
v 0.044187922 1.0084887 0.66284055
v 0.0018334085 0.9822834 0.6955255
v -0.042749397 0.9718685 0.6635209
v -0.04133372 1.0096855 0.6638944
v -0.058139846 0.97592354 0.67962176
v -0.024779523 0.9886014 0.72192013
v -0.05710542 0.9948179 0.76353276
v -0.05235814 1.03107 0.757481
v -0.043290567 0.9977757 0.77704716
v -0.04186919 1.0333158 0.76774186
v 0.0012380352 0.99416625 0.7473751
v 0.0013597565 1.0399828 0.7339681
v 0.042221967 1.0329417 0.7690442
v 0.043056797 0.99758464 0.77862096
v 0.05466344 1.0301507 0.75782895
v 0.053897906 -1.2570856 1.7440399
v 0.062071018 -1.207317 1.7503371
v 0.07908508 -1.2104819 1.7186344
v 0.034776933 -1.2061208 1.7645915
v 0.029603412 -1.2602556 1.7502054
v 1.2480777E-08 -1.2058285 1.7686267
v 1.2480777E-08 -1.2616857 1.751977
v -0.03477691 -1.2061208 1.7645915
v -0.029603386 -1.2602556 1.7502054
v -0.062070996 -1.207317 1.7503371
v -0.053897884 -1.2570856 1.7440399
v -0.07908505 -1.2104819 1.7186344
v -0.05921016 -1.2634474 1.7202294
v -0.061936043 -1.2134196 1.6979512
v -0.026863877 -1.2715713 1.7225668
v -0.046808053 -1.2647805 1.7020634
v -0.03841258 -1.2160251 1.6812825
v 1.2480777E-08 -1.2740471 1.7230676
v 0.026863903 -1.2715713 1.7225668
v -0.021399075 -1.2726963 1.7001327
v -0.033396862 -1.2637527 1.6894487
v -0.019574892 -1.217954 1.6646883
v -0.016869504 -1.2683742 1.6813662
v 1.2480777E-08 -1.2187827 1.6512533
v 1.2480777E-08 -1.270275 1.6726952
v 0.019574918 -1.217954 1.6646883
v 1.2480777E-08 -1.2753289 1.6977403
v 0.05921018 -1.2634474 1.7202294
v 0.021399101 -1.2726963 1.7001327
v 0.01686953 -1.2683742 1.6813662
v 0.0384126 -1.2160251 1.6812825
v 0.046808075 -1.2647805 1.7020634
v 0.061936066 -1.2134196 1.6979512
v 0.033396885 -1.2637527 1.6894487
v -0.35255364 -0.7958901 1.8237534
v -0.2917095 -0.85993534 1.8017764
v -0.3499127 -0.8113722 1.75754
v -0.31436408 -0.8183045 1.875781
v -0.3143982 -0.85054725 1.714683
v -0.2623996 -0.86064243 1.8875537
v -0.2624788 -0.89293724 1.7266461
v -0.22699392 -0.8997935 1.844569
v -0.22457336 -0.91526407 1.7783018
v 0.3525537 -0.7958901 1.8237535
v 0.34991276 -0.8113722 1.75754
v 0.29170954 -0.85993534 1.8017764
v 0.31436414 -0.8183044 1.875781
v 0.31439817 -0.85054725 1.714683
v 0.2623996 -0.8606424 1.8875537
v 0.2624788 -0.89293724 1.726646
v 0.22699398 -0.8997936 1.844569
v 0.22457339 -0.91526407 1.7783018
v -0.26139572 0.68812543 0.8509342
v -0.35818797 0.5980695 0.5017512
v -0.358188 0.59133327 0.85056114
v -0.45498037 0.6881255 0.8508483
v -0.26813194 0.6881254 0.5018225
v -0.358188 0.78491795 0.85093427
v -0.35818797 0.77818155 0.50182253
v -0.4482441 0.6881255 0.50180817
v -0.35818797 0.6042444 0.26436877
v -0.44206917 0.68812543 0.26437104
v -0.2743068 0.68812543 0.26437104
v -0.35818797 0.7720067 0.26437104
v -0.35859066 0.61104184 0.14185445
v -0.43560496 0.68813956 0.14185448
v -0.28080708 0.68813956 0.14185448
v -0.358206 0.7655386 0.1418545
v -0.35982206 0.63529754 0.04331143
v -0.30420977 0.68833846 0.043311443
v -0.35828352 0.74243313 0.04331145
v -0.4125496 0.68833846 0.043311443
v -0.35870242 0.6887794 0.014569712
v -0.26139572 -0.31551915 0.8497754
v -0.35818797 -0.40557522 0.5003257
v -0.358188 -0.41231143 0.8507588
v -0.45498037 -0.31551915 0.8495642
v -0.26813194 -0.3155191 0.4958654
v -0.358188 -0.2187269 0.847722
v -0.35818797 -0.2254631 0.4924027
v -0.4482441 -0.3155191 0.49740797
v -0.35818797 -0.3994003 0.2639153
v -0.44206917 -0.3155191 0.26275834
v -0.2743068 -0.31551906 0.26088664
v -0.35818797 -0.23163795 0.25871032
v -0.3585907 -0.39260283 0.1418307
v -0.43560496 -0.31550494 0.1417034
v -0.28080708 -0.31550494 0.1412917
v -0.358206 -0.23810604 0.14085685
v -0.30420977 -0.3153062 0.043306556
v -0.35982206 -0.36834717 0.043311313
v -0.35828352 -0.2612116 0.043289814
v -0.4125496 -0.31530622 0.043311317
v -0.35870242 -0.3148652 0.014569592
v 0.26139572 0.68812543 0.8509342
v 0.358188 0.59133327 0.85056114
v 0.35818797 0.59806955 0.5017512
v 0.45498037 0.6881255 0.8508483
v 0.26813194 0.6881254 0.5018225
v 0.358188 0.78491795 0.85093427
v 0.35818797 0.77818155 0.50182253
v 0.4482441 0.6881254 0.50180817
v 0.2743068 0.68812543 0.26437104
v 0.35818797 0.7720067 0.26437104
v 0.44206917 0.68812543 0.26437104
v 0.35818797 0.6042444 0.26436877
v 0.28080708 0.68813956 0.14185448
v 0.3585906 0.6110418 0.14185447
v 0.35820597 0.7655386 0.1418545
v 0.43560496 0.68813956 0.14185448
v 0.35982206 0.6352975 0.04331143
v 0.3042098 0.6883384 0.04331144
v 0.4125496 0.68833846 0.04331144
v 0.35828358 0.7424331 0.043311443
v 0.35870245 0.6887794 0.014569712
v 0.26813194 -0.3155191 0.4958654
v 0.26139572 -0.31551915 0.8497754
v 0.358188 -0.41231143 0.8507588
v 0.358188 -0.2187269 0.847722
v 0.35818797 -0.40557522 0.5003257
v 0.45498037 -0.31551915 0.8495642
v 0.35818797 -0.2254631 0.49240273
v 0.4482441 -0.3155191 0.497408
v 0.35818797 -0.23163795 0.25871032
v 0.2743068 -0.31551906 0.26088664
v 0.44206917 -0.3155191 0.26275834
v 0.35818797 -0.3994003 0.2639153
v 0.28080708 -0.31550494 0.1412917
v 0.35859066 -0.39260286 0.14183068
v 0.35820597 -0.23810604 0.14085688
v 0.43560496 -0.31550494 0.14170341
v 0.3042098 -0.31530625 0.043306556
v 0.35828358 -0.26121157 0.043289807
v 0.4125496 -0.3153062 0.043311317
v 0.35982206 -0.36834717 0.04331131
v 0.35870245 -0.31486517 0.014569592
v -0.475857 -0.112545565 1.6252604
v -0.43122563 -0.20123413 1.56514
v -0.42309391 -0.13031289 1.6241497
v -0.41287985 -0.099536955 1.7016658
v -0.4778034 -0.21461166 1.5652177
v -0.402889 -0.32566458 1.6176014
v -0.45433065 -0.37628326 1.626134
v -0.33972687 -0.44466797 1.8031096
v -0.38003364 -0.4871746 1.8393614
v -0.2917136 -0.45699978 1.9240265
v -0.31131142 -0.4764923 1.9795185
v -0.27148235 -0.38237545 1.9517444
v -0.45208713 -0.09263126 1.7310783
v -0.5010379 -0.18501516 1.6811309
v -0.50386953 -0.2566576 1.6128973
v -0.4887213 -0.37422207 1.6894366
v -0.48320824 -0.28126863 1.7708442
v -0.41772422 -0.45343766 1.8918768
v -0.41305616 -0.12437885 1.808715
v -0.38296494 -0.14999497 1.757926
v -0.48133937 -0.14423354 1.7675849
v -0.4555704 -0.18540697 1.8358501
v -0.4117033 -0.34916332 1.9470931
v -0.34002364 -0.20754872 1.9351292
v -0.32238007 -0.24995622 1.8809888
v -0.38633168 -0.2432665 1.9674973
v -0.33252886 -0.37728465 2.0489166
v -0.28383085 -0.2841742 2.023525
v -0.27503073 -0.30090833 1.9611894
v -0.32700965 -0.29023057 2.0487344
v -0.27398273 -0.3893601 2.034965
v -0.35057506 -0.45649728 2.005856
v -0.24202648 -0.90694624 1.6929567
v -0.20717633 -0.88942724 1.6612468
v -0.2942133 -0.81737953 1.650842
v -0.14886767 -0.9210515 1.7533041
v -0.3116374 -0.8493235 1.6846352
v -0.28342372 -0.86200726 1.7971498
v -0.36336586 -0.79525185 1.7359749
v -0.35889107 -0.74977225 1.7150338
v -0.36114448 -0.7796617 1.8253467
v -0.3561136 -0.7302792 1.826778
v -0.3145098 -0.8049545 1.8989731
v -0.2978047 -0.7619035 1.9188358
v -0.21076794 -0.8339513 1.9292406
v -0.19539192 -0.9322388 1.766583
v -0.19317062 -0.91664857 1.855955
v -0.1460903 -0.90155846 1.8650488
v -0.24489893 -0.8625772 1.9072948
v 0.24202651 -0.90694624 1.6929567
v 0.20717636 -0.88942724 1.6612468
v 0.1488677 -0.9210515 1.7533041
v 0.2942133 -0.81737953 1.650842
v 0.3116374 -0.84932345 1.6846352
v 0.28342372 -0.8620074 1.7971498
v 0.35889107 -0.74977225 1.7150338
v 0.19539197 -0.93223894 1.766583
v 0.19317065 -0.9166486 1.855955
v 0.14609033 -0.90155846 1.8650488
v 0.21076797 -0.8339513 1.9292406
v 0.36336586 -0.79525185 1.7359747
v 0.36114448 -0.7796618 1.8253467
v 0.3561136 -0.7302792 1.826778
v 0.31450987 -0.8049545 1.8989729
v 0.2978047 -0.7619035 1.9188358
v 0.24489896 -0.8625772 1.9072948
v -0.003425982 1.0118861 1.0001435
v 1.2480777E-08 0.84807426 1.0700923
v -0.13267682 0.8117655 0.9898731
v 0.12529399 0.9755376 0.91400874
v 0.13267685 0.8117655 0.9898731
v -0.003600877 0.9399998 0.8283829
v 1.2480777E-08 0.77672404 0.90896267
v -0.12529464 0.9757459 0.91445565
v 0.110878296 1.2657411 0.77912384
v -0.003542216 1.3024449 0.8599649
v -0.11087891 1.2665447 0.7808459
v -0.0040060296 1.2300086 0.7004288
v -0.0033552025 1.5578591 0.7269342
v 0.10112488 1.5194944 0.6532974
v -0.10112504 1.5197093 0.6537595
v -0.0035663047 1.4806988 0.5811161
v 0.0747581 1.6898323 0.5622676
v -0.00053808244 1.7208564 0.61790496
v -0.00055111165 1.6574049 0.50793207
v -0.07475811 1.6898367 0.56227756
v 1.2946439E-08 1.7262503 0.5415336
vt 0.22495675 0.044708937
vt 0.22495675 0.044708937
vt 0.22495675 0.044708937
vt 0.22495675 0.044708937
vt 0.22495675 0.044708937
vt 0.22495675 0.044708937
vt 0.22495675 0.044708937
vt 0.22495675 0.044708937
vt 0.22495675 0.044708937
vt 0.22495675 0.044708937
vt 0.22495675 0.044708937
vt 0.22495675 0.044708937
vt 0.22495675 0.044708937
vt 0.22495675 0.044708937
vt 0.22495675 0.044708937
vt 0.22495675 0.044708937
vt 0.22495675 0.044708937
vt 0.22495675 0.044708937
vt 0.22495675 0.044708937
vt 0.22495675 0.044708937
vt 0.22495675 0.044708937
vt 0.22495675 0.044708937
vt 0.22495675 0.044708937
vt 0.22495675 0.044708937
vt 0.717144 0.79500383
vt 0.717144 0.79500383
vt 0.717144 0.79500383
vt 0.717144 0.79500383
vt 0.717144 0.79500383
vt 0.717144 0.79500383
vt 0.717144 0.79500383
vt 0.717144 0.79500383
vt 0.717144 0.79500383
vt 0.717144 0.79500383
vt 0.717144 0.79500383
vt 0.717144 0.79500383
vt 0.717144 0.79500383
vt 0.717144 0.79500383
vt 0.717144 0.79500383
vt 0.717144 0.79500383
vt 0.717144 0.79500383
vt 0.717144 0.79500383
vt 0.717144 0.79500383
vt 0.717144 0.79500383
vt 0.717144 0.79500383
vt 0.717144 0.79500383
vt 0.717144 0.79500383
vt 0.717144 0.79500383
vt 0.717144 0.79500383
vt 0.717144 0.79500383
vt 0.717144 0.79500383
vt 0.717144 0.79500383
vt 0.717144 0.79500383
vt 0.717144 0.79500383
vt 0.717144 0.79500383
vt 0.717144 0.79500383
vt 0.717144 0.79500383
vt 0.717144 0.79500383
vt 0.717144 0.79500383
vt 0.717144 0.79500383
vt 0.717144 0.79500383
vt 0.717144 0.79500383
vt 0.717144 0.79500383
vt 0.717144 0.79500383
vt 0.717144 0.79500383
vt 0.717144 0.79500383
vt 0.717144 0.79500383
vt 0.717144 0.79500383
vt 0.717144 0.79500383
vt 0.717144 0.79500383
vt 0.717144 0.79500383
vt 0.717144 0.79500383
vt 0.717144 0.79500383
vt 0.717144 0.79500383
vt 0.717144 0.79500383
vt 0.717144 0.79500383
vt 0.717144 0.79500383
vt 0.717144 0.79500383
vt 0.717144 0.79500383
vt 0.717144 0.79500383
vt 0.717144 0.79500383
vt 0.717144 0.79500383
vt 0.717144 0.79500383
vt 0.717144 0.79500383
vt 0.717144 0.79500383
vt 0.717144 0.79500383
vt 0.717144 0.79500383
vt 0.717144 0.79500383
vt 0.717144 0.79500383
vt 0.717144 0.79500383
vt 0.717144 0.79500383
vt 0.717144 0.79500383
vt 0.717144 0.79500383
vt 0.717144 0.79500383
vt 0.717144 0.79500383
vt 0.717144 0.79500383
vt 0.717144 0.79500383
vt 0.717144 0.79500383
vt 0.717144 0.79500383
vt 0.717144 0.79500383
vt 0.717144 0.79500383
vt 0.717144 0.79500383
vt 0.717144 0.79500383
vt 0.717144 0.79500383
vt 0.717144 0.79500383
vt 0.717144 0.79500383
vt 0.717144 0.79500383
vt 0.717144 0.79500383
vt 0.717144 0.79500383
vt 0.717144 0.79500383
vt 0.717144 0.79500383
vt 0.717144 0.79500383
vt 0.717144 0.79500383
vt 0.717144 0.79500383
vt 0.717144 0.79500383
vt 0.717144 0.79500383
vt 0.717144 0.79500383
vt 0.717144 0.79500383
vt 0.717144 0.79500383
vt 0.717144 0.79500383
vt 0.717144 0.79500383
vt 0.717144 0.79500383
vt 0.717144 0.79500383
vt 0.717144 0.79500383
vt 0.717144 0.79500383
vt 0.717144 0.79500383
vt 0.717144 0.79500383
vt 0.717144 0.79500383
vt 0.717144 0.79500383
vt 0.717144 0.79500383
vt 0.717144 0.79500383
vt 0.717144 0.79500383
vt 0.717144 0.79500383
vt 0.717144 0.79500383
vt 0.717144 0.79500383
vt 0.717144 0.79500383
vt 0.717144 0.79500383
vt 0.717144 0.79500383
vt 0.717144 0.79500383
vt 0.717144 0.79500383
vt 0.717144 0.79500383
vt 0.717144 0.79500383
vt 0.717144 0.79500383
vt 0.717144 0.79500383
vt 0.717144 0.79500383
vt 0.717144 0.79500383
vt 0.717144 0.79500383
vt 0.717144 0.79500383
vt 0.717144 0.79500383
vt 0.717144 0.79500383
vt 0.717144 0.79500383
vt 0.717144 0.79500383
vt 0.717144 0.79500383
vt 0.717144 0.79500383
vt 0.717144 0.79500383
vt 0.717144 0.79500383
vt 0.717144 0.79500383
vt 0.717144 0.79500383
vt 0.717144 0.79500383
vt 0.717144 0.79500383
vt 0.717144 0.79500383
vt 0.717144 0.79500383
vt 0.717144 0.79500383
vt 0.717144 0.79500383
vt 0.717144 0.79500383
vt 0.717144 0.79500383
vt 0.717144 0.79500383
vt 0.717144 0.79500383
vt 0.717144 0.79500383
vt 0.717144 0.79500383
vt 0.717144 0.79500383
vt 0.717144 0.79500383
vt 0.717144 0.79500383
vt 0.717144 0.79500383
vt 0.717144 0.79500383
vt 0.717144 0.79500383
vt 0.717144 0.79500383
vt 0.717144 0.79500383
vt 0.717144 0.79500383
vt 0.717144 0.79500383
vt 0.717144 0.79500383
vt 0.717144 0.79500383
vt 0.717144 0.79500383
vt 0.717144 0.79500383
vt 0.717144 0.79500383
vt 0.717144 0.79500383
vt 0.717144 0.79500383
vt 0.717144 0.79500383
vt 0.717144 0.79500383
vt 0.717144 0.79500383
vt 0.717144 0.79500383
vt 0.717144 0.79500383
vt 0.717144 0.79500383
vt 0.717144 0.79500383
vt 0.717144 0.79500383
vt 0.717144 0.79500383
vt 0.717144 0.79500383
vt 0.717144 0.79500383
vt 0.717144 0.79500383
vt 0.717144 0.79500383
vt 0.717144 0.79500383
vt 0.717144 0.79500383
vt 0.717144 0.79500383
vt 0.717144 0.79500383
vt 0.717144 0.79500383
vt 0.717144 0.79500383
vt 0.717144 0.79500383
vt 0.717144 0.79500383
vt 0.717144 0.79500383
vt 0.717144 0.79500383
vt 0.717144 0.79500383
vt 0.717144 0.79500383
vt 0.717144 0.79500383
vt 0.717144 0.79500383
vt 0.717144 0.79500383
vt 0.717144 0.79500383
vt 0.717144 0.79500383
vt 0.717144 0.79500383
vt 0.717144 0.79500383
vt 0.717144 0.79500383
vt 0.717144 0.79500383
vt 0.717144 0.79500383
vt 0.717144 0.79500383
vt 0.717144 0.79500383
vt 0.717144 0.79500383
vt 0.717144 0.79500383
vt 0.717144 0.79500383
vt 0.717144 0.79500383
vt 0.717144 0.79500383
vt 0.717144 0.79500383
vt 0.717144 0.79500383
vt 0.717144 0.79500383
vt 0.717144 0.79500383
vt 0.717144 0.79500383
vt 0.6580546 0.9075551
vt 0.6580546 0.9075551
vt 0.6580546 0.9075551
vt 0.6580546 0.9075551
vt 0.6580546 0.9075551
vt 0.6580546 0.9075551
vt 0.6580546 0.9075551
vt 0.6580546 0.9075551
vt 0.6580546 0.9075551
vt 0.6580546 0.9075551
vt 0.6580546 0.9075551
vt 0.6580546 0.9075551
vt 0.6580546 0.9075551
vt 0.6580546 0.9075551
vt 0.6580546 0.9075551
vt 0.6580546 0.9075551
vt 0.6580546 0.9075551
vt 0.6580546 0.9075551
vt 0.6580546 0.9075551
vt 0.6580546 0.9075551
vt 0.6580546 0.9075551
vt 0.6580546 0.9075551
vt 0.6580546 0.9075551
vt 0.6580546 0.9075551
vt 0.6580546 0.9075551
vt 0.6580546 0.9075551
vt 0.6580546 0.9075551
vt 0.6580546 0.9075551
vt 0.6580546 0.9075551
vt 0.6580546 0.9075551
vt 0.6580546 0.9075551
vt 0.6580546 0.9075551
vt 0.6580546 0.9075551
vt 0.76554155 0.8880156
vt 0.76554155 0.8880156
vt 0.76554155 0.8880156
vt 0.76554155 0.8880156
vt 0.76554155 0.8880156
vt 0.76554155 0.8880156
vt 0.76554155 0.8880156
vt 0.76554155 0.8880156
vt 0.76554155 0.8880156
vt 0.76554155 0.8880156
vt 0.76554155 0.8880156
vt 0.76554155 0.8880156
vt 0.76554155 0.8880156
vt 0.76554155 0.8880156
vt 0.76554155 0.8880156
vt 0.76554155 0.8880156
vt 0.76554155 0.8880156
vt 0.76554155 0.8880156
vt 0.76554155 0.8880156
vt 0.76554155 0.8880156
vt 0.76554155 0.8880156
vt 0.76554155 0.8880156
vt 0.76554155 0.8880156
vt 0.76554155 0.8880156
vt 0.76554155 0.8880156
vt 0.76554155 0.8880156
vt 0.76554155 0.8880156
vt 0.76554155 0.8880156
vt 0.76554155 0.8880156
vt 0.76554155 0.8880156
vt 0.76554155 0.8880156
vt 0.76554155 0.8880156
vt 0.76554155 0.8880156
vt 0.76554155 0.8880156
vt 0.76554155 0.8880156
vt 0.76554155 0.8880156
vt 0.7872135 0.9004172
vt 0.7872135 0.9004172
vt 0.7872135 0.9004172
vt 0.7872135 0.9004172
vt 0.6580546 0.9075551
vt 0.6580546 0.9075551
vt 0.6580546 0.9075551
vt 0.6580546 0.9075551
vt 0.6580546 0.9075551
vt 0.6580546 0.9075551
vt 0.6580546 0.9075551
vt 0.6580546 0.9075551
vt 0.7872135 0.9004172
vt 0.7872135 0.9004172
vt 0.7872135 0.9004172
vt 0.7872135 0.9004172
vt 0.6580546 0.9075551
vt 0.6580546 0.9075551
vt 0.6580546 0.9075551
vt 0.6580546 0.9075551
vt 0.6580546 0.9075551
vt 0.6580546 0.9075551
vt 0.6580546 0.9075551
vt 0.6580546 0.9075551
vt 0.35422322 0.08811441
vt 0.35422322 0.08811441
vt 0.35422322 0.08811441
vt 0.35422322 0.08811441
vt 0.35422322 0.08811441
vt 0.35422322 0.08811441
vt 0.35422322 0.08811441
vt 0.35422322 0.08811441
vt 0.35422322 0.08811441
vt 0.35422322 0.08811441
vt 0.35422322 0.08811441
vt 0.35422322 0.08811441
vt 0.35422322 0.08811441
vt 0.35422322 0.08811441
vt 0.35422322 0.08811441
vt 0.35422322 0.08811441
vt 0.35422322 0.08811441
vt 0.35422322 0.08811441
vt 0.35422322 0.08811441
vt 0.35422322 0.08811441
vt 0.35422322 0.08811441
vt 0.35422322 0.08811441
vt 0.35422322 0.08811441
vt 0.35422322 0.08811441
vt 0.35422322 0.08811441
vt 0.35422322 0.08811441
vt 0.35422322 0.08811441
vt 0.35422322 0.08811441
vt 0.35422322 0.08811441
vt 0.35422322 0.08811441
vt 0.35422322 0.08811441
vt 0.35422322 0.08811441
vt 0.6643474 0.34125787
vt 0.6643474 0.34125787
vt 0.6643474 0.34125787
vt 0.6643474 0.34125787
vt 0.6643474 0.34125787
vt 0.6643474 0.34125787
vt 0.6643474 0.34125787
vt 0.6643474 0.34125787
vt 0.6643474 0.34125787
vt 0.6643474 0.34125787
vt 0.6643474 0.34125787
vt 0.6643474 0.34125787
vt 0.6643474 0.34125787
vt 0.6643474 0.34125787
vt 0.6643474 0.34125787
vt 0.6643474 0.34125787
vt 0.6643474 0.34125787
vt 0.6643474 0.34125787
vt 0.6643474 0.34125787
vt 0.6643474 0.34125787
vt 0.6643474 0.34125787
vt 0.6643474 0.34125787
vt 0.6643474 0.34125787
vt 0.6643474 0.34125787
vt 0.35422322 0.08811441
vt 0.35422322 0.08811441
vt 0.35422322 0.08811441
vt 0.35422322 0.08811441
vt 0.35422322 0.08811441
vt 0.35422322 0.08811441
vt 0.35422322 0.08811441
vt 0.35422322 0.08811441
vt 0.35422322 0.08811441
vt 0.35422322 0.08811441
vt 0.35422322 0.08811441
vt 0.35422322 0.08811441
vt 0.35422322 0.08811441
vt 0.35422322 0.08811441
vt 0.35422322 0.08811441
vt 0.35422322 0.08811441
vt 0.35422322 0.08811441
vt 0.35422322 0.08811441
vt 0.35422322 0.08811441
vt 0.35422322 0.08811441
vt 0.35422322 0.08811441
vt 0.35422322 0.08811441
vt 0.35422322 0.08811441
vt 0.35422322 0.08811441
vt 0.35422322 0.08811441
vt 0.35422322 0.08811441
vt 0.35422322 0.08811441
vt 0.35422322 0.08811441
vt 0.35422322 0.08811441
vt 0.35422322 0.08811441
vt 0.35422322 0.08811441
vt 0.35422322 0.08811441
vt 0.35422322 0.08811441
vt 0.35422322 0.08811441
vt 0.47352546 0.091214806
vt 0.47352546 0.091214806
vt 0.47352546 0.091214806
vt 0.47352546 0.091214806
vt 0.47352546 0.091214806
vt 0.47352546 0.091214806
vt 0.47352546 0.091214806
vt 0.47352546 0.091214806
vt 0.47352546 0.091214806
vt 0.47352546 0.091214806
vt 0.47352546 0.091214806
vt 0.47352546 0.091214806
vt 0.47352546 0.091214806
vt 0.47352546 0.091214806
vt 0.47352546 0.091214806
vt 0.47352546 0.091214806
vt 0.47352546 0.091214806
vt 0.47352546 0.091214806
vt 0.72830606 0.7733011
vt 0.72830606 0.7733011
vt 0.72830606 0.7733011
vt 0.72830606 0.7733011
vt 0.72830606 0.7733011
vt 0.72830606 0.7733011
vt 0.72830606 0.7733011
vt 0.72830606 0.7733011
vt 0.72830606 0.7733011
vt 0.72830606 0.7733011
vt 0.72830606 0.7733011
vt 0.72830606 0.7733011
vt 0.72830606 0.7733011
vt 0.72830606 0.7733011
vt 0.72830606 0.7733011
vt 0.72830606 0.7733011
vt 0.72830606 0.7733011
vt 0.72830606 0.7733011
vt 0.72830606 0.7733011
vt 0.72830606 0.7733011
vt 0.72830606 0.7733011
vt 0.72830606 0.7733011
vt 0.72830606 0.7733011
vt 0.72830606 0.7733011
vt 0.72830606 0.7733011
vt 0.72830606 0.7733011
vt 0.72830606 0.7733011
vt 0.72830606 0.7733011
vt 0.72830606 0.7733011
vt 0.72830606 0.7733011
vt 0.72830606 0.7733011
vt 0.72830606 0.7733011
vt 0.72830606 0.7733011
vt 0.72830606 0.7733011
vt 0.72830606 0.7733011
vt 0.72830606 0.7733011
vt 0.72830606 0.7733011
vt 0.72830606 0.7733011
vt 0.72830606 0.7733011
vt 0.72830606 0.7733011
vt 0.72830606 0.7733011
vt 0.72830606 0.7733011
vt 0.72830606 0.7733011
vt 0.72830606 0.7733011
vt 0.72830606 0.7733011
vt 0.72830606 0.7733011
vt 0.72830606 0.7733011
vt 0.72830606 0.7733011
vt 0.72830606 0.7733011
vt 0.72830606 0.7733011
vt 0.72830606 0.7733011
vt 0.72830606 0.7733011
vt 0.72830606 0.7733011
vt 0.72830606 0.7733011
vt 0.72830606 0.7733011
vt 0.72830606 0.7733011
vt 0.72830606 0.7733011
vt 0.72830606 0.7733011
vt 0.72830606 0.7733011
vt 0.72830606 0.7733011
vt 0.72830606 0.7733011
vt 0.72830606 0.7733011
vt 0.72830606 0.7733011
vt 0.72830606 0.7733011
vt 0.72830606 0.7733011
vt 0.72830606 0.7733011
vt 0.72830606 0.7733011
vt 0.72830606 0.7733011
vt 0.72830606 0.7733011
vt 0.72830606 0.7733011
vt 0.72830606 0.7733011
vt 0.72830606 0.7733011
vt 0.72830606 0.7733011
vt 0.72830606 0.7733011
vt 0.72830606 0.7733011
vt 0.72830606 0.7733011
vt 0.72830606 0.7733011
vt 0.72830606 0.7733011
vt 0.72830606 0.7733011
vt 0.72830606 0.7733011
vt 0.72830606 0.7733011
vt 0.72830606 0.7733011
vt 0.72830606 0.7733011
vt 0.72830606 0.7733011
vt 0.35422322 0.08811441
vt 0.35422322 0.08811441
vt 0.35422322 0.08811441
vt 0.35422322 0.08811441
vt 0.35422322 0.08811441
vt 0.35422322 0.08811441
vt 0.35422322 0.08811441
vt 0.35422322 0.08811441
vt 0.35422322 0.08811441
vt 0.35422322 0.08811441
vt 0.35422322 0.08811441
vt 0.35422322 0.08811441
vt 0.35422322 0.08811441
vt 0.35422322 0.08811441
vt 0.35422322 0.08811441
vt 0.35422322 0.08811441
vt 0.35422322 0.08811441
vt 0.35422322 0.08811441
vt 0.35422322 0.08811441
vt 0.35422322 0.08811441
vt 0.35422322 0.08811441
vt 0.35422322 0.08811441
vt 0.35422322 0.08811441
vt 0.35422322 0.08811441
vt 0.35422322 0.08811441
vt 0.35422322 0.08811441
vt 0.35422322 0.08811441
vt 0.35422322 0.08811441
vt 0.35422322 0.08811441
vt 0.35422322 0.08811441
vt 0.35422322 0.08811441
vt 0.35422322 0.08811441
vt 0.53244805 0.035407722
vt 0.53244805 0.035407722
vt 0.53244805 0.035407722
vt 0.53244805 0.035407722
vt 0.53244805 0.035407722
vt 0.53244805 0.035407722
vt 0.53244805 0.035407722
vt 0.53244805 0.035407722
vt 0.53244805 0.035407722
vt 0.53244805 0.035407722
vt 0.53244805 0.035407722
vt 0.53244805 0.035407722
vt 0.53244805 0.035407722
vt 0.53244805 0.035407722
vt 0.53244805 0.035407722
vt 0.53244805 0.035407722
vt 0.53244805 0.035407722
vt 0.53244805 0.035407722
vt 0.53244805 0.035407722
vt 0.53244805 0.035407722
vt 0.53244805 0.035407722
vt 0.53244805 0.035407722
vt 0.53244805 0.035407722
vt 0.53244805 0.035407722
vt 0.53244805 0.035407722
vt 0.53244805 0.035407722
vt 0.53244805 0.035407722
vt 0.53244805 0.035407722
vt 0.53244805 0.035407722
vt 0.53244805 0.035407722
vt 0.53244805 0.035407722
vt 0.53244805 0.035407722
vt 0.53244805 0.035407722
vt 0.53244805 0.035407722
vt 0.72830606 0.7733011
vt 0.72830606 0.7733011
vt 0.72830606 0.7733011
vt 0.72830606 0.7733011
vt 0.72830606 0.7733011
vt 0.72830606 0.7733011
vt 0.72830606 0.7733011
vt 0.72830606 0.7733011
vt 0.72830606 0.7733011
vt 0.72830606 0.7733011
vt 0.72830606 0.7733011
vt 0.72830606 0.7733011
vt 0.72830606 0.7733011
vt 0.72830606 0.7733011
vt 0.72830606 0.7733011
vt 0.72830606 0.7733011
vt 0.72830606 0.7733011
vt 0.72830606 0.7733011
vt 0.72830606 0.7733011
vt 0.72830606 0.7733011
vt 0.72830606 0.7733011
vn -0.75477415 -0.4695152 -0.45811746
vn -0.98480034 -0.07451765 -0.15689309
vn -0.8372668 -0.4977562 -0.22632498
vn -0.9281827 0.062049456 -0.36691508
vn -0.950513 0.26857153 -0.15618676
vn -0.6540291 -0.29267135 -0.6975597
vn -0.90874225 0.35793227 -0.21464363
vn -0.94629043 0.11938389 -0.30046937
vn -0.5063506 0.17846912 -0.84365743
vn -0.87956005 0.46511137 -0.10022747
vn -0.58034843 0.6005483 -0.550034
vn -0.6475003 0.7422749 -0.17254364
vn 0.58034855 0.6005487 -0.5500335
vn 0.5063514 0.17846955 -0.84365684
vn 0.6540305 -0.2926709 -0.69755846
vn 0.94629043 0.11938378 -0.3004696
vn 0.75477386 -0.46951517 -0.45811775
vn 0.87956 0.46511137 -0.1002279
vn 0.6475 0.742275 -0.17254408
vn 0.90874225 0.35793218 -0.21464388
vn 0.9281826 0.06204944 -0.36691535
vn 0.837267 -0.4977562 -0.22632451
vn 0.950513 0.2685715 -0.15618677
vn 0.9848002 -0.07451694 -0.15689394
vn 0.22869 0.6402598 0.73332685
vn 0.5554692 0.27837208 0.78355783
vn 0.22844729 0.33302772 0.9148247
vn 0.4765826 0.5585866 0.67885935
vn 0.84751993 0.2909893 0.44388634
vn 0.6324669 0.67237186 0.38457984
vn 0.2903401 0.87343174 0.39092144
vn -0 0.6609039 0.7504706
vn -0.0003676967 0.9074204 0.42022374
vn -0.22889423 0.63797855 0.73524886
vn -0.29038206 0.87264407 0.39264542
vn -0.4742631 0.5590033 0.6801395
vn 0.0005123808 0.9989681 -0.04541294
vn 0.9531203 0.30234286 0.012264142
vn 0.7025193 0.7114165 -0.018791486
vn 0.33485368 0.9414378 -0.039597757
vn 0.99596405 0.087337054 0.020685187
vn 0.86682564 0.11069934 0.4861675
vn 0.99957556 0.0069718496 0.02828458
vn 0.8663816 0.04741803 0.4971261
vn -0.6300025 0.67272377 0.38799417
vn -0.3338865 0.9417517 -0.040292524
vn 0.00040994017 0.86142087 -0.50789165
vn -0.8448732 0.29568115 0.4458275
vn -0.55556834 0.28281382 0.7818953
vn -0.57245797 0.15351808 0.80543405
vn -0.8664378 0.117141634 0.48534867
vn -0.9529583 0.3028169 0.013131753
vn -0.7022545 0.711683 -0.018599994
vn -0.995828 0.08895188 0.020350441
vn -0.86771494 0.05201768 0.49433282
vn -0.28771478 0.83185774 -0.47458714
vn -0.8633843 0.22987351 -0.44913885
vn -0.6432889 0.6260165 -0.44077507
vn -0.5610116 0.17483002 -0.8091357
vn -0.87665546 0.050110657 -0.47850198
vn -0.9996232 0.007303354 0.026459634
vn -0.99493694 -0.090537585 0.043628573
vn -0.8671129 -0.0038510906 0.49809676
vn 9.2549984E-05 0.561954 -0.82716846
vn -0.21779269 0.5449989 -0.8096558
vn -0.47516307 0.4694687 -0.7441903
vn -0.21930963 0.2174011 -0.9511257
vn -0 0.25505722 -0.966926
vn -0.27193552 0.070832945 -0.95970505
vn -0.2919885 -0.015233346 -0.95630056
vn 0.2889191 0.8323002 -0.47307727
vn 0.21820854 0.5453003 -0.80934083
vn 0.21935295 0.21744786 -0.951105
vn -0.57888395 0.046607632 -0.8140768
vn 0.6442381 0.6267049 -0.4384043
vn 0.47600603 0.4700328 -0.74329495
vn -0.58583504 -0.02234694 -0.8101222
vn -0.31022233 -0.17203377 -0.93496877
vn -0.8800346 -0.026825847 -0.4741513
vn -0.6115248 -0.16982284 -0.7727856
vn -0.32984862 -0.41563717 -0.8476117
vn -0.88631284 -0.14828873 -0.43870273
vn -0.637621 -0.3650352 -0.67837214
vn -0.3368478 -0.67921484 -0.65207416
vn 0.5616307 0.17519714 -0.8086265
vn -0.8930983 -0.26210156 -0.36562026
vn -0.6443947 -0.5702807 -0.5094462
vn -0.32773447 -0.84541404 -0.42174062
vn 0.8639717 0.23074116 -0.4475617
vn 0.57912374 0.04701004 -0.8138831
vn 0.58570343 -0.021568341 -0.8102385
vn 0.27190053 0.0709399 -0.959707
vn 0.29167026 -0.014793204 -0.95640457
vn 0.30882382 -0.17056508 -0.9357005
vn 0.87695706 0.050856575 -0.47787032
vn 0.88014007 -0.02588105 -0.4740079
vn 0.61079365 -0.1677817 -0.773809
vn 0.32694662 -0.41384178 -0.84961224
vn 0.88630664 -0.14671241 -0.43924475
vn 0.63632756 -0.36248484 -0.6809492
vn 0.33379757 -0.67919993 -0.65365636
vn 0.99491596 -0.08995145 0.045288805
vn 0.6431423 -0.56989753 -0.51145375
vn 0.32635546 -0.8463278 -0.4209769
vn 0.89311844 -0.2606156 -0.36663166
vn 0.86588156 -0.005054585 0.5002235
vn 0.5853072 0.097701386 0.8049037
vn 0.5967743 0.07943438 0.7984677
vn 0.6325535 -0.70400196 -0.32288903
vn 0.33295447 -0.8980673 -0.28743076
vn 0.9916025 -0.11330095 0.062349755
vn 0.89061564 -0.37577614 -0.2561175
vn 0.988667 -0.119015135 0.09150398
vn 0.88230413 -0.44936034 -0.14005297
vn 0.6388216 -0.741995 -0.20334804
vn 0.3885589 -0.869367 -0.3053246
vn 0.87537974 0.052112598 0.48061907
vn 0.88158786 0.15559678 0.44563726
vn 0.60923684 0.1857233 0.77093273
vn 0.30181044 0.13549316 0.94369066
vn 0.63078994 0.3603477 0.6872071
vn 0.32578284 0.34004664 0.8821756
vn 0.6186916 0.54621875 0.5646821
vn 0.88667005 -0.45804265 -0.06334917
vn 0.987666 -0.09922293 0.121122725
vn 0.30949473 0.78516346 0.536406
vn 0.001241149 0.3846697 0.92305344
vn 0.70265555 -0.69451714 -0.15466455
vn 0.9907831 -0.048009396 0.12666403
vn 0.8773284 0.28587434 0.38544884
vn 0.866615 0.40809062 0.28712443
vn 0.9116842 -0.4106078 -0.015268576
vn 0.56768465 0.74782205 0.34423274
vn 0.9928058 -0.0013790946 0.119728625
vn 0.8721563 0.45168906 0.18793708
vn 0.5837714 -0.78127426 -0.22095583
vn 0.47793105 -0.74591136 -0.46389458
vn 0.7805223 -0.6195581 -0.08326305
vn 0.6642375 -0.49155277 -0.56317353
vn 0.6242074 -0.7724179 -0.1171998
vn 0.78691125 -0.615488 0.04410249
vn 0.9197408 -0.36408138 0.1467023
vn 0.57249576 0.80102473 0.17495151
vn 0.97401166 -0.025117287 0.22510076
vn 0.93705297 -0.3490335 -0.010365528
vn 0.5831336 -0.67212844 -0.45628777
vn 0.63770217 -0.75419533 0.1566056
vn 0.8946936 0.3905082 0.21685642
vn 0.7251765 -0.59688175 0.34329447
vn 0.72649056 -0.39845985 0.5598581
vn 0.43199593 -0.7038672 0.563871
vn 0.6584944 -0.60720485 0.44462052
vn 0.8383706 -0.048699263 0.5429209
vn 0.7492489 -0.33175427 0.57320607
vn 0.010608167 -0.6398141 0.7684566
vn 0.45940208 -0.040685166 0.88729614
vn 0.37673962 -0.4639989 0.80173075
vn 0.7717692 0.35057092 0.5305396
vn 0.40555015 0.39505166 0.82429564
vn 0.6041223 0.7813017 0.1568563
vn 0.24536693 0.9582676 0.14669067
vn 0.0007895135 0.8283385 0.56022745
vn -0.29871798 0.78589374 0.5414226
vn -0.31861237 0.3461487 0.8824212
vn -0 -0.049466643 0.9987758
vn -0 0.42992747 0.90286344
vn -0 -0.45789388 0.88900685
vn 0.0028387303 -0.7375925 0.67524004
vn -0.43148607 -0.6942176 0.5760916
vn -0.37673953 -0.4639989 0.8017308
vn -0.45940247 -0.040684957 0.88729596
vn -0.83836937 -0.04873021 0.5429202
vn -0.72649556 -0.39849645 0.55982566
vn -0 0.83588004 0.5489121
vn -0.405551 0.39505187 0.8242951
vn -0.7717611 0.35057193 0.5305508
vn 0.30060142 0.8059283 0.510018
vn 0.5965259 0.7011323 0.3906028
vn 0.23791854 0.9610591 0.14057146
vn -6.8163885E-05 0.9872493 0.159182
vn -0.00029218916 0.9902872 0.13903618
vn -0.3006147 0.80593425 0.51000077
vn -0.23810115 0.961053 0.14030287
vn -0.24075419 0.9584531 0.15298674
vn -0.59651285 0.7011541 0.39058328
vn -0.604089 0.7813748 0.15662006
vn -0.57412946 0.7963819 0.19013484
vn -0.89471424 0.39032924 0.21709368
vn -0.621458 0.6263691 0.47058654
vn -0.97392976 -0.025699249 0.22538918
vn -0.8766937 0.43991688 0.19463095
vn -0.91960466 -0.36438313 0.14680651
vn -0.72592723 -0.5955402 0.3440371
vn -0.9927458 -0.0037705544 0.12017304
vn -0.79155093 -0.6092448 0.047622785
vn -0.8711156 0.4016271 0.28258336
vn -0.9907018 -0.05201844 0.12571354
vn -0.88171995 0.27999797 0.37969866
vn -0.9112009 -0.41168684 -0.015067655
vn -0.8859195 -0.45935184 -0.06436136
vn -0.7066229 -0.6902312 -0.15577231
vn -0.63961816 -0.7408859 -0.20488235
vn -0.63283026 0.37313887 0.6784491
vn -0.8843485 0.15563953 0.44011816
vn -0.9877243 -0.10150334 0.11873391
vn -0.6075511 0.18371221 0.7727428
vn -0.3015303 0.13560778 0.94376373
vn -0.59677374 0.08060183 0.79835105
vn -0.8759677 0.05052458 0.47971648
vn -0.9887716 -0.11961523 0.08957082
vn -0.8820167 -0.44941977 -0.14166258
vn -0.9915848 -0.11410435 0.061154094
vn -0.8905363 -0.37595916 -0.2561245
vn -0.6331517 -0.70303166 -0.32382932
vn -0.33336794 -0.89732534 -0.28926316
vn -0.3937117 -0.86401653 -0.31379354
vn -0.61568093 -0.7564506 -0.22072491
vn -0.49331382 -0.7379149 -0.46056816
vn -0.7866265 -0.61329675 -0.07131451
vn -0.65161496 -0.5175443 -0.5545682
vn -0.6578306 -0.74490416 -0.111250386
vn -0.6639853 -0.7286539 0.16788991
vn -0.66464853 -0.5995581 0.44583917
vn -0.9198447 -0.39226463 -0.0037740548
vn -0.5736027 -0.6837872 -0.45101538
vn 0.0073373667 -0.36507723 0.9309484
vn -0.72914666 -0.3629242 0.5801992
vn -0.6114826 -0.6283956 0.48084092
vn -0.6810348 -0.7322509 -0.000390514
vn 0.615625 -0.6262577 0.4783379
vn 0.00020969938 -0.7722835 0.6352781
vn -0 -0.99999905 -0.0014407949
vn 0.003434355 -0.820923 -0.5710286
vn 0.68742794 -0.72621554 -0.0073291725
vn -0 0.6609039 0.7504706
vn 0.22869 0.6402598 0.73332685
vn 0.22844729 0.33302772 0.9148247
vn 0.0018977096 0.3698876 0.92907447
vn -0.22862852 0.33241123 0.9150038
vn -0.22889423 0.63797855 0.73524886
vn -0.55556834 0.28281382 0.7818953
vn -0.4742631 0.5590033 0.6801395
vn -0.26209804 0.20703518 0.94257146
vn -0.57245797 0.15351808 0.80543405
vn 0.0016508879 0.23715429 0.9714706
vn 0.26207995 0.20596364 0.9428112
vn 0.57097363 0.1479987 0.8075181
vn 0.5554692 0.27837208 0.78355783
vn 0.86682564 0.11069934 0.4861675
vn 0.84751993 0.2909893 0.44388634
vn 0.8663816 0.04741803 0.4971261
vn 0.5853072 0.097701386 0.8049037
vn 0.28838092 0.15399852 0.9450508
vn 0.5967743 0.07943438 0.7984677
vn 0.30181044 0.13549316 0.94369066
vn 0.00064055226 0.17915826 0.98381996
vn -0.28815377 0.15493827 0.94496644
vn -0.00033068738 0.15211345 0.98836297
vn 0.32578284 0.34004664 0.8821756
vn 0.001241149 0.3846697 0.92305344
vn -0.31861237 0.3461487 0.8824212
vn -0.3015303 0.13560778 0.94376373
vn -0.59677374 0.08060183 0.79835105
vn -0.58668625 0.10262469 0.80328536
vn -0.8664378 0.117141634 0.48534867
vn -0.8671129 -0.0038510906 0.49809676
vn -0.86771494 0.05201768 0.49433282
vn -0.27193552 0.070832945 -0.95970505
vn -0 0.25505722 -0.966926
vn -0.21930963 0.2174011 -0.9511257
vn -1.8255947E-05 0.07926148 -0.9968539
vn 0.21935295 0.21744786 -0.951105
vn 0.27190053 0.0709399 -0.959707
vn -0.00015691521 -0.023007797 -0.9997353
vn -0.2919885 -0.015233346 -0.95630056
vn 0.29167026 -0.014793204 -0.95640457
vn -0.0006810072 -0.17153655 -0.9851775
vn -0.31022233 -0.17203377 -0.93496877
vn 0.30882382 -0.17056508 -0.9357005
vn -0.0015419036 -0.4291755 -0.9032198
vn -0.32984862 -0.41563717 -0.8476117
vn -0.0017140163 -0.7142064 -0.699933
vn 0.32694662 -0.41384178 -0.84961224
vn -0.3368478 -0.67921484 -0.65207416
vn 0.33379757 -0.67919993 -0.65365636
vn -0.32773447 -0.84541404 -0.42174062
vn 0.32635546 -0.8463278 -0.4209769
vn -0.00075509254 -0.8913548 -0.4533057
vn -0.33336794 -0.89732534 -0.28926316
vn 0.00042599498 -0.9470068 -0.32121307
vn 0.33295447 -0.8980673 -0.28743076
vn 0.002708746 -0.9194047 -0.3933035
vn 0.3885589 -0.869367 -0.3053246
vn -0.3937117 -0.86401653 -0.31379354
vn 0.47793105 -0.74591136 -0.46389458
vn 0.0040758303 -0.7443087 -0.6678232
vn 0.006611704 -0.56341225 -0.8261495
vn -0.49331382 -0.7379149 -0.46056816
vn 0.6642375 -0.49155277 -0.56317353
vn -0.65161496 -0.5175443 -0.5545682
vn 0.5831336 -0.67212844 -0.45628777
vn -0.5736027 -0.6837872 -0.45101538
vn 0.003434355 -0.820923 -0.5710286
vn 0.37673962 -0.4639989 0.80173075
vn 0.72649056 -0.39845985 0.5598581
vn 0.7251765 -0.59688175 0.34329447
vn 0.43199593 -0.7038672 0.563871
vn 0.8773284 0.28587434 0.38544884
vn 0.6186916 0.54621875 0.5646821
vn 0.63078994 0.3603477 0.6872071
vn 0.88158786 0.15559678 0.44563726
vn 0.987666 -0.09922293 0.121122725
vn 0.988667 -0.119015135 0.09150398
vn 0.88230413 -0.44936034 -0.14005297
vn 0.89061564 -0.37577614 -0.2561175
vn -0.72649556 -0.39849645 0.55982566
vn -0.37673953 -0.4639989 0.8017308
vn -0.43148607 -0.6942176 0.5760916
vn -0.72592723 -0.5955402 0.3440371
vn -0.63961816 -0.7408859 -0.20488235
vn -0.6331517 -0.70303166 -0.32382932
vn -0.8820167 -0.44941977 -0.14166258
vn -0.8859195 -0.45935184 -0.06436136
vn -0.9877243 -0.10150334 0.11873391
vn -0.9907018 -0.05201844 0.12571354
vn -0.88171995 0.27999797 0.37969866
vn -0.8711156 0.4016271 0.28258336
vn -0.75477415 -0.4695152 -0.45811746
vn -0.8372668 -0.4977562 -0.22632498
vn -0.37147352 -0.8670498 0.3320122
vn -0.98480034 -0.07451765 -0.15689309
vn 0.048219286 -0.97741175 -0.20576958
vn -0.6540291 -0.29267135 -0.6975597
vn -0.73966324 -0.2486304 0.62536484
vn -0.950513 0.26857153 -0.15618676
vn 0.23375018 -0.68715274 -0.68788224
vn -0.5063506 0.17846912 -0.84365743
vn 0.48589426 0.06509256 -0.87159044
vn -0.58034843 0.6005483 -0.550034
vn 0.5061823 0.74152535 -0.440363
vn -0.6475003 0.7422749 -0.17254364
vn 0.94913137 -0.13376355 -0.28505614
vn 0.88497853 -0.45869058 -0.08009865
vn 0.25359017 0.95318085 0.16473679
vn -0.87956005 0.46511137 -0.10022747
vn 0.9838021 0.17530026 0.037461434
vn 0.76243013 -0.59203005 0.2611527
vn 0.9597405 -0.04705092 0.2769196
vn -0.16015624 0.8889881 0.42901057
vn -0.90874225 0.35793227 -0.21464363
vn 0.84355253 0.39763102 0.36098298
vn 0.76406676 0.3837594 0.51858526
vn 0.8740539 -0.05932309 0.4821935
vn 0.4251312 -0.6069576 0.6714655
vn 0.27863762 -0.18107827 0.9431711
vn 0.5891277 0.48061398 0.649568
vn -0.3749372 0.85565203 0.3567657
vn 0.21748252 0.36639267 0.9046866
vn -0.6731945 0.49782532 0.5467898
vn 0.09312803 0.00837052 -0.9956189
vn 0.97603214 0.12616163 -0.17732614
vn 0.82919276 0.52720976 -0.18571295
vn 0.992125 0.12513429 -0.005430126
vn 0.48275 0.85218793 -0.20181224
vn 0.006112443 0.7746263 -0.63238966
vn -0.4634966 0.8626008 -0.20270868
vn -0.8246274 0.5422354 -0.16115355
vn 0.98776686 0.14712429 0.05168257
vn 0.07489679 0.39768022 -0.91446203
vn -0.016756194 -0.017474996 -0.9997068
vn -0.10691204 0.014079734 -0.99416876
vn -0.09374032 0.39981413 -0.91179025
vn -0.9802571 0.134238 -0.1451763
vn -0.9922597 0.12417767 0.0007837756
vn -0.9898643 0.13893922 0.029404042
vn -0.82940835 0.5584104 -0.01611365
vn -0.119120345 0.2710095 0.95517755
vn -0.100216284 0.69045115 0.7164034
vn -0.02569644 0.2613325 0.96490675
vn 0.0013722392 0.95378923 0.30047324
vn 0.073380314 0.69201475 0.718144
vn 0.080554366 0.27351865 0.95848763
vn 0.8314407 0.5554858 0.011914698
vn 0.56555706 -0.5492605 0.61518955
vn 0.66120607 -0.25965098 0.70383793
vn 0.9487006 -0.31195322 -0.05150157
vn 0.22997165 -0.25327265 0.93966275
vn 0.20930158 -0.6510198 0.7296342
vn -0 -0.27554876 0.961287
vn -0 -0.66512996 0.7467276
vn -0.22997117 -0.25327212 0.93966293
vn -0.20930156 -0.65102035 0.7296337
vn -0.661206 -0.2596509 0.703838
vn -0.56555754 -0.54926145 0.61518824
vn -0.9487006 -0.3119533 -0.051501438
vn -0.719014 -0.6948934 -0.011918662
vn -0.7139548 -0.26306668 -0.6488948
vn -0.17657226 -0.96863294 0.17485002
vn -0.56524056 -0.68073446 -0.46594384
vn -0.5990774 -0.22989151 -0.7669786
vn -0 -0.9768438 0.21395372
vn 0.17657208 -0.9686331 0.17484869
vn -0.22472 -0.9632107 -0.14739725
vn -0.53143156 -0.55899185 -0.63648146
vn -0.5456711 -0.28027472 -0.78973985
vn -0.4287061 -0.6936209 -0.5788791
vn -0 -0.36409062 -0.9313635
vn -0 -0.7123216 -0.7018533
vn 0.54567105 -0.2802747 -0.7897399
vn -0 -0.99466765 -0.10313254
vn 0.7190141 -0.6948933 -0.011918994
vn 0.22472079 -0.9632107 -0.1473966
vn 0.42870745 -0.6936212 -0.57887775
vn 0.599077 -0.22989136 -0.766979
vn 0.5652401 -0.680734 -0.4659451
vn 0.71395415 -0.26306647 -0.64889556
vn 0.5314335 -0.5589941 -0.6364778
vn -0.68624693 -0.708471 0.16472356
vn -0.645032 -0.74924684 0.15020938
vn -0.68767273 -0.71629494 0.11843918
vn -0.6619637 -0.72146326 0.20321104
vn -0.6616788 -0.74410135 0.09216469
vn -0.62647396 -0.7512119 0.20787257
vn -0.62588483 -0.77392906 0.09644665
vn -0.6000281 -0.77904695 0.18180203
vn -0.6015648 -0.78730065 0.13519391
vn 0.68624604 -0.7084719 0.16472402
vn 0.6876721 -0.71629566 0.1184384
vn 0.6450318 -0.74924695 0.15020956
vn 0.66196257 -0.7214638 0.20321317
vn 0.6616786 -0.74410164 0.092164315
vn 0.6264743 -0.7512114 0.20787336
vn 0.625885 -0.773929 0.096446216
vn 0.6000291 -0.7790463 0.18180187
vn 0.601565 -0.7873006 0.13519382
vn 0.9998135 0.0008855866 -0.019295668
vn -0 -0.9997441 -0.022618089
vn 0.00020364324 -0.99981374 -0.019301401
vn -0.9998134 0.00088572426 -0.019298092
vn 0.99974436 0 -0.022612244
vn 0.0002044266 0.99981385 -0.019293072
vn -0 0.99974436 -0.022610605
vn -0.99974424 0 -0.022614064
vn 0.00013453771 -0.99920696 -0.03981837
vn -0.99923813 3.7856877E-05 -0.039026946
vn 0.9992011 -0.0005260154 -0.039961617
vn 3.184196E-05 0.9992342 -0.039127424
vn -0.002058588 -0.99026555 -0.13917577
vn -0.9907975 0.00017666529 -0.13535221
vn 0.9900782 -0.003358315 -0.14047715
vn 0.00024379342 0.99076486 -0.1355908
vn -0.012134317 -0.84486055 -0.534849
vn 0.8442973 -0.0058822013 -0.53584266
vn 0.0005288883 0.84710646 -0.531423
vn -0.8469234 0.0013591255 -0.5317132
vn -0.0008003181 0.0011982948 -0.99999905
vn 0.99979097 -0.007410107 -0.019058252
vn -7.88901E-05 -0.9997453 -0.022565197
vn 0.0004636221 -0.9998167 -0.019143492
vn -0.99979013 -0.0074026347 -0.019104488
vn 0.99974376 -0.00038586775 -0.022633845
vn 0.00045648185 0.999819 -0.019021867
vn -8.197233E-05 0.9997415 -0.022733659
vn -0.99974376 -0.0003843494 -0.022635503
vn -2.0880656E-05 -0.99919873 -0.040025335
vn -0.99922025 -0.00046858058 -0.039481223
vn 0.9991691 -0.0010507621 -0.040742
vn -0.0001261117 0.9991875 -0.040300917
vn -0.0022546656 -0.990226 -0.13945453
vn -0.9907216 -0.00030107546 -0.13590643
vn 0.98990345 -0.0038577337 -0.14169122
vn 5.946814E-05 0.9905117 -0.13742816
vn 0.843942 -0.0062470706 -0.53639793
vn -0.0122859385 -0.8447789 -0.5349744
vn 0.00038376483 0.84653986 -0.53232515
vn -0.84677666 0.0010035161 -0.5319478
vn -0.00083126273 0.0010617741 -0.99999917
vn -0.9998135 0.00088547845 -0.019295722
vn -0.00020380529 -0.99981374 -0.019301325
vn -0 -0.9997441 -0.02261805
vn 0.9998134 0.00088539935 -0.019297997
vn -0.99974436 0 -0.022612227
vn -0.00020426423 0.99981385 -0.019293096
vn -0 0.99974436 -0.022610659
vn 0.99974424 0 -0.022614108
vn -0.9992011 -0.00052593445 -0.03996148
vn -3.168005E-05 0.9992342 -0.03912743
vn 0.99923813 3.7694983E-05 -0.039026942
vn -0.00013472661 -0.99920696 -0.039818205
vn -0.9900782 -0.0033580482 -0.14047717
vn 0.0020580739 -0.99026555 -0.13917562
vn -0.00024425323 0.99076486 -0.13559087
vn 0.9907975 0.00017684637 -0.13535205
vn 0.012134482 -0.84486026 -0.5348494
vn -0.8442973 -0.005882057 -0.5358428
vn 0.84692323 0.0013594822 -0.53171337
vn -0.0005289911 0.84710646 -0.531423
vn 0.0008006365 0.0011991811 -0.99999905
vn -0.99974376 -0.00038594846 -0.022633865
vn -0.99979097 -0.0074101617 -0.019058242
vn -0.00046367646 -0.9998167 -0.019143512
vn -0.00045658916 0.999819 -0.019021869
vn 7.891696E-05 -0.9997453 -0.022565229
vn 0.99979013 -0.007402581 -0.019104525
vn 8.1972306E-05 0.9997415 -0.022733655
vn 0.99974376 -0.00038421506 -0.02263552
vn 0.00012608469 0.9991875 -0.04030093
vn -0.9991691 -0.0010506811 -0.040741827
vn 0.99922025 -0.00046836474 -0.039481245
vn 2.0961592E-05 -0.99919873 -0.040025182
vn -0.98990333 -0.0038577893 -0.14169131
vn 0.0022546249 -0.990226 -0.13945462
vn -5.98027E-05 0.9905117 -0.1374281
vn 0.9907217 -0.0003008666 -0.13590631
vn -0.8439418 -0.0062477784 -0.5363983
vn -0.00038351162 0.84653986 -0.53232527
vn 0.8467767 0.0010037614 -0.5319476
vn 0.012286353 -0.84477866 -0.53497493
vn 0.00083145645 0.0010619817 -0.99999917
vn -0.5061828 0.7415248 -0.44036323
vn 0.5063514 0.17846955 -0.84365684
vn 0.58034855 0.6005487 -0.5500335
vn 0.6475 0.742275 -0.17254408
vn -0.48589307 0.06509295 -0.871591
vn 0.6540305 -0.2926709 -0.69755846
vn -0.23374999 -0.6871524 -0.6878827
vn 0.75477386 -0.46951517 -0.45811775
vn -0.04821889 -0.97741175 -0.20576996
vn 0.837267 -0.4977562 -0.22632451
vn 0.37147328 -0.8670497 0.33201268
vn 0.9848002 -0.07451694 -0.15689394
vn -0.25359043 0.95318085 0.16473664
vn -0.9838021 0.17529987 0.037461568
vn -0.94913155 -0.13376313 -0.28505567
vn -0.88497853 -0.45869064 -0.080099046
vn -0.9597405 -0.047051005 0.27691957
vn -0.7624296 -0.59203076 0.26115265
vn 0.16015589 0.88898826 0.4290104
vn 0.87956 0.46511137 -0.1002279
vn -0.8435529 0.39763078 0.36098242
vn -0.7640667 0.3837599 0.5185851
vn -0.87405354 -0.059323203 0.48219427
vn 0.374937 0.8556519 0.35676596
vn 0.90874225 0.35793218 -0.21464388
vn -0.5891276 0.48061362 0.6495686
vn -0.27863848 -0.18107834 0.9431709
vn 0.67319334 0.49782506 0.54679155
vn 0.950513 0.2685715 -0.15618677
vn -0.21748334 0.3663916 0.9046868
vn 0.73966277 -0.24863033 0.6253654
vn -0.42513093 -0.6069576 0.67146575
vn -0.3658432 -0.86132354 -0.35253453
vn -0.14422767 -0.79049814 -0.5952404
vn -0.6083177 -0.3959089 -0.68789953
vn 0.20022711 -0.97262853 -0.11791008
vn -0.6929959 -0.59741277 -0.4035526
vn -0.6410917 -0.75319153 0.14732273
vn -0.92538655 -0.34625712 -0.15416121
vn -0.9495507 -0.04918903 -0.30973217
vn -0.9271403 -0.26794654 0.26194558
vn -0.9526646 0.08862319 0.29081994
vn -0.7000924 -0.39099956 0.59748626
vn -0.6252963 -0.11358286 0.7720773
vn -0.14411752 -0.48809683 0.86080873
vn -0.14321081 -0.9895633 -0.015978573
vn -0.14055008 -0.90606546 0.39911285
vn 0.18002664 -0.854893 0.48656785
vn -0.37735456 -0.66009736 0.6495192
vn 0.3658432 -0.86132336 -0.35253498
vn 0.14422739 -0.79049796 -0.5952407
vn -0.20022884 -0.9726282 -0.11791027
vn 0.60831773 -0.3959084 -0.6878997
vn 0.69299585 -0.5974128 -0.4035527
vn 0.6410918 -0.7531915 0.14732265
vn 0.9495507 -0.04918832 -0.309732
vn 0.14321022 -0.9895633 -0.015978865
vn 0.14054957 -0.9060654 0.3991131
vn -0.18002716 -0.85489285 0.48656806
vn 0.14411807 -0.4880975 0.86080825
vn 0.92538637 -0.34625724 -0.15416239
vn 0.92714024 -0.26794687 0.26194552
vn 0.9526646 0.088622436 0.29082003
vn 0.70009315 -0.3909998 0.59748536
vn 0.6252961 -0.1135843 0.7720773
vn 0.37735465 -0.66009724 0.6495192
vn -0.011657939 0.4305217 0.9025049
vn 0.0014293205 0.41922048 0.90788335
vn -0.99993443 -0.0045399996 0.010515247
vn 0.9997453 0.019226685 -0.011816854
vn 0.99991477 0.012771272 0.0027352837
vn -0.016204659 -0.4069215 -0.91331935
vn 0.0001127403 -0.41797805 -0.90845716
vn -0.9999223 0.011836643 -0.0039351517
vn 0.99950385 0.028922886 -0.012474212
vn -0.011862158 0.45421273 0.89081424
vn -0.99945635 0.03283454 -0.0030005244
vn -0.020490838 -0.41058657 -0.9115914
vn -0.013590973 0.513922 0.8577293
vn 0.99730337 0.06639753 -0.031263757
vn -0.99683905 0.07359082 -0.029937224
vn -0.019267324 -0.40202045 -0.9154279
vn 0.87844926 0.41872245 -0.23021366
vn -0.0038391359 0.8254588 0.56444937
vn -0.005134038 -0.043253623 -0.9990509
vn -0.87682533 0.42161182 -0.2311294
vn 0.0017623495 0.86664295 -0.49892566
g Dog_LOD2_0
f 3/3/3 2/2/2 1/1/1
f 2/2/2 4/4/4 1/1/1
f 2/2/2 5/5/5 4/4/4
f 1/1/1 4/4/4 6/6/6
f 5/5/5 7/7/7 4/4/4
f 4/4/4 8/8/8 6/6/6
f 4/4/4 7/7/7 8/8/8
f 6/6/6 8/8/8 9/9/9
f 7/7/7 10/10/10 8/8/8
f 8/8/8 11/11/11 9/9/9
f 8/8/8 10/10/10 11/11/11
f 10/10/10 12/12/12 11/11/11
f 15/15/15 14/14/14 13/13/13
f 16/16/16 15/15/15 13/13/13
f 17/17/17 15/15/15 16/16/16
f 16/16/16 13/13/13 18/18/18
f 13/13/13 19/19/19 18/18/18
f 16/16/16 18/18/18 20/20/20
f 21/21/21 17/17/17 16/16/16
f 21/21/21 16/16/16 20/20/20
f 22/22/22 17/17/17 21/21/21
f 21/21/21 20/20/20 23/23/23
f 24/24/24 22/22/22 21/21/21
f 24/24/24 21/21/21 23/23/23
f 27/27/27 26/26/26 25/25/25
f 26/26/26 28/28/28 25/25/25
f 26/26/26 29/29/29 28/28/28
f 25/25/25 28/28/28 30/30/30
f 29/29/29 30/30/30 28/28/28
f 31/31/31 25/25/25 30/30/30
f 32/32/32 25/25/25 31/31/31
f 33/33/33 32/32/32 31/31/31
f 34/34/34 32/32/32 33/33/33
f 35/35/35 34/34/34 33/33/33
f 34/34/34 35/35/35 36/36/36
f 33/33/33 31/31/31 37/37/37
f 35/35/35 33/33/33 37/37/37
f 29/29/29 38/38/38 30/30/30
f 31/31/31 30/30/30 39/39/39
f 38/38/38 39/39/39 30/30/30
f 31/31/31 40/40/40 37/37/37
f 40/40/40 31/31/31 39/39/39
f 41/41/41 38/38/38 29/29/29
f 42/42/42 41/41/41 29/29/29
f 43/43/43 41/41/41 42/42/42
f 44/44/44 43/43/43 42/42/42
f 35/35/35 45/45/45 36/36/36
f 46/46/46 35/35/35 37/37/37
f 35/35/35 46/46/46 45/45/45
f 37/37/37 40/40/40 47/47/47
f 46/46/46 37/37/37 47/47/47
f 45/45/45 48/48/48 36/36/36
f 48/48/48 49/49/49 36/36/36
f 50/50/50 49/49/49 48/48/48
f 51/51/51 50/50/50 48/48/48
f 52/52/52 48/48/48 45/45/45
f 51/51/51 48/48/48 52/52/52
f 46/46/46 53/53/53 45/45/45
f 53/53/53 52/52/52 45/45/45
f 54/54/54 51/51/51 52/52/52
f 55/55/55 51/51/51 54/54/54
f 56/56/56 46/46/46 47/47/47
f 46/46/46 56/56/56 53/53/53
f 57/57/57 52/52/52 53/53/53
f 54/54/54 52/52/52 57/57/57
f 56/56/56 58/58/58 53/53/53
f 58/58/58 57/57/57 53/53/53
f 59/59/59 57/57/57 58/58/58
f 60/60/60 54/54/54 57/57/57
f 60/60/60 57/57/57 59/59/59
f 61/61/61 55/55/55 54/54/54
f 61/61/61 54/54/54 60/60/60
f 61/61/61 62/62/62 55/55/55
f 62/62/62 63/63/63 55/55/55
f 56/56/56 47/47/47 64/64/64
f 56/56/56 65/65/65 58/58/58
f 65/65/65 56/56/56 64/64/64
f 66/66/66 59/59/59 58/58/58
f 65/65/65 66/66/66 58/58/58
f 66/66/66 65/65/65 67/67/67
f 59/59/59 66/66/66 67/67/67
f 67/67/67 65/65/65 68/68/68
f 65/65/65 64/64/64 68/68/68
f 59/59/59 67/67/67 69/69/69
f 69/69/69 70/70/70 59/59/59
f 47/47/47 71/71/71 64/64/64
f 40/40/40 71/71/71 47/47/47
f 64/64/64 72/72/72 68/68/68
f 71/71/71 72/72/72 64/64/64
f 72/72/72 73/73/73 68/68/68
f 70/70/70 74/74/74 59/59/59
f 74/74/74 60/60/60 59/59/59
f 71/71/71 40/40/40 75/75/75
f 40/40/40 39/39/39 75/75/75
f 72/72/72 71/71/71 76/76/76
f 72/72/72 76/76/76 73/73/73
f 71/71/71 75/75/75 76/76/76
f 70/70/70 77/77/77 74/74/74
f 77/77/77 70/70/70 78/78/78
f 79/79/79 60/60/60 74/74/74
f 77/77/77 79/79/79 74/74/74
f 79/79/79 61/61/61 60/60/60
f 80/80/80 77/77/77 78/78/78
f 77/77/77 80/80/80 79/79/79
f 80/80/80 78/78/78 81/81/81
f 79/79/79 82/82/82 61/61/61
f 80/80/80 82/82/82 79/79/79
f 82/82/82 62/62/62 61/61/61
f 83/83/83 80/80/80 81/81/81
f 80/80/80 83/83/83 82/82/82
f 83/83/83 81/81/81 84/84/84
f 85/85/85 76/76/76 75/75/75
f 76/76/76 85/85/85 73/73/73
f 82/82/82 86/86/86 62/62/62
f 83/83/83 86/86/86 82/82/82
f 87/87/87 83/83/83 84/84/84
f 86/86/86 83/83/83 87/87/87
f 87/87/87 84/84/84 88/88/88
f 89/89/89 85/85/85 75/75/75
f 89/89/89 75/75/75 39/39/39
f 38/38/38 89/89/89 39/39/39
f 73/73/73 85/85/85 90/90/90
f 90/90/90 85/85/85 89/89/89
f 90/90/90 91/91/91 73/73/73
f 91/91/91 92/92/92 73/73/73
f 91/91/91 93/93/93 92/92/92
f 93/93/93 91/91/91 94/94/94
f 95/95/95 89/89/89 38/38/38
f 95/95/95 90/90/90 89/89/89
f 91/91/91 90/90/90 95/95/95
f 41/41/41 95/95/95 38/38/38
f 96/96/96 95/95/95 41/41/41
f 96/96/96 91/91/91 95/95/95
f 43/43/43 96/96/96 41/41/41
f 91/91/91 97/97/97 94/94/94
f 97/97/97 91/91/91 96/96/96
f 94/94/94 97/97/97 98/98/98
f 99/99/99 96/96/96 43/43/43
f 99/99/99 97/97/97 96/96/96
f 97/97/97 100/100/100 98/98/98
f 100/100/100 97/97/97 99/99/99
f 98/98/98 100/100/100 101/101/101
f 102/102/102 99/99/99 43/43/43
f 102/102/102 43/43/43 44/44/44
f 100/100/100 103/103/103 101/101/101
f 101/101/101 103/103/103 104/104/104
f 105/105/105 100/100/100 99/99/99
f 105/105/105 99/99/99 102/102/102
f 100/100/100 105/105/105 103/103/103
f 106/106/106 102/102/102 44/44/44
f 106/106/106 44/44/44 107/107/107
f 108/108/108 106/106/106 107/107/107
f 103/103/103 109/109/109 104/104/104
f 104/104/104 109/109/109 110/110/110
f 111/111/111 105/105/105 102/102/102
f 111/111/111 102/102/102 106/106/106
f 105/105/105 112/112/112 103/103/103
f 103/103/103 112/112/112 109/109/109
f 105/105/105 111/111/111 112/112/112
f 111/111/111 113/113/113 112/112/112
f 112/112/112 114/114/114 109/109/109
f 109/109/109 115/115/115 110/110/110
f 109/109/109 114/114/114 115/115/115
f 110/110/110 115/115/115 116/116/116
f 117/117/117 111/111/111 106/106/106
f 111/111/111 117/117/117 113/113/113
f 117/117/117 106/106/106 108/108/108
f 117/117/117 118/118/118 113/113/113
f 119/119/119 117/117/117 108/108/108
f 117/117/117 119/119/119 118/118/118
f 119/119/119 108/108/108 120/120/120
f 119/119/119 121/121/121 118/118/118
f 122/122/122 119/119/119 120/120/120
f 121/121/121 119/119/119 122/122/122
f 121/121/121 122/122/122 123/123/123
f 114/114/114 124/124/124 115/115/115
f 114/114/114 125/125/125 124/124/124
f 122/122/122 126/126/126 123/123/123
f 122/122/122 127/127/127 126/126/126
f 115/115/115 124/124/124 128/128/128
f 115/115/115 128/128/128 116/116/116
f 125/125/125 129/129/129 124/124/124
f 125/125/125 130/130/130 129/129/129
f 130/130/130 123/123/123 131/131/131
f 130/130/130 131/131/131 129/129/129
f 124/124/124 129/129/129 132/132/132
f 124/124/124 132/132/132 128/128/128
f 123/123/123 126/126/126 133/133/133
f 123/123/123 133/133/133 131/131/131
f 129/129/129 131/131/131 134/134/134
f 129/129/129 134/134/134 132/132/132
f 131/131/131 133/133/133 135/135/135
f 131/131/131 135/135/135 134/134/134
f 136/136/136 116/116/116 128/128/128
f 137/137/137 116/116/116 136/136/136
f 137/137/137 136/136/136 138/138/138
f 139/139/139 137/137/137 138/138/138
f 136/136/136 128/128/128 140/140/140
f 136/136/136 140/140/140 138/138/138
f 128/128/128 132/132/132 141/141/141
f 128/128/128 141/141/141 140/140/140
f 132/132/132 134/134/134 142/142/142
f 132/132/132 142/142/142 141/141/141
f 133/133/133 143/143/143 135/135/135
f 133/133/133 126/126/126 143/143/143
f 134/134/134 135/135/135 144/144/144
f 134/134/134 144/144/144 142/142/142
f 145/145/145 139/139/139 138/138/138
f 146/146/146 139/139/139 145/145/145
f 140/140/140 141/141/141 147/147/147
f 138/138/138 140/140/140 147/147/147
f 135/135/135 143/143/143 148/148/148
f 135/135/135 148/148/148 144/144/144
f 141/141/141 142/142/142 149/149/149
f 142/142/142 150/150/150 149/149/149
f 142/142/142 144/144/144 150/150/150
f 141/141/141 149/149/149 151/151/151
f 147/147/147 141/141/141 151/151/151
f 152/152/152 138/138/138 147/147/147
f 152/152/152 147/147/147 151/151/151
f 144/144/144 153/153/153 150/150/150
f 144/144/144 148/148/148 153/153/153
f 152/152/152 154/154/154 138/138/138
f 154/154/154 145/145/145 138/138/138
f 155/155/155 152/152/152 151/151/151
f 152/152/152 155/155/155 154/154/154
f 150/150/150 153/153/153 156/156/156
f 157/157/157 150/150/150 156/156/156
f 148/148/148 158/158/158 153/153/153
f 156/156/156 153/153/153 159/159/159
f 153/153/153 158/158/158 159/159/159
f 148/148/148 160/160/160 158/158/158
f 143/143/143 160/160/160 148/148/148
f 143/143/143 161/161/161 160/160/160
f 126/126/126 161/161/161 143/143/143
f 126/126/126 162/162/162 161/161/161
f 127/127/127 162/162/162 126/126/126
f 162/162/162 127/127/127 163/163/163
f 127/127/127 164/164/164 163/163/163
f 157/157/157 156/156/156 165/165/165
f 156/156/156 159/159/159 166/166/166
f 165/165/165 156/156/156 166/166/166
f 167/167/167 157/157/157 165/165/165
f 151/151/151 157/157/157 167/167/167
f 168/168/168 151/151/151 167/167/167
f 168/168/168 155/155/155 151/151/151
f 169/169/169 168/168/168 167/167/167
f 155/155/155 168/168/168 169/169/169
f 170/170/170 167/167/167 165/165/165
f 170/170/170 169/169/169 167/167/167
f 171/171/171 170/170/170 165/165/165
f 171/171/171 165/165/165 166/166/166
f 170/170/170 171/171/171 172/172/172
f 173/173/173 170/170/170 172/172/172
f 166/166/166 159/159/159 174/174/174
f 175/175/175 171/171/171 166/166/166
f 175/175/175 166/166/166 174/174/174
f 172/172/172 171/171/171 176/176/176
f 171/171/171 175/175/175 176/176/176
f 159/159/159 177/177/177 174/174/174
f 159/159/159 158/158/158 177/177/177
f 158/158/158 178/178/178 177/177/177
f 160/160/160 178/178/178 158/158/158
f 160/160/160 179/179/179 178/178/178
f 179/179/179 177/177/177 178/178/178
f 161/161/161 179/179/179 160/160/160
f 180/180/180 174/174/174 177/177/177
f 179/179/179 180/180/180 177/177/177
f 161/161/161 181/181/181 179/179/179
f 181/181/181 180/180/180 179/179/179
f 162/162/162 181/181/181 161/161/161
f 182/182/182 175/175/175 174/174/174
f 174/174/174 180/180/180 182/182/182
f 180/180/180 181/181/181 183/183/183
f 180/180/180 183/183/183 182/182/182
f 181/181/181 162/162/162 184/184/184
f 181/181/181 184/184/184 183/183/183
f 162/162/162 163/163/163 184/184/184
f 175/175/175 182/182/182 185/185/185
f 182/182/182 183/183/183 185/185/185
f 176/176/176 175/175/175 185/185/185
f 183/183/183 186/186/186 185/185/185
f 183/183/183 184/184/184 186/186/186
f 185/185/185 186/186/186 176/176/176
f 184/184/184 163/163/163 187/187/187
f 184/184/184 187/187/187 186/186/186
f 186/186/186 188/188/188 176/176/176
f 186/186/186 187/187/187 188/188/188
f 176/176/176 188/188/188 172/172/172
f 163/163/163 189/189/189 187/187/187
f 163/163/163 164/164/164 189/189/189
f 188/188/188 190/190/190 172/172/172
f 172/172/172 190/190/190 173/173/173
f 187/187/187 191/191/191 188/188/188
f 187/187/187 189/189/189 191/191/191
f 188/188/188 191/191/191 190/190/190
f 190/190/190 192/192/192 173/173/173
f 173/173/173 192/192/192 193/193/193
f 191/191/191 194/194/194 190/190/190
f 190/190/190 194/194/194 192/192/192
f 192/192/192 195/195/195 193/193/193
f 193/193/193 195/195/195 169/169/169
f 189/189/189 196/196/196 191/191/191
f 191/191/191 196/196/196 194/194/194
f 196/196/196 197/197/197 194/194/194
f 189/189/189 198/198/198 196/196/196
f 194/194/194 199/199/199 192/192/192
f 194/194/194 197/197/197 199/199/199
f 192/192/192 199/199/199 195/195/195
f 197/197/197 200/200/200 199/199/199
f 199/199/199 200/200/200 201/201/201
f 199/199/199 201/201/201 195/195/195
f 200/200/200 202/202/202 201/201/201
f 189/189/189 203/203/203 198/198/198
f 164/164/164 203/203/203 189/189/189
f 203/203/203 204/204/204 198/198/198
f 198/198/198 204/204/204 205/205/205
f 164/164/164 206/206/206 203/203/203
f 203/203/203 206/206/206 204/204/204
f 206/206/206 164/164/164 207/207/207
f 208/208/208 206/206/206 207/207/207
f 209/209/209 206/206/206 208/208/208
f 206/206/206 209/209/209 204/204/204
f 63/63/63 209/209/209 208/208/208
f 204/204/204 210/210/210 205/205/205
f 204/204/204 209/209/209 210/210/210
f 205/205/205 210/210/210 211/211/211
f 212/212/212 209/209/209 63/63/63
f 209/209/209 212/212/212 210/210/210
f 62/62/62 212/212/212 63/63/63
f 86/86/86 212/212/212 62/62/62
f 210/210/210 213/213/213 211/211/211
f 210/210/210 212/212/212 213/213/213
f 212/212/212 86/86/86 213/213/213
f 213/213/213 86/86/86 87/87/87
f 211/211/211 213/213/213 214/214/214
f 213/213/213 87/87/87 214/214/214
f 214/214/214 87/87/87 88/88/88
f 214/214/214 88/88/88 215/215/215
f 202/202/202 214/214/214 215/215/215
f 202/202/202 215/215/215 216/216/216
f 201/201/201 202/202/202 216/216/216
f 216/216/216 217/217/217 201/201/201
f 217/217/217 216/216/216 218/218/218
f 217/217/217 218/218/218 219/219/219
f 218/218/218 220/220/220 219/219/219
f 201/201/201 217/217/217 221/221/221
f 221/221/221 217/217/217 219/219/219
f 195/195/195 201/201/201 221/221/221
f 195/195/195 221/221/221 222/222/222
f 221/221/221 219/219/219 222/222/222
f 195/195/195 222/222/222 169/169/169
f 222/222/222 223/223/223 169/169/169
f 219/219/219 223/223/223 222/222/222
f 223/223/223 155/155/155 169/169/169
f 220/220/220 224/224/224 219/219/219
f 220/220/220 225/225/225 224/224/224
f 155/155/155 223/223/223 226/226/226
f 155/155/155 226/226/226 154/154/154
f 227/227/227 223/223/223 219/219/219
f 224/224/224 227/227/227 219/219/219
f 223/223/223 227/227/227 226/226/226
f 228/228/228 227/227/227 224/224/224
f 227/227/227 228/228/228 226/226/226
f 225/225/225 229/229/229 224/224/224
f 229/229/229 228/228/228 224/224/224
f 154/154/154 226/226/226 230/230/230
f 154/154/154 230/230/230 145/145/145
f 228/228/228 231/231/231 226/226/226
f 231/231/231 228/228/228 229/229/229
f 226/226/226 231/231/231 230/230/230
f 229/229/229 225/225/225 232/232/232
f 232/232/232 231/231/231 229/229/229
f 225/225/225 233/233/233 232/232/232
f 233/233/233 146/146/146 232/232/232
f 234/234/234 146/146/146 145/145/145
f 230/230/230 234/234/234 145/145/145
f 230/230/230 231/231/231 234/234/234
f 146/146/146 234/234/234 232/232/232
f 231/231/231 232/232/232 234/234/234
f 237/237/237 236/236/236 235/235/235
f 238/238/238 237/237/237 235/235/235
f 239/239/239 238/238/238 235/235/235
f 240/240/240 239/239/239 235/235/235
f 241/241/241 239/239/239 240/240/240
f 242/242/242 241/241/241 240/240/240
f 243/243/243 239/239/239 241/241/241
f 244/244/244 243/243/243 241/241/241
f 245/245/245 238/238/238 239/239/239
f 243/243/243 245/245/245 239/239/239
f 246/246/246 237/237/237 238/238/238
f 245/245/245 246/246/246 238/238/238
f 246/246/246 247/247/247 237/237/237
f 247/247/247 248/248/248 237/237/237
f 247/247/247 249/249/249 248/248/248
f 249/249/249 250/250/250 248/248/248
f 251/251/251 249/249/249 247/247/247
f 252/252/252 251/251/251 247/247/247
f 252/252/252 247/247/247 246/246/246
f 253/253/253 252/252/252 246/246/246
f 253/253/253 246/246/246 245/245/245
f 254/254/254 252/252/252 253/253/253
f 255/255/255 254/254/254 253/253/253
f 256/256/256 253/253/253 245/245/245
f 256/256/256 245/245/245 243/243/243
f 255/255/255 253/253/253 256/256/256
f 257/257/257 256/256/256 243/243/243
f 257/257/257 243/243/243 244/244/244
f 258/258/258 255/255/255 256/256/256
f 259/259/259 255/255/255 258/258/258
f 260/260/260 259/259/259 258/258/258
f 261/261/261 260/260/260 258/258/258
f 262/262/262 261/261/261 258/258/258
f 262/262/262 258/258/258 256/256/256
f 257/257/257 262/262/262 256/256/256
f 263/263/263 262/262/262 257/257/257
f 264/264/264 257/257/257 244/244/244
f 264/264/264 263/263/263 257/257/257
f 264/264/264 244/244/244 265/265/265
f 266/266/266 263/263/263 264/264/264
f 267/267/267 264/264/264 265/265/265
f 267/267/267 266/266/266 264/264/264
f 270/270/270 269/269/269 268/268/268
f 269/269/269 271/271/271 268/268/268
f 271/271/271 269/269/269 272/272/272
f 273/273/273 271/271/271 272/272/272
f 268/268/268 271/271/271 274/274/274
f 271/271/271 273/273/273 274/274/274
f 275/275/275 268/268/268 274/274/274
f 273/273/273 276/276/276 274/274/274
f 275/275/275 274/274/274 277/277/277
f 274/274/274 276/276/276 277/277/277
f 278/278/278 275/275/275 277/277/277
f 276/276/276 279/279/279 277/277/277
f 278/278/278 277/277/277 280/280/280
f 277/277/277 279/279/279 280/280/280
f 281/281/281 278/278/278 280/280/280
f 281/281/281 280/280/280 282/282/282
f 279/279/279 283/283/283 280/280/280
f 282/282/282 280/280/280 283/283/283
f 284/284/284 281/281/281 282/282/282
f 285/285/285 282/282/282 283/283/283
f 284/284/284 282/282/282 286/286/286
f 285/285/285 287/287/287 282/282/282
f 282/282/282 288/288/288 286/286/286
f 287/287/287 288/288/288 282/282/282
f 286/286/286 288/288/288 289/289/289
f 290/290/290 288/288/288 287/287/287
f 288/288/288 290/290/290 289/289/289
f 291/291/291 290/290/290 287/287/287
f 289/289/289 290/290/290 292/292/292
f 290/290/290 291/291/291 292/292/292
f 291/291/291 293/293/293 292/292/292
f 294/294/294 289/289/289 292/292/292
f 293/293/293 295/295/295 292/292/292
f 292/292/292 296/296/296 294/294/294
f 295/295/295 296/296/296 292/292/292
f 296/296/296 295/295/295 297/297/297
f 296/296/296 298/298/298 294/294/294
f 296/296/296 297/297/297 298/298/298
f 295/295/295 299/299/299 297/297/297
f 297/297/297 300/300/300 298/298/298
f 297/297/297 299/299/299 301/301/301
f 300/300/300 297/297/297 302/302/302
f 303/303/303 297/297/297 301/301/301
f 297/297/297 303/303/303 302/302/302
f 306/306/306 305/305/305 304/304/304
f 307/307/307 306/306/306 304/304/304
f 310/310/310 309/309/309 308/308/308
f 311/311/311 310/310/310 308/308/308
f 311/311/311 308/308/308 312/312/312
f 313/313/313 311/311/311 312/312/312
f 313/313/313 312/312/312 314/314/314
f 315/315/315 313/313/313 314/314/314
f 318/318/318 317/317/317 316/316/316
f 319/319/319 318/318/318 316/316/316
f 322/322/322 321/321/321 320/320/320
f 323/323/323 322/322/322 320/320/320
f 324/324/324 322/322/322 323/323/323
f 325/325/325 324/324/324 323/323/323
f 326/326/326 324/324/324 325/325/325
f 327/327/327 326/326/326 325/325/325
f 330/330/330 329/329/329 328/328/328
f 329/329/329 330/330/330 331/331/331
f 332/332/332 330/330/330 328/328/328
f 332/332/332 328/328/328 333/333/333
f 330/330/330 334/334/334 331/331/331
f 331/331/331 334/334/334 335/335/335
f 336/336/336 332/332/332 333/333/333
f 336/336/336 333/333/333 337/337/337
f 338/338/338 336/336/336 337/337/337
f 337/337/337 339/339/339 338/338/338
f 339/339/339 340/340/340 338/338/338
f 339/339/339 341/341/341 340/340/340
f 338/338/338 342/342/342 336/336/336
f 338/338/338 340/340/340 342/342/342
f 336/336/336 343/343/343 332/332/332
f 342/342/342 343/343/343 336/336/336
f 341/341/341 344/344/344 340/340/340
f 344/344/344 341/341/341 345/345/345
f 340/340/340 346/346/346 342/342/342
f 342/342/342 346/346/346 343/343/343
f 340/340/340 344/344/344 346/346/346
f 343/343/343 347/347/347 332/332/332
f 332/332/332 347/347/347 330/330/330
f 346/346/346 348/348/348 343/343/343
f 343/343/343 348/348/348 347/347/347
f 349/349/349 344/344/344 345/345/345
f 349/349/349 345/345/345 350/350/350
f 344/344/344 351/351/351 346/346/346
f 346/346/346 351/351/351 348/348/348
f 352/352/352 351/351/351 344/344/344
f 351/351/351 352/352/352 348/348/348
f 349/349/349 352/352/352 344/344/344
f 348/348/348 353/353/353 347/347/347
f 348/348/348 352/352/352 353/353/353
f 347/347/347 354/354/354 330/330/330
f 347/347/347 353/353/353 354/354/354
f 354/354/354 355/355/355 330/330/330
f 353/353/353 355/355/355 354/354/354
f 355/355/355 334/334/334 330/330/330
f 352/352/352 356/356/356 353/353/353
f 356/356/356 352/352/352 349/349/349
f 353/353/353 356/356/356 355/355/355
f 357/357/357 349/349/349 350/350/350
f 357/357/357 356/356/356 349/349/349
f 357/357/357 350/350/350 335/335/335
f 356/356/356 358/358/358 355/355/355
f 355/355/355 358/358/358 334/334/334
f 358/358/358 356/356/356 357/357/357
f 359/359/359 357/357/357 335/335/335
f 334/334/334 359/359/359 335/335/335
f 359/359/359 358/358/358 357/357/357
f 358/358/358 359/359/359 334/334/334
f 362/362/362 361/361/361 360/360/360
f 363/363/363 361/361/361 362/362/362
f 364/364/364 363/363/363 362/362/362
f 365/365/365 364/364/364 362/362/362
f 364/364/364 365/365/365 366/366/366
f 367/367/367 366/366/366 365/365/365
f 368/368/368 363/363/363 364/364/364
f 369/369/369 362/362/362 360/360/360
f 369/369/369 365/365/365 362/362/362
f 369/369/369 360/360/360 365/365/365
f 360/360/360 370/370/370 365/365/365
f 365/365/365 370/370/370 371/371/371
f 372/372/372 365/365/365 371/371/371
f 372/372/372 367/367/367 365/365/365
f 372/372/372 371/371/371 373/373/373
f 367/367/367 372/372/372 373/373/373
f 366/366/366 367/367/367 373/373/373
f 374/374/374 366/366/366 373/373/373
f 366/366/366 374/374/374 375/375/375
f 376/376/376 366/366/366 375/375/375
f 376/376/376 375/375/375 377/377/377
f 378/378/378 376/376/376 377/377/377
f 366/366/366 376/376/376 378/378/378
f 377/377/377 379/379/379 378/378/378
f 380/380/380 366/366/366 378/378/378
f 379/379/379 380/380/380 378/378/378
f 380/380/380 364/364/364 366/366/366
f 380/380/380 379/379/379 381/381/381
f 364/364/364 380/380/380 381/381/381
f 379/379/379 382/382/382 381/381/381
f 381/381/381 382/382/382 368/368/368
f 383/383/383 368/368/368 364/364/364
f 383/383/383 364/364/364 381/381/381
f 383/383/383 381/381/381 368/368/368
f 386/386/386 385/385/385 384/384/384
f 385/385/385 387/387/387 384/384/384
f 387/387/387 388/388/388 384/384/384
f 387/387/387 389/389/389 388/388/388
f 389/389/389 390/390/390 388/388/388
f 389/389/389 391/391/391 390/390/390
f 391/391/391 392/392/392 390/390/390
f 391/391/391 393/393/393 392/392/392
f 393/393/393 394/394/394 392/392/392
f 393/393/393 395/395/395 394/394/394
f 395/395/395 396/396/396 394/394/394
f 394/394/394 396/396/396 392/392/392
f 395/395/395 397/397/397 396/396/396
f 392/392/392 398/398/398 390/390/390
f 396/396/396 398/398/398 392/392/392
f 397/397/397 399/399/399 396/396/396
f 398/398/398 396/396/396 399/399/399
f 397/397/397 400/400/400 399/399/399
f 390/390/390 401/401/401 388/388/388
f 398/398/398 401/401/401 390/390/390
f 388/388/388 402/402/402 384/384/384
f 401/401/401 402/402/402 388/388/388
f 401/401/401 398/398/398 403/403/403
f 403/403/403 398/398/398 399/399/399
f 400/400/400 404/404/404 399/399/399
f 400/400/400 405/405/405 404/404/404
f 399/399/399 404/404/404 406/406/406
f 405/405/405 406/406/406 404/404/404
f 403/403/403 399/399/399 406/406/406
f 405/405/405 407/407/407 406/406/406
f 407/407/407 408/408/408 406/406/406
f 403/403/403 406/406/406 408/408/408
f 407/407/407 409/409/409 408/408/408
f 410/410/410 401/401/401 403/403/403
f 401/401/401 410/410/410 402/402/402
f 410/410/410 403/403/403 408/408/408
f 402/402/402 411/411/411 384/384/384
f 411/411/411 386/386/386 384/384/384
f 410/410/410 412/412/412 402/402/402
f 410/410/410 408/408/408 412/412/412
f 402/402/402 412/412/412 411/411/411
f 409/409/409 413/413/413 408/408/408
f 408/408/408 413/413/413 412/412/412
f 409/409/409 414/414/414 413/413/413
f 386/386/386 411/411/411 415/415/415
f 412/412/412 415/415/415 411/411/411
f 412/412/412 413/413/413 415/415/415
f 416/416/416 386/386/386 415/415/415
f 414/414/414 416/416/416 417/417/417
f 414/414/414 417/417/417 413/413/413
f 416/416/416 415/415/415 417/417/417
f 413/413/413 417/417/417 415/415/415
f 420/420/420 419/419/419 418/418/418
f 419/419/419 421/421/421 418/418/418
f 419/419/419 420/420/420 422/422/422
f 419/419/419 423/423/423 421/421/421
f 419/419/419 422/422/422 424/424/424
f 419/419/419 425/425/425 423/423/423
f 419/419/419 424/424/424 426/426/426
f 419/419/419 426/426/426 425/425/425
f 429/429/429 428/428/428 427/427/427
f 430/430/430 429/429/429 427/427/427
f 428/428/428 429/429/429 431/431/431
f 432/432/432 429/429/429 430/430/430
f 431/431/431 429/429/429 433/433/433
f 434/434/434 429/429/429 432/432/432
f 433/433/433 429/429/429 435/435/435
f 435/435/435 429/429/429 434/434/434
f 438/438/438 437/437/437 436/436/436
f 438/438/438 439/439/439 437/437/437
f 437/437/437 440/440/440 436/436/436
f 436/436/436 440/440/440 441/441/441
f 441/441/441 442/442/442 439/439/439
f 440/440/440 442/442/442 441/441/441
f 439/439/439 443/443/443 437/437/437
f 442/442/442 443/443/443 439/439/439
f 437/437/437 444/444/444 440/440/440
f 443/443/443 445/445/445 437/437/437
f 445/445/445 444/444/444 437/437/437
f 440/440/440 446/446/446 442/442/442
f 444/444/444 446/446/446 440/440/440
f 442/442/442 447/447/447 443/443/443
f 447/447/447 445/445/445 443/443/443
f 446/446/446 447/447/447 442/442/442
f 444/444/444 448/448/448 446/446/446
f 445/445/445 449/449/449 444/444/444
f 449/449/449 448/448/448 444/444/444
f 446/446/446 450/450/450 447/447/447
f 448/448/448 450/450/450 446/446/446
f 447/447/447 451/451/451 445/445/445
f 451/451/451 449/449/449 445/445/445
f 450/450/450 451/451/451 447/447/447
f 448/448/448 452/452/452 450/450/450
f 452/452/452 448/448/448 449/449/449
f 450/450/450 453/453/453 451/451/451
f 452/452/452 453/453/453 450/450/450
f 451/451/451 454/454/454 449/449/449
f 453/453/453 454/454/454 451/451/451
f 455/455/455 452/452/452 449/449/449
f 454/454/454 455/455/455 449/449/449
f 452/452/452 456/456/456 453/453/453
f 456/456/456 452/452/452 455/455/455
f 456/456/456 455/455/455 454/454/454
f 456/456/456 454/454/454 453/453/453
f 459/459/459 458/458/458 457/457/457
f 459/459/459 460/460/460 458/458/458
f 458/458/458 461/461/461 457/457/457
f 457/457/457 461/461/461 462/462/462
f 462/462/462 463/463/463 460/460/460
f 461/461/461 463/463/463 462/462/462
f 460/460/460 464/464/464 458/458/458
f 463/463/463 464/464/464 460/460/460
f 458/458/458 465/465/465 461/461/461
f 464/464/464 466/466/466 458/458/458
f 466/466/466 465/465/465 458/458/458
f 461/461/461 467/467/467 463/463/463
f 465/465/465 467/467/467 461/461/461
f 463/463/463 468/468/468 464/464/464
f 468/468/468 466/466/466 464/464/464
f 467/467/467 468/468/468 463/463/463
f 465/465/465 469/469/469 467/467/467
f 466/466/466 470/470/470 465/465/465
f 470/470/470 469/469/469 465/465/465
f 467/467/467 471/471/471 468/468/468
f 469/469/469 471/471/471 467/467/467
f 468/468/468 472/472/472 466/466/466
f 471/471/471 472/472/472 468/468/468
f 472/472/472 470/470/470 466/466/466
f 473/473/473 471/471/471 469/469/469
f 471/471/471 473/473/473 472/472/472
f 474/474/474 469/469/469 470/470/470
f 474/474/474 473/473/473 469/469/469
f 473/473/473 475/475/475 472/472/472
f 472/472/472 475/475/475 470/470/470
f 476/476/476 474/474/474 470/470/470
f 475/475/475 476/476/476 470/470/470
f 474/474/474 477/477/477 473/473/473
f 477/477/477 474/474/474 476/476/476
f 477/477/477 476/476/476 475/475/475
f 477/477/477 475/475/475 473/473/473
f 480/480/480 479/479/479 478/478/478
f 481/481/481 479/479/479 480/480/480
f 482/482/482 480/480/480 478/478/478
f 482/482/482 478/478/478 483/483/483
f 484/484/484 483/483/483 481/481/481
f 484/484/484 482/482/482 483/483/483
f 485/485/485 481/481/481 480/480/480
f 485/485/485 484/484/484 481/481/481
f 480/480/480 482/482/482 486/486/486
f 482/482/482 484/484/484 487/487/487
f 486/486/486 482/482/482 487/487/487
f 484/484/484 485/485/485 488/488/488
f 487/487/487 484/484/484 488/488/488
f 485/485/485 480/480/480 489/489/489
f 489/489/489 480/480/480 486/486/486
f 488/488/488 485/485/485 489/489/489
f 486/486/486 487/487/487 490/490/490
f 489/489/489 486/486/486 491/491/491
f 486/486/486 490/490/490 491/491/491
f 487/487/487 488/488/488 492/492/492
f 487/487/487 492/492/492 490/490/490
f 488/488/488 489/489/489 493/493/493
f 489/489/489 491/491/491 493/493/493
f 488/488/488 493/493/493 492/492/492
f 494/494/494 491/491/491 490/490/490
f 495/495/495 490/490/490 492/492/492
f 495/495/495 494/494/494 490/490/490
f 493/493/493 491/491/491 496/496/496
f 491/491/491 494/494/494 496/496/496
f 497/497/497 492/492/492 493/493/493
f 497/497/497 495/495/495 492/492/492
f 496/496/496 497/497/497 493/493/493
f 498/498/498 494/494/494 495/495/495
f 497/497/497 498/498/498 495/495/495
f 496/496/496 498/498/498 497/497/497
f 494/494/494 498/498/498 496/496/496
f 501/501/501 500/500/500 499/499/499
f 499/499/499 500/500/500 502/502/502
f 503/503/503 501/501/501 499/499/499
f 504/504/504 501/501/501 503/503/503
f 505/505/505 502/502/502 504/504/504
f 505/505/505 499/499/499 502/502/502
f 506/506/506 504/504/504 503/503/503
f 506/506/506 505/505/505 504/504/504
f 499/499/499 505/505/505 507/507/507
f 503/503/503 499/499/499 508/508/508
f 508/508/508 499/499/499 507/507/507
f 505/505/505 506/506/506 509/509/509
f 507/507/507 505/505/505 509/509/509
f 506/506/506 503/503/503 510/510/510
f 510/510/510 503/503/503 508/508/508
f 509/509/509 506/506/506 510/510/510
f 508/508/508 507/507/507 511/511/511
f 510/510/510 508/508/508 512/512/512
f 508/508/508 511/511/511 512/512/512
f 507/507/507 509/509/509 513/513/513
f 507/507/507 513/513/513 511/511/511
f 509/509/509 510/510/510 514/514/514
f 510/510/510 512/512/512 514/514/514
f 509/509/509 514/514/514 513/513/513
f 515/515/515 511/511/511 513/513/513
f 512/512/512 511/511/511 515/515/515
f 516/516/516 513/513/513 514/514/514
f 516/516/516 515/515/515 513/513/513
f 514/514/514 512/512/512 517/517/517
f 517/517/517 516/516/516 514/514/514
f 518/518/518 512/512/512 515/515/515
f 512/512/512 518/518/518 517/517/517
f 516/516/516 519/519/519 515/515/515
f 517/517/517 519/519/519 516/516/516
f 518/518/518 519/519/519 517/517/517
f 519/519/519 518/518/518 515/515/515
f 522/522/522 521/521/521 520/520/520
f 522/522/522 520/520/520 523/523/523
f 521/521/521 524/524/524 520/520/520
f 521/521/521 525/525/525 524/524/524
f 525/525/525 526/526/526 524/524/524
f 525/525/525 527/527/527 526/526/526
f 527/527/527 528/528/528 526/526/526
f 527/527/527 529/529/529 528/528/528
f 529/529/529 530/530/530 528/528/528
f 530/530/530 529/529/529 531/531/531
f 520/520/520 532/532/532 523/523/523
f 520/520/520 524/524/524 533/533/533
f 520/520/520 533/533/533 532/532/532
f 524/524/524 526/526/526 534/534/534
f 524/524/524 534/534/534 533/533/533
f 526/526/526 528/528/528 535/535/535
f 526/526/526 535/535/535 534/534/534
f 533/533/533 534/534/534 536/536/536
f 534/534/534 535/535/535 536/536/536
f 528/528/528 537/537/537 535/535/535
f 528/528/528 530/530/530 537/537/537
f 523/523/523 532/532/532 538/538/538
f 539/539/539 523/523/523 538/538/538
f 533/533/533 540/540/540 532/532/532
f 533/533/533 536/536/536 540/540/540
f 532/532/532 540/540/540 541/541/541
f 536/536/536 541/541/541 540/540/540
f 538/538/538 532/532/532 541/541/541
f 536/536/536 535/535/535 542/542/542
f 536/536/536 542/542/542 541/541/541
f 535/535/535 537/537/537 542/542/542
f 539/539/539 538/538/538 543/543/543
f 544/544/544 539/539/539 543/543/543
f 538/538/538 541/541/541 545/545/545
f 542/542/542 545/545/545 541/541/541
f 543/543/543 538/538/538 545/545/545
f 542/542/542 537/537/537 546/546/546
f 542/542/542 546/546/546 545/545/545
f 544/544/544 543/543/543 547/547/547
f 548/548/548 544/544/544 547/547/547
f 531/531/531 548/548/548 547/547/547
f 543/543/543 545/545/545 549/549/549
f 547/547/547 543/543/543 549/549/549
f 546/546/546 549/549/549 545/545/545
f 550/550/550 531/531/531 547/547/547
f 550/550/550 547/547/547 549/549/549
f 546/546/546 550/550/550 549/549/549
f 550/550/550 530/530/530 531/531/531
f 530/530/530 551/551/551 537/537/537
f 537/537/537 551/551/551 546/546/546
f 551/551/551 530/530/530 550/550/550
f 546/546/546 551/551/551 550/550/550
f 554/554/554 553/553/553 552/552/552
f 552/552/552 553/553/553 555/555/555
f 556/556/556 554/554/554 552/552/552
f 556/556/556 552/552/552 557/557/557
f 556/556/556 558/558/558 554/554/554
f 558/558/558 556/556/556 557/557/557
f 558/558/558 559/559/559 554/554/554
f 558/558/558 560/560/560 559/559/559
f 560/560/560 558/558/558 557/557/557
f 560/560/560 561/561/561 559/559/559
f 560/560/560 562/562/562 561/561/561
f 562/562/562 560/560/560 557/557/557
f 562/562/562 563/563/563 561/561/561
f 564/564/564 563/563/563 562/562/562
f 565/565/565 552/552/552 555/555/555
f 552/552/552 565/565/565 557/557/557
f 565/565/565 555/555/555 566/566/566
f 565/565/565 566/566/566 557/557/557
f 555/555/555 567/567/567 566/566/566
f 566/566/566 567/567/567 564/564/564
f 568/568/568 564/564/564 562/562/562
f 568/568/568 562/562/562 557/557/557
f 568/568/568 566/566/566 564/564/564
f 566/566/566 568/568/568 557/557/557
f 571/571/571 570/570/570 569/569/569
f 569/569/569 570/570/570 572/572/572
f 573/573/573 569/569/569 572/572/572
f 569/569/569 573/573/573 574/574/574
f 573/573/573 572/572/572 575/575/575
f 576/576/576 571/571/571 569/569/569
f 576/576/576 569/569/569 574/574/574
f 576/576/576 577/577/577 571/571/571
f 577/577/577 576/576/576 574/574/574
f 577/577/577 578/578/578 571/571/571
f 579/579/579 578/578/578 577/577/577
f 580/580/580 573/573/573 575/575/575
f 573/573/573 580/580/580 574/574/574
f 580/580/580 575/575/575 581/581/581
f 580/580/580 581/581/581 574/574/574
f 575/575/575 582/582/582 581/581/581
f 581/581/581 582/582/582 583/583/583
f 581/581/581 583/583/583 574/574/574
f 582/582/582 584/584/584 583/583/583
f 583/583/583 584/584/584 579/579/579
f 585/585/585 579/579/579 577/577/577
f 585/585/585 577/577/577 574/574/574
f 585/585/585 583/583/583 579/579/579
f 583/583/583 585/585/585 574/574/574
f 588/588/588 587/587/587 586/586/586
f 589/589/589 586/586/586 587/587/587
f 590/590/590 589/589/589 587/587/587
f 591/591/591 589/589/589 590/590/590
f 592/592/592 591/591/591 590/590/590
f 592/592/592 588/588/588 593/593/593
f 593/593/593 588/588/588 586/586/586
f 591/591/591 592/592/592 593/593/593
f 589/589/589 594/594/594 586/586/586
f 589/589/589 591/591/591 594/594/594
f 593/593/593 586/586/586 595/595/595
f 594/594/594 595/595/595 586/586/586
f 591/591/591 593/593/593 596/596/596
f 596/596/596 593/593/593 595/595/595
f 591/591/591 597/597/597 594/594/594
f 597/597/597 591/591/591 596/596/596
f 598/598/598 595/595/595 594/594/594
f 596/596/596 595/595/595 598/598/598
f 599/599/599 594/594/594 597/597/597
f 599/599/599 598/598/598 594/594/594
f 597/597/597 596/596/596 600/600/600
f 600/600/600 596/596/596 598/598/598
f 601/601/601 599/599/599 597/597/597
f 601/601/601 597/597/597 600/600/600
f 599/599/599 602/602/602 598/598/598
f 598/598/598 603/603/603 600/600/600
f 602/602/602 603/603/603 598/598/598
f 601/601/601 604/604/604 599/599/599
f 604/604/604 602/602/602 599/599/599
f 600/600/600 605/605/605 601/601/601
f 603/603/603 605/605/605 600/600/600
f 605/605/605 604/604/604 601/601/601
f 604/604/604 606/606/606 602/602/602
f 602/602/602 606/606/606 603/603/603
f 604/604/604 605/605/605 606/606/606
f 606/606/606 605/605/605 603/603/603
