g door_Fridge_Left
v -0.002604723 6.7779307 -0.099741586
v -0.002604723 6.7779307 0.098127946
v -3.7484796 6.7779307 0.098127946
v -3.7484796 6.7779307 -0.099741586
v -0.002604723 0.002604723 -0.099741586
v -0.002604723 0.002604723 0.098127946
v -0.002604723 6.7779307 0.098127946
v -0.002604723 6.7779307 -0.099741586
v -3.55061 6.580061 0.098127946
v -3.55061 6.580061 -0.099741586
v -3.55061 0.20047425 -0.099741586
v -3.55061 0.20047425 0.098127946
v -0.20047425 6.580061 0.098127946
v -0.20047425 6.580061 -0.099741586
v -3.55061 6.580061 -0.099741586
v -3.55061 6.580061 0.098127946
v -3.7484796 0.002604723 -0.099741586
v -3.7484796 0.002604723 0.098127946
v -0.002604723 0.002604723 0.098127946
v -0.002604723 0.002604723 -0.099741586
v -3.7484796 6.7779307 0.098127946
v -3.7484796 0.002604723 0.098127946
v -3.7484796 0.002604723 -0.099741586
v -3.7484796 6.7779307 -0.099741586
v -3.55061 0.20047425 0.098127946
v -3.55061 0.20047425 -0.099741586
v -0.20047425 0.20047425 -0.099741586
v -0.20047425 0.20047425 0.098127946
v -0.20047425 0.20047425 0.098127946
v -0.20047425 0.20047425 -0.099741586
v -0.20047425 6.580061 -0.099741586
v -0.20047425 6.580061 0.098127946
v -3.3936791 4.096457 -0.099741586
v -3.3936791 2.684078 -0.099741586
v -3.7484796 2.684078 -0.099741586
v -3.7484796 4.096457 -0.099741586
v -3.3936791 4.096457 -0.2020879
v -3.7484796 4.096457 -0.2020879
v -3.7484796 2.684078 -0.2020879
v -3.3936791 2.684078 -0.2020879
v -3.3936791 2.684078 -0.099741586
v -3.3936791 2.684078 -0.2020879
v -3.7484796 2.684078 -0.2020879
v -3.7484796 2.684078 -0.099741586
v -3.3936791 4.096457 -0.099741586
v -3.3936791 4.096457 -0.2020879
v -3.3936791 2.684078 -0.2020879
v -3.3936791 2.684078 -0.099741586
v -3.7484796 4.096457 -0.099741586
v -3.7484796 4.096457 -0.2020879
v -3.3936791 4.096457 -0.2020879
v -3.3936791 4.096457 -0.099741586
v -3.7484796 2.684078 -0.099741586
v -3.7484796 2.684078 -0.2020879
v -3.7484796 4.096457 -0.2020879
v -3.7484796 4.096457 -0.099741586
v -3.55061 6.580061 -0.099741586
v -3.7484796 0.002604723 -0.099741586
v -3.55061 0.20047425 -0.099741586
v -3.7484796 6.7779307 -0.099741586
v -0.002604723 0.002604723 -0.099741586
v -0.20047425 6.580061 -0.099741586
v -0.20047425 0.20047425 -0.099741586
v -0.002604723 6.7779307 -0.099741586
v -3.55061 0.20047425 0.098127946
v -3.7484796 6.7779307 0.098127946
v -3.55061 6.580061 0.098127946
v -3.7484796 0.002604723 0.098127946
v -0.002604723 6.7779307 0.098127946
v -0.20047425 0.20047425 0.098127946
v -0.20047425 6.580061 0.098127946
v -0.002604723 0.002604723 0.098127946
v -0.098127946 0.098127946 0.050366327
v -3.6529565 0.098127946 0.050366327
v -3.6529565 6.6755843 0.050366327
v -0.098127946 6.6755843 0.050366327
v -3.6529565 0.098127946 -0.051979974
v -0.098127946 0.098127946 -0.051979974
v -0.098127946 6.6755843 -0.051979974
v -3.6529565 6.6755843 -0.051979974
vt 0.78275704 0.15699698
vt 0.78275704 0.15699698
vt 0.78275704 0.15699698
vt 0.78275704 0.15699698
vt 0.78275704 0.15699698
vt 0.78275704 0.15699698
vt 0.78275704 0.15699698
vt 0.78275704 0.15699698
vt 0.78275704 0.15699698
vt 0.78275704 0.15699698
vt 0.78275704 0.15699698
vt 0.78275704 0.15699698
vt 0.78275704 0.15699698
vt 0.78275704 0.15699698
vt 0.78275704 0.15699698
vt 0.78275704 0.15699698
vt 0.78275704 0.15699698
vt 0.78275704 0.15699698
vt 0.78275704 0.15699698
vt 0.78275704 0.15699698
vt 0.78275704 0.15699698
vt 0.78275704 0.15699698
vt 0.78275704 0.15699698
vt 0.78275704 0.15699698
vt 0.78275704 0.15699698
vt 0.78275704 0.15699698
vt 0.78275704 0.15699698
vt 0.78275704 0.15699698
vt 0.78275704 0.15699698
vt 0.78275704 0.15699698
vt 0.78275704 0.15699698
vt 0.78275704 0.15699698
vt 0.78275704 0.15699698
vt 0.78275704 0.15699698
vt 0.78275704 0.15699698
vt 0.78275704 0.15699698
vt 0.78275704 0.15699698
vt 0.78275704 0.15699698
vt 0.78275704 0.15699698
vt 0.78275704 0.15699698
vt 0.78275704 0.15699698
vt 0.78275704 0.15699698
vt 0.78275704 0.15699698
vt 0.78275704 0.15699698
vt 0.78275704 0.15699698
vt 0.78275704 0.15699698
vt 0.78275704 0.15699698
vt 0.78275704 0.15699698
vt 0.78275704 0.15699698
vt 0.78275704 0.15699698
vt 0.78275704 0.15699698
vt 0.78275704 0.15699698
vt 0.78275704 0.15699698
vt 0.78275704 0.15699698
vt 0.78275704 0.15699698
vt 0.78275704 0.15699698
vt 0.78275704 0.15699698
vt 0.78275704 0.15699698
vt 0.78275704 0.15699698
vt 0.78275704 0.15699698
vt 0.78275704 0.15699698
vt 0.78275704 0.15699698
vt 0.78275704 0.15699698
vt 0.78275704 0.15699698
vt 0.78275704 0.15699698
vt 0.78275704 0.15699698
vt 0.78275704 0.15699698
vt 0.78275704 0.15699698
vt 0.78275704 0.15699698
vt 0.78275704 0.15699698
vt 0.78275704 0.15699698
vt 0.78275704 0.15699698
vt 0.12338176 0.3664456
vt 0.12338176 0.3664456
vt 0.12338176 0.3664456
vt 0.12338176 0.3664456
vt 0.12338176 0.3664456
vt 0.12338176 0.3664456
vt 0.12338176 0.3664456
vt 0.12338176 0.3664456
vn -0.015871048 0.999874 -0.00034526698
vn -0.015871048 0.999874 -0.00034526698
vn -0.015871048 0.999874 -0.00034526698
vn -0.015871048 0.999874 -0.00034526698
vn 0.999874 0.015871048 -0.00034391563
vn 0.999874 0.015871048 -0.00034391563
vn 0.999874 0.015871048 -0.00034391563
vn 0.999874 0.015871048 -0.00034391563
vn 0.999874 0.015871048 -0.00034391563
vn 0.999874 0.015871048 -0.00034391563
vn 0.999874 0.015871048 -0.00034391563
vn 0.999874 0.015871048 -0.00034391563
vn -0.015871048 -0.999874 -0.00034526698
vn -0.015871048 -0.999874 -0.00034526698
vn -0.015871048 -0.999874 -0.00034526698
vn -0.015871048 -0.999874 -0.00034526698
vn -0.015871048 -0.999874 -0.00034526698
vn -0.015871048 -0.999874 -0.00034526698
vn -0.015871048 -0.999874 -0.00034526698
vn -0.015871048 -0.999874 -0.00034526698
vn -0.999874 0.015871048 -0.00034391563
vn -0.999874 0.015871048 -0.00034391563
vn -0.999874 0.015871048 -0.00034391563
vn -0.999874 0.015871048 -0.00034391563
vn -0.015871048 0.999874 -0.00034526698
vn -0.015871048 0.999874 -0.00034526698
vn -0.015871048 0.999874 -0.00034526698
vn -0.015871048 0.999874 -0.00034526698
vn -0.999874 0.015871048 -0.00034391563
vn -0.999874 0.015871048 -0.00034391563
vn -0.999874 0.015871048 -0.00034391563
vn -0.999874 0.015871048 -0.00034391563
vn -0.015871048 0.015871048 0.99974805
vn -0.015871048 0.015871048 0.99974805
vn -0.015871048 0.015871048 0.99974805
vn -0.015871048 0.015871048 0.99974805
vn -0.015871048 0.015871048 -0.99974805
vn -0.015871048 0.015871048 -0.99974805
vn -0.015871048 0.015871048 -0.99974805
vn -0.015871048 0.015871048 -0.99974805
vn -0.015871048 -0.999874 -0.00034526698
vn -0.015871048 -0.999874 -0.00034526698
vn -0.015871048 -0.999874 -0.00034526698
vn -0.015871048 -0.999874 -0.00034526698
vn 0.999874 0.015871048 -0.00034391563
vn 0.999874 0.015871048 -0.00034391563
vn 0.999874 0.015871048 -0.00034391563
vn 0.999874 0.015871048 -0.00034391563
vn -0.015871048 0.999874 -0.00034526698
vn -0.015871048 0.999874 -0.00034526698
vn -0.015871048 0.999874 -0.00034526698
vn -0.015871048 0.999874 -0.00034526698
vn -0.999874 0.015871048 -0.00034391563
vn -0.999874 0.015871048 -0.00034391563
vn -0.999874 0.015871048 -0.00034391563
vn -0.999874 0.015871048 -0.00034391563
vn -0.015871048 0.015871048 -0.99974805
vn -0.015871048 0.015871048 -0.99974805
vn -0.015871048 0.015871048 -0.99974805
vn -0.015871048 0.015871048 -0.99974805
vn -0.015871048 0.015871048 -0.99974805
vn -0.015871048 0.015871048 -0.99974805
vn -0.015871048 0.015871048 -0.99974805
vn -0.015871048 0.015871048 -0.99974805
vn -0.015871048 0.015871048 0.99974805
vn -0.015871048 0.015871048 0.99974805
vn -0.015871048 0.015871048 0.99974805
vn -0.015871048 0.015871048 0.99974805
vn -0.015871048 0.015871048 0.99974805
vn -0.015871048 0.015871048 0.99974805
vn -0.015871048 0.015871048 0.99974805
vn -0.015871048 0.015871048 0.99974805
vn -0.015871048 0.015871048 0.99974805
vn -0.015871048 0.015871048 0.99974805
vn -0.015871048 0.015871048 0.99974805
vn -0.015871048 0.015871048 0.99974805
vn -0.015871048 0.015871048 -0.99974805
vn -0.015871048 0.015871048 -0.99974805
vn -0.015871048 0.015871048 -0.99974805
vn -0.015871048 0.015871048 -0.99974805
g door_Fridge_Left_0
f 3/3/3 2/2/2 1/1/1
f 4/4/4 3/3/3 1/1/1
f 7/7/7 6/6/6 5/5/5
f 8/8/8 7/7/7 5/5/5
f 11/11/11 10/10/10 9/9/9
f 12/12/12 11/11/11 9/9/9
f 15/15/15 14/14/14 13/13/13
f 16/16/16 15/15/15 13/13/13
f 19/19/19 18/18/18 17/17/17
f 20/20/20 19/19/19 17/17/17
f 23/23/23 22/22/22 21/21/21
f 24/24/24 23/23/23 21/21/21
f 27/27/27 26/26/26 25/25/25
f 28/28/28 27/27/27 25/25/25
f 31/31/31 30/30/30 29/29/29
f 32/32/32 31/31/31 29/29/29
f 35/35/35 34/34/34 33/33/33
f 36/36/36 35/35/35 33/33/33
f 39/39/39 38/38/38 37/37/37
f 40/40/40 39/39/39 37/37/37
f 43/43/43 42/42/42 41/41/41
f 44/44/44 43/43/43 41/41/41
f 47/47/47 46/46/46 45/45/45
f 48/48/48 47/47/47 45/45/45
f 51/51/51 50/50/50 49/49/49
f 52/52/52 51/51/51 49/49/49
f 55/55/55 54/54/54 53/53/53
f 56/56/56 55/55/55 53/53/53
f 59/59/59 58/58/58 57/57/57
f 58/58/58 60/60/60 57/57/57
f 61/61/61 58/58/58 59/59/59
f 57/57/57 60/60/60 62/62/62
f 63/63/63 61/61/61 59/59/59
f 60/60/60 64/64/64 62/62/62
f 64/64/64 61/61/61 63/63/63
f 62/62/62 64/64/64 63/63/63
f 67/67/67 66/66/66 65/65/65
f 66/66/66 68/68/68 65/65/65
f 69/69/69 66/66/66 67/67/67
f 65/65/65 68/68/68 70/70/70
f 71/71/71 69/69/69 67/67/67
f 68/68/68 72/72/72 70/70/70
f 72/72/72 69/69/69 71/71/71
f 70/70/70 72/72/72 71/71/71
g door_Fridge_Left_1
f 75/75/75 74/74/74 73/73/73
f 76/76/76 75/75/75 73/73/73
f 79/79/79 78/78/78 77/77/77
f 80/80/80 79/79/79 77/77/77
