g dottedCircle
v -2.3987703 0.099999994 -0.89224946
v -2.6578226 0.099999994 -1.310693
v -2.7656217 0.099999994 -1.0512834
v -2.2990737 0.099999994 -1.1337776
v -2.4640052 0.099999994 -1.6463954
v -2.1314173 0.099999994 -1.4241673
v -2.2932487 0.099999994 -1.8694568
v -1.9720956 0.099999994 -1.6312711
v -0.8922496 0.4 2.39877
v -1.0512836 0.4 2.7656217
v -1.3106934 0.4 2.6578226
v -1.1337779 0.4 2.2990737
v -1.6463958 0.4 2.4640048
v -1.4241674 0.4 2.131417
v -1.8694569 0.4 2.2932487
v -1.6312711 0.4 1.9720956
v -0.89224935 0.4 -2.3987706
v -1.3106931 0.4 -2.6578226
v -1.0512834 0.4 -2.7656212
v -1.1337776 0.4 -2.2990735
v -1.6463953 0.4 -2.4640048
v -1.4241673 0.4 -2.131417
v -1.6312715 0.4 -1.9720957
v -1.8694566 0.4 -2.293249
v -2.293249 0.099999994 1.8694569
v -2.293249 0.4 1.8694569
v -1.9720957 0.4 1.6312715
v -1.9720957 0.099999994 1.6312715
v -1.6312711 0.4 1.9720956
v -1.8694569 0.4 2.2932487
v -1.8694569 0.099999994 2.2932487
v -1.6312711 0.099999994 1.9720956
v -1.6312715 0.099999994 -1.9720957
v -1.6463953 0.099999994 -2.4640048
v -1.8694566 0.099999994 -2.293249
v -1.4241673 0.099999994 -2.131417
v -1.1337776 0.099999994 -2.2990735
v -1.3106931 0.099999994 -2.6578226
v -0.89224935 0.099999994 -2.3987706
v -1.0512834 0.099999994 -2.7656212
v -1.9720957 0.4 1.6312715
v -2.293249 0.4 1.8694569
v -2.4640048 0.4 1.6463953
v -2.131417 0.4 1.4241673
v -2.6578226 0.4 1.3106933
v -2.2990735 0.4 1.1337777
v -2.7656217 0.4 1.0512832
v -2.3987703 0.4 0.8922493
v -2.5235207 0.4 0.42667454
v -2.92074 0.4 0.47237277
v -2.9570885 0.4 0.19381787
v -2.557945 0.4 0.16765659
v -2.9570887 0.4 -0.19381778
v -2.557945 0.4 -0.16765639
v -2.92074 0.4 -0.47237292
v -2.5235205 0.4 -0.4266745
v -2.7656217 0.099999994 -1.0512834
v -2.7656217 0.4 -1.0512834
v -2.3987703 0.4 -0.89224946
v -2.3987703 0.099999994 -0.89224946
v -0.42667452 0.4 -2.5235207
v -0.4723728 0.4 -2.92074
v -0.1938179 0.4 -2.9570885
v -0.16765656 0.4 -2.557945
v -0 0.4 -2.557945
v -0 0.4 -2.9570882
v 0.1938179 0.4 -2.9570885
v 0.16765656 0.4 -2.557945
v 0.42667452 0.4 -2.5235207
v 0.4723728 0.4 -2.92074
v -0.8922496 0.099999994 2.39877
v -1.3106934 0.099999994 2.6578226
v -1.0512836 0.099999994 2.7656217
v -1.1337779 0.099999994 2.2990737
v -1.6463958 0.099999994 2.4640048
v -1.4241674 0.099999994 2.131417
v -1.8694569 0.099999994 2.2932487
v -1.6312711 0.099999994 1.9720956
v -1.6312715 0.099999994 -1.9720957
v -1.6312715 0.4 -1.9720957
v -1.4241673 0.4 -2.131417
v -1.4241673 0.099999994 -2.131417
v -1.1337776 0.4 -2.2990735
v -1.1337776 0.099999994 -2.2990735
v -0.89224935 0.4 -2.3987706
v -0.89224935 0.099999994 -2.3987706
v -1.9720957 0.099999994 1.6312715
v -2.4640048 0.099999994 1.6463953
v -2.293249 0.099999994 1.8694569
v -2.131417 0.099999994 1.4241673
v -2.6578226 0.099999994 1.3106933
v -2.2990735 0.099999994 1.1337777
v -2.7656217 0.099999994 1.0512832
v -2.3987703 0.099999994 0.8922493
v -2.7656217 0.099999994 1.0512832
v -2.7656217 0.4 1.0512832
v -2.6578226 0.4 1.3106933
v -2.6578226 0.099999994 1.3106933
v -2.4640048 0.4 1.6463953
v -2.4640048 0.099999994 1.6463953
v -2.293249 0.4 1.8694569
v -2.293249 0.099999994 1.8694569
v -2.5235207 0.099999994 0.42667454
v -2.9570885 0.099999994 0.19381787
v -2.92074 0.099999994 0.47237277
v -2.557945 0.099999994 0.16765659
v -2.9570887 0.099999994 -0.19381778
v -2.557945 0.099999994 -0.16765639
v -2.92074 0.099999994 -0.47237292
v -2.5235205 0.099999994 -0.4266745
v -2.7656217 0.4 1.0512832
v -2.7656217 0.099999994 1.0512832
v -2.3987703 0.099999994 0.8922493
v -2.3987703 0.4 0.8922493
v -0.42667452 0.099999994 -2.5235207
v -0.1938179 0.099999994 -2.9570885
v -0.4723728 0.099999994 -2.92074
v -0.16765656 0.099999994 -2.557945
v -0 0.099999994 -2.557945
v -0 0.099999994 -2.9570882
v 0.1938179 0.099999994 -2.9570885
v 0.16765656 0.099999994 -2.557945
v 0.42667452 0.099999994 -2.5235207
v 0.4723728 0.099999994 -2.92074
v -2.3987703 0.4 -0.89224946
v -2.7656217 0.4 -1.0512834
v -2.6578226 0.4 -1.310693
v -2.2990737 0.4 -1.1337776
v -2.4640052 0.4 -1.6463954
v -2.1314173 0.4 -1.4241673
v -2.2932487 0.4 -1.8694568
v -1.9720956 0.4 -1.6312711
v -2.92074 0.099999994 -0.47237292
v -2.92074 0.4 -0.47237292
v -2.9570887 0.4 -0.19381778
v -2.9570887 0.099999994 -0.19381778
v -2.9570885 0.4 0.19381787
v -2.9570885 0.099999994 0.19381787
v -2.92074 0.4 0.47237277
v -2.92074 0.099999994 0.47237277
v -0.89224935 0.099999994 -2.3987706
v -0.89224935 0.4 -2.3987706
v -1.0512834 0.4 -2.7656212
v -1.0512834 0.099999994 -2.7656212
v -1.9720957 0.099999994 1.6312715
v -1.9720957 0.4 1.6312715
v -2.131417 0.4 1.4241673
v -2.131417 0.099999994 1.4241673
v -2.2990735 0.4 1.1337777
v -2.2990735 0.099999994 1.1337777
v -2.3987703 0.4 0.8922493
v -2.3987703 0.099999994 0.8922493
v -2.5235205 0.099999994 -0.4266745
v -2.5235205 0.4 -0.4266745
v -2.92074 0.4 -0.47237292
v -2.92074 0.099999994 -0.47237292
v -0.47237253 0.099999994 2.9207401
v -0.47237253 0.4 2.9207401
v -0.19381757 0.4 2.9570887
v -0.19381757 0.099999994 2.9570887
v -0 0.4 2.9570882
v -0 0.099999994 2.9570882
v 0.19381757 0.099999994 2.9570887
v 0.19381757 0.4 2.9570887
v 0.47237253 0.099999994 2.9207401
v 0.47237253 0.4 2.9207401
v -2.5235207 0.099999994 0.42667454
v -2.5235207 0.4 0.42667454
v -2.557945 0.4 0.16765659
v -2.557945 0.099999994 0.16765659
v -2.557945 0.4 -0.16765639
v -2.557945 0.099999994 -0.16765639
v -2.5235205 0.4 -0.4266745
v -2.5235205 0.099999994 -0.4266745
v -2.92074 0.099999994 0.47237277
v -2.92074 0.4 0.47237277
v -2.5235207 0.4 0.42667454
v -2.5235207 0.099999994 0.42667454
v -1.8694566 0.099999994 -2.293249
v -1.8694566 0.4 -2.293249
v -1.6312715 0.4 -1.9720957
v -1.6312715 0.099999994 -1.9720957
v -1.8694569 0.099999994 2.2932487
v -1.8694569 0.4 2.2932487
v -1.6463958 0.4 2.4640048
v -1.6463958 0.099999994 2.4640048
v -1.3106934 0.4 2.6578226
v -1.3106934 0.099999994 2.6578226
v -1.0512836 0.4 2.7656217
v -1.0512836 0.099999994 2.7656217
v -2.2932487 0.099999994 -1.8694568
v -2.2932487 0.4 -1.8694568
v -2.4640052 0.4 -1.6463954
v -2.4640052 0.099999994 -1.6463954
v -2.6578226 0.4 -1.310693
v -2.6578226 0.099999994 -1.310693
v -2.7656217 0.4 -1.0512834
v -2.7656217 0.099999994 -1.0512834
v -2.3987703 0.099999994 -0.89224946
v -2.3987703 0.4 -0.89224946
v -2.2990737 0.4 -1.1337776
v -2.2990737 0.099999994 -1.1337776
v -2.1314173 0.4 -1.4241673
v -2.1314173 0.099999994 -1.4241673
v -1.9720956 0.4 -1.6312711
v -1.9720956 0.099999994 -1.6312711
v -0.8922496 0.099999994 2.39877
v -0.8922496 0.4 2.39877
v -1.1337779 0.4 2.2990737
v -1.1337779 0.099999994 2.2990737
v -1.4241674 0.4 2.131417
v -1.4241674 0.099999994 2.131417
v -1.6312711 0.4 1.9720956
v -1.6312711 0.099999994 1.9720956
v -1.0512834 0.099999994 -2.7656212
v -1.0512834 0.4 -2.7656212
v -1.3106931 0.4 -2.6578226
v -1.3106931 0.099999994 -2.6578226
v -1.6463953 0.4 -2.4640048
v -1.6463953 0.099999994 -2.4640048
v -1.8694566 0.4 -2.293249
v -1.8694566 0.099999994 -2.293249
v -1.9720956 0.099999994 -1.6312711
v -1.9720956 0.4 -1.6312711
v -2.2932487 0.4 -1.8694568
v -2.2932487 0.099999994 -1.8694568
v -0.42667452 0.099999994 -2.5235207
v -0.42667452 0.4 -2.5235207
v -0.16765656 0.4 -2.557945
v -0.16765656 0.099999994 -2.557945
v -0 0.4 -2.557945
v -0 0.099999994 -2.557945
v 0.16765656 0.099999994 -2.557945
v 0.16765656 0.4 -2.557945
v 0.42667452 0.099999994 -2.5235207
v 0.42667452 0.4 -2.5235207
v -0.4723728 0.099999994 -2.92074
v -0.4723728 0.4 -2.92074
v -0.42667452 0.4 -2.5235207
v -0.42667452 0.099999994 -2.5235207
v -0.47237253 0.099999994 2.9207401
v -0.42667425 0.099999994 2.5235207
v -0.42667425 0.4 2.5235207
v -0.47237253 0.4 2.9207401
v -1.0512836 0.4 2.7656217
v -0.8922496 0.4 2.39877
v -0.8922496 0.099999994 2.39877
v -1.0512836 0.099999994 2.7656217
v -0.16765635 0.099999994 2.557945
v -0.42667425 0.4 2.5235207
v -0.42667425 0.099999994 2.5235207
v -0.16765635 0.4 2.557945
v -0 0.099999994 2.5579448
v -0 0.4 2.5579448
v 0.16765635 0.4 2.557945
v 0.16765635 0.099999994 2.557945
v 0.42667425 0.4 2.5235207
v 0.42667425 0.099999994 2.5235207
v -0.16765635 0.099999994 2.557945
v -0.42667425 0.099999994 2.5235207
v -0.47237253 0.099999994 2.9207401
v -0.19381757 0.099999994 2.9570887
v -0 0.099999994 2.5579448
v -0 0.099999994 2.9570882
v 0.19381757 0.099999994 2.9570887
v 0.16765635 0.099999994 2.557945
v 0.47237253 0.099999994 2.9207401
v 0.42667425 0.099999994 2.5235207
v -0.16765635 0.4 2.557945
v -0.47237253 0.4 2.9207401
v -0.42667425 0.4 2.5235207
v -0.19381757 0.4 2.9570887
v -0 0.4 2.5579448
v -0 0.4 2.9570882
v 0.19381757 0.4 2.9570887
v 0.16765635 0.4 2.557945
v 0.47237253 0.4 2.9207401
v 0.42667425 0.4 2.5235207
v -0.1938179 0.099999994 -2.9570885
v -0.4723728 0.4 -2.92074
v -0.4723728 0.099999994 -2.92074
v -0.1938179 0.4 -2.9570885
v -0 0.099999994 -2.9570882
v -0 0.4 -2.9570882
v 0.1938179 0.4 -2.9570885
v 0.1938179 0.099999994 -2.9570885
v 0.4723728 0.4 -2.92074
v 0.4723728 0.099999994 -2.92074
v 2.3987703 0.099999994 -0.89224946
v 2.7656217 0.099999994 -1.0512834
v 2.6578226 0.099999994 -1.310693
v 2.2990737 0.099999994 -1.1337776
v 2.4640052 0.099999994 -1.6463954
v 2.1314173 0.099999994 -1.4241673
v 2.2932487 0.099999994 -1.8694568
v 1.9720956 0.099999994 -1.6312711
v 0.8922496 0.4 2.39877
v 1.3106934 0.4 2.6578226
v 1.0512836 0.4 2.7656217
v 1.1337779 0.4 2.2990737
v 1.6463958 0.4 2.4640048
v 1.4241674 0.4 2.131417
v 1.8694569 0.4 2.2932487
v 1.6312711 0.4 1.9720956
v 0.89224935 0.4 -2.3987706
v 1.0512834 0.4 -2.7656212
v 1.3106931 0.4 -2.6578226
v 1.1337776 0.4 -2.2990735
v 1.6463953 0.4 -2.4640048
v 1.4241673 0.4 -2.131417
v 1.6312715 0.4 -1.9720957
v 1.8694566 0.4 -2.293249
v 2.293249 0.099999994 1.8694569
v 1.9720957 0.099999994 1.6312715
v 1.9720957 0.4 1.6312715
v 2.293249 0.4 1.8694569
v 1.6312711 0.4 1.9720956
v 1.6312711 0.099999994 1.9720956
v 1.8694569 0.099999994 2.2932487
v 1.8694569 0.4 2.2932487
v 1.6312715 0.099999994 -1.9720957
v 1.8694566 0.099999994 -2.293249
v 1.6463953 0.099999994 -2.4640048
v 1.4241673 0.099999994 -2.131417
v 1.1337776 0.099999994 -2.2990735
v 1.3106931 0.099999994 -2.6578226
v 0.89224935 0.099999994 -2.3987706
v 1.0512834 0.099999994 -2.7656212
v 1.9720957 0.4 1.6312715
v 2.4640048 0.4 1.6463953
v 2.293249 0.4 1.8694569
v 2.131417 0.4 1.4241673
v 2.6578226 0.4 1.3106933
v 2.2990735 0.4 1.1337777
v 2.7656217 0.4 1.0512832
v 2.3987703 0.4 0.8922493
v 2.5235207 0.4 0.42667454
v 2.9570885 0.4 0.19381787
v 2.92074 0.4 0.47237277
v 2.557945 0.4 0.16765659
v 2.9570887 0.4 -0.19381778
v 2.557945 0.4 -0.16765639
v 2.92074 0.4 -0.47237292
v 2.5235205 0.4 -0.4266745
v 2.7656217 0.099999994 -1.0512834
v 2.3987703 0.099999994 -0.89224946
v 2.3987703 0.4 -0.89224946
v 2.7656217 0.4 -1.0512834
v 0.8922496 0.099999994 2.39877
v 1.0512836 0.099999994 2.7656217
v 1.3106934 0.099999994 2.6578226
v 1.1337779 0.099999994 2.2990737
v 1.6463958 0.099999994 2.4640048
v 1.4241674 0.099999994 2.131417
v 1.8694569 0.099999994 2.2932487
v 1.6312711 0.099999994 1.9720956
v 1.6312715 0.099999994 -1.9720957
v 1.4241673 0.4 -2.131417
v 1.6312715 0.4 -1.9720957
v 1.4241673 0.099999994 -2.131417
v 1.1337776 0.4 -2.2990735
v 1.1337776 0.099999994 -2.2990735
v 0.89224935 0.4 -2.3987706
v 0.89224935 0.099999994 -2.3987706
v 1.9720957 0.099999994 1.6312715
v 2.293249 0.099999994 1.8694569
v 2.4640048 0.099999994 1.6463953
v 2.131417 0.099999994 1.4241673
v 2.6578226 0.099999994 1.3106933
v 2.2990735 0.099999994 1.1337777
v 2.7656217 0.099999994 1.0512832
v 2.3987703 0.099999994 0.8922493
v 2.7656217 0.099999994 1.0512832
v 2.6578226 0.4 1.3106933
v 2.7656217 0.4 1.0512832
v 2.6578226 0.099999994 1.3106933
v 2.4640048 0.4 1.6463953
v 2.4640048 0.099999994 1.6463953
v 2.293249 0.4 1.8694569
v 2.293249 0.099999994 1.8694569
v 2.5235207 0.099999994 0.42667454
v 2.92074 0.099999994 0.47237277
v 2.9570885 0.099999994 0.19381787
v 2.557945 0.099999994 0.16765659
v 2.9570887 0.099999994 -0.19381778
v 2.557945 0.099999994 -0.16765639
v 2.92074 0.099999994 -0.47237292
v 2.5235205 0.099999994 -0.4266745
v 2.7656217 0.4 1.0512832
v 2.3987703 0.4 0.8922493
v 2.3987703 0.099999994 0.8922493
v 2.7656217 0.099999994 1.0512832
v 2.3987703 0.4 -0.89224946
v 2.6578226 0.4 -1.310693
v 2.7656217 0.4 -1.0512834
v 2.2990737 0.4 -1.1337776
v 2.4640052 0.4 -1.6463954
v 2.1314173 0.4 -1.4241673
v 2.2932487 0.4 -1.8694568
v 1.9720956 0.4 -1.6312711
v 2.92074 0.099999994 -0.47237292
v 2.9570887 0.4 -0.19381778
v 2.92074 0.4 -0.47237292
v 2.9570887 0.099999994 -0.19381778
v 2.9570885 0.4 0.19381787
v 2.9570885 0.099999994 0.19381787
v 2.92074 0.4 0.47237277
v 2.92074 0.099999994 0.47237277
v 0.89224935 0.099999994 -2.3987706
v 1.0512834 0.099999994 -2.7656212
v 1.0512834 0.4 -2.7656212
v 0.89224935 0.4 -2.3987706
v 1.9720957 0.099999994 1.6312715
v 2.131417 0.4 1.4241673
v 1.9720957 0.4 1.6312715
v 2.131417 0.099999994 1.4241673
v 2.2990735 0.4 1.1337777
v 2.2990735 0.099999994 1.1337777
v 2.3987703 0.4 0.8922493
v 2.3987703 0.099999994 0.8922493
v 2.5235205 0.099999994 -0.4266745
v 2.92074 0.099999994 -0.47237292
v 2.92074 0.4 -0.47237292
v 2.5235205 0.4 -0.4266745
v 2.5235207 0.099999994 0.42667454
v 2.557945 0.4 0.16765659
v 2.5235207 0.4 0.42667454
v 2.557945 0.099999994 0.16765659
v 2.557945 0.4 -0.16765639
v 2.557945 0.099999994 -0.16765639
v 2.5235205 0.4 -0.4266745
v 2.5235205 0.099999994 -0.4266745
v 2.92074 0.099999994 0.47237277
v 2.5235207 0.099999994 0.42667454
v 2.5235207 0.4 0.42667454
v 2.92074 0.4 0.47237277
v 1.8694566 0.099999994 -2.293249
v 1.6312715 0.099999994 -1.9720957
v 1.6312715 0.4 -1.9720957
v 1.8694566 0.4 -2.293249
v 1.8694569 0.099999994 2.2932487
v 1.6463958 0.4 2.4640048
v 1.8694569 0.4 2.2932487
v 1.6463958 0.099999994 2.4640048
v 1.3106934 0.4 2.6578226
v 1.3106934 0.099999994 2.6578226
v 1.0512836 0.4 2.7656217
v 1.0512836 0.099999994 2.7656217
v 2.2932487 0.099999994 -1.8694568
v 2.4640052 0.4 -1.6463954
v 2.2932487 0.4 -1.8694568
v 2.4640052 0.099999994 -1.6463954
v 2.6578226 0.4 -1.310693
v 2.6578226 0.099999994 -1.310693
v 2.7656217 0.4 -1.0512834
v 2.7656217 0.099999994 -1.0512834
v 2.3987703 0.099999994 -0.89224946
v 2.2990737 0.4 -1.1337776
v 2.3987703 0.4 -0.89224946
v 2.2990737 0.099999994 -1.1337776
v 2.1314173 0.4 -1.4241673
v 2.1314173 0.099999994 -1.4241673
v 1.9720956 0.4 -1.6312711
v 1.9720956 0.099999994 -1.6312711
v 0.8922496 0.099999994 2.39877
v 1.1337779 0.4 2.2990737
v 0.8922496 0.4 2.39877
v 1.1337779 0.099999994 2.2990737
v 1.4241674 0.4 2.131417
v 1.4241674 0.099999994 2.131417
v 1.6312711 0.4 1.9720956
v 1.6312711 0.099999994 1.9720956
v 1.0512834 0.099999994 -2.7656212
v 1.3106931 0.4 -2.6578226
v 1.0512834 0.4 -2.7656212
v 1.3106931 0.099999994 -2.6578226
v 1.6463953 0.4 -2.4640048
v 1.6463953 0.099999994 -2.4640048
v 1.8694566 0.4 -2.293249
v 1.8694566 0.099999994 -2.293249
v 1.9720956 0.099999994 -1.6312711
v 2.2932487 0.099999994 -1.8694568
v 2.2932487 0.4 -1.8694568
v 1.9720956 0.4 -1.6312711
v 0.4723728 0.099999994 -2.92074
v 0.42667452 0.099999994 -2.5235207
v 0.42667452 0.4 -2.5235207
v 0.4723728 0.4 -2.92074
v 0.47237253 0.099999994 2.9207401
v 0.47237253 0.4 2.9207401
v 0.42667425 0.4 2.5235207
v 0.42667425 0.099999994 2.5235207
v 1.0512836 0.4 2.7656217
v 1.0512836 0.099999994 2.7656217
v 0.8922496 0.099999994 2.39877
v 0.8922496 0.4 2.39877
v -0 0.099999994 -2.557945
v -0 0.4 -2.557945
v -0 0.4 -2.9570882
v -0 0.099999994 -2.9570882
vt 0.5304788 0.031775713
vt 0.5304788 0.031775713
vt 0.5304787 0.031775713
vt 0.5304788 0.031775713
vt 0.5304788 0.031775713
vt 0.5304788 0.031775713
vt 0.5304787 0.031775713
vt 0.53047884 0.031775713
vt 0.53047884 0.031775713
vt 0.5304788 0.031775713
vt 0.5304788 0.031775713
vt 0.5304788 0.031775713
vt 0.5304788 0.031775713
vt 0.5304788 0.031775713
vt 0.5304788 0.031775713
vt 0.5304788 0.031775713
vt 0.53047884 0.031775713
vt 0.5304788 0.031775713
vt 0.5304788 0.031775713
vt 0.5304788 0.031775713
vt 0.5304788 0.031775713
vt 0.5304788 0.031775713
vt 0.5304788 0.031775713
vt 0.53047884 0.031775713
vt 0.5304788 0.031775713
vt 0.5304788 0.031775713
vt 0.5304788 0.031775713
vt 0.5304788 0.031775713
vt 0.5304788 0.031775713
vt 0.5304788 0.031775713
vt 0.5304788 0.031775713
vt 0.5304788 0.031775713
vt 0.5304788 0.031775713
vt 0.5304788 0.031775713
vt 0.53047884 0.031775713
vt 0.5304788 0.031775713
vt 0.5304788 0.031775713
vt 0.5304788 0.031775713
vt 0.5304788 0.031775713
vt 0.5304787 0.031775713
vt 0.5304787 0.031775713
vt 0.5304788 0.031775713
vt 0.5304788 0.031775713
vt 0.5304788 0.031775713
vt 0.5304788 0.031775713
vt 0.5304788 0.031775713
vt 0.53047884 0.031775713
vt 0.5304788 0.031775713
vt 0.53047884 0.031775717
vt 0.5304787 0.03177571
vt 0.5304788 0.031775713
vt 0.5304788 0.031775713
vt 0.5304788 0.031775713
vt 0.5304788 0.031775713
vt 0.5304788 0.031775713
vt 0.53047884 0.031775713
vt 0.5304788 0.031775713
vt 0.5304788 0.031775713
vt 0.5304788 0.031775713
vt 0.5304788 0.031775713
vt 0.5304787 0.031775713
vt 0.5304788 0.031775713
vt 0.5304788 0.031775713
vt 0.5304788 0.031775713
vt 0.5304788 0.031775713
vt 0.5304788 0.031775713
vt 0.5304788 0.031775713
vt 0.5304788 0.031775713
vt 0.5304787 0.031775713
vt 0.5304788 0.031775713
vt 0.53047884 0.031775713
vt 0.5304788 0.031775713
vt 0.5304788 0.031775713
vt 0.5304788 0.031775713
vt 0.5304788 0.031775713
vt 0.5304788 0.031775713
vt 0.5304787 0.031775713
vt 0.5304788 0.031775713
vt 0.5304788 0.031775713
vt 0.5304788 0.031775713
vt 0.5304788 0.031775713
vt 0.5304788 0.031775713
vt 0.5304788 0.031775713
vt 0.5304788 0.031775713
vt 0.53047884 0.031775713
vt 0.5304788 0.031775713
vt 0.53047884 0.031775713
vt 0.5304788 0.031775713
vt 0.5304787 0.03177571
vt 0.5304788 0.031775713
vt 0.5304788 0.031775713
vt 0.5304788 0.031775713
vt 0.5304787 0.031775713
vt 0.5304787 0.031775713
vt 0.5304787 0.031775713
vt 0.53047884 0.031775713
vt 0.5304788 0.031775713
vt 0.5304788 0.031775713
vt 0.5304788 0.031775713
vt 0.5304788 0.031775713
vt 0.5304788 0.031775713
vt 0.5304787 0.03177571
vt 0.5304787 0.03177571
vt 0.5304788 0.031775713
vt 0.5304787 0.03177571
vt 0.5304788 0.031775713
vt 0.5304788 0.031775713
vt 0.5304788 0.031775713
vt 0.5304788 0.031775713
vt 0.53047884 0.031775713
vt 0.5304788 0.031775713
vt 0.5304788 0.031775713
vt 0.5304788 0.031775713
vt 0.5304788 0.031775713
vt 0.5304787 0.031775713
vt 0.5304788 0.031775713
vt 0.5304787 0.031775713
vt 0.5304788 0.031775713
vt 0.5304788 0.031775713
vt 0.5304788 0.031775713
vt 0.5304788 0.031775713
vt 0.5304788 0.031775713
vt 0.5304787 0.031775713
vt 0.5304787 0.031775713
vt 0.5304788 0.031775713
vt 0.5304787 0.031775713
vt 0.5304788 0.031775713
vt 0.5304788 0.031775713
vt 0.5304788 0.031775713
vt 0.5304788 0.031775713
vt 0.5304788 0.031775713
vt 0.5304788 0.031775713
vt 0.5304788 0.031775713
vt 0.5304788 0.031775713
vt 0.5304788 0.031775713
vt 0.5304788 0.031775713
vt 0.5304788 0.031775713
vt 0.5304788 0.031775713
vt 0.5304787 0.03177571
vt 0.5304787 0.03177571
vt 0.5304788 0.031775713
vt 0.5304788 0.031775713
vt 0.5304788 0.031775713
vt 0.5304788 0.031775713
vt 0.53047884 0.031775713
vt 0.5304787 0.031775713
vt 0.5304788 0.031775713
vt 0.5304788 0.031775713
vt 0.5304788 0.031775713
vt 0.5304788 0.031775713
vt 0.5304788 0.031775713
vt 0.5304787 0.031775713
vt 0.5304788 0.031775713
vt 0.5304788 0.031775713
vt 0.5304788 0.031775713
vt 0.5304788 0.031775713
vt 0.5304788 0.031775713
vt 0.5304788 0.031775713
vt 0.5304788 0.031775713
vt 0.5304788 0.031775713
vt 0.5304788 0.031775713
vt 0.5304788 0.031775713
vt 0.5304788 0.031775713
vt 0.5304788 0.031775713
vt 0.5304788 0.031775713
vt 0.5304788 0.031775713
vt 0.5304787 0.03177571
vt 0.53047884 0.031775717
vt 0.5304788 0.031775713
vt 0.5304788 0.031775713
vt 0.5304788 0.031775713
vt 0.5304788 0.031775713
vt 0.53047884 0.031775713
vt 0.53047884 0.031775713
vt 0.5304788 0.031775713
vt 0.5304788 0.031775713
vt 0.5304788 0.031775713
vt 0.5304788 0.031775713
vt 0.5304788 0.031775713
vt 0.5304788 0.031775713
vt 0.5304788 0.031775713
vt 0.5304788 0.031775713
vt 0.5304787 0.031775713
vt 0.5304788 0.031775713
vt 0.5304788 0.031775713
vt 0.5304788 0.031775713
vt 0.5304788 0.031775713
vt 0.5304788 0.031775713
vt 0.5304788 0.031775713
vt 0.5304788 0.031775713
vt 0.5304787 0.031775713
vt 0.5304788 0.031775713
vt 0.5304788 0.031775713
vt 0.5304788 0.031775713
vt 0.5304788 0.031775713
vt 0.5304788 0.031775713
vt 0.5304787 0.031775713
vt 0.5304787 0.031775713
vt 0.5304788 0.031775713
vt 0.5304788 0.031775713
vt 0.5304788 0.031775713
vt 0.5304788 0.031775713
vt 0.5304788 0.031775713
vt 0.5304788 0.031775713
vt 0.5304788 0.031775713
vt 0.53047884 0.031775713
vt 0.53047884 0.031775713
vt 0.53047884 0.031775713
vt 0.5304788 0.031775713
vt 0.5304788 0.031775713
vt 0.5304788 0.031775713
vt 0.5304788 0.031775713
vt 0.5304788 0.031775713
vt 0.5304788 0.031775713
vt 0.5304787 0.031775713
vt 0.5304788 0.031775713
vt 0.5304788 0.031775713
vt 0.5304788 0.031775713
vt 0.5304788 0.031775713
vt 0.5304788 0.031775713
vt 0.53047884 0.031775713
vt 0.53047884 0.031775713
vt 0.5304788 0.031775713
vt 0.5304788 0.031775713
vt 0.5304788 0.031775713
vt 0.5304788 0.031775713
vt 0.5304787 0.031775713
vt 0.5304787 0.031775713
vt 0.5304788 0.031775713
vt 0.5304788 0.031775713
vt 0.5304788 0.031775713
vt 0.5304788 0.031775713
vt 0.5304788 0.031775713
vt 0.5304788 0.031775713
vt 0.5304787 0.031775713
vt 0.5304787 0.031775713
vt 0.5304788 0.031775713
vt 0.5304788 0.031775713
vt 0.5304788 0.031775713
vt 0.5304788 0.031775713
vt 0.5304788 0.031775713
vt 0.5304788 0.031775713
vt 0.5304788 0.031775713
vt 0.5304788 0.031775713
vt 0.5304788 0.031775713
vt 0.5304788 0.031775713
vt 0.5304788 0.031775713
vt 0.5304788 0.031775713
vt 0.5304788 0.031775713
vt 0.5304787 0.031775713
vt 0.5304787 0.03177571
vt 0.5304788 0.031775713
vt 0.5304788 0.031775713
vt 0.5304788 0.031775713
vt 0.5304788 0.031775713
vt 0.5304788 0.031775713
vt 0.5304787 0.031775713
vt 0.5304787 0.03177571
vt 0.5304788 0.031775713
vt 0.5304787 0.03177571
vt 0.5304788 0.031775713
vt 0.5304788 0.031775713
vt 0.5304788 0.031775713
vt 0.5304788 0.031775713
vt 0.5304788 0.031775713
vt 0.5304788 0.031775713
vt 0.5304788 0.031775713
vt 0.5304787 0.03177571
vt 0.5304788 0.031775713
vt 0.5304788 0.031775713
vt 0.5304787 0.031775713
vt 0.5304788 0.031775713
vt 0.5304788 0.031775713
vt 0.5304788 0.031775713
vt 0.5304788 0.031775713
vt 0.5304788 0.031775713
vt 0.5304788 0.031775713
vt 0.5304787 0.031775713
vt 0.5304788 0.031775713
vt 0.5304788 0.031775713
vt 0.5304787 0.031775713
vt 0.5304788 0.031775713
vt 0.5304788 0.031775713
vt 0.5304788 0.031775713
vt 0.5304788 0.031775713
vt 0.5304788 0.031775713
vt 0.5304788 0.031775713
vt 0.5304787 0.031775713
vt 0.5304788 0.031775713
vt 0.5304787 0.031775713
vt 0.5304788 0.031775713
vt 0.5304788 0.031775713
vt 0.5304788 0.031775713
vt 0.5304788 0.031775713
vt 0.5304787 0.031775713
vt 0.53047884 0.031775713
vt 0.53047884 0.031775713
vt 0.5304788 0.031775713
vt 0.5304788 0.031775713
vt 0.5304788 0.031775713
vt 0.5304788 0.031775713
vt 0.5304788 0.031775713
vt 0.5304788 0.031775713
vt 0.5304788 0.031775713
vt 0.53047884 0.031775713
vt 0.5304788 0.031775713
vt 0.5304788 0.031775713
vt 0.5304788 0.031775713
vt 0.5304788 0.031775713
vt 0.5304788 0.031775713
vt 0.5304788 0.031775713
vt 0.53047884 0.031775713
vt 0.5304788 0.031775713
vt 0.5304788 0.031775713
vt 0.5304788 0.031775713
vt 0.5304788 0.031775713
vt 0.5304788 0.031775713
vt 0.5304788 0.031775713
vt 0.5304788 0.031775713
vt 0.5304788 0.031775713
vt 0.5304788 0.031775713
vt 0.53047884 0.031775713
vt 0.5304788 0.031775713
vt 0.5304788 0.031775713
vt 0.5304788 0.031775713
vt 0.5304788 0.031775713
vt 0.5304788 0.031775713
vt 0.5304787 0.031775713
vt 0.5304787 0.031775713
vt 0.5304788 0.031775713
vt 0.5304788 0.031775713
vt 0.5304788 0.031775713
vt 0.5304788 0.031775713
vt 0.5304788 0.031775713
vt 0.53047884 0.031775713
vt 0.5304788 0.031775713
vt 0.53047884 0.031775717
vt 0.5304788 0.031775713
vt 0.5304787 0.03177571
vt 0.5304788 0.031775713
vt 0.5304788 0.031775713
vt 0.5304788 0.031775713
vt 0.5304788 0.031775713
vt 0.53047884 0.031775713
vt 0.5304788 0.031775713
vt 0.5304788 0.031775713
vt 0.5304788 0.031775713
vt 0.5304788 0.031775713
vt 0.53047884 0.031775713
vt 0.5304788 0.031775713
vt 0.5304788 0.031775713
vt 0.5304788 0.031775713
vt 0.5304788 0.031775713
vt 0.5304788 0.031775713
vt 0.5304787 0.031775713
vt 0.5304788 0.031775713
vt 0.5304788 0.031775713
vt 0.5304788 0.031775713
vt 0.5304788 0.031775713
vt 0.5304788 0.031775713
vt 0.5304788 0.031775713
vt 0.5304788 0.031775713
vt 0.53047884 0.031775713
vt 0.5304788 0.031775713
vt 0.53047884 0.031775713
vt 0.5304787 0.03177571
vt 0.5304788 0.031775713
vt 0.5304788 0.031775713
vt 0.5304788 0.031775713
vt 0.5304788 0.031775713
vt 0.5304787 0.031775713
vt 0.5304787 0.031775713
vt 0.5304787 0.031775713
vt 0.5304788 0.031775713
vt 0.53047884 0.031775713
vt 0.5304788 0.031775713
vt 0.5304788 0.031775713
vt 0.5304788 0.031775713
vt 0.5304788 0.031775713
vt 0.5304787 0.03177571
vt 0.5304787 0.03177571
vt 0.5304787 0.03177571
vt 0.5304788 0.031775713
vt 0.5304788 0.031775713
vt 0.5304788 0.031775713
vt 0.5304788 0.031775713
vt 0.5304788 0.031775713
vt 0.53047884 0.031775713
vt 0.5304788 0.031775713
vt 0.5304788 0.031775713
vt 0.5304788 0.031775713
vt 0.5304788 0.031775713
vt 0.5304788 0.031775713
vt 0.5304788 0.031775713
vt 0.5304787 0.031775713
vt 0.5304788 0.031775713
vt 0.5304788 0.031775713
vt 0.5304788 0.031775713
vt 0.5304788 0.031775713
vt 0.5304788 0.031775713
vt 0.5304788 0.031775713
vt 0.5304788 0.031775713
vt 0.5304788 0.031775713
vt 0.5304788 0.031775713
vt 0.5304788 0.031775713
vt 0.5304788 0.031775713
vt 0.5304787 0.03177571
vt 0.5304787 0.03177571
vt 0.5304788 0.031775713
vt 0.5304788 0.031775713
vt 0.5304788 0.031775713
vt 0.5304788 0.031775713
vt 0.53047884 0.031775713
vt 0.5304788 0.031775713
vt 0.5304787 0.031775713
vt 0.5304788 0.031775713
vt 0.5304788 0.031775713
vt 0.5304788 0.031775713
vt 0.5304788 0.031775713
vt 0.5304787 0.031775713
vt 0.5304788 0.031775713
vt 0.5304788 0.031775713
vt 0.5304788 0.031775713
vt 0.5304788 0.031775713
vt 0.5304787 0.03177571
vt 0.5304788 0.031775713
vt 0.53047884 0.031775717
vt 0.5304788 0.031775713
vt 0.5304788 0.031775713
vt 0.5304788 0.031775713
vt 0.53047884 0.031775713
vt 0.53047884 0.031775713
vt 0.5304788 0.031775713
vt 0.5304788 0.031775713
vt 0.5304788 0.031775713
vt 0.5304788 0.031775713
vt 0.5304788 0.031775713
vt 0.5304788 0.031775713
vt 0.5304788 0.031775713
vt 0.5304788 0.031775713
vt 0.5304787 0.031775713
vt 0.5304788 0.031775713
vt 0.5304788 0.031775713
vt 0.5304788 0.031775713
vt 0.5304788 0.031775713
vt 0.5304788 0.031775713
vt 0.5304788 0.031775713
vt 0.5304788 0.031775713
vt 0.5304787 0.031775713
vt 0.5304788 0.031775713
vt 0.5304788 0.031775713
vt 0.5304788 0.031775713
vt 0.5304788 0.031775713
vt 0.5304788 0.031775713
vt 0.5304787 0.031775713
vt 0.5304787 0.031775713
vt 0.5304788 0.031775713
vt 0.5304788 0.031775713
vt 0.5304788 0.031775713
vt 0.5304788 0.031775713
vt 0.5304788 0.031775713
vt 0.5304788 0.031775713
vt 0.5304788 0.031775713
vt 0.53047884 0.031775713
vt 0.53047884 0.031775713
vt 0.5304788 0.031775713
vt 0.53047884 0.031775713
vt 0.5304788 0.031775713
vt 0.5304788 0.031775713
vt 0.5304788 0.031775713
vt 0.5304788 0.031775713
vt 0.5304788 0.031775713
vt 0.5304787 0.031775713
vt 0.5304788 0.031775713
vt 0.5304788 0.031775713
vt 0.5304788 0.031775713
vt 0.5304788 0.031775713
vt 0.5304788 0.031775713
vt 0.53047884 0.031775713
vt 0.53047884 0.031775713
vt 0.5304788 0.031775713
vt 0.5304788 0.031775713
vt 0.5304788 0.031775713
vt 0.5304788 0.031775713
vt 0.5304788 0.031775713
vt 0.5304788 0.031775713
vt 0.5304788 0.031775713
vt 0.5304788 0.031775713
vt 0.5304788 0.031775713
vt 0.5304788 0.031775713
vt 0.5304788 0.031775713
vt 0.5304788 0.031775713
vt 0.5304788 0.031775713
vt 0.5304788 0.031775713
vt 0.5304788 0.031775713
vt 0.5304788 0.031775713
vt 0.5304788 0.031775713
vt 0.5304788 0.031775713
vt 0.5304788 0.031775713
vt 0.5304788 0.031775713
vn -0 -1 0
vn -0 -1 0
vn -0 -1 0
vn -0 -1 0
vn -0 -1 0
vn -0 -1 0
vn -0 -1 0
vn -0 -1 0
vn -0 1 0
vn -0 1 0
vn -0 1 0
vn -0 1 0
vn -0 1 0
vn -0 1 0
vn -0 1 0
vn -0 1 0
vn -0 1 0
vn -0 1 0
vn -0 1 0
vn -0 1 0
vn -0 1 0
vn -0 1 0
vn -0 1 0
vn -0 1 0
vn 0.59570247 0 0.80320513
vn 0.59570247 0 0.80320513
vn 0.59570247 0 0.80320513
vn 0.59570247 0 0.80320513
vn -0.80320454 0 -0.59570324
vn -0.80320454 0 -0.59570324
vn -0.80320454 0 -0.59570324
vn -0.80320454 0 -0.59570324
vn -0 -1 0
vn -0 -1 0
vn -0 -1 0
vn -0 -1 0
vn -0 -1 0
vn -0 -1 0
vn -0 -1 0
vn -0 -1 0
vn -0 1 0
vn -0 1 0
vn -0 1 0
vn -0 1 0
vn -0 1 0
vn -0 1 0
vn -0 1 0
vn -0 1 0
vn -0 1 0
vn -0 1 0
vn -0 1 0
vn -0 1 0
vn -0 1 0
vn -0 1 0
vn -0 1 0
vn -0 1 0
vn -0.39774427 0 0.91749626
vn -0.39774427 0 0.91749626
vn -0.39774427 0 0.91749626
vn -0.39774427 0 0.91749626
vn -0 1 0
vn -0 1 0
vn -0 1 0
vn -0 1 0
vn -0 1 0
vn -0 1 0
vn -0 1 0
vn -0 1 0
vn -0 1 0
vn -0 1 0
vn -0 -1 0
vn -0 -1 0
vn -0 -1 0
vn -0 -1 0
vn -0 -1 0
vn -0 -1 0
vn -0 -1 0
vn -0 -1 0
vn 0.6097358 0 0.7926047
vn 0.6097358 0 0.7926047
vn 0.5560808 0 0.8311281
vn 0.5560808 0 0.8311281
vn 0.441738 0 0.89714414
vn 0.441738 0 0.89714414
vn 0.38154897 0 0.92434865
vn 0.38154897 0 0.92434865
vn -0 -1 0
vn -0 -1 0
vn -0 -1 0
vn -0 -1 0
vn -0 -1 0
vn -0 -1 0
vn -0 -1 0
vn -0 -1 0
vn -0.9234412 0 0.38373998
vn -0.9234412 0 0.38373998
vn -0.8966195 0 0.4428019
vn -0.8966195 0 0.4428019
vn -0.8317873 0 0.5550945
vn -0.8317873 0 0.5550945
vn -0.7940498 0 0.60785276
vn -0.7940498 0 0.60785276
vn -0 -1 0
vn -0 -1 0
vn -0 -1 0
vn -0 -1 0
vn -0 -1 0
vn -0 -1 0
vn -0 -1 0
vn -0 -1 0
vn -0.39774448 0 -0.91749626
vn -0.39774448 0 -0.91749626
vn -0.39774448 0 -0.91749626
vn -0.39774448 0 -0.91749626
vn -0 -1 0
vn -0 -1 0
vn -0 -1 0
vn -0 -1 0
vn -0 -1 0
vn -0 -1 0
vn -0 -1 0
vn -0 -1 0
vn -0 -1 0
vn -0 -1 0
vn -0 1 0
vn -0 1 0
vn -0 1 0
vn -0 1 0
vn -0 1 0
vn -0 1 0
vn -0 1 0
vn -0 1 0
vn -0.99159336 0 -0.12939316
vn -0.99159336 0 -0.12939316
vn -0.9978961 0 -0.06483272
vn -0.9978961 0 -0.06483272
vn -0.9978961 0 0.06483294
vn -0.9978961 0 0.06483294
vn -0.9915935 0 0.12939258
vn -0.9915935 0 0.12939258
vn 0.9174959 0 -0.39774522
vn 0.9174959 0 -0.39774522
vn 0.9174959 0 -0.39774522
vn 0.9174959 0 -0.39774522
vn 0.7926046 0 -0.60973597
vn 0.7926046 0 -0.60973597
vn 0.8311281 0 -0.5560808
vn 0.8311281 0 -0.5560808
vn 0.8971443 0 -0.4417375
vn 0.8971443 0 -0.4417375
vn 0.92434895 0 -0.38154817
vn 0.92434895 0 -0.38154817
vn 0.11429193 0 -0.9934471
vn 0.11429193 0 -0.9934471
vn 0.11429193 0 -0.9934471
vn 0.11429193 0 -0.9934471
vn -0.1293928 0 0.99159336
vn -0.1293928 0 0.99159336
vn -0.06483157 0 0.9978962
vn -0.06483157 0 0.9978962
vn -0 0 1
vn -0 0 1
vn 0.06483157 0 0.9978962
vn 0.06483157 0 0.9978962
vn 0.1293928 0 0.99159336
vn 0.1293928 0 0.99159336
vn 0.99128366 0 -0.13174458
vn 0.99128366 0 -0.13174458
vn 0.9978186 0 -0.06601631
vn 0.9978186 0 -0.06601631
vn 0.9978186 0 0.06601664
vn 0.9978186 0 0.06601664
vn 0.99128366 0 0.13174526
vn 0.99128366 0 0.13174526
vn 0.11429147 0 0.99344724
vn 0.11429147 0 0.99344724
vn 0.11429147 0 0.99344724
vn 0.11429147 0 0.99344724
vn -0.8032054 0 0.5957022
vn -0.8032054 0 0.5957022
vn -0.8032054 0 0.5957022
vn -0.8032054 0 0.5957022
vn -0.60785425 0 0.7940486
vn -0.60785425 0 0.7940486
vn -0.55509496 0 0.83178705
vn -0.55509496 0 0.83178705
vn -0.44280183 0 0.8966195
vn -0.44280183 0 0.8966195
vn -0.3837406 0 0.9234409
vn -0.3837406 0 0.9234409
vn -0.79404813 0 -0.6078549
vn -0.79404813 0 -0.6078549
vn -0.83178705 0 -0.55509496
vn -0.83178705 0 -0.55509496
vn -0.8966197 0 -0.44280133
vn -0.8966197 0 -0.44280133
vn -0.923441 0 -0.38374045
vn -0.923441 0 -0.38374045
vn 0.924349 0 0.3815479
vn 0.924349 0 0.3815479
vn 0.89714444 0 0.44173738
vn 0.89714444 0 0.44173738
vn 0.8311278 0 0.5560814
vn 0.8311278 0 0.5560814
vn 0.7926037 0 0.60973716
vn 0.7926037 0 0.60973716
vn 0.38154674 0 -0.92434955
vn 0.38154674 0 -0.92434955
vn 0.44173726 0 -0.8971445
vn 0.44173726 0 -0.8971445
vn 0.5560818 0 -0.8311276
vn 0.5560818 0 -0.8311276
vn 0.609737 0 -0.7926038
vn 0.609737 0 -0.7926038
vn -0.38373902 0 -0.9234416
vn -0.38373902 0 -0.9234416
vn -0.4428012 0 -0.8966198
vn -0.4428012 0 -0.8966198
vn -0.55509454 0 -0.83178717
vn -0.55509454 0 -0.83178717
vn -0.60785335 0 -0.7940493
vn -0.60785335 0 -0.7940493
vn 0.5957031 0 -0.8032047
vn 0.5957031 0 -0.8032047
vn 0.5957031 0 -0.8032047
vn 0.5957031 0 -0.8032047
vn 0.13174474 0 0.99128366
vn 0.13174474 0 0.99128366
vn 0.06601638 0 0.9978186
vn 0.06601638 0 0.9978186
vn -0 0 1
vn -0 0 1
vn -0.06601638 0 0.9978186
vn -0.06601638 0 0.9978186
vn -0.13174474 0 0.99128366
vn -0.13174474 0 0.99128366
vn -0.99344724 0 0.11429165
vn -0.99344724 0 0.11429165
vn -0.99344724 0 0.11429165
vn -0.99344724 0 0.11429165
vn -0.99344724 0 -0.11429156
vn -0.99344724 0 -0.11429156
vn -0.99344724 0 -0.11429156
vn -0.99344724 0 -0.11429156
vn 0.91749626 0 0.39774433
vn 0.91749626 0 0.39774433
vn 0.91749626 0 0.39774433
vn 0.91749626 0 0.39774433
vn 0.066015676 0 -0.9978186
vn 0.13174474 0 -0.99128366
vn 0.13174474 0 -0.99128366
vn 0.066015676 0 -0.9978186
vn -0 0 -1
vn -0 0 -1
vn -0.066015676 0 -0.9978186
vn -0.066015676 0 -0.9978186
vn -0.13174474 0 -0.99128366
vn -0.13174474 0 -0.99128366
vn -0 -1 0
vn -0 -1 0
vn -0 -1 0
vn -0 -1 0
vn -0 -1 0
vn -0 -1 0
vn -0 -1 0
vn -0 -1 0
vn -0 -1 0
vn -0 -1 0
vn -0 1 0
vn -0 1 0
vn -0 1 0
vn -0 1 0
vn -0 1 0
vn -0 1 0
vn -0 1 0
vn -0 1 0
vn -0 1 0
vn -0 1 0
vn -0.06483221 0 -0.9978962
vn -0.12939285 0 -0.99159336
vn -0.12939285 0 -0.99159336
vn -0.06483221 0 -0.9978962
vn -0 0 -1
vn -0 0 -1
vn 0.06483221 0 -0.9978962
vn 0.06483221 0 -0.9978962
vn 0.12939285 0 -0.99159336
vn 0.12939285 0 -0.99159336
vn -0 -1 0
vn -0 -1 0
vn -0 -1 0
vn -0 -1 0
vn -0 -1 0
vn -0 -1 0
vn -0 -1 0
vn -0 -1 0
vn -0 1 0
vn -0 1 0
vn -0 1 0
vn -0 1 0
vn -0 1 0
vn -0 1 0
vn -0 1 0
vn -0 1 0
vn -0 1 0
vn -0 1 0
vn -0 1 0
vn -0 1 0
vn -0 1 0
vn -0 1 0
vn -0 1 0
vn -0 1 0
vn -0.59570247 0 0.80320513
vn -0.59570247 0 0.80320513
vn -0.59570247 0 0.80320513
vn -0.59570247 0 0.80320513
vn 0.80320454 0 -0.59570324
vn 0.80320454 0 -0.59570324
vn 0.80320454 0 -0.59570324
vn 0.80320454 0 -0.59570324
vn -0 -1 0
vn -0 -1 0
vn -0 -1 0
vn -0 -1 0
vn -0 -1 0
vn -0 -1 0
vn -0 -1 0
vn -0 -1 0
vn -0 1 0
vn -0 1 0
vn -0 1 0
vn -0 1 0
vn -0 1 0
vn -0 1 0
vn -0 1 0
vn -0 1 0
vn -0 1 0
vn -0 1 0
vn -0 1 0
vn -0 1 0
vn -0 1 0
vn -0 1 0
vn -0 1 0
vn -0 1 0
vn 0.39774427 0 0.91749626
vn 0.39774427 0 0.91749626
vn 0.39774427 0 0.91749626
vn 0.39774427 0 0.91749626
vn -0 -1 0
vn -0 -1 0
vn -0 -1 0
vn -0 -1 0
vn -0 -1 0
vn -0 -1 0
vn -0 -1 0
vn -0 -1 0
vn -0.6097358 0 0.7926047
vn -0.5560808 0 0.8311281
vn -0.6097358 0 0.7926047
vn -0.5560808 0 0.8311281
vn -0.441738 0 0.89714414
vn -0.441738 0 0.89714414
vn -0.38154897 0 0.92434865
vn -0.38154897 0 0.92434865
vn -0 -1 0
vn -0 -1 0
vn -0 -1 0
vn -0 -1 0
vn -0 -1 0
vn -0 -1 0
vn -0 -1 0
vn -0 -1 0
vn 0.9234412 0 0.38373998
vn 0.8966195 0 0.4428019
vn 0.9234412 0 0.38373998
vn 0.8966195 0 0.4428019
vn 0.8317873 0 0.5550945
vn 0.8317873 0 0.5550945
vn 0.7940498 0 0.60785276
vn 0.7940498 0 0.60785276
vn -0 -1 0
vn -0 -1 0
vn -0 -1 0
vn -0 -1 0
vn -0 -1 0
vn -0 -1 0
vn -0 -1 0
vn -0 -1 0
vn 0.39774448 0 -0.91749626
vn 0.39774448 0 -0.91749626
vn 0.39774448 0 -0.91749626
vn 0.39774448 0 -0.91749626
vn -0 1 0
vn -0 1 0
vn -0 1 0
vn -0 1 0
vn -0 1 0
vn -0 1 0
vn -0 1 0
vn -0 1 0
vn 0.99159336 0 -0.12939316
vn 0.9978961 0 -0.06483272
vn 0.99159336 0 -0.12939316
vn 0.9978961 0 -0.06483272
vn 0.9978961 0 0.06483294
vn 0.9978961 0 0.06483294
vn 0.9915935 0 0.12939258
vn 0.9915935 0 0.12939258
vn -0.9174959 0 -0.39774522
vn -0.9174959 0 -0.39774522
vn -0.9174959 0 -0.39774522
vn -0.9174959 0 -0.39774522
vn -0.7926046 0 -0.60973597
vn -0.8311281 0 -0.5560808
vn -0.7926046 0 -0.60973597
vn -0.8311281 0 -0.5560808
vn -0.8971443 0 -0.4417375
vn -0.8971443 0 -0.4417375
vn -0.92434895 0 -0.38154817
vn -0.92434895 0 -0.38154817
vn -0.11429193 0 -0.9934471
vn -0.11429193 0 -0.9934471
vn -0.11429193 0 -0.9934471
vn -0.11429193 0 -0.9934471
vn -0.99128366 0 -0.13174458
vn -0.9978186 0 -0.06601631
vn -0.99128366 0 -0.13174458
vn -0.9978186 0 -0.06601631
vn -0.9978186 0 0.06601664
vn -0.9978186 0 0.06601664
vn -0.99128366 0 0.13174526
vn -0.99128366 0 0.13174526
vn -0.11429147 0 0.99344724
vn -0.11429147 0 0.99344724
vn -0.11429147 0 0.99344724
vn -0.11429147 0 0.99344724
vn 0.8032054 0 0.5957022
vn 0.8032054 0 0.5957022
vn 0.8032054 0 0.5957022
vn 0.8032054 0 0.5957022
vn 0.60785425 0 0.7940486
vn 0.55509496 0 0.83178705
vn 0.60785425 0 0.7940486
vn 0.55509496 0 0.83178705
vn 0.44280183 0 0.8966195
vn 0.44280183 0 0.8966195
vn 0.3837406 0 0.9234409
vn 0.3837406 0 0.9234409
vn 0.79404813 0 -0.6078549
vn 0.83178705 0 -0.55509496
vn 0.79404813 0 -0.6078549
vn 0.83178705 0 -0.55509496
vn 0.8966197 0 -0.44280133
vn 0.8966197 0 -0.44280133
vn 0.923441 0 -0.38374045
vn 0.923441 0 -0.38374045
vn -0.924349 0 0.3815479
vn -0.89714444 0 0.44173738
vn -0.924349 0 0.3815479
vn -0.89714444 0 0.44173738
vn -0.8311278 0 0.5560814
vn -0.8311278 0 0.5560814
vn -0.7926037 0 0.60973716
vn -0.7926037 0 0.60973716
vn -0.38154674 0 -0.92434955
vn -0.44173726 0 -0.8971445
vn -0.38154674 0 -0.92434955
vn -0.44173726 0 -0.8971445
vn -0.5560818 0 -0.8311276
vn -0.5560818 0 -0.8311276
vn -0.609737 0 -0.7926038
vn -0.609737 0 -0.7926038
vn 0.38373902 0 -0.9234416
vn 0.4428012 0 -0.8966198
vn 0.38373902 0 -0.9234416
vn 0.4428012 0 -0.8966198
vn 0.55509454 0 -0.83178717
vn 0.55509454 0 -0.83178717
vn 0.60785335 0 -0.7940493
vn 0.60785335 0 -0.7940493
vn -0.5957031 0 -0.8032047
vn -0.5957031 0 -0.8032047
vn -0.5957031 0 -0.8032047
vn -0.5957031 0 -0.8032047
vn 0.99344724 0 0.11429165
vn 0.99344724 0 0.11429165
vn 0.99344724 0 0.11429165
vn 0.99344724 0 0.11429165
vn 0.99344724 0 -0.11429156
vn 0.99344724 0 -0.11429156
vn 0.99344724 0 -0.11429156
vn 0.99344724 0 -0.11429156
vn -0.91749626 0 0.39774433
vn -0.91749626 0 0.39774433
vn -0.91749626 0 0.39774433
vn -0.91749626 0 0.39774433
vn 1 0 0
vn 1 0 0
vn 1 0 0
vn 1 0 0
g dottedCircle_0
f 3/3/3 2/2/2 1/1/1
f 2/2/2 4/4/4 1/1/1
f 2/2/2 5/5/5 4/4/4
f 5/5/5 6/6/6 4/4/4
f 5/5/5 7/7/7 6/6/6
f 7/7/7 8/8/8 6/6/6
f 11/11/11 10/10/10 9/9/9
f 12/12/12 11/11/11 9/9/9
f 13/13/13 11/11/11 12/12/12
f 14/14/14 13/13/13 12/12/12
f 15/15/15 13/13/13 14/14/14
f 16/16/16 15/15/15 14/14/14
f 19/19/19 18/18/18 17/17/17
f 18/18/18 20/20/20 17/17/17
f 18/18/18 21/21/21 20/20/20
f 21/21/21 22/22/22 20/20/20
f 22/22/22 21/21/21 23/23/23
f 21/21/21 24/24/24 23/23/23
f 27/27/27 26/26/26 25/25/25
f 28/28/28 27/27/27 25/25/25
f 31/31/31 30/30/30 29/29/29
f 32/32/32 31/31/31 29/29/29
f 35/35/35 34/34/34 33/33/33
f 34/34/34 36/36/36 33/33/33
f 36/36/36 34/34/34 37/37/37
f 34/34/34 38/38/38 37/37/37
f 37/37/37 38/38/38 39/39/39
f 38/38/38 40/40/40 39/39/39
f 43/43/43 42/42/42 41/41/41
f 44/44/44 43/43/43 41/41/41
f 45/45/45 43/43/43 44/44/44
f 46/46/46 45/45/45 44/44/44
f 47/47/47 45/45/45 46/46/46
f 48/48/48 47/47/47 46/46/46
f 51/51/51 50/50/50 49/49/49
f 52/52/52 51/51/51 49/49/49
f 53/53/53 51/51/51 52/52/52
f 54/54/54 53/53/53 52/52/52
f 55/55/55 53/53/53 54/54/54
f 56/56/56 55/55/55 54/54/54
f 59/59/59 58/58/58 57/57/57
f 60/60/60 59/59/59 57/57/57
f 63/63/63 62/62/62 61/61/61
f 64/64/64 63/63/63 61/61/61
f 64/64/64 65/65/65 63/63/63
f 65/65/65 66/66/66 63/63/63
f 66/66/66 65/65/65 67/67/67
f 65/65/65 68/68/68 67/67/67
f 67/67/67 68/68/68 69/69/69
f 70/70/70 67/67/67 69/69/69
f 73/73/73 72/72/72 71/71/71
f 72/72/72 74/74/74 71/71/71
f 72/72/72 75/75/75 74/74/74
f 75/75/75 76/76/76 74/74/74
f 75/75/75 77/77/77 76/76/76
f 77/77/77 78/78/78 76/76/76
f 81/81/81 80/80/80 79/79/79
f 82/82/82 81/81/81 79/79/79
f 83/83/83 81/81/81 82/82/82
f 84/84/84 83/83/83 82/82/82
f 85/85/85 83/83/83 84/84/84
f 86/86/86 85/85/85 84/84/84
f 89/89/89 88/88/88 87/87/87
f 88/88/88 90/90/90 87/87/87
f 88/88/88 91/91/91 90/90/90
f 91/91/91 92/92/92 90/90/90
f 91/91/91 93/93/93 92/92/92
f 93/93/93 94/94/94 92/92/92
f 97/97/97 96/96/96 95/95/95
f 98/98/98 97/97/97 95/95/95
f 99/99/99 97/97/97 98/98/98
f 100/100/100 99/99/99 98/98/98
f 101/101/101 99/99/99 100/100/100
f 102/102/102 101/101/101 100/100/100
f 105/105/105 104/104/104 103/103/103
f 104/104/104 106/106/106 103/103/103
f 104/104/104 107/107/107 106/106/106
f 107/107/107 108/108/108 106/106/106
f 107/107/107 109/109/109 108/108/108
f 109/109/109 110/110/110 108/108/108
f 113/113/113 112/112/112 111/111/111
f 114/114/114 113/113/113 111/111/111
f 117/117/117 116/116/116 115/115/115
f 116/116/116 118/118/118 115/115/115
f 119/119/119 118/118/118 116/116/116
f 120/120/120 119/119/119 116/116/116
f 119/119/119 120/120/120 121/121/121
f 122/122/122 119/119/119 121/121/121
f 122/122/122 121/121/121 123/123/123
f 121/121/121 124/124/124 123/123/123
f 127/127/127 126/126/126 125/125/125
f 128/128/128 127/127/127 125/125/125
f 129/129/129 127/127/127 128/128/128
f 130/130/130 129/129/129 128/128/128
f 131/131/131 129/129/129 130/130/130
f 132/132/132 131/131/131 130/130/130
f 135/135/135 134/134/134 133/133/133
f 136/136/136 135/135/135 133/133/133
f 137/137/137 135/135/135 136/136/136
f 138/138/138 137/137/137 136/136/136
f 139/139/139 137/137/137 138/138/138
f 140/140/140 139/139/139 138/138/138
f 143/143/143 142/142/142 141/141/141
f 144/144/144 143/143/143 141/141/141
f 147/147/147 146/146/146 145/145/145
f 148/148/148 147/147/147 145/145/145
f 149/149/149 147/147/147 148/148/148
f 150/150/150 149/149/149 148/148/148
f 151/151/151 149/149/149 150/150/150
f 152/152/152 151/151/151 150/150/150
f 155/155/155 154/154/154 153/153/153
f 156/156/156 155/155/155 153/153/153
f 159/159/159 158/158/158 157/157/157
f 160/160/160 159/159/159 157/157/157
f 161/161/161 159/159/159 160/160/160
f 162/162/162 161/161/161 160/160/160
f 161/161/161 162/162/162 163/163/163
f 164/164/164 161/161/161 163/163/163
f 164/164/164 163/163/163 165/165/165
f 166/166/166 164/164/164 165/165/165
f 169/169/169 168/168/168 167/167/167
f 170/170/170 169/169/169 167/167/167
f 171/171/171 169/169/169 170/170/170
f 172/172/172 171/171/171 170/170/170
f 173/173/173 171/171/171 172/172/172
f 174/174/174 173/173/173 172/172/172
f 177/177/177 176/176/176 175/175/175
f 178/178/178 177/177/177 175/175/175
f 181/181/181 180/180/180 179/179/179
f 182/182/182 181/181/181 179/179/179
f 185/185/185 184/184/184 183/183/183
f 186/186/186 185/185/185 183/183/183
f 187/187/187 185/185/185 186/186/186
f 188/188/188 187/187/187 186/186/186
f 189/189/189 187/187/187 188/188/188
f 190/190/190 189/189/189 188/188/188
f 193/193/193 192/192/192 191/191/191
f 194/194/194 193/193/193 191/191/191
f 195/195/195 193/193/193 194/194/194
f 196/196/196 195/195/195 194/194/194
f 197/197/197 195/195/195 196/196/196
f 198/198/198 197/197/197 196/196/196
f 201/201/201 200/200/200 199/199/199
f 202/202/202 201/201/201 199/199/199
f 203/203/203 201/201/201 202/202/202
f 204/204/204 203/203/203 202/202/202
f 205/205/205 203/203/203 204/204/204
f 206/206/206 205/205/205 204/204/204
f 209/209/209 208/208/208 207/207/207
f 210/210/210 209/209/209 207/207/207
f 211/211/211 209/209/209 210/210/210
f 212/212/212 211/211/211 210/210/210
f 213/213/213 211/211/211 212/212/212
f 214/214/214 213/213/213 212/212/212
f 217/217/217 216/216/216 215/215/215
f 218/218/218 217/217/217 215/215/215
f 219/219/219 217/217/217 218/218/218
f 220/220/220 219/219/219 218/218/218
f 221/221/221 219/219/219 220/220/220
f 222/222/222 221/221/221 220/220/220
f 225/225/225 224/224/224 223/223/223
f 226/226/226 225/225/225 223/223/223
f 229/229/229 228/228/228 227/227/227
f 230/230/230 229/229/229 227/227/227
f 231/231/231 229/229/229 230/230/230
f 232/232/232 231/231/231 230/230/230
f 231/231/231 232/232/232 233/233/233
f 234/234/234 231/231/231 233/233/233
f 234/234/234 233/233/233 235/235/235
f 236/236/236 234/234/234 235/235/235
f 239/239/239 238/238/238 237/237/237
f 240/240/240 239/239/239 237/237/237
f 243/243/243 242/242/242 241/241/241
f 244/244/244 243/243/243 241/241/241
f 247/247/247 246/246/246 245/245/245
f 248/248/248 247/247/247 245/245/245
f 251/251/251 250/250/250 249/249/249
f 250/250/250 252/252/252 249/249/249
f 249/249/249 252/252/252 253/253/253
f 252/252/252 254/254/254 253/253/253
f 254/254/254 255/255/255 253/253/253
f 255/255/255 256/256/256 253/253/253
f 255/255/255 257/257/257 256/256/256
f 257/257/257 258/258/258 256/256/256
f 261/261/261 260/260/260 259/259/259
f 262/262/262 261/261/261 259/259/259
f 262/262/262 259/259/259 263/263/263
f 264/264/264 262/262/262 263/263/263
f 265/265/265 264/264/264 263/263/263
f 266/266/266 265/265/265 263/263/263
f 267/267/267 265/265/265 266/266/266
f 268/268/268 267/267/267 266/266/266
f 271/271/271 270/270/270 269/269/269
f 270/270/270 272/272/272 269/269/269
f 269/269/269 272/272/272 273/273/273
f 272/272/272 274/274/274 273/273/273
f 274/274/274 275/275/275 273/273/273
f 275/275/275 276/276/276 273/273/273
f 275/275/275 277/277/277 276/276/276
f 277/277/277 278/278/278 276/276/276
f 281/281/281 280/280/280 279/279/279
f 280/280/280 282/282/282 279/279/279
f 279/279/279 282/282/282 283/283/283
f 282/282/282 284/284/284 283/283/283
f 284/284/284 285/285/285 283/283/283
f 285/285/285 286/286/286 283/283/283
f 285/285/285 287/287/287 286/286/286
f 287/287/287 288/288/288 286/286/286
f 291/291/291 290/290/290 289/289/289
f 292/292/292 291/291/291 289/289/289
f 293/293/293 291/291/291 292/292/292
f 294/294/294 293/293/293 292/292/292
f 295/295/295 293/293/293 294/294/294
f 296/296/296 295/295/295 294/294/294
f 299/299/299 298/298/298 297/297/297
f 298/298/298 300/300/300 297/297/297
f 298/298/298 301/301/301 300/300/300
f 301/301/301 302/302/302 300/300/300
f 301/301/301 303/303/303 302/302/302
f 303/303/303 304/304/304 302/302/302
f 307/307/307 306/306/306 305/305/305
f 308/308/308 307/307/307 305/305/305
f 309/309/309 307/307/307 308/308/308
f 310/310/310 309/309/309 308/308/308
f 309/309/309 310/310/310 311/311/311
f 312/312/312 309/309/309 311/311/311
f 315/315/315 314/314/314 313/313/313
f 316/316/316 315/315/315 313/313/313
f 319/319/319 318/318/318 317/317/317
f 320/320/320 319/319/319 317/317/317
f 323/323/323 322/322/322 321/321/321
f 324/324/324 323/323/323 321/321/321
f 323/323/323 324/324/324 325/325/325
f 326/326/326 323/323/323 325/325/325
f 326/326/326 325/325/325 327/327/327
f 328/328/328 326/326/326 327/327/327
f 331/331/331 330/330/330 329/329/329
f 330/330/330 332/332/332 329/329/329
f 330/330/330 333/333/333 332/332/332
f 333/333/333 334/334/334 332/332/332
f 333/333/333 335/335/335 334/334/334
f 335/335/335 336/336/336 334/334/334
f 339/339/339 338/338/338 337/337/337
f 338/338/338 340/340/340 337/337/337
f 338/338/338 341/341/341 340/340/340
f 341/341/341 342/342/342 340/340/340
f 341/341/341 343/343/343 342/342/342
f 343/343/343 344/344/344 342/342/342
f 347/347/347 346/346/346 345/345/345
f 348/348/348 347/347/347 345/345/345
f 351/351/351 350/350/350 349/349/349
f 352/352/352 351/351/351 349/349/349
f 353/353/353 351/351/351 352/352/352
f 354/354/354 353/353/353 352/352/352
f 355/355/355 353/353/353 354/354/354
f 356/356/356 355/355/355 354/354/354
f 359/359/359 358/358/358 357/357/357
f 358/358/358 360/360/360 357/357/357
f 358/358/358 361/361/361 360/360/360
f 361/361/361 362/362/362 360/360/360
f 361/361/361 363/363/363 362/362/362
f 363/363/363 364/364/364 362/362/362
f 367/367/367 366/366/366 365/365/365
f 368/368/368 367/367/367 365/365/365
f 369/369/369 367/367/367 368/368/368
f 370/370/370 369/369/369 368/368/368
f 371/371/371 369/369/369 370/370/370
f 372/372/372 371/371/371 370/370/370
f 375/375/375 374/374/374 373/373/373
f 374/374/374 376/376/376 373/373/373
f 374/374/374 377/377/377 376/376/376
f 377/377/377 378/378/378 376/376/376
f 377/377/377 379/379/379 378/378/378
f 379/379/379 380/380/380 378/378/378
f 383/383/383 382/382/382 381/381/381
f 384/384/384 383/383/383 381/381/381
f 385/385/385 383/383/383 384/384/384
f 386/386/386 385/385/385 384/384/384
f 387/387/387 385/385/385 386/386/386
f 388/388/388 387/387/387 386/386/386
f 391/391/391 390/390/390 389/389/389
f 392/392/392 391/391/391 389/389/389
f 395/395/395 394/394/394 393/393/393
f 394/394/394 396/396/396 393/393/393
f 394/394/394 397/397/397 396/396/396
f 397/397/397 398/398/398 396/396/396
f 397/397/397 399/399/399 398/398/398
f 399/399/399 400/400/400 398/398/398
f 403/403/403 402/402/402 401/401/401
f 402/402/402 404/404/404 401/401/401
f 402/402/402 405/405/405 404/404/404
f 405/405/405 406/406/406 404/404/404
f 405/405/405 407/407/407 406/406/406
f 407/407/407 408/408/408 406/406/406
f 411/411/411 410/410/410 409/409/409
f 412/412/412 411/411/411 409/409/409
f 415/415/415 414/414/414 413/413/413
f 414/414/414 416/416/416 413/413/413
f 414/414/414 417/417/417 416/416/416
f 417/417/417 418/418/418 416/416/416
f 417/417/417 419/419/419 418/418/418
f 419/419/419 420/420/420 418/418/418
f 423/423/423 422/422/422 421/421/421
f 424/424/424 423/423/423 421/421/421
f 427/427/427 426/426/426 425/425/425
f 426/426/426 428/428/428 425/425/425
f 426/426/426 429/429/429 428/428/428
f 429/429/429 430/430/430 428/428/428
f 429/429/429 431/431/431 430/430/430
f 431/431/431 432/432/432 430/430/430
f 435/435/435 434/434/434 433/433/433
f 436/436/436 435/435/435 433/433/433
f 439/439/439 438/438/438 437/437/437
f 440/440/440 439/439/439 437/437/437
f 443/443/443 442/442/442 441/441/441
f 442/442/442 444/444/444 441/441/441
f 442/442/442 445/445/445 444/444/444
f 445/445/445 446/446/446 444/444/444
f 445/445/445 447/447/447 446/446/446
f 447/447/447 448/448/448 446/446/446
f 451/451/451 450/450/450 449/449/449
f 450/450/450 452/452/452 449/449/449
f 450/450/450 453/453/453 452/452/452
f 453/453/453 454/454/454 452/452/452
f 453/453/453 455/455/455 454/454/454
f 455/455/455 456/456/456 454/454/454
f 459/459/459 458/458/458 457/457/457
f 458/458/458 460/460/460 457/457/457
f 458/458/458 461/461/461 460/460/460
f 461/461/461 462/462/462 460/460/460
f 461/461/461 463/463/463 462/462/462
f 463/463/463 464/464/464 462/462/462
f 467/467/467 466/466/466 465/465/465
f 466/466/466 468/468/468 465/465/465
f 466/466/466 469/469/469 468/468/468
f 469/469/469 470/470/470 468/468/468
f 469/469/469 471/471/471 470/470/470
f 471/471/471 472/472/472 470/470/470
f 475/475/475 474/474/474 473/473/473
f 474/474/474 476/476/476 473/473/473
f 474/474/474 477/477/477 476/476/476
f 477/477/477 478/478/478 476/476/476
f 477/477/477 479/479/479 478/478/478
f 479/479/479 480/480/480 478/478/478
f 483/483/483 482/482/482 481/481/481
f 484/484/484 483/483/483 481/481/481
f 487/487/487 486/486/486 485/485/485
f 488/488/488 487/487/487 485/485/485
f 491/491/491 490/490/490 489/489/489
f 492/492/492 491/491/491 489/489/489
f 495/495/495 494/494/494 493/493/493
f 496/496/496 495/495/495 493/493/493
f 499/499/499 498/498/498 497/497/497
f 500/500/500 499/499/499 497/497/497
