g egg
v 0.63270545 0.13378817 -0.43255723
v 0.6727351 0.040385664 -0.42366174
v 0.7868937 0.15009654 -0.20868772
v 0.37621918 0.09820628 -0.58971065
v 0.72017765 -0.03819108 -0.37770176
v 0.4547959 -0.07377297 -0.5734023
v 0.6223274 0.23163843 -0.41031852
v 0.33618954 0.27315068 -0.54078555
v 0.063394904 0.047798574 -0.6564267
v 0.007056892 0.27611578 -0.5926758
v 0.5363378 -0.22054833 -0.48889524
v 0.7587247 -0.09156394 -0.3020902
v 0.1508671 -0.18051869 -0.63122284
v 0.3376721 0.42437375 -0.43552238
v 0.008539438 0.4732989 -0.45331332
v 0.6223274 0.31318033 -0.3524979
v 0.60305387 -0.31988117 -0.3465676
v 0.7794808 -0.112320006 -0.20572251
v 0.63418806 0.3680358 -0.26947343
v 0.7839286 -0.09601164 -0.104907155
v 0.6564267 0.3873093 -0.17310578
v 0.35991082 0.52667177 -0.2813341
v 0.03819108 0.60673106 -0.25316507
v 0.39994046 0.5622537 -0.104907155
v 0.24575222 -0.37325403 -0.5170642
v 0.64604867 -0.35842824 -0.17014062
v 0.09156394 0.652691 -0.021882653
v 0.3317418 -0.503721 -0.3317418
v -0.26425517 0.60080075 -0.1923793
v -0.20643455 0.6512084 0.058176637
v -0.2968719 0.45699048 -0.40883595
v -0.2968719 0.24201643 -0.5600591
v -0.24498165 -0.007056892 -0.62677515
v -0.16492236 -0.25464767 -0.59564096
v -0.07151985 -0.46665654 -0.4696217
v -0.49998534 0.50888085 -0.10935485
v -0.52963686 0.3754487 -0.3095031
v -0.52963686 0.17826557 -0.4488656
v -0.49405503 -0.054499447 -0.5066862
v -0.43178666 -0.28578186 -0.47555202
v -0.44661248 0.5548408 0.12192756
v 0.015952349 -0.6089842 -0.2679909
v -0.35320997 -0.4829649 -0.35694566
v 0.39104497 -0.55264616 -0.10194194
v 0.6579093 -0.32729405 0.0136992335
v 0.77799827 -0.044121385 -0.017434955
v 0.08415103 -0.6593919 -0.020400107
v 0.41624883 -0.5111339 0.13675332
v 0.6430835 -0.232409 0.17826557
v -0.27611578 -0.6149145 -0.16865808
v 0.77799827 0.03742051 0.040385664
v -0.61117876 -0.26947343 -0.2872644
v -0.5578059 -0.4206966 -0.19534451
v -0.652691 -0.090081334 -0.31395084
v -0.67344713 0.089310765 -0.27095604
v -0.6719645 0.24053395 -0.16421032
v -0.6497259 0.34134936 -0.0115045905
v -0.60821366 0.3769312 0.1664049
v -0.7179245 -0.112320006 -0.070807815
v -0.7297852 -0.015952349 -0.047086537
v -0.69568586 -0.11973292 0.18864363
v -0.69716835 -0.20868772 -0.055981994
v -0.7297852 0.06707209 0.010734081
v -0.716442 0.12192756 0.09375852
v -0.69568586 0.14120108 0.18864363
v -0.66899943 -0.29171216 -0.005574286
v -0.6660342 0.12192756 0.2835287
v -0.6378652 -0.3465676 0.07151985
v -0.6349001 0.06707209 0.36062288
v -0.49998534 -0.521512 -0.051534295
v -0.5563234 0.34134936 0.33986676
v -0.20939976 -0.66235703 0.059659183
v -0.44661248 -0.55709386 0.12192756
v -0.3769312 0.50888085 0.35024476
v -0.49850273 0.24053395 0.4836769
v 0.12269807 -0.61343193 0.23608613
v -0.13082302 0.60080075 0.3042848
v -0.60821366 -0.36584112 0.1664049
v -0.16492236 -0.6163971 0.2924242
v 0.41031852 -0.38511467 0.34727967
v -0.40806544 -0.521512 0.2998371
v 0.13159359 -0.47406945 0.4584731
v 0.62381 -0.08415103 0.289459
v -0.58597493 -0.3465676 0.26129007
v -0.14564884 -0.4859301 0.49553764
v 0.3836321 -0.1923793 0.49405503
v 0.7661376 0.13378817 0.06410694
v -0.3858267 -0.4206966 0.4540254
v 0.10935485 -0.26354313 0.6156266
v 0.60305387 0.09375852 0.33245385
v -0.5741143 -0.29171216 0.34431446
v -0.15306169 -0.2902296 0.6363827
v 0.3554631 0.04186827 0.5489105
v 0.7453815 0.23163843 0.04928112
v -0.3858267 -0.26947343 0.5592885
v 0.07970327 -0.010022044 0.67641234
v 0.5630242 0.27315068 0.30576742
v 0.7157299 0.31318033 -0.0011265874
v 0.3035728 0.27611578 0.51481116
v -0.18123072 -0.055981994 0.69420326
v -0.5741143 -0.20868772 0.40213513
v 0.6860783 0.3680358 -0.07970327
v 0.5111339 0.42437375 0.21384752
v 0.45331332 0.52667177 0.0685547
v 0.02336526 0.24201643 0.6378652
v 0.23537415 0.4732989 0.39323962
v 0.15976256 0.60673106 0.204952
v -0.050763726 0.45699048 0.50739825
v -0.23460364 0.17826557 0.6586213
v -0.3028022 0.3754487 0.5385324
v -0.40658283 -0.090081334 0.60376585
v -0.44661248 0.089310765 0.5770794
v -0.58597493 -0.112320006 0.42585635
v -0.60673106 -0.015952349 0.41103053
vt 0.09300077 0.09233141
vt 0.09300077 0.09233141
vt 0.09300077 0.09233141
vt 0.09300077 0.09233141
vt 0.09300077 0.09233141
vt 0.09300077 0.09233141
vt 0.09300077 0.09233141
vt 0.09300077 0.09233141
vt 0.09300077 0.09233141
vt 0.09300077 0.09233141
vt 0.09300077 0.09233141
vt 0.09300077 0.09233141
vt 0.09300077 0.09233141
vt 0.09300077 0.09233141
vt 0.09300077 0.09233141
vt 0.09300077 0.09233141
vt 0.09300077 0.09233141
vt 0.09300077 0.09233141
vt 0.09300077 0.09233141
vt 0.09300077 0.09233141
vt 0.09300077 0.09233141
vt 0.09300077 0.09233141
vt 0.09300077 0.09233141
vt 0.09300077 0.09233141
vt 0.09300077 0.09233141
vt 0.09300077 0.09233141
vt 0.09300077 0.09233141
vt 0.09300077 0.09233141
vt 0.09300077 0.09233141
vt 0.09300077 0.09233141
vt 0.09300077 0.09233141
vt 0.09300077 0.09233141
vt 0.09300077 0.09233141
vt 0.09300077 0.09233141
vt 0.09300077 0.09233141
vt 0.09300077 0.09233141
vt 0.09300077 0.09233141
vt 0.09300077 0.09233141
vt 0.09300077 0.09233141
vt 0.09300077 0.09233141
vt 0.09300077 0.09233141
vt 0.09300077 0.09233141
vt 0.09300077 0.09233141
vt 0.09300077 0.09233141
vt 0.09300077 0.09233141
vt 0.09300077 0.09233141
vt 0.09300077 0.09233141
vt 0.09300077 0.09233141
vt 0.09300077 0.09233141
vt 0.09300077 0.09233141
vt 0.09300077 0.09233141
vt 0.09300077 0.09233141
vt 0.09300077 0.09233141
vt 0.09300077 0.09233141
vt 0.09300077 0.09233141
vt 0.09300077 0.09233141
vt 0.09300077 0.09233141
vt 0.09300077 0.09233141
vt 0.09300077 0.09233141
vt 0.09300077 0.09233141
vt 0.09300077 0.09233141
vt 0.09300077 0.09233141
vt 0.09300077 0.09233141
vt 0.09300077 0.09233141
vt 0.09300077 0.09233141
vt 0.09300077 0.09233141
vt 0.09300077 0.09233141
vt 0.09300077 0.09233141
vt 0.09300077 0.09233141
vt 0.09300077 0.09233141
vt 0.09300077 0.09233141
vt 0.09300077 0.09233141
vt 0.09300077 0.09233141
vt 0.09300077 0.09233141
vt 0.09300077 0.09233141
vt 0.09300077 0.09233141
vt 0.09300077 0.09233141
vt 0.09300077 0.09233141
vt 0.09300077 0.09233141
vt 0.09300077 0.09233141
vt 0.09300077 0.09233141
vt 0.09300077 0.09233141
vt 0.09300077 0.09233141
vt 0.09300077 0.09233141
vt 0.09300077 0.09233141
vt 0.09300077 0.09233141
vt 0.09300077 0.09233141
vt 0.09300077 0.09233141
vt 0.09300077 0.09233141
vt 0.09300077 0.09233141
vt 0.09300077 0.09233141
vt 0.09300077 0.09233141
vt 0.09300077 0.09233141
vt 0.09300077 0.09233141
vt 0.09300077 0.09233141
vt 0.09300077 0.09233141
vt 0.09300077 0.09233141
vt 0.09300077 0.09233141
vt 0.09300077 0.09233141
vt 0.09300077 0.09233141
vt 0.09300077 0.09233141
vt 0.09300077 0.09233141
vt 0.09300077 0.09233141
vt 0.09300077 0.09233141
vt 0.09300077 0.09233141
vt 0.09300077 0.09233141
vt 0.09300077 0.09233141
vt 0.09300077 0.09233141
vt 0.09300077 0.09233141
vt 0.09300077 0.09233141
vt 0.09300077 0.09233141
vt 0.09300077 0.09233141
vt 0.09300077 0.09233141
vt 0.09300077 0.09233141
vn 0.63967067 0.24118745 -0.7298288
vn 0.7025891 0.115350604 -0.7021843
vn 0.95426285 0.24118745 -0.17666641
vn 0.3250785 0.17826903 -0.9287325
vn 0.7969668 -0.07340473 -0.5995462
vn 0.3879969 -0.10486394 -0.9156757
vn 0.60821146 0.3670243 -0.70382667
vn 0.29361928 0.42994273 -0.85377806
vn 0.041945517 0.08389139 -0.9955917
vn -0.020972848 0.42994273 -0.9026125
vn 0.51383376 -0.3879969 -0.7651361
vn 0.8913444 -0.23070085 -0.39023358
vn 0.10486394 -0.26216006 -0.95931
vn 0.29361928 0.6816164 -0.670214
vn 0.010486305 0.71307576 -0.70100856
vn 0.60821146 0.52432036 -0.5959588
vn 0.63967067 -0.60821146 -0.4700003
vn 0.95426285 -0.29361928 -0.05630393
vn 0.63967067 0.6501572 -0.4100208
vn 0.95426285 -0.23070085 0.19015658
vn 0.7018496 0.7123252 -0
vn 0.3250785 0.8389126 -0.4365199
vn 0.041945517 0.93329024 -0.356665
vn 0.3879969 0.90183103 -0.19015577
vn 0.23070085 -0.60821146 -0.7595103
vn 0.73404837 -0.6711299 -0.10371926
vn 0.13557845 0.99076664 -0
vn 0.3250785 -0.828426 -0.45610774
vn -0.27264667 0.90183103 -0.33520836
vn -0.17614935 0.98436344 -0
vn -0.30410588 0.6816164 -0.6655214
vn -0.3355651 0.3670243 -0.86757666
vn -0.27264667 -0.010486305 -0.9620571
vn -0.17826903 -0.3879969 -0.9042558
vn -0.08389139 -0.7025891 -0.70663345
vn -0.618698 0.7759942 -0.12266141
vn -0.6501572 0.5557796 -0.51807785
vn -0.6501572 0.27264667 -0.70919627
vn -0.5872388 -0.07340473 -0.8060784
vn -0.49286115 -0.41945612 -0.7623283
vn -0.52432036 0.8389126 0.14599241
vn 0.041945517 -0.92280364 -0.38298047
vn -0.3984835 -0.7025891 -0.5895587
vn 0.45091534 -0.8913444 -0.046695367
vn 0.7969668 -0.57675225 0.17944568
vn 0.95426285 -0.16778243 0.24744993
vn 0.16778243 -0.98572206 -0.014181187
vn 0.545293 -0.7969668 0.25980657
vn 0.7969668 -0.41945612 0.43462682
vn -0.27264667 -0.92280364 -0.27220815
vn 0.95426285 -0.041945517 0.2960118
vn -0.8074534 -0.3879969 -0.4443843
vn -0.71307576 -0.60821146 -0.34871447
vn -0.8703718 -0.13632315 -0.4731479
vn -0.90183103 0.115350604 -0.41640732
vn -0.90183103 0.3355651 -0.27220744
vn -0.870172 0.49274802 -0
vn -0.8074534 0.5557796 0.19780815
vn -0.96474946 -0.16778243 -0.20275001
vn -0.99620867 -0.010486305 -0.08636166
vn -0.96474946 -0.16778243 0.20275001
vn -0.93329024 -0.29361928 -0.20677774
vn -0.99620867 0.08389139 -0.023033323
vn -0.96474946 0.17826903 0.19359407
vn -0.93329024 0.20972824 0.29151908
vn -0.90183103 -0.41945612 -0.10371782
vn -0.90183103 0.17826903 0.39360002
vn -0.8611331 -0.5083796 -0
vn -0.8703718 0.08389139 0.485196
vn -0.618698 -0.7655075 -0.17666641
vn -0.74453497 0.49286115 0.45028389
vn -0.17796427 -0.984037 -0
vn -0.5557796 -0.828426 0.06942185
vn -0.42994273 0.7759942 0.46150005
vn -0.6501572 0.3355651 0.68168294
vn 0.26216006 -0.92280364 0.2823217
vn -0.08389139 0.90183103 0.4238668
vn -0.8074534 -0.51383376 0.28981698
vn -0.115350604 -0.92280364 0.36759716
vn 0.57675225 -0.57675225 0.57854444
vn -0.49286115 -0.7655075 0.4136256
vn 0.29361928 -0.7025891 0.6481947
vn 0.7969668 -0.19924164 0.57021636
vn -0.7759942 -0.4823746 0.40638378
vn -0.08389139 -0.73404837 0.6738956
vn 0.57675225 -0.29361928 0.7623284
vn 0.92280364 0.14680982 0.35620263
vn -0.49286115 -0.60821146 0.6222272
vn 0.29361928 -0.3879969 0.8736396
vn 0.73404837 0.08389139 0.6738956
vn -0.7759942 -0.41945612 0.4710516
vn -0.08389139 -0.41945612 0.9038909
vn 0.545293 0.05243218 0.8366041
vn 0.8913444 0.3670243 0.2660795
vn -0.49286115 -0.3879969 0.7788108
vn 0.23070085 -0.010486305 0.9729682
vn 0.6711299 0.3984835 0.62513644
vn 0.828426 0.52432036 0.1969733
vn 0.45091534 0.3984835 0.7986778
vn -0.14680982 -0.07340473 0.9864373
vn -0.7759942 -0.29361928 0.55823004
vn 0.76219684 0.64734536 -0
vn 0.57675225 0.6816164 0.45028424
vn 0.4823746 0.8389126 0.25207222
vn 0.16778243 0.3670243 0.9149548
vn 0.3565377 0.71307576 0.60365874
vn 0.23070085 0.93329024 0.27522066
vn 0.041945517 0.6816164 0.7305064
vn -0.20972824 0.27264667 0.938977
vn -0.30410588 0.5872388 0.7501135
vn -0.52432036 -0.13632315 0.84053797
vn -0.5872388 0.115350604 0.80115217
vn -0.7759942 -0.16778243 0.6080149
vn -0.8074534 -0.010486305 0.58983815
g egg_0
f 3/3/3 2/2/2 1/1/1
f 1/1/1 2/2/2 4/4/4
f 3/3/3 5/5/5 2/2/2
f 2/2/2 6/6/6 4/4/4
f 2/2/2 5/5/5 6/6/6
f 3/3/3 1/1/1 7/7/7
f 1/1/1 4/4/4 8/8/8
f 7/7/7 1/1/1 8/8/8
f 4/4/4 6/6/6 9/9/9
f 8/8/8 4/4/4 10/10/10
f 4/4/4 9/9/9 10/10/10
f 5/5/5 11/11/11 6/6/6
f 3/3/3 12/12/12 5/5/5
f 5/5/5 12/12/12 11/11/11
f 6/6/6 13/13/13 9/9/9
f 6/6/6 11/11/11 13/13/13
f 7/7/7 8/8/8 14/14/14
f 8/8/8 10/10/10 15/15/15
f 14/14/14 8/8/8 15/15/15
f 3/3/3 7/7/7 16/16/16
f 16/16/16 7/7/7 14/14/14
f 12/12/12 17/17/17 11/11/11
f 3/3/3 18/18/18 12/12/12
f 12/12/12 18/18/18 17/17/17
f 3/3/3 16/16/16 19/19/19
f 3/3/3 20/20/20 18/18/18
f 3/3/3 19/19/19 21/21/21
f 16/16/16 14/14/14 22/22/22
f 19/19/19 16/16/16 22/22/22
f 14/14/14 15/15/15 23/23/23
f 22/22/22 14/14/14 23/23/23
f 19/19/19 22/22/22 24/24/24
f 21/21/21 19/19/19 24/24/24
f 11/11/11 17/17/17 25/25/25
f 11/11/11 25/25/25 13/13/13
f 18/18/18 26/26/26 17/17/17
f 18/18/18 20/20/20 26/26/26
f 22/22/22 23/23/23 27/27/27
f 24/24/24 22/22/22 27/27/27
f 17/17/17 28/28/28 25/25/25
f 17/17/17 26/26/26 28/28/28
f 23/23/23 15/15/15 29/29/29
f 27/27/27 23/23/23 30/30/30
f 23/23/23 29/29/29 30/30/30
f 15/15/15 31/31/31 29/29/29
f 15/15/15 10/10/10 31/31/31
f 10/10/10 32/32/32 31/31/31
f 10/10/10 9/9/9 32/32/32
f 9/9/9 33/33/33 32/32/32
f 9/9/9 13/13/13 33/33/33
f 13/13/13 25/25/25 34/34/34
f 13/13/13 34/34/34 33/33/33
f 25/25/25 28/28/28 35/35/35
f 25/25/25 35/35/35 34/34/34
f 29/29/29 31/31/31 36/36/36
f 31/31/31 32/32/32 37/37/37
f 31/31/31 37/37/37 36/36/36
f 32/32/32 33/33/33 38/38/38
f 32/32/32 38/38/38 37/37/37
f 33/33/33 34/34/34 39/39/39
f 33/33/33 39/39/39 38/38/38
f 34/34/34 35/35/35 40/40/40
f 34/34/34 40/40/40 39/39/39
f 29/29/29 36/36/36 41/41/41
f 30/30/30 29/29/29 41/41/41
f 28/28/28 42/42/42 35/35/35
f 35/35/35 43/43/43 40/40/40
f 35/35/35 42/42/42 43/43/43
f 28/28/28 44/44/44 42/42/42
f 26/26/26 44/44/44 28/28/28
f 26/26/26 45/45/45 44/44/44
f 20/20/20 45/45/45 26/26/26
f 20/20/20 46/46/46 45/45/45
f 3/3/3 46/46/46 20/20/20
f 44/44/44 47/47/47 42/42/42
f 45/45/45 48/48/48 44/44/44
f 44/44/44 48/48/48 47/47/47
f 46/46/46 49/49/49 45/45/45
f 45/45/45 49/49/49 48/48/48
f 42/42/42 50/50/50 43/43/43
f 42/42/42 47/47/47 50/50/50
f 3/3/3 51/51/51 46/46/46
f 46/46/46 51/51/51 49/49/49
f 40/40/40 43/43/43 52/52/52
f 43/43/43 50/50/50 53/53/53
f 43/43/43 53/53/53 52/52/52
f 40/40/40 52/52/52 54/54/54
f 39/39/39 40/40/40 54/54/54
f 39/39/39 54/54/54 55/55/55
f 38/38/38 39/39/39 55/55/55
f 38/38/38 55/55/55 56/56/56
f 37/37/37 38/38/38 56/56/56
f 37/37/37 56/56/56 57/57/57
f 36/36/36 37/37/37 57/57/57
f 36/36/36 57/57/57 58/58/58
f 41/41/41 36/36/36 58/58/58
f 54/54/54 52/52/52 59/59/59
f 55/55/55 54/54/54 60/60/60
f 54/54/54 59/59/59 60/60/60
f 60/60/60 59/59/59 61/61/61
f 52/52/52 62/62/62 59/59/59
f 59/59/59 62/62/62 61/61/61
f 52/52/52 53/53/53 62/62/62
f 55/55/55 60/60/60 63/63/63
f 56/56/56 55/55/55 63/63/63
f 63/63/63 60/60/60 61/61/61
f 56/56/56 63/63/63 64/64/64
f 57/57/57 56/56/56 64/64/64
f 64/64/64 63/63/63 61/61/61
f 57/57/57 64/64/64 65/65/65
f 58/58/58 57/57/57 65/65/65
f 65/65/65 64/64/64 61/61/61
f 62/62/62 66/66/66 61/61/61
f 53/53/53 66/66/66 62/62/62
f 67/67/67 65/65/65 61/61/61
f 58/58/58 65/65/65 67/67/67
f 66/66/66 68/68/68 61/61/61
f 69/69/69 67/67/67 61/61/61
f 53/53/53 70/70/70 66/66/66
f 70/70/70 68/68/68 66/66/66
f 50/50/50 70/70/70 53/53/53
f 71/71/71 58/58/58 67/67/67
f 71/71/71 67/67/67 69/69/69
f 41/41/41 58/58/58 71/71/71
f 50/50/50 72/72/72 70/70/70
f 47/47/47 72/72/72 50/50/50
f 70/70/70 73/73/73 68/68/68
f 72/72/72 73/73/73 70/70/70
f 74/74/74 41/41/41 71/71/71
f 30/30/30 41/41/41 74/74/74
f 75/75/75 71/71/71 69/69/69
f 74/74/74 71/71/71 75/75/75
f 47/47/47 76/76/76 72/72/72
f 48/48/48 76/76/76 47/47/47
f 77/77/77 30/30/30 74/74/74
f 27/27/27 30/30/30 77/77/77
f 73/73/73 78/78/78 68/68/68
f 68/68/68 78/78/78 61/61/61
f 72/72/72 79/79/79 73/73/73
f 76/76/76 79/79/79 72/72/72
f 48/48/48 80/80/80 76/76/76
f 49/49/49 80/80/80 48/48/48
f 73/73/73 81/81/81 78/78/78
f 79/79/79 81/81/81 73/73/73
f 76/76/76 82/82/82 79/79/79
f 80/80/80 82/82/82 76/76/76
f 49/49/49 83/83/83 80/80/80
f 51/51/51 83/83/83 49/49/49
f 78/78/78 84/84/84 61/61/61
f 81/81/81 84/84/84 78/78/78
f 79/79/79 85/85/85 81/81/81
f 82/82/82 85/85/85 79/79/79
f 80/80/80 86/86/86 82/82/82
f 83/83/83 86/86/86 80/80/80
f 51/51/51 87/87/87 83/83/83
f 3/3/3 87/87/87 51/51/51
f 81/81/81 88/88/88 84/84/84
f 85/85/85 88/88/88 81/81/81
f 82/82/82 89/89/89 85/85/85
f 86/86/86 89/89/89 82/82/82
f 83/83/83 90/90/90 86/86/86
f 87/87/87 90/90/90 83/83/83
f 84/84/84 91/91/91 61/61/61
f 88/88/88 91/91/91 84/84/84
f 85/85/85 92/92/92 88/88/88
f 89/89/89 92/92/92 85/85/85
f 86/86/86 93/93/93 89/89/89
f 90/90/90 93/93/93 86/86/86
f 87/87/87 94/94/94 90/90/90
f 3/3/3 94/94/94 87/87/87
f 88/88/88 95/95/95 91/91/91
f 92/92/92 95/95/95 88/88/88
f 89/89/89 96/96/96 92/92/92
f 93/93/93 96/96/96 89/89/89
f 90/90/90 97/97/97 93/93/93
f 94/94/94 97/97/97 90/90/90
f 3/3/3 98/98/98 94/94/94
f 94/94/94 98/98/98 97/97/97
f 97/97/97 99/99/99 93/93/93
f 93/93/93 99/99/99 96/96/96
f 96/96/96 100/100/100 92/92/92
f 92/92/92 100/100/100 95/95/95
f 95/95/95 101/101/101 91/91/91
f 91/91/91 101/101/101 61/61/61
f 3/3/3 102/102/102 98/98/98
f 3/3/3 21/21/21 102/102/102
f 98/98/98 103/103/103 97/97/97
f 98/98/98 102/102/102 103/103/103
f 97/97/97 103/103/103 99/99/99
f 102/102/102 21/21/21 104/104/104
f 102/102/102 104/104/104 103/103/103
f 21/21/21 24/24/24 104/104/104
f 99/99/99 105/105/105 96/96/96
f 96/96/96 105/105/105 100/100/100
f 103/103/103 106/106/106 99/99/99
f 103/103/103 104/104/104 106/106/106
f 99/99/99 106/106/106 105/105/105
f 104/104/104 24/24/24 107/107/107
f 104/104/104 107/107/107 106/106/106
f 24/24/24 27/27/27 107/107/107
f 107/107/107 27/27/27 77/77/77
f 106/106/106 107/107/107 108/108/108
f 106/106/106 108/108/108 105/105/105
f 107/107/107 77/77/77 108/108/108
f 105/105/105 109/109/109 100/100/100
f 105/105/105 108/108/108 109/109/109
f 108/108/108 77/77/77 110/110/110
f 108/108/108 110/110/110 109/109/109
f 77/77/77 74/74/74 110/110/110
f 110/110/110 74/74/74 75/75/75
f 100/100/100 109/109/109 111/111/111
f 100/100/100 111/111/111 95/95/95
f 95/95/95 111/111/111 101/101/101
f 109/109/109 110/110/110 112/112/112
f 110/110/110 75/75/75 112/112/112
f 109/109/109 112/112/112 111/111/111
f 111/111/111 113/113/113 101/101/101
f 111/111/111 112/112/112 113/113/113
f 101/101/101 113/113/113 61/61/61
f 112/112/112 75/75/75 114/114/114
f 112/112/112 114/114/114 113/113/113
f 113/113/113 114/114/114 61/61/61
f 75/75/75 69/69/69 114/114/114
f 114/114/114 69/69/69 61/61/61
