g Egg_yellow
v 0.13817042 -0.008156172 -0.23931772
v -3.6465533E-08 -0.008156172 -0.27634034
v -0.13817048 -0.008156172 -0.23931764
v -0.32972056 0.17716296 0.5710925
v -0.13817057 -0.008156122 0.23931867
v -0.2393183 -0.008156122 0.13817075
v -0.5710926 0.17716302 0.3297203
v -0.4411827 0.61068064 0.76415074
v -1.05267816E-07 0.17716296 0.6594408
v -0.13817057 -0.008156122 0.23931867
v -0.76415074 0.6106807 0.4411827
v -0 0.6106806 0.8823654
v -0.37543732 1.2875232 0.6502763
v -3.646563E-08 -0.008156122 0.2763414
v 0.3297203 0.17716296 0.5710926
v 0.1381705 -0.008156122 0.23931871
v 0.1381705 -0.008156122 0.23931871
v 0.23931831 -0.008156122 0.13817082
v -0.2393183 -0.008156122 0.13817075
v 0.5710924 0.17716302 0.3297204
v 0.4411827 0.61068064 0.76415074
v 0.6594406 0.17716306 4.1499277E-07
v 0.27634084 -0.008156122 4.9449704E-07
v 0.8823654 0.6106807 4.4837395E-07
v 0.76415074 0.6106807 0.4411827
v 0.6502762 1.2875232 0.37543738
v 0.7508742 1.2875232 2.4909664E-07
v -1.2998316E-07 1.2875232 0.7508745
v 0.37543708 1.2875232 0.65027654
v 0.45957133 1.7235414 0.26533392
v 0.5306673 1.7235415 2.4909664E-07
v 0.26533362 1.7235414 0.45957157
v -6.7022434E-08 1.7235413 0.53066754
v 0.21054564 1.987655 0.12155898
v 0.24311723 1.987655 2.490559E-07
v 0.08174417 2.0662332 2.4909664E-07
v 0.121558495 1.987655 0.21054612
v -0.26533374 1.7235414 0.45957157
v -2.6152026E-07 1.987655 0.2431177
v 0.07079249 2.0662332 0.040872455
v -0.12155901 1.987655 0.21054612
v 0.040871967 2.0662332 0.070792995
v -2.6551137E-07 2.0662332 0.08174465
v -0.040872492 2.0662332 0.070792995
v -0.070793025 2.0662332 0.040872455
v -0.21054618 1.987655 0.12155898
v -0.45957148 1.7235414 0.26533392
v -0.081744716 2.0662332 2.4909664E-07
v 0.07079249 2.0662332 -0.04087203
v -0.070793025 2.0662332 -0.04087203
v -0.24311776 1.987655 2.490559E-07
v -0.5306674 1.7235415 2.4909664E-07
v -0.6502764 1.2875232 0.37543723
v -0.75087434 1.2875232 4.4837395E-07
v -0.8823654 0.6106807 4.4837395E-07
v -0.6594408 0.17716306 5.747687E-07
v -0.27634084 -0.008156122 5.6145177E-07
v -0.2393183 -0.008156122 0.13817075
v 0.23931819 -0.008156172 -0.13816994
v 0.3297203 0.17716296 -0.57109207
v 0.13817042 -0.008156172 -0.23931772
v 0.5710924 0.17716302 -0.32971996
v 0.27634084 -0.008156122 4.9449704E-07
v 0.6594406 0.17716306 4.1499277E-07
v 0.8823654 0.6106807 4.4837395E-07
v -0.23931827 -0.008156172 -0.13816987
v -0.13817048 -0.008156172 -0.23931764
v 0.13817042 -0.008156172 -0.23931772
v -0.27634084 -0.008156122 5.6145177E-07
v 0.23931831 -0.008156122 0.13817082
v -0.6594408 0.17716306 5.747687E-07
v -0.5710926 0.17716302 -0.3297198
v -0.8823654 0.6106807 4.4837395E-07
v -0.32972056 0.17716296 -0.57109195
v -3.6465533E-08 -0.008156172 -0.27634034
v -1.05267816E-07 0.17716296 -0.6594403
v -0.76415074 0.6106807 -0.4411822
v -0.75087434 1.2875232 4.4837395E-07
v -0.4411827 0.6106807 -0.7641502
v -0.6502764 1.2875232 -0.37543684
v -0.5306674 1.7235415 2.4909664E-07
v -0.37543735 1.2875232 -0.65027595
v -0.45957148 1.7235415 -0.26533353
v -0.24311776 1.987655 2.490559E-07
v -0 0.6106806 -0.8823649
v -0.26533374 1.7235415 -0.4595711
v -0.21054618 1.987655 -0.12155857
v -1.2998316E-07 1.2875232 -0.7508741
v -0.070793025 2.0662332 -0.04087203
v -0.081744716 2.0662332 2.4909664E-07
v 0.13817042 -0.008156172 -0.23931772
v -3.6465533E-08 -0.008156172 -0.27634034
v 0.4411827 0.6106807 -0.7641502
v 0.76415074 0.6106807 -0.4411822
v 0.6502762 1.2875232 -0.37543693
v 0.7508742 1.2875232 2.4909664E-07
v 0.3754371 1.2875232 -0.65027606
v 0.45957133 1.7235415 -0.26533353
v 0.5306673 1.7235415 2.4909664E-07
v -6.7022434E-08 1.7235413 -0.53066707
v 0.26533365 1.7235415 -0.4595711
v 0.21054564 1.987655 -0.12155857
v 0.24311723 1.987655 2.490559E-07
v 0.08174417 2.0662332 2.4909664E-07
v 0.07079249 2.0662332 -0.04087203
v 0.121558495 1.987655 -0.21054563
v -0.12155901 1.987655 -0.21054563
v -2.6152026E-07 1.987655 -0.24311729
v 0.040871967 2.0662332 -0.07079252
v -0.040872496 2.0662332 -0.07079252
v -2.6551137E-07 2.0662332 -0.08174421
vt 0.7430354 0.016121283
vt 0.7598922 0.016121224
vt 0.7769001 0.016121283
vt 0.8129525 0.07351279
vt 0.7769001 0.016121387
vt 0.7959367 0.016121283
vt 0.8747142 0.07351279
vt 0.8152778 0.18340299
vt 0.7577727 0.07351279
vt 0.7769001 0.016121283
vt 0.8856387 0.18340299
vt 0.75395733 0.18340299
vt 0.8117988 0.29768905
vt 0.7598922 0.016121283
vt 0.70308286 0.07351279
vt 0.74303555 0.016121387
vt 0.7430354 0.016121283
vt 0.72454983 0.016121283
vt 0.7959367 0.016121283
vt 0.64310867 0.07351279
vt 0.69280314 0.18340299
vt 0.6078812 0.07351279
vt 0.69984096 0.016121224
vt 0.5856724 0.18340299
vt 0.63476884 0.18340299
vt 0.6437753 0.29768905
vt 0.59794676 0.29768905
vt 0.7530404 0.29768905
vt 0.69412214 0.29768905
vt 0.6617571 0.3961543
vt 0.6363602 0.3961543
vt 0.69450873 0.3961543
vt 0.75140685 0.3961543
vt 0.70995206 0.46112022
vt 0.704517 0.46112022
vt 0.73650235 0.48017946
vt 0.71908706 0.46112022
vt 0.7999041 0.3961543
vt 0.7472149 0.46112022
vt 0.73907125 0.48017946
vt 0.77483994 0.46112022
vt 0.74433583 0.48017946
vt 0.7508364 0.48017946
vt 0.7572903 0.48017946
vt 0.7626738 0.48017946
vt 0.80010796 0.46112022
vt 0.8543674 0.3961543
vt 0.76528275 0.48017946
vt 0.73907125 0.48017946
vt 0.7626738 0.48017946
vt 0.80915403 0.46112022
vt 0.87046343 0.3961543
vt 0.87632895 0.29768905
vt 0.9080143 0.29768905
vt 0.93185353 0.18340299
vt 0.9074617 0.07351279
vt 0.81968063 0.016121283
vt 0.7959367 0.016121224
vt 0.72454983 0.016121283
vt 0.70308286 0.07351279
vt 0.7430354 0.016121224
vt 0.64310867 0.07351279
vt 0.69984096 0.016121283
vt 0.6078812 0.07351279
vt 0.5856724 0.18340299
vt 0.7959367 0.016121283
vt 0.7769001 0.016121283
vt 0.7430354 0.016121283
vt 0.81968063 0.016121283
vt 0.72454983 0.016121283
vt 0.9074617 0.07351279
vt 0.8747142 0.07351279
vt 0.93185353 0.18340299
vt 0.8129525 0.07351279
vt 0.7598922 0.016121224
vt 0.7577727 0.07351279
vt 0.8856387 0.18340299
vt 0.9080143 0.29768905
vt 0.8152778 0.18340299
vt 0.87632895 0.29768905
vt 0.87046343 0.3961543
vt 0.8117988 0.29768905
vt 0.8543674 0.3961543
vt 0.80915403 0.46112022
vt 0.75395733 0.18340299
vt 0.7999041 0.3961543
vt 0.80010796 0.46112022
vt 0.7530404 0.29768905
vt 0.7626738 0.48017946
vt 0.76528275 0.48017946
vt 0.7430354 0.016121283
vt 0.7598922 0.016121283
vt 0.69280314 0.18340299
vt 0.63476884 0.18340299
vt 0.6437753 0.29768905
vt 0.59794676 0.29768905
vt 0.69412214 0.29768905
vt 0.6617571 0.3961543
vt 0.6363602 0.3961543
vt 0.75140685 0.3961543
vt 0.69450873 0.3961543
vt 0.70995206 0.46112022
vt 0.704517 0.46112022
vt 0.73650235 0.48017946
vt 0.73907125 0.48017946
vt 0.71908706 0.46112022
vt 0.77483994 0.46112022
vt 0.7472149 0.46112022
vt 0.74433583 0.48017946
vt 0.7572903 0.48017946
vt 0.7508364 0.48017946
vn 0.12905517 -0.9661154 -0.22352996
vn -0 -0.96611553 -0.25811023
vn -0.1290552 -0.9661154 -0.22352995
vn -0.36174238 -0.69034076 0.6265558
vn -0.12905538 -0.9661154 0.22353026
vn -0.22353019 -0.9661154 0.12905513
vn -0.6265559 -0.69034076 0.36174214
vn -0.49548545 -0.13407797 0.8582058
vn -0 -0.6903407 0.72348434
vn -0.12905538 -0.9661154 0.22353026
vn -0.8582058 -0.13407786 0.49548554
vn -0 -0.13407806 0.99097073
vn -0.47419813 0.3170883 0.821335
vn -0 -0.9661154 0.25811058
vn 0.3617422 -0.69034076 0.6265558
vn 0.12905532 -0.9661154 0.22353026
vn 0.12905532 -0.9661154 0.22353026
vn 0.22353032 -0.9661154 0.12905519
vn -0.22353019 -0.9661154 0.12905513
vn 0.6265558 -0.6903408 0.36174217
vn 0.49548545 -0.13407797 0.8582058
vn 0.72348416 -0.690341 0
vn 0.25811037 -0.9661154 0
vn 0.99097073 -0.13407792 1.0388963E-07
vn 0.85820585 -0.1340779 0.49548542
vn 0.821335 0.31708845 0.47419807
vn 0.94839597 0.3170884 0
vn -1.8672958E-07 0.31708837 0.94839597
vn 0.47419792 0.31708843 0.821335
vn 0.69952345 0.5895387 0.40387025
vn 0.80774003 0.5895388 1.767761E-07
vn 0.40387008 0.5895387 0.69952357
vn -1.6919991E-07 0.58953846 0.8077403
vn 0.5014005 0.8153505 0.28948414
vn 0.57896775 0.8153505 2.1641038E-07
vn 0.2595402 0.96573234 0
vn 0.28948405 0.8153502 0.50140107
vn -0.4038702 0.58953846 0.6995236
vn -1.4509338E-07 0.8153502 0.57896817
vn 0.22476764 0.96573246 0.12977016
vn -0.28948396 0.8153502 0.5014011
vn 0.12976998 0.96573234 0.22476852
vn -3.2265154E-07 0.96573234 0.2595402
vn -0.12977034 0.9657322 0.22476847
vn -0.22476795 0.96573234 0.12977019
vn -0.5014005 0.8153505 0.28948438
vn -0.69952357 0.5895384 0.4038704
vn -0.25954077 0.9657322 0
vn 0.22476785 0.96573234 -0.12977025
vn -0.22476871 0.9657322 -0.1297702
vn -0.57896805 0.8153502 2.3608409E-07
vn -0.8077402 0.58953863 1.919283E-07
vn -0.821335 0.31708834 0.47419804
vn -0.94839597 0.31708837 1.6149582E-07
vn -0.99097085 -0.13407785 1.2029325E-07
vn -0.7234843 -0.69034076 1.4802819E-07
vn -0.25811034 -0.9661154 1.00663776E-07
vn -0.22353019 -0.9661154 0.12905513
vn 0.22353022 -0.9661154 -0.12905501
vn 0.36174214 -0.6903409 -0.6265558
vn 0.12905517 -0.9661154 -0.22352996
vn 0.62655586 -0.6903408 -0.3617421
vn 0.25811037 -0.9661154 0
vn 0.72348416 -0.690341 0
vn 0.99097073 -0.13407792 1.0388963E-07
vn -0.22353019 -0.9661154 -0.12905498
vn -0.1290552 -0.9661154 -0.22352995
vn 0.12905517 -0.9661154 -0.22352996
vn -0.25811034 -0.9661154 1.00663776E-07
vn 0.22353032 -0.9661154 0.12905519
vn -0.7234843 -0.69034076 1.4802819E-07
vn -0.62655586 -0.6903408 -0.36174208
vn -0.99097085 -0.13407785 1.2029325E-07
vn -0.36174232 -0.6903409 -0.6265557
vn -0 -0.96611553 -0.25811023
vn -1.16307895E-07 -0.6903409 -0.7234842
vn -0.85820585 -0.1340779 -0.49548534
vn -0.94839597 0.31708837 1.6149582E-07
vn -0.49548545 -0.13407797 -0.8582058
vn -0.8213351 0.3170883 -0.47419798
vn -0.8077402 0.58953863 1.919283E-07
vn -0.474198 0.31708828 -0.8213351
vn -0.69952357 0.58953846 -0.4038702
vn -0.57896805 0.8153502 2.3608409E-07
vn -0 -0.13407809 -0.99097073
vn -0.40387002 0.5895386 -0.6995237
vn -0.5014008 0.81535023 -0.28948408
vn -1.3121536E-07 0.31708834 -0.94839597
vn -0.22476871 0.9657322 -0.1297702
vn -0.25954077 0.9657322 0
vn 0.12905517 -0.9661154 -0.22352996
vn -0 -0.96611553 -0.25811023
vn 0.49548542 -0.13407792 -0.85820585
vn 0.85820585 -0.1340779 -0.49548534
vn 0.821335 0.3170883 -0.47419804
vn 0.94839597 0.3170884 0
vn 0.47419786 0.31708834 -0.8213351
vn 0.6995235 0.5895387 -0.40387008
vn 0.80774003 0.5895388 1.767761E-07
vn -0 0.58953834 -0.80774033
vn 0.40387002 0.5895387 -0.69952357
vn 0.5014006 0.8153506 -0.28948396
vn 0.57896775 0.8153505 2.1641038E-07
vn 0.2595402 0.96573234 0
vn 0.22476785 0.96573234 -0.12977025
vn 0.2894841 0.81535035 -0.5014009
vn -0.28948432 0.8153501 -0.50140095
vn -0 0.8153502 -0.5789681
vn 0.12976998 0.96573234 -0.22476843
vn -0.12977089 0.9657322 -0.22476842
vn -3.251145E-07 0.96573234 -0.2595402
g Egg_yellow_0
f 3/3/3 2/2/2 1/1/1
f 6/6/6 5/5/5 4/4/4
f 7/7/7 6/6/6 4/4/4
f 7/7/7 4/4/4 8/8/8
f 8/8/8 4/4/4 9/9/9
f 9/9/9 4/4/4 10/10/10
f 11/11/11 7/7/7 8/8/8
f 12/12/12 8/8/8 9/9/9
f 11/11/11 8/8/8 13/13/13
f 13/13/13 8/8/8 12/12/12
f 14/14/14 9/9/9 10/10/10
f 15/15/15 9/9/9 14/14/14
f 12/12/12 9/9/9 15/15/15
f 16/16/16 15/15/15 14/14/14
f 17/17/17 14/14/14 10/10/10
f 18/18/18 17/17/17 10/10/10
f 18/18/18 10/10/10 19/19/19
f 15/15/15 17/17/17 20/20/20
f 17/17/17 18/18/18 20/20/20
f 21/21/21 12/12/12 15/15/15
f 21/21/21 15/15/15 20/20/20
f 20/20/20 18/18/18 22/22/22
f 18/18/18 23/23/23 22/22/22
f 20/20/20 22/22/22 24/24/24
f 25/25/25 20/20/20 24/24/24
f 25/25/25 21/21/21 20/20/20
f 26/26/26 25/25/25 24/24/24
f 21/21/21 25/25/25 26/26/26
f 27/27/27 26/26/26 24/24/24
f 28/28/28 12/12/12 21/21/21
f 28/28/28 13/13/13 12/12/12
f 29/29/29 21/21/21 26/26/26
f 29/29/29 28/28/28 21/21/21
f 30/30/30 26/26/26 27/27/27
f 31/31/31 30/30/30 27/27/27
f 32/32/32 29/29/29 26/26/26
f 30/30/30 32/32/32 26/26/26
f 33/33/33 28/28/28 29/29/29
f 32/32/32 33/33/33 29/29/29
f 34/34/34 30/30/30 31/31/31
f 35/35/35 34/34/34 31/31/31
f 35/35/35 36/36/36 34/34/34
f 37/37/37 32/32/32 30/30/30
f 34/34/34 37/37/37 30/30/30
f 38/38/38 13/13/13 28/28/28
f 33/33/33 38/38/38 28/28/28
f 39/39/39 33/33/33 32/32/32
f 37/37/37 39/39/39 32/32/32
f 34/34/34 40/40/40 37/37/37
f 36/36/36 40/40/40 34/34/34
f 41/41/41 38/38/38 33/33/33
f 39/39/39 41/41/41 33/33/33
f 37/37/37 42/42/42 39/39/39
f 40/40/40 42/42/42 37/37/37
f 42/42/42 43/43/43 39/39/39
f 39/39/39 43/43/43 41/41/41
f 44/44/44 43/43/43 42/42/42
f 44/44/44 42/42/42 40/40/40
f 43/43/43 44/44/44 41/41/41
f 45/45/45 40/40/40 36/36/36
f 45/45/45 44/44/44 40/40/40
f 41/41/41 44/44/44 46/46/46
f 41/41/41 46/46/46 38/38/38
f 44/44/44 45/45/45 46/46/46
f 38/38/38 47/47/47 13/13/13
f 46/46/46 47/47/47 38/38/38
f 36/36/36 48/48/48 45/45/45
f 48/48/48 36/36/36 49/49/49
f 50/50/50 48/48/48 49/49/49
f 45/45/45 48/48/48 51/51/51
f 46/46/46 45/45/45 51/51/51
f 46/46/46 51/51/51 47/47/47
f 51/51/51 52/52/52 47/47/47
f 47/47/47 53/53/53 13/13/13
f 47/47/47 52/52/52 53/53/53
f 52/52/52 54/54/54 53/53/53
f 53/53/53 11/11/11 13/13/13
f 53/53/53 54/54/54 11/11/11
f 54/54/54 55/55/55 11/11/11
f 11/11/11 55/55/55 7/7/7
f 55/55/55 56/56/56 7/7/7
f 7/7/7 56/56/56 57/57/57
f 58/58/58 7/7/7 57/57/57
f 61/61/61 60/60/60 59/59/59
f 60/60/60 62/62/62 59/59/59
f 59/59/59 62/62/62 63/63/63
f 62/62/62 64/64/64 63/63/63
f 64/64/64 62/62/62 65/65/65
f 59/59/59 63/63/63 66/66/66
f 59/59/59 66/66/66 67/67/67
f 68/68/68 59/59/59 67/67/67
f 63/63/63 69/69/69 66/66/66
f 69/69/69 63/63/63 70/70/70
f 70/70/70 19/19/19 69/69/69
f 69/69/69 71/71/71 66/66/66
f 71/71/71 72/72/72 66/66/66
f 66/66/66 72/72/72 67/67/67
f 71/71/71 73/73/73 72/72/72
f 72/72/72 74/74/74 67/67/67
f 67/67/67 74/74/74 75/75/75
f 74/74/74 76/76/76 75/75/75
f 73/73/73 77/77/77 72/72/72
f 73/73/73 78/78/78 77/77/77
f 74/74/74 72/72/72 79/79/79
f 74/74/74 79/79/79 76/76/76
f 72/72/72 77/77/77 79/79/79
f 78/78/78 80/80/80 77/77/77
f 78/78/78 81/81/81 80/80/80
f 79/79/79 77/77/77 82/82/82
f 77/77/77 80/80/80 82/82/82
f 81/81/81 83/83/83 80/80/80
f 80/80/80 83/83/83 82/82/82
f 81/81/81 84/84/84 83/83/83
f 79/79/79 85/85/85 76/76/76
f 79/79/79 82/82/82 85/85/85
f 83/83/83 86/86/86 82/82/82
f 84/84/84 87/87/87 83/83/83
f 83/83/83 87/87/87 86/86/86
f 82/82/82 88/88/88 85/85/85
f 82/82/82 86/86/86 88/88/88
f 89/89/89 87/87/87 84/84/84
f 90/90/90 89/89/89 84/84/84
f 76/76/76 85/85/85 60/60/60
f 76/76/76 60/60/60 91/91/91
f 92/92/92 76/76/76 91/91/91
f 85/85/85 93/93/93 60/60/60
f 85/85/85 88/88/88 93/93/93
f 60/60/60 93/93/93 62/62/62
f 93/93/93 94/94/94 62/62/62
f 62/62/62 94/94/94 65/65/65
f 94/94/94 95/95/95 65/65/65
f 94/94/94 93/93/93 95/95/95
f 95/95/95 96/96/96 65/65/65
f 88/88/88 97/97/97 93/93/93
f 93/93/93 97/97/97 95/95/95
f 95/95/95 98/98/98 96/96/96
f 98/98/98 99/99/99 96/96/96
f 88/88/88 100/100/100 97/97/97
f 86/86/86 100/100/100 88/88/88
f 97/97/97 101/101/101 95/95/95
f 101/101/101 98/98/98 95/95/95
f 100/100/100 101/101/101 97/97/97
f 98/98/98 102/102/102 99/99/99
f 102/102/102 103/103/103 99/99/99
f 104/104/104 103/103/103 102/102/102
f 105/105/105 104/104/104 102/102/102
f 106/106/106 102/102/102 98/98/98
f 101/101/101 106/106/106 98/98/98
f 105/105/105 102/102/102 106/106/106
f 86/86/86 107/107/107 100/100/100
f 87/87/87 107/107/107 86/86/86
f 100/100/100 108/108/108 101/101/101
f 108/108/108 106/106/106 101/101/101
f 107/107/107 108/108/108 100/100/100
f 109/109/109 105/105/105 106/106/106
f 109/109/109 106/106/106 108/108/108
f 89/89/89 105/105/105 109/109/109
f 89/89/89 110/110/110 87/87/87
f 110/110/110 107/107/107 87/87/87
f 110/110/110 89/89/89 109/109/109
f 111/111/111 108/108/108 107/107/107
f 111/111/111 109/109/109 108/108/108
f 109/109/109 111/111/111 110/110/110
f 110/110/110 111/111/111 107/107/107
