g Egg_Green
v 0.040871967 2.0662332 0.070792995
v -2.6551137E-07 2.0662332 0.08174465
v -0.040872492 2.0662332 0.070792995
v -0.040872496 2.0662332 -0.07079252
v -2.6551137E-07 2.0662332 -0.08174421
v 0.040871967 2.0662332 -0.07079252
v -0.070793025 2.0662332 0.040872455
v -0.081744716 2.0662332 2.4909664E-07
v 0.08174417 2.0662332 2.4909664E-07
v 0.07079249 2.0662332 0.040872455
v 0.21054564 1.987655 -0.12155857
v 0.24311723 1.987655 2.490559E-07
v 0.5306673 1.7235415 2.4909664E-07
v 0.07079249 2.0662332 -0.04087203
v 0.45957133 1.7235415 -0.26533353
v 0.7508742 1.2875232 2.4909664E-07
v 0.121558495 1.987655 -0.21054563
v 0.6502762 1.2875232 -0.37543693
v 0.8823654 0.6106807 4.4837395E-07
v 0.040871967 2.0662332 -0.07079252
v -0.070793025 2.0662332 -0.04087203
v 0.26533365 1.7235415 -0.4595711
v -2.6152026E-07 1.987655 -0.24311729
v -2.6551137E-07 2.0662332 -0.08174421
v -0.040872496 2.0662332 -0.07079252
v -0.12155901 1.987655 -0.21054563
v -6.7022434E-08 1.7235413 -0.53066707
v -0.21054618 1.987655 -0.12155857
v 0.3754371 1.2875232 -0.65027606
v -0.26533374 1.7235415 -0.4595711
v -0.24311776 1.987655 2.490559E-07
v -0.081744716 2.0662332 2.4909664E-07
v -0.45957148 1.7235415 -0.26533353
v -0.5306674 1.7235415 2.4909664E-07
v -1.2998316E-07 1.2875232 -0.7508741
v 0.4411827 0.6106807 -0.7641502
v -0.37543735 1.2875232 -0.65027595
v -0.6502764 1.2875232 -0.37543684
v -0.75087434 1.2875232 4.4837395E-07
v -0.76415074 0.6106807 -0.4411822
v -0.8823654 0.6106807 4.4837395E-07
v -0 0.6106806 -0.8823649
v -0.4411827 0.6106807 -0.7641502
v -0.5710926 0.17716302 -0.3297198
v -0.6594408 0.17716306 5.747687E-07
v 0.76415074 0.6106807 -0.4411822
v 0.5710924 0.17716302 -0.32971996
v 0.6594406 0.17716306 4.1499277E-07
v 0.27634084 -0.008156122 4.9449704E-07
v 0.23931819 -0.008156172 -0.13816994
v 0.3297203 0.17716296 -0.57109207
v 0.13817042 -0.008156172 -0.23931772
v -1.05267816E-07 0.17716296 -0.6594403
v -3.6465533E-08 -0.008156172 -0.27634034
v -0.13817048 -0.008156172 -0.23931764
v -0.32972056 0.17716296 -0.57109195
v -0.23931827 -0.008156172 -0.13816987
v -0.27634084 -0.008156122 5.6145177E-07
v 0.27634084 -0.008156122 4.9449704E-07
v 0.23931831 -0.008156122 0.13817082
v -0.24311776 1.987655 2.490559E-07
v -0.081744716 2.0662332 2.4909664E-07
v -0.070793025 2.0662332 0.040872455
v -0.21054618 1.987655 0.12155898
v -0.45957148 1.7235414 0.26533392
v -0.5306674 1.7235415 2.4909664E-07
v -0.040872492 2.0662332 0.070792995
v 0.07079249 2.0662332 0.040872455
v -0.6502764 1.2875232 0.37543723
v -0.75087434 1.2875232 4.4837395E-07
v -0.76415074 0.6106807 0.4411827
v -0.8823654 0.6106807 4.4837395E-07
v -0.37543732 1.2875232 0.6502763
v -0.26533374 1.7235414 0.45957157
v -0.12155901 1.987655 0.21054612
v -0.5710926 0.17716302 0.3297203
v -0.6594408 0.17716306 5.747687E-07
v -0.27634084 -0.008156122 5.6145177E-07
v -2.6551137E-07 2.0662332 0.08174465
v -2.6152026E-07 1.987655 0.2431177
v 0.040871967 2.0662332 0.070792995
v -6.7022434E-08 1.7235413 0.53066754
v 0.121558495 1.987655 0.21054612
v -0.4411827 0.61068064 0.76415074
v -0.2393183 -0.008156122 0.13817075
v 0.23931831 -0.008156122 0.13817082
v -0.32972056 0.17716296 0.5710925
v -0.13817057 -0.008156122 0.23931867
v -1.2998316E-07 1.2875232 0.7508745
v 0.26533362 1.7235414 0.45957157
v -1.05267816E-07 0.17716296 0.6594408
v -0 0.6106806 0.8823654
v 0.37543708 1.2875232 0.65027654
v -3.646563E-08 -0.008156122 0.2763414
v 0.1381705 -0.008156122 0.23931871
v 0.3297203 0.17716296 0.5710926
v 0.1381705 -0.008156122 0.23931871
v 0.4411827 0.61068064 0.76415074
v 0.5710924 0.17716302 0.3297204
v 0.23931831 -0.008156122 0.13817082
v 0.6502762 1.2875232 0.37543738
v 0.6594406 0.17716306 4.1499277E-07
v 0.27634084 -0.008156122 4.9449704E-07
v 0.8823654 0.6106807 4.4837395E-07
v 0.76415074 0.6106807 0.4411827
v 0.7508742 1.2875232 2.4909664E-07
v 0.45957133 1.7235414 0.26533392
v 0.5306673 1.7235415 2.4909664E-07
v 0.21054564 1.987655 0.12155898
v 0.24311723 1.987655 2.490559E-07
v 0.08174417 2.0662332 2.4909664E-07
v 0.07079249 2.0662332 -0.04087203
v -0.081744716 2.0662332 2.4909664E-07
v -0.070793025 2.0662332 -0.04087203
v -0.13817048 -0.008156172 -0.23931764
v 0.23931819 -0.008156172 -0.13816994
v 0.13817042 -0.008156172 -0.23931772
v -0.23931827 -0.008156172 -0.13816987
v 0.27634084 -0.008156122 4.9449704E-07
v -0.2393183 -0.008156122 0.13817075
v -0.13817057 -0.008156122 0.23931867
v 0.23931831 -0.008156122 0.13817082
v 0.1381705 -0.008156122 0.23931871
vt 0.112527594 0.9004663
vt 0.11758247 0.9043322
vt 0.12260111 0.9081704
vt 0.12260111 0.9081704
vt 0.11758247 0.9043322
vt 0.112527594 0.9004663
vt 0.12678742 0.91137207
vt 0.12881613 0.9129236
vt 0.10643625 0.89580774
vt 0.10843378 0.89733547
vt 0.09515403 0.86777484
vt 0.09092751 0.8645424
vt 0.06984514 0.78227586
vt 0.10843378 0.89733547
vt 0.089594156 0.79737955
vt 0.08834934 0.6961782
vt 0.102257386 0.87320733
vt 0.123986155 0.72343266
vt 0.1349523 0.6154624
vt 0.112527594 0.9004663
vt 0.12678742 0.91137207
vt 0.11506219 0.8168571
vt 0.12412989 0.88993514
vt 0.11758247 0.9043322
vt 0.12260111 0.9081704
vt 0.14561145 0.90636384
vt 0.15930673 0.85069466
vt 0.16526014 0.9213909
vt 0.16313642 0.75337416
vt 0.19701871 0.87953615
vt 0.17229445 0.92677057
vt 0.12881613 0.9129236
vt 0.23936999 0.91192573
vt 0.2518865 0.9214982
vt 0.20895188 0.7884131
vt 0.21825828 0.6791735
vt 0.254643 0.8233569
vt 0.30482247 0.86173344
vt 0.3294613 0.8805768
vt 0.36820936 0.7938537
vt 0.40414652 0.8213379
vt 0.26581246 0.7155422
vt 0.31349587 0.75200975
vt 0.4137021 0.71676457
vt 0.4391669 0.7362397
vt 0.17313012 0.64466023
vt 0.23360318 0.5790278
vt 0.20620984 0.5580778
vt 0.30591464 0.5758991
vt 0.3251285 0.5905935
vt 0.28023973 0.6146947
vt 0.33950305 0.60158694
vt 0.32276714 0.64721894
vt 0.35261118 0.61161184
vt 0.36583656 0.6217264
vt 0.36567548 0.6800346
vt 0.3806396 0.6330476
vt 0.39910322 0.6471682
vt 0.30591464 0.5758991
vt 0.3251285 0.5905935
vt 0.17229445 0.92677057
vt 0.12881613 0.9129236
vt 0.12678742 0.91137207
vt 0.16526014 0.9213909
vt 0.23936999 0.91192573
vt 0.2518865 0.9214982
vt 0.12260111 0.9081704
vt 0.10843378 0.89733547
vt 0.30482247 0.86173344
vt 0.3294613 0.8805768
vt 0.36820936 0.7938537
vt 0.40414652 0.8213379
vt 0.254643 0.8233569
vt 0.19701871 0.87953615
vt 0.14561145 0.90636384
vt 0.4137021 0.71676457
vt 0.4391669 0.7362397
vt 0.39910322 0.6471682
vt 0.11758247 0.9043322
vt 0.12412989 0.88993514
vt 0.112527594 0.9004663
vt 0.15930673 0.85069466
vt 0.102257386 0.87320733
vt 0.31349587 0.75200975
vt 0.3806396 0.6330476
vt 0.3251285 0.5905935
vt 0.36567548 0.6800346
vt 0.36583656 0.6217264
vt 0.20895188 0.7884131
vt 0.11506219 0.8168571
vt 0.32276714 0.64721894
vt 0.26581246 0.7155422
vt 0.16313642 0.75337416
vt 0.35261118 0.61161184
vt 0.33950305 0.60158694
vt 0.28023973 0.6146947
vt 0.33950305 0.60158694
vt 0.21825828 0.6791735
vt 0.23360318 0.5790278
vt 0.3251285 0.5905935
vt 0.123986155 0.72343266
vt 0.20620984 0.5580778
vt 0.30591464 0.5758991
vt 0.1349523 0.6154624
vt 0.17313012 0.64466023
vt 0.08834934 0.6961782
vt 0.089594156 0.79737955
vt 0.06984514 0.78227586
vt 0.09515403 0.86777484
vt 0.09092751 0.8645424
vt 0.10643625 0.89580774
vt 0.10843378 0.89733547
vt 0.12881613 0.9129236
vt 0.12678742 0.91137207
vt 0.36583656 0.6217264
vt 0.3251285 0.5905935
vt 0.33950305 0.60158694
vt 0.3806396 0.6330476
vt 0.30591464 0.5758991
vt 0.3806396 0.6330476
vt 0.36583656 0.6217264
vt 0.3251285 0.5905935
vt 0.33950305 0.60158694
vn 0.12976998 0.96573234 0.22476852
vn -3.2265154E-07 0.96573234 0.2595402
vn -0.12977034 0.9657322 0.22476847
vn -0.12977089 0.9657322 -0.22476842
vn -3.251145E-07 0.96573234 -0.2595402
vn 0.12976998 0.96573234 -0.22476843
vn -0.22476795 0.96573234 0.12977019
vn -0.25954077 0.9657322 0
vn 0.2595402 0.96573234 0
vn 0.22476764 0.96573246 0.12977016
vn 0.5014006 0.8153506 -0.28948396
vn 0.57896775 0.8153505 2.1641038E-07
vn 0.80774003 0.5895388 1.767761E-07
vn 0.22476785 0.96573234 -0.12977025
vn 0.6995235 0.5895387 -0.40387008
vn 0.94839597 0.3170884 0
vn 0.2894841 0.81535035 -0.5014009
vn 0.821335 0.3170883 -0.47419804
vn 0.99097073 -0.13407792 1.0388963E-07
vn 0.12976998 0.96573234 -0.22476843
vn -0.22476871 0.9657322 -0.1297702
vn 0.40387002 0.5895387 -0.69952357
vn -0 0.8153502 -0.5789681
vn -3.251145E-07 0.96573234 -0.2595402
vn -0.12977089 0.9657322 -0.22476842
vn -0.28948432 0.8153501 -0.50140095
vn -0 0.58953834 -0.80774033
vn -0.5014008 0.81535023 -0.28948408
vn 0.47419786 0.31708834 -0.8213351
vn -0.40387002 0.5895386 -0.6995237
vn -0.57896805 0.8153502 2.3608409E-07
vn -0.25954077 0.9657322 0
vn -0.69952357 0.58953846 -0.4038702
vn -0.8077402 0.58953863 1.919283E-07
vn -1.3121536E-07 0.31708834 -0.94839597
vn 0.49548542 -0.13407792 -0.85820585
vn -0.474198 0.31708828 -0.8213351
vn -0.8213351 0.3170883 -0.47419798
vn -0.94839597 0.31708837 1.6149582E-07
vn -0.85820585 -0.1340779 -0.49548534
vn -0.99097085 -0.13407785 1.2029325E-07
vn -0 -0.13407809 -0.99097073
vn -0.49548545 -0.13407797 -0.8582058
vn -0.62655586 -0.6903408 -0.36174208
vn -0.7234843 -0.69034076 1.4802819E-07
vn 0.85820585 -0.1340779 -0.49548534
vn 0.62655586 -0.6903408 -0.3617421
vn 0.72348416 -0.690341 0
vn 0.25811037 -0.9661154 0
vn 0.22353022 -0.9661154 -0.12905501
vn 0.36174214 -0.6903409 -0.6265558
vn 0.12905517 -0.9661154 -0.22352996
vn -1.16307895E-07 -0.6903409 -0.7234842
vn -0 -0.96611553 -0.25811023
vn -0.1290552 -0.9661154 -0.22352995
vn -0.36174232 -0.6903409 -0.6265557
vn -0.22353019 -0.9661154 -0.12905498
vn -0.25811034 -0.9661154 1.00663776E-07
vn 0.25811037 -0.9661154 0
vn 0.22353032 -0.9661154 0.12905519
vn -0.57896805 0.8153502 2.3608409E-07
vn -0.25954077 0.9657322 0
vn -0.22476795 0.96573234 0.12977019
vn -0.5014005 0.8153505 0.28948438
vn -0.69952357 0.5895384 0.4038704
vn -0.8077402 0.58953863 1.919283E-07
vn -0.12977034 0.9657322 0.22476847
vn 0.22476764 0.96573246 0.12977016
vn -0.821335 0.31708834 0.47419804
vn -0.94839597 0.31708837 1.6149582E-07
vn -0.8582058 -0.13407786 0.49548554
vn -0.99097085 -0.13407785 1.2029325E-07
vn -0.47419813 0.3170883 0.821335
vn -0.4038702 0.58953846 0.6995236
vn -0.28948396 0.8153502 0.5014011
vn -0.6265559 -0.69034076 0.36174214
vn -0.7234843 -0.69034076 1.4802819E-07
vn -0.25811034 -0.9661154 1.00663776E-07
vn -3.2265154E-07 0.96573234 0.2595402
vn -1.4509338E-07 0.8153502 0.57896817
vn 0.12976998 0.96573234 0.22476852
vn -1.6919991E-07 0.58953846 0.8077403
vn 0.28948405 0.8153502 0.50140107
vn -0.49548545 -0.13407797 0.8582058
vn -0.22353019 -0.9661154 0.12905513
vn 0.22353032 -0.9661154 0.12905519
vn -0.36174238 -0.69034076 0.6265558
vn -0.12905538 -0.9661154 0.22353026
vn -1.8672958E-07 0.31708837 0.94839597
vn 0.40387008 0.5895387 0.69952357
vn -0 -0.6903407 0.72348434
vn -0 -0.13407806 0.99097073
vn 0.47419792 0.31708843 0.821335
vn -0 -0.9661154 0.25811058
vn 0.12905532 -0.9661154 0.22353026
vn 0.3617422 -0.69034076 0.6265558
vn 0.12905532 -0.9661154 0.22353026
vn 0.49548545 -0.13407797 0.8582058
vn 0.6265558 -0.6903408 0.36174217
vn 0.22353032 -0.9661154 0.12905519
vn 0.821335 0.31708845 0.47419807
vn 0.72348416 -0.690341 0
vn 0.25811037 -0.9661154 0
vn 0.99097073 -0.13407792 1.0388963E-07
vn 0.85820585 -0.1340779 0.49548542
vn 0.94839597 0.3170884 0
vn 0.69952345 0.5895387 0.40387025
vn 0.80774003 0.5895388 1.767761E-07
vn 0.5014005 0.8153505 0.28948414
vn 0.57896775 0.8153505 2.1641038E-07
vn 0.2595402 0.96573234 0
vn 0.22476785 0.96573234 -0.12977025
vn -0.25954077 0.9657322 0
vn -0.22476871 0.9657322 -0.1297702
vn -0.1290552 -0.9661154 -0.22352995
vn 0.22353022 -0.9661154 -0.12905501
vn 0.12905517 -0.9661154 -0.22352996
vn -0.22353019 -0.9661154 -0.12905498
vn 0.25811037 -0.9661154 0
vn -0.22353019 -0.9661154 0.12905513
vn -0.12905538 -0.9661154 0.22353026
vn 0.22353032 -0.9661154 0.12905519
vn 0.12905532 -0.9661154 0.22353026
g Egg_Green_0
f 3/3/3 2/2/2 1/1/1
f 6/6/6 5/5/5 4/4/4
f 9/9/9 8/8/8 7/7/7
f 7/7/7 10/10/10 9/9/9
f 9/9/9 12/12/12 11/11/11
f 11/11/11 12/12/12 13/13/13
f 14/14/14 9/9/9 11/11/11
f 15/15/15 11/11/11 13/13/13
f 15/15/15 13/13/13 16/16/16
f 14/14/14 11/11/11 17/17/17
f 17/17/17 11/11/11 15/15/15
f 18/18/18 15/15/15 16/16/16
f 18/18/18 16/16/16 19/19/19
f 20/20/20 14/14/14 17/17/17
f 21/21/21 14/14/14 20/20/20
f 22/22/22 17/17/17 15/15/15
f 22/22/22 15/15/15 18/18/18
f 20/20/20 17/17/17 23/23/23
f 23/23/23 17/17/17 22/22/22
f 24/24/24 20/20/20 23/23/23
f 25/25/25 21/21/21 20/20/20
f 24/24/24 23/23/23 26/26/26
f 25/25/25 24/24/24 26/26/26
f 27/27/27 23/23/23 22/22/22
f 26/26/26 23/23/23 27/27/27
f 21/21/21 25/25/25 28/28/28
f 25/25/25 26/26/26 28/28/28
f 29/29/29 22/22/22 18/18/18
f 27/27/27 22/22/22 29/29/29
f 30/30/30 26/26/26 27/27/27
f 28/28/28 26/26/26 30/30/30
f 21/21/21 28/28/28 31/31/31
f 32/32/32 21/21/21 31/31/31
f 31/31/31 28/28/28 33/33/33
f 33/33/33 28/28/28 30/30/30
f 34/34/34 31/31/31 33/33/33
f 35/35/35 27/27/27 29/29/29
f 30/30/30 27/27/27 35/35/35
f 36/36/36 29/29/29 18/18/18
f 35/35/35 29/29/29 36/36/36
f 33/33/33 30/30/30 37/37/37
f 37/37/37 30/30/30 35/35/35
f 34/34/34 33/33/33 38/38/38
f 38/38/38 33/33/33 37/37/37
f 39/39/39 34/34/34 38/38/38
f 39/39/39 38/38/38 40/40/40
f 40/40/40 38/38/38 37/37/37
f 41/41/41 39/39/39 40/40/40
f 37/37/37 35/35/35 42/42/42
f 42/42/42 35/35/35 36/36/36
f 43/43/43 40/40/40 37/37/37
f 43/43/43 37/37/37 42/42/42
f 41/41/41 40/40/40 44/44/44
f 44/44/44 40/40/40 43/43/43
f 45/45/45 41/41/41 44/44/44
f 46/46/46 36/36/36 18/18/18
f 46/46/46 18/18/18 19/19/19
f 47/47/47 46/46/46 19/19/19
f 36/36/36 46/46/46 47/47/47
f 48/48/48 47/47/47 19/19/19
f 47/47/47 48/48/48 49/49/49
f 50/50/50 47/47/47 49/49/49
f 51/51/51 36/36/36 47/47/47
f 51/51/51 47/47/47 50/50/50
f 42/42/42 36/36/36 51/51/51
f 52/52/52 51/51/51 50/50/50
f 53/53/53 42/42/42 51/51/51
f 53/53/53 51/51/51 52/52/52
f 43/43/43 42/42/42 53/53/53
f 54/54/54 53/53/53 52/52/52
f 55/55/55 54/54/54 52/52/52
f 56/56/56 43/43/43 53/53/53
f 56/56/56 53/53/53 54/54/54
f 55/55/55 56/56/56 54/54/54
f 56/56/56 44/44/44 43/43/43
f 44/44/44 56/56/56 55/55/55
f 57/57/57 44/44/44 55/55/55
f 45/45/45 44/44/44 57/57/57
f 58/58/58 45/45/45 57/57/57
f 59/59/59 58/58/58 57/57/57
f 58/58/58 59/59/59 60/60/60
f 63/63/63 62/62/62 61/61/61
f 64/64/64 63/63/63 61/61/61
f 64/64/64 61/61/61 65/65/65
f 61/61/61 66/66/66 65/65/65
f 67/67/67 63/63/63 64/64/64
f 63/63/63 67/67/67 68/68/68
f 65/65/65 66/66/66 69/69/69
f 66/66/66 70/70/70 69/69/69
f 69/69/69 70/70/70 71/71/71
f 70/70/70 72/72/72 71/71/71
f 65/65/65 69/69/69 73/73/73
f 69/69/69 71/71/71 73/73/73
f 64/64/64 65/65/65 74/74/74
f 74/74/74 65/65/65 73/73/73
f 75/75/75 67/67/67 64/64/64
f 75/75/75 64/64/64 74/74/74
f 71/71/71 72/72/72 76/76/76
f 72/72/72 77/77/77 76/76/76
f 76/76/76 77/77/77 78/78/78
f 79/79/79 67/67/67 75/75/75
f 80/80/80 79/79/79 75/75/75
f 81/81/81 79/79/79 80/80/80
f 67/67/67 81/81/81 68/68/68
f 75/75/75 74/74/74 82/82/82
f 80/80/80 75/75/75 82/82/82
f 68/68/68 81/81/81 83/83/83
f 83/83/83 81/81/81 80/80/80
f 71/71/71 76/76/76 84/84/84
f 71/71/71 84/84/84 73/73/73
f 85/85/85 76/76/76 78/78/78
f 86/86/86 85/85/85 78/78/78
f 76/76/76 85/85/85 87/87/87
f 76/76/76 87/87/87 84/84/84
f 85/85/85 88/88/88 87/87/87
f 74/74/74 73/73/73 89/89/89
f 82/82/82 74/74/74 89/89/89
f 80/80/80 82/82/82 90/90/90
f 83/83/83 80/80/80 90/90/90
f 84/84/84 87/87/87 91/91/91
f 91/91/91 87/87/87 88/88/88
f 73/73/73 84/84/84 92/92/92
f 89/89/89 73/73/73 92/92/92
f 92/92/92 84/84/84 91/91/91
f 82/82/82 89/89/89 93/93/93
f 90/90/90 82/82/82 93/93/93
f 94/94/94 91/91/91 88/88/88
f 95/95/95 94/94/94 88/88/88
f 96/96/96 91/91/91 94/94/94
f 92/92/92 91/91/91 96/96/96
f 97/97/97 96/96/96 94/94/94
f 89/89/89 92/92/92 98/98/98
f 93/93/93 89/89/89 98/98/98
f 98/98/98 92/92/92 96/96/96
f 96/96/96 97/97/97 99/99/99
f 98/98/98 96/96/96 99/99/99
f 97/97/97 100/100/100 99/99/99
f 90/90/90 93/93/93 101/101/101
f 93/93/93 98/98/98 101/101/101
f 99/99/99 100/100/100 102/102/102
f 100/100/100 103/103/103 102/102/102
f 99/99/99 102/102/102 104/104/104
f 105/105/105 98/98/98 99/99/99
f 105/105/105 99/99/99 104/104/104
f 98/98/98 105/105/105 101/101/101
f 101/101/101 105/105/105 104/104/104
f 106/106/106 101/101/101 104/104/104
f 107/107/107 90/90/90 101/101/101
f 107/107/107 101/101/101 106/106/106
f 83/83/83 90/90/90 107/107/107
f 108/108/108 107/107/107 106/106/106
f 109/109/109 83/83/83 107/107/107
f 109/109/109 107/107/107 108/108/108
f 109/109/109 68/68/68 83/83/83
f 110/110/110 109/109/109 108/108/108
f 111/111/111 68/68/68 109/109/109
f 110/110/110 111/111/111 109/109/109
f 113/113/113 111/111/111 112/112/112
f 114/114/114 113/113/113 112/112/112
f 117/117/117 116/116/116 115/115/115
f 116/116/116 118/118/118 115/115/115
f 116/116/116 119/119/119 118/118/118
f 122/122/122 121/121/121 120/120/120
f 122/122/122 123/123/123 121/121/121
