g Egg_Pink
v 0.6502762 1.2875232 0.37543738
v 0.4411827 0.61068064 0.76415074
v 0.37543708 1.2875232 0.65027654
v 0.76415074 0.6106807 0.4411827
v 0.8823654 0.6106807 4.4837395E-07
v 0.7508742 1.2875232 2.4909664E-07
v 0.6502762 1.2875232 -0.37543693
v 0.5710924 0.17716302 0.3297204
v 0.3297203 0.17716296 0.5710926
v 0.6594406 0.17716306 4.1499277E-07
v 0.5710924 0.17716296 -0.32971993
v 0.76415074 0.6106807 -0.4411822
v 0.4411827 0.6106807 -0.7641502
v 0.37543708 1.2875232 -0.650276
v 0.3297203 0.17716296 -0.57109207
v 0.3297203 0.17716296 0.5710926
v -0 0.6106806 0.8823654
v 0.4411827 0.61068064 0.76415074
v -1.05267816E-07 0.17716296 0.6594408
v -0.4411827 0.61068064 0.76415074
v -0.32972056 0.17716296 0.5710925
v -0.13817057 -0.008156122 0.23931867
v -3.646563E-08 -0.008156122 0.2763414
v 0.1381705 -0.008156122 0.23931871
v -0.32972056 0.17716296 0.5710925
v -0.13817057 -0.008156122 0.23931867
v -0.2393183 -0.008156122 0.13817075
v -0.5710926 0.17716302 0.3297203
v -0 0.6106806 0.8823654
v -0.4411827 0.61068064 0.76415074
v -0.37543732 1.2875232 0.6502763
v -1.2998316E-07 1.2875232 0.7508745
v 0.4411827 0.61068064 0.76415074
v 0.37543708 1.2875232 0.65027654
v -0.26533374 1.7235414 0.45957157
v -6.7022434E-08 1.7235413 0.53066754
v -0.45957148 1.7235414 0.26533392
v -0.6502764 1.2875232 0.37543723
v -0.5306674 1.7235415 2.4909664E-07
v -0.75087434 1.2875232 4.4837395E-07
v -0.24311776 1.987655 2.4909664E-07
v -0.21054618 1.987655 0.12155898
v 0.26533362 1.7235414 0.45957157
v 0.6502762 1.2875232 0.37543738
v -0.12155901 1.987655 0.21054612
v -0.070793025 2.0662332 0.040872455
v -0.081744716 2.0662332 2.4909664E-07
v 0.45957133 1.7235414 0.26533392
v 0.7508742 1.2875232 2.4909664E-07
v 0.5306673 1.7235415 2.4909664E-07
v -2.6152026E-07 1.987655 0.2431177
v -0.040872492 2.0662332 0.070792995
v 0.21054564 1.987655 0.12155898
v 0.24311723 1.987655 2.4909664E-07
v 0.08174417 2.0662332 2.4909664E-07
v 0.07079249 2.0662332 -0.040871978
v -0.070793025 2.0662332 -0.040871978
v 0.121558495 1.987655 0.21054612
v 0.07079249 2.0662332 0.040872455
v 0.040871967 2.0662332 0.070792995
v -2.6551137E-07 2.0662332 0.08174465
v -0.27634084 -0.008156122 5.6145177E-07
v -0.6594408 0.17716306 5.747687E-07
v -0.5710926 0.17716302 0.3297203
v -0.2393183 -0.008156122 0.13817075
v -0.4411827 0.61068064 0.76415074
v -0.32972056 0.17716296 0.5710925
v -0.5710926 0.17716302 0.3297203
v -0.76415074 0.6106807 0.4411827
v -0.37543732 1.2875232 0.6502763
v -0.6502764 1.2875232 0.37543723
v -0.75087434 1.2875232 4.4837395E-07
v -0.8823654 0.6106807 4.4837395E-07
v -0.6594408 0.17716306 5.747687E-07
v -0.5710926 0.17716296 -0.3297198
v -0.76415074 0.6106807 -0.4411822
v -0.6502764 1.2875232 -0.3754367
v -0.37543732 1.2875232 -0.65027577
v -0.4411827 0.6106807 -0.7641502
v -0.32972056 0.17716296 -0.571092
v 0.5710924 0.17716302 0.3297204
v 0.1381705 -0.008156122 0.23931871
v 0.3297203 0.17716296 0.5710926
v 0.23931831 -0.008156122 0.13817082
v 0.6594406 0.17716306 4.1499277E-07
v 0.27634084 -0.008156122 4.9449704E-07
v -0.13817057 -0.008156122 0.23931867
v -3.646563E-08 -0.008156122 0.2763414
v -0.2393183 -0.008156122 0.13817075
v -0.27634084 -0.008156122 5.6145177E-07
v 0.27634084 -0.008156122 4.9449704E-07
v -0.2393183 -0.008156272 -0.13817027
v 0.23931831 -0.008156272 -0.13817033
v -0.13817057 -0.008156272 -0.23931816
v 0.1381705 -0.008156272 -0.2393182
v 0.5710924 0.17716296 -0.32971993
v 0.3297203 0.17716296 -0.57109207
v 0.6594406 0.17716306 4.1499277E-07
v 0.27634084 -0.008156122 4.9449704E-07
v -3.646563E-08 -0.008156272 -0.2763409
v -1.05267816E-07 0.17716296 -0.6594404
v -0.32972056 0.17716296 -0.571092
v -0.4411827 0.6106807 -0.7641502
v -0 0.6106806 -0.8823649
v 0.3297203 0.17716296 -0.57109207
v 0.1381705 -0.008156272 -0.2393182
v 0.4411827 0.6106807 -0.7641502
v -0.32972056 0.17716296 -0.571092
v -0.5710926 0.17716296 -0.3297198
v -0.2393183 -0.008156272 -0.13817027
v -0.13817057 -0.008156272 -0.23931816
v -0 0.6106806 -0.8823649
v -0.37543732 1.2875232 -0.65027577
v -0.4411827 0.6106807 -0.7641502
v -1.2998316E-07 1.2875232 -0.750874
v 0.4411827 0.6106807 -0.7641502
v 0.37543708 1.2875232 -0.650276
v -0.26533374 1.7235414 -0.45957106
v -6.7022434E-08 1.7235413 -0.530667
v -0.45957148 1.7235414 -0.26533338
v -0.6502764 1.2875232 -0.3754367
v -0.5306674 1.7235415 2.4909664E-07
v -0.75087434 1.2875232 4.4837395E-07
v -0.24311776 1.987655 2.4909664E-07
v -0.21054618 1.987655 -0.12155847
v 0.26533362 1.7235414 -0.45957106
v 0.6502762 1.2875232 -0.37543693
v -0.12155901 1.987655 -0.21054561
v -0.070793025 2.0662332 -0.040871978
v -0.081744716 2.0662332 2.4909664E-07
v -0.040872492 2.0662332 -0.07079252
v -2.6152026E-07 1.987655 -0.24311717
v 0.45957133 1.7235414 -0.26533338
v 0.7508742 1.2875232 2.4909664E-07
v 0.5306673 1.7235415 2.4909664E-07
v 0.040871967 2.0662332 -0.07079252
v 0.07079249 2.0662332 -0.040871978
v -2.6551137E-07 2.0662332 -0.08174416
v 0.121558495 1.987655 -0.21054561
v 0.21054564 1.987655 -0.12155847
v 0.24311723 1.987655 2.4909664E-07
v 0.08174417 2.0662332 2.4909664E-07
v -0.27634084 -0.008156122 5.6145177E-07
v -0.2393183 -0.008156272 -0.13817027
v -0.5710926 0.17716296 -0.3297198
v -0.6594408 0.17716306 5.747687E-07
vt 0.112228066 0.2263506
vt 0.031854965 0.20562895
vt 0.08350869 0.25408491
vt 0.06667792 0.17697982
vt 0.09741382 0.14978491
vt 0.14305201 0.19879119
vt 0.17273286 0.17000431
vt 0.037155636 0.13911337
vt 0.0065467954 0.15949266
vt 0.06438936 0.1143232
vt 0.09105276 0.08892055
vt 0.12672484 0.12105987
vt 0.15777689 0.08836152
vt 0.2024386 0.14332907
vt 0.1135563 0.05983782
vt 0.21566007 0.18043226
vt 0.2616475 0.10330618
vt 0.19702071 0.11319083
vt 0.26308587 0.17198355
vt 0.32843953 0.11164882
vt 0.31030193 0.18045396
vt 0.28353006 0.23653767
vt 0.26304513 0.23183969
vt 0.24253495 0.23653767
vt 0.30685818 0.13811849
vt 0.27811566 0.09279607
vt 0.29329252 0.09279597
vt 0.35609755 0.13811849
vt 0.25871044 0.2306011
vt 0.29374814 0.2306011
vt 0.29176027 0.29528505
vt 0.25818664 0.29528505
vt 0.22376783 0.2306011
vt 0.22452149 0.29528505
vt 0.2849638 0.3510148
vt 0.25725314 0.3510148
vt 0.31608343 0.3510148
vt 0.328632 0.29528505
vt 0.3252805 0.3510148
vt 0.34673646 0.29528505
vt 0.29024908 0.3877843
vt 0.28508028 0.3877843
vt 0.22474243 0.3510148
vt 0.19575407 0.29528505
vt 0.2706425 0.3877843
vt 0.26369098 0.39857173
vt 0.26518166 0.39857173
vt 0.20602863 0.3510148
vt 0.16956818 0.29528505
vt 0.19151711 0.3510148
vt 0.25485793 0.3877843
vt 0.2606148 0.39857173
vt 0.23356655 0.3877843
vt 0.23046094 0.3877843
vt 0.24873698 0.39857173
vt 0.25020474 0.39857173
vt 0.26369098 0.39857173
vt 0.23878607 0.3877843
vt 0.25020474 0.39857173
vt 0.2532129 0.39857173
vt 0.2569272 0.39857173
vt 0.31222233 0.09279597
vt 0.3822053 0.13811849
vt 0.35609755 0.13811849
vt 0.29329252 0.09279591
vt 0.13397294 0.093247406
vt 0.09221518 0.07768026
vt 0.07877423 0.105842486
vt 0.11400199 0.12631835
vt 0.1833145 0.13261175
vt 0.16149017 0.16132101
vt 0.14048904 0.18967181
vt 0.094364755 0.15605743
vt 0.06126274 0.13136286
vt 0.040651836 0.15549925
vt 0.07229037 0.184241
vt 0.12003976 0.21882851
vt 0.09994135 0.24791831
vt 0.0466408 0.21485558
vt 0.01690635 0.1782487
vt 0.17145121 0.13811849
vt 0.25111726 0.09279597
vt 0.21926536 0.13811849
vt 0.23637983 0.09279597
vt 0.14336628 0.13811849
vt 0.21668082 0.09279591
vt 0.27811566 0.09279597
vt 0.26455638 0.09279597
vt 0.29329252 0.09279597
vt 0.31222233 0.09279597
vt 0.21668082 0.09279597
vt 0.29329252 0.09279597
vt 0.23637983 0.09279597
vt 0.27811566 0.09279597
vt 0.25111726 0.09279597
vt 0.17145121 0.13811849
vt 0.21926536 0.13811849
vt 0.14336628 0.13811849
vt 0.21668082 0.09279591
vt 0.26455638 0.09279597
vt 0.26286656 0.13811849
vt 0.30685818 0.13811849
vt 0.3087122 0.2248995
vt 0.2598247 0.2248995
vt 0.21926536 0.13811849
vt 0.25111744 0.09279607
vt 0.21106985 0.2248995
vt 0.30685818 0.13811849
vt 0.35609755 0.13811849
vt 0.29329252 0.09279597
vt 0.27811566 0.09279607
vt 0.25871044 0.2306011
vt 0.29176027 0.29528505
vt 0.29374814 0.2306011
vt 0.25818664 0.29528505
vt 0.22376783 0.2306011
vt 0.22452149 0.29528505
vt 0.2849638 0.3510148
vt 0.25725314 0.3510148
vt 0.31608343 0.3510148
vt 0.328632 0.29528505
vt 0.3252805 0.3510148
vt 0.34673646 0.29528505
vt 0.29024908 0.3877843
vt 0.28508028 0.3877843
vt 0.22474243 0.3510148
vt 0.19575407 0.29528505
vt 0.2706425 0.3877843
vt 0.26369098 0.39857173
vt 0.26518166 0.39857173
vt 0.2606148 0.39857173
vt 0.25485793 0.3877843
vt 0.20602863 0.3510148
vt 0.16956818 0.29528505
vt 0.19151711 0.3510148
vt 0.2532129 0.39857173
vt 0.25020474 0.39857173
vt 0.2569272 0.39857173
vt 0.23878607 0.3877843
vt 0.23356655 0.3877843
vt 0.23046094 0.3877843
vt 0.24873698 0.39857173
vt 0.31222233 0.09279597
vt 0.29329252 0.09279591
vt 0.35609755 0.13811849
vt 0.3822053 0.13811849
vn 0.821335 0.31708845 0.47419807
vn 0.49548545 -0.13407797 0.8582058
vn 0.47419792 0.31708843 0.821335
vn 0.85820585 -0.1340779 0.49548542
vn 0.99097073 -0.1340779 0
vn 0.94839597 0.31708845 0
vn 0.8213349 0.3170884 -0.4741981
vn 0.6265558 -0.6903408 0.36174217
vn 0.3617422 -0.69034076 0.6265558
vn 0.7234843 -0.6903409 1.2952466E-07
vn 0.62655604 -0.69034076 -0.36174205
vn 0.85820585 -0.1340779 -0.49548542
vn 0.49548548 -0.13407789 -0.8582058
vn 0.47419792 0.31708843 -0.821335
vn 0.36174226 -0.69034064 -0.62655586
vn 0.3617422 -0.69034076 0.6265558
vn -0 -0.13407806 0.99097073
vn 0.49548545 -0.13407797 0.8582058
vn -0 -0.6903407 0.72348434
vn -0.49548545 -0.13407797 0.8582058
vn -0.36174238 -0.69034076 0.6265558
vn -0.12905538 -0.9661154 0.22353026
vn -0 -0.9661154 0.25811058
vn 0.12905532 -0.9661154 0.22353026
vn -0.36174238 -0.69034076 0.6265558
vn -0.12905538 -0.9661154 0.22353026
vn -0.22353019 -0.9661154 0.12905513
vn -0.6265559 -0.69034076 0.36174214
vn -0 -0.13407806 0.99097073
vn -0.49548545 -0.13407797 0.8582058
vn -0.47419813 0.3170883 0.821335
vn -1.8672958E-07 0.31708837 0.94839597
vn 0.49548545 -0.13407797 0.8582058
vn 0.47419792 0.31708843 0.821335
vn -0.4038702 0.58953846 0.6995236
vn -1.6919991E-07 0.58953846 0.8077403
vn -0.69952357 0.5895384 0.4038704
vn -0.821335 0.31708834 0.47419804
vn -0.8077402 0.5895387 0
vn -0.94839597 0.3170884 0
vn -0.5789679 0.81535023 0
vn -0.5014005 0.8153505 0.28948438
vn 0.40387008 0.5895387 0.69952357
vn 0.821335 0.31708845 0.47419807
vn -0.28948396 0.8153502 0.5014011
vn -0.22476795 0.96573234 0.12977019
vn -0.2595406 0.9657322 0
vn 0.69952345 0.5895387 0.40387025
vn 0.94839597 0.31708845 0
vn 0.80774 0.5895389 0
vn -1.4509338E-07 0.8153502 0.57896817
vn -0.12977034 0.9657322 0.22476847
vn 0.5014005 0.8153505 0.28948414
vn 0.57896775 0.8153505 0
vn 0.25954026 0.96573234 0
vn 0.22476871 0.9657322 -0.12977012
vn -0.22476888 0.9657322 -0.12977013
vn 0.28948405 0.8153502 0.50140107
vn 0.22476764 0.96573246 0.12977016
vn 0.12976998 0.96573234 0.22476852
vn -3.2265154E-07 0.96573234 0.2595402
vn -0.25811037 -0.9661154 3.2324175E-07
vn -0.7234844 -0.6903407 1.9560869E-07
vn -0.6265559 -0.69034076 0.36174214
vn -0.22353019 -0.9661154 0.12905513
vn -0.49548545 -0.13407797 0.8582058
vn -0.36174238 -0.69034076 0.6265558
vn -0.6265559 -0.69034076 0.36174214
vn -0.8582058 -0.13407786 0.49548554
vn -0.47419813 0.3170883 0.821335
vn -0.821335 0.31708834 0.47419804
vn -0.94839597 0.3170884 0
vn -0.99097073 -0.13407786 0
vn -0.7234844 -0.6903407 1.9560869E-07
vn -0.62655604 -0.69034076 -0.36174202
vn -0.85820585 -0.13407785 -0.49548542
vn -0.821335 0.31708837 -0.47419804
vn -0.47419807 0.31708834 -0.821335
vn -0.49548554 -0.13407788 -0.8582058
vn -0.36174247 -0.69034064 -0.6265558
vn 0.6265558 -0.6903408 0.36174217
vn 0.12905532 -0.9661154 0.22353026
vn 0.3617422 -0.69034076 0.6265558
vn 0.22353032 -0.9661154 0.12905519
vn 0.7234843 -0.6903409 1.2952466E-07
vn 0.2581104 -0.9661154 3.0847013E-07
vn -0.12905538 -0.9661154 0.22353026
vn -0 -0.9661154 0.25811058
vn -0.22353019 -0.9661154 0.12905513
vn -0.25811037 -0.9661154 3.2324175E-07
vn 0.2581104 -0.9661154 3.0847013E-07
vn -0.22353043 -0.9661154 -0.1290548
vn 0.22353049 -0.9661154 -0.12905486
vn -0.12905546 -0.9661154 -0.22353013
vn 0.12905538 -0.9661154 -0.22353016
vn 0.62655604 -0.69034076 -0.36174205
vn 0.36174226 -0.69034064 -0.62655586
vn 0.7234843 -0.6903409 1.2952466E-07
vn 0.2581104 -0.9661154 3.0847013E-07
vn -0 -0.9661154 -0.25811046
vn -0 -0.6903407 -0.7234844
vn -0.36174247 -0.69034064 -0.6265558
vn -0.49548554 -0.13407788 -0.8582058
vn -0 -0.13407804 -0.99097073
vn 0.36174226 -0.69034064 -0.62655586
vn 0.12905538 -0.9661154 -0.22353016
vn 0.49548548 -0.13407789 -0.8582058
vn -0.36174247 -0.69034064 -0.6265558
vn -0.62655604 -0.69034076 -0.36174202
vn -0.22353043 -0.9661154 -0.1290548
vn -0.12905546 -0.9661154 -0.22353013
vn -0 -0.13407804 -0.99097073
vn -0.47419807 0.31708834 -0.821335
vn -0.49548554 -0.13407788 -0.8582058
vn -1.11028385E-07 0.3170884 -0.94839597
vn 0.49548548 -0.13407789 -0.8582058
vn 0.47419792 0.31708843 -0.821335
vn -0.40387022 0.58953846 -0.6995237
vn -0 0.58953846 -0.8077403
vn -0.69952357 0.5895384 -0.4038704
vn -0.821335 0.31708837 -0.47419804
vn -0.8077402 0.5895387 0
vn -0.94839597 0.3170884 0
vn -0.5789679 0.81535023 0
vn -0.5014012 0.81535 -0.28948426
vn 0.4038702 0.5895385 -0.69952357
vn 0.8213349 0.3170884 -0.4741981
vn -0.28948414 0.8153501 -0.5014012
vn -0.22476888 0.9657322 -0.12977013
vn -0.2595406 0.9657322 0
vn -0.12977016 0.96573234 -0.22476858
vn -1.4755257E-07 0.8153502 -0.5789681
vn 0.69952357 0.5895386 -0.40387022
vn 0.94839597 0.31708845 0
vn 0.80774 0.5895389 0
vn 0.12976985 0.96573234 -0.22476858
vn 0.22476871 0.9657322 -0.12977012
vn -1.625572E-07 0.96573234 -0.25954017
vn 0.28948396 0.8153502 -0.5014011
vn 0.5014011 0.8153502 -0.28948405
vn 0.57896775 0.8153505 0
vn 0.25954026 0.96573234 0
vn -0.25811037 -0.9661154 3.2324175E-07
vn -0.22353043 -0.9661154 -0.1290548
vn -0.62655604 -0.69034076 -0.36174202
vn -0.7234844 -0.6903407 1.9560869E-07
g Egg_Pink_0
f 3/3/3 2/2/2 1/1/1
f 2/2/2 4/4/4 1/1/1
f 1/1/1 4/4/4 5/5/5
f 6/6/6 1/1/1 5/5/5
f 7/7/7 6/6/6 5/5/5
f 4/4/4 2/2/2 8/8/8
f 4/4/4 8/8/8 5/5/5
f 2/2/2 9/9/9 8/8/8
f 8/8/8 10/10/10 5/5/5
f 10/10/10 11/11/11 5/5/5
f 12/12/12 7/7/7 5/5/5
f 11/11/11 12/12/12 5/5/5
f 12/12/12 13/13/13 7/7/7
f 13/13/13 12/12/12 11/11/11
f 13/13/13 14/14/14 7/7/7
f 15/15/15 13/13/13 11/11/11
f 18/18/18 17/17/17 16/16/16
f 17/17/17 19/19/19 16/16/16
f 17/17/17 20/20/20 19/19/19
f 20/20/20 21/21/21 19/19/19
f 19/19/19 21/21/21 22/22/22
f 23/23/23 19/19/19 22/22/22
f 16/16/16 19/19/19 23/23/23
f 24/24/24 16/16/16 23/23/23
f 27/27/27 26/26/26 25/25/25
f 28/28/28 27/27/27 25/25/25
f 31/31/31 30/30/30 29/29/29
f 32/32/32 31/31/31 29/29/29
f 32/32/32 29/29/29 33/33/33
f 34/34/34 32/32/32 33/33/33
f 35/35/35 31/31/31 32/32/32
f 36/36/36 32/32/32 34/34/34
f 36/36/36 35/35/35 32/32/32
f 35/35/35 37/37/37 31/31/31
f 37/37/37 38/38/38 31/31/31
f 37/37/37 39/39/39 38/38/38
f 39/39/39 40/40/40 38/38/38
f 41/41/41 39/39/39 37/37/37
f 42/42/42 37/37/37 35/35/35
f 42/42/42 41/41/41 37/37/37
f 43/43/43 36/36/36 34/34/34
f 43/43/43 34/34/34 44/44/44
f 45/45/45 35/35/35 36/36/36
f 45/45/45 42/42/42 35/35/35
f 42/42/42 46/46/46 41/41/41
f 46/46/46 47/47/47 41/41/41
f 48/48/48 43/43/43 44/44/44
f 48/48/48 44/44/44 49/49/49
f 50/50/50 48/48/48 49/49/49
f 51/51/51 36/36/36 43/43/43
f 51/51/51 45/45/45 36/36/36
f 45/45/45 52/52/52 42/42/42
f 52/52/52 46/46/46 42/42/42
f 53/53/53 48/48/48 50/50/50
f 54/54/54 53/53/53 50/50/50
f 54/54/54 55/55/55 53/53/53
f 55/55/55 47/47/47 46/46/46
f 47/47/47 55/55/55 56/56/56
f 57/57/57 47/47/47 56/56/56
f 58/58/58 43/43/43 48/48/48
f 53/53/53 58/58/58 48/48/48
f 58/58/58 51/51/51 43/43/43
f 46/46/46 59/59/59 55/55/55
f 55/55/55 59/59/59 53/53/53
f 53/53/53 59/59/59 58/58/58
f 46/46/46 52/52/52 59/59/59
f 59/59/59 60/60/60 58/58/58
f 58/58/58 60/60/60 51/51/51
f 52/52/52 60/60/60 59/59/59
f 60/60/60 61/61/61 51/51/51
f 52/52/52 61/61/61 60/60/60
f 51/51/51 61/61/61 45/45/45
f 61/61/61 52/52/52 45/45/45
f 64/64/64 63/63/63 62/62/62
f 65/65/65 64/64/64 62/62/62
f 68/68/68 67/67/67 66/66/66
f 69/69/69 68/68/68 66/66/66
f 69/69/69 66/66/66 70/70/70
f 71/71/71 69/69/69 70/70/70
f 71/71/71 72/72/72 69/69/69
f 69/69/69 73/73/73 68/68/68
f 72/72/72 73/73/73 69/69/69
f 73/73/73 74/74/74 68/68/68
f 74/74/74 73/73/73 75/75/75
f 73/73/73 72/72/72 76/76/76
f 73/73/73 76/76/76 75/75/75
f 72/72/72 77/77/77 76/76/76
f 76/76/76 77/77/77 78/78/78
f 79/79/79 76/76/76 78/78/78
f 75/75/75 76/76/76 79/79/79
f 80/80/80 75/75/75 79/79/79
f 83/83/83 82/82/82 81/81/81
f 82/82/82 84/84/84 81/81/81
f 81/81/81 84/84/84 85/85/85
f 84/84/84 86/86/86 85/85/85
f 84/84/84 82/82/82 87/87/87
f 82/82/82 88/88/88 87/87/87
f 84/84/84 87/87/87 89/89/89
f 84/84/84 89/89/89 90/90/90
f 90/90/90 91/91/91 84/84/84
f 91/91/91 90/90/90 92/92/92
f 93/93/93 91/91/91 92/92/92
f 93/93/93 92/92/92 94/94/94
f 95/95/95 93/93/93 94/94/94
f 93/93/93 95/95/95 96/96/96
f 95/95/95 97/97/97 96/96/96
f 93/93/93 96/96/96 98/98/98
f 99/99/99 93/93/93 98/98/98
f 94/94/94 100/100/100 95/95/95
f 101/101/101 100/100/100 94/94/94
f 102/102/102 101/101/101 94/94/94
f 102/102/102 103/103/103 101/101/101
f 103/103/103 104/104/104 101/101/101
f 101/101/101 105/105/105 100/100/100
f 101/101/101 104/104/104 105/105/105
f 105/105/105 106/106/106 100/100/100
f 104/104/104 107/107/107 105/105/105
f 110/110/110 109/109/109 108/108/108
f 111/111/111 110/110/110 108/108/108
f 114/114/114 113/113/113 112/112/112
f 113/113/113 115/115/115 112/112/112
f 112/112/112 115/115/115 116/116/116
f 115/115/115 117/117/117 116/116/116
f 113/113/113 118/118/118 115/115/115
f 115/115/115 119/119/119 117/117/117
f 118/118/118 119/119/119 115/115/115
f 120/120/120 118/118/118 113/113/113
f 121/121/121 120/120/120 113/113/113
f 122/122/122 120/120/120 121/121/121
f 123/123/123 122/122/122 121/121/121
f 122/122/122 124/124/124 120/120/120
f 120/120/120 125/125/125 118/118/118
f 124/124/124 125/125/125 120/120/120
f 119/119/119 126/126/126 117/117/117
f 117/117/117 126/126/126 127/127/127
f 118/118/118 128/128/128 119/119/119
f 125/125/125 128/128/128 118/118/118
f 129/129/129 125/125/125 124/124/124
f 130/130/130 129/129/129 124/124/124
f 129/129/129 131/131/131 125/125/125
f 131/131/131 128/128/128 125/125/125
f 128/128/128 132/132/132 119/119/119
f 119/119/119 132/132/132 126/126/126
f 126/126/126 133/133/133 127/127/127
f 127/127/127 133/133/133 134/134/134
f 133/133/133 135/135/135 134/134/134
f 131/131/131 129/129/129 136/136/136
f 129/129/129 137/137/137 136/136/136
f 131/131/131 138/138/138 128/128/128
f 138/138/138 132/132/132 128/128/128
f 136/136/136 138/138/138 131/131/131
f 138/138/138 136/136/136 132/132/132
f 132/132/132 139/139/139 126/126/126
f 136/136/136 139/139/139 132/132/132
f 126/126/126 139/139/139 133/133/133
f 136/136/136 137/137/137 139/139/139
f 133/133/133 140/140/140 135/135/135
f 139/139/139 140/140/140 133/133/133
f 137/137/137 140/140/140 139/139/139
f 140/140/140 141/141/141 135/135/135
f 137/137/137 142/142/142 140/140/140
f 142/142/142 141/141/141 140/140/140
f 145/145/145 144/144/144 143/143/143
f 146/146/146 145/145/145 143/143/143
