g energyDrinks
v 0.30518207 -1.4705206 1.2808635
v 0.28164756 -1.2620304 0.3176391
v 0.11513229 -1.3480592 0.8075502
v 0.7268138 -1.252689 0.040364802
v 0.76287043 -1.5721142 1.5161107
v 1.2423325 -1.3244054 0.10546693
v 1.2740403 -1.6053034 1.4032162
v 1.586987 -1.4436227 0.48248383
v 1.5995095 -1.5545582 0.9950047
v 0.4985168 0.996747 1.305717
v 0.639006 1.0693294 0.8923779
v 1.0145936 1.0772108 0.65844095
v 0.6588622 0.8934257 1.7050523
v 1.4495379 1.0167035 0.7133678
v 1.0450149 0.8077109 1.9035307
v 1.4762897 0.7797092 1.8082817
v 1.7403241 0.9161196 1.0314578
v 1.750889 0.822523 1.4638727
v 0.4985168 0.996747 1.305717
v 0.5065681 1.0685518 1.3210623
v 0.6470573 1.1411344 0.90772337
v 0.639006 1.0693294 0.8923779
v 1.0145936 1.0772108 0.65844095
v 1.0226448 1.1490157 0.6737865
v 1.4575891 1.0885084 0.7287133
v 1.4495379 1.0167035 0.7133678
v 1.4495379 1.0167035 0.7133678
v 1.4575891 1.0885084 0.7287133
v 1.7483749 0.9879246 1.0468032
v 1.7403241 0.9161196 1.0314578
v 0.639006 1.0693294 0.8923779
v 0.6470573 1.1411344 0.90772337
v 1.0226448 1.1490157 0.6737865
v 1.0145936 1.0772108 0.65844095
v 1.2821935 0.96242344 1.428524
v 1.3165803 0.9318342 1.1932479
v 1.2740333 0.88964784 1.4129711
v 1.3247404 1.0046098 1.2088009
v 1.4601513 0.9842744 0.8725423
v 1.4683114 1.05705 0.88809514
v 1.7403241 0.9161196 1.0314578
v 1.7483749 0.9879246 1.0468032
v 1.7589401 0.8943281 1.4792185
v 1.750889 0.822523 1.4638727
v 1.1126618 0.97922695 0.9814158
v 1.1230197 1.0716038 1.0011579
v 1.1698792 1.1083869 0.8044558
v 1.1595213 1.0160102 0.78471404
v 1.1403906 1.1154467 0.78689295
v 1.0512298 0.9790883 1.1113561
v 1.1322305 1.0426707 0.77134013
v 1.05939 1.0518641 1.1269091
v 0.95051545 0.94726026 1.3131278
v 0.95867556 1.0200359 1.3286808
v 1.750889 0.822523 1.4638727
v 1.7589401 0.8943281 1.4792185
v 1.4843411 0.8515141 1.8236271
v 1.4762897 0.7797092 1.8082817
v 0.6588622 0.8934257 1.7050523
v 0.6669134 0.9652307 1.7203976
v 0.5065681 1.0685518 1.3210623
v 0.4985168 0.996747 1.305717
v 1.0450149 0.8077109 1.9035307
v 1.0530661 0.8795159 1.9188759
v 0.6669134 0.9652307 1.7203976
v 0.6588622 0.8934257 1.7050523
v 1.4762897 0.7797092 1.8082817
v 1.4843411 0.8515141 1.8236271
v 1.0530661 0.8795159 1.9188759
v 1.0450149 0.8077109 1.9035307
v 1.3655034 0.9954947 0.7726395
v 1.3758612 1.0878716 0.79238164
v 1.4336165 1.06142 0.8858498
v 1.4232589 0.96904325 0.866108
v 1.2638158 1.0136033 0.74125695
v 1.2741739 1.10598 0.76099914
v 1.3758612 1.0878716 0.79238164
v 1.3655034 0.9954947 0.7726395
v 1.4232589 0.96904325 0.866108
v 1.4336165 1.06142 0.8858498
v 1.3505596 1.0310831 1.0713804
v 1.3402016 0.9387063 1.0516388
v 1.145616 0.9651362 1.4874893
v 1.3247404 1.0046098 1.2088009
v 1.2821935 0.96242344 1.428524
v 1.05939 1.0518641 1.1269091
v 1.0330424 0.9851836 1.4527472
v 0.95867556 1.0200359 1.3286808
v 1.3505596 1.0310831 1.0713804
v 1.1230197 1.0716038 1.0011579
v 1.4336165 1.06142 0.8858498
v 1.1403906 1.1154467 0.78689295
v 1.4683114 1.05705 0.88809514
v 1.1698792 1.1083869 0.8044558
v 1.3758612 1.0878716 0.79238164
v 1.2792549 1.1123871 0.72835577
v 1.3918287 1.0923396 0.7630978
v 1.2741739 1.10598 0.76099914
v 1.145616 0.9651362 1.4874893
v 1.2821935 0.96242344 1.428524
v 1.2740333 0.88964784 1.4129711
v 1.1374559 0.8923603 1.4719365
v 1.0330424 0.9851836 1.4527472
v 1.0248823 0.91240764 1.4371941
v 0.95051545 0.94726026 1.3131278
v 0.95867556 1.0200359 1.3286808
v 1.1403906 1.1154467 0.78689295
v 1.1322305 1.0426707 0.77134013
v 1.2710948 1.0396115 0.7128026
v 1.2792549 1.1123871 0.72835577
v 1.3918287 1.0923396 0.7630978
v 1.3836685 1.0195638 0.74754477
v 1.4683114 1.05705 0.88809514
v 1.4601513 0.9842744 0.8725423
v 1.1595213 1.0160102 0.78471404
v 1.1698792 1.1083869 0.8044558
v 1.2741739 1.10598 0.76099914
v 1.2638158 1.0136033 0.74125695
v 1.1230197 1.0716038 1.0011579
v 1.1126618 0.97922695 0.9814158
v 1.1803555 0.9671719 1.0023074
v 1.2725078 0.9507613 1.0307473
v 1.3505596 1.0310831 1.0713804
v 1.3402016 0.9387063 1.0516388
v 1.4352248 0.064688444 0.330077
v 1.475288 0.42199224 0.4064366
v 1.1380073 0.6193218 0.3928322
v 1.7165781 -0.094920546 0.63138616
v 1.3989142 -0.25914606 0.2608701
v 0.88214564 -0.19753686 0.1927678
v 1.3659445 -0.553185 0.19803083
v 1.6505277 -0.8206078 0.49346876
v 0.18984619 0.03739196 1.1112108
v 0.22990945 0.39469576 1.1875702
v 0.3786372 0.45855808 1.5434977
v 0.31875578 0.04959935 0.68853456
v 0.1535357 -0.28644267 1.0420039
v 0.34490994 -0.41930303 1.5123308
v 0.12056607 -0.5804815 0.9791644
v 0.2449017 -0.6672927 0.5135572
v 1.4732965 -0.24563113 1.7621566
v 1.51336 0.11167273 1.8385162
v 1.7526624 0.2947073 1.5892874
v 1.0404956 -0.27866915 1.8459041
v 1.4369862 -0.56946564 1.6929493
v 1.7603331 -0.52868485 1.281529
v 1.4040165 -0.86350465 1.6301104
v 0.93788815 -0.99787724 1.6968503
v -0.68256253 -1.1463044 1.0552576
v -1.3924137 -1.4232618 0.429774
v -1.1577704 -1.2765269 0.8753667
v -1.2766995 -1.5178502 -0.07302275
v -0.18914461 -1.0935264 0.8852736
v -0.8647722 -1.516033 -0.39775962
v 0.091607735 -1.1428889 0.44495234
v -0.34937686 -1.4186605 -0.39248842
v 0.02832678 -1.2712945 -0.059675552
v -1.5110483 1.0422714 0.24955624
v -1.7090173 0.91847086 -0.1263912
v -1.6113893 0.8386663 -0.55060184
v -1.1101146 1.1521404 0.40133044
v -1.2638451 0.84019953 -0.82458305
v -0.69381666 1.1966692 0.2579148
v -0.45694554 1.1550219 -0.11358509
v -0.8290051 0.922353 -0.82013565
v -0.51033574 1.0466859 -0.5393408
v -1.5110483 1.0422714 0.24955624
v -1.5242591 1.1130813 0.23319477
v -1.722228 0.98928094 -0.14275256
v -1.7090173 0.91847086 -0.1263912
v -1.6113893 0.8386663 -0.55060184
v -1.6245999 0.9094764 -0.5669634
v -1.2770559 0.91100943 -0.84094435
v -1.2638451 0.84019953 -0.82458305
v -1.2638451 0.84019953 -0.82458305
v -1.2770559 0.91100943 -0.84094435
v -0.8422159 0.993163 -0.83649695
v -0.8290051 0.922353 -0.82013565
v -1.7090173 0.91847086 -0.1263912
v -1.722228 0.98928094 -0.14275256
v -1.6245999 0.9094764 -0.5669634
v -1.6113893 0.8386663 -0.55060184
v -0.899148 1.1218959 -0.25009015
v -1.0137515 0.9853755 -0.4104059
v -0.88575864 1.0501285 -0.23350754
v -1.0271409 1.0571426 -0.42698848
v -1.1428744 0.8881829 -0.7267847
v -1.1562636 0.95995 -0.74336743
v -0.8290051 0.922353 -0.82013565
v -0.8422159 0.993163 -0.83649695
v -0.5235462 1.117496 -0.5557022
v -0.51033574 1.0466859 -0.5393408
v -1.3024288 0.91280925 -0.40034357
v -1.3194243 1.0039058 -0.4213926
v -1.4277962 0.94564855 -0.5860196
v -1.4108007 0.8545519 -0.5649708
v -1.4613184 0.9415544 -0.57667196
v -1.2605994 0.97049 -0.27551743
v -1.4479294 0.86978734 -0.5600893
v -1.2739884 1.0422568 -0.29209983
v -1.1867174 1.0319798 -0.06905049
v -1.2001064 1.103747 -0.08563297
v -0.51033574 1.0466859 -0.5393408
v -0.5235462 1.117496 -0.5557022
v -0.470156 1.2258319 -0.12994643
v -0.45694554 1.1550219 -0.11358509
v -1.1101146 1.1521404 0.40133044
v -1.1233252 1.2229505 0.38496897
v -1.5242591 1.1130813 0.23319477
v -1.5110483 1.0422714 0.24955624
v -0.69381666 1.1966692 0.2579148
v -0.70702755 1.2674791 0.2415534
v -1.1233252 1.2229505 0.38496897
v -1.1101146 1.1521404 0.40133044
v -0.45694554 1.1550219 -0.11358509
v -0.470156 1.2258319 -0.12994643
v -0.70702755 1.2674791 0.2415534
v -0.69381666 1.1966692 0.2579148
v -1.2736194 0.84429634 -0.7201204
v -1.2906146 0.9353932 -0.741169
v -1.1824495 0.9604435 -0.720088
v -1.1654539 0.8693471 -0.699039
v -1.368216 0.8385918 -0.6684284
v -1.3852115 0.9296888 -0.689477
v -1.2906146 0.9353932 -0.741169
v -1.2736194 0.84429634 -0.7201204
v -1.1654539 0.8693471 -0.699039
v -1.1824495 0.9604435 -0.720088
v -1.107751 1.0166702 -0.53706026
v -1.0907556 0.9255736 -0.5160113
v -0.95343375 1.1433898 -0.11323726
v -1.0271409 1.0571426 -0.42698848
v -0.899148 1.1218959 -0.25009015
v -1.2739884 1.0422568 -0.29209983
v -1.0581577 1.1370746 -0.056011632
v -1.2001064 1.103747 -0.08563297
v -1.107751 1.0166702 -0.53706026
v -1.3194243 1.0039058 -0.4213926
v -1.1824495 0.9604435 -0.720088
v -1.4613184 0.9415544 -0.57667196
v -1.1562636 0.95995 -0.74336743
v -1.4277962 0.94564855 -0.5860196
v -1.2906146 0.9353932 -0.741169
v -1.4051051 0.92010975 -0.714873
v -1.3003813 0.92642486 -0.77209884
v -1.3852115 0.9296888 -0.689477
v -0.95343375 1.1433898 -0.11323726
v -0.899148 1.1218959 -0.25009015
v -0.88575864 1.0501285 -0.23350754
v -0.9400444 1.0716223 -0.096654706
v -1.0581577 1.1370746 -0.056011632
v -1.0447683 1.0653071 -0.039428994
v -1.1867174 1.0319798 -0.06905049
v -1.2001064 1.103747 -0.08563297
v -1.4613184 0.9415544 -0.57667196
v -1.4479294 0.86978734 -0.5600893
v -1.3917159 0.8483425 -0.6982905
v -1.4051051 0.92010975 -0.714873
v -1.3003813 0.92642486 -0.77209884
v -1.2869921 0.8546574 -0.7555161
v -1.1562636 0.95995 -0.74336743
v -1.1428744 0.8881829 -0.7267847
v -1.4108007 0.8545519 -0.5649708
v -1.4277962 0.94564855 -0.5860196
v -1.3852115 0.9296888 -0.689477
v -1.368216 0.8385918 -0.6684284
v -1.3194243 1.0039058 -0.4213926
v -1.3024288 0.91280925 -0.40034357
v -1.2394555 0.91660666 -0.43475506
v -1.1537291 0.9217762 -0.48159993
v -1.107751 1.0166702 -0.53706026
v -1.0907556 0.9255736 -0.5160113
v -1.1415888 -0.17813501 -0.78588414
v -1.2073253 0.17421755 -0.867299
v -1.5177054 0.31874797 -0.67846644
v -0.70040524 -0.15635523 -0.7684252
v -1.0820098 -0.49748197 -0.7120958
v -1.4926887 -0.5096736 -0.3854801
v -1.0279127 -0.787446 -0.6450964
v -0.5458132 -0.8628142 -0.60403925
v -1.4613891 0.08805069 0.6243485
v -1.5271256 0.4404031 0.5429337
v -1.2273941 0.6754991 0.6311008
v -1.649178 -0.09390655 0.26790968
v -1.40181 -0.23129627 0.69813687
v -0.9235209 -0.111528784 0.87807745
v -1.347713 -0.52126074 0.76513624
v -1.5267828 -0.8107947 0.4131563
v -0.084031194 0.23353195 0.14185612
v -0.14976776 0.58588445 0.060441345
v -0.22139412 0.6435137 -0.3195994
v -0.30516058 0.2160677 0.5242416
v -0.024452388 -0.0858151 0.21564452
v -0.08725318 -0.22462669 -0.28662124
v 0.029644758 -0.37577942 0.2826438
v -0.18447158 -0.49240014 0.707308
v 0.028754234 -1.2261604 -1.2405801
v 0.99458045 -1.3215548 -1.4135063
v 0.4783757 -1.2933083 -1.5022538
v 1.3358303 -1.2976834 -1.0158631
v -0.14390129 -1.1515306 -0.75092584
v 1.3424511 -1.2328635 -0.4953864
v 0.041196495 -1.1043392 -0.26240435
v 1.0113444 -1.1574253 -0.09561279
v 0.49743906 -1.106667 -0.0036011566
v 0.68364793 1.1185924 -1.6862875
v 1.119171 1.0947605 -1.6114106
v 1.4070847 1.1149008 -1.2759188
v 0.30430147 1.1752447 -1.4655136
v 1.4126703 1.1695896 -0.83679146
v 0.15863144 1.23821 -1.052391
v 0.31479907 1.2780257 -0.64022434
v 1.1333146 1.2332371 -0.4995018
v 0.6997316 1.2760615 -0.42187145
v 0.68364793 1.1185924 -1.6862875
v 0.68922424 1.191675 -1.69546
v 1.124747 1.1678431 -1.6205835
v 1.119171 1.0947605 -1.6114106
v 1.4070847 1.1149008 -1.2759188
v 1.4126605 1.1879833 -1.2850915
v 1.4182462 1.242672 -0.8459645
v 1.4126703 1.1695896 -0.83679146
v 1.4126703 1.1695896 -0.83679146
v 1.4182462 1.242672 -0.8459645
v 1.1388906 1.3063192 -0.5086747
v 1.1333146 1.2332371 -0.4995018
v 1.119171 1.0947605 -1.6114106
v 1.124747 1.1678431 -1.6205835
v 1.4126605 1.1879833 -1.2850915
v 1.4070847 1.1149008 -1.2759188
v 0.69061136 1.2936553 -0.9118761
v 0.9119799 1.2032669 -0.89458895
v 0.6849598 1.2195846 -0.9025796
v 0.91763115 1.2773368 -0.9038859
v 1.2547336 1.1887017 -0.80227214
v 1.260385 1.2627717 -0.8115689
v 1.1333146 1.2332371 -0.4995018
v 1.1388906 1.3063192 -0.5086747
v 0.70530784 1.3491441 -0.43104374
v 0.6997316 1.2760615 -0.42187145
v 1.0911505 1.140417 -1.1240441
v 1.0983243 1.2344375 -1.1358446
v 1.3027852 1.2208247 -1.1200093
v 1.2956119 1.1268046 -1.1082085
v 1.3163306 1.2157851 -1.1519312
v 0.95725036 1.1652449 -1.1700077
v 1.3106785 1.1417143 -1.1426347
v 0.96290165 1.239315 -1.1793041
v 0.740154 1.1732283 -1.2383715
v 0.7458051 1.2472988 -1.2476684
v 0.6997316 1.2760615 -0.42187145
v 0.70530784 1.3491441 -0.43104374
v 0.32037497 1.3511081 -0.64939684
v 0.31479907 1.2780257 -0.64022434
v 0.30430147 1.1752447 -1.4655136
v 0.30987766 1.2483271 -1.4746858
v 0.68922424 1.191675 -1.69546
v 0.68364793 1.1185924 -1.6862875
v 0.15863144 1.23821 -1.052391
v 0.1642077 1.3112925 -1.0615633
v 0.30987766 1.2483271 -1.4746858
v 0.30430147 1.1752447 -1.4655136
v 0.31479907 1.2780257 -0.64022434
v 0.32037497 1.3511081 -0.64939684
v 0.1642077 1.3112925 -1.0615633
v 0.15863144 1.23821 -1.052391
v 1.336577 1.149038 -0.90616226
v 1.3437504 1.243058 -0.9179629
v 1.2577901 1.2586149 -0.84626585
v 1.2506166 1.1645952 -0.8344654
v 1.3539258 1.1344674 -1.0117078
v 1.361099 1.2284876 -1.0235081
v 1.3437504 1.243058 -0.9179629
v 1.336577 1.149038 -0.90616226
v 1.2506166 1.1645952 -0.8344654
v 1.2577901 1.2586149 -0.84626585
v 1.0595047 1.2670411 -0.8996718
v 1.0523311 1.1730208 -0.8878717
v 0.6121777 1.2838193 -1.037928
v 0.91763115 1.2773368 -0.9038859
v 0.69061136 1.2936553 -0.9118761
v 0.96290165 1.239315 -1.1793041
v 0.63138354 1.2676886 -1.1547729
v 0.7458051 1.2472988 -1.2476684
v 1.0595047 1.2670411 -0.8996718
v 1.0983243 1.2344375 -1.1358446
v 1.2577901 1.2586149 -0.84626585
v 1.3163306 1.2157851 -1.1519312
v 1.260385 1.2627717 -0.8115689
v 1.3027852 1.2208247 -1.1200093
v 1.3437504 1.243058 -0.9179629
v 1.3946531 1.2259232 -1.0235488
v 1.3754478 1.2420536 -0.906704
v 1.361099 1.2284876 -1.0235081
v 0.6121777 1.2838193 -1.037928
v 0.69061136 1.2936553 -0.9118761
v 0.6849598 1.2195846 -0.9025796
v 0.60652626 1.2097484 -1.0286313
v 0.63138354 1.2676886 -1.1547729
v 0.6257322 1.193618 -1.1454762
v 0.740154 1.1732283 -1.2383715
v 0.7458051 1.2472988 -1.2476684
v 1.3163306 1.2157851 -1.1519312
v 1.3106785 1.1417143 -1.1426347
v 1.3890018 1.1518526 -1.0142522
v 1.3946531 1.2259232 -1.0235488
v 1.3754478 1.2420536 -0.906704
v 1.3697959 1.1679828 -0.8974076
v 1.260385 1.2627717 -0.8115689
v 1.2547336 1.1887017 -0.80227214
v 1.2956119 1.1268046 -1.1082085
v 1.3027852 1.2208247 -1.1200093
v 1.361099 1.2284876 -1.0235081
v 1.3539258 1.1344674 -1.0117078
v 1.0983243 1.2344375 -1.1358446
v 1.0911505 1.140417 -1.1240441
v 1.0796018 1.150117 -1.0537821
v 1.06388 1.1633213 -0.9581335
v 1.0595047 1.2670411 -0.8996718
v 1.0523311 1.1730208 -0.8878717
v 1.5252615 0.16771358 -0.64439255
v 1.553008 0.5313741 -0.69003516
v 1.5604998 0.6374441 -1.0663005
v 1.2448052 0.16944347 -0.3026859
v 1.500114 -0.16188177 -0.6030247
v 1.493487 -0.23726174 -1.1224068
v 1.4772803 -0.4611514 -0.5654636
v 1.1747301 -0.5607494 -0.1935367
v 0.5651188 0.10145575 -1.7559764
v 0.5928654 0.46511596 -1.8016193
v 0.2965572 0.6619587 -1.6393332
v 0.9917516 0.016179144 -1.6776526
v 0.5399715 -0.22813961 -1.7146089
v 0.09069 -0.1712586 -1.4492905
v 0.51713765 -0.5274097 -1.6770474
v 0.95787126 -0.7184675 -1.5819856
v 0.08974494 0.30989167 -0.38424334
v 0.117491454 0.6735521 -0.42988628
v 0.44271362 0.8224292 -0.2719353
v -0.071728945 0.20956458 -0.7833454
v 0.06459765 -0.019703895 -0.34287578
v 0.52092236 -0.03271103 -0.08387357
v 0.04176393 -0.31897375 -0.30531427
v -0.13571367 -0.5258522 -0.7121175
v 0.5043844 -1.0156364 -0.0150264995
v 0.041196495 -1.1043392 -0.26240435
v 0.048142076 -1.0133084 -0.2738295
v -0.1369558 -1.0604997 -0.762351
v 0.49743906 -1.106667 -0.0036011566
v -0.14390129 -1.1515306 -0.75092584
v 1.0113444 -1.1574253 -0.09561279
v 0.035699785 -1.1351296 -1.2520056
v 1.0182898 -1.0663946 -0.107038155
v 0.028754234 -1.2261604 -1.2405801
v 1.3424511 -1.2328635 -0.4953864
v 0.4853212 -1.2022771 -1.5136786
v 1.3493965 -1.1418325 -0.50681174
v 0.4783757 -1.2933083 -1.5022538
v 1.3358303 -1.2976834 -1.0158631
v 1.0015259 -1.2305238 -1.424931
v 1.3427761 -1.2066522 -1.0272883
v 0.99458045 -1.3215548 -1.4135063
v 0.011871785 -1.1830941 -0.080055155
v 0.091607735 -1.1428889 0.44495234
v 0.075152695 -1.0546887 0.42457274
v -0.20559978 -1.005326 0.86489385
v 0.02832678 -1.2712945 -0.059675552
v -0.18914461 -1.0935264 0.8852736
v -0.34937686 -1.4186605 -0.39248842
v -0.6990175 -1.058104 1.0348778
v -0.3658321 -1.3304602 -0.412868
v -0.68256253 -1.1463044 1.0552576
v -0.8647722 -1.516033 -0.39775962
v -1.1742254 -1.1883265 0.8549868
v -0.88122725 -1.4278326 -0.41813922
v -1.1577704 -1.2765269 0.8753667
v -1.2766995 -1.5178502 -0.07302275
v -1.4088687 -1.3350614 0.40939432
v -1.2931544 -1.4296498 -0.09340232
v -1.3924137 -1.4232618 0.429774
v 1.6095382 -1.4651185 1.0141191
v 1.2740403 -1.6053034 1.4032162
v 1.2840691 -1.5158638 1.4223305
v 0.772899 -1.4826747 1.5352244
v 1.5995095 -1.5545582 0.9950047
v 0.76287043 -1.5721142 1.5161107
v 1.586987 -1.4436227 0.48248383
v 0.31521058 -1.3810809 1.2999778
v 1.5970157 -1.3541831 0.5015981
v 0.30518207 -1.4705206 1.2808635
v 1.2423325 -1.3244054 0.10546693
v 0.12516086 -1.2586193 0.8266645
v 1.2523612 -1.2349654 0.12458114
v 0.11513229 -1.3480592 0.8075502
v 0.7268138 -1.252689 0.040364802
v 0.29167607 -1.1725907 0.33675334
v 0.7368423 -1.1632493 0.059479043
v 0.28164756 -1.2620304 0.3176391
v 0.094573885 1.2250692 -1.0499394
v 0.27286327 1.3597852 -0.6091441
v 0.2659177 1.2687542 -0.59771854
v 0.6882582 1.2665993 -0.35814637
v 0.10151939 1.3161002 -1.0613645
v 0.69520354 1.3576306 -0.36957148
v 0.2544001 1.1559851 -1.5032088
v 1.170922 1.3106437 -0.45474654
v 0.2613456 1.2470163 -1.5146341
v 1.1639767 1.2196127 -0.44332105
v 0.6706113 1.0938268 -1.745438
v 1.4774249 1.2408112 -0.82481384
v 0.67755675 1.1848581 -1.7568634
v 1.4704797 1.1497802 -0.8133887
v 1.1484585 1.0676793 -1.6632844
v 1.4712963 1.1808083 -1.306615
v 1.1554037 1.1587102 -1.6747098
v 1.4643508 1.0897772 -1.2951901
v -0.6533075 1.1971763 0.30930364
v -0.40987235 1.2396824 -0.11867827
v -0.39341718 1.1514817 -0.09829865
v -0.45199573 1.0326179 -0.5654291
v -0.66976255 1.2853769 0.28892398
v -0.46845096 1.1208185 -0.5858087
v -1.1100608 1.1483202 0.4666561
v -0.81808865 0.98440266 -0.8938911
v -1.1265161 1.236521 0.44627658
v -0.8016336 0.8962021 -0.8735115
v -1.5499576 1.0277742 0.30013284
v -1.2951863 0.89426565 -0.8987705
v -1.5664127 1.1159748 0.27975297
v -1.2787312 0.8060651 -0.87839085
v -1.7671647 0.8919426 -0.1123493
v -1.6765043 0.8925836 -0.5981641
v -1.7836199 0.9801432 -0.13272884
v -1.6600492 0.80438304 -0.57778436
v 1.033666 0.77808964 1.9607657
v 1.516881 0.83680665 1.8753747
v 1.5068523 0.7473667 1.8562601
v 1.8081368 0.7943411 1.4783821
v 1.0436949 0.8675293 1.9798797
v 1.8181655 0.8837811 1.4974965
v 0.6099873 0.8721342 1.7429991
v 1.8065739 0.9864732 1.0230592
v 0.62001586 0.9615742 1.7621135
v 1.7965448 0.8970331 1.0039451
v 0.43405947 0.9854959 1.3048568
v 1.4875293 1.0968319 0.6740575
v 0.4440882 1.074936 1.3239708
v 1.4775006 1.0073918 0.65494317
v 0.5882016 1.065132 0.8513493
v 1.0103172 1.1632193 0.61379296
v 0.5982302 1.1545718 0.8704637
v 1.0002885 1.0737793 0.5946786
v 1.4126605 1.1879833 -1.2850915
v 1.4774249 1.2408112 -0.82481384
v 1.4182462 1.242672 -0.8459645
v 1.4712963 1.1808083 -1.306615
v 1.170922 1.3106437 -0.45474654
v 1.124747 1.1678431 -1.6205835
v 1.1388906 1.3063192 -0.5086747
v 1.1554037 1.1587102 -1.6747098
v 0.69520354 1.3576306 -0.36957148
v 0.68922424 1.191675 -1.69546
v 0.70530784 1.3491441 -0.43104374
v 0.67755675 1.1848581 -1.7568634
v 0.27286327 1.3597852 -0.6091441
v 0.30987766 1.2483271 -1.4746858
v 0.32037497 1.3511081 -0.64939684
v 0.2613456 1.2470163 -1.5146341
v 0.10151939 1.3161002 -1.0613645
v 0.1642077 1.3112925 -1.0615633
v 1.176156 0.626816 -1.716079
v 1.1484585 1.0676793 -1.6632844
v 0.6706113 1.0938268 -1.745438
v 0.6155141 0.65749407 -1.8124663
v 0.2544001 1.1559851 -1.5032088
v 1.5467826 0.6527424 -1.2842047
v 1.4643508 1.0897772 -1.2951901
v 0.12718672 0.73042214 -1.5282668
v 0.094573885 1.2250692 -1.0499394
v 1.0454102 -1.0868106 -1.5010018
v 1.5539732 0.72314215 -0.71892303
v 1.4704797 1.1497802 -0.8133887
v -0.06033176 0.81147623 -0.9964604
v 0.2659177 1.2687542 -0.59771854
v 1.4160368 -1.0608841 -1.069128
v 1.1943634 0.8050746 -0.28473493
v 1.1639767 1.2196127 -0.44332105
v 0.1407001 0.86273074 -0.46588445
v 0.6882582 1.2665993 -0.35814637
v 0.63621825 0.8602022 -0.1848018
v 1.4232275 -0.99048424 -0.5038458
v 0.009953976 -0.8508959 -0.25080776
v -0.19107771 -0.90215003 -0.78138334
v 1.0636175 -0.90855205 -0.069657795
v -0.0035592914 -0.9832041 -1.31319
v 0.50547206 -0.8534243 0.030274896
v 0.4847679 -1.0561323 -1.5973895
v 1.3427761 -1.2066522 -1.0272883
v 1.0015259 -1.2305238 -1.424931
v 1.3493965 -1.1418325 -0.50681174
v 0.4853212 -1.2022771 -1.5136786
v 1.0182898 -1.0663946 -0.107038155
v 0.035699785 -1.1351296 -1.2520056
v 0.5043844 -1.0156364 -0.0150264995
v 0.048142076 -1.0133084 -0.2738295
v -0.1369558 -1.0604997 -0.762351
v -1.6245999 0.9094764 -0.5669634
v -1.2951863 0.89426565 -0.8987705
v -1.2770559 0.91100943 -0.84094435
v -1.6765043 0.8925836 -0.5981641
v -0.81808865 0.98440266 -0.8938911
v -1.722228 0.98928094 -0.14275256
v -0.8422159 0.993163 -0.83649695
v -1.7836199 0.9801432 -0.13272884
v -0.46845096 1.1208185 -0.5858087
v -1.5242591 1.1130813 0.23319477
v -0.5235462 1.117496 -0.5557022
v -1.5664127 1.1159748 0.27975297
v -0.40987235 1.2396824 -0.11867827
v -1.1233252 1.2229505 0.38496897
v -0.470156 1.2258319 -0.12994643
v -1.1265161 1.236521 0.44627658
v -0.66976255 1.2853769 0.28892398
v -0.70702755 1.2674791 0.2415534
v -1.8107991 0.46422234 0.0019585593
v -1.7671647 0.8919426 -0.1123493
v -1.5499576 1.0277742 0.30013284
v -1.5559568 0.6235888 0.48590997
v -1.1100608 1.1483202 0.4666561
v -1.6851237 0.36149123 -0.5441215
v -1.6600492 0.80438304 -0.57778436
v -1.0398403 0.7650218 0.6812868
v -0.6533075 1.1971763 0.30930364
v -1.5010378 -1.1961199 0.38559806
v -1.2377356 0.36346498 -0.8968133
v -1.2787312 0.8060651 -0.87839085
v -0.50394654 0.8223429 0.49666977
v -0.39341718 1.1514817 -0.09829865
v -1.3753626 -1.2988514 -0.16048202
v -0.6779725 0.46921968 -0.8910883
v -0.8016336 0.8962021 -0.8735115
v -0.19902563 0.76873124 0.018443704
v -0.45199573 1.0326179 -0.5654291
v -0.26775384 0.6292717 -0.5296253
v -0.92797446 -1.2968776 -0.51317394
v 0.110735655 -0.89161146 0.4020832
v -0.19418538 -0.8379996 0.88030934
v -0.36821127 -1.1911228 -0.5074488
v -0.73007905 -0.89532065 1.0649265
v 0.042007267 -1.0310708 -0.14598574
v -1.2461954 -1.0367535 0.8695496
v -1.2931544 -1.4296498 -0.09340232
v -1.4088687 -1.3350614 0.40939432
v -0.88122725 -1.4278326 -0.41813922
v -1.1742254 -1.1883265 0.8549868
v -0.3658321 -1.3304602 -0.412868
v -0.6990175 -1.058104 1.0348778
v 0.011871785 -1.1830941 -0.080055155
v 0.075152695 -1.0546887 0.42457274
v -0.20559978 -1.005326 0.86489385
v 1.0226448 1.1490157 0.6737865
v 1.4875293 1.0968319 0.6740575
v 1.4575891 1.0885084 0.7287133
v 1.0103172 1.1632193 0.61379296
v 1.8065739 0.9864732 1.0230592
v 0.6470573 1.1411344 0.90772337
v 1.7483749 0.9879246 1.0468032
v 0.5982302 1.1545718 0.8704637
v 1.8181655 0.8837811 1.4974965
v 0.5065681 1.0685518 1.3210623
v 1.7589401 0.8943281 1.4792185
v 0.4440882 1.074936 1.3239708
v 1.516881 0.83680665 1.8753747
v 0.6669134 0.9652307 1.7203976
v 1.4843411 0.8515141 1.8236271
v 0.62001586 0.9615742 1.7621135
v 1.0436949 0.8675293 1.9798797
v 1.0530661 0.8795159 1.9188759
v 0.4460841 0.6758144 0.6896416
v 0.5882016 1.065132 0.8513493
v 0.43405947 0.9854959 1.3048568
v 0.26523432 0.5823802 1.2217269
v 0.6099873 0.8721342 1.7429991
v 0.9295724 0.6859602 0.38849807
v 1.0002885 1.0737793 0.5946786
v 0.47164458 0.44937623 1.7357856
v 1.033666 0.77808964 1.9607657
v 0.25729948 -1.0078597 0.32982245
v 1.4894699 0.60807 0.45920464
v 1.4775006 1.0073918 0.65494317
v 0.96873343 0.33903676 1.9912833
v 1.5068523 0.7473667 1.8562601
v 0.7407876 -0.99771416 0.02867893
v 1.8637942 0.4785896 0.86867726
v 1.7965448 0.8970331 1.0039451
v 1.5239072 0.30299056 1.8686708
v 1.8081368 0.7943411 1.4783821
v 1.8773946 0.3581041 1.4253187
v 1.3006852 -1.0756043 0.09938549
v 1.3351225 -1.3806835 1.508852
v 0.7799485 -1.3446372 1.6314642
v 1.6750095 -1.2050846 0.5088581
v 0.2828599 -1.2342978 1.3759663
v 1.6886095 -1.32557 1.0654994
v 0.07644957 -1.101294 0.8619076
v 0.7368423 -1.1632493 0.059479043
v 0.29167607 -1.1725907 0.33675334
v 1.2523612 -1.2349654 0.12458114
v 0.12516086 -1.2586193 0.8266645
v 1.5970157 -1.3541831 0.5015981
v 0.31521058 -1.3810809 1.2999778
v 1.6095382 -1.4651185 1.0141191
v 1.2840691 -1.5158638 1.4223305
v 0.772899 -1.4826747 1.5352244
vt 0.6560372 0.031967163
vt 0.6560372 0.031967163
vt 0.6560372 0.031967163
vt 0.6560372 0.031967163
vt 0.6560372 0.031967163
vt 0.6560372 0.031967163
vt 0.6560372 0.031967163
vt 0.6560372 0.031967163
vt 0.6560372 0.031967163
vt 0.6560372 0.031967163
vt 0.6560372 0.031967163
vt 0.6560372 0.031967163
vt 0.6560372 0.031967163
vt 0.6560372 0.031967163
vt 0.6560372 0.031967163
vt 0.6560372 0.031967163
vt 0.6560372 0.031967163
vt 0.6560372 0.031967163
vt 0.7185372 0.031967163
vt 0.7185372 0.031967163
vt 0.7185372 0.031967163
vt 0.7185372 0.031967163
vt 0.7185372 0.031967163
vt 0.7185372 0.031967163
vt 0.7185372 0.031967163
vt 0.7185372 0.031967163
vt 0.7185372 0.031967163
vt 0.7185372 0.031967163
vt 0.7185372 0.031967163
vt 0.7185372 0.031967163
vt 0.7185372 0.031967163
vt 0.7185372 0.031967163
vt 0.7185372 0.031967163
vt 0.7185372 0.031967163
vt 0.7185372 0.031967163
vt 0.7185372 0.031967163
vt 0.7185372 0.031967163
vt 0.7185372 0.031967163
vt 0.7185372 0.031967163
vt 0.7185372 0.031967163
vt 0.7185372 0.031967163
vt 0.7185372 0.031967163
vt 0.7185372 0.031967163
vt 0.7185372 0.031967163
vt 0.7185372 0.031967163
vt 0.7185372 0.031967163
vt 0.7185372 0.031967163
vt 0.7185372 0.031967163
vt 0.7185372 0.031967163
vt 0.7185372 0.031967163
vt 0.7185372 0.031967163
vt 0.7185372 0.031967163
vt 0.7185372 0.031967163
vt 0.7185372 0.031967163
vt 0.7185372 0.031967163
vt 0.7185372 0.031967163
vt 0.7185372 0.031967163
vt 0.7185372 0.031967163
vt 0.7185372 0.031967163
vt 0.7185372 0.031967163
vt 0.7185372 0.031967163
vt 0.7185372 0.031967163
vt 0.7185372 0.031967163
vt 0.7185372 0.031967163
vt 0.7185372 0.031967163
vt 0.7185372 0.031967163
vt 0.7185372 0.031967163
vt 0.7185372 0.031967163
vt 0.7185372 0.031967163
vt 0.7185372 0.031967163
vt 0.7185372 0.031967163
vt 0.7185372 0.031967163
vt 0.7185372 0.031967163
vt 0.7185372 0.031967163
vt 0.7185372 0.031967163
vt 0.7185372 0.031967163
vt 0.7185372 0.031967163
vt 0.7185372 0.031967163
vt 0.7185372 0.031967163
vt 0.7185372 0.031967163
vt 0.7185372 0.031967163
vt 0.7185372 0.031967163
vt 0.6560372 0.031967163
vt 0.6560372 0.031967163
vt 0.6560372 0.031967163
vt 0.6560372 0.031967163
vt 0.6560372 0.031967163
vt 0.6560372 0.031967163
vt 0.6560372 0.031967163
vt 0.6560372 0.031967163
vt 0.6560372 0.031967163
vt 0.6560372 0.031967163
vt 0.6560372 0.031967163
vt 0.6560372 0.031967163
vt 0.6560372 0.031967163
vt 0.6560372 0.031967163
vt 0.6560372 0.031967163
vt 0.6560372 0.031967163
vt 0.7185372 0.031967163
vt 0.7185372 0.031967163
vt 0.7185372 0.031967163
vt 0.7185372 0.031967163
vt 0.7185372 0.031967163
vt 0.7185372 0.031967163
vt 0.7185372 0.031967163
vt 0.7185372 0.031967163
vt 0.7185372 0.031967163
vt 0.7185372 0.031967163
vt 0.7185372 0.031967163
vt 0.7185372 0.031967163
vt 0.7185372 0.031967163
vt 0.7185372 0.031967163
vt 0.7185372 0.031967163
vt 0.7185372 0.031967163
vt 0.7185372 0.031967163
vt 0.7185372 0.031967163
vt 0.7185372 0.031967163
vt 0.7185372 0.031967163
vt 0.7185372 0.031967163
vt 0.7185372 0.031967163
vt 0.7185372 0.031967163
vt 0.7185372 0.031967163
vt 0.7185372 0.031967163
vt 0.7185372 0.031967163
vt 0.09317626 0.96915066
vt 0.09317626 0.96915066
vt 0.09317626 0.96915066
vt 0.09317626 0.96915066
vt 0.09317626 0.96915066
vt 0.09317626 0.96915066
vt 0.09317626 0.96915066
vt 0.09317626 0.96915066
vt 0.09317626 0.96915066
vt 0.09317626 0.96915066
vt 0.09317626 0.96915066
vt 0.09317626 0.96915066
vt 0.09317626 0.96915066
vt 0.09317626 0.96915066
vt 0.09317626 0.96915066
vt 0.09317626 0.96915066
vt 0.09317626 0.96915066
vt 0.09317626 0.96915066
vt 0.09317626 0.96915066
vt 0.09317626 0.96915066
vt 0.09317626 0.96915066
vt 0.09317626 0.96915066
vt 0.09317626 0.96915066
vt 0.09317626 0.96915066
vt 0.6560372 0.031967163
vt 0.6560372 0.031967163
vt 0.6560372 0.031967163
vt 0.6560372 0.031967163
vt 0.6560372 0.031967163
vt 0.6560372 0.031967163
vt 0.6560372 0.031967163
vt 0.6560372 0.031967163
vt 0.6560372 0.031967163
vt 0.6560372 0.031967163
vt 0.6560372 0.031967163
vt 0.6560372 0.031967163
vt 0.6560372 0.031967163
vt 0.6560372 0.031967163
vt 0.6560372 0.031967163
vt 0.6560372 0.031967163
vt 0.6560372 0.031967163
vt 0.6560372 0.031967163
vt 0.7185372 0.031967163
vt 0.7185372 0.031967163
vt 0.7185372 0.031967163
vt 0.7185372 0.031967163
vt 0.7185372 0.031967163
vt 0.7185372 0.031967163
vt 0.7185372 0.031967163
vt 0.7185372 0.031967163
vt 0.7185372 0.031967163
vt 0.7185372 0.031967163
vt 0.7185372 0.031967163
vt 0.7185372 0.031967163
vt 0.7185372 0.031967163
vt 0.7185372 0.031967163
vt 0.7185372 0.031967163
vt 0.7185372 0.031967163
vt 0.7185372 0.031967163
vt 0.7185372 0.031967163
vt 0.7185372 0.031967163
vt 0.7185372 0.031967163
vt 0.7185372 0.031967163
vt 0.7185372 0.031967163
vt 0.7185372 0.031967163
vt 0.7185372 0.031967163
vt 0.7185372 0.031967163
vt 0.7185372 0.031967163
vt 0.7185372 0.031967163
vt 0.7185372 0.031967163
vt 0.7185372 0.031967163
vt 0.7185372 0.031967163
vt 0.7185372 0.031967163
vt 0.7185372 0.031967163
vt 0.7185372 0.031967163
vt 0.7185372 0.031967163
vt 0.7185372 0.031967163
vt 0.7185372 0.031967163
vt 0.7185372 0.031967163
vt 0.7185372 0.031967163
vt 0.7185372 0.031967163
vt 0.7185372 0.031967163
vt 0.7185372 0.031967163
vt 0.7185372 0.031967163
vt 0.7185372 0.031967163
vt 0.7185372 0.031967163
vt 0.7185372 0.031967163
vt 0.7185372 0.031967163
vt 0.7185372 0.031967163
vt 0.7185372 0.031967163
vt 0.7185372 0.031967163
vt 0.7185372 0.031967163
vt 0.7185372 0.031967163
vt 0.7185372 0.031967163
vt 0.7185372 0.031967163
vt 0.7185372 0.031967163
vt 0.7185372 0.031967163
vt 0.7185372 0.031967163
vt 0.7185372 0.031967163
vt 0.7185372 0.031967163
vt 0.7185372 0.031967163
vt 0.7185372 0.031967163
vt 0.7185372 0.031967163
vt 0.7185372 0.031967163
vt 0.7185372 0.031967163
vt 0.7185372 0.031967163
vt 0.6560372 0.031967163
vt 0.6560372 0.031967163
vt 0.6560372 0.031967163
vt 0.6560372 0.031967163
vt 0.6560372 0.031967163
vt 0.6560372 0.031967163
vt 0.6560372 0.031967163
vt 0.6560372 0.031967163
vt 0.6560372 0.031967163
vt 0.6560372 0.031967163
vt 0.6560372 0.031967163
vt 0.6560372 0.031967163
vt 0.6560372 0.031967163
vt 0.6560372 0.031967163
vt 0.6560372 0.031967163
vt 0.6560372 0.031967163
vt 0.7185372 0.031967163
vt 0.7185372 0.031967163
vt 0.7185372 0.031967163
vt 0.7185372 0.031967163
vt 0.7185372 0.031967163
vt 0.7185372 0.031967163
vt 0.7185372 0.031967163
vt 0.7185372 0.031967163
vt 0.7185372 0.031967163
vt 0.7185372 0.031967163
vt 0.7185372 0.031967163
vt 0.7185372 0.031967163
vt 0.7185372 0.031967163
vt 0.7185372 0.031967163
vt 0.7185372 0.031967163
vt 0.7185372 0.031967163
vt 0.7185372 0.031967163
vt 0.7185372 0.031967163
vt 0.7185372 0.031967163
vt 0.7185372 0.031967163
vt 0.7185372 0.031967163
vt 0.7185372 0.031967163
vt 0.7185372 0.031967163
vt 0.7185372 0.031967163
vt 0.7185372 0.031967163
vt 0.7185372 0.031967163
vt 0.09317626 0.96915066
vt 0.09317626 0.96915066
vt 0.09317626 0.96915066
vt 0.09317626 0.96915066
vt 0.09317626 0.96915066
vt 0.09317626 0.96915066
vt 0.09317626 0.96915066
vt 0.09317626 0.96915066
vt 0.09317626 0.96915066
vt 0.09317626 0.96915066
vt 0.09317626 0.96915066
vt 0.09317626 0.96915066
vt 0.09317626 0.96915066
vt 0.09317626 0.96915066
vt 0.09317626 0.96915066
vt 0.09317626 0.96915066
vt 0.09317626 0.96915066
vt 0.09317626 0.96915066
vt 0.09317626 0.96915066
vt 0.09317626 0.96915066
vt 0.09317626 0.96915066
vt 0.09317626 0.96915066
vt 0.09317626 0.96915066
vt 0.09317626 0.96915066
vt 0.6560372 0.031967163
vt 0.6560372 0.031967163
vt 0.6560372 0.031967163
vt 0.6560372 0.031967163
vt 0.6560372 0.031967163
vt 0.6560372 0.031967163
vt 0.6560372 0.031967163
vt 0.6560372 0.031967163
vt 0.6560372 0.031967163
vt 0.6560372 0.031967163
vt 0.6560372 0.031967163
vt 0.6560372 0.031967163
vt 0.6560372 0.031967163
vt 0.6560372 0.031967163
vt 0.6560372 0.031967163
vt 0.6560372 0.031967163
vt 0.6560372 0.031967163
vt 0.6560372 0.031967163
vt 0.7185372 0.031967163
vt 0.7185372 0.031967163
vt 0.7185372 0.031967163
vt 0.7185372 0.031967163
vt 0.7185372 0.031967163
vt 0.7185372 0.031967163
vt 0.7185372 0.031967163
vt 0.7185372 0.031967163
vt 0.7185372 0.031967163
vt 0.7185372 0.031967163
vt 0.7185372 0.031967163
vt 0.7185372 0.031967163
vt 0.7185372 0.031967163
vt 0.7185372 0.031967163
vt 0.7185372 0.031967163
vt 0.7185372 0.031967163
vt 0.7185372 0.031967163
vt 0.7185372 0.031967163
vt 0.7185372 0.031967163
vt 0.7185372 0.031967163
vt 0.7185372 0.031967163
vt 0.7185372 0.031967163
vt 0.7185372 0.031967163
vt 0.7185372 0.031967163
vt 0.7185372 0.031967163
vt 0.7185372 0.031967163
vt 0.7185372 0.031967163
vt 0.7185372 0.031967163
vt 0.7185372 0.031967163
vt 0.7185372 0.031967163
vt 0.7185372 0.031967163
vt 0.7185372 0.031967163
vt 0.7185372 0.031967163
vt 0.7185372 0.031967163
vt 0.7185372 0.031967163
vt 0.7185372 0.031967163
vt 0.7185372 0.031967163
vt 0.7185372 0.031967163
vt 0.7185372 0.031967163
vt 0.7185372 0.031967163
vt 0.7185372 0.031967163
vt 0.7185372 0.031967163
vt 0.7185372 0.031967163
vt 0.7185372 0.031967163
vt 0.7185372 0.031967163
vt 0.7185372 0.031967163
vt 0.7185372 0.031967163
vt 0.7185372 0.031967163
vt 0.7185372 0.031967163
vt 0.7185372 0.031967163
vt 0.7185372 0.031967163
vt 0.7185372 0.031967163
vt 0.7185372 0.031967163
vt 0.7185372 0.031967163
vt 0.7185372 0.031967163
vt 0.7185372 0.031967163
vt 0.7185372 0.031967163
vt 0.7185372 0.031967163
vt 0.7185372 0.031967163
vt 0.7185372 0.031967163
vt 0.7185372 0.031967163
vt 0.7185372 0.031967163
vt 0.7185372 0.031967163
vt 0.7185372 0.031967163
vt 0.6560372 0.031967163
vt 0.6560372 0.031967163
vt 0.6560372 0.031967163
vt 0.6560372 0.031967163
vt 0.6560372 0.031967163
vt 0.6560372 0.031967163
vt 0.6560372 0.031967163
vt 0.6560372 0.031967163
vt 0.6560372 0.031967163
vt 0.6560372 0.031967163
vt 0.6560372 0.031967163
vt 0.6560372 0.031967163
vt 0.6560372 0.031967163
vt 0.6560372 0.031967163
vt 0.6560372 0.031967163
vt 0.6560372 0.031967163
vt 0.7185372 0.031967163
vt 0.7185372 0.031967163
vt 0.7185372 0.031967163
vt 0.7185372 0.031967163
vt 0.7185372 0.031967163
vt 0.7185372 0.031967163
vt 0.7185372 0.031967163
vt 0.7185372 0.031967163
vt 0.7185372 0.031967163
vt 0.7185372 0.031967163
vt 0.7185372 0.031967163
vt 0.7185372 0.031967163
vt 0.7185372 0.031967163
vt 0.7185372 0.031967163
vt 0.7185372 0.031967163
vt 0.7185372 0.031967163
vt 0.7185372 0.031967163
vt 0.7185372 0.031967163
vt 0.7185372 0.031967163
vt 0.7185372 0.031967163
vt 0.7185372 0.031967163
vt 0.7185372 0.031967163
vt 0.7185372 0.031967163
vt 0.7185372 0.031967163
vt 0.7185372 0.031967163
vt 0.7185372 0.031967163
vt 0.09317626 0.96915066
vt 0.09317626 0.96915066
vt 0.09317626 0.96915066
vt 0.09317626 0.96915066
vt 0.09317626 0.96915066
vt 0.09317626 0.96915066
vt 0.09317626 0.96915066
vt 0.09317626 0.96915066
vt 0.09317626 0.96915066
vt 0.09317626 0.96915066
vt 0.09317626 0.96915066
vt 0.09317626 0.96915066
vt 0.09317626 0.96915066
vt 0.09317626 0.96915066
vt 0.09317626 0.96915066
vt 0.09317626 0.96915066
vt 0.09317626 0.96915066
vt 0.09317626 0.96915066
vt 0.09317626 0.96915066
vt 0.09317626 0.96915066
vt 0.09317626 0.96915066
vt 0.09317626 0.96915066
vt 0.09317626 0.96915066
vt 0.09317626 0.96915066
vt 0.7185372 0.031967163
vt 0.7185372 0.031967163
vt 0.7185372 0.031967163
vt 0.7185372 0.031967163
vt 0.7185372 0.031967163
vt 0.7185372 0.031967163
vt 0.7185372 0.031967163
vt 0.7185372 0.031967163
vt 0.7185372 0.031967163
vt 0.7185372 0.031967163
vt 0.7185372 0.031967163
vt 0.7185372 0.031967163
vt 0.7185372 0.031967163
vt 0.7185372 0.031967163
vt 0.7185372 0.031967163
vt 0.7185372 0.031967163
vt 0.7185372 0.031967163
vt 0.7185372 0.031967163
vt 0.7185372 0.031967163
vt 0.7185372 0.031967163
vt 0.7185372 0.031967163
vt 0.7185372 0.031967163
vt 0.7185372 0.031967163
vt 0.7185372 0.031967163
vt 0.7185372 0.031967163
vt 0.7185372 0.031967163
vt 0.7185372 0.031967163
vt 0.7185372 0.031967163
vt 0.7185372 0.031967163
vt 0.7185372 0.031967163
vt 0.7185372 0.031967163
vt 0.7185372 0.031967163
vt 0.7185372 0.031967163
vt 0.7185372 0.031967163
vt 0.7185372 0.031967163
vt 0.7185372 0.031967163
vt 0.7185372 0.031967163
vt 0.7185372 0.031967163
vt 0.7185372 0.031967163
vt 0.7185372 0.031967163
vt 0.7185372 0.031967163
vt 0.7185372 0.031967163
vt 0.7185372 0.031967163
vt 0.7185372 0.031967163
vt 0.7185372 0.031967163
vt 0.7185372 0.031967163
vt 0.7185372 0.031967163
vt 0.7185372 0.031967163
vt 0.7185372 0.031967163
vt 0.7185372 0.031967163
vt 0.7185372 0.031967163
vt 0.7185372 0.031967163
vt 0.7185372 0.031967163
vt 0.7185372 0.031967163
vt 0.7185372 0.031967163
vt 0.7185372 0.031967163
vt 0.7185372 0.031967163
vt 0.7185372 0.031967163
vt 0.7185372 0.031967163
vt 0.7185372 0.031967163
vt 0.7185372 0.031967163
vt 0.7185372 0.031967163
vt 0.7185372 0.031967163
vt 0.7185372 0.031967163
vt 0.7185372 0.031967163
vt 0.7185372 0.031967163
vt 0.7185372 0.031967163
vt 0.7185372 0.031967163
vt 0.7185372 0.031967163
vt 0.7185372 0.031967163
vt 0.7185372 0.031967163
vt 0.7185372 0.031967163
vt 0.7185372 0.031967163
vt 0.7185372 0.031967163
vt 0.7185372 0.031967163
vt 0.7185372 0.031967163
vt 0.7185372 0.031967163
vt 0.7185372 0.031967163
vt 0.7185372 0.031967163
vt 0.7185372 0.031967163
vt 0.7185372 0.031967163
vt 0.7185372 0.031967163
vt 0.7185372 0.031967163
vt 0.7185372 0.031967163
vt 0.7185372 0.031967163
vt 0.7185372 0.031967163
vt 0.7185372 0.031967163
vt 0.7185372 0.031967163
vt 0.7185372 0.031967163
vt 0.7185372 0.031967163
vt 0.7185372 0.031967163
vt 0.7185372 0.031967163
vt 0.7185372 0.031967163
vt 0.7185372 0.031967163
vt 0.7185372 0.031967163
vt 0.7185372 0.031967163
vt 0.7185372 0.031967163
vt 0.7185372 0.031967163
vt 0.7185372 0.031967163
vt 0.7185372 0.031967163
vt 0.7185372 0.031967163
vt 0.7185372 0.031967163
vt 0.7185372 0.031967163
vt 0.7185372 0.031967163
vt 0.7185372 0.031967163
vt 0.7185372 0.031967163
vt 0.7185372 0.031967163
vt 0.7185372 0.031967163
vt 0.6560372 0.031967163
vt 0.6560372 0.031967163
vt 0.6560372 0.031967163
vt 0.6560372 0.031967163
vt 0.6560372 0.031967163
vt 0.6560372 0.031967163
vt 0.6560372 0.031967163
vt 0.6560372 0.031967163
vt 0.6560372 0.031967163
vt 0.6560372 0.031967163
vt 0.6560372 0.031967163
vt 0.6560372 0.031967163
vt 0.6560372 0.031967163
vt 0.6560372 0.031967163
vt 0.6560372 0.031967163
vt 0.6560372 0.031967163
vt 0.6560372 0.031967163
vt 0.6560372 0.031967163
vt 0.21754403 0.7815395
vt 0.21754403 0.7815395
vt 0.21754403 0.7815395
vt 0.21754403 0.7815395
vt 0.21754403 0.7815395
vt 0.21754403 0.7815395
vt 0.21754403 0.7815395
vt 0.21754403 0.7815395
vt 0.21754403 0.7815395
vt 0.21754403 0.7815395
vt 0.21754403 0.7815395
vt 0.21754403 0.7815395
vt 0.21754403 0.7815395
vt 0.21754403 0.7815395
vt 0.21754403 0.7815395
vt 0.21754403 0.7815395
vt 0.21754403 0.7815395
vt 0.21754403 0.7815395
vt 0.21754403 0.7815395
vt 0.21754403 0.7815395
vt 0.21754403 0.7815395
vt 0.21754403 0.7815395
vt 0.21754403 0.7815395
vt 0.21754403 0.7815395
vt 0.21754403 0.7815395
vt 0.21754403 0.7815395
vt 0.21754403 0.7815395
vt 0.21754403 0.7815395
vt 0.21754403 0.7815395
vt 0.21754403 0.7815395
vt 0.21754403 0.7815395
vt 0.21754403 0.7815395
vt 0.21754403 0.7815395
vt 0.21754403 0.7815395
vt 0.21754403 0.7815395
vt 0.21754403 0.7815395
vt 0.6560372 0.031967163
vt 0.6560372 0.031967163
vt 0.6560372 0.031967163
vt 0.6560372 0.031967163
vt 0.6560372 0.031967163
vt 0.6560372 0.031967163
vt 0.6560372 0.031967163
vt 0.6560372 0.031967163
vt 0.6560372 0.031967163
vt 0.6560372 0.031967163
vt 0.6560372 0.031967163
vt 0.6560372 0.031967163
vt 0.6560372 0.031967163
vt 0.6560372 0.031967163
vt 0.6560372 0.031967163
vt 0.6560372 0.031967163
vt 0.6560372 0.031967163
vt 0.6560372 0.031967163
vt 0.21754403 0.7815395
vt 0.21754403 0.7815395
vt 0.21754403 0.7815395
vt 0.21754403 0.7815395
vt 0.21754403 0.7815395
vt 0.21754403 0.7815395
vt 0.21754403 0.7815395
vt 0.21754403 0.7815395
vt 0.21754403 0.7815395
vt 0.21754403 0.7815395
vt 0.21754403 0.7815395
vt 0.21754403 0.7815395
vt 0.21754403 0.7815395
vt 0.21754403 0.7815395
vt 0.21754403 0.7815395
vt 0.21754403 0.7815395
vt 0.21754403 0.7815395
vt 0.21754403 0.7815395
vt 0.21754403 0.7815395
vt 0.21754403 0.7815395
vt 0.21754403 0.7815395
vt 0.21754403 0.7815395
vt 0.21754403 0.7815395
vt 0.21754403 0.7815395
vt 0.21754403 0.7815395
vt 0.21754403 0.7815395
vt 0.21754403 0.7815395
vt 0.21754403 0.7815395
vt 0.21754403 0.7815395
vt 0.21754403 0.7815395
vt 0.21754403 0.7815395
vt 0.21754403 0.7815395
vt 0.21754403 0.7815395
vt 0.21754403 0.7815395
vt 0.21754403 0.7815395
vt 0.21754403 0.7815395
vt 0.6560372 0.031967163
vt 0.6560372 0.031967163
vt 0.6560372 0.031967163
vt 0.6560372 0.031967163
vt 0.6560372 0.031967163
vt 0.6560372 0.031967163
vt 0.6560372 0.031967163
vt 0.6560372 0.031967163
vt 0.6560372 0.031967163
vt 0.6560372 0.031967163
vt 0.6560372 0.031967163
vt 0.6560372 0.031967163
vt 0.6560372 0.031967163
vt 0.6560372 0.031967163
vt 0.6560372 0.031967163
vt 0.6560372 0.031967163
vt 0.6560372 0.031967163
vt 0.6560372 0.031967163
vt 0.21754403 0.7815395
vt 0.21754403 0.7815395
vt 0.21754403 0.7815395
vt 0.21754403 0.7815395
vt 0.21754403 0.7815395
vt 0.21754403 0.7815395
vt 0.21754403 0.7815395
vt 0.21754403 0.7815395
vt 0.21754403 0.7815395
vt 0.21754403 0.7815395
vt 0.21754403 0.7815395
vt 0.21754403 0.7815395
vt 0.21754403 0.7815395
vt 0.21754403 0.7815395
vt 0.21754403 0.7815395
vt 0.21754403 0.7815395
vt 0.21754403 0.7815395
vt 0.21754403 0.7815395
vt 0.21754403 0.7815395
vt 0.21754403 0.7815395
vt 0.21754403 0.7815395
vt 0.21754403 0.7815395
vt 0.21754403 0.7815395
vt 0.21754403 0.7815395
vt 0.21754403 0.7815395
vt 0.21754403 0.7815395
vt 0.21754403 0.7815395
vt 0.21754403 0.7815395
vt 0.21754403 0.7815395
vt 0.21754403 0.7815395
vt 0.21754403 0.7815395
vt 0.21754403 0.7815395
vt 0.21754403 0.7815395
vt 0.21754403 0.7815395
vt 0.21754403 0.7815395
vt 0.21754403 0.7815395
vn -0.10899693 -0.97209114 -0.2077461
vn -0.10899731 -0.972091 -0.20774633
vn -0.10899731 -0.972091 -0.20774633
vn -0.10899693 -0.97209114 -0.2077461
vn -0.10899705 -0.97209114 -0.20774604
vn -0.10899705 -0.97209114 -0.20774604
vn -0.10899769 -0.972091 -0.2077462
vn -0.10899767 -0.972091 -0.20774616
vn -0.10899928 -0.9720908 -0.20774673
vn 0.10899732 0.972091 0.20774636
vn 0.10899732 0.972091 0.20774636
vn 0.10899726 0.97209114 0.20774622
vn 0.108997256 0.97209114 0.20774624
vn 0.10899711 0.97209114 0.2077462
vn 0.108997114 0.97209114 0.2077462
vn 0.108997054 0.97209114 0.20774627
vn 0.10899708 0.97209114 0.2077463
vn 0.10899778 0.9720909 0.20774692
vn 0.94198996 -0.16775095 0.29071373
vn 0.94198996 -0.16775095 0.29071373
vn 0.94198996 -0.16775095 0.29071373
vn 0.94198996 -0.16775095 0.29071373
vn -0.14905289 -0.1906469 0.9702767
vn -0.14905289 -0.1906469 0.9702767
vn -0.14905289 -0.1906469 0.9702767
vn -0.14905289 -0.1906469 0.9702767
vn -0.7459148 -0.058161534 0.66349703
vn -0.7459148 -0.058161534 0.66349703
vn -0.7459148 -0.058161534 0.66349703
vn -0.7459148 -0.058161534 0.66349703
vn 0.5175529 -0.23392625 0.8230537
vn 0.5175529 -0.23392625 0.8230537
vn 0.5175529 -0.23392625 0.8230537
vn 0.5175529 -0.23392625 0.8230537
vn 0.9763292 -0.14396913 0.16141307
vn 0.94850224 -0.16424035 0.27086633
vn 0.9763292 -0.14396913 0.16141307
vn 0.94850224 -0.16424032 0.27086616
vn 0.90818805 -0.18234926 0.3767534
vn 0.90818805 -0.18234926 0.3767534
vn -0.9937558 0.10153673 0.046257835
vn -0.9937558 0.10153673 0.046257835
vn -0.9937558 0.10153673 0.046257835
vn -0.9937558 0.10153673 0.046257835
vn 0.9675413 -0.1516837 0.20212844
vn 0.9675413 -0.1516837 0.20212844
vn 0.9675413 -0.1516837 0.20212844
vn 0.9675413 -0.1516837 0.20212844
vn -0.96754104 0.15168422 -0.20212924
vn -0.93505454 0.17118739 -0.3104319
vn -0.96754104 0.15168422 -0.20212924
vn -0.93505454 0.17118739 -0.31043196
vn -0.8902577 0.18843684 -0.41464776
vn -0.8902577 0.18843684 -0.41464776
vn -0.7766064 0.21372865 -0.5926235
vn -0.7766064 0.21372865 -0.5926235
vn -0.7766064 0.21372865 -0.5926235
vn -0.7766064 0.21372865 -0.5926235
vn 0.9256593 -0.023083864 -0.37765315
vn 0.9256593 -0.023083864 -0.37765315
vn 0.9256593 -0.023083864 -0.37765315
vn 0.9256593 -0.023083864 -0.37765315
vn 0.476203 0.13238476 -0.86931294
vn 0.476203 0.13238476 -0.86931294
vn 0.476203 0.13238476 -0.86931294
vn 0.476203 0.13238476 -0.86931294
vn -0.19607411 0.22591092 -0.9542113
vn -0.19607411 0.22591092 -0.9542113
vn -0.19607411 0.22591092 -0.9542113
vn -0.19607411 0.22591092 -0.9542113
vn -0.8526087 -0.016024144 0.5223042
vn -0.8526087 -0.016024144 0.5223042
vn -0.8526087 -0.016024144 0.5223042
vn -0.8526087 -0.016024144 0.5223042
vn -0.3174505 -0.16400978 0.93398386
vn -0.3174505 -0.16400978 0.93398386
vn -0.3174505 -0.16400978 0.93398386
vn -0.3174505 -0.16400978 0.93398386
vn -0.90818787 0.18234682 -0.37675524
vn -0.90818787 0.18234682 -0.37675524
vn -0.90818787 0.18234682 -0.37675524
vn -0.90818787 0.18234682 -0.37675524
vn 0.10899906 0.972091 0.20774575
vn 0.10899906 0.972091 0.20774573
vn 0.10899933 0.9720909 0.20774612
vn 0.108996846 0.97209126 0.20774555
vn 0.10899662 0.9720914 0.20774555
vn 0.10898949 0.97209215 0.2077454
vn 0.108997665 0.972091 0.20774627
vn 0.108997665 0.972091 0.20774627
vn 0.10899056 0.97209036 0.20775302
vn 0.10899894 0.9720889 0.20775539
vn 0.10899056 0.97209036 0.20775302
vn 0.10899894 0.9720889 0.20775539
vn 0.10899056 0.97209036 0.20775302
vn 0.10899894 0.9720889 0.20775539
vn 0.10899056 0.97209036 0.20775302
vn 0.10899894 0.9720889 0.20775539
vn 0.03418814 -0.2125329 0.97655565
vn 0.38145822 -0.23389286 0.89430624
vn 0.38145822 -0.23389286 0.89430624
vn 0.034188513 -0.21253292 0.97655565
vn -0.6285144 -0.09451882 0.7720336
vn -0.62851506 -0.09451865 0.77203315
vn -0.8592433 -0.012948748 0.51140326
vn -0.8592433 -0.012948748 0.51140326
vn -0.37330604 0.23372442 -0.8977837
vn -0.37330604 0.23372442 -0.8977837
vn -0.029785527 0.21209297 -0.97679543
vn -0.029784609 0.21209285 -0.97679543
vn 0.6250948 0.095470384 -0.77468824
vn 0.6250956 0.09547018 -0.7746877
vn 0.8547792 0.0150239635 -0.5187745
vn 0.8547792 0.0150239635 -0.5187745
vn 0.3693772 -0.23363632 0.89943016
vn 0.3693772 -0.23363632 0.89943016
vn 0.3693772 -0.23363632 0.89943016
vn 0.3693772 -0.23363632 0.89943016
vn 0.3174501 0.16400708 -0.9339845
vn 0.31745285 0.16400804 -0.93398345
vn 0.3174501 0.16400708 -0.9339845
vn 0.3174501 0.16400708 -0.9339845
vn 0.3174501 0.16400708 -0.9339845
vn 0.3174512 0.16400424 -0.9339847
vn 0.57524985 0.108757496 -0.81071544
vn 0.33783874 0.16032472 -0.92744863
vn 0.15054642 0.19043747 -0.97008735
vn 0.7449155 0.058504622 -0.66458863
vn 0.38773304 0.15086097 -0.9093426
vn 0.1505469 0.19043763 -0.9700871
vn 0.56394756 0.11163118 -0.8182308
vn 0.7449157 0.058504768 -0.6645883
vn -0.99027646 0.1243602 -0.062345494
vn -0.97739136 0.06671319 0.2006376
vn -0.92385733 0.021928497 0.38210815
vn -0.94449407 0.1664362 -0.28324893
vn -0.98573536 0.07873818 0.14874808
vn -0.9238572 0.02192832 0.3821084
vn -0.9913804 0.121588685 -0.0487965
vn -0.94449395 0.16643655 -0.28324896
vn 0.41826198 -0.23444046 0.8775503
vn 0.64391005 -0.22826323 0.7302573
vn 0.77828354 -0.21346574 0.5905143
vn 0.20167118 -0.22627062 0.95295876
vn 0.60215884 -0.2308512 0.7642724
vn 0.77828276 -0.21346545 0.5905154
vn 0.4307327 -0.23453832 0.87147063
vn 0.20167142 -0.2262692 0.95295906
vn 0.17884448 -0.95862025 0.22149919
vn 0.17884423 -0.95862025 0.2214992
vn 0.17884423 -0.95862025 0.2214992
vn 0.17884448 -0.95862025 0.2214992
vn 0.17884457 -0.9586202 0.2214993
vn 0.17884457 -0.9586202 0.22149928
vn 0.17884462 -0.9586202 0.22149937
vn 0.1788446 -0.9586202 0.22149937
vn 0.1788449 -0.9586202 0.22149928
vn -0.1788444 0.9586202 -0.22149955
vn -0.1788444 0.9586202 -0.22149955
vn -0.1788445 0.9586202 -0.22149928
vn -0.17884447 0.9586202 -0.22149928
vn -0.17884454 0.95862025 -0.22149919
vn -0.17884454 0.95862025 -0.2214992
vn -0.17884457 0.95862025 -0.22149917
vn -0.17884457 0.95862025 -0.22149919
vn -0.1788447 0.95862025 -0.22149897
vn 0.8763038 0.052845005 -0.4788518
vn 0.8763038 0.052845005 -0.4788518
vn 0.8763038 0.052845005 -0.4788518
vn 0.8763038 0.052845005 -0.4788518
vn 0.59270424 0.28466803 0.7534359
vn 0.59270424 0.28466803 0.7534359
vn 0.59270424 0.28466803 0.7534359
vn 0.59270424 0.28466803 0.7534359
vn -0.050751206 0.21584032 0.97510886
vn -0.050751206 0.21584032 0.97510886
vn -0.050751206 0.21584032 0.97510886
vn -0.050751206 0.21584032 0.97510886
vn 0.95882726 0.22029522 0.1792216
vn 0.95882726 0.22029522 0.1792216
vn 0.95882726 0.22029522 0.1792216
vn 0.95882726 0.22029522 0.1792216
vn 0.80757177 0.014433676 -0.58959275
vn 0.86663276 0.04690742 -0.4967368
vn 0.80757177 0.014433676 -0.58959275
vn 0.8666328 0.046907473 -0.49673662
vn 0.91428465 0.0787637 -0.39734107
vn 0.91428465 0.0787637 -0.39734107
vn -0.6704606 0.046019893 0.74051666
vn -0.6704606 0.046019893 0.74051666
vn -0.6704606 0.046019893 0.74051666
vn -0.6704606 0.046019893 0.74051666
vn 0.8306481 0.026461065 -0.55616856
vn 0.8306481 0.026461065 -0.55616856
vn 0.8306481 0.026461065 -0.55616856
vn 0.8306481 0.026461065 -0.55616856
vn -0.83064884 -0.026458813 0.5561677
vn -0.8855823 -0.058754705 0.46075147
vn -0.83064884 -0.026458813 0.5561677
vn -0.8855823 -0.058754776 0.46075127
vn -0.9288572 -0.090277165 0.3592693
vn -0.9288572 -0.090277165 0.3592693
vn -0.9764534 -0.14533149 0.15942846
vn -0.9764534 -0.14533149 0.15942846
vn -0.9764534 -0.14533149 0.15942846
vn -0.9764534 -0.14533149 0.15942846
vn 0.38374922 -0.13933378 -0.91286516
vn 0.38374922 -0.13933378 -0.91286516
vn 0.38374922 -0.13933378 -0.91286516
vn 0.38374922 -0.13933378 -0.91286516
vn -0.2883654 -0.26631632 -0.91973966
vn -0.2883654 -0.26631632 -0.91973966
vn -0.2883654 -0.26631632 -0.91973966
vn -0.2883654 -0.26631632 -0.91973966
vn -0.82555205 -0.26868528 -0.4962579
vn -0.82555205 -0.26868528 -0.4962579
vn -0.82555205 -0.26868528 -0.4962579
vn -0.82555205 -0.26868528 -0.4962579
vn -0.22791848 0.1786387 0.9571527
vn -0.22791848 0.1786387 0.9571527
vn -0.22791848 0.1786387 0.9571527
vn -0.22791848 0.1786387 0.9571527
vn 0.44733277 0.27973625 0.8494945
vn 0.44733277 0.27973625 0.8494945
vn 0.44733277 0.27973625 0.8494945
vn 0.44733277 0.27973625 0.8494945
vn -0.91428524 -0.07876377 0.3973397
vn -0.91428524 -0.07876377 0.3973397
vn -0.91428524 -0.07876377 0.3973397
vn -0.91428524 -0.07876377 0.3973397
vn -0.17884542 0.9586196 -0.22150084
vn -0.1788455 0.9586196 -0.22150081
vn -0.17884305 0.95861995 -0.22150168
vn -0.17884679 0.9586196 -0.22149998
vn -0.17884687 0.9586196 -0.22149993
vn -0.17884882 0.9586197 -0.22149798
vn -0.17884532 0.9586201 -0.2214991
vn -0.17884532 0.9586201 -0.2214991
vn -0.17884293 0.9586227 -0.2214899
vn -0.17883933 0.9586226 -0.22149329
vn -0.17884293 0.9586227 -0.2214899
vn -0.17883933 0.9586226 -0.22149329
vn -0.17884293 0.9586227 -0.2214899
vn -0.17883933 0.9586226 -0.22149329
vn -0.17884293 0.9586227 -0.2214899
vn -0.17883933 0.9586226 -0.22149329
vn 0.7269895 0.28045118 0.62676424
vn 0.9137262 0.24531493 0.3239213
vn 0.9137262 0.24531493 0.3239213
vn 0.7269903 0.2804511 0.6267632
vn 0.11049618 0.24327448 0.96364313
vn 0.11049591 0.24327442 0.96364313
vn -0.2404624 0.17571361 0.9546217
vn -0.2404624 0.17571361 0.9546217
vn -0.91045505 -0.24658495 -0.3320653
vn -0.91045505 -0.24658495 -0.3320653
vn -0.72404367 -0.28066465 -0.63007
vn -0.7240434 -0.28066465 -0.6300702
vn -0.11482952 -0.24392895 -0.9629708
vn -0.11482859 -0.2439288 -0.96297103
vn 0.23199458 -0.17769505 -0.95634884
vn 0.23199458 -0.17769505 -0.95634884
vn 0.90885854 0.24718942 0.33596665
vn 0.90885854 0.24718942 0.33596665
vn 0.90885854 0.24718942 0.33596665
vn 0.90885854 0.24718942 0.33596665
vn -0.4473324 -0.2797416 -0.84949297
vn -0.4473325 -0.27974248 -0.8494927
vn -0.4473324 -0.2797416 -0.84949297
vn -0.4473324 -0.2797416 -0.84949297
vn -0.4473324 -0.2797416 -0.84949297
vn -0.4473315 -0.2797413 -0.8494937
vn -0.17605513 -0.2526766 -0.9513985
vn -0.42819032 -0.2785273 -0.859695
vn -0.5915106 -0.28466192 -0.75437576
vn 0.049257714 -0.21612291 -0.9751228
vn -0.37982637 -0.27494726 -0.883253
vn -0.59150994 -0.28466168 -0.7543763
vn -0.18946788 -0.2544719 -0.9483385
vn 0.04925747 -0.21612284 -0.9751228
vn -0.74615395 0.014590937 0.6656136
vn -0.5477727 0.08999514 0.83177286
vn -0.37926576 0.14055896 0.91454935
vn -0.8727051 -0.050609067 0.4856176
vn -0.59102446 0.07530748 0.8031306
vn -0.37926614 0.1405586 0.9145493
vn -0.7371853 0.018534495 0.6754364
vn -0.87270546 -0.0506085 0.48561713
vn 0.9277308 0.2392731 0.28646785
vn 0.981529 0.18938279 0.02711006
vn 0.9761229 0.14467087 -0.16203222
vn 0.82861483 0.26813915 0.4914254
vn 0.976441 0.2005633 0.07960667
vn 0.9761229 0.14467077 -0.16203229
vn 0.9321868 0.23711014 0.2735079
vn 0.82861495 0.2681392 0.49142498
vn -0.07548794 -0.98938435 0.12417756
vn -0.075487845 -0.9893845 0.12417743
vn -0.075487845 -0.9893845 0.12417743
vn -0.075487934 -0.98938435 0.12417756
vn -0.07548795 -0.9893845 0.12417743
vn -0.07548796 -0.9893845 0.12417745
vn -0.07548792 -0.9893845 0.124177285
vn -0.07548791 -0.9893845 0.124177285
vn -0.07548795 -0.98938435 0.12417801
vn 0.075487666 0.9893845 -0.1241768
vn 0.075487666 0.9893845 -0.1241768
vn 0.07548769 0.9893845 -0.12417746
vn 0.07548768 0.9893845 -0.12417746
vn 0.07548766 0.98938435 -0.124177694
vn 0.075487666 0.98938435 -0.124177694
vn 0.075487524 0.9893845 -0.12417742
vn 0.07548751 0.9893845 -0.12417742
vn 0.07548693 0.9893847 -0.12417572
vn -0.16070864 0.13497718 0.9777289
vn -0.16070864 0.13497718 0.9777289
vn -0.16070864 0.13497718 0.9777289
vn -0.16070864 0.13497718 0.9777289
vn -0.99706703 0.076468185 0.0031593838
vn -0.99706703 0.076468185 0.0031593838
vn -0.99706703 0.076468185 0.0031593838
vn -0.99706703 0.076468185 0.0031593838
vn -0.7719107 -0.020856649 -0.6353887
vn -0.7719107 -0.020856649 -0.6353887
vn -0.7719107 -0.020856649 -0.6353887
vn -0.7719107 -0.020856649 -0.6353887
vn -0.7556834 0.13801236 0.6402306
vn -0.7556834 0.13801236 0.6402306
vn -0.7556834 0.13801236 0.6402306
vn -0.7556834 0.13801236 0.6402306
vn -0.025814788 0.1264328 0.9916392
vn -0.13982913 0.13380896 0.98109275
vn -0.025814788 0.1264328 0.9916392
vn -0.13982868 0.13380893 0.98109275
vn -0.25200236 0.13942352 0.95763046
vn -0.25200236 0.13942352 0.95763046
vn -0.1855685 -0.108418524 -0.9766318
vn -0.1855685 -0.108418524 -0.9766318
vn -0.1855685 -0.108418524 -0.9766318
vn -0.1855685 -0.108418524 -0.9766318
vn -0.06800598 0.12935308 0.98926395
vn -0.06800598 0.12935308 0.98926395
vn -0.06800598 0.12935308 0.98926395
vn -0.06800598 0.12935308 0.98926395
vn 0.06800658 -0.12934968 -0.9892643
vn 0.18151651 -0.13608581 -0.97392625
vn 0.06800658 -0.12934968 -0.9892643
vn 0.18151663 -0.13608584 -0.97392625
vn 0.2926369 -0.14103039 -0.94576645
vn 0.2926369 -0.14103039 -0.94576645
vn 0.48760265 -0.14525224 -0.86089796
vn 0.48760265 -0.14525224 -0.86089796
vn 0.48760265 -0.14525224 -0.86089796
vn 0.48760265 -0.14525224 -0.86089796
vn 0.5094636 0.068777785 0.85773915
vn 0.5094636 0.068777785 0.85773915
vn 0.5094636 0.068777785 0.85773915
vn 0.5094636 0.068777785 0.85773915
vn 0.9412528 -0.029597593 0.33640304
vn 0.9412528 -0.029597593 0.33640304
vn 0.9412528 -0.029597593 0.33640304
vn 0.9412528 -0.029597593 0.33640304
vn 0.93261945 -0.11412368 -0.34234005
vn 0.93261945 -0.11412368 -0.34234005
vn 0.93261945 -0.11412368 -0.34234005
vn 0.93261945 -0.11412368 -0.34234005
vn -0.64477897 -0.04656407 -0.7629494
vn -0.64477897 -0.04656407 -0.7629494
vn -0.64477897 -0.04656407 -0.7629494
vn -0.64477897 -0.04656407 -0.7629494
vn -0.9841107 0.05384686 -0.16919392
vn -0.9841107 0.05384686 -0.16919392
vn -0.9841107 0.05384686 -0.16919392
vn -0.9841107 0.05384686 -0.16919392
vn 0.2520034 -0.13941795 -0.9576309
vn 0.2520034 -0.13941795 -0.9576309
vn 0.2520034 -0.13941795 -0.9576309
vn 0.2520034 -0.13941795 -0.9576309
vn 0.07548957 0.98938435 -0.12417683
vn 0.07548962 0.98938435 -0.12417691
vn 0.07548837 0.98938483 -0.124174215
vn 0.07548992 0.9893841 -0.12417808
vn 0.07548993 0.9893841 -0.124178156
vn 0.07548978 0.989384 -0.12417951
vn 0.075486794 0.9893846 -0.12417721
vn 0.075486794 0.9893846 -0.12417721
vn 0.0754688 0.98938483 -0.12418607
vn 0.07546593 0.98938704 -0.12417034
vn 0.0754688 0.98938483 -0.12418607
vn 0.07546593 0.98938704 -0.12417034
vn 0.0754688 0.98938483 -0.12418607
vn 0.07546593 0.98938704 -0.12417034
vn 0.0754688 0.98938483 -0.12418607
vn 0.07546593 0.98938704 -0.12417034
vn -0.97774816 0.097887725 0.18554388
vn -0.8464113 0.12941371 0.51656556
vn -0.8464113 0.12941371 0.51656556
vn -0.9777479 0.09788779 0.18554458
vn -0.8646869 0.0029276588 -0.50230265
vn -0.8646867 0.002927606 -0.50230294
vn -0.6347409 -0.04836892 -0.7712097
vn -0.6347409 -0.04836892 -0.7712097
vn 0.85105187 -0.12882352 -0.5090336
vn 0.85105187 -0.12882352 -0.5090336
vn 0.9786059 -0.09741208 -0.18122162
vn 0.97860605 -0.097412065 -0.1812214
vn 0.8668805 -0.003575898 0.49850318
vn 0.8668796 -0.0035756207 0.49850485
vn 0.64153427 0.047146127 0.76564425
vn 0.64153427 0.047146127 0.76564425
vn -0.85325676 0.12853219 0.5054032
vn -0.85325676 0.12853219 0.5054032
vn -0.85325676 0.12853219 0.5054032
vn -0.85325676 0.12853219 0.5054032
vn 0.98411083 -0.05385199 0.16919184
vn 0.98411095 -0.0538529 0.16919091
vn 0.98411083 -0.05385199 0.16919184
vn 0.98411083 -0.05385199 0.16919184
vn 0.98411083 -0.05385199 0.16919184
vn 0.98411083 -0.05385204 0.16919138
vn 0.8961541 -0.012703358 0.44356117
vn 0.98038745 -0.05090535 0.1903919
vn 0.9970849 -0.07628247 -0.0016508886
vn 0.7728696 0.020633886 0.6342294
vn 0.96915096 -0.043495744 0.24259959
vn 0.9970848 -0.07628298 -0.0016504453
vn 0.90213436 -0.014710982 0.43120438
vn 0.7728696 0.020633226 0.63422936
vn -0.075812966 -0.11847778 -0.99005824
vn -0.33860284 -0.0916992 -0.9364505
vn -0.51369447 -0.0681501 -0.8552622
vn 0.15284702 -0.13454214 -0.9790486
vn -0.28756267 -0.097642094 -0.9527716
vn -0.5136943 -0.06815037 -0.85526234
vn -0.08960002 -0.11729947 -0.9890463
vn 0.15284653 -0.13454296 -0.9790486
vn -0.8244052 0.13198048 0.5503974
vn -0.64464366 0.14343105 0.7509075
vn -0.4852472 0.1452414 0.8622297
vn -0.93057615 0.114638835 0.3476864
vn -0.68470716 0.14196363 0.71485835
vn -0.48524705 0.14524193 0.8622297
vn -0.81654334 0.13281229 0.56179875
vn -0.93057615 0.11463942 0.3476864
vn -0.17294155 -0.07490679 0.9820795
vn -0.7556844 0.13801242 0.6402294
vn -0.7547622 -0.07193823 0.6520421
vn -0.99080783 -0.13211925 0.029057113
vn -0.16070817 0.13497707 0.977729
vn -0.9970668 0.07647076 0.0031587838
vn 0.5094641 0.068784945 0.85773826
vn -0.7706295 -0.2272905 -0.59537315
vn 0.482414 -0.13963604 0.8647419
vn -0.7719107 -0.020851647 -0.63538885
vn 0.94125324 -0.029593442 0.33640257
vn -0.19725214 -0.31291953 -0.929071
vn 0.9046563 -0.23583901 0.35493234
vn -0.18556862 -0.10841553 -0.9766322
vn 0.93261933 -0.11412376 -0.34234023
vn 0.46103624 -0.34894067 -0.8158958
vn 0.89621353 -0.31850007 -0.30880275
vn 0.4876022 -0.14525151 -0.86089844
vn 0.89432895 -0.14879046 -0.42194438
vn 0.958827 0.22029492 0.17922257
vn 0.9750275 0.014958135 0.22157985
vn 0.6169992 0.07790766 0.78309786
vn 0.87630415 0.05284379 -0.4788514
vn 0.5927038 0.28466845 0.75343615
vn 0.38374886 -0.13933268 -0.91286534
vn -0.012229795 0.010603005 0.999869
vn 0.41266346 -0.33671826 -0.8463626
vn -0.050752416 0.21584234 0.9751084
vn -0.28836748 -0.26631385 -0.91973966
vn -0.6182367 -0.15546274 0.77046394
vn -0.24459171 -0.46089214 -0.8530845
vn -0.67045987 0.04602192 0.740517
vn -0.82555306 -0.26868287 -0.49625763
vn -0.9174642 -0.34258553 0.20222418
vn -0.7699002 -0.46320927 -0.43896565
vn -0.9764532 -0.14533201 0.15942934
vn 0.89836884 -0.3673254 0.2408432
vn 0.5175524 -0.23392679 0.82305396
vn 0.48331627 -0.43203777 0.7614123
vn -0.16855167 -0.38971236 0.90538096
vn 0.94198966 -0.16775286 0.29071397
vn -0.14905335 -0.19064353 0.9702773
vn 0.9256594 -0.023083774 -0.37765315
vn -0.7522169 -0.26015574 0.6053832
vn 0.8823999 -0.22585554 -0.41274664
vn -0.74591535 -0.058158595 0.6634966
vn 0.4762027 0.13238585 -0.86931294
vn -0.99457693 -0.10398758 0.0017926109
vn 0.44288066 -0.07382394 -0.8935361
vn -0.99375534 0.10154002 0.046258964
vn -0.19607446 0.22590993 -0.9542114
vn -0.7822291 0.0057197167 -0.62296456
vn -0.214533 0.01763244 -0.97655755
vn -0.77660626 0.2137279 -0.592624
vn -0.9758055 0.21814133 -0.0147555405
vn -0.7556844 0.138013 0.64022934
vn -0.7369388 0.27904192 0.6156759
vn -0.14816356 0.27603754 0.9496583
vn -0.9970668 0.0764714 0.0031588653
vn -0.16070844 0.13497649 0.977729
vn -0.7529957 0.12183207 -0.6466485
vn 0.50946486 0.068784475 0.8577379
vn -0.77191 -0.020852795 -0.6353896
vn 0.515025 0.21053496 0.8309177
vn -0.17276469 0.035179105 -0.98433477
vn 0.9412535 -0.029591983 0.33640197
vn -0.18556869 -0.1084188 -0.9766318
vn 0.94231385 0.113183066 0.3150144
vn 0.49339136 -0.0012718695 -0.8698064
vn 0.93261975 -0.11412176 -0.3423398
vn 0.48760253 -0.14525302 -0.86089796
vn 0.9337695 0.029534029 -0.35665432
vn 0.560774 0.41973776 0.71368945
vn 0.95882714 0.22029492 0.17922242
vn 0.92308146 0.3560365 0.14545956
vn 0.84141845 0.19033095 -0.5057559
vn 0.5927041 0.2846666 0.7534366
vn 0.87630415 0.052844312 -0.4788514
vn -0.07597533 0.35162866 0.9330514
vn 0.3837487 -0.139333 -0.91286534
vn -0.050751846 0.2158403 0.97510886
vn 0.353996 0.00015665047 -0.935247
vn -0.6892254 0.18357836 0.70090467
vn -0.28836766 -0.26631457 -0.9197395
vn -0.67046 0.04602016 0.740517
vn -0.3111153 -0.12550135 -0.9420492
vn -0.99202955 -0.0057813143 0.12587218
vn -0.8255529 -0.26868445 -0.4962572
vn -0.976453 -0.14533363 0.15942924
vn -0.84270215 -0.12784642 -0.52298033
vn -0.13180538 -0.048681825 0.9900795
vn 0.5175521 -0.23392946 0.8230534
vn 0.52785385 -0.09151274 0.8443908
vn 0.9478677 -0.026026294 0.3175996
vn -0.14905325 -0.1906466 0.9702767
vn 0.9419893 -0.16775344 0.2907145
vn -0.7224465 0.08242478 0.6864963
vn 0.9256591 -0.023085508 -0.37765372
vn -0.7459154 -0.058158044 0.6634967
vn 0.9317076 0.117134206 -0.34380296
vn -0.96770334 0.24045993 0.07569209
vn 0.4762025 0.13238515 -0.8693131
vn -0.9937552 0.10154103 0.046258602
vn 0.48693478 0.27098393 -0.8303386
vn -0.75281715 0.351479 -0.5565328
vn -0.19607426 0.22591136 -0.9542112
vn -0.7766064 0.21372943 -0.5926232
vn -0.17833595 0.36353406 -0.9143519
vn 0.07548863 0.9893841 -0.124178946
vn 0.0754884 0.9893845 -0.124177136
vn 0.0754884 0.9893845 -0.124177136
vn 0.07548863 0.9893841 -0.124178946
vn 0.07548779 0.98938435 -0.12417796
vn 0.07548863 0.9893841 -0.124178946
vn 0.07548779 0.98938435 -0.12417796
vn 0.07548863 0.9893841 -0.124178946
vn 0.0754891 0.9893841 -0.124179006
vn 0.07548665 0.9893845 -0.12417804
vn 0.0754891 0.9893841 -0.124179006
vn 0.07548665 0.9893845 -0.12417804
vn 0.0754858 0.9893847 -0.12417658
vn 0.07548665 0.9893845 -0.12417804
vn 0.0754858 0.9893847 -0.12417658
vn 0.07548665 0.9893845 -0.12417804
vn 0.0754858 0.9893847 -0.12417658
vn 0.0754858 0.9893847 -0.12417658
vn 0.49333462 -0.009779106 -0.8697846
vn 0.49339136 -0.0012718695 -0.8698064
vn -0.17276469 0.035179105 -0.98433477
vn -0.17362136 0.026716452 -0.98445004
vn -0.7529957 0.12183207 -0.6466485
vn 0.93424296 0.02106355 -0.3560146
vn 0.9337695 0.029534029 -0.35665432
vn -0.7545497 0.113473535 -0.64635795
vn -0.9758055 0.21814133 -0.0147555405
vn 0.46404216 -0.33248433 -0.82104754
vn 0.94279724 0.10481321 0.31646112
vn 0.94231385 0.113183066 0.3150144
vn -0.9776273 0.20989795 -0.013705455
vn -0.7369388 0.27904192 0.6156759
vn 0.900782 -0.30193302 -0.3121348
vn 0.51499474 0.20228237 0.8329839
vn 0.515025 0.21053496 0.8309177
vn -0.73847365 0.27087164 0.6174829
vn -0.14816356 0.27603754 0.9496583
vn -0.14899091 0.267864 0.9518669
vn 0.9092553 -0.21897526 0.35398367
vn -0.75612134 -0.054486316 0.65215933
vn -0.9930137 -0.11488332 0.026938288
vn 0.4854974 -0.12242761 0.8656233
vn -0.7720451 -0.21039636 -0.5997331
vn -0.17221144 -0.057465766 0.9833824
vn -0.19660892 -0.29633385 -0.93462896
vn 0.89621353 -0.31850007 -0.30880275
vn 0.46103624 -0.34894067 -0.8158958
vn 0.9046563 -0.23583901 0.35493234
vn -0.19725214 -0.31291953 -0.929071
vn 0.482414 -0.13963604 0.8647419
vn -0.7706295 -0.2272905 -0.59537315
vn -0.17294155 -0.07490679 0.9820795
vn -0.7547622 -0.07193823 0.6520421
vn -0.99080783 -0.13211925 0.029057113
vn -0.17884643 0.9586197 -0.2214995
vn -0.17884414 0.95862037 -0.22149904
vn -0.17884414 0.95862037 -0.22149904
vn -0.17884643 0.9586197 -0.2214995
vn -0.17884372 0.95862037 -0.2214994
vn -0.17884643 0.9586197 -0.2214995
vn -0.17884372 0.95862037 -0.2214994
vn -0.17884643 0.9586197 -0.2214995
vn -0.17884293 0.9586206 -0.22149882
vn -0.17884447 0.9586201 -0.22150005
vn -0.17884293 0.9586206 -0.22149882
vn -0.17884447 0.9586201 -0.22150005
vn -0.17884451 0.95861995 -0.22150017
vn -0.17884447 0.9586201 -0.22150005
vn -0.17884451 0.95861995 -0.22150017
vn -0.17884447 0.9586201 -0.22150005
vn -0.17884451 0.95861995 -0.22150017
vn -0.17884451 0.95861995 -0.22150017
vn -0.9916842 -0.014028937 0.1279279
vn -0.99202955 -0.0057813143 0.12587218
vn -0.6892254 0.18357836 0.70090467
vn -0.68851644 0.17555809 0.7036508
vn -0.07597533 0.35162866 0.9330514
vn -0.8421772 -0.13624069 -0.521705
vn -0.84270215 -0.12784642 -0.52298033
vn -0.07452943 0.3438107 0.93607664
vn 0.560774 0.41973776 0.71368945
vn -0.9239591 -0.32665646 0.19898537
vn -0.30995136 -0.13389282 -0.9412772
vn -0.3111153 -0.12550135 -0.9420492
vn 0.56298536 0.4120017 0.71645105
vn 0.92308146 0.3560365 0.14545956
vn -0.77586555 -0.44771314 -0.44450605
vn 0.35595897 -0.008083926 -0.93446666
vn 0.353996 0.00015665047 -0.935247
vn 0.92572814 0.34822354 0.14753899
vn 0.84141845 0.19033095 -0.5057559
vn 0.8439671 0.18231869 -0.5044596
vn -0.24867113 -0.4453873 -0.86011213
vn 0.9753264 0.03217135 0.21841076
vn 0.6160131 0.09534645 0.78194433
vn 0.4109439 -0.32076755 -0.8533659
vn -0.015474685 0.027799983 0.9994937
vn 0.8943383 -0.13216497 -0.42742407
vn -0.6236573 -0.13886192 0.7692653
vn -0.7699002 -0.46320927 -0.43896565
vn -0.9174642 -0.34258553 0.20222418
vn -0.24459171 -0.46089214 -0.8530845
vn -0.6182367 -0.15546274 0.77046394
vn 0.41266346 -0.33671826 -0.8463626
vn -0.012229795 0.010603005 0.999869
vn 0.89432895 -0.14879046 -0.42194438
vn 0.9750275 0.014958135 0.22157985
vn 0.6169992 0.07790766 0.78309786
vn 0.10899641 0.97209126 0.20774606
vn 0.1089968 0.97209066 0.20774832
vn 0.1089968 0.97209066 0.20774832
vn 0.10899641 0.97209126 0.20774606
vn 0.108998634 0.972091 0.2077458
vn 0.10899641 0.97209126 0.20774606
vn 0.108998634 0.972091 0.2077458
vn 0.10899641 0.97209126 0.20774606
vn 0.10899665 0.97209126 0.20774561
vn 0.10900031 0.972091 0.20774503
vn 0.10899665 0.97209126 0.20774561
vn 0.10900031 0.972091 0.20774503
vn 0.108996995 0.972091 0.20774694
vn 0.10900031 0.972091 0.20774503
vn 0.108996995 0.972091 0.20774694
vn 0.10900031 0.972091 0.20774503
vn 0.108996995 0.972091 0.20774694
vn 0.108996995 0.972091 0.20774694
vn -0.75465906 0.34354427 -0.55898756
vn -0.75281715 0.351479 -0.5565328
vn -0.96770334 0.24045993 0.07569209
vn -0.9698033 0.23239224 0.07399656
vn -0.7224465 0.08242478 0.6864963
vn -0.17948717 0.35561395 -0.9172366
vn -0.17833595 0.36353406 -0.9143519
vn -0.7242515 0.07416674 0.6855356
vn -0.13180538 -0.048681825 0.9900795
vn -0.7830862 0.023141302 -0.6214825
vn 0.4865831 0.2629536 -0.833122
vn 0.48693478 0.27098393 -0.8303386
vn -0.13290021 -0.057096384 0.9894834
vn 0.52785385 -0.09151274 0.8443908
vn -0.21335205 0.035096724 -0.97634476
vn 0.9318902 0.10891992 -0.34600148
vn 0.9317076 0.117134206 -0.34380296
vn 0.52755105 -0.099977806 0.84361976
vn 0.9478677 -0.026026294 0.3175996
vn 0.9480697 -0.034412947 0.31619543
vn 0.44642168 -0.05668773 -0.8930253
vn 0.48700207 -0.41618785 0.767865
vn -0.16720551 -0.3737116 0.91234964
vn 0.88751894 -0.2092649 -0.41050968
vn -0.75296617 -0.24368924 0.6112753
vn 0.90354544 -0.35124263 0.24542667
vn -0.9961966 -0.08695987 0.005517392
vn -0.214533 0.01763244 -0.97655755
vn -0.7822291 0.0057197167 -0.62296456
vn 0.44288066 -0.07382394 -0.8935361
vn -0.99457693 -0.10398758 0.0017926109
vn 0.8823999 -0.22585554 -0.41274664
vn -0.7522169 -0.26015574 0.6053832
vn 0.89836884 -0.3673254 0.2408432
vn 0.48331627 -0.43203777 0.7614123
vn -0.16855167 -0.38971236 0.90538096
g energyDrinks_0
f 3/3/3 2/2/2 1/1/1
f 2/2/2 4/4/4 1/1/1
f 1/1/1 4/4/4 5/5/5
f 4/4/4 6/6/6 5/5/5
f 5/5/5 6/6/6 7/7/7
f 6/6/6 8/8/8 7/7/7
f 7/7/7 8/8/8 9/9/9
f 12/12/12 11/11/11 10/10/10
f 13/13/13 12/12/12 10/10/10
f 12/12/12 13/13/13 14/14/14
f 13/13/13 15/15/15 14/14/14
f 15/15/15 16/16/16 14/14/14
f 16/16/16 17/17/17 14/14/14
f 17/17/17 16/16/16 18/18/18
f 21/21/21 20/20/20 19/19/19
f 22/22/22 21/21/21 19/19/19
f 25/25/25 24/24/24 23/23/23
f 26/26/26 25/25/25 23/23/23
f 29/29/29 28/28/28 27/27/27
f 30/30/30 29/29/29 27/27/27
f 33/33/33 32/32/32 31/31/31
f 34/34/34 33/33/33 31/31/31
f 37/37/37 36/36/36 35/35/35
f 36/36/36 38/38/38 35/35/35
f 36/36/36 39/39/39 38/38/38
f 39/39/39 40/40/40 38/38/38
f 43/43/43 42/42/42 41/41/41
f 44/44/44 43/43/43 41/41/41
f 47/47/47 46/46/46 45/45/45
f 48/48/48 47/47/47 45/45/45
f 51/51/51 50/50/50 49/49/49
f 50/50/50 52/52/52 49/49/49
f 50/50/50 53/53/53 52/52/52
f 53/53/53 54/54/54 52/52/52
f 57/57/57 56/56/56 55/55/55
f 58/58/58 57/57/57 55/55/55
f 61/61/61 60/60/60 59/59/59
f 62/62/62 61/61/61 59/59/59
f 65/65/65 64/64/64 63/63/63
f 66/66/66 65/65/65 63/63/63
f 69/69/69 68/68/68 67/67/67
f 70/70/70 69/69/69 67/67/67
f 73/73/73 72/72/72 71/71/71
f 74/74/74 73/73/73 71/71/71
f 77/77/77 76/76/76 75/75/75
f 78/78/78 77/77/77 75/75/75
f 81/81/81 80/80/80 79/79/79
f 82/82/82 81/81/81 79/79/79
f 85/85/85 84/84/84 83/83/83
f 83/83/83 84/84/84 86/86/86
f 87/87/87 83/83/83 86/86/86
f 88/88/88 87/87/87 86/86/86
f 86/86/86 84/84/84 89/89/89
f 90/90/90 86/86/86 89/89/89
f 89/89/89 84/84/84 91/91/91
f 86/86/86 90/90/90 92/92/92
f 93/93/93 91/91/91 84/84/84
f 94/94/94 92/92/92 90/90/90
f 91/91/91 93/93/93 95/95/95
f 96/96/96 92/92/92 94/94/94
f 93/93/93 97/97/97 95/95/95
f 98/98/98 96/96/96 94/94/94
f 95/95/95 97/97/97 98/98/98
f 97/97/97 96/96/96 98/98/98
f 101/101/101 100/100/100 99/99/99
f 102/102/102 101/101/101 99/99/99
f 102/102/102 99/99/99 103/103/103
f 104/104/104 102/102/102 103/103/103
f 104/104/104 103/103/103 105/105/105
f 103/103/103 106/106/106 105/105/105
f 109/109/109 108/108/108 107/107/107
f 110/110/110 109/109/109 107/107/107
f 109/109/109 110/110/110 111/111/111
f 112/112/112 109/109/109 111/111/111
f 111/111/111 113/113/113 112/112/112
f 113/113/113 114/114/114 112/112/112
f 117/117/117 116/116/116 115/115/115
f 118/118/118 117/117/117 115/115/115
f 121/121/121 120/120/120 119/119/119
f 121/121/121 119/119/119 122/122/122
f 119/119/119 123/123/123 122/122/122
f 124/124/124 122/122/122 123/123/123
f 127/127/127 126/126/126 125/125/125
f 128/128/128 125/125/125 126/126/126
f 129/129/129 125/125/125 128/128/128
f 125/125/125 129/129/129 130/130/130
f 130/130/130 129/129/129 131/131/131
f 132/132/132 131/131/131 129/129/129
f 135/135/135 134/134/134 133/133/133
f 133/133/133 134/134/134 136/136/136
f 137/137/137 133/133/133 136/136/136
f 133/133/133 137/137/137 138/138/138
f 137/137/137 139/139/139 138/138/138
f 140/140/140 139/139/139 137/137/137
f 143/143/143 142/142/142 141/141/141
f 141/141/141 142/142/142 144/144/144
f 145/145/145 141/141/141 144/144/144
f 141/141/141 145/145/145 146/146/146
f 145/145/145 147/147/147 146/146/146
f 148/148/148 147/147/147 145/145/145
f 151/151/151 150/150/150 149/149/149
f 150/150/150 152/152/152 149/149/149
f 149/149/149 152/152/152 153/153/153
f 152/152/152 154/154/154 153/153/153
f 153/153/153 154/154/154 155/155/155
f 154/154/154 156/156/156 155/155/155
f 155/155/155 156/156/156 157/157/157
f 160/160/160 159/159/159 158/158/158
f 161/161/161 160/160/160 158/158/158
f 160/160/160 161/161/161 162/162/162
f 161/161/161 163/163/163 162/162/162
f 163/163/163 164/164/164 162/162/162
f 164/164/164 165/165/165 162/162/162
f 165/165/165 164/164/164 166/166/166
f 169/169/169 168/168/168 167/167/167
f 170/170/170 169/169/169 167/167/167
f 173/173/173 172/172/172 171/171/171
f 174/174/174 173/173/173 171/171/171
f 177/177/177 176/176/176 175/175/175
f 178/178/178 177/177/177 175/175/175
f 181/181/181 180/180/180 179/179/179
f 182/182/182 181/181/181 179/179/179
f 185/185/185 184/184/184 183/183/183
f 184/184/184 186/186/186 183/183/183
f 184/184/184 187/187/187 186/186/186
f 187/187/187 188/188/188 186/186/186
f 191/191/191 190/190/190 189/189/189
f 192/192/192 191/191/191 189/189/189
f 195/195/195 194/194/194 193/193/193
f 196/196/196 195/195/195 193/193/193
f 199/199/199 198/198/198 197/197/197
f 198/198/198 200/200/200 197/197/197
f 198/198/198 201/201/201 200/200/200
f 201/201/201 202/202/202 200/200/200
f 205/205/205 204/204/204 203/203/203
f 206/206/206 205/205/205 203/203/203
f 209/209/209 208/208/208 207/207/207
f 210/210/210 209/209/209 207/207/207
f 213/213/213 212/212/212 211/211/211
f 214/214/214 213/213/213 211/211/211
f 217/217/217 216/216/216 215/215/215
f 218/218/218 217/217/217 215/215/215
f 221/221/221 220/220/220 219/219/219
f 222/222/222 221/221/221 219/219/219
f 225/225/225 224/224/224 223/223/223
f 226/226/226 225/225/225 223/223/223
f 229/229/229 228/228/228 227/227/227
f 230/230/230 229/229/229 227/227/227
f 233/233/233 232/232/232 231/231/231
f 231/231/231 232/232/232 234/234/234
f 235/235/235 231/231/231 234/234/234
f 236/236/236 235/235/235 234/234/234
f 234/234/234 232/232/232 237/237/237
f 238/238/238 234/234/234 237/237/237
f 237/237/237 232/232/232 239/239/239
f 234/234/234 238/238/238 240/240/240
f 241/241/241 239/239/239 232/232/232
f 242/242/242 240/240/240 238/238/238
f 239/239/239 241/241/241 243/243/243
f 244/244/244 240/240/240 242/242/242
f 241/241/241 245/245/245 243/243/243
f 246/246/246 244/244/244 242/242/242
f 243/243/243 245/245/245 246/246/246
f 245/245/245 244/244/244 246/246/246
f 249/249/249 248/248/248 247/247/247
f 250/250/250 249/249/249 247/247/247
f 250/250/250 247/247/247 251/251/251
f 252/252/252 250/250/250 251/251/251
f 252/252/252 251/251/251 253/253/253
f 251/251/251 254/254/254 253/253/253
f 257/257/257 256/256/256 255/255/255
f 258/258/258 257/257/257 255/255/255
f 257/257/257 258/258/258 259/259/259
f 260/260/260 257/257/257 259/259/259
f 259/259/259 261/261/261 260/260/260
f 261/261/261 262/262/262 260/260/260
f 265/265/265 264/264/264 263/263/263
f 266/266/266 265/265/265 263/263/263
f 269/269/269 268/268/268 267/267/267
f 269/269/269 267/267/267 270/270/270
f 267/267/267 271/271/271 270/270/270
f 272/272/272 270/270/270 271/271/271
f 275/275/275 274/274/274 273/273/273
f 276/276/276 273/273/273 274/274/274
f 277/277/277 273/273/273 276/276/276
f 273/273/273 277/277/277 278/278/278
f 278/278/278 277/277/277 279/279/279
f 280/280/280 279/279/279 277/277/277
f 283/283/283 282/282/282 281/281/281
f 281/281/281 282/282/282 284/284/284
f 285/285/285 281/281/281 284/284/284
f 281/281/281 285/285/285 286/286/286
f 285/285/285 287/287/287 286/286/286
f 288/288/288 287/287/287 285/285/285
f 291/291/291 290/290/290 289/289/289
f 289/289/289 290/290/290 292/292/292
f 293/293/293 289/289/289 292/292/292
f 289/289/289 293/293/293 294/294/294
f 293/293/293 295/295/295 294/294/294
f 296/296/296 295/295/295 293/293/293
f 299/299/299 298/298/298 297/297/297
f 298/298/298 300/300/300 297/297/297
f 297/297/297 300/300/300 301/301/301
f 300/300/300 302/302/302 301/301/301
f 301/301/301 302/302/302 303/303/303
f 302/302/302 304/304/304 303/303/303
f 303/303/303 304/304/304 305/305/305
f 308/308/308 307/307/307 306/306/306
f 309/309/309 308/308/308 306/306/306
f 308/308/308 309/309/309 310/310/310
f 309/309/309 311/311/311 310/310/310
f 311/311/311 312/312/312 310/310/310
f 312/312/312 313/313/313 310/310/310
f 313/313/313 312/312/312 314/314/314
f 317/317/317 316/316/316 315/315/315
f 318/318/318 317/317/317 315/315/315
f 321/321/321 320/320/320 319/319/319
f 322/322/322 321/321/321 319/319/319
f 325/325/325 324/324/324 323/323/323
f 326/326/326 325/325/325 323/323/323
f 329/329/329 328/328/328 327/327/327
f 330/330/330 329/329/329 327/327/327
f 333/333/333 332/332/332 331/331/331
f 332/332/332 334/334/334 331/331/331
f 332/332/332 335/335/335 334/334/334
f 335/335/335 336/336/336 334/334/334
f 339/339/339 338/338/338 337/337/337
f 340/340/340 339/339/339 337/337/337
f 343/343/343 342/342/342 341/341/341
f 344/344/344 343/343/343 341/341/341
f 347/347/347 346/346/346 345/345/345
f 346/346/346 348/348/348 345/345/345
f 346/346/346 349/349/349 348/348/348
f 349/349/349 350/350/350 348/348/348
f 353/353/353 352/352/352 351/351/351
f 354/354/354 353/353/353 351/351/351
f 357/357/357 356/356/356 355/355/355
f 358/358/358 357/357/357 355/355/355
f 361/361/361 360/360/360 359/359/359
f 362/362/362 361/361/361 359/359/359
f 365/365/365 364/364/364 363/363/363
f 366/366/366 365/365/365 363/363/363
f 369/369/369 368/368/368 367/367/367
f 370/370/370 369/369/369 367/367/367
f 373/373/373 372/372/372 371/371/371
f 374/374/374 373/373/373 371/371/371
f 377/377/377 376/376/376 375/375/375
f 378/378/378 377/377/377 375/375/375
f 381/381/381 380/380/380 379/379/379
f 379/379/379 380/380/380 382/382/382
f 383/383/383 379/379/379 382/382/382
f 384/384/384 383/383/383 382/382/382
f 382/382/382 380/380/380 385/385/385
f 386/386/386 382/382/382 385/385/385
f 385/385/385 380/380/380 387/387/387
f 382/382/382 386/386/386 388/388/388
f 389/389/389 387/387/387 380/380/380
f 390/390/390 388/388/388 386/386/386
f 387/387/387 389/389/389 391/391/391
f 392/392/392 388/388/388 390/390/390
f 389/389/389 393/393/393 391/391/391
f 394/394/394 392/392/392 390/390/390
f 391/391/391 393/393/393 394/394/394
f 393/393/393 392/392/392 394/394/394
f 397/397/397 396/396/396 395/395/395
f 398/398/398 397/397/397 395/395/395
f 398/398/398 395/395/395 399/399/399
f 400/400/400 398/398/398 399/399/399
f 400/400/400 399/399/399 401/401/401
f 399/399/399 402/402/402 401/401/401
f 405/405/405 404/404/404 403/403/403
f 406/406/406 405/405/405 403/403/403
f 405/405/405 406/406/406 407/407/407
f 408/408/408 405/405/405 407/407/407
f 407/407/407 409/409/409 408/408/408
f 409/409/409 410/410/410 408/408/408
f 413/413/413 412/412/412 411/411/411
f 414/414/414 413/413/413 411/411/411
f 417/417/417 416/416/416 415/415/415
f 417/417/417 415/415/415 418/418/418
f 415/415/415 419/419/419 418/418/418
f 420/420/420 418/418/418 419/419/419
f 423/423/423 422/422/422 421/421/421
f 424/424/424 421/421/421 422/422/422
f 425/425/425 421/421/421 424/424/424
f 421/421/421 425/425/425 426/426/426
f 426/426/426 425/425/425 427/427/427
f 428/428/428 427/427/427 425/425/425
f 431/431/431 430/430/430 429/429/429
f 429/429/429 430/430/430 432/432/432
f 433/433/433 429/429/429 432/432/432
f 429/429/429 433/433/433 434/434/434
f 433/433/433 435/435/435 434/434/434
f 436/436/436 435/435/435 433/433/433
f 439/439/439 438/438/438 437/437/437
f 437/437/437 438/438/438 440/440/440
f 441/441/441 437/437/437 440/440/440
f 437/437/437 441/441/441 442/442/442
f 441/441/441 443/443/443 442/442/442
f 444/444/444 443/443/443 441/441/441
f 447/447/447 446/446/446 445/445/445
f 447/447/447 448/448/448 446/446/446
f 446/446/446 449/449/449 445/445/445
f 448/448/448 450/450/450 446/446/446
f 445/445/445 449/449/449 451/451/451
f 448/448/448 452/452/452 450/450/450
f 453/453/453 445/445/445 451/451/451
f 452/452/452 454/454/454 450/450/450
f 453/453/453 451/451/451 455/455/455
f 452/452/452 456/456/456 454/454/454
f 457/457/457 453/453/453 455/455/455
f 456/456/456 458/458/458 454/454/454
f 457/457/457 455/455/455 459/459/459
f 456/456/456 460/460/460 458/458/458
f 461/461/461 457/457/457 459/459/459
f 460/460/460 462/462/462 458/458/458
f 461/461/461 459/459/459 462/462/462
f 460/460/460 461/461/461 462/462/462
f 465/465/465 464/464/464 463/463/463
f 465/465/465 466/466/466 464/464/464
f 464/464/464 467/467/467 463/463/463
f 466/466/466 468/468/468 464/464/464
f 463/463/463 467/467/467 469/469/469
f 466/466/466 470/470/470 468/468/468
f 471/471/471 463/463/463 469/469/469
f 470/470/470 472/472/472 468/468/468
f 471/471/471 469/469/469 473/473/473
f 470/470/470 474/474/474 472/472/472
f 475/475/475 471/471/471 473/473/473
f 474/474/474 476/476/476 472/472/472
f 475/475/475 473/473/473 477/477/477
f 474/474/474 478/478/478 476/476/476
f 479/479/479 475/475/475 477/477/477
f 478/478/478 480/480/480 476/476/476
f 479/479/479 477/477/477 480/480/480
f 478/478/478 479/479/479 480/480/480
f 483/483/483 482/482/482 481/481/481
f 483/483/483 484/484/484 482/482/482
f 482/482/482 485/485/485 481/481/481
f 484/484/484 486/486/486 482/482/482
f 481/481/481 485/485/485 487/487/487
f 484/484/484 488/488/488 486/486/486
f 489/489/489 481/481/481 487/487/487
f 488/488/488 490/490/490 486/486/486
f 489/489/489 487/487/487 491/491/491
f 488/488/488 492/492/492 490/490/490
f 493/493/493 489/489/489 491/491/491
f 492/492/492 494/494/494 490/490/490
f 493/493/493 491/491/491 495/495/495
f 492/492/492 496/496/496 494/494/494
f 497/497/497 493/493/493 495/495/495
f 496/496/496 498/498/498 494/494/494
f 497/497/497 495/495/495 498/498/498
f 496/496/496 497/497/497 498/498/498
f 501/501/501 500/500/500 499/499/499
f 501/501/501 502/502/502 500/500/500
f 500/500/500 503/503/503 499/499/499
f 502/502/502 504/504/504 500/500/500
f 499/499/499 503/503/503 505/505/505
f 506/506/506 504/504/504 502/502/502
f 503/503/503 507/507/507 505/505/505
f 508/508/508 506/506/506 502/502/502
f 505/505/505 507/507/507 509/509/509
f 510/510/510 506/506/506 508/508/508
f 507/507/507 511/511/511 509/509/509
f 512/512/512 510/510/510 508/508/508
f 509/509/509 511/511/511 513/513/513
f 514/514/514 510/510/510 512/512/512
f 511/511/511 515/515/515 513/513/513
f 516/516/516 514/514/514 512/512/512
f 513/513/513 515/515/515 516/516/516
f 515/515/515 514/514/514 516/516/516
f 519/519/519 518/518/518 517/517/517
f 519/519/519 520/520/520 518/518/518
f 518/518/518 521/521/521 517/517/517
f 520/520/520 522/522/522 518/518/518
f 517/517/517 521/521/521 523/523/523
f 524/524/524 522/522/522 520/520/520
f 521/521/521 525/525/525 523/523/523
f 526/526/526 524/524/524 520/520/520
f 523/523/523 525/525/525 527/527/527
f 528/528/528 524/524/524 526/526/526
f 525/525/525 529/529/529 527/527/527
f 530/530/530 528/528/528 526/526/526
f 527/527/527 529/529/529 531/531/531
f 532/532/532 528/528/528 530/530/530
f 529/529/529 533/533/533 531/531/531
f 534/534/534 532/532/532 530/530/530
f 531/531/531 533/533/533 534/534/534
f 533/533/533 532/532/532 534/534/534
f 537/537/537 536/536/536 535/535/535
f 537/537/537 538/538/538 536/536/536
f 536/536/536 539/539/539 535/535/535
f 538/538/538 540/540/540 536/536/536
f 535/535/535 539/539/539 541/541/541
f 542/542/542 540/540/540 538/538/538
f 539/539/539 543/543/543 541/541/541
f 544/544/544 542/542/542 538/538/538
f 541/541/541 543/543/543 545/545/545
f 546/546/546 542/542/542 544/544/544
f 543/543/543 547/547/547 545/545/545
f 548/548/548 546/546/546 544/544/544
f 545/545/545 547/547/547 549/549/549
f 550/550/550 546/546/546 548/548/548
f 547/547/547 551/551/551 549/549/549
f 552/552/552 550/550/550 548/548/548
f 549/549/549 551/551/551 552/552/552
f 551/551/551 550/550/550 552/552/552
f 555/555/555 554/554/554 553/553/553
f 554/554/554 556/556/556 553/553/553
f 557/557/557 554/554/554 555/555/555
f 553/553/553 556/556/556 558/558/558
f 559/559/559 557/557/557 555/555/555
f 556/556/556 560/560/560 558/558/558
f 561/561/561 557/557/557 559/559/559
f 558/558/558 560/560/560 562/562/562
f 563/563/563 561/561/561 559/559/559
f 560/560/560 564/564/564 562/562/562
f 565/565/565 561/561/561 563/563/563
f 562/562/562 564/564/564 566/566/566
f 567/567/567 565/565/565 563/563/563
f 564/564/564 568/568/568 566/566/566
f 569/569/569 565/565/565 567/567/567
f 566/566/566 568/568/568 570/570/570
f 570/570/570 569/569/569 567/567/567
f 568/568/568 569/569/569 570/570/570
f 573/573/573 572/572/572 571/571/571
f 574/574/574 573/573/573 571/571/571
f 575/575/575 573/573/573 574/574/574
f 571/571/571 572/572/572 576/576/576
f 572/572/572 577/577/577 576/576/576
f 578/578/578 575/575/575 574/574/574
f 579/579/579 575/575/575 578/578/578
f 580/580/580 571/571/571 576/576/576
f 574/574/574 571/571/571 580/580/580
f 576/576/576 577/577/577 581/581/581
f 577/577/577 582/582/582 581/581/581
f 583/583/583 579/579/579 578/578/578
f 584/584/584 579/579/579 583/583/583
f 585/585/585 580/580/580 576/576/576
f 585/585/585 576/576/576 581/581/581
f 581/581/581 582/582/582 586/586/586
f 582/582/582 587/587/587 586/586/586
f 588/588/588 584/584/584 583/583/583
f 589/589/589 584/584/584 588/588/588
f 587/587/587 589/589/589 590/590/590
f 590/590/590 589/589/589 588/588/588
f 586/586/586 587/587/587 590/590/590
f 591/591/591 581/581/581 586/586/586
f 591/591/591 585/585/585 581/581/581
f 592/592/592 588/588/588 583/583/583
f 588/588/588 592/592/592 590/590/590
f 593/593/593 583/583/583 578/578/578
f 593/593/593 592/592/592 583/583/583
f 594/594/594 586/586/586 590/590/590
f 594/594/594 591/591/591 586/586/586
f 595/595/595 593/593/593 578/578/578
f 595/595/595 578/578/578 574/574/574
f 592/592/592 596/596/596 590/590/590
f 596/596/596 594/594/594 590/590/590
f 597/597/597 595/595/595 574/574/574
f 597/597/597 574/574/574 580/580/580
f 580/580/580 585/585/585 598/598/598
f 599/599/599 580/580/580 598/598/598
f 597/597/597 580/580/580 599/599/599
f 598/598/598 585/585/585 600/600/600
f 585/585/585 591/591/591 600/600/600
f 601/601/601 597/597/597 599/599/599
f 595/595/595 597/597/597 601/601/601
f 600/600/600 591/591/591 602/602/602
f 591/591/591 594/594/594 602/602/602
f 603/603/603 595/595/595 601/601/601
f 602/602/602 594/594/594 604/604/604
f 594/594/594 596/596/596 604/604/604
f 593/593/593 595/595/595 603/603/603
f 604/604/604 596/596/596 605/605/605
f 606/606/606 593/593/593 603/603/603
f 596/596/596 592/592/592 605/605/605
f 592/592/592 593/593/593 606/606/606
f 605/605/605 592/592/592 606/606/606
f 609/609/609 608/608/608 607/607/607
f 608/608/608 610/610/610 607/607/607
f 611/611/611 608/608/608 609/609/609
f 607/607/607 610/610/610 612/612/612
f 613/613/613 611/611/611 609/609/609
f 610/610/610 614/614/614 612/612/612
f 615/615/615 611/611/611 613/613/613
f 612/612/612 614/614/614 616/616/616
f 617/617/617 615/615/615 613/613/613
f 614/614/614 618/618/618 616/616/616
f 619/619/619 615/615/615 617/617/617
f 616/616/616 618/618/618 620/620/620
f 621/621/621 619/619/619 617/617/617
f 618/618/618 622/622/622 620/620/620
f 623/623/623 619/619/619 621/621/621
f 620/620/620 622/622/622 624/624/624
f 624/624/624 623/623/623 621/621/621
f 622/622/622 623/623/623 624/624/624
f 627/627/627 626/626/626 625/625/625
f 628/628/628 627/627/627 625/625/625
f 629/629/629 627/627/627 628/628/628
f 625/625/625 626/626/626 630/630/630
f 626/626/626 631/631/631 630/630/630
f 632/632/632 629/629/629 628/628/628
f 633/633/633 629/629/629 632/632/632
f 634/634/634 625/625/625 630/630/630
f 628/628/628 625/625/625 634/634/634
f 630/630/630 631/631/631 635/635/635
f 631/631/631 636/636/636 635/635/635
f 637/637/637 633/633/633 632/632/632
f 638/638/638 633/633/633 637/637/637
f 639/639/639 634/634/634 630/630/630
f 639/639/639 630/630/630 635/635/635
f 635/635/635 636/636/636 640/640/640
f 636/636/636 641/641/641 640/640/640
f 642/642/642 638/638/638 637/637/637
f 643/643/643 638/638/638 642/642/642
f 641/641/641 643/643/643 644/644/644
f 644/644/644 643/643/643 642/642/642
f 640/640/640 641/641/641 644/644/644
f 645/645/645 635/635/635 640/640/640
f 645/645/645 639/639/639 635/635/635
f 646/646/646 642/642/642 637/637/637
f 642/642/642 646/646/646 644/644/644
f 647/647/647 637/637/637 632/632/632
f 647/647/647 646/646/646 637/637/637
f 648/648/648 640/640/640 644/644/644
f 648/648/648 645/645/645 640/640/640
f 649/649/649 647/647/647 632/632/632
f 649/649/649 632/632/632 628/628/628
f 646/646/646 650/650/650 644/644/644
f 650/650/650 648/648/648 644/644/644
f 651/651/651 649/649/649 628/628/628
f 651/651/651 628/628/628 634/634/634
f 634/634/634 639/639/639 652/652/652
f 653/653/653 634/634/634 652/652/652
f 651/651/651 634/634/634 653/653/653
f 652/652/652 639/639/639 654/654/654
f 639/639/639 645/645/645 654/654/654
f 655/655/655 651/651/651 653/653/653
f 649/649/649 651/651/651 655/655/655
f 654/654/654 645/645/645 656/656/656
f 645/645/645 648/648/648 656/656/656
f 657/657/657 649/649/649 655/655/655
f 656/656/656 648/648/648 658/658/658
f 648/648/648 650/650/650 658/658/658
f 647/647/647 649/649/649 657/657/657
f 658/658/658 650/650/650 659/659/659
f 660/660/660 647/647/647 657/657/657
f 650/650/650 646/646/646 659/659/659
f 646/646/646 647/647/647 660/660/660
f 659/659/659 646/646/646 660/660/660
f 663/663/663 662/662/662 661/661/661
f 662/662/662 664/664/664 661/661/661
f 665/665/665 662/662/662 663/663/663
f 661/661/661 664/664/664 666/666/666
f 667/667/667 665/665/665 663/663/663
f 664/664/664 668/668/668 666/666/666
f 669/669/669 665/665/665 667/667/667
f 666/666/666 668/668/668 670/670/670
f 671/671/671 669/669/669 667/667/667
f 668/668/668 672/672/672 670/670/670
f 673/673/673 669/669/669 671/671/671
f 670/670/670 672/672/672 674/674/674
f 675/675/675 673/673/673 671/671/671
f 672/672/672 676/676/676 674/674/674
f 677/677/677 673/673/673 675/675/675
f 674/674/674 676/676/676 678/678/678
f 678/678/678 677/677/677 675/675/675
f 676/676/676 677/677/677 678/678/678
f 681/681/681 680/680/680 679/679/679
f 682/682/682 681/681/681 679/679/679
f 683/683/683 681/681/681 682/682/682
f 679/679/679 680/680/680 684/684/684
f 680/680/680 685/685/685 684/684/684
f 686/686/686 683/683/683 682/682/682
f 687/687/687 683/683/683 686/686/686
f 688/688/688 679/679/679 684/684/684
f 682/682/682 679/679/679 688/688/688
f 684/684/684 685/685/685 689/689/689
f 685/685/685 690/690/690 689/689/689
f 691/691/691 687/687/687 686/686/686
f 692/692/692 687/687/687 691/691/691
f 693/693/693 688/688/688 684/684/684
f 693/693/693 684/684/684 689/689/689
f 689/689/689 690/690/690 694/694/694
f 690/690/690 695/695/695 694/694/694
f 696/696/696 692/692/692 691/691/691
f 697/697/697 692/692/692 696/696/696
f 695/695/695 697/697/697 698/698/698
f 698/698/698 697/697/697 696/696/696
f 694/694/694 695/695/695 698/698/698
f 699/699/699 689/689/689 694/694/694
f 699/699/699 693/693/693 689/689/689
f 700/700/700 696/696/696 691/691/691
f 696/696/696 700/700/700 698/698/698
f 701/701/701 691/691/691 686/686/686
f 701/701/701 700/700/700 691/691/691
f 702/702/702 694/694/694 698/698/698
f 702/702/702 699/699/699 694/694/694
f 703/703/703 701/701/701 686/686/686
f 703/703/703 686/686/686 682/682/682
f 700/700/700 704/704/704 698/698/698
f 704/704/704 702/702/702 698/698/698
f 705/705/705 703/703/703 682/682/682
f 705/705/705 682/682/682 688/688/688
f 688/688/688 693/693/693 706/706/706
f 707/707/707 688/688/688 706/706/706
f 705/705/705 688/688/688 707/707/707
f 706/706/706 693/693/693 708/708/708
f 693/693/693 699/699/699 708/708/708
f 709/709/709 705/705/705 707/707/707
f 703/703/703 705/705/705 709/709/709
f 708/708/708 699/699/699 710/710/710
f 699/699/699 702/702/702 710/710/710
f 711/711/711 703/703/703 709/709/709
f 710/710/710 702/702/702 712/712/712
f 702/702/702 704/704/704 712/712/712
f 701/701/701 703/703/703 711/711/711
f 712/712/712 704/704/704 713/713/713
f 714/714/714 701/701/701 711/711/711
f 704/704/704 700/700/700 713/713/713
f 700/700/700 701/701/701 714/714/714
f 713/713/713 700/700/700 714/714/714
