g fence
v 1.4305115E-07 -0.17322132 0
v 1.4305115E-07 0.121807754 0
v 1.4305115E-07 0.121807754 0.94962025
v 1.4305115E-07 -0.17322132 0.94962025
v 1.4305115E-07 0.121807754 0
v 0.30000007 0.121807754 0
v 0.30000007 0.121807754 0.94962025
v 1.4305115E-07 0.121807754 0.94962025
v 0.30000007 0.121807754 0
v 0.30000007 -0.17322132 0
v 0.30000007 -0.17322132 0.94962025
v 0.30000007 0.121807754 0.94962025
v 0.30000007 -0.17322132 0
v 1.4305115E-07 -0.17322132 0
v 1.4305115E-07 -0.17322132 0.94962025
v 0.30000007 -0.17322132 0.94962025
v 1.4305115E-07 0.121807754 0.94962025
v 0.034226567 0.0797334 1.0325022
v 0.034226567 -0.13114724 1.0325022
v 1.4305115E-07 -0.17322132 0.94962025
v 0.29999983 0.036298275 0.09914279
v 2.2497697 0.03629805 0.09914279
v 2.2497697 0.03629805 0.32085723
v 0.29999983 0.036298275 0.32085723
v 2.2497697 -0.097215444 0.09914279
v 0.29999983 -0.09721522 0.09914279
v 0.29999983 -0.09721522 0.32085723
v 2.2497697 -0.097215444 0.32085723
v 0.29999983 0.036298275 0.09914279
v 0.29999983 -0.09721522 0.09914279
v 2.2497697 -0.097215444 0.09914279
v 2.2497697 0.03629805 0.09914279
v 2.2497697 0.03629805 0.32085723
v 2.2497697 -0.097215444 0.32085723
v 0.29999983 -0.09721522 0.32085723
v 0.29999983 0.036298275 0.32085723
v 0.56937826 -0.08831304 0.32085723
v 0.56937826 0.035742506 0.32085723
v 0.56937826 0.035742506 0.9719446
v 0.56937826 -0.08831304 0.9719446
v 0.56937826 0.035742506 0.9719446
v 0.56937826 0.035742506 0.32085723
v 0.86645365 0.03574246 0.32085723
v 0.86645365 0.03574246 0.9719446
v 0.6070037 0.035742506 1.0514412
v 0.8288255 0.03574247 1.0514431
v 0.717916 0.035742484 1.0919447
v 0.86645365 0.03574246 0.32085723
v 0.86645365 -0.0883131 0.32085723
v 0.86645365 -0.0883131 0.9719446
v 0.86645365 0.03574246 0.9719446
v 0.86645365 -0.0883131 0.9719446
v 0.86645365 -0.0883131 0.32085723
v 0.56937826 -0.08831304 0.32085723
v 0.56937826 -0.08831304 0.9719446
v 0.82882714 -0.08831309 1.0514424
v 0.60700405 -0.08831306 1.0514414
v 0.717916 -0.08831307 1.0919447
v 0.56937826 0.035742506 0.32085723
v 0.56937826 -0.08831304 0.32085723
v 0.86645365 -0.0883131 0.32085723
v 0.86645365 0.03574246 0.32085723
v 0.86645365 0.03574246 0.9719446
v 0.86645365 -0.0883131 0.9719446
v 0.82882714 -0.08831309 1.0514424
v 0.8288255 0.03574247 1.0514431
v 0.717916 -0.08831307 1.0919447
v 0.60700405 -0.08831306 1.0514414
v 0.6070037 0.035742506 1.0514412
v 0.717916 0.035742484 1.0919447
v 0.60700405 -0.08831306 1.0514414
v 0.56937826 -0.08831304 0.9719446
v 0.56937826 0.035742506 0.9719446
v 0.6070037 0.035742506 1.0514412
v 0.82882714 -0.08831309 1.0514424
v 0.717916 -0.08831307 1.0919447
v 0.717916 0.035742484 1.0919447
v 0.8288255 0.03574247 1.0514431
v 1.6901994 -0.08831324 0.32085723
v 1.6901994 0.035742328 0.32085723
v 1.6901994 0.035742328 0.9719446
v 1.6901994 -0.08831324 0.9719446
v 1.6901994 0.035742328 0.9719446
v 1.6901994 0.035742328 0.32085723
v 1.9872746 0.035742283 0.32085723
v 1.9872746 0.035742283 0.9719446
v 1.7278247 0.035742328 1.0514412
v 1.9496465 0.03574229 1.0514431
v 1.838737 0.035742298 1.0919447
v 1.9872746 0.035742283 0.32085723
v 1.9872746 -0.08831328 0.32085723
v 1.9872746 -0.08831328 0.9719446
v 1.9872746 0.035742283 0.9719446
v 1.9872746 -0.08831328 0.9719446
v 1.9872746 -0.08831328 0.32085723
v 1.6901994 -0.08831324 0.32085723
v 1.6901994 -0.08831324 0.9719446
v 1.9496479 -0.08831328 1.0514424
v 1.7278252 -0.08831324 1.0514414
v 1.838737 -0.08831327 1.0919447
v 1.6901994 0.035742328 0.32085723
v 1.6901994 -0.08831324 0.32085723
v 1.9872746 -0.08831328 0.32085723
v 1.9872746 0.035742283 0.32085723
v 1.9872746 0.035742283 0.9719446
v 1.9872746 -0.08831328 0.9719446
v 1.9496479 -0.08831328 1.0514424
v 1.9496465 0.03574229 1.0514431
v 1.838737 -0.08831327 1.0919447
v 1.7278252 -0.08831324 1.0514414
v 1.7278247 0.035742328 1.0514412
v 1.838737 0.035742298 1.0919447
v 1.7278252 -0.08831324 1.0514414
v 1.6901994 -0.08831324 0.9719446
v 1.6901994 0.035742328 0.9719446
v 1.7278247 0.035742328 1.0514412
v 1.9496479 -0.08831328 1.0514424
v 1.838737 -0.08831327 1.0919447
v 1.838737 0.035742298 1.0919447
v 1.9496465 0.03574229 1.0514431
v 0.2657736 0.0797334 1.0325022
v 0.2977777 0.11907461 1.1627276
v 0.0022226572 0.11907461 1.1627276
v 0.034226567 0.0797334 1.0325022
v 1.4305115E-07 -0.17322132 0.94962025
v 0.034226567 -0.13114724 1.0325022
v 0.2657736 -0.13114724 1.0325022
v 0.30000007 -0.17322132 0.94962025
v 0.30000007 -0.17322132 0.94962025
v 0.2657736 -0.13114724 1.0325022
v 0.2657736 0.0797334 1.0325022
v 0.30000007 0.121807754 0.94962025
v 0.30000007 0.121807754 0.94962025
v 0.2657736 0.0797334 1.0325022
v 0.034226567 0.0797334 1.0325022
v 1.4305115E-07 0.121807754 0.94962025
v 0.2977777 0.11907461 1.1627276
v 0.25022936 0.060623214 1.2900796
v 0.049771354 0.060623214 1.2900796
v 0.0022226572 0.11907461 1.1627276
v 0.034226567 0.0797334 1.0325022
v 0.0022226572 0.11907461 1.1627276
v 0.0022226572 -0.17049038 1.1627276
v 0.034226567 -0.13114724 1.0325022
v 0.034226567 -0.13114724 1.0325022
v 0.0022226572 -0.17049038 1.1627276
v 0.2977777 -0.17049038 1.1627276
v 0.2657736 -0.13114724 1.0325022
v 0.2657736 -0.13114724 1.0325022
v 0.2977777 -0.17049038 1.1627276
v 0.2977777 0.11907461 1.1627276
v 0.2657736 0.0797334 1.0325022
v 0.25022936 -0.11204004 1.2900796
v 0.049771354 -0.11204004 1.2900796
v 0.049771354 0.060623214 1.2900796
v 0.25022936 0.060623214 1.2900796
v 0.0022226572 0.11907461 1.1627276
v 0.049771354 0.060623214 1.2900796
v 0.049771354 -0.11204004 1.2900796
v 0.0022226572 -0.17049038 1.1627276
v 0.0022226572 -0.17049038 1.1627276
v 0.049771354 -0.11204004 1.2900796
v 0.25022936 -0.11204004 1.2900796
v 0.2977777 -0.17049038 1.1627276
v 0.2977777 -0.17049038 1.1627276
v 0.25022936 -0.11204004 1.2900796
v 0.25022936 0.060623214 1.2900796
v 0.2977777 0.11907461 1.1627276
v 0.29999983 0.036298275 0.6012082
v 2.2497697 0.03629805 0.6012082
v 2.2497697 0.03629805 0.8229226
v 0.29999983 0.036298275 0.8229226
v 2.2497697 -0.097215444 0.6012082
v 0.29999983 -0.09721522 0.6012082
v 0.29999983 -0.09721522 0.8229226
v 2.2497697 -0.097215444 0.8229226
v 0.29999983 0.036298275 0.6012082
v 0.29999983 -0.09721522 0.6012082
v 2.2497697 -0.097215444 0.6012082
v 2.2497697 0.03629805 0.6012082
v 2.2497697 0.03629805 0.8229226
v 2.2497697 -0.097215444 0.8229226
v 0.29999983 -0.09721522 0.8229226
v 0.29999983 0.036298275 0.8229226
v 1.13134 -0.08831313 0.32085723
v 1.13134 0.035742417 0.32085723
v 1.13134 0.035742417 1.0845921
v 1.13134 -0.08831313 1.0845921
v 1.13134 0.035742417 1.0845921
v 1.13134 0.035742417 0.32085723
v 1.4284153 0.035742372 0.32085723
v 1.4284153 0.035742372 1.0845921
v 1.1689653 0.035742417 1.1640887
v 1.3907874 0.035742372 1.1640906
v 1.2798777 0.035742395 1.2045922
v 1.4284153 0.035742372 0.32085723
v 1.4284153 -0.08831319 0.32085723
v 1.4284153 -0.08831319 1.0845921
v 1.4284153 0.035742372 1.0845921
v 1.4284153 -0.08831319 1.0845921
v 1.4284153 -0.08831319 0.32085723
v 1.13134 -0.08831313 0.32085723
v 1.13134 -0.08831313 1.0845921
v 1.3907888 -0.08831319 1.1640899
v 1.1689658 -0.08831315 1.164089
v 1.2798777 -0.08831316 1.2045922
v 1.13134 0.035742417 0.32085723
v 1.13134 -0.08831313 0.32085723
v 1.4284153 -0.08831319 0.32085723
v 1.4284153 0.035742372 0.32085723
v 1.4284153 0.035742372 1.0845921
v 1.4284153 -0.08831319 1.0845921
v 1.3907888 -0.08831319 1.1640899
v 1.3907874 0.035742372 1.1640906
v 1.2798777 -0.08831316 1.2045922
v 1.1689658 -0.08831315 1.164089
v 1.1689653 0.035742417 1.1640887
v 1.2798777 0.035742395 1.2045922
v 1.1689658 -0.08831315 1.164089
v 1.13134 -0.08831313 1.0845921
v 1.13134 0.035742417 1.0845921
v 1.1689653 0.035742417 1.1640887
v 1.3907888 -0.08831319 1.1640899
v 1.2798777 -0.08831316 1.2045922
v 1.2798777 0.035742395 1.2045922
v 1.3907874 0.035742372 1.1640906
v 2.2497697 -0.17322132 0
v 2.2497697 0.121807754 0
v 2.2497697 0.121807754 0.94962025
v 2.2497697 -0.17322132 0.94962025
v 2.2497697 0.121807754 0
v 2.5497694 0.121807754 0
v 2.5497694 0.121807754 0.94962025
v 2.2497697 0.121807754 0.94962025
v 2.5497694 0.121807754 0
v 2.5497694 -0.17322132 0
v 2.5497694 -0.17322132 0.94962025
v 2.5497694 0.121807754 0.94962025
v 2.5497694 -0.17322132 0
v 2.2497697 -0.17322132 0
v 2.2497697 -0.17322132 0.94962025
v 2.5497694 -0.17322132 0.94962025
v 2.2497697 0.121807754 0.94962025
v 2.283996 0.0797334 1.0325022
v 2.283996 -0.13114724 1.0325022
v 2.2497697 -0.17322132 0.94962025
v 2.5497694 0.036298275 0.09914279
v 4.4995394 0.03629805 0.09914279
v 4.4995394 0.03629805 0.32085723
v 2.5497694 0.036298275 0.32085723
v 4.4995394 -0.097215444 0.09914279
v 2.5497694 -0.09721522 0.09914279
v 2.5497694 -0.09721522 0.32085723
v 4.4995394 -0.097215444 0.32085723
v 2.5497694 0.036298275 0.09914279
v 2.5497694 -0.09721522 0.09914279
v 4.4995394 -0.097215444 0.09914279
v 4.4995394 0.03629805 0.09914279
v 4.4995394 0.03629805 0.32085723
v 4.4995394 -0.097215444 0.32085723
v 2.5497694 -0.09721522 0.32085723
v 2.5497694 0.036298275 0.32085723
v 2.8191476 -0.08831304 0.32085723
v 2.8191476 0.035742506 0.32085723
v 2.8191476 0.035742506 0.9719446
v 2.8191476 -0.08831304 0.9719446
v 2.8191476 0.035742506 0.9719446
v 2.8191476 0.035742506 0.32085723
v 3.116223 0.03574246 0.32085723
v 3.116223 0.03574246 0.9719446
v 2.8567731 0.035742506 1.0514412
v 3.078595 0.03574247 1.0514431
v 2.9676855 0.035742484 1.0919447
v 3.116223 0.03574246 0.32085723
v 3.116223 -0.0883131 0.32085723
v 3.116223 -0.0883131 0.9719446
v 3.116223 0.03574246 0.9719446
v 3.116223 -0.0883131 0.9719446
v 3.116223 -0.0883131 0.32085723
v 2.8191476 -0.08831304 0.32085723
v 2.8191476 -0.08831304 0.9719446
v 3.0785966 -0.08831309 1.0514424
v 2.8567734 -0.08831306 1.0514414
v 2.9676855 -0.08831307 1.0919447
v 2.8191476 0.035742506 0.32085723
v 2.8191476 -0.08831304 0.32085723
v 3.116223 -0.0883131 0.32085723
v 3.116223 0.03574246 0.32085723
v 3.116223 0.03574246 0.9719446
v 3.116223 -0.0883131 0.9719446
v 3.0785966 -0.08831309 1.0514424
v 3.078595 0.03574247 1.0514431
v 2.9676855 -0.08831307 1.0919447
v 2.8567734 -0.08831306 1.0514414
v 2.8567731 0.035742506 1.0514412
v 2.9676855 0.035742484 1.0919447
v 2.8567734 -0.08831306 1.0514414
v 2.8191476 -0.08831304 0.9719446
v 2.8191476 0.035742506 0.9719446
v 2.8567731 0.035742506 1.0514412
v 3.0785966 -0.08831309 1.0514424
v 2.9676855 -0.08831307 1.0919447
v 2.9676855 0.035742484 1.0919447
v 3.078595 0.03574247 1.0514431
v 3.9399688 -0.08831324 0.32085723
v 3.9399688 0.035742328 0.32085723
v 3.9399688 0.035742328 0.9719446
v 3.9399688 -0.08831324 0.9719446
v 3.9399688 0.035742328 0.9719446
v 3.9399688 0.035742328 0.32085723
v 4.2370443 0.035742283 0.32085723
v 4.2370443 0.035742283 0.9719446
v 3.9775941 0.035742328 1.0514412
v 4.199416 0.03574229 1.0514431
v 4.0885067 0.035742298 1.0919447
v 4.2370443 0.035742283 0.32085723
v 4.2370443 -0.08831328 0.32085723
v 4.2370443 -0.08831328 0.9719446
v 4.2370443 0.035742283 0.9719446
v 4.2370443 -0.08831328 0.9719446
v 4.2370443 -0.08831328 0.32085723
v 3.9399688 -0.08831324 0.32085723
v 3.9399688 -0.08831324 0.9719446
v 4.199417 -0.08831328 1.0514424
v 3.9775946 -0.08831324 1.0514414
v 4.0885067 -0.08831327 1.0919447
v 3.9399688 0.035742328 0.32085723
v 3.9399688 -0.08831324 0.32085723
v 4.2370443 -0.08831328 0.32085723
v 4.2370443 0.035742283 0.32085723
v 4.2370443 0.035742283 0.9719446
v 4.2370443 -0.08831328 0.9719446
v 4.199417 -0.08831328 1.0514424
v 4.199416 0.03574229 1.0514431
v 4.0885067 -0.08831327 1.0919447
v 3.9775946 -0.08831324 1.0514414
v 3.9775941 0.035742328 1.0514412
v 4.0885067 0.035742298 1.0919447
v 3.9775946 -0.08831324 1.0514414
v 3.9399688 -0.08831324 0.9719446
v 3.9399688 0.035742328 0.9719446
v 3.9775941 0.035742328 1.0514412
v 4.199417 -0.08831328 1.0514424
v 4.0885067 -0.08831327 1.0919447
v 4.0885067 0.035742298 1.0919447
v 4.199416 0.03574229 1.0514431
v 2.515543 0.0797334 1.0325022
v 2.547547 0.11907461 1.1627276
v 2.2519922 0.11907461 1.1627276
v 2.283996 0.0797334 1.0325022
v 2.2497697 -0.17322132 0.94962025
v 2.283996 -0.13114724 1.0325022
v 2.515543 -0.13114724 1.0325022
v 2.5497694 -0.17322132 0.94962025
v 2.5497694 -0.17322132 0.94962025
v 2.515543 -0.13114724 1.0325022
v 2.515543 0.0797334 1.0325022
v 2.5497694 0.121807754 0.94962025
v 2.5497694 0.121807754 0.94962025
v 2.515543 0.0797334 1.0325022
v 2.283996 0.0797334 1.0325022
v 2.2497697 0.121807754 0.94962025
v 2.547547 0.11907461 1.1627276
v 2.4999988 0.060623214 1.2900796
v 2.2995408 0.060623214 1.2900796
v 2.2519922 0.11907461 1.1627276
v 2.283996 0.0797334 1.0325022
v 2.2519922 0.11907461 1.1627276
v 2.2519922 -0.17049038 1.1627276
v 2.283996 -0.13114724 1.0325022
v 2.283996 -0.13114724 1.0325022
v 2.2519922 -0.17049038 1.1627276
v 2.547547 -0.17049038 1.1627276
v 2.515543 -0.13114724 1.0325022
v 2.515543 -0.13114724 1.0325022
v 2.547547 -0.17049038 1.1627276
v 2.547547 0.11907461 1.1627276
v 2.515543 0.0797334 1.0325022
v 2.4999988 -0.11204004 1.2900796
v 2.2995408 -0.11204004 1.2900796
v 2.2995408 0.060623214 1.2900796
v 2.4999988 0.060623214 1.2900796
v 2.2519922 0.11907461 1.1627276
v 2.2995408 0.060623214 1.2900796
v 2.2995408 -0.11204004 1.2900796
v 2.2519922 -0.17049038 1.1627276
v 2.2519922 -0.17049038 1.1627276
v 2.2995408 -0.11204004 1.2900796
v 2.4999988 -0.11204004 1.2900796
v 2.547547 -0.17049038 1.1627276
v 2.547547 -0.17049038 1.1627276
v 2.4999988 -0.11204004 1.2900796
v 2.4999988 0.060623214 1.2900796
v 2.547547 0.11907461 1.1627276
v 2.5497694 0.036298275 0.6012082
v 4.4995394 0.03629805 0.6012082
v 4.4995394 0.03629805 0.8229226
v 2.5497694 0.036298275 0.8229226
v 4.4995394 -0.097215444 0.6012082
v 2.5497694 -0.09721522 0.6012082
v 2.5497694 -0.09721522 0.8229226
v 4.4995394 -0.097215444 0.8229226
v 2.5497694 0.036298275 0.6012082
v 2.5497694 -0.09721522 0.6012082
v 4.4995394 -0.097215444 0.6012082
v 4.4995394 0.03629805 0.6012082
v 4.4995394 0.03629805 0.8229226
v 4.4995394 -0.097215444 0.8229226
v 2.5497694 -0.09721522 0.8229226
v 2.5497694 0.036298275 0.8229226
v 3.3811095 -0.08831313 0.32085723
v 3.3811095 0.035742417 0.32085723
v 3.3811095 0.035742417 1.0845921
v 3.3811095 -0.08831313 1.0845921
v 3.3811095 0.035742417 1.0845921
v 3.3811095 0.035742417 0.32085723
v 3.6781847 0.035742372 0.32085723
v 3.6781847 0.035742372 1.0845921
v 3.4187348 0.035742417 1.1640887
v 3.6405568 0.035742372 1.1640906
v 3.529647 0.035742395 1.2045922
v 3.6781847 0.035742372 0.32085723
v 3.6781847 -0.08831319 0.32085723
v 3.6781847 -0.08831319 1.0845921
v 3.6781847 0.035742372 1.0845921
v 3.6781847 -0.08831319 1.0845921
v 3.6781847 -0.08831319 0.32085723
v 3.3811095 -0.08831313 0.32085723
v 3.3811095 -0.08831313 1.0845921
v 3.6405582 -0.08831319 1.1640899
v 3.4187353 -0.08831315 1.164089
v 3.529647 -0.08831316 1.2045922
v 3.3811095 0.035742417 0.32085723
v 3.3811095 -0.08831313 0.32085723
v 3.6781847 -0.08831319 0.32085723
v 3.6781847 0.035742372 0.32085723
v 3.6781847 0.035742372 1.0845921
v 3.6781847 -0.08831319 1.0845921
v 3.6405582 -0.08831319 1.1640899
v 3.6405568 0.035742372 1.1640906
v 3.529647 -0.08831316 1.2045922
v 3.4187353 -0.08831315 1.164089
v 3.4187348 0.035742417 1.1640887
v 3.529647 0.035742395 1.2045922
v 3.4187353 -0.08831315 1.164089
v 3.3811095 -0.08831313 1.0845921
v 3.3811095 0.035742417 1.0845921
v 3.4187348 0.035742417 1.1640887
v 3.6405582 -0.08831319 1.1640899
v 3.529647 -0.08831316 1.2045922
v 3.529647 0.035742395 1.2045922
v 3.6405568 0.035742372 1.1640906
v 4.499539 -0.17322132 0
v 4.499539 0.121807754 0
v 4.499539 0.121807754 0.94962025
v 4.499539 -0.17322132 0.94962025
v 4.499539 0.121807754 0
v 4.799539 0.121807754 0
v 4.799539 0.121807754 0.94962025
v 4.499539 0.121807754 0.94962025
v 4.799539 0.121807754 0
v 4.799539 -0.17322132 0
v 4.799539 -0.17322132 0.94962025
v 4.799539 0.121807754 0.94962025
v 4.799539 -0.17322132 0
v 4.499539 -0.17322132 0
v 4.499539 -0.17322132 0.94962025
v 4.799539 -0.17322132 0.94962025
v 4.499539 0.121807754 0.94962025
v 4.5337653 0.0797334 1.0325022
v 4.5337653 -0.13114724 1.0325022
v 4.499539 -0.17322132 0.94962025
v 4.7995386 0.036298275 0.09914279
v 6.7493086 0.03629805 0.09914279
v 6.7493086 0.03629805 0.32085723
v 4.7995386 0.036298275 0.32085723
v 6.7493086 -0.097215444 0.09914279
v 4.7995386 -0.09721522 0.09914279
v 4.7995386 -0.09721522 0.32085723
v 6.7493086 -0.097215444 0.32085723
v 4.7995386 0.036298275 0.09914279
v 4.7995386 -0.09721522 0.09914279
v 6.7493086 -0.097215444 0.09914279
v 6.7493086 0.03629805 0.09914279
v 6.7493086 0.03629805 0.32085723
v 6.7493086 -0.097215444 0.32085723
v 4.7995386 -0.09721522 0.32085723
v 4.7995386 0.036298275 0.32085723
v 5.0689173 -0.08831304 0.32085723
v 5.0689173 0.035742506 0.32085723
v 5.0689173 0.035742506 0.9719446
v 5.0689173 -0.08831304 0.9719446
v 5.0689173 0.035742506 0.9719446
v 5.0689173 0.035742506 0.32085723
v 5.3659925 0.03574246 0.32085723
v 5.3659925 0.03574246 0.9719446
v 5.1065426 0.035742506 1.0514412
v 5.3283644 0.03574247 1.0514431
v 5.217455 0.035742484 1.0919447
v 5.3659925 0.03574246 0.32085723
v 5.3659925 -0.0883131 0.32085723
v 5.3659925 -0.0883131 0.9719446
v 5.3659925 0.03574246 0.9719446
v 5.3659925 -0.0883131 0.9719446
v 5.3659925 -0.0883131 0.32085723
v 5.0689173 -0.08831304 0.32085723
v 5.0689173 -0.08831304 0.9719446
v 5.3283663 -0.08831309 1.0514424
v 5.106543 -0.08831306 1.0514414
v 5.217455 -0.08831307 1.0919447
v 5.0689173 0.035742506 0.32085723
v 5.0689173 -0.08831304 0.32085723
v 5.3659925 -0.0883131 0.32085723
v 5.3659925 0.03574246 0.32085723
v 5.3659925 0.03574246 0.9719446
v 5.3659925 -0.0883131 0.9719446
v 5.3283663 -0.08831309 1.0514424
v 5.3283644 0.03574247 1.0514431
v 5.217455 -0.08831307 1.0919447
v 5.106543 -0.08831306 1.0514414
v 5.1065426 0.035742506 1.0514412
v 5.217455 0.035742484 1.0919447
v 5.106543 -0.08831306 1.0514414
v 5.0689173 -0.08831304 0.9719446
v 5.0689173 0.035742506 0.9719446
v 5.1065426 0.035742506 1.0514412
v 5.3283663 -0.08831309 1.0514424
v 5.217455 -0.08831307 1.0919447
v 5.217455 0.035742484 1.0919447
v 5.3283644 0.03574247 1.0514431
v 6.1897383 -0.08831324 0.32085723
v 6.1897383 0.035742328 0.32085723
v 6.1897383 0.035742328 0.9719446
v 6.1897383 -0.08831324 0.9719446
v 6.1897383 0.035742328 0.9719446
v 6.1897383 0.035742328 0.32085723
v 6.4868135 0.035742283 0.32085723
v 6.4868135 0.035742283 0.9719446
v 6.2273636 0.035742328 1.0514412
v 6.4491854 0.03574229 1.0514431
v 6.338276 0.035742298 1.0919447
v 6.4868135 0.035742283 0.32085723
v 6.4868135 -0.08831328 0.32085723
v 6.4868135 -0.08831328 0.9719446
v 6.4868135 0.035742283 0.9719446
v 6.4868135 -0.08831328 0.9719446
v 6.4868135 -0.08831328 0.32085723
v 6.1897383 -0.08831324 0.32085723
v 6.1897383 -0.08831324 0.9719446
v 6.449187 -0.08831328 1.0514424
v 6.227364 -0.08831324 1.0514414
v 6.338276 -0.08831327 1.0919447
v 6.1897383 0.035742328 0.32085723
v 6.1897383 -0.08831324 0.32085723
v 6.4868135 -0.08831328 0.32085723
v 6.4868135 0.035742283 0.32085723
v 6.4868135 0.035742283 0.9719446
v 6.4868135 -0.08831328 0.9719446
v 6.449187 -0.08831328 1.0514424
v 6.4491854 0.03574229 1.0514431
v 6.338276 -0.08831327 1.0919447
v 6.227364 -0.08831324 1.0514414
v 6.2273636 0.035742328 1.0514412
v 6.338276 0.035742298 1.0919447
v 6.227364 -0.08831324 1.0514414
v 6.1897383 -0.08831324 0.9719446
v 6.1897383 0.035742328 0.9719446
v 6.2273636 0.035742328 1.0514412
v 6.449187 -0.08831328 1.0514424
v 6.338276 -0.08831327 1.0919447
v 6.338276 0.035742298 1.0919447
v 6.4491854 0.03574229 1.0514431
v 4.7653127 0.0797334 1.0325022
v 4.7973166 0.11907461 1.1627276
v 4.5017614 0.11907461 1.1627276
v 4.5337653 0.0797334 1.0325022
v 4.499539 -0.17322132 0.94962025
v 4.5337653 -0.13114724 1.0325022
v 4.7653127 -0.13114724 1.0325022
v 4.799539 -0.17322132 0.94962025
v 4.799539 -0.17322132 0.94962025
v 4.7653127 -0.13114724 1.0325022
v 4.7653127 0.0797334 1.0325022
v 4.799539 0.121807754 0.94962025
v 4.799539 0.121807754 0.94962025
v 4.7653127 0.0797334 1.0325022
v 4.5337653 0.0797334 1.0325022
v 4.499539 0.121807754 0.94962025
v 4.7973166 0.11907461 1.1627276
v 4.7497683 0.060623214 1.2900796
v 4.54931 0.060623214 1.2900796
v 4.5017614 0.11907461 1.1627276
v 4.5337653 0.0797334 1.0325022
v 4.5017614 0.11907461 1.1627276
v 4.5017614 -0.17049038 1.1627276
v 4.5337653 -0.13114724 1.0325022
v 4.5337653 -0.13114724 1.0325022
v 4.5017614 -0.17049038 1.1627276
v 4.7973166 -0.17049038 1.1627276
v 4.7653127 -0.13114724 1.0325022
v 4.7653127 -0.13114724 1.0325022
v 4.7973166 -0.17049038 1.1627276
v 4.7973166 0.11907461 1.1627276
v 4.7653127 0.0797334 1.0325022
v 4.7497683 -0.11204004 1.2900796
v 4.54931 -0.11204004 1.2900796
v 4.54931 0.060623214 1.2900796
v 4.7497683 0.060623214 1.2900796
v 4.5017614 0.11907461 1.1627276
v 4.54931 0.060623214 1.2900796
v 4.54931 -0.11204004 1.2900796
v 4.5017614 -0.17049038 1.1627276
v 4.5017614 -0.17049038 1.1627276
v 4.54931 -0.11204004 1.2900796
v 4.7497683 -0.11204004 1.2900796
v 4.7973166 -0.17049038 1.1627276
v 4.7973166 -0.17049038 1.1627276
v 4.7497683 -0.11204004 1.2900796
v 4.7497683 0.060623214 1.2900796
v 4.7973166 0.11907461 1.1627276
v 4.7995386 0.036298275 0.6012082
v 6.7493086 0.03629805 0.6012082
v 6.7493086 0.03629805 0.8229226
v 4.7995386 0.036298275 0.8229226
v 6.7493086 -0.097215444 0.6012082
v 4.7995386 -0.09721522 0.6012082
v 4.7995386 -0.09721522 0.8229226
v 6.7493086 -0.097215444 0.8229226
v 4.7995386 0.036298275 0.6012082
v 4.7995386 -0.09721522 0.6012082
v 6.7493086 -0.097215444 0.6012082
v 6.7493086 0.03629805 0.6012082
v 6.7493086 0.03629805 0.8229226
v 6.7493086 -0.097215444 0.8229226
v 4.7995386 -0.09721522 0.8229226
v 4.7995386 0.036298275 0.8229226
v 5.630879 -0.08831313 0.32085723
v 5.630879 0.035742417 0.32085723
v 5.630879 0.035742417 1.0845921
v 5.630879 -0.08831313 1.0845921
v 5.630879 0.035742417 1.0845921
v 5.630879 0.035742417 0.32085723
v 5.927954 0.035742372 0.32085723
v 5.927954 0.035742372 1.0845921
v 5.668504 0.035742417 1.1640887
v 5.8903265 0.035742372 1.1640906
v 5.7794166 0.035742395 1.2045922
v 5.927954 0.035742372 0.32085723
v 5.927954 -0.08831319 0.32085723
v 5.927954 -0.08831319 1.0845921
v 5.927954 0.035742372 1.0845921
v 5.927954 -0.08831319 1.0845921
v 5.927954 -0.08831319 0.32085723
v 5.630879 -0.08831313 0.32085723
v 5.630879 -0.08831313 1.0845921
v 5.8903275 -0.08831319 1.1640899
v 5.6685047 -0.08831315 1.164089
v 5.7794166 -0.08831316 1.2045922
v 5.630879 0.035742417 0.32085723
v 5.630879 -0.08831313 0.32085723
v 5.927954 -0.08831319 0.32085723
v 5.927954 0.035742372 0.32085723
v 5.927954 0.035742372 1.0845921
v 5.927954 -0.08831319 1.0845921
v 5.8903275 -0.08831319 1.1640899
v 5.8903265 0.035742372 1.1640906
v 5.7794166 -0.08831316 1.2045922
v 5.6685047 -0.08831315 1.164089
v 5.668504 0.035742417 1.1640887
v 5.7794166 0.035742395 1.2045922
v 5.6685047 -0.08831315 1.164089
v 5.630879 -0.08831313 1.0845921
v 5.630879 0.035742417 1.0845921
v 5.668504 0.035742417 1.1640887
v 5.8903275 -0.08831319 1.1640899
v 5.7794166 -0.08831316 1.2045922
v 5.7794166 0.035742395 1.2045922
v 5.8903265 0.035742372 1.1640906
vt 0.53118134 0.03268063
vt 0.53118134 0.03268063
vt 0.53118134 0.03268063
vt 0.53118134 0.03268063
vt 0.53118134 0.03268063
vt 0.53118134 0.03268063
vt 0.53118134 0.03268063
vt 0.53118134 0.03268063
vt 0.53118134 0.03268063
vt 0.53118134 0.03268063
vt 0.53118134 0.03268063
vt 0.53118134 0.03268063
vt 0.53118134 0.03268063
vt 0.53118134 0.03268063
vt 0.53118134 0.03268063
vt 0.53118134 0.03268063
vt 0.53118134 0.03268063
vt 0.53118134 0.03268063
vt 0.53118134 0.03268063
vt 0.53118134 0.03268063
vt 0.53118134 0.03268063
vt 0.53118134 0.03268063
vt 0.53118134 0.03268063
vt 0.53118134 0.03268063
vt 0.53118134 0.03268063
vt 0.53118134 0.03268063
vt 0.53118134 0.03268063
vt 0.53118134 0.03268063
vt 0.53118134 0.03268063
vt 0.53118134 0.03268063
vt 0.53118134 0.03268063
vt 0.53118134 0.03268063
vt 0.53118134 0.03268063
vt 0.53118134 0.03268063
vt 0.53118134 0.03268063
vt 0.53118134 0.03268063
vt 0.53118134 0.03268063
vt 0.53118134 0.03268063
vt 0.53118134 0.03268063
vt 0.53118134 0.03268063
vt 0.53118134 0.03268063
vt 0.53118134 0.03268063
vt 0.53118134 0.03268063
vt 0.53118134 0.03268063
vt 0.53118134 0.03268063
vt 0.53118134 0.03268063
vt 0.53118134 0.03268063
vt 0.53118134 0.03268063
vt 0.53118134 0.03268063
vt 0.53118134 0.03268063
vt 0.53118134 0.03268063
vt 0.53118134 0.03268063
vt 0.53118134 0.03268063
vt 0.53118134 0.03268063
vt 0.53118134 0.03268063
vt 0.53118134 0.03268063
vt 0.53118134 0.03268063
vt 0.53118134 0.03268063
vt 0.53118134 0.03268063
vt 0.53118134 0.03268063
vt 0.53118134 0.03268063
vt 0.53118134 0.03268063
vt 0.53118134 0.03268063
vt 0.53118134 0.03268063
vt 0.53118134 0.03268063
vt 0.53118134 0.03268063
vt 0.53118134 0.03268063
vt 0.53118134 0.03268063
vt 0.53118134 0.03268063
vt 0.53118134 0.03268063
vt 0.53118134 0.03268063
vt 0.53118134 0.03268063
vt 0.53118134 0.03268063
vt 0.53118134 0.03268063
vt 0.53118134 0.03268063
vt 0.53118134 0.03268063
vt 0.53118134 0.03268063
vt 0.53118134 0.03268063
vt 0.53118134 0.03268063
vt 0.53118134 0.03268063
vt 0.53118134 0.03268063
vt 0.53118134 0.03268063
vt 0.53118134 0.03268063
vt 0.53118134 0.03268063
vt 0.53118134 0.03268063
vt 0.53118134 0.03268063
vt 0.53118134 0.03268063
vt 0.53118134 0.03268063
vt 0.53118134 0.03268063
vt 0.53118134 0.03268063
vt 0.53118134 0.03268063
vt 0.53118134 0.03268063
vt 0.53118134 0.03268063
vt 0.53118134 0.03268063
vt 0.53118134 0.03268063
vt 0.53118134 0.03268063
vt 0.53118134 0.03268063
vt 0.53118134 0.03268063
vt 0.53118134 0.03268063
vt 0.53118134 0.03268063
vt 0.53118134 0.03268063
vt 0.53118134 0.03268063
vt 0.53118134 0.03268063
vt 0.53118134 0.03268063
vt 0.53118134 0.03268063
vt 0.53118134 0.03268063
vt 0.53118134 0.03268063
vt 0.53118134 0.03268063
vt 0.53118134 0.03268063
vt 0.53118134 0.03268063
vt 0.53118134 0.03268063
vt 0.53118134 0.03268063
vt 0.53118134 0.03268063
vt 0.53118134 0.03268063
vt 0.53118134 0.03268063
vt 0.53118134 0.03268063
vt 0.53118134 0.03268063
vt 0.53118134 0.03268063
vt 0.53118134 0.03268063
vt 0.53118134 0.03268063
vt 0.53118134 0.03268063
vt 0.53118134 0.03268063
vt 0.53118134 0.03268063
vt 0.53118134 0.03268063
vt 0.53118134 0.03268063
vt 0.53118134 0.03268063
vt 0.53118134 0.03268063
vt 0.53118134 0.03268063
vt 0.53118134 0.03268063
vt 0.53118134 0.03268063
vt 0.53118134 0.03268063
vt 0.53118134 0.03268063
vt 0.53118134 0.03268063
vt 0.53118134 0.03268063
vt 0.53118134 0.03268063
vt 0.53118134 0.03268063
vt 0.53118134 0.03268063
vt 0.53118134 0.03268063
vt 0.53118134 0.03268063
vt 0.53118134 0.03268063
vt 0.53118134 0.03268063
vt 0.53118134 0.03268063
vt 0.53118134 0.03268063
vt 0.53118134 0.03268063
vt 0.53118134 0.03268063
vt 0.53118134 0.03268063
vt 0.53118134 0.03268063
vt 0.53118134 0.03268063
vt 0.53118134 0.03268063
vt 0.53118134 0.03268063
vt 0.53118134 0.03268063
vt 0.53118134 0.03268063
vt 0.53118134 0.03268063
vt 0.53118134 0.03268063
vt 0.53118134 0.03268063
vt 0.53118134 0.03268063
vt 0.53118134 0.03268063
vt 0.53118134 0.03268063
vt 0.53118134 0.03268063
vt 0.53118134 0.03268063
vt 0.53118134 0.03268063
vt 0.53118134 0.03268063
vt 0.53118134 0.03268063
vt 0.53118134 0.03268063
vt 0.53118134 0.03268063
vt 0.53118134 0.03268063
vt 0.53118134 0.03268063
vt 0.53118134 0.03268063
vt 0.53118134 0.03268063
vt 0.53118134 0.03268063
vt 0.53118134 0.03268063
vt 0.53118134 0.03268063
vt 0.53118134 0.03268063
vt 0.53118134 0.03268063
vt 0.53118134 0.03268063
vt 0.53118134 0.03268063
vt 0.53118134 0.03268063
vt 0.53118134 0.03268063
vt 0.53118134 0.03268063
vt 0.53118134 0.03268063
vt 0.53118134 0.03268063
vt 0.53118134 0.03268063
vt 0.53118134 0.03268063
vt 0.53118134 0.03268063
vt 0.53118134 0.03268063
vt 0.53118134 0.03268063
vt 0.53118134 0.03268063
vt 0.53118134 0.03268063
vt 0.53118134 0.03268063
vt 0.53118134 0.03268063
vt 0.53118134 0.03268063
vt 0.53118134 0.03268063
vt 0.53118134 0.03268063
vt 0.53118134 0.03268063
vt 0.53118134 0.03268063
vt 0.53118134 0.03268063
vt 0.53118134 0.03268063
vt 0.53118134 0.03268063
vt 0.53118134 0.03268063
vt 0.53118134 0.03268063
vt 0.53118134 0.03268063
vt 0.53118134 0.03268063
vt 0.53118134 0.03268063
vt 0.53118134 0.03268063
vt 0.53118134 0.03268063
vt 0.53118134 0.03268063
vt 0.53118134 0.03268063
vt 0.53118134 0.03268063
vt 0.53118134 0.03268063
vt 0.53118134 0.03268063
vt 0.53118134 0.03268063
vt 0.53118134 0.03268063
vt 0.53118134 0.03268063
vt 0.53118134 0.03268063
vt 0.53118134 0.03268063
vt 0.53118134 0.03268063
vt 0.53118134 0.03268063
vt 0.53118134 0.03268063
vt 0.53118134 0.03268063
vt 0.53118134 0.03268063
vt 0.53118134 0.03268063
vt 0.53118134 0.03268063
vt 0.53118134 0.03268063
vt 0.53118134 0.03268063
vt 0.53118134 0.03268063
vt 0.53118134 0.03268063
vt 0.53118134 0.03268063
vt 0.53118134 0.03268063
vt 0.53118134 0.03268063
vt 0.53118134 0.03268063
vt 0.53118134 0.03268063
vt 0.53118134 0.03268063
vt 0.53118134 0.03268063
vt 0.53118134 0.03268063
vt 0.53118134 0.03268063
vt 0.53118134 0.03268063
vt 0.53118134 0.03268063
vt 0.53118134 0.03268063
vt 0.53118134 0.03268063
vt 0.53118134 0.03268063
vt 0.53118134 0.03268063
vt 0.53118134 0.03268063
vt 0.53118134 0.03268063
vt 0.53118134 0.03268063
vt 0.53118134 0.03268063
vt 0.53118134 0.03268063
vt 0.53118134 0.03268063
vt 0.53118134 0.03268063
vt 0.53118134 0.03268063
vt 0.53118134 0.03268063
vt 0.53118134 0.03268063
vt 0.53118134 0.03268063
vt 0.53118134 0.03268063
vt 0.53118134 0.03268063
vt 0.53118134 0.03268063
vt 0.53118134 0.03268063
vt 0.53118134 0.03268063
vt 0.53118134 0.03268063
vt 0.53118134 0.03268063
vt 0.53118134 0.03268063
vt 0.53118134 0.03268063
vt 0.53118134 0.03268063
vt 0.53118134 0.03268063
vt 0.53118134 0.03268063
vt 0.53118134 0.03268063
vt 0.53118134 0.03268063
vt 0.53118134 0.03268063
vt 0.53118134 0.03268063
vt 0.53118134 0.03268063
vt 0.53118134 0.03268063
vt 0.53118134 0.03268063
vt 0.53118134 0.03268063
vt 0.53118134 0.03268063
vt 0.53118134 0.03268063
vt 0.53118134 0.03268063
vt 0.53118134 0.03268063
vt 0.53118134 0.03268063
vt 0.53118134 0.03268063
vt 0.53118134 0.03268063
vt 0.53118134 0.03268063
vt 0.53118134 0.03268063
vt 0.53118134 0.03268063
vt 0.53118134 0.03268063
vt 0.53118134 0.03268063
vt 0.53118134 0.03268063
vt 0.53118134 0.03268063
vt 0.53118134 0.03268063
vt 0.53118134 0.03268063
vt 0.53118134 0.03268063
vt 0.53118134 0.03268063
vt 0.53118134 0.03268063
vt 0.53118134 0.03268063
vt 0.53118134 0.03268063
vt 0.53118134 0.03268063
vt 0.53118134 0.03268063
vt 0.53118134 0.03268063
vt 0.53118134 0.03268063
vt 0.53118134 0.03268063
vt 0.53118134 0.03268063
vt 0.53118134 0.03268063
vt 0.53118134 0.03268063
vt 0.53118134 0.03268063
vt 0.53118134 0.03268063
vt 0.53118134 0.03268063
vt 0.53118134 0.03268063
vt 0.53118134 0.03268063
vt 0.53118134 0.03268063
vt 0.53118134 0.03268063
vt 0.53118134 0.03268063
vt 0.53118134 0.03268063
vt 0.53118134 0.03268063
vt 0.53118134 0.03268063
vt 0.53118134 0.03268063
vt 0.53118134 0.03268063
vt 0.53118134 0.03268063
vt 0.53118134 0.03268063
vt 0.53118134 0.03268063
vt 0.53118134 0.03268063
vt 0.53118134 0.03268063
vt 0.53118134 0.03268063
vt 0.53118134 0.03268063
vt 0.53118134 0.03268063
vt 0.53118134 0.03268063
vt 0.53118134 0.03268063
vt 0.53118134 0.03268063
vt 0.53118134 0.03268063
vt 0.53118134 0.03268063
vt 0.53118134 0.03268063
vt 0.53118134 0.03268063
vt 0.53118134 0.03268063
vt 0.53118134 0.03268063
vt 0.53118134 0.03268063
vt 0.53118134 0.03268063
vt 0.53118134 0.03268063
vt 0.53118134 0.03268063
vt 0.53118134 0.03268063
vt 0.53118134 0.03268063
vt 0.53118134 0.03268063
vt 0.53118134 0.03268063
vt 0.53118134 0.03268063
vt 0.53118134 0.03268063
vt 0.53118134 0.03268063
vt 0.53118134 0.03268063
vt 0.53118134 0.03268063
vt 0.53118134 0.03268063
vt 0.53118134 0.03268063
vt 0.53118134 0.03268063
vt 0.53118134 0.03268063
vt 0.53118134 0.03268063
vt 0.53118134 0.03268063
vt 0.53118134 0.03268063
vt 0.53118134 0.03268063
vt 0.53118134 0.03268063
vt 0.53118134 0.03268063
vt 0.53118134 0.03268063
vt 0.53118134 0.03268063
vt 0.53118134 0.03268063
vt 0.53118134 0.03268063
vt 0.53118134 0.03268063
vt 0.53118134 0.03268063
vt 0.53118134 0.03268063
vt 0.53118134 0.03268063
vt 0.53118134 0.03268063
vt 0.53118134 0.03268063
vt 0.53118134 0.03268063
vt 0.53118134 0.03268063
vt 0.53118134 0.03268063
vt 0.53118134 0.03268063
vt 0.53118134 0.03268063
vt 0.53118134 0.03268063
vt 0.53118134 0.03268063
vt 0.53118134 0.03268063
vt 0.53118134 0.03268063
vt 0.53118134 0.03268063
vt 0.53118134 0.03268063
vt 0.53118134 0.03268063
vt 0.53118134 0.03268063
vt 0.53118134 0.03268063
vt 0.53118134 0.03268063
vt 0.53118134 0.03268063
vt 0.53118134 0.03268063
vt 0.53118134 0.03268063
vt 0.53118134 0.03268063
vt 0.53118134 0.03268063
vt 0.53118134 0.03268063
vt 0.53118134 0.03268063
vt 0.53118134 0.03268063
vt 0.53118134 0.03268063
vt 0.53118134 0.03268063
vt 0.53118134 0.03268063
vt 0.53118134 0.03268063
vt 0.53118134 0.03268063
vt 0.53118134 0.03268063
vt 0.53118134 0.03268063
vt 0.53118134 0.03268063
vt 0.53118134 0.03268063
vt 0.53118134 0.03268063
vt 0.53118134 0.03268063
vt 0.53118134 0.03268063
vt 0.53118134 0.03268063
vt 0.53118134 0.03268063
vt 0.53118134 0.03268063
vt 0.53118134 0.03268063
vt 0.53118134 0.03268063
vt 0.53118134 0.03268063
vt 0.53118134 0.03268063
vt 0.53118134 0.03268063
vt 0.53118134 0.03268063
vt 0.53118134 0.03268063
vt 0.53118134 0.03268063
vt 0.53118134 0.03268063
vt 0.53118134 0.03268063
vt 0.53118134 0.03268063
vt 0.53118134 0.03268063
vt 0.53118134 0.03268063
vt 0.53118134 0.03268063
vt 0.53118134 0.03268063
vt 0.53118134 0.03268063
vt 0.53118134 0.03268063
vt 0.53118134 0.03268063
vt 0.53118134 0.03268063
vt 0.53118134 0.03268063
vt 0.53118134 0.03268063
vt 0.53118134 0.03268063
vt 0.53118134 0.03268063
vt 0.53118134 0.03268063
vt 0.53118134 0.03268063
vt 0.53118134 0.03268063
vt 0.53118134 0.03268063
vt 0.53118134 0.03268063
vt 0.53118134 0.03268063
vt 0.53118134 0.03268063
vt 0.53118134 0.03268063
vt 0.53118134 0.03268063
vt 0.53118134 0.03268063
vt 0.53118134 0.03268063
vt 0.53118134 0.03268063
vt 0.53118134 0.03268063
vt 0.53118134 0.03268063
vt 0.53118134 0.03268063
vt 0.53118134 0.03268063
vt 0.53118134 0.03268063
vt 0.53118134 0.03268063
vt 0.53118134 0.03268063
vt 0.53118134 0.03268063
vt 0.53118134 0.03268063
vt 0.53118134 0.03268063
vt 0.53118134 0.03268063
vt 0.53118134 0.03268063
vt 0.53118134 0.03268063
vt 0.53118134 0.03268063
vt 0.53118134 0.03268063
vt 0.53118134 0.03268063
vt 0.53118134 0.03268063
vt 0.53118134 0.03268063
vt 0.53118134 0.03268063
vt 0.53118134 0.03268063
vt 0.53118134 0.03268063
vt 0.53118134 0.03268063
vt 0.53118134 0.03268063
vt 0.53118134 0.03268063
vt 0.53118134 0.03268063
vt 0.53118134 0.03268063
vt 0.53118134 0.03268063
vt 0.53118134 0.03268063
vt 0.53118134 0.03268063
vt 0.53118134 0.03268063
vt 0.53118134 0.03268063
vt 0.53118134 0.03268063
vt 0.53118134 0.03268063
vt 0.53118134 0.03268063
vt 0.53118134 0.03268063
vt 0.53118134 0.03268063
vt 0.53118134 0.03268063
vt 0.53118134 0.03268063
vt 0.53118134 0.03268063
vt 0.53118134 0.03268063
vt 0.53118134 0.03268063
vt 0.53118134 0.03268063
vt 0.53118134 0.03268063
vt 0.53118134 0.03268063
vt 0.53118134 0.03268063
vt 0.53118134 0.03268063
vt 0.53118134 0.03268063
vt 0.53118134 0.03268063
vt 0.53118134 0.03268063
vt 0.53118134 0.03268063
vt 0.53118134 0.03268063
vt 0.53118134 0.03268063
vt 0.53118134 0.03268063
vt 0.53118134 0.03268063
vt 0.53118134 0.03268063
vt 0.53118134 0.03268063
vt 0.53118134 0.03268063
vt 0.53118134 0.03268063
vt 0.53118134 0.03268063
vt 0.53118134 0.03268063
vt 0.53118134 0.03268063
vt 0.53118134 0.03268063
vt 0.53118134 0.03268063
vt 0.53118134 0.03268063
vt 0.53118134 0.03268063
vt 0.53118134 0.03268063
vt 0.53118134 0.03268063
vt 0.53118134 0.03268063
vt 0.53118134 0.03268063
vt 0.53118134 0.03268063
vt 0.53118134 0.03268063
vt 0.53118134 0.03268063
vt 0.53118134 0.03268063
vt 0.53118134 0.03268063
vt 0.53118134 0.03268063
vt 0.53118134 0.03268063
vt 0.53118134 0.03268063
vt 0.53118134 0.03268063
vt 0.53118134 0.03268063
vt 0.53118134 0.03268063
vt 0.53118134 0.03268063
vt 0.53118134 0.03268063
vt 0.53118134 0.03268063
vt 0.53118134 0.03268063
vt 0.53118134 0.03268063
vt 0.53118134 0.03268063
vt 0.53118134 0.03268063
vt 0.53118134 0.03268063
vt 0.53118134 0.03268063
vt 0.53118134 0.03268063
vt 0.53118134 0.03268063
vt 0.53118134 0.03268063
vt 0.53118134 0.03268063
vt 0.53118134 0.03268063
vt 0.53118134 0.03268063
vt 0.53118134 0.03268063
vt 0.53118134 0.03268063
vt 0.53118134 0.03268063
vt 0.53118134 0.03268063
vt 0.53118134 0.03268063
vt 0.53118134 0.03268063
vt 0.53118134 0.03268063
vt 0.53118134 0.03268063
vt 0.53118134 0.03268063
vt 0.53118134 0.03268063
vt 0.53118134 0.03268063
vt 0.53118134 0.03268063
vt 0.53118134 0.03268063
vt 0.53118134 0.03268063
vt 0.53118134 0.03268063
vt 0.53118134 0.03268063
vt 0.53118134 0.03268063
vt 0.53118134 0.03268063
vt 0.53118134 0.03268063
vt 0.53118134 0.03268063
vt 0.53118134 0.03268063
vt 0.53118134 0.03268063
vt 0.53118134 0.03268063
vt 0.53118134 0.03268063
vt 0.53118134 0.03268063
vt 0.53118134 0.03268063
vt 0.53118134 0.03268063
vt 0.53118134 0.03268063
vt 0.53118134 0.03268063
vt 0.53118134 0.03268063
vt 0.53118134 0.03268063
vt 0.53118134 0.03268063
vt 0.53118134 0.03268063
vt 0.53118134 0.03268063
vt 0.53118134 0.03268063
vt 0.53118134 0.03268063
vt 0.53118134 0.03268063
vt 0.53118134 0.03268063
vt 0.53118134 0.03268063
vt 0.53118134 0.03268063
vt 0.53118134 0.03268063
vt 0.53118134 0.03268063
vt 0.53118134 0.03268063
vt 0.53118134 0.03268063
vt 0.53118134 0.03268063
vt 0.53118134 0.03268063
vt 0.53118134 0.03268063
vt 0.53118134 0.03268063
vt 0.53118134 0.03268063
vt 0.53118134 0.03268063
vt 0.53118134 0.03268063
vt 0.53118134 0.03268063
vt 0.53118134 0.03268063
vt 0.53118134 0.03268063
vt 0.53118134 0.03268063
vt 0.53118134 0.03268063
vt 0.53118134 0.03268063
vt 0.53118134 0.03268063
vt 0.53118134 0.03268063
vt 0.53118134 0.03268063
vt 0.53118134 0.03268063
vt 0.53118134 0.03268063
vt 0.53118134 0.03268063
vt 0.53118134 0.03268063
vt 0.53118134 0.03268063
vt 0.53118134 0.03268063
vt 0.53118134 0.03268063
vt 0.53118134 0.03268063
vt 0.53118134 0.03268063
vt 0.53118134 0.03268063
vt 0.53118134 0.03268063
vt 0.53118134 0.03268063
vt 0.53118134 0.03268063
vt 0.53118134 0.03268063
vt 0.53118134 0.03268063
vt 0.53118134 0.03268063
vt 0.53118134 0.03268063
vt 0.53118134 0.03268063
vt 0.53118134 0.03268063
vt 0.53118134 0.03268063
vt 0.53118134 0.03268063
vt 0.53118134 0.03268063
vt 0.53118134 0.03268063
vt 0.53118134 0.03268063
vt 0.53118134 0.03268063
vt 0.53118134 0.03268063
vt 0.53118134 0.03268063
vt 0.53118134 0.03268063
vt 0.53118134 0.03268063
vt 0.53118134 0.03268063
vt 0.53118134 0.03268063
vt 0.53118134 0.03268063
vt 0.53118134 0.03268063
vt 0.53118134 0.03268063
vt 0.53118134 0.03268063
vt 0.53118134 0.03268063
vt 0.53118134 0.03268063
vt 0.53118134 0.03268063
vt 0.53118134 0.03268063
vt 0.53118134 0.03268063
vt 0.53118134 0.03268063
vt 0.53118134 0.03268063
vt 0.53118134 0.03268063
vt 0.53118134 0.03268063
vt 0.53118134 0.03268063
vt 0.53118134 0.03268063
vt 0.53118134 0.03268063
vt 0.53118134 0.03268063
vt 0.53118134 0.03268063
vt 0.53118134 0.03268063
vt 0.53118134 0.03268063
vt 0.53118134 0.03268063
vt 0.53118134 0.03268063
vt 0.53118134 0.03268063
vt 0.53118134 0.03268063
vt 0.53118134 0.03268063
vt 0.53118134 0.03268063
vt 0.53118134 0.03268063
vt 0.53118134 0.03268063
vt 0.53118134 0.03268063
vt 0.53118134 0.03268063
vt 0.53118134 0.03268063
vt 0.53118134 0.03268063
vt 0.53118134 0.03268063
vt 0.53118134 0.03268063
vt 0.53118134 0.03268063
vt 0.53118134 0.03268063
vt 0.53118134 0.03268063
vt 0.53118134 0.03268063
vt 0.53118134 0.03268063
vt 0.53118134 0.03268063
vt 0.53118134 0.03268063
vt 0.53118134 0.03268063
vt 0.53118134 0.03268063
vt 0.53118134 0.03268063
vt 0.53118134 0.03268063
vt 0.53118134 0.03268063
vt 0.53118134 0.03268063
vt 0.53118134 0.03268063
vt 0.53118134 0.03268063
vt 0.53118134 0.03268063
vt 0.53118134 0.03268063
vt 0.53118134 0.03268063
vt 0.53118134 0.03268063
vt 0.53118134 0.03268063
vt 0.53118134 0.03268063
vn -1 0 0
vn -1 0 0
vn -1 0 0
vn -1 0 0
vn -0 1 0
vn -0 1 0
vn -0 1 0
vn -0 1 0
vn 1 0 0
vn 1 0 0
vn 1 0 0
vn 1 0 0
vn -0 -1 0
vn -0 -1 0
vn -0 -1 0
vn -0 -1 0
vn -0.9242906 0 0.38168958
vn -0.9242906 0 0.38168958
vn -0.9242906 0 0.38168958
vn -0.9242906 0 0.38168958
vn -0 1 0
vn -0 1 0
vn -0 1 0
vn -0 1 0
vn -0 -1 0
vn -0 -1 0
vn -0 -1 0
vn -0 -1 0
vn -0 0 -1
vn -0 0 -1
vn -0 0 -1
vn -0 0 -1
vn -0 0 1
vn -0 0 1
vn -0 0 1
vn -0 0 1
vn -1 0 0
vn -1 0 0
vn -1 0 0
vn -1 0 0
vn -0 1 0
vn -0 1 0
vn -0 1 0
vn -0 1 0
vn -0 1 0
vn -0 1 0
vn -0 1 0
vn 1 0 0
vn 1 0 0
vn 1 0 0
vn 1 0 0
vn -0 -1 0
vn -0 -1 0
vn -0 -1 0
vn -0 -1 0
vn -0 -1 0
vn -0 -1 0
vn -0 -1 0
vn -0 0 -1
vn -0 0 -1
vn -0 0 -1
vn -0 0 -1
vn 0.90386844 0 0.4278106
vn 0.90386844 0 0.4278106
vn 0.90386844 0 0.4278106
vn 0.90386844 0 0.4278106
vn -0.34302714 0 0.9393255
vn -0.34302714 0 0.9393255
vn -0.34302714 0 0.9393255
vn -0.34302714 0 0.9393255
vn -0.90387315 0 0.4278006
vn -0.90387315 0 0.4278006
vn -0.90387315 0 0.4278006
vn -0.90387315 0 0.4278006
vn 0.34302136 0 0.9393276
vn 0.34302136 0 0.9393276
vn 0.34302136 0 0.9393276
vn 0.34302136 0 0.9393276
vn -1 0 0
vn -1 0 0
vn -1 0 0
vn -1 0 0
vn -0 1 0
vn -0 1 0
vn -0 1 0
vn -0 1 0
vn -0 1 0
vn -0 1 0
vn -0 1 0
vn 1 0 0
vn 1 0 0
vn 1 0 0
vn 1 0 0
vn -0 -1 0
vn -0 -1 0
vn -0 -1 0
vn -0 -1 0
vn -0 -1 0
vn -0 -1 0
vn -0 -1 0
vn -0 0 -1
vn -0 0 -1
vn -0 0 -1
vn -0 0 -1
vn 0.9038679 0 0.4278117
vn 0.9038679 0 0.4278117
vn 0.9038679 0 0.4278117
vn 0.9038679 0 0.4278117
vn -0.34302726 0 0.9393254
vn -0.34302726 0 0.9393254
vn -0.34302726 0 0.9393254
vn -0.34302726 0 0.9393254
vn -0.90387344 0 0.4278001
vn -0.90387344 0 0.4278001
vn -0.90387344 0 0.4278001
vn -0.90387344 0 0.4278001
vn 0.34302172 0 0.93932754
vn 0.34302172 0 0.93932754
vn 0.34302172 0 0.93932754
vn 0.34302172 0 0.93932754
vn -0 0.95727104 -0.28919244
vn -0 0.95727104 -0.28919244
vn -0 0.95727104 -0.28919244
vn -0 0.95727104 -0.28919244
vn -0 -0.89168596 0.45265445
vn -0 -0.89168596 0.45265445
vn -0 -0.89168596 0.45265445
vn -0 -0.89168596 0.45265445
vn 0.92429036 0 0.38169006
vn 0.92429036 0 0.38169006
vn 0.92429036 0 0.38169006
vn 0.92429036 0 0.38169006
vn -0 0.89168495 0.45265666
vn -0 0.89168495 0.45265666
vn -0 0.89168495 0.45265666
vn -0 0.89168495 0.45265666
vn -0 0.90884376 0.41713667
vn -0 0.90884376 0.41713667
vn -0 0.90884376 0.41713667
vn -0 0.90884376 0.41713667
vn -0.9711041 0 -0.2386563
vn -0.9711041 0 -0.2386563
vn -0.9711041 0 -0.2386563
vn -0.9711041 0 -0.2386563
vn -0 -0.9572671 -0.2892055
vn -0 -0.9572671 -0.2892055
vn -0 -0.9572671 -0.2892055
vn -0 -0.9572671 -0.2892055
vn 0.9711038 0 -0.23865779
vn 0.9711038 0 -0.23865779
vn 0.9711038 0 -0.23865779
vn 0.9711038 0 -0.23865779
vn -0 0 1
vn -0 0 1
vn -0 0 1
vn -0 0 1
vn -0.93683195 0 0.34977964
vn -0.93683195 0 0.34977964
vn -0.93683195 0 0.34977964
vn -0.93683195 0 0.34977964
vn -0 -0.9088466 0.41713035
vn -0 -0.9088466 0.41713035
vn -0 -0.9088466 0.41713035
vn -0 -0.9088466 0.41713035
vn 0.9368328 0 0.3497774
vn 0.9368328 0 0.3497774
vn 0.9368328 0 0.3497774
vn 0.9368328 0 0.3497774
vn -0 1 0
vn -0 1 0
vn -0 1 0
vn -0 1 0
vn -0 -1 0
vn -0 -1 0
vn -0 -1 0
vn -0 -1 0
vn -0 0 -1
vn -0 0 -1
vn -0 0 -1
vn -0 0 -1
vn -0 0 1
vn -0 0 1
vn -0 0 1
vn -0 0 1
vn -1 0 0
vn -1 0 0
vn -1 0 0
vn -1 0 0
vn -0 1 0
vn -0 1 0
vn -0 1 0
vn -0 1 0
vn -0 1 0
vn -0 1 0
vn -0 1 0
vn 1 0 0
vn 1 0 0
vn 1 0 0
vn 1 0 0
vn -0 -1 0
vn -0 -1 0
vn -0 -1 0
vn -0 -1 0
vn -0 -1 0
vn -0 -1 0
vn -0 -1 0
vn -0 0 -1
vn -0 0 -1
vn -0 0 -1
vn -0 0 -1
vn 0.90386885 0 0.42780975
vn 0.90386885 0 0.42780975
vn 0.90386885 0 0.42780975
vn 0.90386885 0 0.42780975
vn -0.3430273 0 0.9393254
vn -0.3430273 0 0.9393254
vn -0.3430273 0 0.9393254
vn -0.3430273 0 0.9393254
vn -0.90387344 0 0.42780006
vn -0.90387344 0 0.42780006
vn -0.90387344 0 0.42780006
vn -0.90387344 0 0.42780006
vn 0.34302014 0 0.939328
vn 0.34302014 0 0.939328
vn 0.34302014 0 0.939328
vn 0.34302014 0 0.939328
vn -1 0 0
vn -1 0 0
vn -1 0 0
vn -1 0 0
vn -0 1 0
vn -0 1 0
vn -0 1 0
vn -0 1 0
vn 1 0 0
vn 1 0 0
vn 1 0 0
vn 1 0 0
vn -0 -1 0
vn -0 -1 0
vn -0 -1 0
vn -0 -1 0
vn -0.9242906 0 0.38168952
vn -0.9242906 0 0.38168952
vn -0.9242906 0 0.38168952
vn -0.9242906 0 0.38168952
vn -0 1 0
vn -0 1 0
vn -0 1 0
vn -0 1 0
vn -0 -1 0
vn -0 -1 0
vn -0 -1 0
vn -0 -1 0
vn -0 0 -1
vn -0 0 -1
vn -0 0 -1
vn -0 0 -1
vn -0 0 1
vn -0 0 1
vn -0 0 1
vn -0 0 1
vn -1 0 0
vn -1 0 0
vn -1 0 0
vn -1 0 0
vn -0 1 0
vn -0 1 0
vn -0 1 0
vn -0 1 0
vn -0 1 0
vn -0 1 0
vn -0 1 0
vn 1 0 0
vn 1 0 0
vn 1 0 0
vn 1 0 0
vn -0 -1 0
vn -0 -1 0
vn -0 -1 0
vn -0 -1 0
vn -0 -1 0
vn -0 -1 0
vn -0 -1 0
vn -0 0 -1
vn -0 0 -1
vn -0 0 -1
vn -0 0 -1
vn 0.90386844 0 0.4278106
vn 0.90386844 0 0.4278106
vn 0.90386844 0 0.4278106
vn 0.90386844 0 0.4278106
vn -0.34302697 0 0.93932563
vn -0.34302697 0 0.93932563
vn -0.34302697 0 0.93932563
vn -0.34302697 0 0.93932563
vn -0.90387285 0 0.42780113
vn -0.90387285 0 0.42780113
vn -0.90387285 0 0.42780113
vn -0.90387285 0 0.42780113
vn 0.34302136 0 0.9393276
vn 0.34302136 0 0.9393276
vn 0.34302136 0 0.9393276
vn 0.34302136 0 0.9393276
vn -1 0 0
vn -1 0 0
vn -1 0 0
vn -1 0 0
vn -0 1 0
vn -0 1 0
vn -0 1 0
vn -0 1 0
vn -0 1 0
vn -0 1 0
vn -0 1 0
vn 1 0 0
vn 1 0 0
vn 1 0 0
vn 1 0 0
vn -0 -1 0
vn -0 -1 0
vn -0 -1 0
vn -0 -1 0
vn -0 -1 0
vn -0 -1 0
vn -0 -1 0
vn -0 0 -1
vn -0 0 -1
vn -0 0 -1
vn -0 0 -1
vn 0.9038668 0 0.42781395
vn 0.9038668 0 0.42781395
vn 0.9038668 0 0.42781395
vn 0.9038668 0 0.42781395
vn -0.3430266 0 0.93932563
vn -0.3430266 0 0.93932563
vn -0.3430266 0 0.93932563
vn -0.3430266 0 0.93932563
vn -0.90387344 0 0.4278001
vn -0.90387344 0 0.4278001
vn -0.90387344 0 0.4278001
vn -0.90387344 0 0.4278001
vn 0.34302238 0 0.9393273
vn 0.34302238 0 0.9393273
vn 0.34302238 0 0.9393273
vn 0.34302238 0 0.9393273
vn -0 0.95727104 -0.2891922
vn -0 0.95727104 -0.2891922
vn -0 0.95727104 -0.2891922
vn -0 0.95727104 -0.2891922
vn -0 -0.89168596 0.45265463
vn -0 -0.89168596 0.45265463
vn -0 -0.89168596 0.45265463
vn -0 -0.89168596 0.45265463
vn 0.9242906 0 0.38168952
vn 0.9242906 0 0.38168952
vn 0.9242906 0 0.38168952
vn 0.9242906 0 0.38168952
vn -0 0.89168465 0.45265698
vn -0 0.89168465 0.45265698
vn -0 0.89168465 0.45265698
vn -0 0.89168465 0.45265698
vn -0 0.9088439 0.4171364
vn -0 0.9088439 0.4171364
vn -0 0.9088439 0.4171364
vn -0 0.9088439 0.4171364
vn -0.9711041 0 -0.23865609
vn -0.9711041 0 -0.23865609
vn -0.9711041 0 -0.23865609
vn -0.9711041 0 -0.23865609
vn -0 -0.9572671 -0.28920528
vn -0 -0.9572671 -0.28920528
vn -0 -0.9572671 -0.28920528
vn -0 -0.9572671 -0.28920528
vn 0.9711038 0 -0.23865779
vn 0.9711038 0 -0.23865779
vn 0.9711038 0 -0.23865779
vn 0.9711038 0 -0.23865779
vn -0 0 1
vn -0 0 1
vn -0 0 1
vn -0 0 1
vn -0.93683237 0 0.34977856
vn -0.93683237 0 0.34977856
vn -0.93683237 0 0.34977856
vn -0.93683237 0 0.34977856
vn -0 -0.9088468 0.41713005
vn -0 -0.9088468 0.41713005
vn -0 -0.9088468 0.41713005
vn -0 -0.9088468 0.41713005
vn 0.936833 0 0.3497771
vn 0.936833 0 0.3497771
vn 0.936833 0 0.3497771
vn 0.936833 0 0.3497771
vn -0 1 0
vn -0 1 0
vn -0 1 0
vn -0 1 0
vn -0 -1 0
vn -0 -1 0
vn -0 -1 0
vn -0 -1 0
vn -0 0 -1
vn -0 0 -1
vn -0 0 -1
vn -0 0 -1
vn -0 0 1
vn -0 0 1
vn -0 0 1
vn -0 0 1
vn -1 0 0
vn -1 0 0
vn -1 0 0
vn -1 0 0
vn -0 1 0
vn -0 1 0
vn -0 1 0
vn -0 1 0
vn -0 1 0
vn -0 1 0
vn -0 1 0
vn 1 0 0
vn 1 0 0
vn 1 0 0
vn 1 0 0
vn -0 -1 0
vn -0 -1 0
vn -0 -1 0
vn -0 -1 0
vn -0 -1 0
vn -0 -1 0
vn -0 -1 0
vn -0 0 -1
vn -0 0 -1
vn -0 0 -1
vn -0 0 -1
vn 0.90386885 0 0.42780975
vn 0.90386885 0 0.42780975
vn 0.90386885 0 0.42780975
vn 0.90386885 0 0.42780975
vn -0.3430273 0 0.9393254
vn -0.3430273 0 0.9393254
vn -0.3430273 0 0.9393254
vn -0.3430273 0 0.9393254
vn -0.90387344 0 0.42780006
vn -0.90387344 0 0.42780006
vn -0.90387344 0 0.42780006
vn -0.90387344 0 0.42780006
vn 0.34302014 0 0.939328
vn 0.34302014 0 0.939328
vn 0.34302014 0 0.939328
vn 0.34302014 0 0.939328
vn -1 0 0
vn -1 0 0
vn -1 0 0
vn -1 0 0
vn -0 1 0
vn -0 1 0
vn -0 1 0
vn -0 1 0
vn 1 0 0
vn 1 0 0
vn 1 0 0
vn 1 0 0
vn -0 -1 0
vn -0 -1 0
vn -0 -1 0
vn -0 -1 0
vn -0.9242906 0 0.38168952
vn -0.9242906 0 0.38168952
vn -0.9242906 0 0.38168952
vn -0.9242906 0 0.38168952
vn -0 1 0
vn -0 1 0
vn -0 1 0
vn -0 1 0
vn -0 -1 0
vn -0 -1 0
vn -0 -1 0
vn -0 -1 0
vn -0 0 -1
vn -0 0 -1
vn -0 0 -1
vn -0 0 -1
vn -0 0 1
vn -0 0 1
vn -0 0 1
vn -0 0 1
vn -1 0 0
vn -1 0 0
vn -1 0 0
vn -1 0 0
vn -0 1 0
vn -0 1 0
vn -0 1 0
vn -0 1 0
vn -0 1 0
vn -0 1 0
vn -0 1 0
vn 1 0 0
vn 1 0 0
vn 1 0 0
vn 1 0 0
vn -0 -1 0
vn -0 -1 0
vn -0 -1 0
vn -0 -1 0
vn -0 -1 0
vn -0 -1 0
vn -0 -1 0
vn -0 0 -1
vn -0 0 -1
vn -0 0 -1
vn -0 0 -1
vn 0.903869 0 0.4278095
vn 0.903869 0 0.4278095
vn 0.903869 0 0.4278095
vn 0.903869 0 0.4278095
vn -0.3430273 0 0.9393254
vn -0.3430273 0 0.9393254
vn -0.3430273 0 0.9393254
vn -0.3430273 0 0.9393254
vn -0.90387344 0 0.42780006
vn -0.90387344 0 0.42780006
vn -0.90387344 0 0.42780006
vn -0.90387344 0 0.42780006
vn 0.3430211 0 0.9393277
vn 0.3430211 0 0.9393277
vn 0.3430211 0 0.9393277
vn 0.3430211 0 0.9393277
vn -1 0 0
vn -1 0 0
vn -1 0 0
vn -1 0 0
vn -0 1 0
vn -0 1 0
vn -0 1 0
vn -0 1 0
vn -0 1 0
vn -0 1 0
vn -0 1 0
vn 1 0 0
vn 1 0 0
vn 1 0 0
vn 1 0 0
vn -0 -1 0
vn -0 -1 0
vn -0 -1 0
vn -0 -1 0
vn -0 -1 0
vn -0 -1 0
vn -0 -1 0
vn -0 0 -1
vn -0 0 -1
vn -0 0 -1
vn -0 0 -1
vn 0.9038679 0 0.4278117
vn 0.9038679 0 0.4278117
vn 0.9038679 0 0.4278117
vn 0.9038679 0 0.4278117
vn -0.34302726 0 0.9393254
vn -0.34302726 0 0.9393254
vn -0.34302726 0 0.9393254
vn -0.34302726 0 0.9393254
vn -0.90387344 0 0.4278001
vn -0.90387344 0 0.4278001
vn -0.90387344 0 0.4278001
vn -0.90387344 0 0.4278001
vn 0.34302172 0 0.93932754
vn 0.34302172 0 0.93932754
vn 0.34302172 0 0.93932754
vn 0.34302172 0 0.93932754
vn -0 0.9572711 -0.28919193
vn -0 0.9572711 -0.28919193
vn -0 0.9572711 -0.28919193
vn -0 0.9572711 -0.28919193
vn -0 -0.89168614 0.45265427
vn -0 -0.89168614 0.45265427
vn -0 -0.89168614 0.45265427
vn -0 -0.89168614 0.45265427
vn 0.9242906 0 0.38168952
vn 0.9242906 0 0.38168952
vn 0.9242906 0 0.38168952
vn 0.9242906 0 0.38168952
vn -0 0.89168495 0.45265666
vn -0 0.89168495 0.45265666
vn -0 0.89168495 0.45265666
vn -0 0.89168495 0.45265666
vn -0 0.90884376 0.41713658
vn -0 0.90884376 0.41713658
vn -0 0.90884376 0.41713658
vn -0 0.90884376 0.41713658
vn -0.9711041 0 -0.23865609
vn -0.9711041 0 -0.23865609
vn -0.9711041 0 -0.23865609
vn -0.9711041 0 -0.23865609
vn -0 -0.95726717 -0.28920498
vn -0 -0.95726717 -0.28920498
vn -0 -0.95726717 -0.28920498
vn -0 -0.95726717 -0.28920498
vn 0.9711041 0 -0.23865609
vn 0.9711041 0 -0.23865609
vn 0.9711041 0 -0.23865609
vn 0.9711041 0 -0.23865609
vn -0 0 1
vn -0 0 1
vn -0 0 1
vn -0 0 1
vn -0.9368319 0 0.34978017
vn -0.9368319 0 0.34978017
vn -0.9368319 0 0.34978017
vn -0.9368319 0 0.34978017
vn -0 -0.90884674 0.41713026
vn -0 -0.90884674 0.41713026
vn -0 -0.90884674 0.41713026
vn -0 -0.90884674 0.41713026
vn 0.936833 0 0.3497771
vn 0.936833 0 0.3497771
vn 0.936833 0 0.3497771
vn 0.936833 0 0.3497771
vn -0 1 0
vn -0 1 0
vn -0 1 0
vn -0 1 0
vn -0 -1 0
vn -0 -1 0
vn -0 -1 0
vn -0 -1 0
vn -0 0 -1
vn -0 0 -1
vn -0 0 -1
vn -0 0 -1
vn -0 0 1
vn -0 0 1
vn -0 0 1
vn -0 0 1
vn -1 0 0
vn -1 0 0
vn -1 0 0
vn -1 0 0
vn -0 1 0
vn -0 1 0
vn -0 1 0
vn -0 1 0
vn -0 1 0
vn -0 1 0
vn -0 1 0
vn 1 0 0
vn 1 0 0
vn 1 0 0
vn 1 0 0
vn -0 -1 0
vn -0 -1 0
vn -0 -1 0
vn -0 -1 0
vn -0 -1 0
vn -0 -1 0
vn -0 -1 0
vn -0 0 -1
vn -0 0 -1
vn -0 0 -1
vn -0 0 -1
vn 0.90386885 0 0.42780975
vn 0.90386885 0 0.42780975
vn 0.90386885 0 0.42780975
vn 0.90386885 0 0.42780975
vn -0.3430273 0 0.9393254
vn -0.3430273 0 0.9393254
vn -0.3430273 0 0.9393254
vn -0.3430273 0 0.9393254
vn -0.90387344 0 0.42780006
vn -0.90387344 0 0.42780006
vn -0.90387344 0 0.42780006
vn -0.90387344 0 0.42780006
vn 0.34302014 0 0.939328
vn 0.34302014 0 0.939328
vn 0.34302014 0 0.939328
vn 0.34302014 0 0.939328
g fence_0
f 3/3/3 2/2/2 1/1/1
f 4/4/4 3/3/3 1/1/1
f 7/7/7 6/6/6 5/5/5
f 8/8/8 7/7/7 5/5/5
f 11/11/11 10/10/10 9/9/9
f 12/12/12 11/11/11 9/9/9
f 15/15/15 14/14/14 13/13/13
f 16/16/16 15/15/15 13/13/13
f 19/19/19 18/18/18 17/17/17
f 20/20/20 19/19/19 17/17/17
f 23/23/23 22/22/22 21/21/21
f 24/24/24 23/23/23 21/21/21
f 27/27/27 26/26/26 25/25/25
f 28/28/28 27/27/27 25/25/25
f 31/31/31 30/30/30 29/29/29
f 32/32/32 31/31/31 29/29/29
f 35/35/35 34/34/34 33/33/33
f 36/36/36 35/35/35 33/33/33
f 39/39/39 38/38/38 37/37/37
f 40/40/40 39/39/39 37/37/37
f 43/43/43 42/42/42 41/41/41
f 41/41/41 44/44/44 43/43/43
f 41/41/41 45/45/45 44/44/44
f 45/45/45 46/46/46 44/44/44
f 45/45/45 47/47/47 46/46/46
f 50/50/50 49/49/49 48/48/48
f 51/51/51 50/50/50 48/48/48
f 54/54/54 53/53/53 52/52/52
f 52/52/52 55/55/55 54/54/54
f 52/52/52 56/56/56 55/55/55
f 56/56/56 57/57/57 55/55/55
f 56/56/56 58/58/58 57/57/57
f 61/61/61 60/60/60 59/59/59
f 62/62/62 61/61/61 59/59/59
f 65/65/65 64/64/64 63/63/63
f 66/66/66 65/65/65 63/63/63
f 69/69/69 68/68/68 67/67/67
f 70/70/70 69/69/69 67/67/67
f 73/73/73 72/72/72 71/71/71
f 74/74/74 73/73/73 71/71/71
f 77/77/77 76/76/76 75/75/75
f 78/78/78 77/77/77 75/75/75
f 81/81/81 80/80/80 79/79/79
f 82/82/82 81/81/81 79/79/79
f 85/85/85 84/84/84 83/83/83
f 83/83/83 86/86/86 85/85/85
f 83/83/83 87/87/87 86/86/86
f 87/87/87 88/88/88 86/86/86
f 87/87/87 89/89/89 88/88/88
f 92/92/92 91/91/91 90/90/90
f 93/93/93 92/92/92 90/90/90
f 96/96/96 95/95/95 94/94/94
f 94/94/94 97/97/97 96/96/96
f 94/94/94 98/98/98 97/97/97
f 98/98/98 99/99/99 97/97/97
f 98/98/98 100/100/100 99/99/99
f 103/103/103 102/102/102 101/101/101
f 104/104/104 103/103/103 101/101/101
f 107/107/107 106/106/106 105/105/105
f 108/108/108 107/107/107 105/105/105
f 111/111/111 110/110/110 109/109/109
f 112/112/112 111/111/111 109/109/109
f 115/115/115 114/114/114 113/113/113
f 116/116/116 115/115/115 113/113/113
f 119/119/119 118/118/118 117/117/117
f 120/120/120 119/119/119 117/117/117
f 123/123/123 122/122/122 121/121/121
f 124/124/124 123/123/123 121/121/121
f 127/127/127 126/126/126 125/125/125
f 128/128/128 127/127/127 125/125/125
f 131/131/131 130/130/130 129/129/129
f 132/132/132 131/131/131 129/129/129
f 135/135/135 134/134/134 133/133/133
f 136/136/136 135/135/135 133/133/133
f 139/139/139 138/138/138 137/137/137
f 140/140/140 139/139/139 137/137/137
f 143/143/143 142/142/142 141/141/141
f 144/144/144 143/143/143 141/141/141
f 147/147/147 146/146/146 145/145/145
f 148/148/148 147/147/147 145/145/145
f 151/151/151 150/150/150 149/149/149
f 152/152/152 151/151/151 149/149/149
f 155/155/155 154/154/154 153/153/153
f 156/156/156 155/155/155 153/153/153
f 159/159/159 158/158/158 157/157/157
f 160/160/160 159/159/159 157/157/157
f 163/163/163 162/162/162 161/161/161
f 164/164/164 163/163/163 161/161/161
f 167/167/167 166/166/166 165/165/165
f 168/168/168 167/167/167 165/165/165
f 171/171/171 170/170/170 169/169/169
f 172/172/172 171/171/171 169/169/169
f 175/175/175 174/174/174 173/173/173
f 176/176/176 175/175/175 173/173/173
f 179/179/179 178/178/178 177/177/177
f 180/180/180 179/179/179 177/177/177
f 183/183/183 182/182/182 181/181/181
f 184/184/184 183/183/183 181/181/181
f 187/187/187 186/186/186 185/185/185
f 188/188/188 187/187/187 185/185/185
f 191/191/191 190/190/190 189/189/189
f 189/189/189 192/192/192 191/191/191
f 189/189/189 193/193/193 192/192/192
f 193/193/193 194/194/194 192/192/192
f 193/193/193 195/195/195 194/194/194
f 198/198/198 197/197/197 196/196/196
f 199/199/199 198/198/198 196/196/196
f 202/202/202 201/201/201 200/200/200
f 200/200/200 203/203/203 202/202/202
f 200/200/200 204/204/204 203/203/203
f 204/204/204 205/205/205 203/203/203
f 204/204/204 206/206/206 205/205/205
f 209/209/209 208/208/208 207/207/207
f 210/210/210 209/209/209 207/207/207
f 213/213/213 212/212/212 211/211/211
f 214/214/214 213/213/213 211/211/211
f 217/217/217 216/216/216 215/215/215
f 218/218/218 217/217/217 215/215/215
f 221/221/221 220/220/220 219/219/219
f 222/222/222 221/221/221 219/219/219
f 225/225/225 224/224/224 223/223/223
f 226/226/226 225/225/225 223/223/223
f 229/229/229 228/228/228 227/227/227
f 230/230/230 229/229/229 227/227/227
f 233/233/233 232/232/232 231/231/231
f 234/234/234 233/233/233 231/231/231
f 237/237/237 236/236/236 235/235/235
f 238/238/238 237/237/237 235/235/235
f 241/241/241 240/240/240 239/239/239
f 242/242/242 241/241/241 239/239/239
f 245/245/245 244/244/244 243/243/243
f 246/246/246 245/245/245 243/243/243
f 249/249/249 248/248/248 247/247/247
f 250/250/250 249/249/249 247/247/247
f 253/253/253 252/252/252 251/251/251
f 254/254/254 253/253/253 251/251/251
f 257/257/257 256/256/256 255/255/255
f 258/258/258 257/257/257 255/255/255
f 261/261/261 260/260/260 259/259/259
f 262/262/262 261/261/261 259/259/259
f 265/265/265 264/264/264 263/263/263
f 266/266/266 265/265/265 263/263/263
f 269/269/269 268/268/268 267/267/267
f 267/267/267 270/270/270 269/269/269
f 267/267/267 271/271/271 270/270/270
f 271/271/271 272/272/272 270/270/270
f 271/271/271 273/273/273 272/272/272
f 276/276/276 275/275/275 274/274/274
f 277/277/277 276/276/276 274/274/274
f 280/280/280 279/279/279 278/278/278
f 278/278/278 281/281/281 280/280/280
f 278/278/278 282/282/282 281/281/281
f 282/282/282 283/283/283 281/281/281
f 282/282/282 284/284/284 283/283/283
f 287/287/287 286/286/286 285/285/285
f 288/288/288 287/287/287 285/285/285
f 291/291/291 290/290/290 289/289/289
f 292/292/292 291/291/291 289/289/289
f 295/295/295 294/294/294 293/293/293
f 296/296/296 295/295/295 293/293/293
f 299/299/299 298/298/298 297/297/297
f 300/300/300 299/299/299 297/297/297
f 303/303/303 302/302/302 301/301/301
f 304/304/304 303/303/303 301/301/301
f 307/307/307 306/306/306 305/305/305
f 308/308/308 307/307/307 305/305/305
f 311/311/311 310/310/310 309/309/309
f 309/309/309 312/312/312 311/311/311
f 309/309/309 313/313/313 312/312/312
f 313/313/313 314/314/314 312/312/312
f 313/313/313 315/315/315 314/314/314
f 318/318/318 317/317/317 316/316/316
f 319/319/319 318/318/318 316/316/316
f 322/322/322 321/321/321 320/320/320
f 320/320/320 323/323/323 322/322/322
f 320/320/320 324/324/324 323/323/323
f 324/324/324 325/325/325 323/323/323
f 324/324/324 326/326/326 325/325/325
f 329/329/329 328/328/328 327/327/327
f 330/330/330 329/329/329 327/327/327
f 333/333/333 332/332/332 331/331/331
f 334/334/334 333/333/333 331/331/331
f 337/337/337 336/336/336 335/335/335
f 338/338/338 337/337/337 335/335/335
f 341/341/341 340/340/340 339/339/339
f 342/342/342 341/341/341 339/339/339
f 345/345/345 344/344/344 343/343/343
f 346/346/346 345/345/345 343/343/343
f 349/349/349 348/348/348 347/347/347
f 350/350/350 349/349/349 347/347/347
f 353/353/353 352/352/352 351/351/351
f 354/354/354 353/353/353 351/351/351
f 357/357/357 356/356/356 355/355/355
f 358/358/358 357/357/357 355/355/355
f 361/361/361 360/360/360 359/359/359
f 362/362/362 361/361/361 359/359/359
f 365/365/365 364/364/364 363/363/363
f 366/366/366 365/365/365 363/363/363
f 369/369/369 368/368/368 367/367/367
f 370/370/370 369/369/369 367/367/367
f 373/373/373 372/372/372 371/371/371
f 374/374/374 373/373/373 371/371/371
f 377/377/377 376/376/376 375/375/375
f 378/378/378 377/377/377 375/375/375
f 381/381/381 380/380/380 379/379/379
f 382/382/382 381/381/381 379/379/379
f 385/385/385 384/384/384 383/383/383
f 386/386/386 385/385/385 383/383/383
f 389/389/389 388/388/388 387/387/387
f 390/390/390 389/389/389 387/387/387
f 393/393/393 392/392/392 391/391/391
f 394/394/394 393/393/393 391/391/391
f 397/397/397 396/396/396 395/395/395
f 398/398/398 397/397/397 395/395/395
f 401/401/401 400/400/400 399/399/399
f 402/402/402 401/401/401 399/399/399
f 405/405/405 404/404/404 403/403/403
f 406/406/406 405/405/405 403/403/403
f 409/409/409 408/408/408 407/407/407
f 410/410/410 409/409/409 407/407/407
f 413/413/413 412/412/412 411/411/411
f 414/414/414 413/413/413 411/411/411
f 417/417/417 416/416/416 415/415/415
f 415/415/415 418/418/418 417/417/417
f 415/415/415 419/419/419 418/418/418
f 419/419/419 420/420/420 418/418/418
f 419/419/419 421/421/421 420/420/420
f 424/424/424 423/423/423 422/422/422
f 425/425/425 424/424/424 422/422/422
f 428/428/428 427/427/427 426/426/426
f 426/426/426 429/429/429 428/428/428
f 426/426/426 430/430/430 429/429/429
f 430/430/430 431/431/431 429/429/429
f 430/430/430 432/432/432 431/431/431
f 435/435/435 434/434/434 433/433/433
f 436/436/436 435/435/435 433/433/433
f 439/439/439 438/438/438 437/437/437
f 440/440/440 439/439/439 437/437/437
f 443/443/443 442/442/442 441/441/441
f 444/444/444 443/443/443 441/441/441
f 447/447/447 446/446/446 445/445/445
f 448/448/448 447/447/447 445/445/445
f 451/451/451 450/450/450 449/449/449
f 452/452/452 451/451/451 449/449/449
f 455/455/455 454/454/454 453/453/453
f 456/456/456 455/455/455 453/453/453
f 459/459/459 458/458/458 457/457/457
f 460/460/460 459/459/459 457/457/457
f 463/463/463 462/462/462 461/461/461
f 464/464/464 463/463/463 461/461/461
f 467/467/467 466/466/466 465/465/465
f 468/468/468 467/467/467 465/465/465
f 471/471/471 470/470/470 469/469/469
f 472/472/472 471/471/471 469/469/469
f 475/475/475 474/474/474 473/473/473
f 476/476/476 475/475/475 473/473/473
f 479/479/479 478/478/478 477/477/477
f 480/480/480 479/479/479 477/477/477
f 483/483/483 482/482/482 481/481/481
f 484/484/484 483/483/483 481/481/481
f 487/487/487 486/486/486 485/485/485
f 488/488/488 487/487/487 485/485/485
f 491/491/491 490/490/490 489/489/489
f 492/492/492 491/491/491 489/489/489
f 495/495/495 494/494/494 493/493/493
f 493/493/493 496/496/496 495/495/495
f 493/493/493 497/497/497 496/496/496
f 497/497/497 498/498/498 496/496/496
f 497/497/497 499/499/499 498/498/498
f 502/502/502 501/501/501 500/500/500
f 503/503/503 502/502/502 500/500/500
f 506/506/506 505/505/505 504/504/504
f 504/504/504 507/507/507 506/506/506
f 504/504/504 508/508/508 507/507/507
f 508/508/508 509/509/509 507/507/507
f 508/508/508 510/510/510 509/509/509
f 513/513/513 512/512/512 511/511/511
f 514/514/514 513/513/513 511/511/511
f 517/517/517 516/516/516 515/515/515
f 518/518/518 517/517/517 515/515/515
f 521/521/521 520/520/520 519/519/519
f 522/522/522 521/521/521 519/519/519
f 525/525/525 524/524/524 523/523/523
f 526/526/526 525/525/525 523/523/523
f 529/529/529 528/528/528 527/527/527
f 530/530/530 529/529/529 527/527/527
f 533/533/533 532/532/532 531/531/531
f 534/534/534 533/533/533 531/531/531
f 537/537/537 536/536/536 535/535/535
f 535/535/535 538/538/538 537/537/537
f 535/535/535 539/539/539 538/538/538
f 539/539/539 540/540/540 538/538/538
f 539/539/539 541/541/541 540/540/540
f 544/544/544 543/543/543 542/542/542
f 545/545/545 544/544/544 542/542/542
f 548/548/548 547/547/547 546/546/546
f 546/546/546 549/549/549 548/548/548
f 546/546/546 550/550/550 549/549/549
f 550/550/550 551/551/551 549/549/549
f 550/550/550 552/552/552 551/551/551
f 555/555/555 554/554/554 553/553/553
f 556/556/556 555/555/555 553/553/553
f 559/559/559 558/558/558 557/557/557
f 560/560/560 559/559/559 557/557/557
f 563/563/563 562/562/562 561/561/561
f 564/564/564 563/563/563 561/561/561
f 567/567/567 566/566/566 565/565/565
f 568/568/568 567/567/567 565/565/565
f 571/571/571 570/570/570 569/569/569
f 572/572/572 571/571/571 569/569/569
f 575/575/575 574/574/574 573/573/573
f 576/576/576 575/575/575 573/573/573
f 579/579/579 578/578/578 577/577/577
f 580/580/580 579/579/579 577/577/577
f 583/583/583 582/582/582 581/581/581
f 584/584/584 583/583/583 581/581/581
f 587/587/587 586/586/586 585/585/585
f 588/588/588 587/587/587 585/585/585
f 591/591/591 590/590/590 589/589/589
f 592/592/592 591/591/591 589/589/589
f 595/595/595 594/594/594 593/593/593
f 596/596/596 595/595/595 593/593/593
f 599/599/599 598/598/598 597/597/597
f 600/600/600 599/599/599 597/597/597
f 603/603/603 602/602/602 601/601/601
f 604/604/604 603/603/603 601/601/601
f 607/607/607 606/606/606 605/605/605
f 608/608/608 607/607/607 605/605/605
f 611/611/611 610/610/610 609/609/609
f 612/612/612 611/611/611 609/609/609
f 615/615/615 614/614/614 613/613/613
f 616/616/616 615/615/615 613/613/613
f 619/619/619 618/618/618 617/617/617
f 620/620/620 619/619/619 617/617/617
f 623/623/623 622/622/622 621/621/621
f 624/624/624 623/623/623 621/621/621
f 627/627/627 626/626/626 625/625/625
f 628/628/628 627/627/627 625/625/625
f 631/631/631 630/630/630 629/629/629
f 632/632/632 631/631/631 629/629/629
f 635/635/635 634/634/634 633/633/633
f 636/636/636 635/635/635 633/633/633
f 639/639/639 638/638/638 637/637/637
f 640/640/640 639/639/639 637/637/637
f 643/643/643 642/642/642 641/641/641
f 641/641/641 644/644/644 643/643/643
f 641/641/641 645/645/645 644/644/644
f 645/645/645 646/646/646 644/644/644
f 645/645/645 647/647/647 646/646/646
f 650/650/650 649/649/649 648/648/648
f 651/651/651 650/650/650 648/648/648
f 654/654/654 653/653/653 652/652/652
f 652/652/652 655/655/655 654/654/654
f 652/652/652 656/656/656 655/655/655
f 656/656/656 657/657/657 655/655/655
f 656/656/656 658/658/658 657/657/657
f 661/661/661 660/660/660 659/659/659
f 662/662/662 661/661/661 659/659/659
f 665/665/665 664/664/664 663/663/663
f 666/666/666 665/665/665 663/663/663
f 669/669/669 668/668/668 667/667/667
f 670/670/670 669/669/669 667/667/667
f 673/673/673 672/672/672 671/671/671
f 674/674/674 673/673/673 671/671/671
f 677/677/677 676/676/676 675/675/675
f 678/678/678 677/677/677 675/675/675
