g fence.002
v 1.4305115E-07 -0.17322132 0
v 1.4305115E-07 0.121807754 0
v 1.4305115E-07 0.121807754 0.94962025
v 1.4305115E-07 -0.17322132 0.94962025
v 1.4305115E-07 0.121807754 0
v 0.30000007 0.121807754 0
v 0.30000007 0.121807754 0.94962025
v 1.4305115E-07 0.121807754 0.94962025
v 0.30000007 0.121807754 0
v 0.30000007 -0.17322132 0
v 0.30000007 -0.17322132 0.94962025
v 0.30000007 0.121807754 0.94962025
v 0.30000007 -0.17322132 0
v 1.4305115E-07 -0.17322132 0
v 1.4305115E-07 -0.17322132 0.94962025
v 0.30000007 -0.17322132 0.94962025
v 1.4305115E-07 0.121807754 0.94962025
v 0.034226567 0.0797334 1.0325022
v 0.034226567 -0.13114724 1.0325022
v 1.4305115E-07 -0.17322132 0.94962025
v 0.2657736 0.0797334 1.0325022
v 0.2977777 0.11907461 1.1627276
v 0.0022226572 0.11907461 1.1627276
v 0.034226567 0.0797334 1.0325022
v 1.4305115E-07 -0.17322132 0.94962025
v 0.034226567 -0.13114724 1.0325022
v 0.2657736 -0.13114724 1.0325022
v 0.30000007 -0.17322132 0.94962025
v 0.30000007 -0.17322132 0.94962025
v 0.2657736 -0.13114724 1.0325022
v 0.2657736 0.0797334 1.0325022
v 0.30000007 0.121807754 0.94962025
v 0.30000007 0.121807754 0.94962025
v 0.2657736 0.0797334 1.0325022
v 0.034226567 0.0797334 1.0325022
v 1.4305115E-07 0.121807754 0.94962025
v 0.2977777 0.11907461 1.1627276
v 0.25022936 0.060623214 1.2900796
v 0.049771354 0.060623214 1.2900796
v 0.0022226572 0.11907461 1.1627276
v 0.034226567 0.0797334 1.0325022
v 0.0022226572 0.11907461 1.1627276
v 0.0022226572 -0.17049038 1.1627276
v 0.034226567 -0.13114724 1.0325022
v 0.034226567 -0.13114724 1.0325022
v 0.0022226572 -0.17049038 1.1627276
v 0.2977777 -0.17049038 1.1627276
v 0.2657736 -0.13114724 1.0325022
v 0.2657736 -0.13114724 1.0325022
v 0.2977777 -0.17049038 1.1627276
v 0.2977777 0.11907461 1.1627276
v 0.2657736 0.0797334 1.0325022
v 0.25022936 -0.11204004 1.2900796
v 0.049771354 -0.11204004 1.2900796
v 0.049771354 0.060623214 1.2900796
v 0.25022936 0.060623214 1.2900796
v 0.0022226572 0.11907461 1.1627276
v 0.049771354 0.060623214 1.2900796
v 0.049771354 -0.11204004 1.2900796
v 0.0022226572 -0.17049038 1.1627276
v 0.0022226572 -0.17049038 1.1627276
v 0.049771354 -0.11204004 1.2900796
v 0.25022936 -0.11204004 1.2900796
v 0.2977777 -0.17049038 1.1627276
v 0.2977777 -0.17049038 1.1627276
v 0.25022936 -0.11204004 1.2900796
v 0.25022936 0.060623214 1.2900796
v 0.2977777 0.11907461 1.1627276
vt 0.53118134 0.03268063
vt 0.53118134 0.03268063
vt 0.53118134 0.03268063
vt 0.53118134 0.03268063
vt 0.53118134 0.03268063
vt 0.53118134 0.03268063
vt 0.53118134 0.03268063
vt 0.53118134 0.03268063
vt 0.53118134 0.03268063
vt 0.53118134 0.03268063
vt 0.53118134 0.03268063
vt 0.53118134 0.03268063
vt 0.53118134 0.03268063
vt 0.53118134 0.03268063
vt 0.53118134 0.03268063
vt 0.53118134 0.03268063
vt 0.53118134 0.03268063
vt 0.53118134 0.03268063
vt 0.53118134 0.03268063
vt 0.53118134 0.03268063
vt 0.53118134 0.03268063
vt 0.53118134 0.03268063
vt 0.53118134 0.03268063
vt 0.53118134 0.03268063
vt 0.53118134 0.03268063
vt 0.53118134 0.03268063
vt 0.53118134 0.03268063
vt 0.53118134 0.03268063
vt 0.53118134 0.03268063
vt 0.53118134 0.03268063
vt 0.53118134 0.03268063
vt 0.53118134 0.03268063
vt 0.53118134 0.03268063
vt 0.53118134 0.03268063
vt 0.53118134 0.03268063
vt 0.53118134 0.03268063
vt 0.53118134 0.03268063
vt 0.53118134 0.03268063
vt 0.53118134 0.03268063
vt 0.53118134 0.03268063
vt 0.53118134 0.03268063
vt 0.53118134 0.03268063
vt 0.53118134 0.03268063
vt 0.53118134 0.03268063
vt 0.53118134 0.03268063
vt 0.53118134 0.03268063
vt 0.53118134 0.03268063
vt 0.53118134 0.03268063
vt 0.53118134 0.03268063
vt 0.53118134 0.03268063
vt 0.53118134 0.03268063
vt 0.53118134 0.03268063
vt 0.53118134 0.03268063
vt 0.53118134 0.03268063
vt 0.53118134 0.03268063
vt 0.53118134 0.03268063
vt 0.53118134 0.03268063
vt 0.53118134 0.03268063
vt 0.53118134 0.03268063
vt 0.53118134 0.03268063
vt 0.53118134 0.03268063
vt 0.53118134 0.03268063
vt 0.53118134 0.03268063
vt 0.53118134 0.03268063
vt 0.53118134 0.03268063
vt 0.53118134 0.03268063
vt 0.53118134 0.03268063
vt 0.53118134 0.03268063
vn -1 0 0
vn -1 0 0
vn -1 0 0
vn -1 0 0
vn -0 1 0
vn -0 1 0
vn -0 1 0
vn -0 1 0
vn 1 0 0
vn 1 0 0
vn 1 0 0
vn 1 0 0
vn -0 -1 0
vn -0 -1 0
vn -0 -1 0
vn -0 -1 0
vn -0.9242906 0 0.38168958
vn -0.9242906 0 0.38168958
vn -0.9242906 0 0.38168958
vn -0.9242906 0 0.38168958
vn -0 0.95727104 -0.28919244
vn -0 0.95727104 -0.28919244
vn -0 0.95727104 -0.28919244
vn -0 0.95727104 -0.28919244
vn -0 -0.89168596 0.45265445
vn -0 -0.89168596 0.45265445
vn -0 -0.89168596 0.45265445
vn -0 -0.89168596 0.45265445
vn 0.92429036 0 0.38169006
vn 0.92429036 0 0.38169006
vn 0.92429036 0 0.38169006
vn 0.92429036 0 0.38169006
vn -0 0.89168495 0.45265666
vn -0 0.89168495 0.45265666
vn -0 0.89168495 0.45265666
vn -0 0.89168495 0.45265666
vn -0 0.90884376 0.41713667
vn -0 0.90884376 0.41713667
vn -0 0.90884376 0.41713667
vn -0 0.90884376 0.41713667
vn -0.9711041 0 -0.2386563
vn -0.9711041 0 -0.2386563
vn -0.9711041 0 -0.2386563
vn -0.9711041 0 -0.2386563
vn -0 -0.9572671 -0.2892055
vn -0 -0.9572671 -0.2892055
vn -0 -0.9572671 -0.2892055
vn -0 -0.9572671 -0.2892055
vn 0.9711038 0 -0.23865779
vn 0.9711038 0 -0.23865779
vn 0.9711038 0 -0.23865779
vn 0.9711038 0 -0.23865779
vn -0 0 1
vn -0 0 1
vn -0 0 1
vn -0 0 1
vn -0.93683195 0 0.34977964
vn -0.93683195 0 0.34977964
vn -0.93683195 0 0.34977964
vn -0.93683195 0 0.34977964
vn -0 -0.9088466 0.41713035
vn -0 -0.9088466 0.41713035
vn -0 -0.9088466 0.41713035
vn -0 -0.9088466 0.41713035
vn 0.9368328 0 0.3497774
vn 0.9368328 0 0.3497774
vn 0.9368328 0 0.3497774
vn 0.9368328 0 0.3497774
g fence.002_0
f 3/3/3 2/2/2 1/1/1
f 4/4/4 3/3/3 1/1/1
f 7/7/7 6/6/6 5/5/5
f 8/8/8 7/7/7 5/5/5
f 11/11/11 10/10/10 9/9/9
f 12/12/12 11/11/11 9/9/9
f 15/15/15 14/14/14 13/13/13
f 16/16/16 15/15/15 13/13/13
f 19/19/19 18/18/18 17/17/17
f 20/20/20 19/19/19 17/17/17
f 23/23/23 22/22/22 21/21/21
f 24/24/24 23/23/23 21/21/21
f 27/27/27 26/26/26 25/25/25
f 28/28/28 27/27/27 25/25/25
f 31/31/31 30/30/30 29/29/29
f 32/32/32 31/31/31 29/29/29
f 35/35/35 34/34/34 33/33/33
f 36/36/36 35/35/35 33/33/33
f 39/39/39 38/38/38 37/37/37
f 40/40/40 39/39/39 37/37/37
f 43/43/43 42/42/42 41/41/41
f 44/44/44 43/43/43 41/41/41
f 47/47/47 46/46/46 45/45/45
f 48/48/48 47/47/47 45/45/45
f 51/51/51 50/50/50 49/49/49
f 52/52/52 51/51/51 49/49/49
f 55/55/55 54/54/54 53/53/53
f 56/56/56 55/55/55 53/53/53
f 59/59/59 58/58/58 57/57/57
f 60/60/60 59/59/59 57/57/57
f 63/63/63 62/62/62 61/61/61
f 64/64/64 63/63/63 61/61/61
f 67/67/67 66/66/66 65/65/65
f 68/68/68 67/67/67 65/65/65
