g fenceDoor
v -0.39999646 5.9604304E-08 -0.4000001
v -0.39999646 2.5 -0.40000105
v -0.39999646 2.5 0.39999914
v -0.39999646 -5.9604986E-08 0.39999914
v -0.39999646 2.5 -0.40000105
v 0.4000035 2.5 -0.40000105
v 0.4000035 2.5 0.39999914
v -0.39999646 2.5 0.39999914
v 0.4000035 2.5 -0.40000105
v 0.4000035 5.9604304E-08 -0.4000001
v 0.4000035 -5.9604986E-08 0.39999914
v 0.4000035 2.5 0.39999914
v -0.39999646 2.5 -0.40000105
v -0.39999646 5.9604304E-08 -0.4000001
v 0.4000035 5.9604304E-08 -0.4000001
v 0.4000035 2.5 -0.40000105
v 0.4000035 2.5 0.39999914
v 0.4000035 -5.9604986E-08 0.39999914
v -0.39999646 -5.9604986E-08 0.39999914
v -0.39999646 2.5 0.39999914
v -0.23629475 2.336839 -2.4984038E-07
v 0.16223907 2.336839 -9.46456E-08
v 0.20246261 2.3368392 3.5999994
v -0.19897324 2.3368392 3.5999994
v -0.19897324 2.3368392 3.5999994
v -0.19897324 1.8631617 3.5999994
v -0.23629475 1.8631611 -1.7266846E-07
v -0.23629475 2.336839 -2.4984038E-07
v 0.16223907 1.8631611 -1.747367E-08
v 0.20246261 1.8631617 3.5999994
v 0.20246261 2.3368392 3.5999994
v 0.16223907 2.336839 -9.46456E-08
v 0.16223907 1.8631611 -1.747367E-08
v -0.23629475 1.8631611 -1.7266846E-07
v -0.19897324 1.8631617 3.5999994
v 0.20246261 1.8631617 3.5999994
v -0.23629475 0.83683896 -5.4593663E-09
v 0.16223907 0.83683896 1.4973543E-07
v 0.20246261 0.8368394 3.5999994
v -0.19897324 0.8368394 3.5999994
v -0.19897324 0.8368394 3.5999994
v -0.19897324 0.3631615 3.5999994
v -0.23629475 0.36316115 7.171255E-08
v -0.23629475 0.83683896 -5.4593663E-09
v 0.16223907 0.36316115 2.2690735E-07
v 0.20246261 0.3631615 3.5999994
v 0.20246261 0.8368394 3.5999994
v 0.16223907 0.83683896 1.4973543E-07
v 0.16223907 0.36316115 2.2690735E-07
v -0.23629475 0.36316115 7.171255E-08
v -0.19897324 0.3631615 3.5999994
v 0.20246261 0.3631615 3.5999994
v -0.3289628 4.172325E-07 3.3826427
v -0.3289628 2.5000005 3.3826418
v -0.3289628 2.5000005 4.040573
v -0.3289628 2.9802322E-07 4.040573
v -0.3289628 2.5000005 3.3826418
v 0.3289686 2.5000005 3.3826418
v 0.3289686 2.5000005 4.040573
v -0.3289628 2.5000005 4.040573
v 0.3289686 2.5000005 3.3826418
v 0.3289686 4.172325E-07 3.3826427
v 0.3289686 2.9802322E-07 4.040573
v 0.3289686 2.5000005 4.040573
v -0.3289628 2.5000005 3.3826418
v -0.3289628 4.172325E-07 3.3826427
v 0.3289686 4.172325E-07 3.3826427
v 0.3289686 2.5000005 3.3826418
v 0.3289686 2.5000005 4.040573
v 0.3289686 2.9802322E-07 4.040573
v -0.3289628 2.9802322E-07 4.040573
v -0.3289628 2.5000005 4.040573
v -0.5473643 0.805807 0.49311543
v -0.2591688 0.80578184 0.49335694
v -0.22513288 2.2461543 3.435381
v -0.51578397 2.2460353 3.4351683
v -0.51578397 2.2460353 3.4351683
v -0.51578397 1.9015232 3.506647
v -0.5473643 0.461156 0.56462216
v -0.5473643 0.805807 0.49311543
v -0.2591688 0.46127486 0.5648339
v -0.22513288 1.9014982 3.5068884
v -0.22513288 2.2461543 3.435381
v -0.2591688 0.80578184 0.49335694
v -0.2591688 0.46127486 0.5648339
v -0.5473643 0.461156 0.56462216
v -0.51578397 1.9015232 3.506647
v -0.22513288 1.9014982 3.5068884
v -0.3289628 2.9802322E-07 4.040573
v 0.3289686 2.9802322E-07 4.040573
v 0.3289686 4.172325E-07 3.3826427
v -0.3289628 4.172325E-07 3.3826427
vt 0.21802151 0.027448177
vt 0.21802151 0.027448177
vt 0.21802151 0.027448177
vt 0.21802151 0.027448177
vt 0.21802151 0.027448177
vt 0.21802151 0.027448177
vt 0.21802151 0.027448177
vt 0.21802151 0.027448177
vt 0.21802151 0.027448177
vt 0.21802151 0.027448177
vt 0.21802151 0.027448177
vt 0.21802151 0.027448177
vt 0.21802151 0.027448177
vt 0.21802151 0.027448177
vt 0.21802151 0.027448177
vt 0.21802151 0.027448177
vt 0.21802151 0.027448177
vt 0.21802151 0.027448177
vt 0.21802151 0.027448177
vt 0.21802151 0.027448177
vt 0.21802151 0.027448177
vt 0.21802151 0.027448177
vt 0.21802151 0.027448177
vt 0.21802151 0.027448177
vt 0.21802151 0.027448177
vt 0.21802151 0.027448177
vt 0.21802151 0.027448177
vt 0.21802151 0.027448177
vt 0.21802151 0.027448177
vt 0.21802151 0.027448177
vt 0.21802151 0.027448177
vt 0.21802151 0.027448177
vt 0.21802151 0.027448177
vt 0.21802151 0.027448177
vt 0.21802151 0.027448177
vt 0.21802151 0.027448177
vt 0.21802151 0.027448177
vt 0.21802151 0.027448177
vt 0.21802151 0.027448177
vt 0.21802151 0.027448177
vt 0.21802151 0.027448177
vt 0.21802151 0.027448177
vt 0.21802151 0.027448177
vt 0.21802151 0.027448177
vt 0.21802151 0.027448177
vt 0.21802151 0.027448177
vt 0.21802151 0.027448177
vt 0.21802151 0.027448177
vt 0.21802151 0.027448177
vt 0.21802151 0.027448177
vt 0.21802151 0.027448177
vt 0.21802151 0.027448177
vt 0.21802151 0.027448177
vt 0.21802151 0.027448177
vt 0.21802151 0.027448177
vt 0.21802151 0.027448177
vt 0.21802151 0.027448177
vt 0.21802151 0.027448177
vt 0.21802151 0.027448177
vt 0.21802151 0.027448177
vt 0.21802151 0.027448177
vt 0.21802151 0.027448177
vt 0.21802151 0.027448177
vt 0.21802151 0.027448177
vt 0.21802151 0.027448177
vt 0.21802151 0.027448177
vt 0.21802151 0.027448177
vt 0.21802151 0.027448177
vt 0.21802151 0.027448177
vt 0.21802151 0.027448177
vt 0.21802151 0.027448177
vt 0.21802151 0.027448177
vt 0.21802151 0.027448177
vt 0.21802151 0.027448177
vt 0.21802151 0.027448177
vt 0.21802151 0.027448177
vt 0.21802151 0.027448177
vt 0.21802151 0.027448177
vt 0.21802151 0.027448177
vt 0.21802151 0.027448177
vt 0.21802151 0.027448177
vt 0.21802151 0.027448177
vt 0.21802151 0.027448177
vt 0.21802151 0.027448177
vt 0.21802151 0.027448177
vt 0.21802151 0.027448177
vt 0.21802151 0.027448177
vt 0.21802151 0.027448177
vt 0.21802151 0.027448177
vt 0.21802151 0.027448177
vt 0.21802151 0.027448177
vt 0.21802151 0.027448177
vn -1 0 0
vn -1 0 0
vn -1 0 0
vn -1 0 0
vn -0 1 0
vn -0 1 0
vn -0 1 0
vn -0 1 0
vn 1 0 0
vn 1 0 0
vn 1 0 0
vn 1 0 0
vn -0 0 -1
vn -0 0 -1
vn -0 0 -1
vn -0 0 -1
vn -0 0 1
vn -0 0 1
vn -0 0 1
vn -0 0 1
vn -0 1 0
vn -0 1 0
vn -0 1 0
vn -0 1 0
vn -0.99994624 0 0.010366533
vn -0.99994624 0 0.010366533
vn -0.99994624 0 0.010366533
vn -0.99994624 0 0.010366533
vn 0.99993765 0 -0.011172516
vn 0.99993765 0 -0.011172516
vn 0.99993765 0 -0.011172516
vn 0.99993765 0 -0.011172516
vn -0 -1 0
vn -0 -1 0
vn -0 -1 0
vn -0 -1 0
vn -0 1 0
vn -0 1 0
vn -0 1 0
vn -0 1 0
vn -0.99994624 0 0.010366531
vn -0.99994624 0 0.010366531
vn -0.99994624 0 0.010366531
vn -0.99994624 0 0.010366531
vn 0.99993765 0 -0.011172513
vn 0.99993765 0 -0.011172513
vn 0.99993765 0 -0.011172513
vn 0.99993765 0 -0.011172513
vn -0 -1 0
vn -0 -1 0
vn -0 -1 0
vn -0 -1 0
vn -1 0 0
vn -1 0 0
vn -1 0 0
vn -1 0 0
vn -0 1 0
vn -0 1 0
vn -0 1 0
vn -0 1 0
vn 1 0 0
vn 1 0 0
vn 1 0 0
vn 1 0 0
vn -0 0 -1
vn -0 0 -1
vn -0 0 -1
vn -0 0 -1
vn -0 0 1
vn -0 0 1
vn -0 0 1
vn -0 0 1
vn 0.00019942618 0.898146 -0.43969738
vn 0.00019942618 0.898146 -0.43969738
vn 0.00019942618 0.898146 -0.43969738
vn 0.00019942618 0.898146 -0.43969738
vn -0.9999505 0.0020216939 0.009743922
vn -0.9999505 0.0020216939 0.009743922
vn -0.9999505 0.0020216939 0.009743922
vn -0.9999505 0.0020216939 0.009743922
vn 0.99994254 -0.0021787998 -0.010501509
vn 0.99994254 -0.0021787998 -0.010501509
vn 0.99994254 -0.0021787998 -0.010501509
vn 0.99994254 -0.0021787998 -0.010501509
vn -0.0001986718 -0.89814675 0.4396959
vn -0.0001986718 -0.89814675 0.4396959
vn -0.0001986718 -0.89814675 0.4396959
vn -0.0001986718 -0.89814675 0.4396959
vn -0 -1 0
vn -0 -1 0
vn -0 -1 0
vn -0 -1 0
g fenceDoor_0
f 3/3/3 2/2/2 1/1/1
f 4/4/4 3/3/3 1/1/1
f 7/7/7 6/6/6 5/5/5
f 8/8/8 7/7/7 5/5/5
f 11/11/11 10/10/10 9/9/9
f 12/12/12 11/11/11 9/9/9
f 15/15/15 14/14/14 13/13/13
f 16/16/16 15/15/15 13/13/13
f 19/19/19 18/18/18 17/17/17
f 20/20/20 19/19/19 17/17/17
f 23/23/23 22/22/22 21/21/21
f 24/24/24 23/23/23 21/21/21
f 27/27/27 26/26/26 25/25/25
f 28/28/28 27/27/27 25/25/25
f 31/31/31 30/30/30 29/29/29
f 32/32/32 31/31/31 29/29/29
f 35/35/35 34/34/34 33/33/33
f 36/36/36 35/35/35 33/33/33
f 39/39/39 38/38/38 37/37/37
f 40/40/40 39/39/39 37/37/37
f 43/43/43 42/42/42 41/41/41
f 44/44/44 43/43/43 41/41/41
f 47/47/47 46/46/46 45/45/45
f 48/48/48 47/47/47 45/45/45
f 51/51/51 50/50/50 49/49/49
f 52/52/52 51/51/51 49/49/49
f 55/55/55 54/54/54 53/53/53
f 56/56/56 55/55/55 53/53/53
f 59/59/59 58/58/58 57/57/57
f 60/60/60 59/59/59 57/57/57
f 63/63/63 62/62/62 61/61/61
f 64/64/64 63/63/63 61/61/61
f 67/67/67 66/66/66 65/65/65
f 68/68/68 67/67/67 65/65/65
f 71/71/71 70/70/70 69/69/69
f 72/72/72 71/71/71 69/69/69
f 75/75/75 74/74/74 73/73/73
f 76/76/76 75/75/75 73/73/73
f 79/79/79 78/78/78 77/77/77
f 80/80/80 79/79/79 77/77/77
f 83/83/83 82/82/82 81/81/81
f 84/84/84 83/83/83 81/81/81
f 87/87/87 86/86/86 85/85/85
f 88/88/88 87/87/87 85/85/85
f 91/91/91 90/90/90 89/89/89
f 92/92/92 91/91/91 89/89/89
