g fencePost
v -0.12000066 1.7881426E-08 -0.11999947
v -0.12000066 0.75 -0.11999974
v -0.12000066 0.75 0.1200003
v -0.12000066 -1.7881362E-08 0.1200003
v -0.12000066 0.75 -0.11999974
v 0.11999935 0.75 -0.11999974
v 0.11999935 0.75 0.1200003
v -0.12000066 0.75 0.1200003
v 0.11999935 0.75 -0.11999974
v 0.11999935 1.7881426E-08 -0.11999947
v 0.11999935 -1.7881362E-08 0.1200003
v 0.11999935 0.75 0.1200003
v -0.12000066 0.75 -0.11999974
v -0.12000066 1.7881426E-08 -0.11999947
v 0.11999935 1.7881426E-08 -0.11999947
v 0.11999935 0.75 -0.11999974
v 0.11999935 0.75 0.1200003
v 0.11999935 -1.7881362E-08 0.1200003
v -0.12000066 -1.7881362E-08 0.1200003
v -0.12000066 0.75 0.1200003
vt 0.21802151 0.027448177
vt 0.21802151 0.027448177
vt 0.21802151 0.027448177
vt 0.21802151 0.027448177
vt 0.21802151 0.027448177
vt 0.21802151 0.027448177
vt 0.21802151 0.027448177
vt 0.21802151 0.027448177
vt 0.21802151 0.027448177
vt 0.21802151 0.027448177
vt 0.21802151 0.027448177
vt 0.21802151 0.027448177
vt 0.21802151 0.027448177
vt 0.21802151 0.027448177
vt 0.21802151 0.027448177
vt 0.21802151 0.027448177
vt 0.21802151 0.027448177
vt 0.21802151 0.027448177
vt 0.21802151 0.027448177
vt 0.21802151 0.027448177
vn -1 0 0
vn -1 0 0
vn -1 0 0
vn -1 0 0
vn -0 1 0
vn -0 1 0
vn -0 1 0
vn -0 1 0
vn 1 0 0
vn 1 0 0
vn 1 0 0
vn 1 0 0
vn -0 0 -1
vn -0 0 -1
vn -0 0 -1
vn -0 0 -1
vn -0 0 1
vn -0 0 1
vn -0 0 1
vn -0 0 1
g fencePost_0
f 3/3/3 2/2/2 1/1/1
f 4/4/4 3/3/3 1/1/1
f 7/7/7 6/6/6 5/5/5
f 8/8/8 7/7/7 5/5/5
f 11/11/11 10/10/10 9/9/9
f 12/12/12 11/11/11 9/9/9
f 15/15/15 14/14/14 13/13/13
f 16/16/16 15/15/15 13/13/13
f 19/19/19 18/18/18 17/17/17
f 20/20/20 19/19/19 17/17/17
