g fence.001
v -0.39999646 5.9604304E-08 -0.4000001
v -0.39999646 2.5 -0.40000105
v -0.39999646 2.5 0.39999914
v -0.39999646 -5.9604986E-08 0.39999914
v -0.39999646 2.5 -0.40000105
v 0.4000035 2.5 -0.40000105
v 0.4000035 2.5 0.39999914
v -0.39999646 2.5 0.39999914
v 0.4000035 2.5 -0.40000105
v 0.4000035 5.9604304E-08 -0.4000001
v 0.4000035 -5.9604986E-08 0.39999914
v 0.4000035 2.5 0.39999914
v -0.39999646 2.5 -0.40000105
v -0.39999646 5.9604304E-08 -0.4000001
v 0.4000035 5.9604304E-08 -0.4000001
v 0.4000035 2.5 -0.40000105
v 0.4000035 2.5 0.39999914
v 0.4000035 -5.9604986E-08 0.39999914
v -0.39999646 -5.9604986E-08 0.39999914
v -0.39999646 2.5 0.39999914
v -0.23629475 2 -1.9496235E-07
v 0.16223907 2 -3.9767563E-08
v 0.20246266 2.000001 7.5999994
v -0.1989732 2.000001 7.5999994
v -0.1989732 2.000001 7.5999994
v -0.1989732 1.5263233 7.5999994
v -0.23629475 1.5263221 -1.17790435E-07
v -0.23629475 2 -1.9496235E-07
v 0.16223907 1.5263221 3.7404362E-08
v 0.20246266 1.5263233 7.5999994
v 0.20246266 2.000001 7.5999994
v 0.16223907 2 -3.9767563E-08
v 0.16223907 1.5263221 3.7404362E-08
v -0.23629475 1.5263221 -1.17790435E-07
v -0.1989732 1.5263233 7.5999994
v 0.20246266 1.5263233 7.5999994
v -0.23629475 1.0329177 -3.7404654E-08
v 0.16223907 1.0329177 1.17790144E-07
v 0.20246266 1.0329188 7.5999994
v -0.1989732 1.0329188 7.5999994
v -0.1989732 1.0329188 7.5999994
v -0.1989732 0.55924094 7.5999994
v -0.23629475 0.5592399 3.9767258E-08
v -0.23629475 1.0329177 -3.7404654E-08
v 0.16223907 0.5592399 1.9496206E-07
v 0.20246266 0.55924094 7.5999994
v 0.20246266 1.0329188 7.5999994
v 0.16223907 1.0329177 1.17790144E-07
v 0.16223907 0.5592399 1.9496206E-07
v -0.23629475 0.5592399 3.9767258E-08
v -0.1989732 0.55924094 7.5999994
v 0.20246266 0.55924094 7.5999994
v -0.39999646 5.9604304E-08 7.6
v -0.39999646 2.5 7.599999
v -0.39999646 2.5 8.4
v -0.39999646 -5.9604986E-08 8.4
v -0.39999646 2.5 7.599999
v 0.4000035 2.5 7.599999
v 0.4000035 2.5 8.4
v -0.39999646 2.5 8.4
v 0.4000035 2.5 7.599999
v 0.4000035 5.9604304E-08 7.6
v 0.4000035 -5.9604986E-08 8.4
v 0.4000035 2.5 8.4
v -0.39999646 2.5 7.599999
v -0.39999646 5.9604304E-08 7.6
v 0.4000035 5.9604304E-08 7.6
v 0.4000035 2.5 7.599999
v 0.4000035 2.5 8.4
v 0.4000035 -5.9604986E-08 8.4
v -0.39999646 -5.9604986E-08 8.4
v -0.39999646 2.5 8.4
v -0.23629475 2 8
v 0.16223907 2 8
v 0.20246266 2.000001 15.599999
v -0.1989732 2.000001 15.599999
v -0.1989732 2.000001 15.599999
v -0.1989732 1.5263233 15.599999
v -0.23629475 1.5263221 8
v -0.23629475 2 8
v 0.16223907 1.5263221 8
v 0.20246266 1.5263233 15.599999
v 0.20246266 2.000001 15.599999
v 0.16223907 2 8
v 0.16223907 1.5263221 8
v -0.23629475 1.5263221 8
v -0.1989732 1.5263233 15.599999
v 0.20246266 1.5263233 15.599999
v -0.23629475 1.0329177 8
v 0.16223907 1.0329177 8
v 0.20246266 1.0329188 15.599999
v -0.1989732 1.0329188 15.599999
v -0.1989732 1.0329188 15.599999
v -0.1989732 0.55924094 15.599999
v -0.23629475 0.5592399 8
v -0.23629475 1.0329177 8
v 0.16223907 0.5592399 8
v 0.20246266 0.55924094 15.599999
v 0.20246266 1.0329188 15.599999
v 0.16223907 1.0329177 8
v 0.16223907 0.5592399 8
v -0.23629475 0.5592399 8
v -0.1989732 0.55924094 15.599999
v 0.20246266 0.55924094 15.599999
vt 0.21802151 0.027448177
vt 0.21802151 0.027448177
vt 0.21802151 0.027448177
vt 0.21802151 0.027448177
vt 0.21802151 0.027448177
vt 0.21802151 0.027448177
vt 0.21802151 0.027448177
vt 0.21802151 0.027448177
vt 0.21802151 0.027448177
vt 0.21802151 0.027448177
vt 0.21802151 0.027448177
vt 0.21802151 0.027448177
vt 0.21802151 0.027448177
vt 0.21802151 0.027448177
vt 0.21802151 0.027448177
vt 0.21802151 0.027448177
vt 0.21802151 0.027448177
vt 0.21802151 0.027448177
vt 0.21802151 0.027448177
vt 0.21802151 0.027448177
vt 0.21802151 0.027448177
vt 0.21802151 0.027448177
vt 0.21802151 0.027448177
vt 0.21802151 0.027448177
vt 0.21802151 0.027448177
vt 0.21802151 0.027448177
vt 0.21802151 0.027448177
vt 0.21802151 0.027448177
vt 0.21802151 0.027448177
vt 0.21802151 0.027448177
vt 0.21802151 0.027448177
vt 0.21802151 0.027448177
vt 0.21802151 0.027448177
vt 0.21802151 0.027448177
vt 0.21802151 0.027448177
vt 0.21802151 0.027448177
vt 0.21802151 0.027448177
vt 0.21802151 0.027448177
vt 0.21802151 0.027448177
vt 0.21802151 0.027448177
vt 0.21802151 0.027448177
vt 0.21802151 0.027448177
vt 0.21802151 0.027448177
vt 0.21802151 0.027448177
vt 0.21802151 0.027448177
vt 0.21802151 0.027448177
vt 0.21802151 0.027448177
vt 0.21802151 0.027448177
vt 0.21802151 0.027448177
vt 0.21802151 0.027448177
vt 0.21802151 0.027448177
vt 0.21802151 0.027448177
vt 0.21802151 0.027448177
vt 0.21802151 0.027448177
vt 0.21802151 0.027448177
vt 0.21802151 0.027448177
vt 0.21802151 0.027448177
vt 0.21802151 0.027448177
vt 0.21802151 0.027448177
vt 0.21802151 0.027448177
vt 0.21802151 0.027448177
vt 0.21802151 0.027448177
vt 0.21802151 0.027448177
vt 0.21802151 0.027448177
vt 0.21802151 0.027448177
vt 0.21802151 0.027448177
vt 0.21802151 0.027448177
vt 0.21802151 0.027448177
vt 0.21802151 0.027448177
vt 0.21802151 0.027448177
vt 0.21802151 0.027448177
vt 0.21802151 0.027448177
vt 0.21802151 0.027448177
vt 0.21802151 0.027448177
vt 0.21802151 0.027448177
vt 0.21802151 0.027448177
vt 0.21802151 0.027448177
vt 0.21802151 0.027448177
vt 0.21802151 0.027448177
vt 0.21802151 0.027448177
vt 0.21802151 0.027448177
vt 0.21802151 0.027448177
vt 0.21802151 0.027448177
vt 0.21802151 0.027448177
vt 0.21802151 0.027448177
vt 0.21802151 0.027448177
vt 0.21802151 0.027448177
vt 0.21802151 0.027448177
vt 0.21802151 0.027448177
vt 0.21802151 0.027448177
vt 0.21802151 0.027448177
vt 0.21802151 0.027448177
vt 0.21802151 0.027448177
vt 0.21802151 0.027448177
vt 0.21802151 0.027448177
vt 0.21802151 0.027448177
vt 0.21802151 0.027448177
vt 0.21802151 0.027448177
vt 0.21802151 0.027448177
vt 0.21802151 0.027448177
vt 0.21802151 0.027448177
vt 0.21802151 0.027448177
vt 0.21802151 0.027448177
vt 0.21802151 0.027448177
vn -1 0 0
vn -1 0 0
vn -1 0 0
vn -1 0 0
vn -0 1 0
vn -0 1 0
vn -0 1 0
vn -0 1 0
vn 1 0 0
vn 1 0 0
vn 1 0 0
vn 1 0 0
vn -0 0 -1
vn -0 0 -1
vn -0 0 -1
vn -0 0 -1
vn -0 0 1
vn -0 0 1
vn -0 0 1
vn -0 0 1
vn -0 1 0
vn -0 1 0
vn -0 1 0
vn -0 1 0
vn -0.99998796 0 0.004910671
vn -0.99998796 0 0.004910671
vn -0.99998796 0 0.004910671
vn -0.99998796 0 0.004910671
vn 0.99998605 0 -0.005292504
vn 0.99998605 0 -0.005292504
vn 0.99998605 0 -0.005292504
vn 0.99998605 0 -0.005292504
vn -0 -1 0
vn -0 -1 0
vn -0 -1 0
vn -0 -1 0
vn -0 1 0
vn -0 1 0
vn -0 1 0
vn -0 1 0
vn -0.99998796 0 0.004910671
vn -0.99998796 0 0.004910671
vn -0.99998796 0 0.004910671
vn -0.99998796 0 0.004910671
vn 0.99998605 0 -0.0052925018
vn 0.99998605 0 -0.0052925018
vn 0.99998605 0 -0.0052925018
vn 0.99998605 0 -0.0052925018
vn -0 -1 0
vn -0 -1 0
vn -0 -1 0
vn -0 -1 0
vn -1 0 0
vn -1 0 0
vn -1 0 0
vn -1 0 0
vn -0 1 0
vn -0 1 0
vn -0 1 0
vn -0 1 0
vn 1 0 0
vn 1 0 0
vn 1 0 0
vn 1 0 0
vn -0 0 -1
vn -0 0 -1
vn -0 0 -1
vn -0 0 -1
vn -0 0 1
vn -0 0 1
vn -0 0 1
vn -0 0 1
vn -0 1 0
vn -0 1 0
vn -0 1 0
vn -0 1 0
vn -0.99998796 0 0.0049106716
vn -0.99998796 0 0.0049106716
vn -0.99998796 0 0.0049106716
vn -0.99998796 0 0.0049106716
vn 0.99998605 0 -0.005292504
vn 0.99998605 0 -0.005292504
vn 0.99998605 0 -0.005292504
vn 0.99998605 0 -0.005292504
vn -0 -1 0
vn -0 -1 0
vn -0 -1 0
vn -0 -1 0
vn -0 1 0
vn -0 1 0
vn -0 1 0
vn -0 1 0
vn -0.99998796 0 0.004910671
vn -0.99998796 0 0.004910671
vn -0.99998796 0 0.004910671
vn -0.99998796 0 0.004910671
vn 0.99998605 0 -0.0052925018
vn 0.99998605 0 -0.0052925018
vn 0.99998605 0 -0.0052925018
vn 0.99998605 0 -0.0052925018
vn -0 -1 0
vn -0 -1 0
vn -0 -1 0
vn -0 -1 0
g fence.001_0
f 3/3/3 2/2/2 1/1/1
f 4/4/4 3/3/3 1/1/1
f 7/7/7 6/6/6 5/5/5
f 8/8/8 7/7/7 5/5/5
f 11/11/11 10/10/10 9/9/9
f 12/12/12 11/11/11 9/9/9
f 15/15/15 14/14/14 13/13/13
f 16/16/16 15/15/15 13/13/13
f 19/19/19 18/18/18 17/17/17
f 20/20/20 19/19/19 17/17/17
f 23/23/23 22/22/22 21/21/21
f 24/24/24 23/23/23 21/21/21
f 27/27/27 26/26/26 25/25/25
f 28/28/28 27/27/27 25/25/25
f 31/31/31 30/30/30 29/29/29
f 32/32/32 31/31/31 29/29/29
f 35/35/35 34/34/34 33/33/33
f 36/36/36 35/35/35 33/33/33
f 39/39/39 38/38/38 37/37/37
f 40/40/40 39/39/39 37/37/37
f 43/43/43 42/42/42 41/41/41
f 44/44/44 43/43/43 41/41/41
f 47/47/47 46/46/46 45/45/45
f 48/48/48 47/47/47 45/45/45
f 51/51/51 50/50/50 49/49/49
f 52/52/52 51/51/51 49/49/49
f 55/55/55 54/54/54 53/53/53
f 56/56/56 55/55/55 53/53/53
f 59/59/59 58/58/58 57/57/57
f 60/60/60 59/59/59 57/57/57
f 63/63/63 62/62/62 61/61/61
f 64/64/64 63/63/63 61/61/61
f 67/67/67 66/66/66 65/65/65
f 68/68/68 67/67/67 65/65/65
f 71/71/71 70/70/70 69/69/69
f 72/72/72 71/71/71 69/69/69
f 75/75/75 74/74/74 73/73/73
f 76/76/76 75/75/75 73/73/73
f 79/79/79 78/78/78 77/77/77
f 80/80/80 79/79/79 77/77/77
f 83/83/83 82/82/82 81/81/81
f 84/84/84 83/83/83 81/81/81
f 87/87/87 86/86/86 85/85/85
f 88/88/88 87/87/87 85/85/85
f 91/91/91 90/90/90 89/89/89
f 92/92/92 91/91/91 89/89/89
f 95/95/95 94/94/94 93/93/93
f 96/96/96 95/95/95 93/93/93
f 99/99/99 98/98/98 97/97/97
f 100/100/100 99/99/99 97/97/97
f 103/103/103 102/102/102 101/101/101
f 104/104/104 103/103/103 101/101/101
