g floor.006
v 12.0062275 24.001663 0
v 24.006227 12.00167 0
v 24.006226 -43.99833 0
v -27.00001 -23.99833 0
v -27.000017 24.00167 0
v -26.999975 -44.001526 0
v -5.5931625 -43 0.1
v -5.5931625 -39 0.1
v 9.606838 -39 0.1
v 9.606838 -43 0.1
v 9.606838 -43 0
v 9.606838 -43 0.1
v 9.606838 -39 0.1
v 9.606838 -39 0
v -5.5931625 -39 0
v -5.5931625 -39 0.1
v -5.5931625 -43 0.1
v -5.5931625 -43 0
v 9.606838 -39 0
v 9.606838 -39 0.1
v -5.5931625 -39 0.1
v -5.5931625 -39 0
v -5.5931625 -43 0
v -5.5931625 -43 0.1
v 9.606838 -43 0.1
v 9.606838 -43 0
v -27.00001 -23.99833 0
v -26.999975 -44.001526 0
v -53 -44.001534 0
v -53 -24.00153 0
vt 0.09121865 0.5895147
vt 0.09121865 0.5895147
vt 0.09121865 0.5895147
vt 0.09121865 0.5895147
vt 0.09121865 0.5895147
vt 0.09121865 0.5895147
vt 0.21639061 0.03095302
vt 0.21639061 0.03095302
vt 0.21639061 0.03095302
vt 0.21639061 0.03095302
vt 0.21639061 0.03095302
vt 0.21639061 0.03095302
vt 0.21639061 0.03095302
vt 0.21639061 0.03095302
vt 0.21639061 0.03095302
vt 0.21639061 0.03095302
vt 0.21639061 0.03095302
vt 0.21639061 0.03095302
vt 0.21639061 0.03095302
vt 0.21639061 0.03095302
vt 0.21639061 0.03095302
vt 0.21639061 0.03095302
vt 0.21639061 0.03095302
vt 0.21639061 0.03095302
vt 0.21639061 0.03095302
vt 0.21639061 0.03095302
vt 0.15625 0.84375
vt 0.15625 0.84375
vt 0.15625 0.84375
vt 0.15625 0.84375
vn -0 0 1
vn -0 0 1
vn -0 0 1
vn -0 0 1
vn -0 0 1
vn -0 0 1
vn -0 0 1
vn -0 0 1
vn -0 0 1
vn -0 0 1
vn 1 0 0
vn 1 0 0
vn 1 0 0
vn 1 0 0
vn -1 0 0
vn -1 0 0
vn -1 0 0
vn -1 0 0
vn -0 1 0
vn -0 1 0
vn -0 1 0
vn -0 1 0
vn -0 -1 0
vn -0 -1 0
vn -0 -1 0
vn -0 -1 0
vn -0 0 1
vn -0 0 1
vn -0 0 1
vn -0 0 1
g floor.006_0
f 3/3/3 2/2/2 1/1/1
f 4/4/4 3/3/3 1/1/1
f 4/4/4 1/1/1 5/5/5
f 6/6/6 3/3/3 4/4/4
f 9/9/9 8/8/8 7/7/7
f 10/10/10 9/9/9 7/7/7
f 13/13/13 12/12/12 11/11/11
f 14/14/14 13/13/13 11/11/11
f 17/17/17 16/16/16 15/15/15
f 18/18/18 17/17/17 15/15/15
f 21/21/21 20/20/20 19/19/19
f 22/22/22 21/21/21 19/19/19
f 25/25/25 24/24/24 23/23/23
f 26/26/26 25/25/25 23/23/23
f 29/29/29 28/28/28 27/27/27
f 30/30/30 29/29/29 27/27/27
