g floor
v -30 2.0016801 0
v 37.99938 -30.00001 0
v -30.000011 -29.999989 0
v -24.000608 8.001678 0
v 37.999397 28.995426 0
v -24.0006 30.000006 0
v 37.999397 29.999987 0
v -29.99999 30.000008 0
v -24.0006 30.000006 0
v -24.000608 8.001678 0
v -30 2.0016801 0
v -54.000603 30.001644 0
v -54.00061 2.001648 0
vt 0.78125 0.96875
vt 0.78125 0.96875
vt 0.78125 0.96875
vt 0.78125 0.96875
vt 0.78125 0.96875
vt 0.78125 0.96875
vt 0.78125 0.96875
vt 0.78125 0.71875
vt 0.78125 0.71875
vt 0.78125 0.71875
vt 0.78125 0.71875
vt 0.78125 0.71875
vt 0.78125 0.71875
vn -0 0 1
vn -0 0 1
vn -0 0 1
vn -0 0 1
vn -0 0 1
vn -0 0 1
vn -0 0 1
vn -0 0 1
vn -0 0 1
vn -0 0 1
vn -0 0 1
vn -0 0 1
vn -0 0 1
g floor_0
f 3/3/3 2/2/2 1/1/1
f 2/2/2 4/4/4 1/1/1
f 2/2/2 5/5/5 4/4/4
f 4/4/4 5/5/5 6/6/6
f 5/5/5 7/7/7 6/6/6
f 10/10/10 9/9/9 8/8/8
f 11/11/11 10/10/10 8/8/8
f 8/8/8 12/12/12 11/11/11
f 12/12/12 13/13/13 11/11/11
