g flourBag
v -0.7696111 0.49181724 0.23324192
v -0.51977134 0.6525533 0.15811527
v -0.32059848 0.6787603 0.41319633
v -0.47609305 0.5127828 0.6123693
v -0.7696111 0.49181724 -0.2332421
v -0.00087350607 0.69797873 0.5110357
v -0.00087350607 0.5354955 0.7573812
v -0.51977134 0.6525533 -0.15811545
v -0.47609305 0.5127828 -0.6123695
v 0.3205986 0.6787603 0.41319633
v 0.47609326 0.5127828 0.6123693
v -0.32059848 0.6787603 -0.41319656
v -0.00087350607 0.5354955 -0.7573813
v 0.5197716 0.6525533 0.15811527
v 0.76961124 0.49181724 0.23324192
v -0.00087350607 0.69797873 -0.5110359
v 0.47609326 0.5127828 -0.6123695
v 0.5197716 0.6525533 -0.15811545
v 0.76961124 0.49181724 -0.2332421
v 0.3205986 0.6787603 -0.41319656
v 0.19305807 0.75388694 0.2489661
v 0.31186295 0.7399099 0.09521854
v -0.00087350607 0.75388694 0.00087350607
v -0.00087350607 0.7626226 0.30662143
v 0.31186295 0.7399099 -0.09521872
v 0.19305807 0.75388694 -0.24896622
v -0.1930579 0.75388694 0.2489661
v -0.00087350607 0.7626226 -0.30662155
v -0.31186283 0.7399099 0.09521854
v -0.1930579 0.75388694 -0.24896622
v -0.31186283 0.7399099 -0.09521872
v 0.47609326 0.61411643 0.6123693
v 0.76961124 0.49181724 0.23324192
v 0.76961124 0.5914037 0.23324192
v 0.47609326 0.5127828 0.6123693
v 0.76961124 0.49181724 -0.2332421
v -0.00087350607 0.63857627 0.7573812
v 0.76961124 0.5914037 -0.2332421
v -0.00087350607 0.5354955 0.7573812
v 0.47609326 0.5127828 -0.6123695
v -0.47609305 0.61411643 0.6123693
v 0.47609326 0.61411643 -0.6123695
v -0.47609305 0.5127828 0.6123693
v -0.00087350607 0.5354955 -0.7573813
v -0.7696111 0.5914037 0.23324192
v -0.00087350607 0.63857627 -0.7573813
v -0.7696111 0.49181724 0.23324192
v -0.47609305 0.5127828 -0.6123695
v -0.7696111 0.5914037 -0.2332421
v -0.47609305 0.61411643 -0.6123695
v -0.7696111 0.49181724 -0.2332421
v -0.8010595 0.20878208 -0.24372482
v -0.86570334 0.22450626 0.28041446
v -0.8010595 0.20878208 0.2437247
v -0.86570334 0.22450626 -0.28041458
v -0.528507 0.22275913 0.72069144
v -0.4953115 0.2157706 -0.63857645
v -0.4953115 0.2157706 0.63857627
v -0.528507 0.22275913 -0.7206916
v -0.00087350607 0.23149478 0.88317466
v -0.00087350607 0.22974765 -0.7888297
v -0.00087350607 0.22974765 0.78882957
v -0.00087350607 0.23149478 -0.8831748
v 0.52850723 0.22275913 0.72069144
v 0.4953117 0.2157706 -0.63857645
v 0.4953117 0.2157706 0.63857627
v 0.52850723 0.22275913 -0.7206916
v 0.86570346 0.22450626 0.28041446
v 0.8010596 0.20878208 -0.24372482
v 0.8010596 0.20878208 0.2437247
v 0.86570346 0.22450626 -0.28041458
v -0.86570334 0.22450626 -0.28041458
v -0.528507 0.22275913 -0.7206916
v -0.50928855 0.6123693 -0.7014732
v -0.8360021 0.6001394 -0.27342606
v -0.00087350607 0.63158774 -0.8569678
v -0.86570334 0.22450626 0.28041446
v -0.00087350607 0.23149478 -0.8831748
v -0.8360021 0.6001394 0.27342594
v 0.5092888 0.6123693 -0.7014732
v -0.528507 0.22275913 0.72069144
v 0.52850723 0.22275913 -0.7206916
v -0.50928855 0.6123693 0.701473
v 0.83600223 0.6001394 -0.27342606
v -0.00087350607 0.23149478 0.88317466
v 0.86570346 0.22450626 -0.28041458
v -0.00087350607 0.63158774 0.8569677
v 0.83600223 0.6001394 0.27342594
v 0.52850723 0.22275913 0.72069144
v 0.86570346 0.22450626 0.28041446
v 0.5092888 0.6123693 0.701473
v 0.89365757 -0.23848349 -0.27167892
v 0.8010596 0.20878208 0.2437247
v 0.8010596 0.20878208 -0.24372482
v 0.89365757 -0.23848349 0.2716788
v 0.4953117 0.2157706 0.63857627
v 0.5529671 -0.23848349 -0.71195596
v 0.4953117 0.2157706 -0.63857645
v 0.5529671 -0.23848349 0.7119558
v -0.00087350607 0.22974765 0.78882957
v -0.00087350607 -0.23848349 -0.8796805
v -0.00087350607 0.22974765 -0.7888297
v -0.00087350607 -0.23848349 0.8796804
v -0.4953115 0.2157706 0.63857627
v -0.55296683 -0.23848349 -0.71195596
v -0.4953115 0.2157706 -0.63857645
v -0.55296683 -0.23848349 0.7119558
v -0.8010595 0.20878208 0.2437247
v -0.89365745 -0.23848349 -0.27167892
v -0.8010595 0.20878208 -0.24372482
v -0.89365745 -0.23848349 0.2716788
v -0.00087350607 -0.5320015 -0.8499793
v -0.5337484 -0.5320015 -0.6874961
v -0.8639562 -0.5320015 -0.26294327
v -0.8639562 -0.5320015 0.26294315
v -0.5337484 -0.5320015 0.68749595
v -0.00087350607 -0.5320015 0.84997916
v 0.5337486 -0.5320015 -0.6874961
v 0.5337486 -0.5320015 0.68749595
v 0.86395633 -0.5320015 -0.26294327
v 0.86395633 -0.5320015 0.26294315
v -0.47609305 -0.64905924 0.6123693
v -0.00087350607 -0.64905924 0.7573812
v -0.00087350607 -0.64905924 0.00087350607
v 0.47609326 -0.64905924 0.6123693
v -0.7696111 -0.64905924 0.23324192
v 0.76961124 -0.64905924 0.23324192
v -0.7696111 -0.64905924 -0.2332421
v 0.76961124 -0.64905924 -0.2332421
v -0.47609305 -0.64905924 -0.6123695
v 0.47609326 -0.64905924 -0.6123695
v -0.00087350607 -0.64905924 -0.7573813
v -0.47609305 0.61411643 -0.6123695
v -0.50928855 0.6123693 -0.7014732
v -0.00087350607 0.63158774 -0.8569678
v -0.00087350607 0.63857627 -0.7573813
v -0.7696111 0.5914037 -0.2332421
v 0.5092888 0.6123693 -0.7014732
v -0.8360021 0.6001394 -0.27342606
v 0.47609326 0.61411643 -0.6123695
v -0.7696111 0.5914037 0.23324192
v 0.83600223 0.6001394 -0.27342606
v -0.8360021 0.6001394 0.27342594
v 0.76961124 0.5914037 -0.2332421
v -0.47609305 0.61411643 0.6123693
v 0.83600223 0.6001394 0.27342594
v -0.50928855 0.6123693 0.701473
v 0.76961124 0.5914037 0.23324192
v -0.00087350607 0.63857627 0.7573812
v 0.5092888 0.6123693 0.701473
v -0.00087350607 0.63158774 0.8569677
v 0.47609326 0.61411643 0.6123693
vt 0.59360576 0.031775698
vt 0.59360576 0.031775698
vt 0.59360576 0.031775698
vt 0.59360576 0.031775698
vt 0.59360576 0.031775698
vt 0.59360576 0.031775698
vt 0.59360576 0.031775698
vt 0.59360576 0.031775698
vt 0.59360576 0.031775698
vt 0.59360576 0.031775698
vt 0.59360576 0.031775698
vt 0.59360576 0.031775698
vt 0.59360576 0.031775698
vt 0.59360576 0.031775698
vt 0.59360576 0.031775698
vt 0.59360576 0.031775698
vt 0.59360576 0.031775698
vt 0.59360576 0.031775698
vt 0.59360576 0.031775698
vt 0.59360576 0.031775698
vt 0.59360576 0.031775698
vt 0.59360576 0.031775698
vt 0.59360576 0.031775698
vt 0.59360576 0.031775698
vt 0.59360576 0.031775698
vt 0.59360576 0.031775698
vt 0.59360576 0.031775698
vt 0.59360576 0.031775698
vt 0.59360576 0.031775698
vt 0.59360576 0.031775698
vt 0.59360576 0.031775698
vt 0.5319415 0.9053529
vt 0.5319415 0.9053529
vt 0.5319415 0.9053529
vt 0.5319415 0.9053529
vt 0.5319415 0.9053529
vt 0.5319415 0.9053529
vt 0.5319415 0.9053529
vt 0.5319415 0.9053529
vt 0.5319415 0.9053529
vt 0.5319415 0.9053529
vt 0.5319415 0.9053529
vt 0.5319415 0.9053529
vt 0.5319415 0.9053529
vt 0.5319415 0.9053529
vt 0.5319415 0.9053529
vt 0.5319415 0.9053529
vt 0.5319415 0.9053529
vt 0.5319415 0.9053529
vt 0.5319415 0.9053529
vt 0.5319415 0.9053529
vt 0.5319415 0.9053529
vt 0.5319415 0.9053529
vt 0.5319415 0.9053529
vt 0.5319415 0.9053529
vt 0.5319415 0.9053529
vt 0.5319415 0.9053529
vt 0.5319415 0.9053529
vt 0.5319415 0.9053529
vt 0.5319415 0.9053529
vt 0.5319415 0.9053529
vt 0.5319415 0.9053529
vt 0.5319415 0.9053529
vt 0.5319415 0.9053529
vt 0.5319415 0.9053529
vt 0.5319415 0.9053529
vt 0.5319415 0.9053529
vt 0.5319415 0.9053529
vt 0.5319415 0.9053529
vt 0.5319415 0.9053529
vt 0.5319415 0.9053529
vt 0.5319415 0.9053529
vt 0.5319415 0.9053529
vt 0.5319415 0.9053529
vt 0.5319415 0.9053529
vt 0.5319415 0.9053529
vt 0.5319415 0.9053529
vt 0.5319415 0.9053529
vt 0.5319415 0.9053529
vt 0.5319415 0.9053529
vt 0.5319415 0.9053529
vt 0.5319415 0.9053529
vt 0.5319415 0.9053529
vt 0.5319415 0.9053529
vt 0.5319415 0.9053529
vt 0.5319415 0.9053529
vt 0.5319415 0.9053529
vt 0.5319415 0.9053529
vt 0.5319415 0.9053529
vt 0.5319415 0.9053529
vt 0.5319415 0.9053529
vt 0.5319415 0.9053529
vt 0.5319415 0.9053529
vt 0.5319415 0.9053529
vt 0.5319415 0.9053529
vt 0.5319415 0.9053529
vt 0.5319415 0.9053529
vt 0.5319415 0.9053529
vt 0.5319415 0.9053529
vt 0.5319415 0.9053529
vt 0.5319415 0.9053529
vt 0.5319415 0.9053529
vt 0.5319415 0.9053529
vt 0.5319415 0.9053529
vt 0.5319415 0.9053529
vt 0.5319415 0.9053529
vt 0.5319415 0.9053529
vt 0.5319415 0.9053529
vt 0.5319415 0.9053529
vt 0.5319415 0.9053529
vt 0.5319415 0.9053529
vt 0.5319415 0.9053529
vt 0.5319415 0.9053529
vt 0.5319415 0.9053529
vt 0.5319415 0.9053529
vt 0.5319415 0.9053529
vt 0.5319415 0.9053529
vt 0.5319415 0.9053529
vt 0.5319415 0.9053529
vt 0.5319415 0.9053529
vt 0.5319415 0.9053529
vt 0.5319415 0.9053529
vt 0.5319415 0.9053529
vt 0.5319415 0.9053529
vt 0.5319415 0.9053529
vt 0.5319415 0.9053529
vt 0.5319415 0.9053529
vt 0.5319415 0.9053529
vt 0.5319415 0.9053529
vt 0.5319415 0.9053529
vt 0.5319415 0.9053529
vt 0.5319415 0.9053529
vt 0.5319415 0.9053529
vt 0.5319415 0.9053529
vt 0.5319415 0.9053529
vt 0.5319415 0.9053529
vt 0.5319415 0.9053529
vt 0.5319415 0.9053529
vt 0.5319415 0.9053529
vt 0.5319415 0.9053529
vt 0.5319415 0.9053529
vt 0.5319415 0.9053529
vt 0.5319415 0.9053529
vt 0.5319415 0.9053529
vt 0.5319415 0.9053529
vt 0.5319415 0.9053529
vt 0.5319415 0.9053529
vt 0.5319415 0.9053529
vt 0.5319415 0.9053529
vt 0.5319415 0.9053529
vt 0.5319415 0.9053529
vt 0.5319415 0.9053529
vn -0.5237435 0.8411639 0.13467027
vn -0.46025944 0.87290585 0.16185382
vn -0.30154932 0.87290585 0.38354057
vn -0.3332913 0.8411639 0.42586413
vn -0.5237435 0.8411639 -0.13467027
vn -0.015871048 0.90464795 0.42586404
vn -0.015871048 0.8411639 0.5405474
vn -0.46025944 0.87290585 -0.16185382
vn -0.3332913 0.8411639 -0.42586413
vn 0.30154932 0.87290585 0.38354057
vn 0.33329135 0.8411639 0.42586404
vn -0.30154932 0.87290585 -0.38354057
vn -0.015871048 0.8411639 -0.5405474
vn 0.46025944 0.87290585 0.16185382
vn 0.5237435 0.8411639 0.13467027
vn -0.015871048 0.90464795 -0.42586404
vn 0.33329135 0.8411639 -0.42586404
vn 0.46025944 0.87290585 -0.16185382
vn 0.5237435 0.8411639 -0.13467027
vn 0.30154932 0.87290585 -0.38354057
vn 0.17458117 0.968132 0.17956008
vn 0.23806524 0.968132 0.07775179
vn -0.015871048 0.999874 -0.00034526698
vn -0.015871048 0.999874 -0.00034526698
vn 0.23806524 0.968132 -0.07775179
vn 0.17458117 0.968132 -0.17956008
vn -0.17458117 0.968132 0.17956008
vn -0.015871048 0.999874 -0.00034526698
vn -0.23806524 0.968132 0.07775179
vn -0.17458117 0.968132 -0.17956008
vn -0.23806524 0.968132 -0.07775179
vn -0.5554856 0.015871048 -0.8313747
vn -0.9363899 0.015871048 -0.35060233
vn -0.9363899 0.015871048 -0.35060233
vn -0.5872276 0.015871048 -0.80926627
vn -0.9363899 0.015871048 0.35060233
vn -0.015871048 0.015871048 -0.99974805
vn -0.9363899 0.015871048 0.35060233
vn -0.015871048 0.015871048 -0.99974805
vn -0.5872276 0.015871048 0.80926627
vn 0.55548555 0.015871048 -0.8313747
vn -0.5554856 0.015871048 0.8313747
vn 0.5872276 0.015871048 -0.80926627
vn -0.015871048 0.015871048 0.99974805
vn 0.9363899 0.015871048 -0.35060233
vn -0.015871048 0.015871048 0.99974805
vn 0.9363899 0.015871048 -0.35060233
vn 0.5872276 0.015871048 0.80926627
vn 0.9363899 0.015871048 0.35060233
vn 0.55548555 0.015871048 0.8313747
vn 0.9363899 0.015871048 0.35060233
vn -0.17458117 -0.96813196 -0.17956041
vn -0.17458117 -0.96813196 0.17956041
vn -0.17458117 -0.96813196 0.17956041
vn -0.17458117 -0.96813196 -0.17956041
vn -0.04756513 -0.99886817 -0
vn -0.079116344 -0.9968654 -0
vn -0.079116344 -0.9968654 -0
vn -0.04756513 -0.99886817 -0
vn -0.015871048 -0.999874 -0.00034526698
vn -0.015871048 -0.999874 -0.00034526698
vn -0.015871048 -0.999874 -0.00034526698
vn -0.015871048 -0.999874 -0.00034526698
vn 0.04756513 -0.99886817 -0
vn 0.079116285 -0.9968654 -0
vn 0.079116285 -0.9968654 -0
vn 0.04756513 -0.99886817 -0
vn 0.17458117 -0.96813196 0.17956041
vn 0.17458117 -0.96813196 -0.17956041
vn 0.17458117 -0.96813196 0.17956041
vn 0.17458117 -0.96813196 -0.17956041
vn -0.9363899 0.07935512 -0.34187227
vn -0.5872276 0.07935512 -0.8055225
vn -0.5554856 0.07935512 -0.82773095
vn -0.9363899 0.07935512 -0.34187227
vn -0.015871048 0.047613025 -0.9987398
vn -0.9363899 0.07935512 0.34187227
vn -0.015871048 0.047613025 -0.9987398
vn -0.9363899 0.07935512 0.34187227
vn 0.55548555 0.07935512 -0.827731
vn -0.5872276 0.07935512 0.8055225
vn 0.5872276 0.07935512 -0.8055225
vn -0.5554856 0.07935512 0.82773095
vn 0.9363899 0.07935512 -0.34187227
vn -0.015871048 0.047613025 0.9987398
vn 0.9363899 0.07935512 -0.34187227
vn -0.015871048 0.047613025 0.9987398
vn 0.9363899 0.07935512 0.34187227
vn 0.5872276 0.07935512 0.8055225
vn 0.9363899 0.07935512 0.34187227
vn 0.55548555 0.07935512 0.827731
vn 0.9363899 0.047613025 -0.3477167
vn 0.9363899 0.20632327 0.2839095
vn 0.9363899 0.20632327 -0.2839095
vn 0.9363899 0.047613025 0.3477167
vn 0.55548555 0.20632327 0.8055225
vn 0.55548555 0.047613025 -0.8301619
vn 0.55548555 0.20632327 -0.8055225
vn 0.55548555 0.047613025 0.8301619
vn -0.015871048 0.20632327 0.97835517
vn -0.015871048 0.047613025 -0.9987398
vn -0.015871048 0.20632327 -0.97835517
vn -0.015871048 0.047613025 0.9987398
vn -0.5554856 0.20632327 0.8055225
vn -0.5554856 0.047613025 -0.83016187
vn -0.5554856 0.20632327 -0.8055225
vn -0.5554856 0.047613025 0.83016187
vn -0.9363899 0.20632327 0.2839095
vn -0.9363899 0.047613025 -0.3477167
vn -0.9363899 0.20632327 -0.2839095
vn -0.9363899 0.047613025 0.3477167
vn -0.015871048 -0.36503333 -0.93085915
vn -0.5237435 -0.36503333 -0.76970345
vn -0.87290585 -0.36503333 -0.32370675
vn -0.87290585 -0.36503333 0.32370675
vn -0.5237435 -0.36503333 0.76970345
vn -0.015871048 -0.36503333 0.93085915
vn 0.5237435 -0.36503333 -0.76970345
vn 0.5237435 -0.36503333 0.76970345
vn 0.87290585 -0.36503333 -0.32370675
vn 0.87290585 -0.36503333 0.32370675
vn -0.26980734 -0.87290585 0.4064965
vn -0.015871048 -0.87290585 0.4876305
vn -0.015871048 -0.999874 -0.00034526698
vn 0.26980728 -0.87290585 0.4064965
vn -0.46025944 -0.87290585 0.16185382
vn 0.46025944 -0.87290585 0.16185382
vn -0.46025944 -0.87290585 -0.16185382
vn 0.46025944 -0.87290585 -0.16185382
vn -0.26980734 -0.87290585 -0.4064965
vn 0.26980728 -0.87290585 -0.4064965
vn -0.015871048 -0.87290585 -0.4876305
vn -0.015871048 0.999874 -0.00034526698
vn -0.015871048 0.999874 -0.00034526698
vn -0.015871048 0.999874 -0.00034526698
vn -0.015871048 0.999874 -0.00034526698
vn 0.079116285 0.9968654 -0
vn 0.015870988 0.999874 -0.00034526698
vn 0.079116285 0.9968654 -0
vn 0.015870988 0.999874 -0.00034526698
vn 0.079116285 0.9968654 -0
vn -0.079116344 0.9968654 -0
vn 0.079116285 0.9968654 -0
vn -0.079116344 0.9968654 -0
vn -0.015871048 0.999874 -0.00034526698
vn -0.079116344 0.9968654 -0
vn -0.015871048 0.999874 -0.00034526698
vn -0.079116344 0.9968654 -0
vn -0.015871048 0.999874 -0.00034526698
vn 0.015870988 0.999874 -0.00034526698
vn -0.015871048 0.999874 -0.00034526698
vn 0.015870988 0.999874 -0.00034526698
g flourBag_0
f 3/3/3 2/2/2 1/1/1
f 4/4/4 3/3/3 1/1/1
f 1/1/1 2/2/2 5/5/5
f 6/6/6 3/3/3 4/4/4
f 7/7/7 6/6/6 4/4/4
f 2/2/2 8/8/8 5/5/5
f 5/5/5 8/8/8 9/9/9
f 10/10/10 6/6/6 7/7/7
f 11/11/11 10/10/10 7/7/7
f 8/8/8 12/12/12 9/9/9
f 9/9/9 12/12/12 13/13/13
f 14/14/14 10/10/10 11/11/11
f 15/15/15 14/14/14 11/11/11
f 12/12/12 16/16/16 13/13/13
f 13/13/13 16/16/16 17/17/17
f 18/18/18 14/14/14 15/15/15
f 19/19/19 18/18/18 15/15/15
f 17/17/17 20/20/20 19/19/19
f 16/16/16 20/20/20 17/17/17
f 20/20/20 18/18/18 19/19/19
f 10/10/10 21/21/21 6/6/6
f 14/14/14 22/22/22 10/10/10
f 22/22/22 21/21/21 10/10/10
f 22/22/22 23/23/23 21/21/21
f 21/21/21 23/23/23 24/24/24
f 21/21/21 24/24/24 6/6/6
f 25/25/25 23/23/23 22/22/22
f 25/25/25 22/22/22 14/14/14
f 18/18/18 25/25/25 14/14/14
f 6/6/6 24/24/24 3/3/3
f 26/26/26 25/25/25 18/18/18
f 20/20/20 26/26/26 18/18/18
f 26/26/26 23/23/23 25/25/25
f 24/24/24 27/27/27 3/3/3
f 24/24/24 23/23/23 27/27/27
f 3/3/3 27/27/27 2/2/2
f 28/28/28 26/26/26 20/20/20
f 28/28/28 23/23/23 26/26/26
f 16/16/16 28/28/28 20/20/20
f 27/27/27 29/29/29 2/2/2
f 27/27/27 23/23/23 29/29/29
f 2/2/2 29/29/29 8/8/8
f 30/30/30 28/28/28 16/16/16
f 30/30/30 23/23/23 28/28/28
f 12/12/12 30/30/30 16/16/16
f 8/8/8 31/31/31 12/12/12
f 29/29/29 31/31/31 8/8/8
f 29/29/29 23/23/23 31/31/31
f 31/31/31 30/30/30 12/12/12
f 31/31/31 23/23/23 30/30/30
f 34/34/34 33/33/33 32/32/32
f 33/33/33 35/35/35 32/32/32
f 36/36/36 33/33/33 34/34/34
f 32/32/32 35/35/35 37/37/37
f 38/38/38 36/36/36 34/34/34
f 35/35/35 39/39/39 37/37/37
f 40/40/40 36/36/36 38/38/38
f 37/37/37 39/39/39 41/41/41
f 42/42/42 40/40/40 38/38/38
f 39/39/39 43/43/43 41/41/41
f 44/44/44 40/40/40 42/42/42
f 41/41/41 43/43/43 45/45/45
f 46/46/46 44/44/44 42/42/42
f 43/43/43 47/47/47 45/45/45
f 48/48/48 44/44/44 46/46/46
f 45/45/45 47/47/47 49/49/49
f 50/50/50 48/48/48 46/46/46
f 47/47/47 51/51/51 49/49/49
f 51/51/51 48/48/48 50/50/50
f 49/49/49 51/51/51 50/50/50
f 54/54/54 53/53/53 52/52/52
f 53/53/53 55/55/55 52/52/52
f 56/56/56 53/53/53 54/54/54
f 52/52/52 55/55/55 57/57/57
f 58/58/58 56/56/56 54/54/54
f 55/55/55 59/59/59 57/57/57
f 60/60/60 56/56/56 58/58/58
f 57/57/57 59/59/59 61/61/61
f 62/62/62 60/60/60 58/58/58
f 59/59/59 63/63/63 61/61/61
f 64/64/64 60/60/60 62/62/62
f 61/61/61 63/63/63 65/65/65
f 66/66/66 64/64/64 62/62/62
f 63/63/63 67/67/67 65/65/65
f 68/68/68 64/64/64 66/66/66
f 65/65/65 67/67/67 69/69/69
f 70/70/70 68/68/68 66/66/66
f 67/67/67 71/71/71 69/69/69
f 71/71/71 68/68/68 70/70/70
f 69/69/69 71/71/71 70/70/70
f 74/74/74 73/73/73 72/72/72
f 75/75/75 74/74/74 72/72/72
f 74/74/74 76/76/76 73/73/73
f 75/75/75 72/72/72 77/77/77
f 76/76/76 78/78/78 73/73/73
f 79/79/79 75/75/75 77/77/77
f 76/76/76 80/80/80 78/78/78
f 79/79/79 77/77/77 81/81/81
f 80/80/80 82/82/82 78/78/78
f 83/83/83 79/79/79 81/81/81
f 80/80/80 84/84/84 82/82/82
f 83/83/83 81/81/81 85/85/85
f 84/84/84 86/86/86 82/82/82
f 87/87/87 83/83/83 85/85/85
f 84/84/84 88/88/88 86/86/86
f 87/87/87 85/85/85 89/89/89
f 88/88/88 90/90/90 86/86/86
f 91/91/91 87/87/87 89/89/89
f 91/91/91 89/89/89 90/90/90
f 88/88/88 91/91/91 90/90/90
f 94/94/94 93/93/93 92/92/92
f 93/93/93 95/95/95 92/92/92
f 93/93/93 96/96/96 95/95/95
f 94/94/94 92/92/92 97/97/97
f 98/98/98 94/94/94 97/97/97
f 96/96/96 99/99/99 95/95/95
f 96/96/96 100/100/100 99/99/99
f 98/98/98 97/97/97 101/101/101
f 102/102/102 98/98/98 101/101/101
f 100/100/100 103/103/103 99/99/99
f 100/100/100 104/104/104 103/103/103
f 102/102/102 101/101/101 105/105/105
f 106/106/106 102/102/102 105/105/105
f 104/104/104 107/107/107 103/103/103
f 104/104/104 108/108/108 107/107/107
f 106/106/106 105/105/105 109/109/109
f 110/110/110 106/106/106 109/109/109
f 108/108/108 110/110/110 111/111/111
f 108/108/108 111/111/111 107/107/107
f 110/110/110 109/109/109 111/111/111
f 101/101/101 97/97/97 112/112/112
f 105/105/105 101/101/101 113/113/113
f 101/101/101 112/112/112 113/113/113
f 109/109/109 105/105/105 114/114/114
f 105/105/105 113/113/113 114/114/114
f 111/111/111 109/109/109 115/115/115
f 109/109/109 114/114/114 115/115/115
f 107/107/107 111/111/111 116/116/116
f 111/111/111 115/115/115 116/116/116
f 103/103/103 107/107/107 117/117/117
f 107/107/107 116/116/116 117/117/117
f 97/97/97 118/118/118 112/112/112
f 97/97/97 92/92/92 118/118/118
f 103/103/103 117/117/117 119/119/119
f 99/99/99 103/103/103 119/119/119
f 92/92/92 120/120/120 118/118/118
f 92/92/92 95/95/95 120/120/120
f 95/95/95 99/99/99 121/121/121
f 99/99/99 119/119/119 121/121/121
f 95/95/95 121/121/121 120/120/120
f 116/116/116 115/115/115 122/122/122
f 117/117/117 116/116/116 123/123/123
f 116/116/116 122/122/122 123/123/123
f 122/122/122 124/124/124 123/123/123
f 123/123/123 124/124/124 125/125/125
f 117/117/117 123/123/123 125/125/125
f 119/119/119 117/117/117 125/125/125
f 126/126/126 124/124/124 122/122/122
f 115/115/115 126/126/126 122/122/122
f 115/115/115 114/114/114 126/126/126
f 119/119/119 125/125/125 127/127/127
f 121/121/121 119/119/119 127/127/127
f 125/125/125 124/124/124 127/127/127
f 114/114/114 128/128/128 126/126/126
f 128/128/128 124/124/124 126/126/126
f 114/114/114 113/113/113 128/128/128
f 121/121/121 127/127/127 129/129/129
f 127/127/127 124/124/124 129/129/129
f 120/120/120 121/121/121 129/129/129
f 113/113/113 130/130/130 128/128/128
f 130/130/130 124/124/124 128/128/128
f 113/113/113 112/112/112 130/130/130
f 120/120/120 129/129/129 131/131/131
f 129/129/129 124/124/124 131/131/131
f 118/118/118 120/120/120 131/131/131
f 112/112/112 132/132/132 130/130/130
f 132/132/132 124/124/124 130/130/130
f 131/131/131 124/124/124 132/132/132
f 118/118/118 131/131/131 132/132/132
f 112/112/112 118/118/118 132/132/132
f 135/135/135 134/134/134 133/133/133
f 136/136/136 135/135/135 133/133/133
f 133/133/133 134/134/134 137/137/137
f 138/138/138 135/135/135 136/136/136
f 134/134/134 139/139/139 137/137/137
f 140/140/140 138/138/138 136/136/136
f 137/137/137 139/139/139 141/141/141
f 142/142/142 138/138/138 140/140/140
f 139/139/139 143/143/143 141/141/141
f 144/144/144 142/142/142 140/140/140
f 141/141/141 143/143/143 145/145/145
f 146/146/146 142/142/142 144/144/144
f 143/143/143 147/147/147 145/145/145
f 148/148/148 146/146/146 144/144/144
f 145/145/145 147/147/147 149/149/149
f 150/150/150 146/146/146 148/148/148
f 147/147/147 151/151/151 149/149/149
f 152/152/152 150/150/150 148/148/148
f 149/149/149 151/151/151 152/152/152
f 151/151/151 150/150/150 152/152/152
