g fridge01.001
v -3.7725801 2.3502927 -1.0063052
v -3.7725801 2.080058 -1.0063052
v -3.7725801 2.080058 -1.1769798
v -1.6675949 2.080058 -1.1769798
v -1.6675949 2.080058 -1.0063052
v -1.6675949 2.3502927 -1.0063052
v 3.7655427 2.080058 -1.1769798
v 3.7655427 2.080058 -1.0063052
v 3.7655427 2.3502927 -1.0063052
v 1.6747804 2.3502927 -1.0063052
v 1.6747804 2.080058 -1.0063052
v 1.6747804 2.080058 -1.1769798
v -3.7725801 1.866715 -1.0063052
v -3.7725801 1.6107035 -1.0063052
v -3.7725801 1.6107035 -1.1769798
v -1.6675949 1.6107035 -1.1769798
v -1.6675949 1.6107035 -1.0063052
v -1.6675949 1.866715 -1.0063052
v 3.7655427 1.6107035 -1.1769798
v 3.7655427 1.6107035 -1.0063052
v 3.7655427 1.866715 -1.0063052
v 1.6747804 1.866715 -1.0063052
v 1.6747804 1.6107035 -1.0063052
v 1.6747804 1.6107035 -1.1769798
v -3.7725801 1.3973603 -1.0063052
v -3.7725801 1.1271257 -1.0063052
v -3.7725801 1.1271257 -1.1769798
v -1.6675949 1.1271257 -1.1769798
v -1.6675949 1.1271257 -1.0063052
v -1.6675949 1.3973603 -1.0063052
v 3.7655427 1.1271257 -1.1769798
v 3.7655427 1.1271257 -1.0063052
v 3.7655427 1.3973603 -1.0063052
v 1.6747804 1.3973603 -1.0063052
v 1.6747804 1.1271257 -1.0063052
v 1.6747804 1.1271257 -1.1769798
v -3.7725801 0.9137826 -1.0063052
v -3.7725801 0.6577711 -1.0063052
v -3.7725801 0.6577711 -1.1769798
v -1.6675949 0.6577711 -1.1769798
v -1.6675949 0.6577711 -1.0063052
v -1.6675949 0.9137826 -1.0063052
v 3.7655427 0.6577711 -1.1769798
v 3.7655427 0.6577711 -1.0063052
v 3.7655427 0.9137826 -1.0063052
v 1.6747804 0.9137826 -1.0063052
v 1.6747804 0.6577711 -1.0063052
v 1.6747804 0.6577711 -1.1769798
v 3.9931087 9.618181 -1.0063052
v -3.7299118 9.618181 -1.0063052
v 3.737097 9.618181 -1.0063052
v -4.000146 2.8480935 -1.0063052
v -4.000146 0.0035185814 -1.0063052
v 3.9931087 0.0035185814 -1.0063052
v 3.9931087 2.8480935 -1.0063052
v -4.000146 2.8480935 2.6063046
v 3.9931087 2.8480935 2.6063046
v 3.9931087 0.0035185814 2.6063046
v -4.000146 0.0035185814 2.6063046
v -4.000146 2.8480935 -1.0063052
v -4.000146 2.8480935 2.6063046
v -4.000146 0.0035185814 2.6063046
v -4.000146 0.0035185814 -1.0063052
v 3.9931087 2.8480935 2.6063046
v 3.9931087 2.8480935 -1.0063052
v 3.9931087 0.0035185814 -1.0063052
v 3.9931087 0.0035185814 2.6063046
v 3.9931087 0.0035185814 2.6063046
v 3.9931087 0.0035185814 -1.0063052
v -4.000146 0.0035185814 -1.0063052
v -4.000146 0.0035185814 2.6063046
v -4.000146 2.8480935 -1.0063052
v 3.9931087 2.8480935 -1.0063052
v 3.9931087 2.8480935 2.6063046
v -4.000146 2.8480935 2.6063046
v 4.05 0.24530745 2.250733
v 4.05 2.250733 2.250733
v 4.05 2.250733 -0.6365106
v 4.05 0.24530745 -0.6365106
v -4.0570374 0.24530745 -0.6365106
v -4.0570374 2.250733 -0.6365106
v -4.0570374 2.250733 2.250733
v -4.0570374 0.24530745 2.250733
v 4.05 2.250733 -0.6365106
v 3.9077713 2.250733 2.250733
v 3.9077713 2.250733 -0.6365106
v 4.05 2.250733 2.250733
v 4.05 2.250733 -0.6365106
v 4.05 0.24530745 -0.6365106
v 4.05 2.250733 2.250733
v 4.05 0.24530745 -0.6365106
v 4.05 0.24530745 2.250733
v 4.05 0.24530745 2.250733
v 4.05 0.24530745 2.250733
v 4.05 0.24530745 -0.6365106
v 3.9077713 0.24530745 -0.6365106
v 3.9077713 0.24530745 2.250733
v 4.05 0.24530745 -0.6365106
v 4.05 2.250733 -0.6365106
v 3.9077713 2.250733 -0.6365106
v 3.9077713 0.24530745 -0.6365106
v 4.05 2.250733 2.250733
v 4.05 0.24530745 2.250733
v 3.9077713 0.24530745 2.250733
v 3.9077713 2.250733 2.250733
v -4.0570374 2.250733 -0.6365106
v -4.0570374 0.24530745 -0.6365106
v -3.9148088 0.24530745 -0.6365106
v -3.9148088 2.250733 -0.6365106
v -4.0570374 0.24530745 2.250733
v -4.0570374 2.250733 2.250733
v -3.9148088 2.250733 2.250733
v -3.9148088 0.24530745 2.250733
v -4.0570374 0.24530745 -0.6365106
v -4.0570374 0.24530745 2.250733
v -3.9148088 0.24530745 2.250733
v -3.9148088 0.24530745 -0.6365106
v -4.0570374 2.250733 2.250733
v -4.0570374 2.250733 -0.6365106
v -3.9148088 2.250733 -0.6365106
v -3.9148088 2.250733 2.250733
v 1.6747804 2.080058 -1.1769798
v 3.7655427 2.080058 -1.1769798
v 3.7655427 2.3502927 -1.0063052
v 1.6747804 2.3502927 -1.0063052
v -3.7725801 2.080058 -1.1769798
v -1.6675949 2.080058 -1.1769798
v -1.6675949 2.3502927 -1.0063052
v -3.7725801 2.3502927 -1.0063052
v 1.6747804 1.6107035 -1.1769798
v 3.7655427 1.6107035 -1.1769798
v 3.7655427 1.866715 -1.0063052
v 1.6747804 1.866715 -1.0063052
v -3.7725801 1.6107035 -1.1769798
v -1.6675949 1.6107035 -1.1769798
v -1.6675949 1.866715 -1.0063052
v -3.7725801 1.866715 -1.0063052
v 1.6747804 1.1271257 -1.1769798
v 3.7655427 1.1271257 -1.1769798
v 3.7655427 1.3973603 -1.0063052
v 1.6747804 1.3973603 -1.0063052
v -3.7725801 1.1271257 -1.1769798
v -1.6675949 1.1271257 -1.1769798
v -1.6675949 1.3973603 -1.0063052
v -3.7725801 1.3973603 -1.0063052
v 1.6747804 0.6577711 -1.1769798
v 3.7655427 0.6577711 -1.1769798
v 3.7655427 0.9137826 -1.0063052
v 1.6747804 0.9137826 -1.0063052
v -3.7725801 0.6577711 -1.1769798
v -1.6675949 0.6577711 -1.1769798
v -1.6675949 0.9137826 -1.0063052
v -3.7725801 0.9137826 -1.0063052
v -0.0461874 2.8480935 -0.7929621
v -0.0461874 9.618181 -0.7929621
v -0.0461874 9.618181 2.5067444
v -0.0461874 2.8480935 2.5067444
v 0.15293288 2.8480935 -0.7929621
v 0.15293288 2.8480935 2.5067444
v 0.15293288 9.618181 2.5067444
v 0.15293288 9.618181 -0.7929621
v -0.0461874 2.8480935 -0.7929621
v 0.15293288 2.8480935 -0.7929621
v 0.15293288 9.618181 -0.7929621
v -0.0461874 9.618181 -0.7929621
v 3.9931087 10.499999 2.6063046
v 3.9931087 10.499999 -1.0063052
v 3.9931087 9.618181 -1.0063052
v 3.9931087 2.8480935 2.6063046
v 3.9931087 2.8480935 -1.0063052
v -4.000146 9.618181 -1.0063052
v -4.000146 10.499999 -1.0063052
v -4.000146 10.499999 2.6063046
v -4.000146 2.8480935 2.6063046
v -4.000146 2.8480935 -1.0063052
v -3.7299118 10.499999 -1.0063052
v -4.000146 10.499999 2.6063046
v -4.000146 10.499999 -1.0063052
v 3.9931087 10.499999 2.6063046
v 3.737097 10.499999 -1.0063052
v 3.9931087 10.499999 -1.0063052
v 3.737097 9.618181 -1.0063052
v 3.737097 2.8480935 -1.0063052
v 3.9931087 2.8480935 -1.0063052
v 3.9931087 9.618181 -1.0063052
v 3.9931087 10.499999 -1.0063052
v 3.737097 10.499999 -1.0063052
v -3.7299118 9.618181 -1.0063052
v -3.7299118 10.499999 -1.0063052
v -4.000146 9.618181 -1.0063052
v -4.000146 10.499999 -1.0063052
v -4.000146 2.8480935 -1.0063052
v -3.7299118 2.8480935 -1.0063052
v 3.737097 2.8480935 2.3645158
v 3.737097 9.618181 2.4071846
v -3.7299118 9.618181 2.4071846
v -3.7299118 2.8480935 2.3645158
v -3.7299118 2.8480935 2.3645158
v -3.7299118 9.618181 2.4071846
v -3.7299118 9.618181 -1.0063052
v -3.7299118 2.8480935 -1.0063052
v 3.737097 9.618181 -1.0063052
v 3.737097 9.618181 2.4071846
v 3.737097 2.8480935 2.3645158
v 3.737097 2.8480935 -1.0063052
v -3.7299118 9.618181 2.4071846
v 3.737097 9.618181 2.4071846
v 3.737097 9.618181 -1.0063052
v -3.7299118 9.618181 -1.0063052
v -4.000146 10.499999 2.6063046
v 3.9931087 10.499999 2.6063046
v 3.9931087 2.8480935 2.6063046
v -4.000146 2.8480935 2.6063046
v -3.8721404 6.844721 -0.49428177
v 3.9504402 6.844721 -0.49428177
v 3.9504402 6.9442806 -0.49428177
v -3.8721404 6.9442806 -0.49428177
v 3.9504402 4.938856 2.3929615
v -3.8721404 4.938856 2.3929615
v -3.8721404 4.938856 -0.49428177
v 3.9504402 4.938856 -0.49428177
v -3.8721404 6.844721 2.3929615
v 3.9504402 6.844721 2.3929615
v 3.9504402 6.844721 -0.49428177
v -3.8721404 6.844721 -0.49428177
v -3.8721404 4.8392954 2.3929615
v -3.8721404 4.8392954 -0.49428177
v -3.8721404 4.938856 -0.49428177
v -3.8721404 4.938856 2.3929615
v 3.9504402 6.9442806 2.3929615
v -3.8721404 6.9442806 2.3929615
v -3.8721404 6.9442806 -0.49428177
v 3.9504402 6.9442806 -0.49428177
v 3.9504402 4.8392954 -0.49428177
v 3.9504402 4.8392954 2.3929615
v 3.9504402 4.938856 2.3929615
v 3.9504402 4.938856 -0.49428177
v -3.8721404 4.8392954 2.3929615
v 3.9504402 4.8392954 2.3929615
v 3.9504402 4.8392954 -0.49428177
v -3.8721404 4.8392954 -0.49428177
v -3.8721404 4.8392954 -0.49428177
v 3.9504402 4.8392954 -0.49428177
v 3.9504402 4.938856 -0.49428177
v -3.8721404 4.938856 -0.49428177
v 3.9504402 6.844721 -0.49428177
v 3.9504402 6.844721 2.3929615
v 3.9504402 6.9442806 2.3929615
v 3.9504402 6.9442806 -0.49428177
v -3.8721404 6.844721 2.3929615
v -3.8721404 6.844721 -0.49428177
v -3.8721404 6.9442806 -0.49428177
v -3.8721404 6.9442806 2.3929615
v 1.4187686 0.0035185814 -1.0489738
v 1.4187686 2.8480935 -1.0489738
v -1.425806 2.8480935 -1.0489738
v -1.425806 0.0035185814 -1.0489738
vt 0.22102307 0.6570077
vt 0.22102307 0.6570077
vt 0.22102307 0.6570077
vt 0.22102307 0.6570077
vt 0.22102307 0.6570077
vt 0.22102307 0.6570077
vt 0.22102307 0.6570077
vt 0.22102307 0.6570077
vt 0.22102307 0.6570077
vt 0.22102307 0.6570077
vt 0.22102307 0.6570077
vt 0.22102307 0.6570077
vt 0.22102307 0.6570077
vt 0.22102307 0.6570077
vt 0.22102307 0.6570077
vt 0.22102307 0.6570077
vt 0.22102307 0.6570077
vt 0.22102307 0.6570077
vt 0.22102307 0.6570077
vt 0.22102307 0.6570077
vt 0.22102307 0.6570077
vt 0.22102307 0.6570077
vt 0.22102307 0.6570077
vt 0.22102307 0.6570077
vt 0.22102307 0.6570077
vt 0.22102307 0.6570077
vt 0.22102307 0.6570077
vt 0.22102307 0.6570077
vt 0.22102307 0.6570077
vt 0.22102307 0.6570077
vt 0.22102307 0.6570077
vt 0.22102307 0.6570077
vt 0.22102307 0.6570077
vt 0.22102307 0.6570077
vt 0.22102307 0.6570077
vt 0.22102307 0.6570077
vt 0.22102307 0.6570077
vt 0.22102307 0.6570077
vt 0.22102307 0.6570077
vt 0.22102307 0.6570077
vt 0.22102307 0.6570077
vt 0.22102307 0.6570077
vt 0.22102307 0.6570077
vt 0.22102307 0.6570077
vt 0.22102307 0.6570077
vt 0.22102307 0.6570077
vt 0.22102307 0.6570077
vt 0.22102307 0.6570077
vt 0.22102307 0.6570077
vt 0.22102307 0.6570077
vt 0.22102307 0.6570077
vt 0.22102307 0.6570077
vt 0.22102307 0.6570077
vt 0.22102307 0.6570077
vt 0.22102307 0.6570077
vt 0.22102307 0.6570077
vt 0.22102307 0.6570077
vt 0.22102307 0.6570077
vt 0.22102307 0.6570077
vt 0.22102307 0.6570077
vt 0.22102307 0.6570077
vt 0.22102307 0.6570077
vt 0.22102307 0.6570077
vt 0.22102307 0.6570077
vt 0.22102307 0.6570077
vt 0.22102307 0.6570077
vt 0.22102307 0.6570077
vt 0.22102307 0.6570077
vt 0.22102307 0.6570077
vt 0.22102307 0.6570077
vt 0.22102307 0.6570077
vt 0.032756954 0.6570077
vt 0.032756954 0.6570077
vt 0.032756954 0.6570077
vt 0.032756954 0.6570077
vt 0.6603106 0.15496477
vt 0.6603106 0.15496477
vt 0.6603106 0.15496477
vt 0.6603106 0.15496477
vt 0.6603106 0.15496477
vt 0.6603106 0.15496477
vt 0.6603106 0.15496477
vt 0.6603106 0.15496477
vt 0.6603106 0.15496477
vt 0.6603106 0.15496477
vt 0.6603106 0.15496477
vt 0.6603106 0.15496477
vt 0.6603106 0.15496477
vt 0.6603106 0.15496477
vt 0.6603106 0.15496477
vt 0.6603106 0.15496477
vt 0.6603106 0.15496477
vt 0.6603106 0.15496477
vt 0.6603106 0.15496477
vt 0.6603106 0.15496477
vt 0.6603106 0.15496477
vt 0.6603106 0.15496477
vt 0.6603106 0.15496477
vt 0.6603106 0.15496477
vt 0.6603106 0.15496477
vt 0.6603106 0.15496477
vt 0.6603106 0.15496477
vt 0.6603106 0.15496477
vt 0.6603106 0.15496477
vt 0.6603106 0.15496477
vt 0.6603106 0.15496477
vt 0.6603106 0.15496477
vt 0.6603106 0.15496477
vt 0.6603106 0.15496477
vt 0.6603106 0.15496477
vt 0.6603106 0.15496477
vt 0.6603106 0.15496477
vt 0.6603106 0.15496477
vt 0.6603106 0.15496477
vt 0.6603106 0.15496477
vt 0.6603106 0.15496477
vt 0.6603106 0.15496477
vt 0.6603106 0.15496477
vt 0.6603106 0.15496477
vt 0.6603106 0.15496477
vt 0.6603106 0.15496477
vt 0.22102307 0.6570077
vt 0.22102307 0.6570077
vt 0.22102307 0.6570077
vt 0.22102307 0.6570077
vt 0.22102307 0.6570077
vt 0.22102307 0.6570077
vt 0.22102307 0.6570077
vt 0.22102307 0.6570077
vt 0.22102307 0.6570077
vt 0.22102307 0.6570077
vt 0.22102307 0.6570077
vt 0.22102307 0.6570077
vt 0.22102307 0.6570077
vt 0.22102307 0.6570077
vt 0.22102307 0.6570077
vt 0.22102307 0.6570077
vt 0.22102307 0.6570077
vt 0.22102307 0.6570077
vt 0.22102307 0.6570077
vt 0.22102307 0.6570077
vt 0.22102307 0.6570077
vt 0.22102307 0.6570077
vt 0.22102307 0.6570077
vt 0.22102307 0.6570077
vt 0.22102307 0.6570077
vt 0.22102307 0.6570077
vt 0.22102307 0.6570077
vt 0.22102307 0.6570077
vt 0.22102307 0.6570077
vt 0.22102307 0.6570077
vt 0.22102307 0.6570077
vt 0.22102307 0.6570077
vt 0.032756954 0.6570077
vt 0.032756954 0.6570077
vt 0.032756954 0.6570077
vt 0.032756954 0.6570077
vt 0.032756954 0.6570077
vt 0.032756954 0.6570077
vt 0.032756954 0.6570077
vt 0.032756954 0.6570077
vt 0.032756954 0.6570077
vt 0.032756954 0.6570077
vt 0.032756954 0.6570077
vt 0.032756954 0.6570077
vt 0.22102307 0.6570077
vt 0.22102307 0.6570077
vt 0.22102307 0.6570077
vt 0.22102307 0.6570077
vt 0.22102307 0.6570077
vt 0.22102307 0.6570077
vt 0.22102307 0.6570077
vt 0.22102307 0.6570077
vt 0.22102307 0.6570077
vt 0.22102307 0.6570077
vt 0.22102307 0.6570077
vt 0.22102307 0.6570077
vt 0.22102307 0.6570077
vt 0.22102307 0.6570077
vt 0.22102307 0.6570077
vt 0.22102307 0.6570077
vt 0.22102307 0.6570077
vt 0.22102307 0.6570077
vt 0.22102307 0.6570077
vt 0.22102307 0.6570077
vt 0.22102307 0.6570077
vt 0.22102307 0.6570077
vt 0.22102307 0.6570077
vt 0.22102307 0.6570077
vt 0.22102307 0.6570077
vt 0.22102307 0.6570077
vt 0.22102307 0.6570077
vt 0.22102307 0.6570077
vt 0.032756954 0.6570077
vt 0.032756954 0.6570077
vt 0.032756954 0.6570077
vt 0.032756954 0.6570077
vt 0.032756954 0.6570077
vt 0.032756954 0.6570077
vt 0.032756954 0.6570077
vt 0.032756954 0.6570077
vt 0.032756954 0.6570077
vt 0.032756954 0.6570077
vt 0.032756954 0.6570077
vt 0.032756954 0.6570077
vt 0.032756954 0.6570077
vt 0.032756954 0.6570077
vt 0.032756954 0.6570077
vt 0.032756954 0.6570077
vt 0.22102307 0.6570077
vt 0.22102307 0.6570077
vt 0.22102307 0.6570077
vt 0.22102307 0.6570077
vt 0.032756954 0.6570077
vt 0.032756954 0.6570077
vt 0.032756954 0.6570077
vt 0.032756954 0.6570077
vt 0.032756954 0.6570077
vt 0.032756954 0.6570077
vt 0.032756954 0.6570077
vt 0.032756954 0.6570077
vt 0.032756954 0.6570077
vt 0.032756954 0.6570077
vt 0.032756954 0.6570077
vt 0.032756954 0.6570077
vt 0.032756954 0.6570077
vt 0.032756954 0.6570077
vt 0.032756954 0.6570077
vt 0.032756954 0.6570077
vt 0.032756954 0.6570077
vt 0.032756954 0.6570077
vt 0.032756954 0.6570077
vt 0.032756954 0.6570077
vt 0.032756954 0.6570077
vt 0.032756954 0.6570077
vt 0.032756954 0.6570077
vt 0.032756954 0.6570077
vt 0.032756954 0.6570077
vt 0.032756954 0.6570077
vt 0.032756954 0.6570077
vt 0.032756954 0.6570077
vt 0.032756954 0.6570077
vt 0.032756954 0.6570077
vt 0.032756954 0.6570077
vt 0.032756954 0.6570077
vt 0.032756954 0.6570077
vt 0.032756954 0.6570077
vt 0.032756954 0.6570077
vt 0.032756954 0.6570077
vt 0.032756954 0.6570077
vt 0.032756954 0.6570077
vt 0.032756954 0.6570077
vt 0.032756954 0.6570077
vt 0.12523855 0.7494893
vt 0.12523855 0.8750001
vt 0.2507493 0.8750001
vt 0.2507493 0.7494893
vn -0.999874 0.015871048 -0.00034391563
vn -0.999874 0.015871048 -0.00034391563
vn -0.999874 0.015871048 -0.00034391563
vn 0.999874 0.015871048 -0.00034391563
vn 0.999874 0.015871048 -0.00034391563
vn 0.999874 0.015871048 -0.00034391563
vn 0.999874 0.015871048 -0.00034391563
vn 0.999874 0.015871048 -0.00034391563
vn 0.999874 0.015871048 -0.00034391563
vn -0.999874 0.015871048 -0.00034391563
vn -0.999874 0.015871048 -0.00034391563
vn -0.999874 0.015871048 -0.00034391563
vn -0.999874 0.015871048 -0.00034391563
vn -0.999874 0.015871048 -0.00034391563
vn -0.999874 0.015871048 -0.00034391563
vn 0.999874 0.015871048 -0.00034391563
vn 0.999874 0.015871048 -0.00034391563
vn 0.999874 0.015871048 -0.00034391563
vn 0.999874 0.015871048 -0.00034391563
vn 0.999874 0.015871048 -0.00034391563
vn 0.999874 0.015871048 -0.00034391563
vn -0.999874 0.015871048 -0.00034391563
vn -0.999874 0.015871048 -0.00034391563
vn -0.999874 0.015871048 -0.00034391563
vn -0.999874 0.015871048 -0.00034391563
vn -0.999874 0.015871048 -0.00034391563
vn -0.999874 0.015871048 -0.00034391563
vn 0.999874 0.015871048 -0.00034391563
vn 0.999874 0.015871048 -0.00034391563
vn 0.999874 0.015871048 -0.00034391563
vn 0.999874 0.015871048 -0.00034391563
vn 0.999874 0.015871048 -0.00034391563
vn 0.999874 0.015871048 -0.00034391563
vn -0.999874 0.015871048 -0.00034391563
vn -0.999874 0.015871048 -0.00034391563
vn -0.999874 0.015871048 -0.00034391563
vn -0.999874 0.015871048 -0.00034391563
vn -0.999874 0.015871048 -0.00034391563
vn -0.999874 0.015871048 -0.00034391563
vn 0.999874 0.015871048 -0.00034391563
vn 0.999874 0.015871048 -0.00034391563
vn 0.999874 0.015871048 -0.00034391563
vn 0.999874 0.015871048 -0.00034391563
vn 0.999874 0.015871048 -0.00034391563
vn 0.999874 0.015871048 -0.00034391563
vn -0.999874 0.015871048 -0.00034391563
vn -0.999874 0.015871048 -0.00034391563
vn -0.999874 0.015871048 -0.00034391563
vn -0.015871048 0.999874 -0.00034526698
vn -0.015871048 0.999874 -0.00034526698
vn -0.015871048 0.999874 -0.00034526698
vn -0.015871048 0.015871048 -0.99974805
vn -0.015871048 0.015871048 -0.99974805
vn -0.015871048 0.015871048 -0.99974805
vn -0.015871048 0.015871048 -0.99974805
vn -0.015871048 0.015871048 0.99974805
vn -0.015871048 0.015871048 0.99974805
vn -0.015871048 0.015871048 0.99974805
vn -0.015871048 0.015871048 0.99974805
vn -0.999874 0.015871048 -0.00034391563
vn -0.999874 0.015871048 -0.00034391563
vn -0.999874 0.015871048 -0.00034391563
vn -0.999874 0.015871048 -0.00034391563
vn 0.999874 0.015871048 -0.00034391563
vn 0.999874 0.015871048 -0.00034391563
vn 0.999874 0.015871048 -0.00034391563
vn 0.999874 0.015871048 -0.00034391563
vn -0.015871048 -0.999874 -0.00034526698
vn -0.015871048 -0.999874 -0.00034526698
vn -0.015871048 -0.999874 -0.00034526698
vn -0.015871048 -0.999874 -0.00034526698
vn -0.015871048 0.999874 -0.00034526698
vn -0.015871048 0.999874 -0.00034526698
vn -0.015871048 0.999874 -0.00034526698
vn -0.015871048 0.999874 -0.00034526698
vn 0.999874 0.015871048 -0.00034391563
vn 0.999874 0.015871048 -0.00034391563
vn 0.999874 0.015871048 -0.00034391563
vn 0.999874 0.015871048 -0.00034391563
vn -0.999874 0.015871048 -0.00034391563
vn -0.999874 0.015871048 -0.00034391563
vn -0.999874 0.015871048 -0.00034391563
vn -0.999874 0.015871048 -0.00034391563
vn -0.015871048 0.999874 -0.00034526698
vn -0.015871048 0.999874 -0.00034526698
vn -0.015871048 0.999874 -0.00034526698
vn -0.015871048 0.999874 -0.00034526698
vn -0.015871048 0.999874 -0.00034526698
vn -0.015871048 0.999874 -0.00034526698
vn -0.015871048 0.999874 -0.00034526698
vn -0.015871048 0.999874 -0.00034526698
vn -0.015871048 0.999874 -0.00034526698
vn -0.015871048 0.999874 -0.00034526698
vn -0.015871048 -0.999874 -0.00034526698
vn -0.015871048 -0.999874 -0.00034526698
vn -0.015871048 -0.999874 -0.00034526698
vn -0.015871048 -0.999874 -0.00034526698
vn -0.015871048 0.015871048 -0.99974805
vn -0.015871048 0.015871048 -0.99974805
vn -0.015871048 0.015871048 -0.99974805
vn -0.015871048 0.015871048 -0.99974805
vn -0.015871048 0.015871048 0.99974805
vn -0.015871048 0.015871048 0.99974805
vn -0.015871048 0.015871048 0.99974805
vn -0.015871048 0.015871048 0.99974805
vn -0.015871048 0.015871048 -0.99974805
vn -0.015871048 0.015871048 -0.99974805
vn -0.015871048 0.015871048 -0.99974805
vn -0.015871048 0.015871048 -0.99974805
vn -0.015871048 0.015871048 0.99974805
vn -0.015871048 0.015871048 0.99974805
vn -0.015871048 0.015871048 0.99974805
vn -0.015871048 0.015871048 0.99974805
vn -0.015871048 -0.999874 -0.00034526698
vn -0.015871048 -0.999874 -0.00034526698
vn -0.015871048 -0.999874 -0.00034526698
vn -0.015871048 -0.999874 -0.00034526698
vn -0.015871048 0.999874 -0.00034526698
vn -0.015871048 0.999874 -0.00034526698
vn -0.015871048 0.999874 -0.00034526698
vn -0.015871048 0.999874 -0.00034526698
vn -0.015871048 0.5554856 -0.8313747
vn -0.015871048 0.5554856 -0.8313747
vn -0.015871048 0.5554856 -0.8313747
vn -0.015871048 0.5554856 -0.8313747
vn -0.015871048 0.5554856 -0.8313747
vn -0.015871048 0.5554856 -0.8313747
vn -0.015871048 0.5554856 -0.8313747
vn -0.015871048 0.5554856 -0.8313747
vn -0.015871048 0.5554856 -0.8313747
vn -0.015871048 0.5554856 -0.8313747
vn -0.015871048 0.5554856 -0.8313747
vn -0.015871048 0.5554856 -0.8313747
vn -0.015871048 0.5554856 -0.8313747
vn -0.015871048 0.5554856 -0.8313747
vn -0.015871048 0.5554856 -0.8313747
vn -0.015871048 0.5554856 -0.8313747
vn -0.015871048 0.5554856 -0.8313747
vn -0.015871048 0.5554856 -0.8313747
vn -0.015871048 0.5554856 -0.8313747
vn -0.015871048 0.5554856 -0.8313747
vn -0.015871048 0.5554856 -0.8313747
vn -0.015871048 0.5554856 -0.8313747
vn -0.015871048 0.5554856 -0.8313747
vn -0.015871048 0.5554856 -0.8313747
vn -0.015871048 0.5554856 -0.8313747
vn -0.015871048 0.5554856 -0.8313747
vn -0.015871048 0.5554856 -0.8313747
vn -0.015871048 0.5554856 -0.8313747
vn -0.015871048 0.5554856 -0.8313747
vn -0.015871048 0.5554856 -0.8313747
vn -0.015871048 0.5554856 -0.8313747
vn -0.015871048 0.5554856 -0.8313747
vn -0.999874 0.015871048 -0.00034391563
vn -0.999874 0.015871048 -0.00034391563
vn -0.999874 0.015871048 -0.00034391563
vn -0.999874 0.015871048 -0.00034391563
vn 0.999874 0.015871048 -0.00034391563
vn 0.999874 0.015871048 -0.00034391563
vn 0.999874 0.015871048 -0.00034391563
vn 0.999874 0.015871048 -0.00034391563
vn -0.015871048 0.015871048 -0.99974805
vn -0.015871048 0.015871048 -0.99974805
vn -0.015871048 0.015871048 -0.99974805
vn -0.015871048 0.015871048 -0.99974805
vn 0.999874 0.015871048 -0.00034391563
vn 0.999874 0.015871048 -0.00034391563
vn 0.999874 0.015871048 -0.00034391563
vn 0.999874 0.015871048 -0.00034391563
vn 0.999874 0.015871048 -0.00034391563
vn -0.999874 0.015871048 -0.00034391563
vn -0.999874 0.015871048 -0.00034391563
vn -0.999874 0.015871048 -0.00034391563
vn -0.999874 0.015871048 -0.00034391563
vn -0.999874 0.015871048 -0.00034391563
vn -0.015871048 0.999874 -0.00034526698
vn -0.015871048 0.999874 -0.00034526698
vn -0.015871048 0.999874 -0.00034526698
vn -0.015871048 0.999874 -0.00034526698
vn -0.015871048 0.999874 -0.00034526698
vn -0.015871048 0.999874 -0.00034526698
vn -0.015871048 0.015871048 -0.99974805
vn -0.015871048 0.015871048 -0.99974805
vn -0.015871048 0.015871048 -0.99974805
vn -0.015871048 0.015871048 -0.99974805
vn -0.015871048 0.015871048 -0.99974805
vn -0.015871048 0.015871048 -0.99974805
vn -0.015871048 0.015871048 -0.99974805
vn -0.015871048 0.015871048 -0.99974805
vn -0.015871048 0.015871048 -0.99974805
vn -0.015871048 0.015871048 -0.99974805
vn -0.015871048 0.015871048 -0.99974805
vn -0.015871048 0.015871048 -0.99974805
vn -0.015871048 0.015871048 -0.99974805
vn -0.015871048 0.015871048 -0.99974805
vn -0.015871048 0.015871048 -0.99974805
vn -0.015871048 0.015871048 -0.99974805
vn 0.999874 0.015871048 -0.00034391563
vn 0.999874 0.015871048 -0.00034391563
vn 0.999874 0.015871048 -0.00034391563
vn 0.999874 0.015871048 -0.00034391563
vn -0.999874 0.015871048 -0.00034391563
vn -0.999874 0.015871048 -0.00034391563
vn -0.999874 0.015871048 -0.00034391563
vn -0.999874 0.015871048 -0.00034391563
vn -0.015871048 -0.999874 -0.00034526698
vn -0.015871048 -0.999874 -0.00034526698
vn -0.015871048 -0.999874 -0.00034526698
vn -0.015871048 -0.999874 -0.00034526698
vn -0.015871048 0.015871048 0.99974805
vn -0.015871048 0.015871048 0.99974805
vn -0.015871048 0.015871048 0.99974805
vn -0.015871048 0.015871048 0.99974805
vn -0.015871048 0.015871048 -0.99974805
vn -0.015871048 0.015871048 -0.99974805
vn -0.015871048 0.015871048 -0.99974805
vn -0.015871048 0.015871048 -0.99974805
vn -0.015871048 0.999874 -0.00034526698
vn -0.015871048 0.999874 -0.00034526698
vn -0.015871048 0.999874 -0.00034526698
vn -0.015871048 0.999874 -0.00034526698
vn -0.015871048 -0.999874 -0.00034526698
vn -0.015871048 -0.999874 -0.00034526698
vn -0.015871048 -0.999874 -0.00034526698
vn -0.015871048 -0.999874 -0.00034526698
vn -0.999874 0.015871048 -0.00034391563
vn -0.999874 0.015871048 -0.00034391563
vn -0.999874 0.015871048 -0.00034391563
vn -0.999874 0.015871048 -0.00034391563
vn -0.015871048 0.999874 -0.00034526698
vn -0.015871048 0.999874 -0.00034526698
vn -0.015871048 0.999874 -0.00034526698
vn -0.015871048 0.999874 -0.00034526698
vn 0.999874 0.015871048 -0.00034391563
vn 0.999874 0.015871048 -0.00034391563
vn 0.999874 0.015871048 -0.00034391563
vn 0.999874 0.015871048 -0.00034391563
vn -0.015871048 -0.999874 -0.00034526698
vn -0.015871048 -0.999874 -0.00034526698
vn -0.015871048 -0.999874 -0.00034526698
vn -0.015871048 -0.999874 -0.00034526698
vn -0.015871048 0.015871048 -0.99974805
vn -0.015871048 0.015871048 -0.99974805
vn -0.015871048 0.015871048 -0.99974805
vn -0.015871048 0.015871048 -0.99974805
vn 0.999874 0.015871048 -0.00034391563
vn 0.999874 0.015871048 -0.00034391563
vn 0.999874 0.015871048 -0.00034391563
vn 0.999874 0.015871048 -0.00034391563
vn -0.999874 0.015871048 -0.00034391563
vn -0.999874 0.015871048 -0.00034391563
vn -0.999874 0.015871048 -0.00034391563
vn -0.999874 0.015871048 -0.00034391563
vn -0.015871048 0.015871048 -0.99974805
vn -0.015871048 0.015871048 -0.99974805
vn -0.015871048 0.015871048 -0.99974805
vn -0.015871048 0.015871048 -0.99974805
g fridge01.001_0
f 3/3/3 2/2/2 1/1/1
f 6/6/6 5/5/5 4/4/4
f 9/9/9 8/8/8 7/7/7
f 12/12/12 11/11/11 10/10/10
f 15/15/15 14/14/14 13/13/13
f 18/18/18 17/17/17 16/16/16
f 21/21/21 20/20/20 19/19/19
f 24/24/24 23/23/23 22/22/22
f 27/27/27 26/26/26 25/25/25
f 30/30/30 29/29/29 28/28/28
f 33/33/33 32/32/32 31/31/31
f 36/36/36 35/35/35 34/34/34
f 39/39/39 38/38/38 37/37/37
f 42/42/42 41/41/41 40/40/40
f 45/45/45 44/44/44 43/43/43
f 48/48/48 47/47/47 46/46/46
f 51/51/51 50/50/50 49/49/49
f 54/54/54 53/53/53 52/52/52
f 55/55/55 54/54/54 52/52/52
f 58/58/58 57/57/57 56/56/56
f 59/59/59 58/58/58 56/56/56
f 62/62/62 61/61/61 60/60/60
f 63/63/63 62/62/62 60/60/60
f 66/66/66 65/65/65 64/64/64
f 67/67/67 66/66/66 64/64/64
f 70/70/70 69/69/69 68/68/68
f 71/71/71 70/70/70 68/68/68
f 74/74/74 73/73/73 72/72/72
f 75/75/75 74/74/74 72/72/72
f 78/78/78 77/77/77 76/76/76
f 79/79/79 78/78/78 76/76/76
f 82/82/82 81/81/81 80/80/80
f 83/83/83 82/82/82 80/80/80
f 86/86/86 85/85/85 84/84/84
f 85/85/85 87/87/87 84/84/84
f 84/84/84 87/87/87 88/88/88
f 84/84/84 88/88/88 89/89/89
f 87/87/87 90/90/90 88/88/88
f 91/91/91 84/84/84 89/89/89
f 87/87/87 92/92/92 90/90/90
f 91/91/91 89/89/89 93/93/93
f 92/92/92 93/93/93 90/90/90
f 92/92/92 91/91/91 93/93/93
f 96/96/96 95/95/95 94/94/94
f 97/97/97 96/96/96 94/94/94
f 100/100/100 99/99/99 98/98/98
f 101/101/101 100/100/100 98/98/98
f 104/104/104 103/103/103 102/102/102
f 105/105/105 104/104/104 102/102/102
f 108/108/108 107/107/107 106/106/106
f 109/109/109 108/108/108 106/106/106
f 112/112/112 111/111/111 110/110/110
f 113/113/113 112/112/112 110/110/110
f 116/116/116 115/115/115 114/114/114
f 117/117/117 116/116/116 114/114/114
f 120/120/120 119/119/119 118/118/118
f 121/121/121 120/120/120 118/118/118
f 124/124/124 123/123/123 122/122/122
f 125/125/125 124/124/124 122/122/122
f 128/128/128 127/127/127 126/126/126
f 129/129/129 128/128/128 126/126/126
f 132/132/132 131/131/131 130/130/130
f 133/133/133 132/132/132 130/130/130
f 136/136/136 135/135/135 134/134/134
f 137/137/137 136/136/136 134/134/134
f 140/140/140 139/139/139 138/138/138
f 141/141/141 140/140/140 138/138/138
f 144/144/144 143/143/143 142/142/142
f 145/145/145 144/144/144 142/142/142
f 148/148/148 147/147/147 146/146/146
f 149/149/149 148/148/148 146/146/146
f 152/152/152 151/151/151 150/150/150
f 153/153/153 152/152/152 150/150/150
f 156/156/156 155/155/155 154/154/154
f 157/157/157 156/156/156 154/154/154
f 160/160/160 159/159/159 158/158/158
f 161/161/161 160/160/160 158/158/158
f 164/164/164 163/163/163 162/162/162
f 165/165/165 164/164/164 162/162/162
f 168/168/168 167/167/167 166/166/166
f 166/166/166 169/169/169 168/168/168
f 169/169/169 170/170/170 168/168/168
f 173/173/173 172/172/172 171/171/171
f 174/174/174 173/173/173 171/171/171
f 175/175/175 174/174/174 171/171/171
f 178/178/178 177/177/177 176/176/176
f 177/177/177 179/179/179 176/176/176
f 179/179/179 180/180/180 176/176/176
f 180/180/180 179/179/179 181/181/181
f 184/184/184 183/183/183 182/182/182
f 185/185/185 184/184/184 182/182/182
f 186/186/186 185/185/185 182/182/182
f 187/187/187 186/186/186 182/182/182
f 182/182/182 188/188/188 187/187/187
f 188/188/188 189/189/189 187/187/187
f 189/189/189 188/188/188 190/190/190
f 191/191/191 189/189/189 190/190/190
f 192/192/192 190/190/190 188/188/188
f 193/193/193 192/192/192 188/188/188
f 196/196/196 195/195/195 194/194/194
f 197/197/197 196/196/196 194/194/194
f 200/200/200 199/199/199 198/198/198
f 201/201/201 200/200/200 198/198/198
f 204/204/204 203/203/203 202/202/202
f 205/205/205 204/204/204 202/202/202
f 208/208/208 207/207/207 206/206/206
f 209/209/209 208/208/208 206/206/206
f 212/212/212 211/211/211 210/210/210
f 213/213/213 212/212/212 210/210/210
f 216/216/216 215/215/215 214/214/214
f 217/217/217 216/216/216 214/214/214
f 220/220/220 219/219/219 218/218/218
f 221/221/221 220/220/220 218/218/218
f 224/224/224 223/223/223 222/222/222
f 225/225/225 224/224/224 222/222/222
f 228/228/228 227/227/227 226/226/226
f 229/229/229 228/228/228 226/226/226
f 232/232/232 231/231/231 230/230/230
f 233/233/233 232/232/232 230/230/230
f 236/236/236 235/235/235 234/234/234
f 237/237/237 236/236/236 234/234/234
f 240/240/240 239/239/239 238/238/238
f 241/241/241 240/240/240 238/238/238
f 244/244/244 243/243/243 242/242/242
f 245/245/245 244/244/244 242/242/242
f 248/248/248 247/247/247 246/246/246
f 249/249/249 248/248/248 246/246/246
f 252/252/252 251/251/251 250/250/250
f 253/253/253 252/252/252 250/250/250
g fridge01.001_1
f 256/256/256 255/255/255 254/254/254
f 257/257/257 256/256/256 254/254/254
