g fruit_Apple_Green
v 0.5859289 0.812202 -0.030729055
v 0.3002239 0.90135825 0.02398038
v 0.42787927 0.66023123 0.14555705
v 0.24754065 0.6683364 0.0118227005
v 0.08138597 0.3015803 -0.036807895
v 0.10772759 0.29550147 0.005743861
v 0.28401363 0.9418837 -0.10367501
v 0.37114358 0.92162097 0.021954179
v 0.24956697 0.95201516 0.10503149
v 0.16243708 0.97025156 -0.014518857
v 0.28401363 0.9418837 -0.10367501
v 0.038834155 0.313738 -0.008440018
v 0.08138597 0.3015803 -0.036807895
v 0.24956697 0.95201516 0.10503149
v 0.10772759 0.29550147 0.005743861
v 0.06720203 0.30563283 0.03411174
v 0.16243708 0.97025156 -0.014518857
v 0.24956697 0.95201516 0.10503149
v 0.06720203 0.30563283 0.03411174
v 0.038834155 0.313738 -0.008440018
v 0.42787927 0.66023123 0.14555705
v 0.3002239 0.90135825 0.02398038
v 0.48664135 0.8810954 0.058427095
v 0.51500916 1.0715654 -0.09151739
v 0.5859289 0.812202 -0.030729055
v 0.6548223 0.82233346 0.01587534
v 0.75410986 1.045224 -0.18877864
v 0.63861203 0.5082605 0.12124169
v 0.7885566 0.7068356 -0.13609546
v 0.9060806 0.67846775 -0.13609546
v 0.96281636 0.826386 -0.32656544
v 0.8554237 0.4454459 -0.07125461
v 1.0013156 0.5224445 -0.34885448
v 0.10975385 0.34413207 -0.032755375
v 0.09962249 0.5062343 0.19824016
v -0.068558455 0.6500999 0.08071613
v 0.23538303 0.50015545 0.46570873
v 0.36911726 0.5467597 0.14555705
v 0.42787927 0.53460217 -0.07530713
v 0.5757975 0.40492046 0.20837152
v -0.028032899 0.63186336 -0.123937786
v 0.18067354 0.5305495 -0.2536195
v -0.13339937 0.6014693 -0.3914063
v 0.3508808 0.4434197 -0.45827347
v 0.59403396 0.38668394 -0.17256844
v -0.08882129 0.56702256 0.4596299
v -0.35223722 0.6521262 0.044243217
v 0.73789966 0.12124169 0.12934673
v 0.5879551 0.16379344 0.4454459
v -0.03411174 0.33805323 0.67644143
v 0.3042764 0.21242416 0.65820503
v -0.3502109 0.40694666 0.53460217
v 0.49474645 -0.29819757 0.46773493
v -0.1415044 -0.038834155 0.7230458
v 0.18877864 -0.22727793 0.67846775
v 0.7095318 0.11111033 -0.23133045
v 0.6446909 -0.3508808 0.12124169
v 0.51500916 0.1881088 -0.5251406
v 0.6467172 -0.24956697 -0.25159323
v -0.4920503 -0.022623956 0.55283856
v -0.21647668 -0.367091 0.6075481
v 0.008440018 -0.6446909 0.4109993
v 0.22322536 -0.7338471 0.19824016
v 0.44814205 -0.5494559 -0.21917278
v 0.41166908 -0.2637509 -0.55756104
v 0.20296258 0.25902843 -0.6811639
v -0.13542557 0.36236858 -0.65279603
v 0.07328087 -0.19485748 -0.7135843
v 0.12596405 -0.54337704 -0.5008253
v -0.30563283 -0.55350846 -0.42382675
v 0.15635824 -0.7419522 -0.18067354
v -0.4434197 0.42315686 -0.4461158
v -0.29144895 -0.08949107 -0.6771113
v 0.034781635 -0.7500573 0.040190578
v -0.1394782 -0.64874345 -0.19283122
v -0.204319 -0.63253325 0.19418764
v -0.15163589 -0.5676924 -0.0003349781
v -0.40492046 -0.630507 -0.040860474
v -0.45355105 -0.521088 0.33805323
v -0.5568912 -0.271856 -0.40559024
v -0.5751276 -0.5231143 -0.15433192
v -0.5771539 -0.5129829 0.12326801
v -0.7007568 0.01384902 0.24484456
v -0.731151 0.01384902 -0.13001662
v -0.56297004 0.074637294 -0.4724574
v -0.5852591 0.46773493 -0.10772759
v -0.5548649 0.44949853 0.24484456
vt 0.34127587 0.4701866
vt 0.34127587 0.4701866
vt 0.34127587 0.4701866
vt 0.65466225 0.9080385
vt 0.65466225 0.9080385
vt 0.65466225 0.9080385
vt 0.65466225 0.9080385
vt 0.65466225 0.9080385
vt 0.65466225 0.9080385
vt 0.65466225 0.9080385
vt 0.65466225 0.9080385
vt 0.65466225 0.9080385
vt 0.65466225 0.9080385
vt 0.65466225 0.9080385
vt 0.65466225 0.9080385
vt 0.65466225 0.9080385
vt 0.65466225 0.9080385
vt 0.65466225 0.9080385
vt 0.65466225 0.9080385
vt 0.65466225 0.9080385
vt 0.34127587 0.4701866
vt 0.34127587 0.4701866
vt 0.34127587 0.4701866
vt 0.34127587 0.4701866
vt 0.34127587 0.4701866
vt 0.34127587 0.4701866
vt 0.34127587 0.4701866
vt 0.34127587 0.4701866
vt 0.34127587 0.4701866
vt 0.34127587 0.4701866
vt 0.34127587 0.4701866
vt 0.34127587 0.4701866
vt 0.34127587 0.4701866
vt 0.5279741 0.4701866
vt 0.5279741 0.4701866
vt 0.5279741 0.4701866
vt 0.5279741 0.4701866
vt 0.5279741 0.4701866
vt 0.5279741 0.4701866
vt 0.5279741 0.4701866
vt 0.5279741 0.4701866
vt 0.5279741 0.4701866
vt 0.5279741 0.4701866
vt 0.5279741 0.4701866
vt 0.5279741 0.4701866
vt 0.5279741 0.4701866
vt 0.5279741 0.4701866
vt 0.5279741 0.4701866
vt 0.5279741 0.4701866
vt 0.5279741 0.4701866
vt 0.5279741 0.4701866
vt 0.5279741 0.4701866
vt 0.5279741 0.4701866
vt 0.5279741 0.4701866
vt 0.5279741 0.4701866
vt 0.5279741 0.4701866
vt 0.5279741 0.4701866
vt 0.5279741 0.4701866
vt 0.5279741 0.4701866
vt 0.5279741 0.4701866
vt 0.5279741 0.4701866
vt 0.5279741 0.4701866
vt 0.5279741 0.4701866
vt 0.5279741 0.4701866
vt 0.5279741 0.4701866
vt 0.5279741 0.4701866
vt 0.5279741 0.4701866
vt 0.5279741 0.4701866
vt 0.5279741 0.4701866
vt 0.5279741 0.4701866
vt 0.5279741 0.4701866
vt 0.5279741 0.4701866
vt 0.5279741 0.4701866
vt 0.5279741 0.4701866
vt 0.5279741 0.4701866
vt 0.5279741 0.4701866
vt 0.5279741 0.4701866
vt 0.5279741 0.4701866
vt 0.5279741 0.4701866
vt 0.5279741 0.4701866
vt 0.5279741 0.4701866
vt 0.5279741 0.4701866
vt 0.5279741 0.4701866
vt 0.5279741 0.4701866
vt 0.5279741 0.4701866
vt 0.5279741 0.4701866
vt 0.5279741 0.4701866
vn -0.42835474 -0.3878904 -0.81612086
vn -0.0202322 0.20859647 -0.9777925
vn 0.16813207 -0.827407 -0.53584445
vn 0.85880107 -0.2623142 0.44005907
vn 0.2623142 0.14580834 -0.95390314
vn 0.98437726 -0.04255593 0.17085193
vn 0.32510233 0.08302033 -0.9420276
vn 0.85880107 0.2713846 0.434524
vn -0.39696074 0.45974886 0.79438853
vn -0.553931 0.71090114 -0.43333584
vn 0.32510233 0.08302033 -0.9420276
vn -0.8678714 0.49114287 -0.07468539
vn 0.2623142 0.14580834 -0.95390314
vn -0.39696074 0.45974886 0.79438853
vn 0.98437726 -0.04255593 0.17085193
vn -0.08302033 0.23999047 0.9672188
vn -0.553931 0.71090114 -0.43333584
vn -0.39696074 0.45974886 0.79438853
vn -0.08302033 0.23999047 0.9672188
vn -0.8678714 0.49114287 -0.07468539
vn 0.16813207 -0.827407 -0.53584445
vn -0.0202322 0.20859647 -0.9777925
vn 0.011161864 0.49114287 0.8710075
vn 0.9529832 0.3027786 -0.012172191
vn -0.42835474 -0.3878904 -0.81612086
vn 0.48207253 0.36556673 0.7962205
vn -0.553931 0.585325 0.5920769
vn -0.98940027 0.14521432 -0
vn -0.67950714 -0.2623142 -0.6851725
vn 0.796013 0.17720246 0.5787595
vn -0.49114287 -0.3878904 -0.77994853
vn 0.827407 -0.07394993 -0.55671275
vn 0.011161864 -0.98437726 -0.175718
vn 0.2623142 0.96205354 0.0751283
vn 0.3878904 0.8678714 -0.31038734
vn 0.2623142 0.96205354 -0.0751283
vn 0.5448606 0.77368927 0.32331383
vn 0.2309202 0.93065953 -0.28381094
vn 0.07394993 0.99344754 -0.087140076
vn 0.73322487 0.616719 0.28642446
vn 0.5091949 0.8606513 -0
vn 0.29198888 0.9564217 -0
vn -0.051626205 0.8992654 -0.434346
vn 0.3878904 0.74229527 -0.546387
vn 0.73322487 0.616719 -0.28642446
vn -0.08302033 0.8678714 0.48980287
vn -0.36556673 0.93065953 0.01528952
vn 0.98437726 0.114414334 0.13383104
vn 0.76461893 0.17720246 0.6196428
vn -0.051626205 0.39696074 0.9163825
vn 0.41928446 0.2713846 0.86634344
vn -0.49114287 0.5225369 0.69694614
vn 0.6704368 -0.3878904 0.6324994
vn -0.20859647 -0.04255593 0.9770755
vn 0.2623142 -0.32510233 0.9085702
vn 0.9529832 0.14580834 -0.26563692
vn 0.89019513 -0.45067847 0.0666448
vn 0.6704368 0.20859647 -0.7120407
vn 0.89019513 -0.32510233 -0.31915686
vn -0.67950714 -0.011161864 0.733584
vn -0.2713846 -0.48207253 0.83304054
vn 0.011161864 -0.73322487 0.6798946
vn 0.29370826 -0.9215892 0.25378886
vn 0.63904274 -0.73322487 -0.23239122
vn 0.57625467 -0.32510233 -0.749826
vn 0.2309202 0.3341726 -0.9137858
vn -0.17720246 0.45974886 -0.8701898
vn 0.07394993 -0.2309202 -0.97015834
vn 0.16813207 -0.70183086 -0.69221747
vn -0.45974886 -0.6704368 -0.58236194
vn 0.2309202 -0.9215892 -0.3120083
vn -0.616719 0.553931 -0.55930144
vn -0.36556673 -0.13673806 -0.9206865
vn -0.3027786 -0.9529832 0.012172803
vn -0.2713846 -0.9529832 -0.13480896
vn -0.2713846 -0.9529832 0.13480896
vn -0.2713846 -0.9529832 -0.13480896
vn -0.36556673 -0.9215892 0.13051549
vn -0.64811313 -0.60764873 0.4590342
vn -0.77368927 -0.32510233 -0.54379535
vn -0.77368927 -0.57625467 -0.26331633
vn -0.77368927 -0.57625467 0.26331633
vn -0.93065953 0.0202322 0.36532652
vn -0.99344754 0.0202322 -0.11248403
vn -0.77368927 0.114414334 -0.6231487
vn -0.77368927 0.585325 -0.24248621
vn -0.74229527 0.553931 0.3770387
g fruit_Apple_Green_0
f 3/3/3 2/2/2 1/1/1
f 6/6/6 5/5/5 4/4/4
f 5/5/5 7/7/7 4/4/4
f 8/8/8 4/4/4 7/7/7
f 8/8/8 9/9/9 4/4/4
f 8/8/8 10/10/10 9/9/9
f 11/11/11 10/10/10 8/8/8
f 12/12/12 10/10/10 11/11/11
f 13/13/13 12/12/12 11/11/11
f 15/15/15 4/4/4 14/14/14
f 16/16/16 15/15/15 14/14/14
f 19/19/19 18/18/18 17/17/17
f 20/20/20 19/19/19 17/17/17
f 23/23/23 22/22/22 21/21/21
f 23/23/23 24/24/24 22/22/22
f 25/25/25 22/22/22 24/24/24
f 23/23/23 21/21/21 26/26/26
f 23/23/23 26/26/26 24/24/24
f 24/24/24 27/27/27 25/25/25
f 26/26/26 27/27/27 24/24/24
f 28/28/28 21/21/21 25/25/25
f 21/21/21 28/28/28 26/26/26
f 27/27/27 29/29/29 25/25/25
f 29/29/29 28/28/28 25/25/25
f 30/30/30 26/26/26 28/28/28
f 30/30/30 27/27/27 26/26/26
f 29/29/29 27/27/27 31/31/31
f 31/31/31 27/27/27 30/30/30
f 30/30/30 28/28/28 32/32/32
f 28/28/28 29/29/29 32/32/32
f 33/33/33 31/31/31 30/30/30
f 33/33/33 30/30/30 32/32/32
f 29/29/29 31/31/31 33/33/33
f 32/32/32 29/29/29 33/33/33
f 36/36/36 35/35/35 34/34/34
f 37/37/37 35/35/35 36/36/36
f 35/35/35 38/38/38 34/34/34
f 35/35/35 37/37/37 38/38/38
f 39/39/39 34/34/34 38/38/38
f 38/38/38 37/37/37 40/40/40
f 40/40/40 39/39/39 38/38/38
f 36/36/36 34/34/34 41/41/41
f 42/42/42 41/41/41 34/34/34
f 39/39/39 42/42/42 34/34/34
f 41/41/41 42/42/42 43/43/43
f 36/36/36 41/41/41 43/43/43
f 42/42/42 39/39/39 44/44/44
f 42/42/42 44/44/44 43/43/43
f 40/40/40 45/45/45 39/39/39
f 44/44/44 39/39/39 45/45/45
f 37/37/37 36/36/36 46/46/46
f 47/47/47 36/36/36 43/43/43
f 46/46/46 36/36/36 47/47/47
f 40/40/40 48/48/48 45/45/45
f 49/49/49 40/40/40 37/37/37
f 49/49/49 48/48/48 40/40/40
f 46/46/46 50/50/50 37/37/37
f 51/51/51 49/49/49 37/37/37
f 50/50/50 51/51/51 37/37/37
f 52/52/52 50/50/50 46/46/46
f 52/52/52 46/46/46 47/47/47
f 49/49/49 53/53/53 48/48/48
f 53/53/53 49/49/49 51/51/51
f 50/50/50 54/54/54 51/51/51
f 50/50/50 52/52/52 54/54/54
f 55/55/55 53/53/53 51/51/51
f 54/54/54 55/55/55 51/51/51
f 48/48/48 56/56/56 45/45/45
f 53/53/53 57/57/57 48/48/48
f 48/48/48 57/57/57 56/56/56
f 45/45/45 56/56/56 58/58/58
f 44/44/44 45/45/45 58/58/58
f 57/57/57 59/59/59 56/56/56
f 56/56/56 59/59/59 58/58/58
f 52/52/52 60/60/60 54/54/54
f 54/54/54 61/61/61 55/55/55
f 61/61/61 54/54/54 60/60/60
f 55/55/55 62/62/62 53/53/53
f 62/62/62 55/55/55 61/61/61
f 57/57/57 53/53/53 63/63/63
f 62/62/62 63/63/63 53/53/53
f 64/64/64 59/59/59 57/57/57
f 57/57/57 63/63/63 64/64/64
f 59/59/59 65/65/65 58/58/58
f 64/64/64 65/65/65 59/59/59
f 66/66/66 44/44/44 58/58/58
f 58/58/58 65/65/65 66/66/66
f 44/44/44 66/66/66 67/67/67
f 43/43/43 44/44/44 67/67/67
f 65/65/65 68/68/68 66/66/66
f 66/66/66 68/68/68 67/67/67
f 64/64/64 69/69/69 65/65/65
f 68/68/68 65/65/65 69/69/69
f 68/68/68 69/69/69 70/70/70
f 69/69/69 64/64/64 71/71/71
f 64/64/64 63/63/63 71/71/71
f 69/69/69 71/71/71 70/70/70
f 72/72/72 43/43/43 67/67/67
f 43/43/43 72/72/72 47/47/47
f 68/68/68 73/73/73 67/67/67
f 73/73/73 68/68/68 70/70/70
f 67/67/67 73/73/73 72/72/72
f 74/74/74 71/71/71 63/63/63
f 74/74/74 63/63/63 62/62/62
f 70/70/70 71/71/71 75/75/75
f 71/71/71 74/74/74 75/75/75
f 76/76/76 74/74/74 62/62/62
f 77/77/77 75/75/75 74/74/74
f 76/76/76 77/77/77 74/74/74
f 75/75/75 77/77/77 78/78/78
f 77/77/77 76/76/76 78/78/78
f 75/75/75 78/78/78 70/70/70
f 76/76/76 62/62/62 79/79/79
f 78/78/78 76/76/76 79/79/79
f 62/62/62 61/61/61 79/79/79
f 61/61/61 60/60/60 79/79/79
f 70/70/70 80/80/80 73/73/73
f 78/78/78 81/81/81 70/70/70
f 81/81/81 80/80/80 70/70/70
f 78/78/78 79/79/79 82/82/82
f 78/78/78 82/82/82 81/81/81
f 60/60/60 83/83/83 79/79/79
f 83/83/83 82/82/82 79/79/79
f 84/84/84 81/81/81 82/82/82
f 80/80/80 81/81/81 84/84/84
f 83/83/83 84/84/84 82/82/82
f 80/80/80 85/85/85 73/73/73
f 80/80/80 84/84/84 85/85/85
f 73/73/73 85/85/85 72/72/72
f 72/72/72 85/85/85 84/84/84
f 86/86/86 72/72/72 84/84/84
f 86/86/86 84/84/84 83/83/83
f 72/72/72 86/86/86 47/47/47
f 87/87/87 83/83/83 60/60/60
f 87/87/87 86/86/86 83/83/83
f 87/87/87 47/47/47 86/86/86
f 52/52/52 87/87/87 60/60/60
f 87/87/87 52/52/52 47/47/47
