g grassPatch04
v 5.4464374 0.010000083 -0.2566924
v 0.04869907 0.010000001 -0.55869937
v 3.659074 0.010000055 -4.2633705
v 4.158981 0.010000062 4.0797553
v -0.13625285 0.009999998 -5.617111
v 0.24087389 0.0100000035 5.616417
v -3.9129987 0.00999994 -3.550663
v -3.8711188 0.009999941 4.067391
v -5.7186375 0.009999913 0.08108056
vt 0.72175026 0.5290382
vt 0.72175026 0.5290382
vt 0.72175026 0.5290382
vt 0.72175026 0.5290382
vt 0.72175026 0.5290382
vt 0.72175026 0.5290382
vt 0.72175026 0.5290382
vt 0.72175026 0.5290382
vt 0.72175026 0.5290382
vn -0 1 0
vn -0 1 0
vn -0 1 0
vn -0 1 0
vn -0 1 0
vn -0 1 0
vn -0 1 0
vn -0 1 0
vn -0 1 0
g grassPatch04_0
f 3/3/3 2/2/2 1/1/1
f 1/1/1 2/2/2 4/4/4
f 5/5/5 2/2/2 3/3/3
f 4/4/4 2/2/2 6/6/6
f 7/7/7 2/2/2 5/5/5
f 6/6/6 2/2/2 8/8/8
f 9/9/9 2/2/2 7/7/7
f 8/8/8 2/2/2 9/9/9
