g grassPatch01
v 0.047992706 -0.017723083 -0.6231413
v -6.9143257 0.25471687 12.272285
v -11.394428 0.0730896 8.246248
v -14.512337 -0.017723083 3.735876
v -14.572878 -0.017723083 -1.6523542
v -13.36204 -0.017723083 -6.88923
v -10.395487 -0.017723083 -10.340118
v -5.370508 -0.017723083 -12.640711
v 1.0166645 -0.017723083 -13.003963
v 5.436224 -0.017723083 -11.33906
v 8.069797 -0.017723083 -7.6762743
v 13.912091 -0.017723083 -4.134573
v 16.39431 -0.017723083 -0.6231413
v 15.425639 -0.017723083 5.521862
v 11.490416 -0.017723083 10.970634
v 5.436224 -0.017723083 13.876646
v -0.7390518 0.042819977 14.330711
v -6.9143257 0.25471687 12.272285
vt 0.84305316 0.5275371
vt 0.84305316 0.5275371
vt 0.84305316 0.5275371
vt 0.84305316 0.5275371
vt 0.84305316 0.5275371
vt 0.84305316 0.5275371
vt 0.84305316 0.5275371
vt 0.84305316 0.5275371
vt 0.84305316 0.5275371
vt 0.84305316 0.5275371
vt 0.84305316 0.5275371
vt 0.84305316 0.5275371
vt 0.84305316 0.5275371
vt 0.84305316 0.5275371
vt 0.84305316 0.5275371
vt 0.84305316 0.5275371
vt 0.84305316 0.5275371
vt 0.84305316 0.5275371
vn 0.0010653547 0.9999994 -0
vn -0.015343745 0.99988234 -0
vn 0.0010653547 0.9999994 -0
vn 0.0010653547 0.9999994 -0
vn 0.0010653547 0.9999994 -0
vn 0.0010653547 0.9999994 -0
vn 0.0010653547 0.9999994 -0
vn 0.0010653547 0.9999994 -0
vn 0.0010653547 0.9999994 -0
vn 0.0010653547 0.9999994 -0
vn 0.0010653547 0.9999994 -0
vn 0.0010653547 0.9999994 -0
vn 0.0010653547 0.9999994 -0
vn 0.0010653547 0.9999994 -0
vn 0.0010653547 0.9999994 -0
vn 0.017473595 0.9998473 -0
vn 0.03386773 0.99942636 -0
vn 0.03386773 0.99942636 -0
g grassPatch01_0
f 3/3/3 2/2/2 1/1/1
f 4/4/4 3/3/3 1/1/1
f 5/5/5 4/4/4 1/1/1
f 6/6/6 5/5/5 1/1/1
f 7/7/7 6/6/6 1/1/1
f 8/8/8 7/7/7 1/1/1
f 9/9/9 8/8/8 1/1/1
f 10/10/10 9/9/9 1/1/1
f 11/11/11 10/10/10 1/1/1
f 12/12/12 11/11/11 1/1/1
f 13/13/13 12/12/12 1/1/1
f 14/14/14 13/13/13 1/1/1
f 15/15/15 14/14/14 1/1/1
f 16/16/16 15/15/15 1/1/1
f 17/17/17 16/16/16 1/1/1
f 18/18/18 17/17/17 1/1/1
