g grassPatch03
v -2.5383825 -0.02915287 2.4335852
v -6.2848883 0.23284054 10.948371
v -10.214789 0.049445152 7.41146
v -13.122916 -0.02915287 3.3243628
v -14.301887 -0.02915287 -1.73211
v -14.0660925 -0.02915287 -7.0767756
v -10.895972 -0.02915287 -11.66166
v -5.3155127 -0.02915287 -12.395242
v -1.4904089 -0.02915287 -9.041726
v -0.28523922 -0.02915287 -3.2254725
v 0.31734562 -0.02915287 -1.5487146
v 1.653512 -0.02915287 -0.42214298
v 7.2339716 -0.02915287 0.5210333
v 11.242471 -0.02915287 2.9313726
v 12.500039 -0.02915287 7.280463
v 10.011102 -0.02915287 11.655753
v 4.8498316 -0.02915287 13.280112
v -0.75682735 0.049445152 12.96572
v -6.2848883 0.23284054 10.948371
vt 0.84305316 0.5275371
vt 0.84305316 0.5275371
vt 0.84305316 0.5275371
vt 0.84305316 0.5275371
vt 0.84305316 0.5275371
vt 0.84305316 0.5275371
vt 0.84305316 0.5275371
vt 0.84305316 0.5275371
vt 0.84305316 0.5275371
vt 0.84305316 0.5275371
vt 0.84305316 0.5275371
vt 0.84305316 0.5275371
vt 0.84305316 0.5275371
vt 0.84305316 0.5275371
vt 0.84305316 0.5275371
vt 0.84305316 0.5275371
vt 0.84305316 0.5275371
vt 0.84305316 0.5275371
vt 0.84305316 0.5275371
vn 0.0037562437 0.99999285 -0.00042286396
vn -0.012697726 0.9999194 -0
vn 0.0037562437 0.99999285 -0.00042286396
vn 0.0037562437 0.99999285 -0.00042286396
vn 0.0037562437 0.99999285 -0.00042286396
vn 0.0037562437 0.99999285 -0.00042286396
vn 0.0037562437 0.99999285 -0.00042286396
vn 0.0037562437 0.99999285 -0.00042286396
vn 0.0037562437 0.99999285 -0.00042286396
vn 0.0037562437 0.99999285 -0.00042286396
vn 0.0037562437 0.99999285 -0.00042286396
vn 0.0037562437 0.99999285 -0.00042286396
vn 0.0037562437 0.99999285 -0.00042286396
vn 0.0037562437 0.99999285 -0.00042286396
vn 0.0037562437 0.99999285 -0.00042286396
vn 0.0037562437 0.99999285 -0.00042286396
vn 0.0037562437 0.99999285 -0.00042286396
vn 0.03664169 0.99932843 -0
vn 0.03664169 0.99932843 -0
g grassPatch03_0
f 3/3/3 2/2/2 1/1/1
f 4/4/4 3/3/3 1/1/1
f 5/5/5 4/4/4 1/1/1
f 6/6/6 5/5/5 1/1/1
f 7/7/7 6/6/6 1/1/1
f 8/8/8 7/7/7 1/1/1
f 9/9/9 8/8/8 1/1/1
f 10/10/10 9/9/9 1/1/1
f 1/1/1 11/11/11 10/10/10
f 12/12/12 11/11/11 1/1/1
f 13/13/13 12/12/12 1/1/1
f 14/14/14 13/13/13 1/1/1
f 15/15/15 14/14/14 1/1/1
f 16/16/16 15/15/15 1/1/1
f 17/17/17 16/16/16 1/1/1
f 18/18/18 17/17/17 1/1/1
f 19/19/19 18/18/18 1/1/1
