g grass01
v -0.55387914 0.38337052 -0.07752537
v -1.028054 0.4136678 -0.057164367
v -0.7945184 0.23813675 -0.12790713
v -0.50832945 5.5246158E-08 -0.33909845
v -0.24947599 -9.977599E-09 -0.17290235
v -0.0074137365 0.8185572 0.17865671
v -0.25733247 1.005275 0.65301794
v -0.35587072 0.8185572 0.06493369
v -0.32520142 0.37709662 -0.333457
v 0.07528114 0.3770965 -0.20277594
v -0.304581 4.3910664E-08 -0.50964844
v 0.1518651 -1.8506281E-08 -0.36068046
v -0.057178188 8.497538E-08 0.050102267
v 0.30875334 -3.111241E-08 0.060210712
v 0.31518158 0.26149786 0.1232643
v 0.043483663 0.3742447 0.19613296
v 0.45584285 0.68093145 0.44351366
vt 0.28350875 0.46840116
vt 0.28350875 0.46840116
vt 0.28350875 0.46840116
vt 0.28350875 0.46840116
vt 0.28350875 0.46840116
vt 0.28350875 0.46840116
vt 0.28350875 0.46840116
vt 0.28350875 0.46840116
vt 0.28350875 0.46840116
vt 0.28350875 0.46840116
vt 0.28350875 0.46840116
vt 0.28350875 0.46840116
vt 0.28350875 0.46840116
vt 0.28350875 0.46840116
vt 0.28350875 0.46840116
vt 0.28350875 0.46840116
vt 0.28350875 0.46840116
vn 0.12787785 0.5141635 -0.84810567
vn -0.01756951 0.35355052 -0.9352504
vn 0.06745236 0.4499378 -0.890509
vn 0.18233271 0.56885004 -0.8019753
vn 0.18233271 0.56885004 -0.8019753
vn 0.17588797 0.82375723 -0.5389688
vn 0.10335345 0.94288325 -0.3166848
vn 0.18800233 0.7954689 -0.57609403
vn 0.26199698 0.5355387 -0.8028424
vn 0.25998136 0.54564846 -0.7966665
vn 0.28172833 0.4187392 -0.86329985
vn 0.2817283 0.41873923 -0.86329985
vn -0.03705269 0.31783184 -0.94742286
vn -0.03705269 0.3178318 -0.94742286
vn -0.007975238 0.43881688 -0.8985411
vn -0.0035129602 0.45663977 -0.88964486
vn 0.034154817 0.5992442 -0.7998373
g grass01_0
f 3/3/3 2/2/2 1/1/1
f 3/3/3 1/1/1 4/4/4
f 1/1/1 5/5/5 4/4/4
f 8/8/8 7/7/7 6/6/6
f 8/8/8 6/6/6 9/9/9
f 6/6/6 10/10/10 9/9/9
f 9/9/9 10/10/10 11/11/11
f 10/10/10 12/12/12 11/11/11
f 15/15/15 14/14/14 13/13/13
f 16/16/16 15/15/15 13/13/13
f 17/17/17 15/15/15 16/16/16
