g ground
v -4.8244133 -32.002434 -0.09999998
v 20.827732 -31.763573 -0.09999998
v 22.129166 -53.135307 -0.09999998
v 42.272858 -159.93506 -0.1
v 18.12475 -170.23174 -0.1
v 18.099854 -159.77321 -0.099999994
v -4.8244133 -32.002434 -0.09999998
v 22.129166 -53.135307 -0.09999998
v -1.7723799 -58.659203 -0.09999998
v 47.844875 -45.774612 -0.09999998
v 47.202797 -15.797157 -0.09999998
v 69.99999 -17.883377 -0.09999998
v 70 -48.908783 -0.09999998
v -7.0543976 -144.52034 -0.099999994
v -7.3558016 -114.966156 -0.09999998
v 11.462643 -122.21461 -0.09999998
v 15.946247 -144.88675 -0.099999994
v 11.462643 -122.21461 -0.09999998
v -0.76381814 -100.94216 -0.09999998
v 18.548178 -102.69499 -0.09999998
v -7.3558016 -114.966156 -0.09999998
v -30 -103.25599 -0.09999998
v 70 -48.908783 -0.09999998
v 69.99999 -96.37964 -0.09999998
v 52.00121 -93.2147 -0.09999998
v 49.71692 -67.14197 -0.09999998
v 47.844875 -45.774612 -0.09999998
v 22.129166 -53.135307 -0.09999998
v 47.844875 -45.774612 -0.09999998
v 49.71692 -67.14197 -0.09999998
v 22.552 -70.573456 -0.09999998
v 52.00121 -93.2147 -0.09999998
v 45.835354 -114.673325 -0.09999998
v 18.548178 -102.69499 -0.09999998
v 22.869295 -87.50913 -0.09999998
v 45.835354 -114.673325 -0.09999998
v 41.02278 -133.75424 -0.09999998
v 11.462643 -122.21461 -0.09999998
v 18.548178 -102.69499 -0.09999998
v 5.7380295 -300 -0.100000024
v 18.567028 -241.34125 -0.10000002
v 31 -248.10382 -0.100000024
v -30 -265.0902 -0.09999998
v -30 -300 -0.09999998
v 5.7380295 -300 -0.100000024
v 31 -248.10382 -0.100000024
v 55.272835 -272.37592 -0.09999998
v 55.272835 -300 -0.09999998
v 31 -248.10382 -0.100000024
v 31 -198 -0.100000024
v 31 -198 -5
v 31 -248.10382 -5
v 69.99999 -96.37964 -0.09999998
v 69.99999 -142.3906 -0.09999998
v 45.835354 -114.673325 -0.09999998
v 52.00121 -93.2147 -0.09999998
v 49.71692 -67.14197 -0.09999998
v 52.00121 -93.2147 -0.09999998
v 22.869295 -87.50913 -0.09999998
v 22.552 -70.573456 -0.09999998
v -30 -265.0902 -0.09999998
v -30 -300 -0.09999998
v -30 -300 -5
v -30 -265.0902 -5
v -30 -204.05945 -0.09999998
v -30 -204.06494 -5
v -30 -170.34396 -0.09999998
v -30 -143.49461 -5
v -30 -143.49461 -0.09999998
v -30 -103.25599 -0.09999998
v -30 -103.25599 -5
v 55.272835 -300 -5
v 55.272835 -300 -0.09999998
v 55.272835 -272.37592 -0.09999998
v 55.272835 -272.37592 -5
v 18.016724 20 -0.09999998
v -30 20 -0.09999998
v -30 20 -5
v 18.016724 20 -5
v 69.99999 20 -0.09999998
v 69.99999 20 -5
v -3.7972343 -14.641222 -0.09999998
v -30 15.848295 -0.09999998
v -2.362938 9.601013 -0.09999998
v -30 -32.236855 -0.09999998
v -4.8244133 -32.002434 -0.09999998
v -4.8244133 -32.002434 -0.09999998
v -3.7972343 -14.641222 -0.09999998
v 17.825832 -16.044334 -0.09999998
v 20.827732 -31.763573 -0.09999998
v 17.945417 6.5360117 -0.09999998
v 17.825832 -16.044334 -0.09999998
v -3.7972343 -14.641222 -0.09999998
v -2.362938 9.601013 -0.09999998
v -30 -64.54214 -0.09999998
v -30 -103.25599 -0.09999998
v -30 -103.25599 -5
v -30 -64.53925 -5
v -30 -32.23983 -5
v -30 -32.236855 -0.09999998
v -30 15.847514 -5
v -30 15.848295 -0.09999998
v -30 20 -5
v -30 20 -0.09999998
v -7.0543976 -144.52034 -0.099999994
v 18.12475 -170.23174 -0.1
v -2.1468801 -170.23172 -0.1
v 18.099854 -159.77321 -0.099999994
v 15.946247 -144.88675 -0.099999994
v 42.272858 -159.93506 -0.1
v 69.99999 -142.3906 -0.09999998
v 69.99999 -159.93506 -0.1
v 41.02278 -133.75424 -0.09999998
v 45.835354 -114.673325 -0.09999998
v -30 -170.34396 -0.09999998
v -30 -143.49461 -0.09999998
v -7.0543976 -144.52034 -0.099999994
v -2.1468801 -170.23172 -0.1
v 69.99999 -198 -0.100000024
v 42.272858 -159.93506 -0.1
v 69.99999 -159.93506 -0.1
v 31 -198 -0.100000024
v 18.12475 -170.23174 -0.1
v 18.374302 -204.37654 -0.10000002
v 18.430986 -215.24872 -0.10000002
v 31 -248.10382 -0.100000024
v 18.567028 -241.34125 -0.10000002
v 18.374302 -204.37654 -0.10000002
v -2.1468801 -170.23172 -0.1
v 18.12475 -170.23174 -0.1
v -8.013437 -204.20357 -0.099999994
v 18.567028 -241.34125 -0.10000002
v -30 -265.0902 -0.09999998
v -6.228719 -218.0445 -0.1
v 18.430986 -215.24872 -0.10000002
v 32.26572 -32.711617 -0.09999998
v 47.202797 -15.797157 -0.09999998
v 47.844875 -45.774612 -0.09999998
v 17.825832 -16.044334 -0.09999998
v 20.827732 -31.763573 -0.09999998
v 32.26572 -32.711617 -0.09999998
v 47.844875 -45.774612 -0.09999998
v 22.129166 -53.135307 -0.09999998
v 20.827732 -31.763573 -0.09999998
v 45.630157 6.2078686 -0.09999998
v 47.202797 -15.797157 -0.09999998
v 17.825832 -16.044334 -0.09999998
v 17.945417 6.5360117 -0.09999998
v -1.7723799 -58.659203 -0.09999998
v 22.129166 -53.135307 -0.09999998
v 22.552 -70.573456 -0.09999998
v -0.97975534 -82.35142 -0.09999998
v 45.630157 6.2078686 -0.09999998
v 17.945417 6.5360117 -0.09999998
v 18.016724 20 -0.09999998
v 69.99999 20 -0.09999998
v 69.99999 -17.883377 -0.09999998
v 47.202797 -15.797157 -0.09999998
v -1.7723799 -58.659203 -0.09999998
v -0.97975534 -82.35142 -0.09999998
v -30 -64.54214 -0.09999998
v -30 -103.25599 -0.09999998
v -0.76381814 -100.94216 -0.09999998
v -30 -32.236855 -0.09999998
v -4.8244133 -32.002434 -0.09999998
v -1.7723799 -58.659203 -0.09999998
v -30 -64.54214 -0.09999998
v 22.552 -70.573456 -0.09999998
v 22.869295 -87.50913 -0.09999998
v -0.97975534 -82.35142 -0.09999998
v -0.76381814 -100.94216 -0.09999998
v 18.548178 -102.69499 -0.09999998
v -30 20 -0.09999998
v -2.362938 9.601013 -0.09999998
v -30 15.848295 -0.09999998
v 18.016724 20 -0.09999998
v 17.945417 6.5360117 -0.09999998
v 41.02278 -133.75424 -0.09999998
v 15.946247 -144.88675 -0.099999994
v 11.462643 -122.21461 -0.09999998
v 42.272858 -159.93506 -0.1
v 18.099854 -159.77321 -0.099999994
v -30 -170.34396 -0.09999998
v -2.1468801 -170.23172 -0.1
v -30 -204.05945 -0.09999998
v -8.013437 -204.20357 -0.099999994
v -7.3558016 -114.966156 -0.09999998
v -7.0543976 -144.52034 -0.099999994
v -30 -103.25599 -0.09999998
v -30 -143.49461 -0.09999998
v 31 -248.10382 -0.100000024
v 31 -248.10382 -5
v 55.272835 -272.37592 -5
v 55.272835 -272.37592 -0.09999998
v -30 -265.0902 -0.09999998
v -30 -204.05945 -0.09999998
v -6.228719 -218.0445 -0.1
v -8.013437 -204.20357 -0.099999994
v -6.228719 -218.0445 -0.1
v 18.374302 -204.37654 -0.10000002
v 18.430986 -215.24872 -0.10000002
v -8.013437 -204.20357 -0.099999994
vt 0.28055295 0.46503705
vt 0.28055295 0.46503708
vt 0.28055298 0.4650371
vt 0.96579075 0.9657153
vt 0.96579075 0.9657154
vt 0.96579075 0.9657154
vt 0.28055295 0.46503705
vt 0.28055298 0.4650371
vt 0.28055298 0.46503708
vt 0.84305304 0.5275371
vt 0.84305304 0.5275371
vt 0.84305304 0.5275371
vt 0.84305304 0.5275371
vt 0.83984375 0.72851557
vt 0.83984387 0.72851557
vt 0.83984375 0.72851557
vt 0.83984375 0.72851557
vt 0.7200731 0.7780057
vt 0.7200731 0.7780057
vt 0.7200731 0.7780057
vt 0.7200731 0.77800566
vt 0.7200731 0.7780057
vt 0.7193265 0.0960783
vt 0.7193265 0.0960783
vt 0.7193265 0.0960783
vt 0.7193265 0.0960783
vt 0.7193265 0.0960783
vt 0.5967876 0.15198666
vt 0.5967876 0.15198666
vt 0.5967876 0.15198666
vt 0.5967876 0.15198666
vt 0.84305304 0.5275371
vt 0.84305304 0.5275371
vt 0.84305304 0.5275371
vt 0.84305304 0.5275371
vt 0.8433203 0.96943974
vt 0.8433203 0.96943974
vt 0.8433203 0.96943974
vt 0.8433203 0.96943974
vt 0.65643156 0.46577644
vt 0.65643156 0.46577644
vt 0.65643156 0.46577644
vt 0.65643156 0.46577644
vt 0.65643156 0.46577644
vt 0.28055298 0.4650371
vt 0.28055298 0.4650371
vt 0.28055298 0.4650371
vt 0.28055298 0.4650371
vt 0.9657907 0.9657154
vt 0.96579075 0.9657154
vt 0.96579075 0.9657154
vt 0.96579075 0.9657154
vt 0.7208582 0.15734774
vt 0.7208582 0.15734774
vt 0.7208582 0.15734774
vt 0.7208582 0.15734774
vt 0.09404501 0.84753287
vt 0.09404501 0.84753287
vt 0.09404501 0.84753287
vt 0.09404501 0.84753287
vt 0.96579075 0.9657154
vt 0.96579075 0.9657154
vt 0.96579075 0.9657154
vt 0.96579075 0.9657154
vt 0.96579075 0.9657154
vt 0.96579075 0.9657154
vt 0.96579075 0.9657154
vt 0.96579075 0.9657154
vt 0.96579075 0.9657154
vt 0.96579075 0.9657154
vt 0.96579075 0.9657154
vt 0.9657907 0.9657154
vt 0.9657907 0.9657154
vt 0.9657907 0.9657154
vt 0.9657907 0.9657154
vt 0.96704507 0.9681457
vt 0.96704507 0.9681457
vt 0.96704507 0.9681457
vt 0.96704507 0.9681457
vt 0.96704507 0.9681457
vt 0.96704507 0.9681457
vt 0.21587002 0.46556997
vt 0.21587002 0.46556997
vt 0.21587002 0.46556997
vt 0.21587002 0.46556997
vt 0.21587002 0.46556997
vt 0.59675753 0.16645485
vt 0.59675753 0.16645485
vt 0.59675753 0.16645485
vt 0.59675753 0.16645485
vt 0.28055295 0.4650371
vt 0.28055295 0.46503708
vt 0.28055298 0.4650371
vt 0.28055298 0.46503714
vt 0.96704507 0.9681457
vt 0.96704507 0.9681457
vt 0.96704507 0.9681457
vt 0.96704507 0.9681457
vt 0.96704507 0.9681457
vt 0.96704507 0.9681457
vt 0.96704507 0.9681457
vt 0.96704507 0.9681457
vt 0.96704507 0.9681457
vt 0.96704507 0.9681457
vt 0.15690175 0.7148441
vt 0.15690175 0.7148441
vt 0.15690175 0.7148441
vt 0.15690175 0.7148441
vt 0.15690175 0.7148441
vt 0.9067573 0.96938837
vt 0.9067573 0.96938837
vt 0.9067573 0.96938837
vt 0.9067573 0.96938837
vt 0.9067573 0.96938837
vt 0.7200731 0.7780057
vt 0.7200731 0.7780057
vt 0.7200731 0.7780057
vt 0.7200731 0.77800566
vt 0.7791741 0.96404874
vt 0.7791741 0.96404874
vt 0.7791741 0.96404874
vt 0.7791741 0.96404874
vt 0.7791741 0.96404874
vt 0.7791741 0.96404874
vt 0.7791741 0.96404874
vt 0.7791741 0.96404874
vt 0.7791741 0.96404874
vt 0.21587002 0.46556997
vt 0.21587002 0.46556997
vt 0.21587002 0.46556997
vt 0.21587002 0.46556997
vt 0.28114498 0.52894723
vt 0.28114498 0.52894723
vt 0.28114498 0.52894723
vt 0.28114498 0.52894723
vt 0.34305298 0.4650371
vt 0.34305298 0.4650371
vt 0.34305298 0.4650371
vt 0.34305298 0.4650371
vt 0.34305298 0.4650371
vt 0.15624994 0.71875
vt 0.15624994 0.71875
vt 0.15624994 0.71875
vt 0.15624994 0.71875
vt 0.5930531 0.4650371
vt 0.5930531 0.4650371
vt 0.5930531 0.4650371
vt 0.5930531 0.4650371
vt 0.59471697 0.47012782
vt 0.59471697 0.47012782
vt 0.59471697 0.47012782
vt 0.59471697 0.47012782
vt 0.28055298 0.4650371
vt 0.28055298 0.4650371
vt 0.28055298 0.4650371
vt 0.28055298 0.4650371
vt 0.28055298 0.4650371
vt 0.28055298 0.46503708
vt 0.7208582 0.15734774
vt 0.7208582 0.15734774
vt 0.7208582 0.15734774
vt 0.7208582 0.15734774
vt 0.7208582 0.15734774
vt 0.28055298 0.4650371
vt 0.28055298 0.46503708
vt 0.28055298 0.4650371
vt 0.28055298 0.4650371
vt 0.2239124 0.52363086
vt 0.2239124 0.52363086
vt 0.22391237 0.52363086
vt 0.2239124 0.52363086
vt 0.2239124 0.52363086
vt 0.843053 0.5275371
vt 0.843053 0.5275371
vt 0.843053 0.5275371
vt 0.843053 0.5275371
vt 0.843053 0.5275371
vt 0.7789936 0.5336858
vt 0.7789936 0.5336858
vt 0.7789936 0.5336858
vt 0.7789936 0.5336858
vt 0.7789936 0.5336858
vt 0.1557552 0.53160596
vt 0.1557552 0.53160596
vt 0.1557552 0.53160596
vt 0.1557552 0.53160596
vt 0.9067573 0.96938837
vt 0.9067573 0.96938837
vt 0.9067573 0.96938837
vt 0.9067573 0.96938837
vt 0.9657907 0.9657154
vt 0.9657907 0.9657154
vt 0.9657907 0.9657154
vt 0.9657907 0.9657154
vt 0.34305298 0.4650371
vt 0.34305298 0.4650371
vt 0.34305298 0.4650371
vt 0.34305298 0.4650371
vt 0.65643156 0.46577644
vt 0.65643156 0.46577644
vt 0.65643156 0.46577644
vt 0.65643156 0.46577644
vn -0 0 1
vn -0 0 1
vn -0 0 1
vn -0 0 1
vn -0 0 1
vn -0 0 1
vn -0 0 1
vn -0 0 1
vn -0 0 1
vn -0 0 1
vn -0 0 1
vn -0 0 1
vn -0 0 1
vn -0 0 1
vn -0 0 1
vn -0 0 1
vn -0 0 1
vn -0 0 1
vn -0 0 1
vn -0 0 1
vn -0 0 1
vn -0 0 1
vn -0 0 1
vn -0 0 1
vn -0 0 1
vn -0 0 1
vn -0 0 1
vn -0 0 1
vn -0 0 1
vn -0 0 1
vn -0 0 1
vn -0 0 1
vn -0 0 1
vn -0 0 1
vn -0 0 1
vn -0 0 1
vn -0 0 1
vn -0 0 1
vn -0 0 1
vn -0 0 1
vn -0 0 1
vn -0 0 1
vn -0 0 1
vn -0 0 1
vn -0 0 1
vn -0 0 1
vn -0 0 1
vn -0 0 1
vn 1 0 0
vn 1 0 0
vn 1 0 0
vn 1 0 0
vn -0 0 1
vn -0 0 1
vn -0 0 1
vn -0 0 1
vn -0 0 1
vn -0 0 1
vn -0 0 1
vn -0 0 1
vn -1 0 0
vn -1 0 0
vn -1 0 0
vn -1 0 0
vn -1 0 0
vn -1 0 0
vn -1 0 0
vn -1 0 0
vn -1 0 0
vn -1 0 0
vn -1 0 0
vn 1 0 0
vn 1 0 0
vn 1 0 0
vn 1 0 0
vn -0 1 0
vn -0 1 0
vn -0 1 0
vn -0 1 0
vn -0 1 0
vn -0 1 0
vn -0 0 1
vn -0 0 1
vn -0 0 1
vn -0 0 1
vn -0 0 1
vn -0 0 1
vn -0 0 1
vn -0 0 1
vn -0 0 1
vn -0 0 1
vn -0 0 1
vn -0 0 1
vn -0 0 1
vn -1 0 0
vn -1 0 0
vn -1 0 0
vn -1 0 0
vn -1 0 0
vn -1 0 0
vn -1 0 0
vn -1 0 0
vn -1 0 0
vn -1 0 0
vn -0 0 1
vn -0 0 1
vn -0 0 1
vn -0 0 1
vn -0 0 1
vn -0 0 1
vn -0 0 1
vn -0 0 1
vn -0 0 1
vn -0 0 1
vn -0 0 1
vn -0 0 1
vn -0 0 1
vn -0 0 1
vn -0 0 1
vn -0 0 1
vn -0 0 1
vn -0 0 1
vn -0 0 1
vn -0 0 1
vn -0 0 1
vn -0 0 1
vn -0 0 1
vn -0 0 1
vn -0 0 1
vn -0 0 1
vn -0 0 1
vn -0 0 1
vn -0 0 1
vn -0 0 1
vn -0 0 1
vn -0 0 1
vn -0 0 1
vn -0 0 1
vn -0 0 1
vn -0 0 1
vn -0 0 1
vn -0 0 1
vn -0 0 1
vn -0 0 1
vn -0 0 1
vn -0 0 1
vn -0 0 1
vn -0 0 1
vn -0 0 1
vn -0 0 1
vn -0 0 1
vn -0 0 1
vn -0 0 1
vn -0 0 1
vn -0 0 1
vn -0 0 1
vn -0 0 1
vn -0 0 1
vn -0 0 1
vn -0 0 1
vn -0 0 1
vn -0 0 1
vn -0 0 1
vn -0 0 1
vn -0 0 1
vn -0 0 1
vn -0 0 1
vn -0 0 1
vn -0 0 1
vn -0 0 1
vn -0 0 1
vn -0 0 1
vn -0 0 1
vn -0 0 1
vn -0 0 1
vn -0 0 1
vn -0 0 1
vn -0 0 1
vn -0 0 1
vn -0 0 1
vn -0 0 1
vn -0 0 1
vn -0 0 1
vn -0 0 1
vn -0 0 1
vn -0 0 1
vn -0 0 1
vn -0 0 1
vn -0 0 1
vn -0 0 1
vn 0.70709604 0.7071175 0
vn 0.70709604 0.7071175 0
vn 0.70709604 0.7071175 0
vn 0.70709604 0.7071175 0
vn -0 0 1
vn -0 0 1
vn -0 0 1
vn -0 0 1
vn -0 0 1
vn -0 0 1
vn -0 0 1
vn -0 0 1
g ground_0
f 3/3/3 2/2/2 1/1/1
f 6/6/6 5/5/5 4/4/4
f 9/9/9 8/8/8 7/7/7
f 12/12/12 11/11/11 10/10/10
f 13/13/13 12/12/12 10/10/10
f 16/16/16 15/15/15 14/14/14
f 17/17/17 16/16/16 14/14/14
f 20/20/20 19/19/19 18/18/18
f 21/21/21 18/18/18 19/19/19
f 21/21/21 19/19/19 22/22/22
f 25/25/25 24/24/24 23/23/23
f 26/26/26 25/25/25 23/23/23
f 27/27/27 26/26/26 23/23/23
f 30/30/30 29/29/29 28/28/28
f 31/31/31 30/30/30 28/28/28
f 34/34/34 33/33/33 32/32/32
f 35/35/35 34/34/34 32/32/32
f 38/38/38 37/37/37 36/36/36
f 39/39/39 38/38/38 36/36/36
f 42/42/42 41/41/41 40/40/40
f 40/40/40 41/41/41 43/43/43
f 44/44/44 40/40/40 43/43/43
f 47/47/47 46/46/46 45/45/45
f 48/48/48 47/47/47 45/45/45
f 51/51/51 50/50/50 49/49/49
f 52/52/52 51/51/51 49/49/49
f 55/55/55 54/54/54 53/53/53
f 56/56/56 55/55/55 53/53/53
f 59/59/59 58/58/58 57/57/57
f 60/60/60 59/59/59 57/57/57
f 63/63/63 62/62/62 61/61/61
f 64/64/64 63/63/63 61/61/61
f 61/61/61 65/65/65 64/64/64
f 65/65/65 66/66/66 64/64/64
f 65/65/65 67/67/67 66/66/66
f 66/66/66 67/67/67 68/68/68
f 69/69/69 68/68/68 67/67/67
f 69/69/69 70/70/70 68/68/68
f 70/70/70 71/71/71 68/68/68
f 74/74/74 73/73/73 72/72/72
f 75/75/75 74/74/74 72/72/72
f 78/78/78 77/77/77 76/76/76
f 79/79/79 78/78/78 76/76/76
f 79/79/79 76/76/76 80/80/80
f 81/81/81 79/79/79 80/80/80
f 84/84/84 83/83/83 82/82/82
f 85/85/85 82/82/82 83/83/83
f 86/86/86 82/82/82 85/85/85
f 89/89/89 88/88/88 87/87/87
f 90/90/90 89/89/89 87/87/87
f 93/93/93 92/92/92 91/91/91
f 94/94/94 93/93/93 91/91/91
f 97/97/97 96/96/96 95/95/95
f 98/98/98 97/97/97 95/95/95
f 99/99/99 98/98/98 95/95/95
f 100/100/100 99/99/99 95/95/95
f 101/101/101 99/99/99 100/100/100
f 102/102/102 101/101/101 100/100/100
f 103/103/103 101/101/101 102/102/102
f 104/104/104 103/103/103 102/102/102
f 107/107/107 106/106/106 105/105/105
f 106/106/106 108/108/108 105/105/105
f 108/108/108 109/109/109 105/105/105
f 112/112/112 111/111/111 110/110/110
f 110/110/110 111/111/111 113/113/113
f 113/113/113 111/111/111 114/114/114
f 117/117/117 116/116/116 115/115/115
f 118/118/118 117/117/117 115/115/115
f 121/121/121 120/120/120 119/119/119
f 119/119/119 120/120/120 122/122/122
f 122/122/122 120/120/120 123/123/123
f 123/123/123 124/124/124 122/122/122
f 122/122/122 124/124/124 125/125/125
f 126/126/126 122/122/122 125/125/125
f 126/126/126 125/125/125 127/127/127
f 130/130/130 129/129/129 128/128/128
f 131/131/131 128/128/128 129/129/129
f 134/134/134 133/133/133 132/132/132
f 135/135/135 134/134/134 132/132/132
f 138/138/138 137/137/137 136/136/136
f 137/137/137 139/139/139 136/136/136
f 139/139/139 140/140/140 136/136/136
f 143/143/143 142/142/142 141/141/141
f 144/144/144 143/143/143 141/141/141
f 147/147/147 146/146/146 145/145/145
f 148/148/148 147/147/147 145/145/145
f 151/151/151 150/150/150 149/149/149
f 152/152/152 151/151/151 149/149/149
f 155/155/155 154/154/154 153/153/153
f 156/156/156 155/155/155 153/153/153
f 157/157/157 156/156/156 153/153/153
f 158/158/158 157/157/157 153/153/153
f 161/161/161 160/160/160 159/159/159
f 160/160/160 161/161/161 162/162/162
f 163/163/163 160/160/160 162/162/162
f 166/166/166 165/165/165 164/164/164
f 167/167/167 166/166/166 164/164/164
f 170/170/170 169/169/169 168/168/168
f 169/169/169 170/170/170 171/171/171
f 172/172/172 169/169/169 171/171/171
f 175/175/175 174/174/174 173/173/173
f 176/176/176 173/173/173 174/174/174
f 177/177/177 176/176/176 174/174/174
f 180/180/180 179/179/179 178/178/178
f 181/181/181 178/178/178 179/179/179
f 182/182/182 181/181/181 179/179/179
f 185/185/185 184/184/184 183/183/183
f 186/186/186 184/184/184 185/185/185
f 189/189/189 188/188/188 187/187/187
f 188/188/188 189/189/189 190/190/190
f 193/193/193 192/192/192 191/191/191
f 194/194/194 193/193/193 191/191/191
f 197/197/197 196/196/196 195/195/195
f 198/198/198 196/196/196 197/197/197
f 201/201/201 200/200/200 199/199/199
f 202/202/202 199/199/199 200/200/200
