g ground
v 25.006227 -46.934612 -0.10000001
v 25.006227 13 -0.10000001
v 47 -46.934612 -0.10000001
v 88.85715 4.001671 -0.10000001
v 46.212395 -91.84299 -0.10000001
v 88.85715 -94.89102 -0.10000001
v 71 43.98134 -0.10000001
v 26.0079 61.037308 -0.10000001
v 13 25.00167 -0.10000001
v 11.370286 -185.07632 -0.10000001
v 9.1408 -219.99997 -0.10000001
v 7.5332565 -219.99997 -0.10000001
v 9.60991 -184.58652 -0.10000001
v 9.814514 -142.90993 -0.10000001
v 7.717087 -143.28291 -0.10000001
v 17.997837 -101.40878 -0.09999988
v 17.997837 -101.40878 -0.09999988
v 46.212395 -91.84299 -0.10000001
v 88.85715 -94.89102 -0.10000001
v 107 -137.10896 -0.10000001
v 164.87514 -89.822685 -0.10000001
v 88.85715 4.001671 -0.10000001
v 153.0778 6.1547623 -0.10000001
v 71 43.98134 -0.10000001
v 131.62155 64.86865 -0.10000001
v 106.88142 92.12622 -0.10000001
v 26.0079 61.037308 -0.10000001
v -0 112.46741 -0.10000001
v 0.10548544 58.41591 -0.1
v -39.847115 54.37259 -0.10000001
v -141 82.19349 -0.10000001
v -103 47.98134 -0.10000001
v -114 21 -0.10000001
v -120.20286 -51.927494 -0.10000001
v -154.952 -50.181007 -0.09999988
v -123.54286 -76 -0.10000001
v -156 -75 -0.10000001
v -109 -137.10896 -0.10000001
v -84.59091 -94.89102 -0.10000001
v -25.227966 -94.89102 -0.10000001
v -14.1206875 -140.82542 -0.10000001
v -13.021803 -99 -0.10000001
v -12.185486 -146.62701 -0.10000001
v -11.254714 -178.78128 -0.10000001
v -9.494342 -179.27106 -0.10000001
v -13.2342 -219.99997 -0.10000001
v -11.626654 -219.99997 -0.10000001
v 12.40374 -46.93395 -0.10000001
v 25.006227 13 -0.10000001
v 25.006227 -46.934612 -0.10000001
v 13 25.00167 -0.10000001
v -4.6746407 25.00167 -0.10000001
v -96.995445 -51.927494 -0.10000001
v -32.668037 25.00167 -0.10000001
v -84.99544 25.00167 -0.10000001
v -96.995445 13.004768 -0.10000001
v -84.59091 -94.89102 -0.10000001
v -25.227966 -94.89102 -0.10000001
v -120.20286 -51.927494 -0.10000001
v -123.54286 -76 -0.10000001
v -96.995445 13.004768 -0.10000001
v -103 47.98134 -0.10000001
v -84.99544 25.00167 -0.10000001
v -114 21 -0.10000001
v -96.995445 -51.927494 -0.10000001
v -120.20286 -51.927494 -0.10000001
v -14.1206875 -140.82542 -0.10000001
v -11.254714 -178.78128 -0.10000001
v -51.687572 -184.31593 -0.10000001
v -205.59364 -155.16132 -0.10000001
v -109 -137.10896 -0.10000001
v -156 -75 -0.10000001
v -216 -30.000004 -0.10000001
v -154.952 -50.181007 -0.09999988
v -181.70226 119.84462 -0.09999953
v -141 82.19349 -0.10000001
v -7.6168036 161.30022 -0.09999953
v -0 112.46741 -0.10000001
v 200 125.86014 -0.10000001
v 106.88142 92.12622 -0.10000001
v 131.62155 64.86865 -0.10000001
v 153.0778 6.1547623 -0.10000001
v 217.47537 -84.07091 -0.10000001
v 164.87514 -89.822685 -0.10000001
v 107 -137.10896 -0.10000001
v 142.04996 -169.67361 -0.10000001
v 11.370286 -185.07632 -0.10000001
v 9.814514 -142.90993 -0.10000001
v -11.254714 -178.78128 -0.10000001
v -13.2342 -219.99997 -0.10000001
v -51.687572 -184.31593 -0.10000001
v -250 -219.99997 -0.10000001
v -205.59364 -155.16132 -0.10000001
v -216 -30.000004 -0.10000001
v -250 180 -0.10000001
v -181.70226 119.84462 -0.09999953
v -0 180 -0.10000001
v -7.6168036 161.30022 -0.09999953
v 250 180 -0.10000001
v 200 125.86014 -0.10000001
v 217.47537 -84.07091 -0.10000001
v 250 -74.146286 -0.10000001
v 142.04996 -169.67361 -0.10000001
v 250 -219.99997 -0.10000001
v 9.1408 -219.99997 -0.10000001
v 11.370286 -185.07632 -0.10000001
v -103 47.98134 -0.10000001
v -39.847115 54.37259 -0.10000001
v -32.668037 25.00167 -0.10000001
v -84.99544 25.00167 -0.10000001
v -25.227966 -94.89102 -0.10000001
v 12.40374 -46.93395 -0.10000001
v 25.006227 -46.934612 -0.10000001
v -13.021803 -99 -0.10000001
v 17.997837 -101.40878 -0.09999988
v -12.185486 -146.62701 -0.10000001
v 7.717087 -143.28291 -0.10000001
v 47 -46.934612 -0.10000001
v 46.212395 -91.84299 -0.10000001
v -12.185486 -146.62701 -0.10000001
v 7.717087 -143.28291 -0.10000001
v 9.60991 -184.58652 -0.10000001
v -9.494342 -179.27106 -0.10000001
v 7.5332565 -219.99997 -0.10000001
v -11.626654 -219.99997 -0.10000001
v 0.10548544 58.41591 -0.1
v 26.0079 61.037308 -0.10000001
v 13 25.00167 -0.10000001
v -4.6746407 25.00167 -0.10000001
v -39.847115 54.37259 -0.10000001
v 0.10548544 58.41591 -0.1
v -4.6746407 25.00167 -0.10000001
v -32.668037 25.00167 -0.10000001
vt 0.9057192 0.47536525
vt 0.9057192 0.47536525
vt 0.9057192 0.47536525
vt 0.9057192 0.47536525
vt 0.9057192 0.47536525
vt 0.9057192 0.47536525
vt 0.9057192 0.47536525
vt 0.9057192 0.47536525
vt 0.9057192 0.47536525
vt 0.65625 0.15625
vt 0.65625 0.15625
vt 0.65625 0.15625
vt 0.65625 0.15625
vt 0.65625 0.15625
vt 0.65625 0.15625
vt 0.6252742 0.15625
vt 0.65624994 0.15624999
vt 0.65624994 0.15624999
vt 0.65624994 0.15624999
vt 0.65625 0.15625
vt 0.65625 0.15625
vt 0.65625 0.15625
vt 0.65625 0.15625
vt 0.65625 0.15625
vt 0.65625 0.15625
vt 0.65625 0.15625
vt 0.65625 0.15625
vt 0.65625 0.15625
vt 0.65625 0.15625
vt 0.65625 0.15625
vt 0.65625 0.15624999
vt 0.65624994 0.15624999
vt 0.65625 0.15625
vt 0.65625 0.15625
vt 0.65625 0.15625
vt 0.65625 0.15625
vt 0.65625 0.15625
vt 0.65625 0.15625
vt 0.65624994 0.15624999
vt 0.65624994 0.15624999
vt 0.65625 0.15625
vt 0.65624994 0.15624999
vt 0.65625 0.15625
vt 0.65625 0.15625
vt 0.65625 0.15625
vt 0.65625 0.15625
vt 0.65625 0.15625
vt 0.59375 0.15625
vt 0.59375 0.15625
vt 0.59375 0.15625
vt 0.59375 0.15625
vt 0.59375 0.15625
vt 0.59375 0.15625
vt 0.59375 0.15625
vt 0.59374994 0.15624999
vt 0.59374994 0.15624999
vt 0.59375 0.15625
vt 0.59374994 0.15624999
vt 0.59375 0.15625
vt 0.59375 0.15625
vt 0.9057192 0.47536525
vt 0.9057192 0.47536525
vt 0.9057192 0.47536525
vt 0.9057192 0.47536525
vt 0.9057192 0.47536525
vt 0.9057192 0.47536525
vt 0.71875 0.15625
vt 0.71875 0.15625
vt 0.71875 0.15625
vt 0.71875 0.15625
vt 0.71875 0.15625
vt 0.71875 0.15625
vt 0.71874994 0.15624999
vt 0.71875 0.15625
vt 0.71875 0.15625
vt 0.71875 0.15625
vt 0.71875 0.15625
vt 0.71875 0.15625
vt 0.71875 0.15625
vt 0.71875 0.15625
vt 0.71875 0.15625
vt 0.71875 0.15625
vt 0.71875 0.15625
vt 0.71875 0.15625
vt 0.71875 0.15625
vt 0.71875 0.15625
vt 0.71875 0.15625
vt 0.71874994 0.15624999
vt 0.78125 0.15625
vt 0.78125 0.15625
vt 0.78125 0.15625
vt 0.78125 0.15625
vt 0.78125 0.15625
vt 0.78125 0.15625
vt 0.78125 0.15625
vt 0.78125 0.15625
vt 0.78125 0.15625
vt 0.78125 0.15625
vt 0.78125 0.15625
vt 0.78125 0.15625
vt 0.78125 0.15625
vt 0.78125 0.15625
vt 0.78125 0.15625
vt 0.78125 0.15625
vt 0.7812499 0.15624997
vt 0.78125 0.15625
vt 0.91061836 0.4827141
vt 0.9106183 0.48271406
vt 0.9106183 0.48271406
vt 0.91061836 0.4827141
vt 0.60425806 0.15625
vt 0.60425806 0.15625
vt 0.60425806 0.15625
vt 0.60425806 0.15625
vt 0.60425806 0.15625
vt 0.60425806 0.15625
vt 0.60425806 0.15625
vt 0.60425806 0.15625
vt 0.60425806 0.15625
vt 0.59375 0.15625
vt 0.59375 0.15625
vt 0.59375 0.15625
vt 0.59375 0.15625
vt 0.59375 0.15625
vt 0.59375 0.15625
vt 0.9106184 0.48271412
vt 0.91061836 0.4827141
vt 0.91061836 0.4827141
vt 0.9106183 0.48271406
vt 0.85182744 0.97508883
vt 0.8518273 0.97508883
vt 0.85182744 0.9750888
vt 0.85182744 0.97508883
vn -0 0 1
vn -0 0 1
vn -0 0 1
vn -0 0 1
vn -0 0 1
vn -0 0 1
vn -0 0 1
vn -0 0 1
vn -0 0 1
vn -0 0 1
vn -0 0 1
vn -0 0 1
vn -0 0 1
vn -0 0 1
vn -0 0 1
vn -0 0 1
vn -0 0 1
vn -0 0 1
vn -0 0 1
vn -0 0 1
vn -0 0 1
vn -0 0 1
vn -0 0 1
vn -0 0 1
vn -0 0 1
vn -0 0 1
vn -0 0 1
vn -0 0 1
vn -0 0 1
vn -0 0 1
vn -0 0 1
vn -0 0 1
vn -0 0 1
vn -0 0 1
vn -0 0 1
vn -0 0 1
vn -0 0 1
vn -0 0 1
vn -0 0 1
vn -0 0 1
vn -0 0 1
vn -0 0 1
vn -0 0 1
vn -0 0 1
vn -0 0 1
vn -0 0 1
vn -0 0 1
vn -0 0 1
vn -0 0 1
vn -0 0 1
vn -0 0 1
vn -0 0 1
vn -0 0 1
vn -0 0 1
vn -0 0 1
vn -0 0 1
vn -0 0 1
vn -0 0 1
vn -0 0 1
vn -0 0 1
vn -0 0 1
vn -0 0 1
vn -0 0 1
vn -0 0 1
vn -0 0 1
vn -0 0 1
vn -0 0 1
vn -0 0 1
vn -0 0 1
vn -0 0 1
vn -0 0 1
vn -0 0 1
vn -0 0 1
vn -0 0 1
vn -0 0 1
vn -0 0 1
vn -0 0 1
vn -0 0 1
vn -0 0 1
vn -0 0 1
vn -0 0 1
vn -0 0 1
vn -0 0 1
vn -0 0 1
vn -0 0 1
vn -0 0 1
vn -0 0 1
vn -0 0 1
vn -0 0 1
vn -0 0 1
vn -0 0 1
vn -0 0 1
vn -0 0 1
vn -0 0 1
vn -0 0 1
vn -0 0 1
vn -0 0 1
vn -0 0 1
vn -0 0 1
vn -0 0 1
vn -0 0 1
vn -0 0 1
vn -0 0 1
vn -0 0 1
vn -0 0 1
vn -0 0 1
vn -0 0 1
vn -0 0 1
vn -0 0 1
vn -0 0 1
vn -0 0 1
vn -0 0 1
vn -0 0 1
vn -0 0 1
vn -0 0 1
vn -0 0 1
vn -0 0 1
vn -0 0 1
vn -0 0 1
vn -0 0 1
vn -0 0 1
vn -0 0 1
vn -0 0 1
vn -0 0 1
vn -0 0 1
vn -0 0 1
vn -0 0 1
vn -0 0 1
vn -0 0 1
vn -0 0 1
vn -0 0 1
vn -0 0 1
vn -0 0 1
g ground_0
f 3/3/3 2/2/2 1/1/1
f 4/4/4 2/2/2 3/3/3
f 4/4/4 3/3/3 5/5/5
f 6/6/6 4/4/4 5/5/5
f 4/4/4 7/7/7 2/2/2
f 7/7/7 8/8/8 2/2/2
f 2/2/2 8/8/8 9/9/9
f 12/12/12 11/11/11 10/10/10
f 13/13/13 12/12/12 10/10/10
f 13/13/13 10/10/10 14/14/14
f 15/15/15 13/13/13 14/14/14
f 14/14/14 16/16/16 15/15/15
f 18/18/18 17/17/17 14/14/14
f 19/19/19 18/18/18 14/14/14
f 14/14/14 20/20/20 19/19/19
f 21/21/21 19/19/19 20/20/20
f 22/22/22 19/19/19 21/21/21
f 23/23/23 22/22/22 21/21/21
f 24/24/24 22/22/22 23/23/23
f 25/25/25 24/24/24 23/23/23
f 24/24/24 25/25/25 26/26/26
f 24/24/24 26/26/26 27/27/27
f 26/26/26 28/28/28 27/27/27
f 27/27/27 28/28/28 29/29/29
f 30/30/30 29/29/29 28/28/28
f 31/31/31 30/30/30 28/28/28
f 31/31/31 32/32/32 30/30/30
f 31/31/31 33/33/33 32/32/32
f 34/34/34 33/33/33 31/31/31
f 35/35/35 34/34/34 31/31/31
f 36/36/36 34/34/34 35/35/35
f 37/37/37 36/36/36 35/35/35
f 36/36/36 37/37/37 38/38/38
f 39/39/39 36/36/36 38/38/38
f 39/39/39 38/38/38 40/40/40
f 38/38/38 41/41/41 40/40/40
f 40/40/40 41/41/41 42/42/42
f 41/41/41 43/43/43 42/42/42
f 41/41/41 44/44/44 43/43/43
f 44/44/44 45/45/45 43/43/43
f 44/44/44 46/46/46 45/45/45
f 46/46/46 47/47/47 45/45/45
f 50/50/50 49/49/49 48/48/48
f 49/49/49 51/51/51 48/48/48
f 48/48/48 51/51/51 52/52/52
f 52/52/52 53/53/53 48/48/48
f 52/52/52 54/54/54 53/53/53
f 54/54/54 55/55/55 53/53/53
f 55/55/55 56/56/56 53/53/53
f 53/53/53 57/57/57 48/48/48
f 48/48/48 57/57/57 58/58/58
f 57/57/57 53/53/53 59/59/59
f 60/60/60 57/57/57 59/59/59
f 63/63/63 62/62/62 61/61/61
f 62/62/62 64/64/64 61/61/61
f 65/65/65 61/61/61 64/64/64
f 66/66/66 65/65/65 64/64/64
f 69/69/69 68/68/68 67/67/67
f 70/70/70 69/69/69 67/67/67
f 71/71/71 70/70/70 67/67/67
f 70/70/70 71/71/71 72/72/72
f 73/73/73 70/70/70 72/72/72
f 74/74/74 73/73/73 72/72/72
f 75/75/75 73/73/73 74/74/74
f 76/76/76 75/75/75 74/74/74
f 77/77/77 75/75/75 76/76/76
f 78/78/78 77/77/77 76/76/76
f 79/79/79 77/77/77 78/78/78
f 80/80/80 79/79/79 78/78/78
f 79/79/79 80/80/80 81/81/81
f 81/81/81 82/82/82 79/79/79
f 82/82/82 83/83/83 79/79/79
f 82/82/82 84/84/84 83/83/83
f 84/84/84 85/85/85 83/83/83
f 85/85/85 86/86/86 83/83/83
f 87/87/87 86/86/86 85/85/85
f 88/88/88 87/87/87 85/85/85
f 91/91/91 90/90/90 89/89/89
f 92/92/92 90/90/90 91/91/91
f 93/93/93 92/92/92 91/91/91
f 94/94/94 92/92/92 93/93/93
f 95/95/95 92/92/92 94/94/94
f 96/96/96 95/95/95 94/94/94
f 97/97/97 95/95/95 96/96/96
f 98/98/98 97/97/97 96/96/96
f 99/99/99 97/97/97 98/98/98
f 100/100/100 99/99/99 98/98/98
f 100/100/100 101/101/101 99/99/99
f 101/101/101 102/102/102 99/99/99
f 101/101/101 103/103/103 102/102/102
f 103/103/103 104/104/104 102/102/102
f 105/105/105 104/104/104 103/103/103
f 106/106/106 105/105/105 103/103/103
f 109/109/109 108/108/108 107/107/107
f 110/110/110 109/109/109 107/107/107
f 113/113/113 112/112/112 111/111/111
f 114/114/114 113/113/113 111/111/111
f 115/115/115 113/113/113 114/114/114
f 115/115/115 114/114/114 116/116/116
f 117/117/117 115/115/115 116/116/116
f 118/118/118 113/113/113 115/115/115
f 119/119/119 118/118/118 115/115/115
f 122/122/122 121/121/121 120/120/120
f 123/123/123 122/122/122 120/120/120
f 124/124/124 122/122/122 123/123/123
f 125/125/125 124/124/124 123/123/123
f 128/128/128 127/127/127 126/126/126
f 129/129/129 128/128/128 126/126/126
f 132/132/132 131/131/131 130/130/130
f 133/133/133 132/132/132 130/130/130
