g ground
v 144.71713 -81.906395 -0.10000001
v 158.42023 -110.61422 -0.10000001
v 110.15048 -119.253265 -0.10000001
v 106.99998 -77.00004 -0.10000001
v 46.44432 -83.63142 -0.10000001
v 106.99998 -77.00004 -0.10000001
v 30.540749 -104.166245 -0.10000001
v -34.97048 -70.977234 -0.10000001
v -46.548782 -87.9111 -0.10000001
v -36.47194 -21.609873 -0.10000001
v -58.584183 -33.497696 -0.10000001
v -88.48234 -11.838094 -0.10000001
v -46.98378 -2.5862253 -0.10000001
v -72.066 4.984831 -0.10000001
v -85.13592 27.309076 -0.10000001
v -107.7572 28.465523 -0.10000001
v -97.03201 93.32213 -0.10000001
v -76.02981 70.00002 -0.10000001
v -30.669716 108.046165 -0.10000001
v -39.329308 81.49373 -0.10000001
v 58.668655 77.92006 -0.10000001
v 55.531082 96.41881 -0.10000001
v 124.00063 75.537605 -0.10000001
v 118.958206 99.826294 -0.10000001
v 180.5708 93.3027 -0.10000001
v 168 68.498604 -0.10000001
v 180.5708 93.3027 -0.10000001
v 248.38165 23.427668 -0.10000001
v 202.80359 38.872383 -0.10000001
v 219.1015 121.740204 -0.10000001
v 118.958206 99.826294 -0.10000001
v 111.32524 144.53427 -0.10000001
v 118.958206 99.826294 -0.10000001
v 58.24223 132.8835 -0.10000001
v 55.531082 96.41881 -0.10000001
v -39.329308 81.49373 -0.10000001
v -85.13592 27.309076 -0.10000001
v -76.02981 70.00002 -0.10000001
v -49.9927 46.000027 -0.10000001
v -72.066 4.984831 -0.10000001
v -26.048973 45.99996 -0.10000001
v -49.999992 13.999977 -0.10000001
v 58.668655 77.92006 -0.10000001
v 30.001045 45.999973 -0.10000001
v 124.00063 75.537605 -0.10000001
v -46.98378 -2.5862253 -0.10000001
v -26.052078 13.999977 -0.10000001
v 106.00058 45.99997 -0.10000001
v 168 68.498604 -0.10000001
v 176.66339 43.866882 -0.10000001
v 106.000565 13.999137 -0.10000001
v -26.052086 -17.999992 -0.10000001
v -36.47194 -21.609873 -0.10000001
v -34.97048 -70.977234 -0.10000001
v 29.999481 -18.000843 -0.10000001
v 46.44432 -83.63142 -0.10000001
v 106.000565 -18.001698 -0.10000001
v 106.99998 -77.00004 -0.10000001
v 176.66339 43.866882 -0.10000001
v 168 -57.274685 -0.10000001
v 106.000565 -18.001698 -0.10000001
v 168 -57.274685 -0.10000001
v 158.42023 -110.61422 -0.10000001
v 144.71713 -81.906395 -0.10000001
v 192.16592 -55.194374 -0.10000001
v 168 -57.274685 -0.10000001
v 202.80359 38.872383 -0.10000001
v 176.66339 43.866882 -0.10000001
v 168 68.498604 -0.10000001
v 202.80359 38.872383 -0.10000001
v 180.5708 93.3027 -0.10000001
v 111.32524 144.53427 -0.10000001
v 300.00006 200.00003 -0.10000001
v 219.1015 121.740204 -0.10000001
v 44.379715 200 -0.10000001
v 111.32524 144.53427 -0.10000001
v 58.24223 132.8835 -0.10000001
v -8.47084 150.51134 -0.10000001
v -119.059235 137.05673 -0.10000001
v -199.99994 200 -0.10000001
v -149.65495 34.728256 -0.10000001
v -200 0 -0.10000001
v -124.90765 -37.224358 -0.10000001
v -90.00002 -79.99997 -0.10000001
v -200.00006 -200 -0.10000001
v -56.804214 -133.55664 -0.10000001
v 44.37962 -200 -0.10000001
v 31.198215 -135.00299 -0.10000001
v 99.007744 -153.54703 -0.10000001
v 193.86365 -137.30843 -0.10000001
v 299.99994 -199.99997 -0.10000001
v 245.36194 -35.509705 -0.10000001
v 300 2.670288E-05 -0.10000001
v 248.38165 23.427668 -0.10000001
v 219.1015 121.740204 -0.10000001
v 300.00006 200.00003 -0.10000001
v 248.38165 23.427668 -0.10000001
v 106.99998 -77.00004 -0.10000001
v 168 -57.274685 -0.10000001
v 144.71713 -81.906395 -0.10000001
v 106.000565 -18.001698 -0.10000001
v 55.531082 96.41881 -0.10000001
v -8.47084 150.51134 -0.10000001
v 58.24223 132.8835 -0.10000001
v -30.669716 108.046165 -0.10000001
v -97.03201 93.32213 -0.10000001
v -119.059235 137.05673 -0.10000001
v -107.7572 28.465523 -0.10000001
v -149.65495 34.728256 -0.10000001
v -124.90765 -37.224358 -0.10000001
v -88.48234 -11.838094 -0.10000001
v -58.584183 -33.497696 -0.10000001
v -90.00002 -79.99997 -0.10000001
v -46.548782 -87.9111 -0.10000001
v -56.804214 -133.55664 -0.10000001
v 31.198215 -135.00299 -0.10000001
v 30.540749 -104.166245 -0.10000001
v 99.007744 -153.54703 -0.10000001
v 110.15048 -119.253265 -0.10000001
v 158.42023 -110.61422 -0.10000001
v 193.86365 -137.30843 -0.10000001
v 192.16592 -55.194374 -0.10000001
v 245.36194 -35.509705 -0.10000001
v 248.38165 23.427668 -0.10000001
v 202.80359 38.872383 -0.10000001
v -49.999992 13.999977 -0.10000001
v -49.9927 46.000027 -0.10000001
v -26.048973 45.99996 -0.10000001
v -26.052078 13.999977 -0.10000001
v 30.001045 45.999973 -0.10000001
v 29.999481 13.99956 -0.10000001
v 106.00058 45.99997 -0.10000001
v 106.000565 13.999137 -0.10000001
v 106.000565 -18.001698 -0.10000001
v 29.999481 -18.000843 -0.10000001
v -26.052086 -17.999992 -0.10000001
vt 0.84305304 0.52753705
vt 0.843053 0.5275371
vt 0.843053 0.5275371
vt 0.84305304 0.5275371
vt 0.843053 0.5275371
vt 0.843053 0.5275371
vt 0.843053 0.5275371
vt 0.843053 0.5275371
vt 0.843053 0.5275371
vt 0.8430529 0.527537
vt 0.843053 0.5275371
vt 0.843053 0.5275371
vt 0.84305304 0.5275371
vt 0.8430529 0.5275371
vt 0.843053 0.5275371
vt 0.843053 0.5275371
vt 0.843053 0.5275371
vt 0.843053 0.5275371
vt 0.843053 0.5275371
vt 0.843053 0.5275371
vt 0.8430529 0.52753705
vt 0.843053 0.5275371
vt 0.84305304 0.5275371
vt 0.84305304 0.52753717
vt 0.84305304 0.52753717
vt 0.84305304 0.5275371
vt 0.28055304 0.46503717
vt 0.28055298 0.4650371
vt 0.28055304 0.46503714
vt 0.280553 0.46503717
vt 0.28055304 0.46503717
vt 0.28055298 0.46503717
vt 0.280553 0.46503714
vt 0.28055298 0.46503717
vt 0.28055298 0.4650371
vt 0.593053 0.4650371
vt 0.593053 0.4650371
vt 0.593053 0.4650371
vt 0.593053 0.4650371
vt 0.593053 0.4650371
vt 0.593053 0.4650371
vt 0.593053 0.4650371
vt 0.5930529 0.46503708
vt 0.593053 0.4650371
vt 0.59305304 0.4650371
vt 0.593053 0.46503708
vt 0.593053 0.4650371
vt 0.593053 0.4650371
vt 0.59305304 0.4650371
vt 0.59305304 0.4650371
vt 0.593053 0.4650371
vt 0.593053 0.46503714
vt 0.593053 0.4650371
vt 0.593053 0.4650371
vt 0.593053 0.4650371
vt 0.593053 0.4650371
vt 0.593053 0.4650371
vt 0.593053 0.46503708
vt 0.59305304 0.46503708
vt 0.59305304 0.46503705
vt 0.593053 0.4650371
vt 0.84305304 0.5275371
vt 0.843053 0.5275371
vt 0.84305304 0.52753705
vt 0.843053 0.5275371
vt 0.84305304 0.5275371
vt 0.843053 0.5275371
vt 0.8430531 0.5275371
vt 0.84305304 0.5275371
vt 0.843053 0.5275371
vt 0.84305304 0.52753717
vt 0.34305298 0.46503714
vt 0.34305298 0.4650371
vt 0.343053 0.46503717
vt 0.34305298 0.4650371
vt 0.34305298 0.46503714
vt 0.34305298 0.46503714
vt 0.34305298 0.46503714
vt 0.34305298 0.4650371
vt 0.34305298 0.4650371
vt 0.34305298 0.46503708
vt 0.34305298 0.4650371
vt 0.34305298 0.4650371
vt 0.34305298 0.4650371
vt 0.34305298 0.4650371
vt 0.34305298 0.4650371
vt 0.34305298 0.46503714
vt 0.34305298 0.4650371
vt 0.34305298 0.4650371
vt 0.34305298 0.4650371
vt 0.34305298 0.4650371
vt 0.34305298 0.4650371
vt 0.34305298 0.4650371
vt 0.34305298 0.4650371
vt 0.343053 0.46503717
vt 0.34305298 0.4650371
vt 0.34305298 0.46503714
vt 0.593053 0.46503708
vt 0.59305304 0.46503705
vt 0.59305304 0.46503705
vt 0.593053 0.4650371
vt 0.28055298 0.4650371
vt 0.28055298 0.46503717
vt 0.28055298 0.46503717
vt 0.28055298 0.4650371
vt 0.28055298 0.4650371
vt 0.28055298 0.4650371
vt 0.28055298 0.4650371
vt 0.28055298 0.4650371
vt 0.28055298 0.46503708
vt 0.28055298 0.4650371
vt 0.28055298 0.4650371
vt 0.28055298 0.4650371
vt 0.28055298 0.4650371
vt 0.28055298 0.4650371
vt 0.28055298 0.4650371
vt 0.28055298 0.4650371
vt 0.28055298 0.4650371
vt 0.28055298 0.4650371
vt 0.28055298 0.4650371
vt 0.28055298 0.4650371
vt 0.28055298 0.4650371
vt 0.28055298 0.4650371
vt 0.28055298 0.4650371
vt 0.280553 0.4650371
vt 0.655553 0.4650371
vt 0.655553 0.4650371
vt 0.655553 0.4650371
vt 0.655553 0.4650371
vt 0.655553 0.4650371
vt 0.655553 0.4650371
vt 0.655553 0.4650371
vt 0.655553 0.4650371
vt 0.655553 0.4650371
vt 0.655553 0.4650371
vt 0.655553 0.46503714
vn -0 0 1
vn -0 0 1
vn -0 0 1
vn -0 0 1
vn -0 0 1
vn -0 0 1
vn -0 0 1
vn -0 0 1
vn -0 0 1
vn -0 0 1
vn -0 0 1
vn -0 0 1
vn -0 0 1
vn -0 0 1
vn -0 0 1
vn -0 0 1
vn -0 0 1
vn -0 0 1
vn -0 0 1
vn -0 0 1
vn -0 0 1
vn -0 0 1
vn -0 0 1
vn -0 0 1
vn -0 0 1
vn -0 0 1
vn -0 0 1
vn -0 0 1
vn -0 0 1
vn -0 0 1
vn -0 0 1
vn -0 0 1
vn -0 0 1
vn -0 0 1
vn -0 0 1
vn -0 0 1
vn -0 0 1
vn -0 0 1
vn -0 0 1
vn -0 0 1
vn -0 0 1
vn -0 0 1
vn -0 0 1
vn -0 0 1
vn -0 0 1
vn -0 0 1
vn -0 0 1
vn -0 0 1
vn -0 0 1
vn -0 0 1
vn -0 0 1
vn -0 0 1
vn -0 0 1
vn -0 0 1
vn -0 0 1
vn -0 0 1
vn -0 0 1
vn -0 0 1
vn -0 0 1
vn -0 0 1
vn -0 0 1
vn -0 0 1
vn -0 0 1
vn -0 0 1
vn -0 0 1
vn -0 0 1
vn -0 0 1
vn -0 0 1
vn -0 0 1
vn -0 0 1
vn -0 0 1
vn -0 0 1
vn -0 0 1
vn -0 0 1
vn -0 0 1
vn -0 0 1
vn -0 0 1
vn -0 0 1
vn -0 0 1
vn -0 0 1
vn -0 0 1
vn -0 0 1
vn -0 0 1
vn -0 0 1
vn -0 0 1
vn -0 0 1
vn -0 0 1
vn -0 0 1
vn -0 0 1
vn -0 0 1
vn -0 0 1
vn -0 0 1
vn -0 0 1
vn -0 0 1
vn -0 0 1
vn -0 0 1
vn -0 0 1
vn -0 0 1
vn -0 0 1
vn -0 0 1
vn -0 0 1
vn -0 0 1
vn -0 0 1
vn -0 0 1
vn -0 0 1
vn -0 0 1
vn -0 0 1
vn -0 0 1
vn -0 0 1
vn -0 0 1
vn -0 0 1
vn -0 0 1
vn -0 0 1
vn -0 0 1
vn -0 0 1
vn -0 0 1
vn -0 0 1
vn -0 0 1
vn -0 0 1
vn -0 0 1
vn -0 0 1
vn -0 0 1
vn -0 0 1
vn -0 0 1
vn -0 0 1
vn -0 0 1
vn -0 0 1
vn -0 0 1
vn -0 0 1
vn -0 0 1
vn -0 0 1
vn -0 0 1
vn -0 0 1
vn -0 0 1
vn -0 0 1
vn -0 0 1
g ground_0
f 3/3/3 2/2/2 1/1/1
f 4/4/4 3/3/3 1/1/1
f 3/3/3 6/6/6 5/5/5
f 7/7/7 3/3/3 5/5/5
f 7/7/7 5/5/5 8/8/8
f 9/9/9 7/7/7 8/8/8
f 8/8/8 10/10/10 9/9/9
f 10/10/10 11/11/11 9/9/9
f 12/12/12 11/11/11 10/10/10
f 13/13/13 12/12/12 10/10/10
f 14/14/14 12/12/12 13/13/13
f 12/12/12 14/14/14 15/15/15
f 16/16/16 12/12/12 15/15/15
f 17/17/17 16/16/16 15/15/15
f 18/18/18 17/17/17 15/15/15
f 19/19/19 17/17/17 18/18/18
f 20/20/20 19/19/19 18/18/18
f 19/19/19 20/20/20 21/21/21
f 22/22/22 19/19/19 21/21/21
f 22/22/22 21/21/21 23/23/23
f 24/24/24 22/22/22 23/23/23
f 25/25/25 24/24/24 23/23/23
f 26/26/26 25/25/25 23/23/23
f 29/29/29 28/28/28 27/27/27
f 28/28/28 30/30/30 27/27/27
f 27/27/27 30/30/30 31/31/31
f 30/30/30 32/32/32 31/31/31
f 32/32/32 34/34/34 33/33/33
f 34/34/34 35/35/35 33/33/33
f 38/38/38 37/37/37 36/36/36
f 37/37/37 39/39/39 36/36/36
f 39/39/39 37/37/37 40/40/40
f 39/39/39 41/41/41 36/36/36
f 42/42/42 39/39/39 40/40/40
f 43/43/43 36/36/36 41/41/41
f 44/44/44 43/43/43 41/41/41
f 45/45/45 43/43/43 44/44/44
f 42/42/42 40/40/40 46/46/46
f 46/46/46 47/47/47 42/42/42
f 48/48/48 45/45/45 44/44/44
f 45/45/45 48/48/48 49/49/49
f 48/48/48 50/50/50 49/49/49
f 51/51/51 50/50/50 48/48/48
f 52/52/52 47/47/47 46/46/46
f 52/52/52 46/46/46 53/53/53
f 52/52/52 53/53/53 54/54/54
f 55/55/55 52/52/52 54/54/54
f 56/56/56 55/55/55 54/54/54
f 55/55/55 56/56/56 57/57/57
f 56/56/56 58/58/58 57/57/57
f 60/60/60 59/59/59 51/51/51
f 61/61/61 60/60/60 51/51/51
f 64/64/64 63/63/63 62/62/62
f 63/63/63 65/65/65 62/62/62
f 65/65/65 67/67/67 66/66/66
f 67/67/67 68/68/68 66/66/66
f 68/68/68 70/70/70 69/69/69
f 70/70/70 71/71/71 69/69/69
f 74/74/74 73/73/73 72/72/72
f 73/73/73 75/75/75 72/72/72
f 75/75/75 77/77/77 76/76/76
f 75/75/75 78/78/78 77/77/77
f 78/78/78 75/75/75 79/79/79
f 75/75/75 80/80/80 79/79/79
f 79/79/79 80/80/80 81/81/81
f 80/80/80 82/82/82 81/81/81
f 82/82/82 83/83/83 81/81/81
f 83/83/83 82/82/82 84/84/84
f 82/82/82 85/85/85 84/84/84
f 86/86/86 84/84/84 85/85/85
f 87/87/87 86/86/86 85/85/85
f 87/87/87 88/88/88 86/86/86
f 87/87/87 89/89/89 88/88/88
f 89/89/89 87/87/87 90/90/90
f 87/87/87 91/91/91 90/90/90
f 90/90/90 91/91/91 92/92/92
f 91/91/91 93/93/93 92/92/92
f 93/93/93 94/94/94 92/92/92
f 93/93/93 96/96/96 95/95/95
f 97/97/97 93/93/93 95/95/95
f 100/100/100 99/99/99 98/98/98
f 99/99/99 101/101/101 98/98/98
f 104/104/104 103/103/103 102/102/102
f 103/103/103 105/105/105 102/102/102
f 105/105/105 103/103/103 106/106/106
f 103/103/103 107/107/107 106/106/106
f 106/106/106 107/107/107 108/108/108
f 107/107/107 109/109/109 108/108/108
f 109/109/109 110/110/110 108/108/108
f 110/110/110 111/111/111 108/108/108
f 111/111/111 110/110/110 112/112/112
f 110/110/110 113/113/113 112/112/112
f 114/114/114 112/112/112 113/113/113
f 115/115/115 114/114/114 113/113/113
f 115/115/115 116/116/116 114/114/114
f 116/116/116 117/117/117 114/114/114
f 116/116/116 118/118/118 117/117/117
f 118/118/118 119/119/119 117/117/117
f 119/119/119 118/118/118 120/120/120
f 118/118/118 121/121/121 120/120/120
f 120/120/120 121/121/121 122/122/122
f 121/121/121 123/123/123 122/122/122
f 123/123/123 124/124/124 122/122/122
f 124/124/124 125/125/125 122/122/122
f 128/128/128 127/127/127 126/126/126
f 129/129/129 128/128/128 126/126/126
f 130/130/130 128/128/128 129/129/129
f 131/131/131 130/130/130 129/129/129
f 132/132/132 130/130/130 131/131/131
f 133/133/133 132/132/132 131/131/131
f 134/134/134 133/133/133 131/131/131
f 135/135/135 134/134/134 131/131/131
f 135/135/135 131/131/131 129/129/129
f 136/136/136 135/135/135 129/129/129
