g ground.001
v -5.2638435 -5.667637 0.050000016
v -20 -10.870016 0.050000016
v -20 2.2431421 0.050000016
v -7.0837116 -0.054593086 0.050000016
v -20 2.2431421 0.050000016
v -15.541641 13.731478 0.050000016
v -20 5.7427225 0.050000016
v -5.2622614 5.6340313 0.050000016
v -4.606811 17.563765 0.050000016
v -0 7.4745636 0.050000016
v -15.541641 13.731478 0.050000016
v -0 7.4745636 0.050000016
v -7.0837116 -0.054593086 0.050000016
v -5.2622614 5.6340313 0.050000016
v -0 0 0.050000016
v 5.983677 5.73184 0.050000016
v -5.2638435 -5.667637 0.050000016
v 7.73394 2.1057782 0.050000016
v -2.7098846 -6.7038846 0.050000016
v 7.778494 -0.058247566 0.050000016
v 0.5998978 -6.705806 0.050000016
v 6.976865 -0.81474113 0.050000016
v 2.034016 -4.9415965 0.050000016
v 4.6314316 -2.2633605 0.050000016
v 2.6518347 -2.9781756 0.050000016
v 7.778494 -0.058247566 0.050000016
v 14.105175 -3.3822033 0.050000016
v 6.976865 -0.81474113 0.050000016
v 16.336641 1.9735923 0.050000016
v 12.074263 13.123146 0.050000016
v 7.73394 2.1057782 0.050000016
v 5.983677 5.73184 0.050000016
v 12.074263 13.123146 0.050000016
v -0 7.4745636 0.050000016
v -4.606811 17.563765 0.050000016
v -6.1669617 -18.462215 0.050000016
v 0.5998978 -6.705806 0.050000016
v 2.034016 -4.9415965 0.050000016
v 7.6635027 -14.694317 0.050000016
v 2.6518347 -2.9781756 0.050000016
v 12.583612 -6.8665757 0.050000016
v 4.6314316 -2.2633605 0.050000016
v -2.7098846 -6.7038846 0.050000016
v -9.475251 -17.009615 0.050000016
v -20 -10.870016 0.050000016
v -5.2638435 -5.667637 0.050000016
v 14.105175 -3.3822033 0.050000016
v 12.583612 -6.8665757 0.050000016
v 4.6314316 -2.2633605 0.050000016
v 6.976865 -0.81474113 0.050000016
v 12.583612 -6.8665757 0.050000016
v 17.111504 -11.124542 0.050000016
v 17.865917 -15.683256 0.050000016
v 7.6635027 -14.694317 0.050000016
v 3 -32 0.050000016
v -6.1669617 -18.462215 0.050000016
v -5.606337 -24.218098 0.050000016
v -6.463133 -29.60506 0.050000016
v -5.55235 -34.624897 0.050000016
v 27.039381 0.20793343 0.050000016
v 19.665977 -7.9731255 0.050000016
v 14.105175 -3.3822033 0.050000016
v 16.336641 1.9735923 0.050000016
v 12.074263 13.123146 0.050000016
v 13.149122 19.535809 0.050000016
v 26.870777 12.544846 0.050000016
v -4.606811 17.563765 0.050000016
v -4.3110266 25.078135 0.050000016
v -15.541641 13.731478 0.050000016
v -20 26.33628 0.050000016
v -20 5.7427225 0.050000016
v 14.105175 -3.3822033 0.050000016
v 19.665977 -7.9731255 0.050000016
v 17.111504 -11.124542 0.050000016
v 12.583612 -6.8665757 0.050000016
v -9.475251 -17.009615 0.050000016
v -20 -33.00956 0.050000016
v -20 -10.870016 0.050000016
v -8.680071 -23.008007 0.050000016
v -9.536867 -28.39497 0.050000016
v -9.189253 -35.04658 0.050000016
v -6.1669617 -18.462215 0.050000016
v -2.7098846 -6.7038846 0.050000016
v 0.5998978 -6.705806 0.050000016
v -9.475251 -17.009615 0.050000016
v -5.606337 -24.218098 0.050000016
v -8.680071 -23.008007 0.050000016
v -9.536867 -28.39497 0.050000016
v -6.463133 -29.60506 0.050000016
v -9.189253 -35.04658 0.050000016
v -5.55235 -34.624897 0.050000016
vt 0.28067842 0.46415567
vt 0.28067833 0.46415558
vt 0.2806784 0.46415567
vt 0.28067842 0.46415567
vt 0.2806784 0.46415567
vt 0.28067845 0.46415567
vt 0.28067842 0.46415567
vt 0.28067842 0.46415567
vt 0.28067833 0.46415555
vt 0.28067842 0.46415567
vt 0.28067845 0.46415567
vt 0.22142716 0.46865416
vt 0.22142716 0.46865416
vt 0.22142716 0.46865416
vt 0.22142716 0.46865416
vt 0.22142716 0.46865416
vt 0.22142716 0.46865416
vt 0.22142716 0.46865416
vt 0.22142716 0.46865416
vt 0.22142716 0.46865416
vt 0.22142716 0.46865416
vt 0.22142716 0.46865416
vt 0.22142716 0.46865416
vt 0.22142716 0.46865416
vt 0.22142716 0.46865416
vt 0.28067842 0.46415567
vt 0.28067842 0.46415567
vt 0.28067842 0.46415567
vt 0.28067842 0.46415567
vt 0.2806784 0.46415564
vt 0.28067842 0.46415567
vt 0.28067842 0.46415567
vt 0.2806784 0.46415564
vt 0.28067842 0.46415567
vt 0.28067833 0.46415555
vt 0.28067842 0.46415567
vt 0.28067842 0.46415567
vt 0.28067842 0.46415567
vt 0.28067842 0.46415567
vt 0.28067842 0.46415567
vt 0.28067842 0.46415567
vt 0.28067842 0.46415567
vt 0.28067842 0.46415567
vt 0.28067842 0.46415567
vt 0.28067833 0.46415558
vt 0.28067842 0.46415567
vt 0.2178649 0.08915567
vt 0.21786493 0.089155674
vt 0.21786492 0.089155674
vt 0.21786492 0.089155674
vt 0.410047 0.46684578
vt 0.410047 0.46684578
vt 0.410047 0.46684578
vt 0.410047 0.46684578
vt 0.410047 0.46684578
vt 0.410047 0.46684578
vt 0.410047 0.46684578
vt 0.410047 0.46684578
vt 0.410047 0.46684578
vt 0.410047 0.46684578
vt 0.410047 0.46684578
vt 0.410047 0.46684578
vt 0.410047 0.46684578
vt 0.410047 0.46684578
vt 0.410047 0.46684578
vt 0.410047 0.46684578
vt 0.410047 0.46684578
vt 0.410047 0.46684578
vt 0.410047 0.46684578
vt 0.410047 0.46684575
vt 0.410047 0.46684578
vt 0.2178649 0.08915567
vt 0.2178649 0.08915567
vt 0.21786493 0.089155674
vt 0.21786493 0.089155674
vt 0.410047 0.46684578
vt 0.410047 0.46684578
vt 0.410047 0.46684578
vt 0.410047 0.46684578
vt 0.410047 0.46684578
vt 0.410047 0.46684578
vt 0.21786492 0.089155674
vt 0.21786493 0.089155674
vt 0.21786492 0.089155674
vt 0.2178649 0.089155674
vt 0.21786492 0.08915567
vt 0.21786492 0.089155674
vt 0.21786492 0.089155674
vt 0.21786492 0.08915567
vt 0.21786492 0.089155674
vt 0.21786492 0.08915567
vn -0 0 1
vn -0 0 1
vn -0 0 1
vn -0 0 1
vn -0 0 1
vn -0 0 1
vn -0 0 1
vn -0 0 1
vn -0 0 1
vn -0 0 1
vn -0 0 1
vn -0 0 1
vn -0 0 1
vn -0 0 1
vn -0 0 1
vn -0 0 1
vn -0 0 1
vn -0 0 1
vn -0 0 1
vn -0 0 1
vn -0 0 1
vn -0 0 1
vn -0 0 1
vn -0 0 1
vn -0 0 1
vn -0 0 1
vn -0 0 1
vn -0 0 1
vn -0 0 1
vn -0 0 1
vn -0 0 1
vn -0 0 1
vn -0 0 1
vn -0 0 1
vn -0 0 1
vn -0 0 1
vn -0 0 1
vn -0 0 1
vn -0 0 1
vn -0 0 1
vn -0 0 1
vn -0 0 1
vn -0 0 1
vn -0 0 1
vn -0 0 1
vn -0 0 1
vn -0 0 1
vn -0 0 1
vn -0 0 1
vn -0 0 1
vn -0 0 1
vn -0 0 1
vn -0 0 1
vn -0 0 1
vn -0 0 1
vn -0 0 1
vn -0 0 1
vn -0 0 1
vn -0 0 1
vn -0 0 1
vn -0 0 1
vn -0 0 1
vn -0 0 1
vn -0 0 1
vn -0 0 1
vn -0 0 1
vn -0 0 1
vn -0 0 1
vn -0 0 1
vn -0 0 1
vn -0 0 1
vn -0 0 1
vn -0 0 1
vn -0 0 1
vn -0 0 1
vn -0 0 1
vn -0 0 1
vn -0 0 1
vn -0 0 1
vn -0 0 1
vn -0 0 1
vn -0 0 1
vn -0 0 1
vn -0 0 1
vn -0 0 1
vn -0 0 1
vn -0 0 1
vn -0 0 1
vn -0 0 1
vn -0 0 1
vn -0 0 1
g ground.001_0
f 3/3/3 2/2/2 1/1/1
f 4/4/4 3/3/3 1/1/1
f 6/6/6 5/5/5 4/4/4
f 6/6/6 7/7/7 5/5/5
f 4/4/4 8/8/8 6/6/6
f 8/8/8 10/10/10 9/9/9
f 11/11/11 8/8/8 9/9/9
f 14/14/14 13/13/13 12/12/12
f 13/13/13 15/15/15 12/12/12
f 16/16/16 12/12/12 15/15/15
f 13/13/13 17/17/17 15/15/15
f 18/18/18 16/16/16 15/15/15
f 17/17/17 19/19/19 15/15/15
f 15/15/15 20/20/20 18/18/18
f 15/15/15 19/19/19 21/21/21
f 22/22/22 20/20/20 15/15/15
f 15/15/15 21/21/21 23/23/23
f 15/15/15 24/24/24 22/22/22
f 15/15/15 23/23/23 25/25/25
f 15/15/15 25/25/25 24/24/24
f 28/28/28 27/27/27 26/26/26
f 27/27/27 29/29/29 26/26/26
f 26/26/26 29/29/29 30/30/30
f 30/30/30 31/31/31 26/26/26
f 30/30/30 32/32/32 31/31/31
f 34/34/34 32/32/32 33/33/33
f 35/35/35 34/34/34 33/33/33
f 38/38/38 37/37/37 36/36/36
f 38/38/38 36/36/36 39/39/39
f 39/39/39 40/40/40 38/38/38
f 40/40/40 39/39/39 41/41/41
f 42/42/42 40/40/40 41/41/41
f 45/45/45 44/44/44 43/43/43
f 46/46/46 45/45/45 43/43/43
f 49/49/49 48/48/48 47/47/47
f 50/50/50 49/49/49 47/47/47
f 53/53/53 52/52/52 51/51/51
f 54/54/54 53/53/53 51/51/51
f 55/55/55 53/53/53 54/54/54
f 56/56/56 55/55/55 54/54/54
f 57/57/57 55/55/55 56/56/56
f 57/57/57 58/58/58 55/55/55
f 58/58/58 59/59/59 55/55/55
f 62/62/62 61/61/61 60/60/60
f 62/62/62 60/60/60 63/63/63
f 63/63/63 60/60/60 64/64/64
f 64/64/64 60/60/60 65/65/65
f 60/60/60 66/66/66 65/65/65
f 64/64/64 65/65/65 67/67/67
f 65/65/65 68/68/68 67/67/67
f 67/67/67 68/68/68 69/69/69
f 68/68/68 70/70/70 69/69/69
f 71/71/71 69/69/69 70/70/70
f 74/74/74 73/73/73 72/72/72
f 75/75/75 74/74/74 72/72/72
f 78/78/78 77/77/77 76/76/76
f 77/77/77 79/79/79 76/76/76
f 79/79/79 77/77/77 80/80/80
f 80/80/80 77/77/77 81/81/81
f 84/84/84 83/83/83 82/82/82
f 83/83/83 85/85/85 82/82/82
f 86/86/86 82/82/82 85/85/85
f 87/87/87 86/86/86 85/85/85
f 87/87/87 88/88/88 86/86/86
f 88/88/88 89/89/89 86/86/86
f 88/88/88 90/90/90 89/89/89
f 90/90/90 91/91/91 89/89/89
