g hammer_Metal
v 0.15537871 1.1973593 0.24527006
v 0.13694724 1.2375848 0.22095607
v 0.13680655 1.1536853 0.2207002
v 0.13559045 1.1207677 0.2462238
v 0.08001054 1.0615274 0.22913893
v 0.07990429 1.0625404 0.2488831
v 0.0006167921 1.0418357 0.24698956
v -0.07943655 1.0615783 0.22927916
v -0.07867583 1.0624651 0.24903281
v -0.13620411 1.1536977 0.22094041
v -0.1344522 1.120711 0.24641484
v -0.13634218 1.2375783 0.22120659
v 0.170302 1.0995498 0.3061375
v 0.098587625 1.0278276 0.30613747
v 0.00061031105 1.0015734 0.30613747
v 0.19655533 1.1975179 0.30613753
v -0.09735855 1.0278274 0.30613753
v 0.09488186 1.0342458 0.5029367
v 0.0006104172 1.0089847 0.5029367
v 0.16388334 1.1032554 0.50293714
v 0.18914418 1.1975179 0.5029367
v -0.09365271 1.0342457 0.5029371
v 0.16388334 1.2917806 0.50293726
v -0.16908069 1.0995498 0.30613792
v -0.16266234 1.1032555 0.5029368
v 0.17030202 1.2954862 0.30613756
v 0.09488101 1.360791 0.5029365
v -0.15426585 1.1973532 0.2454634
v -0.1953269 1.1975179 0.30613828
v -0.1879151 1.1975179 0.5029372
v -0.13415866 1.2750555 0.24660161
v -0.07967772 1.330287 0.2279491
v -0.16908067 1.2954862 0.3061379
v -0.16266228 1.2917806 0.5029367
v 0.0985867 1.367209 0.3061379
v 0.0006104554 1.3860437 0.5029374
v -0.07828462 1.3322877 0.24802342
v -0.097357556 1.3672094 0.30613798
v -0.093651764 1.360791 0.5029367
v 0.0006103292 1.3934555 0.30613813
v 0.00061661936 1.352633 0.24589704
v 0.080248855 1.3303345 0.22780435
v 0.07951223 1.3322126 0.24788412
v 0.13694724 1.2375848 0.22095607
v 0.13530251 1.2749981 0.24641596
v 0.097096376 0.34618863 0.08114117
v 0.09467733 1.1529284 0.08039919
v 0.09469583 1.1529965 -0.09058239
v 0.09708719 0.34621796 -0.08115747
v 0.09710802 0.052063525 0.08732333
v 0.097107984 0.052063465 -0.0873233
v 0.09975787 -0.23423094 -0.08886715
v 0.09975792 -0.23423094 0.08886714
v -0.10330434 -0.23427218 -0.088626474
v -0.10330429 -0.23427218 0.0886265
v 0.0035464466 -0.23433119 0.15149781
v 0.09975787 -0.23423094 -0.08886715
v 0.0035463872 -0.23433119 -0.15149783
v 0.09975792 -0.23423094 0.08886714
v 0.0034671489 0.3461763 -0.13779925
v 0.003964412 1.1530904 -0.150506
v -0.099513195 1.1530095 -0.090277664
v -0.100705266 0.34622058 -0.080865905
v 0.0034846198 0.05198282 -0.14852226
v -0.100720294 0.052060723 -0.08704389
v -0.10330434 -0.23427218 -0.088626474
v 0.0035463872 -0.23433119 -0.15149783
v -0.12248324 1.2251621 -0.21850294
v -0.06410574 1.3161639 -0.2755672
v -0.067193545 1.3157246 -0.22457188
v -0.1152613 1.265572 -0.27635926
v -0.13318631 1.1981592 -0.27627814
v -0.12205437 1.1643848 -0.21858531
v -0.115670465 1.1305547 -0.27631244
v -0.06697778 1.0758551 -0.22522187
v -0.06438573 1.0788183 -0.27606478
v 0.004636963 1.3349345 -0.276275
v -0.067193545 1.3157246 -0.22457188
v 0.068501726 1.3162249 -0.22420125
v 0.073965244 1.3155229 -0.27595022
v 0.0046418873 1.0598832 -0.27688608
v -0.06438573 1.0788183 -0.27606478
v -0.06697778 1.0758551 -0.22522187
v 0.0682957 1.0753663 -0.22488172
v 0.07424852 1.0795059 -0.2764184
v -0.16266234 1.1032555 0.5029368
v -0.1879151 1.1975179 0.5029372
v -0.16266228 1.2917806 0.5029367
v -0.09365271 1.0342457 0.5029371
v -0.093651764 1.360791 0.5029367
v 0.0006104172 1.0089847 0.5029367
v 0.0006104554 1.3860437 0.5029374
v 0.09488186 1.0342458 0.5029367
v 0.09488101 1.360791 0.5029365
v 0.16388334 1.1032554 0.50293714
v 0.16388334 1.2917806 0.50293726
v 0.18914418 1.1975179 0.5029367
v 0.12417277 1.1642908 -0.21701142
v 0.07424852 1.0795059 -0.2764184
v 0.0682957 1.0753663 -0.22488172
v 0.123235434 1.1309611 -0.27529678
v 0.12460253 1.2252609 -0.21690403
v 0.14056316 1.1981467 -0.27516818
v 0.122853406 1.2651649 -0.27536777
v 0.068501726 1.3162249 -0.22420125
v 0.073965244 1.3155229 -0.27595022
v 0.09708719 0.34621796 -0.08115747
v 0.09469583 1.1529965 -0.09058239
v 0.003964412 1.1530904 -0.150506
v 0.0034671489 0.3461763 -0.13779925
v 0.097107984 0.052063465 -0.0873233
v 0.0034846198 0.05198282 -0.14852226
v 0.0035463872 -0.23433119 -0.15149783
v 0.09975787 -0.23423094 -0.08886715
v -0.10072027 0.052060723 0.08704395
v 0.0035464466 -0.23433119 0.15149781
v -0.10330429 -0.23427218 0.0886265
v 0.0034846775 0.05198258 0.14852232
v 0.09975792 -0.23423094 0.08886714
v 0.09710802 0.052063525 0.08732333
v 0.097096376 0.34618863 0.08114117
v 0.0034677307 0.34611538 0.13779998
v 0.09467733 1.1529284 0.08039919
v -0.10071507 0.34618995 0.08084936
v 0.0039632358 1.1529502 0.14028892
v -0.09949332 1.1529384 0.08009489
v -0.100705266 0.34622058 -0.080865905
v -0.099513195 1.1530095 -0.090277664
v -0.09949332 1.1529384 0.08009489
v -0.10071507 0.34618995 0.08084936
v -0.100720294 0.052060723 -0.08704389
v -0.10072027 0.052060723 0.08704395
v -0.10330429 -0.23427218 0.0886265
v -0.10330434 -0.23427218 -0.088626474
v -0.06438573 1.0788183 -0.27606478
v 0.0046418873 1.0598832 -0.27688608
v 0.0045759184 0.9933454 -0.3192298
v 0.07424852 1.0795059 -0.2764184
v -0.09752179 1.0206919 -0.3192541
v 0.10665106 1.0207173 -0.31920832
v -0.115670465 1.1305547 -0.27631244
v 0.123235434 1.1309611 -0.27529678
v -0.17226803 1.0954199 -0.31927574
v 0.18136777 1.0954453 -0.31919628
v -0.13318631 1.1981592 -0.27627814
v -0.19963178 1.1975156 -0.31928813
v -0.17227449 1.2996155 -0.31928745
v -0.1152613 1.265572 -0.27635926
v -0.097527556 1.374351 -0.319274
v -0.06410574 1.3161639 -0.2755672
v 0.14056316 1.1981467 -0.27516818
v 0.20871675 1.1975156 -0.31919613
v 0.1813742 1.29959 -0.31920782
v 0.122853406 1.2651649 -0.27536777
v 0.10665687 1.3743254 -0.31922787
v 0.073965244 1.3155229 -0.27595022
v 0.0045760022 1.4016931 -0.3192519
v 0.004636963 1.3349345 -0.276275
v 0.14516841 1.3056115 0.14327879
v 0.13680655 1.1536853 0.2207002
v 0.13694724 1.2375848 0.22095607
v 0.080248855 1.3303345 0.22780435
v 0.14516842 1.0861869 0.14327878
v 0.100535154 1.0183866 0.14576162
v 0.08001054 1.0615274 0.22913893
v -0.07943655 1.0615783 0.22927916
v 0.10053518 1.3734114 0.14576161
v -0.09991884 1.3734113 0.14576182
v -0.07967772 1.330287 0.2279491
v -0.13634218 1.2375783 0.22120659
v -0.14455189 1.3056109 0.14327939
v -0.13620411 1.1536977 0.22094041
v -0.14455195 1.0861875 0.14327933
v -0.09991888 1.0183868 0.14576179
v -0.14390835 1.0889494 -0.14524996
v -0.09864419 1.0191559 -0.1472411
v 0.099238865 1.0191152 -0.14716683
v 0.1445654 1.0889127 -0.14506227
v 0.0682957 1.0753663 -0.22488172
v -0.06697778 1.0758551 -0.22522187
v -0.12205437 1.1643848 -0.21858531
v 0.12417277 1.1642908 -0.21701142
v -0.12248324 1.2251621 -0.21850294
v 0.1445589 1.3028877 -0.14508359
v 0.12460253 1.2252609 -0.21690403
v -0.14390184 1.302851 -0.14527091
v -0.067193545 1.3157246 -0.22457188
v 0.099228986 1.3726764 -0.14719929
v 0.068501726 1.3162249 -0.22420125
v -0.098634206 1.372636 -0.14727312
v 0.10401016 1.025272 -0.39259318
v 0.0045759184 0.9933454 -0.3192298
v 0.10665106 1.0207173 -0.31920832
v 0.0045671584 0.9986247 -0.3925937
v -0.09752179 1.0206919 -0.3192541
v 0.17681324 1.0980755 -0.39259282
v 0.18136777 1.0954453 -0.31919628
v -0.09488383 1.0252723 -0.39259347
v -0.17226803 1.0954199 -0.31927574
v 0.20345318 1.1975179 -0.39259288
v 0.20871675 1.1975156 -0.31919613
v -0.16767918 1.0980755 -0.3925939
v -0.19963178 1.1975156 -0.31928813
v 0.17681324 1.2969605 -0.39259288
v 0.1813742 1.29959 -0.31920782
v -0.19432619 1.1975179 -0.39259413
v -0.17227449 1.2996155 -0.31928745
v 0.10400991 1.3697641 -0.39259255
v 0.10665687 1.3743254 -0.31922787
v -0.16767918 1.2969605 -0.3925939
v -0.097527556 1.374351 -0.319274
v 0.0045671505 1.3964119 -0.3925923
v 0.0045760022 1.4016931 -0.3192519
v -0.09488354 1.369764 -0.39259282
v 0.12986904 1.2698661 -0.4615159
v 0.07690733 1.3228203 -0.4615162
v 0.0045671314 1.342206 -0.46151608
v -0.067780994 1.3228204 -0.4615159
v -0.12074335 1.2698658 -0.4615155
v -0.14012204 1.1975179 -0.46151587
v 0.14925554 1.1975179 -0.46151587
v -0.120743364 1.1251701 -0.4615155
v 0.129869 1.1251698 -0.4615159
v -0.06778104 1.0722153 -0.4615159
v 0.07690738 1.0722156 -0.46151605
v 0.0045671496 1.0528295 -0.46151605
v -0.04967812 1.1975179 -0.50875306
v -0.042411394 1.1703957 -0.50875306
v -0.042411376 1.2246401 -0.5087531
v -0.022555403 1.2444967 -0.508753
v -0.02255546 1.1505394 -0.508753
v 0.0045670187 1.2517631 -0.50875294
v 0.0045670457 1.1432724 -0.508753
v 0.031681992 1.2444965 -0.508753
v 0.03168203 1.1505398 -0.50875306
v 0.051537536 1.2246404 -0.5087531
v 0.051537573 1.1703953 -0.5087531
v 0.05880394 1.1975179 -0.5087532
vt 0.8464619 0.15663724
vt 0.8464619 0.15663724
vt 0.8464619 0.15663724
vt 0.8464619 0.15663724
vt 0.8464619 0.15663724
vt 0.8464619 0.15663724
vt 0.8464619 0.15663724
vt 0.8464619 0.15663724
vt 0.8464619 0.15663724
vt 0.8464619 0.15663724
vt 0.8464619 0.15663724
vt 0.8464619 0.15663724
vt 0.8464619 0.15663724
vt 0.8464619 0.15663724
vt 0.8464619 0.15663724
vt 0.8464619 0.15663724
vt 0.8464619 0.15663724
vt 0.8464619 0.15663724
vt 0.8464619 0.15663724
vt 0.8464619 0.15663724
vt 0.8464619 0.15663724
vt 0.8464619 0.15663724
vt 0.8464619 0.15663724
vt 0.8464619 0.15663724
vt 0.8464619 0.15663724
vt 0.8464619 0.15663724
vt 0.8464619 0.15663724
vt 0.8464619 0.15663724
vt 0.8464619 0.15663724
vt 0.8464619 0.15663724
vt 0.8464619 0.15663724
vt 0.8464619 0.15663724
vt 0.8464619 0.15663724
vt 0.8464619 0.15663724
vt 0.8464619 0.15663724
vt 0.8464619 0.15663724
vt 0.8464619 0.15663724
vt 0.8464619 0.15663724
vt 0.8464619 0.15663724
vt 0.8464619 0.15663724
vt 0.8464619 0.15663724
vt 0.8464619 0.15663724
vt 0.8464619 0.15663724
vt 0.8464619 0.15663724
vt 0.8464619 0.15663724
vt 0.65783167 0.90456283
vt 0.65783167 0.90456283
vt 0.65783167 0.90456283
vt 0.65783167 0.90456283
vt 0.65783167 0.90456283
vt 0.65783167 0.90456283
vt 0.65783167 0.90456283
vt 0.65783167 0.90456283
vt 0.65783167 0.90456283
vt 0.65783167 0.90456283
vt 0.65783167 0.90456283
vt 0.65783167 0.90456283
vt 0.65783167 0.90456283
vt 0.65783167 0.90456283
vt 0.65783167 0.90456283
vt 0.65783167 0.90456283
vt 0.65783167 0.90456283
vt 0.65783167 0.90456283
vt 0.65783167 0.90456283
vt 0.65783167 0.90456283
vt 0.65783167 0.90456283
vt 0.65783167 0.90456283
vt 0.8464619 0.15663724
vt 0.8464619 0.15663724
vt 0.8464619 0.15663724
vt 0.8464619 0.15663724
vt 0.8464619 0.15663724
vt 0.8464619 0.15663724
vt 0.8464619 0.15663724
vt 0.8464619 0.15663724
vt 0.8464619 0.15663724
vt 0.8464619 0.15663724
vt 0.8464619 0.15663724
vt 0.8464619 0.15663724
vt 0.8464619 0.15663724
vt 0.8464619 0.15663724
vt 0.8464619 0.15663724
vt 0.8464619 0.15663724
vt 0.8464619 0.15663724
vt 0.8464619 0.15663724
vt 0.719829 0.1592754
vt 0.719829 0.1592754
vt 0.719829 0.1592754
vt 0.719829 0.1592754
vt 0.719829 0.1592754
vt 0.719829 0.1592754
vt 0.719829 0.1592754
vt 0.719829 0.1592754
vt 0.719829 0.1592754
vt 0.719829 0.1592754
vt 0.719829 0.1592754
vt 0.719829 0.1592754
vt 0.8464619 0.15663724
vt 0.8464619 0.15663724
vt 0.8464619 0.15663724
vt 0.8464619 0.15663724
vt 0.8464619 0.15663724
vt 0.8464619 0.15663724
vt 0.8464619 0.15663724
vt 0.8464619 0.15663724
vt 0.8464619 0.15663724
vt 0.65783167 0.90456283
vt 0.65783167 0.90456283
vt 0.65783167 0.90456283
vt 0.65783167 0.90456283
vt 0.65783167 0.90456283
vt 0.65783167 0.90456283
vt 0.65783167 0.90456283
vt 0.65783167 0.90456283
vt 0.65783167 0.90456283
vt 0.65783167 0.90456283
vt 0.65783167 0.90456283
vt 0.65783167 0.90456283
vt 0.65783167 0.90456283
vt 0.65783167 0.90456283
vt 0.65783167 0.90456283
vt 0.65783167 0.90456283
vt 0.65783167 0.90456283
vt 0.65783167 0.90456283
vt 0.65783167 0.90456283
vt 0.65783167 0.90456283
vt 0.65783167 0.90456283
vt 0.65783167 0.90456283
vt 0.65783167 0.90456283
vt 0.65783167 0.90456283
vt 0.65783167 0.90456283
vt 0.65783167 0.90456283
vt 0.65783167 0.90456283
vt 0.65783167 0.90456283
vt 0.8464619 0.15663724
vt 0.8464619 0.15663724
vt 0.8464619 0.15663724
vt 0.8464619 0.15663724
vt 0.8464619 0.15663724
vt 0.8464619 0.15663724
vt 0.8464619 0.15663724
vt 0.8464619 0.15663724
vt 0.8464619 0.15663724
vt 0.8464619 0.15663724
vt 0.8464619 0.15663724
vt 0.8464619 0.15663724
vt 0.8464619 0.15663724
vt 0.8464619 0.15663724
vt 0.8464619 0.15663724
vt 0.8464619 0.15663724
vt 0.8464619 0.15663724
vt 0.8464619 0.15663724
vt 0.8464619 0.15663724
vt 0.8464619 0.15663724
vt 0.8464619 0.15663724
vt 0.8464619 0.15663724
vt 0.8464619 0.15663724
vt 0.8464619 0.15663724
vt 0.8464619 0.15663724
vt 0.8464619 0.15663724
vt 0.8464619 0.15663724
vt 0.8464619 0.15663724
vt 0.8464619 0.15663724
vt 0.8464619 0.15663724
vt 0.8464619 0.15663724
vt 0.8464619 0.15663724
vt 0.8464619 0.15663724
vt 0.8464619 0.15663724
vt 0.8464619 0.15663724
vt 0.8464619 0.15663724
vt 0.8464619 0.15663724
vt 0.8464619 0.15663724
vt 0.8464619 0.15663724
vt 0.8464619 0.15663724
vt 0.8464619 0.15663724
vt 0.8464619 0.15663724
vt 0.8464619 0.15663724
vt 0.8464619 0.15663724
vt 0.8464619 0.15663724
vt 0.8464619 0.15663724
vt 0.8464619 0.15663724
vt 0.8464619 0.15663724
vt 0.8464619 0.15663724
vt 0.8464619 0.15663724
vt 0.8464619 0.15663724
vt 0.8464619 0.15663724
vt 0.8464619 0.15663724
vt 0.8464619 0.15663724
vt 0.8464619 0.15663724
vt 0.8464619 0.15663724
vt 0.8464619 0.15663724
vt 0.8464619 0.15663724
vt 0.8464619 0.15663724
vt 0.8464619 0.15663724
vt 0.8464619 0.15663724
vt 0.8464619 0.15663724
vt 0.8464619 0.15663724
vt 0.8464619 0.15663724
vt 0.8464619 0.15663724
vt 0.8464619 0.15663724
vt 0.8464619 0.15663724
vt 0.8464619 0.15663724
vt 0.8464619 0.15663724
vt 0.8464619 0.15663724
vt 0.8464619 0.15663724
vt 0.8464619 0.15663724
vt 0.8464619 0.15663724
vt 0.8464619 0.15663724
vt 0.8464619 0.15663724
vt 0.8464619 0.15663724
vt 0.8464619 0.15663724
vt 0.8464619 0.15663724
vt 0.8464619 0.15663724
vt 0.8464619 0.15663724
vt 0.8464619 0.15663724
vt 0.8464619 0.15663724
vt 0.8464619 0.15663724
vt 0.8464619 0.15663724
vt 0.8464619 0.15663724
vt 0.8464619 0.15663724
vt 0.8464619 0.15663724
vt 0.8464619 0.15663724
vt 0.8464619 0.15663724
vt 0.8464619 0.15663724
vt 0.8464619 0.15663724
vt 0.8464619 0.15663724
vt 0.8464619 0.15663724
vt 0.8464619 0.15663724
vt 0.8464619 0.15663724
vt 0.8464619 0.15663724
vt 0.8464619 0.15663724
vt 0.8464619 0.15663724
vt 0.8464619 0.15663724
vt 0.8464619 0.15663724
vt 0.8464619 0.15663724
vt 0.8464619 0.15663724
vt 0.8464619 0.15663724
vt 0.8464619 0.15663724
vn 0.8822968 0.038565457 -0.4691109
vn 0.87028253 0.34273255 -0.35375527
vn 0.8508756 -0.18096454 -0.49321654
vn 0.7634153 -0.46171233 -0.45168445
vn 0.48194602 -0.83470994 -0.26643428
vn 0.4870479 -0.786591 -0.379551
vn 0.008996956 -0.8399219 -0.5426328
vn -0.42724937 -0.8829388 -0.19462053
vn -0.4932599 -0.7723415 -0.4002291
vn -0.85595065 -0.30735484 -0.4157904
vn -0.69479793 -0.49337846 -0.5232912
vn -0.87729007 0.2249149 -0.42399934
vn 0.83315384 -0.47713307 -0.27964017
vn 0.48193932 -0.83021456 -0.28013983
vn 0.007878467 -0.9600502 -0.2797168
vn 0.9602733 0.009334563 -0.2789048
vn -0.47283992 -0.8356674 -0.27943224
vn 0.41519624 -0.9089203 0.038419317
vn -0.09408574 -0.99482274 0.038413927
vn 0.8141124 -0.5794351 0.038417343
vn 0.9948184 -0.09496154 0.03631239
vn -0.5756795 -0.81677395 0.038387332
vn 0.9075182 0.41825402 0.03839584
vn -0.8270155 -0.4888949 -0.27753752
vn -0.90591246 -0.42172298 0.038372874
vn 0.8279512 0.48568752 -0.28036475
vn 0.57413954 0.81785756 0.038376957
vn -0.8748273 -0.056672648 -0.4811085
vn -0.9609363 -0.015438265 -0.2763387
vn -0.9955324 0.08627559 0.038361862
vn -0.7713274 0.44261786 -0.4573221
vn -0.48634228 0.79459006 -0.3634526
vn -0.8390265 0.46730813 -0.27867118
vn -0.82046163 0.57041407 0.038345724
vn 0.4698682 0.8367374 -0.28123733
vn 0.0870082 0.9954685 0.038366105
vn -0.48491144 0.77214843 -0.4106673
vn -0.49134973 0.82471985 -0.28002256
vn -0.4246659 0.90453744 0.038351297
vn -0.01585673 0.9596863 -0.2806259
vn -0.019930596 0.82357794 -0.5668528
vn 0.41697782 0.85406566 -0.31096828
vn 0.47428796 0.7592061 -0.44570956
vn 0.8666448 0.29251477 -0.4041806
vn 0.6848247 0.47194007 -0.55523676
vn 0.9999999 -0.00051809504 1.4111766E-05
vn 0.9999999 -0.00051790156 3.1949497E-05
vn 0.9999999 -0.0005172771 0.00010556411
vn 0.9999999 -0.000517806 5.4151238E-05
vn 0.99998903 0.004694198 -1.3671007E-05
vn 0.99998903 0.0046941144 -1.3671251E-05
vn 0.9999572 0.0092554325 0
vn 0.9999572 0.0092554325 0
vn 4.5419758E-05 -1 0.00014372585
vn -0 -1 -0.00024200082
vn 0.00030843986 -1 -0.00016902055
vn 0.00023524452 -1 0.00021236051
vn 0.00020481496 -0.99999917 0.0012863597
vn 0.0010422046 -0.9999995 0
vn 0.10763591 0.006188864 -0.9941711
vn 0.31691664 -0.009762947 -0.9484032
vn -0.49710345 -0.016716598 -0.8675302
vn -0.51500094 0.00072594424 -0.8571893
vn -0.12613292 0.018869627 -0.9918338
vn -0.512031 0.009867234 -0.85891026
vn -0.5119305 0.009111086 -0.8589785
vn 0.36572027 0.008385208 -0.930687
vn -0.92212826 0.3687292 0.11712495
vn -0.62637436 0.7659621 0.14476588
vn -0.3925813 0.9121667 0.11760861
vn -0.8305624 0.51944643 0.20085199
vn -0.9945169 -0.03032112 0.100083604
vn -0.96526384 -0.21683276 0.14577118
vn -0.8393198 -0.5366268 0.08702854
vn -0.47186175 -0.8773466 0.08723262
vn -0.48186156 -0.8762394 0.0037292275
vn -0.047488283 0.9830951 0.17683028
vn -0.43356523 0.8858523 0.16518794
vn 0.5739599 0.8017376 0.16669378
vn 0.50778455 0.86030316 0.04509213
vn -0.048414662 -0.99255717 0.11174142
vn -0.48116958 -0.87455136 0.060297996
vn -0.51378244 -0.84627247 0.14089185
vn 0.50614864 -0.8587955 0.079271
vn 0.64042366 -0.76187533 0.096971795
vn -0 0 1
vn 1.770238E-05 0 1
vn -0 0 1
vn -0 0 1
vn -0 0 1
vn -0 0 1
vn -0 0 1
vn -0 0 1
vn -0 0 1
vn -0 0 1
vn -0 0 1
vn 1.8876544E-05 0 1
vn 0.9149425 -0.34747395 0.20528564
vn 0.61380726 -0.774643 0.15221345
vn 0.39862695 -0.9131209 0.08547927
vn 0.8111019 -0.5283605 0.2508963
vn 0.9426922 0.24310827 0.2285385
vn 0.9814968 -0.029470565 0.1891971
vn 0.82624876 0.5265825 0.20005967
vn 0.46546814 0.86500674 0.18735705
vn 0.48201838 0.86912686 0.11080128
vn 0.5174808 0.0010804767 -0.8556941
vn 0.5009977 -0.015910566 -0.86530226
vn 0.19307181 -0.011075365 -0.98112214
vn -0.031233847 0.0063904636 -0.9994917
vn 0.538104 0.009822815 -0.84282124
vn -0.3298189 0.018219879 -0.9438684
vn 0.16576245 0.00979935 -0.98611706
vn 0.54731745 0.009201718 -0.83687437
vn -0.4986168 0.009824187 0.8667668
vn -0.21870932 0.012278525 0.97571284
vn -0.507599 0.009093314 0.86154544
vn 0.25883287 0.022266107 0.9656654
vn 0.5432172 0.009194095 0.8395419
vn 0.54327005 0.009833374 0.8395003
vn 0.54685557 0.0053636213 0.83720976
vn 6.007403E-05 0.011914691 0.9999291
vn 0.5267118 -0.0073350514 0.8500123
vn -0.48115465 0.0050840704 0.876621
vn -0.20452264 -0.0051763365 0.9788481
vn -0.45420706 -0.008005908 0.8908602
vn -0.99999857 -0.0017154975 5.4080658E-05
vn -0.99999857 -0.0017155821 6.825445E-05
vn -0.99999857 -0.0017153582 0
vn -0.99999857 -0.0017157777 1.7366707E-05
vn -0.9999896 0.004567482 -1.4312914E-05
vn -0.9999896 0.004567567 -1.4312634E-05
vn -0.99995935 0.009024207 0
vn -0.99995935 0.009024207 0
vn -0.23175094 -0.48891714 0.8409825
vn -0.0058889627 -0.5403649 0.84141016
vn -0.0072160275 -0.54041094 0.8413703
vn 0.22844844 -0.488701 0.8420111
vn -0.3088968 -0.4482941 0.8388178
vn 0.30200666 -0.44422767 0.84347725
vn -0.4520408 -0.30597463 0.83787745
vn 0.44307077 -0.31007403 0.8411554
vn -0.48999372 -0.23223023 0.8402234
vn 0.48614347 -0.23545024 0.8415626
vn -0.5435562 0.0015623719 0.8393712
vn -0.5435906 0.00011756353 0.83935046
vn -0.49808618 0.22424154 0.83763105
vn -0.4523709 0.30137458 0.83936507
vn -0.31137273 0.44376186 0.84031093
vn -0.23310249 0.4850575 0.84284186
vn 0.54195035 0.0015092557 0.84040916
vn 0.5419876 0.00015660505 0.84038645
vn 0.4881179 0.228135 0.84243417
vn 0.443146 0.3052867 0.84286517
vn 0.30450475 0.43962806 0.8449876
vn 0.22965711 0.4847107 0.8439865
vn -0.0072307945 0.5373848 0.8433062
vn -0.005896149 0.53731596 0.84336036
vn 0.9576297 0.22671942 0.17760552
vn 0.92449063 -0.23896132 0.2970095
vn 0.926922 0.23073372 0.29593503
vn 0.43230787 0.74477357 0.50835246
vn 0.9347796 -0.33143148 0.12782975
vn 0.36162737 -0.87925905 0.310047
vn 0.40465516 -0.7481505 0.5258564
vn -0.404868 -0.7485625 0.5251057
vn 0.56955016 0.7924548 0.21823807
vn -0.38874885 0.86735845 0.3107467
vn -0.41184875 0.74330825 0.527137
vn -0.8857628 0.30298126 0.35160562
vn -0.96548617 0.23792876 0.10595438
vn -0.9596022 -0.15688732 0.2335596
vn -0.9246061 -0.31659612 0.21182658
vn -0.57172835 -0.7920456 0.21398705
vn -0.9543095 -0.24264885 -0.1743984
vn -0.3715173 -0.8398558 -0.39574894
vn 0.57855445 -0.7674762 -0.276143
vn 0.9313017 -0.25660598 -0.2585158
vn 0.38458022 -0.668239 -0.6368317
vn -0.39203423 -0.66646796 -0.634137
vn -0.8074251 -0.27974743 -0.5194286
vn 0.90715367 -0.14592393 -0.39468765
vn -0.905515 0.13297477 -0.4029396
vn 0.94130045 0.26866195 -0.20438722
vn 0.8251024 0.262668 -0.5002116
vn -0.90257776 0.2949039 -0.3136641
vn -0.3641711 0.6546026 -0.66247624
vn 0.36717895 0.8389454 -0.40168422
vn 0.3640151 0.6552807 -0.66189134
vn -0.56690645 0.77265906 -0.28568336
vn 0.45206305 -0.8167235 -0.35861075
vn 0.08642196 -0.99409467 -0.06562964
vn 0.5676286 -0.8206707 -0.065553986
vn -0.015809547 -0.93362784 -0.35789517
vn -0.4244742 -0.9030897 -0.06519598
vn 0.79945195 -0.4793985 -0.3620132
vn 0.9016036 -0.42753375 -0.06577269
vn -0.47642776 -0.8023168 -0.35958913
vn -0.8170144 -0.57290864 -0.06529296
vn 0.9325144 -0.015836766 -0.36078516
vn 0.9940065 0.086837314 -0.06640919
vn -0.81359804 -0.4583682 -0.3577105
vn -0.9933844 -0.094113626 -0.06580324
vn 0.8139512 0.45493546 -0.36127144
vn 0.8181683 0.571141 -0.066322
vn -0.9336586 0.007939418 -0.3580761
vn -0.9059892 0.41814682 -0.06585354
vn 0.47335938 0.8023665 -0.36350894
vn 0.42127177 0.9044966 -0.0664534
vn -0.8051145 0.47044393 -0.36121073
vn -0.576413 0.81448156 -0.06608935
vn 0.008140095 0.93256783 -0.36090308
vn -0.09469413 0.99327433 -0.0666272
vn -0.4612189 0.81094617 -0.36006027
vn 0.5588884 0.3035713 -0.7716788
vn 0.3277557 0.54365087 -0.7726707
vn 0.007932669 0.6377192 -0.770228
vn -0.3107489 0.5575639 -0.7697776
vn -0.5492493 0.32633507 -0.7693053
vn -0.64234316 0.007937987 -0.766376
vn 0.637594 -0.015841672 -0.7702098
vn -0.5629814 -0.30934116 -0.7663941
vn 0.5422797 -0.3347581 -0.7706294
vn -0.33340287 -0.54788333 -0.7672459
vn 0.30222794 -0.56437457 -0.7682054
vn -0.015750991 -0.6422883 -0.76630133
vn -0.35482714 0.031398352 -0.9344045
vn -0.2219777 -0.1031568 -0.96957964
vn -0.23696797 0.15787865 -0.9586034
vn -0.103358075 0.21445131 -0.9712506
vn -0.14269483 -0.19827771 -0.96970314
vn 0.015798954 0.23828879 -0.97106576
vn -0.023608025 -0.24565907 -0.96906877
vn 0.13508937 0.19096443 -0.9722569
vn 0.09535702 -0.22216803 -0.9703342
vn 0.21459657 0.095460154 -0.9720266
vn 0.22927852 -0.16585267 -0.9591269
vn 0.34794873 -0.039399978 -0.9366853
g hammer_Metal_0
f 3/3/3 2/2/2 1/1/1
f 4/4/4 3/3/3 1/1/1
f 3/3/3 4/4/4 5/5/5
f 4/4/4 6/6/6 5/5/5
f 7/7/7 5/5/5 6/6/6
f 8/8/8 5/5/5 7/7/7
f 9/9/9 8/8/8 7/7/7
f 10/10/10 8/8/8 9/9/9
f 11/11/11 10/10/10 9/9/9
f 12/12/12 10/10/10 11/11/11
f 6/6/6 4/4/4 13/13/13
f 6/6/6 14/14/14 7/7/7
f 14/14/14 6/6/6 13/13/13
f 7/7/7 15/15/15 9/9/9
f 14/14/14 15/15/15 7/7/7
f 1/1/1 16/16/16 4/4/4
f 16/16/16 13/13/13 4/4/4
f 9/9/9 17/17/17 11/11/11
f 15/15/15 17/17/17 9/9/9
f 15/15/15 14/14/14 18/18/18
f 19/19/19 15/15/15 18/18/18
f 17/17/17 15/15/15 19/19/19
f 18/18/18 14/14/14 20/20/20
f 14/14/14 13/13/13 20/20/20
f 21/21/21 20/20/20 13/13/13
f 16/16/16 21/21/21 13/13/13
f 22/22/22 17/17/17 19/19/19
f 21/21/21 16/16/16 23/23/23
f 24/24/24 17/17/17 22/22/22
f 17/17/17 24/24/24 11/11/11
f 25/25/25 24/24/24 22/22/22
f 16/16/16 26/26/26 23/23/23
f 23/23/23 26/26/26 27/27/27
f 16/16/16 1/1/1 26/26/26
f 28/28/28 11/11/11 24/24/24
f 28/28/28 12/12/12 11/11/11
f 29/29/29 24/24/24 25/25/25
f 29/29/29 28/28/28 24/24/24
f 30/30/30 29/29/29 25/25/25
f 31/31/31 12/12/12 28/28/28
f 31/31/31 28/28/28 29/29/29
f 32/32/32 12/12/12 31/31/31
f 33/33/33 29/29/29 30/30/30
f 33/33/33 31/31/31 29/29/29
f 34/34/34 33/33/33 30/30/30
f 26/26/26 35/35/35 27/27/27
f 27/27/27 35/35/35 36/36/36
f 37/37/37 32/32/32 31/31/31
f 37/37/37 31/31/31 33/33/33
f 38/38/38 33/33/33 34/34/34
f 38/38/38 37/37/37 33/33/33
f 39/39/39 38/38/38 34/34/34
f 36/36/36 40/40/40 39/39/39
f 40/40/40 38/38/38 39/39/39
f 35/35/35 40/40/40 36/36/36
f 41/41/41 32/32/32 37/37/37
f 41/41/41 37/37/37 38/38/38
f 40/40/40 41/41/41 38/38/38
f 42/42/42 32/32/32 41/41/41
f 43/43/43 41/41/41 40/40/40
f 43/43/43 42/42/42 41/41/41
f 35/35/35 43/43/43 40/40/40
f 44/44/44 42/42/42 43/43/43
f 26/26/26 45/45/45 35/35/35
f 45/45/45 43/43/43 35/35/35
f 45/45/45 44/44/44 43/43/43
f 1/1/1 45/45/45 26/26/26
f 1/1/1 44/44/44 45/45/45
f 48/48/48 47/47/47 46/46/46
f 49/49/49 48/48/48 46/46/46
f 49/49/49 46/46/46 50/50/50
f 51/51/51 49/49/49 50/50/50
f 52/52/52 51/51/51 50/50/50
f 53/53/53 52/52/52 50/50/50
f 56/56/56 55/55/55 54/54/54
f 57/57/57 56/56/56 54/54/54
f 58/58/58 57/57/57 54/54/54
f 56/56/56 57/57/57 59/59/59
f 62/62/62 61/61/61 60/60/60
f 63/63/63 62/62/62 60/60/60
f 63/63/63 60/60/60 64/64/64
f 65/65/65 63/63/63 64/64/64
f 66/66/66 65/65/65 64/64/64
f 67/67/67 66/66/66 64/64/64
f 70/70/70 69/69/69 68/68/68
f 69/69/69 71/71/71 68/68/68
f 72/72/72 68/68/68 71/71/71
f 68/68/68 72/72/72 73/73/73
f 72/72/72 74/74/74 73/73/73
f 73/73/73 74/74/74 75/75/75
f 74/74/74 76/76/76 75/75/75
f 69/69/69 78/78/78 77/77/77
f 78/78/78 79/79/79 77/77/77
f 77/77/77 79/79/79 80/80/80
f 83/83/83 82/82/82 81/81/81
f 84/84/84 83/83/83 81/81/81
f 85/85/85 84/84/84 81/81/81
f 88/88/88 87/87/87 86/86/86
f 86/86/86 89/89/89 88/88/88
f 90/90/90 88/88/88 89/89/89
f 91/91/91 90/90/90 89/89/89
f 92/92/92 90/90/90 91/91/91
f 93/93/93 92/92/92 91/91/91
f 94/94/94 92/92/92 93/93/93
f 95/95/95 94/94/94 93/93/93
f 96/96/96 94/94/94 95/95/95
f 97/97/97 96/96/96 95/95/95
f 100/100/100 99/99/99 98/98/98
f 99/99/99 101/101/101 98/98/98
f 102/102/102 98/98/98 101/101/101
f 103/103/103 102/102/102 101/101/101
f 104/104/104 102/102/102 103/103/103
f 102/102/102 104/104/104 105/105/105
f 104/104/104 106/106/106 105/105/105
f 109/109/109 108/108/108 107/107/107
f 110/110/110 109/109/109 107/107/107
f 107/107/107 111/111/111 110/110/110
f 111/111/111 112/112/112 110/110/110
f 113/113/113 112/112/112 111/111/111
f 114/114/114 113/113/113 111/111/111
f 117/117/117 116/116/116 115/115/115
f 116/116/116 118/118/118 115/115/115
f 116/116/116 119/119/119 118/118/118
f 119/119/119 120/120/120 118/118/118
f 120/120/120 121/121/121 118/118/118
f 115/115/115 118/118/118 122/122/122
f 121/121/121 122/122/122 118/118/118
f 121/121/121 123/123/123 122/122/122
f 124/124/124 115/115/115 122/122/122
f 123/123/123 125/125/125 122/122/122
f 122/122/122 125/125/125 124/124/124
f 125/125/125 126/126/126 124/124/124
f 129/129/129 128/128/128 127/127/127
f 130/130/130 129/129/129 127/127/127
f 130/130/130 127/127/127 131/131/131
f 132/132/132 130/130/130 131/131/131
f 132/132/132 131/131/131 133/133/133
f 131/131/131 134/134/134 133/133/133
f 137/137/137 136/136/136 135/135/135
f 136/136/136 137/137/137 138/138/138
f 139/139/139 137/137/137 135/135/135
f 137/137/137 140/140/140 138/138/138
f 139/139/139 135/135/135 141/141/141
f 138/138/138 140/140/140 142/142/142
f 143/143/143 139/139/139 141/141/141
f 140/140/140 144/144/144 142/142/142
f 143/143/143 141/141/141 145/145/145
f 146/146/146 143/143/143 145/145/145
f 147/147/147 146/146/146 145/145/145
f 148/148/148 147/147/147 145/145/145
f 149/149/149 147/147/147 148/148/148
f 150/150/150 149/149/149 148/148/148
f 142/142/142 144/144/144 151/151/151
f 144/144/144 152/152/152 151/151/151
f 152/152/152 153/153/153 151/151/151
f 153/153/153 154/154/154 151/151/151
f 154/154/154 153/153/153 155/155/155
f 156/156/156 154/154/154 155/155/155
f 157/157/157 149/149/149 150/150/150
f 155/155/155 157/157/157 156/156/156
f 158/158/158 157/157/157 150/150/150
f 157/157/157 158/158/158 156/156/156
f 161/161/161 160/160/160 159/159/159
f 161/161/161 159/159/159 162/162/162
f 160/160/160 163/163/163 159/159/159
f 163/163/163 160/160/160 164/164/164
f 160/160/160 165/165/165 164/164/164
f 164/164/164 165/165/165 166/166/166
f 159/159/159 167/167/167 162/162/162
f 167/167/167 168/168/168 162/162/162
f 168/168/168 169/169/169 162/162/162
f 169/169/169 168/168/168 170/170/170
f 168/168/168 171/171/171 170/170/170
f 170/170/170 171/171/171 172/172/172
f 172/172/172 173/173/173 166/166/166
f 171/171/171 173/173/173 172/172/172
f 173/173/173 174/174/174 166/166/166
f 174/174/174 164/164/164 166/166/166
f 173/173/173 175/175/175 174/174/174
f 173/173/173 171/171/171 175/175/175
f 174/174/174 176/176/176 164/164/164
f 175/175/175 176/176/176 174/174/174
f 176/176/176 177/177/177 164/164/164
f 163/163/163 164/164/164 177/177/177
f 159/159/159 163/163/163 178/178/178
f 178/178/178 163/163/163 177/177/177
f 177/177/177 176/176/176 179/179/179
f 178/178/178 177/177/177 179/179/179
f 176/176/176 180/180/180 179/179/179
f 180/180/180 176/176/176 181/181/181
f 176/176/176 175/175/175 181/181/181
f 182/182/182 178/178/178 179/179/179
f 181/181/181 175/175/175 183/183/183
f 184/184/184 159/159/159 178/178/178
f 178/178/178 182/182/182 184/184/184
f 167/167/167 159/159/159 184/184/184
f 185/185/185 184/184/184 182/182/182
f 186/186/186 183/183/183 175/175/175
f 171/171/171 186/186/186 175/175/175
f 187/187/187 183/183/183 186/186/186
f 188/188/188 167/167/167 184/184/184
f 188/188/188 184/184/184 185/185/185
f 189/189/189 188/188/188 185/185/185
f 188/188/188 189/189/189 187/187/187
f 168/168/168 167/167/167 188/188/188
f 171/171/171 168/168/168 190/190/190
f 186/186/186 171/171/171 190/190/190
f 190/190/190 187/187/187 186/186/186
f 190/190/190 168/168/168 188/188/188
f 190/190/190 188/188/188 187/187/187
f 193/193/193 192/192/192 191/191/191
f 192/192/192 194/194/194 191/191/191
f 192/192/192 195/195/195 194/194/194
f 193/193/193 191/191/191 196/196/196
f 197/197/197 193/193/193 196/196/196
f 195/195/195 198/198/198 194/194/194
f 195/195/195 199/199/199 198/198/198
f 197/197/197 196/196/196 200/200/200
f 201/201/201 197/197/197 200/200/200
f 199/199/199 202/202/202 198/198/198
f 199/199/199 203/203/203 202/202/202
f 201/201/201 200/200/200 204/204/204
f 205/205/205 201/201/201 204/204/204
f 203/203/203 206/206/206 202/202/202
f 203/203/203 207/207/207 206/206/206
f 205/205/205 204/204/204 208/208/208
f 209/209/209 205/205/205 208/208/208
f 207/207/207 210/210/210 206/206/206
f 207/207/207 211/211/211 210/210/210
f 209/209/209 208/208/208 212/212/212
f 213/213/213 209/209/209 212/212/212
f 211/211/211 213/213/213 214/214/214
f 211/211/211 214/214/214 210/210/210
f 213/213/213 212/212/212 214/214/214
f 215/215/215 204/204/204 200/200/200
f 216/216/216 208/208/208 204/204/204
f 215/215/215 216/216/216 204/204/204
f 217/217/217 212/212/212 208/208/208
f 216/216/216 217/217/217 208/208/208
f 218/218/218 214/214/214 212/212/212
f 217/217/217 218/218/218 212/212/212
f 219/219/219 210/210/210 214/214/214
f 218/218/218 219/219/219 214/214/214
f 220/220/220 206/206/206 210/210/210
f 219/219/219 220/220/220 210/210/210
f 221/221/221 215/215/215 200/200/200
f 221/221/221 200/200/200 196/196/196
f 220/220/220 222/222/222 206/206/206
f 222/222/222 202/202/202 206/206/206
f 223/223/223 221/221/221 196/196/196
f 223/223/223 196/196/196 191/191/191
f 222/222/222 224/224/224 202/202/202
f 224/224/224 198/198/198 202/202/202
f 225/225/225 223/223/223 191/191/191
f 191/191/191 194/194/194 225/225/225
f 226/226/226 194/194/194 198/198/198
f 224/224/224 226/226/226 198/198/198
f 194/194/194 226/226/226 225/225/225
f 220/220/220 219/219/219 227/227/227
f 222/222/222 220/220/220 228/228/228
f 220/220/220 227/227/227 228/228/228
f 219/219/219 229/229/229 227/227/227
f 227/227/227 229/229/229 228/228/228
f 219/219/219 218/218/218 229/229/229
f 218/218/218 230/230/230 229/229/229
f 229/229/229 230/230/230 228/228/228
f 218/218/218 217/217/217 230/230/230
f 222/222/222 228/228/228 231/231/231
f 224/224/224 222/222/222 231/231/231
f 228/228/228 230/230/230 231/231/231
f 217/217/217 232/232/232 230/230/230
f 230/230/230 232/232/232 231/231/231
f 217/217/217 216/216/216 232/232/232
f 224/224/224 231/231/231 233/233/233
f 226/226/226 224/224/224 233/233/233
f 231/231/231 232/232/232 233/233/233
f 216/216/216 234/234/234 232/232/232
f 232/232/232 234/234/234 233/233/233
f 216/216/216 215/215/215 234/234/234
f 226/226/226 233/233/233 235/235/235
f 233/233/233 234/234/234 235/235/235
f 225/225/225 226/226/226 235/235/235
f 215/215/215 236/236/236 234/234/234
f 234/234/234 236/236/236 235/235/235
f 215/215/215 221/221/221 236/236/236
f 225/225/225 235/235/235 237/237/237
f 237/237/237 235/235/235 236/236/236
f 223/223/223 225/225/225 237/237/237
f 221/221/221 223/223/223 238/238/238
f 221/221/221 238/238/238 236/236/236
f 236/236/236 238/238/238 237/237/237
f 223/223/223 237/237/237 238/238/238
