g hat_beanieWinter
v -0.77623737 4.1268487 -0.5679803
v -0.8490766 4.179823 -0.59446734
v -0.9682685 4.100362 -0.4818974
v -0.51136684 4.2990146 -0.94542074
v -0.43852746 4.239419 -0.89906836
v -0.001491189 4.3784757 -1.051369
v -0.001491189 4.3056364 -0.99839485
v 0.4355451 4.239419 -0.89906836
v 0.51500624 4.2990146 -0.94542074
v -0.001491189 4.159958 0.07433057
v 0.7798767 4.1268487 -0.5679803
v 0.8527161 4.179823 -0.59446734
v 0.9719078 4.100362 -0.4818974
v -0.76961553 4.080497 -0.46203214
v -0.7365067 4.0209007 -0.08459175
v -0.77623737 3.9149528 0.40541863
v -0.82921135 3.8950872 -0.5017627
v -0.93515956 3.9149528 -0.548115
v -0.87556374 4.100362 -0.5017627
v -1.0411078 3.9348178 -0.52162796
v -1.0742167 3.742787 -0.46865386
v -0.8821856 3.7162995 -0.44878858
v -0.9748901 3.7096777 -0.4951409
v -1.0146207 3.570621 -0.34284043
v -1.1073254 3.6103516 -0.32959688
v -1.1205689 3.5375123 -0.13094401
v -0.9219161 3.5838642 -0.31635338
v -1.0344859 3.4977818 -0.13094401
v -1.1139473 3.5441337 0.087574124
v -0.93515956 3.511025 -0.13094401
v -1.0212425 3.504403 0.087574124
v -1.0874602 3.6302166 0.2398746
v -0.9219161 3.5242686 0.07433057
v -0.9947554 3.597108 0.2663617
v -1.060973 3.7692738 0.3458228
v -0.8888072 3.6037297 0.23325288
v -0.95502484 3.742787 0.38555336
v -1.0013772 3.9546833 0.4252839
v -0.842455 3.7494082 0.3458228
v -0.895429 3.908331 0.46501458
v -0.59082794 3.8553567 0.9748901
v -0.56434095 3.8090043 0.9152943
v -0.001491189 3.7891393 1.0212425
v -0.001491189 3.8288698 1.094082
v 0.59446734 3.8553567 0.9748901
v 0.5679803 3.8090043 0.9152943
v 0.89906836 3.908331 0.46501458
v 0.99839485 3.9546833 0.4252839
v 0.77325493 3.9149528 0.40541863
v 0.74014616 4.0209007 -0.08459175
v 0.77325493 4.080497 -0.46203214
v 0.83947253 3.7494082 0.3458228
v 0.95204246 3.742787 0.38555336
v 1.0646124 3.7692738 0.3458228
v 0.8858249 3.6037297 0.23325288
v 0.99177307 3.597108 0.2663617
v 1.0910995 3.6302166 0.2398746
v 0.92555547 3.5242686 0.07433057
v 1.0182601 3.504403 0.087574124
v 1.1175865 3.5441337 0.087574124
v 1.0315037 3.4977818 -0.13094401
v 1.1175865 3.5375123 -0.13094401
v 0.87258136 4.100362 -0.5017627
v 0.93879896 3.9149528 -0.548115
v 1.0381254 3.9348178 -0.52162796
v 1.0712342 3.742787 -0.46865386
v 0.9321772 3.511025 -0.13094401
v 1.0182601 3.570621 -0.34284043
v 1.1109648 3.6103516 -0.32959688
v 0.92555547 3.5838642 -0.31635338
v 0.826229 3.8950872 -0.5017627
v 0.8858249 3.7162995 -0.44878858
v 0.9785296 3.7096777 -0.4951409
v -0.9748901 4.590372 0.041221738
v -0.9152943 4.100362 0.4252839
v -1.0477296 4.2063103 -0.03823936
v -0.8689419 4.31888 -0.5348715
v -0.85569847 4.491046 0.5047451
v -0.8159679 4.6963205 -0.39581448
v -0.5510974 4.404963 0.9152943
v -0.5312321 4.0209007 0.9219161
v -0.5246104 4.4778023 -0.8593378
v -0.5047451 4.828756 -0.74014616
v -0.001491189 4.3122582 1.060973
v -0.001491189 4.014279 1.060973
v 0.5348715 4.0209007 0.9219161
v 0.548115 4.404963 0.9152943
v -0.001491189 4.875108 -0.799742
v -0.001491189 4.5572634 -0.95866424
v 0.9189337 4.100362 0.4252839
v 0.8593378 4.491046 0.5047451
v 0.52824974 4.4778023 -0.8593378
v 0.5017627 4.828756 -0.74014616
v 0.81960726 4.6963205 -0.39581448
v 0.8659596 4.31888 -0.5348715
v 0.9785296 4.590372 0.041221738
v 1.051369 4.2063103 -0.03823936
v -0.001491189 4.7161856 0.93515956
v -0.5510974 4.404963 0.9152943
v -0.43190575 4.742673 0.8159679
v -0.6835327 4.822134 0.5246104
v -0.001491189 4.3122582 1.060973
v -0.85569847 4.491046 0.5047451
v -0.74975026 4.901595 0.14054823
v -0.9748901 4.590372 0.041221738
v -0.6504239 4.9943 -0.2037834
v -0.8159679 4.6963205 -0.39581448
v -0.3921752 5.0605173 -0.44878858
v -0.5047451 4.828756 -0.74014616
v 0.548115 4.404963 0.9152943
v 0.4355451 4.742673 0.8159679
v 0.68717206 4.822134 0.5246104
v 0.8593378 4.491046 0.5047451
v 0.7533896 4.901595 0.14054823
v 0.9785296 4.590372 0.041221738
v 0.64744145 4.9943 -0.2037834
v 0.81960726 4.6963205 -0.39581448
v 0.38919276 5.0605173 -0.44878858
v 0.5017627 4.828756 -0.74014616
v -0.001491189 5.087004 -0.548115
v -0.001491189 4.875108 -0.799742
v -1.1139473 3.5441337 0.087574124
v -1.1867865 3.8156261 -0.091213465
v -1.0874602 3.6302166 0.2398746
v -1.1205689 3.5375123 -0.13094401
v -1.1073254 3.6103516 -0.32959688
v -1.0742167 3.742787 -0.46865386
v -1.060973 3.7692738 0.3458228
v -1.1007036 4.087118 -0.058104634
v -1.0411078 3.9348178 -0.52162796
v -0.9682685 4.100362 -0.4818974
v -1.0013772 3.9546833 0.4252839
v -0.8689419 4.31888 -0.5348715
v -0.8490766 4.179823 -0.59446734
v -1.0477296 4.2063103 -0.03823936
v -0.9152943 4.100362 0.4252839
v -0.5246104 4.4778023 -0.8593378
v -0.51136684 4.2990146 -0.94542074
v -0.5312321 4.0209007 0.9219161
v -0.59082794 3.8553567 0.9748901
v -0.001491189 4.3784757 -1.051369
v -0.001491189 4.5572634 -0.95866424
v -0.001491189 3.8288698 1.094082
v -0.001491189 4.014279 1.060973
v 0.52824974 4.4778023 -0.8593378
v 0.51500624 4.2990146 -0.94542074
v 0.8527161 4.179823 -0.59446734
v 0.5348715 4.0209007 0.9219161
v 0.59446734 3.8553567 0.9748901
v 0.8659596 4.31888 -0.5348715
v 0.99839485 3.9546833 0.4252839
v 0.9719078 4.100362 -0.4818974
v 1.0977212 4.087118 -0.058104634
v 1.051369 4.2063103 -0.03823936
v 0.9189337 4.100362 0.4252839
v 1.0381254 3.9348178 -0.52162796
v 1.1838042 3.8156261 -0.091213465
v 1.0646124 3.7692738 0.3458228
v 1.0712342 3.742787 -0.46865386
v 1.0910995 3.6302166 0.2398746
v 1.1109648 3.6103516 -0.32959688
v 1.1175865 3.5441337 0.087574124
v 1.1175865 3.5375123 -0.13094401
v 0.4355451 4.742673 0.8159679
v -0.001491189 4.7161856 0.93515956
v -0.001491189 4.9479475 0.74312854
v -0.43190575 4.742673 0.8159679
v 0.2964881 4.9611907 0.69015443
v 0.68717206 4.822134 0.5246104
v 0.548115 5.0472736 0.20676577
v 0.7533896 4.901595 0.14054823
v 0.64744145 4.9943 -0.2037834
v 0.28986633 5.1201134 0.4186622
v 0.2964881 5.179709 0.120682955
v -0.2928487 4.9611907 0.69015443
v -0.6835327 4.822134 0.5246104
v -0.001491189 5.1333566 0.44514918
v 0.33621866 5.179709 -0.2567575
v 0.38919276 5.0605173 -0.44878858
v -0.5444757 5.0472736 0.20676577
v -0.74975026 4.901595 0.14054823
v -0.6504239 4.9943 -0.2037834
v -0.2928487 5.1201134 0.4186622
v -0.2928487 5.179709 0.120682955
v -0.001491189 5.2194395 0.1074394
v -0.001491189 5.2061963 -0.27662277
v -0.001491189 5.087004 -0.548115
v -0.3921752 5.0605173 -0.44878858
v -0.33257926 5.179709 -0.2567575
v -0.001491189 4.9611907 0.6040715
v -0.001491189 5.1201134 0.72326326
v 0.10445702 4.9744344 0.61731505
v -0.1074394 4.9744344 0.61731505
v 0.22364873 5.1399784 0.6504239
v 0.2567575 4.987678 0.48487985
v -0.22000933 5.1399784 0.6504239
v -0.25973988 4.987678 0.48487985
v 0.35608393 5.1929526 0.4716363
v 0.33621866 5.067139 0.31271398
v -0.35906637 5.1929526 0.4716363
v -0.3392011 5.067139 0.31271398
v 0.35608393 5.265792 0.25311816
v 0.2567575 5.100248 0.120682955
v -0.35906637 5.265792 0.25311816
v -0.25973988 5.100248 0.120682955
v 0.22364873 5.318766 0.07433057
v 0.10445702 5.1664653 0.008112907
v -0.22000933 5.318766 0.07433057
v -0.1074394 5.1664653 0.008112907
v 0.27000105 5.3320093 0.6040715
v 0.3229751 5.4180923 0.4186622
v 0.15743113 5.504175 0.57096267
v 0.09783518 5.3320093 0.7100197
v 0.27000105 5.4512014 0.22663105
v -0.001491189 5.3320093 0.703398
v 0.15743113 5.570393 0.3458228
v 0.09783518 5.510797 0.12730467
v -0.10081768 5.3320093 0.7100197
v -0.1604135 5.504175 0.57096267
v -0.27298343 5.3320093 0.6040715
v -0.31933582 5.4180923 0.4186622
v -0.27298343 5.4512014 0.22663105
v -0.1604135 5.570393 0.3458228
v -0.001491189 5.48431 0.61731505
v -0.001491189 5.590258 0.478258
v -0.001491189 5.590258 0.4716363
v -0.001491189 5.590258 0.29947042
v -0.001491189 5.517419 0.12730467
v -0.10081768 5.510797 0.12730467
v -0.001491189 5.351875 0.008112907
v -0.001491189 5.345253 0.001491189
v -0.001491189 5.338631 0.001491189
v -0.001491189 5.1466002 0.008112907
vt 0.34268683 0.59272075
vt 0.34268683 0.59272075
vt 0.34268683 0.59272075
vt 0.34268683 0.59272075
vt 0.34268683 0.59272075
vt 0.34268683 0.59272075
vt 0.34268683 0.59272075
vt 0.34268683 0.59272075
vt 0.34268683 0.59272075
vt 0.34268683 0.59272075
vt 0.34268683 0.59272075
vt 0.34268683 0.59272075
vt 0.34268683 0.59272075
vt 0.34268683 0.59272075
vt 0.34268683 0.59272075
vt 0.34268683 0.59272075
vt 0.34268683 0.59272075
vt 0.34268683 0.59272075
vt 0.34268683 0.59272075
vt 0.34268683 0.59272075
vt 0.34268683 0.59272075
vt 0.34268683 0.59272075
vt 0.34268683 0.59272075
vt 0.34268683 0.59272075
vt 0.34268683 0.59272075
vt 0.34268683 0.59272075
vt 0.34268683 0.59272075
vt 0.34268683 0.59272075
vt 0.34268683 0.59272075
vt 0.34268683 0.59272075
vt 0.34268683 0.59272075
vt 0.34268683 0.59272075
vt 0.34268683 0.59272075
vt 0.34268683 0.59272075
vt 0.34268683 0.59272075
vt 0.34268683 0.59272075
vt 0.34268683 0.59272075
vt 0.34268683 0.59272075
vt 0.34268683 0.59272075
vt 0.34268683 0.59272075
vt 0.34268683 0.59272075
vt 0.34268683 0.59272075
vt 0.34268683 0.59272075
vt 0.34268683 0.59272075
vt 0.34268683 0.59272075
vt 0.34268683 0.59272075
vt 0.34268683 0.59272075
vt 0.34268683 0.59272075
vt 0.34268683 0.59272075
vt 0.34268683 0.59272075
vt 0.34268683 0.59272075
vt 0.34268683 0.59272075
vt 0.34268683 0.59272075
vt 0.34268683 0.59272075
vt 0.34268683 0.59272075
vt 0.34268683 0.59272075
vt 0.34268683 0.59272075
vt 0.34268683 0.59272075
vt 0.34268683 0.59272075
vt 0.34268683 0.59272075
vt 0.34268683 0.59272075
vt 0.34268683 0.59272075
vt 0.34268683 0.59272075
vt 0.34268683 0.59272075
vt 0.34268683 0.59272075
vt 0.34268683 0.59272075
vt 0.34268683 0.59272075
vt 0.34268683 0.59272075
vt 0.34268683 0.59272075
vt 0.34268683 0.59272075
vt 0.34268683 0.59272075
vt 0.34268683 0.59272075
vt 0.34268683 0.59272075
vt 0.34268683 0.59272075
vt 0.34268683 0.59272075
vt 0.34268683 0.59272075
vt 0.34268683 0.59272075
vt 0.34268683 0.59272075
vt 0.34268683 0.59272075
vt 0.34268683 0.59272075
vt 0.34268683 0.59272075
vt 0.34268683 0.59272075
vt 0.34268683 0.59272075
vt 0.34268683 0.59272075
vt 0.34268683 0.59272075
vt 0.34268683 0.59272075
vt 0.34268683 0.59272075
vt 0.34268683 0.59272075
vt 0.34268683 0.59272075
vt 0.34268683 0.59272075
vt 0.34268683 0.59272075
vt 0.34268683 0.59272075
vt 0.34268683 0.59272075
vt 0.34268683 0.59272075
vt 0.34268683 0.59272075
vt 0.34268683 0.59272075
vt 0.34268683 0.59272075
vt 0.15773028 0.5944333
vt 0.15773028 0.5944333
vt 0.15773028 0.5944333
vt 0.15773028 0.5944333
vt 0.15773028 0.5944333
vt 0.15773028 0.5944333
vt 0.15773028 0.5944333
vt 0.15773028 0.5944333
vt 0.15773028 0.5944333
vt 0.15773028 0.5944333
vt 0.15773028 0.5944333
vt 0.15773028 0.5944333
vt 0.15773028 0.5944333
vt 0.15773028 0.5944333
vt 0.15773028 0.5944333
vt 0.15773028 0.5944333
vt 0.15773028 0.5944333
vt 0.15773028 0.5944333
vt 0.15773028 0.5944333
vt 0.15773028 0.5944333
vt 0.15773028 0.5944333
vt 0.15773028 0.5944333
vt 0.15773028 0.5944333
vt 0.15773028 0.5944333
vt 0.15773028 0.5944333
vt 0.15773028 0.5944333
vt 0.15773028 0.5944333
vt 0.15773028 0.5944333
vt 0.15773028 0.5944333
vt 0.15773028 0.5944333
vt 0.15773028 0.5944333
vt 0.15773028 0.5944333
vt 0.15773028 0.5944333
vt 0.15773028 0.5944333
vt 0.15773028 0.5944333
vt 0.15773028 0.5944333
vt 0.15773028 0.5944333
vt 0.15773028 0.5944333
vt 0.15773028 0.5944333
vt 0.15773028 0.5944333
vt 0.15773028 0.5944333
vt 0.15773028 0.5944333
vt 0.15773028 0.5944333
vt 0.15773028 0.5944333
vt 0.15773028 0.5944333
vt 0.15773028 0.5944333
vt 0.15773028 0.5944333
vt 0.15773028 0.5944333
vt 0.15773028 0.5944333
vt 0.15773028 0.5944333
vt 0.15773028 0.5944333
vt 0.15773028 0.5944333
vt 0.15773028 0.5944333
vt 0.15773028 0.5944333
vt 0.15773028 0.5944333
vt 0.15773028 0.5944333
vt 0.15773028 0.5944333
vt 0.15773028 0.5944333
vt 0.15773028 0.5944333
vt 0.15773028 0.5944333
vt 0.15773028 0.5944333
vt 0.15773028 0.5944333
vt 0.15773028 0.5944333
vt 0.15773028 0.5944333
vt 0.15773028 0.5944333
vt 0.15773028 0.5944333
vt 0.34268683 0.59272075
vt 0.34268683 0.59272075
vt 0.34268683 0.59272075
vt 0.34268683 0.59272075
vt 0.34268683 0.59272075
vt 0.34268683 0.59272075
vt 0.34268683 0.59272075
vt 0.34268683 0.59272075
vt 0.34268683 0.59272075
vt 0.34268683 0.59272075
vt 0.34268683 0.59272075
vt 0.34268683 0.59272075
vt 0.34268683 0.59272075
vt 0.34268683 0.59272075
vt 0.34268683 0.59272075
vt 0.34268683 0.59272075
vt 0.34268683 0.59272075
vt 0.34268683 0.59272075
vt 0.34268683 0.59272075
vt 0.34268683 0.59272075
vt 0.34268683 0.59272075
vt 0.34268683 0.59272075
vt 0.34268683 0.59272075
vt 0.34268683 0.59272075
vt 0.34268683 0.59272075
vt 0.34268683 0.59272075
vt 0.15773028 0.5944333
vt 0.15773028 0.5944333
vt 0.15773028 0.5944333
vt 0.15773028 0.5944333
vt 0.15773028 0.5944333
vt 0.15773028 0.5944333
vt 0.15773028 0.5944333
vt 0.15773028 0.5944333
vt 0.15773028 0.5944333
vt 0.15773028 0.5944333
vt 0.15773028 0.5944333
vt 0.15773028 0.5944333
vt 0.15773028 0.5944333
vt 0.15773028 0.5944333
vt 0.15773028 0.5944333
vt 0.15773028 0.5944333
vt 0.15773028 0.5944333
vt 0.15773028 0.5944333
vt 0.15773028 0.5944333
vt 0.15773028 0.5944333
vt 0.15773028 0.5944333
vt 0.15773028 0.5944333
vt 0.15773028 0.5944333
vt 0.15773028 0.5944333
vt 0.15773028 0.5944333
vt 0.15773028 0.5944333
vt 0.15773028 0.5944333
vt 0.15773028 0.5944333
vt 0.15773028 0.5944333
vt 0.15773028 0.5944333
vt 0.15773028 0.5944333
vt 0.15773028 0.5944333
vt 0.15773028 0.5944333
vt 0.15773028 0.5944333
vt 0.15773028 0.5944333
vt 0.15773028 0.5944333
vt 0.15773028 0.5944333
vt 0.15773028 0.5944333
vt 0.15773028 0.5944333
vt 0.15773028 0.5944333
vt 0.15773028 0.5944333
vt 0.15773028 0.5944333
vt 0.15773028 0.5944333
vt 0.15773028 0.5944333
vn -0.047554433 -0.87204874 -0.48710325
vn -0.5866322 -0.30126053 -0.7517345
vn -0.6183427 0.4597904 -0.63737357
vn -0.4915009 -0.2061292 -0.84613097
vn -0.047554433 -0.87204874 -0.48710325
vn -0.015844047 0.07926494 -0.99672765
vn 0.047576904 -0.8403383 -0.5399704
vn 0.047576904 -0.87204874 -0.48710105
vn 0.49152327 -0.2061292 -0.846118
vn -0.015844047 -0.96718013 -0.25359726
vn 0.047576904 -0.87204874 -0.48710105
vn 0.58665466 -0.30126053 -0.751717
vn 0.6183651 0.4597904 -0.6373518
vn 0.55494416 -0.65007555 -0.5190749
vn 0.87115014 -0.49101678 -0
vn 0.39639193 -0.90375924 0.16153237
vn 0.74520695 -0.23783964 -0.6229759
vn 0.047576904 -0.047576904 -0.9977339
vn 0.015866458 -0.42810237 -0.9035909
vn -0.7451845 0.20610672 -0.6342082
vn -0.6183427 -0.30126053 -0.7258749
vn 0.6183651 -0.5232338 -0.5863881
vn 0.015866458 -0.5232338 -0.8520415
vn -0.110975444 -0.80862784 -0.57775897
vn -0.776895 -0.49152327 -0.39349595
vn -0.7134741 -0.68178606 -0.16162442
vn 0.58665466 -0.74520695 -0.31702203
vn -0.07910431 -0.99686635 -0
vn -0.7134741 -0.68178606 0.16162442
vn 0.6183651 -0.7769174 -0.1184228
vn -0.14268583 -0.9354697 0.3233222
vn -0.7134741 -0.49152327 0.49935916
vn 0.5232338 -0.8403383 0.1416264
vn -0.07926494 -0.7769174 0.624593
vn -0.8086054 -0.17441869 0.5619035
vn 0.6183651 -0.68178606 0.3908866
vn -0.047554433 -0.49152327 0.86956507
vn -0.7451845 0.047554433 0.6651606
vn 0.65007555 -0.5232338 0.5510247
vn -0.364659 -0.7769174 0.5132477
vn -0.5232113 -0.33297098 0.7844618
vn -0.17439634 -0.96718013 0.18479316
vn -0.015844047 -0.9988906 0.044345643
vn -0.015844047 -0.33297098 0.942804
vn 0.5232338 -0.33297098 0.78444684
vn 0.17441869 -0.96718013 0.1847722
vn 0.36468148 -0.7769174 0.51323175
vn 0.74520695 0.047554433 0.66513544
vn -0.39636952 -0.90375924 0.16158734
vn -0.8711447 -0.4910263 -0
vn -0.5549218 -0.65007555 -0.5190988
vn -0.6500532 -0.5232338 0.5510511
vn 0.047576904 -0.49152327 0.8695639
vn 0.80862784 -0.17441869 0.5618711
vn -0.6183427 -0.68178606 0.39092204
vn 0.07928735 -0.7769174 0.62459016
vn 0.71349645 -0.49152327 0.49932724
vn -0.5232113 -0.8403383 0.14170928
vn 0.14270824 -0.9354697 0.32331225
vn 0.71349645 -0.68178606 0.16152573
vn 0.07912653 -0.99686456 -0
vn 0.71349645 -0.68178606 -0.16152573
vn -0.015844047 -0.42810237 -0.90359133
vn -0.047554433 -0.047576904 -0.99773496
vn 0.74520695 0.20610672 -0.63418186
vn 0.6183651 -0.30126053 -0.7258558
vn -0.6183427 -0.7769174 -0.118539765
vn 0.110997796 -0.80862784 -0.5777547
vn 0.7769174 -0.49152327 -0.39345172
vn -0.5866322 -0.74520695 -0.31706357
vn -0.7451845 -0.23783964 -0.6230027
vn -0.6183427 -0.5232338 -0.5864117
vn -0.015844047 -0.5232338 -0.8520419
vn -0.8720264 0.4597904 0.16781761
vn -0.8720264 0.23781723 0.42780012
vn -0.96329343 0.26845074 -0
vn -0.8403159 0.23781723 -0.48714697
vn -0.8720264 0.23781723 0.42780012
vn -0.8086054 0.4280799 -0.40361488
vn -0.5549218 0.20610672 0.8059664
vn -0.4915009 0.20610672 0.84613645
vn -0.5866322 0.33294863 -0.7382465
vn -0.4280799 0.6183427 -0.6590902
vn 0.26955009 0.17439634 0.9470632
vn 0.17441869 0.14268583 0.9742787
vn 0.49152327 0.20610672 0.84612346
vn 0.55494416 0.20610672 0.805951
vn -0.015844047 0.776895 -0.62943083
vn -0.015844047 0.5866322 -0.80969846
vn 0.87204874 0.23781723 0.42775455
vn 0.87204874 0.23781723 0.42775455
vn 0.58665466 0.33294863 -0.7382287
vn 0.42810237 0.6183427 -0.6590756
vn 0.80862784 0.4280799 -0.40356982
vn 0.8403383 0.23781723 -0.48710835
vn 0.87204874 0.4597904 0.16770142
vn 0.9632951 0.26844496 -0
vn -0.015844047 0.2695276 0.9628623
vn -0.5549218 0.20610672 0.8059664
vn -0.33294863 0.5232113 0.7844712
vn -0.6500532 0.6183427 0.44168216
vn 0.26955009 0.17439634 0.9470632
vn -0.8720264 0.23781723 0.42780012
vn -0.6817636 0.7134741 0.16171935
vn -0.8720264 0.4597904 0.16781761
vn -0.6183427 0.776895 -0.1186865
vn -0.8086054 0.4280799 -0.40361488
vn -0.364659 0.8086054 -0.4617155
vn -0.4280799 0.6183427 -0.6590902
vn 0.55494416 0.20610672 0.805951
vn 0.33297098 0.5232113 0.7844618
vn 0.65007555 0.6183427 0.44164926
vn 0.87204874 0.23781723 0.42775455
vn 0.68178606 0.7134741 0.16162442
vn 0.87204874 0.4597904 0.16770142
vn 0.6183651 0.776895 -0.11856968
vn 0.80862784 0.4280799 -0.40356982
vn 0.36468148 0.8086054 -0.46169776
vn 0.42810237 0.6183427 -0.6590756
vn 0.17441869 0.8403159 -0.5132712
vn -0.015844047 0.776895 -0.62943083
vn -0.7134741 -0.68178606 0.16162442
vn -0.99886817 0.047554433 -0.0009946343
vn -0.7134741 -0.49152327 0.49935916
vn -0.7134741 -0.68178606 -0.16162442
vn -0.776895 -0.49152327 -0.39349595
vn -0.6183427 -0.30126053 -0.7258749
vn -0.8086054 -0.17441869 0.5619035
vn -0.9317103 0.36320224 -0
vn -0.7451845 0.20610672 -0.6342082
vn -0.6183427 0.4597904 -0.63737357
vn -0.7451845 0.047554433 0.6651606
vn -0.8403159 0.23781723 -0.48714697
vn -0.5866322 -0.30126053 -0.7517345
vn -0.96329343 0.26845074 -0
vn -0.8720264 0.23781723 0.42780012
vn -0.5866322 0.33294863 -0.7382465
vn -0.4915009 -0.2061292 -0.84613097
vn -0.4915009 0.20610672 0.84613645
vn -0.5232113 -0.33297098 0.7844618
vn -0.015844047 0.07926494 -0.99672765
vn -0.015844047 0.5866322 -0.80969846
vn -0.015844047 -0.33297098 0.942804
vn 0.17441869 0.14268583 0.9742787
vn 0.58665466 0.33294863 -0.7382287
vn 0.49152327 -0.2061292 -0.846118
vn 0.58665466 -0.30126053 -0.751717
vn 0.49152327 0.20610672 0.84612346
vn 0.5232338 -0.33297098 0.78444684
vn 0.8403383 0.23781723 -0.48710835
vn 0.74520695 0.047554433 0.66513544
vn 0.6183651 0.4597904 -0.6373518
vn 0.9317132 0.3631947 -0
vn 0.9632951 0.26844496 -0
vn 0.87204874 0.23781723 0.42775455
vn 0.74520695 0.20610672 -0.63418186
vn 0.99886864 0.04755339 -0
vn 0.80862784 -0.17441869 0.5618711
vn 0.6183651 -0.30126053 -0.7258558
vn 0.71349645 -0.49152327 0.49932724
vn 0.7769174 -0.49152327 -0.39345172
vn 0.71349645 -0.68178606 0.16152573
vn 0.71349645 -0.68178606 -0.16152573
vn 0.33297098 0.5232113 0.7844618
vn -0.015844047 0.2695276 0.9628623
vn 0.110997796 0.7451845 0.65755576
vn -0.33294863 0.5232113 0.7844712
vn 0.30126053 0.7451845 0.59493035
vn 0.65007555 0.6183427 0.44164926
vn 0.5232338 0.8403159 0.14175911
vn 0.68178606 0.7134741 0.16162442
vn 0.6183651 0.776895 -0.11856968
vn 0.33297098 0.8720264 0.35874826
vn 0.30126053 0.9354473 0.18487959
vn -0.30123812 0.7451845 0.59494174
vn -0.6500532 0.6183427 0.44168216
vn -0.015844047 0.8403159 0.5418654
vn 0.26955009 0.9354473 -0.2286507
vn 0.36468148 0.8086054 -0.46169776
vn -0.5232113 0.8403159 0.14184192
vn -0.6817636 0.7134741 0.16171935
vn -0.6183427 0.776895 -0.1186865
vn -0.33294863 0.8720264 0.35876894
vn -0.30123812 0.9354473 0.18491618
vn -0.015844047 0.96715766 0.2536829
vn 0.14270824 0.96715766 -0.21033406
vn 0.17441869 0.8403159 -0.5132712
vn -0.364659 0.8086054 -0.4617155
vn -0.2695276 0.9354473 -0.22867715
vn -0.015844047 -0.58665466 0.8096822
vn -0.015844047 -0.26955009 0.962856
vn 0.30126053 -0.5232338 0.7971628
vn -0.30123812 -0.5232338 0.7971713
vn 0.58665466 -0.23783964 0.77412444
vn 0.7769174 -0.42810237 0.46165758
vn -0.5866322 -0.23783964 0.7741415
vn -0.776895 -0.42810237 0.46169528
vn 0.9354697 -0.07928735 0.344398
vn 0.96328926 -0.26846573 -0
vn -0.9354473 -0.07928735 0.34445882
vn -0.9632877 -0.2684715 -0
vn 0.9354697 0.07926494 -0.34440315
vn 0.7769174 -0.110997796 -0.61974096
vn -0.9354473 0.07926494 -0.34446397
vn -0.776895 -0.110997796 -0.61976904
vn 0.58665466 0.23781723 -0.7741313
vn 0.30126053 0.015844047 -0.9534102
vn -0.5866322 0.23781723 -0.77414834
vn -0.30123812 0.015844047 -0.9534173
vn 0.71349645 0.2695276 0.6467439
vn 0.8403383 0.4915009 0.22860104
vn 0.39639193 0.7134741 0.57777864
vn 0.23783964 0.2695276 0.93315977
vn 0.71349645 0.5866322 -0.38312593
vn -0.015844047 0.33294863 0.94281185
vn 0.42809987 0.90373147 -0
vn 0.30126053 0.7451845 -0.59493035
vn -0.23781723 0.2695276 0.9331655
vn -0.39636952 0.7134741 0.577794
vn -0.7134741 0.2695276 0.64676857
vn -0.8403159 0.4915009 0.22868328
vn -0.7134741 0.5866322 -0.38316754
vn -0.4280799 0.90373677 -0.0027295751
vn -0.015844047 0.6817636 0.73140097
vn -0.015844047 0.9354473 0.3531109
vn -0.015844047 0.96715766 0.2536829
vn -0.015844047 0.96715766 -0.2536829
vn -0.015844047 0.8086054 -0.588138
vn -0.30123812 0.7451845 -0.59494174
vn -0.015844047 0.4915009 -0.8707329
vn -0.015844047 0.33294863 -0.94281185
vn -0.015844047 0.14268583 -0.9896412
vn -0.015844047 -0.047576904 -0.9987419
g hat_beanieWinter_0
f 3/3/3 2/2/2 1/1/1
f 1/1/1 2/2/2 4/4/4
f 5/5/5 1/1/1 4/4/4
f 5/5/5 4/4/4 6/6/6
f 7/7/7 5/5/5 6/6/6
f 8/8/8 7/7/7 6/6/6
f 9/9/9 8/8/8 6/6/6
f 10/10/10 5/5/5 7/7/7
f 8/8/8 10/10/10 7/7/7
f 5/5/5 10/10/10 1/1/1
f 11/11/11 8/8/8 9/9/9
f 10/10/10 8/8/8 11/11/11
f 12/12/12 11/11/11 9/9/9
f 12/12/12 13/13/13 11/11/11
f 14/14/14 1/1/1 10/10/10
f 15/15/15 14/14/14 10/10/10
f 16/16/16 15/15/15 10/10/10
f 14/14/14 15/15/15 17/17/17
f 14/14/14 17/17/17 18/18/18
f 19/19/19 1/1/1 14/14/14
f 19/19/19 14/14/14 18/18/18
f 19/19/19 3/3/3 1/1/1
f 3/3/3 19/19/19 18/18/18
f 20/20/20 3/3/3 18/18/18
f 21/21/21 20/20/20 18/18/18
f 17/17/17 22/22/22 18/18/18
f 17/17/17 15/15/15 22/22/22
f 23/23/23 21/21/21 18/18/18
f 22/22/22 23/23/23 18/18/18
f 23/23/23 24/24/24 21/21/21
f 23/23/23 22/22/22 24/24/24
f 24/24/24 25/25/25 21/21/21
f 26/26/26 25/25/25 24/24/24
f 22/22/22 27/27/27 24/24/24
f 27/27/27 22/22/22 15/15/15
f 28/28/28 26/26/26 24/24/24
f 24/24/24 27/27/27 28/28/28
f 29/29/29 26/26/26 28/28/28
f 30/30/30 27/27/27 15/15/15
f 27/27/27 30/30/30 28/28/28
f 31/31/31 29/29/29 28/28/28
f 32/32/32 29/29/29 31/31/31
f 28/28/28 30/30/30 33/33/33
f 31/31/31 28/28/28 33/33/33
f 30/30/30 15/15/15 33/33/33
f 34/34/34 32/32/32 31/31/31
f 31/31/31 33/33/33 34/34/34
f 35/35/35 32/32/32 34/34/34
f 33/33/33 15/15/15 36/36/36
f 33/33/33 36/36/36 34/34/34
f 37/37/37 35/35/35 34/34/34
f 34/34/34 36/36/36 37/37/37
f 38/38/38 35/35/35 37/37/37
f 39/39/39 36/36/36 15/15/15
f 36/36/36 39/39/39 37/37/37
f 16/16/16 39/39/39 15/15/15
f 40/40/40 38/38/38 37/37/37
f 37/37/37 39/39/39 40/40/40
f 39/39/39 16/16/16 40/40/40
f 38/38/38 40/40/40 41/41/41
f 40/40/40 16/16/16 42/42/42
f 40/40/40 42/42/42 41/41/41
f 10/10/10 42/42/42 16/16/16
f 41/41/41 42/42/42 43/43/43
f 42/42/42 10/10/10 43/43/43
f 44/44/44 41/41/41 43/43/43
f 45/45/45 44/44/44 43/43/43
f 46/46/46 45/45/45 43/43/43
f 10/10/10 46/46/46 43/43/43
f 46/46/46 47/47/47 45/45/45
f 47/47/47 48/48/48 45/45/45
f 46/46/46 10/10/10 49/49/49
f 49/49/49 47/47/47 46/46/46
f 50/50/50 49/49/49 10/10/10
f 51/51/51 50/50/50 10/10/10
f 52/52/52 49/49/49 50/50/50
f 49/49/49 52/52/52 47/47/47
f 11/11/11 51/51/51 10/10/10
f 48/48/48 47/47/47 53/53/53
f 52/52/52 53/53/53 47/47/47
f 54/54/54 48/48/48 53/53/53
f 52/52/52 55/55/55 53/53/53
f 55/55/55 52/52/52 50/50/50
f 54/54/54 53/53/53 56/56/56
f 55/55/55 56/56/56 53/53/53
f 57/57/57 54/54/54 56/56/56
f 55/55/55 58/58/58 56/56/56
f 50/50/50 58/58/58 55/55/55
f 57/57/57 56/56/56 59/59/59
f 58/58/58 59/59/59 56/56/56
f 60/60/60 57/57/57 59/59/59
f 60/60/60 59/59/59 61/61/61
f 61/61/61 59/59/59 58/58/58
f 62/62/62 60/60/60 61/61/61
f 11/11/11 63/63/63 51/51/51
f 51/51/51 63/63/63 64/64/64
f 13/13/13 63/63/63 11/11/11
f 63/63/63 13/13/13 64/64/64
f 13/13/13 65/65/65 64/64/64
f 65/65/65 66/66/66 64/64/64
f 50/50/50 67/67/67 58/58/58
f 67/67/67 61/61/61 58/58/58
f 62/62/62 61/61/61 68/68/68
f 69/69/69 62/62/62 68/68/68
f 69/69/69 68/68/68 66/66/66
f 67/67/67 70/70/70 61/61/61
f 70/70/70 67/67/67 50/50/50
f 70/70/70 68/68/68 61/61/61
f 50/50/50 51/51/51 71/71/71
f 71/71/71 51/51/51 64/64/64
f 72/72/72 70/70/70 50/50/50
f 50/50/50 71/71/71 72/72/72
f 70/70/70 72/72/72 68/68/68
f 72/72/72 71/71/71 64/64/64
f 68/68/68 73/73/73 66/66/66
f 66/66/66 73/73/73 64/64/64
f 73/73/73 72/72/72 64/64/64
f 72/72/72 73/73/73 68/68/68
f 76/76/76 75/75/75 74/74/74
f 77/77/77 76/76/76 74/74/74
f 75/75/75 78/78/78 74/74/74
f 79/79/79 77/77/77 74/74/74
f 78/78/78 75/75/75 80/80/80
f 75/75/75 81/81/81 80/80/80
f 82/82/82 77/77/77 79/79/79
f 83/83/83 82/82/82 79/79/79
f 80/80/80 81/81/81 84/84/84
f 81/81/81 85/85/85 84/84/84
f 85/85/85 86/86/86 84/84/84
f 86/86/86 87/87/87 84/84/84
f 82/82/82 83/83/83 88/88/88
f 89/89/89 82/82/82 88/88/88
f 86/86/86 90/90/90 87/87/87
f 90/90/90 91/91/91 87/87/87
f 92/92/92 89/89/89 88/88/88
f 93/93/93 92/92/92 88/88/88
f 92/92/92 93/93/93 94/94/94
f 95/95/95 92/92/92 94/94/94
f 91/91/91 90/90/90 96/96/96
f 95/95/95 94/94/94 96/96/96
f 90/90/90 97/97/97 96/96/96
f 97/97/97 95/95/95 96/96/96
f 100/100/100 99/99/99 98/98/98
f 99/99/99 100/100/100 101/101/101
f 99/99/99 102/102/102 98/98/98
f 103/103/103 99/99/99 101/101/101
f 101/101/101 104/104/104 103/103/103
f 104/104/104 105/105/105 103/103/103
f 104/104/104 106/106/106 105/105/105
f 106/106/106 107/107/107 105/105/105
f 106/106/106 108/108/108 107/107/107
f 108/108/108 109/109/109 107/107/107
f 102/102/102 110/110/110 98/98/98
f 110/110/110 111/111/111 98/98/98
f 111/111/111 110/110/110 112/112/112
f 110/110/110 113/113/113 112/112/112
f 114/114/114 112/112/112 113/113/113
f 115/115/115 114/114/114 113/113/113
f 116/116/116 114/114/114 115/115/115
f 117/117/117 116/116/116 115/115/115
f 118/118/118 116/116/116 117/117/117
f 119/119/119 118/118/118 117/117/117
f 109/109/109 108/108/108 120/120/120
f 118/118/118 119/119/119 120/120/120
f 121/121/121 109/109/109 120/120/120
f 119/119/119 121/121/121 120/120/120
f 124/124/124 123/123/123 122/122/122
f 122/122/122 123/123/123 125/125/125
f 125/125/125 123/123/123 126/126/126
f 127/127/127 126/126/126 123/123/123
f 128/128/128 123/123/123 124/124/124
f 123/123/123 128/128/128 129/129/129
f 130/130/130 127/127/127 123/123/123
f 123/123/123 129/129/129 130/130/130
f 129/129/129 131/131/131 130/130/130
f 128/128/128 132/132/132 129/129/129
f 133/133/133 131/131/131 129/129/129
f 131/131/131 133/133/133 134/134/134
f 135/135/135 133/133/133 129/129/129
f 135/135/135 129/129/129 136/136/136
f 129/129/129 132/132/132 136/136/136
f 133/133/133 137/137/137 134/134/134
f 137/137/137 138/138/138 134/134/134
f 136/136/136 132/132/132 139/139/139
f 132/132/132 140/140/140 139/139/139
f 138/138/138 137/137/137 141/141/141
f 137/137/137 142/142/142 141/141/141
f 140/140/140 143/143/143 139/139/139
f 143/143/143 144/144/144 139/139/139
f 142/142/142 145/145/145 141/141/141
f 145/145/145 146/146/146 141/141/141
f 146/146/146 145/145/145 147/147/147
f 144/144/144 143/143/143 148/148/148
f 143/143/143 149/149/149 148/148/148
f 145/145/145 150/150/150 147/147/147
f 149/149/149 151/151/151 148/148/148
f 150/150/150 152/152/152 147/147/147
f 152/152/152 150/150/150 153/153/153
f 150/150/150 154/154/154 153/153/153
f 151/151/151 155/155/155 148/148/148
f 153/153/153 154/154/154 155/155/155
f 151/151/151 153/153/153 155/155/155
f 152/152/152 153/153/153 156/156/156
f 153/153/153 157/157/157 156/156/156
f 151/151/151 158/158/158 153/153/153
f 158/158/158 157/157/157 153/153/153
f 159/159/159 156/156/156 157/157/157
f 157/157/157 158/158/158 160/160/160
f 161/161/161 159/159/159 157/157/157
f 157/157/157 160/160/160 162/162/162
f 157/157/157 163/163/163 161/161/161
f 157/157/157 162/162/162 163/163/163
f 166/166/166 165/165/165 164/164/164
f 165/165/165 166/166/166 167/167/167
f 168/168/168 166/166/166 164/164/164
f 168/168/168 164/164/164 169/169/169
f 169/169/169 170/170/170 168/168/168
f 170/170/170 169/169/169 171/171/171
f 172/172/172 170/170/170 171/171/171
f 170/170/170 173/173/173 168/168/168
f 168/168/168 173/173/173 166/166/166
f 174/174/174 170/170/170 172/172/172
f 170/170/170 174/174/174 173/173/173
f 166/166/166 175/175/175 167/167/167
f 167/167/167 175/175/175 176/176/176
f 173/173/173 177/177/177 166/166/166
f 177/177/177 173/173/173 174/174/174
f 178/178/178 174/174/174 172/172/172
f 178/178/178 172/172/172 179/179/179
f 180/180/180 176/176/176 175/175/175
f 176/176/176 180/180/180 181/181/181
f 180/180/180 182/182/182 181/181/181
f 183/183/183 175/175/175 166/166/166
f 183/183/183 180/180/180 175/175/175
f 177/177/177 183/183/183 166/166/166
f 184/184/184 180/180/180 183/183/183
f 180/180/180 184/184/184 182/182/182
f 183/183/183 177/177/177 184/184/184
f 185/185/185 177/177/177 174/174/174
f 185/185/185 174/174/174 178/178/178
f 177/177/177 185/185/185 184/184/184
f 178/178/178 179/179/179 186/186/186
f 186/186/186 185/185/185 178/178/178
f 179/179/179 187/187/187 186/186/186
f 187/187/187 188/188/188 186/186/186
f 184/184/184 189/189/189 182/182/182
f 184/184/184 185/185/185 189/189/189
f 185/185/185 186/186/186 189/189/189
f 182/182/182 189/189/189 188/188/188
f 188/188/188 189/189/189 186/186/186
f 192/192/192 191/191/191 190/190/190
f 191/191/191 193/193/193 190/190/190
f 194/194/194 191/191/191 192/192/192
f 195/195/195 194/194/194 192/192/192
f 191/191/191 196/196/196 193/193/193
f 196/196/196 197/197/197 193/193/193
f 195/195/195 198/198/198 194/194/194
f 199/199/199 198/198/198 195/195/195
f 200/200/200 197/197/197 196/196/196
f 200/200/200 201/201/201 197/197/197
f 202/202/202 198/198/198 199/199/199
f 203/203/203 202/202/202 199/199/199
f 200/200/200 204/204/204 201/201/201
f 204/204/204 205/205/205 201/201/201
f 203/203/203 206/206/206 202/202/202
f 207/207/207 206/206/206 203/203/203
f 208/208/208 205/205/205 204/204/204
f 208/208/208 209/209/209 205/205/205
f 198/198/198 210/210/210 194/194/194
f 202/202/202 211/211/211 198/198/198
f 211/211/211 210/210/210 198/198/198
f 211/211/211 212/212/212 210/210/210
f 210/210/210 213/213/213 194/194/194
f 210/210/210 212/212/212 213/213/213
f 194/194/194 213/213/213 191/191/191
f 214/214/214 211/211/211 202/202/202
f 206/206/206 214/214/214 202/202/202
f 213/213/213 215/215/215 191/191/191
f 213/213/213 212/212/212 215/215/215
f 214/214/214 216/216/216 211/211/211
f 211/211/211 216/216/216 212/212/212
f 217/217/217 214/214/214 206/206/206
f 217/217/217 216/216/216 214/214/214
f 215/215/215 218/218/218 191/191/191
f 219/219/219 218/218/218 215/215/215
f 218/218/218 196/196/196 191/191/191
f 218/218/218 220/220/220 196/196/196
f 219/219/219 220/220/220 218/218/218
f 220/220/220 200/200/200 196/196/196
f 220/220/220 221/221/221 200/200/200
f 219/219/219 221/221/221 220/220/220
f 221/221/221 204/204/204 200/200/200
f 221/221/221 222/222/222 204/204/204
f 222/222/222 208/208/208 204/204/204
f 223/223/223 222/222/222 221/221/221
f 223/223/223 221/221/221 219/219/219
f 224/224/224 219/219/219 215/215/215
f 212/212/212 224/224/224 215/215/215
f 225/225/225 219/219/219 224/224/224
f 212/212/212 225/225/225 224/224/224
f 225/225/225 226/226/226 219/219/219
f 226/226/226 225/225/225 212/212/212
f 226/226/226 223/223/223 219/219/219
f 216/216/216 226/226/226 212/212/212
f 227/227/227 226/226/226 216/216/216
f 226/226/226 227/227/227 223/223/223
f 228/228/228 227/227/227 216/216/216
f 227/227/227 228/228/228 223/223/223
f 217/217/217 228/228/228 216/216/216
f 223/223/223 229/229/229 222/222/222
f 228/228/228 229/229/229 223/223/223
f 222/222/222 229/229/229 208/208/208
f 228/228/228 217/217/217 230/230/230
f 229/229/229 228/228/228 230/230/230
f 229/229/229 230/230/230 208/208/208
f 230/230/230 217/217/217 206/206/206
f 230/230/230 231/231/231 208/208/208
f 231/231/231 230/230/230 206/206/206
f 208/208/208 231/231/231 209/209/209
f 231/231/231 206/206/206 207/207/207
f 231/231/231 232/232/232 209/209/209
f 232/232/232 231/231/231 207/207/207
f 232/232/232 233/233/233 209/209/209
f 233/233/233 232/232/232 207/207/207
