g hat_Balaclava
v -0.5538055 4.36447 -0.89523363
v -0.4613136 4.259646 -0.98155934
v 0.0011456013 4.3829684 -1.0370544
v -0.42431688 4.080828 -1.0247222
v 0.0011456013 4.06233 -1.0802174
v -0.4489814 3.8958445 -0.9938916
v 0.0011456013 3.7355256 -1.0370544
v -0.53530717 3.772522 -0.913732
v -0.36882174 3.4518838 -0.8335724
v -0.64629734 3.7540236 -0.80890787
v 0.42044204 4.080828 -1.0247222
v 0.45127267 3.8958445 -0.9938916
v 0.46360493 4.259646 -0.98155934
v 0.53759843 3.772522 -0.913732
v 0.5560968 4.36447 -0.89523363
v 0.36494696 3.4518838 -0.8335724
v 0.64242256 3.7540236 -0.80890787
v 0.0011456013 3.4518838 -0.90756583
v 0.0011456013 3.2422357 -0.7102499
v -0.67096186 3.4457178 -0.63009024
v -0.2886622 3.2360692 -0.65475476
v -0.9916003 3.7355256 -0.38961142
v -0.7387892 3.858848 -0.716416
v -1.0347631 4.06233 -0.40810984
v -1.0779259 3.7355256 -0.0011456013
v -0.7757859 4.0376654 -0.6794193
v -0.7511215 4.222649 -0.7040838
v -0.8682778 3.4333854 -0.33411634
v -0.52297485 3.2237372 -0.48826945
v -0.9977665 4.3829684 -0.38961142
v -0.66479576 4.3459716 -0.7904095
v -0.6894603 4.6666102 -0.64858866
v -0.37498796 4.6666102 -0.85207075
v -0.20850253 3.0880823 -0.46360493
v 0.0011456013 3.1004148 -0.5067678
v -0.37498796 3.0757504 -0.3464486
v -0.67712796 3.2052388 -0.25395674
v -0.48597813 3.069584 -0.17996323
v -0.52914107 3.069584 -0.0011456013
v 0.29095346 3.2360692 -0.65475476
v 0.21079385 3.0880823 -0.46360493
v -0.93610525 3.4272194 -0.0011456013
v -0.7326231 3.2052388 -0.0011456013
v -0.67712796 3.2052388 0.25783157
v -0.48597813 3.069584 0.18383813
v -0.37498796 3.0757504 0.34415734
v 0.5252662 3.2237372 -0.48826945
v 0.37727922 3.0757504 -0.3464486
v 0.667087 3.4457178 -0.63009024
v -0.8682778 3.4333854 0.33799112
v -0.52297485 3.2237372 0.48597813
v -0.20850253 3.0880823 0.4613136
v 0.6794193 3.2052388 -0.25395674
v 0.48826945 3.069584 -0.17996323
v 0.5314323 3.069584 -0.0011456013
v 0.864403 3.4333854 -0.33411634
v 0.9938916 3.7355256 -0.38961142
v 1.0740511 3.7355256 -0.0011456013
v 1.0370544 4.06233 -0.40810984
v 0.7349144 3.858848 -0.716416
v 0.77807724 4.0376654 -0.6794193
v 0.7472466 4.222649 -0.7040838
v 0.93839645 3.4272194 -0.0011456013
v 0.7349144 3.2052388 -0.0011456013
v 0.6794193 3.2052388 0.25783157
v 0.48826945 3.069584 0.18383813
v 0.37727922 3.0757504 0.34415734
v 0.864403 3.4333854 0.33799112
v 0.5252662 3.2237372 0.48597813
v 0.21079385 3.0880823 0.4613136
v 0.29095346 3.2360692 0.65246344
v 0.0011456013 3.1004148 0.50447655
v 0.667087 3.4457178 0.63396513
v 0.9938916 3.7355256 0.38732016
v 0.0011456013 3.2422357 0.7079586
v 0.36494696 3.4518838 0.83128107
v -0.2886622 3.2360692 0.65246344
v -0.67096186 3.4457178 0.63396513
v -0.36882174 3.4518838 0.83128107
v 0.0011456013 3.4518838 0.9052746
v 0.0011456013 3.7355256 1.0347631
v 0.42044204 3.7355256 0.9546037
v 0.0011456013 4.06233 1.0840921
v -0.41815078 3.7355256 0.9546037
v -0.9916003 3.7355256 0.38732016
v 0.76574504 3.7355256 0.726457
v -0.7634537 3.7355256 0.726457
v 0.43894047 4.06233 0.9916003
v 0.7965756 4.06233 0.7572876
v -0.4366492 4.06233 0.9916003
v -0.80045044 4.06233 0.7572876
v -1.0347631 4.06233 0.40581858
v 1.0370544 4.06233 0.40581858
v -1.121089 4.06233 -0.0011456013
v -1.0779259 4.3829684 -0.0011456013
v -0.9977665 4.3829684 0.38732016
v -0.7634537 4.3829684 0.726457
v -0.9669359 4.6666102 -0.0011456013
v 1.1233802 4.06233 -0.0011456013
v 1.0802174 4.3829684 -0.0011456013
v -0.41815078 4.3829684 0.9546037
v -0.8929424 4.6666102 0.35032344
v -0.8929424 4.6666102 -0.3526147
v -0.81894886 4.8762584 -0.0011456013
v -0.6894603 4.6666102 0.65246344
v -0.7572876 4.8762584 -0.29711956
v -0.7572876 4.8762584 0.2948283
v -0.5846361 4.8762584 -0.5499307
v -0.6216328 5.0242453 -0.0011456013
v -0.5723039 5.0242453 -0.22312611
v -0.37498796 4.6666102 0.8559456
v -0.5846361 4.8762584 0.54763937
v -0.5723039 5.0242453 0.22083485
v -0.36265564 5.1167374 -0.0011456013
v 0.0011456013 4.3829684 1.0347631
v 0.42044204 4.3829684 0.9546037
v 0.76574504 4.3829684 0.726457
v 0.9938916 4.3829684 0.38732016
v 0.0011456013 4.6666102 0.92993903
v 0.37727922 4.6666102 0.8559456
v 0.6855854 4.6666102 0.65246344
v 0.89523363 4.6666102 0.35032344
v 0.9692271 4.6666102 -0.0011456013
v -0.31949282 4.8762584 0.7202909
v 0.9938916 4.3829684 -0.38961142
v 0.667087 4.3459716 -0.7904095
v 0.6855854 4.6666102 -0.64858866
v 0.89523363 4.6666102 -0.3526147
v 0.8212401 4.8762584 -0.0011456013
v -0.4428153 5.0242453 0.41815078
v 0.37727922 4.6666102 -0.85207075
v 0.7595789 4.8762584 -0.29711956
v 0.7595789 4.8762584 0.2948283
v -0.33799112 5.1167374 0.12834299
v 0.0011456013 4.6666102 -0.93223035
v 0.5807613 4.8762584 -0.5499307
v 0.61775804 5.0242453 -0.0011456013
v 0.5807613 4.8762584 0.54763937
v -0.31949282 4.8762584 -0.7225821
v 0.32178408 4.8762584 -0.7225821
v 0.57459515 5.0242453 -0.22312611
v 0.57459515 5.0242453 0.22083485
v 0.32178408 4.8762584 0.7202909
v -0.4428153 5.0242453 -0.41427594
v 0.43894047 5.0242453 -0.41427594
v 0.36494696 5.1167374 -0.0011456013
v 0.43894047 5.0242453 0.41815078
v 0.0011456013 4.8762584 0.78811824
v -0.33799112 5.1167374 -0.13063425
v 0.33411634 5.1167374 -0.13063425
v 0.33411634 5.1167374 0.12834299
v 0.24162447 5.0242453 0.54763937
v -0.23933315 5.0242453 0.54763937
v -0.14067519 5.166066 -0.0011456013
v -0.25783157 5.1167374 0.23933315
v 0.0011456013 5.0242453 0.5969684
v 0.26012284 5.1167374 0.23933315
v -0.12834299 5.166066 0.048183322
v 0.0011456013 5.1845646 -0.0011456013
v -0.12834299 5.166066 -0.050474644
v -0.14067519 5.1167374 0.31949282
v -0.097512364 5.166066 0.091346264
v 0.14296651 5.1167374 0.31949282
v -0.25783157 5.1167374 -0.24162447
v -0.054349422 5.166066 0.116010666
v 0.0011456013 5.1167374 0.34415734
v 0.0011456013 5.166066 0.12834299
v 0.056640744 5.166066 0.116010666
v -0.097512364 5.166066 -0.09363747
v 0.09980357 5.166066 0.091346264
v -0.054349422 5.166066 -0.11830199
v 0.13063425 5.166066 0.048183322
v 0.14296651 5.166066 -0.0011456013
v -0.14067519 5.1167374 -0.31561798
v 0.13063425 5.166066 -0.050474644
v 0.26012284 5.1167374 -0.24162447
v -0.23933315 5.0242453 -0.54376453
v 0.0011456013 4.8762584 -0.7904095
v 0.24162447 5.0242453 -0.54376453
v 0.0011456013 5.0242453 -0.5930935
v 0.09980357 5.166066 -0.09363747
v 0.14296651 5.1167374 -0.31561798
v 0.0011456013 5.1167374 -0.3464486
v 0.056640744 5.166066 -0.11830199
v 0.0011456013 5.166066 -0.13063425
vt 0.9054788 0.031775713
vt 0.9054788 0.031775713
vt 0.9054788 0.031775713
vt 0.9054788 0.031775713
vt 0.9054788 0.031775713
vt 0.9054788 0.031775713
vt 0.9054788 0.031775713
vt 0.9054788 0.031775713
vt 0.9054788 0.031775713
vt 0.9054788 0.031775713
vt 0.9054788 0.031775713
vt 0.9054788 0.031775713
vt 0.9054788 0.031775713
vt 0.9054788 0.031775713
vt 0.9054788 0.031775713
vt 0.9054788 0.031775713
vt 0.9054788 0.031775713
vt 0.9054788 0.031775713
vt 0.9054788 0.031775713
vt 0.9054788 0.031775713
vt 0.9054788 0.031775713
vt 0.9054788 0.031775713
vt 0.9054788 0.031775713
vt 0.9054788 0.031775713
vt 0.9054788 0.031775713
vt 0.9054788 0.031775713
vt 0.9054788 0.031775713
vt 0.9054788 0.031775713
vt 0.9054788 0.031775713
vt 0.9054788 0.031775713
vt 0.9054788 0.031775713
vt 0.9054788 0.031775713
vt 0.9054788 0.031775713
vt 0.9054788 0.031775713
vt 0.9054788 0.031775713
vt 0.9054788 0.031775713
vt 0.9054788 0.031775713
vt 0.9054788 0.031775713
vt 0.9054788 0.031775713
vt 0.9054788 0.031775713
vt 0.9054788 0.031775713
vt 0.9054788 0.031775713
vt 0.9054788 0.031775713
vt 0.9054788 0.031775713
vt 0.9054788 0.031775713
vt 0.9054788 0.031775713
vt 0.9054788 0.031775713
vt 0.9054788 0.031775713
vt 0.9054788 0.031775713
vt 0.9054788 0.031775713
vt 0.9054788 0.031775713
vt 0.9054788 0.031775713
vt 0.9054788 0.031775713
vt 0.9054788 0.031775713
vt 0.9054788 0.031775713
vt 0.9054788 0.031775713
vt 0.9054788 0.031775713
vt 0.9054788 0.031775713
vt 0.9054788 0.031775713
vt 0.9054788 0.031775713
vt 0.9054788 0.031775713
vt 0.9054788 0.031775713
vt 0.9054788 0.031775713
vt 0.9054788 0.031775713
vt 0.9054788 0.031775713
vt 0.9054788 0.031775713
vt 0.9054788 0.031775713
vt 0.9054788 0.031775713
vt 0.9054788 0.031775713
vt 0.9054788 0.031775713
vt 0.9054788 0.031775713
vt 0.9054788 0.031775713
vt 0.9054788 0.031775713
vt 0.9054788 0.031775713
vt 0.9054788 0.031775713
vt 0.9054788 0.031775713
vt 0.9054788 0.031775713
vt 0.9054788 0.031775713
vt 0.9054788 0.031775713
vt 0.9054788 0.031775713
vt 0.9054788 0.031775713
vt 0.9054788 0.031775713
vt 0.9054788 0.031775713
vt 0.9054788 0.031775713
vt 0.9054788 0.031775713
vt 0.9054788 0.031775713
vt 0.9054788 0.031775713
vt 0.9054788 0.031775713
vt 0.9054788 0.031775713
vt 0.9054788 0.031775713
vt 0.9054788 0.031775713
vt 0.9054788 0.031775713
vt 0.9054788 0.031775713
vt 0.9054788 0.031775713
vt 0.9054788 0.031775713
vt 0.9054788 0.031775713
vt 0.9054788 0.031775713
vt 0.9054788 0.031775713
vt 0.9054788 0.031775713
vt 0.9054788 0.031775713
vt 0.9054788 0.031775713
vt 0.9054788 0.031775713
vt 0.9054788 0.031775713
vt 0.9054788 0.031775713
vt 0.9054788 0.031775713
vt 0.9054788 0.031775713
vt 0.9054788 0.031775713
vt 0.9054788 0.031775713
vt 0.9054788 0.031775713
vt 0.9054788 0.031775713
vt 0.9054788 0.031775713
vt 0.9054788 0.031775713
vt 0.9054788 0.031775713
vt 0.9054788 0.031775713
vt 0.9054788 0.031775713
vt 0.9054788 0.031775713
vt 0.9054788 0.031775713
vt 0.9054788 0.031775713
vt 0.9054788 0.031775713
vt 0.9054788 0.031775713
vt 0.9054788 0.031775713
vt 0.9054788 0.031775713
vt 0.9054788 0.031775713
vt 0.9054788 0.031775713
vt 0.9054788 0.031775713
vt 0.9054788 0.031775713
vt 0.9054788 0.031775713
vt 0.9054788 0.031775713
vt 0.9054788 0.031775713
vt 0.9054788 0.031775713
vt 0.9054788 0.031775713
vt 0.9054788 0.031775713
vt 0.9054788 0.031775713
vt 0.9054788 0.031775713
vt 0.9054788 0.031775713
vt 0.9054788 0.031775713
vt 0.9054788 0.031775713
vt 0.9054788 0.031775713
vt 0.9054788 0.031775713
vt 0.9054788 0.031775713
vt 0.9054788 0.031775713
vt 0.9054788 0.031775713
vt 0.9054788 0.031775713
vt 0.9054788 0.031775713
vt 0.9054788 0.031775713
vt 0.9054788 0.031775713
vt 0.9054788 0.031775713
vt 0.9054788 0.031775713
vt 0.9054788 0.031775713
vt 0.9054788 0.031775713
vt 0.9054788 0.031775713
vt 0.9054788 0.031775713
vt 0.9054788 0.031775713
vt 0.9054788 0.031775713
vt 0.9054788 0.031775713
vt 0.9054788 0.031775713
vt 0.9054788 0.031775713
vt 0.9054788 0.031775713
vt 0.9054788 0.031775713
vt 0.9054788 0.031775713
vt 0.9054788 0.031775713
vt 0.9054788 0.031775713
vt 0.9054788 0.031775713
vt 0.9054788 0.031775713
vt 0.9054788 0.031775713
vt 0.9054788 0.031775713
vt 0.9054788 0.031775713
vt 0.9054788 0.031775713
vt 0.9054788 0.031775713
vt 0.9054788 0.031775713
vt 0.9054788 0.031775713
vt 0.9054788 0.031775713
vt 0.9054788 0.031775713
vt 0.9054788 0.031775713
vt 0.9054788 0.031775713
vt 0.9054788 0.031775713
vt 0.9054788 0.031775713
vt 0.9054788 0.031775713
vt 0.9054788 0.031775713
vt 0.9054788 0.031775713
vt 0.9054788 0.031775713
vt 0.9054788 0.031775713
vt 0.9054788 0.031775713
vt 0.9054788 0.031775713
vt 0.9054788 0.031775713
vn -0.39677548 0.39677548 -0.8277309
vn -0.20632327 0.3650334 -0.9078443
vn 0.015870988 0.26980734 -0.9627835
vn -0.1428392 0.015871048 -0.98961866
vn 0.015870988 0.015871048 -0.99974805
vn -0.17458117 -0.26980728 -0.94695586
vn 0.015870988 -0.30154932 -0.9533185
vn -0.3650334 -0.39677542 -0.84221125
vn -0.30154932 -0.52374357 -0.79671866
vn -0.6507118 -0.3650334 -0.66582644
vn 0.14283913 0.015871048 -0.98961866
vn 0.17458117 -0.26980728 -0.94695586
vn 0.2063232 0.3650334 -0.9078443
vn 0.3650334 -0.39677542 -0.84221125
vn 0.39677542 0.39677548 -0.8277309
vn 0.30154932 -0.52374357 -0.79671866
vn 0.6507117 -0.3650334 -0.6658265
vn 0.015870988 -0.52374357 -0.8517281
vn 0.015870988 -0.7459378 -0.66582644
vn -0.5872277 -0.52374357 -0.6171356
vn -0.23806524 -0.7459378 -0.6220142
vn -0.87290597 -0.26980728 -0.40649623
vn -0.7459378 -0.1110971 -0.6566842
vn -0.90464807 -0.015870988 -0.42586383
vn -0.96329135 -0.26845822 -0
vn -0.7459378 -0.015870988 -0.66582644
vn -0.7459378 0.07935512 -0.66127115
vn -0.7776799 -0.52374357 -0.3477163
vn -0.46025956 -0.7459378 -0.48139164
vn -0.87290597 0.20632327 -0.4421152
vn -0.68245375 0.26980734 -0.6793091
vn -0.6507118 0.42851746 -0.62685484
vn -0.3332914 0.42851746 -0.8398152
vn -0.20632327 -0.8094219 -0.54978806
vn 0.015870988 -0.8094219 -0.587013
vn -0.3650334 -0.8094219 -0.4599856
vn -0.5872277 -0.7459378 -0.31422985
vn -0.49200153 -0.84116393 -0.22444983
vn -0.5510616 -0.83446467 -0
vn 0.23806524 -0.7459378 -0.6220142
vn 0.2063232 -0.8094219 -0.54978806
vn -0.8344646 -0.55106145 -0
vn -0.6507118 -0.7459378 -0.14195408
vn -0.5872277 -0.7459378 0.31422985
vn -0.49200153 -0.84116393 0.22444983
vn -0.3650334 -0.8094219 0.4599856
vn 0.4602595 -0.7459378 -0.48139164
vn 0.3650334 -0.8094219 -0.4599856
vn 0.58722764 -0.52374357 -0.6171356
vn -0.7776799 -0.5554856 0.29436323
vn -0.46025956 -0.7459378 0.48139164
vn -0.20632327 -0.8094219 0.54978806
vn 0.58722764 -0.7459378 -0.31422994
vn 0.49200153 -0.84116393 -0.22444983
vn 0.5510616 -0.83446467 -0
vn 0.77767986 -0.52374357 -0.3477164
vn 0.87290597 -0.26980728 -0.40649623
vn 0.9632913 -0.26845822 -0
vn 0.904648 -0.015870988 -0.42586398
vn 0.7459378 -0.1110971 -0.6566842
vn 0.7459378 -0.015870988 -0.66582644
vn 0.7459378 0.07935512 -0.66127115
vn 0.83446467 -0.5510616 -0
vn 0.6507117 -0.7459378 -0.14195429
vn 0.58722764 -0.7459378 0.31422994
vn 0.49200153 -0.84116393 0.22444983
vn 0.3650334 -0.8094219 0.4599856
vn 0.77767986 -0.5554856 0.29436335
vn 0.4602595 -0.7459378 0.48139164
vn 0.2063232 -0.8094219 0.54978806
vn 0.23806524 -0.7459378 0.6220142
vn 0.015870988 -0.8094219 0.587013
vn 0.58722764 -0.5554856 0.588727
vn 0.87290597 -0.26980728 0.40649623
vn 0.015870988 -0.7459378 0.66582644
vn 0.30154932 -0.5554856 0.7749218
vn -0.23806524 -0.7459378 0.6220142
vn -0.5872277 -0.5554856 0.58872694
vn -0.30154932 -0.5554856 0.7749218
vn 0.015870988 -0.5554856 0.8313747
vn 0.015870988 -0.26980728 0.9627835
vn 0.3650334 -0.26980728 0.8910413
vn 0.015870988 -0.015870988 0.99974805
vn -0.3650334 -0.26980728 0.8910413
vn -0.87290597 -0.26980728 0.40649623
vn 0.68245375 -0.26980728 0.6793091
vn -0.68245375 -0.26980728 0.6793091
vn 0.3650334 -0.015870988 0.93085915
vn 0.7141958 -0.015870988 0.69976604
vn -0.3650334 -0.015870988 0.93085915
vn -0.71419585 -0.015870988 0.699766
vn -0.90464807 -0.015870988 0.42586383
vn 0.904648 -0.015870988 0.42586398
vn -0.9998741 -0.015870988 -0
vn -0.96813214 0.23806524 -0.077750355
vn -0.90464807 0.23806524 0.35346404
vn -0.68245375 0.23806524 0.69107294
vn -0.87290597 0.46025956 -0.16185267
vn 0.9998741 -0.015870988 -0
vn 0.9681321 0.23806524 -0.07775112
vn -0.3650334 0.23806524 0.90004194
vn -0.8094219 0.46025956 0.36468798
vn -0.8094219 0.42851746 -0.40150836
vn -0.71419585 0.68245375 -0.15550302
vn -0.6189697 0.46025956 0.63642573
vn -0.68245375 0.68245375 -0.26175132
vn -0.68245375 0.68245375 0.26175132
vn -0.5237436 0.68245375 -0.5098524
vn -0.49101302 0.87115216 -0
vn -0.42851746 0.87290597 -0.233255
vn -0.3332914 0.46025956 0.8228475
vn -0.5237436 0.68245375 0.5098524
vn -0.42851746 0.87290597 0.233255
vn -0.26845828 0.96329135 -0
vn 0.015870988 0.23806524 0.97111946
vn 0.3650334 0.23806524 0.90004194
vn 0.68245375 0.23806524 0.69107294
vn 0.904648 0.23806524 0.35346422
vn 0.015870988 0.46025956 0.88764256
vn 0.33329135 0.46025956 0.8228475
vn 0.6189697 0.46025956 0.63642573
vn 0.8094219 0.46025956 0.36468798
vn 0.87290597 0.46025956 -0.16185267
vn -0.26980734 0.68245375 0.6793091
vn 0.87290597 0.20632327 -0.4421152
vn 0.68245375 0.26980734 -0.6793091
vn 0.6507117 0.42851746 -0.6268549
vn 0.8094219 0.42851746 -0.40150836
vn 0.7141958 0.68245375 -0.1555032
vn -0.3332914 0.87290597 0.35630324
vn 0.33329135 0.42851746 -0.8398152
vn 0.68245375 0.68245375 -0.26175132
vn 0.68245375 0.68245375 0.26175132
vn -0.26845828 0.96329135 -0
vn 0.015870988 0.42851746 -0.9033941
vn 0.52374357 0.68245375 -0.5098524
vn 0.49101302 0.87115216 -0
vn 0.52374357 0.68245375 0.5098524
vn -0.26980734 0.68245375 -0.6793091
vn 0.26980728 0.68245375 -0.6793091
vn 0.42851746 0.87290597 -0.233255
vn 0.42851746 0.87290597 0.233255
vn 0.26980728 0.68245375 0.6793091
vn -0.3332914 0.87290597 -0.35630324
vn 0.33329135 0.87290597 -0.35630324
vn 0.26845822 0.96329135 -0
vn 0.33329135 0.87290597 0.35630324
vn 0.015870988 0.68245375 0.73075646
vn -0.26845828 0.96329135 -0
vn 0.26845822 0.96329135 -0
vn 0.26845822 0.96329135 -0
vn 0.17458117 0.87290597 0.45558375
vn -0.17458117 0.87290597 0.45558375
vn -0.17458117 0.96813214 -0.17955941
vn -0.20632327 0.96813214 0.14195387
vn 0.015870988 0.87290597 0.48763025
vn 0.2063232 0.96813214 0.14195387
vn -0.17458117 0.96813214 0.17955941
vn 0.015870988 0.9998741 -0
vn -0.17458117 0.96813214 -0.17955941
vn -0.1110971 0.96813214 0.22444956
vn -0.1428392 0.96813214 0.20571133
vn 0.1110971 0.96813214 0.22444956
vn -0.20632327 0.96813214 -0.14195387
vn -0.07935512 0.96813214 0.23753515
vn 0.015870988 0.96813214 0.24993657
vn 0.015870988 0.96813214 0.24993657
vn 0.07935506 0.96813214 0.23753515
vn -0.1428392 0.96813214 -0.20571133
vn 0.14283913 0.96813214 0.20571133
vn -0.07935512 0.96813214 -0.23753515
vn 0.17458117 0.96813214 0.17955941
vn 0.17458117 0.96813214 -0.17955941
vn -0.1110971 0.96813214 -0.22444956
vn 0.17458117 0.96813214 -0.17955941
vn 0.2063232 0.96813214 -0.14195387
vn -0.17458117 0.87290597 -0.45558375
vn 0.015870988 0.68245375 -0.73075646
vn 0.17458117 0.87290597 -0.45558375
vn 0.015870988 0.87290597 -0.48763025
vn 0.14283913 0.96813214 -0.20571133
vn 0.1110971 0.96813214 -0.22444956
vn 0.015870988 0.96813214 -0.24993657
vn 0.07935506 0.96813214 -0.23753515
vn 0.015870988 0.96813214 -0.24993657
g hat_Balaclava_0
f 3/3/3 2/2/2 1/1/1
f 4/4/4 2/2/2 3/3/3
f 5/5/5 4/4/4 3/3/3
f 6/6/6 4/4/4 5/5/5
f 7/7/7 6/6/6 5/5/5
f 7/7/7 8/8/8 6/6/6
f 8/8/8 7/7/7 9/9/9
f 10/10/10 8/8/8 9/9/9
f 11/11/11 5/5/5 3/3/3
f 11/11/11 12/12/12 5/5/5
f 12/12/12 7/7/7 5/5/5
f 13/13/13 11/11/11 3/3/3
f 14/14/14 7/7/7 12/12/12
f 13/13/13 3/3/3 15/15/15
f 7/7/7 14/14/14 16/16/16
f 14/14/14 17/17/17 16/16/16
f 7/7/7 18/18/18 9/9/9
f 18/18/18 7/7/7 16/16/16
f 18/18/18 19/19/19 9/9/9
f 19/19/19 18/18/18 16/16/16
f 20/20/20 10/10/10 9/9/9
f 19/19/19 21/21/21 9/9/9
f 9/9/9 21/21/21 20/20/20
f 22/22/22 10/10/10 20/20/20
f 23/23/23 10/10/10 22/22/22
f 22/22/22 24/24/24 23/23/23
f 22/22/22 25/25/25 24/24/24
f 24/24/24 26/26/26 23/23/23
f 27/27/27 26/26/26 24/24/24
f 28/28/28 22/22/22 20/20/20
f 25/25/25 22/22/22 28/28/28
f 21/21/21 29/29/29 20/20/20
f 20/20/20 29/29/29 28/28/28
f 30/30/30 27/27/27 24/24/24
f 27/27/27 30/30/30 31/31/31
f 31/31/31 30/30/30 32/32/32
f 1/1/1 31/31/31 32/32/32
f 33/33/33 1/1/1 32/32/32
f 3/3/3 1/1/1 33/33/33
f 29/29/29 21/21/21 34/34/34
f 34/34/34 21/21/21 35/35/35
f 36/36/36 29/29/29 34/34/34
f 21/21/21 19/19/19 35/35/35
f 37/37/37 29/29/29 36/36/36
f 38/38/38 37/37/37 36/36/36
f 29/29/29 37/37/37 28/28/28
f 38/38/38 39/39/39 37/37/37
f 19/19/19 40/40/40 35/35/35
f 40/40/40 41/41/41 35/35/35
f 40/40/40 19/19/19 16/16/16
f 28/28/28 37/37/37 42/42/42
f 42/42/42 25/25/25 28/28/28
f 39/39/39 43/43/43 37/37/37
f 37/37/37 43/43/43 42/42/42
f 44/44/44 43/43/43 39/39/39
f 43/43/43 44/44/44 42/42/42
f 45/45/45 44/44/44 39/39/39
f 45/45/45 46/46/46 44/44/44
f 40/40/40 47/47/47 41/41/41
f 47/47/47 48/48/48 41/41/41
f 40/40/40 16/16/16 49/49/49
f 47/47/47 40/40/40 49/49/49
f 17/17/17 49/49/49 16/16/16
f 44/44/44 50/50/50 42/42/42
f 42/42/42 50/50/50 25/25/25
f 46/46/46 51/51/51 44/44/44
f 50/50/50 44/44/44 51/51/51
f 46/46/46 52/52/52 51/51/51
f 47/47/47 53/53/53 48/48/48
f 53/53/53 54/54/54 48/48/48
f 55/55/55 54/54/54 53/53/53
f 47/47/47 49/49/49 56/56/56
f 53/53/53 47/47/47 56/56/56
f 17/17/17 57/57/57 49/49/49
f 57/57/57 56/56/56 49/49/49
f 57/57/57 58/58/58 56/56/56
f 58/58/58 57/57/57 59/59/59
f 17/17/17 60/60/60 57/57/57
f 59/59/59 57/57/57 60/60/60
f 61/61/61 59/59/59 60/60/60
f 61/61/61 62/62/62 59/59/59
f 53/53/53 56/56/56 63/63/63
f 58/58/58 63/63/63 56/56/56
f 64/64/64 55/55/55 53/53/53
f 64/64/64 53/53/53 63/63/63
f 64/64/64 65/65/65 55/55/55
f 65/65/65 64/64/64 63/63/63
f 65/65/65 66/66/66 55/55/55
f 67/67/67 66/66/66 65/65/65
f 68/68/68 65/65/65 63/63/63
f 68/68/68 63/63/63 58/58/58
f 69/69/69 67/67/67 65/65/65
f 65/65/65 68/68/68 69/69/69
f 70/70/70 67/67/67 69/69/69
f 71/71/71 70/70/70 69/69/69
f 72/72/72 70/70/70 71/71/71
f 68/68/68 73/73/73 69/69/69
f 71/71/71 69/69/69 73/73/73
f 74/74/74 68/68/68 58/58/58
f 73/73/73 68/68/68 74/74/74
f 75/75/75 72/72/72 71/71/71
f 76/76/76 71/71/71 73/73/73
f 71/71/71 76/76/76 75/75/75
f 72/72/72 75/75/75 77/77/77
f 52/52/52 72/72/72 77/77/77
f 52/52/52 77/77/77 51/51/51
f 51/51/51 77/77/77 78/78/78
f 78/78/78 50/50/50 51/51/51
f 79/79/79 77/77/77 75/75/75
f 77/77/77 79/79/79 78/78/78
f 76/76/76 80/80/80 75/75/75
f 80/80/80 79/79/79 75/75/75
f 81/81/81 80/80/80 76/76/76
f 80/80/80 81/81/81 79/79/79
f 82/82/82 76/76/76 73/73/73
f 82/82/82 81/81/81 76/76/76
f 81/81/81 82/82/82 83/83/83
f 81/81/81 84/84/84 79/79/79
f 79/79/79 84/84/84 78/78/78
f 84/84/84 81/81/81 83/83/83
f 50/50/50 78/78/78 85/85/85
f 50/50/50 85/85/85 25/25/25
f 86/86/86 82/82/82 73/73/73
f 86/86/86 73/73/73 74/74/74
f 84/84/84 87/87/87 78/78/78
f 78/78/78 87/87/87 85/85/85
f 82/82/82 86/86/86 88/88/88
f 82/82/82 88/88/88 83/83/83
f 86/86/86 74/74/74 89/89/89
f 86/86/86 89/89/89 88/88/88
f 87/87/87 84/84/84 90/90/90
f 90/90/90 84/84/84 83/83/83
f 85/85/85 87/87/87 91/91/91
f 91/91/91 87/87/87 90/90/90
f 25/25/25 85/85/85 92/92/92
f 92/92/92 85/85/85 91/91/91
f 74/74/74 93/93/93 89/89/89
f 74/74/74 58/58/58 93/93/93
f 94/94/94 25/25/25 92/92/92
f 25/25/25 94/94/94 24/24/24
f 94/94/94 95/95/95 24/24/24
f 94/94/94 92/92/92 95/95/95
f 95/95/95 30/30/30 24/24/24
f 92/92/92 91/91/91 96/96/96
f 92/92/92 96/96/96 95/95/95
f 91/91/91 90/90/90 97/97/97
f 91/91/91 97/97/97 96/96/96
f 30/30/30 95/95/95 98/98/98
f 95/95/95 96/96/96 98/98/98
f 58/58/58 99/99/99 93/93/93
f 99/99/99 58/58/58 59/59/59
f 93/93/93 99/99/99 100/100/100
f 100/100/100 99/99/99 59/59/59
f 90/90/90 101/101/101 97/97/97
f 90/90/90 83/83/83 101/101/101
f 102/102/102 96/96/96 97/97/97
f 96/96/96 102/102/102 98/98/98
f 103/103/103 30/30/30 98/98/98
f 30/30/30 103/103/103 32/32/32
f 98/98/98 104/104/104 103/103/103
f 98/98/98 102/102/102 104/104/104
f 105/105/105 102/102/102 97/97/97
f 97/97/97 101/101/101 105/105/105
f 103/103/103 106/106/106 32/32/32
f 104/104/104 106/106/106 103/103/103
f 102/102/102 107/107/107 104/104/104
f 102/102/102 105/105/105 107/107/107
f 106/106/106 108/108/108 32/32/32
f 32/32/32 108/108/108 33/33/33
f 106/106/106 104/104/104 109/109/109
f 104/104/104 107/107/107 109/109/109
f 108/108/108 106/106/106 110/110/110
f 110/110/110 106/106/106 109/109/109
f 101/101/101 111/111/111 105/105/105
f 105/105/105 112/112/112 107/107/107
f 105/105/105 111/111/111 112/112/112
f 107/107/107 113/113/113 109/109/109
f 113/113/113 107/107/107 112/112/112
f 109/109/109 114/114/114 110/110/110
f 109/109/109 113/113/113 114/114/114
f 111/111/111 101/101/101 115/115/115
f 83/83/83 115/115/115 101/101/101
f 115/115/115 83/83/83 116/116/116
f 83/83/83 88/88/88 116/116/116
f 116/116/116 88/88/88 117/117/117
f 88/88/88 89/89/89 117/117/117
f 117/117/117 89/89/89 118/118/118
f 89/89/89 93/93/93 118/118/118
f 118/118/118 93/93/93 100/100/100
f 119/119/119 111/111/111 115/115/115
f 116/116/116 120/120/120 115/115/115
f 120/120/120 119/119/119 115/115/115
f 116/116/116 117/117/117 121/121/121
f 120/120/120 116/116/116 121/121/121
f 118/118/118 122/122/122 117/117/117
f 122/122/122 121/121/121 117/117/117
f 118/118/118 100/100/100 123/123/123
f 122/122/122 118/118/118 123/123/123
f 111/111/111 119/119/119 124/124/124
f 111/111/111 124/124/124 112/112/112
f 100/100/100 125/125/125 123/123/123
f 125/125/125 100/100/100 59/59/59
f 62/62/62 125/125/125 59/59/59
f 125/125/125 62/62/62 126/126/126
f 125/125/125 126/126/126 127/127/127
f 126/126/126 15/15/15 127/127/127
f 125/125/125 128/128/128 123/123/123
f 128/128/128 125/125/125 127/127/127
f 122/122/122 123/123/123 129/129/129
f 129/129/129 123/123/123 128/128/128
f 112/112/112 124/124/124 130/130/130
f 130/130/130 113/113/113 112/112/112
f 15/15/15 131/131/131 127/127/127
f 15/15/15 3/3/3 131/131/131
f 132/132/132 128/128/128 127/127/127
f 132/132/132 129/129/129 128/128/128
f 133/133/133 122/122/122 129/129/129
f 121/121/121 122/122/122 133/133/133
f 113/113/113 130/130/130 134/134/134
f 113/113/113 134/134/134 114/114/114
f 3/3/3 135/135/135 131/131/131
f 135/135/135 3/3/3 33/33/33
f 136/136/136 127/127/127 131/131/131
f 136/136/136 132/132/132 127/127/127
f 129/129/129 132/132/132 137/137/137
f 133/133/133 129/129/129 137/137/137
f 138/138/138 121/121/121 133/133/133
f 120/120/120 121/121/121 138/138/138
f 33/33/33 139/139/139 135/135/135
f 108/108/108 139/139/139 33/33/33
f 140/140/140 131/131/131 135/135/135
f 140/140/140 136/136/136 131/131/131
f 132/132/132 136/136/136 141/141/141
f 132/132/132 141/141/141 137/137/137
f 142/142/142 133/133/133 137/137/137
f 133/133/133 142/142/142 138/138/138
f 143/143/143 120/120/120 138/138/138
f 119/119/119 120/120/120 143/143/143
f 139/139/139 108/108/108 144/144/144
f 144/144/144 108/108/108 110/110/110
f 136/136/136 140/140/140 145/145/145
f 136/136/136 145/145/145 141/141/141
f 146/146/146 137/137/137 141/141/141
f 142/142/142 137/137/137 146/146/146
f 142/142/142 147/147/147 138/138/138
f 143/143/143 138/138/138 147/147/147
f 148/148/148 119/119/119 143/143/143
f 119/119/119 148/148/148 124/124/124
f 110/110/110 149/149/149 144/144/144
f 114/114/114 149/149/149 110/110/110
f 150/150/150 141/141/141 145/145/145
f 150/150/150 146/146/146 141/141/141
f 151/151/151 142/142/142 146/146/146
f 147/147/147 142/142/142 151/151/151
f 152/152/152 143/143/143 147/147/147
f 143/143/143 152/152/152 148/148/148
f 153/153/153 124/124/124 148/148/148
f 124/124/124 153/153/153 130/130/130
f 149/149/149 114/114/114 154/154/154
f 114/114/114 134/134/134 154/154/154
f 130/130/130 155/155/155 134/134/134
f 130/130/130 153/153/153 155/155/155
f 156/156/156 153/153/153 148/148/148
f 152/152/152 156/156/156 148/148/148
f 152/152/152 147/147/147 157/157/157
f 157/157/157 147/147/147 151/151/151
f 134/134/134 158/158/158 154/154/154
f 158/158/158 134/134/134 155/155/155
f 154/154/154 158/158/158 159/159/159
f 160/160/160 149/149/149 154/154/154
f 160/160/160 154/154/154 159/159/159
f 153/153/153 161/161/161 155/155/155
f 153/153/153 156/156/156 161/161/161
f 162/162/162 158/158/158 155/155/155
f 159/159/159 158/158/158 162/162/162
f 155/155/155 161/161/161 162/162/162
f 156/156/156 152/152/152 163/163/163
f 163/163/163 152/152/152 157/157/157
f 164/164/164 149/149/149 160/160/160
f 149/149/149 164/164/164 144/144/144
f 161/161/161 165/165/165 162/162/162
f 162/162/162 165/165/165 159/159/159
f 156/156/156 166/166/166 161/161/161
f 165/165/165 161/161/161 166/166/166
f 166/166/166 156/156/156 163/163/163
f 167/167/167 165/165/165 166/166/166
f 165/165/165 167/167/167 159/159/159
f 168/168/168 167/167/167 166/166/166
f 163/163/163 168/168/168 166/166/166
f 167/167/167 168/168/168 159/159/159
f 169/169/169 160/160/160 159/159/159
f 169/169/169 164/164/164 160/160/160
f 168/168/168 170/170/170 159/159/159
f 168/168/168 163/163/163 170/170/170
f 171/171/171 169/169/169 159/159/159
f 163/163/163 157/157/157 170/170/170
f 172/172/172 170/170/170 157/157/157
f 172/172/172 159/159/159 170/170/170
f 151/151/151 172/172/172 157/157/157
f 172/172/172 151/151/151 173/173/173
f 172/172/172 173/173/173 159/159/159
f 151/151/151 146/146/146 173/173/173
f 146/146/146 150/150/150 173/173/173
f 174/174/174 164/164/164 169/169/169
f 171/171/171 174/174/174 169/169/169
f 150/150/150 175/175/175 173/173/173
f 173/173/173 175/175/175 159/159/159
f 150/150/150 176/176/176 175/175/175
f 176/176/176 150/150/150 145/145/145
f 164/164/164 174/174/174 177/177/177
f 144/144/144 164/164/164 177/177/177
f 177/177/177 139/139/139 144/144/144
f 178/178/178 139/139/139 177/177/177
f 139/139/139 178/178/178 135/135/135
f 178/178/178 140/140/140 135/135/135
f 140/140/140 179/179/179 145/145/145
f 140/140/140 178/178/178 179/179/179
f 176/176/176 145/145/145 179/179/179
f 180/180/180 178/178/178 177/177/177
f 177/177/177 174/174/174 180/180/180
f 178/178/178 180/180/180 179/179/179
f 176/176/176 181/181/181 175/175/175
f 175/175/175 181/181/181 159/159/159
f 182/182/182 176/176/176 179/179/179
f 182/182/182 179/179/179 180/180/180
f 176/176/176 182/182/182 181/181/181
f 174/174/174 183/183/183 180/180/180
f 183/183/183 182/182/182 180/180/180
f 183/183/183 174/174/174 171/171/171
f 182/182/182 184/184/184 181/181/181
f 181/181/181 184/184/184 159/159/159
f 182/182/182 183/183/183 184/184/184
f 185/185/185 171/171/171 159/159/159
f 184/184/184 185/185/185 159/159/159
f 183/183/183 185/185/185 184/184/184
f 185/185/185 183/183/183 171/171/171
