g hat_Tophat_UncleSam
v 1.3016539 4.2886763 0.5234326
v 0.018832356 4.5093555 0.07427472
v 1.0297396 4.227771 0.9805343
v 0.42683062 4.603011 0.9353198
v 0.03143596 4.5985427 1.0128815
v 0.046482395 6.224744 1.456282
v 0.47134572 6.229276 1.3711214
v 0.03143596 4.5985427 1.0128815
v -0.36559808 4.628117 0.9409034
v -0.37344664 6.257197 1.3789448
v 0.046482395 6.224744 1.456282
v 0.9166763 4.8448834 -0.19953206
v 0.96754706 4.7748804 0.11945309
v 1.034877 6.4069443 0.51119757
v 0.9855626 6.4810195 0.18980195
v -0.9044271 4.826535 0.13234249
v -0.9359759 6.4690294 0.52653444
v -0.86792004 6.394763 0.8512402
v -0.827136 4.756421 0.4580552
v -0.36559808 4.628117 0.9409034
v -0.63023126 4.682851 0.7372137
v -0.6582821 6.3148656 1.1599692
v -0.37344664 6.257197 1.3789448
v 1.034877 6.4069443 0.51119757
v 0.96754706 4.7748804 0.11945309
v 0.9170024 4.699744 0.43732038
v 0.9858831 6.334465 0.8330023
v 0.7232034 4.6313987 0.7588042
v 0.42683062 4.603011 0.9353198
v 0.47134572 6.229276 1.3711214
v 0.7730173 6.2558894 1.209816
v 0.9170024 4.699744 0.43732038
v 0.7232034 4.6313987 0.7588042
v 0.7730173 6.2558894 1.209816
v 0.9858831 6.334465 0.8330023
v 0.045540463 6.651894 -0.41842842
v 0.03052253 5.0028367 -0.7610966
v 0.42599395 4.973361 -0.6897104
v 0.4704829 6.619195 -0.34019718
v -0.63023126 4.682851 0.7372137
v -0.827136 4.756421 0.4580552
v -0.86792004 6.394763 0.8512402
v -0.6582821 6.3148656 1.1599692
v -0.9044271 4.826535 0.13234249
v -0.8274708 4.9044924 -0.1916626
v -0.8682673 6.5427723 0.20163742
v -0.9359759 6.4690294 0.52653444
v 0.4704829 6.619195 -0.34019718
v 0.42599395 4.973361 -0.6897104
v 0.72254825 4.922537 -0.5186683
v 0.77231586 6.5733857 -0.18362711
v -0.64475083 4.957021 -0.45800197
v -0.36643484 4.9981976 -0.68295753
v -0.37430274 6.6475363 -0.3341848
v -0.67282224 6.602404 -0.094137326
v -0.8274708 4.9044924 -0.1916626
v -0.64475083 4.957021 -0.45800197
v -0.67282224 6.602404 -0.094137326
v -0.8682673 6.5427723 0.20163742
v -0.36643484 4.9981976 -0.68295753
v 0.03052253 5.0028367 -0.7610966
v 0.045540463 6.651894 -0.41842842
v -0.37430274 6.6475363 -0.3341848
v 0.77231586 6.5733857 -0.18362711
v 0.72254825 4.922537 -0.5186683
v 0.9166763 4.8448834 -0.19953206
v 0.9855626 6.4810195 0.18980195
v 1.3149275 4.3642545 0.5218075
v 1.3016539 4.2886763 0.5234326
v 1.0297396 4.227771 0.9805343
v 1.0371077 4.2958136 0.98668563
v 0.0226384 4.589368 0.07748317
v 1.3179117 4.5767217 -0.41266754
v 1.3788221 4.4548144 0.0459364
v 1.3045081 4.492419 -0.4228577
v 1.3706223 4.3750663 0.041592836
v 0.018832356 4.5093555 0.07427472
v -0.62015355 4.874858 -1.1512288
v -0.003306292 4.904008 -1.2529676
v -0.007870145 4.807129 -1.2510737
v -0.62321657 4.778437 -1.1459976
v -1.2431762 4.664818 -0.44106945
v -1.0195042 4.7843018 -0.85864794
v -1.0213186 4.6932573 -0.8621837
v -1.2443063 4.5808864 -0.45433694
v 0.62687576 4.835406 -1.145697
v 1.0386623 4.718285 -0.8686538
v 1.0313405 4.6268034 -0.869864
v 0.6206677 4.739565 -1.1423584
v -1.242652 4.4323883 0.5788733
v -1.3352022 4.543806 0.06785594
v -1.2438 4.3563776 0.5859037
v -1.3363477 4.463835 0.06467907
v -0.5719825 4.3128047 1.316484
v -1.0185459 4.359199 1.0067959
v -1.0204103 4.2903433 1.0046834
v -0.5752346 4.249445 1.3064272
v 0.6018803 4.218034 1.2805952
v 0.020681895 4.2329326 1.4005469
v 0.025393639 4.2958198 1.4074887
v 0.6081084 4.281785 1.2898759
v 0.0226384 4.589368 0.07748317
v 0.052092638 6.4352 0.53221774
v 0.9858831 6.334465 0.8330023
v 0.7730173 6.2558894 1.209816
v 0.47134572 6.229276 1.3711214
v 1.034877 6.4069443 0.51119757
v 0.046482395 6.224744 1.456282
v 0.9855626 6.4810195 0.18980195
v -0.37344664 6.257197 1.3789448
v 0.77231586 6.5733857 -0.18362711
v -0.6582821 6.3148656 1.1599692
v 0.4704829 6.619195 -0.34019718
v -0.86792004 6.394763 0.8512402
v 0.045540463 6.651894 -0.41842842
v -0.9359759 6.4690294 0.52653444
v -0.37430274 6.6475363 -0.3341848
v -0.8682673 6.5427723 0.20163742
v -0.67282224 6.602404 -0.094137326
v -1.2438 4.3563776 0.5859037
v -1.242652 4.4323883 0.5788733
v -1.0185459 4.359199 1.0067959
v 0.0226384 4.589368 0.07748317
v -1.0204103 4.2903433 1.0046834
v 0.018832356 4.5093555 0.07427472
v 1.0371077 4.2958136 0.98668563
v 0.6081084 4.281785 1.2898759
v 0.6018803 4.218034 1.2805952
v 1.0297396 4.227771 0.9805343
v 1.3788221 4.4548144 0.0459364
v 1.3149275 4.3642545 0.5218075
v 1.3706223 4.3750663 0.041592836
v 1.3016539 4.2886763 0.5234326
v -0.003306292 4.904008 -1.2529676
v 0.62687576 4.835406 -1.145697
v -0.007870145 4.807129 -1.2510737
v 0.6206677 4.739565 -1.1423584
v 0.025393639 4.2958198 1.4074887
v -0.5719825 4.3128047 1.316484
v 0.020681895 4.2329326 1.4005469
v -0.5752346 4.249445 1.3064272
v -1.0195042 4.7843018 -0.85864794
v -0.62015355 4.874858 -1.1512288
v -0.62321657 4.778437 -1.1459976
v -1.0213186 4.6932573 -0.8621837
v 1.0386623 4.718285 -0.8686538
v 1.3179117 4.5767217 -0.41266754
v 1.3045081 4.492419 -0.4228577
v 1.0313405 4.6268034 -0.869864
v -1.3352022 4.543806 0.06785594
v -1.2431762 4.664818 -0.44106945
v -1.3363477 4.463835 0.06467907
v -1.2443063 4.5808864 -0.45433694
v 0.03052253 5.0028367 -0.7610966
v 0.44470572 4.74202 -0.8203748
v 0.42599395 4.973361 -0.6897104
v 0.72254825 4.922537 -0.5186683
v 0.022164663 4.7733097 -0.8960488
v 0.7755667 4.6553135 -0.64774096
v -0.4145475 4.737746 -0.82684326
v 0.9166763 4.8448834 -0.19953206
v -0.36643484 4.9981976 -0.68295753
v 0.99175453 4.5696425 -0.2971003
v -0.72203106 4.6928163 -0.58026415
v 0.96754706 4.7748804 0.11945309
v -0.64475083 4.957021 -0.45800197
v 1.049434 4.4918985 0.05462674
v -0.91946167 4.6358643 -0.29249048
v 0.9170024 4.699744 0.43732038
v -0.8274708 4.9044924 -0.1916626
v 0.9921153 4.4094787 0.4053312
v -1.0050172 4.549456 0.06894418
v 0.7232034 4.6313987 0.7588042
v -0.9044271 4.826535 0.13234249
v 0.77630115 4.3346205 0.75868165
v -0.91909146 4.470656 0.43203261
v 0.42683062 4.603011 0.9353198
v -0.827136 4.756421 0.4580552
v 0.44562888 4.337836 0.9522829
v -0.7074578 4.3917217 0.7324056
v 0.03143596 4.5985427 1.0128815
v -0.63023126 4.682851 0.7372137
v 0.023168515 4.333121 1.0345246
v -0.4136329 4.330954 0.9571708
v -0.36559808 4.628117 0.9409034
vt 0.5945837 0.028788714
vt 0.5945837 0.028788716
vt 0.59458363 0.028788716
vt 0.5945837 0.028788716
vt 0.5945837 0.028788716
vt 0.5945837 0.028788716
vt 0.5945837 0.028788716
vt 0.21969922 0.8446293
vt 0.21969922 0.8446293
vt 0.21969922 0.8446293
vt 0.21969922 0.8446293
vt 0.5945837 0.028788716
vt 0.5945837 0.028788716
vt 0.5945837 0.028788716
vt 0.5945837 0.028788716
vt 0.5945837 0.028788716
vt 0.5945837 0.028788716
vt 0.5945837 0.028788716
vt 0.5945837 0.028788716
vt 0.5945837 0.028788716
vt 0.5945837 0.028788716
vt 0.5945837 0.028788716
vt 0.5945837 0.028788716
vt 0.21969922 0.8446293
vt 0.21969922 0.8446293
vt 0.21969922 0.8446293
vt 0.21969922 0.8446293
vt 0.21969922 0.8446293
vt 0.21969922 0.8446293
vt 0.21969922 0.8446293
vt 0.21969922 0.8446293
vt 0.5945837 0.028788716
vt 0.5945837 0.028788716
vt 0.5945837 0.028788716
vt 0.5945837 0.028788716
vt 0.21969922 0.8446293
vt 0.21969922 0.8446293
vt 0.21969922 0.8446293
vt 0.21969922 0.8446293
vt 0.21969922 0.8446293
vt 0.21969922 0.8446293
vt 0.21969922 0.8446293
vt 0.21969922 0.8446293
vt 0.21969922 0.8446293
vt 0.21969922 0.8446293
vt 0.21969922 0.8446293
vt 0.21969922 0.8446293
vt 0.5945837 0.028788716
vt 0.5945837 0.028788716
vt 0.5945837 0.028788716
vt 0.5945837 0.028788716
vt 0.21969922 0.8446293
vt 0.21969922 0.8446293
vt 0.21969922 0.8446293
vt 0.21969922 0.8446293
vt 0.5945837 0.028788716
vt 0.5945837 0.028788716
vt 0.5945837 0.028788716
vt 0.5945837 0.028788716
vt 0.5945837 0.028788716
vt 0.5945837 0.028788716
vt 0.5945837 0.028788716
vt 0.5945837 0.028788716
vt 0.21969922 0.8446293
vt 0.21969922 0.8446293
vt 0.21969922 0.8446293
vt 0.21969922 0.8446293
vt 0.59458375 0.028788716
vt 0.5945837 0.028788714
vt 0.59458363 0.028788716
vt 0.59458375 0.028788716
vt 0.5945838 0.028788723
vt 0.59458375 0.028788716
vt 0.5945837 0.028788716
vt 0.5945837 0.028788716
vt 0.5945837 0.028788716
vt 0.5945837 0.028788716
vt 0.5945837 0.028788716
vt 0.5945837 0.028788716
vt 0.5945837 0.028788716
vt 0.5945837 0.028788716
vt 0.5945837 0.028788716
vt 0.5945837 0.028788716
vt 0.5945837 0.028788716
vt 0.5945837 0.028788716
vt 0.5945837 0.028788716
vt 0.5945837 0.028788716
vt 0.59458363 0.028788716
vt 0.5945837 0.028788716
vt 0.5945837 0.028788716
vt 0.5945837 0.028788716
vt 0.5945837 0.028788716
vt 0.5945837 0.028788716
vt 0.59458363 0.028788714
vt 0.5945837 0.028788716
vt 0.5945837 0.028788716
vt 0.5945837 0.028788714
vt 0.5945837 0.028788716
vt 0.59458363 0.028788712
vt 0.59458363 0.028788714
vt 0.59458375 0.028788717
vt 0.59458375 0.02878872
vt 0.27858913 0.65646887
vt 0.27858913 0.65646887
vt 0.27858913 0.65646887
vt 0.27858913 0.65646887
vt 0.27858913 0.65646887
vt 0.27858913 0.65646887
vt 0.27858913 0.65646887
vt 0.27858913 0.65646887
vt 0.27858913 0.65646887
vt 0.27858913 0.65646887
vt 0.27858913 0.65646887
vt 0.27858913 0.65646887
vt 0.27858913 0.65646887
vt 0.27858913 0.65646887
vt 0.27858913 0.65646887
vt 0.27858913 0.65646887
vt 0.27858913 0.65646887
vt 0.21969922 0.8446293
vt 0.21969922 0.8446293
vt 0.21969922 0.8446293
vt 0.21969922 0.8446293
vt 0.21969922 0.8446293
vt 0.21969922 0.8446293
vt 0.21969922 0.8446293
vt 0.21969922 0.8446293
vt 0.21969922 0.8446293
vt 0.21969922 0.8446293
vt 0.21969922 0.8446293
vt 0.21969922 0.8446293
vt 0.21969922 0.8446293
vt 0.21969922 0.8446293
vt 0.21969922 0.8446293
vt 0.21969922 0.8446293
vt 0.21969922 0.8446293
vt 0.21969922 0.8446293
vt 0.21969922 0.8446293
vt 0.21969922 0.8446293
vt 0.21969922 0.8446293
vt 0.21969922 0.8446293
vt 0.21969922 0.8446293
vt 0.21969922 0.8446293
vt 0.21969922 0.8446293
vt 0.21969922 0.8446293
vt 0.21969922 0.8446293
vt 0.21969922 0.8446293
vt 0.21969922 0.8446293
vt 0.21969922 0.8446293
vt 0.21969922 0.8446293
vt 0.21969922 0.8446293
vt 0.21969922 0.8446293
vt 0.21969922 0.8446293
vt 0.28289813 0.65790516
vt 0.28289813 0.6579052
vt 0.28289813 0.65790516
vt 0.28289813 0.65790516
vt 0.28289813 0.65790516
vt 0.28289813 0.65790516
vt 0.28289813 0.65790516
vt 0.28289813 0.65790516
vt 0.28289813 0.65790516
vt 0.28289813 0.65790516
vt 0.28289813 0.65790516
vt 0.28289813 0.65790516
vt 0.28289813 0.65790516
vt 0.28289813 0.65790516
vt 0.28289813 0.65790516
vt 0.28289813 0.65790516
vt 0.28289813 0.65790516
vt 0.28289813 0.65790516
vt 0.28289813 0.65790516
vt 0.28289813 0.65790516
vt 0.28289813 0.65790516
vt 0.28289813 0.65790516
vt 0.28289813 0.65790516
vt 0.28289813 0.65790516
vt 0.28289813 0.65790516
vt 0.28289813 0.6579052
vt 0.28289813 0.65790516
vt 0.28289813 0.65790516
vt 0.28289813 0.65790516
vt 0.28289813 0.65790516
vt 0.28289813 0.65790516
vt 0.28289813 0.65790516
vn 0.634058 -0.7631238 0.124950044
vn -0.031907383 -0.9769569 -0.21103798
vn 0.48501402 -0.784082 0.38726828
vn 0.3558519 -0.084230945 0.93073875
vn 0.0055117337 -0.08959648 0.9959629
vn 0.020269869 0.46500415 0.8850764
vn 0.28173667 0.4806175 0.83044046
vn 0.0055117337 -0.08959648 0.9959629
vn -0.4090737 -0.059273344 0.91057414
vn -0.30349752 0.47884175 0.8237718
vn 0.020269869 0.46500415 0.8850764
vn 0.93543804 0.19276859 -0.29630366
vn 0.99316037 0.11405525 0.024976509
vn 0.76113665 0.6322901 0.1444995
vn 0.7254748 0.68154335 -0.09583926
vn -0.98645115 0.1599941 0.036276642
vn -0.7435913 0.6515669 0.15010817
vn -0.6797928 0.5874095 0.43912607
vn -0.9062319 0.06444845 0.4178399
vn -0.4090737 -0.059273344 0.91057414
vn -0.7221276 -0.0030502176 0.69175315
vn -0.53705996 0.5376125 0.6500304
vn -0.30349752 0.47884175 0.8237718
vn 0.76113665 0.6322901 0.1444995
vn 0.99316037 0.11405525 0.024976509
vn 0.93660647 0.041745722 0.34788728
vn 0.72738117 0.56952864 0.38282338
vn 0.70777833 -0.03589861 0.7055219
vn 0.3558519 -0.084230945 0.93073875
vn 0.28173667 0.4806175 0.83044046
vn 0.5625883 0.48175502 0.6718679
vn 0.93660647 0.041745722 0.34788728
vn 0.70777833 -0.03589861 0.7055219
vn 0.5625883 0.48175502 0.6718679
vn 0.72738117 0.56952864 0.38282338
vn 0.019684656 0.80925894 -0.5871222
vn 0.004761576 0.36252993 -0.93196
vn 0.3542452 0.33853662 -0.8717243
vn 0.27930412 0.7993107 -0.53206366
vn -0.7221276 -0.0030502176 0.69175315
vn -0.9062319 0.06444845 0.4178399
vn -0.6797928 0.5874095 0.43912607
vn -0.53705996 0.5376125 0.6500304
vn -0.98645115 0.1599941 0.036276642
vn -0.9065833 0.24337606 -0.34478232
vn -0.6790642 0.72167385 -0.13438252
vn -0.7435913 0.6515669 0.15010817
vn 0.27930412 0.7993107 -0.53206366
vn 0.3542452 0.33853662 -0.8717243
vn 0.70551145 0.282014 -0.65017056
vn 0.5600392 0.7303613 -0.39106083
vn -0.7276355 0.3030123 -0.6154104
vn -0.41423428 0.35174912 -0.8394538
vn -0.30666545 0.79283994 -0.52665097
vn -0.53786826 0.7712508 -0.34039667
vn -0.9065833 0.24337606 -0.34478232
vn -0.7276355 0.3030123 -0.6154104
vn -0.53786826 0.7712508 -0.34039667
vn -0.6790642 0.72167385 -0.13438252
vn -0.41423428 0.35174912 -0.8394538
vn 0.004761576 0.36252993 -0.93196
vn 0.019684656 0.80925894 -0.5871222
vn -0.30666545 0.79283994 -0.52665097
vn 0.5600392 0.7303613 -0.39106083
vn 0.70551145 0.282014 -0.65017056
vn 0.93543804 0.19276859 -0.29630366
vn 0.7254748 0.68154335 -0.09583926
vn 0.7709103 0.53852826 0.3401243
vn 0.634058 -0.7631238 0.124950044
vn 0.48501402 -0.784082 0.38726828
vn 0.60677445 0.5129877 0.6071807
vn 0.031662777 0.97447395 0.22225638
vn 0.7875478 0.60496515 -0.11741286
vn 0.8134987 0.5690304 0.12010136
vn 0.61058444 -0.6849731 -0.3974903
vn 0.64800704 -0.74660975 -0.15053461
vn -0.031907383 -0.9769569 -0.21103798
vn -0.3225759 0.7326357 -0.59932446
vn 0.02496474 0.7496854 -0.6613233
vn -0.017482907 -0.5892555 -0.8077576
vn -0.269589 -0.57612723 -0.77162117
vn -0.72521627 0.68349606 -0.08303272
vn -0.6098251 0.70776457 -0.3566269
vn -0.53516877 -0.5848152 -0.60957813
vn -0.674019 -0.6298477 -0.38599268
vn 0.35925695 0.7136542 -0.6013585
vn 0.63567805 0.6569186 -0.4054273
vn 0.44853905 -0.63695806 -0.6269746
vn 0.20921549 -0.5980237 -0.7736902
vn -0.69454736 0.6321655 0.34346876
vn -0.7468561 0.6514459 0.1335071
vn -0.7046148 -0.69634616 0.1364551
vn -0.73942965 -0.6610267 -0.12762272
vn -0.2741874 0.54681396 0.7910852
vn -0.5597784 0.5875338 0.58433914
vn -0.5667974 -0.7136796 0.41158488
vn -0.28388444 -0.7536414 0.5928189
vn 0.24085629 -0.7839823 0.5721538
vn -0.009561332 -0.7787175 0.62730193
vn 0.03750897 0.5378334 0.84221625
vn 0.34105584 0.5178854 0.7845225
vn 0.031662777 0.97447395 0.22225638
vn 0.033316284 0.97444874 0.22212562
vn 0.72738117 0.56952864 0.38282338
vn 0.5625883 0.48175502 0.6718679
vn 0.28173667 0.4806175 0.83044046
vn 0.76113665 0.6322901 0.1444995
vn 0.020269869 0.46500415 0.8850764
vn 0.7254748 0.68154335 -0.09583926
vn -0.30349752 0.47884175 0.8237718
vn 0.5600392 0.7303613 -0.39106083
vn -0.53705996 0.5376125 0.6500304
vn 0.27930412 0.7993107 -0.53206366
vn -0.6797928 0.5874095 0.43912607
vn 0.019684656 0.80925894 -0.5871222
vn -0.7435913 0.6515669 0.15010817
vn -0.30666545 0.79283994 -0.52665097
vn -0.6790642 0.72167385 -0.13438252
vn -0.53786826 0.7712508 -0.34039667
vn -0.7046148 -0.69634616 0.1364551
vn -0.69454736 0.6321655 0.34346876
vn -0.5597784 0.5875338 0.58433914
vn 0.031662777 0.97447395 0.22225638
vn -0.5667974 -0.7136796 0.41158488
vn -0.031907383 -0.9769569 -0.21103798
vn 0.60677445 0.5129877 0.6071807
vn 0.34105584 0.5178854 0.7845225
vn 0.24085629 -0.7839823 0.5721538
vn 0.48501402 -0.784082 0.38726828
vn 0.8134987 0.5690304 0.12010136
vn 0.7709103 0.53852826 0.3401243
vn 0.64800704 -0.74660975 -0.15053461
vn 0.634058 -0.7631238 0.124950044
vn 0.02496474 0.7496854 -0.6613233
vn 0.35925695 0.7136542 -0.6013585
vn -0.017482907 -0.5892555 -0.8077576
vn 0.20921549 -0.5980237 -0.7736902
vn 0.03750897 0.5378334 0.84221625
vn -0.2741874 0.54681396 0.7910852
vn -0.009561332 -0.7787175 0.62730193
vn -0.28388444 -0.7536414 0.5928189
vn -0.6098251 0.70776457 -0.3566269
vn -0.3225759 0.7326357 -0.59932446
vn -0.269589 -0.57612723 -0.77162117
vn -0.53516877 -0.5848152 -0.60957813
vn 0.63567805 0.6569186 -0.4054273
vn 0.7875478 0.60496515 -0.11741286
vn 0.61058444 -0.6849731 -0.3974903
vn 0.44853905 -0.63695806 -0.6269746
vn -0.7468561 0.6514459 0.1335071
vn -0.72521627 0.68349606 -0.08303272
vn -0.73942965 -0.6610267 -0.12762272
vn -0.674019 -0.6298477 -0.38599268
vn 0.004761576 0.36252993 -0.93196
vn 0.3549791 0.4806712 -0.8018386
vn 0.3542452 0.33853662 -0.8717243
vn 0.70551145 0.282014 -0.65017056
vn 0.0031465578 0.50634456 -0.86232555
vn 0.6889223 0.42328024 -0.58840454
vn -0.4003479 0.5005009 -0.767607
vn 0.93543804 0.19276859 -0.29630366
vn -0.41423428 0.35174912 -0.8394538
vn 0.90463185 0.3379552 -0.2596681
vn -0.69360787 0.45851153 -0.5555856
vn 0.99316037 0.11405525 0.024976509
vn -0.7276355 0.3030123 -0.6154104
vn 0.963032 0.26277247 0.059329398
vn -0.8645645 0.40681288 -0.29501092
vn 0.93660647 0.041745722 0.34788728
vn -0.9065833 0.24337606 -0.34478232
vn 0.9051927 0.19163282 0.3793457
vn -0.9426798 0.3252702 0.07452597
vn 0.70777833 -0.03589861 0.7055219
vn -0.98645115 0.1599941 0.036276642
vn 0.6900161 0.12531616 0.712863
vn -0.8632472 0.23737295 0.4454867
vn 0.3558519 -0.084230945 0.93073875
vn -0.9062319 0.06444845 0.4178399
vn 0.35619277 0.08397798 0.93063116
vn -0.6876084 0.16963618 0.70598733
vn 0.0055117337 -0.08959648 0.9959629
vn -0.7221276 -0.0030502176 0.69175315
vn 0.0041973647 0.0806718 0.9967319
vn -0.39496425 0.11554934 0.9114009
vn -0.4090737 -0.059273344 0.91057414
g hat_Tophat_UncleSam_0
f 3/3/3 2/2/2 1/1/1
f 6/6/6 5/5/5 4/4/4
f 7/7/7 6/6/6 4/4/4
f 10/10/10 9/9/9 8/8/8
f 11/11/11 10/10/10 8/8/8
f 14/14/14 13/13/13 12/12/12
f 15/15/15 14/14/14 12/12/12
f 18/18/18 17/17/17 16/16/16
f 19/19/19 18/18/18 16/16/16
f 22/22/22 21/21/21 20/20/20
f 23/23/23 22/22/22 20/20/20
f 26/26/26 25/25/25 24/24/24
f 27/27/27 26/26/26 24/24/24
f 30/30/30 29/29/29 28/28/28
f 31/31/31 30/30/30 28/28/28
f 34/34/34 33/33/33 32/32/32
f 35/35/35 34/34/34 32/32/32
f 38/38/38 37/37/37 36/36/36
f 39/39/39 38/38/38 36/36/36
f 42/42/42 41/41/41 40/40/40
f 43/43/43 42/42/42 40/40/40
f 46/46/46 45/45/45 44/44/44
f 47/47/47 46/46/46 44/44/44
f 50/50/50 49/49/49 48/48/48
f 51/51/51 50/50/50 48/48/48
f 54/54/54 53/53/53 52/52/52
f 55/55/55 54/54/54 52/52/52
f 58/58/58 57/57/57 56/56/56
f 59/59/59 58/58/58 56/56/56
f 62/62/62 61/61/61 60/60/60
f 63/63/63 62/62/62 60/60/60
f 66/66/66 65/65/65 64/64/64
f 67/67/67 66/66/66 64/64/64
f 70/70/70 69/69/69 68/68/68
f 71/71/71 70/70/70 68/68/68
f 71/71/71 68/68/68 72/72/72
f 74/74/74 73/73/73 72/72/72
f 73/73/73 74/74/74 75/75/75
f 74/74/74 76/76/76 75/75/75
f 77/77/77 75/75/75 76/76/76
f 79/79/79 78/78/78 72/72/72
f 79/79/79 80/80/80 78/78/78
f 80/80/80 81/81/81 78/78/78
f 80/80/80 77/77/77 81/81/81
f 83/83/83 82/82/82 72/72/72
f 83/83/83 84/84/84 82/82/82
f 84/84/84 85/85/85 82/82/82
f 77/77/77 85/85/85 84/84/84
f 87/87/87 86/86/86 72/72/72
f 86/86/86 87/87/87 88/88/88
f 89/89/89 86/86/86 88/88/88
f 77/77/77 89/89/89 88/88/88
f 91/91/91 90/90/90 72/72/72
f 90/90/90 91/91/91 92/92/92
f 91/91/91 93/93/93 92/92/92
f 92/92/92 93/93/93 77/77/77
f 95/95/95 94/94/94 72/72/72
f 94/94/94 95/95/95 96/96/96
f 97/97/97 94/94/94 96/96/96
f 97/97/97 96/96/96 77/77/77
f 99/99/99 77/77/77 98/98/98
f 100/100/100 99/99/99 98/98/98
f 101/101/101 100/100/100 98/98/98
f 100/100/100 101/101/101 102/102/102
f 105/105/105 104/104/104 103/103/103
f 106/106/106 105/105/105 103/103/103
f 104/104/104 107/107/107 103/103/103
f 108/108/108 106/106/106 103/103/103
f 107/107/107 109/109/109 103/103/103
f 110/110/110 108/108/108 103/103/103
f 109/109/109 111/111/111 103/103/103
f 112/112/112 110/110/110 103/103/103
f 111/111/111 113/113/113 103/103/103
f 114/114/114 112/112/112 103/103/103
f 113/113/113 115/115/115 103/103/103
f 116/116/116 114/114/114 103/103/103
f 115/115/115 117/117/117 103/103/103
f 118/118/118 116/116/116 103/103/103
f 117/117/117 119/119/119 103/103/103
f 119/119/119 118/118/118 103/103/103
f 122/122/122 121/121/121 120/120/120
f 121/121/121 122/122/122 123/123/123
f 124/124/124 122/122/122 120/120/120
f 124/124/124 120/120/120 125/125/125
f 127/127/127 126/126/126 123/123/123
f 127/127/127 128/128/128 126/126/126
f 128/128/128 129/129/129 126/126/126
f 129/129/129 128/128/128 125/125/125
f 131/131/131 130/130/130 123/123/123
f 130/130/130 131/131/131 132/132/132
f 131/131/131 133/133/133 132/132/132
f 125/125/125 132/132/132 133/133/133
f 135/135/135 134/134/134 123/123/123
f 134/134/134 135/135/135 136/136/136
f 135/135/135 137/137/137 136/136/136
f 125/125/125 136/136/136 137/137/137
f 139/139/139 138/138/138 123/123/123
f 138/138/138 139/139/139 140/140/140
f 139/139/139 141/141/141 140/140/140
f 125/125/125 140/140/140 141/141/141
f 143/143/143 142/142/142 123/123/123
f 143/143/143 144/144/144 142/142/142
f 144/144/144 145/145/145 142/142/142
f 125/125/125 145/145/145 144/144/144
f 147/147/147 146/146/146 123/123/123
f 146/146/146 147/147/147 148/148/148
f 149/149/149 146/146/146 148/148/148
f 125/125/125 149/149/149 148/148/148
f 151/151/151 150/150/150 123/123/123
f 150/150/150 151/151/151 152/152/152
f 152/152/152 153/153/153 125/125/125
f 151/151/151 153/153/153 152/152/152
f 156/156/156 155/155/155 154/154/154
f 156/156/156 157/157/157 155/155/155
f 155/155/155 158/158/158 154/154/154
f 157/157/157 159/159/159 155/155/155
f 154/154/154 158/158/158 160/160/160
f 157/157/157 161/161/161 159/159/159
f 162/162/162 154/154/154 160/160/160
f 161/161/161 163/163/163 159/159/159
f 162/162/162 160/160/160 164/164/164
f 161/161/161 165/165/165 163/163/163
f 166/166/166 162/162/162 164/164/164
f 165/165/165 167/167/167 163/163/163
f 166/166/166 164/164/164 168/168/168
f 165/165/165 169/169/169 167/167/167
f 170/170/170 166/166/166 168/168/168
f 169/169/169 171/171/171 167/167/167
f 170/170/170 168/168/168 172/172/172
f 169/169/169 173/173/173 171/171/171
f 174/174/174 170/170/170 172/172/172
f 173/173/173 175/175/175 171/171/171
f 174/174/174 172/172/172 176/176/176
f 173/173/173 177/177/177 175/175/175
f 178/178/178 174/174/174 176/176/176
f 177/177/177 179/179/179 175/175/175
f 178/178/178 176/176/176 180/180/180
f 177/177/177 181/181/181 179/179/179
f 182/182/182 178/178/178 180/180/180
f 181/181/181 183/183/183 179/179/179
f 182/182/182 180/180/180 184/184/184
f 181/181/181 185/185/185 183/183/183
f 185/185/185 184/184/184 183/183/183
f 185/185/185 182/182/182 184/184/184
