g hat_Headphones
v -1.0914574 3.5351334 0.21777761
v -1.0848885 3.397184 -0.044983268
v -1.2950971 3.416891 -0.044983268
v -1.301666 3.5482717 0.20463955
v -1.1045954 3.8767223 0.32288194
v -1.301666 3.5482717 -0.30117512
v -1.0914574 3.5351334 -0.31431317
v -1.3213732 3.8701534 0.30317485
v -1.1243026 4.218312 0.21777761
v -1.3213732 3.8701534 -0.39971042
v -1.1045954 3.8767223 -0.4194175
v -1.3410802 4.1854663 -0.30117512
v -1.1243026 4.218312 -0.31431317
v -1.3870633 3.6270995 -0.044983268
v -1.3870633 3.699359 -0.1763637
v -1.4002013 3.8635845 -0.044983268
v -1.3870633 3.699359 0.07982814
v -1.4002013 3.8635845 -0.22891593
v -1.4067705 4.02781 -0.1763637
v -1.4002013 3.8635845 0.13238025
v -1.4133394 4.0935 -0.044983268
v -1.3410802 4.1854663 0.20463955
v -1.4067705 4.02781 0.07982814
v -1.3476493 4.316847 -0.044983268
v -1.249114 4.284002 0.08639717
v -1.281959 4.3234158 -0.044983268
v -1.249114 4.284002 -0.18293273
v -1.1308715 4.310278 0.106104136
v -1.1374404 4.36283 -0.044983268
v -1.268821 4.4547963 0.0929662
v -1.0783193 4.36283 -0.044983268
v -1.1308715 4.310278 -0.20263982
v -1.268821 4.4547963 -0.18293273
v -1.0848885 4.408813 -0.20920885
v -1.0848885 4.408813 0.11267316
v -1.012629 4.612453 -0.21577787
v -1.1834238 4.6912813 -0.18950176
v -1.012629 4.612453 0.11924219
v -1.1834238 4.6912813 0.0929662
v -0.8024204 4.9014897 -0.22891593
v -0.9206629 5.0525775 -0.19607079
v -0.8024204 4.9080586 0.13238025
v -0.9206629 5.0525775 0.09953523
v -0.44112432 5.0985603 -0.28146803
v -0.48053837 5.282493 -0.26832998
v -0.0009998083 5.1116986 -0.31431317
v -0.4345553 5.0985603 0.15208733
v -0.48053837 5.282493 0.13894928
v -0.0009998083 5.308769 -0.30774415
v -0.0009998083 5.1116986 0.1915015
v -0.0009998083 5.308769 0.1915015
v 0.48510772 5.282493 0.13894928
v 0.48510772 5.282493 -0.26832998
v 0.43255556 5.0985603 0.15208733
v 0.43912458 5.0985603 -0.28146803
v 0.9252322 5.0525775 0.09953523
v 0.80042076 4.9080586 0.13238025
v 0.9252322 5.0525775 -0.19607079
v 0.80042076 4.9014897 -0.22891593
v 1.181424 4.6912813 0.0929662
v 1.0171984 4.612453 0.11924219
v 1.181424 4.6912813 -0.18950176
v 1.0171984 4.612453 -0.21577787
v 1.2733903 4.4547963 0.0929662
v 1.0894578 4.408813 0.11267316
v 1.0894578 4.408813 -0.20920885
v 1.2733903 4.4547963 -0.18293273
v 1.1288718 4.310278 0.106104136
v 1.0763197 4.36283 -0.044983268
v 1.2471142 4.284002 -0.18293273
v 1.2865283 4.3234158 -0.044983268
v 1.1288718 4.310278 -0.20263982
v 1.3390806 4.1854663 -0.30117512
v 1.1288718 4.218312 -0.31431317
v 1.1354408 4.36283 -0.044983268
v 1.1025958 3.8767223 -0.4194175
v 1.1288718 4.218312 0.21777761
v 1.2471142 4.284002 0.08639717
v 1.3456496 4.316847 -0.044983268
v 1.3390806 4.1854663 0.20463955
v 1.3193735 3.8701534 -0.39971042
v 1.0894578 3.5351334 -0.31431317
v 1.3193735 3.8701534 0.30317485
v 1.1025958 3.8767223 0.32288194
v 1.3062354 3.5482717 -0.30117512
v 1.0828887 3.397184 -0.044983268
v 1.3062354 3.5482717 0.20463955
v 1.0894578 3.5351334 0.21777761
v 1.2996664 3.416891 -0.044983268
v 1.4113398 4.0935 -0.044983268
v 1.4047707 4.02781 0.07982814
v 1.3982017 3.8635845 -0.044983268
v 1.4047707 4.02781 -0.1763637
v 1.3982017 3.8635845 0.13238025
v 1.3982017 3.8635845 -0.22891593
v 1.3916327 3.699359 0.07982814
v 1.3916327 3.699359 -0.1763637
v 1.3850636 3.6270995 -0.044983268
v -1.0848885 3.397184 -0.044983268
v -1.0914574 3.5351334 0.21777761
v -1.0717504 3.4825811 0.25062263
v -1.0586123 3.3117867 -0.044983268
v -1.0914574 3.5351334 -0.31431317
v -1.0914574 3.8767223 0.37543404
v -1.1045954 3.8767223 0.32288194
v -1.0717504 3.4825811 -0.3471583
v -1.1045954 3.8767223 -0.4194175
v -1.1111646 4.277433 0.25062263
v -1.1243026 4.218312 0.21777761
v -1.0914574 3.8767223 -0.47196972
v -1.1243026 4.218312 -0.31431317
v -1.1243026 4.4482274 -0.044983268
v -1.1374404 4.36283 -0.044983268
v -1.1111646 4.277433 -0.3471583
v -0.8812487 3.8898606 0.3885721
v -0.8549726 3.4825811 0.2637607
v -0.84183455 3.3183556 -0.044983268
v -0.9009557 4.2971396 0.2637607
v -0.8549726 3.4825811 -0.35372734
v -0.8812487 3.8898606 -0.48510772
v -0.9009557 4.2971396 -0.36029637
v -0.9075248 4.4679346 -0.044983268
v -0.77614427 3.9029984 0.2900368
v -0.7564373 3.5876856 0.1915015
v -0.7498684 3.456305 -0.044983268
v -0.7564373 3.5876856 -0.28803706
v -0.79585147 4.218312 0.19807053
v -0.77614427 3.9029984 -0.38657236
v -0.79585147 4.218312 -0.2946061
v -0.8024204 4.3562613 -0.044983268
v -0.86811066 3.8898606 0.13238025
v -0.8549726 3.69279 0.073259115
v -0.84183455 3.6205306 -0.044983268
v -0.8549726 3.69279 -0.16979468
v -0.8746798 4.0935 0.073259115
v -0.86811066 3.8898606 -0.22891593
v -0.8746798 4.0935 -0.16979468
v -0.8746798 4.1657596 -0.044983268
v -0.96007705 3.8898606 0.13894928
v -0.9535079 3.6862206 0.07982814
v -0.93380094 3.8898606 -0.044983268
v -0.9732151 4.086931 0.07982814
v -0.946939 3.6139617 -0.044983268
v -0.979784 4.1591907 -0.044983268
v -0.9535079 3.6862206 -0.1763637
v -0.9732151 4.086931 -0.1763637
v -0.96007705 3.8898606 -0.23548496
v 1.0828887 3.397184 -0.044983268
v 1.0566126 3.3117867 -0.044983268
v 1.0697507 3.4825811 0.25062263
v 1.0894578 3.5351334 0.21777761
v 1.0894578 3.5351334 -0.31431317
v 1.0960267 3.8767223 0.37543404
v 1.1025958 3.8767223 0.32288194
v 1.0697507 3.4825811 -0.3471583
v 1.1025958 3.8767223 -0.4194175
v 1.1157339 4.277433 0.25062263
v 1.1288718 4.218312 0.21777761
v 1.0960267 3.8767223 -0.47196972
v 1.1288718 4.218312 -0.31431317
v 1.1223028 4.4482274 -0.044983268
v 1.1354408 4.36283 -0.044983268
v 1.1157339 4.277433 -0.3471583
v 0.87924904 3.8898606 0.3885721
v 0.8529729 3.4825811 0.2637607
v 0.83983487 3.3183556 -0.044983268
v 0.89895606 4.2971396 0.2637607
v 0.8529729 3.4825811 -0.35372734
v 0.9055251 4.4679346 -0.044983268
v 0.89895606 4.2971396 -0.36029637
v 0.87924904 3.8898606 -0.48510772
v 0.7741447 3.9029984 0.2900368
v 0.7544376 3.5876856 0.1915015
v 0.79385173 4.218312 0.19807053
v 0.80042076 4.3562613 -0.044983268
v 0.7478686 3.456305 -0.044983268
v 0.79385173 4.218312 -0.2946061
v 0.7741447 3.9029984 -0.38657236
v 0.7544376 3.5876856 -0.28803706
v 0.866111 3.8898606 0.13238025
v 0.87268 4.0935 0.073259115
v 0.87268 4.1657596 -0.044983268
v 0.87268 4.0935 -0.16979468
v 0.8529729 3.69279 0.073259115
v 0.866111 3.8898606 -0.22891593
v 0.8529729 3.69279 -0.16979468
v 0.8464039 3.6205306 -0.044983268
v 0.97121537 4.086931 0.07982814
v 0.97778434 4.1591907 -0.044983268
v 0.9383702 3.8898606 -0.044983268
v 0.9580773 3.8898606 0.13894928
v 0.97121537 4.086931 -0.1763637
v 0.9515083 3.6862206 0.07982814
v 0.9580773 3.8898606 -0.23548496
v 0.94493926 3.6139617 -0.044983268
v 0.9515083 3.6862206 -0.1763637
vt 0.84233457 0.027795967
vt 0.84233457 0.027795967
vt 0.84233457 0.027795967
vt 0.84233457 0.027795967
vt 0.84233457 0.027795967
vt 0.84233457 0.027795967
vt 0.84233457 0.027795967
vt 0.84233457 0.027795967
vt 0.84233457 0.027795967
vt 0.84233457 0.027795967
vt 0.84233457 0.027795967
vt 0.84233457 0.027795967
vt 0.84233457 0.027795967
vt 0.84233457 0.027795967
vt 0.84233457 0.027795967
vt 0.84233457 0.027795967
vt 0.84233457 0.027795967
vt 0.84233457 0.027795967
vt 0.84233457 0.027795967
vt 0.84233457 0.027795967
vt 0.84233457 0.027795967
vt 0.84233457 0.027795967
vt 0.84233457 0.027795967
vt 0.84233457 0.027795967
vt 0.84233457 0.027795967
vt 0.84233457 0.027795967
vt 0.84233457 0.027795967
vt 0.84233457 0.027795967
vt 0.84233457 0.027795967
vt 0.84233457 0.027795967
vt 0.84233457 0.027795967
vt 0.84233457 0.027795967
vt 0.84233457 0.027795967
vt 0.84233457 0.027795967
vt 0.84233457 0.027795967
vt 0.84233457 0.027795967
vt 0.84233457 0.027795967
vt 0.84233457 0.027795967
vt 0.84233457 0.027795967
vt 0.84233457 0.027795967
vt 0.84233457 0.027795967
vt 0.84233457 0.027795967
vt 0.84233457 0.027795967
vt 0.84233457 0.027795967
vt 0.84233457 0.027795967
vt 0.84233457 0.027795967
vt 0.84233457 0.027795967
vt 0.84233457 0.027795967
vt 0.84233457 0.027795967
vt 0.84233457 0.027795967
vt 0.84233457 0.027795967
vt 0.84233457 0.027795967
vt 0.84233457 0.027795967
vt 0.84233457 0.027795967
vt 0.84233457 0.027795967
vt 0.84233457 0.027795967
vt 0.84233457 0.027795967
vt 0.84233457 0.027795967
vt 0.84233457 0.027795967
vt 0.84233457 0.027795967
vt 0.84233457 0.027795967
vt 0.84233457 0.027795967
vt 0.84233457 0.027795967
vt 0.84233457 0.027795967
vt 0.84233457 0.027795967
vt 0.84233457 0.027795967
vt 0.84233457 0.027795967
vt 0.84233457 0.027795967
vt 0.84233457 0.027795967
vt 0.84233457 0.027795967
vt 0.84233457 0.027795967
vt 0.84233457 0.027795967
vt 0.84233457 0.027795967
vt 0.84233457 0.027795967
vt 0.84233457 0.027795967
vt 0.84233457 0.027795967
vt 0.84233457 0.027795967
vt 0.84233457 0.027795967
vt 0.84233457 0.027795967
vt 0.84233457 0.027795967
vt 0.84233457 0.027795967
vt 0.84233457 0.027795967
vt 0.84233457 0.027795967
vt 0.84233457 0.027795967
vt 0.84233457 0.027795967
vt 0.84233457 0.027795967
vt 0.84233457 0.027795967
vt 0.84233457 0.027795967
vt 0.84233457 0.027795967
vt 0.84233457 0.027795967
vt 0.84233457 0.027795967
vt 0.84233457 0.027795967
vt 0.84233457 0.027795967
vt 0.84233457 0.027795967
vt 0.84233457 0.027795967
vt 0.84233457 0.027795967
vt 0.84233457 0.027795967
vt 0.84233457 0.027795967
vt 0.84877366 0.027795967
vt 0.84877366 0.027795967
vt 0.84877366 0.027795967
vt 0.84877366 0.027795967
vt 0.84877366 0.027795967
vt 0.84877366 0.027795967
vt 0.84877366 0.027795967
vt 0.84877366 0.027795967
vt 0.84877366 0.027795967
vt 0.84877366 0.027795967
vt 0.84877366 0.027795967
vt 0.84877366 0.027795967
vt 0.84877366 0.027795967
vt 0.84877366 0.027795967
vt 0.84877366 0.027795967
vt 0.84877366 0.027795967
vt 0.84877366 0.027795967
vt 0.84877366 0.027795967
vt 0.84877366 0.027795967
vt 0.84877366 0.027795967
vt 0.84877366 0.027795967
vt 0.84877366 0.027795967
vt 0.84877366 0.027795967
vt 0.84877366 0.027795967
vt 0.84877366 0.027795967
vt 0.84877366 0.027795967
vt 0.84877366 0.027795967
vt 0.84877366 0.027795967
vt 0.84877366 0.027795967
vt 0.84877366 0.027795967
vt 0.84877366 0.027795967
vt 0.84877366 0.027795967
vt 0.84877366 0.027795967
vt 0.84877366 0.027795967
vt 0.84877366 0.027795967
vt 0.84877366 0.027795967
vt 0.84877366 0.027795967
vt 0.84877366 0.027795967
vt 0.84877366 0.027795967
vt 0.84877366 0.027795967
vt 0.84877366 0.027795967
vt 0.84877366 0.027795967
vt 0.84877366 0.027795967
vt 0.84877366 0.027795967
vt 0.84877366 0.027795967
vt 0.84877366 0.027795967
vt 0.84877366 0.027795967
vt 0.84877366 0.027795967
vt 0.84877366 0.027795967
vt 0.84877366 0.027795967
vt 0.84877366 0.027795967
vt 0.84877366 0.027795967
vt 0.84877366 0.027795967
vt 0.84877366 0.027795967
vt 0.84877366 0.027795967
vt 0.84877366 0.027795967
vt 0.84877366 0.027795967
vt 0.84877366 0.027795967
vt 0.84877366 0.027795967
vt 0.84877366 0.027795967
vt 0.84877366 0.027795967
vt 0.84877366 0.027795967
vt 0.84877366 0.027795967
vt 0.84877366 0.027795967
vt 0.84877366 0.027795967
vt 0.84877366 0.027795967
vt 0.84877366 0.027795967
vt 0.84877366 0.027795967
vt 0.84877366 0.027795967
vt 0.84877366 0.027795967
vt 0.84877366 0.027795967
vt 0.84877366 0.027795967
vt 0.84877366 0.027795967
vt 0.84877366 0.027795967
vt 0.84877366 0.027795967
vt 0.84877366 0.027795967
vt 0.84877366 0.027795967
vt 0.84877366 0.027795967
vt 0.84877366 0.027795967
vt 0.84877366 0.027795967
vt 0.84877366 0.027795967
vt 0.84877366 0.027795967
vt 0.84877366 0.027795967
vt 0.84877366 0.027795967
vt 0.84877366 0.027795967
vt 0.84877366 0.027795967
vt 0.84877366 0.027795967
vt 0.84877366 0.027795967
vt 0.84877366 0.027795967
vt 0.84877366 0.027795967
vt 0.84877366 0.027795967
vt 0.84877366 0.027795967
vt 0.84877366 0.027795967
vt 0.84877366 0.027795967
vt 0.84877366 0.027795967
vt 0.84877366 0.027795967
vt 0.84877366 0.027795967
vt 0.84877366 0.027795967
vn -0.71319383 -0.4596138 0.52925396
vn -0.7378055 -0.6750135 -0
vn -0.52300876 -0.8399838 -0.14453022
vn -0.52300876 -0.55470634 0.6471188
vn -0.71319383 -0.047546268 0.6993525
vn -0.52300876 -0.55470634 -0.6471188
vn -0.71319383 -0.4596138 -0.52925396
vn -0.5547063 -0.015848756 0.8318953
vn -0.74489135 0.3328238 0.5782432
vn -0.5547063 -0.015848756 -0.8318953
vn -0.71319383 -0.047546268 -0.6993525
vn -0.5864038 0.45961374 -0.6669976
vn -0.74489135 0.3328238 -0.5782432
vn -0.9632912 -0.26845825 -0
vn -0.9667738 -0.17433625 -0.18696325
vn -0.9984713 -0.047546268 -0.0281849
vn -0.9667738 -0.17433625 0.18696325
vn -0.9667738 -0.047546268 -0.25117272
vn -0.9667738 0.07924372 -0.24304079
vn -0.9667738 -0.047546268 0.25117272
vn -0.9850968 0.17200102 -0
vn -0.5864038 0.45961374 0.6669976
vn -0.9667738 0.07924372 0.24304079
vn -0.6497988 0.74489135 -0.15132229
vn -0.42791623 0.5864038 0.6877633
vn -0.83446455 0.5510615 -0
vn -0.42791623 0.5864038 -0.6877633
vn 0.5864038 -0.33282375 0.7384842
vn -0.79435784 -0.6074502 -0
vn -0.77658874 0.11094123 0.6201629
vn 0.9350763 -0.3011263 -0.18696335
vn 0.5864038 -0.33282375 -0.7384842
vn -0.77658874 0.11094123 -0.6201629
vn 0.5864038 -0.23773128 -0.7743477
vn 0.5864038 -0.23773128 0.7743477
vn 0.5230088 -0.3011263 -0.79736114
vn -0.71319383 0.36452132 -0.598731
vn 0.5230088 -0.3011263 0.79736114
vn -0.71319383 0.36452132 0.598731
vn 0.33282375 -0.4913113 -0.80488604
vn -0.5547063 0.5864038 -0.5902809
vn 0.33282375 -0.4596138 0.8233976
vn -0.52300876 0.5864038 0.6185406
vn 0.047546268 -0.6181013 -0.78465927
vn -0.2694288 0.71319383 -0.64711875
vn -0.015848696 -0.14263874 -0.9896479
vn 0.07924378 -0.6181013 0.7820941
vn -0.23773128 0.74489135 0.62339455
vn 0.6181013 0.5864038 -0.52352786
vn -0.015848696 -0.9667738 0.25514156
vn 0.6181013 0.5864038 0.52352786
vn 0.23773128 0.74489135 0.62339455
vn 0.2694288 0.71319383 -0.64711875
vn -0.07924372 -0.6181013 0.7820941
vn -0.047546208 -0.6181013 -0.78465927
vn 0.5230088 0.5864038 0.6185405
vn -0.3328238 -0.4596138 0.82339746
vn 0.55470634 0.5864038 -0.5902809
vn -0.3328238 -0.4913113 -0.804886
vn 0.7131938 0.36452132 0.59873104
vn -0.52300876 -0.3011263 0.79736114
vn 0.7131938 0.36452132 -0.59873104
vn -0.52300876 -0.3011263 -0.79736114
vn 0.7765888 0.11094123 0.6201628
vn -0.5864038 -0.23773128 0.7743477
vn -0.5864038 -0.23773128 -0.7743477
vn 0.7765888 0.11094123 -0.6201628
vn -0.5864038 -0.33282375 0.7384842
vn -0.9350763 -0.3011263 -0.18696335
vn 0.4279163 0.5864038 -0.6877632
vn 0.8344646 0.5510615 -0
vn -0.5864038 -0.33282375 -0.7384842
vn 0.5864038 0.45961374 -0.6669976
vn 0.7448913 0.3328238 -0.57824326
vn 0.79435784 -0.6074501 -0
vn 0.7131938 -0.047546268 -0.69935256
vn 0.7448913 0.3328238 0.57824326
vn 0.4279163 0.5864038 0.6877632
vn 0.6497988 0.74489135 -0.15132229
vn 0.5864038 0.45961374 0.6669976
vn 0.55470634 -0.015848756 -0.8318953
vn 0.7131938 -0.4596138 -0.529254
vn 0.55470634 -0.015848756 0.8318953
vn 0.7131938 -0.047546268 0.69935256
vn 0.5230088 -0.55470634 -0.64711875
vn 0.7378054 -0.6750135 -0
vn 0.5230088 -0.55470634 0.64711875
vn 0.7131938 -0.4596138 0.529254
vn 0.5230088 -0.8399838 -0.14453001
vn 0.9850968 0.17200102 -0
vn 0.9667738 0.07924372 0.24304079
vn 0.9984713 -0.047546268 -0.0281849
vn 0.9667738 0.07924372 -0.24304079
vn 0.9667738 -0.047546268 0.25117272
vn 0.9667738 -0.047546268 -0.25117272
vn 0.9667738 -0.17433625 0.18696325
vn 0.9667738 -0.17433625 -0.18696325
vn 0.9632912 -0.26845825 -0
vn -0.7378055 -0.6750135 -0
vn -0.71319383 -0.4596138 0.52925396
vn -0.5547063 -0.55470634 0.6201627
vn -0.52300876 -0.8399838 -0.14453022
vn -0.71319383 -0.4596138 -0.52925396
vn -0.5864038 -0.047546268 0.8086223
vn -0.71319383 -0.047546268 0.6993525
vn -0.5547063 -0.55470634 -0.6201627
vn -0.71319383 -0.047546268 -0.6993525
vn -0.6181013 0.49131125 0.6136482
vn -0.74489135 0.3328238 0.5782432
vn -0.5864038 -0.047546268 -0.8086223
vn -0.74489135 0.3328238 -0.5782432
vn -0.6181013 0.77658874 -0.12190467
vn -0.79435784 -0.6074502 -0
vn -0.6181013 0.49131125 -0.6136482
vn 0.33282375 0.015848696 0.94285583
vn 0.39621878 -0.5864038 0.70649934
vn 0.4279163 -0.90337884 -0.028183177
vn 0.3011263 0.6181013 0.7261362
vn 0.39621878 -0.5864038 -0.70649934
vn 0.33282375 0.015848696 -0.94285583
vn 0.3011263 0.6181013 -0.7261362
vn 0.29738367 0.954758 -0
vn 0.9667738 0.047546208 0.25117275
vn 0.9667738 -0.07924378 0.24304076
vn 0.9667738 -0.20603377 -0.15132241
vn 0.9667738 -0.07924378 -0.24304076
vn 0.9350763 0.20603377 0.28841364
vn 0.9667738 0.047546208 -0.25117275
vn 0.9350763 0.20603377 -0.28841364
vn 0.93170804 0.36320826 -0
vn 0.5230088 0.015848696 -0.8521799
vn 0.5230088 0.5547063 -0.6471188
vn 0.5864038 0.80828625 -0.05295207
vn 0.5230088 0.5547063 0.6471188
vn 0.5864038 -0.4596138 -0.66699755
vn 0.5230088 0.015848696 0.8521799
vn 0.5864038 -0.4596138 0.66699755
vn 0.68149626 -0.7131938 -0.16406558
vn 0.6497988 0.047546208 -0.75861776
vn 0.6181013 0.49131125 -0.6136482
vn 0.9984713 0.047546208 -0.028184999
vn 0.68149626 -0.4279163 -0.59367543
vn 0.5864038 0.80828625 -0.05295207
vn 0.6750135 -0.7378054 -0
vn 0.6181013 0.49131125 0.6136482
vn 0.68149626 -0.4279163 0.59367543
vn 0.6497988 0.047546208 0.75861776
vn 0.7378054 -0.6750135 -0
vn 0.5230088 -0.8399838 -0.14453001
vn 0.55470634 -0.55470634 0.6201627
vn 0.7131938 -0.4596138 0.529254
vn 0.7131938 -0.4596138 -0.529254
vn 0.5864038 -0.047546268 0.8086223
vn 0.7131938 -0.047546268 0.69935256
vn 0.55470634 -0.55470634 -0.6201627
vn 0.7131938 -0.047546268 -0.69935256
vn 0.6181013 0.49131125 0.6136482
vn 0.7448913 0.3328238 0.57824326
vn 0.5864038 -0.047546268 -0.8086223
vn 0.7448913 0.3328238 -0.57824326
vn 0.6181013 0.77658874 -0.12190467
vn 0.79435784 -0.6074501 -0
vn 0.6181013 0.49131125 -0.6136482
vn -0.3328238 0.015848696 0.94285583
vn -0.39621872 -0.5864038 0.70649934
vn -0.42791623 -0.90337884 -0.028185293
vn -0.3011263 0.6181013 0.7261362
vn -0.39621872 -0.5864038 -0.70649934
vn -0.29738367 0.954758 -0
vn -0.3011263 0.6181013 -0.7261362
vn -0.3328238 0.015848696 -0.94285583
vn -0.9667738 0.047546208 0.25117275
vn -0.9667738 -0.07924378 0.24304076
vn -0.9350763 0.20603377 0.28841364
vn -0.93170804 0.36320826 -0
vn -0.9667738 -0.20603377 -0.15132241
vn -0.9350763 0.20603377 -0.28841364
vn -0.9667738 0.047546208 -0.25117275
vn -0.9667738 -0.07924378 -0.24304076
vn -0.52300876 0.015848696 -0.85217994
vn -0.5864038 -0.4596138 -0.66699755
vn -0.6814963 -0.7131938 -0.16406523
vn -0.5864038 -0.4596138 0.66699755
vn -0.52300876 0.5547063 -0.6471188
vn -0.52300876 0.015848696 0.85217994
vn -0.52300876 0.5547063 0.6471188
vn -0.5864038 0.80828625 -0.05295207
vn -0.6814963 -0.4279163 -0.5936753
vn -0.67501354 -0.7378054 -0
vn -0.9984713 0.047546208 -0.028184999
vn -0.6497988 0.047546208 -0.75861776
vn -0.6814963 -0.4279163 0.5936753
vn -0.6181013 0.49131125 -0.6136482
vn -0.6497988 0.047546208 0.75861776
vn -0.5864038 0.80828625 -0.05295207
vn -0.6181013 0.49131125 0.6136482
g hat_Headphones_0
f 3/3/3 2/2/2 1/1/1
f 4/4/4 3/3/3 1/1/1
f 4/4/4 1/1/1 5/5/5
f 3/3/3 6/6/6 2/2/2
f 6/6/6 7/7/7 2/2/2
f 8/8/8 4/4/4 5/5/5
f 8/8/8 5/5/5 9/9/9
f 6/6/6 10/10/10 7/7/7
f 10/10/10 11/11/11 7/7/7
f 10/10/10 12/12/12 11/11/11
f 12/12/12 13/13/13 11/11/11
f 14/14/14 3/3/3 4/4/4
f 15/15/15 6/6/6 3/3/3
f 14/14/14 15/15/15 3/3/3
f 14/14/14 16/16/16 15/15/15
f 17/17/17 14/14/14 4/4/4
f 17/17/17 4/4/4 8/8/8
f 17/17/17 16/16/16 14/14/14
f 15/15/15 18/18/18 6/6/6
f 18/18/18 10/10/10 6/6/6
f 15/15/15 16/16/16 18/18/18
f 18/18/18 19/19/19 10/10/10
f 19/19/19 12/12/12 10/10/10
f 18/18/18 16/16/16 19/19/19
f 20/20/20 17/17/17 8/8/8
f 20/20/20 16/16/16 17/17/17
f 19/19/19 16/16/16 21/21/21
f 19/19/19 21/21/21 12/12/12
f 20/20/20 8/8/8 22/22/22
f 22/22/22 8/8/8 9/9/9
f 23/23/23 16/16/16 20/20/20
f 21/21/21 16/16/16 23/23/23
f 23/23/23 20/20/20 22/22/22
f 21/21/21 23/23/23 24/24/24
f 21/21/21 24/24/24 12/12/12
f 23/23/23 22/22/22 24/24/24
f 25/25/25 22/22/22 9/9/9
f 26/26/26 24/24/24 22/22/22
f 25/25/25 26/26/26 22/22/22
f 27/27/27 12/12/12 24/24/24
f 26/26/26 27/27/27 24/24/24
f 28/28/28 25/25/25 9/9/9
f 28/28/28 9/9/9 29/29/29
f 30/30/30 26/26/26 25/25/25
f 30/30/30 25/25/25 28/28/28
f 31/31/31 28/28/28 29/29/29
f 31/31/31 29/29/29 13/13/13
f 32/32/32 13/13/13 12/12/12
f 27/27/27 32/32/32 12/12/12
f 32/32/32 31/31/31 13/13/13
f 33/33/33 27/27/27 26/26/26
f 26/26/26 30/30/30 33/33/33
f 34/34/34 32/32/32 27/27/27
f 34/34/34 31/31/31 32/32/32
f 33/33/33 34/34/34 27/27/27
f 35/35/35 28/28/28 31/31/31
f 35/35/35 30/30/30 28/28/28
f 31/31/31 34/34/34 35/35/35
f 36/36/36 34/34/34 33/33/33
f 37/37/37 33/33/33 30/30/30
f 37/37/37 36/36/36 33/33/33
f 38/38/38 35/35/35 34/34/34
f 36/36/36 38/38/38 34/34/34
f 39/39/39 30/30/30 35/35/35
f 39/39/39 37/37/37 30/30/30
f 38/38/38 39/39/39 35/35/35
f 40/40/40 36/36/36 37/37/37
f 41/41/41 37/37/37 39/39/39
f 41/41/41 40/40/40 37/37/37
f 42/42/42 38/38/38 36/36/36
f 40/40/40 42/42/42 36/36/36
f 43/43/43 39/39/39 38/38/38
f 43/43/43 41/41/41 39/39/39
f 42/42/42 43/43/43 38/38/38
f 44/44/44 40/40/40 41/41/41
f 45/45/45 41/41/41 43/43/43
f 45/45/45 44/44/44 41/41/41
f 46/46/46 44/44/44 45/45/45
f 44/44/44 47/47/47 40/40/40
f 47/47/47 42/42/42 40/40/40
f 44/44/44 46/46/46 47/47/47
f 48/48/48 43/43/43 42/42/42
f 48/48/48 45/45/45 43/43/43
f 47/47/47 48/48/48 42/42/42
f 49/49/49 46/46/46 45/45/45
f 45/45/45 48/48/48 49/49/49
f 47/47/47 50/50/50 48/48/48
f 46/46/46 50/50/50 47/47/47
f 48/48/48 51/51/51 49/49/49
f 50/50/50 51/51/51 48/48/48
f 51/51/51 52/52/52 49/49/49
f 51/51/51 50/50/50 52/52/52
f 46/46/46 49/49/49 53/53/53
f 52/52/52 53/53/53 49/49/49
f 50/50/50 46/46/46 54/54/54
f 50/50/50 54/54/54 52/52/52
f 55/55/55 46/46/46 53/53/53
f 46/46/46 55/55/55 54/54/54
f 53/53/53 52/52/52 56/56/56
f 52/52/52 54/54/54 57/57/57
f 56/56/56 52/52/52 57/57/57
f 55/55/55 53/53/53 58/58/58
f 58/58/58 53/53/53 56/56/56
f 54/54/54 55/55/55 59/59/59
f 57/57/57 54/54/54 59/59/59
f 59/59/59 55/55/55 58/58/58
f 58/58/58 56/56/56 60/60/60
f 56/56/56 57/57/57 61/61/61
f 60/60/60 56/56/56 61/61/61
f 59/59/59 58/58/58 62/62/62
f 62/62/62 58/58/58 60/60/60
f 57/57/57 59/59/59 63/63/63
f 61/61/61 57/57/57 63/63/63
f 63/63/63 59/59/59 62/62/62
f 62/62/62 60/60/60 64/64/64
f 60/60/60 61/61/61 65/65/65
f 64/64/64 60/60/60 65/65/65
f 61/61/61 63/63/63 66/66/66
f 65/65/65 61/61/61 66/66/66
f 63/63/63 62/62/62 67/67/67
f 67/67/67 62/62/62 64/64/64
f 66/66/66 63/63/63 67/67/67
f 64/64/64 65/65/65 68/68/68
f 66/66/66 69/69/69 65/65/65
f 68/68/68 65/65/65 69/69/69
f 66/66/66 67/67/67 70/70/70
f 64/64/64 71/71/71 67/67/67
f 70/70/70 67/67/67 71/71/71
f 69/69/69 66/66/66 72/72/72
f 72/72/72 66/66/66 70/70/70
f 72/72/72 70/70/70 73/73/73
f 69/69/69 72/72/72 74/74/74
f 74/74/74 72/72/72 73/73/73
f 75/75/75 69/69/69 74/74/74
f 68/68/68 69/69/69 75/75/75
f 74/74/74 73/73/73 76/76/76
f 77/77/77 68/68/68 75/75/75
f 78/78/78 64/64/64 68/68/68
f 71/71/71 64/64/64 78/78/78
f 78/78/78 68/68/68 77/77/77
f 70/70/70 71/71/71 79/79/79
f 73/73/73 70/70/70 79/79/79
f 71/71/71 78/78/78 80/80/80
f 80/80/80 78/78/78 77/77/77
f 79/79/79 71/71/71 80/80/80
f 73/73/73 81/81/81 76/76/76
f 76/76/76 81/81/81 82/82/82
f 83/83/83 80/80/80 77/77/77
f 84/84/84 83/83/83 77/77/77
f 81/81/81 85/85/85 82/82/82
f 82/82/82 85/85/85 86/86/86
f 87/87/87 83/83/83 84/84/84
f 88/88/88 87/87/87 84/84/84
f 86/86/86 89/89/89 88/88/88
f 85/85/85 89/89/89 86/86/86
f 89/89/89 87/87/87 88/88/88
f 79/79/79 90/90/90 73/73/73
f 80/80/80 91/91/91 79/79/79
f 91/91/91 90/90/90 79/79/79
f 92/92/92 90/90/90 91/91/91
f 90/90/90 93/93/93 73/73/73
f 73/73/73 93/93/93 81/81/81
f 92/92/92 93/93/93 90/90/90
f 94/94/94 91/91/91 80/80/80
f 83/83/83 94/94/94 80/80/80
f 92/92/92 91/91/91 94/94/94
f 93/93/93 95/95/95 81/81/81
f 81/81/81 95/95/95 85/85/85
f 92/92/92 95/95/95 93/93/93
f 96/96/96 94/94/94 83/83/83
f 87/87/87 96/96/96 83/83/83
f 92/92/92 94/94/94 96/96/96
f 95/95/95 97/97/97 85/85/85
f 85/85/85 97/97/97 89/89/89
f 92/92/92 97/97/97 95/95/95
f 98/98/98 96/96/96 87/87/87
f 89/89/89 98/98/98 87/87/87
f 97/97/97 98/98/98 89/89/89
f 92/92/92 98/98/98 97/97/97
f 92/92/92 96/96/96 98/98/98
f 101/101/101 100/100/100 99/99/99
f 102/102/102 101/101/101 99/99/99
f 102/102/102 99/99/99 103/103/103
f 101/101/101 104/104/104 100/100/100
f 104/104/104 105/105/105 100/100/100
f 106/106/106 102/102/102 103/103/103
f 106/106/106 103/103/103 107/107/107
f 104/104/104 108/108/108 105/105/105
f 108/108/108 109/109/109 105/105/105
f 110/110/110 106/106/106 107/107/107
f 110/110/110 107/107/107 111/111/111
f 108/108/108 112/112/112 109/109/109
f 112/112/112 113/113/113 109/109/109
f 114/114/114 111/111/111 113/113/113
f 114/114/114 110/110/110 111/111/111
f 112/112/112 114/114/114 113/113/113
f 115/115/115 104/104/104 101/101/101
f 116/116/116 101/101/101 102/102/102
f 116/116/116 115/115/115 101/101/101
f 117/117/117 102/102/102 106/106/106
f 117/117/117 116/116/116 102/102/102
f 118/118/118 108/108/108 104/104/104
f 115/115/115 118/118/118 104/104/104
f 119/119/119 106/106/106 110/110/110
f 119/119/119 117/117/117 106/106/106
f 120/120/120 110/110/110 114/114/114
f 120/120/120 119/119/119 110/110/110
f 121/121/121 114/114/114 112/112/112
f 121/121/121 120/120/120 114/114/114
f 122/122/122 112/112/112 108/108/108
f 118/118/118 122/122/122 108/108/108
f 122/122/122 121/121/121 112/112/112
f 123/123/123 115/115/115 116/116/116
f 124/124/124 116/116/116 117/117/117
f 124/124/124 123/123/123 116/116/116
f 125/125/125 117/117/117 119/119/119
f 125/125/125 124/124/124 117/117/117
f 126/126/126 119/119/119 120/120/120
f 126/126/126 125/125/125 119/119/119
f 127/127/127 118/118/118 115/115/115
f 123/123/123 127/127/127 115/115/115
f 128/128/128 120/120/120 121/121/121
f 128/128/128 126/126/126 120/120/120
f 129/129/129 121/121/121 122/122/122
f 129/129/129 128/128/128 121/121/121
f 130/130/130 122/122/122 118/118/118
f 127/127/127 130/130/130 118/118/118
f 130/130/130 129/129/129 122/122/122
f 131/131/131 123/123/123 124/124/124
f 132/132/132 124/124/124 125/125/125
f 132/132/132 131/131/131 124/124/124
f 133/133/133 125/125/125 126/126/126
f 133/133/133 132/132/132 125/125/125
f 134/134/134 126/126/126 128/128/128
f 134/134/134 133/133/133 126/126/126
f 135/135/135 127/127/127 123/123/123
f 131/131/131 135/135/135 123/123/123
f 136/136/136 128/128/128 129/129/129
f 136/136/136 134/134/134 128/128/128
f 137/137/137 129/129/129 130/130/130
f 137/137/137 136/136/136 129/129/129
f 138/138/138 130/130/130 127/127/127
f 135/135/135 138/138/138 127/127/127
f 138/138/138 137/137/137 130/130/130
f 139/139/139 131/131/131 132/132/132
f 140/140/140 132/132/132 133/133/133
f 140/140/140 139/139/139 132/132/132
f 141/141/141 139/139/139 140/140/140
f 139/139/139 142/142/142 131/131/131
f 142/142/142 135/135/135 131/131/131
f 141/141/141 142/142/142 139/139/139
f 143/143/143 140/140/140 133/133/133
f 143/143/143 133/133/133 134/134/134
f 141/141/141 140/140/140 143/143/143
f 142/142/142 144/144/144 135/135/135
f 144/144/144 138/138/138 135/135/135
f 141/141/141 144/144/144 142/142/142
f 145/145/145 143/143/143 134/134/134
f 141/141/141 143/143/143 145/145/145
f 145/145/145 134/134/134 136/136/136
f 144/144/144 146/146/146 138/138/138
f 146/146/146 137/137/137 138/138/138
f 141/141/141 146/146/146 144/144/144
f 147/147/147 145/145/145 136/136/136
f 147/147/147 136/136/136 137/137/137
f 146/146/146 147/147/147 137/137/137
f 141/141/141 147/147/147 146/146/146
f 141/141/141 145/145/145 147/147/147
f 150/150/150 149/149/149 148/148/148
f 151/151/151 150/150/150 148/148/148
f 148/148/148 149/149/149 152/152/152
f 153/153/153 150/150/150 151/151/151
f 154/154/154 153/153/153 151/151/151
f 149/149/149 155/155/155 152/152/152
f 152/152/152 155/155/155 156/156/156
f 157/157/157 153/153/153 154/154/154
f 158/158/158 157/157/157 154/154/154
f 155/155/155 159/159/159 156/156/156
f 156/156/156 159/159/159 160/160/160
f 161/161/161 157/157/157 158/158/158
f 162/162/162 161/161/161 158/158/158
f 160/160/160 163/163/163 162/162/162
f 159/159/159 163/163/163 160/160/160
f 163/163/163 161/161/161 162/162/162
f 153/153/153 164/164/164 150/150/150
f 150/150/150 165/165/165 149/149/149
f 164/164/164 165/165/165 150/150/150
f 149/149/149 166/166/166 155/155/155
f 165/165/165 166/166/166 149/149/149
f 157/157/157 167/167/167 153/153/153
f 167/167/167 164/164/164 153/153/153
f 155/155/155 168/168/168 159/159/159
f 166/166/166 168/168/168 155/155/155
f 161/161/161 169/169/169 157/157/157
f 169/169/169 167/167/167 157/157/157
f 163/163/163 170/170/170 161/161/161
f 170/170/170 169/169/169 161/161/161
f 159/159/159 171/171/171 163/163/163
f 168/168/168 171/171/171 159/159/159
f 171/171/171 170/170/170 163/163/163
f 164/164/164 172/172/172 165/165/165
f 165/165/165 173/173/173 166/166/166
f 172/172/172 173/173/173 165/165/165
f 167/167/167 174/174/174 164/164/164
f 174/174/174 172/172/172 164/164/164
f 169/169/169 175/175/175 167/167/167
f 175/175/175 174/174/174 167/167/167
f 166/166/166 176/176/176 168/168/168
f 173/173/173 176/176/176 166/166/166
f 170/170/170 177/177/177 169/169/169
f 177/177/177 175/175/175 169/169/169
f 171/171/171 178/178/178 170/170/170
f 178/178/178 177/177/177 170/170/170
f 168/168/168 179/179/179 171/171/171
f 176/176/176 179/179/179 168/168/168
f 179/179/179 178/178/178 171/171/171
f 172/172/172 180/180/180 173/173/173
f 174/174/174 181/181/181 172/172/172
f 181/181/181 180/180/180 172/172/172
f 175/175/175 182/182/182 174/174/174
f 182/182/182 181/181/181 174/174/174
f 177/177/177 183/183/183 175/175/175
f 183/183/183 182/182/182 175/175/175
f 173/173/173 184/184/184 176/176/176
f 180/180/180 184/184/184 173/173/173
f 178/178/178 185/185/185 177/177/177
f 185/185/185 183/183/183 177/177/177
f 179/179/179 186/186/186 178/178/178
f 186/186/186 185/185/185 178/178/178
f 176/176/176 187/187/187 179/179/179
f 184/184/184 187/187/187 176/176/176
f 187/187/187 186/186/186 179/179/179
f 181/181/181 188/188/188 180/180/180
f 182/182/182 189/189/189 181/181/181
f 189/189/189 188/188/188 181/181/181
f 189/189/189 190/190/190 188/188/188
f 188/188/188 191/191/191 180/180/180
f 180/180/180 191/191/191 184/184/184
f 188/188/188 190/190/190 191/191/191
f 192/192/192 189/189/189 182/182/182
f 183/183/183 192/192/192 182/182/182
f 192/192/192 190/190/190 189/189/189
f 191/191/191 193/193/193 184/184/184
f 184/184/184 193/193/193 187/187/187
f 191/191/191 190/190/190 193/193/193
f 194/194/194 192/192/192 183/183/183
f 194/194/194 190/190/190 192/192/192
f 185/185/185 194/194/194 183/183/183
f 193/193/193 195/195/195 187/187/187
f 187/187/187 195/195/195 186/186/186
f 193/193/193 190/190/190 195/195/195
f 196/196/196 194/194/194 185/185/185
f 186/186/186 196/196/196 185/185/185
f 195/195/195 196/196/196 186/186/186
f 196/196/196 190/190/190 194/194/194
f 195/195/195 190/190/190 196/196/196
