g hat_Ribbon
v -0.008955121 4.2595134 1.1144814
v -0.0026015043 4.3929386 0.7650335
v 0.31507844 4.4310603 0.6887902
v -0.32663512 4.437414 0.6887902
v 0.53110087 4.310342 0.98740935
v 0.5374544 4.5073037 0.517243
v -0.5490111 4.323049 0.98740935
v -0.5426575 4.520011 0.517243
v 0.0037521124 3.6940427 0.98740935
v 0.9186704 4.450121 0.6824367
v 0.5819296 4.647083 0.21862388
v -0.9238734 4.462828 0.6887902
v -0.5807791 4.65979 0.2249775
v 0.57557607 3.7766395 0.84763026
v 1.0012672 4.6788507 0.21227026
v 0.49933285 4.7614474 -0.010105729
v -0.56807184 3.7893467 0.84127665
v -1.0001166 4.691558 0.21227026
v -0.4981823 4.7678013 -0.0037521124
v 0.9631456 3.992662 0.5045359
v 0.8487808 4.8631053 -0.17529929
v 0.30237126 4.8249836 -0.14353132
v 0.0037521124 3.9863086 0.5871327
v 0.30237126 4.037137 0.51088953
v -0.30122066 4.043491 0.51088953
v 0.49933285 4.151502 0.33298874
v 1.0584496 4.310342 0.0026015043
v 0.55016166 4.329403 0.05343032
v -0.9619951 4.005369 0.5045359
v -0.5045359 4.1578555 0.33298874
v 0.8996096 4.564486 -0.38496804
v 0.46756482 4.469182 -0.14988482
v -1.0572991 4.323049 0.008955121
v -0.5490111 4.34211 0.059783936
v 0.51204 4.9838233 -0.41673607
v 0.0037521124 4.8631053 -0.21342087
v 0.56286883 4.7169724 -0.60734403
v 0.29601765 4.5390716 -0.25789607
v -0.8539839 4.8758125 -0.17529929
v -0.30122066 4.831337 -0.14353132
v -0.9048126 4.5771933 -0.37226087
v -0.46641433 4.469182 -0.14988482
v -0.51088953 4.990177 -0.41673607
v -0.0026015043 5.041006 -0.53110087
v -0.0026015043 4.8059225 -0.7407696
v -0.0026015043 4.5899005 -0.33413923
v -0.29486704 4.545425 -0.25789607
v -0.5617182 4.7233257 -0.6009904
v 0.49297923 4.74874 -0.40402883
v 0.39132166 5.028299 -0.36590725
v 0.68358725 4.9647627 -0.28331047
v 0.41673607 5.085481 -0.50568646
v 0.7788912 5.009238 -0.41038245
v 0.72806245 4.6979117 -0.63911206
v 0.43579686 4.7678013 -0.7153552
v 0.8043056 4.8567514 -0.6200512
v 0.6454656 5.028299 -0.60734403
v 0.44850403 4.932995 -0.7153552
v -0.1360271 4.755094 -0.93137765
v -0.16779506 4.894873 -0.76618403
v 0.1816529 4.8122764 -0.45485765
v 0.09270251 4.7296796 -0.9123168
v -0.12967348 4.97747 -0.6454656
v 0.09270251 4.9647627 -0.8678416
v 0.34684646 4.97747 -0.8106592
v 0.17529929 5.0981884 -0.7153552
v 0.26424968 4.736033 -0.8487808
v 0.8043056 4.850398 -0.46756482
v -0.19320953 5.0918345 -0.5565152
v 0.33413923 5.1553707 -0.5819296
v 0.07364166 5.2252603 -0.56286883
v 0.23248172 5.1426635 -0.34684646
v -0.1805023 5.231614 -0.39767528
v 0.054580927 5.2061996 -0.34049284
v 1.2617648 4.437414 -0.5565152
v 0.7852448 4.6724973 -0.29601765
v 1.2681184 4.5708394 -0.38496804
v 1.0711567 4.5073037 -0.6518192
v 1.210936 4.6788507 -0.2896641
v 1.1728144 4.7233257 -0.5819296
v 0.956792 4.837691 -0.6454656
v 1.083864 4.894873 -0.47391844
v 0.9186704 4.5899005 -0.67723364
v 0.35320008 4.9520555 -0.58828324
v 1.2554111 4.7614474 -0.17529929
v 0.9186704 5.021945 -0.42308962
v 1.1346928 4.990177 -0.28331047
v 0.84242725 5.0028844 -0.1816529
v 1.2236432 4.9139338 -0.022812843
v 1.0076208 4.9965305 -0.08634889
vt 0.5976304 0.4647205
vt 0.5976304 0.4647205
vt 0.5976304 0.4647205
vt 0.5976304 0.4647205
vt 0.5976304 0.4647205
vt 0.5976304 0.4647205
vt 0.5976304 0.4647205
vt 0.5976304 0.4647205
vt 0.5976304 0.4647205
vt 0.5976304 0.4647205
vt 0.5976304 0.4647205
vt 0.5976304 0.4647205
vt 0.5976304 0.4647205
vt 0.5976304 0.4647205
vt 0.5976304 0.4647205
vt 0.5976304 0.4647205
vt 0.5976304 0.4647205
vt 0.5976304 0.4647205
vt 0.5976304 0.4647205
vt 0.5976304 0.4647205
vt 0.5976304 0.4647205
vt 0.5976304 0.4647205
vt 0.5976304 0.4647205
vt 0.5976304 0.4647205
vt 0.5976304 0.4647205
vt 0.5976304 0.4647205
vt 0.5976304 0.4647205
vt 0.5976304 0.4647205
vt 0.5976304 0.4647205
vt 0.5976304 0.4647205
vt 0.5976304 0.4647205
vt 0.5976304 0.4647205
vt 0.5976304 0.4647205
vt 0.5976304 0.4647205
vt 0.5976304 0.4647205
vt 0.5976304 0.4647205
vt 0.5976304 0.4647205
vt 0.5976304 0.4647205
vt 0.5976304 0.4647205
vt 0.5976304 0.4647205
vt 0.5976304 0.4647205
vt 0.5976304 0.4647205
vt 0.5976304 0.4647205
vt 0.5976304 0.4647205
vt 0.5976304 0.4647205
vt 0.5976304 0.4647205
vt 0.5976304 0.4647205
vt 0.5976304 0.4647205
vt 0.5976304 0.4647205
vt 0.5976304 0.4647205
vt 0.5976304 0.4647205
vt 0.5976304 0.4647205
vt 0.5976304 0.4647205
vt 0.5976304 0.4647205
vt 0.5976304 0.4647205
vt 0.5976304 0.4647205
vt 0.5976304 0.4647205
vt 0.5976304 0.4647205
vt 0.5976304 0.4647205
vt 0.5976304 0.4647205
vt 0.5976304 0.4647205
vt 0.5976304 0.4647205
vt 0.5976304 0.4647205
vt 0.5976304 0.4647205
vt 0.5976304 0.4647205
vt 0.5976304 0.4647205
vt 0.5976304 0.4647205
vt 0.5976304 0.4647205
vt 0.5976304 0.4647205
vt 0.5976304 0.4647205
vt 0.5976304 0.4647205
vt 0.5976304 0.4647205
vt 0.5976304 0.4647205
vt 0.5976304 0.4647205
vt 0.5976304 0.4647205
vt 0.5976304 0.4647205
vt 0.5976304 0.4647205
vt 0.5976304 0.4647205
vt 0.5976304 0.4647205
vt 0.5976304 0.4647205
vt 0.5976304 0.4647205
vt 0.5976304 0.4647205
vt 0.5976304 0.4647205
vt 0.5976304 0.4647205
vt 0.5976304 0.4647205
vt 0.5976304 0.4647205
vt 0.5976304 0.4647205
vt 0.5976304 0.4647205
vt 0.5976304 0.4647205
vt 0.5976304 0.4647205
vn -0.0037566423 0.22047263 0.9753859
vn 0.058162212 0.9325394 0.35635293
vn -0.03471607 0.9015799 0.43121737
vn -0.0037566423 0.9325394 0.36104867
vn 0.36775643 0.43718857 0.8207444
vn -0.03471607 0.9015799 0.43121737
vn -0.34431034 0.3752697 0.8605946
vn 0.027202785 0.9325394 0.36004204
vn 0.24391872 -0.89406663 0.37569737
vn 0.6463913 0.49910742 0.57712233
vn -0.06567556 0.9015799 0.42759836
vn -0.6539046 0.46814805 0.5943452
vn 0.058162212 0.9015799 0.42868495
vn 0.42967528 -0.8631072 0.26537725
vn 0.67735064 0.6539046 0.3370532
vn -0.06567556 0.87062055 0.48755157
vn -0.4062292 -0.8631072 0.30003968
vn -0.684864 0.684864 0.24884266
vn 0.058162212 0.87062055 0.48850483
vn 0.7083101 -0.67735064 -0.19872807
vn 0.5844724 0.8087017 -0.06628362
vn -0.03471607 0.87062055 0.49072868
vn -0.03471607 -0.7702289 -0.6368219
vn -0.03471607 -0.80118835 -0.5974044
vn 0.058162212 -0.80118835 -0.595579
vn -0.06567556 -0.80118835 -0.59479743
vn 0.7702289 -0.52255356 -0.36562982
vn -0.06567556 -0.8321478 -0.55065125
vn -0.71582335 -0.67735064 0.16968511
vn 0.058162212 -0.8321478 -0.55149543
vn 0.6463913 -0.27487814 -0.7117727
vn -0.06567556 -0.8631072 -0.5007321
vn -0.7777422 -0.49159414 -0.3917298
vn 0.058162212 -0.8321478 -0.55149543
vn 0.30583757 0.9325394 -0.19192094
vn 0.058162212 0.87062055 0.48850483
vn 0.336797 -0.18199986 -0.9238202
vn -0.06567556 -0.8631072 -0.5007321
vn -0.5610263 0.8087017 -0.17677973
vn 0.058162212 0.87062055 0.48850483
vn -0.6539046 -0.27487814 -0.7048764
vn 0.058162212 -0.8631072 -0.50166035
vn -0.251432 0.9325394 -0.25913742
vn 0.18199986 0.9634988 -0.19633172
vn -0.0037566423 0.15855378 -0.9873432
vn -0.0037566423 -0.89406663 -0.4479182
vn 0.027202785 -0.89406663 -0.44710723
vn -0.34431034 -0.18199986 -0.9210464
vn -0.3752697 -0.7392695 0.55915403
vn -0.684864 0.34431034 0.6421929
vn 0.336797 0.12759441 0.93289196
vn -0.62294513 0.7777422 -0.08400247
vn 0.80118835 0.43718857 0.40861157
vn 0.52255356 -0.7702289 -0.36562982
vn -0.5610263 -0.49159414 -0.6660215
vn 0.89406663 0.0037566423 -0.44791824
vn 0.336797 0.7777422 -0.5307399
vn -0.43718857 0.34431034 -0.8308529
vn -0.6539046 -0.4606347 -0.600187
vn -0.99186915 0.12726222 -0
vn -0.18951315 -0.7392695 0.64619297
vn 0.08912164 -0.7083101 -0.70025283
vn -0.99445826 0.03471607 -0.09923498
vn -0.06567556 0.5610263 -0.8251886
vn 0.4606347 0.49910742 -0.73396695
vn 0.058162212 0.74678284 -0.6625198
vn 0.336797 -0.7083101 -0.6203745
vn 0.9559855 -0.18199986 0.23014736
vn -0.9634988 0.0037566423 -0.2676864
vn 0.4606347 0.83966106 -0.28772384
vn -0.03471607 0.9325394 -0.3593954
vn 0.24391872 0.46814805 0.849318
vn -0.74678284 0.49910742 0.4395534
vn -0.0037566423 0.5300669 0.8479475
vn 0.6154318 -0.7392695 -0.27335748
vn -0.49910742 -0.67735064 0.5404516
vn 0.8321478 -0.30583757 0.4625943
vn -0.03471607 -0.67735064 -0.73484075
vn 0.80118835 -0.39871585 0.4462319
vn 0.7083101 0.3752697 -0.59788746
vn 0.21295929 0.5610263 -0.7999361
vn 0.6154318 0.62294513 -0.48289034
vn -0.251432 -0.5844724 -0.7714752
vn -0.9325394 0.251432 -0.25913742
vn 0.8631072 -0.42967528 0.26537728
vn 0.12008107 0.9015799 -0.41561306
vn 0.6154318 0.7777422 -0.12790918
vn -0.4062292 0.62294513 0.66851866
vn 0.55351293 0.18951315 0.81099206
vn -0.18951315 0.59198576 0.7833502
g hat_Ribbon_0
f 3/3/3 2/2/2 1/1/1
f 2/2/2 4/4/4 1/1/1
f 5/5/5 3/3/3 1/1/1
f 6/6/6 3/3/3 5/5/5
f 4/4/4 7/7/7 1/1/1
f 4/4/4 8/8/8 7/7/7
f 5/5/5 1/1/1 9/9/9
f 1/1/1 7/7/7 9/9/9
f 10/10/10 6/6/6 5/5/5
f 11/11/11 6/6/6 10/10/10
f 8/8/8 12/12/12 7/7/7
f 8/8/8 13/13/13 12/12/12
f 14/14/14 5/5/5 9/9/9
f 10/10/10 5/5/5 14/14/14
f 15/15/15 11/11/11 10/10/10
f 16/16/16 11/11/11 15/15/15
f 7/7/7 17/17/17 9/9/9
f 7/7/7 12/12/12 17/17/17
f 13/13/13 18/18/18 12/12/12
f 13/13/13 19/19/19 18/18/18
f 20/20/20 10/10/10 14/14/14
f 15/15/15 10/10/10 20/20/20
f 21/21/21 16/16/16 15/15/15
f 22/22/22 16/16/16 21/21/21
f 9/9/9 23/23/23 14/14/14
f 23/23/23 9/9/9 17/17/17
f 23/23/23 24/24/24 14/14/14
f 14/14/14 24/24/24 20/20/20
f 25/25/25 23/23/23 17/17/17
f 24/24/24 26/26/26 20/20/20
f 27/27/27 15/15/15 20/20/20
f 20/20/20 26/26/26 27/27/27
f 21/21/21 15/15/15 27/27/27
f 26/26/26 28/28/28 27/27/27
f 25/25/25 17/17/17 29/29/29
f 12/12/12 29/29/29 17/17/17
f 30/30/30 25/25/25 29/29/29
f 12/12/12 18/18/18 29/29/29
f 27/27/27 28/28/28 31/31/31
f 31/31/31 21/21/21 27/27/27
f 28/28/28 32/32/32 31/31/31
f 30/30/30 29/29/29 33/33/33
f 18/18/18 33/33/33 29/29/29
f 34/34/34 30/30/30 33/33/33
f 35/35/35 21/21/21 31/31/31
f 35/35/35 22/22/22 21/21/21
f 36/36/36 22/22/22 35/35/35
f 31/31/31 32/32/32 37/37/37
f 37/37/37 35/35/35 31/31/31
f 32/32/32 38/38/38 37/37/37
f 18/18/18 39/39/39 33/33/33
f 19/19/19 39/39/39 18/18/18
f 19/19/19 40/40/40 39/39/39
f 34/34/34 33/33/33 41/41/41
f 39/39/39 41/41/41 33/33/33
f 42/42/42 34/34/34 41/41/41
f 40/40/40 43/43/43 39/39/39
f 40/40/40 36/36/36 43/43/43
f 39/39/39 43/43/43 41/41/41
f 44/44/44 36/36/36 35/35/35
f 44/44/44 35/35/35 37/37/37
f 36/36/36 44/44/44 43/43/43
f 37/37/37 38/38/38 45/45/45
f 45/45/45 44/44/44 37/37/37
f 38/38/38 46/46/46 45/45/45
f 46/46/46 47/47/47 45/45/45
f 42/42/42 41/41/41 48/48/48
f 43/43/43 48/48/48 41/41/41
f 43/43/43 44/44/44 48/48/48
f 44/44/44 45/45/45 48/48/48
f 47/47/47 48/48/48 45/45/45
f 47/47/47 42/42/42 48/48/48
f 51/51/51 50/50/50 49/49/49
f 50/50/50 51/51/51 52/52/52
f 50/50/50 52/52/52 49/49/49
f 51/51/51 49/49/49 53/53/53
f 51/51/51 53/53/53 52/52/52
f 49/49/49 54/54/54 53/53/53
f 55/55/55 54/54/54 49/49/49
f 52/52/52 55/55/55 49/49/49
f 54/54/54 56/56/56 53/53/53
f 56/56/56 54/54/54 55/55/55
f 53/53/53 57/57/57 52/52/52
f 53/53/53 56/56/56 57/57/57
f 52/52/52 58/58/58 55/55/55
f 58/58/58 52/52/52 57/57/57
f 56/56/56 58/58/58 57/57/57
f 58/58/58 56/56/56 55/55/55
f 61/61/61 60/60/60 59/59/59
f 59/59/59 62/62/62 61/61/61
f 61/61/61 63/63/63 60/60/60
f 60/60/60 64/64/64 59/59/59
f 62/62/62 59/59/59 64/64/64
f 60/60/60 63/63/63 64/64/64
f 62/62/62 64/64/64 65/65/65
f 63/63/63 66/66/66 64/64/64
f 65/65/65 64/64/64 66/66/66
f 67/67/67 62/62/62 65/65/65
f 62/62/62 67/67/67 61/61/61
f 65/65/65 68/68/68 67/67/67
f 66/66/66 68/68/68 65/65/65
f 68/68/68 61/61/61 67/67/67
f 63/63/63 69/69/69 66/66/66
f 61/61/61 69/69/69 63/63/63
f 66/66/66 70/70/70 68/68/68
f 69/69/69 71/71/71 66/66/66
f 71/71/71 70/70/70 66/66/66
f 70/70/70 72/72/72 68/68/68
f 72/72/72 61/61/61 68/68/68
f 70/70/70 71/71/71 72/72/72
f 69/69/69 73/73/73 71/71/71
f 61/61/61 73/73/73 69/69/69
f 71/71/71 74/74/74 72/72/72
f 71/71/71 73/73/73 74/74/74
f 74/74/74 61/61/61 72/72/72
f 74/74/74 73/73/73 61/61/61
f 77/77/77 76/76/76 75/75/75
f 78/78/78 75/75/75 76/76/76
f 79/79/79 76/76/76 77/77/77
f 80/80/80 77/77/77 75/75/75
f 75/75/75 78/78/78 80/80/80
f 79/79/79 77/77/77 80/80/80
f 81/81/81 80/80/80 78/78/78
f 82/82/82 79/79/79 80/80/80
f 80/80/80 81/81/81 82/82/82
f 83/83/83 81/81/81 78/78/78
f 83/83/83 78/78/78 76/76/76
f 84/84/84 81/81/81 83/83/83
f 84/84/84 82/82/82 81/81/81
f 76/76/76 84/84/84 83/83/83
f 85/85/85 76/76/76 79/79/79
f 79/79/79 82/82/82 85/85/85
f 86/86/86 82/82/82 84/84/84
f 82/82/82 87/87/87 85/85/85
f 86/86/86 87/87/87 82/82/82
f 88/88/88 86/86/86 84/84/84
f 76/76/76 88/88/88 84/84/84
f 87/87/87 86/86/86 88/88/88
f 89/89/89 85/85/85 87/87/87
f 89/89/89 76/76/76 85/85/85
f 76/76/76 90/90/90 88/88/88
f 90/90/90 87/87/87 88/88/88
f 89/89/89 87/87/87 90/90/90
f 89/89/89 90/90/90 76/76/76
