g hat_FedoraBrown
v -0.0727582 4.7520895 -0.9613482
v -0.56395876 4.5905104 -0.81915855
v -0.5122534 4.351373 -0.94195867
v -0.0016633272 4.519416 -1.0776851
v -0.5122534 4.351373 -0.94195867
v -0.5187166 4.331984 -1.2134116
v -1.0745488 4.092847 -0.7868427
v -0.8935801 4.176868 -0.5735583
v 0.19223154 4.5452685 -1.2586538
v -0.0016633272 4.3836894 0.0016633272
v -1.2942964 3.8924885 -0.101747274
v 0.8320849 4.648679 -0.89671654
v 0.48953712 4.6680684 -0.94842184
v -0.0727582 4.7520895 -0.9613482
v -1.0486962 4.0411415 -0.043578744
v -1.0874752 4.2867417 0.027516007
v -1.1133276 3.7955413 0.615664
v -0.9323591 4.0023627 0.4476217
v 0.8514744 4.7133107 -0.54770565
v 0.4119792 4.887816 -0.7933059
v 1.2004852 4.6228266 -0.25040007
v -0.15677929 4.9847636 -0.7157479
v -0.56395876 4.5905104 -0.81915855
v -0.5574956 4.842574 -0.59941095
v 0.96781135 4.6228266 0.12446356
v 1.1810958 4.4677105 0.47993755
v 0.84501123 4.525879 0.5962745
v 0.8708639 4.849037 0.19555831
v 0.7609901 4.9201317 -0.38612652
v 0.96781135 4.6228266 0.12446356
v 0.52831614 5.1075635 -0.21808422
v 0.2439369 5.081711 -0.56063193
v -0.2408005 5.2174373 -0.43783182
v -0.5574956 4.842574 -0.59941095
v 0.78037953 4.2350364 1.0616225
v 0.043578744 5.3467007 -0.2439369
v 0.74806374 4.7456264 0.654443
v 0.483074 4.34491 0.9969908
v 0.13406312 3.9958992 1.3460017
v 0.62526363 5.0558586 0.22787416
v 0.23101056 5.353164 0.28604257
v -0.58334816 3.83432 1.1456436
v -0.06629503 4.1510153 1.1068646
v -0.5768851 4.0346785 0.9065064
v 0.38612652 4.571121 1.0163802
v 0.50246346 4.958911 0.60273767
v 0.004799843 5.1786585 0.69322205
v -0.13092673 4.3966155 1.126254
v -0.62859035 4.2802787 0.9323591
v 0.23101056 4.8361106 0.8935801
v -0.21494782 4.693921 0.9517485
v -0.26665318 4.965374 0.8030957
v -0.9517485 4.2414994 0.49932706
v -0.615664 4.5905104 0.8224853
v -0.5768851 5.1786585 -0.28917903
v -0.8677274 4.5646577 0.46054804
v -0.60920084 5.0106163 0.64797986
v -0.8030957 5.075248 0.20848465
v -0.9905275 4.596974 0.09214771
v -0.8677274 4.7068477 -0.34088433
v -0.9388224 4.422468 -0.4960003
v -0.56395876 4.5905104 -0.81915855
v -0.5122534 4.351373 -0.94195867
vt 0.90825546 0.9694195
vt 0.90825546 0.9694195
vt 0.90825546 0.9694195
vt 0.90825546 0.9694195
vt 0.90825546 0.9694195
vt 0.90825546 0.9694195
vt 0.90825546 0.9694195
vt 0.90825546 0.9694195
vt 0.90825546 0.9694195
vt 0.90825546 0.9694195
vt 0.90825546 0.9694195
vt 0.90825546 0.9694195
vt 0.90825546 0.9694195
vt 0.90825546 0.9694195
vt 0.90825546 0.9694195
vt 0.90825546 0.9694195
vt 0.90825546 0.9694195
vt 0.90825546 0.9694195
vt 0.90825546 0.9694195
vt 0.90825546 0.9694195
vt 0.90825546 0.9694195
vt 0.90825546 0.9694195
vt 0.90825546 0.9694195
vt 0.90825546 0.9694195
vt 0.90825546 0.9694195
vt 0.90825546 0.9694195
vt 0.90825546 0.9694195
vt 0.90825546 0.9694195
vt 0.90825546 0.9694195
vt 0.90825546 0.9694195
vt 0.90825546 0.9694195
vt 0.90825546 0.9694195
vt 0.90825546 0.9694195
vt 0.90825546 0.9694195
vt 0.90825546 0.9694195
vt 0.90825546 0.9694195
vt 0.90825546 0.9694195
vt 0.90825546 0.9694195
vt 0.90825546 0.9694195
vt 0.90825546 0.9694195
vt 0.90825546 0.9694195
vt 0.90825546 0.9694195
vt 0.90825546 0.9694195
vt 0.90825546 0.9694195
vt 0.90825546 0.9694195
vt 0.90825546 0.9694195
vt 0.90825546 0.9694195
vt 0.90825546 0.9694195
vt 0.90825546 0.9694195
vt 0.90825546 0.9694195
vt 0.90825546 0.9694195
vt 0.90825546 0.9694195
vt 0.90825546 0.9694195
vt 0.90825546 0.9694195
vt 0.90825546 0.9694195
vt 0.90825546 0.9694195
vt 0.90825546 0.9694195
vt 0.90825546 0.9694195
vt 0.90825546 0.9694195
vt 0.90825546 0.9694195
vt 0.90825546 0.9694195
vt 0.90825546 0.9694195
vt 0.90825546 0.9694195
vn -0.15111244 0.58982384 -0.7932672
vn -0.5584873 0.4018047 -0.72570306
vn -0.52715075 0.7151699 -0.45895976
vn -0.21378541 0.80917954 -0.5472881
vn -0.52715075 0.7151699 -0.45895976
vn -0.2764585 -0.068243325 -0.9585998
vn -0.7151699 -0.25626254 -0.65027803
vn -0.777843 0.58982384 -0.21695188
vn 0.28759903 -0.03690678 -0.95703954
vn 0.25626254 -0.9456662 -0.20011237
vn -0.9031892 -0.41294515 -0.117156215
vn 0.75764704 -0.005570233 -0.65264076
vn 0.13091642 0.8405161 -0.5257315
vn -0.15111244 0.58982384 -0.7932672
vn -0.87185264 0.46447766 0.15534961
vn -0.9971987 0.0571028 0.048311498
vn -0.74650645 -0.53829134 0.3911145
vn -0.8405161 0.37046814 0.39533037
vn 0.47561824 0.8405161 -0.25946096
vn 0.28759903 0.7151699 -0.6370391
vn 0.97700274 0.0571028 -0.20543836
vn -0.18244898 0.7151699 -0.67471796
vn -0.5584873 0.4018047 -0.72570306
vn -0.5584873 0.5584873 -0.6133383
vn 0.63230085 0.74650645 0.20718047
vn 0.97700274 -0.09957987 0.18854575
vn 0.5696278 0.6211604 0.5382229
vn 0.82032007 0.5584873 0.123154126
vn 0.6636374 0.6838335 -0.30324438
vn 0.63230085 0.74650645 0.20718047
vn 0.5069548 0.8405161 -0.19112703
vn 0.224926 0.80917954 -0.54280454
vn -0.21378541 0.87185264 -0.4406459
vn -0.5584873 0.5584873 -0.6133383
vn 0.69497395 -0.25626254 0.671819
vn -0.025766253 0.9658623 -0.25777158
vn 0.69497395 0.46447766 0.54888225
vn 0.25626254 0.4958142 0.8297577
vn 0.224926 -0.41294515 0.8825444
vn 0.60096437 0.777843 0.18385361
vn 0.1622529 0.9658623 0.20195064
vn -0.37046814 -0.53829134 0.75696486
vn -0.18244898 0.37046814 0.9107501
vn -0.58982384 0.3391316 0.7328694
vn 0.35027212 0.30779505 0.8846308
vn 0.5069548 0.6838335 0.5247557
vn -0.088439345 0.8405161 0.5345196
vn -0.11977589 0.15111244 0.9812333
vn -0.6211604 0.0571028 0.7816003
vn 0.19358945 0.5584873 0.8066071
vn -0.21378541 0.43314123 0.8756052
vn -0.24512196 0.6838335 0.6872314
vn -0.9031892 0.025766253 0.42846864
vn -0.6211604 0.30779505 0.7207094
vn -0.43314123 0.87185264 -0.22860807
vn -0.87185264 0.2764585 0.40428168
vn -0.46447766 0.7151699 0.5222954
vn -0.65249693 0.74650645 0.13029128
vn -0.9345257 0.3391316 0.10794174
vn -0.80917954 0.43314123 -0.3970103
vn -0.87185264 0.21378541 -0.44064587
vn -0.5584873 0.4018047 -0.72570306
vn -0.52715075 0.7151699 -0.45895976
g hat_FedoraBrown_0
f 3/3/3 2/2/2 1/1/1
f 4/4/4 3/3/3 1/1/1
f 6/6/6 5/5/5 4/4/4
f 6/6/6 7/7/7 5/5/5
f 7/7/7 8/8/8 5/5/5
f 9/9/9 6/6/6 4/4/4
f 6/6/6 10/10/10 7/7/7
f 9/9/9 10/10/10 6/6/6
f 7/7/7 10/10/10 11/11/11
f 10/10/10 9/9/9 12/12/12
f 4/4/4 13/13/13 9/9/9
f 13/13/13 12/12/12 9/9/9
f 13/13/13 4/4/4 14/14/14
f 7/7/7 11/11/11 15/15/15
f 8/8/8 7/7/7 15/15/15
f 15/15/15 16/16/16 8/8/8
f 11/11/11 17/17/17 15/15/15
f 10/10/10 17/17/17 11/11/11
f 16/16/16 15/15/15 18/18/18
f 17/17/17 18/18/18 15/15/15
f 13/13/13 19/19/19 12/12/12
f 20/20/20 13/13/13 14/14/14
f 13/13/13 20/20/20 19/19/19
f 12/12/12 21/21/21 10/10/10
f 19/19/19 21/21/21 12/12/12
f 14/14/14 22/22/22 20/20/20
f 14/14/14 23/23/23 22/22/22
f 23/23/23 24/24/24 22/22/22
f 25/25/25 21/21/21 19/19/19
f 25/25/25 26/26/26 21/21/21
f 10/10/10 21/21/21 26/26/26
f 27/27/27 26/26/26 25/25/25
f 25/25/25 28/28/28 27/27/27
f 20/20/20 29/29/29 19/19/19
f 30/30/30 19/19/19 29/29/29
f 28/28/28 30/30/30 29/29/29
f 31/31/31 29/29/29 20/20/20
f 29/29/29 31/31/31 28/28/28
f 22/22/22 32/32/32 20/20/20
f 32/32/32 31/31/31 20/20/20
f 32/32/32 22/22/22 33/33/33
f 33/33/33 22/22/22 34/34/34
f 10/10/10 26/26/26 35/35/35
f 35/35/35 26/26/26 27/27/27
f 31/31/31 32/32/32 36/36/36
f 36/36/36 32/32/32 33/33/33
f 28/28/28 37/37/37 27/27/27
f 38/38/38 35/35/35 27/27/27
f 27/27/27 37/37/37 38/38/38
f 39/39/39 10/10/10 35/35/35
f 39/39/39 35/35/35 38/38/38
f 31/31/31 40/40/40 28/28/28
f 28/28/28 40/40/40 37/37/37
f 31/31/31 36/36/36 41/41/41
f 40/40/40 31/31/31 41/41/41
f 10/10/10 39/39/39 42/42/42
f 10/10/10 42/42/42 17/17/17
f 43/43/43 39/39/39 38/38/38
f 39/39/39 43/43/43 42/42/42
f 42/42/42 44/44/44 17/17/17
f 43/43/43 44/44/44 42/42/42
f 44/44/44 18/18/18 17/17/17
f 37/37/37 45/45/45 38/38/38
f 38/38/38 45/45/45 43/43/43
f 40/40/40 46/46/46 37/37/37
f 46/46/46 40/40/40 41/41/41
f 45/45/45 37/37/37 46/46/46
f 41/41/41 36/36/36 47/47/47
f 47/47/47 46/46/46 41/41/41
f 36/36/36 33/33/33 47/47/47
f 43/43/43 48/48/48 44/44/44
f 45/45/45 48/48/48 43/43/43
f 44/44/44 49/49/49 18/18/18
f 48/48/48 49/49/49 44/44/44
f 50/50/50 45/45/45 46/46/46
f 47/47/47 50/50/50 46/46/46
f 51/51/51 48/48/48 45/45/45
f 50/50/50 51/51/51 45/45/45
f 48/48/48 51/51/51 49/49/49
f 47/47/47 52/52/52 50/50/50
f 33/33/33 52/52/52 47/47/47
f 52/52/52 51/51/51 50/50/50
f 49/49/49 53/53/53 18/18/18
f 53/53/53 16/16/16 18/18/18
f 51/51/51 54/54/54 49/49/49
f 49/49/49 54/54/54 53/53/53
f 51/51/51 52/52/52 54/54/54
f 52/52/52 33/33/33 55/55/55
f 55/55/55 33/33/33 34/34/34
f 54/54/54 56/56/56 53/53/53
f 53/53/53 56/56/56 16/16/16
f 52/52/52 57/57/57 54/54/54
f 57/57/57 52/52/52 55/55/55
f 54/54/54 57/57/57 56/56/56
f 57/57/57 58/58/58 56/56/56
f 58/58/58 57/57/57 55/55/55
f 58/58/58 59/59/59 56/56/56
f 59/59/59 58/58/58 55/55/55
f 56/56/56 59/59/59 16/16/16
f 60/60/60 59/59/59 55/55/55
f 60/60/60 55/55/55 34/34/34
f 59/59/59 60/60/60 16/16/16
f 60/60/60 34/34/34 61/61/61
f 60/60/60 61/61/61 16/16/16
f 34/34/34 62/62/62 61/61/61
f 16/16/16 61/61/61 8/8/8
f 8/8/8 61/61/61 62/62/62
f 63/63/63 8/8/8 62/62/62
