g hat_StrawHat
v 0.2697178 5.07958 0.67507553
v 0.34448564 5.2291155 -0.23573244
v 0.6639482 4.998015 0.25365686
v 0.079399705 4.705741 -0.9358311
v -0.43038082 4.692147 -0.7998896
v -0.4643662 4.338699 -0.96301943
v 0.079399705 4.35909 -1.0989609
v -0.4643662 4.338699 -0.96301943
v -0.627496 4.3251047 -1.6427269
v -1.4295509 4.24354 -1.0649755
v -0.88578486 4.277525 -0.58918035
v 0.36487687 4.3251047 -1.6971035
v 0.04541433 4.209554 -0.004631877
v -1.7897959 4.100801 -0.14737046
v 1.2281053 4.2367425 -1.2145112
v 0.6027745 4.352293 -0.9698165
v 0.079399705 4.705741 -0.9358311
v -1.0693059 4.182366 -0.052211404
v -1.0013351 4.549408 0.0293535
v -1.5926807 3.9376712 0.81101704
v -0.97414684 4.1075983 0.44397497
v 0.9698165 4.291119 -0.56199205
v 0.5687891 4.6989436 -0.7727014
v 1.6903064 4.087207 -0.35128272
v 0.065805554 4.9436383 -0.69793355
v -0.43038082 4.692147 -0.7998896
v -0.355613 4.9232473 -0.5823833
v 1.0513813 4.161975 0.12451255
v 1.6087415 3.9308743 0.6206989
v 0.9086428 4.094004 0.6003077
v 0.98341066 4.535814 0.18568611
v 0.90184575 4.63777 -0.37847102
v 1.0513813 4.161975 0.12451255
v 0.738716 4.8756676 -0.21534121
v 0.466833 4.9232473 -0.5416008
v 0.04541433 5.256304 -0.39206517
v -0.355613 4.9232473 -0.5823833
v 1.0038018 3.808527 1.3955655
v 0.34448564 5.2291155 -0.23573244
v 0.6639482 4.998015 0.25365686
v 0.2697178 5.07958 0.67507553
v 0.8134838 4.8009 0.22646856
v -0.04294765 5.0455947 0.69546676
v 0.84746915 4.4746404 0.6342931
v 0.67074525 4.739726 0.58671355
v 0.5008184 4.0260334 1.0081322
v 0.079399705 3.7609472 1.7762017
v 0.45323884 4.4066696 0.99453807
v -0.899379 3.8153238 1.5111158
v -0.0837301 3.998845 1.1168854
v -0.6206989 4.0260334 0.91297317
v -0.07693303 4.386278 1.0964942
v -0.5731194 4.420264 0.9061761
v -0.07693303 4.692147 0.9265673
v -0.8789878 4.4746404 0.48475742
v -0.47116327 4.705741 0.7974229
v 0.37847102 4.6989436 0.8721907
v 0.2697178 5.07958 0.67507553
v 0.6639482 4.998015 0.25365686
v 0.8134838 4.8009 0.22646856
v -0.72265506 4.75332 0.44397497
v -0.355613 5.0999713 0.627496
v -0.2740481 5.249507 -0.28331196
v -0.6614814 5.0184064 0.15170074
v -0.8246112 4.814494 0.09052718
v -0.67507553 4.882465 -0.3308915
v -0.8178141 4.63777 -0.48042715
v -0.43038082 4.692147 -0.7998896
v -0.4643662 4.338699 -0.96301943
v 0.5280067 3.2443695 -0.3308915
v 0.5280067 3.2035875 -0.19494998
v 0.7183248 3.3259344 -0.16776168
v 0.7183248 3.35992 -0.2969061
v 0.17455876 3.1288195 -0.3580798
v 0.17455876 3.0948343 -0.22893536
v 0.37847102 3.1424136 -0.21534121
v 0.37847102 3.1763992 -0.34448564
v 1.0309901 3.8425121 -0.18135583
v 1.0309901 3.808527 -0.04541433
v 1.0785697 4.094004 0.022556424
v 1.0785697 4.1279893 -0.106588006
v 0.7183248 3.35992 -0.2969061
v 0.7183248 3.3259344 -0.16776168
v 0.90184575 3.5298467 -0.12018216
v 0.90184575 3.5638323 -0.24932659
v 0.37847102 3.1763992 -0.34448564
v 0.37847102 3.1424136 -0.21534121
v 0.5280067 3.2035875 -0.19494998
v 0.5280067 3.2443695 -0.3308915
v 0.90184575 3.5638323 -0.24932659
v 0.90184575 3.5298467 -0.12018216
v 1.0309901 3.808527 -0.04541433
v 1.0309901 3.8425121 -0.18135583
v 0.17455876 3.1288195 -0.3580798
v -0.0021651983 3.0948343 -0.22893536
v 0.17455876 3.0948343 -0.22893536
v -0.0021651983 3.1288195 -0.3580798
v -0.17209196 3.1288195 -0.3580798
v -0.17209196 3.0948343 -0.22893536
v 1.024193 4.100801 0.022556424
v 1.0785697 4.094004 0.022556424
v 1.0309901 3.808527 -0.04541433
v 0.98341066 3.8221211 -0.04541433
v 0.90184575 3.5298467 -0.12018216
v 0.8610633 3.557035 -0.11338508
v 0.7183248 3.3259344 -0.16776168
v 0.6843394 3.3667169 -0.16096461
v 0.5280067 3.2035875 -0.19494998
v 0.5008184 3.2511668 -0.18815291
v 0.37847102 3.1424136 -0.21534121
v 0.36487687 3.1899934 -0.20174706
v 0.17455876 3.0948343 -0.22893536
v 0.16776168 3.1424136 -0.21534121
v -0.0021651983 3.0948343 -0.22893536
v -0.0021651983 3.1424136 -0.21534121
v -0.16529489 3.1424136 -0.21534121
v -0.17209196 3.0948343 -0.22893536
v -0.36241007 3.1899934 -0.20174706
v -0.37600422 3.1424136 -0.21534121
v -0.50514865 3.2511668 -0.18815291
v -0.5255399 3.2035875 -0.19494998
v -0.6818726 3.3667169 -0.16096461
v -0.715858 3.3259344 -0.16776168
v -0.85859656 3.557035 -0.11338508
v -0.9061761 3.5298467 -0.12018216
v -0.987741 3.8221211 -0.04541433
v -1.0353205 3.808527 -0.04541433
v -1.0285234 4.100801 0.022556424
v -1.076103 4.094004 0.022556424
v 0.98341066 3.8561063 -0.17455876
v 1.0785697 4.1279893 -0.106588006
v 1.024193 4.1347866 -0.106588006
v 1.0309901 3.8425121 -0.18135583
v 0.8610633 3.5910206 -0.24252951
v 0.90184575 3.5638323 -0.24932659
v 0.6843394 3.4007025 -0.29010904
v 0.7183248 3.35992 -0.2969061
v 0.5008184 3.285152 -0.31729734
v 0.5280067 3.2443695 -0.3308915
v 0.36487687 3.2239785 -0.3308915
v 0.37847102 3.1763992 -0.34448564
v 0.16776168 3.1763992 -0.34448564
v 0.17455876 3.1288195 -0.3580798
v -0.0021651983 3.1763992 -0.34448564
v -0.0021651983 3.1288195 -0.3580798
v -0.17209196 3.1288195 -0.3580798
v -0.16529489 3.1763992 -0.34448564
v -0.37600422 3.1763992 -0.34448564
v -0.36241007 3.2239785 -0.3308915
v -0.5255399 3.2443695 -0.3308915
v -0.50514865 3.285152 -0.31729734
v -0.715858 3.35992 -0.2969061
v -0.6818726 3.4007025 -0.29010904
v -0.9061761 3.5638323 -0.24932659
v -0.85859656 3.5910206 -0.24252951
v -1.0353205 3.8425121 -0.18135583
v -0.987741 3.8561063 -0.17455876
v -1.076103 4.1279893 -0.106588006
v -1.0285234 4.1347866 -0.106588006
v -0.5255399 3.2443695 -0.3308915
v -0.715858 3.35992 -0.2969061
v -0.715858 3.3259344 -0.16776168
v -0.5255399 3.2035875 -0.19494998
v -0.17209196 3.1288195 -0.3580798
v -0.37600422 3.1763992 -0.34448564
v -0.37600422 3.1424136 -0.21534121
v -0.17209196 3.0948343 -0.22893536
v -1.0353205 3.8425121 -0.18135583
v -1.076103 4.1279893 -0.106588006
v -1.076103 4.094004 0.022556424
v -1.0353205 3.808527 -0.04541433
v -0.715858 3.35992 -0.2969061
v -0.9061761 3.5638323 -0.24932659
v -0.9061761 3.5298467 -0.12018216
v -0.715858 3.3259344 -0.16776168
v -0.37600422 3.1763992 -0.34448564
v -0.5255399 3.2443695 -0.3308915
v -0.5255399 3.2035875 -0.19494998
v -0.37600422 3.1424136 -0.21534121
v -0.9061761 3.5638323 -0.24932659
v -1.0353205 3.8425121 -0.18135583
v -1.0353205 3.808527 -0.04541433
v -0.9061761 3.5298467 -0.12018216
vt 0.09668046 0.9694196
vt 0.09668046 0.9694196
vt 0.09668046 0.9694196
vt 0.09668046 0.9694196
vt 0.09668046 0.9694196
vt 0.09668046 0.9694196
vt 0.09668046 0.9694196
vt 0.09668046 0.9694196
vt 0.09668046 0.9694196
vt 0.09668046 0.9694196
vt 0.09668046 0.9694196
vt 0.09668046 0.9694196
vt 0.09668046 0.9694196
vt 0.09668046 0.9694196
vt 0.09668046 0.9694196
vt 0.09668046 0.9694196
vt 0.09668046 0.9694196
vt 0.09668046 0.9694196
vt 0.09668046 0.9694196
vt 0.09668046 0.9694196
vt 0.09668046 0.9694196
vt 0.09668046 0.9694196
vt 0.09668046 0.9694196
vt 0.09668046 0.9694196
vt 0.09668046 0.9694196
vt 0.09668046 0.9694196
vt 0.09668046 0.9694196
vt 0.09668046 0.9694196
vt 0.09668046 0.9694196
vt 0.09668046 0.9694196
vt 0.09668046 0.9694196
vt 0.09668046 0.9694196
vt 0.09668046 0.9694196
vt 0.09668046 0.9694196
vt 0.09668046 0.9694196
vt 0.09668046 0.9694196
vt 0.09668046 0.9694196
vt 0.09668046 0.9694196
vt 0.09668046 0.9694196
vt 0.09668046 0.9694196
vt 0.09668046 0.9694196
vt 0.09668046 0.9694196
vt 0.09668046 0.9694196
vt 0.09668046 0.9694196
vt 0.09668046 0.9694196
vt 0.09668046 0.9694196
vt 0.09668046 0.9694196
vt 0.09668046 0.9694196
vt 0.09668046 0.9694196
vt 0.09668046 0.9694196
vt 0.09668046 0.9694196
vt 0.09668046 0.9694196
vt 0.09668046 0.9694196
vt 0.09668046 0.9694196
vt 0.09668046 0.9694196
vt 0.09668046 0.9694196
vt 0.09668046 0.9694196
vt 0.09668046 0.9694196
vt 0.09668046 0.9694196
vt 0.09668046 0.9694196
vt 0.09668046 0.9694196
vt 0.09668046 0.9694196
vt 0.09668046 0.9694196
vt 0.09668046 0.9694196
vt 0.09668046 0.9694196
vt 0.09668046 0.9694196
vt 0.09668046 0.9694196
vt 0.09668046 0.9694196
vt 0.09668046 0.9694196
vt 0.09668046 0.026417572
vt 0.09668046 0.026417572
vt 0.09668046 0.026417572
vt 0.09668046 0.026417572
vt 0.09668046 0.026417572
vt 0.09668046 0.026417572
vt 0.09668046 0.026417572
vt 0.09668046 0.026417572
vt 0.09668046 0.026417572
vt 0.09668046 0.026417572
vt 0.09668046 0.026417572
vt 0.09668046 0.026417572
vt 0.09668046 0.026417572
vt 0.09668046 0.026417572
vt 0.09668046 0.026417572
vt 0.09668046 0.026417572
vt 0.09668046 0.026417572
vt 0.09668046 0.026417572
vt 0.09668046 0.026417572
vt 0.09668046 0.026417572
vt 0.09668046 0.026417572
vt 0.09668046 0.026417572
vt 0.09668046 0.026417572
vt 0.09668046 0.026417572
vt 0.09668046 0.026417572
vt 0.09668046 0.026417572
vt 0.09668046 0.026417572
vt 0.09668046 0.026417572
vt 0.09668046 0.026417572
vt 0.09668046 0.026417572
vt 0.09668046 0.026417572
vt 0.09668046 0.026417572
vt 0.09668046 0.026417572
vt 0.09668046 0.026417572
vt 0.09668046 0.026417572
vt 0.09668046 0.026417572
vt 0.09668046 0.026417572
vt 0.09668046 0.026417572
vt 0.09668046 0.026417572
vt 0.09668046 0.026417572
vt 0.09668046 0.026417572
vt 0.09668046 0.026417572
vt 0.09668046 0.026417572
vt 0.09668046 0.026417572
vt 0.09668046 0.026417572
vt 0.09668046 0.026417572
vt 0.09668046 0.026417572
vt 0.09668046 0.026417572
vt 0.09668046 0.026417572
vt 0.09668046 0.026417572
vt 0.09668046 0.026417572
vt 0.09668046 0.026417572
vt 0.09668046 0.026417572
vt 0.09668046 0.026417572
vt 0.09668046 0.026417572
vt 0.09668046 0.026417572
vt 0.09668046 0.026417572
vt 0.09668046 0.026417572
vt 0.09668046 0.026417572
vt 0.09668046 0.026417572
vt 0.09668046 0.026417572
vt 0.09668046 0.026417572
vt 0.09668046 0.026417572
vt 0.09668046 0.026417572
vt 0.09668046 0.026417572
vt 0.09668046 0.026417572
vt 0.09668046 0.026417572
vt 0.09668046 0.026417572
vt 0.09668046 0.026417572
vt 0.09668046 0.026417572
vt 0.09668046 0.026417572
vt 0.09668046 0.026417572
vt 0.09668046 0.026417572
vt 0.09668046 0.026417572
vt 0.09668046 0.026417572
vt 0.09668046 0.026417572
vt 0.09668046 0.026417572
vt 0.09668046 0.026417572
vt 0.09668046 0.026417572
vt 0.09668046 0.026417572
vt 0.09668046 0.026417572
vt 0.09668046 0.026417572
vt 0.09668046 0.026417572
vt 0.09668046 0.026417572
vt 0.09668046 0.026417572
vt 0.09668046 0.026417572
vt 0.09668046 0.026417572
vt 0.09668046 0.026417572
vt 0.09668046 0.026417572
vt 0.09668046 0.026417572
vt 0.09668046 0.026417572
vt 0.09668046 0.026417572
vt 0.09668046 0.026417572
vt 0.09668046 0.026417572
vt 0.09668046 0.026417572
vt 0.09668046 0.026417572
vt 0.09668046 0.026417572
vt 0.09668046 0.026417572
vt 0.09668046 0.026417572
vt 0.09668046 0.026417572
vt 0.09668046 0.026417572
vt 0.09668046 0.026417572
vt 0.09668046 0.026417572
vt 0.09668046 0.026417572
vt 0.09668046 0.026417572
vt 0.09668046 0.026417572
vt 0.09668046 0.026417572
vt 0.09668046 0.026417572
vt 0.09668046 0.026417572
vt 0.09668046 0.026417572
vt 0.09668046 0.026417572
vt 0.09668046 0.026417572
vt 0.09668046 0.026417572
vt 0.09668046 0.026417572
vn 0.26612073 0.8030775 0.5331475
vn 0.3604617 0.9288656 -0.08529981
vn 0.64348483 0.74018353 0.19507845
vn 0.014544666 0.5829485 -0.8123789
vn -0.42571348 0.55150145 -0.71736616
vn -0.26847845 0.8659716 -0.42191526
vn 0.014544666 0.8659716 -0.49988163
vn -0.26847845 0.8659716 -0.42191526
vn -0.39426643 0.04834932 -0.9177235
vn -0.8345246 -0.014544666 -0.5507787
vn -0.5200545 0.8345246 -0.18196717
vn 0.1403327 0.016902387 -0.98996013
vn -0.016902387 -0.9894019 -0.14421605
vn -0.9917596 -0.07743865 -0.10205963
vn 0.67493176 -0.04599166 -0.7364454
vn 0.32901472 0.8659716 -0.37661982
vn 0.014544666 0.5829485 -0.8123789
vn -0.61439556 0.7716306 0.16463389
vn -0.92050976 0.39071968 -0
vn -0.89741856 -0.17177969 0.40636393
vn -0.5829485 0.7087365 0.39732054
vn 0.5805908 0.8030775 -0.13409255
vn 0.48624974 0.5829485 -0.65094715
vn 0.9894019 -0.108885646 -0.09606179
vn 0.04599166 0.74018353 -0.67083013
vn -0.42571348 0.55150145 -0.71736616
vn -0.3628195 0.67728955 -0.64003193
vn 0.67493176 0.7087365 0.20532821
vn 0.92650783 -0.20322669 0.3166736
vn 0.5805908 0.67728955 0.45187742
vn 0.92650783 0.3628195 0.09972599
vn 0.83216685 0.48860747 -0.26222333
vn 0.67493176 0.7087365 0.20532821
vn 0.7378258 0.6458425 -0.19621557
vn 0.45480275 0.7087365 -0.5393024
vn 0.04599166 0.9288656 -0.3675506
vn -0.3628195 0.67728955 -0.64003193
vn 0.5491438 -0.26612073 0.79222524
vn 0.3604617 0.9288656 -0.08529981
vn 0.64348483 0.74018353 0.19507845
vn 0.26612073 0.8030775 0.5331475
vn 0.7692728 0.61439556 0.17532094
vn -0.016902387 0.8030775 0.59563476
vn 0.80071986 0.2999254 0.5185484
vn 0.67493176 0.5200545 0.52346003
vn 0.29756773 0.6458425 0.7030938
vn 0.014544666 -0.26612073 0.96382993
vn 0.42335576 0.26847845 0.8652683
vn -0.55150145 -0.23467368 0.8004839
vn -0.04834932 0.6458425 0.7619382
vn -0.3628195 0.67728955 0.64003193
vn -0.079796374 0.2370314 0.96821934
vn -0.55150145 0.26847845 0.78978825
vn -0.079796374 0.48860747 0.86884713
vn -0.8345246 0.2999254 0.4621834
vn -0.48860747 0.48860747 0.72285926
vn 0.3604617 0.48860747 0.7945629
vn 0.26612073 0.8030775 0.5331475
vn 0.64348483 0.74018353 0.19507845
vn 0.7692728 0.61439556 0.17532094
vn -0.74018353 0.48860747 0.46194273
vn -0.33137244 0.8030775 0.4952361
vn -0.2999254 0.9288656 -0.21737868
vn -0.6458425 0.74018353 0.18712515
vn -0.7942254 0.6076232 -0
vn -0.6458425 0.67728955 -0.35237244
vn -0.7716306 0.4571604 -0.44225627
vn -0.42571348 0.55150145 -0.71736616
vn -0.26847845 0.8659716 -0.42191526
vn 0.5491438 -0.80071986 -0.23935084
vn 0.5491438 -0.80071986 -0.23935084
vn 0.5491438 -0.80071986 -0.23935084
vn 0.5491438 -0.80071986 -0.23935084
vn 0.23467368 -0.92650783 -0.29412845
vn 0.23467368 -0.92650783 -0.29412845
vn 0.23467368 -0.92650783 -0.29412845
vn 0.23467368 -0.92650783 -0.29412845
vn 0.9894019 -0.1403327 -0.03729188
vn 0.9894019 -0.1403327 -0.03729188
vn 0.9894019 -0.1403327 -0.03729188
vn 0.9894019 -0.1403327 -0.03729188
vn 0.7378258 -0.64348483 -0.2038145
vn 0.7378258 -0.64348483 -0.2038145
vn 0.7378258 -0.64348483 -0.2038145
vn 0.7378258 -0.64348483 -0.2038145
vn 0.42335576 -0.86361384 -0.2737536
vn 0.42335576 -0.86361384 -0.2737536
vn 0.42335576 -0.86361384 -0.2737536
vn 0.42335576 -0.86361384 -0.2737536
vn 0.89506084 -0.3919087 -0.21277602
vn 0.89506084 -0.3919087 -0.21277602
vn 0.89506084 -0.3919087 -0.21277602
vn 0.89506084 -0.3919087 -0.21277602
vn 0.014544666 -0.9579549 -0.28654996
vn 0.014544666 -0.9579549 -0.28654996
vn 0.014544666 -0.9579549 -0.28654996
vn 0.014544666 -0.9579549 -0.28654996
vn -0.016902387 -0.9579549 -0.28642055
vn -0.016902387 -0.9579549 -0.28642055
vn 0.014544666 -0.23467368 0.97196543
vn 0.014544666 -0.23467368 0.97196543
vn 0.014544666 -0.23467368 0.97196543
vn 0.014544666 -0.23467368 0.97196543
vn 0.014544666 -0.23467368 0.97196543
vn 0.014544666 -0.23467368 0.97196543
vn 0.014544666 -0.23467368 0.97196543
vn 0.014544666 -0.23467368 0.97196543
vn 0.014544666 -0.23467368 0.97196543
vn 0.014544666 -0.23467368 0.97196543
vn 0.014544666 -0.23467368 0.97196543
vn 0.014544666 -0.23467368 0.97196543
vn 0.014544666 -0.23467368 0.97196543
vn 0.014544666 -0.23467368 0.97196543
vn 0.014544666 -0.23467368 0.97196543
vn 0.014544666 -0.23467368 0.97196543
vn 0.014544666 -0.23467368 0.97196543
vn 0.014544666 -0.23467368 0.97196543
vn 0.014544666 -0.23467368 0.97196543
vn 0.014544666 -0.23467368 0.97196543
vn 0.014544666 -0.23467368 0.97196543
vn 0.014544666 -0.23467368 0.97196543
vn 0.014544666 -0.23467368 0.97196543
vn 0.014544666 -0.23467368 0.97196543
vn 0.014544666 -0.23467368 0.97196543
vn 0.014544666 -0.23467368 0.97196543
vn 0.014544666 -0.23467368 0.97196543
vn 0.014544666 -0.23467368 0.97196543
vn 0.014544666 -0.23467368 0.97196543
vn 0.014544666 -0.23467368 0.97196543
vn 0.014544666 0.2370314 -0.9713931
vn 0.014544666 0.2370314 -0.9713931
vn 0.014544666 0.2370314 -0.9713931
vn 0.014544666 0.2370314 -0.9713931
vn 0.014544666 0.2370314 -0.9713931
vn 0.014544666 0.2370314 -0.9713931
vn 0.014544666 0.2370314 -0.9713931
vn 0.014544666 0.2370314 -0.9713931
vn 0.014544666 0.2370314 -0.9713931
vn 0.014544666 0.2370314 -0.9713931
vn 0.014544666 0.2370314 -0.9713931
vn 0.014544666 0.2370314 -0.9713931
vn 0.014544666 0.2370314 -0.9713931
vn 0.014544666 0.2370314 -0.9713931
vn 0.014544666 0.2370314 -0.9713931
vn 0.014544666 0.2370314 -0.9713931
vn 0.014544666 0.2370314 -0.9713931
vn 0.014544666 0.2370314 -0.9713931
vn 0.014544666 0.2370314 -0.9713931
vn 0.014544666 0.2370314 -0.9713931
vn 0.014544666 0.2370314 -0.9713931
vn 0.014544666 0.2370314 -0.9713931
vn 0.014544666 0.2370314 -0.9713931
vn 0.014544666 0.2370314 -0.9713931
vn 0.014544666 0.2370314 -0.9713931
vn 0.014544666 0.2370314 -0.9713931
vn 0.014544666 0.2370314 -0.9713931
vn 0.014544666 0.2370314 -0.9713931
vn 0.014544666 0.2370314 -0.9713931
vn 0.014544666 0.2370314 -0.9713931
vn -0.55150145 -0.80071986 -0.23386723
vn -0.55150145 -0.80071986 -0.23386723
vn -0.55150145 -0.80071986 -0.23386723
vn -0.55150145 -0.80071986 -0.23386723
vn -0.2370314 -0.92650783 -0.29223174
vn -0.2370314 -0.92650783 -0.29223174
vn -0.2370314 -0.92650783 -0.29223174
vn -0.2370314 -0.92650783 -0.29223174
vn -0.99013686 -0.14010309 -0
vn -0.99013686 -0.14010309 -0
vn -0.99013686 -0.14010309 -0
vn -0.99013686 -0.14010309 -0
vn -0.74018353 -0.64348483 -0.19507852
vn -0.74018353 -0.64348483 -0.19507852
vn -0.74018353 -0.64348483 -0.19507852
vn -0.74018353 -0.64348483 -0.19507852
vn -0.42571348 -0.86361384 -0.2700725
vn -0.42571348 -0.86361384 -0.2700725
vn -0.42571348 -0.86361384 -0.2700725
vn -0.42571348 -0.86361384 -0.2700725
vn -0.89741856 -0.3919087 -0.20260179
vn -0.89741856 -0.3919087 -0.20260179
vn -0.89741856 -0.3919087 -0.20260179
vn -0.89741856 -0.3919087 -0.20260179
g hat_StrawHat_0
f 3/3/3 2/2/2 1/1/1
f 6/6/6 5/5/5 4/4/4
f 7/7/7 6/6/6 4/4/4
f 9/9/9 8/8/8 7/7/7
f 9/9/9 10/10/10 8/8/8
f 10/10/10 11/11/11 8/8/8
f 12/12/12 9/9/9 7/7/7
f 9/9/9 13/13/13 10/10/10
f 12/12/12 13/13/13 9/9/9
f 10/10/10 13/13/13 14/14/14
f 13/13/13 12/12/12 15/15/15
f 7/7/7 16/16/16 12/12/12
f 16/16/16 15/15/15 12/12/12
f 16/16/16 7/7/7 17/17/17
f 10/10/10 14/14/14 18/18/18
f 11/11/11 10/10/10 18/18/18
f 18/18/18 19/19/19 11/11/11
f 14/14/14 20/20/20 18/18/18
f 13/13/13 20/20/20 14/14/14
f 19/19/19 18/18/18 21/21/21
f 20/20/20 21/21/21 18/18/18
f 16/16/16 22/22/22 15/15/15
f 23/23/23 16/16/16 17/17/17
f 16/16/16 23/23/23 22/22/22
f 15/15/15 24/24/24 13/13/13
f 22/22/22 24/24/24 15/15/15
f 17/17/17 25/25/25 23/23/23
f 17/17/17 26/26/26 25/25/25
f 26/26/26 27/27/27 25/25/25
f 28/28/28 24/24/24 22/22/22
f 28/28/28 29/29/29 24/24/24
f 13/13/13 24/24/24 29/29/29
f 30/30/30 29/29/29 28/28/28
f 28/28/28 31/31/31 30/30/30
f 23/23/23 32/32/32 22/22/22
f 33/33/33 22/22/22 32/32/32
f 31/31/31 33/33/33 32/32/32
f 34/34/34 32/32/32 23/23/23
f 32/32/32 34/34/34 31/31/31
f 25/25/25 35/35/35 23/23/23
f 35/35/35 34/34/34 23/23/23
f 35/35/35 25/25/25 36/36/36
f 36/36/36 25/25/25 37/37/37
f 13/13/13 29/29/29 38/38/38
f 38/38/38 29/29/29 30/30/30
f 34/34/34 35/35/35 39/39/39
f 39/39/39 35/35/35 36/36/36
f 34/34/34 39/39/39 40/40/40
f 39/39/39 36/36/36 41/41/41
f 42/42/42 34/34/34 40/40/40
f 34/34/34 42/42/42 31/31/31
f 36/36/36 43/43/43 41/41/41
f 31/31/31 42/42/42 44/44/44
f 31/31/31 44/44/44 30/30/30
f 42/42/42 45/45/45 44/44/44
f 46/46/46 38/38/38 30/30/30
f 30/30/30 44/44/44 46/46/46
f 47/47/47 13/13/13 38/38/38
f 47/47/47 38/38/38 46/46/46
f 44/44/44 48/48/48 46/46/46
f 48/48/48 44/44/44 45/45/45
f 13/13/13 47/47/47 49/49/49
f 13/13/13 49/49/49 20/20/20
f 50/50/50 47/47/47 46/46/46
f 47/47/47 50/50/50 49/49/49
f 46/46/46 48/48/48 50/50/50
f 49/49/49 51/51/51 20/20/20
f 50/50/50 51/51/51 49/49/49
f 51/51/51 21/21/21 20/20/20
f 50/50/50 52/52/52 51/51/51
f 48/48/48 52/52/52 50/50/50
f 51/51/51 53/53/53 21/21/21
f 52/52/52 53/53/53 51/51/51
f 54/54/54 52/52/52 48/48/48
f 52/52/52 54/54/54 53/53/53
f 53/53/53 55/55/55 21/21/21
f 55/55/55 19/19/19 21/21/21
f 53/53/53 56/56/56 55/55/55
f 54/54/54 56/56/56 53/53/53
f 57/57/57 54/54/54 48/48/48
f 57/57/57 48/48/48 45/45/45
f 43/43/43 54/54/54 57/57/57
f 54/54/54 43/43/43 56/56/56
f 58/58/58 57/57/57 45/45/45
f 58/58/58 43/43/43 57/57/57
f 58/58/58 45/45/45 59/59/59
f 45/45/45 60/60/60 59/59/59
f 56/56/56 61/61/61 55/55/55
f 55/55/55 61/61/61 19/19/19
f 43/43/43 62/62/62 56/56/56
f 56/56/56 62/62/62 61/61/61
f 62/62/62 43/43/43 63/63/63
f 43/43/43 36/36/36 63/63/63
f 63/63/63 36/36/36 37/37/37
f 62/62/62 64/64/64 61/61/61
f 64/64/64 62/62/62 63/63/63
f 64/64/64 65/65/65 61/61/61
f 65/65/65 64/64/64 63/63/63
f 61/61/61 65/65/65 19/19/19
f 66/66/66 65/65/65 63/63/63
f 66/66/66 63/63/63 37/37/37
f 65/65/65 66/66/66 19/19/19
f 66/66/66 37/37/37 67/67/67
f 66/66/66 67/67/67 19/19/19
f 37/37/37 68/68/68 67/67/67
f 19/19/19 67/67/67 11/11/11
f 11/11/11 67/67/67 68/68/68
f 69/69/69 11/11/11 68/68/68
f 72/72/72 71/71/71 70/70/70
f 73/73/73 72/72/72 70/70/70
f 76/76/76 75/75/75 74/74/74
f 77/77/77 76/76/76 74/74/74
f 80/80/80 79/79/79 78/78/78
f 81/81/81 80/80/80 78/78/78
f 84/84/84 83/83/83 82/82/82
f 85/85/85 84/84/84 82/82/82
f 88/88/88 87/87/87 86/86/86
f 89/89/89 88/88/88 86/86/86
f 92/92/92 91/91/91 90/90/90
f 93/93/93 92/92/92 90/90/90
f 96/96/96 95/95/95 94/94/94
f 95/95/95 97/97/97 94/94/94
f 97/97/97 95/95/95 98/98/98
f 95/95/95 99/99/99 98/98/98
f 102/102/102 101/101/101 100/100/100
f 103/103/103 102/102/102 100/100/100
f 104/104/104 102/102/102 103/103/103
f 105/105/105 104/104/104 103/103/103
f 106/106/106 104/104/104 105/105/105
f 107/107/107 106/106/106 105/105/105
f 108/108/108 106/106/106 107/107/107
f 109/109/109 108/108/108 107/107/107
f 110/110/110 108/108/108 109/109/109
f 111/111/111 110/110/110 109/109/109
f 112/112/112 110/110/110 111/111/111
f 113/113/113 112/112/112 111/111/111
f 114/114/114 112/112/112 113/113/113
f 115/115/115 114/114/114 113/113/113
f 114/114/114 115/115/115 116/116/116
f 117/117/117 114/114/114 116/116/116
f 117/117/117 116/116/116 118/118/118
f 119/119/119 117/117/117 118/118/118
f 119/119/119 118/118/118 120/120/120
f 121/121/121 119/119/119 120/120/120
f 121/121/121 120/120/120 122/122/122
f 123/123/123 121/121/121 122/122/122
f 123/123/123 122/122/122 124/124/124
f 125/125/125 123/123/123 124/124/124
f 125/125/125 124/124/124 126/126/126
f 127/127/127 125/125/125 126/126/126
f 127/127/127 126/126/126 128/128/128
f 129/129/129 127/127/127 128/128/128
f 132/132/132 131/131/131 130/130/130
f 131/131/131 133/133/133 130/130/130
f 130/130/130 133/133/133 134/134/134
f 133/133/133 135/135/135 134/134/134
f 134/134/134 135/135/135 136/136/136
f 135/135/135 137/137/137 136/136/136
f 136/136/136 137/137/137 138/138/138
f 137/137/137 139/139/139 138/138/138
f 138/138/138 139/139/139 140/140/140
f 139/139/139 141/141/141 140/140/140
f 140/140/140 141/141/141 142/142/142
f 141/141/141 143/143/143 142/142/142
f 142/142/142 143/143/143 144/144/144
f 143/143/143 145/145/145 144/144/144
f 145/145/145 146/146/146 144/144/144
f 146/146/146 147/147/147 144/144/144
f 146/146/146 148/148/148 147/147/147
f 148/148/148 149/149/149 147/147/147
f 148/148/148 150/150/150 149/149/149
f 150/150/150 151/151/151 149/149/149
f 150/150/150 152/152/152 151/151/151
f 152/152/152 153/153/153 151/151/151
f 152/152/152 154/154/154 153/153/153
f 154/154/154 155/155/155 153/153/153
f 154/154/154 156/156/156 155/155/155
f 156/156/156 157/157/157 155/155/155
f 156/156/156 158/158/158 157/157/157
f 158/158/158 159/159/159 157/157/157
f 162/162/162 161/161/161 160/160/160
f 163/163/163 162/162/162 160/160/160
f 166/166/166 165/165/165 164/164/164
f 167/167/167 166/166/166 164/164/164
f 170/170/170 169/169/169 168/168/168
f 171/171/171 170/170/170 168/168/168
f 174/174/174 173/173/173 172/172/172
f 175/175/175 174/174/174 172/172/172
f 178/178/178 177/177/177 176/176/176
f 179/179/179 178/178/178 176/176/176
f 182/182/182 181/181/181 180/180/180
f 183/183/183 182/182/182 180/180/180
