g hat_Beanie
v -1.7881393E-05 4.260073 0.10344863
v -1.7881393E-05 3.6265593 1.0601834
v 0.5300648 3.6394882 0.9244305
v -1.7881393E-05 4.260073 0.10344863
v 0.93732345 3.7493834 0.5494939
v 1.0342898 4.027354 -0.032304168
v -1.7881393E-05 4.260073 0.10344863
v 1.0342898 4.027354 -0.032304168
v 0.930859 4.279466 -0.54299366
v -1.7881393E-05 4.260073 0.10344863
v 0.930859 4.279466 -0.54299366
v 0.46542054 4.4540057 -0.9243946
v -1.7881393E-05 4.260073 0.10344863
v 0.5300648 3.6394882 0.9244305
v 0.93732345 3.7493834 0.5494939
v -1.7881393E-05 4.260073 0.10344863
v 0.46542054 4.4540057 -0.9243946
v -1.7881393E-05 4.492792 -1.0407542
v -1.7881393E-05 4.260073 0.10344863
v -0.5301006 3.6394882 0.9244305
v -1.7881393E-05 3.6265593 1.0601834
v -1.7881393E-05 4.260073 0.10344863
v -1.0343257 4.027354 -0.032304168
v -0.9373592 3.7493834 0.5494939
v -1.7881393E-05 4.260073 0.10344863
v -0.930895 4.279466 -0.54299366
v -1.0343257 4.027354 -0.032304168
v -1.7881393E-05 4.260073 0.10344863
v -0.46545637 4.4540057 -0.9243946
v -0.930895 4.279466 -0.54299366
v -1.7881393E-05 4.260073 0.10344863
v -0.9373592 3.7493834 0.5494939
v -0.5301006 3.6394882 0.9244305
v -1.7881393E-05 4.260073 0.10344863
v -1.7881393E-05 4.492792 -1.0407542
v -0.46545637 4.4540057 -0.9243946
v 0.7433908 5.1521635 -0.04523301
v 0.49127823 5.0422683 -0.6787465
v 0.9502523 4.874193 -0.32320327
v 0.44602728 5.2943807 -0.2714879
v 0.63996 5.3073096 0.2715237
v 0.82096386 5.087519 0.5430294
v 0.9179302 4.964695 0.2973814
v 0.9502523 4.874193 -0.32320327
v 1.0407542 4.7384405 0.1357708
v 0.7175331 4.6673317 0.97614586
v 0.8920725 4.408755 0.7563554
v 1.0601475 4.4540057 0.10344863
v 0.93732345 4.169571 0.6206025
v 0.3296677 5.1844854 0.9438237
v 0.3296677 4.8160133 1.2670449
v 0.43309844 4.4410768 1.208865
v -1.7881393E-05 4.350575 1.2670449
v 0.5494581 4.279466 1.0925053
v 0.93732345 4.169571 0.6206025
v 0.5494581 4.1049266 0.99553907
v 0.41370517 5.4236693 0.12930632
v -1.7881393E-05 4.2406797 1.1636142
v 0.5494581 4.1049266 0.99553907
v -1.7881393E-05 4.091998 1.131292
v -0.5494939 4.279466 1.0925053
v -0.43313432 4.4410768 1.208865
v -1.7881393E-05 4.641474 1.3898689
v -1.7881393E-05 4.9582305 1.3963333
v -0.32970345 4.8160133 1.2670449
v -1.7881393E-05 5.2620587 0.872715
v -1.7881393E-05 5.488313 0.051733255
v -0.32970345 5.1844854 0.9438237
v -1.7881393E-05 5.346096 -0.36845422
v 0.49127823 5.0422683 -0.6787465
v -1.7881393E-05 5.07459 -0.808035
v -0.49131405 5.0422683 -0.6787465
v -0.44606316 5.2943807 -0.2714879
v -0.413741 5.4236693 0.12930632
v -0.6399958 5.3073096 0.2715237
v -0.8209996 5.087519 0.5430294
v -0.74342656 5.1521635 -0.04523301
v -0.49131405 5.0422683 -0.6787465
v -0.9502882 4.874193 -0.32320327
v -0.7175689 4.6673317 0.97614586
v -0.917966 4.964695 0.2973814
v -0.9502882 4.874193 -0.32320327
v -1.04079 4.7384405 0.1357708
v -0.8921083 4.408755 0.7563554
v -1.0601834 4.4540057 0.10344863
v -0.9373592 4.169571 0.6206025
v -0.5494939 4.279466 1.0925053
v -0.9373592 4.169571 0.6206025
v -0.5494939 4.1049266 0.99553907
v 0.4783494 4.8935866 -0.75631964
v 0.9502523 4.719047 -0.3943119
v 0.9502523 4.874193 -0.32320327
v 0.49127823 5.0422683 -0.6787465
v 0.9502523 4.719047 -0.3943119
v 1.0601475 4.4540057 0.10344863
v 1.0407542 4.7384405 0.1357708
v 0.9502523 4.874193 -0.32320327
v -1.7881393E-05 4.932373 -0.87914366
v 0.4783494 4.8935866 -0.75631964
v 0.49127823 5.0422683 -0.6787465
v -1.7881393E-05 5.07459 -0.808035
v -1.7881393E-05 4.5445075 -1.0730764
v -1.7881393E-05 4.492792 -1.0407542
v 0.46542054 4.4540057 -0.9243946
v 0.49127823 4.505721 -0.9502523
v 0.49127823 4.505721 -0.9502523
v 0.46542054 4.4540057 -0.9243946
v 0.930859 4.279466 -0.54299366
v 0.96318114 4.324717 -0.56238693
v -1.7881393E-05 3.6265593 1.0601834
v -1.7881393E-05 3.6459527 1.118363
v 0.5559225 3.6653461 0.98261034
v 0.5300648 3.6394882 0.9244305
v 0.5300648 3.6394882 0.9244305
v 0.5559225 3.6653461 0.98261034
v 0.98257446 3.7752414 0.58181596
v 0.93732345 3.7493834 0.5494939
v 1.0342898 4.027354 -0.032304168
v 1.0860052 4.0596757 -0.019375324
v 0.96318114 4.324717 -0.56238693
v 0.930859 4.279466 -0.54299366
v 0.93732345 3.7493834 0.5494939
v 0.98257446 3.7752414 0.58181596
v 1.0860052 4.0596757 -0.019375324
v 1.0342898 4.027354 -0.032304168
v -0.4783852 4.8935866 -0.75631964
v -0.49131405 5.0422683 -0.6787465
v -0.9502882 4.874193 -0.32320327
v -0.9502882 4.719047 -0.3943119
v -1.7881393E-05 4.2406797 1.1636142
v -1.7881393E-05 4.091998 1.131292
v -0.5494939 4.1049266 0.99553907
v -0.9502882 4.719047 -0.3943119
v -0.9502882 4.874193 -0.32320327
v -1.04079 4.7384405 0.1357708
v -1.0601834 4.4540057 0.10344863
v -1.7881393E-05 4.932373 -0.87914366
v -1.7881393E-05 5.07459 -0.808035
v -0.49131405 5.0422683 -0.6787465
v -0.4783852 4.8935866 -0.75631964
v -1.7881393E-05 4.5445075 -1.0730764
v -0.49131405 4.505721 -0.9502523
v -0.46545637 4.4540057 -0.9243946
v -1.7881393E-05 4.492792 -1.0407542
v -0.49131405 4.505721 -0.9502523
v -0.9632169 4.324717 -0.56238693
v -0.930895 4.279466 -0.54299366
v -0.46545637 4.4540057 -0.9243946
v -1.7881393E-05 3.6265593 1.0601834
v -0.5301006 3.6394882 0.9244305
v -0.5559583 3.6653461 0.98261034
v -1.7881393E-05 3.6459527 1.118363
v -0.5301006 3.6394882 0.9244305
v -0.9373592 3.7493834 0.5494939
v -0.98261034 3.7752414 0.58181596
v -0.5559583 3.6653461 0.98261034
v -1.0343257 4.027354 -0.032304168
v -0.930895 4.279466 -0.54299366
v -0.9632169 4.324717 -0.56238693
v -1.0860411 4.0596757 -0.019375324
v -0.9373592 3.7493834 0.5494939
v -1.0343257 4.027354 -0.032304168
v -1.0860411 4.0596757 -0.019375324
v -0.98261034 3.7752414 0.58181596
v 0.5494581 4.1049266 0.99553907
v -1.7881393E-05 4.06614 1.1959363
v -1.7881393E-05 4.091998 1.131292
v -0.5494939 4.1049266 0.99553907
v 0.56238693 4.079069 1.0537189
v 0.93732345 4.169571 0.6206025
v -0.56242275 4.079069 1.0537189
v -0.9373592 4.169571 0.6206025
v 0.9955033 4.137249 0.6464603
v 1.0601475 4.4540057 0.10344863
v -1.7881393E-05 3.6459527 1.118363
v 0.5559225 3.6653461 0.98261034
v -0.5559583 3.6653461 0.98261034
v 0.98257446 3.7752414 0.58181596
v -0.99553907 4.137249 0.6464603
v -1.0601834 4.4540057 0.10344863
v -0.98261034 3.7752414 0.58181596
v 1.1247917 4.4346123 0.090519786
v 0.9502523 4.719047 -0.3943119
v 1.0860052 4.0596757 -0.019375324
v -1.1248275 4.4346123 0.090519786
v -0.9502882 4.719047 -0.3943119
v -1.0860411 4.0596757 -0.019375324
v 0.98257446 4.719047 -0.43956286
v 0.4783494 4.8935866 -0.75631964
v 0.96318114 4.324717 -0.56238693
v -0.98261034 4.719047 -0.43956286
v -0.4783852 4.8935866 -0.75631964
v -0.9632169 4.324717 -0.56238693
v 0.51067156 4.9000506 -0.81449944
v 0.49127823 4.505721 -0.9502523
v -1.7881393E-05 4.932373 -0.87914366
v -0.5107074 4.9000506 -0.81449944
v -0.49131405 4.505721 -0.9502523
v -1.7881393E-05 4.9388375 -0.9502523
v -1.7881393E-05 4.5445075 -1.0730764
vt 0.7830152 0.031769753
vt 0.7830152 0.031769753
vt 0.7830152 0.031769753
vt 0.7830152 0.031769753
vt 0.7830152 0.031769753
vt 0.7830152 0.031769753
vt 0.7830152 0.031769753
vt 0.7830152 0.031769753
vt 0.7830152 0.031769753
vt 0.7830152 0.031769753
vt 0.7830152 0.031769753
vt 0.7830152 0.031769753
vt 0.7830152 0.031769753
vt 0.7830152 0.031769753
vt 0.7830152 0.031769753
vt 0.7830152 0.031769753
vt 0.7830152 0.031769753
vt 0.7830152 0.031769753
vt 0.7830152 0.031769753
vt 0.7830152 0.031769753
vt 0.7830152 0.031769753
vt 0.7830152 0.031769753
vt 0.7830152 0.031769753
vt 0.7830152 0.031769753
vt 0.7830152 0.031769753
vt 0.7830152 0.031769753
vt 0.7830152 0.031769753
vt 0.7830152 0.031769753
vt 0.7830152 0.031769753
vt 0.7830152 0.031769753
vt 0.7830152 0.031769753
vt 0.7830152 0.031769753
vt 0.7830152 0.031769753
vt 0.7830152 0.031769753
vt 0.7830152 0.031769753
vt 0.7830152 0.031769753
vt 0.7830152 0.031769753
vt 0.7830152 0.031769753
vt 0.7830152 0.031769753
vt 0.7830152 0.031769753
vt 0.7830152 0.031769753
vt 0.7830152 0.031769753
vt 0.7830152 0.031769753
vt 0.7830152 0.031769753
vt 0.7830152 0.031769753
vt 0.7830152 0.031769753
vt 0.7830152 0.031769753
vt 0.7830152 0.031769753
vt 0.7830152 0.031769753
vt 0.7830152 0.031769753
vt 0.7830152 0.031769753
vt 0.7830152 0.031769753
vt 0.7830152 0.031769753
vt 0.7830152 0.031769753
vt 0.7830152 0.031769753
vt 0.7830152 0.031769753
vt 0.7830152 0.031769753
vt 0.7830152 0.031769753
vt 0.7830152 0.031769753
vt 0.7830152 0.031769753
vt 0.7830152 0.031769753
vt 0.7830152 0.031769753
vt 0.7830152 0.031769753
vt 0.7830152 0.031769753
vt 0.7830152 0.031769753
vt 0.7830152 0.031769753
vt 0.7830152 0.031769753
vt 0.7830152 0.031769753
vt 0.7830152 0.031769753
vt 0.7830152 0.031769753
vt 0.7830152 0.031769753
vt 0.7830152 0.031769753
vt 0.7830152 0.031769753
vt 0.7830152 0.031769753
vt 0.7830152 0.031769753
vt 0.7830152 0.031769753
vt 0.7830152 0.031769753
vt 0.7830152 0.031769753
vt 0.7830152 0.031769753
vt 0.7830152 0.031769753
vt 0.7830152 0.031769753
vt 0.7830152 0.031769753
vt 0.7830152 0.031769753
vt 0.7830152 0.031769753
vt 0.7830152 0.031769753
vt 0.7830152 0.031769753
vt 0.7830152 0.031769753
vt 0.7830152 0.031769753
vt 0.7830152 0.031769753
vt 0.7830152 0.031769753
vt 0.7830152 0.031769753
vt 0.7830152 0.031769753
vt 0.7830152 0.031769753
vt 0.7830152 0.031769753
vt 0.7830152 0.031769753
vt 0.7830152 0.031769753
vt 0.7830152 0.031769753
vt 0.7830152 0.031769753
vt 0.7830152 0.031769753
vt 0.7830152 0.031769753
vt 0.7830152 0.031769753
vt 0.7182019 0.031769753
vt 0.7182019 0.031769753
vt 0.7182019 0.031769753
vt 0.7182019 0.031769753
vt 0.7182019 0.031769753
vt 0.7182019 0.031769753
vt 0.7182019 0.031769753
vt 0.7182019 0.031769753
vt 0.7182019 0.031769753
vt 0.7182019 0.031769753
vt 0.7182019 0.031769753
vt 0.7182019 0.031769753
vt 0.7182019 0.031769753
vt 0.7182019 0.031769753
vt 0.7182019 0.031769753
vt 0.7182019 0.031769753
vt 0.7182019 0.031769753
vt 0.7182019 0.031769753
vt 0.7182019 0.031769753
vt 0.7182019 0.031769753
vt 0.7182019 0.031769753
vt 0.7182019 0.031769753
vt 0.7182019 0.031769753
vt 0.7182019 0.031769753
vt 0.7830152 0.031769753
vt 0.7830152 0.031769753
vt 0.7830152 0.031769753
vt 0.7830152 0.031769753
vt 0.7830152 0.031769753
vt 0.7830152 0.031769753
vt 0.7830152 0.031769753
vt 0.7830152 0.031769753
vt 0.7830152 0.031769753
vt 0.7830152 0.031769753
vt 0.7830152 0.031769753
vt 0.7830152 0.031769753
vt 0.7830152 0.031769753
vt 0.7830152 0.031769753
vt 0.7830152 0.031769753
vt 0.7182019 0.031769753
vt 0.7182019 0.031769753
vt 0.7182019 0.031769753
vt 0.7182019 0.031769753
vt 0.7182019 0.031769753
vt 0.7182019 0.031769753
vt 0.7182019 0.031769753
vt 0.7182019 0.031769753
vt 0.7182019 0.031769753
vt 0.7182019 0.031769753
vt 0.7182019 0.031769753
vt 0.7182019 0.031769753
vt 0.7182019 0.031769753
vt 0.7182019 0.031769753
vt 0.7182019 0.031769753
vt 0.7182019 0.031769753
vt 0.7182019 0.031769753
vt 0.7182019 0.031769753
vt 0.7182019 0.031769753
vt 0.7182019 0.031769753
vt 0.7182019 0.031769753
vt 0.7182019 0.031769753
vt 0.7182019 0.031769753
vt 0.7182019 0.031769753
vt 0.7182019 0.031769753
vt 0.7182019 0.031769753
vt 0.7182019 0.031769753
vt 0.7182019 0.031769753
vt 0.7182019 0.031769753
vt 0.7182019 0.031769753
vt 0.7182019 0.031769753
vt 0.7182019 0.031769753
vt 0.7182019 0.031769753
vt 0.7182019 0.031769753
vt 0.7182019 0.031769753
vt 0.7182019 0.031769753
vt 0.7182019 0.031769753
vt 0.7182019 0.031769753
vt 0.7182019 0.031769753
vt 0.7182019 0.031769753
vt 0.7182019 0.031769753
vt 0.7182019 0.031769753
vt 0.7182019 0.031769753
vt 0.7182019 0.031769753
vt 0.7182019 0.031769753
vt 0.7182019 0.031769753
vt 0.7182019 0.031769753
vt 0.7182019 0.031769753
vt 0.7182019 0.031769753
vt 0.7182019 0.031769753
vt 0.7182019 0.031769753
vt 0.7182019 0.031769753
vt 0.7182019 0.031769753
vt 0.7182019 0.031769753
vt 0.7182019 0.031769753
vt 0.7182019 0.031769753
vt 0.7182019 0.031769753
vt 0.7182019 0.031769753
vt 0.7182019 0.031769753
vt 0.7182019 0.031769753
vn -0.111402035 -0.839485 -0.53184074
vn -0.111402035 -0.839485 -0.53184074
vn -0.111402035 -0.839485 -0.53184074
vn -0.23818696 -0.87118125 -0.42931363
vn -0.23818696 -0.87118125 -0.42931363
vn -0.23818696 -0.87118125 -0.42931363
vn -0.23818696 -0.90287745 -0.35788167
vn -0.23818696 -0.90287745 -0.35788167
vn -0.23818696 -0.90287745 -0.35788167
vn -0.14309835 -0.9662699 -0.21411523
vn -0.14309835 -0.9662699 -0.21411523
vn -0.14309835 -0.9662699 -0.21411523
vn -0.20649076 -0.839485 -0.5026197
vn -0.20649076 -0.839485 -0.5026197
vn -0.20649076 -0.839485 -0.5026197
vn -0.016313314 -0.9662699 -0.25701421
vn -0.016313314 -0.9662699 -0.25701421
vn -0.016313314 -0.9662699 -0.25701421
vn 0.110471606 -0.839485 -0.53203475
vn 0.110471606 -0.839485 -0.53203475
vn 0.110471606 -0.839485 -0.53203475
vn 0.23725653 -0.87118125 -0.4298285
vn 0.23725653 -0.87118125 -0.4298285
vn 0.23725653 -0.87118125 -0.4298285
vn 0.23725653 -0.90287745 -0.3584991
vn 0.23725653 -0.90287745 -0.3584991
vn 0.23725653 -0.90287745 -0.3584991
vn 0.1421678 -0.9662699 -0.21473414
vn 0.1421678 -0.9662699 -0.21473414
vn 0.1421678 -0.9662699 -0.21473414
vn 0.20556027 -0.839485 -0.5030009
vn 0.20556027 -0.839485 -0.5030009
vn 0.20556027 -0.839485 -0.5030009
vn 0.047079086 -0.9662699 -0.2531916
vn 0.047079086 -0.9662699 -0.2531916
vn 0.047079086 -0.9662699 -0.2531916
vn 0.6810038 0.71363056 -0.16421084
vn 0.4274339 0.61854184 -0.65932256
vn 0.839485 0.4283644 -0.33431855
vn 0.3957377 0.8404155 -0.37026137
vn 0.5505271 0.8348173 -0
vn 0.7760925 0.5234531 0.35167772
vn 0.87118125 0.46006072 0.1714274
vn 0.839485 0.4283644 -0.33431855
vn 0.96313775 0.26900846 -0
vn 0.7443963 0.20649076 0.6350084
vn 0.87118125 -0.015382886 0.49072048
vn 0.9979662 0.048009634 0.041935924
vn 0.90287745 -0.110471606 0.4154616
vn 0.36404145 0.77702296 0.5135262
vn 0.5225226 0.23818696 0.81868005
vn 0.4274339 -0.26895273 0.8631134
vn 0.015382886 -0.4274339 0.9039157
vn 0.5225226 -0.300649 0.7978598
vn 0.90287745 -0.110471606 0.4154616
vn 0.49082643 -0.33234525 0.80537945
vn 0.300649 0.9355042 -0.1855859
vn 0.015382886 -0.49082643 0.8711216
vn 0.49082643 -0.33234525 0.80537945
vn 0.015382886 -0.36404145 0.9312557
vn -0.49175692 -0.300649 0.81718135
vn -0.4283644 -0.26895273 0.86265194
vn 0.015382886 -0.1421678 0.989723
vn 0.015382886 0.46006072 0.8877542
vn -0.5234531 0.23818696 0.8180855
vn 0.015382886 0.9355042 0.35298058
vn 0.015382886 0.9988967 -0.044370502
vn -0.364972 0.77702296 0.51286525
vn 0.015382886 0.903808 -0.42766163
vn 0.4274339 0.61854184 -0.65932256
vn 0.015382886 0.65023804 -0.75957483
vn -0.4283644 0.61854184 -0.6587184
vn -0.3966682 0.8404155 -0.36926436
vn -0.30157948 0.9355042 -0.18406989
vn -0.55117077 0.83439255 -0
vn -0.77702296 0.5234531 0.34961718
vn -0.68193436 0.71363056 -0.16030262
vn -0.4283644 0.61854184 -0.6587184
vn -0.8404155 0.4283644 -0.33197254
vn -0.74532676 0.20649076 0.6339161
vn -0.8721117 0.46006072 0.16662951
vn -0.8404155 0.4283644 -0.33197254
vn -0.96320486 0.26876837 -0
vn -0.8721117 -0.015382886 0.48906505
vn -0.99884707 0.048007246 -0
vn -0.903808 -0.110471606 0.41343334
vn -0.49175692 -0.300649 0.81718135
vn -0.903808 -0.110471606 0.41343334
vn -0.49175692 -0.33234525 0.80481166
vn 0.45913017 0.364972 -0.8099351
vn 0.87118125 0.20649076 -0.4454265
vn 0.839485 0.4283644 -0.33431855
vn 0.4274339 0.61854184 -0.65932256
vn 0.87118125 0.20649076 -0.4454265
vn 0.9979662 0.048009634 0.041935924
vn 0.96313775 0.26900846 -0
vn 0.839485 0.4283644 -0.33431855
vn 0.015382886 0.46006072 -0.8877542
vn 0.45913017 0.364972 -0.8099351
vn 0.4274339 0.61854184 -0.65932256
vn 0.015382886 0.65023804 -0.75957483
vn 0.17386407 -0.5225226 -0.83471036
vn 0.17386407 -0.5225226 -0.83471036
vn 0.17386407 -0.5225226 -0.83471036
vn 0.17386407 -0.5225226 -0.83471036
vn 0.3957377 -0.5542189 -0.73227936
vn 0.3957377 -0.5542189 -0.73227936
vn 0.3957377 -0.5542189 -0.73227936
vn 0.3957377 -0.5542189 -0.73227936
vn 0.110471606 -0.9345737 0.3381833
vn 0.110471606 -0.9345737 0.3381833
vn 0.110471606 -0.9345737 0.3381833
vn 0.110471606 -0.9345737 0.3381833
vn 0.4274339 -0.90287745 0.045962673
vn 0.4274339 -0.90287745 0.045962673
vn 0.4274339 -0.90287745 0.045962673
vn 0.4274339 -0.90287745 0.045962673
vn 0.5859151 -0.6810038 -0.43924627
vn 0.5859151 -0.6810038 -0.43924627
vn 0.5859151 -0.6810038 -0.43924627
vn 0.5859151 -0.6810038 -0.43924627
vn 0.5859151 -0.7760925 -0.2332035
vn 0.5859151 -0.7760925 -0.2332035
vn 0.5859151 -0.7760925 -0.2332035
vn 0.5859151 -0.7760925 -0.2332035
vn -0.46006072 0.364972 -0.80940694
vn -0.4283644 0.61854184 -0.6587184
vn -0.8404155 0.4283644 -0.33197254
vn -0.8721117 0.20649076 -0.4436021
vn 0.015382886 -0.49082643 0.8711216
vn 0.015382886 -0.36404145 0.9312557
vn -0.49175692 -0.33234525 0.80481166
vn -0.8721117 0.20649076 -0.4436021
vn -0.8404155 0.4283644 -0.33197254
vn -0.96320486 0.26876837 -0
vn -0.99884707 0.048007246 -0
vn 0.015382886 0.46006072 -0.8877542
vn 0.015382886 0.65023804 -0.75957483
vn -0.4283644 0.61854184 -0.6587184
vn -0.46006072 0.364972 -0.80940694
vn -0.17479455 -0.5225226 -0.834516
vn -0.17479455 -0.5225226 -0.834516
vn -0.17479455 -0.5225226 -0.834516
vn -0.17479455 -0.5225226 -0.834516
vn -0.3966682 -0.5542189 -0.73177576
vn -0.3966682 -0.5542189 -0.73177576
vn -0.3966682 -0.5542189 -0.73177576
vn -0.3966682 -0.5542189 -0.73177576
vn -0.111402035 -0.9345737 0.33787802
vn -0.111402035 -0.9345737 0.33787802
vn -0.111402035 -0.9345737 0.33787802
vn -0.111402035 -0.9345737 0.33787802
vn -0.4283644 -0.90287745 0.03628015
vn -0.4283644 -0.90287745 0.03628015
vn -0.4283644 -0.90287745 0.03628015
vn -0.4283644 -0.90287745 0.03628015
vn -0.58684564 -0.6810038 -0.43800232
vn -0.58684564 -0.6810038 -0.43800232
vn -0.58684564 -0.6810038 -0.43800232
vn -0.58684564 -0.6810038 -0.43800232
vn -0.58684564 -0.7760925 -0.23085196
vn -0.58684564 -0.7760925 -0.23085196
vn -0.58684564 -0.7760925 -0.23085196
vn -0.58684564 -0.7760925 -0.23085196
vn 0.17386407 0.8721117 0.45737568
vn 0.015382886 0.3966682 0.91783315
vn 0.015382886 0.903808 0.42766163
vn -0.17479455 0.8721117 0.45702088
vn 0.4274339 0.3966682 0.8123759
vn 0.26895273 0.8404155 0.47049573
vn -0.3966682 0.3966682 0.8278337
vn -0.26988328 0.8404155 0.4699626
vn 0.7760925 0.364972 0.51427215
vn 0.300649 0.8404155 0.45090136
vn 0.015382886 -0.17386407 0.9846495
vn 0.49082643 -0.17386407 0.85373336
vn -0.49175692 -0.17386407 0.85319775
vn 0.87118125 -0.1421678 0.46992716
vn -0.77702296 0.364972 0.51286525
vn -0.30157948 0.8404155 0.4502795
vn -0.8721117 -0.1421678 0.4681982
vn 0.839485 0.46006072 0.28915238
vn 0.300649 0.903808 0.30453458
vn 0.9979662 -0.047079086 -0.042977974
vn -0.8404155 0.46006072 0.28643668
vn -0.30157948 0.903808 0.3036131
vn -0.99889123 -0.04707883 -0
vn 0.7443963 0.65023804 -0.15187028
vn 0.110471606 0.9672004 0.22873436
vn 0.87118125 0.111402035 -0.4781556
vn -0.74532676 0.65023804 -0.14723633
vn -0.111402035 0.9672004 0.2282827
vn -0.8721117 0.111402035 -0.47645652
vn 0.3957377 0.77702296 -0.48951712
vn 0.45913017 0.26988328 -0.84638196
vn 0.015382886 0.9988967 0.044370502
vn -0.3966682 0.77702296 -0.48876342
vn -0.46006072 0.26988328 -0.8458766
vn 0.015382886 0.8087193 -0.5879936
vn 0.015382886 0.30157948 -0.9533169
g hat_Beanie_0
f 3/3/3 2/2/2 1/1/1
f 6/6/6 5/5/5 4/4/4
f 9/9/9 8/8/8 7/7/7
f 12/12/12 11/11/11 10/10/10
f 15/15/15 14/14/14 13/13/13
f 18/18/18 17/17/17 16/16/16
f 21/21/21 20/20/20 19/19/19
f 24/24/24 23/23/23 22/22/22
f 27/27/27 26/26/26 25/25/25
f 30/30/30 29/29/29 28/28/28
f 33/33/33 32/32/32 31/31/31
f 36/36/36 35/35/35 34/34/34
f 39/39/39 38/38/38 37/37/37
f 38/38/38 40/40/40 37/37/37
f 37/37/37 40/40/40 41/41/41
f 41/41/41 42/42/42 37/37/37
f 42/42/42 43/43/43 37/37/37
f 37/37/37 43/43/43 44/44/44
f 43/43/43 45/45/45 44/44/44
f 43/43/43 46/46/46 45/45/45
f 42/42/42 46/46/46 43/43/43
f 46/46/46 47/47/47 45/45/45
f 48/48/48 45/45/45 47/47/47
f 49/49/49 48/48/48 47/47/47
f 41/41/41 50/50/50 42/42/42
f 51/51/51 46/46/46 42/42/42
f 50/50/50 51/51/51 42/42/42
f 46/46/46 52/52/52 47/47/47
f 51/51/51 52/52/52 46/46/46
f 53/53/53 52/52/52 51/51/51
f 52/52/52 54/54/54 47/47/47
f 54/54/54 52/52/52 53/53/53
f 55/55/55 47/47/47 54/54/54
f 56/56/56 55/55/55 54/54/54
f 57/57/57 50/50/50 41/41/41
f 40/40/40 57/57/57 41/41/41
f 58/58/58 54/54/54 53/53/53
f 59/59/59 54/54/54 58/58/58
f 60/60/60 59/59/59 58/58/58
f 61/61/61 58/58/58 53/53/53
f 62/62/62 61/61/61 53/53/53
f 63/63/63 53/53/53 51/51/51
f 50/50/50 64/64/64 51/51/51
f 64/64/64 63/63/63 51/51/51
f 53/53/53 63/63/63 65/65/65
f 62/62/62 53/53/53 65/65/65
f 63/63/63 64/64/64 65/65/65
f 66/66/66 50/50/50 57/57/57
f 66/66/66 64/64/64 50/50/50
f 67/67/67 57/57/57 40/40/40
f 67/67/67 66/66/66 57/57/57
f 64/64/64 66/66/66 68/68/68
f 64/64/64 68/68/68 65/65/65
f 69/69/69 67/67/67 40/40/40
f 69/69/69 40/40/40 70/70/70
f 71/71/71 69/69/69 70/70/70
f 69/69/69 71/71/71 72/72/72
f 73/73/73 69/69/69 72/72/72
f 67/67/67 69/69/69 73/73/73
f 66/66/66 67/67/67 74/74/74
f 68/68/68 66/66/66 74/74/74
f 74/74/74 67/67/67 73/73/73
f 68/68/68 74/74/74 75/75/75
f 74/74/74 73/73/73 75/75/75
f 65/65/65 68/68/68 76/76/76
f 68/68/68 75/75/75 76/76/76
f 73/73/73 77/77/77 75/75/75
f 76/76/76 75/75/75 77/77/77
f 73/73/73 78/78/78 77/77/77
f 78/78/78 79/79/79 77/77/77
f 80/80/80 65/65/65 76/76/76
f 62/62/62 65/65/65 80/80/80
f 81/81/81 76/76/76 77/77/77
f 80/80/80 76/76/76 81/81/81
f 81/81/81 77/77/77 82/82/82
f 83/83/83 81/81/81 82/82/82
f 80/80/80 81/81/81 83/83/83
f 62/62/62 80/80/80 84/84/84
f 84/84/84 80/80/80 83/83/83
f 83/83/83 85/85/85 84/84/84
f 85/85/85 86/86/86 84/84/84
f 87/87/87 62/62/62 84/84/84
f 84/84/84 88/88/88 87/87/87
f 88/88/88 89/89/89 87/87/87
f 92/92/92 91/91/91 90/90/90
f 93/93/93 92/92/92 90/90/90
f 96/96/96 95/95/95 94/94/94
f 97/97/97 96/96/96 94/94/94
f 100/100/100 99/99/99 98/98/98
f 101/101/101 100/100/100 98/98/98
f 104/104/104 103/103/103 102/102/102
f 105/105/105 104/104/104 102/102/102
f 108/108/108 107/107/107 106/106/106
f 109/109/109 108/108/108 106/106/106
f 112/112/112 111/111/111 110/110/110
f 113/113/113 112/112/112 110/110/110
f 116/116/116 115/115/115 114/114/114
f 117/117/117 116/116/116 114/114/114
f 120/120/120 119/119/119 118/118/118
f 121/121/121 120/120/120 118/118/118
f 124/124/124 123/123/123 122/122/122
f 125/125/125 124/124/124 122/122/122
f 128/128/128 127/127/127 126/126/126
f 129/129/129 128/128/128 126/126/126
f 132/132/132 131/131/131 130/130/130
f 61/61/61 132/132/132 130/130/130
f 135/135/135 134/134/134 133/133/133
f 136/136/136 135/135/135 133/133/133
f 139/139/139 138/138/138 137/137/137
f 140/140/140 139/139/139 137/137/137
f 143/143/143 142/142/142 141/141/141
f 144/144/144 143/143/143 141/141/141
f 147/147/147 146/146/146 145/145/145
f 148/148/148 147/147/147 145/145/145
f 151/151/151 150/150/150 149/149/149
f 152/152/152 151/151/151 149/149/149
f 155/155/155 154/154/154 153/153/153
f 156/156/156 155/155/155 153/153/153
f 159/159/159 158/158/158 157/157/157
f 160/160/160 159/159/159 157/157/157
f 163/163/163 162/162/162 161/161/161
f 164/164/164 163/163/163 161/161/161
f 167/167/167 166/166/166 165/165/165
f 166/166/166 167/167/167 168/168/168
f 166/166/166 169/169/169 165/165/165
f 165/165/165 169/169/169 170/170/170
f 171/171/171 166/166/166 168/168/168
f 171/171/171 168/168/168 172/172/172
f 169/169/169 173/173/173 170/170/170
f 170/170/170 173/173/173 174/174/174
f 166/166/166 175/175/175 169/169/169
f 175/175/175 166/166/166 171/171/171
f 175/175/175 176/176/176 169/169/169
f 169/169/169 176/176/176 173/173/173
f 177/177/177 175/175/175 171/171/171
f 176/176/176 178/178/178 173/173/173
f 179/179/179 171/171/171 172/172/172
f 177/177/177 171/171/171 179/179/179
f 179/179/179 172/172/172 180/180/180
f 181/181/181 177/177/177 179/179/179
f 173/173/173 182/182/182 174/174/174
f 173/173/173 178/178/178 182/182/182
f 174/174/174 182/182/182 183/183/183
f 178/178/178 184/184/184 182/182/182
f 185/185/185 179/179/179 180/180/180
f 181/181/181 179/179/179 185/185/185
f 185/185/185 180/180/180 186/186/186
f 187/187/187 181/181/181 185/185/185
f 182/182/182 188/188/188 183/183/183
f 182/182/182 184/184/184 188/188/188
f 183/183/183 188/188/188 189/189/189
f 184/184/184 190/190/190 188/188/188
f 191/191/191 185/185/185 186/186/186
f 187/187/187 185/185/185 191/191/191
f 191/191/191 186/186/186 192/192/192
f 193/193/193 187/187/187 191/191/191
f 188/188/188 194/194/194 189/189/189
f 188/188/188 190/190/190 194/194/194
f 190/190/190 195/195/195 194/194/194
f 189/189/189 194/194/194 196/196/196
f 197/197/197 191/191/191 192/192/192
f 193/193/193 191/191/191 197/197/197
f 197/197/197 192/192/192 196/196/196
f 198/198/198 193/193/193 197/197/197
f 194/194/194 195/195/195 199/199/199
f 194/194/194 199/199/199 196/196/196
f 199/199/199 197/197/197 196/196/196
f 198/198/198 197/197/197 199/199/199
f 195/195/195 200/200/200 199/199/199
f 200/200/200 198/198/198 199/199/199
