g house01
v -2.8802028 2.1818883 1.4187386
v -1.9585375 3.591181 1.4187382
v -0.036954075 3.591181 1.4187378
v 7.465706E-07 2.1818883 1.4187378
v 4.848202E-08 -1.1273234E-08 -0.72368085
v 4.8481965E-08 2.1818879 -0.7236811
v -2.8802032 2.1818879 -0.72368014
v -2.8802032 -1.1273234E-08 -0.7236799
v -2.8802028 4.4517586E-07 1.418739
v -2.8802028 2.1818883 1.4187386
v 7.465706E-07 2.1818883 1.4187378
v 7.465707E-07 4.4517586E-07 1.418738
v -0.036954775 3.5911808 -0.72368133
v -0.036954075 3.591181 1.4187378
v -1.9585375 3.591181 1.4187382
v -1.958538 3.5911808 -0.7236807
v 4.8481965E-08 2.1818879 -0.7236811
v -0.036954775 3.5911808 -0.72368133
v -1.958538 3.5911808 -0.7236807
v -2.8802032 2.1818879 -0.72368014
v -2.8802032 2.1818879 -0.72368014
v -1.958538 3.5911808 -0.7236807
v -1.9585375 3.591181 1.4187382
v -2.8802028 2.1818883 1.4187386
v -1.8422385 2.1818874 -1.7437924
v -0.11630122 3.808305 -1.743793
v -0.11629945 3.8083065 1.9493133
v -1.8422366 2.1818883 1.9493142
v -1.8422366 2.1818883 1.9493142
v -1.8422366 5.5821675E-07 1.9493146
v -1.8422385 -6.097004E-07 -1.743792
v -1.8422385 2.1818874 -1.7437924
v 1.8422366 2.1818874 -1.7437936
v 1.8422366 -6.097004E-07 -1.7437934
v 1.8422385 5.5821675E-07 1.9493133
v 1.8422385 2.1818883 1.949313
v -1.8422366 2.1818883 1.9493142
v -0.11629945 3.8083065 1.9493133
v 0.11630129 3.8083065 1.9493133
v 1.8422385 2.1818883 1.949313
v 0.4473303 1.3301643 -1.7437931
v 0.4473303 1.3301643 -1.6637828
v 1.3949057 1.3301643 -1.6637832
v 1.3949057 1.3301643 -1.7437935
v -0.11630122 3.808305 -1.743793
v 0.11629952 3.808305 -1.7437931
v 0.11630129 3.8083065 1.9493133
v -0.11629945 3.8083065 1.9493133
v 0.4473303 -6.084889E-07 -1.7437929
v 0.4473303 -5.977924E-07 -1.6637827
v 0.4473303 1.3301643 -1.6637828
v 0.4473303 1.3301643 -1.7437931
v 1.3949057 1.3301643 -1.7437935
v 1.3949057 1.3301643 -1.6637832
v 1.3949057 -5.977924E-07 -1.663783
v 1.3949057 -6.084889E-07 -1.7437932
v -2.8802028 4.4517586E-07 1.418739
v -2.8802032 -1.1273234E-08 -0.7236799
v -2.8802032 2.1818879 -0.72368014
v -2.8802028 2.1818883 1.4187386
v -1.8422385 -6.097004E-07 -1.743792
v -8.5248706E-07 2.1818874 -1.743793
v -1.8422385 2.1818874 -1.7437924
v -8.5248695E-07 -6.097004E-07 -1.7437927
v 0.32471463 1.4668602 -1.743793
v 0.32471472 -6.087842E-07 -1.7437928
v 1.5175214 1.4668602 -1.7437935
v 1.8422366 2.1818874 -1.7437936
v 1.517521 -6.087842E-07 -1.7437932
v 1.8422366 -6.097004E-07 -1.7437934
v 0.32471472 -6.087842E-07 -1.7437928
v 0.4473303 -6.084889E-07 -1.7437929
v 0.4473303 1.3301643 -1.7437931
v 0.32471463 1.4668602 -1.743793
v 1.3949057 1.3301643 -1.7437935
v 1.5175214 1.4668602 -1.7437935
v 1.3949057 -6.084889E-07 -1.7437932
v 1.517521 -6.087842E-07 -1.7437932
v -8.5248706E-07 2.1818874 -1.743793
v 1.8422366 2.1818874 -1.7437936
v 0.11629952 3.808305 -1.7437931
v -0.11630122 3.808305 -1.743793
v -1.8422385 2.1818874 -1.7437924
v 1.3949057 -5.977924E-07 -1.663783
v 1.3949057 1.3301643 -1.6637832
v 0.4473303 1.3301643 -1.6637828
v 0.4473303 -5.977924E-07 -1.6637827
v 0.7558199 4.140201 0.9473872
v 0.7558199 3.8707945 0.9473872
v 1.2479941 3.8707945 0.9473871
v 1.2479941 4.140201 0.9473872
v 1.2479937 3.8707945 0.4449203
v 1.2479941 3.8707945 0.9473871
v 0.7558199 3.8707945 0.9473872
v 0.7558197 3.8707945 0.44492048
v 1.2479937 4.140201 0.44492036
v 1.2479937 3.8707945 0.4449203
v 0.7558197 3.8707945 0.44492048
v 0.7558197 4.140201 0.4449205
v 1.2479941 4.140201 0.9473872
v 1.2479941 3.8707945 0.9473871
v 1.2479937 3.8707945 0.4449203
v 1.2479937 4.140201 0.44492036
v 0.7558197 4.140201 0.4449205
v 0.7558197 3.8707945 0.44492048
v 0.7558199 3.8707945 0.9473872
v 0.7558199 4.140201 0.9473872
v 1.8422385 2.1818883 1.949313
v 0.11630129 3.8083065 1.9493133
v 0.11629952 3.808305 -1.7437931
v 1.8422366 2.1818874 -1.7437936
v 1.8422385 2.1818883 1.949313
v 1.8422385 5.5821675E-07 1.9493133
v -1.8422366 5.5821675E-07 1.9493146
v -1.8422366 2.1818883 1.9493142
v -0.35472065 0.6606035 -1.7891436
v -0.35472065 1.3671242 -1.7891437
v -1.3136091 1.3671242 -1.7891434
v -1.3136091 0.6606035 -1.7891433
v -0.4871526 0.6606036 1.9946661
v -0.4871526 1.3671243 1.9946666
v 1.204884 1.3671243 1.994666
v 1.204884 0.6606036 1.9946657
v -2.925556 0.66060364 0.5259173
v -2.925556 1.3671243 0.52591723
v -2.9255548 1.3671244 1.0680923
v -2.9255548 0.6606036 1.0680922
v 1.8875916 0.6606036 -0.37026587
v 1.8875921 1.3671243 -0.37026587
v 1.8875911 1.3671243 -1.1090732
v 1.887591 0.6606036 -1.1090732
v 1.8875916 0.6606036 1.3015543
v 1.8875921 1.3671243 1.3015543
v 1.8875911 1.3671243 0.562747
v 1.887591 0.6606036 0.562747
v 1.401929 2.408996 1.1013227
v 1.401929 3.8317595 1.1013223
v 1.4019288 3.8317595 0.29098532
v 1.4019288 2.4089959 0.2909855
v 0.6018846 2.4089959 0.29098594
v 0.6018846 3.8317595 0.29098564
v 0.60188496 3.8317595 1.1013224
v 0.60188496 2.408996 1.1013228
v 1.4019288 2.4089959 0.2909855
v 1.4019288 3.8317595 0.29098532
v 0.6018846 3.8317595 0.29098564
v 0.6018846 2.4089959 0.29098594
v 0.60188496 2.408996 1.1013228
v 0.60188496 3.8317595 1.1013224
v 1.401929 3.8317595 1.1013223
v 1.401929 2.408996 1.1013227
v 0.55695534 3.8144376 1.1468301
v 0.55695534 4.1575227 1.1468301
v 1.4468588 4.1575227 1.1468298
v 1.4468588 3.8144376 1.1468301
v 1.4468584 3.8144376 0.24547759
v 1.4468584 4.1575227 0.24547756
v 0.55695486 4.1575227 0.24547789
v 0.55695486 3.8144376 0.24547794
v 0.55695486 3.8144376 0.24547794
v 0.55695486 4.1575227 0.24547789
v 0.55695534 4.1575227 1.1468301
v 0.55695534 3.8144376 1.1468301
v 1.4468588 3.8144376 1.1468301
v 1.4468588 4.1575227 1.1468298
v 1.4468584 4.1575227 0.24547756
v 1.4468584 3.8144376 0.24547759
v 0.60188496 3.8317595 1.1013224
v 0.55695534 3.8144376 1.1468301
v 1.4468588 3.8144376 1.1468301
v 1.401929 3.8317595 1.1013223
v 0.6018846 3.8317595 0.29098564
v 1.4468584 3.8144376 0.24547759
v 0.55695486 3.8144376 0.24547794
v 1.4019288 3.8317595 0.29098532
v 1.887591 0.6606036 0.562747
v 1.8875916 0.5608676 1.4012903
v 1.8875916 0.6606036 1.3015543
v 1.887591 0.5608676 0.4630108
v 1.8875921 1.4668603 1.4012903
v 1.8875911 1.3671243 0.562747
v 1.8875921 1.3671243 1.3015543
v 1.8875911 1.4668603 0.4630108
v 1.887591 0.6606036 -1.1090732
v 1.8875916 0.5608676 -0.27052987
v 1.8875916 0.6606036 -0.37026587
v 1.887591 0.5608676 -1.2088094
v 1.8875921 1.4668603 -0.27052987
v 1.8875911 1.3671243 -1.1090732
v 1.8875921 1.3671243 -0.37026587
v 1.8875911 1.4668603 -1.2088094
v -2.9255548 0.6606036 1.0680922
v -2.925556 0.56086755 0.42618117
v -2.925556 0.66060364 0.5259173
v -2.9255548 0.5608676 1.1678282
v -2.9255562 1.4668604 0.42618108
v -2.9255548 1.3671244 1.0680923
v -2.925556 1.3671243 0.52591723
v -2.9255548 1.4668604 1.1678282
v 1.204884 0.6606036 1.9946657
v -0.5868887 0.56086755 1.9946661
v -0.4871526 0.6606036 1.9946661
v 1.30462 0.56086755 1.9946657
v -0.5868887 1.4668603 1.9946666
v 1.204884 1.3671243 1.994666
v -0.4871526 1.3671243 1.9946666
v 1.30462 1.4668603 1.994666
v -1.3136091 0.6606035 -1.7891433
v -0.25498462 0.5608675 -1.7891436
v -0.35472065 0.6606035 -1.7891436
v -1.4133452 0.5608675 -1.7891433
v -0.25498462 1.4668602 -1.7891438
v -1.3136091 1.3671242 -1.7891434
v -0.35472065 1.3671242 -1.7891437
v -1.4133452 1.4668602 -1.7891434
v 0.7558199 4.140201 0.9473872
v 1.2479941 4.140201 0.9473872
v 1.4468588 4.1575227 1.1468298
v 0.55695534 4.1575227 1.1468301
v 1.4468584 4.1575227 0.24547756
v 0.7558197 4.140201 0.4449205
v 1.2479937 4.140201 0.44492036
v 0.55695486 4.1575227 0.24547789
vt 0.27992886 0.6554325
vt 0.27992886 0.6554325
vt 0.27992886 0.6554325
vt 0.27992886 0.6554325
vt 0.7810675 0.90717125
vt 0.7810675 0.90717125
vt 0.7810675 0.90717125
vt 0.7810675 0.90717125
vt 0.7810675 0.90717125
vt 0.7810675 0.90717125
vt 0.7810675 0.90717125
vt 0.7810675 0.90717125
vt 0.27992886 0.6554325
vt 0.27992886 0.6554325
vt 0.27992886 0.6554325
vt 0.27992886 0.6554325
vt 0.27992886 0.6554325
vt 0.27992886 0.6554325
vt 0.27992886 0.6554325
vt 0.27992886 0.6554325
vt 0.27992886 0.6554325
vt 0.27992886 0.6554325
vt 0.27992886 0.6554325
vt 0.27992886 0.6554325
vt 0.27992886 0.6554325
vt 0.27992886 0.6554325
vt 0.27992886 0.6554325
vt 0.27992886 0.6554325
vt 0.7810675 0.90717125
vt 0.7810675 0.90717125
vt 0.7810675 0.90717125
vt 0.7810675 0.90717125
vt 0.7810675 0.90717125
vt 0.7810675 0.90717125
vt 0.7810675 0.90717125
vt 0.7810675 0.90717125
vt 0.27992886 0.6554325
vt 0.27992886 0.6554325
vt 0.27992886 0.6554325
vt 0.27992886 0.6554325
vt 0.658916 0.90956354
vt 0.658916 0.90956354
vt 0.658916 0.90956354
vt 0.658916 0.90956354
vt 0.27992886 0.6554325
vt 0.27992886 0.6554325
vt 0.27992886 0.6554325
vt 0.27992886 0.6554325
vt 0.658916 0.90956354
vt 0.658916 0.90956354
vt 0.658916 0.90956354
vt 0.658916 0.90956354
vt 0.658916 0.90956354
vt 0.658916 0.90956354
vt 0.658916 0.90956354
vt 0.658916 0.90956354
vt 0.7810675 0.90717125
vt 0.7810675 0.90717125
vt 0.7810675 0.90717125
vt 0.7810675 0.90717125
vt 0.7810675 0.90717125
vt 0.7810675 0.90717125
vt 0.7810675 0.90717125
vt 0.7810675 0.90717125
vt 0.78106755 0.90717137
vt 0.7810675 0.90717125
vt 0.7810675 0.90717125
vt 0.7810675 0.90717125
vt 0.7810675 0.90717125
vt 0.7810675 0.90717125
vt 0.658916 0.90956354
vt 0.658916 0.90956354
vt 0.658916 0.90956354
vt 0.658916 0.90956354
vt 0.658916 0.90956354
vt 0.658916 0.90956354
vt 0.658916 0.90956354
vt 0.658916 0.90956354
vt 0.27992886 0.6554325
vt 0.27992886 0.6554325
vt 0.27992886 0.6554325
vt 0.27992886 0.6554325
vt 0.27992886 0.6554325
vt 0.1571105 0.1573984
vt 0.1571105 0.1573984
vt 0.1571105 0.1573984
vt 0.1571105 0.1573984
vt 0.71663666 0.09216407
vt 0.71663666 0.09216407
vt 0.71663666 0.09216407
vt 0.71663666 0.09216407
vt 0.9719666 0.030813567
vt 0.9719666 0.030813567
vt 0.9719666 0.030813567
vt 0.9719666 0.030813567
vt 0.71663666 0.09216407
vt 0.71663666 0.09216407
vt 0.71663666 0.09216407
vt 0.71663666 0.09216407
vt 0.71663666 0.09216407
vt 0.71663666 0.09216407
vt 0.71663666 0.09216407
vt 0.71663666 0.09216407
vt 0.71663666 0.09216407
vt 0.71663666 0.09216407
vt 0.71663666 0.09216407
vt 0.71663666 0.09216407
vt 0.27992886 0.6554325
vt 0.27992886 0.6554325
vt 0.27992886 0.6554325
vt 0.27992886 0.6554325
vt 0.7810675 0.90717125
vt 0.7810675 0.90717125
vt 0.7810675 0.90717125
vt 0.7810675 0.90717125
vt 0.1571105 0.15739839
vt 0.15711048 0.15739839
vt 0.1571105 0.1573984
vt 0.1571105 0.15739839
vt 0.1571105 0.15739839
vt 0.15711048 0.15739839
vt 0.1571105 0.1573984
vt 0.1571105 0.15739839
vt 0.1571105 0.15739839
vt 0.15711048 0.15739839
vt 0.1571105 0.1573984
vt 0.1571105 0.15739839
vt 0.1571105 0.15739839
vt 0.15711048 0.15739839
vt 0.1571105 0.1573984
vt 0.1571105 0.15739839
vt 0.1571105 0.15739839
vt 0.15711048 0.15739839
vt 0.1571105 0.1573984
vt 0.1571105 0.15739839
vt 0.65705407 0.09402603
vt 0.65705407 0.09402603
vt 0.65705407 0.09402603
vt 0.65705407 0.09402603
vt 0.65705407 0.09402603
vt 0.65705407 0.09402603
vt 0.65705407 0.09402603
vt 0.65705407 0.09402603
vt 0.65705407 0.09402603
vt 0.65705407 0.09402603
vt 0.65705407 0.09402603
vt 0.65705407 0.09402603
vt 0.65705407 0.09402603
vt 0.65705407 0.09402603
vt 0.65705407 0.09402603
vt 0.65705407 0.09402603
vt 0.5956094 0.09216407
vt 0.5956094 0.09216407
vt 0.5956094 0.09216407
vt 0.5956094 0.09216407
vt 0.5956094 0.09216407
vt 0.5956094 0.09216407
vt 0.5956094 0.09216407
vt 0.5956094 0.09216407
vt 0.5956094 0.09216407
vt 0.5956094 0.09216407
vt 0.5956094 0.09216407
vt 0.5956094 0.09216407
vt 0.5956094 0.09216407
vt 0.5956094 0.09216407
vt 0.5956094 0.09216407
vt 0.5956094 0.09216407
vt 0.031297795 0.22193871
vt 0.031297795 0.22193871
vt 0.031297795 0.2219387
vt 0.031297795 0.2219387
vt 0.031297795 0.2219387
vt 0.031297795 0.22193871
vt 0.031297795 0.2219387
vt 0.031297795 0.22193871
vt 0.65718156 0.90739214
vt 0.65718156 0.90739214
vt 0.65718156 0.90739214
vt 0.65718156 0.90739214
vt 0.65718156 0.90739214
vt 0.65718156 0.90739214
vt 0.65718156 0.90739214
vt 0.65718156 0.90739214
vt 0.65718156 0.90739214
vt 0.65718156 0.90739214
vt 0.65718156 0.90739214
vt 0.65718156 0.90739214
vt 0.65718156 0.90739214
vt 0.65718156 0.90739214
vt 0.65718156 0.90739214
vt 0.65718156 0.90739214
vt 0.65718156 0.90739214
vt 0.65718156 0.90739214
vt 0.65718156 0.90739214
vt 0.65718156 0.90739214
vt 0.65718156 0.90739214
vt 0.65718156 0.90739214
vt 0.65718156 0.90739214
vt 0.65718156 0.90739214
vt 0.65718156 0.90739214
vt 0.65718156 0.90739214
vt 0.65718156 0.90739214
vt 0.65718156 0.90739214
vt 0.65718156 0.90739214
vt 0.65718156 0.90739214
vt 0.65718156 0.90739214
vt 0.65718156 0.90739214
vt 0.65718156 0.90739214
vt 0.65718156 0.90739214
vt 0.65718156 0.90739214
vt 0.65718156 0.90739214
vt 0.65718156 0.90739214
vt 0.65718156 0.90739214
vt 0.65718156 0.90739214
vt 0.65718156 0.90739214
vt 0.5956094 0.09216407
vt 0.5956094 0.09216407
vt 0.5956094 0.09216407
vt 0.5956094 0.09216407
vt 0.5956094 0.09216407
vt 0.5956094 0.09216407
vt 0.5956094 0.09216407
vt 0.5956094 0.09216407
vn -0 0 1
vn -0 0 1
vn -0 0 1
vn -0 0 1
vn -0 0 -1
vn -0 0 -1
vn -0 0 -1
vn -0 0 -1
vn -0 0 1
vn -0 0 1
vn -0 0 1
vn -0 0 1
vn -0 1 0
vn -0 1 0
vn -0 1 0
vn -0 1 0
vn -0 0 -1
vn -0 0 -1
vn -0 0 -1
vn -0 0 -1
vn -0.8369139 0.54733455 0
vn -0.8369139 0.54733455 0
vn -0.8369139 0.54733455 0
vn -0.8369139 0.54733455 0
vn -0.6858132 0.7277776 0
vn -0.6858132 0.7277776 0
vn -0.6858132 0.7277776 0
vn -0.6858132 0.7277776 0
vn -1 0 0
vn -1 0 0
vn -1 0 0
vn -1 0 0
vn 1 0 0
vn 1 0 0
vn 1 0 0
vn 1 0 0
vn -0 0 1
vn -0 0 1
vn -0 0 1
vn -0 0 1
vn -0 -1 0
vn -0 -1 0
vn -0 -1 0
vn -0 -1 0
vn -0 1 0
vn -0 1 0
vn -0 1 0
vn -0 1 0
vn 1 0 0
vn 1 0 0
vn 1 0 0
vn 1 0 0
vn -1 0 0
vn -1 0 0
vn -1 0 0
vn -1 0 0
vn -1 0 0
vn -1 0 0
vn -1 0 0
vn -1 0 0
vn -0 0 -1
vn -0 0 -1
vn -0 0 -1
vn -0 0 -1
vn -0 0 -1
vn -0 0 -1
vn -0 0 -1
vn -0 0 -1
vn -0 0 -1
vn -0 0 -1
vn -0 0 -1
vn -0 0 -1
vn -0 0 -1
vn -0 0 -1
vn -0 0 -1
vn -0 0 -1
vn -0 0 -1
vn -0 0 -1
vn -0 0 -1
vn -0 0 -1
vn -0 0 -1
vn -0 0 -1
vn -0 0 -1
vn -0 0 -1
vn -0 0 -1
vn -0 0 -1
vn -0 0 -1
vn -0 0 -1
vn -0 0 -1
vn -0 0 -1
vn -0 0 -1
vn -0 1 0
vn -0 1 0
vn -0 1 0
vn -0 1 0
vn -0 0 1
vn -0 0 1
vn -0 0 1
vn -0 0 1
vn -1 0 0
vn -1 0 0
vn -1 0 0
vn -1 0 0
vn 1 0 0
vn 1 0 0
vn 1 0 0
vn 1 0 0
vn 0.6858131 0.72777766 0
vn 0.6858131 0.72777766 0
vn 0.6858131 0.72777766 0
vn 0.6858131 0.72777766 0
vn -0 0 1
vn -0 0 1
vn -0 0 1
vn -0 0 1
vn -0 0 -1
vn -0 0 -1
vn -0 0 -1
vn -0 0 -1
vn -0 0 1
vn -0 0 1
vn -0 0 1
vn -0 0 1
vn -1 0 0
vn -1 0 0
vn -1 0 0
vn -1 0 0
vn 1 0 0
vn 1 0 0
vn 1 0 0
vn 1 0 0
vn 1 0 0
vn 1 0 0
vn 1 0 0
vn 1 0 0
vn 1 0 0
vn 1 0 0
vn 1 0 0
vn 1 0 0
vn -1 0 0
vn -1 0 0
vn -1 0 0
vn -1 0 0
vn -0 0 -1
vn -0 0 -1
vn -0 0 -1
vn -0 0 -1
vn -0 0 1
vn -0 0 1
vn -0 0 1
vn -0 0 1
vn -0 0 1
vn -0 0 1
vn -0 0 1
vn -0 0 1
vn -0 0 -1
vn -0 0 -1
vn -0 0 -1
vn -0 0 -1
vn -1 0 0
vn -1 0 0
vn -1 0 0
vn -1 0 0
vn 1 0 0
vn 1 0 0
vn 1 0 0
vn 1 0 0
vn 0.1863842 -0.96521217 -0.18337487
vn 0.18455228 -0.9652184 -0.18518594
vn -0.18454953 -0.96521896 -0.18518575
vn -0.18638152 -0.96521276 -0.18337457
vn 0.1863841 -0.9652123 0.1833746
vn -0.18454957 -0.96521896 0.18518579
vn 0.18455227 -0.96521854 0.18518558
vn -0.18638164 -0.96521276 0.1833746
vn 1 0 0
vn 1 0 0
vn 1 0 0
vn 1 0 0
vn 1 0 0
vn 1 0 0
vn 1 0 0
vn 1 0 0
vn 1 0 0
vn 1 0 0
vn 1 0 0
vn 1 0 0
vn 1 0 0
vn 1 0 0
vn 1 0 0
vn 1 0 0
vn -1 0 0
vn -1 0 0
vn -1 0 0
vn -1 0 0
vn -1 0 0
vn -1 0 0
vn -1 0 0
vn -1 0 0
vn -0 0 1
vn -0 0 1
vn -0 0 1
vn -0 0 1
vn -0 0 1
vn -0 0 1
vn -0 0 1
vn -0 0 1
vn -0 0 -1
vn -0 0 -1
vn -0 0 -1
vn -0 0 -1
vn -0 0 -1
vn -0 0 -1
vn -0 0 -1
vn -0 0 -1
vn 0.043495376 0.9981141 -0.04331695
vn -0.04349495 0.9981141 -0.043316904
vn -0.043388426 0.9981141 -0.043423116
vn 0.04338883 0.9981141 -0.043423187
vn -0.04338801 0.9981141 0.043423165
vn 0.043495804 0.9981141 0.04331692
vn -0.04349451 0.9981141 0.043316964
vn 0.043389287 0.9981141 0.043423112
g house01_0
f 3/3/3 2/2/2 1/1/1
f 4/4/4 3/3/3 1/1/1
f 7/7/7 6/6/6 5/5/5
f 8/8/8 7/7/7 5/5/5
f 11/11/11 10/10/10 9/9/9
f 12/12/12 11/11/11 9/9/9
f 15/15/15 14/14/14 13/13/13
f 16/16/16 15/15/15 13/13/13
f 19/19/19 18/18/18 17/17/17
f 20/20/20 19/19/19 17/17/17
f 23/23/23 22/22/22 21/21/21
f 24/24/24 23/23/23 21/21/21
f 27/27/27 26/26/26 25/25/25
f 28/28/28 27/27/27 25/25/25
f 31/31/31 30/30/30 29/29/29
f 32/32/32 31/31/31 29/29/29
f 35/35/35 34/34/34 33/33/33
f 36/36/36 35/35/35 33/33/33
f 39/39/39 38/38/38 37/37/37
f 40/40/40 39/39/39 37/37/37
f 43/43/43 42/42/42 41/41/41
f 44/44/44 43/43/43 41/41/41
f 47/47/47 46/46/46 45/45/45
f 48/48/48 47/47/47 45/45/45
f 51/51/51 50/50/50 49/49/49
f 52/52/52 51/51/51 49/49/49
f 55/55/55 54/54/54 53/53/53
f 56/56/56 55/55/55 53/53/53
f 59/59/59 58/58/58 57/57/57
f 60/60/60 59/59/59 57/57/57
f 63/63/63 62/62/62 61/61/61
f 62/62/62 64/64/64 61/61/61
f 62/62/62 65/65/65 64/64/64
f 65/65/65 66/66/66 64/64/64
f 67/67/67 65/65/65 62/62/62
f 68/68/68 67/67/67 62/62/62
f 69/69/69 67/67/67 68/68/68
f 70/70/70 69/69/69 68/68/68
f 73/73/73 72/72/72 71/71/71
f 74/74/74 73/73/73 71/71/71
f 75/75/75 73/73/73 74/74/74
f 76/76/76 75/75/75 74/74/74
f 77/77/77 75/75/75 76/76/76
f 78/78/78 77/77/77 76/76/76
f 81/81/81 80/80/80 79/79/79
f 79/79/79 82/82/82 81/81/81
f 79/79/79 83/83/83 82/82/82
f 86/86/86 85/85/85 84/84/84
f 87/87/87 86/86/86 84/84/84
f 90/90/90 89/89/89 88/88/88
f 91/91/91 90/90/90 88/88/88
f 94/94/94 93/93/93 92/92/92
f 95/95/95 94/94/94 92/92/92
f 98/98/98 97/97/97 96/96/96
f 99/99/99 98/98/98 96/96/96
f 102/102/102 101/101/101 100/100/100
f 103/103/103 102/102/102 100/100/100
f 106/106/106 105/105/105 104/104/104
f 107/107/107 106/106/106 104/104/104
f 110/110/110 109/109/109 108/108/108
f 111/111/111 110/110/110 108/108/108
f 114/114/114 113/113/113 112/112/112
f 115/115/115 114/114/114 112/112/112
f 118/118/118 117/117/117 116/116/116
f 119/119/119 118/118/118 116/116/116
f 122/122/122 121/121/121 120/120/120
f 123/123/123 122/122/122 120/120/120
f 126/126/126 125/125/125 124/124/124
f 127/127/127 126/126/126 124/124/124
f 130/130/130 129/129/129 128/128/128
f 131/131/131 130/130/130 128/128/128
f 134/134/134 133/133/133 132/132/132
f 135/135/135 134/134/134 132/132/132
f 138/138/138 137/137/137 136/136/136
f 139/139/139 138/138/138 136/136/136
f 142/142/142 141/141/141 140/140/140
f 143/143/143 142/142/142 140/140/140
f 146/146/146 145/145/145 144/144/144
f 147/147/147 146/146/146 144/144/144
f 150/150/150 149/149/149 148/148/148
f 151/151/151 150/150/150 148/148/148
f 154/154/154 153/153/153 152/152/152
f 155/155/155 154/154/154 152/152/152
f 158/158/158 157/157/157 156/156/156
f 159/159/159 158/158/158 156/156/156
f 162/162/162 161/161/161 160/160/160
f 163/163/163 162/162/162 160/160/160
f 166/166/166 165/165/165 164/164/164
f 167/167/167 166/166/166 164/164/164
f 170/170/170 169/169/169 168/168/168
f 171/171/171 170/170/170 168/168/168
f 168/168/168 169/169/169 172/172/172
f 173/173/173 170/170/170 171/171/171
f 169/169/169 174/174/174 172/172/172
f 175/175/175 173/173/173 171/171/171
f 172/172/172 174/174/174 175/175/175
f 174/174/174 173/173/173 175/175/175
f 178/178/178 177/177/177 176/176/176
f 177/177/177 179/179/179 176/176/176
f 180/180/180 177/177/177 178/178/178
f 176/176/176 179/179/179 181/181/181
f 182/182/182 180/180/180 178/178/178
f 179/179/179 183/183/183 181/181/181
f 183/183/183 180/180/180 182/182/182
f 181/181/181 183/183/183 182/182/182
f 186/186/186 185/185/185 184/184/184
f 185/185/185 187/187/187 184/184/184
f 188/188/188 185/185/185 186/186/186
f 184/184/184 187/187/187 189/189/189
f 190/190/190 188/188/188 186/186/186
f 187/187/187 191/191/191 189/189/189
f 191/191/191 188/188/188 190/190/190
f 189/189/189 191/191/191 190/190/190
f 194/194/194 193/193/193 192/192/192
f 193/193/193 195/195/195 192/192/192
f 196/196/196 193/193/193 194/194/194
f 192/192/192 195/195/195 197/197/197
f 198/198/198 196/196/196 194/194/194
f 195/195/195 199/199/199 197/197/197
f 199/199/199 196/196/196 198/198/198
f 197/197/197 199/199/199 198/198/198
f 202/202/202 201/201/201 200/200/200
f 201/201/201 203/203/203 200/200/200
f 204/204/204 201/201/201 202/202/202
f 200/200/200 203/203/203 205/205/205
f 206/206/206 204/204/204 202/202/202
f 203/203/203 207/207/207 205/205/205
f 207/207/207 204/204/204 206/206/206
f 205/205/205 207/207/207 206/206/206
f 210/210/210 209/209/209 208/208/208
f 209/209/209 211/211/211 208/208/208
f 212/212/212 209/209/209 210/210/210
f 208/208/208 211/211/211 213/213/213
f 214/214/214 212/212/212 210/210/210
f 211/211/211 215/215/215 213/213/213
f 215/215/215 212/212/212 214/214/214
f 213/213/213 215/215/215 214/214/214
f 218/218/218 217/217/217 216/216/216
f 219/219/219 218/218/218 216/216/216
f 218/218/218 220/220/220 217/217/217
f 219/219/219 216/216/216 221/221/221
f 220/220/220 222/222/222 217/217/217
f 223/223/223 219/219/219 221/221/221
f 223/223/223 221/221/221 222/222/222
f 220/220/220 223/223/223 222/222/222
