g house02
v -2.134008 3.4393444 2.4950652
v -2.134008 5.5821675E-07 2.4950655
v -2.1340098 -6.097004E-07 -2.495064
v -2.1340098 3.4393435 -2.4950643
v 1.9712611 3.4393435 -2.4950657
v 1.9712611 -6.097004E-07 -2.4950652
v 1.971263 5.5821675E-07 2.4950643
v 1.971263 3.4393444 2.4950638
v 0.4473303 1.3301643 -2.4950652
v 0.4473303 1.3301643 -2.4150548
v 1.3949057 1.3301643 -2.4150553
v 1.3949057 1.3301643 -2.4950655
v 0.4473303 -6.084889E-07 -2.4950647
v 0.4473303 -5.977924E-07 -2.4150548
v 0.4473303 1.3301643 -2.4150548
v 0.4473303 1.3301643 -2.4950652
v 1.3949057 1.3301643 -2.4950655
v 1.3949057 1.3301643 -2.4150553
v 1.3949057 -5.977924E-07 -2.4150548
v 1.3949057 -6.084889E-07 -2.4950652
v -2.1340098 -6.097004E-07 -2.495064
v -8.5248706E-07 3.4393435 -2.495065
v -2.1340098 3.4393435 -2.4950643
v -8.5248695E-07 -6.097004E-07 -2.4950647
v 0.32471463 1.4668602 -2.495065
v 0.32471472 -6.087842E-07 -2.4950647
v 1.5175214 1.4668602 -2.4950655
v 1.9712611 3.4393435 -2.4950657
v 1.517521 -6.087842E-07 -2.4950652
v 1.9712611 -6.097004E-07 -2.4950652
v 0.32471472 -6.087842E-07 -2.4950647
v 0.4473303 -6.084889E-07 -2.4950647
v 0.4473303 1.3301643 -2.4950652
v 0.32471463 1.4668602 -2.495065
v 1.3949057 1.3301643 -2.4950655
v 1.5175214 1.4668602 -2.4950655
v 1.3949057 -6.084889E-07 -2.4950652
v 1.517521 -6.087842E-07 -2.4950652
v 1.3949057 -5.977924E-07 -2.4150548
v 1.3949057 1.3301643 -2.4150553
v 0.4473303 1.3301643 -2.4150548
v 0.4473303 -5.977924E-07 -2.4150548
v 1.971263 3.4393444 2.4950638
v 1.971263 5.5821675E-07 2.4950643
v -2.134008 5.5821675E-07 2.4950655
v -2.134008 3.4393444 2.4950652
v -0.5205557 0.6606035 -2.5404155
v -0.5205557 1.3671242 -2.5404158
v -1.4794441 1.3671242 -2.5404153
v -1.4794441 0.6606035 -2.5404153
v -0.4871526 0.6606036 2.540417
v -0.4871526 1.3671243 2.5404174
v 1.204884 1.3671243 2.5404167
v 1.204884 0.6606036 2.5404167
v -0.5205557 2.3237216 -2.5404155
v -0.5205557 2.835294 -2.5404158
v -1.4794441 2.835294 -2.5404153
v -1.4794441 2.3237216 -2.5404153
v 2.016616 0.6606036 -0.74986804
v 2.0166166 1.3671243 -0.74986804
v 2.0166156 1.3671243 -1.1090732
v 2.0166154 0.6606036 -1.1090732
v 2.016616 0.6606036 1.6936926
v 2.0166166 1.3671243 1.6936926
v 2.0166156 1.3671243 0.30630755
v 2.0166154 0.6606036 0.30630755
v 1.3794444 2.3237216 -2.5404155
v 1.3794444 2.835294 -2.5404158
v 0.42055583 2.835294 -2.5404153
v 0.42055583 2.3237216 -2.5404153
v 2.016616 2.3237216 -0.74986804
v 2.0166166 3.0302422 -0.74986804
v 2.0166156 3.0302422 -1.1090732
v 2.0166154 2.3237216 -1.1090732
v 2.016616 2.3237216 1.6936926
v 2.0166166 3.0302422 1.6936926
v 2.0166156 3.0302422 0.30630755
v 2.0166154 2.3237216 0.30630755
v -2.1840096 0.6606035 0.8203975
v -2.18401 1.3671243 0.8203975
v -2.184009 1.3671243 1.1796026
v -2.1840088 0.6606035 1.1796026
v -2.1840098 0.6606035 -1.6231631
v -2.1840103 1.3671243 -1.6231631
v -2.1840093 1.3671243 -0.2357781
v -2.184009 0.6606035 -0.2357781
v -2.1840096 2.3237216 0.8203975
v -2.18401 3.0302422 0.8203975
v -2.184009 3.0302422 1.1796026
v -2.1840088 2.3237216 1.1796026
v -2.1840098 2.3237216 -1.6231631
v -2.1840103 3.0302422 -1.6231631
v -2.1840093 3.0302422 -0.2357781
v -2.184009 2.3237216 -0.2357781
v 2.0808215 3.4393435 -2.7329228
v 0.11571497 5.5891623 -1.2638649
v -0.27846283 5.5891623 -1.2638648
v -2.2435706 3.4393435 -2.7329214
v -2.2435687 3.4393444 2.7329218
v 2.0808234 3.4393444 2.7329204
v 2.0808215 3.4393435 -2.7329228
v -2.2435706 3.4393435 -2.7329214
v -2.2435687 3.4393444 2.7329218
v -0.278462 5.5891623 1.2638631
v 0.11571579 5.5891623 1.263863
v 2.0808234 3.4393444 2.7329204
v 2.0808234 3.4393444 2.7329204
v 0.11571579 5.5891623 1.263863
v 0.11571497 5.5891623 -1.2638649
v 2.0808215 3.4393435 -2.7329228
v 1.8532639 5.4432783 0.09655282
v -2.0160108 5.4432783 0.09655421
v -2.0160108 5.4432783 -0.09655454
v 1.8532639 5.4432783 -0.09655593
v 1.8532635 3.4393437 -1.0592673
v 1.8532639 5.4432783 -0.09655593
v -2.0160108 5.4432783 -0.09655454
v -2.016011 3.4393437 -1.0592657
v -2.01601 3.4393442 1.0592662
v -2.0160108 5.4432783 0.09655421
v 1.8532639 5.4432783 0.09655282
v 1.8532642 3.4393442 1.0592647
v 0.11571497 5.5891623 -1.2638649
v 0.11571579 5.5891623 1.263863
v -0.278462 5.5891623 1.2638631
v -0.27846283 5.5891623 -1.2638648
v -2.2435706 3.4393435 -2.7329214
v -0.27846283 5.5891623 -1.2638648
v -0.278462 5.5891623 1.2638631
v -2.2435687 3.4393444 2.7329218
v -2.0160105 5.0897355 0.06248515
v -1.9163398 5.0897355 0.062485117
v -1.9163398 5.0897355 -0.06248538
v -2.0160105 5.0897355 -0.062485345
v 1.8532639 5.0897355 0.06248374
v 1.7535928 5.0897355 0.062483773
v 1.7535932 3.7928872 0.6855036
v 1.8532641 3.7928872 0.6855036
v 1.7535932 3.7928872 0.6855036
v 1.7535928 5.0897355 0.062483773
v 1.7535928 5.0897355 -0.062486723
v 1.7535926 3.7928872 -0.6855062
v -1.91634 3.7928872 -0.6855048
v -1.9163398 5.0897355 -0.06248538
v -1.9163398 5.0897355 0.062485117
v -1.9163394 3.7928872 0.68550503
v -2.0160108 3.7928872 -0.68550473
v -1.91634 3.7928872 -0.6855048
v -1.9163394 3.7928872 0.68550503
v -2.01601 3.7928872 0.6855051
v -2.0160105 5.0897355 -0.062485345
v -1.9163398 5.0897355 -0.06248538
v -1.91634 3.7928872 -0.6855048
v -2.0160108 3.7928872 -0.68550473
v 1.8532636 3.7928872 -0.6855062
v 1.7535926 3.7928872 -0.6855062
v 1.7535928 5.0897355 -0.062486723
v 1.8532639 5.0897355 -0.062486757
v 1.8532639 5.0897355 -0.062486757
v 1.7535928 5.0897355 -0.062486723
v 1.7535928 5.0897355 0.062483773
v 1.8532639 5.0897355 0.06248374
v 1.8532641 3.7928872 0.6855036
v 1.7535932 3.7928872 0.6855036
v 1.7535926 3.7928872 -0.6855062
v 1.8532636 3.7928872 -0.6855062
v -2.01601 3.7928872 0.6855051
v -1.9163394 3.7928872 0.68550503
v -1.9163398 5.0897355 0.062485117
v -2.0160105 5.0897355 0.06248515
v 1.8532639 5.4432783 0.09655282
v 1.8532639 5.0897355 0.06248374
v 1.8532641 3.7928872 0.6855036
v 1.8532642 3.4393442 1.0592647
v 1.8532639 5.4432783 -0.09655593
v 1.8532636 3.7928872 -0.6855062
v 1.8532639 5.0897355 -0.062486757
v 1.8532635 3.4393437 -1.0592673
v -2.01601 3.4393442 1.0592662
v -2.0160105 5.0897355 0.06248515
v -2.0160108 5.4432783 0.09655421
v -2.01601 3.7928872 0.6855051
v -2.0160105 5.0897355 -0.062485345
v -2.016011 3.4393437 -1.0592657
v -2.0160108 5.4432783 -0.09655454
v -2.0160108 3.7928872 -0.68550473
v -2.184009 2.3237216 -0.2357781
v -2.1840098 2.2239857 -1.7228992
v -2.1840098 2.3237216 -1.6231631
v -2.184009 2.2239857 -0.13604188
v -2.1840103 3.1299784 -1.7228992
v -2.1840093 3.0302422 -0.2357781
v -2.1840103 3.0302422 -1.6231631
v -2.1840093 3.1299784 -0.13604188
v -2.1840088 2.3237216 1.1796026
v -2.1840096 2.2239857 0.72066146
v -2.1840096 2.3237216 0.8203975
v -2.1840088 2.2239857 1.2793388
v -2.18401 3.1299784 0.72066146
v -2.184009 3.0302422 1.1796026
v -2.18401 3.0302422 0.8203975
v -2.184009 3.1299784 1.2793388
v -2.184009 0.6606035 -0.2357781
v -2.1840098 0.56086755 -1.7228992
v -2.1840098 0.6606035 -1.6231631
v -2.184009 0.56086755 -0.13604188
v -2.1840103 1.4668603 -1.7228992
v -2.1840093 1.3671243 -0.2357781
v -2.1840103 1.3671243 -1.6231631
v -2.1840093 1.4668603 -0.13604188
v -2.1840088 0.6606035 1.1796026
v -2.1840096 0.56086755 0.72066146
v -2.1840096 0.6606035 0.8203975
v -2.1840088 0.56086755 1.2793388
v -2.18401 1.4668603 0.72066146
v -2.184009 1.3671243 1.1796026
v -2.18401 1.3671243 0.8203975
v -2.184009 1.4668603 1.2793388
v 2.0166154 2.3237216 0.30630755
v 2.016616 2.2239857 1.7934287
v 2.016616 2.3237216 1.6936926
v 2.0166154 2.2239857 0.20657134
v 2.0166166 3.1299784 1.7934287
v 2.0166156 3.0302422 0.30630755
v 2.0166166 3.0302422 1.6936926
v 2.0166156 3.1299784 0.20657134
v 2.0166154 2.3237216 -1.1090732
v 2.016616 2.2239857 -0.650132
v 2.016616 2.3237216 -0.74986804
v 2.0166154 2.2239857 -1.2088094
v 2.0166166 3.1299784 -0.650132
v 2.0166156 3.0302422 -1.1090732
v 2.0166166 3.0302422 -0.74986804
v 2.0166156 3.1299784 -1.2088094
v 2.0166154 0.6606036 0.30630755
v 2.016616 0.5608676 1.7934287
v 2.016616 0.6606036 1.6936926
v 2.0166154 0.5608676 0.20657134
v 2.0166166 1.4668603 1.7934287
v 2.0166156 1.3671243 0.30630755
v 2.0166166 1.3671243 1.6936926
v 2.0166156 1.4668603 0.20657134
v 2.0166154 0.6606036 -1.1090732
v 2.016616 0.5608676 -0.650132
v 2.016616 0.6606036 -0.74986804
v 2.0166154 0.5608676 -1.2088094
v 2.0166166 1.4668603 -0.650132
v 2.0166156 1.3671243 -1.1090732
v 2.0166166 1.3671243 -0.74986804
v 2.0166156 1.4668603 -1.2088094
v 1.204884 0.6606036 2.5404167
v -0.5868887 0.56086755 2.540417
v -0.4871526 0.6606036 2.540417
v 1.30462 0.56086755 2.5404167
v -0.5868887 1.4668603 2.5404174
v 1.204884 1.3671243 2.5404167
v -0.4871526 1.3671243 2.5404174
v 1.30462 1.4668603 2.5404167
v -1.4794441 0.6606035 -2.5404153
v -0.42081964 0.5608675 -2.5404155
v -0.5205557 0.6606035 -2.5404155
v -1.5791802 0.5608675 -2.5404153
v -0.42081964 1.4668602 -2.5404158
v -1.4794441 1.3671242 -2.5404153
v -0.5205557 1.3671242 -2.5404158
v -1.5791802 1.4668602 -2.5404153
v -1.8476322 3.4393437 -1.0055919
v -2.016011 3.4393437 -1.0592657
v -2.01601 3.4393442 1.0592662
v -1.8476313 3.4393442 1.005592
v 1.6848842 3.4393437 -1.0055931
v 1.8532642 3.4393442 1.0592647
v 1.8532635 3.4393437 -1.0592673
v 1.6848851 3.4393442 1.0055908
v -0.5205557 2.3237216 -2.5404155
v -0.42081964 2.2239857 -2.5404155
v -0.42081964 2.93503 -2.5404158
v -0.5205557 2.835294 -2.5404158
v -1.4794441 2.3237216 -2.5404153
v -1.5791802 2.93503 -2.5404153
v -1.5791802 2.2239857 -2.5404153
v -1.4794441 2.835294 -2.5404153
v 0.42055583 2.3237216 -2.5404153
v 0.32081974 2.2239857 -2.5404153
v 1.4791803 2.2239857 -2.5404155
v 1.3794444 2.3237216 -2.5404155
v 0.42055583 2.835294 -2.5404153
v 1.4791803 2.93503 -2.5404158
v 0.32081974 2.93503 -2.5404153
v 1.3794444 2.835294 -2.5404158
vt 0.09305963 0.5936192
vt 0.09305963 0.5936192
vt 0.09305963 0.5936192
vt 0.09305963 0.5936192
vt 0.09305963 0.5936192
vt 0.09305963 0.5936192
vt 0.09305963 0.5936192
vt 0.09305963 0.5936192
vt 0.7205169 0.9043523
vt 0.7205169 0.9043523
vt 0.7205169 0.9043523
vt 0.7205169 0.9043523
vt 0.7205169 0.9043523
vt 0.7205169 0.9043523
vt 0.7205169 0.9043523
vt 0.7205169 0.9043523
vt 0.7205169 0.9043523
vt 0.7205169 0.9043523
vt 0.7205169 0.9043523
vt 0.7205169 0.9043523
vt 0.09305963 0.5936192
vt 0.09305963 0.5936192
vt 0.09305963 0.5936192
vt 0.09305963 0.5936192
vt 0.09305963 0.5936192
vt 0.09305963 0.5936192
vt 0.09305963 0.5936192
vt 0.09305963 0.5936192
vt 0.09305963 0.5936192
vt 0.09305963 0.5936192
vt 0.658916 0.90956354
vt 0.658916 0.90956354
vt 0.658916 0.90956354
vt 0.658916 0.90956354
vt 0.658916 0.90956354
vt 0.658916 0.90956354
vt 0.658916 0.90956354
vt 0.658916 0.90956354
vt 0.1571105 0.1573984
vt 0.1571105 0.1573984
vt 0.1571105 0.1573984
vt 0.1571105 0.1573984
vt 0.09305963 0.5936192
vt 0.09305963 0.5936192
vt 0.09305963 0.5936192
vt 0.09305963 0.5936192
vt 0.1571105 0.15739839
vt 0.15711048 0.15739839
vt 0.1571105 0.1573984
vt 0.1571105 0.15739839
vt 0.1571105 0.15739839
vt 0.15711048 0.15739839
vt 0.1571105 0.1573984
vt 0.1571105 0.15739839
vt 0.1571105 0.15739839
vt 0.15711048 0.15739839
vt 0.1571105 0.1573984
vt 0.1571105 0.15739839
vt 0.1571105 0.15739839
vt 0.15711048 0.15739839
vt 0.1571105 0.1573984
vt 0.1571105 0.15739839
vt 0.1571105 0.15739839
vt 0.15711048 0.15739839
vt 0.1571105 0.1573984
vt 0.1571105 0.15739839
vt 0.1571105 0.15739839
vt 0.15711048 0.15739839
vt 0.1571105 0.1573984
vt 0.1571105 0.15739839
vt 0.1571105 0.15739839
vt 0.15711048 0.15739839
vt 0.1571105 0.1573984
vt 0.1571105 0.15739839
vt 0.1571105 0.15739839
vt 0.15711048 0.15739839
vt 0.1571105 0.1573984
vt 0.1571105 0.15739839
vt 0.1571105 0.15739839
vt 0.15711048 0.15739839
vt 0.1571105 0.1573984
vt 0.1571105 0.15739839
vt 0.1571105 0.15739839
vt 0.15711048 0.15739839
vt 0.1571105 0.1573984
vt 0.1571105 0.15739839
vt 0.1571105 0.15739839
vt 0.15711048 0.15739839
vt 0.1571105 0.1573984
vt 0.1571105 0.15739839
vt 0.1571105 0.15739839
vt 0.15711048 0.15739839
vt 0.1571105 0.1573984
vt 0.1571105 0.15739839
vt 0.96917224 0.8485007
vt 0.96917224 0.8485007
vt 0.96917224 0.8485007
vt 0.96917224 0.8485007
vt 0.96917224 0.8485007
vt 0.96917224 0.8485007
vt 0.96917224 0.8485007
vt 0.96917224 0.8485007
vt 0.96917224 0.8485007
vt 0.96917224 0.8485007
vt 0.96917224 0.8485007
vt 0.96917224 0.8485007
vt 0.96917224 0.8485007
vt 0.96917224 0.8485007
vt 0.96917224 0.8485007
vt 0.96917224 0.8485007
vt 0.96917224 0.8485007
vt 0.96917224 0.8485007
vt 0.96917224 0.8485007
vt 0.96917224 0.8485007
vt 0.96917224 0.8485007
vt 0.96917224 0.8485007
vt 0.96917224 0.8485007
vt 0.96917224 0.8485007
vt 0.96917224 0.8485007
vt 0.96917224 0.8485007
vt 0.96917224 0.8485007
vt 0.96917224 0.8485007
vt 0.96917224 0.8485007
vt 0.96917224 0.8485007
vt 0.96917224 0.8485007
vt 0.96917224 0.8485007
vt 0.96917224 0.8485007
vt 0.96917224 0.8485007
vt 0.96917224 0.8485007
vt 0.96917224 0.8485007
vt 0.96917224 0.8485007
vt 0.96917224 0.8485007
vt 0.96917224 0.8485007
vt 0.96917224 0.8485007
vt 0.96917224 0.8485007
vt 0.96917224 0.8485007
vt 0.96917224 0.8485007
vt 0.96917224 0.8485007
vt 0.96917224 0.8485007
vt 0.96917224 0.8485007
vt 0.96917224 0.8485007
vt 0.96917224 0.8485007
vt 0.96917224 0.8485007
vt 0.96917224 0.8485007
vt 0.96917224 0.8485007
vt 0.96917224 0.8485007
vt 0.96917224 0.8485007
vt 0.96917224 0.8485007
vt 0.96917224 0.8485007
vt 0.96917224 0.8485007
vt 0.96917224 0.8485007
vt 0.96917224 0.8485007
vt 0.96917224 0.8485007
vt 0.96917224 0.8485007
vt 0.96917224 0.8485007
vt 0.96917224 0.8485007
vt 0.96917224 0.8485007
vt 0.96917224 0.8485007
vt 0.96917224 0.8485007
vt 0.96917224 0.8485007
vt 0.96917224 0.8485007
vt 0.96917224 0.8485007
vt 0.96917224 0.8485007
vt 0.96917224 0.8485007
vt 0.96917224 0.8485007
vt 0.96917224 0.8485007
vt 0.96917224 0.8485007
vt 0.96917224 0.8485007
vt 0.96917224 0.8485007
vt 0.96917224 0.8485007
vt 0.96917224 0.8485007
vt 0.96917224 0.8485007
vt 0.96917224 0.8485007
vt 0.96917224 0.8485007
vt 0.96917224 0.8485007
vt 0.96917224 0.8485007
vt 0.96917224 0.8485007
vt 0.96917224 0.8485007
vt 0.96917224 0.8485007
vt 0.96917224 0.8485007
vt 0.96917224 0.8485007
vt 0.96917224 0.8485007
vt 0.96917224 0.8485007
vt 0.96917224 0.8485007
vt 0.96917224 0.8485007
vt 0.96917224 0.8485007
vt 0.65718156 0.90739214
vt 0.65718156 0.90739214
vt 0.65718156 0.90739214
vt 0.65718156 0.90739214
vt 0.65718156 0.90739214
vt 0.65718156 0.90739214
vt 0.65718156 0.90739214
vt 0.65718156 0.90739214
vt 0.65718156 0.90739214
vt 0.65718156 0.90739214
vt 0.65718156 0.90739214
vt 0.65718156 0.90739214
vt 0.65718156 0.90739214
vt 0.65718156 0.90739214
vt 0.65718156 0.90739214
vt 0.65718156 0.90739214
vt 0.65718156 0.90739214
vt 0.65718156 0.90739214
vt 0.65718156 0.90739214
vt 0.65718156 0.90739214
vt 0.65718156 0.90739214
vt 0.65718156 0.90739214
vt 0.65718156 0.90739214
vt 0.65718156 0.90739214
vt 0.65718156 0.90739214
vt 0.65718156 0.90739214
vt 0.65718156 0.90739214
vt 0.65718156 0.90739214
vt 0.65718156 0.90739214
vt 0.65718156 0.90739214
vt 0.65718156 0.90739214
vt 0.65718156 0.90739214
vt 0.65718156 0.90739214
vt 0.65718156 0.90739214
vt 0.65718156 0.90739214
vt 0.65718156 0.90739214
vt 0.65718156 0.90739214
vt 0.65718156 0.90739214
vt 0.65718156 0.90739214
vt 0.65718156 0.90739214
vt 0.65718156 0.90739214
vt 0.65718156 0.90739214
vt 0.65718156 0.90739214
vt 0.65718156 0.90739214
vt 0.65718156 0.90739214
vt 0.65718156 0.90739214
vt 0.65718156 0.90739214
vt 0.65718156 0.90739214
vt 0.65718156 0.90739214
vt 0.65718156 0.90739214
vt 0.65718156 0.90739214
vt 0.65718156 0.90739214
vt 0.65718156 0.90739214
vt 0.65718156 0.90739214
vt 0.65718156 0.90739214
vt 0.65718156 0.90739214
vt 0.65718156 0.90739214
vt 0.65718156 0.90739214
vt 0.65718156 0.90739214
vt 0.65718156 0.90739214
vt 0.65718156 0.90739214
vt 0.65718156 0.90739214
vt 0.65718156 0.90739214
vt 0.65718156 0.90739214
vt 0.65718156 0.90739214
vt 0.65718156 0.90739214
vt 0.65718156 0.90739214
vt 0.65718156 0.90739214
vt 0.65718156 0.90739214
vt 0.65718156 0.90739214
vt 0.65718156 0.90739214
vt 0.65718156 0.90739214
vt 0.65718156 0.90739214
vt 0.65718156 0.90739214
vt 0.65718156 0.90739214
vt 0.65718156 0.90739214
vt 0.65718156 0.90739214
vt 0.65718156 0.90739214
vt 0.65718156 0.90739214
vt 0.65718156 0.90739214
vt 0.96917224 0.8485007
vt 0.96917224 0.8485007
vt 0.96917224 0.8485007
vt 0.96917224 0.8485007
vt 0.96917224 0.8485007
vt 0.96917224 0.8485007
vt 0.96917224 0.8485007
vt 0.96917224 0.8485007
vt 0.65718156 0.90739214
vt 0.65718156 0.90739214
vt 0.65718156 0.90739214
vt 0.65718156 0.90739214
vt 0.65718156 0.90739214
vt 0.65718156 0.90739214
vt 0.65718156 0.90739214
vt 0.65718156 0.90739214
vt 0.65718156 0.90739214
vt 0.65718156 0.90739214
vt 0.65718156 0.90739214
vt 0.65718156 0.90739214
vt 0.65718156 0.90739214
vt 0.65718156 0.90739214
vt 0.65718156 0.90739214
vt 0.65718156 0.90739214
vn -1 0 0
vn -1 0 0
vn -1 0 0
vn -1 0 0
vn 1 0 0
vn 1 0 0
vn 1 0 0
vn 1 0 0
vn -0 -1 0
vn -0 -1 0
vn -0 -1 0
vn -0 -1 0
vn 1 0 0
vn 1 0 0
vn 1 0 0
vn 1 0 0
vn -1 0 0
vn -1 0 0
vn -1 0 0
vn -1 0 0
vn -0 0 -1
vn -0 0 -1
vn -0 0 -1
vn -0 0 -1
vn -0 0 -1
vn -0 0 -1
vn -0 0 -1
vn -0 0 -1
vn -0 0 -1
vn -0 0 -1
vn -0 0 -1
vn -0 0 -1
vn -0 0 -1
vn -0 0 -1
vn -0 0 -1
vn -0 0 -1
vn -0 0 -1
vn -0 0 -1
vn -0 0 -1
vn -0 0 -1
vn -0 0 -1
vn -0 0 -1
vn -0 0 1
vn -0 0 1
vn -0 0 1
vn -0 0 1
vn -0 0 -1
vn -0 0 -1
vn -0 0 -1
vn -0 0 -1
vn -0 0 1
vn -0 0 1
vn -0 0 1
vn -0 0 1
vn -0 0 -1
vn -0 0 -1
vn -0 0 -1
vn -0 0 -1
vn 1 0 0
vn 1 0 0
vn 1 0 0
vn 1 0 0
vn 1 0 0
vn 1 0 0
vn 1 0 0
vn 1 0 0
vn -0 0 -1
vn -0 0 -1
vn -0 0 -1
vn -0 0 -1
vn 1 0 0
vn 1 0 0
vn 1 0 0
vn 1 0 0
vn 1 0 0
vn 1 0 0
vn 1 0 0
vn 1 0 0
vn -1 0 0
vn -1 0 0
vn -1 0 0
vn -1 0 0
vn -1 0 0
vn -1 0 0
vn -1 0 0
vn -1 0 0
vn -1 0 0
vn -1 0 0
vn -1 0 0
vn -1 0 0
vn -1 0 0
vn -1 0 0
vn -1 0 0
vn -1 0 0
vn -0 0.56419444 -0.82564205
vn -0 0.56419444 -0.82564205
vn -0 0.56419444 -0.82564205
vn -0 0.56419444 -0.82564205
vn -0 -1 0
vn -0 -1 0
vn -0 -1 0
vn -0 -1 0
vn -0 0.56419474 0.82564175
vn -0 0.56419474 0.82564175
vn -0 0.56419474 0.82564175
vn -0 0.56419474 0.82564175
vn 0.7381043 0.6746867 0
vn 0.7381043 0.6746867 0
vn 0.7381043 0.6746867 0
vn 0.7381043 0.6746867 0
vn -0 1 0
vn -0 1 0
vn -0 1 0
vn -0 1 0
vn -0 0.43303183 -0.90137863
vn -0 0.43303183 -0.90137863
vn -0 0.43303183 -0.90137863
vn -0 0.43303183 -0.90137863
vn -0 0.4330321 0.9013785
vn -0 0.4330321 0.9013785
vn -0 0.4330321 0.9013785
vn -0 0.4330321 0.9013785
vn -0 1 0
vn -0 1 0
vn -0 1 0
vn -0 1 0
vn -0.7381043 0.67468673 0
vn -0.7381043 0.67468673 0
vn -0.7381043 0.67468673 0
vn -0.7381043 0.67468673 0
vn -0 -1 0
vn -0 -1 0
vn -0 -1 0
vn -0 -1 0
vn -0 -0.4330318 -0.90137863
vn -0 -0.4330318 -0.90137863
vn -0 -0.4330318 -0.90137863
vn -0 -0.4330318 -0.90137863
vn 1 0 0
vn 1 0 0
vn 1 0 0
vn 1 0 0
vn -1 0 0
vn -1 0 0
vn -1 0 0
vn -1 0 0
vn -0 1 0
vn -0 1 0
vn -0 1 0
vn -0 1 0
vn -0 -0.43303096 0.9013791
vn -0 -0.43303096 0.9013791
vn -0 -0.43303096 0.9013791
vn -0 -0.43303096 0.9013791
vn -0 -0.4330318 0.90137863
vn -0 -0.4330318 0.90137863
vn -0 -0.4330318 0.90137863
vn -0 -0.4330318 0.90137863
vn -0 -1 0
vn -0 -1 0
vn -0 -1 0
vn -0 -1 0
vn -0 1 0
vn -0 1 0
vn -0 1 0
vn -0 1 0
vn -0 -0.43303227 -0.90137845
vn -0 -0.43303227 -0.90137845
vn -0 -0.43303227 -0.90137845
vn -0 -0.43303227 -0.90137845
vn 1 0 0
vn 1 0 0
vn 1 0 0
vn 1 0 0
vn 1 0 0
vn 1 0 0
vn 1 0 0
vn 1 0 0
vn -1 0 0
vn -1 0 0
vn -1 0 0
vn -1 0 0
vn -1 0 0
vn -1 0 0
vn -1 0 0
vn -1 0 0
vn -1 0 0
vn -1 0 0
vn -1 0 0
vn -1 0 0
vn -1 0 0
vn -1 0 0
vn -1 0 0
vn -1 0 0
vn -1 0 0
vn -1 0 0
vn -1 0 0
vn -1 0 0
vn -1 0 0
vn -1 0 0
vn -1 0 0
vn -1 0 0
vn -1 0 0
vn -1 0 0
vn -1 0 0
vn -1 0 0
vn -1 0 0
vn -1 0 0
vn -1 0 0
vn -1 0 0
vn -1 0 0
vn -1 0 0
vn -1 0 0
vn -1 0 0
vn -1 0 0
vn -1 0 0
vn -1 0 0
vn -1 0 0
vn 1 0 0
vn 1 0 0
vn 1 0 0
vn 1 0 0
vn 1 0 0
vn 1 0 0
vn 1 0 0
vn 1 0 0
vn 1 0 0
vn 1 0 0
vn 1 0 0
vn 1 0 0
vn 1 0 0
vn 1 0 0
vn 1 0 0
vn 1 0 0
vn 1 0 0
vn 1 0 0
vn 1 0 0
vn 1 0 0
vn 1 0 0
vn 1 0 0
vn 1 0 0
vn 1 0 0
vn 1 0 0
vn 1 0 0
vn 1 0 0
vn 1 0 0
vn 1 0 0
vn 1 0 0
vn 1 0 0
vn 1 0 0
vn -0 0 1
vn -0 0 1
vn -0 0 1
vn -0 0 1
vn -0 0 1
vn -0 0 1
vn -0 0 1
vn -0 0 1
vn -0 0 -1
vn -0 0 -1
vn -0 0 -1
vn -0 0 -1
vn -0 0 -1
vn -0 0 -1
vn -0 0 -1
vn -0 0 -1
vn -0 -1 0
vn -0 -1 0
vn -0 -1 0
vn -0 -1 0
vn -0 -1 0
vn -0 -1 0
vn -0 -1 0
vn -0 -1 0
vn -0 0 -1
vn -0 0 -1
vn -0 0 -1
vn -0 0 -1
vn -0 0 -1
vn -0 0 -1
vn -0 0 -1
vn -0 0 -1
vn -0 0 -1
vn -0 0 -1
vn -0 0 -1
vn -0 0 -1
vn -0 0 -1
vn -0 0 -1
vn -0 0 -1
vn -0 0 -1
g house02_0
f 3/3/3 2/2/2 1/1/1
f 4/4/4 3/3/3 1/1/1
f 7/7/7 6/6/6 5/5/5
f 8/8/8 7/7/7 5/5/5
f 11/11/11 10/10/10 9/9/9
f 12/12/12 11/11/11 9/9/9
f 15/15/15 14/14/14 13/13/13
f 16/16/16 15/15/15 13/13/13
f 19/19/19 18/18/18 17/17/17
f 20/20/20 19/19/19 17/17/17
f 23/23/23 22/22/22 21/21/21
f 22/22/22 24/24/24 21/21/21
f 22/22/22 25/25/25 24/24/24
f 25/25/25 26/26/26 24/24/24
f 27/27/27 25/25/25 22/22/22
f 28/28/28 27/27/27 22/22/22
f 29/29/29 27/27/27 28/28/28
f 30/30/30 29/29/29 28/28/28
f 33/33/33 32/32/32 31/31/31
f 34/34/34 33/33/33 31/31/31
f 35/35/35 33/33/33 34/34/34
f 36/36/36 35/35/35 34/34/34
f 37/37/37 35/35/35 36/36/36
f 38/38/38 37/37/37 36/36/36
f 41/41/41 40/40/40 39/39/39
f 42/42/42 41/41/41 39/39/39
f 45/45/45 44/44/44 43/43/43
f 46/46/46 45/45/45 43/43/43
f 49/49/49 48/48/48 47/47/47
f 50/50/50 49/49/49 47/47/47
f 53/53/53 52/52/52 51/51/51
f 54/54/54 53/53/53 51/51/51
f 57/57/57 56/56/56 55/55/55
f 58/58/58 57/57/57 55/55/55
f 61/61/61 60/60/60 59/59/59
f 62/62/62 61/61/61 59/59/59
f 65/65/65 64/64/64 63/63/63
f 66/66/66 65/65/65 63/63/63
f 69/69/69 68/68/68 67/67/67
f 70/70/70 69/69/69 67/67/67
f 73/73/73 72/72/72 71/71/71
f 74/74/74 73/73/73 71/71/71
f 77/77/77 76/76/76 75/75/75
f 78/78/78 77/77/77 75/75/75
f 81/81/81 80/80/80 79/79/79
f 82/82/82 81/81/81 79/79/79
f 85/85/85 84/84/84 83/83/83
f 86/86/86 85/85/85 83/83/83
f 89/89/89 88/88/88 87/87/87
f 90/90/90 89/89/89 87/87/87
f 93/93/93 92/92/92 91/91/91
f 94/94/94 93/93/93 91/91/91
f 97/97/97 96/96/96 95/95/95
f 98/98/98 97/97/97 95/95/95
f 101/101/101 100/100/100 99/99/99
f 102/102/102 101/101/101 99/99/99
f 105/105/105 104/104/104 103/103/103
f 106/106/106 105/105/105 103/103/103
f 109/109/109 108/108/108 107/107/107
f 110/110/110 109/109/109 107/107/107
f 113/113/113 112/112/112 111/111/111
f 114/114/114 113/113/113 111/111/111
f 117/117/117 116/116/116 115/115/115
f 118/118/118 117/117/117 115/115/115
f 121/121/121 120/120/120 119/119/119
f 122/122/122 121/121/121 119/119/119
f 125/125/125 124/124/124 123/123/123
f 126/126/126 125/125/125 123/123/123
f 129/129/129 128/128/128 127/127/127
f 130/130/130 129/129/129 127/127/127
f 133/133/133 132/132/132 131/131/131
f 134/134/134 133/133/133 131/131/131
f 137/137/137 136/136/136 135/135/135
f 138/138/138 137/137/137 135/135/135
f 141/141/141 140/140/140 139/139/139
f 142/142/142 141/141/141 139/139/139
f 145/145/145 144/144/144 143/143/143
f 146/146/146 145/145/145 143/143/143
f 149/149/149 148/148/148 147/147/147
f 150/150/150 149/149/149 147/147/147
f 153/153/153 152/152/152 151/151/151
f 154/154/154 153/153/153 151/151/151
f 157/157/157 156/156/156 155/155/155
f 158/158/158 157/157/157 155/155/155
f 161/161/161 160/160/160 159/159/159
f 162/162/162 161/161/161 159/159/159
f 165/165/165 164/164/164 163/163/163
f 166/166/166 165/165/165 163/163/163
f 169/169/169 168/168/168 167/167/167
f 170/170/170 169/169/169 167/167/167
f 173/173/173 172/172/172 171/171/171
f 174/174/174 173/173/173 171/171/171
f 171/171/171 172/172/172 175/175/175
f 176/176/176 173/173/173 174/174/174
f 172/172/172 177/177/177 175/175/175
f 178/178/178 176/176/176 174/174/174
f 175/175/175 177/177/177 178/178/178
f 177/177/177 176/176/176 178/178/178
f 181/181/181 180/180/180 179/179/179
f 180/180/180 182/182/182 179/179/179
f 183/183/183 180/180/180 181/181/181
f 179/179/179 182/182/182 184/184/184
f 185/185/185 183/183/183 181/181/181
f 182/182/182 186/186/186 184/184/184
f 186/186/186 183/183/183 185/185/185
f 184/184/184 186/186/186 185/185/185
f 189/189/189 188/188/188 187/187/187
f 188/188/188 190/190/190 187/187/187
f 191/191/191 188/188/188 189/189/189
f 187/187/187 190/190/190 192/192/192
f 193/193/193 191/191/191 189/189/189
f 190/190/190 194/194/194 192/192/192
f 194/194/194 191/191/191 193/193/193
f 192/192/192 194/194/194 193/193/193
f 197/197/197 196/196/196 195/195/195
f 196/196/196 198/198/198 195/195/195
f 199/199/199 196/196/196 197/197/197
f 195/195/195 198/198/198 200/200/200
f 201/201/201 199/199/199 197/197/197
f 198/198/198 202/202/202 200/200/200
f 202/202/202 199/199/199 201/201/201
f 200/200/200 202/202/202 201/201/201
f 205/205/205 204/204/204 203/203/203
f 204/204/204 206/206/206 203/203/203
f 207/207/207 204/204/204 205/205/205
f 203/203/203 206/206/206 208/208/208
f 209/209/209 207/207/207 205/205/205
f 206/206/206 210/210/210 208/208/208
f 210/210/210 207/207/207 209/209/209
f 208/208/208 210/210/210 209/209/209
f 213/213/213 212/212/212 211/211/211
f 212/212/212 214/214/214 211/211/211
f 215/215/215 212/212/212 213/213/213
f 211/211/211 214/214/214 216/216/216
f 217/217/217 215/215/215 213/213/213
f 214/214/214 218/218/218 216/216/216
f 218/218/218 215/215/215 217/217/217
f 216/216/216 218/218/218 217/217/217
f 221/221/221 220/220/220 219/219/219
f 220/220/220 222/222/222 219/219/219
f 223/223/223 220/220/220 221/221/221
f 219/219/219 222/222/222 224/224/224
f 225/225/225 223/223/223 221/221/221
f 222/222/222 226/226/226 224/224/224
f 226/226/226 223/223/223 225/225/225
f 224/224/224 226/226/226 225/225/225
f 229/229/229 228/228/228 227/227/227
f 228/228/228 230/230/230 227/227/227
f 231/231/231 228/228/228 229/229/229
f 227/227/227 230/230/230 232/232/232
f 233/233/233 231/231/231 229/229/229
f 230/230/230 234/234/234 232/232/232
f 234/234/234 231/231/231 233/233/233
f 232/232/232 234/234/234 233/233/233
f 237/237/237 236/236/236 235/235/235
f 236/236/236 238/238/238 235/235/235
f 239/239/239 236/236/236 237/237/237
f 235/235/235 238/238/238 240/240/240
f 241/241/241 239/239/239 237/237/237
f 238/238/238 242/242/242 240/240/240
f 242/242/242 239/239/239 241/241/241
f 240/240/240 242/242/242 241/241/241
f 245/245/245 244/244/244 243/243/243
f 244/244/244 246/246/246 243/243/243
f 247/247/247 244/244/244 245/245/245
f 243/243/243 246/246/246 248/248/248
f 249/249/249 247/247/247 245/245/245
f 246/246/246 250/250/250 248/248/248
f 250/250/250 247/247/247 249/249/249
f 248/248/248 250/250/250 249/249/249
f 253/253/253 252/252/252 251/251/251
f 252/252/252 254/254/254 251/251/251
f 255/255/255 252/252/252 253/253/253
f 251/251/251 254/254/254 256/256/256
f 257/257/257 255/255/255 253/253/253
f 254/254/254 258/258/258 256/256/256
f 258/258/258 255/255/255 257/257/257
f 256/256/256 258/258/258 257/257/257
f 261/261/261 260/260/260 259/259/259
f 260/260/260 262/262/262 259/259/259
f 263/263/263 260/260/260 261/261/261
f 259/259/259 262/262/262 264/264/264
f 265/265/265 263/263/263 261/261/261
f 262/262/262 266/266/266 264/264/264
f 266/266/266 263/263/263 265/265/265
f 264/264/264 266/266/266 265/265/265
f 269/269/269 268/268/268 267/267/267
f 270/270/270 269/269/269 267/267/267
f 267/267/267 268/268/268 271/271/271
f 272/272/272 269/269/269 270/270/270
f 268/268/268 273/273/273 271/271/271
f 274/274/274 272/272/272 270/270/270
f 271/271/271 273/273/273 274/274/274
f 273/273/273 272/272/272 274/274/274
f 277/277/277 276/276/276 275/275/275
f 278/278/278 277/277/277 275/275/275
f 275/275/275 276/276/276 279/279/279
f 280/280/280 277/277/277 278/278/278
f 276/276/276 281/281/281 279/279/279
f 282/282/282 280/280/280 278/278/278
f 279/279/279 281/281/281 282/282/282
f 281/281/281 280/280/280 282/282/282
f 285/285/285 284/284/284 283/283/283
f 286/286/286 285/285/285 283/283/283
f 283/283/283 284/284/284 287/287/287
f 288/288/288 285/285/285 286/286/286
f 284/284/284 289/289/289 287/287/287
f 290/290/290 288/288/288 286/286/286
f 287/287/287 289/289/289 290/290/290
f 289/289/289 288/288/288 290/290/290
