g juicer
v 1.4406683 2.6367192 1.0011891
v 1.4406683 2.6367192 -1.0003334
v 1.6408206 2.4880347 0.7438506
v 1.6408206 2.4880347 -0.7429948
v -1.4415241 0.00042784214 1.0011891
v -1.4415241 2.1106043 0.81247413
v 0.6000289 2.1106043 0.81247413
v 0.6000289 0.00042784214 1.0011891
v 1.4406683 2.1106043 0.81247413
v 1.4406683 0.00042784214 1.0011891
v 1.4406683 0.00042784214 -1.0003334
v 1.4406683 2.1106043 -0.81161845
v 0.6000289 2.1106043 -0.81161845
v 0.6000289 0.00042784214 -1.0003334
v -1.4415241 2.1106043 -0.81161845
v -1.4415241 0.00042784214 -1.0003334
v -1.4415241 3.1971455 1.0011891
v 0.6000289 3.1971455 -1.0003334
v 0.6000289 3.1971455 1.0011891
v -1.4415241 3.1971455 -1.0003334
v -1.6416763 3.1971455 -0.80018115
v -1.6416763 3.1971455 0.79531825
v -1.4415241 2.1106043 0.81247413
v -1.4415241 3.1971455 1.0011891
v 0.6000289 3.1971455 1.0011891
v 0.6000289 2.1106043 0.81247413
v 1.4406683 2.1106043 -0.81161845
v 1.4406683 2.6367192 -1.0003334
v 0.6000289 3.1971455 -1.0003334
v 0.6000289 2.1106043 -0.81161845
v -1.6416763 0.00042784214 0.79531825
v -1.4415241 0.00042784214 -1.0003334
v -1.6416763 0.00042784214 -0.80018115
v -1.4415241 0.00042784214 1.0011891
v 0.6000289 0.00042784214 1.0011891
v 0.6000289 0.00042784214 -1.0003334
v 1.4406683 0.00042784214 1.0011891
v 1.4406683 0.00042784214 -1.0003334
v 1.6408206 0.00042784214 -0.80018115
v 1.6408206 0.00042784214 0.79531825
v -1.6416763 0.00042784214 -0.80018115
v -1.6416763 2.1106043 0.60660326
v -1.6416763 0.00042784214 0.79531825
v -1.6416763 2.1106043 -0.61146617
v -1.6416763 3.1971455 0.79531825
v -1.6416763 3.1971455 -0.80018115
v 0.6000289 2.1106043 0.81247413
v 0.6000289 3.1971455 1.0011891
v 1.4406683 2.6367192 1.0011891
v 1.4406683 2.1106043 0.81247413
v -1.2642463 3.0313048 0.3950137
v -0.33782732 1.9676386 0.6981014
v -1.4415241 1.0126263 0.6981014
v -2.402255 1.6016458 0.3950137
v -1.6416763 0.00042784214 -0.80018115
v -1.4415241 0.00042784214 -1.0003334
v -1.4415241 2.1106043 -0.81161845
v -1.6416763 2.1106043 -0.61146617
v -2.402255 1.6016458 0.3950137
v -1.4415241 1.0126263 0.6981014
v -1.4415241 1.0126263 -0.6972457
v -2.402255 1.6016458 -0.394158
v 0.6000289 3.1971455 1.0011891
v 0.6000289 3.1971455 -1.0003334
v 1.4406683 2.6367192 -1.0003334
v 1.4406683 2.6367192 1.0011891
v -2.402255 1.6016458 -0.394158
v -1.2642463 3.0313048 -0.394158
v -1.2642463 3.0313048 0.3950137
v -2.402255 1.6016458 0.3950137
v 1.6408206 2.1106043 0.60660326
v 1.6408206 2.4880347 0.7438506
v 1.6408206 2.4880347 -0.7429948
v 1.6408206 2.1106043 -0.61146617
v -0.36642063 2.2078214 -0.5657171
v -0.109081864 2.2078214 0.217736
v -0.109081864 2.2078214 -0.21688032
v -0.77244365 2.2078214 -0.6972457
v -1.1841854 2.2078214 -0.5657171
v -0.77244365 2.2078214 0.6981014
v -0.36642063 2.2078214 0.5665728
v -1.4415241 2.2078214 0.217736
v -1.1841854 2.2078214 0.5665728
v -1.4415241 2.2078214 -0.21688032
v 0.6000289 2.1106043 -0.81161845
v 0.6000289 3.1971455 -1.0003334
v -1.4415241 3.1971455 -1.0003334
v -1.4415241 2.1106043 -0.81161845
v -1.2642463 3.0313048 -0.394158
v -2.402255 1.6016458 -0.394158
v -1.4415241 1.0126263 -0.6972457
v -0.33782732 1.9676386 -0.6972457
v 1.4406683 2.1106043 -0.81161845
v 1.6408206 2.1106043 -0.61146617
v 1.6408206 2.4880347 -0.7429948
v 1.4406683 2.6367192 -1.0003334
v 1.4406683 2.1106043 -0.81161845
v 1.4406683 0.00042784214 -1.0003334
v 1.6408206 0.00042784214 -0.80018115
v 1.6408206 2.1106043 -0.61146617
v 1.6408206 0.00042784214 0.79531825
v 1.4406683 0.00042784214 1.0011891
v 1.4406683 2.1106043 0.81247413
v 1.6408206 2.1106043 0.60660326
v -1.6416763 0.00042784214 0.79531825
v -1.6416763 2.1106043 0.60660326
v -1.4415241 2.1106043 0.81247413
v -1.4415241 0.00042784214 1.0011891
v 1.6408206 0.00042784214 0.79531825
v 1.6408206 2.1106043 0.60660326
v 1.6408206 2.1106043 -0.61146617
v 1.6408206 0.00042784214 -0.80018115
v 1.6408206 2.4880347 0.7438506
v 1.6408206 2.1106043 0.60660326
v 1.4406683 2.1106043 0.81247413
v 1.4406683 2.6367192 1.0011891
v -1.6416763 3.1971455 0.79531825
v -1.4415241 3.1971455 1.0011891
v -1.4415241 2.1106043 0.81247413
v -1.6416763 2.1106043 0.60660326
v -1.6416763 3.1971455 -0.80018115
v -1.6416763 2.1106043 -0.61146617
v -1.4415241 2.1106043 -0.81161845
v -1.4415241 3.1971455 -1.0003334
v -0.2120173 3.2486129 0.18342412
v -0.77244365 3.2486129 0.00042784214
v -0.2120173 3.2486129 -0.18256855
v -0.423607 3.2486129 0.48079312
v -0.423607 3.2486129 -0.47993755
v -0.77244365 3.2486129 0.59516585
v -0.77244365 3.2486129 -0.5943103
v -1.126999 3.2486129 0.48079312
v -1.126999 3.2486129 -0.47993755
v -1.3385886 3.2486129 0.18342412
v -1.3385886 3.2486129 -0.18256855
v -0.109081864 4.209344 -0.21688032
v -0.109081864 4.209344 0.217736
v -0.2120173 4.209344 0.18342412
v -0.36642063 4.209344 0.5665728
v -0.2120173 4.209344 -0.18256855
v -0.423607 4.209344 0.48079312
v -0.36642063 4.209344 -0.5657171
v -0.423607 4.209344 -0.47993755
v -0.77244365 4.209344 -0.6972457
v -0.77244365 4.209344 -0.5943103
v -0.77244365 4.209344 0.6981014
v -0.77244365 4.209344 0.59516585
v -1.1841854 4.209344 -0.5657171
v -1.126999 4.209344 -0.47993755
v -1.126999 4.209344 0.48079312
v -1.1841854 4.209344 0.5665728
v -1.3385886 4.209344 -0.18256855
v -1.4415241 4.209344 -0.21688032
v -1.4415241 4.209344 0.217736
v -1.3385886 4.209344 0.18342412
v -1.3385886 3.2486129 0.18342412
v -1.126999 4.209344 0.48079312
v -1.3385886 4.209344 0.18342412
v -1.126999 3.2486129 0.48079312
v -1.3385886 3.2486129 -0.18256855
v -0.77244365 4.209344 0.59516585
v -1.3385886 4.209344 -0.18256855
v -0.77244365 3.2486129 0.59516585
v -1.126999 3.2486129 -0.47993755
v -0.423607 4.209344 0.48079312
v -1.126999 4.209344 -0.47993755
v -0.423607 3.2486129 0.48079312
v -0.77244365 3.2486129 -0.5943103
v -0.2120173 4.209344 0.18342412
v -0.77244365 4.209344 -0.5943103
v -0.2120173 3.2486129 0.18342412
v -0.423607 3.2486129 -0.47993755
v -0.2120173 4.209344 -0.18256855
v -0.423607 4.209344 -0.47993755
v -0.2120173 3.2486129 -0.18256855
v -1.1841854 2.2078214 -0.5657171
v -1.1841854 4.209344 -0.5657171
v -1.4415241 4.209344 -0.21688032
v -0.77244365 2.2078214 -0.6972457
v -1.4415241 2.2078214 -0.21688032
v -0.77244365 4.209344 -0.6972457
v -1.4415241 4.209344 0.217736
v -0.36642063 2.2078214 -0.5657171
v -1.4415241 2.2078214 0.217736
v -0.36642063 4.209344 -0.5657171
v -1.1841854 4.209344 0.5665728
v -0.109081864 2.2078214 -0.21688032
v -1.1841854 2.2078214 0.5665728
v -0.109081864 4.209344 -0.21688032
v -0.77244365 4.209344 0.6981014
v -0.109081864 2.2078214 0.217736
v -0.77244365 2.2078214 0.6981014
v -0.109081864 4.209344 0.217736
v -0.36642063 4.209344 0.5665728
v -0.36642063 2.2078214 0.5665728
vt 0.03148371 0.5324641
vt 0.03148371 0.5324641
vt 0.03148371 0.5324641
vt 0.03148371 0.5324641
vt 0.22020918 0.72118956
vt 0.22020918 0.72118956
vt 0.22020918 0.72118956
vt 0.22020918 0.72118956
vt 0.22020918 0.72118956
vt 0.22020918 0.72118956
vt 0.22020918 0.72118956
vt 0.22020918 0.72118956
vt 0.22020918 0.72118956
vt 0.22020918 0.72118956
vt 0.22020918 0.72118956
vt 0.22020918 0.72118956
vt 0.22020918 0.72118956
vt 0.22020918 0.72118956
vt 0.22020918 0.72118956
vt 0.22020918 0.72118956
vt 0.22020918 0.72118956
vt 0.22020918 0.72118956
vt 0.22020918 0.72118956
vt 0.22020918 0.72118956
vt 0.22020918 0.72118956
vt 0.22020918 0.72118956
vt 0.03148371 0.5324641
vt 0.03148371 0.5324641
vt 0.03148371 0.5324641
vt 0.03148371 0.5324641
vt 0.22020918 0.72118956
vt 0.22020918 0.72118956
vt 0.22020918 0.72118956
vt 0.22020918 0.72118956
vt 0.22020918 0.72118956
vt 0.22020918 0.72118956
vt 0.22020918 0.72118956
vt 0.22020918 0.72118956
vt 0.22020918 0.72118956
vt 0.22020918 0.72118956
vt 0.22020918 0.72118956
vt 0.22020918 0.72118956
vt 0.22020918 0.72118956
vt 0.22020918 0.72118956
vt 0.22020918 0.72118956
vt 0.22020918 0.72118956
vt 0.03148371 0.5324641
vt 0.03148371 0.5324641
vt 0.03148371 0.5324641
vt 0.03148371 0.5324641
vt 0.59422874 0.096679784
vt 0.59422874 0.096679784
vt 0.59422874 0.096679784
vt 0.59422874 0.096679784
vt 0.22020918 0.72118956
vt 0.22020918 0.72118956
vt 0.22020918 0.72118956
vt 0.22020918 0.72118956
vt 0.59422874 0.096679784
vt 0.59422874 0.096679784
vt 0.59422874 0.096679784
vt 0.59422874 0.096679784
vt 0.03148371 0.5324641
vt 0.03148371 0.5324641
vt 0.03148371 0.5324641
vt 0.03148371 0.5324641
vt 0.59422874 0.096679784
vt 0.59422874 0.096679784
vt 0.59422874 0.096679784
vt 0.59422874 0.096679784
vt 0.03148371 0.5324641
vt 0.03148371 0.5324641
vt 0.03148371 0.5324641
vt 0.03148371 0.5324641
vt 0.5324641 0.22020918
vt 0.5324641 0.22020918
vt 0.5324641 0.22020918
vt 0.5324641 0.22020918
vt 0.5324641 0.22020918
vt 0.5324641 0.22020918
vt 0.5324641 0.22020918
vt 0.5324641 0.22020918
vt 0.5324641 0.22020918
vt 0.5324641 0.22020918
vt 0.22020918 0.72118956
vt 0.22020918 0.72118956
vt 0.22020918 0.72118956
vt 0.22020918 0.72118956
vt 0.59422874 0.096679784
vt 0.59422874 0.096679784
vt 0.59422874 0.096679784
vt 0.59422874 0.096679784
vt 0.03148371 0.5324641
vt 0.03148371 0.5324641
vt 0.03148371 0.5324641
vt 0.03148371 0.5324641
vt 0.22020918 0.72118956
vt 0.22020918 0.72118956
vt 0.22020918 0.72118956
vt 0.22020918 0.72118956
vt 0.22020918 0.72118956
vt 0.22020918 0.72118956
vt 0.22020918 0.72118956
vt 0.22020918 0.72118956
vt 0.22020918 0.72118956
vt 0.22020918 0.72118956
vt 0.22020918 0.72118956
vt 0.22020918 0.72118956
vt 0.22020918 0.72118956
vt 0.22020918 0.72118956
vt 0.22020918 0.72118956
vt 0.22020918 0.72118956
vt 0.03148371 0.5324641
vt 0.03148371 0.5324641
vt 0.03148371 0.5324641
vt 0.03148371 0.5324641
vt 0.22020918 0.72118956
vt 0.22020918 0.72118956
vt 0.22020918 0.72118956
vt 0.22020918 0.72118956
vt 0.22020918 0.72118956
vt 0.22020918 0.72118956
vt 0.22020918 0.72118956
vt 0.22020918 0.72118956
vt 0.90648365 0.096679784
vt 0.90648365 0.096679784
vt 0.90648365 0.096679784
vt 0.90648365 0.096679784
vt 0.90648365 0.096679784
vt 0.90648365 0.096679784
vt 0.90648365 0.096679784
vt 0.90648365 0.096679784
vt 0.90648365 0.096679784
vt 0.90648365 0.096679784
vt 0.90648365 0.096679784
vt 0.5324641 0.22020918
vt 0.5324641 0.22020918
vt 0.5324641 0.22020918
vt 0.5324641 0.22020918
vt 0.5324641 0.22020918
vt 0.5324641 0.22020918
vt 0.5324641 0.22020918
vt 0.5324641 0.22020918
vt 0.5324641 0.22020918
vt 0.5324641 0.22020918
vt 0.5324641 0.22020918
vt 0.5324641 0.22020918
vt 0.5324641 0.22020918
vt 0.5324641 0.22020918
vt 0.5324641 0.22020918
vt 0.5324641 0.22020918
vt 0.5324641 0.22020918
vt 0.5324641 0.22020918
vt 0.5324641 0.22020918
vt 0.5324641 0.22020918
vt 0.5324641 0.22020918
vt 0.5324641 0.22020918
vt 0.5324641 0.22020918
vt 0.5324641 0.22020918
vt 0.5324641 0.22020918
vt 0.5324641 0.22020918
vt 0.5324641 0.22020918
vt 0.5324641 0.22020918
vt 0.5324641 0.22020918
vt 0.5324641 0.22020918
vt 0.5324641 0.22020918
vt 0.5324641 0.22020918
vt 0.5324641 0.22020918
vt 0.5324641 0.22020918
vt 0.5324641 0.22020918
vt 0.5324641 0.22020918
vt 0.5324641 0.22020918
vt 0.5324641 0.22020918
vt 0.5324641 0.22020918
vt 0.5324641 0.22020918
vt 0.5324641 0.22020918
vt 0.5324641 0.22020918
vt 0.5324641 0.22020918
vt 0.5324641 0.22020918
vt 0.5324641 0.22020918
vt 0.5324641 0.22020918
vt 0.5324641 0.22020918
vt 0.5324641 0.22020918
vt 0.5324641 0.22020918
vt 0.5324641 0.22020918
vt 0.5324641 0.22020918
vt 0.5324641 0.22020918
vt 0.5324641 0.22020918
vt 0.5324641 0.22020918
vt 0.5324641 0.22020918
vt 0.5324641 0.22020918
vt 0.5324641 0.22020918
vt 0.5324641 0.22020918
vt 0.5324641 0.22020918
vt 0.5324641 0.22020918
vn 0.5872276 0.8094218 -0.00042286396
vn 0.5872276 0.8094218 -0.00042286396
vn 0.5872276 0.8094218 -0.00042286396
vn 0.5872276 0.8094218 -0.00042286396
vn -0.015871048 0.07935512 0.9967201
vn -0.015871048 0.07935512 0.9967201
vn -0.015871048 0.07935512 0.9967201
vn -0.015871048 0.07935512 0.9967201
vn -0.015871048 0.07935512 0.9967201
vn -0.015871048 0.07935512 0.9967201
vn -0.015871048 0.07935512 -0.9967201
vn -0.015871048 0.07935512 -0.9967201
vn -0.015871048 0.07935512 -0.9967201
vn -0.015871048 0.07935512 -0.9967201
vn -0.015871048 0.07935512 -0.9967201
vn -0.015871048 0.07935512 -0.9967201
vn -0.015871048 0.999874 -0.00034526698
vn -0.015871048 0.999874 -0.00034526698
vn -0.015871048 0.999874 -0.00034526698
vn -0.015871048 0.999874 -0.00034526698
vn -0.015871048 0.999874 -0.00034526698
vn -0.015871048 0.999874 -0.00034526698
vn -0.015871048 -0.17458117 0.98451483
vn -0.015871048 -0.17458117 0.98451483
vn -0.015871048 -0.17458117 0.98451483
vn -0.015871048 -0.17458117 0.98451483
vn -0.07935512 -0.23806524 -0.9680019
vn -0.07935512 -0.23806524 -0.9680019
vn -0.07935512 -0.23806524 -0.9680019
vn -0.07935512 -0.23806524 -0.9680019
vn -0.015871048 -0.999874 -0.00034526698
vn -0.015871048 -0.999874 -0.00034526698
vn -0.015871048 -0.999874 -0.00034526698
vn -0.015871048 -0.999874 -0.00034526698
vn -0.015871048 -0.999874 -0.00034526698
vn -0.015871048 -0.999874 -0.00034526698
vn -0.015871048 -0.999874 -0.00034526698
vn -0.015871048 -0.999874 -0.00034526698
vn -0.015871048 -0.999874 -0.00034526698
vn -0.015871048 -0.999874 -0.00034526698
vn -0.999874 0.015871048 -0.00034391563
vn -0.999874 0.015871048 -0.00034391563
vn -0.999874 0.015871048 -0.00034391563
vn -0.999874 0.015871048 -0.00034391563
vn -0.999874 0.015871048 -0.00034391563
vn -0.999874 0.015871048 -0.00034391563
vn -0.07935512 -0.23806524 0.9680019
vn -0.07935512 -0.23806524 0.9680019
vn -0.07935512 -0.23806524 0.9680019
vn -0.07935512 -0.23806524 0.9680019
vn -0.17458117 0.17458117 0.9690422
vn -0.17458117 0.17458117 0.9690422
vn -0.17458117 0.17458117 0.9690422
vn -0.17458117 0.17458117 0.9690422
vn -0.7141957 0.047613025 -0.6983248
vn -0.7141957 0.047613025 -0.6983248
vn -0.7141957 0.047613025 -0.6983248
vn -0.7141957 0.047613025 -0.6983248
vn -0.5237435 -0.8411638 -0.13467072
vn -0.5237435 -0.8411638 -0.13467072
vn -0.5237435 -0.8411638 -0.13467072
vn -0.5237435 -0.8411638 -0.13467072
vn 0.5510615 0.8344646 -0
vn 0.5510615 0.8344646 -0
vn 0.5510615 0.8344646 -0
vn 0.5510615 0.8344646 -0
vn -0.7776798 0.6189697 -0.10995764
vn -0.7776798 0.6189697 -0.10995764
vn -0.7776798 0.6189697 -0.10995764
vn -0.7776798 0.6189697 -0.10995764
vn 0.999874 0.015871048 -0.00034391563
vn 0.999874 0.015871048 -0.00034391563
vn 0.999874 0.015871048 -0.00034391563
vn 0.999874 0.015871048 -0.00034391563
vn -0.015871048 -0.999874 -0.00034526698
vn -0.015871048 -0.999874 -0.00034526698
vn -0.015871048 -0.999874 -0.00034526698
vn -0.015871048 -0.999874 -0.00034526698
vn -0.015871048 -0.999874 -0.00034526698
vn -0.015871048 -0.999874 -0.00034526698
vn -0.015871048 -0.999874 -0.00034526698
vn -0.015871048 -0.999874 -0.00034526698
vn -0.015871048 -0.999874 -0.00034526698
vn -0.015871048 -0.999874 -0.00034526698
vn -0.015871048 -0.17458117 -0.98451483
vn -0.015871048 -0.17458117 -0.98451483
vn -0.015871048 -0.17458117 -0.98451483
vn -0.015871048 -0.17458117 -0.98451483
vn -0.17458117 0.17458117 -0.9690422
vn -0.17458117 0.17458117 -0.9690422
vn -0.17458117 0.17458117 -0.9690422
vn -0.17458117 0.17458117 -0.9690422
vn 0.68245363 -0.23806524 -0.69107306
vn 0.68245363 -0.23806524 -0.69107306
vn 0.68245363 -0.23806524 -0.69107306
vn 0.68245363 -0.23806524 -0.69107306
vn 0.7141957 0.047613025 -0.6983248
vn 0.7141957 0.047613025 -0.6983248
vn 0.7141957 0.047613025 -0.6983248
vn 0.7141957 0.047613025 -0.6983248
vn 0.7141957 0.047613025 0.6983248
vn 0.7141957 0.047613025 0.6983248
vn 0.7141957 0.047613025 0.6983248
vn 0.7141957 0.047613025 0.6983248
vn -0.7141957 0.047613025 0.6983248
vn -0.7141957 0.047613025 0.6983248
vn -0.7141957 0.047613025 0.6983248
vn -0.7141957 0.047613025 0.6983248
vn 0.999874 0.015871048 -0.00034391563
vn 0.999874 0.015871048 -0.00034391563
vn 0.999874 0.015871048 -0.00034391563
vn 0.999874 0.015871048 -0.00034391563
vn 0.68245363 -0.23806524 0.69107306
vn 0.68245363 -0.23806524 0.69107306
vn 0.68245363 -0.23806524 0.69107306
vn 0.68245363 -0.23806524 0.69107306
vn -0.7141957 -0.1110971 0.691073
vn -0.7141957 -0.1110971 0.691073
vn -0.7141957 -0.1110971 0.691073
vn -0.7141957 -0.1110971 0.691073
vn -0.7141957 -0.1110971 -0.691073
vn -0.7141957 -0.1110971 -0.691073
vn -0.7141957 -0.1110971 -0.691073
vn -0.7141957 -0.1110971 -0.691073
vn -0.015871048 0.999874 -0.00034526698
vn -0.015871048 0.999874 -0.00034526698
vn -0.015871048 0.999874 -0.00034526698
vn -0.015871048 0.999874 -0.00034526698
vn -0.015871048 0.999874 -0.00034526698
vn -0.015871048 0.999874 -0.00034526698
vn -0.015871048 0.999874 -0.00034526698
vn -0.015871048 0.999874 -0.00034526698
vn -0.015871048 0.999874 -0.00034526698
vn -0.015871048 0.999874 -0.00034526698
vn -0.015871048 0.999874 -0.00034526698
vn -0.015871048 0.999874 -0.00034526698
vn -0.015871048 0.999874 -0.00034526698
vn -0.015871048 0.999874 -0.00034526698
vn -0.015871048 0.999874 -0.00034526698
vn -0.015871048 0.999874 -0.00034526698
vn -0.015871048 0.999874 -0.00034526698
vn -0.015871048 0.999874 -0.00034526698
vn -0.015871048 0.999874 -0.00034526698
vn -0.015871048 0.999874 -0.00034526698
vn -0.015871048 0.999874 -0.00034526698
vn -0.015871048 0.999874 -0.00034526698
vn -0.015871048 0.999874 -0.00034526698
vn -0.015871048 0.999874 -0.00034526698
vn -0.015871048 0.999874 -0.00034526698
vn -0.015871048 0.999874 -0.00034526698
vn -0.015871048 0.999874 -0.00034526698
vn -0.015871048 0.999874 -0.00034526698
vn -0.015871048 0.999874 -0.00034526698
vn -0.015871048 0.999874 -0.00034526698
vn -0.015871048 0.999874 -0.00034526698
vn 0.9363899 0.015871048 -0.35060233
vn 0.5872276 0.015871048 -0.80926627
vn 0.9363899 0.015871048 -0.35060233
vn 0.5872276 0.015871048 -0.80926627
vn 0.9363899 0.015871048 0.35060233
vn -0.015871048 0.015871048 -0.99974805
vn 0.9363899 0.015871048 0.35060233
vn -0.015871048 0.015871048 -0.99974805
vn 0.5872276 0.015871048 0.80926627
vn -0.5872276 0.015871048 -0.80926627
vn 0.5872276 0.015871048 0.80926627
vn -0.5872276 0.015871048 -0.80926627
vn -0.015871048 0.015871048 0.99974805
vn -0.9363899 0.015871048 -0.35060233
vn -0.015871048 0.015871048 0.99974805
vn -0.9363899 0.015871048 -0.35060233
vn -0.5872276 0.015871048 0.80926627
vn -0.9363899 0.015871048 0.35060233
vn -0.5872276 0.015871048 0.80926627
vn -0.9363899 0.015871048 0.35060233
vn -0.5872276 0.015871048 -0.80926627
vn -0.5872276 0.015871048 -0.80926627
vn -0.9363899 0.015871048 -0.35060233
vn -0.015871048 0.015871048 -0.99974805
vn -0.9363899 0.015871048 -0.35060233
vn -0.015871048 0.015871048 -0.99974805
vn -0.9363899 0.015871048 0.35060233
vn 0.5872276 0.015871048 -0.80926627
vn -0.9363899 0.015871048 0.35060233
vn 0.5872276 0.015871048 -0.80926627
vn -0.5872276 0.015871048 0.80926627
vn 0.9363899 0.015871048 -0.35060233
vn -0.5872276 0.015871048 0.80926627
vn 0.9363899 0.015871048 -0.35060233
vn -0.015871048 0.015871048 0.99974805
vn 0.9363899 0.015871048 0.35060233
vn -0.015871048 0.015871048 0.99974805
vn 0.9363899 0.015871048 0.35060233
vn 0.5872276 0.015871048 0.80926627
vn 0.5872276 0.015871048 0.80926627
g juicer_0
f 3/3/3 2/2/2 1/1/1
f 4/4/4 2/2/2 3/3/3
f 7/7/7 6/6/6 5/5/5
f 8/8/8 7/7/7 5/5/5
f 9/9/9 7/7/7 8/8/8
f 10/10/10 9/9/9 8/8/8
f 13/13/13 12/12/12 11/11/11
f 14/14/14 13/13/13 11/11/11
f 15/15/15 13/13/13 14/14/14
f 16/16/16 15/15/15 14/14/14
f 19/19/19 18/18/18 17/17/17
f 18/18/18 20/20/20 17/17/17
f 17/17/17 20/20/20 21/21/21
f 22/22/22 17/17/17 21/21/21
f 25/25/25 24/24/24 23/23/23
f 26/26/26 25/25/25 23/23/23
f 29/29/29 28/28/28 27/27/27
f 30/30/30 29/29/29 27/27/27
f 33/33/33 32/32/32 31/31/31
f 32/32/32 34/34/34 31/31/31
f 34/34/34 32/32/32 35/35/35
f 32/32/32 36/36/36 35/35/35
f 35/35/35 36/36/36 37/37/37
f 36/36/36 38/38/38 37/37/37
f 39/39/39 37/37/37 38/38/38
f 40/40/40 37/37/37 39/39/39
f 43/43/43 42/42/42 41/41/41
f 42/42/42 44/44/44 41/41/41
f 42/42/42 45/45/45 44/44/44
f 45/45/45 46/46/46 44/44/44
f 49/49/49 48/48/48 47/47/47
f 50/50/50 49/49/49 47/47/47
f 53/53/53 52/52/52 51/51/51
f 54/54/54 53/53/53 51/51/51
f 57/57/57 56/56/56 55/55/55
f 58/58/58 57/57/57 55/55/55
f 61/61/61 60/60/60 59/59/59
f 62/62/62 61/61/61 59/59/59
f 65/65/65 64/64/64 63/63/63
f 66/66/66 65/65/65 63/63/63
f 69/69/69 68/68/68 67/67/67
f 70/70/70 69/69/69 67/67/67
f 73/73/73 72/72/72 71/71/71
f 74/74/74 73/73/73 71/71/71
f 77/77/77 76/76/76 75/75/75
f 75/75/75 76/76/76 78/78/78
f 79/79/79 78/78/78 76/76/76
f 80/80/80 79/79/79 76/76/76
f 81/81/81 80/80/80 76/76/76
f 82/82/82 79/79/79 80/80/80
f 83/83/83 82/82/82 80/80/80
f 84/84/84 79/79/79 82/82/82
f 87/87/87 86/86/86 85/85/85
f 88/88/88 87/87/87 85/85/85
f 91/91/91 90/90/90 89/89/89
f 92/92/92 91/91/91 89/89/89
f 95/95/95 94/94/94 93/93/93
f 96/96/96 95/95/95 93/93/93
f 99/99/99 98/98/98 97/97/97
f 100/100/100 99/99/99 97/97/97
f 103/103/103 102/102/102 101/101/101
f 104/104/104 103/103/103 101/101/101
f 107/107/107 106/106/106 105/105/105
f 108/108/108 107/107/107 105/105/105
f 111/111/111 110/110/110 109/109/109
f 112/112/112 111/111/111 109/109/109
f 115/115/115 114/114/114 113/113/113
f 116/116/116 115/115/115 113/113/113
f 119/119/119 118/118/118 117/117/117
f 120/120/120 119/119/119 117/117/117
f 123/123/123 122/122/122 121/121/121
f 124/124/124 123/123/123 121/121/121
f 127/127/127 126/126/126 125/125/125
f 125/125/125 126/126/126 128/128/128
f 129/129/129 126/126/126 127/127/127
f 128/128/128 126/126/126 130/130/130
f 131/131/131 126/126/126 129/129/129
f 130/130/130 126/126/126 132/132/132
f 133/133/133 126/126/126 131/131/131
f 132/132/132 126/126/126 134/134/134
f 135/135/135 126/126/126 133/133/133
f 134/134/134 126/126/126 135/135/135
f 138/138/138 137/137/137 136/136/136
f 137/137/137 138/138/138 139/139/139
f 140/140/140 138/138/138 136/136/136
f 138/138/138 141/141/141 139/139/139
f 140/140/140 136/136/136 142/142/142
f 143/143/143 140/140/140 142/142/142
f 143/143/143 142/142/142 144/144/144
f 145/145/145 143/143/143 144/144/144
f 139/139/139 141/141/141 146/146/146
f 141/141/141 147/147/147 146/146/146
f 145/145/145 144/144/144 148/148/148
f 149/149/149 145/145/145 148/148/148
f 147/147/147 150/150/150 146/146/146
f 150/150/150 151/151/151 146/146/146
f 152/152/152 149/149/149 148/148/148
f 153/153/153 152/152/152 148/148/148
f 151/151/151 150/150/150 154/154/154
f 152/152/152 153/153/153 154/154/154
f 150/150/150 155/155/155 154/154/154
f 155/155/155 152/152/152 154/154/154
f 158/158/158 157/157/157 156/156/156
f 157/157/157 159/159/159 156/156/156
f 158/158/158 156/156/156 160/160/160
f 157/157/157 161/161/161 159/159/159
f 162/162/162 158/158/158 160/160/160
f 161/161/161 163/163/163 159/159/159
f 162/162/162 160/160/160 164/164/164
f 161/161/161 165/165/165 163/163/163
f 166/166/166 162/162/162 164/164/164
f 165/165/165 167/167/167 163/163/163
f 166/166/166 164/164/164 168/168/168
f 165/165/165 169/169/169 167/167/167
f 170/170/170 166/166/166 168/168/168
f 169/169/169 171/171/171 167/167/167
f 170/170/170 168/168/168 172/172/172
f 169/169/169 173/173/173 171/171/171
f 174/174/174 170/170/170 172/172/172
f 173/173/173 175/175/175 171/171/171
f 174/174/174 172/172/172 175/175/175
f 173/173/173 174/174/174 175/175/175
f 178/178/178 177/177/177 176/176/176
f 176/176/176 177/177/177 179/179/179
f 180/180/180 178/178/178 176/176/176
f 177/177/177 181/181/181 179/179/179
f 182/182/182 178/178/178 180/180/180
f 179/179/179 181/181/181 183/183/183
f 184/184/184 182/182/182 180/180/180
f 181/181/181 185/185/185 183/183/183
f 186/186/186 182/182/182 184/184/184
f 183/183/183 185/185/185 187/187/187
f 188/188/188 186/186/186 184/184/184
f 185/185/185 189/189/189 187/187/187
f 190/190/190 186/186/186 188/188/188
f 187/187/187 189/189/189 191/191/191
f 192/192/192 190/190/190 188/188/188
f 189/189/189 193/193/193 191/191/191
f 194/194/194 190/190/190 192/192/192
f 191/191/191 193/193/193 195/195/195
f 195/195/195 194/194/194 192/192/192
f 193/193/193 194/194/194 195/195/195
