g juiceBox
v 0.659025 0.74909467 -0.4413352
v 0.7060931 0.2999869 -7.2062016E-05
v 0.659025 0.74909467 0.44119102
v -0.6588809 0.74909467 0.44119102
v -0.70202655 0.2999869 -7.2062016E-05
v -0.6588809 0.74909467 -0.4413352
v -0.6588809 -0.81787974 0.44119102
v -0.6588809 -0.81787974 -0.4413352
v -0.6588809 0.74909467 -0.4413352
v -0.6588809 0.74909467 0.44119102
v -0.6588809 -0.81787974 -0.4413352
v 0.659025 -0.81787974 -0.4413352
v 0.659025 0.74909467 -0.4413352
v -0.6588809 0.74909467 -0.4413352
v 0.659025 -0.81787974 -0.4413352
v 0.659025 -0.81787974 0.44119102
v 0.659025 0.74909467 0.44119102
v 0.659025 0.74909467 -0.4413352
v 0.659025 -0.81787974 0.44119102
v -0.6588809 -0.81787974 0.44119102
v -0.6588809 0.74909467 0.44119102
v 0.659025 0.74909467 0.44119102
v -0.6588809 -0.81787974 -0.4413352
v -0.6588809 -0.81787974 0.44119102
v 0.659025 -0.81787974 0.44119102
v 0.659025 -0.81787974 -0.4413352
v 0.659025 0.74909467 -0.4413352
v 0.659025 0.74909467 0.44119102
v -0.6588809 0.74909467 0.44119102
v -0.6588809 0.74909467 -0.4413352
v -0.3745113 0.8726483 -0.10793638
v -0.47060865 0.429424 -0.053023636
v -0.37843364 0.429424 -0.10793638
v -0.46864742 0.833425 -0.05694598
v -0.6314245 1.1256392 -0.10401404
v -0.6961431 1.0628817 -0.053023636
v -0.28429753 0.429424 0.054840684
v -0.37843364 0.429424 0.10779226
v -0.3745113 0.8726483 0.10779226
v -0.28625864 0.9099106 0.052879512
v -0.6314245 1.1256392 0.103869915
v -0.28429753 0.429424 -0.053023636
v -0.5667059 1.1883967 0.05091834
v -0.28625864 0.9099106 -0.053023636
v -0.37843364 0.429424 -0.10793638
v -0.5667059 1.1883967 -0.051062465
v -0.3745113 0.8726483 -0.10793638
v -0.6314245 1.1256392 -0.10401404
v -0.37843364 0.429424 0.10779226
v -0.47060865 0.429424 0.054840684
v -0.46864742 0.833425 0.056801856
v -0.3745113 0.8726483 0.10779226
v -0.6961431 1.0628817 0.052879512
v -0.6314245 1.1256392 0.103869915
v -0.47060865 0.429424 0.054840684
v -0.47060865 0.429424 -0.053023636
v -0.46864742 0.833425 -0.05694598
v -0.46864742 0.833425 0.056801856
v -0.6961431 1.0628817 -0.053023636
v -0.6961431 1.0628817 0.052879512
v -0.6961431 1.0628817 -0.053023636
v -0.6314245 1.1256392 -0.10401404
v -0.5667059 1.1883967 -0.051062465
v -0.6961431 1.0628817 0.052879512
v -0.5667059 1.1883967 0.05091834
v -0.6314245 1.1256392 0.103869915
v -0.10583109 -0.051062465 -0.4668304
v 0.47663626 -0.20599484 -0.4668304
v 0.44329637 0.36274427 -0.4668304
v -0.13917094 0.51767665 -0.4668304
v 0.2020725 0.6667256 -0.4668304
v 0.14519858 0.44119102 -0.4668304
v 0.3648496 0.45884162 -0.4668304
v 0.41976234 0.68437606 -0.4668304
v -0.017578483 -0.73943293 -0.4668304
v 0.07263535 -0.6904037 -0.4668304
v -0.011694968 -0.18638319 -0.4668304
v -0.22742361 -0.037334263 -0.4668304
v -0.3843171 -0.42564583 -0.4668304
v -0.39804536 -0.10793638 -0.4668304
v -0.43726867 0.068568885 -0.4668304
v -0.31567627 -0.064790666 -0.4668304
v -0.3294044 0.1117146 -0.4668304
v -0.4490357 0.2450741 -0.4668304
vt 0.33991525 0.96828896
vt 0.33991525 0.96828896
vt 0.33991525 0.96828896
vt 0.33991525 0.96828896
vt 0.33991525 0.96828896
vt 0.33991525 0.96828896
vt 0.40605986 0.96828896
vt 0.40605986 0.96828896
vt 0.40605986 0.96828896
vt 0.40605986 0.96828896
vt 0.90581906 0.78087926
vt 0.90581906 0.78087926
vt 0.90581906 0.78087926
vt 0.90581906 0.78087926
vt 0.40605986 0.96828896
vt 0.40605986 0.96828896
vt 0.40605986 0.96828896
vt 0.40605986 0.96828896
vt 0.90581906 0.78087926
vt 0.90581906 0.78087926
vt 0.90581906 0.78087926
vt 0.90581906 0.78087926
vt 0.40605986 0.96828896
vt 0.40605986 0.96828896
vt 0.40605986 0.96828896
vt 0.40605986 0.96828896
vt 0.33991525 0.96828896
vt 0.33991525 0.96828896
vt 0.33991525 0.96828896
vt 0.33991525 0.96828896
vt 0.59346956 0.031240422
vt 0.59346956 0.031240422
vt 0.59346956 0.031240422
vt 0.59346956 0.031240422
vt 0.59346956 0.031240422
vt 0.59346956 0.031240422
vt 0.59346956 0.031240422
vt 0.59346956 0.031240422
vt 0.59346956 0.031240422
vt 0.59346956 0.031240422
vt 0.59346956 0.031240422
vt 0.59346956 0.031240422
vt 0.59346956 0.031240422
vt 0.59346956 0.031240422
vt 0.59346956 0.031240422
vt 0.59346956 0.031240422
vt 0.59346956 0.031240422
vt 0.59346956 0.031240422
vt 0.59346956 0.031240422
vt 0.59346956 0.031240422
vt 0.59346956 0.031240422
vt 0.59346956 0.031240422
vt 0.59346956 0.031240422
vt 0.59346956 0.031240422
vt 0.59346956 0.031240422
vt 0.59346956 0.031240422
vt 0.59346956 0.031240422
vt 0.59346956 0.031240422
vt 0.59346956 0.031240422
vt 0.59346956 0.031240422
vt 0.59346956 0.031240422
vt 0.59346956 0.031240422
vt 0.59346956 0.031240422
vt 0.59346956 0.031240422
vt 0.59346956 0.031240422
vt 0.59346956 0.031240422
vt 0.53467435 0.46852976
vt 0.53467435 0.46852976
vt 0.53467435 0.46852976
vt 0.53467435 0.46852976
vt 0.28479475 0.46485505
vt 0.28479475 0.46485505
vt 0.28479475 0.46485505
vt 0.28479475 0.46485505
vt 0.47220445 0.96828896
vt 0.47220445 0.96828896
vt 0.47220445 0.96828896
vt 0.47220445 0.96828896
vt 0.47220445 0.96828896
vt 0.47220445 0.96828896
vt 0.28479475 0.46485505
vt 0.28479475 0.46485505
vt 0.28479475 0.46485505
vt 0.28479475 0.46485505
vn 0.9938838 0.110431515 -0
vn 0.9938838 0.110431515 -0
vn 0.9938838 0.110431515 -0
vn -0.9938838 0.110431515 -0
vn -0.9938838 0.110431515 -0
vn -0.9938838 0.110431515 -0
vn -0.999874 0.015871048 -0.00034391563
vn -0.999874 0.015871048 -0.00034391563
vn -0.999874 0.015871048 -0.00034391563
vn -0.999874 0.015871048 -0.00034391563
vn -0.015871048 0.015871048 -0.99974805
vn -0.015871048 0.015871048 -0.99974805
vn -0.015871048 0.015871048 -0.99974805
vn -0.015871048 0.015871048 -0.99974805
vn 0.999874 0.015871048 -0.00034391563
vn 0.999874 0.015871048 -0.00034391563
vn 0.999874 0.015871048 -0.00034391563
vn 0.999874 0.015871048 -0.00034391563
vn -0.015871048 0.015871048 0.99974805
vn -0.015871048 0.015871048 0.99974805
vn -0.015871048 0.015871048 0.99974805
vn -0.015871048 0.015871048 0.99974805
vn -0.015871048 -0.999874 -0.00034526698
vn -0.015871048 -0.999874 -0.00034526698
vn -0.015871048 -0.999874 -0.00034526698
vn -0.015871048 -0.999874 -0.00034526698
vn -0.015871048 0.999874 -0.00034526698
vn -0.015871048 0.999874 -0.00034526698
vn -0.015871048 0.999874 -0.00034526698
vn -0.015871048 0.999874 -0.00034526698
vn -0.42851746 -0.17458117 -0.88650674
vn -0.49200153 0.015871048 -0.87044966
vn -0.49200153 0.015871048 -0.87044966
vn -0.42851746 -0.17458117 -0.88650674
vn -0.3650334 -0.33329135 -0.86929137
vn -0.3650334 -0.33329135 -0.86929137
vn 0.87290585 0.015871048 0.4876305
vn 0.5237435 0.015871048 0.85172814
vn 0.4285174 0.17458117 0.8865068
vn 0.8094218 0.3332913 0.48348042
vn 0.36503333 0.3650334 0.8564469
vn 0.87290585 0.015871048 -0.4876305
vn 0.6189696 0.6189697 0.48348024
vn 0.8094218 0.3332913 -0.48348042
vn 0.5237435 0.015871048 -0.85172814
vn 0.6189696 0.6189697 -0.48348024
vn 0.4285174 0.17458117 -0.8865068
vn 0.36503333 0.3650334 -0.8564469
vn -0.49200153 0.015871048 0.87044966
vn -0.49200153 0.015871048 0.87044966
vn -0.42851746 -0.17458117 0.88650674
vn -0.42851746 -0.17458117 0.88650674
vn -0.3650334 -0.33329135 0.86929137
vn -0.3650334 -0.33329135 0.86929137
vn -0.999874 0.015871048 -0.00034391563
vn -0.999874 0.015871048 -0.00034391563
vn -0.931708 -0.36320817 -0
vn -0.931708 -0.36320817 -0
vn -0.70710677 -0.70710677 -0
vn -0.70710677 -0.70710677 -0
vn -0.70710677 0.70710677 -0
vn -0.70710677 0.70710677 -0
vn -0.70710677 0.70710677 -0
vn -0.70710677 0.70710677 -0
vn -0.70710677 0.70710677 -0
vn -0.70710677 0.70710677 -0
vn -0.015871048 0.015871048 -0.99974805
vn -0.015871048 0.015871048 -0.99974805
vn -0.015871048 0.015871048 -0.99974805
vn -0.015871048 0.015871048 -0.99974805
vn -0.015871048 0.015871048 -0.99974805
vn -0.015871048 0.015871048 -0.99974805
vn -0.015871048 0.015871048 -0.99974805
vn -0.015871048 0.015871048 -0.99974805
vn -0.015871048 0.015871048 -0.99974805
vn -0.015871048 0.015871048 -0.99974805
vn -0.015871048 0.015871048 -0.99974805
vn -0.015871048 0.015871048 -0.99974805
vn -0.015871048 0.015871048 -0.99974805
vn -0.015871048 0.015871048 -0.99974805
vn -0.015871048 0.015871048 -0.99974805
vn -0.015871048 0.015871048 -0.99974805
vn -0.015871048 0.015871048 -0.99974805
vn -0.015871048 0.015871048 -0.99974805
g juiceBox_0
f 3/3/3 2/2/2 1/1/1
f 6/6/6 5/5/5 4/4/4
f 9/9/9 8/8/8 7/7/7
f 10/10/10 9/9/9 7/7/7
f 13/13/13 12/12/12 11/11/11
f 14/14/14 13/13/13 11/11/11
f 17/17/17 16/16/16 15/15/15
f 18/18/18 17/17/17 15/15/15
f 21/21/21 20/20/20 19/19/19
f 22/22/22 21/21/21 19/19/19
f 25/25/25 24/24/24 23/23/23
f 26/26/26 25/25/25 23/23/23
f 29/29/29 28/28/28 27/27/27
f 30/30/30 29/29/29 27/27/27
f 33/33/33 32/32/32 31/31/31
f 32/32/32 34/34/34 31/31/31
f 35/35/35 31/31/31 34/34/34
f 36/36/36 35/35/35 34/34/34
f 39/39/39 38/38/38 37/37/37
f 40/40/40 39/39/39 37/37/37
f 41/41/41 39/39/39 40/40/40
f 40/40/40 37/37/37 42/42/42
f 43/43/43 41/41/41 40/40/40
f 44/44/44 40/40/40 42/42/42
f 43/43/43 40/40/40 44/44/44
f 44/44/44 42/42/42 45/45/45
f 46/46/46 43/43/43 44/44/44
f 47/47/47 44/44/44 45/45/45
f 46/46/46 44/44/44 47/47/47
f 48/48/48 46/46/46 47/47/47
f 51/51/51 50/50/50 49/49/49
f 52/52/52 51/51/51 49/49/49
f 53/53/53 51/51/51 52/52/52
f 54/54/54 53/53/53 52/52/52
f 57/57/57 56/56/56 55/55/55
f 58/58/58 57/57/57 55/55/55
f 59/59/59 57/57/57 58/58/58
f 60/60/60 59/59/59 58/58/58
f 63/63/63 62/62/62 61/61/61
f 61/61/61 64/64/64 63/63/63
f 64/64/64 65/65/65 63/63/63
f 64/64/64 66/66/66 65/65/65
f 69/69/69 68/68/68 67/67/67
f 70/70/70 69/69/69 67/67/67
f 73/73/73 72/72/72 71/71/71
f 74/74/74 73/73/73 71/71/71
f 77/77/77 76/76/76 75/75/75
f 78/78/78 77/77/77 75/75/75
f 78/78/78 75/75/75 79/79/79
f 80/80/80 78/78/78 79/79/79
f 83/83/83 82/82/82 81/81/81
f 84/84/84 83/83/83 81/81/81
