g kitchenCounter_Mat.001
v 9.491692 0.009775162 -4.9951124
v 10 0.009775162 -4.506354
v -3.998045 0.009775162 0.04887581
v -9.49169 0.009775162 -4.9951124
v 10 0.009775162 4.5063534
v -10 0.009775162 -4.506354
v 9.491692 0.009775162 4.9951124
v -10 0.009775162 4.5063534
v -9.49169 0.009775162 4.9951124
vt 0.7244759 0.15319431
vt 0.7244759 0.15319431
vt 0.7244759 0.15319431
vt 0.7244759 0.15319431
vt 0.7244759 0.15319431
vt 0.7244759 0.15319431
vt 0.7244759 0.15319431
vt 0.7244759 0.15319431
vt 0.7244759 0.15319431
vn -0 1 -0
vn -0 1 -0
vn -0 1 -0
vn -0 1 -0
vn -0 1 -0
vn -0 1 -0
vn -0 1 -0
vn -0 1 -0
vn -0 1 -0
g kitchenCounter_Mat.001_0
f 3/3/3 2/2/2 1/1/1
f 1/1/1 4/4/4 3/3/3
f 5/5/5 2/2/2 3/3/3
f 3/3/3 4/4/4 6/6/6
f 3/3/3 7/7/7 5/5/5
f 6/6/6 8/8/8 3/3/3
f 9/9/9 7/7/7 3/3/3
f 3/3/3 8/8/8 9/9/9
