g kitchenCounter
v -5.4956026 1.695015 -2
v 5.495602 1.695015 -2
v 5.495602 1.9765401 -2
v -5.4956026 2.000001 -2
v 5.495602 1.9765401 -2
v 6.000001 1.9648099 -1.4956012
v 6.000001 1.9648099 1.4956017
v 5.495602 1.9765401 2.000001
v -5.4956026 2.000001 2.000001
v -5.4956026 2.000001 -2
v -6.000001 2.000001 1.4956017
v -6.000001 2.000001 -1.4956012
v 6.000001 1.695015 -1.4956012
v 6.000001 1.695015 1.4956017
v 6.000001 1.9648099 1.4956017
v 6.000001 1.9648099 -1.4956012
v -6.000001 1.695015 1.4956017
v -6.000001 1.695015 -1.4956012
v -6.000001 2.000001 -1.4956012
v -6.000001 2.000001 1.4956017
v -5.0029335 1.695015 -1.4956012
v -5.0029335 0.005865097 -1.4956012
v 5.0029335 0.005865097 -1.4956012
v 5.0029335 1.695015 -1.4956012
v 5.0029335 0.005865097 1.4956017
v 5.0029335 0.005865097 -1.4956012
v -5.0029335 0.005865097 -1.4956012
v -5.0029335 0.005865097 1.4956017
v 5.0029335 1.695015 1.4956017
v 5.0029335 0.005865097 1.4956017
v -5.0029335 0.005865097 1.4956017
v -5.0029335 1.695015 1.4956017
v -5.0029335 1.695015 1.4956017
v -5.0029335 0.005865097 1.4956017
v -5.0029335 0.005865097 -1.4956012
v -5.0029335 1.695015 -1.4956012
v 5.0029335 1.695015 -1.4956012
v 5.0029335 0.005865097 -1.4956012
v 5.0029335 0.005865097 1.4956017
v 5.0029335 1.695015 1.4956017
v -5.4956026 1.695015 2.000001
v -6.000001 1.695015 1.4956017
v -6.000001 2.000001 1.4956017
v -5.4956026 2.000001 2.000001
v -5.4956026 2.000001 -2
v -6.000001 2.000001 -1.4956012
v -6.000001 1.695015 -1.4956012
v -5.4956026 1.695015 -2
v 6.000001 1.9648099 -1.4956012
v 5.495602 1.9765401 -2
v 5.495602 1.695015 -2
v 6.000001 1.695015 -1.4956012
v 5.495602 1.9765401 2.000001
v 6.000001 1.9648099 1.4956017
v 6.000001 1.695015 1.4956017
v 5.495602 1.695015 2.000001
v 5.495602 1.695015 2.000001
v -5.4956026 1.695015 2.000001
v -5.4956026 2.000001 2.000001
v 5.495602 1.9765401 2.000001
v 5.0029335 1.695015 -1.4956012
v 5.495602 1.695015 -2
v -5.4956026 1.695015 -2
v 6.000001 1.695015 -1.4956012
v -5.0029335 1.695015 -1.4956012
v -6.000001 1.695015 -1.4956012
v -6.000001 1.695015 1.4956017
v 5.0029335 1.695015 1.4956017
v 6.000001 1.695015 1.4956017
v 5.495602 1.695015 2.000001
v -5.0029335 1.695015 1.4956017
v -5.4956026 1.695015 2.000001
vt 0.21652512 0.52939254
vt 0.21652512 0.52939254
vt 0.21652512 0.52939254
vt 0.21652512 0.52939254
vt 0.21652512 0.52939254
vt 0.21652512 0.52939254
vt 0.21652512 0.52939254
vt 0.21652512 0.52939254
vt 0.21652512 0.52939254
vt 0.21652512 0.52939254
vt 0.21652512 0.52939254
vt 0.21652512 0.52939254
vt 0.21652512 0.52939254
vt 0.21652512 0.52939254
vt 0.21652512 0.52939254
vt 0.21652512 0.52939254
vt 0.21652512 0.52939254
vt 0.21652512 0.52939254
vt 0.21652512 0.52939254
vt 0.21652512 0.52939254
vt 0.030760095 0.5274371
vt 0.030760095 0.5274371
vt 0.030760095 0.5274371
vt 0.030760095 0.5274371
vt 0.030760095 0.5274371
vt 0.030760095 0.5274371
vt 0.030760095 0.5274371
vt 0.030760095 0.5274371
vt 0.030760095 0.5274371
vt 0.030760095 0.5274371
vt 0.030760095 0.5274371
vt 0.030760095 0.5274371
vt 0.030760095 0.5274371
vt 0.030760095 0.5274371
vt 0.030760095 0.5274371
vt 0.030760095 0.5274371
vt 0.030760095 0.5274371
vt 0.030760095 0.5274371
vt 0.030760095 0.5274371
vt 0.030760095 0.5274371
vt 0.21652512 0.52939254
vt 0.21652512 0.52939254
vt 0.21652512 0.52939254
vt 0.21652512 0.52939254
vt 0.21652512 0.52939254
vt 0.21652512 0.52939254
vt 0.21652512 0.52939254
vt 0.21652512 0.52939254
vt 0.21652512 0.52939254
vt 0.21652512 0.52939254
vt 0.21652512 0.52939254
vt 0.21652512 0.52939254
vt 0.21652512 0.52939254
vt 0.21652512 0.52939254
vt 0.21652512 0.52939254
vt 0.21652512 0.52939254
vt 0.21652512 0.52939254
vt 0.21652512 0.52939254
vt 0.21652512 0.52939254
vt 0.21652512 0.52939254
vt 0.21652512 0.52939254
vt 0.21652512 0.52939254
vt 0.21652512 0.52939254
vt 0.21652512 0.52939254
vt 0.21652512 0.52939254
vt 0.21652512 0.52939254
vt 0.21652512 0.52939254
vt 0.21652512 0.52939254
vt 0.21652512 0.52939254
vt 0.21652512 0.52939254
vt 0.21652512 0.52939254
vt 0.21652512 0.52939254
vn -0.015871048 0.015871048 -0.99974805
vn -0.015871048 0.015871048 -0.99974805
vn -0.015871048 0.015871048 -0.99974805
vn -0.015871048 0.015871048 -0.99974805
vn 0.015870988 0.999874 -0.00034526698
vn 0.015870988 0.999874 -0.00034526698
vn 0.015870988 0.999874 -0.00034526698
vn 0.015870988 0.999874 -0.00034526698
vn 0.015870988 0.999874 -0.00034526698
vn 0.015870988 0.999874 -0.00034526698
vn 0.015870988 0.999874 -0.00034526698
vn 0.015870988 0.999874 -0.00034526698
vn 0.999874 0.015871048 -0.00034391563
vn 0.999874 0.015871048 -0.00034391563
vn 0.999874 0.015871048 -0.00034391563
vn 0.999874 0.015871048 -0.00034391563
vn -0.999874 0.015871048 -0.00034391563
vn -0.999874 0.015871048 -0.00034391563
vn -0.999874 0.015871048 -0.00034391563
vn -0.999874 0.015871048 -0.00034391563
vn -0.015871048 0.015871048 -0.99974805
vn -0.015871048 0.015871048 -0.99974805
vn -0.015871048 0.015871048 -0.99974805
vn -0.015871048 0.015871048 -0.99974805
vn -0.015871048 -0.999874 -0.00034526698
vn -0.015871048 -0.999874 -0.00034526698
vn -0.015871048 -0.999874 -0.00034526698
vn -0.015871048 -0.999874 -0.00034526698
vn -0.015871048 0.015871048 0.99974805
vn -0.015871048 0.015871048 0.99974805
vn -0.015871048 0.015871048 0.99974805
vn -0.015871048 0.015871048 0.99974805
vn -0.999874 0.015871048 -0.00034391563
vn -0.999874 0.015871048 -0.00034391563
vn -0.999874 0.015871048 -0.00034391563
vn -0.999874 0.015871048 -0.00034391563
vn 0.999874 0.015871048 -0.00034391563
vn 0.999874 0.015871048 -0.00034391563
vn 0.999874 0.015871048 -0.00034391563
vn 0.999874 0.015871048 -0.00034391563
vn -0.7141957 0.015871048 0.6997661
vn -0.7141957 0.015871048 0.6997661
vn -0.7141957 0.015871048 0.6997661
vn -0.7141957 0.015871048 0.6997661
vn -0.7141957 0.015871048 -0.6997661
vn -0.7141957 0.015871048 -0.6997661
vn -0.7141957 0.015871048 -0.6997661
vn -0.7141957 0.015871048 -0.6997661
vn 0.7141957 0.015871048 -0.6997661
vn 0.7141957 0.015871048 -0.6997661
vn 0.7141957 0.015871048 -0.6997661
vn 0.7141957 0.015871048 -0.6997661
vn 0.7141957 0.015871048 0.6997661
vn 0.7141957 0.015871048 0.6997661
vn 0.7141957 0.015871048 0.6997661
vn 0.7141957 0.015871048 0.6997661
vn -0.015871048 0.015871048 0.99974805
vn -0.015871048 0.015871048 0.99974805
vn -0.015871048 0.015871048 0.99974805
vn -0.015871048 0.015871048 0.99974805
vn -0.015871048 -0.999874 -0.00034526698
vn -0.015871048 -0.999874 -0.00034526698
vn -0.015871048 -0.999874 -0.00034526698
vn -0.015871048 -0.999874 -0.00034526698
vn -0.015871048 -0.999874 -0.00034526698
vn -0.015871048 -0.999874 -0.00034526698
vn -0.015871048 -0.999874 -0.00034526698
vn -0.015871048 -0.999874 -0.00034526698
vn -0.015871048 -0.999874 -0.00034526698
vn -0.015871048 -0.999874 -0.00034526698
vn -0.015871048 -0.999874 -0.00034526698
vn -0.015871048 -0.999874 -0.00034526698
g kitchenCounter_0
f 3/3/3 2/2/2 1/1/1
f 4/4/4 3/3/3 1/1/1
f 7/7/7 6/6/6 5/5/5
f 8/8/8 7/7/7 5/5/5
f 9/9/9 8/8/8 5/5/5
f 10/10/10 9/9/9 5/5/5
f 11/11/11 9/9/9 10/10/10
f 12/12/12 11/11/11 10/10/10
f 15/15/15 14/14/14 13/13/13
f 16/16/16 15/15/15 13/13/13
f 19/19/19 18/18/18 17/17/17
f 20/20/20 19/19/19 17/17/17
f 23/23/23 22/22/22 21/21/21
f 24/24/24 23/23/23 21/21/21
f 27/27/27 26/26/26 25/25/25
f 28/28/28 27/27/27 25/25/25
f 31/31/31 30/30/30 29/29/29
f 32/32/32 31/31/31 29/29/29
f 35/35/35 34/34/34 33/33/33
f 36/36/36 35/35/35 33/33/33
f 39/39/39 38/38/38 37/37/37
f 40/40/40 39/39/39 37/37/37
f 43/43/43 42/42/42 41/41/41
f 44/44/44 43/43/43 41/41/41
f 47/47/47 46/46/46 45/45/45
f 48/48/48 47/47/47 45/45/45
f 51/51/51 50/50/50 49/49/49
f 52/52/52 51/51/51 49/49/49
f 55/55/55 54/54/54 53/53/53
f 56/56/56 55/55/55 53/53/53
f 59/59/59 58/58/58 57/57/57
f 60/60/60 59/59/59 57/57/57
f 63/63/63 62/62/62 61/61/61
f 64/64/64 61/61/61 62/62/62
f 65/65/65 63/63/63 61/61/61
f 63/63/63 65/65/65 66/66/66
f 67/67/67 66/66/66 65/65/65
f 61/61/61 64/64/64 68/68/68
f 64/64/64 69/69/69 68/68/68
f 70/70/70 68/68/68 69/69/69
f 71/71/71 67/67/67 65/65/65
f 68/68/68 70/70/70 71/71/71
f 67/67/67 71/71/71 72/72/72
f 70/70/70 72/72/72 71/71/71
