g kitchenCounter_Mat
v 6.493646 0.0068421364 -5.0430107
v 7 0.0068421364 -4.5366573
v -0.0068421364 0.0068421364 0.0068421364
v -6.4936447 0.0068421364 -5.0430107
v 7 0.0068421364 4.454545
v -6.999999 0.0068421364 -4.5366573
v 6.493646 0.0068421364 4.9608984
v -6.999999 0.0068421364 4.454545
v -6.4936447 0.0068421364 4.9608984
vt 0.7244759 0.15319431
vt 0.7244759 0.15319431
vt 0.7244759 0.15319431
vt 0.7244759 0.15319431
vt 0.7244759 0.15319431
vt 0.7244759 0.15319431
vt 0.7244759 0.15319431
vt 0.7244759 0.15319431
vt 0.7244759 0.15319431
vn -0 1 -0
vn -0 1 -0
vn -0 1 -0
vn -0 1 -0
vn -0 1 -0
vn -0 1 -0
vn -0 1 -0
vn -0 1 -0
vn -0 1 -0
g kitchenCounter_Mat_0
f 3/3/3 2/2/2 1/1/1
f 1/1/1 4/4/4 3/3/3
f 5/5/5 2/2/2 3/3/3
f 3/3/3 4/4/4 6/6/6
f 3/3/3 7/7/7 5/5/5
f 6/6/6 8/8/8 3/3/3
f 9/9/9 7/7/7 3/3/3
f 3/3/3 8/8/8 9/9/9
