g kitchenCounter_Mat.002
v -7.799999 -0.0030298233 6.996969
v -8.299999 -0.0030298233 6.496969
v 6.699999 -0.0030298233 6.996969
v -8.299999 -0.0030298233 -5.548484
v -7.799999 -0.0030298233 -6.048484
v 6.699999 -0.0030298233 -6.048484
v 7.199999 -0.0030298233 -5.548484
v 7.199999 -0.0030298233 6.496969
vt 0.7244759 0.15319431
vt 0.7244759 0.15319431
vt 0.7244759 0.15319431
vt 0.7244759 0.15319431
vt 0.7244759 0.15319431
vt 0.7244759 0.15319431
vt 0.7244759 0.15319431
vt 0.7244759 0.15319431
vn -0 1 -0
vn -0 1 -0
vn -0 1 -0
vn -0 1 -0
vn -0 1 -0
vn -0 1 -0
vn -0 1 -0
vn -0 1 -0
g kitchenCounter_Mat.002_0
f 3/3/3 2/2/2 1/1/1
f 4/4/4 2/2/2 3/3/3
f 3/3/3 5/5/5 4/4/4
f 6/6/6 5/5/5 3/3/3
f 3/3/3 7/7/7 6/6/6
f 8/8/8 7/7/7 3/3/3
