g kitchenCounter.005
v -7.293646 1.6963825 1.9974575
v -7.293646 1.6963825 1.5047894
v -7.8 1.6963825 1.5047894
v 6.2000017 1.970087 -1.5059638
v 2.2039113 1.9837723 1.9974575
v 5.693648 1.970087 -1.9986324
v -7.293646 1.9974575 -1.9986324
v -7.8 1.9974575 1.5047894
v -7.8 1.9974575 -1.5059638
v -7.293646 1.9974575 1.9974575
v 5.693648 1.970087 -1.9986324
v 2.2039113 1.9837723 1.9974575
v 6.2000017 1.970087 5.9935484
v 6.2000017 1.970087 -1.5059638
v 2.2039113 1.9837723 5.9935484
v 2.69658 1.9837723 6.499902
v 5.693648 1.970087 6.499902
v -7.8 1.6963825 1.5047894
v -7.8 1.6963825 -1.5059638
v -7.8 1.9974575 -1.5059638
v -7.8 1.9974575 1.5047894
v 5.693648 1.6963825 6.499902
v 2.69658 1.6963825 6.499902
v 2.69658 1.9837723 6.499902
v 5.693648 1.970087 6.499902
v 2.69658 1.6963825 1.5047894
v 2.69658 -0.0005874634 1.5047894
v -7.293646 -0.0005874634 1.5047894
v -7.293646 1.6963825 1.5047894
v -7.293646 1.6963825 1.5047894
v -7.293646 -0.0005874634 1.5047894
v -7.293646 -0.0005874634 -1.5059638
v -7.293646 1.6963825 -1.5059638
v -7.293646 1.6963825 -1.5059638
v -7.293646 -0.0005874634 -1.5059638
v 5.693648 -0.0005874634 -1.5059638
v 5.693648 1.6963825 -1.5059638
v 6.2000017 1.6963825 -1.5059638
v 6.2000017 1.6963825 5.9935484
v 6.2000017 1.970087 5.9935484
v 6.2000017 1.970087 -1.5059638
v -7.293646 1.6963825 -1.9986324
v 5.693648 1.6963825 -1.9986324
v 5.693648 1.970087 -1.9986324
v -7.293646 1.9974575 -1.9986324
v 2.2039113 1.9837723 1.9974575
v 2.2039113 1.9837723 5.9935484
v 2.2039113 1.6963825 5.9935484
v 2.2039113 1.6963825 1.9974575
v 5.693648 1.6963825 5.9935484
v 5.693648 -0.0005874634 5.9935484
v 2.69658 -0.0005874634 5.9935484
v 2.69658 1.6963825 5.9935484
v -7.293646 1.6963825 1.5047894
v -7.293646 1.6963825 1.9974575
v 2.2039113 1.6963825 1.9974575
v 2.69658 1.6963825 1.5047894
v 2.69658 1.6963825 5.9935484
v 2.2039113 1.6963825 5.9935484
v 2.69658 1.6963825 6.499902
v 5.693648 1.6963825 6.499902
v 5.693648 1.6963825 5.9935484
v 6.2000017 1.6963825 5.9935484
v 5.693648 1.6963825 -1.5059638
v 6.2000017 1.6963825 -1.5059638
v 5.693648 1.6963825 -1.9986324
v -7.293646 1.6963825 -1.9986324
v -7.293646 1.6963825 -1.5059638
v -7.8 1.6963825 1.5047894
v -7.8 1.6963825 -1.5059638
v 5.693648 -0.0005874634 -1.5059638
v 5.693648 -0.0005874634 5.9935484
v 5.693648 1.6963825 5.9935484
v 5.693648 1.6963825 -1.5059638
v 2.69658 1.6963825 1.5047894
v 2.69658 1.6963825 5.9935484
v 2.69658 -0.0005874634 5.9935484
v 2.69658 -0.0005874634 1.5047894
v -7.293646 1.6963825 1.9974575
v -7.8 1.6963825 1.5047894
v -7.8 1.9974575 1.5047894
v -7.293646 1.9974575 1.9974575
v -7.293646 1.9974575 -1.9986324
v -7.8 1.9974575 -1.5059638
v -7.8 1.6963825 -1.5059638
v -7.293646 1.6963825 -1.9986324
v 6.2000017 1.970087 -1.5059638
v 5.693648 1.970087 -1.9986324
v 5.693648 1.6963825 -1.9986324
v 6.2000017 1.6963825 -1.5059638
v 5.693648 1.970087 6.499902
v 6.2000017 1.970087 5.9935484
v 6.2000017 1.6963825 5.9935484
v 5.693648 1.6963825 6.499902
v 2.2039113 1.9837723 5.9935484
v 2.69658 1.9837723 6.499902
v 2.69658 1.6963825 6.499902
v 2.2039113 1.6963825 5.9935484
v 2.2039113 1.6963825 1.9974575
v -7.293646 1.6963825 1.9974575
v -7.293646 1.9974575 1.9974575
v 2.2039113 1.9837723 1.9974575
vt 0.21652512 0.52939254
vt 0.21652512 0.52939254
vt 0.21652512 0.52939254
vt 0.21652512 0.52939254
vt 0.21652512 0.52939254
vt 0.21652512 0.52939254
vt 0.21652512 0.52939254
vt 0.21652512 0.52939254
vt 0.21652512 0.52939254
vt 0.21652512 0.52939254
vt 0.21652512 0.52939254
vt 0.21652512 0.52939254
vt 0.21652512 0.52939254
vt 0.21652512 0.52939254
vt 0.21652512 0.52939254
vt 0.21652512 0.52939254
vt 0.21652512 0.52939254
vt 0.21652512 0.52939254
vt 0.21652512 0.52939254
vt 0.21652512 0.52939254
vt 0.21652512 0.52939254
vt 0.21652512 0.52939254
vt 0.21652512 0.52939254
vt 0.21652512 0.52939254
vt 0.21652512 0.52939254
vt 0.030760095 0.5274371
vt 0.030760095 0.5274371
vt 0.030760095 0.5274371
vt 0.030760095 0.5274371
vt 0.030760095 0.5274371
vt 0.030760095 0.5274371
vt 0.030760095 0.5274371
vt 0.030760095 0.5274371
vt 0.030760095 0.5274371
vt 0.030760095 0.5274371
vt 0.030760095 0.5274371
vt 0.030760095 0.5274371
vt 0.21652512 0.52939254
vt 0.21652512 0.52939254
vt 0.21652512 0.52939254
vt 0.21652512 0.52939254
vt 0.21652512 0.52939254
vt 0.21652512 0.52939254
vt 0.21652512 0.52939254
vt 0.21652512 0.52939254
vt 0.21652512 0.52939254
vt 0.21652512 0.52939254
vt 0.21652512 0.52939254
vt 0.21652512 0.52939254
vt 0.030760095 0.5274371
vt 0.030760095 0.5274371
vt 0.030760095 0.5274371
vt 0.030760095 0.5274371
vt 0.21652512 0.52939254
vt 0.21652512 0.52939254
vt 0.21652512 0.52939254
vt 0.21652512 0.52939254
vt 0.21652512 0.52939254
vt 0.21652512 0.52939254
vt 0.21652512 0.52939254
vt 0.21652512 0.52939254
vt 0.21652512 0.52939254
vt 0.21652512 0.52939254
vt 0.21652512 0.52939254
vt 0.21652512 0.52939254
vt 0.21652512 0.52939254
vt 0.21652512 0.52939254
vt 0.21652512 0.52939254
vt 0.21652512 0.52939254
vt 0.21652512 0.52939254
vt 0.030760095 0.5274371
vt 0.030760095 0.5274371
vt 0.030760095 0.5274371
vt 0.030760095 0.5274371
vt 0.030760095 0.5274371
vt 0.030760095 0.5274371
vt 0.030760095 0.5274371
vt 0.030760095 0.5274371
vt 0.21652512 0.52939254
vt 0.21652512 0.52939254
vt 0.21652512 0.52939254
vt 0.21652512 0.52939254
vt 0.21652512 0.52939254
vt 0.21652512 0.52939254
vt 0.21652512 0.52939254
vt 0.21652512 0.52939254
vt 0.21652512 0.52939254
vt 0.21652512 0.52939254
vt 0.21652512 0.52939254
vt 0.21652512 0.52939254
vt 0.21652512 0.52939254
vt 0.21652512 0.52939254
vt 0.21652512 0.52939254
vt 0.21652512 0.52939254
vt 0.21652512 0.52939254
vt 0.21652512 0.52939254
vt 0.21652512 0.52939254
vt 0.21652512 0.52939254
vt 0.21652512 0.52939254
vt 0.21652512 0.52939254
vt 0.21652512 0.52939254
vt 0.21652512 0.52939254
vn -0.015871048 -0.999874 -0.00034526698
vn -0.015871048 -0.999874 -0.00034526698
vn -0.015871048 -0.999874 -0.00034526698
vn 0.015870988 0.999874 -0.00034526698
vn 0.015870988 0.999874 -0.00034526698
vn 0.015870988 0.999874 -0.00034526698
vn 0.015870988 0.999874 -0.00034526698
vn 0.015870988 0.999874 -0.00034526698
vn 0.015870988 0.999874 -0.00034526698
vn 0.015870988 0.999874 -0.00034526698
vn 0.015870988 0.999874 -0.00034526698
vn 0.015870988 0.999874 -0.00034526698
vn 0.015870988 0.999874 -0.00034526698
vn 0.015870988 0.999874 -0.00034526698
vn 0.015870988 0.999874 -0.00034526698
vn 0.015870988 0.999874 -0.00034526698
vn 0.015870988 0.999874 -0.00034526698
vn -0.999874 0.015871048 -0.00034391563
vn -0.999874 0.015871048 -0.00034391563
vn -0.999874 0.015871048 -0.00034391563
vn -0.999874 0.015871048 -0.00034391563
vn -0.015871048 0.015871048 0.99974805
vn -0.015871048 0.015871048 0.99974805
vn -0.015871048 0.015871048 0.99974805
vn -0.015871048 0.015871048 0.99974805
vn -0.015871048 0.015871048 0.99974805
vn -0.015871048 0.015871048 0.99974805
vn -0.015871048 0.015871048 0.99974805
vn -0.015871048 0.015871048 0.99974805
vn -0.999874 0.015871048 -0.00034391563
vn -0.999874 0.015871048 -0.00034391563
vn -0.999874 0.015871048 -0.00034391563
vn -0.999874 0.015871048 -0.00034391563
vn -0.015871048 0.015871048 -0.99974805
vn -0.015871048 0.015871048 -0.99974805
vn -0.015871048 0.015871048 -0.99974805
vn -0.015871048 0.015871048 -0.99974805
vn 0.999874 0.015871048 -0.00034391563
vn 0.999874 0.015871048 -0.00034391563
vn 0.999874 0.015871048 -0.00034391563
vn 0.999874 0.015871048 -0.00034391563
vn -0.015871048 0.015871048 -0.99974805
vn -0.015871048 0.015871048 -0.99974805
vn -0.015871048 0.015871048 -0.99974805
vn -0.015871048 0.015871048 -0.99974805
vn -0.999874 0.015871048 -0.00034391563
vn -0.999874 0.015871048 -0.00034391563
vn -0.999874 0.015871048 -0.00034391563
vn -0.999874 0.015871048 -0.00034391563
vn -0.015871048 0.015871048 0.99974805
vn -0.015871048 0.015871048 0.99974805
vn -0.015871048 0.015871048 0.99974805
vn -0.015871048 0.015871048 0.99974805
vn -0.015871048 -0.999874 -0.00034526698
vn -0.015871048 -0.999874 -0.00034526698
vn -0.015871048 -0.999874 -0.00034526698
vn -0.015871048 -0.999874 -0.00034526698
vn -0.015871048 -0.999874 -0.00034526698
vn -0.015871048 -0.999874 -0.00034526698
vn -0.015871048 -0.999874 -0.00034526698
vn -0.015871048 -0.999874 -0.00034526698
vn -0.015871048 -0.999874 -0.00034526698
vn -0.015871048 -0.999874 -0.00034526698
vn -0.015871048 -0.999874 -0.00034526698
vn -0.015871048 -0.999874 -0.00034526698
vn -0.015871048 -0.999874 -0.00034526698
vn -0.015871048 -0.999874 -0.00034526698
vn -0.015871048 -0.999874 -0.00034526698
vn -0.015871048 -0.999874 -0.00034526698
vn -0.015871048 -0.999874 -0.00034526698
vn 0.999874 0.015871048 -0.00034391563
vn 0.999874 0.015871048 -0.00034391563
vn 0.999874 0.015871048 -0.00034391563
vn 0.999874 0.015871048 -0.00034391563
vn -0.999874 0.015871048 -0.00034391563
vn -0.999874 0.015871048 -0.00034391563
vn -0.999874 0.015871048 -0.00034391563
vn -0.999874 0.015871048 -0.00034391563
vn -0.7141957 0.015871048 0.6997661
vn -0.7141957 0.015871048 0.6997661
vn -0.7141957 0.015871048 0.6997661
vn -0.7141957 0.015871048 0.6997661
vn -0.7141957 0.015871048 -0.6997661
vn -0.7141957 0.015871048 -0.6997661
vn -0.7141957 0.015871048 -0.6997661
vn -0.7141957 0.015871048 -0.6997661
vn 0.7141957 0.015871048 -0.6997661
vn 0.7141957 0.015871048 -0.6997661
vn 0.7141957 0.015871048 -0.6997661
vn 0.7141957 0.015871048 -0.6997661
vn 0.7141957 0.015871048 0.6997661
vn 0.7141957 0.015871048 0.6997661
vn 0.7141957 0.015871048 0.6997661
vn 0.7141957 0.015871048 0.6997661
vn -0.7141957 0.015871048 0.6997661
vn -0.7141957 0.015871048 0.6997661
vn -0.7141957 0.015871048 0.6997661
vn -0.7141957 0.015871048 0.6997661
vn -0.015871048 0.015871048 0.99974805
vn -0.015871048 0.015871048 0.99974805
vn -0.015871048 0.015871048 0.99974805
vn -0.015871048 0.015871048 0.99974805
g kitchenCounter.005_0
f 3/3/3 2/2/2 1/1/1
f 6/6/6 5/5/5 4/4/4
f 9/9/9 8/8/8 7/7/7
f 8/8/8 10/10/10 7/7/7
f 7/7/7 10/10/10 11/11/11
f 10/10/10 12/12/12 11/11/11
f 14/14/14 12/12/12 13/13/13
f 12/12/12 15/15/15 13/13/13
f 15/15/15 16/16/16 13/13/13
f 16/16/16 17/17/17 13/13/13
f 20/20/20 19/19/19 18/18/18
f 21/21/21 20/20/20 18/18/18
f 24/24/24 23/23/23 22/22/22
f 25/25/25 24/24/24 22/22/22
f 28/28/28 27/27/27 26/26/26
f 29/29/29 28/28/28 26/26/26
f 32/32/32 31/31/31 30/30/30
f 33/33/33 32/32/32 30/30/30
f 36/36/36 35/35/35 34/34/34
f 37/37/37 36/36/36 34/34/34
f 40/40/40 39/39/39 38/38/38
f 41/41/41 40/40/40 38/38/38
f 44/44/44 43/43/43 42/42/42
f 45/45/45 44/44/44 42/42/42
f 48/48/48 47/47/47 46/46/46
f 49/49/49 48/48/48 46/46/46
f 52/52/52 51/51/51 50/50/50
f 53/53/53 52/52/52 50/50/50
f 56/56/56 55/55/55 54/54/54
f 57/57/57 56/56/56 54/54/54
f 57/57/57 58/58/58 56/56/56
f 58/58/58 59/59/59 56/56/56
f 59/59/59 58/58/58 60/60/60
f 61/61/61 60/60/60 58/58/58
f 62/62/62 61/61/61 58/58/58
f 61/61/61 62/62/62 63/63/63
f 63/63/63 62/62/62 64/64/64
f 65/65/65 63/63/63 64/64/64
f 65/65/65 64/64/64 66/66/66
f 67/67/67 66/66/66 64/64/64
f 68/68/68 67/67/67 64/64/64
f 54/54/54 69/69/69 68/68/68
f 67/67/67 68/68/68 70/70/70
f 69/69/69 70/70/70 68/68/68
f 73/73/73 72/72/72 71/71/71
f 74/74/74 73/73/73 71/71/71
f 77/77/77 76/76/76 75/75/75
f 78/78/78 77/77/77 75/75/75
f 81/81/81 80/80/80 79/79/79
f 82/82/82 81/81/81 79/79/79
f 85/85/85 84/84/84 83/83/83
f 86/86/86 85/85/85 83/83/83
f 89/89/89 88/88/88 87/87/87
f 90/90/90 89/89/89 87/87/87
f 93/93/93 92/92/92 91/91/91
f 94/94/94 93/93/93 91/91/91
f 97/97/97 96/96/96 95/95/95
f 98/98/98 97/97/97 95/95/95
f 101/101/101 100/100/100 99/99/99
f 102/102/102 101/101/101 99/99/99
