g latteMachine
v -1.5526712 0.2873857 -1.2498252
v -1.2973943 0.2873857 -1.4995527
v 1.2997708 0.2873857 -1.4995527
v 1.5494982 0.2873857 -1.2498252
v -1.5526712 0.2873857 -0.001188159
v 1.5494982 0.2873857 -0.001188159
v -1.5526712 2.5071852 0.57041
v -1.5526712 0.2873857 -0.001188159
v 1.5494982 0.2873857 -0.001188159
v 1.5494982 2.5071852 0.57041
v -1.3473399 2.706967 -1.4995527
v 1.3497163 2.706967 -1.4995527
v 1.3497163 3.4284017 -1.4995527
v 1.2387263 3.6892283 -1.4995527
v 0.9778999 3.8002179 -1.4995527
v -0.9810729 3.8002179 -1.4995527
v -1.2418995 3.6892283 -1.4995527
v -1.3473399 3.4284017 -1.4995527
v -1.5526712 2.5071852 0.57041
v -1.5526712 2.5071852 -1.4995527
v -1.5526712 3.4672482 -1.4995527
v -1.5526712 3.4672482 1.5027258
v -1.5526712 0.2873857 -0.001188159
v -1.3917358 3.8446143 1.5027258
v -1.5526712 -0.001188159 1.5027258
v -1.3917358 3.8446143 -1.4995527
v -1.5526712 0.2873857 -1.2498252
v -1.5526712 -0.001188159 -1.2498252
v -1.2973943 0.2873857 -1.4995527
v -1.2973943 -0.001188159 -1.4995527
v 1.2997708 0.2873857 -1.4995527
v 1.2997708 -0.001188159 -1.4995527
v 1.5494982 0.2873857 -1.2498252
v 1.5494982 -0.001188159 -1.2498252
v 1.5494982 0.2873857 -0.001188159
v 1.5494982 -0.001188159 1.5027258
v 1.5494982 2.5071852 0.57041
v -1.0199194 4 1.5027258
v -1.0199194 4 -1.4995527
v 1.5494982 3.4672482 1.5027258
v 1.0167464 4 -1.4995527
v 1.0167464 4 1.5027258
v 1.3941122 3.8446143 1.5027258
v 1.3941122 3.8446143 -1.4995527
v 1.5494982 2.5071852 -1.4995527
v 1.5494982 3.4672482 -1.4995527
v 1.0722413 2.984442 -1.3219688
v 1.0722413 3.3396099 -1.3219688
v 1.0722413 3.3396099 -1.6771367
v 1.0722413 2.984442 -1.6771367
v -1.5526712 2.5071852 -1.4995527
v -1.5526712 2.5071852 0.57041
v 1.5494982 2.5071852 0.57041
v 1.5494982 2.5071852 -1.4995527
v 1.5494982 -0.001188159 1.5027258
v -1.5526712 -0.001188159 1.5027258
v -1.5526712 3.4672482 1.5027258
v 1.5494982 3.4672482 1.5027258
v -1.3917358 3.8446143 1.5027258
v 1.3941122 3.8446143 1.5027258
v -1.0199194 4 1.5027258
v 1.0167464 4 1.5027258
v 1.5494982 -0.001188159 -1.2498252
v 1.2997708 -0.001188159 -1.4995527
v -1.2973943 -0.001188159 -1.4995527
v -1.5526712 -0.001188159 -1.2498252
v 1.5494982 -0.001188159 1.5027258
v -1.5526712 -0.001188159 1.5027258
v 1.0722413 3.3396099 -1.3219688
v 0.71707344 3.3396099 -1.3219688
v 0.71707344 3.3396099 -1.6771367
v 1.0722413 3.3396099 -1.6771367
v 0.71707344 3.3396099 -1.3219688
v 0.71707344 2.984442 -1.3219688
v 0.71707344 2.984442 -1.6771367
v 0.71707344 3.3396099 -1.6771367
v 0.71707344 2.984442 -1.3219688
v 1.0722413 2.984442 -1.3219688
v 1.0722413 2.984442 -1.6771367
v 0.71707344 2.984442 -1.6771367
v 1.0722413 3.3396099 -1.3219688
v 1.0722413 2.984442 -1.3219688
v 0.71707344 2.984442 -1.3219688
v 0.71707344 3.3396099 -1.3219688
v 0.71707344 3.3396099 -1.6771367
v 0.71707344 2.984442 -1.6771367
v 1.0722413 2.984442 -1.6771367
v 1.0722413 3.3396099 -1.6771367
v 0.40075207 2.984442 -1.3219688
v 0.40075207 3.3396099 -1.3219688
v 0.40075207 3.3396099 -1.6771367
v 0.40075207 2.984442 -1.6771367
v 0.40075207 3.3396099 -1.3219688
v 0.0455842 3.3396099 -1.3219688
v 0.0455842 3.3396099 -1.6771367
v 0.40075207 3.3396099 -1.6771367
v 0.0455842 3.3396099 -1.3219688
v 0.0455842 2.984442 -1.3219688
v 0.0455842 2.984442 -1.6771367
v 0.0455842 3.3396099 -1.6771367
v 0.0455842 2.984442 -1.3219688
v 0.40075207 2.984442 -1.3219688
v 0.40075207 2.984442 -1.6771367
v 0.0455842 2.984442 -1.6771367
v 0.40075207 3.3396099 -1.3219688
v 0.40075207 2.984442 -1.3219688
v 0.0455842 2.984442 -1.3219688
v 0.0455842 3.3396099 -1.3219688
v 0.0455842 3.3396099 -1.6771367
v 0.0455842 2.984442 -1.6771367
v 0.40075207 2.984442 -1.6771367
v 0.40075207 3.3396099 -1.6771367
v -0.6647515 2.984442 -1.3219688
v -0.6647515 3.3396099 -1.3219688
v -0.6647515 3.3396099 -1.6771367
v -0.6647515 2.984442 -1.6771367
v -0.6647515 3.3396099 -1.3219688
v -1.0199194 3.3396099 -1.3219688
v -1.0199194 3.3396099 -1.6771367
v -0.6647515 3.3396099 -1.6771367
v -1.0199194 3.3396099 -1.3219688
v -1.0199194 2.984442 -1.3219688
v -1.0199194 2.984442 -1.6771367
v -1.0199194 3.3396099 -1.6771367
v -1.0199194 2.984442 -1.3219688
v -0.6647515 2.984442 -1.3219688
v -0.6647515 2.984442 -1.6771367
v -1.0199194 2.984442 -1.6771367
v -0.6647515 3.3396099 -1.3219688
v -0.6647515 2.984442 -1.3219688
v -1.0199194 2.984442 -1.3219688
v -1.0199194 3.3396099 -1.3219688
v -1.0199194 3.3396099 -1.6771367
v -1.0199194 2.984442 -1.6771367
v -0.6647515 2.984442 -1.6771367
v -0.6647515 3.3396099 -1.6771367
v 0.001188159 2.1076212 -1.1665828
v 0.49509358 2.1076212 -0.9612514
v 0.49509358 2.906749 -0.9612514
v 0.001188159 2.906749 -1.1665828
v 0.49509358 2.1076212 -0.9612514
v 0.70042497 2.1076212 -0.46734607
v 0.70042497 2.906749 -0.46734607
v 0.49509358 2.906749 -0.9612514
v 0.70042497 2.1076212 -0.46734607
v 0.49509358 2.1076212 0.032108784
v 0.49509358 2.906749 0.032108784
v 0.70042497 2.906749 -0.46734607
v 0.49509358 2.1076212 0.032108784
v 0.001188159 2.1076212 0.23189068
v 0.001188159 2.906749 0.23189068
v 0.49509358 2.906749 0.032108784
v 0.001188159 2.1076212 0.23189068
v -0.49271703 2.1076212 0.032108784
v -0.49271703 2.906749 0.032108784
v 0.001188159 2.906749 0.23189068
v -0.49271703 2.1076212 0.032108784
v -0.6980486 2.1076212 -0.46734607
v -0.6980486 2.906749 -0.46734607
v -0.49271703 2.906749 0.032108784
v -0.6980486 2.1076212 -0.46734607
v -0.49271703 2.1076212 -0.9612514
v -0.49271703 2.906749 -0.9612514
v -0.6980486 2.906749 -0.46734607
v -0.49271703 2.1076212 -0.9612514
v 0.001188159 2.1076212 -1.1665828
v 0.001188159 2.906749 -1.1665828
v -0.49271703 2.906749 -0.9612514
v 0.49509358 2.1076212 -0.9612514
v 0.001188159 2.1076212 -1.1665828
v -0.49271703 2.1076212 -0.9612514
v 0.70042497 2.1076212 -0.46734607
v -0.6980486 2.1076212 -0.46734607
v -0.49271703 2.1076212 0.032108784
v 0.49509358 2.1076212 0.032108784
v 0.001188159 2.1076212 0.23189068
v 1.3497163 3.4284017 -1.4995527
v 1.5494982 3.4672482 -1.4995527
v 1.3941122 3.8446143 -1.4995527
v 1.2387263 3.6892283 -1.4995527
v 1.3497163 2.706967 -1.4995527
v 1.0167464 4 -1.4995527
v 1.5494982 2.5071852 -1.4995527
v 0.9778999 3.8002179 -1.4995527
v -1.3473399 2.706967 -1.4995527
v -1.0199194 4 -1.4995527
v -1.5526712 2.5071852 -1.4995527
v -0.9810729 3.8002179 -1.4995527
v -1.3473399 3.4284017 -1.4995527
v -1.3917358 3.8446143 -1.4995527
v -1.5526712 3.4672482 -1.4995527
v -1.2418995 3.6892283 -1.4995527
vt 0.653359 0.031978857
vt 0.653359 0.031978857
vt 0.653359 0.031978857
vt 0.653359 0.031978857
vt 0.653359 0.031978857
vt 0.653359 0.031978857
vt 0.7174188 0.031978857
vt 0.7174188 0.031978857
vt 0.7174188 0.031978857
vt 0.7174188 0.031978857
vt 0.653359 0.031978857
vt 0.653359 0.031978857
vt 0.653359 0.031978857
vt 0.653359 0.031978857
vt 0.653359 0.031978857
vt 0.653359 0.031978857
vt 0.653359 0.031978857
vt 0.653359 0.031978857
vt 0.028775867 0.2818121
vt 0.028775867 0.2818121
vt 0.028775867 0.2818121
vt 0.028775867 0.2818121
vt 0.028775867 0.2818121
vt 0.028775867 0.2818121
vt 0.028775867 0.2818121
vt 0.028775867 0.2818121
vt 0.028775867 0.2818121
vt 0.028775867 0.2818121
vt 0.028775867 0.2818121
vt 0.028775867 0.2818121
vt 0.028775867 0.2818121
vt 0.028775867 0.2818121
vt 0.028775867 0.2818121
vt 0.028775867 0.2818121
vt 0.028775867 0.2818121
vt 0.028775867 0.2818121
vt 0.028775867 0.2818121
vt 0.028775867 0.2818121
vt 0.028775867 0.2818121
vt 0.028775867 0.2818121
vt 0.028775867 0.2818121
vt 0.028775867 0.2818121
vt 0.028775867 0.2818121
vt 0.028775867 0.2818121
vt 0.028775867 0.2818121
vt 0.028775867 0.2818121
vt 0.7782756 0.15689549
vt 0.7782756 0.15689549
vt 0.7782756 0.15689549
vt 0.7782756 0.15689549
vt 0.028775867 0.2818121
vt 0.028775867 0.2818121
vt 0.028775867 0.2818121
vt 0.028775867 0.2818121
vt 0.028775867 0.2818121
vt 0.028775867 0.2818121
vt 0.028775867 0.2818121
vt 0.028775867 0.2818121
vt 0.028775867 0.2818121
vt 0.028775867 0.2818121
vt 0.028775867 0.2818121
vt 0.028775867 0.2818121
vt 0.028775867 0.2818121
vt 0.028775867 0.2818121
vt 0.028775867 0.2818121
vt 0.028775867 0.2818121
vt 0.028775867 0.2818121
vt 0.028775867 0.2818121
vt 0.7782756 0.15689549
vt 0.7782756 0.15689549
vt 0.7782756 0.15689549
vt 0.7782756 0.15689549
vt 0.7782756 0.15689549
vt 0.7782756 0.15689549
vt 0.7782756 0.15689549
vt 0.7782756 0.15689549
vt 0.7782756 0.15689549
vt 0.7782756 0.15689549
vt 0.7782756 0.15689549
vt 0.7782756 0.15689549
vt 0.7782756 0.15689549
vt 0.7782756 0.15689549
vt 0.7782756 0.15689549
vt 0.7782756 0.15689549
vt 0.7782756 0.15689549
vt 0.7782756 0.15689549
vt 0.7782756 0.15689549
vt 0.7782756 0.15689549
vt 0.15369248 0.8455384
vt 0.15369248 0.8455384
vt 0.15369248 0.8455384
vt 0.15369248 0.8455384
vt 0.15369248 0.8455384
vt 0.15369248 0.8455384
vt 0.15369248 0.8455384
vt 0.15369248 0.8455384
vt 0.15369248 0.8455384
vt 0.15369248 0.8455384
vt 0.15369248 0.8455384
vt 0.15369248 0.8455384
vt 0.15369248 0.8455384
vt 0.15369248 0.8455384
vt 0.15369248 0.8455384
vt 0.15369248 0.8455384
vt 0.15369248 0.8455384
vt 0.15369248 0.8455384
vt 0.15369248 0.8455384
vt 0.15369248 0.8455384
vt 0.15369248 0.8455384
vt 0.15369248 0.8455384
vt 0.15369248 0.8455384
vt 0.15369248 0.8455384
vt 0.7174188 0.15689549
vt 0.7174188 0.15689549
vt 0.7174188 0.15689549
vt 0.7174188 0.15689549
vt 0.7174188 0.15689549
vt 0.7174188 0.15689549
vt 0.7174188 0.15689549
vt 0.7174188 0.15689549
vt 0.7174188 0.15689549
vt 0.7174188 0.15689549
vt 0.7174188 0.15689549
vt 0.7174188 0.15689549
vt 0.7174188 0.15689549
vt 0.7174188 0.15689549
vt 0.7174188 0.15689549
vt 0.7174188 0.15689549
vt 0.7174188 0.15689549
vt 0.7174188 0.15689549
vt 0.7174188 0.15689549
vt 0.7174188 0.15689549
vt 0.7174188 0.15689549
vt 0.7174188 0.15689549
vt 0.7174188 0.15689549
vt 0.7174188 0.15689549
vt 0.8423354 0.09603867
vt 0.8423354 0.09603867
vt 0.8423354 0.09603867
vt 0.8423354 0.09603867
vt 0.8423354 0.09603867
vt 0.8423354 0.09603867
vt 0.8423354 0.09603867
vt 0.8423354 0.09603867
vt 0.8423354 0.09603867
vt 0.8423354 0.09603867
vt 0.8423354 0.09603867
vt 0.8423354 0.09603867
vt 0.8423354 0.09603867
vt 0.8423354 0.09603867
vt 0.8423354 0.09603867
vt 0.8423354 0.09603867
vt 0.8423354 0.09603867
vt 0.8423354 0.09603867
vt 0.8423354 0.09603867
vt 0.8423354 0.09603867
vt 0.8423354 0.09603867
vt 0.8423354 0.09603867
vt 0.8423354 0.09603867
vt 0.8423354 0.09603867
vt 0.8423354 0.09603867
vt 0.8423354 0.09603867
vt 0.8423354 0.09603867
vt 0.8423354 0.09603867
vt 0.8423354 0.09603867
vt 0.8423354 0.09603867
vt 0.8423354 0.09603867
vt 0.8423354 0.09603867
vt 0.8423354 0.09603867
vt 0.8423354 0.09603867
vt 0.8423354 0.09603867
vt 0.8423354 0.09603867
vt 0.8423354 0.09603867
vt 0.8423354 0.09603867
vt 0.8423354 0.09603867
vt 0.8423354 0.09603867
vt 0.028775867 0.2818121
vt 0.028775867 0.2818121
vt 0.028775867 0.2818121
vt 0.028775867 0.2818121
vt 0.028775867 0.2818121
vt 0.028775867 0.2818121
vt 0.028775867 0.2818121
vt 0.028775867 0.2818121
vt 0.028775867 0.2818121
vt 0.028775867 0.2818121
vt 0.028775867 0.2818121
vt 0.028775867 0.2818121
vt 0.028775867 0.2818121
vt 0.028775867 0.2818121
vt 0.028775867 0.2818121
vt 0.028775867 0.2818121
vn -0.015871048 0.999874 -0.00034526698
vn -0.015871048 0.999874 -0.00034526698
vn -0.015871048 0.999874 -0.00034526698
vn -0.015871048 0.999874 -0.00034526698
vn -0.015871048 0.999874 -0.00034526698
vn -0.015871048 0.999874 -0.00034526698
vn -0.015871048 0.23806524 -0.97111946
vn -0.015871048 0.23806524 -0.97111946
vn -0.015871048 0.23806524 -0.97111946
vn -0.015871048 0.23806524 -0.97111946
vn -0.015871048 0.015871048 -0.99974805
vn -0.015871048 0.015871048 -0.99974805
vn -0.015871048 0.015871048 -0.99974805
vn -0.015871048 0.015871048 -0.99974805
vn -0.015871048 0.015871048 -0.99974805
vn -0.015871048 0.015871048 -0.99974805
vn -0.015871048 0.015871048 -0.99974805
vn -0.015871048 0.015871048 -0.99974805
vn -0.999874 0.015871048 -0.00034391563
vn -0.999874 0.015871048 -0.00034391563
vn -0.968132 0.20632327 -0.14195466
vn -0.968132 0.20632327 -0.14195466
vn -0.999874 0.015871048 -0.00034391563
vn -0.70710677 0.70710677 -0
vn -0.999874 0.015871048 -0.00034391563
vn -0.70710677 0.70710677 -0
vn -0.9363899 0.015871048 -0.35060233
vn -0.9363899 0.015871048 -0.35060233
vn -0.39677536 0.015871048 -0.9177785
vn -0.39677536 0.015871048 -0.9177785
vn 0.39677536 0.015871048 -0.9177785
vn 0.39677536 0.015871048 -0.9177785
vn 0.9363899 0.015871048 -0.35060233
vn 0.9363899 0.015871048 -0.35060233
vn 0.999874 0.015871048 -0.00034391563
vn 0.999874 0.015871048 -0.00034391563
vn 0.999874 0.015871048 -0.00034391563
vn -0.20632327 0.968132 -0.1419547
vn -0.20632327 0.968132 -0.1419547
vn 0.96813196 0.20632327 -0.14195509
vn 0.2063232 0.968132 -0.1419547
vn 0.2063232 0.968132 -0.1419547
vn 0.70710677 0.70710677 -0
vn 0.70710677 0.70710677 -0
vn 0.999874 0.015871048 -0.00034391563
vn 0.96813196 0.20632327 -0.14195509
vn 0.999874 0.015871048 -0.00034391563
vn 0.999874 0.015871048 -0.00034391563
vn 0.999874 0.015871048 -0.00034391563
vn 0.999874 0.015871048 -0.00034391563
vn -0.015871048 -0.999874 -0.00034526698
vn -0.015871048 -0.999874 -0.00034526698
vn -0.015871048 -0.999874 -0.00034526698
vn -0.015871048 -0.999874 -0.00034526698
vn -0.015871048 0.015871048 0.99974805
vn -0.015871048 0.015871048 0.99974805
vn -0.015871048 0.015871048 0.99974805
vn -0.015871048 0.015871048 0.99974805
vn -0.015871048 0.015871048 0.99974805
vn -0.015871048 0.015871048 0.99974805
vn -0.015871048 0.015871048 0.99974805
vn -0.015871048 0.015871048 0.99974805
vn -0.015871048 -0.999874 -0.00034526698
vn -0.015871048 -0.999874 -0.00034526698
vn -0.015871048 -0.999874 -0.00034526698
vn -0.015871048 -0.999874 -0.00034526698
vn -0.015871048 -0.999874 -0.00034526698
vn -0.015871048 -0.999874 -0.00034526698
vn -0.015871048 0.999874 -0.00034526698
vn -0.015871048 0.999874 -0.00034526698
vn -0.015871048 0.999874 -0.00034526698
vn -0.015871048 0.999874 -0.00034526698
vn -0.999874 0.015871048 -0.00034391563
vn -0.999874 0.015871048 -0.00034391563
vn -0.999874 0.015871048 -0.00034391563
vn -0.999874 0.015871048 -0.00034391563
vn -0.015871048 -0.999874 -0.00034526698
vn -0.015871048 -0.999874 -0.00034526698
vn -0.015871048 -0.999874 -0.00034526698
vn -0.015871048 -0.999874 -0.00034526698
vn -0.015871048 0.015871048 0.99974805
vn -0.015871048 0.015871048 0.99974805
vn -0.015871048 0.015871048 0.99974805
vn -0.015871048 0.015871048 0.99974805
vn -0.015871048 0.015871048 -0.99974805
vn -0.015871048 0.015871048 -0.99974805
vn -0.015871048 0.015871048 -0.99974805
vn -0.015871048 0.015871048 -0.99974805
vn 0.999874 0.015871048 -0.00034391563
vn 0.999874 0.015871048 -0.00034391563
vn 0.999874 0.015871048 -0.00034391563
vn 0.999874 0.015871048 -0.00034391563
vn -0.015871048 0.999874 -0.00034526698
vn -0.015871048 0.999874 -0.00034526698
vn -0.015871048 0.999874 -0.00034526698
vn -0.015871048 0.999874 -0.00034526698
vn -0.999874 0.015871048 -0.00034391563
vn -0.999874 0.015871048 -0.00034391563
vn -0.999874 0.015871048 -0.00034391563
vn -0.999874 0.015871048 -0.00034391563
vn -0.015871048 -0.999874 -0.00034526698
vn -0.015871048 -0.999874 -0.00034526698
vn -0.015871048 -0.999874 -0.00034526698
vn -0.015871048 -0.999874 -0.00034526698
vn -0.015871048 0.015871048 0.99974805
vn -0.015871048 0.015871048 0.99974805
vn -0.015871048 0.015871048 0.99974805
vn -0.015871048 0.015871048 0.99974805
vn -0.015871048 0.015871048 -0.99974805
vn -0.015871048 0.015871048 -0.99974805
vn -0.015871048 0.015871048 -0.99974805
vn -0.015871048 0.015871048 -0.99974805
vn 0.999874 0.015871048 -0.00034391563
vn 0.999874 0.015871048 -0.00034391563
vn 0.999874 0.015871048 -0.00034391563
vn 0.999874 0.015871048 -0.00034391563
vn -0.015871048 0.999874 -0.00034526698
vn -0.015871048 0.999874 -0.00034526698
vn -0.015871048 0.999874 -0.00034526698
vn -0.015871048 0.999874 -0.00034526698
vn -0.999874 0.015871048 -0.00034391563
vn -0.999874 0.015871048 -0.00034391563
vn -0.999874 0.015871048 -0.00034391563
vn -0.999874 0.015871048 -0.00034391563
vn -0.015871048 -0.999874 -0.00034526698
vn -0.015871048 -0.999874 -0.00034526698
vn -0.015871048 -0.999874 -0.00034526698
vn -0.015871048 -0.999874 -0.00034526698
vn -0.015871048 0.015871048 0.99974805
vn -0.015871048 0.015871048 0.99974805
vn -0.015871048 0.015871048 0.99974805
vn -0.015871048 0.015871048 0.99974805
vn -0.015871048 0.015871048 -0.99974805
vn -0.015871048 0.015871048 -0.99974805
vn -0.015871048 0.015871048 -0.99974805
vn -0.015871048 0.015871048 -0.99974805
vn 0.39677536 0.015871048 -0.9177785
vn 0.39677536 0.015871048 -0.9177785
vn 0.39677536 0.015871048 -0.9177785
vn 0.39677536 0.015871048 -0.9177785
vn 0.9363899 0.015871048 -0.35060233
vn 0.9363899 0.015871048 -0.35060233
vn 0.9363899 0.015871048 -0.35060233
vn 0.9363899 0.015871048 -0.35060233
vn 0.9363899 0.015871048 0.35060233
vn 0.9363899 0.015871048 0.35060233
vn 0.9363899 0.015871048 0.35060233
vn 0.9363899 0.015871048 0.35060233
vn 0.39677536 0.015871048 0.9177785
vn 0.39677536 0.015871048 0.9177785
vn 0.39677536 0.015871048 0.9177785
vn 0.39677536 0.015871048 0.9177785
vn -0.39677536 0.015871048 0.9177785
vn -0.39677536 0.015871048 0.9177785
vn -0.39677536 0.015871048 0.9177785
vn -0.39677536 0.015871048 0.9177785
vn -0.9363899 0.015871048 0.35060233
vn -0.9363899 0.015871048 0.35060233
vn -0.9363899 0.015871048 0.35060233
vn -0.9363899 0.015871048 0.35060233
vn -0.9363899 0.015871048 -0.35060233
vn -0.9363899 0.015871048 -0.35060233
vn -0.9363899 0.015871048 -0.35060233
vn -0.9363899 0.015871048 -0.35060233
vn -0.39677536 0.015871048 -0.9177785
vn -0.39677536 0.015871048 -0.9177785
vn -0.39677536 0.015871048 -0.9177785
vn -0.39677536 0.015871048 -0.9177785
vn -0.015871048 -0.999874 -0.00034526698
vn -0.015871048 -0.999874 -0.00034526698
vn -0.015871048 -0.999874 -0.00034526698
vn -0.015871048 -0.999874 -0.00034526698
vn -0.015871048 -0.999874 -0.00034526698
vn -0.015871048 -0.999874 -0.00034526698
vn -0.015871048 -0.999874 -0.00034526698
vn -0.015871048 -0.999874 -0.00034526698
vn -0.015871048 0.015871048 -0.99974805
vn -0.015871048 0.015871048 -0.99974805
vn -0.015871048 0.015871048 -0.99974805
vn -0.015871048 0.015871048 -0.99974805
vn -0.015871048 0.015871048 -0.99974805
vn -0.015871048 0.015871048 -0.99974805
vn -0.015871048 0.015871048 -0.99974805
vn -0.015871048 0.015871048 -0.99974805
vn -0.015871048 0.015871048 -0.99974805
vn -0.015871048 0.015871048 -0.99974805
vn -0.015871048 0.015871048 -0.99974805
vn -0.015871048 0.015871048 -0.99974805
vn -0.015871048 0.015871048 -0.99974805
vn -0.015871048 0.015871048 -0.99974805
vn -0.015871048 0.015871048 -0.99974805
vn -0.015871048 0.015871048 -0.99974805
g latteMachine_0
f 3/3/3 2/2/2 1/1/1
f 1/1/1 4/4/4 3/3/3
f 1/1/1 5/5/5 4/4/4
f 5/5/5 6/6/6 4/4/4
f 9/9/9 8/8/8 7/7/7
f 10/10/10 9/9/9 7/7/7
f 13/13/13 12/12/12 11/11/11
f 11/11/11 14/14/14 13/13/13
f 11/11/11 15/15/15 14/14/14
f 11/11/11 16/16/16 15/15/15
f 11/11/11 17/17/17 16/16/16
f 11/11/11 18/18/18 17/17/17
f 21/21/21 20/20/20 19/19/19
f 22/22/22 21/21/21 19/19/19
f 19/19/19 23/23/23 22/22/22
f 21/21/21 22/22/22 24/24/24
f 23/23/23 25/25/25 22/22/22
f 26/26/26 21/21/21 24/24/24
f 23/23/23 27/27/27 25/25/25
f 27/27/27 28/28/28 25/25/25
f 28/28/28 27/27/27 29/29/29
f 30/30/30 28/28/28 29/29/29
f 29/29/29 31/31/31 30/30/30
f 31/31/31 32/32/32 30/30/30
f 32/32/32 31/31/31 33/33/33
f 34/34/34 32/32/32 33/33/33
f 33/33/33 35/35/35 34/34/34
f 35/35/35 36/36/36 34/34/34
f 36/36/36 35/35/35 37/37/37
f 26/26/26 24/24/24 38/38/38
f 39/39/39 26/26/26 38/38/38
f 40/40/40 36/36/36 37/37/37
f 39/39/39 38/38/38 41/41/41
f 38/38/38 42/42/42 41/41/41
f 42/42/42 43/43/43 41/41/41
f 43/43/43 44/44/44 41/41/41
f 43/43/43 40/40/40 44/44/44
f 40/40/40 37/37/37 45/45/45
f 40/40/40 46/46/46 44/44/44
f 46/46/46 40/40/40 45/45/45
f 49/49/49 48/48/48 47/47/47
f 50/50/50 49/49/49 47/47/47
f 53/53/53 52/52/52 51/51/51
f 54/54/54 53/53/53 51/51/51
f 57/57/57 56/56/56 55/55/55
f 58/58/58 57/57/57 55/55/55
f 59/59/59 57/57/57 58/58/58
f 60/60/60 59/59/59 58/58/58
f 61/61/61 59/59/59 60/60/60
f 62/62/62 61/61/61 60/60/60
f 65/65/65 64/64/64 63/63/63
f 63/63/63 66/66/66 65/65/65
f 63/63/63 67/67/67 66/66/66
f 67/67/67 68/68/68 66/66/66
f 71/71/71 70/70/70 69/69/69
f 72/72/72 71/71/71 69/69/69
f 75/75/75 74/74/74 73/73/73
f 76/76/76 75/75/75 73/73/73
f 79/79/79 78/78/78 77/77/77
f 80/80/80 79/79/79 77/77/77
f 83/83/83 82/82/82 81/81/81
f 84/84/84 83/83/83 81/81/81
f 87/87/87 86/86/86 85/85/85
f 88/88/88 87/87/87 85/85/85
f 91/91/91 90/90/90 89/89/89
f 92/92/92 91/91/91 89/89/89
f 95/95/95 94/94/94 93/93/93
f 96/96/96 95/95/95 93/93/93
f 99/99/99 98/98/98 97/97/97
f 100/100/100 99/99/99 97/97/97
f 103/103/103 102/102/102 101/101/101
f 104/104/104 103/103/103 101/101/101
f 107/107/107 106/106/106 105/105/105
f 108/108/108 107/107/107 105/105/105
f 111/111/111 110/110/110 109/109/109
f 112/112/112 111/111/111 109/109/109
f 115/115/115 114/114/114 113/113/113
f 116/116/116 115/115/115 113/113/113
f 119/119/119 118/118/118 117/117/117
f 120/120/120 119/119/119 117/117/117
f 123/123/123 122/122/122 121/121/121
f 124/124/124 123/123/123 121/121/121
f 127/127/127 126/126/126 125/125/125
f 128/128/128 127/127/127 125/125/125
f 131/131/131 130/130/130 129/129/129
f 132/132/132 131/131/131 129/129/129
f 135/135/135 134/134/134 133/133/133
f 136/136/136 135/135/135 133/133/133
f 139/139/139 138/138/138 137/137/137
f 140/140/140 139/139/139 137/137/137
f 143/143/143 142/142/142 141/141/141
f 144/144/144 143/143/143 141/141/141
f 147/147/147 146/146/146 145/145/145
f 148/148/148 147/147/147 145/145/145
f 151/151/151 150/150/150 149/149/149
f 152/152/152 151/151/151 149/149/149
f 155/155/155 154/154/154 153/153/153
f 156/156/156 155/155/155 153/153/153
f 159/159/159 158/158/158 157/157/157
f 160/160/160 159/159/159 157/157/157
f 163/163/163 162/162/162 161/161/161
f 164/164/164 163/163/163 161/161/161
f 167/167/167 166/166/166 165/165/165
f 168/168/168 167/167/167 165/165/165
f 171/171/171 170/170/170 169/169/169
f 169/169/169 172/172/172 171/171/171
f 172/172/172 173/173/173 171/171/171
f 172/172/172 174/174/174 173/173/173
f 172/172/172 175/175/175 174/174/174
f 175/175/175 176/176/176 174/174/174
f 179/179/179 178/178/178 177/177/177
f 180/180/180 179/179/179 177/177/177
f 177/177/177 178/178/178 181/181/181
f 182/182/182 179/179/179 180/180/180
f 178/178/178 183/183/183 181/181/181
f 184/184/184 182/182/182 180/180/180
f 181/181/181 183/183/183 185/185/185
f 186/186/186 182/182/182 184/184/184
f 183/183/183 187/187/187 185/185/185
f 188/188/188 186/186/186 184/184/184
f 185/185/185 187/187/187 189/189/189
f 190/190/190 186/186/186 188/188/188
f 187/187/187 191/191/191 189/189/189
f 192/192/192 190/190/190 188/188/188
f 189/189/189 191/191/191 192/192/192
f 191/191/191 190/190/190 192/192/192
