g Map_Blue
v -0.7106707 0.048263013 0.68312925
v -0.7106707 0.048263013 0.10413534
v -0.4244795 0.048263013 0.10413534
v 1.297455 0.04826206 -1.2194419
v 1.6121057 0.21570534 1.2194419
v 1.297455 0.04826206 1.2194419
v 1.6121057 0.21570534 -1.2194419
v 1.683784 0.38135856 1.2194419
v 1.683784 0.38135856 -1.2194419
v 1.6362294 0.53955215 1.2194419
v 1.6362294 0.53955215 -1.2194419
v 1.4904461 0.6166243 1.2194419
v 1.4904461 0.6166243 -1.2194419
v 1.3096174 0.56671566 1.2194419
v 1.3096174 0.56671566 -1.2194419
v 1.2062709 0.39687675 1.2194419
v 1.2062709 0.39687675 -1.2194419
v 1.2512472 0.24395794 1.2194419
v 1.2512472 0.24395794 -1.2194419
v 1.2512472 0.24395794 1.2194419
v 1.2512472 0.24395794 -1.2194419
v 1.195027 0.22521824 -1.2194419
v 1.195027 0.22521824 1.2194419
v 1.195027 0.22521824 1.2194419
v 1.195027 0.22521824 -1.2194419
v 1.12319 0.40324825 -1.2194419
v 1.12319 0.40324825 1.2194419
v 1.2668638 0.634376 -1.2194419
v 1.2668638 0.634376 1.2194419
v 1.4854977 0.69684255 -1.2194419
v 1.4854977 0.69684255 1.2194419
v 1.6822681 0.60938877 -1.2194419
v 1.6822681 0.60938877 1.2194419
v 1.7665985 0.3938784 -1.2194419
v 1.7665985 0.3938784 1.2194419
v 1.6947615 0.1565041 -1.2194419
v 1.6947615 0.1565041 1.2194419
v 1.3636873 -0.03714329 -1.2194419
v 1.3636873 -0.03714329 1.2194419
v -1.3636873 -0.03714329 1.2194419
v -1.3636873 -0.03714329 -1.2194419
v -1.6947615 0.1565041 1.2194419
v -1.6947615 0.1565041 -1.2194419
v -1.7665985 0.3938784 1.2194419
v -1.7665985 0.3938784 -1.2194419
v -1.6822681 0.60938877 1.2194419
v -1.6822681 0.60938877 -1.2194419
v -1.4854977 0.69684255 1.2194419
v -1.4854977 0.69684255 -1.2194419
v -1.2668638 0.634376 1.2194419
v -1.2668638 0.634376 -1.2194419
v -1.12319 0.40324825 1.2194419
v -1.12319 0.40324825 -1.2194419
v -1.195027 0.22521824 1.2194419
v -1.195027 0.22521824 -1.2194419
v 1.2062709 0.39687675 1.2194419
v 1.2512472 0.24395794 1.2194419
v 1.195027 0.22521824 1.2194419
v 1.12319 0.40324825 1.2194419
v 1.3096174 0.56671566 1.2194419
v 1.2668638 0.634376 1.2194419
v 1.4904461 0.6166243 1.2194419
v 1.4854977 0.69684255 1.2194419
v 1.6362294 0.53955215 1.2194419
v 1.6822681 0.60938877 1.2194419
v 1.683784 0.38135856 1.2194419
v 1.7665985 0.3938784 1.2194419
v 1.6121057 0.21570534 1.2194419
v 1.6947615 0.1565041 1.2194419
v 1.297455 0.04826206 1.2194419
v 1.3636873 -0.03714329 1.2194419
v -1.3636873 -0.03714329 1.2194419
v 0.9109776 0.04826206 1.2194419
v -0.90136325 0.04826206 1.2194419
v -1.297455 0.04826206 1.2194419
v -1.6947615 0.1565041 1.2194419
v -1.6121057 0.21570534 1.2194419
v -1.7665985 0.3938784 1.2194419
v -1.683784 0.38135856 1.2194419
v -1.6822681 0.60938877 1.2194419
v -1.6362294 0.53955215 1.2194419
v -1.4854977 0.69684255 1.2194419
v -1.4904461 0.6166243 1.2194419
v -1.2668638 0.634376 1.2194419
v -1.3096174 0.56671566 1.2194419
v -1.12319 0.40324825 1.2194419
v -1.2062709 0.39687675 1.2194419
v -1.195027 0.22521824 1.2194419
v -1.2512472 0.24395794 1.2194419
v 1.195027 0.22521824 -1.2194419
v 1.2512472 0.24395794 -1.2194419
v 1.2062709 0.39687675 -1.2194419
v 1.12319 0.40324825 -1.2194419
v 1.3096174 0.56671566 -1.2194419
v 1.2668638 0.634376 -1.2194419
v 1.4904461 0.6166243 -1.2194419
v 1.4854977 0.69684255 -1.2194419
v 1.6362294 0.53955215 -1.2194419
v 1.6822681 0.60938877 -1.2194419
v 1.683784 0.38135856 -1.2194419
v 1.7665985 0.3938784 -1.2194419
v 1.6121057 0.21570534 -1.2194419
v 1.6947615 0.1565041 -1.2194419
v 1.297455 0.04826206 -1.2194419
v 1.3636873 -0.03714329 -1.2194419
v -1.3636873 -0.03714329 -1.2194419
v 0.9109776 0.04826206 -1.2194419
v -0.90136325 0.04826206 -1.2194419
v -1.297455 0.04826206 -1.2194419
v -1.6947615 0.1565041 -1.2194419
v -1.6121057 0.21570534 -1.2194419
v -1.7665985 0.3938784 -1.2194419
v -1.683784 0.38135856 -1.2194419
v -1.6822681 0.60938877 -1.2194419
v -1.6362294 0.53955215 -1.2194419
v -1.4854977 0.69684255 -1.2194419
v -1.4904461 0.6166243 -1.2194419
v -1.2668638 0.634376 -1.2194419
v -1.3096174 0.56671566 -1.2194419
v -1.12319 0.40324825 -1.2194419
v -1.2062709 0.39687675 -1.2194419
v -1.195027 0.22521824 -1.2194419
v -1.2512472 0.24395794 -1.2194419
v -1.297455 0.04826206 -1.2194419
v -1.297455 0.04826206 1.2194419
v -1.6121057 0.21570534 1.2194419
v -1.6121057 0.21570534 -1.2194419
v -1.683784 0.38135856 1.2194419
v -1.683784 0.38135856 -1.2194419
v -1.6362294 0.53955215 1.2194419
v -1.6362294 0.53955215 -1.2194419
v -1.4904461 0.6166243 1.2194419
v -1.4904461 0.6166243 -1.2194419
v -1.3096174 0.56671566 1.2194419
v -1.3096174 0.56671566 -1.2194419
v -1.2062709 0.39687675 1.2194419
v -1.2062709 0.39687675 -1.2194419
v -1.2512472 0.24395794 1.2194419
v -1.2512472 0.24395794 -1.2194419
v -1.2512472 0.24395794 1.2194419
v -1.195027 0.22521824 1.2194419
v -1.195027 0.22521824 -1.2194419
v -1.2512472 0.24395794 -1.2194419
v 0.9109776 0.04826206 0.68312925
v 0.9109776 0.04826206 0.862356
v 0.72028476 0.04826206 0.862356
v 0.72028476 0.048263013 0.68312925
v -0.13828845 0.048263013 0.68312925
v -0.13828845 0.04826206 0.862356
v 0.72028476 0.048263013 0.10413534
v 0.9109776 0.04826206 0.10413533
v 0.9109776 0.04826206 -0.049060054
v 0.72028476 0.048263013 -0.049060054
v 0.72028476 0.048263013 -0.66178626
v 0.9109776 0.04826206 -0.66178626
v -0.7106707 0.048263013 -0.66178626
v -0.9013634 0.04826206 -0.66178626
v 0.9109776 0.04826206 -0.841013
v -0.9013634 0.04826206 -0.841013
v -0.7106707 0.048263013 -0.049060054
v -0.9013634 0.04826206 -0.049060054
v -0.9013634 0.04826206 0.10413533
v -0.7106707 0.048263013 0.10413534
v -0.7106707 0.048263013 0.68312925
v -0.9013634 0.04826206 0.68312925
v -0.9013634 0.04826206 0.862356
v -0.7106707 0.04826206 0.862356
v 0.72028476 0.048263013 -0.049060054
v 0.72028476 0.048263013 0.10413534
v 0.49522245 0.048263013 0.10413534
v 0.49522245 0.048263013 -0.049060054
v 0.34267452 0.048263013 -0.049060054
v 0.34267452 0.048263013 0.10413534
v 0.023375265 0.048263013 0.10413534
v 0.023375265 0.048263013 -0.049060054
v -0.13828845 0.048263013 0.10413535
v -0.13828848 0.048263013 -0.049060054
v 0.023375265 0.048263013 -0.049060054
v -0.13828848 0.048263013 -0.049060054
v -0.13828845 0.048263013 -0.39280307
v 0.02337526 0.048263013 -0.39280307
v -0.7106707 0.048263013 0.68312925
v -0.4244795 0.048263013 0.68312925
v -0.42447948 0.04826206 0.862356
v -0.7106707 0.04826206 0.862356
v -1.297455 0.04826206 1.2194419
v -1.297455 0.04826206 -1.2194419
v -0.90136325 0.04826206 -1.2194419
v -0.9013634 0.04826206 -0.841013
v 0.9109776 0.04826206 -1.2194419
v -0.9013634 0.04826206 -0.66178626
v 0.9109776 0.04826206 -0.841013
v 1.297455 0.04826206 -1.2194419
v -0.9013634 0.04826206 -0.049060054
v 1.297455 0.04826206 1.2194419
v -0.9013634 0.04826206 0.10413533
v -0.9013634 0.04826206 0.68312925
v -0.9013634 0.04826206 0.862356
v 0.9109776 0.04826206 -0.66178626
v -0.90136325 0.04826206 1.2194419
v 0.9109776 0.04826206 -0.049060054
v -0.7106707 0.04826206 0.862356
v 0.9109776 0.04826206 0.10413533
v 0.9109776 0.04826206 0.68312925
v 0.9109776 0.04826206 0.862356
v 0.9109776 0.04826206 1.2194419
v 0.72028476 0.04826206 0.862356
v -0.13828845 0.04826206 0.862356
v -0.42447948 0.04826206 0.862356
v -0.13828845 0.048263013 0.68312925
v -0.4244795 0.048263013 0.68312925
v 0.72028476 0.048263013 0.68312925
v -0.4244795 0.048263013 0.68312925
v -0.7106707 0.048263013 0.68312925
v 0.49522242 0.048263013 0.41414618
v 0.72028476 0.048263013 0.10413534
v 0.49522245 0.048263013 0.10413534
v 0.34267452 0.048263013 0.41414618
v -0.13828845 0.048263013 0.10413535
v 0.34267452 0.048263013 0.10413534
v 0.023375265 0.048263013 0.10413534
v -0.4244795 0.048263013 0.10413534
v -0.13828848 0.048263013 -0.049060054
v -0.4244795 0.048263013 -0.049060054
v -0.7106707 0.048263013 -0.049060054
v -0.13828845 0.048263013 -0.39280307
v -0.7106707 0.048263013 -0.66178626
v 0.72028476 0.048263013 -0.66178626
v 0.02337526 0.048263013 -0.39280307
v 0.72028476 0.048263013 -0.049060054
v 0.023375265 0.048263013 -0.049060054
v 0.34267452 0.048263013 -0.049060054
v 0.49522245 0.048263013 -0.049060054
v 0.34267452 0.048263013 0.10413534
v 0.49522245 0.048263013 0.10413534
v 0.49522242 0.048263013 0.41414618
v 0.34267452 0.048263013 0.41414618
v -0.7106707 0.048263013 0.10413534
v -0.7106707 0.048263013 -0.049060054
v -0.4244795 0.048263013 -0.049060054
v -0.4244795 0.048263013 0.10413534
vt 0.5930487 0.64964676
vt 0.59304875 0.64964676
vt 0.5930488 0.6496468
vt 0.59527534 0.6510824
vt 0.59527534 0.6510824
vt 0.59527534 0.6510824
vt 0.59527534 0.6510824
vt 0.59527534 0.6510824
vt 0.59527534 0.6510824
vt 0.59527534 0.6510824
vt 0.59527534 0.6510824
vt 0.59527534 0.6510824
vt 0.59527534 0.6510824
vt 0.59527534 0.6510824
vt 0.59527534 0.6510824
vt 0.59527534 0.6510824
vt 0.59527534 0.6510824
vt 0.59527534 0.6510824
vt 0.59527534 0.6510824
vt 0.7254918 0.663484
vt 0.7254918 0.663484
vt 0.7254918 0.663484
vt 0.7254918 0.663484
vt 0.1630415 0.5903537
vt 0.1630415 0.5903537
vt 0.1630415 0.5903537
vt 0.1630415 0.5903537
vt 0.1630415 0.5903537
vt 0.1630415 0.5903537
vt 0.1630415 0.5903537
vt 0.1630415 0.5903537
vt 0.1630415 0.5903537
vt 0.1630415 0.5903537
vt 0.1630415 0.5903537
vt 0.1630415 0.5903537
vt 0.1630415 0.5903537
vt 0.1630415 0.5903537
vt 0.1630415 0.5903537
vt 0.1630415 0.5903537
vt 0.1630415 0.5903537
vt 0.1630415 0.5903537
vt 0.1630415 0.5903537
vt 0.1630415 0.5903537
vt 0.1630415 0.5903537
vt 0.1630415 0.5903537
vt 0.1630415 0.5903537
vt 0.1630415 0.5903537
vt 0.1630415 0.5903537
vt 0.1630415 0.5903537
vt 0.1630415 0.5903537
vt 0.1630415 0.5903537
vt 0.1630415 0.5903537
vt 0.1630415 0.5903537
vt 0.1630415 0.5903537
vt 0.1630415 0.5903537
vt 0.7254918 0.663484
vt 0.7254918 0.663484
vt 0.7254918 0.663484
vt 0.7254918 0.663484
vt 0.7254918 0.663484
vt 0.7254918 0.663484
vt 0.7254918 0.663484
vt 0.7254918 0.663484
vt 0.7254918 0.663484
vt 0.7254918 0.663484
vt 0.7254918 0.663484
vt 0.7254918 0.663484
vt 0.7254918 0.663484
vt 0.7254918 0.663484
vt 0.7254918 0.663484
vt 0.7254918 0.663484
vt 0.7254918 0.663484
vt 0.7254918 0.663484
vt 0.72549176 0.663484
vt 0.7254918 0.663484
vt 0.7254918 0.663484
vt 0.7254918 0.663484
vt 0.7254918 0.663484
vt 0.7254918 0.663484
vt 0.7254918 0.663484
vt 0.7254918 0.663484
vt 0.7254918 0.663484
vt 0.7254918 0.663484
vt 0.7254918 0.663484
vt 0.7254918 0.663484
vt 0.7254918 0.663484
vt 0.7254918 0.663484
vt 0.7254918 0.663484
vt 0.7254918 0.663484
vt 0.7254918 0.663484
vt 0.7254918 0.663484
vt 0.7254918 0.663484
vt 0.7254918 0.663484
vt 0.7254918 0.663484
vt 0.7254918 0.663484
vt 0.7254918 0.663484
vt 0.7254918 0.663484
vt 0.7254918 0.663484
vt 0.7254918 0.663484
vt 0.7254918 0.663484
vt 0.7254918 0.663484
vt 0.7254918 0.663484
vt 0.7254918 0.663484
vt 0.7254918 0.663484
vt 0.7254918 0.663484
vt 0.7254918 0.663484
vt 0.72549176 0.663484
vt 0.7254918 0.663484
vt 0.7254918 0.663484
vt 0.7254918 0.663484
vt 0.7254918 0.663484
vt 0.7254918 0.663484
vt 0.7254918 0.663484
vt 0.7254918 0.663484
vt 0.7254918 0.663484
vt 0.7254918 0.663484
vt 0.7254918 0.663484
vt 0.7254918 0.663484
vt 0.7254918 0.663484
vt 0.7254918 0.663484
vt 0.7254918 0.663484
vt 0.7254918 0.663484
vt 0.7254918 0.663484
vt 0.59527534 0.6510824
vt 0.59527534 0.6510824
vt 0.59527534 0.6510824
vt 0.59527534 0.6510824
vt 0.59527534 0.6510824
vt 0.59527534 0.6510824
vt 0.59527534 0.6510824
vt 0.59527534 0.6510824
vt 0.59527534 0.6510824
vt 0.59527534 0.6510824
vt 0.59527534 0.6510824
vt 0.59527534 0.6510824
vt 0.59527534 0.6510824
vt 0.59527534 0.6510824
vt 0.59527534 0.6510824
vt 0.59527534 0.6510824
vt 0.7254918 0.663484
vt 0.7254918 0.663484
vt 0.7254918 0.663484
vt 0.7254918 0.663484
vt 0.6078134 0.03199023
vt 0.6078134 0.03199023
vt 0.6078134 0.03199023
vt 0.6078134 0.03199023
vt 0.6078134 0.03199023
vt 0.6078134 0.03199023
vt 0.6078135 0.03199023
vt 0.6078135 0.03199023
vt 0.6078135 0.03199023
vt 0.6078135 0.03199023
vt 0.6078134 0.03199023
vt 0.6078134 0.03199023
vt 0.6078135 0.03199023
vt 0.6078135 0.03199023
vt 0.6078134 0.03199023
vt 0.6078135 0.03199023
vt 0.6078135 0.03199023
vt 0.6078135 0.03199023
vt 0.6078135 0.03199023
vt 0.6078135 0.03199023
vt 0.6078134 0.03199023
vt 0.6078134 0.03199023
vt 0.6078134 0.03199023
vt 0.6078134 0.03199023
vt 0.59304875 0.049215734
vt 0.59304875 0.049215734
vt 0.59304875 0.049215734
vt 0.59304875 0.049215734
vt 0.59304875 0.049215734
vt 0.59304875 0.049215734
vt 0.59304875 0.049215734
vt 0.59304875 0.049215734
vt 0.59304875 0.049215734
vt 0.59304875 0.049215734
vt 0.5881272 0.03199023
vt 0.5881272 0.03199023
vt 0.5881272 0.03199023
vt 0.5881272 0.03199023
vt 0.58566636 0.03445095
vt 0.58566624 0.03445089
vt 0.5856662 0.03445095
vt 0.58566636 0.03445095
vt 0.59304875 0.64964676
vt 0.59304875 0.64964676
vt 0.59304875 0.64964676
vt 0.59304875 0.64964676
vt 0.5930487 0.64964676
vt 0.59304875 0.64964676
vt 0.5930487 0.64964676
vt 0.59304875 0.64964676
vt 0.59304875 0.64964676
vt 0.59304875 0.64964676
vt 0.59304875 0.64964676
vt 0.5930487 0.64964676
vt 0.5930487 0.64964676
vt 0.5930487 0.64964676
vt 0.5930487 0.64964676
vt 0.59304875 0.64964676
vt 0.5930487 0.64964676
vt 0.59304875 0.64964676
vt 0.5930487 0.64964676
vt 0.5930487 0.64964676
vt 0.59304875 0.64964676
vt 0.5930487 0.64964676
vt 0.5930487 0.64964676
vt 0.5930485 0.64964676
vt 0.5930487 0.64964676
vt 0.5930486 0.6496467
vt 0.5930487 0.64964676
vt 0.5930486 0.6496467
vt 0.5930487 0.64964676
vt 0.59304875 0.64964676
vt 0.59304875 0.64964676
vt 0.59304875 0.64964676
vt 0.59304875 0.64964676
vt 0.59304875 0.64964676
vt 0.59304875 0.6496467
vt 0.59304875 0.64964676
vt 0.5930488 0.6496468
vt 0.59304875 0.64964676
vt 0.59304875 0.64964676
vt 0.59304875 0.64964676
vt 0.59304875 0.64964676
vt 0.59304875 0.64964676
vt 0.5930487 0.64964676
vt 0.59304875 0.64964676
vt 0.59304875 0.64964676
vt 0.59304875 0.64964676
vt 0.59304875 0.64964676
vt 0.59304875 0.64964676
vt 0.5955095 0.03445089
vt 0.5955095 0.03445095
vt 0.5955095 0.034450933
vt 0.5955095 0.03445092
vt 0.6004311 0.036911786
vt 0.6004311 0.036911786
vt 0.6004311 0.036911786
vt 0.60043114 0.036911845
vn -1.8795621E-06 1 2.024494E-06
vn -2.509005E-06 1 0
vn -0 1 0
vn -0.15566327 0.62386847 -0.76587015
vn -0.4510835 0.41608924 0.7895527
vn -0.15566328 0.6238683 0.7658702
vn -0.4510835 0.41608924 -0.7895527
vn -0.608102 0.035418652 0.79306847
vn -0.608102 0.03541874 -0.79306847
vn -0.45810536 -0.37674078 0.80511224
vn -0.45810544 -0.37674075 -0.80511236
vn -0.06494023 -0.5960948 0.80028355
vn -0.06494023 -0.5960947 -0.8002836
vn 0.3613972 -0.47864184 0.80018365
vn 0.3613973 -0.47864172 -0.80018383
vn 0.58091205 -0.07612194 0.8103992
vn 0.580912 -0.07612205 -0.8103991
vn 0.72246814 -0.37750334 0.5792504
vn 0.9593653 0.282167 0
vn 0.72246814 -0.37750334 0.5792504
vn 0.22107702 -0.6632444 -0.7150048
vn -0.34143305 -0.73908544 -0.58066875
vn -0.34143314 -0.7390854 0.5806688
vn -0.34143314 -0.7390854 0.5806688
vn -0.34143305 -0.73908544 -0.58066875
vn -0.78325695 0.06777758 -0.6179925
vn -0.78325695 0.06777768 0.6179925
vn -0.46565315 0.6170526 -0.6343606
vn -0.46565318 0.6170525 0.6343606
vn 0.0538446 0.7683548 -0.63775516
vn 0.053844612 0.7683547 0.63775533
vn 0.56097865 0.53615844 -0.63074327
vn 0.56097865 0.5361584 0.63074327
vn 0.76750255 0.030377563 -0.64032567
vn 0.76750255 0.030377476 0.64032567
vn 0.6076368 -0.4791413 -0.6334043
vn 0.6076368 -0.4791413 0.6334043
vn 0.19815087 -0.73124236 -0.6527028
vn 0.19815087 -0.7312424 0.65270275
vn -0.19815087 -0.7312424 0.65270275
vn -0.19815087 -0.73124236 -0.6527028
vn -0.6076368 -0.4791413 0.6334043
vn -0.6076368 -0.4791413 -0.6334043
vn -0.76750255 0.030377563 0.64032567
vn -0.76750255 0.030377476 -0.64032567
vn -0.56097865 0.53615844 0.63074327
vn -0.56097865 0.5361584 -0.63074327
vn -0.0538446 0.7683548 0.63775516
vn -0.053844612 0.7683547 -0.63775533
vn 0.46565315 0.6170526 0.6343606
vn 0.46565318 0.6170525 -0.6343606
vn 0.78325695 0.06777768 0.6179925
vn 0.78325695 0.06777768 -0.6179925
vn 0.34143314 -0.7390854 0.5806688
vn 0.34143314 -0.7390854 -0.5806688
vn -0 -6.268066E-07 1
vn -0 -6.268066E-07 1
vn -0 -6.268066E-07 1
vn -0 -6.268066E-07 1
vn -0 0 1
vn -0 0 1
vn -0 -4.6253552E-07 1
vn -0 -4.6253552E-07 1
vn -0 0 1
vn -0 0 1
vn -0 -7.574981E-07 1
vn -0 -7.574981E-07 1
vn -0 0 1
vn -0 0 1
vn -0 0 1
vn -0 0 1
vn -0 0 1
vn -0 -1.0490277E-06 1
vn -0 -1.0490277E-06 1
vn -0 0 1
vn -0 0 1
vn -0 0 1
vn -0 -5.0499847E-07 1
vn -0 -5.0499847E-07 1
vn -0 0 1
vn -0 0 1
vn -0 0 1
vn -0 0 1
vn -0 0 1
vn -0 0 1
vn -0 -6.268067E-07 1
vn -0 -6.268067E-07 1
vn -0 -6.268067E-07 1
vn -0 -6.268067E-07 1
vn -0 -9.4021016E-07 -1
vn -0 -9.4021016E-07 -1
vn -0 -9.4021016E-07 -1
vn -0 -9.4021016E-07 -1
vn -0 0 -1
vn -0 0 -1
vn -0 0 -1
vn -0 0 -1
vn -0 0 -1
vn -0 0 -1
vn -0 -5.0499847E-07 -1
vn -0 -5.0499847E-07 -1
vn -0 0 -1
vn -0 0 -1
vn -0 0 -1
vn -0 0 -1
vn -0 0 -1
vn -0 -6.556423E-07 -1
vn -0 -6.556423E-07 -1
vn -0 0 -1
vn -0 0 -1
vn -0 0 -1
vn -0 -7.574981E-07 -1
vn -0 -7.574981E-07 -1
vn -0 0 -1
vn -0 0 -1
vn -0 -4.6253552E-07 -1
vn -0 -4.6253552E-07 -1
vn -0 0 -1
vn -0 0 -1
vn -0 -6.268067E-07 -1
vn -0 -6.268067E-07 -1
vn -0 -6.268067E-07 -1
vn -0 -6.268067E-07 -1
vn 0.15566327 0.62386847 -0.76587015
vn 0.15566328 0.6238683 0.7658702
vn 0.4510835 0.41608924 0.7895527
vn 0.4510835 0.41608924 -0.7895527
vn 0.608102 0.03541874 0.79306847
vn 0.608102 0.035418652 -0.79306847
vn 0.45810544 -0.37674075 0.80511236
vn 0.45810536 -0.37674078 -0.80511224
vn 0.06494023 -0.5960947 0.8002836
vn 0.06494023 -0.5960948 -0.80028355
vn -0.3613973 -0.47864172 0.80018383
vn -0.3613972 -0.47864184 -0.80018365
vn -0.58091205 -0.07612194 0.8103992
vn -0.58091205 -0.07612194 -0.8103992
vn -0.72246814 -0.37750334 0.5792504
vn -0.9593653 0.282167 0
vn -0.72246814 -0.37750334 0.5792504
vn 0.34143314 -0.7390854 0.5806688
vn 0.34143314 -0.7390854 -0.5806688
vn -0.22107704 -0.66324425 -0.71500486
vn 1.8814407E-06 1 6.651679E-07
vn 6.285224E-07 1 6.942321E-07
vn 6.263821E-07 1 2.0537013E-06
vn 1.8791629E-06 1 2.0244943E-06
vn -0 1 2.7187257E-06
vn -0 1 2.7187257E-06
vn 2.5086056E-06 1 0
vn 2.5109757E-06 1 0
vn 2.50971E-06 1 0
vn 2.507397E-06 1 0
vn 1.2512095E-06 1 -2.3514867E-06
vn 1.2533842E-06 1 -1.1902937E-06
vn -1.2516766E-06 1 -2.3513542E-06
vn -1.2533376E-06 1 -1.1902938E-06
vn -0 1 -1.1902938E-06
vn -0 1 -1.1902938E-06
vn -2.5077968E-06 1 0
vn -2.5096642E-06 1 0
vn -2.5109296E-06 1 0
vn -2.509005E-06 1 0
vn -1.8795621E-06 1 2.024494E-06
vn -1.881395E-06 1 6.651679E-07
vn -6.2887244E-07 1 6.942321E-07
vn -6.271773E-07 1 2.0537013E-06
vn 2.507397E-06 1 0
vn 2.5086056E-06 1 0
vn -0 1 0
vn -0 1 0
vn -0 1 0
vn -0 1 0
vn -0 1 0
vn -0 1 0
vn -0 1 0
vn -0 1 0
vn -0 1 0
vn -0 1 0
vn -0 1 0
vn -0 1 0
vn -1.8795621E-06 1 2.024494E-06
vn -0 1 2.7187255E-06
vn -0 1 2.7187257E-06
vn -6.271773E-07 1 2.0537013E-06
vn 0.15566328 0.6238683 0.7658702
vn 0.15566327 0.62386847 -0.76587015
vn -0 0.70710653 -0.707107
vn -0 1 -1.1902938E-06
vn -0 0.7071454 -0.7070681
vn -1.2533376E-06 1 -1.1902938E-06
vn -0 1 -1.1902938E-06
vn -0.15566327 0.62386847 -0.76587015
vn -2.5096642E-06 1 0
vn -0.15566328 0.6238683 0.7658702
vn -2.5109296E-06 1 0
vn -1.881395E-06 1 6.651679E-07
vn -6.2887244E-07 1 6.942321E-07
vn 1.2533842E-06 1 -1.1902937E-06
vn -0 0.70710635 0.7071072
vn 2.50971E-06 1 0
vn -6.271773E-07 1 2.0537013E-06
vn 2.5109757E-06 1 0
vn 1.8814407E-06 1 6.651679E-07
vn 6.285224E-07 1 6.942321E-07
vn -0 0.7071452 0.70706826
vn 6.263821E-07 1 2.0537013E-06
vn -0 1 2.7187257E-06
vn -0 1 2.7187257E-06
vn -0 1 2.7187257E-06
vn -0 1 2.7187255E-06
vn 1.8791629E-06 1 2.0244943E-06
vn -0 1 2.7187255E-06
vn -1.8795621E-06 1 2.024494E-06
vn -0 1 0
vn 2.5086056E-06 1 0
vn -0 1 0
vn -0 1 0
vn -0 1 0
vn -0 1 0
vn -0 1 0
vn -0 1 0
vn -0 1 0
vn -0 1 0
vn -2.5077968E-06 1 0
vn -0 1 0
vn -1.2516766E-06 1 -2.3513542E-06
vn 1.2512095E-06 1 -2.3514867E-06
vn -0 1 0
vn 2.507397E-06 1 0
vn -0 1 0
vn -0 1 0
vn -0 1 0
vn -0 1 0
vn -0 1 0
vn -0 1 0
vn -0 1 0
vn -2.509005E-06 1 0
vn -2.5077968E-06 1 0
vn -0 1 0
vn -0 1 0
g Map_Blue_0
f 3/3/3 2/2/2 1/1/1
f 6/6/6 5/5/5 4/4/4
f 5/5/5 7/7/7 4/4/4
f 5/5/5 8/8/8 7/7/7
f 8/8/8 9/9/9 7/7/7
f 8/8/8 10/10/10 9/9/9
f 10/10/10 11/11/11 9/9/9
f 10/10/10 12/12/12 11/11/11
f 12/12/12 13/13/13 11/11/11
f 12/12/12 14/14/14 13/13/13
f 14/14/14 15/15/15 13/13/13
f 14/14/14 16/16/16 15/15/15
f 16/16/16 17/17/17 15/15/15
f 16/16/16 18/18/18 17/17/17
f 18/18/18 19/19/19 17/17/17
f 22/22/22 21/21/21 20/20/20
f 23/23/23 22/22/22 20/20/20
f 26/26/26 25/25/25 24/24/24
f 27/27/27 26/26/26 24/24/24
f 28/28/28 26/26/26 27/27/27
f 29/29/29 28/28/28 27/27/27
f 30/30/30 28/28/28 29/29/29
f 31/31/31 30/30/30 29/29/29
f 32/32/32 30/30/30 31/31/31
f 33/33/33 32/32/32 31/31/31
f 34/34/34 32/32/32 33/33/33
f 35/35/35 34/34/34 33/33/33
f 36/36/36 34/34/34 35/35/35
f 37/37/37 36/36/36 35/35/35
f 38/38/38 36/36/36 37/37/37
f 39/39/39 38/38/38 37/37/37
f 38/38/38 39/39/39 40/40/40
f 41/41/41 38/38/38 40/40/40
f 41/41/41 40/40/40 42/42/42
f 43/43/43 41/41/41 42/42/42
f 43/43/43 42/42/42 44/44/44
f 45/45/45 43/43/43 44/44/44
f 45/45/45 44/44/44 46/46/46
f 47/47/47 45/45/45 46/46/46
f 47/47/47 46/46/46 48/48/48
f 49/49/49 47/47/47 48/48/48
f 49/49/49 48/48/48 50/50/50
f 51/51/51 49/49/49 50/50/50
f 51/51/51 50/50/50 52/52/52
f 53/53/53 51/51/51 52/52/52
f 53/53/53 52/52/52 54/54/54
f 55/55/55 53/53/53 54/54/54
f 58/58/58 57/57/57 56/56/56
f 59/59/59 58/58/58 56/56/56
f 59/59/59 56/56/56 60/60/60
f 61/61/61 59/59/59 60/60/60
f 61/61/61 60/60/60 62/62/62
f 63/63/63 61/61/61 62/62/62
f 63/63/63 62/62/62 64/64/64
f 65/65/65 63/63/63 64/64/64
f 65/65/65 64/64/64 66/66/66
f 67/67/67 65/65/65 66/66/66
f 67/67/67 66/66/66 68/68/68
f 69/69/69 67/67/67 68/68/68
f 69/69/69 68/68/68 70/70/70
f 71/71/71 69/69/69 70/70/70
f 72/72/72 71/71/71 70/70/70
f 70/70/70 73/73/73 72/72/72
f 73/73/73 74/74/74 72/72/72
f 74/74/74 75/75/75 72/72/72
f 76/76/76 72/72/72 75/75/75
f 77/77/77 76/76/76 75/75/75
f 78/78/78 76/76/76 77/77/77
f 79/79/79 78/78/78 77/77/77
f 80/80/80 78/78/78 79/79/79
f 81/81/81 80/80/80 79/79/79
f 82/82/82 80/80/80 81/81/81
f 83/83/83 82/82/82 81/81/81
f 84/84/84 82/82/82 83/83/83
f 85/85/85 84/84/84 83/83/83
f 86/86/86 84/84/84 85/85/85
f 87/87/87 86/86/86 85/85/85
f 88/88/88 86/86/86 87/87/87
f 89/89/89 88/88/88 87/87/87
f 92/92/92 91/91/91 90/90/90
f 93/93/93 92/92/92 90/90/90
f 92/92/92 93/93/93 94/94/94
f 93/93/93 95/95/95 94/94/94
f 94/94/94 95/95/95 96/96/96
f 95/95/95 97/97/97 96/96/96
f 96/96/96 97/97/97 98/98/98
f 97/97/97 99/99/99 98/98/98
f 98/98/98 99/99/99 100/100/100
f 99/99/99 101/101/101 100/100/100
f 100/100/100 101/101/101 102/102/102
f 101/101/101 103/103/103 102/102/102
f 102/102/102 103/103/103 104/104/104
f 103/103/103 105/105/105 104/104/104
f 104/104/104 105/105/105 106/106/106
f 106/106/106 107/107/107 104/104/104
f 106/106/106 108/108/108 107/107/107
f 106/106/106 109/109/109 108/108/108
f 106/106/106 110/110/110 109/109/109
f 110/110/110 111/111/111 109/109/109
f 110/110/110 112/112/112 111/111/111
f 112/112/112 113/113/113 111/111/111
f 112/112/112 114/114/114 113/113/113
f 114/114/114 115/115/115 113/113/113
f 114/114/114 116/116/116 115/115/115
f 116/116/116 117/117/117 115/115/115
f 116/116/116 118/118/118 117/117/117
f 118/118/118 119/119/119 117/117/117
f 118/118/118 120/120/120 119/119/119
f 120/120/120 121/121/121 119/119/119
f 121/121/121 120/120/120 122/122/122
f 123/123/123 121/121/121 122/122/122
f 126/126/126 125/125/125 124/124/124
f 127/127/127 126/126/126 124/124/124
f 128/128/128 126/126/126 127/127/127
f 129/129/129 128/128/128 127/127/127
f 130/130/130 128/128/128 129/129/129
f 131/131/131 130/130/130 129/129/129
f 132/132/132 130/130/130 131/131/131
f 133/133/133 132/132/132 131/131/131
f 134/134/134 132/132/132 133/133/133
f 135/135/135 134/134/134 133/133/133
f 136/136/136 134/134/134 135/135/135
f 137/137/137 136/136/136 135/135/135
f 138/138/138 136/136/136 137/137/137
f 139/139/139 138/138/138 137/137/137
f 142/142/142 141/141/141 140/140/140
f 143/143/143 142/142/142 140/140/140
f 146/146/146 145/145/145 144/144/144
f 147/147/147 146/146/146 144/144/144
f 146/146/146 147/147/147 148/148/148
f 149/149/149 146/146/146 148/148/148
f 147/147/147 144/144/144 150/150/150
f 144/144/144 151/151/151 150/150/150
f 150/150/150 151/151/151 152/152/152
f 153/153/153 150/150/150 152/152/152
f 153/153/153 152/152/152 154/154/154
f 152/152/152 155/155/155 154/154/154
f 156/156/156 154/154/154 155/155/155
f 157/157/157 156/156/156 155/155/155
f 157/157/157 155/155/155 158/158/158
f 158/158/158 159/159/159 157/157/157
f 160/160/160 156/156/156 157/157/157
f 161/161/161 160/160/160 157/157/157
f 161/161/161 162/162/162 160/160/160
f 162/162/162 163/163/163 160/160/160
f 164/164/164 163/163/163 162/162/162
f 165/165/165 164/164/164 162/162/162
f 165/165/165 166/166/166 164/164/164
f 166/166/166 167/167/167 164/164/164
f 170/170/170 169/169/169 168/168/168
f 171/171/171 170/170/170 168/168/168
f 170/170/170 171/171/171 172/172/172
f 173/173/173 170/170/170 172/172/172
f 174/174/174 173/173/173 172/172/172
f 175/175/175 174/174/174 172/172/172
f 176/176/176 174/174/174 175/175/175
f 177/177/177 176/176/176 175/175/175
f 180/180/180 179/179/179 178/178/178
f 181/181/181 180/180/180 178/178/178
f 184/184/184 183/183/183 182/182/182
f 185/185/185 184/184/184 182/182/182
f 188/188/188 187/187/187 186/186/186
f 186/186/186 189/189/189 188/188/188
f 190/190/190 188/188/188 189/189/189
f 186/186/186 191/191/191 189/189/189
f 192/192/192 190/190/190 189/189/189
f 193/193/193 190/190/190 192/192/192
f 186/186/186 194/194/194 191/191/191
f 192/192/192 195/195/195 193/193/193
f 186/186/186 196/196/196 194/194/194
f 186/186/186 197/197/197 196/196/196
f 186/186/186 198/198/198 197/197/197
f 192/192/192 199/199/199 195/195/195
f 186/186/186 200/200/200 198/198/198
f 199/199/199 201/201/201 195/195/195
f 202/202/202 198/198/198 200/200/200
f 201/201/201 203/203/203 195/195/195
f 203/203/203 204/204/204 195/195/195
f 204/204/204 205/205/205 195/195/195
f 205/205/205 206/206/206 195/195/195
f 200/200/200 206/206/206 205/205/205
f 200/200/200 205/205/205 207/207/207
f 200/200/200 207/207/207 208/208/208
f 200/200/200 209/209/209 202/202/202
f 200/200/200 208/208/208 209/209/209
f 209/209/209 208/208/208 210/210/210
f 210/210/210 211/211/211 209/209/209
f 211/211/211 210/210/210 212/212/212
f 214/214/214 213/213/213 212/212/212
f 215/215/215 214/214/214 212/212/212
f 215/215/215 212/212/212 216/216/216
f 216/216/216 217/217/217 215/215/215
f 214/214/214 215/215/215 218/218/218
f 214/214/214 218/218/218 219/219/219
f 219/219/219 218/218/218 220/220/220
f 220/220/220 221/221/221 219/219/219
f 214/214/214 219/219/219 222/222/222
f 222/222/222 219/219/219 223/223/223
f 224/224/224 222/222/222 223/223/223
f 225/225/225 224/224/224 223/223/223
f 225/225/225 223/223/223 226/226/226
f 227/227/227 225/225/225 226/226/226
f 226/226/226 228/228/228 227/227/227
f 228/228/228 226/226/226 229/229/229
f 229/229/229 230/230/230 228/228/228
f 229/229/229 231/231/231 230/230/230
f 231/231/231 232/232/232 230/230/230
f 232/232/232 233/233/233 230/230/230
f 236/236/236 235/235/235 234/234/234
f 237/237/237 236/236/236 234/234/234
f 240/240/240 239/239/239 238/238/238
f 241/241/241 240/240/240 238/238/238
