g Mart07
v 2.0537238 -3.844436E-10 -1.1767483
v 1.9382744 1.9503368E-08 -1.1767159
v 1.9382739 1.5838099 -1.1767159
v 2.0537233 1.5838099 -1.1767483
v -2.0542378 -3.844436E-10 2.4108143
v -2.0538254 -3.844436E-10 -2.4108162
v -2.0538254 4.0206885 -2.4108162
v -2.0538254 4.020688 2.4108143
v 2.053381 4.0206885 -2.4108143
v 2.0546846 4.020688 2.4108162
v -2.0538254 4.020688 2.4108143
v -2.0538254 4.0206885 -2.4108162
v -2.0538254 4.020688 2.4108143
v 2.0546846 4.020688 2.4108162
v 2.0546827 -3.844436E-10 2.4108162
v -2.0542378 -3.844436E-10 2.4108143
v 2.0826845 2.3170526 2.438816
v 2.0826855 2.3170526 -2.4388142
v 2.0826855 2.9725375 -2.4388142
v 2.0826845 2.9725375 2.438816
v 2.0826845 3.6280215 2.438816
v 2.0826845 2.9725375 2.438816
v 2.0826855 2.9725375 -2.4388142
v 2.0826855 3.6280215 -2.4388142
v 2.0826855 3.6280215 -2.4388142
v 2.0826855 2.9725375 -2.4388142
v -2.0818233 2.9725375 -2.438816
v -2.0818233 3.6280215 -2.438816
v 2.0826845 2.3170526 2.438816
v 2.0826845 2.9725375 2.438816
v -2.0818248 2.9725375 2.4388142
v -2.0818248 2.3170526 2.4388142
v 2.0826845 2.9725375 2.438816
v 2.0826845 3.6280215 2.438816
v -2.0818248 3.6280215 2.4388142
v -2.0818248 2.9725375 2.4388142
v 2.0826855 2.9725375 -2.4388142
v 2.0826855 2.3170526 -2.4388142
v -2.0818233 2.3170526 -2.438816
v -2.0818233 2.9725375 -2.438816
v -2.0818248 2.3170526 2.4388142
v -2.0818248 2.9725375 2.4388142
v -2.0818233 2.9725375 -2.438816
v -2.0818233 2.3170526 -2.438816
v -2.0818248 2.9725375 2.4388142
v -2.0818248 3.6280215 2.4388142
v -2.0818233 3.6280215 -2.438816
v -2.0818233 2.9725375 -2.438816
v 2.053381 4.0206885 -2.4108143
v -2.0538254 4.0206885 -2.4108162
v -2.0538254 -3.844436E-10 -2.4108162
v 2.053381 -3.844436E-10 -2.4108143
v 2.0537233 1.5838099 -1.1767483
v 2.053381 -3.844436E-10 -2.4108143
v 2.0537238 -3.844436E-10 -1.1767483
v 2.053381 4.0206885 -2.4108143
v 2.0543413 1.5838096 1.0632534
v 2.0546846 4.020688 2.4108162
v 2.05434 -3.844436E-10 1.0632534
v 2.0546827 -3.844436E-10 2.4108162
v 1.9388924 1.5838096 1.063282
v 1.9382739 1.5838099 -1.1767159
v 1.9382744 1.9503368E-08 -1.1767159
v 1.9388909 1.9503368E-08 1.063282
v 2.0537233 1.5838099 -1.1767483
v 1.9382739 1.5838099 -1.1767159
v 1.9388924 1.5838096 1.063282
v 2.0543413 1.5838096 1.0632534
v 2.0543413 1.5838096 1.0632534
v 1.9388924 1.5838096 1.063282
v 1.9388909 1.9503368E-08 1.063282
v 2.05434 -3.844436E-10 1.0632534
v 2.1847696 2.2849162 2.558382
v 2.1847696 2.9725375 2.558382
v 2.1847715 2.9725375 -2.558382
v 2.1847715 2.2849162 -2.558382
v 2.1847696 3.6601572 2.558382
v 2.1847715 3.6601572 -2.558382
v 2.1847715 2.9725375 -2.558382
v 2.1847696 2.9725375 2.558382
v 2.1847715 3.6601572 -2.558382
v -2.1839094 3.6601572 -2.558382
v -2.1839094 2.9725375 -2.558382
v 2.1847715 2.9725375 -2.558382
v 2.1847696 2.2849162 2.558382
v -2.1839104 2.2849162 2.558382
v -2.1839104 2.9725375 2.558382
v 2.1847696 2.9725375 2.558382
v 2.1847696 2.9725375 2.558382
v -2.1839104 2.9725375 2.558382
v -2.1839104 3.6601572 2.558382
v 2.1847696 3.6601572 2.558382
v 2.1847715 2.9725375 -2.558382
v -2.1839094 2.9725375 -2.558382
v -2.1839094 2.2849162 -2.558382
v 2.1847715 2.2849162 -2.558382
v -2.1839104 2.2849162 2.558382
v -2.1839094 2.2849162 -2.558382
v -2.1839094 2.9725375 -2.558382
v -2.1839104 2.9725375 2.558382
v -2.1839104 2.9725375 2.558382
v -2.1839094 2.9725375 -2.558382
v -2.1839094 3.6601572 -2.558382
v -2.1839104 3.6601572 2.558382
v -2.0818248 3.6280215 2.4388142
v -2.1839104 3.6601572 2.558382
v -2.1839094 3.6601572 -2.558382
v -2.0818233 3.6280215 -2.438816
v -2.0818233 2.3170526 -2.438816
v -2.1839094 2.2849162 -2.558382
v -2.1839104 2.2849162 2.558382
v -2.0818248 2.3170526 2.4388142
v 2.0826845 3.6280215 2.438816
v 2.1847696 3.6601572 2.558382
v -2.1839104 3.6601572 2.558382
v -2.0818248 3.6280215 2.4388142
v 2.0826855 3.6280215 -2.4388142
v 2.1847715 3.6601572 -2.558382
v 2.1847696 3.6601572 2.558382
v 2.0826845 3.6280215 2.438816
v -2.0818248 2.3170526 2.4388142
v -2.1839104 2.2849162 2.558382
v 2.1847696 2.2849162 2.558382
v 2.0826845 2.3170526 2.438816
v 2.0826845 2.3170526 2.438816
v 2.1847696 2.2849162 2.558382
v 2.1847715 2.2849162 -2.558382
v 2.0826855 2.3170526 -2.4388142
v -2.0818233 3.6280215 -2.438816
v -2.1839094 3.6601572 -2.558382
v 2.1847715 3.6601572 -2.558382
v 2.0826855 3.6280215 -2.4388142
v 2.0826855 2.3170526 -2.4388142
v 2.1847715 2.2849162 -2.558382
v -2.1839094 2.2849162 -2.558382
v -2.0818233 2.3170526 -2.438816
v 2.053381 1.7220519 0.37561414
v 2.6385746 1.4094805 0.37561417
v 2.6385756 1.4094805 0.8079605
v 2.053382 1.7220519 0.8079624
v 2.053382 1.7220519 0.8079624
v 2.6385756 1.4094805 0.8079605
v 2.638576 1.4094805 1.2403088
v 2.0533829 1.7220519 1.2403107
v 2.6385756 0.9653717 0.8350811
v 2.6385756 0.8931438 0.9252758
v 2.638576 0.8931438 1.1229916
v 2.638576 0.9653717 1.2131863
v 2.6385756 1.1110641 0.8079605
v 2.638576 1.1110641 1.2403088
v 2.6385756 1.4094805 0.8079605
v 2.638576 1.4094805 1.2403088
v 2.6385746 0.9653717 0.40273476
v 2.6385756 0.8931438 0.49292755
v 2.6385756 0.8931438 0.6906452
v 2.6385756 0.9653717 0.780838
v 2.6385746 1.1110641 0.37561417
v 2.6385756 1.1110641 0.8079605
v 2.6385746 1.4094805 0.37561417
v 2.6385756 1.4094805 0.8079605
v 2.053381 1.7220519 -1.3537769
v 2.6385746 1.4094805 -1.3537807
v 2.6385756 1.4094805 -0.9214306
v 2.053382 1.7220519 -0.9214306
v 2.053382 1.7220519 -0.9214306
v 2.6385756 1.4094805 -0.9214306
v 2.6385756 1.4094805 -0.48908424
v 2.0533824 1.7220519 -0.48908237
v 2.0533824 1.7220519 -0.48908237
v 2.6385756 1.4094805 -0.48908424
v 2.6385765 1.4094805 -0.056735992
v 2.0533829 1.7220519 -0.056732196
v 2.0533829 1.7220519 -0.056732196
v 2.6385765 1.4094805 -0.056735992
v 2.6385746 1.4094805 0.37561417
v 2.053381 1.7220519 0.37561414
v 2.6385756 0.9653717 -0.46196175
v 2.638576 0.8931438 -0.37176895
v 2.6385765 0.8931438 -0.17405128
v 2.6385765 0.9653717 -0.08385849
v 2.6385756 1.1110641 -0.48908424
v 2.6385765 1.1110641 -0.056735992
v 2.6385756 1.4094805 -0.48908424
v 2.6385765 1.4094805 -0.056735992
v 2.6385756 0.9653717 -0.8943081
v 2.6385756 0.8931438 -0.8041172
v 2.6385756 0.8931438 -0.6063976
v 2.6385756 0.9653717 -0.51620674
v 2.6385756 1.1110641 -0.9214306
v 2.6385756 1.1110641 -0.48908424
v 2.6385756 1.4094805 -0.9214306
v 2.6385756 1.4094805 -0.48908424
v 2.6385765 0.9653717 -0.029613495
v 2.6385765 0.8931438 0.060581207
v 2.6385765 0.8931438 0.25829697
v 2.6385765 0.9653717 0.34848785
v 2.6385765 1.1110641 -0.056735992
v 2.6385746 1.1110641 0.37561417
v 2.6385765 1.4094805 -0.056735992
v 2.6385746 1.4094805 0.37561417
v 2.6385746 0.9653717 -1.3266582
v 2.6385746 0.8931438 -1.2364635
v 2.6385756 0.8931438 -1.0387478
v 2.6385756 0.9653717 -0.9485531
v 2.6385746 1.1110641 -1.3537807
v 2.6385756 1.1110641 -0.9214306
v 2.6385746 1.4094805 -1.3537807
v 2.6385756 1.4094805 -0.9214306
v 2.6385746 1.4094805 -1.3537807
v 2.053381 1.7220519 -1.3537769
v 2.0533814 1.1110641 -1.3537807
v 2.6385746 1.1110641 -1.3537807
v 2.638576 1.1110641 1.2403088
v 2.0533829 1.1110641 1.2403088
v 2.0533829 1.7220519 1.2403107
v 2.638576 1.4094805 1.2403088
v 2.19478 1.9178627 1.0821358
v 2.1947799 4.0821376 1.0821357
v 2.1947808 4.0821376 -1.0821397
v 2.194781 1.9178624 -1.0821396
vt 0.031864017 0.9667926
vt 0.031864017 0.9667926
vt 0.031864017 0.9667926
vt 0.031864017 0.9667926
vt 0.031864017 0.9667926
vt 0.031864017 0.9667926
vt 0.031864017 0.9667926
vt 0.031864017 0.9667926
vt 0.031864017 0.9667926
vt 0.031864017 0.9667926
vt 0.031864017 0.9667926
vt 0.031864017 0.9667926
vt 0.031864017 0.9667926
vt 0.031864017 0.9667926
vt 0.031864017 0.9667926
vt 0.031864017 0.9667926
vt 0.21834314 0.65604085
vt 0.21834314 0.65604085
vt 0.21834314 0.65604085
vt 0.21834314 0.65604085
vt 0.21887505 0.46674383
vt 0.21887505 0.46674383
vt 0.21887505 0.46674383
vt 0.21887505 0.46674383
vt 0.21887505 0.46674383
vt 0.21887505 0.46674383
vt 0.21887505 0.46674383
vt 0.21887505 0.46674383
vt 0.21834314 0.65604085
vt 0.21834314 0.65604085
vt 0.21834314 0.65604085
vt 0.21834314 0.65604085
vt 0.21887505 0.46674383
vt 0.21887505 0.46674383
vt 0.21887505 0.46674383
vt 0.21887505 0.46674383
vt 0.21834314 0.65604085
vt 0.21834314 0.65604085
vt 0.21834314 0.65604085
vt 0.21834314 0.65604085
vt 0.21834314 0.65604085
vt 0.21834314 0.65604085
vt 0.21834314 0.65604085
vt 0.21834314 0.65604085
vt 0.21887505 0.46674383
vt 0.21887505 0.46674383
vt 0.21887505 0.46674383
vt 0.21887505 0.46674383
vt 0.031864017 0.9667926
vt 0.031864017 0.9667926
vt 0.031864017 0.9667926
vt 0.031864017 0.9667926
vt 0.031864017 0.9667926
vt 0.031864017 0.9667926
vt 0.031864017 0.9667926
vt 0.031864017 0.9667926
vt 0.031864017 0.9667926
vt 0.031864017 0.9667926
vt 0.031864017 0.9667926
vt 0.031864017 0.9667926
vt 0.031345412 0.5977256
vt 0.031345412 0.5977256
vt 0.031345412 0.5977256
vt 0.031345412 0.5977256
vt 0.031864017 0.9667926
vt 0.031864017 0.9667926
vt 0.031864017 0.9667926
vt 0.031864017 0.9667926
vt 0.031864017 0.9667926
vt 0.031864017 0.9667926
vt 0.031864017 0.9667926
vt 0.031864017 0.9667926
vt 0.21834314 0.65604085
vt 0.21834314 0.65604085
vt 0.21834314 0.65604085
vt 0.21834314 0.65604085
vt 0.21887505 0.46674383
vt 0.21887505 0.46674383
vt 0.21887505 0.46674383
vt 0.21887505 0.46674383
vt 0.21887505 0.46674383
vt 0.21887505 0.46674383
vt 0.21887505 0.46674383
vt 0.21887505 0.46674383
vt 0.21834314 0.65604085
vt 0.21834314 0.65604085
vt 0.21834314 0.65604085
vt 0.21834314 0.65604085
vt 0.21887505 0.46674383
vt 0.21887505 0.46674383
vt 0.21887505 0.46674383
vt 0.21887505 0.46674383
vt 0.21834314 0.65604085
vt 0.21834314 0.65604085
vt 0.21834314 0.65604085
vt 0.21834314 0.65604085
vt 0.21834314 0.65604085
vt 0.21834314 0.65604085
vt 0.21834314 0.65604085
vt 0.21834314 0.65604085
vt 0.21887505 0.46674383
vt 0.21887505 0.46674383
vt 0.21887505 0.46674383
vt 0.21887505 0.46674383
vt 0.21887505 0.46674383
vt 0.21887505 0.46674383
vt 0.21887505 0.46674383
vt 0.21887505 0.46674383
vt 0.21834314 0.65604085
vt 0.21834314 0.65604085
vt 0.21834314 0.65604085
vt 0.21834314 0.65604085
vt 0.21887505 0.46674383
vt 0.21887505 0.46674383
vt 0.21887505 0.46674383
vt 0.21887505 0.46674383
vt 0.21887505 0.46674383
vt 0.21887505 0.46674383
vt 0.21887505 0.46674383
vt 0.21887505 0.46674383
vt 0.21834314 0.65604085
vt 0.21834314 0.65604085
vt 0.21834314 0.65604085
vt 0.21834314 0.65604085
vt 0.21834314 0.65604085
vt 0.21834314 0.65604085
vt 0.21834314 0.65604085
vt 0.21834314 0.65604085
vt 0.21887505 0.46674383
vt 0.21887505 0.46674383
vt 0.21887505 0.46674383
vt 0.21887505 0.46674383
vt 0.21834314 0.65604085
vt 0.21834314 0.65604085
vt 0.21834314 0.65604085
vt 0.21834314 0.65604085
vt 0.592099 0.029956385
vt 0.592099 0.029956385
vt 0.592099 0.029956385
vt 0.592099 0.029956385
vt 0.2837653 0.84750736
vt 0.2837653 0.84750736
vt 0.2837653 0.84750736
vt 0.2837653 0.84750736
vt 0.2837653 0.84750736
vt 0.2837653 0.84750736
vt 0.2837653 0.84750736
vt 0.2837653 0.84750736
vt 0.2837653 0.84750736
vt 0.2837653 0.84750736
vt 0.2837653 0.84750736
vt 0.2837653 0.84750736
vt 0.592099 0.029956385
vt 0.592099 0.029956385
vt 0.592099 0.029956385
vt 0.592099 0.029956385
vt 0.592099 0.029956385
vt 0.592099 0.029956385
vt 0.592099 0.029956385
vt 0.592099 0.029956385
vt 0.6577664 0.46956274
vt 0.6577664 0.46956274
vt 0.6577664 0.46956274
vt 0.6577664 0.46956274
vt 0.592099 0.029956385
vt 0.592099 0.029956385
vt 0.592099 0.029956385
vt 0.592099 0.029956385
vt 0.2837653 0.84750736
vt 0.2837653 0.84750736
vt 0.2837653 0.84750736
vt 0.2837653 0.84750736
vt 0.6577664 0.46956274
vt 0.6577664 0.46956274
vt 0.6577664 0.46956274
vt 0.6577664 0.46956274
vt 0.2837653 0.84750736
vt 0.2837653 0.84750736
vt 0.2837653 0.84750736
vt 0.2837653 0.84750736
vt 0.2837653 0.84750736
vt 0.2837653 0.84750736
vt 0.2837653 0.84750736
vt 0.2837653 0.84750736
vt 0.592099 0.029956385
vt 0.592099 0.029956385
vt 0.592099 0.029956385
vt 0.592099 0.029956385
vt 0.592099 0.029956385
vt 0.592099 0.029956385
vt 0.592099 0.029956385
vt 0.592099 0.029956385
vt 0.6577664 0.46956274
vt 0.6577664 0.46956274
vt 0.6577664 0.46956274
vt 0.6577664 0.46956274
vt 0.6577664 0.46956274
vt 0.6577664 0.46956274
vt 0.6577664 0.46956274
vt 0.6577664 0.46956274
vt 0.6577664 0.46956274
vt 0.6577664 0.46956274
vt 0.6577664 0.46956274
vt 0.6577664 0.46956274
vt 0.6577664 0.46956274
vt 0.6577664 0.46956274
vt 0.6577664 0.46956274
vt 0.6577664 0.46956274
vt 0.6577664 0.46956274
vt 0.6577664 0.46956274
vt 0.6577664 0.46956274
vt 0.6577664 0.46956274
vt 0.2837653 0.8475074
vt 0.2837653 0.8475074
vt 0.2837653 0.8475074
vt 0.2837653 0.8475074
vt 0.625 0.5
vt 0.625 0.625
vt 0.75 0.625
vt 0.75 0.5
vn 0.000280858 0 1
vn 0.000280858 0 1
vn 0.000280858 0 1
vn 0.000280858 0 1
vn -1 5.1292725E-05 -4.2748958E-05
vn -1 5.1292725E-05 -4.2748958E-05
vn -1 5.1292725E-05 -4.2748958E-05
vn -1 5.1292725E-05 -4.2748958E-05
vn -0 1 0
vn -0 1 0
vn -0 1 0
vn -0 1 0
vn -0 0 1
vn -0 0 1
vn -0 0 1
vn -0 0 1
vn -1 0 0
vn -1 0 0
vn -1 0 0
vn -1 0 0
vn -1 0 0
vn -1 0 0
vn -1 0 0
vn -1 0 0
vn -0 0 1
vn -0 0 1
vn -0 0 1
vn -0 0 1
vn -0 0 -1
vn -0 0 -1
vn -0 0 -1
vn -0 0 -1
vn -0 0 -1
vn -0 0 -1
vn -0 0 -1
vn -0 0 -1
vn -0 0 1
vn -0 0 1
vn -0 0 1
vn -0 0 1
vn 1 0 0
vn 1 0 0
vn 1 0 0
vn 1 0 0
vn 1 0 0
vn 1 0 0
vn 1 0 0
vn 1 0 0
vn -0 0 -1
vn -0 0 -1
vn -0 0 -1
vn -0 0 -1
vn 1 0 -0.0002777055
vn 1 0 -0.0002777055
vn 1 0 -0.0002777055
vn 1 0 -0.0002777055
vn 1 0 -0.00025406355
vn 1 0 -0.00025406355
vn 1 0 -0.00025406355
vn 1 0 -0.00025406355
vn 1 0 -0.00027573443
vn 1 0 -0.00027573443
vn 1 0 -0.00027573443
vn 1 0 -0.00027573443
vn -0 -1 0
vn -0 -1 0
vn -0 -1 0
vn -0 -1 0
vn -0.00024781746 0 -1
vn -0.00024781746 0 -1
vn -0.00024781746 0 -1
vn -0.00024781746 0 -1
vn 1 0 0
vn 1 0 0
vn 1 0 0
vn 1 0 0
vn 1 0 0
vn 1 0 0
vn 1 0 0
vn 1 0 0
vn -0 0 -1
vn -0 0 -1
vn -0 0 -1
vn -0 0 -1
vn -0 0 1
vn -0 0 1
vn -0 0 1
vn -0 0 1
vn -0 0 1
vn -0 0 1
vn -0 0 1
vn -0 0 1
vn -0 0 -1
vn -0 0 -1
vn -0 0 -1
vn -0 0 -1
vn -1 0 0
vn -1 0 0
vn -1 0 0
vn -1 0 0
vn -1 0 0
vn -1 0 0
vn -1 0 0
vn -1 0 0
vn 0.30026332 0.9538564 0
vn 0.30026332 0.9538564 0
vn 0.30026332 0.9538564 0
vn 0.30026332 0.9538564 0
vn 0.3002714 -0.9538538 0
vn 0.3002714 -0.9538538 0
vn 0.3002714 -0.9538538 0
vn 0.3002714 -0.9538538 0
vn -0 0.96572787 -0.25955662
vn -0 0.96572787 -0.25955662
vn -0 0.96572787 -0.25955662
vn -0 0.96572787 -0.25955662
vn -0.3002639 0.95385617 0
vn -0.3002639 0.95385617 0
vn -0.3002639 0.95385617 0
vn -0.3002639 0.95385617 0
vn -0 -0.96572644 -0.259562
vn -0 -0.96572644 -0.259562
vn -0 -0.96572644 -0.259562
vn -0 -0.96572644 -0.259562
vn -0.30027202 -0.95385355 0
vn -0.30027202 -0.95385355 0
vn -0.30027202 -0.95385355 0
vn -0.30027202 -0.95385355 0
vn -0 0.96572787 0.25955662
vn -0 0.96572787 0.25955662
vn -0 0.96572787 0.25955662
vn -0 0.96572787 0.25955662
vn -0 -0.96572644 0.259562
vn -0 -0.96572644 0.259562
vn -0 -0.96572644 0.259562
vn -0 -0.96572644 0.259562
vn 0.47113743 0.88205975 0
vn 0.47113743 0.88205975 0
vn 0.47113743 0.88205975 0
vn 0.47113743 0.88205975 0
vn 0.47113758 0.8820597 0
vn 0.47113758 0.8820597 0
vn 0.47113758 0.8820597 0
vn 0.47113758 0.8820597 0
vn 1 0 0
vn 1 0 0
vn 1 0 0
vn 1 0 0
vn 1 0 0
vn 1 0 0
vn 1 0 0
vn 1 0 0
vn 1 0 0
vn 1 0 0
vn 1 0 0
vn 1 0 0
vn 1 0 0
vn 1 0 0
vn 1 0 0
vn 1 0 0
vn 0.4711374 0.8820599 0
vn 0.4711374 0.8820599 0
vn 0.4711374 0.8820599 0
vn 0.4711374 0.8820599 0
vn 0.47113782 0.8820597 0
vn 0.47113782 0.8820597 0
vn 0.47113782 0.8820597 0
vn 0.47113782 0.8820597 0
vn 0.4711375 0.88205975 0
vn 0.4711375 0.88205975 0
vn 0.4711375 0.88205975 0
vn 0.4711375 0.88205975 0
vn 0.4711375 0.88205975 0
vn 0.4711375 0.88205975 0
vn 0.4711375 0.88205975 0
vn 0.4711375 0.88205975 0
vn 1 0 0
vn 1 0 0
vn 1 0 0
vn 1 0 0
vn 1 0 0
vn 1 0 0
vn 1 0 0
vn 1 0 0
vn 1 0 0
vn 1 0 0
vn 1 0 0
vn 1 0 0
vn 1 0 0
vn 1 0 0
vn 1 0 0
vn 1 0 0
vn 1 0 0
vn 1 0 0
vn 1 0 0
vn 1 0 0
vn 1 0 0
vn 1 0 0
vn 1 0 0
vn 1 0 0
vn 1 0 0
vn 1 0 0
vn 1 0 0
vn 1 0 0
vn 1 0 0
vn 1 0 0
vn 1 0 0
vn 1 0 0
vn -0 0 -1
vn -0 0 -1
vn -0 0 -1
vn -0 0 -1
vn -0 0 1
vn -0 0 1
vn -0 0 1
vn -0 0 1
vn 1 0 0
vn 1 0 0
vn 1 0 0
vn 1 0 0
g Mart07_0
f 3/3/3 2/2/2 1/1/1
f 4/4/4 3/3/3 1/1/1
f 7/7/7 6/6/6 5/5/5
f 8/8/8 7/7/7 5/5/5
f 11/11/11 10/10/10 9/9/9
f 12/12/12 11/11/11 9/9/9
f 15/15/15 14/14/14 13/13/13
f 16/16/16 15/15/15 13/13/13
f 19/19/19 18/18/18 17/17/17
f 20/20/20 19/19/19 17/17/17
f 23/23/23 22/22/22 21/21/21
f 24/24/24 23/23/23 21/21/21
f 27/27/27 26/26/26 25/25/25
f 28/28/28 27/27/27 25/25/25
f 31/31/31 30/30/30 29/29/29
f 32/32/32 31/31/31 29/29/29
f 35/35/35 34/34/34 33/33/33
f 36/36/36 35/35/35 33/33/33
f 39/39/39 38/38/38 37/37/37
f 40/40/40 39/39/39 37/37/37
f 43/43/43 42/42/42 41/41/41
f 44/44/44 43/43/43 41/41/41
f 47/47/47 46/46/46 45/45/45
f 48/48/48 47/47/47 45/45/45
f 51/51/51 50/50/50 49/49/49
f 52/52/52 51/51/51 49/49/49
f 55/55/55 54/54/54 53/53/53
f 54/54/54 56/56/56 53/53/53
f 53/53/53 56/56/56 57/57/57
f 56/56/56 58/58/58 57/57/57
f 57/57/57 58/58/58 59/59/59
f 58/58/58 60/60/60 59/59/59
f 63/63/63 62/62/62 61/61/61
f 64/64/64 63/63/63 61/61/61
f 67/67/67 66/66/66 65/65/65
f 68/68/68 67/67/67 65/65/65
f 71/71/71 70/70/70 69/69/69
f 72/72/72 71/71/71 69/69/69
f 75/75/75 74/74/74 73/73/73
f 76/76/76 75/75/75 73/73/73
f 79/79/79 78/78/78 77/77/77
f 80/80/80 79/79/79 77/77/77
f 83/83/83 82/82/82 81/81/81
f 84/84/84 83/83/83 81/81/81
f 87/87/87 86/86/86 85/85/85
f 88/88/88 87/87/87 85/85/85
f 91/91/91 90/90/90 89/89/89
f 92/92/92 91/91/91 89/89/89
f 95/95/95 94/94/94 93/93/93
f 96/96/96 95/95/95 93/93/93
f 99/99/99 98/98/98 97/97/97
f 100/100/100 99/99/99 97/97/97
f 103/103/103 102/102/102 101/101/101
f 104/104/104 103/103/103 101/101/101
f 107/107/107 106/106/106 105/105/105
f 108/108/108 107/107/107 105/105/105
f 111/111/111 110/110/110 109/109/109
f 112/112/112 111/111/111 109/109/109
f 115/115/115 114/114/114 113/113/113
f 116/116/116 115/115/115 113/113/113
f 119/119/119 118/118/118 117/117/117
f 120/120/120 119/119/119 117/117/117
f 123/123/123 122/122/122 121/121/121
f 124/124/124 123/123/123 121/121/121
f 127/127/127 126/126/126 125/125/125
f 128/128/128 127/127/127 125/125/125
f 131/131/131 130/130/130 129/129/129
f 132/132/132 131/131/131 129/129/129
f 135/135/135 134/134/134 133/133/133
f 136/136/136 135/135/135 133/133/133
f 139/139/139 138/138/138 137/137/137
f 140/140/140 139/139/139 137/137/137
f 143/143/143 142/142/142 141/141/141
f 144/144/144 143/143/143 141/141/141
f 147/147/147 146/146/146 145/145/145
f 145/145/145 148/148/148 147/147/147
f 145/145/145 149/149/149 148/148/148
f 149/149/149 150/150/150 148/148/148
f 149/149/149 151/151/151 150/150/150
f 151/151/151 152/152/152 150/150/150
f 155/155/155 154/154/154 153/153/153
f 153/153/153 156/156/156 155/155/155
f 153/153/153 157/157/157 156/156/156
f 157/157/157 158/158/158 156/156/156
f 157/157/157 159/159/159 158/158/158
f 159/159/159 160/160/160 158/158/158
f 163/163/163 162/162/162 161/161/161
f 164/164/164 163/163/163 161/161/161
f 167/167/167 166/166/166 165/165/165
f 168/168/168 167/167/167 165/165/165
f 171/171/171 170/170/170 169/169/169
f 172/172/172 171/171/171 169/169/169
f 175/175/175 174/174/174 173/173/173
f 176/176/176 175/175/175 173/173/173
f 179/179/179 178/178/178 177/177/177
f 177/177/177 180/180/180 179/179/179
f 177/177/177 181/181/181 180/180/180
f 181/181/181 182/182/182 180/180/180
f 181/181/181 183/183/183 182/182/182
f 183/183/183 184/184/184 182/182/182
f 187/187/187 186/186/186 185/185/185
f 185/185/185 188/188/188 187/187/187
f 185/185/185 189/189/189 188/188/188
f 189/189/189 190/190/190 188/188/188
f 189/189/189 191/191/191 190/190/190
f 191/191/191 192/192/192 190/190/190
f 195/195/195 194/194/194 193/193/193
f 193/193/193 196/196/196 195/195/195
f 193/193/193 197/197/197 196/196/196
f 197/197/197 198/198/198 196/196/196
f 197/197/197 199/199/199 198/198/198
f 199/199/199 200/200/200 198/198/198
f 203/203/203 202/202/202 201/201/201
f 201/201/201 204/204/204 203/203/203
f 201/201/201 205/205/205 204/204/204
f 205/205/205 206/206/206 204/204/204
f 205/205/205 207/207/207 206/206/206
f 207/207/207 208/208/208 206/206/206
f 211/211/211 210/210/210 209/209/209
f 212/212/212 211/211/211 209/209/209
f 215/215/215 214/214/214 213/213/213
f 216/216/216 215/215/215 213/213/213
g Mart07_1
f 219/219/219 218/218/218 217/217/217
f 220/220/220 219/219/219 217/217/217
