g Mart06
v -2.5755863 4.0206885 -1.4020934
v -1.0755864 4.0206885 -2.9020927
v 1.1557477 4.0206885 -2.9020915
v 2.6561532 4.0206885 -1.4020908
v -2.5755863 4.020688 1.7391999
v 2.6570024 4.020688 1.7392025
v -1.0755863 4.020688 3.2392006
v 1.157408 4.020688 3.2392018
v -2.5758047 2.070324 1.7391999
v -2.575657 2.070324 -1.4020934
v -2.5755863 4.0206885 -1.4020934
v -2.5755863 4.020688 1.7391999
v -1.0062861 2.3170526 3.274864
v -1.1363115 2.2849162 3.4271564
v 1.218132 2.2849162 3.4271564
v 1.0881057 2.3170526 3.2748652
v 1.0881057 3.6280215 3.2748652
v 1.218132 3.6601572 3.4271564
v -1.1363114 3.6601572 3.4271564
v -1.0062861 3.6280215 3.274864
v 1.2221723 2.9725375 -3.0900476
v -1.1403456 2.9725375 -3.0900476
v -1.1363082 2.2849162 -3.0900476
v 1.2181351 2.2849162 -3.0900476
v 1.2221692 2.9725375 3.4271564
v -1.1403484 2.9725375 3.4271564
v -1.1363114 3.6601572 3.4271564
v 1.218132 3.6601572 3.4271564
v -2.6112487 3.6280215 1.6345583
v -2.7412748 3.6601572 1.7868521
v -2.7412744 3.6601572 -1.4497453
v -2.6112478 3.6280215 -1.2974547
v 1.0881089 3.6280215 -2.937755
v 1.092146 2.9725375 -2.937755
v -1.010318 2.9725375 -2.937756
v -1.0062809 3.6280215 -2.937756
v -2.6112487 2.3170526 1.6345583
v -2.6112487 2.9725375 1.6399547
v -2.6112478 2.9725375 -1.302851
v -2.6112478 2.3170526 -1.2974548
v 1.0881057 2.3170526 3.2748652
v 1.0921428 2.9725375 3.2748652
v -1.0103232 2.9725375 3.274864
v -1.0062861 2.3170526 3.274864
v -1.0758753 2.070324 3.2392006
v 1.1574068 2.070324 3.2392018
v 1.1574059 -3.8448889E-10 3.2392018
v -1.0761118 -3.844436E-10 3.2392006
v 1.1557477 2.070324 -2.9020915
v -1.0755863 2.070324 -2.9020927
v -1.0755863 -3.844436E-10 -2.9020927
v 1.1557478 -3.844436E-10 -2.9020915
v 2.6570206 2.070324 1.7392025
v 2.6570024 4.020688 1.7392025
v 2.6561532 4.0206885 -1.4020908
v 2.6561635 2.070324 -1.4020908
v 2.5098426 1.5838096 1.2274486
v 2.5092196 1.5838099 -1.027878
v 2.5092201 0 -1.027878
v 2.509841 0 1.2274486
v 2.6562672 1.5838099 -1.0279193
v 2.5092196 1.5838099 -1.027878
v 2.5098426 1.5838096 1.2274486
v 2.6568897 1.5838096 1.2274115
v 2.6568897 1.5838096 1.2274115
v 2.5098426 1.5838096 1.2274486
v 2.509841 0 1.2274486
v 2.6568878 0 1.2274115
v -2.6112478 2.9725375 -1.302851
v -1.010318 2.9725375 -2.937756
v -1.0062809 2.3170526 -2.937756
v -2.6112478 2.3170526 -1.2974548
v -2.7412748 2.9725375 1.7922484
v -2.7412744 2.9725375 -1.4551415
v -2.7412744 3.6601572 -1.4497453
v -2.7412748 3.6601572 1.7868521
v 2.8230977 3.6601572 1.7868539
v 2.823099 3.6601572 -1.4497434
v 2.823099 2.9725375 -1.4551398
v 2.8230977 2.9725375 1.7922502
v -2.6112487 2.9725375 1.6399547
v -1.0103232 2.9725375 3.274864
v -1.0062861 3.6280215 3.274864
v -2.6112487 3.6280215 1.6345583
v 1.218132 2.2849162 3.4271564
v -1.1363115 2.2849162 3.4271564
v -1.1403484 2.9725375 3.4271564
v 1.2221692 2.9725375 3.4271564
v 1.2181351 3.6601572 -3.0900476
v -1.1363082 3.6601572 -3.0900476
v -1.1403456 2.9725375 -3.0900476
v 1.2221723 2.9725375 -3.0900476
v 1.0921428 2.9725375 3.2748652
v 2.6930716 2.9725375 1.6399591
v 2.6930716 3.6280215 1.634563
v 1.0881057 3.6280215 3.2748652
v -1.0062809 3.6280215 -2.937756
v -1.1363082 3.6601572 -3.0900476
v 1.2181351 3.6601572 -3.0900476
v 1.0881089 3.6280215 -2.937755
v 1.0881089 2.3170526 -2.937755
v 1.2181351 2.2849162 -3.0900476
v -1.1363082 2.2849162 -3.0900476
v -1.0062809 2.3170526 -2.937756
v 2.6930723 3.6280215 -1.2974503
v 2.823099 3.6601572 -1.4497434
v 2.8230977 3.6601572 1.7868539
v 2.6930716 3.6280215 1.634563
v -2.6112487 2.9725375 1.6399547
v -2.6112487 3.6280215 1.6345583
v -2.6112478 3.6280215 -1.2974547
v -2.6112478 2.9725375 -1.302851
v 2.6930716 2.3170526 1.6345628
v 2.8230977 2.2849162 1.786854
v 2.823099 2.2849162 -1.4497435
v 2.6930723 2.3170526 -1.2974503
v -2.6112478 2.3170526 -1.2974548
v -2.7412744 2.2849162 -1.4497454
v -2.7412748 2.2849162 1.7868521
v -2.6112487 2.3170526 1.6345583
v -2.7412748 2.2849162 1.7868521
v -2.7412744 2.2849162 -1.4497454
v -2.7412744 2.9725375 -1.4551415
v -2.7412748 2.9725375 1.7922484
v 2.6930716 2.3170526 1.6345628
v 2.6930723 2.3170526 -1.2974503
v 2.6930723 2.9725375 -1.3028466
v 2.6930716 2.9725375 1.6399591
v 1.157408 4.020688 3.2392018
v 2.6570024 4.020688 1.7392025
v 2.6570206 2.070324 1.7392025
v 1.1574068 2.070324 3.2392018
v -2.5758047 2.070324 1.7391999
v -1.0758753 2.070324 3.2392006
v -1.0761118 -3.844436E-10 3.2392006
v -2.5759835 -3.6431125E-10 1.7391999
v -2.575657 2.070324 -1.4020934
v -1.0755863 2.070324 -2.9020927
v -1.0755864 4.0206885 -2.9020927
v -2.5755863 4.0206885 -1.4020934
v 2.6562672 1.5838099 -1.0279193
v 2.656164 -7.675274E-11 -1.4020908
v 2.6562676 0 -1.0279193
v 2.6561635 2.070324 -1.4020908
v 2.6568897 1.5838096 1.2274115
v 2.6570206 2.070324 1.7392025
v 2.6568878 0 1.2274115
v 2.6570196 -9.780085E-11 1.7392026
v 1.092146 2.9725375 -2.937755
v 2.6930723 2.9725375 -1.3028466
v 2.6930723 2.3170526 -1.2974503
v 1.0881089 2.3170526 -2.937755
v 1.0881089 3.6280215 -2.937755
v 2.6930723 3.6280215 -1.2974503
v 2.6930723 2.9725375 -1.3028466
v 1.092146 2.9725375 -2.937755
v 2.823099 2.9725375 -1.4551398
v 1.2221723 2.9725375 -3.0900476
v 1.2181351 2.2849162 -3.0900476
v 2.823099 2.2849162 -1.4497435
v 2.823099 3.6601572 -1.4497434
v 1.2181351 3.6601572 -3.0900476
v 1.2221723 2.9725375 -3.0900476
v 2.823099 2.9725375 -1.4551398
v 1.2181351 3.6601572 -3.0900476
v 2.823099 3.6601572 -1.4497434
v 2.6930723 3.6280215 -1.2974503
v 1.0881089 3.6280215 -2.937755
v 1.0881089 2.3170526 -2.937755
v 2.6930723 2.3170526 -1.2974503
v 2.823099 2.2849162 -1.4497435
v 1.2181351 2.2849162 -3.0900476
v 2.8230977 2.2849162 1.786854
v 2.8230977 2.9725375 1.7922502
v 2.823099 2.9725375 -1.4551398
v 2.823099 2.2849162 -1.4497435
v -2.6112478 3.6280215 -1.2974547
v -1.0062809 3.6280215 -2.937756
v -1.010318 2.9725375 -2.937756
v -2.6112478 2.9725375 -1.302851
v -1.1403456 2.9725375 -3.0900476
v -2.7412744 2.9725375 -1.4551415
v -2.7412744 2.2849162 -1.4497454
v -1.1363082 2.2849162 -3.0900476
v -1.1363082 3.6601572 -3.0900476
v -2.7412744 3.6601572 -1.4497453
v -2.7412744 2.9725375 -1.4551415
v -1.1403456 2.9725375 -3.0900476
v -1.0062809 3.6280215 -2.937756
v -2.6112478 3.6280215 -1.2974547
v -2.7412744 3.6601572 -1.4497453
v -1.1363082 3.6601572 -3.0900476
v -1.1363082 2.2849162 -3.0900476
v -2.7412744 2.2849162 -1.4497454
v -2.6112478 2.3170526 -1.2974548
v -1.0062809 2.3170526 -2.937756
v 1.092146 2.9725375 -2.937755
v 1.0881089 2.3170526 -2.937755
v -1.0062809 2.3170526 -2.937756
v -1.010318 2.9725375 -2.937756
v 1.0881057 2.3170526 3.2748652
v 2.6930716 2.3170526 1.6345628
v 2.6930716 2.9725375 1.6399591
v 1.0921428 2.9725375 3.2748652
v 2.8230977 2.9725375 1.7922502
v 1.2221692 2.9725375 3.4271564
v 1.218132 3.6601572 3.4271564
v 2.8230977 3.6601572 1.7868539
v 2.8230977 2.2849162 1.786854
v 1.218132 2.2849162 3.4271564
v 1.2221692 2.9725375 3.4271564
v 2.8230977 2.9725375 1.7922502
v 2.8230977 3.6601572 1.7868539
v 1.218132 3.6601572 3.4271564
v 1.0881057 3.6280215 3.2748652
v 2.6930716 3.6280215 1.634563
v 2.6930716 2.3170526 1.6345628
v 1.0881057 2.3170526 3.2748652
v 1.218132 2.2849162 3.4271564
v 2.8230977 2.2849162 1.786854
v 2.6930716 3.6280215 1.634563
v 2.6930716 2.9725375 1.6399591
v 2.6930723 2.9725375 -1.3028466
v 2.6930723 3.6280215 -1.2974503
v -2.6112487 2.3170526 1.6345583
v -1.0062861 2.3170526 3.274864
v -1.0103232 2.9725375 3.274864
v -2.6112487 2.9725375 1.6399547
v -1.1403484 2.9725375 3.4271564
v -2.7412748 2.9725375 1.7922484
v -2.7412748 3.6601572 1.7868521
v -1.1363114 3.6601572 3.4271564
v -1.1363115 2.2849162 3.4271564
v -2.7412748 2.2849162 1.7868521
v -2.7412748 2.9725375 1.7922484
v -1.1403484 2.9725375 3.4271564
v -1.1363114 3.6601572 3.4271564
v -2.7412748 3.6601572 1.7868521
v -2.6112487 3.6280215 1.6345583
v -1.0062861 3.6280215 3.274864
v -1.0062861 2.3170526 3.274864
v -2.6112487 2.3170526 1.6345583
v -2.7412748 2.2849162 1.7868521
v -1.1363115 2.2849162 3.4271564
v 1.0921428 2.9725375 3.2748652
v 1.0881057 3.6280215 3.2748652
v -1.0062861 3.6280215 3.274864
v -1.0103232 2.9725375 3.274864
v 1.1557477 2.070324 -2.9020915
v 2.6561635 2.070324 -1.4020908
v 2.6561532 4.0206885 -1.4020908
v 1.1557477 4.0206885 -2.9020915
v -2.5757146 -3.844436E-10 -1.4020935
v -1.0755863 -3.844436E-10 -2.9020927
v -1.0755863 2.070324 -2.9020927
v -2.575657 2.070324 -1.4020934
v -2.5755863 4.020688 1.7391999
v -1.0755863 4.020688 3.2392006
v -1.0758753 2.070324 3.2392006
v -2.5758047 2.070324 1.7391999
v 2.6570196 -9.780085E-11 1.7392026
v 1.1574059 -3.8448889E-10 3.2392018
v 1.1574068 2.070324 3.2392018
v 2.6570206 2.070324 1.7392025
v 1.1557478 -3.844436E-10 -2.9020915
v 2.656164 -7.675274E-11 -1.4020908
v 2.6561635 2.070324 -1.4020908
v 1.1557477 2.070324 -2.9020915
v 1.1557477 4.0206885 -2.9020915
v -1.0755864 4.0206885 -2.9020927
v -1.0755863 2.070324 -2.9020927
v 1.1557477 2.070324 -2.9020915
v -1.0755863 4.020688 3.2392006
v 1.157408 4.020688 3.2392018
v 1.1574068 2.070324 3.2392018
v -1.0758753 2.070324 3.2392006
v -2.5759835 -3.6431125E-10 1.7391999
v -2.5757146 -3.844436E-10 -1.4020935
v -2.575657 2.070324 -1.4020934
v -2.5758047 2.070324 1.7391999
v 2.6562676 0 -1.0279193
v 2.5092201 0 -1.027878
v 2.5092196 1.5838099 -1.027878
v 2.6562672 1.5838099 -1.0279193
v 2.923095 1.8904 1.2506634
v 2.923095 4.054675 1.2506636
v 2.9230957 4.054675 -0.913612
v 2.9230957 1.8904 -0.91361225
vt 0.8433203 0.96943974
vt 0.8433203 0.96943974
vt 0.8433203 0.96943974
vt 0.8433203 0.96943974
vt 0.8433203 0.96943974
vt 0.8433203 0.96943974
vt 0.8433203 0.96943974
vt 0.8433203 0.96943974
vt 0.52926785 0.90376335
vt 0.52926785 0.90376335
vt 0.52926785 0.90376335
vt 0.52926785 0.90376335
vt 0.21834314 0.65604085
vt 0.21834314 0.65604085
vt 0.21834314 0.65604085
vt 0.21834314 0.65604085
vt 0.21887505 0.46674383
vt 0.21887505 0.46674383
vt 0.21887505 0.46674383
vt 0.21887505 0.46674383
vt 0.21834314 0.65604085
vt 0.21834314 0.65604085
vt 0.21834314 0.65604085
vt 0.21834314 0.65604085
vt 0.21887505 0.46674383
vt 0.21887505 0.46674383
vt 0.21887505 0.46674383
vt 0.21887505 0.4667438
vt 0.21887505 0.46674383
vt 0.21887505 0.46674383
vt 0.21887505 0.46674383
vt 0.21887505 0.46674383
vt 0.21887505 0.46674383
vt 0.21887505 0.46674383
vt 0.21887505 0.46674386
vt 0.21887505 0.46674383
vt 0.21834314 0.65604085
vt 0.21834314 0.65604085
vt 0.21834314 0.65604085
vt 0.21834314 0.65604085
vt 0.21834314 0.65604085
vt 0.21834314 0.65604085
vt 0.21834314 0.65604085
vt 0.21834314 0.65604085
vt 0.59426725 0.8947898
vt 0.59426725 0.8947898
vt 0.59426725 0.8947898
vt 0.59426725 0.8947898
vt 0.59426725 0.8947898
vt 0.59426725 0.8947898
vt 0.59426725 0.8947898
vt 0.59426725 0.8947898
vt 0.52926785 0.90376335
vt 0.52926785 0.90376335
vt 0.52926785 0.90376335
vt 0.52926785 0.90376335
vt 0.031345412 0.5977256
vt 0.031345412 0.5977256
vt 0.031345412 0.5977256
vt 0.031345412 0.5977256
vt 0.59426725 0.8947898
vt 0.59426725 0.8947898
vt 0.59426725 0.8947898
vt 0.59426725 0.8947898
vt 0.59426725 0.8947898
vt 0.59426725 0.8947898
vt 0.59426725 0.8947898
vt 0.59426725 0.8947898
vt 0.21834314 0.65604085
vt 0.21834314 0.65604085
vt 0.21834314 0.65604085
vt 0.21834314 0.65604085
vt 0.21887505 0.46674383
vt 0.21887505 0.46674386
vt 0.21887505 0.46674383
vt 0.21887505 0.46674383
vt 0.21887505 0.46674383
vt 0.21887505 0.46674383
vt 0.21887505 0.46674383
vt 0.21887505 0.4667438
vt 0.21887505 0.4667438
vt 0.21887505 0.46674383
vt 0.21887505 0.46674383
vt 0.21887505 0.46674383
vt 0.21834314 0.65604085
vt 0.21834314 0.65604085
vt 0.21834314 0.65604085
vt 0.21834314 0.6560409
vt 0.21887505 0.46674383
vt 0.21887505 0.46674383
vt 0.21887505 0.46674383
vt 0.21887507 0.46674383
vt 0.21887505 0.46674383
vt 0.21887505 0.46674383
vt 0.21887505 0.46674383
vt 0.21887505 0.46674383
vt 0.21887505 0.46674383
vt 0.21887505 0.46674383
vt 0.21887505 0.46674383
vt 0.21887505 0.46674383
vt 0.21834314 0.65604085
vt 0.21834314 0.65604085
vt 0.21834315 0.6560409
vt 0.21834314 0.65604085
vt 0.21887507 0.46674383
vt 0.21887505 0.46674383
vt 0.21887505 0.46674383
vt 0.21887507 0.46674383
vt 0.21887505 0.4667438
vt 0.21887505 0.46674383
vt 0.21887505 0.46674383
vt 0.21887505 0.46674383
vt 0.21834312 0.65604085
vt 0.21834314 0.65604085
vt 0.21834315 0.65604085
vt 0.21834314 0.65604085
vt 0.21834314 0.65604085
vt 0.21834314 0.65604085
vt 0.21834314 0.6560408
vt 0.21834314 0.65604085
vt 0.21834314 0.6560408
vt 0.21834314 0.6560408
vt 0.21834314 0.65604085
vt 0.21834314 0.65604085
vt 0.21834314 0.65604085
vt 0.21834314 0.65604085
vt 0.21834314 0.65604085
vt 0.21834314 0.65604085
vt 0.52926785 0.90376335
vt 0.52926785 0.90376335
vt 0.52926785 0.90376335
vt 0.52926785 0.90376335
vt 0.59426725 0.8947899
vt 0.59426725 0.8947898
vt 0.59426725 0.8947898
vt 0.59426725 0.8947898
vt 0.52926785 0.90376335
vt 0.52926785 0.90376335
vt 0.52926785 0.90376335
vt 0.52926785 0.90376335
vt 0.59426725 0.8947898
vt 0.59426725 0.8947898
vt 0.59426725 0.8947898
vt 0.59426725 0.8947898
vt 0.59426725 0.8947898
vt 0.59426725 0.8947898
vt 0.59426725 0.8947898
vt 0.59426725 0.8947898
vt 0.21834314 0.65604085
vt 0.21834314 0.65604085
vt 0.21834314 0.65604085
vt 0.21834314 0.65604085
vt 0.21887505 0.46674383
vt 0.21887505 0.46674383
vt 0.21887505 0.46674383
vt 0.21887505 0.46674383
vt 0.21834314 0.65604085
vt 0.21834314 0.65604085
vt 0.21834314 0.65604085
vt 0.21834314 0.65604085
vt 0.21887505 0.46674383
vt 0.21887505 0.46674383
vt 0.21887507 0.46674383
vt 0.21887505 0.46674383
vt 0.21887505 0.46674383
vt 0.21887505 0.46674383
vt 0.21887507 0.46674383
vt 0.21887505 0.46674383
vt 0.21834314 0.65604085
vt 0.21834314 0.65604085
vt 0.21834315 0.65604085
vt 0.21834314 0.65604085
vt 0.21834314 0.65604085
vt 0.21834314 0.65604085
vt 0.21834314 0.65604085
vt 0.21834314 0.65604085
vt 0.21887505 0.46674383
vt 0.21887505 0.46674383
vt 0.21887505 0.46674386
vt 0.21887505 0.46674383
vt 0.21834314 0.65604085
vt 0.21834314 0.65604085
vt 0.21834314 0.6560408
vt 0.21834314 0.65604085
vt 0.21887505 0.46674383
vt 0.21887505 0.46674383
vt 0.21887505 0.46674386
vt 0.21887505 0.46674383
vt 0.21887505 0.46674383
vt 0.21887505 0.46674383
vt 0.21887505 0.46674383
vt 0.21887505 0.46674383
vt 0.21834315 0.6560409
vt 0.21834314 0.65604085
vt 0.21834314 0.65604085
vt 0.21834314 0.65604085
vt 0.21834314 0.65604085
vt 0.21834314 0.65604085
vt 0.21834314 0.65604085
vt 0.21834314 0.65604085
vt 0.21834314 0.65604085
vt 0.21834314 0.65604085
vt 0.21834314 0.65604085
vt 0.21834314 0.65604085
vt 0.21887505 0.4667438
vt 0.21887505 0.46674383
vt 0.21887505 0.4667438
vt 0.21887505 0.46674383
vt 0.21834314 0.65604085
vt 0.21834314 0.65604085
vt 0.21834314 0.6560409
vt 0.21834314 0.65604085
vt 0.21887505 0.46674383
vt 0.21887505 0.46674383
vt 0.21887505 0.46674383
vt 0.21887507 0.46674383
vt 0.21834312 0.65604085
vt 0.21834314 0.65604085
vt 0.21834314 0.65604085
vt 0.21834314 0.65604085
vt 0.21887505 0.46674383
vt 0.21887505 0.46674383
vt 0.21887505 0.46674383
vt 0.21887505 0.46674383
vt 0.21834314 0.65604085
vt 0.21834314 0.65604085
vt 0.21834314 0.65604085
vt 0.21834314 0.65604085
vt 0.21887505 0.46674383
vt 0.21887505 0.46674383
vt 0.21887505 0.46674383
vt 0.21887505 0.46674383
vt 0.21834314 0.65604085
vt 0.21834314 0.6560408
vt 0.21834314 0.65604085
vt 0.21834314 0.65604085
vt 0.21887505 0.46674383
vt 0.21887505 0.46674383
vt 0.21887505 0.46674383
vt 0.21887505 0.46674383
vt 0.21834314 0.65604085
vt 0.21834314 0.65604085
vt 0.21834314 0.6560408
vt 0.21834314 0.65604085
vt 0.21887505 0.46674383
vt 0.21887505 0.46674383
vt 0.21887505 0.46674383
vt 0.21887505 0.46674383
vt 0.52926785 0.90376335
vt 0.52926785 0.90376335
vt 0.52926785 0.90376335
vt 0.52926785 0.90376335
vt 0.59426725 0.8947898
vt 0.59426725 0.8947898
vt 0.59426725 0.8947898
vt 0.59426725 0.89478976
vt 0.52926785 0.90376335
vt 0.52926785 0.90376335
vt 0.52926785 0.90376335
vt 0.52926785 0.90376335
vt 0.59426725 0.8947898
vt 0.59426725 0.8947898
vt 0.59426725 0.8947898
vt 0.59426725 0.8947899
vt 0.59426725 0.8947898
vt 0.59426725 0.8947898
vt 0.5942672 0.8947897
vt 0.59426725 0.8947898
vt 0.52926785 0.90376335
vt 0.52926785 0.90376335
vt 0.52926785 0.90376335
vt 0.52926785 0.90376335
vt 0.52926785 0.90376335
vt 0.52926785 0.90376335
vt 0.52926785 0.90376335
vt 0.52926785 0.90376335
vt 0.59426725 0.8947898
vt 0.59426725 0.8947898
vt 0.59426725 0.89478976
vt 0.59426725 0.8947899
vt 0.59426725 0.8947898
vt 0.59426725 0.8947898
vt 0.59426725 0.8947898
vt 0.59426725 0.8947898
vt 0.625 0.375
vt 0.625 0.5
vt 0.75 0.5
vt 0.75 0.375
vn -0 1 0
vn -0 1 0
vn -0 1 0
vn -0 1 0
vn -0 1 0
vn -0 1 0
vn -0 1 0
vn -0 1 0
vn -1 7.4079326E-05 -2.358243E-05
vn -1 7.4079326E-05 -2.358243E-05
vn -1 7.4079326E-05 -2.358243E-05
vn -1 7.4079326E-05 -2.358243E-05
vn -0 -0.9784525 -0.20647232
vn -0 -0.9784525 -0.20647232
vn -0 -0.9784525 -0.20647232
vn -0 -0.9784525 -0.20647232
vn -0 0.9784534 -0.20646764
vn -0 0.9784534 -0.20646764
vn -0 0.9784534 -0.20646764
vn -0 0.9784534 -0.20646764
vn -0 0 -1
vn -0 0 -1
vn -0 0 -1
vn -0 0 -1
vn -0 0 1
vn -0 0 1
vn -0 0 1
vn -0 0 1
vn 0.2399286 0.97079057 0
vn 0.2399286 0.97079057 0
vn 0.2399286 0.97079057 0
vn 0.2399286 0.97079057 0
vn -0 0 1
vn -0 0 1
vn -0 0 1
vn -0 0 1
vn 1 0 0
vn 1 0 0
vn 1 0 0
vn 1 0 0
vn -0 0 -1
vn -0 0 -1
vn -0 0 -1
vn -0 0 -1
vn -0 0 1
vn -0 0 1
vn -0 0 1
vn -0 0 1
vn -0 0 -1
vn -0 0 -1
vn -0 0 -1
vn -0 0 -1
vn 1 0 -0.00027159927
vn 1 0 -0.00027159927
vn 1 0 -0.00027159927
vn 1 0 -0.00027159927
vn 1 0 -0.000275796
vn 1 0 -0.000275796
vn 1 0 -0.000275796
vn 1 0 -0.000275796
vn -0 -1 0
vn -0 -1 0
vn -0 -1 0
vn -0 -1 0
vn -0.00025212436 0 -1
vn -0.00025212436 0 -1
vn -0.00025212436 0 -1
vn -0.00025212436 0 -1
vn 0.71461856 0.0050799707 0.699496
vn 0.71461856 0.0050799707 0.699496
vn 0.71461856 0.0050799707 0.699496
vn 0.71461856 0.0050799707 0.699496
vn -1 0 0
vn -1 0 0
vn -1 0 0
vn -1 0 0
vn 1 0 0
vn 1 0 0
vn 1 0 0
vn 1 0 0
vn 0.71462053 -0.0050799144 -0.6994939
vn 0.71462053 -0.0050799144 -0.6994939
vn 0.71462053 -0.0050799144 -0.6994939
vn 0.71462053 -0.0050799144 -0.6994939
vn -0 0 1
vn -0 0 1
vn -0 0 1
vn -0 0 1
vn -0 0 -1
vn -0 0 -1
vn -0 0 -1
vn -0 0 -1
vn -0.71461916 -0.005079973 -0.6994953
vn -0.71461916 -0.005079973 -0.6994953
vn -0.71461916 -0.005079973 -0.6994953
vn -0.71461916 -0.005079973 -0.6994953
vn -0 0.9784534 0.20646752
vn -0 0.9784534 0.20646752
vn -0 0.9784534 0.20646752
vn -0 0.9784534 0.20646752
vn -0 -0.9784525 0.20647195
vn -0 -0.9784525 0.20647195
vn -0 -0.9784525 0.20647195
vn -0 -0.9784525 0.20647195
vn -0.2399264 0.970791 0
vn -0.2399264 0.970791 0
vn -0.2399264 0.970791 0
vn -0.2399264 0.970791 0
vn 1 0 0
vn 1 0 0
vn 1 0 0
vn 1 0 0
vn -0.23993294 -0.97078943 0
vn -0.23993294 -0.97078943 0
vn -0.23993294 -0.97078943 0
vn -0.23993294 -0.97078943 0
vn 0.23993294 -0.97078943 0
vn 0.23993294 -0.97078943 0
vn 0.23993294 -0.97078943 0
vn 0.23993294 -0.97078943 0
vn -1 0 0
vn -1 0 0
vn -1 0 0
vn -1 0 0
vn -1 0 0
vn -1 0 0
vn -1 0 0
vn -1 0 0
vn 0.7072 0 0.7070136
vn 0.7072 0 0.7070136
vn 0.7072 0 0.7070136
vn 0.7072 0 0.7070136
vn -0.7071303 7.097098E-05 0.70708317
vn -0.7071303 7.097098E-05 0.70708317
vn -0.7071303 7.097098E-05 0.70708317
vn -0.7071303 7.097098E-05 0.70708317
vn -0.70709825 1.276682E-05 -0.7071153
vn -0.70709825 1.276682E-05 -0.7071153
vn -0.70709825 1.276682E-05 -0.7071153
vn -0.70709825 1.276682E-05 -0.7071153
vn 1 1.0844759E-05 -0.000274239
vn 1 0 -0.00027690796
vn 1 0 -0.00027690796
vn 1 1.0844759E-05 -0.000274239
vn 1 1.0844759E-05 -0.000274239
vn 1 1.0844759E-05 -0.000274239
vn 1 0 -0.00025599217
vn 1 0 -0.00025599217
vn -0.7146201 0.005079808 0.69949436
vn -0.7146201 0.005079808 0.69949436
vn -0.7146201 0.005079808 0.69949436
vn -0.7146201 0.005079808 0.69949436
vn -0.7146201 -0.0050798147 0.6994943
vn -0.7146201 -0.0050798147 0.6994943
vn -0.7146201 -0.0050798147 0.6994943
vn -0.7146201 -0.0050798147 0.6994943
vn 0.7146209 -0.0048425226 -0.69949526
vn 0.7146209 -0.0048425226 -0.69949526
vn 0.7146209 -0.0048425226 -0.69949526
vn 0.7146209 -0.0048425226 -0.69949526
vn 0.71462065 0.004842535 -0.69949543
vn 0.71462065 0.004842535 -0.69949543
vn 0.71462065 0.004842535 -0.69949543
vn 0.71462065 0.004842535 -0.69949543
vn -0.11369942 0.98726684 0.111249976
vn -0.11369942 0.98726684 0.111249976
vn -0.11369942 0.98726684 0.111249976
vn -0.11369942 0.98726684 0.111249976
vn -0.113702826 -0.9872662 0.11125238
vn -0.113702826 -0.9872662 0.11125238
vn -0.113702826 -0.9872662 0.11125238
vn -0.113702826 -0.9872662 0.11125238
vn 1 0 0
vn 1 0 0
vn 1 0 0
vn 1 0 0
vn 0.7146187 -0.0050799767 0.69949573
vn 0.7146187 -0.0050799767 0.69949573
vn 0.7146187 -0.0050799767 0.69949573
vn 0.7146187 -0.0050799767 0.69949573
vn -0.7146198 -0.0048424057 -0.6994964
vn -0.7146198 -0.0048424057 -0.6994964
vn -0.7146198 -0.0048424057 -0.6994964
vn -0.7146198 -0.0048424057 -0.6994964
vn -0.7146199 0.0048424173 -0.69949627
vn -0.7146199 0.0048424173 -0.69949627
vn -0.7146199 0.0048424173 -0.69949627
vn -0.7146199 0.0048424173 -0.69949627
vn 0.113699734 0.9872667 0.111250594
vn 0.113699734 0.9872667 0.111250594
vn 0.113699734 0.9872667 0.111250594
vn 0.113699734 0.9872667 0.111250594
vn 0.113702506 -0.9872662 0.11125307
vn 0.113702506 -0.9872662 0.11125307
vn 0.113702506 -0.9872662 0.11125307
vn 0.113702506 -0.9872662 0.11125307
vn -0 0 1
vn -0 0 1
vn -0 0 1
vn -0 0 1
vn -0.7146189 0.0050799674 -0.69949555
vn -0.7146189 0.0050799674 -0.69949555
vn -0.7146189 0.0050799674 -0.69949555
vn -0.7146189 0.0050799674 -0.69949555
vn 0.71462005 0.004842726 0.69949615
vn 0.71462005 0.004842726 0.69949615
vn 0.71462005 0.004842726 0.69949615
vn 0.71462005 0.004842726 0.69949615
vn 0.71462 -0.0048427135 0.69949615
vn 0.71462 -0.0048427135 0.69949615
vn 0.71462 -0.0048427135 0.69949615
vn 0.71462 -0.0048427135 0.69949615
vn -0.11369968 0.9872667 -0.11125088
vn -0.11369968 0.9872667 -0.11125088
vn -0.11369968 0.9872667 -0.11125088
vn -0.11369968 0.9872667 -0.11125088
vn -0.1137034 -0.98726606 -0.11125329
vn -0.1137034 -0.98726606 -0.11125329
vn -0.1137034 -0.98726606 -0.11125329
vn -0.1137034 -0.98726606 -0.11125329
vn -1 0 0
vn -1 0 0
vn -1 0 0
vn -1 0 0
vn 0.71462035 0.005079909 -0.6994941
vn 0.71462035 0.005079909 -0.6994941
vn 0.71462035 0.005079909 -0.6994941
vn 0.71462035 0.005079909 -0.6994941
vn -0.7146209 0.004842418 0.69949526
vn -0.7146209 0.004842418 0.69949526
vn -0.7146209 0.004842418 0.69949526
vn -0.7146209 0.004842418 0.69949526
vn -0.7146208 -0.004842406 0.6994953
vn -0.7146208 -0.004842406 0.6994953
vn -0.7146208 -0.004842406 0.6994953
vn -0.7146208 -0.004842406 0.6994953
vn 0.113700025 0.98726684 -0.11125014
vn 0.113700025 0.98726684 -0.11125014
vn 0.113700025 0.98726684 -0.11125014
vn 0.113700025 0.98726684 -0.11125014
vn 0.11370271 -0.9872662 -0.111252606
vn 0.11370271 -0.9872662 -0.111252606
vn 0.11370271 -0.9872662 -0.111252606
vn 0.11370271 -0.9872662 -0.111252606
vn -0 0 -1
vn -0 0 -1
vn -0 0 -1
vn -0 0 -1
vn 0.7070102 0 -0.7072033
vn 0.7070102 0 -0.7072033
vn 0.7070102 0 -0.7072033
vn 0.7070102 0 -0.7072033
vn -0.70708317 0 -0.7071304
vn -0.70708317 0 -0.7071304
vn -0.70708317 0 -0.7071304
vn -0.70708317 0 -0.7071304
vn -0.70711523 9.196696E-05 0.7070983
vn -0.70711523 9.196696E-05 0.7070983
vn -0.70711523 9.196696E-05 0.7070983
vn -0.70711523 9.196696E-05 0.7070983
vn 0.70719767 0 0.70701593
vn 0.70719767 0 0.70701593
vn 0.70719767 0 0.70701593
vn 0.70719767 0 0.70701593
vn 0.7070089 0 -0.7072047
vn 0.7070089 0 -0.7072047
vn 0.7070089 0 -0.7072047
vn 0.7070089 0 -0.7072047
vn -0 0 -1
vn -0 0 -1
vn -0 0 -1
vn -0 0 -1
vn -0 0 1
vn -0 0 1
vn -0 0 1
vn -0 0 1
vn -1 5.7119385E-05 -6.635473E-05
vn -1 5.7119385E-05 -6.635473E-05
vn -1 5.7119385E-05 -6.635473E-05
vn -1 5.7119385E-05 -6.635473E-05
vn 0.0002804971 0 1
vn 0.0002804971 0 1
vn 0.0002804971 0 1
vn 0.0002804971 0 1
vn 1 0 0
vn 1 0 0
vn 1 0 0
vn 1 0 0
g Mart06_0
f 3/3/3 2/2/2 1/1/1
f 1/1/1 4/4/4 3/3/3
f 1/1/1 5/5/5 4/4/4
f 5/5/5 6/6/6 4/4/4
f 5/5/5 7/7/7 6/6/6
f 7/7/7 8/8/8 6/6/6
f 11/11/11 10/10/10 9/9/9
f 12/12/12 11/11/11 9/9/9
f 15/15/15 14/14/14 13/13/13
f 16/16/16 15/15/15 13/13/13
f 19/19/19 18/18/18 17/17/17
f 20/20/20 19/19/19 17/17/17
f 23/23/23 22/22/22 21/21/21
f 24/24/24 23/23/23 21/21/21
f 27/27/27 26/26/26 25/25/25
f 28/28/28 27/27/27 25/25/25
f 31/31/31 30/30/30 29/29/29
f 32/32/32 31/31/31 29/29/29
f 35/35/35 34/34/34 33/33/33
f 36/36/36 35/35/35 33/33/33
f 39/39/39 38/38/38 37/37/37
f 40/40/40 39/39/39 37/37/37
f 43/43/43 42/42/42 41/41/41
f 44/44/44 43/43/43 41/41/41
f 47/47/47 46/46/46 45/45/45
f 48/48/48 47/47/47 45/45/45
f 51/51/51 50/50/50 49/49/49
f 52/52/52 51/51/51 49/49/49
f 55/55/55 54/54/54 53/53/53
f 56/56/56 55/55/55 53/53/53
f 59/59/59 58/58/58 57/57/57
f 60/60/60 59/59/59 57/57/57
f 63/63/63 62/62/62 61/61/61
f 64/64/64 63/63/63 61/61/61
f 67/67/67 66/66/66 65/65/65
f 68/68/68 67/67/67 65/65/65
f 71/71/71 70/70/70 69/69/69
f 72/72/72 71/71/71 69/69/69
f 75/75/75 74/74/74 73/73/73
f 76/76/76 75/75/75 73/73/73
f 79/79/79 78/78/78 77/77/77
f 80/80/80 79/79/79 77/77/77
f 83/83/83 82/82/82 81/81/81
f 84/84/84 83/83/83 81/81/81
f 87/87/87 86/86/86 85/85/85
f 88/88/88 87/87/87 85/85/85
f 91/91/91 90/90/90 89/89/89
f 92/92/92 91/91/91 89/89/89
f 95/95/95 94/94/94 93/93/93
f 96/96/96 95/95/95 93/93/93
f 99/99/99 98/98/98 97/97/97
f 100/100/100 99/99/99 97/97/97
f 103/103/103 102/102/102 101/101/101
f 104/104/104 103/103/103 101/101/101
f 107/107/107 106/106/106 105/105/105
f 108/108/108 107/107/107 105/105/105
f 111/111/111 110/110/110 109/109/109
f 112/112/112 111/111/111 109/109/109
f 115/115/115 114/114/114 113/113/113
f 116/116/116 115/115/115 113/113/113
f 119/119/119 118/118/118 117/117/117
f 120/120/120 119/119/119 117/117/117
f 123/123/123 122/122/122 121/121/121
f 124/124/124 123/123/123 121/121/121
f 127/127/127 126/126/126 125/125/125
f 128/128/128 127/127/127 125/125/125
f 131/131/131 130/130/130 129/129/129
f 132/132/132 131/131/131 129/129/129
f 135/135/135 134/134/134 133/133/133
f 136/136/136 135/135/135 133/133/133
f 139/139/139 138/138/138 137/137/137
f 140/140/140 139/139/139 137/137/137
f 143/143/143 142/142/142 141/141/141
f 142/142/142 144/144/144 141/141/141
f 141/141/141 144/144/144 145/145/145
f 144/144/144 146/146/146 145/145/145
f 145/145/145 146/146/146 147/147/147
f 146/146/146 148/148/148 147/147/147
f 151/151/151 150/150/150 149/149/149
f 152/152/152 151/151/151 149/149/149
f 155/155/155 154/154/154 153/153/153
f 156/156/156 155/155/155 153/153/153
f 159/159/159 158/158/158 157/157/157
f 160/160/160 159/159/159 157/157/157
f 163/163/163 162/162/162 161/161/161
f 164/164/164 163/163/163 161/161/161
f 167/167/167 166/166/166 165/165/165
f 168/168/168 167/167/167 165/165/165
f 171/171/171 170/170/170 169/169/169
f 172/172/172 171/171/171 169/169/169
f 175/175/175 174/174/174 173/173/173
f 176/176/176 175/175/175 173/173/173
f 179/179/179 178/178/178 177/177/177
f 180/180/180 179/179/179 177/177/177
f 183/183/183 182/182/182 181/181/181
f 184/184/184 183/183/183 181/181/181
f 187/187/187 186/186/186 185/185/185
f 188/188/188 187/187/187 185/185/185
f 191/191/191 190/190/190 189/189/189
f 192/192/192 191/191/191 189/189/189
f 195/195/195 194/194/194 193/193/193
f 196/196/196 195/195/195 193/193/193
f 199/199/199 198/198/198 197/197/197
f 200/200/200 199/199/199 197/197/197
f 203/203/203 202/202/202 201/201/201
f 204/204/204 203/203/203 201/201/201
f 207/207/207 206/206/206 205/205/205
f 208/208/208 207/207/207 205/205/205
f 211/211/211 210/210/210 209/209/209
f 212/212/212 211/211/211 209/209/209
f 215/215/215 214/214/214 213/213/213
f 216/216/216 215/215/215 213/213/213
f 219/219/219 218/218/218 217/217/217
f 220/220/220 219/219/219 217/217/217
f 223/223/223 222/222/222 221/221/221
f 224/224/224 223/223/223 221/221/221
f 227/227/227 226/226/226 225/225/225
f 228/228/228 227/227/227 225/225/225
f 231/231/231 230/230/230 229/229/229
f 232/232/232 231/231/231 229/229/229
f 235/235/235 234/234/234 233/233/233
f 236/236/236 235/235/235 233/233/233
f 239/239/239 238/238/238 237/237/237
f 240/240/240 239/239/239 237/237/237
f 243/243/243 242/242/242 241/241/241
f 244/244/244 243/243/243 241/241/241
f 247/247/247 246/246/246 245/245/245
f 248/248/248 247/247/247 245/245/245
f 251/251/251 250/250/250 249/249/249
f 252/252/252 251/251/251 249/249/249
f 255/255/255 254/254/254 253/253/253
f 256/256/256 255/255/255 253/253/253
f 259/259/259 258/258/258 257/257/257
f 260/260/260 259/259/259 257/257/257
f 263/263/263 262/262/262 261/261/261
f 264/264/264 263/263/263 261/261/261
f 267/267/267 266/266/266 265/265/265
f 268/268/268 267/267/267 265/265/265
f 271/271/271 270/270/270 269/269/269
f 272/272/272 271/271/271 269/269/269
f 275/275/275 274/274/274 273/273/273
f 276/276/276 275/275/275 273/273/273
f 279/279/279 278/278/278 277/277/277
f 280/280/280 279/279/279 277/277/277
f 283/283/283 282/282/282 281/281/281
f 284/284/284 283/283/283 281/281/281
g Mart06_1
f 287/287/287 286/286/286 285/285/285
f 288/288/288 287/287/287 285/285/285
