g Mart09
v 2.967895 -0.012224435 0.9432704
v 3.0169332 -0.012224445 0.82488155
v 3.1353223 0.16617407 0.9432704
v 3.0169332 -0.012224445 0.82488155
v 3.1353223 -0.012224463 0.77584326
v 3.1353223 0.16617407 0.9432704
v 3.1353223 -0.012224463 0.77584326
v 3.253711 -0.01222448 0.8248815
v 3.1353223 0.16617407 0.9432704
v 3.253711 -0.01222448 0.8248815
v 3.3027492 -0.012224492 0.94327044
v 3.1353223 0.16617407 0.9432704
v 3.3027492 -0.012224492 0.94327044
v 3.253711 -0.012224485 1.0616592
v 3.1353223 0.16617407 0.9432704
v 3.253711 -0.012224485 1.0616592
v 3.135322 -0.012224463 1.1106975
v 3.1353223 0.16617407 0.9432704
v 3.135322 -0.012224463 1.1106975
v 3.0169334 -0.012224441 1.0616593
v 3.1353223 0.16617407 0.9432704
v 3.0169334 -0.012224441 1.0616593
v 2.967895 -0.012224435 0.9432704
v 3.1353223 0.16617407 0.9432704
v 3.9340053 -0.012224432 0.94327056
v 3.9830434 -0.012224452 0.8248818
v 4.1014323 0.16617407 0.9432706
v 3.9830434 -0.012224452 0.8248818
v 4.1014323 -0.012224463 0.7758435
v 4.1014323 0.16617407 0.9432706
v 4.1014323 -0.012224463 0.7758435
v 4.219821 -0.012224474 0.82488173
v 4.1014323 0.16617407 0.9432706
v 4.219821 -0.012224474 0.82488173
v 4.2688594 -0.012224496 0.9432707
v 4.1014323 0.16617407 0.9432706
v 4.2688594 -0.012224496 0.9432707
v 4.219821 -0.012224481 1.0616595
v 4.1014323 0.16617407 0.9432706
v 4.219821 -0.012224481 1.0616595
v 4.1014323 -0.012224466 1.1106977
v 4.1014323 0.16617407 0.9432706
v 4.1014323 -0.012224466 1.1106977
v 3.9830434 -0.012224441 1.0616596
v 4.1014323 0.16617407 0.9432706
v 3.9830434 -0.012224441 1.0616596
v 3.9340053 -0.012224432 0.94327056
v 4.1014323 0.16617407 0.9432706
v 2.967895 -0.012224435 -0.9359925
v 3.0169332 -0.012224445 -1.0543814
v 3.1353223 0.16617407 -0.9359925
v 3.0169332 -0.012224445 -1.0543814
v 3.1353223 -0.012224463 -1.1034195
v 3.1353223 0.16617407 -0.9359925
v 3.1353223 -0.012224463 -1.1034195
v 3.253711 -0.01222448 -1.0543814
v 3.1353223 0.16617407 -0.9359925
v 3.253711 -0.01222448 -1.0543814
v 3.3027492 -0.012224492 -0.9359924
v 3.1353223 0.16617407 -0.9359925
v 3.3027492 -0.012224492 -0.9359924
v 3.253711 -0.012224485 -0.81760365
v 3.1353223 0.16617407 -0.9359925
v 3.253711 -0.012224485 -0.81760365
v 3.135322 -0.012224463 -0.76856536
v 3.1353223 0.16617407 -0.9359925
v 3.135322 -0.012224463 -0.76856536
v 3.0169334 -0.012224441 -0.8176035
v 3.1353223 0.16617407 -0.9359925
v 3.0169334 -0.012224441 -0.8176035
v 2.967895 -0.012224435 -0.9359925
v 3.1353223 0.16617407 -0.9359925
v 3.9340053 -0.012224432 -0.9359923
v 3.9830434 -0.012224452 -1.0543811
v 4.1014323 0.16617407 -0.93599224
v 3.9830434 -0.012224452 -1.0543811
v 4.1014323 -0.012224463 -1.1034193
v 4.1014323 0.16617407 -0.93599224
v 4.1014323 -0.012224463 -1.1034193
v 4.219821 -0.012224474 -1.0543811
v 4.1014323 0.16617407 -0.93599224
v 4.219821 -0.012224474 -1.0543811
v 4.2688594 -0.012224496 -0.9359922
v 4.1014323 0.16617407 -0.93599224
v 4.2688594 -0.012224496 -0.9359922
v 4.219821 -0.012224481 -0.8176034
v 4.1014323 0.16617407 -0.93599224
v 4.219821 -0.012224481 -0.8176034
v 4.1014323 -0.012224466 -0.7685651
v 4.1014323 0.16617407 -0.93599224
v 4.1014323 -0.012224466 -0.7685651
v 3.9830434 -0.012224441 -0.81760335
v 4.1014323 0.16617407 -0.93599224
v 3.9830434 -0.012224441 -0.81760335
v 3.9340053 -0.012224432 -0.9359923
v 4.1014323 0.16617407 -0.93599224
v 2.0537238 -3.844436E-10 -1.1767483
v 1.9382744 1.9503368E-08 -1.1767159
v 1.9382739 1.5838099 -1.1767159
v 2.0537233 1.5838099 -1.1767483
v -2.0538948 1.0024489E-08 2.6940243
v -2.0541527 -1.0323825E-08 -2.888421
v -2.0541527 4.0206885 -2.888421
v -2.0534823 4.020688 2.6940246
v 2.0530534 4.0206885 -2.8878474
v 2.055028 4.020688 2.6945984
v -2.0534823 4.020688 2.6940246
v -2.0541527 4.0206885 -2.888421
v -2.0534823 4.020688 2.6940246
v 2.055028 4.020688 2.6945984
v 2.055026 1.0029206E-08 2.6945984
v -2.0538948 1.0024489E-08 2.6940243
v 2.0830317 2.3170526 2.736602
v 2.082354 2.3170526 -2.9298432
v 2.082354 2.9725375 -2.9298432
v 2.0830317 2.9725375 2.736602
v 2.0830317 3.6280215 2.736602
v 2.0830317 2.9725375 2.736602
v 2.082354 2.9725375 -2.9298432
v 2.082354 3.6280215 -2.9298432
v 2.082354 3.6280215 -2.9298432
v 2.082354 2.9725375 -2.9298432
v -2.082155 2.9725375 -2.930425
v -2.082155 3.6280215 -2.930425
v 2.0830317 2.3170526 2.736602
v 2.0830317 2.9725375 2.736602
v -2.0814774 2.9725375 2.7360203
v -2.0814774 2.3170526 2.7360203
v 2.0830317 2.9725375 2.736602
v 2.0830317 3.6280215 2.736602
v -2.0814774 3.6280215 2.7360203
v -2.0814774 2.9725375 2.7360203
v 2.082354 2.9725375 -2.9298432
v 2.082354 2.3170526 -2.9298432
v -2.082155 2.3170526 -2.930425
v -2.082155 2.9725375 -2.930425
v -2.0814774 2.3170526 2.7360203
v -2.0814774 2.9725375 2.7360203
v -2.082155 2.9725375 -2.930425
v -2.082155 2.3170526 -2.930425
v -2.0814774 2.9725375 2.7360203
v -2.0814774 3.6280215 2.7360203
v -2.082155 3.6280215 -2.930425
v -2.082155 2.9725375 -2.930425
v 2.0530534 4.0206885 -2.8878474
v -2.0541527 4.0206885 -2.888421
v -2.0541527 -1.0323825E-08 -2.888421
v 2.0530534 -1.0319109E-08 -2.8878474
v 2.0537233 1.5838099 -1.1767483
v 2.0530534 -1.0319109E-08 -2.8878474
v 2.0537238 -3.844436E-10 -1.1767483
v 2.0530534 4.0206885 -2.8878474
v 2.0543413 1.5838096 1.0632534
v 2.055028 4.020688 2.6945984
v 2.05434 -3.844436E-10 1.0632534
v 2.055026 1.0029206E-08 2.6945984
v 1.9388924 1.5838096 1.063282
v 1.9382739 1.5838099 -1.1767159
v 1.9382744 1.9503368E-08 -1.1767159
v 1.9388909 1.9503368E-08 1.063282
v 2.0537233 1.5838099 -1.1767483
v 1.9382739 1.5838099 -1.1767159
v 1.9388924 1.5838096 1.063282
v 2.0543413 1.5838096 1.0632534
v 2.0543413 1.5838096 1.0632534
v 1.9388924 1.5838096 1.063282
v 1.9388909 1.9503368E-08 1.063282
v 2.05434 -3.844436E-10 1.0632534
v 2.1851335 2.2849162 2.9159653
v 2.1851335 2.9725375 2.9159653
v 2.1844234 2.9725375 -3.1091807
v 2.1844234 2.2849162 -3.1091807
v 2.1851335 3.6601572 2.9159653
v 2.1844234 3.6601572 -3.1091807
v 2.1844234 2.9725375 -3.1091807
v 2.1851335 2.9725375 2.9159653
v 2.1844234 3.6601572 -3.1091807
v -2.1842573 3.6601572 -3.109788
v -2.1842573 2.9725375 -3.109788
v 2.1844234 2.9725375 -3.1091807
v 2.1851335 2.2849162 2.9159653
v -2.1835468 2.2849162 2.915358
v -2.1835468 2.9725375 2.915358
v 2.1851335 2.9725375 2.9159653
v 2.1851335 2.9725375 2.9159653
v -2.1835468 2.9725375 2.915358
v -2.1835468 3.6601572 2.915358
v 2.1851335 3.6601572 2.9159653
v 2.1844234 2.9725375 -3.1091807
v -2.1842573 2.9725375 -3.109788
v -2.1842573 2.2849162 -3.109788
v 2.1844234 2.2849162 -3.1091807
v -2.1835468 2.2849162 2.915358
v -2.1842573 2.2849162 -3.109788
v -2.1842573 2.9725375 -3.109788
v -2.1835468 2.9725375 2.915358
v -2.1835468 2.9725375 2.915358
v -2.1842573 2.9725375 -3.109788
v -2.1842573 3.6601572 -3.109788
v -2.1835468 3.6601572 2.915358
v -2.0814774 3.6280215 2.7360203
v -2.1835468 3.6601572 2.915358
v -2.1842573 3.6601572 -3.109788
v -2.082155 3.6280215 -2.930425
v -2.082155 2.3170526 -2.930425
v -2.1842573 2.2849162 -3.109788
v -2.1835468 2.2849162 2.915358
v -2.0814774 2.3170526 2.7360203
v 2.0830317 3.6280215 2.736602
v 2.1851335 3.6601572 2.9159653
v -2.1835468 3.6601572 2.915358
v -2.0814774 3.6280215 2.7360203
v 2.082354 3.6280215 -2.9298432
v 2.1844234 3.6601572 -3.1091807
v 2.1851335 3.6601572 2.9159653
v 2.0830317 3.6280215 2.736602
v -2.0814774 2.3170526 2.7360203
v -2.1835468 2.2849162 2.915358
v 2.1851335 2.2849162 2.9159653
v 2.0830317 2.3170526 2.736602
v 2.0830317 2.3170526 2.736602
v 2.1851335 2.2849162 2.9159653
v 2.1844234 2.2849162 -3.1091807
v 2.082354 2.3170526 -2.9298432
v -2.082155 3.6280215 -2.930425
v -2.1842573 3.6601572 -3.109788
v 2.1844234 3.6601572 -3.1091807
v 2.082354 3.6280215 -2.9298432
v 2.082354 2.3170526 -2.9298432
v 2.1844234 2.2849162 -3.1091807
v -2.1842573 2.2849162 -3.109788
v -2.082155 2.3170526 -2.930425
v 2.055024 2.1514308 -1.9271126
v 3.501116 2.1514308 -0.81473446
v 3.501116 2.2849162 -0.81473446
v 2.055024 2.2849162 -1.9271126
v 3.501116 2.1514308 -0.81473446
v 3.5011144 2.1514308 0.6829834
v 3.5011144 2.2849162 0.6829834
v 3.501116 2.2849162 -0.81473446
v 3.5011144 2.1514308 0.6829834
v 2.055022 2.1514308 1.7953606
v 2.055022 2.2849162 1.7953606
v 3.5011144 2.2849162 0.6829834
v 3.501116 1.5517766 -0.81473446
v 2.055024 1.5517766 -1.9271126
v 2.055022 1.5517766 1.7953606
v 3.5011144 1.5517766 0.6829834
v 1.97576 2.2849162 1.5632548
v 3.5011144 2.2849162 0.6829834
v 2.055022 2.2849162 1.7953606
v 3.199376 2.2849162 0.62201226
v 3.501116 2.2849162 -0.81473446
v 3.2176692 2.2849162 -0.7354722
v 2.055024 2.2849162 -1.9271126
v 1.9940529 2.2849162 -1.6767159
v 1.9940529 2.2849162 -1.6767159
v 3.2176692 2.2849162 -0.7354722
v 3.2176692 1.8345351 -0.7354722
v 1.9940529 1.8345351 -1.6767159
v 3.2176692 2.2849162 -0.7354722
v 3.199376 2.2849162 0.62201226
v 3.199376 1.8345351 0.62201226
v 3.2176692 1.8345351 -0.7354722
v 3.199376 1.8345351 0.62201226
v 3.199376 2.2849162 0.62201226
v 1.97576 2.2849162 1.5632548
v 1.97576 1.8345351 1.5632548
v 1.97576 1.8345351 1.5632548
v 1.9940529 1.8345351 -1.6767159
v 3.2176692 1.8345351 -0.7354722
v 3.199376 1.8345351 0.62201226
v 3.5011144 1.7030602 0.6829834
v 2.055022 1.7030602 1.7953606
v 2.055022 2.1514308 1.7953606
v 3.5011144 2.1514308 0.6829834
v 3.501116 1.7030602 -0.81473446
v 3.5011144 1.7030602 0.6829834
v 3.5011144 2.1514308 0.6829834
v 3.501116 2.1514308 -0.81473446
v 2.055024 1.7030602 -1.9271126
v 3.501116 1.7030602 -0.81473446
v 3.501116 2.1514308 -0.81473446
v 2.055024 2.1514308 -1.9271126
v 2.055024 1.5517766 -1.9271126
v 3.501116 1.5517766 -0.81473446
v 3.501116 1.7030602 -0.81473446
v 2.055024 1.7030602 -1.9271126
v 3.501116 1.5517766 -0.81473446
v 3.5011144 1.5517766 0.6829834
v 3.5011144 1.7030602 0.6829834
v 3.501116 1.7030602 -0.81473446
v 3.5011144 1.5517766 0.6829834
v 2.055022 1.5517766 1.7953606
v 2.055022 1.7030602 1.7953606
v 3.5011144 1.7030602 0.6829834
v 3.253711 -0.01222448 0.8248815
v 3.1353223 -0.012224463 0.77584326
v 3.0169332 -0.012224445 0.82488155
v 3.3027492 -0.012224492 0.94327044
v 2.967895 -0.012224435 0.9432704
v 3.0169334 -0.012224441 1.0616593
v 3.253711 -0.012224485 1.0616592
v 3.135322 -0.012224463 1.1106975
v 3.1353223 0.7086485 0.9432704
v 3.2362895 0.7742615 0.9760761
v 3.197723 0.7742614 0.8573823
v 3.2362897 0.88042593 0.91046476
v 3.197723 0.88042605 1.0291585
v 3.1353223 0.94603866 0.94327044
v 3.1353223 0.88042593 0.8371064
v 3.1353223 0.94603866 0.94327044
v 3.0729213 0.7742614 0.8573823
v 3.1353223 0.7086485 0.9432704
v 3.0343552 0.880426 0.9104647
v 3.1353223 0.94603866 0.94327044
v 3.0343552 0.7742615 0.97607607
v 3.1353223 0.7086485 0.9432704
v 3.0729213 0.880426 1.0291585
v 3.1353223 0.94603866 0.94327044
v 3.1353223 0.7742615 1.0494344
v 3.1353223 0.7086485 0.9432704
v 3.197723 0.88042605 1.0291585
v 3.1353223 0.94603866 0.94327044
v 3.2362895 0.7742615 0.9760761
v 3.1353223 0.7086485 0.9432704
v 3.0602546 0.07312323 0.9432704
v 3.0822415 0.78092 0.8901894
v 3.0602546 0.78092 0.9432704
v 3.0822413 0.07312322 0.8901894
v 3.1353223 0.78092 0.8682028
v 3.1353223 0.073123194 0.8682028
v 3.1884031 0.78092 0.8901894
v 3.1884031 0.07312319 0.8901894
v 3.21039 0.78092 0.9432704
v 3.2103899 0.07312319 0.9432704
v 3.1884031 0.78092 0.99635136
v 3.1884031 0.07312319 0.99635136
v 3.1353223 0.78092 1.018338
v 3.135322 0.073123194 1.018338
v 3.0822415 0.78092 0.99635136
v 3.0822413 0.07312322 0.99635136
v 3.0602546 0.78092 0.9432704
v 3.0602546 0.07312323 0.9432704
v 4.219821 -0.012224474 0.82488173
v 4.1014323 -0.012224463 0.7758435
v 3.9830434 -0.012224452 0.8248818
v 4.2688594 -0.012224496 0.9432707
v 3.9340053 -0.012224432 0.94327056
v 3.9830434 -0.012224441 1.0616596
v 4.219821 -0.012224481 1.0616595
v 4.1014323 -0.012224466 1.1106977
v 4.101433 0.7086485 0.94327056
v 4.2023997 0.7742615 0.9760763
v 4.163833 0.7742614 0.85738254
v 4.2023997 0.88042593 0.910465
v 4.163833 0.88042605 1.0291587
v 4.101433 0.94603866 0.9432706
v 4.101433 0.88042593 0.8371066
v 4.101433 0.94603866 0.9432706
v 4.0390315 0.7742614 0.8573825
v 4.101433 0.7086485 0.94327056
v 4.0004654 0.880426 0.91046494
v 4.101433 0.94603866 0.9432706
v 4.000465 0.7742615 0.9760763
v 4.101433 0.7086485 0.94327056
v 4.0390315 0.88042605 1.0291587
v 4.101433 0.94603866 0.9432706
v 4.101433 0.7742615 1.0494347
v 4.101433 0.7086485 0.94327056
v 4.163833 0.88042605 1.0291587
v 4.101433 0.94603866 0.9432706
v 4.2023997 0.7742615 0.9760763
v 4.101433 0.7086485 0.94327056
v 4.026365 0.073123224 0.9432707
v 4.0483513 0.78092 0.8901896
v 4.026365 0.78092 0.9432707
v 4.0483513 0.07312321 0.8901896
v 4.101433 0.78092 0.868203
v 4.1014323 0.073123194 0.868203
v 4.1545134 0.78092 0.89018965
v 4.154513 0.07312319 0.89018965
v 4.1765 0.78092 0.9432706
v 4.1765 0.07312319 0.9432706
v 4.1545134 0.78092 0.9963516
v 4.154513 0.07312319 0.9963516
v 4.101433 0.78092 1.0183382
v 4.1014323 0.073123194 1.0183382
v 4.048352 0.78092 0.99635166
v 4.048352 0.07312321 0.99635166
v 4.026365 0.78092 0.9432707
v 4.026365 0.073123224 0.9432707
v 3.9966812 0.5802272 0.94327056
v 4.045272 0.8213563 1.0008501
v 4.1015334 0.71137106 0.9432706
v 3.9609666 0.68443465 1.0169418
v 3.8892112 0.49063152 0.94327056
v 3.8610322 0.60242647 1.0162926
v 3.7784662 0.4345973 0.9432707
v 3.7635808 0.55242115 1.0161887
v 3.6691349 0.41903675 0.9432707
v 3.6653438 0.5410204 1.0150975
v 3.5627892 0.41903687 0.9432706
v 3.5665803 0.5410205 1.0150975
v 3.4534576 0.43459743 0.9432706
v 3.4683433 0.5524211 1.0161886
v 3.3427129 0.49063155 0.94327056
v 3.3708918 0.60242647 1.0162925
v 3.2352428 0.5802272 0.94327056
v 3.2709575 0.68443465 1.0169417
v 3.130391 0.71137106 0.94327056
v 3.1866527 0.8213563 1.00085
v 3.9609666 0.68443465 1.0169418
v 4.045272 0.8213563 0.885691
v 4.045272 0.8213563 1.0008501
v 3.9609666 0.6844344 0.86959946
v 3.8610322 0.60242647 1.0162926
v 3.8610322 0.60242647 0.8702487
v 3.7635808 0.55242115 1.0161887
v 3.7635808 0.5524211 0.87035245
v 3.6653438 0.5410204 1.0150975
v 3.6653438 0.54102033 0.8714436
v 3.5665803 0.5410205 1.0150975
v 3.5665803 0.5410205 0.8714436
v 3.4683433 0.5524211 1.0161886
v 3.4683433 0.5524211 0.8703524
v 3.3708918 0.60242647 1.0162925
v 3.3708918 0.6024264 0.87024856
v 3.2709575 0.68443465 1.0169417
v 3.2709577 0.68443465 0.86959934
v 3.1866527 0.8213563 1.00085
v 3.1866527 0.8213563 0.8856909
v 3.9609666 0.6844344 0.86959946
v 4.1015334 0.71137106 0.9432706
v 4.045272 0.8213563 0.885691
v 3.9966812 0.5802272 0.94327056
v 3.8610322 0.60242647 0.8702487
v 3.8892112 0.49063152 0.94327056
v 3.7635808 0.5524211 0.87035245
v 3.7784662 0.4345973 0.9432707
v 3.6653438 0.54102033 0.8714436
v 3.6691349 0.41903675 0.9432707
v 3.5665803 0.5410205 0.8714436
v 3.5627892 0.41903687 0.9432706
v 3.4683433 0.5524211 0.8703524
v 3.4534576 0.43459743 0.9432706
v 3.3708918 0.6024264 0.87024856
v 3.3427129 0.49063155 0.94327056
v 3.2709577 0.68443465 0.86959934
v 3.2352428 0.5802272 0.94327056
v 3.1866527 0.8213563 0.8856909
v 3.130391 0.71137106 0.94327056
v 3.253711 -0.01222448 -1.0543814
v 3.1353223 -0.012224463 -1.1034195
v 3.0169332 -0.012224445 -1.0543814
v 3.3027492 -0.012224492 -0.9359924
v 2.967895 -0.012224435 -0.9359925
v 3.0169334 -0.012224441 -0.8176035
v 3.253711 -0.012224485 -0.81760365
v 3.135322 -0.012224463 -0.76856536
v 3.1353223 0.7086485 -0.9359925
v 3.2362895 0.7742615 -0.9031868
v 3.197723 0.7742614 -1.0218806
v 3.2362897 0.88042593 -0.9687981
v 3.197723 0.88042605 -0.85010433
v 3.1353223 0.94603866 -0.9359924
v 3.1353223 0.88042593 -1.0421565
v 3.1353223 0.94603866 -0.9359924
v 3.0729213 0.7742614 -1.0218806
v 3.1353223 0.7086485 -0.9359925
v 3.0343552 0.880426 -0.96879816
v 3.1353223 0.94603866 -0.9359924
v 3.0343552 0.7742615 -0.9031868
v 3.1353223 0.7086485 -0.9359925
v 3.0729213 0.880426 -0.8501044
v 3.1353223 0.94603866 -0.9359924
v 3.1353223 0.7742615 -0.82982844
v 3.1353223 0.7086485 -0.9359925
v 3.197723 0.88042605 -0.85010433
v 3.1353223 0.94603866 -0.9359924
v 3.2362895 0.7742615 -0.9031868
v 3.1353223 0.7086485 -0.9359925
v 3.0602546 0.07312323 -0.9359925
v 3.0822415 0.78092 -0.98907346
v 3.0602546 0.78092 -0.9359925
v 3.0822413 0.07312322 -0.98907346
v 3.1353223 0.78092 -1.0110601
v 3.1353223 0.073123194 -1.0110601
v 3.1884031 0.78092 -0.98907346
v 3.1884031 0.07312319 -0.98907346
v 3.21039 0.78092 -0.9359925
v 3.2103899 0.07312319 -0.9359925
v 3.1884031 0.78092 -0.8829115
v 3.1884031 0.07312319 -0.8829115
v 3.1353223 0.78092 -0.86092484
v 3.135322 0.073123194 -0.86092484
v 3.0822415 0.78092 -0.8829115
v 3.0822413 0.07312322 -0.8829115
v 3.0602546 0.78092 -0.9359925
v 3.0602546 0.07312323 -0.9359925
v 4.219821 -0.012224474 -1.0543811
v 4.1014323 -0.012224463 -1.1034193
v 3.9830434 -0.012224452 -1.0543811
v 4.2688594 -0.012224496 -0.9359922
v 3.9340053 -0.012224432 -0.9359923
v 3.9830434 -0.012224441 -0.81760335
v 4.219821 -0.012224481 -0.8176034
v 4.1014323 -0.012224466 -0.7685651
v 4.101433 0.7086485 -0.9359923
v 4.2023997 0.7742615 -0.90318656
v 4.163833 0.7742614 -1.0218804
v 4.2023997 0.88042593 -0.96879786
v 4.163833 0.88042605 -0.8501041
v 4.101433 0.94603866 -0.93599224
v 4.101433 0.88042593 -1.0421562
v 4.101433 0.94603866 -0.93599224
v 4.0390315 0.7742614 -1.0218804
v 4.101433 0.7086485 -0.9359923
v 4.0004654 0.880426 -0.9687979
v 4.101433 0.94603866 -0.93599224
v 4.000465 0.7742615 -0.90318656
v 4.101433 0.7086485 -0.9359923
v 4.0390315 0.88042605 -0.85010415
v 4.101433 0.94603866 -0.93599224
v 4.101433 0.7742615 -0.82982826
v 4.101433 0.7086485 -0.9359923
v 4.163833 0.88042605 -0.8501041
v 4.101433 0.94603866 -0.93599224
v 4.2023997 0.7742615 -0.90318656
v 4.101433 0.7086485 -0.9359923
v 4.026365 0.073123224 -0.9359922
v 4.0483513 0.78092 -0.9890733
v 4.026365 0.78092 -0.9359922
v 4.0483513 0.07312321 -0.9890733
v 4.101433 0.78092 -1.0110599
v 4.1014323 0.073123194 -1.0110599
v 4.1545134 0.78092 -0.9890732
v 4.154513 0.07312319 -0.9890732
v 4.1765 0.78092 -0.93599224
v 4.1765 0.07312319 -0.93599224
v 4.1545134 0.78092 -0.88291126
v 4.154513 0.07312319 -0.88291126
v 4.101433 0.78092 -0.8609246
v 4.1014323 0.073123194 -0.8609246
v 4.048352 0.78092 -0.8829112
v 4.048352 0.07312321 -0.8829112
v 4.026365 0.78092 -0.9359922
v 4.026365 0.073123224 -0.9359922
v 3.9966812 0.5802272 -0.9359923
v 4.045272 0.8213563 -0.87841284
v 4.1015334 0.71137106 -0.93599224
v 3.9609666 0.68443465 -0.8623211
v 3.8892112 0.49063152 -0.9359923
v 3.8610322 0.60242647 -0.8629703
v 3.7784662 0.4345973 -0.9359922
v 3.7635808 0.55242115 -0.8630741
v 3.6691349 0.41903675 -0.9359922
v 3.6653438 0.5410204 -0.86416537
v 3.5627892 0.41903687 -0.93599224
v 3.5665803 0.5410205 -0.8641654
v 3.4534576 0.43459743 -0.93599224
v 3.4683433 0.5524211 -0.8630742
v 3.3427129 0.49063155 -0.9359923
v 3.3708918 0.60242647 -0.8629704
v 3.2352428 0.5802272 -0.9359923
v 3.2709575 0.68443465 -0.86232126
v 3.130391 0.71137106 -0.9359923
v 3.1866527 0.8213563 -0.8784129
v 3.9609666 0.68443465 -0.8623211
v 4.045272 0.8213563 -0.9935719
v 4.045272 0.8213563 -0.87841284
v 3.9609666 0.6844344 -1.0096633
v 3.8610322 0.60242647 -0.8629703
v 3.8610322 0.60242647 -1.0090142
v 3.7635808 0.55242115 -0.8630741
v 3.7635808 0.5524211 -1.0089104
v 3.6653438 0.5410204 -0.86416537
v 3.6653438 0.54102033 -1.0078192
v 3.5665803 0.5410205 -0.8641654
v 3.5665803 0.5410205 -1.0078193
v 3.4683433 0.5524211 -0.8630742
v 3.4683433 0.5524211 -1.0089105
v 3.3708918 0.60242647 -0.8629704
v 3.3708918 0.6024264 -1.0090144
v 3.2709575 0.68443465 -0.86232126
v 3.2709577 0.68443465 -1.0096636
v 3.1866527 0.8213563 -0.8784129
v 3.1866527 0.8213563 -0.99357194
v 3.9609666 0.6844344 -1.0096633
v 4.1015334 0.71137106 -0.93599224
v 4.045272 0.8213563 -0.9935719
v 3.9966812 0.5802272 -0.9359923
v 3.8610322 0.60242647 -1.0090142
v 3.8892112 0.49063152 -0.9359923
v 3.7635808 0.5524211 -1.0089104
v 3.7784662 0.4345973 -0.9359922
v 3.6653438 0.54102033 -1.0078192
v 3.6691349 0.41903675 -0.9359922
v 3.5665803 0.5410205 -1.0078193
v 3.5627892 0.41903687 -0.93599224
v 3.4683433 0.5524211 -1.0089105
v 3.4534576 0.43459743 -0.93599224
v 3.3708918 0.6024264 -1.0090144
v 3.3427129 0.49063155 -0.9359923
v 3.2709577 0.68443465 -1.0096636
v 3.2352428 0.5802272 -0.9359923
v 3.1866527 0.8213563 -0.99357194
v 3.130391 0.71137106 -0.9359923
v 2.2685695 2.2178626 1.0821345
v 2.2685695 4.382138 1.0821347
v 2.2685697 4.382138 -1.0821409
v 2.2685697 2.2178626 -1.0821412
vt 0.030348241 0.34665725
vt 0.030213475 0.34665725
vt 0.030213475 0.34719625
vt 0.030213475 0.34665725
vt 0.03007871 0.34665725
vt 0.03007871 0.34719625
vt 0.03007871 0.34665725
vt 0.029944003 0.34665725
vt 0.029944003 0.34719625
vt 0.029944003 0.34665725
vt 0.029809237 0.34665725
vt 0.029809237 0.34719625
vt 0.029809237 0.34665725
vt 0.02967447 0.34665725
vt 0.02967447 0.34719625
vt 0.02967447 0.34665725
vt 0.029539704 0.34665725
vt 0.029539704 0.34719625
vt 0.029539704 0.34665725
vt 0.029404998 0.34665725
vt 0.029404998 0.34719625
vt 0.029404998 0.34665725
vt 0.029270232 0.34665725
vt 0.029270232 0.34719625
vt 0.030348241 0.34665725
vt 0.030213475 0.34665725
vt 0.030213475 0.34719625
vt 0.030213475 0.34665725
vt 0.03007871 0.34665725
vt 0.03007871 0.34719625
vt 0.03007871 0.34665725
vt 0.029944003 0.34665725
vt 0.029944003 0.34719625
vt 0.029944003 0.34665725
vt 0.029809237 0.34665725
vt 0.029809237 0.34719625
vt 0.029809237 0.34665725
vt 0.02967447 0.34665725
vt 0.02967447 0.34719625
vt 0.02967447 0.34665725
vt 0.029539704 0.34665725
vt 0.029539704 0.34719625
vt 0.029539704 0.34665725
vt 0.029404998 0.34665725
vt 0.029404998 0.34719625
vt 0.029404998 0.34665725
vt 0.029270232 0.34665725
vt 0.029270232 0.34719625
vt 0.030348241 0.34665725
vt 0.030213475 0.34665725
vt 0.030213475 0.34719625
vt 0.030213475 0.34665725
vt 0.03007871 0.34665725
vt 0.03007871 0.34719625
vt 0.03007871 0.34665725
vt 0.029944003 0.34665725
vt 0.029944003 0.34719625
vt 0.029944003 0.34665725
vt 0.029809237 0.34665725
vt 0.029809237 0.34719625
vt 0.029809237 0.34665725
vt 0.02967447 0.34665725
vt 0.02967447 0.34719625
vt 0.02967447 0.34665725
vt 0.029539704 0.34665725
vt 0.029539704 0.34719625
vt 0.029539704 0.34665725
vt 0.029404998 0.34665725
vt 0.029404998 0.34719625
vt 0.029404998 0.34665725
vt 0.029270232 0.34665725
vt 0.029270232 0.34719625
vt 0.030348241 0.34665725
vt 0.030213475 0.34665725
vt 0.030213475 0.34719625
vt 0.030213475 0.34665725
vt 0.03007871 0.34665725
vt 0.03007871 0.34719625
vt 0.03007871 0.34665725
vt 0.029944003 0.34665725
vt 0.029944003 0.34719625
vt 0.029944003 0.34665725
vt 0.029809237 0.34665725
vt 0.029809237 0.34719625
vt 0.029809237 0.34665725
vt 0.02967447 0.34665725
vt 0.02967447 0.34719625
vt 0.02967447 0.34665725
vt 0.029539704 0.34665725
vt 0.029539704 0.34719625
vt 0.029539704 0.34665725
vt 0.029404998 0.34665725
vt 0.029404998 0.34719625
vt 0.029404998 0.34665725
vt 0.029270232 0.34665725
vt 0.029270232 0.34719625
vt 0.71381205 0.78131247
vt 0.71381205 0.78131247
vt 0.71381205 0.78131247
vt 0.71381205 0.78131247
vt 0.71381205 0.78131247
vt 0.71381205 0.78131247
vt 0.71381205 0.78131247
vt 0.71381205 0.78131247
vt 0.71381205 0.78131247
vt 0.71381205 0.78131247
vt 0.71381205 0.78131247
vt 0.71381205 0.78131247
vt 0.71381205 0.78131247
vt 0.71381205 0.78131247
vt 0.71381205 0.78131247
vt 0.71381205 0.78131247
vt 0.21834314 0.65604085
vt 0.21834314 0.65604085
vt 0.21834314 0.65604085
vt 0.21834314 0.65604085
vt 0.21887505 0.46674383
vt 0.21887505 0.46674383
vt 0.21887505 0.46674383
vt 0.21887505 0.46674383
vt 0.21887505 0.46674383
vt 0.21887505 0.46674383
vt 0.21887505 0.46674383
vt 0.21887505 0.46674383
vt 0.21834314 0.65604085
vt 0.21834314 0.65604085
vt 0.21834314 0.65604085
vt 0.21834314 0.65604085
vt 0.21887505 0.46674383
vt 0.21887505 0.46674383
vt 0.21887505 0.46674383
vt 0.21887505 0.46674383
vt 0.21834314 0.65604085
vt 0.21834314 0.65604085
vt 0.21834314 0.65604085
vt 0.21834314 0.65604085
vt 0.21834314 0.65604085
vt 0.21834314 0.65604085
vt 0.21834314 0.65604085
vt 0.21834314 0.65604085
vt 0.21887505 0.46674383
vt 0.21887505 0.46674383
vt 0.21887505 0.46674383
vt 0.21887505 0.46674383
vt 0.71381205 0.78131247
vt 0.71381205 0.78131247
vt 0.71381205 0.78131247
vt 0.71381205 0.78131247
vt 0.71381205 0.78131247
vt 0.71381205 0.78131247
vt 0.71381205 0.78131247
vt 0.71381205 0.78131247
vt 0.71381205 0.78131247
vt 0.71381205 0.78131247
vt 0.71381205 0.78131247
vt 0.71381205 0.78131247
vt 0.031345412 0.5977256
vt 0.031345412 0.5977256
vt 0.031345412 0.5977256
vt 0.031345412 0.5977256
vt 0.71381205 0.78131247
vt 0.71381205 0.78131247
vt 0.71381205 0.78131247
vt 0.71381205 0.78131247
vt 0.71381205 0.78131247
vt 0.71381205 0.78131247
vt 0.71381205 0.78131247
vt 0.71381205 0.78131247
vt 0.21834314 0.65604085
vt 0.21834314 0.65604085
vt 0.21834314 0.65604085
vt 0.21834314 0.65604085
vt 0.21887505 0.46674383
vt 0.21887505 0.46674383
vt 0.21887505 0.46674383
vt 0.21887505 0.46674383
vt 0.21887505 0.46674383
vt 0.21887505 0.46674383
vt 0.21887505 0.46674383
vt 0.21887505 0.46674383
vt 0.21834314 0.65604085
vt 0.21834314 0.65604085
vt 0.21834314 0.65604085
vt 0.21834314 0.65604085
vt 0.21887505 0.46674383
vt 0.21887505 0.46674383
vt 0.21887505 0.46674383
vt 0.21887505 0.46674383
vt 0.21834314 0.65604085
vt 0.21834314 0.65604085
vt 0.21834314 0.65604085
vt 0.21834314 0.65604085
vt 0.21834314 0.65604085
vt 0.21834314 0.65604085
vt 0.21834314 0.65604085
vt 0.21834314 0.65604085
vt 0.21887505 0.46674383
vt 0.21887505 0.46674383
vt 0.21887505 0.46674383
vt 0.21887505 0.46674383
vt 0.21887505 0.46674383
vt 0.21887505 0.46674383
vt 0.21887505 0.46674383
vt 0.21887505 0.46674383
vt 0.21834314 0.65604085
vt 0.21834314 0.65604085
vt 0.21834314 0.65604085
vt 0.21834314 0.65604085
vt 0.21887505 0.46674383
vt 0.21887505 0.46674383
vt 0.21887505 0.46674383
vt 0.21887505 0.46674383
vt 0.21887505 0.46674383
vt 0.21887505 0.46674383
vt 0.21887505 0.46674383
vt 0.21887505 0.46674383
vt 0.21834314 0.65604085
vt 0.21834314 0.65604085
vt 0.21834314 0.65604085
vt 0.21834314 0.65604085
vt 0.21834314 0.65604085
vt 0.21834314 0.65604085
vt 0.21834314 0.65604085
vt 0.21834314 0.65604085
vt 0.21887505 0.46674383
vt 0.21887505 0.46674383
vt 0.21887505 0.46674383
vt 0.21887505 0.46674383
vt 0.21834314 0.65604085
vt 0.21834314 0.65604085
vt 0.21834314 0.65604085
vt 0.21834314 0.65604085
vt 0.21905716 0.9050564
vt 0.21905716 0.9050564
vt 0.21905716 0.9050564
vt 0.21905716 0.9050564
vt 0.21905716 0.9050564
vt 0.21905716 0.9050564
vt 0.21905716 0.9050564
vt 0.21905716 0.9050564
vt 0.21905716 0.9050564
vt 0.21905716 0.9050564
vt 0.21905716 0.9050564
vt 0.21905716 0.9050564
vt 0.21905716 0.9050564
vt 0.21905716 0.9050564
vt 0.21905716 0.9050564
vt 0.21905716 0.9050564
vt 0.21905716 0.9050564
vt 0.21905716 0.9050564
vt 0.21905716 0.9050564
vt 0.21905716 0.9050564
vt 0.21905716 0.9050564
vt 0.21905716 0.9050564
vt 0.21905716 0.9050564
vt 0.21905716 0.9050564
vt 0.21905716 0.9050564
vt 0.21905716 0.9050564
vt 0.21905716 0.9050564
vt 0.21905716 0.9050564
vt 0.21905716 0.9050564
vt 0.21905716 0.9050564
vt 0.21905716 0.9050564
vt 0.21905716 0.9050564
vt 0.21905716 0.9050564
vt 0.21905716 0.9050564
vt 0.21905716 0.9050564
vt 0.21905716 0.9050564
vt 0.15813582 0.9059343
vt 0.15813582 0.9059343
vt 0.15813582 0.9059343
vt 0.15813582 0.9059343
vt 0.77980167 0.9066407
vt 0.77980167 0.9066407
vt 0.77980167 0.9066407
vt 0.77980167 0.9066407
vt 0.77980167 0.9066407
vt 0.77980167 0.9066407
vt 0.77980167 0.9066407
vt 0.77980167 0.9066407
vt 0.77980167 0.9066407
vt 0.77980167 0.9066407
vt 0.77980167 0.9066407
vt 0.77980167 0.9066407
vt 0.21905716 0.9050564
vt 0.21905716 0.9050564
vt 0.21905716 0.9050564
vt 0.21905716 0.9050564
vt 0.21905716 0.9050564
vt 0.21905716 0.9050564
vt 0.21905716 0.9050564
vt 0.21905716 0.9050564
vt 0.21905716 0.9050564
vt 0.21905716 0.9050564
vt 0.21905716 0.9050564
vt 0.21905716 0.9050564
vt 0.030261695 0.34620485
vt 0.030337453 0.34638777
vt 0.030261695 0.3465707
vt 0.03007871 0.34612903
vt 0.03007871 0.34664652
vt 0.029895782 0.3465707
vt 0.029895782 0.34620485
vt 0.029820025 0.34638777
vt 0.029466212 0.34611824
vt 0.029368222 0.346288
vt 0.029564202 0.346288
vt 0.029466212 0.34645775
vt 0.029270232 0.34645775
vt 0.029368222 0.3466275
vt 0.029662251 0.34645775
vt 0.029564202 0.3466275
vt 0.029760242 0.346288
vt 0.029662251 0.34611824
vt 0.029858232 0.34645775
vt 0.029760242 0.3466275
vt 0.029956222 0.346288
vt 0.029858232 0.34611824
vt 0.030054212 0.34645775
vt 0.029956222 0.3466275
vt 0.030152261 0.346288
vt 0.030054212 0.34611824
vt 0.030250251 0.34645775
vt 0.030152261 0.3466275
vt 0.030348241 0.346288
vt 0.030250251 0.34611824
vt 0.030073047 0.33821288
vt 0.029156625 0.34187856
vt 0.030073047 0.34187856
vt 0.029156625 0.33821288
vt 0.028240204 0.34187856
vt 0.028240204 0.33821288
vt 0.027323842 0.34187856
vt 0.027323842 0.33821288
vt 0.02640742 0.34187856
vt 0.02640742 0.33821288
vt 0.025491 0.34187856
vt 0.025491 0.33821288
vt 0.024574578 0.34187856
vt 0.024574578 0.33821288
vt 0.023658216 0.34187856
vt 0.023658216 0.33821288
vt 0.022741735 0.34187856
vt 0.022741735 0.33821288
vt 0.030261695 0.34620485
vt 0.030337453 0.34638777
vt 0.030261695 0.3465707
vt 0.03007871 0.34612903
vt 0.03007871 0.34664652
vt 0.029895782 0.3465707
vt 0.029895782 0.34620485
vt 0.029820025 0.34638777
vt 0.029466212 0.34611824
vt 0.029368222 0.346288
vt 0.029564202 0.346288
vt 0.029466212 0.34645775
vt 0.029270232 0.34645775
vt 0.029368222 0.3466275
vt 0.029662251 0.34645775
vt 0.029564202 0.3466275
vt 0.029760242 0.346288
vt 0.029662251 0.34611824
vt 0.029858232 0.34645775
vt 0.029760242 0.3466275
vt 0.029956222 0.346288
vt 0.029858232 0.34611824
vt 0.030054212 0.34645775
vt 0.029956222 0.3466275
vt 0.030152261 0.346288
vt 0.030054212 0.34611824
vt 0.030250251 0.34645775
vt 0.030152261 0.3466275
vt 0.030348241 0.346288
vt 0.030250251 0.34611824
vt 0.030073047 0.33821288
vt 0.029156625 0.34187856
vt 0.030073047 0.34187856
vt 0.029156625 0.33821288
vt 0.028240204 0.34187856
vt 0.028240204 0.33821288
vt 0.027323842 0.34187856
vt 0.027323842 0.33821288
vt 0.02640742 0.34187856
vt 0.02640742 0.33821288
vt 0.025491 0.34187856
vt 0.025491 0.33821288
vt 0.024574578 0.34187856
vt 0.024574578 0.33821288
vt 0.023658216 0.34187856
vt 0.023658216 0.33821288
vt 0.022741735 0.34187856
vt 0.022741735 0.33821288
vt 0.22494331 0.8372124
vt 0.22379819 0.83740324
vt 0.22494331 0.83740324
vt 0.22379819 0.8372124
vt 0.22494331 0.8370215
vt 0.22379819 0.8370215
vt 0.22494331 0.8368307
vt 0.22379819 0.8368307
vt 0.22494331 0.8366398
vt 0.22379819 0.8366398
vt 0.22494331 0.83644897
vt 0.22379819 0.83644897
vt 0.22494331 0.8362581
vt 0.22379819 0.8362581
vt 0.22494331 0.83606726
vt 0.22379819 0.83606726
vt 0.22494331 0.8358764
vt 0.22379819 0.8358764
vt 0.22494331 0.83568555
vt 0.22379819 0.83568555
vt 0.22379819 0.8372124
vt 0.22265306 0.83740324
vt 0.22379819 0.83740324
vt 0.22265306 0.8372124
vt 0.22379819 0.8370215
vt 0.22265306 0.8370215
vt 0.22379819 0.8368307
vt 0.22265306 0.8368307
vt 0.22379819 0.8366398
vt 0.22265306 0.8366398
vt 0.22379819 0.83644897
vt 0.22265306 0.83644897
vt 0.22379819 0.8362581
vt 0.22265306 0.8362581
vt 0.22379819 0.83606726
vt 0.22265306 0.83606726
vt 0.22379819 0.8358764
vt 0.22265306 0.8358764
vt 0.22379819 0.83568555
vt 0.22265306 0.83568555
vt 0.22265306 0.8372124
vt 0.221508 0.83740324
vt 0.22265306 0.83740324
vt 0.221508 0.8372124
vt 0.22265306 0.8370215
vt 0.221508 0.8370215
vt 0.22265306 0.8368307
vt 0.221508 0.8368307
vt 0.22265306 0.8366398
vt 0.221508 0.8366398
vt 0.22265306 0.83644897
vt 0.221508 0.83644897
vt 0.22265306 0.8362581
vt 0.221508 0.8362581
vt 0.22265306 0.83606726
vt 0.221508 0.83606726
vt 0.22265306 0.8358764
vt 0.221508 0.8358764
vt 0.22265306 0.83568555
vt 0.221508 0.83568555
vt 0.030261695 0.34620485
vt 0.030337453 0.34638777
vt 0.030261695 0.3465707
vt 0.03007871 0.34612903
vt 0.03007871 0.34664652
vt 0.029895782 0.3465707
vt 0.029895782 0.34620485
vt 0.029820025 0.34638777
vt 0.029466212 0.34611824
vt 0.029368222 0.346288
vt 0.029564202 0.346288
vt 0.029466212 0.34645775
vt 0.029270232 0.34645775
vt 0.029368222 0.3466275
vt 0.029662251 0.34645775
vt 0.029564202 0.3466275
vt 0.029760242 0.346288
vt 0.029662251 0.34611824
vt 0.029858232 0.34645775
vt 0.029760242 0.3466275
vt 0.029956222 0.346288
vt 0.029858232 0.34611824
vt 0.030054212 0.34645775
vt 0.029956222 0.3466275
vt 0.030152261 0.346288
vt 0.030054212 0.34611824
vt 0.030250251 0.34645775
vt 0.030152261 0.3466275
vt 0.030348241 0.346288
vt 0.030250251 0.34611824
vt 0.030073047 0.33821288
vt 0.029156625 0.34187856
vt 0.030073047 0.34187856
vt 0.029156625 0.33821288
vt 0.028240204 0.34187856
vt 0.028240204 0.33821288
vt 0.027323842 0.34187856
vt 0.027323842 0.33821288
vt 0.02640742 0.34187856
vt 0.02640742 0.33821288
vt 0.025491 0.34187856
vt 0.025491 0.33821288
vt 0.024574578 0.34187856
vt 0.024574578 0.33821288
vt 0.023658216 0.34187856
vt 0.023658216 0.33821288
vt 0.022741735 0.34187856
vt 0.022741735 0.33821288
vt 0.030261695 0.34620485
vt 0.030337453 0.34638777
vt 0.030261695 0.3465707
vt 0.03007871 0.34612903
vt 0.03007871 0.34664652
vt 0.029895782 0.3465707
vt 0.029895782 0.34620485
vt 0.029820025 0.34638777
vt 0.029466212 0.34611824
vt 0.029368222 0.346288
vt 0.029564202 0.346288
vt 0.029466212 0.34645775
vt 0.029270232 0.34645775
vt 0.029368222 0.3466275
vt 0.029662251 0.34645775
vt 0.029564202 0.3466275
vt 0.029760242 0.346288
vt 0.029662251 0.34611824
vt 0.029858232 0.34645775
vt 0.029760242 0.3466275
vt 0.029956222 0.346288
vt 0.029858232 0.34611824
vt 0.030054212 0.34645775
vt 0.029956222 0.3466275
vt 0.030152261 0.346288
vt 0.030054212 0.34611824
vt 0.030250251 0.34645775
vt 0.030152261 0.3466275
vt 0.030348241 0.346288
vt 0.030250251 0.34611824
vt 0.030073047 0.33821288
vt 0.029156625 0.34187856
vt 0.030073047 0.34187856
vt 0.029156625 0.33821288
vt 0.028240204 0.34187856
vt 0.028240204 0.33821288
vt 0.027323842 0.34187856
vt 0.027323842 0.33821288
vt 0.02640742 0.34187856
vt 0.02640742 0.33821288
vt 0.025491 0.34187856
vt 0.025491 0.33821288
vt 0.024574578 0.34187856
vt 0.024574578 0.33821288
vt 0.023658216 0.34187856
vt 0.023658216 0.33821288
vt 0.022741735 0.34187856
vt 0.022741735 0.33821288
vt 0.22494331 0.8372124
vt 0.22379819 0.83740324
vt 0.22494331 0.83740324
vt 0.22379819 0.8372124
vt 0.22494331 0.8370215
vt 0.22379819 0.8370215
vt 0.22494331 0.8368307
vt 0.22379819 0.8368307
vt 0.22494331 0.8366398
vt 0.22379819 0.8366398
vt 0.22494331 0.83644897
vt 0.22379819 0.83644897
vt 0.22494331 0.8362581
vt 0.22379819 0.8362581
vt 0.22494331 0.83606726
vt 0.22379819 0.83606726
vt 0.22494331 0.8358764
vt 0.22379819 0.8358764
vt 0.22494331 0.83568555
vt 0.22379819 0.83568555
vt 0.22379819 0.8372124
vt 0.22265306 0.83740324
vt 0.22379819 0.83740324
vt 0.22265306 0.8372124
vt 0.22379819 0.8370215
vt 0.22265306 0.8370215
vt 0.22379819 0.8368307
vt 0.22265306 0.8368307
vt 0.22379819 0.8366398
vt 0.22265306 0.8366398
vt 0.22379819 0.83644897
vt 0.22265306 0.83644897
vt 0.22379819 0.8362581
vt 0.22265306 0.8362581
vt 0.22379819 0.83606726
vt 0.22265306 0.83606726
vt 0.22379819 0.8358764
vt 0.22265306 0.8358764
vt 0.22379819 0.83568555
vt 0.22265306 0.83568555
vt 0.22265306 0.8372124
vt 0.221508 0.83740324
vt 0.22265306 0.83740324
vt 0.221508 0.8372124
vt 0.22265306 0.8370215
vt 0.221508 0.8370215
vt 0.22265306 0.8368307
vt 0.221508 0.8368307
vt 0.22265306 0.8366398
vt 0.221508 0.8366398
vt 0.22265306 0.83644897
vt 0.221508 0.83644897
vt 0.22265306 0.8362581
vt 0.221508 0.8362581
vt 0.22265306 0.83606726
vt 0.221508 0.83606726
vt 0.22265306 0.8358764
vt 0.221508 0.8358764
vt 0.22265306 0.83568555
vt 0.221508 0.83568555
vt 0.5 0
vt 0.5 0.125
vt 0.625 0.125
vt 0.625 0
vn -0.7291726 0.68432975 0
vn -0.5156033 0.68433005 -0.5156022
vn -0 1 0
vn -0.5156033 0.68433005 -0.5156022
vn -0 0.68433005 -0.7291724
vn -0 1 0
vn -0 0.68433005 -0.7291724
vn 0.5156039 0.6843298 -0.5156019
vn -0 1 0
vn 0.5156039 0.6843298 -0.5156019
vn 0.72917396 0.6843284 0
vn -0 1 0
vn 0.72917396 0.6843284 0
vn 0.5156035 0.68432796 0.51560485
vn -0 1 0
vn 0.5156035 0.68432796 0.51560485
vn -0 0.6843293 0.7291732
vn -0 1 0
vn -0 0.6843293 0.7291732
vn -0.51560277 0.68432957 0.51560354
vn -0 1 0
vn -0.51560277 0.68432957 0.51560354
vn -0.7291726 0.68432975 0
vn -0 1 0
vn -0.72917306 0.6843294 0
vn -0.51560366 0.68432933 -0.5156028
vn -0 1 0
vn -0.51560366 0.68432933 -0.5156028
vn -0 0.68432957 -0.72917277
vn -0 1 0
vn -0 0.68432957 -0.72917277
vn 0.5156038 0.6843301 -0.5156017
vn -0 1 0
vn 0.5156038 0.6843301 -0.5156017
vn 0.7291732 0.68432915 0
vn -0 1 0
vn 0.7291732 0.68432915 0
vn 0.51560354 0.6843288 0.51560366
vn -0 1 0
vn 0.51560354 0.6843288 0.51560366
vn -0 0.68432933 0.72917306
vn -0 1 0
vn -0 0.68432933 0.72917306
vn -0.5156036 0.6843307 0.515601
vn -0 1 0
vn -0.5156036 0.6843307 0.515601
vn -0.72917306 0.6843294 0
vn -0 1 0
vn -0.7291727 0.6843296 0
vn -0.51560307 0.6843303 -0.5156023
vn -0 1 0
vn -0.51560307 0.6843303 -0.5156023
vn -0 0.6843296 -0.72917277
vn -0 1 0
vn -0 0.6843296 -0.72917277
vn 0.51560414 0.68432933 -0.51560223
vn -0 1 0
vn 0.51560414 0.68432933 -0.51560223
vn 0.72917354 0.68432873 0
vn -0 1 0
vn 0.72917354 0.68432873 0
vn 0.51560295 0.68432856 0.5156046
vn -0 1 0
vn 0.51560295 0.68432856 0.5156046
vn -0 0.6843295 0.7291729
vn -0 1 0
vn -0 0.6843295 0.7291729
vn -0.5156028 0.6843296 0.5156032
vn -0 1 0
vn -0.5156028 0.6843296 0.5156032
vn -0.7291727 0.6843296 0
vn -0 1 0
vn -0.7291732 0.68432915 0
vn -0.51560307 0.6843297 -0.51560277
vn -0 1 0
vn -0.51560307 0.6843297 -0.51560277
vn -0 0.68432957 -0.72917277
vn -0 1 0
vn -0 0.68432957 -0.72917277
vn 0.5156038 0.68432987 -0.5156018
vn -0 1 0
vn 0.5156038 0.68432987 -0.5156018
vn 0.7291733 0.68432903 0
vn -0 1 0
vn 0.7291733 0.68432903 0
vn 0.51560324 0.68432903 0.5156035
vn -0 1 0
vn 0.51560324 0.68432903 0.5156035
vn -0 0.6843295 0.7291729
vn -0 1 0
vn -0 0.6843295 0.7291729
vn -0.5156042 0.6843302 0.5156011
vn -0 1 0
vn -0.5156042 0.6843302 0.5156011
vn -0.7291732 0.68432915 0
vn -0 1 0
vn 0.000280858 0 1
vn 0.000280858 0 1
vn 0.000280858 0 1
vn 0.000280858 0 1
vn -1 5.1292733E-05 8.315073E-05
vn -1 5.1292733E-05 8.315073E-05
vn -1 5.1292733E-05 8.315073E-05
vn -1 5.1292733E-05 8.315073E-05
vn -0 1 0
vn -0 1 0
vn -0 1 0
vn -0 1 0
vn -0.00013970127 0 1
vn -0.00013970127 0 1
vn -0.00013970127 0 1
vn -0.00013970127 0 1
vn -1 0 0.00011955368
vn -1 0 0.00011955368
vn -1 0 0.00011955368
vn -1 0 0.00011955368
vn -1 0 0.000119585966
vn -1 0 0.000119585966
vn -1 0 0.000119585966
vn -1 0 0.000119585966
vn -0.00013969022 0 1
vn -0.00013969022 0 1
vn -0.00013969022 0 1
vn -0.00013969022 0 1
vn 0.00013969027 0 -1
vn 0.00013969027 0 -1
vn 0.00013969027 0 -1
vn 0.00013969027 0 -1
vn 0.00013969022 0 -1
vn 0.00013969022 0 -1
vn 0.00013969022 0 -1
vn 0.00013969022 0 -1
vn -0.00013969027 0 1
vn -0.00013969027 0 1
vn -0.00013969027 0 1
vn -0.00013969027 0 1
vn 1 0 -0.00011958578
vn 1 0 -0.00011958578
vn 1 0 -0.00011958578
vn 1 0 -0.00011958578
vn 1 0 -0.000119585966
vn 1 0 -0.000119585966
vn 1 0 -0.000119585966
vn 1 0 -0.000119585966
vn 0.00013966551 0 -1
vn 0.00013966551 0 -1
vn 0.00013966551 0 -1
vn 0.00013966551 0 -1
vn 1 0 -0.00039161913
vn 1 0 -0.00039161913
vn 1 0 -0.00039161913
vn 1 0 -0.00039161913
vn 1 0 -0.00042036118
vn 1 0 -0.00042036118
vn 1 0 -0.00042036118
vn 1 0 -0.00042036118
vn 1 0 -0.00027573443
vn 1 0 -0.00027573443
vn 1 0 -0.00027573443
vn 1 0 -0.00027573443
vn -0 -1 0
vn -0 -1 0
vn -0 -1 0
vn -0 -1 0
vn -0.00024781746 0 -1
vn -0.00024781746 0 -1
vn -0.00024781746 0 -1
vn -0.00024781746 0 -1
vn 1 0 -0.00011782759
vn 1 0 -0.00011782759
vn 1 0 -0.00011782759
vn 1 0 -0.00011782759
vn 1 0 -0.00011785667
vn 1 0 -0.00011785667
vn 1 0 -0.00011785667
vn 1 0 -0.00011785667
vn 0.0001390012 0 -1
vn 0.0001390012 0 -1
vn 0.0001390012 0 -1
vn 0.0001390012 0 -1
vn -0.00013900128 0 1
vn -0.00013900128 0 1
vn -0.00013900128 0 1
vn -0.00013900128 0 1
vn -0.00013900122 0 1
vn -0.00013900122 0 1
vn -0.00013900122 0 1
vn -0.00013900122 0 1
vn 0.00013900125 0 -1
vn 0.00013900125 0 -1
vn 0.00013900125 0 -1
vn 0.00013900125 0 -1
vn -1 0 0.000117913914
vn -1 0 0.000117913914
vn -1 0 0.000117913914
vn -1 0 0.000117913914
vn -1 0 0.00011794299
vn -1 0 0.00011794299
vn -1 0 0.00011794299
vn -1 0 0.00011794299
vn 0.3002678 0.953855 -3.565457E-05
vn 0.3002678 0.953855 -3.565457E-05
vn 0.3002678 0.953855 -3.565457E-05
vn 0.3002678 0.953855 -3.565457E-05
vn 0.30027053 -0.9538541 -3.5642624E-05
vn 0.30027053 -0.9538541 -3.5642624E-05
vn 0.30027053 -0.9538541 -3.5642624E-05
vn 0.30027053 -0.9538541 -3.5642624E-05
vn 2.4586974E-05 0.984324 -0.17636932
vn 2.4586974E-05 0.984324 -0.17636932
vn 2.4586974E-05 0.984324 -0.17636932
vn 2.4586974E-05 0.984324 -0.17636932
vn -0.30026564 0.95385563 3.5642766E-05
vn -0.30026564 0.95385563 3.5642766E-05
vn -0.30026564 0.95385563 3.5642766E-05
vn -0.30026564 0.95385563 3.5642766E-05
vn 2.4594146E-05 -0.9843233 -0.17637314
vn 2.4594146E-05 -0.9843233 -0.17637314
vn 2.4594146E-05 -0.9843233 -0.17637314
vn 2.4594146E-05 -0.9843233 -0.17637314
vn -0.30027258 -0.9538535 3.5642686E-05
vn -0.30027258 -0.9538535 3.5642686E-05
vn -0.30027258 -0.9538535 3.5642686E-05
vn -0.30027258 -0.9538535 3.5642686E-05
vn -2.4587038E-05 0.984324 0.17636977
vn -2.4587038E-05 0.984324 0.17636977
vn -2.4587038E-05 0.984324 0.17636977
vn -2.4587038E-05 0.984324 0.17636977
vn -2.4594208E-05 -0.9843233 0.17637359
vn -2.4594208E-05 -0.9843233 0.17637359
vn -2.4594208E-05 -0.9843233 0.17637359
vn -2.4594208E-05 -0.9843233 0.17637359
vn 0.6097106 0 -0.7926242
vn 0.6097106 0 -0.7926242
vn 0.6097106 0 -0.7926242
vn 0.6097106 0 -0.7926242
vn 1 0 0
vn 1 0 0
vn 1 0 0
vn 1 0 0
vn 0.6097106 0 0.7926242
vn 0.6097106 0 0.7926242
vn 0.6097106 0 0.7926242
vn 0.6097106 0 0.7926242
vn -0 -1 0
vn -0 -1 0
vn -0 -1 0
vn -0 -1 0
vn -0 1 0
vn -0 1 0
vn -0 1 0
vn -0 1 0
vn -0 1 0
vn -0 1 0
vn -0 1 0
vn -0 1 0
vn -0.60971093 0 0.7926239
vn -0.60971093 0 0.7926239
vn -0.60971093 0 0.7926239
vn -0.60971093 0 0.7926239
vn -0.9999093 0 -0.0134745855
vn -0.9999093 0 -0.0134745855
vn -0.9999093 0 -0.0134745855
vn -0.9999093 0 -0.0134745855
vn -0.60971045 0 -0.79262424
vn -0.60971045 0 -0.79262424
vn -0.60971045 0 -0.79262424
vn -0.60971045 0 -0.79262424
vn -0 1 0
vn -0 1 0
vn -0 1 0
vn -0 1 0
vn 0.6097103 0 0.7926244
vn 0.6097103 0 0.7926244
vn 0.6097103 0 0.7926244
vn 0.6097103 0 0.7926244
vn 1 0 0
vn 1 0 0
vn 1 0 0
vn 1 0 0
vn 0.6097107 0 -0.79262406
vn 0.6097107 0 -0.79262406
vn 0.6097107 0 -0.79262406
vn 0.6097107 0 -0.79262406
vn 0.60971045 0 -0.79262424
vn 0.60971045 0 -0.79262424
vn 0.60971045 0 -0.79262424
vn 0.60971045 0 -0.79262424
vn 1 0 0
vn 1 0 0
vn 1 0 0
vn 1 0 0
vn 0.6097102 0 0.7926244
vn 0.6097102 0 0.7926244
vn 0.6097102 0 0.7926244
vn 0.6097102 0 0.7926244
vn -0 -1 0
vn -0 -1 0
vn -0 -1 0
vn -0 -1 0
vn -0 -1 0
vn -0 -1 0
vn -0 -1 0
vn -0 -1 0
vn -0 -1 0
vn 0.8506527 -0.44721273 0.27638873
vn 0.5257302 -0.44721422 -0.72360706
vn 0.85065323 0.4472123 -0.27638763
vn 0.52573013 0.44721416 0.7236071
vn -0 1 0
vn -0 0.44721293 -0.89442754
vn -0 1 0
vn -0.52573264 -0.44721347 -0.7236058
vn -0 -1 0
vn -0.8506521 0.4472136 -0.27638927
vn -0 1 0
vn -0.85065246 -0.44721296 0.2763892
vn -0 -1 0
vn -0.52573216 0.4472135 0.72360605
vn -0 1 0
vn -0 -0.44721326 0.89442736
vn -0 -1 0
vn 0.52573013 0.44721416 0.7236071
vn -0 1 0
vn 0.8506527 -0.44721273 0.27638873
vn -0 -1 0
vn -1 0 0
vn -0.70710576 0 -0.7071077
vn -1 0 0
vn -0.70710576 0 -0.7071077
vn -0 0 -1
vn -0 0 -1
vn 0.70710504 0 -0.7071085
vn 0.707105 0 -0.7071085
vn 1 0 0
vn 1 0 0
vn 0.70710504 0 0.7071085
vn 0.707105 0 0.7071085
vn -0 0 1
vn -0 0 1
vn -0.70710576 0 0.7071077
vn -0.70710576 0 0.7071077
vn -1 0 0
vn -1 0 0
vn -0 -1 0
vn -0 -1 0
vn -0 -1 0
vn -0 -1 0
vn -0 -1 0
vn -0 -1 0
vn -0 -1 0
vn -0 -1 0
vn -0 -1 0
vn 0.85065335 -0.44721133 0.27638918
vn 0.5257316 -0.4472137 -0.72360635
vn 0.8506534 0.4472123 -0.2763872
vn 0.5257306 0.44721422 0.7236068
vn -0 1 0
vn -0 0.4472128 -0.89442766
vn -0 1 0
vn -0.5257315 -0.44721252 -0.7236072
vn -0 -1 0
vn -0.8506511 0.44721505 -0.27639
vn -0 1 0
vn -0.85065347 -0.4472124 0.27638692
vn -0 -1 0
vn -0.52573115 0.44721478 0.723606
vn -0 1 0
vn -0 -0.4472128 0.89442754
vn -0 -1 0
vn 0.5257306 0.44721422 0.7236068
vn -0 1 0
vn 0.85065335 -0.44721133 0.27638918
vn -0 -1 0
vn -1 0 0
vn -0.70710754 0 -0.70710593
vn -1 0 0
vn -0.7071074 0 -0.7071061
vn -0 0 -1
vn -0 0 -1
vn 0.7071081 0 -0.7071054
vn 0.70710796 0 -0.7071055
vn 1 0 0
vn 1 0 0
vn 0.7071078 0 0.70710576
vn 0.70710766 0 0.7071059
vn -0 0 1
vn -0 0 1
vn -0.7071047 0 0.70710886
vn -0.70710456 0 0.7071089
vn -1 0 0
vn -1 0 0
vn 0.41326615 -0.3914231 0.8221916
vn 0.48728862 -0.29450074 0.82208216
vn 0.48728862 -0.29450074 0.82208216
vn 0.44313946 -0.3539667 0.8236109
vn 0.29614487 -0.47093526 0.8309743
vn 0.31763816 -0.46369797 0.8270974
vn 0.14545776 -0.50282645 0.85206074
vn 0.16324767 -0.50034654 0.8502962
vn 0.030327631 -0.50999814 0.8596407
vn 0.03152203 -0.5100908 0.85954267
vn -0.030328427 -0.50999826 0.85964054
vn -0.031522803 -0.51009107 0.8595426
vn -0.14545783 -0.50282645 0.85206074
vn -0.16324745 -0.50034654 0.8502962
vn -0.29614455 -0.47093484 0.8309746
vn -0.31763777 -0.46369755 0.82709783
vn -0.4132657 -0.39142257 0.8221921
vn -0.44313926 -0.3539661 0.8236113
vn -0.48728856 -0.29450008 0.8220824
vn -0.48728856 -0.29450008 0.8220824
vn -0.74984163 0.6616174 0
vn -0.8515317 0.52430326 0
vn -0.8515317 0.52430326 0
vn -0.74984145 0.6616175 0
vn -0.5487309 0.835999 0
vn -0.5487309 0.835999 0
vn -0.29122797 0.9566538 0
vn -0.29122788 0.9566538 0
vn -0.05793748 0.99832016 0
vn -0.05793747 0.99832016 0
vn 0.05793789 0.99832016 0
vn 0.057937916 0.99832016 0
vn 0.29122716 0.9566539 0
vn 0.2912272 0.9566539 0
vn 0.54873157 0.8359986 0
vn 0.5487315 0.8359986 0
vn 0.74984235 0.6616165 0
vn 0.74984217 0.66161674 0
vn 0.8515319 0.52430284 0
vn 0.8515319 0.52430284 0
vn 0.44313955 -0.35396683 -0.82361084
vn 0.48728904 -0.294501 -0.8220818
vn 0.48728904 -0.294501 -0.8220818
vn 0.41326606 -0.39142308 -0.8221917
vn 0.31763774 -0.4636982 -0.8270974
vn 0.29614446 -0.47093558 -0.83097416
vn 0.16324769 -0.5003478 -0.8502954
vn 0.14545786 -0.5028278 -0.85205996
vn 0.031522468 -0.51009274 -0.85954154
vn 0.030328086 -0.51 -0.8596396
vn -0.031522445 -0.51009226 -0.85954183
vn -0.030328052 -0.5099995 -0.8596398
vn -0.16324724 -0.5003472 -0.85029584
vn -0.14545758 -0.50282717 -0.85206044
vn -0.3176385 -0.4636983 -0.82709706
vn -0.29614505 -0.47093567 -0.83097404
vn -0.44313952 -0.3539668 -0.8236109
vn -0.41326648 -0.39142323 -0.82219136
vn -0.48728833 -0.29450065 -0.82208234
vn -0.48728833 -0.29450065 -0.82208234
vn -0 -1 0
vn -0 -1 0
vn -0 -1 0
vn -0 -1 0
vn -0 -1 0
vn -0 -1 0
vn -0 -1 0
vn -0 -1 0
vn -0 -1 0
vn 0.8506528 -0.44721264 0.2763886
vn 0.5257303 -0.44721425 -0.723607
vn 0.85065323 0.44721258 -0.27638736
vn 0.5257299 0.44721448 0.7236071
vn -0 1 0
vn -0 0.4472135 -0.8944273
vn -0 1 0
vn -0.5257326 -0.44721332 -0.72360593
vn -0 -1 0
vn -0.85065186 0.44721398 -0.2763892
vn -0 1 0
vn -0.8506523 -0.44721314 0.27638936
vn -0 -1 0
vn -0.52573216 0.44721377 0.723606
vn -0 1 0
vn -0 -0.4472131 0.8944275
vn -0 -1 0
vn 0.5257299 0.44721448 0.7236071
vn -0 1 0
vn 0.8506528 -0.44721264 0.2763886
vn -0 -1 0
vn -1 0 0
vn -0.7071061 0 -0.7071074
vn -1 0 0
vn -0.7071061 0 -0.70710737
vn -0 0 -1
vn -0 0 -1
vn 0.70710534 0 -0.70710814
vn 0.70710534 0 -0.70710814
vn 1 0 0
vn 1 0 0
vn 0.70710534 0 0.70710814
vn 0.70710534 0 0.70710814
vn -0 0 1
vn -0 0 1
vn -0.7071061 0 0.7071074
vn -0.7071061 0 0.70710737
vn -1 0 0
vn -1 0 0
vn -0 -1 0
vn -0 -1 0
vn -0 -1 0
vn -0 -1 0
vn -0 -1 0
vn -0 -1 0
vn -0 -1 0
vn -0 -1 0
vn -0 -1 0
vn 0.85065323 -0.44721165 0.2763891
vn 0.5257316 -0.4472138 -0.7236063
vn 0.8506534 0.44721237 -0.27638713
vn 0.5257303 0.44721466 0.72360677
vn -0 1 0
vn -0 0.4472133 -0.89442736
vn -0 1 0
vn -0.5257316 -0.44721255 -0.7236071
vn -0 -1 0
vn -0.85065097 0.44721517 -0.27639
vn -0 1 0
vn -0.85065323 -0.44721287 0.27638704
vn -0 -1 0
vn -0.52573115 0.44721496 0.72360593
vn -0 1 0
vn -0 -0.44721296 0.8944275
vn -0 -1 0
vn 0.5257303 0.44721466 0.72360677
vn -0 1 0
vn 0.85065323 -0.44721165 0.2763891
vn -0 -1 0
vn -1 0 0
vn -0.70710754 0 -0.70710593
vn -1 0 0
vn -0.7071074 0 -0.7071061
vn -0 0 -1
vn -0 0 -1
vn 0.7071081 0 -0.7071054
vn 0.70710796 0 -0.7071055
vn 1 0 0
vn 1 0 0
vn 0.7071081 0 0.7071054
vn 0.70710796 0 0.7071055
vn -0 0 1
vn -0 0 1
vn -0.70710504 0 0.7071085
vn -0.7071049 0 0.7071086
vn -1 0 0
vn -1 0 0
vn 0.4132661 -0.39142296 0.8221916
vn 0.48728868 -0.29450044 0.8220823
vn 0.48728868 -0.29450044 0.8220823
vn 0.4431395 -0.35396647 0.82361096
vn 0.29614484 -0.47093543 0.83097416
vn 0.3176382 -0.46369815 0.8270974
vn 0.14545773 -0.50282645 0.85206074
vn 0.16324766 -0.5003466 0.8502962
vn 0.030327553 -0.50999796 0.85964084
vn 0.031521957 -0.5100907 0.85954285
vn -0.030328326 -0.50999826 0.85964054
vn -0.031522695 -0.51009107 0.8595426
vn -0.14545774 -0.50282645 0.85206074
vn -0.16324747 -0.50034654 0.8502962
vn -0.29614475 -0.47093463 0.8309746
vn -0.31763795 -0.46369728 0.8270979
vn -0.41326568 -0.3914222 0.8221923
vn -0.4431392 -0.35396576 0.82361156
vn -0.48728833 -0.29449978 0.82208264
vn -0.48728833 -0.29449978 0.82208264
vn -0.74984133 0.66161764 0
vn -0.8515313 0.5243038 0
vn -0.8515313 0.5243038 0
vn -0.7498412 0.6616179 0
vn -0.54873073 0.8359992 0
vn -0.54873073 0.8359992 0
vn -0.29122773 0.9566538 0
vn -0.2912277 0.9566538 0
vn -0.0579376 0.99832016 0
vn -0.057937566 0.99832016 0
vn 0.057937693 0.99832016 0
vn 0.057937723 0.99832016 0
vn 0.2912272 0.9566539 0
vn 0.29122725 0.9566539 0
vn 0.5487316 0.8359986 0
vn 0.5487316 0.8359986 0
vn 0.74984235 0.6616165 0
vn 0.7498422 0.6616167 0
vn 0.8515319 0.52430284 0
vn 0.8515319 0.52430284 0
vn 0.44313946 -0.35396752 -0.8236106
vn 0.4872887 -0.29450175 -0.8220818
vn 0.4872887 -0.29450175 -0.8220818
vn 0.41326618 -0.39142367 -0.82219136
vn 0.3176379 -0.4636987 -0.82709706
vn 0.29614452 -0.4709361 -0.8309739
vn 0.16324744 -0.500348 -0.8502953
vn 0.14545761 -0.502828 -0.8520599
vn 0.031522464 -0.5100922 -0.8595419
vn 0.030328091 -0.5099994 -0.85963994
vn -0.031522315 -0.5100919 -0.8595421
vn -0.030327909 -0.50999904 -0.8596401
vn -0.16324735 -0.5003476 -0.8502956
vn -0.14545766 -0.5028275 -0.85206014
vn -0.3176386 -0.4636987 -0.82709694
vn -0.29614517 -0.4709359 -0.8309738
vn -0.44313976 -0.3539671 -0.8236106
vn -0.41326663 -0.3914235 -0.8221911
vn -0.4872886 -0.29450095 -0.8220821
vn -0.4872886 -0.29450095 -0.8220821
vn 1 0 0
vn 1 0 0
vn 1 0 0
vn 1 0 0
g Mart09_0
f 3/3/3 2/2/2 1/1/1
f 6/6/6 5/5/5 4/4/4
f 9/9/9 8/8/8 7/7/7
f 12/12/12 11/11/11 10/10/10
f 15/15/15 14/14/14 13/13/13
f 18/18/18 17/17/17 16/16/16
f 21/21/21 20/20/20 19/19/19
f 24/24/24 23/23/23 22/22/22
f 27/27/27 26/26/26 25/25/25
f 30/30/30 29/29/29 28/28/28
f 33/33/33 32/32/32 31/31/31
f 36/36/36 35/35/35 34/34/34
f 39/39/39 38/38/38 37/37/37
f 42/42/42 41/41/41 40/40/40
f 45/45/45 44/44/44 43/43/43
f 48/48/48 47/47/47 46/46/46
f 51/51/51 50/50/50 49/49/49
f 54/54/54 53/53/53 52/52/52
f 57/57/57 56/56/56 55/55/55
f 60/60/60 59/59/59 58/58/58
f 63/63/63 62/62/62 61/61/61
f 66/66/66 65/65/65 64/64/64
f 69/69/69 68/68/68 67/67/67
f 72/72/72 71/71/71 70/70/70
f 75/75/75 74/74/74 73/73/73
f 78/78/78 77/77/77 76/76/76
f 81/81/81 80/80/80 79/79/79
f 84/84/84 83/83/83 82/82/82
f 87/87/87 86/86/86 85/85/85
f 90/90/90 89/89/89 88/88/88
f 93/93/93 92/92/92 91/91/91
f 96/96/96 95/95/95 94/94/94
f 99/99/99 98/98/98 97/97/97
f 100/100/100 99/99/99 97/97/97
f 103/103/103 102/102/102 101/101/101
f 104/104/104 103/103/103 101/101/101
f 107/107/107 106/106/106 105/105/105
f 108/108/108 107/107/107 105/105/105
f 111/111/111 110/110/110 109/109/109
f 112/112/112 111/111/111 109/109/109
f 115/115/115 114/114/114 113/113/113
f 116/116/116 115/115/115 113/113/113
f 119/119/119 118/118/118 117/117/117
f 120/120/120 119/119/119 117/117/117
f 123/123/123 122/122/122 121/121/121
f 124/124/124 123/123/123 121/121/121
f 127/127/127 126/126/126 125/125/125
f 128/128/128 127/127/127 125/125/125
f 131/131/131 130/130/130 129/129/129
f 132/132/132 131/131/131 129/129/129
f 135/135/135 134/134/134 133/133/133
f 136/136/136 135/135/135 133/133/133
f 139/139/139 138/138/138 137/137/137
f 140/140/140 139/139/139 137/137/137
f 143/143/143 142/142/142 141/141/141
f 144/144/144 143/143/143 141/141/141
f 147/147/147 146/146/146 145/145/145
f 148/148/148 147/147/147 145/145/145
f 151/151/151 150/150/150 149/149/149
f 150/150/150 152/152/152 149/149/149
f 149/149/149 152/152/152 153/153/153
f 152/152/152 154/154/154 153/153/153
f 153/153/153 154/154/154 155/155/155
f 154/154/154 156/156/156 155/155/155
f 159/159/159 158/158/158 157/157/157
f 160/160/160 159/159/159 157/157/157
f 163/163/163 162/162/162 161/161/161
f 164/164/164 163/163/163 161/161/161
f 167/167/167 166/166/166 165/165/165
f 168/168/168 167/167/167 165/165/165
f 171/171/171 170/170/170 169/169/169
f 172/172/172 171/171/171 169/169/169
f 175/175/175 174/174/174 173/173/173
f 176/176/176 175/175/175 173/173/173
f 179/179/179 178/178/178 177/177/177
f 180/180/180 179/179/179 177/177/177
f 183/183/183 182/182/182 181/181/181
f 184/184/184 183/183/183 181/181/181
f 187/187/187 186/186/186 185/185/185
f 188/188/188 187/187/187 185/185/185
f 191/191/191 190/190/190 189/189/189
f 192/192/192 191/191/191 189/189/189
f 195/195/195 194/194/194 193/193/193
f 196/196/196 195/195/195 193/193/193
f 199/199/199 198/198/198 197/197/197
f 200/200/200 199/199/199 197/197/197
f 203/203/203 202/202/202 201/201/201
f 204/204/204 203/203/203 201/201/201
f 207/207/207 206/206/206 205/205/205
f 208/208/208 207/207/207 205/205/205
f 211/211/211 210/210/210 209/209/209
f 212/212/212 211/211/211 209/209/209
f 215/215/215 214/214/214 213/213/213
f 216/216/216 215/215/215 213/213/213
f 219/219/219 218/218/218 217/217/217
f 220/220/220 219/219/219 217/217/217
f 223/223/223 222/222/222 221/221/221
f 224/224/224 223/223/223 221/221/221
f 227/227/227 226/226/226 225/225/225
f 228/228/228 227/227/227 225/225/225
f 231/231/231 230/230/230 229/229/229
f 232/232/232 231/231/231 229/229/229
f 235/235/235 234/234/234 233/233/233
f 236/236/236 235/235/235 233/233/233
f 239/239/239 238/238/238 237/237/237
f 240/240/240 239/239/239 237/237/237
f 243/243/243 242/242/242 241/241/241
f 244/244/244 243/243/243 241/241/241
f 247/247/247 246/246/246 245/245/245
f 248/248/248 247/247/247 245/245/245
f 251/251/251 250/250/250 249/249/249
f 250/250/250 252/252/252 249/249/249
f 250/250/250 253/253/253 252/252/252
f 253/253/253 254/254/254 252/252/252
f 253/253/253 255/255/255 254/254/254
f 255/255/255 256/256/256 254/254/254
f 259/259/259 258/258/258 257/257/257
f 260/260/260 259/259/259 257/257/257
f 263/263/263 262/262/262 261/261/261
f 264/264/264 263/263/263 261/261/261
f 267/267/267 266/266/266 265/265/265
f 268/268/268 267/267/267 265/265/265
f 271/271/271 270/270/270 269/269/269
f 272/272/272 271/271/271 269/269/269
f 275/275/275 274/274/274 273/273/273
f 276/276/276 275/275/275 273/273/273
f 279/279/279 278/278/278 277/277/277
f 280/280/280 279/279/279 277/277/277
f 283/283/283 282/282/282 281/281/281
f 284/284/284 283/283/283 281/281/281
f 287/287/287 286/286/286 285/285/285
f 288/288/288 287/287/287 285/285/285
f 291/291/291 290/290/290 289/289/289
f 292/292/292 291/291/291 289/289/289
f 295/295/295 294/294/294 293/293/293
f 296/296/296 295/295/295 293/293/293
f 299/299/299 298/298/298 297/297/297
f 297/297/297 300/300/300 299/299/299
f 300/300/300 301/301/301 299/299/299
f 300/300/300 302/302/302 301/301/301
f 300/300/300 303/303/303 302/302/302
f 303/303/303 304/304/304 302/302/302
f 307/307/307 306/306/306 305/305/305
f 307/307/307 308/308/308 306/306/306
f 308/308/308 309/309/309 306/306/306
f 308/308/308 310/310/310 309/309/309
f 311/311/311 308/308/308 307/307/307
f 311/311/311 312/312/312 308/308/308
f 313/313/313 311/311/311 307/307/307
f 314/314/314 313/313/313 307/307/307
f 315/315/315 311/311/311 313/313/313
f 315/315/315 316/316/316 311/311/311
f 317/317/317 315/315/315 313/313/313
f 317/317/317 313/313/313 318/318/318
f 319/319/319 315/315/315 317/317/317
f 319/319/319 320/320/320 315/315/315
f 321/321/321 319/319/319 317/317/317
f 321/321/321 317/317/317 322/322/322
f 323/323/323 319/319/319 321/321/321
f 323/323/323 324/324/324 319/319/319
f 325/325/325 323/323/323 321/321/321
f 325/325/325 321/321/321 326/326/326
f 329/329/329 328/328/328 327/327/327
f 328/328/328 330/330/330 327/327/327
f 328/328/328 331/331/331 330/330/330
f 331/331/331 332/332/332 330/330/330
f 331/331/331 333/333/333 332/332/332
f 333/333/333 334/334/334 332/332/332
f 333/333/333 335/335/335 334/334/334
f 335/335/335 336/336/336 334/334/334
f 335/335/335 337/337/337 336/336/336
f 337/337/337 338/338/338 336/336/336
f 337/337/337 339/339/339 338/338/338
f 339/339/339 340/340/340 338/338/338
f 339/339/339 341/341/341 340/340/340
f 341/341/341 342/342/342 340/340/340
f 341/341/341 343/343/343 342/342/342
f 343/343/343 344/344/344 342/342/342
f 347/347/347 346/346/346 345/345/345
f 345/345/345 348/348/348 347/347/347
f 348/348/348 349/349/349 347/347/347
f 348/348/348 350/350/350 349/349/349
f 348/348/348 351/351/351 350/350/350
f 351/351/351 352/352/352 350/350/350
f 355/355/355 354/354/354 353/353/353
f 355/355/355 356/356/356 354/354/354
f 356/356/356 357/357/357 354/354/354
f 356/356/356 358/358/358 357/357/357
f 359/359/359 356/356/356 355/355/355
f 359/359/359 360/360/360 356/356/356
f 361/361/361 359/359/359 355/355/355
f 362/362/362 361/361/361 355/355/355
f 363/363/363 359/359/359 361/361/361
f 363/363/363 364/364/364 359/359/359
f 365/365/365 363/363/363 361/361/361
f 365/365/365 361/361/361 366/366/366
f 367/367/367 363/363/363 365/365/365
f 367/367/367 368/368/368 363/363/363
f 369/369/369 367/367/367 365/365/365
f 369/369/369 365/365/365 370/370/370
f 371/371/371 367/367/367 369/369/369
f 371/371/371 372/372/372 367/367/367
f 373/373/373 371/371/371 369/369/369
f 373/373/373 369/369/369 374/374/374
f 377/377/377 376/376/376 375/375/375
f 376/376/376 378/378/378 375/375/375
f 376/376/376 379/379/379 378/378/378
f 379/379/379 380/380/380 378/378/378
f 379/379/379 381/381/381 380/380/380
f 381/381/381 382/382/382 380/380/380
f 381/381/381 383/383/383 382/382/382
f 383/383/383 384/384/384 382/382/382
f 383/383/383 385/385/385 384/384/384
f 385/385/385 386/386/386 384/384/384
f 385/385/385 387/387/387 386/386/386
f 387/387/387 388/388/388 386/386/386
f 387/387/387 389/389/389 388/388/388
f 389/389/389 390/390/390 388/388/388
f 389/389/389 391/391/391 390/390/390
f 391/391/391 392/392/392 390/390/390
f 395/395/395 394/394/394 393/393/393
f 394/394/394 396/396/396 393/393/393
f 393/393/393 396/396/396 397/397/397
f 396/396/396 398/398/398 397/397/397
f 397/397/397 398/398/398 399/399/399
f 398/398/398 400/400/400 399/399/399
f 399/399/399 400/400/400 401/401/401
f 400/400/400 402/402/402 401/401/401
f 401/401/401 402/402/402 403/403/403
f 402/402/402 404/404/404 403/403/403
f 403/403/403 404/404/404 405/405/405
f 404/404/404 406/406/406 405/405/405
f 405/405/405 406/406/406 407/407/407
f 406/406/406 408/408/408 407/407/407
f 407/407/407 408/408/408 409/409/409
f 408/408/408 410/410/410 409/409/409
f 409/409/409 410/410/410 411/411/411
f 410/410/410 412/412/412 411/411/411
f 415/415/415 414/414/414 413/413/413
f 414/414/414 416/416/416 413/413/413
f 413/413/413 416/416/416 417/417/417
f 416/416/416 418/418/418 417/417/417
f 417/417/417 418/418/418 419/419/419
f 418/418/418 420/420/420 419/419/419
f 419/419/419 420/420/420 421/421/421
f 420/420/420 422/422/422 421/421/421
f 421/421/421 422/422/422 423/423/423
f 422/422/422 424/424/424 423/423/423
f 423/423/423 424/424/424 425/425/425
f 424/424/424 426/426/426 425/425/425
f 425/425/425 426/426/426 427/427/427
f 426/426/426 428/428/428 427/427/427
f 427/427/427 428/428/428 429/429/429
f 428/428/428 430/430/430 429/429/429
f 429/429/429 430/430/430 431/431/431
f 430/430/430 432/432/432 431/431/431
f 435/435/435 434/434/434 433/433/433
f 434/434/434 436/436/436 433/433/433
f 433/433/433 436/436/436 437/437/437
f 436/436/436 438/438/438 437/437/437
f 437/437/437 438/438/438 439/439/439
f 438/438/438 440/440/440 439/439/439
f 439/439/439 440/440/440 441/441/441
f 440/440/440 442/442/442 441/441/441
f 441/441/441 442/442/442 443/443/443
f 442/442/442 444/444/444 443/443/443
f 443/443/443 444/444/444 445/445/445
f 444/444/444 446/446/446 445/445/445
f 445/445/445 446/446/446 447/447/447
f 446/446/446 448/448/448 447/447/447
f 447/447/447 448/448/448 449/449/449
f 448/448/448 450/450/450 449/449/449
f 449/449/449 450/450/450 451/451/451
f 450/450/450 452/452/452 451/451/451
f 455/455/455 454/454/454 453/453/453
f 453/453/453 456/456/456 455/455/455
f 456/456/456 457/457/457 455/455/455
f 456/456/456 458/458/458 457/457/457
f 456/456/456 459/459/459 458/458/458
f 459/459/459 460/460/460 458/458/458
f 463/463/463 462/462/462 461/461/461
f 463/463/463 464/464/464 462/462/462
f 464/464/464 465/465/465 462/462/462
f 464/464/464 466/466/466 465/465/465
f 467/467/467 464/464/464 463/463/463
f 467/467/467 468/468/468 464/464/464
f 469/469/469 467/467/467 463/463/463
f 470/470/470 469/469/469 463/463/463
f 471/471/471 467/467/467 469/469/469
f 471/471/471 472/472/472 467/467/467
f 473/473/473 471/471/471 469/469/469
f 473/473/473 469/469/469 474/474/474
f 475/475/475 471/471/471 473/473/473
f 475/475/475 476/476/476 471/471/471
f 477/477/477 475/475/475 473/473/473
f 477/477/477 473/473/473 478/478/478
f 479/479/479 475/475/475 477/477/477
f 479/479/479 480/480/480 475/475/475
f 481/481/481 479/479/479 477/477/477
f 481/481/481 477/477/477 482/482/482
f 485/485/485 484/484/484 483/483/483
f 484/484/484 486/486/486 483/483/483
f 484/484/484 487/487/487 486/486/486
f 487/487/487 488/488/488 486/486/486
f 487/487/487 489/489/489 488/488/488
f 489/489/489 490/490/490 488/488/488
f 489/489/489 491/491/491 490/490/490
f 491/491/491 492/492/492 490/490/490
f 491/491/491 493/493/493 492/492/492
f 493/493/493 494/494/494 492/492/492
f 493/493/493 495/495/495 494/494/494
f 495/495/495 496/496/496 494/494/494
f 495/495/495 497/497/497 496/496/496
f 497/497/497 498/498/498 496/496/496
f 497/497/497 499/499/499 498/498/498
f 499/499/499 500/500/500 498/498/498
f 503/503/503 502/502/502 501/501/501
f 501/501/501 504/504/504 503/503/503
f 504/504/504 505/505/505 503/503/503
f 504/504/504 506/506/506 505/505/505
f 504/504/504 507/507/507 506/506/506
f 507/507/507 508/508/508 506/506/506
f 511/511/511 510/510/510 509/509/509
f 511/511/511 512/512/512 510/510/510
f 512/512/512 513/513/513 510/510/510
f 512/512/512 514/514/514 513/513/513
f 515/515/515 512/512/512 511/511/511
f 515/515/515 516/516/516 512/512/512
f 517/517/517 515/515/515 511/511/511
f 518/518/518 517/517/517 511/511/511
f 519/519/519 515/515/515 517/517/517
f 519/519/519 520/520/520 515/515/515
f 521/521/521 519/519/519 517/517/517
f 521/521/521 517/517/517 522/522/522
f 523/523/523 519/519/519 521/521/521
f 523/523/523 524/524/524 519/519/519
f 525/525/525 523/523/523 521/521/521
f 525/525/525 521/521/521 526/526/526
f 527/527/527 523/523/523 525/525/525
f 527/527/527 528/528/528 523/523/523
f 529/529/529 527/527/527 525/525/525
f 529/529/529 525/525/525 530/530/530
f 533/533/533 532/532/532 531/531/531
f 532/532/532 534/534/534 531/531/531
f 532/532/532 535/535/535 534/534/534
f 535/535/535 536/536/536 534/534/534
f 535/535/535 537/537/537 536/536/536
f 537/537/537 538/538/538 536/536/536
f 537/537/537 539/539/539 538/538/538
f 539/539/539 540/540/540 538/538/538
f 539/539/539 541/541/541 540/540/540
f 541/541/541 542/542/542 540/540/540
f 541/541/541 543/543/543 542/542/542
f 543/543/543 544/544/544 542/542/542
f 543/543/543 545/545/545 544/544/544
f 545/545/545 546/546/546 544/544/544
f 545/545/545 547/547/547 546/546/546
f 547/547/547 548/548/548 546/546/546
f 551/551/551 550/550/550 549/549/549
f 550/550/550 552/552/552 549/549/549
f 549/549/549 552/552/552 553/553/553
f 552/552/552 554/554/554 553/553/553
f 553/553/553 554/554/554 555/555/555
f 554/554/554 556/556/556 555/555/555
f 555/555/555 556/556/556 557/557/557
f 556/556/556 558/558/558 557/557/557
f 557/557/557 558/558/558 559/559/559
f 558/558/558 560/560/560 559/559/559
f 559/559/559 560/560/560 561/561/561
f 560/560/560 562/562/562 561/561/561
f 561/561/561 562/562/562 563/563/563
f 562/562/562 564/564/564 563/563/563
f 563/563/563 564/564/564 565/565/565
f 564/564/564 566/566/566 565/565/565
f 565/565/565 566/566/566 567/567/567
f 566/566/566 568/568/568 567/567/567
f 571/571/571 570/570/570 569/569/569
f 570/570/570 572/572/572 569/569/569
f 569/569/569 572/572/572 573/573/573
f 572/572/572 574/574/574 573/573/573
f 573/573/573 574/574/574 575/575/575
f 574/574/574 576/576/576 575/575/575
f 575/575/575 576/576/576 577/577/577
f 576/576/576 578/578/578 577/577/577
f 577/577/577 578/578/578 579/579/579
f 578/578/578 580/580/580 579/579/579
f 579/579/579 580/580/580 581/581/581
f 580/580/580 582/582/582 581/581/581
f 581/581/581 582/582/582 583/583/583
f 582/582/582 584/584/584 583/583/583
f 583/583/583 584/584/584 585/585/585
f 584/584/584 586/586/586 585/585/585
f 585/585/585 586/586/586 587/587/587
f 586/586/586 588/588/588 587/587/587
f 591/591/591 590/590/590 589/589/589
f 590/590/590 592/592/592 589/589/589
f 589/589/589 592/592/592 593/593/593
f 592/592/592 594/594/594 593/593/593
f 593/593/593 594/594/594 595/595/595
f 594/594/594 596/596/596 595/595/595
f 595/595/595 596/596/596 597/597/597
f 596/596/596 598/598/598 597/597/597
f 597/597/597 598/598/598 599/599/599
f 598/598/598 600/600/600 599/599/599
f 599/599/599 600/600/600 601/601/601
f 600/600/600 602/602/602 601/601/601
f 601/601/601 602/602/602 603/603/603
f 602/602/602 604/604/604 603/603/603
f 603/603/603 604/604/604 605/605/605
f 604/604/604 606/606/606 605/605/605
f 605/605/605 606/606/606 607/607/607
f 606/606/606 608/608/608 607/607/607
g Mart09_1
f 611/611/611 610/610/610 609/609/609
f 612/612/612 611/611/611 609/609/609
