g mat_Circle
v 2.6155298 0.1 1.5100766
v 2.6155298 0.4 1.5100766
v 2.9742703 0.4 0.524444
v 1.9413171 0.1 2.3135717
v 2.9742703 0.1 0.524444
v 1.9413171 0.4 2.3135717
v 2.9742703 0.4 -0.5244439
v 1.0329533 0.1 2.8380158
v 2.9742703 0.1 -0.5244439
v 1.0329533 0.4 2.8380158
v 2.6155298 0.4 -1.5100766
v -3.6471196E-08 0.1 3.0201535
v 2.6155298 0.1 -1.5100766
v -3.6471196E-08 0.4 3.0201535
v 1.9413171 0.4 -2.3135717
v -1.0329535 0.1 2.8380158
v 1.9413171 0.1 -2.3135717
v -1.0329535 0.4 2.8380158
v 1.0329533 0.4 -2.8380158
v -1.9413173 0.1 2.3135717
v 1.0329533 0.1 -2.8380158
v -1.9413173 0.4 2.3135717
v -3.6471196E-08 0.4 -3.0201535
v -2.6155298 0.1 1.5100766
v -3.6471196E-08 0.1 -3.0201535
v -2.6155298 0.4 1.5100766
v -1.0329535 0.4 -2.8380158
v -2.9742703 0.1 0.524444
v -1.0329535 0.1 -2.8380158
v -2.9742703 0.4 0.524444
v -1.9413173 0.4 -2.3135717
v -2.9742703 0.1 -0.5244439
v -1.9413173 0.1 -2.3135717
v -2.9742703 0.4 -0.5244439
v -2.6155298 0.4 -1.5100766
v -2.6155298 0.1 -1.5100766
v -2.53615 0.099999994 -0.4471916
v -2.53615 0.4 -0.4471916
v -2.2302532 0.4 -1.2876372
v -2.2302532 0.099999994 -1.2876372
v -2.5361505 0.099999994 0.44719166
v -1.6553547 0.4 -1.9727747
v -2.5361505 0.4 0.44719166
v -1.6553547 0.099999994 -1.9727747
v -2.2302532 0.099999994 1.2876372
v -0.8807959 0.4 -2.4199665
v -2.2302532 0.4 1.2876372
v -0.8807959 0.099999994 -2.4199665
v -1.6553547 0.099999994 1.9727747
v -4.8903477E-08 0.4 -2.5752745
v -1.6553547 0.4 1.9727747
v -4.8903477E-08 0.099999994 -2.5752745
v -0.88079596 0.099999994 2.4199665
v 0.8807957 0.4 -2.4199665
v -0.88079596 0.4 2.4199665
v 0.8807957 0.099999994 -2.4199665
v -4.8903477E-08 0.099999994 2.5752745
v 1.6553545 0.4 -1.9727747
v -4.8903477E-08 0.4 2.5752745
v 1.6553545 0.099999994 -1.9727747
v 0.88079566 0.099999994 2.4199665
v 2.2302532 0.4 -1.2876372
v 0.88079566 0.4 2.4199665
v 2.2302532 0.099999994 -1.2876372
v 1.6553545 0.099999994 1.9727747
v 2.53615 0.4 -0.4471916
v 1.6553545 0.4 1.9727747
v 2.53615 0.099999994 -0.4471916
v 2.2302532 0.099999994 1.2876372
v 2.53615 0.4 0.44719166
v 2.2302532 0.4 1.2876372
v 2.53615 0.099999994 0.44719166
v 0.8807957 0.4 -2.4199665
v 1.0329533 0.4 -2.8380158
v 1.9413171 0.4 -2.3135717
v 1.6553545 0.4 -1.9727747
v -4.8903477E-08 0.4 -2.5752745
v 2.6155298 0.4 -1.5100766
v -3.6471196E-08 0.4 -3.0201535
v 2.2302532 0.4 -1.2876372
v -0.8807959 0.4 -2.4199665
v 2.9742703 0.4 -0.5244439
v -1.0329535 0.4 -2.8380158
v 2.53615 0.4 -0.4471916
v -1.6553547 0.4 -1.9727747
v 2.9742703 0.4 0.524444
v -1.9413173 0.4 -2.3135717
v 2.53615 0.4 0.44719166
v -2.2302532 0.4 -1.2876372
v 2.6155298 0.4 1.5100766
v -2.6155298 0.4 -1.5100766
v 2.2302532 0.4 1.2876372
v -2.53615 0.4 -0.4471916
v 1.9413171 0.4 2.3135717
v -2.9742703 0.4 -0.5244439
v 1.6553545 0.4 1.9727747
v -2.5361505 0.4 0.44719166
v 1.0329533 0.4 2.8380158
v -2.9742703 0.4 0.524444
v 0.88079566 0.4 2.4199665
v -2.2302532 0.4 1.2876372
v -3.6471196E-08 0.4 3.0201535
v -2.6155298 0.4 1.5100766
v -4.8903477E-08 0.4 2.5752745
v -1.6553547 0.4 1.9727747
v -1.0329535 0.4 2.8380158
v -1.9413173 0.4 2.3135717
v -0.88079596 0.4 2.4199665
vt 0.5289839 0.03058207
vt 0.5289839 0.03058207
vt 0.5289839 0.03058207
vt 0.5289839 0.03058207
vt 0.5289839 0.03058207
vt 0.5289839 0.03058207
vt 0.5289839 0.03058207
vt 0.5289839 0.03058207
vt 0.5289839 0.03058207
vt 0.5289839 0.03058207
vt 0.5289839 0.03058207
vt 0.5289839 0.03058207
vt 0.5289839 0.03058207
vt 0.5289839 0.03058207
vt 0.5289839 0.03058207
vt 0.5289839 0.03058207
vt 0.5289839 0.03058207
vt 0.5289839 0.03058207
vt 0.5289839 0.03058207
vt 0.5289839 0.03058207
vt 0.5289839 0.03058207
vt 0.5289839 0.03058207
vt 0.5289839 0.03058207
vt 0.5289839 0.03058207
vt 0.5289839 0.03058207
vt 0.5289839 0.03058207
vt 0.5289839 0.03058207
vt 0.5289839 0.03058207
vt 0.5289839 0.03058207
vt 0.5289839 0.03058207
vt 0.5289839 0.03058207
vt 0.5289839 0.03058207
vt 0.5289839 0.03058207
vt 0.5289839 0.03058207
vt 0.5289839 0.03058207
vt 0.5289839 0.03058207
vt 0.5289839 0.03058207
vt 0.5289839 0.03058207
vt 0.5289839 0.03058207
vt 0.5289839 0.03058207
vt 0.5289839 0.03058207
vt 0.5289839 0.03058207
vt 0.5289839 0.03058207
vt 0.5289839 0.03058207
vt 0.5289839 0.03058207
vt 0.5289839 0.03058207
vt 0.5289839 0.03058207
vt 0.5289839 0.03058207
vt 0.5289839 0.03058207
vt 0.5289839 0.03058207
vt 0.5289839 0.03058207
vt 0.5289839 0.03058207
vt 0.5289839 0.03058207
vt 0.5289839 0.03058207
vt 0.5289839 0.03058207
vt 0.5289839 0.03058207
vt 0.5289839 0.03058207
vt 0.5289839 0.03058207
vt 0.5289839 0.03058207
vt 0.5289839 0.03058207
vt 0.5289839 0.03058207
vt 0.5289839 0.03058207
vt 0.5289839 0.03058207
vt 0.5289839 0.03058207
vt 0.5289839 0.03058207
vt 0.5289839 0.03058207
vt 0.5289839 0.03058207
vt 0.5289839 0.03058207
vt 0.5289839 0.03058207
vt 0.5289839 0.03058207
vt 0.5289839 0.03058207
vt 0.5289839 0.03058207
vt 0.5289839 0.03058207
vt 0.5289839 0.03058207
vt 0.5289839 0.03058207
vt 0.5289839 0.03058207
vt 0.5289839 0.03058207
vt 0.5289839 0.03058207
vt 0.5289839 0.03058207
vt 0.5289839 0.03058207
vt 0.5289839 0.03058207
vt 0.5289839 0.03058207
vt 0.5289839 0.03058207
vt 0.5289839 0.03058207
vt 0.5289839 0.03058207
vt 0.5289839 0.03058207
vt 0.5289839 0.03058207
vt 0.5289839 0.03058207
vt 0.5289839 0.03058207
vt 0.5289839 0.03058207
vt 0.5289839 0.03058207
vt 0.5289839 0.03058207
vt 0.5289839 0.03058207
vt 0.5289839 0.03058207
vt 0.5289839 0.03058207
vt 0.5289839 0.03058207
vt 0.5289839 0.03058207
vt 0.5289839 0.03058207
vt 0.5289839 0.03058207
vt 0.5289839 0.03058207
vt 0.5289839 0.03058207
vt 0.5289839 0.03058207
vt 0.5289839 0.03058207
vt 0.5289839 0.03058207
vt 0.5289839 0.03058207
vt 0.5289839 0.03058207
vt 0.5289839 0.03058207
vt 0.5289839 0.03058207
vn 0.86602545 0 0.4999999
vn 0.86602545 0 0.4999999
vn 0.98480785 0 0.17364798
vn 0.64278746 0 0.7660445
vn 0.98480785 0 0.17364798
vn 0.64278746 0 0.7660445
vn 0.98480785 0 -0.17364798
vn 0.34202018 0 0.93969256
vn 0.98480785 0 -0.17364798
vn 0.34202018 0 0.93969256
vn 0.86602545 0 -0.4999999
vn -0 0 1
vn 0.86602545 0 -0.4999999
vn -0 0 1
vn 0.64278746 0 -0.7660445
vn -0.3420202 0 0.93969256
vn 0.64278746 0 -0.7660445
vn -0.3420202 0 0.93969256
vn 0.34202018 0 -0.93969256
vn -0.6427876 0 0.76604444
vn 0.34202018 0 -0.93969256
vn -0.6427876 0 0.76604444
vn -0 0 -1
vn -0.8660255 0 0.4999999
vn -0 0 -1
vn -0.8660255 0 0.4999999
vn -0.3420202 0 -0.93969256
vn -0.98480785 0 0.17364798
vn -0.3420202 0 -0.93969256
vn -0.98480785 0 0.17364798
vn -0.6427876 0 -0.76604444
vn -0.98480785 0 -0.17364798
vn -0.6427876 0 -0.76604444
vn -0.98480785 0 -0.17364798
vn -0.8660255 0 -0.4999999
vn -0.8660255 0 -0.4999999
vn 0.9848077 0 0.17364828
vn 0.9848077 0 0.17364828
vn 0.8660256 0 0.49999976
vn 0.8660256 0 0.49999976
vn 0.98480785 0 -0.17364794
vn 0.6427876 0 0.76604444
vn 0.98480785 0 -0.17364794
vn 0.6427876 0 0.76604444
vn 0.86602545 0 -0.5
vn 0.34202006 0 0.9396926
vn 0.86602545 0 -0.5
vn 0.34202006 0 0.9396926
vn 0.64278764 0 -0.7660444
vn -0 0 1
vn 0.64278764 0 -0.7660444
vn -0 0 1
vn 0.3420201 0 -0.9396926
vn -0.3420201 0 0.9396926
vn 0.3420201 0 -0.9396926
vn -0.3420201 0 0.9396926
vn -0 0 -1
vn -0.6427876 0 0.76604444
vn -0 0 -1
vn -0.6427876 0 0.76604444
vn -0.3420201 0 -0.9396926
vn -0.8660255 0 0.49999973
vn -0.3420201 0 -0.9396926
vn -0.8660255 0 0.49999973
vn -0.6427876 0 -0.76604444
vn -0.98480785 0 0.17364796
vn -0.6427876 0 -0.76604444
vn -0.98480785 0 0.17364796
vn -0.8660255 0 -0.49999985
vn -0.98480785 0 -0.17364797
vn -0.8660255 0 -0.49999985
vn -0.98480785 0 -0.17364797
vn -0 1 0
vn -0 1 0
vn -0 1 0
vn -0 1 0
vn -0 1 0
vn -0 1 0
vn -0 1 0
vn -0 1 0
vn -0 1 0
vn -0 1 0
vn -0 1 0
vn -0 1 0
vn -0 1 0
vn -0 1 0
vn -0 1 0
vn -0 1 0
vn -0 1 0
vn -0 1 0
vn -0 1 0
vn -0 1 0
vn -0 1 0
vn -0 1 0
vn -0 1 0
vn -0 1 0
vn -0 1 0
vn -0 1 0
vn -0 1 0
vn -0 1 0
vn -0 1 0
vn -0 1 0
vn -0 1 0
vn -0 1 0
vn -0 1 0
vn -0 1 0
vn -0 1 0
vn -0 1 0
g mat_Circle_0
f 3/3/3 2/2/2 1/1/1
f 1/1/1 2/2/2 4/4/4
f 5/5/5 3/3/3 1/1/1
f 2/2/2 6/6/6 4/4/4
f 7/7/7 3/3/3 5/5/5
f 4/4/4 6/6/6 8/8/8
f 9/9/9 7/7/7 5/5/5
f 6/6/6 10/10/10 8/8/8
f 11/11/11 7/7/7 9/9/9
f 8/8/8 10/10/10 12/12/12
f 13/13/13 11/11/11 9/9/9
f 10/10/10 14/14/14 12/12/12
f 15/15/15 11/11/11 13/13/13
f 12/12/12 14/14/14 16/16/16
f 17/17/17 15/15/15 13/13/13
f 14/14/14 18/18/18 16/16/16
f 19/19/19 15/15/15 17/17/17
f 16/16/16 18/18/18 20/20/20
f 21/21/21 19/19/19 17/17/17
f 18/18/18 22/22/22 20/20/20
f 23/23/23 19/19/19 21/21/21
f 20/20/20 22/22/22 24/24/24
f 25/25/25 23/23/23 21/21/21
f 22/22/22 26/26/26 24/24/24
f 27/27/27 23/23/23 25/25/25
f 24/24/24 26/26/26 28/28/28
f 29/29/29 27/27/27 25/25/25
f 26/26/26 30/30/30 28/28/28
f 31/31/31 27/27/27 29/29/29
f 28/28/28 30/30/30 32/32/32
f 33/33/33 31/31/31 29/29/29
f 30/30/30 34/34/34 32/32/32
f 35/35/35 31/31/31 33/33/33
f 32/32/32 34/34/34 36/36/36
f 36/36/36 35/35/35 33/33/33
f 34/34/34 35/35/35 36/36/36
f 39/39/39 38/38/38 37/37/37
f 40/40/40 39/39/39 37/37/37
f 37/37/37 38/38/38 41/41/41
f 42/42/42 39/39/39 40/40/40
f 38/38/38 43/43/43 41/41/41
f 44/44/44 42/42/42 40/40/40
f 41/41/41 43/43/43 45/45/45
f 46/46/46 42/42/42 44/44/44
f 43/43/43 47/47/47 45/45/45
f 48/48/48 46/46/46 44/44/44
f 45/45/45 47/47/47 49/49/49
f 50/50/50 46/46/46 48/48/48
f 47/47/47 51/51/51 49/49/49
f 52/52/52 50/50/50 48/48/48
f 49/49/49 51/51/51 53/53/53
f 54/54/54 50/50/50 52/52/52
f 51/51/51 55/55/55 53/53/53
f 56/56/56 54/54/54 52/52/52
f 53/53/53 55/55/55 57/57/57
f 58/58/58 54/54/54 56/56/56
f 55/55/55 59/59/59 57/57/57
f 60/60/60 58/58/58 56/56/56
f 57/57/57 59/59/59 61/61/61
f 62/62/62 58/58/58 60/60/60
f 59/59/59 63/63/63 61/61/61
f 64/64/64 62/62/62 60/60/60
f 61/61/61 63/63/63 65/65/65
f 66/66/66 62/62/62 64/64/64
f 63/63/63 67/67/67 65/65/65
f 68/68/68 66/66/66 64/64/64
f 65/65/65 67/67/67 69/69/69
f 70/70/70 66/66/66 68/68/68
f 67/67/67 71/71/71 69/69/69
f 72/72/72 70/70/70 68/68/68
f 69/69/69 71/71/71 72/72/72
f 71/71/71 70/70/70 72/72/72
f 75/75/75 74/74/74 73/73/73
f 76/76/76 75/75/75 73/73/73
f 73/73/73 74/74/74 77/77/77
f 78/78/78 75/75/75 76/76/76
f 74/74/74 79/79/79 77/77/77
f 80/80/80 78/78/78 76/76/76
f 77/77/77 79/79/79 81/81/81
f 82/82/82 78/78/78 80/80/80
f 79/79/79 83/83/83 81/81/81
f 84/84/84 82/82/82 80/80/80
f 81/81/81 83/83/83 85/85/85
f 86/86/86 82/82/82 84/84/84
f 83/83/83 87/87/87 85/85/85
f 88/88/88 86/86/86 84/84/84
f 85/85/85 87/87/87 89/89/89
f 90/90/90 86/86/86 88/88/88
f 87/87/87 91/91/91 89/89/89
f 92/92/92 90/90/90 88/88/88
f 89/89/89 91/91/91 93/93/93
f 94/94/94 90/90/90 92/92/92
f 91/91/91 95/95/95 93/93/93
f 96/96/96 94/94/94 92/92/92
f 93/93/93 95/95/95 97/97/97
f 98/98/98 94/94/94 96/96/96
f 95/95/95 99/99/99 97/97/97
f 100/100/100 98/98/98 96/96/96
f 97/97/97 99/99/99 101/101/101
f 102/102/102 98/98/98 100/100/100
f 99/99/99 103/103/103 101/101/101
f 104/104/104 102/102/102 100/100/100
f 101/101/101 103/103/103 105/105/105
f 106/106/106 102/102/102 104/104/104
f 103/103/103 107/107/107 105/105/105
f 108/108/108 106/106/106 104/104/104
f 105/105/105 107/107/107 108/108/108
f 107/107/107 106/106/106 108/108/108
