g mat_Gray
v 3 0.1 2.625
v 3 0.4 2.625
v 3 0.4 1.21
v 3 0.1 1.21
v 1.21 0.1 3
v 1.21 0.4 3
v 2.625 0.4 3
v 2.625 0.1 3
v 2.4750001 0.4 1.21
v 3 0.4 1.21
v 3 0.4 2.625
v 2.4750001 0.4 2.325
v 2.9497595 0.4 2.8125
v 2.8125 0.4 2.9497595
v 2.325 0.4 2.4750001
v 2.625 0.4 3
v 2.325 0.4 2.4750001
v 1.21 0.4 3
v 1.21 0.4 2.4750001
v 3 0.1 1.21
v 3 0.4 1.21
v 2.4750001 0.4 1.21
v 2.4750001 0.1 1.21
v 2.4750001 0.1 1.21
v 2.4750001 0.4 1.21
v 2.4750001 0.4 2.325
v 2.4750001 0.1 2.325
v 2.4750001 0.1 1.21
v 3 0.1 2.625
v 3 0.1 1.21
v 2.4750001 0.1 2.325
v 2.9497595 0.1 2.8125
v 2.8125 0.1 2.9497595
v 2.325 0.1 2.4750001
v 2.325 0.1 2.4750001
v 2.625 0.1 3
v 1.21 0.1 2.4750001
v 1.21 0.1 3
v 2.325 0.1 2.4750001
v 2.325 0.4 2.4750001
v 1.21 0.4 2.4750001
v 1.21 0.1 2.4750001
v 1.21 0.1 2.4750001
v 1.21 0.4 2.4750001
v 1.21 0.4 3
v 1.21 0.1 3
v 2.625 0.4 3
v 2.8125 0.4 2.9497595
v 2.8125 0.1 2.9497595
v 2.625 0.1 3
v 2.8125 0.4 2.9497595
v 2.9497595 0.4 2.8125
v 2.9497595 0.1 2.8125
v 2.8125 0.1 2.9497595
v 2.9497595 0.4 2.8125
v 3 0.4 2.625
v 3 0.1 2.625
v 2.9497595 0.1 2.8125
v 2.325 0.1 2.4750001
v 2.4750001 0.1 2.325
v 2.4750001 0.4 2.325
v 2.325 0.4 2.4750001
v -3 0.1 2.625
v -3 0.1 1.21
v -3 0.4 1.21
v -3 0.4 2.625
v -1.21 0.1 3
v -2.625 0.1 3
v -2.625 0.4 3
v -1.21 0.4 3
v -2.4750001 0.4 1.21
v -3 0.4 2.625
v -3 0.4 1.21
v -2.4750001 0.4 2.325
v -2.9497595 0.4 2.8125
v -2.8125 0.4 2.9497595
v -2.325 0.4 2.4750001
v -2.325 0.4 2.4750001
v -2.625 0.4 3
v -1.21 0.4 3
v -1.21 0.4 2.4750001
v -3 0.1 1.21
v -2.4750001 0.1 1.21
v -2.4750001 0.4 1.21
v -3 0.4 1.21
v -2.4750001 0.1 1.21
v -2.4750001 0.1 2.325
v -2.4750001 0.4 2.325
v -2.4750001 0.4 1.21
v -2.4750001 0.1 1.21
v -3 0.1 1.21
v -3 0.1 2.625
v -2.4750001 0.1 2.325
v -2.9497595 0.1 2.8125
v -2.8125 0.1 2.9497595
v -2.325 0.1 2.4750001
v -2.625 0.1 3
v -2.325 0.1 2.4750001
v -1.21 0.1 2.4750001
v -1.21 0.1 3
v -2.325 0.1 2.4750001
v -1.21 0.1 2.4750001
v -1.21 0.4 2.4750001
v -2.325 0.4 2.4750001
v -1.21 0.1 2.4750001
v -1.21 0.1 3
v -1.21 0.4 3
v -1.21 0.4 2.4750001
v -2.625 0.4 3
v -2.625 0.1 3
v -2.8125 0.1 2.9497595
v -2.8125 0.4 2.9497595
v -2.8125 0.4 2.9497595
v -2.8125 0.1 2.9497595
v -2.9497595 0.1 2.8125
v -2.9497595 0.4 2.8125
v -2.9497595 0.4 2.8125
v -2.9497595 0.1 2.8125
v -3 0.1 2.625
v -3 0.4 2.625
v -2.325 0.1 2.4750001
v -2.325 0.4 2.4750001
v -2.4750001 0.4 2.325
v -2.4750001 0.1 2.325
v 3 0.1 -2.625
v 3 0.1 -1.21
v 3 0.4 -1.21
v 3 0.4 -2.625
v 1.21 0.1 -3
v 2.625 0.1 -3
v 2.625 0.4 -3
v 1.21 0.4 -3
v 2.4750001 0.4 -1.21
v 3 0.4 -2.625
v 3 0.4 -1.21
v 2.4750001 0.4 -2.325
v 2.9497595 0.4 -2.8125
v 2.8125 0.4 -2.9497595
v 2.325 0.4 -2.4750001
v 2.325 0.4 -2.4750001
v 2.625 0.4 -3
v 1.21 0.4 -3
v 1.21 0.4 -2.4750001
v 3 0.1 -1.21
v 2.4750001 0.1 -1.21
v 2.4750001 0.4 -1.21
v 3 0.4 -1.21
v 2.4750001 0.1 -1.21
v 2.4750001 0.1 -2.325
v 2.4750001 0.4 -2.325
v 2.4750001 0.4 -1.21
v 2.4750001 0.1 -1.21
v 3 0.1 -1.21
v 3 0.1 -2.625
v 2.4750001 0.1 -2.325
v 2.9497595 0.1 -2.8125
v 2.8125 0.1 -2.9497595
v 2.325 0.1 -2.4750001
v 2.625 0.1 -3
v 2.325 0.1 -2.4750001
v 1.21 0.1 -2.4750001
v 1.21 0.1 -3
v 2.325 0.1 -2.4750001
v 1.21 0.1 -2.4750001
v 1.21 0.4 -2.4750001
v 2.325 0.4 -2.4750001
v 1.21 0.1 -2.4750001
v 1.21 0.1 -3
v 1.21 0.4 -3
v 1.21 0.4 -2.4750001
v 2.625 0.4 -3
v 2.625 0.1 -3
v 2.8125 0.1 -2.9497595
v 2.8125 0.4 -2.9497595
v 2.8125 0.4 -2.9497595
v 2.8125 0.1 -2.9497595
v 2.9497595 0.1 -2.8125
v 2.9497595 0.4 -2.8125
v 2.9497595 0.4 -2.8125
v 2.9497595 0.1 -2.8125
v 3 0.1 -2.625
v 3 0.4 -2.625
v 2.325 0.1 -2.4750001
v 2.325 0.4 -2.4750001
v 2.4750001 0.4 -2.325
v 2.4750001 0.1 -2.325
v -3 0.1 -2.625
v -3 0.4 -2.625
v -3 0.4 -1.21
v -3 0.1 -1.21
v -1.21 0.1 -3
v -1.21 0.4 -3
v -2.625 0.4 -3
v -2.625 0.1 -3
v -2.4750001 0.4 -1.21
v -3 0.4 -1.21
v -3 0.4 -2.625
v -2.4750001 0.4 -2.325
v -2.9497595 0.4 -2.8125
v -2.8125 0.4 -2.9497595
v -2.325 0.4 -2.4750001
v -2.625 0.4 -3
v -2.325 0.4 -2.4750001
v -1.21 0.4 -3
v -1.21 0.4 -2.4750001
v -3 0.1 -1.21
v -3 0.4 -1.21
v -2.4750001 0.4 -1.21
v -2.4750001 0.1 -1.21
v -2.4750001 0.1 -1.21
v -2.4750001 0.4 -1.21
v -2.4750001 0.4 -2.325
v -2.4750001 0.1 -2.325
v -2.4750001 0.1 -1.21
v -3 0.1 -2.625
v -3 0.1 -1.21
v -2.4750001 0.1 -2.325
v -2.9497595 0.1 -2.8125
v -2.8125 0.1 -2.9497595
v -2.325 0.1 -2.4750001
v -2.325 0.1 -2.4750001
v -2.625 0.1 -3
v -1.21 0.1 -2.4750001
v -1.21 0.1 -3
v -2.325 0.1 -2.4750001
v -2.325 0.4 -2.4750001
v -1.21 0.4 -2.4750001
v -1.21 0.1 -2.4750001
v -1.21 0.1 -2.4750001
v -1.21 0.4 -2.4750001
v -1.21 0.4 -3
v -1.21 0.1 -3
v -2.625 0.4 -3
v -2.8125 0.4 -2.9497595
v -2.8125 0.1 -2.9497595
v -2.625 0.1 -3
v -2.8125 0.4 -2.9497595
v -2.9497595 0.4 -2.8125
v -2.9497595 0.1 -2.8125
v -2.8125 0.1 -2.9497595
v -2.9497595 0.4 -2.8125
v -3 0.4 -2.625
v -3 0.1 -2.625
v -2.9497595 0.1 -2.8125
v -2.325 0.1 -2.4750001
v -2.4750001 0.1 -2.325
v -2.4750001 0.4 -2.325
v -2.325 0.4 -2.4750001
vt 0.5289839 0.03058207
vt 0.5289839 0.03058207
vt 0.5289839 0.03058207
vt 0.5289839 0.03058207
vt 0.5289839 0.03058207
vt 0.5289839 0.03058207
vt 0.5289839 0.03058207
vt 0.5289839 0.03058207
vt 0.5289839 0.03058207
vt 0.5289839 0.03058207
vt 0.5289839 0.03058207
vt 0.5289839 0.03058207
vt 0.5289839 0.03058207
vt 0.5289839 0.03058207
vt 0.5289839 0.030582074
vt 0.5289839 0.03058207
vt 0.5289839 0.030582074
vt 0.5289839 0.03058207
vt 0.52898383 0.03058207
vt 0.5289839 0.03058207
vt 0.5289839 0.03058207
vt 0.5289839 0.03058207
vt 0.5289839 0.03058207
vt 0.5289839 0.03058207
vt 0.5289839 0.03058207
vt 0.5289839 0.030582074
vt 0.5289839 0.030582072
vt 0.5289839 0.03058207
vt 0.5289839 0.03058207
vt 0.5289839 0.03058207
vt 0.5289839 0.030582074
vt 0.5289839 0.03058207
vt 0.5289839 0.03058207
vt 0.5289839 0.030582072
vt 0.5289839 0.030582072
vt 0.5289839 0.03058207
vt 0.52898383 0.03058207
vt 0.5289839 0.03058207
vt 0.5289839 0.030582074
vt 0.5289839 0.030582072
vt 0.52898383 0.03058207
vt 0.52898383 0.03058207
vt 0.52898383 0.03058207
vt 0.52898383 0.03058207
vt 0.5289839 0.03058207
vt 0.5289839 0.03058207
vt 0.5289839 0.03058207
vt 0.5289839 0.03058207
vt 0.5289839 0.03058207
vt 0.5289839 0.03058207
vt 0.5289839 0.03058207
vt 0.5289839 0.03058207
vt 0.5289839 0.03058207
vt 0.5289839 0.03058207
vt 0.5289839 0.03058207
vt 0.5289839 0.03058207
vt 0.5289839 0.03058207
vt 0.5289839 0.03058207
vt 0.5289839 0.030582074
vt 0.5289839 0.030582072
vt 0.5289839 0.030582074
vt 0.5289839 0.030582072
vt 0.5289839 0.03058207
vt 0.5289839 0.03058207
vt 0.5289839 0.03058207
vt 0.5289839 0.03058207
vt 0.5289839 0.03058207
vt 0.5289839 0.03058207
vt 0.5289839 0.03058207
vt 0.5289839 0.03058207
vt 0.5289839 0.03058207
vt 0.5289839 0.03058207
vt 0.5289839 0.03058207
vt 0.5289839 0.03058207
vt 0.5289839 0.03058207
vt 0.5289839 0.03058207
vt 0.5289839 0.030582074
vt 0.5289839 0.030582074
vt 0.5289839 0.03058207
vt 0.5289839 0.03058207
vt 0.52898383 0.03058207
vt 0.5289839 0.03058207
vt 0.5289839 0.03058207
vt 0.5289839 0.03058207
vt 0.5289839 0.03058207
vt 0.5289839 0.03058207
vt 0.5289839 0.030582072
vt 0.5289839 0.030582074
vt 0.5289839 0.03058207
vt 0.5289839 0.03058207
vt 0.5289839 0.03058207
vt 0.5289839 0.03058207
vt 0.5289839 0.030582074
vt 0.5289839 0.03058207
vt 0.5289839 0.03058207
vt 0.5289839 0.030582072
vt 0.5289839 0.03058207
vt 0.5289839 0.030582072
vt 0.52898383 0.03058207
vt 0.5289839 0.03058207
vt 0.5289839 0.030582074
vt 0.52898383 0.03058207
vt 0.52898383 0.03058207
vt 0.5289839 0.030582072
vt 0.52898383 0.03058207
vt 0.5289839 0.03058207
vt 0.5289839 0.03058207
vt 0.52898383 0.03058207
vt 0.5289839 0.03058207
vt 0.5289839 0.03058207
vt 0.5289839 0.03058207
vt 0.5289839 0.03058207
vt 0.5289839 0.03058207
vt 0.5289839 0.03058207
vt 0.5289839 0.03058207
vt 0.5289839 0.03058207
vt 0.5289839 0.03058207
vt 0.5289839 0.03058207
vt 0.5289839 0.03058207
vt 0.5289839 0.03058207
vt 0.5289839 0.030582074
vt 0.5289839 0.030582072
vt 0.5289839 0.030582074
vt 0.5289839 0.030582072
vt 0.5289839 0.03058207
vt 0.5289839 0.03058207
vt 0.5289839 0.03058207
vt 0.5289839 0.03058207
vt 0.5289839 0.03058207
vt 0.5289839 0.03058207
vt 0.5289839 0.03058207
vt 0.5289839 0.03058207
vt 0.5289839 0.03058207
vt 0.5289839 0.03058207
vt 0.5289839 0.03058207
vt 0.5289839 0.03058207
vt 0.5289839 0.03058207
vt 0.5289839 0.03058207
vt 0.5289839 0.030582074
vt 0.5289839 0.030582074
vt 0.5289839 0.03058207
vt 0.5289839 0.03058207
vt 0.52898383 0.03058207
vt 0.5289839 0.03058207
vt 0.5289839 0.03058207
vt 0.5289839 0.03058207
vt 0.5289839 0.03058207
vt 0.5289839 0.03058207
vt 0.5289839 0.030582072
vt 0.5289839 0.030582074
vt 0.5289839 0.03058207
vt 0.5289839 0.03058207
vt 0.5289839 0.03058207
vt 0.5289839 0.03058207
vt 0.5289839 0.030582074
vt 0.5289839 0.03058207
vt 0.5289839 0.03058207
vt 0.5289839 0.030582072
vt 0.5289839 0.03058207
vt 0.5289839 0.030582072
vt 0.52898383 0.03058207
vt 0.5289839 0.03058207
vt 0.5289839 0.030582074
vt 0.52898383 0.03058207
vt 0.52898383 0.03058207
vt 0.5289839 0.030582072
vt 0.52898383 0.03058207
vt 0.5289839 0.03058207
vt 0.5289839 0.03058207
vt 0.52898383 0.03058207
vt 0.5289839 0.03058207
vt 0.5289839 0.03058207
vt 0.5289839 0.03058207
vt 0.5289839 0.03058207
vt 0.5289839 0.03058207
vt 0.5289839 0.03058207
vt 0.5289839 0.03058207
vt 0.5289839 0.03058207
vt 0.5289839 0.03058207
vt 0.5289839 0.03058207
vt 0.5289839 0.03058207
vt 0.5289839 0.03058207
vt 0.5289839 0.030582074
vt 0.5289839 0.030582072
vt 0.5289839 0.030582074
vt 0.5289839 0.030582072
vt 0.5289839 0.03058207
vt 0.5289839 0.03058207
vt 0.5289839 0.03058207
vt 0.5289839 0.03058207
vt 0.5289839 0.03058207
vt 0.5289839 0.03058207
vt 0.5289839 0.03058207
vt 0.5289839 0.03058207
vt 0.5289839 0.03058207
vt 0.5289839 0.03058207
vt 0.5289839 0.03058207
vt 0.5289839 0.03058207
vt 0.5289839 0.03058207
vt 0.5289839 0.03058207
vt 0.5289839 0.030582074
vt 0.5289839 0.03058207
vt 0.5289839 0.030582074
vt 0.5289839 0.03058207
vt 0.52898383 0.03058207
vt 0.5289839 0.03058207
vt 0.5289839 0.03058207
vt 0.5289839 0.03058207
vt 0.5289839 0.03058207
vt 0.5289839 0.03058207
vt 0.5289839 0.03058207
vt 0.5289839 0.030582074
vt 0.5289839 0.030582072
vt 0.5289839 0.03058207
vt 0.5289839 0.03058207
vt 0.5289839 0.03058207
vt 0.5289839 0.030582074
vt 0.5289839 0.03058207
vt 0.5289839 0.03058207
vt 0.5289839 0.030582072
vt 0.5289839 0.030582072
vt 0.5289839 0.03058207
vt 0.52898383 0.03058207
vt 0.5289839 0.03058207
vt 0.5289839 0.030582074
vt 0.5289839 0.030582072
vt 0.52898383 0.03058207
vt 0.52898383 0.03058207
vt 0.52898383 0.03058207
vt 0.52898383 0.03058207
vt 0.5289839 0.03058207
vt 0.5289839 0.03058207
vt 0.5289839 0.03058207
vt 0.5289839 0.03058207
vt 0.5289839 0.03058207
vt 0.5289839 0.03058207
vt 0.5289839 0.03058207
vt 0.5289839 0.03058207
vt 0.5289839 0.03058207
vt 0.5289839 0.03058207
vt 0.5289839 0.03058207
vt 0.5289839 0.03058207
vt 0.5289839 0.03058207
vt 0.5289839 0.03058207
vt 0.5289839 0.030582074
vt 0.5289839 0.030582072
vt 0.5289839 0.030582074
vt 0.5289839 0.030582072
vn 1 0 0
vn 1 0 0
vn 1 0 0
vn 1 0 0
vn -0 0 1
vn -0 0 1
vn -0 0 1
vn -0 0 1
vn -0 1 0
vn -0 1 0
vn -0 1 0
vn -0 1 0
vn -0 1 0
vn -0 1 0
vn -0 1 0
vn -0 1 0
vn -0 1 0
vn -0 1 0
vn -0 1 0
vn -0 0 -1
vn -0 0 -1
vn -0 0 -1
vn -0 0 -1
vn -1 0 0
vn -1 0 0
vn -1 0 0
vn -1 0 0
vn -0 -1 0
vn -0 -1 0
vn -0 -1 0
vn -0 -1 0
vn -0 -1 0
vn -0 -1 0
vn -0 -1 0
vn -0 -1 0
vn -0 -1 0
vn -0 -1 0
vn -0 -1 0
vn -0 0 -1
vn -0 0 -1
vn -0 0 -1
vn -0 0 -1
vn -1 0 0
vn -1 0 0
vn -1 0 0
vn -1 0 0
vn 0.25881913 0 0.9659258
vn 0.25881913 0 0.9659258
vn 0.25881913 0 0.9659258
vn 0.25881913 0 0.9659258
vn 0.70710707 0 0.7071064
vn 0.70710707 0 0.7071064
vn 0.70710707 0 0.7071064
vn 0.70710707 0 0.7071064
vn 0.9659257 0 0.2588194
vn 0.9659257 0 0.2588194
vn 0.9659257 0 0.2588194
vn 0.9659257 0 0.2588194
vn -0.7071069 0 -0.70710665
vn -0.7071069 0 -0.70710665
vn -0.7071069 0 -0.70710665
vn -0.7071069 0 -0.70710665
vn -1 0 0
vn -1 0 0
vn -1 0 0
vn -1 0 0
vn -0 0 1
vn -0 0 1
vn -0 0 1
vn -0 0 1
vn -0 1 0
vn -0 1 0
vn -0 1 0
vn -0 1 0
vn -0 1 0
vn -0 1 0
vn -0 1 0
vn -0 1 0
vn -0 1 0
vn -0 1 0
vn -0 1 0
vn -0 0 -1
vn -0 0 -1
vn -0 0 -1
vn -0 0 -1
vn 1 0 0
vn 1 0 0
vn 1 0 0
vn 1 0 0
vn -0 -1 0
vn -0 -1 0
vn -0 -1 0
vn -0 -1 0
vn -0 -1 0
vn -0 -1 0
vn -0 -1 0
vn -0 -1 0
vn -0 -1 0
vn -0 -1 0
vn -0 -1 0
vn -0 0 -1
vn -0 0 -1
vn -0 0 -1
vn -0 0 -1
vn 1 0 0
vn 1 0 0
vn 1 0 0
vn 1 0 0
vn -0.25881913 0 0.9659258
vn -0.25881913 0 0.9659258
vn -0.25881913 0 0.9659258
vn -0.25881913 0 0.9659258
vn -0.70710707 0 0.7071064
vn -0.70710707 0 0.7071064
vn -0.70710707 0 0.7071064
vn -0.70710707 0 0.7071064
vn -0.9659257 0 0.2588194
vn -0.9659257 0 0.2588194
vn -0.9659257 0 0.2588194
vn -0.9659257 0 0.2588194
vn 0.7071069 0 -0.70710665
vn 0.7071069 0 -0.70710665
vn 0.7071069 0 -0.70710665
vn 0.7071069 0 -0.70710665
vn 1 0 0
vn 1 0 0
vn 1 0 0
vn 1 0 0
vn -0 0 -1
vn -0 0 -1
vn -0 0 -1
vn -0 0 -1
vn -0 1 0
vn -0 1 0
vn -0 1 0
vn -0 1 0
vn -0 1 0
vn -0 1 0
vn -0 1 0
vn -0 1 0
vn -0 1 0
vn -0 1 0
vn -0 1 0
vn -0 0 1
vn -0 0 1
vn -0 0 1
vn -0 0 1
vn -1 0 0
vn -1 0 0
vn -1 0 0
vn -1 0 0
vn -0 -1 0
vn -0 -1 0
vn -0 -1 0
vn -0 -1 0
vn -0 -1 0
vn -0 -1 0
vn -0 -1 0
vn -0 -1 0
vn -0 -1 0
vn -0 -1 0
vn -0 -1 0
vn -0 0 1
vn -0 0 1
vn -0 0 1
vn -0 0 1
vn -1 0 0
vn -1 0 0
vn -1 0 0
vn -1 0 0
vn 0.25881913 0 -0.9659258
vn 0.25881913 0 -0.9659258
vn 0.25881913 0 -0.9659258
vn 0.25881913 0 -0.9659258
vn 0.70710707 0 -0.7071064
vn 0.70710707 0 -0.7071064
vn 0.70710707 0 -0.7071064
vn 0.70710707 0 -0.7071064
vn 0.9659257 0 -0.2588194
vn 0.9659257 0 -0.2588194
vn 0.9659257 0 -0.2588194
vn 0.9659257 0 -0.2588194
vn -0.7071069 0 0.70710665
vn -0.7071069 0 0.70710665
vn -0.7071069 0 0.70710665
vn -0.7071069 0 0.70710665
vn -1 0 0
vn -1 0 0
vn -1 0 0
vn -1 0 0
vn -0 0 -1
vn -0 0 -1
vn -0 0 -1
vn -0 0 -1
vn -0 1 0
vn -0 1 0
vn -0 1 0
vn -0 1 0
vn -0 1 0
vn -0 1 0
vn -0 1 0
vn -0 1 0
vn -0 1 0
vn -0 1 0
vn -0 1 0
vn -0 0 1
vn -0 0 1
vn -0 0 1
vn -0 0 1
vn 1 0 0
vn 1 0 0
vn 1 0 0
vn 1 0 0
vn -0 -1 0
vn -0 -1 0
vn -0 -1 0
vn -0 -1 0
vn -0 -1 0
vn -0 -1 0
vn -0 -1 0
vn -0 -1 0
vn -0 -1 0
vn -0 -1 0
vn -0 -1 0
vn -0 0 1
vn -0 0 1
vn -0 0 1
vn -0 0 1
vn 1 0 0
vn 1 0 0
vn 1 0 0
vn 1 0 0
vn -0.25881913 0 -0.9659258
vn -0.25881913 0 -0.9659258
vn -0.25881913 0 -0.9659258
vn -0.25881913 0 -0.9659258
vn -0.70710707 0 -0.7071064
vn -0.70710707 0 -0.7071064
vn -0.70710707 0 -0.7071064
vn -0.70710707 0 -0.7071064
vn -0.9659257 0 -0.2588194
vn -0.9659257 0 -0.2588194
vn -0.9659257 0 -0.2588194
vn -0.9659257 0 -0.2588194
vn 0.7071069 0 0.70710665
vn 0.7071069 0 0.70710665
vn 0.7071069 0 0.70710665
vn 0.7071069 0 0.70710665
g mat_Gray_0
f 3/3/3 2/2/2 1/1/1
f 4/4/4 3/3/3 1/1/1
f 7/7/7 6/6/6 5/5/5
f 8/8/8 7/7/7 5/5/5
f 11/11/11 10/10/10 9/9/9
f 12/12/12 11/11/11 9/9/9
f 11/11/11 12/12/12 13/13/13
f 14/14/14 13/13/13 12/12/12
f 15/15/15 14/14/14 12/12/12
f 17/17/17 16/16/16 14/14/14
f 18/18/18 16/16/16 17/17/17
f 19/19/19 18/18/18 17/17/17
f 22/22/22 21/21/21 20/20/20
f 23/23/23 22/22/22 20/20/20
f 26/26/26 25/25/25 24/24/24
f 27/27/27 26/26/26 24/24/24
f 30/30/30 29/29/29 28/28/28
f 29/29/29 31/31/31 28/28/28
f 32/32/32 31/31/31 29/29/29
f 31/31/31 32/32/32 33/33/33
f 34/34/34 31/31/31 33/33/33
f 36/36/36 35/35/35 33/33/33
f 35/35/35 36/36/36 37/37/37
f 36/36/36 38/38/38 37/37/37
f 41/41/41 40/40/40 39/39/39
f 42/42/42 41/41/41 39/39/39
f 45/45/45 44/44/44 43/43/43
f 46/46/46 45/45/45 43/43/43
f 49/49/49 48/48/48 47/47/47
f 50/50/50 49/49/49 47/47/47
f 53/53/53 52/52/52 51/51/51
f 54/54/54 53/53/53 51/51/51
f 57/57/57 56/56/56 55/55/55
f 58/58/58 57/57/57 55/55/55
f 61/61/61 60/60/60 59/59/59
f 62/62/62 61/61/61 59/59/59
f 65/65/65 64/64/64 63/63/63
f 66/66/66 65/65/65 63/63/63
f 69/69/69 68/68/68 67/67/67
f 70/70/70 69/69/69 67/67/67
f 73/73/73 72/72/72 71/71/71
f 72/72/72 74/74/74 71/71/71
f 74/74/74 72/72/72 75/75/75
f 75/75/75 76/76/76 74/74/74
f 76/76/76 77/77/77 74/74/74
f 79/79/79 78/78/78 76/76/76
f 79/79/79 80/80/80 78/78/78
f 80/80/80 81/81/81 78/78/78
f 84/84/84 83/83/83 82/82/82
f 85/85/85 84/84/84 82/82/82
f 88/88/88 87/87/87 86/86/86
f 89/89/89 88/88/88 86/86/86
f 92/92/92 91/91/91 90/90/90
f 93/93/93 92/92/92 90/90/90
f 93/93/93 94/94/94 92/92/92
f 94/94/94 93/93/93 95/95/95
f 93/93/93 96/96/96 95/95/95
f 98/98/98 97/97/97 95/95/95
f 97/97/97 98/98/98 99/99/99
f 100/100/100 97/97/97 99/99/99
f 103/103/103 102/102/102 101/101/101
f 104/104/104 103/103/103 101/101/101
f 107/107/107 106/106/106 105/105/105
f 108/108/108 107/107/107 105/105/105
f 111/111/111 110/110/110 109/109/109
f 112/112/112 111/111/111 109/109/109
f 115/115/115 114/114/114 113/113/113
f 116/116/116 115/115/115 113/113/113
f 119/119/119 118/118/118 117/117/117
f 120/120/120 119/119/119 117/117/117
f 123/123/123 122/122/122 121/121/121
f 124/124/124 123/123/123 121/121/121
f 127/127/127 126/126/126 125/125/125
f 128/128/128 127/127/127 125/125/125
f 131/131/131 130/130/130 129/129/129
f 132/132/132 131/131/131 129/129/129
f 135/135/135 134/134/134 133/133/133
f 134/134/134 136/136/136 133/133/133
f 136/136/136 134/134/134 137/137/137
f 137/137/137 138/138/138 136/136/136
f 138/138/138 139/139/139 136/136/136
f 141/141/141 140/140/140 138/138/138
f 141/141/141 142/142/142 140/140/140
f 142/142/142 143/143/143 140/140/140
f 146/146/146 145/145/145 144/144/144
f 147/147/147 146/146/146 144/144/144
f 150/150/150 149/149/149 148/148/148
f 151/151/151 150/150/150 148/148/148
f 154/154/154 153/153/153 152/152/152
f 155/155/155 154/154/154 152/152/152
f 155/155/155 156/156/156 154/154/154
f 156/156/156 155/155/155 157/157/157
f 155/155/155 158/158/158 157/157/157
f 160/160/160 159/159/159 157/157/157
f 159/159/159 160/160/160 161/161/161
f 162/162/162 159/159/159 161/161/161
f 165/165/165 164/164/164 163/163/163
f 166/166/166 165/165/165 163/163/163
f 169/169/169 168/168/168 167/167/167
f 170/170/170 169/169/169 167/167/167
f 173/173/173 172/172/172 171/171/171
f 174/174/174 173/173/173 171/171/171
f 177/177/177 176/176/176 175/175/175
f 178/178/178 177/177/177 175/175/175
f 181/181/181 180/180/180 179/179/179
f 182/182/182 181/181/181 179/179/179
f 185/185/185 184/184/184 183/183/183
f 186/186/186 185/185/185 183/183/183
f 189/189/189 188/188/188 187/187/187
f 190/190/190 189/189/189 187/187/187
f 193/193/193 192/192/192 191/191/191
f 194/194/194 193/193/193 191/191/191
f 197/197/197 196/196/196 195/195/195
f 198/198/198 197/197/197 195/195/195
f 197/197/197 198/198/198 199/199/199
f 200/200/200 199/199/199 198/198/198
f 201/201/201 200/200/200 198/198/198
f 203/203/203 202/202/202 200/200/200
f 204/204/204 202/202/202 203/203/203
f 205/205/205 204/204/204 203/203/203
f 208/208/208 207/207/207 206/206/206
f 209/209/209 208/208/208 206/206/206
f 212/212/212 211/211/211 210/210/210
f 213/213/213 212/212/212 210/210/210
f 216/216/216 215/215/215 214/214/214
f 215/215/215 217/217/217 214/214/214
f 218/218/218 217/217/217 215/215/215
f 217/217/217 218/218/218 219/219/219
f 220/220/220 217/217/217 219/219/219
f 222/222/222 221/221/221 219/219/219
f 221/221/221 222/222/222 223/223/223
f 222/222/222 224/224/224 223/223/223
f 227/227/227 226/226/226 225/225/225
f 228/228/228 227/227/227 225/225/225
f 231/231/231 230/230/230 229/229/229
f 232/232/232 231/231/231 229/229/229
f 235/235/235 234/234/234 233/233/233
f 236/236/236 235/235/235 233/233/233
f 239/239/239 238/238/238 237/237/237
f 240/240/240 239/239/239 237/237/237
f 243/243/243 242/242/242 241/241/241
f 244/244/244 243/243/243 241/241/241
f 247/247/247 246/246/246 245/245/245
f 248/248/248 247/247/247 245/245/245
