g milk
v -0.63041735 0.2666322 0.63041735
v -0.63041735 0.2666322 -0.63
v -0.25153738 0.5549432 -0.00054609776
v 0.63 0.2666322 -0.63
v 0.63 0.2666322 0.63041735
v 0.25262955 0.5549432 -0.00054609776
v -0.63041735 -0.61641467 -0.63
v -0.63041735 -0.61641467 0.63041735
v 0.63 -0.61641467 0.63041735
v 0.63 -0.61641467 -0.63
v 0.63 -0.26319593 0.63041735
v -0.63041735 -0.26319593 0.63041735
v -0.63041735 0.2666322 0.63041735
v 0.63 0.2666322 0.63041735
v 0.63 -0.26319593 -0.63
v 0.63 -0.26319593 0.63041735
v 0.63 0.2666322 0.63041735
v 0.63 0.2666322 -0.63
v -0.63041735 -0.26319593 -0.63
v 0.63 -0.26319593 -0.63
v 0.63 0.2666322 -0.63
v -0.63041735 0.2666322 -0.63
v -0.63041735 -0.26319593 0.63041735
v -0.63041735 -0.26319593 -0.63
v -0.63041735 0.2666322 -0.63
v -0.63041735 0.2666322 0.63041735
v -0.63041735 -0.61641467 0.63041735
v -0.63041735 -0.61641467 -0.63
v -0.63041735 -0.26319593 -0.63
v -0.63041735 -0.26319593 0.63041735
v -0.63041735 -0.61641467 -0.63
v 0.63 -0.61641467 -0.63
v 0.63 -0.26319593 -0.63
v -0.63041735 -0.26319593 -0.63
v 0.63 -0.61641467 -0.63
v 0.63 -0.61641467 0.63041735
v 0.63 -0.26319593 0.63041735
v 0.63 -0.26319593 -0.63
v 0.63 -0.61641467 0.63041735
v -0.63041735 -0.61641467 0.63041735
v -0.63041735 -0.26319593 0.63041735
v 0.63 -0.26319593 0.63041735
v -0.63041735 0.2666322 -0.63
v 0.63 0.2666322 -0.63
v 0.63 0.6440027 -0.00054609776
v -0.63041735 0.6440027 -0.00054609776
v 0.63 0.2666322 0.63041735
v -0.63041735 0.2666322 0.63041735
v -0.63041735 0.6440027 -0.00054609776
v 0.63 0.6440027 -0.00054609776
v -0.63041735 0.2666322 -0.5364121
v -0.63041735 0.60173714 -0.00054609776
v 0.63 0.60173714 -0.00054609776
v 0.63 0.2666322 -0.5364121
v 0.63 0.2666322 0.5353199
v 0.63 0.60173714 -0.00054609776
v -0.63041735 0.60173714 -0.00054609776
v -0.63041735 0.2666322 0.5353199
v -0.63041735 0.6440027 -0.00054609776
v -0.63041735 0.2666322 -0.5364121
v -0.63041735 0.2666322 -0.63
v -0.63041735 0.60173714 -0.00054609776
v -0.63041735 0.2666322 0.63041735
v -0.63041735 0.2666322 0.5353199
v 0.63 0.6440027 -0.00054609776
v 0.63 0.2666322 0.5353199
v 0.63 0.2666322 0.63041735
v 0.63 0.60173714 -0.00054609776
v 0.63 0.2666322 -0.63
v 0.63 0.2666322 -0.5364121
v 0.63 0.6440027 -0.00054609776
v 0.63 0.60173714 -0.00054609776
v -0.63041735 0.60173714 -0.00054609776
v -0.63041735 0.6440027 -0.00054609776
v 0.63 0.6047561 -0.02469778
v 0.63 0.9141998 -0.02469778
v -0.63041735 0.9141998 -0.02469778
v -0.63041735 0.6047561 -0.02469778
v 0.63 0.6047561 0.025115132
v -0.63041735 0.6047561 0.025115132
v -0.63041735 0.9141998 0.025115132
v 0.63 0.9141998 0.025115132
v -0.63041735 0.9141998 -0.02469778
v -0.63041735 0.9141998 0.025115132
v -0.63041735 0.6047561 0.025115132
v -0.63041735 0.6047561 -0.02469778
v 0.63 0.6047561 -0.02469778
v 0.63 0.6047561 0.025115132
v 0.63 0.9141998 0.025115132
v 0.63 0.9141998 -0.02469778
v 0.63 0.9141998 -0.02469778
v 0.63 0.9141998 0.025115132
v -0.63041735 0.9141998 0.025115132
v -0.63041735 0.9141998 -0.02469778
vt 0.592729 0.15519369
vt 0.592729 0.15519369
vt 0.592729 0.15519369
vt 0.592729 0.15519369
vt 0.592729 0.15519369
vt 0.592729 0.15519369
vt 0.21839324 0.651067
vt 0.21839324 0.651067
vt 0.21839324 0.651067
vt 0.21839324 0.651067
vt 0.52952945 0.031225353
vt 0.52952945 0.031225353
vt 0.52952945 0.031225353
vt 0.52952945 0.031225353
vt 0.52952945 0.031225353
vt 0.52952945 0.031225353
vt 0.52952945 0.031225353
vt 0.52952945 0.031225353
vt 0.52952945 0.031225353
vt 0.52952945 0.031225353
vt 0.52952945 0.031225353
vt 0.52952945 0.031225353
vt 0.52952945 0.031225353
vt 0.52952945 0.031225353
vt 0.52952945 0.031225353
vt 0.52952945 0.031225353
vt 0.21839324 0.651067
vt 0.21839324 0.651067
vt 0.21839324 0.651067
vt 0.21839324 0.651067
vt 0.21839324 0.651067
vt 0.21839324 0.651067
vt 0.21839324 0.651067
vt 0.21839324 0.651067
vt 0.21839324 0.651067
vt 0.21839324 0.651067
vt 0.21839324 0.651067
vt 0.21839324 0.651067
vt 0.21839324 0.651067
vt 0.21839324 0.651067
vt 0.21839324 0.651067
vt 0.21839324 0.651067
vt 0.52952945 0.031225353
vt 0.52952945 0.031225353
vt 0.52952945 0.031225353
vt 0.52952945 0.031225353
vt 0.52952945 0.031225353
vt 0.52952945 0.031225353
vt 0.52952945 0.031225353
vt 0.52952945 0.031225353
vt 0.52952945 0.031225353
vt 0.52952945 0.031225353
vt 0.52952945 0.031225353
vt 0.52952945 0.031225353
vt 0.52952945 0.031225353
vt 0.52952945 0.031225353
vt 0.52952945 0.031225353
vt 0.52952945 0.031225353
vt 0.52952945 0.031225353
vt 0.52952945 0.031225353
vt 0.52952945 0.031225353
vt 0.52952945 0.031225353
vt 0.52952945 0.031225353
vt 0.52952945 0.031225353
vt 0.52952945 0.031225353
vt 0.52952945 0.031225353
vt 0.52952945 0.031225353
vt 0.52952945 0.031225353
vt 0.52952945 0.031225353
vt 0.52952945 0.031225353
vt 0.52952945 0.031225353
vt 0.52952945 0.031225353
vt 0.52952945 0.031225353
vt 0.52952945 0.031225353
vt 0.21839324 0.651067
vt 0.21839324 0.651067
vt 0.21839324 0.651067
vt 0.21839324 0.651067
vt 0.21839324 0.651067
vt 0.21839324 0.651067
vt 0.21839324 0.651067
vt 0.21839324 0.651067
vt 0.21839324 0.651067
vt 0.21839324 0.651067
vt 0.21839324 0.651067
vt 0.21839324 0.651067
vt 0.21839324 0.651067
vt 0.21839324 0.651067
vt 0.21839324 0.651067
vt 0.21839324 0.651067
vt 0.21839324 0.651067
vt 0.21839324 0.651067
vt 0.21839324 0.651067
vt 0.21839324 0.651067
vn -0.6074502 0.79435784 -0
vn -0.6074502 0.79435784 -0
vn -0.6074502 0.79435784 -0
vn 0.6074501 0.79435784 -0
vn 0.6074501 0.79435784 -0
vn 0.6074501 0.79435784 -0
vn -0.015871048 -0.999874 -0.00034526698
vn -0.015871048 -0.999874 -0.00034526698
vn -0.015871048 -0.999874 -0.00034526698
vn -0.015871048 -0.999874 -0.00034526698
vn -0.015871048 0.015871048 0.99974805
vn -0.015871048 0.015871048 0.99974805
vn -0.015871048 0.015871048 0.99974805
vn -0.015871048 0.015871048 0.99974805
vn 0.999874 0.015871048 -0.00034391563
vn 0.999874 0.015871048 -0.00034391563
vn 0.999874 0.015871048 -0.00034391563
vn 0.999874 0.015871048 -0.00034391563
vn -0.015871048 0.015871048 -0.99974805
vn -0.015871048 0.015871048 -0.99974805
vn -0.015871048 0.015871048 -0.99974805
vn -0.015871048 0.015871048 -0.99974805
vn -0.999874 0.015871048 -0.00034391563
vn -0.999874 0.015871048 -0.00034391563
vn -0.999874 0.015871048 -0.00034391563
vn -0.999874 0.015871048 -0.00034391563
vn -0.999874 0.015871048 -0.00034391563
vn -0.999874 0.015871048 -0.00034391563
vn -0.999874 0.015871048 -0.00034391563
vn -0.999874 0.015871048 -0.00034391563
vn -0.015871048 0.015871048 -0.99974805
vn -0.015871048 0.015871048 -0.99974805
vn -0.015871048 0.015871048 -0.99974805
vn -0.015871048 0.015871048 -0.99974805
vn 0.999874 0.015871048 -0.00034391563
vn 0.999874 0.015871048 -0.00034391563
vn 0.999874 0.015871048 -0.00034391563
vn 0.999874 0.015871048 -0.00034391563
vn -0.015871048 0.015871048 0.99974805
vn -0.015871048 0.015871048 0.99974805
vn -0.015871048 0.015871048 0.99974805
vn -0.015871048 0.015871048 0.99974805
vn -0.015871048 0.87290585 -0.4876305
vn -0.015871048 0.87290585 -0.4876305
vn -0.015871048 0.87290585 -0.4876305
vn -0.015871048 0.87290585 -0.4876305
vn -0.015871048 0.87290585 0.4876305
vn -0.015871048 0.87290585 0.4876305
vn -0.015871048 0.87290585 0.4876305
vn -0.015871048 0.87290585 0.4876305
vn -0.015871048 -0.8411638 0.5405475
vn -0.015871048 -0.8411638 0.5405475
vn -0.015871048 -0.8411638 0.5405475
vn -0.015871048 -0.8411638 0.5405475
vn -0.015871048 -0.8411638 -0.5405475
vn -0.015871048 -0.8411638 -0.5405475
vn -0.015871048 -0.8411638 -0.5405475
vn -0.015871048 -0.8411638 -0.5405475
vn -0.999874 0.015871048 -0.00034391563
vn -0.999874 0.015871048 -0.00034391563
vn -0.999874 0.015871048 -0.00034391563
vn -0.999874 0.015871048 -0.00034391563
vn -0.999874 0.015871048 -0.00034391563
vn -0.999874 0.015871048 -0.00034391563
vn 0.999874 0.015871048 -0.00034391563
vn 0.999874 0.015871048 -0.00034391563
vn 0.999874 0.015871048 -0.00034391563
vn 0.999874 0.015871048 -0.00034391563
vn 0.999874 0.015871048 -0.00034391563
vn 0.999874 0.015871048 -0.00034391563
vn -0.015871048 0.015871048 0.99974805
vn -0.015871048 0.015871048 0.99974805
vn -0.015871048 0.015871048 0.99974805
vn -0.015871048 0.015871048 0.99974805
vn -0.015871048 0.015871048 -0.99974805
vn -0.015871048 0.015871048 -0.99974805
vn -0.015871048 0.015871048 -0.99974805
vn -0.015871048 0.015871048 -0.99974805
vn -0.015871048 0.015871048 0.99974805
vn -0.015871048 0.015871048 0.99974805
vn -0.015871048 0.015871048 0.99974805
vn -0.015871048 0.015871048 0.99974805
vn -0.999874 0.015871048 -0.00034391563
vn -0.999874 0.015871048 -0.00034391563
vn -0.999874 0.015871048 -0.00034391563
vn -0.999874 0.015871048 -0.00034391563
vn 0.999874 0.015871048 -0.00034391563
vn 0.999874 0.015871048 -0.00034391563
vn 0.999874 0.015871048 -0.00034391563
vn 0.999874 0.015871048 -0.00034391563
vn -0.015871048 0.999874 -0.00034526698
vn -0.015871048 0.999874 -0.00034526698
vn -0.015871048 0.999874 -0.00034526698
vn -0.015871048 0.999874 -0.00034526698
g milk_0
f 3/3/3 2/2/2 1/1/1
f 6/6/6 5/5/5 4/4/4
f 9/9/9 8/8/8 7/7/7
f 10/10/10 9/9/9 7/7/7
f 13/13/13 12/12/12 11/11/11
f 14/14/14 13/13/13 11/11/11
f 17/17/17 16/16/16 15/15/15
f 18/18/18 17/17/17 15/15/15
f 21/21/21 20/20/20 19/19/19
f 22/22/22 21/21/21 19/19/19
f 25/25/25 24/24/24 23/23/23
f 26/26/26 25/25/25 23/23/23
f 29/29/29 28/28/28 27/27/27
f 30/30/30 29/29/29 27/27/27
f 33/33/33 32/32/32 31/31/31
f 34/34/34 33/33/33 31/31/31
f 37/37/37 36/36/36 35/35/35
f 38/38/38 37/37/37 35/35/35
f 41/41/41 40/40/40 39/39/39
f 42/42/42 41/41/41 39/39/39
f 45/45/45 44/44/44 43/43/43
f 46/46/46 45/45/45 43/43/43
f 49/49/49 48/48/48 47/47/47
f 50/50/50 49/49/49 47/47/47
f 53/53/53 52/52/52 51/51/51
f 54/54/54 53/53/53 51/51/51
f 57/57/57 56/56/56 55/55/55
f 58/58/58 57/57/57 55/55/55
f 61/61/61 60/60/60 59/59/59
f 60/60/60 62/62/62 59/59/59
f 59/59/59 62/62/62 63/63/63
f 62/62/62 64/64/64 63/63/63
f 67/67/67 66/66/66 65/65/65
f 66/66/66 68/68/68 65/65/65
f 65/65/65 68/68/68 69/69/69
f 68/68/68 70/70/70 69/69/69
f 73/73/73 72/72/72 71/71/71
f 74/74/74 73/73/73 71/71/71
f 77/77/77 76/76/76 75/75/75
f 78/78/78 77/77/77 75/75/75
f 81/81/81 80/80/80 79/79/79
f 82/82/82 81/81/81 79/79/79
f 85/85/85 84/84/84 83/83/83
f 86/86/86 85/85/85 83/83/83
f 89/89/89 88/88/88 87/87/87
f 90/90/90 89/89/89 87/87/87
f 93/93/93 92/92/92 91/91/91
f 94/94/94 93/93/93 91/91/91
