g net
v 0.16167903 -1.1890287 -0.09446907
v -0.001544714 -1.1890287 -0.18088174
v -0.1551671 -1.1890287 -0.09446907
v 0.16167903 -1.1890287 0.08795738
v -0.1551671 -1.1890287 0.08795738
v -0.001544714 -1.1890287 0.1839714
v -1.5089643 5.992818 0.001544714
v -0.49121618 6.3192654 -0.24809146
v -0.54882455 6.549699 0.001544714
v -1.3361394 5.8295937 -0.24809146
v 0.48812652 6.3192654 -0.24809146
v -2.0562441 5.0422792 0.001544714
v 0.55533624 6.549699 0.001544714
v -1.8258107 4.975069 -0.24809146
v 1.3330497 5.8295937 -0.24809146
v -2.0562441 3.9381182 0.001544714
v 1.5058749 5.992818 0.001544714
v -1.8258107 3.9957268 -0.24809146
v 1.822721 4.975069 -0.24809146
v -1.5089643 2.9779785 0.001544714
v 2.062756 5.0422792 0.001544714
v -1.3361394 3.1508038 -0.24809146
v 1.822721 3.9957268 -0.24809146
v -0.54882455 2.4306986 0.001544714
v 2.062756 3.9381182 0.001544714
v -0.49121618 2.661132 -0.24809146
v 1.3330497 3.1508038 -0.24809146
v 0.55533624 2.4306986 0.001544714
v 1.5058749 2.9779785 0.001544714
v 0.48812652 2.661132 -0.24809146
v -1.3361394 5.8295937 -0.24809146
v -1.1633141 5.647167 0.001544714
v -0.42400646 6.0792303 0.001544714
v -1.8258107 4.975069 -0.24809146
v -0.49121618 6.3192654 -0.24809146
v -1.5857756 4.9174604 0.001544714
v 0.4209168 6.0792303 0.001544714
v -1.8258107 3.9957268 -0.24809146
v 0.48812652 6.3192654 -0.24809146
v -1.5857756 4.062937 0.001544714
v 1.1602244 5.647167 0.001544714
v -1.3361394 3.1508038 -0.24809146
v 1.3330497 5.8295937 -0.24809146
v -1.1633141 3.3236287 0.001544714
v 1.5826861 4.9174604 0.001544714
v -0.49121618 2.661132 -0.24809146
v 1.822721 4.975069 -0.24809146
v -0.42400646 2.9011672 0.001544714
v 1.5826861 4.062937 0.001544714
v 0.48812652 2.661132 -0.24809146
v 1.822721 3.9957268 -0.24809146
v 0.4209168 2.9011672 0.001544714
v 1.1602244 3.3236287 0.001544714
v 1.3330497 3.1508038 -0.24809146
v -1.1633141 5.647167 0.001544714
v -1.3361394 5.8295937 0.24157977
v -0.49121618 6.3192654 0.24157977
v -1.5857756 4.9174604 0.001544714
v -0.42400646 6.0792303 0.001544714
v -1.8258107 4.975069 0.24157977
v 0.48812652 6.3192654 0.24157977
v -1.5857756 4.062937 0.001544714
v 0.4209168 6.0792303 0.001544714
v -1.8258107 3.9957268 0.24157977
v 1.3330497 5.8295937 0.24157977
v -1.1633141 3.3236287 0.001544714
v 1.1602244 5.647167 0.001544714
v -1.3361394 3.1508038 0.24157977
v 1.822721 4.975069 0.24157977
v -0.42400646 2.9011672 0.001544714
v 1.5826861 4.9174604 0.001544714
v -0.49121618 2.661132 0.24157977
v 1.822721 3.9957268 0.24157977
v 0.4209168 2.9011672 0.001544714
v 1.5826861 4.062937 0.001544714
v 0.48812652 2.661132 0.24157977
v 1.3330497 3.1508038 0.24157977
v 1.1602244 3.3236287 0.001544714
v -1.3361394 5.8295937 0.24157977
v -1.5089643 5.992818 0.001544714
v -0.54882455 6.549699 0.001544714
v -1.8258107 4.975069 0.24157977
v -0.49121618 6.3192654 0.24157977
v -2.0562441 5.0422792 0.001544714
v 0.55533624 6.549699 0.001544714
v -1.8258107 3.9957268 0.24157977
v 0.48812652 6.3192654 0.24157977
v -2.0562441 3.9381182 0.001544714
v 1.5058749 5.992818 0.001544714
v -1.3361394 3.1508038 0.24157977
v 1.3330497 5.8295937 0.24157977
v -1.5089643 2.9779785 0.001544714
v 2.062756 5.0422792 0.001544714
v -0.49121618 2.661132 0.24157977
v 1.822721 4.975069 0.24157977
v -0.54882455 2.4306986 0.001544714
v 2.062756 3.9381182 0.001544714
v 0.48812652 2.661132 0.24157977
v 1.822721 3.9957268 0.24157977
v 0.55533624 2.4306986 0.001544714
v 1.5058749 2.9779785 0.001544714
v 1.3330497 3.1508038 0.24157977
v -0.1551671 -1.1890287 0.08795738
v -0.1551671 -1.1890287 -0.09446907
v -0.1647687 2.661132 -0.09446907
v -0.1647687 2.661132 0.09755874
v -0.001544714 2.661132 -0.1904831
v -0.001544714 -1.1890287 0.1839714
v -0.001544714 -1.1890287 -0.18088174
v -0.001544714 2.661132 0.19357276
v 0.17128038 2.661132 -0.09446907
v 0.16167903 -1.1890287 0.08795738
v 0.16167903 -1.1890287 -0.09446907
v 0.17128038 2.661132 0.09755874
v 1.0642104 4.206958 -2.811665
v 1.0642104 4.7734394 -2.811665
v -0.001544714 4.4853983 -3.2725322
v -0.779258 5.263111 -2.811665
v -1.0673001 4.7734394 -2.811665
v -0.001544714 4.4853983 -3.2725322
v -0.779258 3.7076848 -2.811665
v -0.27998543 3.4292443 -2.811665
v -0.001544714 4.4853983 -3.2725322
v 0.7761686 3.7076848 -2.811665
v 1.0642104 4.206958 -2.811665
v -0.001544714 4.4853983 -3.2725322
v -0.27998543 5.551153 -2.811665
v -0.779258 5.263111 -2.811665
v -0.001544714 4.4853983 -3.2725322
v 0.7761686 5.263111 -2.811665
v 0.28649712 5.551153 -2.811665
v -0.001544714 4.4853983 -3.2725322
v -1.0673001 4.206958 -2.811665
v -0.779258 3.7076848 -2.811665
v -0.001544714 4.4853983 -3.2725322
v 0.28649712 3.4292443 -2.811665
v 0.7761686 3.7076848 -2.811665
v -0.001544714 4.4853983 -3.2725322
v -0.27998543 5.551153 -2.811665
v -0.001544714 4.4853983 -3.2725322
v 0.28649712 5.551153 -2.811665
v 1.0642104 4.7734394 -2.811665
v 0.7761686 5.263111 -2.811665
v -0.001544714 4.4853983 -3.2725322
v -1.0673001 4.7734394 -2.811665
v -1.0673001 4.206958 -2.811665
v -0.001544714 4.4853983 -3.2725322
v -0.27998543 3.4292443 -2.811665
v 0.28649712 3.4292443 -2.811665
v -0.001544714 4.4853983 -3.2725322
v 1.0642104 4.206958 -2.811665
v -0.001544714 4.4853983 -3.2725322
v 1.0642104 4.7734394 -2.811665
v -0.779258 5.263111 -2.811665
v -0.001544714 4.4853983 -3.2725322
v -1.0673001 4.7734394 -2.811665
v -0.779258 3.7076848 -2.811665
v -0.001544714 4.4853983 -3.2725322
v -0.27998543 3.4292443 -2.811665
v 0.7761686 3.7076848 -2.811665
v -0.001544714 4.4853983 -3.2725322
v 1.0642104 4.206958 -2.811665
v -0.27998543 5.551153 -2.811665
v -0.001544714 4.4853983 -3.2725322
v -0.779258 5.263111 -2.811665
v 0.7761686 5.263111 -2.811665
v -0.001544714 4.4853983 -3.2725322
v 0.28649712 5.551153 -2.811665
v -1.0673001 4.206958 -2.811665
v -0.001544714 4.4853983 -3.2725322
v -0.779258 3.7076848 -2.811665
v 0.28649712 3.4292443 -2.811665
v -0.001544714 4.4853983 -3.2725322
v 0.7761686 3.7076848 -2.811665
v -0.27998543 5.551153 -2.811665
v 0.28649712 5.551153 -2.811665
v -0.001544714 4.4853983 -3.2725322
v 1.0642104 4.7734394 -2.811665
v -0.001544714 4.4853983 -3.2725322
v 0.7761686 5.263111 -2.811665
v -1.0673001 4.7734394 -2.811665
v -0.001544714 4.4853983 -3.2725322
v -1.0673001 4.206958 -2.811665
v -0.27998543 3.4292443 -2.811665
v -0.001544714 4.4853983 -3.2725322
v 0.28649712 3.4292443 -2.811665
v -1.3361394 3.1508038 -0.24809146
v -0.49121618 2.661132 -0.24809146
v -0.47201347 2.7379434 -1.1410217
v -1.2785308 3.208412 -1.1410217
v 1.3330497 3.1508038 -0.24809146
v 1.822721 3.9957268 -0.24809146
v 1.7555112 4.01493 -1.1410217
v 1.2850426 3.208412 -1.1410217
v -0.49121618 6.3192654 -0.24809146
v -1.3361394 5.8295937 -0.24809146
v -1.2785308 5.771985 -1.1410217
v -0.47201347 6.2424536 -1.1410217
v 1.3330497 5.8295937 -0.24809146
v 0.48812652 6.3192654 -0.24809146
v 0.4689238 6.2424536 -1.1410217
v 1.2850426 5.771985 -1.1410217
v -1.8258107 3.9957268 -0.24809146
v -1.3361394 3.1508038 -0.24809146
v -1.2785308 3.208412 -1.1410217
v -1.7489994 4.01493 -1.1410217
v 0.48812652 2.661132 -0.24809146
v 1.3330497 3.1508038 -0.24809146
v 1.2850426 3.208412 -1.1410217
v 0.4689238 2.7379434 -1.1410217
v -0.49121618 6.3192654 -0.24809146
v -0.47201347 6.2424536 -1.1410217
v 0.4689238 6.2424536 -1.1410217
v 0.48812652 6.3192654 -0.24809146
v 1.822721 4.975069 -0.24809146
v 1.3330497 5.8295937 -0.24809146
v 1.2850426 5.771985 -1.1410217
v 1.7555112 4.955867 -1.1410217
v -1.8258107 4.975069 -0.24809146
v -1.8258107 3.9957268 -0.24809146
v -1.7489994 4.01493 -1.1410217
v -1.7489994 4.955867 -1.1410217
v -0.49121618 2.661132 -0.24809146
v 0.48812652 2.661132 -0.24809146
v 0.4689238 2.7379434 -1.1410217
v -0.47201347 2.7379434 -1.1410217
v 1.822721 3.9957268 -0.24809146
v 1.822721 4.975069 -0.24809146
v 1.7555112 4.955867 -1.1410217
v 1.7555112 4.01493 -1.1410217
v -1.3361394 5.8295937 -0.24809146
v -1.8258107 4.975069 -0.24809146
v -1.7489994 4.955867 -1.1410217
v -1.2785308 5.771985 -1.1410217
v -1.3361394 5.8295937 -0.24809146
v -1.2785308 5.771985 -1.1410217
v -1.7489994 4.955867 -1.1410217
v -1.8258107 4.975069 -0.24809146
v 1.822721 3.9957268 -0.24809146
v 1.7555112 4.01493 -1.1410217
v 1.7555112 4.955867 -1.1410217
v 1.822721 4.975069 -0.24809146
v -0.49121618 2.661132 -0.24809146
v -0.47201347 2.7379434 -1.1410217
v 0.4689238 2.7379434 -1.1410217
v 0.48812652 2.661132 -0.24809146
v -1.8258107 4.975069 -0.24809146
v -1.7489994 4.955867 -1.1410217
v -1.7489994 4.01493 -1.1410217
v -1.8258107 3.9957268 -0.24809146
v 1.822721 4.975069 -0.24809146
v 1.7555112 4.955867 -1.1410217
v 1.2850426 5.771985 -1.1410217
v 1.3330497 5.8295937 -0.24809146
v -0.49121618 6.3192654 -0.24809146
v 0.48812652 6.3192654 -0.24809146
v 0.4689238 6.2424536 -1.1410217
v -0.47201347 6.2424536 -1.1410217
v 0.48812652 2.661132 -0.24809146
v 0.4689238 2.7379434 -1.1410217
v 1.2850426 3.208412 -1.1410217
v 1.3330497 3.1508038 -0.24809146
v -1.8258107 3.9957268 -0.24809146
v -1.7489994 4.01493 -1.1410217
v -1.2785308 3.208412 -1.1410217
v -1.3361394 3.1508038 -0.24809146
v 1.3330497 5.8295937 -0.24809146
v 1.2850426 5.771985 -1.1410217
v 0.4689238 6.2424536 -1.1410217
v 0.48812652 6.3192654 -0.24809146
v -0.49121618 6.3192654 -0.24809146
v -0.47201347 6.2424536 -1.1410217
v -1.2785308 5.771985 -1.1410217
v -1.3361394 5.8295937 -0.24809146
v 1.3330497 3.1508038 -0.24809146
v 1.2850426 3.208412 -1.1410217
v 1.7555112 4.01493 -1.1410217
v 1.822721 3.9957268 -0.24809146
v -1.3361394 3.1508038 -0.24809146
v -1.2785308 3.208412 -1.1410217
v -0.47201347 2.7379434 -1.1410217
v -0.49121618 2.661132 -0.24809146
v -1.2209227 3.2660205 -2.0339518
v -1.2785308 3.208412 -1.1410217
v -0.47201347 2.7379434 -1.1410217
v -0.44320917 2.8243563 -2.0339518
v 1.2178328 3.2660205 -2.0339518
v 1.2850426 3.208412 -1.1410217
v 1.7555112 4.01493 -1.1410217
v 1.6690986 4.0437336 -2.0339518
v -0.44320917 6.156041 -2.0339518
v -0.47201347 6.2424536 -1.1410217
v -1.2785308 5.771985 -1.1410217
v -1.2209227 5.704776 -2.0339518
v 1.2178328 5.704776 -2.0339518
v 1.2850426 5.771985 -1.1410217
v 0.4689238 6.2424536 -1.1410217
v 0.44972086 6.156041 -2.0339518
v -1.672188 4.0437336 -2.0339518
v -1.7489994 4.01493 -1.1410217
v -1.2785308 3.208412 -1.1410217
v -1.2209227 3.2660205 -2.0339518
v 0.44972086 2.8243563 -2.0339518
v 0.4689238 2.7379434 -1.1410217
v 1.2850426 3.208412 -1.1410217
v 1.2178328 3.2660205 -2.0339518
v -0.44320917 6.156041 -2.0339518
v 0.44972086 6.156041 -2.0339518
v 0.4689238 6.2424536 -1.1410217
v -0.47201347 6.2424536 -1.1410217
v 1.6690986 4.9366636 -2.0339518
v 1.7555112 4.955867 -1.1410217
v 1.2850426 5.771985 -1.1410217
v 1.2178328 5.704776 -2.0339518
v -1.672188 4.9366636 -2.0339518
v -1.7489994 4.955867 -1.1410217
v -1.7489994 4.01493 -1.1410217
v -1.672188 4.0437336 -2.0339518
v -0.44320917 2.8243563 -2.0339518
v -0.47201347 2.7379434 -1.1410217
v 0.4689238 2.7379434 -1.1410217
v 0.44972086 2.8243563 -2.0339518
v 1.6690986 4.0437336 -2.0339518
v 1.7555112 4.01493 -1.1410217
v 1.7555112 4.955867 -1.1410217
v 1.6690986 4.9366636 -2.0339518
v -1.2209227 5.704776 -2.0339518
v -1.2785308 5.771985 -1.1410217
v -1.7489994 4.955867 -1.1410217
v -1.672188 4.9366636 -2.0339518
v -1.2209227 5.704776 -2.0339518
v -1.672188 4.9366636 -2.0339518
v -1.7489994 4.955867 -1.1410217
v -1.2785308 5.771985 -1.1410217
v 1.6690986 4.0437336 -2.0339518
v 1.6690986 4.9366636 -2.0339518
v 1.7555112 4.955867 -1.1410217
v 1.7555112 4.01493 -1.1410217
v -0.44320917 2.8243563 -2.0339518
v 0.44972086 2.8243563 -2.0339518
v 0.4689238 2.7379434 -1.1410217
v -0.47201347 2.7379434 -1.1410217
v -1.672188 4.9366636 -2.0339518
v -1.672188 4.0437336 -2.0339518
v -1.7489994 4.01493 -1.1410217
v -1.7489994 4.955867 -1.1410217
v 1.6690986 4.9366636 -2.0339518
v 1.2178328 5.704776 -2.0339518
v 1.2850426 5.771985 -1.1410217
v 1.7555112 4.955867 -1.1410217
v -0.44320917 6.156041 -2.0339518
v -0.47201347 6.2424536 -1.1410217
v 0.4689238 6.2424536 -1.1410217
v 0.44972086 6.156041 -2.0339518
v 0.44972086 2.8243563 -2.0339518
v 1.2178328 3.2660205 -2.0339518
v 1.2850426 3.208412 -1.1410217
v 0.4689238 2.7379434 -1.1410217
v -1.672188 4.0437336 -2.0339518
v -1.2209227 3.2660205 -2.0339518
v -1.2785308 3.208412 -1.1410217
v -1.7489994 4.01493 -1.1410217
v 1.2178328 5.704776 -2.0339518
v 0.44972086 6.156041 -2.0339518
v 0.4689238 6.2424536 -1.1410217
v 1.2850426 5.771985 -1.1410217
v -0.44320917 6.156041 -2.0339518
v -1.2209227 5.704776 -2.0339518
v -1.2785308 5.771985 -1.1410217
v -0.47201347 6.2424536 -1.1410217
v 1.2178328 3.2660205 -2.0339518
v 1.6690986 4.0437336 -2.0339518
v 1.7555112 4.01493 -1.1410217
v 1.2850426 3.208412 -1.1410217
v -1.2209227 3.2660205 -2.0339518
v -0.44320917 2.8243563 -2.0339518
v -0.47201347 2.7379434 -1.1410217
v -1.2785308 3.208412 -1.1410217
v 1.6787 4.0437336 -2.0339518
v 1.6787 4.9366636 -2.0339518
v 1.0642104 4.7734394 -2.811665
v 1.0642104 4.206958 -2.811665
v -1.2305238 5.7143774 -2.0339518
v -1.672188 4.9366636 -2.0339518
v -1.0673001 4.7734394 -2.811665
v -0.779258 5.263111 -2.811665
v -1.2305238 3.2660205 -2.0339518
v -0.45281053 2.8147547 -2.0339518
v -0.27998543 3.4292443 -2.811665
v -0.779258 3.7076848 -2.811665
v 1.2274342 3.2660205 -2.0339518
v 1.6787 4.0437336 -2.0339518
v 1.0642104 4.206958 -2.811665
v 0.7761686 3.7076848 -2.811665
v -0.45281053 6.1656427 -2.0339518
v -1.2305238 5.7143774 -2.0339518
v -0.779258 5.263111 -2.811665
v -0.27998543 5.551153 -2.811665
v 1.2274342 5.7143774 -2.0339518
v 0.44972086 6.1656427 -2.0339518
v 0.28649712 5.551153 -2.811665
v 0.7761686 5.263111 -2.811665
v -1.672188 4.0437336 -2.0339518
v -1.2305238 3.2660205 -2.0339518
v -0.779258 3.7076848 -2.811665
v -1.0673001 4.206958 -2.811665
v 0.44972086 2.8147547 -2.0339518
v 1.2274342 3.2660205 -2.0339518
v 0.7761686 3.7076848 -2.811665
v 0.28649712 3.4292443 -2.811665
v -0.45281053 6.1656427 -2.0339518
v -0.27998543 5.551153 -2.811665
v 0.28649712 5.551153 -2.811665
v 0.44972086 6.1656427 -2.0339518
v 1.6787 4.9366636 -2.0339518
v 1.2274342 5.7143774 -2.0339518
v 0.7761686 5.263111 -2.811665
v 1.0642104 4.7734394 -2.811665
v -1.672188 4.9366636 -2.0339518
v -1.672188 4.0437336 -2.0339518
v -1.0673001 4.206958 -2.811665
v -1.0673001 4.7734394 -2.811665
v -0.45281053 2.8147547 -2.0339518
v 0.44972086 2.8147547 -2.0339518
v 0.28649712 3.4292443 -2.811665
v -0.27998543 3.4292443 -2.811665
v 1.6787 4.0437336 -2.0339518
v 1.0642104 4.206958 -2.811665
v 1.0642104 4.7734394 -2.811665
v 1.6787 4.9366636 -2.0339518
v -1.2305238 5.7143774 -2.0339518
v -0.779258 5.263111 -2.811665
v -1.0673001 4.7734394 -2.811665
v -1.672188 4.9366636 -2.0339518
v -1.2305238 3.2660205 -2.0339518
v -0.779258 3.7076848 -2.811665
v -0.27998543 3.4292443 -2.811665
v -0.45281053 2.8147547 -2.0339518
v 1.2274342 3.2660205 -2.0339518
v 0.7761686 3.7076848 -2.811665
v 1.0642104 4.206958 -2.811665
v 1.6787 4.0437336 -2.0339518
v -0.45281053 6.1656427 -2.0339518
v -0.27998543 5.551153 -2.811665
v -0.779258 5.263111 -2.811665
v -1.2305238 5.7143774 -2.0339518
v 1.2274342 5.7143774 -2.0339518
v 0.7761686 5.263111 -2.811665
v 0.28649712 5.551153 -2.811665
v 0.44972086 6.1656427 -2.0339518
v -1.672188 4.0437336 -2.0339518
v -1.0673001 4.206958 -2.811665
v -0.779258 3.7076848 -2.811665
v -1.2305238 3.2660205 -2.0339518
v 0.44972086 2.8147547 -2.0339518
v 0.28649712 3.4292443 -2.811665
v 0.7761686 3.7076848 -2.811665
v 1.2274342 3.2660205 -2.0339518
v -0.45281053 6.1656427 -2.0339518
v 0.44972086 6.1656427 -2.0339518
v 0.28649712 5.551153 -2.811665
v -0.27998543 5.551153 -2.811665
v 1.6787 4.9366636 -2.0339518
v 1.0642104 4.7734394 -2.811665
v 0.7761686 5.263111 -2.811665
v 1.2274342 5.7143774 -2.0339518
v -1.672188 4.9366636 -2.0339518
v -1.0673001 4.7734394 -2.811665
v -1.0673001 4.206958 -2.811665
v -1.672188 4.0437336 -2.0339518
v -0.45281053 2.8147547 -2.0339518
v -0.27998543 3.4292443 -2.811665
v 0.28649712 3.4292443 -2.811665
v 0.44972086 2.8147547 -2.0339518
vt 0.34297878 0.8455106
vt 0.34297878 0.8455106
vt 0.34297878 0.8455106
vt 0.34297878 0.8455106
vt 0.34297878 0.8455106
vt 0.34297878 0.8455106
vt 0.34297878 0.8455106
vt 0.34297878 0.8455106
vt 0.34297878 0.8455106
vt 0.34297878 0.8455106
vt 0.34297878 0.8455106
vt 0.34297878 0.8455106
vt 0.34297878 0.8455106
vt 0.34297878 0.8455106
vt 0.34297878 0.8455106
vt 0.34297878 0.8455106
vt 0.34297878 0.8455106
vt 0.34297878 0.8455106
vt 0.34297878 0.8455106
vt 0.34297878 0.8455106
vt 0.34297878 0.8455106
vt 0.34297878 0.8455106
vt 0.34297878 0.8455106
vt 0.34297878 0.8455106
vt 0.34297878 0.8455106
vt 0.34297878 0.8455106
vt 0.34297878 0.8455106
vt 0.34297878 0.8455106
vt 0.34297878 0.8455106
vt 0.34297878 0.8455106
vt 0.34297878 0.8455106
vt 0.34297878 0.8455106
vt 0.34297878 0.8455106
vt 0.34297878 0.8455106
vt 0.34297878 0.8455106
vt 0.34297878 0.8455106
vt 0.34297878 0.8455106
vt 0.34297878 0.8455106
vt 0.34297878 0.8455106
vt 0.34297878 0.8455106
vt 0.34297878 0.8455106
vt 0.34297878 0.8455106
vt 0.34297878 0.8455106
vt 0.34297878 0.8455106
vt 0.34297878 0.8455106
vt 0.34297878 0.8455106
vt 0.34297878 0.8455106
vt 0.34297878 0.8455106
vt 0.34297878 0.8455106
vt 0.34297878 0.8455106
vt 0.34297878 0.8455106
vt 0.34297878 0.8455106
vt 0.34297878 0.8455106
vt 0.34297878 0.8455106
vt 0.34297878 0.8455106
vt 0.34297878 0.8455106
vt 0.34297878 0.8455106
vt 0.34297878 0.8455106
vt 0.34297878 0.8455106
vt 0.34297878 0.8455106
vt 0.34297878 0.8455106
vt 0.34297878 0.8455106
vt 0.34297878 0.8455106
vt 0.34297878 0.8455106
vt 0.34297878 0.8455106
vt 0.34297878 0.8455106
vt 0.34297878 0.8455106
vt 0.34297878 0.8455106
vt 0.34297878 0.8455106
vt 0.34297878 0.8455106
vt 0.34297878 0.8455106
vt 0.34297878 0.8455106
vt 0.34297878 0.8455106
vt 0.34297878 0.8455106
vt 0.34297878 0.8455106
vt 0.34297878 0.8455106
vt 0.34297878 0.8455106
vt 0.34297878 0.8455106
vt 0.34297878 0.8455106
vt 0.34297878 0.8455106
vt 0.34297878 0.8455106
vt 0.34297878 0.8455106
vt 0.34297878 0.8455106
vt 0.34297878 0.8455106
vt 0.34297878 0.8455106
vt 0.34297878 0.8455106
vt 0.34297878 0.8455106
vt 0.34297878 0.8455106
vt 0.34297878 0.8455106
vt 0.34297878 0.8455106
vt 0.34297878 0.8455106
vt 0.34297878 0.8455106
vt 0.34297878 0.8455106
vt 0.34297878 0.8455106
vt 0.34297878 0.8455106
vt 0.34297878 0.8455106
vt 0.34297878 0.8455106
vt 0.34297878 0.8455106
vt 0.34297878 0.8455106
vt 0.34297878 0.8455106
vt 0.34297878 0.8455106
vt 0.34297878 0.8455106
vt 0.34297878 0.8455106
vt 0.34297878 0.8455106
vt 0.34297878 0.8455106
vt 0.34297878 0.8455106
vt 0.34297878 0.8455106
vt 0.34297878 0.8455106
vt 0.34297878 0.8455106
vt 0.34297878 0.8455106
vt 0.34297878 0.8455106
vt 0.34297878 0.8455106
vt 0.34297878 0.8455106
vt 0.34297878 0.8455106
vt 0.9934642 0.50623786
vt 0.9934642 0.9934642
vt 0.50623786 0.50623786
vt 0.9934642 0.50623786
vt 0.9934642 0.9934642
vt 0.50623786 0.50623786
vt 0.9934642 0.50623786
vt 0.9934642 0.9934642
vt 0.50623786 0.50623786
vt 0.9934642 0.50623786
vt 0.9934642 0.9934642
vt 0.50623786 0.50623786
vt 0.9934642 0.9934642
vt 0.9934642 0.50623786
vt 0.50623786 0.9934642
vt 0.9934642 0.50623786
vt 0.9934642 0.9934642
vt 0.50623786 0.50623786
vt 0.9934642 0.50623786
vt 0.9934642 0.9934642
vt 0.50623786 0.50623786
vt 0.9934642 0.50623786
vt 0.9934642 0.9934642
vt 0.50623786 0.50623786
vt 0.9934642 0.9934642
vt 0.50623786 0.50623786
vt 0.9934642 0.50623786
vt 0.9934642 0.50623786
vt 0.9934642 0.9934642
vt 0.50623786 0.50623786
vt 0.9934642 0.9934642
vt 0.9934642 0.50623786
vt 0.50623786 0.9934642
vt 0.9934642 0.50623786
vt 0.9934642 0.9934642
vt 0.50623786 0.50623786
vt 0.9934642 0.50623786
vt 0.50623786 0.50623786
vt 0.9934642 0.9934642
vt 0.9934642 0.50623786
vt 0.50623786 0.50623786
vt 0.9934642 0.9934642
vt 0.9934642 0.50623786
vt 0.50623786 0.50623786
vt 0.9934642 0.9934642
vt 0.9934642 0.50623786
vt 0.50623786 0.50623786
vt 0.9934642 0.9934642
vt 0.9934642 0.9934642
vt 0.50623786 0.9934642
vt 0.9934642 0.50623786
vt 0.9934642 0.50623786
vt 0.50623786 0.50623786
vt 0.9934642 0.9934642
vt 0.9934642 0.50623786
vt 0.50623786 0.50623786
vt 0.9934642 0.9934642
vt 0.9934642 0.50623786
vt 0.50623786 0.50623786
vt 0.9934642 0.9934642
vt 0.9934642 0.9934642
vt 0.9934642 0.50623786
vt 0.50623786 0.50623786
vt 0.9934642 0.50623786
vt 0.50623786 0.50623786
vt 0.9934642 0.9934642
vt 0.9934642 0.9934642
vt 0.50623786 0.9934642
vt 0.9934642 0.50623786
vt 0.9934642 0.50623786
vt 0.50623786 0.50623786
vt 0.9934642 0.9934642
vt 0.9934642 0.9934642
vt 0.9934642 0.50623786
vt 0.50623786 0.50623786
vt 0.50623786 0.9934642
vt 0.9934642 0.9934642
vt 0.9934642 0.50623786
vt 0.50623786 0.50623786
vt 0.50623786 0.9934642
vt 0.50623786 0.50623786
vt 0.50623786 0.9934642
vt 0.9934642 0.9934642
vt 0.9934642 0.50623786
vt 0.9934642 0.9934642
vt 0.9934642 0.50623786
vt 0.50623786 0.50623786
vt 0.50623786 0.9934642
vt 0.50623786 0.50623786
vt 0.50623786 0.9934642
vt 0.9934642 0.9934642
vt 0.9934642 0.50623786
vt 0.9934642 0.9934642
vt 0.9934642 0.50623786
vt 0.50623786 0.50623786
vt 0.50623786 0.9934642
vt 0.50623786 0.9934642
vt 0.9934642 0.9934642
vt 0.9934642 0.50623786
vt 0.50623786 0.50623786
vt 0.9934642 0.9934642
vt 0.9934642 0.50623786
vt 0.50623786 0.50623786
vt 0.50623786 0.9934642
vt 0.9934642 0.9934642
vt 0.9934642 0.50623786
vt 0.50623786 0.50623786
vt 0.50623786 0.9934642
vt 0.9934642 0.9934642
vt 0.9934642 0.50623786
vt 0.50623786 0.50623786
vt 0.50623786 0.9934642
vt 0.9934642 0.9934642
vt 0.9934642 0.50623786
vt 0.50623786 0.50623786
vt 0.50623786 0.9934642
vt 0.9934642 0.9934642
vt 0.9934642 0.50623786
vt 0.50623786 0.50623786
vt 0.50623786 0.9934642
vt 0.9934642 0.9934642
vt 0.50623786 0.9934642
vt 0.50623786 0.50623786
vt 0.9934642 0.50623786
vt 0.9934642 0.9934642
vt 0.50623786 0.9934642
vt 0.50623786 0.50623786
vt 0.9934642 0.50623786
vt 0.9934642 0.9934642
vt 0.50623786 0.9934642
vt 0.50623786 0.50623786
vt 0.9934642 0.50623786
vt 0.9934642 0.9934642
vt 0.50623786 0.9934642
vt 0.50623786 0.50623786
vt 0.9934642 0.50623786
vt 0.9934642 0.9934642
vt 0.50623786 0.9934642
vt 0.50623786 0.50623786
vt 0.9934642 0.50623786
vt 0.50623786 0.9934642
vt 0.50623786 0.50623786
vt 0.9934642 0.50623786
vt 0.9934642 0.9934642
vt 0.9934642 0.9934642
vt 0.50623786 0.9934642
vt 0.50623786 0.50623786
vt 0.9934642 0.50623786
vt 0.50623786 0.50623786
vt 0.9934642 0.50623786
vt 0.9934642 0.9934642
vt 0.50623786 0.9934642
vt 0.9934642 0.9934642
vt 0.50623786 0.9934642
vt 0.50623786 0.50623786
vt 0.9934642 0.50623786
vt 0.50623786 0.50623786
vt 0.9934642 0.50623786
vt 0.9934642 0.9934642
vt 0.50623786 0.9934642
vt 0.9934642 0.9934642
vt 0.50623786 0.9934642
vt 0.50623786 0.50623786
vt 0.9934642 0.50623786
vt 0.9934642 0.9934642
vt 0.50623786 0.9934642
vt 0.50623786 0.50623786
vt 0.9934642 0.50623786
vt 0.9934642 0.9934642
vt 0.50623786 0.9934642
vt 0.50623786 0.50623786
vt 0.9934642 0.50623786
vt 0.9934642 0.9934642
vt 0.50623786 0.9934642
vt 0.50623786 0.50623786
vt 0.9934642 0.50623786
vt 0.50623786 0.50623786
vt 0.9934642 0.50623786
vt 0.9934642 0.9934642
vt 0.50623786 0.9934642
vt 0.9934642 0.9934642
vt 0.50623786 0.9934642
vt 0.50623786 0.50623786
vt 0.9934642 0.50623786
vt 0.50623786 0.50623786
vt 0.9934642 0.50623786
vt 0.9934642 0.9934642
vt 0.50623786 0.9934642
vt 0.9934642 0.9934642
vt 0.50623786 0.9934642
vt 0.50623786 0.50623786
vt 0.9934642 0.50623786
vt 0.50623786 0.9934642
vt 0.50623786 0.50623786
vt 0.9934642 0.50623786
vt 0.9934642 0.9934642
vt 0.9934642 0.9934642
vt 0.50623786 0.9934642
vt 0.50623786 0.50623786
vt 0.9934642 0.50623786
vt 0.9934642 0.9934642
vt 0.50623786 0.9934642
vt 0.50623786 0.50623786
vt 0.9934642 0.50623786
vt 0.9934642 0.9934642
vt 0.50623786 0.9934642
vt 0.50623786 0.50623786
vt 0.9934642 0.50623786
vt 0.9934642 0.9934642
vt 0.50623786 0.9934642
vt 0.50623786 0.50623786
vt 0.9934642 0.50623786
vt 0.9934642 0.9934642
vt 0.50623786 0.9934642
vt 0.50623786 0.50623786
vt 0.9934642 0.50623786
vt 0.9934642 0.9934642
vt 0.9934642 0.50623786
vt 0.50623786 0.50623786
vt 0.50623786 0.9934642
vt 0.9934642 0.9934642
vt 0.9934642 0.50623786
vt 0.50623786 0.50623786
vt 0.50623786 0.9934642
vt 0.9934642 0.9934642
vt 0.9934642 0.50623786
vt 0.50623786 0.50623786
vt 0.50623786 0.9934642
vt 0.9934642 0.9934642
vt 0.9934642 0.50623786
vt 0.50623786 0.50623786
vt 0.50623786 0.9934642
vt 0.9934642 0.9934642
vt 0.9934642 0.50623786
vt 0.50623786 0.50623786
vt 0.50623786 0.9934642
vt 0.50623786 0.9934642
vt 0.9934642 0.9934642
vt 0.9934642 0.50623786
vt 0.50623786 0.50623786
vt 0.9934642 0.9934642
vt 0.9934642 0.50623786
vt 0.50623786 0.50623786
vt 0.50623786 0.9934642
vt 0.50623786 0.50623786
vt 0.50623786 0.9934642
vt 0.9934642 0.9934642
vt 0.9934642 0.50623786
vt 0.9934642 0.9934642
vt 0.9934642 0.50623786
vt 0.50623786 0.50623786
vt 0.50623786 0.9934642
vt 0.50623786 0.50623786
vt 0.50623786 0.9934642
vt 0.9934642 0.9934642
vt 0.9934642 0.50623786
vt 0.9934642 0.9934642
vt 0.9934642 0.50623786
vt 0.50623786 0.50623786
vt 0.50623786 0.9934642
vt 0.9934642 0.9934642
vt 0.9934642 0.50623786
vt 0.50623786 0.50623786
vt 0.50623786 0.9934642
vt 0.9934642 0.9934642
vt 0.9934642 0.50623786
vt 0.50623786 0.50623786
vt 0.50623786 0.9934642
vt 0.50623786 0.9934642
vt 0.50623786 0.50623786
vt 0.9934642 0.50623786
vt 0.9934642 0.9934642
vt 0.50623786 0.50623786
vt 0.50623786 0.9934642
vt 0.9934642 0.9934642
vt 0.9934642 0.50623786
vt 0.50623786 0.9934642
vt 0.50623786 0.50623786
vt 0.9934642 0.50623786
vt 0.9934642 0.9934642
vt 0.50623786 0.50623786
vt 0.50623786 0.9934642
vt 0.9934642 0.9934642
vt 0.9934642 0.50623786
vt 0.9934642 0.9934642
vt 0.9934642 0.50623786
vt 0.50623786 0.50623786
vt 0.50623786 0.9934642
vt 0.9934642 0.9934642
vt 0.9934642 0.50623786
vt 0.50623786 0.50623786
vt 0.50623786 0.9934642
vt 0.50623786 0.50623786
vt 0.50623786 0.9934642
vt 0.9934642 0.9934642
vt 0.9934642 0.50623786
vt 0.9934642 0.50623786
vt 0.50623786 0.50623786
vt 0.50623786 0.9934642
vt 0.9934642 0.9934642
vt 0.9934642 0.9934642
vt 0.9934642 0.50623786
vt 0.50623786 0.50623786
vt 0.50623786 0.9934642
vt 0.9934642 0.9934642
vt 0.9934642 0.50623786
vt 0.50623786 0.50623786
vt 0.50623786 0.9934642
vt 0.50623786 0.50623786
vt 0.50623786 0.9934642
vt 0.9934642 0.9934642
vt 0.9934642 0.50623786
vt 0.9934642 0.9934642
vt 0.50623786 0.9934642
vt 0.50623786 0.50623786
vt 0.9934642 0.50623786
vt 0.50623786 0.9934642
vt 0.9934642 0.9934642
vt 0.9934642 0.50623786
vt 0.50623786 0.50623786
vt 0.50623786 0.50623786
vt 0.9934642 0.50623786
vt 0.9934642 0.9934642
vt 0.50623786 0.9934642
vt 0.50623786 0.9934642
vt 0.9934642 0.9934642
vt 0.9934642 0.50623786
vt 0.50623786 0.50623786
vt 0.50623786 0.50623786
vt 0.9934642 0.50623786
vt 0.9934642 0.9934642
vt 0.50623786 0.9934642
vt 0.9934642 0.9934642
vt 0.50623786 0.9934642
vt 0.50623786 0.50623786
vt 0.9934642 0.50623786
vt 0.9934642 0.9934642
vt 0.50623786 0.9934642
vt 0.50623786 0.50623786
vt 0.9934642 0.50623786
vt 0.50623786 0.50623786
vt 0.9934642 0.50623786
vt 0.9934642 0.9934642
vt 0.50623786 0.9934642
vt 0.9934642 0.50623786
vt 0.9934642 0.9934642
vt 0.50623786 0.9934642
vt 0.50623786 0.50623786
vt 0.9934642 0.9934642
vt 0.50623786 0.9934642
vt 0.50623786 0.50623786
vt 0.9934642 0.50623786
vt 0.9934642 0.9934642
vt 0.50623786 0.9934642
vt 0.50623786 0.50623786
vt 0.9934642 0.50623786
vt 0.50623786 0.50623786
vt 0.9934642 0.50623786
vt 0.9934642 0.9934642
vt 0.50623786 0.9934642
vn 0.003242135 -0.99999475 -0
vn 0.003242135 -0.99999475 -0
vn 0.003242135 -0.99999475 -0
vn 0.003242135 -0.99999475 -0
vn 0.003242135 -0.99999475 -0
vn 0.003242135 -0.99999475 -0
vn -0.49513412 0.49513412 -0.7139219
vn -0.18364894 0.6820252 -0.70789456
vn -0.18364894 0.6820252 -0.70789456
vn -0.49513412 0.49513412 -0.7139219
vn 0.19013327 0.6820252 -0.7061806
vn -0.6820252 0.18364894 -0.70789456
vn 0.19013327 0.6820252 -0.7061806
vn -0.6820252 0.18364894 -0.70789456
vn 0.50161844 0.49513412 -0.7093808
vn -0.6820252 -0.19013327 -0.7061806
vn 0.50161844 0.49513412 -0.7093808
vn -0.6820252 -0.19013327 -0.7061806
vn 0.6885096 0.18364894 -0.70158935
vn -0.49513412 -0.50161844 -0.7093808
vn 0.6885096 0.18364894 -0.70158935
vn -0.49513412 -0.50161844 -0.7093808
vn 0.6885096 -0.19013327 -0.6998599
vn -0.18364894 -0.6885096 -0.70158935
vn 0.6885096 -0.19013327 -0.6998599
vn -0.18364894 -0.6885096 -0.70158935
vn 0.50161844 -0.50161844 -0.7048105
vn 0.19013327 -0.6885096 -0.6998599
vn 0.50161844 -0.50161844 -0.7048105
vn 0.19013327 -0.6885096 -0.6998599
vn 0.50161844 -0.50161844 -0.7048105
vn 0.50161844 -0.50161844 -0.7048105
vn 0.19013327 -0.6885096 -0.6998599
vn 0.6885096 -0.19013327 -0.6998599
vn 0.19013327 -0.6885096 -0.6998599
vn 0.6885096 -0.19013327 -0.6998599
vn -0.18364894 -0.6885096 -0.70158935
vn 0.6885096 0.18364894 -0.70158935
vn -0.18364894 -0.6885096 -0.70158935
vn 0.6885096 0.18364894 -0.70158935
vn -0.49513412 -0.50161844 -0.7093808
vn 0.50161844 0.49513412 -0.7093808
vn -0.49513412 -0.50161844 -0.7093808
vn 0.50161844 0.49513412 -0.7093808
vn -0.6820252 -0.19013327 -0.7061806
vn 0.19013327 0.6820252 -0.7061806
vn -0.6820252 -0.19013327 -0.7061806
vn 0.19013327 0.6820252 -0.7061806
vn -0.6820252 0.18364894 -0.70789456
vn -0.18364894 0.6820252 -0.70789456
vn -0.6820252 0.18364894 -0.70789456
vn -0.18364894 0.6820252 -0.70789456
vn -0.49513412 0.49513412 -0.7139219
vn -0.49513412 0.49513412 -0.7139219
vn 0.50161844 -0.50161844 0.7048105
vn 0.50161844 -0.50161844 0.7048105
vn 0.19013327 -0.6885096 0.6998599
vn 0.6885096 -0.19013327 0.6998599
vn 0.19013327 -0.6885096 0.6998599
vn 0.6885096 -0.19013327 0.6998599
vn -0.18364894 -0.6885096 0.70158935
vn 0.6885096 0.18364894 0.70158935
vn -0.18364894 -0.6885096 0.70158935
vn 0.6885096 0.18364894 0.70158935
vn -0.49513412 -0.50161844 0.7093808
vn 0.50161844 0.49513412 0.7093808
vn -0.49513412 -0.50161844 0.7093808
vn 0.50161844 0.49513412 0.7093808
vn -0.6820252 -0.19013327 0.7061806
vn 0.19013327 0.6820252 0.7061806
vn -0.6820252 -0.19013327 0.7061806
vn 0.19013327 0.6820252 0.7061806
vn -0.6820252 0.18364894 0.70789456
vn -0.18364894 0.6820252 0.70789456
vn -0.6820252 0.18364894 0.70789456
vn -0.18364894 0.6820252 0.70789456
vn -0.49513412 0.49513412 0.7139219
vn -0.49513412 0.49513412 0.7139219
vn -0.49513412 0.49513412 0.7139219
vn -0.49513412 0.49513412 0.7139219
vn -0.18364894 0.6820252 0.70789456
vn -0.6820252 0.18364894 0.70789456
vn -0.18364894 0.6820252 0.70789456
vn -0.6820252 0.18364894 0.70789456
vn 0.19013327 0.6820252 0.7061806
vn -0.6820252 -0.19013327 0.7061806
vn 0.19013327 0.6820252 0.7061806
vn -0.6820252 -0.19013327 0.7061806
vn 0.50161844 0.49513412 0.7093808
vn -0.49513412 -0.50161844 0.7093808
vn 0.50161844 0.49513412 0.7093808
vn -0.49513412 -0.50161844 0.7093808
vn 0.6885096 0.18364894 0.70158935
vn -0.18364894 -0.6885096 0.70158935
vn 0.6885096 0.18364894 0.70158935
vn -0.18364894 -0.6885096 0.70158935
vn 0.6885096 -0.19013327 0.6998599
vn 0.19013327 -0.6885096 0.6998599
vn 0.6885096 -0.19013327 0.6998599
vn 0.19013327 -0.6885096 0.6998599
vn 0.50161844 -0.50161844 0.7048105
vn 0.50161844 -0.50161844 0.7048105
vn -0.8689164 -0.003242135 0.4949483
vn -0.8689164 -0.003242135 -0.4949483
vn -0.8689164 -0.003242135 -0.4949483
vn -0.8689164 -0.003242135 0.4949483
vn 0.003242135 -0.003242135 -0.9999895
vn 0.003242135 -0.003242135 0.9999895
vn 0.003242135 -0.003242135 -0.9999895
vn 0.003242135 -0.003242135 0.9999895
vn 0.87540066 -0.003242135 -0.4833872
vn 0.87540066 -0.003242135 0.4833872
vn 0.87540066 -0.003242135 -0.4833872
vn 0.87540066 -0.003242135 0.4833872
vn 0.59506404 -0.15898478 -0.7877961
vn 0.59506404 0.15250039 -0.789077
vn 0.003242135 -0.003242135 -0.9999895
vn -0.43283713 0.43283713 -0.79076165
vn -0.58857965 0.15250039 -0.79392546
vn 0.003242135 -0.003242135 -0.9999895
vn -0.43283713 -0.4393214 -0.7871777
vn -0.15250039 -0.59506404 -0.7890769
vn 0.003242135 -0.003242135 -0.9999895
vn 0.4393214 -0.4393214 -0.7835773
vn 0.59506404 -0.15898478 -0.7877961
vn 0.003242135 -0.003242135 -0.9999895
vn -0.15250039 0.58857965 -0.79392546
vn -0.43283713 0.43283713 -0.79076165
vn 0.003242135 -0.003242135 -0.9999895
vn 0.4393214 0.43283713 -0.7871777
vn 0.15898478 0.58857965 -0.79265237
vn 0.003242135 -0.003242135 -0.9999895
vn -0.58857965 -0.15898478 -0.79265237
vn -0.43283713 -0.4393214 -0.7871777
vn 0.003242135 -0.003242135 -0.9999895
vn 0.15898478 -0.59506404 -0.7877961
vn 0.4393214 -0.4393214 -0.7835773
vn 0.003242135 -0.003242135 -0.9999895
vn -0.15250039 0.58857965 -0.79392546
vn 0.003242135 -0.003242135 -0.9999895
vn 0.15898478 0.58857965 -0.79265237
vn 0.59506404 0.15250039 -0.789077
vn 0.4393214 0.43283713 -0.7871777
vn 0.003242135 -0.003242135 -0.9999895
vn -0.58857965 0.15250039 -0.79392546
vn -0.58857965 -0.15898478 -0.79265237
vn 0.003242135 -0.003242135 -0.9999895
vn -0.15250039 -0.59506404 -0.7890769
vn 0.15898478 -0.59506404 -0.7877961
vn 0.003242135 -0.003242135 -0.9999895
vn -0.58857965 0.15250039 0.79392546
vn 0.003242135 -0.003242135 0.9999895
vn -0.58857965 -0.15898478 0.79265237
vn 0.4393214 -0.4393214 0.7835773
vn 0.003242135 -0.003242135 0.9999895
vn 0.59506404 -0.15898478 0.7877961
vn 0.4393214 0.43283713 0.7871777
vn 0.003242135 -0.003242135 0.9999895
vn 0.15898478 0.58857965 0.79265237
vn -0.43283713 0.43283713 0.79076165
vn 0.003242135 -0.003242135 0.9999895
vn -0.58857965 0.15250039 0.79392546
vn 0.15898478 -0.59506404 0.7877961
vn 0.003242135 -0.003242135 0.9999895
vn 0.4393214 -0.4393214 0.7835773
vn -0.43283713 -0.4393214 0.7871777
vn 0.003242135 -0.003242135 0.9999895
vn -0.15250039 -0.59506404 0.7890769
vn 0.59506404 0.15250039 0.789077
vn 0.003242135 -0.003242135 0.9999895
vn 0.4393214 0.43283713 0.7871777
vn -0.15250039 0.58857965 0.79392546
vn 0.003242135 -0.003242135 0.9999895
vn -0.43283713 0.43283713 0.79076165
vn 0.15898478 -0.59506404 0.7877961
vn -0.15250039 -0.59506404 0.7890769
vn 0.003242135 -0.003242135 0.9999895
vn -0.58857965 -0.15898478 0.79265237
vn 0.003242135 -0.003242135 0.9999895
vn -0.43283713 -0.4393214 0.7871777
vn 0.59506404 -0.15898478 0.7877961
vn 0.003242135 -0.003242135 0.9999895
vn 0.59506404 0.15250039 0.789077
vn 0.15898478 0.58857965 0.79265237
vn 0.003242135 -0.003242135 0.9999895
vn -0.15250039 0.58857965 0.79392546
vn -0.70389956 -0.71029955 -0
vn -0.24594593 -0.96884626 -0.02911217
vn -0.24594593 -0.96884626 -0.02911217
vn -0.70389956 -0.71029955 -0
vn 0.70710677 -0.70710677 -0
vn 0.9676934 -0.25212994 -0
vn 0.9676934 -0.25212994 -0
vn 0.70710677 -0.70710677 -0
vn -0.24594593 0.96236193 -0.11562914
vn -0.7071068 0.7071068 -0
vn -0.7071068 0.7071068 -0
vn -0.24594593 0.96236193 -0.11562914
vn 0.71029955 0.70389956 -0
vn 0.25243032 0.96236193 -0.10068988
vn 0.25243032 0.96236193 -0.10068988
vn 0.71029955 0.70389956 -0
vn -0.96236193 -0.25243032 -0.10068984
vn -0.70389956 -0.71029955 -0
vn -0.70389956 -0.71029955 -0
vn -0.96236193 -0.25243032 -0.10068984
vn 0.25212994 -0.9676934 -0
vn 0.70710677 -0.70710677 -0
vn 0.70710677 -0.70710677 -0
vn 0.25212994 -0.9676934 -0
vn -0.24594593 0.96236193 -0.11562914
vn -0.24594593 0.96236193 -0.11562914
vn 0.25243032 0.96236193 -0.10068988
vn 0.25243032 0.96236193 -0.10068988
vn 0.96884626 0.24594593 -0.029112427
vn 0.71029955 0.70389956 -0
vn 0.71029955 0.70389956 -0
vn 0.96884626 0.24594593 -0.029112427
vn -0.96236193 0.24594593 -0.115629196
vn -0.96236193 -0.25243032 -0.10068984
vn -0.96236193 -0.25243032 -0.10068984
vn -0.96236193 0.24594593 -0.115629196
vn -0.24594593 -0.96884626 -0.02911217
vn 0.25212994 -0.9676934 -0
vn 0.25212994 -0.9676934 -0
vn -0.24594593 -0.96884626 -0.02911217
vn 0.9676934 -0.25212994 -0
vn 0.96884626 0.24594593 -0.029112427
vn 0.96884626 0.24594593 -0.029112427
vn 0.9676934 -0.25212994 -0
vn -0.7071068 0.7071068 -0
vn -0.96236193 0.24594593 -0.115629196
vn -0.96236193 0.24594593 -0.115629196
vn -0.7071068 0.7071068 -0
vn 0.70710677 -0.70710677 -0
vn 0.70710677 -0.70710677 -0
vn 0.9676934 -0.25212994 -0
vn 0.9676934 -0.25212994 -0
vn -0.96236193 0.24594593 0.115629196
vn -0.96236193 0.24594593 0.115629196
vn -0.96236193 -0.25243032 0.10068984
vn -0.96236193 -0.25243032 0.10068984
vn 0.25243032 0.96236193 0.10068988
vn 0.25243032 0.96236193 0.10068988
vn -0.24594593 0.96236193 0.11562914
vn -0.24594593 0.96236193 0.11562914
vn 0.9676934 -0.25212994 -0
vn 0.9676934 -0.25212994 -0
vn 0.96884626 0.24594593 0.029112427
vn 0.96884626 0.24594593 0.029112427
vn -0.96236193 -0.25243032 0.10068984
vn -0.96236193 -0.25243032 0.10068984
vn -0.70389956 -0.71029955 -0
vn -0.70389956 -0.71029955 -0
vn 0.25212994 -0.9676934 -0
vn -0.24594593 -0.96884626 0.02911217
vn -0.24594593 -0.96884626 0.02911217
vn 0.25212994 -0.9676934 -0
vn -0.24594593 0.96236193 0.11562914
vn -0.24594593 0.96236193 0.11562914
vn -0.7071068 0.7071068 -0
vn -0.7071068 0.7071068 -0
vn 0.96884626 0.24594593 0.029112427
vn 0.96884626 0.24594593 0.029112427
vn 0.71029955 0.70389956 -0
vn 0.71029955 0.70389956 -0
vn -0.70389956 -0.71029955 -0
vn -0.70389956 -0.71029955 -0
vn -0.24594593 -0.96884626 0.02911217
vn -0.24594593 -0.96884626 0.02911217
vn 0.25212994 -0.9676934 -0
vn 0.25212994 -0.9676934 -0
vn 0.70710677 -0.70710677 -0
vn 0.70710677 -0.70710677 -0
vn -0.7071068 0.7071068 -0
vn -0.7071068 0.7071068 -0
vn -0.96236193 0.24594593 0.115629196
vn -0.96236193 0.24594593 0.115629196
vn 0.71029955 0.70389956 -0
vn 0.71029955 0.70389956 -0
vn 0.25243032 0.96236193 0.10068988
vn 0.25243032 0.96236193 0.10068988
vn -0.71317375 -0.6885096 -0.13167284
vn -0.70389956 -0.71029955 -0
vn -0.24594593 -0.96884626 -0.02911217
vn -0.24594593 -0.96884626 -0.02911217
vn 0.6885096 -0.6885096 -0.22783566
vn 0.70710677 -0.70710677 -0
vn 0.9676934 -0.25212994 -0
vn 0.9676934 -0.25212994 -0
vn -0.24594593 0.96236193 -0.11562914
vn -0.24594593 0.96236193 -0.11562914
vn -0.7071068 0.7071068 -0
vn -0.7071068 0.7071068 -0
vn 0.6885096 0.71317375 -0.13167284
vn 0.71029955 0.70389956 -0
vn 0.25243032 0.96236193 -0.10068988
vn 0.25243032 0.96236193 -0.10068988
vn -0.96236193 -0.25243032 -0.10068984
vn -0.96236193 -0.25243032 -0.10068984
vn -0.70389956 -0.71029955 -0
vn -0.71317375 -0.6885096 -0.13167284
vn 0.25212994 -0.9676934 -0
vn 0.25212994 -0.9676934 -0
vn 0.70710677 -0.70710677 -0
vn 0.6885096 -0.6885096 -0.22783566
vn -0.24594593 0.96236193 -0.11562914
vn 0.25243032 0.96236193 -0.10068988
vn 0.25243032 0.96236193 -0.10068988
vn -0.24594593 0.96236193 -0.11562914
vn 0.96884626 0.24594593 -0.029112427
vn 0.96884626 0.24594593 -0.029112427
vn 0.71029955 0.70389956 -0
vn 0.6885096 0.71317375 -0.13167284
vn -0.96236193 0.24594593 -0.115629196
vn -0.96236193 0.24594593 -0.115629196
vn -0.96236193 -0.25243032 -0.10068984
vn -0.96236193 -0.25243032 -0.10068984
vn -0.24594593 -0.96884626 -0.02911217
vn -0.24594593 -0.96884626 -0.02911217
vn 0.25212994 -0.9676934 -0
vn 0.25212994 -0.9676934 -0
vn 0.9676934 -0.25212994 -0
vn 0.9676934 -0.25212994 -0
vn 0.96884626 0.24594593 -0.029112427
vn 0.96884626 0.24594593 -0.029112427
vn -0.7071068 0.7071068 -0
vn -0.7071068 0.7071068 -0
vn -0.96236193 0.24594593 -0.115629196
vn -0.96236193 0.24594593 -0.115629196
vn 0.6885096 -0.6885096 0.22783566
vn 0.9676934 -0.25212994 -0
vn 0.9676934 -0.25212994 -0
vn 0.70710677 -0.70710677 -0
vn -0.96236193 0.24594593 0.115629196
vn -0.96236193 -0.25243032 0.10068984
vn -0.96236193 -0.25243032 0.10068984
vn -0.96236193 0.24594593 0.115629196
vn 0.25243032 0.96236193 0.10068988
vn -0.24594593 0.96236193 0.11562914
vn -0.24594593 0.96236193 0.11562914
vn 0.25243032 0.96236193 0.10068988
vn 0.9676934 -0.25212994 -0
vn 0.96884626 0.24594593 0.029112427
vn 0.96884626 0.24594593 0.029112427
vn 0.9676934 -0.25212994 -0
vn -0.96236193 -0.25243032 0.10068984
vn -0.71317375 -0.6885096 0.13167284
vn -0.70389956 -0.71029955 -0
vn -0.96236193 -0.25243032 0.10068984
vn 0.25212994 -0.9676934 -0
vn 0.25212994 -0.9676934 -0
vn -0.24594593 -0.96884626 0.02911217
vn -0.24594593 -0.96884626 0.02911217
vn -0.24594593 0.96236193 0.11562914
vn -0.7071068 0.7071068 -0
vn -0.7071068 0.7071068 -0
vn -0.24594593 0.96236193 0.11562914
vn 0.96884626 0.24594593 0.029112427
vn 0.6885096 0.71317375 0.13167284
vn 0.71029955 0.70389956 -0
vn 0.96884626 0.24594593 0.029112427
vn -0.71317375 -0.6885096 0.13167284
vn -0.24594593 -0.96884626 0.02911217
vn -0.24594593 -0.96884626 0.02911217
vn -0.70389956 -0.71029955 -0
vn 0.25212994 -0.9676934 -0
vn 0.6885096 -0.6885096 0.22783566
vn 0.70710677 -0.70710677 -0
vn 0.25212994 -0.9676934 -0
vn -0.7071068 0.7071068 -0
vn -0.96236193 0.24594593 0.115629196
vn -0.96236193 0.24594593 0.115629196
vn -0.7071068 0.7071068 -0
vn 0.6885096 0.71317375 0.13167284
vn 0.25243032 0.96236193 0.10068988
vn 0.25243032 0.96236193 0.10068988
vn 0.71029955 0.70389956 -0
vn 0.75080657 -0.19013327 -0.63256526
vn 0.75080657 0.2147975 -0.6246211
vn 0.59506404 0.15250039 -0.789077
vn 0.59506404 -0.15898478 -0.7877961
vn -0.5574312 0.5574312 -0.6152567
vn -0.7443223 0.2147975 -0.63233405
vn -0.58857965 0.15250039 -0.79392546
vn -0.43283713 0.43283713 -0.79076165
vn -0.5574312 -0.5639155 -0.6093191
vn -0.2147975 -0.75080657 -0.6246211
vn -0.15250039 -0.59506404 -0.7890769
vn -0.43283713 -0.4393214 -0.7871777
vn 0.5639155 -0.5639155 -0.603323
vn 0.75080657 -0.19013327 -0.63256526
vn 0.59506404 -0.15898478 -0.7877961
vn 0.4393214 -0.4393214 -0.7835773
vn -0.2147975 0.7443223 -0.632334
vn -0.5574312 0.5574312 -0.6152567
vn -0.43283713 0.43283713 -0.79076165
vn -0.15250039 0.58857965 -0.79392546
vn 0.5639155 0.5574312 -0.6093191
vn 0.19013327 0.7443223 -0.64018255
vn 0.15898478 0.58857965 -0.79265237
vn 0.4393214 0.43283713 -0.7871777
vn -0.7443223 -0.19013327 -0.6401825
vn -0.5574312 -0.5639155 -0.6093191
vn -0.43283713 -0.4393214 -0.7871777
vn -0.58857965 -0.15898478 -0.79265237
vn 0.19013327 -0.75080657 -0.6325653
vn 0.5639155 -0.5639155 -0.603323
vn 0.4393214 -0.4393214 -0.7835773
vn 0.15898478 -0.59506404 -0.7877961
vn -0.2147975 0.7443223 -0.632334
vn -0.15250039 0.58857965 -0.79392546
vn 0.15898478 0.58857965 -0.79265237
vn 0.19013327 0.7443223 -0.64018255
vn 0.75080657 0.2147975 -0.6246211
vn 0.5639155 0.5574312 -0.6093191
vn 0.4393214 0.43283713 -0.7871777
vn 0.59506404 0.15250039 -0.789077
vn -0.7443223 0.2147975 -0.63233405
vn -0.7443223 -0.19013327 -0.6401825
vn -0.58857965 -0.15898478 -0.79265237
vn -0.58857965 0.15250039 -0.79392546
vn -0.2147975 -0.75080657 -0.6246211
vn 0.19013327 -0.75080657 -0.6325653
vn 0.15898478 -0.59506404 -0.7877961
vn -0.15250039 -0.59506404 -0.7890769
vn -0.7443223 0.2147975 0.63233405
vn -0.58857965 0.15250039 0.79392546
vn -0.58857965 -0.15898478 0.79265237
vn -0.7443223 -0.19013327 0.6401825
vn 0.5639155 -0.5639155 0.603323
vn 0.4393214 -0.4393214 0.7835773
vn 0.59506404 -0.15898478 0.7877961
vn 0.75080657 -0.19013327 0.63256526
vn 0.5639155 0.5574312 0.6093191
vn 0.4393214 0.43283713 0.7871777
vn 0.15898478 0.58857965 0.79265237
vn 0.19013327 0.7443223 0.64018255
vn -0.5574312 0.5574312 0.6152567
vn -0.43283713 0.43283713 0.79076165
vn -0.58857965 0.15250039 0.79392546
vn -0.7443223 0.2147975 0.63233405
vn 0.19013327 -0.75080657 0.6325653
vn 0.15898478 -0.59506404 0.7877961
vn 0.4393214 -0.4393214 0.7835773
vn 0.5639155 -0.5639155 0.603323
vn -0.5574312 -0.5639155 0.6093191
vn -0.43283713 -0.4393214 0.7871777
vn -0.15250039 -0.59506404 0.7890769
vn -0.2147975 -0.75080657 0.6246211
vn 0.75080657 0.2147975 0.6246211
vn 0.59506404 0.15250039 0.789077
vn 0.4393214 0.43283713 0.7871777
vn 0.5639155 0.5574312 0.6093191
vn -0.2147975 0.7443223 0.632334
vn -0.15250039 0.58857965 0.79392546
vn -0.43283713 0.43283713 0.79076165
vn -0.5574312 0.5574312 0.6152567
vn 0.19013327 -0.75080657 0.6325653
vn -0.2147975 -0.75080657 0.6246211
vn -0.15250039 -0.59506404 0.7890769
vn 0.15898478 -0.59506404 0.7877961
vn -0.7443223 -0.19013327 0.6401825
vn -0.58857965 -0.15898478 0.79265237
vn -0.43283713 -0.4393214 0.7871777
vn -0.5574312 -0.5639155 0.6093191
vn 0.75080657 -0.19013327 0.63256526
vn 0.59506404 -0.15898478 0.7877961
vn 0.59506404 0.15250039 0.789077
vn 0.75080657 0.2147975 0.6246211
vn 0.19013327 0.7443223 0.64018255
vn 0.15898478 0.58857965 0.79265237
vn -0.15250039 0.58857965 0.79392546
vn -0.2147975 0.7443223 0.632334
g net_0
f 3/3/3 2/2/2 1/1/1
f 1/1/1 4/4/4 3/3/3
f 4/4/4 5/5/5 3/3/3
f 4/4/4 6/6/6 5/5/5
f 9/9/9 8/8/8 7/7/7
f 8/8/8 10/10/10 7/7/7
f 11/11/11 8/8/8 9/9/9
f 7/7/7 10/10/10 12/12/12
f 13/13/13 11/11/11 9/9/9
f 10/10/10 14/14/14 12/12/12
f 15/15/15 11/11/11 13/13/13
f 12/12/12 14/14/14 16/16/16
f 17/17/17 15/15/15 13/13/13
f 14/14/14 18/18/18 16/16/16
f 19/19/19 15/15/15 17/17/17
f 16/16/16 18/18/18 20/20/20
f 21/21/21 19/19/19 17/17/17
f 18/18/18 22/22/22 20/20/20
f 23/23/23 19/19/19 21/21/21
f 20/20/20 22/22/22 24/24/24
f 25/25/25 23/23/23 21/21/21
f 22/22/22 26/26/26 24/24/24
f 27/27/27 23/23/23 25/25/25
f 24/24/24 26/26/26 28/28/28
f 29/29/29 27/27/27 25/25/25
f 26/26/26 30/30/30 28/28/28
f 30/30/30 27/27/27 29/29/29
f 28/28/28 30/30/30 29/29/29
f 33/33/33 32/32/32 31/31/31
f 31/31/31 32/32/32 34/34/34
f 35/35/35 33/33/33 31/31/31
f 32/32/32 36/36/36 34/34/34
f 37/37/37 33/33/33 35/35/35
f 34/34/34 36/36/36 38/38/38
f 39/39/39 37/37/37 35/35/35
f 36/36/36 40/40/40 38/38/38
f 41/41/41 37/37/37 39/39/39
f 38/38/38 40/40/40 42/42/42
f 43/43/43 41/41/41 39/39/39
f 40/40/40 44/44/44 42/42/42
f 45/45/45 41/41/41 43/43/43
f 42/42/42 44/44/44 46/46/46
f 47/47/47 45/45/45 43/43/43
f 44/44/44 48/48/48 46/46/46
f 49/49/49 45/45/45 47/47/47
f 46/46/46 48/48/48 50/50/50
f 51/51/51 49/49/49 47/47/47
f 48/48/48 52/52/52 50/50/50
f 53/53/53 49/49/49 51/51/51
f 50/50/50 52/52/52 54/54/54
f 54/54/54 53/53/53 51/51/51
f 52/52/52 53/53/53 54/54/54
f 57/57/57 56/56/56 55/55/55
f 55/55/55 56/56/56 58/58/58
f 59/59/59 57/57/57 55/55/55
f 56/56/56 60/60/60 58/58/58
f 61/61/61 57/57/57 59/59/59
f 58/58/58 60/60/60 62/62/62
f 63/63/63 61/61/61 59/59/59
f 60/60/60 64/64/64 62/62/62
f 65/65/65 61/61/61 63/63/63
f 62/62/62 64/64/64 66/66/66
f 67/67/67 65/65/65 63/63/63
f 64/64/64 68/68/68 66/66/66
f 69/69/69 65/65/65 67/67/67
f 66/66/66 68/68/68 70/70/70
f 71/71/71 69/69/69 67/67/67
f 68/68/68 72/72/72 70/70/70
f 73/73/73 69/69/69 71/71/71
f 70/70/70 72/72/72 74/74/74
f 75/75/75 73/73/73 71/71/71
f 72/72/72 76/76/76 74/74/74
f 77/77/77 73/73/73 75/75/75
f 74/74/74 76/76/76 78/78/78
f 78/78/78 77/77/77 75/75/75
f 76/76/76 77/77/77 78/78/78
f 81/81/81 80/80/80 79/79/79
f 79/79/79 80/80/80 82/82/82
f 83/83/83 81/81/81 79/79/79
f 80/80/80 84/84/84 82/82/82
f 85/85/85 81/81/81 83/83/83
f 82/82/82 84/84/84 86/86/86
f 87/87/87 85/85/85 83/83/83
f 84/84/84 88/88/88 86/86/86
f 89/89/89 85/85/85 87/87/87
f 86/86/86 88/88/88 90/90/90
f 91/91/91 89/89/89 87/87/87
f 88/88/88 92/92/92 90/90/90
f 93/93/93 89/89/89 91/91/91
f 90/90/90 92/92/92 94/94/94
f 95/95/95 93/93/93 91/91/91
f 92/92/92 96/96/96 94/94/94
f 97/97/97 93/93/93 95/95/95
f 94/94/94 96/96/96 98/98/98
f 99/99/99 97/97/97 95/95/95
f 96/96/96 100/100/100 98/98/98
f 101/101/101 97/97/97 99/99/99
f 98/98/98 100/100/100 102/102/102
f 102/102/102 101/101/101 99/99/99
f 100/100/100 101/101/101 102/102/102
f 105/105/105 104/104/104 103/103/103
f 106/106/106 105/105/105 103/103/103
f 105/105/105 107/107/107 104/104/104
f 106/106/106 103/103/103 108/108/108
f 107/107/107 109/109/109 104/104/104
f 110/110/110 106/106/106 108/108/108
f 107/107/107 111/111/111 109/109/109
f 110/110/110 108/108/108 112/112/112
f 111/111/111 113/113/113 109/109/109
f 114/114/114 110/110/110 112/112/112
f 114/114/114 112/112/112 113/113/113
f 111/111/111 114/114/114 113/113/113
g net_1
f 117/117/117 116/116/116 115/115/115
f 120/120/120 119/119/119 118/118/118
f 123/123/123 122/122/122 121/121/121
f 126/126/126 125/125/125 124/124/124
f 129/129/129 128/128/128 127/127/127
f 132/132/132 131/131/131 130/130/130
f 135/135/135 134/134/134 133/133/133
f 138/138/138 137/137/137 136/136/136
f 141/141/141 140/140/140 139/139/139
f 144/144/144 143/143/143 142/142/142
f 147/147/147 146/146/146 145/145/145
f 150/150/150 149/149/149 148/148/148
f 153/153/153 152/152/152 151/151/151
f 156/156/156 155/155/155 154/154/154
f 159/159/159 158/158/158 157/157/157
f 162/162/162 161/161/161 160/160/160
f 165/165/165 164/164/164 163/163/163
f 168/168/168 167/167/167 166/166/166
f 171/171/171 170/170/170 169/169/169
f 174/174/174 173/173/173 172/172/172
f 177/177/177 176/176/176 175/175/175
f 180/180/180 179/179/179 178/178/178
f 183/183/183 182/182/182 181/181/181
f 186/186/186 185/185/185 184/184/184
f 189/189/189 188/188/188 187/187/187
f 190/190/190 189/189/189 187/187/187
f 193/193/193 192/192/192 191/191/191
f 194/194/194 193/193/193 191/191/191
f 197/197/197 196/196/196 195/195/195
f 198/198/198 197/197/197 195/195/195
f 201/201/201 200/200/200 199/199/199
f 202/202/202 201/201/201 199/199/199
f 205/205/205 204/204/204 203/203/203
f 206/206/206 205/205/205 203/203/203
f 209/209/209 208/208/208 207/207/207
f 210/210/210 209/209/209 207/207/207
f 213/213/213 212/212/212 211/211/211
f 214/214/214 213/213/213 211/211/211
f 217/217/217 216/216/216 215/215/215
f 218/218/218 217/217/217 215/215/215
f 221/221/221 220/220/220 219/219/219
f 222/222/222 221/221/221 219/219/219
f 225/225/225 224/224/224 223/223/223
f 226/226/226 225/225/225 223/223/223
f 229/229/229 228/228/228 227/227/227
f 230/230/230 229/229/229 227/227/227
f 233/233/233 232/232/232 231/231/231
f 234/234/234 233/233/233 231/231/231
f 237/237/237 236/236/236 235/235/235
f 238/238/238 237/237/237 235/235/235
f 241/241/241 240/240/240 239/239/239
f 242/242/242 241/241/241 239/239/239
f 245/245/245 244/244/244 243/243/243
f 246/246/246 245/245/245 243/243/243
f 249/249/249 248/248/248 247/247/247
f 250/250/250 249/249/249 247/247/247
f 253/253/253 252/252/252 251/251/251
f 254/254/254 253/253/253 251/251/251
f 257/257/257 256/256/256 255/255/255
f 258/258/258 257/257/257 255/255/255
f 261/261/261 260/260/260 259/259/259
f 262/262/262 261/261/261 259/259/259
f 265/265/265 264/264/264 263/263/263
f 266/266/266 265/265/265 263/263/263
f 269/269/269 268/268/268 267/267/267
f 270/270/270 269/269/269 267/267/267
f 273/273/273 272/272/272 271/271/271
f 274/274/274 273/273/273 271/271/271
f 277/277/277 276/276/276 275/275/275
f 278/278/278 277/277/277 275/275/275
f 281/281/281 280/280/280 279/279/279
f 282/282/282 281/281/281 279/279/279
f 285/285/285 284/284/284 283/283/283
f 286/286/286 285/285/285 283/283/283
f 289/289/289 288/288/288 287/287/287
f 290/290/290 289/289/289 287/287/287
f 293/293/293 292/292/292 291/291/291
f 294/294/294 293/293/293 291/291/291
f 297/297/297 296/296/296 295/295/295
f 298/298/298 297/297/297 295/295/295
f 301/301/301 300/300/300 299/299/299
f 302/302/302 301/301/301 299/299/299
f 305/305/305 304/304/304 303/303/303
f 306/306/306 305/305/305 303/303/303
f 309/309/309 308/308/308 307/307/307
f 310/310/310 309/309/309 307/307/307
f 313/313/313 312/312/312 311/311/311
f 314/314/314 313/313/313 311/311/311
f 317/317/317 316/316/316 315/315/315
f 318/318/318 317/317/317 315/315/315
f 321/321/321 320/320/320 319/319/319
f 322/322/322 321/321/321 319/319/319
f 325/325/325 324/324/324 323/323/323
f 326/326/326 325/325/325 323/323/323
f 329/329/329 328/328/328 327/327/327
f 330/330/330 329/329/329 327/327/327
f 333/333/333 332/332/332 331/331/331
f 334/334/334 333/333/333 331/331/331
f 337/337/337 336/336/336 335/335/335
f 338/338/338 337/337/337 335/335/335
f 341/341/341 340/340/340 339/339/339
f 342/342/342 341/341/341 339/339/339
f 345/345/345 344/344/344 343/343/343
f 346/346/346 345/345/345 343/343/343
f 349/349/349 348/348/348 347/347/347
f 350/350/350 349/349/349 347/347/347
f 353/353/353 352/352/352 351/351/351
f 354/354/354 353/353/353 351/351/351
f 357/357/357 356/356/356 355/355/355
f 358/358/358 357/357/357 355/355/355
f 361/361/361 360/360/360 359/359/359
f 362/362/362 361/361/361 359/359/359
f 365/365/365 364/364/364 363/363/363
f 366/366/366 365/365/365 363/363/363
f 369/369/369 368/368/368 367/367/367
f 370/370/370 369/369/369 367/367/367
f 373/373/373 372/372/372 371/371/371
f 374/374/374 373/373/373 371/371/371
f 377/377/377 376/376/376 375/375/375
f 378/378/378 377/377/377 375/375/375
f 381/381/381 380/380/380 379/379/379
f 382/382/382 381/381/381 379/379/379
f 385/385/385 384/384/384 383/383/383
f 386/386/386 385/385/385 383/383/383
f 389/389/389 388/388/388 387/387/387
f 390/390/390 389/389/389 387/387/387
f 393/393/393 392/392/392 391/391/391
f 394/394/394 393/393/393 391/391/391
f 397/397/397 396/396/396 395/395/395
f 398/398/398 397/397/397 395/395/395
f 401/401/401 400/400/400 399/399/399
f 402/402/402 401/401/401 399/399/399
f 405/405/405 404/404/404 403/403/403
f 406/406/406 405/405/405 403/403/403
f 409/409/409 408/408/408 407/407/407
f 410/410/410 409/409/409 407/407/407
f 413/413/413 412/412/412 411/411/411
f 414/414/414 413/413/413 411/411/411
f 417/417/417 416/416/416 415/415/415
f 418/418/418 417/417/417 415/415/415
f 421/421/421 420/420/420 419/419/419
f 422/422/422 421/421/421 419/419/419
f 425/425/425 424/424/424 423/423/423
f 426/426/426 425/425/425 423/423/423
f 429/429/429 428/428/428 427/427/427
f 430/430/430 429/429/429 427/427/427
f 433/433/433 432/432/432 431/431/431
f 434/434/434 433/433/433 431/431/431
f 437/437/437 436/436/436 435/435/435
f 438/438/438 437/437/437 435/435/435
f 441/441/441 440/440/440 439/439/439
f 442/442/442 441/441/441 439/439/439
f 445/445/445 444/444/444 443/443/443
f 446/446/446 445/445/445 443/443/443
f 449/449/449 448/448/448 447/447/447
f 450/450/450 449/449/449 447/447/447
f 453/453/453 452/452/452 451/451/451
f 454/454/454 453/453/453 451/451/451
f 457/457/457 456/456/456 455/455/455
f 458/458/458 457/457/457 455/455/455
f 461/461/461 460/460/460 459/459/459
f 462/462/462 461/461/461 459/459/459
f 465/465/465 464/464/464 463/463/463
f 466/466/466 465/465/465 463/463/463
f 469/469/469 468/468/468 467/467/467
f 470/470/470 469/469/469 467/467/467
f 473/473/473 472/472/472 471/471/471
f 474/474/474 473/473/473 471/471/471
