g officeChair
v -0.0007320756 0.41654778 -0.6411767
v -0.17077863 0.25435382 -0.71362823
v 0.16978113 0.25515404 -0.71358705
v -0.79177797 0.4165626 0.9674797
v -0.7453642 0.25468692 1.1466576
v -0.9531567 0.2548777 0.87689215
v 0.8777941 0.41568846 0.8537745
v 1.0104464 0.2522635 0.731425
v 0.8596748 0.2530876 1.0224085
v 7.294166E-15 1.2318752 0.14810836
v -0.21329786 1.2318752 0.36140636
v -0.21329786 0.19019534 0.36140636
v 1.1261826E-15 0.19019534 0.14810836
v 6.7092163E-15 1.135328 -0.6347942
v 0.19030935 1.5059857 -0.49616146
v 1.1780162E-14 1.9681534 -0.9002228
v 0.16731554 2.0273213 -0.5641529
v 6.7092163E-15 1.135328 -0.6347942
v 1.1780162E-14 1.9681534 -0.9002228
v -0.19030933 1.5059857 -0.49616146
v -0.16731554 2.0273213 -0.5641529
v -0.96934575 3.0857048 -0.68129927
v -0.16731554 2.0273213 -0.5641529
v -0.8688512 2.277283 -0.42679796
v 1.8560155E-14 3.21646 -0.7985957
v 0.16731554 2.0273213 -0.5641529
v 0.96934575 3.0857048 -0.68129927
v 0.8688512 2.277283 -0.42679796
v -0.9531567 0.2548777 0.87689215
v -0.001804916 0.4593592 0.35693133
v -0.79177797 0.4165626 0.9674797
v -0.19744211 0.27172586 0.25371423
v -0.17077863 0.25435382 -0.71362823
v -0.0007320756 0.41654778 -0.6411767
v 0.97683895 3.0262659 -0.9239451
v 0.96934575 3.0857048 -0.68129927
v 1.8560155E-14 3.21646 -0.7985957
v 1.8362392E-14 3.1529133 -1.074287
v -0.97683895 3.0262659 -0.9239451
v -0.96934575 3.0857048 -0.68129927
v -0.97683895 3.0262659 -0.9239451
v -0.8862747 2.212459 -0.81463724
v 1.1780162E-14 1.9681534 -0.9002228
v 1.8362392E-14 3.1529133 -1.074287
v 0.97683895 3.0262659 -0.9239451
v 0.8862747 2.212459 -0.81463724
v -0.96934575 3.0857048 -0.68129927
v -0.8688512 2.277283 -0.42679796
v -0.8862747 2.212459 -0.81463724
v -0.97683895 3.0262659 -0.9239451
v 0.19030935 1.5059857 -0.49616146
v 0.75859857 1.507242 -0.32011494
v -0.19030933 1.5059857 -0.49616146
v -0.75859857 1.507242 -0.32011494
v 0.8728544 1.5086375 -0.17129394
v -0.8728544 1.5086375 -0.17129394
v 0.91324216 1.5025347 1.4170299
v -0.91324216 1.5025347 1.4170299
v 0.8862747 2.212459 -0.81463724
v 0.8688512 2.277283 -0.42679796
v 0.96934575 3.0857048 -0.68129927
v 0.97683895 3.0262659 -0.9239451
v 0.873231 0.19937657 1.0059042
v 0.83075196 0.055038005 0.9988938
v 0.66276944 -2.4434356E-05 0.9275045
v 0.48394936 0.19937052 0.7940017
v 0.51317847 0.055089787 0.8258731
v 1.0104464 0.2522635 0.731425
v 0.8777941 0.41568846 0.8537745
v -0.001804916 0.4593592 0.35693133
v 0.20328993 0.2732353 0.24669023
v 0.16978113 0.25515404 -0.71358705
v -0.0007320756 0.41654778 -0.6411767
v 0.90642715 1.1371616 1.5182303
v 0.91324216 1.5025347 1.4170299
v 1.0506694 1.1421282 1.2134145
v 0.8728544 1.5086375 -0.17129394
v 1.0077181 1.1470249 -0.10336613
v 0.8805281 1.1400365 -0.36138758
v 0.75859857 1.507242 -0.32011494
v 6.7092163E-15 1.135328 -0.6347942
v 0.19030935 1.5059857 -0.49616146
v 6.7092163E-15 1.135328 -0.6347942
v -0.19030933 1.5059857 -0.49616146
v -0.75859857 1.507242 -0.32011494
v -0.8805281 1.1400365 -0.36138758
v -0.8728544 1.5086375 -0.17129394
v -1.0077181 1.1470249 -0.10336613
v -0.91324216 1.5025347 1.4170299
v -1.0506694 1.1421282 1.2134145
v -0.90642715 1.1371616 1.5182303
v -0.18095413 6.0222666E-15 -0.46441415
v -0.15105802 0.20287116 -0.24381746
v -0.16298483 0.05756409 -0.27533057
v -0.15105803 0.20287117 -0.6846592
v -0.16299728 0.057566203 -0.65312934
v -0.7453642 0.25468692 1.1466576
v -0.79177797 0.4165626 0.9674797
v -0.001804916 0.4593592 0.35693133
v 0.006161959 0.2739683 0.5996733
v 0.8596748 0.2530876 1.0224085
v 0.8777941 0.41568846 0.8537745
v 0.48394936 0.19937052 0.7940017
v 0.51317847 0.055089787 0.8258731
v 0.6713878 0.055235006 0.538551
v 0.6284492 0.19945791 0.5310132
v -0.15105803 0.20287117 -0.6846592
v -0.16299728 0.057566203 -0.65312934
v 0.16299728 0.057566203 -0.65312934
v 0.15105803 0.20287117 -0.6846592
v 1.1261826E-15 0.19019534 0.5747042
v -0.21329786 0.19019534 0.36140636
v -0.21329786 1.2318752 0.36140636
v 7.294166E-15 1.2318752 0.5747042
v 0.21329786 0.19019534 0.36140636
v 1.1261826E-15 0.19019534 0.5747042
v 7.294166E-15 1.2318752 0.5747042
v 0.21329786 1.2318752 0.36140636
v 0.8378595 0.00016443593 0.61266595
v 0.9782073 0.055532146 0.71117485
v 1.0067881 0.19999355 0.74242854
v 0.6284492 0.19945791 0.5310132
v 0.6713878 0.055235006 0.538551
v -0.8957712 0.056981266 0.8413057
v -0.9148903 0.20210408 0.87131697
v -0.7310524 0.20217872 1.1104623
v -0.69678473 0.0570869 1.0999631
v -0.91324216 1.5025347 1.4170299
v 0.91324216 1.5025347 1.4170299
v 0.90642715 1.1371616 1.5182303
v -0.90642715 1.1371616 1.5182303
v 1.1261826E-15 0.19019534 0.14810836
v 0.21329786 0.19019534 0.36140636
v 0.21329786 1.2318752 0.36140636
v 7.294166E-15 1.2318752 0.14810836
v 0.19030935 1.5059857 -0.49616146
v -0.19030933 1.5059857 -0.49616146
v -0.16731554 2.0273213 -0.5641529
v 0.16731554 2.0273213 -0.5641529
v 0.83075196 0.055038005 0.9988938
v 0.873231 0.19937657 1.0059042
v 1.0067881 0.19999355 0.74242854
v 0.9782073 0.055532146 0.71117485
v -0.5652224 0.20209767 0.6023476
v -0.5987944 0.056868963 0.61321026
v -0.4001496 0.05724742 0.8721358
v -0.3813032 0.20224597 0.8414559
v -0.75821406 -0.000102204365 0.712935
v -0.9148903 0.20210408 0.87131697
v -0.8957712 0.056981266 0.8413057
v -0.5652224 0.20209767 0.6023476
v -0.5987944 0.056868963 0.61321026
v 0.18095413 4.9772694E-15 -0.46441415
v 0.16298483 0.05756409 -0.27533057
v 0.15105802 0.20287116 -0.24381746
v 0.15105803 0.20287117 -0.6846592
v 0.16299728 0.057566203 -0.65312934
v -0.53764546 0.00010217856 0.9998776
v -0.69678473 0.0570869 1.0999631
v -0.7310524 0.20217872 1.1104623
v -0.3813032 0.20224597 0.8414559
v -0.4001496 0.05724742 0.8721358
v -0.16298483 0.05756409 -0.27533057
v -0.15105802 0.20287116 -0.24381746
v 0.15105802 0.20287116 -0.24381746
v 0.16298483 0.05756409 -0.27533057
vt 0.8473486 0.15798727
vt 0.8473486 0.15798727
vt 0.8473486 0.15798727
vt 0.8473486 0.15798727
vt 0.8473486 0.15798727
vt 0.8473486 0.15798727
vt 0.8473486 0.15798727
vt 0.8473486 0.15798727
vt 0.8473486 0.15798727
vt 0.8473486 0.15798727
vt 0.8473486 0.15798727
vt 0.8473486 0.15798727
vt 0.8473486 0.15798727
vt 0.8473486 0.15798727
vt 0.8473486 0.15798727
vt 0.8473486 0.15798727
vt 0.8473486 0.15798727
vt 0.8473486 0.15798727
vt 0.8473486 0.15798727
vt 0.8473486 0.15798727
vt 0.8473486 0.15798727
vt 0.7223486 0.15798727
vt 0.7223486 0.15798727
vt 0.7223486 0.15798727
vt 0.7223486 0.15798727
vt 0.7223486 0.15798727
vt 0.7223486 0.15798727
vt 0.7223486 0.15798727
vt 0.8473486 0.15798727
vt 0.8473486 0.15798727
vt 0.8473486 0.15798727
vt 0.8473486 0.15798727
vt 0.8473486 0.15798727
vt 0.8473486 0.15798727
vt 0.7223486 0.15798727
vt 0.7223486 0.15798727
vt 0.7223486 0.15798727
vt 0.7223486 0.15798727
vt 0.7223486 0.15798727
vt 0.7223486 0.15798727
vt 0.7223486 0.15798727
vt 0.7223486 0.15798727
vt 0.7223486 0.15798727
vt 0.7223486 0.15798727
vt 0.7223486 0.15798727
vt 0.7223486 0.15798727
vt 0.7223486 0.15798727
vt 0.7223486 0.15798727
vt 0.7223486 0.15798727
vt 0.7223486 0.15798727
vt 0.7223486 0.15798727
vt 0.7223486 0.15798727
vt 0.7223486 0.15798727
vt 0.7223486 0.15798727
vt 0.7223486 0.15798727
vt 0.7223486 0.15798727
vt 0.7223486 0.15798727
vt 0.7223486 0.15798727
vt 0.7223486 0.15798727
vt 0.7223486 0.15798727
vt 0.7223486 0.15798727
vt 0.7223486 0.15798727
vt 0.9098486 0.09548727
vt 0.9098486 0.09548727
vt 0.9098486 0.09548727
vt 0.9098486 0.09548727
vt 0.9098486 0.09548727
vt 0.8473486 0.15798727
vt 0.8473486 0.15798727
vt 0.8473486 0.15798727
vt 0.8473486 0.15798727
vt 0.8473486 0.15798727
vt 0.8473486 0.15798727
vt 0.7223486 0.15798727
vt 0.7223486 0.15798727
vt 0.7223486 0.15798727
vt 0.7223486 0.15798727
vt 0.7223486 0.15798727
vt 0.7223486 0.15798727
vt 0.7223486 0.15798727
vt 0.7223486 0.15798727
vt 0.7223486 0.15798727
vt 0.7223486 0.15798727
vt 0.7223486 0.15798727
vt 0.7223486 0.15798727
vt 0.7223486 0.15798727
vt 0.7223486 0.15798727
vt 0.7223486 0.15798727
vt 0.7223486 0.15798727
vt 0.7223486 0.15798727
vt 0.7223486 0.15798727
vt 0.9098486 0.09548727
vt 0.9098486 0.09548727
vt 0.9098486 0.09548727
vt 0.9098486 0.09548727
vt 0.9098486 0.09548727
vt 0.8473486 0.15798727
vt 0.8473486 0.15798727
vt 0.8473486 0.15798727
vt 0.8473486 0.15798727
vt 0.8473486 0.15798727
vt 0.8473486 0.15798727
vt 0.9098486 0.09548727
vt 0.9098486 0.09548727
vt 0.9098486 0.09548727
vt 0.9098486 0.09548727
vt 0.9098486 0.09548727
vt 0.9098486 0.09548727
vt 0.9098486 0.09548727
vt 0.9098486 0.09548727
vt 0.8473486 0.15798727
vt 0.8473486 0.15798727
vt 0.8473486 0.15798727
vt 0.8473486 0.15798727
vt 0.8473486 0.15798727
vt 0.8473486 0.15798727
vt 0.8473486 0.15798727
vt 0.8473486 0.15798727
vt 0.9098486 0.09548727
vt 0.9098486 0.09548727
vt 0.9098486 0.09548727
vt 0.9098486 0.09548727
vt 0.9098486 0.09548727
vt 0.9098486 0.09548727
vt 0.9098486 0.09548727
vt 0.9098486 0.09548727
vt 0.9098486 0.09548727
vt 0.7223486 0.15798727
vt 0.7223486 0.15798727
vt 0.7223486 0.15798727
vt 0.7223486 0.15798727
vt 0.8473486 0.15798727
vt 0.8473486 0.15798727
vt 0.8473486 0.15798727
vt 0.8473486 0.15798727
vt 0.8473486 0.15798727
vt 0.8473486 0.15798727
vt 0.8473486 0.15798727
vt 0.8473486 0.15798727
vt 0.9098486 0.09548727
vt 0.9098486 0.09548727
vt 0.9098486 0.09548727
vt 0.9098486 0.09548727
vt 0.9098486 0.09548727
vt 0.9098486 0.09548727
vt 0.9098486 0.09548727
vt 0.9098486 0.09548727
vt 0.9098486 0.09548727
vt 0.9098486 0.09548727
vt 0.9098486 0.09548727
vt 0.9098486 0.09548727
vt 0.9098486 0.09548727
vt 0.9098486 0.09548727
vt 0.9098486 0.09548727
vt 0.9098486 0.09548727
vt 0.9098486 0.09548727
vt 0.9098486 0.09548727
vt 0.9098486 0.09548727
vt 0.9098486 0.09548727
vt 0.9098486 0.09548727
vt 0.9098486 0.09548727
vt 0.9098486 0.09548727
vt 0.9098486 0.09548727
vt 0.9098486 0.09548727
vt 0.9098486 0.09548727
vt 0.9098486 0.09548727
vn -0.00084942183 0.40859762 -0.9127142
vn -0.00084942183 0.40859762 -0.9127142
vn -0.00084942183 0.40859762 -0.9127142
vn -0.72269475 0.40927684 0.5569602
vn -0.72269475 0.40927684 0.5569602
vn -0.72269475 0.40927684 0.5569602
vn 0.8311459 0.3529783 0.42965448
vn 0.8311459 0.3529783 0.42965448
vn 0.8311459 0.3529783 0.42965448
vn -0.707107 0 -0.70710653
vn -0.707107 0 -0.70710653
vn -0.707107 0 -0.70710653
vn -0.707107 0 -0.70710653
vn 0.54092574 0.036523692 -0.8402769
vn 0.6206226 0.015619321 -0.78395385
vn 0.8653613 -0.07665157 -0.49525198
vn 0.89632136 -0.01824618 -0.44302943
vn -0.5409257 0.036523744 -0.8402769
vn -0.8653612 -0.07665159 -0.495252
vn -0.6206227 0.015619338 -0.78395385
vn -0.89632136 -0.018246228 -0.4430295
vn 0.16262396 0.22945128 0.9596383
vn 0.05165166 0.18231437 0.9818827
vn 0.16262396 0.22945128 0.9596383
vn -0 0.2287321 0.9734894
vn -0.05165165 0.18231438 0.9818827
vn -0.16262393 0.22945128 0.9596383
vn -0.16262393 0.22945128 0.9596383
vn -0.4397937 0.7354581 -0.5154445
vn -0.58085644 0.76108825 -0.28870472
vn -0.4397937 0.7354581 -0.5154445
vn -0.584597 0.76100695 -0.2812734
vn -0.6828476 0.72986037 -0.031985138
vn -0.6828476 0.72986037 -0.031985138
vn 0.15818496 0.9612476 -0.22578883
vn 0.15818496 0.9612476 -0.22578883
vn -0 0.9735044 -0.22866778
vn -0 0.9735044 -0.2286678
vn -0.15818499 0.9612476 -0.2257887
vn -0.15818499 0.9612476 -0.2257887
vn -0.13330919 -0.14504988 -0.9804026
vn -0.13330919 -0.14504988 -0.9804026
vn -0 -0.1463562 -0.989232
vn -0 -0.1463562 -0.989232
vn 0.1333092 -0.14504988 -0.9804026
vn 0.1333092 -0.14504988 -0.9804026
vn -0.99283373 -0.103554845 0.05964637
vn -0.99283373 -0.103554845 0.05964637
vn -0.99283373 -0.103554845 0.05964637
vn -0.99283373 -0.103554845 0.05964637
vn -0 0.9999746 -0.007133881
vn -0 0.9999585 -0.0091103185
vn -0 0.9999746 -0.007135385
vn -0 0.9999585 -0.0091103725
vn -0 0.9999995 -0.0009780156
vn -0 0.9999995 -0.0009780156
vn -0 0.9999926 0.003842288
vn -0 0.9999926 0.003842288
vn 0.99283373 -0.103554785 0.059646428
vn 0.99283373 -0.103554785 0.059646428
vn 0.99283373 -0.103554785 0.059646428
vn 0.99283373 -0.103554785 0.059646428
vn -0.45966783 0.14037879 0.87692595
vn -0.45966783 0.14037879 0.87692595
vn -0.4741084 0.12931517 0.87091833
vn -0.4954502 0.11262508 0.86130404
vn -0.5412258 0.07535632 0.8374939
vn 0.3627839 0.7332249 -0.5751252
vn 0.3627839 0.7332249 -0.5751252
vn 0.54684466 0.77609044 -0.31407714
vn 0.5407012 0.7759298 -0.32492337
vn 0.66973007 0.74181855 -0.03415808
vn 0.66973007 0.74181855 -0.03415808
vn 0.8985968 0.10147597 0.42687976
vn 0.9507108 0.25467023 0.17689604
vn 0.9510916 0.28176144 0.1266303
vn 0.89712244 0.31731474 -0.3073803
vn 0.91504896 0.33119485 -0.23020744
vn 0.6223234 0.25637802 -0.7395836
vn 0.5621604 0.24834526 -0.78886014
vn 0.54092574 0.036523692 -0.8402769
vn 0.6206226 0.015619321 -0.78395385
vn -0.5409257 0.036523744 -0.8402769
vn -0.6206227 0.015619338 -0.78395385
vn -0.56216043 0.24834526 -0.7888601
vn -0.6223234 0.25637802 -0.73958355
vn -0.89712244 0.31731474 -0.3073803
vn -0.91504896 0.33119485 -0.23020744
vn -0.9507108 0.2546702 0.17689605
vn -0.9510916 0.28176144 0.1266303
vn -0.8985968 0.10147597 0.42687976
vn -0.9931103 0.11718226 0.000497214
vn -0.9916225 0.12810092 0.016580967
vn -0.9916225 0.12810092 0.016580967
vn -0.9946696 0.10018013 -0.024418605
vn -0.99505013 0.065553635 -0.074685365
vn 0.38753775 0.7356551 0.5555412
vn 0.38753775 0.7356551 0.5555412
vn 0.0381262 0.78162485 0.62258255
vn 0.054881968 0.78172046 0.6212094
vn -0.2975928 0.73249173 0.61228615
vn -0.2975928 0.73249173 0.61228615
vn -0.84258544 -0.27409494 -0.4635966
vn -0.84258544 -0.27409494 -0.4635966
vn -0.84258544 -0.27409494 -0.4635966
vn -0.84258544 -0.27409494 -0.4635966
vn -0 -0.21205594 -0.97725755
vn -0 -0.21205594 -0.97725755
vn -0 -0.21205594 -0.97725755
vn -0 -0.21205594 -0.97725755
vn -0.7071067 0 0.7071068
vn -0.7071067 0 0.7071068
vn -0.7071067 0 0.7071068
vn -0.7071067 0 0.7071068
vn 0.7071067 0 0.7071068
vn 0.7071067 0 0.7071068
vn 0.7071067 0 0.7071068
vn 0.7071067 0 0.7071068
vn 0.4858077 0.12554754 -0.8650022
vn 0.55454004 0.06968845 -0.8292339
vn 0.50610757 0.10953763 -0.8554862
vn 0.47055396 0.13732925 -0.8716189
vn 0.47055396 0.13732925 -0.8716189
vn -0.77233714 -0.22499557 0.59403056
vn -0.77233714 -0.22499557 0.59403056
vn -0.77233714 -0.22499557 0.59403056
vn -0.77233714 -0.22499557 0.59403056
vn -0 0.26692864 0.9637163
vn -0 0.26692864 0.9637163
vn -0 0.26692864 0.9637163
vn -0 0.26692864 0.9637163
vn 0.707107 0 -0.70710653
vn 0.707107 0 -0.70710653
vn 0.707107 0 -0.70710653
vn 0.707107 0 -0.70710653
vn -0 0.12932263 0.9916026
vn -0 0.12932263 0.9916026
vn 0.05165166 0.18231437 0.9818827
vn -0.05165165 0.18231438 0.9818827
vn 0.85826 -0.26907936 0.43701968
vn 0.85826 -0.26907936 0.43701968
vn 0.85826 -0.26907936 0.43701968
vn 0.85826 -0.26907936 0.43701968
vn 0.77290237 -0.22454308 -0.5934663
vn 0.77290237 -0.22454308 -0.5934663
vn 0.77290237 -0.22454308 -0.5934663
vn 0.77290237 -0.22454308 -0.5934663
vn -0.6054843 0.1177655 -0.787096
vn -0.6175709 0.12917331 -0.77583534
vn -0.6175709 0.12917331 -0.77583534
vn -0.58639514 0.100105956 -0.80381554
vn -0.54549557 0.06359268 -0.8356977
vn 0.9931103 0.117182225 0.0004972169
vn 0.9916225 0.12810087 0.016580967
vn 0.9916225 0.12810087 0.016580967
vn 0.9946696 0.100180104 -0.0244186
vn 0.99505013 0.06555362 -0.07468535
vn 0.60456526 0.12060752 0.78737205
vn 0.59162223 0.13089944 0.79551774
vn 0.59162223 0.13089944 0.79551774
vn 0.6241112 0.10466491 0.7742935
vn 0.6627695 0.0715725 0.7453952
vn -0 -0.21194552 0.9772815
vn -0 -0.21194552 0.9772815
vn -0 -0.21194552 0.9772815
vn -0 -0.21194552 0.9772815
g officeChair_0
f 3/3/3 2/2/2 1/1/1
f 6/6/6 5/5/5 4/4/4
f 9/9/9 8/8/8 7/7/7
f 12/12/12 11/11/11 10/10/10
f 13/13/13 12/12/12 10/10/10
f 16/16/16 15/15/15 14/14/14
f 17/17/17 15/15/15 16/16/16
f 20/20/20 19/19/19 18/18/18
f 21/21/21 19/19/19 20/20/20
f 24/24/24 23/23/23 22/22/22
f 23/23/23 25/25/25 22/22/22
f 25/25/25 23/23/23 26/26/26
f 25/25/25 26/26/26 27/27/27
f 26/26/26 28/28/28 27/27/27
f 31/31/31 30/30/30 29/29/29
f 30/30/30 32/32/32 29/29/29
f 33/33/33 32/32/32 30/30/30
f 34/34/34 33/33/33 30/30/30
f 37/37/37 36/36/36 35/35/35
f 38/38/38 37/37/37 35/35/35
f 38/38/38 39/39/39 37/37/37
f 39/39/39 40/40/40 37/37/37
f 43/43/43 42/42/42 41/41/41
f 44/44/44 43/43/43 41/41/41
f 44/44/44 45/45/45 43/43/43
f 45/45/45 46/46/46 43/43/43
f 49/49/49 48/48/48 47/47/47
f 50/50/50 49/49/49 47/47/47
f 53/53/53 52/52/52 51/51/51
f 54/54/54 52/52/52 53/53/53
f 55/55/55 52/52/52 54/54/54
f 56/56/56 55/55/55 54/54/54
f 57/57/57 55/55/55 56/56/56
f 58/58/58 57/57/57 56/56/56
f 61/61/61 60/60/60 59/59/59
f 62/62/62 61/61/61 59/59/59
f 65/65/65 64/64/64 63/63/63
f 66/66/66 65/65/65 63/63/63
f 66/66/66 67/67/67 65/65/65
f 70/70/70 69/69/69 68/68/68
f 71/71/71 70/70/70 68/68/68
f 70/70/70 71/71/71 72/72/72
f 73/73/73 70/70/70 72/72/72
f 76/76/76 75/75/75 74/74/74
f 77/77/77 75/75/75 76/76/76
f 78/78/78 77/77/77 76/76/76
f 77/77/77 78/78/78 79/79/79
f 80/80/80 77/77/77 79/79/79
f 79/79/79 81/81/81 80/80/80
f 81/81/81 82/82/82 80/80/80
f 85/85/85 84/84/84 83/83/83
f 86/86/86 85/85/85 83/83/83
f 87/87/87 85/85/85 86/86/86
f 88/88/88 87/87/87 86/86/86
f 87/87/87 88/88/88 89/89/89
f 88/88/88 90/90/90 89/89/89
f 89/89/89 90/90/90 91/91/91
f 94/94/94 93/93/93 92/92/92
f 93/93/93 95/95/95 92/92/92
f 92/92/92 95/95/95 96/96/96
f 99/99/99 98/98/98 97/97/97
f 100/100/100 99/99/99 97/97/97
f 100/100/100 101/101/101 99/99/99
f 101/101/101 102/102/102 99/99/99
f 105/105/105 104/104/104 103/103/103
f 106/106/106 105/105/105 103/103/103
f 109/109/109 108/108/108 107/107/107
f 110/110/110 109/109/109 107/107/107
f 113/113/113 112/112/112 111/111/111
f 114/114/114 113/113/113 111/111/111
f 117/117/117 116/116/116 115/115/115
f 118/118/118 117/117/117 115/115/115
f 121/121/121 120/120/120 119/119/119
f 121/121/121 119/119/119 122/122/122
f 119/119/119 123/123/123 122/122/122
f 126/126/126 125/125/125 124/124/124
f 127/127/127 126/126/126 124/124/124
f 130/130/130 129/129/129 128/128/128
f 131/131/131 130/130/130 128/128/128
f 134/134/134 133/133/133 132/132/132
f 135/135/135 134/134/134 132/132/132
f 138/138/138 137/137/137 136/136/136
f 139/139/139 138/138/138 136/136/136
f 142/142/142 141/141/141 140/140/140
f 143/143/143 142/142/142 140/140/140
f 146/146/146 145/145/145 144/144/144
f 147/147/147 146/146/146 144/144/144
f 150/150/150 149/149/149 148/148/148
f 149/149/149 151/151/151 148/148/148
f 148/148/148 151/151/151 152/152/152
f 155/155/155 154/154/154 153/153/153
f 156/156/156 155/155/155 153/153/153
f 153/153/153 157/157/157 156/156/156
f 160/160/160 159/159/159 158/158/158
f 161/161/161 160/160/160 158/158/158
f 158/158/158 162/162/162 161/161/161
f 165/165/165 164/164/164 163/163/163
f 166/166/166 165/165/165 163/163/163
