g oven_Tabletop
v 2.0945182 0.15086222 -1.3011506
v 2.0945182 0.15086222 1.298501
v 2.1044977 2.8702672 1.298501
v 2.1044977 2.8702672 -1.3011506
v -1.8922794 3.0000002 1.4980903
v -2.106838 2.8702672 1.298501
v -2.106838 2.8702672 -1.3011506
v -1.8922794 3.0000002 -1.5007398
v 1.8899391 3.0000002 -1.5007398
v 1.8899391 3.0000002 1.4980903
v 2.1044977 2.8702672 -1.3011506
v 2.1044977 2.8702672 1.298501
v -2.0968583 0.15086222 1.298501
v -2.0968583 0.15086222 -1.3011506
v -2.106838 2.8702672 -1.3011506
v -2.106838 2.8702672 1.298501
v -1.8473716 0.38038993 -1.5007398
v 1.8450315 0.38038993 -1.5007398
v 1.835052 2.945113 -1.5007398
v -1.8373921 2.945113 -1.5007398
v -1.0190759 0.7396507 -1.5107193
v 1.5805756 0.7396507 -1.5107193
v 1.5805756 2.3912528 -1.5107193
v -1.0190759 2.3912528 -1.5107193
v -1.9022586 0.0011701584 1.4980903
v -2.0968583 0.15086222 1.298501
v -2.106838 2.8702672 1.298501
v -1.8922794 3.0000002 1.4980903
v 1.8999186 0.0011701584 1.4980903
v 1.8899391 3.0000002 1.4980903
v 2.0945182 0.15086222 1.298501
v 2.1044977 2.8702672 1.298501
v -1.8922794 3.0000002 -1.5007398
v -2.106838 2.8702672 -1.3011506
v -2.0968583 0.15086222 -1.3011506
v -1.9022586 0.0011701584 -1.5007398
v -1.8373921 2.945113 -1.5007398
v -1.8473716 0.38038993 -1.5007398
v 1.835052 2.945113 -1.5007398
v 1.8999186 0.0011701584 -1.5007398
v 1.8899391 3.0000002 -1.5007398
v 1.8450315 0.38038993 -1.5007398
v 2.1044977 2.8702672 -1.3011506
v 2.0945182 0.15086222 -1.3011506
v 1.8999186 0.0011701584 1.4980903
v 2.0945182 0.15086222 1.298501
v 2.0945182 0.15086222 -1.3011506
v 1.8999186 0.0011701584 -1.5007398
v -1.9022586 0.0011701584 -1.5007398
v -1.9022586 0.0011701584 1.4980903
v -2.0968583 0.15086222 -1.3011506
v -2.0968583 0.15086222 1.298501
v 1.7302676 2.421191 -1.4708015
v 1.7302676 2.9201643 -1.4708015
v 1.7302676 2.9201643 -1.68536
v 1.7302676 2.6008217 -1.68536
v 1.7302676 2.6008217 -1.9548056
v 1.7302676 2.9201643 -1.9548056
v 1.7302676 2.6606982 -2.024662
v 1.7302676 2.860288 -2.024662
v 1.7302676 2.9201643 -1.4708015
v 1.4957502 2.9201643 -1.4708015
v 1.4957502 2.9201643 -1.68536
v 1.7302676 2.9201643 -1.68536
v 1.7302676 2.9201643 -1.9548056
v 1.4957502 2.9201643 -1.9548056
v 1.4957502 2.9201643 -1.4708015
v 1.4957502 2.421191 -1.4708015
v 1.4957502 2.6008217 -1.68536
v 1.4957502 2.9201643 -1.68536
v 1.4957502 2.9201643 -1.9548056
v 1.4957502 2.6008217 -1.9548056
v 1.4957502 2.860288 -2.024662
v 1.4957502 2.6606982 -2.024662
v 1.4957502 2.421191 -1.4708015
v 1.7302676 2.421191 -1.4708015
v 1.7302676 2.6008217 -1.68536
v 1.4957502 2.6008217 -1.68536
v 1.4957502 2.9201643 -1.9548056
v 1.4957502 2.860288 -2.024662
v 1.7302676 2.860288 -2.024662
v 1.7302676 2.9201643 -1.9548056
v 1.7302676 2.6008217 -1.68536
v 1.7302676 2.6008217 -1.9548056
v 1.4957502 2.6008217 -1.9548056
v 1.4957502 2.6008217 -1.68536
v 1.4957502 2.860288 -2.024662
v 1.4957502 2.6606982 -2.024662
v 1.7302676 2.6606982 -2.024662
v 1.7302676 2.860288 -2.024662
v 1.7302676 2.6008217 -1.9548056
v 1.7302676 2.6606982 -2.024662
v 1.4957502 2.6606982 -2.024662
v 1.4957502 2.6008217 -1.9548056
v -0.9791579 2.8503082 -1.7851547
v 1.5456474 2.8503082 -1.7851547
v 1.5456474 2.7555034 -1.7502265
v -0.9791579 2.7555034 -1.7502265
v -0.9791579 2.7555034 -1.7502265
v 1.5456474 2.7555034 -1.7502265
v 1.5456474 2.6606982 -1.7851547
v -0.9791579 2.6606982 -1.7851547
v -0.9791579 2.6606982 -1.7851547
v 1.5456474 2.6606982 -1.7851547
v 1.5456474 2.6207802 -1.8799596
v -0.9791579 2.6207802 -1.8799596
v -0.9791579 2.6207802 -1.8799596
v 1.5456474 2.6207802 -1.8799596
v 1.5456474 2.6606982 -1.9747646
v -0.9791579 2.6606982 -1.9747646
v -0.9791579 2.6606982 -1.9747646
v 1.5456474 2.6606982 -1.9747646
v 1.5456474 2.7555034 -2.0146825
v -0.9791579 2.7555034 -2.0146825
v -0.9791579 2.7555034 -2.0146825
v 1.5456474 2.7555034 -2.0146825
v 1.5456474 2.8503082 -1.9747646
v -0.9791579 2.8503082 -1.9747646
v -0.9791579 2.8503082 -1.9747646
v 1.5456474 2.8503082 -1.9747646
v 1.5456474 2.8902261 -1.8799596
v -0.9791579 2.8902261 -1.8799596
v -1.1637781 2.421191 -1.4708015
v -1.1637781 2.9201643 -1.68536
v -1.1637781 2.9201643 -1.4708015
v -1.1637781 2.6008217 -1.68536
v -1.1637781 2.6008217 -1.9548056
v -1.1637781 2.9201643 -1.9548056
v -1.1637781 2.6606982 -2.024662
v -1.1637781 2.860288 -2.024662
v -1.1637781 2.9201643 -1.4708015
v -0.92926073 2.9201643 -1.68536
v -0.92926073 2.9201643 -1.4708015
v -1.1637781 2.9201643 -1.68536
v -1.1637781 2.9201643 -1.9548056
v -0.92926073 2.9201643 -1.9548056
v -0.92926073 2.9201643 -1.4708015
v -0.92926073 2.6008217 -1.68536
v -0.92926073 2.421191 -1.4708015
v -0.92926073 2.9201643 -1.68536
v -0.92926073 2.9201643 -1.9548056
v -0.92926073 2.6008217 -1.9548056
v -0.92926073 2.860288 -2.024662
v -0.92926073 2.6606982 -2.024662
v -0.92926073 2.421191 -1.4708015
v -0.92926073 2.6008217 -1.68536
v -1.1637781 2.6008217 -1.68536
v -1.1637781 2.421191 -1.4708015
v -0.92926073 2.9201643 -1.9548056
v -1.1637781 2.9201643 -1.9548056
v -1.1637781 2.860288 -2.024662
v -0.92926073 2.860288 -2.024662
v -1.1637781 2.6008217 -1.68536
v -0.92926073 2.6008217 -1.68536
v -0.92926073 2.6008217 -1.9548056
v -1.1637781 2.6008217 -1.9548056
v -0.92926073 2.860288 -2.024662
v -1.1637781 2.860288 -2.024662
v -1.1637781 2.6606982 -2.024662
v -0.92926073 2.6606982 -2.024662
v -1.1637781 2.6008217 -1.9548056
v -0.92926073 2.6008217 -1.9548056
v -0.92926073 2.6606982 -2.024662
v -1.1637781 2.6606982 -2.024662
v -0.9791579 2.8902261 -1.8799596
v 1.5456474 2.8902261 -1.8799596
v 1.5456474 2.8503082 -1.7851547
v -0.9791579 2.8503082 -1.7851547
v -1.3084805 2.2465503 -1.6254833
v -1.2535934 2.3862631 -1.6254833
v -1.3084805 2.530965 -1.6254833
v -1.4531827 2.1866734 -1.6254833
v -1.4531827 2.590842 -1.6254833
v -1.5978849 2.2465503 -1.6254833
v -1.5978849 2.530965 -1.6254833
v -1.652772 2.3862631 -1.6254833
v -1.3084805 1.6427927 -1.6254833
v -1.2535934 1.7874949 -1.6254833
v -1.3084805 1.9272072 -1.6254833
v -1.4531827 1.5829158 -1.6254833
v -1.4531827 1.9870842 -1.6254833
v -1.5978849 1.6427927 -1.6254833
v -1.5978849 1.9272072 -1.6254833
v -1.652772 1.7874949 -1.6254833
v -1.3084805 1.0390348 -1.6254833
v -1.2535934 1.183737 -1.6254833
v -1.3084805 1.3234496 -1.6254833
v -1.4531827 0.9841478 -1.6254833
v -1.4531827 1.3833265 -1.6254833
v -1.5978849 1.0390348 -1.6254833
v -1.5978849 1.3234496 -1.6254833
v -1.652772 1.183737 -1.6254833
v -1.203696 1.183737 -1.4558322
v -1.2735522 1.3633676 -1.4558322
v -1.3084805 1.3234496 -1.6254833
v -1.2535934 1.183737 -1.6254833
v -1.4531827 1.3833265 -1.6254833
v -1.2735522 1.0041065 -1.4558322
v -1.4531827 1.4332237 -1.4558322
v -1.3084805 1.0390348 -1.6254833
v -1.5978849 1.3234496 -1.6254833
v -1.4531827 0.93425035 -1.4558322
v -1.6328132 1.3633676 -1.4558322
v -1.4531827 0.9841478 -1.6254833
v -1.652772 1.183737 -1.6254833
v -1.6328132 1.0041065 -1.4558322
v -1.7026694 1.183737 -1.4558322
v -1.5978849 1.0390348 -1.6254833
v -1.203696 1.7874949 -1.4558322
v -1.2735522 1.9621356 -1.4558322
v -1.3084805 1.9272072 -1.6254833
v -1.2535934 1.7874949 -1.6254833
v -1.4531827 1.9870842 -1.6254833
v -1.2735522 1.6078644 -1.4558322
v -1.4531827 2.0369813 -1.4558322
v -1.3084805 1.6427927 -1.6254833
v -1.5978849 1.9272072 -1.6254833
v -1.4531827 1.5330184 -1.4558322
v -1.6328132 1.9621356 -1.4558322
v -1.4531827 1.5829158 -1.6254833
v -1.652772 1.7874949 -1.6254833
v -1.6328132 1.6078644 -1.4558322
v -1.7026694 1.7874949 -1.4558322
v -1.5978849 1.6427927 -1.6254833
v -1.203696 2.3862631 -1.4558322
v -1.2735522 2.5658934 -1.4558322
v -1.3084805 2.530965 -1.6254833
v -1.2535934 2.3862631 -1.6254833
v -1.4531827 2.590842 -1.6254833
v -1.2735522 2.2116225 -1.4558322
v -1.4531827 2.6407392 -1.4558322
v -1.3084805 2.2465503 -1.6254833
v -1.5978849 2.530965 -1.6254833
v -1.4531827 2.1367762 -1.4558322
v -1.6328132 2.5658934 -1.4558322
v -1.4531827 2.1866734 -1.6254833
v -1.652772 2.3862631 -1.6254833
v -1.6328132 2.2116225 -1.4558322
v -1.7026694 2.3862631 -1.4558322
v -1.5978849 2.2465503 -1.6254833
vt 0.90538174 0.034693394
vt 0.90538174 0.034693394
vt 0.90538174 0.034693394
vt 0.90538174 0.034693394
vt 0.90538174 0.034693394
vt 0.90538174 0.034693394
vt 0.90538174 0.034693394
vt 0.90538174 0.034693394
vt 0.90538174 0.034693394
vt 0.90538174 0.034693394
vt 0.90538174 0.034693394
vt 0.90538174 0.034693394
vt 0.90538174 0.034693394
vt 0.90538174 0.034693394
vt 0.90538174 0.034693394
vt 0.90538174 0.034693394
vt 0.65759695 0.027810482
vt 0.65759695 0.027810482
vt 0.65759695 0.027810482
vt 0.65759695 0.027810482
vt 0.90538174 0.027810482
vt 0.90538174 0.027810482
vt 0.90538174 0.027810482
vt 0.90538174 0.027810482
vt 0.90538174 0.034693394
vt 0.90538174 0.034693394
vt 0.90538174 0.034693394
vt 0.90538174 0.034693394
vt 0.90538174 0.034693394
vt 0.90538174 0.034693394
vt 0.90538174 0.034693394
vt 0.90538174 0.034693394
vt 0.90538174 0.034693394
vt 0.90538174 0.034693394
vt 0.90538174 0.034693394
vt 0.90538174 0.034693394
vt 0.90538174 0.034693394
vt 0.90538174 0.034693394
vt 0.90538174 0.034693394
vt 0.90538174 0.034693394
vt 0.90538174 0.034693394
vt 0.90538174 0.034693394
vt 0.90538174 0.034693394
vt 0.90538174 0.034693394
vt 0.90538174 0.034693394
vt 0.90538174 0.034693394
vt 0.90538174 0.034693394
vt 0.90538174 0.034693394
vt 0.90538174 0.034693394
vt 0.90538174 0.034693394
vt 0.90538174 0.034693394
vt 0.90538174 0.034693394
vt 0.77804786 0.034693394
vt 0.77804786 0.034693394
vt 0.77804786 0.034693394
vt 0.77804786 0.034693394
vt 0.77804786 0.034693394
vt 0.77804786 0.034693394
vt 0.77804786 0.034693394
vt 0.77804786 0.034693394
vt 0.77804786 0.034693394
vt 0.77804786 0.034693394
vt 0.77804786 0.034693394
vt 0.77804786 0.034693394
vt 0.77804786 0.034693394
vt 0.77804786 0.034693394
vt 0.77804786 0.034693394
vt 0.77804786 0.034693394
vt 0.77804786 0.034693394
vt 0.77804786 0.034693394
vt 0.77804786 0.034693394
vt 0.77804786 0.034693394
vt 0.77804786 0.034693394
vt 0.77804786 0.034693394
vt 0.77804786 0.034693394
vt 0.77804786 0.034693394
vt 0.77804786 0.034693394
vt 0.77804786 0.034693394
vt 0.77804786 0.034693394
vt 0.77804786 0.034693394
vt 0.77804786 0.034693394
vt 0.77804786 0.034693394
vt 0.77804786 0.034693394
vt 0.77804786 0.034693394
vt 0.77804786 0.034693394
vt 0.77804786 0.034693394
vt 0.77804786 0.034693394
vt 0.77804786 0.034693394
vt 0.77804786 0.034693394
vt 0.77804786 0.034693394
vt 0.77804786 0.034693394
vt 0.77804786 0.034693394
vt 0.77804786 0.034693394
vt 0.77804786 0.034693394
vt 0.77804786 0.034693394
vt 0.77804786 0.034693394
vt 0.77804786 0.034693394
vt 0.77804786 0.034693394
vt 0.77804786 0.034693394
vt 0.77804786 0.034693394
vt 0.77804786 0.034693394
vt 0.77804786 0.034693394
vt 0.77804786 0.034693394
vt 0.77804786 0.034693394
vt 0.77804786 0.034693394
vt 0.77804786 0.034693394
vt 0.77804786 0.034693394
vt 0.77804786 0.034693394
vt 0.77804786 0.034693394
vt 0.77804786 0.034693394
vt 0.77804786 0.034693394
vt 0.77804786 0.034693394
vt 0.77804786 0.034693394
vt 0.77804786 0.034693394
vt 0.77804786 0.034693394
vt 0.77804786 0.034693394
vt 0.77804786 0.034693394
vt 0.77804786 0.034693394
vt 0.77804786 0.034693394
vt 0.77804786 0.034693394
vt 0.77804786 0.034693394
vt 0.77804786 0.034693394
vt 0.77804786 0.034693394
vt 0.77804786 0.034693394
vt 0.77804786 0.034693394
vt 0.77804786 0.034693394
vt 0.77804786 0.034693394
vt 0.77804786 0.034693394
vt 0.77804786 0.034693394
vt 0.77804786 0.034693394
vt 0.77804786 0.034693394
vt 0.77804786 0.034693394
vt 0.77804786 0.034693394
vt 0.77804786 0.034693394
vt 0.77804786 0.034693394
vt 0.77804786 0.034693394
vt 0.77804786 0.034693394
vt 0.77804786 0.034693394
vt 0.77804786 0.034693394
vt 0.77804786 0.034693394
vt 0.77804786 0.034693394
vt 0.77804786 0.034693394
vt 0.77804786 0.034693394
vt 0.77804786 0.034693394
vt 0.77804786 0.034693394
vt 0.77804786 0.034693394
vt 0.77804786 0.034693394
vt 0.77804786 0.034693394
vt 0.77804786 0.034693394
vt 0.77804786 0.034693394
vt 0.77804786 0.034693394
vt 0.77804786 0.034693394
vt 0.77804786 0.034693394
vt 0.77804786 0.034693394
vt 0.77804786 0.034693394
vt 0.77804786 0.034693394
vt 0.77804786 0.034693394
vt 0.77804786 0.034693394
vt 0.77804786 0.034693394
vt 0.77804786 0.034693394
vt 0.77804786 0.034693394
vt 0.77804786 0.034693394
vt 0.77804786 0.034693394
vt 0.77804786 0.034693394
vt 0.77804786 0.034693394
vt 0.77804786 0.034693394
vt 0.77804786 0.034693394
vt 0.77804786 0.034693394
vt 0.90538174 0.034693394
vt 0.90538174 0.034693394
vt 0.90538174 0.034693394
vt 0.90538174 0.034693394
vt 0.90538174 0.034693394
vt 0.90538174 0.034693394
vt 0.90538174 0.034693394
vt 0.90538174 0.034693394
vt 0.90538174 0.034693394
vt 0.90538174 0.034693394
vt 0.90538174 0.034693394
vt 0.90538174 0.034693394
vt 0.90538174 0.034693394
vt 0.90538174 0.034693394
vt 0.90538174 0.034693394
vt 0.90538174 0.034693394
vt 0.90538174 0.034693394
vt 0.90538174 0.034693394
vt 0.90538174 0.034693394
vt 0.90538174 0.034693394
vt 0.90538174 0.034693394
vt 0.90538174 0.034693394
vt 0.90538174 0.034693394
vt 0.90538174 0.034693394
vt 0.90538174 0.034693394
vt 0.90538174 0.034693394
vt 0.90538174 0.034693394
vt 0.90538174 0.034693394
vt 0.90538174 0.034693394
vt 0.90538174 0.034693394
vt 0.90538174 0.034693394
vt 0.90538174 0.034693394
vt 0.90538174 0.034693394
vt 0.90538174 0.034693394
vt 0.90538174 0.034693394
vt 0.90538174 0.034693394
vt 0.90538174 0.034693394
vt 0.90538174 0.034693394
vt 0.90538174 0.034693394
vt 0.90538174 0.034693394
vt 0.90538174 0.034693394
vt 0.90538174 0.034693394
vt 0.90538174 0.034693394
vt 0.90538174 0.034693394
vt 0.90538174 0.034693394
vt 0.90538174 0.034693394
vt 0.90538174 0.034693394
vt 0.90538174 0.034693394
vt 0.90538174 0.034693394
vt 0.90538174 0.034693394
vt 0.90538174 0.034693394
vt 0.90538174 0.034693394
vt 0.90538174 0.034693394
vt 0.90538174 0.034693394
vt 0.90538174 0.034693394
vt 0.90538174 0.034693394
vt 0.90538174 0.034693394
vt 0.90538174 0.034693394
vt 0.90538174 0.034693394
vt 0.90538174 0.034693394
vt 0.90538174 0.034693394
vt 0.90538174 0.034693394
vt 0.90538174 0.034693394
vt 0.90538174 0.034693394
vt 0.90538174 0.034693394
vt 0.90538174 0.034693394
vt 0.90538174 0.034693394
vt 0.90538174 0.034693394
vt 0.90538174 0.034693394
vt 0.90538174 0.034693394
vt 0.90538174 0.034693394
vt 0.90538174 0.034693394
vn 0.999874 -0.015870988 -0.00034665503
vn 0.999874 -0.015870988 -0.00034665503
vn 0.999874 -0.015870988 -0.00034665503
vn 0.999874 -0.015870988 -0.00034665503
vn -0.20632327 0.968132 -0.1419547
vn -0.5144958 0.857493 -0
vn -0.5144958 0.857493 -0
vn -0.20632327 0.968132 -0.1419547
vn 0.2063232 0.968132 -0.1419547
vn 0.2063232 0.968132 -0.1419547
vn 0.5144958 0.857493 -0
vn 0.5144958 0.857493 -0
vn -0.999874 -0.015870988 -0.00034665503
vn -0.999874 -0.015870988 -0.00034665503
vn -0.999874 -0.015870988 -0.00034665503
vn -0.999874 -0.015870988 -0.00034665503
vn -0.015871048 0.015871048 -0.99974805
vn -0.015871048 0.015871048 -0.99974805
vn -0.015871048 0.015871048 -0.99974805
vn -0.015871048 0.015871048 -0.99974805
vn -0.015871048 0.015871048 -0.99974805
vn -0.015871048 0.015871048 -0.99974805
vn -0.015871048 0.015871048 -0.99974805
vn -0.015871048 0.015871048 -0.99974805
vn -0.30154932 0.015871048 0.9533185
vn -0.7141957 0.015871048 0.6997661
vn -0.7141957 0.015871048 0.6997661
vn -0.3332913 0.015871048 0.9426903
vn 0.30154932 0.015871048 0.9533185
vn 0.33329135 0.015871048 0.94269025
vn 0.7141957 0.015871048 0.6997661
vn 0.7141957 0.015871048 0.6997661
vn -0.3332913 0.015871048 -0.9426903
vn -0.7141957 0.015871048 -0.6997661
vn -0.7141957 0.015871048 -0.6997661
vn -0.30154932 0.015871048 -0.9533185
vn -0.015871048 0.015871048 -0.99974805
vn -0.015871048 0.015871048 -0.99974805
vn -0.015871048 0.015871048 -0.99974805
vn 0.30154932 0.015871048 -0.9533185
vn 0.33329135 0.015871048 -0.94269025
vn -0.015871048 0.015871048 -0.99974805
vn 0.7141957 0.015871048 -0.6997661
vn 0.7141957 0.015871048 -0.6997661
vn 0.23806524 -0.96813196 -0.07775256
vn 0.6074501 -0.79435784 -0
vn 0.6074501 -0.79435784 -0
vn 0.23806524 -0.96813196 -0.07775256
vn -0.23806524 -0.96813196 -0.07775256
vn -0.23806524 -0.96813196 -0.07775256
vn -0.6074502 -0.79435784 -0
vn -0.6074502 -0.79435784 -0
vn 0.999874 0.015871048 -0.00034391563
vn 0.999874 0.015871048 -0.00034391563
vn 0.999874 0.015871048 -0.00034391563
vn 0.999874 0.015871048 -0.00034391563
vn 0.999874 0.015871048 -0.00034391563
vn 0.999874 0.015871048 -0.00034391563
vn 0.999874 0.015871048 -0.00034391563
vn 0.999874 0.015871048 -0.00034391563
vn -0.015871048 0.999874 -0.00034526698
vn -0.015871048 0.999874 -0.00034526698
vn -0.015871048 0.999874 -0.00034526698
vn -0.015871048 0.999874 -0.00034526698
vn -0.015871048 0.999874 -0.00034526698
vn -0.015871048 0.999874 -0.00034526698
vn -0.999874 0.015871048 -0.00034391563
vn -0.999874 0.015871048 -0.00034391563
vn -0.999874 0.015871048 -0.00034391563
vn -0.999874 0.015871048 -0.00034391563
vn -0.999874 0.015871048 -0.00034391563
vn -0.999874 0.015871048 -0.00034391563
vn -0.999874 0.015871048 -0.00034391563
vn -0.999874 0.015871048 -0.00034391563
vn -0.015871048 -0.7776798 -0.6284602
vn -0.015871048 -0.7776798 -0.6284602
vn -0.015871048 -0.7776798 -0.6284602
vn -0.015871048 -0.7776798 -0.6284602
vn -0.015871048 0.7459378 -0.66582644
vn -0.015871048 0.7459378 -0.66582644
vn -0.015871048 0.7459378 -0.66582644
vn -0.015871048 0.7459378 -0.66582644
vn -0.015871048 -0.999874 -0.00034526698
vn -0.015871048 -0.999874 -0.00034526698
vn -0.015871048 -0.999874 -0.00034526698
vn -0.015871048 -0.999874 -0.00034526698
vn -0.015871048 0.015871048 -0.99974805
vn -0.015871048 0.015871048 -0.99974805
vn -0.015871048 0.015871048 -0.99974805
vn -0.015871048 0.015871048 -0.99974805
vn -0.015871048 -0.7459377 -0.66582656
vn -0.015871048 -0.7459377 -0.66582656
vn -0.015871048 -0.7459377 -0.66582656
vn -0.015871048 -0.7459377 -0.66582656
vn -0.015871048 0.39677536 0.9177785
vn -0.015871048 0.39677536 0.9177785
vn -0.015871048 0.39677536 0.9177785
vn -0.015871048 0.39677536 0.9177785
vn -0.015871048 -0.39677536 0.9177785
vn -0.015871048 -0.39677536 0.9177785
vn -0.015871048 -0.39677536 0.9177785
vn -0.015871048 -0.39677536 0.9177785
vn -0.015871048 -0.9363899 0.35060233
vn -0.015871048 -0.9363899 0.35060233
vn -0.015871048 -0.9363899 0.35060233
vn -0.015871048 -0.9363899 0.35060233
vn -0.015871048 -0.9363899 -0.35060233
vn -0.015871048 -0.9363899 -0.35060233
vn -0.015871048 -0.9363899 -0.35060233
vn -0.015871048 -0.9363899 -0.35060233
vn -0.015871048 -0.39677536 -0.9177785
vn -0.015871048 -0.39677536 -0.9177785
vn -0.015871048 -0.39677536 -0.9177785
vn -0.015871048 -0.39677536 -0.9177785
vn -0.015871048 0.39677536 -0.9177785
vn -0.015871048 0.39677536 -0.9177785
vn -0.015871048 0.39677536 -0.9177785
vn -0.015871048 0.39677536 -0.9177785
vn -0.015871048 0.9363899 -0.35060233
vn -0.015871048 0.9363899 -0.35060233
vn -0.015871048 0.9363899 -0.35060233
vn -0.015871048 0.9363899 -0.35060233
vn -0.999874 0.015871048 -0.00034391563
vn -0.999874 0.015871048 -0.00034391563
vn -0.999874 0.015871048 -0.00034391563
vn -0.999874 0.015871048 -0.00034391563
vn -0.999874 0.015871048 -0.00034391563
vn -0.999874 0.015871048 -0.00034391563
vn -0.999874 0.015871048 -0.00034391563
vn -0.999874 0.015871048 -0.00034391563
vn -0.015871048 0.999874 -0.00034526698
vn -0.015871048 0.999874 -0.00034526698
vn -0.015871048 0.999874 -0.00034526698
vn -0.015871048 0.999874 -0.00034526698
vn -0.015871048 0.999874 -0.00034526698
vn -0.015871048 0.999874 -0.00034526698
vn 0.999874 0.015871048 -0.00034391563
vn 0.999874 0.015871048 -0.00034391563
vn 0.999874 0.015871048 -0.00034391563
vn 0.999874 0.015871048 -0.00034391563
vn 0.999874 0.015871048 -0.00034391563
vn 0.999874 0.015871048 -0.00034391563
vn 0.999874 0.015871048 -0.00034391563
vn 0.999874 0.015871048 -0.00034391563
vn -0.015871048 -0.7776798 -0.6284602
vn -0.015871048 -0.7776798 -0.6284602
vn -0.015871048 -0.7776798 -0.6284602
vn -0.015871048 -0.7776798 -0.6284602
vn -0.015871048 0.7459378 -0.66582644
vn -0.015871048 0.7459378 -0.66582644
vn -0.015871048 0.7459378 -0.66582644
vn -0.015871048 0.7459378 -0.66582644
vn -0.015871048 -0.999874 -0.00034526698
vn -0.015871048 -0.999874 -0.00034526698
vn -0.015871048 -0.999874 -0.00034526698
vn -0.015871048 -0.999874 -0.00034526698
vn -0.015871048 0.015871048 -0.99974805
vn -0.015871048 0.015871048 -0.99974805
vn -0.015871048 0.015871048 -0.99974805
vn -0.015871048 0.015871048 -0.99974805
vn -0.015871048 -0.7459377 -0.66582656
vn -0.015871048 -0.7459377 -0.66582656
vn -0.015871048 -0.7459377 -0.66582656
vn -0.015871048 -0.7459377 -0.66582656
vn -0.015871048 0.9363899 0.35060233
vn -0.015871048 0.9363899 0.35060233
vn -0.015871048 0.9363899 0.35060233
vn -0.015871048 0.9363899 0.35060233
vn -0.015871048 0.015871048 -0.99974805
vn -0.015871048 0.015871048 -0.99974805
vn -0.015871048 0.015871048 -0.99974805
vn -0.015871048 0.015871048 -0.99974805
vn -0.015871048 0.015871048 -0.99974805
vn -0.015871048 0.015871048 -0.99974805
vn -0.015871048 0.015871048 -0.99974805
vn -0.015871048 0.015871048 -0.99974805
vn -0.015871048 0.015871048 -0.99974805
vn -0.015871048 0.015871048 -0.99974805
vn -0.015871048 0.015871048 -0.99974805
vn -0.015871048 0.015871048 -0.99974805
vn -0.015871048 0.015871048 -0.99974805
vn -0.015871048 0.015871048 -0.99974805
vn -0.015871048 0.015871048 -0.99974805
vn -0.015871048 0.015871048 -0.99974805
vn -0.015871048 0.015871048 -0.99974805
vn -0.015871048 0.015871048 -0.99974805
vn -0.015871048 0.015871048 -0.99974805
vn -0.015871048 0.015871048 -0.99974805
vn -0.015871048 0.015871048 -0.99974805
vn -0.015871048 0.015871048 -0.99974805
vn -0.015871048 0.015871048 -0.99974805
vn -0.015871048 0.015871048 -0.99974805
vn 0.96813196 0.015871048 -0.24993728
vn 0.68245363 0.68245375 -0.26175165
vn 0.68245363 0.68245375 -0.26175165
vn 0.96813196 0.015871048 -0.24993728
vn -0.015871048 0.968132 -0.24993704
vn 0.68245363 -0.68245363 -0.261752
vn -0.015871048 0.968132 -0.24993704
vn 0.68245363 -0.68245363 -0.261752
vn -0.68245375 0.68245375 -0.26175132
vn -0.015871048 -0.96813196 -0.24993728
vn -0.68245375 0.68245375 -0.26175132
vn -0.015871048 -0.96813196 -0.24993728
vn -0.968132 0.015871048 -0.24993704
vn -0.68245375 -0.68245363 -0.26175165
vn -0.968132 0.015871048 -0.24993704
vn -0.68245375 -0.68245363 -0.26175165
vn 0.96813196 0.015871048 -0.24993728
vn 0.68245363 0.68245375 -0.26175165
vn 0.68245363 0.68245375 -0.26175165
vn 0.96813196 0.015871048 -0.24993728
vn -0.015871048 0.968132 -0.24993704
vn 0.68245363 -0.68245363 -0.261752
vn -0.015871048 0.968132 -0.24993704
vn 0.68245363 -0.68245363 -0.261752
vn -0.68245375 0.68245375 -0.26175132
vn -0.015871048 -0.96813196 -0.24993728
vn -0.68245375 0.68245375 -0.26175132
vn -0.015871048 -0.96813196 -0.24993728
vn -0.968132 0.015871048 -0.24993704
vn -0.68245375 -0.68245363 -0.26175165
vn -0.968132 0.015871048 -0.24993704
vn -0.68245375 -0.68245363 -0.26175165
vn 0.96813196 0.015871048 -0.24993728
vn 0.68245363 0.68245375 -0.26175165
vn 0.68245363 0.68245375 -0.26175165
vn 0.96813196 0.015871048 -0.24993728
vn -0.015871048 0.968132 -0.24993704
vn 0.68245363 -0.68245363 -0.261752
vn -0.015871048 0.968132 -0.24993704
vn 0.68245363 -0.68245363 -0.261752
vn -0.68245375 0.68245375 -0.26175132
vn -0.015871048 -0.96813196 -0.24993728
vn -0.68245375 0.68245375 -0.26175132
vn -0.015871048 -0.96813196 -0.24993728
vn -0.968132 0.015871048 -0.24993704
vn -0.68245375 -0.68245363 -0.26175165
vn -0.968132 0.015871048 -0.24993704
vn -0.68245375 -0.68245363 -0.26175165
g oven_Tabletop_0
f 3/3/3 2/2/2 1/1/1
f 4/4/4 3/3/3 1/1/1
f 7/7/7 6/6/6 5/5/5
f 8/8/8 7/7/7 5/5/5
f 8/8/8 5/5/5 9/9/9
f 5/5/5 10/10/10 9/9/9
f 9/9/9 10/10/10 11/11/11
f 10/10/10 12/12/12 11/11/11
f 15/15/15 14/14/14 13/13/13
f 16/16/16 15/15/15 13/13/13
f 19/19/19 18/18/18 17/17/17
f 20/20/20 19/19/19 17/17/17
f 23/23/23 22/22/22 21/21/21
f 24/24/24 23/23/23 21/21/21
f 27/27/27 26/26/26 25/25/25
f 28/28/28 27/27/27 25/25/25
f 28/28/28 25/25/25 29/29/29
f 30/30/30 28/28/28 29/29/29
f 29/29/29 31/31/31 30/30/30
f 31/31/31 32/32/32 30/30/30
f 35/35/35 34/34/34 33/33/33
f 36/36/36 35/35/35 33/33/33
f 36/36/36 33/33/33 37/37/37
f 38/38/38 36/36/36 37/37/37
f 37/37/37 33/33/33 39/39/39
f 40/40/40 36/36/36 38/38/38
f 33/33/33 41/41/41 39/39/39
f 39/39/39 41/41/41 42/42/42
f 42/42/42 40/40/40 38/38/38
f 41/41/41 40/40/40 42/42/42
f 40/40/40 41/41/41 43/43/43
f 44/44/44 40/40/40 43/43/43
f 47/47/47 46/46/46 45/45/45
f 48/48/48 47/47/47 45/45/45
f 48/48/48 45/45/45 49/49/49
f 45/45/45 50/50/50 49/49/49
f 49/49/49 50/50/50 51/51/51
f 50/50/50 52/52/52 51/51/51
f 55/55/55 54/54/54 53/53/53
f 56/56/56 55/55/55 53/53/53
f 56/56/56 57/57/57 55/55/55
f 57/57/57 58/58/58 55/55/55
f 57/57/57 59/59/59 58/58/58
f 59/59/59 60/60/60 58/58/58
f 63/63/63 62/62/62 61/61/61
f 64/64/64 63/63/63 61/61/61
f 64/64/64 65/65/65 63/63/63
f 65/65/65 66/66/66 63/63/63
f 69/69/69 68/68/68 67/67/67
f 70/70/70 69/69/69 67/67/67
f 70/70/70 71/71/71 69/69/69
f 71/71/71 72/72/72 69/69/69
f 71/71/71 73/73/73 72/72/72
f 73/73/73 74/74/74 72/72/72
f 77/77/77 76/76/76 75/75/75
f 78/78/78 77/77/77 75/75/75
f 81/81/81 80/80/80 79/79/79
f 82/82/82 81/81/81 79/79/79
f 85/85/85 84/84/84 83/83/83
f 86/86/86 85/85/85 83/83/83
f 89/89/89 88/88/88 87/87/87
f 90/90/90 89/89/89 87/87/87
f 93/93/93 92/92/92 91/91/91
f 94/94/94 93/93/93 91/91/91
f 97/97/97 96/96/96 95/95/95
f 98/98/98 97/97/97 95/95/95
f 101/101/101 100/100/100 99/99/99
f 102/102/102 101/101/101 99/99/99
f 105/105/105 104/104/104 103/103/103
f 106/106/106 105/105/105 103/103/103
f 109/109/109 108/108/108 107/107/107
f 110/110/110 109/109/109 107/107/107
f 113/113/113 112/112/112 111/111/111
f 114/114/114 113/113/113 111/111/111
f 117/117/117 116/116/116 115/115/115
f 118/118/118 117/117/117 115/115/115
f 121/121/121 120/120/120 119/119/119
f 122/122/122 121/121/121 119/119/119
f 125/125/125 124/124/124 123/123/123
f 124/124/124 126/126/126 123/123/123
f 127/127/127 126/126/126 124/124/124
f 128/128/128 127/127/127 124/124/124
f 129/129/129 127/127/127 128/128/128
f 130/130/130 129/129/129 128/128/128
f 133/133/133 132/132/132 131/131/131
f 132/132/132 134/134/134 131/131/131
f 135/135/135 134/134/134 132/132/132
f 136/136/136 135/135/135 132/132/132
f 139/139/139 138/138/138 137/137/137
f 138/138/138 140/140/140 137/137/137
f 141/141/141 140/140/140 138/138/138
f 142/142/142 141/141/141 138/138/138
f 143/143/143 141/141/141 142/142/142
f 144/144/144 143/143/143 142/142/142
f 147/147/147 146/146/146 145/145/145
f 148/148/148 147/147/147 145/145/145
f 151/151/151 150/150/150 149/149/149
f 152/152/152 151/151/151 149/149/149
f 155/155/155 154/154/154 153/153/153
f 156/156/156 155/155/155 153/153/153
f 159/159/159 158/158/158 157/157/157
f 160/160/160 159/159/159 157/157/157
f 163/163/163 162/162/162 161/161/161
f 164/164/164 163/163/163 161/161/161
f 167/167/167 166/166/166 165/165/165
f 168/168/168 167/167/167 165/165/165
f 171/171/171 170/170/170 169/169/169
f 169/169/169 172/172/172 171/171/171
f 172/172/172 173/173/173 171/171/171
f 172/172/172 174/174/174 173/173/173
f 174/174/174 175/175/175 173/173/173
f 174/174/174 176/176/176 175/175/175
f 179/179/179 178/178/178 177/177/177
f 177/177/177 180/180/180 179/179/179
f 180/180/180 181/181/181 179/179/179
f 180/180/180 182/182/182 181/181/181
f 182/182/182 183/183/183 181/181/181
f 182/182/182 184/184/184 183/183/183
f 187/187/187 186/186/186 185/185/185
f 185/185/185 188/188/188 187/187/187
f 188/188/188 189/189/189 187/187/187
f 188/188/188 190/190/190 189/189/189
f 190/190/190 191/191/191 189/189/189
f 190/190/190 192/192/192 191/191/191
f 195/195/195 194/194/194 193/193/193
f 196/196/196 195/195/195 193/193/193
f 195/195/195 197/197/197 194/194/194
f 196/196/196 193/193/193 198/198/198
f 197/197/197 199/199/199 194/194/194
f 200/200/200 196/196/196 198/198/198
f 197/197/197 201/201/201 199/199/199
f 200/200/200 198/198/198 202/202/202
f 201/201/201 203/203/203 199/199/199
f 204/204/204 200/200/200 202/202/202
f 201/201/201 205/205/205 203/203/203
f 204/204/204 202/202/202 206/206/206
f 205/205/205 207/207/207 203/203/203
f 208/208/208 204/204/204 206/206/206
f 208/208/208 206/206/206 207/207/207
f 205/205/205 208/208/208 207/207/207
f 211/211/211 210/210/210 209/209/209
f 212/212/212 211/211/211 209/209/209
f 211/211/211 213/213/213 210/210/210
f 212/212/212 209/209/209 214/214/214
f 213/213/213 215/215/215 210/210/210
f 216/216/216 212/212/212 214/214/214
f 213/213/213 217/217/217 215/215/215
f 216/216/216 214/214/214 218/218/218
f 217/217/217 219/219/219 215/215/215
f 220/220/220 216/216/216 218/218/218
f 217/217/217 221/221/221 219/219/219
f 220/220/220 218/218/218 222/222/222
f 221/221/221 223/223/223 219/219/219
f 224/224/224 220/220/220 222/222/222
f 224/224/224 222/222/222 223/223/223
f 221/221/221 224/224/224 223/223/223
f 227/227/227 226/226/226 225/225/225
f 228/228/228 227/227/227 225/225/225
f 227/227/227 229/229/229 226/226/226
f 228/228/228 225/225/225 230/230/230
f 229/229/229 231/231/231 226/226/226
f 232/232/232 228/228/228 230/230/230
f 229/229/229 233/233/233 231/231/231
f 232/232/232 230/230/230 234/234/234
f 233/233/233 235/235/235 231/231/231
f 236/236/236 232/232/232 234/234/234
f 233/233/233 237/237/237 235/235/235
f 236/236/236 234/234/234 238/238/238
f 237/237/237 239/239/239 235/235/235
f 240/240/240 236/236/236 238/238/238
f 240/240/240 238/238/238 239/239/239
f 237/237/237 240/240/240 239/239/239
