g packagingBox_Sealed
v 1.7500001 1.9999996 -1.2001468
v 1.7500001 0.9992665 -0.26173043
v 1.7500001 1.9999996 -0.25073338
v 1.7500001 -0.0014665127 -1.2001468
v 1.7500001 0.9992665 0.2368033
v 1.7500001 -0.0014665127 1.2008795
v 1.7500001 1.9999996 1.2008795
v 1.7500001 1.9999996 0.25146592
v -1.7507328 1.9999996 1.2008795
v -1.7507328 1.9999996 0.25146592
v 1.7500001 1.9999996 0.25146592
v 1.7500001 1.9999996 1.2008795
v 1.7500001 1.9999996 1.2008795
v 1.7500001 -0.0014665127 1.2008795
v -1.7507328 -0.0014665127 1.2008795
v -1.7507328 1.9999996 1.2008795
v -1.7507328 1.9999996 -1.2001468
v -1.7507328 -0.0014665127 -1.2001468
v 1.7500001 -0.0014665127 -1.2001468
v 1.7500001 1.9999996 -1.2001468
v -1.7507328 0.9992665 -0.25073338
v -1.7507328 1.9999996 -1.2001468
v -1.7507328 1.9999996 -0.25073338
v -1.7507328 -0.0014665127 -1.2001468
v -1.7507328 -0.0014665127 1.2008795
v -1.7507328 0.9992665 0.25146592
v -1.7507328 1.9999996 1.2008795
v -1.7507328 1.9999996 0.25146592
v -1.7507328 1.9999996 -0.25073338
v -1.7507328 1.9999996 -1.2001468
v 1.7500001 1.9999996 -1.2001468
v 1.7500001 1.9999996 -0.25073338
v -1.7507328 1.9999996 -0.25073338
v -1.7507328 1.9999996 0.25146592
v -1.7507328 0.9992665 0.25146592
v -1.7507328 0.9992665 -0.25073338
v 1.7500001 -0.0014665127 1.2008795
v 1.7500001 -0.0014665127 -1.2001468
v -1.7507328 -0.0014665127 -1.2001468
v -1.7507328 -0.0014665127 1.2008795
v 1.7500001 1.9999996 -0.25073338
v 1.7500001 1.9999996 0.25146592
v -1.7507328 1.9999996 0.25146592
v -1.7507328 1.9999996 -0.25073338
v 1.7500001 1.9999996 0.25146592
v 1.7500001 1.9999996 -0.25073338
v 1.7500001 0.9992665 -0.26173043
v 1.7500001 0.9992665 0.2368033
vt 0.21779124 0.027893452
vt 0.21779124 0.027893452
vt 0.21779124 0.027893452
vt 0.21779124 0.027893452
vt 0.21779124 0.027893452
vt 0.21779124 0.027893452
vt 0.21779124 0.027893452
vt 0.21779124 0.027893452
vt 0.21779124 0.6567757
vt 0.21779124 0.6567757
vt 0.21779124 0.6567757
vt 0.21779124 0.6567757
vt 0.21779124 0.027893452
vt 0.21779124 0.027893452
vt 0.21779124 0.027893452
vt 0.21779124 0.027893452
vt 0.21779124 0.027893452
vt 0.21779124 0.027893452
vt 0.21779124 0.027893452
vt 0.21779124 0.027893452
vt 0.21779124 0.027893452
vt 0.21779124 0.027893452
vt 0.21779124 0.027893452
vt 0.21779124 0.027893452
vt 0.21779124 0.027893452
vt 0.21779124 0.027893452
vt 0.21779124 0.027893452
vt 0.21779124 0.027893452
vt 0.21779124 0.46934414
vt 0.21779124 0.46934414
vt 0.21779124 0.46934414
vt 0.21779124 0.46934414
vt 0.59265435 0.08954858
vt 0.59265435 0.08954858
vt 0.59265435 0.08954858
vt 0.59265435 0.08954858
vt 0.21779124 0.027893452
vt 0.21779124 0.027893452
vt 0.21779124 0.027893452
vt 0.21779124 0.027893452
vt 0.59265435 0.08954858
vt 0.59265435 0.08954858
vt 0.59265435 0.08954858
vt 0.59265435 0.08954858
vt 0.59265435 0.08954858
vt 0.59265435 0.08954858
vt 0.59265435 0.08954858
vt 0.59265435 0.08954858
vn 0.999874 0.015871048 -0.00034391563
vn 0.999874 0.015871048 -0.00034391563
vn 0.999874 0.015871048 -0.00034391563
vn 0.999874 0.015871048 -0.00034391563
vn 0.999874 0.015871048 -0.00034391563
vn 0.999874 0.015871048 -0.00034391563
vn 0.999874 0.015871048 -0.00034391563
vn 0.999874 0.015871048 -0.00034391563
vn -0.015871048 0.999874 -0.00034526698
vn -0.015871048 0.999874 -0.00034526698
vn -0.015871048 0.999874 -0.00034526698
vn -0.015871048 0.999874 -0.00034526698
vn -0.015871048 0.015871048 0.99974805
vn -0.015871048 0.015871048 0.99974805
vn -0.015871048 0.015871048 0.99974805
vn -0.015871048 0.015871048 0.99974805
vn -0.015871048 0.015871048 -0.99974805
vn -0.015871048 0.015871048 -0.99974805
vn -0.015871048 0.015871048 -0.99974805
vn -0.015871048 0.015871048 -0.99974805
vn -0.999874 0.015871048 -0.00034391563
vn -0.999874 0.015871048 -0.00034391563
vn -0.999874 0.015871048 -0.00034391563
vn -0.999874 0.015871048 -0.00034391563
vn -0.999874 0.015871048 -0.00034391563
vn -0.999874 0.015871048 -0.00034391563
vn -0.999874 0.015871048 -0.00034391563
vn -0.999874 0.015871048 -0.00034391563
vn -0.015871048 0.999874 -0.00034526698
vn -0.015871048 0.999874 -0.00034526698
vn -0.015871048 0.999874 -0.00034526698
vn -0.015871048 0.999874 -0.00034526698
vn -0.999874 0.015871048 -0.00034391563
vn -0.999874 0.015871048 -0.00034391563
vn -0.999874 0.015871048 -0.00034391563
vn -0.999874 0.015871048 -0.00034391563
vn -0.015871048 -0.999874 -0.00034526698
vn -0.015871048 -0.999874 -0.00034526698
vn -0.015871048 -0.999874 -0.00034526698
vn -0.015871048 -0.999874 -0.00034526698
vn -0.015871048 0.999874 -0.00034526698
vn -0.015871048 0.999874 -0.00034526698
vn -0.015871048 0.999874 -0.00034526698
vn -0.015871048 0.999874 -0.00034526698
vn 0.999874 0.015871048 -0.00034391563
vn 0.999874 0.015871048 -0.00034391563
vn 0.999874 0.015871048 -0.00034391563
vn 0.999874 0.015871048 -0.00034391563
g packagingBox_Sealed_0
f 3/3/3 2/2/2 1/1/1
f 1/1/1 2/2/2 4/4/4
f 4/4/4 2/2/2 5/5/5
f 6/6/6 4/4/4 5/5/5
f 5/5/5 7/7/7 6/6/6
f 8/8/8 7/7/7 5/5/5
f 11/11/11 10/10/10 9/9/9
f 12/12/12 11/11/11 9/9/9
f 15/15/15 14/14/14 13/13/13
f 16/16/16 15/15/15 13/13/13
f 19/19/19 18/18/18 17/17/17
f 20/20/20 19/19/19 17/17/17
f 23/23/23 22/22/22 21/21/21
f 21/21/21 22/22/22 24/24/24
f 24/24/24 25/25/25 21/21/21
f 25/25/25 26/26/26 21/21/21
f 27/27/27 26/26/26 25/25/25
f 28/28/28 26/26/26 27/27/27
f 31/31/31 30/30/30 29/29/29
f 32/32/32 31/31/31 29/29/29
f 35/35/35 34/34/34 33/33/33
f 36/36/36 35/35/35 33/33/33
f 39/39/39 38/38/38 37/37/37
f 40/40/40 39/39/39 37/37/37
f 43/43/43 42/42/42 41/41/41
f 44/44/44 43/43/43 41/41/41
f 47/47/47 46/46/46 45/45/45
f 48/48/48 47/47/47 45/45/45
