g packagingBasket
v -1.0611968 1.7758408 -1.4978596
v -0.92457366 1.7548218 -1.492605
v -0.85100746 2.3118238 -1.3980196
v -0.9771211 2.369626 -1.4032743
v -0.5462327 2.7164388 -1.3349628
v -0.63556314 2.826788 -1.3297081
v -1.076961 1.7548218 -1.3612365
v -1.0611968 1.7758408 -1.4978596
v -0.9771211 2.369626 -1.4032743
v -0.9928851 2.348607 -1.2613965
v -0.93508315 1.7338028 -1.350727
v -1.076961 1.7548218 -1.3612365
v -0.9928851 2.348607 -1.2613965
v -0.8615167 2.2960596 -1.2613965
v -0.6408179 2.8162785 -1.1878302
v -0.5567422 2.7059293 -1.193085
v -0.92457366 1.7548218 -1.492605
v -0.93508315 1.7338028 -1.350727
v -0.8615167 2.2960596 -1.2613965
v -0.85100746 2.3118238 -1.3980196
v -0.9928851 2.348607 -1.2613965
v -0.9771211 2.369626 -1.4032743
v -0.63556314 2.826788 -1.3297081
v -0.6408179 2.8162785 -1.1878302
v -0.85100746 2.3118238 -1.3980196
v -0.8615167 2.2960596 -1.2613965
v -0.5567422 2.7059293 -1.193085
v -0.5462327 2.7164388 -1.3349628
v -0.63556314 2.826788 -1.3297081
v -0.5462327 2.7164388 -1.3349628
v -0.25196743 2.847807 -1.3139439
v -0.2834959 2.9844303 -1.3034344
v 0.00025987625 2.868826 -1.3086891
v 0.00025987625 3.010704 -1.2981796
v 0.24723244 2.847807 -1.3139439
v 0.28401566 2.9844303 -1.3034344
v 0.54675245 2.7164388 -1.3349628
v 0.6360829 2.826788 -1.3297081
v -0.6408179 2.8162785 -1.1878302
v -0.63556314 2.826788 -1.3297081
v -0.2834959 2.9844303 -1.3034344
v -0.28875065 2.9739208 -1.1615565
v -0.5567422 2.7059293 -1.193085
v -0.6408179 2.8162785 -1.1878302
v -0.28875065 2.9739208 -1.1615565
v -0.25196743 2.8372974 -1.172066
v 0.00025987625 3.0001945 -1.1563017
v 0.00025987625 2.8583164 -1.1668112
v 0.2892704 2.9739208 -1.1615565
v 0.25248718 2.8372974 -1.172066
v 0.64133763 2.8162785 -1.1878302
v 0.55726194 2.7059293 -1.193085
v -0.5462327 2.7164388 -1.3349628
v -0.5567422 2.7059293 -1.193085
v -0.25196743 2.8372974 -1.172066
v -0.25196743 2.847807 -1.3139439
v -0.28875065 2.9739208 -1.1615565
v -0.2834959 2.9844303 -1.3034344
v 0.00025987625 3.010704 -1.2981796
v 0.00025987625 3.0001945 -1.1563017
v -0.25196743 2.847807 -1.3139439
v -0.25196743 2.8372974 -1.172066
v 0.00025987625 2.8583164 -1.1668112
v 0.00025987625 2.868826 -1.3086891
v 0.00025987625 3.0001945 -1.1563017
v 0.00025987625 3.010704 -1.2981796
v 0.28401566 2.9844303 -1.3034344
v 0.2892704 2.9739208 -1.1615565
v 0.00025987625 2.868826 -1.3086891
v 0.00025987625 2.8583164 -1.1668112
v 0.25248718 2.8372974 -1.172066
v 0.24723244 2.847807 -1.3139439
v 0.2892704 2.9739208 -1.1615565
v 0.28401566 2.9844303 -1.3034344
v 0.6360829 2.826788 -1.3297081
v 0.64133763 2.8162785 -1.1878302
v 0.24723244 2.847807 -1.3139439
v 0.25248718 2.8372974 -1.172066
v 0.55726194 2.7059293 -1.193085
v 0.54675245 2.7164388 -1.3349628
v 0.6360829 2.826788 -1.3297081
v 0.54675245 2.7164388 -1.3349628
v 0.8515271 2.3118238 -1.3980196
v 0.97764075 2.369626 -1.4032743
v 0.9250934 1.7548218 -1.492605
v 1.0617166 1.7758408 -1.4978596
v 0.64133763 2.8162785 -1.1878302
v 0.6360829 2.826788 -1.3297081
v 0.97764075 2.369626 -1.4032743
v 0.993405 2.348607 -1.2613965
v 0.55726194 2.7059293 -1.193085
v 0.64133763 2.8162785 -1.1878302
v 0.993405 2.348607 -1.2613965
v 0.8620366 2.2960596 -1.2613965
v 1.0774808 1.7548218 -1.3612365
v 0.9356029 1.7338028 -1.350727
v 0.54675245 2.7164388 -1.3349628
v 0.55726194 2.7059293 -1.193085
v 0.8620366 2.2960596 -1.2613965
v 0.8515271 2.3118238 -1.3980196
v 0.993405 2.348607 -1.2613965
v 0.97764075 2.369626 -1.4032743
v 1.0617166 1.7758408 -1.4978596
v 1.0774808 1.7548218 -1.3612365
v 0.8515271 2.3118238 -1.3980196
v 0.8620366 2.2960596 -1.2613965
v 0.9356029 1.7338028 -1.350727
v 0.9250934 1.7548218 -1.492605
v -1.055942 1.7810955 1.5183587
v -1.0822158 1.7548218 1.376481
v -0.99813986 2.348607 1.2608767
v -0.97186637 2.3643713 1.4027545
v -0.9193189 1.7548218 1.4920852
v -1.055942 1.7810955 1.5183587
v -0.97186637 2.3643713 1.4027545
v -0.8457527 2.3118238 1.3869903
v -0.94559264 1.7338028 1.3554621
v -0.9193189 1.7548218 1.4920852
v -0.8457527 2.3118238 1.3869903
v -0.86677146 2.2908049 1.2451127
v -1.0822158 1.7548218 1.376481
v -0.94559264 1.7338028 1.3554621
v -0.86677146 2.2908049 1.2451127
v -0.99813986 2.348607 1.2608767
v -0.97186637 2.3643713 1.4027545
v -0.99813986 2.348607 1.2608767
v -0.6460726 2.8110237 1.1715462
v -0.6303084 2.8162785 1.3134241
v -0.8457527 2.3118238 1.3869903
v -0.97186637 2.3643713 1.4027545
v -0.6303084 2.8162785 1.3134241
v -0.54097795 2.7059293 1.3081694
v -0.86677146 2.2908049 1.2451127
v -0.8457527 2.3118238 1.3869903
v -0.54097795 2.7059293 1.3081694
v -0.5567422 2.7006745 1.1662915
v -0.99813986 2.348607 1.2608767
v -0.86677146 2.2908049 1.2451127
v -0.5567422 2.7006745 1.1662915
v -0.6460726 2.8110237 1.1715462
v -0.6303084 2.8162785 1.3134241
v -0.6460726 2.8110237 1.1715462
v -0.28875065 2.968666 1.1400177
v -0.2834959 2.9739208 1.2818956
v -0.54097795 2.7059293 1.3081694
v -0.6303084 2.8162785 1.3134241
v -0.2834959 2.9739208 1.2818956
v -0.24671268 2.8372974 1.2818956
v -0.5567422 2.7006745 1.1662915
v -0.54097795 2.7059293 1.3081694
v -0.24671268 2.8372974 1.2818956
v -0.25722218 2.8320427 1.1400177
v -0.6460726 2.8110237 1.1715462
v -0.5567422 2.7006745 1.1662915
v -0.25722218 2.8320427 1.1400177
v -0.28875065 2.968666 1.1400177
v -0.2834959 2.9739208 1.2818956
v -0.28875065 2.968666 1.1400177
v 0.00025987625 3.0001945 1.134763
v 0.00025987625 3.0001945 1.2766409
v -0.24671268 2.8372974 1.2818956
v -0.2834959 2.9739208 1.2818956
v 0.00025987625 3.0001945 1.2766409
v 0.00025987625 2.8583164 1.2766409
v 0.28401566 2.9739208 1.2818956
v 0.24723244 2.8372974 1.2818956
v -0.25722218 2.8320427 1.1400177
v -0.24671268 2.8372974 1.2818956
v 0.00025987625 2.8583164 1.2766409
v 0.00025987625 2.8583164 1.134763
v -0.28875065 2.968666 1.1400177
v -0.25722218 2.8320427 1.1400177
v 0.00025987625 2.8583164 1.134763
v 0.00025987625 3.0001945 1.134763
v 0.25248718 2.8320427 1.1400177
v 0.2892704 2.968666 1.1400177
v 0.00025987625 3.0001945 1.2766409
v 0.00025987625 3.0001945 1.134763
v 0.2892704 2.968666 1.1400177
v 0.28401566 2.9739208 1.2818956
v 0.00025987625 2.8583164 1.134763
v 0.00025987625 2.8583164 1.2766409
v 0.24723244 2.8372974 1.2818956
v 0.25248718 2.8320427 1.1400177
v 0.28401566 2.9739208 1.2818956
v 0.2892704 2.968666 1.1400177
v 0.6465924 2.8110237 1.1715462
v 0.63082814 2.8162785 1.3134241
v 0.24723244 2.8372974 1.2818956
v 0.28401566 2.9739208 1.2818956
v 0.63082814 2.8162785 1.3134241
v 0.5414977 2.7059293 1.3081694
v 0.25248718 2.8320427 1.1400177
v 0.24723244 2.8372974 1.2818956
v 0.5414977 2.7059293 1.3081694
v 0.55726194 2.7006745 1.1662915
v 0.2892704 2.968666 1.1400177
v 0.25248718 2.8320427 1.1400177
v 0.55726194 2.7006745 1.1662915
v 0.6465924 2.8110237 1.1715462
v 0.63082814 2.8162785 1.3134241
v 0.6465924 2.8110237 1.1715462
v 0.99865973 2.348607 1.2608767
v 0.972386 2.3643713 1.4027545
v 0.5414977 2.7059293 1.3081694
v 0.63082814 2.8162785 1.3134241
v 0.972386 2.3643713 1.4027545
v 0.84627235 2.3118238 1.3869903
v 0.55726194 2.7006745 1.1662915
v 0.5414977 2.7059293 1.3081694
v 0.84627235 2.3118238 1.3869903
v 0.86729133 2.2908049 1.2451127
v 0.6465924 2.8110237 1.1715462
v 0.55726194 2.7006745 1.1662915
v 0.86729133 2.2908049 1.2451127
v 0.99865973 2.348607 1.2608767
v 0.972386 2.3643713 1.4027545
v 0.99865973 2.348607 1.2608767
v 1.0827355 1.7548218 1.376481
v 1.0564618 1.7810955 1.5183587
v 0.84627235 2.3118238 1.3869903
v 0.972386 2.3643713 1.4027545
v 1.0564618 1.7810955 1.5183587
v 0.91983867 1.7548218 1.4920852
v 0.86729133 2.2908049 1.2451127
v 0.84627235 2.3118238 1.3869903
v 0.91983867 1.7548218 1.4920852
v 0.9461124 1.7338028 1.3554621
v 0.99865973 2.348607 1.2608767
v 0.86729133 2.2908049 1.2451127
v 0.9461124 1.7338028 1.3554621
v 1.0827355 1.7548218 1.376481
v 0.00025987625 0.777441 -0.00025987625
v 1.9392574 0.777441 -0.00025987625
v 1.9340026 0.777441 0.69336534
v 1.9182385 0.777441 0.9298284
v 1.9340026 0.777441 -0.69388497
v 1.828908 0.777441 1.055942
v 1.9182385 0.777441 -0.93034816
v 1.6134639 0.777441 1.1137443
v 1.828908 0.777441 -1.0564618
v 0.00025987625 0.777441 1.1400177
v 1.6134639 0.777441 -1.1142639
v -1.6129441 0.777441 1.1137443
v 0.00025987625 0.777441 -1.1405376
v -1.8283882 0.777441 1.055942
v -1.6129441 0.777441 -1.1142639
v -1.9177189 0.777441 0.9298284
v -1.8283882 0.777441 -1.0564618
v -1.9334831 0.777441 0.69336534
v -1.9177189 0.777441 -0.93034816
v -1.9387379 0.777441 -0.00025987625
v -1.9334831 0.777441 -0.69388497
v 1.9182385 0.777441 -0.93034816
v 1.828908 0.777441 -1.0564618
v 1.849927 1.8599167 -1.1773207
v 1.6134639 0.777441 -1.1142639
v 1.9445121 1.8599167 -1.0301881
v 1.9340026 0.777441 -0.69388497
v 1.6344827 1.8599167 -1.2403775
v 0.00025987625 0.777441 -1.1405376
v 1.9655311 1.8599167 -0.7569418
v 1.9392574 0.777441 -0.00025987625
v 1.9707859 1.8599167 -0.00025987625
v 1.9340026 0.777441 0.69336534
v 1.9760406 1.8704262 -1.2929249
v 2.1441922 1.8704262 -0.80948925
v 2.0968995 1.8704262 -1.1247734
v 0.00025987625 1.8599167 -1.2666513
v 1.7553418 1.8704262 -1.3559817
v -1.6339631 1.8599167 -1.2403775
v -1.6129441 0.777441 -1.1142639
v -1.8494072 1.8599167 -1.1773207
v -1.8283882 0.777441 -1.0564618
v -1.9177189 0.777441 -0.93034816
v -1.7548218 1.8704262 -1.3559817
v -1.9439926 1.8599167 -1.0301881
v -1.9334831 0.777441 -0.69388497
v 0.00025987625 1.8704262 -1.371746
v -1.9755206 1.8704262 -1.2929249
v -1.9650116 1.8599167 -0.7569418
v -1.9387379 0.777441 -0.00025987625
v -1.7810955 1.8178787 -1.5398974
v -2.0963798 1.8704262 -1.1247734
v -1.9702659 1.8599167 -0.00025987625
v -1.9334831 0.777441 0.69336534
v -2.0806155 1.8283882 -1.4400575
v -2.1436725 1.8704262 -0.80948925
v -2.2645311 1.8441525 -1.193085
v 0.00025987625 1.812624 -1.5556617
v 1.7816154 1.8178787 -1.5398974
v 2.0811353 1.8283882 -1.4400575
v 2.2650511 1.8441525 -1.193085
v 2.3333626 1.854662 -0.82525337
v 0.00025987625 1.6024346 -1.5241333
v 1.7868701 1.6024346 -1.5083691
v 2.08639 1.6129441 -1.408529
v 2.2755606 1.6287084 -1.172066
v 2.343872 1.6392179 -0.80948925
v -1.7863503 1.6024346 -1.5083691
v 2.3543816 1.854662 -0.00025987625
v 2.364891 1.6444726 -0.00025987625
v 2.1599565 1.8704262 -0.00025987625
v 1.729068 1.6707463 -1.4610765
v 2.0548615 1.6760011 -1.3612365
v 2.228268 1.6917653 -1.1405376
v 2.2965796 1.69702 -0.78847027
v 2.3175983 1.69702 -0.00025987625
v 0.00025987625 1.6654916 -1.4768407
v 2.1441922 1.8704262 0.8089695
v 1.9655311 1.8599167 0.75642204
v 1.9445121 1.8599167 1.0296683
v 1.9182385 0.777441 0.9298284
v 2.3333626 1.854662 0.82473373
v 2.0968995 1.8704262 1.1242535
v 1.849927 1.8599167 1.176801
v 1.828908 0.777441 1.055942
v 1.6134639 0.777441 1.1137443
v 1.9760406 1.8704262 1.2924051
v 2.2650511 1.8441525 1.1925652
v 2.343872 1.6392179 0.8089695
v 1.6344827 1.8599167 1.2451127
v 2.0811353 1.8283882 1.4395378
v 2.2755606 1.6287084 1.1715462
v 2.2965796 1.69702 0.7879505
v 2.08639 1.6129441 1.4080093
v 1.7816154 1.8178787 1.5446324
v 2.228268 1.6917653 1.1400177
v 0.00025987625 1.8599167 1.2713861
v 0.00025987625 0.777441 1.1400177
v 1.7553418 1.8704262 1.3554621
v 0.00025987625 1.8704262 1.3712263
v -1.6339631 1.8599167 1.2451127
v -1.6129441 0.777441 1.1137443
v 2.0548615 1.6760011 1.3659716
v -1.7548218 1.8704262 1.3554621
v -1.8494072 1.8599167 1.176801
v -1.8283882 0.777441 1.055942
v -1.9177189 0.777441 0.9298284
v -1.9755206 1.8704262 1.2924051
v -1.9439926 1.8599167 1.0296683
v -2.0963798 1.8704262 1.1242535
v -1.9650116 1.8599167 0.75642204
v -2.1436725 1.8704262 0.8089695
v -2.1646914 1.8704262 -0.00025987625
v -2.3328428 1.854662 -0.82525337
v -2.3538618 1.854662 -0.00025987625
v -2.3328428 1.854662 0.82473373
v -2.2645311 1.8441525 1.1925652
v -2.348607 1.6392179 -0.80948925
v -2.3643713 1.6444726 -0.00025987625
v -2.0806155 1.8283882 1.4395378
v -2.348607 1.6392179 0.8089695
v -2.2750406 1.6287084 -1.172066
v -1.7810955 1.8178787 1.5446324
v -2.2750406 1.6287084 1.1715462
v -2.0858703 1.6129441 -1.408529
v -1.728548 1.6707463 -1.4610765
v -2.0543418 1.6760011 -1.3612365
v -2.2277484 1.6917653 -1.1405376
v 0.00025987625 1.812624 1.5551419
v -2.3013144 1.69702 -0.78847027
v 1.7868701 1.6024346 1.5078495
v -2.3170786 1.69702 -0.00025987625
v 1.729068 1.6707463 1.4605567
v -2.3013144 1.69702 0.7879505
v -1.7863503 1.6024346 1.5078495
v 0.00025987625 1.6024346 1.5236135
v 0.00025987625 1.6654916 1.476321
v -2.0858703 1.6129441 1.4080093
v -1.728548 1.6707463 1.4605567
v -2.2277484 1.6917653 1.1400177
v -2.0543418 1.6760011 1.3659716
v -2.217239 1.6917653 -0.00025987625
v -2.19622 1.6917653 0.777441
v -2.1384177 1.6917653 1.1032348
v -1.9965396 1.6865106 1.2871504
v -1.7180386 1.6865106 1.3607168
v -2.19622 1.6917653 -0.7779608
v 0.00025987625 1.6812558 1.376481
v -2.1384177 1.6917653 -1.1037544
v 1.7185585 1.6865106 1.3607168
v -1.9965396 1.6865106 -1.2876701
v 1.9970596 1.6865106 1.2871504
v -1.7180386 1.6865106 -1.3612365
v 2.1389375 1.6917653 1.1032348
v 0.00025987625 1.6812558 -1.3770007
v 2.1967394 1.6917653 0.777441
v 1.7185585 1.6865106 -1.3612365
v 2.2177584 1.6917653 -0.00025987625
v 1.9970596 1.6865106 -1.2876701
v 2.1967394 1.6917653 -0.7779608
v 2.1389375 1.6917653 -1.1037544
v 2.107409 1.6339631 1.09798
v 2.1599565 1.6339631 0.79320526
v 2.1757205 1.6339631 -0.00025987625
v 2.1599565 1.6339631 -0.793725
v 2.107409 1.6339631 -1.0984997
v 1.9865501 1.6339631 -1.2613965
v 2.1757205 0.7091296 -0.7674513
v 2.1967394 0.7091296 -0.00025987625
v 2.0968995 0.17840123 -0.7201587
v 2.1231732 0.7091296 -1.0617166
v 1.7605964 1.6339631 -1.3244534
v 2.1757205 0.7091296 0.76693153
v 1.9970596 0.7091296 -1.2141039
v 0.00025987625 1.6339631 -1.3349628
v 2.044352 0.17840123 -0.9828955
v 1.7711059 0.7091296 -1.271906
v 2.1126637 0.17840123 -0.00025987625
v -1.7600765 1.6339631 -1.3244534
v 1.9550216 0.31502438 -1.1142639
v 1.7816154 0.17840123 -1.1300281
v 0.00025987625 0.7091296 -1.2824154
v 1.8183985 -0.00025987625 -0.96713126
v -1.7758408 0.7091296 -1.271906
v -1.9860301 1.6339631 -1.2613965
v 0.00025987625 0.17840123 -1.1405376
v -1.9965396 0.7091296 -1.2141039
v -2.1068892 1.6339631 -1.0984997
v -1.7810955 0.17840123 -1.1300281
v -2.1594367 1.6339631 -0.793725
v -2.1226535 0.7091296 -1.0617166
v -1.9545021 0.31502438 -1.1142639
v -2.0438323 0.17840123 -0.9828955
v -2.0963798 0.17840123 -0.7201587
v -1.8178787 -0.00025987625 -0.96713126
v -2.175201 1.6339631 -0.00025987625
v -2.175201 0.7091296 -0.7674513
v 0.00025987625 -0.00025987625 -0.97764075
v -2.1594367 1.6339631 0.79320526
v -2.19622 0.7091296 -0.00025987625
v -2.1068892 1.6339631 1.09798
v -2.175201 0.7091296 0.76693153
v -1.9860301 1.6339631 1.2608767
v -1.854662 -0.00025987625 -0.71490395
v -2.112144 0.17840123 -0.00025987625
v -2.1226535 0.7091296 1.0611968
v -1.7600765 1.6339631 1.3239336
v -1.8651714 -0.00025987625 -0.00025987625
v -2.0963798 0.17840123 0.71963906
v -1.9965396 0.7091296 1.2188389
v 0.00025987625 1.6339631 1.3344431
v -1.854662 -0.00025987625 0.7143843
v -2.0438323 0.17840123 0.98237586
v -1.7758408 0.7091296 1.2766409
v 1.7605964 1.6339631 1.3239336
v -1.8178787 -0.00025987625 0.9666116
v -1.9545021 0.31502438 1.1137443
v -1.7810955 0.17840123 1.1295083
v 0.00025987625 0.7091296 1.2818956
v 1.9865501 1.6339631 1.2608767
v 0.00025987625 0.17840123 1.1400177
v 1.7711059 0.7091296 1.2766409
v 2.1231732 0.7091296 1.0611968
v 0.00025987625 -0.00025987625 0.9771211
v 1.7816154 0.17840123 1.1295083
v 1.9970596 0.7091296 1.2188389
v 2.0968995 0.17840123 0.71963906
v 0.00025987625 -0.00025987625 0.72489357
v 1.9550216 0.31502438 1.1137443
v 2.044352 0.17840123 0.98237586
v 1.8183985 -0.00025987625 0.9666116
v 1.8551817 -0.00025987625 0.7143843
v 0.00025987625 -0.00025987625 -0.00025987625
v 1.8656912 -0.00025987625 -0.00025987625
v 0.00025987625 -0.00025987625 -0.72541344
v 1.8551817 -0.00025987625 -0.71490395
vt 0.5921569 0.96862745
vt 0.5921569 0.96862745
vt 0.5921569 0.96862745
vt 0.5921569 0.96862745
vt 0.5921569 0.96862745
vt 0.5921569 0.96862745
vt 0.5921569 0.96862745
vt 0.5921569 0.96862745
vt 0.5921569 0.96862745
vt 0.5921569 0.96862745
vt 0.5921569 0.96862745
vt 0.5921569 0.96862745
vt 0.5921569 0.96862745
vt 0.5921569 0.96862745
vt 0.5921569 0.96862745
vt 0.5921569 0.96862745
vt 0.5921569 0.96862745
vt 0.5921569 0.96862745
vt 0.5921569 0.96862745
vt 0.5921569 0.96862745
vt 0.5921569 0.96862745
vt 0.5921569 0.96862745
vt 0.5921569 0.96862745
vt 0.5921569 0.96862745
vt 0.5921569 0.96862745
vt 0.5921569 0.96862745
vt 0.5921569 0.96862745
vt 0.5921569 0.96862745
vt 0.5921569 0.96862745
vt 0.5921569 0.96862745
vt 0.5921569 0.96862745
vt 0.5921569 0.96862745
vt 0.5921569 0.96862745
vt 0.5921569 0.96862745
vt 0.5921569 0.96862745
vt 0.5921569 0.96862745
vt 0.5921569 0.96862745
vt 0.5921569 0.96862745
vt 0.5921569 0.96862745
vt 0.5921569 0.96862745
vt 0.5921569 0.96862745
vt 0.5921569 0.96862745
vt 0.5921569 0.96862745
vt 0.5921569 0.96862745
vt 0.5921569 0.96862745
vt 0.5921569 0.96862745
vt 0.5921569 0.96862745
vt 0.5921569 0.96862745
vt 0.5921569 0.96862745
vt 0.5921569 0.96862745
vt 0.5921569 0.96862745
vt 0.5921569 0.96862745
vt 0.5921569 0.96862745
vt 0.5921569 0.96862745
vt 0.5921569 0.96862745
vt 0.5921569 0.96862745
vt 0.5921569 0.96862745
vt 0.5921569 0.96862745
vt 0.5921569 0.96862745
vt 0.5921569 0.96862745
vt 0.5921569 0.96862745
vt 0.5921569 0.96862745
vt 0.5921569 0.96862745
vt 0.5921569 0.96862745
vt 0.5921569 0.96862745
vt 0.5921569 0.96862745
vt 0.5921569 0.96862745
vt 0.5921569 0.96862745
vt 0.5921569 0.96862745
vt 0.5921569 0.96862745
vt 0.5921569 0.96862745
vt 0.5921569 0.96862745
vt 0.5921569 0.96862745
vt 0.5921569 0.96862745
vt 0.5921569 0.96862745
vt 0.5921569 0.96862745
vt 0.5921569 0.96862745
vt 0.5921569 0.96862745
vt 0.5921569 0.96862745
vt 0.5921569 0.96862745
vt 0.5921569 0.96862745
vt 0.5921569 0.96862745
vt 0.5921569 0.96862745
vt 0.5921569 0.96862745
vt 0.5921569 0.96862745
vt 0.5921569 0.96862745
vt 0.5921569 0.96862745
vt 0.5921569 0.96862745
vt 0.5921569 0.96862745
vt 0.5921569 0.96862745
vt 0.5921569 0.96862745
vt 0.5921569 0.96862745
vt 0.5921569 0.96862745
vt 0.5921569 0.96862745
vt 0.5921569 0.96862745
vt 0.5921569 0.96862745
vt 0.5921569 0.96862745
vt 0.5921569 0.96862745
vt 0.5921569 0.96862745
vt 0.5921569 0.96862745
vt 0.5921569 0.96862745
vt 0.5921569 0.96862745
vt 0.5921569 0.96862745
vt 0.5921569 0.96862745
vt 0.5921569 0.96862745
vt 0.5921569 0.96862745
vt 0.5921569 0.96862745
vt 0.5921569 0.96862745
vt 0.5921569 0.96862745
vt 0.5921569 0.96862745
vt 0.5921569 0.96862745
vt 0.5921569 0.96862745
vt 0.5921569 0.96862745
vt 0.5921569 0.96862745
vt 0.5921569 0.96862745
vt 0.5921569 0.96862745
vt 0.5921569 0.96862745
vt 0.5921569 0.96862745
vt 0.5921569 0.96862745
vt 0.5921569 0.96862745
vt 0.5921569 0.96862745
vt 0.5921569 0.96862745
vt 0.5921569 0.96862745
vt 0.5921569 0.96862745
vt 0.5921569 0.96862745
vt 0.5921569 0.96862745
vt 0.5921569 0.96862745
vt 0.5921569 0.96862745
vt 0.5921569 0.96862745
vt 0.5921569 0.96862745
vt 0.5921569 0.96862745
vt 0.5921569 0.96862745
vt 0.5921569 0.96862745
vt 0.5921569 0.96862745
vt 0.5921569 0.96862745
vt 0.5921569 0.96862745
vt 0.5921569 0.96862745
vt 0.5921569 0.96862745
vt 0.5921569 0.96862745
vt 0.5921569 0.96862745
vt 0.5921569 0.96862745
vt 0.5921569 0.96862745
vt 0.5921569 0.96862745
vt 0.5921569 0.96862745
vt 0.5921569 0.96862745
vt 0.5921569 0.96862745
vt 0.5921569 0.96862745
vt 0.5921569 0.96862745
vt 0.5921569 0.96862745
vt 0.5921569 0.96862745
vt 0.5921569 0.96862745
vt 0.5921569 0.96862745
vt 0.5921569 0.96862745
vt 0.5921569 0.96862745
vt 0.5921569 0.96862745
vt 0.5921569 0.96862745
vt 0.5921569 0.96862745
vt 0.5921569 0.96862745
vt 0.5921569 0.96862745
vt 0.5921569 0.96862745
vt 0.5921569 0.96862745
vt 0.5921569 0.96862745
vt 0.5921569 0.96862745
vt 0.5921569 0.96862745
vt 0.5921569 0.96862745
vt 0.5921569 0.96862745
vt 0.5921569 0.96862745
vt 0.5921569 0.96862745
vt 0.5921569 0.96862745
vt 0.5921569 0.96862745
vt 0.5921569 0.96862745
vt 0.5921569 0.96862745
vt 0.5921569 0.96862745
vt 0.5921569 0.96862745
vt 0.5921569 0.96862745
vt 0.5921569 0.96862745
vt 0.5921569 0.96862745
vt 0.5921569 0.96862745
vt 0.5921569 0.96862745
vt 0.5921569 0.96862745
vt 0.5921569 0.96862745
vt 0.5921569 0.96862745
vt 0.5921569 0.96862745
vt 0.5921569 0.96862745
vt 0.5921569 0.96862745
vt 0.5921569 0.96862745
vt 0.5921569 0.96862745
vt 0.5921569 0.96862745
vt 0.5921569 0.96862745
vt 0.5921569 0.96862745
vt 0.5921569 0.96862745
vt 0.5921569 0.96862745
vt 0.5921569 0.96862745
vt 0.5921569 0.96862745
vt 0.5921569 0.96862745
vt 0.5921569 0.96862745
vt 0.5921569 0.96862745
vt 0.5921569 0.96862745
vt 0.5921569 0.96862745
vt 0.5921569 0.96862745
vt 0.5921569 0.96862745
vt 0.5921569 0.96862745
vt 0.5921569 0.96862745
vt 0.5921569 0.96862745
vt 0.5921569 0.96862745
vt 0.5921569 0.96862745
vt 0.5921569 0.96862745
vt 0.5921569 0.96862745
vt 0.5921569 0.96862745
vt 0.5921569 0.96862745
vt 0.5921569 0.96862745
vt 0.5921569 0.96862745
vt 0.5921569 0.96862745
vt 0.5921569 0.96862745
vt 0.5921569 0.96862745
vt 0.5921569 0.96862745
vt 0.5921569 0.96862745
vt 0.5921569 0.96862745
vt 0.5921569 0.96862745
vt 0.5921569 0.96862745
vt 0.5921569 0.96862745
vt 0.5921569 0.96862745
vt 0.5921569 0.96862745
vt 0.5921569 0.96862745
vt 0.5921569 0.96862745
vt 0.5921569 0.96862745
vt 0.5921569 0.96862745
vt 0.5921569 0.96862745
vt 0.5921569 0.96862745
vt 0.5921569 0.96862745
vt 0.5921569 0.96862745
vt 0.5921569 0.96862745
vt 0.28627452 0.09411765
vt 0.28627452 0.09411765
vt 0.28627452 0.09411765
vt 0.28627452 0.09411765
vt 0.28627452 0.09411765
vt 0.28627452 0.09411765
vt 0.28627452 0.09411765
vt 0.28627452 0.09411765
vt 0.28627452 0.09411765
vt 0.28627452 0.09411765
vt 0.28627452 0.09411765
vt 0.28627452 0.09411765
vt 0.28627452 0.09411765
vt 0.28627452 0.09411765
vt 0.28627452 0.09411765
vt 0.28627452 0.09411765
vt 0.28627452 0.09411765
vt 0.28627452 0.09411765
vt 0.28627452 0.09411765
vt 0.28627452 0.09411765
vt 0.28627452 0.09411765
vt 0.5921569 0.96862745
vt 0.5921569 0.96862745
vt 0.5921569 0.96862745
vt 0.5921569 0.96862745
vt 0.5921569 0.96862745
vt 0.5921569 0.96862745
vt 0.5921569 0.96862745
vt 0.5921569 0.96862745
vt 0.5921569 0.96862745
vt 0.5921569 0.96862745
vt 0.5921569 0.96862745
vt 0.5921569 0.96862745
vt 0.5921569 0.96862745
vt 0.5921569 0.96862745
vt 0.5921569 0.96862745
vt 0.5921569 0.96862745
vt 0.5921569 0.96862745
vt 0.5921569 0.96862745
vt 0.5921569 0.96862745
vt 0.5921569 0.96862745
vt 0.5921569 0.96862745
vt 0.5921569 0.96862745
vt 0.5921569 0.96862745
vt 0.5921569 0.96862745
vt 0.5921569 0.96862745
vt 0.5921569 0.96862745
vt 0.5921569 0.96862745
vt 0.5921569 0.96862745
vt 0.5921569 0.96862745
vt 0.5921569 0.96862745
vt 0.5921569 0.96862745
vt 0.5921569 0.96862745
vt 0.5921569 0.96862745
vt 0.5921569 0.96862745
vt 0.5921569 0.96862745
vt 0.5921569 0.96862745
vt 0.5921569 0.96862745
vt 0.5921569 0.96862745
vt 0.5921569 0.96862745
vt 0.5921569 0.96862745
vt 0.5921569 0.96862745
vt 0.5921569 0.96862745
vt 0.5921569 0.96862745
vt 0.5921569 0.96862745
vt 0.5921569 0.96862745
vt 0.5921569 0.96862745
vt 0.5921569 0.96862745
vt 0.5921569 0.96862745
vt 0.5921569 0.96862745
vt 0.5921569 0.96862745
vt 0.5921569 0.96862745
vt 0.5921569 0.96862745
vt 0.5921569 0.96862745
vt 0.5921569 0.96862745
vt 0.5921569 0.96862745
vt 0.5921569 0.96862745
vt 0.5921569 0.96862745
vt 0.5921569 0.96862745
vt 0.5921569 0.96862745
vt 0.5921569 0.96862745
vt 0.5921569 0.96862745
vt 0.5921569 0.96862745
vt 0.5921569 0.96862745
vt 0.5921569 0.96862745
vt 0.5921569 0.96862745
vt 0.5921569 0.96862745
vt 0.5921569 0.96862745
vt 0.5921569 0.96862745
vt 0.5921569 0.96862745
vt 0.5921569 0.96862745
vt 0.5921569 0.96862745
vt 0.5921569 0.96862745
vt 0.5921569 0.96862745
vt 0.5921569 0.96862745
vt 0.5921569 0.96862745
vt 0.5921569 0.96862745
vt 0.5921569 0.96862745
vt 0.5921569 0.96862745
vt 0.5921569 0.96862745
vt 0.5921569 0.96862745
vt 0.5921569 0.96862745
vt 0.5921569 0.96862745
vt 0.5921569 0.96862745
vt 0.5921569 0.96862745
vt 0.5921569 0.96862745
vt 0.5921569 0.96862745
vt 0.5921569 0.96862745
vt 0.5921569 0.96862745
vt 0.5921569 0.96862745
vt 0.5921569 0.96862745
vt 0.5921569 0.96862745
vt 0.5921569 0.96862745
vt 0.5921569 0.96862745
vt 0.5921569 0.96862745
vt 0.5921569 0.96862745
vt 0.5921569 0.96862745
vt 0.5921569 0.96862745
vt 0.5921569 0.96862745
vt 0.5921569 0.96862745
vt 0.5921569 0.96862745
vt 0.5921569 0.96862745
vt 0.5921569 0.96862745
vt 0.5921569 0.96862745
vt 0.5921569 0.96862745
vt 0.5921569 0.96862745
vt 0.5921569 0.96862745
vt 0.5921569 0.96862745
vt 0.5921569 0.96862745
vt 0.5921569 0.96862745
vt 0.5921569 0.96862745
vt 0.5921569 0.96862745
vt 0.5921569 0.96862745
vt 0.5921569 0.96862745
vt 0.5921569 0.96862745
vt 0.5921569 0.96862745
vt 0.5921569 0.96862745
vt 0.5921569 0.96862745
vt 0.5921569 0.96862745
vt 0.5921569 0.96862745
vt 0.5921569 0.96862745
vt 0.5921569 0.96862745
vt 0.5921569 0.96862745
vt 0.5921569 0.96862745
vt 0.5921569 0.96862745
vt 0.5921569 0.96862745
vt 0.5921569 0.96862745
vt 0.5921569 0.96862745
vt 0.5921569 0.96862745
vt 0.5921569 0.96862745
vt 0.5921569 0.96862745
vt 0.5921569 0.96862745
vt 0.5921569 0.96862745
vt 0.5921569 0.96862745
vt 0.5921569 0.96862745
vt 0.5921569 0.96862745
vt 0.5921569 0.96862745
vt 0.5921569 0.96862745
vt 0.5921569 0.96862745
vt 0.5921569 0.96862745
vt 0.5921569 0.96862745
vt 0.5921569 0.96862745
vt 0.5921569 0.96862745
vt 0.5921569 0.96862745
vt 0.5921569 0.96862745
vt 0.5921569 0.96862745
vt 0.5921569 0.96862745
vt 0.5921569 0.96862745
vt 0.5921569 0.96862745
vt 0.5921569 0.96862745
vt 0.5921569 0.96862745
vt 0.5921569 0.96862745
vt 0.5921569 0.96862745
vt 0.5921569 0.96862745
vt 0.5921569 0.96862745
vt 0.5921569 0.96862745
vt 0.5921569 0.96862745
vt 0.5921569 0.96862745
vt 0.5921569 0.96862745
vt 0.5921569 0.96862745
vt 0.5921569 0.96862745
vt 0.5921569 0.96862745
vt 0.5921569 0.96862745
vt 0.5921569 0.96862745
vt 0.5921569 0.96862745
vt 0.5921569 0.96862745
vt 0.5921569 0.96862745
vt 0.5921569 0.96862745
vt 0.5921569 0.96862745
vt 0.5921569 0.96862745
vt 0.5921569 0.96862745
vt 0.5921569 0.96862745
vt 0.5921569 0.96862745
vt 0.5921569 0.96862745
vt 0.5921569 0.96862745
vt 0.5921569 0.96862745
vt 0.5921569 0.96862745
vt 0.5921569 0.96862745
vt 0.5921569 0.96862745
vt 0.5921569 0.96862745
vt 0.5921569 0.96862745
vt 0.5921569 0.96862745
vt 0.5921569 0.96862745
vt 0.5921569 0.96862745
vt 0.5921569 0.96862745
vt 0.5921569 0.96862745
vt 0.5921569 0.96862745
vt 0.5921569 0.96862745
vt 0.5921569 0.96862745
vt 0.5921569 0.96862745
vt 0.5921569 0.96862745
vt 0.5921569 0.96862745
vt 0.5921569 0.96862745
vt 0.5921569 0.96862745
vt 0.5921569 0.96862745
vt 0.5921569 0.96862745
vt 0.5921569 0.96862745
vt 0.5921569 0.96862745
vt 0.5921569 0.96862745
vt 0.5921569 0.96862745
vt 0.5921569 0.96862745
vt 0.5921569 0.96862745
vt 0.5921569 0.96862745
vt 0.5921569 0.96862745
vt 0.5921569 0.96862745
vt 0.5921569 0.96862745
vt 0.5921569 0.96862745
vt 0.5921569 0.96862745
vt 0.5921569 0.96862745
vt 0.5921569 0.96862745
vt 0.5921569 0.96862745
vt 0.5921569 0.96862745
vt 0.5921569 0.96862745
vt 0.5921569 0.96862745
vt 0.5921569 0.96862745
vt 0.5921569 0.96862745
vn 0.079369545 0.14282155 -0.98656094
vn 0.079369545 0.14282155 -0.98656094
vn 0.079369545 0.14282155 -0.98656094
vn 0.079369545 0.14282155 -0.98656094
vn 0.079369545 0.11107993 -0.99063706
vn 0.079369545 0.11107993 -0.99063706
vn -0.9899513 0.14140841 -0
vn -0.9899513 0.14140841 -0
vn -0.9899513 0.14140841 -0
vn -0.9899513 0.14140841 -0
vn -0.07933831 -0.14285266 0.9865589
vn -0.07933831 -0.14285266 0.9865589
vn -0.07933831 -0.14285266 0.9865589
vn -0.07933831 -0.14285266 0.9865589
vn -0.07933831 -0.111111104 0.99063605
vn -0.07933831 -0.111111104 0.99063605
vn 0.9899477 -0.1414343 -0
vn 0.9899477 -0.1414343 -0
vn 0.9899477 -0.1414343 -0
vn 0.9899477 -0.1414343 -0
vn -0.8093947 0.5872036 0.0084889345
vn -0.8093947 0.5872036 0.0084889345
vn -0.8093947 0.5872036 0.0084889345
vn -0.8093947 0.5872036 0.0084889345
vn 0.8094199 -0.58723044 -0
vn 0.8094199 -0.58723044 -0
vn 0.8094199 -0.58723044 -0
vn 0.8094199 -0.58723044 -0
vn 0.047627926 0.07933831 -0.9957093
vn 0.047627926 0.07933831 -0.9957093
vn 0.047627926 0.07933831 -0.9957093
vn 0.047627926 0.07933831 -0.9957093
vn 0.015886366 0.07933831 -0.99672115
vn 0.015886366 0.07933831 -0.99672115
vn -0.015855193 0.07933831 -0.9967216
vn -0.015855193 0.07933831 -0.9967216
vn -0.047596812 0.07933831 -0.9957108
vn -0.047596812 0.07933831 -0.9957108
vn -0.39675415 0.90461946 0.15572345
vn -0.39675415 0.90461946 0.15572345
vn -0.39675415 0.90461946 0.15572345
vn -0.39675415 0.90461946 0.15572345
vn -0.047596812 -0.079369545 0.9957083
vn -0.047596812 -0.079369545 0.9957083
vn -0.047596812 -0.079369545 0.9957083
vn -0.047596812 -0.079369545 0.9957083
vn -0.015855193 -0.079369545 0.9967192
vn -0.015855193 -0.079369545 0.9967192
vn 0.015886366 -0.079369545 0.9967187
vn 0.015886366 -0.079369545 0.9967187
vn 0.047627926 -0.079369545 0.9957068
vn 0.047627926 -0.079369545 0.9957068
vn 0.39678532 -0.90465057 -0.15546314
vn 0.39678532 -0.90465057 -0.15546314
vn 0.39678532 -0.90465057 -0.15546314
vn 0.39678532 -0.90465057 -0.15546314
vn -0.11041791 0.9938853 -0
vn -0.11041791 0.9938853 -0
vn -0.11041791 0.9938853 -0
vn -0.11041791 0.9938853 -0
vn 0.11044512 -0.99388224 -0
vn 0.11044512 -0.99388224 -0
vn 0.11044512 -0.99388224 -0
vn 0.11044512 -0.99388224 -0
vn 0.11044851 0.9938818 -0
vn 0.11044851 0.9938818 -0
vn 0.11044851 0.9938818 -0
vn 0.11044851 0.9938818 -0
vn -0.11041452 -0.9938857 -0
vn -0.11041452 -0.9938857 -0
vn -0.11041452 -0.9938857 -0
vn -0.11041452 -0.9938857 -0
vn 0.39678532 0.90461946 0.155644
vn 0.39678532 0.90461946 0.155644
vn 0.39678532 0.90461946 0.155644
vn 0.39678532 0.90461946 0.155644
vn -0.39675415 -0.90465057 -0.15554269
vn -0.39675415 -0.90465057 -0.15554269
vn -0.39675415 -0.90465057 -0.15554269
vn -0.39675415 -0.90465057 -0.15554269
vn -0.07933831 0.11107993 -0.99063957
vn -0.07933831 0.11107993 -0.99063957
vn -0.07933831 0.11107993 -0.99063957
vn -0.07933831 0.11107993 -0.99063957
vn -0.07933831 0.14282155 -0.98656344
vn -0.07933831 0.14282155 -0.98656344
vn 0.80942583 0.5872036 -0.0046579065
vn 0.80942583 0.5872036 -0.0046579065
vn 0.80942583 0.5872036 -0.0046579065
vn 0.80942583 0.5872036 -0.0046579065
vn 0.079369545 -0.111111104 0.99063355
vn 0.079369545 -0.111111104 0.99063355
vn 0.079369545 -0.111111104 0.99063355
vn 0.079369545 -0.111111104 0.99063355
vn 0.079369545 -0.14285266 0.9865564
vn 0.079369545 -0.14285266 0.9865564
vn -0.8093947 -0.5872348 -0.00595523
vn -0.8093947 -0.5872348 -0.00595523
vn -0.8093947 -0.5872348 -0.00595523
vn -0.8093947 -0.5872348 -0.00595523
vn 0.98995197 0.1414041 -0
vn 0.98995197 0.1414041 -0
vn 0.98995197 0.1414041 -0
vn 0.98995197 0.1414041 -0
vn -0.9899471 -0.14143862 -0
vn -0.9899471 -0.14143862 -0
vn -0.9899471 -0.14143862 -0
vn -0.9899471 -0.14143862 -0
vn -0.9681026 0.17456305 0.17973632
vn -0.9681026 0.17456305 0.17973632
vn -0.9681026 0.17456305 0.17973632
vn -0.9681026 0.17456305 0.17973632
vn 0.17459428 0.17456305 0.9690431
vn 0.17459428 0.17456305 0.9690431
vn 0.17459428 0.17456305 0.9690431
vn 0.17459428 0.17456305 0.9690431
vn 0.96813375 -0.17459428 -0.17953789
vn 0.96813375 -0.17459428 -0.17953789
vn 0.96813375 -0.17459428 -0.17953789
vn 0.96813375 -0.17459428 -0.17953789
vn -0.17456305 -0.17459428 -0.9690431
vn -0.17456305 -0.17459428 -0.9690431
vn -0.17456305 -0.17459428 -0.9690431
vn -0.17456305 -0.17459428 -0.9690431
vn -0.7776531 0.61894524 0.11028362
vn -0.7776531 0.61894524 0.11028362
vn -0.7776531 0.61894524 0.11028362
vn -0.7776531 0.61894524 0.11028362
vn 0.14285266 0.07933831 0.9865589
vn 0.14285266 0.07933831 0.9865589
vn 0.14285266 0.07933831 0.9865589
vn 0.14285266 0.07933831 0.9865589
vn 0.7776843 -0.61897635 -0.10988837
vn 0.7776843 -0.61897635 -0.10988837
vn 0.7776843 -0.61897635 -0.10988837
vn 0.7776843 -0.61897635 -0.10988837
vn -0.14282155 -0.079369545 -0.98656094
vn -0.14282155 -0.079369545 -0.98656094
vn -0.14282155 -0.079369545 -0.98656094
vn -0.14282155 -0.079369545 -0.98656094
vn -0.39675415 0.90461946 0.15572345
vn -0.39675415 0.90461946 0.15572345
vn -0.39675415 0.90461946 0.15572345
vn -0.39675415 0.90461946 0.15572345
vn 0.079369545 0.015855193 0.9967192
vn 0.079369545 0.015855193 0.9967192
vn 0.079369545 0.015855193 0.9967192
vn 0.079369545 0.015855193 0.9967192
vn 0.39678532 -0.90465057 -0.15546314
vn 0.39678532 -0.90465057 -0.15546314
vn 0.39678532 -0.90465057 -0.15546314
vn 0.39678532 -0.90465057 -0.15546314
vn -0.07933831 -0.015886366 -0.99672115
vn -0.07933831 -0.015886366 -0.99672115
vn -0.07933831 -0.015886366 -0.99672115
vn -0.07933831 -0.015886366 -0.99672115
vn -0.11041791 0.9938853 -0
vn -0.11041791 0.9938853 -0
vn -0.11041791 0.9938853 -0
vn -0.11041791 0.9938853 -0
vn 0.015886366 0.015855193 0.99974805
vn 0.015886366 0.015855193 0.99974805
vn 0.015886366 0.015855193 0.99974805
vn 0.015886366 0.015855193 0.99974805
vn -0.015855193 0.015855193 0.9997485
vn -0.015855193 0.015855193 0.9997485
vn 0.07913053 -0.99686426 -0
vn 0.07913053 -0.99686426 -0
vn 0.07913053 -0.99686426 -0
vn 0.07913053 -0.99686426 -0
vn -0.015855193 -0.015886366 -0.99974805
vn -0.015855193 -0.015886366 -0.99974805
vn -0.015855193 -0.015886366 -0.99974805
vn -0.015855193 -0.015886366 -0.99974805
vn 0.015886366 -0.015886366 -0.9997476
vn 0.015886366 -0.015886366 -0.9997476
vn 0.11044851 0.9938818 -0
vn 0.11044851 0.9938818 -0
vn 0.11044851 0.9938818 -0
vn 0.11044851 0.9938818 -0
vn -0.07909959 -0.9968667 -0
vn -0.07909959 -0.9968667 -0
vn -0.07909959 -0.9968667 -0
vn -0.07909959 -0.9968667 -0
vn 0.39678532 0.90461946 0.155644
vn 0.39678532 0.90461946 0.155644
vn 0.39678532 0.90461946 0.155644
vn 0.39678532 0.90461946 0.155644
vn -0.07933831 0.015855193 0.9967216
vn -0.07933831 0.015855193 0.9967216
vn -0.07933831 0.015855193 0.9967216
vn -0.07933831 0.015855193 0.9967216
vn -0.39675415 -0.90465057 -0.15554269
vn -0.39675415 -0.90465057 -0.15554269
vn -0.39675415 -0.90465057 -0.15554269
vn -0.39675415 -0.90465057 -0.15554269
vn 0.079369545 -0.015886366 -0.9967187
vn 0.079369545 -0.015886366 -0.9967187
vn 0.079369545 -0.015886366 -0.9967187
vn 0.079369545 -0.015886366 -0.9967187
vn 0.7776843 0.61894524 0.110063426
vn 0.7776843 0.61894524 0.110063426
vn 0.7776843 0.61894524 0.110063426
vn 0.7776843 0.61894524 0.110063426
vn -0.14282155 0.07933831 0.98656344
vn -0.14282155 0.07933831 0.98656344
vn -0.14282155 0.07933831 0.98656344
vn -0.14282155 0.07933831 0.98656344
vn -0.7776531 -0.61897635 -0.11010891
vn -0.7776531 -0.61897635 -0.11010891
vn -0.7776531 -0.61897635 -0.11010891
vn -0.7776531 -0.61897635 -0.11010891
vn 0.14285266 -0.079369545 -0.9865564
vn 0.14285266 -0.079369545 -0.9865564
vn 0.14285266 -0.079369545 -0.9865564
vn 0.14285266 -0.079369545 -0.9865564
vn 0.96813375 0.17456305 0.17956828
vn 0.96813375 0.17456305 0.17956828
vn 0.96813375 0.17456305 0.17956828
vn 0.96813375 0.17456305 0.17956828
vn -0.17456305 0.17456305 0.96904874
vn -0.17456305 0.17456305 0.96904874
vn -0.17456305 0.17456305 0.96904874
vn -0.17456305 0.17456305 0.96904874
vn -0.9681026 -0.17459428 -0.17970598
vn -0.9681026 -0.17459428 -0.17970598
vn -0.9681026 -0.17459428 -0.17970598
vn -0.9681026 -0.17459428 -0.17970598
vn 0.17459428 -0.17459428 -0.9690375
vn 0.17459428 -0.17459428 -0.9690375
vn 0.17459428 -0.17459428 -0.9690375
vn 0.17459428 -0.17459428 -0.9690375
vn -0.015855193 0.9998442 -0.0077589103
vn -0.68242836 0.71417 -0.15573302
vn -0.7071067 0.7071067 -0
vn -0.7459115 0.61894524 -0.246014
vn -0.71417 0.68242836 0.15573311
vn -0.46023726 0.68242836 -0.5678672
vn -0.68242836 0.71417 0.15573302
vn -0.07933831 0.71417 -0.6954615
vn -0.42849576 0.68242836 0.59218484
vn 0.015886366 0.7459115 -0.66585565
vn -0.11107993 0.71417 0.6911024
vn 0.111111104 0.71417 -0.6910974
vn -0.015855193 0.7459115 0.66585636
vn 0.42852688 0.68242836 -0.5921624
vn 0.111111104 0.71417 0.6910974
vn 0.7142011 0.65068674 -0.2579216
vn 0.4602685 0.68242836 0.56784195
vn 0.7142011 0.68242836 -0.15559028
vn 0.7459427 0.61894524 0.24591924
vn 0.68245953 0.71417 0.15559632
vn 0.7071222 0.7070914 -0
vn -0.68242836 0.71417 0.15573302
vn -0.42849576 0.68242836 0.59218484
vn -0.33327103 0.8093947 0.48353967
vn -0.11107993 0.71417 0.6911024
vn -0.61894524 0.7776531 0.11028349
vn -0.71417 0.68242836 0.15573311
vn -0.07933831 0.7459115 0.6613029
vn -0.015855193 0.7459115 0.66585636
vn -0.7071067 0.7071067 -0
vn -0.68242836 0.71417 -0.15573302
vn -0.7071067 0.7071067 -0
vn -0.7071067 0.7071067 -0
vn 0.047581397 0.99886745 -0
vn 0.015886366 0.9998442 -0.0076972083
vn 0.047581397 0.99886745 -0
vn -0.015855193 0.71417 0.69979274
vn 0.015886366 0.9998442 -0.0076972083
vn 0.079369545 0.7459115 0.66129917
vn 0.111111104 0.71417 0.6910974
vn 0.33330214 0.8093947 0.4835182
vn 0.4602685 0.68242836 0.56784195
vn 0.7459427 0.61894524 0.24591924
vn -0.015855193 0.9998442 -0.0077589103
vn 0.61897635 0.7776531 0.11010878
vn 0.7071222 0.7070914 -0
vn -0.015855193 0.9998442 -0.0077589103
vn -0.04755038 0.9988689 -0
vn 0.7071222 0.7070914 -0
vn 0.68245953 0.71417 0.15559632
vn -0.14282155 0.5237205 -0.8398326
vn -0.04755038 0.9988689 -0
vn 0.7071222 0.7070914 -0
vn 0.7142011 0.68242836 -0.15559028
vn -0.46023726 0.5237205 -0.71686715
vn -0.015855193 0.9998442 -0.0077589103
vn -0.71417 0.61894524 -0.3269068
vn -0.015855193 0.5237205 -0.85174257
vn 0.14285266 0.5237205 -0.8398273
vn 0.4602685 0.5237205 -0.7168471
vn 0.7142011 0.61894524 -0.3268388
vn 0.73782015 0.6749974 -0
vn -0.015855193 -0.96813375 -0.2499312
vn 0.047627926 -0.9363921 -0.3477087
vn 0.30156058 -0.872909 -0.38352448
vn 0.4602685 -0.872909 -0.1618109
vn 0.42809305 -0.90373474 -0
vn -0.047596812 -0.9363921 -0.347713
vn 0.7142011 0.68242836 -0.15559028
vn 0.39015654 -0.92074853 -0
vn 0.015886366 0.9998442 -0.0076972083
vn -0.047596812 -0.84116745 0.538676
vn -0.23804629 -0.872909 0.4258683
vn -0.39675415 -0.90465057 0.15554269
vn -0.39675415 -0.90465057 0.15554269
vn -0.39675415 -0.90465057 -0.15554269
vn -0.015855193 -0.84116745 0.54054224
vn 0.015886366 0.9998442 0.0076972083
vn -0.7071067 0.7071067 -0
vn -0.61894524 0.7776531 -0.11028349
vn -0.7459115 0.61894524 -0.246014
vn 0.73782015 0.6749974 -0
vn 0.047581397 0.99886745 -0
vn -0.33327103 0.8093947 -0.48353967
vn -0.46023726 0.68242836 -0.5678672
vn -0.07933831 0.71417 -0.6954615
vn 0.047581397 0.99886745 -0
vn 0.7142011 0.61894524 0.3268388
vn 0.42809305 -0.90373474 -0
vn -0.07933831 0.7459115 -0.6613029
vn 0.4602685 0.5237205 0.7168471
vn 0.4602685 -0.872909 0.1618109
vn -0.39675415 -0.90465057 -0.15554269
vn 0.30156058 -0.872909 0.38352448
vn 0.14285266 0.5237205 0.8398273
vn -0.39675415 -0.90465057 -0.15554269
vn -0.015855193 0.71417 -0.69979274
vn 0.015886366 0.7459115 -0.66585565
vn 0.015886366 0.9998442 0.0076972083
vn -0.015855193 0.9998442 0.0077589103
vn 0.079369545 0.7459115 -0.66129917
vn 0.111111104 0.71417 -0.6910974
vn -0.23804629 -0.872909 -0.4258683
vn -0.015855193 0.9998442 0.0077589103
vn 0.33330214 0.8093947 -0.4835182
vn 0.42852688 0.68242836 -0.5921624
vn 0.7142011 0.65068674 -0.2579216
vn -0.04755038 0.9988689 -0
vn 0.61897635 0.7776531 -0.11010878
vn -0.04755038 0.9988689 -0
vn 0.7071222 0.7070914 -0
vn -0.015855193 0.9998442 0.0077589103
vn -0.015855193 0.9998442 -0.0077589103
vn -0.7378061 0.67501277 -0
vn -0.71417 0.68242836 -0.15573311
vn -0.7378061 0.67501277 -0
vn -0.71417 0.61894524 0.3269068
vn -0.42806762 -0.90374666 -0
vn -0.39013055 -0.92075956 -0
vn -0.46023726 0.5237205 0.71686715
vn -0.42806762 -0.90374666 -0
vn -0.46023726 -0.872909 -0.16189966
vn -0.14282155 0.5237205 0.8398326
vn -0.46023726 -0.872909 0.16189966
vn -0.3015294 -0.872909 -0.38354903
vn 0.047627926 -0.84116745 0.5386733
vn 0.2380774 -0.872909 0.4258509
vn 0.39678532 -0.90465057 0.15546314
vn -0.015855193 0.5237205 0.85174257
vn 0.39678532 -0.90465057 0.15546314
vn 0.047627926 -0.9363921 0.3477087
vn 0.39678532 -0.90465057 -0.15546314
vn -0.047596812 -0.84116745 -0.538676
vn 0.39678532 -0.90465057 -0.15546314
vn -0.047596812 -0.9363921 0.347713
vn -0.015855193 -0.96813375 0.2499312
vn -0.015855193 -0.84116745 -0.54054224
vn -0.3015294 -0.872909 0.38354903
vn 0.047627926 -0.84116745 -0.5386733
vn 0.39678532 -0.90465057 -0.15546314
vn 0.2380774 -0.872909 -0.4258509
vn -0.49099454 -0.87116253 -0
vn -0.49099454 -0.87116253 -0
vn -0.42806762 -0.90374666 -0
vn -0.23804629 -0.90465057 0.35347044
vn -0.047596812 -0.9363921 0.347713
vn -0.49099454 -0.87116253 -0
vn -0.015855193 -0.9363921 0.35059717
vn -0.42806762 -0.90374666 -0
vn 0.047627926 -0.9363921 0.3477087
vn -0.23804629 -0.90465057 -0.35347044
vn 0.2380774 -0.90465057 0.35344943
vn -0.047596812 -0.9363921 -0.347713
vn 0.42809305 -0.90373474 -0
vn -0.015855193 -0.9363921 -0.35059717
vn 0.49101818 -0.87114924 -0
vn 0.047627926 -0.9363921 -0.3477087
vn 0.49101818 -0.87114924 -0
vn 0.2380774 -0.90465057 -0.35344943
vn 0.49101818 -0.87114924 -0
vn 0.42809305 -0.90373474 -0
vn 0.872909 -0.2380774 0.4258509
vn 0.96328837 -0.26846862 -0
vn 0.96328837 -0.26846862 -0
vn 0.96328837 -0.26846862 -0
vn 0.872909 -0.2380774 -0.4258509
vn 0.55549324 -0.2380774 -0.7967097
vn 0.99686426 -0.07913053 -0
vn 0.99686426 -0.07913053 -0
vn 0.84116745 -0.5237516 -0.13461637
vn 0.90465057 -0.111111104 -0.41141427
vn 0.14285266 -0.26981902 -0.9522556
vn 0.99686426 -0.07913053 -0
vn 0.5237516 -0.14285266 -0.8398079
vn -0.015855193 -0.36504376 -0.93085533
vn 0.7459427 -0.49201006 -0.4488826
vn 0.14285266 -0.14285266 -0.9793805
vn 0.84116745 -0.5237516 -0.13461637
vn -0.14282155 -0.26981902 -0.9522603
vn 0.49201006 -0.33330214 -0.804261
vn 0.17459428 -0.49201006 -0.85290265
vn -0.015855193 -0.17459428 -0.98451275
vn 0.26981902 -0.872909 -0.4064819
vn -0.14282155 -0.14285266 -0.9793851
vn -0.555462 -0.2380774 -0.7967315
vn 0.015886366 -0.49201006 -0.87044454
vn -0.5237205 -0.14285266 -0.8398273
vn -0.87287784 -0.2380774 -0.42591476
vn -0.17456305 -0.49201006 -0.852909
vn -0.9632861 -0.26847664 -0
vn -0.90461946 -0.111111104 -0.41148263
vn -0.49197888 -0.33330214 -0.8042801
vn -0.7459115 -0.49201006 -0.44893453
vn -0.8411362 -0.5237516 -0.1348115
vn -0.2697878 -0.872909 -0.40650263
vn -0.9632861 -0.26847664 -0
vn -0.996864 -0.079132974 -0
vn -0.015855193 -0.90465057 -0.42585906
vn -0.9632861 -0.26847664 -0
vn -0.996864 -0.079132974 -0
vn -0.87287784 -0.2380774 0.42591476
vn -0.996864 -0.079132974 -0
vn -0.555462 -0.2380774 0.7967315
vn -0.33327103 -0.9363921 -0.110001
vn -0.8411362 -0.5237516 -0.1348115
vn -0.90461946 -0.111111104 0.41148263
vn -0.14282155 -0.26981902 0.9522603
vn -0.3015294 -0.9363921 -0.17958231
vn -0.8411362 -0.5237516 0.1348115
vn -0.5237205 -0.14285266 0.8398273
vn -0.015855193 -0.36504376 0.93085533
vn -0.33327103 -0.9363921 0.110001
vn -0.7459115 -0.49201006 0.44893453
vn -0.14282155 -0.14285266 0.9793851
vn 0.14285266 -0.26981902 0.9522556
vn -0.2697878 -0.872909 0.40650263
vn -0.49197888 -0.33330214 0.8042801
vn -0.17456305 -0.49201006 0.852909
vn -0.015855193 -0.17459428 0.98451275
vn 0.55549324 -0.2380774 0.7967097
vn -0.015855193 -0.49201006 0.87044513
vn 0.14285266 -0.14285266 0.9793805
vn 0.90465057 -0.111111104 0.41141427
vn -0.015855193 -0.90465057 0.42585906
vn 0.17459428 -0.49201006 0.85290265
vn 0.5237516 -0.14285266 0.8398079
vn 0.84116745 -0.5237516 0.13461637
vn -0.015855178 -0.99987435 -0
vn 0.49201006 -0.33330214 0.804261
vn 0.7459427 -0.49201006 0.4488826
vn 0.26981902 -0.872909 0.4064819
vn 0.33330214 -0.9363921 0.10990667
vn -0.015855178 -0.99987435 -0
vn 0.30156058 -0.9363921 -0.17952986
vn -0.015855178 -0.99987435 -0
vn 0.33330214 -0.9363921 -0.10990667
g packagingBasket_0
f 3/3/3 2/2/2 1/1/1
f 4/4/4 3/3/3 1/1/1
f 5/5/5 3/3/3 4/4/4
f 6/6/6 5/5/5 4/4/4
f 9/9/9 8/8/8 7/7/7
f 10/10/10 9/9/9 7/7/7
f 13/13/13 12/12/12 11/11/11
f 14/14/14 13/13/13 11/11/11
f 15/15/15 13/13/13 14/14/14
f 16/16/16 15/15/15 14/14/14
f 19/19/19 18/18/18 17/17/17
f 20/20/20 19/19/19 17/17/17
f 23/23/23 22/22/22 21/21/21
f 24/24/24 23/23/23 21/21/21
f 27/27/27 26/26/26 25/25/25
f 28/28/28 27/27/27 25/25/25
f 31/31/31 30/30/30 29/29/29
f 32/32/32 31/31/31 29/29/29
f 33/33/33 31/31/31 32/32/32
f 34/34/34 33/33/33 32/32/32
f 35/35/35 33/33/33 34/34/34
f 36/36/36 35/35/35 34/34/34
f 37/37/37 35/35/35 36/36/36
f 38/38/38 37/37/37 36/36/36
f 41/41/41 40/40/40 39/39/39
f 42/42/42 41/41/41 39/39/39
f 45/45/45 44/44/44 43/43/43
f 46/46/46 45/45/45 43/43/43
f 47/47/47 45/45/45 46/46/46
f 48/48/48 47/47/47 46/46/46
f 49/49/49 47/47/47 48/48/48
f 50/50/50 49/49/49 48/48/48
f 51/51/51 49/49/49 50/50/50
f 52/52/52 51/51/51 50/50/50
f 55/55/55 54/54/54 53/53/53
f 56/56/56 55/55/55 53/53/53
f 59/59/59 58/58/58 57/57/57
f 60/60/60 59/59/59 57/57/57
f 63/63/63 62/62/62 61/61/61
f 64/64/64 63/63/63 61/61/61
f 67/67/67 66/66/66 65/65/65
f 68/68/68 67/67/67 65/65/65
f 71/71/71 70/70/70 69/69/69
f 72/72/72 71/71/71 69/69/69
f 75/75/75 74/74/74 73/73/73
f 76/76/76 75/75/75 73/73/73
f 79/79/79 78/78/78 77/77/77
f 80/80/80 79/79/79 77/77/77
f 83/83/83 82/82/82 81/81/81
f 84/84/84 83/83/83 81/81/81
f 85/85/85 83/83/83 84/84/84
f 86/86/86 85/85/85 84/84/84
f 89/89/89 88/88/88 87/87/87
f 90/90/90 89/89/89 87/87/87
f 93/93/93 92/92/92 91/91/91
f 94/94/94 93/93/93 91/91/91
f 95/95/95 93/93/93 94/94/94
f 96/96/96 95/95/95 94/94/94
f 99/99/99 98/98/98 97/97/97
f 100/100/100 99/99/99 97/97/97
f 103/103/103 102/102/102 101/101/101
f 104/104/104 103/103/103 101/101/101
f 107/107/107 106/106/106 105/105/105
f 108/108/108 107/107/107 105/105/105
f 111/111/111 110/110/110 109/109/109
f 112/112/112 111/111/111 109/109/109
f 115/115/115 114/114/114 113/113/113
f 116/116/116 115/115/115 113/113/113
f 119/119/119 118/118/118 117/117/117
f 120/120/120 119/119/119 117/117/117
f 123/123/123 122/122/122 121/121/121
f 124/124/124 123/123/123 121/121/121
f 127/127/127 126/126/126 125/125/125
f 128/128/128 127/127/127 125/125/125
f 131/131/131 130/130/130 129/129/129
f 132/132/132 131/131/131 129/129/129
f 135/135/135 134/134/134 133/133/133
f 136/136/136 135/135/135 133/133/133
f 139/139/139 138/138/138 137/137/137
f 140/140/140 139/139/139 137/137/137
f 143/143/143 142/142/142 141/141/141
f 144/144/144 143/143/143 141/141/141
f 147/147/147 146/146/146 145/145/145
f 148/148/148 147/147/147 145/145/145
f 151/151/151 150/150/150 149/149/149
f 152/152/152 151/151/151 149/149/149
f 155/155/155 154/154/154 153/153/153
f 156/156/156 155/155/155 153/153/153
f 159/159/159 158/158/158 157/157/157
f 160/160/160 159/159/159 157/157/157
f 163/163/163 162/162/162 161/161/161
f 164/164/164 163/163/163 161/161/161
f 165/165/165 163/163/163 164/164/164
f 166/166/166 165/165/165 164/164/164
f 169/169/169 168/168/168 167/167/167
f 170/170/170 169/169/169 167/167/167
f 173/173/173 172/172/172 171/171/171
f 174/174/174 173/173/173 171/171/171
f 175/175/175 173/173/173 174/174/174
f 176/176/176 175/175/175 174/174/174
f 179/179/179 178/178/178 177/177/177
f 180/180/180 179/179/179 177/177/177
f 183/183/183 182/182/182 181/181/181
f 184/184/184 183/183/183 181/181/181
f 187/187/187 186/186/186 185/185/185
f 188/188/188 187/187/187 185/185/185
f 191/191/191 190/190/190 189/189/189
f 192/192/192 191/191/191 189/189/189
f 195/195/195 194/194/194 193/193/193
f 196/196/196 195/195/195 193/193/193
f 199/199/199 198/198/198 197/197/197
f 200/200/200 199/199/199 197/197/197
f 203/203/203 202/202/202 201/201/201
f 204/204/204 203/203/203 201/201/201
f 207/207/207 206/206/206 205/205/205
f 208/208/208 207/207/207 205/205/205
f 211/211/211 210/210/210 209/209/209
f 212/212/212 211/211/211 209/209/209
f 215/215/215 214/214/214 213/213/213
f 216/216/216 215/215/215 213/213/213
f 219/219/219 218/218/218 217/217/217
f 220/220/220 219/219/219 217/217/217
f 223/223/223 222/222/222 221/221/221
f 224/224/224 223/223/223 221/221/221
f 227/227/227 226/226/226 225/225/225
f 228/228/228 227/227/227 225/225/225
f 231/231/231 230/230/230 229/229/229
f 232/232/232 231/231/231 229/229/229
f 235/235/235 234/234/234 233/233/233
f 236/236/236 235/235/235 233/233/233
f 234/234/234 237/237/237 233/233/233
f 238/238/238 236/236/236 233/233/233
f 237/237/237 239/239/239 233/233/233
f 240/240/240 238/238/238 233/233/233
f 239/239/239 241/241/241 233/233/233
f 240/240/240 233/233/233 242/242/242
f 241/241/241 243/243/243 233/233/233
f 244/244/244 242/242/242 233/233/233
f 243/243/243 245/245/245 233/233/233
f 246/246/246 244/244/244 233/233/233
f 247/247/247 233/233/233 245/245/245
f 248/248/248 246/246/246 233/233/233
f 247/247/247 249/249/249 233/233/233
f 250/250/250 248/248/248 233/233/233
f 249/249/249 251/251/251 233/233/233
f 252/252/252 250/250/250 233/233/233
f 251/251/251 253/253/253 233/233/233
f 253/253/253 252/252/252 233/233/233
f 256/256/256 255/255/255 254/254/254
f 257/257/257 255/255/255 256/256/256
f 258/258/258 256/256/256 254/254/254
f 258/258/258 254/254/254 259/259/259
f 260/260/260 257/257/257 256/256/256
f 261/261/261 257/257/257 260/260/260
f 262/262/262 258/258/258 259/259/259
f 262/262/262 259/259/259 263/263/263
f 264/264/264 262/262/262 263/263/263
f 264/264/264 263/263/263 265/265/265
f 266/266/266 256/256/256 258/258/258
f 260/260/260 256/256/256 266/266/266
f 262/262/262 267/267/267 258/258/258
f 267/267/267 262/262/262 264/264/264
f 268/268/268 266/266/266 258/258/258
f 267/267/267 268/268/268 258/258/258
f 269/269/269 261/261/261 260/260/260
f 270/270/270 260/260/260 266/266/266
f 269/269/269 260/260/260 270/270/270
f 261/261/261 269/269/269 271/271/271
f 272/272/272 261/261/261 271/271/271
f 272/272/272 271/271/271 273/273/273
f 274/274/274 272/272/272 273/273/273
f 274/274/274 273/273/273 275/275/275
f 271/271/271 269/269/269 276/276/276
f 273/273/273 271/271/271 276/276/276
f 273/273/273 277/277/277 275/275/275
f 275/275/275 277/277/277 278/278/278
f 279/279/279 269/269/269 270/270/270
f 269/269/269 279/279/279 276/276/276
f 280/280/280 273/273/273 276/276/276
f 273/273/273 280/280/280 277/277/277
f 277/277/277 281/281/281 278/278/278
f 278/278/278 281/281/281 282/282/282
f 283/283/283 276/276/276 279/279/279
f 276/276/276 283/283/283 280/280/280
f 280/280/280 284/284/284 277/277/277
f 277/277/277 284/284/284 281/281/281
f 281/281/281 285/285/285 282/282/282
f 282/282/282 285/285/285 286/286/286
f 283/283/283 287/287/287 280/280/280
f 280/280/280 287/287/287 284/284/284
f 284/284/284 288/288/288 281/281/281
f 281/281/281 288/288/288 285/285/285
f 287/287/287 289/289/289 284/284/284
f 284/284/284 289/289/289 288/288/288
f 290/290/290 283/283/283 279/279/279
f 291/291/291 290/290/290 279/279/279
f 270/270/270 291/291/291 279/279/279
f 292/292/292 291/291/291 270/270/270
f 266/266/266 292/292/292 270/270/270
f 293/293/293 292/292/292 266/266/266
f 268/268/268 293/293/293 266/266/266
f 294/294/294 293/293/293 268/268/268
f 267/267/267 294/294/294 268/268/268
f 283/283/283 290/290/290 295/295/295
f 290/290/290 291/291/291 296/296/296
f 295/295/295 290/290/290 296/296/296
f 291/291/291 292/292/292 297/297/297
f 296/296/296 291/291/291 297/297/297
f 293/293/293 298/298/298 292/292/292
f 298/298/298 297/297/297 292/292/292
f 294/294/294 299/299/299 293/293/293
f 299/299/299 298/298/298 293/293/293
f 300/300/300 283/283/283 295/295/295
f 287/287/287 283/283/283 300/300/300
f 301/301/301 294/294/294 267/267/267
f 299/299/299 294/294/294 302/302/302
f 294/294/294 301/301/301 302/302/302
f 303/303/303 301/301/301 267/267/267
f 303/303/303 267/267/267 264/264/264
f 296/296/296 304/304/304 295/295/295
f 297/297/297 305/305/305 296/296/296
f 305/305/305 304/304/304 296/296/296
f 298/298/298 306/306/306 297/297/297
f 306/306/306 305/305/305 297/297/297
f 299/299/299 307/307/307 298/298/298
f 307/307/307 306/306/306 298/298/298
f 302/302/302 308/308/308 299/299/299
f 308/308/308 307/307/307 299/299/299
f 304/304/304 309/309/309 295/295/295
f 295/295/295 309/309/309 300/300/300
f 310/310/310 303/303/303 264/264/264
f 311/311/311 310/310/310 264/264/264
f 311/311/311 264/264/264 265/265/265
f 311/311/311 265/265/265 312/312/312
f 265/265/265 313/313/313 312/312/312
f 310/310/310 314/314/314 303/303/303
f 314/314/314 301/301/301 303/303/303
f 310/310/310 311/311/311 315/315/315
f 311/311/311 312/312/312 315/315/315
f 312/312/312 313/313/313 316/316/316
f 313/313/313 317/317/317 316/316/316
f 316/316/316 317/317/317 318/318/318
f 312/312/312 316/316/316 319/319/319
f 315/315/315 312/312/312 319/319/319
f 315/315/315 320/320/320 310/310/310
f 320/320/320 314/314/314 310/310/310
f 301/301/301 314/314/314 321/321/321
f 302/302/302 301/301/301 321/321/321
f 322/322/322 316/316/316 318/318/318
f 319/319/319 316/316/316 322/322/322
f 323/323/323 320/320/320 315/315/315
f 319/319/319 323/323/323 315/315/315
f 314/314/314 320/320/320 324/324/324
f 321/321/321 314/314/314 324/324/324
f 321/321/321 325/325/325 302/302/302
f 325/325/325 308/308/308 302/302/302
f 320/320/320 323/323/323 326/326/326
f 324/324/324 320/320/320 326/326/326
f 327/327/327 323/323/323 319/319/319
f 326/326/326 323/323/323 327/327/327
f 324/324/324 328/328/328 321/321/321
f 328/328/328 325/325/325 321/321/321
f 322/322/322 318/318/318 329/329/329
f 318/318/318 330/330/330 329/329/329
f 331/331/331 319/319/319 322/322/322
f 331/331/331 327/327/327 319/319/319
f 332/332/332 331/331/331 322/322/322
f 329/329/329 332/332/332 322/322/322
f 327/327/327 331/331/331 332/332/332
f 333/333/333 329/329/329 330/330/330
f 334/334/334 333/333/333 330/330/330
f 326/326/326 335/335/335 324/324/324
f 335/335/335 328/328/328 324/324/324
f 336/336/336 332/332/332 329/329/329
f 333/333/333 336/336/336 329/329/329
f 337/337/337 333/333/333 334/334/334
f 338/338/338 337/337/337 334/334/334
f 338/338/338 339/339/339 337/337/337
f 340/340/340 336/336/336 333/333/333
f 337/337/337 340/340/340 333/333/333
f 339/339/339 341/341/341 337/337/337
f 339/339/339 286/286/286 341/341/341
f 337/337/337 341/341/341 342/342/342
f 340/340/340 337/337/337 342/342/342
f 286/286/286 343/343/343 341/341/341
f 341/341/341 343/343/343 342/342/342
f 285/285/285 343/343/343 286/286/286
f 343/343/343 285/285/285 344/344/344
f 343/343/343 344/344/344 342/342/342
f 285/285/285 345/345/345 344/344/344
f 288/288/288 345/345/345 285/285/285
f 288/288/288 346/346/346 345/345/345
f 289/289/289 346/346/346 288/288/288
f 345/345/345 347/347/347 344/344/344
f 346/346/346 347/347/347 345/345/345
f 344/344/344 348/348/348 342/342/342
f 347/347/347 348/348/348 344/344/344
f 342/342/342 349/349/349 340/340/340
f 348/348/348 349/349/349 342/342/342
f 350/350/350 346/346/346 289/289/289
f 347/347/347 346/346/346 350/350/350
f 348/348/348 347/347/347 351/351/351
f 351/351/351 347/347/347 350/350/350
f 349/349/349 352/352/352 340/340/340
f 340/340/340 352/352/352 336/336/336
f 349/349/349 348/348/348 353/353/353
f 353/353/353 348/348/348 351/351/351
f 354/354/354 350/350/350 289/289/289
f 354/354/354 289/289/289 287/287/287
f 352/352/352 355/355/355 336/336/336
f 336/336/336 355/355/355 332/332/332
f 352/352/352 349/349/349 356/356/356
f 356/356/356 349/349/349 353/353/353
f 357/357/357 354/354/354 287/287/287
f 357/357/357 287/287/287 300/300/300
f 300/300/300 358/358/358 357/357/357
f 309/309/309 358/358/358 300/300/300
f 357/357/357 359/359/359 354/354/354
f 358/358/358 359/359/359 357/357/357
f 354/354/354 360/360/360 350/350/350
f 359/359/359 360/360/360 354/354/354
f 355/355/355 361/361/361 332/332/332
f 361/361/361 327/327/327 332/332/332
f 360/360/360 362/362/362 350/350/350
f 350/350/350 362/362/362 351/351/351
f 363/363/363 327/327/327 361/361/361
f 363/363/363 326/326/326 327/327/327
f 362/362/362 364/364/364 351/351/351
f 351/351/351 364/364/364 353/353/353
f 363/363/363 365/365/365 326/326/326
f 365/365/365 335/335/335 326/326/326
f 364/364/364 366/366/366 353/353/353
f 353/353/353 366/366/366 356/356/356
f 355/355/355 367/367/367 361/361/361
f 368/368/368 363/363/363 361/361/361
f 367/367/367 368/368/368 361/361/361
f 368/368/368 369/369/369 363/363/363
f 369/369/369 365/365/365 363/363/363
f 370/370/370 367/367/367 355/355/355
f 352/352/352 370/370/370 355/355/355
f 370/370/370 352/352/352 356/356/356
f 367/367/367 371/371/371 368/368/368
f 371/371/371 369/369/369 368/368/368
f 356/356/356 372/372/372 370/370/370
f 366/366/366 372/372/372 356/356/356
f 370/370/370 373/373/373 367/367/367
f 373/373/373 371/371/371 367/367/367
f 372/372/372 373/373/373 370/370/370
f 366/366/366 364/364/364 374/374/374
f 372/372/372 366/366/366 375/375/375
f 375/375/375 366/366/366 374/374/374
f 373/373/373 372/372/372 376/376/376
f 376/376/376 372/372/372 375/375/375
f 371/371/371 373/373/373 377/377/377
f 377/377/377 373/373/373 376/376/376
f 369/369/369 371/371/371 378/378/378
f 378/378/378 371/371/371 377/377/377
f 374/374/374 364/364/364 379/379/379
f 364/364/364 362/362/362 379/379/379
f 380/380/380 369/369/369 378/378/378
f 365/365/365 369/369/369 380/380/380
f 379/379/379 362/362/362 381/381/381
f 362/362/362 360/360/360 381/381/381
f 382/382/382 365/365/365 380/380/380
f 335/335/335 365/365/365 382/382/382
f 381/381/381 360/360/360 383/383/383
f 360/360/360 359/359/359 383/383/383
f 384/384/384 335/335/335 382/382/382
f 328/328/328 335/335/335 384/384/384
f 383/383/383 359/359/359 385/385/385
f 359/359/359 358/358/358 385/385/385
f 386/386/386 328/328/328 384/384/384
f 325/325/325 328/328/328 386/386/386
f 385/385/385 358/358/358 387/387/387
f 358/358/358 309/309/309 387/387/387
f 388/388/388 325/325/325 386/386/386
f 308/308/308 325/325/325 388/388/388
f 387/387/387 309/309/309 389/389/389
f 309/309/309 304/304/304 389/389/389
f 390/390/390 308/308/308 388/388/388
f 307/307/307 308/308/308 390/390/390
f 389/389/389 304/304/304 391/391/391
f 304/304/304 305/305/305 391/391/391
f 392/392/392 307/307/307 390/390/390
f 306/306/306 307/307/307 392/392/392
f 305/305/305 306/306/306 393/393/393
f 391/391/391 305/305/305 393/393/393
f 393/393/393 306/306/306 392/392/392
f 388/388/388 386/386/386 394/394/394
f 390/390/390 388/388/388 395/395/395
f 395/395/395 388/388/388 394/394/394
f 392/392/392 390/390/390 396/396/396
f 396/396/396 390/390/390 395/395/395
f 393/393/393 392/392/392 397/397/397
f 397/397/397 392/392/392 396/396/396
f 391/391/391 393/393/393 398/398/398
f 398/398/398 393/393/393 397/397/397
f 389/389/389 391/391/391 399/399/399
f 399/399/399 391/391/391 398/398/398
f 397/397/397 396/396/396 400/400/400
f 397/397/397 400/400/400 398/398/398
f 396/396/396 395/395/395 401/401/401
f 396/396/396 401/401/401 400/400/400
f 400/400/400 401/401/401 402/402/402
f 400/400/400 403/403/403 398/398/398
f 398/398/398 403/403/403 399/399/399
f 400/400/400 402/402/402 403/403/403
f 404/404/404 389/389/389 399/399/399
f 387/387/387 389/389/389 404/404/404
f 395/395/395 405/405/405 401/401/401
f 395/395/395 394/394/394 405/405/405
f 403/403/403 406/406/406 399/399/399
f 404/404/404 399/399/399 406/406/406
f 407/407/407 387/387/387 404/404/404
f 385/385/385 387/387/387 407/407/407
f 402/402/402 408/408/408 403/403/403
f 403/403/403 408/408/408 406/406/406
f 409/409/409 404/404/404 406/406/406
f 407/407/407 404/404/404 409/409/409
f 401/401/401 410/410/410 402/402/402
f 401/401/401 405/405/405 410/410/410
f 411/411/411 385/385/385 407/407/407
f 383/383/383 385/385/385 411/411/411
f 408/408/408 412/412/412 406/406/406
f 409/409/409 406/406/406 412/412/412
f 413/413/413 412/412/412 408/408/408
f 413/413/413 409/409/409 412/412/412
f 414/414/414 407/407/407 409/409/409
f 414/414/414 409/409/409 413/413/413
f 415/415/415 413/413/413 408/408/408
f 415/415/415 408/408/408 402/402/402
f 411/411/411 407/407/407 416/416/416
f 407/407/407 414/414/414 416/416/416
f 417/417/417 383/383/383 411/411/411
f 381/381/381 383/383/383 417/417/417
f 418/418/418 414/414/414 413/413/413
f 418/418/418 413/413/413 415/415/415
f 417/417/417 411/411/411 419/419/419
f 411/411/411 416/416/416 419/419/419
f 420/420/420 381/381/381 417/417/417
f 417/417/417 419/419/419 420/420/420
f 379/379/379 381/381/381 420/420/420
f 416/416/416 414/414/414 421/421/421
f 414/414/414 418/418/418 421/421/421
f 422/422/422 379/379/379 420/420/420
f 374/374/374 379/379/379 422/422/422
f 419/419/419 423/423/423 420/420/420
f 420/420/420 423/423/423 422/422/422
f 419/419/419 416/416/416 424/424/424
f 416/416/416 421/421/421 424/424/424
f 424/424/424 425/425/425 419/419/419
f 424/424/424 421/421/421 425/425/425
f 425/425/425 423/423/423 419/419/419
f 425/425/425 426/426/426 423/423/423
f 421/421/421 427/427/427 425/425/425
f 421/421/421 418/418/418 427/427/427
f 425/425/425 427/427/427 426/426/426
f 428/428/428 374/374/374 422/422/422
f 375/375/375 374/374/374 428/428/428
f 423/423/423 429/429/429 422/422/422
f 426/426/426 429/429/429 423/423/423
f 428/428/428 422/422/422 429/429/429
f 418/418/418 430/430/430 427/427/427
f 430/430/430 418/418/418 415/415/415
f 431/431/431 375/375/375 428/428/428
f 376/376/376 375/375/375 431/431/431
f 432/432/432 428/428/428 429/429/429
f 432/432/432 429/429/429 426/426/426
f 431/431/431 428/428/428 432/432/432
f 433/433/433 376/376/376 431/431/431
f 377/377/377 376/376/376 433/433/433
f 434/434/434 431/431/431 432/432/432
f 433/433/433 431/431/431 434/434/434
f 435/435/435 377/377/377 433/433/433
f 378/378/378 377/377/377 435/435/435
f 427/427/427 430/430/430 436/436/436
f 427/427/427 436/436/436 426/426/426
f 437/437/437 432/432/432 426/426/426
f 434/434/434 432/432/432 437/437/437
f 438/438/438 433/433/433 434/434/434
f 435/435/435 433/433/433 438/438/438
f 439/439/439 378/378/378 435/435/435
f 380/380/380 378/378/378 439/439/439
f 426/426/426 436/436/436 440/440/440
f 437/437/437 426/426/426 440/440/440
f 441/441/441 434/434/434 437/437/437
f 438/438/438 434/434/434 441/441/441
f 442/442/442 435/435/435 438/438/438
f 435/435/435 442/442/442 439/439/439
f 443/443/443 380/380/380 439/439/439
f 382/382/382 380/380/380 443/443/443
f 437/437/437 440/440/440 444/444/444
f 441/441/441 437/437/437 444/444/444
f 445/445/445 438/438/438 441/441/441
f 442/442/442 438/438/438 445/445/445
f 442/442/442 446/446/446 439/439/439
f 439/439/439 446/446/446 443/443/443
f 447/447/447 382/382/382 443/443/443
f 384/384/384 382/382/382 447/447/447
f 441/441/441 444/444/444 448/448/448
f 445/445/445 441/441/441 448/448/448
f 449/449/449 442/442/442 445/445/445
f 442/442/442 449/449/449 446/446/446
f 449/449/449 445/445/445 450/450/450
f 449/449/449 450/450/450 446/446/446
f 445/445/445 448/448/448 450/450/450
f 446/446/446 451/451/451 443/443/443
f 446/446/446 450/450/450 451/451/451
f 443/443/443 451/451/451 447/447/447
f 452/452/452 384/384/384 447/447/447
f 386/386/386 384/384/384 452/452/452
f 394/394/394 386/386/386 452/452/452
f 450/450/450 448/448/448 453/453/453
f 450/450/450 453/453/453 451/451/451
f 451/451/451 454/454/454 447/447/447
f 447/447/447 454/454/454 452/452/452
f 454/454/454 451/451/451 453/453/453
f 394/394/394 452/452/452 455/455/455
f 394/394/394 455/455/455 405/405/405
f 448/448/448 456/456/456 453/453/453
f 448/448/448 444/444/444 456/456/456
f 457/457/457 454/454/454 453/453/453
f 457/457/457 453/453/453 456/456/456
f 454/454/454 458/458/458 452/452/452
f 452/452/452 458/458/458 455/455/455
f 405/405/405 455/455/455 459/459/459
f 405/405/405 459/459/459 410/410/410
f 444/444/444 460/460/460 456/456/456
f 444/444/444 440/440/440 460/460/460
f 461/461/461 458/458/458 454/454/454
f 457/457/457 461/461/461 454/454/454
f 455/455/455 458/458/458 462/462/462
f 458/458/458 461/461/461 462/462/462
f 462/462/462 461/461/461 457/457/457
f 455/455/455 462/462/462 459/459/459
f 463/463/463 457/457/457 456/456/456
f 463/463/463 462/462/462 457/457/457
f 459/459/459 462/462/462 463/463/463
f 463/463/463 456/456/456 460/460/460
f 464/464/464 459/459/459 463/463/463
f 410/410/410 459/459/459 464/464/464
f 464/464/464 463/463/463 460/460/460
f 440/440/440 465/465/465 460/460/460
f 464/464/464 460/460/460 465/465/465
f 440/440/440 436/436/436 465/465/465
f 466/466/466 410/410/410 464/464/464
f 466/466/466 464/464/464 465/465/465
f 402/402/402 410/410/410 466/466/466
f 436/436/436 467/467/467 465/465/465
f 466/466/466 465/465/465 467/467/467
f 430/430/430 467/467/467 436/436/436
f 468/468/468 402/402/402 466/466/466
f 468/468/468 466/466/466 467/467/467
f 467/467/467 430/430/430 468/468/468
f 468/468/468 415/415/415 402/402/402
f 430/430/430 415/415/415 468/468/468
