g packagingBox
v -1.7500001 0 1.2
v -1.7500001 0 -1.2
v -1.7500001 2 -1.2
v -1.7500001 2 1.2
v 1.7500001 0 -1.2
v 1.7500001 0 1.2
v 1.7500001 2 1.2
v 1.7500001 2 -1.2
v -1.7500001 0 -1.2
v -1.7500001 0 1.2
v 1.7500001 0 1.2
v 1.7500001 0 -1.2
v 1.7500001 2 1.2
v 1.7500001 0 1.2
v -1.7500001 0 1.2
v -1.7500001 2 1.2
v -1.7500001 2 -1.2
v -1.7500001 0 -1.2
v 1.7500001 0 -1.2
v 1.7500001 2 -1.2
v 1.7500001 2 1.2
v 3.1120312 2.4940848 1.2
v 3.1120312 2.4940848 -1.2
v 1.7500001 2 -1.2
v -1.7500001 2 -1.2
v -3.1371834 2.426588 -1.2
v -3.1371834 2.426588 1.2
v -1.7500001 2 1.2
v -1.7500001 0 1.2
v -1.7500001 2 1.2
v -1.7500001 2 -1.2
v -1.7500001 0 -1.2
v -1.7500001 0 -1.2
v -1.7500001 2 -1.2
v 1.7500001 2 -1.2
v 1.7500001 0 -1.2
v 1.7500001 0 -1.2
v 1.7500001 2 -1.2
v 1.7500001 2 1.2
v 1.7500001 0 1.2
v 1.7500001 0 1.2
v 1.7500001 2 1.2
v -1.7500001 2 1.2
v -1.7500001 0 1.2
v -1.7500001 0 -1.2
v 1.7500001 0 -1.2
v 1.7500001 0 1.2
v -1.7500001 0 1.2
v 1.7500001 2 1.2
v 1.7500001 2 -1.2
v 3.108512 2.5023544 -1.2
v 3.108512 2.5023544 1.2
v -1.7500001 2 -1.2
v -1.7500001 2 1.2
v -3.1335728 2.4310327 1.2
v -3.1335728 2.4310327 -1.2
v 1.7500001 2 -1.2
v 1.8000001 2.4538388 -2.307684
v -1.8000001 2.4538388 -2.307684
v -1.7500001 2 -1.2
v -1.7500001 2 1.2
v -1.8000001 2.428786 2.3263297
v 1.8000001 2.428786 2.3263297
v 1.7500001 2 1.2
v 1.8000001 2 -1.2
v -1.7000002 2 -1.2
v -1.7500001 2.4588573 -2.3040297
v 1.85 2.4588573 -2.3040297
v -1.7000002 2 1.2
v 1.8000001 2 1.2
v 1.85 2.43386 2.3199081
v -1.7500001 2.43386 2.3199081
vt 0.21777728 0.027893454
vt 0.21777728 0.027893454
vt 0.21777728 0.027893454
vt 0.21777728 0.027893454
vt 0.21777728 0.027893454
vt 0.21777728 0.027893454
vt 0.21777728 0.027893454
vt 0.21777728 0.027893454
vt 0.21777728 0.027893454
vt 0.21777728 0.027893454
vt 0.21777728 0.027893454
vt 0.21777728 0.027893454
vt 0.21777728 0.027893454
vt 0.21777728 0.027893454
vt 0.21777727 0.027893452
vt 0.21777728 0.027893454
vt 0.21777728 0.027893454
vt 0.21777728 0.027893454
vt 0.21777727 0.027893452
vt 0.21777728 0.027893454
vt 0.21777728 0.027893454
vt 0.21777728 0.027893454
vt 0.21777728 0.027893454
vt 0.21777728 0.027893454
vt 0.21777728 0.027893454
vt 0.21777728 0.027893454
vt 0.21777728 0.027893454
vt 0.21777728 0.027893454
vt 0.21777731 0.090393454
vt 0.21777731 0.090393454
vt 0.21777731 0.090393454
vt 0.21777731 0.090393454
vt 0.21777731 0.090393454
vt 0.21777731 0.090393454
vt 0.21777731 0.090393454
vt 0.21777731 0.090393454
vt 0.21777731 0.090393454
vt 0.21777731 0.090393454
vt 0.21777731 0.090393454
vt 0.21777731 0.090393454
vt 0.21777731 0.090393454
vt 0.21777731 0.090393454
vt 0.21777731 0.090393454
vt 0.21777731 0.090393454
vt 0.21777731 0.090393454
vt 0.21777731 0.090393454
vt 0.21777731 0.090393454
vt 0.21777731 0.090393454
vt 0.21777731 0.090393454
vt 0.21777731 0.090393454
vt 0.21777731 0.090393454
vt 0.21777731 0.090393454
vt 0.21777731 0.090393454
vt 0.21777731 0.090393454
vt 0.21777731 0.090393454
vt 0.21777731 0.090393454
vt 0.21797878 0.4692757
vt 0.21797878 0.4692757
vt 0.21797878 0.4692757
vt 0.21797878 0.4692757
vt 0.21797878 0.6567757
vt 0.21797878 0.6567757
vt 0.21797878 0.6567757
vt 0.21797878 0.6567757
vt 0.21777728 0.027893454
vt 0.21777728 0.027893454
vt 0.21777728 0.027893454
vt 0.21777728 0.027893454
vt 0.21777728 0.027893454
vt 0.21777728 0.027893454
vt 0.21777728 0.027893454
vt 0.21777728 0.027893454
vn -1 0 0
vn -1 0 0
vn -1 0 0
vn -1 0 0
vn 1 0 0
vn 1 0 0
vn 1 0 0
vn 1 0 0
vn -0 -1 0
vn -0 -1 0
vn -0 -1 0
vn -0 -1 0
vn -0 0 1
vn -0 0 1
vn -0 0 1
vn -0 0 1
vn -0 0 -1
vn -0 0 -1
vn -0 0 -1
vn -0 0 -1
vn 0.34101188 -0.940059 0
vn 0.34101188 -0.940059 0
vn 0.34101188 -0.940059 0
vn 0.34101188 -0.940059 0
vn -0.29393628 -0.95582503 0
vn -0.29393628 -0.95582503 0
vn -0.29393628 -0.95582503 0
vn -0.29393628 -0.95582503 0
vn 1 0 0
vn 1 0 0
vn 1 0 0
vn 1 0 0
vn -0 0 1
vn -0 0 1
vn -0 0 1
vn -0 0 1
vn -1 0 0
vn -1 0 0
vn -1 0 0
vn -1 0 0
vn -0 0 -1
vn -0 0 -1
vn -0 0 -1
vn -0 0 -1
vn -0 1 0
vn -0 1 0
vn -0 1 0
vn -0 1 0
vn -0.3468298 0.937928 0
vn -0.3468298 0.937928 0
vn -0.3468298 0.937928 0
vn -0.3468298 0.937928 0
vn 0.29743633 0.9547417 0
vn 0.29743633 0.9547417 0
vn 0.29743633 0.9547417 0
vn 0.29743633 0.9547417 0
vn -0 -0.9253433 -0.37913036
vn -0 -0.9253433 -0.37913036
vn -0 -0.9253433 -0.37913036
vn -0 -0.9253433 -0.37913036
vn -0 -0.93456835 0.35578382
vn -0 -0.93456835 0.35578382
vn -0 -0.93456835 0.35578382
vn -0 -0.93456835 0.35578382
vn -0 0.92341954 0.38379207
vn -0 0.92341954 0.38379207
vn -0 0.92341954 0.38379207
vn -0 0.92341954 0.38379207
vn -0 0.9324708 -0.36124557
vn -0 0.9324708 -0.36124557
vn -0 0.9324708 -0.36124557
vn -0 0.9324708 -0.36124557
g packagingBox_0
f 3/3/3 2/2/2 1/1/1
f 4/4/4 3/3/3 1/1/1
f 7/7/7 6/6/6 5/5/5
f 8/8/8 7/7/7 5/5/5
f 11/11/11 10/10/10 9/9/9
f 12/12/12 11/11/11 9/9/9
f 15/15/15 14/14/14 13/13/13
f 16/16/16 15/15/15 13/13/13
f 19/19/19 18/18/18 17/17/17
f 20/20/20 19/19/19 17/17/17
f 23/23/23 22/22/22 21/21/21
f 24/24/24 23/23/23 21/21/21
f 27/27/27 26/26/26 25/25/25
f 28/28/28 27/27/27 25/25/25
f 31/31/31 30/30/30 29/29/29
f 32/32/32 31/31/31 29/29/29
f 35/35/35 34/34/34 33/33/33
f 36/36/36 35/35/35 33/33/33
f 39/39/39 38/38/38 37/37/37
f 40/40/40 39/39/39 37/37/37
f 43/43/43 42/42/42 41/41/41
f 44/44/44 43/43/43 41/41/41
f 47/47/47 46/46/46 45/45/45
f 48/48/48 47/47/47 45/45/45
f 51/51/51 50/50/50 49/49/49
f 52/52/52 51/51/51 49/49/49
f 55/55/55 54/54/54 53/53/53
f 56/56/56 55/55/55 53/53/53
f 59/59/59 58/58/58 57/57/57
f 60/60/60 59/59/59 57/57/57
f 63/63/63 62/62/62 61/61/61
f 64/64/64 63/63/63 61/61/61
f 67/67/67 66/66/66 65/65/65
f 68/68/68 67/67/67 65/65/65
f 71/71/71 70/70/70 69/69/69
f 72/72/72 71/71/71 69/69/69
