g packagingBasket_Sealed
v 1.0453666 2.2164161 -0.45274615
v 1.7612522 2.107374 -1.0358847
v 1.9224449 2.1121151 -0.8604691
v 1.5099812 2.1026332 -1.1069992
v 1.9793365 2.1168563 -0.5949751
v 0.002354622 2.2401211 -0.45274615
v 0.002354622 2.097892 -1.121222
v 1.0785534 2.2164161 -0.3105173
v -1.0453982 2.2164161 -0.45274615
v -1.5100129 2.1026332 -1.1069992
v -1.7612836 2.107374 -1.0358847
v -1.9224765 2.1121151 -0.8604691
v 1.0880353 2.2164161 0.0023863316
v 1.9935594 2.121597 0.0023863316
v 1.9793365 2.1168563 0.5950067
v 0.002354622 2.2401211 -0.3105173
v -1.0785851 2.2164161 -0.3105173
v -1.979368 2.1168563 -0.5949751
v 1.0785534 2.2164161 0.31528997
v 1.9224449 2.1121151 0.8605008
v 0.002354622 2.2401211 0.0023863316
v -1.088067 2.2164161 0.0023863316
v -1.9935911 2.121597 0.0023863316
v 1.0453666 2.2164161 0.45751882
v 1.7612522 2.107374 1.0359163
v 1.5099812 2.1026332 1.1117718
v 0.002354622 2.097892 1.1259947
v 0.002354622 2.2401211 0.31528997
v -1.0785851 2.2164161 0.31528997
v -1.979368 2.1168563 0.5950067
v 0.002354622 2.2401211 0.45751882
v -1.5100129 2.1026332 1.1117718
v -1.0453982 2.2164161 0.45751882
v -1.9224765 2.1121151 0.8605008
v -1.7612836 2.107374 1.0359163
v -2.0836694 1.5763862 -1.4436076
v -1.9841092 1.3820066 -1.2255232
v -1.6996515 1.3820066 -1.3156016
v -1.7849886 1.5763862 -1.5431678
v -2.273308 1.5763862 -1.1970775
v 0.002354622 1.3820066 -1.3298244
v -2.1642659 1.3820066 -1.0169209
v 0.002354622 1.5763862 -1.5621316
v -2.3396814 1.5763862 -0.8272823
v 1.6996197 1.3820066 -1.3156016
v -2.2306392 1.3820066 -0.7040173
v 1.7849569 1.5763862 -1.5431678
v -2.3586452 1.5763862 0.0023863316
v 1.9840775 1.3820066 -1.2255232
v -2.2448623 1.3820066 0.0023863316
v 2.0836377 1.5763862 -1.4436076
v -2.3396814 1.5763862 0.83205485
v 2.1642342 1.3820066 -1.0169209
v -2.2306392 1.3820066 0.7087898
v 2.2732763 1.5763862 -1.1970775
v -2.273308 1.5763862 1.2018502
v 2.2306075 1.3820066 -0.7040173
v -2.1642659 1.3820066 1.0216935
v 2.3396497 1.5763862 -0.8272823
v -2.0836694 1.5763862 1.4436393
v 2.2448304 1.3820066 0.0023863316
v -1.9841092 1.3820066 1.2302959
v 2.3586135 1.5763862 0.0023863316
v -1.7849886 1.5763862 1.5479405
v 2.2306075 1.3820066 0.7087898
v -1.6996515 1.3820066 1.3203743
v 2.3396497 1.5763862 0.83205485
v 0.002354622 1.5763862 1.5621634
v 2.1642342 1.3820066 1.0216935
v 0.002354622 1.3820066 1.3298562
v 2.2732763 1.5763862 1.2018502
v 1.7849569 1.5763862 1.5479405
v 1.9840775 1.3820066 1.2302959
v 1.6996197 1.3820066 1.3203743
v 2.0836377 1.5763862 1.4436393
v -2.3349407 1.9224765 1.2350368
v -1.7612836 2.107374 1.0359163
v -2.145302 1.9224765 1.4863079
v -1.9224765 2.1121151 0.8605008
v -1.5100129 2.1026332 1.1117718
v -2.4060547 1.9224765 0.85575986
v -1.8371394 1.9224765 1.5906093
v -1.979368 2.1168563 0.5950067
v 0.002354622 2.097892 1.1259947
v -2.4250185 1.9224765 0.0023863316
v 0.002354622 1.9224765 1.6095731
v -1.9935911 2.121597 0.0023863316
v 1.5099812 2.1026332 1.1117718
v -2.4060547 1.9224765 -0.8509872
v 1.8371077 1.9224765 1.5906093
v -1.979368 2.1168563 -0.5949751
v 1.7612522 2.107374 1.0359163
v -2.3349407 1.9224765 -1.2302642
v 2.1452703 1.9224765 1.4863079
v -1.9224765 2.1121151 -0.8604691
v 1.9224449 2.1121151 0.8605008
v -2.145302 1.9224765 -1.4815353
v 2.3349087 1.9224765 1.2350368
v -1.7612836 2.107374 -1.0358847
v 1.9793365 2.1168563 0.5950067
v -1.8371394 1.9224765 -1.5905775
v 2.4060233 1.9224765 0.85575986
v -1.5100129 2.1026332 -1.1069992
v 1.9935594 2.121597 0.0023863316
v 0.002354622 1.9224765 -1.6048003
v 2.424987 1.9224765 0.0023863316
v 0.002354622 2.097892 -1.121222
v 1.9793365 2.1168563 -0.5949751
v 1.8371077 1.9224765 -1.5905775
v 2.4060233 1.9224765 -0.8509872
v 1.5099812 2.1026332 -1.1069992
v 1.9224449 2.1121151 -0.8604691
v 2.1452703 1.9224765 -1.4815353
v 2.3349087 1.9224765 -1.2302642
v 1.7612522 2.107374 -1.0358847
v -2.3349407 1.9224765 -1.2302642
v -2.273308 1.5763862 -1.1970775
v -2.0836694 1.5763862 -1.4436076
v -2.145302 1.9224765 -1.4815353
v -2.4060547 1.9224765 -0.8509872
v -1.7849886 1.5763862 -1.5431678
v -2.3396814 1.5763862 -0.8272823
v -1.8371394 1.9224765 -1.5905775
v -2.4250185 1.9224765 0.0023863316
v 0.002354622 1.5763862 -1.5621316
v -2.3586452 1.5763862 0.0023863316
v 0.002354622 1.9224765 -1.6048003
v -2.4060547 1.9224765 0.85575986
v 1.7849569 1.5763862 -1.5431678
v -2.3396814 1.5763862 0.83205485
v 1.8371077 1.9224765 -1.5905775
v -2.3349407 1.9224765 1.2350368
v 2.0836377 1.5763862 -1.4436076
v -2.273308 1.5763862 1.2018502
v 2.1452703 1.9224765 -1.4815353
v -2.145302 1.9224765 1.4863079
v 2.2732763 1.5763862 -1.1970775
v -2.0836694 1.5763862 1.4436393
v 2.3349087 1.9224765 -1.2302642
v -1.8371394 1.9224765 1.5906093
v 2.3396497 1.5763862 -0.8272823
v -1.7849886 1.5763862 1.5479405
v 2.4060233 1.9224765 -0.8509872
v 0.002354622 1.9224765 1.6095731
v 2.3586135 1.5763862 0.0023863316
v 0.002354622 1.5763862 1.5621634
v 2.424987 1.9224765 0.0023863316
v 1.8371077 1.9224765 1.5906093
v 2.3396497 1.5763862 0.83205485
v 1.7849569 1.5763862 1.5479405
v 2.4060233 1.9224765 0.85575986
v 2.1452703 1.9224765 1.4863079
v 2.2732763 1.5763862 1.2018502
v 2.0836377 1.5763862 1.4436393
v 2.3349087 1.9224765 1.2350368
v -2.1358202 1.6901696 -1.1022582
v -2.2306392 1.6901696 -1.140186
v -2.2970126 1.6949103 -0.7846136
v -2.1974523 1.6901696 -0.7751317
v -2.3159764 1.6996515 -0.002354622
v -1.9983318 1.6854284 -1.2871557
v -2.0552237 1.6759465 -1.3630112
v -2.2164161 1.6949103 -0.002354622
v -2.2970126 1.6949103 0.7846453
v -1.7138741 1.6854284 -1.3630112
v -1.7280972 1.6712058 -1.4578304
v -2.1974523 1.6901696 0.7751634
v -2.2306392 1.6901696 1.1402175
v 0.002354622 1.6854284 -1.3772341
v 0.002354622 1.6664646 -1.4767944
v -2.1358202 1.6901696 1.1022899
v -2.0552237 1.6759465 1.3630428
v 1.7138425 1.6854284 -1.3630112
v 1.7328064 1.6712058 -1.4578304
v -1.9983318 1.6854284 1.2871876
v -1.7280972 1.6712058 1.4578621
v 1.9983003 1.6854284 -1.2871557
v 2.055192 1.6759465 -1.3630112
v -1.7138741 1.6854284 1.3630428
v 0.002354622 1.6664646 1.476826
v 2.1357882 1.6901696 -1.1022582
v 2.2306075 1.6901696 -1.140186
v 0.002354622 1.6854284 1.3772657
v 1.7328064 1.6712058 1.4578621
v 2.1974208 1.6901696 -0.7751317
v 2.296981 1.6949103 -0.7846136
v 1.7138425 1.6854284 1.3630428
v 2.055192 1.6759465 1.3630428
v 2.2163846 1.6949103 -0.002354622
v 2.315945 1.6996515 -0.002354622
v 1.9983003 1.6854284 1.2871876
v 2.2306075 1.6901696 1.1402175
v 2.1974208 1.6901696 0.7751634
v 2.296981 1.6949103 0.7846453
v 2.1357882 1.6901696 1.1022899
v 2.1594932 1.6332777 -0.78935456
v 2.173716 1.6332777 -0.002354622
v 2.1594932 1.6332777 0.7893863
v 2.1073425 1.6332777 1.097549
v 1.9840775 1.6332777 1.2634826
v 1.7612522 1.6332777 1.3251152
v 2.1073425 1.6332777 -1.0975173
v 2.173716 0.7135308 -0.7656498
v 2.19268 0.7135308 -0.002354622
v 2.0931196 0.17780209 -0.7229811
v 2.173716 0.7135308 0.7656815
v 1.9840775 1.6332777 -1.263451
v 2.1215653 0.7135308 -1.0595895
v 1.7612522 1.6332777 -1.3250835
v 1.9983003 0.7135308 -1.2160413
v 0.002354622 1.6332777 -1.3345654
v 2.1215653 0.7135308 1.0596211
v 2.04571 0.17780209 -0.98373413
v 1.775475 0.7135308 -1.2729329
v -1.7612836 1.6332777 -1.3250835
v 1.9556317 0.31528997 -1.1117401
v 1.7849569 0.17780209 -1.130704
v 0.002354622 0.7135308 -1.2824148
v 1.8181437 -0.002354622 -0.9647703
v -1.7755067 0.7135308 -1.2729329
v -1.9841092 1.6332777 -1.263451
v 0.002354622 0.17780209 -1.140186
v -1.9983318 0.7135308 -1.2160413
v -2.107374 1.6332777 -1.0975173
v -1.7849886 0.17780209 -1.130704
v -2.1595247 1.6332777 -0.78935456
v -2.121597 0.7135308 -1.0595895
v -1.9556634 0.31528997 -1.1117401
v -2.0457418 0.17780209 -0.98373413
v -2.0931513 0.17780209 -0.7229811
v -1.8181756 -0.002354622 -0.9647703
v -2.1737478 1.6332777 -0.002354622
v -2.1737478 0.7135308 -0.7656498
v 0.002354622 -0.002354622 -0.9789932
v -2.1595247 1.6332777 0.7893863
v -2.1927116 0.7135308 -0.002354622
v -2.107374 1.6332777 1.097549
v -2.1737478 0.7135308 0.7656815
v -1.9841092 1.6332777 1.2634826
v -1.851362 -0.002354622 -0.7134992
v -2.1121151 0.17780209 -0.002354622
v -2.121597 0.7135308 1.0596211
v -1.7612836 1.6332777 1.3251152
v -1.8655851 -0.002354622 -0.002354622
v -2.0931513 0.17780209 0.7230127
v -1.9983318 0.7135308 1.216073
v 0.002354622 1.6332777 1.3345971
v -1.7755067 0.7135308 1.2729645
v -2.0457418 0.17780209 0.98376584
v -1.851362 -0.002354622 0.7135308
v 0.002354622 0.7135308 1.2824466
v -1.9556634 0.31528997 1.1117718
v -1.7849886 0.17780209 1.1307356
v -1.8181756 -0.002354622 0.964802
v 1.775475 0.7135308 1.2729645
v 0.002354622 0.17780209 1.1402175
v 0.002354622 -0.002354622 0.9790249
v 1.9983003 0.7135308 1.216073
v 1.7849569 0.17780209 1.1307356
v 0.002354622 -0.002354622 0.7230127
v 1.9556317 0.31528997 1.1117718
v 2.04571 0.17780209 0.98376584
v 1.8181437 -0.002354622 0.964802
v 2.0931196 0.17780209 0.7230127
v 0.002354622 -0.002354622 -0.002354622
v 1.8513305 -0.002354622 0.7135308
v 2.1120834 0.17780209 -0.002354622
v 1.8655534 -0.002354622 -0.002354622
v 0.002354622 -0.002354622 -0.7229811
v 1.8513305 -0.002354622 -0.7134992
vt 0.5309476 0.96708316
vt 0.5309476 0.96708316
vt 0.5309476 0.96708316
vt 0.5309476 0.96708316
vt 0.5309476 0.96708316
vt 0.5309476 0.96708316
vt 0.5309476 0.96708316
vt 0.5309476 0.96708316
vt 0.5309476 0.96708316
vt 0.5309476 0.96708316
vt 0.5309476 0.96708316
vt 0.5309476 0.96708316
vt 0.5309476 0.96708316
vt 0.5309476 0.96708316
vt 0.5309476 0.96708316
vt 0.5309476 0.96708316
vt 0.5309476 0.96708316
vt 0.5309476 0.96708316
vt 0.5309476 0.96708316
vt 0.5309476 0.96708316
vt 0.5309476 0.96708316
vt 0.5309476 0.96708316
vt 0.5309476 0.96708316
vt 0.5309476 0.96708316
vt 0.5309476 0.96708316
vt 0.5309476 0.96708316
vt 0.5309476 0.96708316
vt 0.5309476 0.96708316
vt 0.5309476 0.96708316
vt 0.5309476 0.96708316
vt 0.5309476 0.96708316
vt 0.5309476 0.96708316
vt 0.5309476 0.96708316
vt 0.5309476 0.96708316
vt 0.5309476 0.96708316
vt 0.5271551 0.96708316
vt 0.5271551 0.96708316
vt 0.5271551 0.96708316
vt 0.5271551 0.96708316
vt 0.5271551 0.96708316
vt 0.5271551 0.96708316
vt 0.5271551 0.96708316
vt 0.5271551 0.96708316
vt 0.5271551 0.96708316
vt 0.5271551 0.96708316
vt 0.5271551 0.96708316
vt 0.5271551 0.96708316
vt 0.5271551 0.96708316
vt 0.5271551 0.96708316
vt 0.5271551 0.96708316
vt 0.5271551 0.96708316
vt 0.5271551 0.96708316
vt 0.5271551 0.96708316
vt 0.5271551 0.96708316
vt 0.5271551 0.96708316
vt 0.5271551 0.96708316
vt 0.5271551 0.96708316
vt 0.5271551 0.96708316
vt 0.5271551 0.96708316
vt 0.5271551 0.96708316
vt 0.5271551 0.96708316
vt 0.5271551 0.96708316
vt 0.5271551 0.96708316
vt 0.5271551 0.96708316
vt 0.5271551 0.96708316
vt 0.5271551 0.96708316
vt 0.5271551 0.96708316
vt 0.5271551 0.96708316
vt 0.5271551 0.96708316
vt 0.5271551 0.96708316
vt 0.5271551 0.96708316
vt 0.5271551 0.96708316
vt 0.5271551 0.96708316
vt 0.5271551 0.96708316
vt 0.5271551 0.96708316
vt 0.21996401 0.65609956
vt 0.21996401 0.65609956
vt 0.21996401 0.65609956
vt 0.21996401 0.65609956
vt 0.21996401 0.65609956
vt 0.21996401 0.65609956
vt 0.21996401 0.65609956
vt 0.21996401 0.65609956
vt 0.21996401 0.65609956
vt 0.21996401 0.65609956
vt 0.21996401 0.65609956
vt 0.21996401 0.65609956
vt 0.21996401 0.65609956
vt 0.21996401 0.65609956
vt 0.21996401 0.65609956
vt 0.21996401 0.65609956
vt 0.21996401 0.65609956
vt 0.21996401 0.65609956
vt 0.21996401 0.65609956
vt 0.21996401 0.65609956
vt 0.21996401 0.65609956
vt 0.21996401 0.65609956
vt 0.21996401 0.65609956
vt 0.21996401 0.65609956
vt 0.21996401 0.65609956
vt 0.21996401 0.65609956
vt 0.21996401 0.65609956
vt 0.21996401 0.65609956
vt 0.21996401 0.65609956
vt 0.21996401 0.65609956
vt 0.21996401 0.65609956
vt 0.21996401 0.65609956
vt 0.21996401 0.65609956
vt 0.21996401 0.65609956
vt 0.21996401 0.65609956
vt 0.21996401 0.65609956
vt 0.21996401 0.65609956
vt 0.21996401 0.65609956
vt 0.21996401 0.65609956
vt 0.21996401 0.65609956
vt 0.21996401 0.4664754
vt 0.21996401 0.4664754
vt 0.21996401 0.4664754
vt 0.21996401 0.4664754
vt 0.21996401 0.4664754
vt 0.21996401 0.4664754
vt 0.21996401 0.4664754
vt 0.21996401 0.4664754
vt 0.21996401 0.4664754
vt 0.21996401 0.4664754
vt 0.21996401 0.4664754
vt 0.21996401 0.4664754
vt 0.21996401 0.4664754
vt 0.21996401 0.4664754
vt 0.21996401 0.4664754
vt 0.21996401 0.4664754
vt 0.21996401 0.4664754
vt 0.21996401 0.4664754
vt 0.21996401 0.4664754
vt 0.21996401 0.4664754
vt 0.21996401 0.4664754
vt 0.21996401 0.4664754
vt 0.21996401 0.4664754
vt 0.21996401 0.4664754
vt 0.21996401 0.4664754
vt 0.21996401 0.4664754
vt 0.21996401 0.4664754
vt 0.21996401 0.4664754
vt 0.21996401 0.4664754
vt 0.21996401 0.4664754
vt 0.21996401 0.4664754
vt 0.21996401 0.4664754
vt 0.21996401 0.4664754
vt 0.21996401 0.4664754
vt 0.21996401 0.4664754
vt 0.21996401 0.4664754
vt 0.21996401 0.4664754
vt 0.21996401 0.4664754
vt 0.21996401 0.4664754
vt 0.21996401 0.4664754
vt 0.5916273 0.96708316
vt 0.5916273 0.96708316
vt 0.5916273 0.96708316
vt 0.5916273 0.96708316
vt 0.5916273 0.96708316
vt 0.5916273 0.96708316
vt 0.5916273 0.96708316
vt 0.5916273 0.96708316
vt 0.5916273 0.96708316
vt 0.5916273 0.96708316
vt 0.5916273 0.96708316
vt 0.5916273 0.96708316
vt 0.5916273 0.96708316
vt 0.5916273 0.96708316
vt 0.5916273 0.96708316
vt 0.5916273 0.96708316
vt 0.5916273 0.96708316
vt 0.5916273 0.96708316
vt 0.5916273 0.96708316
vt 0.5916273 0.96708316
vt 0.5916273 0.96708316
vt 0.5916273 0.96708316
vt 0.5916273 0.96708316
vt 0.5916273 0.96708316
vt 0.5916273 0.96708316
vt 0.5916273 0.96708316
vt 0.5916273 0.96708316
vt 0.5916273 0.96708316
vt 0.5916273 0.96708316
vt 0.5916273 0.96708316
vt 0.5916273 0.96708316
vt 0.5916273 0.96708316
vt 0.5916273 0.96708316
vt 0.5916273 0.96708316
vt 0.5916273 0.96708316
vt 0.5916273 0.96708316
vt 0.5916273 0.96708316
vt 0.5916273 0.96708316
vt 0.5916273 0.96708316
vt 0.5916273 0.96708316
vt 0.5916273 0.96708316
vt 0.5916273 0.96708316
vt 0.5916273 0.96708316
vt 0.5916273 0.96708316
vt 0.5916273 0.96708316
vt 0.5916273 0.96708316
vt 0.5916273 0.96708316
vt 0.5916273 0.96708316
vt 0.5916273 0.96708316
vt 0.5916273 0.96708316
vt 0.5916273 0.96708316
vt 0.5916273 0.96708316
vt 0.5916273 0.96708316
vt 0.5916273 0.96708316
vt 0.5916273 0.96708316
vt 0.5916273 0.96708316
vt 0.5916273 0.96708316
vt 0.5916273 0.96708316
vt 0.5916273 0.96708316
vt 0.5916273 0.96708316
vt 0.5916273 0.96708316
vt 0.5916273 0.96708316
vt 0.5916273 0.96708316
vt 0.5916273 0.96708316
vt 0.5916273 0.96708316
vt 0.5916273 0.96708316
vt 0.5916273 0.96708316
vt 0.5916273 0.96708316
vt 0.5916273 0.96708316
vt 0.5916273 0.96708316
vt 0.5916273 0.96708316
vt 0.5916273 0.96708316
vt 0.5916273 0.96708316
vt 0.5916273 0.96708316
vt 0.5916273 0.96708316
vt 0.5916273 0.96708316
vt 0.5916273 0.96708316
vt 0.5916273 0.96708316
vt 0.5916273 0.96708316
vt 0.5916273 0.96708316
vt 0.5916273 0.96708316
vt 0.5916273 0.96708316
vt 0.5916273 0.96708316
vt 0.5916273 0.96708316
vt 0.5916273 0.96708316
vt 0.5916273 0.96708316
vt 0.5916273 0.96708316
vt 0.5916273 0.96708316
vt 0.5916273 0.96708316
vt 0.5916273 0.96708316
vt 0.5916273 0.96708316
vt 0.5916273 0.96708316
vt 0.5916273 0.96708316
vt 0.5916273 0.96708316
vt 0.5916273 0.96708316
vt 0.5916273 0.96708316
vt 0.5916273 0.96708316
vt 0.5916273 0.96708316
vt 0.5916273 0.96708316
vt 0.5916273 0.96708316
vt 0.5916273 0.96708316
vt 0.5916273 0.96708316
vt 0.5916273 0.96708316
vt 0.5916273 0.96708316
vt 0.5916273 0.96708316
vt 0.5916273 0.96708316
vt 0.5916273 0.96708316
vt 0.5916273 0.96708316
vt 0.5916273 0.96708316
vt 0.5916273 0.96708316
vt 0.5916273 0.96708316
vt 0.5916273 0.96708316
vt 0.5916273 0.96708316
vt 0.5916273 0.96708316
vt 0.5916273 0.96708316
vn 0.04756512 0.99886817 -0
vn 0.14283913 0.93639004 -0.32057866
vn 0.26845822 0.96329135 -0
vn 0.015870988 0.93639004 -0.3506021
vn 0.33329135 0.93639004 -0.1099571
vn -0.3650334 0.90464807 -0.21991473
vn -0.015871048 0.96813214 -0.24993657
vn 0.015870988 0.9998741 -0
vn -0.1428392 0.96813214 -0.20571133
vn 0.047613025 0.93639004 -0.34771642
vn -0.1428392 0.93639004 -0.32057866
vn -0.26845828 0.96329135 -0
vn -0.015871048 0.9998741 -0
vn 0.33329135 0.93639004 -0.1099571
vn 0.33329135 0.93639004 0.1099571
vn -0.015871048 0.93639004 -0.3506021
vn -0.015871048 0.9998741 -0
vn -0.3332914 0.93639004 -0.1099571
vn 0.015870988 0.9998741 -0
vn 0.26845822 0.96329135 -0
vn -0.015871048 0.9998741 -0
vn 0.015870988 0.9998741 -0
vn -0.3332914 0.93639004 0.1099571
vn 0.015870988 0.9998741 -0
vn 0.14283913 0.93639004 0.32057866
vn 0.015870988 0.93639004 0.3506021
vn 0.015870988 0.96813214 0.24993657
vn 0.015870988 0.96813214 0.24993657
vn -0.015871048 0.9998741 -0
vn -0.3332914 0.93639004 0.1099571
vn 0.30154932 0.93639004 -0.17955975
vn -0.015871048 0.93639004 0.3506021
vn -0.07911634 0.9968654 -0
vn -0.26845828 0.96329135 -0
vn -0.1110971 0.93639004 0.3329131
vn -0.49200153 -0.49200153 -0.7182402
vn -0.39677548 -0.77767986 -0.48763025
vn -0.07935512 -0.77767986 -0.62363195
vn -0.1428392 -0.49200153 -0.85879654
vn -0.8094219 -0.4602595 -0.36468804
vn -0.015871048 -0.77767986 -0.6284601
vn -0.71419585 -0.6507117 -0.25787318
vn -0.015871048 -0.49200153 -0.87044966
vn -0.90464807 -0.3650334 -0.21991481
vn 0.07935506 -0.77767986 -0.62363195
vn -0.841164 -0.52374357 -0.13466929
vn 0.14283913 -0.49200153 -0.85879654
vn -0.931708 -0.36320817 -0
vn 0.39677542 -0.77767986 -0.48763025
vn -0.87115216 -0.49101302 -0
vn 0.49200153 -0.49200153 -0.7182402
vn -0.90464807 -0.3650334 0.21991481
vn 0.7141958 -0.6507117 -0.2578733
vn -0.841164 -0.52374357 0.13466929
vn 0.8094219 -0.4602595 -0.36468804
vn -0.8094219 -0.4602595 0.36468804
vn 0.84116393 -0.52374357 -0.1346695
vn -0.71419585 -0.6507117 0.25787318
vn 0.904648 -0.3650334 -0.21991508
vn -0.49200153 -0.49200153 0.7182402
vn 0.87115216 -0.49101302 -0
vn -0.39677548 -0.77767986 0.48763025
vn 0.931708 -0.36320817 -0
vn -0.1428392 -0.49200153 0.85879654
vn 0.84116393 -0.52374357 0.1346695
vn -0.07935512 -0.77767986 0.62363195
vn 0.904648 -0.3650334 0.21991508
vn -0.015871048 -0.49200153 0.87044966
vn 0.7141958 -0.6507117 0.2578733
vn -0.015871048 -0.77767986 0.6284601
vn 0.8094219 -0.4602595 0.36468804
vn 0.14283913 -0.49200153 0.85879654
vn 0.39677542 -0.77767986 0.48763025
vn 0.07935506 -0.77767986 0.62363195
vn 0.49200153 -0.49200153 0.7182402
vn -0.8094219 0.46025956 0.36468798
vn -0.1110971 0.93639004 0.3329131
vn -0.5237436 0.46025956 0.716836
vn -0.26845828 0.96329135 -0
vn -0.015871048 0.93639004 0.3506021
vn -0.87290597 0.46025956 0.16185267
vn -0.1428392 0.49200153 0.85879654
vn -0.3332914 0.93639004 0.1099571
vn 0.015870988 0.96813214 0.24993657
vn -0.87290597 0.46025956 -0.16185267
vn -0.015871048 0.5237436 0.8517281
vn -0.3332914 0.93639004 0.1099571
vn 0.015870988 0.93639004 0.3506021
vn -0.87290597 0.46025956 -0.16185267
vn 0.14283913 0.49200153 0.85879654
vn -0.3332914 0.93639004 -0.1099571
vn 0.14283913 0.93639004 0.32057866
vn -0.8094219 0.46025956 -0.36468798
vn 0.52374357 0.46025956 0.716836
vn -0.26845828 0.96329135 -0
vn 0.26845822 0.96329135 -0
vn -0.5237436 0.46025956 -0.716836
vn 0.8094219 0.46025956 0.36468798
vn -0.1428392 0.93639004 -0.32057866
vn 0.33329135 0.93639004 0.1099571
vn -0.1428392 0.49200153 -0.85879654
vn 0.87290597 0.46025956 0.16185267
vn 0.047613025 0.93639004 -0.34771642
vn 0.33329135 0.93639004 -0.1099571
vn -0.015871048 0.5237436 -0.8517281
vn 0.87290597 0.46025956 -0.16185267
vn -0.015871048 0.96813214 -0.24993657
vn 0.33329135 0.93639004 -0.1099571
vn 0.14283913 0.49200153 -0.85879654
vn 0.87290597 0.46025956 -0.16185267
vn 0.015870988 0.93639004 -0.3506021
vn 0.26845822 0.96329135 -0
vn 0.52374357 0.46025956 -0.716836
vn 0.8094219 0.46025956 -0.36468798
vn 0.14283913 0.93639004 -0.32057866
vn -0.8094219 0.46025956 -0.36468798
vn -0.8094219 -0.4602595 -0.36468804
vn -0.49200153 -0.49200153 -0.7182402
vn -0.5237436 0.46025956 -0.716836
vn -0.87290597 0.46025956 -0.16185267
vn -0.1428392 -0.49200153 -0.85879654
vn -0.90464807 -0.3650334 -0.21991481
vn -0.1428392 0.49200153 -0.85879654
vn -0.87290597 0.46025956 -0.16185267
vn -0.015871048 -0.49200153 -0.87044966
vn -0.931708 -0.36320817 -0
vn -0.015871048 0.5237436 -0.8517281
vn -0.87290597 0.46025956 0.16185267
vn 0.14283913 -0.49200153 -0.85879654
vn -0.90464807 -0.3650334 0.21991481
vn 0.14283913 0.49200153 -0.85879654
vn -0.8094219 0.46025956 0.36468798
vn 0.49200153 -0.49200153 -0.7182402
vn -0.8094219 -0.4602595 0.36468804
vn 0.52374357 0.46025956 -0.716836
vn -0.5237436 0.46025956 0.716836
vn 0.8094219 -0.4602595 -0.36468804
vn -0.49200153 -0.49200153 0.7182402
vn 0.8094219 0.46025956 -0.36468798
vn -0.1428392 0.49200153 0.85879654
vn 0.904648 -0.3650334 -0.21991508
vn -0.1428392 -0.49200153 0.85879654
vn 0.87290597 0.46025956 -0.16185267
vn -0.015871048 0.5237436 0.8517281
vn 0.931708 -0.36320817 -0
vn -0.015871048 -0.49200153 0.87044966
vn 0.87290597 0.46025956 -0.16185267
vn 0.14283913 0.49200153 0.85879654
vn 0.904648 -0.3650334 0.21991508
vn 0.14283913 -0.49200153 0.85879654
vn 0.87290597 0.46025956 0.16185267
vn 0.52374357 0.46025956 0.716836
vn 0.8094219 -0.4602595 0.36468804
vn 0.49200153 -0.49200153 0.7182402
vn 0.8094219 0.46025956 0.36468798
vn -0.42808634 -0.90373784 -0
vn 0.39677542 -0.904648 0.1555032
vn 0.39677542 -0.904648 0.1555032
vn -0.49101302 -0.87115216 -0
vn 0.39677542 -0.904648 -0.1555032
vn -0.23806524 -0.904648 -0.3534642
vn 0.23806524 -0.87290597 0.4258639
vn -0.49101302 -0.87115216 -0
vn 0.39677542 -0.904648 -0.1555032
vn -0.047613025 -0.93639004 -0.34771642
vn 0.047613025 -0.84116393 0.5386801
vn -0.49101302 -0.87115216 -0
vn 0.39677542 -0.904648 -0.1555032
vn -0.015871048 -0.93639004 -0.3506021
vn 0.015870988 -0.84116393 0.54054725
vn -0.42808634 -0.90373784 -0
vn 0.23806524 -0.87290597 -0.4258639
vn 0.047613025 -0.93639004 -0.34771642
vn -0.047613025 -0.84116393 0.5386801
vn -0.23806524 -0.904648 0.3534642
vn 0.047613025 -0.84116393 -0.5386801
vn 0.23806524 -0.904648 -0.3534642
vn -0.23806524 -0.87290597 0.4258639
vn -0.047613025 -0.93639004 0.34771642
vn -0.015871048 -0.84116393 -0.54054725
vn 0.42808634 -0.90373784 -0
vn -0.39677548 -0.904648 0.1555032
vn 0.015870988 -0.93639004 0.3506021
vn -0.047613025 -0.84116393 -0.5386801
vn 0.49101302 -0.87115216 -0
vn -0.39677548 -0.904648 0.1555032
vn 0.047613025 -0.93639004 0.34771642
vn -0.23806524 -0.87290597 -0.4258639
vn 0.49101302 -0.87115216 -0
vn -0.39677548 -0.904648 0.1555032
vn 0.23806524 -0.904648 0.3534642
vn -0.39677548 -0.904648 -0.1555032
vn 0.49101302 -0.87115216 -0
vn -0.39677548 -0.904648 -0.1555032
vn 0.42808634 -0.90373784 -0
vn 0.9632913 -0.26845822 -0
vn 0.9632913 -0.26845822 -0
vn 0.9632913 -0.26845822 -0
vn 0.87290597 -0.23806524 0.42586392
vn 0.5554856 -0.23806524 0.7967187
vn 0.14283913 -0.26980728 0.952261
vn 0.87290597 -0.23806524 -0.42586392
vn 0.9968654 -0.07911628 -0
vn 0.9968654 -0.07911628 -0
vn 0.84116393 -0.52374357 -0.1346695
vn 0.9968654 -0.07911628 -0
vn 0.5554856 -0.23806524 -0.7967187
vn 0.904648 -0.1110971 -0.41142368
vn 0.14283913 -0.26980728 -0.952261
vn 0.52374357 -0.14283913 -0.8398152
vn -0.015871048 -0.3650334 -0.93085915
vn 0.904648 -0.1110971 0.41142368
vn 0.7459378 -0.49200153 -0.44890004
vn 0.14283913 -0.14283913 -0.9793845
vn -0.1428392 -0.26980728 -0.952261
vn 0.49200153 -0.33329135 -0.8042707
vn 0.17458117 -0.49200153 -0.8529103
vn 0.015870988 -0.17458117 -0.98451483
vn 0.26980728 -0.87290597 -0.4064962
vn -0.1428392 -0.14283913 -0.9793845
vn -0.5554856 -0.23806524 -0.7967187
vn 0.015870988 -0.49200153 -0.87044966
vn -0.5237436 -0.14283913 -0.8398152
vn -0.87290597 -0.23806524 -0.42586392
vn -0.17458117 -0.49200153 -0.8529103
vn -0.96329135 -0.26845822 -0
vn -0.90464807 -0.1110971 -0.41142353
vn -0.49200153 -0.33329135 -0.8042707
vn -0.7459378 -0.49200153 -0.44890004
vn -0.841164 -0.52374357 -0.13466929
vn -0.26980734 -0.87290597 -0.4064962
vn -0.96329135 -0.26845822 -0
vn -0.9968654 -0.07911628 -0
vn 0.015870988 -0.904648 -0.42586398
vn -0.96329135 -0.26845822 -0
vn -0.9968654 -0.07911628 -0
vn -0.87290597 -0.23806524 0.42586392
vn -0.9968654 -0.07911628 -0
vn -0.5554856 -0.23806524 0.7967187
vn -0.3332914 -0.93639004 -0.1099571
vn -0.841164 -0.52374357 -0.13466929
vn -0.90464807 -0.1110971 0.41142353
vn -0.1428392 -0.26980728 0.952261
vn -0.30154932 -0.93639004 -0.17955975
vn -0.841164 -0.52374357 0.13466929
vn -0.5237436 -0.14283913 0.8398152
vn -0.015871048 -0.3650334 0.93085915
vn -0.1428392 -0.14283913 0.9793845
vn -0.7459378 -0.49200153 0.44890004
vn -0.3332914 -0.93639004 0.1099571
vn -0.015871048 -0.17458117 0.98451483
vn -0.49200153 -0.33329135 0.8042707
vn -0.17458117 -0.49200153 0.8529103
vn -0.26980734 -0.87290597 0.4064962
vn 0.14283913 -0.14283913 0.9793845
vn 0.015870988 -0.49200153 0.87044966
vn -0.015871048 -0.904648 0.42586398
vn 0.52374357 -0.14283913 0.8398152
vn 0.17458117 -0.49200153 0.8529103
vn -0.015871048 -0.9998741 -0
vn 0.49200153 -0.33329135 0.8042707
vn 0.7459378 -0.49200153 0.44890004
vn 0.26980728 -0.87290597 0.4064962
vn 0.84116393 -0.52374357 0.1346695
vn -0.015871048 -0.9998741 -0
vn 0.33329135 -0.93639004 0.1099571
vn 0.84116393 -0.52374357 -0.1346695
vn 0.30154932 -0.93639004 -0.17955975
vn -0.015871048 -0.9998741 -0
vn 0.33329135 -0.93639004 -0.1099571
g packagingBasket_Sealed_0
f 3/3/3 2/2/2 1/1/1
f 2/2/2 4/4/4 1/1/1
f 5/5/5 3/3/3 1/1/1
f 1/1/1 4/4/4 6/6/6
f 4/4/4 7/7/7 6/6/6
f 8/8/8 5/5/5 1/1/1
f 8/8/8 1/1/1 6/6/6
f 6/6/6 7/7/7 9/9/9
f 7/7/7 10/10/10 9/9/9
f 9/9/9 10/10/10 11/11/11
f 11/11/11 12/12/12 9/9/9
f 8/8/8 13/13/13 5/5/5
f 13/13/13 14/14/14 5/5/5
f 15/15/15 14/14/14 13/13/13
f 16/16/16 8/8/8 6/6/6
f 16/16/16 6/6/6 9/9/9
f 13/13/13 8/8/8 16/16/16
f 9/9/9 12/12/12 17/17/17
f 17/17/17 16/16/16 9/9/9
f 12/12/12 18/18/18 17/17/17
f 19/19/19 15/15/15 13/13/13
f 20/20/20 15/15/15 19/19/19
f 21/21/21 13/13/13 16/16/16
f 21/21/21 16/16/16 17/17/17
f 19/19/19 13/13/13 21/21/21
f 17/17/17 18/18/18 22/22/22
f 22/22/22 21/21/21 17/17/17
f 18/18/18 23/23/23 22/22/22
f 24/24/24 20/20/20 19/19/19
f 25/25/25 20/20/20 24/24/24
f 26/26/26 25/25/25 24/24/24
f 27/27/27 26/26/26 24/24/24
f 28/28/28 19/19/19 21/21/21
f 28/28/28 21/21/21 22/22/22
f 24/24/24 19/19/19 28/28/28
f 22/22/22 23/23/23 29/29/29
f 29/29/29 28/28/28 22/22/22
f 23/23/23 30/30/30 29/29/29
f 31/31/31 27/27/27 24/24/24
f 31/31/31 24/24/24 28/28/28
f 31/31/31 28/28/28 29/29/29
f 32/32/32 27/27/27 31/31/31
f 29/29/29 30/30/30 33/33/33
f 33/33/33 31/31/31 29/29/29
f 33/33/33 32/32/32 31/31/31
f 30/30/30 34/34/34 33/33/33
f 33/33/33 35/35/35 32/32/32
f 34/34/34 35/35/35 33/33/33
f 38/38/38 37/37/37 36/36/36
f 39/39/39 38/38/38 36/36/36
f 36/36/36 37/37/37 40/40/40
f 41/41/41 38/38/38 39/39/39
f 37/37/37 42/42/42 40/40/40
f 43/43/43 41/41/41 39/39/39
f 40/40/40 42/42/42 44/44/44
f 45/45/45 41/41/41 43/43/43
f 42/42/42 46/46/46 44/44/44
f 47/47/47 45/45/45 43/43/43
f 44/44/44 46/46/46 48/48/48
f 49/49/49 45/45/45 47/47/47
f 46/46/46 50/50/50 48/48/48
f 51/51/51 49/49/49 47/47/47
f 48/48/48 50/50/50 52/52/52
f 53/53/53 49/49/49 51/51/51
f 50/50/50 54/54/54 52/52/52
f 55/55/55 53/53/53 51/51/51
f 52/52/52 54/54/54 56/56/56
f 57/57/57 53/53/53 55/55/55
f 54/54/54 58/58/58 56/56/56
f 59/59/59 57/57/57 55/55/55
f 56/56/56 58/58/58 60/60/60
f 61/61/61 57/57/57 59/59/59
f 58/58/58 62/62/62 60/60/60
f 63/63/63 61/61/61 59/59/59
f 60/60/60 62/62/62 64/64/64
f 65/65/65 61/61/61 63/63/63
f 62/62/62 66/66/66 64/64/64
f 67/67/67 65/65/65 63/63/63
f 64/64/64 66/66/66 68/68/68
f 69/69/69 65/65/65 67/67/67
f 66/66/66 70/70/70 68/68/68
f 71/71/71 69/69/69 67/67/67
f 68/68/68 70/70/70 72/72/72
f 73/73/73 69/69/69 71/71/71
f 70/70/70 74/74/74 72/72/72
f 75/75/75 73/73/73 71/71/71
f 72/72/72 74/74/74 75/75/75
f 74/74/74 73/73/73 75/75/75
f 78/78/78 77/77/77 76/76/76
f 77/77/77 79/79/79 76/76/76
f 80/80/80 77/77/77 78/78/78
f 76/76/76 79/79/79 81/81/81
f 82/82/82 80/80/80 78/78/78
f 79/79/79 83/83/83 81/81/81
f 84/84/84 80/80/80 82/82/82
f 81/81/81 83/83/83 85/85/85
f 86/86/86 84/84/84 82/82/82
f 83/83/83 87/87/87 85/85/85
f 88/88/88 84/84/84 86/86/86
f 85/85/85 87/87/87 89/89/89
f 90/90/90 88/88/88 86/86/86
f 87/87/87 91/91/91 89/89/89
f 92/92/92 88/88/88 90/90/90
f 89/89/89 91/91/91 93/93/93
f 94/94/94 92/92/92 90/90/90
f 91/91/91 95/95/95 93/93/93
f 96/96/96 92/92/92 94/94/94
f 93/93/93 95/95/95 97/97/97
f 98/98/98 96/96/96 94/94/94
f 95/95/95 99/99/99 97/97/97
f 100/100/100 96/96/96 98/98/98
f 97/97/97 99/99/99 101/101/101
f 102/102/102 100/100/100 98/98/98
f 99/99/99 103/103/103 101/101/101
f 104/104/104 100/100/100 102/102/102
f 101/101/101 103/103/103 105/105/105
f 106/106/106 104/104/104 102/102/102
f 103/103/103 107/107/107 105/105/105
f 108/108/108 104/104/104 106/106/106
f 105/105/105 107/107/107 109/109/109
f 110/110/110 108/108/108 106/106/106
f 107/107/107 111/111/111 109/109/109
f 112/112/112 108/108/108 110/110/110
f 109/109/109 111/111/111 113/113/113
f 114/114/114 112/112/112 110/110/110
f 111/111/111 115/115/115 113/113/113
f 115/115/115 112/112/112 114/114/114
f 113/113/113 115/115/115 114/114/114
f 118/118/118 117/117/117 116/116/116
f 119/119/119 118/118/118 116/116/116
f 116/116/116 117/117/117 120/120/120
f 121/121/121 118/118/118 119/119/119
f 117/117/117 122/122/122 120/120/120
f 123/123/123 121/121/121 119/119/119
f 120/120/120 122/122/122 124/124/124
f 125/125/125 121/121/121 123/123/123
f 122/122/122 126/126/126 124/124/124
f 127/127/127 125/125/125 123/123/123
f 124/124/124 126/126/126 128/128/128
f 129/129/129 125/125/125 127/127/127
f 126/126/126 130/130/130 128/128/128
f 131/131/131 129/129/129 127/127/127
f 128/128/128 130/130/130 132/132/132
f 133/133/133 129/129/129 131/131/131
f 130/130/130 134/134/134 132/132/132
f 135/135/135 133/133/133 131/131/131
f 132/132/132 134/134/134 136/136/136
f 137/137/137 133/133/133 135/135/135
f 134/134/134 138/138/138 136/136/136
f 139/139/139 137/137/137 135/135/135
f 136/136/136 138/138/138 140/140/140
f 141/141/141 137/137/137 139/139/139
f 138/138/138 142/142/142 140/140/140
f 143/143/143 141/141/141 139/139/139
f 140/140/140 142/142/142 144/144/144
f 145/145/145 141/141/141 143/143/143
f 142/142/142 146/146/146 144/144/144
f 147/147/147 145/145/145 143/143/143
f 144/144/144 146/146/146 148/148/148
f 149/149/149 145/145/145 147/147/147
f 146/146/146 150/150/150 148/148/148
f 151/151/151 149/149/149 147/147/147
f 148/148/148 150/150/150 152/152/152
f 153/153/153 149/149/149 151/151/151
f 150/150/150 154/154/154 152/152/152
f 155/155/155 153/153/153 151/151/151
f 152/152/152 154/154/154 155/155/155
f 154/154/154 153/153/153 155/155/155
f 158/158/158 157/157/157 156/156/156
f 159/159/159 158/158/158 156/156/156
f 160/160/160 158/158/158 159/159/159
f 156/156/156 157/157/157 161/161/161
f 157/157/157 162/162/162 161/161/161
f 163/163/163 160/160/160 159/159/159
f 164/164/164 160/160/160 163/163/163
f 161/161/161 162/162/162 165/165/165
f 162/162/162 166/166/166 165/165/165
f 167/167/167 164/164/164 163/163/163
f 168/168/168 164/164/164 167/167/167
f 165/165/165 166/166/166 169/169/169
f 166/166/166 170/170/170 169/169/169
f 171/171/171 168/168/168 167/167/167
f 172/172/172 168/168/168 171/171/171
f 169/169/169 170/170/170 173/173/173
f 170/170/170 174/174/174 173/173/173
f 175/175/175 172/172/172 171/171/171
f 176/176/176 172/172/172 175/175/175
f 173/173/173 174/174/174 177/177/177
f 174/174/174 178/178/178 177/177/177
f 179/179/179 176/176/176 175/175/175
f 180/180/180 176/176/176 179/179/179
f 177/177/177 178/178/178 181/181/181
f 178/178/178 182/182/182 181/181/181
f 183/183/183 180/180/180 179/179/179
f 184/184/184 180/180/180 183/183/183
f 181/181/181 182/182/182 185/185/185
f 182/182/182 186/186/186 185/185/185
f 187/187/187 184/184/184 183/183/183
f 188/188/188 184/184/184 187/187/187
f 185/185/185 186/186/186 189/189/189
f 186/186/186 190/190/190 189/189/189
f 191/191/191 188/188/188 187/187/187
f 192/192/192 188/188/188 191/191/191
f 189/189/189 190/190/190 193/193/193
f 190/190/190 194/194/194 193/193/193
f 194/194/194 192/192/192 195/195/195
f 195/195/195 192/192/192 191/191/191
f 193/193/193 194/194/194 195/195/195
f 181/181/181 185/185/185 196/196/196
f 185/185/185 189/189/189 197/197/197
f 196/196/196 185/185/185 197/197/197
f 189/189/189 193/193/193 198/198/198
f 197/197/197 189/189/189 198/198/198
f 193/193/193 195/195/195 199/199/199
f 198/198/198 193/193/193 199/199/199
f 195/195/195 191/191/191 200/200/200
f 199/199/199 195/195/195 200/200/200
f 191/191/191 187/187/187 201/201/201
f 200/200/200 191/191/191 201/201/201
f 202/202/202 181/181/181 196/196/196
f 177/177/177 181/181/181 202/202/202
f 196/196/196 197/197/197 203/203/203
f 196/196/196 203/203/203 202/202/202
f 197/197/197 198/198/198 204/204/204
f 197/197/197 204/204/204 203/203/203
f 203/203/203 204/204/204 205/205/205
f 198/198/198 199/199/199 206/206/206
f 198/198/198 206/206/206 204/204/204
f 207/207/207 177/177/177 202/202/202
f 173/173/173 177/177/177 207/207/207
f 203/203/203 208/208/208 202/202/202
f 203/203/203 205/205/205 208/208/208
f 202/202/202 208/208/208 207/207/207
f 209/209/209 173/173/173 207/207/207
f 169/169/169 173/173/173 209/209/209
f 208/208/208 210/210/210 207/207/207
f 209/209/209 207/207/207 210/210/210
f 211/211/211 169/169/169 209/209/209
f 165/165/165 169/169/169 211/211/211
f 199/199/199 212/212/212 206/206/206
f 199/199/199 200/200/200 212/212/212
f 205/205/205 213/213/213 208/208/208
f 208/208/208 213/213/213 210/210/210
f 214/214/214 209/209/209 210/210/210
f 211/211/211 209/209/209 214/214/214
f 215/215/215 165/165/165 211/211/211
f 161/161/161 165/165/165 215/215/215
f 213/213/213 216/216/216 210/210/210
f 214/214/214 210/210/210 216/216/216
f 217/217/217 216/216/216 213/213/213
f 217/217/217 214/214/214 216/216/216
f 218/218/218 211/211/211 214/214/214
f 218/218/218 214/214/214 217/217/217
f 219/219/219 217/217/217 213/213/213
f 219/219/219 213/213/213 205/205/205
f 215/215/215 211/211/211 220/220/220
f 211/211/211 218/218/218 220/220/220
f 221/221/221 161/161/161 215/215/215
f 156/156/156 161/161/161 221/221/221
f 222/222/222 218/218/218 217/217/217
f 222/222/222 217/217/217 219/219/219
f 221/221/221 215/215/215 223/223/223
f 215/215/215 220/220/220 223/223/223
f 224/224/224 156/156/156 221/221/221
f 221/221/221 223/223/223 224/224/224
f 159/159/159 156/156/156 224/224/224
f 220/220/220 218/218/218 225/225/225
f 218/218/218 222/222/222 225/225/225
f 226/226/226 159/159/159 224/224/224
f 163/163/163 159/159/159 226/226/226
f 223/223/223 227/227/227 224/224/224
f 224/224/224 227/227/227 226/226/226
f 223/223/223 220/220/220 228/228/228
f 220/220/220 225/225/225 228/228/228
f 228/228/228 229/229/229 223/223/223
f 228/228/228 225/225/225 229/229/229
f 229/229/229 227/227/227 223/223/223
f 229/229/229 230/230/230 227/227/227
f 225/225/225 231/231/231 229/229/229
f 225/225/225 222/222/222 231/231/231
f 229/229/229 231/231/231 230/230/230
f 232/232/232 163/163/163 226/226/226
f 167/167/167 163/163/163 232/232/232
f 227/227/227 233/233/233 226/226/226
f 230/230/230 233/233/233 227/227/227
f 232/232/232 226/226/226 233/233/233
f 222/222/222 234/234/234 231/231/231
f 234/234/234 222/222/222 219/219/219
f 235/235/235 167/167/167 232/232/232
f 171/171/171 167/167/167 235/235/235
f 236/236/236 232/232/232 233/233/233
f 236/236/236 233/233/233 230/230/230
f 235/235/235 232/232/232 236/236/236
f 237/237/237 171/171/171 235/235/235
f 175/175/175 171/171/171 237/237/237
f 238/238/238 235/235/235 236/236/236
f 237/237/237 235/235/235 238/238/238
f 239/239/239 175/175/175 237/237/237
f 179/179/179 175/175/175 239/239/239
f 231/231/231 234/234/234 240/240/240
f 231/231/231 240/240/240 230/230/230
f 241/241/241 236/236/236 230/230/230
f 238/238/238 236/236/236 241/241/241
f 242/242/242 237/237/237 238/238/238
f 239/239/239 237/237/237 242/242/242
f 243/243/243 179/179/179 239/239/239
f 183/183/183 179/179/179 243/243/243
f 230/230/230 240/240/240 244/244/244
f 241/241/241 230/230/230 244/244/244
f 245/245/245 238/238/238 241/241/241
f 242/242/242 238/238/238 245/245/245
f 246/246/246 239/239/239 242/242/242
f 239/239/239 246/246/246 243/243/243
f 247/247/247 183/183/183 243/243/243
f 187/187/187 183/183/183 247/247/247
f 201/201/201 187/187/187 247/247/247
f 243/243/243 248/248/248 247/247/247
f 246/246/246 248/248/248 243/243/243
f 246/246/246 242/242/242 249/249/249
f 249/249/249 242/242/242 245/245/245
f 245/245/245 241/241/241 250/250/250
f 241/241/241 244/244/244 250/250/250
f 247/247/247 251/251/251 201/201/201
f 248/248/248 251/251/251 247/247/247
f 246/246/246 252/252/252 248/248/248
f 252/252/252 246/246/246 249/249/249
f 252/252/252 253/253/253 248/248/248
f 252/252/252 249/249/249 253/253/253
f 248/248/248 253/253/253 251/251/251
f 249/249/249 245/245/245 254/254/254
f 249/249/249 254/254/254 253/253/253
f 245/245/245 250/250/250 254/254/254
f 251/251/251 255/255/255 201/201/201
f 201/201/201 255/255/255 200/200/200
f 253/253/253 256/256/256 251/251/251
f 253/253/253 254/254/254 256/256/256
f 255/255/255 251/251/251 256/256/256
f 254/254/254 250/250/250 257/257/257
f 254/254/254 257/257/257 256/256/256
f 255/255/255 258/258/258 200/200/200
f 200/200/200 258/258/258 212/212/212
f 259/259/259 255/255/255 256/256/256
f 259/259/259 256/256/256 257/257/257
f 250/250/250 260/260/260 257/257/257
f 250/250/250 244/244/244 260/260/260
f 261/261/261 258/258/258 255/255/255
f 259/259/259 261/261/261 255/255/255
f 258/258/258 261/261/261 262/262/262
f 212/212/212 258/258/258 262/262/262
f 262/262/262 261/261/261 259/259/259
f 263/263/263 259/259/259 257/257/257
f 263/263/263 262/262/262 259/259/259
f 263/263/263 257/257/257 260/260/260
f 212/212/212 262/262/262 264/264/264
f 264/264/264 262/262/262 263/263/263
f 206/206/206 212/212/212 264/264/264
f 244/244/244 265/265/265 260/260/260
f 244/244/244 240/240/240 265/265/265
f 266/266/266 263/263/263 260/260/260
f 266/266/266 264/264/264 263/263/263
f 266/266/266 260/260/260 265/265/265
f 206/206/206 264/264/264 267/267/267
f 267/267/267 264/264/264 266/266/266
f 204/204/204 206/206/206 267/267/267
f 204/204/204 267/267/267 205/205/205
f 268/268/268 267/267/267 266/266/266
f 268/268/268 266/266/266 265/265/265
f 205/205/205 267/267/267 268/268/268
f 240/240/240 269/269/269 265/265/265
f 268/268/268 265/265/265 269/269/269
f 234/234/234 269/269/269 240/240/240
f 270/270/270 205/205/205 268/268/268
f 270/270/270 268/268/268 269/269/269
f 269/269/269 234/234/234 270/270/270
f 270/270/270 219/219/219 205/205/205
f 234/234/234 219/219/219 270/270/270
