g palm_tree_01
v 2.698432 12.684384 0.4279728
v 2.6304665 12.70704 0.7677994
v 4.9639425 13.069522 1.2662115
v 5.077218 13.024211 0.8131094
v 6.59511 12.118007 0.13345623
v 3.2421546 11.846147 -0.59150696
v 2.698432 12.684384 0.4279728
v 5.077218 13.024211 0.8131094
v 7.8184857 12.457833 2.2177258
v 8.022382 12.367213 1.243557
v 7.8864512 11.959422 1.288867
v 7.70521 12.072698 2.2177258
v 6.2326283 12.842971 2.7161388
v 7.8184857 12.457833 2.2177258
v 7.70521 12.072698 2.2177258
v 6.1873183 12.389869 2.6708279
v 1.2485051 12.299249 0.04283619
v 0.025129318 11.257113 -0.13840485
v 0.22902536 10.917287 -0.04778433
v 1.4524012 11.823491 0.15611172
v -0.1108017 11.325078 0.5412483
v 1.1352296 12.367213 0.65452385
v 1.3391256 11.891456 0.72248936
v 0.093094826 10.985251 0.6092138
v 0.025129318 11.257113 -0.13840485
v -0.1108017 11.325078 0.5412483
v 0.093094826 10.985251 0.6092138
v 0.22902536 10.917287 -0.04778433
v 8.022382 12.367213 1.243557
v 6.6630754 12.548455 -0.0024738312
v 6.59511 12.118007 0.13345623
v 7.8864512 11.959422 1.288867
v 1.7695723 11.846147 -0.56885195
v 1.2485051 12.299249 0.04283619
v 1.4524012 11.823491 0.15611172
v 1.9055033 11.461009 -0.41026592
v 3.174189 12.253938 -0.772748
v 1.7695723 11.846147 -0.56885195
v 1.9055033 11.461009 -0.41026592
v 3.2421546 11.846147 -0.59150696
v 6.6630754 12.548455 -0.0024738312
v 6.59511 12.118007 0.13345623
v 1.1352296 12.367213 0.65452385
v 1.3164701 12.050042 1.470108
v 1.4750562 11.642251 1.4474525
v 1.3391256 11.891456 0.72248936
v 1.3164701 12.050042 1.470108
v 2.8570175 12.639075 2.2856913
v 2.947638 12.185973 2.2403812
v 1.4750562 11.642251 1.4474525
v 1.3391256 11.891456 0.72248936
v 0.22902536 10.917287 -0.04778433
v 0.093094826 10.985251 0.6092138
v 1.4524012 11.823491 0.15611172
v 2.6304665 12.70704 0.7677994
v 2.698432 12.684384 0.4279728
v 1.4524012 11.823491 0.15611172
v 2.698432 12.684384 0.4279728
v 3.2421546 11.846147 -0.59150696
v 1.9055033 11.461009 -0.41026592
v 2.6304665 12.70704 0.7677994
v 1.3391256 11.891456 0.72248936
v 1.4750562 11.642251 1.4474525
v 2.947638 12.185973 2.2403812
v 4.9639425 13.069522 1.2662115
v 2.6304665 12.70704 0.7677994
v 2.947638 12.185973 2.2403812
v 6.1873183 12.389869 2.6708279
v 5.077218 13.024211 0.8131094
v 6.2552834 12.752351 1.0849705
v 7.8864512 11.959422 1.288867
v 6.59511 12.118007 0.13345623
v 2.8570175 12.639075 2.2856913
v 6.2326283 12.842971 2.7161388
v 6.1873183 12.389869 2.6708279
v 2.947638 12.185973 2.2403812
v 6.1646633 12.79766 1.5607281
v 4.9639425 13.069522 1.2662115
v 6.1873183 12.389869 2.6708279
v 7.70521 12.072698 2.2177258
v 5.077218 13.024211 0.8131094
v 4.9639425 13.069522 1.2662115
v 6.1646633 12.79766 1.5607281
v 6.2552834 12.752351 1.0849705
v 7.70521 12.072698 2.2177258
v 7.8864512 11.959422 1.288867
v 5.099873 13.567935 0.65452385
v 2.5625014 13.182797 0.22407722
v 3.174189 12.253938 -0.772748
v 6.6630754 12.548455 -0.0024738312
v 1.1352296 12.367213 0.65452385
v -0.1108017 11.325078 0.5412483
v 0.025129318 11.257113 -0.13840485
v 1.2485051 12.299249 0.04283619
v 2.449226 13.250762 0.79045486
v 2.5625014 13.182797 0.22407722
v 1.2485051 12.299249 0.04283619
v 1.7695723 11.846147 -0.56885195
v 3.174189 12.253938 -0.772748
v 2.5625014 13.182797 0.22407722
v 2.449226 13.250762 0.79045486
v 2.8570175 12.639075 2.2856913
v 1.3164701 12.050042 1.470108
v 1.1352296 12.367213 0.65452385
v 4.9639425 13.658555 1.334177
v 6.2326283 12.842971 2.7161388
v 2.8570175 12.639075 2.2856913
v 2.449226 13.250762 0.79045486
v 5.099873 13.567935 0.65452385
v 6.6630754 12.548455 -0.0024738312
v 8.022382 12.367213 1.243557
v 6.4365244 13.273417 0.97169495
v 2.5625014 13.182797 0.22407722
v 5.099873 13.567935 0.65452385
v 4.9639425 13.658555 1.334177
v 2.449226 13.250762 0.79045486
v 6.300594 13.3640375 1.6286936
v 7.8184857 12.457833 2.2177258
v 6.2326283 12.842971 2.7161388
v 4.9639425 13.658555 1.334177
v 5.099873 13.567935 0.65452385
v 6.4365244 13.273417 0.97169495
v 6.300594 13.3640375 1.6286936
v 4.9639425 13.658555 1.334177
v 6.4365244 13.273417 0.97169495
v 8.022382 12.367213 1.243557
v 7.8184857 12.457833 2.2177258
v 6.300594 13.3640375 1.6286936
v 0.59150696 12.820315 2.2403812
v 0.2969904 12.820315 2.2856913
v 0.6821275 13.386693 4.4152718
v 1.0899191 13.4093485 4.3473063
v 2.3586054 12.842971 5.412096
v 1.7695723 12.208629 2.3536568
v 0.59150696 12.820315 2.2403812
v 1.0899191 13.4093485 4.3473063
v 0.99929905 13.137486 7.2245045
v 1.9281583 13.137486 7.0432634
v 1.9055033 12.752351 6.975299
v 1.021954 12.729695 7.156539
v -0.04283619 13.228108 6.046439
v 0.99929905 13.137486 7.2245045
v 1.021954 12.729695 7.156539
v 0.04778433 12.79766 6.0237837
v 0.45557642 12.344558 0.8810749
v 0.27433538 11.257113 -0.115749836
v 0.31964588 10.939942 0.1108017
v 0.50088644 11.914111 1.152936
v -0.3600073 11.257113 -0.0024738312
v -0.13345623 12.344558 1.0170059
v -0.04283619 11.914111 1.2662115
v -0.29204178 10.939942 0.24673176
v 0.27433538 11.257113 -0.115749836
v -0.3600073 11.257113 -0.0024738312
v -0.29204178 10.939942 0.24673176
v 0.31964588 10.939942 0.1108017
v 1.9281583 13.137486 7.0432634
v 2.449226 13.273417 5.412096
v 2.3586054 12.842971 5.412096
v 1.9055033 12.752351 6.975299
v 1.2258501 12.050042 1.1302814
v 0.45557642 12.344558 0.8810749
v 0.50088644 11.914111 1.152936
v 1.1578846 11.68756 1.334177
v 1.8375378 12.639075 2.1950712
v 1.2258501 12.050042 1.1302814
v 1.1578846 11.68756 1.334177
v 1.7695723 12.208629 2.3536568
v 2.449226 13.273417 5.412096
v 2.3586054 12.842971 5.412096
v -0.13345623 12.344558 1.0170059
v -0.72248936 12.004731 1.4927626
v -0.58655834 11.642251 1.6513481
v -0.04283619 11.914111 1.2662115
v -0.72248936 12.004731 1.4927626
v -0.9037304 12.661731 3.0559654
v -0.7677994 12.253938 3.169241
v -0.58655834 11.642251 1.6513481
v -0.04283619 11.914111 1.2662115
v 0.31964588 10.939942 0.1108017
v -0.29204178 10.939942 0.24673176
v 0.50088644 11.914111 1.152936
v 0.2969904 12.820315 2.2856913
v 0.59150696 12.820315 2.2403812
v 0.50088644 11.914111 1.152936
v 0.59150696 12.820315 2.2403812
v 1.7695723 12.208629 2.3536568
v 1.1578846 11.68756 1.334177
v 0.2969904 12.820315 2.2856913
v -0.04283619 11.914111 1.2662115
v -0.58655834 11.642251 1.6513481
v -0.7677994 12.253938 3.169241
v 0.6821275 13.386693 4.4152718
v 0.2969904 12.820315 2.2856913
v -0.7677994 12.253938 3.169241
v 0.04778433 12.79766 6.0237837
v 1.0899191 13.4093485 4.3473063
v 1.3391256 13.273417 5.457406
v 1.9055033 12.752351 6.975299
v 2.3586054 12.842971 5.412096
v -0.9037304 12.661731 3.0559654
v -0.04283619 13.228108 6.046439
v 0.04778433 12.79766 6.0237837
v -0.7677994 12.253938 3.169241
v 0.90867853 13.273417 5.548027
v 0.6821275 13.386693 4.4152718
v 0.04778433 12.79766 6.0237837
v 1.021954 12.729695 7.156539
v 1.0899191 13.4093485 4.3473063
v 0.6821275 13.386693 4.4152718
v 0.90867853 13.273417 5.548027
v 1.3391256 13.273417 5.457406
v 1.021954 12.729695 7.156539
v 1.9055033 12.752351 6.975299
v 1.1805396 13.953071 4.256686
v 0.65947247 13.318728 1.9911747
v 1.8375378 12.639075 2.1950712
v 2.449226 13.273417 5.412096
v -0.13345623 12.344558 1.0170059
v -0.3600073 11.257113 -0.0024738312
v 0.27433538 11.257113 -0.115749836
v 0.45557642 12.344558 0.8810749
v 0.115749836 13.296073 2.1044502
v 0.65947247 13.318728 1.9911747
v 0.45557642 12.344558 0.8810749
v 1.2258501 12.050042 1.1302814
v 1.8375378 12.639075 2.1950712
v 0.65947247 13.318728 1.9911747
v 0.115749836 13.296073 2.1044502
v -0.9037304 12.661731 3.0559654
v -0.72248936 12.004731 1.4927626
v -0.13345623 12.344558 1.0170059
v 0.54619694 13.930415 4.3926163
v -0.04283619 13.228108 6.046439
v -0.9037304 12.661731 3.0559654
v 0.115749836 13.296073 2.1044502
v 1.1805396 13.953071 4.256686
v 2.449226 13.273417 5.412096
v 1.9281583 13.137486 7.0432634
v 1.4297457 13.81714 5.5253716
v 0.65947247 13.318728 1.9911747
v 1.1805396 13.953071 4.256686
v 0.54619694 13.930415 4.3926163
v 0.115749836 13.296073 2.1044502
v 0.818058 13.81714 5.638647
v 0.99929905 13.137486 7.2245045
v -0.04283619 13.228108 6.046439
v 0.54619694 13.930415 4.3926163
v 1.1805396 13.953071 4.256686
v 1.4297457 13.81714 5.5253716
v 0.818058 13.81714 5.638647
v 0.54619694 13.930415 4.3926163
v -2.6934834 14.836619 2.94269
v -0.8131094 12.933591 1.9458647
v -2.852069 14.451484 2.988
v -0.5412483 13.250762 1.8325891
v -0.33735275 12.095353 1.334177
v -0.04283619 12.344558 1.243557
v 1.4297457 13.81714 5.5253716
v 1.9281583 13.137486 7.0432634
v 0.99929905 13.137486 7.2245045
v 0.818058 13.81714 5.638647
v -0.9490404 13.182797 0.8131094
v -1.0849705 13.160142 0.6092138
v -2.4669323 14.315553 1.2662115
v -2.2856913 14.360864 1.5607281
v -2.852069 14.451484 2.988
v -0.8131094 12.933591 1.9458647
v -0.9490404 13.182797 0.8131094
v -2.2856913 14.360864 1.5607281
v -4.6191673 15.040517 2.2630367
v -4.166065 15.153792 2.94269
v -4.211375 14.79131 3.0106544
v -4.641823 14.678035 2.3536568
v -4.0074797 14.610068 1.107626
v -4.6191673 15.040517 2.2630367
v -4.641823 14.678035 2.3536568
v -4.0527897 14.224933 1.288867
v -0.020180702 12.412524 0.4959383
v 0.4329214 11.2118025 0.38266277
v 0.18371487 11.007907 0.5639038
v -0.33735275 12.140662 0.69983387
v 0.115749836 11.121182 -0.115749836
v -0.31469727 12.344558 0.04283619
v -0.6092138 12.072698 0.29204178
v -0.13345623 10.939942 0.08814621
v 0.4329214 11.2118025 0.38266277
v 0.115749836 11.121182 -0.115749836
v -0.13345623 10.939942 0.08814621
v 0.18371487 11.007907 0.5639038
v -4.166065 15.153792 2.94269
v -2.6934834 14.836619 2.94269
v -2.852069 14.451484 2.988
v -4.211375 14.79131 3.0106544
v -0.04283619 12.344558 1.243557
v -0.020180702 12.412524 0.4959383
v -0.33735275 12.140662 0.69983387
v -0.33735275 12.095353 1.334177
v -0.31469727 12.344558 0.04283619
v -0.97169495 12.118007 -0.22902536
v -1.152936 11.891456 0.04283619
v -0.6092138 12.072698 0.29204178
v -0.97169495 12.118007 -0.22902536
v -2.0817957 13.092177 -0.16105986
v -2.2177258 12.79766 0.08814621
v -1.152936 11.891456 0.04283619
v -0.6092138 12.072698 0.29204178
v 0.18371487 11.007907 0.5639038
v -0.13345623 10.939942 0.08814621
v -0.33735275 12.140662 0.69983387
v -1.0849705 13.160142 0.6092138
v -0.9490404 13.182797 0.8131094
v -0.33735275 12.140662 0.69983387
v -0.9490404 13.182797 0.8131094
v -0.8131094 12.933591 1.9458647
v -0.33735275 12.095353 1.334177
v -1.0849705 13.160142 0.6092138
v -0.6092138 12.072698 0.29204178
v -1.152936 11.891456 0.04283619
v -2.2177258 12.79766 0.08814621
v -2.4669323 14.315553 1.2662115
v -1.0849705 13.160142 0.6092138
v -2.2177258 12.79766 0.08814621
v -4.0527897 14.224933 1.288867
v -2.2856913 14.360864 1.5607281
v -3.07862 14.632724 2.0591402
v -4.211375 14.79131 3.0106544
v -2.852069 14.451484 2.988
v -2.0817957 13.092177 -0.16105986
v -4.0074797 14.610068 1.107626
v -4.0527897 14.224933 1.288867
v -2.2177258 12.79766 0.08814621
v -3.2825165 14.587415 1.7419691
v -2.4669323 14.315553 1.2662115
v -4.0527897 14.224933 1.288867
v -4.641823 14.678035 2.3536568
v -2.2856913 14.360864 1.5607281
v -2.4669323 14.315553 1.2662115
v -3.2825165 14.587415 1.7419691
v -3.07862 14.632724 2.0591402
v -4.641823 14.678035 2.3536568
v -4.211375 14.79131 3.0106544
v -2.0364857 14.836619 1.470108
v -0.58655834 13.5452795 0.65452385
v -0.5412483 13.250762 1.8325891
v -2.6934834 14.836619 2.94269
v -0.31469727 12.344558 0.04283619
v 0.115749836 11.121182 -0.115749836
v 0.4329214 11.2118025 0.38266277
v -0.020180702 12.412524 0.4959383
v -0.8584194 13.477313 0.24673176
v -0.58655834 13.5452795 0.65452385
v -0.020180702 12.412524 0.4959383
v -0.04283619 12.344558 1.243557
v -0.5412483 13.250762 1.8325891
v -0.58655834 13.5452795 0.65452385
v -0.8584194 13.477313 0.24673176
v -2.0817957 13.092177 -0.16105986
v -0.97169495 12.118007 -0.22902536
v -0.31469727 12.344558 0.04283619
v -2.3536568 14.768655 0.99435043
v -4.0074797 14.610068 1.107626
v -2.0817957 13.092177 -0.16105986
v -0.8584194 13.477313 0.24673176
v -2.0364857 14.836619 1.470108
v -2.6934834 14.836619 2.94269
v -4.166065 15.153792 2.94269
v -2.9653444 15.153792 2.0138302
v -0.58655834 13.5452795 0.65452385
v -2.0364857 14.836619 1.470108
v -2.3536568 14.768655 0.99435043
v -0.8584194 13.477313 0.24673176
v -3.259861 15.085826 1.5607281
v -4.6191673 15.040517 2.2630367
v -4.0074797 14.610068 1.107626
v -2.3536568 14.768655 0.99435043
v -2.0364857 14.836619 1.470108
v -2.9653444 15.153792 2.0138302
v -3.259861 15.085826 1.5607281
v -2.3536568 14.768655 0.99435043
v -2.1044502 13.182797 -1.0672641
v -2.3536568 13.160142 -0.54619694
v -4.732443 13.3640375 -1.6109867
v -4.4152718 13.386693 -2.2679849
v -2.9653444 15.153792 2.0138302
v -4.166065 15.153792 2.94269
v -4.6191673 15.040517 2.2630367
v -3.259861 15.085826 1.5607281
v -0.33735275 10.011083 -6.2552834
v -0.4959383 8.425225 -7.252108
v 0.50088644 8.425225 -7.252108
v 0.31964588 10.011083 -6.2552834
v -0.31469727 11.642251 -1.1805396
v -0.29204178 11.800836 -2.743742
v 0.27433538 11.800836 -2.743742
v 0.31964588 11.642251 -1.1805396
v -0.33735275 11.325078 0.4053173
v 0.3423009 11.325078 0.4053173
v 0.27433538 11.800836 -2.743742
v 0.3423009 10.917287 -5.2131486
v 1.3391256 9.37674 -6.096698
v 1.5883317 10.826667 -3.0156035
v -0.3600073 10.917287 -5.2131486
v -0.33735275 10.011083 -6.2552834
v 0.31964588 10.011083 -6.2552834
v 0.3423009 10.917287 -5.2131486
v 0.31964588 10.011083 -6.2552834
v 0.50088644 8.425225 -7.252108
v 1.3391256 9.37674 -6.096698
v 0.3423009 10.917287 -5.2131486
v -0.29204178 11.800836 -2.743742
v -1.4927626 10.917287 -2.721087
v -1.4021425 9.444705 -6.0060773
v -0.3600073 10.917287 -5.2131486
v -0.3600073 10.917287 -5.2131486
v -1.4021425 9.444705 -6.0060773
v -0.4959383 8.425225 -7.252108
v -0.33735275 10.011083 -6.2552834
v -0.17876625 11.257113 -2.6531215
v 0.16105986 11.257113 -2.6531215
v 0.22902536 10.418874 -4.941287
v -0.24673176 10.418874 -4.941287
v 0.27433538 11.800836 -2.743742
v 1.5883317 10.826667 -3.0156035
v 1.0446091 11.143838 -1.2938151
v 0.31964588 11.642251 -1.1805396
v -0.31469727 11.642251 -1.1805396
v -1.062316 11.143838 -1.3391256
v -1.4927626 10.917287 -2.721087
v -0.29204178 11.800836 -2.743742
v -0.24673176 9.6032915 -5.8701468
v 0.47823143 8.13071 -6.957592
v -0.4732828 8.13071 -6.957592
v 0.25168037 9.6032915 -5.8701468
v -0.24673176 10.418874 -4.941287
v 0.22902536 10.418874 -4.941287
v -0.29204178 11.143838 -1.1352296
v 0.16105986 11.257113 -2.6531215
v -0.17876625 11.257113 -2.6531215
v 0.2969904 11.143838 -1.1352296
v -0.33735275 10.917287 0.38266277
v 0.3423009 10.917287 0.38266277
v 1.4750562 10.39622 -2.8796725
v 1.5883317 10.826667 -3.0156035
v 1.3391256 9.37674 -6.096698
v 1.2711601 9.014258 -5.8474913
v 0.25168037 9.6032915 -5.8701468
v 0.22902536 10.418874 -4.941287
v 1.2711601 9.014258 -5.8474913
v 0.47823143 8.13071 -6.957592
v -0.17876625 11.257113 -2.6531215
v -0.24673176 10.418874 -4.941287
v -1.334177 9.082223 -5.756871
v -1.379487 10.48684 -2.5851564
v -0.24673176 10.418874 -4.941287
v -0.24673176 9.6032915 -5.8701468
v -0.4732828 8.13071 -6.957592
v -1.334177 9.082223 -5.756871
v -1.379487 10.48684 -2.5851564
v -1.334177 9.082223 -5.756871
v -1.4021425 9.444705 -6.0060773
v -1.4927626 10.917287 -2.721087
v -0.97169495 10.713391 -1.2711601
v -1.062316 11.143838 -1.3391256
v 0.16105986 11.257113 -2.6531215
v 0.2969904 11.143838 -1.1352296
v 0.95398855 10.736047 -1.2258501
v 1.4750562 10.39622 -2.8796725
v -0.29204178 11.143838 -1.1352296
v -0.17876625 11.257113 -2.6531215
v -1.379487 10.48684 -2.5851564
v -0.97169495 10.713391 -1.2711601
v 1.0446091 11.143838 -1.2938151
v 1.5883317 10.826667 -3.0156035
v 1.4750562 10.39622 -2.8796725
v 0.95398855 10.736047 -1.2258501
v 1.4750562 10.39622 -2.8796725
v 1.2711601 9.014258 -5.8474913
v 0.22902536 10.418874 -4.941287
v 0.16105986 11.257113 -2.6531215
v 0.31964588 11.642251 -1.1805396
v 1.0446091 11.143838 -1.2938151
v 0.95398855 10.736047 -1.2258501
v 0.2969904 11.143838 -1.1352296
v -1.062316 11.143838 -1.3391256
v -0.31469727 11.642251 -1.1805396
v -0.29204178 11.143838 -1.1352296
v -0.97169495 10.713391 -1.2711601
v -0.4959383 8.425225 -7.252108
v -1.4021425 9.444705 -6.0060773
v -1.334177 9.082223 -5.756871
v -0.4732828 8.13071 -6.957592
v -0.33735275 11.325078 0.4053173
v 0.3423009 11.325078 0.4053173
v 0.3423009 10.917287 0.38266277
v -0.33735275 10.917287 0.38266277
v 0.3423009 11.325078 0.4053173
v 0.31964588 11.642251 -1.1805396
v 0.2969904 11.143838 -1.1352296
v 0.3423009 10.917287 0.38266277
v -0.31469727 11.642251 -1.1805396
v -0.33735275 11.325078 0.4053173
v -0.33735275 10.917287 0.38266277
v -0.29204178 11.143838 -1.1352296
v 1.3391256 9.37674 -6.096698
v 0.50088644 8.425225 -7.252108
v 0.47823143 8.13071 -6.957592
v 1.2711601 9.014258 -5.8474913
v 0.50088644 8.425225 -7.252108
v -0.4959383 8.425225 -7.252108
v -0.4732828 8.13071 -6.957592
v 0.47823143 8.13071 -6.957592
v 0.97664356 0.020180702 -0.0024738312
v 0.6821275 -0.0024738312 0.67717934
v 0.52354145 2.7614489 1.107626
v 0.7500925 2.7614489 0.58655834
v 0.795403 2.4895878 0.5412483
v 0.54619694 2.5122423 1.0849705
v 0.50088644 5.0722694 1.334177
v 0.7047825 5.049615 0.8584194
v 0.7500925 4.777753 0.8357649
v 0.54619694 4.823064 1.379487
v 0.47823143 7.3604355 1.334177
v 0.6821275 7.3151255 0.8810749
v 0.7500925 7.020609 0.8810749
v 0.52354145 7.0885744 1.4021425
v 0.47823143 9.399394 1.0849705
v 0.6821275 9.308774 0.6092138
v 0.795403 9.059567 0.65452385
v 0.54619694 9.195498 1.1755915
v 0.3423009 11.2118025 0.5639038
v 0.47823143 11.121182 0.24673176
v 0.0024738312 0.04283619 -0.95398855
v 0.6821275 0.04283619 -0.6821275
v 0.54619694 2.7614489 0.04283619
v 0.0024738312 2.7614489 -0.18371487
v 0.0024738312 2.4442768 -0.25168037
v 0.54619694 2.4669323 -0.0024738312
v 0.50088644 5.0269594 0.3600073
v 0.0024738312 5.0269594 0.13345623
v 0.0024738312 4.7097883 0.08814621
v 0.54619694 4.732443 0.31469727
v 0.47823143 7.2698145 0.4053173
v 0.0024738312 7.24716 0.20142174
v 0.0024738312 6.9073334 0.13345623
v 0.52354145 6.9526434 0.3600073
v 0.47823143 9.195498 0.13345623
v 0.0024738312 9.150189 -0.07043934
v 0.0024738312 8.878327 -0.115749836
v 0.54619694 8.923638 0.1108017
v 0.3423009 11.030562 -0.07043934
v 0.0024738312 11.007907 -0.20637035
v -0.67717934 0.04283619 -0.6821275
v 0.0024738312 0.04283619 -0.95398855
v 0.0024738312 2.7614489 -0.18371487
v -0.5412483 2.7614489 0.04283619
v -0.5639038 2.4669323 -0.0024738312
v 0.0024738312 2.4442768 -0.25168037
v 0.0024738312 5.0269594 0.13345623
v -0.4959383 5.0269594 0.3600073
v -0.5412483 4.732443 0.31469727
v 0.0024738312 4.7097883 0.08814621
v 0.0024738312 7.24716 0.20142174
v -0.4732828 7.2698145 0.4053173
v -0.51859283 6.9526434 0.3600073
v 0.0024738312 6.9073334 0.13345623
v 0.0024738312 9.150189 -0.07043934
v -0.4959383 9.195498 0.13345623
v -0.5639038 8.923638 0.1108017
v 0.0024738312 8.878327 -0.115749836
v 0.0024738312 11.007907 -0.20637035
v -0.33735275 11.030562 -0.07043934
v -0.69983387 -0.0024738312 0.67717934
v -0.97169495 0.020180702 -0.0024738312
v -0.7451439 2.7614489 0.58655834
v -0.51859283 2.7614489 1.107626
v -0.5412483 2.5122423 1.0849705
v -0.79045486 2.4895878 0.5412483
v -0.69983387 5.049615 0.8584194
v -0.4959383 5.0722694 1.334177
v -0.5412483 4.823064 1.379487
v -0.7677994 4.777753 0.8357649
v -0.67717934 7.3151255 0.8810749
v -0.4732828 7.3604355 1.334177
v -0.51859283 7.0885744 1.4021425
v -0.7451439 7.020609 0.8810749
v -0.67717934 9.308774 0.6092138
v -0.4732828 9.399394 1.0849705
v -0.5639038 9.195498 1.1755915
v -0.79045486 9.059567 0.65452385
v -0.4732828 11.121182 0.24673176
v -0.33735275 11.2118025 0.5639038
v 0.6821275 -0.0024738312 0.67717934
v 0.0024738312 -0.025129318 0.97169495
v 0.0024738312 2.7614489 1.3115215
v 0.52354145 2.7614489 1.107626
v 0.54619694 2.5122423 1.0849705
v 0.0024738312 2.5122423 1.3115215
v 0.0024738312 5.0722694 1.5380726
v 0.50088644 5.0722694 1.334177
v 0.54619694 4.823064 1.379487
v 0.0024738312 4.8457184 1.5833836
v 0.0024738312 7.38309 1.5380726
v 0.47823143 7.3604355 1.334177
v 0.52354145 7.0885744 1.4021425
v 0.0024738312 7.111229 1.6060381
v 0.0024738312 9.444705 1.2662115
v 0.47823143 9.399394 1.0849705
v 0.54619694 9.195498 1.1755915
v 0.0024738312 9.240809 1.4021425
v 0.0024738312 11.257113 0.69983387
v 0.3423009 11.2118025 0.5639038
v 0.6821275 0.04283619 -0.6821275
v 0.97664356 0.020180702 -0.0024738312
v 0.7500925 2.7614489 0.58655834
v 0.54619694 2.7614489 0.04283619
v 0.54619694 2.4669323 -0.0024738312
v 0.795403 2.4895878 0.5412483
v 0.7047825 5.049615 0.8584194
v 0.50088644 5.0269594 0.3600073
v 0.54619694 4.732443 0.31469727
v 0.7500925 4.777753 0.8357649
v 0.6821275 7.3151255 0.8810749
v 0.47823143 7.2698145 0.4053173
v 0.52354145 6.9526434 0.3600073
v 0.7500925 7.020609 0.8810749
v 0.6821275 9.308774 0.6092138
v 0.47823143 9.195498 0.13345623
v 0.54619694 8.923638 0.1108017
v 0.795403 9.059567 0.65452385
v 0.47823143 11.121182 0.24673176
v 0.3423009 11.030562 -0.07043934
v -0.97169495 0.020180702 -0.0024738312
v -0.67717934 0.04283619 -0.6821275
v -0.5412483 2.7614489 0.04283619
v -0.7451439 2.7614489 0.58655834
v -0.79045486 2.4895878 0.5412483
v -0.5639038 2.4669323 -0.0024738312
v -0.4959383 5.0269594 0.3600073
v -0.69983387 5.049615 0.8584194
v -0.7677994 4.777753 0.8357649
v -0.5412483 4.732443 0.31469727
v -0.4732828 7.2698145 0.4053173
v -0.67717934 7.3151255 0.8810749
v -0.7451439 7.020609 0.8810749
v -0.51859283 6.9526434 0.3600073
v -0.4959383 9.195498 0.13345623
v -0.67717934 9.308774 0.6092138
v -0.79045486 9.059567 0.65452385
v -0.5639038 8.923638 0.1108017
v -0.33735275 11.030562 -0.07043934
v -0.4732828 11.121182 0.24673176
v 0.0024738312 -0.025129318 0.97169495
v -0.69983387 -0.0024738312 0.67717934
v -0.51859283 2.7614489 1.107626
v 0.0024738312 2.7614489 1.3115215
v 0.0024738312 2.5122423 1.3115215
v -0.5412483 2.5122423 1.0849705
v -0.4959383 5.0722694 1.334177
v 0.0024738312 5.0722694 1.5380726
v 0.0024738312 4.8457184 1.5833836
v -0.5412483 4.823064 1.379487
v -0.4732828 7.3604355 1.334177
v 0.0024738312 7.38309 1.5380726
v 0.0024738312 7.111229 1.6060381
v -0.51859283 7.0885744 1.4021425
v -0.4732828 9.399394 1.0849705
v 0.0024738312 9.444705 1.2662115
v 0.0024738312 9.240809 1.4021425
v -0.5639038 9.195498 1.1755915
v -0.33735275 11.2118025 0.5639038
v 0.0024738312 11.257113 0.69983387
v -5.910508 12.978902 -2.2226748
v -7.3604355 11.936767 -2.7890525
v -6.929988 11.982078 -3.6952567
v -5.6159925 13.001557 -2.8343625
v -1.107626 12.367213 0.04283619
v -2.3536568 13.160142 -0.54619694
v -2.1044502 13.182797 -1.0672641
v -0.8357649 12.389869 -0.52354145
v 0.07043934 11.438354 0.6092138
v 0.3649559 11.461009 -0.0024738312
v -2.1044502 13.182797 -1.0672641
v -4.4152718 13.386693 -2.2679849
v -5.276166 12.389869 -3.8085322
v -2.1044502 12.43518 -2.539846
v -4.732443 13.3640375 -1.6109867
v -5.910508 12.978902 -2.2226748
v -5.6159925 13.001557 -2.8343625
v -4.4152718 13.386693 -2.2679849
v -5.6159925 13.001557 -2.8343625
v -6.929988 11.982078 -3.6952567
v -5.276166 12.389869 -3.8085322
v -4.4152718 13.386693 -2.2679849
v -2.3536568 13.160142 -0.54619694
v -3.169241 12.299249 0.3600073
v -6.3636103 12.321904 -1.2938151
v -4.732443 13.3640375 -1.6109867
v -4.732443 13.3640375 -1.6109867
v -6.3636103 12.321904 -1.2938151
v -7.3604355 11.936767 -2.7890525
v -5.910508 12.978902 -2.2226748
v -2.4216223 12.639075 -0.7274375
v -2.2630367 12.639075 -1.0446091
v -4.4152718 12.820315 -2.1547093
v -4.6191673 12.820315 -1.7242622
v -2.1044502 13.182797 -1.0672641
v -2.1044502 12.43518 -2.539846
v -0.79045486 11.982078 -1.3391256
v -0.8357649 12.389869 -0.52354145
v -1.107626 12.367213 0.04283619
v -1.7646236 11.936767 0.5412483
v -3.169241 12.299249 0.3600073
v -2.3536568 13.160142 -0.54619694
v -5.7066126 12.457833 -2.2453299
v -6.794058 11.574285 -3.6272912
v -7.2245045 11.551629 -2.743742
v -5.4800615 12.457833 -2.698432
v -4.6191673 12.820315 -1.7242622
v -4.4152718 12.820315 -2.1547093
v -1.2662115 11.891456 -0.07043934
v -2.2630367 12.639075 -1.0446091
v -2.4216223 12.639075 -0.7274375
v -1.0170059 11.914111 -0.59150696
v -0.08814621 11.053218 0.51859283
v 0.20637035 11.075873 -0.093094826
v -2.1950712 11.982078 -2.494536
v -2.1044502 12.43518 -2.539846
v -5.276166 12.389869 -3.8085322
v -5.230855 11.959422 -3.7179117
v -5.4800615 12.457833 -2.698432
v -4.4152718 12.820315 -2.1547093
v -5.230855 11.959422 -3.7179117
v -6.794058 11.574285 -3.6272912
v -2.4216223 12.639075 -0.7274375
v -4.6191673 12.820315 -1.7242622
v -6.2503347 11.891456 -1.3391256
v -3.169241 11.868802 0.22407722
v -4.6191673 12.820315 -1.7242622
v -5.7066126 12.457833 -2.2453299
v -7.2245045 11.551629 -2.743742
v -6.2503347 11.891456 -1.3391256
v -3.169241 11.868802 0.22407722
v -6.2503347 11.891456 -1.3391256
v -6.3636103 12.321904 -1.2938151
v -3.169241 12.299249 0.3600073
v -1.8099346 11.551629 0.38266277
v -1.7646236 11.936767 0.5412483
v -2.2630367 12.639075 -1.0446091
v -1.0170059 11.914111 -0.59150696
v -0.9490404 11.59694 -1.3164701
v -2.1950712 11.982078 -2.494536
v -1.2662115 11.891456 -0.07043934
v -2.4216223 12.639075 -0.7274375
v -3.169241 11.868802 0.22407722
v -1.8099346 11.551629 0.38266277
v -0.79045486 11.982078 -1.3391256
v -2.1044502 12.43518 -2.539846
v -2.1950712 11.982078 -2.494536
v -0.9490404 11.59694 -1.3164701
v -2.1950712 11.982078 -2.494536
v -5.230855 11.959422 -3.7179117
v -4.4152718 12.820315 -2.1547093
v -2.2630367 12.639075 -1.0446091
v -0.8357649 12.389869 -0.52354145
v -0.79045486 11.982078 -1.3391256
v -0.9490404 11.59694 -1.3164701
v -1.0170059 11.914111 -0.59150696
v -1.7646236 11.936767 0.5412483
v -1.107626 12.367213 0.04283619
v -1.2662115 11.891456 -0.07043934
v -1.8099346 11.551629 0.38266277
v -7.3604355 11.936767 -2.7890525
v -6.3636103 12.321904 -1.2938151
v -6.2503347 11.891456 -1.3391256
v -7.2245045 11.551629 -2.743742
v 0.07043934 11.438354 0.6092138
v 0.3649559 11.461009 -0.0024738312
v 0.20637035 11.075873 -0.093094826
v -0.08814621 11.053218 0.51859283
v 0.3649559 11.461009 -0.0024738312
v -0.8357649 12.389869 -0.52354145
v -1.0170059 11.914111 -0.59150696
v 0.20637035 11.075873 -0.093094826
v 0.27433538 11.800836 -2.743742
v -0.29204178 11.800836 -2.743742
v -0.3600073 10.917287 -5.2131486
v 0.3423009 10.917287 -5.2131486
v -1.107626 12.367213 0.04283619
v 0.07043934 11.438354 0.6092138
v -0.08814621 11.053218 0.51859283
v -1.2662115 11.891456 -0.07043934
v -5.276166 12.389869 -3.8085322
v -6.929988 11.982078 -3.6952567
v -6.794058 11.574285 -3.6272912
v -5.230855 11.959422 -3.7179117
v -6.929988 11.982078 -3.6952567
v -7.3604355 11.936767 -2.7890525
v -7.2245045 11.551629 -2.743742
v -6.794058 11.574285 -3.6272912
v 0.0024738312 8.878327 -0.115749836
v 0.0024738312 8.991603 0.67717934
v 0.54619694 8.923638 0.1108017
v -0.5639038 8.923638 0.1108017
v 0.795403 9.059567 0.65452385
v -0.79045486 9.059567 0.65452385
v 0.54619694 9.195498 1.1755915
v -0.5639038 9.195498 1.1755915
v 0.0024738312 9.240809 1.4021425
v 0.52354145 6.9526434 0.3600073
v 0.0024738312 6.9526434 0.8810749
v 0.7500925 7.020609 0.8810749
v 0.0024738312 6.9073334 0.13345623
v 0.52354145 7.0885744 1.4021425
v -0.51859283 6.9526434 0.3600073
v 0.0024738312 7.111229 1.6060381
v -0.7451439 7.020609 0.8810749
v -0.51859283 7.0885744 1.4021425
v 0.54619694 4.823064 1.379487
v 0.0024738312 4.7097883 0.8584194
v 0.0024738312 4.8457184 1.5833836
v 0.7500925 4.777753 0.8357649
v -0.5412483 4.823064 1.379487
v 0.54619694 4.732443 0.31469727
v -0.7677994 4.777753 0.8357649
v 0.0024738312 4.7097883 0.08814621
v -0.5412483 4.732443 0.31469727
v 0.54619694 2.4669323 -0.0024738312
v 0.0024738312 2.4216223 0.5639038
v 0.795403 2.4895878 0.5412483
v 0.0024738312 2.4442768 -0.25168037
v 0.54619694 2.5122423 1.0849705
v -0.5639038 2.4669323 -0.0024738312
v 0.0024738312 2.5122423 1.3115215
v -0.79045486 2.4895878 0.5412483
v -0.5412483 2.5122423 1.0849705
vt 0.15673742 0.409739
vt 0.15673742 0.409739
vt 0.15673742 0.409739
vt 0.15673742 0.409739
vt 0.15673742 0.409739
vt 0.15673742 0.409739
vt 0.15673742 0.409739
vt 0.15673742 0.409739
vt 0.15673742 0.409739
vt 0.15673742 0.409739
vt 0.15673742 0.409739
vt 0.15673742 0.409739
vt 0.15673742 0.409739
vt 0.15673742 0.409739
vt 0.15673742 0.409739
vt 0.15673742 0.409739
vt 0.15673742 0.409739
vt 0.15673742 0.409739
vt 0.15673742 0.409739
vt 0.15673742 0.409739
vt 0.15673742 0.409739
vt 0.15673742 0.409739
vt 0.15673742 0.409739
vt 0.15673742 0.409739
vt 0.15673742 0.409739
vt 0.15673742 0.409739
vt 0.15673742 0.409739
vt 0.15673742 0.409739
vt 0.15673742 0.409739
vt 0.15673742 0.409739
vt 0.15673742 0.409739
vt 0.15673742 0.409739
vt 0.15673742 0.409739
vt 0.15673742 0.409739
vt 0.15673742 0.409739
vt 0.15673742 0.409739
vt 0.15673742 0.409739
vt 0.15673742 0.409739
vt 0.15673742 0.409739
vt 0.15673742 0.409739
vt 0.15673742 0.409739
vt 0.15673742 0.409739
vt 0.15673742 0.409739
vt 0.15673742 0.409739
vt 0.15673742 0.409739
vt 0.15673742 0.409739
vt 0.15673742 0.409739
vt 0.15673742 0.409739
vt 0.15673742 0.409739
vt 0.15673742 0.409739
vt 0.15673742 0.409739
vt 0.15673742 0.409739
vt 0.15673742 0.409739
vt 0.15673742 0.409739
vt 0.15673742 0.409739
vt 0.15673742 0.409739
vt 0.15673742 0.409739
vt 0.15673742 0.409739
vt 0.15673742 0.409739
vt 0.15673742 0.409739
vt 0.15673742 0.409739
vt 0.15673742 0.409739
vt 0.15673742 0.409739
vt 0.15673742 0.409739
vt 0.15673742 0.409739
vt 0.15673742 0.409739
vt 0.15673742 0.409739
vt 0.15673742 0.409739
vt 0.15673742 0.409739
vt 0.15673742 0.409739
vt 0.15673742 0.409739
vt 0.15673742 0.409739
vt 0.15673742 0.409739
vt 0.15673742 0.409739
vt 0.15673742 0.409739
vt 0.15673742 0.409739
vt 0.15673742 0.409739
vt 0.15673742 0.409739
vt 0.15673742 0.409739
vt 0.15673742 0.409739
vt 0.15673742 0.409739
vt 0.15673742 0.409739
vt 0.15673742 0.409739
vt 0.15673742 0.409739
vt 0.15673742 0.409739
vt 0.15673742 0.409739
vt 0.15673742 0.409739
vt 0.15673742 0.409739
vt 0.15673742 0.409739
vt 0.15673742 0.409739
vt 0.15673742 0.409739
vt 0.15673742 0.409739
vt 0.15673742 0.409739
vt 0.15673742 0.409739
vt 0.15673742 0.409739
vt 0.15673742 0.409739
vt 0.15673742 0.409739
vt 0.15673742 0.409739
vt 0.15673742 0.409739
vt 0.15673742 0.409739
vt 0.15673742 0.409739
vt 0.15673742 0.409739
vt 0.15673742 0.409739
vt 0.15673742 0.409739
vt 0.15673742 0.409739
vt 0.15673742 0.409739
vt 0.15673742 0.409739
vt 0.15673742 0.409739
vt 0.15673742 0.409739
vt 0.15673742 0.409739
vt 0.15673742 0.409739
vt 0.15673742 0.409739
vt 0.15673742 0.409739
vt 0.15673742 0.409739
vt 0.15673742 0.409739
vt 0.15673742 0.409739
vt 0.15673742 0.409739
vt 0.15673742 0.409739
vt 0.15673742 0.409739
vt 0.15673742 0.409739
vt 0.15673742 0.409739
vt 0.15673742 0.409739
vt 0.15673742 0.409739
vt 0.15673742 0.409739
vt 0.15673742 0.409739
vt 0.15673742 0.409739
vt 0.15673742 0.409739
vt 0.15673742 0.409739
vt 0.15673742 0.409739
vt 0.15673742 0.409739
vt 0.15673742 0.409739
vt 0.15673742 0.409739
vt 0.15673742 0.409739
vt 0.15673742 0.409739
vt 0.15673742 0.409739
vt 0.15673742 0.409739
vt 0.15673742 0.409739
vt 0.15673742 0.409739
vt 0.15673742 0.409739
vt 0.15673742 0.409739
vt 0.15673742 0.409739
vt 0.15673742 0.409739
vt 0.15673742 0.409739
vt 0.15673742 0.409739
vt 0.15673742 0.409739
vt 0.15673742 0.409739
vt 0.15673742 0.409739
vt 0.15673742 0.409739
vt 0.15673742 0.409739
vt 0.15673742 0.409739
vt 0.15673742 0.409739
vt 0.15673742 0.409739
vt 0.15673742 0.409739
vt 0.15673742 0.409739
vt 0.15673742 0.409739
vt 0.15673742 0.409739
vt 0.15673742 0.409739
vt 0.15673742 0.409739
vt 0.15673742 0.409739
vt 0.15673742 0.409739
vt 0.15673742 0.409739
vt 0.15673742 0.409739
vt 0.15673742 0.409739
vt 0.15673742 0.409739
vt 0.15673742 0.409739
vt 0.15673742 0.409739
vt 0.15673742 0.409739
vt 0.15673742 0.409739
vt 0.15673742 0.409739
vt 0.15673742 0.409739
vt 0.15673742 0.409739
vt 0.15673742 0.409739
vt 0.15673742 0.409739
vt 0.15673742 0.409739
vt 0.15673742 0.409739
vt 0.15673742 0.409739
vt 0.15673742 0.409739
vt 0.15673742 0.409739
vt 0.15673742 0.409739
vt 0.15673742 0.409739
vt 0.15673742 0.409739
vt 0.15673742 0.409739
vt 0.15673742 0.409739
vt 0.15673742 0.409739
vt 0.15673742 0.409739
vt 0.15673742 0.409739
vt 0.15673742 0.409739
vt 0.15673742 0.409739
vt 0.15673742 0.409739
vt 0.15673742 0.409739
vt 0.15673742 0.409739
vt 0.15673742 0.409739
vt 0.15673742 0.409739
vt 0.15673742 0.409739
vt 0.15673742 0.409739
vt 0.15673742 0.409739
vt 0.15673742 0.409739
vt 0.15673742 0.409739
vt 0.15673742 0.409739
vt 0.15673742 0.409739
vt 0.15673742 0.409739
vt 0.15673742 0.409739
vt 0.15673742 0.409739
vt 0.15673742 0.409739
vt 0.15673742 0.409739
vt 0.15673742 0.409739
vt 0.15673742 0.409739
vt 0.15673742 0.409739
vt 0.15673742 0.409739
vt 0.15673742 0.409739
vt 0.15673742 0.409739
vt 0.15673742 0.409739
vt 0.15673742 0.409739
vt 0.15673742 0.409739
vt 0.15673742 0.409739
vt 0.15673742 0.409739
vt 0.15673742 0.409739
vt 0.15673742 0.409739
vt 0.15673742 0.409739
vt 0.15673742 0.409739
vt 0.15673742 0.409739
vt 0.15673742 0.409739
vt 0.15673742 0.409739
vt 0.15673742 0.409739
vt 0.15673742 0.409739
vt 0.15673742 0.409739
vt 0.15673742 0.409739
vt 0.15673742 0.409739
vt 0.15673742 0.409739
vt 0.15673742 0.409739
vt 0.15673742 0.409739
vt 0.15673742 0.409739
vt 0.15673742 0.409739
vt 0.15673742 0.409739
vt 0.15673742 0.409739
vt 0.15673742 0.409739
vt 0.15673742 0.409739
vt 0.15673742 0.409739
vt 0.15673742 0.409739
vt 0.15673742 0.409739
vt 0.15673742 0.409739
vt 0.15673742 0.409739
vt 0.15673742 0.409739
vt 0.15673742 0.409739
vt 0.15673742 0.409739
vt 0.15673742 0.409739
vt 0.15673742 0.409739
vt 0.15673742 0.409739
vt 0.15673742 0.409739
vt 0.15673742 0.409739
vt 0.15673742 0.409739
vt 0.15673742 0.409739
vt 0.15673742 0.409739
vt 0.15673742 0.409739
vt 0.15673742 0.409739
vt 0.15673742 0.409739
vt 0.15673742 0.409739
vt 0.15673742 0.409739
vt 0.15673742 0.409739
vt 0.15673742 0.409739
vt 0.15673742 0.409739
vt 0.15673742 0.409739
vt 0.15673742 0.409739
vt 0.15673742 0.409739
vt 0.15673742 0.409739
vt 0.15673742 0.409739
vt 0.15673742 0.409739
vt 0.15673742 0.409739
vt 0.15673742 0.409739
vt 0.15673742 0.409739
vt 0.15673742 0.409739
vt 0.15673742 0.409739
vt 0.15673742 0.409739
vt 0.15673742 0.409739
vt 0.15673742 0.409739
vt 0.15673742 0.409739
vt 0.15673742 0.409739
vt 0.15673742 0.409739
vt 0.15673742 0.409739
vt 0.15673742 0.409739
vt 0.15673742 0.409739
vt 0.15673742 0.409739
vt 0.15673742 0.409739
vt 0.15673742 0.409739
vt 0.15673742 0.409739
vt 0.15673742 0.409739
vt 0.15673742 0.409739
vt 0.15673742 0.409739
vt 0.15673742 0.409739
vt 0.15673742 0.409739
vt 0.15673742 0.409739
vt 0.15673742 0.409739
vt 0.15673742 0.409739
vt 0.15673742 0.409739
vt 0.15673742 0.409739
vt 0.15673742 0.409739
vt 0.15673742 0.409739
vt 0.15673742 0.409739
vt 0.15673742 0.409739
vt 0.15673742 0.409739
vt 0.15673742 0.409739
vt 0.15673742 0.409739
vt 0.15673742 0.409739
vt 0.15673742 0.409739
vt 0.15673742 0.409739
vt 0.15673742 0.409739
vt 0.15673742 0.409739
vt 0.15673742 0.409739
vt 0.15673742 0.409739
vt 0.15673742 0.409739
vt 0.15673742 0.409739
vt 0.15673742 0.409739
vt 0.15673742 0.409739
vt 0.15673742 0.409739
vt 0.15673742 0.409739
vt 0.15673742 0.409739
vt 0.15673742 0.409739
vt 0.15673742 0.409739
vt 0.15673742 0.409739
vt 0.15673742 0.409739
vt 0.15673742 0.409739
vt 0.15673742 0.409739
vt 0.15673742 0.409739
vt 0.15673742 0.409739
vt 0.15673742 0.409739
vt 0.15673742 0.409739
vt 0.15673742 0.409739
vt 0.15673742 0.409739
vt 0.15673742 0.409739
vt 0.15673742 0.409739
vt 0.15673742 0.409739
vt 0.15673742 0.409739
vt 0.15673742 0.409739
vt 0.15673742 0.409739
vt 0.15673742 0.409739
vt 0.15673742 0.409739
vt 0.15673742 0.409739
vt 0.15673742 0.409739
vt 0.15673742 0.409739
vt 0.15673742 0.409739
vt 0.15673742 0.409739
vt 0.15673742 0.409739
vt 0.15673742 0.409739
vt 0.15673742 0.409739
vt 0.15673742 0.409739
vt 0.15673742 0.409739
vt 0.15673742 0.409739
vt 0.15673742 0.409739
vt 0.15673742 0.409739
vt 0.15673742 0.409739
vt 0.15673742 0.409739
vt 0.15673742 0.409739
vt 0.15673742 0.409739
vt 0.15673742 0.409739
vt 0.15673742 0.409739
vt 0.15673742 0.409739
vt 0.15673742 0.409739
vt 0.15673742 0.409739
vt 0.15673742 0.409739
vt 0.15673742 0.409739
vt 0.15673742 0.409739
vt 0.15673742 0.409739
vt 0.15673742 0.409739
vt 0.15673742 0.409739
vt 0.15673742 0.409739
vt 0.15673742 0.409739
vt 0.15673742 0.409739
vt 0.15673742 0.409739
vt 0.15673742 0.409739
vt 0.15673742 0.409739
vt 0.15673742 0.409739
vt 0.15673742 0.409739
vt 0.15673742 0.409739
vt 0.15673742 0.409739
vt 0.15673742 0.409739
vt 0.15673742 0.409739
vt 0.15673742 0.409739
vt 0.15673742 0.409739
vt 0.15673742 0.409739
vt 0.15673742 0.409739
vt 0.15673742 0.409739
vt 0.15673742 0.409739
vt 0.15673742 0.409739
vt 0.15673742 0.409739
vt 0.15673742 0.409739
vt 0.15673742 0.409739
vt 0.15673742 0.409739
vt 0.15673742 0.409739
vt 0.15673742 0.409739
vt 0.15673742 0.409739
vt 0.15673742 0.409739
vt 0.15673742 0.409739
vt 0.15673742 0.409739
vt 0.15673742 0.409739
vt 0.15673742 0.409739
vt 0.15673742 0.409739
vt 0.15673742 0.409739
vt 0.15673742 0.409739
vt 0.15673742 0.409739
vt 0.15673742 0.409739
vt 0.15673742 0.409739
vt 0.15673742 0.409739
vt 0.15673742 0.409739
vt 0.15673742 0.409739
vt 0.15673742 0.409739
vt 0.15673742 0.409739
vt 0.15673742 0.409739
vt 0.15673742 0.409739
vt 0.15673742 0.409739
vt 0.15673742 0.409739
vt 0.15673742 0.409739
vt 0.15673742 0.409739
vt 0.15673742 0.409739
vt 0.15673742 0.409739
vt 0.15673742 0.409739
vt 0.15673742 0.409739
vt 0.15673742 0.409739
vt 0.15673742 0.409739
vt 0.15673742 0.409739
vt 0.15673742 0.409739
vt 0.15673742 0.409739
vt 0.15673742 0.409739
vt 0.15673742 0.409739
vt 0.15673742 0.409739
vt 0.15673742 0.409739
vt 0.15673742 0.409739
vt 0.15673742 0.409739
vt 0.15673742 0.409739
vt 0.15673742 0.409739
vt 0.15673742 0.409739
vt 0.15673742 0.409739
vt 0.15673742 0.409739
vt 0.15673742 0.409739
vt 0.15673742 0.409739
vt 0.15673742 0.409739
vt 0.15673742 0.409739
vt 0.15673742 0.409739
vt 0.15673742 0.409739
vt 0.15673742 0.409739
vt 0.15673742 0.409739
vt 0.15673742 0.409739
vt 0.15673742 0.409739
vt 0.15673742 0.409739
vt 0.15673742 0.409739
vt 0.15673742 0.409739
vt 0.15673742 0.409739
vt 0.15673742 0.409739
vt 0.15673742 0.409739
vt 0.15673742 0.409739
vt 0.15673742 0.409739
vt 0.15673742 0.409739
vt 0.15673742 0.409739
vt 0.15673742 0.409739
vt 0.15673742 0.409739
vt 0.15673742 0.409739
vt 0.15673742 0.409739
vt 0.15673742 0.409739
vt 0.15673742 0.409739
vt 0.15673742 0.409739
vt 0.15673742 0.409739
vt 0.15673742 0.409739
vt 0.15673742 0.409739
vt 0.15673742 0.409739
vt 0.15673742 0.409739
vt 0.15673742 0.409739
vt 0.15673742 0.409739
vt 0.15673742 0.409739
vt 0.15673742 0.409739
vt 0.15673742 0.409739
vt 0.15673742 0.409739
vt 0.15673742 0.409739
vt 0.15673742 0.409739
vt 0.15673742 0.409739
vt 0.15673742 0.409739
vt 0.15673742 0.409739
vt 0.15673742 0.409739
vt 0.15673742 0.409739
vt 0.15673742 0.409739
vt 0.15673742 0.409739
vt 0.15673742 0.409739
vt 0.15673742 0.409739
vt 0.15673742 0.409739
vt 0.15673742 0.409739
vt 0.15673742 0.409739
vt 0.15673742 0.409739
vt 0.15673742 0.409739
vt 0.15673742 0.409739
vt 0.15673742 0.409739
vt 0.15673742 0.409739
vt 0.15673742 0.409739
vt 0.15673742 0.409739
vt 0.15673742 0.409739
vt 0.15673742 0.409739
vt 0.15673742 0.409739
vt 0.15673742 0.409739
vt 0.15673742 0.409739
vt 0.15673742 0.409739
vt 0.15673742 0.409739
vt 0.15673742 0.409739
vt 0.15673742 0.409739
vt 0.15673742 0.409739
vt 0.15673742 0.409739
vt 0.15673742 0.409739
vt 0.15673742 0.409739
vt 0.15673742 0.409739
vt 0.15673742 0.409739
vt 0.15673742 0.409739
vt 0.15673742 0.409739
vt 0.15673742 0.409739
vt 0.15673742 0.409739
vt 0.15673742 0.409739
vt 0.15673742 0.409739
vt 0.7186363 0.9069165
vt 0.7186363 0.9069165
vt 0.7186363 0.9069165
vt 0.7186363 0.9069165
vt 0.7186363 0.9069165
vt 0.7186363 0.9069165
vt 0.7186363 0.9069165
vt 0.7186363 0.9069165
vt 0.6568568 0.9069165
vt 0.6568568 0.9069165
vt 0.6568568 0.9069165
vt 0.6568568 0.9069165
vt 0.6568568 0.9069165
vt 0.6568568 0.9069165
vt 0.6568568 0.9069165
vt 0.6568568 0.9069165
vt 0.59507734 0.9069165
vt 0.59507734 0.9069165
vt 0.59507734 0.9069165
vt 0.59507734 0.9069165
vt 0.7186363 0.9069165
vt 0.7186363 0.9069165
vt 0.7186363 0.9069165
vt 0.7186363 0.9069165
vt 0.7186363 0.9069165
vt 0.7186363 0.9069165
vt 0.7186363 0.9069165
vt 0.7186363 0.9069165
vt 0.6568568 0.9069165
vt 0.6568568 0.9069165
vt 0.6568568 0.9069165
vt 0.6568568 0.9069165
vt 0.6568568 0.9069165
vt 0.6568568 0.9069165
vt 0.6568568 0.9069165
vt 0.6568568 0.9069165
vt 0.59507734 0.9069165
vt 0.59507734 0.9069165
vt 0.59507734 0.9069165
vt 0.59507734 0.9069165
vt 0.7186363 0.9069165
vt 0.7186363 0.9069165
vt 0.7186363 0.9069165
vt 0.7186363 0.9069165
vt 0.7186363 0.9069165
vt 0.7186363 0.9069165
vt 0.7186363 0.9069165
vt 0.7186363 0.9069165
vt 0.6568568 0.9069165
vt 0.6568568 0.9069165
vt 0.6568568 0.9069165
vt 0.6568568 0.9069165
vt 0.6568568 0.9069165
vt 0.6568568 0.9069165
vt 0.6568568 0.9069165
vt 0.6568568 0.9069165
vt 0.59507734 0.9069165
vt 0.59507734 0.9069165
vt 0.59507734 0.9069165
vt 0.59507734 0.9069165
vt 0.7186363 0.9069165
vt 0.7186363 0.9069165
vt 0.7186363 0.9069165
vt 0.7186363 0.9069165
vt 0.7186363 0.9069165
vt 0.7186363 0.9069165
vt 0.7186363 0.9069165
vt 0.7186363 0.9069165
vt 0.6568568 0.9069165
vt 0.6568568 0.9069165
vt 0.6568568 0.9069165
vt 0.6568568 0.9069165
vt 0.6568568 0.9069165
vt 0.6568568 0.9069165
vt 0.6568568 0.9069165
vt 0.6568568 0.9069165
vt 0.59507734 0.9069165
vt 0.59507734 0.9069165
vt 0.59507734 0.9069165
vt 0.59507734 0.9069165
vt 0.7186363 0.9069165
vt 0.7186363 0.9069165
vt 0.7186363 0.9069165
vt 0.7186363 0.9069165
vt 0.7186363 0.9069165
vt 0.7186363 0.9069165
vt 0.7186363 0.9069165
vt 0.7186363 0.9069165
vt 0.6568568 0.9069165
vt 0.6568568 0.9069165
vt 0.6568568 0.9069165
vt 0.6568568 0.9069165
vt 0.6568568 0.9069165
vt 0.6568568 0.9069165
vt 0.6568568 0.9069165
vt 0.6568568 0.9069165
vt 0.59507734 0.9069165
vt 0.59507734 0.9069165
vt 0.59507734 0.9069165
vt 0.59507734 0.9069165
vt 0.7186363 0.9069165
vt 0.7186363 0.9069165
vt 0.7186363 0.9069165
vt 0.7186363 0.9069165
vt 0.7186363 0.9069165
vt 0.7186363 0.9069165
vt 0.7186363 0.9069165
vt 0.7186363 0.9069165
vt 0.6568568 0.9069165
vt 0.6568568 0.9069165
vt 0.6568568 0.9069165
vt 0.6568568 0.9069165
vt 0.6568568 0.9069165
vt 0.6568568 0.9069165
vt 0.6568568 0.9069165
vt 0.6568568 0.9069165
vt 0.59507734 0.9069165
vt 0.59507734 0.9069165
vt 0.59507734 0.9069165
vt 0.59507734 0.9069165
vt 0.7186363 0.9069165
vt 0.7186363 0.9069165
vt 0.7186363 0.9069165
vt 0.7186363 0.9069165
vt 0.7186363 0.9069165
vt 0.7186363 0.9069165
vt 0.7186363 0.9069165
vt 0.7186363 0.9069165
vt 0.6568568 0.9069165
vt 0.6568568 0.9069165
vt 0.6568568 0.9069165
vt 0.6568568 0.9069165
vt 0.6568568 0.9069165
vt 0.6568568 0.9069165
vt 0.6568568 0.9069165
vt 0.6568568 0.9069165
vt 0.59507734 0.9069165
vt 0.59507734 0.9069165
vt 0.59507734 0.9069165
vt 0.59507734 0.9069165
vt 0.7186363 0.9069165
vt 0.7186363 0.9069165
vt 0.7186363 0.9069165
vt 0.7186363 0.9069165
vt 0.7186363 0.9069165
vt 0.7186363 0.9069165
vt 0.7186363 0.9069165
vt 0.7186363 0.9069165
vt 0.6568568 0.9069165
vt 0.6568568 0.9069165
vt 0.6568568 0.9069165
vt 0.6568568 0.9069165
vt 0.6568568 0.9069165
vt 0.6568568 0.9069165
vt 0.6568568 0.9069165
vt 0.6568568 0.9069165
vt 0.59507734 0.9069165
vt 0.59507734 0.9069165
vt 0.59507734 0.9069165
vt 0.59507734 0.9069165
vt 0.15673742 0.409739
vt 0.15673742 0.409739
vt 0.15673742 0.409739
vt 0.15673742 0.409739
vt 0.15673742 0.409739
vt 0.15673742 0.409739
vt 0.15673742 0.409739
vt 0.15673742 0.409739
vt 0.15673742 0.409739
vt 0.15673742 0.409739
vt 0.15673742 0.409739
vt 0.15673742 0.409739
vt 0.15673742 0.409739
vt 0.15673742 0.409739
vt 0.15673742 0.409739
vt 0.15673742 0.409739
vt 0.15673742 0.409739
vt 0.15673742 0.409739
vt 0.15673742 0.409739
vt 0.15673742 0.409739
vt 0.15673742 0.409739
vt 0.15673742 0.409739
vt 0.15673742 0.409739
vt 0.15673742 0.409739
vt 0.15673742 0.409739
vt 0.15673742 0.409739
vt 0.15673742 0.409739
vt 0.15673742 0.409739
vt 0.15673742 0.409739
vt 0.15673742 0.409739
vt 0.15673742 0.409739
vt 0.15673742 0.409739
vt 0.15673742 0.409739
vt 0.15673742 0.409739
vt 0.15673742 0.409739
vt 0.15673742 0.409739
vt 0.15673742 0.409739
vt 0.15673742 0.409739
vt 0.15673742 0.409739
vt 0.15673742 0.409739
vt 0.15673742 0.409739
vt 0.15673742 0.409739
vt 0.15673742 0.409739
vt 0.15673742 0.409739
vt 0.15673742 0.409739
vt 0.15673742 0.409739
vt 0.15673742 0.409739
vt 0.15673742 0.409739
vt 0.15673742 0.409739
vt 0.15673742 0.409739
vt 0.15673742 0.409739
vt 0.15673742 0.409739
vt 0.15673742 0.409739
vt 0.15673742 0.409739
vt 0.15673742 0.409739
vt 0.15673742 0.409739
vt 0.15673742 0.409739
vt 0.15673742 0.409739
vt 0.15673742 0.409739
vt 0.15673742 0.409739
vt 0.15673742 0.409739
vt 0.15673742 0.409739
vt 0.15673742 0.409739
vt 0.15673742 0.409739
vt 0.15673742 0.409739
vt 0.15673742 0.409739
vt 0.15673742 0.409739
vt 0.15673742 0.409739
vt 0.15673742 0.409739
vt 0.15673742 0.409739
vt 0.15673742 0.409739
vt 0.15673742 0.409739
vt 0.15673742 0.409739
vt 0.15673742 0.409739
vt 0.15673742 0.409739
vt 0.15673742 0.409739
vt 0.15673742 0.409739
vt 0.15673742 0.409739
vt 0.15673742 0.409739
vt 0.15673742 0.409739
vt 0.15673742 0.409739
vt 0.15673742 0.409739
vt 0.15673742 0.409739
vt 0.15673742 0.409739
vt 0.15673742 0.409739
vt 0.15673742 0.409739
vt 0.15673742 0.409739
vt 0.15673742 0.409739
vt 0.15673742 0.409739
vt 0.15673742 0.409739
vt 0.15673742 0.409739
vt 0.15673742 0.409739
vt 0.15673742 0.409739
vt 0.15673742 0.409739
vt 0.15673742 0.409739
vt 0.15673742 0.409739
vt 0.15673742 0.409739
vt 0.15673742 0.409739
vt 0.15673742 0.409739
vt 0.15673742 0.409739
vt 0.15673742 0.409739
vt 0.15673742 0.409739
vt 0.15673742 0.409739
vt 0.15673742 0.409739
vt 0.15673742 0.409739
vt 0.15673742 0.409739
vt 0.15673742 0.409739
vt 0.15673742 0.409739
vt 0.15673742 0.409739
vt 0.15673742 0.409739
vt 0.15673742 0.409739
vt 0.15673742 0.409739
vt 0.15673742 0.409739
vt 0.15673742 0.409739
vt 0.15673742 0.409739
vt 0.15673742 0.409739
vt 0.15673742 0.409739
vt 0.15673742 0.409739
vt 0.15673742 0.409739
vt 0.15673742 0.409739
vt 0.15673742 0.409739
vt 0.15673742 0.409739
vt 0.15673742 0.409739
vt 0.15673742 0.409739
vt 0.15673742 0.409739
vt 0.15673742 0.409739
vt 0.15673742 0.409739
vt 0.15673742 0.409739
vt 0.6568568 0.90397453
vt 0.6568568 0.90397453
vt 0.6568568 0.90397453
vt 0.6568568 0.90397453
vt 0.6568568 0.90397453
vt 0.6568568 0.90397453
vt 0.6568568 0.90397453
vt 0.6568568 0.90397453
vt 0.6568568 0.90397453
vt 0.7186363 0.90397453
vt 0.7186363 0.90397453
vt 0.7186363 0.90397453
vt 0.7186363 0.90397453
vt 0.7186363 0.90397453
vt 0.7186363 0.90397453
vt 0.7186363 0.90397453
vt 0.7186363 0.90397453
vt 0.7186363 0.90397453
vt 0.7186363 0.90397453
vt 0.7186363 0.90397453
vt 0.7186363 0.90397453
vt 0.7186363 0.90397453
vt 0.7186363 0.90397453
vt 0.7186363 0.90397453
vt 0.7186363 0.90397453
vt 0.7186363 0.90397453
vt 0.7186363 0.90397453
vt 0.7186363 0.90397453
vt 0.7186363 0.90397453
vt 0.7186363 0.90397453
vt 0.7186363 0.90397453
vt 0.7186363 0.90397453
vt 0.7186363 0.90397453
vt 0.7186363 0.90397453
vt 0.7186363 0.90397453
vt 0.7186363 0.90397453
vn 0.11132246 -0.96808016 0.224562
vn 0.11132246 -0.96808016 0.224562
vn 0.11132246 -0.96808016 0.224562
vn 0.11132246 -0.96808016 0.224562
vn -0.0473364 -0.74595785 0.6643088
vn -0.0473364 -0.74595785 0.6643088
vn -0.0473364 -0.74595785 0.6643088
vn -0.0473364 -0.74595785 0.6643088
vn 0.93634844 -0.26998132 0.22441413
vn 0.93634844 -0.26998132 0.22441413
vn 0.93634844 -0.26998132 0.22441413
vn 0.93634844 -0.26998132 0.22441413
vn 0.26998132 -0.11132246 0.95640856
vn 0.26998132 -0.11132246 0.95640856
vn 0.26998132 -0.11132246 0.95640856
vn 0.26998132 -0.11132246 0.95640856
vn 0.23824954 -0.11132246 -0.9648028
vn 0.23824954 -0.11132246 -0.9648028
vn 0.23824954 -0.11132246 -0.9648028
vn 0.23824954 -0.11132246 -0.9648028
vn -0.17426342 0.079068124 0.9815195
vn -0.17426342 0.079068124 0.9815195
vn -0.17426342 0.079068124 0.9815195
vn -0.17426342 0.079068124 0.9815195
vn -0.87097764 -0.4913226 -0
vn -0.87097764 -0.4913226 -0
vn -0.87097764 -0.4913226 -0
vn -0.87097764 -0.4913226 -0
vn 0.6190307 -0.30171305 -0.7251001
vn 0.6190307 -0.30171305 -0.7251001
vn 0.6190307 -0.30171305 -0.7251001
vn 0.6190307 -0.30171305 -0.7251001
vn -0.80889875 -0.42864013 -0.40243065
vn -0.80889875 -0.42864013 -0.40243065
vn -0.80889875 -0.42864013 -0.40243065
vn -0.80889875 -0.42864013 -0.40243065
vn 0.11132246 -0.36517662 -0.9242583
vn -0.015604556 -0.39690834 -0.9177256
vn -0.015604556 -0.39690834 -0.9177256
vn 0.11132246 -0.36517662 -0.9242583
vn 0.23824954 -0.30171305 -0.92315024
vn 0.23824954 -0.30171305 -0.92315024
vn -0.9206202 -0.3904592 -0
vn -0.9206202 -0.3904592 -0
vn -0.9206202 -0.3904592 -0
vn -0.9206202 -0.3904592 -0
vn -0.39638585 -0.20651776 0.89455503
vn -0.39638585 -0.20651776 0.89455503
vn -0.39638585 -0.20651776 0.89455503
vn -0.39638585 -0.20651776 0.89455503
vn 0.5555672 -0.80942136 0.1902161
vn 0.5555672 -0.80942136 0.1902161
vn 0.5555672 -0.80942136 0.1902161
vn 0.5555672 -0.80942136 0.1902161
vn 0.5238354 -0.84115314 0.1343794
vn 0.5238354 -0.84115314 0.1343794
vn 0.30171305 -0.6507625 0.6967621
vn 0.30171305 -0.6507625 0.6967621
vn 0.30171305 -0.6507625 0.6967621
vn 0.30171305 -0.6507625 0.6967621
vn 0.4921037 -0.7776896 -0.3911942
vn 0.4921037 -0.7776896 -0.3911942
vn 0.4921037 -0.7776896 -0.3911942
vn 0.4921037 -0.7776896 -0.3911942
vn 0.17478597 -0.87288487 -0.45554566
vn 0.17478597 -0.87288487 -0.45554566
vn 0.17478597 -0.87288487 -0.45554566
vn 0.17478597 -0.87288487 -0.45554566
vn -0.364654 -0.84115314 0.39936057
vn -0.364654 -0.84115314 0.39936057
vn -0.364654 -0.84115314 0.39936057
vn -0.364654 -0.84115314 0.39936057
vn -0.11079997 -0.11132246 0.9875883
vn -0.11079997 -0.11132246 0.9875883
vn -0.11079997 -0.11132246 0.9875883
vn -0.11079997 -0.11132246 0.9875883
vn -0.23772699 -0.90461665 -0.3537719
vn -0.23772699 -0.90461665 -0.3537719
vn -0.23772699 -0.90461665 -0.3537719
vn -0.23772699 -0.90461665 -0.3537719
vn -0.23772699 -0.96808016 0.079414405
vn -0.23772699 -0.96808016 0.079414405
vn -0.33292228 -0.93634844 0.11141991
vn -0.33292228 -0.93634844 0.11141991
vn -0.42777207 -0.9038866 -0
vn -0.42777207 -0.9038866 -0
vn 0.07959068 0.6819717 -0.727035
vn 0.07959068 0.6819717 -0.727035
vn 0.07959068 0.6819717 -0.727035
vn 0.07959068 0.6819717 -0.727035
vn -0.58677644 0.777167 -0.22738695
vn -0.61850816 0.777167 -0.11601304
vn -0.61850816 0.777167 -0.11601304
vn -0.58677644 0.777167 -0.22738695
vn -0.52331287 0.80889875 -0.2680046
vn -0.52331287 0.80889875 -0.2680046
vn -0.30119056 0.61850816 -0.72576296
vn -0.30119056 0.61850816 -0.72576296
vn -0.30119056 0.61850816 -0.72576296
vn -0.30119056 0.61850816 -0.72576296
vn -0.52331287 0.7454353 0.41287997
vn -0.52331287 0.7454353 0.41287997
vn -0.52331287 0.7454353 0.41287997
vn -0.52331287 0.7454353 0.41287997
vn -0.17426342 0.8406306 0.51280844
vn -0.17426342 0.8406306 0.51280844
vn -0.17426342 0.8406306 0.51280844
vn -0.17426342 0.8406306 0.51280844
vn 0.42864013 0.777167 -0.46073747
vn 0.42864013 0.777167 -0.46073747
vn 0.42864013 0.777167 -0.46073747
vn 0.42864013 0.777167 -0.46073747
vn -0.11079997 0.9675576 -0.22705866
vn -0.11079997 0.9675576 -0.22705866
vn -0.11079997 0.9675576 -0.22705866
vn -0.11079997 0.9675576 -0.22705866
vn 0.23824954 0.8723623 0.4268737
vn 0.23824954 0.8723623 0.4268737
vn 0.23824954 0.8723623 0.4268737
vn 0.23824954 0.8723623 0.4268737
vn 0.23824954 0.9675576 -0.08408013
vn 0.23824954 0.9675576 -0.08408013
vn 0.23824954 0.9675576 -0.08408013
vn 0.23824954 0.9675576 -0.08408013
vn 0.4913226 0.87097764 -0
vn 0.4913226 0.87097764 -0
vn 0.4913226 0.87097764 -0
vn 0.4913226 0.87097764 -0
vn 0.07959068 -0.96808016 0.23766811
vn 0.07959068 -0.96808016 0.23766811
vn 0.07959068 -0.96808016 0.23766811
vn 0.07959068 -0.96808016 0.23766811
vn -0.52331287 -0.80942136 0.2664221
vn -0.52331287 -0.80942136 0.2664221
vn -0.52331287 -0.80942136 0.2664221
vn -0.52331287 -0.80942136 0.2664221
vn 0.20651776 -0.17478597 0.96270466
vn 0.20651776 -0.17478597 0.96270466
vn 0.20651776 -0.17478597 0.96270466
vn 0.20651776 -0.17478597 0.96270466
vn -0.7454353 -0.17478597 0.6432543
vn -0.7454353 -0.17478597 0.6432543
vn -0.7454353 -0.17478597 0.6432543
vn -0.7454353 -0.17478597 0.6432543
vn 0.99981195 0.015604556 -0.011512755
vn 0.99981195 0.015604556 -0.011512755
vn 0.99981195 0.015604556 -0.011512755
vn 0.99981195 0.015604556 -0.011512755
vn -0.9675576 -0.01612717 0.25213528
vn -0.9675576 -0.01612717 0.25213528
vn -0.9675576 -0.01612717 0.25213528
vn -0.9675576 -0.01612717 0.25213528
vn -0.1425317 -0.587299 -0.79672116
vn -0.1425317 -0.587299 -0.79672116
vn -0.1425317 -0.587299 -0.79672116
vn -0.1425317 -0.587299 -0.79672116
vn 0.93634844 -0.14305425 0.32060426
vn 0.93634844 -0.14305425 0.32060426
vn 0.93634844 -0.14305425 0.32060426
vn 0.93634844 -0.14305425 0.32060426
vn 0.07959068 -0.5238354 -0.84809303
vn 0.07959068 -0.5238354 -0.84809303
vn 0.07959068 -0.5238354 -0.84809303
vn 0.07959068 -0.5238354 -0.84809303
vn 0.93634844 -0.23824954 -0.25785416
vn 0.87288487 -0.30171305 -0.38345954
vn 0.87288487 -0.30171305 -0.38345954
vn 0.93634844 -0.23824954 -0.25785416
vn 0.96808016 -0.17478597 -0.17964035
vn 0.96808016 -0.17478597 -0.17964035
vn -0.364654 -0.5238354 -0.76982075
vn -0.364654 -0.5238354 -0.76982075
vn -0.364654 -0.5238354 -0.76982075
vn -0.364654 -0.5238354 -0.76982075
vn -0.9358259 -0.33344483 0.11421232
vn -0.9358259 -0.33344483 0.11421232
vn -0.9358259 -0.33344483 0.11421232
vn -0.9358259 -0.33344483 0.11421232
vn 0.14305425 -0.74595785 0.6504478
vn 0.14305425 -0.74595785 0.6504478
vn 0.14305425 -0.74595785 0.6504478
vn 0.14305425 -0.74595785 0.6504478
vn 0.14305425 -0.7776896 0.61215556
vn 0.14305425 -0.7776896 0.61215556
vn -0.39638585 -0.6824943 0.6140682
vn -0.39638585 -0.6824943 0.6140682
vn -0.39638585 -0.6824943 0.6140682
vn -0.39638585 -0.6824943 0.6140682
vn 0.6507625 -0.6824943 0.3327307
vn 0.6507625 -0.6824943 0.3327307
vn 0.6507625 -0.6824943 0.3327307
vn 0.6507625 -0.6824943 0.3327307
vn 0.5872746 -0.8093878 -0
vn 0.5872746 -0.8093878 -0
vn 0.5872746 -0.8093878 -0
vn 0.5872746 -0.8093878 -0
vn -0.39638585 -0.90461665 -0.15667456
vn -0.39638585 -0.90461665 -0.15667456
vn -0.39638585 -0.90461665 -0.15667456
vn -0.39638585 -0.90461665 -0.15667456
vn -0.9358259 -0.20651776 0.2856227
vn -0.9358259 -0.20651776 0.2856227
vn -0.9358259 -0.20651776 0.2856227
vn -0.9358259 -0.20651776 0.2856227
vn 0.33344483 -0.90461665 -0.26548684
vn 0.33344483 -0.90461665 -0.26548684
vn 0.33344483 -0.90461665 -0.26548684
vn 0.33344483 -0.90461665 -0.26548684
vn -0.015604556 -0.99981195 -0.011513502
vn -0.015604556 -0.99981195 -0.011513502
vn -0.015604556 -0.96808016 -0.25015455
vn -0.015604556 -0.96808016 -0.25015455
vn -0.0473364 -0.93634844 -0.3478662
vn -0.0473364 -0.93634844 -0.3478662
vn 0.587299 0.7454353 -0.31528735
vn 0.587299 0.7454353 -0.31528735
vn 0.587299 0.7454353 -0.31528735
vn 0.587299 0.7454353 -0.31528735
vn -0.1425317 0.71370345 -0.68579304
vn -0.17426342 0.6819717 -0.7103146
vn -0.17426342 0.6819717 -0.7103146
vn -0.1425317 0.71370345 -0.68579304
vn -0.1425317 0.7454353 -0.6511612
vn -0.1425317 0.7454353 -0.6511612
vn 0.4603719 0.61850816 -0.636793
vn 0.4603719 0.61850816 -0.636793
vn 0.4603719 0.61850816 -0.636793
vn 0.4603719 0.61850816 -0.636793
vn -0.71370345 0.61850816 -0.3287477
vn -0.71370345 0.61850816 -0.3287477
vn -0.71370345 0.61850816 -0.3287477
vn -0.71370345 0.61850816 -0.3287477
vn -0.65024 0.7454353 -0.14667691
vn -0.65024 0.7454353 -0.14667691
vn -0.65024 0.7454353 -0.14667691
vn -0.65024 0.7454353 -0.14667691
vn 0.4913226 0.87097764 -0
vn 0.4913226 0.87097764 -0
vn 0.4913226 0.87097764 -0
vn 0.4913226 0.87097764 -0
vn -0.079068124 0.9675576 -0.23995943
vn -0.079068124 0.9675576 -0.23995943
vn -0.079068124 0.9675576 -0.23995943
vn -0.079068124 0.9675576 -0.23995943
vn -0.42811757 0.8406306 0.33174625
vn -0.42811757 0.8406306 0.33174625
vn -0.42811757 0.8406306 0.33174625
vn -0.42811757 0.8406306 0.33174625
vn 0.01612717 0.99928945 0.034066148
vn 0.01612717 0.99928945 0.034066148
vn 0.01612717 0.99928945 0.034066148
vn 0.01612717 0.99928945 0.034066148
vn 0.42864013 -0.047858953 0.9022068
vn 0.4921037 -0.14305425 0.8587022
vn 0.42864013 -0.047858953 0.9022068
vn 0.4921037 -0.14305425 0.8587022
vn 0.5555672 -0.23824954 0.7966067
vn 0.5555672 -0.23824954 0.7966067
vn 0.07959068 0.90409404 0.41985628
vn 0.07959068 0.90409404 0.41985628
vn 0.07959068 0.90409404 0.41985628
vn 0.07959068 0.90409404 0.41985628
vn -0.4598493 -0.7776896 0.4286462
vn -0.4598493 -0.7776896 0.4286462
vn -0.4598493 -0.7776896 0.4286462
vn -0.4598493 -0.7776896 0.4286462
vn -0.6819717 -0.714226 -0.15746672
vn -0.6819717 -0.714226 -0.15746672
vn -0.6819717 -0.714226 -0.15746672
vn -0.6819717 -0.714226 -0.15746672
vn -0.8406306 0.23772699 0.4866478
vn -0.8406306 0.23772699 0.4866478
vn -0.8406306 0.23772699 0.4866478
vn -0.8406306 0.23772699 0.4866478
vn -0.90409404 -0.047858953 -0.42464516
vn -0.90409404 -0.047858953 -0.42464516
vn -0.90409404 -0.047858953 -0.42464516
vn -0.90409404 -0.047858953 -0.42464516
vn 0.4921037 0.1425317 0.8587891
vn 0.4921037 0.1425317 0.8587891
vn 0.4921037 0.1425317 0.8587891
vn 0.4921037 0.1425317 0.8587891
vn -0.58677644 -0.11132246 -0.8020603
vn -0.58677644 -0.11132246 -0.8020603
vn -0.58677644 -0.11132246 -0.8020603
vn -0.58677644 -0.11132246 -0.8020603
vn 0.4921037 -0.84115314 -0.22426626
vn 0.4921037 -0.84115314 -0.22426626
vn 0.4921037 -0.84115314 -0.22426626
vn 0.4921037 -0.84115314 -0.22426626
vn 0.047858953 0.1425317 0.9886325
vn 0.047858953 0.1425317 0.9886325
vn 0.047858953 0.1425317 0.9886325
vn 0.047858953 0.1425317 0.9886325
vn 0.6417474 -0.76691616 -0
vn 0.6417474 -0.76691616 -0
vn 0.6417474 -0.76691616 -0
vn 0.6417474 -0.76691616 -0
vn 0.42864013 -0.80942136 -0.40137848
vn 0.42864013 -0.80942136 -0.40137848
vn 0.42864013 -0.80942136 -0.40137848
vn 0.42864013 -0.80942136 -0.40137848
vn -0.4598493 -0.4921037 -0.7391702
vn -0.4598493 -0.4921037 -0.7391702
vn -0.4598493 -0.4921037 -0.7391702
vn -0.4598493 -0.4921037 -0.7391702
vn -0.71370345 -0.42864013 0.55398107
vn -0.7454353 -0.42864013 0.5104839
vn -0.7454353 -0.42864013 0.5104839
vn -0.71370345 -0.42864013 0.55398107
vn -0.71370345 -0.4603719 0.52790636
vn -0.71370345 -0.4603719 0.52790636
vn -0.87097764 -0.4913226 -0
vn -0.87097764 -0.4913226 -0
vn -0.87097764 -0.4913226 -0
vn -0.87097764 -0.4913226 -0
vn -0.2694587 -0.36517662 0.8910881
vn -0.2694587 -0.36517662 0.8910881
vn -0.2694587 -0.36517662 0.8910881
vn -0.2694587 -0.36517662 0.8910881
vn -0.0473364 -0.6190307 0.78393894
vn -0.0473364 -0.6190307 0.78393894
vn -0.0473364 -0.6190307 0.78393894
vn -0.0473364 -0.6190307 0.78393894
vn -0.30119056 -0.93634844 -0.18037696
vn -0.30119056 -0.93634844 -0.18037696
vn -0.30119056 -0.93634844 -0.18037696
vn -0.30119056 -0.93634844 -0.18037696
vn -0.65024 -0.26998132 -0.7101394
vn -0.65024 -0.26998132 -0.7101394
vn -0.65024 -0.26998132 -0.7101394
vn -0.65024 -0.26998132 -0.7101394
vn 0.11132246 -0.87288487 0.47505713
vn 0.11132246 -0.87288487 0.47505713
vn 0.11132246 -0.87288487 0.47505713
vn 0.11132246 -0.87288487 0.47505713
vn -0.17426342 -0.96808016 0.18014733
vn -0.17426342 -0.96808016 0.18014733
vn -0.079068124 -0.96808016 0.23784247
vn -0.079068124 -0.96808016 0.23784247
vn -0.015604556 -0.99981195 0.011513502
vn -0.015604556 -0.99981195 0.011513502
vn 0.6824943 0.6819717 0.26289943
vn 0.6824943 0.6819717 0.26289943
vn 0.6824943 0.6819717 0.26289943
vn 0.6824943 0.6819717 0.26289943
vn 0.74595785 0.39638585 -0.535187
vn 0.7776896 0.33292228 -0.53325576
vn 0.7776896 0.33292228 -0.53325576
vn 0.74595785 0.39638585 -0.535187
vn 0.714226 0.42811757 -0.55371165
vn 0.714226 0.42811757 -0.55371165
vn 0.9038866 0.42777207 -0
vn 0.9038866 0.42777207 -0
vn 0.9038866 0.42777207 -0
vn 0.9038866 0.42777207 -0
vn 0.23824954 0.30119056 -0.9233209
vn 0.23824954 0.30119056 -0.9233209
vn 0.23824954 0.30119056 -0.9233209
vn 0.23824954 0.30119056 -0.9233209
vn -0.015604556 0.5550447 -0.83167416
vn -0.015604556 0.5550447 -0.83167416
vn -0.015604556 0.5550447 -0.83167416
vn -0.015604556 0.5550447 -0.83167416
vn 0.30171305 0.9358259 0.18220629
vn 0.30171305 0.9358259 0.18220629
vn 0.30171305 0.9358259 0.18220629
vn 0.30171305 0.9358259 0.18220629
vn 0.4603719 0.777167 -0.42903274
vn 0.4603719 0.777167 -0.42903274
vn 0.4603719 0.777167 -0.42903274
vn 0.4603719 0.777167 -0.42903274
vn -0.20599526 0.80889875 -0.5506803
vn -0.20599526 0.80889875 -0.5506803
vn -0.20599526 0.80889875 -0.5506803
vn -0.20599526 0.80889875 -0.5506803
vn 0.17478597 0.9358259 -0.30607155
vn 0.17478597 0.9358259 -0.30607155
vn 0.17478597 0.9358259 -0.30607155
vn 0.17478597 0.9358259 -0.30607155
vn 0.047838148 0.99885505 -0
vn 0.047838148 0.99885505 -0
vn 0.047838148 0.99885505 -0
vn 0.047838148 0.99885505 -0
vn -0.078877814 0.9968843 -0
vn -0.078877814 0.9968843 -0
vn -0.078877814 0.9968843 -0
vn -0.078877814 0.9968843 -0
vn 0.01612717 0.52331287 -0.851988
vn 0.01612717 0.52331287 -0.851988
vn 0.01612717 0.52331287 -0.851988
vn 0.01612717 0.52331287 -0.851988
vn -0.015604556 0.99928945 0.034309357
vn -0.015604556 0.99928945 0.034309357
vn -0.015604556 0.99928945 0.034309357
vn -0.015604556 0.99928945 0.034309357
vn -0.015604556 0.9675576 0.2521682
vn -0.015604556 0.9675576 0.2521682
vn 0.6190307 0.71370345 -0.32776266
vn 0.6190307 0.71370345 -0.32776266
vn 0.6190307 0.71370345 -0.32776266
vn 0.6190307 0.71370345 -0.32776266
vn -0.015604556 0.7454353 -0.6663953
vn -0.015604556 0.7454353 -0.6663953
vn -0.015604556 0.7454353 -0.6663953
vn -0.015604556 0.7454353 -0.6663953
vn 0.4603719 0.58677644 -0.66614646
vn 0.4603719 0.58677644 -0.66614646
vn 0.4603719 0.58677644 -0.66614646
vn 0.4603719 0.58677644 -0.66614646
vn -0.65024 0.71370345 -0.2604137
vn -0.65024 0.71370345 -0.2604137
vn -0.65024 0.71370345 -0.2604137
vn -0.65024 0.71370345 -0.2604137
vn -0.4598493 0.58677644 -0.66650736
vn -0.4598493 0.58677644 -0.66650736
vn -0.4598493 0.58677644 -0.66650736
vn -0.4598493 0.58677644 -0.66650736
vn -0.015604556 -0.93634844 0.35072514
vn -0.015604556 -0.93634844 0.35072514
vn -0.015604556 -0.93634844 0.35072514
vn -0.015604556 -0.93634844 0.35072514
vn 0.587299 0.80889875 0.027617043
vn 0.587299 0.80889875 0.027617043
vn 0.587299 0.80889875 0.027617043
vn 0.587299 0.80889875 0.027617043
vn -0.58677644 0.80889875 0.037097327
vn -0.58677644 0.80889875 0.037097327
vn -0.58677644 0.80889875 0.037097327
vn -0.58677644 0.80889875 0.037097327
vn -0.015604556 -0.6824943 0.73072433
vn -0.015604556 -0.587299 0.80921966
vn -0.015604556 -0.587299 0.80921966
vn -0.015604556 -0.6824943 0.73072433
vn -0.015604556 -0.74595785 0.66581035
vn -0.015604556 -0.74595785 0.66581035
vn -0.015604556 -0.99981195 -0.011513502
vn -0.015604556 -0.99981195 -0.011513502
vn -0.015604556 -0.99981195 -0.011513502
vn -0.015604556 -0.99981195 -0.011513502
vn -0.015604556 -0.99981195 -0.011513502
vn -0.015604556 -0.99981195 -0.011513502
vn 0.96808016 -0.20651776 0.14202538
vn 0.96808016 -0.20651776 0.14202538
vn 0.96808016 -0.20651776 0.14202538
vn 0.96808016 -0.20651776 0.14202538
vn -0.39638585 -0.6190307 0.67799646
vn -0.39638585 -0.6190307 0.67799646
vn -0.39638585 -0.6190307 0.67799646
vn -0.39638585 -0.6190307 0.67799646
vn 0.587299 -0.74595785 0.31404904
vn 0.587299 -0.74595785 0.31404904
vn 0.587299 -0.74595785 0.31404904
vn 0.587299 -0.74595785 0.31404904
vn 0.39690834 -0.6190307 0.6776907
vn 0.39690834 -0.6190307 0.6776907
vn 0.39690834 -0.6190307 0.6776907
vn 0.39690834 -0.6190307 0.6776907
vn -0.9675576 -0.17478597 0.18243395
vn -0.9675576 -0.20651776 0.14554279
vn -0.9675576 -0.20651776 0.14554279
vn -0.9675576 -0.17478597 0.18243395
vn -0.9358259 -0.17478597 0.30607152
vn -0.9358259 -0.17478597 0.30607152
vn -0.55076176 -0.8346625 -0
vn -0.55076176 -0.8346625 -0
vn -0.55076176 -0.8346625 -0
vn -0.55076176 -0.8346625 -0
vn 0.5238354 -0.84115314 -0.1343794
vn 0.5238354 -0.84115314 -0.1343794
vn 0.5238354 -0.84115314 -0.1343794
vn 0.5238354 -0.84115314 -0.1343794
vn 0.93634844 -0.14305425 0.32060426
vn 0.93634844 -0.14305425 0.32060426
vn 0.93634844 -0.14305425 0.32060426
vn 0.93634844 -0.14305425 0.32060426
vn -0.5550447 -0.74595785 0.36806563
vn -0.5550447 -0.74595785 0.36806563
vn -0.5550447 -0.74595785 0.36806563
vn -0.5550447 -0.74595785 0.36806563
vn 0.20651776 0.079068124 0.97524285
vn 0.20651776 0.079068124 0.97524285
vn 0.20651776 0.079068124 0.97524285
vn 0.20651776 0.079068124 0.97524285
vn -0.23772699 0.0473364 0.9701779
vn -0.23772699 0.0473364 0.9701779
vn -0.23772699 0.0473364 0.9701779
vn -0.23772699 0.0473364 0.9701779
vn -0.8723623 -0.39690834 -0.28539053
vn -0.8723623 -0.39690834 -0.28539053
vn -0.8723623 -0.39690834 -0.28539053
vn -0.8723623 -0.39690834 -0.28539053
vn -0.015604556 -0.01612717 0.9997482
vn -0.015604556 -0.01612717 0.9997482
vn -0.015604556 -0.01612717 0.9997482
vn -0.015604556 -0.01612717 0.9997482
vn 0.99885625 -0.047813207 -0
vn 0.99885625 -0.047813207 -0
vn 0.99885625 -0.047813207 -0
vn 0.99885625 -0.047813207 -0
vn -0.99928945 -0.01612717 -0.034066577
vn -0.99928945 -0.01612717 -0.034066577
vn -0.99928945 -0.01612717 -0.034066577
vn -0.99928945 -0.01612717 -0.034066577
vn 0.87288487 -0.39690834 -0.2837882
vn 0.87288487 -0.39690834 -0.2837882
vn 0.87288487 -0.39690834 -0.2837882
vn 0.87288487 -0.39690834 -0.2837882
vn -0.015604556 -0.714226 -0.6997412
vn -0.015604556 -0.714226 -0.6997412
vn -0.015604556 -0.714226 -0.6997412
vn -0.015604556 -0.714226 -0.6997412
vn 0.93634844 -0.01612717 0.35070148
vn 0.93634844 -0.01612717 0.35070148
vn 0.93634844 -0.01612717 0.35070148
vn 0.93634844 -0.01612717 0.35070148
vn 0.90461665 -0.01612717 0.4259209
vn 0.90461665 -0.01612717 0.4259209
vn 0.90461665 -0.01612717 0.4259209
vn 0.90461665 -0.01612717 0.4259209
vn 0.90461665 0.015604556 0.42594036
vn 0.90461665 0.015604556 0.42594036
vn 0.90461665 0.015604556 0.42594036
vn 0.90461665 0.015604556 0.42594036
vn 0.93634844 0.079068124 0.3420524
vn 0.93634844 0.079068124 0.3420524
vn 0.93634844 0.079068124 0.3420524
vn 0.93634844 0.079068124 0.3420524
vn 0.90461665 0.20599526 0.3731416
vn 0.90461665 0.20599526 0.3731416
vn 0.90461665 0.20599526 0.3731416
vn 0.90461665 0.20599526 0.3731416
vn 0.36517662 0.2694587 -0.8910881
vn 0.36517662 0.2694587 -0.8910881
vn 0.36517662 0.2694587 -0.8910881
vn 0.36517662 0.2694587 -0.8910881
vn 0.36517662 0.1425317 -0.91996235
vn 0.36517662 0.1425317 -0.91996235
vn 0.36517662 0.1425317 -0.91996235
vn 0.36517662 0.1425317 -0.91996235
vn 0.36517662 0.0473364 -0.929734
vn 0.36517662 0.0473364 -0.929734
vn 0.36517662 0.0473364 -0.929734
vn 0.36517662 0.0473364 -0.929734
vn 0.39690834 -0.07959068 -0.91440094
vn 0.39690834 -0.07959068 -0.91440094
vn 0.39690834 -0.07959068 -0.91440094
vn 0.39690834 -0.07959068 -0.91440094
vn 0.36517662 -0.047858953 -0.9297072
vn 0.36517662 -0.047858953 -0.9297072
vn 0.36517662 -0.047858953 -0.9297072
vn 0.36517662 -0.047858953 -0.9297072
vn -0.364654 0.2694587 -0.8913021
vn -0.364654 0.2694587 -0.8913021
vn -0.364654 0.2694587 -0.8913021
vn -0.364654 0.2694587 -0.8913021
vn -0.364654 0.1425317 -0.92016965
vn -0.364654 0.1425317 -0.92016965
vn -0.364654 0.1425317 -0.92016965
vn -0.364654 0.1425317 -0.92016965
vn -0.364654 0.0473364 -0.9299391
vn -0.364654 0.0473364 -0.9299391
vn -0.364654 0.0473364 -0.9299391
vn -0.364654 0.0473364 -0.9299391
vn -0.39638585 -0.07959068 -0.91462755
vn -0.39638585 -0.07959068 -0.91462755
vn -0.39638585 -0.07959068 -0.91462755
vn -0.39638585 -0.07959068 -0.91462755
vn -0.364654 -0.047858953 -0.9299123
vn -0.364654 -0.047858953 -0.9299123
vn -0.364654 -0.047858953 -0.9299123
vn -0.364654 -0.047858953 -0.9299123
vn -0.9358259 -0.01612717 0.3520935
vn -0.9358259 -0.01612717 0.3520935
vn -0.9358259 -0.01612717 0.3520935
vn -0.9358259 -0.01612717 0.3520935
vn -0.90409404 -0.01612717 0.42702913
vn -0.90409404 -0.01612717 0.42702913
vn -0.90409404 -0.01612717 0.42702913
vn -0.90409404 -0.01612717 0.42702913
vn -0.9358259 0.015604556 0.35211703
vn -0.9358259 0.015604556 0.35211703
vn -0.9358259 0.015604556 0.35211703
vn -0.9358259 0.015604556 0.35211703
vn -0.9358259 0.079068124 0.34347945
vn -0.9358259 0.079068124 0.34347945
vn -0.9358259 0.079068124 0.34347945
vn -0.9358259 0.079068124 0.34347945
vn -0.90409404 0.20599526 0.3744061
vn -0.90409404 0.20599526 0.3744061
vn -0.90409404 0.20599526 0.3744061
vn -0.90409404 0.20599526 0.3744061
vn 0.36517662 -0.11132246 0.9242583
vn 0.36517662 -0.11132246 0.9242583
vn 0.36517662 -0.11132246 0.9242583
vn 0.36517662 -0.11132246 0.9242583
vn 0.36517662 -0.07959068 0.92752975
vn 0.36517662 -0.07959068 0.92752975
vn 0.36517662 -0.07959068 0.92752975
vn 0.36517662 -0.07959068 0.92752975
vn 0.36517662 0.015604556 0.9308075
vn 0.36517662 0.015604556 0.9308075
vn 0.36517662 0.015604556 0.9308075
vn 0.36517662 0.015604556 0.9308075
vn 0.36517662 0.1425317 0.91996235
vn 0.36517662 0.1425317 0.91996235
vn 0.36517662 0.1425317 0.91996235
vn 0.36517662 0.1425317 0.91996235
vn 0.39690834 0.30119056 0.867034
vn 0.39690834 0.30119056 0.867034
vn 0.39690834 0.30119056 0.867034
vn 0.39690834 0.30119056 0.867034
vn 0.90461665 0.1425317 -0.4016882
vn 0.90461665 0.1425317 -0.4016882
vn 0.90461665 0.1425317 -0.4016882
vn 0.90461665 0.1425317 -0.4016882
vn 0.93634844 0.079068124 -0.3420524
vn 0.93634844 0.079068124 -0.3420524
vn 0.93634844 0.079068124 -0.3420524
vn 0.93634844 0.079068124 -0.3420524
vn 0.93634844 0.0473364 -0.34786618
vn 0.93634844 0.0473364 -0.34786618
vn 0.93634844 0.0473364 -0.34786618
vn 0.93634844 0.0473364 -0.34786618
vn 0.93634844 -0.01612717 -0.35070148
vn 0.93634844 -0.01612717 -0.35070148
vn 0.93634844 -0.01612717 -0.35070148
vn 0.93634844 -0.01612717 -0.35070148
vn 0.90461665 0.0473364 -0.42358938
vn 0.90461665 0.0473364 -0.42358938
vn 0.90461665 0.0473364 -0.42358938
vn 0.90461665 0.0473364 -0.42358938
vn -0.90409404 0.1425317 -0.40286312
vn -0.90409404 0.1425317 -0.40286312
vn -0.90409404 0.1425317 -0.40286312
vn -0.90409404 0.1425317 -0.40286312
vn -0.9358259 0.079068124 -0.34347945
vn -0.9358259 0.079068124 -0.34347945
vn -0.9358259 0.079068124 -0.34347945
vn -0.9358259 0.079068124 -0.34347945
vn -0.9358259 0.0473364 -0.34926948
vn -0.9358259 0.0473364 -0.34926948
vn -0.9358259 0.0473364 -0.34926948
vn -0.9358259 0.0473364 -0.34926948
vn -0.9358259 -0.01612717 -0.3520935
vn -0.9358259 -0.01612717 -0.3520935
vn -0.9358259 -0.01612717 -0.3520935
vn -0.9358259 -0.01612717 -0.3520935
vn -0.90409404 0.0473364 -0.42470372
vn -0.90409404 0.0473364 -0.42470372
vn -0.90409404 0.0473364 -0.42470372
vn -0.90409404 0.0473364 -0.42470372
vn -0.364654 -0.11132246 0.9244646
vn -0.364654 -0.11132246 0.9244646
vn -0.364654 -0.11132246 0.9244646
vn -0.364654 -0.11132246 0.9244646
vn -0.364654 -0.07959068 0.9277353
vn -0.364654 -0.07959068 0.9277353
vn -0.364654 -0.07959068 0.9277353
vn -0.364654 -0.07959068 0.9277353
vn -0.364654 0.015604556 0.93101233
vn -0.364654 0.015604556 0.93101233
vn -0.364654 0.015604556 0.93101233
vn -0.364654 0.015604556 0.93101233
vn -0.39638585 0.1425317 0.90695256
vn -0.39638585 0.1425317 0.90695256
vn -0.39638585 0.1425317 0.90695256
vn -0.39638585 0.1425317 0.90695256
vn -0.39638585 0.30119056 0.867273
vn -0.39638585 0.30119056 0.867273
vn -0.39638585 0.30119056 0.867273
vn -0.39638585 0.30119056 0.867273
vn -0.52331287 0.8406306 -0.13958462
vn -0.52331287 0.8406306 -0.13958462
vn -0.52331287 0.8406306 -0.13958462
vn -0.52331287 0.8406306 -0.13958462
vn 0.4921037 0.8406306 0.22621708
vn 0.42864013 0.8723623 0.23505658
vn 0.42864013 0.8723623 0.23505658
vn 0.4921037 0.8406306 0.22621708
vn 0.5238354 0.80889875 0.2669817
vn 0.5238354 0.80889875 0.2669817
vn 0.26998132 0.80889875 -0.5222958
vn 0.26998132 0.80889875 -0.5222958
vn 0.26998132 0.80889875 -0.5222958
vn 0.26998132 0.80889875 -0.5222958
vn -0.26828408 0.9633398 -0
vn -0.26828408 0.9633398 -0
vn -0.26828408 0.9633398 -0
vn -0.26828408 0.9633398 -0
vn -0.1425317 0.80889875 -0.57040995
vn -0.1425317 0.80889875 -0.57040995
vn -0.1425317 0.80889875 -0.57040995
vn -0.1425317 0.80889875 -0.57040995
vn -0.2694587 0.7454353 0.609687
vn -0.2694587 0.7454353 0.609687
vn -0.2694587 0.7454353 0.609687
vn -0.2694587 0.7454353 0.609687
vn -0.5550447 0.777167 0.29654142
vn -0.5550447 0.777167 0.29654142
vn -0.5550447 0.777167 0.29654142
vn -0.5550447 0.777167 0.29654142
vn -0.04729233 -0.99888116 -0
vn -0.04729233 -0.99888116 -0
vn -0.04729233 -0.99888116 -0
vn -0.04729233 -0.99888116 -0
vn 0.587299 0.71370345 -0.38171628
vn 0.587299 0.71370345 -0.38171628
vn 0.587299 0.71370345 -0.38171628
vn 0.587299 0.71370345 -0.38171628
vn 0.07959068 0.6819717 0.727035
vn 0.07959068 0.6819717 0.727035
vn 0.07959068 0.6819717 0.727035
vn 0.07959068 0.6819717 0.727035
vn 0.36517662 -0.90461665 0.21980616
vn 0.4603719 -0.87288487 0.16164672
vn 0.4603719 -0.87288487 0.16164672
vn 0.36517662 -0.90461665 0.21980616
vn 0.26863226 -0.9632428 -0
vn 0.26863226 -0.9632428 -0
vn -0.4598493 -0.87288487 -0.1631276
vn -0.42811757 -0.87288487 -0.23406695
vn -0.42811757 -0.87288487 -0.23406695
vn -0.4598493 -0.87288487 -0.1631276
vn -0.4598493 -0.84115314 -0.28460506
vn -0.4598493 -0.84115314 -0.28460506
vn 0.36517662 -0.17478597 -0.9143828
vn 0.36517662 -0.17478597 -0.9143828
vn 0.36517662 -0.17478597 -0.9143828
vn 0.36517662 -0.17478597 -0.9143828
vn 0.17478597 -0.87288487 0.45554566
vn 0.17478597 -0.87288487 0.45554566
vn 0.17478597 -0.87288487 0.45554566
vn 0.17478597 -0.87288487 0.45554566
vn 0.23824954 -0.7776896 -0.58175266
vn 0.23824954 -0.7776896 -0.58175266
vn 0.23824954 -0.7776896 -0.58175266
vn 0.23824954 -0.7776896 -0.58175266
vn 0.4921037 -0.84115314 -0.22426626
vn 0.4921037 -0.84115314 -0.22426626
vn 0.4921037 -0.84115314 -0.22426626
vn 0.4921037 -0.84115314 -0.22426626
vn -0.33292228 -0.26998132 0.9034782
vn -0.42811757 -0.23824954 0.87175256
vn -0.42811757 -0.23824954 0.87175256
vn -0.33292228 -0.26998132 0.9034782
vn -0.20599526 -0.30171305 0.9308787
vn -0.20599526 -0.30171305 0.9308787
vn -0.5550447 -0.7776896 0.29516834
vn -0.5550447 -0.7776896 0.29516834
vn -0.5550447 -0.7776896 0.29516834
vn -0.5550447 -0.7776896 0.29516834
vn -0.079068124 -0.74595785 -0.66128296
vn -0.079068124 -0.74595785 -0.66128296
vn -0.079068124 -0.74595785 -0.66128296
vn -0.079068124 -0.74595785 -0.66128296
vn 0.6190307 -0.23824954 -0.74835694
vn 0.6190307 -0.23824954 -0.74835694
vn 0.6190307 -0.23824954 -0.74835694
vn 0.6190307 -0.23824954 -0.74835694
vn -0.23772699 -0.84115314 0.48574403
vn -0.23772699 -0.84115314 0.48574403
vn -0.23772699 -0.84115314 0.48574403
vn -0.23772699 -0.84115314 0.48574403
vn 0.90461665 -0.33344483 0.2654868
vn 0.90461665 -0.33344483 0.2654868
vn 0.90461665 -0.33344483 0.2654868
vn 0.90461665 -0.33344483 0.2654868
vn 0.714226 -0.36517662 0.59709907
vn 0.714226 -0.36517662 0.59709907
vn 0.714226 -0.36517662 0.59709907
vn 0.714226 -0.36517662 0.59709907
vn -0.777167 -0.26998132 0.56843776
vn -0.777167 -0.26998132 0.56843776
vn -0.777167 -0.26998132 0.56843776
vn -0.777167 -0.26998132 0.56843776
vn 0.80942136 -0.42864013 0.4013785
vn 0.80942136 -0.42864013 0.4013785
vn 0.80942136 -0.42864013 0.4013785
vn 0.80942136 -0.42864013 0.4013785
vn 0.39690834 0.015604556 -0.91772556
vn 0.39690834 0.015604556 -0.91772556
vn 0.39690834 0.015604556 -0.91772556
vn 0.39690834 0.015604556 -0.91772556
vn -0.015604556 0.9358259 -0.35211706
vn -0.015604556 0.9358259 -0.35211706
vn -0.015604556 0.9358259 -0.35211706
vn -0.015604556 0.9358259 -0.35211706
vn -0.4598493 -0.047858953 0.88670635
vn -0.4598493 -0.047858953 0.88670635
vn -0.4598493 -0.047858953 0.88670635
vn -0.4598493 -0.047858953 0.88670635
vn -0.015604556 -0.20651776 -0.97831845
vn -0.015604556 -0.20651776 -0.97831845
vn -0.015604556 -0.20651776 -0.97831845
vn -0.015604556 -0.20651776 -0.97831845
vn -0.8406306 -0.33344483 -0.4267959
vn -0.8406306 -0.33344483 -0.4267959
vn -0.8406306 -0.33344483 -0.4267959
vn -0.8406306 -0.33344483 -0.4267959
vn -0.015604556 -0.99981195 0.011513502
vn -0.015604556 -0.96808016 0.25015455
vn 0.07959068 -0.96808016 0.23766811
vn -0.079068124 -0.96808016 0.23784247
vn 0.11132246 -0.96808016 0.224562
vn -0.11079997 -0.96808016 0.22482024
vn 0.07959068 -0.93634844 0.34193122
vn -0.079068124 -0.93634844 0.34205243
vn -0.015604556 -0.93634844 0.35072514
vn 0.07935461 -0.99684644 -0
vn -0.015604556 -0.99981195 0.011513502
vn 0.11065957 -0.99385834 -0
vn -0.015604556 -0.99981195 0.011513502
vn 0.07959068 -0.96808016 0.23766811
vn -0.07883686 -0.99688756 -0
vn -0.015604556 -0.96808016 0.25015455
vn -0.1101465 -0.9939154 -0
vn -0.079068124 -0.96808016 0.23784247
vn 0.07935461 -0.99684644 -0
vn -0.015604556 -0.99981195 0.011513502
vn -0.015604556 -0.99981195 0.011513502
vn 0.11065957 -0.99385834 -0
vn -0.07883686 -0.99688756 -0
vn 0.07935461 -0.99684644 -0
vn -0.1101465 -0.9939154 -0
vn -0.015604556 -0.99981195 -0.011513502
vn -0.07883686 -0.99688756 -0
vn 0.07935461 -0.99684644 -0
vn -0.015604556 -0.99981195 0.011513502
vn 0.07935461 -0.99684644 -0
vn -0.015604556 -0.99981195 -0.011513502
vn 0.07935461 -0.99684644 -0
vn -0.07883686 -0.99688756 -0
vn -0.015604556 -0.99981195 0.011513502
vn -0.1101465 -0.9939154 -0
vn -0.07883686 -0.99688756 -0
g palm_tree_01_0
f 3/3/3 2/2/2 1/1/1
f 4/4/4 3/3/3 1/1/1
f 7/7/7 6/6/6 5/5/5
f 8/8/8 7/7/7 5/5/5
f 11/11/11 10/10/10 9/9/9
f 12/12/12 11/11/11 9/9/9
f 15/15/15 14/14/14 13/13/13
f 16/16/16 15/15/15 13/13/13
f 19/19/19 18/18/18 17/17/17
f 20/20/20 19/19/19 17/17/17
f 23/23/23 22/22/22 21/21/21
f 24/24/24 23/23/23 21/21/21
f 27/27/27 26/26/26 25/25/25
f 28/28/28 27/27/27 25/25/25
f 31/31/31 30/30/30 29/29/29
f 32/32/32 31/31/31 29/29/29
f 35/35/35 34/34/34 33/33/33
f 36/36/36 35/35/35 33/33/33
f 39/39/39 38/38/38 37/37/37
f 40/40/40 39/39/39 37/37/37
f 40/40/40 37/37/37 41/41/41
f 42/42/42 40/40/40 41/41/41
f 45/45/45 44/44/44 43/43/43
f 46/46/46 45/45/45 43/43/43
f 49/49/49 48/48/48 47/47/47
f 50/50/50 49/49/49 47/47/47
f 53/53/53 52/52/52 51/51/51
f 52/52/52 54/54/54 51/51/51
f 55/55/55 51/51/51 54/54/54
f 56/56/56 55/55/55 54/54/54
f 59/59/59 58/58/58 57/57/57
f 60/60/60 59/59/59 57/57/57
f 63/63/63 62/62/62 61/61/61
f 64/64/64 63/63/63 61/61/61
f 67/67/67 66/66/66 65/65/65
f 68/68/68 67/67/67 65/65/65
f 71/71/71 70/70/70 69/69/69
f 72/72/72 71/71/71 69/69/69
f 75/75/75 74/74/74 73/73/73
f 76/76/76 75/75/75 73/73/73
f 79/79/79 78/78/78 77/77/77
f 80/80/80 79/79/79 77/77/77
f 83/83/83 82/82/82 81/81/81
f 84/84/84 83/83/83 81/81/81
f 85/85/85 83/83/83 84/84/84
f 86/86/86 85/85/85 84/84/84
f 89/89/89 88/88/88 87/87/87
f 90/90/90 89/89/89 87/87/87
f 93/93/93 92/92/92 91/91/91
f 94/94/94 93/93/93 91/91/91
f 91/91/91 95/95/95 94/94/94
f 95/95/95 96/96/96 94/94/94
f 99/99/99 98/98/98 97/97/97
f 100/100/100 99/99/99 97/97/97
f 103/103/103 102/102/102 101/101/101
f 104/104/104 103/103/103 101/101/101
f 107/107/107 106/106/106 105/105/105
f 108/108/108 107/107/107 105/105/105
f 111/111/111 110/110/110 109/109/109
f 112/112/112 111/111/111 109/109/109
f 115/115/115 114/114/114 113/113/113
f 116/116/116 115/115/115 113/113/113
f 119/119/119 118/118/118 117/117/117
f 120/120/120 119/119/119 117/117/117
f 123/123/123 122/122/122 121/121/121
f 124/124/124 123/123/123 121/121/121
f 127/127/127 126/126/126 125/125/125
f 128/128/128 127/127/127 125/125/125
f 131/131/131 130/130/130 129/129/129
f 132/132/132 131/131/131 129/129/129
f 135/135/135 134/134/134 133/133/133
f 136/136/136 135/135/135 133/133/133
f 139/139/139 138/138/138 137/137/137
f 140/140/140 139/139/139 137/137/137
f 143/143/143 142/142/142 141/141/141
f 144/144/144 143/143/143 141/141/141
f 147/147/147 146/146/146 145/145/145
f 148/148/148 147/147/147 145/145/145
f 151/151/151 150/150/150 149/149/149
f 152/152/152 151/151/151 149/149/149
f 155/155/155 154/154/154 153/153/153
f 156/156/156 155/155/155 153/153/153
f 159/159/159 158/158/158 157/157/157
f 160/160/160 159/159/159 157/157/157
f 163/163/163 162/162/162 161/161/161
f 164/164/164 163/163/163 161/161/161
f 167/167/167 166/166/166 165/165/165
f 168/168/168 167/167/167 165/165/165
f 168/168/168 165/165/165 169/169/169
f 170/170/170 168/168/168 169/169/169
f 173/173/173 172/172/172 171/171/171
f 174/174/174 173/173/173 171/171/171
f 177/177/177 176/176/176 175/175/175
f 178/178/178 177/177/177 175/175/175
f 181/181/181 180/180/180 179/179/179
f 180/180/180 182/182/182 179/179/179
f 183/183/183 179/179/179 182/182/182
f 184/184/184 183/183/183 182/182/182
f 187/187/187 186/186/186 185/185/185
f 188/188/188 187/187/187 185/185/185
f 191/191/191 190/190/190 189/189/189
f 192/192/192 191/191/191 189/189/189
f 195/195/195 194/194/194 193/193/193
f 196/196/196 195/195/195 193/193/193
f 199/199/199 198/198/198 197/197/197
f 200/200/200 199/199/199 197/197/197
f 203/203/203 202/202/202 201/201/201
f 204/204/204 203/203/203 201/201/201
f 207/207/207 206/206/206 205/205/205
f 208/208/208 207/207/207 205/205/205
f 211/211/211 210/210/210 209/209/209
f 212/212/212 211/211/211 209/209/209
f 213/213/213 211/211/211 212/212/212
f 214/214/214 213/213/213 212/212/212
f 217/217/217 216/216/216 215/215/215
f 218/218/218 217/217/217 215/215/215
f 221/221/221 220/220/220 219/219/219
f 222/222/222 221/221/221 219/219/219
f 219/219/219 223/223/223 222/222/222
f 223/223/223 224/224/224 222/222/222
f 227/227/227 226/226/226 225/225/225
f 228/228/228 227/227/227 225/225/225
f 231/231/231 230/230/230 229/229/229
f 232/232/232 231/231/231 229/229/229
f 235/235/235 234/234/234 233/233/233
f 236/236/236 235/235/235 233/233/233
f 239/239/239 238/238/238 237/237/237
f 240/240/240 239/239/239 237/237/237
f 243/243/243 242/242/242 241/241/241
f 244/244/244 243/243/243 241/241/241
f 247/247/247 246/246/246 245/245/245
f 248/248/248 247/247/247 245/245/245
f 251/251/251 250/250/250 249/249/249
f 252/252/252 251/251/251 249/249/249
f 255/255/255 254/254/254 253/253/253
f 254/254/254 256/256/256 253/253/253
f 254/254/254 257/257/257 256/256/256
f 257/257/257 258/258/258 256/256/256
f 261/261/261 260/260/260 259/259/259
f 262/262/262 261/261/261 259/259/259
f 265/265/265 264/264/264 263/263/263
f 266/266/266 265/265/265 263/263/263
f 269/269/269 268/268/268 267/267/267
f 270/270/270 269/269/269 267/267/267
f 273/273/273 272/272/272 271/271/271
f 274/274/274 273/273/273 271/271/271
f 277/277/277 276/276/276 275/275/275
f 278/278/278 277/277/277 275/275/275
f 281/281/281 280/280/280 279/279/279
f 282/282/282 281/281/281 279/279/279
f 285/285/285 284/284/284 283/283/283
f 286/286/286 285/285/285 283/283/283
f 289/289/289 288/288/288 287/287/287
f 290/290/290 289/289/289 287/287/287
f 293/293/293 292/292/292 291/291/291
f 294/294/294 293/293/293 291/291/291
f 297/297/297 296/296/296 295/295/295
f 298/298/298 297/297/297 295/295/295
f 301/301/301 300/300/300 299/299/299
f 302/302/302 301/301/301 299/299/299
f 305/305/305 304/304/304 303/303/303
f 306/306/306 305/305/305 303/303/303
f 309/309/309 308/308/308 307/307/307
f 308/308/308 310/310/310 307/307/307
f 311/311/311 307/307/307 310/310/310
f 312/312/312 311/311/311 310/310/310
f 315/315/315 314/314/314 313/313/313
f 316/316/316 315/315/315 313/313/313
f 319/319/319 318/318/318 317/317/317
f 320/320/320 319/319/319 317/317/317
f 323/323/323 322/322/322 321/321/321
f 324/324/324 323/323/323 321/321/321
f 327/327/327 326/326/326 325/325/325
f 328/328/328 327/327/327 325/325/325
f 331/331/331 330/330/330 329/329/329
f 332/332/332 331/331/331 329/329/329
f 335/335/335 334/334/334 333/333/333
f 336/336/336 335/335/335 333/333/333
f 339/339/339 338/338/338 337/337/337
f 340/340/340 339/339/339 337/337/337
f 341/341/341 339/339/339 340/340/340
f 342/342/342 341/341/341 340/340/340
f 345/345/345 344/344/344 343/343/343
f 346/346/346 345/345/345 343/343/343
f 349/349/349 348/348/348 347/347/347
f 350/350/350 349/349/349 347/347/347
f 347/347/347 351/351/351 350/350/350
f 351/351/351 352/352/352 350/350/350
f 355/355/355 354/354/354 353/353/353
f 356/356/356 355/355/355 353/353/353
f 359/359/359 358/358/358 357/357/357
f 360/360/360 359/359/359 357/357/357
f 363/363/363 362/362/362 361/361/361
f 364/364/364 363/363/363 361/361/361
f 367/367/367 366/366/366 365/365/365
f 368/368/368 367/367/367 365/365/365
f 371/371/371 370/370/370 369/369/369
f 372/372/372 371/371/371 369/369/369
f 375/375/375 374/374/374 373/373/373
f 376/376/376 375/375/375 373/373/373
f 379/379/379 378/378/378 377/377/377
f 380/380/380 379/379/379 377/377/377
f 383/383/383 382/382/382 381/381/381
f 384/384/384 383/383/383 381/381/381
f 387/387/387 386/386/386 385/385/385
f 388/388/388 387/387/387 385/385/385
f 391/391/391 390/390/390 389/389/389
f 392/392/392 391/391/391 389/389/389
f 395/395/395 394/394/394 393/393/393
f 396/396/396 395/395/395 393/393/393
f 393/393/393 397/397/397 396/396/396
f 397/397/397 398/398/398 396/396/396
f 401/401/401 400/400/400 399/399/399
f 402/402/402 401/401/401 399/399/399
f 405/405/405 404/404/404 403/403/403
f 406/406/406 405/405/405 403/403/403
f 409/409/409 408/408/408 407/407/407
f 410/410/410 409/409/409 407/407/407
f 413/413/413 412/412/412 411/411/411
f 414/414/414 413/413/413 411/411/411
f 417/417/417 416/416/416 415/415/415
f 418/418/418 417/417/417 415/415/415
f 421/421/421 420/420/420 419/419/419
f 422/422/422 421/421/421 419/419/419
f 425/425/425 424/424/424 423/423/423
f 426/426/426 425/425/425 423/423/423
f 429/429/429 428/428/428 427/427/427
f 430/430/430 429/429/429 427/427/427
f 433/433/433 432/432/432 431/431/431
f 432/432/432 434/434/434 431/431/431
f 431/431/431 434/434/434 435/435/435
f 434/434/434 436/436/436 435/435/435
f 439/439/439 438/438/438 437/437/437
f 438/438/438 440/440/440 437/437/437
f 441/441/441 437/437/437 440/440/440
f 442/442/442 441/441/441 440/440/440
f 445/445/445 444/444/444 443/443/443
f 446/446/446 445/445/445 443/443/443
f 449/449/449 448/448/448 447/447/447
f 450/450/450 449/449/449 447/447/447
f 453/453/453 452/452/452 451/451/451
f 454/454/454 453/453/453 451/451/451
f 457/457/457 456/456/456 455/455/455
f 458/458/458 457/457/457 455/455/455
f 461/461/461 460/460/460 459/459/459
f 462/462/462 461/461/461 459/459/459
f 459/459/459 463/463/463 462/462/462
f 463/463/463 464/464/464 462/462/462
f 467/467/467 466/466/466 465/465/465
f 468/468/468 467/467/467 465/465/465
f 471/471/471 470/470/470 469/469/469
f 472/472/472 471/471/471 469/469/469
f 475/475/475 474/474/474 473/473/473
f 476/476/476 475/475/475 473/473/473
f 479/479/479 478/478/478 477/477/477
f 480/480/480 479/479/479 477/477/477
f 483/483/483 482/482/482 481/481/481
f 484/484/484 483/483/483 481/481/481
f 487/487/487 486/486/486 485/485/485
f 488/488/488 487/487/487 485/485/485
f 491/491/491 490/490/490 489/489/489
f 492/492/492 491/491/491 489/489/489
f 495/495/495 494/494/494 493/493/493
f 496/496/496 495/495/495 493/493/493
f 499/499/499 498/498/498 497/497/497
f 500/500/500 499/499/499 497/497/497
f 503/503/503 502/502/502 501/501/501
f 504/504/504 503/503/503 501/501/501
f 507/507/507 506/506/506 505/505/505
f 508/508/508 507/507/507 505/505/505
f 511/511/511 510/510/510 509/509/509
f 512/512/512 511/511/511 509/509/509
f 515/515/515 514/514/514 513/513/513
f 516/516/516 515/515/515 513/513/513
f 519/519/519 518/518/518 517/517/517
f 520/520/520 519/519/519 517/517/517
f 523/523/523 522/522/522 521/521/521
f 524/524/524 523/523/523 521/521/521
f 527/527/527 526/526/526 525/525/525
f 528/528/528 527/527/527 525/525/525
f 531/531/531 530/530/530 529/529/529
f 532/532/532 531/531/531 529/529/529
f 535/535/535 534/534/534 533/533/533
f 536/536/536 535/535/535 533/533/533
f 539/539/539 538/538/538 537/537/537
f 540/540/540 539/539/539 537/537/537
f 543/543/543 542/542/542 541/541/541
f 544/544/544 543/543/543 541/541/541
f 547/547/547 546/546/546 545/545/545
f 548/548/548 547/547/547 545/545/545
f 551/551/551 550/550/550 549/549/549
f 552/552/552 551/551/551 549/549/549
f 555/555/555 554/554/554 553/553/553
f 556/556/556 555/555/555 553/553/553
f 559/559/559 558/558/558 557/557/557
f 560/560/560 559/559/559 557/557/557
f 563/563/563 562/562/562 561/561/561
f 564/564/564 563/563/563 561/561/561
f 567/567/567 566/566/566 565/565/565
f 568/568/568 567/567/567 565/565/565
f 571/571/571 570/570/570 569/569/569
f 572/572/572 571/571/571 569/569/569
f 575/575/575 574/574/574 573/573/573
f 576/576/576 575/575/575 573/573/573
f 579/579/579 578/578/578 577/577/577
f 580/580/580 579/579/579 577/577/577
f 583/583/583 582/582/582 581/581/581
f 584/584/584 583/583/583 581/581/581
f 587/587/587 586/586/586 585/585/585
f 588/588/588 587/587/587 585/585/585
f 591/591/591 590/590/590 589/589/589
f 592/592/592 591/591/591 589/589/589
f 595/595/595 594/594/594 593/593/593
f 596/596/596 595/595/595 593/593/593
f 599/599/599 598/598/598 597/597/597
f 600/600/600 599/599/599 597/597/597
f 603/603/603 602/602/602 601/601/601
f 604/604/604 603/603/603 601/601/601
f 607/607/607 606/606/606 605/605/605
f 608/608/608 607/607/607 605/605/605
f 611/611/611 610/610/610 609/609/609
f 612/612/612 611/611/611 609/609/609
f 615/615/615 614/614/614 613/613/613
f 616/616/616 615/615/615 613/613/613
f 619/619/619 618/618/618 617/617/617
f 620/620/620 619/619/619 617/617/617
f 623/623/623 622/622/622 621/621/621
f 624/624/624 623/623/623 621/621/621
f 627/627/627 626/626/626 625/625/625
f 628/628/628 627/627/627 625/625/625
f 631/631/631 630/630/630 629/629/629
f 632/632/632 631/631/631 629/629/629
f 635/635/635 634/634/634 633/633/633
f 636/636/636 635/635/635 633/633/633
f 639/639/639 638/638/638 637/637/637
f 640/640/640 639/639/639 637/637/637
f 643/643/643 642/642/642 641/641/641
f 644/644/644 643/643/643 641/641/641
f 647/647/647 646/646/646 645/645/645
f 648/648/648 647/647/647 645/645/645
f 651/651/651 650/650/650 649/649/649
f 652/652/652 651/651/651 649/649/649
f 655/655/655 654/654/654 653/653/653
f 656/656/656 655/655/655 653/653/653
f 659/659/659 658/658/658 657/657/657
f 660/660/660 659/659/659 657/657/657
f 663/663/663 662/662/662 661/661/661
f 664/664/664 663/663/663 661/661/661
f 667/667/667 666/666/666 665/665/665
f 668/668/668 667/667/667 665/665/665
f 671/671/671 670/670/670 669/669/669
f 672/672/672 671/671/671 669/669/669
f 675/675/675 674/674/674 673/673/673
f 676/676/676 675/675/675 673/673/673
f 679/679/679 678/678/678 677/677/677
f 680/680/680 679/679/679 677/677/677
f 677/677/677 681/681/681 680/680/680
f 681/681/681 682/682/682 680/680/680
f 685/685/685 684/684/684 683/683/683
f 686/686/686 685/685/685 683/683/683
f 689/689/689 688/688/688 687/687/687
f 690/690/690 689/689/689 687/687/687
f 693/693/693 692/692/692 691/691/691
f 694/694/694 693/693/693 691/691/691
f 697/697/697 696/696/696 695/695/695
f 698/698/698 697/697/697 695/695/695
f 701/701/701 700/700/700 699/699/699
f 702/702/702 701/701/701 699/699/699
f 705/705/705 704/704/704 703/703/703
f 706/706/706 705/705/705 703/703/703
f 709/709/709 708/708/708 707/707/707
f 710/710/710 709/709/709 707/707/707
f 713/713/713 712/712/712 711/711/711
f 714/714/714 713/713/713 711/711/711
f 717/717/717 716/716/716 715/715/715
f 716/716/716 718/718/718 715/715/715
f 715/715/715 718/718/718 719/719/719
f 718/718/718 720/720/720 719/719/719
f 723/723/723 722/722/722 721/721/721
f 722/722/722 724/724/724 721/721/721
f 725/725/725 721/721/721 724/724/724
f 726/726/726 725/725/725 724/724/724
f 729/729/729 728/728/728 727/727/727
f 730/730/730 729/729/729 727/727/727
f 733/733/733 732/732/732 731/731/731
f 734/734/734 733/733/733 731/731/731
f 737/737/737 736/736/736 735/735/735
f 738/738/738 737/737/737 735/735/735
f 741/741/741 740/740/740 739/739/739
f 742/742/742 741/741/741 739/739/739
f 745/745/745 744/744/744 743/743/743
f 746/746/746 745/745/745 743/743/743
f 743/743/743 747/747/747 746/746/746
f 747/747/747 748/748/748 746/746/746
f 751/751/751 750/750/750 749/749/749
f 752/752/752 751/751/751 749/749/749
f 755/755/755 754/754/754 753/753/753
f 756/756/756 755/755/755 753/753/753
f 759/759/759 758/758/758 757/757/757
f 760/760/760 759/759/759 757/757/757
f 763/763/763 762/762/762 761/761/761
f 764/764/764 763/763/763 761/761/761
f 767/767/767 766/766/766 765/765/765
f 768/768/768 767/767/767 765/765/765
f 771/771/771 770/770/770 769/769/769
f 772/772/772 771/771/771 769/769/769
f 775/775/775 774/774/774 773/773/773
f 776/776/776 775/775/775 773/773/773
f 779/779/779 778/778/778 777/777/777
f 780/780/780 779/779/779 777/777/777
f 783/783/783 782/782/782 781/781/781
f 784/784/784 783/783/783 781/781/781
f 787/787/787 786/786/786 785/785/785
f 788/788/788 787/787/787 785/785/785
f 791/791/791 790/790/790 789/789/789
f 792/792/792 791/791/791 789/789/789
f 795/795/795 794/794/794 793/793/793
f 796/796/796 795/795/795 793/793/793
f 799/799/799 798/798/798 797/797/797
f 800/800/800 799/799/799 797/797/797
f 803/803/803 802/802/802 801/801/801
f 801/801/801 802/802/802 804/804/804
f 805/805/805 802/802/802 803/803/803
f 804/804/804 802/802/802 806/806/806
f 807/807/807 802/802/802 805/805/805
f 806/806/806 802/802/802 808/808/808
f 809/809/809 802/802/802 807/807/807
f 808/808/808 802/802/802 809/809/809
f 812/812/812 811/811/811 810/810/810
f 810/810/810 811/811/811 813/813/813
f 814/814/814 811/811/811 812/812/812
f 813/813/813 811/811/811 815/815/815
f 816/816/816 811/811/811 814/814/814
f 815/815/815 811/811/811 817/817/817
f 818/818/818 811/811/811 816/816/816
f 817/817/817 811/811/811 818/818/818
f 821/821/821 820/820/820 819/819/819
f 819/819/819 820/820/820 822/822/822
f 823/823/823 820/820/820 821/821/821
f 822/822/822 820/820/820 824/824/824
f 825/825/825 820/820/820 823/823/823
f 824/824/824 820/820/820 826/826/826
f 827/827/827 820/820/820 825/825/825
f 826/826/826 820/820/820 827/827/827
f 830/830/830 829/829/829 828/828/828
f 828/828/828 829/829/829 831/831/831
f 832/832/832 829/829/829 830/830/830
f 831/831/831 829/829/829 833/833/833
f 834/834/834 829/829/829 832/832/832
f 833/833/833 829/829/829 835/835/835
f 836/836/836 829/829/829 834/834/834
f 835/835/835 829/829/829 836/836/836
