g parkingSpot01
v 0.5000001 -4.999998 1.5117577E-08
v 7 -4.9999976 1.5117578E-08
v 7 -5.9999976 1.5117578E-08
v 0.5000002 -5.999998 1.5117578E-08
v -0.49999982 -6.000002 -1.5117578E-08
v -0.49999985 -5.000002 -1.5117578E-08
v 0.49999985 5.000002 1.5117578E-08
v -0.5000001 4.999998 -1.5117577E-08
v 0.49999982 6.000002 1.5117578E-08
v -0.5000002 5.999998 -1.5117578E-08
v 7 5.0000024 1.5117578E-08
v 6.9999995 6.0000024 1.5117571E-08
vt 0.5987215 0.035528265
vt 0.5987215 0.035528265
vt 0.5987215 0.035528265
vt 0.5987215 0.035528265
vt 0.5987215 0.035528265
vt 0.5987215 0.035528265
vt 0.5987215 0.035528265
vt 0.5987215 0.035528265
vt 0.5987215 0.035528265
vt 0.5987215 0.035528265
vt 0.5987215 0.035528265
vt 0.5987215 0.035528265
vn -0 0 1
vn -0 0 1
vn -0 0 1
vn -0 0 1
vn -0 0 1
vn -0 0 1
vn -0 0 1
vn -0 0 1
vn -0 0 1
vn -0 0 1
vn -0 0 1
vn -0 0 1
g parkingSpot01_0
f 3/3/3 2/2/2 1/1/1
f 4/4/4 3/3/3 1/1/1
f 5/5/5 4/4/4 1/1/1
f 6/6/6 5/5/5 1/1/1
f 1/1/1 7/7/7 6/6/6
f 7/7/7 8/8/8 6/6/6
f 8/8/8 7/7/7 9/9/9
f 10/10/10 8/8/8 9/9/9
f 7/7/7 11/11/11 9/9/9
f 11/11/11 12/12/12 9/9/9
