g Penguin_LOD2
v 0.033235144 0.37364447 0.1438249
v -5.2786877E-09 0.38900006 0.17255637
v -5.2786877E-09 0.40939662 0.1298365
v 0.033742663 0.44178173 0.23296174
v -5.2786877E-09 0.44723544 0.26543936
v -5.2786877E-09 0.47612038 0.22490877
v -0.024169717 0.14965934 0.18614174
v -5.2786877E-09 0.16869229 0.1943809
v -5.2786877E-09 0.12956066 0.18016423
v 0.21736698 -0.3700691 1.5310446
v 0.2015596 -0.2970585 1.6425395
v 0.2841222 -0.27519226 1.5889452
v 0.21736698 -0.3700691 1.5310446
v 0.12620075 -0.36107573 1.6227951
v 0.2015596 -0.2970585 1.6425395
v 0.21736698 -0.3700691 1.5310446
v 0.097315356 -0.4264165 1.5516385
v 0.12620075 -0.36107573 1.6227951
v 0.21736698 -0.3700691 1.5310446
v 0.14172158 -0.45189878 1.4647719
v 0.097315356 -0.4264165 1.5516385
v 0.21736698 -0.3700691 1.5310446
v 0.22428393 -0.4300325 1.4111775
v 0.14172158 -0.45189878 1.4647719
v 0.21736698 -0.3700691 1.5310446
v 0.29964316 -0.36601508 1.4309218
v 0.22428393 -0.4300325 1.4111775
v 0.21736698 -0.3700691 1.5310446
v 0.32852855 -0.30067444 1.5020785
v 0.29964316 -0.36601508 1.4309218
v 0.21736698 -0.3700691 1.5310446
v 0.2841222 -0.27519226 1.5889452
v 0.32852855 -0.30067444 1.5020785
v -0.21736698 -0.3700691 1.5310446
v -0.2841222 -0.27519226 1.5889452
v -0.2015596 -0.2970585 1.6425395
v -0.21736698 -0.3700691 1.5310446
v -0.2015596 -0.2970585 1.6425395
v -0.12620075 -0.36107573 1.6227951
v -0.21736698 -0.3700691 1.5310446
v -0.12620075 -0.36107573 1.6227951
v -0.09731537 -0.4264165 1.5516385
v -0.21736698 -0.3700691 1.5310446
v -0.09731537 -0.4264165 1.5516385
v -0.14172158 -0.45189878 1.4647719
v -0.21736698 -0.3700691 1.5310446
v -0.14172158 -0.45189878 1.4647719
v -0.22428393 -0.4300325 1.4111775
v -0.21736698 -0.3700691 1.5310446
v -0.22428393 -0.4300325 1.4111775
v -0.29964316 -0.36601508 1.4309218
v -0.21736698 -0.3700691 1.5310446
v -0.29964316 -0.36601508 1.4309218
v -0.32852855 -0.30067444 1.5020785
v -0.21736698 -0.3700691 1.5310446
v -0.32852855 -0.30067444 1.5020785
v -0.2841222 -0.27519226 1.5889452
v 0.4461885 0.043346237 0.48965105
v 0.46027565 0.062425327 0.3846098
v 0.46832183 0.13856122 0.44898748
v 0.45559683 0.13469835 0.5374519
v 0.4226274 0.00843989 0.6871768
v 0.4284616 0.110378824 0.72087985
v 0.43047774 -0.10231884 0.69274616
v 0.45280525 -0.06406775 0.5109967
v 0.4179857 -0.1135479 0.8242142
v 0.48962772 -0.15732662 0.8765638
v 0.50646687 -0.16356567 0.7188253
v 0.5552766 -0.113112584 0.8440159
v 0.5688628 -0.10172718 0.7119322
v 0.55717766 -0.020343093 0.87798536
v 0.57743454 0.0077367267 0.71053016
v 0.4085812 -0.020044096 0.8555609
v 0.41545263 0.07849501 0.84925985
v 0.47967833 -0.03453836 0.9563929
v 0.48332533 0.105466425 0.91002226
v 0.45280525 -0.06406775 0.5109967
v 0.46027565 0.062425327 0.3846098
v 0.46320778 -0.0365959 0.42546082
v 0.5482474 0.077484205 0.8682674
v 0.561462 0.10861963 0.7396079
v 0.55717766 -0.020343093 0.87798536
v 0.561462 0.10861963 0.7396079
v 0.57409066 0.042310525 0.5068114
v 0.5631411 0.13130374 0.55168283
v 0.56823635 0.06111381 0.3988482
v 0.5613393 0.1344226 0.46159244
v 0.51589715 0.17459345 0.56372756
v 0.5233899 0.16554502 0.4329688
v 0.52819014 0.07928208 0.2948792
v 0.56823635 0.06111381 0.3988482
v 0.46027565 0.062425327 0.3846098
v 0.46832183 0.13856122 0.44898748
v 0.5219586 -0.057807982 0.40188995
v 0.56298625 -0.034215145 0.43837738
v 0.56298625 -0.034215145 0.43837738
v 0.57409066 0.042310525 0.5068114
v 0.5673847 -0.06212911 0.5254252
v 0.5219586 -0.057807982 0.40188995
v 0.5688628 -0.10172718 0.7119322
v 0.5180468 -0.11300648 0.52449566
v 0.50646687 -0.16356567 0.7188253
v 0.50646687 -0.16356567 0.7188253
v 0.45280525 -0.06406775 0.5109967
v 0.43047774 -0.10231884 0.69274616
v 0.5233899 0.16554502 0.4329688
v 0.45559683 0.13469835 0.5374519
v 0.46832183 0.13856122 0.44898748
v 0.51589715 0.17459345 0.56372756
v 0.49958616 0.15956613 0.76181316
v 0.5631411 0.13130374 0.55168283
v 0.561462 0.10861963 0.7396079
v 0.41545263 0.07849501 0.84925985
v 0.4284616 0.110378824 0.72087985
v 0.49958616 0.15956613 0.76181316
v 0.48332533 0.105466425 0.91002226
v 0.561462 0.10861963 0.7396079
v 0.5482474 0.077484205 0.8682674
v 0.55717766 -0.020343093 0.87798536
v 0.47967833 -0.03453836 0.9563929
v 0.46320778 -0.0365959 0.42546082
v 0.5219586 -0.057807982 0.40188995
v 0.52819014 0.07928208 0.2948792
v 0.46027565 0.062425327 0.3846098
v 0.5552766 -0.113112584 0.8440159
v 0.48962772 -0.15732662 0.8765638
v 0.47967833 -0.03453836 0.9563929
v 0.55717766 -0.020343093 0.87798536
v 0.5180468 -0.11300648 0.52449566
v 0.5219586 -0.057807982 0.40188995
v 0.46320778 -0.0365959 0.42546082
v 0.45280525 -0.06406775 0.5109967
v 0.033235144 0.37364447 0.1438249
v -5.2786877E-09 0.40939662 0.1298365
v -5.2786877E-09 0.3583329 0.114901975
v -0.03323515 0.37364447 0.1438249
v -5.2786877E-09 0.38900006 0.17255637
v -0.034998525 0.17494565 0.2690015
v -5.2786877E-09 0.1560426 0.24027742
v -5.2786877E-09 0.19386666 0.2977275
v -5.2786877E-09 0.3583329 0.114901975
v 0.034998517 0.17494565 0.2690015
v 0.033235144 0.37364447 0.1438249
v 0.033742663 0.44178173 0.23296174
v -5.2786877E-09 0.47612038 0.22490877
v -5.2786877E-09 0.43640915 0.20003387
v -0.03374267 0.44178173 0.23296174
v -5.2786877E-09 0.44723544 0.26543936
v -0.034601837 0.20482002 0.2979845
v -5.2786877E-09 0.19227909 0.26631716
v -5.2786877E-09 0.21737073 0.32963562
v -5.2786877E-09 0.43640915 0.20003387
v 0.03460183 0.20482002 0.2979845
v 0.033742663 0.44178173 0.23296174
v -0.027057892 -0.16809572 1.8602606
v -0.032832984 -0.1762594 1.7631406
v -5.2786877E-09 -0.14417943 1.761113
v -5.2786877E-09 -0.14124829 1.8589382
v 0.032832976 -0.1762594 1.7631406
v -5.2786877E-09 -0.16661297 1.8850448
v 0.02705788 -0.16809572 1.8602606
v -5.2786877E-09 -0.19470654 1.861544
v -5.2786877E-09 -0.20815322 1.7652165
v -0.032832984 -0.1762594 1.7631406
v 0.03090697 -0.1840287 1.6572545
v -5.2786877E-09 -0.20815322 1.7652165
v -5.2786877E-09 -0.14417943 1.761113
v -5.2786877E-09 -0.21447939 1.6574471
v -5.2786877E-09 -0.15358678 1.657077
v -0.032832984 -0.1762594 1.7631406
v -0.03090698 -0.1840287 1.6572545
v 0.18131897 0.3025338 0.30379403
v 0.19449343 0.16515252 0.21168014
v 0.36339217 0.15162207 0.38372374
v 0.33686972 0.27431494 0.43933406
v 0.35652304 0.0053414335 1.5424441
v 0.417409 0.10585871 1.310321
v 0.4544858 -0.015210924 1.2376316
v 0.38678753 -0.16655535 1.4994285
v 0.417409 0.10585871 1.310321
v 0.47800452 0.072850384 0.9501684
v 0.4495654 -0.13812019 1.1547716
v 0.3687649 -0.28249943 1.3924228
v 0.38678753 -0.16655535 1.4994285
v 0.3324611 -0.34147877 1.2556539
v 0.41515887 -0.25187764 1.0742265
v 0.20839904 -0.44677383 1.3539042
v 0.47674212 -0.061712116 0.8922706
v 0.44057354 -0.19116905 0.8402754
v 0.19586264 -0.37333143 1.5267551
v -5.2786877E-09 -0.5019602 1.4007341
v 0.45233732 -0.0129245045 0.60812986
v 0.4219818 -0.14789505 0.58306015
v 0.45232505 0.12664844 0.6442393
v 0.3643354 0.005241113 0.35765564
v 0.34655792 -0.13540314 0.35847926
v 0.36339217 0.15162207 0.38372374
v 0.19636379 -0.0025875492 0.18673028
v 0.18946518 -0.16548294 0.21391056
v 0.19449343 0.16515252 0.21168014
v -5.2786877E-09 0.1685914 0.15947078
v 0.33686972 0.27431494 0.43933406
v 0.18131897 0.3025338 0.30379403
v -5.2786877E-09 -0.010196985 0.1333864
v -5.2786877E-09 -0.18474062 0.16883539
v -0.18946518 -0.16548294 0.21391056
v -0.19636379 -0.0025875492 0.18673028
v -0.34655792 -0.13540314 0.35847926
v 0.40933272 0.2515089 0.687822
v 0.43075976 0.19771913 1.00815
v 0.32984704 0.351361 0.724133
v 0.3449299 0.30279973 1.0592546
v 0.3422417 0.21017669 1.3739468
v 0.29902875 0.35121402 0.5031415
v 0.16801398 0.39409342 0.45019287
v 0.17026846 0.43036973 0.73764545
v -5.2786877E-09 0.31393188 0.26569235
v 0.3212862 0.11098655 1.5639709
v 0.35652304 0.0053414335 1.5424441
v 0.17712077 0.3909794 1.1056085
v -5.2786877E-09 0.4109559 0.430965
v 0.17905334 0.28842917 1.4461979
v 0.18366149 0.12506102 1.6602846
v -5.2786877E-09 0.45541394 0.7381982
v -5.2786877E-09 0.41855255 1.1213377
v -0.17026846 0.43036973 0.73764545
v -0.16801398 0.39409342 0.45019287
v -5.2786877E-09 0.30957022 1.4734375
v 0.19567683 -0.053132627 1.6948259
v -0.17712077 0.3909794 1.1056085
v -5.2786877E-09 0.13034357 1.6988496
v 0.20437182 -0.24215263 1.6487502
v -0.18131897 0.3025338 0.30379403
v -0.32984704 0.351361 0.724133
v -0.17905334 0.28842917 1.4461979
v -5.2786877E-09 -0.07417172 1.7493457
v -5.2786877E-09 -0.40917245 1.5731014
v -0.19449343 0.16515252 0.21168014
v -0.3449299 0.30279973 1.0592546
v -5.2786877E-09 -0.3049451 1.6889131
v -0.19586264 -0.37333143 1.5267551
v -0.20839904 -0.44677383 1.3539042
v -0.20437182 -0.24215263 1.6487502
v -0.3687649 -0.28249943 1.3924228
v -0.3324611 -0.34147877 1.2556539
v -0.41515887 -0.25187764 1.0742265
v -0.19567683 -0.053132627 1.6948259
v -0.38678753 -0.16655535 1.4994285
v -0.4495654 -0.13812019 1.1547716
v -0.44057354 -0.19116905 0.8402754
v -0.18366149 0.12506102 1.6602846
v -0.3422417 0.21017669 1.3739468
v -0.3212862 0.11098655 1.5639709
v -0.35652304 0.0053414335 1.5424441
v -0.47674212 -0.061712116 0.8922706
v -0.4219818 -0.14789505 0.58306015
v -0.4544858 -0.015210924 1.2376316
v -0.35652304 0.0053414335 1.5424441
v -0.45233732 -0.0129245045 0.60812986
v -0.417409 0.10585871 1.310321
v -0.3212862 0.11098655 1.5639709
v -0.3422417 0.21017669 1.3739468
v -0.47800452 0.072850384 0.9501684
v -0.3643354 0.005241113 0.35765564
v -0.43075976 0.19771913 1.00815
v -0.45232505 0.12664844 0.6442393
v -0.36339217 0.15162207 0.38372374
v -0.33686972 0.27431494 0.43933406
v -0.40933272 0.2515089 0.687822
v -0.29902875 0.35121402 0.5031415
v -0.45280525 -0.06406775 0.5109967
v -0.46320778 -0.0365959 0.42546082
v -0.5219586 -0.057807982 0.40188995
v -0.5180468 -0.11300648 0.52449566
v -0.50646687 -0.16356567 0.7188253
v -0.43047774 -0.10231884 0.69274616
v -0.5673847 -0.06212911 0.5254252
v -0.56298625 -0.034215145 0.43837738
v -0.5688628 -0.10172718 0.7119322
v -0.5284043 0.07932772 0.29451692
v -0.48962772 -0.15732662 0.8765638
v -0.5552766 -0.113112584 0.8440159
v -0.56862384 0.06112813 0.39876974
v -0.5573352 -0.020357698 0.8781374
v -0.5233899 0.16554502 0.4329688
v -0.5613393 0.1344226 0.46159244
v -0.45982504 0.06246836 0.38436878
v -0.46832183 0.13856122 0.44898748
v -0.57743454 0.0077367267 0.71053016
v -0.57409066 0.042310525 0.5068114
v -0.5673847 -0.06212911 0.5254252
v -0.56298625 -0.034215145 0.43837738
v -0.56862384 0.06112813 0.39876974
v -0.5631411 0.13130374 0.55168283
v -0.561462 0.10861963 0.7396079
v -0.49958616 0.15956613 0.76181316
v -0.51589715 0.17459345 0.56372756
v -0.45559683 0.13469835 0.5374519
v -0.4284616 0.110378824 0.72087985
v -0.48332533 0.105466425 0.91002226
v -0.5482474 0.077484205 0.8682674
v -0.47967112 -0.03453063 0.95631874
v -0.56862384 0.06112813 0.39876974
v -0.5631411 0.13130374 0.55168283
v -0.4179857 -0.1135479 0.8242142
v -0.48962772 -0.15732662 0.8765638
v -0.40832245 -0.020065753 0.85570145
v -0.48962772 -0.15732662 0.8765638
v -0.5552766 -0.113112584 0.8440159
v -0.5573352 -0.020357698 0.8781374
v -0.40832245 -0.020065753 0.85570145
v -0.48332533 0.105466425 0.91002226
v -0.41545263 0.07849501 0.84925985
v -0.4226274 0.00843989 0.6871768
v -0.40832245 -0.020065753 0.85570145
v -0.4179857 -0.1135479 0.8242142
v -0.4284616 0.110378824 0.72087985
v -0.48332533 0.105466425 0.91002226
v -0.49958616 0.15956613 0.76181316
v -0.43047774 -0.10231884 0.69274616
v -0.48962772 -0.15732662 0.8765638
v -0.50646687 -0.16356567 0.7188253
v -0.45280525 -0.06406775 0.5109967
v -0.4461885 0.043346237 0.48965105
v -0.45559683 0.13469835 0.5374519
v -0.46832183 0.13856122 0.44898748
v -0.45982504 0.06246836 0.38436878
v -0.5233899 0.16554502 0.4329688
v -0.51589715 0.17459345 0.56372756
v -0.5631411 0.13130374 0.55168283
v -0.5613393 0.1344226 0.46159244
v -0.45982504 0.06246836 0.38436878
v -0.45280525 -0.06406775 0.5109967
v -0.46320778 -0.0365959 0.42546082
v -0.5284043 0.07932772 0.29451692
v -0.5219586 -0.057807982 0.40188995
v -0.46320778 -0.0365959 0.42546082
v -0.45982504 0.06246836 0.38436878
v 0.046223532 0.094972804 0.16420819
v 0.057457384 0.105511084 0.16815974
v 0.057457384 0.11588252 0.14639081
v 0.046223532 0.10534424 0.14243938
v 0.023531312 0.16653527 0.14909221
v -5.2786877E-09 0.14431469 0.14085914
v 0.046223532 0.10534424 0.14243938
v 0.04387864 0.21453358 0.18200482
v -5.2786877E-09 0.16869229 0.1943809
v -5.2786877E-09 0.18877824 0.1570194
v 0.04387864 0.20417684 0.2037256
v 0.024169706 0.14965934 0.18614174
v -5.2786877E-09 0.16869229 0.1943809
v 0.05633616 0.19327752 0.20002176
v 0.05633616 0.19327752 0.20002176
v 0.04387864 0.20417684 0.2037256
v 0.05633616 0.203641 0.17827871
v 0.023531312 0.16653527 0.14909221
v -5.2786877E-09 0.18877824 0.1570194
v -5.2786877E-09 0.14431469 0.14085914
v -0.023531323 0.16653527 0.14909221
v -0.04387865 0.21453358 0.18200482
v -0.05633617 0.203641 0.17827871
v -0.04387865 0.20417684 0.2037256
v -0.05633617 0.19327752 0.20002176
v -0.024169717 0.14965934 0.18614174
v -5.2786877E-09 0.16869229 0.1943809
v 0.057457384 0.11588252 0.14639081
v 0.024169706 0.14965934 0.18614174
v 0.057457384 0.105511084 0.16815974
v 0.046223532 0.094972804 0.16420819
v -5.2786877E-09 0.12956066 0.18016423
v 0.024169706 0.14965934 0.18614174
v -5.2786877E-09 0.16869229 0.1943809
v -5.2786877E-09 0.14431469 0.14085914
v -0.023531323 0.16653527 0.14909221
v -0.05745739 0.11588252 0.14639081
v -0.04622354 0.10534424 0.14243938
v -0.023531323 0.16653527 0.14909221
v -0.024169717 0.14965934 0.18614174
v -0.05745739 0.105511084 0.16815974
v -0.05745739 0.11588252 0.14639081
v -0.024169717 0.14965934 0.18614174
v -0.023531323 0.16653527 0.14909221
v -0.05633617 0.203641 0.17827871
v -0.05633617 0.19327752 0.20002176
v -0.05745739 0.105511084 0.16815974
v -0.024169717 0.14965934 0.18614174
v -5.2786877E-09 0.12956066 0.18016423
v -0.04622354 0.094972804 0.16420819
v -5.2786877E-09 0.14431469 0.14085914
v -5.2786877E-09 0.12956066 0.18016423
v 0.046223532 0.094972804 0.16420819
v 0.046223532 0.10534424 0.14243938
v -5.2786877E-09 0.14431469 0.14085914
v -0.04622354 0.094972804 0.16420819
v -5.2786877E-09 0.12956066 0.18016423
v -0.04622354 0.10534424 0.14243938
v -0.05745739 0.11588252 0.14639081
v -0.05745739 0.105511084 0.16815974
v -0.04387865 0.21453358 0.18200482
v -5.2786877E-09 0.18877824 0.1570194
v -5.2786877E-09 0.16869229 0.1943809
v -0.04387865 0.20417684 0.2037256
v 0.023531312 0.16653527 0.14909221
v 0.024169706 0.14965934 0.18614174
v 0.05633616 0.19327752 0.20002176
v 0.05633616 0.203641 0.17827871
v 0.1137726 -0.5253624 1.3683391
v 0.09500282 -0.4984763 1.3290926
v -5.2786877E-09 -0.53772753 1.3258156
v -5.2786877E-09 -0.59946716 1.3750987
v -5.2786877E-09 -0.5252259 1.4197743
v 0.1137726 -0.5253624 1.3683391
v 0.09667435 -0.48769546 1.4025899
v 0.14241849 -0.45355365 1.357138
v 0.10902014 -0.44393182 1.3985597
v 0.10658877 -0.45419326 1.317984
v 0.09500282 -0.4984763 1.3290926
v -5.2786877E-09 -0.4675334 1.310033
v -5.2786877E-09 -0.53772753 1.3258156
v 0.115569666 -0.3936702 1.3024505
v 0.15933079 -0.3891499 1.3431501
v -5.2786877E-09 -0.3946999 1.2934026
v 0.11773225 -0.38394728 1.3885115
v -5.2786877E-09 -0.3811456 1.4193574
v -0.10658879 -0.45419326 1.317984
v -0.11556968 -0.3936702 1.3024505
v -0.15933079 -0.3891499 1.3431501
v -5.2786877E-09 -0.45496047 1.4244996
v -0.117732264 -0.38394728 1.3885115
v -0.10902015 -0.44393182 1.3985597
v -0.09500284 -0.4984763 1.3290926
v -0.14241849 -0.45355365 1.357138
v -0.09667437 -0.48769546 1.4025899
v -0.113772616 -0.5253624 1.3683391
v 0.48962772 -0.15732662 0.8765638
v 0.4179857 -0.1135479 0.8242142
v 0.4085812 -0.020044096 0.8555609
v 0.47967833 -0.03453836 0.9563929
v -0.2272035 -0.41916743 1.4398853
v -0.28632885 -0.3689154 1.4551195
v -0.22140239 -0.3722602 1.5337301
v -0.1625716 -0.4362684 1.4821297
v -0.3091228 -0.31757072 1.5107673
v -0.12795936 -0.41643697 1.5498033
v -0.27408546 -0.29743895 1.5793613
v -0.15037502 -0.3651421 1.6056656
v -0.20930941 -0.31477877 1.6212685
v 0.2272035 -0.41916743 1.4398853
v 0.22140239 -0.3722602 1.5337301
v 0.28632885 -0.3689154 1.4551195
v 0.1625716 -0.4362684 1.4821297
v 0.3091228 -0.31757072 1.5107673
v 0.12795936 -0.41643697 1.5498033
v 0.27408546 -0.29743895 1.5793613
v 0.15037502 -0.3651421 1.6056656
v 0.20930941 -0.31477877 1.6212685
v -0.033576194 -0.21000339 1.6448939
v -5.2786877E-09 -0.2767228 1.7521249
v -5.2786877E-09 -0.23992287 1.6309314
v 0.033576187 -0.21000339 1.6448939
v -0.03584004 -0.2435278 1.762618
v -5.2786877E-09 -0.18008777 1.6588534
v -5.2786877E-09 -0.2101921 1.7732188
v -0.028864417 -0.27225602 1.8679417
v 0.03584003 -0.2435278 1.762618
v -5.2786877E-09 -0.2992956 1.8592987
v -5.2786877E-09 -0.24498244 1.8766693
v 0.028864406 -0.27225602 1.8679417
v -5.2786877E-09 -0.27992025 1.8948582
v -0.18946518 -0.16548294 0.21391056
v -0.34655792 -0.13540314 0.35847926
v -0.3052439 -0.2657107 0.3937896
v -0.4219818 -0.14789505 0.58306015
v -0.17898801 -0.3299712 0.3282507
v -5.2786877E-09 -0.18474062 0.16883539
v -0.33319405 -0.30233064 0.5584565
v -0.44057354 -0.19116905 0.8402754
v -0.18266776 -0.4192842 0.5220961
v -0.34000662 -0.34403485 0.7868396
v -0.41515887 -0.25187764 1.0742265
v -5.2786877E-09 -0.36316288 0.30114123
v 0.18946518 -0.16548294 0.21391056
v -5.2786877E-09 -0.46521923 0.5052149
v -0.3232824 -0.38410446 0.9964531
v -0.3324611 -0.34147877 1.2556539
v -0.18331844 -0.46746266 0.75166065
v 0.17898801 -0.3299712 0.3282507
v 0.3052439 -0.2657107 0.3937896
v 0.34655792 -0.13540314 0.35847926
v 0.4219818 -0.14789505 0.58306015
v 0.18266776 -0.4192842 0.5220961
v 0.33319405 -0.30233064 0.5584565
v 0.44057354 -0.19116905 0.8402754
v -5.2786877E-09 -0.51642203 0.73973954
v -0.17445739 -0.4906137 0.9666382
v 0.34000662 -0.34403485 0.7868396
v 0.41515887 -0.25187764 1.0742265
v 0.18331844 -0.46746266 0.75166065
v 0.3232824 -0.38410446 0.9964531
v 0.3324611 -0.34147877 1.2556539
v -5.2786877E-09 -0.5326968 0.9607098
v 0.17445739 -0.4906137 0.9666382
v -0.28910944 -0.41128016 1.1372874
v -0.16671844 -0.48845738 1.1592207
v -0.20839904 -0.44677383 1.3539042
v -5.2786877E-09 -0.52919745 1.1712279
v -5.2786877E-09 -0.5019602 1.4007341
v 0.16671844 -0.48845738 1.1592207
v 0.20839904 -0.44677383 1.3539042
v 0.28910944 -0.41128016 1.1372874
v -0.29912698 -0.334015 1.3859755
v -0.29964316 -0.36601508 1.4309218
v -0.22428393 -0.4300325 1.4111775
v -0.20490293 -0.4140579 1.3612884
v -0.3352434 -0.25231737 1.4749447
v -0.14172158 -0.45189878 1.4647719
v -0.32852855 -0.30067444 1.5020785
v -0.101672255 -0.44139814 1.4282997
v -0.2797206 -0.22045611 1.5835575
v -0.09731537 -0.4264165 1.5516385
v -0.2841222 -0.27519226 1.5889452
v -0.046149775 -0.40953687 1.5369116
v -0.17648992 -0.24779634 1.6505685
v -0.12620075 -0.36107573 1.6227951
v -0.2015596 -0.2970585 1.6425395
v -0.08226615 -0.32783914 1.6258812
v 0.29912698 -0.334015 1.3859755
v 0.22428393 -0.4300325 1.4111775
v 0.29964316 -0.36601508 1.4309218
v 0.20490293 -0.4140579 1.3612884
v 0.3352434 -0.25231737 1.4749447
v 0.14172158 -0.45189878 1.4647719
v 0.32852855 -0.30067444 1.5020785
v 0.10167224 -0.44139814 1.4282997
v 0.2797206 -0.22045611 1.5835575
v 0.097315356 -0.4264165 1.5516385
v 0.2841222 -0.27519226 1.5889452
v 0.046149768 -0.40953687 1.5369116
v 0.17648992 -0.24779634 1.6505685
v 0.12620075 -0.36107573 1.6227951
v 0.2015596 -0.2970585 1.6425395
v 0.08226614 -0.32783914 1.6258812
v -0.18097812 -0.24137284 0.04373071
v -0.17540355 -0.24491379 0.0002002424
v -0.2166027 -0.090482235 0.00020026081
v -0.2166027 -0.109232426 0.059797037
v -0.15202142 -0.23674382 0.00020024339
v -0.15472393 -0.23068984 0.04373071
v -0.1903485 -0.061639942 0.059797037
v -0.18353125 -0.06401029 0.00020026397
v -0.19441827 -0.0012665093 0.00020027145
v -0.18330193 -0.034200028 0.00020026752
v -0.19014995 -0.032815546 0.059797045
v -0.17231634 -0.058960274 0.3668792
v -0.17203689 -0.026930284 0.36687922
v -0.18558082 0.013403014 0.36687922
v -0.19978026 -0.00083974726 0.05979705
v -0.20926437 -0.10900603 0.36687922
v -0.23404077 0.033972993 0.36687922
v -0.25341052 -0.10913179 0.059797037
v -0.2610647 -0.10855397 0.36687922
v -0.27921057 -0.061282195 0.059797037
v -0.23421451 0.014065824 0.059797045
v -0.28285238 0.014251904 0.36687922
v -0.21752317 -0.24137284 0.04373071
v -0.2973734 -0.05786885 0.3668792
v -0.23417068 0.014065832 0.00020027328
v -0.2688987 -0.0003005636 0.05979705
v -0.29707614 -0.023803214 0.36687922
v -0.2789993 -0.030427698 0.059797045
v -0.23460406 -0.042435195 0.00020026654
v -0.25341052 -0.09016098 0.00020026084
v -0.27421138 -0.0006211996 0.00020027152
v -0.21964347 -0.24491379 0.0002002424
v -0.28587338 -0.031410243 0.00020026787
v -0.2861173 -0.06303224 0.0002002641
v -0.25433114 -0.24137284 0.04373071
v -0.2524249 -0.24491379 0.0002002424
v -0.28512892 -0.24491379 0.0002002424
v -0.28056347 -0.24137284 0.04373071
v -0.3081067 -0.23674382 0.00020024339
v -0.30636337 -0.23068984 0.04373071
v 0.15472393 -0.23068984 0.04373071
v 0.17540355 -0.24491379 0.0002002424
v 0.15202142 -0.23674382 0.00020024339
v 0.18353125 -0.06401029 0.00020026397
v 0.2166027 -0.090482235 0.00020026081
v 0.2166027 -0.109232426 0.059797037
v 0.18097812 -0.24137284 0.04373071
v 0.1903485 -0.061639942 0.059797037
v 0.21964347 -0.24491379 0.0002002424
v 0.21752317 -0.24137284 0.04373071
v 0.2524249 -0.24491379 0.0002002424
v 0.25433114 -0.24137284 0.04373071
v 0.25341052 -0.10913179 0.059797037
v 0.25341052 -0.09016098 0.00020026084
v 0.23460406 -0.042435195 0.00020026654
v 0.19441827 -0.0012665093 0.00020027145
v 0.17231634 -0.058960274 0.3668792
v 0.20926437 -0.10900603 0.36687922
v 0.19014995 -0.032815546 0.059797045
v 0.17203689 -0.026930284 0.36687922
v 0.18558082 0.013403014 0.36687922
v 0.18330193 -0.034200028 0.00020026752
v 0.19978026 -0.00083974726 0.05979705
v 0.23417068 0.014065832 0.00020027328
v 0.23404077 0.033972993 0.36687922
v 0.27421138 -0.0006211996 0.00020027152
v 0.23421451 0.014065824 0.059797045
v 0.2610647 -0.10855397 0.36687922
v 0.28285238 0.014251904 0.36687922
v 0.2688987 -0.0003005636 0.05979705
v 0.28587338 -0.031410243 0.00020026787
v 0.29707614 -0.023803214 0.36687922
v 0.2789993 -0.030427698 0.059797045
v 0.2973734 -0.05786885 0.3668792
v 0.27921057 -0.061282195 0.059797037
v 0.2861173 -0.06303224 0.0002002641
v 0.30636337 -0.23068984 0.04373071
v 0.28056347 -0.24137284 0.04373071
v 0.3081067 -0.23674382 0.00020024339
v 0.28512892 -0.24491379 0.0002002424
vt 0.9585342 0.16453506
vt 0.9585342 0.16453503
vt 0.9585341 0.16453503
vt 0.9585342 0.16453506
vt 0.9585342 0.16453503
vt 0.9585341 0.16453503
vt 0.4663791 0.96310765
vt 0.46637905 0.9631077
vt 0.4663791 0.9631077
vt 0.5076449 0.050451368
vt 0.507645 0.050451368
vt 0.507645 0.05045134
vt 0.5076449 0.05045134
vt 0.507645 0.05045134
vt 0.507645 0.050451368
vt 0.5076449 0.05045134
vt 0.507645 0.050451368
vt 0.507645 0.05045134
vt 0.5076448 0.05045131
vt 0.507645 0.05045134
vt 0.507645 0.050451368
vt 0.5076448 0.05045131
vt 0.507645 0.050451368
vt 0.507645 0.05045134
vt 0.5076448 0.05045131
vt 0.507645 0.05045134
vt 0.507645 0.050451368
vt 0.5076448 0.05045128
vt 0.507645 0.050451368
vt 0.507645 0.05045134
vt 0.5076449 0.050451368
vt 0.507645 0.05045134
vt 0.507645 0.050451368
vt 0.5076449 0.050451368
vt 0.507645 0.05045134
vt 0.507645 0.050451368
vt 0.5076449 0.05045134
vt 0.507645 0.050451368
vt 0.507645 0.05045134
vt 0.5076449 0.05045134
vt 0.507645 0.05045134
vt 0.507645 0.050451368
vt 0.5076448 0.05045131
vt 0.507645 0.050451368
vt 0.507645 0.05045134
vt 0.5076448 0.05045131
vt 0.507645 0.05045134
vt 0.507645 0.050451368
vt 0.5076448 0.05045131
vt 0.507645 0.050451368
vt 0.507645 0.05045134
vt 0.5076448 0.05045128
vt 0.507645 0.05045134
vt 0.507645 0.050451368
vt 0.5076449 0.050451368
vt 0.507645 0.050451368
vt 0.507645 0.05045134
vt 0.9616346 0.1552338
vt 0.9616346 0.1552338
vt 0.96163464 0.15523386
vt 0.96163464 0.1552338
vt 0.9616346 0.1552338
vt 0.9616346 0.1552338
vt 0.96163464 0.1552338
vt 0.96163464 0.1552338
vt 0.96163464 0.15523383
vt 0.96163464 0.1552338
vt 0.9616346 0.15523386
vt 0.96163464 0.15523389
vt 0.96163464 0.1552338
vt 0.9616346 0.1552338
vt 0.9616346 0.1552338
vt 0.9616346 0.1552338
vt 0.96163464 0.15523386
vt 0.9616346 0.15523383
vt 0.96163464 0.1552338
vt 0.96163464 0.1552338
vt 0.9616346 0.1552338
vt 0.96163464 0.15523386
vt 0.96163464 0.15523389
vt 0.96163464 0.1552338
vt 0.9616346 0.1552338
vt 0.96163464 0.1552338
vt 0.9616346 0.1552338
vt 0.96163464 0.15523383
vt 0.9616346 0.1552338
vt 0.96163464 0.15523383
vt 0.9616346 0.15523383
vt 0.96163464 0.1552338
vt 0.9616346 0.15523383
vt 0.9616346 0.1552338
vt 0.9616346 0.1552338
vt 0.96163464 0.15523386
vt 0.96163464 0.1552338
vt 0.96163464 0.15523383
vt 0.96163464 0.15523383
vt 0.9616346 0.1552338
vt 0.96163464 0.1552338
vt 0.96163464 0.1552338
vt 0.96163464 0.1552338
vt 0.9616346 0.15523383
vt 0.9616346 0.15523386
vt 0.9616346 0.15523386
vt 0.9616346 0.1552338
vt 0.96163464 0.1552338
vt 0.96163464 0.1552338
vt 0.9616346 0.1552338
vt 0.96163464 0.15523386
vt 0.9616346 0.15523383
vt 0.9616346 0.15523383
vt 0.96163464 0.15523383
vt 0.96163464 0.1552338
vt 0.96163464 0.15523386
vt 0.9616346 0.1552338
vt 0.9616346 0.15523383
vt 0.96163464 0.1552338
vt 0.96163464 0.1552338
vt 0.96163464 0.15523389
vt 0.9616346 0.1552338
vt 0.9616346 0.15523383
vt 0.96163464 0.15523386
vt 0.96163464 0.1552338
vt 0.9616346 0.15523383
vt 0.9616346 0.1552338
vt 0.96163464 0.15523389
vt 0.96163464 0.1552338
vt 0.9616346 0.15523383
vt 0.9616346 0.1552338
vt 0.9616346 0.15523383
vt 0.96163464 0.1552338
vt 0.96163464 0.15523386
vt 0.9616346 0.1552338
vt 0.9585342 0.16453506
vt 0.9585341 0.16453503
vt 0.9585342 0.16453503
vt 0.9585342 0.16453503
vt 0.9585342 0.16453503
vt 0.9585342 0.164535
vt 0.9585342 0.164535
vt 0.9585342 0.164535
vt 0.9585342 0.16453506
vt 0.9585342 0.164535
vt 0.9585342 0.16453506
vt 0.9585342 0.16453506
vt 0.9585341 0.16453503
vt 0.9585342 0.16453503
vt 0.9585342 0.16453503
vt 0.9585342 0.16453503
vt 0.9585342 0.164535
vt 0.9585342 0.164535
vt 0.9585342 0.164535
vt 0.9585342 0.16453506
vt 0.9585342 0.164535
vt 0.9585342 0.16453506
vt 0.9740361 0.14748287
vt 0.97403616 0.14748287
vt 0.97403616 0.1474829
vt 0.9740361 0.14748287
vt 0.97403616 0.14748287
vt 0.9740361 0.14748287
vt 0.9740361 0.14748287
vt 0.9740361 0.14748287
vt 0.97403616 0.1474829
vt 0.97403616 0.14748287
vt 0.97403616 0.14748284
vt 0.97403616 0.14748287
vt 0.97403616 0.14748287
vt 0.97403616 0.14748284
vt 0.97403616 0.14748284
vt 0.97403616 0.14748287
vt 0.97403616 0.14748284
vt 0.901177 0.16298485
vt 0.901177 0.16298488
vt 0.901177 0.16298488
vt 0.90117705 0.16298479
vt 0.90117705 0.16298479
vt 0.901177 0.16298485
vt 0.901177 0.16298488
vt 0.901177 0.16298488
vt 0.901177 0.16298485
vt 0.901177 0.16298488
vt 0.90117705 0.16298482
vt 0.90117705 0.16298482
vt 0.901177 0.16298488
vt 0.90117705 0.16298488
vt 0.90117705 0.16298488
vt 0.90117705 0.16298488
vt 0.90117705 0.16298482
vt 0.90117705 0.16298488
vt 0.90117705 0.16298482
vt 0.90117705 0.16298488
vt 0.90117705 0.16298482
vt 0.90117705 0.16298488
vt 0.901177 0.16298488
vt 0.90117705 0.16298482
vt 0.90117705 0.16298488
vt 0.901177 0.16298488
vt 0.90117705 0.16298482
vt 0.90117705 0.16298488
vt 0.901177 0.16298488
vt 0.901177 0.16298488
vt 0.90117705 0.16298479
vt 0.901177 0.16298485
vt 0.90117705 0.16298485
vt 0.90117705 0.16298488
vt 0.90117705 0.16298488
vt 0.90117705 0.16298485
vt 0.90117705 0.16298488
vt 0.901177 0.16298485
vt 0.901177 0.16298485
vt 0.90117705 0.16298479
vt 0.90117705 0.16298479
vt 0.90117705 0.16298479
vt 0.90117705 0.16298485
vt 0.90117705 0.16298479
vt 0.90117705 0.16298479
vt 0.901177 0.16298485
vt 0.90117705 0.16298485
vt 0.90117705 0.16298479
vt 0.90117705 0.16298479
vt 0.90117705 0.16298479
vt 0.90117705 0.16298479
vt 0.90117705 0.16298479
vt 0.90117705 0.16298479
vt 0.90117705 0.16298479
vt 0.90117705 0.16298479
vt 0.90117705 0.16298479
vt 0.90117705 0.16298479
vt 0.901177 0.16298485
vt 0.90117705 0.16298479
vt 0.90117705 0.16298479
vt 0.901177 0.16298488
vt 0.901177 0.16298485
vt 0.90117705 0.16298479
vt 0.90117705 0.16298479
vt 0.901177 0.16298485
vt 0.90117705 0.16298485
vt 0.901177 0.16298488
vt 0.90117705 0.16298479
vt 0.901177 0.16298488
vt 0.90117705 0.16298485
vt 0.90117705 0.16298488
vt 0.901177 0.16298488
vt 0.90117705 0.16298485
vt 0.90117705 0.16298488
vt 0.90117705 0.16298488
vt 0.901177 0.16298485
vt 0.901177 0.16298485
vt 0.90117705 0.16298485
vt 0.90117705 0.16298488
vt 0.90117705 0.16298479
vt 0.90117705 0.16298479
vt 0.90117705 0.16298485
vt 0.901177 0.16298479
vt 0.90117705 0.16298485
vt 0.90117705 0.16298488
vt 0.901177 0.16298485
vt 0.901177 0.16298479
vt 0.90117705 0.16298485
vt 0.901177 0.16298482
vt 0.90117705 0.16298485
vt 0.90117705 0.16298479
vt 0.901177 0.16298485
vt 0.90117705 0.16298485
vt 0.901177 0.16298482
vt 0.901177 0.16298485
vt 0.901177 0.16298488
vt 0.901177 0.16298479
vt 0.901177 0.16298482
vt 0.90117705 0.16298482
vt 0.9616346 0.1552338
vt 0.96163464 0.15523386
vt 0.96163464 0.1552338
vt 0.9616346 0.15523386
vt 0.9616346 0.15523386
vt 0.9616346 0.1552338
vt 0.96163464 0.1552338
vt 0.96163464 0.15523389
vt 0.9616346 0.1552338
vt 0.9616346 0.15523383
vt 0.96163464 0.1552338
vt 0.96163464 0.15523389
vt 0.9616346 0.1552338
vt 0.9616346 0.1552338
vt 0.96163464 0.1552338
vt 0.96163464 0.15523383
vt 0.9616346 0.1552338
vt 0.96163464 0.15523389
vt 0.9616346 0.1552338
vt 0.9616346 0.1552338
vt 0.96163464 0.1552338
vt 0.96163464 0.15523389
vt 0.9616346 0.1552338
vt 0.96163464 0.1552338
vt 0.9616346 0.1552338
vt 0.9616346 0.15523386
vt 0.9616346 0.15523386
vt 0.96163464 0.1552338
vt 0.9616346 0.1552338
vt 0.96163464 0.1552338
vt 0.96163464 0.15523383
vt 0.9616346 0.1552338
vt 0.9616346 0.1552338
vt 0.96163464 0.1552338
vt 0.96163464 0.15523389
vt 0.96163464 0.1552338
vt 0.9616346 0.1552338
vt 0.96163464 0.1552338
vt 0.96163464 0.15523389
vt 0.9616346 0.1552338
vt 0.9616346 0.1552338
vt 0.96163464 0.1552338
vt 0.96163464 0.15523383
vt 0.9616346 0.1552338
vt 0.9616346 0.1552338
vt 0.96163464 0.15523389
vt 0.9616346 0.1552338
vt 0.96163464 0.1552338
vt 0.9616346 0.15523386
vt 0.9616346 0.1552338
vt 0.96163464 0.1552338
vt 0.9616346 0.15523386
vt 0.96163464 0.1552338
vt 0.9616346 0.1552338
vt 0.96163464 0.1552338
vt 0.96163464 0.15523389
vt 0.9616346 0.1552338
vt 0.96163464 0.1552338
vt 0.9616346 0.15523386
vt 0.9616346 0.1552338
vt 0.96163464 0.15523383
vt 0.9616346 0.1552338
vt 0.96163464 0.1552338
vt 0.96163464 0.15523386
vt 0.9616346 0.15523383
vt 0.96163464 0.1552338
vt 0.96163464 0.15523386
vt 0.9616346 0.1552338
vt 0.46637917 0.96310765
vt 0.46637917 0.9631077
vt 0.4663791 0.96310765
vt 0.46637917 0.96310765
vt 0.466379 0.9631076
vt 0.46637905 0.9631076
vt 0.46637917 0.9631077
vt 0.46637917 0.96310765
vt 0.466379 0.9631077
vt 0.46637905 0.9631076
vt 0.46637917 0.96310765
vt 0.466379 0.9631076
vt 0.4663791 0.9631076
vt 0.46637917 0.96310765
vt 0.46637917 0.96310765
vt 0.46637923 0.9631077
vt 0.46637917 0.96310765
vt 0.4663791 0.9631076
vt 0.4663791 0.9631076
vt 0.4663791 0.9631076
vt 0.4663791 0.9631076
vt 0.46637917 0.96310765
vt 0.4663791 0.9631076
vt 0.46637917 0.96310765
vt 0.4663791 0.96310765
vt 0.46637905 0.96310765
vt 0.46637905 0.96310765
vt 0.4663791 0.96310765
vt 0.4663791 0.96310765
vt 0.4663791 0.96310765
vt 0.46637917 0.9631076
vt 0.466379 0.9631077
vt 0.4663791 0.96310765
vt 0.46637905 0.9631077
vt 0.46637905 0.9631076
vt 0.466379 0.9631076
vt 0.46637917 0.96310765
vt 0.4663791 0.9631077
vt 0.4663791 0.9631076
vt 0.466379 0.9631076
vt 0.4663791 0.96310765
vt 0.46637923 0.9631077
vt 0.46637905 0.96310765
vt 0.466379 0.9631076
vt 0.46637917 0.96310765
vt 0.4663791 0.9631077
vt 0.4663791 0.96310765
vt 0.46637905 0.9631076
vt 0.46637905 0.9631077
vt 0.46637917 0.96310765
vt 0.46637905 0.9631076
vt 0.46637905 0.9631077
vt 0.46637917 0.96310765
vt 0.4663791 0.96310765
vt 0.4663791 0.9631076
vt 0.46637917 0.96310765
vt 0.46637905 0.9631077
vt 0.4663791 0.96310765
vt 0.46637917 0.9631076
vt 0.4663791 0.9631077
vt 0.46637917 0.96310765
vt 0.46637905 0.9631076
vt 0.466379 0.9631077
vt 0.4663791 0.96310765
vt 0.466379 0.9631076
vt 0.46637905 0.96310765
vt 0.46637923 0.9631077
vt 0.46637917 0.96310765
vt 0.48083383 0.978511
vt 0.48083383 0.97851104
vt 0.48083386 0.978511
vt 0.48083383 0.978511
vt 0.48083386 0.978511
vt 0.48083383 0.978511
vt 0.48083383 0.978511
vt 0.48083383 0.97851104
vt 0.48083383 0.978511
vt 0.48083383 0.978511
vt 0.48083383 0.97851104
vt 0.48083383 0.978511
vt 0.48083386 0.978511
vt 0.48083383 0.97851104
vt 0.48083383 0.97851104
vt 0.48083383 0.97851104
vt 0.48083383 0.97851104
vt 0.48083383 0.97851104
vt 0.48083383 0.978511
vt 0.48083383 0.97851104
vt 0.48083383 0.97851104
vt 0.48083383 0.978511
vt 0.48083383 0.97851104
vt 0.48083383 0.978511
vt 0.48083383 0.978511
vt 0.48083383 0.978511
vt 0.48083383 0.978511
vt 0.48083383 0.978511
vt 0.96163464 0.1552338
vt 0.96163464 0.15523383
vt 0.9616346 0.1552338
vt 0.9616346 0.15523383
vt 0.46267405 0.10147092
vt 0.46267405 0.10147092
vt 0.46267405 0.10147095
vt 0.46267405 0.10147092
vt 0.46267405 0.10147092
vt 0.46267405 0.10147092
vt 0.46267405 0.10147092
vt 0.46267405 0.10147092
vt 0.46267405 0.10147092
vt 0.46267405 0.10147092
vt 0.46267405 0.10147095
vt 0.46267405 0.10147092
vt 0.46267405 0.10147092
vt 0.46267405 0.10147092
vt 0.46267405 0.10147092
vt 0.46267405 0.10147092
vt 0.46267405 0.10147092
vt 0.46267405 0.10147092
vt 0.97403616 0.14748284
vt 0.97403616 0.1474829
vt 0.97403616 0.14748284
vt 0.97403616 0.14748284
vt 0.97403616 0.1474829
vt 0.97403616 0.14748284
vt 0.97403616 0.1474829
vt 0.9740361 0.14748287
vt 0.97403616 0.1474829
vt 0.9740361 0.14748287
vt 0.9740361 0.14748287
vt 0.9740361 0.14748287
vt 0.9740361 0.14748287
vt 0.77524656 0.91135293
vt 0.77524656 0.91135293
vt 0.77524656 0.91135293
vt 0.77524656 0.91135293
vt 0.77524656 0.9113529
vt 0.77524656 0.91135293
vt 0.77524656 0.9113529
vt 0.77524656 0.91135293
vt 0.77524656 0.9113529
vt 0.77524656 0.9113529
vt 0.77524656 0.91135293
vt 0.77524656 0.9113529
vt 0.77524656 0.91135293
vt 0.77524656 0.9113529
vt 0.77524656 0.9113529
vt 0.77524656 0.91135293
vt 0.77524656 0.9113529
vt 0.77524656 0.9113529
vt 0.77524656 0.91135293
vt 0.77524656 0.91135293
vt 0.77524656 0.91135293
vt 0.77524656 0.9113529
vt 0.77524656 0.9113529
vt 0.77524656 0.91135293
vt 0.77524656 0.9113529
vt 0.77524656 0.9113529
vt 0.77524656 0.9113529
vt 0.77524656 0.91135293
vt 0.77524656 0.9113529
vt 0.77524656 0.9113529
vt 0.77524656 0.91135293
vt 0.77524656 0.9113529
vt 0.77524656 0.9113529
vt 0.77524656 0.91135293
vt 0.77524656 0.9113529
vt 0.77524656 0.91135293
vt 0.77524656 0.9113529
vt 0.77524656 0.91135293
vt 0.77524656 0.9113529
vt 0.77524656 0.91135293
vt 0.77524656 0.91135293
vt 0.507645 0.05045134
vt 0.507645 0.05045134
vt 0.507645 0.05045131
vt 0.507645 0.05045134
vt 0.507645 0.05045134
vt 0.507645 0.05045134
vt 0.507645 0.05045131
vt 0.507645 0.05045134
vt 0.507645 0.05045134
vt 0.507645 0.05045131
vt 0.507645 0.05045134
vt 0.507645 0.05045134
vt 0.507645 0.05045134
vt 0.507645 0.05045134
vt 0.507645 0.05045131
vt 0.507645 0.05045134
vt 0.507645 0.05045134
vt 0.507645 0.05045131
vt 0.507645 0.05045134
vt 0.507645 0.05045134
vt 0.507645 0.05045134
vt 0.507645 0.05045134
vt 0.507645 0.05045131
vt 0.507645 0.05045134
vt 0.507645 0.05045134
vt 0.507645 0.05045131
vt 0.507645 0.05045134
vt 0.507645 0.05045134
vt 0.507645 0.05045134
vt 0.507645 0.05045134
vt 0.507645 0.05045131
vt 0.507645 0.05045134
vt 0.40371642 0.9665369
vt 0.40371642 0.9665369
vt 0.40371642 0.9665369
vt 0.40371642 0.9665369
vt 0.40371642 0.9665369
vt 0.40371642 0.9665369
vt 0.40371642 0.9665369
vt 0.40371642 0.9665369
vt 0.40371642 0.9665369
vt 0.40371642 0.9665369
vt 0.40371642 0.9665369
vt 0.40371642 0.9665369
vt 0.40371642 0.9665369
vt 0.40371642 0.9665369
vt 0.40371642 0.9665369
vt 0.40371642 0.9665369
vt 0.40371642 0.9665369
vt 0.40371642 0.9665369
vt 0.40371642 0.9665369
vt 0.40371642 0.9665369
vt 0.40371642 0.9665369
vt 0.40371642 0.9665369
vt 0.40371642 0.9665369
vt 0.40371642 0.9665369
vt 0.40371642 0.9665369
vt 0.40371642 0.9665369
vt 0.40371642 0.9665369
vt 0.40371642 0.9665369
vt 0.40371642 0.9665369
vt 0.40371642 0.9665369
vt 0.40371642 0.9665369
vt 0.40371642 0.9665369
vt 0.40371642 0.9665369
vt 0.40371642 0.9665369
vt 0.40371642 0.9665369
vt 0.40371642 0.9665369
vt 0.40371642 0.9665369
vt 0.40371642 0.9665369
vt 0.40371642 0.9665369
vt 0.40371642 0.9665369
vt 0.40371642 0.9665369
vt 0.40371642 0.9665369
vt 0.40371642 0.9665369
vt 0.40371642 0.9665369
vt 0.40371642 0.9665369
vt 0.40371642 0.9665369
vt 0.40371642 0.9665369
vt 0.40371642 0.9665369
vt 0.40371642 0.9665369
vt 0.40371642 0.9665369
vt 0.40371642 0.9665369
vt 0.40371642 0.9665369
vt 0.40371642 0.9665369
vt 0.40371642 0.9665369
vt 0.40371642 0.9665369
vt 0.40371642 0.9665369
vt 0.40371642 0.9665369
vt 0.40371642 0.9665369
vt 0.40371642 0.9665369
vt 0.40371642 0.9665369
vt 0.40371642 0.9665369
vt 0.40371642 0.9665369
vt 0.40371642 0.9665369
vt 0.40371642 0.9665369
vt 0.40371642 0.9665369
vt 0.40371642 0.9665369
vt 0.40371642 0.9665369
vt 0.40371642 0.9665369
vt 0.40371642 0.9665369
vt 0.40371642 0.9665369
vt 0.40371642 0.9665369
vt 0.40371642 0.9665369
vt 0.40371642 0.9665369
vt 0.40371642 0.9665369
vt 0.40371642 0.9665369
vt 0.40371642 0.9665369
vt 0.40371642 0.9665369
vt 0.40371642 0.9665369
vt 0.40371642 0.9665369
vt 0.40371642 0.9665369
vn 0.95032716 0.25986183 -0.17131892
vn -0 0.7249957 0.68875355
vn -0 0.9175025 -0.39772984
vn 0.94586456 0.31590655 -0.07445258
vn -0 0.52959466 0.84825075
vn -0 0.97931427 -0.20234492
vn -0.5326552 -0.27385527 0.8008007
vn -0 0.090945154 0.99585587
vn -0 -0.7525092 0.6585817
vn 0.4974726 -0.7300997 0.4684822
vn 0.36641568 -0.3310287 0.86957437
vn 0.71835357 -0.23339759 0.6553577
vn 0.4974726 -0.7300997 0.4684822
vn 0.046149295 -0.598967 0.7994428
vn 0.36641568 -0.3310287 0.86957437
vn 0.4974726 -0.7300997 0.4684822
vn -0.066224925 -0.8678948 0.49231365
vn 0.046149295 -0.598967 0.7994428
vn 0.4974726 -0.7300997 0.4684822
vn 0.11221517 -0.9855597 0.12680662
vn -0.066224925 -0.8678948 0.49231365
vn 0.4974726 -0.7300997 0.4684822
vn 0.4607269 -0.8829019 -0.09063624
vn 0.11221517 -0.9855597 0.12680662
vn 0.4974726 -0.7300997 0.4684822
vn 0.78441894 -0.61999077 -0.017278472
vn 0.4607269 -0.8829019 -0.09063624
vn 0.4974726 -0.7300997 0.4684822
vn 0.8933676 -0.34603372 0.28662705
vn 0.78441894 -0.61999077 -0.017278472
vn 0.4974726 -0.7300997 0.4684822
vn 0.71835357 -0.23339759 0.6553577
vn 0.8933676 -0.34603372 0.28662705
vn -0.4974726 -0.7300997 0.4684822
vn -0.71835333 -0.23339766 0.65535784
vn -0.36641544 -0.33102867 0.8695744
vn -0.4974726 -0.7300997 0.4684822
vn -0.36641544 -0.33102867 0.8695744
vn -0.046149246 -0.5989668 0.7994429
vn -0.4974726 -0.7300997 0.4684822
vn -0.046149246 -0.5989668 0.7994429
vn 0.06622495 -0.867895 0.4923135
vn -0.4974726 -0.7300997 0.4684822
vn 0.06622495 -0.867895 0.4923135
vn -0.11221505 -0.9855597 0.1268066
vn -0.4974726 -0.7300997 0.4684822
vn -0.11221505 -0.9855597 0.1268066
vn -0.46072692 -0.88290197 -0.0906358
vn -0.4974726 -0.7300997 0.4684822
vn -0.46072692 -0.88290197 -0.0906358
vn -0.78441894 -0.61999077 -0.017278457
vn -0.4974726 -0.7300997 0.4684822
vn -0.78441894 -0.61999077 -0.017278457
vn -0.8933676 -0.34603384 0.28662708
vn -0.4974726 -0.7300997 0.4684822
vn -0.8933676 -0.34603384 0.28662708
vn -0.71835333 -0.23339766 0.65535784
vn -0.9909826 0.03477352 -0.12939987
vn -0.8666029 0.08654519 -0.49143603
vn -0.7789151 0.584353 -0.22764648
vn -0.82786226 0.55568415 -0.07654558
vn -0.9941199 0.011791671 -0.10764177
vn -0.85906965 0.5118558 0.0017194772
vn -0.84989965 -0.50292253 -0.15728828
vn -0.8279185 -0.5027088 -0.248666
vn -0.8559576 -0.49634883 0.14482556
vn -0.017044649 -0.8466747 0.5318378
vn 0.0790577 -0.9908813 -0.10910603
vn 0.84115094 -0.44621062 0.30555078
vn 0.8991596 -0.43752608 -0.009112255
vn 0.8733303 -0.032911554 0.4860155
vn 0.9983741 0.026062826 0.05069444
vn -0.94599843 -0.053975835 0.31964597
vn -0.86837155 0.41076967 0.2778472
vn -0.081197 -0.13023974 0.9881521
vn -0.050272636 0.66295886 0.74696606
vn -0.8279185 -0.5027088 -0.248666
vn -0.8666029 0.08654519 -0.49143603
vn -0.78888583 -0.45944858 -0.40812522
vn 0.8141145 0.39324597 0.42728812
vn 0.87219894 0.46771154 0.14323041
vn 0.8733303 -0.032911554 0.4860155
vn 0.87219894 0.46771154 0.14323041
vn 0.99918264 0.025634091 -0.031255502
vn 0.88002145 0.47427028 0.025099175
vn 0.95298827 0.052226696 -0.29847232
vn 0.87864745 0.46577436 -0.105038
vn 0.0811472 0.9963271 0.027339013
vn 0.125903 0.929602 -0.34639356
vn 0.12919539 0.16977598 -0.97697735
vn 0.95298827 0.052226696 -0.29847232
vn -0.8666029 0.08654519 -0.49143603
vn -0.7789151 0.584353 -0.22764648
vn 0.12564448 -0.75812685 -0.63988835
vn 0.88576657 -0.37994123 -0.26657486
vn 0.88576657 -0.37994123 -0.26657486
vn 0.99918264 0.025634091 -0.031255502
vn 0.89733326 -0.41838598 -0.14052095
vn 0.12564448 -0.75812685 -0.63988835
vn 0.8991596 -0.43752608 -0.009112255
vn 0.10530127 -0.94628423 -0.30570894
vn 0.0790577 -0.9908813 -0.10910603
vn 0.0790577 -0.9908813 -0.10910603
vn -0.8279185 -0.5027088 -0.248666
vn -0.84989965 -0.50292253 -0.15728828
vn 0.125903 0.929602 -0.34639356
vn -0.82786226 0.55568415 -0.07654558
vn -0.7789151 0.584353 -0.22764648
vn 0.0811472 0.9963271 0.027339013
vn 0.041511428 0.97739774 0.20729308
vn 0.88002145 0.47427028 0.025099175
vn 0.87219894 0.46771154 0.14323041
vn -0.86837155 0.41076967 0.2778472
vn -0.85906965 0.5118558 0.0017194772
vn 0.041511428 0.97739774 0.20729308
vn -0.050272636 0.66295886 0.74696606
vn 0.87219894 0.46771154 0.14323041
vn 0.8141145 0.39324597 0.42728812
vn 0.8733303 -0.032911554 0.4860155
vn -0.081197 -0.13023974 0.9881521
vn -0.78888583 -0.45944858 -0.40812522
vn 0.12564448 -0.75812685 -0.63988835
vn 0.12919539 0.16977598 -0.97697735
vn -0.8666029 0.08654519 -0.49143603
vn 0.84115094 -0.44621062 0.30555078
vn -0.017044649 -0.8466747 0.5318378
vn -0.081197 -0.13023974 0.9881521
vn 0.8733303 -0.032911554 0.4860155
vn 0.10530127 -0.94628423 -0.30570894
vn 0.12564448 -0.75812685 -0.63988835
vn -0.78888583 -0.45944858 -0.40812522
vn -0.8279185 -0.5027088 -0.248666
vn 0.95032716 0.25986183 -0.17131892
vn -0 0.9175025 -0.39772984
vn -0 -0.18453021 -0.9828268
vn -0.95032716 0.2598618 -0.17131893
vn -0 0.7249957 0.68875355
vn -0.9999336 0.0019461106 -0.011363834
vn -0 -0.5267882 -0.8499966
vn -0 0.539581 0.8419338
vn -0 -0.18453021 -0.9828268
vn 0.9999336 0.0019460563 -0.011363834
vn 0.95032716 0.25986183 -0.17131892
vn 0.94586456 0.31590655 -0.07445258
vn -0 0.97931427 -0.20234492
vn -0 0.10312995 -0.9946679
vn -0.9458647 0.31590644 -0.074452646
vn -0 0.52959466 0.84825075
vn -0.99882334 -0.009363745 -0.047583256
vn -0 -0.261672 -0.9651569
vn -0 0.26843733 0.9632971
vn -0 0.10312995 -0.9946679
vn 0.99882334 -0.009363704 -0.0475832
vn 0.94586456 0.31590655 -0.07445258
vn -0.92746025 0.026199428 0.37300265
vn -0.9997975 -0.0021010246 0.020016717
vn -0 0.9982457 -0.05920634
vn -0 0.9514816 0.30770585
vn 0.9997975 -0.0021013003 0.020016704
vn -0 0.05324844 0.9985813
vn 0.92746043 0.026199134 0.37300244
vn -0 -0.9014839 0.4328127
vn -0 -0.99519855 0.09787681
vn -0.9997975 -0.0021010246 0.020016717
vn 0.99938214 -0.03188209 -0.014796239
vn -0 -0.99519855 0.09787681
vn -0 0.9982457 -0.05920634
vn -0 -0.99837166 0.057044305
vn -0 0.9958983 -0.09047954
vn -0.9997975 -0.0021010246 0.020016717
vn -0.99938214 -0.0318822 -0.014796263
vn 0.38915953 0.66841805 -0.6338549
vn 0.47198945 0.33224633 -0.8166017
vn 0.8280963 0.25751722 -0.49793726
vn 0.7370358 0.5460387 -0.39827123
vn 0.8252217 0.11565718 0.55284053
vn 0.91794467 0.3150647 0.24106379
vn 0.9847164 0.029420007 0.1716624
vn 0.8549179 -0.22215469 0.46878865
vn 0.91794467 0.3150647 0.24106379
vn 0.98859966 0.14737315 0.030852104
vn 0.96387655 -0.25174907 0.08697398
vn 0.81912166 -0.504984 0.2720859
vn 0.8549179 -0.22215469 0.46878865
vn 0.76341605 -0.6330998 0.12798673
vn 0.88415456 -0.46598098 0.03365223
vn 0.48418728 -0.8425132 0.23608105
vn 0.9910409 -0.13111486 -0.02543316
vn 0.9212399 -0.38284215 -0.06891152
vn 0.48067403 -0.72475064 0.49364865
vn -0 -0.95249337 0.3045595
vn 0.9748087 -0.05935033 -0.21500115
vn 0.92536205 -0.309517 -0.21887034
vn 0.9643163 0.2032331 -0.16967684
vn 0.84523964 -0.011775431 -0.53425765
vn 0.8105038 -0.270407 -0.51958025
vn 0.8280963 0.25751722 -0.49793726
vn 0.49378473 -0.01010834 -0.8695255
vn 0.46318385 -0.3397513 -0.81855345
vn 0.47198945 0.33224633 -0.8166017
vn -0 0.36385345 -0.9314562
vn 0.7370358 0.5460387 -0.39827123
vn 0.38915953 0.66841805 -0.6338549
vn -0 -0.023926385 -0.9997137
vn -0 -0.39786983 -0.9174419
vn -0.4631839 -0.3397513 -0.81855345
vn -0.4937847 -0.01010833 -0.8695254
vn -0.8105038 -0.27040702 -0.5195803
vn 0.8701227 0.4849538 -0.08778597
vn 0.8900241 0.4463514 0.09288472
vn 0.6282878 0.7778173 -0.015957939
vn 0.66159457 0.7348517 0.14928372
vn 0.7046857 0.6329073 0.32069662
vn 0.58343655 0.7773947 -0.23507327
vn 0.29563028 0.89894736 -0.3232591
vn 0.2884935 0.95746416 -0.0058098827
vn -0 0.7260286 -0.68766445
vn 0.6981056 0.43236372 0.5707104
vn 0.8252217 0.11565718 0.55284053
vn 0.32654235 0.9263244 0.18786441
vn -0 0.9406546 -0.3393654
vn 0.33404064 0.8425884 0.42244717
vn 0.39229107 0.4910299 0.7778157
vn -0 0.9998462 -0.017533079
vn -0 0.97981346 0.19991408
vn -0.2884935 0.95746416 -0.0058098654
vn -0.29563028 0.89894736 -0.32325906
vn -0 0.8835156 0.4684017
vn 0.45809078 -0.0007515472 0.8889051
vn -0.32654235 0.9263244 0.18786441
vn -0 0.5230453 0.852305
vn 0.49846897 -0.40504196 0.7664657
vn -0.38915956 0.6684181 -0.6338549
vn -0.62828785 0.7778173 -0.015957927
vn -0.33404058 0.8425884 0.42244717
vn -0 -0.022751573 0.99974114
vn -0 -0.81187165 0.5838359
vn -0.4719895 0.33224627 -0.81660163
vn -0.6615945 0.73485166 0.14928375
vn -0 -0.520073 0.8541218
vn -0.4806741 -0.72475064 0.49364865
vn -0.48418728 -0.8425132 0.23608105
vn -0.49846897 -0.40504202 0.7664657
vn -0.81912166 -0.504984 0.2720859
vn -0.76341605 -0.6330998 0.12798673
vn -0.88415456 -0.46598104 0.033652246
vn -0.45809063 -0.0007515166 0.88890517
vn -0.8549179 -0.22215469 0.46878865
vn -0.96387655 -0.251749 0.08697397
vn -0.9212399 -0.38284215 -0.06891153
vn -0.39229083 0.49102992 0.7778159
vn -0.7046858 0.6329073 0.32069668
vn -0.6981056 0.43236357 0.5707104
vn -0.8252217 0.11565714 0.55284053
vn -0.9910409 -0.13111486 -0.025433164
vn -0.92536205 -0.309517 -0.21887034
vn -0.9847164 0.029420033 0.17166236
vn -0.8252217 0.11565714 0.55284053
vn -0.9748087 -0.05935034 -0.21500114
vn -0.91794467 0.31506473 0.24106379
vn -0.6981056 0.43236357 0.5707104
vn -0.7046858 0.6329073 0.32069668
vn -0.98859966 0.14737321 0.03085211
vn -0.84523964 -0.011775419 -0.53425765
vn -0.890024 0.44635144 0.092884734
vn -0.9643163 0.2032331 -0.16967683
vn -0.8280963 0.25751716 -0.49793726
vn -0.7370358 0.5460386 -0.39827123
vn -0.8701227 0.48495388 -0.08778597
vn -0.58343655 0.7773947 -0.23507327
vn 0.82787424 -0.5029881 -0.24824825
vn 0.78832424 -0.4609321 -0.40753704
vn -0.12569115 -0.75887686 -0.63898957
vn -0.10530123 -0.94628423 -0.30570894
vn -0.079057634 -0.9908813 -0.109106064
vn 0.8497093 -0.5031627 -0.15754792
vn -0.8972686 -0.41863146 -0.14020278
vn -0.8854256 -0.38124844 -0.2658403
vn -0.89907277 -0.43770033 -0.009308958
vn -0.13017242 0.16977695 -0.9768474
vn 0.01697074 -0.8467795 0.53167325
vn -0.84086114 -0.4467811 0.3055147
vn -0.95328945 0.052184418 -0.29751626
vn -0.87305135 -0.032979887 0.48651174
vn -0.12588611 0.9300306 -0.34524754
vn -0.8782104 0.46684682 -0.10392584
vn 0.8665666 0.08663092 -0.4914849
vn 0.77823776 0.5856471 -0.22663482
vn -0.9983852 0.026106471 0.050452065
vn -0.99922085 0.025485773 -0.030136833
vn -0.8972686 -0.41863146 -0.14020278
vn -0.8854256 -0.38124844 -0.2658403
vn -0.95328945 0.052184418 -0.29751626
vn -0.87992674 0.47442436 0.025502674
vn -0.87210554 0.46792516 0.14310125
vn -0.04151143 0.97739774 0.2072931
vn -0.081147134 0.9963271 0.02733903
vn 0.8277963 0.55585533 -0.07601327
vn 0.8588936 0.51215196 0.0015579985
vn 0.050194968 0.6631038 0.74684256
vn -0.81377774 0.3938046 0.42741525
vn 0.081205584 -0.13027225 0.9881471
vn -0.95328945 0.052184418 -0.29751626
vn -0.87992674 0.47442436 0.025502674
vn 0.855555 -0.49707508 0.14471318
vn 0.01697074 -0.8467795 0.53167325
vn 0.9458458 -0.054023717 0.3200894
vn 0.01697074 -0.8467795 0.53167325
vn -0.84086114 -0.4467811 0.3055147
vn -0.87305135 -0.032979887 0.48651174
vn 0.9458458 -0.054023717 0.3200894
vn 0.050194968 0.6631038 0.74684256
vn 0.8679755 0.41153184 0.27795717
vn 0.994083 0.0118529145 -0.10797497
vn 0.9458458 -0.054023717 0.3200894
vn 0.855555 -0.49707508 0.14471318
vn 0.8588936 0.51215196 0.0015579985
vn 0.050194968 0.6631038 0.74684256
vn -0.04151143 0.97739774 0.2072931
vn 0.8497093 -0.5031627 -0.15754792
vn 0.01697074 -0.8467795 0.53167325
vn -0.079057634 -0.9908813 -0.109106064
vn 0.82787424 -0.5029881 -0.24824825
vn 0.9911698 0.034591462 -0.12800719
vn 0.8277963 0.55585533 -0.07601327
vn 0.77823776 0.5856471 -0.22663482
vn 0.8665666 0.08663092 -0.4914849
vn -0.12588611 0.9300306 -0.34524754
vn -0.081147134 0.9963271 0.02733903
vn -0.87992674 0.47442436 0.025502674
vn -0.8782104 0.46684682 -0.10392584
vn 0.8665666 0.08663092 -0.4914849
vn 0.82787424 -0.5029881 -0.24824825
vn 0.78832424 -0.4609321 -0.40753704
vn -0.13017242 0.16977695 -0.9768474
vn -0.12569115 -0.75887686 -0.63898957
vn 0.78832424 -0.4609321 -0.40753704
vn 0.8665666 0.08663092 -0.4914849
vn 0.06180346 -0.9716969 0.22800277
vn 0.82085025 -0.28522906 0.49482235
vn 0.86027616 0.09772367 -0.5003748
vn 0.08329064 -0.61472046 -0.784335
vn 0.52208436 0.28296855 -0.80458474
vn -0 -0.16984835 -0.9854702
vn 0.08329064 -0.61472046 -0.784335
vn 0.073044874 0.9902019 -0.11901597
vn -0 0.090945154 0.99585587
vn -0 0.8035864 -0.59518814
vn 0.042566467 0.53274196 0.8452065
vn 0.5326552 -0.2738552 0.8008007
vn -0 0.090945154 0.99585587
vn 0.819529 -0.14497828 0.55439466
vn 0.819529 -0.14497828 0.55439466
vn 0.042566467 0.53274196 0.8452065
vn 0.86190736 0.30800647 -0.4027999
vn 0.52208436 0.28296855 -0.80458474
vn -0 0.8035864 -0.59518814
vn -0 -0.16984835 -0.9854702
vn -0.52208436 0.28296852 -0.80458486
vn -0.07304497 0.9902018 -0.119016096
vn -0.86190736 0.30800617 -0.40280014
vn -0.04256675 0.5327418 0.8452066
vn -0.8195292 -0.1449785 0.5543944
vn -0.5326552 -0.27385527 0.8008007
vn -0 0.090945154 0.99585587
vn 0.86027616 0.09772367 -0.5003748
vn 0.5326552 -0.2738552 0.8008007
vn 0.82085025 -0.28522906 0.49482235
vn 0.06180346 -0.9716969 0.22800277
vn -0 -0.7525092 0.6585817
vn 0.5326552 -0.2738552 0.8008007
vn -0 0.090945154 0.99585587
vn -0 -0.16984835 -0.9854702
vn -0.52208436 0.28296852 -0.80458486
vn -0.8602763 0.09772379 -0.5003746
vn -0.08329086 -0.61472034 -0.7843351
vn -0.52208436 0.28296852 -0.80458486
vn -0.5326552 -0.27385527 0.8008007
vn -0.82085025 -0.285229 0.49482238
vn -0.8602763 0.09772379 -0.5003746
vn -0.5326552 -0.27385527 0.8008007
vn -0.52208436 0.28296852 -0.80458486
vn -0.86190736 0.30800617 -0.40280014
vn -0.8195292 -0.1449785 0.5543944
vn -0.82085025 -0.285229 0.49482238
vn -0.5326552 -0.27385527 0.8008007
vn -0 -0.7525092 0.6585817
vn -0.061803598 -0.97169703 0.22800267
vn -0 -0.16984835 -0.9854702
vn -0 -0.7525092 0.6585817
vn 0.06180346 -0.9716969 0.22800277
vn 0.08329064 -0.61472046 -0.784335
vn -0 -0.16984835 -0.9854702
vn -0.061803598 -0.97169703 0.22800267
vn -0 -0.7525092 0.6585817
vn -0.08329086 -0.61472034 -0.7843351
vn -0.8602763 0.09772379 -0.5003746
vn -0.82085025 -0.285229 0.49482238
vn -0.07304497 0.9902018 -0.119016096
vn -0 0.8035864 -0.59518814
vn -0 0.090945154 0.99585587
vn -0.04256675 0.5327418 0.8452066
vn 0.52208436 0.28296855 -0.80458474
vn 0.5326552 -0.2738552 0.8008007
vn 0.819529 -0.14497828 0.55439466
vn 0.86190736 0.30800647 -0.4027999
vn 0.74514973 -0.66422015 0.059695136
vn 0.4116475 -0.4178918 -0.8098844
vn -0 -0.5097471 -0.8603243
vn -0 -0.9962345 0.08669971
vn -0 -0.33796358 0.9411591
vn 0.74514973 -0.66422015 0.059695136
vn 0.47269428 -0.23205069 0.850125
vn 0.95968944 -0.28067368 0.01477854
vn 0.5276121 -0.03587874 0.8487274
vn 0.43234995 -0.30402008 -0.8489083
vn 0.4116475 -0.4178918 -0.8098844
vn -0 -0.24000384 -0.9707719
vn -0 -0.5097471 -0.8603243
vn 0.4259894 -0.2870924 -0.85796916
vn 0.9721053 -0.229995 -0.045973144
vn -0 -0.24017577 -0.9707295
vn 0.5463921 0.028512083 0.837044
vn -0 0.09699519 0.99528486
vn -0.43234962 -0.30402014 -0.8489084
vn -0.4259893 -0.28709248 -0.85796916
vn -0.9721053 -0.22999488 -0.045973442
vn -0 0.029594494 0.99956197
vn -0.54639256 0.028512262 0.83704376
vn -0.52761227 -0.0358787 0.8487272
vn -0.4116472 -0.4178918 -0.8098846
vn -0.95968944 -0.28067377 0.014778051
vn -0.47269452 -0.23205072 0.85012496
vn -0.7451497 -0.6642202 0.05969465
vn -0.017044649 -0.8466747 0.5318378
vn -0.8559576 -0.49634883 0.14482556
vn -0.94599843 -0.053975835 0.31964597
vn -0.081197 -0.13023974 0.9881521
vn -0.5034255 -0.7600231 0.41100794
vn -0.5428506 -0.72879094 0.41734523
vn -0.49846858 -0.7292531 0.46874198
vn -0.46039554 -0.77383065 0.43499672
vn -0.5537969 -0.69703645 0.4554658
vn -0.44107118 -0.75830483 0.48003116
vn -0.5344915 -0.6813387 0.5000963
vn -0.45209038 -0.7259894 0.5182217
vn -0.49194476 -0.69502276 0.5243412
vn 0.5034255 -0.7600231 0.41100794
vn 0.49846855 -0.7292531 0.46874192
vn 0.5428506 -0.72879094 0.41734523
vn 0.46039554 -0.77383065 0.43499672
vn 0.5537969 -0.69703645 0.4554658
vn 0.44107118 -0.75830483 0.48003116
vn 0.5344915 -0.6813387 0.5000963
vn 0.45209038 -0.7259894 0.5182217
vn 0.49194476 -0.69502276 0.5243412
vn -0.9972395 -0.06395975 -0.037717395
vn -0 -0.96851826 -0.24894245
vn -0 -0.95677316 -0.29083556
vn 0.9972395 -0.063959695 -0.03771741
vn -0.99976903 -0.00915672 0.019441437
vn -0 0.96678895 0.25557637
vn -0 0.9574477 0.28860676
vn -0.930473 -0.103170395 0.35153356
vn 0.99976903 -0.009156693 0.019441433
vn -0 -0.9960296 0.08902259
vn -0 0.79320234 0.6089581
vn 0.930473 -0.103170395 0.3515336
vn -0 -0.2878473 0.95767623
vn -0.4631839 -0.3397513 -0.81855345
vn -0.8105038 -0.27040702 -0.5195803
vn -0.718098 -0.54586995 -0.43169576
vn -0.92536205 -0.309517 -0.21887034
vn -0.42965028 -0.69268966 -0.5792942
vn -0 -0.39786983 -0.9174419
vn -0.75922984 -0.6114607 -0.22290345
vn -0.9212399 -0.38284215 -0.06891153
vn -0.43934235 -0.85303587 -0.28161702
vn -0.7493528 -0.6535734 -0.106359385
vn -0.88415456 -0.46598104 0.033652246
vn -0 -0.7677171 -0.6407889
vn 0.46318385 -0.3397513 -0.81855345
vn -0 -0.94559044 -0.32535943
vn -0.7184901 -0.6953599 -0.01570244
vn -0.76341605 -0.6330998 0.12798673
vn -0.44785026 -0.8838708 -0.13491668
vn 0.4296503 -0.6926896 -0.57929415
vn 0.71809804 -0.5458699 -0.4316957
vn 0.8105038 -0.270407 -0.51958025
vn 0.92536205 -0.309517 -0.21887034
vn 0.43934238 -0.85303587 -0.28161702
vn 0.75922984 -0.6114606 -0.22290345
vn 0.9212399 -0.38284215 -0.06891152
vn -0 -0.9889094 -0.1485201
vn -0.42055476 -0.9065342 -0.036461893
vn 0.7493528 -0.6535734 -0.106359385
vn 0.88415456 -0.46598098 0.03365223
vn 0.44785026 -0.8838708 -0.13491668
vn 0.7184902 -0.6953598 -0.015702425
vn 0.76341605 -0.6330998 0.12798673
vn -0 -0.9994247 -0.033916686
vn 0.42055476 -0.9065342 -0.036461845
vn -0.6728364 -0.7371664 0.062263537
vn -0.4136323 -0.90785784 0.068575606
vn -0.48418728 -0.8425132 0.23608105
vn -0 -0.9969326 0.07826441
vn -0 -0.95249337 0.3045595
vn 0.41363215 -0.90785784 0.06857562
vn 0.48418728 -0.8425132 0.23608105
vn 0.67283636 -0.7371665 0.06226358
vn -0.83480763 -0.44391218 -0.32563514
vn -0.78441894 -0.61999077 -0.017278457
vn -0.46072692 -0.88290197 -0.0906358
vn -0.36643597 -0.83532465 -0.40982616
vn -0.98911476 -0.062637694 0.13314812
vn -0.11221505 -0.9855597 0.1268066
vn -0.8933676 -0.34603384 0.28662708
vn 0.15377513 -0.9815384 -0.11373494
vn -0.7376484 0.124633685 0.6635821
vn 0.06622495 -0.867895 0.4923135
vn -0.71835333 -0.23339766 0.65535784
vn 0.39198092 -0.81372666 0.42918512
vn -0.2306986 -0.041042183 0.9721593
vn -0.046149246 -0.5989668 0.7994429
vn -0.36641544 -0.33102867 0.8695744
vn 0.2509342 -0.41299328 0.87548196
vn 0.8348076 -0.44391224 -0.32563516
vn 0.4607269 -0.8829019 -0.09063624
vn 0.78441894 -0.61999077 -0.017278472
vn 0.3664359 -0.83532435 -0.40982667
vn 0.98911476 -0.06263754 0.13314815
vn 0.11221517 -0.9855597 0.12680662
vn 0.8933676 -0.34603372 0.28662705
vn -0.15377508 -0.9815384 -0.11373505
vn 0.73764867 0.12463375 0.66358185
vn -0.066224925 -0.8678948 0.49231365
vn 0.71835357 -0.23339759 0.6553577
vn -0.3919808 -0.8137265 0.42918554
vn 0.23069891 -0.04104223 0.9721592
vn 0.046149295 -0.598967 0.7994428
vn 0.36641568 -0.3310287 0.86957437
vn -0.25093418 -0.4129933 0.87548184
vn -0.40219378 -0.7298762 0.55273944
vn -0.3275372 -0.7620821 -0.5585251
vn 0.0058356593 -0.05510401 -0.9984635
vn 0.30691215 -0.6366078 0.7074853
vn 0.72714114 -0.43960774 -0.5272672
vn 0.71464044 -0.3627498 0.5980816
vn 0.9833761 -0.11372285 0.14155766
vn 0.7152138 0.068041414 -0.69558585
vn 0.59662515 0.5330229 -0.5999375
vn 0.7666779 0.11357756 -0.631906
vn 0.98813206 0.1519615 0.022422256
vn 0.7505906 -0.22118258 0.62264925
vn 0.75209117 0.11529576 0.64889586
vn 0.5905771 0.5381553 0.60133815
vn 0.7310066 0.68235457 -0.0046493346
vn 0.3787087 -0.6905046 0.6162654
vn 0.0066724056 0.79538274 0.6060709
vn -0.31087223 -0.61193 0.7272553
vn -0.3872417 -0.68532467 0.6167448
vn -0.9847831 -0.114113696 0.1310736
vn 0.008153835 0.9996414 -0.025507012
vn -0.57649326 0.55181885 0.60262054
vn 0.5955349 -0.58133245 0.5544283
vn -0.7539337 -0.21059565 0.6222809
vn 0.006418798 0.77508885 -0.63181967
vn -0.71397537 0.700153 -0.0050031673
vn -0.7506475 0.13377722 0.6470178
vn -0.9842093 0.17560059 0.02228286
vn -0 0 -1
vn -0.003467843 -0.040091068 -0.99919003
vn -0.58181626 0.54696536 -0.6019291
vn 0.55823606 -0.6123595 -0.559811
vn -0.76556295 0.13252488 -0.62956375
vn -0.7242266 0.054238204 -0.6874257
vn -0.59863013 -0.5773978 0.5552059
vn -0.56389856 -0.6088237 -0.5579893
vn 0.35472715 -0.7534407 -0.5536207
vn 0.415178 -0.72157645 0.5540348
vn -0.7123207 -0.4556054 -0.53387547
vn -0.70861554 -0.3787554 0.5953221
vn -0.7146405 -0.36274973 0.5980816
vn 0.3275372 -0.7620821 -0.558525
vn -0.72714114 -0.43960774 -0.5272672
vn -0.7152138 0.06804134 -0.69558585
vn -0.0058356593 -0.055103987 -0.9984635
vn -0.30691224 -0.63660777 0.70748526
vn 0.40219373 -0.7298762 0.55273956
vn -0.9833761 -0.11372287 0.14155766
vn -0.558236 -0.6123595 -0.55981094
vn -0.5955349 -0.58133245 0.5544283
vn 0.5638986 -0.6088238 -0.5579893
vn 0.5986302 -0.5773979 0.5552059
vn 0.31087214 -0.61193 0.72725534
vn 0.003467843 -0.040091068 -0.99919003
vn -0 0 -1
vn -0.59662515 0.5330229 -0.5999375
vn -0.7505906 -0.2211825 0.6226492
vn -0.37870878 -0.69050455 0.6162654
vn -0.98813206 0.15196148 0.02242225
vn -0.7520912 0.1152958 0.6488958
vn -0.5905772 0.5381553 0.60133815
vn -0.7666779 0.113577455 -0.631906
vn -0.7310066 0.68235457 -0.004649333
vn -0.0064188447 0.7750889 -0.6318196
vn -0.0066725058 0.79538274 0.6060709
vn 0.58181614 0.5469655 -0.6019291
vn -0.008153876 0.9996414 -0.025507014
vn 0.38724157 -0.68532467 0.6167448
vn 0.5764932 0.55181885 0.60262054
vn 0.7139752 0.7001531 -0.0050031734
vn 0.7655629 0.13252516 -0.6295638
vn 0.7506475 0.13377719 0.64701784
vn 0.9842093 0.17560072 0.022282857
vn 0.75393367 -0.21059567 0.6222809
vn 0.9847831 -0.11411354 0.1310736
vn 0.7242266 0.054238427 -0.6874257
vn 0.7086155 -0.37875527 0.5953222
vn -0.41517803 -0.7215763 0.55403495
vn 0.7123208 -0.4556054 -0.5338754
vn -0.35472718 -0.75344074 -0.5536204
g Penguin_LOD2_0
f 3/3/3 2/2/2 1/1/1
f 6/6/6 5/5/5 4/4/4
f 9/9/9 8/8/8 7/7/7
f 12/12/12 11/11/11 10/10/10
f 15/15/15 14/14/14 13/13/13
f 18/18/18 17/17/17 16/16/16
f 21/21/21 20/20/20 19/19/19
f 24/24/24 23/23/23 22/22/22
f 27/27/27 26/26/26 25/25/25
f 30/30/30 29/29/29 28/28/28
f 33/33/33 32/32/32 31/31/31
f 36/36/36 35/35/35 34/34/34
f 39/39/39 38/38/38 37/37/37
f 42/42/42 41/41/41 40/40/40
f 45/45/45 44/44/44 43/43/43
f 48/48/48 47/47/47 46/46/46
f 51/51/51 50/50/50 49/49/49
f 54/54/54 53/53/53 52/52/52
f 57/57/57 56/56/56 55/55/55
f 60/60/60 59/59/59 58/58/58
f 61/61/61 60/60/60 58/58/58
f 61/61/61 58/58/58 62/62/62
f 63/63/63 61/61/61 62/62/62
f 62/62/62 58/58/58 64/64/64
f 58/58/58 65/65/65 64/64/64
f 64/64/64 66/66/66 62/62/62
f 67/67/67 66/66/66 64/64/64
f 68/68/68 67/67/67 64/64/64
f 67/67/67 68/68/68 69/69/69
f 68/68/68 70/70/70 69/69/69
f 69/69/69 70/70/70 71/71/71
f 70/70/70 72/72/72 71/71/71
f 66/66/66 73/73/73 62/62/62
f 62/62/62 73/73/73 63/63/63
f 73/73/73 74/74/74 63/63/63
f 73/73/73 75/75/75 74/74/74
f 75/75/75 76/76/76 74/74/74
f 58/58/58 78/78/78 77/77/77
f 78/78/78 79/79/79 77/77/77
f 72/72/72 81/81/81 80/80/80
f 82/82/82 72/72/72 80/80/80
f 72/72/72 84/84/84 83/83/83
f 84/84/84 85/85/85 83/83/83
f 84/84/84 86/86/86 85/85/85
f 86/86/86 87/87/87 85/85/85
f 85/85/85 87/87/87 88/88/88
f 87/87/87 89/89/89 88/88/88
f 89/89/89 87/87/87 90/90/90
f 87/87/87 91/91/91 90/90/90
f 89/89/89 90/90/90 92/92/92
f 93/93/93 89/89/89 92/92/92
f 90/90/90 91/91/91 94/94/94
f 91/91/91 95/95/95 94/94/94
f 86/86/86 97/97/97 96/96/96
f 97/97/97 72/72/72 98/98/98
f 97/97/97 98/98/98 96/96/96
f 99/99/99 96/96/96 98/98/98
f 72/72/72 100/100/100 98/98/98
f 101/101/101 99/99/99 98/98/98
f 101/101/101 98/98/98 100/100/100
f 102/102/102 101/101/101 100/100/100
f 104/104/104 101/101/101 103/103/103
f 105/105/105 104/104/104 103/103/103
f 108/108/108 107/107/107 106/106/106
f 107/107/107 109/109/109 106/106/106
f 107/107/107 63/63/63 109/109/109
f 63/63/63 110/110/110 109/109/109
f 111/111/111 109/109/109 110/110/110
f 112/112/112 111/111/111 110/110/110
f 115/115/115 114/114/114 113/113/113
f 116/116/116 115/115/115 113/113/113
f 117/117/117 115/115/115 116/116/116
f 118/118/118 117/117/117 116/116/116
f 119/119/119 118/118/118 116/116/116
f 120/120/120 119/119/119 116/116/116
f 123/123/123 122/122/122 121/121/121
f 124/124/124 123/123/123 121/121/121
f 127/127/127 126/126/126 125/125/125
f 128/128/128 127/127/127 125/125/125
f 131/131/131 130/130/130 129/129/129
f 132/132/132 131/131/131 129/129/129
f 135/135/135 134/134/134 133/133/133
f 134/134/134 135/135/135 136/136/136
f 134/134/134 136/136/136 137/137/137
f 137/137/137 136/136/136 138/138/138
f 139/139/139 138/138/138 136/136/136
f 140/140/140 137/137/137 138/138/138
f 141/141/141 139/139/139 136/136/136
f 137/137/137 140/140/140 142/142/142
f 139/139/139 141/141/141 142/142/142
f 143/143/143 137/137/137 142/142/142
f 141/141/141 143/143/143 142/142/142
f 146/146/146 145/145/145 144/144/144
f 145/145/145 146/146/146 147/147/147
f 145/145/145 147/147/147 148/148/148
f 148/148/148 147/147/147 149/149/149
f 149/149/149 147/147/147 150/150/150
f 151/151/151 148/148/148 149/149/149
f 147/147/147 152/152/152 150/150/150
f 148/148/148 151/151/151 153/153/153
f 150/150/150 152/152/152 153/153/153
f 154/154/154 148/148/148 153/153/153
f 152/152/152 154/154/154 153/153/153
f 157/157/157 156/156/156 155/155/155
f 158/158/158 157/157/157 155/155/155
f 157/157/157 158/158/158 159/159/159
f 155/155/155 160/160/160 158/158/158
f 160/160/160 161/161/161 158/158/158
f 158/158/158 161/161/161 159/159/159
f 161/161/161 160/160/160 162/162/162
f 162/162/162 160/160/160 155/155/155
f 161/161/161 162/162/162 159/159/159
f 163/163/163 162/162/162 155/155/155
f 162/162/162 163/163/163 159/159/159
f 164/164/164 163/163/163 155/155/155
f 159/159/159 166/166/166 165/165/165
f 167/167/167 159/159/159 165/165/165
f 166/166/166 168/168/168 165/165/165
f 169/169/169 167/167/167 165/165/165
f 166/166/166 170/170/170 168/168/168
f 167/167/167 169/169/169 171/171/171
f 170/170/170 171/171/171 168/168/168
f 170/170/170 167/167/167 171/171/171
f 174/174/174 173/173/173 172/172/172
f 175/175/175 174/174/174 172/172/172
f 178/178/178 177/177/177 176/176/176
f 179/179/179 178/178/178 176/176/176
f 178/178/178 181/181/181 180/180/180
f 178/178/178 182/182/182 181/181/181
f 183/183/183 182/182/182 178/178/178
f 184/184/184 183/183/183 178/178/178
f 183/183/183 185/185/185 182/182/182
f 185/185/185 186/186/186 182/182/182
f 187/187/187 185/185/185 183/183/183
f 182/182/182 186/186/186 188/188/188
f 182/182/182 188/188/188 181/181/181
f 186/186/186 189/189/189 188/188/188
f 190/190/190 187/187/187 183/183/183
f 190/190/190 183/183/183 184/184/184
f 191/191/191 187/187/187 190/190/190
f 188/188/188 189/189/189 192/192/192
f 189/189/189 193/193/193 192/192/192
f 181/181/181 188/188/188 194/194/194
f 188/188/188 192/192/192 194/194/194
f 192/192/192 193/193/193 195/195/195
f 193/193/193 196/196/196 195/195/195
f 192/192/192 195/195/195 197/197/197
f 194/194/194 192/192/192 197/197/197
f 195/195/195 196/196/196 198/198/198
f 195/195/195 198/198/198 197/197/197
f 196/196/196 199/199/199 198/198/198
f 198/198/198 200/200/200 197/197/197
f 200/200/200 198/198/198 201/201/201
f 194/194/194 197/197/197 202/202/202
f 200/200/200 201/201/201 203/203/203
f 198/198/198 199/199/199 204/204/204
f 198/198/198 204/204/204 201/201/201
f 199/199/199 205/205/205 204/204/204
f 204/204/204 205/205/205 206/206/206
f 207/207/207 204/204/204 206/206/206
f 201/201/201 204/204/204 207/207/207
f 207/207/207 206/206/206 208/208/208
f 209/209/209 194/194/194 202/202/202
f 194/194/194 209/209/209 210/210/210
f 181/181/181 194/194/194 210/210/210
f 181/181/181 210/210/210 180/180/180
f 209/209/209 202/202/202 211/211/211
f 210/210/210 209/209/209 212/212/212
f 209/209/209 211/211/211 212/212/212
f 180/180/180 210/210/210 213/213/213
f 210/210/210 212/212/212 213/213/213
f 202/202/202 214/214/214 211/211/211
f 202/202/202 203/203/203 214/214/214
f 214/214/214 215/215/215 211/211/211
f 203/203/203 215/215/215 214/214/214
f 211/211/211 216/216/216 212/212/212
f 215/215/215 216/216/216 211/211/211
f 203/203/203 217/217/217 215/215/215
f 201/201/201 217/217/217 203/203/203
f 180/180/180 213/213/213 218/218/218
f 219/219/219 180/180/180 218/218/218
f 212/212/212 220/220/220 213/213/213
f 216/216/216 220/220/220 212/212/212
f 215/215/215 221/221/221 216/216/216
f 217/217/217 221/221/221 215/215/215
f 213/213/213 222/222/222 218/218/218
f 220/220/220 222/222/222 213/213/213
f 219/219/219 218/218/218 223/223/223
f 222/222/222 223/223/223 218/218/218
f 216/216/216 224/224/224 220/220/220
f 221/221/221 224/224/224 216/216/216
f 220/220/220 225/225/225 222/222/222
f 224/224/224 225/225/225 220/220/220
f 224/224/224 221/221/221 226/226/226
f 224/224/224 226/226/226 225/225/225
f 227/227/227 221/221/221 217/217/217
f 221/221/221 227/227/227 226/226/226
f 225/225/225 228/228/228 222/222/222
f 222/222/222 228/228/228 223/223/223
f 229/229/229 219/219/219 223/223/223
f 184/184/184 219/219/219 229/229/229
f 226/226/226 230/230/230 225/225/225
f 225/225/225 230/230/230 228/228/228
f 228/228/228 231/231/231 223/223/223
f 229/229/229 223/223/223 231/231/231
f 232/232/232 184/184/184 229/229/229
f 232/232/232 190/190/190 184/184/184
f 233/233/233 227/227/227 217/217/217
f 233/233/233 217/217/217 201/201/201
f 226/226/226 227/227/227 234/234/234
f 226/226/226 234/234/234 230/230/230
f 230/230/230 235/235/235 228/228/228
f 228/228/228 235/235/235 231/231/231
f 232/232/232 229/229/229 236/236/236
f 236/236/236 229/229/229 231/231/231
f 237/237/237 190/190/190 232/232/232
f 237/237/237 191/191/191 190/190/190
f 238/238/238 233/233/233 201/201/201
f 238/238/238 201/201/201 207/207/207
f 234/234/234 239/239/239 230/230/230
f 230/230/230 239/239/239 235/235/235
f 240/240/240 232/232/232 236/236/236
f 240/240/240 237/237/237 232/232/232
f 237/237/237 241/241/241 191/191/191
f 241/241/241 242/242/242 191/191/191
f 240/240/240 243/243/243 237/237/237
f 240/240/240 236/236/236 243/243/243
f 243/243/243 241/241/241 237/237/237
f 241/241/241 244/244/244 242/242/242
f 244/244/244 245/245/245 242/242/242
f 246/246/246 245/245/245 244/244/244
f 236/236/236 247/247/247 243/243/243
f 236/236/236 231/231/231 247/247/247
f 243/243/243 248/248/248 241/241/241
f 248/248/248 244/244/244 241/241/241
f 243/243/243 247/247/247 248/248/248
f 249/249/249 246/246/246 244/244/244
f 249/249/249 244/244/244 248/248/248
f 250/250/250 246/246/246 249/249/249
f 231/231/231 251/251/251 247/247/247
f 235/235/235 251/251/251 231/231/231
f 235/235/235 252/252/252 251/251/251
f 252/252/252 253/253/253 251/251/251
f 251/251/251 253/253/253 254/254/254
f 247/247/247 251/251/251 254/254/254
f 247/247/247 254/254/254 248/248/248
f 255/255/255 250/250/250 249/249/249
f 256/256/256 250/250/250 255/255/255
f 257/257/257 249/249/249 248/248/248
f 255/255/255 249/249/249 257/257/257
f 257/257/257 248/248/248 258/258/258
f 259/259/259 256/256/256 255/255/255
f 208/208/208 256/256/256 259/259/259
f 260/260/260 257/257/257 258/258/258
f 260/260/260 258/258/258 261/261/261
f 262/262/262 260/260/260 261/261/261
f 263/263/263 255/255/255 257/257/257
f 263/263/263 257/257/257 260/260/260
f 259/259/259 255/255/255 263/263/263
f 264/264/264 208/208/208 259/259/259
f 264/264/264 207/207/207 208/208/208
f 265/265/265 260/260/260 262/262/262
f 265/265/265 263/263/263 260/260/260
f 266/266/266 259/259/259 263/263/263
f 264/264/264 259/259/259 266/266/266
f 266/266/266 263/263/263 265/265/265
f 264/264/264 267/267/267 207/207/207
f 267/267/267 264/264/264 266/266/266
f 267/267/267 238/238/238 207/207/207
f 267/267/267 268/268/268 238/238/238
f 268/268/268 267/267/267 266/266/266
f 268/268/268 233/233/233 238/238/238
f 239/239/239 265/265/265 262/262/262
f 239/239/239 262/262/262 235/235/235
f 269/269/269 266/266/266 265/265/265
f 269/269/269 265/265/265 239/239/239
f 269/269/269 268/268/268 266/266/266
f 234/234/234 269/269/269 239/239/239
f 268/268/268 269/269/269 234/234/234
f 268/268/268 270/270/270 233/233/233
f 270/270/270 268/268/268 234/234/234
f 270/270/270 227/227/227 233/233/233
f 227/227/227 270/270/270 234/234/234
f 273/273/273 272/272/272 271/271/271
f 274/274/274 273/273/273 271/271/271
f 274/274/274 271/271/271 275/275/275
f 271/271/271 276/276/276 275/275/275
f 274/274/274 277/277/277 273/273/273
f 274/274/274 275/275/275 277/277/277
f 277/277/277 278/278/278 273/273/273
f 275/275/275 279/279/279 277/277/277
f 280/280/280 273/273/273 278/278/278
f 275/275/275 281/281/281 279/279/279
f 281/281/281 282/282/282 279/279/279
f 283/283/283 280/280/280 278/278/278
f 279/279/279 282/282/282 284/284/284
f 285/285/285 280/280/280 283/283/283
f 286/286/286 285/285/285 283/283/283
f 287/287/287 280/280/280 285/285/285
f 288/288/288 287/287/287 285/285/285
f 289/289/289 279/279/279 284/284/284
f 279/279/279 289/289/289 290/290/290
f 291/291/291 279/279/279 290/290/290
f 291/291/291 290/290/290 292/292/292
f 290/290/290 293/293/293 292/292/292
f 290/290/290 289/289/289 294/294/294
f 289/289/289 295/295/295 294/294/294
f 289/289/289 284/284/284 295/295/295
f 294/294/294 295/295/295 296/296/296
f 297/297/297 294/294/294 296/296/296
f 297/297/297 296/296/296 298/298/298
f 296/296/296 299/299/299 298/298/298
f 296/296/296 295/295/295 300/300/300
f 284/284/284 301/301/301 295/295/295
f 295/295/295 301/301/301 300/300/300
f 301/301/301 284/284/284 300/300/300
f 284/284/284 302/302/302 300/300/300
f 290/290/290 304/304/304 303/303/303
f 304/304/304 286/286/286 303/303/303
f 302/302/302 306/306/306 305/305/305
f 307/307/307 302/302/302 305/305/305
f 309/309/309 308/308/308 302/302/302
f 310/310/310 309/309/309 302/302/302
f 312/312/312 302/302/302 311/311/311
f 313/313/313 312/312/312 311/311/311
f 313/313/313 315/315/315 314/314/314
f 314/314/314 315/315/315 316/316/316
f 317/317/317 313/313/313 314/314/314
f 318/318/318 313/313/313 317/317/317
f 319/319/319 318/318/318 317/317/317
f 320/320/320 314/314/314 316/316/316
f 320/320/320 316/316/316 321/321/321
f 322/322/322 320/320/320 321/321/321
f 314/314/314 320/320/320 323/323/323
f 324/324/324 314/314/314 323/323/323
f 317/317/317 314/314/314 324/324/324
f 325/325/325 317/317/317 324/324/324
f 325/325/325 324/324/324 326/326/326
f 324/324/324 327/327/327 326/326/326
f 325/325/325 326/326/326 328/328/328
f 329/329/329 325/325/325 328/328/328
f 329/329/329 328/328/328 330/330/330
f 328/328/328 331/331/331 330/330/330
f 324/324/324 333/333/333 332/332/332
f 333/333/333 334/334/334 332/332/332
f 337/337/337 336/336/336 335/335/335
f 338/338/338 337/337/337 335/335/335
f 341/341/341 340/340/340 339/339/339
f 342/342/342 341/341/341 339/339/339
f 344/344/344 343/343/343 341/341/341
f 345/345/345 344/344/344 341/341/341
f 348/348/348 347/347/347 346/346/346
f 347/347/347 349/349/349 346/346/346
f 349/349/349 351/351/351 350/350/350
f 352/352/352 349/349/349 350/350/350
f 346/346/346 354/354/354 353/353/353
f 355/355/355 346/346/346 353/353/353
f 346/346/346 355/355/355 356/356/356
f 357/357/357 346/346/346 356/356/356
f 356/356/356 358/358/358 357/357/357
f 358/358/358 359/359/359 357/357/357
f 357/357/357 359/359/359 360/360/360
f 359/359/359 361/361/361 360/360/360
f 360/360/360 361/361/361 362/362/362
f 361/361/361 363/363/363 362/362/362
f 362/362/362 363/363/363 364/364/364
f 365/365/365 362/362/362 364/364/364
f 356/356/356 367/367/367 366/366/366
f 367/367/367 368/368/368 366/366/366
f 370/370/370 369/369/369 368/368/368
f 371/371/371 370/370/370 368/368/368
f 372/372/372 370/370/370 371/371/371
f 375/375/375 374/374/374 373/373/373
f 376/376/376 375/375/375 373/373/373
f 379/379/379 378/378/378 377/377/377
f 380/380/380 379/379/379 377/377/377
f 383/383/383 382/382/382 381/381/381
f 384/384/384 383/383/383 381/381/381
f 387/387/387 386/386/386 385/385/385
f 388/388/388 387/387/387 385/385/385
f 391/391/391 390/390/390 389/389/389
f 392/392/392 391/391/391 389/389/389
f 395/395/395 394/394/394 393/393/393
f 394/394/394 396/396/396 393/393/393
f 396/396/396 394/394/394 397/397/397
f 394/394/394 398/398/398 397/397/397
f 401/401/401 400/400/400 399/399/399
f 402/402/402 401/401/401 399/399/399
f 405/405/405 404/404/404 403/403/403
f 406/406/406 405/405/405 403/403/403
f 409/409/409 408/408/408 407/407/407
f 410/410/410 409/409/409 407/407/407
f 410/410/410 412/412/412 411/411/411
f 412/412/412 413/413/413 411/411/411
f 413/413/413 412/412/412 414/414/414
f 411/411/411 413/413/413 415/415/415
f 415/415/415 413/413/413 414/414/414
f 414/414/414 412/412/412 416/416/416
f 412/412/412 417/417/417 416/416/416
f 416/416/416 417/417/417 418/418/418
f 417/417/417 419/419/419 418/418/418
f 414/414/414 416/416/416 420/420/420
f 421/421/421 414/414/414 420/420/420
f 415/415/415 414/414/414 421/421/421
f 420/420/420 416/416/416 422/422/422
f 416/416/416 418/418/418 422/422/422
f 423/423/423 415/415/415 421/421/421
f 423/423/423 424/424/424 415/415/415
f 418/418/418 425/425/425 422/422/422
f 418/418/418 419/419/419 425/425/425
f 425/425/425 426/426/426 422/422/422
f 427/427/427 426/426/426 425/425/425
f 424/424/424 428/428/428 415/415/415
f 424/424/424 429/429/429 428/428/428
f 428/428/428 411/411/411 415/415/415
f 429/429/429 430/430/430 428/428/428
f 430/430/430 429/429/429 427/427/427
f 428/428/428 430/430/430 411/411/411
f 419/419/419 431/431/431 425/425/425
f 431/431/431 419/419/419 410/410/410
f 432/432/432 427/427/427 425/425/425
f 432/432/432 430/430/430 427/427/427
f 432/432/432 425/425/425 431/431/431
f 430/430/430 433/433/433 411/411/411
f 411/411/411 433/433/433 410/410/410
f 433/433/433 430/430/430 432/432/432
f 434/434/434 432/432/432 431/431/431
f 434/434/434 431/431/431 410/410/410
f 433/433/433 434/434/434 410/410/410
f 434/434/434 433/433/433 432/432/432
f 437/437/437 436/436/436 435/435/435
f 438/438/438 437/437/437 435/435/435
f 441/441/441 440/440/440 439/439/439
f 441/441/441 439/439/439 442/442/442
f 441/441/441 443/443/443 440/440/440
f 441/441/441 442/442/442 444/444/444
f 441/441/441 445/445/445 443/443/443
f 441/441/441 444/444/444 446/446/446
f 441/441/441 447/447/447 445/445/445
f 441/441/441 446/446/446 447/447/447
f 450/450/450 449/449/449 448/448/448
f 448/448/448 449/449/449 451/451/451
f 452/452/452 449/449/449 450/450/450
f 451/451/451 449/449/449 453/453/453
f 454/454/454 449/449/449 452/452/452
f 453/453/453 449/449/449 455/455/455
f 456/456/456 449/449/449 454/454/454
f 455/455/455 449/449/449 456/456/456
f 459/459/459 458/458/458 457/457/457
f 458/458/458 459/459/459 460/460/460
f 458/458/458 461/461/461 457/457/457
f 457/457/457 461/461/461 462/462/462
f 462/462/462 463/463/463 460/460/460
f 461/461/461 463/463/463 462/462/462
f 464/464/464 461/461/461 458/458/458
f 461/461/461 464/464/464 463/463/463
f 463/463/463 465/465/465 460/460/460
f 465/465/465 458/458/458 460/460/460
f 466/466/466 464/464/464 458/458/458
f 458/458/458 465/465/465 466/466/466
f 463/463/463 467/467/467 465/465/465
f 464/464/464 467/467/467 463/463/463
f 465/465/465 468/468/468 466/466/466
f 467/467/467 468/468/468 465/465/465
f 466/466/466 469/469/469 464/464/464
f 468/468/468 469/469/469 466/466/466
f 464/464/464 469/469/469 467/467/467
f 468/468/468 467/467/467 469/469/469
f 472/472/472 471/471/471 470/470/470
f 471/471/471 472/472/472 473/473/473
f 474/474/474 472/472/472 470/470/470
f 474/474/474 470/470/470 475/475/475
f 472/472/472 476/476/476 473/473/473
f 473/473/473 476/476/476 477/477/477
f 476/476/476 472/472/472 478/478/478
f 472/472/472 474/474/474 478/478/478
f 476/476/476 479/479/479 477/477/477
f 476/476/476 478/478/478 479/479/479
f 477/477/477 479/479/479 480/480/480
f 481/481/481 474/474/474 475/475/475
f 481/481/481 475/475/475 482/482/482
f 478/478/478 474/474/474 483/483/483
f 474/474/474 481/481/481 483/483/483
f 479/479/479 484/484/484 480/480/480
f 480/480/480 484/484/484 485/485/485
f 478/478/478 486/486/486 479/479/479
f 478/478/478 483/483/483 486/486/486
f 479/479/479 486/486/486 484/484/484
f 487/487/487 481/481/481 482/482/482
f 481/481/481 487/487/487 483/483/483
f 487/487/487 482/482/482 488/488/488
f 482/482/482 489/489/489 488/488/488
f 488/488/488 489/489/489 490/490/490
f 487/487/487 491/491/491 483/483/483
f 487/487/487 488/488/488 491/491/491
f 492/492/492 488/488/488 490/490/490
f 488/488/488 492/492/492 491/491/491
f 492/492/492 490/490/490 493/493/493
f 483/483/483 494/494/494 486/486/486
f 483/483/483 491/491/491 494/494/494
f 486/486/486 495/495/495 484/484/484
f 486/486/486 494/494/494 495/495/495
f 496/496/496 492/492/492 493/493/493
f 496/496/496 493/493/493 497/497/497
f 491/491/491 492/492/492 498/498/498
f 491/491/491 498/498/498 494/494/494
f 492/492/492 496/496/496 498/498/498
f 499/499/499 496/496/496 497/497/497
f 499/499/499 497/497/497 500/500/500
f 494/494/494 498/498/498 501/501/501
f 494/494/494 501/501/501 495/495/495
f 498/498/498 496/496/496 502/502/502
f 496/496/496 499/499/499 502/502/502
f 498/498/498 502/502/502 501/501/501
f 484/484/484 495/495/495 503/503/503
f 484/484/484 503/503/503 485/485/485
f 495/495/495 504/504/504 503/503/503
f 503/503/503 504/504/504 485/485/485
f 495/495/495 501/501/501 504/504/504
f 504/504/504 505/505/505 485/485/485
f 501/501/501 506/506/506 504/504/504
f 504/504/504 506/506/506 505/505/505
f 501/501/501 502/502/502 506/506/506
f 506/506/506 507/507/507 505/505/505
f 502/502/502 508/508/508 506/506/506
f 506/506/506 508/508/508 507/507/507
f 502/502/502 499/499/499 508/508/508
f 508/508/508 509/509/509 507/507/507
f 499/499/499 510/510/510 508/508/508
f 508/508/508 510/510/510 509/509/509
f 510/510/510 499/499/499 500/500/500
f 510/510/510 500/500/500 509/509/509
f 513/513/513 512/512/512 511/511/511
f 514/514/514 513/513/513 511/511/511
f 511/511/511 512/512/512 515/515/515
f 516/516/516 513/513/513 514/514/514
f 512/512/512 517/517/517 515/515/515
f 518/518/518 516/516/516 514/514/514
f 515/515/515 517/517/517 519/519/519
f 520/520/520 516/516/516 518/518/518
f 517/517/517 521/521/521 519/519/519
f 522/522/522 520/520/520 518/518/518
f 519/519/519 521/521/521 523/523/523
f 524/524/524 520/520/520 522/522/522
f 521/521/521 525/525/525 523/523/523
f 526/526/526 524/524/524 522/522/522
f 523/523/523 525/525/525 526/526/526
f 525/525/525 524/524/524 526/526/526
f 529/529/529 528/528/528 527/527/527
f 528/528/528 530/530/530 527/527/527
f 529/529/529 527/527/527 531/531/531
f 528/528/528 532/532/532 530/530/530
f 533/533/533 529/529/529 531/531/531
f 532/532/532 534/534/534 530/530/530
f 533/533/533 531/531/531 535/535/535
f 532/532/532 536/536/536 534/534/534
f 537/537/537 533/533/533 535/535/535
f 536/536/536 538/538/538 534/534/534
f 537/537/537 535/535/535 539/539/539
f 536/536/536 540/540/540 538/538/538
f 541/541/541 537/537/537 539/539/539
f 540/540/540 542/542/542 538/538/538
f 541/541/541 539/539/539 542/542/542
f 540/540/540 541/541/541 542/542/542
f 545/545/545 544/544/544 543/543/543
f 546/546/546 545/545/545 543/543/543
f 544/544/544 545/545/545 547/547/547
f 543/543/543 544/544/544 547/547/547
f 546/546/546 543/543/543 548/548/548
f 548/548/548 543/543/543 547/547/547
f 549/549/549 548/548/548 547/547/547
f 549/549/549 546/546/546 548/548/548
f 545/545/545 550/550/550 547/547/547
f 550/550/550 549/549/549 547/547/547
f 550/550/550 545/545/545 551/551/551
f 551/551/551 552/552/552 550/550/550
f 552/552/552 553/553/553 550/550/550
f 553/553/553 549/549/549 550/550/550
f 552/552/552 551/551/551 553/553/553
f 549/549/549 554/554/554 546/546/546
f 553/553/553 555/555/555 549/549/549
f 555/555/555 554/554/554 549/549/549
f 556/556/556 555/555/555 553/553/553
f 554/554/554 555/555/555 556/556/556
f 551/551/551 557/557/557 553/553/553
f 557/557/557 556/556/556 553/553/553
f 556/556/556 558/558/558 554/554/554
f 554/554/554 558/558/558 546/546/546
f 559/559/559 556/556/556 557/557/557
f 556/556/556 559/559/559 558/558/558
f 546/546/546 558/558/558 560/560/560
f 558/558/558 561/561/561 560/560/560
f 559/559/559 561/561/561 558/558/558
f 560/560/560 561/561/561 562/562/562
f 563/563/563 559/559/559 557/557/557
f 557/557/557 551/551/551 563/563/563
f 559/559/559 564/564/564 561/561/561
f 564/564/564 559/559/559 563/563/563
f 546/546/546 560/560/560 565/565/565
f 545/545/545 546/546/546 565/565/565
f 561/561/561 566/566/566 562/562/562
f 564/564/564 566/566/566 561/561/561
f 551/551/551 567/567/567 563/563/563
f 568/568/568 564/564/564 563/563/563
f 563/563/563 567/567/567 568/568/568
f 564/564/564 569/569/569 566/566/566
f 569/569/569 564/564/564 568/568/568
f 566/566/566 569/569/569 570/570/570
f 562/562/562 566/566/566 570/570/570
f 570/570/570 569/569/569 568/568/568
f 571/571/571 567/567/567 551/551/551
f 545/545/545 571/571/571 551/551/551
f 545/545/545 572/572/572 571/571/571
f 571/571/571 573/573/573 567/567/567
f 567/567/567 573/573/573 568/568/568
f 572/572/572 573/573/573 571/571/571
f 574/574/574 545/545/545 565/565/565
f 572/572/572 545/545/545 574/574/574
f 575/575/575 570/570/570 568/568/568
f 573/573/573 575/575/575 568/568/568
f 575/575/575 576/576/576 570/570/570
f 576/576/576 575/575/575 573/573/573
f 576/576/576 562/562/562 570/570/570
f 572/572/572 576/576/576 573/573/573
f 565/565/565 577/577/577 574/574/574
f 560/560/560 577/577/577 565/565/565
f 577/577/577 578/578/578 574/574/574
f 578/578/578 572/572/572 574/574/574
f 577/577/577 560/560/560 578/578/578
f 560/560/560 572/572/572 578/578/578
f 576/576/576 572/572/572 579/579/579
f 572/572/572 560/560/560 579/579/579
f 560/560/560 562/562/562 580/580/580
f 560/560/560 580/580/580 579/579/579
f 581/581/581 576/576/576 579/579/579
f 562/562/562 576/576/576 581/581/581
f 562/562/562 582/582/582 580/580/580
f 580/580/580 582/582/582 579/579/579
f 582/582/582 562/562/562 581/581/581
f 582/582/582 581/581/581 579/579/579
f 585/585/585 584/584/584 583/583/583
f 585/585/585 583/583/583 586/586/586
f 584/584/584 585/585/585 586/586/586
f 587/587/587 584/584/584 586/586/586
f 584/584/584 587/587/587 588/588/588
f 589/589/589 584/584/584 588/588/588
f 584/584/584 589/589/589 583/583/583
f 589/589/589 588/588/588 590/590/590
f 583/583/583 589/589/589 590/590/590
f 583/583/583 590/590/590 586/586/586
f 587/587/587 591/591/591 588/588/588
f 591/591/591 592/592/592 588/588/588
f 591/591/591 593/593/593 592/592/592
f 593/593/593 591/591/591 587/587/587
f 593/593/593 594/594/594 592/592/592
f 592/592/592 594/594/594 588/588/588
f 594/594/594 595/595/595 588/588/588
f 594/594/594 593/593/593 596/596/596
f 596/596/596 593/593/593 587/587/587
f 595/595/595 594/594/594 596/596/596
f 596/596/596 587/587/587 597/597/597
f 587/587/587 586/586/586 598/598/598
f 587/587/587 598/598/598 597/597/597
f 599/599/599 590/590/590 588/588/588
f 600/600/600 588/588/588 595/595/595
f 600/600/600 599/599/599 588/588/588
f 586/586/586 590/590/590 601/601/601
f 599/599/599 602/602/602 590/590/590
f 602/602/602 601/601/601 590/590/590
f 603/603/603 602/602/602 599/599/599
f 603/603/603 599/599/599 600/600/600
f 602/602/602 603/603/603 601/601/601
f 604/604/604 586/586/586 601/601/601
f 586/586/586 604/604/604 598/598/598
f 604/604/604 601/601/601 605/605/605
f 603/603/603 605/605/605 601/601/601
f 598/598/598 604/604/604 605/605/605
f 597/597/597 598/598/598 606/606/606
f 606/606/606 598/598/598 605/605/605
f 607/607/607 603/603/603 600/600/600
f 605/605/605 603/603/603 607/607/607
f 608/608/608 597/597/597 606/606/606
f 596/596/596 597/597/597 608/608/608
f 609/609/609 606/606/606 605/605/605
f 609/609/609 605/605/605 607/607/607
f 608/608/608 606/606/606 609/609/609
f 607/607/607 600/600/600 610/610/610
f 610/610/610 600/600/600 595/595/595
f 609/609/609 607/607/607 611/611/611
f 611/611/611 607/607/607 610/610/610
f 612/612/612 608/608/608 609/609/609
f 612/612/612 609/609/609 611/611/611
f 596/596/596 608/608/608 613/613/613
f 613/613/613 608/608/608 612/612/612
f 611/611/611 614/614/614 612/612/612
f 614/614/614 611/611/611 610/610/610
f 615/615/615 613/613/613 612/612/612
f 614/614/614 615/615/615 612/612/612
f 610/610/610 616/616/616 614/614/614
f 614/614/614 616/616/616 615/615/615
f 616/616/616 610/610/610 617/617/617
f 616/616/616 617/617/617 615/615/615
f 610/610/610 595/595/595 617/617/617
f 618/618/618 613/613/613 615/615/615
f 617/617/617 618/618/618 615/615/615
f 613/613/613 618/618/618 596/596/596
f 619/619/619 617/617/617 595/595/595
f 617/617/617 619/619/619 618/618/618
f 620/620/620 619/619/619 595/595/595
f 620/620/620 595/595/595 596/596/596
f 619/619/619 621/621/621 618/618/618
f 618/618/618 621/621/621 596/596/596
f 621/621/621 619/619/619 620/620/620
f 621/621/621 622/622/622 596/596/596
f 622/622/622 621/621/621 620/620/620
f 622/622/622 620/620/620 596/596/596
