g pizzaSlice
v -0.35830045 0.3184054 0.32837915
v -0.09399569 0.42811668 0.23362839
v -0.08900881 0.49294615 0.32588565
v -0.35082006 0.38323486 0.42063642
v -0.30344474 0.46302485 1.0065949
v -0.68494105 -0.7413068 -0.668997
v -0.41564953 0.63008535 0.88441634
v -0.6001642 -0.878446 -0.58422005
v 0.6989183 0.13139737 -0.49445617
v 0.5742463 0.3134185 -0.6041676
v 0.963223 0.62509847 -0.5094168
v 1.087895 0.4530511 -0.3947186
v 0.20272362 0.08651543 -0.54681844
v 0.13290739 0.21368086 -0.28251374
v 0.03815663 0.15383828 -0.27752686
v 0.10547948 0.02667284 -0.54183155
v 0.28999412 0.66000664 0.2037071
v 0.5742463 0.3134185 -0.6041676
v 0.963223 0.62509847 -0.5094168
v -0.68494105 -0.7413068 -0.668997
v -0.41564953 0.63008535 0.88441634
v -0.30344474 0.46302485 1.0065949
v -0.38572824 -0.91335416 -0.37227762
v -0.6001642 -0.878446 -0.58422005
v 0.6989183 0.13139737 -0.49445617
v 1.1053491 0.2859906 -0.1827761
v 1.087895 0.4530511 -0.3947186
v -0.13638425 0.29596436 1.0689309
v -0.056594133 0.76971817 1.2334979
v -0.41564953 0.63008535 0.88441634
v 1.3172915 0.76473117 -0.15285492
v 0.963223 0.62509847 -0.5094168
v 0.04065001 0.5128937 1.2260177
v 1.2624358 0.5054134 -0.013222218
v 1.2025932 0.93428516 -0.2650597
v -0.16630554 0.94176555 1.1187997
v -0.395702 0.7921591 0.8943901
v 0.28999412 0.66000664 0.2037071
v 0.9756902 0.7871721 -0.4894693
v -0.27352345 0.9392719 1.0165687
v 1.0978688 0.9317918 -0.36978418
v -0.48795927 -0.1553483 -0.008235335
v -0.5577756 -0.06807792 -0.073064804
v -0.4779855 0.04662037 -0.00075495243
v -0.57522976 -0.16781545 -0.19274986
v -0.40816927 -0.04065001 0.061581016
v -0.5054134 -0.25757933 -0.13041389
v -0.4530511 -0.31492853 -0.2675531
v -0.52536094 -0.22765803 -0.32988912
v -0.42063642 -0.22765803 -0.44957423
v -0.34832668 -0.31492853 -0.38474482
v -0.2859906 0.059087515 0.0665679
v -0.35580695 0.14635801 0.0017384291
v -0.014205694 -0.04065001 -0.3772645
v -0.2884841 -0.17030895 -0.5144037
v -0.21866775 -0.25757933 -0.45206767
v -0.16630554 -0.06807792 -0.51191026
v -0.09648919 -0.15784168 -0.44957423
v -0.08651543 0.04662037 -0.43960053
v 0.00075495243 0.059087515 -0.25757933
v -0.06906128 0.14635801 -0.31991535
v -0.04911375 0.11643672 -0.117946744
v -0.15383828 0.11643672 -0.00075495243
v -0.1189301 0.2037071 -0.1827761
v -0.22365463 0.2037071 -0.06309104
v 0.17030895 0.20869398 -0.20272362
v 0.053117275 0.35331357 -0.1553483
v 0.12542701 0.2560693 -0.08802545
v 0.13540077 0.3433398 0.016699076
v 0.097999215 0.30344474 -0.27253997
v 0.2625662 0.21118748 -0.30246127
v 0.19025648 0.30593812 -0.36978418
v 0.06309104 0.43809044 -0.053117275
v 0.20272362 0.44307733 0.07654166
v 0.37477106 0.26105618 -0.35731697
v 0.29996789 0.35580695 -0.42463988
v 0.13041389 0.5378281 0.009218812
v 0.30495477 0.5303478 0.081528544
v 0.47700208 0.34832668 -0.3523301
v 0.4021989 0.44307733 -0.42214644
v 0.23264492 0.62509847 0.0117121935
v 0.41715956 0.58021665 0.02667284
v 0.54183155 0.4480642 -0.28999412
v 0.46952176 0.54281497 -0.3598104
v 0.34235632 0.6774608 -0.04065001
v 0.5069234 0.58271 -0.0705713
v 0.5518053 0.5328412 -0.18776298
v 0.43461365 0.6774608 -0.14038765
v 0.47949553 0.63008535 -0.25757933
vt 0.21762261 0.46790773
vt 0.21762261 0.46790773
vt 0.21762261 0.46790773
vt 0.21762261 0.46790773
vt 0.09419435 0.9684779
vt 0.09419435 0.9684779
vt 0.09419435 0.9684779
vt 0.09419435 0.9684779
vt 0.09419435 0.9684779
vt 0.09419435 0.9684779
vt 0.09419435 0.9684779
vt 0.09419435 0.9684779
vt 0.21762261 0.46790773
vt 0.21762261 0.46790773
vt 0.21762261 0.46790773
vt 0.21762261 0.46790773
vt 0.09419435 0.9684779
vt 0.09419435 0.9684779
vt 0.09419435 0.9684779
vt 0.09419435 0.9684779
vt 0.09419435 0.9684779
vt 0.7833355 0.9650493
vt 0.7833355 0.9650493
vt 0.7833355 0.9650493
vt 0.7833355 0.9650493
vt 0.7833355 0.9650493
vt 0.7833355 0.9650493
vt 0.7833355 0.9650493
vt 0.7833355 0.9650493
vt 0.7833355 0.9650493
vt 0.7833355 0.9650493
vt 0.7833355 0.9650493
vt 0.7833355 0.9650493
vt 0.7833355 0.9650493
vt 0.7833355 0.9650493
vt 0.7833355 0.9650493
vt 0.7833355 0.9650493
vt 0.7833355 0.9650493
vt 0.7833355 0.9650493
vt 0.7833355 0.9650493
vt 0.7833355 0.9650493
vt 0.34447944 0.8450496
vt 0.34447944 0.8450496
vt 0.34447944 0.8450496
vt 0.34447944 0.8450496
vt 0.34447944 0.8450496
vt 0.34447944 0.8450496
vt 0.34447944 0.8450496
vt 0.34447944 0.8450496
vt 0.34447944 0.8450496
vt 0.34447944 0.8450496
vt 0.34447944 0.8450496
vt 0.34447944 0.8450496
vt 0.34447944 0.8450496
vt 0.34447944 0.8450496
vt 0.34447944 0.8450496
vt 0.34447944 0.8450496
vt 0.34447944 0.8450496
vt 0.34447944 0.8450496
vt 0.34447944 0.8450496
vt 0.34447944 0.8450496
vt 0.34447944 0.8450496
vt 0.34447944 0.8450496
vt 0.34447944 0.8450496
vt 0.34447944 0.8450496
vt 0.34447944 0.8450496
vt 0.34447944 0.8450496
vt 0.34447944 0.8450496
vt 0.34447944 0.8450496
vt 0.34447944 0.8450496
vt 0.34447944 0.8450496
vt 0.34447944 0.8450496
vt 0.34447944 0.8450496
vt 0.34447944 0.8450496
vt 0.34447944 0.8450496
vt 0.34447944 0.8450496
vt 0.34447944 0.8450496
vt 0.34447944 0.8450496
vt 0.34447944 0.8450496
vt 0.34447944 0.8450496
vt 0.34447944 0.8450496
vt 0.34447944 0.8450496
vt 0.34447944 0.8450496
vt 0.34447944 0.8450496
vt 0.34447944 0.8450496
vt 0.34447944 0.8450496
vt 0.34447944 0.8450496
vt 0.34447944 0.8450496
vt 0.34447944 0.8450496
vn -0.48491418 0.73519266 -0.47365597
vn -0.48491418 0.73519266 -0.47365597
vn -0.48491418 0.73519266 -0.47365597
vn -0.48491418 0.73519266 -0.47365597
vn -0.8603318 -0.20335132 0.46741572
vn -0.73519266 -0.20335132 -0.64663744
vn -0.8603318 -0.3284905 -0.38977328
vn -0.35977507 -0.8916169 -0.27492043
vn 0.48491448 -0.45362967 -0.74771523
vn -0.10949671 0.29720545 -0.9485143
vn -0.5474838 0.26592064 -0.7934404
vn 0.57876885 -0.48491448 -0.6556558
vn -0.48491418 0.73519266 -0.47365597
vn -0.48491418 0.73519266 -0.47365597
vn -0.48491418 0.73519266 -0.47365597
vn -0.48491418 0.73519266 -0.47365597
vn -0.23463583 0.015642285 -0.9719575
vn -0.10949671 0.29720545 -0.9485143
vn -0.5474838 0.26592064 -0.7934404
vn -0.73519266 -0.20335132 -0.64663744
vn -0.8603318 -0.3284905 -0.38977328
vn -0.8603318 -0.20335132 0.46741572
vn 0.10949689 -0.98547125 0.12983394
vn -0.35977507 -0.8916169 -0.27492043
vn 0.48491448 -0.45362967 -0.74771523
vn 0.7039081 -0.7039081 -0.09500945
vn 0.57876885 -0.48491448 -0.6556558
vn -0.8603318 -0.046927333 0.50756973
vn 0.015642524 0.29720545 0.9546854
vn -0.8603318 -0.3284905 -0.38977328
vn 0.9728062 0.23162034 -0
vn -0.5474838 0.26592064 -0.7934404
vn 0.26592088 -0.2972057 0.9170359
vn 0.8916169 -0.3284905 0.31163016
vn 0.64133847 0.73519266 -0.21949193
vn -0.23463583 0.73519266 0.6359542
vn -0.9229014 0.35977507 -0.1371675
vn -0.23463583 0.015642285 -0.9719575
vn -0.046927094 0.32849026 -0.94334084
vn -0.6413382 0.73519266 0.2194926
vn 0.23463613 0.70390785 -0.6704175
vn -0.23463583 -0.57876885 0.78100747
vn -0.9541862 0.29720545 0.03460634
vn -0.73519266 0.5787686 0.35287198
vn -0.985471 0.046927094 -0.16323206
vn -0.015642285 -0.2972057 0.95468533
vn -0.26592064 -0.82904726 0.4919013
vn -0.14078152 -0.98547125 0.09501055
vn -0.8603318 -0.07821214 -0.5036984
vn -0.6100534 -0.07821214 -0.7884907
vn 0.10949689 -0.98547125 -0.12983394
vn 0.26592088 -0.046927333 0.96285194
vn -0.4536295 0.82904696 0.3269578
vn 0.95418644 -0.2972057 -0.03459827
vn -0.26592064 0.046927094 -0.96285206
vn 0.45362967 -0.82904726 -0.3269568
vn 0.015642524 0.29720545 -0.9546854
vn 0.7351929 -0.57876885 -0.35287112
vn 0.23463613 0.5787686 -0.7810075
vn 0.98547125 -0.046927333 0.16323072
vn 0.26592088 0.82904696 -0.4919016
vn 0.8603321 0.0782119 0.503698
vn 0.61005366 0.0782119 0.7884906
vn 0.1407817 0.985471 -0.09501243
vn -0.10949671 0.985471 0.12983577
vn -0.14078152 -0.98547125 0.09501055
vn -0.985471 0.046927094 -0.16323206
vn -0.26592064 -0.82904726 0.4919013
vn -0.23463583 -0.57876885 0.78100747
vn -0.8603318 -0.07821214 -0.5036984
vn 0.1407817 -0.98547125 -0.095010236
vn -0.5787686 -0.07821214 -0.81173253
vn -0.9541862 0.29720545 0.03460634
vn -0.046927094 -0.2972057 0.9536596
vn 0.45362967 -0.82904726 -0.3269568
vn -0.26592064 0.046927094 -0.96285206
vn -0.76647747 0.5787686 0.27845863
vn 0.26592088 -0.046927333 0.96285194
vn 0.76647764 -0.57876885 -0.27845755
vn 0.046927333 0.29720545 -0.95365965
vn -0.4536295 0.82904696 0.3269578
vn 0.57876885 0.0782119 0.8117324
vn 0.95418644 -0.2972057 -0.03459827
vn 0.23463613 0.5787686 -0.7810075
vn -0.14078152 0.985471 0.09501275
vn 0.8603321 0.0782119 0.503698
vn 0.98547125 -0.046927333 0.16323072
vn 0.1407817 0.985471 -0.09501243
vn 0.26592088 0.82904696 -0.4919016
g pizzaSlice_0
f 3/3/3 2/2/2 1/1/1
f 4/4/4 3/3/3 1/1/1
f 7/7/7 6/6/6 5/5/5
f 6/6/6 8/8/8 5/5/5
f 9/9/9 8/8/8 6/6/6
f 10/10/10 9/9/9 6/6/6
f 10/10/10 11/11/11 9/9/9
f 11/11/11 12/12/12 9/9/9
f 15/15/15 14/14/14 13/13/13
f 16/16/16 15/15/15 13/13/13
f 19/19/19 18/18/18 17/17/17
f 17/17/17 18/18/18 20/20/20
f 21/21/21 17/17/17 20/20/20
f 24/24/24 23/23/23 22/22/22
f 23/23/23 24/24/24 25/25/25
f 26/26/26 23/23/23 25/25/25
f 25/25/25 27/27/27 26/26/26
f 23/23/23 28/28/28 22/22/22
f 26/26/26 28/28/28 23/23/23
f 22/22/22 28/28/28 29/29/29
f 30/30/30 22/22/22 29/29/29
f 27/27/27 31/31/31 26/26/26
f 27/27/27 32/32/32 31/31/31
f 28/28/28 26/26/26 33/33/33
f 28/28/28 33/33/33 29/29/29
f 31/31/31 29/29/29 33/33/33
f 26/26/26 34/34/34 33/33/33
f 31/31/31 34/34/34 26/26/26
f 34/34/34 31/31/31 33/33/33
f 32/32/32 35/35/35 31/31/31
f 29/29/29 31/31/31 35/35/35
f 36/36/36 30/30/30 29/29/29
f 36/36/36 29/29/29 35/35/35
f 37/37/37 30/30/30 36/36/36
f 38/38/38 30/30/30 37/37/37
f 32/32/32 38/38/38 39/39/39
f 32/32/32 39/39/39 35/35/35
f 37/37/37 39/39/39 38/38/38
f 36/36/36 35/35/35 40/40/40
f 40/40/40 37/37/37 36/36/36
f 41/41/41 39/39/39 37/37/37
f 39/39/39 41/41/41 35/35/35
f 35/35/35 41/41/41 40/40/40
f 40/40/40 41/41/41 37/37/37
f 44/44/44 43/43/43 42/42/42
f 43/43/43 44/44/44 45/45/45
f 43/43/43 45/45/45 42/42/42
f 46/46/46 44/44/44 42/42/42
f 45/45/45 47/47/47 42/42/42
f 47/47/47 48/48/48 42/42/42
f 42/42/42 48/48/48 46/46/46
f 45/45/45 49/49/49 47/47/47
f 49/49/49 48/48/48 47/47/47
f 49/49/49 45/45/45 50/50/50
f 45/45/45 44/44/44 50/50/50
f 48/48/48 49/49/49 51/51/51
f 49/49/49 50/50/50 51/51/51
f 46/46/46 48/48/48 52/52/52
f 53/53/53 44/44/44 46/46/46
f 52/52/52 53/53/53 46/46/46
f 51/51/51 54/54/54 48/48/48
f 48/48/48 54/54/54 52/52/52
f 50/50/50 55/55/55 51/51/51
f 55/55/55 56/56/56 51/51/51
f 56/56/56 54/54/54 51/51/51
f 55/55/55 50/50/50 57/57/57
f 55/55/55 57/57/57 56/56/56
f 50/50/50 44/44/44 57/57/57
f 58/58/58 54/54/54 56/56/56
f 57/57/57 58/58/58 56/56/56
f 59/59/59 54/54/54 58/58/58
f 57/57/57 59/59/59 58/58/58
f 54/54/54 59/59/59 60/60/60
f 60/60/60 52/52/52 54/54/54
f 59/59/59 57/57/57 61/61/61
f 59/59/59 61/61/61 60/60/60
f 44/44/44 61/61/61 57/57/57
f 62/62/62 52/52/52 60/60/60
f 60/60/60 61/61/61 62/62/62
f 53/53/53 52/52/52 63/63/63
f 63/63/63 52/52/52 62/62/62
f 61/61/61 64/64/64 62/62/62
f 61/61/61 44/44/44 64/64/64
f 62/62/62 64/64/64 63/63/63
f 65/65/65 53/53/53 63/63/63
f 53/53/53 65/65/65 44/44/44
f 64/64/64 65/65/65 63/63/63
f 64/64/64 44/44/44 65/65/65
f 68/68/68 67/67/67 66/66/66
f 68/68/68 66/66/66 69/69/69
f 67/67/67 68/68/68 69/69/69
f 67/67/67 70/70/70 66/66/66
f 66/66/66 70/70/70 71/71/71
f 71/71/71 69/69/69 66/66/66
f 70/70/70 67/67/67 72/72/72
f 70/70/70 72/72/72 71/71/71
f 73/73/73 67/67/67 69/69/69
f 73/73/73 72/72/72 67/67/67
f 74/74/74 69/69/69 71/71/71
f 73/73/73 69/69/69 74/74/74
f 71/71/71 72/72/72 75/75/75
f 75/75/75 74/74/74 71/71/71
f 72/72/72 73/73/73 76/76/76
f 72/72/72 76/76/76 75/75/75
f 77/77/77 73/73/73 74/74/74
f 73/73/73 77/77/77 76/76/76
f 74/74/74 75/75/75 78/78/78
f 77/77/77 74/74/74 78/78/78
f 75/75/75 76/76/76 79/79/79
f 75/75/75 79/79/79 78/78/78
f 76/76/76 77/77/77 80/80/80
f 76/76/76 80/80/80 79/79/79
f 81/81/81 77/77/77 78/78/78
f 77/77/77 81/81/81 80/80/80
f 78/78/78 79/79/79 82/82/82
f 81/81/81 78/78/78 82/82/82
f 79/79/79 80/80/80 83/83/83
f 79/79/79 83/83/83 82/82/82
f 80/80/80 81/81/81 84/84/84
f 80/80/80 84/84/84 83/83/83
f 85/85/85 81/81/81 82/82/82
f 81/81/81 85/85/85 84/84/84
f 82/82/82 83/83/83 86/86/86
f 85/85/85 82/82/82 86/86/86
f 83/83/83 84/84/84 87/87/87
f 87/87/87 86/86/86 83/83/83
f 88/88/88 85/85/85 86/86/86
f 88/88/88 86/86/86 87/87/87
f 84/84/84 89/89/89 87/87/87
f 84/84/84 85/85/85 89/89/89
f 89/89/89 88/88/88 87/87/87
f 88/88/88 89/89/89 85/85/85
