g placeholderCube_Yellow
v -2 0 2
v -2 0 -2
v -2 4 -2
v -2 4 2
v -2 0 -2
v 2 0 -2
v 2 4 -2
v -2 4 -2
v 2 0 -2
v 2 0 2
v 2 4 2
v 2 4 -2
v 2 0 2
v -2 0 2
v -2 4 2
v 2 4 2
v -2 0 -2
v -2 0 2
v 2 0 2
v 2 0 -2
v 2 4 -2
v 2 4 2
v -2 4 2
v -2 4 -2
vt 0.09127587 0.9705385
vt 0.09127587 0.9705385
vt 0.09127587 0.9705385
vt 0.09127587 0.9705385
vt 0.09127587 0.9705385
vt 0.09127587 0.9705385
vt 0.09127587 0.9705385
vt 0.09127587 0.9705385
vt 0.09127587 0.9705385
vt 0.09127587 0.9705385
vt 0.09127587 0.9705385
vt 0.09127587 0.9705385
vt 0.09127587 0.9705385
vt 0.09127587 0.9705385
vt 0.09127587 0.9705385
vt 0.09127587 0.9705385
vt 0.09127587 0.9705385
vt 0.09127587 0.9705385
vt 0.09127587 0.9705385
vt 0.09127587 0.9705385
vt 0.09127587 0.9705385
vt 0.09127587 0.9705385
vt 0.09127587 0.9705385
vt 0.09127587 0.9705385
vn -0.999874 0.015871048 -0.00034391563
vn -0.999874 0.015871048 -0.00034391563
vn -0.999874 0.015871048 -0.00034391563
vn -0.999874 0.015871048 -0.00034391563
vn -0.015871048 0.015871048 -0.99974805
vn -0.015871048 0.015871048 -0.99974805
vn -0.015871048 0.015871048 -0.99974805
vn -0.015871048 0.015871048 -0.99974805
vn 0.999874 0.015871048 -0.00034391563
vn 0.999874 0.015871048 -0.00034391563
vn 0.999874 0.015871048 -0.00034391563
vn 0.999874 0.015871048 -0.00034391563
vn -0.015871048 0.015871048 0.99974805
vn -0.015871048 0.015871048 0.99974805
vn -0.015871048 0.015871048 0.99974805
vn -0.015871048 0.015871048 0.99974805
vn -0.015871048 -0.999874 -0.00034526698
vn -0.015871048 -0.999874 -0.00034526698
vn -0.015871048 -0.999874 -0.00034526698
vn -0.015871048 -0.999874 -0.00034526698
vn -0.015871048 0.999874 -0.00034526698
vn -0.015871048 0.999874 -0.00034526698
vn -0.015871048 0.999874 -0.00034526698
vn -0.015871048 0.999874 -0.00034526698
g placeholderCube_Yellow_0
f 3/3/3 2/2/2 1/1/1
f 4/4/4 3/3/3 1/1/1
f 7/7/7 6/6/6 5/5/5
f 8/8/8 7/7/7 5/5/5
f 11/11/11 10/10/10 9/9/9
f 12/12/12 11/11/11 9/9/9
f 15/15/15 14/14/14 13/13/13
f 16/16/16 15/15/15 13/13/13
f 19/19/19 18/18/18 17/17/17
f 20/20/20 19/19/19 17/17/17
f 23/23/23 22/22/22 21/21/21
f 24/24/24 23/23/23 21/21/21
