g placeholder_Sphere_Magenta
v 2.0763657E-10 -2 6.1460907E-09
v -0.5091683 -1.5548296 1.4903892
v 1.3330466 -1.5548291 0.9211031
v 2.2679305 -0.35226846 1.5670854
v 2.6661007 -0.5863105 6.1460907E-09
v 1.3330466 -1.5548291 0.9211031
v 2.0763657E-10 -2 6.1460907E-09
v -1.6477425 -1.5548217 6.1460907E-09
v -0.5091683 -1.5548296 1.4903892
v 2.0763657E-10 -2 6.1460907E-09
v -0.5091683 -1.5548296 -1.4903892
v -1.6477425 -1.5548217 6.1460907E-09
v 2.0763657E-10 -2 6.1460907E-09
v 1.3330466 -1.5548291 -0.9211031
v -0.5091683 -1.5548296 -1.4903892
v 2.2679305 -0.35226846 1.5670854
v 2.9808064 0.98080635 0.9211068
v 2.6661007 -0.5863105 6.1460907E-09
v -0.8662555 -0.35226953 2.5356207
v 2.0763657E-10 0.98080635 2.9808064
v 0.8238836 -0.58631575 2.411507
v -2.803311 -0.35225666 6.1460907E-09
v -2.9808064 0.98080635 0.9211068
v -2.1569235 -0.58631146 1.4903941
v -0.8662555 -0.35226953 -2.5356207
v -1.842238 0.98080635 -2.4115224
v -2.1569235 -0.58631146 -1.4903941
v 2.2679305 -0.35226846 -1.5670854
v 1.842238 0.98080635 -2.4115224
v 0.8238836 -0.58631575 -2.411507
v 2.2679305 -0.35226846 1.5670854
v 1.842238 0.98080635 2.4115224
v 2.9808064 0.98080635 0.9211068
v -0.8662555 -0.35226953 2.5356207
v -1.842238 0.98080635 2.4115224
v 2.0763657E-10 0.98080635 2.9808064
v -2.803311 -0.35225666 6.1460907E-09
v -2.9808064 0.98080635 -0.9211068
v -2.9808064 0.98080635 0.9211068
v -0.8662555 -0.35226953 -2.5356207
v 2.0763657E-10 0.98080635 -2.9808064
v -1.842238 0.98080635 -2.4115224
v 2.2679305 -0.35226846 -1.5670854
v 2.9808064 0.98080635 -0.9211068
v 1.842238 0.98080635 -2.4115224
v 0.8662555 2.3138824 2.5356207
v 0.5091683 3.5164423 1.4903892
v 2.1569235 2.547924 1.4903941
v -2.2679305 2.3138812 1.5670854
v -1.3330466 3.5164418 0.9211031
v -0.8238836 2.5479283 2.411507
v -2.2679305 2.3138812 -1.5670854
v -1.3330466 3.5164418 -0.9211031
v -2.6661007 2.547923 6.1460907E-09
v 0.8662555 2.3138824 -2.5356207
v 0.5091683 3.5164423 -1.4903892
v -0.8238836 2.5479283 -2.411507
v 2.803311 2.3138695 6.1460907E-09
v 1.6477425 3.5164347 6.1460907E-09
v 2.1569235 2.547924 -1.4903941
v 1.6477425 3.5164347 6.1460907E-09
v 2.0763657E-10 3.9616127 6.1460907E-09
v 0.5091683 3.5164423 -1.4903892
v 1.6477425 3.5164347 6.1460907E-09
v 0.5091683 3.5164423 -1.4903892
v 2.1569235 2.547924 -1.4903941
v 2.1569235 2.547924 -1.4903941
v 0.5091683 3.5164423 -1.4903892
v 0.8662555 2.3138824 -2.5356207
v 0.5091683 3.5164423 -1.4903892
v 2.0763657E-10 3.9616127 6.1460907E-09
v -1.3330466 3.5164418 -0.9211031
v 0.5091683 3.5164423 -1.4903892
v -1.3330466 3.5164418 -0.9211031
v -0.8238836 2.5479283 -2.411507
v -0.8238836 2.5479283 -2.411507
v -1.3330466 3.5164418 -0.9211031
v -2.2679305 2.3138812 -1.5670854
v -1.3330466 3.5164418 -0.9211031
v 2.0763657E-10 3.9616127 6.1460907E-09
v -1.3330466 3.5164418 0.9211031
v -1.3330466 3.5164418 -0.9211031
v -1.3330466 3.5164418 0.9211031
v -2.6661007 2.547923 6.1460907E-09
v -2.6661007 2.547923 6.1460907E-09
v -1.3330466 3.5164418 0.9211031
v -2.2679305 2.3138812 1.5670854
v -1.3330466 3.5164418 0.9211031
v 2.0763657E-10 3.9616127 6.1460907E-09
v 0.5091683 3.5164423 1.4903892
v -1.3330466 3.5164418 0.9211031
v 0.5091683 3.5164423 1.4903892
v -0.8238836 2.5479283 2.411507
v -0.8238836 2.5479283 2.411507
v 0.5091683 3.5164423 1.4903892
v 0.8662555 2.3138824 2.5356207
v 0.5091683 3.5164423 1.4903892
v 2.0763657E-10 3.9616127 6.1460907E-09
v 1.6477425 3.5164347 6.1460907E-09
v 0.5091683 3.5164423 1.4903892
v 1.6477425 3.5164347 6.1460907E-09
v 2.1569235 2.547924 1.4903941
v 2.1569235 2.547924 1.4903941
v 1.6477425 3.5164347 6.1460907E-09
v 2.803311 2.3138695 6.1460907E-09
v 2.9808064 0.98080635 -0.9211068
v 2.803311 2.3138695 6.1460907E-09
v 2.1569235 2.547924 -1.4903941
v 2.9808064 0.98080635 -0.9211068
v 2.1569235 2.547924 -1.4903941
v 1.842238 0.98080635 -2.4115224
v 1.842238 0.98080635 -2.4115224
v 2.1569235 2.547924 -1.4903941
v 0.8662555 2.3138824 -2.5356207
v 2.0763657E-10 0.98080635 -2.9808064
v 0.8662555 2.3138824 -2.5356207
v -0.8238836 2.5479283 -2.411507
v 2.0763657E-10 0.98080635 -2.9808064
v -0.8238836 2.5479283 -2.411507
v -1.842238 0.98080635 -2.4115224
v -1.842238 0.98080635 -2.4115224
v -0.8238836 2.5479283 -2.411507
v -2.2679305 2.3138812 -1.5670854
v -2.9808064 0.98080635 -0.9211068
v -2.2679305 2.3138812 -1.5670854
v -2.6661007 2.547923 6.1460907E-09
v -2.9808064 0.98080635 -0.9211068
v -2.6661007 2.547923 6.1460907E-09
v -2.9808064 0.98080635 0.9211068
v -2.9808064 0.98080635 0.9211068
v -2.6661007 2.547923 6.1460907E-09
v -2.2679305 2.3138812 1.5670854
v -1.842238 0.98080635 2.4115224
v -2.2679305 2.3138812 1.5670854
v -0.8238836 2.5479283 2.411507
v -1.842238 0.98080635 2.4115224
v -0.8238836 2.5479283 2.411507
v 2.0763657E-10 0.98080635 2.9808064
v 2.0763657E-10 0.98080635 2.9808064
v -0.8238836 2.5479283 2.411507
v 0.8662555 2.3138824 2.5356207
v 1.842238 0.98080635 2.4115224
v 0.8662555 2.3138824 2.5356207
v 2.1569235 2.547924 1.4903941
v 1.842238 0.98080635 2.4115224
v 2.1569235 2.547924 1.4903941
v 2.9808064 0.98080635 0.9211068
v 2.9808064 0.98080635 0.9211068
v 2.1569235 2.547924 1.4903941
v 2.803311 2.3138695 6.1460907E-09
v 1.842238 0.98080635 -2.4115224
v 0.8662555 2.3138824 -2.5356207
v 2.0763657E-10 0.98080635 -2.9808064
v 1.842238 0.98080635 -2.4115224
v 2.0763657E-10 0.98080635 -2.9808064
v 0.8238836 -0.58631575 -2.411507
v 0.8238836 -0.58631575 -2.411507
v 2.0763657E-10 0.98080635 -2.9808064
v -0.8662555 -0.35226953 -2.5356207
v -1.842238 0.98080635 -2.4115224
v -2.2679305 2.3138812 -1.5670854
v -2.9808064 0.98080635 -0.9211068
v -1.842238 0.98080635 -2.4115224
v -2.9808064 0.98080635 -0.9211068
v -2.1569235 -0.58631146 -1.4903941
v -2.1569235 -0.58631146 -1.4903941
v -2.9808064 0.98080635 -0.9211068
v -2.803311 -0.35225666 6.1460907E-09
v -2.9808064 0.98080635 0.9211068
v -2.2679305 2.3138812 1.5670854
v -1.842238 0.98080635 2.4115224
v -2.9808064 0.98080635 0.9211068
v -1.842238 0.98080635 2.4115224
v -2.1569235 -0.58631146 1.4903941
v -2.1569235 -0.58631146 1.4903941
v -1.842238 0.98080635 2.4115224
v -0.8662555 -0.35226953 2.5356207
v 2.0763657E-10 0.98080635 2.9808064
v 0.8662555 2.3138824 2.5356207
v 1.842238 0.98080635 2.4115224
v 2.0763657E-10 0.98080635 2.9808064
v 1.842238 0.98080635 2.4115224
v 0.8238836 -0.58631575 2.411507
v 0.8238836 -0.58631575 2.411507
v 1.842238 0.98080635 2.4115224
v 2.2679305 -0.35226846 1.5670854
v 2.9808064 0.98080635 0.9211068
v 2.803311 2.3138695 6.1460907E-09
v 2.9808064 0.98080635 -0.9211068
v 2.9808064 0.98080635 0.9211068
v 2.9808064 0.98080635 -0.9211068
v 2.6661007 -0.5863105 6.1460907E-09
v 2.6661007 -0.5863105 6.1460907E-09
v 2.9808064 0.98080635 -0.9211068
v 2.2679305 -0.35226846 -1.5670854
v 1.3330466 -1.5548291 -0.9211031
v 2.2679305 -0.35226846 -1.5670854
v 0.8238836 -0.58631575 -2.411507
v 1.3330466 -1.5548291 -0.9211031
v 0.8238836 -0.58631575 -2.411507
v -0.5091683 -1.5548296 -1.4903892
v -0.5091683 -1.5548296 -1.4903892
v 0.8238836 -0.58631575 -2.411507
v -0.8662555 -0.35226953 -2.5356207
v -0.5091683 -1.5548296 -1.4903892
v -0.8662555 -0.35226953 -2.5356207
v -2.1569235 -0.58631146 -1.4903941
v -0.5091683 -1.5548296 -1.4903892
v -2.1569235 -0.58631146 -1.4903941
v -1.6477425 -1.5548217 6.1460907E-09
v -1.6477425 -1.5548217 6.1460907E-09
v -2.1569235 -0.58631146 -1.4903941
v -2.803311 -0.35225666 6.1460907E-09
v -1.6477425 -1.5548217 6.1460907E-09
v -2.803311 -0.35225666 6.1460907E-09
v -2.1569235 -0.58631146 1.4903941
v -1.6477425 -1.5548217 6.1460907E-09
v -2.1569235 -0.58631146 1.4903941
v -0.5091683 -1.5548296 1.4903892
v -0.5091683 -1.5548296 1.4903892
v -2.1569235 -0.58631146 1.4903941
v -0.8662555 -0.35226953 2.5356207
v 2.6661007 -0.5863105 6.1460907E-09
v 2.2679305 -0.35226846 -1.5670854
v 1.3330466 -1.5548291 -0.9211031
v 2.6661007 -0.5863105 6.1460907E-09
v 1.3330466 -1.5548291 -0.9211031
v 1.3330466 -1.5548291 0.9211031
v 1.3330466 -1.5548291 0.9211031
v 1.3330466 -1.5548291 -0.9211031
v 2.0763657E-10 -2 6.1460907E-09
v -0.5091683 -1.5548296 1.4903892
v -0.8662555 -0.35226953 2.5356207
v 0.8238836 -0.58631575 2.411507
v -0.5091683 -1.5548296 1.4903892
v 0.8238836 -0.58631575 2.411507
v 1.3330466 -1.5548291 0.9211031
v 1.3330466 -1.5548291 0.9211031
v 0.8238836 -0.58631575 2.411507
v 2.2679305 -0.35226846 1.5670854
vt 0.21797878 0.7817757
vt 0.21797878 0.7817757
vt 0.21797878 0.7817757
vt 0.21797878 0.7817757
vt 0.21797878 0.7817757
vt 0.21797878 0.7817757
vt 0.21797878 0.7817757
vt 0.21797878 0.7817757
vt 0.21797878 0.7817757
vt 0.21797878 0.7817757
vt 0.21797878 0.7817757
vt 0.21797878 0.7817757
vt 0.21797878 0.7817757
vt 0.21797878 0.7817757
vt 0.21797878 0.7817757
vt 0.21797878 0.7817757
vt 0.21797878 0.7817757
vt 0.21797878 0.7817757
vt 0.21797878 0.7817757
vt 0.21797878 0.7817757
vt 0.21797878 0.7817757
vt 0.21797878 0.7817757
vt 0.21797878 0.7817757
vt 0.21797878 0.7817757
vt 0.21797878 0.7817757
vt 0.21797878 0.7817757
vt 0.21797878 0.7817757
vt 0.21797878 0.7817757
vt 0.21797878 0.7817757
vt 0.21797878 0.7817757
vt 0.21797878 0.7817757
vt 0.21797878 0.7817757
vt 0.21797878 0.7817757
vt 0.21797878 0.7817757
vt 0.21797878 0.7817757
vt 0.21797878 0.7817757
vt 0.21797878 0.7817757
vt 0.21797878 0.7817757
vt 0.21797878 0.7817757
vt 0.21797878 0.7817757
vt 0.21797878 0.7817757
vt 0.21797878 0.7817757
vt 0.21797878 0.7817757
vt 0.21797878 0.7817757
vt 0.21797878 0.7817757
vt 0.21797878 0.7817757
vt 0.21797878 0.7817757
vt 0.21797878 0.7817757
vt 0.21797878 0.7817757
vt 0.21797878 0.7817757
vt 0.21797878 0.7817757
vt 0.21797878 0.7817757
vt 0.21797878 0.7817757
vt 0.21797878 0.7817757
vt 0.21797878 0.7817757
vt 0.21797878 0.7817757
vt 0.21797878 0.7817757
vt 0.21797878 0.7817757
vt 0.21797878 0.7817757
vt 0.21797878 0.7817757
vt 0.21797878 0.7817757
vt 0.21797878 0.7817757
vt 0.21797878 0.7817757
vt 0.21797878 0.7817757
vt 0.21797878 0.7817757
vt 0.21797878 0.7817757
vt 0.21797878 0.7817757
vt 0.21797878 0.7817757
vt 0.21797878 0.7817757
vt 0.21797878 0.7817757
vt 0.21797878 0.7817757
vt 0.21797878 0.7817757
vt 0.21797878 0.7817757
vt 0.21797878 0.7817757
vt 0.21797878 0.7817757
vt 0.21797878 0.7817757
vt 0.21797878 0.7817757
vt 0.21797878 0.7817757
vt 0.21797878 0.7817757
vt 0.21797878 0.7817757
vt 0.21797878 0.7817757
vt 0.21797878 0.7817757
vt 0.21797878 0.7817757
vt 0.21797878 0.7817757
vt 0.21797878 0.7817757
vt 0.21797878 0.7817757
vt 0.21797878 0.7817757
vt 0.21797878 0.7817757
vt 0.21797878 0.7817757
vt 0.21797878 0.7817757
vt 0.21797878 0.7817757
vt 0.21797878 0.7817757
vt 0.21797878 0.7817757
vt 0.21797878 0.7817757
vt 0.21797878 0.7817757
vt 0.21797878 0.7817757
vt 0.21797878 0.7817757
vt 0.21797878 0.7817757
vt 0.21797878 0.7817757
vt 0.21797878 0.7817757
vt 0.21797878 0.7817757
vt 0.21797878 0.7817757
vt 0.21797878 0.7817757
vt 0.21797878 0.7817757
vt 0.21797878 0.7817757
vt 0.21797878 0.7817757
vt 0.21797878 0.7817757
vt 0.21797878 0.7817757
vt 0.21797878 0.7817757
vt 0.21797878 0.7817757
vt 0.21797878 0.7817757
vt 0.21797878 0.7817757
vt 0.21797878 0.7817757
vt 0.21797878 0.7817757
vt 0.21797878 0.7817757
vt 0.21797878 0.7817757
vt 0.21797878 0.7817757
vt 0.21797878 0.7817757
vt 0.21797878 0.7817757
vt 0.21797878 0.7817757
vt 0.21797878 0.7817757
vt 0.21797878 0.7817757
vt 0.21797878 0.7817757
vt 0.21797878 0.7817757
vt 0.21797878 0.7817757
vt 0.21797878 0.7817757
vt 0.21797878 0.7817757
vt 0.21797878 0.7817757
vt 0.21797878 0.7817757
vt 0.21797878 0.7817757
vt 0.21797878 0.7817757
vt 0.21797878 0.7817757
vt 0.21797878 0.7817757
vt 0.21797878 0.7817757
vt 0.21797878 0.7817757
vt 0.21797878 0.7817757
vt 0.21797878 0.7817757
vt 0.21797878 0.7817757
vt 0.21797878 0.7817757
vt 0.21797878 0.7817757
vt 0.21797878 0.7817757
vt 0.21797878 0.7817757
vt 0.21797878 0.7817757
vt 0.21797878 0.7817757
vt 0.21797878 0.7817757
vt 0.21797878 0.7817757
vt 0.21797878 0.7817757
vt 0.21797878 0.7817757
vt 0.21797878 0.7817757
vt 0.21797878 0.7817757
vt 0.21797878 0.7817757
vt 0.21797878 0.7817757
vt 0.21797878 0.7817757
vt 0.21797878 0.7817757
vt 0.21797878 0.7817757
vt 0.21797878 0.7817757
vt 0.21797878 0.7817757
vt 0.21797878 0.7817757
vt 0.21797878 0.7817757
vt 0.21797878 0.7817757
vt 0.21797878 0.7817757
vt 0.21797878 0.7817757
vt 0.21797878 0.7817757
vt 0.21797878 0.7817757
vt 0.21797878 0.7817757
vt 0.21797878 0.7817757
vt 0.21797878 0.7817757
vt 0.21797878 0.7817757
vt 0.21797878 0.7817757
vt 0.21797878 0.7817757
vt 0.21797878 0.7817757
vt 0.21797878 0.7817757
vt 0.21797878 0.7817757
vt 0.21797878 0.7817757
vt 0.21797878 0.7817757
vt 0.21797878 0.7817757
vt 0.21797878 0.7817757
vt 0.21797878 0.7817757
vt 0.21797878 0.7817757
vt 0.21797878 0.7817757
vt 0.21797878 0.7817757
vt 0.21797878 0.7817757
vt 0.21797878 0.7817757
vt 0.21797878 0.7817757
vt 0.21797878 0.7817757
vt 0.21797878 0.7817757
vt 0.21797878 0.7817757
vt 0.21797878 0.7817757
vt 0.21797878 0.7817757
vt 0.21797878 0.7817757
vt 0.21797878 0.7817757
vt 0.21797878 0.7817757
vt 0.21797878 0.7817757
vt 0.21797878 0.7817757
vt 0.21797878 0.7817757
vt 0.21797878 0.7817757
vt 0.21797878 0.7817757
vt 0.21797878 0.7817757
vt 0.21797878 0.7817757
vt 0.21797878 0.7817757
vt 0.21797878 0.7817757
vt 0.21797878 0.7817757
vt 0.21797878 0.7817757
vt 0.21797878 0.7817757
vt 0.21797878 0.7817757
vt 0.21797878 0.7817757
vt 0.21797878 0.7817757
vt 0.21797878 0.7817757
vt 0.21797878 0.7817757
vt 0.21797878 0.7817757
vt 0.21797878 0.7817757
vt 0.21797878 0.7817757
vt 0.21797878 0.7817757
vt 0.21797878 0.7817757
vt 0.21797878 0.7817757
vt 0.21797878 0.7817757
vt 0.21797878 0.7817757
vt 0.21797878 0.7817757
vt 0.21797878 0.7817757
vt 0.21797878 0.7817757
vt 0.21797878 0.7817757
vt 0.21797878 0.7817757
vt 0.21797878 0.7817757
vt 0.21797878 0.7817757
vt 0.21797878 0.7817757
vt 0.21797878 0.7817757
vt 0.21797878 0.7817757
vt 0.21797878 0.7817757
vt 0.21797878 0.7817757
vt 0.21797878 0.7817757
vt 0.21797878 0.7817757
vt 0.21797878 0.7817757
vt 0.21797878 0.7817757
vt 0.21797878 0.7817757
vt 0.21797878 0.7817757
vt 0.21797878 0.7817757
vt 0.21797878 0.7817757
vt 0.21797878 0.7817757
vt 0.21797878 0.7817757
vt 0.21797878 0.7817757
vn 0.097419 -0.943996 0.31524768
vn 0.097419 -0.943996 0.31524768
vn 0.097419 -0.943996 0.31524768
vn 0.6821131 -0.6777551 0.2745355
vn 0.6821131 -0.6777551 0.2745355
vn 0.6821131 -0.6777551 0.2745355
vn -0.25579506 -0.9467759 0.19540799
vn -0.25579506 -0.9467759 0.19540799
vn -0.25579506 -0.9467759 0.19540799
vn -0.25579506 -0.9467759 -0.19540799
vn -0.25579506 -0.9467759 -0.19540799
vn -0.25579506 -0.9467759 -0.19540799
vn 0.097419 -0.943996 -0.31524768
vn 0.097419 -0.943996 -0.31524768
vn 0.097419 -0.943996 -0.31524768
vn 0.89646494 -0.34411457 0.27916986
vn 0.89646494 -0.34411457 0.27916986
vn 0.89646494 -0.34411457 0.27916986
vn 0.023536231 -0.3303963 0.94354874
vn 0.023536231 -0.3303963 0.94354874
vn 0.023536231 -0.3303963 0.94354874
vn -0.88006705 -0.34362665 0.32772356
vn -0.88006705 -0.34362665 0.32772356
vn -0.88006705 -0.34362665 0.32772356
vn -0.55530345 -0.3357223 -0.7608736
vn -0.55530345 -0.3357223 -0.7608736
vn -0.55530345 -0.3357223 -0.7608736
vn 0.5154946 -0.3349887 -0.7887001
vn 0.5154946 -0.3349887 -0.7887001
vn 0.5154946 -0.3349887 -0.7887001
vn 0.78794646 -0.12967904 0.6019333
vn 0.78794646 -0.12967904 0.6019333
vn 0.78794646 -0.12967904 0.6019333
vn -0.29288197 -0.12619613 0.9477841
vn -0.29288197 -0.12619613 0.9477841
vn -0.29288197 -0.12619613 0.9477841
vn -0.9912519 -0.13198365 0
vn -0.9912519 -0.13198365 0
vn -0.9912519 -0.13198365 0
vn -0.29288197 -0.12619613 -0.9477841
vn -0.29288197 -0.12619613 -0.9477841
vn -0.29288197 -0.12619613 -0.9477841
vn 0.78794646 -0.12967904 -0.6019333
vn 0.78794646 -0.12967904 -0.6019333
vn 0.78794646 -0.12967904 -0.6019333
vn 0.3920747 0.6670462 0.6335037
vn 0.3920747 0.6670462 0.6335037
vn 0.3920747 0.6670462 0.6335037
vn -0.45306367 0.66882974 0.58940643
vn -0.45306367 0.66882974 0.58940643
vn -0.45306367 0.66882974 0.58940643
vn -0.68211323 0.67775494 -0.27453545
vn -0.68211323 0.67775494 -0.27453545
vn -0.68211323 0.67775494 -0.27453545
vn 0.036647014 0.6617457 -0.74883217
vn 0.036647014 0.6617457 -0.74883217
vn 0.036647014 0.6617457 -0.74883217
vn 0.70651686 0.678906 -0.19980134
vn 0.70651686 0.678906 -0.19980134
vn 0.70651686 0.678906 -0.19980134
vn 0.2557947 0.94677603 -0.19540806
vn 0.2557947 0.94677603 -0.19540806
vn 0.2557947 0.94677603 -0.19540806
vn 0.47255665 0.80396974 -0.36100274
vn 0.47255665 0.80396974 -0.36100274
vn 0.47255665 0.80396974 -0.36100274
vn 0.39207473 0.66704607 -0.6335036
vn 0.39207473 0.66704607 -0.6335036
vn 0.39207473 0.66704607 -0.6335036
vn -0.09741886 0.943996 -0.31524768
vn -0.09741886 0.943996 -0.31524768
vn -0.09741886 0.943996 -0.31524768
vn -0.17871328 0.7959962 -0.578318
vn -0.17871328 0.7959962 -0.578318
vn -0.17871328 0.7959962 -0.578318
vn -0.4530637 0.66882974 -0.5894065
vn -0.4530637 0.66882974 -0.5894065
vn -0.4530637 0.66882974 -0.5894065
vn -0.31675392 0.9485077 0
vn -0.31675392 0.9485077 0
vn -0.31675392 0.9485077 0
vn -0.5877845 0.80901754 0
vn -0.5877845 0.80901754 0
vn -0.5877845 0.80901754 0
vn -0.68211323 0.677755 0.27453533
vn -0.68211323 0.677755 0.27453533
vn -0.68211323 0.677755 0.27453533
vn -0.09741867 0.943996 0.31524768
vn -0.09741867 0.943996 0.31524768
vn -0.09741867 0.943996 0.31524768
vn -0.17871343 0.7959962 0.578318
vn -0.17871343 0.7959962 0.578318
vn -0.17871343 0.7959962 0.578318
vn 0.036647014 0.66174567 0.74883217
vn 0.036647014 0.66174567 0.74883217
vn 0.036647014 0.66174567 0.74883217
vn 0.2557947 0.94677603 0.19540806
vn 0.2557947 0.94677603 0.19540806
vn 0.2557947 0.94677603 0.19540806
vn 0.47255656 0.80396974 0.3610027
vn 0.47255656 0.80396974 0.3610027
vn 0.47255656 0.80396974 0.3610027
vn 0.7065169 0.6789061 0.19980125
vn 0.7065169 0.6789061 0.19980125
vn 0.7065169 0.6789061 0.19980125
vn 0.88006693 0.3436266 -0.32772374
vn 0.88006693 0.3436266 -0.32772374
vn 0.88006693 0.3436266 -0.32772374
vn 0.77963454 0.19352034 -0.59558356
vn 0.77963454 0.19352034 -0.59558356
vn 0.77963454 0.19352034 -0.59558356
vn 0.5553034 0.33572233 -0.76087356
vn 0.5553034 0.33572233 -0.76087356
vn 0.5553034 0.33572233 -0.76087356
vn -0.023536239 0.33039612 -0.94354886
vn -0.023536239 0.33039612 -0.94354886
vn -0.023536239 0.33039612 -0.94354886
vn -0.2899537 0.18842803 -0.93830794
vn -0.2899537 0.18842803 -0.93830794
vn -0.2899537 0.18842803 -0.93830794
vn -0.5154947 0.33498874 -0.78870004
vn -0.5154947 0.33498874 -0.78870004
vn -0.5154947 0.33498874 -0.78870004
vn -0.89646494 0.34411466 -0.2791698
vn -0.89646494 0.34411466 -0.2791698
vn -0.89646494 0.34411466 -0.2791698
vn -0.9804261 0.19688743 0
vn -0.9804261 0.19688743 0
vn -0.9804261 0.19688743 0
vn -0.89646494 0.34411466 0.2791698
vn -0.89646494 0.34411466 0.2791698
vn -0.89646494 0.34411466 0.2791698
vn -0.5154947 0.33498874 0.78870004
vn -0.5154947 0.33498874 0.78870004
vn -0.5154947 0.33498874 0.78870004
vn -0.2899537 0.18842803 0.93830794
vn -0.2899537 0.18842803 0.93830794
vn -0.2899537 0.18842803 0.93830794
vn -0.023536239 0.33039612 0.94354886
vn -0.023536239 0.33039612 0.94354886
vn -0.023536239 0.33039612 0.94354886
vn 0.5553034 0.33572233 0.76087356
vn 0.5553034 0.33572233 0.76087356
vn 0.5553034 0.33572233 0.76087356
vn 0.77963454 0.19352034 0.59558356
vn 0.77963454 0.19352034 0.59558356
vn 0.77963454 0.19352034 0.59558356
vn 0.88006693 0.3436266 0.32772374
vn 0.88006693 0.3436266 0.32772374
vn 0.88006693 0.3436266 0.32772374
vn 0.29288197 0.12619612 -0.9477841
vn 0.29288197 0.12619612 -0.9477841
vn 0.29288197 0.12619612 -0.9477841
vn 0.28995368 -0.18842803 -0.93830794
vn 0.28995368 -0.18842803 -0.93830794
vn 0.28995368 -0.18842803 -0.93830794
vn 0.023536239 -0.3303963 -0.94354874
vn 0.023536239 -0.3303963 -0.94354874
vn 0.023536239 -0.3303963 -0.94354874
vn -0.78794646 0.12967904 -0.6019333
vn -0.78794646 0.12967904 -0.6019333
vn -0.78794646 0.12967904 -0.6019333
vn -0.7796345 -0.19352034 -0.59558374
vn -0.7796345 -0.19352034 -0.59558374
vn -0.7796345 -0.19352034 -0.59558374
vn -0.88006705 -0.34362665 -0.32772356
vn -0.88006705 -0.34362665 -0.32772356
vn -0.88006705 -0.34362665 -0.32772356
vn -0.78794646 0.12967908 0.6019333
vn -0.78794646 0.12967908 0.6019333
vn -0.78794646 0.12967908 0.6019333
vn -0.7796345 -0.19352034 0.59558374
vn -0.7796345 -0.19352034 0.59558374
vn -0.7796345 -0.19352034 0.59558374
vn -0.55530334 -0.33572227 0.7608737
vn -0.55530334 -0.33572227 0.7608737
vn -0.55530334 -0.33572227 0.7608737
vn 0.29288197 0.12619612 0.9477841
vn 0.29288197 0.12619612 0.9477841
vn 0.29288197 0.12619612 0.9477841
vn 0.2899537 -0.18842803 0.93830794
vn 0.2899537 -0.18842803 0.93830794
vn 0.2899537 -0.18842803 0.93830794
vn 0.5154946 -0.3349888 0.7887001
vn 0.5154946 -0.3349888 0.7887001
vn 0.5154946 -0.3349888 0.7887001
vn 0.9912519 0.13198362 0
vn 0.9912519 0.13198362 0
vn 0.9912519 0.13198362 0
vn 0.9804261 -0.1968874 0
vn 0.9804261 -0.1968874 0
vn 0.9804261 -0.1968874 0
vn 0.89646494 -0.34411454 -0.27916986
vn 0.89646494 -0.34411454 -0.27916986
vn 0.89646494 -0.34411454 -0.27916986
vn 0.45306367 -0.66882974 -0.5894065
vn 0.45306367 -0.66882974 -0.5894065
vn 0.45306367 -0.66882974 -0.5894065
vn 0.17871355 -0.7959962 -0.578318
vn 0.17871355 -0.7959962 -0.578318
vn 0.17871355 -0.7959962 -0.578318
vn -0.036647044 -0.6617456 -0.7488323
vn -0.036647044 -0.6617456 -0.7488323
vn -0.036647044 -0.6617456 -0.7488323
vn -0.39207467 -0.66704607 -0.63350374
vn -0.39207467 -0.66704607 -0.63350374
vn -0.39207467 -0.66704607 -0.63350374
vn -0.4725565 -0.80396986 -0.3610026
vn -0.4725565 -0.80396986 -0.3610026
vn -0.4725565 -0.80396986 -0.3610026
vn -0.706517 -0.678906 -0.19980118
vn -0.706517 -0.678906 -0.19980118
vn -0.706517 -0.678906 -0.19980118
vn -0.706517 -0.678906 0.19980118
vn -0.706517 -0.678906 0.19980118
vn -0.706517 -0.678906 0.19980118
vn -0.4725565 -0.80396986 0.36100262
vn -0.4725565 -0.80396986 0.36100262
vn -0.4725565 -0.80396986 0.36100262
vn -0.39207467 -0.66704607 0.63350374
vn -0.39207467 -0.66704607 0.63350374
vn -0.39207467 -0.66704607 0.63350374
vn 0.68211305 -0.6777551 -0.27453557
vn 0.68211305 -0.6777551 -0.27453557
vn 0.68211305 -0.6777551 -0.27453557
vn 0.5877846 -0.80901754 0
vn 0.5877846 -0.80901754 0
vn 0.5877846 -0.80901754 0
vn 0.31675413 -0.9485077 0
vn 0.31675413 -0.9485077 0
vn 0.31675413 -0.9485077 0
vn -0.036647044 -0.6617456 0.7488323
vn -0.036647044 -0.6617456 0.7488323
vn -0.036647044 -0.6617456 0.7488323
vn 0.17871359 -0.7959962 0.57831794
vn 0.17871359 -0.7959962 0.57831794
vn 0.17871359 -0.7959962 0.57831794
vn 0.45306367 -0.66882974 0.5894065
vn 0.45306367 -0.66882974 0.5894065
vn 0.45306367 -0.66882974 0.5894065
g placeholder_Sphere_Magenta_0
f 3/3/3 2/2/2 1/1/1
f 6/6/6 5/5/5 4/4/4
f 9/9/9 8/8/8 7/7/7
f 12/12/12 11/11/11 10/10/10
f 15/15/15 14/14/14 13/13/13
f 18/18/18 17/17/17 16/16/16
f 21/21/21 20/20/20 19/19/19
f 24/24/24 23/23/23 22/22/22
f 27/27/27 26/26/26 25/25/25
f 30/30/30 29/29/29 28/28/28
f 33/33/33 32/32/32 31/31/31
f 36/36/36 35/35/35 34/34/34
f 39/39/39 38/38/38 37/37/37
f 42/42/42 41/41/41 40/40/40
f 45/45/45 44/44/44 43/43/43
f 48/48/48 47/47/47 46/46/46
f 51/51/51 50/50/50 49/49/49
f 54/54/54 53/53/53 52/52/52
f 57/57/57 56/56/56 55/55/55
f 60/60/60 59/59/59 58/58/58
f 63/63/63 62/62/62 61/61/61
f 66/66/66 65/65/65 64/64/64
f 69/69/69 68/68/68 67/67/67
f 72/72/72 71/71/71 70/70/70
f 75/75/75 74/74/74 73/73/73
f 78/78/78 77/77/77 76/76/76
f 81/81/81 80/80/80 79/79/79
f 84/84/84 83/83/83 82/82/82
f 87/87/87 86/86/86 85/85/85
f 90/90/90 89/89/89 88/88/88
f 93/93/93 92/92/92 91/91/91
f 96/96/96 95/95/95 94/94/94
f 99/99/99 98/98/98 97/97/97
f 102/102/102 101/101/101 100/100/100
f 105/105/105 104/104/104 103/103/103
f 108/108/108 107/107/107 106/106/106
f 111/111/111 110/110/110 109/109/109
f 114/114/114 113/113/113 112/112/112
f 117/117/117 116/116/116 115/115/115
f 120/120/120 119/119/119 118/118/118
f 123/123/123 122/122/122 121/121/121
f 126/126/126 125/125/125 124/124/124
f 129/129/129 128/128/128 127/127/127
f 132/132/132 131/131/131 130/130/130
f 135/135/135 134/134/134 133/133/133
f 138/138/138 137/137/137 136/136/136
f 141/141/141 140/140/140 139/139/139
f 144/144/144 143/143/143 142/142/142
f 147/147/147 146/146/146 145/145/145
f 150/150/150 149/149/149 148/148/148
f 153/153/153 152/152/152 151/151/151
f 156/156/156 155/155/155 154/154/154
f 159/159/159 158/158/158 157/157/157
f 162/162/162 161/161/161 160/160/160
f 165/165/165 164/164/164 163/163/163
f 168/168/168 167/167/167 166/166/166
f 171/171/171 170/170/170 169/169/169
f 174/174/174 173/173/173 172/172/172
f 177/177/177 176/176/176 175/175/175
f 180/180/180 179/179/179 178/178/178
f 183/183/183 182/182/182 181/181/181
f 186/186/186 185/185/185 184/184/184
f 189/189/189 188/188/188 187/187/187
f 192/192/192 191/191/191 190/190/190
f 195/195/195 194/194/194 193/193/193
f 198/198/198 197/197/197 196/196/196
f 201/201/201 200/200/200 199/199/199
f 204/204/204 203/203/203 202/202/202
f 207/207/207 206/206/206 205/205/205
f 210/210/210 209/209/209 208/208/208
f 213/213/213 212/212/212 211/211/211
f 216/216/216 215/215/215 214/214/214
f 219/219/219 218/218/218 217/217/217
f 222/222/222 221/221/221 220/220/220
f 225/225/225 224/224/224 223/223/223
f 228/228/228 227/227/227 226/226/226
f 231/231/231 230/230/230 229/229/229
f 234/234/234 233/233/233 232/232/232
f 237/237/237 236/236/236 235/235/235
f 240/240/240 239/239/239 238/238/238
