g plant_Tomato
v -0.7910758 2.2988846 -0.15104505
v -1.5133098 1.7618729 -0.3942275
v -0.77906525 2.0922287 -0.14677611
v -0.07805829 2.1273024 -0.17808628
v 0.08235855 2.23601 -0.2397285
v -0.048707318 2.157186 0.09192032
v -0.13006982 2.9583187 -0.14940318
v -0.27233633 3.5112936 0.10202503
v -0.35340208 3.67155 -0.06378158
v 0.14257348 2.9823697 -0.23724636
v 0.2279218 2.7033267 -0.33580965
v 0.24157979 2.3582437 0.1842015
v -0.09515862 1.7112856 0.18408778
v 0.2005501 2.9694798 0.06657811
v -0.8472616 2.3020916 0.045718312
v -0.8236498 2.1045158 0.049356557
v -1.5133098 1.7618729 -0.3942275
v -0.77906525 2.0922287 -0.14677611
v -0.1928777 1.8127801 -0.18337773
v -0.7910758 2.2988846 -0.15104505
v -0.8472616 2.3020916 0.045718312
v -0.07805829 2.1273024 -0.17808628
v -0.048707318 2.157186 0.09192032
v -0.031763643 1.5299467 -0.2066082
v 0.37873906 1.4826673 0.20660824
v 0.3612247 2.6348517 -0.13378389
v -0.24835819 0.028604453 0.24999996
v 0.24835816 -0.028604453 0.24999999
v -0.24835816 0.028604453 -0.25
v 0.24835818 -0.028604452 -0.24999997
v 0.3787391 1.4826673 -0.20660818
v 0.69195014 2.8608766 -0.58103144
v 0.6187856 2.8586504 -0.64026654
v 0.8845292 2.9105043 -1.058074
v 0.6099064 2.9518642 -0.63062847
v 0.8845292 2.9105043 -1.058074
v 0.6883667 2.953549 -0.57996976
v -0.095474444 3.6089652 0.07683283
v -0.17246892 3.694642 -0.108733594
v 0.47164434 4.008729 0.9913627
v -0.09737695 3.8499866 0.06422433
v -0.2314988 3.8276405 0.17850156
v -0.18729594 5.0268598 0.1600001
v -0.12891553 5.040047 0.122719996
v -0.42937115 5.595072 0.111797564
v -0.22626843 5.0251136 0.10100975
v -0.16692898 5.034352 0.063570485
v -0.42937115 5.595072 0.111797564
v 0.69195014 2.8608766 -0.58103144
v 0.3612247 2.6348517 -0.13378389
v 0.6883667 2.953549 -0.57996976
v 0.8845292 2.9105043 -1.058074
v -0.5680131 1.907092 -0.5250962
v -0.49380115 2.0926528 -0.253178
v -0.785061 2.2560365 -0.15443572
v -0.7438732 1.7738026 -0.7219312
v -0.9207679 1.9166898 -0.5892374
v -1.0974566 2.1339936 -0.31672215
v 0.82901937 3.7075016 0.9342604
v 0.60576236 3.9348729 1.0453384
v 0.34602594 3.9493082 0.8138103
v 0.9281969 3.4855387 0.76593596
v 0.7016465 3.5404406 0.64355624
v 0.34455407 3.6758423 0.56075585
v 0.45817858 2.6815448 -1.0639094
v 0.7359683 2.8093762 -0.9211799
v 0.64348495 2.9460812 -0.61452824
v 0.17767006 2.5885873 -1.0744324
v 0.18199618 2.6997213 -0.8357974
v 0.3013838 2.8555734 -0.49791992
v -0.44161242 3.5500522 0.595393
v -0.35367957 3.7070572 0.30991644
v -0.045360997 3.8595881 0.36423606
v -0.40107578 3.4374325 0.8657826
v -0.17369798 3.5661228 0.83331263
v 0.13014126 3.7546563 0.6757014
vt 0.15511304 0.466869
vt 0.15511303 0.46686906
vt 0.15511304 0.46686903
vt 0.15511304 0.46686903
vt 0.15511304 0.46686903
vt 0.15511306 0.46686906
vt 0.15511304 0.46686903
vt 0.15511304 0.46686903
vt 0.15511304 0.46686903
vt 0.15511304 0.46686906
vt 0.15511304 0.46686903
vt 0.15511304 0.46686903
vt 0.15511304 0.46686903
vt 0.15511304 0.466869
vt 0.15511304 0.46686906
vt 0.15511304 0.46686906
vt 0.15511304 0.46686903
vt 0.15511304 0.46686903
vt 0.15511304 0.46686903
vt 0.15511304 0.466869
vt 0.15511304 0.46686906
vt 0.15511304 0.46686903
vt 0.15511306 0.46686906
vt 0.15511304 0.46686903
vt 0.15511304 0.46686903
vt 0.15511304 0.46686906
vt 0.15511304 0.46686903
vt 0.15511304 0.46686903
vt 0.15511304 0.46686903
vt 0.15511304 0.46686903
vt 0.15511304 0.46686903
vt 0.15511306 0.46686906
vt 0.15511304 0.46686903
vt 0.15511304 0.466869
vt 0.15511304 0.46686903
vt 0.15511304 0.46686906
vt 0.15511304 0.46686903
vt 0.15511304 0.46686903
vt 0.15511304 0.466869
vt 0.15511304 0.466869
vt 0.15511304 0.46686903
vt 0.15511304 0.466869
vt 0.15511304 0.46686903
vt 0.15511304 0.46686903
vt 0.15511304 0.46686903
vt 0.15511303 0.46686903
vt 0.15511304 0.46686903
vt 0.15511304 0.466869
vt 0.15511306 0.46686906
vt 0.15511304 0.46686906
vt 0.15511304 0.46686903
vt 0.15511304 0.466869
vt 0.21761304 0.46686903
vt 0.21761304 0.46686903
vt 0.21761304 0.46686903
vt 0.21761304 0.46686903
vt 0.21761304 0.46686903
vt 0.21761304 0.46686903
vt 0.21761304 0.46686903
vt 0.21761304 0.46686903
vt 0.21761304 0.46686903
vt 0.21761304 0.46686903
vt 0.21761304 0.46686903
vt 0.21761304 0.46686903
vt 0.21761304 0.46686903
vt 0.21761304 0.46686903
vt 0.21761304 0.46686903
vt 0.21761304 0.46686903
vt 0.21761304 0.46686903
vt 0.21761304 0.46686903
vt 0.21761304 0.46686903
vt 0.21761304 0.46686903
vt 0.21761304 0.46686903
vt 0.21761304 0.46686903
vt 0.21761304 0.46686903
vt 0.21761304 0.46686903
vn -0.044989385 0.7932133 -0.6072797
vn -0.78824353 -0.48315066 -0.38110048
vn 0.068042584 -0.6509139 -0.756096
vn -0.34001604 0.63278866 -0.6956778
vn -0.35071355 0.060072694 -0.9345541
vn -0.47047538 0.449605 0.75928134
vn -0.7295718 -0.07616718 -0.67964953
vn -0.68398243 -0.2969101 0.6663427
vn -0.92152035 0.000655453 -0.3883294
vn -0.028113531 0.6365634 -0.7707118
vn -0.17960104 -0.35658264 -0.9168383
vn 0.5308122 0.10720787 0.8406812
vn -0.540901 -0.17296769 0.8231089
vn 0.5733305 0.36945555 0.7312966
vn -0.3168585 0.7487839 0.58217114
vn -0.28778273 -0.48633677 0.82501984
vn -0.78824353 -0.48315066 -0.38110048
vn 0.068042584 -0.6509139 -0.756096
vn -0.4906672 -0.4461744 -0.7484478
vn -0.044989385 0.7932133 -0.6072797
vn -0.3168585 0.7487839 0.58217114
vn -0.34001604 0.63278866 -0.6956778
vn -0.47047538 0.449605 0.75928134
vn -0.5817652 -0.050619833 -0.81178015
vn 0.6909267 0.013192551 0.7228045
vn 0.9730261 -0.22677779 0.042331245
vn -0.7226948 0.10886281 0.6825402
vn 0.7010019 -0.036079556 0.7122462
vn -0.6665369 0.096436344 -0.7392081
vn 0.7065153 -0.0406668 -0.70652837
vn 0.76760465 0.007770367 -0.6408764
vn 0.7483072 -0.6143186 0.2502976
vn -0.42583725 -0.6738469 -0.6038155
vn 0.46011984 0.009177126 -0.8878094
vn -0.45289716 0.75661296 -0.47161534
vn 0.46011984 0.009177126 -0.8878094
vn 0.6450824 0.6877072 0.3330578
vn 0.9836533 -0.17514904 0.041820128
vn 0.3517877 0.1745539 -0.91966105
vn 0.5689391 0.26262212 0.77931887
vn 0.9414696 0.27106264 -0.20040001
vn -0.6640826 0.27309108 0.6959996
vn -0.11667981 0.022766914 0.9929086
vn 0.9483412 0.23753227 0.21030322
vn -0.4073362 0.9132783 0.00012905514
vn -0.94967765 -0.109149575 -0.29359636
vn 0.3610983 0.16235407 -0.918286
vn -0.4073362 0.9132783 0.00012905514
vn 0.7483072 -0.6143186 0.2502976
vn 0.9730261 -0.22677779 0.042331245
vn 0.6450824 0.6877072 0.3330578
vn 0.46011984 0.009177126 -0.8878094
vn 0.15920354 0.76355964 -0.62580425
vn 0.23304607 0.7724687 -0.5907468
vn 0.12089143 0.7768417 -0.6179824
vn 0.13626839 0.75978047 -0.6357393
vn 0.10605108 0.76746947 -0.63225293
vn 0.013863863 0.786146 -0.6178853
vn 0.47773048 0.67214155 -0.5656848
vn 0.48428452 0.71903324 -0.49845722
vn 0.44932944 0.6663099 -0.59509176
vn 0.4750645 0.65680075 -0.5855992
vn 0.45540404 0.6494738 -0.60892606
vn 0.39309844 0.6233668 -0.67593443
vn -0.25127143 0.87580097 -0.41211084
vn -0.17576191 0.8783319 -0.44456813
vn -0.26847643 0.88678384 -0.37621117
vn -0.2741613 0.87383145 -0.40156457
vn -0.29013407 0.88030475 -0.37534744
vn -0.33678034 0.8946191 -0.29365897
vn -0.42061847 0.8231194 0.38151628
vn -0.46487752 0.828422 0.31241938
vn -0.3831837 0.8355407 0.3937539
vn -0.4064296 0.82036877 0.40225616
vn -0.3784467 0.82766545 0.41442487
vn -0.29138982 0.8447912 0.4487984
g plant_Tomato_0
f 3/3/3 2/2/2 1/1/1
f 6/6/6 5/5/5 4/4/4
f 7/7/7 5/5/5 6/6/6
f 8/8/8 7/7/7 6/6/6
f 7/7/7 8/8/8 9/9/9
f 7/7/7 9/9/9 10/10/10
f 7/7/7 11/11/11 5/5/5
f 10/10/10 11/11/11 7/7/7
f 8/8/8 6/6/6 12/12/12
f 13/13/13 12/12/12 6/6/6
f 14/14/14 8/8/8 12/12/12
f 6/6/6 15/15/15 13/13/13
f 15/15/15 16/16/16 13/13/13
f 17/17/17 16/16/16 15/15/15
f 16/16/16 17/17/17 18/18/18
f 19/19/19 16/16/16 18/18/18
f 13/13/13 16/16/16 19/19/19
f 18/18/18 20/20/20 19/19/19
f 17/17/17 21/21/21 20/20/20
f 22/22/22 20/20/20 21/21/21
f 20/20/20 22/22/22 19/19/19
f 21/21/21 23/23/23 22/22/22
f 22/22/22 5/5/5 19/19/19
f 19/19/19 24/24/24 13/13/13
f 19/19/19 5/5/5 24/24/24
f 25/25/25 12/12/12 13/13/13
f 12/12/12 26/26/26 14/14/14
f 12/12/12 25/25/25 26/26/26
f 13/13/13 24/24/24 27/27/27
f 25/25/25 13/13/13 27/27/27
f 28/28/28 25/25/25 27/27/27
f 24/24/24 29/29/29 27/27/27
f 25/25/25 28/28/28 30/30/30
f 31/31/31 30/30/30 29/29/29
f 24/24/24 31/31/31 29/29/29
f 31/31/31 25/25/25 30/30/30
f 31/31/31 24/24/24 5/5/5
f 25/25/25 31/31/31 26/26/26
f 26/26/26 31/31/31 5/5/5
f 26/26/26 5/5/5 11/11/11
f 32/32/32 26/26/26 11/11/11
f 33/33/33 32/32/32 11/11/11
f 34/34/34 32/32/32 33/33/33
f 33/33/33 11/11/11 10/10/10
f 35/35/35 33/33/33 10/10/10
f 33/33/33 35/35/35 36/36/36
f 37/37/37 36/36/36 35/35/35
f 37/37/37 35/35/35 14/14/14
f 35/35/35 10/10/10 14/14/14
f 38/38/38 14/14/14 10/10/10
f 39/39/39 38/38/38 10/10/10
f 9/9/9 39/39/39 10/10/10
f 14/14/14 38/38/38 8/8/8
f 8/8/8 38/38/38 40/40/40
f 41/41/41 40/40/40 38/38/38
f 38/38/38 39/39/39 41/41/41
f 40/40/40 42/42/42 8/8/8
f 8/8/8 42/42/42 9/9/9
f 40/40/40 41/41/41 42/42/42
f 43/43/43 42/42/42 41/41/41
f 42/42/42 43/43/43 9/9/9
f 44/44/44 41/41/41 39/39/39
f 44/44/44 43/43/43 41/41/41
f 44/44/44 45/45/45 43/43/43
f 46/46/46 43/43/43 45/45/45
f 43/43/43 46/46/46 9/9/9
f 47/47/47 39/39/39 9/9/9
f 47/47/47 44/44/44 39/39/39
f 46/46/46 47/47/47 9/9/9
f 44/44/44 47/47/47 48/48/48
f 48/48/48 47/47/47 46/46/46
f 50/50/50 49/49/49 14/14/14
f 49/49/49 51/51/51 14/14/14
f 51/51/51 49/49/49 52/52/52
f 55/55/55 54/54/54 53/53/53
f 55/55/55 53/53/53 56/56/56
f 57/57/57 55/55/55 56/56/56
f 58/58/58 55/55/55 57/57/57
f 61/61/61 60/60/60 59/59/59
f 61/61/61 59/59/59 62/62/62
f 63/63/63 61/61/61 62/62/62
f 64/64/64 61/61/61 63/63/63
f 67/67/67 66/66/66 65/65/65
f 67/67/67 65/65/65 68/68/68
f 69/69/69 67/67/67 68/68/68
f 70/70/70 67/67/67 69/69/69
f 73/73/73 72/72/72 71/71/71
f 73/73/73 71/71/71 74/74/74
f 75/75/75 73/73/73 74/74/74
f 76/76/76 73/73/73 75/75/75
