g plant_Coffee
v -0.88924575 0.83935905 -0.89241767
v 0.0015859604 0.83935905 -1.2630036
v 0.89241767 0.83935905 -0.89241767
v 1.2630036 0.83935905 -0.0015859604
v -1.2598317 0.83935905 -0.0015859604
v 0.89241767 0.83935905 0.88924575
v -0.88924575 0.83935905 0.88924575
v 0.0015859604 0.83935905 1.2598317
v -0.8108525 0.1409471 -0.0015859604
v -0.96051216 1.1030452 -0.9636842
v -0.57567286 0.1409471 -0.5717182
v -1.3596048 1.1030452 -0.0015859604
v -0.57567286 0.1409471 0.57567286
v 0.0015859604 1.1030452 -1.3556502
v 0.0015859604 0.1409471 -0.8068978
v -0.96051216 1.1030452 0.96051216
v 0.0015859604 0.1409471 0.8108525
v 0.9636842 1.1030452 -0.9636842
v 0.5717182 0.1409471 -0.5717182
v 0.0015859604 1.1030452 1.3596048
v 0.5717182 0.1409471 0.57567286
v 1.3556502 1.1030452 -0.0015859604
v 0.8068978 0.1409471 -0.0015859604
v 0.9636842 1.1030452 0.96051216
v -1.131552 1.1030452 -1.1347239
v 0.0015859604 1.1030452 -1.5979563
v -1.6019111 1.1030452 -0.0015859604
v 1.1347239 1.1030452 -1.1347239
v -1.131552 1.1030452 1.131552
v 1.5979563 1.1030452 -0.0015859604
v 1.1347239 1.1030452 1.131552
v 0.0015859604 1.1030452 1.6019111
v -1.003272 -0.0015859604 -0.0015859604
v -0.71107936 -0.0015859604 -0.70712465
v 0.0015859604 -0.0015859604 -1.0064441
v 0.70712465 -0.0015859604 -0.70712465
v 1.0064441 -0.0015859604 -0.0015859604
v -0.71107936 -0.0015859604 0.71107936
v 0.70712465 -0.0015859604 0.71107936
v 0.0015859604 -0.0015859604 1.003272
v 0.022965908 -0.07285249 0.21221364
v -0.2692269 -0.07285249 0.034047246
v -0.32624006 1.5520246 -0.25814545
v -0.12669384 1.6304176 -0.12273908
v 0.27239883 -0.07285249 -0.030092597
v -0.183707 1.5377712 -0.46481848
v -0.026920676 -0.07285249 -0.21538556
v 0.015839338 1.623291 -0.32941198
v -0.54716635 2.3359563 -0.29377878
v -0.35474682 2.3787162 -0.17262566
v -0.24072027 2.4143498 -0.3650453
v -0.42601323 2.3715894 -0.48619843
v -0.66831946 3.2125347 -0.18687892
v -0.49015307 3.1911547 -0.07997918
v -0.38325334 3.2125347 -0.25814545
v -0.5614197 3.2339146 -0.35791862
v -0.4758997 4.0819864 -0.037219286
v -0.34049344 3.9964669 0.048300624
v -0.25497353 3.9822133 -0.11561239
v -0.3903799 4.060607 -0.19400561
v 0.20825887 4.8445387 0.034047246
v 0.29377878 4.723385 0.10531378
v 0.32941198 4.6663723 -0.037219286
v 0.25101888 4.787525 -0.10848582
v 0.47194505 4.794652 0.026920676
v 0.31515872 4.709132 0.012667298
v 0.64298475 4.4739523 0.3191135
v 0.6287315 4.595105 -0.044345856
v 0.6572381 4.6521187 -0.022965908
v 1.1988637 4.2245197 0.1409471
v 0.6287315 4.759019 -0.39355195
v 1.1917372 4.331419 -0.16549897
v 1.2202437 4.3884325 -0.14411902
v 1.4768033 4.167506 -0.2367655
v 1.1846104 4.481079 -0.44343853
v -0.6041796 3.2267883 -0.20825887
v -1.0602853 2.9345953 -0.27239883
v -0.8749924 3.1555216 0.012667298
v -0.91775227 3.2125347 -0.008712649
v -1.5092645 2.7991889 0.21934032
v -0.7182059 3.412081 0.29060686
v -1.3524783 2.9773552 0.45451975
v -1.3952382 3.0343683 0.4331398
v -1.5805311 2.856202 0.696826
v -1.2241983 3.1911547 0.696826
v -0.19083369 1.5377712 -0.44343853
v 0.18687892 1.7444441 -0.70712465
v -0.1409471 1.5591512 -0.77126455
v -0.16945374 1.623291 -0.7783912
v 0.25101888 1.7373176 -1.3342702
v -0.4758997 1.4166181 -0.83540446
v -0.019793987 1.5520246 -1.3841567
v -0.048300624 1.6161644 -1.3912834
v 0.058599234 1.5235178 -1.7048562
v -0.31198668 1.4094915 -1.44117
v -0.3903799 4.060607 -0.19400561
v 0.08710587 3.8681867 -0.25101888
v -0.21221364 3.9679601 -0.47907174
v -0.183707 4.0320997 -0.48619843
v 0.35079205 3.6472604 -0.8068978
v -0.49727988 4.103367 -0.70712465
v 0.09423244 3.739907 -0.9921908
v 0.12986577 3.8040469 -1.0064441
v 0.25101888 3.5902474 -1.2701303
v -0.14807379 3.8681867 -1.1988637
v -0.36899996 2.385843 -0.19400561
v -0.53291297 2.22193 0.31198668
v -0.183707 2.2931964 0.10531378
v -0.183707 2.3573363 0.13382041
v -0.11244047 1.9938769 0.7894726
v 0.17262566 2.4000962 -0.08710587
v 0.17975235 2.0580168 0.63981295
v 0.17975235 2.1292834 0.66831946
v 0.372172 1.9012306 0.9106257
v 0.43631184 2.1649168 0.511533
v 0.22963893 4.8089056 0.048300624
v 0.2795254 5.143858 -0.2367655
v 0.051472545 5.022705 -0.030092597
v 0.07285249 5.065465 0.012667298
v -0.119567156 5.52157 -0.37929857
v -0.16232705 4.9300585 0.20508695
v -0.30486012 5.4004173 -0.20825887
v -0.28348017 5.443177 -0.16549897
v -0.50440645 5.5857105 -0.3222854
v -0.49015307 5.3220243 -0.030092597
v -0.5257864 2.3502095 -0.29377878
v -0.84648585 2.3573363 -0.5859716
v -0.7894726 2.2290566 -0.30090547
v -0.8108525 2.2718165 -0.2795254
v -1.2883384 2.0722702 -0.56459165
v -0.7395859 2.1221569 0.0055407286
v -1.2455783 1.951117 -0.32941198
v -1.274085 2.0010037 -0.30803204
v -1.480758 1.787204 -0.35791862
v -1.2099452 1.8655972 -0.07285249
vt 0.28458536 0.09242852
vt 0.28458536 0.09242852
vt 0.28458536 0.09242852
vt 0.28458536 0.09242852
vt 0.28458536 0.09242852
vt 0.28458536 0.09242852
vt 0.28458536 0.09242852
vt 0.28458536 0.09242852
vt 0.6586049 0.96742845
vt 0.6586049 0.96742845
vt 0.6586049 0.96742845
vt 0.6586049 0.96742845
vt 0.6586049 0.96742845
vt 0.6586049 0.96742845
vt 0.6586049 0.96742845
vt 0.6586049 0.96742845
vt 0.6586049 0.96742845
vt 0.6586049 0.96742845
vt 0.6586049 0.96742845
vt 0.6586049 0.96742845
vt 0.6586049 0.96742845
vt 0.6586049 0.96742845
vt 0.6586049 0.96742845
vt 0.6586049 0.96742845
vt 0.6586049 0.96742845
vt 0.6586049 0.96742845
vt 0.6586049 0.96742845
vt 0.6586049 0.96742845
vt 0.6586049 0.96742845
vt 0.6586049 0.96742845
vt 0.6586049 0.96742845
vt 0.6586049 0.96742845
vt 0.6586049 0.96742845
vt 0.6586049 0.96742845
vt 0.6586049 0.96742845
vt 0.6586049 0.96742845
vt 0.6586049 0.96742845
vt 0.6586049 0.96742845
vt 0.6586049 0.96742845
vt 0.6586049 0.96742845
vt 0.27772263 0.46987945
vt 0.27772263 0.46987945
vt 0.27772263 0.46987945
vt 0.27772263 0.46987945
vt 0.27772263 0.46987945
vt 0.27772263 0.46987945
vt 0.27772263 0.46987945
vt 0.27772263 0.46987945
vt 0.27772263 0.46987945
vt 0.27772263 0.46987945
vt 0.27772263 0.46987945
vt 0.27772263 0.46987945
vt 0.27772263 0.46987945
vt 0.27772263 0.46987945
vt 0.27772263 0.46987945
vt 0.27772263 0.46987945
vt 0.27772263 0.46987945
vt 0.27772263 0.46987945
vt 0.27772263 0.46987945
vt 0.27772263 0.46987945
vt 0.27772263 0.46987945
vt 0.27772263 0.46987945
vt 0.27772263 0.46987945
vt 0.27772263 0.46987945
vt 0.27772263 0.46987945
vt 0.27772263 0.46987945
vt 0.27772263 0.46987945
vt 0.27772263 0.46987945
vt 0.27772263 0.46987945
vt 0.27772263 0.46987945
vt 0.27772263 0.46987945
vt 0.27772263 0.46987945
vt 0.27772263 0.46987945
vt 0.27772263 0.46987945
vt 0.27772263 0.46987945
vt 0.27772263 0.46987945
vt 0.27772263 0.46987945
vt 0.27772263 0.46987945
vt 0.27772263 0.46987945
vt 0.27772263 0.46987945
vt 0.27772263 0.46987945
vt 0.27772263 0.46987945
vt 0.27772263 0.46987945
vt 0.27772263 0.46987945
vt 0.27772263 0.46987945
vt 0.27772263 0.46987945
vt 0.27772263 0.46987945
vt 0.27772263 0.46987945
vt 0.27772263 0.46987945
vt 0.27772263 0.46987945
vt 0.27772263 0.46987945
vt 0.27772263 0.46987945
vt 0.27772263 0.46987945
vt 0.27772263 0.46987945
vt 0.27772263 0.46987945
vt 0.27772263 0.46987945
vt 0.27772263 0.46987945
vt 0.27772263 0.46987945
vt 0.27772263 0.46987945
vt 0.27772263 0.46987945
vt 0.27772263 0.46987945
vt 0.27772263 0.46987945
vt 0.27772263 0.46987945
vt 0.27772263 0.46987945
vt 0.27772263 0.46987945
vt 0.27772263 0.46987945
vt 0.27772263 0.46987945
vt 0.27772263 0.46987945
vt 0.27772263 0.46987945
vt 0.27772263 0.46987945
vt 0.27772263 0.46987945
vt 0.27772263 0.46987945
vt 0.27772263 0.46987945
vt 0.27772263 0.46987945
vt 0.27772263 0.46987945
vt 0.27772263 0.46987945
vt 0.27772263 0.46987945
vt 0.27772263 0.46987945
vt 0.27772263 0.46987945
vt 0.27772263 0.46987945
vt 0.27772263 0.46987945
vt 0.27772263 0.46987945
vt 0.27772263 0.46987945
vt 0.27772263 0.46987945
vt 0.27772263 0.46987945
vt 0.27772263 0.46987945
vt 0.27772263 0.46987945
vt 0.27772263 0.46987945
vt 0.27772263 0.46987945
vt 0.27772263 0.46987945
vt 0.27772263 0.46987945
vt 0.27772263 0.46987945
vt 0.27772263 0.46987945
vt 0.27772263 0.46987945
vt 0.27772263 0.46987945
vn 0.01097345 0.99993986 -0
vn 0.01097345 0.99993986 -0
vn 0.01097345 0.99993986 -0
vn 0.01097345 0.99993986 -0
vn 0.01097345 0.99993986 -0
vn 0.01097345 0.99993986 -0
vn 0.01097345 0.99993986 -0
vn 0.01097345 0.99993986 -0
vn 0.8639319 0.4944834 -0.0954351
vn 0.2952929 0.90516704 0.3057364
vn 0.61120343 0.4944834 0.61799395
vn 0.3900661 0.90516704 -0.16888179
vn 0.61120343 0.4944834 -0.61799395
vn 0.0109734535 0.90516704 0.4249144
vn 0.0109734535 0.4944834 0.8691178
vn 0.2952929 0.90516704 -0.3057364
vn 0.0109734535 0.4944834 -0.8691178
vn -0.273346 0.90516704 0.32550666
vn -0.6208475 0.4944834 0.6083046
vn 0.0109734535 0.90516704 -0.4249144
vn -0.6208475 0.4944834 -0.6083046
vn -0.39971024 0.90516704 -0.1445834
vn -0.87025416 0.49260312 -0
vn -0.273346 0.90516704 -0.32550666
vn -0.6208475 0.4313013 -0.6546202
vn 0.0109734535 0.4313013 -0.9021412
vn -0.9027562 0.43015257 -0
vn 0.6427945 0.4313013 -0.6330833
vn -0.6208475 0.4313013 0.6546202
vn 0.8955229 0.4313013 -0.10962641
vn 0.6427945 0.4313013 0.6330833
vn 0.0109734535 0.4313013 0.9021412
vn -0.58925647 -0.8007498 -0.107594855
vn -0.4313013 -0.8007498 -0.41566697
vn 0.0109734535 -0.8007498 -0.59889853
vn 0.42165715 -0.8007498 -0.4254469
vn 0.5796124 -0.8007498 -0.15115993
vn -0.4313013 -0.8007498 0.41566697
vn 0.42165715 -0.8007498 0.4254469
vn 0.0109734535 -0.8007498 0.59889853
vn 0.16892874 0.21016389 0.9629612
vn -0.96834916 -0.0109734535 0.24935816
vn -0.96834916 -0.13733768 0.20841849
vn 0.2005198 0.17857283 0.9632775
vn 0.99029607 0.11539072 -0.07745112
vn -0.11539072 -0.10574663 -0.98767537
vn -0.11539072 -0.13733768 -0.98378015
vn 0.958705 0.21016389 -0.19161376
vn -0.96834916 -0.2005198 0.14863282
vn 0.2005198 0.020617545 0.97947264
vn 0.92711395 0.24175495 -0.28638133
vn -0.24175495 0.020617545 -0.9701183
vn -0.96834916 -0.0109734535 0.24935816
vn 0.16892874 -0.13733768 0.976013
vn 0.958705 0.052208602 -0.27956924
vn -0.30493706 0.17857283 -0.93548125
vn -0.873576 0.39971024 0.27766296
vn 0.10574663 -0.16892874 0.97993916
vn 0.8639319 -0.35847503 -0.3537193
vn -0.30493706 0.30493706 -0.9022344
vn -0.33652812 0.873576 0.3515875
vn 0.26370186 -0.07415557 0.9617496
vn 0.73756766 -0.5796124 -0.3464729
vn 0.0109734535 0.52607447 -0.8503677
vn 0.958705 0.24175495 0.14979734
vn -0.96239203 0.2716644 -0
vn -0.273346 -0.2321108 0.9334916
vn -0.39971024 -0.83234084 -0.38397974
vn 0.32688397 0.873576 0.36057156
vn 0.2952929 -0.51643026 0.80380464
vn -0.30493706 0.46289235 -0.83231246
vn -0.4944834 -0.8007498 -0.33806205
vn 0.5796124 0.74721175 0.32515243
vn 0.8007498 -0.5480213 -0.24181078
vn 0.26370186 0.21016389 -0.94143105
vn 0.8007498 0.11539072 -0.5877795
vn -0.17857283 -0.48483926 -0.8561791
vn 0.5480213 -0.7691587 0.32873625
vn -0.46289235 0.7788028 -0.42331648
vn -0.6208475 -0.6427945 -0.4487355
vn 0.6427945 0.6208475 0.44873554
vn 0.61120343 -0.7691587 0.18661529
vn -0.6524386 0.7156207 -0.24942116
vn -0.58925647 -0.42165715 0.68918943
vn 0.16892874 0.4313013 0.8862518
vn -0.11539072 -0.13733768 0.98378015
vn 0.7691587 0.39971024 0.4986247
vn 0.45158154 -0.8922299 -0
vn -0.46289235 0.873576 0.15031847
vn 0.8639319 0.4313013 -0.26000172
vn -0.873576 -0.4532482 0.17728804
vn 0.4532482 -0.8639319 0.21951704
vn -0.4313013 0.873576 -0.22548656
vn 0.26370186 -0.16892874 -0.949697
vn -0.7156207 -0.48483926 -0.50281006
vn -0.5576654 0.17857283 0.81063
vn 0.5480213 -0.2005198 0.8120742
vn -0.4313013 -0.8955229 0.10962648
vn 0.38440564 0.9231643 -0
vn 0.8639319 -0.4532482 0.21951711
vn -0.873576 0.36811918 -0.31836027
vn -0.4944834 -0.8639319 0.09543494
vn 0.51643026 0.81039387 -0.2766976
vn 0.3900661 -0.51643026 -0.7623308
vn -0.52607447 0.17857283 -0.831479
vn -0.52607447 0.17857283 -0.831479
vn -0.96834916 -0.13733768 0.20841849
vn 0.04256451 -0.92711395 -0.37235463
vn -0.08379966 0.9367581 0.33979684
vn -0.6208475 -0.3900661 0.6799976
vn 0.67438555 0.30493706 -0.6724712
vn 0.0109734535 -0.8955229 -0.44488016
vn 0.04256451 0.8419849 0.5378193
vn 0.51643026 -0.48483926 0.7058546
vn 0.99029607 0.11539072 -0.07745112
vn 0.5796124 -0.8007498 0.15115993
vn 0.83234084 0.08379966 -0.54789263
vn -0.36811918 -0.61120343 -0.7006558
vn 0.42165715 0.5576654 0.71499264
vn 0.3900661 0.5576654 -0.7327058
vn -0.46289235 -0.51643026 0.7204377
vn -0.30493706 -0.67438555 -0.6724712
vn 0.2321108 0.74721175 0.6227352
vn -0.7156207 0.5576654 -0.42059043
vn -0.873576 -0.10574663 0.47506067
vn 0.92711395 0.36811918 -0.07034195
vn 0.10574663 0.4944834 -0.86273044
vn 0.4532482 -0.8007498 -0.39161953
vn -0.36811918 0.8419849 0.39439783
vn -0.4313013 0.17857283 -0.88435906
vn 0.42165715 -0.2005198 0.884306
vn 0.51643026 -0.73756766 -0.435079
vn -0.58925647 0.68402964 0.4299771
vn -0.74721175 -0.6427945 -0.1687893
vn -0.11539072 -0.5480213 0.828467
g plant_Coffee_0
f 3/3/3 2/2/2 1/1/1
f 1/1/1 4/4/4 3/3/3
f 1/1/1 5/5/5 4/4/4
f 5/5/5 6/6/6 4/4/4
f 5/5/5 7/7/7 6/6/6
f 7/7/7 8/8/8 6/6/6
f 11/11/11 10/10/10 9/9/9
f 10/10/10 12/12/12 9/9/9
f 9/9/9 12/12/12 13/13/13
f 14/14/14 10/10/10 11/11/11
f 15/15/15 14/14/14 11/11/11
f 12/12/12 16/16/16 13/13/13
f 13/13/13 16/16/16 17/17/17
f 18/18/18 14/14/14 15/15/15
f 19/19/19 18/18/18 15/15/15
f 16/16/16 20/20/20 17/17/17
f 17/17/17 20/20/20 21/21/21
f 22/22/22 18/18/18 19/19/19
f 23/23/23 22/22/22 19/19/19
f 21/21/21 24/24/24 23/23/23
f 20/20/20 24/24/24 21/21/21
f 24/24/24 22/22/22 23/23/23
f 12/12/12 10/10/10 25/25/25
f 10/10/10 14/14/14 26/26/26
f 25/25/25 10/10/10 26/26/26
f 16/16/16 12/12/12 27/27/27
f 27/27/27 12/12/12 25/25/25
f 14/14/14 18/18/18 28/28/28
f 26/26/26 14/14/14 28/28/28
f 20/20/20 16/16/16 29/29/29
f 29/29/29 16/16/16 27/27/27
f 18/18/18 22/22/22 30/30/30
f 28/28/28 18/18/18 30/30/30
f 22/22/22 24/24/24 31/31/31
f 30/30/30 22/22/22 31/31/31
f 24/24/24 20/20/20 32/32/32
f 32/32/32 20/20/20 29/29/29
f 31/31/31 24/24/24 32/32/32
f 27/27/27 25/25/25 33/33/33
f 25/25/25 26/26/26 34/34/34
f 25/25/25 34/34/34 33/33/33
f 26/26/26 28/28/28 35/35/35
f 26/26/26 35/35/35 34/34/34
f 28/28/28 36/36/36 35/35/35
f 28/28/28 30/30/30 36/36/36
f 34/34/34 35/35/35 36/36/36
f 30/30/30 37/37/37 36/36/36
f 36/36/36 37/37/37 34/34/34
f 30/30/30 31/31/31 37/37/37
f 37/37/37 33/33/33 34/34/34
f 27/27/27 33/33/33 38/38/38
f 29/29/29 27/27/27 38/38/38
f 37/37/37 38/38/38 33/33/33
f 31/31/31 39/39/39 37/37/37
f 31/31/31 32/32/32 39/39/39
f 37/37/37 39/39/39 38/38/38
f 29/29/29 38/38/38 40/40/40
f 32/32/32 29/29/29 40/40/40
f 32/32/32 40/40/40 39/39/39
f 39/39/39 40/40/40 38/38/38
f 43/43/43 42/42/42 41/41/41
f 44/44/44 43/43/43 41/41/41
f 44/44/44 41/41/41 45/45/45
f 43/43/43 46/46/46 42/42/42
f 46/46/46 47/47/47 42/42/42
f 48/48/48 45/45/45 47/47/47
f 48/48/48 44/44/44 45/45/45
f 46/46/46 48/48/48 47/47/47
f 49/49/49 43/43/43 44/44/44
f 50/50/50 44/44/44 48/48/48
f 50/50/50 49/49/49 44/44/44
f 51/51/51 48/48/48 46/46/46
f 51/51/51 50/50/50 48/48/48
f 52/52/52 46/46/46 43/43/43
f 49/49/49 52/52/52 43/43/43
f 52/52/52 51/51/51 46/46/46
f 53/53/53 49/49/49 50/50/50
f 54/54/54 50/50/50 51/51/51
f 54/54/54 53/53/53 50/50/50
f 55/55/55 51/51/51 52/52/52
f 55/55/55 54/54/54 51/51/51
f 56/56/56 52/52/52 49/49/49
f 53/53/53 56/56/56 49/49/49
f 56/56/56 55/55/55 52/52/52
f 57/57/57 53/53/53 54/54/54
f 58/58/58 54/54/54 55/55/55
f 58/58/58 57/57/57 54/54/54
f 59/59/59 55/55/55 56/56/56
f 59/59/59 58/58/58 55/55/55
f 60/60/60 56/56/56 53/53/53
f 57/57/57 60/60/60 53/53/53
f 60/60/60 59/59/59 56/56/56
f 61/61/61 57/57/57 58/58/58
f 62/62/62 58/58/58 59/59/59
f 62/62/62 61/61/61 58/58/58
f 63/63/63 59/59/59 60/60/60
f 63/63/63 62/62/62 59/59/59
f 64/64/64 60/60/60 57/57/57
f 61/61/61 64/64/64 57/57/57
f 64/64/64 63/63/63 60/60/60
f 62/62/62 65/65/65 61/61/61
f 63/63/63 65/65/65 62/62/62
f 64/64/64 65/65/65 63/63/63
f 61/61/61 65/65/65 64/64/64
f 68/68/68 67/67/67 66/66/66
f 67/67/67 69/69/69 66/66/66
f 67/67/67 68/68/68 70/70/70
f 69/69/69 67/67/67 70/70/70
f 71/71/71 68/68/68 66/66/66
f 69/69/69 71/71/71 66/66/66
f 68/68/68 72/72/72 70/70/70
f 68/68/68 71/71/71 72/72/72
f 71/71/71 69/69/69 73/73/73
f 73/73/73 69/69/69 70/70/70
f 74/74/74 70/70/70 72/72/72
f 70/70/70 74/74/74 73/73/73
f 71/71/71 75/75/75 72/72/72
f 75/75/75 71/71/71 73/73/73
f 74/74/74 72/72/72 75/75/75
f 73/73/73 74/74/74 75/75/75
f 78/78/78 77/77/77 76/76/76
f 77/77/77 79/79/79 76/76/76
f 77/77/77 78/78/78 80/80/80
f 79/79/79 77/77/77 80/80/80
f 81/81/81 78/78/78 76/76/76
f 79/79/79 81/81/81 76/76/76
f 78/78/78 82/82/82 80/80/80
f 78/78/78 81/81/81 82/82/82
f 81/81/81 79/79/79 83/83/83
f 83/83/83 79/79/79 80/80/80
f 84/84/84 80/80/80 82/82/82
f 80/80/80 84/84/84 83/83/83
f 81/81/81 85/85/85 82/82/82
f 85/85/85 81/81/81 83/83/83
f 84/84/84 82/82/82 85/85/85
f 83/83/83 84/84/84 85/85/85
f 88/88/88 87/87/87 86/86/86
f 87/87/87 89/89/89 86/86/86
f 87/87/87 88/88/88 90/90/90
f 89/89/89 87/87/87 90/90/90
f 91/91/91 88/88/88 86/86/86
f 89/89/89 91/91/91 86/86/86
f 88/88/88 92/92/92 90/90/90
f 88/88/88 91/91/91 92/92/92
f 91/91/91 89/89/89 93/93/93
f 93/93/93 89/89/89 90/90/90
f 94/94/94 90/90/90 92/92/92
f 90/90/90 94/94/94 93/93/93
f 91/91/91 95/95/95 92/92/92
f 95/95/95 91/91/91 93/93/93
f 94/94/94 92/92/92 95/95/95
f 93/93/93 94/94/94 95/95/95
f 98/98/98 97/97/97 96/96/96
f 97/97/97 99/99/99 96/96/96
f 97/97/97 98/98/98 100/100/100
f 99/99/99 97/97/97 100/100/100
f 101/101/101 98/98/98 96/96/96
f 99/99/99 101/101/101 96/96/96
f 98/98/98 102/102/102 100/100/100
f 98/98/98 101/101/101 102/102/102
f 101/101/101 99/99/99 103/103/103
f 103/103/103 99/99/99 100/100/100
f 104/104/104 100/100/100 102/102/102
f 100/100/100 104/104/104 103/103/103
f 101/101/101 105/105/105 102/102/102
f 105/105/105 101/101/101 103/103/103
f 104/104/104 102/102/102 105/105/105
f 103/103/103 104/104/104 105/105/105
f 108/108/108 107/107/107 106/106/106
f 107/107/107 109/109/109 106/106/106
f 107/107/107 108/108/108 110/110/110
f 109/109/109 107/107/107 110/110/110
f 111/111/111 108/108/108 106/106/106
f 109/109/109 111/111/111 106/106/106
f 108/108/108 112/112/112 110/110/110
f 108/108/108 111/111/111 112/112/112
f 111/111/111 109/109/109 113/113/113
f 113/113/113 109/109/109 110/110/110
f 114/114/114 110/110/110 112/112/112
f 110/110/110 114/114/114 113/113/113
f 111/111/111 115/115/115 112/112/112
f 115/115/115 111/111/111 113/113/113
f 114/114/114 112/112/112 115/115/115
f 113/113/113 114/114/114 115/115/115
f 118/118/118 117/117/117 116/116/116
f 117/117/117 119/119/119 116/116/116
f 117/117/117 118/118/118 120/120/120
f 119/119/119 117/117/117 120/120/120
f 121/121/121 118/118/118 116/116/116
f 119/119/119 121/121/121 116/116/116
f 118/118/118 122/122/122 120/120/120
f 118/118/118 121/121/121 122/122/122
f 121/121/121 119/119/119 123/123/123
f 123/123/123 119/119/119 120/120/120
f 124/124/124 120/120/120 122/122/122
f 120/120/120 124/124/124 123/123/123
f 121/121/121 125/125/125 122/122/122
f 125/125/125 121/121/121 123/123/123
f 124/124/124 122/122/122 125/125/125
f 123/123/123 124/124/124 125/125/125
f 128/128/128 127/127/127 126/126/126
f 127/127/127 129/129/129 126/126/126
f 127/127/127 128/128/128 130/130/130
f 129/129/129 127/127/127 130/130/130
f 131/131/131 128/128/128 126/126/126
f 129/129/129 131/131/131 126/126/126
f 128/128/128 132/132/132 130/130/130
f 128/128/128 131/131/131 132/132/132
f 131/131/131 129/129/129 133/133/133
f 133/133/133 129/129/129 130/130/130
f 134/134/134 130/130/130 132/132/132
f 130/130/130 134/134/134 133/133/133
f 131/131/131 135/135/135 132/132/132
f 135/135/135 131/131/131 133/133/133
f 134/134/134 132/132/132 135/135/135
f 133/133/133 134/134/134 135/135/135
