g plant_Wheat
v 0.28042626 1.5782882 -0.7200194
v 0.6817939 2.0752196 -1.35074
v 0.39510274 1.6499609 -0.5527829
v 0.28042626 1.5782882 -0.7200194
v 0.07974243 0.001486659 -0.30909538
v 0.47155368 1.5687317 -0.71524125
v -0.6991018 1.8745357 0.24039602
v -1.4444989 2.2567906 -0.11318982
v -0.6369854 1.9127611 0.049268603
v 0.103633404 2.213787 0.19739234
v 0.12752438 0.001486659 0.07793772
v -0.06360316 0.001486659 0.101828575
v -0.780331 1.8506447 0.073159456
v -1.4444989 2.2567906 -0.11318982
v -0.6991018 1.8745357 0.24039602
v -0.6991018 1.8745357 0.24039602
v 0.02718246 0.001486659 0.15916681
v -0.26906514 0.001486659 0.20217049
v 0.95415056 1.5687317 0.51275265
v 0.87292135 1.3441571 0.64176357
v 1.6230966 1.4253861 1.215146
v -0.6369854 1.9127611 0.049268603
v -1.4444989 2.2567906 -0.11318982
v -0.780331 1.8506447 0.073159456
v 0.6817939 2.0752196 -1.35074
v 0.28042626 1.5782882 -0.7200194
v 0.47155368 1.5687317 -0.71524125
v 0.6817939 2.0752196 -1.35074
v 0.47155368 1.5687317 -0.71524125
v 0.39510274 1.6499609 -0.5527829
v 1.6230966 1.4253861 1.215146
v 0.6817939 1.497059 0.622651
v 0.95415056 1.5687317 0.51275265
v 0.6817939 1.497059 0.622651
v 1.6230966 1.4253861 1.215146
v 0.87292135 1.3441571 0.64176357
v 0.87292135 1.3441571 0.64176357
v 0.4811101 0.001486659 0.011043072
v 0.14663708 0.001486659 0.17350137
v 0.6817939 1.497059 0.622651
v 0.87292135 1.3441571 0.64176357
v 0.14663708 0.001486659 0.17350137
v -0.17350137 0.001486659 -0.07974243
v 0.07974243 0.001486659 -0.30909538
v 0.28042626 1.5782882 -0.7200194
v 0.95415056 1.5687317 0.51275265
v 0.046295166 0.001486659 -0.23742259
v 0.4811101 0.001486659 0.011043072
v 0.95415056 1.5687317 0.51275265
v 0.4811101 0.001486659 0.011043072
v 0.87292135 1.3441571 0.64176357
v 0.1753062 2.2759032 0.006264925
v -0.011043072 3.264988 -0.1561935
v 0.022404194 2.189896 0.034934044
v 0.103633404 2.213787 0.19739234
v -0.011043072 3.264988 -0.1561935
v 0.1753062 2.2759032 0.006264925
v 0.046295166 0.001486659 -0.23742259
v 0.6817939 1.497059 0.622651
v 0.14663708 0.001486659 0.17350137
v 0.95415056 1.5687317 0.51275265
v 0.6817939 1.497059 0.622651
v 0.046295166 0.001486659 -0.23742259
v 0.022404194 2.189896 0.034934044
v -0.011043072 3.264988 -0.1561935
v 0.103633404 2.213787 0.19739234
v 0.04151702 0.001486659 -0.13230252
v 0.02718246 0.001486659 0.15916681
v -0.6991018 1.8745357 0.24039602
v -0.6369854 1.9127611 0.049268603
v 0.13708067 0.001486659 -0.10841155
v 0.1753062 2.2759032 0.006264925
v 0.022404194 2.189896 0.034934044
v -0.09227228 0.001486659 -0.09885526
v 0.07974243 0.001486659 0.07793772
v 0.39510274 1.6499609 -0.5527829
v 0.47155368 1.5687317 -0.71524125
v 0.07974243 0.001486659 -0.30909538
v 0.13708067 0.001486659 -0.10841155
v 0.12752438 0.001486659 0.07793772
v 0.103633404 2.213787 0.19739234
v 0.1753062 2.2759032 0.006264925
v 0.39510274 1.6499609 -0.5527829
v 0.07974243 0.001486659 0.07793772
v -0.17350137 0.001486659 -0.07974243
v 0.28042626 1.5782882 -0.7200194
v 0.04151702 0.001486659 -0.13230252
v -0.6369854 1.9127611 0.049268603
v -0.780331 1.8506447 0.073159456
v -0.31684697 0.001486659 -0.11318982
v -0.780331 1.8506447 0.073159456
v -0.6991018 1.8745357 0.24039602
v -0.26906514 0.001486659 0.20217049
v -0.31684697 0.001486659 -0.11318982
v 0.022404194 2.189896 0.034934044
v 0.103633404 2.213787 0.19739234
v -0.06360316 0.001486659 0.101828575
v -0.09227228 0.001486659 -0.09885526
vt 0.030870438 0.3406186
vt 0.030870438 0.3406186
vt 0.030870438 0.3406186
vt 0.030870438 0.3406186
vt 0.030870438 0.3406186
vt 0.030870438 0.3406186
vt 0.030870438 0.3406186
vt 0.030870438 0.3406186
vt 0.030870438 0.3406186
vt 0.030870438 0.3406186
vt 0.030870438 0.3406186
vt 0.030870438 0.3406186
vt 0.030870438 0.3406186
vt 0.030870438 0.3406186
vt 0.030870438 0.3406186
vt 0.030870438 0.3406186
vt 0.030870438 0.3406186
vt 0.030870438 0.3406186
vt 0.030870438 0.3406186
vt 0.030870438 0.3406186
vt 0.030870438 0.3406186
vt 0.030870438 0.3406186
vt 0.030870438 0.3406186
vt 0.030870438 0.3406186
vt 0.030870438 0.3406186
vt 0.030870438 0.3406186
vt 0.030870438 0.3406186
vt 0.030870438 0.3406186
vt 0.030870438 0.3406186
vt 0.030870438 0.3406186
vt 0.030870438 0.3406186
vt 0.030870438 0.3406186
vt 0.030870438 0.3406186
vt 0.030870438 0.3406186
vt 0.030870438 0.3406186
vt 0.030870438 0.3406186
vt 0.030870438 0.3406186
vt 0.030870438 0.3406186
vt 0.030870438 0.3406186
vt 0.030870438 0.3406186
vt 0.030870438 0.3406186
vt 0.030870438 0.3406186
vt 0.030870438 0.3406186
vt 0.030870438 0.3406186
vt 0.030870438 0.3406186
vt 0.030870438 0.3406186
vt 0.030870438 0.3406186
vt 0.030870438 0.3406186
vt 0.030870438 0.3406186
vt 0.030870438 0.3406186
vt 0.030870438 0.3406186
vt 0.030870438 0.3406186
vt 0.030870438 0.3406186
vt 0.030870438 0.3406186
vt 0.030870438 0.3406186
vt 0.030870438 0.3406186
vt 0.030870438 0.3406186
vt 0.030870438 0.3406186
vt 0.030870438 0.3406186
vt 0.030870438 0.3406186
vt 0.030870438 0.3406186
vt 0.030870438 0.3406186
vt 0.030870438 0.3406186
vt 0.030870438 0.3406186
vt 0.030870438 0.3406186
vt 0.030870438 0.3406186
vt 0.030870438 0.3406186
vt 0.030870438 0.3406186
vt 0.030870438 0.3406186
vt 0.030870438 0.3406186
vt 0.030870438 0.3406186
vt 0.030870438 0.3406186
vt 0.030870438 0.3406186
vt 0.030870438 0.3406186
vt 0.030870438 0.3406186
vt 0.030870438 0.3406186
vt 0.030870438 0.3406186
vt 0.030870438 0.3406186
vt 0.030870438 0.3406186
vt 0.030870438 0.3406186
vt 0.030870438 0.3406186
vt 0.030870438 0.3406186
vt 0.030870438 0.3406186
vt 0.030870438 0.3406186
vt 0.030870438 0.3406186
vt 0.030870438 0.3406186
vt 0.030870438 0.3406186
vt 0.030870438 0.3406186
vt 0.030870438 0.3406186
vt 0.030870438 0.3406186
vt 0.030870438 0.3406186
vt 0.030870438 0.3406186
vt 0.030870438 0.3406186
vt 0.030870438 0.3406186
vt 0.030870438 0.3406186
vt 0.030870438 0.3406186
vt 0.030870438 0.3406186
vt 0.030870438 0.3406186
vn -0.67870945 0.70939666 0.19002596
vn -0.67870945 0.70939666 0.19002596
vn -0.67870945 0.70939666 0.19002596
vn -0.0035902262 -0.24190766 -0.9702926
vn -0.0035902262 -0.24190766 -0.9702926
vn -0.0035902262 -0.24190766 -0.9702926
vn 0.3339694 0.89352006 0.30014387
vn 0.3339694 0.89352006 0.30014387
vn 0.3339694 0.89352006 0.30014387
vn 0.14984596 -0.05778426 0.98701936
vn 0.14984596 -0.05778426 0.98701936
vn 0.14984596 -0.05778426 0.98701936
vn -0.5559605 -0.7329035 0.39212298
vn -0.5559605 -0.7329035 0.39212298
vn -0.5559605 -0.7329035 0.39212298
vn 0.14984596 0.0035902262 0.98870283
vn 0.14984596 0.0035902262 0.98870283
vn 0.14984596 0.0035902262 0.98870283
vn 0.5487801 -0.5794673 -0.602543
vn 0.5487801 -0.5794673 -0.602543
vn 0.5487801 -0.5794673 -0.602543
vn 0.027097046 -0.39534384 -0.91813344
vn 0.027097046 -0.39534384 -0.91813344
vn 0.027097046 -0.39534384 -0.91813344
vn -0.0342775 -0.7635907 -0.6447901
vn -0.0342775 -0.7635907 -0.6447901
vn -0.0342775 -0.7635907 -0.6447901
vn 0.9170269 0.12633914 0.37828583
vn 0.9170269 0.12633914 0.37828583
vn 0.9170269 0.12633914 0.37828583
vn -0.12633914 0.9548945 0.2687284
vn -0.12633914 0.9548945 0.2687284
vn -0.12633914 0.9548945 0.2687284
vn -0.49458605 -0.5180928 0.6978284
vn -0.49458605 -0.5180928 0.6978284
vn -0.49458605 -0.5180928 0.6978284
vn 0.39534384 -0.48740557 0.7785493
vn 0.39534384 -0.48740557 0.7785493
vn 0.39534384 -0.48740557 0.7785493
vn -0.24908811 -0.18053323 0.9515056
vn -0.24908811 -0.18053323 0.9515056
vn -0.24908811 -0.18053323 0.9515056
vn -0.67870945 -0.08847153 -0.7290585
vn -0.67870945 -0.08847153 -0.7290585
vn -0.67870945 -0.08847153 -0.7290585
vn 0.48740557 0.12633914 -0.8639874
vn 0.48740557 0.12633914 -0.8639874
vn 0.48740557 0.12633914 -0.8639874
vn 0.94771415 -0.30328214 0.09928655
vn 0.94771415 -0.30328214 0.09928655
vn 0.94771415 -0.30328214 0.09928655
vn -0.06496471 -0.18053323 -0.98142105
vn -0.06496471 -0.18053323 -0.98142105
vn -0.06496471 -0.18053323 -0.98142105
vn 0.88633966 0.2184009 0.4082929
vn 0.88633966 0.2184009 0.4082929
vn 0.88633966 0.2184009 0.4082929
vn -0.92420727 0.27977532 0.25993598
vn -0.92420727 0.27977532 0.25993598
vn -0.92420727 0.27977532 0.25993598
vn -0.4332115 0.5866477 -0.68423116
vn -0.4332115 0.5866477 -0.68423116
vn -0.4332115 0.5866477 -0.68423116
vn -0.89352006 0.06496471 0.44429886
vn -0.89352006 0.06496471 0.44429886
vn -0.89352006 0.06496471 0.44429886
vn 0.9170269 0.34114987 0.20658775
vn 0.9170269 0.34114987 0.20658775
vn 0.9170269 0.34114987 0.20658775
vn 0.9170269 0.34114987 0.20658775
vn -0.095651925 0.06496471 -0.9932926
vn -0.095651925 0.06496471 -0.9932926
vn -0.095651925 0.06496471 -0.9932926
vn -0.095651925 0.06496471 -0.9932926
vn 0.97840136 -0.14984596 0.1423971
vn 0.97840136 -0.14984596 0.1423971
vn 0.97840136 -0.14984596 0.1423971
vn 0.97840136 -0.14984596 0.1423971
vn 0.97840136 -0.027097046 0.20493047
vn 0.97840136 -0.027097046 0.20493047
vn 0.97840136 -0.027097046 0.20493047
vn 0.97840136 -0.027097046 0.20493047
vn -0.64802223 0.4025243 0.64656115
vn -0.64802223 0.4025243 0.64656115
vn -0.64802223 0.4025243 0.64656115
vn -0.64802223 0.4025243 0.64656115
vn -0.095651925 0.06496471 -0.9932926
vn -0.095651925 0.06496471 -0.9932926
vn -0.095651925 0.06496471 -0.9932926
vn -0.095651925 0.06496471 -0.9932926
vn -0.92420727 -0.24190766 0.29550233
vn -0.92420727 -0.24190766 0.29550233
vn -0.92420727 -0.24190766 0.29550233
vn -0.92420727 -0.24190766 0.29550233
vn -0.9548945 0.0342775 0.29496035
vn -0.9548945 0.0342775 0.29496035
vn -0.9548945 0.0342775 0.29496035
vn -0.9548945 0.0342775 0.29496035
g plant_Wheat_0
f 3/3/3 2/2/2 1/1/1
f 6/6/6 5/5/5 4/4/4
f 9/9/9 8/8/8 7/7/7
f 12/12/12 11/11/11 10/10/10
f 15/15/15 14/14/14 13/13/13
f 18/18/18 17/17/17 16/16/16
f 21/21/21 20/20/20 19/19/19
f 24/24/24 23/23/23 22/22/22
f 27/27/27 26/26/26 25/25/25
f 30/30/30 29/29/29 28/28/28
f 33/33/33 32/32/32 31/31/31
f 36/36/36 35/35/35 34/34/34
f 39/39/39 38/38/38 37/37/37
f 42/42/42 41/41/41 40/40/40
f 45/45/45 44/44/44 43/43/43
f 48/48/48 47/47/47 46/46/46
f 51/51/51 50/50/50 49/49/49
f 54/54/54 53/53/53 52/52/52
f 57/57/57 56/56/56 55/55/55
f 60/60/60 59/59/59 58/58/58
f 63/63/63 62/62/62 61/61/61
f 66/66/66 65/65/65 64/64/64
f 69/69/69 68/68/68 67/67/67
f 70/70/70 69/69/69 67/67/67
f 73/73/73 72/72/72 71/71/71
f 74/74/74 73/73/73 71/71/71
f 77/77/77 76/76/76 75/75/75
f 78/78/78 77/77/77 75/75/75
f 81/81/81 80/80/80 79/79/79
f 82/82/82 81/81/81 79/79/79
f 85/85/85 84/84/84 83/83/83
f 86/86/86 85/85/85 83/83/83
f 89/89/89 88/88/88 87/87/87
f 90/90/90 89/89/89 87/87/87
f 93/93/93 92/92/92 91/91/91
f 94/94/94 93/93/93 91/91/91
f 97/97/97 96/96/96 95/95/95
f 98/98/98 97/97/97 95/95/95
