g Plane
v -8.825601 1.4419336 -5.6902227
v -8.160892 1.3880377 -7.792143
v -6.1847277 1.3880377 -8.277202
v -6.8314724 2.8611784 -5.9237695
v -9.31066 1.5317593 -3.4805121
v -4.0828075 1.406003 -8.618539
v -7.0470533 3.7953653 -3.5883026
v -9.562171 1.6036196 -1.2348709
v -4.6756563 3.9570513 -5.9596996
v -1.8551311 1.4419336 -8.79819
v -7.136879 4.1367025 -1.2169056
v -9.580136 1.6934452 1.0467005
v -2.394085 4.2983885 -5.9956303
v 0.42644024 1.4778633 -8.780225
v -4.927169 5.034959 -3.6242328
v -7.136879 4.118737 1.1544914
v -9.38252 1.7653055 3.2923412
v -0.004723549 4.280424 -5.9956303
v 2.7259765 1.513794 -8.600574
v -2.6455975 5.322401 -3.642198
v -5.034959 5.322401 -1.2528358
v -7.0650187 3.7414703 3.5258884
v -8.951358 1.8551311 5.4661226
v 2.4385343 3.9031563 -6.013595
v 5.007548 1.5497246 -8.259236
v -5.034959 5.322401 1.1185608
v -0.27420044 5.322401 -3.642198
v -2.7533875 5.5559483 -1.2708011
v -6.8494368 2.843213 5.8972855
v -8.322577 1.9449568 7.532111
v -6.364379 1.9988527 8.106996
v 5.0255127 2.9150743 -6.03156
v 7.235224 1.6036196 -7.7741776
v 7.5945263 1.6934452 -5.6542926
v -4.945133 5.034959 3.5079231
v -4.6756563 3.7774 5.8972855
v -4.3522844 2.0347824 8.502229
v 2.1870227 5.034959 -3.642198
v 4.8099318 3.9750166 -3.6601634
v 7.828073 1.7832708 -3.4266167
v -2.7533875 5.5559483 1.1005955
v -0.38199043 5.5559483 -1.2708011
v -2.5557718 4.819378 5.87932
v -2.2144337 2.070713 8.717811
v -2.6455975 5.322401 3.4899578
v 2.097197 5.322401 -1.2708011
v 4.738071 4.316354 -1.2887664
v 7.953829 1.8551311 -1.1630101
v -0.38199043 5.5559483 1.1005955
v -0.27420044 5.1786804 5.861355
v 0.031207085 2.1066427 8.735776
v -0.38199043 5.5559483 3.4719925
v 2.097197 5.322401 1.1005955
v 4.738071 4.280424 1.0826311
v 7.935864 1.9449568 1.1185608
v 2.097197 5.322401 3.4899578
v 2.1870227 4.7475176 5.861355
v 2.3307438 2.1425734 8.556125
v 4.738071 4.208563 3.4540281
v 7.7202826 2.016817 3.3821669
v 4.8099318 3.6516447 5.825425
v 4.6482453 2.1605387 8.160892
v 7.378945 2.1066427 5.537983
v 6.9298167 2.1605387 7.6039724
vt 0.279441 0.8465299
vt 0.279441 0.8465299
vt 0.279441 0.8465299
vt 0.279441 0.8465299
vt 0.279441 0.8465299
vt 0.279441 0.8465299
vt 0.279441 0.8465299
vt 0.279441 0.8465299
vt 0.279441 0.8465299
vt 0.279441 0.8465299
vt 0.279441 0.8465299
vt 0.279441 0.8465299
vt 0.279441 0.8465299
vt 0.279441 0.8465299
vt 0.279441 0.8465299
vt 0.279441 0.8465299
vt 0.279441 0.8465299
vt 0.279441 0.8465299
vt 0.279441 0.8465299
vt 0.279441 0.8465299
vt 0.279441 0.8465299
vt 0.279441 0.8465299
vt 0.279441 0.8465299
vt 0.279441 0.8465299
vt 0.279441 0.8465299
vt 0.279441 0.8465299
vt 0.279441 0.8465299
vt 0.279441 0.8465299
vt 0.279441 0.8465299
vt 0.279441 0.8465299
vt 0.279441 0.8465299
vt 0.279441 0.8465299
vt 0.279441 0.8465299
vt 0.279441 0.8465299
vt 0.279441 0.8465299
vt 0.279441 0.8465299
vt 0.279441 0.8465299
vt 0.279441 0.8465299
vt 0.279441 0.8465299
vt 0.279441 0.8465299
vt 0.279441 0.8465299
vt 0.279441 0.8465299
vt 0.279441 0.8465299
vt 0.279441 0.8465299
vt 0.279441 0.8465299
vt 0.279441 0.8465299
vt 0.279441 0.8465299
vt 0.279441 0.8465299
vt 0.279441 0.8465299
vt 0.279441 0.8465299
vt 0.279441 0.8465299
vt 0.279441 0.8465299
vt 0.279441 0.8465299
vt 0.279441 0.8465299
vt 0.279441 0.8465299
vt 0.279441 0.8465299
vt 0.279441 0.8465299
vt 0.279441 0.8465299
vt 0.279441 0.8465299
vt 0.279441 0.8465299
vt 0.279441 0.8465299
vt 0.279441 0.8465299
vt 0.279441 0.8465299
vt 0.279441 0.8465299
vn -0.54264385 0.7709829 -0.3333512
vn -0.36504686 0.847096 -0.3862242
vn -0.2889338 0.7709829 -0.5675408
vn -0.4411599 0.796354 -0.4137611
vn -0.6943178 0.71966857 -0
vn -0.1620788 0.7202409 -0.67452466
vn -0.5933859 0.7709829 -0.23125428
vn -0.71966857 0.6943178 -0
vn -0.23819178 0.796354 -0.5559541
vn -0.035223782 0.69486994 -0.71827227
vn -0.61355156 0.78965455 -0
vn -0.6943178 0.71966857 -0
vn -0.060594738 0.82172495 -0.5666537
vn 0.040889263 0.7202409 -0.692518
vn -0.31430483 0.923209 -0.22112794
vn -0.5933859 0.796354 0.11710457
vn -0.64114857 0.76741683 -0
vn 0.040889263 0.82172495 -0.5684155
vn 0.1423733 0.74561197 -0.6509935
vn -0.060594738 0.97395104 -0.2185124
vn -0.31430483 0.94857997 -0.03753022
vn -0.54264385 0.796354 0.26712912
vn -0.46653086 0.847096 0.2545139
vn 0.1931153 0.82172495 -0.5361666
vn 0.24385732 0.847096 -0.4721884
vn -0.31430483 0.94857997 0.03753022
vn 0.06626028 0.97395104 -0.2168616
vn -0.060524683 0.9981667 -0
vn -0.39041787 0.847096 0.36055818
vn -0.2889338 0.923209 0.25338185
vn -0.2635628 0.872467 0.4115046
vn 0.34534135 0.847096 -0.40394017
vn 0.29459932 0.89783794 -0.32725874
vn 0.42145437 0.872467 -0.24734108
vn -0.33967584 0.89783794 0.28019166
vn -0.2889338 0.82172495 0.49120808
vn -0.23819178 0.796354 0.5559541
vn 0.24385732 0.94857997 -0.20181586
vn 0.44682539 0.872467 -0.19785967
vn 0.57243925 0.8199472 -0
vn -0.060524683 0.9981667 -0
vn 0.040882796 0.9991639 -0
vn -0.1620788 0.847096 0.5061213
vn -0.13670778 0.7202409 0.6801206
vn -0.13670778 0.97395104 0.18091528
vn 0.24288204 0.9700558 -0
vn 0.4721964 0.872467 -0.12582506
vn 0.5990514 0.796354 -0.08341253
vn 0.040882796 0.9991639 -0
vn 0.015518248 0.89783794 0.44005257
vn 0.015518248 0.69486994 0.718968
vn 0.015518248 0.999322 0.033387512
vn 0.24288204 0.9700558 -0
vn 0.49539933 0.86866534 -0
vn 0.5990514 0.796354 0.08341253
vn 0.24288204 0.9700558 -0
vn 0.21848631 0.872467 0.43710992
vn 0.1423733 0.7202409 0.6789572
vn 0.4721964 0.872467 0.12582506
vn 0.57243925 0.8199472 -0
vn 0.39608335 0.872467 0.2862155
vn 0.26922834 0.82172495 0.50227904
vn 0.4721964 0.847096 0.24384198
vn 0.34534135 0.872467 0.34574658
g Plane_0
f 3/3/3 2/2/2 1/1/1
f 4/4/4 3/3/3 1/1/1
f 4/4/4 1/1/1 5/5/5
f 6/6/6 3/3/3 4/4/4
f 7/7/7 4/4/4 5/5/5
f 7/7/7 5/5/5 8/8/8
f 9/9/9 6/6/6 4/4/4
f 9/9/9 4/4/4 7/7/7
f 10/10/10 6/6/6 9/9/9
f 11/11/11 7/7/7 8/8/8
f 11/11/11 8/8/8 12/12/12
f 13/13/13 10/10/10 9/9/9
f 14/14/14 10/10/10 13/13/13
f 15/15/15 9/9/9 7/7/7
f 15/15/15 7/7/7 11/11/11
f 13/13/13 9/9/9 15/15/15
f 16/16/16 11/11/11 12/12/12
f 16/16/16 12/12/12 17/17/17
f 18/18/18 14/14/14 13/13/13
f 19/19/19 14/14/14 18/18/18
f 20/20/20 13/13/13 15/15/15
f 18/18/18 13/13/13 20/20/20
f 21/21/21 15/15/15 11/11/11
f 21/21/21 11/11/11 16/16/16
f 20/20/20 15/15/15 21/21/21
f 22/22/22 16/16/16 17/17/17
f 22/22/22 17/17/17 23/23/23
f 24/24/24 19/19/19 18/18/18
f 25/25/25 19/19/19 24/24/24
f 26/26/26 21/21/21 16/16/16
f 26/26/26 16/16/16 22/22/22
f 27/27/27 18/18/18 20/20/20
f 24/24/24 18/18/18 27/27/27
f 28/28/28 20/20/20 21/21/21
f 28/28/28 21/21/21 26/26/26
f 27/27/27 20/20/20 28/28/28
f 29/29/29 22/22/22 23/23/23
f 29/29/29 23/23/23 30/30/30
f 31/31/31 29/29/29 30/30/30
f 32/32/32 25/25/25 24/24/24
f 33/33/33 25/25/25 32/32/32
f 34/34/34 33/33/33 32/32/32
f 35/35/35 26/26/26 22/22/22
f 35/35/35 22/22/22 29/29/29
f 36/36/36 29/29/29 31/31/31
f 36/36/36 35/35/35 29/29/29
f 37/37/37 36/36/36 31/31/31
f 38/38/38 24/24/24 27/27/27
f 32/32/32 24/24/24 38/38/38
f 34/34/34 32/32/32 39/39/39
f 39/39/39 32/32/32 38/38/38
f 40/40/40 34/34/34 39/39/39
f 41/41/41 26/26/26 35/35/35
f 41/41/41 28/28/28 26/26/26
f 42/42/42 27/27/27 28/28/28
f 38/38/38 27/27/27 42/42/42
f 42/42/42 28/28/28 41/41/41
f 43/43/43 36/36/36 37/37/37
f 44/44/44 43/43/43 37/37/37
f 45/45/45 35/35/35 36/36/36
f 45/45/45 41/41/41 35/35/35
f 43/43/43 45/45/45 36/36/36
f 39/39/39 38/38/38 46/46/46
f 46/46/46 38/38/38 42/42/42
f 40/40/40 39/39/39 47/47/47
f 47/47/47 39/39/39 46/46/46
f 48/48/48 40/40/40 47/47/47
f 49/49/49 42/42/42 41/41/41
f 49/49/49 41/41/41 45/45/45
f 46/46/46 42/42/42 49/49/49
f 50/50/50 43/43/43 44/44/44
f 51/51/51 50/50/50 44/44/44
f 52/52/52 45/45/45 43/43/43
f 52/52/52 49/49/49 45/45/45
f 50/50/50 52/52/52 43/43/43
f 53/53/53 46/46/46 49/49/49
f 47/47/47 46/46/46 53/53/53
f 53/53/53 49/49/49 52/52/52
f 48/48/48 47/47/47 54/54/54
f 54/54/54 47/47/47 53/53/53
f 55/55/55 48/48/48 54/54/54
f 56/56/56 53/53/53 52/52/52
f 56/56/56 52/52/52 50/50/50
f 54/54/54 53/53/53 56/56/56
f 57/57/57 50/50/50 51/51/51
f 57/57/57 56/56/56 50/50/50
f 58/58/58 57/57/57 51/51/51
f 55/55/55 54/54/54 59/59/59
f 59/59/59 54/54/54 56/56/56
f 59/59/59 56/56/56 57/57/57
f 60/60/60 55/55/55 59/59/59
f 61/61/61 57/57/57 58/58/58
f 61/61/61 59/59/59 57/57/57
f 60/60/60 59/59/59 61/61/61
f 62/62/62 61/61/61 58/58/58
f 63/63/63 60/60/60 61/61/61
f 63/63/63 61/61/61 62/62/62
f 64/64/64 63/63/63 62/62/62
