g plant_Field04
v -7.499693 0.007329464 5.007126
v -7.499693 0.007329464 -5.0071287
v 7.499696 0.007329464 -5.0071287
v 7.499696 0.007329464 5.007126
v 2.998413 0.03665352 4.552599
v 2.998413 0.03665352 0.5644913
v 7.0011826 0.03665352 0.5644913
v 7.0011826 0.03665352 4.552599
v -2.0013828 0.03665352 4.552599
v -2.0013828 0.03665352 0.5644913
v 2.0013862 0.03665352 0.5644913
v 2.0013862 0.03665352 4.552599
v 2.998413 0.03665352 -0.5644946
v 2.998413 0.03665352 -4.552602
v 7.0011826 0.03665352 -4.552602
v 7.0011826 0.03665352 -0.5644946
v -2.0013828 0.03665352 -0.5644946
v -2.0013828 0.03665352 -4.552602
v 2.0013862 0.03665352 -4.552602
v 2.0013862 0.03665352 -0.5644946
v -7.0011787 0.03665352 4.552599
v -7.0011787 0.03665352 0.5644913
v -2.9984102 0.03665352 0.5644913
v -2.9984102 0.03665352 4.552599
v -7.0011787 0.03665352 -0.5644946
v -7.0011787 0.03665352 -4.552602
v -2.9984102 0.03665352 -4.552602
v -2.9984102 0.03665352 -0.5644946
vt 0.15563446 0.33994818
vt 0.15563446 0.33994818
vt 0.15563446 0.33994818
vt 0.15563446 0.33994818
vt 0.28014427 0.08994818
vt 0.28014427 0.08994818
vt 0.28014427 0.08994818
vt 0.28014427 0.08994818
vt 0.28014427 0.08994818
vt 0.28014427 0.08994818
vt 0.28014427 0.08994818
vt 0.28014427 0.08994818
vt 0.28014427 0.08994818
vt 0.28014427 0.08994818
vt 0.28014427 0.08994818
vt 0.28014427 0.08994818
vt 0.28014427 0.08994818
vt 0.28014427 0.08994818
vt 0.28014427 0.08994818
vt 0.28014427 0.08994818
vt 0.28014427 0.08994818
vt 0.28014427 0.08994818
vt 0.28014427 0.08994818
vt 0.28014427 0.08994818
vt 0.28014427 0.08994818
vt 0.28014427 0.08994818
vt 0.28014427 0.08994818
vt 0.28014427 0.08994818
vn -0 1 -0
vn -0 1 -0
vn -0 1 -0
vn -0 1 -0
vn -0 1 -0
vn -0 1 -0
vn -0 1 -0
vn -0 1 -0
vn -0 1 -0
vn -0 1 -0
vn -0 1 -0
vn -0 1 -0
vn -0 1 -0
vn -0 1 -0
vn -0 1 -0
vn -0 1 -0
vn -0 1 -0
vn -0 1 -0
vn -0 1 -0
vn -0 1 -0
vn -0 1 -0
vn -0 1 -0
vn -0 1 -0
vn -0 1 -0
vn -0 1 -0
vn -0 1 -0
vn -0 1 -0
vn -0 1 -0
g plant_Field04_0
f 3/3/3 2/2/2 1/1/1
f 4/4/4 3/3/3 1/1/1
f 7/7/7 6/6/6 5/5/5
f 8/8/8 7/7/7 5/5/5
f 11/11/11 10/10/10 9/9/9
f 12/12/12 11/11/11 9/9/9
f 15/15/15 14/14/14 13/13/13
f 16/16/16 15/15/15 13/13/13
f 19/19/19 18/18/18 17/17/17
f 20/20/20 19/19/19 17/17/17
f 23/23/23 22/22/22 21/21/21
f 24/24/24 23/23/23 21/21/21
f 27/27/27 26/26/26 25/25/25
f 28/28/28 27/27/27 25/25/25
