g plant_Carrot
v 0.73540163 0.5488374 0.7880583
v 0.2737472 0.7041211 0.5740185
v 0.5087712 0.6243808 0.54464054
v 0.8403231 0.51526237 1.1070197
v 0.48359013 0.6369715 0.9937043
v 0.23177862 0.72090864 0.77546763
v 0.37027478 0.67894006 1.2413192
v 0.21079421 0.7293024 0.9979012
v 0.34089684 0.6369715 -0.47939324
v 0.13105392 0.72090864 -0.22338486
v -0.07039547 0.7041211 -0.26115656
v 0.4500153 0.51526237 -0.8361263
v 0.1352508 0.5488374 -0.727008
v -0.10397029 0.6243808 -0.49618077
v -0.4942782 0.89717674 -0.5801178
v -0.16692305 1.0230825 -0.34509373
v -0.3557818 0.9559326 -0.35768437
v -0.5320499 0.87199545 -0.8403231
v -0.27184463 0.96852326 -0.7018268
v -0.10816717 1.0356731 -0.49618077
v -0.14593887 1.0020981 -0.8780949
v -0.057804823 1.0398698 -0.6682519
v -0.61598706 0.26345086 0.4313252
v -0.35997868 0.33060074 0.3767662
v -0.2550571 0.3180101 0.49847507
v -0.85940504 0.16692305 0.59919953
v -0.6075933 0.19210434 0.6873336
v -0.34738803 0.2508602 0.6621525
v -1.2581065 0.27184463 -0.021935463
v -1.7533362 -0.114266396 -0.080691576
v -1.2035475 -0.114266396 -1.1257095
v -1.1741693 -0.114266396 1.2581065
v -0.87619233 0.36417556 -0.86970115
v 0.009345055 0.44391584 0.07039547
v 0.030329227 -0.114266396 -1.6838919
v -0.93075156 0.43971896 0.888783
v -0.020033121 -0.114266396 1.7029736
v 0.042919874 0.38515973 -1.2138436
v 1.2138436 -0.114266396 -1.2684028
v 0.873898 0.38096285 -0.6808425
v 1.7594354 -0.114266396 0.16272616
v 1.2767966 0.33479762 0.09137964
v 1.2432216 -0.114266396 1.2287285
v 0.75218904 0.3515849 0.7251055
v -0.095576525 0.30961633 1.1070197
v -0.32640386 0.30961633 0.47329378
v -0.15433264 0.34738803 0.46490026
v -0.24666357 0.28443527 0.590806
v 0.16882563 -2.460311 -0.2527628
v 0.2149911 0.15852952 0.40194726
v -0.095576525 -2.5190668 -0.26955032
v 0.076494694 0.19630122 0.41034102
v 0.14784145 0.22987604 0.27184463
v 0.37027478 0.65795565 0.6033964
v 0.23177862 0.69572735 0.6117902
v 0.30312514 0.7293024 0.4690969
v 0.03452611 0.47749066 -0.12266016
v 0.07229781 -2.5400512 0.17111993
v -0.12075758 0.43971896 -0.114266396
v -0.045214176 0.4145379 -0.2737472
v -0.15852952 0.9601295 -0.4542122
v -0.22987604 0.9811139 -0.30312514
v -0.08718276 1.0188856 -0.3115189
vt 0.21508859 0.4589309
vt 0.21508859 0.4589309
vt 0.21508859 0.4589309
vt 0.21508859 0.4589309
vt 0.21508859 0.4589309
vt 0.21508859 0.4589309
vt 0.21508859 0.4589309
vt 0.21508859 0.4589309
vt 0.21508859 0.4589309
vt 0.21508859 0.4589309
vt 0.21508859 0.4589309
vt 0.21508859 0.4589309
vt 0.21508859 0.4589309
vt 0.21508859 0.4589309
vt 0.21508859 0.4589309
vt 0.21508859 0.4589309
vt 0.21508859 0.4589309
vt 0.21508859 0.4589309
vt 0.21508859 0.4589309
vt 0.21508859 0.4589309
vt 0.21508859 0.4589309
vt 0.21508859 0.4589309
vt 0.21508859 0.4589309
vt 0.21508859 0.4589309
vt 0.21508859 0.4589309
vt 0.21508859 0.4589309
vt 0.21508859 0.4589309
vt 0.21508859 0.4589309
vt 0.2830689 0.09242852
vt 0.2830689 0.09242852
vt 0.2830689 0.09242852
vt 0.2830689 0.09242852
vt 0.2830689 0.09242852
vt 0.2830689 0.09242852
vt 0.2830689 0.09242852
vt 0.2830689 0.09242852
vt 0.2830689 0.09242852
vt 0.2830689 0.09242852
vt 0.2830689 0.09242852
vt 0.2830689 0.09242852
vt 0.2830689 0.09242852
vt 0.2830689 0.09242852
vt 0.2830689 0.09242852
vt 0.2830689 0.09242852
vt 0.2830689 0.09242852
vt 0.15597531 0.4692757
vt 0.15597531 0.4692757
vt 0.15597531 0.4692757
vt 0.15597531 0.4692757
vt 0.15597531 0.4692757
vt 0.15597531 0.4692757
vt 0.15597531 0.4692757
vt 0.15597531 0.4692757
vt 0.15597531 0.4692757
vt 0.15597531 0.4692757
vt 0.15597531 0.4692757
vt 0.15597531 0.4692757
vt 0.15597531 0.4692757
vt 0.15597531 0.4692757
vt 0.15597531 0.4692757
vt 0.15597531 0.4692757
vt 0.15597531 0.4692757
vt 0.15597531 0.4692757
vn 0.3285945 0.9365423 -0.12212377
vn 0.3285945 0.9365423 -0.12212377
vn 0.3285945 0.9365423 -0.12212377
vn 0.3285945 0.9365423 -0.12212377
vn 0.3285945 0.9365423 -0.12212377
vn 0.3285945 0.9365423 -0.12212377
vn 0.3285945 0.9365423 -0.12212377
vn 0.3285945 0.9365423 -0.12212377
vn -0.019318104 0.9365423 -0.35002196
vn -0.019318104 0.9365423 -0.35002196
vn -0.019318104 0.9365423 -0.35002196
vn -0.019318104 0.9365423 -0.35002196
vn -0.019318104 0.9365423 -0.35002196
vn -0.019318104 0.9365423 -0.35002196
vn -0.33560228 0.9365423 -0.101290114
vn -0.33560228 0.9365423 -0.101290114
vn -0.33560228 0.9365423 -0.101290114
vn -0.33560228 0.9365423 -0.101290114
vn -0.33560228 0.9365423 -0.101290114
vn -0.33560228 0.9365423 -0.101290114
vn -0.33560228 0.9365423 -0.101290114
vn -0.33560228 0.9365423 -0.101290114
vn -0.1774602 0.9365423 0.30231845
vn -0.1774602 0.9365423 0.30231845
vn -0.1774602 0.9365423 0.30231845
vn -0.1774602 0.9365423 0.30231845
vn -0.1774602 0.9365423 0.30231845
vn -0.1774602 0.9365423 0.30231845
vn -0.49216923 0.87049943 -0
vn -0.6202581 0.7784002 -0.09681461
vn -0.52537274 0.68351483 -0.50674546
vn -0.52537274 0.65188646 0.54683405
vn -0.36723065 0.8732854 -0.3201784
vn 0.012310326 0.999799 0.015824005
vn -0.019318104 0.68351483 -0.72968096
vn -0.39885914 0.8732854 0.27979273
vn 0.043938756 0.7784002 0.62622887
vn 0.012310326 0.8732854 -0.48705345
vn 0.45510817 0.7784002 -0.43239993
vn 0.3285945 0.9049138 -0.27047497
vn 0.67138064 0.74111277 -0
vn 0.4867366 0.8732854 0.021449668
vn 0.36022294 0.81002855 0.46270207
vn 0.20208085 0.9365423 0.286447
vn 0.075567186 0.9049138 0.41883248
vn -0.8416569 0.49374437 -0.21870102
vn 0.61325026 0.7467717 -0.25740272
vn -0.08257496 0.27234542 0.95864975
vn 0.13882399 -0.96116287 -0.23852439
vn 0.8346492 -0.3285945 0.44202527
vn -0.08257496 -0.96116287 -0.2633388
vn -0.8732854 -0.012310326 0.48705342
vn -0.050946474 0.3039738 -0.9513172
vn 0.8346492 0.1458317 0.53112507
vn -0.52537274 0.52537274 0.6693033
vn 0.17045242 0.81002855 -0.56107014
vn 0.8346492 0.20908856 0.5095514
vn 0.043938756 -0.9927913 0.11151162
vn -0.81002855 0.019318104 0.58607215
vn 0.043938756 -0.23370928 -0.97131324
vn -0.114203334 0.27234542 -0.95539814
vn -0.81002855 0.49374437 0.31633884
vn 0.5499934 0.81002855 0.20337412
g plant_Carrot_0
f 3/3/3 2/2/2 1/1/1
f 1/1/1 2/2/2 4/4/4
f 2/2/2 5/5/5 4/4/4
f 2/2/2 6/6/6 5/5/5
f 6/6/6 7/7/7 5/5/5
f 6/6/6 8/8/8 7/7/7
f 11/11/11 10/10/10 9/9/9
f 11/11/11 9/9/9 12/12/12
f 13/13/13 11/11/11 12/12/12
f 14/14/14 11/11/11 13/13/13
f 17/17/17 16/16/16 15/15/15
f 15/15/15 16/16/16 18/18/18
f 16/16/16 19/19/19 18/18/18
f 16/16/16 20/20/20 19/19/19
f 20/20/20 21/21/21 19/19/19
f 20/20/20 22/22/22 21/21/21
f 25/25/25 24/24/24 23/23/23
f 25/25/25 23/23/23 26/26/26
f 27/27/27 25/25/25 26/26/26
f 28/28/28 25/25/25 27/27/27
f 31/31/31 30/30/30 29/29/29
f 29/29/29 30/30/30 32/32/32
f 33/33/33 31/31/31 29/29/29
f 29/29/29 34/34/34 33/33/33
f 35/35/35 31/31/31 33/33/33
f 36/36/36 29/29/29 32/32/32
f 34/34/34 29/29/29 36/36/36
f 32/32/32 37/37/37 36/36/36
f 38/38/38 35/35/35 33/33/33
f 33/33/33 34/34/34 38/38/38
f 39/39/39 35/35/35 38/38/38
f 40/40/40 39/39/39 38/38/38
f 34/34/34 40/40/40 38/38/38
f 41/41/41 39/39/39 40/40/40
f 42/42/42 41/41/41 40/40/40
f 40/40/40 34/34/34 42/42/42
f 43/43/43 41/41/41 42/42/42
f 44/44/44 43/43/43 42/42/42
f 37/37/37 43/43/43 44/44/44
f 34/34/34 44/44/44 42/42/42
f 36/36/36 37/37/37 45/45/45
f 45/45/45 37/37/37 44/44/44
f 44/44/44 34/34/34 45/45/45
f 45/45/45 34/34/34 36/36/36
f 48/48/48 47/47/47 46/46/46
f 46/46/46 49/49/49 48/48/48
f 48/48/48 49/49/49 47/47/47
f 47/47/47 49/49/49 46/46/46
f 52/52/52 51/51/51 50/50/50
f 50/50/50 51/51/51 53/53/53
f 53/53/53 51/51/51 52/52/52
f 50/50/50 54/54/54 52/52/52
f 52/52/52 55/55/55 53/53/53
f 54/54/54 55/55/55 52/52/52
f 56/56/56 54/54/54 50/50/50
f 53/53/53 56/56/56 50/50/50
f 55/55/55 56/56/56 53/53/53
f 55/55/55 54/54/54 56/56/56
f 59/59/59 58/58/58 57/57/57
f 57/57/57 58/58/58 60/60/60
f 60/60/60 58/58/58 59/59/59
f 60/60/60 61/61/61 57/57/57
f 59/59/59 62/62/62 60/60/60
f 62/62/62 61/61/61 60/60/60
f 61/61/61 63/63/63 57/57/57
f 57/57/57 63/63/63 59/59/59
f 62/62/62 63/63/63 61/61/61
f 63/63/63 62/62/62 59/59/59
