g Plane.013
v -2.9835558 4.5384073 0
v 1.023735 -8.939371 0
v -3.0213108 -8.70121 0
v 1.0817032 8.708091 0
v -11.7795105 4.341303 0
v -11.76959 8.393778 0
v -26.954552 -19.807022 0
v -31 -12.871946 0
v -26.954552 -12.295967 0
v -31 -24.065243 0
v -13.619144 -19.982826 0
v -13.628235 -24.065247 0
v -13.619144 -20.045206 0
v -3.0627003 -20.221012 0
v 0.9645672 -24.06525 0
v -26.954552 -8.681696 0
v -26.954552 4.0745296 0
v -15.379639 4.271634 0
v -15.398454 -8.689987 0
v -26.954552 4.0745296 0
v -15.369743 8.314317 0
v -15.379639 4.271634 0
v -31 8.000004 0
v -26.954552 -8.681696 0
v -31 -9.256832 0
v -3.0328617 -12.31435 0
v 1.0108223 -12.552139 0
v 0.9645672 -24.06525 0
v -3.0627003 -20.221012 0
v -13.619144 -20.045206 0
v -3.0328617 -12.31435 0
v -3.0627003 -20.221012 0
v -11.804222 -12.306543 0
v -15.404227 -12.303774 0
v -13.619144 -19.982826 0
v -26.954552 -19.807022 0
v -26.954552 -12.295967 0
v -3.0328617 -12.31435 0
v 1.023735 -8.939371 0
v 1.0108223 -12.552139 0
v -3.0213108 -8.70121 0
v -11.804222 -12.306543 0
v -11.798447 -8.692921 0
v -15.398454 -8.689987 0
v -15.404227 -12.303774 0
v -26.954552 -12.295967 0
v -15.379639 4.271634 0
v -26.954552 -8.681696 0
v -31 -12.871946 0
v -31 -9.256832 0
v -11.7795105 4.341303 0
v -15.369743 8.314317 0
v -11.76959 8.393778 0
v -11.798447 -8.692921 0
v -11.7795105 4.341303 0
v -2.9835558 4.5384073 0
v -3.0213108 -8.70121 0
v -13.628235 -24.065247 0
v -31 -25.199997 0
v -31 -24.065243 0
v 0.9645672 -24.06525 0
v 18.627625 -25.2 0
v 1.0108223 -12.552139 0
v 1.023735 -8.939371 0
v 1.0817032 8.708091 0
v 18.627625 8.708092 0
vt 0.78125 0.15625001
vt 0.78124994 0.15625
vt 0.78125006 0.15625
vt 0.78125 0.15625
vt 0.78125 0.15625
vt 0.78125 0.15625
vt 0.78125006 0.15625001
vt 0.78125 0.15625
vt 0.78125 0.15625
vt 0.78125 0.15625
vt 0.78125006 0.15625
vt 0.78125 0.15625
vt 0.78125006 0.15625
vt 0.78125006 0.15624999
vt 0.78125 0.15625
vt 0.59595776 0.46936846
vt 0.59595776 0.46936846
vt 0.59595776 0.46936846
vt 0.59595776 0.46936846
vt 0.78125 0.15625
vt 0.78125 0.15625
vt 0.78125 0.15625
vt 0.78125 0.15625
vt 0.78125 0.15625
vt 0.78125 0.15625
vt 0.78125006 0.15625
vt 0.78125 0.15625
vt 0.78125 0.15625
vt 0.78125006 0.15624999
vt 0.59595776 0.46936846
vt 0.59595776 0.46936846
vt 0.59595776 0.46936846
vt 0.59595776 0.46936846
vt 0.59595776 0.46936846
vt 0.59595776 0.46936846
vt 0.59595776 0.46936846
vt 0.59595776 0.46936846
vt 0.71875 0.15625
vt 0.71875 0.15625
vt 0.71875 0.15625
vt 0.71875 0.15625
vt 0.71875 0.15625
vt 0.71875 0.15625
vt 0.71875 0.15625
vt 0.71875 0.15625
vt 0.71875 0.15625
vt 0.71875 0.15625
vt 0.71875 0.15625
vt 0.71875 0.15625
vt 0.71875 0.15625
vt 0.71875 0.15625
vt 0.71875 0.15625
vt 0.71875 0.15625
vt 0.59595776 0.46936846
vt 0.59595776 0.46936846
vt 0.59595776 0.46936846
vt 0.59595776 0.46936846
vt 0.59595776 0.46936846
vt 0.59595776 0.46936846
vt 0.59595776 0.46936846
vt 0.59595776 0.46936846
vt 0.59595776 0.46936846
vt 0.59595776 0.46936846
vt 0.59595776 0.46936846
vt 0.59595776 0.46936846
vt 0.59595776 0.46936846
vn -0 0 1
vn -0 0 1
vn -0 0 1
vn -0 0 1
vn -0 0 1
vn -0 0 1
vn -0 0 1
vn -0 0 1
vn -0 0 1
vn -0 0 1
vn -0 0 1
vn -0 0 1
vn -0 0 1
vn -0 0 1
vn -0 0 1
vn -0 0 1
vn -0 0 1
vn -0 0 1
vn -0 0 1
vn -0 0 1
vn -0 0 1
vn -0 0 1
vn -0 0 1
vn -0 0 1
vn -0 0 1
vn -0 0 1
vn -0 0 1
vn -0 0 1
vn -0 0 1
vn -0 0 1
vn -0 0 1
vn -0 0 1
vn -0 0 1
vn -0 0 1
vn -0 0 1
vn -0 0 1
vn -0 0 1
vn -0 0 1
vn -0 0 1
vn -0 0 1
vn -0 0 1
vn -0 0 1
vn -0 0 1
vn -0 0 1
vn -0 0 1
vn -0 0 1
vn -0 0 1
vn -0 0 1
vn -0 0 1
vn -0 0 1
vn -0 0 1
vn -0 0 1
vn -0 0 1
vn -0 0 1
vn -0 0 1
vn -0 0 1
vn -0 0 1
vn -0 0 1
vn -0 0 1
vn -0 0 1
vn -0 0 1
vn -0 0 1
vn -0 0 1
vn -0 0 1
vn -0 0 1
vn -0 0 1
g Plane.013_0
f 3/3/3 2/2/2 1/1/1
f 2/2/2 4/4/4 1/1/1
f 1/1/1 4/4/4 5/5/5
f 4/4/4 6/6/6 5/5/5
f 9/9/9 8/8/8 7/7/7
f 8/8/8 10/10/10 7/7/7
f 7/7/7 10/10/10 11/11/11
f 10/10/10 12/12/12 11/11/11
f 12/12/12 13/13/13 11/11/11
f 13/13/13 12/12/12 14/14/14
f 12/12/12 15/15/15 14/14/14
f 18/18/18 17/17/17 16/16/16
f 19/19/19 18/18/18 16/16/16
f 22/22/22 21/21/21 20/20/20
f 21/21/21 23/23/23 20/20/20
f 20/20/20 23/23/23 24/24/24
f 23/23/23 25/25/25 24/24/24
f 28/28/28 27/27/27 26/26/26
f 29/29/29 28/28/28 26/26/26
f 32/32/32 31/31/31 30/30/30
f 31/31/31 33/33/33 30/30/30
f 33/33/33 34/34/34 30/30/30
f 34/34/34 35/35/35 30/30/30
f 35/35/35 34/34/34 36/36/36
f 34/34/34 37/37/37 36/36/36
f 40/40/40 39/39/39 38/38/38
f 39/39/39 41/41/41 38/38/38
f 42/42/42 38/38/38 41/41/41
f 43/43/43 42/42/42 41/41/41
f 42/42/42 43/43/43 44/44/44
f 45/45/45 42/42/42 44/44/44
f 46/46/46 45/45/45 44/44/44
f 47/47/47 44/44/44 43/43/43
f 48/48/48 46/46/46 44/44/44
f 49/49/49 46/46/46 48/48/48
f 50/50/50 49/49/49 48/48/48
f 51/51/51 47/47/47 43/43/43
f 52/52/52 47/47/47 51/51/51
f 53/53/53 52/52/52 51/51/51
f 56/56/56 55/55/55 54/54/54
f 57/57/57 56/56/56 54/54/54
f 60/60/60 59/59/59 58/58/58
f 58/58/58 59/59/59 61/61/61
f 59/59/59 62/62/62 61/61/61
f 61/61/61 62/62/62 63/63/63
f 63/63/63 62/62/62 64/64/64
f 64/64/64 62/62/62 65/65/65
f 62/62/62 66/66/66 65/65/65
