g plant_Field01
v -1.3333333 0.001303196 0.9996741
v -1.3333333 0.001303196 -0.9996743
v 1.3333335 0.001303196 -0.9996743
v 1.3333335 0.001303196 0.9996741
v 0.7337897 0.040403843 0.9110458
v 0.7337897 0.040403843 0.11078513
v 1.265559 0.040403843 0.11078513
v 1.265559 0.040403843 0.9110458
v 0.06647134 0.040403843 0.9110458
v 0.06647134 0.040403843 0.11078513
v 0.60084736 0.040403843 0.11078513
v 0.60084736 0.040403843 0.9110458
v -1.2655587 0.040403843 0.9110458
v -1.2655587 0.040403843 0.11078513
v -0.73378944 0.040403843 0.11078513
v -0.73378944 0.040403843 0.9110458
v 0.7337897 0.040403843 -0.110785484
v 0.7337897 0.040403843 -0.9110461
v 1.265559 0.040403843 -0.9110461
v 1.265559 0.040403843 -0.110785484
v 0.06647134 0.040403843 -0.110785484
v 0.06647134 0.040403843 -0.9110461
v 0.60084736 0.040403843 -0.9110461
v 0.60084736 0.040403843 -0.110785484
v -1.2655587 0.040403843 -0.110785484
v -1.2655587 0.040403843 -0.9110461
v -0.73378944 0.040403843 -0.9110461
v -0.73378944 0.040403843 -0.110785484
v -0.600847 0.040403843 0.9110458
v -0.600847 0.040403843 0.11078513
v -0.06647098 0.040403843 0.11078513
v -0.06647098 0.040403843 0.9110458
v -0.600847 0.040403843 -0.110785484
v -0.600847 0.040403843 -0.9110461
v -0.06647098 0.040403843 -0.9110461
v -0.06647098 0.040403843 -0.110785484
vt 0.15563446 0.33994818
vt 0.15563446 0.33994818
vt 0.15563446 0.33994818
vt 0.15563446 0.33994818
vt 0.28014427 0.08994818
vt 0.28014427 0.08994818
vt 0.28014427 0.08994818
vt 0.28014427 0.08994818
vt 0.28014427 0.08994818
vt 0.28014427 0.08994818
vt 0.28014427 0.08994818
vt 0.28014427 0.08994818
vt 0.28014427 0.08994818
vt 0.28014427 0.08994818
vt 0.28014427 0.08994818
vt 0.28014427 0.08994818
vt 0.28014427 0.08994818
vt 0.28014427 0.08994818
vt 0.28014427 0.08994818
vt 0.28014427 0.08994818
vt 0.28014427 0.08994818
vt 0.28014427 0.08994818
vt 0.28014427 0.08994818
vt 0.28014427 0.08994818
vt 0.28014427 0.08994818
vt 0.28014427 0.08994818
vt 0.28014427 0.08994818
vt 0.28014427 0.08994818
vt 0.28014427 0.08994818
vt 0.28014427 0.08994818
vt 0.28014427 0.08994818
vt 0.28014427 0.08994818
vt 0.28014427 0.08994818
vt 0.28014427 0.08994818
vt 0.28014427 0.08994818
vt 0.28014427 0.08994818
vn -0 1 -0
vn -0 1 -0
vn -0 1 -0
vn -0 1 -0
vn -0 1 -0
vn -0 1 -0
vn -0 1 -0
vn -0 1 -0
vn -0 1 -0
vn -0 1 -0
vn -0 1 -0
vn -0 1 -0
vn -0 1 -0
vn -0 1 -0
vn -0 1 -0
vn -0 1 -0
vn -0 1 -0
vn -0 1 -0
vn -0 1 -0
vn -0 1 -0
vn -0 1 -0
vn -0 1 -0
vn -0 1 -0
vn -0 1 -0
vn -0 1 -0
vn -0 1 -0
vn -0 1 -0
vn -0 1 -0
vn -0 1 -0
vn -0 1 -0
vn -0 1 -0
vn -0 1 -0
vn -0 1 -0
vn -0 1 -0
vn -0 1 -0
vn -0 1 -0
g plant_Field01_0
f 3/3/3 2/2/2 1/1/1
f 4/4/4 3/3/3 1/1/1
f 7/7/7 6/6/6 5/5/5
f 8/8/8 7/7/7 5/5/5
f 11/11/11 10/10/10 9/9/9
f 12/12/12 11/11/11 9/9/9
f 15/15/15 14/14/14 13/13/13
f 16/16/16 15/15/15 13/13/13
f 19/19/19 18/18/18 17/17/17
f 20/20/20 19/19/19 17/17/17
f 23/23/23 22/22/22 21/21/21
f 24/24/24 23/23/23 21/21/21
f 27/27/27 26/26/26 25/25/25
f 28/28/28 27/27/27 25/25/25
f 31/31/31 30/30/30 29/29/29
f 32/32/32 31/31/31 29/29/29
f 35/35/35 34/34/34 33/33/33
f 36/36/36 35/35/35 33/33/33
