g Playground
v -2.4203365 7.485319 6.0619297
v -1.4457638 9.262231 3.6942244
v 0.9222427 7.485319 4.668078
v -4.2088556 7.485319 2.556971
v -1.841153 9.262231 3.5315478
v -2.8150046 7.485319 5.8995504
v -0.70390034 7.485319 0.76845115
v -1.6784768 9.262231 3.1361585
v -4.046477 7.485319 2.1623034
v 1.0846218 7.485319 4.2734103
v -1.2830875 9.262231 3.298835
v -0.3092323 7.485319 0.9308316
v 7.5603585 0.09052493 2.8417253
v 7.552192 0.09052493 1.8928813
v 8.310289 0.63407004 2.4481683
v 8.310289 0.63407004 2.4481683
v 7.742293 0.09052493 1.6994814
v 8.691134 0.09052493 1.6913158
v 7.552192 0.09052493 1.8928813
v 7.742293 0.09052493 1.6994814
v 8.310289 0.63407004 2.4481683
v 7.568524 0.09052493 3.7905698
v 7.5603585 0.09052493 2.8417253
v 8.325121 0.6340707 4.1714816
v 7.5766892 0.09052493 4.7394137
v 7.770088 0.09052493 4.929514
v 9.179454 0.84434783 3.3022497
v 10.048434 0.6340703 4.156652
v 8.718934 0.09052493 4.9213476
v 9.667777 0.09052493 4.9131823
v 10.035044 0.6398349 2.4310167
v 10.790389 0.09052493 2.8139281
v 10.782222 0.09052493 1.865084
v 10.588823 0.09052493 1.6749847
v 10.798555 0.09052493 3.7627723
v 10.806721 0.09052493 4.711617
v 10.616621 0.09052493 4.905017
v 9.667777 0.09052493 4.9131823
v 10.048434 0.6340703 4.156652
v 10.616621 0.09052493 4.905017
v 0.9682626 3.7037604 3.256446
v 0.47379413 3.7001674 2.0058656
v 0.9592893 2.735411 1.8120676
v 1.4548908 2.742054 3.0621872
v 1.9247102 1.9245771 1.2025583
v 3.2274776 1.0250229 0.67241955
v 3.2218525 0.69438195 0.8913561
v 1.8723384 1.6116537 1.4405177
v 2.6312945 1.6174634 3.3401854
v 3.9801173 0.6980876 2.7913046
v 3.7163208 0.69797474 2.1419365
v 2.3674767 1.6172869 2.690826
v 0.47379413 3.7001674 2.0058656
v 0.37206343 4.0450473 1.8279804
v 1.0348207 3.036051 1.5646839
v 0.9592893 2.735411 1.8120676
v 1.4548908 2.742054 3.0621872
v 1.6819099 3.0416744 3.1821213
v 1.0671093 4.033858 3.4255257
v 0.9682626 3.7037604 3.256446
v 2.5714068 1.929345 2.820155
v 3.8736074 1.0280641 2.2902467
v 4.0006456 1.0284468 2.6062093
v 2.6985164 1.9299449 3.1360881
v 2.955607 0.69428104 0.23608892
v 4.5444946 -0.0030433272 -0.41048202
v 4.6889443 0.32731602 -0.29105344
v 3.1000574 1.0246406 0.35551703
v 3.2274776 1.0250229 0.67241955
v 4.816365 0.3276984 0.025848832
v 4.81074 -0.00294272 0.24478562
v 3.2218525 0.69438195 0.8913561
v 1.7972174 1.9239773 0.8856856
v 3.1000574 1.0246406 0.35551703
v 3.2274776 1.0250229 0.67241955
v 1.9247102 1.9245771 1.2025583
v 1.8090687 3.0423818 3.4980342
v 2.6985164 1.9299449 3.1360881
v 2.6312945 1.6174634 3.3401854
v 1.7187229 2.7422628 3.7115405
v 0.693012 2.735225 1.1568134
v 1.6060739 1.611496 0.78525823
v 1.7972174 1.9239773 0.8856856
v 0.90727866 3.0353441 1.247831
v 0.37206343 4.0450473 1.8279804
v 0.24439228 4.044665 1.5104643
v 0.90727866 3.0353441 1.247831
v 1.0348207 3.036051 1.5646839
v 1.4548908 2.742054 3.0621872
v 2.3674767 1.6172869 2.690826
v 2.5714068 1.929345 2.820155
v 1.6819099 3.0416744 3.1821213
v 1.8723384 1.6116537 1.4405177
v 3.2218525 0.69438195 0.8913561
v 2.955607 0.69428104 0.23608892
v 1.6060739 1.611496 0.78525823
v 1.6819099 3.0416744 3.1821213
v 1.8090687 3.0423818 3.4980342
v 1.1938828 4.0342407 3.7408376
v 1.0671093 4.033858 3.4255257
v 1.0348207 3.036051 1.5646839
v 1.9247102 1.9245771 1.2025583
v 1.8723384 1.6116537 1.4405177
v 0.9592893 2.735411 1.8120676
v 0.9592893 2.735411 1.8120676
v 1.8723384 1.6116537 1.4405177
v 1.6060739 1.611496 0.78525823
v 0.693012 2.735225 1.1568134
v 1.4548908 2.742054 3.0621872
v 0.9592893 2.735411 1.8120676
v 1.8723384 1.6116537 1.4405177
v 2.3674767 1.6172869 2.690826
v 0.24439228 4.044665 1.5104643
v 0.20584682 3.7000754 1.346499
v 0.693012 2.735225 1.1568134
v 0.90727866 3.0353441 1.247831
v 1.6819099 3.0416744 3.1821213
v 2.5714068 1.929345 2.820155
v 2.6985164 1.9299449 3.1360881
v 1.8090687 3.0423818 3.4980342
v 1.8090687 3.0423818 3.4980342
v 1.7187229 2.7422628 3.7115405
v 1.230357 3.703881 3.9017148
v 1.1938828 4.0342407 3.7408376
v 2.3674767 1.6172869 2.690826
v 3.7163208 0.69797474 2.1419365
v 3.8736074 1.0280641 2.2902467
v 2.5714068 1.929345 2.820155
v 1.6060739 1.611496 0.78525823
v 2.955607 0.69428104 0.23608892
v 3.1000574 1.0246406 0.35551703
v 1.7972174 1.9239773 0.8856856
v 0.20584682 3.7000754 1.346499
v 0.47379413 3.7001674 2.0058656
v 0.9592893 2.735411 1.8120676
v 0.693012 2.735225 1.1568134
v 2.6985164 1.9299449 3.1360881
v 4.0006456 1.0284468 2.6062093
v 3.9801173 0.6980876 2.7913046
v 2.6312945 1.6174634 3.3401854
v 0.90727866 3.0353441 1.247831
v 1.7972174 1.9239773 0.8856856
v 1.9247102 1.9245771 1.2025583
v 1.0348207 3.036051 1.5646839
v 1.7187229 2.7422628 3.7115405
v 1.4548908 2.742054 3.0621872
v 0.9682626 3.7037604 3.256446
v 1.230357 3.703881 3.9017148
v 2.3674767 1.6172869 2.690826
v 1.8723384 1.6116537 1.4405177
v 3.2218525 0.69438195 0.8913561
v 3.7163208 0.69797474 2.1419365
v 1.7187229 2.7422628 3.7115405
v 2.6312945 1.6174634 3.3401854
v 2.3674767 1.6172869 2.690826
v 1.4548908 2.742054 3.0621872
v 1.0671093 4.033858 3.4255257
v 1.1938828 4.0342407 3.7408376
v 1.230357 3.703881 3.9017148
v 0.9682626 3.7037604 3.256446
v 0.37206343 4.0450473 1.8279804
v 0.47379413 3.7001674 2.0058656
v 0.20584682 3.7000754 1.346499
v 0.24439228 4.044665 1.5104643
v 0.15690692 -0.0030433272 4.619473
v 0.6339178 -0.0030433272 4.42056
v 0.43500373 -0.0030433272 3.9435503
v -0.04200524 -0.0030433272 4.1424627
v 0.15690692 7.4401975 4.619473
v -0.04200524 7.4401975 4.1424627
v 0.43500373 7.4401975 3.9435503
v 0.6339178 7.4401975 4.42056
v -0.5804548 -0.0030433272 1.6200356
v -0.5804548 7.4401975 1.6200356
v -0.77936894 7.4401975 1.1430261
v -0.77936894 -0.0030433272 1.1430261
v 0.43500373 -0.0030433272 3.9435503
v 0.43500373 7.4401975 3.9435503
v -0.04200524 7.4401975 4.1424627
v -0.04200524 -0.0030433272 4.1424627
v 0.15690692 -0.0030433272 4.619473
v 0.15690692 7.4401975 4.619473
v 0.6339178 7.4401975 4.42056
v 0.6339178 -0.0030433272 4.42056
v 0.42591456 4.4839993 1.9390337
v 0.07417598 4.4839993 2.0866258
v -0.26217738 4.4839993 1.2793748
v -0.037875835 4.4839993 0.8268253
v -0.43366393 4.4839993 0.6591285
v -0.65789616 4.4839993 1.112798
v -3.6723366 4.4839993 2.3698184
v -4.061732 4.4839993 2.1720302
v -4.2239494 4.4839993 2.574963
v -3.8343925 4.4839993 2.7719736
v -2.5795772 4.4839993 5.7811246
v -2.7132218 4.4839993 6.1978154
v -2.3130696 4.4839993 6.357887
v -2.179943 4.4839993 5.9422135
v -1.3097469 4.4839993 5.579342
v -1.1368126 4.4839993 5.867388
v -2.712709 3.6563158 6.199045
v -2.4624202 3.227598 5.8598356
v -3.7509198 3.227598 2.7699044
v -4.2240677 3.6563158 2.5746803
v -0.037653465 3.6563158 0.82735866
v -0.098177984 3.227598 1.2458929
v 0.29062137 3.227598 2.1782668
v 0.42591456 3.6563158 1.9390337
v 0.7983916 3.227598 3.3959444
v 1.0079031 3.6563158 3.3346934
v 1.1913135 3.227598 4.3382053
v 1.4751039 3.6563158 4.4550815
v -0.65789616 4.4839993 1.112798
v -0.69071347 3.6563158 1.2847592
v -3.4371016 3.6563158 2.4300013
v -3.6723366 4.4839993 2.3698184
v -3.4371016 3.6563158 2.4300013
v -0.69071347 3.6563158 1.2847592
v -0.29614946 3.6563158 1.4507201
v -0.015724856 3.6563158 2.1232035
v 1.0079031 3.6563158 3.3346934
v 0.42591456 3.6563158 1.9390337
v -3.5988274 3.6563158 2.8308017
v 0.56626236 3.6563158 3.5188572
v -2.4556892 3.6563158 5.5721426
v 0.8493253 3.6563158 4.1976686
v 0.68560386 3.6563158 4.589007
v -0.0545434 3.6563158 4.8976474
v -1.3209752 3.6563158 5.4257493
v -2.0572455 3.6563158 5.732774
v 1.4748574 4.4839993 4.4544907
v 0.65676993 4.4839993 3.4820266
v 1.0079031 4.4839993 3.3346934
v 0.995229 4.4839993 4.2943053
v 0.83081686 4.4839993 4.6867285
v 1.3106283 4.4839993 4.846807
v 0.12958932 4.4839993 5.339299
v 0.0016498409 4.4839993 5.0324893
v -3.8343925 4.4839993 2.7719736
v -3.5988274 3.6563158 2.8308017
v -2.4556892 3.6563158 5.5721426
v -2.5795772 4.4839993 5.7811246
v 0.0016498409 4.4839993 5.0324893
v -0.0545434 3.6563158 4.8976474
v 0.68560386 3.6563158 4.589007
v 0.83081686 4.4839993 4.6867285
v 0.07417598 4.4839993 2.0866258
v -0.015724856 3.6563158 2.1232035
v -0.29614946 3.6563158 1.4507201
v -0.26217738 4.4839993 1.2793748
v 1.3115427 3.6563158 4.8464246
v 1.0277859 3.227598 4.729706
v 0.031857327 3.227598 5.145007
v 0.12939161 3.6563158 5.339382
v -1.1365845 3.6563158 5.867293
v -1.0725639 3.227598 5.6055503
v -2.0610678 3.227598 6.0177555
v -2.312583 3.6563158 6.357683
v -2.179943 4.4839993 5.9422135
v -2.0572455 3.6563158 5.732774
v -1.3209752 3.6563158 5.4257493
v -1.3097469 4.4839993 5.579342
v 0.07417598 4.4839993 2.0866258
v 0.42591456 4.4839993 1.9390337
v 0.42591456 3.6563158 1.9390337
v -0.015724856 3.6563158 2.1232035
v 0.65676993 4.4839993 3.4820266
v 0.56626236 3.6563158 3.5188572
v 1.0079031 3.6563158 3.3346934
v 1.0079031 4.4839993 3.3346934
v -0.037653465 3.6563158 0.82735866
v 0.42591456 3.6563158 1.9390337
v 0.42591456 4.4839993 1.9390337
v -0.037875835 4.4839993 0.8268253
v -0.43252352 3.6563158 0.65865284
v -0.43366393 4.4839993 0.6591285
v -4.061732 4.4839993 2.1720302
v -4.0616407 3.6563158 2.1719923
v -4.0616407 3.6563158 2.1719923
v -3.5879538 3.227598 2.3662124
v -0.49345407 3.227598 1.0758077
v -0.43252352 3.6563158 0.65865284
v 1.6057475 7.397461 4.490703
v 1.0846218 7.485319 4.2734103
v -0.3092323 7.485319 0.9308316
v -0.09687446 7.397461 0.40767467
v -0.4866102 7.397461 0.24732454
v -0.70390034 7.485319 0.76845115
v -4.046477 7.485319 2.1623034
v -4.569637 7.397461 1.9499427
v -4.729987 7.397461 2.3396788
v -4.2088556 7.485319 2.556971
v -2.8150046 7.485319 5.8995504
v -3.027367 7.397461 6.4227085
v -4.569637 7.397461 1.9499427
v -4.5710807 6.836246 1.950545
v -0.48516592 6.836246 0.2467223
v -0.4866102 7.397461 0.24732454
v -0.09747673 6.836246 0.40623072
v -0.48516592 6.836246 0.2467223
v -4.5710807 6.836246 1.950545
v 1.60635 6.836246 4.4921484
v -4.730589 6.836246 2.3382342
v -3.026765 6.836246 6.424153
v 1.4468422 6.836246 4.879837
v -2.6390762 6.836246 6.5836606
v -4.2240677 3.6563158 2.5746803
v -4.2239494 4.4839993 2.574963
v -2.7132218 4.4839993 6.1978154
v -2.712709 3.6563158 6.199045
v -0.098177984 3.227598 1.2458929
v -0.49345407 3.227598 1.0758077
v -3.5879538 3.227598 2.3662124
v 0.29062137 3.227598 2.1782668
v 0.7983916 3.227598 3.3959444
v -3.7509198 3.227598 2.7699044
v -2.4624202 3.227598 5.8598356
v 1.1913135 3.227598 4.3382053
v 1.0277859 3.227598 4.729706
v 0.031857327 3.227598 5.145007
v -1.0725639 3.227598 5.6055503
v -2.0610678 3.227598 6.0177555
v 0.995229 4.4839993 4.2943053
v 0.8493253 3.6563158 4.1976686
v 0.56626236 3.6563158 3.5188572
v 0.65676993 4.4839993 3.4820266
v 1.3115427 3.6563158 4.8464246
v 0.12939161 3.6563158 5.339382
v 0.12958932 4.4839993 5.339299
v 1.3106283 4.4839993 4.846807
v -0.0545434 3.6563158 4.8976474
v 0.0016498409 4.4839993 5.0324893
v 0.12958932 4.4839993 5.339299
v 0.12939161 3.6563158 5.339382
v -1.3209752 3.6563158 5.4257493
v -1.1365845 3.6563158 5.867293
v -1.1368126 4.4839993 5.867388
v -1.3097469 4.4839993 5.579342
v -1.1365845 3.6563158 5.867293
v -1.3209752 3.6563158 5.4257493
v -0.0545434 3.6563158 4.8976474
v 0.12939161 3.6563158 5.339382
v 1.4751039 3.6563158 4.4550815
v 1.4748574 4.4839993 4.4544907
v 1.0079031 4.4839993 3.3346934
v 1.0079031 3.6563158 3.3346934
v -1.3888863 3.098121 6.403149
v -1.5028757 3.055133 6.1306934
v 0.28348696 3.055133 5.3857803
v 0.39683548 3.098121 5.6585045
v -1.3700088 2.761136 6.44842
v 0.41571292 2.761136 5.703775
v 0.3023643 2.7181485 5.431051
v -1.4839984 2.7181485 6.1759634
v 0.28348696 3.055133 5.3857803
v -1.5028757 3.055133 6.1306934
v -1.4839984 2.7181485 6.1759634
v 0.3023643 2.7181485 5.431051
v -1.3888863 3.098121 6.403149
v 0.39683548 3.098121 5.6585045
v 0.41571292 2.761136 5.703775
v -1.3700088 2.761136 6.44842
v -1.5028757 3.055133 6.1306934
v -1.3888863 3.098121 6.403149
v -1.3700088 2.761136 6.44842
v -1.4839984 2.7181485 6.1759634
v 0.39683548 3.098121 5.6585045
v 0.28348696 3.055133 5.3857803
v 0.3023643 2.7181485 5.431051
v 0.41571292 2.761136 5.703775
v -1.3326961 2.095079 6.537899
v -1.4466854 2.052091 6.265443
v 0.33967716 2.052091 5.5205307
v 0.45302567 2.095079 5.7932544
v -1.3138176 1.7580944 6.58317
v 0.47190398 1.7580944 5.838525
v 0.3585547 1.7151066 5.5658007
v -1.4278088 1.7151066 6.3107133
v 0.33967716 2.052091 5.5205307
v -1.4466854 2.052091 6.265443
v -1.4278088 1.7151066 6.3107133
v 0.3585547 1.7151066 5.5658007
v -1.3326961 2.095079 6.537899
v 0.45302567 2.095079 5.7932544
v 0.47190398 1.7580944 5.838525
v -1.3138176 1.7580944 6.58317
v -1.4466854 2.052091 6.265443
v -1.3326961 2.095079 6.537899
v -1.3138176 1.7580944 6.58317
v -1.4278088 1.7151066 6.3107133
v 0.45302567 2.095079 5.7932544
v 0.33967716 2.052091 5.5205307
v 0.3585547 1.7151066 5.5658007
v 0.47190398 1.7580944 5.838525
v -1.2761753 1.0861543 6.673439
v -1.3901656 1.0431665 6.4009824
v 0.3961978 1.0431665 5.65607
v 0.50954556 1.0861539 5.9287944
v -1.2572979 0.7491699 6.7187095
v 0.528423 0.7491699 5.9740653
v 0.41507518 0.70618206 5.7013407
v -1.3712884 0.70618206 6.446253
v 0.3961978 1.0431665 5.65607
v -1.3901656 1.0431665 6.4009824
v -1.3712884 0.70618206 6.446253
v 0.41507518 0.70618206 5.7013407
v -1.2761753 1.0861543 6.673439
v 0.50954556 1.0861539 5.9287944
v 0.528423 0.7491699 5.9740653
v -1.2572979 0.7491699 6.7187095
v -1.3901656 1.0431665 6.4009824
v -1.2761753 1.0861543 6.673439
v -1.2572979 0.7491699 6.7187095
v -1.3712884 0.70618206 6.446253
v 0.50954556 1.0861539 5.9287944
v 0.3961978 1.0431665 5.65607
v 0.41507518 0.70618206 5.7013407
v 0.528423 0.7491699 5.9740653
v 0.5103124 3.574912 5.5643406
v 0.37688503 3.5251324 5.244367
v 0.57141644 0.05259346 5.7108707
v 0.70476896 0.1037082 6.030667
v 0.21404661 3.574912 5.6878843
v 0.4085029 0.1037082 6.1542077
v 0.27514976 0.05259346 5.8344135
v 0.08061816 3.5251324 5.367909
v 0.57141644 0.05259346 5.7108707
v 0.37688503 3.5251324 5.244367
v 0.08061816 3.5251324 5.367909
v 0.27514976 0.05259346 5.8344135
v 0.5103124 3.574912 5.5643406
v 0.70476896 0.1037082 6.030667
v 0.4085029 0.1037082 6.1542077
v 0.21404661 3.574912 5.6878843
v 0.37688503 3.5251324 5.244367
v 0.5103124 3.574912 5.5643406
v 0.21404661 3.574912 5.6878843
v 0.08061816 3.5251324 5.367909
v 0.70476896 0.1037082 6.030667
v 0.57141644 0.05259346 5.7108707
v 0.27514976 0.05259346 5.8344135
v 0.4085029 0.1037082 6.1542077
v -1.2483008 3.574912 6.2976813
v -1.3817283 3.5251324 5.9777074
v -1.1871965 0.05259346 6.444212
v -1.0538434 0.1037082 6.764006
v -1.5445657 3.574912 6.421224
v -1.3501091 0.1037082 6.887548
v -1.4834628 0.05259346 6.567754
v -1.6779951 3.5251324 6.1012497
v -1.1871965 0.05259346 6.444212
v -1.3817283 3.5251324 5.9777074
v -1.6779951 3.5251324 6.1012497
v -1.4834628 0.05259346 6.567754
v -1.2483008 3.574912 6.2976813
v -1.0538434 0.1037082 6.764006
v -1.3501091 0.1037082 6.887548
v -1.5445657 3.574912 6.421224
v -1.3817283 3.5251324 5.9777074
v -1.2483008 3.574912 6.2976813
v -1.5445657 3.574912 6.421224
v -1.6779951 3.5251324 6.1012497
v -1.0538434 0.1037082 6.764006
v -1.1871965 0.05259346 6.444212
v -1.4834628 0.05259346 6.567754
v -1.3501091 0.1037082 6.887548
v -1.0574658 -0.0030433272 1.8189483
v -0.5804548 -0.0030433272 1.6200356
v -0.77936894 -0.0030433272 1.1430261
v -1.2563778 -0.0030433272 1.3419387
v -1.0574658 7.4401975 1.8189483
v -1.2563778 7.4401975 1.3419387
v -0.77936894 7.4401975 1.1430261
v -0.5804548 7.4401975 1.6200356
v -3.0140355 -0.0030433272 2.6147444
v -3.0140355 7.4401975 2.6147444
v -3.2129495 7.4401975 2.1377347
v -3.2129495 -0.0030433272 2.1377347
v -3.6899583 -0.0030433272 2.3366468
v -3.6899583 7.4401975 2.3366468
v -3.491046 7.4401975 2.8136568
v -3.491046 -0.0030433272 2.8136568
v -0.77936894 -0.0030433272 1.1430261
v -0.77936894 7.4401975 1.1430261
v -1.2563778 7.4401975 1.3419387
v -1.2563778 -0.0030433272 1.3419387
v -1.0574658 -0.0030433272 1.8189483
v -1.0574658 7.4401975 1.8189483
v -0.5804548 7.4401975 1.6200356
v -0.5804548 -0.0030433272 1.6200356
v -2.3370333 -0.0030433272 5.6387467
v -1.8600221 -0.0030433272 5.4398346
v -2.0589366 -0.0030433272 4.962825
v -2.5359454 -0.0030433272 5.1617374
v -2.3370333 7.4401975 5.6387467
v -2.5359454 7.4401975 5.1617374
v -2.0589366 7.4401975 4.962825
v -1.8600221 7.4401975 5.4398346
v -1.2563778 -0.0030433272 1.3419387
v -1.2563778 7.4401975 1.3419387
v -1.0574658 7.4401975 1.8189483
v -1.0574658 -0.0030433272 1.8189483
v -2.0589366 -0.0030433272 4.962825
v -2.0589366 7.4401975 4.962825
v -2.5359454 7.4401975 5.1617374
v -2.5359454 -0.0030433272 5.1617374
v -2.3370333 -0.0030433272 5.6387467
v -2.3370333 7.4401975 5.6387467
v -1.8600221 7.4401975 5.4398346
v -1.8600221 -0.0030433272 5.4398346
v -3.491046 -0.0030433272 2.8136568
v -3.0140355 -0.0030433272 2.6147444
v -3.2129495 -0.0030433272 2.1377347
v -3.6899583 -0.0030433272 2.3366468
v -3.491046 7.4401975 2.8136568
v -3.6899583 7.4401975 2.3366468
v -3.2129495 7.4401975 2.1377347
v -3.0140355 7.4401975 2.6147444
v -1.8600221 -0.0030433272 5.4398346
v -1.8600221 7.4401975 5.4398346
v -2.0589366 7.4401975 4.962825
v -2.0589366 -0.0030433272 4.962825
v -3.2129495 -0.0030433272 2.1377347
v -3.2129495 7.4401975 2.1377347
v -3.6899583 7.4401975 2.3366468
v -3.6899583 -0.0030433272 2.3366468
v -3.491046 -0.0030433272 2.8136568
v -3.491046 7.4401975 2.8136568
v -3.0140355 7.4401975 2.6147444
v -3.0140355 -0.0030433272 2.6147444
v 0.6339178 -0.0030433272 4.42056
v 0.6339178 7.4401975 4.42056
v 0.43500373 7.4401975 3.9435503
v 0.43500373 -0.0030433272 3.9435503
v 0.15690692 -0.0030433272 4.619473
v -0.04200524 -0.0030433272 4.1424627
v -0.04200524 7.4401975 4.1424627
v 0.15690692 7.4401975 4.619473
v -2.5359454 -0.0030433272 5.1617374
v -2.5359454 7.4401975 5.1617374
v -2.3370333 7.4401975 5.6387467
v -2.3370333 -0.0030433272 5.6387467
v -3.027367 7.397461 6.4227085
v -3.026765 6.836246 6.424153
v -4.730589 6.836246 2.3382342
v -4.729987 7.397461 2.3396788
v -0.09687446 7.397461 0.40767467
v -0.09747673 6.836246 0.40623072
v 1.60635 6.836246 4.4921484
v 1.6057475 7.397461 4.490703
v -2.6376314 7.397461 6.583059
v -2.4203365 7.485319 6.0619297
v 0.9222427 7.485319 4.668078
v 1.4453977 7.397461 4.8804398
v 1.4453977 7.397461 4.8804398
v 1.4468422 6.836246 4.879837
v -2.6390762 6.836246 6.5836606
v -2.6376314 7.397461 6.583059
v -1.4457638 9.262231 3.6942244
v -1.841153 9.262231 3.5315478
v -1.6784768 9.262231 3.1361585
v -1.2830875 9.262231 3.298835
v -4.2240677 3.6563158 2.5746803
v -4.0616407 3.6563158 2.1719923
v -4.061732 4.4839993 2.1720302
v -4.2239494 4.4839993 2.574963
v -0.037875835 4.4839993 0.8268253
v -0.43366393 4.4839993 0.6591285
v -0.43252352 3.6563158 0.65865284
v -0.037653465 3.6563158 0.82735866
v 1.4751039 3.6563158 4.4550815
v 1.3115427 3.6563158 4.8464246
v 1.3106283 4.4839993 4.846807
v 1.4748574 4.4839993 4.4544907
v -2.7132218 4.4839993 6.1978154
v -2.3130696 4.4839993 6.357887
v -2.312583 3.6563158 6.357683
v -2.712709 3.6563158 6.199045
v -0.65789616 4.4839993 1.112798
v -0.26217738 4.4839993 1.2793748
v -0.29614946 3.6563158 1.4507201
v -0.69071347 3.6563158 1.2847592
v 0.68560386 3.6563158 4.589007
v 0.8493253 3.6563158 4.1976686
v 0.995229 4.4839993 4.2943053
v 0.83081686 4.4839993 4.6867285
v -2.179943 4.4839993 5.9422135
v -2.5795772 4.4839993 5.7811246
v -2.4556892 3.6563158 5.5721426
v -2.0572455 3.6563158 5.732774
v -3.4371016 3.6563158 2.4300013
v -3.5988274 3.6563158 2.8308017
v -3.8343925 4.4839993 2.7719736
v -3.6723366 4.4839993 2.3698184
v 1.3115427 3.6563158 4.8464246
v 1.4751039 3.6563158 4.4550815
v 1.1913135 3.227598 4.3382053
v 1.0277859 3.227598 4.729706
v -0.49345407 3.227598 1.0758077
v -0.098177984 3.227598 1.2458929
v -0.037653465 3.6563158 0.82735866
v -0.43252352 3.6563158 0.65865284
v -3.7509198 3.227598 2.7699044
v -3.5879538 3.227598 2.3662124
v -4.0616407 3.6563158 2.1719923
v -4.2240677 3.6563158 2.5746803
v -2.0610678 3.227598 6.0177555
v -2.4624202 3.227598 5.8598356
v -2.712709 3.6563158 6.199045
v -2.312583 3.6563158 6.357683
v -2.8150046 7.485319 5.8995504
v -2.4203365 7.485319 6.0619297
v -2.6376314 7.397461 6.583059
v -3.027367 7.397461 6.4227085
v -0.09687446 7.397461 0.40767467
v -0.4866102 7.397461 0.24732454
v -0.48516592 6.836246 0.2467223
v -0.09747673 6.836246 0.40623072
v -4.730589 6.836246 2.3382342
v -4.5710807 6.836246 1.950545
v -4.569637 7.397461 1.9499427
v -4.729987 7.397461 2.3396788
v -3.027367 7.397461 6.4227085
v -2.6376314 7.397461 6.583059
v -2.6390762 6.836246 6.5836606
v -3.026765 6.836246 6.424153
v 1.60635 6.836246 4.4921484
v 1.4468422 6.836246 4.879837
v 1.4453977 7.397461 4.8804398
v 1.6057475 7.397461 4.490703
v 1.0846218 7.485319 4.2734103
v 0.9222427 7.485319 4.668078
v -1.4457638 9.262231 3.6942244
v -1.2830875 9.262231 3.298835
v -4.2088556 7.485319 2.556971
v -4.046477 7.485319 2.1623034
v -1.6784768 9.262231 3.1361585
v -1.841153 9.262231 3.5315478
v -0.70390034 7.485319 0.76845115
v -0.3092323 7.485319 0.9308316
v -1.2830875 9.262231 3.298835
v -1.6784768 9.262231 3.1361585
v -1.841153 9.262231 3.5315478
v -1.4457638 9.262231 3.6942244
v -2.4203365 7.485319 6.0619297
v -2.8150046 7.485319 5.8995504
v 1.6057475 7.397461 4.490703
v 1.4453977 7.397461 4.8804398
v 0.9222427 7.485319 4.668078
v 1.0846218 7.485319 4.2734103
v -4.729987 7.397461 2.3396788
v -4.569637 7.397461 1.9499427
v -4.046477 7.485319 2.1623034
v -4.2088556 7.485319 2.556971
v -0.4866102 7.397461 0.24732454
v -0.09687446 7.397461 0.40767467
v -0.3092323 7.485319 0.9308316
v -0.70390034 7.485319 0.76845115
v -1.1365845 3.6563158 5.867293
v -2.312583 3.6563158 6.357683
v -2.3130696 4.4839993 6.357887
v -1.1368126 4.4839993 5.867388
v 3.7163208 0.69797474 2.1419365
v 5.305208 0.00065038196 1.4953659
v 5.462495 0.33073962 1.6436759
v 3.8736074 1.0280641 2.2902467
v 3.2218525 0.69438195 0.8913561
v 4.81074 -0.00294272 0.24478562
v 4.5444946 -0.0030433272 -0.41048202
v 2.955607 0.69428104 0.23608892
v 3.8736074 1.0280641 2.2902467
v 5.462495 0.33073962 1.6436759
v 5.5895333 0.33112228 1.9596386
v 4.0006456 1.0284468 2.6062093
v 4.0006456 1.0284468 2.6062093
v 5.5895333 0.33112228 1.9596386
v 5.5690045 0.0007629614 2.1447341
v 3.9801173 0.6980876 2.7913046
v 3.9801173 0.6980876 2.7913046
v 5.5690045 0.0007629614 2.1447341
v 5.305208 0.00065038196 1.4953659
v 3.7163208 0.69797474 2.1419365
v 3.7163208 0.69797474 2.1419365
v 3.2218525 0.69438195 0.8913561
v 4.81074 -0.00294272 0.24478562
v 5.305208 0.00065038196 1.4953659
v 3.1000574 1.0246406 0.35551703
v 4.6889443 0.32731602 -0.29105344
v 4.816365 0.3276984 0.025848832
v 3.2274776 1.0250229 0.67241955
v 7.288294 0.49339962 1.1931659
v 7.207004 0.018186323 1.104062
v 11.113789 0.018186323 1.0704404
v 11.034044 0.49339962 1.1609309
v 7.0703764 0.49339962 5.1934147
v 6.9812717 0.018186323 5.274705
v 6.9476514 0.018186323 1.3679173
v 7.0381413 0.49339962 1.4476609
v 11.288541 0.49339962 1.4110824
v 11.377645 0.018186323 1.3297929
v 11.411267 0.018186323 5.23658
v 11.320776 0.49339962 5.156837
v 11.070626 0.49339962 5.411332
v 11.151915 0.018186323 5.500437
v 7.245127 0.018186323 5.534056
v 7.324871 0.49339962 5.4435673
v 11.288541 0.49339962 1.4110824
v 11.034044 0.49339962 1.1609309
v 11.113789 0.018186323 1.0704404
v 11.377645 0.018186323 1.3297929
v 6.9476514 0.018186323 1.3679173
v 7.207004 0.018186323 1.104062
v 7.288294 0.49339962 1.1931659
v 7.0381413 0.49339962 1.4476609
v 7.0703764 0.49339962 5.1934147
v 7.324871 0.49339962 5.4435673
v 7.245127 0.018186323 5.534056
v 6.9812717 0.018186323 5.274705
v 11.411267 0.018186323 5.23658
v 11.151915 0.018186323 5.500437
v 11.070626 0.49339962 5.411332
v 11.320776 0.49339962 5.156837
v 7.6757183 0.49339962 1.6252383
v 7.742293 0.09052493 1.6994814
v 7.552192 0.09052493 1.8928813
v 7.4768133 0.49339962 1.827597
v 7.5024443 0.49339962 4.805987
v 7.5766892 0.09052493 4.7394137
v 7.770088 0.09052493 4.929514
v 7.7048025 0.49339962 5.0048923
v 7.4768133 0.49339962 1.827597
v 7.552192 0.09052493 1.8928813
v 7.5603585 0.09052493 2.8417253
v 7.568524 0.09052493 3.7905698
v 7.5766892 0.09052493 4.7394137
v 7.5024443 0.49339962 4.805987
v 10.882097 0.49339962 4.7769017
v 10.806721 0.09052493 4.711617
v 10.798555 0.09052493 3.7627723
v 10.790389 0.09052493 2.8139281
v 10.782222 0.09052493 1.865084
v 10.856463 0.49339962 1.798512
v 10.683192 0.49339962 4.9792604
v 10.616621 0.09052493 4.905017
v 10.806721 0.09052493 4.711617
v 10.882097 0.49339962 4.7769017
v 10.856463 0.49339962 1.798512
v 10.782222 0.09052493 1.865084
v 10.588823 0.09052493 1.6749847
v 10.654106 0.49339962 1.5996069
v 10.616621 0.09052493 4.905017
v 10.683192 0.49339962 4.9792604
v 7.7048025 0.49339962 5.0048923
v 9.667777 0.09052493 4.9131823
v 8.718934 0.09052493 4.9213476
v 7.770088 0.09052493 4.929514
v 7.6757183 0.49339962 1.6252383
v 10.654106 0.49339962 1.5996069
v 10.588823 0.09052493 1.6749847
v 9.639978 0.09052493 1.6831502
v 8.691134 0.09052493 1.6913158
v 7.742293 0.09052493 1.6994814
v 8.310289 0.63407004 2.4481683
v 8.691134 0.09052493 1.6913158
v 9.639978 0.09052493 1.6831502
v 10.035044 0.6398349 2.4310167
v 9.179454 0.84434783 3.3022497
v 10.588823 0.09052493 1.6749847
v 11.288541 0.49339962 1.4110824
v 10.856463 0.49339962 1.798512
v 10.654106 0.49339962 1.5996069
v 11.034044 0.49339962 1.1609309
v 11.320776 0.49339962 5.156837
v 7.6757183 0.49339962 1.6252383
v 10.882097 0.49339962 4.7769017
v 7.288294 0.49339962 1.1931659
v 11.070626 0.49339962 5.411332
v 7.4768133 0.49339962 1.827597
v 10.683192 0.49339962 4.9792604
v 7.0381413 0.49339962 1.4476609
v 7.324871 0.49339962 5.4435673
v 7.5024443 0.49339962 4.805987
v 7.7048025 0.49339962 5.0048923
v 7.0703764 0.49339962 5.1934147
vt 0.22290556 0.8398763
vt 0.22290555 0.83987623
vt 0.22290556 0.83987623
vt 0.22290556 0.83987623
vt 0.22290556 0.83987623
vt 0.22290556 0.83987623
vt 0.22290556 0.8398762
vt 0.22290556 0.83987623
vt 0.22290556 0.83987623
vt 0.22290556 0.83987623
vt 0.22290555 0.8398762
vt 0.22290556 0.83987623
vt 0.40184426 0.9647308
vt 0.40184426 0.96473086
vt 0.40184423 0.9647308
vt 0.40184423 0.96473074
vt 0.40184426 0.96473086
vt 0.40184426 0.9647308
vt 0.40184426 0.96473086
vt 0.40184426 0.96473086
vt 0.40184426 0.9647308
vt 0.40184426 0.9647308
vt 0.40184426 0.9647308
vt 0.40184432 0.9647308
vt 0.40184426 0.96473086
vt 0.40184426 0.96473086
vt 0.40184426 0.9647308
vt 0.40184426 0.9647308
vt 0.40184426 0.9647308
vt 0.40184426 0.9647308
vt 0.40184426 0.9647308
vt 0.40184426 0.9647308
vt 0.4018443 0.96473086
vt 0.40184426 0.96473086
vt 0.40184426 0.9647308
vt 0.40184426 0.96473086
vt 0.40184426 0.96473086
vt 0.40184426 0.9647308
vt 0.40184423 0.9647308
vt 0.40184426 0.96473086
vt 0.5294007 0.1512573
vt 0.5294007 0.1512573
vt 0.5294007 0.1512573
vt 0.5294007 0.1512573
vt 0.22688602 0.65677524
vt 0.22688602 0.65677524
vt 0.22688602 0.65677524
vt 0.22688602 0.65677524
vt 0.596523 0.65361595
vt 0.596523 0.65361595
vt 0.596523 0.65361595
vt 0.596523 0.65361595
vt 0.22688602 0.65677524
vt 0.22688602 0.65677524
vt 0.22688602 0.65677524
vt 0.22688602 0.65677524
vt 0.22688602 0.65677524
vt 0.22688602 0.65677524
vt 0.22688602 0.65677524
vt 0.22688602 0.65677524
vt 0.596523 0.65361595
vt 0.596523 0.65361595
vt 0.596523 0.65361595
vt 0.596523 0.65361595
vt 0.22688602 0.65677524
vt 0.22688602 0.65677524
vt 0.22688602 0.65677524
vt 0.22688602 0.65677524
vt 0.22688602 0.65677524
vt 0.22688602 0.65677524
vt 0.22688602 0.65677524
vt 0.22688602 0.65677524
vt 0.596523 0.65361595
vt 0.596523 0.65361595
vt 0.596523 0.65361595
vt 0.596523 0.65361595
vt 0.22688602 0.65677524
vt 0.22688602 0.65677524
vt 0.22688602 0.65677524
vt 0.22688602 0.65677524
vt 0.22688602 0.65677524
vt 0.22688602 0.65677524
vt 0.22688602 0.65677524
vt 0.22688602 0.65677524
vt 0.596523 0.65361595
vt 0.596523 0.65361595
vt 0.596523 0.65361595
vt 0.596523 0.65361595
vt 0.22688602 0.65677524
vt 0.22688602 0.65677524
vt 0.22688602 0.65677524
vt 0.22688602 0.65677524
vt 0.596523 0.65361595
vt 0.596523 0.65361595
vt 0.596523 0.65361595
vt 0.596523 0.65361595
vt 0.596523 0.65361595
vt 0.596523 0.65361595
vt 0.596523 0.65361595
vt 0.596523 0.65361595
vt 0.22688602 0.65677524
vt 0.22688602 0.65677524
vt 0.22688602 0.65677524
vt 0.22688602 0.65677524
vt 0.596523 0.65361595
vt 0.596523 0.65361595
vt 0.596523 0.65361595
vt 0.596523 0.65361595
vt 0.5294007 0.1512573
vt 0.5294007 0.1512573
vt 0.5294007 0.1512573
vt 0.5294007 0.1512573
vt 0.22688602 0.65677524
vt 0.22688602 0.65677524
vt 0.22688602 0.65677524
vt 0.22688602 0.65677524
vt 0.596523 0.65361595
vt 0.596523 0.65361595
vt 0.596523 0.65361595
vt 0.596523 0.65361595
vt 0.22688602 0.65677524
vt 0.22688602 0.65677524
vt 0.22688602 0.65677524
vt 0.22688602 0.65677524
vt 0.22688602 0.65677524
vt 0.22688602 0.65677524
vt 0.22688602 0.65677524
vt 0.22688602 0.65677524
vt 0.22688602 0.65677524
vt 0.22688602 0.65677524
vt 0.22688602 0.65677524
vt 0.22688602 0.65677524
vt 0.596523 0.65361595
vt 0.596523 0.65361595
vt 0.596523 0.65361595
vt 0.596523 0.65361595
vt 0.22688602 0.65677524
vt 0.22688602 0.65677524
vt 0.22688602 0.65677524
vt 0.22688602 0.65677524
vt 0.596523 0.65361595
vt 0.596523 0.65361595
vt 0.596523 0.65361595
vt 0.596523 0.65361595
vt 0.596523 0.65361595
vt 0.596523 0.65361595
vt 0.596523 0.65361595
vt 0.596523 0.65361595
vt 0.5294007 0.1512573
vt 0.5294007 0.1512573
vt 0.5294007 0.1512573
vt 0.5294007 0.1512573
vt 0.596523 0.65361595
vt 0.596523 0.65361595
vt 0.596523 0.65361595
vt 0.596523 0.65361595
vt 0.596523 0.65361595
vt 0.596523 0.65361595
vt 0.596523 0.65361595
vt 0.596523 0.65361595
vt 0.596523 0.65361595
vt 0.596523 0.65361595
vt 0.596523 0.65361595
vt 0.596523 0.65361595
vt 0.2189251 0.65677524
vt 0.2189251 0.65677524
vt 0.2189251 0.65677524
vt 0.2189251 0.65677524
vt 0.2189251 0.65677524
vt 0.2189251 0.65677524
vt 0.2189251 0.65677524
vt 0.2189251 0.65677524
vt 0.2189251 0.65677524
vt 0.2189251 0.65677524
vt 0.2189251 0.65677524
vt 0.2189251 0.65677524
vt 0.2189251 0.65677524
vt 0.2189251 0.65677524
vt 0.2189251 0.65677524
vt 0.2189251 0.65677524
vt 0.2189251 0.65677524
vt 0.2189251 0.65677524
vt 0.2189251 0.65677524
vt 0.2189251 0.65677524
vt 0.1674424 0.85616755
vt 0.1674424 0.85616755
vt 0.1674424 0.85616755
vt 0.1674424 0.85616755
vt 0.1674424 0.85616755
vt 0.16744241 0.85616755
vt 0.16744241 0.85616755
vt 0.1674424 0.85616755
vt 0.1674424 0.85616755
vt 0.1674424 0.85616755
vt 0.1674424 0.85616755
vt 0.1674424 0.85616755
vt 0.1674424 0.85616755
vt 0.1674424 0.85616755
vt 0.1674424 0.85616755
vt 0.1674424 0.85616755
vt 0.2939269 0.8493541
vt 0.2939269 0.8493541
vt 0.2939269 0.8493541
vt 0.2939269 0.8493541
vt 0.2939269 0.849354
vt 0.2939269 0.849354
vt 0.2939269 0.8493541
vt 0.2939269 0.8493541
vt 0.2939269 0.8493541
vt 0.2939269 0.8493541
vt 0.2939269 0.849354
vt 0.2939269 0.8493541
vt 0.21494463 0.83987623
vt 0.21494463 0.83987623
vt 0.21494463 0.8398763
vt 0.21494463 0.83987623
vt 0.5373616 0.16717911
vt 0.5373616 0.16717911
vt 0.5373616 0.16717911
vt 0.5373616 0.16717911
vt 0.5373616 0.16717911
vt 0.5373616 0.16717911
vt 0.5373616 0.16717911
vt 0.5373616 0.16717911
vt 0.5373616 0.16717911
vt 0.5373616 0.16717911
vt 0.5373616 0.16717911
vt 0.5373616 0.16717911
vt 0.5373616 0.16717911
vt 0.5373616 0.16717911
vt 0.1674424 0.85616755
vt 0.1674424 0.85616755
vt 0.1674424 0.85616755
vt 0.1674424 0.85616755
vt 0.1674424 0.85616755
vt 0.1674424 0.85616755
vt 0.1674424 0.85616755
vt 0.1674424 0.85616755
vt 0.21494463 0.83987623
vt 0.21494463 0.83987623
vt 0.21494463 0.83987623
vt 0.21494463 0.83987623
vt 0.21494463 0.83987623
vt 0.21494463 0.83987623
vt 0.21494463 0.83987623
vt 0.21494463 0.83987623
vt 0.21494463 0.83987623
vt 0.21494463 0.83987623
vt 0.21494463 0.83987623
vt 0.21494463 0.83987623
vt 0.2939269 0.8493541
vt 0.2939269 0.84935415
vt 0.2939269 0.8493541
vt 0.2939269 0.84935415
vt 0.2939269 0.849354
vt 0.2939269 0.849354
vt 0.2939269 0.849354
vt 0.2939269 0.849354
vt 0.21494463 0.83987623
vt 0.21494463 0.83987623
vt 0.21494463 0.8398762
vt 0.21494463 0.8398762
vt 0.22115032 0.8466897
vt 0.22115032 0.8466897
vt 0.22115032 0.8466897
vt 0.22115032 0.8466897
vt 0.22115032 0.8466897
vt 0.22115032 0.8466897
vt 0.22115032 0.8466897
vt 0.22115032 0.8466897
vt 0.21494463 0.83987623
vt 0.21494463 0.83987623
vt 0.21494463 0.83987623
vt 0.21494463 0.8398762
vt 0.21494463 0.83987623
vt 0.21494463 0.83987623
vt 0.21494463 0.83987623
vt 0.21494463 0.83987623
vt 0.2939269 0.84935415
vt 0.2939269 0.8493541
vt 0.29392686 0.849354
vt 0.2939269 0.8493541
vt 0.15656047 0.8303984
vt 0.15656048 0.8303984
vt 0.1565605 0.83039844
vt 0.15656048 0.8303984
vt 0.15656048 0.83039844
vt 0.15656048 0.8303984
vt 0.15656048 0.8303984
vt 0.15656048 0.8303984
vt 0.15656048 0.8303984
vt 0.15656048 0.8303984
vt 0.15656048 0.8303984
vt 0.15656048 0.8303984
vt 0.27863196 0.84783715
vt 0.27863196 0.84783715
vt 0.27863196 0.84783715
vt 0.27863196 0.84783715
vt 0.2189251 0.65677524
vt 0.2189251 0.65677524
vt 0.2189251 0.65677524
vt 0.2189251 0.65677524
vt 0.2189251 0.65677524
vt 0.21892512 0.65677524
vt 0.21892512 0.65677524
vt 0.2189251 0.65677524
vt 0.21494463 0.8398763
vt 0.21494463 0.83987623
vt 0.21494463 0.8398762
vt 0.21494463 0.83987623
vt 0.21494463 0.8398763
vt 0.21494463 0.83987623
vt 0.21494463 0.83987623
vt 0.21494463 0.83987623
vt 0.21494463 0.83987623
vt 0.21494463 0.83987623
vt 0.21494463 0.83987623
vt 0.21494463 0.83987623
vt 0.21494463 0.83987623
vt 0.21494463 0.83987623
vt 0.21494463 0.8398763
vt 0.21494463 0.83987623
vt 0.21494463 0.83987623
vt 0.21494463 0.83987623
vt 0.21494463 0.83987623
vt 0.21494463 0.83987623
vt 0.21494463 0.83987623
vt 0.21494463 0.8398763
vt 0.21494463 0.8398763
vt 0.21494463 0.8398763
vt 0.22115032 0.8466897
vt 0.22115032 0.8466897
vt 0.22115032 0.8466897
vt 0.22115032 0.8466897
vt 0.22115032 0.8466897
vt 0.22115032 0.8466897
vt 0.22115032 0.8466897
vt 0.22115032 0.8466897
vt 0.22115032 0.8466897
vt 0.22115032 0.8466897
vt 0.22115032 0.8466897
vt 0.22115032 0.8466897
vt 0.21494463 0.83987623
vt 0.21494463 0.83987623
vt 0.21494463 0.83987623
vt 0.21494463 0.83987623
vt 0.7244115 0.7805953
vt 0.7244115 0.7805953
vt 0.7244115 0.7805953
vt 0.7244115 0.7805953
vt 0.48114616 0.973312
vt 0.48114616 0.973312
vt 0.48114616 0.973312
vt 0.48114616 0.973312
vt 0.48114616 0.973312
vt 0.48114616 0.973312
vt 0.48114616 0.973312
vt 0.48114616 0.973312
vt 0.48114616 0.973312
vt 0.48114616 0.973312
vt 0.48114616 0.973312
vt 0.48114616 0.973312
vt 0.48114616 0.973312
vt 0.48114616 0.973312
vt 0.48114616 0.973312
vt 0.48114616 0.973312
vt 0.48114616 0.973312
vt 0.48114616 0.973312
vt 0.48114616 0.973312
vt 0.48114616 0.973312
vt 0.7244115 0.7805953
vt 0.7244115 0.7805953
vt 0.7244115 0.7805953
vt 0.7244115 0.7805953
vt 0.48114616 0.973312
vt 0.48114616 0.973312
vt 0.48114616 0.973312
vt 0.48114616 0.973312
vt 0.48114616 0.973312
vt 0.48114616 0.973312
vt 0.48114616 0.973312
vt 0.48114616 0.973312
vt 0.48114616 0.973312
vt 0.48114616 0.973312
vt 0.48114616 0.973312
vt 0.48114616 0.973312
vt 0.48114616 0.973312
vt 0.48114616 0.973312
vt 0.48114616 0.973312
vt 0.48114616 0.973312
vt 0.48114616 0.973312
vt 0.48114616 0.973312
vt 0.48114616 0.973312
vt 0.48114616 0.973312
vt 0.7244115 0.7805953
vt 0.7244115 0.7805953
vt 0.7244115 0.7805953
vt 0.7244115 0.7805953
vt 0.48114616 0.973312
vt 0.48114616 0.973312
vt 0.48114616 0.973312
vt 0.48114616 0.973312
vt 0.48114616 0.973312
vt 0.48114616 0.973312
vt 0.48114616 0.973312
vt 0.48114616 0.973312
vt 0.48114616 0.973312
vt 0.48114616 0.973312
vt 0.48114616 0.973312
vt 0.48114616 0.973312
vt 0.48114616 0.973312
vt 0.48114616 0.973312
vt 0.48114616 0.973312
vt 0.48114616 0.973312
vt 0.48114616 0.973312
vt 0.48114616 0.973312
vt 0.48114616 0.973312
vt 0.48114616 0.973312
vt 0.48114616 0.973312
vt 0.48114616 0.973312
vt 0.48114616 0.973312
vt 0.48114616 0.973312
vt 0.48114616 0.973312
vt 0.48114616 0.973312
vt 0.48114616 0.973312
vt 0.48114616 0.973312
vt 0.48114616 0.973312
vt 0.48114616 0.973312
vt 0.48114616 0.973312
vt 0.48114616 0.973312
vt 0.48114616 0.973312
vt 0.48114616 0.973312
vt 0.48114616 0.973312
vt 0.48114616 0.973312
vt 0.7244115 0.7805953
vt 0.7244115 0.7805953
vt 0.7244115 0.7805953
vt 0.7244115 0.7805953
vt 0.48114616 0.973312
vt 0.48114616 0.973312
vt 0.48114616 0.973312
vt 0.48114616 0.973312
vt 0.48114616 0.973312
vt 0.48114616 0.973312
vt 0.48114616 0.973312
vt 0.48114616 0.973312
vt 0.48114616 0.973312
vt 0.48114616 0.973312
vt 0.48114616 0.973312
vt 0.48114616 0.973312
vt 0.48114616 0.973312
vt 0.48114616 0.973312
vt 0.48114616 0.973312
vt 0.48114616 0.973312
vt 0.48114616 0.973312
vt 0.48114616 0.973312
vt 0.48114616 0.973312
vt 0.48114616 0.973312
vt 0.7244115 0.7805953
vt 0.7244115 0.7805953
vt 0.7244115 0.7805953
vt 0.7244115 0.7805953
vt 0.48114616 0.973312
vt 0.48114616 0.973312
vt 0.48114616 0.973312
vt 0.48114616 0.973312
vt 0.2189251 0.65677524
vt 0.2189251 0.65677524
vt 0.2189251 0.65677524
vt 0.2189251 0.65677524
vt 0.2189251 0.65677524
vt 0.2189251 0.65677524
vt 0.2189251 0.65677524
vt 0.2189251 0.65677524
vt 0.2189251 0.65677524
vt 0.2189251 0.65677524
vt 0.2189251 0.65677524
vt 0.2189251 0.65677524
vt 0.2189251 0.65677524
vt 0.2189251 0.65677524
vt 0.2189251 0.65677524
vt 0.2189251 0.65677524
vt 0.2189251 0.65677524
vt 0.2189251 0.65677524
vt 0.2189251 0.65677524
vt 0.2189251 0.65677524
vt 0.2189251 0.65677524
vt 0.2189251 0.65677524
vt 0.2189251 0.65677524
vt 0.2189251 0.65677524
vt 0.2189251 0.65677524
vt 0.2189251 0.65677524
vt 0.2189251 0.65677524
vt 0.2189251 0.65677524
vt 0.2189251 0.65677524
vt 0.2189251 0.65677524
vt 0.2189251 0.65677524
vt 0.2189251 0.65677524
vt 0.2189251 0.65677524
vt 0.2189251 0.65677524
vt 0.2189251 0.65677524
vt 0.2189251 0.65677524
vt 0.2189251 0.65677524
vt 0.2189251 0.65677524
vt 0.2189251 0.65677524
vt 0.2189251 0.65677524
vt 0.2189251 0.65677524
vt 0.2189251 0.65677524
vt 0.2189251 0.65677524
vt 0.2189251 0.65677524
vt 0.2189251 0.65677524
vt 0.2189251 0.65677524
vt 0.2189251 0.65677524
vt 0.2189251 0.65677524
vt 0.2189251 0.65677524
vt 0.2189251 0.65677524
vt 0.2189251 0.65677524
vt 0.2189251 0.65677524
vt 0.2189251 0.65677524
vt 0.2189251 0.65677524
vt 0.2189251 0.65677524
vt 0.2189251 0.65677524
vt 0.2189251 0.65677524
vt 0.2189251 0.65677524
vt 0.2189251 0.65677524
vt 0.2189251 0.65677524
vt 0.2189251 0.65677524
vt 0.2189251 0.65677524
vt 0.2189251 0.65677524
vt 0.2189251 0.65677524
vt 0.2189251 0.65677524
vt 0.2189251 0.65677524
vt 0.2189251 0.65677524
vt 0.2189251 0.65677524
vt 0.2189251 0.65677524
vt 0.2189251 0.65677524
vt 0.2189251 0.65677524
vt 0.2189251 0.65677524
vt 0.2189251 0.65677524
vt 0.2189251 0.65677524
vt 0.2189251 0.65677524
vt 0.2189251 0.65677524
vt 0.27863196 0.84783715
vt 0.27863196 0.84783715
vt 0.27863196 0.8478371
vt 0.27863196 0.84783715
vt 0.278632 0.84783715
vt 0.27863196 0.84783715
vt 0.27863196 0.84783715
vt 0.27863196 0.84783715
vt 0.15656048 0.8303984
vt 0.15656048 0.8303984
vt 0.15656048 0.8303984
vt 0.15656048 0.8303984
vt 0.27863196 0.84783715
vt 0.27863196 0.84783715
vt 0.278632 0.84783715
vt 0.27863196 0.84783715
vt 0.22290555 0.83987623
vt 0.22290556 0.83987623
vt 0.22290556 0.83987623
vt 0.22290555 0.8398762
vt 0.21494463 0.8398763
vt 0.21494463 0.83987623
vt 0.21494463 0.83987623
vt 0.21494463 0.83987623
vt 0.21494463 0.8398762
vt 0.21494463 0.83987623
vt 0.21494463 0.83987623
vt 0.21494463 0.83987623
vt 0.21494463 0.83987623
vt 0.21494463 0.83987623
vt 0.21494463 0.8398763
vt 0.21494463 0.83987623
vt 0.21494463 0.8398762
vt 0.21494463 0.83987623
vt 0.21494463 0.8398762
vt 0.21494463 0.83987623
vt 0.21494463 0.83987623
vt 0.21494463 0.83987623
vt 0.21494463 0.83987623
vt 0.21494463 0.83987623
vt 0.21494463 0.83987623
vt 0.21494463 0.83987623
vt 0.21494463 0.83987623
vt 0.21494463 0.83987623
vt 0.21494463 0.83987623
vt 0.21494463 0.83987623
vt 0.21494463 0.83987623
vt 0.21494463 0.83987623
vt 0.21494463 0.8398763
vt 0.21494463 0.83987623
vt 0.21494463 0.83987623
vt 0.21494463 0.83987623
vt 0.2939269 0.8493541
vt 0.2939269 0.8493541
vt 0.2939269 0.849354
vt 0.2939269 0.84935415
vt 0.29392686 0.849354
vt 0.2939269 0.849354
vt 0.2939269 0.849354
vt 0.2939269 0.8493541
vt 0.2939269 0.8493541
vt 0.2939269 0.8493541
vt 0.2939269 0.84935415
vt 0.2939269 0.8493541
vt 0.2939269 0.849354
vt 0.2939269 0.8493541
vt 0.2939269 0.8493541
vt 0.2939269 0.849354
vt 0.15656048 0.8303984
vt 0.15656048 0.8303984
vt 0.15656048 0.8303984
vt 0.15656048 0.8303984
vt 0.278632 0.84783715
vt 0.27863196 0.84783715
vt 0.27863196 0.84783715
vt 0.27863196 0.84783715
vt 0.27863196 0.8478371
vt 0.27863196 0.84783715
vt 0.27863196 0.84783715
vt 0.27863196 0.84783715
vt 0.27863196 0.84783715
vt 0.27863196 0.84783715
vt 0.278632 0.84783715
vt 0.27863196 0.84783715
vt 0.27863196 0.84783715
vt 0.27863196 0.84783715
vt 0.27863196 0.84783715
vt 0.27863196 0.84783715
vt 0.22290556 0.83987623
vt 0.22290556 0.83987623
vt 0.22290555 0.83987623
vt 0.22290555 0.8398762
vt 0.22290556 0.83987623
vt 0.22290556 0.83987623
vt 0.22290556 0.83987623
vt 0.22290556 0.83987623
vt 0.22290556 0.8398762
vt 0.22290556 0.83987623
vt 0.22290555 0.8398762
vt 0.22290556 0.83987623
vt 0.22290556 0.83987623
vt 0.22290555 0.83987623
vt 0.22290556 0.8398763
vt 0.22290556 0.83987623
vt 0.15656047 0.8303984
vt 0.15656048 0.8303984
vt 0.15656048 0.8303984
vt 0.15656048 0.8303984
vt 0.15656048 0.8303984
vt 0.15656048 0.8303984
vt 0.15656048 0.8303984
vt 0.15656048 0.8303984
vt 0.15656048 0.83039844
vt 0.15656048 0.8303984
vt 0.1565605 0.83039844
vt 0.15656048 0.8303984
vt 0.21494463 0.8398762
vt 0.21494463 0.8398762
vt 0.21494463 0.83987623
vt 0.21494463 0.8398762
vt 0.22688602 0.65677524
vt 0.22688602 0.65677524
vt 0.22688602 0.65677524
vt 0.22688602 0.65677524
vt 0.596523 0.65361595
vt 0.596523 0.65361595
vt 0.596523 0.65361595
vt 0.596523 0.65361595
vt 0.596523 0.65361595
vt 0.596523 0.65361595
vt 0.596523 0.65361595
vt 0.596523 0.65361595
vt 0.22688602 0.65677524
vt 0.22688602 0.65677524
vt 0.22688602 0.65677524
vt 0.22688602 0.65677524
vt 0.596523 0.65361595
vt 0.596523 0.65361595
vt 0.596523 0.65361595
vt 0.596523 0.65361595
vt 0.5294007 0.1512573
vt 0.5294007 0.1512573
vt 0.5294007 0.1512573
vt 0.5294007 0.1512573
vt 0.596523 0.65361595
vt 0.596523 0.65361595
vt 0.596523 0.65361595
vt 0.596523 0.65361595
vt 0.27863196 0.84783715
vt 0.27863196 0.84783715
vt 0.27863196 0.84783715
vt 0.27863196 0.84783715
vt 0.27863196 0.84783715
vt 0.27863196 0.84783715
vt 0.27863196 0.8478371
vt 0.27863196 0.84783715
vt 0.278632 0.84783715
vt 0.27863196 0.84783715
vt 0.27863196 0.84783715
vt 0.27863196 0.84783715
vt 0.27863196 0.84783715
vt 0.27863196 0.84783715
vt 0.278632 0.84783715
vt 0.27863196 0.84783715
vt 0.278632 0.84783715
vt 0.27863196 0.84783715
vt 0.27863196 0.84783715
vt 0.27863196 0.84783715
vt 0.27863196 0.8478371
vt 0.27863196 0.84783715
vt 0.27863196 0.84783715
vt 0.27863196 0.84783715
vt 0.27863196 0.84783715
vt 0.27863196 0.84783715
vt 0.278632 0.84783715
vt 0.27863196 0.84783715
vt 0.27863196 0.84783715
vt 0.27863196 0.84783715
vt 0.27863196 0.84783715
vt 0.27863196 0.84783715
vt 0.27863196 0.84783715
vt 0.27863196 0.84783715
vt 0.27863196 0.84783715
vt 0.27863196 0.84783715
vt 0.27863196 0.84783715
vt 0.27863196 0.84783715
vt 0.27863196 0.84783715
vt 0.27863196 0.84783715
vt 0.27863196 0.84783715
vt 0.27863196 0.84783715
vt 0.27863196 0.8478371
vt 0.27863196 0.8478371
vt 0.27863196 0.84783715
vt 0.27863196 0.84783715
vt 0.27863196 0.84783715
vt 0.27863196 0.84783715
vt 0.27863196 0.8478371
vt 0.27863196 0.8478371
vt 0.278632 0.84783715
vt 0.278632 0.84783715
vt 0.27863196 0.84783715
vt 0.27863196 0.84783715
vt 0.27863196 0.84783715
vt 0.27863196 0.84783715
vt 0.278632 0.84783715
vt 0.278632 0.84783715
vt 0.27863196 0.84783715
vt 0.27863196 0.84783715
vt 0.27863196 0.84783715
vt 0.27863196 0.84783715
vt 0.27863196 0.84783715
vt 0.27863196 0.8478371
vt 0.27863196 0.8478371
vt 0.27863196 0.84783715
vt 0.27863196 0.84783715
vt 0.27863196 0.84783715
vt 0.27863196 0.84783715
vt 0.27863196 0.8478371
vt 0.27863196 0.8478371
vt 0.27863196 0.84783715
vt 0.40184423 0.9647307
vt 0.40184426 0.9647308
vt 0.40184426 0.9647308
vt 0.40184426 0.9647308
vt 0.40184426 0.96473086
vt 0.40184426 0.96473086
vt 0.21860547 0.84783715
vt 0.21860547 0.84783715
vt 0.21860544 0.84783715
vt 0.21860544 0.84783715
vt 0.21860544 0.84783715
vt 0.21860544 0.84783715
vt 0.21860544 0.84783715
vt 0.21860544 0.84783715
vt 0.21860544 0.84783715
vt 0.21860544 0.84783715
vt 0.21860544 0.84783715
vt 0.21860544 0.84783715
vt 0.21860544 0.84783715
vt 0.21860544 0.84783715
vt 0.21860544 0.84783715
vt 0.21860544 0.84783715
vn 0.26961014 0.7136429 0.6465479
vn 0.26961014 0.7136429 0.6465479
vn 0.26961014 0.7136429 0.6465479
vn -0.6465488 0.71364206 0.26960993
vn -0.6465488 0.71364206 0.26960993
vn -0.6465488 0.71364206 0.26960993
vn -0.26961014 0.71364295 -0.64654785
vn -0.26961014 0.71364295 -0.64654785
vn -0.26961014 0.71364295 -0.64654785
vn 0.6465476 0.71364325 -0.26961005
vn 0.6465476 0.71364325 -0.26961005
vn 0.6465476 0.71364325 -0.26961005
vn -0.585117 0.8109333 0.005035523
vn -0.46380067 0.86083007 -0.20942949
vn -0.2728143 0.9241915 -0.26728696
vn -0.2728143 0.9241915 -0.26728696
vn -0.21733259 0.86085767 -0.4600983
vn -0.0064574755 0.8098402 -0.5866151
vn -0.46380067 0.86083007 -0.20942949
vn -0.21733259 0.86085767 -0.4600983
vn -0.2728143 0.9241915 -0.26728696
vn -0.5851168 0.8109333 0.005035519
vn -0.585117 0.8109333 0.005035523
vn -0.26724625 0.9244708 0.27190676
vn -0.46019113 0.86079526 0.21738361
vn -0.2094453 0.8607887 0.4638701
vn -0.0016673744 0.99999714 0.0017179329
vn 0.27195188 0.9242002 0.26813486
vn 0.0050357226 0.8109097 0.5851495
vn 0.005035655 0.8109103 0.5851489
vn 0.2655928 0.9239709 -0.27520588
vn 0.5710137 0.8200718 -0.037756022
vn 0.54147 0.83524096 -0.09582681
vn 0.54147 0.83524096 -0.09582681
vn 0.58653533 0.80991495 -0.0037557017
vn 0.4638043 0.8608358 0.20939772
vn 0.21739474 0.86080813 0.46016178
vn 0.005035655 0.8109103 0.5851489
vn 0.27195188 0.9242002 0.26813486
vn 0.21739474 0.86080813 0.46016178
vn 0.816306 0.47741595 -0.3251438
vn 0.816306 0.47741595 -0.3251438
vn 0.816306 0.47741595 -0.3251438
vn 0.816306 0.47741595 -0.3251438
vn 0.5791942 0.43655944 0.68844026
vn 0.5791942 0.43655944 0.68844026
vn 0.5791942 0.43655944 0.68844026
vn 0.5791942 0.43655944 0.68844026
vn -0.4945121 -0.8455898 0.2010862
vn -0.4945121 -0.8455898 0.2010862
vn -0.4945121 -0.8455898 0.2010862
vn -0.4945121 -0.8455898 0.2010862
vn 0.79964125 0.35264468 0.48602
vn 0.79964125 0.35264468 0.48602
vn 0.79964125 0.35264468 0.48602
vn 0.79964125 0.35264468 0.48602
vn 0.20114416 0.32071114 -0.925573
vn 0.20114416 0.32071114 -0.925573
vn 0.20114416 0.32071114 -0.925573
vn 0.20114416 0.32071114 -0.925573
vn 0.5003126 0.8418236 -0.20253475
vn 0.5003126 0.8418236 -0.20253475
vn 0.5003126 0.8418236 -0.20253475
vn 0.5003126 0.8418236 -0.20253475
vn -0.18644315 0.40509683 -0.89506173
vn -0.18644315 0.40509683 -0.89506173
vn -0.18644315 0.40509683 -0.89506173
vn -0.18644315 0.40509683 -0.89506173
vn 0.50198466 0.47154135 0.7250243
vn 0.50198466 0.47154135 0.7250243
vn 0.50198466 0.47154135 0.7250243
vn 0.50198466 0.47154135 0.7250243
vn 0.49937105 0.8424725 -0.20215978
vn 0.49937105 0.8424725 -0.20215978
vn 0.49937105 0.8424725 -0.20215978
vn 0.49937105 0.8424725 -0.20215978
vn 0.65650374 0.30226466 0.69111425
vn 0.65650374 0.30226466 0.69111425
vn 0.65650374 0.30226466 0.69111425
vn 0.65650374 0.30226466 0.69111425
vn -0.010216995 0.30442366 -0.952482
vn -0.010216995 0.30442366 -0.952482
vn -0.010216995 0.30442366 -0.952482
vn -0.010216995 0.30442366 -0.952482
vn 0.75733167 0.577072 -0.30567384
vn 0.75733167 0.577072 -0.30567384
vn 0.75733167 0.577072 -0.30567384
vn 0.75733167 0.577072 -0.30567384
vn 0.049435508 0.3468487 -0.9366173
vn 0.049435508 0.3468487 -0.9366173
vn 0.049435508 0.3468487 -0.9366173
vn 0.049435508 0.3468487 -0.9366173
vn -0.4935165 -0.8462632 0.20069917
vn -0.4935165 -0.8462632 0.20069917
vn -0.4935165 -0.8462632 0.20069917
vn -0.4935165 -0.8462632 0.20069917
vn 0.7716203 0.55466294 -0.31136984
vn 0.7716203 0.55466294 -0.31136984
vn 0.7716203 0.55466294 -0.31136984
vn 0.7716203 0.55466294 -0.31136984
vn 0.69312835 0.35274994 0.6286021
vn 0.69312835 0.35274994 0.6286021
vn 0.69312835 0.35274994 0.6286021
vn 0.69312835 0.35274994 0.6286021
vn -0.6963862 -0.6594453 0.2831572
vn -0.6963862 -0.6594453 0.2831572
vn -0.6963862 -0.6594453 0.2831572
vn -0.6963862 -0.6594453 0.2831572
vn 0.69799984 0.65917087 -0.2798035
vn 0.69799984 0.65917087 -0.2798035
vn 0.69799984 0.65917087 -0.2798035
vn 0.69799984 0.65917087 -0.2798035
vn 0.16008332 0.30811945 -0.9377823
vn 0.16008332 0.30811945 -0.9377823
vn 0.16008332 0.30811945 -0.9377823
vn 0.16008332 0.30811945 -0.9377823
vn 0.7017599 0.6534645 -0.28375566
vn 0.7017599 0.6534645 -0.28375566
vn 0.7017599 0.6534645 -0.28375566
vn 0.7017599 0.6534645 -0.28375566
vn 0.7481172 0.29037738 0.5966588
vn 0.7481172 0.29037738 0.5966588
vn 0.7481172 0.29037738 0.5966588
vn 0.7481172 0.29037738 0.5966588
vn -0.071441725 0.42942855 -0.9002706
vn -0.071441725 0.42942855 -0.9002706
vn -0.071441725 0.42942855 -0.9002706
vn -0.071441725 0.42942855 -0.9002706
vn -0.11696363 0.37550455 -0.9194105
vn -0.11696363 0.37550455 -0.9194105
vn -0.11696363 0.37550455 -0.9194105
vn -0.11696363 0.37550455 -0.9194105
vn -0.814518 -0.4763767 0.3310978
vn -0.814518 -0.4763767 0.3310978
vn -0.814518 -0.4763767 0.3310978
vn -0.814518 -0.4763767 0.3310978
vn 0.5578166 0.37279588 0.74152803
vn 0.5578166 0.37279588 0.74152803
vn 0.5578166 0.37279588 0.74152803
vn 0.5578166 0.37279588 0.74152803
vn 0.7013486 0.65397453 -0.28359744
vn 0.7013486 0.65397453 -0.28359744
vn 0.7013486 0.65397453 -0.28359744
vn 0.7013486 0.65397453 -0.28359744
vn -0.81349623 -0.47846645 0.33059597
vn -0.81349623 -0.47846645 0.33059597
vn -0.81349623 -0.47846645 0.33059597
vn -0.81349623 -0.47846645 0.33059597
vn 0.49481484 0.84592503 -0.19891986
vn 0.49481484 0.84592503 -0.19891986
vn 0.49481484 0.84592503 -0.19891986
vn 0.49481484 0.84592503 -0.19891986
vn -0.69683474 -0.6589055 0.28331044
vn -0.69683474 -0.6589055 0.28331044
vn -0.69683474 -0.6589055 0.28331044
vn -0.69683474 -0.6589055 0.28331044
vn -0.92377424 0.08259549 0.37392402
vn -0.92377424 0.08259549 0.37392402
vn -0.92377424 0.08259549 0.37392402
vn -0.92377424 0.08259549 0.37392402
vn -0.924102 -0.07713123 0.37428102
vn -0.924102 -0.07713123 0.37428102
vn -0.924102 -0.07713123 0.37428102
vn -0.924102 -0.07713123 0.37428102
vn -0 -1 0
vn -0 -1 0
vn -0 -1 0
vn -0 -1 0
vn -4.4630124E-07 1 0
vn -4.4630124E-07 1 0
vn -4.4630124E-07 1 0
vn -4.4630124E-07 1 0
vn 0.9229669 0 -0.38487947
vn 0.9229669 0 -0.38487947
vn 0.9229669 0 -0.38487947
vn 0.9229669 0 -0.38487947
vn -0.3848769 0 -0.9229679
vn -0.3848769 0 -0.9229679
vn -0.3848769 0 -0.9229679
vn -0.3848769 0 -0.9229679
vn 0.38487685 0 0.92296803
vn 0.38487685 0 0.92296803
vn 0.38487685 0 0.92296803
vn 0.38487685 0 0.92296803
vn -6.0135125E-07 1 0
vn -6.0135125E-07 1 0
vn -6.0135125E-07 1 0
vn -6.0135125E-07 1 0
vn 3.986267E-07 1 0
vn 3.986267E-07 1 0
vn 3.986267E-07 1 0
vn 3.986267E-07 1 0
vn -0 1 0
vn -0 1 0
vn -0 1 0
vn -0 1 0
vn -0 1 0
vn -0 1 0
vn -0 1 0
vn -0 1 0
vn -0.70555276 -0.6446958 0.2942152
vn -0.70555276 -0.6446958 0.2942152
vn -0.70555276 -0.6446958 0.2942152
vn -0.70555276 -0.6446958 0.2942152
vn 0.8235299 -0.4515164 -0.34341154
vn 0.8235299 -0.4515164 -0.34341154
vn 0.8235299 -0.4515164 -0.34341154
vn 0.8235299 -0.4515164 -0.34341154
vn 0.82352966 -0.45151693 -0.3434114
vn 0.82352966 -0.45151693 -0.3434114
vn 0.82352966 -0.45151693 -0.3434114
vn 0.82352966 -0.45151693 -0.3434114
vn 0.37901896 0.17381051 0.9089194
vn 0.37901896 0.17381051 0.9089194
vn 0.37901896 0.17381051 0.9089194
vn 0.37901896 0.17381051 0.9089194
vn -0 1 0
vn -0 1 0
vn -0 1 0
vn -0 1 0
vn -0 1 0
vn -0 1 0
vn -0 1 0
vn -0 1 0
vn -0 1 0
vn -0 1 0
vn -0 1 0
vn -0 1 0
vn -0 1 0
vn -0 1 0
vn -0 1 0
vn -0 1 0
vn -0 1 0
vn -0 1 0
vn 3.293092E-07 1 0
vn 3.293092E-07 1 0
vn 3.293092E-07 1 0
vn 3.293092E-07 1 0
vn 0.8984258 0.22907078 -0.37464342
vn 0.8984258 0.22907078 -0.37464342
vn 0.8984258 0.22907078 -0.37464342
vn 0.8984258 0.22907078 -0.37464342
vn -0.37901852 0.17380883 -0.90892
vn -0.37901852 0.17380883 -0.90892
vn -0.37901852 0.17380883 -0.90892
vn -0.37901852 0.17380883 -0.90892
vn -0.9167324 0.11659495 0.3821093
vn -0.9167324 0.11659495 0.3821093
vn -0.9167324 0.11659495 0.3821093
vn -0.9167324 0.11659495 0.3821093
vn 0.3434137 -0.45150593 0.8235347
vn 0.3434137 -0.45150593 0.8235347
vn 0.3434137 -0.45150593 0.8235347
vn 0.3434137 -0.45150593 0.8235347
vn 0.34341326 -0.4515057 0.8235351
vn 0.34341326 -0.4515057 0.8235351
vn 0.34341326 -0.4515057 0.8235351
vn 0.34341326 -0.4515057 0.8235351
vn -0.3790193 0.17380856 -0.9089197
vn -0.3790193 0.17380856 -0.9089197
vn -0.3790193 0.17380856 -0.9089197
vn -0.3790193 0.17380856 -0.9089197
vn 0.3857918 -0.0005660949 0.9225857
vn 0.3857918 -0.0005660949 0.9225857
vn 0.3857918 -0.0005660949 0.9225857
vn 0.3857918 -0.0005660949 0.9225857
vn -0.38577947 0.00056518835 -0.9225908
vn -0.38577947 0.00056518835 -0.9225908
vn -0.38577947 0.00056518835 -0.9225908
vn -0.38577947 0.00056518835 -0.9225908
vn 0.9229678 -1.1955021E-07 -0.38487706
vn 0.9229678 -1.1955021E-07 -0.38487706
vn 0.9229678 -1.1955021E-07 -0.38487706
vn 0.9229678 -1.1955021E-07 -0.38487706
vn -0.384877 0 -0.9229679
vn -0.384877 0 -0.9229679
vn -0.384877 0 -0.9229679
vn -0.384877 0 -0.9229679
vn -0.2942127 -0.6447031 -0.7055471
vn -0.2942127 -0.6447031 -0.7055471
vn -0.2942127 -0.6447031 -0.7055471
vn -0.2942127 -0.6447031 -0.7055471
vn 0.19926454 0.9764165 -0.08309318
vn 0.19926454 0.9764165 -0.08309318
vn 0.19926454 0.9764165 -0.08309318
vn 0.19926454 0.9764165 -0.08309318
vn -0.083092704 0.9764168 -0.19926304
vn -0.083092704 0.9764168 -0.19926304
vn -0.083092704 0.9764168 -0.19926304
vn -0.083092704 0.9764168 -0.19926304
vn -0.1992621 0.97641706 0.08309203
vn -0.1992621 0.97641706 0.08309203
vn -0.1992621 0.97641706 0.08309203
vn -0.1992621 0.97641706 0.08309203
vn -0.38487664 -1.9199598E-07 -0.92296803
vn -0.38487664 -1.9199598E-07 -0.92296803
vn -0.38487664 -1.9199598E-07 -0.92296803
vn -0.38487664 -1.9199598E-07 -0.92296803
vn -0 -1 0
vn -0 -1 0
vn -0 -1 0
vn -0 -1 0
vn -0 -1 0
vn -0 -1 0
vn -0 -1 0
vn -0 -1 0
vn -0.9229679 4.4022272E-07 0.38487706
vn -0.9229679 4.4022272E-07 0.38487706
vn -0.9229679 4.4022272E-07 0.38487706
vn -0.9229679 4.4022272E-07 0.38487706
vn -0 -1 0
vn -0 -1 0
vn -0 -1 0
vn -0 -1 0
vn -0 -1 0
vn -0 -1 0
vn -0 -1 0
vn -0 -1 0
vn -0 -1 0
vn -0 -1 0
vn -0 -1 0
vn -0 -1 0
vn -0.91667384 0.11711038 0.3820918
vn -0.91667384 0.11711038 0.3820918
vn -0.91667384 0.11711038 0.3820918
vn -0.91667384 0.11711038 0.3820918
vn 0.38487738 -3.7090803E-07 0.92296773
vn 0.38487738 -3.7090803E-07 0.92296773
vn 0.38487738 -3.7090803E-07 0.92296773
vn 0.38487738 -3.7090803E-07 0.92296773
vn -0.9230851 0.0001367606 0.38459554
vn -0.9230851 0.0001367606 0.38459554
vn -0.9230851 0.0001367606 0.38459554
vn -0.9230851 0.0001367606 0.38459554
vn 0.8975293 0.034846716 -0.43957564
vn 0.8975293 0.034846716 -0.43957564
vn 0.8975293 0.034846716 -0.43957564
vn 0.8975293 0.034846716 -0.43957564
vn -0 1 0
vn -0 1 0
vn -0 1 0
vn -0 1 0
vn 0.9229679 1.1868034E-07 -0.38487688
vn 0.9229679 1.1868034E-07 -0.38487688
vn 0.9229679 1.1868034E-07 -0.38487688
vn 0.9229679 1.1868034E-07 -0.38487688
vn -0.055436354 0.98957235 -0.13294065
vn -0.055436354 0.98957235 -0.13294065
vn -0.055436354 0.98957235 -0.13294065
vn -0.055436354 0.98957235 -0.13294065
vn 0.055436045 -0.98957247 0.13294041
vn 0.055436045 -0.98957247 0.13294041
vn 0.055436045 -0.98957247 0.13294041
vn 0.055436045 -0.98957247 0.13294041
vn -0.38086367 -0.14403488 -0.9133437
vn -0.38086367 -0.14403488 -0.9133437
vn -0.38086367 -0.14403488 -0.9133437
vn -0.38086367 -0.14403488 -0.9133437
vn 0.38086402 0.14403515 0.9133436
vn 0.38086402 0.14403515 0.9133436
vn 0.38086402 0.14403515 0.9133436
vn 0.38086402 0.14403515 0.9133436
vn -0.92252535 0.0001682422 0.38593638
vn -0.92252535 0.0001682422 0.38593638
vn -0.92252535 0.0001682422 0.38593638
vn -0.92252535 0.0001682422 0.38593638
vn 0.92341137 0.00016677601 -0.38381162
vn 0.92341137 0.00016677601 -0.38381162
vn 0.92341137 0.00016677601 -0.38381162
vn 0.92341137 0.00016677601 -0.38381162
vn -0.05543667 0.98957235 -0.13294114
vn -0.05543667 0.98957235 -0.13294114
vn -0.05543667 0.98957235 -0.13294114
vn -0.05543667 0.98957235 -0.13294114
vn 0.055435833 -0.9895726 0.13293992
vn 0.055435833 -0.9895726 0.13293992
vn 0.055435833 -0.9895726 0.13293992
vn 0.055435833 -0.9895726 0.13293992
vn -0.38086393 -0.14403294 -0.913344
vn -0.38086393 -0.14403294 -0.913344
vn -0.38086393 -0.14403294 -0.913344
vn -0.38086393 -0.14403294 -0.913344
vn 0.38086388 0.14403583 0.9133435
vn 0.38086388 0.14403583 0.9133435
vn 0.38086388 0.14403583 0.9133435
vn 0.38086388 0.14403583 0.9133435
vn -0.92252433 0.0001689017 0.38593888
vn -0.92252433 0.0001689017 0.38593888
vn -0.92252433 0.0001689017 0.38593888
vn -0.92252433 0.0001689017 0.38593888
vn 0.9234111 0.00016897506 -0.38381237
vn 0.9234111 0.00016897506 -0.38381237
vn 0.9234111 0.00016897506 -0.38381237
vn 0.9234111 0.00016897506 -0.38381237
vn -0.055435468 0.9895726 -0.13293932
vn -0.055435468 0.9895726 -0.13293932
vn -0.055435468 0.9895726 -0.13293932
vn -0.055435468 0.9895726 -0.13293932
vn 0.055435915 -0.98957247 0.13294029
vn 0.055435915 -0.98957247 0.13294029
vn 0.055435915 -0.98957247 0.13294029
vn 0.055435915 -0.98957247 0.13294029
vn -0.38086364 -0.144034 -0.9133439
vn -0.38086364 -0.144034 -0.9133439
vn -0.38086364 -0.144034 -0.9133439
vn -0.38086364 -0.144034 -0.9133439
vn 0.3808639 0.14403366 0.9133438
vn 0.3808639 0.14403366 0.9133438
vn 0.3808639 0.14403366 0.9133438
vn 0.3808639 0.14403366 0.9133438
vn -0.92252415 0.00016846198 0.3859395
vn -0.92252415 0.00016846198 0.3859395
vn -0.92252415 0.00016846198 0.3859395
vn -0.92252415 0.00016846198 0.3859395
vn 0.9234124 0.00016699616 -0.38380927
vn 0.9234124 0.00016699616 -0.38380927
vn 0.9234124 0.00016699616 -0.38380927
vn 0.9234124 0.00016699616 -0.38380927
vn 0.92296964 4.850711E-07 -0.38487265
vn 0.92296964 4.850711E-07 -0.38487265
vn 0.92296964 4.850711E-07 -0.38487265
vn 0.92296964 4.850711E-07 -0.38487265
vn -0.9229688 -4.850707E-07 0.3848747
vn -0.9229688 -4.850707E-07 0.3848747
vn -0.9229688 -4.850707E-07 0.3848747
vn -0.9229688 -4.850707E-07 0.3848747
vn -0.38086176 -0.1440352 -0.9133445
vn -0.38086176 -0.1440352 -0.9133445
vn -0.38086176 -0.1440352 -0.9133445
vn -0.38086176 -0.1440352 -0.9133445
vn 0.3808627 0.14403535 0.9133441
vn 0.3808627 0.14403535 0.9133441
vn 0.3808627 0.14403535 0.9133441
vn 0.3808627 0.14403535 0.9133441
vn -0.054702688 0.98984784 -0.13118304
vn -0.054702688 0.98984784 -0.13118304
vn -0.054702688 0.98984784 -0.13118304
vn -0.054702688 0.98984784 -0.13118304
vn 0.056170132 -0.98929286 0.13470191
vn 0.056170132 -0.98929286 0.13470191
vn 0.056170132 -0.98929286 0.13470191
vn 0.056170132 -0.98929286 0.13470191
vn 0.9229689 4.8507184E-07 -0.38487443
vn 0.9229689 4.8507184E-07 -0.38487443
vn 0.9229689 4.8507184E-07 -0.38487443
vn 0.9229689 4.8507184E-07 -0.38487443
vn -0.9229679 0 0.38487682
vn -0.9229679 0 0.38487682
vn -0.9229679 0 0.38487682
vn -0.9229679 0 0.38487682
vn -0.38086194 -0.14403561 -0.9133444
vn -0.38086194 -0.14403561 -0.9133444
vn -0.38086194 -0.14403561 -0.9133444
vn -0.38086194 -0.14403561 -0.9133444
vn 0.3808646 0.14403522 0.9133433
vn 0.3808646 0.14403522 0.9133433
vn 0.3808646 0.14403522 0.9133433
vn 0.3808646 0.14403522 0.9133433
vn -0.05470365 0.9898477 -0.1311832
vn -0.05470365 0.9898477 -0.1311832
vn -0.05470365 0.9898477 -0.1311832
vn -0.05470365 0.9898477 -0.1311832
vn 0.056170363 -0.98929274 0.134702
vn 0.056170363 -0.98929274 0.134702
vn 0.056170363 -0.98929274 0.134702
vn 0.056170363 -0.98929274 0.134702
vn -0 -1 0
vn -0 -1 0
vn -0 -1 0
vn -0 -1 0
vn -0 1 0
vn -0 1 0
vn -0 1 0
vn -0 1 0
vn 0.9229671 0 -0.38487884
vn 0.9229671 0 -0.38487884
vn 0.9229671 0 -0.38487884
vn 0.9229671 0 -0.38487884
vn -0.9229682 0 0.38487616
vn -0.9229682 0 0.38487616
vn -0.9229682 0 0.38487616
vn -0.9229682 0 0.38487616
vn -0.38487738 0 -0.92296773
vn -0.38487738 0 -0.92296773
vn -0.38487738 0 -0.92296773
vn -0.38487738 0 -0.92296773
vn 0.38487598 0 0.9229683
vn 0.38487598 0 0.9229683
vn 0.38487598 0 0.9229683
vn 0.38487598 0 0.9229683
vn -0 -1 0
vn -0 -1 0
vn -0 -1 0
vn -0 -1 0
vn -0 1 0
vn -0 1 0
vn -0 1 0
vn -0 1 0
vn -0.9229683 0 0.384876
vn -0.9229683 0 0.384876
vn -0.9229683 0 0.384876
vn -0.9229683 0 0.384876
vn -0.38487738 0 -0.92296773
vn -0.38487738 0 -0.92296773
vn -0.38487738 0 -0.92296773
vn -0.38487738 0 -0.92296773
vn 0.38487598 0 0.9229683
vn 0.38487598 0 0.9229683
vn 0.38487598 0 0.9229683
vn 0.38487598 0 0.9229683
vn -0 -1 0
vn -0 -1 0
vn -0 -1 0
vn -0 -1 0
vn -4.463019E-07 1 0
vn -4.463019E-07 1 0
vn -4.463019E-07 1 0
vn -4.463019E-07 1 0
vn 0.9229668 0 -0.38487977
vn 0.9229668 0 -0.38487977
vn 0.9229668 0 -0.38487977
vn 0.9229668 0 -0.38487977
vn -0.38487652 0 -0.92296803
vn -0.38487652 0 -0.92296803
vn -0.38487652 0 -0.92296803
vn -0.38487652 0 -0.92296803
vn 0.3848758 0 0.9229683
vn 0.3848758 0 0.9229683
vn 0.3848758 0 0.9229683
vn 0.3848758 0 0.9229683
vn 0.9229669 0 -0.3848793
vn 0.9229669 0 -0.3848793
vn 0.9229669 0 -0.3848793
vn 0.9229669 0 -0.3848793
vn -0.92296845 0 0.3848757
vn -0.92296845 0 0.3848757
vn -0.92296845 0 0.3848757
vn -0.92296845 0 0.3848757
vn -0.9229681 0 0.38487628
vn -0.9229681 0 0.38487628
vn -0.9229681 0 0.38487628
vn -0.9229681 0 0.38487628
vn -0.92296803 -3.8399145E-07 0.3848766
vn -0.92296803 -3.8399145E-07 0.3848766
vn -0.92296803 -3.8399145E-07 0.3848766
vn -0.92296803 -3.8399145E-07 0.3848766
vn 0.9229678 -1.9199568E-07 -0.3848771
vn 0.9229678 -1.9199568E-07 -0.3848771
vn 0.9229678 -1.9199568E-07 -0.3848771
vn 0.9229678 -1.9199568E-07 -0.3848771
vn 0.08309264 0.9764168 0.19926307
vn 0.08309264 0.9764168 0.19926307
vn 0.08309264 0.9764168 0.19926307
vn 0.08309264 0.9764168 0.19926307
vn 0.38487676 -1.5359667E-06 0.92296803
vn 0.38487676 -1.5359667E-06 0.92296803
vn 0.38487676 -1.5359667E-06 0.92296803
vn 0.38487676 -1.5359667E-06 0.92296803
vn 1.3042852E-06 1 0
vn 1.3042852E-06 1 0
vn 1.3042852E-06 1 0
vn 1.3042852E-06 1 0
vn -0.9275225 8.7525885E-05 -0.37376714
vn -0.9275225 8.7525885E-05 -0.37376714
vn -0.9275225 8.7525885E-05 -0.37376714
vn -0.9275225 8.7525885E-05 -0.37376714
vn 0.3915082 0.00029028105 -0.9201746
vn 0.3915082 0.00029028105 -0.9201746
vn 0.3915082 0.00029028105 -0.9201746
vn 0.3915082 0.00029028105 -0.9201746
vn 0.9225471 0.00069547194 0.38588408
vn 0.9225471 0.00069547194 0.38588408
vn 0.9225471 0.00069547194 0.38588408
vn 0.9225471 0.00069547194 0.38588408
vn -0.36998641 0.0003529675 0.92903703
vn -0.36998641 0.0003529675 0.92903703
vn -0.36998641 0.0003529675 0.92903703
vn -0.36998641 0.0003529675 0.92903703
vn -0.37980935 0.20251966 0.90262437
vn -0.37980935 0.20251966 0.90262437
vn -0.37980935 0.20251966 0.90262437
vn -0.37980935 0.20251966 0.90262437
vn -0.9031711 0.20322983 -0.3781264
vn -0.9031711 0.20322983 -0.3781264
vn -0.9031711 0.20322983 -0.3781264
vn -0.9031711 0.20322983 -0.3781264
vn 0.35907453 0.2786392 -0.8907445
vn 0.35907453 0.2786392 -0.8907445
vn 0.35907453 0.2786392 -0.8907445
vn 0.35907453 0.2786392 -0.8907445
vn 0.8905814 0.2791071 0.35911563
vn 0.8905814 0.2791071 0.35911563
vn 0.8905814 0.2791071 0.35911563
vn 0.8905814 0.2791071 0.35911563
vn 0.7503018 -0.58203924 0.31349236
vn 0.7503018 -0.58203924 0.31349236
vn 0.7503018 -0.58203924 0.31349236
vn 0.7503018 -0.58203924 0.31349236
vn 0.28547642 -0.6893542 -0.6658033
vn 0.28547642 -0.6893542 -0.6658033
vn 0.28547642 -0.6893542 -0.6658033
vn 0.28547642 -0.6893542 -0.6658033
vn -0.59542876 -0.76663905 -0.24026902
vn -0.59542876 -0.76663905 -0.24026902
vn -0.59542876 -0.76663905 -0.24026902
vn -0.59542876 -0.76663905 -0.24026902
vn -0.26610842 -0.68938273 0.673749
vn -0.26610842 -0.68938273 0.673749
vn -0.26610842 -0.68938273 0.673749
vn -0.26610842 -0.68938273 0.673749
vn -0.05850345 0.98810846 0.14219336
vn -0.05850345 0.98810846 0.14219336
vn -0.05850345 0.98810846 0.14219336
vn -0.05850345 0.98810846 0.14219336
vn 0.3804871 0.0019712797 -0.9247842
vn 0.3804871 0.0019712797 -0.9247842
vn 0.3804871 0.0019712797 -0.9247842
vn 0.3804871 0.0019712797 -0.9247842
vn -0.92478424 0.0019709412 -0.38048676
vn -0.92478424 0.0019709412 -0.38048676
vn -0.92478424 0.0019709412 -0.38048676
vn -0.92478424 0.0019709412 -0.38048676
vn -0.380487 0.0019720413 0.9247842
vn -0.380487 0.0019720413 0.9247842
vn -0.380487 0.0019720413 0.9247842
vn -0.380487 0.0019720413 0.9247842
vn 0.9247848 0.0019719484 0.3804856
vn 0.9247848 0.0019719484 0.3804856
vn 0.9247848 0.0019719484 0.3804856
vn 0.9247848 0.0019719484 0.3804856
vn 0.5272599 0.8215457 0.21693197
vn 0.5272599 0.8215457 0.21693197
vn 0.5272599 0.8215457 0.21693197
vn 0.5272599 0.8215457 0.21693197
vn -0.5272605 0.82154536 -0.21693237
vn -0.5272605 0.82154536 -0.21693237
vn -0.5272605 0.82154536 -0.21693237
vn -0.5272605 0.82154536 -0.21693237
vn 0.2169332 0.8215456 -0.52725977
vn 0.2169332 0.8215456 -0.52725977
vn 0.2169332 0.8215456 -0.52725977
vn 0.2169332 0.8215456 -0.52725977
vn -0.21693349 0.8215454 0.52725995
vn -0.21693349 0.8215454 0.52725995
vn -0.21693349 0.8215454 0.52725995
vn -0.21693349 0.8215454 0.52725995
vn 0.14219397 0.98810834 0.05850332
vn 0.14219397 0.98810834 0.05850332
vn 0.14219397 0.98810834 0.05850332
vn 0.14219397 0.98810834 0.05850332
vn -0.14219205 0.9881087 -0.05850282
vn -0.14219205 0.9881087 -0.05850282
vn -0.14219205 0.9881087 -0.05850282
vn -0.14219205 0.9881087 -0.05850282
vn 0.058504734 0.98810834 -0.14219408
vn 0.058504734 0.98810834 -0.14219408
vn 0.058504734 0.98810834 -0.14219408
vn 0.058504734 0.98810834 -0.14219408
vn 0.38487726 -8.5012266E-07 0.9229678
vn 0.38487726 -8.5012266E-07 0.9229678
vn 0.38487726 -8.5012266E-07 0.9229678
vn 0.38487726 -8.5012266E-07 0.9229678
vn -0.15138258 0.46423182 -0.872681
vn -0.15138258 0.46423182 -0.872681
vn -0.15138258 0.46423182 -0.872681
vn -0.15138258 0.46423182 -0.872681
vn -0.34883243 -0.9263835 0.14187855
vn -0.34883243 -0.9263835 0.14187855
vn -0.34883243 -0.9263835 0.14187855
vn -0.34883243 -0.9263835 0.14187855
vn 0.3490081 0.9263834 -0.141447
vn 0.3490081 0.9263834 -0.141447
vn 0.3490081 0.9263834 -0.141447
vn 0.3490081 0.9263834 -0.141447
vn 0.4910155 0.4023916 0.7726479
vn 0.4910155 0.4023916 0.7726479
vn 0.4910155 0.4023916 0.7726479
vn 0.4910155 0.4023916 0.7726479
vn -0.34883568 -0.92638355 0.14187041
vn -0.34883568 -0.92638355 0.14187041
vn -0.34883568 -0.92638355 0.14187041
vn -0.34883568 -0.92638355 0.14187041
vn 0.34928507 0.9263828 -0.14076562
vn 0.34928507 0.9263828 -0.14076562
vn 0.34928507 0.9263828 -0.14076562
vn 0.34928507 0.9263828 -0.14076562
vn 0.34900802 0.92638326 -0.14144732
vn 0.34900802 0.92638326 -0.14144732
vn 0.34900802 0.92638326 -0.14144732
vn 0.34900802 0.92638326 -0.14144732
vn -0.008455881 0.18568267 -0.98257333
vn -0.008455881 0.18568267 -0.98257333
vn -0.008455881 0.18568267 -0.98257333
vn -0.008455881 0.18568267 -0.98257333
vn -0.98257345 0.18568234 0.008455833
vn -0.98257345 0.18568234 0.008455833
vn -0.98257345 0.18568234 0.008455833
vn -0.98257345 0.18568234 0.008455833
vn 0.9825732 0.18568325 -0.008455831
vn 0.9825732 0.18568325 -0.008455831
vn 0.9825732 0.18568325 -0.008455831
vn 0.9825732 0.18568325 -0.008455831
vn 0.008455673 0.18568203 0.98257345
vn 0.008455673 0.18568203 0.98257345
vn 0.008455673 0.18568203 0.98257345
vn 0.008455673 0.18568203 0.98257345
vn 0.67951065 0.24566737 -0.69131243
vn 0.67951065 0.24566737 -0.69131243
vn 0.67951065 0.24566737 -0.69131243
vn 0.67951065 0.24566737 -0.69131243
vn -0.6913097 0.24566552 -0.6795141
vn -0.6913097 0.24566552 -0.6795141
vn -0.6913097 0.24566552 -0.6795141
vn -0.6913097 0.24566552 -0.6795141
vn -0.67951274 0.24566543 0.69131106
vn -0.67951274 0.24566543 0.69131106
vn -0.67951274 0.24566543 0.69131106
vn -0.67951274 0.24566543 0.69131106
vn 0.6913121 0.24566571 0.67951167
vn 0.6913121 0.24566571 0.67951167
vn 0.6913121 0.24566571 0.67951167
vn 0.6913121 0.24566571 0.67951167
vn 0.6923537 0.23982136 0.6805381
vn 0.6923537 0.23982136 0.6805381
vn 0.6923537 0.23982136 0.6805381
vn 0.6923537 0.23982136 0.6805381
vn 0.68053985 0.23982163 -0.6923518
vn 0.68053985 0.23982163 -0.6923518
vn 0.68053985 0.23982163 -0.6923518
vn 0.68053985 0.23982163 -0.6923518
vn 0.98315424 0.18258213 -0.008460884
vn 0.98315424 0.18258213 -0.008460884
vn 0.98315424 0.18258213 -0.008460884
vn 0.98315424 0.18258213 -0.008460884
vn 0.98315424 0.18258213 -0.008460884
vn 0.98315424 0.18258213 -0.008460884
vn -0.9831561 0.18257247 0.008461499
vn -0.9831561 0.18257247 0.008461499
vn -0.9831561 0.18257247 0.008461499
vn -0.9831561 0.18257247 0.008461499
vn -0.9831561 0.18257247 0.008461499
vn -0.9831561 0.18257247 0.008461499
vn -0.69235444 0.23981695 -0.6805389
vn -0.69235444 0.23981695 -0.6805389
vn -0.69235444 0.23981695 -0.6805389
vn -0.69235444 0.23981695 -0.6805389
vn -0.6805412 0.23981562 0.69235253
vn -0.6805412 0.23981562 0.69235253
vn -0.6805412 0.23981562 0.69235253
vn -0.6805412 0.23981562 0.69235253
vn -0.008460972 0.18257888 -0.9831548
vn -0.008460972 0.18257888 -0.9831548
vn -0.008460972 0.18257888 -0.9831548
vn -0.008460972 0.18257888 -0.9831548
vn -0.008460972 0.18257888 -0.9831548
vn -0.008460972 0.18257888 -0.9831548
vn 0.008460838 0.18257722 0.98315513
vn 0.008460838 0.18257722 0.98315513
vn 0.008460838 0.18257722 0.98315513
vn 0.008460838 0.18257722 0.98315513
vn 0.008460838 0.18257722 0.98315513
vn 0.008460838 0.18257722 0.98315513
vn -0.2728143 0.9241915 -0.26728696
vn -0.0064574755 0.8098402 -0.5866151
vn -0.006474714 0.8084163 -0.5885755
vn 0.2655928 0.9239709 -0.27520588
vn -0.0016673744 0.99999714 0.0017179329
vn -0.005079219 0.8072234 -0.5902243
vn -0 1 0
vn -0 1 0
vn -0 1 0
vn -0 1 0
vn -0 1 0
vn -0 1 0
vn -0 1 0
vn -0 1 0
vn -0 1 0
vn -0 1 0
vn -0 1 0
vn -0 1 0
vn -0 1 0
vn -0 1 0
vn -0 1 0
vn -0 1 0
g Playground_0
f 3/3/3 2/2/2 1/1/1
f 6/6/6 5/5/5 4/4/4
f 9/9/9 8/8/8 7/7/7
f 12/12/12 11/11/11 10/10/10
f 15/15/15 14/14/14 13/13/13
f 18/18/18 17/17/17 16/16/16
f 21/21/21 20/20/20 19/19/19
f 21/21/21 23/23/23 22/22/22
f 24/24/24 21/21/21 22/22/22
f 25/25/25 24/24/24 22/22/22
f 26/26/26 24/24/24 25/25/25
f 21/21/21 24/24/24 27/27/27
f 24/24/24 28/28/28 27/27/27
f 29/29/29 24/24/24 26/26/26
f 28/28/28 24/24/24 29/29/29
f 30/30/30 28/28/28 29/29/29
f 31/31/31 27/27/27 28/28/28
f 32/32/32 31/31/31 28/28/28
f 32/32/32 33/33/33 31/31/31
f 33/33/33 34/34/34 31/31/31
f 35/35/35 32/32/32 28/28/28
f 36/36/36 35/35/35 28/28/28
f 36/36/36 28/28/28 37/37/37
f 40/40/40 39/39/39 38/38/38
f 43/43/43 42/42/42 41/41/41
f 44/44/44 43/43/43 41/41/41
f 47/47/47 46/46/46 45/45/45
f 48/48/48 47/47/47 45/45/45
f 51/51/51 50/50/50 49/49/49
f 52/52/52 51/51/51 49/49/49
f 55/55/55 54/54/54 53/53/53
f 56/56/56 55/55/55 53/53/53
f 59/59/59 58/58/58 57/57/57
f 60/60/60 59/59/59 57/57/57
f 63/63/63 62/62/62 61/61/61
f 64/64/64 63/63/63 61/61/61
f 67/67/67 66/66/66 65/65/65
f 68/68/68 67/67/67 65/65/65
f 71/71/71 70/70/70 69/69/69
f 72/72/72 71/71/71 69/69/69
f 75/75/75 74/74/74 73/73/73
f 76/76/76 75/75/75 73/73/73
f 79/79/79 78/78/78 77/77/77
f 80/80/80 79/79/79 77/77/77
f 83/83/83 82/82/82 81/81/81
f 84/84/84 83/83/83 81/81/81
f 87/87/87 86/86/86 85/85/85
f 88/88/88 87/87/87 85/85/85
f 91/91/91 90/90/90 89/89/89
f 92/92/92 91/91/91 89/89/89
f 95/95/95 94/94/94 93/93/93
f 96/96/96 95/95/95 93/93/93
f 99/99/99 98/98/98 97/97/97
f 100/100/100 99/99/99 97/97/97
f 103/103/103 102/102/102 101/101/101
f 104/104/104 103/103/103 101/101/101
f 107/107/107 106/106/106 105/105/105
f 108/108/108 107/107/107 105/105/105
f 111/111/111 110/110/110 109/109/109
f 112/112/112 111/111/111 109/109/109
f 115/115/115 114/114/114 113/113/113
f 116/116/116 115/115/115 113/113/113
f 119/119/119 118/118/118 117/117/117
f 120/120/120 119/119/119 117/117/117
f 123/123/123 122/122/122 121/121/121
f 124/124/124 123/123/123 121/121/121
f 127/127/127 126/126/126 125/125/125
f 128/128/128 127/127/127 125/125/125
f 131/131/131 130/130/130 129/129/129
f 132/132/132 131/131/131 129/129/129
f 135/135/135 134/134/134 133/133/133
f 136/136/136 135/135/135 133/133/133
f 139/139/139 138/138/138 137/137/137
f 140/140/140 139/139/139 137/137/137
f 143/143/143 142/142/142 141/141/141
f 144/144/144 143/143/143 141/141/141
f 147/147/147 146/146/146 145/145/145
f 148/148/148 147/147/147 145/145/145
f 151/151/151 150/150/150 149/149/149
f 152/152/152 151/151/151 149/149/149
f 155/155/155 154/154/154 153/153/153
f 156/156/156 155/155/155 153/153/153
f 159/159/159 158/158/158 157/157/157
f 160/160/160 159/159/159 157/157/157
f 163/163/163 162/162/162 161/161/161
f 164/164/164 163/163/163 161/161/161
f 167/167/167 166/166/166 165/165/165
f 168/168/168 167/167/167 165/165/165
f 171/171/171 170/170/170 169/169/169
f 172/172/172 171/171/171 169/169/169
f 175/175/175 174/174/174 173/173/173
f 176/176/176 175/175/175 173/173/173
f 179/179/179 178/178/178 177/177/177
f 180/180/180 179/179/179 177/177/177
f 183/183/183 182/182/182 181/181/181
f 184/184/184 183/183/183 181/181/181
f 187/187/187 186/186/186 185/185/185
f 188/188/188 187/187/187 185/185/185
f 187/187/187 188/188/188 189/189/189
f 190/190/190 187/187/187 189/189/189
f 191/191/191 190/190/190 189/189/189
f 192/192/192 191/191/191 189/189/189
f 192/192/192 193/193/193 191/191/191
f 193/193/193 194/194/194 191/191/191
f 195/195/195 194/194/194 193/193/193
f 196/196/196 195/195/195 193/193/193
f 195/195/195 196/196/196 197/197/197
f 198/198/198 195/195/195 197/197/197
f 199/199/199 198/198/198 197/197/197
f 200/200/200 199/199/199 197/197/197
f 203/203/203 202/202/202 201/201/201
f 204/204/204 203/203/203 201/201/201
f 207/207/207 206/206/206 205/205/205
f 208/208/208 207/207/207 205/205/205
f 209/209/209 207/207/207 208/208/208
f 210/210/210 209/209/209 208/208/208
f 211/211/211 209/209/209 210/210/210
f 212/212/212 211/211/211 210/210/210
f 215/215/215 214/214/214 213/213/213
f 216/216/216 215/215/215 213/213/213
f 219/219/219 218/218/218 217/217/217
f 217/217/217 220/220/220 219/219/219
f 220/220/220 217/217/217 221/221/221
f 221/221/221 222/222/222 220/220/220
f 217/217/217 223/223/223 221/221/221
f 223/223/223 224/224/224 221/221/221
f 223/223/223 225/225/225 224/224/224
f 225/225/225 226/226/226 224/224/224
f 225/225/225 227/227/227 226/226/226
f 225/225/225 228/228/228 227/227/227
f 225/225/225 229/229/229 228/228/228
f 225/225/225 230/230/230 229/229/229
f 233/233/233 232/232/232 231/231/231
f 232/232/232 234/234/234 231/231/231
f 231/231/231 234/234/234 235/235/235
f 236/236/236 231/231/231 235/235/235
f 236/236/236 235/235/235 237/237/237
f 235/235/235 238/238/238 237/237/237
f 241/241/241 240/240/240 239/239/239
f 242/242/242 241/241/241 239/239/239
f 245/245/245 244/244/244 243/243/243
f 246/246/246 245/245/245 243/243/243
f 249/249/249 248/248/248 247/247/247
f 250/250/250 249/249/249 247/247/247
f 253/253/253 252/252/252 251/251/251
f 254/254/254 253/253/253 251/251/251
f 253/253/253 254/254/254 255/255/255
f 256/256/256 253/253/253 255/255/255
f 257/257/257 256/256/256 255/255/255
f 258/258/258 257/257/257 255/255/255
f 261/261/261 260/260/260 259/259/259
f 262/262/262 261/261/261 259/259/259
f 265/265/265 264/264/264 263/263/263
f 266/266/266 265/265/265 263/263/263
f 269/269/269 268/268/268 267/267/267
f 270/270/270 269/269/269 267/267/267
f 273/273/273 272/272/272 271/271/271
f 274/274/274 273/273/273 271/271/271
f 277/277/277 276/276/276 275/275/275
f 278/278/278 277/277/277 275/275/275
f 281/281/281 280/280/280 279/279/279
f 282/282/282 281/281/281 279/279/279
f 285/285/285 284/284/284 283/283/283
f 286/286/286 285/285/285 283/283/283
f 289/289/289 288/288/288 287/287/287
f 290/290/290 289/289/289 287/287/287
f 293/293/293 292/292/292 291/291/291
f 294/294/294 293/293/293 291/291/291
f 297/297/297 296/296/296 295/295/295
f 298/298/298 297/297/297 295/295/295
f 301/301/301 300/300/300 299/299/299
f 299/299/299 302/302/302 301/301/301
f 302/302/302 303/303/303 301/301/301
f 302/302/302 304/304/304 303/303/303
f 302/302/302 305/305/305 304/304/304
f 305/305/305 306/306/306 304/304/304
f 309/309/309 308/308/308 307/307/307
f 310/310/310 309/309/309 307/307/307
f 313/313/313 312/312/312 311/311/311
f 311/311/311 314/314/314 313/313/313
f 314/314/314 315/315/315 313/313/313
f 315/315/315 316/316/316 313/313/313
f 315/315/315 317/317/317 316/316/316
f 315/315/315 318/318/318 317/317/317
f 318/318/318 319/319/319 317/317/317
f 319/319/319 320/320/320 317/317/317
f 320/320/320 321/321/321 317/317/317
f 321/321/321 322/322/322 317/317/317
f 325/325/325 324/324/324 323/323/323
f 326/326/326 325/325/325 323/323/323
f 329/329/329 328/328/328 327/327/327
f 330/330/330 329/329/329 327/327/327
f 333/333/333 332/332/332 331/331/331
f 334/334/334 333/333/333 331/331/331
f 337/337/337 336/336/336 335/335/335
f 338/338/338 337/337/337 335/335/335
f 341/341/341 340/340/340 339/339/339
f 342/342/342 341/341/341 339/339/339
f 345/345/345 344/344/344 343/343/343
f 346/346/346 345/345/345 343/343/343
f 349/349/349 348/348/348 347/347/347
f 350/350/350 349/349/349 347/347/347
f 353/353/353 352/352/352 351/351/351
f 354/354/354 353/353/353 351/351/351
f 357/357/357 356/356/356 355/355/355
f 358/358/358 357/357/357 355/355/355
f 361/361/361 360/360/360 359/359/359
f 362/362/362 361/361/361 359/359/359
f 365/365/365 364/364/364 363/363/363
f 366/366/366 365/365/365 363/363/363
f 369/369/369 368/368/368 367/367/367
f 370/370/370 369/369/369 367/367/367
f 373/373/373 372/372/372 371/371/371
f 374/374/374 373/373/373 371/371/371
f 377/377/377 376/376/376 375/375/375
f 378/378/378 377/377/377 375/375/375
f 381/381/381 380/380/380 379/379/379
f 382/382/382 381/381/381 379/379/379
f 385/385/385 384/384/384 383/383/383
f 386/386/386 385/385/385 383/383/383
f 389/389/389 388/388/388 387/387/387
f 390/390/390 389/389/389 387/387/387
f 393/393/393 392/392/392 391/391/391
f 394/394/394 393/393/393 391/391/391
f 397/397/397 396/396/396 395/395/395
f 398/398/398 397/397/397 395/395/395
f 401/401/401 400/400/400 399/399/399
f 402/402/402 401/401/401 399/399/399
f 405/405/405 404/404/404 403/403/403
f 406/406/406 405/405/405 403/403/403
f 409/409/409 408/408/408 407/407/407
f 410/410/410 409/409/409 407/407/407
f 413/413/413 412/412/412 411/411/411
f 414/414/414 413/413/413 411/411/411
f 417/417/417 416/416/416 415/415/415
f 418/418/418 417/417/417 415/415/415
f 421/421/421 420/420/420 419/419/419
f 422/422/422 421/421/421 419/419/419
f 425/425/425 424/424/424 423/423/423
f 426/426/426 425/425/425 423/423/423
f 429/429/429 428/428/428 427/427/427
f 430/430/430 429/429/429 427/427/427
f 433/433/433 432/432/432 431/431/431
f 434/434/434 433/433/433 431/431/431
f 437/437/437 436/436/436 435/435/435
f 438/438/438 437/437/437 435/435/435
f 441/441/441 440/440/440 439/439/439
f 442/442/442 441/441/441 439/439/439
f 445/445/445 444/444/444 443/443/443
f 446/446/446 445/445/445 443/443/443
f 449/449/449 448/448/448 447/447/447
f 450/450/450 449/449/449 447/447/447
f 453/453/453 452/452/452 451/451/451
f 454/454/454 453/453/453 451/451/451
f 457/457/457 456/456/456 455/455/455
f 458/458/458 457/457/457 455/455/455
f 461/461/461 460/460/460 459/459/459
f 462/462/462 461/461/461 459/459/459
f 465/465/465 464/464/464 463/463/463
f 466/466/466 465/465/465 463/463/463
f 469/469/469 468/468/468 467/467/467
f 470/470/470 469/469/469 467/467/467
f 473/473/473 472/472/472 471/471/471
f 474/474/474 473/473/473 471/471/471
f 477/477/477 476/476/476 475/475/475
f 478/478/478 477/477/477 475/475/475
f 481/481/481 480/480/480 479/479/479
f 482/482/482 481/481/481 479/479/479
f 485/485/485 484/484/484 483/483/483
f 486/486/486 485/485/485 483/483/483
f 489/489/489 488/488/488 487/487/487
f 490/490/490 489/489/489 487/487/487
f 493/493/493 492/492/492 491/491/491
f 494/494/494 493/493/493 491/491/491
f 497/497/497 496/496/496 495/495/495
f 498/498/498 497/497/497 495/495/495
f 501/501/501 500/500/500 499/499/499
f 502/502/502 501/501/501 499/499/499
f 505/505/505 504/504/504 503/503/503
f 506/506/506 505/505/505 503/503/503
f 509/509/509 508/508/508 507/507/507
f 510/510/510 509/509/509 507/507/507
f 513/513/513 512/512/512 511/511/511
f 514/514/514 513/513/513 511/511/511
f 517/517/517 516/516/516 515/515/515
f 518/518/518 517/517/517 515/515/515
f 521/521/521 520/520/520 519/519/519
f 522/522/522 521/521/521 519/519/519
f 525/525/525 524/524/524 523/523/523
f 526/526/526 525/525/525 523/523/523
f 529/529/529 528/528/528 527/527/527
f 530/530/530 529/529/529 527/527/527
f 533/533/533 532/532/532 531/531/531
f 534/534/534 533/533/533 531/531/531
f 537/537/537 536/536/536 535/535/535
f 538/538/538 537/537/537 535/535/535
f 541/541/541 540/540/540 539/539/539
f 542/542/542 541/541/541 539/539/539
f 545/545/545 544/544/544 543/543/543
f 546/546/546 545/545/545 543/543/543
f 549/549/549 548/548/548 547/547/547
f 550/550/550 549/549/549 547/547/547
f 553/553/553 552/552/552 551/551/551
f 554/554/554 553/553/553 551/551/551
f 557/557/557 556/556/556 555/555/555
f 558/558/558 557/557/557 555/555/555
f 561/561/561 560/560/560 559/559/559
f 562/562/562 561/561/561 559/559/559
f 565/565/565 564/564/564 563/563/563
f 566/566/566 565/565/565 563/563/563
f 569/569/569 568/568/568 567/567/567
f 570/570/570 569/569/569 567/567/567
f 573/573/573 572/572/572 571/571/571
f 574/574/574 573/573/573 571/571/571
f 577/577/577 576/576/576 575/575/575
f 578/578/578 577/577/577 575/575/575
f 581/581/581 580/580/580 579/579/579
f 582/582/582 581/581/581 579/579/579
f 585/585/585 584/584/584 583/583/583
f 586/586/586 585/585/585 583/583/583
f 589/589/589 588/588/588 587/587/587
f 590/590/590 589/589/589 587/587/587
f 593/593/593 592/592/592 591/591/591
f 594/594/594 593/593/593 591/591/591
f 597/597/597 596/596/596 595/595/595
f 598/598/598 597/597/597 595/595/595
f 601/601/601 600/600/600 599/599/599
f 602/602/602 601/601/601 599/599/599
f 605/605/605 604/604/604 603/603/603
f 606/606/606 605/605/605 603/603/603
f 609/609/609 608/608/608 607/607/607
f 610/610/610 609/609/609 607/607/607
f 613/613/613 612/612/612 611/611/611
f 614/614/614 613/613/613 611/611/611
f 617/617/617 616/616/616 615/615/615
f 618/618/618 617/617/617 615/615/615
f 621/621/621 620/620/620 619/619/619
f 622/622/622 621/621/621 619/619/619
f 625/625/625 624/624/624 623/623/623
f 626/626/626 625/625/625 623/623/623
f 629/629/629 628/628/628 627/627/627
f 630/630/630 629/629/629 627/627/627
f 633/633/633 632/632/632 631/631/631
f 634/634/634 633/633/633 631/631/631
f 637/637/637 636/636/636 635/635/635
f 638/638/638 637/637/637 635/635/635
f 641/641/641 640/640/640 639/639/639
f 642/642/642 641/641/641 639/639/639
f 645/645/645 644/644/644 643/643/643
f 646/646/646 645/645/645 643/643/643
f 649/649/649 648/648/648 647/647/647
f 650/650/650 649/649/649 647/647/647
f 653/653/653 652/652/652 651/651/651
f 654/654/654 653/653/653 651/651/651
f 657/657/657 656/656/656 655/655/655
f 658/658/658 657/657/657 655/655/655
f 661/661/661 660/660/660 659/659/659
f 662/662/662 661/661/661 659/659/659
f 665/665/665 664/664/664 663/663/663
f 666/666/666 665/665/665 663/663/663
f 669/669/669 668/668/668 667/667/667
f 670/670/670 669/669/669 667/667/667
f 673/673/673 672/672/672 671/671/671
f 674/674/674 673/673/673 671/671/671
f 677/677/677 676/676/676 675/675/675
f 678/678/678 677/677/677 675/675/675
f 681/681/681 680/680/680 679/679/679
f 682/682/682 681/681/681 679/679/679
f 685/685/685 684/684/684 683/683/683
f 686/686/686 685/685/685 683/683/683
f 689/689/689 688/688/688 687/687/687
f 690/690/690 689/689/689 687/687/687
f 693/693/693 692/692/692 691/691/691
f 694/694/694 693/693/693 691/691/691
f 697/697/697 696/696/696 695/695/695
f 698/698/698 697/697/697 695/695/695
f 701/701/701 700/700/700 699/699/699
f 702/702/702 701/701/701 699/699/699
f 705/705/705 704/704/704 703/703/703
f 706/706/706 705/705/705 703/703/703
f 709/709/709 708/708/708 707/707/707
f 710/710/710 709/709/709 707/707/707
f 713/713/713 712/712/712 711/711/711
f 714/714/714 713/713/713 711/711/711
f 717/717/717 716/716/716 715/715/715
f 718/718/718 717/717/717 715/715/715
f 721/721/721 720/720/720 719/719/719
f 722/722/722 721/721/721 719/719/719
f 725/725/725 724/724/724 723/723/723
f 726/726/726 725/725/725 723/723/723
f 729/729/729 728/728/728 727/727/727
f 730/730/730 729/729/729 727/727/727
f 733/733/733 732/732/732 731/731/731
f 731/731/731 734/734/734 733/733/733
f 731/731/731 735/735/735 734/734/734
f 731/731/731 736/736/736 735/735/735
f 739/739/739 738/738/738 737/737/737
f 737/737/737 740/740/740 739/739/739
f 737/737/737 741/741/741 740/740/740
f 737/737/737 742/742/742 741/741/741
f 745/745/745 744/744/744 743/743/743
f 746/746/746 745/745/745 743/743/743
f 749/749/749 748/748/748 747/747/747
f 750/750/750 749/749/749 747/747/747
f 753/753/753 752/752/752 751/751/751
f 751/751/751 754/754/754 753/753/753
f 754/754/754 755/755/755 753/753/753
f 755/755/755 756/756/756 753/753/753
f 759/759/759 758/758/758 757/757/757
f 757/757/757 760/760/760 759/759/759
f 757/757/757 761/761/761 760/760/760
f 757/757/757 762/762/762 761/761/761
f 765/765/765 764/764/764 763/763/763
f 766/766/766 765/765/765 763/763/763
f 763/763/763 767/767/767 766/766/766
f 766/766/766 768/768/768 765/765/765
f 771/771/771 770/770/770 769/769/769
f 772/772/772 771/771/771 769/769/769
f 769/769/769 770/770/770 773/773/773
f 774/774/774 771/771/771 772/772/772
f 770/770/770 775/775/775 773/773/773
f 776/776/776 774/774/774 772/772/772
f 773/773/773 775/775/775 777/777/777
f 778/778/778 774/774/774 776/776/776
f 775/775/775 779/779/779 777/777/777
f 780/780/780 778/778/778 776/776/776
f 777/777/777 779/779/779 781/781/781
f 782/782/782 778/778/778 780/780/780
f 779/779/779 783/783/783 781/781/781
f 784/784/784 782/782/782 780/780/780
f 781/781/781 783/783/783 784/784/784
f 783/783/783 782/782/782 784/784/784
