g potPlant01
v 0.52336735 -0.19707327 4.060321
v 0.40551913 1.1499441 3.7708852
v 1.1379507 0.535361 3.7708852
v -0.20906581 0.41751164 4.060321
v -0.22423783 0.8338594 4.917819
v 0.79748094 -0.13189423 4.4803166
v -0.22423783 -0.13189423 4.4803166
v 0.79748094 0.8338594 4.917819
v 0.5688328 0.27158472 3.1161265
v 0.00094213866 -1.0344402 2.7510815
v -0.52407086 -0.23804462 3.1161265
v 1.0938458 -0.5248091 2.7510815
v 0.54616946 0.6044419 2.5795836
v -0.7759446 1.3256444 2.245341
v 0.31141108 1.5173743 2.245341
v -0.54118603 0.412712 2.5795836
v -0.926754 0.14872484 1.79032
v 0.53611076 -0.69585913 1.79032
v -0.43913263 -0.69585913 1.79032
v 1.0237318 0.14872484 1.79032
v 0.53611076 0.9933124 1.7903197
v -0.43913263 0.9933124 1.79032
v -1.0806772 -0.1321155 3.8388143
v 0.2965877 -0.4163257 4.2754855
v -0.4543303 -1.0169683 3.9868135
v -0.3297584 0.46852517 4.127486
v -1.2473236 0.7777124 4.005751
v 0.20735845 0.5649901 4.255382
v -0.6232447 -0.013753357 4.370806
v -0.41672048 1.3564562 3.8903258
v 0.4012315 -0.86420184 3.7944915
v 0.8499975 0.5635214 3.7078285
v 1.2826285 -0.32297045 3.4852886
v -0.031397708 0.022289932 4.0170293
v 0.36480767 -0.3703579 3.6604893
v 1.641408 0.05868652 3.108072
v 1.2590147 -0.8559833 3.3146403
v 0.7472 0.5443084 3.45392
v -0.73135126 -0.2792004 3.8354669
v -0.36705458 -1.5962635 3.318044
v -1.2561659 -1.1879516 3.5641367
v 0.1577592 -0.68751234 3.5893745
v -0.50532794 0.79937977 3.6342459
v -1.5992461 -0.01621817 3.1131136
v -1.4929062 0.9840031 3.2630243
v -0.611668 -0.20084156 3.4843366
v 0.45957366 0.14647792 3.5181248
v 0.20931457 1.5430734 3.1108227
v 1.0610658 0.994762 3.2223034
v -0.39217818 0.6947894 3.4066443
v 0.3328507 0.80986285 2.6927397
v 1.6887779 0.21723144 2.4866538
v 0.81718576 -0.16855255 2.7942498
v 1.2044411 1.1956451 2.3851442
v 0.5404571 -0.35547733 2.3328052
v -0.667925 -1.176785 2.0483515
v -0.5477574 -0.276154 2.438938
v 0.42028984 -1.2561084 1.9422194
v -0.53375006 -0.7351439 2.8076835
v -1.6887776 0.06761479 2.371712
v -0.8229612 0.3236786 2.7714648
v -1.3995657 -0.9912077 2.407931
v -0.2517871 1.3279214 2.8207393
v -1.5503901 0.56519735 2.4864972
v -1.1554168 1.5962646 2.4864972
v -0.64676005 0.29685512 2.8207393
v 0.25511983 -0.57944876 2.7059028
v 1.6410364 -0.40218142 2.249326
v 1.0564972 -1.2245344 2.3840208
v 0.8396584 0.2429042 2.571208
v -0.5233674 -22.802927 4.060321
v -0.40551874 -24.149944 3.7708852
v -1.1379505 -23.535362 3.7708852
v 0.20906594 -23.417511 4.060321
v 0.2242381 -23.833858 4.917819
v -0.797481 -22.868107 4.4803166
v 0.22423778 -22.868105 4.4803166
v -0.79748064 -23.83386 4.917819
v -0.56883276 -23.271585 3.1161265
v -0.00094247574 -21.965559 2.7510815
v 0.5240708 -22.761955 3.1161265
v -1.093846 -22.475191 2.7510815
v -0.5461693 -23.604443 2.5795836
v 0.775945 -24.325644 2.245341
v -0.31141058 -24.517374 2.245341
v 0.54118615 -23.412712 2.5795836
v 0.92675406 -23.148724 1.79032
v -0.536111 -22.304142 1.79032
v 0.4391324 -22.30414 1.79032
v -1.0237318 -23.148726 1.79032
v -0.53611046 -23.993313 1.7903197
v 0.43913296 -23.993313 1.79032
v 1.0806772 -22.867884 3.8388143
v -0.29658785 -22.583673 4.2754855
v 0.45432997 -21.983032 3.9868135
v 0.32975855 -23.468525 4.127486
v 1.2473239 -23.777712 4.005751
v -0.20735827 -23.564991 4.255382
v 0.6232447 -22.986246 4.370806
v 0.41672093 -24.356457 3.8903258
v -0.40123177 -22.135798 3.7944915
v -0.84999734 -23.563522 3.7078285
v -1.2826287 -22.67703 3.4852886
v 0.031397715 -23.02229 4.0170293
v -0.36480778 -22.629642 3.6604893
v -1.641408 -23.058687 3.108072
v -1.259015 -22.144016 3.3146403
v -0.74719983 -23.544308 3.45392
v 0.73135114 -22.720798 3.8354669
v 0.36705408 -21.403736 3.318044
v 1.2561655 -21.812048 3.5641367
v -0.15775943 -22.312489 3.5893745
v 0.5053282 -23.79938 3.6342459
v 1.5992461 -22.983782 3.1131136
v 1.4929066 -23.984003 3.2630243
v 0.61166793 -22.799158 3.4843366
v -0.4595736 -23.146479 3.5181248
v -0.20931406 -24.543074 3.1108227
v -1.0610654 -23.994762 3.2223034
v 0.39217842 -23.69479 3.4066443
v -0.33285043 -23.809862 2.6927397
v -1.6887778 -23.217232 2.4866538
v -0.8171858 -22.831448 2.7942498
v -1.2044407 -24.195646 2.3851442
v -0.54045725 -22.644524 2.3328052
v 0.66792464 -21.823215 2.0483515
v 0.54775727 -22.723846 2.438938
v -0.42029026 -21.743893 1.9422194
v 0.5337498 -22.264856 2.8076835
v 1.6887776 -23.067614 2.371712
v 0.82296133 -23.323679 2.7714648
v 1.3995653 -22.008791 2.407931
v 0.25178754 -24.32792 2.8207393
v 1.5503904 -23.565197 2.4864972
v 1.1554173 -24.596264 2.4864972
v 0.64676017 -23.296854 2.8207393
v -0.25512 -22.420551 2.7059028
v -1.6410365 -22.597818 2.249326
v -1.0564976 -21.775467 2.3840208
v -0.8396583 -23.242905 2.571208
v -0.66348135 -22.083529 1.3183806
v -1.3184068 -23.148726 1.79032
v -1.2784728 -23.148726 1.3183808
v -0.66348064 -24.21392 1.3183806
v -0.68344796 -22.048946 1.79032
v -0.68344724 -24.248505 1.7903197
v 0.566501 -22.083529 1.3183806
v 0.56650174 -24.21392 1.3183806
v 0.58646756 -22.048946 1.79032
v 0.5864683 -24.248505 1.79032
v 1.181493 -23.148724 1.3183808
v 1.2214267 -23.148724 1.79032
v -0.051900435 -22.818258 1.7903197
v -0.2853245 -23.148726 4.2847214
v -0.38236907 -23.148726 1.7903197
v -0.05190022 -23.479193 1.7903197
v -0.051900413 -22.883696 4.2847214
v 0.27856752 -23.148726 1.7903197
v -0.05190024 -23.41376 4.2847214
v 0.18152283 -23.148726 4.2847214
v -0.051900327 -23.148726 4.591956
v -0.54598695 -22.287037 2.528131E-07
v -1.1548805 -23.148726 1.4798056
v -1.0434841 -23.148726 2.528131E-07
v -0.54598635 -24.010418 2.528131E-07
v -0.6016852 -22.190565 1.4798056
v -0.60168463 -24.106888 1.4798056
v 0.44900668 -22.287037 2.528131E-07
v 0.44900724 -24.010418 2.528131E-07
v 0.5047049 -22.190565 1.4798056
v 0.5047055 -24.106888 1.4798056
v 0.9465045 -23.148724 2.528131E-07
v 1.0579005 -23.148724 1.4798056
v 0.66348106 -0.91647154 1.3183806
v 1.3184068 0.14872484 1.79032
v 1.2784728 0.14872484 1.3183808
v 0.66348106 1.2139213 1.3183806
v 0.68344766 -0.9510532 1.79032
v 0.68344766 1.2485049 1.7903197
v -0.5665013 -0.91647154 1.3183806
v -0.5665013 1.2139213 1.3183806
v -0.58646786 -0.9510532 1.79032
v -0.58646786 1.2485049 1.79032
v -1.181493 0.14872484 1.3183808
v -1.2214267 0.14872484 1.79032
v 0.051900376 -0.1817412 1.7903197
v 0.28532457 0.14872484 4.2847214
v 0.38236913 0.14872484 1.7903197
v 0.051900376 0.47919297 1.7903197
v 0.051900376 -0.11630406 4.2847214
v -0.27856746 0.14872484 1.7903197
v 0.051900376 0.41375917 4.2847214
v -0.18152279 0.14872484 4.2847214
v 0.051900376 0.14872484 4.591956
v 0.5459867 -0.7129638 2.528131E-07
v 1.1548805 0.14872484 1.4798056
v 1.0434841 0.14872484 2.528131E-07
v 0.5459867 1.0104173 2.528131E-07
v 0.601685 -0.8094356 1.4798056
v 0.601685 1.1068875 1.4798056
v -0.44900692 -0.7129638 2.528131E-07
v -0.44900692 1.0104173 2.528131E-07
v -0.50470513 -0.8094356 1.4798056
v -0.50470513 1.1068875 1.4798056
v -0.9465044 0.14872484 2.528131E-07
v -1.0579005 0.14872484 1.4798056
v -0.68344724 -24.248505 1.7903197
v 0.43913296 -23.993313 1.79032
v 0.5864683 -24.248505 1.79032
v -0.53611046 -23.993313 1.7903197
v 0.92675406 -23.148724 1.79032
v -1.3184068 -23.148726 1.79032
v 1.2214267 -23.148724 1.79032
v -1.0237318 -23.148726 1.79032
v 0.4391324 -22.30414 1.79032
v -0.68344796 -22.048946 1.79032
v 0.58646756 -22.048946 1.79032
v -0.536111 -22.304142 1.79032
v 0.68344766 1.2485049 1.7903197
v -0.43913263 0.9933124 1.79032
v -0.58646786 1.2485049 1.79032
v 0.53611076 0.9933124 1.7903197
v -0.926754 0.14872484 1.79032
v 1.3184068 0.14872484 1.79032
v -1.2214267 0.14872484 1.79032
v 1.0237318 0.14872484 1.79032
v -0.43913263 -0.69585913 1.79032
v 0.68344766 -0.9510532 1.79032
v -0.58646786 -0.9510532 1.79032
v 0.53611076 -0.69585913 1.79032
vt 0.284812 0.46589303
vt 0.284812 0.46589303
vt 0.284812 0.46589303
vt 0.284812 0.46589303
vt 0.284812 0.46589303
vt 0.284812 0.46589303
vt 0.284812 0.46589303
vt 0.284812 0.46589303
vt 0.284812 0.46589303
vt 0.284812 0.46589303
vt 0.284812 0.46589303
vt 0.284812 0.46589303
vt 0.284812 0.46589303
vt 0.284812 0.46589303
vt 0.284812 0.46589303
vt 0.284812 0.46589303
vt 0.71973413 0.90661496
vt 0.71973413 0.90661496
vt 0.71973413 0.90661496
vt 0.71973413 0.90661496
vt 0.71973413 0.90661496
vt 0.71973413 0.90661496
vt 0.284812 0.46589303
vt 0.284812 0.46589303
vt 0.284812 0.46589303
vt 0.284812 0.46589303
vt 0.284812 0.46589303
vt 0.284812 0.46589303
vt 0.284812 0.46589303
vt 0.284812 0.46589303
vt 0.284812 0.46589303
vt 0.284812 0.46589303
vt 0.284812 0.46589303
vt 0.284812 0.46589303
vt 0.284812 0.46589303
vt 0.284812 0.46589303
vt 0.284812 0.46589303
vt 0.284812 0.46589303
vt 0.284812 0.46589303
vt 0.284812 0.46589303
vt 0.284812 0.46589303
vt 0.284812 0.46589303
vt 0.284812 0.46589303
vt 0.284812 0.46589303
vt 0.284812 0.46589303
vt 0.284812 0.46589303
vt 0.284812 0.46589303
vt 0.284812 0.46589303
vt 0.284812 0.46589303
vt 0.284812 0.46589303
vt 0.284812 0.46589303
vt 0.284812 0.46589303
vt 0.284812 0.46589303
vt 0.284812 0.46589303
vt 0.284812 0.46589303
vt 0.284812 0.46589303
vt 0.284812 0.46589303
vt 0.284812 0.46589303
vt 0.284812 0.46589303
vt 0.284812 0.46589303
vt 0.284812 0.46589303
vt 0.284812 0.46589303
vt 0.284812 0.46589303
vt 0.284812 0.46589303
vt 0.284812 0.46589303
vt 0.284812 0.46589303
vt 0.284812 0.46589303
vt 0.284812 0.46589303
vt 0.284812 0.46589303
vt 0.284812 0.46589303
vt 0.284812 0.46589303
vt 0.284812 0.46589303
vt 0.284812 0.46589303
vt 0.284812 0.46589303
vt 0.284812 0.46589303
vt 0.284812 0.46589303
vt 0.284812 0.46589303
vt 0.284812 0.46589303
vt 0.284812 0.46589303
vt 0.284812 0.46589303
vt 0.284812 0.46589303
vt 0.284812 0.46589303
vt 0.284812 0.46589303
vt 0.284812 0.46589303
vt 0.284812 0.46589303
vt 0.284812 0.46589303
vt 0.71973413 0.90661496
vt 0.71973413 0.90661496
vt 0.71973413 0.90661496
vt 0.71973413 0.90661496
vt 0.71973413 0.90661496
vt 0.71973413 0.90661496
vt 0.284812 0.46589303
vt 0.284812 0.46589303
vt 0.284812 0.46589303
vt 0.284812 0.46589303
vt 0.284812 0.46589303
vt 0.284812 0.46589303
vt 0.284812 0.46589303
vt 0.284812 0.46589303
vt 0.284812 0.46589303
vt 0.284812 0.46589303
vt 0.284812 0.46589303
vt 0.284812 0.46589303
vt 0.284812 0.46589303
vt 0.284812 0.46589303
vt 0.284812 0.46589303
vt 0.284812 0.46589303
vt 0.284812 0.46589303
vt 0.284812 0.46589303
vt 0.284812 0.46589303
vt 0.284812 0.46589303
vt 0.284812 0.46589303
vt 0.284812 0.46589303
vt 0.284812 0.46589303
vt 0.284812 0.46589303
vt 0.284812 0.46589303
vt 0.284812 0.46589303
vt 0.284812 0.46589303
vt 0.284812 0.46589303
vt 0.284812 0.46589303
vt 0.284812 0.46589303
vt 0.284812 0.46589303
vt 0.284812 0.46589303
vt 0.284812 0.46589303
vt 0.284812 0.46589303
vt 0.284812 0.46589303
vt 0.284812 0.46589303
vt 0.284812 0.46589303
vt 0.284812 0.46589303
vt 0.284812 0.46589303
vt 0.284812 0.46589303
vt 0.284812 0.46589303
vt 0.284812 0.46589303
vt 0.284812 0.46589303
vt 0.284812 0.46589303
vt 0.284812 0.46589303
vt 0.284812 0.46589303
vt 0.284812 0.46589303
vt 0.284812 0.46589303
vt 0.5935308 0.9068188
vt 0.5935308 0.9068188
vt 0.5935308 0.9068188
vt 0.5935308 0.9068188
vt 0.5935308 0.9068188
vt 0.5935308 0.9068188
vt 0.5935308 0.9068188
vt 0.5935308 0.9068188
vt 0.5935308 0.9068188
vt 0.5935308 0.9068188
vt 0.5935308 0.9068188
vt 0.5935308 0.9068188
vt 0.65710133 0.90862036
vt 0.65710133 0.90862036
vt 0.65710133 0.90862036
vt 0.65710133 0.90862036
vt 0.65710133 0.90862036
vt 0.65710133 0.90862036
vt 0.65710133 0.90862036
vt 0.65710133 0.90862036
vt 0.65710133 0.90862036
vt 0.5935308 0.9068188
vt 0.5935308 0.9068188
vt 0.5935308 0.9068188
vt 0.5935308 0.9068188
vt 0.5935308 0.9068188
vt 0.5935308 0.9068188
vt 0.5935308 0.9068188
vt 0.5935308 0.9068188
vt 0.5935308 0.9068188
vt 0.5935308 0.9068188
vt 0.5935308 0.9068188
vt 0.5935308 0.9068188
vt 0.5935308 0.9068188
vt 0.5935308 0.9068188
vt 0.5935308 0.9068188
vt 0.5935308 0.9068188
vt 0.5935308 0.9068188
vt 0.5935308 0.9068188
vt 0.5935308 0.9068188
vt 0.5935308 0.9068188
vt 0.5935308 0.9068188
vt 0.5935308 0.9068188
vt 0.5935308 0.9068188
vt 0.5935308 0.9068188
vt 0.65710133 0.90862036
vt 0.65710133 0.90862036
vt 0.65710133 0.90862036
vt 0.65710133 0.90862036
vt 0.65710133 0.90862036
vt 0.65710133 0.90862036
vt 0.65710133 0.90862036
vt 0.65710133 0.90862036
vt 0.65710133 0.90862036
vt 0.5935308 0.9068188
vt 0.5935308 0.9068188
vt 0.5935308 0.9068188
vt 0.5935308 0.9068188
vt 0.5935308 0.9068188
vt 0.5935308 0.9068188
vt 0.5935308 0.9068188
vt 0.5935308 0.9068188
vt 0.5935308 0.9068188
vt 0.5935308 0.9068188
vt 0.5935308 0.9068188
vt 0.5935308 0.9068188
vt 0.5935308 0.9068188
vt 0.5935308 0.9068188
vt 0.5935308 0.9068188
vt 0.5935308 0.9068188
vt 0.5935308 0.9068188
vt 0.5935308 0.9068188
vt 0.5935308 0.9068188
vt 0.5935308 0.9068188
vt 0.5935308 0.9068188
vt 0.5935308 0.9068188
vt 0.5935308 0.9068188
vt 0.5935308 0.9068188
vt 0.5935308 0.9068188
vt 0.5935308 0.9068188
vt 0.5935308 0.9068188
vt 0.5935308 0.9068188
vt 0.5935308 0.9068188
vt 0.5935308 0.9068188
vt 0.5935308 0.9068188
vt 0.5935308 0.9068188
vt 0.5935308 0.9068188
vt 0.5935308 0.9068188
vt 0.5935308 0.9068188
vt 0.5935308 0.9068188
vn 0.1862368 0.22194867 0.9571074
vn 0.18623675 0.22194867 0.9571075
vn 0.18623602 0.22194873 0.9571076
vn 0.18623759 0.22194864 0.9571073
vn -0 -0.41264844 0.91089034
vn -0 -0.41264847 0.91089034
vn -0 -0.41264847 0.91089034
vn -0 -0.41264838 0.91089034
vn 0.15247476 -0.326983 0.9326487
vn 0.1524747 -0.32698298 0.9326487
vn 0.1524745 -0.32698286 0.9326488
vn 0.15247498 -0.32698312 0.9326486
vn -0.058186285 0.3299915 0.94218886
vn -0.058186267 0.3299915 0.94218886
vn -0.058186438 0.32999152 0.94218886
vn -0.05818612 0.3299915 0.942189
vn -0 0 1
vn -0 0 1
vn -0 0 1
vn -0 0 1
vn -0 0 1
vn -0 0 1
vn -0.31349158 -0.06343403 0.94746983
vn -0.31349155 -0.063434035 0.94746983
vn -0.3134916 -0.06343408 0.94746983
vn -0.31349152 -0.06343399 0.94746995
vn -0.10980557 0.34360346 0.9326733
vn -0.109805584 0.3436034 0.9326733
vn -0.10980583 0.34360275 0.93267345
vn -0.109805316 0.34360412 0.932673
vn 0.36156037 -0.05715951 0.9305949
vn 0.36156046 -0.057159536 0.93059486
vn 0.36156172 -0.057159778 0.93059444
vn 0.36155912 -0.05715927 0.93059534
vn 0.3829801 0.048225522 0.92249686
vn 0.3829802 0.04822545 0.92249686
vn 0.38298082 0.04822445 0.9224967
vn 0.38297954 0.048226524 0.92249715
vn 0.10323412 -0.33883563 0.9351648
vn 0.10323412 -0.3388356 0.9351648
vn 0.10323417 -0.33883557 0.9351648
vn 0.103234045 -0.33883563 0.9351648
vn -0.36637932 -0.09970018 0.9251087
vn -0.36637926 -0.099700235 0.9251087
vn -0.36637846 -0.0997009 0.9251089
vn -0.36638004 -0.099699505 0.9251085
vn 0.06139154 0.28957063 0.95518583
vn 0.061391477 0.2895706 0.95518583
vn 0.061390672 0.2895706 0.95518583
vn 0.061392337 0.28957054 0.9551857
vn 0.23841552 0.21624862 0.94678116
vn 0.2384155 0.2162486 0.94678116
vn 0.23841543 0.21624847 0.9467813
vn 0.23841558 0.21624877 0.94678104
vn 0.059594613 -0.40385047 0.91288185
vn 0.059594598 -0.40385053 0.91288185
vn 0.0595945 -0.40385082 0.91288173
vn 0.059594713 -0.40385017 0.91288203
vn -0.39888352 -0.077698 0.9137039
vn -0.39888352 -0.077698015 0.91370404
vn -0.39888337 -0.077698104 0.91370404
vn -0.39888364 -0.07769791 0.9137039
vn -0.3129091 0.119866714 0.94218886
vn -0.31290913 0.11986674 0.94218886
vn -0.31290922 0.11986674 0.94218886
vn -0.312909 0.119866714 0.94218886
vn 0.32048458 -0.07311468 0.9444278
vn 0.32048458 -0.073114686 0.9444278
vn 0.32048467 -0.0731148 0.9444277
vn 0.3204845 -0.07311456 0.9444278
vn -0.18623613 -0.22194791 0.9571077
vn -0.18623614 -0.22194792 0.9571077
vn -0.18623602 -0.22194815 0.9571077
vn -0.18623626 -0.22194771 0.95710784
vn -0 0.41264907 0.91089004
vn -0 0.412649 0.91089004
vn -0 0.41264838 0.91089034
vn -0 0.4126497 0.91088974
vn -0.15247512 0.3269824 0.9326488
vn -0.15247504 0.32698238 0.9326488
vn -0.1524747 0.32698247 0.9326489
vn -0.15247548 0.3269824 0.9326488
vn 0.058186367 -0.32999063 0.94218916
vn 0.058186427 -0.32999086 0.94218916
vn 0.058185965 -0.3299891 0.9421897
vn 0.058186818 -0.32999235 0.9421887
vn -0 0 1
vn -0 0 1
vn -0 0 1
vn -0 0 1
vn -0 0 1
vn -0 0 1
vn 0.3134906 0.06343394 0.9474701
vn 0.31349066 0.06343396 0.9474701
vn 0.31349108 0.063434124 0.94747007
vn 0.31349027 0.06343378 0.94747037
vn 0.109805614 -0.34360287 0.93267345
vn 0.10980564 -0.34360293 0.93267345
vn 0.109806016 -0.34360328 0.9326733
vn 0.10980525 -0.3436025 0.9326737
vn -0.3615601 0.05715933 0.93059504
vn -0.36156023 0.057159353 0.9305949
vn -0.36156207 0.05715965 0.9305942
vn -0.3615583 0.057159033 0.93059576
vn -0.38297966 -0.048225634 0.92249715
vn -0.3829797 -0.04822554 0.92249703
vn -0.38298059 -0.048224527 0.92249674
vn -0.3829788 -0.048226647 0.9224974
vn -0.10323469 0.33883566 0.9351647
vn -0.10323461 0.33883557 0.9351647
vn -0.10323383 0.33883518 0.9351649
vn -0.10323547 0.33883607 0.9351644
vn 0.3663794 0.09970032 0.92510855
vn 0.3663794 0.09970041 0.9251087
vn 0.36637908 0.09970132 0.9251087
vn 0.36637974 0.09969941 0.92510855
vn -0.061391547 -0.28957173 0.9551855
vn -0.06139151 -0.28957167 0.9551855
vn -0.061390992 -0.2895711 0.9551857
vn -0.061392054 -0.2895723 0.9551853
vn -0.23841558 -0.21624877 0.94678104
vn -0.23841563 -0.21624883 0.94678104
vn -0.23841593 -0.21624929 0.94678086
vn -0.2384153 -0.2162483 0.9467813
vn -0.059594773 0.40385014 0.91288203
vn -0.059594795 0.4038502 0.91288203
vn -0.0595949 0.4038505 0.91288185
vn -0.059594665 0.40384984 0.91288215
vn 0.3988828 0.07769794 0.9137042
vn 0.3988828 0.07769794 0.91370434
vn 0.39888242 0.077697806 0.9137045
vn 0.39888325 0.07769808 0.91370416
vn 0.3129092 -0.11986674 0.94218886
vn 0.31290907 -0.11986669 0.94218886
vn 0.3129099 -0.11986713 0.94218856
vn 0.31290835 -0.119866304 0.94218916
vn -0.32048434 0.07311452 0.9444279
vn -0.32048425 0.07311453 0.9444279
vn -0.32048345 0.07311463 0.9444282
vn -0.32048517 0.07311443 0.9444276
vn -0.4982128 0.862946 -0.08431033
vn -0.9964393 0 -0.08431411
vn -0.9964393 0 -0.08431355
vn -0.49821296 -0.86294526 -0.0843167
vn -0.49823865 0.86293095 -0.08431029
vn -0.49823773 -0.8629308 -0.08431832
vn 0.498225 0.8629386 -0.08431362
vn 0.49822626 -0.8629376 -0.08431662
vn 0.4982003 0.8629529 -0.08431318
vn 0.49820042 -0.86295235 -0.0843178
vn 0.9964393 0 -0.084314115
vn 0.9964393 0 -0.08431385
vn -0.0027613256 0.99948406 0.031997707
vn -0.95507425 0 0.2963667
vn -0.9992441 0 0.038875964
vn -0.0027613791 -0.9994842 0.031996753
vn -0.0022942803 0.94766366 0.31926224
vn 0.99962354 0 0.02743483
vn -0.0022940843 -0.94766295 0.31926432
vn 0.9530223 0 0.30289993
vn -0 0 1
vn -0.49860123 0.86357504 -0.075066775
vn -0.9971787 0 -0.07506556
vn -0.9971787 0 -0.075064436
vn -0.4986015 -0.86357504 -0.07506536
vn -0.49859 0.8635818 -0.07506423
vn -0.49859017 -0.86358154 -0.07506635
vn 0.49857587 0.86358976 -0.0750656
vn 0.4985775 -0.86358887 -0.07506521
vn 0.4985875 0.86358327 -0.07506289
vn 0.49858916 -0.86358213 -0.07506498
vn 0.9971787 0 -0.075065255
vn 0.9971787 0 -0.07506484
vn 0.4982125 -0.86294603 -0.08431129
vn 0.99643916 0 -0.08431501
vn 0.99643904 0 -0.08431555
vn 0.49821332 0.86294526 -0.084314756
vn 0.4982387 -0.86293095 -0.08431096
vn 0.4982384 0.8629307 -0.08431465
vn -0.49822533 -0.8629387 -0.084311076
vn -0.49822587 0.862938 -0.08431462
vn -0.49820077 -0.8629528 -0.08431149
vn -0.49820033 0.8629528 -0.08431472
vn -0.99643916 0 -0.08431441
vn -0.99643916 0 -0.0843148
vn 0.0027613745 -0.9994842 0.03199751
vn 0.95507467 0 0.2963653
vn 0.9992441 0 0.03887553
vn 0.0027616275 0.9994842 0.031996887
vn 0.0022945793 -0.947664 0.31926113
vn -0.99962354 0 0.027435105
vn 0.0022947588 0.94766295 0.3192643
vn -0.9530223 0 0.30290022
vn -0 0 1
vn 0.49860114 -0.8635752 -0.07506515
vn 0.9971787 0 -0.07506515
vn 0.9971787 0 -0.07506537
vn 0.49860162 0.8635749 -0.07506443
vn 0.49858984 -0.8635817 -0.0750652
vn 0.4985905 0.8635814 -0.07506422
vn -0.4985764 -0.8635895 -0.07506515
vn -0.49857712 0.86358917 -0.0750642
vn -0.49858794 -0.86358285 -0.07506515
vn -0.4985887 0.8635825 -0.07506439
vn -0.9971787 0 -0.07506505
vn -0.9971787 0 -0.075065196
vn -0 0 1
vn -0 0 1
vn -0 0 1
vn -0 0 1
vn -0 0 1
vn -0 0 1
vn -0 0 1
vn -0 0 1
vn -0 0 1
vn -0 0 1
vn -0 0 1
vn -0 0 1
vn -0 0 1
vn -0 0 1
vn -0 0 1
vn -0 0 1
vn -0 0 1
vn -0 0 1
vn -0 0 1
vn -0 0 1
vn -0 0 1
vn -0 0 1
vn -0 0 1
vn -0 0 1
g potPlant01_0
f 3/3/3 2/2/2 1/1/1
f 4/4/4 1/1/1 2/2/2
f 7/7/7 6/6/6 5/5/5
f 8/8/8 5/5/5 6/6/6
f 11/11/11 10/10/10 9/9/9
f 12/12/12 9/9/9 10/10/10
f 15/15/15 14/14/14 13/13/13
f 16/16/16 13/13/13 14/14/14
f 19/19/19 18/18/18 17/17/17
f 20/20/20 17/17/17 18/18/18
f 20/20/20 21/21/21 17/17/17
f 22/22/22 17/17/17 21/21/21
f 25/25/25 24/24/24 23/23/23
f 26/26/26 23/23/23 24/24/24
f 29/29/29 28/28/28 27/27/27
f 30/30/30 27/27/27 28/28/28
f 33/33/33 32/32/32 31/31/31
f 34/34/34 31/31/31 32/32/32
f 37/37/37 36/36/36 35/35/35
f 38/38/38 35/35/35 36/36/36
f 41/41/41 40/40/40 39/39/39
f 42/42/42 39/39/39 40/40/40
f 45/45/45 44/44/44 43/43/43
f 46/46/46 43/43/43 44/44/44
f 49/49/49 48/48/48 47/47/47
f 50/50/50 47/47/47 48/48/48
f 53/53/53 52/52/52 51/51/51
f 54/54/54 51/51/51 52/52/52
f 57/57/57 56/56/56 55/55/55
f 58/58/58 55/55/55 56/56/56
f 61/61/61 60/60/60 59/59/59
f 62/62/62 59/59/59 60/60/60
f 65/65/65 64/64/64 63/63/63
f 66/66/66 63/63/63 64/64/64
f 69/69/69 68/68/68 67/67/67
f 70/70/70 67/67/67 68/68/68
f 73/73/73 72/72/72 71/71/71
f 74/74/74 71/71/71 72/72/72
f 77/77/77 76/76/76 75/75/75
f 78/78/78 75/75/75 76/76/76
f 81/81/81 80/80/80 79/79/79
f 82/82/82 79/79/79 80/80/80
f 85/85/85 84/84/84 83/83/83
f 86/86/86 83/83/83 84/84/84
f 89/89/89 88/88/88 87/87/87
f 90/90/90 87/87/87 88/88/88
f 90/90/90 91/91/91 87/87/87
f 92/92/92 87/87/87 91/91/91
f 95/95/95 94/94/94 93/93/93
f 96/96/96 93/93/93 94/94/94
f 99/99/99 98/98/98 97/97/97
f 100/100/100 97/97/97 98/98/98
f 103/103/103 102/102/102 101/101/101
f 104/104/104 101/101/101 102/102/102
f 107/107/107 106/106/106 105/105/105
f 108/108/108 105/105/105 106/106/106
f 111/111/111 110/110/110 109/109/109
f 112/112/112 109/109/109 110/110/110
f 115/115/115 114/114/114 113/113/113
f 116/116/116 113/113/113 114/114/114
f 119/119/119 118/118/118 117/117/117
f 120/120/120 117/117/117 118/118/118
f 123/123/123 122/122/122 121/121/121
f 124/124/124 121/121/121 122/122/122
f 127/127/127 126/126/126 125/125/125
f 128/128/128 125/125/125 126/126/126
f 131/131/131 130/130/130 129/129/129
f 132/132/132 129/129/129 130/130/130
f 135/135/135 134/134/134 133/133/133
f 136/136/136 133/133/133 134/134/134
f 139/139/139 138/138/138 137/137/137
f 140/140/140 137/137/137 138/138/138
f 143/143/143 142/142/142 141/141/141
f 143/143/143 144/144/144 142/142/142
f 145/145/145 141/141/141 142/142/142
f 146/146/146 142/142/142 144/144/144
f 141/141/141 145/145/145 147/147/147
f 144/144/144 148/148/148 146/146/146
f 149/149/149 147/147/147 145/145/145
f 150/150/150 146/146/146 148/148/148
f 147/147/147 149/149/149 151/151/151
f 148/148/148 151/151/151 150/150/150
f 152/152/152 151/151/151 149/149/149
f 152/152/152 150/150/150 151/151/151
f 155/155/155 154/154/154 153/153/153
f 155/155/155 156/156/156 154/154/154
f 157/157/157 153/153/153 154/154/154
f 153/153/153 157/157/157 158/158/158
f 156/156/156 158/158/158 159/159/159
f 159/159/159 154/154/154 156/156/156
f 160/160/160 158/158/158 157/157/157
f 160/160/160 159/159/159 158/158/158
f 157/157/157 154/154/154 161/161/161
f 154/154/154 159/159/159 161/161/161
f 157/157/157 161/161/161 160/160/160
f 161/161/161 159/159/159 160/160/160
f 164/164/164 163/163/163 162/162/162
f 164/164/164 165/165/165 163/163/163
f 166/166/166 162/162/162 163/163/163
f 167/167/167 163/163/163 165/165/165
f 162/162/162 166/166/166 168/168/168
f 165/165/165 169/169/169 167/167/167
f 170/170/170 168/168/168 166/166/166
f 171/171/171 167/167/167 169/169/169
f 168/168/168 170/170/170 172/172/172
f 169/169/169 172/172/172 171/171/171
f 173/173/173 172/172/172 170/170/170
f 173/173/173 171/171/171 172/172/172
f 176/176/176 175/175/175 174/174/174
f 176/176/176 177/177/177 175/175/175
f 178/178/178 174/174/174 175/175/175
f 179/179/179 175/175/175 177/177/177
f 174/174/174 178/178/178 180/180/180
f 177/177/177 181/181/181 179/179/179
f 182/182/182 180/180/180 178/178/178
f 183/183/183 179/179/179 181/181/181
f 180/180/180 182/182/182 184/184/184
f 181/181/181 184/184/184 183/183/183
f 185/185/185 184/184/184 182/182/182
f 185/185/185 183/183/183 184/184/184
f 188/188/188 187/187/187 186/186/186
f 188/188/188 189/189/189 187/187/187
f 190/190/190 186/186/186 187/187/187
f 186/186/186 190/190/190 191/191/191
f 189/189/189 191/191/191 192/192/192
f 192/192/192 187/187/187 189/189/189
f 193/193/193 191/191/191 190/190/190
f 193/193/193 192/192/192 191/191/191
f 190/190/190 187/187/187 194/194/194
f 187/187/187 192/192/192 194/194/194
f 190/190/190 194/194/194 193/193/193
f 194/194/194 192/192/192 193/193/193
f 197/197/197 196/196/196 195/195/195
f 197/197/197 198/198/198 196/196/196
f 199/199/199 195/195/195 196/196/196
f 200/200/200 196/196/196 198/198/198
f 195/195/195 199/199/199 201/201/201
f 198/198/198 202/202/202 200/200/200
f 203/203/203 201/201/201 199/199/199
f 204/204/204 200/200/200 202/202/202
f 201/201/201 203/203/203 205/205/205
f 202/202/202 205/205/205 204/204/204
f 206/206/206 205/205/205 203/203/203
f 206/206/206 204/204/204 205/205/205
f 209/209/209 208/208/208 207/207/207
f 210/210/210 207/207/207 208/208/208
f 208/208/208 209/209/209 211/211/211
f 207/207/207 210/210/210 212/212/212
f 213/213/213 211/211/211 209/209/209
f 214/214/214 212/212/212 210/210/210
f 211/211/211 213/213/213 215/215/215
f 212/212/212 214/214/214 216/216/216
f 217/217/217 215/215/215 213/213/213
f 218/218/218 216/216/216 214/214/214
f 215/215/215 217/217/217 218/218/218
f 216/216/216 218/218/218 217/217/217
f 221/221/221 220/220/220 219/219/219
f 222/222/222 219/219/219 220/220/220
f 220/220/220 221/221/221 223/223/223
f 219/219/219 222/222/222 224/224/224
f 225/225/225 223/223/223 221/221/221
f 226/226/226 224/224/224 222/222/222
f 223/223/223 225/225/225 227/227/227
f 224/224/224 226/226/226 228/228/228
f 229/229/229 227/227/227 225/225/225
f 230/230/230 228/228/228 226/226/226
f 227/227/227 229/229/229 230/230/230
f 228/228/228 230/230/230 229/229/229
