g potPlant02
v -0.1273803 0.0589794 1.9360027
v 0.18386401 -0.33868283 1.7558547
v -0.1273803 -0.33868283 1.7558547
v 0.18386401 0.0589794 1.9360027
v -0.3816035 0.06123937 0.7371906
v 0.22075132 -0.28653088 0.7371906
v -0.18081835 -0.28653088 0.7371906
v 0.4215366 0.06123937 0.7371906
v 0.22075132 0.40901002 0.7371904
v -0.18081835 0.40901002 0.7371906
v -0.15898958 0.18856473 1.9360027
v -0.19101202 -0.31540236 1.7558547
v -0.4234513 -0.108412065 1.7558547
v 0.07344974 -0.018425575 1.9360027
v 0.07520914 0.18021357 1.9360027
v -0.42789927 0.13673812 1.7558547
v -0.25787863 0.39744097 1.7558547
v -0.09481151 -0.080489285 1.9360027
v 0.16017875 0.018757598 1.9360027
v -0.025959512 0.48818356 1.7558547
v 0.2725903 0.4002007 1.7558547
v -0.1383711 0.10674047 1.9360027
v -0.025206557 -0.067855105 1.9360027
v 0.4421431 0.12343652 1.7558547
v 0.35745022 -0.17606327 1.7558547
v 0.059486352 0.23164465 1.9360027
v -0.22570361 0.05324027 1.7477047
v -0.17044443 -0.41620594 1.4946663
v -0.43444422 -0.2528394 1.5167692
v 0.038296238 -0.11012623 1.7256016
v -0.13297594 0.25618184 1.7477047
v -0.47529495 -0.06977982 1.4946663
v -0.50307983 0.23943286 1.5167692
v -0.10519103 -0.053030923 1.7256016
v 0.10622803 0.29368824 1.7477047
v -0.32201895 0.49378282 1.4946663
v -0.044161674 0.63227403 1.5167692
v -0.17162926 0.15519695 1.7256016
v 0.21686062 0.14228392 1.7842523
v 0.21896252 0.6149666 1.5312138
v 0.4611927 0.42077848 1.5533167
v -0.025369659 0.33647197 1.7621491
v 0.17428906 -0.07484976 1.7477047
v 0.5391982 0.2256076 1.4946663
v 0.54463804 -0.08480326 1.5167692
v 0.1688492 0.23556113 1.7256016
v 0.28362736 0.09388328 1.5994846
v 0.38133374 0.47640884 1.2367319
v 0.51917195 0.19753318 1.2468315
v 0.14578891 0.3727589 1.5893847
v 0.12708017 -0.10841166 1.5994846
v 0.5142275 -0.031021375 1.2367319
v 0.32242623 -0.27593625 1.2468315
v 0.31888136 0.13650331 1.5893847
v 0.052165568 -0.2755343 1.4408203
v 0.36497563 -0.17781341 1.0164828
v 0.09474822 -0.33211398 1.0100371
v 0.32239288 -0.12123364 1.4472659
v -0.1614028 -0.14952832 1.5994846
v 0.14716807 -0.39581347 1.2367319
v -0.16371621 -0.4068592 1.2468315
v 0.14948149 -0.1384823 1.5893847
v -0.24283813 -0.15180278 1.4408203
v 0.0115485145 -0.35841098 1.0164828
v -0.26643622 -0.21856841 1.0100371
v 0.035146862 -0.2916451 1.4472659
v -0.25833386 0.088287264 1.5994846
v -0.32078138 -0.30154946 1.2367319
v -0.48345497 -0.036392286 1.2468315
v -0.09565997 -0.17686978 1.5893847
v -0.30285895 0.1624173 1.4408203
v -0.33435145 -0.16378467 1.0164828
v -0.37153813 0.14516297 1.0100371
v -0.26567206 -0.14653036 1.4472659
v -0.113232605 0.36402768 1.5994846
v -0.4794259 0.21646471 1.2367319
v -0.3361588 0.49259076 1.2468315
v -0.25649953 0.087901555 1.5893847
v -0.005566562 0.3985846 1.4408203
v -0.32024774 0.30706805 1.0164828
v -0.047022115 0.45599502 1.0100371
v -0.27879205 0.24965729 1.4472659
v 0.17518185 0.32877946 1.5994846
v -0.104690164 0.60724664 1.2367319
v 0.2055445 0.58432335 1.2468315
v -0.13505289 0.3517027 1.5893847
v 0.31777254 0.22175545 1.4408203
v 0.10619303 0.47202265 1.0164828
v 0.35336235 0.28297552 1.0100371
v 0.070602946 0.41080245 1.4472659
v -0.04262677 -0.12137656 1.7830278
v 0.39591995 -0.2977571 1.5299895
v 0.12605041 -0.4512332 1.5520922
v 0.22724277 0.032099657 1.7609246
v 0.3183793 -0.09814493 1.4408203
v 0.409919 0.2165295 1.0164828
v 0.38906822 -0.093948744 1.0100371
v 0.33922988 0.21233338 1.4472659
v 0.27319834 -0.37737012 0.5428626
v 0.5428736 0.06123937 0.7371906
v 0.5264305 0.06123937 0.54286265
v 0.27319834 0.4998493 0.5428626
v 0.28142026 -0.39161077 0.7371906
v 0.28142026 0.5140903 0.7371904
v -0.23326463 -0.37737012 0.5428626
v -0.23326463 0.4998493 0.5428626
v -0.24148616 -0.39161077 0.7371906
v -0.24148616 0.5140903 0.7371906
v -0.4864968 0.06123937 0.54286265
v -0.5029399 0.06123937 0.7371906
v 0.021371009 -0.07483557 0.7371904
v 0.11748648 0.06123937 1.7642969
v 0.15744595 0.06123937 0.7371904
v 0.021371009 0.19731511 0.7371904
v 0.021371009 -0.047891293 1.7642969
v -0.11470329 0.06123937 0.7371904
v 0.021371009 0.1703704 1.7642969
v -0.07474376 0.06123937 1.7642969
v 0.021371009 0.06123937 1.8908055
v 0.2248187 -0.29357392 1.04099506E-07
v 0.47553962 0.06123937 0.60933167
v 0.4296705 0.06123937 1.04099506E-07
v 0.2248187 0.4160528 1.04099506E-07
v 0.24775252 -0.33329767 0.60933167
v 0.24775252 0.4557772 0.60933167
v -0.1848846 -0.29357392 1.04099506E-07
v -0.1848846 0.4160528 1.04099506E-07
v -0.20781949 -0.33329767 0.60933167
v -0.20781949 0.4557772 0.60933167
v -0.3897361 0.06123937 1.04099506E-07
v -0.43560588 0.06123937 0.60933167
v 0.28142026 0.5140903 0.7371904
v -0.18081835 0.40901002 0.7371906
v -0.24148616 0.5140903 0.7371906
v 0.22075132 0.40901002 0.7371904
v -0.3816035 0.06123937 0.7371906
v 0.5428736 0.06123937 0.7371906
v -0.5029399 0.06123937 0.7371906
v 0.4215366 0.06123937 0.7371906
v -0.18081835 -0.28653088 0.7371906
v 0.28142026 -0.39161077 0.7371906
v -0.24148616 -0.39161077 0.7371906
v 0.22075132 -0.28653088 0.7371906
vt 0.21917012 0.4686418
vt 0.21917012 0.4686418
vt 0.21917012 0.4686418
vt 0.21917012 0.4686418
vt 0.71973413 0.90661496
vt 0.71973413 0.90661496
vt 0.71973413 0.90661496
vt 0.71973413 0.90661496
vt 0.71973413 0.90661496
vt 0.71973413 0.90661496
vt 0.21917012 0.4686418
vt 0.21917012 0.4686418
vt 0.21917012 0.4686418
vt 0.21917012 0.4686418
vt 0.21917012 0.4686418
vt 0.21917012 0.4686418
vt 0.21917012 0.4686418
vt 0.21917012 0.4686418
vt 0.21917012 0.4686418
vt 0.21917012 0.4686418
vt 0.21917012 0.4686418
vt 0.21917012 0.4686418
vt 0.21917012 0.4686418
vt 0.21917012 0.4686418
vt 0.21917012 0.4686418
vt 0.21917012 0.4686418
vt 0.21917012 0.4686418
vt 0.21917012 0.4686418
vt 0.21917012 0.4686418
vt 0.21917012 0.4686418
vt 0.21917012 0.4686418
vt 0.21917012 0.4686418
vt 0.21917012 0.4686418
vt 0.21917012 0.4686418
vt 0.21917012 0.4686418
vt 0.21917012 0.4686418
vt 0.21917012 0.4686418
vt 0.21917012 0.4686418
vt 0.21917012 0.4686418
vt 0.21917012 0.4686418
vt 0.21917012 0.4686418
vt 0.21917012 0.4686418
vt 0.21917012 0.4686418
vt 0.21917012 0.4686418
vt 0.21917012 0.4686418
vt 0.21917012 0.4686418
vt 0.21917012 0.4686418
vt 0.21917012 0.4686418
vt 0.21917012 0.4686418
vt 0.21917012 0.4686418
vt 0.21917012 0.4686418
vt 0.21917012 0.4686418
vt 0.21917012 0.4686418
vt 0.21917012 0.4686418
vt 0.21917012 0.4686418
vt 0.21917012 0.4686418
vt 0.21917012 0.4686418
vt 0.21917012 0.4686418
vt 0.21917012 0.4686418
vt 0.21917012 0.4686418
vt 0.21917012 0.4686418
vt 0.21917012 0.4686418
vt 0.21917012 0.4686418
vt 0.21917012 0.4686418
vt 0.21917012 0.4686418
vt 0.21917012 0.4686418
vt 0.21917012 0.4686418
vt 0.21917012 0.4686418
vt 0.21917012 0.4686418
vt 0.21917012 0.4686418
vt 0.21917012 0.4686418
vt 0.21917012 0.4686418
vt 0.21917012 0.4686418
vt 0.21917012 0.4686418
vt 0.21917012 0.4686418
vt 0.21917012 0.4686418
vt 0.21917012 0.4686418
vt 0.21917012 0.4686418
vt 0.21917012 0.4686418
vt 0.21917012 0.4686418
vt 0.21917012 0.4686418
vt 0.21917012 0.4686418
vt 0.21917012 0.4686418
vt 0.21917012 0.4686418
vt 0.21917012 0.4686418
vt 0.21917012 0.4686418
vt 0.21917012 0.4686418
vt 0.21917012 0.4686418
vt 0.21917012 0.4686418
vt 0.21917012 0.4686418
vt 0.21917012 0.4686418
vt 0.21917012 0.4686418
vt 0.21917012 0.4686418
vt 0.21917012 0.4686418
vt 0.21917012 0.4686418
vt 0.21917012 0.4686418
vt 0.21917012 0.4686418
vt 0.21917012 0.4686418
vt 0.5935308 0.9068188
vt 0.5935308 0.9068188
vt 0.5935308 0.9068188
vt 0.5935308 0.9068188
vt 0.5935308 0.9068188
vt 0.5935308 0.9068188
vt 0.5935308 0.9068188
vt 0.5935308 0.9068188
vt 0.5935308 0.9068188
vt 0.5935308 0.9068188
vt 0.5935308 0.9068188
vt 0.5935308 0.9068188
vt 0.65710133 0.90862036
vt 0.65710133 0.90862036
vt 0.65710133 0.90862036
vt 0.65710133 0.90862036
vt 0.65710133 0.90862036
vt 0.65710133 0.90862036
vt 0.65710133 0.90862036
vt 0.65710133 0.90862036
vt 0.65710133 0.90862036
vt 0.5935308 0.9068188
vt 0.5935308 0.9068188
vt 0.5935308 0.9068188
vt 0.5935308 0.9068188
vt 0.5935308 0.9068188
vt 0.5935308 0.9068188
vt 0.5935308 0.9068188
vt 0.5935308 0.9068188
vt 0.5935308 0.9068188
vt 0.5935308 0.9068188
vt 0.5935308 0.9068188
vt 0.5935308 0.9068188
vt 0.5935308 0.9068188
vt 0.5935308 0.9068188
vt 0.5935308 0.9068188
vt 0.5935308 0.9068188
vt 0.5935308 0.9068188
vt 0.5935308 0.9068188
vt 0.5935308 0.9068188
vt 0.5935308 0.9068188
vt 0.5935308 0.9068188
vt 0.5935308 0.9068188
vt 0.5935308 0.9068188
vt 0.5935308 0.9068188
vn -0 -0.41264924 0.91089
vn -0 -0.4126492 0.91089
vn -0 -0.4126492 0.91089
vn -0 -0.41264924 0.91089
vn -0 0 1
vn -0 0 1
vn -0 0 1
vn -0 0 1
vn -0 0 1
vn -0 0 1
vn -0.27442846 -0.3081692 0.91089004
vn -0.2744285 -0.30816922 0.91089004
vn -0.2744285 -0.3081692 0.91089004
vn -0.27442843 -0.3081692 0.91089004
vn -0.34564093 0.2254143 0.91089004
vn -0.34564093 0.22541428 0.91089004
vn -0.34564093 0.22541423 0.91089004
vn -0.345641 0.22541437 0.91089004
vn 0.11664822 0.39581892 0.91089
vn 0.11664846 0.39581895 0.91089
vn 0.11664888 0.3958189 0.91088986
vn 0.11664778 0.39581895 0.91089
vn 0.39707807 -0.1122863 0.91089004
vn 0.39707807 -0.11228629 0.91089004
vn 0.39707807 -0.11228628 0.91089016
vn 0.3970781 -0.11228634 0.91089004
vn -0.22786398 -0.4826431 0.84565574
vn -0.22786427 -0.48264313 0.8456556
vn -0.22786479 -0.4826431 0.8456555
vn -0.22786354 -0.48264316 0.8456559
vn -0.52280563 -0.107426606 0.8456559
vn -0.52280563 -0.107426405 0.8456559
vn -0.5228057 -0.10742604 0.8456559
vn -0.5228056 -0.10742697 0.8456559
vn -0.29045358 0.44777587 0.84565574
vn -0.2904533 0.4477761 0.8456556
vn -0.29045287 0.44777647 0.8456556
vn -0.2904541 0.44777557 0.84565574
vn 0.2847354 0.45143384 0.8456555
vn 0.28473538 0.45143384 0.84565556
vn 0.28473523 0.45143387 0.84565556
vn 0.28473553 0.4514338 0.8456555
vn 0.5291857 0.06948938 0.84565574
vn 0.52918595 0.069489144 0.84565574
vn 0.5291862 0.069488704 0.84565556
vn 0.52918553 0.069489814 0.8456559
vn 0.71607816 0.375248 0.5885754
vn 0.7160784 0.37524778 0.5885752
vn 0.7160788 0.37524736 0.5885749
vn 0.7160777 0.37524843 0.5885757
vn 0.6480943 -0.483273 0.58857536
vn 0.6480941 -0.48327324 0.5885754
vn 0.6480939 -0.4832737 0.58857536
vn 0.6480946 -0.48327246 0.5885754
vn 0.48650485 -0.8587381 0.16087875
vn 0.48650476 -0.8587382 0.16087864
vn 0.4865045 -0.85873824 0.16087846
vn 0.48650506 -0.85873795 0.1608789
vn 0.047795612 -0.80702823 0.58857554
vn 0.0477953 -0.8070283 0.5885753
vn 0.04779474 -0.80702853 0.5885751
vn 0.047796167 -0.807028 0.58857566
vn -0.44651818 -0.8801929 0.16087866
vn -0.4465183 -0.8801929 0.16087852
vn -0.44651854 -0.8801928 0.16087823
vn -0.44651803 -0.880193 0.16087897
vn -0.6789103 -0.43893012 0.5885755
vn -0.6789107 -0.43892986 0.58857524
vn -0.67891145 -0.43892935 0.5885748
vn -0.6789096 -0.43893066 0.5885759
vn -0.98029387 -0.11463765 0.16087882
vn -0.980294 -0.114637546 0.16087869
vn -0.980294 -0.1146373 0.16087845
vn -0.98029387 -0.11463789 0.16087906
vn -0.7262023 0.3552592 0.5885755
vn -0.72620237 0.35525942 0.58857536
vn -0.7262025 0.35525975 0.588575
vn -0.7262022 0.35525885 0.58857584
vn -0.46942958 0.86819 0.16087878
vn -0.46942934 0.86819017 0.16087861
vn -0.4694289 0.86819047 0.16087832
vn -0.46943 0.86818975 0.16087909
vn 0.04049959 0.80742735 0.58857536
vn 0.040499676 0.80742735 0.58857536
vn 0.040499836 0.80742735 0.5885753
vn 0.04049942 0.80742717 0.5885754
vn 0.60225147 0.78192794 0.16087885
vn 0.60225147 0.78192776 0.16087872
vn 0.6022517 0.78192776 0.16087855
vn 0.60225123 0.781928 0.16087903
vn 0.31450108 -0.43122533 0.8456558
vn 0.31450087 -0.43122566 0.84565574
vn 0.31450048 -0.43122625 0.8456556
vn 0.3145015 -0.4312248 0.8456559
vn 0.98452723 -0.06945726 0.16087858
vn 0.98452723 -0.0694575 0.16087845
vn 0.98452723 -0.069457956 0.16087823
vn 0.98452723 -0.06945681 0.16087878
vn 0.49821293 -0.86294526 -0.08431693
vn 0.99643916 0 -0.08431498
vn 0.9964393 0 -0.0843141
vn 0.4982133 0.862945 -0.08431838
vn 0.4982385 -0.8629304 -0.0843172
vn 0.4982383 0.8629304 -0.08431877
vn -0.49822536 -0.8629382 -0.084315985
vn -0.4982257 0.8629378 -0.08431761
vn -0.49819943 -0.8629532 -0.084315725
vn -0.49819937 0.86295307 -0.08431726
vn -0.99643916 0 -0.08431431
vn -0.9964393 0 -0.08431385
vn 0.002760843 -0.9994842 0.03199741
vn 0.9550748 0 0.29636487
vn 0.9992441 0 0.038875505
vn 0.00276096 0.99948406 0.031997748
vn 0.002293991 -0.94766355 0.3192626
vn -0.99962354 0 0.027435271
vn 0.0022939283 0.94766325 0.31926334
vn -0.9530226 0 0.30289912
vn -0 0 1
vn 0.4986015 -0.86357504 -0.07506498
vn 0.9971787 0 -0.07506487
vn 0.9971787 0 -0.07506538
vn 0.49860176 0.86357474 -0.07506574
vn 0.4985891 -0.86358213 -0.07506467
vn 0.4985893 0.86358196 -0.0750656
vn -0.49857685 -0.86358917 -0.07506553
vn -0.498577 0.863589 -0.07506648
vn -0.49858835 -0.8635825 -0.07506577
vn -0.49858847 0.8635824 -0.07506653
vn -0.99717855 0 -0.075066306
vn -0.99717855 0 -0.07506651
vn -0 0 1
vn -0 0 1
vn -0 0 1
vn -0 0 1
vn -0 0 1
vn -0 0 1
vn -0 0 1
vn -0 0 1
vn -0 0 1
vn -0 0 1
vn -0 0 1
vn -0 0 1
g potPlant02_0
f 3/3/3 2/2/2 1/1/1
f 4/4/4 1/1/1 2/2/2
f 7/7/7 6/6/6 5/5/5
f 8/8/8 5/5/5 6/6/6
f 8/8/8 9/9/9 5/5/5
f 10/10/10 5/5/5 9/9/9
f 13/13/13 12/12/12 11/11/11
f 14/14/14 11/11/11 12/12/12
f 17/17/17 16/16/16 15/15/15
f 18/18/18 15/15/15 16/16/16
f 21/21/21 20/20/20 19/19/19
f 22/22/22 19/19/19 20/20/20
f 25/25/25 24/24/24 23/23/23
f 26/26/26 23/23/23 24/24/24
f 29/29/29 28/28/28 27/27/27
f 30/30/30 27/27/27 28/28/28
f 33/33/33 32/32/32 31/31/31
f 34/34/34 31/31/31 32/32/32
f 37/37/37 36/36/36 35/35/35
f 38/38/38 35/35/35 36/36/36
f 41/41/41 40/40/40 39/39/39
f 42/42/42 39/39/39 40/40/40
f 45/45/45 44/44/44 43/43/43
f 46/46/46 43/43/43 44/44/44
f 49/49/49 48/48/48 47/47/47
f 50/50/50 47/47/47 48/48/48
f 53/53/53 52/52/52 51/51/51
f 54/54/54 51/51/51 52/52/52
f 57/57/57 56/56/56 55/55/55
f 58/58/58 55/55/55 56/56/56
f 61/61/61 60/60/60 59/59/59
f 62/62/62 59/59/59 60/60/60
f 65/65/65 64/64/64 63/63/63
f 66/66/66 63/63/63 64/64/64
f 69/69/69 68/68/68 67/67/67
f 70/70/70 67/67/67 68/68/68
f 73/73/73 72/72/72 71/71/71
f 74/74/74 71/71/71 72/72/72
f 77/77/77 76/76/76 75/75/75
f 78/78/78 75/75/75 76/76/76
f 81/81/81 80/80/80 79/79/79
f 82/82/82 79/79/79 80/80/80
f 85/85/85 84/84/84 83/83/83
f 86/86/86 83/83/83 84/84/84
f 89/89/89 88/88/88 87/87/87
f 90/90/90 87/87/87 88/88/88
f 93/93/93 92/92/92 91/91/91
f 94/94/94 91/91/91 92/92/92
f 97/97/97 96/96/96 95/95/95
f 98/98/98 95/95/95 96/96/96
f 101/101/101 100/100/100 99/99/99
f 101/101/101 102/102/102 100/100/100
f 103/103/103 99/99/99 100/100/100
f 104/104/104 100/100/100 102/102/102
f 99/99/99 103/103/103 105/105/105
f 102/102/102 106/106/106 104/104/104
f 107/107/107 105/105/105 103/103/103
f 108/108/108 104/104/104 106/106/106
f 105/105/105 107/107/107 109/109/109
f 106/106/106 109/109/109 108/108/108
f 110/110/110 109/109/109 107/107/107
f 110/110/110 108/108/108 109/109/109
f 113/113/113 112/112/112 111/111/111
f 113/113/113 114/114/114 112/112/112
f 115/115/115 111/111/111 112/112/112
f 111/111/111 115/115/115 116/116/116
f 114/114/114 116/116/116 117/117/117
f 117/117/117 112/112/112 114/114/114
f 118/118/118 116/116/116 115/115/115
f 118/118/118 117/117/117 116/116/116
f 115/115/115 112/112/112 119/119/119
f 112/112/112 117/117/117 119/119/119
f 115/115/115 119/119/119 118/118/118
f 119/119/119 117/117/117 118/118/118
f 122/122/122 121/121/121 120/120/120
f 122/122/122 123/123/123 121/121/121
f 124/124/124 120/120/120 121/121/121
f 125/125/125 121/121/121 123/123/123
f 120/120/120 124/124/124 126/126/126
f 123/123/123 127/127/127 125/125/125
f 128/128/128 126/126/126 124/124/124
f 129/129/129 125/125/125 127/127/127
f 126/126/126 128/128/128 130/130/130
f 127/127/127 130/130/130 129/129/129
f 131/131/131 130/130/130 128/128/128
f 131/131/131 129/129/129 130/130/130
f 134/134/134 133/133/133 132/132/132
f 135/135/135 132/132/132 133/133/133
f 133/133/133 134/134/134 136/136/136
f 132/132/132 135/135/135 137/137/137
f 138/138/138 136/136/136 134/134/134
f 139/139/139 137/137/137 135/135/135
f 136/136/136 138/138/138 140/140/140
f 137/137/137 139/139/139 141/141/141
f 142/142/142 140/140/140 138/138/138
f 143/143/143 141/141/141 139/139/139
f 140/140/140 142/142/142 143/143/143
f 141/141/141 143/143/143 142/142/142
