g potPlant01
v 0.52336735 -0.19707327 4.060321
v 0.40551913 1.1499441 3.7708852
v 1.1379507 0.535361 3.7708852
v -0.20906581 0.41751164 4.060321
v -0.22423783 0.8338594 4.917819
v 0.79748094 -0.13189423 4.4803166
v -0.22423783 -0.13189423 4.4803166
v 0.79748094 0.8338594 4.917819
v 0.5688328 0.27158472 3.1161265
v 0.00094213866 -1.0344402 2.7510815
v -0.52407086 -0.23804462 3.1161265
v 1.0938458 -0.5248091 2.7510815
v 0.54616946 0.6044419 2.5795836
v -0.7759446 1.3256444 2.245341
v 0.31141108 1.5173743 2.245341
v -0.54118603 0.412712 2.5795836
v -0.926754 0.14872484 1.79032
v 0.53611076 -0.69585913 1.79032
v -0.43913263 -0.69585913 1.79032
v 1.0237318 0.14872484 1.79032
v 0.53611076 0.9933124 1.7903197
v -0.43913263 0.9933124 1.79032
v -1.0806772 -0.1321155 3.8388143
v 0.2965877 -0.4163257 4.2754855
v -0.4543303 -1.0169683 3.9868135
v -0.3297584 0.46852517 4.127486
v -1.2473236 0.7777124 4.005751
v 0.20735845 0.5649901 4.255382
v -0.6232447 -0.013753357 4.370806
v -0.41672048 1.3564562 3.8903258
v 0.4012315 -0.86420184 3.7944915
v 0.8499975 0.5635214 3.7078285
v 1.2826285 -0.32297045 3.4852886
v -0.031397708 0.022289932 4.0170293
v 0.36480767 -0.3703579 3.6604893
v 1.641408 0.05868652 3.108072
v 1.2590147 -0.8559833 3.3146403
v 0.7472 0.5443084 3.45392
v -0.73135126 -0.2792004 3.8354669
v -0.36705458 -1.5962635 3.318044
v -1.2561659 -1.1879516 3.5641367
v 0.1577592 -0.68751234 3.5893745
v -0.50532794 0.79937977 3.6342459
v -1.5992461 -0.01621817 3.1131136
v -1.4929062 0.9840031 3.2630243
v -0.611668 -0.20084156 3.4843366
v 0.45957366 0.14647792 3.5181248
v 0.20931457 1.5430734 3.1108227
v 1.0610658 0.994762 3.2223034
v -0.39217818 0.6947894 3.4066443
v 0.3328507 0.80986285 2.6927397
v 1.6887779 0.21723144 2.4866538
v 0.81718576 -0.16855255 2.7942498
v 1.2044411 1.1956451 2.3851442
v 0.5404571 -0.35547733 2.3328052
v -0.667925 -1.176785 2.0483515
v -0.5477574 -0.276154 2.438938
v 0.42028984 -1.2561084 1.9422194
v -0.53375006 -0.7351439 2.8076835
v -1.6887776 0.06761479 2.371712
v -0.8229612 0.3236786 2.7714648
v -1.3995657 -0.9912077 2.407931
v -0.2517871 1.3279214 2.8207393
v -1.5503901 0.56519735 2.4864972
v -1.1554168 1.5962646 2.4864972
v -0.64676005 0.29685512 2.8207393
v 0.25511983 -0.57944876 2.7059028
v 1.6410364 -0.40218142 2.249326
v 1.0564972 -1.2245344 2.3840208
v 0.8396584 0.2429042 2.571208
v 0.66348106 -0.91647154 1.3183806
v 1.3184068 0.14872484 1.79032
v 1.2784728 0.14872484 1.3183808
v 0.66348106 1.2139213 1.3183806
v 0.68344766 -0.9510532 1.79032
v 0.68344766 1.2485049 1.7903197
v -0.5665013 -0.91647154 1.3183806
v -0.5665013 1.2139213 1.3183806
v -0.58646786 -0.9510532 1.79032
v -0.58646786 1.2485049 1.79032
v -1.181493 0.14872484 1.3183808
v -1.2214267 0.14872484 1.79032
v 0.051900376 -0.1817412 1.7903197
v 0.28532457 0.14872484 4.2847214
v 0.38236913 0.14872484 1.7903197
v 0.051900376 0.47919297 1.7903197
v 0.051900376 -0.11630406 4.2847214
v -0.27856746 0.14872484 1.7903197
v 0.051900376 0.41375917 4.2847214
v -0.18152279 0.14872484 4.2847214
v 0.051900376 0.14872484 4.591956
v 0.5459867 -0.7129638 2.528131E-07
v 1.1548805 0.14872484 1.4798056
v 1.0434841 0.14872484 2.528131E-07
v 0.5459867 1.0104173 2.528131E-07
v 0.601685 -0.8094356 1.4798056
v 0.601685 1.1068875 1.4798056
v -0.44900692 -0.7129638 2.528131E-07
v -0.44900692 1.0104173 2.528131E-07
v -0.50470513 -0.8094356 1.4798056
v -0.50470513 1.1068875 1.4798056
v -0.9465044 0.14872484 2.528131E-07
v -1.0579005 0.14872484 1.4798056
v 0.68344766 1.2485049 1.7903197
v -0.43913263 0.9933124 1.79032
v -0.58646786 1.2485049 1.79032
v 0.53611076 0.9933124 1.7903197
v -0.926754 0.14872484 1.79032
v 1.3184068 0.14872484 1.79032
v -1.2214267 0.14872484 1.79032
v 1.0237318 0.14872484 1.79032
v -0.43913263 -0.69585913 1.79032
v 0.68344766 -0.9510532 1.79032
v -0.58646786 -0.9510532 1.79032
v 0.53611076 -0.69585913 1.79032
vt 0.284812 0.46589303
vt 0.284812 0.46589303
vt 0.284812 0.46589303
vt 0.284812 0.46589303
vt 0.284812 0.46589303
vt 0.284812 0.46589303
vt 0.284812 0.46589303
vt 0.284812 0.46589303
vt 0.284812 0.46589303
vt 0.284812 0.46589303
vt 0.284812 0.46589303
vt 0.284812 0.46589303
vt 0.284812 0.46589303
vt 0.284812 0.46589303
vt 0.284812 0.46589303
vt 0.284812 0.46589303
vt 0.71973413 0.90661496
vt 0.71973413 0.90661496
vt 0.71973413 0.90661496
vt 0.71973413 0.90661496
vt 0.71973413 0.90661496
vt 0.71973413 0.90661496
vt 0.284812 0.46589303
vt 0.284812 0.46589303
vt 0.284812 0.46589303
vt 0.284812 0.46589303
vt 0.284812 0.46589303
vt 0.284812 0.46589303
vt 0.284812 0.46589303
vt 0.284812 0.46589303
vt 0.284812 0.46589303
vt 0.284812 0.46589303
vt 0.284812 0.46589303
vt 0.284812 0.46589303
vt 0.284812 0.46589303
vt 0.284812 0.46589303
vt 0.284812 0.46589303
vt 0.284812 0.46589303
vt 0.284812 0.46589303
vt 0.284812 0.46589303
vt 0.284812 0.46589303
vt 0.284812 0.46589303
vt 0.284812 0.46589303
vt 0.284812 0.46589303
vt 0.284812 0.46589303
vt 0.284812 0.46589303
vt 0.284812 0.46589303
vt 0.284812 0.46589303
vt 0.284812 0.46589303
vt 0.284812 0.46589303
vt 0.284812 0.46589303
vt 0.284812 0.46589303
vt 0.284812 0.46589303
vt 0.284812 0.46589303
vt 0.284812 0.46589303
vt 0.284812 0.46589303
vt 0.284812 0.46589303
vt 0.284812 0.46589303
vt 0.284812 0.46589303
vt 0.284812 0.46589303
vt 0.284812 0.46589303
vt 0.284812 0.46589303
vt 0.284812 0.46589303
vt 0.284812 0.46589303
vt 0.284812 0.46589303
vt 0.284812 0.46589303
vt 0.284812 0.46589303
vt 0.284812 0.46589303
vt 0.284812 0.46589303
vt 0.284812 0.46589303
vt 0.5935308 0.9068188
vt 0.5935308 0.9068188
vt 0.5935308 0.9068188
vt 0.5935308 0.9068188
vt 0.5935308 0.9068188
vt 0.5935308 0.9068188
vt 0.5935308 0.9068188
vt 0.5935308 0.9068188
vt 0.5935308 0.9068188
vt 0.5935308 0.9068188
vt 0.5935308 0.9068188
vt 0.5935308 0.9068188
vt 0.65710133 0.90862036
vt 0.65710133 0.90862036
vt 0.65710133 0.90862036
vt 0.65710133 0.90862036
vt 0.65710133 0.90862036
vt 0.65710133 0.90862036
vt 0.65710133 0.90862036
vt 0.65710133 0.90862036
vt 0.65710133 0.90862036
vt 0.5935308 0.9068188
vt 0.5935308 0.9068188
vt 0.5935308 0.9068188
vt 0.5935308 0.9068188
vt 0.5935308 0.9068188
vt 0.5935308 0.9068188
vt 0.5935308 0.9068188
vt 0.5935308 0.9068188
vt 0.5935308 0.9068188
vt 0.5935308 0.9068188
vt 0.5935308 0.9068188
vt 0.5935308 0.9068188
vt 0.5935308 0.9068188
vt 0.5935308 0.9068188
vt 0.5935308 0.9068188
vt 0.5935308 0.9068188
vt 0.5935308 0.9068188
vt 0.5935308 0.9068188
vt 0.5935308 0.9068188
vt 0.5935308 0.9068188
vt 0.5935308 0.9068188
vt 0.5935308 0.9068188
vt 0.5935308 0.9068188
vt 0.5935308 0.9068188
vn 0.1862368 0.22194867 0.9571074
vn 0.18623675 0.22194867 0.9571075
vn 0.18623602 0.22194873 0.9571076
vn 0.18623759 0.22194864 0.9571073
vn -0 -0.41264844 0.91089034
vn -0 -0.41264847 0.91089034
vn -0 -0.41264847 0.91089034
vn -0 -0.41264838 0.91089034
vn 0.15247476 -0.326983 0.9326487
vn 0.1524747 -0.32698298 0.9326487
vn 0.1524745 -0.32698286 0.9326488
vn 0.15247498 -0.32698312 0.9326486
vn -0.058186285 0.3299915 0.94218886
vn -0.058186267 0.3299915 0.94218886
vn -0.058186438 0.32999152 0.94218886
vn -0.05818612 0.3299915 0.942189
vn -0 0 1
vn -0 0 1
vn -0 0 1
vn -0 0 1
vn -0 0 1
vn -0 0 1
vn -0.31349158 -0.06343403 0.94746983
vn -0.31349155 -0.063434035 0.94746983
vn -0.3134916 -0.06343408 0.94746983
vn -0.31349152 -0.06343399 0.94746995
vn -0.10980557 0.34360346 0.9326733
vn -0.109805584 0.3436034 0.9326733
vn -0.10980583 0.34360275 0.93267345
vn -0.109805316 0.34360412 0.932673
vn 0.36156037 -0.05715951 0.9305949
vn 0.36156046 -0.057159536 0.93059486
vn 0.36156172 -0.057159778 0.93059444
vn 0.36155912 -0.05715927 0.93059534
vn 0.3829801 0.048225522 0.92249686
vn 0.3829802 0.04822545 0.92249686
vn 0.38298082 0.04822445 0.9224967
vn 0.38297954 0.048226524 0.92249715
vn 0.10323412 -0.33883563 0.9351648
vn 0.10323412 -0.3388356 0.9351648
vn 0.10323417 -0.33883557 0.9351648
vn 0.103234045 -0.33883563 0.9351648
vn -0.36637932 -0.09970018 0.9251087
vn -0.36637926 -0.099700235 0.9251087
vn -0.36637846 -0.0997009 0.9251089
vn -0.36638004 -0.099699505 0.9251085
vn 0.06139154 0.28957063 0.95518583
vn 0.061391477 0.2895706 0.95518583
vn 0.061390672 0.2895706 0.95518583
vn 0.061392337 0.28957054 0.9551857
vn 0.23841552 0.21624862 0.94678116
vn 0.2384155 0.2162486 0.94678116
vn 0.23841543 0.21624847 0.9467813
vn 0.23841558 0.21624877 0.94678104
vn 0.059594613 -0.40385047 0.91288185
vn 0.059594598 -0.40385053 0.91288185
vn 0.0595945 -0.40385082 0.91288173
vn 0.059594713 -0.40385017 0.91288203
vn -0.39888352 -0.077698 0.9137039
vn -0.39888352 -0.077698015 0.91370404
vn -0.39888337 -0.077698104 0.91370404
vn -0.39888364 -0.07769791 0.9137039
vn -0.3129091 0.119866714 0.94218886
vn -0.31290913 0.11986674 0.94218886
vn -0.31290922 0.11986674 0.94218886
vn -0.312909 0.119866714 0.94218886
vn 0.32048458 -0.07311468 0.9444278
vn 0.32048458 -0.073114686 0.9444278
vn 0.32048467 -0.0731148 0.9444277
vn 0.3204845 -0.07311456 0.9444278
vn 0.4982125 -0.86294603 -0.08431129
vn 0.99643916 0 -0.08431501
vn 0.99643904 0 -0.08431555
vn 0.49821332 0.86294526 -0.084314756
vn 0.4982387 -0.86293095 -0.08431096
vn 0.4982384 0.8629307 -0.08431465
vn -0.49822533 -0.8629387 -0.084311076
vn -0.49822587 0.862938 -0.08431462
vn -0.49820077 -0.8629528 -0.08431149
vn -0.49820033 0.8629528 -0.08431472
vn -0.99643916 0 -0.08431441
vn -0.99643916 0 -0.0843148
vn 0.0027613745 -0.9994842 0.03199751
vn 0.95507467 0 0.2963653
vn 0.9992441 0 0.03887553
vn 0.0027616275 0.9994842 0.031996887
vn 0.0022945793 -0.947664 0.31926113
vn -0.99962354 0 0.027435105
vn 0.0022947588 0.94766295 0.3192643
vn -0.9530223 0 0.30290022
vn -0 0 1
vn 0.49860114 -0.8635752 -0.07506515
vn 0.9971787 0 -0.07506515
vn 0.9971787 0 -0.07506537
vn 0.49860162 0.8635749 -0.07506443
vn 0.49858984 -0.8635817 -0.0750652
vn 0.4985905 0.8635814 -0.07506422
vn -0.4985764 -0.8635895 -0.07506515
vn -0.49857712 0.86358917 -0.0750642
vn -0.49858794 -0.86358285 -0.07506515
vn -0.4985887 0.8635825 -0.07506439
vn -0.9971787 0 -0.07506505
vn -0.9971787 0 -0.075065196
vn -0 0 1
vn -0 0 1
vn -0 0 1
vn -0 0 1
vn -0 0 1
vn -0 0 1
vn -0 0 1
vn -0 0 1
vn -0 0 1
vn -0 0 1
vn -0 0 1
vn -0 0 1
g potPlant01_0
f 3/3/3 2/2/2 1/1/1
f 4/4/4 1/1/1 2/2/2
f 7/7/7 6/6/6 5/5/5
f 8/8/8 5/5/5 6/6/6
f 11/11/11 10/10/10 9/9/9
f 12/12/12 9/9/9 10/10/10
f 15/15/15 14/14/14 13/13/13
f 16/16/16 13/13/13 14/14/14
f 19/19/19 18/18/18 17/17/17
f 20/20/20 17/17/17 18/18/18
f 20/20/20 21/21/21 17/17/17
f 22/22/22 17/17/17 21/21/21
f 25/25/25 24/24/24 23/23/23
f 26/26/26 23/23/23 24/24/24
f 29/29/29 28/28/28 27/27/27
f 30/30/30 27/27/27 28/28/28
f 33/33/33 32/32/32 31/31/31
f 34/34/34 31/31/31 32/32/32
f 37/37/37 36/36/36 35/35/35
f 38/38/38 35/35/35 36/36/36
f 41/41/41 40/40/40 39/39/39
f 42/42/42 39/39/39 40/40/40
f 45/45/45 44/44/44 43/43/43
f 46/46/46 43/43/43 44/44/44
f 49/49/49 48/48/48 47/47/47
f 50/50/50 47/47/47 48/48/48
f 53/53/53 52/52/52 51/51/51
f 54/54/54 51/51/51 52/52/52
f 57/57/57 56/56/56 55/55/55
f 58/58/58 55/55/55 56/56/56
f 61/61/61 60/60/60 59/59/59
f 62/62/62 59/59/59 60/60/60
f 65/65/65 64/64/64 63/63/63
f 66/66/66 63/63/63 64/64/64
f 69/69/69 68/68/68 67/67/67
f 70/70/70 67/67/67 68/68/68
f 73/73/73 72/72/72 71/71/71
f 73/73/73 74/74/74 72/72/72
f 75/75/75 71/71/71 72/72/72
f 76/76/76 72/72/72 74/74/74
f 71/71/71 75/75/75 77/77/77
f 74/74/74 78/78/78 76/76/76
f 79/79/79 77/77/77 75/75/75
f 80/80/80 76/76/76 78/78/78
f 77/77/77 79/79/79 81/81/81
f 78/78/78 81/81/81 80/80/80
f 82/82/82 81/81/81 79/79/79
f 82/82/82 80/80/80 81/81/81
f 85/85/85 84/84/84 83/83/83
f 85/85/85 86/86/86 84/84/84
f 87/87/87 83/83/83 84/84/84
f 83/83/83 87/87/87 88/88/88
f 86/86/86 88/88/88 89/89/89
f 89/89/89 84/84/84 86/86/86
f 90/90/90 88/88/88 87/87/87
f 90/90/90 89/89/89 88/88/88
f 87/87/87 84/84/84 91/91/91
f 84/84/84 89/89/89 91/91/91
f 87/87/87 91/91/91 90/90/90
f 91/91/91 89/89/89 90/90/90
f 94/94/94 93/93/93 92/92/92
f 94/94/94 95/95/95 93/93/93
f 96/96/96 92/92/92 93/93/93
f 97/97/97 93/93/93 95/95/95
f 92/92/92 96/96/96 98/98/98
f 95/95/95 99/99/99 97/97/97
f 100/100/100 98/98/98 96/96/96
f 101/101/101 97/97/97 99/99/99
f 98/98/98 100/100/100 102/102/102
f 99/99/99 102/102/102 101/101/101
f 103/103/103 102/102/102 100/100/100
f 103/103/103 101/101/101 102/102/102
f 106/106/106 105/105/105 104/104/104
f 107/107/107 104/104/104 105/105/105
f 105/105/105 106/106/106 108/108/108
f 104/104/104 107/107/107 109/109/109
f 110/110/110 108/108/108 106/106/106
f 111/111/111 109/109/109 107/107/107
f 108/108/108 110/110/110 112/112/112
f 109/109/109 111/111/111 113/113/113
f 114/114/114 112/112/112 110/110/110
f 115/115/115 113/113/113 111/111/111
f 112/112/112 114/114/114 115/115/115
f 113/113/113 115/115/115 114/114/114
