g puff_Small
v 1.1920929E-07 -0.49999997 3.0300342E-08
v -0.30618614 -0.35355335 -0.17677681
v -0.30618626 -0.35355335 0.17677668
v 5.9604645E-08 -0.35355335 0.35355347
v -0.43301255 0 -0.2500001
v -0.43301266 0 0.24999993
v 0.30618635 -0.35355335 0.17677677
v 5.9604645E-08 0 0.50000006
v 1.1920929E-07 -0.35355335 -0.35355338
v 0.30618638 -0.35355335 -0.17677668
v 1.1920929E-07 0 -0.5
v 0.43301284 0 0.25000012
v 0.43301287 0 -0.24999999
v -0.30618626 0.3535534 0.17677668
v -0.30618614 0.3535534 -0.17677681
v 1.1920929E-07 0.3535534 -0.35355338
v 5.9604645E-08 0.3535534 0.35355347
v 5.9604645E-08 0.5 5.2156025E-08
v 0.30618638 0.3535534 -0.17677668
v 0.30618635 0.3535534 0.17677677
vt 0.52990174 0.031533316
vt 0.52990174 0.031533316
vt 0.52990174 0.031533316
vt 0.52990174 0.031533316
vt 0.52990174 0.031533316
vt 0.52990174 0.031533316
vt 0.52990174 0.031533316
vt 0.52990174 0.031533316
vt 0.52990174 0.031533316
vt 0.52990174 0.031533316
vt 0.52990174 0.031533316
vt 0.52990174 0.031533316
vt 0.52990174 0.031533316
vt 0.52990174 0.031533316
vt 0.52990174 0.031533316
vt 0.52990174 0.031533316
vt 0.52990174 0.031533316
vt 0.52990174 0.031533316
vt 0.52990174 0.031533316
vt 0.52990174 0.031533316
vn -0 -1 0
vn -0.6579072 -0.65029025 -0.3798431
vn -0.65790737 -0.6502902 0.3798428
vn -0 -0.65029025 0.7596859
vn -0.86602527 0 -0.50000024
vn -0.8660255 0 0.49999985
vn 0.6579072 -0.65029025 0.37984306
vn -0 0 1
vn -0 -0.65029025 -0.7596858
vn 0.65790725 -0.65029025 -0.3798429
vn -0 0 -1
vn 0.8660253 0 0.5000002
vn 0.86602545 0 -0.49999997
vn -0.65790737 0.65029013 0.37984276
vn -0.65790707 0.65029025 -0.37984318
vn -0 0.65029025 -0.7596858
vn -0 0.6502902 0.7596859
vn -0 1 0
vn 0.65790725 0.65029025 -0.3798429
vn 0.65790725 0.6502903 0.379843
g puff_Small_0
f 3/3/3 2/2/2 1/1/1
f 4/4/4 3/3/3 1/1/1
f 5/5/5 2/2/2 3/3/3
f 6/6/6 3/3/3 4/4/4
f 6/6/6 5/5/5 3/3/3
f 7/7/7 4/4/4 1/1/1
f 8/8/8 6/6/6 4/4/4
f 8/8/8 4/4/4 7/7/7
f 2/2/2 9/9/9 1/1/1
f 10/10/10 7/7/7 1/1/1
f 9/9/9 10/10/10 1/1/1
f 11/11/11 9/9/9 2/2/2
f 5/5/5 11/11/11 2/2/2
f 12/12/12 7/7/7 10/10/10
f 12/12/12 8/8/8 7/7/7
f 13/13/13 10/10/10 9/9/9
f 11/11/11 13/13/13 9/9/9
f 13/13/13 12/12/12 10/10/10
f 14/14/14 6/6/6 8/8/8
f 15/15/15 5/5/5 6/6/6
f 14/14/14 15/15/15 6/6/6
f 16/16/16 11/11/11 5/5/5
f 15/15/15 16/16/16 5/5/5
f 17/17/17 8/8/8 12/12/12
f 17/17/17 14/14/14 8/8/8
f 18/18/18 15/15/15 14/14/14
f 18/18/18 16/16/16 15/15/15
f 18/18/18 14/14/14 17/17/17
f 16/16/16 19/19/19 11/11/11
f 19/19/19 13/13/13 11/11/11
f 18/18/18 19/19/19 16/16/16
f 20/20/20 12/12/12 13/13/13
f 20/20/20 17/17/17 12/12/12
f 19/19/19 20/20/20 13/13/13
f 18/18/18 20/20/20 19/19/19
f 18/18/18 17/17/17 20/20/20
