g Pumpkin_face
v 0.5258152 1.3477249 0.036936894
v 0.01565223 1.3625064 -0.0051586763
v 0.46229696 1.3621871 -0.235033
v -0.43354475 1.3608218 -0.25987703
v -0.28162336 1.378561 -0.41741472
v -0.447483 1.3299541 0.2862432
v -0.5113186 1.3460186 0.011142524
v -0.36814934 0.010253404 0.19639798
v 0.015577366 0.03367444 -0.02161825
v -0.4228076 0.020118155 -0.03391864
v 0.4514325 0.028139915 -0.0118665965
v 0.3995164 0.038855903 -0.24316594
v 0.22231814 0.008536373 0.37703255
v 0.38615355 0.017148511 0.21500084
v -0.21176402 0.0045834025 0.3664934
v 0.0039453604 0.0040466664 0.4322299
v 0.22687487 0.5319287 -0.7647325
v 0.039179575 0.529436 -0.83520377
v 0.0269634 0.4689006 -0.83215183
v 0.73984176 1.2209426 -0.006556334
v 0.5258152 1.3477249 0.036936894
v 0.46229696 1.3621871 -0.235033
v 0.6524959 1.2620234 -0.36432028
v 0.7417628 1.0680951 -0.41587046
v 0.83727765 1.03815 0.010676301
v 0.7903166 0.6462573 -0.45024776
v 0.8966665 0.6142443 0.00647625
v 0.8209265 0.344466 -0.0122623565
v 0.7238027 0.37525958 -0.43328932
v 0.6312986 0.13547215 0.0018126715
v 0.5996698 0.16001245 -0.36817667
v 0.3995164 0.038855903 -0.24316594
v 0.4514325 0.028139915 -0.0118665965
v -0.6164529 0.13495554 0.2899118
v -0.36814934 0.010253404 0.19639798
v -0.4228076 0.020118155 -0.03391864
v -0.687202 0.15629575 -0.022125658
v -0.81012326 0.3613339 -0.06092481
v -0.71299946 0.33054096 0.36010203
v -0.7669352 0.5750412 0.41227755
v -0.8732851 0.6070542 -0.04444656
v -0.82587737 1.0211642 -0.05049381
v -0.72808945 0.99799675 0.3876272
v -0.63926077 1.209504 0.40600714
v -0.74042743 1.2093827 -0.022123605
v -0.5113186 1.3460186 0.011142524
v -0.447483 1.3299541 0.2862432
v 0.22687487 0.5319287 -0.7647325
v 0.25930497 0.46200415 -0.7606589
v 0.28068575 0.46924067 -0.7851831
v 0.26645184 0.55373657 -0.8113606
v 0.0039453604 0.0040466664 0.4322299
v -0.21176402 0.0045834025 0.3664934
v -0.35735393 0.110656954 0.6051119
v -0.018029101 0.103433885 0.6398977
v -0.018870182 0.29357246 0.7989409
v -0.42338076 0.30573854 0.6748348
v -0.012738344 0.5456602 0.8876407
v -0.4727542 0.5525408 0.75922346
v -0.024978485 0.9727931 0.8359182
v -0.45437178 0.97637784 0.7165993
v -0.017154856 1.1636704 0.76554394
v -0.3924707 1.172609 0.6633502
v -0.26049384 1.3176315 0.48921221
v -0.0027430868 1.3133775 0.5665583
v 0.01565223 1.3625064 -0.0051586763
v 0.25703964 1.3186877 0.49955046
v 0.45057255 1.3316121 0.3060054
v 0.62990665 1.1990201 0.40012562
v 0.35911742 1.2070421 0.66691124
v 0.42631185 0.9925121 0.7077774
v 0.71014225 1.0093362 0.43741706
v 0.76588774 0.5812681 0.45637804
v 0.4709183 0.55902225 0.7421876
v 0.39214408 0.29730433 0.69916624
v 0.6995311 0.31593186 0.40224516
v 0.31147423 0.1017761 0.5914014
v 0.5792075 0.11461606 0.33399016
v 0.38615355 0.017148511 0.21500084
v 0.22231814 0.008536373 0.37703255
v -0.6389499 1.253624 -0.37724698
v -0.70013326 1.0536492 -0.46875387
v -0.5540418 1.2595766 -0.50389135
v -0.28162336 1.378561 -0.41741472
v -0.43354475 1.3608218 -0.25987703
v -0.013487978 1.7195082 0.038981877
v 0.077021174 1.7077708 -0.023487005
v 0.039153747 1.721827 0.017010693
v -0.06767324 1.7014076 0.037189502
v -0.10987685 1.6720327 0.011818551
v -0.11915412 1.6108235 -0.0815937
v -0.12902416 1.638888 -0.031347923
v -0.026410047 1.5981091 -0.14932714
v -0.0817039 1.5957372 -0.12522814
v 0.030838562 1.6172907 -0.14650394
v 0.07343846 1.6476904 -0.11799034
v 0.089940354 1.680781 -0.072717234
v -0.55882436 1.2532532 0.11627278
v -0.48649725 1.3708944 0.110156976
v -0.22925305 1.3961394 0.21713246
v -0.33458498 1.280302 0.29905283
v -0.20227115 1.3449932 0.4931512
v -0.2302854 1.2225003 0.54339546
v -0.2302854 1.2225003 0.54339546
v -0.20227115 1.3449932 0.4931512
v 0.0211143 1.3630842 0.3671554
v 0.024162386 1.2170854 0.4883185
v 0.27324054 1.3484406 0.4438199
v 0.30611748 1.2250555 0.49374798
v 0.30611748 1.2250555 0.49374798
v 0.27324054 1.3484406 0.4438199
v 0.26489398 1.3749146 0.21096614
v 0.37240055 1.2357737 0.28693625
v 0.4714867 1.3785315 0.004846068
v 0.5495802 1.2607015 -0.0041740085
v 0.5495802 1.2607015 -0.0041740085
v 0.4714867 1.3785315 0.004846068
v 0.27096197 1.3939024 -0.14598343
v 0.3902122 1.2688637 -0.22667785
v 0.18464908 1.4051309 -0.38758126
v 0.21807943 1.2956158 -0.4760732
v -0.07249295 1.4180577 -0.2781327
v -0.10959102 1.3176885 -0.41490465
v -0.29773754 1.4009168 -0.33130997
v -0.3556834 1.2903186 -0.40137428
v -0.28839937 1.3954191 -0.061248414
v -0.43229425 1.2722436 -0.104741454
v -0.48649725 1.3708944 0.110156976
v -0.55882436 1.2532532 0.11627278
v 0.19001384 1.0636367 -0.82983977
v 0.31022394 1.1109803 -0.7915333
v 0.2984043 1.153905 -0.77328736
v 0.04199273 1.158107 -0.8439311
v 0.14028178 0.94991755 -0.8784369
v 0.03925535 0.9307803 -0.9088371
v 0.10457417 0.70444447 -0.9228403
v 0.20174538 0.8220608 -0.8817587
v 0.3074793 0.7196925 -0.8635596
v 0.32302916 0.7732588 -0.85771734
v 0.4413299 0.81776536 -0.82067704
v 0.038732994 0.87038517 -0.9195721
v -0.05282481 0.9464333 -0.88462996
v -0.036581516 0.7038343 -0.9250165
v -0.103038765 1.0593609 -0.840377
v -0.115515254 0.8189036 -0.89029706
v -0.21413648 1.1493517 -0.79258054
v -0.22479327 1.1070422 -0.80968666
v -0.41867733 1.1405964 -0.7412301
v -0.35222578 1.0565091 -0.79216224
v -0.41276777 0.94052136 -0.81524086
v -0.37295654 1.2643139 -0.636796
v -0.43641722 0.9161547 -0.8169595
v -0.44375414 0.7121027 -0.8187328
v -0.3590755 0.8155796 -0.84324706
v -0.70013326 1.0536492 -0.46875387
v -0.23944606 0.7707041 -0.8727754
v -0.23020591 0.71775734 -0.8772658
v 0.047908038 1.2732909 -0.74401945
v -0.36758074 0.56207913 -0.8071693
v 0.03624565 0.641948 -0.9274735
v 0.03627328 0.70538086 -0.9351902
v 0.040730026 0.5515807 -0.8953739
v 0.26645184 0.55373657 -0.8113606
v 0.28068575 0.46924067 -0.7851831
v 0.35833085 0.46274725 -0.7493332
v 0.43440872 0.5555004 -0.7426219
v -0.5776309 0.60796905 -0.6475519
v 0.5090351 0.7159728 -0.7913203
v 0.604407 0.6024108 -0.6436589
v -0.7425064 0.6400305 -0.49434817
v -0.68872774 0.38986745 -0.47543243
v -0.46389094 0.46627647 -0.7156411
v 0.7903166 0.6462573 -0.45024776
v 0.52159214 0.44183296 -0.65660256
v 0.7238027 0.37525958 -0.43328932
v 0.7417628 1.0680951 -0.41587046
v 0.5996698 0.16001245 -0.36817667
v 0.503216 0.9227514 -0.7835048
v 0.49456874 0.94355977 -0.7881134
v 0.4866846 1.149703 -0.7026436
v 0.43508324 1.0599052 -0.7672602
v 0.36244917 0.18086348 -0.63530964
v 0.38930455 0.3915327 -0.7512828
v 0.022587946 0.33463362 -0.8261987
v 0.31022394 1.1109803 -0.7915333
v 0.4240028 1.2698877 -0.5970618
v 0.6524959 1.2620234 -0.36432028
v 0.46229696 1.3621871 -0.235033
v 0.27810356 1.3716384 -0.4368968
v 0.01565223 1.3625064 -0.0051586763
v 0.022793787 1.3746192 -0.5161823
v -0.28162336 1.378561 -0.41741472
v 0.45057255 1.3316121 0.3060054
v 0.5258152 1.3477249 0.036936894
v 0.73984176 1.2209426 -0.006556334
v 0.62990665 1.1990201 0.40012562
v 0.71014225 1.0093362 0.43741706
v 0.83727765 1.03815 0.010676301
v 0.8966665 0.6142443 0.00647625
v 0.76588774 0.5812681 0.45637804
v 0.6995311 0.31593186 0.40224516
v 0.8209265 0.344466 -0.0122623565
v 0.5792075 0.11461606 0.33399016
v 0.6312986 0.13547215 0.0018126715
v 0.4514325 0.028139915 -0.0118665965
v 0.38615355 0.017148511 0.21500084
v 0.015577366 0.03367444 -0.02161825
v -0.0027430868 1.3133775 0.5665583
v 0.25703964 1.3186877 0.49955046
v -0.017154856 1.1636704 0.76554394
v 0.35911742 1.2070421 0.66691124
v -0.024978485 0.9727931 0.8359182
v 0.42631185 0.9925121 0.7077774
v 0.4709183 0.55902225 0.7421876
v -0.012738344 0.5456602 0.8876407
v -0.018870182 0.29357246 0.7989409
v 0.39214408 0.29730433 0.69916624
v -0.018029101 0.103433885 0.6398977
v 0.31147423 0.1017761 0.5914014
v 0.22231814 0.008536373 0.37703255
v 0.0039453604 0.0040466664 0.4322299
v -0.5113186 1.3460186 0.011142524
v -0.43354475 1.3608218 -0.25987703
v -0.74042743 1.2093827 -0.022123605
v -0.6389499 1.253624 -0.37724698
v -0.82587737 1.0211642 -0.05049381
v -0.8732851 0.6070542 -0.04444656
v -0.81012326 0.3613339 -0.06092481
v -0.58554626 0.17924216 -0.3975494
v -0.687202 0.15629575 -0.022125658
v -0.4228076 0.020118155 -0.03391864
v -0.3459537 0.19242126 -0.6538587
v -0.30027813 0.3936671 -0.7704708
v -0.35973537 0.031871222 -0.26277158
v -0.19535014 0.042086285 -0.42773524
v -0.17053565 0.19314946 -0.7044356
v -0.14549723 0.36536667 -0.79718643
v -0.2839604 0.4699733 -0.76886153
v -0.19987279 0.4605359 -0.79480666
v 0.019960603 0.19394019 -0.75936
v -0.08935998 0.044641837 -0.45465365
v 0.025740659 0.04741715 -0.4838857
v 0.24364433 0.046128202 -0.41620085
v 0.3995164 0.038855903 -0.24316594
v -0.21176402 0.0045834025 0.3664934
v -0.36814934 0.010253404 0.19639798
v -0.6164529 0.13495554 0.2899118
v -0.35735393 0.110656954 0.6051119
v -0.42338076 0.30573854 0.6748348
v -0.71299946 0.33054096 0.36010203
v -0.7669352 0.5750412 0.41227755
v -0.4727542 0.5525408 0.75922346
v -0.72808945 0.99799675 0.3876272
v -0.45437178 0.97637784 0.7165993
v -0.3924707 1.172609 0.6633502
v -0.63926077 1.209504 0.40600714
v -0.447483 1.3299541 0.2862432
v -0.26049384 1.3176315 0.48921221
v 0.038732994 0.87038517 -0.9195721
v 0.037558474 0.8214186 -0.90328854
v 0.07747771 0.72080946 -0.9052699
v 0.10457417 0.70444447 -0.9228403
v -0.1255657 0.8352743 -0.79403114
v -0.07850261 0.9314205 -0.79043424
v -0.1150576 1.0135491 -0.7540349
v -0.20263436 1.0491127 -0.7320887
v -0.21450604 0.8001819 -0.7812879
v -0.2948519 1.0118239 -0.71921647
v -0.30006665 0.83308935 -0.76030594
v -0.3398738 0.92730856 -0.74003357
v 0.38298717 0.83531433 -0.74081653
v 0.42240947 0.9301258 -0.7172029
v 0.37812513 1.0149106 -0.69806874
v 0.29841125 0.80266285 -0.7671653
v 0.28771555 1.0525719 -0.71585256
v 0.21134067 0.8381864 -0.7846076
v 0.20131652 1.017231 -0.7432674
v 0.16517785 0.9345696 -0.782808
v 0.43440872 0.5555004 -0.7426219
v 0.51199764 0.57207274 -0.6240626
v 0.604407 0.6024108 -0.6436589
v 0.36371902 0.5339681 -0.70707375
v 0.32108256 0.45691496 -0.7306136
v 0.35833085 0.46274725 -0.7493332
v 0.0269634 0.4689006 -0.83215183
v 0.039179575 0.529436 -0.83520377
v -0.3045601 0.5419751 -0.76121694
v -0.18579479 0.4758602 -0.7787334
v 0.023961803 0.35238147 -0.78210187
v -0.11754807 0.37673554 -0.75776607
v -0.3817126 0.42360237 -0.658823
v -0.24785711 0.3991619 -0.7353566
v 0.3353005 0.3966249 -0.7192616
v 0.44312918 0.4328988 -0.6349198
v 0.36371902 0.5339681 -0.70707375
v 0.51199764 0.57207274 -0.6240626
v 0.22687487 0.5319287 -0.7647325
v -0.3045601 0.5419751 -0.76121694
v -0.3817126 0.42360237 -0.658823
v -0.18579479 0.4758602 -0.7787334
v -0.47950816 0.5767351 -0.627328
v -0.46389094 0.46627647 -0.7156411
v -0.47950816 0.5767351 -0.627328
v -0.5776309 0.60796905 -0.6475519
v -0.3817126 0.42360237 -0.658823
v -0.30027813 0.3936671 -0.7704708
v -0.24785711 0.3991619 -0.7353566
v -0.5776309 0.60796905 -0.6475519
v -0.47950816 0.5767351 -0.627328
v -0.3045601 0.5419751 -0.76121694
v -0.36758074 0.56207913 -0.8071693
v 0.039179575 0.529436 -0.83520377
v 0.040730026 0.5515807 -0.8953739
v 0.22687487 0.5319287 -0.7647325
v 0.26645184 0.55373657 -0.8113606
v 0.604407 0.6024108 -0.6436589
v 0.51199764 0.57207274 -0.6240626
v 0.44312918 0.4328988 -0.6349198
v 0.52159214 0.44183296 -0.65660256
v 0.52159214 0.44183296 -0.65660256
v 0.44312918 0.4328988 -0.6349198
v 0.3353005 0.3966249 -0.7192616
v 0.38930455 0.3915327 -0.7512828
v 0.023961803 0.35238147 -0.78210187
v 0.022587946 0.33463362 -0.8261987
v -0.11754807 0.37673554 -0.75776607
v -0.14549723 0.36536667 -0.79718643
v -0.19987279 0.4605359 -0.79480666
v -0.18059936 0.46939924 -0.77286947
v -0.25936237 0.47571814 -0.74935216
v -0.2839604 0.4699733 -0.76886153
v 0.28068575 0.46924067 -0.7851831
v 0.25930497 0.46200415 -0.7606589
v 0.32108256 0.45691496 -0.7306136
v 0.35833085 0.46274725 -0.7493332
v 0.36371902 0.5339681 -0.70707375
v 0.32108256 0.45691496 -0.7306136
v 0.25930497 0.46200415 -0.7606589
v 0.22687487 0.5319287 -0.7647325
v -0.24785711 0.3991619 -0.7353566
v -0.25936237 0.47571814 -0.74935216
v -0.18059936 0.46939924 -0.77286947
v -0.11754807 0.37673554 -0.75776607
v -0.30027813 0.3936671 -0.7704708
v -0.2839604 0.4699733 -0.76886153
v -0.25936237 0.47571814 -0.74935216
v -0.24785711 0.3991619 -0.7353566
v -0.036581516 0.7038343 -0.9250165
v -0.0081043895 0.7204395 -0.90658927
v 0.037558474 0.8214186 -0.90328854
v 0.038732994 0.87038517 -0.9195721
v 0.03627328 0.70538086 -0.9351902
v -0.0081043895 0.7204395 -0.90658927
v -0.036581516 0.7038343 -0.9250165
v 0.036067165 0.72137725 -0.91629577
v 0.10457417 0.70444447 -0.9228403
v 0.07747771 0.72080946 -0.9052699
v -0.0081043895 0.7204395 -0.90658927
v 0.036067165 0.72137725 -0.91629577
v 0.07747771 0.72080946 -0.9052699
v 0.037558474 0.8214186 -0.90328854
v -0.5540418 1.2595766 -0.50389135
v -0.37295654 1.2643139 -0.636796
v -0.28162336 1.378561 -0.41741472
v -0.70013326 1.0536492 -0.46875387
v -0.41867733 1.1405964 -0.7412301
v 0.18464908 1.4051309 -0.38758126
v 0.27096197 1.3939024 -0.14598343
v -0.012527507 1.4472706 0.06588548
v -0.07249295 1.4180577 -0.2781327
v 0.4714867 1.3785315 0.004846068
v -0.29773754 1.4009168 -0.33130997
v 0.26489398 1.3749146 0.21096614
v -0.28839937 1.3954191 -0.061248414
v 0.27324054 1.3484406 0.4438199
v -0.48649725 1.3708944 0.110156976
v 0.0211143 1.3630842 0.3671554
v -0.22925305 1.3961394 0.21713246
v -0.20227115 1.3449932 0.4931512
v -0.35222578 1.0565091 -0.79216224
v -0.20263436 1.0491127 -0.7320887
v -0.22479327 1.1070422 -0.80968666
v -0.2948519 1.0118239 -0.71921647
v -0.1150576 1.0135491 -0.7540349
v -0.41276777 0.94052136 -0.81524086
v -0.103038765 1.0593609 -0.840377
v -0.3398738 0.92730856 -0.74003357
v -0.07850261 0.9314205 -0.79043424
v -0.3590755 0.8155796 -0.84324706
v -0.05282481 0.9464333 -0.88462996
v -0.30006665 0.83308935 -0.76030594
v -0.1255657 0.8352743 -0.79403114
v -0.23944606 0.7707041 -0.8727754
v -0.115515254 0.8189036 -0.89029706
v -0.21450604 0.8001819 -0.7812879
v 0.31022394 1.1109803 -0.7915333
v 0.37812513 1.0149106 -0.69806874
v 0.43508324 1.0599052 -0.7672602
v 0.28771555 1.0525719 -0.71585256
v 0.42240947 0.9301258 -0.7172029
v 0.19001384 1.0636367 -0.82983977
v 0.49456874 0.94355977 -0.7881134
v 0.20131652 1.017231 -0.7432674
v 0.38298717 0.83531433 -0.74081653
v 0.14028178 0.94991755 -0.8784369
v 0.4413299 0.81776536 -0.82067704
v 0.16517785 0.9345696 -0.782808
v 0.29841125 0.80266285 -0.7671653
v 0.20174538 0.8220608 -0.8817587
v 0.32302916 0.7732588 -0.85771734
v 0.21134067 0.8381864 -0.7846076
v -0.013487978 1.7195082 0.038981877
v -0.03864222 1.5539625 0.101844735
v -0.06767324 1.7014076 0.037189502
v 0.005860798 1.5563352 0.10838329
v 0.039153747 1.721827 0.017010693
v -0.0750477 1.5476161 0.07465473
v -0.10987685 1.6720327 0.011818551
v 0.047986276 1.5542674 0.09332793
v 0.077021174 1.7077708 -0.023487005
v -0.003367872 1.1568545 0.115271546
v -0.09351696 1.5386529 0.03254125
v 0.07789706 1.5481976 0.059980057
v -0.12902416 1.638888 -0.031347923
v 0.089940354 1.680781 -0.072717234
v -0.08756369 1.5294006 -0.013876917
v -0.11915412 1.6108235 -0.0815937
v 0.087627955 1.539487 0.015769633
v 0.07343846 1.6476904 -0.11799034
v -0.05737813 1.5225217 -0.05120681
v -0.0817039 1.5957372 -0.12522814
v 0.073144086 1.5302391 -0.028160565
v 0.030838562 1.6172907 -0.14650394
v -0.0112782605 1.5201902 -0.0680551
v -0.026410047 1.5981091 -0.14932714
v 0.036962025 1.523078 -0.059342224
vt 0.5329383 0.96621144
vt 0.5329383 0.96621144
vt 0.5329383 0.96621144
vt 0.5329383 0.96621144
vt 0.5329383 0.96621144
vt 0.5329383 0.96621144
vt 0.5329383 0.96621144
vt 0.5378599 0.9686722
vt 0.5378599 0.9686722
vt 0.5378599 0.9686722
vt 0.5378599 0.9686722
vt 0.5378599 0.9686722
vt 0.5378599 0.9686722
vt 0.5378599 0.9686722
vt 0.5378599 0.9686722
vt 0.5378599 0.9686722
vt 0.27947772 0.96375066
vt 0.2794777 0.96375066
vt 0.2794777 0.9637506
vt 0.5329383 0.9686722
vt 0.5329383 0.9686722
vt 0.5329383 0.9686722
vt 0.5329383 0.9686722
vt 0.5329383 0.9686722
vt 0.5329383 0.9686722
vt 0.5329383 0.9686722
vt 0.5329383 0.9686722
vt 0.5329383 0.9686722
vt 0.5329383 0.9686722
vt 0.5329383 0.9686722
vt 0.5329383 0.9686722
vt 0.5329383 0.9686722
vt 0.5329383 0.9686722
vt 0.5329383 0.9686722
vt 0.5329383 0.9686722
vt 0.5329383 0.9686722
vt 0.5329383 0.9686722
vt 0.5329383 0.9686722
vt 0.5329383 0.9686722
vt 0.5329383 0.9686722
vt 0.5329383 0.9686722
vt 0.5329383 0.9686722
vt 0.5329383 0.9686722
vt 0.5329383 0.9686722
vt 0.5329383 0.9686722
vt 0.5329383 0.9686722
vt 0.5329383 0.9686722
vt 0.3336149 0.96375066
vt 0.3336149 0.96375066
vt 0.3336149 0.96375066
vt 0.3336149 0.96375066
vt 0.5329383 0.9686722
vt 0.5329383 0.9686722
vt 0.5329383 0.9686722
vt 0.5329383 0.9686722
vt 0.5329383 0.9686722
vt 0.5329383 0.9686722
vt 0.5329383 0.9686722
vt 0.5329383 0.9686722
vt 0.5329383 0.9686722
vt 0.5329383 0.9686722
vt 0.5329383 0.9686722
vt 0.5329383 0.9686722
vt 0.5329383 0.9686722
vt 0.5329383 0.9686722
vt 0.5329383 0.9686722
vt 0.5329383 0.9686722
vt 0.5329383 0.9686722
vt 0.5329383 0.9686722
vt 0.5329383 0.9686722
vt 0.5329383 0.9686722
vt 0.5329383 0.9686722
vt 0.5329383 0.9686722
vt 0.5329383 0.9686722
vt 0.5329383 0.9686722
vt 0.5329383 0.9686722
vt 0.5329383 0.9686722
vt 0.5329383 0.9686722
vt 0.5329383 0.9686722
vt 0.5329383 0.9686722
vt 0.5329383 0.9686722
vt 0.5329383 0.9686722
vt 0.5329383 0.9686722
vt 0.5329383 0.9686722
vt 0.5329383 0.9686722
vt 0.22222142 0.47060385
vt 0.22222142 0.47060385
vt 0.22222142 0.47060385
vt 0.22222142 0.47060385
vt 0.22222142 0.47060385
vt 0.22222142 0.47060385
vt 0.22222142 0.47060385
vt 0.22222142 0.47060385
vt 0.22222142 0.47060385
vt 0.22222142 0.47060385
vt 0.22222142 0.47060385
vt 0.22222142 0.47060385
vt 0.22960377 0.480447
vt 0.22960377 0.480447
vt 0.22960377 0.480447
vt 0.22960377 0.480447
vt 0.22960377 0.480447
vt 0.22960377 0.480447
vt 0.22960377 0.480447
vt 0.22960377 0.480447
vt 0.22960377 0.480447
vt 0.22960377 0.480447
vt 0.22960377 0.480447
vt 0.22960377 0.480447
vt 0.22960377 0.480447
vt 0.22960377 0.480447
vt 0.22960377 0.480447
vt 0.22960377 0.480447
vt 0.22960377 0.480447
vt 0.22960377 0.480447
vt 0.22960377 0.480447
vt 0.22960377 0.480447
vt 0.22960377 0.480447
vt 0.22960377 0.480447
vt 0.22960377 0.480447
vt 0.22960377 0.480447
vt 0.22960377 0.480447
vt 0.22960377 0.480447
vt 0.22960377 0.480447
vt 0.22960377 0.480447
vt 0.22960377 0.480447
vt 0.22960377 0.480447
vt 0.22960377 0.480447
vt 0.22960377 0.480447
vt 0.46895796 0.9735937
vt 0.46895793 0.9735937
vt 0.46895796 0.9735938
vt 0.46895796 0.9735938
vt 0.46895796 0.9735938
vt 0.46895796 0.9735938
vt 0.46895796 0.9735937
vt 0.46895796 0.9735937
vt 0.46895796 0.9735938
vt 0.46895796 0.9735938
vt 0.46895796 0.9735938
vt 0.46895796 0.9735938
vt 0.46895796 0.9735937
vt 0.46895796 0.9735938
vt 0.46895796 0.9735937
vt 0.46895796 0.9735938
vt 0.46895796 0.9735938
vt 0.46895796 0.9735938
vt 0.46895796 0.9735938
vt 0.46895796 0.9735938
vt 0.46895796 0.9735938
vt 0.46895796 0.9735938
vt 0.46895796 0.9735938
vt 0.46895796 0.9735938
vt 0.46895796 0.97359383
vt 0.46895796 0.9735938
vt 0.46895796 0.9735938
vt 0.46895796 0.9735938
vt 0.46895796 0.9735938
vt 0.46895796 0.9735938
vt 0.46895796 0.9735938
vt 0.46895796 0.9735938
vt 0.46895796 0.9735938
vt 0.46895796 0.9735938
vt 0.46895796 0.9735938
vt 0.46895796 0.9735938
vt 0.46895796 0.9735938
vt 0.46895796 0.9735938
vt 0.46895796 0.9735938
vt 0.46895793 0.9735937
vt 0.46895796 0.9735938
vt 0.46895796 0.9735938
vt 0.46895796 0.9735937
vt 0.46895796 0.9735938
vt 0.46895796 0.9735937
vt 0.46895796 0.9735938
vt 0.46895796 0.9735938
vt 0.46895796 0.9735938
vt 0.46895796 0.9735938
vt 0.46895796 0.9735938
vt 0.46895796 0.9735938
vt 0.46895796 0.97359383
vt 0.46895796 0.9735938
vt 0.46895796 0.9735938
vt 0.46895796 0.9735937
vt 0.46895796 0.9735938
vt 0.46895796 0.9735938
vt 0.46895796 0.9735938
vt 0.46895796 0.9735938
vt 0.46895796 0.9735938
vt 0.46895796 0.9735938
vt 0.46895796 0.9735938
vt 0.46895796 0.9735938
vt 0.46895796 0.9735938
vt 0.46895796 0.9735938
vt 0.46895796 0.9735938
vt 0.46895796 0.9735938
vt 0.46895796 0.9735938
vt 0.46895796 0.9735938
vt 0.46895796 0.9735938
vt 0.46895796 0.9735938
vt 0.46895796 0.9735938
vt 0.46895796 0.9735938
vt 0.46895796 0.9735938
vt 0.46895796 0.9735938
vt 0.46895796 0.9735938
vt 0.46895796 0.9735938
vt 0.46895796 0.9735938
vt 0.46895796 0.9735938
vt 0.46895796 0.9735938
vt 0.46895796 0.9735938
vt 0.46895796 0.9735938
vt 0.46895796 0.9735938
vt 0.46895796 0.9735938
vt 0.46895796 0.9735938
vt 0.46895796 0.9735938
vt 0.46895796 0.9735938
vt 0.46895796 0.9735938
vt 0.46895796 0.9735938
vt 0.46895796 0.9735938
vt 0.46895796 0.9735938
vt 0.46895796 0.9735938
vt 0.46895796 0.9735938
vt 0.46895796 0.9735938
vt 0.46895796 0.9735938
vt 0.46895796 0.9735938
vt 0.46895796 0.9735938
vt 0.46895796 0.9735938
vt 0.46895796 0.9735938
vt 0.46895796 0.9735938
vt 0.46895796 0.9735938
vt 0.46895796 0.9735938
vt 0.46895796 0.9735938
vt 0.46895796 0.9735937
vt 0.46895796 0.9735938
vt 0.46895796 0.9735938
vt 0.46895796 0.9735938
vt 0.46895796 0.9735937
vt 0.46895796 0.9735937
vt 0.46895796 0.9735937
vt 0.46895796 0.9735938
vt 0.46895793 0.9735938
vt 0.46895796 0.9735938
vt 0.46895796 0.9735938
vt 0.46895796 0.9735938
vt 0.46895796 0.9735938
vt 0.46895796 0.9735938
vt 0.46895796 0.9735938
vt 0.46895796 0.9735938
vt 0.46895796 0.9735938
vt 0.46895796 0.9735938
vt 0.46895796 0.9735938
vt 0.46895796 0.9735938
vt 0.46895796 0.9735938
vt 0.46895796 0.9735938
vt 0.46895796 0.9735938
vt 0.46895796 0.9735938
vt 0.46895796 0.9735938
vt 0.46895796 0.9735938
vt 0.33853647 0.95882905
vt 0.33853647 0.95882905
vt 0.33853647 0.958829
vt 0.33853647 0.958829
vt 0.28686005 0.9785153
vt 0.28686005 0.9785153
vt 0.28686005 0.97851527
vt 0.28686005 0.9785153
vt 0.28686005 0.9785153
vt 0.28686005 0.9785153
vt 0.28686005 0.9785154
vt 0.28686005 0.9785154
vt 0.28686005 0.9785153
vt 0.28686005 0.9785153
vt 0.28686005 0.9785154
vt 0.28686005 0.9785153
vt 0.28686005 0.9785153
vt 0.28686005 0.97851527
vt 0.28686005 0.97851527
vt 0.28686005 0.97851527
vt 0.3336149 0.96375066
vt 0.3336149 0.9637506
vt 0.3336149 0.9637506
vt 0.3336149 0.96375066
vt 0.3336149 0.96375066
vt 0.3336149 0.96375066
vt 0.2794777 0.9637506
vt 0.2794777 0.96375066
vt 0.2794777 0.96375066
vt 0.27947772 0.96375066
vt 0.2794777 0.9637506
vt 0.2794777 0.9637506
vt 0.2794777 0.9637506
vt 0.2794777 0.9637506
vt 0.2794777 0.96375066
vt 0.2794777 0.9637506
vt 0.2794777 0.96375066
vt 0.27947766 0.9637506
vt 0.27947772 0.96375066
vt 0.2794777 0.96375066
vt 0.2794777 0.9637506
vt 0.27947772 0.96375066
vt 0.2794777 0.96375066
vt 0.3336149 0.9637506
vt 0.3336149 0.96375066
vt 0.3336149 0.96375066
vt 0.3336149 0.9637506
vt 0.3336149 0.9637506
vt 0.3336149 0.9637506
vt 0.3336149 0.96375066
vt 0.3336149 0.96375066
vt 0.3336149 0.96375066
vt 0.3336149 0.96375066
vt 0.3336149 0.96375066
vt 0.3336149 0.96375066
vt 0.3336149 0.96375066
vt 0.3336149 0.96375066
vt 0.3336149 0.9637506
vt 0.3336149 0.9637506
vt 0.3336149 0.9637506
vt 0.3336149 0.9637506
vt 0.3336149 0.9637506
vt 0.3336149 0.9637506
vt 0.3336149 0.96375066
vt 0.3336149 0.96375066
vt 0.3336149 0.9637506
vt 0.3336149 0.9637506
vt 0.33361486 0.96375054
vt 0.3336149 0.9637506
vt 0.3336149 0.9637506
vt 0.33361486 0.96375054
vt 0.3336149 0.9637506
vt 0.3336149 0.9637506
vt 0.3336149 0.96375066
vt 0.3336149 0.96375066
vt 0.3336149 0.96375066
vt 0.3336149 0.96375066
vt 0.2794777 0.96375066
vt 0.2794777 0.96375066
vt 0.27947772 0.96375066
vt 0.27947772 0.96375066
vt 0.2794777 0.9637506
vt 0.2794777 0.9637506
vt 0.2794777 0.9637506
vt 0.2794777 0.9637506
vt 0.3336149 0.9637506
vt 0.3336149 0.9637506
vt 0.3336149 0.9637506
vt 0.3336149 0.9637506
vt 0.33853647 0.95882905
vt 0.33853647 0.95882905
vt 0.33853647 0.95882905
vt 0.33853647 0.95882905
vt 0.33853647 0.95882905
vt 0.33853647 0.95882905
vt 0.33853647 0.95882905
vt 0.33853647 0.95882905
vt 0.33853647 0.958829
vt 0.33853647 0.958829
vt 0.28932083 0.9637506
vt 0.28932083 0.9637506
vt 0.28932083 0.96375054
vt 0.28932083 0.9637506
vt 0.4763403 0.9612899
vt 0.4763403 0.9612899
vt 0.4763403 0.9612899
vt 0.4763403 0.9612898
vt 0.4763403 0.9612899
vt 0.15824106 0.47306463
vt 0.15824106 0.47306463
vt 0.15824106 0.47306463
vt 0.15824106 0.47306463
vt 0.15824106 0.47306463
vt 0.15824106 0.47306463
vt 0.15824106 0.47306463
vt 0.15824106 0.47306463
vt 0.15824106 0.47306463
vt 0.15824106 0.47306463
vt 0.15824106 0.47306463
vt 0.15824106 0.47306463
vt 0.15824106 0.47306463
vt 0.35576195 0.97605455
vt 0.35576195 0.97605455
vt 0.35576195 0.97605455
vt 0.35576195 0.97605455
vt 0.35576195 0.9760545
vt 0.35576195 0.9760546
vt 0.35576195 0.9760545
vt 0.35576195 0.9760546
vt 0.35576195 0.9760545
vt 0.35576195 0.9760546
vt 0.35576195 0.9760545
vt 0.35576195 0.9760546
vt 0.35576195 0.97605455
vt 0.35576195 0.97605455
vt 0.35576195 0.97605455
vt 0.35576195 0.97605455
vt 0.35576192 0.9760545
vt 0.35576195 0.9760546
vt 0.35576195 0.9760546
vt 0.35576192 0.9760545
vt 0.35576195 0.97605455
vt 0.35576195 0.9760545
vt 0.35576195 0.97605455
vt 0.35576195 0.9760545
vt 0.35576195 0.97605455
vt 0.35576195 0.97605455
vt 0.35576195 0.97605455
vt 0.35576195 0.97605455
vt 0.35576195 0.97605455
vt 0.35576195 0.9760545
vt 0.35576195 0.97605455
vt 0.35576195 0.9760545
vt 0.22222142 0.47060385
vt 0.22222142 0.47060385
vt 0.22222142 0.47060385
vt 0.22222142 0.47060385
vt 0.22222142 0.47060385
vt 0.22222142 0.47060385
vt 0.22222142 0.47060385
vt 0.22222142 0.47060385
vt 0.22222142 0.47060385
vt 0.22222142 0.47060385
vt 0.22222142 0.47060385
vt 0.22222142 0.47060385
vt 0.22222142 0.47060385
vt 0.22222142 0.47060385
vt 0.22222142 0.47060385
vt 0.22222142 0.47060385
vt 0.22222142 0.47060385
vt 0.22222142 0.47060385
vt 0.22222142 0.47060385
vt 0.22222142 0.47060385
vt 0.22222142 0.47060385
vt 0.22222142 0.47060385
vt 0.22222142 0.47060385
vt 0.22222142 0.47060385
vt 0.22222142 0.47060385
vn 0.30981475 0.94767547 0.07698195
vn -0.000965237 0.99836797 0.05710001
vn 0.24794926 0.96626294 -0.069692776
vn -0.25696236 0.96495485 -0.05322154
vn -0.14036043 0.9741145 -0.17720072
vn -0.26080173 0.9466574 0.18926755
vn -0.3012834 0.95215195 0.051332463
vn -0.21778192 -0.97384554 0.064776205
vn 0.010277645 -0.99883467 -0.047156718
vn -0.25554782 -0.9650168 -0.058634035
vn 0.2785751 -0.95948124 -0.042329434
vn 0.24184014 -0.9580768 -0.15362968
vn 0.11860907 -0.9780321 0.17142077
vn 0.22641702 -0.9715494 0.06947778
vn -0.11726299 -0.9800607 0.16040708
vn 0.005700712 -0.9776243 0.21028146
vn 0.41307035 -0.25307924 -0.87482786
vn 0.049995035 -0.27215403 -0.96095407
vn 0.0013741475 -0.24698362 -0.9690187
vn 0.74581623 0.66423863 0.05045092
vn 0.30981475 0.94767547 0.07698195
vn 0.24794926 0.96626294 -0.069692776
vn 0.6326639 0.7244811 -0.27361217
vn 0.86276394 0.31994134 -0.39150465
vn 0.9541119 0.29490712 0.051963612
vn 0.88948524 -0.07006634 -0.4515602
vn 0.9974094 -0.06613107 0.028304946
vn 0.8981061 -0.43970418 -0.008097693
vn 0.79022545 -0.4138022 -0.45200828
vn 0.6556425 -0.7548475 -0.018386131
vn 0.6021777 -0.71886975 -0.34728724
vn 0.24184014 -0.9580768 -0.15362968
vn 0.2785751 -0.95948124 -0.042329434
vn -0.6436995 -0.7148213 0.2732788
vn -0.21778192 -0.97384554 0.064776205
vn -0.25554782 -0.9650168 -0.058634035
vn -0.7059803 -0.7069333 -0.04286198
vn -0.9245824 -0.3756904 -0.06327733
vn -0.8301966 -0.39152956 0.3968352
vn -0.88799214 -0.09500498 0.44993776
vn -0.99747354 -0.06562194 -0.027208876
vn -0.96774065 0.2507113 -0.024940262
vn -0.87212026 0.22903469 0.43237638
vn -0.6659485 0.62437886 0.4082446
vn -0.76991314 0.6377991 0.021120075
vn -0.3012834 0.95215195 0.051332463
vn -0.26080173 0.9466574 0.18926755
vn -0.64606625 -0.3300595 -0.68822896
vn -0.64606625 -0.3300595 -0.68822896
vn -0.64606625 -0.3300595 -0.68822896
vn -0.64606625 -0.3300595 -0.68822896
vn 0.005700712 -0.9776243 0.21028146
vn -0.11726299 -0.9800607 0.16040708
vn -0.35963762 -0.728791 0.5826873
vn -0.010654647 -0.76146615 0.6481171
vn -0.01208696 -0.43829614 0.8987493
vn -0.49617872 -0.4287935 0.7549455
vn 0.0036422033 -0.1031694 0.9946571
vn -0.5362977 -0.116422065 0.8359609
vn -0.0057586194 0.21441825 0.9767249
vn -0.5256378 0.21745184 0.8224473
vn -0.015190671 0.5663022 0.82405776
vn -0.39554712 0.5879092 0.70562404
vn -0.14858991 0.9313128 0.33253217
vn -0.018832648 0.92407745 0.3817408
vn -0.000965237 0.99836797 0.05710001
vn 0.14097568 0.9357299 0.32331926
vn 0.27585307 0.93911475 0.20486212
vn 0.65557265 0.6304014 0.4157145
vn 0.36052474 0.60677326 0.7084124
vn 0.4844677 0.22910976 0.8442747
vn 0.8181673 0.2708029 0.50721604
vn 0.854273 -0.085767806 0.51270014
vn 0.5129188 -0.092679575 0.8534195
vn 0.43562594 -0.44115752 0.7846082
vn 0.782594 -0.44981164 0.43036738
vn 0.30446067 -0.7599572 0.57425505
vn 0.586662 -0.7550239 0.29285932
vn 0.22641702 -0.9715494 0.06947778
vn 0.11860907 -0.9780321 0.17142077
vn -0.67172456 0.694634 -0.257429
vn -0.8450614 0.2790822 -0.456053
vn -0.5359641 0.7170264 -0.44566324
vn -0.14036043 0.9741145 -0.17720072
vn -0.25696236 0.96495485 -0.05322154
vn -0.2544991 0.81426734 -0.52172697
vn -0.25158912 0.8202023 -0.5137813
vn -0.25284463 0.8160895 -0.51968014
vn -0.25429943 0.8148121 -0.52097315
vn -0.25623086 0.8194965 -0.51261216
vn -0.25652388 0.82180285 -0.5087589
vn -0.26746875 0.81791705 -0.50938404
vn -0.25380412 0.8223479 -0.5092421
vn -0.25515354 0.8250155 -0.50422823
vn -0.24890928 0.8224562 -0.5114783
vn -0.24283929 0.8227777 -0.5138735
vn -0.2399246 0.82333946 -0.5143427
vn -0.46006233 0.5976584 0.65661794
vn -0.46006233 0.5976584 0.65661794
vn -0.6116916 0.60926926 0.5046032
vn -0.62233335 0.60899156 0.49176264
vn -0.7451882 0.58965117 0.3114578
vn -0.7451882 0.58965117 0.3114578
vn 0.29657596 0.49414703 0.8172279
vn 0.29657596 0.49414703 0.8172279
vn 0.0788421 0.51944524 0.85085875
vn 0.09498527 0.518456 0.8498125
vn -0.12339237 0.5202529 0.84505105
vn -0.12339237 0.5202529 0.84505105
vn 0.83846164 0.52254456 0.1546911
vn 0.83846164 0.52254456 0.1546911
vn 0.73047644 0.5720208 0.37309042
vn 0.7600164 0.56355715 0.32369506
vn 0.62496036 0.58581734 0.515987
vn 0.62496036 0.58581734 0.515987
vn 0.5679638 0.6486478 -0.5066291
vn 0.5679638 0.6486478 -0.5066291
vn 0.63137925 0.6614774 -0.4047318
vn 0.6267519 0.6608216 -0.41291273
vn 0.29394713 0.7806557 -0.55151767
vn 0.31407297 0.7790788 -0.54258126
vn -0.088582925 0.7163506 -0.6920946
vn -0.0740418 0.7141072 -0.6961098
vn -0.42025602 0.7871616 -0.45139948
vn -0.4550864 0.7851698 -0.42000568
vn -0.7052632 0.6672304 -0.2395983
vn -0.69549763 0.6642814 -0.27388534
vn -0.62873894 0.63433707 -0.44978184
vn -0.62873894 0.63433707 -0.44978184
vn 0.24230005 0.28255346 -0.92814565
vn 0.33036554 0.34666315 -0.8778857
vn 0.2899629 0.5217143 -0.80233145
vn 0.025275776 0.4951116 -0.8684616
vn 0.25082627 0.21113095 -0.9447274
vn 0.021401087 0.1992741 -0.9797101
vn 0.27642128 0.003717082 -0.96102947
vn 0.2594122 0.122015215 -0.95802796
vn 0.32568353 -0.12830074 -0.9367332
vn 0.33022112 0.050039988 -0.9425762
vn 0.38070726 -0.003889963 -0.92468745
vn 0.019858029 0.13261564 -0.9909685
vn -0.20730226 0.21340568 -0.9547166
vn -0.21819636 0.034773685 -0.9752852
vn -0.19321127 0.27750975 -0.9410939
vn -0.22293927 0.13543662 -0.96537817
vn -0.21244085 0.5014521 -0.83869815
vn -0.23131317 0.3178205 -0.91950226
vn -0.48531625 0.43152297 -0.76043147
vn -0.2629848 0.35112515 -0.89863795
vn -0.26479554 0.257431 -0.92930764
vn -0.33009246 0.75954396 -0.5604747
vn -0.51662433 0.12297057 -0.8473356
vn -0.53640497 -0.07463877 -0.8406537
vn -0.25849894 0.021395694 -0.9657746
vn -0.8450614 0.2790822 -0.456053
vn -0.24276766 0.073354706 -0.9673071
vn -0.24042279 -0.07822406 -0.96751124
vn 0.031918086 0.802561 -0.5957157
vn -0.39772606 -0.2562691 -0.8809882
vn 0.031324938 -0.24838574 -0.96815455
vn 0.017145867 0.37788743 -0.92569274
vn 0.05408142 -0.30027315 -0.95231885
vn 0.33088326 -0.3364332 -0.8816626
vn 0.34133667 -0.34435666 -0.87459
vn 0.34133667 -0.34435666 -0.87459
vn 0.44972584 -0.33189157 -0.82921326
vn -0.6703458 -0.24671875 -0.6998331
vn 0.59219736 -0.10718907 -0.7986318
vn 0.68306994 -0.28308874 -0.67325795
vn -0.8650459 -0.062468786 -0.4977882
vn -0.77656305 -0.36946553 -0.5103381
vn -0.60869664 -0.38682184 -0.6927173
vn 0.88948524 -0.07006634 -0.4515602
vn 0.6411124 -0.4059653 -0.6512812
vn 0.79022545 -0.4138022 -0.45200828
vn 0.86276394 0.31994134 -0.39150465
vn 0.6021777 -0.71886975 -0.34728724
vn 0.59413666 0.11207852 -0.79651755
vn 0.40297347 0.30389 -0.86328626
vn 0.5559449 0.46794522 -0.68698794
vn 0.40167162 0.39736688 -0.82508147
vn 0.37779287 -0.685873 -0.6219733
vn 0.46180177 -0.47643247 -0.7481652
vn 0.013082817 -0.45828286 -0.88871014
vn 0.33036554 0.34666315 -0.8778857
vn 0.37463784 0.7843945 -0.4943398
vn 0.6326639 0.7244811 -0.27361217
vn 0.24794926 0.96626294 -0.069692776
vn 0.14075808 0.9713237 -0.1916181
vn -0.000965237 0.99836797 0.05710001
vn 0.00915407 0.97036695 -0.2414624
vn -0.14036043 0.9741145 -0.17720072
vn 0.27585307 0.93911475 0.20486212
vn 0.30981475 0.94767547 0.07698195
vn 0.74581623 0.66423863 0.05045092
vn 0.65557265 0.6304014 0.4157145
vn 0.8181673 0.2708029 0.50721604
vn 0.9541119 0.29490712 0.051963612
vn 0.9974094 -0.06613107 0.028304946
vn 0.854273 -0.085767806 0.51270014
vn 0.782594 -0.44981164 0.43036738
vn 0.8981061 -0.43970418 -0.008097693
vn 0.586662 -0.7550239 0.29285932
vn 0.6556425 -0.7548475 -0.018386131
vn 0.2785751 -0.95948124 -0.042329434
vn 0.22641702 -0.9715494 0.06947778
vn 0.010277645 -0.99883467 -0.047156718
vn -0.018832648 0.92407745 0.3817408
vn 0.14097568 0.9357299 0.32331926
vn -0.015190671 0.5663022 0.82405776
vn 0.36052474 0.60677326 0.7084124
vn -0.0057586194 0.21441825 0.9767249
vn 0.4844677 0.22910976 0.8442747
vn 0.5129188 -0.092679575 0.8534195
vn 0.0036422033 -0.1031694 0.9946571
vn -0.01208696 -0.43829614 0.8987493
vn 0.43562594 -0.44115752 0.7846082
vn -0.010654647 -0.76146615 0.6481171
vn 0.30446067 -0.7599572 0.57425505
vn 0.11860907 -0.9780321 0.17142077
vn 0.005700712 -0.9776243 0.21028146
vn -0.3012834 0.95215195 0.051332463
vn -0.25696236 0.96495485 -0.05322154
vn -0.76991314 0.6377991 0.021120075
vn -0.67172456 0.694634 -0.257429
vn -0.96774065 0.2507113 -0.024940262
vn -0.99747354 -0.06562194 -0.027208876
vn -0.9245824 -0.3756904 -0.06327733
vn -0.59943193 -0.6931045 -0.40035915
vn -0.7059803 -0.7069333 -0.04286198
vn -0.25554782 -0.9650168 -0.058634035
vn -0.3745634 -0.66831553 -0.6426947
vn -0.35796216 -0.32290548 -0.87612504
vn -0.2251998 -0.9578367 -0.17842056
vn -0.12649672 -0.9542088 -0.27107954
vn -0.18912786 -0.6829806 -0.70552695
vn -0.23875003 -0.3484351 -0.9064168
vn -0.21912399 -0.025943669 -0.97535205
vn -0.21912399 -0.025943669 -0.97535205
vn 0.010533579 -0.6714349 -0.7409887
vn -0.053949982 -0.9637757 -0.2612006
vn 0.011116564 -0.95546305 -0.29490122
vn 0.14092785 -0.95610553 -0.25690764
vn 0.24184014 -0.9580768 -0.15362968
vn -0.11726299 -0.9800607 0.16040708
vn -0.21778192 -0.97384554 0.064776205
vn -0.6436995 -0.7148213 0.2732788
vn -0.35963762 -0.728791 0.5826873
vn -0.49617872 -0.4287935 0.7549455
vn -0.8301966 -0.39152956 0.3968352
vn -0.88799214 -0.09500498 0.44993776
vn -0.5362977 -0.116422065 0.8359609
vn -0.87212026 0.22903469 0.43237638
vn -0.5256378 0.21745184 0.8224473
vn -0.39554712 0.5879092 0.70562404
vn -0.6659485 0.62437886 0.4082446
vn -0.26080173 0.9466574 0.18926755
vn -0.14858991 0.9313128 0.33253217
vn -0.6242431 -0.23300067 -0.74567515
vn -0.6242431 -0.23300067 -0.74567515
vn -0.6242431 -0.23300067 -0.74567515
vn -0.6242431 -0.23300067 -0.74567515
vn -0.1880202 0.2131789 -0.95875084
vn -0.1880202 0.2131789 -0.95875084
vn -0.1880202 0.2131789 -0.95875084
vn -0.1880202 0.2131789 -0.95875084
vn -0.1880202 0.2131789 -0.95875084
vn -0.1880202 0.2131789 -0.95875084
vn -0.1880202 0.2131789 -0.95875084
vn -0.1880202 0.2131789 -0.95875084
vn 0.24455146 0.21894504 -0.9445939
vn 0.24455146 0.21894504 -0.9445939
vn 0.24455146 0.21894504 -0.9445939
vn 0.24455146 0.21894504 -0.9445939
vn 0.24455146 0.21894504 -0.9445939
vn 0.24455146 0.21894504 -0.9445939
vn 0.24455146 0.21894504 -0.9445939
vn 0.24455146 0.21894504 -0.9445939
vn 0.37190983 -0.91352326 0.1647981
vn 0.28615254 -0.95668703 -0.053540453
vn 0.28615254 -0.95668703 -0.053540453
vn 0.27667397 -0.6133647 0.7397535
vn -0.09677343 -0.25858057 0.96112996
vn 0.4885861 -0.4722784 0.73364615
vn 0.0013741475 -0.24698362 -0.9690187
vn 0.049995035 -0.27215403 -0.96095407
vn -0.41370714 -0.24192387 -0.87767833
vn -0.36909866 -0.25478113 -0.8937856
vn 0.055638753 -0.21208578 -0.9756659
vn -0.2713381 -0.324294 -0.90620583
vn -0.40741244 -0.23624717 -0.8821578
vn -0.37518153 -0.20736328 -0.9034596
vn 0.3367707 -0.03308798 -0.94100523
vn 0.40163702 -0.21617876 -0.88991827
vn 0.41307035 -0.25307924 -0.87482786
vn 0.41307035 -0.25307924 -0.87482786
vn 0.41307035 -0.25307924 -0.87482786
vn -0.41370714 -0.24192387 -0.87767833
vn -0.40741244 -0.23624717 -0.8821578
vn -0.36909866 -0.25478113 -0.8937856
vn -0.41370714 -0.24192387 -0.87767833
vn 0.474794 0.7273952 -0.4954461
vn 0.509389 0.5801593 -0.6355612
vn 0.509389 0.5801593 -0.6355612
vn 0.38024625 0.8946172 -0.23467621
vn 0.292873 0.9552066 -0.04249441
vn 0.292873 0.9552066 -0.04249441
vn -0.26890165 -0.9590282 -0.08920055
vn -0.26890165 -0.9590282 -0.08920055
vn -0.15991485 -0.9576134 -0.23959108
vn -0.21721065 -0.96249956 -0.16252407
vn 0.021765491 -0.94444066 -0.32796037
vn 0.014560085 -0.9447253 -0.32753944
vn 0.13467619 -0.9335028 -0.33231768
vn 0.13467619 -0.9335028 -0.33231768
vn -0.27555695 0.2138557 -0.9371948
vn -0.27555695 0.2138557 -0.9371948
vn -0.27555695 0.2138557 -0.9371948
vn -0.27555695 0.2138557 -0.9371948
vn -0.13873544 0.9516342 -0.27412564
vn -0.13873544 0.9516342 -0.27412564
vn -0.095382385 0.9450263 -0.312774
vn -0.12006084 0.9491781 -0.29094052
vn 0.013420306 0.937739 -0.34708148
vn 0.017747888 0.93742025 -0.34774762
vn 0.3658481 0.772197 -0.5194871
vn 0.4740706 0.6682301 -0.5733459
vn 0.32918504 0.78519654 -0.5245033
vn 0.450204 0.679534 -0.57926667
vn -0.007369274 0.9455274 -0.32545912
vn -0.007369274 0.9455274 -0.32545912
vn 0.03528817 -0.96888876 -0.2449681
vn 0.03528817 -0.96888876 -0.2449681
vn 0.03528817 -0.96888876 -0.2449681
vn 0.03528817 -0.96888876 -0.2449681
vn 0.27667397 -0.6133647 0.7397535
vn -0.09677343 -0.25858057 0.96112996
vn -0.40339103 -0.09255574 0.91033465
vn -0.40339103 -0.09255574 0.91033465
vn -0.13181242 0.20639761 0.9695491
vn -0.22141735 0.18683162 0.9571146
vn 0.2416337 0.26688972 0.93294317
vn 0.2416337 0.26688972 0.93294317
vn -0.58457154 0.08379423 0.80700356
vn -0.58457154 0.08379423 0.80700356
vn -0.22141735 0.18683162 0.9571146
vn -0.13181242 0.20639761 0.9695491
vn 0.6267296 -0.25938606 -0.73479855
vn 0.6267296 -0.25938606 -0.73479855
vn 0.6267296 -0.25938606 -0.73479855
vn 0.6267296 -0.25938606 -0.73479855
vn 0.017145867 0.37788743 -0.92569274
vn -0.11881852 0.7906389 -0.6006432
vn -0.21819636 0.034773685 -0.9752852
vn 0.010544683 0.79684937 -0.604086
vn 0.27642128 0.003717082 -0.96102947
vn 0.13814235 0.7898546 -0.59753364
vn 0.014729951 0.12870315 -0.99157375
vn 0.014729951 0.12870315 -0.99157375
vn 0.014729951 0.12870315 -0.99157375
vn 0.014729951 0.12870315 -0.99157375
vn -0.5359641 0.7170264 -0.44566324
vn -0.33009246 0.75954396 -0.5604747
vn -0.14036043 0.9741145 -0.17720072
vn -0.8450614 0.2790822 -0.456053
vn -0.48531625 0.43152297 -0.76043147
vn 0.09038049 0.9944898 -0.05311684
vn 0.119023524 0.99289095 0.0009851595
vn 0.00715281 0.99741685 0.07147336
vn -0.023988103 0.99898833 -0.038036305
vn 0.14719543 0.9875751 0.055035546
vn -0.12792373 0.9914971 -0.023853455
vn 0.11108079 0.985235 0.13028067
vn -0.14206848 0.9898515 0.003253152
vn 0.07836106 0.9773999 0.19633883
vn -0.15622473 0.98724616 0.030637981
vn 0.034831714 0.9764414 0.21295293
vn -0.08386372 0.9879739 0.12990147
vn -0.008772191 0.9733623 0.22910412
vn 0.5086325 -0.4895708 -0.70824677
vn -0.12464342 -0.8093149 -0.57399774
vn -0.096956074 -0.8081829 -0.58089566
vn 0.4625379 -0.5416308 -0.70192224
vn -0.70718384 -0.57874066 -0.40614066
vn 0.7293746 0.124163516 -0.6727526
vn -0.72452146 -0.56140965 -0.39985996
vn 0.7294299 0.09993949 -0.6767157
vn -0.9663951 0.06999156 -0.24734955
vn 0.5167454 0.68515176 -0.51336277
vn -0.96536535 0.093811974 -0.24345227
vn 0.48766482 0.716696 -0.49852768
vn -0.6700948 0.7172117 -0.19125953
vn -0.052343905 0.9533726 -0.29722193
vn -0.6739399 0.7136453 -0.1910902
vn -0.08231027 0.9537573 -0.2890884
vn 0.1362651 -0.80097085 -0.5829901
vn -0.443921 -0.533748 -0.719755
vn -0.48001352 -0.4938271 -0.7250667
vn 0.14647262 -0.8011961 -0.5801987
vn -0.7137797 0.10951429 -0.69175506
vn 0.74473804 -0.54221165 -0.3890653
vn -0.7137756 0.13231874 -0.68776184
vn 0.7186272 -0.56927896 -0.39936993
vn -0.4738118 0.721297 -0.50520587
vn 0.9680361 0.09465449 -0.2322639
vn -0.49227268 0.70177764 -0.5149522
vn 0.96918017 0.069104604 -0.23646195
vn 0.09308201 0.95295703 -0.2884592
vn 0.69193083 0.6982222 -0.18362267
vn 0.08531142 0.9530276 -0.2906207
vn 0.6781302 0.7114502 -0.1843313
vn 0.11320396 0.40112567 0.9090012
vn -0.37591925 0.15827152 0.91303605
vn -0.3741239 0.30971524 0.8741326
vn 0.10453129 0.2113778 0.97179866
vn 0.56656235 0.36649546 0.73802996
vn -0.7656066 0.021474237 0.6429506
vn -0.77621424 0.09490159 0.6232857
vn 0.561197 0.1766787 0.8086053
vn 0.8901699 0.21373335 0.4023873
vn 0.0009288544 -0.97088504 0.23954423
vn -0.958806 -0.18093935 0.21897927
vn 0.885586 0.06115275 0.4604322
vn -0.95508707 -0.20970808 0.20935899
vn 0.99900925 -0.036693186 -0.025179857
vn -0.8796613 -0.40368453 -0.25146523
vn -0.82788634 -0.51179373 -0.22950248
vn 0.9930808 -0.117151365 0.008135843
vn 0.8431519 -0.3309468 -0.42375585
vn -0.53539014 -0.5662198 -0.62669975
vn -0.46337107 -0.69587433 -0.5486766
vn 0.8422616 -0.32474685 -0.43027318
vn 0.4691078 -0.5817867 -0.6644262
vn -0.039265815 -0.60158783 -0.797841
vn -0.00039576928 -0.7153604 -0.69875556
vn 0.46398494 -0.5067373 -0.7265916
g Pumpkin_face_0
f 3/3/3 2/2/2 1/1/1
f 2/2/2 5/5/5 4/4/4
f 2/2/2 7/7/7 6/6/6
f 10/10/10 9/9/9 8/8/8
f 9/9/9 12/12/12 11/11/11
f 9/9/9 14/14/14 13/13/13
f 9/9/9 16/16/16 15/15/15
f 19/19/19 18/18/18 17/17/17
f 22/22/22 21/21/21 20/20/20
f 23/23/23 22/22/22 20/20/20
f 23/23/23 20/20/20 24/24/24
f 20/20/20 25/25/25 24/24/24
f 24/24/24 25/25/25 26/26/26
f 25/25/25 27/27/27 26/26/26
f 26/26/26 27/27/27 28/28/28
f 29/29/29 26/26/26 28/28/28
f 29/29/29 28/28/28 30/30/30
f 31/31/31 29/29/29 30/30/30
f 31/31/31 30/30/30 32/32/32
f 30/30/30 33/33/33 32/32/32
f 36/36/36 35/35/35 34/34/34
f 37/37/37 36/36/36 34/34/34
f 37/37/37 34/34/34 38/38/38
f 34/34/34 39/39/39 38/38/38
f 39/39/39 40/40/40 38/38/38
f 40/40/40 41/41/41 38/38/38
f 42/42/42 41/41/41 40/40/40
f 43/43/43 42/42/42 40/40/40
f 42/42/42 43/43/43 44/44/44
f 45/45/45 42/42/42 44/44/44
f 45/45/45 44/44/44 46/46/46
f 44/44/44 47/47/47 46/46/46
f 50/50/50 49/49/49 48/48/48
f 51/51/51 50/50/50 48/48/48
f 54/54/54 53/53/53 52/52/52
f 55/55/55 54/54/54 52/52/52
f 55/55/55 56/56/56 54/54/54
f 56/56/56 57/57/57 54/54/54
f 56/56/56 58/58/58 57/57/57
f 58/58/58 59/59/59 57/57/57
f 59/59/59 58/58/58 60/60/60
f 61/61/61 59/59/59 60/60/60
f 61/61/61 60/60/60 62/62/62
f 63/63/63 61/61/61 62/62/62
f 63/63/63 62/62/62 64/64/64
f 62/62/62 65/65/65 64/64/64
f 66/66/66 64/64/64 65/65/65
f 68/68/68 66/66/66 67/67/67
f 69/69/69 68/68/68 67/67/67
f 70/70/70 69/69/69 67/67/67
f 70/70/70 71/71/71 69/69/69
f 71/71/71 72/72/72 69/69/69
f 72/72/72 71/71/71 73/73/73
f 71/71/71 74/74/74 73/73/73
f 73/73/73 74/74/74 75/75/75
f 76/76/76 73/73/73 75/75/75
f 76/76/76 75/75/75 77/77/77
f 78/78/78 76/76/76 77/77/77
f 78/78/78 77/77/77 79/79/79
f 77/77/77 80/80/80 79/79/79
f 83/83/83 82/82/82 81/81/81
f 83/83/83 81/81/81 84/84/84
f 81/81/81 85/85/85 84/84/84
f 88/88/88 87/87/87 86/86/86
f 86/86/86 87/87/87 89/89/89
f 89/89/89 87/87/87 90/90/90
f 90/90/90 87/87/87 91/91/91
f 92/92/92 90/90/90 91/91/91
f 87/87/87 93/93/93 91/91/91
f 94/94/94 91/91/91 93/93/93
f 93/93/93 87/87/87 95/95/95
f 95/95/95 87/87/87 96/96/96
f 97/97/97 96/96/96 87/87/87
f 100/100/100 99/99/99 98/98/98
f 101/101/101 100/100/100 98/98/98
f 102/102/102 100/100/100 101/101/101
f 103/103/103 102/102/102 101/101/101
f 106/106/106 105/105/105 104/104/104
f 107/107/107 106/106/106 104/104/104
f 108/108/108 106/106/106 107/107/107
f 109/109/109 108/108/108 107/107/107
f 112/112/112 111/111/111 110/110/110
f 113/113/113 112/112/112 110/110/110
f 114/114/114 112/112/112 113/113/113
f 115/115/115 114/114/114 113/113/113
f 118/118/118 117/117/117 116/116/116
f 119/119/119 118/118/118 116/116/116
f 120/120/120 118/118/118 119/119/119
f 121/121/121 120/120/120 119/119/119
f 122/122/122 120/120/120 121/121/121
f 123/123/123 122/122/122 121/121/121
f 124/124/124 122/122/122 123/123/123
f 125/125/125 124/124/124 123/123/123
f 126/126/126 124/124/124 125/125/125
f 127/127/127 126/126/126 125/125/125
f 128/128/128 126/126/126 127/127/127
f 129/129/129 128/128/128 127/127/127
f 132/132/132 131/131/131 130/130/130
f 130/130/130 133/133/133 132/132/132
f 130/130/130 134/134/134 133/133/133
f 134/134/134 135/135/135 133/133/133
f 136/136/136 135/135/135 134/134/134
f 136/136/136 134/134/134 137/137/137
f 138/138/138 136/136/136 137/137/137
f 137/137/137 139/139/139 138/138/138
f 138/138/138 139/139/139 140/140/140
f 136/136/136 141/141/141 135/135/135
f 142/142/142 135/135/135 141/141/141
f 141/141/141 143/143/143 142/142/142
f 135/135/135 142/142/142 144/144/144
f 133/133/133 135/135/135 144/144/144
f 143/143/143 145/145/145 142/142/142
f 144/144/144 146/146/146 133/133/133
f 144/144/144 147/147/147 146/146/146
f 148/148/148 146/146/146 147/147/147
f 147/147/147 149/149/149 148/148/148
f 149/149/149 150/150/150 148/148/148
f 133/133/133 146/146/146 151/151/151
f 146/146/146 148/148/148 151/151/151
f 150/150/150 152/152/152 148/148/148
f 153/153/153 152/152/152 150/150/150
f 153/153/153 150/150/150 154/154/154
f 155/155/155 148/148/148 152/152/152
f 155/155/155 152/152/152 153/153/153
f 153/153/153 154/154/154 156/156/156
f 157/157/157 156/156/156 145/145/145
f 143/143/143 157/157/157 145/145/145
f 156/156/156 157/157/157 153/153/153
f 151/151/151 158/158/158 133/133/133
f 132/132/132 133/133/133 158/158/158
f 159/159/159 157/157/157 143/143/143
f 159/159/159 153/153/153 157/157/157
f 159/159/159 143/143/143 160/160/160
f 143/143/143 161/161/161 160/160/160
f 160/160/160 161/161/161 136/136/136
f 160/160/160 162/162/162 159/159/159
f 162/162/162 160/160/160 136/136/136
f 163/163/163 162/162/162 136/136/136
f 136/136/136 138/138/138 163/163/163
f 164/164/164 163/163/163 138/138/138
f 165/165/165 164/164/164 138/138/138
f 166/166/166 165/165/165 138/138/138
f 153/153/153 159/159/159 167/167/167
f 138/138/138 168/168/168 166/166/166
f 169/169/169 166/166/166 168/168/168
f 168/168/168 138/138/138 140/140/140
f 167/167/167 170/170/170 153/153/153
f 153/153/153 170/170/170 155/155/155
f 167/167/167 171/171/171 170/170/170
f 167/167/167 172/172/172 171/171/171
f 168/168/168 173/173/173 169/169/169
f 174/174/174 169/169/169 173/173/173
f 173/173/173 175/175/175 174/174/174
f 176/176/176 173/173/173 168/168/168
f 174/174/174 175/175/175 177/177/177
f 140/140/140 178/178/178 168/168/168
f 168/168/168 178/178/178 176/176/176
f 140/140/140 179/179/179 178/178/178
f 180/180/180 178/178/178 179/179/179
f 178/178/178 180/180/180 176/176/176
f 179/179/179 181/181/181 180/180/180
f 177/177/177 182/182/182 174/174/174
f 182/182/182 183/183/183 174/174/174
f 184/184/184 183/183/183 182/182/182
f 181/181/181 132/132/132 180/180/180
f 181/181/181 185/185/185 132/132/132
f 158/158/158 180/180/180 132/132/132
f 176/176/176 180/180/180 186/186/186
f 158/158/158 186/186/186 180/180/180
f 187/187/187 176/176/176 186/186/186
f 187/187/187 186/186/186 188/188/188
f 186/186/186 189/189/189 188/188/188
f 186/186/186 158/158/158 189/189/189
f 189/189/189 190/190/190 188/188/188
f 158/158/158 191/191/191 189/189/189
f 190/190/190 189/189/189 191/191/191
f 158/158/158 151/151/151 191/191/191
f 151/151/151 192/192/192 191/191/191
f 190/190/190 191/191/191 192/192/192
f 194/194/194 190/190/190 193/193/193
f 195/195/195 194/194/194 193/193/193
f 196/196/196 195/195/195 193/193/193
f 196/196/196 197/197/197 195/195/195
f 197/197/197 198/198/198 195/195/195
f 198/198/198 197/197/197 199/199/199
f 197/197/197 200/200/200 199/199/199
f 199/199/199 200/200/200 201/201/201
f 202/202/202 199/199/199 201/201/201
f 202/202/202 201/201/201 203/203/203
f 204/204/204 202/202/202 203/203/203
f 204/204/204 203/203/203 205/205/205
f 203/203/203 206/206/206 205/205/205
f 207/207/207 205/205/205 206/206/206
f 209/209/209 190/190/190 208/208/208
f 209/209/209 208/208/208 210/210/210
f 211/211/211 209/209/209 210/210/210
f 210/210/210 212/212/212 211/211/211
f 212/212/212 213/213/213 211/211/211
f 213/213/213 212/212/212 214/214/214
f 212/212/212 215/215/215 214/214/214
f 214/214/214 215/215/215 216/216/216
f 217/217/217 214/214/214 216/216/216
f 217/217/217 216/216/216 218/218/218
f 219/219/219 217/217/217 218/218/218
f 219/219/219 218/218/218 220/220/220
f 218/218/218 221/221/221 220/220/220
f 207/207/207 220/220/220 221/221/221
f 190/190/190 223/223/223 222/222/222
f 224/224/224 222/222/222 223/223/223
f 225/225/225 224/224/224 223/223/223
f 225/225/225 155/155/155 224/224/224
f 155/155/155 226/226/226 224/224/224
f 226/226/226 155/155/155 227/227/227
f 155/155/155 170/170/170 227/227/227
f 227/227/227 170/170/170 171/171/171
f 228/228/228 227/227/227 171/171/171
f 228/228/228 171/171/171 229/229/229
f 230/230/230 228/228/228 229/229/229
f 229/229/229 171/171/171 172/172/172
f 230/230/230 229/229/229 231/231/231
f 232/232/232 229/229/229 172/172/172
f 172/172/172 233/233/233 232/232/232
f 229/229/229 234/234/234 231/231/231
f 229/229/229 232/232/232 234/234/234
f 207/207/207 231/231/231 234/234/234
f 232/232/232 235/235/235 234/234/234
f 207/207/207 234/234/234 235/235/235
f 232/232/232 233/233/233 236/236/236
f 232/232/232 236/236/236 235/235/235
f 233/233/233 237/237/237 236/236/236
f 233/233/233 238/238/238 237/237/237
f 238/238/238 239/239/239 237/237/237
f 236/236/236 237/237/237 240/240/240
f 237/237/237 184/184/184 240/240/240
f 240/240/240 184/184/184 182/182/182
f 236/236/236 241/241/241 235/235/235
f 236/236/236 240/240/240 241/241/241
f 235/235/235 241/241/241 242/242/242
f 240/240/240 242/242/242 241/241/241
f 240/240/240 182/182/182 242/242/242
f 207/207/207 235/235/235 242/242/242
f 182/182/182 243/243/243 242/242/242
f 207/207/207 242/242/242 243/243/243
f 182/182/182 177/177/177 243/243/243
f 177/177/177 244/244/244 243/243/243
f 207/207/207 243/243/243 244/244/244
f 246/246/246 207/207/207 245/245/245
f 247/247/247 246/246/246 245/245/245
f 248/248/248 247/247/247 245/245/245
f 248/248/248 249/249/249 247/247/247
f 249/249/249 250/250/250 247/247/247
f 250/250/250 249/249/249 251/251/251
f 249/249/249 252/252/252 251/251/251
f 253/253/253 251/251/251 252/252/252
f 254/254/254 253/253/253 252/252/252
f 253/253/253 254/254/254 255/255/255
f 256/256/256 253/253/253 255/255/255
f 256/256/256 255/255/255 257/257/257
f 255/255/255 258/258/258 257/257/257
f 190/190/190 257/257/257 258/258/258
f 261/261/261 260/260/260 259/259/259
f 262/262/262 261/261/261 259/259/259
f 265/265/265 264/264/264 263/263/263
f 263/263/263 266/266/266 265/265/265
f 263/263/263 267/267/267 266/266/266
f 267/267/267 268/268/268 266/266/266
f 267/267/267 269/269/269 268/268/268
f 269/269/269 270/270/270 268/268/268
f 273/273/273 272/272/272 271/271/271
f 271/271/271 274/274/274 273/273/273
f 274/274/274 275/275/275 273/273/273
f 274/274/274 276/276/276 275/275/275
f 276/276/276 277/277/277 275/275/275
f 276/276/276 278/278/278 277/277/277
f 281/281/281 280/280/280 279/279/279
f 280/280/280 282/282/282 279/279/279
f 282/282/282 283/283/283 279/279/279
f 283/283/283 284/284/284 279/279/279
f 287/287/287 286/286/286 285/285/285
f 285/285/285 288/288/288 287/287/287
f 288/288/288 285/285/285 289/289/289
f 290/290/290 288/288/288 289/289/289
f 291/291/291 288/288/288 290/290/290
f 292/292/292 291/291/291 290/290/290
f 289/289/289 285/285/285 293/293/293
f 285/285/285 294/294/294 293/293/293
f 294/294/294 285/285/285 295/295/295
f 295/295/295 296/296/296 294/294/294
f 285/285/285 297/297/297 295/295/295
f 300/300/300 299/299/299 298/298/298
f 299/299/299 301/301/301 298/298/298
f 304/304/304 303/303/303 302/302/302
f 303/303/303 305/305/305 302/302/302
f 302/302/302 305/305/305 306/306/306
f 305/305/305 307/307/307 306/306/306
f 310/310/310 309/309/309 308/308/308
f 311/311/311 310/310/310 308/308/308
f 312/312/312 310/310/310 311/311/311
f 313/313/313 312/312/312 311/311/311
f 314/314/314 312/312/312 313/313/313
f 315/315/315 314/314/314 313/313/313
f 318/318/318 317/317/317 316/316/316
f 319/319/319 318/318/318 316/316/316
f 322/322/322 321/321/321 320/320/320
f 323/323/323 322/322/322 320/320/320
f 324/324/324 322/322/322 323/323/323
f 325/325/325 324/324/324 323/323/323
f 326/326/326 324/324/324 325/325/325
f 327/327/327 326/326/326 325/325/325
f 327/327/327 328/328/328 326/326/326
f 328/328/328 329/329/329 326/326/326
f 330/330/330 329/329/329 328/328/328
f 331/331/331 330/330/330 328/328/328
f 334/334/334 333/333/333 332/332/332
f 335/335/335 334/334/334 332/332/332
f 338/338/338 337/337/337 336/336/336
f 339/339/339 338/338/338 336/336/336
f 342/342/342 341/341/341 340/340/340
f 343/343/343 342/342/342 340/340/340
f 346/346/346 345/345/345 344/344/344
f 347/347/347 346/346/346 344/344/344
f 350/350/350 349/349/349 348/348/348
f 351/351/351 350/350/350 348/348/348
f 354/354/354 353/353/353 352/352/352
f 353/353/353 355/355/355 352/352/352
f 352/352/352 355/355/355 356/356/356
f 355/355/355 357/357/357 356/356/356
f 360/360/360 359/359/359 358/358/358
f 361/361/361 360/360/360 358/358/358
f 364/364/364 363/363/363 362/362/362
f 362/362/362 363/363/363 365/365/365
f 363/363/363 366/366/366 365/365/365
f 369/369/369 368/368/368 367/367/367
f 370/370/370 369/369/369 367/367/367
f 371/371/371 368/368/368 369/369/369
f 370/370/370 372/372/372 369/369/369
f 373/373/373 371/371/371 369/369/369
f 372/372/372 374/374/374 369/369/369
f 373/373/373 369/369/369 375/375/375
f 369/369/369 374/374/374 376/376/376
f 369/369/369 377/377/377 375/375/375
f 378/378/378 369/369/369 376/376/376
f 379/379/379 377/377/377 369/369/369
f 378/378/378 379/379/379 369/369/369
f 382/382/382 381/381/381 380/380/380
f 381/381/381 383/383/383 380/380/380
f 384/384/384 381/381/381 382/382/382
f 380/380/380 383/383/383 385/385/385
f 386/386/386 384/384/384 382/382/382
f 383/383/383 387/387/387 385/385/385
f 388/388/388 384/384/384 386/386/386
f 385/385/385 387/387/387 389/389/389
f 390/390/390 388/388/388 386/386/386
f 387/387/387 391/391/391 389/389/389
f 392/392/392 388/388/388 390/390/390
f 389/389/389 391/391/391 393/393/393
f 394/394/394 392/392/392 390/390/390
f 391/391/391 395/395/395 393/393/393
f 395/395/395 392/392/392 394/394/394
f 393/393/393 395/395/395 394/394/394
f 398/398/398 397/397/397 396/396/396
f 397/397/397 399/399/399 396/396/396
f 400/400/400 397/397/397 398/398/398
f 396/396/396 399/399/399 401/401/401
f 402/402/402 400/400/400 398/398/398
f 399/399/399 403/403/403 401/401/401
f 404/404/404 400/400/400 402/402/402
f 401/401/401 403/403/403 405/405/405
f 406/406/406 404/404/404 402/402/402
f 403/403/403 407/407/407 405/405/405
f 408/408/408 404/404/404 406/406/406
f 405/405/405 407/407/407 409/409/409
f 410/410/410 408/408/408 406/406/406
f 407/407/407 411/411/411 409/409/409
f 411/411/411 408/408/408 410/410/410
f 409/409/409 411/411/411 410/410/410
f 414/414/414 413/413/413 412/412/412
f 413/413/413 415/415/415 412/412/412
f 412/412/412 415/415/415 416/416/416
f 417/417/417 413/413/413 414/414/414
f 418/418/418 417/417/417 414/414/414
f 415/415/415 419/419/419 416/416/416
f 416/416/416 419/419/419 420/420/420
f 413/413/413 421/421/421 415/415/415
f 417/417/417 421/421/421 413/413/413
f 415/415/415 421/421/421 419/419/419
f 422/422/422 421/421/421 417/417/417
f 422/422/422 417/417/417 418/418/418
f 419/419/419 421/421/421 423/423/423
f 419/419/419 423/423/423 420/420/420
f 424/424/424 422/422/422 418/418/418
f 420/420/420 423/423/423 425/425/425
f 426/426/426 422/422/422 424/424/424
f 426/426/426 421/421/421 422/422/422
f 427/427/427 426/426/426 424/424/424
f 423/423/423 428/428/428 425/425/425
f 423/423/423 421/421/421 428/428/428
f 425/425/425 428/428/428 429/429/429
f 430/430/430 426/426/426 427/427/427
f 430/430/430 421/421/421 426/426/426
f 431/431/431 430/430/430 427/427/427
f 428/428/428 432/432/432 429/429/429
f 428/428/428 421/421/421 432/432/432
f 429/429/429 432/432/432 433/433/433
f 434/434/434 430/430/430 431/431/431
f 434/434/434 421/421/421 430/430/430
f 435/435/435 434/434/434 431/431/431
f 433/433/433 436/436/436 435/435/435
f 432/432/432 436/436/436 433/433/433
f 432/432/432 421/421/421 436/436/436
f 436/436/436 434/434/434 435/435/435
f 436/436/436 421/421/421 434/434/434
