g Rabbit_LOD2
v 0.3086112 -0.6685488 0.46903142
v 0.30973786 -0.66474 0.60318005
v 0.32768175 -0.5763256 0.5581468
v 0.3086112 -0.6685488 0.46903142
v 0.28558272 -0.7542566 0.5635525
v 0.30973786 -0.66474 0.60318005
v 0.3086112 -0.6685488 0.46903142
v 0.26912177 -0.7967333 0.47359785
v 0.28558272 -0.7542566 0.5635525
v 0.3086112 -0.6685488 0.46903142
v 0.2721991 -0.7566321 0.38113445
v 0.26912177 -0.7967333 0.47359785
v 0.3086112 -0.6685488 0.46903142
v 0.29014292 -0.6682177 0.3361015
v 0.2721991 -0.7566321 0.38113445
v 0.3086112 -0.6685488 0.46903142
v 0.31429806 -0.57870096 0.3757288
v 0.29014292 -0.6682177 0.3361015
v 0.3086112 -0.6685488 0.46903142
v 0.330759 -0.5362241 0.46568325
v 0.31429806 -0.57870096 0.3757288
v 0.3086112 -0.6685488 0.46903142
v 0.32768175 -0.5763256 0.5581468
v 0.330759 -0.5362241 0.46568325
v -0.30861115 -0.6685488 0.46903142
v -0.3276817 -0.5763256 0.5581468
v -0.3097378 -0.66474 0.60318005
v -0.30861115 -0.6685488 0.46903142
v -0.3097378 -0.66474 0.60318005
v -0.28558266 -0.7542566 0.5635525
v -0.30861115 -0.6685488 0.46903142
v -0.28558266 -0.7542566 0.5635525
v -0.2691217 -0.7967333 0.47359785
v -0.30861115 -0.6685488 0.46903142
v -0.2691217 -0.7967333 0.47359785
v -0.27219903 -0.7566321 0.38113445
v -0.30861115 -0.6685488 0.46903142
v -0.27219903 -0.7566321 0.38113445
v -0.29014286 -0.6682177 0.3361015
v -0.30861115 -0.6685488 0.46903142
v -0.29014286 -0.6682177 0.3361015
v -0.314298 -0.57870096 0.3757288
v -0.30861115 -0.6685488 0.46903142
v -0.314298 -0.57870096 0.3757288
v -0.33075893 -0.5362241 0.46568325
v -0.30861115 -0.6685488 0.46903142
v -0.33075893 -0.5362241 0.46568325
v -0.3276817 -0.5763256 0.5581468
v 0.2247257 -0.54848725 0.7314433
v 0.22464265 -0.43681982 0.9755018
v 0.2203657 -0.47589093 0.7653536
v 0.22915035 -0.5168678 0.97878474
v 0.22066136 -0.6097834 0.77872735
v 0.22044702 -0.39030334 1.291576
v 0.22475478 -0.595545 0.9898154
v 0.22483791 -0.46858507 1.3410395
v 0.22089922 -0.5547839 1.323351
v -0.22483785 -0.46858507 1.3410395
v -0.22089916 -0.5547839 1.323351
v -0.22475472 -0.595545 0.9898154
v -0.2291503 -0.5168678 0.97878474
v -0.2206613 -0.6097834 0.77872735
v -0.22472563 -0.54848725 0.7314433
v -0.22464259 -0.43681982 0.9755018
v -0.22044696 -0.39030334 1.291576
v -0.22036564 -0.47589093 0.7653536
v 0.4567286 0.32236812 0.7603081
v 0.55109537 0.2006597 0.649891
v 0.45672858 0.1676725 0.6833887
v 0.57182604 0.3314567 0.6875005
v 0.4567286 0.49988446 0.760308
v 0.57182604 0.4907959 0.6875004
v 0.61354613 0.32265717 0.53395134
v 0.3416311 0.3314567 0.6875004
v 0.45672855 0.6545803 0.68338877
v 0.5510953 0.62159306 0.6498911
v 0.3416311 0.49079594 0.6875005
v 0.36236185 0.62159306 0.64989096
v 0.34208068 0.65912354 0.52113134
v 0.29994127 0.49960163 0.5329892
v 0.45672864 0.73452204 0.5327228
v 0.2999238 0.32263115 0.53382486
v 0.36236185 0.2006597 0.64989096
v 0.34203076 0.16309336 0.5214505
v 0.34085378 0.16465192 0.36477613
v 0.29929295 0.49973765 0.35674223
v 0.34199852 0.6592587 0.36111337
v 0.29868996 0.32267115 0.3643717
v 0.45673808 0.7346829 0.35060847
v 0.36236188 0.6208647 0.23335735
v 0.3410417 0.48820698 0.19740666
v 0.57137513 0.65913135 0.52119994
v 0.45672858 0.65135956 0.20115052
v 0.5714806 0.65937877 0.36254308
v 0.34095892 0.33280343 0.20686106
v 0.45699048 0.48382676 0.119161926
v 0.4568282 0.3197147 0.15232985
v 0.35875425 0.21180794 0.24284147
v 0.4567634 0.08883486 0.35069174
v 0.4567286 0.18055972 0.21465771
v 0.55470294 0.21241175 0.25501293
v 0.55470294 0.21241175 0.25501293
v 0.5721705 0.3342496 0.23100121
v 0.5726874 0.1647899 0.36698496
v 0.45672998 0.08760326 0.532748
v 0.34203076 0.16309336 0.5214505
v 0.5725823 0.48909587 0.21383804
v 0.57143617 0.16309611 0.52150726
v 0.614801 0.32309383 0.36918533
v 0.45672858 0.1676725 0.6833887
v 0.36236185 0.2006597 0.64989096
v 0.55109537 0.2006597 0.649891
v 0.5510953 0.6212066 0.23919584
v 0.6142443 0.50012255 0.36052692
v 0.6135179 0.49963164 0.5331369
v 0.5510953 0.62159306 0.6498911
v 0.5726874 0.1647899 0.36698496
v 0.5721705 0.3342496 0.23100121
v 0.55470294 0.21241175 0.25501293
v 0.55109537 0.2006597 0.649891
v 0.57182604 0.3314567 0.6875005
v 0.57143617 0.16309611 0.52150726
v -0.3623618 0.62159306 0.64989096
v -0.4567285 0.6545803 0.68338877
v -0.45672858 0.73452204 0.5327228
v -0.34208062 0.65912354 0.52113134
v -0.45673802 0.7346829 0.35060847
v -0.34199846 0.6592587 0.36111337
v -0.2992929 0.49973765 0.35674223
v -0.2999413 0.49960163 0.5329892
v -0.45672852 0.65135956 0.20115052
v -0.36236182 0.6208647 0.23335735
v -0.45699042 0.48382676 0.119161926
v -0.34104165 0.48820698 0.19740666
v -0.5510953 0.6212066 0.23919584
v -0.45672852 0.65135956 0.20115052
v -0.5714806 0.65937877 0.36254308
v -0.57137513 0.65913135 0.52119994
v -0.6135226 0.499644 0.53312296
v -0.5510953 0.62159306 0.6498911
v -0.57182604 0.4907959 0.6875004
v -0.6142442 0.5001225 0.36052692
v -0.5725823 0.48909587 0.21383804
v -0.6135462 0.32265714 0.53395134
v -0.5721705 0.3342496 0.23100121
v -0.61480093 0.32309383 0.36918533
v -0.5726874 0.1647899 0.36698496
v -0.55470294 0.21241175 0.25501293
v -0.45682815 0.3197147 0.15232985
v -0.57143617 0.16309611 0.52150726
v -0.5726874 0.1647899 0.36698496
v -0.57182604 0.3314567 0.6875005
v -0.34095886 0.33280343 0.20686106
v -0.34104165 0.48820698 0.19740666
v -0.3587542 0.21180794 0.24284147
v -0.45672855 0.18055972 0.21465771
v -0.29869 0.32267115 0.3643717
v -0.36236182 0.6208647 0.23335735
v -0.34199846 0.6592587 0.36111337
v -0.45672855 0.49988446 0.760308
v -0.4567285 0.6545803 0.68338877
v -0.5510953 0.62159306 0.6498911
v -0.45672855 0.32236812 0.7603081
v -0.55109537 0.2006597 0.649891
v -0.45672852 0.1676725 0.6833887
v -0.34163105 0.49079594 0.6875005
v -0.3623618 0.62159306 0.64989096
v -0.34163105 0.3314567 0.6875004
v -0.3623618 0.2006597 0.64989096
v -0.29992577 0.3226129 0.53380865
v -0.3420307 0.16309336 0.5214505
v -0.45672992 0.08760326 0.532748
v -0.55109537 0.2006597 0.649891
v -0.34085372 0.16465192 0.36477613
v -0.45676333 0.08883486 0.35069174
v -0.45672855 0.18055972 0.21465771
v -0.3587542 0.21180794 0.24284147
v -0.55470294 0.21241175 0.25501293
v -0.34163105 0.49079594 0.6875005
v -0.34208062 0.65912354 0.52113134
v -0.3623618 0.62159306 0.64989096
v -0.3420307 0.16309336 0.5214505
v -0.3623618 0.2006597 0.64989096
v -0.34163105 0.3314567 0.6875004
v 0.34085378 0.16465192 0.36477613
v 0.35875425 0.21180794 0.24284147
v 0.34095892 0.33280343 0.20686106
v 0.45672855 0.6545803 0.68338877
v 0.57137513 0.65913135 0.52119994
v 0.5510953 0.62159306 0.6498911
v 0.047637586 -0.9690948 0.41888025
v 0.052560393 -0.96689016 0.39094794
v 2.923709E-08 -0.9737204 0.38615805
v 2.923709E-08 -0.97353137 0.42311537
v -0.052560333 -0.96689016 0.39094794
v 2.923709E-08 -0.9597972 0.35273612
v -0.08243446 -0.931685 0.40132332
v 2.923709E-08 -0.9205355 0.34214625
v -0.062650904 -0.9388535 0.43581948
v -0.047637526 -0.9690948 0.41888025
v 2.923709E-08 -0.9420527 0.4500459
v 0.06265096 -0.9388535 0.43581948
v 0.08243452 -0.931685 0.40132332
v 2.923709E-08 -0.9597972 0.35273612
v 0.052560393 -0.96689016 0.39094794
v -0.046521302 0.7329853 0.4051701
v -0.05817568 0.72636956 0.3955556
v -0.020420015 0.7132619 0.34950334
v 0.001510858 0.7256736 0.36762467
v 0.046913322 0.7331471 0.4066671
v 0.024279565 0.71264726 0.34944043
v 0.001375615 0.684161 0.40064242
v -0.046521302 0.7329853 0.4051701
v -0.020420015 0.7132619 0.34950334
v 0.0019829567 0.7000291 0.33101627
v 0.061724544 0.67059517 0.31807688
v -0.04810062 0.7003246 0.42965588
v -0.05817568 0.72636956 0.3955556
v -0.063450456 0.69161105 0.41699275
v -0.027532786 0.66775537 0.37678808
v 0.04784089 0.7007882 0.43135506
v -0.06459981 0.63696396 0.3385891
v -0.058787555 0.67322236 0.31940648
v -0.04592633 0.66510093 0.30824223
v -0.047499295 0.6260364 0.3237252
v 0.0020371373 0.6501804 0.35228303
v -0.058787555 0.67322236 0.31940648
v -0.020420015 0.7132619 0.34950334
v 0.06631478 0.69063264 0.41763154
v 0.05050218 0.6245277 0.32334673
v 0.060737163 0.7255695 0.3962993
v 0.031579405 0.66693765 0.37666747
v 0.06723517 0.63402647 0.33715093
v 0.049097713 0.66342735 0.3076601
v -0.3587542 0.21180794 0.24284147
v -0.34085372 0.16465192 0.36477613
v -0.34095886 0.33280343 0.20686106
v -0.57182604 0.3314567 0.6875005
v -0.55109537 0.2006597 0.649891
v -0.57143617 0.16309611 0.52150726
v -0.4567285 0.6545803 0.68338877
v -0.5510953 0.62159306 0.6498911
v -0.57137513 0.65913135 0.52119994
v -0.55470294 0.21241175 0.25501293
v -0.45672855 0.18055972 0.21465771
v -0.5721705 0.3342496 0.23100121
v 0.36236185 0.62159306 0.64989096
v 0.3416311 0.49079594 0.6875005
v 0.34208068 0.65912354 0.52113134
v 0.34199852 0.6592587 0.36111337
v 0.3410417 0.48820698 0.19740666
v 0.36236188 0.6208647 0.23335735
v 0.36236185 0.2006597 0.64989096
v 0.3416311 0.3314567 0.6875004
v 0.45672858 0.1676725 0.6833887
v -0.16680847 -0.45751905 1.4255784
v -0.22483785 -0.46858507 1.3410395
v -0.22044696 -0.39030334 1.291576
v -0.22089916 -0.5547839 1.323351
v -0.16734666 -0.36692515 1.3252145
v -0.22464259 -0.43681982 0.9755018
v -0.1668632 -0.4112242 0.9684516
v -0.22036564 -0.47589093 0.7653536
v -0.16730267 -0.4698484 0.71810126
v -0.16676697 -0.56210506 0.6346902
v -0.22472563 -0.54848725 0.7314433
v -0.2206613 -0.6097834 0.77872735
v -0.10564299 -0.4331118 0.97281
v -0.1674107 -0.62997144 0.7357697
v -0.22475472 -0.595545 0.9898154
v -0.16693135 -0.6241995 0.9881038
v -0.16758406 -0.5676712 1.3708718
v -0.11481126 -0.6178777 0.76797765
v -0.1148071 -0.47389585 0.75269294
v -0.105850995 -0.6021129 0.9883635
v -0.10698283 -0.55115527 0.7211668
v -0.08665222 -0.5184053 0.97736037
v -0.11536865 -0.5567795 1.3361806
v -0.10704477 -0.4659305 1.3493601
v -0.114870846 -0.3844662 1.3003293
v 0.16741076 -0.62997144 0.7357697
v 0.22066136 -0.6097834 0.77872735
v 0.2247257 -0.54848725 0.7314433
v 0.22475478 -0.595545 0.9898154
v 0.16676703 -0.56210506 0.6346902
v 0.2203657 -0.47589093 0.7653536
v 0.1669314 -0.6241995 0.9881038
v 0.22089922 -0.5547839 1.323351
v 0.16758412 -0.5676712 1.3708718
v 0.22483791 -0.46858507 1.3410395
v 0.16680853 -0.45751905 1.4255784
v 0.22044702 -0.39030334 1.291576
v 0.16734672 -0.36692515 1.3252145
v 0.22464265 -0.43681982 0.9755018
v 0.16686326 -0.4112242 0.9684516
v 0.16730273 -0.4698484 0.71810126
v 0.10698289 -0.55115527 0.7211668
v 0.114870906 -0.3844662 1.3003293
v 0.10704483 -0.4659305 1.3493601
v 0.10564305 -0.4331118 0.97281
v 0.11480716 -0.47389585 0.75269294
v 0.08665228 -0.5184053 0.97736037
v 0.114811316 -0.6178777 0.76797765
v 0.105851054 -0.6021129 0.9883635
v 0.11536871 -0.5567795 1.3361806
v -0.299628 -0.66719717 0.36542213
v -0.31844342 -0.5968768 0.3963119
v -0.31384826 -0.6677597 0.46952888
v -0.28570923 -0.7364798 0.4009253
v -0.33131623 -0.5633552 0.46676123
v -0.28331175 -0.76774645 0.47295094
v -0.32889965 -0.5949948 0.5397762
v -0.29605922 -0.7345897 0.54360753
v -0.3148581 -0.6644392 0.57489187
v 0.29962805 -0.66719717 0.36542213
v 0.31384832 -0.6677597 0.46952888
v 0.31844348 -0.5968768 0.3963119
v 0.2857093 -0.7364798 0.4009253
v 0.3313163 -0.5633552 0.46676123
v 0.2833118 -0.76774645 0.47295094
v 0.3288997 -0.5949948 0.5397762
v 0.29605928 -0.7345897 0.54360753
v 0.31485817 -0.6644392 0.57489187
v -0.27453807 -0.546377 0.35526568
v -0.314298 -0.57870096 0.3757288
v -0.29014286 -0.6682177 0.3361015
v -0.24433604 -0.6583027 0.30571842
v -0.29511976 -0.49326688 0.4677386
v -0.27219903 -0.7566321 0.38113445
v -0.33075893 -0.5362241 0.46568325
v -0.22190017 -0.76885027 0.36202466
v -0.29127204 -0.54340696 0.5833488
v -0.2691217 -0.7967333 0.47359785
v -0.3276817 -0.5763256 0.5581468
v -0.2180526 -0.8189901 0.47763464
v -0.2688364 -0.65395457 0.6396554
v -0.28558266 -0.7542566 0.5635525
v -0.3097378 -0.66474 0.60318005
v -0.23863429 -0.76588005 0.5901078
v 0.27453813 -0.546377 0.35526568
v 0.29014292 -0.6682177 0.3361015
v 0.31429806 -0.57870096 0.3757288
v 0.2443361 -0.6583027 0.30571842
v 0.29511982 -0.49326688 0.4677386
v 0.2721991 -0.7566321 0.38113445
v 0.330759 -0.5362241 0.46568325
v 0.22190022 -0.76885027 0.36202466
v 0.2912721 -0.54340696 0.5833488
v 0.26912177 -0.7967333 0.47359785
v 0.32768175 -0.5763256 0.5581468
v 0.21805266 -0.8189901 0.47763464
v 0.26883647 -0.65395457 0.6396554
v 0.28558272 -0.7542566 0.5635525
v 0.30973786 -0.66474 0.60318005
v 0.23863435 -0.76588005 0.5901078
v -0.2571424 -0.2530818 0.40236035
v -0.2571424 -0.21273075 0.5262593
v -0.18557501 -0.14455242 0.5044968
v -0.32531872 -0.18972388 0.38088974
v -0.32870978 -0.14455241 0.5044968
v -0.18896613 -0.18972388 0.38088974
v -0.25714242 -0.076374084 0.4827344
v -0.25714242 -0.126366 0.35941923
v -0.19566147 -0.26515943 0.16421296
v -0.25714236 -0.31944355 0.18390718
v -0.3186233 -0.26515943 0.16421297
v -0.25714242 -0.21087523 0.14451875
v -0.2571424 -0.35235536 0.034010097
v -0.3037353 -0.31289893 0.019649142
v -0.2571424 -0.27344248 0.0052881734
v -0.21054955 -0.31289893 0.019649142
v -0.2571424 -0.31991076 1.7869741E-05
v 0.18557507 -0.14455242 0.5044968
v 0.25714245 -0.21273075 0.5262593
v 0.25714245 -0.2530818 0.40236035
v 0.18896618 -0.18972388 0.38088974
v 0.19566153 -0.26515943 0.16421296
v 0.25714248 -0.076374084 0.4827344
v 0.25714248 -0.126366 0.35941923
v 0.32870984 -0.14455241 0.5044968
v 0.32531878 -0.18972388 0.38088974
v 0.25714242 -0.31944355 0.18390718
v 0.31862336 -0.26515943 0.16421297
v 0.25714248 -0.21087523 0.14451875
v 0.25714245 -0.27344248 0.0052881734
v 0.30373535 -0.31289893 0.019649142
v 0.25714245 -0.35235536 0.034010097
v 0.21054961 -0.31289893 0.019649142
v 0.25714245 -0.31991076 1.7869741E-05
v 0.08298703 0.7957962 0.42221442
v 0.07496868 0.87004715 0.42723888
v 2.923709E-08 0.87425244 0.4122795
v 0.08855677 0.89894474 0.50219357
v 2.923709E-08 0.7909247 0.39484543
v 2.923709E-08 0.71760887 0.42258814
v -0.08298697 0.7957962 0.42221442
v 0.11255064 0.8124668 0.51334184
v 0.07164725 0.7277464 0.43826804
v 0.087384775 0.7322845 0.52202433
v -0.07164719 0.7277464 0.43826804
v 2.923709E-08 0.71169406 0.5243531
v -0.087384716 0.7322845 0.52202433
v 0.08495901 0.83022 0.6107905
v 0.075791374 0.9015975 0.58542097
v 0.0732544 0.7565182 0.606574
v 2.923709E-08 0.83517545 0.6439541
v 2.923709E-08 0.9122678 0.60072184
v 2.923709E-08 0.7505833 0.6250148
v -0.07325434 0.7565182 0.606574
v -0.08495895 0.83022 0.6107905
v -0.11255058 0.8124668 0.51334184
v 2.923709E-08 0.92099327 0.49951947
v -0.07496862 0.87004715 0.42723888
v -0.08855671 0.89894474 0.50219357
v -0.075791314 0.9015975 0.58542097
v -0.32024354 0.5845061 0.8521745
v -0.12452448 0.75914663 0.652528
v -0.11755704 0.7129149 0.88411945
v -0.10799235 0.5965778 1.065216
v 0.1175571 0.7129149 0.88411945
v -0.33910787 0.60862887 0.652957
v -0.2798118 0.53212 1.0005287
v -0.40506065 0.39634302 0.87603265
v -0.43779996 0.40884072 0.6543668
v -0.32171497 0.3772433 1.0520159
v -0.4344504 0.17445537 0.8914449
v -0.12218896 0.40335694 1.176739
v 0.10799241 0.5965778 1.065216
v -0.34050447 0.17445536 1.0753709
v -0.32024357 0.58417636 0.46065706
v -0.40506065 0.39565718 0.44605827
v -0.4344504 0.17355376 0.43625638
v -0.47364467 0.17433505 0.6552583
v -0.32171506 0.3752995 0.30278227
v -0.43780002 -0.060102075 0.65436673
v -0.40506068 -0.047432296 0.87603253
v -0.40506068 -0.048118126 0.4460582
v -0.32171506 -0.028332615 1.052016
v -0.13092355 0.17445534 1.2175872
v -0.3202436 -0.2355953 0.85217446
v -0.32171506 -0.030276373 0.3027822
v -0.32024357 -0.23592503 0.4606569
v -0.3405045 0.1720049 0.29260066
v -0.3391078 -0.2597816 0.6529569
v 0.13092361 0.17445534 1.2175872
v -0.12218898 -0.054446287 1.176739
v -0.2798118 -0.18320921 1.0005287
v -0.107992284 -0.24766694 1.065216
v -0.117556885 -0.3640033 0.88411963
v 0.12218905 0.40335694 1.176739
v -0.11756981 -0.36412567 0.42591426
v -0.124522984 -0.41026506 0.6525368
v 0.11756987 -0.36412567 0.42591426
v -0.27981183 -0.18430157 0.33213118
v 0.12452304 -0.41026506 0.6525368
v 0.117556944 -0.3640033 0.88411963
v -0.10790265 -0.24798678 0.26957265
v -0.121652916 -0.05595345 0.20322025
v -0.13005273 0.17062408 0.18788072
v 0.12165295 -0.05595345 0.20322025
v 0.10799234 -0.24766694 1.065216
v 0.12218905 -0.054446287 1.176739
v 0.27981186 -0.18320921 1.0005287
v 0.32171512 -0.028332615 1.052016
v 0.32024366 -0.2355953 0.85217446
v 0.34050453 0.17445536 1.0753709
v 0.33910787 -0.2597816 0.6529569
v 0.40506074 -0.047432296 0.87603253
v 0.32171503 0.3772433 1.0520159
v 0.43445045 0.17445537 0.8914449
v 0.43780008 -0.060102075 0.65436673
v 0.32024363 -0.23592503 0.4606569
v 0.47364473 0.17433505 0.6552583
v 0.40506074 -0.048118126 0.4460582
v 0.2798119 -0.18430157 0.33213118
v 0.10790271 -0.24798678 0.26957265
v 0.32171512 -0.030276373 0.3027822
v 0.13005279 0.17062408 0.18788072
v 0.34050456 0.1720049 0.29260066
v 0.43445045 0.17355376 0.43625638
v 0.43780002 0.40884072 0.6543668
v 0.12164389 0.39908272 0.2032367
v 0.32171512 0.3752995 0.30278227
v 0.4050607 0.39634302 0.87603265
v 0.4050607 0.39565718 0.44605827
v -0.121643834 0.39908278 0.20323676
v -0.2798118 0.53102773 0.33213124
v -0.107898474 0.5944885 0.2695612
v 0.10789853 0.5944885 0.2695612
v -0.117571846 0.71255565 0.42588082
v 0.117571905 0.71255565 0.42588082
v 0.27981186 0.53102773 0.33213124
v 0.12452454 0.75914663 0.652528
v 0.32024363 0.58417636 0.46065706
v 0.33910793 0.60862887 0.652957
v 0.3202436 0.5845061 0.8521745
v 0.27981186 0.53212 1.0005287
v 0.070303276 -0.27432135 0.7914579
v 0.21687075 -0.4556179 0.78600514
v 0.082796 -0.44228908 0.8661696
v -0.082795925 -0.44228908 0.8661695
v 0.082365796 -0.634857 0.8489134
v 0.18230475 -0.3158938 0.751088
v 0.079681635 -0.18541785 0.6300808
v -0.07030322 -0.27432135 0.7914579
v 0.2159105 -0.2752453 0.61591274
v -0.08236574 -0.634857 0.8489134
v -0.2168707 -0.4556179 0.78600514
v 0.28731892 -0.4466106 0.62786335
v 0.21619353 -0.27527043 0.44796807
v 0.21650545 -0.62681425 0.7736941
v 0.2871378 -0.64373237 0.6200301
v 0.28733703 -0.6510811 0.43270272
v 0.2157397 -0.82003665 0.59287655
v 0.18230473 -0.7674732 0.72241116
v 0.070116796 -0.80539465 0.75550425
v 0.07949727 -0.91122603 0.5997861
v 0.28733245 -0.44847456 0.4384599
v -0.070116736 -0.80539465 0.75550425
v 0.21646285 -0.8352958 0.43004155
v 0.08058106 -0.93459177 0.408599
v -0.079610996 -0.9112379 0.5997029
v 0.18230475 -0.8014803 0.30876863
v 0.21592578 -0.46273085 0.30068788
v 0.21600324 -0.64715046 0.2939164
v 0.07043125 -0.84871143 0.2647182
v 0.081962034 -0.66233164 0.22528528
v 0.18230473 -0.31733108 0.32570887
v -0.07043119 -0.84871143 0.2647182
v 0.081823274 -0.4540302 0.23428607
v -0.0818232 -0.4540302 0.23428604
v 0.07026516 -0.2767799 0.28576502
v -0.08039434 -0.9345427 0.40852046
v -0.21646279 -0.8352958 0.43004155
v -0.08196198 -0.66233164 0.22528529
v -0.1823047 -0.8014803 0.30876863
v -0.21600318 -0.64715046 0.2939164
v -0.21573964 -0.82003665 0.59287655
v 0.07998578 -0.18512498 0.4323642
v -0.07984729 -0.18515922 0.43229157
v -0.0702651 -0.2767799 0.28576502
v -0.18230467 -0.31733108 0.32570887
v -0.21592572 -0.46273085 0.30068788
v -0.28733242 -0.44847453 0.43845987
v -0.28733703 -0.6510812 0.43270272
v -0.18230467 -0.7674732 0.72241116
v -0.2165054 -0.62681425 0.7736941
v -0.28713775 -0.64373237 0.6200301
v -0.2873188 -0.4466106 0.6278632
v -0.21619347 -0.27527043 0.44796807
v -0.21591043 -0.2752453 0.61591274
v -0.1823047 -0.3158938 0.751088
v -0.07968159 -0.18541785 0.6300808
v -0.35935158 -0.041541833 0.023250155
v -0.4065101 -0.04845651 0.011427514
v -0.4065101 -0.057122763 0.06587188
v -0.34661323 -0.028102469 0.06653566
v -0.34442538 0.3595042 0.024232602
v -0.35935155 -0.009688156 0.11007995
v -0.3187092 0.36079565 0.08668713
v -0.40651006 0.3589693 -0.0016369465
v -0.3410255 0.43941674 0.029367106
v -0.34442538 0.3620871 0.14914167
v -0.40651006 -0.0077484427 0.12164379
v -0.33010486 0.45664796 0.09165369
v -0.4536687 -0.009688156 0.11007994
v -0.4065101 0.36262196 0.17501116
v -0.4664068 -0.028102469 0.066535644
v -0.34649363 0.45129597 0.15283138
v -0.4685947 0.3620871 0.14914171
v -0.40651 0.4535752 0.16976953
v -0.40651006 0.46271297 0.09196802
v -0.4065101 0.44257796 0.010689081
v -0.48291522 0.45664787 0.09165371
v -0.46652657 0.45129597 0.1528314
v -0.49431106 0.36079565 0.08668713
v -0.4536687 -0.041541833 0.023250155
v -0.46859467 0.3595042 0.02423255
v -0.47199467 0.43941674 0.029367061
v 0.35935163 -0.041541833 0.023250155
v 0.40651017 -0.04845651 0.011427514
v 0.4065101 0.3589693 -0.0016369465
v 0.34442544 0.3595042 0.024232602
v 0.3466133 -0.028102469 0.06653566
v 0.34102556 0.43941674 0.029367106
v 0.31870925 0.36079565 0.08668713
v 0.40651017 -0.057122763 0.06587188
v 0.3593516 -0.009688156 0.11007995
v 0.34442544 0.3620871 0.14914167
v 0.33010492 0.45664796 0.09165369
v 0.4065101 -0.0077484427 0.12164379
v 0.4065101 0.46271297 0.09196802
v 0.3464937 0.45129597 0.15283138
v 0.40651017 0.36262196 0.17501116
v 0.45366877 -0.009688156 0.11007994
v 0.40651006 0.4535752 0.16976953
v 0.46640685 -0.028102469 0.066535644
v 0.46859476 0.3620871 0.14914171
v 0.40651017 0.44257796 0.010689081
v 0.47199473 0.43941674 0.029367061
v 0.46859473 0.3595042 0.02423255
v 0.48291528 0.45664787 0.09165371
v 0.46652663 0.45129597 0.1528314
v 0.49431112 0.36079565 0.08668713
v 0.45366877 -0.041541833 0.023250155
vt 0.53244805 0.022547841
vt 0.5324482 0.022547841
vt 0.5324482 0.022547811
vt 0.532448 0.022547811
vt 0.5324482 0.022547811
vt 0.5324482 0.022547841
vt 0.532448 0.022547811
vt 0.5324482 0.022547841
vt 0.5324482 0.022547811
vt 0.53244793 0.022547781
vt 0.5324482 0.022547811
vt 0.5324482 0.022547841
vt 0.53244793 0.022547781
vt 0.5324482 0.022547841
vt 0.5324482 0.022547811
vt 0.53244793 0.022547781
vt 0.5324482 0.022547811
vt 0.5324482 0.022547841
vt 0.5324479 0.022547752
vt 0.5324481 0.022547841
vt 0.5324482 0.022547811
vt 0.53244805 0.022547841
vt 0.5324482 0.022547811
vt 0.5324481 0.022547841
vt 0.53244805 0.022547841
vt 0.5324482 0.022547811
vt 0.5324482 0.022547841
vt 0.532448 0.022547811
vt 0.5324482 0.022547841
vt 0.5324482 0.022547811
vt 0.532448 0.022547811
vt 0.5324482 0.022547811
vt 0.5324482 0.022547841
vt 0.53244793 0.022547781
vt 0.5324482 0.022547841
vt 0.5324482 0.022547811
vt 0.53244793 0.022547781
vt 0.5324482 0.022547811
vt 0.5324482 0.022547841
vt 0.53244793 0.022547781
vt 0.5324482 0.022547841
vt 0.5324482 0.022547811
vt 0.5324479 0.022547752
vt 0.5324482 0.022547811
vt 0.5324481 0.022547841
vt 0.53244805 0.022547841
vt 0.5324481 0.022547841
vt 0.5324482 0.022547811
vt 0.2888723 0.2790227
vt 0.2888723 0.2790227
vt 0.28887224 0.2790227
vt 0.28887218 0.27902257
vt 0.28887224 0.2790227
vt 0.28887224 0.2790227
vt 0.2888723 0.2790227
vt 0.2888723 0.2790227
vt 0.28887224 0.2790227
vt 0.2888723 0.2790227
vt 0.28887224 0.2790227
vt 0.2888723 0.2790227
vt 0.28887218 0.27902257
vt 0.28887224 0.2790227
vt 0.2888723 0.2790227
vt 0.2888723 0.2790227
vt 0.28887224 0.2790227
vt 0.28887224 0.2790227
vt 0.29064843 0.27619338
vt 0.29064846 0.27619344
vt 0.29064843 0.27619338
vt 0.29064843 0.27619338
vt 0.2906484 0.27619338
vt 0.2906484 0.27619338
vt 0.2906484 0.27619338
vt 0.2906484 0.27619338
vt 0.29064843 0.27619338
vt 0.29064846 0.27619344
vt 0.29064843 0.27619338
vt 0.29064846 0.2761935
vt 0.2906484 0.27619338
vt 0.2906484 0.27619338
vt 0.2906484 0.27619338
vt 0.2906484 0.27619338
vt 0.29064846 0.2761935
vt 0.29064843 0.27619338
vt 0.2906484 0.27619338
vt 0.2906484 0.27619338
vt 0.29064843 0.27619338
vt 0.29064843 0.27619338
vt 0.29064843 0.27619338
vt 0.29064846 0.27619344
vt 0.2906484 0.27619338
vt 0.2906484 0.27619338
vt 0.29064843 0.27619338
vt 0.29064843 0.27619338
vt 0.29064843 0.27619338
vt 0.2906484 0.27619338
vt 0.29064843 0.27619338
vt 0.29064846 0.27619344
vt 0.29064843 0.27619338
vt 0.29064843 0.27619338
vt 0.2906484 0.2761935
vt 0.29064843 0.27619344
vt 0.2906484 0.27619338
vt 0.29064843 0.27619338
vt 0.2906484 0.27619338
vt 0.29064843 0.27619338
vt 0.29064843 0.27619338
vt 0.2906484 0.27619338
vt 0.2906484 0.27619338
vt 0.29064843 0.27619338
vt 0.29064843 0.2761935
vt 0.29064846 0.2761935
vt 0.29064846 0.2761935
vt 0.29064843 0.27619338
vt 0.2906484 0.27619338
vt 0.29064846 0.2761935
vt 0.29064843 0.27619338
vt 0.2906484 0.27619338
vt 0.29064843 0.27619344
vt 0.29064843 0.2761935
vt 0.29064843 0.27619338
vt 0.2906484 0.27619338
vt 0.29064843 0.2761935
vt 0.29064843 0.27619338
vt 0.2906484 0.27619338
vt 0.2906484 0.27619338
vt 0.29064843 0.27619338
vt 0.29064843 0.27619338
vt 0.2906484 0.27619338
vt 0.2906484 0.27619338
vt 0.29064843 0.27619338
vt 0.29064846 0.27619344
vt 0.2906484 0.27619338
vt 0.2906484 0.27619338
vt 0.2906484 0.2761935
vt 0.29064843 0.27619338
vt 0.29064843 0.27619338
vt 0.2906484 0.27619338
vt 0.2906484 0.27619338
vt 0.29064843 0.2761935
vt 0.2906484 0.27619338
vt 0.2906484 0.27619338
vt 0.29064843 0.27619338
vt 0.2906484 0.27619338
vt 0.2906484 0.27619338
vt 0.2906484 0.27619338
vt 0.29064843 0.27619338
vt 0.29064846 0.2761935
vt 0.29064843 0.27619338
vt 0.2906484 0.27619338
vt 0.29064843 0.27619338
vt 0.29064843 0.27619338
vt 0.29064843 0.27619338
vt 0.2906484 0.27619338
vt 0.29064846 0.2761935
vt 0.29064843 0.27619338
vt 0.2906484 0.27619338
vt 0.29064846 0.2761935
vt 0.29064843 0.27619338
vt 0.2906484 0.27619338
vt 0.29064843 0.27619338
vt 0.29064846 0.27619344
vt 0.29064843 0.27619338
vt 0.29064846 0.2761935
vt 0.29064843 0.27619338
vt 0.29064843 0.27619338
vt 0.2906484 0.2761935
vt 0.2906484 0.27619338
vt 0.29064846 0.2761935
vt 0.2906484 0.27619338
vt 0.29064843 0.27619338
vt 0.2906484 0.27619338
vt 0.29064843 0.2761935
vt 0.2906484 0.27619338
vt 0.29064843 0.27619338
vt 0.29064843 0.27619338
vt 0.29064846 0.27619344
vt 0.29064846 0.27619344
vt 0.29064843 0.27619338
vt 0.2906484 0.27619338
vt 0.29064846 0.2761935
vt 0.29064843 0.27619338
vt 0.29064843 0.2761935
vt 0.2906484 0.27619338
vt 0.2906484 0.27619338
vt 0.29064846 0.27619344
vt 0.29064843 0.27619338
vt 0.29064843 0.27619338
vt 0.2906484 0.27619338
vt 0.29064843 0.2761935
vt 0.2685433 0.2854373
vt 0.26854318 0.28543717
vt 0.26854318 0.28543717
vt 0.26854318 0.28543717
vt 0.2685433 0.28543717
vt 0.2685433 0.28543717
vt 0.2685433 0.2854373
vt 0.2685433 0.2854373
vt 0.2685433 0.2854373
vt 0.2685433 0.2854373
vt 0.2685433 0.2854373
vt 0.2685433 0.2854373
vt 0.2685433 0.2854373
vt 0.2685433 0.28543717
vt 0.26854318 0.28543717
vt 0.29585752 0.30272406
vt 0.29585758 0.30272406
vt 0.29585752 0.30272394
vt 0.29585752 0.30272394
vt 0.29585752 0.30272406
vt 0.29585752 0.30272394
vt 0.29585752 0.30272406
vt 0.29585752 0.30272406
vt 0.29585752 0.302724
vt 0.29585752 0.302724
vt 0.29585752 0.30272406
vt 0.29585752 0.30272406
vt 0.29585752 0.30272406
vt 0.29585752 0.30272406
vt 0.29585752 0.30272406
vt 0.29585752 0.30272406
vt 0.29585752 0.30272406
vt 0.29585752 0.30272406
vt 0.29585752 0.30272406
vt 0.29585752 0.30272406
vt 0.29585752 0.30272406
vt 0.29585758 0.30272406
vt 0.29585752 0.302724
vt 0.29585752 0.30272406
vt 0.29585752 0.30272406
vt 0.29585752 0.30272406
vt 0.29585752 0.30272406
vt 0.29585752 0.30272406
vt 0.29585752 0.30272406
vt 0.29064846 0.27619344
vt 0.2906484 0.27619338
vt 0.29064843 0.27619338
vt 0.29064843 0.27619338
vt 0.29064846 0.2761935
vt 0.2906484 0.27619338
vt 0.29064843 0.27619338
vt 0.29064846 0.2761935
vt 0.2906484 0.27619338
vt 0.29064846 0.2761935
vt 0.29064843 0.27619338
vt 0.2906484 0.27619338
vt 0.29064843 0.2761935
vt 0.29064843 0.27619338
vt 0.2906484 0.27619338
vt 0.29064843 0.27619338
vt 0.2906484 0.27619338
vt 0.29064846 0.27619344
vt 0.2906484 0.2761935
vt 0.2906484 0.27619338
vt 0.29064843 0.27619338
vt 0.09950513 0.85066974
vt 0.09950513 0.8506698
vt 0.09950513 0.8506698
vt 0.09950513 0.8506698
vt 0.09950513 0.85066974
vt 0.09950513 0.8506698
vt 0.09950513 0.85066974
vt 0.09950513 0.8506698
vt 0.09950513 0.85066974
vt 0.09950513 0.85066974
vt 0.09950513 0.8506698
vt 0.09950513 0.8506698
vt 0.09950513 0.85066974
vt 0.09950513 0.85066974
vt 0.09950513 0.8506698
vt 0.09950513 0.85066974
vt 0.09950513 0.85066974
vt 0.09950513 0.8506698
vt 0.09950513 0.85066974
vt 0.09950513 0.85066974
vt 0.09950513 0.85066974
vt 0.09950513 0.85066974
vt 0.09950513 0.85066974
vt 0.09950513 0.85066974
vt 0.09950513 0.8506698
vt 0.09950513 0.85066974
vt 0.09950513 0.8506698
vt 0.09950513 0.8506698
vt 0.09950513 0.8506698
vt 0.09950513 0.85066974
vt 0.09950513 0.8506698
vt 0.09950513 0.85066974
vt 0.09950513 0.8506698
vt 0.09950513 0.85066974
vt 0.09950513 0.8506698
vt 0.09950513 0.85066974
vt 0.09950513 0.8506698
vt 0.09950513 0.85066974
vt 0.09950513 0.8506698
vt 0.09950513 0.85066974
vt 0.09950513 0.85066974
vt 0.09950513 0.85066974
vt 0.09950513 0.8506698
vt 0.09950513 0.85066974
vt 0.09950513 0.85066974
vt 0.09950513 0.8506698
vt 0.09950513 0.85066974
vt 0.09950513 0.8506698
vt 0.09950513 0.85066974
vt 0.09950513 0.85066974
vt 0.48282662 0.07511759
vt 0.48282662 0.07511759
vt 0.48282662 0.07511762
vt 0.48282662 0.07511759
vt 0.48282662 0.07511759
vt 0.48282662 0.07511759
vt 0.48282662 0.07511759
vt 0.48282662 0.07511759
vt 0.48282662 0.07511759
vt 0.48282662 0.07511759
vt 0.48282662 0.07511762
vt 0.48282662 0.07511759
vt 0.48282662 0.07511759
vt 0.48282662 0.07511759
vt 0.48282662 0.07511759
vt 0.48282662 0.07511759
vt 0.48282662 0.07511759
vt 0.48282662 0.07511759
vt 0.5324482 0.022547811
vt 0.5324482 0.022547811
vt 0.5324482 0.022547781
vt 0.5324482 0.022547811
vt 0.5324482 0.022547811
vt 0.5324482 0.022547811
vt 0.5324482 0.022547781
vt 0.5324482 0.022547811
vt 0.5324482 0.022547811
vt 0.5324482 0.022547781
vt 0.5324482 0.022547811
vt 0.5324482 0.022547811
vt 0.5324482 0.022547811
vt 0.5324482 0.022547811
vt 0.5324482 0.022547781
vt 0.5324482 0.022547811
vt 0.5324482 0.022547811
vt 0.5324482 0.022547781
vt 0.5324482 0.022547811
vt 0.5324482 0.022547811
vt 0.5324482 0.022547811
vt 0.5324482 0.022547811
vt 0.5324482 0.022547781
vt 0.5324482 0.022547811
vt 0.5324482 0.022547811
vt 0.5324482 0.022547781
vt 0.5324482 0.022547811
vt 0.5324482 0.022547811
vt 0.5324482 0.022547811
vt 0.5324482 0.022547811
vt 0.5324482 0.022547781
vt 0.5324482 0.022547811
vt 0.09950513 0.8506698
vt 0.09950513 0.8506698
vt 0.09950513 0.8506698
vt 0.09950513 0.8506698
vt 0.09950513 0.8506698
vt 0.09950513 0.8506698
vt 0.09950513 0.8506698
vt 0.09950513 0.8506698
vt 0.09950513 0.85066974
vt 0.09950513 0.85066974
vt 0.09950513 0.85066974
vt 0.09950513 0.85066974
vt 0.09950513 0.85066974
vt 0.09950513 0.85066974
vt 0.09950513 0.85066974
vt 0.09950513 0.8506698
vt 0.09950513 0.8506698
vt 0.09950513 0.8506698
vt 0.09950513 0.8506698
vt 0.09950513 0.8506698
vt 0.09950513 0.8506698
vt 0.09950513 0.85066974
vt 0.09950513 0.8506698
vt 0.09950513 0.8506698
vt 0.09950513 0.8506698
vt 0.09950513 0.8506698
vt 0.09950513 0.85066974
vt 0.09950513 0.85066974
vt 0.09950513 0.85066974
vt 0.09950513 0.85066974
vt 0.09950513 0.85066974
vt 0.09950513 0.85066974
vt 0.09950513 0.85066974
vt 0.09950513 0.85066974
vt 0.08086902 0.8367312
vt 0.08086902 0.8367312
vt 0.08086902 0.8367312
vt 0.08086902 0.8367312
vt 0.08086902 0.8367312
vt 0.08086902 0.8367312
vt 0.08086902 0.8367312
vt 0.08086902 0.8367312
vt 0.08086902 0.8367312
vt 0.08086902 0.8367312
vt 0.08086902 0.8367312
vt 0.08086902 0.8367312
vt 0.08086902 0.8367312
vt 0.08086902 0.8367312
vt 0.08086902 0.8367312
vt 0.08086902 0.8367312
vt 0.08086902 0.8367312
vt 0.08086902 0.8367312
vt 0.08086902 0.8367312
vt 0.08086902 0.8367312
vt 0.08086902 0.8367312
vt 0.08086902 0.8367312
vt 0.08086902 0.8367312
vt 0.08086902 0.83673126
vt 0.08086902 0.8367312
vt 0.08086902 0.8367312
vt 0.33981237 0.2816704
vt 0.33981237 0.2816704
vt 0.33981237 0.2816704
vt 0.33981237 0.2816704
vt 0.33981237 0.2816704
vt 0.33981237 0.2816704
vt 0.33981237 0.28167045
vt 0.33981237 0.2816704
vt 0.33981237 0.2816704
vt 0.33981237 0.2816704
vt 0.33981237 0.2816704
vt 0.33981237 0.2816704
vt 0.33981237 0.2816704
vt 0.33981237 0.2816704
vt 0.33981237 0.2816704
vt 0.33981237 0.2816704
vt 0.33981237 0.2816704
vt 0.33981237 0.2816704
vt 0.33981237 0.2816704
vt 0.33981237 0.2816704
vt 0.33981237 0.2816704
vt 0.33981237 0.2816704
vt 0.33981237 0.2816704
vt 0.33981237 0.2816704
vt 0.33981237 0.2816704
vt 0.33981237 0.2816704
vt 0.33981237 0.2816704
vt 0.33981237 0.2816704
vt 0.33981237 0.2816704
vt 0.33981237 0.2816704
vt 0.33981237 0.2816704
vt 0.33981237 0.2816705
vt 0.33981237 0.2816704
vt 0.33981237 0.2816704
vt 0.33981237 0.2816704
vt 0.33981237 0.2816704
vt 0.33981237 0.2816704
vt 0.33981237 0.2816704
vt 0.33981237 0.28167045
vt 0.33981237 0.2816704
vt 0.33981237 0.2816704
vt 0.33981237 0.2816704
vt 0.33981237 0.2816704
vt 0.33981237 0.2816704
vt 0.33981237 0.2816704
vt 0.33981237 0.2816704
vt 0.33981237 0.2816704
vt 0.33981237 0.28167045
vt 0.33981237 0.2816704
vt 0.33981237 0.2816704
vt 0.33981237 0.2816704
vt 0.33981237 0.2816704
vt 0.33981237 0.2816704
vt 0.33981237 0.2816704
vt 0.33981237 0.2816704
vt 0.33981237 0.2816704
vt 0.33981237 0.2816704
vt 0.33981237 0.2816704
vt 0.33981237 0.2816704
vt 0.33981237 0.28167045
vt 0.33981237 0.2816704
vt 0.33981237 0.2816704
vt 0.33981237 0.2816704
vt 0.33981237 0.2816704
vt 0.33981237 0.2816704
vt 0.33981237 0.2816704
vt 0.33981237 0.2816704
vt 0.33981237 0.2816704
vt 0.33981237 0.2816704
vt 0.33981237 0.2816704
vt 0.33981237 0.2816704
vt 0.33981237 0.28167045
vt 0.33981237 0.2816704
vt 0.33981237 0.2816704
vt 0.33981237 0.2816704
vt 0.33981237 0.2816704
vt 0.33981237 0.2816704
vt 0.33981237 0.2816704
vt 0.33981237 0.2816704
vt 0.33981237 0.2816704
vt 0.33981237 0.2816704
vt 0.33981237 0.28167045
vt 0.35672563 0.28198457
vt 0.35672563 0.28198457
vt 0.35672563 0.28198457
vt 0.35672563 0.28198457
vt 0.35672563 0.28198457
vt 0.35672563 0.28198463
vt 0.35672563 0.28198457
vt 0.35672563 0.28198457
vt 0.35672563 0.28198457
vt 0.35672563 0.28198457
vt 0.35672563 0.28198457
vt 0.35672563 0.28198457
vt 0.35672563 0.28198457
vt 0.35672563 0.28198457
vt 0.35672563 0.28198457
vt 0.35672563 0.28198457
vt 0.35672563 0.28198457
vt 0.35672563 0.28198457
vt 0.35672563 0.28198457
vt 0.35672563 0.28198457
vt 0.35672563 0.28198457
vt 0.35672563 0.28198457
vt 0.35672563 0.28198457
vt 0.35672563 0.28198457
vt 0.35672563 0.28198457
vt 0.3567255 0.28198463
vt 0.35672563 0.28198457
vt 0.35672563 0.28198457
vt 0.35672563 0.28198457
vt 0.35672563 0.28198457
vt 0.35672563 0.28198457
vt 0.35672563 0.28198457
vt 0.35672563 0.28198457
vt 0.35672563 0.28198457
vt 0.35672563 0.28198457
vt 0.35672563 0.28198457
vt 0.35672563 0.28198457
vt 0.35672563 0.28198457
vt 0.35672563 0.28198463
vt 0.35672563 0.28198457
vt 0.35672563 0.28198457
vt 0.35672563 0.28198457
vt 0.35672563 0.28198457
vt 0.35672563 0.28198457
vt 0.35672563 0.28198463
vt 0.35672563 0.28198457
vt 0.35672563 0.28198457
vt 0.35672563 0.28198457
vt 0.35672563 0.28198457
vt 0.35672563 0.28198457
vt 0.35672563 0.28198457
vt 0.35672563 0.28198457
vt 0.35672563 0.28198457
vt 0.35672563 0.28198457
vt 0.35672563 0.28198463
vt 0.35672563 0.28198457
vt 0.09950513 0.8506698
vt 0.09950513 0.85066974
vt 0.09950513 0.85066974
vt 0.09950513 0.8506698
vt 0.09950513 0.85066974
vt 0.09950513 0.85066974
vt 0.09950513 0.85066974
vt 0.09950513 0.85066974
vt 0.09950513 0.85066974
vt 0.09950513 0.85066974
vt 0.09950513 0.85066974
vt 0.09950513 0.85066974
vt 0.09950513 0.85066974
vt 0.09950513 0.85066974
vt 0.09950513 0.85066974
vt 0.09950513 0.85066974
vt 0.09950513 0.85066974
vt 0.09950513 0.85066974
vt 0.09950513 0.8506698
vt 0.09950513 0.85066974
vt 0.09950513 0.85066974
vt 0.09950513 0.85066974
vt 0.09950513 0.85066974
vt 0.09950513 0.85066974
vt 0.09950513 0.85066974
vt 0.09950513 0.85066974
vt 0.09950513 0.85066974
vt 0.09950513 0.85066974
vt 0.09950513 0.85066974
vt 0.09950513 0.85066974
vt 0.09950513 0.85066974
vt 0.09950513 0.85066974
vt 0.09950513 0.85066974
vt 0.09950513 0.85066974
vt 0.09950513 0.8506698
vt 0.09950513 0.8506698
vt 0.09950513 0.85066974
vt 0.09950513 0.85066974
vt 0.09950513 0.8506698
vt 0.09950513 0.85066974
vt 0.09950513 0.8506698
vt 0.09950513 0.8506698
vt 0.09950513 0.85066974
vt 0.09950513 0.85066974
vt 0.09950513 0.8506698
vt 0.09950513 0.85066974
vt 0.09950513 0.85066974
vt 0.09950513 0.85066974
vt 0.09950513 0.85066974
vt 0.09950513 0.85066974
vt 0.09950513 0.8506698
vt 0.09950513 0.8506698
vn 0.970402 -0.23167124 -0.06817958
vn 0.84740067 -0.1853817 0.49753973
vn 0.92816246 0.19034728 0.31981602
vn 0.970402 -0.23167124 -0.06817958
vn 0.7489653 -0.5670291 0.34282485
vn 0.84740067 -0.1853817 0.49753973
vn 0.970402 -0.23167124 -0.06817958
vn 0.6788332 -0.73318815 -0.04025719
vn 0.7489653 -0.5670291 0.34282485
vn 0.970402 -0.23167124 -0.06817958
vn 0.6919959 -0.57714015 -0.43364835
vn 0.6788332 -0.73318815 -0.04025719
vn 0.970402 -0.23167124 -0.06817958
vn 0.76607543 -0.19981547 -0.61090285
vn 0.6919959 -0.57714015 -0.43364835
vn 0.970402 -0.23167124 -0.06817958
vn 0.8711936 0.18023595 -0.4566581
vn 0.76607543 -0.19981547 -0.61090285
vn 0.970402 -0.23167124 -0.06817958
vn 0.9346433 0.34799084 -0.07310459
vn 0.8711936 0.18023595 -0.4566581
vn 0.970402 -0.23167124 -0.06817958
vn 0.92816246 0.19034728 0.31981602
vn 0.9346433 0.34799084 -0.07310459
vn -0.970402 -0.23167121 -0.06817958
vn -0.92816246 0.19034736 0.31981593
vn -0.84740067 -0.18538174 0.49753973
vn -0.970402 -0.23167121 -0.06817958
vn -0.84740067 -0.18538174 0.49753973
vn -0.74896526 -0.56702924 0.34282488
vn -0.970402 -0.23167121 -0.06817958
vn -0.74896526 -0.56702924 0.34282488
vn -0.6788332 -0.7331882 -0.04025705
vn -0.970402 -0.23167121 -0.06817958
vn -0.6788332 -0.7331882 -0.04025705
vn -0.691996 -0.57714015 -0.43364826
vn -0.970402 -0.23167121 -0.06817958
vn -0.691996 -0.57714015 -0.43364826
vn -0.7660754 -0.19981554 -0.6109028
vn -0.970402 -0.23167121 -0.06817958
vn -0.7660754 -0.19981554 -0.6109028
vn -0.87119365 0.18023597 -0.45665807
vn -0.970402 -0.23167121 -0.06817958
vn -0.87119365 0.18023597 -0.45665807
vn -0.9346432 0.34799102 -0.07310454
vn -0.970402 -0.23167121 -0.06817958
vn -0.9346432 0.34799102 -0.07310454
vn -0.92816246 0.19034736 0.31981593
vn 0.9204643 -0.037965823 -0.38897818
vn 0.8079941 0.5805531 -0.10051636
vn 0.78964937 0.5561616 -0.25911042
vn 0.99998665 0.0011696297 -0.005030837
vn 0.80119336 -0.58690107 -0.116774626
vn 0.801542 0.5854057 0.121780895
vn 0.81508666 -0.5770535 0.05140921
vn 0.9168653 0.08564801 0.38990054
vn 0.81093353 -0.517824 0.27247947
vn -0.9168652 0.08564795 0.3899008
vn -0.8109333 -0.51782423 0.27247965
vn -0.8150866 -0.5770536 0.051409256
vn -0.99998665 0.0011696868 -0.005030839
vn -0.80119336 -0.5869011 -0.11677467
vn -0.9204643 -0.037965804 -0.38897818
vn -0.80799407 0.5805533 -0.10051636
vn -0.80154186 0.5854059 0.12178091
vn -0.78964937 0.55616164 -0.25911036
vn -0 -0.20351958 0.9790709
vn 0.7017797 -0.49937898 0.50806093
vn -2.6861748E-05 -0.7001933 0.7139534
vn 0.7850533 -0.15392958 0.5999974
vn -0 0.20351933 0.9790709
vn 0.785173 0.15425688 0.5997567
vn 0.98275834 -0.12768924 0.1337216
vn -0.7851255 -0.15391877 0.5999059
vn -3.49371E-05 0.7005103 0.71364236
vn 0.7021737 0.4994517 0.5074447
vn -0.7852482 0.15424268 0.59966195
vn -0.702263 0.49942735 0.507345
vn -0.7907636 0.5918663 0.15616369
vn -0.98287004 0.12884259 0.13178065
vn -0.00013383394 0.97688556 0.21376286
vn -0.98279667 -0.12764065 0.13348587
vn -0.7018572 -0.49936193 0.5079706
vn -0.7896771 -0.59335154 0.15602553
vn -0.7854529 -0.59179634 -0.18122046
vn -0.98397684 0.12529644 -0.1268484
vn -0.7892908 0.592517 -0.16107044
vn -0.98415494 -0.12803672 -0.12266059
vn 0.0022414627 0.975367 -0.22057673
vn -0.69734955 0.4970554 -0.5163715
vn -0.77896607 0.12359581 -0.6147649
vn 0.7905739 0.59201986 0.15654257
vn 0.02048777 0.6851343 -0.7281287
vn 0.7910301 0.5892515 -0.16448087
vn -0.76607734 -0.18343672 -0.61601675
vn 0.046658136 0.11073503 -0.99275404
vn 0.060829643 -0.25580636 -0.96481234
vn -0.68273103 -0.4780903 -0.55254686
vn 0.0067889933 -0.9644586 -0.26414666
vn 0.036573093 -0.64865965 -0.7601995
vn 0.71024776 -0.44783056 -0.5431351
vn 0.71024776 -0.44783056 -0.5431351
vn 0.80319613 -0.16829905 -0.5714467
vn 0.7892903 -0.58401245 -0.18960571
vn 6.256764E-05 -0.97758 0.21056473
vn -0.7896771 -0.59335154 0.15602553
vn 0.80599785 0.10433447 -0.5826507
vn 0.78969413 -0.5933199 0.15605985
vn 0.9825869 -0.12737879 -0.13526808
vn -2.6861748E-05 -0.7001933 0.7139534
vn -0.7018572 -0.49936193 0.5079706
vn 0.7017797 -0.49937898 0.50806093
vn 0.7116152 0.48178524 -0.5113579
vn 0.9832304 0.12082541 -0.13659918
vn 0.9828074 0.12888637 0.13220394
vn 0.7021737 0.4994517 0.5074447
vn 0.7892903 -0.58401245 -0.18960571
vn 0.80319613 -0.16829905 -0.5714467
vn 0.71024776 -0.44783056 -0.5431351
vn 0.7017797 -0.49937898 0.50806093
vn 0.7850533 -0.15392958 0.5999974
vn 0.78969413 -0.5933199 0.15605985
vn 0.70226324 0.49942714 0.507345
vn 3.5038545E-05 0.7005102 0.71364236
vn 0.00013402056 0.97688556 0.21376282
vn 0.7907638 0.5918662 0.1561637
vn -0.0022413875 0.975367 -0.22057676
vn 0.7892908 0.5925169 -0.16107042
vn 0.98397714 0.12529485 -0.12684675
vn 0.9828707 0.12883644 0.13178127
vn -0.020487653 0.68513435 -0.7281286
vn 0.69734955 0.49705535 -0.51637155
vn -0.04665802 0.11073502 -0.99275416
vn 0.7789662 0.12359565 -0.61476487
vn -0.71161515 0.4817853 -0.5113579
vn -0.020487653 0.68513435 -0.7281286
vn -0.7910259 0.5892555 -0.16448693
vn -0.79056823 0.5920273 0.15654227
vn -0.9828074 0.12889774 0.13219291
vn -0.70216805 0.49945566 0.5074486
vn -0.7851703 0.15425634 0.5997604
vn -0.9832291 0.120824665 -0.13660833
vn -0.80599785 0.10433456 -0.58265066
vn -0.98275775 -0.12769325 0.13372199
vn -0.80319613 -0.16829902 -0.57144666
vn -0.982586 -0.12738205 -0.13527173
vn -0.78929013 -0.58401257 -0.18960579
vn -0.7102477 -0.4478307 -0.5431351
vn -0.06082952 -0.2558065 -0.96481234
vn -0.7896939 -0.59332025 0.15605979
vn -0.78929013 -0.58401257 -0.18960579
vn -0.7850526 -0.15393026 0.59999824
vn 0.76607734 -0.18343677 -0.61601657
vn 0.7789662 0.12359565 -0.61476487
vn 0.6827311 -0.4780902 -0.5525468
vn -0.03657292 -0.64865965 -0.7601995
vn 0.98415506 -0.12803553 -0.12266095
vn 0.69734955 0.49705535 -0.51637155
vn 0.7892908 0.5925169 -0.16107042
vn -0 0.20351928 0.9790709
vn 3.5038545E-05 0.7005102 0.71364236
vn -0.70216805 0.49945566 0.5074486
vn -0 -0.20351954 0.9790709
vn -0.70177937 -0.49937925 0.5080611
vn 2.7026543E-05 -0.70019317 0.71395344
vn 0.78525215 0.15423773 0.599658
vn 0.70226324 0.49942714 0.507345
vn 0.78512937 -0.15391818 0.5999008
vn 0.70185924 -0.4993605 0.50796926
vn 0.98279667 -0.12765585 0.1334717
vn 0.78967667 -0.5933521 0.15602577
vn -6.2330684E-05 -0.97758 0.21056472
vn -0.70177937 -0.49937925 0.5080611
vn 0.7854514 -0.59179753 -0.18122254
vn -0.006788775 -0.9644586 -0.26414666
vn -0.03657292 -0.64865965 -0.7601995
vn 0.6827311 -0.4780902 -0.5525468
vn -0.7102477 -0.4478307 -0.5431351
vn 0.78525215 0.15423773 0.599658
vn 0.7907638 0.5918662 0.1561637
vn 0.70226324 0.49942714 0.507345
vn 0.78967667 -0.5933521 0.15602577
vn 0.70185924 -0.4993605 0.50796926
vn 0.78512937 -0.15391818 0.5999008
vn -0.7854529 -0.59179634 -0.18122046
vn -0.68273103 -0.4780903 -0.55254686
vn -0.76607734 -0.18343672 -0.61601675
vn -3.49371E-05 0.7005103 0.71364236
vn 0.7905739 0.59201986 0.15654257
vn 0.7021737 0.4994517 0.5074447
vn 0.39672253 -0.8334515 0.3846684
vn 0.5650823 -0.74091935 -0.36293334
vn -0 -0.97682834 -0.21402419
vn -0 -0.896891 0.44225162
vn -0.56508243 -0.7409195 -0.3629328
vn -0 -0.5709014 -0.8210187
vn -0.803334 -0.53212 -0.26740026
vn -0 -0.26718616 -0.9636449
vn -0.54633224 -0.6633729 0.5113292
vn -0.39672238 -0.83345145 0.38466883
vn -0 -0.60728604 0.79448336
vn 0.5463326 -0.66337305 0.51132846
vn 0.80333376 -0.5321197 -0.2674012
vn -0 -0.5709014 -0.8210187
vn 0.5650823 -0.74091935 -0.36293334
vn -0.10021569 0.9098615 0.40262753
vn -0.82940763 0.51098126 -0.22579016
vn -0.46349943 0.7221847 -0.513437
vn 0.0013712296 0.9966354 -0.081951976
vn 0.07337988 0.9119656 0.40365094
vn 0.4827499 0.71288246 -0.5086758
vn -0.025697816 0.60635626 0.7947778
vn -0.10021569 0.9098615 0.40262753
vn -0.46349943 0.7221847 -0.513437
vn 0.006111347 0.4784691 -0.8780831
vn 0.8291935 0.4180477 -0.37104493
vn -0.11911916 0.61164397 0.782114
vn -0.82940763 0.51098126 -0.22579016
vn -0.98986405 0.13975792 -0.02523681
vn -0.9922597 0.11527993 -0.04616574
vn 0.08055406 0.6152135 0.78423417
vn -0.9802566 0.06947677 -0.18512112
vn -0.82462734 0.44123363 -0.3539813
vn -0.09374129 0.02590006 -0.9952597
vn -0.10691195 -0.36238468 -0.92587644
vn -0.016756054 -0.3936947 -0.9190886
vn -0.82462734 0.44123363 -0.3539813
vn -0.46349943 0.7221847 -0.513437
vn 0.9877672 0.15574582 -0.0076997275
vn 0.09313257 -0.36821926 -0.92506266
vn 0.8314418 0.5188548 -0.19873147
vn 0.992125 0.11381914 -0.05228066
vn 0.976033 0.049859572 -0.21183416
vn 0.07490121 0.022912655 -0.9969277
vn 0.6827311 -0.4780902 -0.5525468
vn 0.7854514 -0.59179753 -0.18122254
vn 0.76607734 -0.18343677 -0.61601657
vn -0.7850526 -0.15393026 0.59999824
vn -0.70177937 -0.49937925 0.5080611
vn -0.7896939 -0.59332025 0.15605979
vn 3.5038545E-05 0.7005102 0.71364236
vn -0.70216805 0.49945566 0.5074486
vn -0.79056823 0.5920273 0.15654227
vn -0.7102477 -0.4478307 -0.5431351
vn -0.03657292 -0.64865965 -0.7601995
vn -0.80319613 -0.16829902 -0.57144666
vn -0.702263 0.49942735 0.507345
vn -0.7852482 0.15424268 0.59966195
vn -0.7907636 0.5918663 0.15616369
vn -0.7892908 0.592517 -0.16107044
vn -0.77896607 0.12359581 -0.6147649
vn -0.69734955 0.4970554 -0.5163715
vn -0.7018572 -0.49936193 0.5079706
vn -0.7851255 -0.15391877 0.5999059
vn -2.6861748E-05 -0.7001933 0.7139534
vn -0.03580288 0.17574471 0.98378456
vn -0.9168652 0.08564795 0.3899008
vn -0.80154186 0.5854059 0.12178091
vn -0.8109333 -0.51782423 0.27247965
vn -0.04535968 0.9166327 0.39714858
vn -0.80799407 0.5805533 -0.10051636
vn -0.037536863 0.98439145 -0.17194282
vn -0.78964937 0.55616164 -0.25911036
vn -0.0474466 0.79015255 -0.611071
vn -0.037960827 -0.12135737 -0.99188274
vn -0.9204643 -0.037965804 -0.38897818
vn -0.80119336 -0.5869011 -0.11677467
vn 0.75195783 0.6493048 -0.113853276
vn -0.05687216 -0.9155732 -0.39810964
vn -0.8150866 -0.5770536 0.051409256
vn -0.049658507 -0.9948821 0.08799761
vn -0.047486044 -0.73172885 0.6799398
vn 0.7256451 -0.67146343 -0.15025268
vn 0.7276734 0.61211926 -0.3095182
vn 0.75050867 -0.6582659 0.058503874
vn 0.89435625 -0.051569883 -0.44437307
vn 0.9999068 -0.0023855977 -0.013449199
vn 0.7559976 -0.56686676 0.3273067
vn 0.8949457 0.09655841 0.43560135
vn 0.7462891 0.64825875 0.15104061
vn 0.056872234 -0.9155732 -0.39810964
vn 0.80119336 -0.58690107 -0.116774626
vn 0.9204643 -0.037965823 -0.38897818
vn 0.81508666 -0.5770535 0.05140921
vn 0.03796073 -0.121357456 -0.99188274
vn 0.78964937 0.5561616 -0.25911042
vn 0.049658548 -0.9948821 0.08799753
vn 0.81093353 -0.517824 0.27247947
vn 0.047486104 -0.73172885 0.6799398
vn 0.9168653 0.08564801 0.38990054
vn 0.035803083 0.17574506 0.98378444
vn 0.801542 0.5854057 0.121780895
vn 0.045359913 0.9166327 0.3971487
vn 0.8079941 0.5805531 -0.10051636
vn 0.037536938 0.98439145 -0.17194284
vn 0.047446545 0.7901525 -0.61107117
vn -0.89435625 -0.05156995 -0.44437304
vn -0.74628896 0.64825875 0.15104073
vn -0.8949457 0.09655851 0.43560138
vn -0.75195795 0.6493048 -0.11385328
vn -0.72767335 0.61211926 -0.30951822
vn -0.9999068 -0.0023856391 -0.013449207
vn -0.7256451 -0.6714635 -0.15025276
vn -0.7505086 -0.65826595 0.058503825
vn -0.7559977 -0.5668667 0.3273065
vn -0.9639879 -0.23034725 -0.13291872
vn -0.9760024 -0.18383555 -0.11672055
vn -0.97072035 -0.23048772 -0.06765673
vn -0.954122 -0.2768577 -0.11402246
vn -0.98359674 -0.16641118 -0.0696037
vn -0.9537172 -0.2935092 -0.06539055
vn -0.9829155 -0.1828298 -0.021220153
vn -0.961078 -0.2756949 -0.017927313
vn -0.9734284 -0.22898181 -0.0021133719
vn 0.9639879 -0.23034751 -0.13291872
vn 0.97072035 -0.23048773 -0.06765673
vn 0.9760024 -0.18383585 -0.11672056
vn 0.954122 -0.2768577 -0.11402246
vn 0.98359674 -0.16641094 -0.06960368
vn 0.95371723 -0.29350895 -0.06539055
vn 0.98291564 -0.18282956 -0.021220157
vn 0.961078 -0.2756949 -0.017927315
vn 0.9734283 -0.22898203 -0.0021133719
vn -0.659348 0.41353145 -0.62789476
vn -0.87119365 0.18023597 -0.45665807
vn -0.7660754 -0.19981554 -0.6109028
vn -0.5238777 -0.14942804 -0.8385841
vn -0.7664905 0.6390028 -0.064557195
vn -0.691996 -0.57714015 -0.43364826
vn -0.9346432 0.34799102 -0.07310454
vn -0.3958093 -0.7003104 -0.59405416
vn -0.7431299 0.4284018 0.51403296
vn -0.6788332 -0.7331882 -0.04025705
vn -0.92816246 0.19034736 0.31981593
vn -0.39831522 -0.9170858 -0.017280571
vn -0.6409274 -0.12865518 0.756743
vn -0.74896526 -0.56702924 0.34282488
vn -0.84740067 -0.18538174 0.49753973
vn -0.47959274 -0.68544 0.5478712
vn 0.6593481 0.41353136 -0.6278948
vn 0.76607543 -0.19981547 -0.61090285
vn 0.8711936 0.18023595 -0.4566581
vn 0.5238778 -0.14942798 -0.8385841
vn 0.7664906 0.63900274 -0.06455725
vn 0.6919959 -0.57714015 -0.43364835
vn 0.9346433 0.34799084 -0.07310459
vn 0.3958093 -0.7003103 -0.5940543
vn 0.7431299 0.4284017 0.514033
vn 0.6788332 -0.73318815 -0.04025719
vn 0.92816246 0.19034728 0.31981602
vn 0.3983153 -0.9170858 -0.017280791
vn 0.6409274 -0.12865521 0.756743
vn 0.7489653 -0.5670291 0.34282485
vn 0.84740067 -0.1853817 0.49753973
vn 0.47959277 -0.68543994 0.5478711
vn -0 -0.9522006 0.30547363
vn -0 -0.9492787 0.31443596
vn 0.99934095 0.007807329 -0.03545041
vn -0.99945444 -0.014053975 -0.029887248
vn -0.99934095 0.007807163 -0.035450183
vn 0.99945444 -0.014053619 -0.029887337
vn -0 0.9284688 -0.37141037
vn -0 0.93057907 -0.366091
vn 0.99763346 -0.026095454 -0.06361237
vn -0 -0.9656182 0.25996462
vn -0.99763346 -0.026095985 -0.063612364
vn -0 0.92413384 -0.3820689
vn -0 -0.9844467 -0.17568336
vn -0.8702604 -0.15896353 -0.46623737
vn -0 0.6639315 -0.7477933
vn 0.8702604 -0.15896297 -0.46623757
vn -0 -0.34045374 -0.9402613
vn -0.99934095 0.0078073293 -0.035450317
vn -0 -0.9492786 0.31443596
vn -0 -0.9522006 0.30547363
vn -0.99945444 -0.014053621 -0.029887276
vn -0.99763346 -0.02609547 -0.06361235
vn -0 0.9284688 -0.37141034
vn -0 0.93057907 -0.366091
vn 0.99934095 0.007807163 -0.03545021
vn 0.99945444 -0.014054029 -0.029887283
vn -0 -0.9656182 0.25996462
vn 0.99763346 -0.026095955 -0.06361233
vn -0 0.92413384 -0.38206887
vn -0 0.66393137 -0.74779344
vn 0.8702605 -0.15896356 -0.4662373
vn -0 -0.9844467 -0.1756834
vn -0.8702604 -0.15896314 -0.4662377
vn -0 -0.3404538 -0.9402612
vn 0.71003574 -0.07668979 -0.6999771
vn 0.5730623 0.49305952 -0.6545929
vn -0 0.5795008 -0.8149716
vn 0.69850713 0.70083153 -0.14464773
vn -0 -0.0879355 -0.9961261
vn -0 -0.78705955 -0.6168771
vn -0.71003574 -0.07668982 -0.6999771
vn 0.99979573 -0.016410345 -0.011795189
vn 0.5713449 -0.67307144 -0.46961665
vn 0.6977286 -0.7089743 0.10261753
vn -0.57134485 -0.67307144 -0.4696166
vn -0 -0.9875141 0.1575312
vn -0.6977285 -0.7089743 0.1026174
vn 0.72856045 0.09014885 0.67902344
vn 0.5937438 0.6800144 0.43017277
vn 0.58178085 -0.53858316 0.60947454
vn -0 0.14094532 0.99001735
vn -0 0.820575 0.5715387
vn -0 -0.6223279 0.7827566
vn -0.58178097 -0.5385832 0.6094744
vn -0.72856045 0.09014886 0.67902344
vn -0.99979573 -0.016410356 -0.011795163
vn -0 0.9802639 -0.19769345
vn -0.5730623 0.49305952 -0.6545929
vn -0.69850713 0.7008315 -0.14464778
vn -0.5937438 0.6800145 0.43017268
vn -0.72423935 0.62680256 0.28739515
vn -0.29078183 0.9567846 -0.003022024
vn -0.2709449 0.89485025 0.3547278
vn -0.24457361 0.67197305 0.699025
vn 0.27094498 0.89485025 0.35472777
vn -0.7556593 0.65495384 -0.003802985
vn -0.63245827 0.53955096 0.555771
vn -0.9144427 0.2810651 0.29119927
vn -0.95572156 0.29423308 -0.0048204158
vn -0.7183638 0.2780574 0.63768137
vn -0.9509272 1.820628E-05 0.30941457
vn -0.26741508 0.32928848 0.9055707
vn 0.24457361 0.67197305 0.699025
vn -0.7464117 0 0.66548455
vn -0.7223155 0.61258036 -0.32094505
vn -0.9041706 0.26669508 -0.33369052
vn -0.9341343 4.110158E-05 -0.35692182
vn -0.999987 9.4657815E-05 -0.0051003527
vn -0.66626465 0.21174693 -0.7150207
vn -0.955713 -0.29427257 -0.004052497
vn -0.9144165 -0.28105757 0.29128873
vn -0.90472054 -0.26734003 -0.33167756
vn -0.71836376 -0.27805763 0.63768137
vn -0.2867288 0 0.9580118
vn -0.7241948 -0.6268026 0.28750724
vn -0.66766584 -0.21386987 -0.7130793
vn -0.7226975 -0.613963 -0.31742343
vn -0.6772091 -0.00045255502 -0.73579055
vn -0.7555416 -0.65509504 -0.002723796
vn 0.28672877 0 0.9580118
vn -0.26741502 -0.32928875 0.90557057
vn -0.6324578 -0.539552 0.5557705
vn -0.24457322 -0.67197394 0.69902426
vn -0.27092963 -0.8948261 0.3548005
vn 0.26741508 0.32928848 0.9055707
vn -0.27050003 -0.8820142 -0.38585067
vn -0.29070142 -0.9568118 -0.0019629002
vn 0.2705 -0.88201416 -0.38585067
vn -0.60813814 -0.4771591 -0.6344187
vn 0.29070136 -0.9568118 -0.0019629158
vn 0.27092957 -0.8948261 0.35480055
vn -0.23185818 -0.58421457 -0.77777576
vn -0.22781551 -0.2022929 -0.95245874
vn -0.23379359 -0.00041440138 -0.97228616
vn 0.22781552 -0.20229295 -0.95245874
vn 0.24457313 -0.67197394 0.6990243
vn 0.267415 -0.32928875 0.90557057
vn 0.63245773 -0.539552 0.55577064
vn 0.71836376 -0.27805766 0.63768137
vn 0.7241948 -0.62680256 0.28750724
vn 0.7464116 0 0.66548455
vn 0.7555417 -0.6550949 -0.0027237958
vn 0.9144165 -0.28105757 0.29128873
vn 0.71836376 0.27805746 0.6376814
vn 0.9509273 1.8186607E-05 0.30941454
vn 0.955713 -0.2942726 -0.004052501
vn 0.7226975 -0.61396307 -0.31742346
vn 0.999987 9.461335E-05 -0.0051003452
vn 0.90472054 -0.26734006 -0.33167753
vn 0.6081382 -0.4771591 -0.6344187
vn 0.23185816 -0.5842145 -0.7777758
vn 0.6676659 -0.2138699 -0.7130793
vn 0.23379363 -0.0004144447 -0.97228616
vn 0.67720914 -0.00045260668 -0.73579055
vn 0.9341343 4.1076757E-05 -0.35692182
vn 0.95572156 0.29423305 -0.0048204083
vn 0.22712222 0.19929335 -0.9532563
vn 0.6662647 0.21174695 -0.71502066
vn 0.9144427 0.2810651 0.2911992
vn 0.9041706 0.26669514 -0.33369052
vn -0.22712219 0.19929333 -0.9532563
vn -0.60722923 0.47303185 -0.63836783
vn -0.2313981 0.579129 -0.7817062
vn 0.2313981 0.579129 -0.7817062
vn -0.27045265 0.8801099 -0.39020753
vn 0.27045262 0.88010997 -0.3902075
vn 0.60722923 0.47303194 -0.6383678
vn 0.2907818 0.9567846 -0.003022029
vn 0.7223154 0.6125804 -0.3209451
vn 0.7556592 0.65495384 -0.003802995
vn 0.72423935 0.6268025 0.28739512
vn 0.63245827 0.5395509 0.5557708
vn 0.24091654 0.6601535 0.71144694
vn 0.7330219 0.14829995 0.6638419
vn 0.25326058 0.16048096 0.95399415
vn -0.25326076 0.16048098 0.95399415
vn 0.24144647 -0.27644587 0.930205
vn 0.64718616 0.5196535 0.5577728
vn 0.27162257 0.9332955 0.23490581
vn -0.2409167 0.6601534 0.7114469
vn 0.7537497 0.62928116 0.18938452
vn -0.24144647 -0.2764458 0.930205
vn -0.733022 0.14829992 0.6638418
vn 0.9618787 0.18256462 0.20361581
vn 0.75342417 0.62224776 -0.21250795
vn 0.7143662 -0.22423805 0.6628712
vn 0.95552367 -0.19830845 0.21828517
vn 0.9630638 -0.1668244 -0.21137147
vn 0.74596167 -0.618696 0.24648833
vn 0.61457765 -0.5349652 0.579747
vn 0.22050734 -0.66079515 0.7174442
vn 0.26957574 -0.9063958 0.32523143
vn 0.9568035 0.18710187 -0.22253065
vn -0.22053999 -0.6607747 0.7174531
vn 0.77802795 -0.6048925 -0.16963933
vn 0.29025215 -0.9364401 -0.19706269
vn -0.26988757 -0.90640354 0.3249514
vn 0.65856344 -0.43563575 -0.6136088
vn 0.7006371 0.15904087 -0.69556713
vn 0.7123501 -0.10788676 -0.69348246
vn 0.25075623 -0.5737357 -0.77971065
vn 0.23261186 -0.08670394 -0.96869713
vn 0.62736624 0.4735426 -0.61819816
vn -0.25079316 -0.5738129 -0.779642
vn 0.22658204 0.16027567 -0.96071446
vn -0.22658198 0.16027567 -0.96071446
vn 0.23012334 0.59501964 -0.77006155
vn -0.28997412 -0.93648034 -0.19727999
vn -0.7779106 -0.6050231 -0.16971202
vn -0.23261186 -0.086703934 -0.96869713
vn -0.6585082 -0.43579903 -0.61355203
vn -0.71234995 -0.10788669 -0.6934826
vn -0.74595106 -0.61874926 0.2463869
vn 0.27206853 0.926896 -0.25853902
vn -0.2718552 0.92691547 -0.2586939
vn -0.23012994 0.5950655 -0.77002424
vn -0.62732875 0.47363302 -0.618167
vn -0.7006371 0.15904091 -0.6955671
vn -0.9568035 0.18710202 -0.22253053
vn -0.9630638 -0.16682447 -0.21137139
vn -0.6145916 -0.534938 0.5797572
vn -0.7143663 -0.2242379 0.6628711
vn -0.95552355 -0.19830832 0.21828525
vn -0.9618787 0.18256462 0.20361568
vn -0.753327 0.6223627 -0.21251644
vn -0.7537039 0.6293589 0.18930887
vn -0.6471862 0.5196533 0.5577729
vn -0.2716637 0.9333019 0.23483261
vn 0.63773835 -0.5485235 -0.54075116
vn -0 -0.69668186 -0.7173802
vn -0 -0.9579105 0.2870669
vn 0.8197177 -0.5555595 0.13934335
vn 0.70775276 0.025698785 -0.7059926
vn 0.60174894 -0.4058378 0.6878908
vn 0.99989307 -0.002920385 0.014330736
vn -0 0.037697878 -0.99928916
vn 0.60386175 0.5197119 -0.6043596
vn 0.7023579 -0.037010565 0.7108611
vn -0 -0.48073488 0.87686604
vn 0.7189765 0.6947346 -0.020412577
vn -0.60174954 -0.40583757 0.6878905
vn -0 -0.05797861 0.99831784
vn -0.8197169 -0.55556047 0.13934377
vn 0.57279223 0.5644452 0.59439933
vn -0.7023576 -0.03701055 0.71086144
vn -0 0.63116395 0.7756495
vn -0 0.99731773 -0.07319444
vn -0 0.61460316 -0.7888365
vn -0.7189765 0.6947345 -0.02041254
vn -0.5727923 0.5644449 0.59439963
vn -0.99989307 -0.002920319 0.014330675
vn -0.6377387 -0.548523 -0.5407512
vn -0.7077524 0.025698848 -0.7059929
vn -0.6038617 0.519712 -0.6043598
vn -0.6377383 -0.54852355 -0.5407511
vn -0 -0.6966818 -0.7173803
vn -0 0.037697885 -0.99928916
vn -0.70775276 0.025698798 -0.7059926
vn -0.8197176 -0.5555595 0.1393434
vn -0.6038617 0.51971185 -0.6043596
vn -0.99989307 -0.0029204197 0.014330777
vn -0 -0.9579106 0.2870669
vn -0.6017489 -0.40583786 0.6878908
vn -0.7023579 -0.037010614 0.7108612
vn -0.71897656 0.6947345 -0.020412467
vn -0 -0.4807349 0.8768659
vn -0 0.99731773 -0.07319437
vn -0.57279223 0.5644451 0.5943996
vn -0 -0.057978556 0.99831784
vn 0.60174954 -0.4058376 0.68789047
vn -0 0.6311639 0.77564955
vn 0.8197169 -0.5555605 0.13934371
vn 0.7023576 -0.037010502 0.7108614
vn -0 0.61460316 -0.7888364
vn 0.6038617 0.5197118 -0.6043598
vn 0.7077524 0.025698818 -0.70599294
vn 0.7189765 0.6947345 -0.020412594
vn 0.5727923 0.56444496 0.5943996
vn 0.99989307 -0.0029203459 0.014330627
vn 0.6377387 -0.548523 -0.54075116
g Rabbit_LOD2_0
f 3/3/3 2/2/2 1/1/1
f 6/6/6 5/5/5 4/4/4
f 9/9/9 8/8/8 7/7/7
f 12/12/12 11/11/11 10/10/10
f 15/15/15 14/14/14 13/13/13
f 18/18/18 17/17/17 16/16/16
f 21/21/21 20/20/20 19/19/19
f 24/24/24 23/23/23 22/22/22
f 27/27/27 26/26/26 25/25/25
f 30/30/30 29/29/29 28/28/28
f 33/33/33 32/32/32 31/31/31
f 36/36/36 35/35/35 34/34/34
f 39/39/39 38/38/38 37/37/37
f 42/42/42 41/41/41 40/40/40
f 45/45/45 44/44/44 43/43/43
f 48/48/48 47/47/47 46/46/46
f 51/51/51 50/50/50 49/49/49
f 50/50/50 52/52/52 49/49/49
f 53/53/53 49/49/49 52/52/52
f 52/52/52 50/50/50 54/54/54
f 55/55/55 53/53/53 52/52/52
f 56/56/56 52/52/52 54/54/54
f 55/55/55 52/52/52 56/56/56
f 57/57/57 55/55/55 56/56/56
f 60/60/60 59/59/59 58/58/58
f 61/61/61 60/60/60 58/58/58
f 60/60/60 61/61/61 62/62/62
f 61/61/61 63/63/63 62/62/62
f 64/64/64 61/61/61 58/58/58
f 61/61/61 64/64/64 63/63/63
f 65/65/65 64/64/64 58/58/58
f 64/64/64 66/66/66 63/63/63
f 69/69/69 68/68/68 67/67/67
f 68/68/68 70/70/70 67/67/67
f 67/67/67 70/70/70 71/71/71
f 70/70/70 72/72/72 71/71/71
f 72/72/72 70/70/70 73/73/73
f 74/74/74 67/67/67 71/71/71
f 71/71/71 72/72/72 75/75/75
f 72/72/72 76/76/76 75/75/75
f 77/77/77 74/74/74 71/71/71
f 71/71/71 75/75/75 77/77/77
f 75/75/75 78/78/78 77/77/77
f 79/79/79 78/78/78 75/75/75
f 74/74/74 77/77/77 80/80/80
f 81/81/81 79/79/79 75/75/75
f 82/82/82 74/74/74 80/80/80
f 74/74/74 82/82/82 83/83/83
f 82/82/82 84/84/84 83/83/83
f 84/84/84 82/82/82 85/85/85
f 86/86/86 80/80/80 79/79/79
f 80/80/80 86/86/86 82/82/82
f 87/87/87 79/79/79 81/81/81
f 87/87/87 86/86/86 79/79/79
f 86/86/86 88/88/88 82/82/82
f 82/82/82 88/88/88 85/85/85
f 89/89/89 87/87/87 81/81/81
f 90/90/90 87/87/87 89/89/89
f 88/88/88 86/86/86 91/91/91
f 89/89/89 81/81/81 92/92/92
f 93/93/93 90/90/90 89/89/89
f 91/91/91 90/90/90 93/93/93
f 94/94/94 89/89/89 92/92/92
f 93/93/93 89/89/89 94/94/94
f 95/95/95 88/88/88 91/91/91
f 95/95/95 91/91/91 96/96/96
f 96/96/96 91/91/91 93/93/93
f 97/97/97 95/95/95 96/96/96
f 98/98/98 95/95/95 97/97/97
f 85/85/85 98/98/98 99/99/99
f 100/100/100 98/98/98 97/97/97
f 98/98/98 100/100/100 99/99/99
f 100/100/100 97/97/97 101/101/101
f 100/100/100 102/102/102 99/99/99
f 97/97/97 103/103/103 101/101/101
f 103/103/103 97/97/97 96/96/96
f 102/102/102 104/104/104 99/99/99
f 85/85/85 99/99/99 105/105/105
f 99/99/99 104/104/104 105/105/105
f 106/106/106 85/85/85 105/105/105
f 96/96/96 93/93/93 107/107/107
f 107/107/107 103/103/103 96/96/96
f 104/104/104 108/108/108 105/105/105
f 104/104/104 109/109/109 108/108/108
f 106/106/106 105/105/105 110/110/110
f 105/105/105 108/108/108 110/110/110
f 111/111/111 106/106/106 110/110/110
f 108/108/108 112/112/112 110/110/110
f 109/109/109 73/73/73 108/108/108
f 93/93/93 113/113/113 107/107/107
f 113/113/113 93/93/93 94/94/94
f 107/107/107 114/114/114 103/103/103
f 114/114/114 107/107/107 113/113/113
f 94/94/94 114/114/114 113/113/113
f 114/114/114 109/109/109 103/103/103
f 114/114/114 94/94/94 92/92/92
f 109/109/109 114/114/114 115/115/115
f 115/115/115 114/114/114 92/92/92
f 73/73/73 109/109/109 115/115/115
f 72/72/72 115/115/115 92/92/92
f 115/115/115 72/72/72 73/73/73
f 116/116/116 72/72/72 92/92/92
f 118/118/118 109/109/109 117/117/117
f 119/119/119 118/118/118 117/117/117
f 73/73/73 121/121/121 120/120/120
f 122/122/122 73/73/73 120/120/120
f 125/125/125 124/124/124 123/123/123
f 126/126/126 125/125/125 123/123/123
f 127/127/127 125/125/125 126/126/126
f 128/128/128 127/127/127 126/126/126
f 129/129/129 128/128/128 126/126/126
f 130/130/130 129/129/129 126/126/126
f 131/131/131 127/127/127 128/128/128
f 132/132/132 131/131/131 128/128/128
f 131/131/131 132/132/132 133/133/133
f 132/132/132 134/134/134 133/133/133
f 131/131/131 135/135/135 127/127/127
f 136/136/136 133/133/133 135/135/135
f 127/127/127 137/137/137 125/125/125
f 135/135/135 137/137/137 127/127/127
f 137/137/137 138/138/138 125/125/125
f 138/138/138 137/137/137 139/139/139
f 140/140/140 138/138/138 139/139/139
f 141/141/141 140/140/140 139/139/139
f 137/137/137 135/135/135 142/142/142
f 137/137/137 142/142/142 139/139/139
f 133/133/133 143/143/143 135/135/135
f 135/135/135 143/143/143 142/142/142
f 139/139/139 144/144/144 141/141/141
f 139/139/139 142/142/142 144/144/144
f 142/142/142 143/143/143 145/145/145
f 143/143/143 133/133/133 145/145/145
f 142/142/142 146/146/146 144/144/144
f 146/146/146 142/142/142 145/145/145
f 147/147/147 146/146/146 145/145/145
f 148/148/148 147/147/147 145/145/145
f 133/133/133 149/149/149 145/145/145
f 144/144/144 146/146/146 150/150/150
f 146/146/146 151/151/151 150/150/150
f 144/144/144 152/152/152 141/141/141
f 153/153/153 149/149/149 133/133/133
f 154/154/154 153/153/153 133/133/133
f 149/149/149 153/153/153 155/155/155
f 156/156/156 149/149/149 155/155/155
f 153/153/153 154/154/154 157/157/157
f 154/154/154 129/129/129 157/157/157
f 154/154/154 158/158/158 129/129/129
f 158/158/158 159/159/159 129/129/129
f 157/157/157 129/129/129 130/130/130
f 141/141/141 152/152/152 160/160/160
f 141/141/141 160/160/160 161/161/161
f 162/162/162 141/141/141 161/161/161
f 152/152/152 163/163/163 160/160/160
f 152/152/152 164/164/164 163/163/163
f 164/164/164 165/165/165 163/163/163
f 161/161/161 160/160/160 166/166/166
f 167/167/167 161/161/161 166/166/166
f 166/166/166 160/160/160 168/168/168
f 160/160/160 163/163/163 168/168/168
f 130/130/130 166/166/166 168/168/168
f 168/168/168 163/163/163 169/169/169
f 163/163/163 165/165/165 169/169/169
f 170/170/170 130/130/130 168/168/168
f 170/170/170 157/157/157 130/130/130
f 171/171/171 169/169/169 165/165/165
f 172/172/172 171/171/171 165/165/165
f 172/172/172 165/165/165 173/173/173
f 150/150/150 172/172/172 173/173/173
f 174/174/174 171/171/171 172/172/172
f 171/171/171 174/174/174 170/170/170
f 174/174/174 157/157/157 170/170/170
f 175/175/175 172/172/172 150/150/150
f 175/175/175 174/174/174 172/172/172
f 151/151/151 175/175/175 150/150/150
f 174/174/174 175/175/175 176/176/176
f 176/176/176 175/175/175 151/151/151
f 177/177/177 174/174/174 176/176/176
f 178/178/178 176/176/176 151/151/151
f 130/130/130 180/180/180 179/179/179
f 180/180/180 181/181/181 179/179/179
f 183/183/183 182/182/182 170/170/170
f 184/184/184 183/183/183 170/170/170
f 186/186/186 185/185/185 88/88/88
f 187/187/187 186/186/186 88/88/88
f 190/190/190 189/189/189 188/188/188
f 189/189/189 81/81/81 188/188/188
f 193/193/193 192/192/192 191/191/191
f 194/194/194 193/193/193 191/191/191
f 195/195/195 193/193/193 194/194/194
f 195/195/195 196/196/196 193/193/193
f 195/195/195 197/197/197 196/196/196
f 197/197/197 198/198/198 196/196/196
f 199/199/199 197/197/197 195/195/195
f 200/200/200 199/199/199 195/195/195
f 200/200/200 195/195/195 194/194/194
f 199/199/199 200/200/200 201/201/201
f 200/200/200 194/194/194 201/201/201
f 201/201/201 194/194/194 191/191/191
f 202/202/202 201/201/201 191/191/191
f 203/203/203 202/202/202 191/191/191
f 198/198/198 203/203/203 204/204/204
f 193/193/193 204/204/204 205/205/205
f 205/205/205 203/203/203 191/191/191
f 203/203/203 205/205/205 204/204/204
f 208/208/208 207/207/207 206/206/206
f 209/209/209 208/208/208 206/206/206
f 211/211/211 209/209/209 210/210/210
f 209/209/209 212/212/212 210/210/210
f 212/212/212 209/209/209 213/213/213
f 209/209/209 211/211/211 214/214/214
f 211/211/211 215/215/215 214/214/214
f 215/215/215 211/211/211 216/216/216
f 217/217/217 212/212/212 213/213/213
f 213/213/213 218/218/218 217/217/217
f 218/218/218 219/219/219 217/217/217
f 218/218/218 214/214/214 219/219/219
f 214/214/214 220/220/220 219/219/219
f 212/212/212 221/221/221 210/210/210
f 220/220/220 214/214/214 222/222/222
f 214/214/214 223/223/223 222/222/222
f 223/223/223 224/224/224 222/222/222
f 224/224/224 225/225/225 222/222/222
f 224/224/224 215/215/215 225/225/225
f 215/215/215 226/226/226 225/225/225
f 224/224/224 227/227/227 215/215/215
f 227/227/227 228/228/228 215/215/215
f 210/210/210 221/221/221 229/229/229
f 230/230/230 226/226/226 215/215/215
f 231/231/231 210/210/210 229/229/229
f 231/231/231 211/211/211 210/210/210
f 231/231/231 229/229/229 211/211/211
f 229/229/229 232/232/232 211/211/211
f 211/211/211 232/232/232 216/216/216
f 232/232/232 233/233/233 216/216/216
f 216/216/216 233/233/233 230/230/230
f 234/234/234 230/230/230 215/215/215
f 234/234/234 216/216/216 230/230/230
f 234/234/234 215/215/215 216/216/216
f 157/157/157 236/236/236 235/235/235
f 237/237/237 157/157/157 235/235/235
f 240/240/240 239/239/239 238/238/238
f 144/144/144 240/240/240 238/238/238
f 243/243/243 242/242/242 241/241/241
f 125/125/125 243/243/243 241/241/241
f 149/149/149 245/245/245 244/244/244
f 246/246/246 149/149/149 244/244/244
f 80/80/80 248/248/248 247/247/247
f 249/249/249 80/80/80 247/247/247
f 252/252/252 251/251/251 250/250/250
f 251/251/251 86/86/86 250/250/250
f 67/67/67 254/254/254 253/253/253
f 255/255/255 67/67/67 253/253/253
f 258/258/258 257/257/257 256/256/256
f 256/256/256 257/257/257 259/259/259
f 260/260/260 258/258/258 256/256/256
f 261/261/261 258/258/258 260/260/260
f 262/262/262 261/261/261 260/260/260
f 263/263/263 261/261/261 262/262/262
f 264/264/264 263/263/263 262/262/262
f 264/264/264 265/265/265 263/263/263
f 265/265/265 266/266/266 263/263/263
f 266/266/266 265/265/265 267/267/267
f 262/262/262 268/268/268 264/264/264
f 268/268/268 262/262/262 260/260/260
f 265/265/265 269/269/269 267/267/267
f 270/270/270 267/267/267 269/269/269
f 270/270/270 271/271/271 259/259/259
f 271/271/271 270/270/270 269/269/269
f 272/272/272 256/256/256 259/259/259
f 271/271/271 272/272/272 259/259/259
f 269/269/269 273/273/273 271/271/271
f 269/269/269 265/265/265 273/273/273
f 265/265/265 264/264/264 274/274/274
f 268/268/268 274/274/274 264/264/264
f 271/271/271 275/275/275 272/272/272
f 273/273/273 275/275/275 271/271/271
f 265/265/265 276/276/276 273/273/273
f 276/276/276 265/265/265 274/274/274
f 275/275/275 273/273/273 276/276/276
f 277/277/277 276/276/276 274/274/274
f 277/277/277 275/275/275 276/276/276
f 268/268/268 277/277/277 274/274/274
f 275/275/275 278/278/278 272/272/272
f 256/256/256 272/272/272 278/278/278
f 275/275/275 277/277/277 278/278/278
f 279/279/279 256/256/256 278/278/278
f 277/277/277 279/279/279 278/278/278
f 277/277/277 268/268/268 279/279/279
f 260/260/260 256/256/256 279/279/279
f 280/280/280 268/268/268 260/260/260
f 280/280/280 260/260/260 279/279/279
f 268/268/268 280/280/280 279/279/279
f 283/283/283 282/282/282 281/281/281
f 281/281/281 282/282/282 284/284/284
f 285/285/285 283/283/283 281/281/281
f 286/286/286 283/283/283 285/285/285
f 287/287/287 281/281/281 284/284/284
f 287/287/287 284/284/284 288/288/288
f 289/289/289 287/287/287 288/288/288
f 289/289/289 288/288/288 290/290/290
f 291/291/291 289/289/289 290/290/290
f 291/291/291 290/290/290 292/292/292
f 293/293/293 291/291/291 292/292/292
f 292/292/292 294/294/294 293/293/293
f 294/294/294 286/286/286 295/295/295
f 294/294/294 295/295/295 293/293/293
f 296/296/296 286/286/286 285/285/285
f 286/286/286 296/296/296 295/295/295
f 285/285/285 281/281/281 297/297/297
f 285/285/285 297/297/297 296/296/296
f 293/293/293 298/298/298 291/291/291
f 293/293/293 295/295/295 298/298/298
f 291/291/291 299/299/299 289/289/289
f 298/298/298 299/299/299 291/291/291
f 295/295/295 300/300/300 298/298/298
f 295/295/295 296/296/296 300/300/300
f 298/298/298 300/300/300 299/299/299
f 296/296/296 301/301/301 300/300/300
f 297/297/297 301/301/301 296/296/296
f 300/300/300 301/301/301 302/302/302
f 300/300/300 302/302/302 299/299/299
f 301/301/301 297/297/297 302/302/302
f 281/281/281 303/303/303 297/297/297
f 303/303/303 281/281/281 287/287/287
f 304/304/304 302/302/302 297/297/297
f 303/303/303 304/304/304 297/297/297
f 299/299/299 302/302/302 304/304/304
f 304/304/304 303/303/303 287/287/287
f 287/287/287 289/289/289 305/305/305
f 299/299/299 305/305/305 289/289/289
f 305/305/305 299/299/299 304/304/304
f 304/304/304 287/287/287 305/305/305
f 308/308/308 307/307/307 306/306/306
f 308/308/308 306/306/306 309/309/309
f 308/308/308 310/310/310 307/307/307
f 308/308/308 309/309/309 311/311/311
f 308/308/308 312/312/312 310/310/310
f 308/308/308 311/311/311 313/313/313
f 308/308/308 314/314/314 312/312/312
f 308/308/308 313/313/313 314/314/314
f 317/317/317 316/316/316 315/315/315
f 315/315/315 316/316/316 318/318/318
f 319/319/319 316/316/316 317/317/317
f 318/318/318 316/316/316 320/320/320
f 321/321/321 316/316/316 319/319/319
f 320/320/320 316/316/316 322/322/322
f 323/323/323 316/316/316 321/321/321
f 322/322/322 316/316/316 323/323/323
f 326/326/326 325/325/325 324/324/324
f 327/327/327 326/326/326 324/324/324
f 324/324/324 325/325/325 328/328/328
f 329/329/329 326/326/326 327/327/327
f 325/325/325 330/330/330 328/328/328
f 331/331/331 329/329/329 327/327/327
f 328/328/328 330/330/330 332/332/332
f 333/333/333 329/329/329 331/331/331
f 330/330/330 334/334/334 332/332/332
f 335/335/335 333/333/333 331/331/331
f 332/332/332 334/334/334 336/336/336
f 337/337/337 333/333/333 335/335/335
f 334/334/334 338/338/338 336/336/336
f 339/339/339 337/337/337 335/335/335
f 336/336/336 338/338/338 339/339/339
f 338/338/338 337/337/337 339/339/339
f 342/342/342 341/341/341 340/340/340
f 341/341/341 343/343/343 340/340/340
f 342/342/342 340/340/340 344/344/344
f 341/341/341 345/345/345 343/343/343
f 346/346/346 342/342/342 344/344/344
f 345/345/345 347/347/347 343/343/343
f 346/346/346 344/344/344 348/348/348
f 345/345/345 349/349/349 347/347/347
f 350/350/350 346/346/346 348/348/348
f 349/349/349 351/351/351 347/347/347
f 350/350/350 348/348/348 352/352/352
f 349/349/349 353/353/353 351/351/351
f 354/354/354 350/350/350 352/352/352
f 353/353/353 355/355/355 351/351/351
f 354/354/354 352/352/352 355/355/355
f 353/353/353 354/354/354 355/355/355
f 358/358/358 357/357/357 356/356/356
f 356/356/356 357/357/357 359/359/359
f 357/357/357 360/360/360 359/359/359
f 361/361/361 358/358/358 356/356/356
f 362/362/362 358/358/358 361/361/361
f 360/360/360 362/362/362 363/363/363
f 363/363/363 362/362/362 361/361/361
f 359/359/359 360/360/360 363/363/363
f 361/361/361 356/356/356 364/364/364
f 363/363/363 361/361/361 364/364/364
f 356/356/356 359/359/359 365/365/365
f 356/356/356 365/365/365 364/364/364
f 359/359/359 363/363/363 366/366/366
f 359/359/359 366/366/366 365/365/365
f 367/367/367 363/363/363 364/364/364
f 363/363/363 367/367/367 366/366/366
f 364/364/364 365/365/365 368/368/368
f 365/365/365 366/366/366 369/369/369
f 368/368/368 365/365/365 369/369/369
f 366/366/366 367/367/367 370/370/370
f 369/369/369 366/366/366 370/370/370
f 367/367/367 364/364/364 371/371/371
f 371/371/371 364/364/364 368/368/368
f 370/370/370 367/367/367 371/371/371
f 372/372/372 368/368/368 369/369/369
f 372/372/372 371/371/371 368/368/368
f 372/372/372 370/370/370 371/371/371
f 370/370/370 372/372/372 369/369/369
f 375/375/375 374/374/374 373/373/373
f 376/376/376 375/375/375 373/373/373
f 375/375/375 376/376/376 377/377/377
f 376/376/376 373/373/373 378/378/378
f 379/379/379 376/376/376 378/378/378
f 377/377/377 376/376/376 379/379/379
f 378/378/378 380/380/380 379/379/379
f 381/381/381 380/380/380 374/374/374
f 375/375/375 381/381/381 374/374/374
f 380/380/380 381/381/381 379/379/379
f 381/381/381 375/375/375 382/382/382
f 382/382/382 375/375/375 377/377/377
f 379/379/379 381/381/381 383/383/383
f 383/383/383 381/381/381 382/382/382
f 384/384/384 377/377/377 379/379/379
f 384/384/384 379/379/379 383/383/383
f 384/384/384 383/383/383 385/385/385
f 377/377/377 384/384/384 385/385/385
f 383/383/383 382/382/382 386/386/386
f 383/383/383 386/386/386 385/385/385
f 382/382/382 377/377/377 387/387/387
f 382/382/382 387/387/387 386/386/386
f 388/388/388 377/377/377 385/385/385
f 377/377/377 388/388/388 387/387/387
f 386/386/386 387/387/387 389/389/389
f 385/385/385 386/386/386 389/389/389
f 389/389/389 388/388/388 385/385/385
f 389/389/389 387/387/387 388/388/388
f 392/392/392 391/391/391 390/390/390
f 390/390/390 391/391/391 393/393/393
f 391/391/391 392/392/392 393/393/393
f 394/394/394 392/392/392 390/390/390
f 394/394/394 390/390/390 395/395/395
f 392/392/392 394/394/394 396/396/396
f 396/396/396 394/394/394 395/395/395
f 397/397/397 390/390/390 393/393/393
f 390/390/390 398/398/398 395/395/395
f 398/398/398 390/390/390 397/397/397
f 395/395/395 398/398/398 399/399/399
f 399/399/399 398/398/398 397/397/397
f 400/400/400 396/396/396 395/395/395
f 400/400/400 395/395/395 401/401/401
f 401/401/401 395/395/395 399/399/399
f 396/396/396 400/400/400 402/402/402
f 402/402/402 400/400/400 401/401/401
f 399/399/399 397/397/397 403/403/403
f 397/397/397 393/393/393 404/404/404
f 403/403/403 397/397/397 404/404/404
f 405/405/405 399/399/399 403/403/403
f 401/401/401 399/399/399 405/405/405
f 403/403/403 404/404/404 406/406/406
f 405/405/405 403/403/403 406/406/406
f 404/404/404 393/393/393 407/407/407
f 404/404/404 407/407/407 406/406/406
f 408/408/408 401/401/401 405/405/405
f 408/408/408 405/405/405 406/406/406
f 408/408/408 409/409/409 401/401/401
f 408/408/408 406/406/406 409/409/409
f 409/409/409 402/402/402 401/401/401
f 406/406/406 410/410/410 409/409/409
f 402/402/402 409/409/409 410/410/410
f 406/406/406 407/407/407 410/410/410
f 411/411/411 396/396/396 402/402/402
f 411/411/411 402/402/402 410/410/410
f 393/393/393 412/412/412 407/407/407
f 392/392/392 412/412/412 393/393/393
f 413/413/413 392/392/392 396/396/396
f 413/413/413 396/396/396 411/411/411
f 412/412/412 392/392/392 414/414/414
f 392/392/392 413/413/413 414/414/414
f 412/412/412 414/414/414 407/407/407
f 414/414/414 413/413/413 411/411/411
f 410/410/410 415/415/415 411/411/411
f 407/407/407 415/415/415 410/410/410
f 415/415/415 414/414/414 411/411/411
f 414/414/414 415/415/415 407/407/407
f 418/418/418 417/417/417 416/416/416
f 419/419/419 418/418/418 416/416/416
f 417/417/417 418/418/418 420/420/420
f 420/420/420 418/418/418 419/419/419
f 417/417/417 421/421/421 416/416/416
f 422/422/422 419/419/419 416/416/416
f 422/422/422 416/416/416 423/423/423
f 416/416/416 421/421/421 424/424/424
f 423/423/423 416/416/416 424/424/424
f 425/425/425 422/422/422 423/423/423
f 419/419/419 422/422/422 425/425/425
f 423/423/423 424/424/424 426/426/426
f 423/423/423 426/426/426 425/425/425
f 427/427/427 419/419/419 425/425/425
f 428/428/428 420/420/420 419/419/419
f 428/428/428 419/419/419 427/427/427
f 426/426/426 429/429/429 425/425/425
f 425/425/425 429/429/429 427/427/427
f 421/421/421 417/417/417 430/430/430
f 424/424/424 421/421/421 431/431/431
f 421/421/421 430/430/430 431/431/431
f 431/431/431 432/432/432 424/424/424
f 424/424/424 433/433/433 426/426/426
f 432/432/432 433/433/433 424/424/424
f 431/431/431 430/430/430 434/434/434
f 431/431/431 434/434/434 432/432/432
f 426/426/426 433/433/433 435/435/435
f 429/429/429 426/426/426 436/436/436
f 436/436/436 426/426/426 435/435/435
f 433/433/433 432/432/432 437/437/437
f 435/435/435 433/433/433 437/437/437
f 438/438/438 429/429/429 436/436/436
f 429/429/429 439/439/439 427/427/427
f 439/439/439 429/429/429 438/438/438
f 436/436/436 435/435/435 440/440/440
f 436/436/436 440/440/440 438/438/438
f 437/437/437 432/432/432 441/441/441
f 437/437/437 442/442/442 435/435/435
f 437/437/437 441/441/441 442/442/442
f 434/434/434 443/443/443 432/432/432
f 432/432/432 443/443/443 441/441/441
f 435/435/435 444/444/444 440/440/440
f 442/442/442 444/444/444 435/435/435
f 439/439/439 445/445/445 427/427/427
f 446/446/446 439/439/439 438/438/438
f 445/445/445 439/439/439 446/446/446
f 440/440/440 447/447/447 438/438/438
f 446/446/446 438/438/438 447/447/447
f 448/448/448 447/447/447 440/440/440
f 448/448/448 446/446/446 447/447/447
f 440/440/440 444/444/444 449/449/449
f 449/449/449 448/448/448 440/440/440
f 445/445/445 450/450/450 427/427/427
f 450/450/450 428/428/428 427/427/427
f 442/442/442 451/451/451 444/444/444
f 444/444/444 452/452/452 449/449/449
f 451/451/451 452/452/452 444/444/444
f 452/452/452 451/451/451 453/453/453
f 442/442/442 454/454/454 451/451/451
f 441/441/441 454/454/454 442/442/442
f 449/449/449 452/452/452 455/455/455
f 455/455/455 452/452/452 453/453/453
f 448/448/448 449/449/449 456/456/456
f 456/456/456 449/449/449 455/455/455
f 454/454/454 457/457/457 451/451/451
f 451/451/451 457/457/457 453/453/453
f 441/441/441 458/458/458 454/454/454
f 458/458/458 457/457/457 454/454/454
f 459/459/459 458/458/458 441/441/441
f 443/443/443 459/459/459 441/441/441
f 458/458/458 460/460/460 457/457/457
f 458/458/458 459/459/459 460/460/460
f 461/461/461 448/448/448 456/456/456
f 446/446/446 448/448/448 461/461/461
f 462/462/462 446/446/446 461/461/461
f 462/462/462 445/445/445 446/446/446
f 461/461/461 463/463/463 462/462/462
f 461/461/461 456/456/456 463/463/463
f 445/445/445 462/462/462 464/464/464
f 463/463/463 464/464/464 462/462/462
f 456/456/456 465/465/465 463/463/463
f 463/463/463 465/465/465 464/464/464
f 466/466/466 445/445/445 464/464/464
f 445/445/445 466/466/466 450/450/450
f 465/465/465 456/456/456 467/467/467
f 456/456/456 455/455/455 467/467/467
f 455/455/455 453/453/453 467/467/467
f 465/465/465 468/468/468 464/464/464
f 464/464/464 468/468/468 466/466/466
f 465/465/465 467/467/467 468/468/468
f 466/466/466 469/469/469 450/450/450
f 428/428/428 450/450/450 469/469/469
f 468/468/468 470/470/470 466/466/466
f 466/466/466 470/470/470 469/469/469
f 467/467/467 471/471/471 468/468/468
f 453/453/453 472/472/472 467/467/467
f 467/467/467 472/472/472 471/471/471
f 471/471/471 473/473/473 468/468/468
f 473/473/473 470/470/470 468/468/468
f 472/472/472 474/474/474 471/471/471
f 471/471/471 474/474/474 473/473/473
f 475/475/475 472/472/472 453/453/453
f 472/472/472 475/475/475 474/474/474
f 476/476/476 475/475/475 453/453/453
f 457/457/457 476/476/476 453/453/453
f 460/460/460 476/476/476 457/457/457
f 476/476/476 460/460/460 475/475/475
f 460/460/460 477/477/477 475/475/475
f 475/475/475 477/477/477 474/474/474
f 460/460/460 478/478/478 477/477/477
f 459/459/459 478/478/478 460/460/460
f 477/477/477 479/479/479 474/474/474
f 478/478/478 479/479/479 477/477/477
f 474/474/474 480/480/480 473/473/473
f 479/479/479 480/480/480 474/474/474
f 473/473/473 481/481/481 470/470/470
f 473/473/473 480/480/480 481/481/481
f 478/478/478 459/459/459 482/482/482
f 478/478/478 482/482/482 479/479/479
f 479/479/479 483/483/483 480/480/480
f 482/482/482 483/483/483 479/479/479
f 481/481/481 484/484/484 470/470/470
f 470/470/470 484/484/484 469/469/469
f 480/480/480 485/485/485 481/481/481
f 483/483/483 485/485/485 480/480/480
f 459/459/459 486/486/486 482/482/482
f 486/486/486 459/459/459 443/443/443
f 434/434/434 486/486/486 443/443/443
f 434/434/434 487/487/487 486/486/486
f 430/430/430 487/487/487 434/434/434
f 487/487/487 488/488/488 486/486/486
f 486/486/486 488/488/488 482/482/482
f 488/488/488 487/487/487 430/430/430
f 482/482/482 489/489/489 483/483/483
f 488/488/488 489/489/489 482/482/482
f 490/490/490 488/488/488 430/430/430
f 417/417/417 490/490/490 430/430/430
f 488/488/488 490/490/490 491/491/491
f 489/489/489 488/488/488 491/491/491
f 491/491/491 490/490/490 417/417/417
f 489/489/489 492/492/492 483/483/483
f 483/483/483 492/492/492 485/485/485
f 489/489/489 491/491/491 492/492/492
f 493/493/493 491/491/491 417/417/417
f 493/493/493 417/417/417 420/420/420
f 491/491/491 494/494/494 492/492/492
f 492/492/492 494/494/494 485/485/485
f 494/494/494 491/491/491 493/493/493
f 485/485/485 494/494/494 495/495/495
f 495/495/495 494/494/494 493/493/493
f 481/481/481 485/485/485 495/495/495
f 481/481/481 495/495/495 484/484/484
f 493/493/493 420/420/420 496/496/496
f 495/495/495 493/493/493 496/496/496
f 495/495/495 496/496/496 484/484/484
f 496/496/496 420/420/420 428/428/428
f 484/484/484 496/496/496 497/497/497
f 497/497/497 496/496/496 428/428/428
f 469/469/469 484/484/484 497/497/497
f 497/497/497 428/428/428 469/469/469
f 500/500/500 499/499/499 498/498/498
f 500/500/500 498/498/498 501/501/501
f 499/499/499 500/500/500 502/502/502
f 500/500/500 501/501/501 502/502/502
f 499/499/499 503/503/503 498/498/498
f 504/504/504 498/498/498 503/503/503
f 498/498/498 505/505/505 501/501/501
f 498/498/498 504/504/504 505/505/505
f 506/506/506 503/503/503 499/499/499
f 506/506/506 504/504/504 503/503/503
f 501/501/501 507/507/507 502/502/502
f 508/508/508 501/501/501 505/505/505
f 507/507/507 501/501/501 508/508/508
f 509/509/509 506/506/506 499/499/499
f 506/506/506 510/510/510 504/504/504
f 510/510/510 506/506/506 509/509/509
f 511/511/511 499/499/499 502/502/502
f 509/509/509 499/499/499 512/512/512
f 499/499/499 511/511/511 512/512/512
f 509/509/509 512/512/512 513/513/513
f 512/512/512 511/511/511 514/514/514
f 513/513/513 512/512/512 514/514/514
f 515/515/515 511/511/511 502/502/502
f 511/511/511 515/515/515 514/514/514
f 516/516/516 515/515/515 502/502/502
f 502/502/502 507/507/507 516/516/516
f 517/517/517 514/514/514 515/515/515
f 516/516/516 517/517/517 515/515/515
f 518/518/518 510/510/510 509/509/509
f 518/518/518 509/509/509 513/513/513
f 507/507/507 519/519/519 516/516/516
f 517/517/517 516/516/516 519/519/519
f 520/520/520 513/513/513 514/514/514
f 520/520/520 514/514/514 517/517/517
f 521/521/521 520/520/520 517/517/517
f 522/522/522 517/517/517 519/519/519
f 521/521/521 517/517/517 522/522/522
f 520/520/520 523/523/523 513/513/513
f 523/523/523 520/520/520 521/521/521
f 524/524/524 518/518/518 513/513/513
f 523/523/523 525/525/525 513/513/513
f 525/525/525 524/524/524 513/513/513
f 525/525/525 523/523/523 526/526/526
f 526/526/526 523/523/523 521/521/521
f 527/527/527 525/525/525 526/526/526
f 524/524/524 525/525/525 527/527/527
f 524/524/524 528/528/528 518/518/518
f 528/528/528 510/510/510 518/518/518
f 529/529/529 526/526/526 521/521/521
f 526/526/526 529/529/529 527/527/527
f 528/528/528 524/524/524 530/530/530
f 530/530/530 524/524/524 527/527/527
f 531/531/531 530/530/530 527/527/527
f 532/532/532 528/528/528 530/530/530
f 528/528/528 532/532/532 510/510/510
f 530/530/530 531/531/531 532/532/532
f 533/533/533 529/529/529 521/521/521
f 533/533/533 521/521/521 522/522/522
f 534/534/534 533/533/533 522/522/522
f 533/533/533 534/534/534 529/529/529
f 529/529/529 535/535/535 527/527/527
f 535/535/535 531/531/531 527/527/527
f 529/529/529 536/536/536 535/535/535
f 534/534/534 536/536/536 529/529/529
f 536/536/536 537/537/537 535/535/535
f 535/535/535 537/537/537 531/531/531
f 536/536/536 534/534/534 537/537/537
f 538/538/538 534/534/534 522/522/522
f 538/538/538 522/522/522 519/519/519
f 532/532/532 539/539/539 510/510/510
f 539/539/539 532/532/532 540/540/540
f 510/510/510 539/539/539 504/504/504
f 504/504/504 539/539/539 540/540/540
f 531/531/531 541/541/541 532/532/532
f 532/532/532 541/541/541 540/540/540
f 541/541/541 531/531/531 542/542/542
f 541/541/541 542/542/542 540/540/540
f 537/537/537 543/543/543 531/531/531
f 531/531/531 543/543/543 542/542/542
f 544/544/544 543/543/543 537/537/537
f 543/543/543 544/544/544 542/542/542
f 534/534/534 545/545/545 537/537/537
f 534/534/534 538/538/538 545/545/545
f 545/545/545 544/544/544 537/537/537
f 546/546/546 538/538/538 519/519/519
f 546/546/546 519/519/519 507/507/507
f 547/547/547 546/546/546 507/507/507
f 538/538/538 546/546/546 547/547/547
f 547/547/547 507/507/507 508/508/508
f 538/538/538 548/548/548 545/545/545
f 548/548/548 538/538/538 547/547/547
f 545/545/545 548/548/548 544/544/544
f 548/548/548 547/547/547 549/549/549
f 547/547/547 508/508/508 549/549/549
f 548/548/548 549/549/549 544/544/544
f 544/544/544 550/550/550 542/542/542
f 542/542/542 550/550/550 540/540/540
f 550/550/550 544/544/544 551/551/551
f 544/544/544 549/549/549 551/551/551
f 540/540/540 550/550/550 551/551/551
f 549/549/549 508/508/508 552/552/552
f 551/551/551 549/549/549 552/552/552
f 552/552/552 508/508/508 505/505/505
f 551/551/551 552/552/552 505/505/505
f 553/553/553 540/540/540 551/551/551
f 553/553/553 551/551/551 505/505/505
f 553/553/553 504/504/504 540/540/540
f 504/504/504 553/553/553 505/505/505
f 556/556/556 555/555/555 554/554/554
f 557/557/557 556/556/556 554/554/554
f 558/558/558 554/554/554 555/555/555
f 557/557/557 554/554/554 558/558/558
f 557/557/557 559/559/559 556/556/556
f 560/560/560 557/557/557 558/558/558
f 559/559/559 557/557/557 560/560/560
f 561/561/561 558/558/558 555/555/555
f 560/560/560 558/558/558 562/562/562
f 562/562/562 558/558/558 561/561/561
f 563/563/563 559/559/559 560/560/560
f 559/559/559 564/564/564 556/556/556
f 564/564/564 559/559/559 563/563/563
f 565/565/565 560/560/560 562/562/562
f 563/563/563 560/560/560 565/565/565
f 556/556/556 564/564/564 566/566/566
f 567/567/567 564/564/564 563/563/563
f 566/566/566 564/564/564 567/567/567
f 568/568/568 556/556/556 566/566/566
f 555/555/555 556/556/556 568/568/568
f 569/569/569 563/563/563 565/565/565
f 567/567/567 563/563/563 569/569/569
f 570/570/570 566/566/566 567/567/567
f 568/568/568 566/566/566 570/570/570
f 571/571/571 567/567/567 569/569/569
f 571/571/571 569/569/569 565/565/565
f 570/570/570 567/567/567 571/571/571
f 565/565/565 562/562/562 572/572/572
f 572/572/572 571/571/571 565/565/565
f 562/562/562 573/573/573 572/572/572
f 573/573/573 562/562/562 561/561/561
f 572/572/572 574/574/574 571/571/571
f 572/572/572 573/573/573 574/574/574
f 575/575/575 570/570/570 571/571/571
f 574/574/574 575/575/575 571/571/571
f 576/576/576 570/570/570 575/575/575
f 576/576/576 568/568/568 570/570/570
f 574/574/574 576/576/576 575/575/575
f 577/577/577 555/555/555 568/568/568
f 577/577/577 568/568/568 576/576/576
f 555/555/555 577/577/577 578/578/578
f 578/578/578 577/577/577 576/576/576
f 561/561/561 555/555/555 578/578/578
f 578/578/578 576/576/576 574/574/574
f 573/573/573 561/561/561 579/579/579
f 573/573/573 579/579/579 574/574/574
f 561/561/561 578/578/578 579/579/579
f 579/579/579 578/578/578 574/574/574
f 582/582/582 581/581/581 580/580/580
f 583/583/583 582/582/582 580/580/580
f 584/584/584 580/580/580 581/581/581
f 580/580/580 584/584/584 583/583/583
f 583/583/583 585/585/585 582/582/582
f 584/584/584 586/586/586 583/583/583
f 583/583/583 586/586/586 585/585/585
f 587/587/587 584/584/584 581/581/581
f 584/584/584 588/588/588 586/586/586
f 588/588/588 584/584/584 587/587/587
f 588/588/588 589/589/589 586/586/586
f 586/586/586 590/590/590 585/585/585
f 586/586/586 589/589/589 590/590/590
f 591/591/591 588/588/588 587/587/587
f 588/588/588 591/591/591 589/589/589
f 585/585/585 590/590/590 592/592/592
f 589/589/589 593/593/593 590/590/590
f 590/590/590 593/593/593 592/592/592
f 591/591/591 594/594/594 589/589/589
f 589/589/589 594/594/594 593/593/593
f 595/595/595 591/591/591 587/587/587
f 591/591/591 595/595/595 594/594/594
f 594/594/594 596/596/596 593/593/593
f 593/593/593 596/596/596 592/592/592
f 597/597/597 595/595/595 587/587/587
f 587/587/587 581/581/581 597/597/597
f 595/595/595 598/598/598 594/594/594
f 594/594/594 598/598/598 596/596/596
f 595/595/595 597/597/597 598/598/598
f 599/599/599 585/585/585 592/592/592
f 585/585/585 599/599/599 582/582/582
f 599/599/599 592/592/592 600/600/600
f 582/582/582 599/599/599 600/600/600
f 581/581/581 582/582/582 601/601/601
f 601/601/601 582/582/582 600/600/600
f 592/592/592 602/602/602 600/600/600
f 592/592/592 596/596/596 602/602/602
f 601/601/601 600/600/600 602/602/602
f 598/598/598 603/603/603 596/596/596
f 596/596/596 603/603/603 602/602/602
f 598/598/598 604/604/604 603/603/603
f 604/604/604 602/602/602 603/603/603
f 597/597/597 604/604/604 598/598/598
f 604/604/604 601/601/601 602/602/602
f 605/605/605 581/581/581 601/601/601
f 581/581/581 605/605/605 597/597/597
f 605/605/605 601/601/601 604/604/604
f 597/597/597 605/605/605 604/604/604
