g roads
v -23 -67.72181 9.536743E-07
v -23 -61.077435 9.536743E-07
v -20.711067 -61.057808 6.9232357E-07
v 21.981043 9.994202 0
v 21.981043 20 0
v 27.372375 20 0
v 27.372375 9.994202 0
v 21.981043 4.41185 0
v 27.372375 4.41185 0
v 8.212471 11.863513 0
v 21.981043 -12.455143 0
v 6.632475 6.559982 0
v 3.6087308 13.010835 0
v 27.372375 -12.455143 0
v 1.6980038 7.7656674 0
v -23 18.659525 0
v -23 13.592416 0
v 21.981043 -17.9998 0
v 4.4581513 -11.397571 0
v 4.5166883 -16.60097 0
v 27.372375 -17.9998 0
v 25.45446 -29.842758 0
v 50.857033 -17.9998 0
v 31.055454 -29.842758 0
v 51.645737 -12.455143 0
v 56.64323 -17.9998 0
v 56.64323 -12.455143 0
v 69.66921 -19.884527 0
v 71.5584 -14.012508 0
v 77 -22.7559 0
v 77 -16.571985 0
v 57.600628 -42.62538 0
v 51.753075 -40.332863 0
v 25.341455 -35.737305 0
v 6.379416 -29.842758 0
v 6.379416 -35.737305 0
v 31.055454 -35.737305 0
v 25.482351 -52.036808 1.8051745E-08
v 37.073925 -35.737305 0
v 38.972965 -30.559763 0
v 31.22771 -50.04166 -5.9604645E-08
v 48.508972 -44.580315 0
v 52.087387 -49.903423 0
v 31.55824 -56.86148 1.4901161E-08
v 58.003532 -48.63925 0
v 77 -52.47606 0
v 77 -46.188213 0
v 60.74462 -88.82179 -2.9802322E-08
v 55.069103 -89.25907 0
v 55.753307 -95.95096 0
v 32.243973 -84.59079 0
v 61.12219 -98.57808 0
v 32.13607 -89.66855 0
v 27.152924 -88.48561 0
v 23.303555 -99.137726 0
v 27.168287 -84.649284 0
v 31.817364 -73.94235 0
v 26.901909 -76.7902 0
v 26.454811 -71.509674 -2.086421E-09
v 8.862483 -77.1994 -1.1920929E-07
v 8.996192 -82.58128 -1.1920929E-07
v 67.71309 -92.21024 5.9604645E-08
v 77 -100.82358 0
v 77 -93.25735 0
v 77 -76.91016 0
v 77 -63.703167 0
v 3.6452088 -78.428825 -1.1920929E-07
v 9.691474 -96.52957 0
v 4.7485657 -101.26519 0
v 2.2491744 -64.018295 5.2532465E-07
v 7.2375517 -62.574802 5.3029027E-07
v 1.0241466 -58.2158 4.5337742E-07
v 6.1958003 -57.02368 3.9819426E-07
v 25.839914 -57.7958 1.5453365E-08
v 23.303555 -99.137726 0
v 9.691474 -96.52957 0
v 21.479755 -104.7691 0
v 32.13607 -89.66855 0
v 21.038204 -120.02261 0
v 16.614145 -118.513214 0
v 21.479755 -104.7691 0
v 16.137194 -124.34229 0
v -23 -103.24186 0
v -23 -109.07094 0
v 20.866219 -125.98919 0
v 46.504883 -130.66714 -1.4901161E-08
v 19.472195 -141.61719 0
v 45.341934 -135.48938 0
v 50.096535 -135.69319 1.8626451E-09
v 23.849102 -140.85559 0
v 20.261541 -145.70592 0
v -23 -140.4091 0
v -23 -144.49783 0
v 24.668442 -144.93909 0
v 22.71513 -158.41522 0
v 27.372375 -158.41522 0
v 22.71513 -164 0
v 27.372375 -164 0
v 22.72498 -169.66512 0
v 44.89531 -164 0
v 44.89531 -158.41522 0
v 27.362526 -169.66512 0
v 49.962944 -164 0
v 49.962944 -158.41522 0
v 77 -164 0
v 77 -158.41522 0
v 22.734953 -176.05612 -0.0006869382
v -23 -169.18391 0
v -23 -175.46028 0
v 27.359251 -174.55678 0
v 23.068302 -250.94962 -0.03500004
v 27.314161 -253.36217 0
v 24.667482 -256.91168 0
v 16.665976 -260.9731 0
v 32.58875 -268.95078 0
v 20.133913 -263.7752 0
v 14.111502 -264.12454 0
v 27.521759 -265.7722 0
v 17.086315 -267.43814 0
v -3.487917 -285.83673 0
v 27.519646 -271.1878 0
v -0.76731694 -289.98834 5.9604645E-08
v 30.851694 -273.67255 2.2351742E-08
v -8.55235 -287.6249 -0.017500006
v 40.526024 -284.384 -2.9802322E-08
v -8.228753 -292.63434 5.9604645E-08
v 43.38004 -280.60413 0
v -12.189253 -288.04657 -0.017500006
v 42.86783 -289.3755 0
v -11.865656 -293.056 5.9604645E-08
v -23 -284.42883 -0.017500006
v -23 -289.03015 0
v 46.71897 -288.0226 0
v 42.926502 -300 0
v 47.00576 -300 0
v 25.839914 -57.7958 1.5453365E-08
v 25.482351 -52.036808 1.8051745E-08
v 31.55824 -56.86148 1.4901161E-08
v 2.2491744 -64.018295 5.2532465E-07
v -14.980481 -66.67863 6.8778144E-07
v -15.727264 -60.738533 6.737197E-07
v 1.0241466 -58.2158 4.5337742E-07
v 1.5822458 -29.842758 0
v 6.379416 -29.842758 0
v 1.5822458 -35.737305 0
v -16.843296 -29.842758 0
v -16.843296 -35.737305 0
v -21.947762 -29.842758 0
v -21.947762 -35.737305 0
v -23 -29.842758 0
v -23 -35.737305 0
v 4.4581513 -11.397571 0
v -0.95239085 -12.684666 -1.1920929E-07
v 1.6980038 7.7656674 0
v 1.5822458 -29.842758 0
v -0.95239085 -12.684666 -1.1920929E-07
v 4.5166883 -16.60097 0
v 49.962944 -158.41522 0
v 45.341934 -135.48938 0
v 50.096535 -135.69319 1.8626451E-09
v 26.454811 -71.509674 -2.086421E-09
v 25.839914 -57.7958 1.5453365E-08
v 31.55824 -56.86148 1.4901161E-08
v -15.727264 -60.738533 6.737197E-07
v -20.711067 -61.057808 6.9232357E-07
v -21.947762 -35.737305 0
v -16.843296 -35.737305 0
v -20.711067 -61.057808 6.9232357E-07
v -15.727264 -60.738533 6.737197E-07
v -14.980481 -66.67863 6.8778144E-07
v -23 -67.72181 9.536743E-07
v 50.096535 -135.69319 1.8626451E-09
v 46.504883 -130.66714 -1.4901161E-08
v 55.753307 -95.95096 0
v 61.12219 -98.57808 0
vt 0.6568858 0.15233336
vt 0.6568859 0.1523334
vt 0.656886 0.1523334
vt 0.656886 0.1523334
vt 0.656886 0.1523334
vt 0.656886 0.1523334
vt 0.656886 0.1523334
vt 0.656886 0.1523334
vt 0.656886 0.1523334
vt 0.656886 0.1523334
vt 0.656886 0.1523334
vt 0.656886 0.1523334
vt 0.656886 0.1523334
vt 0.656886 0.1523334
vt 0.656886 0.1523334
vt 0.656886 0.15233338
vt 0.656886 0.1523334
vt 0.6568859 0.1523334
vt 0.656886 0.15233338
vt 0.656886 0.15233338
vt 0.656886 0.1523334
vt 0.656886 0.1523334
vt 0.656886 0.1523334
vt 0.656886 0.1523334
vt 0.656886 0.1523334
vt 0.656886 0.1523334
vt 0.656886 0.1523334
vt 0.656886 0.1523334
vt 0.656886 0.1523334
vt 0.656886 0.15233341
vt 0.656886 0.1523334
vt 0.656886 0.1523334
vt 0.656886 0.1523334
vt 0.6568859 0.1523334
vt 0.656886 0.1523334
vt 0.6568859 0.1523334
vt 0.656886 0.1523334
vt 0.6568859 0.1523334
vt 0.656886 0.1523334
vt 0.656886 0.1523334
vt 0.656886 0.1523334
vt 0.656886 0.1523334
vt 0.656886 0.1523334
vt 0.656886 0.1523334
vt 0.656886 0.1523334
vt 0.656886 0.1523334
vt 0.656886 0.1523334
vt 0.656886 0.1523334
vt 0.656886 0.1523334
vt 0.6568859 0.15233338
vt 0.656886 0.15233338
vt 0.656886 0.1523334
vt 0.656886 0.1523334
vt 0.656886 0.1523334
vt 0.65688604 0.15233341
vt 0.656886 0.1523334
vt 0.656886 0.1523334
vt 0.656886 0.1523334
vt 0.6568859 0.1523334
vt 0.656886 0.1523334
vt 0.656886 0.1523334
vt 0.656886 0.1523334
vt 0.656886 0.1523334
vt 0.656886 0.1523334
vt 0.656886 0.1523334
vt 0.656886 0.1523334
vt 0.656886 0.1523334
vt 0.656886 0.15233341
vt 0.656886 0.1523334
vt 0.6568859 0.1523334
vt 0.6568859 0.1523334
vt 0.6568859 0.15233338
vt 0.6568859 0.1523334
vt 0.65688586 0.15233338
vt 0.65688604 0.15233341
vt 0.656886 0.15233341
vt 0.656886 0.1523334
vt 0.656886 0.15233338
vt 0.656886 0.1523334
vt 0.656886 0.1523334
vt 0.656886 0.1523334
vt 0.656886 0.1523334
vt 0.656886 0.1523334
vt 0.656886 0.1523334
vt 0.656886 0.1523334
vt 0.656886 0.15233338
vt 0.656886 0.1523334
vt 0.656886 0.15233338
vt 0.6568859 0.1523334
vt 0.656886 0.1523334
vt 0.656886 0.1523334
vt 0.656886 0.1523334
vt 0.656886 0.1523334
vt 0.6568859 0.15233338
vt 0.656886 0.1523334
vt 0.656886 0.1523334
vt 0.656886 0.1523334
vt 0.656886 0.1523334
vt 0.656886 0.1523334
vt 0.656886 0.1523334
vt 0.656886 0.1523334
vt 0.656886 0.15233338
vt 0.6568859 0.1523334
vt 0.656886 0.1523334
vt 0.656886 0.1523334
vt 0.656886 0.1523334
vt 0.6568859 0.1523334
vt 0.656886 0.1523334
vt 0.656886 0.1523334
vt 0.656886 0.1523334
vt 0.656886 0.1523334
vt 0.65688604 0.1523334
vt 0.656886 0.1523334
vt 0.6568859 0.15233338
vt 0.656886 0.1523334
vt 0.656886 0.1523334
vt 0.6568859 0.15233338
vt 0.656886 0.1523334
vt 0.656886 0.1523334
vt 0.656886 0.1523334
vt 0.656886 0.1523334
vt 0.656886 0.1523334
vt 0.656886 0.1523334
vt 0.656886 0.1523334
vt 0.656886 0.1523334
vt 0.656886 0.1523334
vt 0.656886 0.1523334
vt 0.656886 0.1523334
vt 0.656886 0.1523334
vt 0.656886 0.1523334
vt 0.656886 0.1523334
vt 0.656886 0.1523334
vt 0.656886 0.1523334
vt 0.656886 0.1523334
vt 0.656886 0.1523334
vt 0.65688586 0.15233338
vt 0.6568859 0.1523334
vt 0.656886 0.1523334
vt 0.6568859 0.1523334
vt 0.6568858 0.15233336
vt 0.656886 0.15233338
vt 0.6568859 0.15233338
vt 0.656886 0.15233338
vt 0.656886 0.1523334
vt 0.6568859 0.1523334
vt 0.656886 0.15233338
vt 0.6568859 0.1523334
vt 0.656886 0.15233338
vt 0.6568859 0.1523334
vt 0.656886 0.1523334
vt 0.6568859 0.1523334
vt 0.656886 0.15233338
vt 0.65688604 0.15233338
vt 0.656886 0.1523334
vt 0.656886 0.15233338
vt 0.65688604 0.15233338
vt 0.656886 0.15233338
vt 0.656886 0.1523334
vt 0.656886 0.15233338
vt 0.6568859 0.1523334
vt 0.6568859 0.1523334
vt 0.65688586 0.15233338
vt 0.656886 0.1523334
vt 0.656886 0.15233338
vt 0.656886 0.1523334
vt 0.6568859 0.1523334
vt 0.6568859 0.1523334
vt 0.656886 0.1523334
vt 0.656886 0.15233338
vt 0.6568858 0.15233336
vt 0.6568858 0.15233336
vt 0.6568859 0.1523334
vt 0.656886 0.15233338
vt 0.6568859 0.15233338
vt 0.656886 0.1523334
vn -0 0 1
vn -0 0 1
vn -0 0 1
vn -0 0 1
vn -0 0 1
vn -0 0 1
vn -0 0 1
vn -0 0 1
vn -0 0 1
vn -0 0 1
vn -0 0 1
vn -0 0 1
vn -0 0 1
vn -0 0 1
vn -0 0 1
vn -0 0 1
vn -0 0 1
vn -0 0 1
vn -0 0 1
vn -0 0 1
vn -0 0 1
vn -0 0 1
vn -0 0 1
vn -0 0 1
vn -0 0 1
vn -0 0 1
vn -0 0 1
vn -0 0 1
vn -0 0 1
vn -0 0 1
vn -0 0 1
vn -0 0 1
vn -0 0 1
vn -0 0 1
vn -0 0 1
vn -0 0 1
vn -0 0 1
vn -0 0 1
vn -0 0 1
vn -0 0 1
vn -0 0 1
vn -0 0 1
vn -0 0 1
vn -0 0 1
vn -0 0 1
vn -0 0 1
vn -0 0 1
vn -0 0 1
vn -0 0 1
vn -0 0 1
vn -0 0 1
vn -0 0 1
vn -0 0 1
vn -0 0 1
vn -0 0 1
vn -0 0 1
vn -0 0 1
vn -0 0 1
vn -0 0 1
vn -0 0 1
vn -0 0 1
vn -0 0 1
vn -0 0 1
vn -0 0 1
vn -0 0 1
vn -0 0 1
vn -0 0 1
vn -0 0 1
vn -0 0 1
vn -0 0 1
vn -0 0 1
vn -0 0 1
vn -0 0 1
vn -0 0 1
vn -0 0 1
vn -0 0 1
vn -0 0 1
vn -0 0 1
vn -0 0 1
vn -0 0 1
vn -0 0 1
vn -0 0 1
vn -0 0 1
vn -0 0 1
vn -0 0 1
vn -0 0 1
vn -0 0 1
vn -0 0 1
vn -0 0 1
vn -0 0 1
vn -0 0 1
vn -0 0 1
vn -0 0 1
vn -0 0 1
vn -0 0 1
vn -0 0 1
vn -0 0 1
vn -0 0 1
vn -0 -5.422341E-05 1
vn -0 0 1
vn -0 0 1
vn -6.430612E-05 -6.0922444E-05 1
vn -0 0 1
vn -0 0 1
vn -0 0 1
vn -0 0 1
vn -0 -5.422341E-05 1
vn -0 -5.422341E-05 1
vn -0 -5.422341E-05 1
vn -0.0040469957 -0.00023083716 0.9999918
vn -0.0057899705 0.0043172627 0.9999739
vn -0.0057899705 0.0043172627 0.9999739
vn -0.0057899705 0.0043172627 0.9999739
vn -0 0 1
vn -0 0 1
vn -0 0 1
vn -0 0 1
vn -0 0 1
vn -0 0 1
vn -0 0 1
vn -0 0 1
vn -0 0 1
vn -0 0 1
vn -0.0018551223 0.0012938211 0.9999975
vn -0 0 1
vn -0.0018551223 0.0012938211 0.9999975
vn -0 0 1
vn -0.00040201758 0.003467471 0.9999939
vn -0 0 1
vn -0.00040201758 0.003467471 0.9999939
vn 0.0012834766 0.0036849293 0.9999924
vn 0.0012834766 0.0036849293 0.9999924
vn -0 0 1
vn -0 0 1
vn -0 0 1
vn -0 0 1
vn -0 0 1
vn -0 0 1
vn -0 0 1
vn -0 0 1
vn -0 0 1
vn -0 0 1
vn -0 0 1
vn -0 0 1
vn -0 0 1
vn -0 0 1
vn -0 0 1
vn -0 0 1
vn -0 0 1
vn -0 0 1
vn -0 0 1
vn -0 0 1
vn -0 0 1
vn -0 0 1
vn -0 0 1
vn -0 0 1
vn -0 0 1
vn -0 0 1
vn -0 0 1
vn -0 0 1
vn -0 0 1
vn -0 0 1
vn -0 0 1
vn -0 0 1
vn -0 0 1
vn -0 0 1
vn -0 0 1
vn -0 0 1
vn -0 0 1
vn -0 0 1
vn -0 0 1
vn -0 0 1
vn -0 0 1
vn -0 0 1
vn -0 0 1
g roads_0
f 3/3/3 2/2/2 1/1/1
f 6/6/6 5/5/5 4/4/4
f 7/7/7 6/6/6 4/4/4
f 7/7/7 4/4/4 8/8/8
f 9/9/9 7/7/7 8/8/8
f 4/4/4 10/10/10 8/8/8
f 9/9/9 8/8/8 11/11/11
f 10/10/10 12/12/12 8/8/8
f 10/10/10 13/13/13 12/12/12
f 14/14/14 9/9/9 11/11/11
f 13/13/13 15/15/15 12/12/12
f 13/13/13 16/16/16 15/15/15
f 16/16/16 17/17/17 15/15/15
f 14/14/14 11/11/11 18/18/18
f 11/11/11 19/19/19 18/18/18
f 19/19/19 20/20/20 18/18/18
f 21/21/21 14/14/14 18/18/18
f 21/21/21 18/18/18 22/22/22
f 21/21/21 23/23/23 14/14/14
f 24/24/24 21/21/21 22/22/22
f 23/23/23 25/25/25 14/14/14
f 23/23/23 26/26/26 25/25/25
f 26/26/26 27/27/27 25/25/25
f 26/26/26 28/28/28 27/27/27
f 28/28/28 29/29/29 27/27/27
f 29/29/29 28/28/28 30/30/30
f 31/31/31 29/29/29 30/30/30
f 26/26/26 23/23/23 32/32/32
f 23/23/23 33/33/33 32/32/32
f 24/24/24 22/22/22 34/34/34
f 22/22/22 35/35/35 34/34/34
f 35/35/35 36/36/36 34/34/34
f 37/37/37 24/24/24 34/34/34
f 37/37/37 34/34/34 38/38/38
f 37/37/37 39/39/39 24/24/24
f 39/39/39 40/40/40 24/24/24
f 41/41/41 37/37/37 38/38/38
f 39/39/39 42/42/42 40/40/40
f 42/42/42 33/33/33 40/40/40
f 42/42/42 43/43/43 33/33/33
f 43/43/43 32/32/32 33/33/33
f 42/42/42 41/41/41 43/43/43
f 41/41/41 44/44/44 43/43/43
f 45/45/45 32/32/32 43/43/43
f 32/32/32 45/45/45 46/46/46
f 47/47/47 32/32/32 46/46/46
f 45/45/45 43/43/43 48/48/48
f 43/43/43 49/49/49 48/48/48
f 49/49/49 50/50/50 48/48/48
f 50/50/50 49/49/49 51/51/51
f 50/50/50 52/52/52 48/48/48
f 53/53/53 50/50/50 51/51/51
f 54/54/54 53/53/53 51/51/51
f 54/54/54 55/55/55 53/53/53
f 56/56/56 54/54/54 51/51/51
f 51/51/51 57/57/57 56/56/56
f 57/57/57 58/58/58 56/56/56
f 59/59/59 58/58/58 57/57/57
f 59/59/59 60/60/60 58/58/58
f 60/60/60 61/61/61 58/58/58
f 52/52/52 62/62/62 48/48/48
f 52/52/52 63/63/63 62/62/62
f 63/63/63 64/64/64 62/62/62
f 48/48/48 62/62/62 65/65/65
f 66/66/66 48/48/48 65/65/65
f 60/60/60 67/67/67 61/61/61
f 68/68/68 61/61/61 67/67/67
f 69/69/69 68/68/68 67/67/67
f 67/67/67 60/60/60 70/70/70
f 60/60/60 71/71/71 70/70/70
f 70/70/70 71/71/71 72/72/72
f 71/71/71 73/73/73 72/72/72
f 73/73/73 71/71/71 74/74/74
f 38/38/38 73/73/73 74/74/74
f 76/76/76 69/69/69 75/75/75
f 69/69/69 77/77/77 75/75/75
f 75/75/75 77/77/77 78/78/78
f 77/77/77 79/79/79 78/78/78
f 79/79/79 81/81/81 80/80/80
f 80/80/80 82/82/82 79/79/79
f 80/80/80 83/83/83 82/82/82
f 83/83/83 84/84/84 82/82/82
f 82/82/82 85/85/85 79/79/79
f 86/86/86 79/79/79 85/85/85
f 85/85/85 82/82/82 87/87/87
f 88/88/88 86/86/86 85/85/85
f 86/86/86 88/88/88 89/89/89
f 90/90/90 85/85/85 87/87/87
f 87/87/87 91/91/91 90/90/90
f 87/87/87 92/92/92 91/91/91
f 92/92/92 93/93/93 91/91/91
f 91/91/91 94/94/94 90/90/90
f 94/94/94 91/91/91 95/95/95
f 96/96/96 94/94/94 95/95/95
f 96/96/96 95/95/95 97/97/97
f 98/98/98 96/96/96 97/97/97
f 97/97/97 99/99/99 98/98/98
f 98/98/98 100/100/100 96/96/96
f 100/100/100 101/101/101 96/96/96
f 99/99/99 102/102/102 98/98/98
f 101/101/101 100/100/100 103/103/103
f 104/104/104 101/101/101 103/103/103
f 103/103/103 105/105/105 104/104/104
f 105/105/105 106/106/106 104/104/104
f 102/102/102 99/99/99 107/107/107
f 99/99/99 108/108/108 107/107/107
f 108/108/108 109/109/109 107/107/107
f 110/110/110 102/102/102 107/107/107
f 107/107/107 111/111/111 110/110/110
f 111/111/111 112/112/112 110/110/110
f 113/113/113 112/112/112 111/111/111
f 111/111/111 114/114/114 113/113/113
f 115/115/115 112/112/112 113/113/113
f 114/114/114 116/116/116 113/113/113
f 116/116/116 114/114/114 117/117/117
f 118/118/118 115/115/115 113/113/113
f 119/119/119 116/116/116 117/117/117
f 117/117/117 120/120/120 119/119/119
f 119/119/119 121/121/121 116/116/116
f 121/121/121 118/118/118 116/116/116
f 120/120/120 122/122/122 119/119/119
f 121/121/121 123/123/123 118/118/118
f 123/123/123 115/115/115 118/118/118
f 120/120/120 124/124/124 122/122/122
f 123/123/123 125/125/125 115/115/115
f 124/124/124 126/126/126 122/122/122
f 125/125/125 127/127/127 115/115/115
f 124/124/124 128/128/128 126/126/126
f 125/125/125 129/129/129 127/127/127
f 128/128/128 130/130/130 126/126/126
f 128/128/128 131/131/131 130/130/130
f 131/131/131 132/132/132 130/130/130
f 129/129/129 133/133/133 127/127/127
f 129/129/129 134/134/134 133/133/133
f 134/134/134 135/135/135 133/133/133
f 41/41/41 137/137/137 136/136/136
f 138/138/138 41/41/41 136/136/136
f 141/141/141 140/140/140 139/139/139
f 142/142/142 141/141/141 139/139/139
f 36/36/36 144/144/144 143/143/143
f 145/145/145 36/36/36 143/143/143
f 143/143/143 146/146/146 145/145/145
f 146/146/146 147/147/147 145/145/145
f 147/147/147 146/146/146 148/148/148
f 149/149/149 147/147/147 148/148/148
f 148/148/148 150/150/150 149/149/149
f 150/150/150 151/151/151 149/149/149
f 154/154/154 153/153/153 152/152/152
f 12/12/12 154/154/154 152/152/152
f 156/156/156 155/155/155 35/35/35
f 157/157/157 156/156/156 35/35/35
f 156/156/156 157/157/157 19/19/19
f 160/160/160 159/159/159 158/158/158
f 159/159/159 101/101/101 158/158/158
f 163/163/163 162/162/162 161/161/161
f 57/57/57 163/163/163 161/161/161
f 166/166/166 165/165/165 164/164/164
f 167/167/167 166/166/166 164/164/164
f 170/170/170 169/169/169 168/168/168
f 171/171/171 170/170/170 168/168/168
f 174/174/174 173/173/173 172/172/172
f 175/175/175 174/174/174 172/172/172
