g rocks
v -411.15753 62.48558 -761.4026
v -454.63702 70.8938 -799.2727
v -459.04584 78.7115 -861.6935
v -411.15753 62.48558 -761.4026
v -519.5926 9.129766 -782.2549
v -454.63702 70.8938 -799.2727
v -406.38507 8.675828 -732.06067
v -519.5926 9.129766 -782.2549
v -411.15753 62.48558 -761.4026
v 1082.7777 38.953773 -475.396
v 1122.202 28.084118 -504.82678
v 1172.5436 32.98713 -479.95068
v 1082.7777 38.953773 -475.396
v 1137.8981 12.351933 -573.7438
v 1122.202 28.084118 -504.82678
v 1034.1962 12.351926 -506.10144
v 1137.8981 12.351933 -573.7438
v 1082.7777 38.953773 -475.396
v 518.8483 31.495731 638.7698
v 290.12897 27.318293 770.4794
v 84.86049 12.681595 776.88403
v 508.07758 12.681567 604.3069
v 441.9438 21.544586 961.19116
v 348.4256 22.512012 902.1543
v 290.12897 27.318293 770.4794
v 518.8483 31.495731 638.7698
v 595.8952 32.561817 726.45447
v 455.99445 12.68164 1048.6096
v 253.24603 12.681636 1026.9763
v 441.9438 21.544586 961.19116
v 348.4256 22.512012 902.1543
v 290.12897 27.318293 770.4794
v 84.86049 12.681595 776.88403
v 662.53375 12.681594 770.7351
v 595.8952 32.561817 726.45447
v 634.20355 29.553768 679.0503
v 698.35944 12.681576 658.6925
v 634.20355 29.553768 679.0503
v 586.33356 21.979103 624.657
v 615.49115 12.681562 573.4817
v 698.35944 12.681576 658.6925
v 634.20355 29.553768 679.0503
v 595.8952 32.561817 726.45447
v 518.8483 31.495731 638.7698
v 586.33356 21.979103 624.657
v 455.99445 12.68164 1048.6096
v 441.9438 21.544586 961.19116
v 595.8952 32.561817 726.45447
v 662.53375 12.681594 770.7351
v 615.49115 12.681562 573.4817
v 586.33356 21.979103 624.657
v 518.8483 31.495731 638.7698
v 508.07758 12.681567 604.3069
v -352.32446 69.293655 -922.40894
v -459.04584 78.7115 -861.6935
v -513.2159 9.129766 -899.8435
v -362.21606 9.118237 -975.0293
v -295.1657 6.026062 -789.31616
v -288.23108 70.93724 -856.8419
v -231.2091 60.36943 -898.09204
v -188.62567 2.0187798 -877.2422
v -411.15753 62.48558 -761.4026
v -459.04584 78.7115 -861.6935
v -352.32446 69.293655 -922.40894
v -288.23108 70.93724 -856.8419
v -519.5926 9.129766 -782.2549
v -513.2159 9.129766 -899.8435
v -459.04584 78.7115 -861.6935
v -454.63702 70.8938 -799.2727
v -231.2091 60.36943 -898.09204
v -274.27423 64.40565 -945.5852
v -249.51031 9.412029 -979.09985
v -188.62567 2.0187798 -877.2422
v -231.2091 60.36943 -898.09204
v -288.23108 70.93724 -856.8419
v -352.32446 69.293655 -922.40894
v -274.27423 64.40565 -945.5852
v -406.38507 8.675828 -732.06067
v -411.15753 62.48558 -761.4026
v -288.23108 70.93724 -856.8419
v -295.1657 6.026062 -789.31616
v -249.51031 9.412029 -979.09985
v -274.27423 64.40565 -945.5852
v -352.32446 69.293655 -922.40894
v -362.21606 9.118237 -975.0293
v 1166.3344 47.316895 -365.1223
v 1172.5436 32.98713 -479.95068
v 1232.2863 12.351964 -503.32617
v 1211.2423 12.351994 -336.02692
v 1015.23505 12.351954 -386.21228
v 1058.0653 46.87858 -389.75635
v 1062.4686 48.747726 -320.90417
v 1031.9257 12.351982 -252.29773
v 1082.7777 38.953773 -475.396
v 1172.5436 32.98713 -479.95068
v 1166.3344 47.316895 -365.1223
v 1058.0653 46.87858 -389.75635
v 1137.8981 12.351933 -573.7438
v 1232.2863 12.351964 -503.32617
v 1172.5436 32.98713 -479.95068
v 1122.202 28.084118 -504.82678
v 1062.4686 48.747726 -320.90417
v 1125.056 45.204422 -311.02063
v 1150.3671 12.352 -242.31409
v 1031.9257 12.351982 -252.29773
v 1062.4686 48.747726 -320.90417
v 1058.0653 46.87858 -389.75635
v 1166.3344 47.316895 -365.1223
v 1125.056 45.204422 -311.02063
v 1034.1962 12.351926 -506.10144
v 1082.7777 38.953773 -475.396
v 1058.0653 46.87858 -389.75635
v 1015.23505 12.351954 -386.21228
v 1150.3671 12.352 -242.31409
v 1125.056 45.204422 -311.02063
v 1166.3344 47.316895 -365.1223
v 1211.2423 12.351994 -336.02692
vt 0.72086954 0.15546215
vt 0.72086954 0.15546215
vt 0.72086954 0.15546215
vt 0.84586954 0.15546215
vt 0.84586954 0.15546215
vt 0.84586954 0.15546215
vt 0.84586954 0.15546215
vt 0.84586954 0.15546215
vt 0.84586954 0.15546215
vt 0.72086954 0.15546215
vt 0.72086954 0.15546215
vt 0.72086954 0.15546215
vt 0.78336954 0.15546215
vt 0.78336954 0.15546215
vt 0.78336954 0.15546215
vt 0.78336954 0.15546215
vt 0.78336954 0.15546215
vt 0.78336954 0.15546215
vt 0.7814677 0.1564076
vt 0.7814677 0.1564076
vt 0.7814677 0.1564076
vt 0.7814677 0.1564076
vt 0.7180617 0.15766665
vt 0.7180617 0.15766665
vt 0.7180617 0.15766665
vt 0.7180617 0.15766665
vt 0.7180617 0.15766665
vt 0.7814677 0.1564076
vt 0.7814677 0.1564076
vt 0.7814677 0.1564076
vt 0.7814677 0.1564076
vt 0.7814677 0.1564076
vt 0.7814677 0.1564076
vt 0.84586954 0.15546215
vt 0.84586954 0.15546215
vt 0.84586954 0.15546215
vt 0.84586954 0.15546215
vt 0.84586954 0.15546215
vt 0.84586954 0.15546215
vt 0.84586954 0.15546215
vt 0.84586954 0.15546215
vt 0.7180617 0.15766665
vt 0.7180617 0.15766665
vt 0.7180617 0.15766665
vt 0.7180617 0.15766665
vt 0.84586954 0.15546215
vt 0.84586954 0.15546215
vt 0.84586954 0.15546215
vt 0.84586954 0.15546215
vt 0.7814677 0.1564076
vt 0.7814677 0.1564076
vt 0.7814677 0.1564076
vt 0.7814677 0.1564076
vt 0.78336954 0.15546215
vt 0.78336954 0.15546215
vt 0.78336954 0.15546215
vt 0.78336954 0.15546215
vt 0.84586954 0.15546215
vt 0.84586954 0.15546215
vt 0.84586954 0.15546215
vt 0.84586954 0.15546215
vt 0.72086954 0.15546215
vt 0.72086954 0.15546215
vt 0.72086954 0.15546215
vt 0.72086954 0.15546215
vt 0.78336954 0.15546215
vt 0.78336954 0.15546215
vt 0.78336954 0.15546215
vt 0.78336954 0.15546215
vt 0.78336954 0.15546215
vt 0.78336954 0.15546215
vt 0.78336954 0.15546215
vt 0.78336954 0.15546215
vt 0.72086954 0.15546215
vt 0.72086954 0.15546215
vt 0.72086954 0.15546215
vt 0.72086954 0.15546215
vt 0.84586954 0.15546215
vt 0.84586954 0.15546215
vt 0.84586954 0.15546215
vt 0.84586954 0.15546215
vt 0.78336954 0.15546215
vt 0.78336954 0.15546215
vt 0.78336954 0.15546215
vt 0.78336954 0.15546215
vt 0.84586954 0.15546215
vt 0.84586954 0.15546215
vt 0.84586954 0.15546215
vt 0.84586954 0.15546215
vt 0.78336954 0.15546215
vt 0.78336954 0.15546215
vt 0.78336954 0.15546215
vt 0.78336954 0.15546215
vt 0.72086954 0.15546215
vt 0.72086954 0.15546215
vt 0.72086954 0.15546215
vt 0.72086954 0.15546215
vt 0.78336954 0.15546215
vt 0.78336954 0.15546215
vt 0.78336954 0.15546215
vt 0.78336954 0.15546215
vt 0.84586954 0.15546215
vt 0.84586954 0.15546215
vt 0.84586954 0.15546215
vt 0.84586954 0.15546215
vt 0.72086954 0.15546215
vt 0.72086954 0.15546215
vt 0.72086954 0.15546215
vt 0.72086954 0.15546215
vt 0.78336954 0.15546215
vt 0.78336954 0.15546215
vt 0.78336954 0.15546215
vt 0.78336954 0.15546215
vt 0.84586954 0.15546215
vt 0.84586954 0.15546215
vt 0.84586954 0.15546215
vt 0.84586954 0.15546215
vn 0.088844575 0.9890788 0.11759925
vn 0.088844575 0.9890788 0.11759925
vn 0.088844575 0.9890788 0.11759925
vn -0.43482018 0.6336027 0.6399055
vn -0.43482018 0.6336027 0.6399055
vn -0.43482018 0.6336027 0.6399055
vn -0.36640006 0.42019007 0.8301755
vn -0.36640006 0.42019007 0.8301755
vn -0.36640006 0.42019007 0.8301755
vn 0.048981354 0.956484 -0.2876439
vn 0.048981354 0.956484 -0.2876439
vn 0.048981354 0.956484 -0.2876439
vn 0.12346725 0.97319305 -0.19403896
vn 0.12346725 0.97319305 -0.19403896
vn 0.12346725 0.97319305 -0.19403896
vn -0.24783796 0.89118344 -0.37995848
vn -0.24783796 0.89118344 -0.37995848
vn -0.24783796 0.89118344 -0.37995848
vn -0.11806997 0.96363163 -0.23973632
vn -0.11806997 0.96363163 -0.23973632
vn -0.11806997 0.96363163 -0.23973632
vn -0.11806997 0.96363163 -0.23973632
vn -0.017603492 0.99886525 0.044253275
vn -0.017603492 0.99886525 0.044253275
vn -0.017603492 0.99886525 0.044253275
vn -0.0131506175 0.9995295 0.027712546
vn -0.0131506175 0.9995295 0.027712546
vn -0.01094782 0.9946621 0.10260377
vn -0.026523704 0.99794275 0.05836824
vn -0.026523704 0.99794275 0.05836824
vn -0.026523704 0.99794275 0.05836824
vn -0.060119234 0.99702436 0.048249017
vn -0.060119234 0.99702436 0.048249017
vn 0.2523322 0.9625463 0.099161714
vn 0.2523322 0.9625463 0.099161714
vn 0.2523322 0.9625463 0.099161714
vn 0.2523322 0.9625463 0.099161714
vn 0.13547163 0.9743424 -0.17973424
vn 0.13547163 0.9743424 -0.17973424
vn 0.13547163 0.9743424 -0.17973424
vn 0.13547163 0.9743424 -0.17973424
vn 0.054531965 0.99262005 -0.10831339
vn 0.054531965 0.99262005 -0.10831339
vn 0.054531965 0.99262005 -0.10831339
vn 0.054531965 0.99262005 -0.10831339
vn 0.14672968 0.9813386 0.12427796
vn 0.14672968 0.9813386 0.12427796
vn 0.14672968 0.9813386 0.12427796
vn 0.14672968 0.9813386 0.12427796
vn -0.030022962 0.9477627 -0.31756008
vn -0.030022962 0.9477627 -0.31756008
vn -0.030022962 0.9477627 -0.31756008
vn -0.030022962 0.9477627 -0.31756008
vn -0.3375309 0.645751 -0.6848931
vn -0.3375309 0.645751 -0.6848931
vn -0.3375309 0.645751 -0.6848931
vn -0.3375309 0.645751 -0.6848931
vn 0.53233117 0.5895309 0.6075169
vn 0.53233117 0.5895309 0.6075169
vn 0.53233117 0.5895309 0.6075169
vn 0.53233117 0.5895309 0.6075169
vn 0.04374033 0.9973488 0.05815552
vn 0.04374033 0.9973488 0.05815552
vn 0.04374033 0.9973488 0.05815552
vn 0.04374033 0.9973488 0.05815552
vn -0.74223876 0.66980726 0.020975074
vn -0.74223876 0.66980726 0.020975074
vn -0.74223876 0.66980726 0.020975074
vn -0.74223876 0.66980726 0.020975074
vn 0.7332446 0.4885296 -0.47296003
vn 0.7332446 0.4885296 -0.47296003
vn 0.7332446 0.4885296 -0.47296003
vn 0.7332446 0.4885296 -0.47296003
vn 0.08528669 0.994561 -0.059787475
vn 0.08528669 0.994561 -0.059787475
vn 0.08528669 0.994561 -0.059787475
vn 0.08528669 0.994561 -0.059787475
vn 0.441899 0.5622711 0.6989825
vn 0.441899 0.5622711 0.6989825
vn 0.441899 0.5622711 0.6989825
vn 0.441899 0.5622711 0.6989825
vn -0.10053767 0.58753055 -0.80293214
vn -0.10053767 0.58753055 -0.80293214
vn -0.10053767 0.58753055 -0.80293214
vn -0.10053767 0.58753055 -0.80293214
vn 0.4691643 0.8831108 0.00046583093
vn 0.4691643 0.8831108 0.00046583093
vn 0.4691643 0.8831108 0.00046583093
vn 0.4691643 0.8831108 0.00046583093
vn -0.661511 0.7473741 0.0619278
vn -0.661511 0.7473741 0.0619278
vn -0.661511 0.7473741 0.0619278
vn -0.661511 0.7473741 0.0619278
vn 0.03832941 0.9937953 -0.104412146
vn 0.03832941 0.9937953 -0.104412146
vn 0.03832941 0.9937953 -0.104412146
vn 0.03832941 0.9937953 -0.104412146
vn 0.14003432 0.9549055 -0.26181257
vn 0.14003432 0.9549055 -0.26181257
vn 0.14003432 0.9549055 -0.26181257
vn 0.14003432 0.9549055 -0.26181257
vn -0.031809196 0.89291775 0.4490947
vn -0.031809196 0.89291775 0.4490947
vn -0.031809196 0.89291775 0.4490947
vn -0.031809196 0.89291775 0.4490947
vn 0.016755154 0.99983513 0.007003798
vn 0.016755154 0.99983513 0.007003798
vn 0.016755154 0.99983513 0.007003798
vn 0.016755154 0.99983513 0.007003798
vn -0.52043974 0.84183097 -0.14304945
vn -0.52043974 0.84183097 -0.14304945
vn -0.52043974 0.84183097 -0.14304945
vn -0.52043974 0.84183097 -0.14304945
vn 0.41435713 0.8597202 0.2986458
vn 0.41435713 0.8597202 0.2986458
vn 0.41435713 0.8597202 0.2986458
vn 0.41435713 0.8597202 0.2986458
g rocks_0
f 3/3/3 2/2/2 1/1/1
f 6/6/6 5/5/5 4/4/4
f 9/9/9 8/8/8 7/7/7
f 12/12/12 11/11/11 10/10/10
f 15/15/15 14/14/14 13/13/13
f 18/18/18 17/17/17 16/16/16
f 21/21/21 20/20/20 19/19/19
f 22/22/22 21/21/21 19/19/19
f 25/25/25 24/24/24 23/23/23
f 26/26/26 25/25/25 23/23/23
f 27/27/27 26/26/26 23/23/23
f 30/30/30 29/29/29 28/28/28
f 31/31/31 29/29/29 30/30/30
f 31/31/31 32/32/32 29/29/29
f 32/32/32 33/33/33 29/29/29
f 36/36/36 35/35/35 34/34/34
f 37/37/37 36/36/36 34/34/34
f 40/40/40 39/39/39 38/38/38
f 41/41/41 40/40/40 38/38/38
f 44/44/44 43/43/43 42/42/42
f 45/45/45 44/44/44 42/42/42
f 48/48/48 47/47/47 46/46/46
f 49/49/49 48/48/48 46/46/46
f 52/52/52 51/51/51 50/50/50
f 53/53/53 52/52/52 50/50/50
f 56/56/56 55/55/55 54/54/54
f 57/57/57 56/56/56 54/54/54
f 60/60/60 59/59/59 58/58/58
f 61/61/61 60/60/60 58/58/58
f 64/64/64 63/63/63 62/62/62
f 65/65/65 64/64/64 62/62/62
f 68/68/68 67/67/67 66/66/66
f 69/69/69 68/68/68 66/66/66
f 72/72/72 71/71/71 70/70/70
f 73/73/73 72/72/72 70/70/70
f 76/76/76 75/75/75 74/74/74
f 77/77/77 76/76/76 74/74/74
f 80/80/80 79/79/79 78/78/78
f 81/81/81 80/80/80 78/78/78
f 84/84/84 83/83/83 82/82/82
f 85/85/85 84/84/84 82/82/82
f 88/88/88 87/87/87 86/86/86
f 89/89/89 88/88/88 86/86/86
f 92/92/92 91/91/91 90/90/90
f 93/93/93 92/92/92 90/90/90
f 96/96/96 95/95/95 94/94/94
f 97/97/97 96/96/96 94/94/94
f 100/100/100 99/99/99 98/98/98
f 101/101/101 100/100/100 98/98/98
f 104/104/104 103/103/103 102/102/102
f 105/105/105 104/104/104 102/102/102
f 108/108/108 107/107/107 106/106/106
f 109/109/109 108/108/108 106/106/106
f 112/112/112 111/111/111 110/110/110
f 113/113/113 112/112/112 110/110/110
f 116/116/116 115/115/115 114/114/114
f 117/117/117 116/116/116 114/114/114
