g shelf03.005
v -2.5000005 0 2.0000005
v -2.5000005 0 -2.0000005
v -2.5000005 2.0000005 -2.0000005
v -2.5000005 2.0000005 2.0000005
v -2.5000005 0 -2.0000005
v 2.5000005 0 -2.0000005
v 2.5000005 2.0000005 -2.0000005
v -2.5000005 2.0000005 -2.0000005
v 2.5000005 0 -2.0000005
v 2.5000005 0 2.0000005
v 2.5000005 2.0000005 2.0000005
v 2.5000005 2.0000005 -2.0000005
v 2.5000005 0 2.0000005
v -2.5000005 0 2.0000005
v -2.5000005 2.0000005 2.0000005
v 2.5000005 2.0000005 2.0000005
v -2.5000005 0 -2.0000005
v -2.5000005 0 2.0000005
v 2.5000005 0 2.0000005
v 2.5000005 0 -2.0000005
v 2.5000005 2.0000005 -2.0000005
v 2.5000005 2.0000005 2.0000005
v -2.5000005 2.0000005 2.0000005
v -2.5000005 2.0000005 -2.0000005
v -2.5000005 2.0000005 2.5000005
v -2.5000005 2.0000005 -2.5000005
v -2.5000005 3.0000005 -2.5000005
v -2.5000005 3.0000005 2.5000005
v -2.5000005 2.0000005 -2.5000005
v 2.5000005 2.0000005 -2.5000005
v 2.5000005 3.0000005 -2.5000005
v -2.5000005 3.0000005 -2.5000005
v 2.5000005 2.0000005 -2.5000005
v 2.5000005 2.0000005 2.5000005
v 2.5000005 3.0000005 2.5000005
v 2.5000005 3.0000005 -2.5000005
v 2.5000005 2.0000005 2.5000005
v -2.5000005 2.0000005 2.5000005
v -2.5000005 3.0000005 2.5000005
v 2.5000005 3.0000005 2.5000005
v -2.5000005 2.0000005 -2.5000005
v -2.5000005 2.0000005 2.5000005
v 2.5000005 2.0000005 2.5000005
v 2.5000005 2.0000005 -2.5000005
v -2.3978496 2.102151 2.3978496
v -2.3978496 3.0000005 2.3978496
v -2.3978496 3.0000005 -2.39785
v -2.3978496 2.102151 -2.39785
v -2.3978496 2.102151 -2.39785
v -2.3978496 3.0000005 -2.39785
v 2.39785 3.0000005 -2.39785
v 2.39785 2.102151 -2.39785
v 2.39785 2.102151 -2.39785
v 2.39785 3.0000005 -2.39785
v 2.39785 3.0000005 2.3978496
v 2.39785 2.102151 2.3978496
v 2.39785 2.102151 2.3978496
v 2.39785 3.0000005 2.3978496
v -2.3978496 3.0000005 2.3978496
v -2.3978496 2.102151 2.3978496
v -2.3387098 2.102151 -0.80107546
v -0.77956986 2.602151 -0.80107546
v -2.3387098 2.602151 -0.80107546
v -0.77956986 2.102151 -0.80107546
v 0.7795701 2.602151 -0.80107546
v 0.7795701 2.102151 -0.80107546
v 2.33871 2.602151 -0.80107546
v 2.33871 2.102151 -0.80107546
v 0.7795701 2.102151 -0.80107546
v 0.7795701 2.602151 -2.39785
v 0.7795701 2.102151 -2.39785
v 0.7795701 2.602151 -0.80107546
v 0.7795701 2.102151 0.8010752
v 0.7795701 2.602151 0.8010752
v -2.3387098 2.102151 -0.80107546
v -2.3978496 2.102151 -0.80107546
v -2.3978496 2.602151 -0.80107546
v -2.3387098 2.602151 -0.80107546
v -2.3978496 2.102151 0.8010752
v -2.3978496 2.602151 0.8010752
v -2.3387098 2.602151 0.8010752
v -2.3387098 2.102151 0.8010752
v -0.77956986 2.102151 0.8010752
v -0.77956986 2.602151 0.8010752
v 0.7795701 2.102151 0.8010752
v 0.7795701 2.602151 0.8010752
v 2.33871 2.102151 0.8010752
v 2.33871 2.602151 0.8010752
v -0.77956986 2.102151 0.8010752
v -0.77956986 2.602151 2.3978496
v -0.77956986 2.102151 2.3978496
v -0.77956986 2.602151 0.8010752
v -0.77956986 2.102151 -0.80107546
v -0.77956986 2.602151 -0.80107546
v -0.77956986 2.602151 -2.39785
v -0.77956986 2.102151 -2.39785
v 2.39785 2.102151 -0.80107546
v 2.33871 2.102151 -0.80107546
v 2.33871 2.602151 -0.80107546
v 2.39785 2.602151 -0.80107546
v 0.7795701 2.102151 0.8010752
v 0.7795701 2.602151 0.8010752
v 0.7795701 2.602151 2.3978496
v 0.7795701 2.102151 2.3978496
v 2.33871 2.102151 0.8010752
v 2.39785 2.102151 0.8010752
v 2.39785 2.602151 0.8010752
v 2.33871 2.602151 0.8010752
v -2.3387098 2.102151 -0.80107546
v -2.3387098 2.602151 -0.80107546
v -0.77956986 2.602151 -0.80107546
v -0.77956986 2.102151 -0.80107546
v 0.7795701 2.602151 -0.80107546
v 0.7795701 2.102151 -0.80107546
v 2.33871 2.602151 -0.80107546
v 2.33871 2.102151 -0.80107546
v 0.7795701 2.102151 -0.80107546
v 0.7795701 2.102151 -2.39785
v 0.7795701 2.602151 -2.39785
v 0.7795701 2.602151 -0.80107546
v 0.7795701 2.102151 0.8010752
v 0.7795701 2.602151 0.8010752
v -2.3387098 2.102151 -0.80107546
v -2.3387098 2.602151 -0.80107546
v -2.3978496 2.602151 -0.80107546
v -2.3978496 2.102151 -0.80107546
v -2.3978496 2.102151 0.8010752
v -2.3387098 2.602151 0.8010752
v -2.3978496 2.602151 0.8010752
v -2.3387098 2.102151 0.8010752
v -0.77956986 2.102151 0.8010752
v -0.77956986 2.602151 0.8010752
v 0.7795701 2.102151 0.8010752
v 0.7795701 2.602151 0.8010752
v 2.33871 2.102151 0.8010752
v 2.33871 2.602151 0.8010752
v -0.77956986 2.102151 0.8010752
v -0.77956986 2.102151 2.3978496
v -0.77956986 2.602151 2.3978496
v -0.77956986 2.602151 0.8010752
v -0.77956986 2.102151 -0.80107546
v -0.77956986 2.602151 -0.80107546
v -0.77956986 2.602151 -2.39785
v -0.77956986 2.102151 -2.39785
v 2.39785 2.102151 -0.80107546
v 2.39785 2.602151 -0.80107546
v 2.33871 2.602151 -0.80107546
v 2.33871 2.102151 -0.80107546
v 0.7795701 2.102151 0.8010752
v 0.7795701 2.102151 2.3978496
v 0.7795701 2.602151 2.3978496
v 0.7795701 2.602151 0.8010752
v 2.33871 2.102151 0.8010752
v 2.33871 2.602151 0.8010752
v 2.39785 2.602151 0.8010752
v 2.39785 2.102151 0.8010752
v 2.5000005 3.0000005 2.5000005
v 2.39785 3.0000005 2.3978496
v 2.39785 3.0000005 -2.39785
v 2.5000005 3.0000005 -2.5000005
v -2.5000005 3.0000005 2.5000005
v -2.3978496 3.0000005 -2.39785
v -2.3978496 3.0000005 2.3978496
v -2.5000005 3.0000005 -2.5000005
vt 0.21855488 0.09101183
vt 0.21855488 0.09101183
vt 0.21855488 0.09101183
vt 0.21855488 0.09101183
vt 0.21855488 0.09101183
vt 0.21855488 0.09101183
vt 0.21855488 0.09101183
vt 0.21855488 0.09101183
vt 0.21855488 0.09101183
vt 0.21855488 0.09101183
vt 0.21855488 0.09101183
vt 0.21855488 0.09101183
vt 0.21855488 0.09101183
vt 0.21855488 0.09101183
vt 0.21855488 0.09101183
vt 0.21855488 0.09101183
vt 0.21855488 0.09101183
vt 0.21855488 0.09101183
vt 0.21855488 0.09101183
vt 0.21855488 0.09101183
vt 0.21855488 0.09101183
vt 0.21855488 0.09101183
vt 0.21855488 0.09101183
vt 0.21855488 0.09101183
vt 0.21855488 0.09101183
vt 0.21855488 0.09101183
vt 0.21855488 0.09101183
vt 0.21855488 0.09101183
vt 0.21855488 0.09101183
vt 0.21855488 0.09101183
vt 0.21855488 0.09101183
vt 0.21855488 0.09101183
vt 0.21855488 0.09101183
vt 0.21855488 0.09101183
vt 0.21855488 0.09101183
vt 0.21855488 0.09101183
vt 0.21855488 0.09101183
vt 0.21855488 0.09101183
vt 0.21855488 0.09101183
vt 0.21855488 0.09101183
vt 0.21855488 0.09101183
vt 0.21855488 0.09101183
vt 0.21855488 0.09101183
vt 0.21855488 0.09101183
vt 0.21855488 0.09101183
vt 0.21855488 0.09101183
vt 0.21855488 0.09101183
vt 0.21855488 0.09101183
vt 0.21855488 0.09101183
vt 0.21855488 0.09101183
vt 0.21855488 0.09101183
vt 0.21855488 0.09101183
vt 0.21855488 0.09101183
vt 0.21855488 0.09101183
vt 0.21855488 0.09101183
vt 0.21855488 0.09101183
vt 0.21855488 0.09101183
vt 0.21855488 0.09101183
vt 0.21855488 0.09101183
vt 0.21855488 0.09101183
vt 0.21855488 0.09101183
vt 0.21855488 0.09101183
vt 0.21855488 0.09101183
vt 0.21855488 0.09101183
vt 0.21855488 0.09101183
vt 0.21855488 0.09101183
vt 0.21855488 0.09101183
vt 0.21855488 0.09101183
vt 0.21855488 0.09101183
vt 0.21855488 0.09101183
vt 0.21855488 0.09101183
vt 0.21855488 0.09101183
vt 0.21855488 0.09101183
vt 0.21855488 0.09101183
vt 0.21855488 0.09101183
vt 0.21855488 0.09101183
vt 0.21855488 0.09101183
vt 0.21855488 0.09101183
vt 0.21855488 0.09101183
vt 0.21855488 0.09101183
vt 0.21855488 0.09101183
vt 0.21855488 0.09101183
vt 0.21855488 0.09101183
vt 0.21855488 0.09101183
vt 0.21855488 0.09101183
vt 0.21855488 0.09101183
vt 0.21855488 0.09101183
vt 0.21855488 0.09101183
vt 0.21855488 0.09101183
vt 0.21855488 0.09101183
vt 0.21855488 0.09101183
vt 0.21855488 0.09101183
vt 0.21855488 0.09101183
vt 0.21855488 0.09101183
vt 0.21855488 0.09101183
vt 0.21855488 0.09101183
vt 0.21855488 0.09101183
vt 0.21855488 0.09101183
vt 0.21855488 0.09101183
vt 0.21855488 0.09101183
vt 0.21855488 0.09101183
vt 0.21855488 0.09101183
vt 0.21855488 0.09101183
vt 0.21855488 0.09101183
vt 0.21855488 0.09101183
vt 0.21855488 0.09101183
vt 0.21855488 0.09101183
vt 0.21855488 0.09101183
vt 0.21855488 0.09101183
vt 0.21855488 0.09101183
vt 0.21855488 0.09101183
vt 0.21855488 0.09101183
vt 0.21855488 0.09101183
vt 0.21855488 0.09101183
vt 0.21855488 0.09101183
vt 0.21855488 0.09101183
vt 0.21855488 0.09101183
vt 0.21855488 0.09101183
vt 0.21855488 0.09101183
vt 0.21855488 0.09101183
vt 0.21855488 0.09101183
vt 0.21855488 0.09101183
vt 0.21855488 0.09101183
vt 0.21855488 0.09101183
vt 0.21855488 0.09101183
vt 0.21855488 0.09101183
vt 0.21855488 0.09101183
vt 0.21855488 0.09101183
vt 0.21855488 0.09101183
vt 0.21855488 0.09101183
vt 0.21855488 0.09101183
vt 0.21855488 0.09101183
vt 0.21855488 0.09101183
vt 0.21855488 0.09101183
vt 0.21855488 0.09101183
vt 0.21855488 0.09101183
vt 0.21855488 0.09101183
vt 0.21855488 0.09101183
vt 0.21855488 0.09101183
vt 0.21855488 0.09101183
vt 0.21855488 0.09101183
vt 0.21855488 0.09101183
vt 0.21855488 0.09101183
vt 0.21855488 0.09101183
vt 0.21855488 0.09101183
vt 0.21855488 0.09101183
vt 0.21855488 0.09101183
vt 0.21855488 0.09101183
vt 0.21855488 0.09101183
vt 0.21855488 0.09101183
vt 0.21855488 0.09101183
vt 0.21855488 0.09101183
vt 0.21855488 0.09101183
vt 0.21855488 0.09101183
vt 0.21855488 0.09101183
vt 0.21855488 0.09101183
vt 0.21855488 0.09101183
vt 0.21855488 0.09101183
vt 0.21855488 0.09101183
vt 0.21855488 0.09101183
vt 0.21855488 0.09101183
vt 0.21855488 0.09101183
vt 0.21855488 0.09101183
vt 0.21855488 0.09101183
vn -0.999874 0.015871048 -0.00034391563
vn -0.999874 0.015871048 -0.00034391563
vn -0.999874 0.015871048 -0.00034391563
vn -0.999874 0.015871048 -0.00034391563
vn -0.015871048 0.015871048 -0.99974805
vn -0.015871048 0.015871048 -0.99974805
vn -0.015871048 0.015871048 -0.99974805
vn -0.015871048 0.015871048 -0.99974805
vn 0.999874 0.015871048 -0.00034391563
vn 0.999874 0.015871048 -0.00034391563
vn 0.999874 0.015871048 -0.00034391563
vn 0.999874 0.015871048 -0.00034391563
vn -0.015871048 0.015871048 0.99974805
vn -0.015871048 0.015871048 0.99974805
vn -0.015871048 0.015871048 0.99974805
vn -0.015871048 0.015871048 0.99974805
vn -0.015871048 -0.999874 -0.00034526698
vn -0.015871048 -0.999874 -0.00034526698
vn -0.015871048 -0.999874 -0.00034526698
vn -0.015871048 -0.999874 -0.00034526698
vn -0.015871048 0.999874 -0.00034526698
vn -0.015871048 0.999874 -0.00034526698
vn -0.015871048 0.999874 -0.00034526698
vn -0.015871048 0.999874 -0.00034526698
vn -0.999874 0.015871048 -0.00034391563
vn -0.999874 0.015871048 -0.00034391563
vn -0.999874 0.015871048 -0.00034391563
vn -0.999874 0.015871048 -0.00034391563
vn -0.015871048 0.015871048 -0.99974805
vn -0.015871048 0.015871048 -0.99974805
vn -0.015871048 0.015871048 -0.99974805
vn -0.015871048 0.015871048 -0.99974805
vn 0.999874 0.015871048 -0.00034391563
vn 0.999874 0.015871048 -0.00034391563
vn 0.999874 0.015871048 -0.00034391563
vn 0.999874 0.015871048 -0.00034391563
vn -0.015871048 0.015871048 0.99974805
vn -0.015871048 0.015871048 0.99974805
vn -0.015871048 0.015871048 0.99974805
vn -0.015871048 0.015871048 0.99974805
vn -0.015871048 -0.999874 -0.00034526698
vn -0.015871048 -0.999874 -0.00034526698
vn -0.015871048 -0.999874 -0.00034526698
vn -0.015871048 -0.999874 -0.00034526698
vn 0.999874 0.015871048 -0.00034391563
vn 0.999874 0.015871048 -0.00034391563
vn 0.999874 0.015871048 -0.00034391563
vn 0.999874 0.015871048 -0.00034391563
vn -0.015871048 0.015871048 0.99974805
vn -0.015871048 0.015871048 0.99974805
vn -0.015871048 0.015871048 0.99974805
vn -0.015871048 0.015871048 0.99974805
vn -0.999874 0.015871048 -0.00034391563
vn -0.999874 0.015871048 -0.00034391563
vn -0.999874 0.015871048 -0.00034391563
vn -0.999874 0.015871048 -0.00034391563
vn -0.015871048 0.015871048 -0.99974805
vn -0.015871048 0.015871048 -0.99974805
vn -0.015871048 0.015871048 -0.99974805
vn -0.015871048 0.015871048 -0.99974805
vn -0.015871048 0.015871048 -0.99974805
vn -0.015871048 0.015871048 -0.99974805
vn -0.015871048 0.015871048 -0.99974805
vn -0.015871048 0.015871048 -0.99974805
vn -0.015871048 0.015871048 -0.99974805
vn -0.015871048 0.015871048 -0.99974805
vn -0.015871048 0.015871048 -0.99974805
vn -0.015871048 0.015871048 -0.99974805
vn 0.999874 0.015871048 -0.00034391563
vn 0.999874 0.015871048 -0.00034391563
vn 0.999874 0.015871048 -0.00034391563
vn 0.999874 0.015871048 -0.00034391563
vn 0.999874 0.015871048 -0.00034391563
vn 0.999874 0.015871048 -0.00034391563
vn -0.015871048 0.015871048 0.99974805
vn -0.015871048 0.015871048 0.99974805
vn -0.015871048 0.015871048 0.99974805
vn -0.015871048 0.015871048 0.99974805
vn -0.015871048 0.015871048 0.99974805
vn -0.015871048 0.015871048 0.99974805
vn -0.015871048 0.015871048 0.99974805
vn -0.015871048 0.015871048 0.99974805
vn -0.015871048 0.015871048 0.99974805
vn -0.015871048 0.015871048 0.99974805
vn -0.015871048 0.015871048 0.99974805
vn -0.015871048 0.015871048 0.99974805
vn -0.015871048 0.015871048 0.99974805
vn -0.015871048 0.015871048 0.99974805
vn -0.999874 0.015871048 -0.00034391563
vn -0.999874 0.015871048 -0.00034391563
vn -0.999874 0.015871048 -0.00034391563
vn -0.999874 0.015871048 -0.00034391563
vn -0.999874 0.015871048 -0.00034391563
vn -0.999874 0.015871048 -0.00034391563
vn -0.999874 0.015871048 -0.00034391563
vn -0.999874 0.015871048 -0.00034391563
vn -0.015871048 0.015871048 0.99974805
vn -0.015871048 0.015871048 0.99974805
vn -0.015871048 0.015871048 0.99974805
vn -0.015871048 0.015871048 0.99974805
vn -0.999874 0.015871048 -0.00034391563
vn -0.999874 0.015871048 -0.00034391563
vn -0.999874 0.015871048 -0.00034391563
vn -0.999874 0.015871048 -0.00034391563
vn 0.015870988 0.015871048 -0.99974805
vn 0.015870988 0.015871048 -0.99974805
vn 0.015870988 0.015871048 -0.99974805
vn 0.015870988 0.015871048 -0.99974805
vn -0.015871048 0.015871048 0.99974805
vn -0.015871048 0.015871048 0.99974805
vn -0.015871048 0.015871048 0.99974805
vn -0.015871048 0.015871048 0.99974805
vn -0.015871048 0.015871048 0.99974805
vn -0.015871048 0.015871048 0.99974805
vn -0.015871048 0.015871048 0.99974805
vn -0.015871048 0.015871048 0.99974805
vn -0.999874 0.015871048 -0.00034391563
vn -0.999874 0.015871048 -0.00034391563
vn -0.999874 0.015871048 -0.00034391563
vn -0.999874 0.015871048 -0.00034391563
vn -0.999874 0.015871048 -0.00034391563
vn -0.999874 0.015871048 -0.00034391563
vn 0.015870988 0.015871048 -0.99974805
vn 0.015870988 0.015871048 -0.99974805
vn 0.015870988 0.015871048 -0.99974805
vn 0.015870988 0.015871048 -0.99974805
vn 0.015870988 0.015871048 -0.99974805
vn -0.015871048 0.015871048 -0.99974805
vn 0.015870988 0.015871048 -0.99974805
vn -0.015871048 0.015871048 -0.99974805
vn -0.015871048 0.015871048 -0.99974805
vn -0.015871048 0.015871048 -0.99974805
vn -0.015871048 0.015871048 -0.99974805
vn -0.015871048 0.015871048 -0.99974805
vn -0.015871048 0.015871048 -0.99974805
vn -0.015871048 0.015871048 -0.99974805
vn 0.999874 0.015871048 -0.00034391563
vn 0.999874 0.015871048 -0.00034391563
vn 0.999874 0.015871048 -0.00034391563
vn 0.999874 0.015871048 -0.00034391563
vn 0.999874 0.015871048 -0.00034391563
vn 0.999874 0.015871048 -0.00034391563
vn 0.999874 0.015871048 -0.00034391563
vn 0.999874 0.015871048 -0.00034391563
vn 0.015870988 0.015871048 -0.99974805
vn 0.015870988 0.015871048 -0.99974805
vn 0.015870988 0.015871048 -0.99974805
vn 0.015870988 0.015871048 -0.99974805
vn 0.999874 0.015871048 -0.00034391563
vn 0.999874 0.015871048 -0.00034391563
vn 0.999874 0.015871048 -0.00034391563
vn 0.999874 0.015871048 -0.00034391563
vn -0.015871048 0.015871048 0.99974805
vn -0.015871048 0.015871048 0.99974805
vn -0.015871048 0.015871048 0.99974805
vn -0.015871048 0.015871048 0.99974805
vn -0.015871048 0.999874 -0.00034526698
vn -0.015871048 0.999874 -0.00034526698
vn -0.015871048 0.999874 -0.00034526698
vn -0.015871048 0.999874 -0.00034526698
vn -0.015871048 0.999874 -0.00034526698
vn -0.015871048 0.999874 -0.00034526698
vn -0.015871048 0.999874 -0.00034526698
vn -0.015871048 0.999874 -0.00034526698
g shelf03.005_0
f 3/3/3 2/2/2 1/1/1
f 4/4/4 3/3/3 1/1/1
f 7/7/7 6/6/6 5/5/5
f 8/8/8 7/7/7 5/5/5
f 11/11/11 10/10/10 9/9/9
f 12/12/12 11/11/11 9/9/9
f 15/15/15 14/14/14 13/13/13
f 16/16/16 15/15/15 13/13/13
f 19/19/19 18/18/18 17/17/17
f 20/20/20 19/19/19 17/17/17
f 23/23/23 22/22/22 21/21/21
f 24/24/24 23/23/23 21/21/21
f 27/27/27 26/26/26 25/25/25
f 28/28/28 27/27/27 25/25/25
f 31/31/31 30/30/30 29/29/29
f 32/32/32 31/31/31 29/29/29
f 35/35/35 34/34/34 33/33/33
f 36/36/36 35/35/35 33/33/33
f 39/39/39 38/38/38 37/37/37
f 40/40/40 39/39/39 37/37/37
f 43/43/43 42/42/42 41/41/41
f 44/44/44 43/43/43 41/41/41
f 47/47/47 46/46/46 45/45/45
f 48/48/48 47/47/47 45/45/45
f 51/51/51 50/50/50 49/49/49
f 52/52/52 51/51/51 49/49/49
f 55/55/55 54/54/54 53/53/53
f 56/56/56 55/55/55 53/53/53
f 59/59/59 58/58/58 57/57/57
f 60/60/60 59/59/59 57/57/57
f 63/63/63 62/62/62 61/61/61
f 62/62/62 64/64/64 61/61/61
f 62/62/62 65/65/65 64/64/64
f 65/65/65 66/66/66 64/64/64
f 65/65/65 67/67/67 66/66/66
f 67/67/67 68/68/68 66/66/66
f 71/71/71 70/70/70 69/69/69
f 70/70/70 72/72/72 69/69/69
f 69/69/69 72/72/72 73/73/73
f 72/72/72 74/74/74 73/73/73
f 77/77/77 76/76/76 75/75/75
f 78/78/78 77/77/77 75/75/75
f 81/81/81 80/80/80 79/79/79
f 82/82/82 81/81/81 79/79/79
f 81/81/81 82/82/82 83/83/83
f 84/84/84 81/81/81 83/83/83
f 84/84/84 83/83/83 85/85/85
f 86/86/86 84/84/84 85/85/85
f 86/86/86 85/85/85 87/87/87
f 88/88/88 86/86/86 87/87/87
f 91/91/91 90/90/90 89/89/89
f 90/90/90 92/92/92 89/89/89
f 89/89/89 92/92/92 93/93/93
f 92/92/92 94/94/94 93/93/93
f 94/94/94 95/95/95 93/93/93
f 95/95/95 96/96/96 93/93/93
f 99/99/99 98/98/98 97/97/97
f 100/100/100 99/99/99 97/97/97
f 103/103/103 102/102/102 101/101/101
f 104/104/104 103/103/103 101/101/101
f 107/107/107 106/106/106 105/105/105
f 108/108/108 107/107/107 105/105/105
f 111/111/111 110/110/110 109/109/109
f 112/112/112 111/111/111 109/109/109
f 113/113/113 111/111/111 112/112/112
f 114/114/114 113/113/113 112/112/112
f 115/115/115 113/113/113 114/114/114
f 116/116/116 115/115/115 114/114/114
f 119/119/119 118/118/118 117/117/117
f 120/120/120 119/119/119 117/117/117
f 120/120/120 117/117/117 121/121/121
f 122/122/122 120/120/120 121/121/121
f 125/125/125 124/124/124 123/123/123
f 126/126/126 125/125/125 123/123/123
f 129/129/129 128/128/128 127/127/127
f 128/128/128 130/130/130 127/127/127
f 130/130/130 128/128/128 131/131/131
f 128/128/128 132/132/132 131/131/131
f 131/131/131 132/132/132 133/133/133
f 132/132/132 134/134/134 133/133/133
f 133/133/133 134/134/134 135/135/135
f 134/134/134 136/136/136 135/135/135
f 139/139/139 138/138/138 137/137/137
f 140/140/140 139/139/139 137/137/137
f 140/140/140 137/137/137 141/141/141
f 142/142/142 140/140/140 141/141/141
f 143/143/143 142/142/142 141/141/141
f 144/144/144 143/143/143 141/141/141
f 147/147/147 146/146/146 145/145/145
f 148/148/148 147/147/147 145/145/145
f 151/151/151 150/150/150 149/149/149
f 152/152/152 151/151/151 149/149/149
f 155/155/155 154/154/154 153/153/153
f 156/156/156 155/155/155 153/153/153
f 159/159/159 158/158/158 157/157/157
f 160/160/160 159/159/159 157/157/157
f 157/157/157 158/158/158 161/161/161
f 162/162/162 159/159/159 160/160/160
f 158/158/158 163/163/163 161/161/161
f 164/164/164 162/162/162 160/160/160
f 161/161/161 163/163/163 164/164/164
f 163/163/163 162/162/162 164/164/164
