g shelf02.013
v 3.9999976 0.8474021 1.9977665
v 3.9999976 -0.0014879704 -2.000743
v 3.9999976 -0.0014879704 1.9977665
v 3.9999976 3.156065 -2.000743
v 3.9999976 4.1160245 -1.6675336
v 3.9999976 3.251268 -2.1673474
v 3.9999976 1.6169562 2.664185
v 3.9999976 0.7521992 2.1643715
v 3.9999976 3.251268 -2.1673474
v 3.9999976 4.1160245 -1.6675336
v -3.9970217 4.1160245 -1.6675336
v -3.9970217 3.251268 -2.1673474
v 3.8968616 3.283002 -2.0245435
v 3.8968616 0.8870697 2.1247034
v -3.9018188 0.8870697 2.1247034
v -3.9018188 3.283002 -2.0245435
v -3.9970217 -0.0014879704 1.9977665
v 3.9999976 -0.0014879704 1.9977665
v 3.9999976 -0.0014879704 -2.000743
v -3.9970217 -0.0014879704 -2.000743
v -3.9970217 1.6169562 2.664185
v -3.9970217 0.7521992 2.1643715
v -3.9970217 0.8474021 1.9977665
v -3.9970217 4.1160245 -1.6675336
v -3.9970217 3.156065 -2.000743
v -3.9970217 3.251268 -2.1673474
v -3.9970217 -0.0014879704 1.9977665
v -3.9970217 -0.0014879704 -2.000743
v -3.9970217 1.6169562 2.664185
v 3.9999976 1.6169562 2.664185
v 3.9999976 0.7521992 2.1643715
v -3.9970217 0.7521992 2.1643715
v 3.8968616 1.6645575 2.5769157
v -3.9018188 1.6645575 2.5769157
v -3.9018188 0.8870697 2.1247034
v 3.8968616 0.8870697 2.1247034
v 3.9999976 -0.0014879704 -2.000743
v 3.9999976 3.156065 -2.000743
v -3.9970217 3.156065 -2.000743
v -3.9970217 -0.0014879704 -2.000743
v -3.9970217 -0.0014879704 1.9977665
v -3.9970217 0.8474021 1.9977665
v 3.9999976 0.8474021 1.9977665
v 3.9999976 -0.0014879704 1.9977665
v -3.9018188 4.0684237 -1.5802646
v -3.9018188 3.283002 -2.0245435
v -3.9018188 0.8870697 2.1247034
v -3.9018188 1.6645575 2.5769157
v -3.9018188 4.0684237 -1.5802646
v 3.8968616 4.0684237 -1.5802646
v 3.8968616 3.283002 -2.0245435
v -3.9018188 3.283002 -2.0245435
v -3.9970217 3.156065 -2.000743
v 3.9999976 3.251268 -2.1673474
v -3.9970217 3.251268 -2.1673474
v 3.9999976 3.156065 -2.000743
v -3.9970217 0.8474021 1.9977665
v 3.9999976 0.8474021 1.9977665
v -3.9970217 0.7521992 2.1643715
v 3.9999976 0.7521992 2.1643715
v 3.8968616 1.6645575 2.5769157
v 3.8968616 0.8870697 2.1247034
v 3.8968616 3.283002 -2.0245435
v 3.8968616 4.0684237 -1.5802646
v -3.9970217 1.6169562 2.664185
v -3.9018188 1.6645575 2.5769157
v 3.8968616 1.6645575 2.5769157
v -3.9018188 4.0684237 -1.5802646
v 3.9999976 1.6169562 2.664185
v -3.9970217 4.1160245 -1.6675336
v 3.9999976 4.1160245 -1.6675336
v 3.8968616 4.0684237 -1.5802646
vt 0.21855488 0.09101184
vt 0.21855488 0.09101184
vt 0.21855488 0.09101184
vt 0.21855488 0.09101184
vt 0.21855488 0.09101184
vt 0.21855488 0.09101184
vt 0.21855488 0.09101184
vt 0.21855488 0.09101184
vt 0.21855488 0.09101184
vt 0.21855488 0.09101184
vt 0.21855488 0.09101184
vt 0.21855488 0.09101184
vt 0.21855488 0.09101184
vt 0.21855488 0.09101184
vt 0.21855488 0.09101184
vt 0.21855488 0.09101184
vt 0.21855488 0.09101184
vt 0.21855488 0.09101184
vt 0.21855488 0.09101184
vt 0.21855488 0.09101184
vt 0.21855488 0.09101184
vt 0.21855488 0.09101184
vt 0.21855488 0.09101184
vt 0.21855488 0.09101184
vt 0.21855488 0.09101184
vt 0.21855488 0.09101184
vt 0.21855488 0.09101184
vt 0.21855488 0.09101184
vt 0.21855488 0.09101184
vt 0.21855488 0.09101184
vt 0.21855488 0.09101184
vt 0.21855488 0.09101184
vt 0.21855488 0.09101184
vt 0.21855488 0.09101184
vt 0.21855488 0.09101184
vt 0.21855488 0.09101184
vt 0.21855488 0.09101184
vt 0.21855488 0.09101184
vt 0.21855488 0.09101184
vt 0.21855488 0.09101184
vt 0.21855488 0.09101184
vt 0.21855488 0.09101184
vt 0.21855488 0.09101184
vt 0.21855488 0.09101184
vt 0.21855488 0.09101184
vt 0.21855488 0.09101184
vt 0.21855488 0.09101184
vt 0.21855488 0.09101184
vt 0.21855488 0.09101184
vt 0.21855488 0.09101184
vt 0.21855488 0.09101184
vt 0.21855488 0.09101184
vt 0.21855488 0.09101184
vt 0.21855488 0.09101184
vt 0.21855488 0.09101184
vt 0.21855488 0.09101184
vt 0.21855488 0.09101184
vt 0.21855488 0.09101184
vt 0.21855488 0.09101184
vt 0.21855488 0.09101184
vt 0.21855488 0.09101184
vt 0.21855488 0.09101184
vt 0.21855488 0.09101184
vt 0.21855488 0.09101184
vt 0.21855488 0.09101184
vt 0.21855488 0.09101184
vt 0.21855488 0.09101184
vt 0.21855488 0.09101184
vt 0.21855488 0.09101184
vt 0.21855488 0.09101184
vt 0.21855488 0.09101184
vt 0.21855488 0.09101184
vn 0.999874 0.015871048 -0.00034391563
vn 0.999874 0.015871048 -0.00034391563
vn 0.999874 0.015871048 -0.00034391563
vn 0.999874 0.015871048 -0.00034391563
vn 0.999874 0.015871048 -0.00034391563
vn 0.999874 0.015871048 -0.00034391563
vn 0.999874 0.015871048 -0.00034391563
vn 0.999874 0.015871048 -0.00034391563
vn -0.015871048 0.49200153 -0.87044966
vn -0.015871048 0.49200153 -0.87044966
vn -0.015871048 0.49200153 -0.87044966
vn -0.015871048 0.49200153 -0.87044966
vn -0.015871048 0.87290585 0.4876305
vn -0.015871048 0.87290585 0.4876305
vn -0.015871048 0.87290585 0.4876305
vn -0.015871048 0.87290585 0.4876305
vn -0.015871048 -0.999874 -0.00034526698
vn -0.015871048 -0.999874 -0.00034526698
vn -0.015871048 -0.999874 -0.00034526698
vn -0.015871048 -0.999874 -0.00034526698
vn -0.999874 0.015871048 -0.00034391563
vn -0.999874 0.015871048 -0.00034391563
vn -0.999874 0.015871048 -0.00034391563
vn -0.999874 0.015871048 -0.00034391563
vn -0.999874 0.015871048 -0.00034391563
vn -0.999874 0.015871048 -0.00034391563
vn -0.999874 0.015871048 -0.00034391563
vn -0.999874 0.015871048 -0.00034391563
vn -0.015871048 -0.49200147 0.8704497
vn -0.015871048 -0.49200147 0.8704497
vn -0.015871048 -0.49200147 0.8704497
vn -0.015871048 -0.49200147 0.8704497
vn -0.015871048 0.49200153 -0.87044966
vn -0.015871048 0.49200153 -0.87044966
vn -0.015871048 0.49200153 -0.87044966
vn -0.015871048 0.49200153 -0.87044966
vn -0.015871048 0.015871048 -0.99974805
vn -0.015871048 0.015871048 -0.99974805
vn -0.015871048 0.015871048 -0.99974805
vn -0.015871048 0.015871048 -0.99974805
vn -0.015871048 0.015871048 0.99974805
vn -0.015871048 0.015871048 0.99974805
vn -0.015871048 0.015871048 0.99974805
vn -0.015871048 0.015871048 0.99974805
vn 0.999874 0.015871048 -0.00034391563
vn 0.999874 0.015871048 -0.00034391563
vn 0.999874 0.015871048 -0.00034391563
vn 0.999874 0.015871048 -0.00034391563
vn -0.015871048 -0.49200147 0.8704497
vn -0.015871048 -0.49200147 0.8704497
vn -0.015871048 -0.49200147 0.8704497
vn -0.015871048 -0.49200147 0.8704497
vn -0.015871048 -0.87290585 -0.4876305
vn -0.015871048 -0.87290585 -0.4876305
vn -0.015871048 -0.87290585 -0.4876305
vn -0.015871048 -0.87290585 -0.4876305
vn -0.015871048 -0.87290585 -0.4876305
vn -0.015871048 -0.87290585 -0.4876305
vn -0.015871048 -0.87290585 -0.4876305
vn -0.015871048 -0.87290585 -0.4876305
vn -0.999874 0.015871048 -0.00034391563
vn -0.999874 0.015871048 -0.00034391563
vn -0.999874 0.015871048 -0.00034391563
vn -0.999874 0.015871048 -0.00034391563
vn -0.015871048 0.87290585 0.4876305
vn -0.015871048 0.87290585 0.4876305
vn -0.015871048 0.87290585 0.4876305
vn -0.015871048 0.87290585 0.4876305
vn -0.015871048 0.87290585 0.4876305
vn -0.015871048 0.87290585 0.4876305
vn -0.015871048 0.87290585 0.4876305
vn -0.015871048 0.87290585 0.4876305
g shelf02.013_0
f 3/3/3 2/2/2 1/1/1
f 2/2/2 4/4/4 1/1/1
f 4/4/4 5/5/5 1/1/1
f 6/6/6 5/5/5 4/4/4
f 5/5/5 7/7/7 1/1/1
f 1/1/1 7/7/7 8/8/8
f 11/11/11 10/10/10 9/9/9
f 12/12/12 11/11/11 9/9/9
f 15/15/15 14/14/14 13/13/13
f 16/16/16 15/15/15 13/13/13
f 19/19/19 18/18/18 17/17/17
f 20/20/20 19/19/19 17/17/17
f 23/23/23 22/22/22 21/21/21
f 23/23/23 21/21/21 24/24/24
f 25/25/25 23/23/23 24/24/24
f 26/26/26 25/25/25 24/24/24
f 23/23/23 25/25/25 27/27/27
f 25/25/25 28/28/28 27/27/27
f 31/31/31 30/30/30 29/29/29
f 32/32/32 31/31/31 29/29/29
f 35/35/35 34/34/34 33/33/33
f 36/36/36 35/35/35 33/33/33
f 39/39/39 38/38/38 37/37/37
f 40/40/40 39/39/39 37/37/37
f 43/43/43 42/42/42 41/41/41
f 44/44/44 43/43/43 41/41/41
f 47/47/47 46/46/46 45/45/45
f 48/48/48 47/47/47 45/45/45
f 51/51/51 50/50/50 49/49/49
f 52/52/52 51/51/51 49/49/49
f 55/55/55 54/54/54 53/53/53
f 54/54/54 56/56/56 53/53/53
f 53/53/53 56/56/56 57/57/57
f 56/56/56 58/58/58 57/57/57
f 57/57/57 58/58/58 59/59/59
f 58/58/58 60/60/60 59/59/59
f 63/63/63 62/62/62 61/61/61
f 64/64/64 63/63/63 61/61/61
f 67/67/67 66/66/66 65/65/65
f 66/66/66 68/68/68 65/65/65
f 69/69/69 67/67/67 65/65/65
f 68/68/68 70/70/70 65/65/65
f 67/67/67 69/69/69 71/71/71
f 68/68/68 72/72/72 70/70/70
f 72/72/72 71/71/71 70/70/70
f 72/72/72 67/67/67 71/71/71
