g shelves03
v 3.4533648 0.7580976 2.1751575
v 3.4533656 -1.7610273 2.1751575
v -2.9511302 -1.7610266 2.1751575
v -2.9511318 0.7580984 2.1751575
v 3.4533656 -1.7610273 2.1751575
v 3.4533656 -1.7610273 1.6503288
v -2.9511302 -1.7610266 1.6503288
v -2.9511302 -1.7610266 2.1751575
v 3.453364 -1.7610269 4.6028414
v 3.453364 -1.7610269 4.078013
v -2.9511302 -1.7610259 4.078013
v -2.9511302 -1.7610259 4.6028414
v 3.4533648 0.7580976 -0.23436242
v 3.453365 -1.7610273 -0.23436242
v -2.9511302 -1.761029 -0.23436242
v -2.9511323 0.7580977 -0.23436242
v 3.4505072 0.5548076 6.4878902
v 3.450508 0.55480736 -0.7591906
v -2.938179 0.55480653 -0.7591906
v -2.9381788 0.5548075 6.487891
v 3.450508 0.55480736 -0.7591906
v 3.4505072 0.5548076 6.4878902
v 3.4505072 -1.7610269 6.487891
v 3.4505088 -1.7610278 -0.7591902
v 3.4505072 -1.7610269 6.487891
v 3.8124 -1.7610278 -0.7591902
v 3.4505088 -1.7610278 -0.7591902
v 3.8123984 -1.7610273 7.0871377
v -3.3101645 -1.7610278 7.0871387
v -2.9381783 -1.7610285 6.487891
v -3.3101645 -1.7610292 -0.7591906
v -2.9381783 -1.7610292 -0.7591906
v -2.9381788 0.5548075 6.487891
v -2.938179 0.55480653 -0.7591906
v -2.9381783 -1.7610292 -0.7591906
v -2.9381783 -1.7610285 6.487891
v 3.453364 0.7580983 4.6028414
v 3.453364 -1.7610269 4.6028414
v -2.9511302 -1.7610259 4.6028414
v -2.9511318 0.75809866 4.6028414
v 3.8123984 -1.7610273 7.0871377
v 3.8123982 0.9245276 7.0871377
v 3.8123996 0.9245259 -0.7591915
v 3.8124 -1.7610278 -0.7591902
v 3.8123984 -1.7610273 7.0871377
v -3.3101645 -1.7610278 7.0871387
v -3.3101661 0.9245277 7.0871387
v 3.8123982 0.9245276 7.0871377
v 3.8123996 0.9245259 -0.7591915
v 3.8123982 0.9245276 7.0871377
v -3.3101661 0.9245277 7.0871387
v -3.310167 0.92452604 -0.7591906
v -3.3101661 0.9245277 7.0871387
v -3.3101645 -1.7610278 7.0871387
v -3.3101645 -1.7610292 -0.7591906
v -3.310167 0.92452604 -0.7591906
v 3.453365 -1.7610273 -0.23436242
v 3.453365 -1.7610273 -0.7591902
v -2.9511302 -1.761029 -0.7591906
v -2.9511302 -1.761029 -0.23436242
vt 0.40988043 0.030637916
vt 0.40988043 0.030637916
vt 0.40988043 0.030637916
vt 0.40988043 0.030637916
vt 0.40988043 0.030637916
vt 0.40988043 0.030637916
vt 0.40988043 0.030637916
vt 0.40988043 0.030637916
vt 0.40988043 0.030637916
vt 0.40988043 0.030637916
vt 0.40988043 0.030637916
vt 0.40988043 0.030637916
vt 0.40988043 0.030637916
vt 0.40988043 0.030637916
vt 0.40988043 0.030637916
vt 0.40988043 0.030637916
vt 0.40988043 0.030637916
vt 0.40988043 0.030637916
vt 0.40988043 0.030637916
vt 0.40988043 0.030637916
vt 0.40988043 0.030637916
vt 0.40988043 0.030637916
vt 0.40988043 0.030637916
vt 0.40988043 0.030637916
vt 0.40988043 0.030637916
vt 0.40988043 0.030637916
vt 0.40988043 0.030637916
vt 0.40988043 0.030637916
vt 0.40988043 0.030637916
vt 0.40988043 0.030637916
vt 0.40988043 0.030637916
vt 0.40988043 0.030637916
vt 0.40988043 0.030637916
vt 0.40988043 0.030637916
vt 0.40988043 0.030637916
vt 0.40988043 0.030637916
vt 0.40988043 0.030637916
vt 0.40988043 0.030637916
vt 0.40988043 0.030637916
vt 0.40988043 0.030637916
vt 0.40988043 0.030637916
vt 0.40988043 0.030637916
vt 0.40988043 0.030637916
vt 0.40988043 0.030637916
vt 0.40988043 0.030637916
vt 0.40988043 0.030637916
vt 0.40988043 0.030637916
vt 0.40988043 0.030637916
vt 0.40988043 0.030637916
vt 0.40988043 0.030637916
vt 0.40988043 0.030637916
vt 0.40988043 0.030637916
vt 0.40988043 0.030637916
vt 0.40988043 0.030637916
vt 0.40988043 0.030637916
vt 0.40988043 0.030637916
vt 0.40988043 0.030637916
vt 0.40988043 0.030637916
vt 0.40988043 0.030637916
vt 0.40988043 0.030637916
vn -0 0 1
vn -0 0 1
vn -0 0 1
vn -0 0 1
vn -0 -1 0
vn -0 -1 0
vn -0 -1 0
vn -0 -1 0
vn -0 -1 0
vn -0 -1 0
vn -0 -1 0
vn -0 -1 0
vn -0 0 1
vn -0 0 1
vn -0 0 1
vn -0 0 1
vn -0 -1 0
vn -0 -1 0
vn -0 -1 0
vn -0 -1 0
vn -1 0 0
vn -1 0 0
vn -1 0 0
vn -1 0 0
vn -0 -1 0
vn -0 -1 0
vn -0 -1 0
vn -0 -1 0
vn -0 -1 0
vn -0 -1 0
vn -0 -1 0
vn -0 -1 0
vn 1 0 0
vn 1 0 0
vn 1 0 0
vn 1 0 0
vn -0 0 1
vn -0 0 1
vn -0 0 1
vn -0 0 1
vn 1 0 0
vn 1 0 0
vn 1 0 0
vn 1 0 0
vn -0 0 1
vn -0 0 1
vn -0 0 1
vn -0 0 1
vn -0 1 0
vn -0 1 0
vn -0 1 0
vn -0 1 0
vn -1 0 0
vn -1 0 0
vn -1 0 0
vn -1 0 0
vn -0 -1 0
vn -0 -1 0
vn -0 -1 0
vn -0 -1 0
g shelves03_0
f 3/3/3 2/2/2 1/1/1
f 4/4/4 3/3/3 1/1/1
f 7/7/7 6/6/6 5/5/5
f 8/8/8 7/7/7 5/5/5
f 11/11/11 10/10/10 9/9/9
f 12/12/12 11/11/11 9/9/9
f 15/15/15 14/14/14 13/13/13
f 16/16/16 15/15/15 13/13/13
f 19/19/19 18/18/18 17/17/17
f 20/20/20 19/19/19 17/17/17
f 23/23/23 22/22/22 21/21/21
f 24/24/24 23/23/23 21/21/21
f 27/27/27 26/26/26 25/25/25
f 28/28/28 25/25/25 26/26/26
f 28/28/28 29/29/29 25/25/25
f 30/30/30 25/25/25 29/29/29
f 29/29/29 31/31/31 30/30/30
f 32/32/32 30/30/30 31/31/31
f 35/35/35 34/34/34 33/33/33
f 36/36/36 35/35/35 33/33/33
f 39/39/39 38/38/38 37/37/37
f 40/40/40 39/39/39 37/37/37
f 43/43/43 42/42/42 41/41/41
f 44/44/44 43/43/43 41/41/41
f 47/47/47 46/46/46 45/45/45
f 48/48/48 47/47/47 45/45/45
f 51/51/51 50/50/50 49/49/49
f 52/52/52 51/51/51 49/49/49
f 55/55/55 54/54/54 53/53/53
f 56/56/56 55/55/55 53/53/53
f 59/59/59 58/58/58 57/57/57
f 60/60/60 59/59/59 57/57/57
