g shelf06.001
v -3.85854 7.692477 2.324965
v -3.7995563 7.7662067 2.324965
v -3.85854 7.7662067 2.2512355
v -3.85854 0.26053715 -2.8213587
v -4.0207453 0.26053715 -2.8213587
v -3.7995563 0.17206192 -2.8655963
v -3.85854 0.24579144 2.324965
v -3.85854 0.17206192 2.2512355
v -3.7995563 0.17206192 2.324965
v -4.0207453 0.02460289 -2.8655963
v -3.7995563 0.17206192 -2.8655963
v -4.0207453 0.26053715 -2.8213587
v 3.8683186 7.692477 2.324965
v 3.8683186 7.7662067 2.2512355
v 3.7945888 7.7662067 2.324965
v 3.8683186 0.26053715 -2.8213587
v 3.7945888 0.17206192 -2.8655963
v 4.0157776 0.26053715 -2.8213587
v 3.8683186 0.24579144 2.324965
v 3.7945888 0.17206192 2.324965
v 3.8683186 0.17206192 2.2512355
v 4.0157776 0.02460289 -2.8655963
v 4.0157776 0.26053715 -2.8213587
v 3.7945888 0.17206192 -2.8655963
v -3.85854 6.8224688 -0.9928653
v -3.85854 0.36375856 -2.6444077
v -4.0207453 6.8224688 -0.9928653
v -4.0207453 0.36375856 -2.6444077
v -3.85854 0.26053715 -2.8213587
v -4.0207453 6.8961983 -1.1255786
v -4.0207453 0.26053715 -2.8213587
v -3.85854 6.8961983 -1.1255786
v -3.7995563 7.7662067 2.324965
v -2.2659817 7.9136667 2.324965
v -3.7995563 7.9136667 2.324965
v -1.9858093 7.9136667 2.324965
v -2.0447927 7.9873962 2.324965
v -2.1922522 7.9873962 2.324965
v -2.0447927 10.464709 2.324965
v -2.1922522 10.523693 2.324965
v -1.5876694 10.936579 2.324965
v -1.6466532 11.069292 2.324965
v 1.5974479 10.936579 2.324965
v 1.6416855 11.069292 2.324965
v 2.1872845 10.523693 2.324965
v 2.0545712 10.464709 2.324965
v 2.2020302 7.9873962 2.324965
v 2.0398252 7.9873962 2.324965
v 2.261014 7.9136667 2.324965
v 1.9808416 7.9136667 2.324965
v 3.7945888 7.7662067 2.324965
v 3.7945888 7.9136667 2.324965
v -1.6466532 11.069292 2.4724245
v -2.1922522 10.523693 2.4724245
v -2.1922522 10.523693 2.324965
v -1.6466532 11.069292 2.324965
v -4.0207453 3.0770068 2.2512355
v -3.85854 3.0770068 2.2512355
v -3.85854 3.1359906 2.324965
v -4.0207453 3.1359906 2.324965
v -2.2659817 7.9136667 2.4724245
v -3.7995563 7.9136667 2.324965
v -2.2659817 7.9136667 2.324965
v -4.0207453 7.9136667 2.4724245
v -3.85854 7.9136667 2.2512355
v -4.0207453 7.9136667 2.2512355
v -4.0207453 7.9136667 1.160038
v -3.85854 7.9136667 1.160038
v -4.0207453 7.7662067 2.2512355
v -3.85854 7.7662067 2.2512355
v -3.85854 7.7662067 1.1747837
v -4.0207453 7.7662067 1.1747837
v -3.7995563 0.17206192 2.4724245
v -3.85854 0.24579144 2.4724245
v -3.85854 0.24579144 2.324965
v -3.7995563 0.17206192 2.324965
v -4.0207453 4.920246 -1.5384641
v -4.0207453 5.067705 -1.5384641
v -4.0207453 5.067705 2.2512355
v -4.0207453 4.920246 2.2512355
v -4.0207453 4.8612623 2.324965
v -4.0207453 4.8612623 2.4724245
v -4.0207453 3.1359906 2.324965
v -4.0207453 5.1561804 2.4724245
v -4.0207453 5.1561804 2.324965
v -4.0207453 7.9136667 2.4724245
v -4.0207453 7.692477 2.324965
v -4.0207453 7.7662067 2.2512355
v -4.0207453 7.9136667 2.2512355
v -4.0207453 7.7662067 1.1747837
v -4.0207453 7.9136667 1.160038
v -4.0207453 7.6187477 -0.3292992
v -4.0207453 7.4860344 -0.2555697
v -4.0207453 6.8224688 -0.9928653
v -4.0207453 6.8961983 -1.1255786
v -4.0207453 0.36375856 -2.6444077
v -4.0207453 0.26053715 -2.8213587
v -4.0207453 0.20155382 -2.6591535
v -4.0207453 0.02460289 -2.8655963
v -4.0207453 0.17206192 -2.4969485
v -4.0207453 0.02460289 2.2512355
v -4.0207453 0.17206192 2.2512355
v -4.0207453 0.24579144 2.324965
v -4.0207453 0.02460289 2.4724245
v -4.0207453 0.24579144 2.4724245
v -4.0207453 0.85037374 2.324965
v -4.0207453 1.1452923 2.324965
v -4.0207453 0.92410326 2.2512355
v -4.0207453 1.0715623 2.2512355
v -4.0207453 0.92410326 -2.555932
v -4.0207453 1.0715623 -2.555932
v -4.0207453 2.8558183 2.324965
v -4.0207453 3.0770068 2.2512355
v -4.0207453 2.9295478 2.2512355
v -4.0207453 2.9295478 -2.0693169
v -4.0207453 3.0770068 -2.0693169
v -3.7995563 0.17206192 -2.7181373
v -3.85854 0.20155382 -2.6591535
v -3.85854 0.26053715 -2.8213587
v -3.7995563 0.17206192 -2.8655963
v -3.85854 0.20155382 -2.6591535
v -4.0207453 0.20155382 -2.6591535
v -4.0207453 0.36375856 -2.6444077
v -3.85854 0.36375856 -2.6444077
v -3.85854 0.02460289 -2.6444077
v -3.85854 0.20155382 -2.6591535
v -3.7995563 0.17206192 -2.7181373
v -3.7995563 0.02460289 -2.7181373
v -3.85854 1.1452923 2.324965
v -4.0207453 1.1452923 2.324965
v -4.0207453 1.0715623 2.2512355
v -3.85854 1.0715623 2.2512355
v -1.5876694 10.936579 2.4724245
v -1.5876694 10.936579 2.324965
v -2.0447927 10.464709 2.324965
v -2.0447927 10.464709 2.4724245
v -3.85854 2.8558183 2.324965
v -3.85854 2.9295478 2.2512355
v -4.0207453 2.9295478 2.2512355
v -4.0207453 2.8558183 2.324965
v -3.85854 0.85037374 2.324965
v -3.85854 0.92410326 2.2512355
v -4.0207453 0.92410326 2.2512355
v -4.0207453 0.85037374 2.324965
v -4.0207453 4.8612623 2.324965
v -3.85854 4.8612623 2.324965
v -3.85854 4.920246 2.2512355
v -4.0207453 4.920246 2.2512355
v -2.0447927 7.9873962 2.4724245
v -2.0447927 10.464709 2.4724245
v -2.0447927 10.464709 2.324965
v -2.0447927 7.9873962 2.324965
v -2.2659817 7.9136667 2.324965
v -2.1922522 7.9873962 2.324965
v -2.1922522 7.9873962 2.4724245
v -2.2659817 7.9136667 2.4724245
v -3.85854 5.1561804 2.324965
v -4.0207453 5.1561804 2.324965
v -4.0207453 5.067705 2.2512355
v -3.85854 5.067705 2.2512355
v -3.85854 7.7662067 2.2512355
v -4.0207453 7.7662067 2.2512355
v -4.0207453 7.692477 2.324965
v -3.85854 7.692477 2.324965
v -4.0207453 1.0715623 -2.555932
v -3.85854 1.0715623 -2.555932
v -3.85854 1.0715623 2.2512355
v -4.0207453 1.0715623 2.2512355
v -3.85854 0.17206192 -2.4969485
v -3.85854 0.02460289 2.2512355
v -3.85854 0.17206192 2.2512355
v -3.85854 0.02460289 -2.6444077
v -3.85854 0.20155382 -2.6591535
v -3.85854 0.36375856 -2.6444077
v -3.85854 0.26053715 -2.8213587
v -3.85854 6.8961983 -1.1255786
v -3.85854 6.8224688 -0.9928653
v -3.85854 7.6187477 -0.3292992
v -3.85854 7.4860344 -0.2555697
v -3.85854 7.9136667 1.160038
v -3.85854 7.7662067 1.1747837
v -3.85854 7.9136667 2.2512355
v -3.85854 7.7662067 2.2512355
v -3.85854 0.92410326 -2.555932
v -4.0207453 0.92410326 -2.555932
v -4.0207453 0.92410326 2.2512355
v -3.85854 0.92410326 2.2512355
v -3.85854 0.17206192 -2.4969485
v -3.85854 0.17206192 2.2512355
v -4.0207453 0.17206192 2.2512355
v -4.0207453 0.17206192 -2.4969485
v -3.85854 0.02460289 2.2512355
v -3.7995563 0.02460289 2.324965
v -3.7995563 0.17206192 2.324965
v -3.85854 0.17206192 2.2512355
v 1.6416855 11.069292 2.324965
v 1.6416855 11.069292 2.4724245
v -1.6466532 11.069292 2.4724245
v -1.6466532 11.069292 2.324965
v -3.85854 2.9295478 -2.0693169
v -4.0207453 2.9295478 -2.0693169
v -4.0207453 2.9295478 2.2512355
v -3.85854 2.9295478 2.2512355
v -3.85854 1.0715623 -2.555932
v -3.85854 0.92410326 -2.555932
v -3.85854 0.92410326 2.2512355
v -3.85854 1.0715623 2.2512355
v -3.85854 1.1452923 2.324965
v -3.85854 0.85037374 2.324965
v -3.85854 0.24579144 2.4724245
v -3.85854 0.24579144 2.324965
v -3.85854 2.8558183 2.324965
v -3.85854 3.1359906 2.324965
v -3.85854 4.8612623 2.4724245
v -3.85854 3.0770068 2.2512355
v -3.85854 2.9295478 2.2512355
v -3.85854 3.0770068 -2.0693169
v -3.85854 2.9295478 -2.0693169
v -3.85854 4.8612623 2.324965
v -3.85854 5.067705 2.2512355
v -3.85854 5.1561804 2.4724245
v -3.85854 4.920246 2.2512355
v -3.85854 5.067705 -1.5384641
v -3.85854 4.920246 -1.5384641
v -3.85854 5.1561804 2.324965
v -3.85854 7.692477 2.4724245
v -3.85854 7.692477 2.324965
v -3.85854 7.7662067 1.1747837
v -3.85854 7.4860344 -0.2555697
v -4.0207453 7.4860344 -0.2555697
v -4.0207453 7.7662067 1.1747837
v -3.85854 6.8224688 -0.9928653
v -4.0207453 6.8224688 -0.9928653
v -4.0207453 7.4860344 -0.2555697
v -3.85854 7.4860344 -0.2555697
v -4.0207453 7.9136667 1.160038
v -4.0207453 7.6187477 -0.3292992
v -3.85854 7.6187477 -0.3292992
v -3.85854 7.9136667 1.160038
v -3.85854 3.0770068 2.2512355
v -4.0207453 3.0770068 2.2512355
v -4.0207453 3.0770068 -2.0693169
v -3.85854 3.0770068 -2.0693169
v -4.0207453 7.6187477 -0.3292992
v -4.0207453 6.8961983 -1.1255786
v -3.85854 6.8961983 -1.1255786
v -3.85854 7.6187477 -0.3292992
v -3.85854 0.17206192 -2.4969485
v -4.0207453 0.17206192 -2.4969485
v -4.0207453 0.20155382 -2.6591535
v -3.85854 0.20155382 -2.6591535
v -3.85854 1.1452923 2.324965
v -3.85854 2.8558183 2.324965
v -4.0207453 2.8558183 2.324965
v -4.0207453 1.1452923 2.324965
v -3.85854 4.8612623 2.324965
v -4.0207453 4.8612623 2.324965
v -4.0207453 3.1359906 2.324965
v -3.85854 3.1359906 2.324965
v -4.0207453 0.92410326 -2.555932
v -3.85854 0.92410326 -2.555932
v -3.85854 1.0715623 -2.555932
v -4.0207453 1.0715623 -2.555932
v -4.0207453 0.24579144 2.324965
v -3.85854 0.24579144 2.324965
v -3.85854 0.85037374 2.324965
v -4.0207453 0.85037374 2.324965
v -3.7995563 7.7662067 2.324965
v -3.85854 7.692477 2.324965
v -3.85854 7.692477 2.4724245
v -3.7995563 7.7662067 2.4724245
v -4.0207453 2.9295478 -2.0693169
v -3.85854 2.9295478 -2.0693169
v -3.85854 3.0770068 -2.0693169
v -4.0207453 3.0770068 -2.0693169
v -3.85854 7.692477 2.324965
v -4.0207453 7.692477 2.324965
v -4.0207453 5.1561804 2.324965
v -3.85854 5.1561804 2.324965
v -3.7995563 7.9136667 2.324965
v -3.85854 7.9136667 2.2512355
v -3.85854 7.7662067 2.2512355
v -3.7995563 7.7662067 2.324965
v -2.1922522 7.9873962 2.324965
v -2.1922522 10.523693 2.324965
v -2.1922522 10.523693 2.4724245
v -2.1922522 7.9873962 2.4724245
v -3.85854 5.067705 -1.5384641
v -3.85854 5.067705 2.2512355
v -4.0207453 5.067705 2.2512355
v -4.0207453 5.067705 -1.5384641
v -3.85854 0.17206192 2.2512355
v -3.85854 0.24579144 2.324965
v -4.0207453 0.24579144 2.324965
v -4.0207453 0.17206192 2.2512355
v -4.0207453 4.920246 -1.5384641
v -4.0207453 4.920246 2.2512355
v -3.85854 4.920246 2.2512355
v -3.85854 4.920246 -1.5384641
v -1.9858093 7.9136667 2.324965
v -1.9858093 7.9136667 2.4724245
v -2.0447927 7.9873962 2.4724245
v -2.0447927 7.9873962 2.324965
v 1.5974479 10.936579 2.4724245
v 1.5974479 10.936579 2.324965
v -1.5876694 10.936579 2.324965
v -1.5876694 10.936579 2.4724245
v -3.7995563 0.17206192 2.324965
v -3.7995563 0.02460289 2.324965
v 3.7945888 0.02460289 2.324965
v 3.7945888 0.17206192 2.324965
v -3.7995563 0.02460289 -2.7181373
v -3.7995563 0.17206192 -2.7181373
v 3.7945888 0.17206192 -2.7181373
v 3.7945888 0.02460289 -2.7181373
v -3.7995563 0.17206192 -2.8655963
v -4.0207453 0.02460289 -2.8655963
v 4.0157776 0.02460289 -2.8655963
v 3.7945888 0.17206192 -2.8655963
v -3.7995563 0.17206192 -2.7181373
v -3.7995563 0.17206192 -2.8655963
v 3.7945888 0.17206192 -2.8655963
v 3.7945888 0.17206192 -2.7181373
v -3.7995563 0.17206192 2.4724245
v -3.7995563 0.17206192 2.324965
v 3.7945888 0.17206192 2.324965
v 3.7945888 0.17206192 2.4724245
v 3.8683186 6.8224688 -0.9928653
v 4.0157776 6.8224688 -0.9928653
v 3.8683186 0.36375856 -2.6444077
v 4.0157776 0.36375856 -2.6444077
v 3.8683186 0.26053715 -2.8213587
v 4.0157776 0.26053715 -2.8213587
v 4.0157776 6.8961983 -1.1255786
v 3.8683186 6.8961983 -1.1255786
v 1.6416855 11.069292 2.4724245
v 1.6416855 11.069292 2.324965
v 2.1872845 10.523693 2.324965
v 2.1872845 10.523693 2.4724245
v 3.7945888 7.7662067 2.324965
v -3.7995563 7.7662067 2.324965
v -3.7995563 7.7662067 2.4724245
v 3.7945888 7.7662067 2.4724245
v 4.0157776 3.0770068 2.2512355
v 4.0157776 3.1359906 2.324965
v 3.8683186 3.1359906 2.324965
v 3.8683186 3.0770068 2.2512355
v 2.261014 7.9136667 2.4724245
v 2.261014 7.9136667 2.324965
v 3.7945888 7.9136667 2.324965
v 4.0157776 7.9136667 2.4724245
v 3.8683186 7.9136667 2.2512355
v 4.0157776 7.9136667 2.2512355
v 4.0157776 7.9136667 1.160038
v 3.8683186 7.9136667 1.160038
v 4.0157776 7.7662067 2.2512355
v 4.0157776 7.7662067 1.1747837
v 3.8683186 7.7662067 1.1747837
v 3.8683186 7.7662067 2.2512355
v 3.7945888 0.17206192 2.4724245
v 3.7945888 0.17206192 2.324965
v 3.8683186 0.24579144 2.324965
v 3.8683186 0.24579144 2.4724245
v 4.0157776 4.920246 -1.5384641
v 4.0157776 5.067705 2.2512355
v 4.0157776 5.067705 -1.5384641
v 4.0157776 4.920246 2.2512355
v 4.0157776 4.8612623 2.324965
v 4.0157776 4.8612623 2.4724245
v 4.0157776 3.1359906 2.324965
v 4.0157776 5.1561804 2.4724245
v 4.0157776 5.1561804 2.324965
v 4.0157776 7.9136667 2.4724245
v 4.0157776 7.692477 2.324965
v 4.0157776 7.7662067 2.2512355
v 4.0157776 7.9136667 2.2512355
v 4.0157776 7.7662067 1.1747837
v 4.0157776 7.9136667 1.160038
v 4.0157776 7.6187477 -0.3292992
v 4.0157776 7.4860344 -0.2555697
v 4.0157776 6.8224688 -0.9928653
v 4.0157776 6.8961983 -1.1255786
v 4.0157776 0.36375856 -2.6444077
v 4.0157776 0.26053715 -2.8213587
v 4.0157776 0.20155382 -2.6591535
v 4.0157776 0.02460289 -2.8655963
v 4.0157776 0.17206192 -2.4969485
v 4.0157776 0.02460289 2.2512355
v 4.0157776 0.17206192 2.2512355
v 4.0157776 0.24579144 2.324965
v 4.0157776 0.02460289 2.4724245
v 4.0157776 0.24579144 2.4724245
v 4.0157776 0.85037374 2.324965
v 4.0157776 1.1452923 2.324965
v 4.0157776 0.92410326 2.2512355
v 4.0157776 1.0715623 2.2512355
v 4.0157776 0.92410326 -2.555932
v 4.0157776 1.0715623 -2.555932
v 4.0157776 2.8558183 2.324965
v 4.0157776 3.0770068 2.2512355
v 4.0157776 2.9295478 2.2512355
v 4.0157776 2.9295478 -2.0693169
v 4.0157776 3.0770068 -2.0693169
v 3.7945888 0.17206192 -2.7181373
v 3.7945888 0.17206192 -2.8655963
v 3.8683186 0.26053715 -2.8213587
v 3.8683186 0.20155382 -2.6591535
v 3.8683186 0.20155382 -2.6591535
v 3.8683186 0.36375856 -2.6444077
v 4.0157776 0.36375856 -2.6444077
v 4.0157776 0.20155382 -2.6591535
v 3.8683186 0.02460289 -2.6444077
v 3.7945888 0.02460289 -2.7181373
v 3.7945888 0.17206192 -2.7181373
v 3.8683186 0.20155382 -2.6591535
v 3.8683186 1.1452923 2.324965
v 3.8683186 1.0715623 2.2512355
v 4.0157776 1.0715623 2.2512355
v 4.0157776 1.1452923 2.324965
v 1.5974479 10.936579 2.4724245
v 2.0545712 10.464709 2.4724245
v 2.0545712 10.464709 2.324965
v 1.5974479 10.936579 2.324965
v 3.8683186 2.8558183 2.324965
v 4.0157776 2.8558183 2.324965
v 4.0157776 2.9295478 2.2512355
v 3.8683186 2.9295478 2.2512355
v 3.8683186 0.85037374 2.324965
v 4.0157776 0.85037374 2.324965
v 4.0157776 0.92410326 2.2512355
v 3.8683186 0.92410326 2.2512355
v 4.0157776 4.8612623 2.324965
v 4.0157776 4.920246 2.2512355
v 3.8683186 4.920246 2.2512355
v 3.8683186 4.8612623 2.324965
v 2.0398252 7.9873962 2.4724245
v 2.0398252 7.9873962 2.324965
v 2.0545712 10.464709 2.324965
v 2.0545712 10.464709 2.4724245
v 2.261014 7.9136667 2.324965
v 2.261014 7.9136667 2.4724245
v 2.2020302 7.9873962 2.4724245
v 2.2020302 7.9873962 2.324965
v 3.8683186 5.1561804 2.324965
v 3.8683186 5.067705 2.2512355
v 4.0157776 5.067705 2.2512355
v 4.0157776 5.1561804 2.324965
v 3.8683186 7.7662067 2.2512355
v 3.8683186 7.692477 2.324965
v 4.0157776 7.692477 2.324965
v 4.0157776 7.7662067 2.2512355
v 4.0157776 1.0715623 -2.555932
v 4.0157776 1.0715623 2.2512355
v 3.8683186 1.0715623 2.2512355
v 3.8683186 1.0715623 -2.555932
v 3.8683186 0.17206192 -2.4969485
v 3.8683186 0.17206192 2.2512355
v 3.8683186 0.02460289 2.2512355
v 3.8683186 0.02460289 -2.6444077
v 3.8683186 0.20155382 -2.6591535
v 3.8683186 0.36375856 -2.6444077
v 3.8683186 0.26053715 -2.8213587
v 3.8683186 6.8961983 -1.1255786
v 3.8683186 6.8224688 -0.9928653
v 3.8683186 7.6187477 -0.3292992
v 3.8683186 7.4860344 -0.2555697
v 3.8683186 7.9136667 1.160038
v 3.8683186 7.7662067 1.1747837
v 3.8683186 7.9136667 2.2512355
v 3.8683186 7.7662067 2.2512355
v 3.8683186 0.92410326 -2.555932
v 3.8683186 0.92410326 2.2512355
v 4.0157776 0.92410326 2.2512355
v 4.0157776 0.92410326 -2.555932
v 3.8683186 0.17206192 -2.4969485
v 4.0157776 0.17206192 -2.4969485
v 4.0157776 0.17206192 2.2512355
v 3.8683186 0.17206192 2.2512355
v 3.8683186 0.02460289 2.2512355
v 3.8683186 0.17206192 2.2512355
v 3.7945888 0.17206192 2.324965
v 3.7945888 0.02460289 2.324965
v 3.8683186 2.9295478 -2.0693169
v 3.8683186 2.9295478 2.2512355
v 4.0157776 2.9295478 2.2512355
v 4.0157776 2.9295478 -2.0693169
v 3.8683186 1.0715623 -2.555932
v 3.8683186 0.92410326 2.2512355
v 3.8683186 0.92410326 -2.555932
v 3.8683186 1.0715623 2.2512355
v 3.8683186 1.1452923 2.324965
v 3.8683186 0.85037374 2.324965
v 3.8683186 0.24579144 2.4724245
v 3.8683186 0.24579144 2.324965
v 3.8683186 2.8558183 2.324965
v 3.8683186 3.1359906 2.324965
v 3.8683186 4.8612623 2.4724245
v 3.8683186 3.0770068 2.2512355
v 3.8683186 2.9295478 2.2512355
v 3.8683186 3.0770068 -2.0693169
v 3.8683186 2.9295478 -2.0693169
v 3.8683186 4.8612623 2.324965
v 3.8683186 5.067705 2.2512355
v 3.8683186 5.1561804 2.4724245
v 3.8683186 4.920246 2.2512355
v 3.8683186 5.067705 -1.5384641
v 3.8683186 4.920246 -1.5384641
v 3.8683186 5.1561804 2.324965
v 3.8683186 7.692477 2.4724245
v 3.8683186 7.692477 2.324965
v 3.8683186 7.7662067 1.1747837
v 4.0157776 7.7662067 1.1747837
v 4.0157776 7.4860344 -0.2555697
v 3.8683186 7.4860344 -0.2555697
v 3.8683186 6.8224688 -0.9928653
v 3.8683186 7.4860344 -0.2555697
v 4.0157776 7.4860344 -0.2555697
v 4.0157776 6.8224688 -0.9928653
v 4.0157776 7.9136667 1.160038
v 3.8683186 7.9136667 1.160038
v 3.8683186 7.6187477 -0.3292992
v 4.0157776 7.6187477 -0.3292992
v 3.8683186 3.0770068 2.2512355
v 3.8683186 3.0770068 -2.0693169
v 4.0157776 3.0770068 -2.0693169
v 4.0157776 3.0770068 2.2512355
v 4.0157776 7.6187477 -0.3292992
v 3.8683186 7.6187477 -0.3292992
v 3.8683186 6.8961983 -1.1255786
v 4.0157776 6.8961983 -1.1255786
v 3.8683186 0.17206192 -2.4969485
v 3.8683186 0.20155382 -2.6591535
v 4.0157776 0.20155382 -2.6591535
v 4.0157776 0.17206192 -2.4969485
v 3.8683186 1.1452923 2.324965
v 4.0157776 1.1452923 2.324965
v 4.0157776 2.8558183 2.324965
v 3.8683186 2.8558183 2.324965
v 3.8683186 4.8612623 2.324965
v 3.8683186 3.1359906 2.324965
v 4.0157776 3.1359906 2.324965
v 4.0157776 4.8612623 2.324965
v 4.0157776 0.92410326 -2.555932
v 4.0157776 1.0715623 -2.555932
v 3.8683186 1.0715623 -2.555932
v 3.8683186 0.92410326 -2.555932
v 4.0157776 0.24579144 2.324965
v 4.0157776 0.85037374 2.324965
v 3.8683186 0.85037374 2.324965
v 3.8683186 0.24579144 2.324965
v 3.7945888 7.7662067 2.324965
v 3.7945888 7.7662067 2.4724245
v 3.8683186 7.692477 2.4724245
v 3.8683186 7.692477 2.324965
v 4.0157776 2.9295478 -2.0693169
v 4.0157776 3.0770068 -2.0693169
v 3.8683186 3.0770068 -2.0693169
v 3.8683186 2.9295478 -2.0693169
v 3.8683186 7.692477 2.324965
v 3.8683186 5.1561804 2.324965
v 4.0157776 5.1561804 2.324965
v 4.0157776 7.692477 2.324965
v 3.7945888 7.9136667 2.324965
v 3.7945888 7.7662067 2.324965
v 3.8683186 7.7662067 2.2512355
v 3.8683186 7.9136667 2.2512355
v 2.2020302 7.9873962 2.324965
v 2.2020302 7.9873962 2.4724245
v 2.1872845 10.523693 2.4724245
v 2.1872845 10.523693 2.324965
v 3.8683186 5.067705 -1.5384641
v 4.0157776 5.067705 -1.5384641
v 4.0157776 5.067705 2.2512355
v 3.8683186 5.067705 2.2512355
v 3.8683186 0.17206192 2.2512355
v 4.0157776 0.17206192 2.2512355
v 4.0157776 0.24579144 2.324965
v 3.8683186 0.24579144 2.324965
v 4.0157776 4.920246 -1.5384641
v 3.8683186 4.920246 -1.5384641
v 3.8683186 4.920246 2.2512355
v 4.0157776 4.920246 2.2512355
v 1.9808416 7.9136667 2.324965
v 2.0398252 7.9873962 2.324965
v 2.0398252 7.9873962 2.4724245
v 1.9808416 7.9136667 2.4724245
v -1.9858093 7.9136667 2.4724245
v -1.9858093 7.9136667 2.324965
v 1.9808416 7.9136667 2.324965
v 1.9808416 7.9136667 2.4724245
v -3.85854 2.9442935 2.3986945
v -3.85854 3.047515 2.3986945
v 3.8683186 3.047515 2.3986945
v 3.8683186 2.9442935 2.3986945
v 3.8683186 0.95359516 2.3986945
v -3.85854 0.95359516 2.3986945
v -3.85854 1.0568166 2.3986945
v 3.8683186 1.0568166 2.3986945
v 3.8683186 2.9442935 -1.730161
v 3.8683186 3.047515 -1.730161
v -3.85854 3.047515 -1.730161
v -3.85854 2.9442935 -1.730161
v -3.85854 3.047515 2.3986945
v -3.85854 3.047515 -1.730161
v 3.8683186 3.047515 -1.730161
v 3.8683186 3.047515 2.3986945
v 3.8683186 0.95359516 -2.1725383
v 3.8683186 1.0568166 -2.1725383
v -3.85854 1.0568166 -2.1725383
v -3.85854 0.95359516 -2.1725383
v 3.8683186 0.95359516 2.3986945
v 3.8683186 0.95359516 -2.1725383
v -3.85854 0.95359516 -2.1725383
v -3.85854 0.95359516 2.3986945
v -3.85854 1.0568166 2.3986945
v -3.85854 1.0568166 -2.1725383
v 3.8683186 1.0568166 -2.1725383
v 3.8683186 1.0568166 2.3986945
v -3.85854 2.9442935 2.3986945
v -3.85854 2.9442935 -1.730161
v -3.85854 3.047515 -1.730161
v -3.85854 3.047515 2.3986945
v -3.85854 0.95359516 2.3986945
v -3.85854 0.95359516 -2.1725383
v -3.85854 1.0568166 -2.1725383
v -3.85854 1.0568166 2.3986945
v -3.85854 4.9497375 2.3986945
v -3.85854 5.0529594 2.3986945
v 3.8683186 5.0529594 2.3986945
v 3.8683186 4.9497375 2.3986945
v 3.8683186 4.9497375 -1.2288
v 3.8683186 5.0529594 -1.2288
v -3.85854 5.0529594 -1.2288
v -3.85854 4.9497375 -1.2288
v -3.85854 5.0529594 2.3986945
v -3.85854 5.0529594 -1.2288
v 3.8683186 5.0529594 -1.2288
v 3.8683186 5.0529594 2.3986945
v 3.8683186 2.9442935 2.3986945
v 3.8683186 2.9442935 -1.730161
v -3.85854 2.9442935 -1.730161
v -3.85854 2.9442935 2.3986945
v -3.85854 4.9497375 2.3986945
v -3.85854 4.9497375 -1.2288
v -3.85854 5.0529594 -1.2288
v -3.85854 5.0529594 2.3986945
v 3.8683186 2.9442935 2.3986945
v 3.8683186 3.047515 2.3986945
v 3.8683186 3.047515 -1.730161
v 3.8683186 2.9442935 -1.730161
v 3.8683186 0.95359516 2.3986945
v 3.8683186 1.0568166 2.3986945
v 3.8683186 1.0568166 -2.1725383
v 3.8683186 0.95359516 -2.1725383
v 3.8683186 4.9497375 2.3986945
v 3.8683186 5.0529594 2.3986945
v 3.8683186 5.0529594 -1.2288
v 3.8683186 4.9497375 -1.2288
v 3.8683186 4.9497375 2.3986945
v 3.8683186 4.9497375 -1.2288
v -3.85854 4.9497375 -1.2288
v -3.85854 4.9497375 2.3986945
v 2.1135547 8.002142 2.501916
v 2.1135547 8.002142 2.295473
v -2.1185222 8.002142 2.295473
v -2.1185222 8.002142 2.501916
v 1.6269395 10.995563 2.501916
v 2.1135547 10.494201 2.501916
v 2.1135547 8.002142 2.501916
v -2.1185222 8.002142 2.501916
v -1.6171613 10.995563 2.501916
v -2.1185222 10.494201 2.501916
v 1.6269395 10.995563 2.501916
v -1.6171613 10.995563 2.501916
v -1.6171613 10.995563 2.295473
v 1.6269395 10.995563 2.295473
v -2.1185222 8.002142 2.295473
v -2.1185222 10.494201 2.295473
v -2.1185222 10.494201 2.501916
v -2.1185222 8.002142 2.501916
v -2.1185222 8.002142 2.295473
v 2.1135547 8.002142 2.295473
v 2.1135547 10.494201 2.295473
v 1.6269395 10.995563 2.295473
v -1.6171613 10.995563 2.295473
v -2.1185222 10.494201 2.295473
v 2.1135547 10.494201 2.501916
v 1.6269395 10.995563 2.501916
v 1.6269395 10.995563 2.295473
v 2.1135547 10.494201 2.295473
v -2.1185222 10.494201 2.295473
v -1.6171613 10.995563 2.295473
v -1.6171613 10.995563 2.501916
v -2.1185222 10.494201 2.501916
v 2.261014 7.9136667 2.4724245
v 2.0398252 7.9873962 2.4724245
v 2.2020302 7.9873962 2.4724245
v 2.1872845 10.523693 2.4724245
v 2.0545712 10.464709 2.4724245
v 1.5974479 10.936579 2.4724245
v 1.6416855 11.069292 2.4724245
v -1.5876694 10.936579 2.4724245
v -1.6466532 11.069292 2.4724245
v -2.1922522 10.523693 2.4724245
v -2.0447927 10.464709 2.4724245
v -2.0447927 7.9873962 2.4724245
v -2.1922522 7.9873962 2.4724245
v -2.2659817 7.9136667 2.4724245
v -1.9858093 7.9136667 2.4724245
v 1.9808416 7.9136667 2.4724245
v -3.7995563 7.7662067 2.4724245
v -4.0207453 7.9136667 2.4724245
v 3.7945888 7.7662067 2.4724245
v -3.85854 7.692477 2.4724245
v 4.0157776 7.9136667 2.4724245
v 3.8683186 7.692477 2.4724245
v -3.85854 5.1561804 2.4724245
v -4.0207453 5.1561804 2.4724245
v 3.8683186 5.1561804 2.4724245
v 4.0157776 5.1561804 2.4724245
v -4.0207453 4.8612623 2.4724245
v -3.85854 4.8612623 2.4724245
v -3.85854 0.24579144 2.4724245
v -4.0207453 0.24579144 2.4724245
v -3.7995563 0.17206192 2.4724245
v -4.0207453 0.02460289 2.4724245
v 4.0157776 4.8612623 2.4724245
v 3.8683186 4.8612623 2.4724245
v 3.8683186 0.24579144 2.4724245
v 4.0157776 0.24579144 2.4724245
v 3.7945888 0.17206192 2.4724245
v 4.0157776 0.02460289 2.4724245
v 3.8683186 0.02460289 2.2512355
v 4.0157776 0.02460289 -2.8655963
v 3.8683186 0.02460289 -2.6444077
v 3.7945888 0.02460289 -2.7181373
v 4.0157776 0.02460289 2.2512355
v 3.7945888 0.02460289 2.324965
v 4.0157776 0.02460289 2.4724245
v -4.0207453 0.02460289 -2.8655963
v -3.7995563 0.02460289 2.324965
v -4.0207453 0.02460289 2.4724245
v -4.0207453 0.02460289 2.2512355
v -3.85854 0.02460289 2.2512355
v -3.7995563 0.02460289 -2.7181373
v -3.85854 0.02460289 -2.6444077
v -1.4254646 8.12011 2.5608997
v -1.4254646 10.96607 2.5608997
v 1.420497 10.96607 2.5608997
v 1.420497 8.12011 2.5608997
vt 0.9059403 0.09420763
vt 0.9059403 0.09420763
vt 0.9059403 0.09420763
vt 0.9059403 0.09420763
vt 0.9059403 0.09420763
vt 0.9059403 0.09420763
vt 0.9059403 0.09420763
vt 0.9059403 0.09420763
vt 0.9059403 0.09420763
vt 0.9059403 0.09420763
vt 0.9059403 0.09420763
vt 0.9059403 0.09420763
vt 0.9059403 0.09420763
vt 0.9059403 0.09420763
vt 0.9059403 0.09420763
vt 0.9059403 0.09420763
vt 0.9059403 0.09420763
vt 0.9059403 0.09420763
vt 0.9059403 0.09420763
vt 0.9059403 0.09420763
vt 0.9059403 0.09420763
vt 0.9059403 0.09420763
vt 0.9059403 0.09420763
vt 0.9059403 0.09420763
vt 0.9059403 0.09420763
vt 0.9059403 0.09420763
vt 0.9059403 0.09420763
vt 0.9059403 0.09420763
vt 0.9059403 0.09420763
vt 0.9059403 0.09420763
vt 0.9059403 0.09420763
vt 0.9059403 0.09420763
vt 0.9059403 0.09420763
vt 0.9059403 0.09420763
vt 0.9059403 0.09420763
vt 0.9059403 0.09420763
vt 0.9059403 0.09420763
vt 0.9059403 0.09420763
vt 0.9059403 0.09420763
vt 0.9059403 0.09420763
vt 0.9059403 0.09420763
vt 0.9059403 0.09420763
vt 0.9059403 0.09420763
vt 0.9059403 0.09420763
vt 0.9059403 0.09420763
vt 0.9059403 0.09420763
vt 0.9059403 0.09420763
vt 0.9059403 0.09420763
vt 0.9059403 0.09420763
vt 0.9059403 0.09420763
vt 0.9059403 0.09420763
vt 0.9059403 0.09420763
vt 0.9059403 0.09420763
vt 0.9059403 0.09420763
vt 0.9059403 0.09420763
vt 0.9059403 0.09420763
vt 0.9059403 0.09420763
vt 0.9059403 0.09420763
vt 0.9059403 0.09420763
vt 0.9059403 0.09420763
vt 0.9059403 0.09420763
vt 0.9059403 0.09420763
vt 0.9059403 0.09420763
vt 0.9059403 0.09420763
vt 0.9059403 0.09420763
vt 0.9059403 0.09420763
vt 0.9059403 0.09420763
vt 0.9059403 0.09420763
vt 0.9059403 0.09420763
vt 0.9059403 0.09420763
vt 0.9059403 0.09420763
vt 0.9059403 0.09420763
vt 0.9059403 0.09420763
vt 0.9059403 0.09420763
vt 0.9059403 0.09420763
vt 0.9059403 0.09420763
vt 0.9059403 0.09420763
vt 0.9059403 0.09420763
vt 0.9059403 0.09420763
vt 0.9059403 0.09420763
vt 0.9059403 0.09420763
vt 0.9059403 0.09420763
vt 0.9059403 0.09420763
vt 0.9059403 0.09420763
vt 0.9059403 0.09420763
vt 0.9059403 0.09420763
vt 0.9059403 0.09420763
vt 0.9059403 0.09420763
vt 0.9059403 0.09420763
vt 0.9059403 0.09420763
vt 0.9059403 0.09420763
vt 0.9059403 0.09420763
vt 0.9059403 0.09420763
vt 0.9059403 0.09420763
vt 0.9059403 0.09420763
vt 0.9059403 0.09420763
vt 0.9059403 0.09420763
vt 0.9059403 0.09420763
vt 0.9059403 0.09420763
vt 0.9059403 0.09420763
vt 0.9059403 0.09420763
vt 0.9059403 0.09420763
vt 0.9059403 0.09420763
vt 0.9059403 0.09420763
vt 0.9059403 0.09420763
vt 0.9059403 0.09420763
vt 0.9059403 0.09420763
vt 0.9059403 0.09420763
vt 0.9059403 0.09420763
vt 0.9059403 0.09420763
vt 0.9059403 0.09420763
vt 0.9059403 0.09420763
vt 0.9059403 0.09420763
vt 0.9059403 0.09420763
vt 0.9059403 0.09420763
vt 0.9059403 0.09420763
vt 0.9059403 0.09420763
vt 0.9059403 0.09420763
vt 0.9059403 0.09420763
vt 0.9059403 0.09420763
vt 0.9059403 0.09420763
vt 0.9059403 0.09420763
vt 0.9059403 0.09420763
vt 0.9059403 0.09420763
vt 0.9059403 0.09420763
vt 0.9059403 0.09420763
vt 0.9059403 0.09420763
vt 0.9059403 0.09420763
vt 0.9059403 0.09420763
vt 0.9059403 0.09420763
vt 0.9059403 0.09420763
vt 0.9059403 0.09420763
vt 0.9059403 0.09420763
vt 0.9059403 0.09420763
vt 0.9059403 0.09420763
vt 0.9059403 0.09420763
vt 0.9059403 0.09420763
vt 0.9059403 0.09420763
vt 0.9059403 0.09420763
vt 0.9059403 0.09420763
vt 0.9059403 0.09420763
vt 0.9059403 0.09420763
vt 0.9059403 0.09420763
vt 0.9059403 0.09420763
vt 0.9059403 0.09420763
vt 0.9059403 0.09420763
vt 0.9059403 0.09420763
vt 0.9059403 0.09420763
vt 0.9059403 0.09420763
vt 0.9059403 0.09420763
vt 0.9059403 0.09420763
vt 0.9059403 0.09420763
vt 0.9059403 0.09420763
vt 0.9059403 0.09420763
vt 0.9059403 0.09420763
vt 0.9059403 0.09420763
vt 0.9059403 0.09420763
vt 0.9059403 0.09420763
vt 0.9059403 0.09420763
vt 0.9059403 0.09420763
vt 0.9059403 0.09420763
vt 0.9059403 0.09420763
vt 0.9059403 0.09420763
vt 0.9059403 0.09420763
vt 0.9059403 0.09420763
vt 0.9059403 0.09420763
vt 0.9059403 0.09420763
vt 0.9059403 0.09420763
vt 0.9059403 0.09420763
vt 0.9059403 0.09420763
vt 0.9059403 0.09420763
vt 0.9059403 0.09420763
vt 0.9059403 0.09420763
vt 0.9059403 0.09420763
vt 0.9059403 0.09420763
vt 0.9059403 0.09420763
vt 0.9059403 0.09420763
vt 0.9059403 0.09420763
vt 0.9059403 0.09420763
vt 0.9059403 0.09420763
vt 0.9059403 0.09420763
vt 0.9059403 0.09420763
vt 0.9059403 0.09420763
vt 0.9059403 0.09420763
vt 0.9059403 0.09420763
vt 0.9059403 0.09420763
vt 0.9059403 0.09420763
vt 0.9059403 0.09420763
vt 0.9059403 0.09420763
vt 0.9059403 0.09420763
vt 0.9059403 0.09420763
vt 0.9059403 0.09420763
vt 0.9059403 0.09420763
vt 0.9059403 0.09420763
vt 0.9059403 0.09420763
vt 0.9059403 0.09420763
vt 0.9059403 0.09420763
vt 0.9059403 0.09420763
vt 0.9059403 0.09420763
vt 0.9059403 0.09420763
vt 0.9059403 0.09420763
vt 0.9059403 0.09420763
vt 0.9059403 0.09420763
vt 0.9059403 0.09420763
vt 0.9059403 0.09420763
vt 0.9059403 0.09420763
vt 0.9059403 0.09420763
vt 0.9059403 0.09420763
vt 0.9059403 0.09420763
vt 0.9059403 0.09420763
vt 0.9059403 0.09420763
vt 0.9059403 0.09420763
vt 0.9059403 0.09420763
vt 0.9059403 0.09420763
vt 0.9059403 0.09420763
vt 0.9059403 0.09420763
vt 0.9059403 0.09420763
vt 0.9059403 0.09420763
vt 0.9059403 0.09420763
vt 0.9059403 0.09420763
vt 0.9059403 0.09420763
vt 0.9059403 0.09420763
vt 0.9059403 0.09420763
vt 0.9059403 0.09420763
vt 0.9059403 0.09420763
vt 0.9059403 0.09420763
vt 0.9059403 0.09420763
vt 0.9059403 0.09420763
vt 0.9059403 0.09420763
vt 0.9059403 0.09420763
vt 0.9059403 0.09420763
vt 0.9059403 0.09420763
vt 0.9059403 0.09420763
vt 0.9059403 0.09420763
vt 0.9059403 0.09420763
vt 0.9059403 0.09420763
vt 0.9059403 0.09420763
vt 0.9059403 0.09420763
vt 0.9059403 0.09420763
vt 0.9059403 0.09420763
vt 0.9059403 0.09420763
vt 0.9059403 0.09420763
vt 0.9059403 0.09420763
vt 0.9059403 0.09420763
vt 0.9059403 0.09420763
vt 0.9059403 0.09420763
vt 0.9059403 0.09420763
vt 0.9059403 0.09420763
vt 0.9059403 0.09420763
vt 0.9059403 0.09420763
vt 0.9059403 0.09420763
vt 0.9059403 0.09420763
vt 0.9059403 0.09420763
vt 0.9059403 0.09420763
vt 0.9059403 0.09420763
vt 0.9059403 0.09420763
vt 0.9059403 0.09420763
vt 0.9059403 0.09420763
vt 0.9059403 0.09420763
vt 0.9059403 0.09420763
vt 0.9059403 0.09420763
vt 0.9059403 0.09420763
vt 0.9059403 0.09420763
vt 0.9059403 0.09420763
vt 0.9059403 0.09420763
vt 0.9059403 0.09420763
vt 0.9059403 0.09420763
vt 0.9059403 0.09420763
vt 0.9059403 0.09420763
vt 0.9059403 0.09420763
vt 0.9059403 0.09420763
vt 0.9059403 0.09420763
vt 0.9059403 0.09420763
vt 0.9059403 0.09420763
vt 0.9059403 0.09420763
vt 0.9059403 0.09420763
vt 0.9059403 0.09420763
vt 0.9059403 0.09420763
vt 0.9059403 0.09420763
vt 0.9059403 0.09420763
vt 0.9059403 0.09420763
vt 0.9059403 0.09420763
vt 0.9059403 0.09420763
vt 0.9059403 0.09420763
vt 0.9059403 0.09420763
vt 0.9059403 0.09420763
vt 0.9059403 0.09420763
vt 0.9059403 0.09420763
vt 0.9059403 0.09420763
vt 0.9059403 0.09420763
vt 0.9059403 0.09420763
vt 0.9059403 0.09420763
vt 0.9059403 0.09420763
vt 0.9059403 0.09420763
vt 0.9059403 0.09420763
vt 0.9059403 0.09420763
vt 0.9059403 0.09420763
vt 0.9059403 0.09420763
vt 0.9059403 0.09420763
vt 0.9059403 0.09420763
vt 0.9059403 0.09420763
vt 0.9059403 0.09420763
vt 0.9059403 0.09420763
vt 0.9059403 0.09420763
vt 0.9059403 0.09420763
vt 0.9059403 0.09420763
vt 0.9059403 0.09420763
vt 0.9059403 0.09420763
vt 0.9059403 0.09420763
vt 0.9059403 0.09420763
vt 0.9059403 0.09420763
vt 0.9059403 0.09420763
vt 0.9059403 0.09420763
vt 0.9059403 0.09420763
vt 0.9059403 0.09420763
vt 0.9059403 0.09420763
vt 0.9059403 0.09420763
vt 0.9059403 0.09420763
vt 0.9059403 0.09420763
vt 0.9059403 0.09420763
vt 0.9059403 0.09420763
vt 0.9059403 0.09420763
vt 0.9059403 0.09420763
vt 0.9059403 0.09420763
vt 0.9059403 0.09420763
vt 0.9059403 0.09420763
vt 0.9059403 0.09420763
vt 0.9059403 0.09420763
vt 0.9059403 0.09420763
vt 0.9059403 0.09420763
vt 0.9059403 0.09420763
vt 0.9059403 0.09420763
vt 0.9059403 0.09420763
vt 0.9059403 0.09420763
vt 0.9059403 0.09420763
vt 0.9059403 0.09420763
vt 0.9059403 0.09420763
vt 0.9059403 0.09420763
vt 0.9059403 0.09420763
vt 0.9059403 0.09420763
vt 0.9059403 0.09420763
vt 0.9059403 0.09420763
vt 0.9059403 0.09420763
vt 0.9059403 0.09420763
vt 0.9059403 0.09420763
vt 0.9059403 0.09420763
vt 0.9059403 0.09420763
vt 0.9059403 0.09420763
vt 0.9059403 0.09420763
vt 0.9059403 0.09420763
vt 0.9059403 0.09420763
vt 0.9059403 0.09420763
vt 0.9059403 0.09420763
vt 0.9059403 0.09420763
vt 0.9059403 0.09420763
vt 0.9059403 0.09420763
vt 0.9059403 0.09420763
vt 0.9059403 0.09420763
vt 0.9059403 0.09420763
vt 0.9059403 0.09420763
vt 0.9059403 0.09420763
vt 0.9059403 0.09420763
vt 0.9059403 0.09420763
vt 0.9059403 0.09420763
vt 0.9059403 0.09420763
vt 0.9059403 0.09420763
vt 0.9059403 0.09420763
vt 0.9059403 0.09420763
vt 0.9059403 0.09420763
vt 0.9059403 0.09420763
vt 0.9059403 0.09420763
vt 0.9059403 0.09420763
vt 0.9059403 0.09420763
vt 0.9059403 0.09420763
vt 0.9059403 0.09420763
vt 0.9059403 0.09420763
vt 0.9059403 0.09420763
vt 0.9059403 0.09420763
vt 0.9059403 0.09420763
vt 0.9059403 0.09420763
vt 0.9059403 0.09420763
vt 0.9059403 0.09420763
vt 0.9059403 0.09420763
vt 0.9059403 0.09420763
vt 0.9059403 0.09420763
vt 0.9059403 0.09420763
vt 0.9059403 0.09420763
vt 0.9059403 0.09420763
vt 0.9059403 0.09420763
vt 0.9059403 0.09420763
vt 0.9059403 0.09420763
vt 0.9059403 0.09420763
vt 0.9059403 0.09420763
vt 0.9059403 0.09420763
vt 0.9059403 0.09420763
vt 0.9059403 0.09420763
vt 0.9059403 0.09420763
vt 0.9059403 0.09420763
vt 0.9059403 0.09420763
vt 0.9059403 0.09420763
vt 0.9059403 0.09420763
vt 0.9059403 0.09420763
vt 0.9059403 0.09420763
vt 0.9059403 0.09420763
vt 0.9059403 0.09420763
vt 0.9059403 0.09420763
vt 0.9059403 0.09420763
vt 0.9059403 0.09420763
vt 0.9059403 0.09420763
vt 0.9059403 0.09420763
vt 0.9059403 0.09420763
vt 0.9059403 0.09420763
vt 0.9059403 0.09420763
vt 0.9059403 0.09420763
vt 0.9059403 0.09420763
vt 0.9059403 0.09420763
vt 0.9059403 0.09420763
vt 0.9059403 0.09420763
vt 0.9059403 0.09420763
vt 0.9059403 0.09420763
vt 0.9059403 0.09420763
vt 0.9059403 0.09420763
vt 0.9059403 0.09420763
vt 0.9059403 0.09420763
vt 0.9059403 0.09420763
vt 0.9059403 0.09420763
vt 0.9059403 0.09420763
vt 0.9059403 0.09420763
vt 0.9059403 0.09420763
vt 0.9059403 0.09420763
vt 0.9059403 0.09420763
vt 0.9059403 0.09420763
vt 0.9059403 0.09420763
vt 0.9059403 0.09420763
vt 0.9059403 0.09420763
vt 0.9059403 0.09420763
vt 0.9059403 0.09420763
vt 0.9059403 0.09420763
vt 0.9059403 0.09420763
vt 0.9059403 0.09420763
vt 0.9059403 0.09420763
vt 0.9059403 0.09420763
vt 0.9059403 0.09420763
vt 0.9059403 0.09420763
vt 0.9059403 0.09420763
vt 0.9059403 0.09420763
vt 0.9059403 0.09420763
vt 0.9059403 0.09420763
vt 0.9059403 0.09420763
vt 0.9059403 0.09420763
vt 0.9059403 0.09420763
vt 0.9059403 0.09420763
vt 0.9059403 0.09420763
vt 0.9059403 0.09420763
vt 0.9059403 0.09420763
vt 0.9059403 0.09420763
vt 0.9059403 0.09420763
vt 0.9059403 0.09420763
vt 0.9059403 0.09420763
vt 0.9059403 0.09420763
vt 0.9059403 0.09420763
vt 0.9059403 0.09420763
vt 0.9059403 0.09420763
vt 0.9059403 0.09420763
vt 0.9059403 0.09420763
vt 0.9059403 0.09420763
vt 0.9059403 0.09420763
vt 0.9059403 0.09420763
vt 0.9059403 0.09420763
vt 0.9059403 0.09420763
vt 0.9059403 0.09420763
vt 0.9059403 0.09420763
vt 0.9059403 0.09420763
vt 0.9059403 0.09420763
vt 0.9059403 0.09420763
vt 0.9059403 0.09420763
vt 0.9059403 0.09420763
vt 0.9059403 0.09420763
vt 0.9059403 0.09420763
vt 0.9059403 0.09420763
vt 0.9059403 0.09420763
vt 0.9059403 0.09420763
vt 0.9059403 0.09420763
vt 0.9059403 0.09420763
vt 0.9059403 0.09420763
vt 0.9059403 0.09420763
vt 0.9059403 0.09420763
vt 0.9059403 0.09420763
vt 0.9059403 0.09420763
vt 0.9059403 0.09420763
vt 0.9059403 0.09420763
vt 0.9059403 0.09420763
vt 0.9059403 0.09420763
vt 0.9059403 0.09420763
vt 0.9059403 0.09420763
vt 0.9059403 0.09420763
vt 0.9059403 0.09420763
vt 0.9059403 0.09420763
vt 0.9059403 0.09420763
vt 0.9059403 0.09420763
vt 0.9059403 0.09420763
vt 0.9059403 0.09420763
vt 0.9059403 0.09420763
vt 0.9059403 0.09420763
vt 0.9059403 0.09420763
vt 0.9059403 0.09420763
vt 0.9059403 0.09420763
vt 0.9059403 0.09420763
vt 0.9059403 0.09420763
vt 0.9059403 0.09420763
vt 0.9059403 0.09420763
vt 0.9059403 0.09420763
vt 0.9059403 0.09420763
vt 0.9059403 0.09420763
vt 0.9059403 0.09420763
vt 0.9059403 0.09420763
vt 0.9059403 0.09420763
vt 0.9059403 0.09420763
vt 0.9059403 0.09420763
vt 0.9059403 0.09420763
vt 0.9059403 0.09420763
vt 0.9059403 0.09420763
vt 0.9059403 0.09420763
vt 0.9059403 0.09420763
vt 0.9059403 0.09420763
vt 0.9059403 0.09420763
vt 0.9059403 0.09420763
vt 0.9059403 0.09420763
vt 0.9059403 0.09420763
vt 0.9059403 0.09420763
vt 0.9059403 0.09420763
vt 0.9059403 0.09420763
vt 0.9059403 0.09420763
vt 0.9059403 0.09420763
vt 0.9059403 0.09420763
vt 0.9059403 0.09420763
vt 0.9059403 0.09420763
vt 0.9059403 0.09420763
vt 0.9059403 0.09420763
vt 0.9059403 0.09420763
vt 0.9059403 0.09420763
vt 0.9059403 0.09420763
vt 0.9059403 0.09420763
vt 0.9059403 0.09420763
vt 0.9059403 0.09420763
vt 0.9059403 0.09420763
vt 0.9059403 0.09420763
vt 0.9059403 0.09420763
vt 0.9059403 0.09420763
vt 0.9059403 0.09420763
vt 0.9059403 0.09420763
vt 0.9059403 0.09420763
vt 0.9059403 0.09420763
vt 0.9059403 0.09420763
vt 0.9059403 0.09420763
vt 0.9059403 0.09420763
vt 0.9059403 0.09420763
vt 0.9059403 0.09420763
vt 0.9059403 0.09420763
vt 0.9059403 0.09420763
vt 0.9059403 0.09420763
vt 0.9059403 0.09420763
vt 0.9059403 0.09420763
vt 0.9059403 0.09420763
vt 0.9059403 0.09420763
vt 0.9059403 0.09420763
vt 0.9059403 0.09420763
vt 0.9059403 0.09420763
vt 0.9059403 0.09420763
vt 0.9059403 0.09420763
vt 0.9059403 0.09420763
vt 0.9059403 0.09420763
vt 0.9059403 0.09420763
vt 0.9059403 0.09420763
vt 0.9059403 0.09420763
vt 0.9059403 0.09420763
vt 0.9059403 0.09420763
vt 0.9059403 0.09420763
vt 0.9059403 0.09420763
vt 0.9059403 0.09420763
vt 0.9059403 0.09420763
vt 0.9059403 0.09420763
vt 0.9059403 0.09420763
vt 0.9059403 0.09420763
vt 0.9059403 0.09420763
vt 0.9059403 0.09420763
vt 0.9059403 0.09420763
vt 0.9059403 0.09420763
vt 0.9059403 0.09420763
vt 0.9059403 0.09420763
vt 0.21884376 0.09101183
vt 0.21884376 0.09101183
vt 0.21884376 0.09101183
vt 0.21884376 0.09101183
vt 0.21884376 0.09101183
vt 0.21884376 0.09101183
vt 0.21884376 0.09101183
vt 0.21884376 0.09101183
vt 0.21884376 0.09101183
vt 0.21884376 0.09101183
vt 0.21884376 0.09101183
vt 0.21884376 0.09101183
vt 0.21884376 0.09101183
vt 0.21884376 0.09101183
vt 0.21884376 0.09101183
vt 0.21884376 0.09101183
vt 0.21884376 0.09101183
vt 0.21884376 0.09101183
vt 0.21884376 0.09101183
vt 0.21884376 0.09101183
vt 0.21884376 0.09101183
vt 0.21884376 0.09101183
vt 0.21884376 0.09101183
vt 0.21884376 0.09101183
vt 0.21884376 0.09101183
vt 0.21884376 0.09101183
vt 0.21884376 0.09101183
vt 0.21884376 0.09101183
vt 0.21884376 0.09101183
vt 0.21884376 0.09101183
vt 0.21884376 0.09101183
vt 0.21884376 0.09101183
vt 0.21884376 0.09101183
vt 0.21884376 0.09101183
vt 0.21884376 0.09101183
vt 0.21884376 0.09101183
vt 0.21884376 0.09101183
vt 0.21884376 0.09101183
vt 0.21884376 0.09101183
vt 0.21884376 0.09101183
vt 0.21884376 0.09101183
vt 0.21884376 0.09101183
vt 0.21884376 0.09101183
vt 0.21884376 0.09101183
vt 0.21884376 0.09101183
vt 0.21884376 0.09101183
vt 0.21884376 0.09101183
vt 0.21884376 0.09101183
vt 0.21884376 0.09101183
vt 0.21884376 0.09101183
vt 0.21884376 0.09101183
vt 0.21884376 0.09101183
vt 0.21884376 0.09101183
vt 0.21884376 0.09101183
vt 0.21884376 0.09101183
vt 0.21884376 0.09101183
vt 0.21884376 0.09101183
vt 0.21884376 0.09101183
vt 0.21884376 0.09101183
vt 0.21884376 0.09101183
vt 0.21884376 0.09101183
vt 0.21884376 0.09101183
vt 0.21884376 0.09101183
vt 0.21884376 0.09101183
vt 0.21884376 0.09101183
vt 0.21884376 0.09101183
vt 0.21884376 0.09101183
vt 0.21884376 0.09101183
vt 0.21884376 0.09101183
vt 0.21884376 0.09101183
vt 0.21884376 0.09101183
vt 0.21884376 0.09101183
vt 0.21884376 0.09101183
vt 0.21884376 0.09101183
vt 0.21884376 0.09101183
vt 0.21884376 0.09101183
vt 0.21884376 0.09101183
vt 0.21884376 0.09101183
vt 0.21884376 0.09101183
vt 0.21884376 0.09101183
vt 0.21884376 0.09101183
vt 0.21884376 0.09101183
vt 0.21884376 0.09101183
vt 0.21884376 0.09101183
vt 0.21884376 0.09101183
vt 0.21884376 0.09101183
vt 0.21884376 0.09101183
vt 0.21884376 0.09101183
vt 0.21884376 0.09101183
vt 0.21884376 0.09101183
vt 0.21884376 0.09101183
vt 0.21884376 0.09101183
vt 0.21884376 0.09101183
vt 0.21884376 0.09101183
vt 0.21884376 0.09101183
vt 0.21884376 0.09101183
vt 0.21884376 0.09101183
vt 0.21884376 0.09101183
vt 0.21884376 0.09101183
vt 0.21884376 0.09101183
vt 0.21884376 0.09101183
vt 0.21884376 0.09101183
vt 0.21884376 0.09101183
vt 0.21884376 0.09101183
vt 0.9059403 0.09420763
vt 0.9059403 0.09420763
vt 0.9059403 0.09420763
vt 0.9059403 0.09420763
vt 0.9059403 0.09420763
vt 0.9059403 0.09420763
vt 0.9059403 0.09420763
vt 0.9059403 0.09420763
vt 0.9059403 0.09420763
vt 0.9059403 0.09420763
vt 0.9059403 0.09420763
vt 0.9059403 0.09420763
vt 0.9059403 0.09420763
vt 0.9059403 0.09420763
vt 0.9059403 0.09420763
vt 0.9059403 0.09420763
vt 0.9059403 0.09420763
vt 0.9059403 0.09420763
vt 0.9059403 0.09420763
vt 0.9059403 0.09420763
vt 0.9059403 0.09420763
vt 0.9059403 0.09420763
vt 0.9059403 0.09420763
vt 0.9059403 0.09420763
vt 0.9059403 0.09420763
vt 0.9059403 0.09420763
vt 0.9059403 0.09420763
vt 0.9059403 0.09420763
vt 0.9059403 0.09420763
vt 0.9059403 0.09420763
vt 0.9059403 0.09420763
vt 0.9059403 0.09420763
vt 0.9059403 0.09420763
vt 0.9059403 0.09420763
vt 0.9059403 0.09420763
vt 0.9059403 0.09420763
vt 0.9059403 0.09420763
vt 0.9059403 0.09420763
vt 0.9059403 0.09420763
vt 0.9059403 0.09420763
vt 0.9059403 0.09420763
vt 0.9059403 0.09420763
vt 0.9059403 0.09420763
vt 0.9059403 0.09420763
vt 0.9059403 0.09420763
vt 0.9059403 0.09420763
vt 0.9059403 0.09420763
vt 0.9059403 0.09420763
vt 0.9059403 0.09420763
vt 0.9059403 0.09420763
vt 0.9059403 0.09420763
vt 0.9059403 0.09420763
vt 0.12616561 0.6247101
vt 0.12616561 0.7493462
vt 0.25080174 0.7493462
vt 0.25080174 0.6247101
vn 0.5872276 -0.5237435 -0.61713576
vn 0.5872276 -0.5237435 -0.61713576
vn 0.5872276 -0.5237435 -0.61713576
vn -0.015871048 0.39677536 -0.9177785
vn -0.015871048 0.39677536 -0.9177785
vn -0.015871048 0.39677536 -0.9177785
vn 0.5872276 0.5554856 -0.58872706
vn 0.5872276 0.5554856 -0.58872706
vn 0.5872276 0.5554856 -0.58872706
vn -0.1110971 0.17458117 -0.97835517
vn -0.1110971 0.17458117 -0.97835517
vn -0.1110971 0.17458117 -0.97835517
vn -0.5872276 -0.5237435 -0.61713576
vn -0.5872276 -0.5237435 -0.61713576
vn -0.5872276 -0.5237435 -0.61713576
vn -0.015871048 0.39677536 -0.9177785
vn -0.015871048 0.39677536 -0.9177785
vn -0.015871048 0.39677536 -0.9177785
vn -0.5872276 0.5554856 -0.58872706
vn -0.5872276 0.5554856 -0.58872706
vn -0.5872276 0.5554856 -0.58872706
vn 0.1110971 0.17458117 -0.97835517
vn 0.1110971 0.17458117 -0.97835517
vn 0.1110971 0.17458117 -0.97835517
vn -0.015871048 -0.23806524 0.97111946
vn -0.015871048 -0.23806524 0.97111946
vn -0.015871048 -0.23806524 0.97111946
vn -0.015871048 -0.23806524 0.97111946
vn -0.015871048 0.23806524 -0.97111946
vn -0.015871048 0.23806524 -0.97111946
vn -0.015871048 0.23806524 -0.97111946
vn -0.015871048 0.23806524 -0.97111946
vn -0.015871048 0.015871048 -0.99974805
vn -0.015871048 0.015871048 -0.99974805
vn -0.015871048 0.015871048 -0.99974805
vn -0.015871048 0.015871048 -0.99974805
vn -0.015871048 0.015871048 -0.99974805
vn -0.015871048 0.015871048 -0.99974805
vn -0.015871048 0.015871048 -0.99974805
vn -0.015871048 0.015871048 -0.99974805
vn -0.015871048 0.015871048 -0.99974805
vn -0.015871048 0.015871048 -0.99974805
vn -0.015871048 0.015871048 -0.99974805
vn -0.015871048 0.015871048 -0.99974805
vn -0.015871048 0.015871048 -0.99974805
vn -0.015871048 0.015871048 -0.99974805
vn -0.015871048 0.015871048 -0.99974805
vn -0.015871048 0.015871048 -0.99974805
vn -0.015871048 -0.015870988 -0.99974805
vn -0.015871048 -0.015870988 -0.99974805
vn -0.015871048 -0.015870988 -0.99974805
vn -0.015871048 0.015871048 -0.99974805
vn -0.70710677 0.70710677 -0
vn -0.70710677 0.70710677 -0
vn -0.70710677 0.70710677 -0
vn -0.70710677 0.70710677 -0
vn -0.015871048 0.7459378 -0.66582644
vn -0.015871048 0.7459378 -0.66582644
vn -0.015871048 0.7459378 -0.66582644
vn -0.015871048 0.7459378 -0.66582644
vn -0.015871048 0.999874 -0.00034526698
vn -0.015871048 0.999874 -0.00034526698
vn -0.015871048 0.999874 -0.00034526698
vn -0.015871048 0.999874 -0.00034526698
vn -0.015871048 0.999874 -0.00034526698
vn -0.015871048 0.999874 -0.00034526698
vn -0.015871048 0.999874 -0.00034526698
vn -0.015871048 0.999874 -0.00034526698
vn -0.015871048 -0.999874 -0.00034526698
vn -0.015871048 -0.999874 -0.00034526698
vn -0.015871048 -0.999874 -0.00034526698
vn -0.015871048 -0.999874 -0.00034526698
vn 0.7141957 0.68245375 -0.15550359
vn 0.7141957 0.68245375 -0.15550359
vn 0.7141957 0.68245375 -0.15550359
vn 0.7141957 0.68245375 -0.15550359
vn -0.999874 0.015871048 -0.00034391563
vn -0.999874 0.015871048 -0.00034391563
vn -0.999874 0.015871048 -0.00034391563
vn -0.999874 0.015871048 -0.00034391563
vn -0.999874 0.015871048 -0.00034391563
vn -0.999874 0.015871048 -0.00034391563
vn -0.999874 0.015871048 -0.00034391563
vn -0.999874 0.015871048 -0.00034391563
vn -0.999874 0.015871048 -0.00034391563
vn -0.999874 0.015871048 -0.00034391563
vn -0.999874 0.015871048 -0.00034391563
vn -0.999874 0.015871048 -0.00034391563
vn -0.999874 0.015871048 -0.00034391563
vn -0.999874 0.015871048 -0.00034391563
vn -0.999874 0.015871048 -0.00034391563
vn -0.999874 0.015871048 -0.00034391563
vn -0.999874 0.015871048 -0.00034391563
vn -0.999874 0.015871048 -0.00034391563
vn -0.999874 0.015871048 -0.00034391563
vn -0.999874 0.015871048 -0.00034391563
vn -0.999874 0.015871048 -0.00034391563
vn -0.999874 0.015871048 -0.00034391563
vn -0.999874 0.015871048 -0.00034391563
vn -0.999874 0.015871048 -0.00034391563
vn -0.999874 0.015871048 -0.00034391563
vn -0.999874 0.015871048 -0.00034391563
vn -0.999874 0.015871048 -0.00034391563
vn -0.999874 0.015871048 -0.00034391563
vn -0.999874 0.015871048 -0.00034391563
vn -0.999874 0.015871048 -0.00034391563
vn -0.999874 0.015871048 -0.00034391563
vn -0.999874 0.015871048 -0.00034391563
vn -0.999874 0.015871048 -0.00034391563
vn -0.999874 0.015871048 -0.00034391563
vn -0.999874 0.015871048 -0.00034391563
vn -0.999874 0.015871048 -0.00034391563
vn -0.999874 0.015871048 -0.00034391563
vn -0.999874 0.015871048 -0.00034391563
vn -0.999874 0.015871048 -0.00034391563
vn -0.999874 0.015871048 -0.00034391563
vn 0.65071166 0.7459378 0.1419545
vn 0.65071166 0.7459378 0.1419545
vn 0.65071166 0.7459378 0.1419545
vn 0.65071166 0.7459378 0.1419545
vn -0.015871048 -0.1110971 0.9936828
vn -0.015871048 -0.1110971 0.9936828
vn -0.015871048 -0.1110971 0.9936828
vn -0.015871048 -0.1110971 0.9936828
vn 0.65071166 0.047613025 0.7578307
vn 0.65071166 0.047613025 0.7578307
vn 0.65071166 0.047613025 0.7578307
vn 0.65071166 0.047613025 0.7578307
vn -0.015871048 0.7141957 -0.6997661
vn -0.015871048 0.7141957 -0.6997661
vn -0.015871048 0.7141957 -0.6997661
vn -0.015871048 0.7141957 -0.6997661
vn 0.70710677 -0.70710677 -0
vn 0.70710677 -0.70710677 -0
vn 0.70710677 -0.70710677 -0
vn 0.70710677 -0.70710677 -0
vn -0.015871048 -0.7459377 -0.66582656
vn -0.015871048 -0.7459377 -0.66582656
vn -0.015871048 -0.7459377 -0.66582656
vn -0.015871048 -0.7459377 -0.66582656
vn -0.015871048 -0.68245363 -0.7307566
vn -0.015871048 -0.68245363 -0.7307566
vn -0.015871048 -0.68245363 -0.7307566
vn -0.015871048 -0.68245363 -0.7307566
vn -0.015871048 -0.7141957 -0.6997661
vn -0.015871048 -0.7141957 -0.6997661
vn -0.015871048 -0.7141957 -0.6997661
vn -0.015871048 -0.7141957 -0.6997661
vn 0.999874 0.015871048 -0.00034391563
vn 0.999874 0.015871048 -0.00034391563
vn 0.999874 0.015871048 -0.00034391563
vn 0.999874 0.015871048 -0.00034391563
vn -0.7459378 0.65071166 -0.1419546
vn -0.7459378 0.65071166 -0.1419546
vn -0.7459378 0.65071166 -0.1419546
vn -0.7459378 0.65071166 -0.1419546
vn -0.015871048 0.68245375 -0.73075646
vn -0.015871048 0.68245375 -0.73075646
vn -0.015871048 0.68245375 -0.73075646
vn -0.015871048 0.68245375 -0.73075646
vn -0.015871048 -0.65071166 -0.759159
vn -0.015871048 -0.65071166 -0.759159
vn -0.015871048 -0.65071166 -0.759159
vn -0.015871048 -0.65071166 -0.759159
vn -0.015871048 0.999874 -0.00034526698
vn -0.015871048 0.999874 -0.00034526698
vn -0.015871048 0.999874 -0.00034526698
vn -0.015871048 0.999874 -0.00034526698
vn 0.999874 0.015871048 -0.00034391563
vn 0.999874 0.015871048 -0.00034391563
vn 0.999874 0.015871048 -0.00034391563
vn 0.999874 0.015871048 -0.00034391563
vn 0.999874 0.015871048 -0.00034391563
vn 0.999874 0.015871048 -0.00034391563
vn 0.999874 0.015871048 -0.00034391563
vn 0.999874 0.015871048 -0.00034391563
vn 0.999874 0.015871048 -0.00034391563
vn 0.999874 0.015871048 -0.00034391563
vn 0.999874 0.015871048 -0.00034391563
vn 0.999874 0.015871048 -0.00034391563
vn 0.999874 0.015871048 -0.00034391563
vn 0.999874 0.015871048 -0.00034391563
vn 0.999874 0.015871048 -0.00034391563
vn -0.015871048 -0.999874 -0.00034526698
vn -0.015871048 -0.999874 -0.00034526698
vn -0.015871048 -0.999874 -0.00034526698
vn -0.015871048 -0.999874 -0.00034526698
vn -0.015871048 0.999874 -0.00034526698
vn -0.015871048 0.999874 -0.00034526698
vn -0.015871048 0.999874 -0.00034526698
vn -0.015871048 0.999874 -0.00034526698
vn 0.7141957 0.015871048 -0.6997661
vn 0.7141957 0.015871048 -0.6997661
vn 0.7141957 0.015871048 -0.6997661
vn 0.7141957 0.015871048 -0.6997661
vn -0.015871048 0.999874 -0.00034526698
vn -0.015871048 0.999874 -0.00034526698
vn -0.015871048 0.999874 -0.00034526698
vn -0.015871048 0.999874 -0.00034526698
vn -0.015871048 -0.999874 -0.00034526698
vn -0.015871048 -0.999874 -0.00034526698
vn -0.015871048 -0.999874 -0.00034526698
vn -0.015871048 -0.999874 -0.00034526698
vn 0.999874 0.015871048 -0.00034391563
vn 0.999874 0.015871048 -0.00034391563
vn 0.999874 0.015871048 -0.00034391563
vn 0.999874 0.015871048 -0.00034391563
vn 0.999874 0.015871048 -0.00034391563
vn 0.999874 0.015871048 -0.00034391563
vn 0.999874 0.015871048 -0.00034391563
vn 0.999874 0.015871048 -0.00034391563
vn 0.999874 0.015871048 -0.00034391563
vn 0.999874 0.015871048 -0.00034391563
vn 0.999874 0.015871048 -0.00034391563
vn 0.999874 0.015871048 -0.00034391563
vn 0.999874 0.015871048 -0.00034391563
vn 0.999874 0.015871048 -0.00034391563
vn 0.999874 0.015871048 -0.00034391563
vn 0.999874 0.015871048 -0.00034391563
vn 0.999874 0.015871048 -0.00034391563
vn 0.999874 0.015871048 -0.00034391563
vn 0.999874 0.015871048 -0.00034391563
vn 0.999874 0.015871048 -0.00034391563
vn 0.999874 0.015871048 -0.00034391563
vn 0.999874 0.015871048 -0.00034391563
vn 0.999874 0.015871048 -0.00034391563
vn 0.999874 0.015871048 -0.00034391563
vn -0.015871048 -0.96813196 0.24993728
vn -0.015871048 -0.96813196 0.24993728
vn -0.015871048 -0.96813196 0.24993728
vn -0.015871048 -0.96813196 0.24993728
vn -0.015871048 -0.7459377 0.66582656
vn -0.015871048 -0.7459377 0.66582656
vn -0.015871048 -0.7459377 0.66582656
vn -0.015871048 -0.7459377 0.66582656
vn -0.015871048 0.968132 -0.24993704
vn -0.015871048 0.968132 -0.24993704
vn -0.015871048 0.968132 -0.24993704
vn -0.015871048 0.968132 -0.24993704
vn -0.015871048 0.999874 -0.00034526698
vn -0.015871048 0.999874 -0.00034526698
vn -0.015871048 0.999874 -0.00034526698
vn -0.015871048 0.999874 -0.00034526698
vn -0.015871048 0.7459378 -0.66582644
vn -0.015871048 0.7459378 -0.66582644
vn -0.015871048 0.7459378 -0.66582644
vn -0.015871048 0.7459378 -0.66582644
vn -0.015871048 0.999874 -0.00034526698
vn -0.015871048 0.999874 -0.00034526698
vn -0.015871048 0.999874 -0.00034526698
vn -0.015871048 0.999874 -0.00034526698
vn -0.015871048 0.015871048 -0.99974805
vn -0.015871048 0.015871048 -0.99974805
vn -0.015871048 0.015871048 -0.99974805
vn -0.015871048 0.015871048 -0.99974805
vn -0.015871048 0.015871048 -0.99974805
vn -0.015871048 0.015871048 -0.99974805
vn -0.015871048 0.015871048 -0.99974805
vn -0.015871048 0.015871048 -0.99974805
vn -0.015871048 0.015871048 -0.99974805
vn -0.015871048 0.015871048 -0.99974805
vn -0.015871048 0.015871048 -0.99974805
vn -0.015871048 0.015871048 -0.99974805
vn -0.015871048 0.015871048 -0.99974805
vn -0.015871048 0.015871048 -0.99974805
vn -0.015871048 0.015871048 -0.99974805
vn -0.015871048 0.015871048 -0.99974805
vn 0.7459377 -0.65071166 -0.14195523
vn 0.7459377 -0.65071166 -0.14195523
vn 0.7459377 -0.65071166 -0.14195523
vn 0.7459377 -0.65071166 -0.14195523
vn -0.015871048 0.015871048 -0.99974805
vn -0.015871048 0.015871048 -0.99974805
vn -0.015871048 0.015871048 -0.99974805
vn -0.015871048 0.015871048 -0.99974805
vn -0.015871048 0.015871048 -0.99974805
vn -0.015871048 0.015871048 -0.99974805
vn -0.015871048 0.015871048 -0.99974805
vn -0.015871048 0.015871048 -0.99974805
vn 0.68245363 0.015871048 -0.7307566
vn 0.68245363 0.015871048 -0.7307566
vn 0.68245363 0.015871048 -0.7307566
vn 0.68245363 0.015871048 -0.7307566
vn -0.999874 0.015871048 -0.00034391563
vn -0.999874 0.015871048 -0.00034391563
vn -0.999874 0.015871048 -0.00034391563
vn -0.999874 0.015871048 -0.00034391563
vn -0.015871048 0.999874 -0.00034526698
vn -0.015871048 0.999874 -0.00034526698
vn -0.015871048 0.999874 -0.00034526698
vn -0.015871048 0.999874 -0.00034526698
vn -0.015871048 0.68245375 -0.73075646
vn -0.015871048 0.68245375 -0.73075646
vn -0.015871048 0.68245375 -0.73075646
vn -0.015871048 0.68245375 -0.73075646
vn -0.015871048 -0.999874 -0.00034526698
vn -0.015871048 -0.999874 -0.00034526698
vn -0.015871048 -0.999874 -0.00034526698
vn -0.015871048 -0.999874 -0.00034526698
vn 0.73780537 0.67501354 -0
vn 0.73780537 0.67501354 -0
vn 0.73780537 0.67501354 -0
vn 0.73780537 0.67501354 -0
vn -0.015871048 -0.999874 -0.00034526698
vn -0.015871048 -0.999874 -0.00034526698
vn -0.015871048 -0.999874 -0.00034526698
vn -0.015871048 -0.999874 -0.00034526698
vn -0.015871048 0.015871048 -0.99974805
vn -0.015871048 0.015871048 -0.99974805
vn -0.015871048 0.015871048 -0.99974805
vn -0.015871048 0.015871048 -0.99974805
vn -0.015871048 0.015871048 0.99974805
vn -0.015871048 0.015871048 0.99974805
vn -0.015871048 0.015871048 0.99974805
vn -0.015871048 0.015871048 0.99974805
vn -0.015871048 0.015871048 -0.99974805
vn -0.015871048 0.015871048 -0.99974805
vn -0.015871048 0.015871048 -0.99974805
vn -0.015871048 0.015871048 -0.99974805
vn -0.015871048 0.999874 -0.00034526698
vn -0.015871048 0.999874 -0.00034526698
vn -0.015871048 0.999874 -0.00034526698
vn -0.015871048 0.999874 -0.00034526698
vn -0.015871048 0.999874 -0.00034526698
vn -0.015871048 0.999874 -0.00034526698
vn -0.015871048 0.999874 -0.00034526698
vn -0.015871048 0.999874 -0.00034526698
vn -0.015871048 -0.23806524 0.97111946
vn -0.015871048 -0.23806524 0.97111946
vn -0.015871048 -0.23806524 0.97111946
vn -0.015871048 -0.23806524 0.97111946
vn -0.015871048 0.23806524 -0.97111946
vn -0.015871048 0.23806524 -0.97111946
vn -0.015871048 0.23806524 -0.97111946
vn -0.015871048 0.23806524 -0.97111946
vn 0.70710677 0.70710677 -0
vn 0.70710677 0.70710677 -0
vn 0.70710677 0.70710677 -0
vn 0.70710677 0.70710677 -0
vn -0.015871048 -0.999874 -0.00034526698
vn -0.015871048 -0.999874 -0.00034526698
vn -0.015871048 -0.999874 -0.00034526698
vn -0.015871048 -0.999874 -0.00034526698
vn -0.015871048 0.7459378 -0.66582644
vn -0.015871048 0.7459378 -0.66582644
vn -0.015871048 0.7459378 -0.66582644
vn -0.015871048 0.7459378 -0.66582644
vn -0.015871048 0.999874 -0.00034526698
vn -0.015871048 0.999874 -0.00034526698
vn -0.015871048 0.999874 -0.00034526698
vn -0.015871048 0.999874 -0.00034526698
vn -0.015871048 0.999874 -0.00034526698
vn -0.015871048 0.999874 -0.00034526698
vn -0.015871048 0.999874 -0.00034526698
vn -0.015871048 0.999874 -0.00034526698
vn -0.015871048 -0.999874 -0.00034526698
vn -0.015871048 -0.999874 -0.00034526698
vn -0.015871048 -0.999874 -0.00034526698
vn -0.015871048 -0.999874 -0.00034526698
vn -0.7141957 0.68245375 -0.15550359
vn -0.7141957 0.68245375 -0.15550359
vn -0.7141957 0.68245375 -0.15550359
vn -0.7141957 0.68245375 -0.15550359
vn 0.999874 0.015871048 -0.00034391563
vn 0.999874 0.015871048 -0.00034391563
vn 0.999874 0.015871048 -0.00034391563
vn 0.999874 0.015871048 -0.00034391563
vn 0.999874 0.015871048 -0.00034391563
vn 0.999874 0.015871048 -0.00034391563
vn 0.999874 0.015871048 -0.00034391563
vn 0.999874 0.015871048 -0.00034391563
vn 0.999874 0.015871048 -0.00034391563
vn 0.999874 0.015871048 -0.00034391563
vn 0.999874 0.015871048 -0.00034391563
vn 0.999874 0.015871048 -0.00034391563
vn 0.999874 0.015871048 -0.00034391563
vn 0.999874 0.015871048 -0.00034391563
vn 0.999874 0.015871048 -0.00034391563
vn 0.999874 0.015871048 -0.00034391563
vn 0.999874 0.015871048 -0.00034391563
vn 0.999874 0.015871048 -0.00034391563
vn 0.999874 0.015871048 -0.00034391563
vn 0.999874 0.015871048 -0.00034391563
vn 0.999874 0.015871048 -0.00034391563
vn 0.999874 0.015871048 -0.00034391563
vn 0.999874 0.015871048 -0.00034391563
vn 0.999874 0.015871048 -0.00034391563
vn 0.999874 0.015871048 -0.00034391563
vn 0.999874 0.015871048 -0.00034391563
vn 0.999874 0.015871048 -0.00034391563
vn 0.999874 0.015871048 -0.00034391563
vn 0.999874 0.015871048 -0.00034391563
vn 0.999874 0.015871048 -0.00034391563
vn 0.999874 0.015871048 -0.00034391563
vn 0.999874 0.015871048 -0.00034391563
vn 0.999874 0.015871048 -0.00034391563
vn 0.999874 0.015871048 -0.00034391563
vn 0.999874 0.015871048 -0.00034391563
vn 0.999874 0.015871048 -0.00034391563
vn 0.999874 0.015871048 -0.00034391563
vn 0.999874 0.015871048 -0.00034391563
vn 0.999874 0.015871048 -0.00034391563
vn 0.999874 0.015871048 -0.00034391563
vn -0.65071166 0.7459378 0.1419545
vn -0.65071166 0.7459378 0.1419545
vn -0.65071166 0.7459378 0.1419545
vn -0.65071166 0.7459378 0.1419545
vn -0.015871048 -0.1110971 0.9936828
vn -0.015871048 -0.1110971 0.9936828
vn -0.015871048 -0.1110971 0.9936828
vn -0.015871048 -0.1110971 0.9936828
vn -0.65071166 0.047613025 0.7578307
vn -0.65071166 0.047613025 0.7578307
vn -0.65071166 0.047613025 0.7578307
vn -0.65071166 0.047613025 0.7578307
vn -0.015871048 0.7141957 -0.6997661
vn -0.015871048 0.7141957 -0.6997661
vn -0.015871048 0.7141957 -0.6997661
vn -0.015871048 0.7141957 -0.6997661
vn -0.70710677 -0.70710677 -0
vn -0.70710677 -0.70710677 -0
vn -0.70710677 -0.70710677 -0
vn -0.70710677 -0.70710677 -0
vn -0.015871048 -0.7459377 -0.66582656
vn -0.015871048 -0.7459377 -0.66582656
vn -0.015871048 -0.7459377 -0.66582656
vn -0.015871048 -0.7459377 -0.66582656
vn -0.015871048 -0.68245363 -0.7307566
vn -0.015871048 -0.68245363 -0.7307566
vn -0.015871048 -0.68245363 -0.7307566
vn -0.015871048 -0.68245363 -0.7307566
vn -0.015871048 -0.7141957 -0.6997661
vn -0.015871048 -0.7141957 -0.6997661
vn -0.015871048 -0.7141957 -0.6997661
vn -0.015871048 -0.7141957 -0.6997661
vn -0.999874 0.015871048 -0.00034391563
vn -0.999874 0.015871048 -0.00034391563
vn -0.999874 0.015871048 -0.00034391563
vn -0.999874 0.015871048 -0.00034391563
vn 0.7459377 0.65071166 -0.14195523
vn 0.7459377 0.65071166 -0.14195523
vn 0.7459377 0.65071166 -0.14195523
vn 0.7459377 0.65071166 -0.14195523
vn -0.015871048 0.68245375 -0.73075646
vn -0.015871048 0.68245375 -0.73075646
vn -0.015871048 0.68245375 -0.73075646
vn -0.015871048 0.68245375 -0.73075646
vn -0.015871048 -0.65071166 -0.759159
vn -0.015871048 -0.65071166 -0.759159
vn -0.015871048 -0.65071166 -0.759159
vn -0.015871048 -0.65071166 -0.759159
vn -0.015871048 0.999874 -0.00034526698
vn -0.015871048 0.999874 -0.00034526698
vn -0.015871048 0.999874 -0.00034526698
vn -0.015871048 0.999874 -0.00034526698
vn -0.999874 0.015871048 -0.00034391563
vn -0.999874 0.015871048 -0.00034391563
vn -0.999874 0.015871048 -0.00034391563
vn -0.999874 0.015871048 -0.00034391563
vn -0.999874 0.015871048 -0.00034391563
vn -0.999874 0.015871048 -0.00034391563
vn -0.999874 0.015871048 -0.00034391563
vn -0.999874 0.015871048 -0.00034391563
vn -0.999874 0.015871048 -0.00034391563
vn -0.999874 0.015871048 -0.00034391563
vn -0.999874 0.015871048 -0.00034391563
vn -0.999874 0.015871048 -0.00034391563
vn -0.999874 0.015871048 -0.00034391563
vn -0.999874 0.015871048 -0.00034391563
vn -0.999874 0.015871048 -0.00034391563
vn -0.015871048 -0.999874 -0.00034526698
vn -0.015871048 -0.999874 -0.00034526698
vn -0.015871048 -0.999874 -0.00034526698
vn -0.015871048 -0.999874 -0.00034526698
vn -0.015871048 0.999874 -0.00034526698
vn -0.015871048 0.999874 -0.00034526698
vn -0.015871048 0.999874 -0.00034526698
vn -0.015871048 0.999874 -0.00034526698
vn -0.7141957 0.015871048 -0.6997661
vn -0.7141957 0.015871048 -0.6997661
vn -0.7141957 0.015871048 -0.6997661
vn -0.7141957 0.015871048 -0.6997661
vn -0.015871048 -0.999874 -0.00034526698
vn -0.015871048 -0.999874 -0.00034526698
vn -0.015871048 -0.999874 -0.00034526698
vn -0.015871048 -0.999874 -0.00034526698
vn -0.999874 0.015871048 -0.00034391563
vn -0.999874 0.015871048 -0.00034391563
vn -0.999874 0.015871048 -0.00034391563
vn -0.999874 0.015871048 -0.00034391563
vn -0.999874 0.015871048 -0.00034391563
vn -0.999874 0.015871048 -0.00034391563
vn -0.999874 0.015871048 -0.00034391563
vn -0.999874 0.015871048 -0.00034391563
vn -0.999874 0.015871048 -0.00034391563
vn -0.999874 0.015871048 -0.00034391563
vn -0.999874 0.015871048 -0.00034391563
vn -0.999874 0.015871048 -0.00034391563
vn -0.999874 0.015871048 -0.00034391563
vn -0.999874 0.015871048 -0.00034391563
vn -0.999874 0.015871048 -0.00034391563
vn -0.999874 0.015871048 -0.00034391563
vn -0.999874 0.015871048 -0.00034391563
vn -0.999874 0.015871048 -0.00034391563
vn -0.999874 0.015871048 -0.00034391563
vn -0.999874 0.015871048 -0.00034391563
vn -0.999874 0.015871048 -0.00034391563
vn -0.999874 0.015871048 -0.00034391563
vn -0.999874 0.015871048 -0.00034391563
vn -0.999874 0.015871048 -0.00034391563
vn -0.015871048 -0.96813196 0.24993728
vn -0.015871048 -0.96813196 0.24993728
vn -0.015871048 -0.96813196 0.24993728
vn -0.015871048 -0.96813196 0.24993728
vn -0.015871048 -0.7459377 0.66582656
vn -0.015871048 -0.7459377 0.66582656
vn -0.015871048 -0.7459377 0.66582656
vn -0.015871048 -0.7459377 0.66582656
vn -0.015871048 0.968132 -0.24993704
vn -0.015871048 0.968132 -0.24993704
vn -0.015871048 0.968132 -0.24993704
vn -0.015871048 0.968132 -0.24993704
vn -0.015871048 0.999874 -0.00034526698
vn -0.015871048 0.999874 -0.00034526698
vn -0.015871048 0.999874 -0.00034526698
vn -0.015871048 0.999874 -0.00034526698
vn -0.015871048 0.7459378 -0.66582644
vn -0.015871048 0.7459378 -0.66582644
vn -0.015871048 0.7459378 -0.66582644
vn -0.015871048 0.7459378 -0.66582644
vn -0.015871048 0.999874 -0.00034526698
vn -0.015871048 0.999874 -0.00034526698
vn -0.015871048 0.999874 -0.00034526698
vn -0.015871048 0.999874 -0.00034526698
vn -0.015871048 0.015871048 -0.99974805
vn -0.015871048 0.015871048 -0.99974805
vn -0.015871048 0.015871048 -0.99974805
vn -0.015871048 0.015871048 -0.99974805
vn -0.015871048 0.015871048 -0.99974805
vn -0.015871048 0.015871048 -0.99974805
vn -0.015871048 0.015871048 -0.99974805
vn -0.015871048 0.015871048 -0.99974805
vn -0.015871048 0.015871048 -0.99974805
vn -0.015871048 0.015871048 -0.99974805
vn -0.015871048 0.015871048 -0.99974805
vn -0.015871048 0.015871048 -0.99974805
vn -0.015871048 0.015871048 -0.99974805
vn -0.015871048 0.015871048 -0.99974805
vn -0.015871048 0.015871048 -0.99974805
vn -0.015871048 0.015871048 -0.99974805
vn -0.7459378 -0.65071166 -0.1419546
vn -0.7459378 -0.65071166 -0.1419546
vn -0.7459378 -0.65071166 -0.1419546
vn -0.7459378 -0.65071166 -0.1419546
vn -0.015871048 0.015871048 -0.99974805
vn -0.015871048 0.015871048 -0.99974805
vn -0.015871048 0.015871048 -0.99974805
vn -0.015871048 0.015871048 -0.99974805
vn -0.015871048 0.015871048 -0.99974805
vn -0.015871048 0.015871048 -0.99974805
vn -0.015871048 0.015871048 -0.99974805
vn -0.015871048 0.015871048 -0.99974805
vn -0.68245375 0.015871048 -0.73075646
vn -0.68245375 0.015871048 -0.73075646
vn -0.68245375 0.015871048 -0.73075646
vn -0.68245375 0.015871048 -0.73075646
vn 0.999874 0.015871048 -0.00034391563
vn 0.999874 0.015871048 -0.00034391563
vn 0.999874 0.015871048 -0.00034391563
vn 0.999874 0.015871048 -0.00034391563
vn -0.015871048 0.999874 -0.00034526698
vn -0.015871048 0.999874 -0.00034526698
vn -0.015871048 0.999874 -0.00034526698
vn -0.015871048 0.999874 -0.00034526698
vn -0.015871048 0.68245375 -0.73075646
vn -0.015871048 0.68245375 -0.73075646
vn -0.015871048 0.68245375 -0.73075646
vn -0.015871048 0.68245375 -0.73075646
vn -0.015871048 -0.999874 -0.00034526698
vn -0.015871048 -0.999874 -0.00034526698
vn -0.015871048 -0.999874 -0.00034526698
vn -0.015871048 -0.999874 -0.00034526698
vn -0.7378054 0.6750134 -0
vn -0.7378054 0.6750134 -0
vn -0.7378054 0.6750134 -0
vn -0.7378054 0.6750134 -0
vn -0.015871048 0.999874 -0.00034526698
vn -0.015871048 0.999874 -0.00034526698
vn -0.015871048 0.999874 -0.00034526698
vn -0.015871048 0.999874 -0.00034526698
vn -0.015871048 0.015871048 0.99974805
vn -0.015871048 0.015871048 0.99974805
vn -0.015871048 0.015871048 0.99974805
vn -0.015871048 0.015871048 0.99974805
vn -0.015871048 0.015871048 0.99974805
vn -0.015871048 0.015871048 0.99974805
vn -0.015871048 0.015871048 0.99974805
vn -0.015871048 0.015871048 0.99974805
vn -0.015871048 0.015871048 -0.99974805
vn -0.015871048 0.015871048 -0.99974805
vn -0.015871048 0.015871048 -0.99974805
vn -0.015871048 0.015871048 -0.99974805
vn -0.015871048 0.999874 -0.00034526698
vn -0.015871048 0.999874 -0.00034526698
vn -0.015871048 0.999874 -0.00034526698
vn -0.015871048 0.999874 -0.00034526698
vn -0.015871048 0.015871048 -0.99974805
vn -0.015871048 0.015871048 -0.99974805
vn -0.015871048 0.015871048 -0.99974805
vn -0.015871048 0.015871048 -0.99974805
vn -0.015871048 -0.999874 -0.00034526698
vn -0.015871048 -0.999874 -0.00034526698
vn -0.015871048 -0.999874 -0.00034526698
vn -0.015871048 -0.999874 -0.00034526698
vn -0.015871048 0.999874 -0.00034526698
vn -0.015871048 0.999874 -0.00034526698
vn -0.015871048 0.999874 -0.00034526698
vn -0.015871048 0.999874 -0.00034526698
vn -0.999874 0.015871048 -0.00034391563
vn -0.999874 0.015871048 -0.00034391563
vn -0.999874 0.015871048 -0.00034391563
vn -0.999874 0.015871048 -0.00034391563
vn -0.999874 0.015871048 -0.00034391563
vn -0.999874 0.015871048 -0.00034391563
vn -0.999874 0.015871048 -0.00034391563
vn -0.999874 0.015871048 -0.00034391563
vn -0.015871048 0.015871048 0.99974805
vn -0.015871048 0.015871048 0.99974805
vn -0.015871048 0.015871048 0.99974805
vn -0.015871048 0.015871048 0.99974805
vn -0.015871048 0.015871048 -0.99974805
vn -0.015871048 0.015871048 -0.99974805
vn -0.015871048 0.015871048 -0.99974805
vn -0.015871048 0.015871048 -0.99974805
vn -0.015871048 0.999874 -0.00034526698
vn -0.015871048 0.999874 -0.00034526698
vn -0.015871048 0.999874 -0.00034526698
vn -0.015871048 0.999874 -0.00034526698
vn -0.015871048 -0.999874 -0.00034526698
vn -0.015871048 -0.999874 -0.00034526698
vn -0.015871048 -0.999874 -0.00034526698
vn -0.015871048 -0.999874 -0.00034526698
vn -0.999874 0.015871048 -0.00034391563
vn -0.999874 0.015871048 -0.00034391563
vn -0.999874 0.015871048 -0.00034391563
vn -0.999874 0.015871048 -0.00034391563
vn 0.999874 0.015871048 -0.00034391563
vn 0.999874 0.015871048 -0.00034391563
vn 0.999874 0.015871048 -0.00034391563
vn 0.999874 0.015871048 -0.00034391563
vn 0.999874 0.015871048 -0.00034391563
vn 0.999874 0.015871048 -0.00034391563
vn 0.999874 0.015871048 -0.00034391563
vn 0.999874 0.015871048 -0.00034391563
vn 0.999874 0.015871048 -0.00034391563
vn 0.999874 0.015871048 -0.00034391563
vn 0.999874 0.015871048 -0.00034391563
vn 0.999874 0.015871048 -0.00034391563
vn -0.015871048 -0.999874 -0.00034526698
vn -0.015871048 -0.999874 -0.00034526698
vn -0.015871048 -0.999874 -0.00034526698
vn -0.015871048 -0.999874 -0.00034526698
vn -0.015871048 -0.999874 -0.00034526698
vn -0.015871048 -0.999874 -0.00034526698
vn -0.015871048 -0.999874 -0.00034526698
vn -0.015871048 -0.999874 -0.00034526698
vn -0.015871048 0.015871048 0.99974805
vn -0.015871048 0.015871048 0.99974805
vn -0.015871048 0.015871048 0.99974805
vn -0.015871048 0.015871048 0.99974805
vn -0.015871048 0.015871048 0.99974805
vn -0.015871048 0.015871048 0.99974805
vn -0.015871048 0.999874 -0.00034526698
vn -0.015871048 0.999874 -0.00034526698
vn -0.015871048 0.999874 -0.00034526698
vn -0.015871048 0.999874 -0.00034526698
vn -0.999874 0.015871048 -0.00034391563
vn -0.999874 0.015871048 -0.00034391563
vn -0.999874 0.015871048 -0.00034391563
vn -0.999874 0.015871048 -0.00034391563
vn -0.015871048 0.015871048 -0.99974805
vn -0.015871048 0.015871048 -0.99974805
vn -0.015871048 0.015871048 -0.99974805
vn -0.015871048 0.015871048 -0.99974805
vn -0.015871048 0.015871048 -0.99974805
vn -0.015871048 0.015871048 -0.99974805
vn 0.70710677 0.70710677 -0
vn 0.70710677 0.70710677 -0
vn 0.70710677 0.70710677 -0
vn 0.70710677 0.70710677 -0
vn -0.70710677 0.70710677 -0
vn -0.70710677 0.70710677 -0
vn -0.70710677 0.70710677 -0
vn -0.70710677 0.70710677 -0
vn -0.015871048 0.015871048 0.99974805
vn -0.015871048 0.015871048 0.99974805
vn -0.015871048 0.015871048 0.99974805
vn -0.015871048 0.015871048 0.99974805
vn -0.015871048 0.015871048 0.99974805
vn -0.015871048 0.015871048 0.99974805
vn -0.015871048 0.015871048 0.99974805
vn -0.015871048 0.015871048 0.99974805
vn -0.015871048 0.015871048 0.99974805
vn -0.015871048 0.015871048 0.99974805
vn -0.015871048 0.015871048 0.99974805
vn -0.015871048 0.015871048 0.99974805
vn -0.015871048 0.015871048 0.99974805
vn -0.015871048 0.015871048 0.99974805
vn -0.015871048 0.015871048 0.99974805
vn -0.015871048 0.015871048 0.99974805
vn -0.015871048 0.015871048 0.99974805
vn -0.015871048 0.015871048 0.99974805
vn -0.015871048 0.015871048 0.99974805
vn -0.015871048 0.015871048 0.99974805
vn -0.015871048 0.015871048 0.99974805
vn -0.015871048 0.015871048 0.99974805
vn -0.015871048 0.015871048 0.99974805
vn -0.015871048 0.015871048 0.99974805
vn -0.015871048 0.015871048 0.99974805
vn -0.015871048 0.015871048 0.99974805
vn -0.015871048 0.015871048 0.99974805
vn -0.015871048 0.015871048 0.99974805
vn -0.015871048 0.015871048 0.99974805
vn -0.015871048 0.015871048 0.99974805
vn -0.015871048 0.015871048 0.99974805
vn -0.015871048 0.015871048 0.99974805
vn -0.015871048 0.015871048 0.99974805
vn -0.015871048 0.015871048 0.99974805
vn -0.015871048 0.015871048 0.99974805
vn -0.015871048 0.015871048 0.99974805
vn -0.015871048 0.015871048 0.99974805
vn -0.015871048 0.015871048 0.99974805
vn -0.015871048 -0.999874 -0.00034526698
vn -0.015871048 -0.999874 -0.00034526698
vn -0.015871048 -0.999874 -0.00034526698
vn -0.015871048 -0.999874 -0.00034526698
vn -0.015871048 -0.999874 -0.00034526698
vn -0.015871048 -0.999874 -0.00034526698
vn -0.015871048 -0.999874 -0.00034526698
vn -0.015871048 -0.999874 -0.00034526698
vn -0.015871048 -0.999874 -0.00034526698
vn -0.015871048 -0.999874 -0.00034526698
vn -0.015871048 -0.999874 -0.00034526698
vn -0.015871048 -0.999874 -0.00034526698
vn -0.015871048 -0.999874 -0.00034526698
vn -0.015871048 -0.999874 -0.00034526698
vn -0.015871048 0.015871048 0.99974805
vn -0.015871048 0.015871048 0.99974805
vn -0.015871048 0.015871048 0.99974805
vn -0.015871048 0.015871048 0.99974805
g shelf06.001_0
f 3/3/3 2/2/2 1/1/1
f 6/6/6 5/5/5 4/4/4
f 9/9/9 8/8/8 7/7/7
f 12/12/12 11/11/11 10/10/10
f 15/15/15 14/14/14 13/13/13
f 18/18/18 17/17/17 16/16/16
f 21/21/21 20/20/20 19/19/19
f 24/24/24 23/23/23 22/22/22
f 27/27/27 26/26/26 25/25/25
f 28/28/28 26/26/26 27/27/27
f 31/31/31 30/30/30 29/29/29
f 29/29/29 30/30/30 32/32/32
f 35/35/35 34/34/34 33/33/33
f 33/33/33 34/34/34 36/36/36
f 36/36/36 34/34/34 37/37/37
f 34/34/34 38/38/38 37/37/37
f 37/37/37 38/38/38 39/39/39
f 38/38/38 40/40/40 39/39/39
f 39/39/39 40/40/40 41/41/41
f 40/40/40 42/42/42 41/41/41
f 43/43/43 41/41/41 42/42/42
f 44/44/44 43/43/43 42/42/42
f 44/44/44 45/45/45 43/43/43
f 45/45/45 46/46/46 43/43/43
f 45/45/45 47/47/47 46/46/46
f 47/47/47 48/48/48 46/46/46
f 47/47/47 49/49/49 48/48/48
f 33/33/33 36/36/36 50/50/50
f 49/49/49 50/50/50 48/48/48
f 33/33/33 50/50/50 49/49/49
f 49/49/49 51/51/51 33/33/33
f 49/49/49 52/52/52 51/51/51
f 55/55/55 54/54/54 53/53/53
f 56/56/56 55/55/55 53/53/53
f 59/59/59 58/58/58 57/57/57
f 60/60/60 59/59/59 57/57/57
f 63/63/63 62/62/62 61/61/61
f 62/62/62 64/64/64 61/61/61
f 62/62/62 65/65/65 64/64/64
f 66/66/66 64/64/64 65/65/65
f 67/67/67 66/66/66 65/65/65
f 68/68/68 67/67/67 65/65/65
f 71/71/71 70/70/70 69/69/69
f 72/72/72 71/71/71 69/69/69
f 75/75/75 74/74/74 73/73/73
f 76/76/76 75/75/75 73/73/73
f 79/79/79 78/78/78 77/77/77
f 80/80/80 79/79/79 77/77/77
f 80/80/80 81/81/81 79/79/79
f 81/81/81 82/82/82 79/79/79
f 83/83/83 82/82/82 81/81/81
f 82/82/82 84/84/84 79/79/79
f 79/79/79 84/84/84 85/85/85
f 85/85/85 84/84/84 86/86/86
f 87/87/87 85/85/85 86/86/86
f 88/88/88 87/87/87 86/86/86
f 89/89/89 88/88/88 86/86/86
f 88/88/88 89/89/89 90/90/90
f 89/89/89 91/91/91 90/90/90
f 91/91/91 92/92/92 90/90/90
f 92/92/92 93/93/93 90/90/90
f 93/93/93 92/92/92 94/94/94
f 92/92/92 95/95/95 94/94/94
f 95/95/95 96/96/96 94/94/94
f 97/97/97 96/96/96 95/95/95
f 96/96/96 97/97/97 98/98/98
f 98/98/98 97/97/97 99/99/99
f 100/100/100 98/98/98 99/99/99
f 101/101/101 100/100/100 99/99/99
f 102/102/102 100/100/100 101/101/101
f 103/103/103 102/102/102 101/101/101
f 101/101/101 104/104/104 103/103/103
f 104/104/104 105/105/105 103/103/103
f 105/105/105 106/106/106 103/103/103
f 105/105/105 107/107/107 106/106/106
f 108/108/108 106/106/106 107/107/107
f 109/109/109 108/108/108 107/107/107
f 110/110/110 108/108/108 109/109/109
f 111/111/111 110/110/110 109/109/109
f 105/105/105 112/112/112 107/107/107
f 112/112/112 105/105/105 83/83/83
f 83/83/83 105/105/105 82/82/82
f 113/113/113 112/112/112 83/83/83
f 114/114/114 112/112/112 113/113/113
f 115/115/115 114/114/114 113/113/113
f 116/116/116 115/115/115 113/113/113
f 119/119/119 118/118/118 117/117/117
f 120/120/120 119/119/119 117/117/117
f 123/123/123 122/122/122 121/121/121
f 124/124/124 123/123/123 121/121/121
f 127/127/127 126/126/126 125/125/125
f 128/128/128 127/127/127 125/125/125
f 131/131/131 130/130/130 129/129/129
f 132/132/132 131/131/131 129/129/129
f 135/135/135 134/134/134 133/133/133
f 136/136/136 135/135/135 133/133/133
f 139/139/139 138/138/138 137/137/137
f 140/140/140 139/139/139 137/137/137
f 143/143/143 142/142/142 141/141/141
f 144/144/144 143/143/143 141/141/141
f 147/147/147 146/146/146 145/145/145
f 148/148/148 147/147/147 145/145/145
f 151/151/151 150/150/150 149/149/149
f 152/152/152 151/151/151 149/149/149
f 155/155/155 154/154/154 153/153/153
f 156/156/156 155/155/155 153/153/153
f 159/159/159 158/158/158 157/157/157
f 160/160/160 159/159/159 157/157/157
f 163/163/163 162/162/162 161/161/161
f 164/164/164 163/163/163 161/161/161
f 167/167/167 166/166/166 165/165/165
f 168/168/168 167/167/167 165/165/165
f 171/171/171 170/170/170 169/169/169
f 170/170/170 172/172/172 169/169/169
f 173/173/173 169/169/169 172/172/172
f 173/173/173 175/175/175 174/174/174
f 175/175/175 176/176/176 174/174/174
f 174/174/174 176/176/176 177/177/177
f 176/176/176 178/178/178 177/177/177
f 178/178/178 179/179/179 177/177/177
f 179/179/179 178/178/178 180/180/180
f 181/181/181 179/179/179 180/180/180
f 181/181/181 180/180/180 182/182/182
f 183/183/183 181/181/181 182/182/182
f 186/186/186 185/185/185 184/184/184
f 187/187/187 186/186/186 184/184/184
f 190/190/190 189/189/189 188/188/188
f 191/191/191 190/190/190 188/188/188
f 194/194/194 193/193/193 192/192/192
f 195/195/195 194/194/194 192/192/192
f 198/198/198 197/197/197 196/196/196
f 199/199/199 198/198/198 196/196/196
f 202/202/202 201/201/201 200/200/200
f 203/203/203 202/202/202 200/200/200
f 206/206/206 205/205/205 204/204/204
f 207/207/207 206/206/206 204/204/204
f 207/207/207 208/208/208 206/206/206
f 206/206/206 208/208/208 209/209/209
f 209/209/209 208/208/208 210/210/210
f 211/211/211 209/209/209 210/210/210
f 212/212/212 210/210/210 208/208/208
f 213/213/213 210/210/210 212/212/212
f 214/214/214 210/210/210 213/213/213
f 213/213/213 212/212/212 215/215/215
f 215/215/215 212/212/212 216/216/216
f 217/217/217 215/215/215 216/216/216
f 218/218/218 217/217/217 216/216/216
f 219/219/219 214/214/214 213/213/213
f 214/214/214 219/219/219 220/220/220
f 221/221/221 214/214/214 220/220/220
f 222/222/222 220/220/220 219/219/219
f 220/220/220 222/222/222 223/223/223
f 222/222/222 224/224/224 223/223/223
f 225/225/225 221/221/221 220/220/220
f 221/221/221 225/225/225 226/226/226
f 225/225/225 227/227/227 226/226/226
f 230/230/230 229/229/229 228/228/228
f 231/231/231 230/230/230 228/228/228
f 234/234/234 233/233/233 232/232/232
f 235/235/235 234/234/234 232/232/232
f 238/238/238 237/237/237 236/236/236
f 239/239/239 238/238/238 236/236/236
f 242/242/242 241/241/241 240/240/240
f 243/243/243 242/242/242 240/240/240
f 246/246/246 245/245/245 244/244/244
f 247/247/247 246/246/246 244/244/244
f 250/250/250 249/249/249 248/248/248
f 251/251/251 250/250/250 248/248/248
f 254/254/254 253/253/253 252/252/252
f 255/255/255 254/254/254 252/252/252
f 258/258/258 257/257/257 256/256/256
f 259/259/259 258/258/258 256/256/256
f 262/262/262 261/261/261 260/260/260
f 263/263/263 262/262/262 260/260/260
f 266/266/266 265/265/265 264/264/264
f 267/267/267 266/266/266 264/264/264
f 270/270/270 269/269/269 268/268/268
f 271/271/271 270/270/270 268/268/268
f 274/274/274 273/273/273 272/272/272
f 275/275/275 274/274/274 272/272/272
f 278/278/278 277/277/277 276/276/276
f 279/279/279 278/278/278 276/276/276
f 282/282/282 281/281/281 280/280/280
f 283/283/283 282/282/282 280/280/280
f 286/286/286 285/285/285 284/284/284
f 287/287/287 286/286/286 284/284/284
f 290/290/290 289/289/289 288/288/288
f 291/291/291 290/290/290 288/288/288
f 294/294/294 293/293/293 292/292/292
f 295/295/295 294/294/294 292/292/292
f 298/298/298 297/297/297 296/296/296
f 299/299/299 298/298/298 296/296/296
f 302/302/302 301/301/301 300/300/300
f 303/303/303 302/302/302 300/300/300
f 306/306/306 305/305/305 304/304/304
f 307/307/307 306/306/306 304/304/304
f 310/310/310 309/309/309 308/308/308
f 311/311/311 310/310/310 308/308/308
f 314/314/314 313/313/313 312/312/312
f 315/315/315 314/314/314 312/312/312
f 318/318/318 317/317/317 316/316/316
f 319/319/319 318/318/318 316/316/316
f 322/322/322 321/321/321 320/320/320
f 323/323/323 322/322/322 320/320/320
f 326/326/326 325/325/325 324/324/324
f 327/327/327 326/326/326 324/324/324
f 330/330/330 329/329/329 328/328/328
f 330/330/330 331/331/331 329/329/329
f 334/334/334 333/333/333 332/332/332
f 334/334/334 332/332/332 335/335/335
f 338/338/338 337/337/337 336/336/336
f 339/339/339 338/338/338 336/336/336
f 342/342/342 341/341/341 340/340/340
f 343/343/343 342/342/342 340/340/340
f 346/346/346 345/345/345 344/344/344
f 347/347/347 346/346/346 344/344/344
f 350/350/350 349/349/349 348/348/348
f 351/351/351 350/350/350 348/348/348
f 352/352/352 350/350/350 351/351/351
f 351/351/351 353/353/353 352/352/352
f 353/353/353 354/354/354 352/352/352
f 354/354/354 355/355/355 352/352/352
f 358/358/358 357/357/357 356/356/356
f 359/359/359 358/358/358 356/356/356
f 362/362/362 361/361/361 360/360/360
f 363/363/363 362/362/362 360/360/360
f 366/366/366 365/365/365 364/364/364
f 365/365/365 367/367/367 364/364/364
f 368/368/368 367/367/367 365/365/365
f 369/369/369 368/368/368 365/365/365
f 369/369/369 370/370/370 368/368/368
f 371/371/371 369/369/369 365/365/365
f 371/371/371 365/365/365 372/372/372
f 371/371/371 372/372/372 373/373/373
f 372/372/372 374/374/374 373/373/373
f 374/374/374 375/375/375 373/373/373
f 375/375/375 376/376/376 373/373/373
f 376/376/376 375/375/375 377/377/377
f 378/378/378 376/376/376 377/377/377
f 379/379/379 378/378/378 377/377/377
f 380/380/380 379/379/379 377/377/377
f 379/379/379 380/380/380 381/381/381
f 382/382/382 379/379/379 381/381/381
f 383/383/383 382/382/382 381/381/381
f 383/383/383 384/384/384 382/382/382
f 384/384/384 383/383/383 385/385/385
f 384/384/384 385/385/385 386/386/386
f 385/385/385 387/387/387 386/386/386
f 387/387/387 388/388/388 386/386/386
f 387/387/387 389/389/389 388/388/388
f 389/389/389 390/390/390 388/388/388
f 391/391/391 388/388/388 390/390/390
f 392/392/392 391/391/391 390/390/390
f 393/393/393 392/392/392 390/390/390
f 394/394/394 392/392/392 393/393/393
f 393/393/393 395/395/395 394/394/394
f 395/395/395 396/396/396 394/394/394
f 395/395/395 397/397/397 396/396/396
f 397/397/397 398/398/398 396/396/396
f 399/399/399 392/392/392 394/394/394
f 392/392/392 399/399/399 370/370/370
f 392/392/392 370/370/370 369/369/369
f 399/399/399 400/400/400 370/370/370
f 399/399/399 401/401/401 400/400/400
f 401/401/401 402/402/402 400/400/400
f 402/402/402 403/403/403 400/400/400
f 406/406/406 405/405/405 404/404/404
f 407/407/407 406/406/406 404/404/404
f 410/410/410 409/409/409 408/408/408
f 411/411/411 410/410/410 408/408/408
f 414/414/414 413/413/413 412/412/412
f 415/415/415 414/414/414 412/412/412
f 418/418/418 417/417/417 416/416/416
f 419/419/419 418/418/418 416/416/416
f 422/422/422 421/421/421 420/420/420
f 423/423/423 422/422/422 420/420/420
f 426/426/426 425/425/425 424/424/424
f 427/427/427 426/426/426 424/424/424
f 430/430/430 429/429/429 428/428/428
f 431/431/431 430/430/430 428/428/428
f 434/434/434 433/433/433 432/432/432
f 435/435/435 434/434/434 432/432/432
f 438/438/438 437/437/437 436/436/436
f 439/439/439 438/438/438 436/436/436
f 442/442/442 441/441/441 440/440/440
f 443/443/443 442/442/442 440/440/440
f 446/446/446 445/445/445 444/444/444
f 447/447/447 446/446/446 444/444/444
f 450/450/450 449/449/449 448/448/448
f 451/451/451 450/450/450 448/448/448
f 454/454/454 453/453/453 452/452/452
f 455/455/455 454/454/454 452/452/452
f 458/458/458 457/457/457 456/456/456
f 459/459/459 458/458/458 456/456/456
f 456/456/456 460/460/460 459/459/459
f 462/462/462 460/460/460 461/461/461
f 463/463/463 462/462/462 461/461/461
f 463/463/463 461/461/461 464/464/464
f 465/465/465 463/463/463 464/464/464
f 466/466/466 465/465/465 464/464/464
f 465/465/465 466/466/466 467/467/467
f 466/466/466 468/468/468 467/467/467
f 467/467/467 468/468/468 469/469/469
f 468/468/468 470/470/470 469/469/469
f 473/473/473 472/472/472 471/471/471
f 474/474/474 473/473/473 471/471/471
f 477/477/477 476/476/476 475/475/475
f 478/478/478 477/477/477 475/475/475
f 481/481/481 480/480/480 479/479/479
f 482/482/482 481/481/481 479/479/479
f 485/485/485 484/484/484 483/483/483
f 486/486/486 485/485/485 483/483/483
f 489/489/489 488/488/488 487/487/487
f 488/488/488 490/490/490 487/487/487
f 491/491/491 490/490/490 488/488/488
f 491/491/491 488/488/488 492/492/492
f 491/491/491 492/492/492 493/493/493
f 492/492/492 494/494/494 493/493/493
f 493/493/493 495/495/495 491/491/491
f 493/493/493 496/496/496 495/495/495
f 493/493/493 497/497/497 496/496/496
f 495/495/495 496/496/496 498/498/498
f 495/495/495 498/498/498 499/499/499
f 498/498/498 500/500/500 499/499/499
f 500/500/500 501/501/501 499/499/499
f 497/497/497 502/502/502 496/496/496
f 502/502/502 497/497/497 503/503/503
f 497/497/497 504/504/504 503/503/503
f 503/503/503 505/505/505 502/502/502
f 505/505/505 503/503/503 506/506/506
f 507/507/507 505/505/505 506/506/506
f 504/504/504 508/508/508 503/503/503
f 508/508/508 504/504/504 509/509/509
f 510/510/510 508/508/508 509/509/509
f 513/513/513 512/512/512 511/511/511
f 514/514/514 513/513/513 511/511/511
f 517/517/517 516/516/516 515/515/515
f 518/518/518 517/517/517 515/515/515
f 521/521/521 520/520/520 519/519/519
f 522/522/522 521/521/521 519/519/519
f 525/525/525 524/524/524 523/523/523
f 526/526/526 525/525/525 523/523/523
f 529/529/529 528/528/528 527/527/527
f 530/530/530 529/529/529 527/527/527
f 533/533/533 532/532/532 531/531/531
f 534/534/534 533/533/533 531/531/531
f 537/537/537 536/536/536 535/535/535
f 538/538/538 537/537/537 535/535/535
f 541/541/541 540/540/540 539/539/539
f 542/542/542 541/541/541 539/539/539
f 545/545/545 544/544/544 543/543/543
f 546/546/546 545/545/545 543/543/543
f 549/549/549 548/548/548 547/547/547
f 550/550/550 549/549/549 547/547/547
f 553/553/553 552/552/552 551/551/551
f 554/554/554 553/553/553 551/551/551
f 557/557/557 556/556/556 555/555/555
f 558/558/558 557/557/557 555/555/555
f 561/561/561 560/560/560 559/559/559
f 562/562/562 561/561/561 559/559/559
f 565/565/565 564/564/564 563/563/563
f 566/566/566 565/565/565 563/563/563
f 569/569/569 568/568/568 567/567/567
f 570/570/570 569/569/569 567/567/567
f 573/573/573 572/572/572 571/571/571
f 574/574/574 573/573/573 571/571/571
f 577/577/577 576/576/576 575/575/575
f 578/578/578 577/577/577 575/575/575
f 581/581/581 580/580/580 579/579/579
f 582/582/582 581/581/581 579/579/579
f 585/585/585 584/584/584 583/583/583
f 586/586/586 585/585/585 583/583/583
f 589/589/589 588/588/588 587/587/587
f 590/590/590 589/589/589 587/587/587
f 593/593/593 592/592/592 591/591/591
f 594/594/594 593/593/593 591/591/591
f 597/597/597 596/596/596 595/595/595
f 598/598/598 597/597/597 595/595/595
f 601/601/601 600/600/600 599/599/599
f 602/602/602 601/601/601 599/599/599
f 605/605/605 604/604/604 603/603/603
f 606/606/606 605/605/605 603/603/603
f 609/609/609 608/608/608 607/607/607
f 610/610/610 609/609/609 607/607/607
f 613/613/613 612/612/612 611/611/611
f 614/614/614 613/613/613 611/611/611
f 617/617/617 616/616/616 615/615/615
f 618/618/618 617/617/617 615/615/615
f 621/621/621 620/620/620 619/619/619
f 622/622/622 621/621/621 619/619/619
f 625/625/625 624/624/624 623/623/623
f 626/626/626 625/625/625 623/623/623
f 629/629/629 628/628/628 627/627/627
f 630/630/630 629/629/629 627/627/627
f 633/633/633 632/632/632 631/631/631
f 634/634/634 633/633/633 631/631/631
f 637/637/637 636/636/636 635/635/635
f 638/638/638 637/637/637 635/635/635
f 641/641/641 640/640/640 639/639/639
f 642/642/642 641/641/641 639/639/639
f 645/645/645 644/644/644 643/643/643
f 646/646/646 645/645/645 643/643/643
f 649/649/649 648/648/648 647/647/647
f 650/650/650 649/649/649 647/647/647
f 653/653/653 652/652/652 651/651/651
f 654/654/654 653/653/653 651/651/651
f 657/657/657 656/656/656 655/655/655
f 658/658/658 657/657/657 655/655/655
f 661/661/661 660/660/660 659/659/659
f 662/662/662 661/661/661 659/659/659
f 665/665/665 664/664/664 663/663/663
f 666/666/666 665/665/665 663/663/663
f 669/669/669 668/668/668 667/667/667
f 667/667/667 670/670/670 669/669/669
f 667/667/667 671/671/671 670/670/670
f 671/671/671 672/672/672 670/670/670
f 675/675/675 674/674/674 673/673/673
f 676/676/676 675/675/675 673/673/673
f 679/679/679 678/678/678 677/677/677
f 680/680/680 679/679/679 677/677/677
f 683/683/683 682/682/682 681/681/681
f 681/681/681 684/684/684 683/683/683
f 681/681/681 685/685/685 684/684/684
f 681/681/681 686/686/686 685/685/685
f 689/689/689 688/688/688 687/687/687
f 690/690/690 689/689/689 687/687/687
f 693/693/693 692/692/692 691/691/691
f 694/694/694 693/693/693 691/691/691
f 697/697/697 696/696/696 695/695/695
f 697/697/697 698/698/698 696/696/696
f 698/698/698 699/699/699 696/696/696
f 700/700/700 699/699/699 698/698/698
f 701/701/701 700/700/700 698/698/698
f 700/700/700 701/701/701 702/702/702
f 701/701/701 703/703/703 702/702/702
f 702/702/702 703/703/703 704/704/704
f 705/705/705 702/702/702 704/704/704
f 705/705/705 704/704/704 706/706/706
f 704/704/704 707/707/707 706/706/706
f 706/706/706 707/707/707 708/708/708
f 709/709/709 706/706/706 708/708/708
f 696/696/696 710/710/710 695/695/695
f 709/709/709 708/708/708 711/711/711
f 710/710/710 709/709/709 711/711/711
f 695/695/695 710/710/710 711/711/711
f 708/708/708 712/712/712 711/711/711
f 711/711/711 713/713/713 695/695/695
f 711/711/711 712/712/712 714/714/714
f 715/715/715 695/695/695 713/713/713
f 715/715/715 713/713/713 716/716/716
f 714/714/714 712/712/712 717/717/717
f 712/712/712 718/718/718 717/717/717
f 715/715/715 716/716/716 719/719/719
f 720/720/720 715/715/715 719/719/719
f 717/717/717 718/718/718 721/721/721
f 722/722/722 717/717/717 721/721/721
f 722/722/722 721/721/721 723/723/723
f 721/721/721 724/724/724 723/723/723
f 723/723/723 724/724/724 725/725/725
f 725/725/725 724/724/724 726/726/726
f 720/720/720 719/719/719 727/727/727
f 719/719/719 728/728/728 727/727/727
f 727/727/727 728/728/728 729/729/729
f 730/730/730 727/727/727 729/729/729
f 731/731/731 725/725/725 726/726/726
f 730/730/730 729/729/729 731/731/731
f 732/732/732 731/731/731 726/726/726
f 730/730/730 731/731/731 732/732/732
f 735/735/735 734/734/734 733/733/733
f 735/735/735 736/736/736 734/734/734
f 734/734/734 737/737/737 733/733/733
f 737/737/737 738/738/738 733/733/733
f 737/737/737 739/739/739 738/738/738
f 734/734/734 736/736/736 740/740/740
f 738/738/738 739/739/739 741/741/741
f 739/739/739 742/742/742 741/741/741
f 742/742/742 743/743/743 741/741/741
f 741/741/741 743/743/743 744/744/744
f 743/743/743 740/740/740 744/744/744
f 736/736/736 745/745/745 740/740/740
f 740/740/740 746/746/746 744/744/744
f 745/745/745 746/746/746 740/740/740
g shelf06.001_1
f 749/749/749 748/748/748 747/747/747
f 750/750/750 749/749/749 747/747/747
