g shelf06.006
v -3.9388938 7.8384295 2.3929238
v -3.9388938 0.09704304 2.3929238
v -3.9388938 0.09704304 -2.787229
v -3.9388938 6.8577766 -1.0566659
v -3.9388938 7.550002 -0.295218
v -3.9388938 7.8384295 1.1699924
v 3.929401 6.8577766 -1.0566659
v 3.929401 0.09704304 -2.787229
v 3.929401 0.09704304 2.3929238
v 3.929401 7.8384295 2.3929238
v 3.929401 7.550002 -0.295218
v 3.929401 7.8384295 1.1699924
v -3.9388938 0.004746437 -2.8103032
v 3.940938 0.004746437 -2.8103032
v 3.940938 6.869314 -1.07974
v -3.9388938 6.869314 -1.07974
v 3.940938 7.5730762 -0.30675507
v -3.9388938 7.5730762 -0.30675507
v 3.940938 7.8615036 1.1584554
v -3.9388938 7.8615036 1.1584554
v 3.940938 7.8615036 2.3929238
v -3.9388938 7.8615036 2.3929238
v -3.8350596 6.8577766 -1.0566659
v -3.8350596 0.09704304 -2.787229
v -3.8350596 0.09704304 2.3929238
v -3.8350596 7.8384295 2.3929238
v -3.8350596 7.550002 -0.295218
v -3.8350596 7.8384295 1.1699924
v 3.837104 7.8384295 2.3929238
v 3.837104 0.09704304 2.3929238
v 3.837104 0.09704304 -2.787229
v 3.837104 6.8577766 -1.0566659
v 3.837104 7.550002 -0.295218
v 3.837104 7.8384295 1.1699924
v -3.9388938 -0.018327713 -2.7180066
v 3.940938 6.8116283 -0.9989803
v 3.940938 -0.018327713 -2.7180066
v -3.9388938 6.8116283 -0.9989803
v 3.940938 7.4807796 -0.26060677
v -3.9388938 7.4807796 -0.26060677
v 3.940938 7.7576704 1.1699924
v -3.9388938 7.7576704 1.1699924
v 3.940938 7.7576704 2.3929238
v -3.9388938 7.7576704 2.3929238
vt 0 0
vt 0 0
vt 0 0
vt 0 0
vt 0 0
vt 0 0
vt 0 0
vt 0 0
vt 0 0
vt 0 0
vt 0 0
vt 0 0
vt 0.2185549 0.09085027
vt 0.2185549 0.09085027
vt 0.2185549 0.09085027
vt 0.2185549 0.09085027
vt 0.2185549 0.09085027
vt 0.2185549 0.09085027
vt 0.2185549 0.09085027
vt 0.2185549 0.09085027
vt 0.2185549 0.09085027
vt 0.2185549 0.09085027
vt 0 0
vt 0 0
vt 0 0
vt 0 0
vt 0 0
vt 0 0
vt 0 0
vt 0 0
vt 0 0
vt 0 0
vt 0 0
vt 0 0
vt 0.2185549 0.09085027
vt 0.2185549 0.09085027
vt 0.2185549 0.09085027
vt 0.2185549 0.09085027
vt 0.2185549 0.09085027
vt 0.2185549 0.09085027
vt 0.2185549 0.09085027
vt 0.2185549 0.09085027
vt 0.2185549 0.09085027
vt 0.2185549 0.09085027
vn -0.999874 0.015871048 -0.00034391563
vn -0.999874 0.015871048 -0.00034391563
vn -0.999874 0.015871048 -0.00034391563
vn -0.999874 0.015871048 -0.00034391563
vn -0.999874 0.015871048 -0.00034391563
vn -0.999874 0.015871048 -0.00034391563
vn 0.999874 0.015871048 -0.00034391563
vn 0.999874 0.015871048 -0.00034391563
vn 0.999874 0.015871048 -0.00034391563
vn 0.999874 0.015871048 -0.00034391563
vn 0.999874 0.015871048 -0.00034391563
vn 0.999874 0.015871048 -0.00034391563
vn -0.015871048 0.23806524 -0.97111946
vn -0.015871048 0.23806524 -0.97111946
vn -0.015871048 0.5237435 -0.85172814
vn -0.015871048 0.5237435 -0.85172814
vn -0.015871048 0.90464795 -0.42586404
vn -0.015871048 0.90464795 -0.42586404
vn -0.015871048 0.999874 -0.00034526698
vn -0.015871048 0.999874 -0.00034526698
vn -0.015871048 0.999874 -0.00034526698
vn -0.015871048 0.999874 -0.00034526698
vn 0.999874 0.015871048 -0.00034391563
vn 0.999874 0.015871048 -0.00034391563
vn 0.999874 0.015871048 -0.00034391563
vn 0.999874 0.015871048 -0.00034391563
vn 0.999874 0.015871048 -0.00034391563
vn 0.999874 0.015871048 -0.00034391563
vn -0.999874 0.015871048 -0.00034391563
vn -0.999874 0.015871048 -0.00034391563
vn -0.999874 0.015871048 -0.00034391563
vn -0.999874 0.015871048 -0.00034391563
vn -0.999874 0.015871048 -0.00034391563
vn -0.999874 0.015871048 -0.00034391563
vn -0.015871048 -0.23806524 0.97111946
vn -0.015871048 -0.5237435 0.85172814
vn -0.015871048 -0.23806524 0.97111946
vn -0.015871048 -0.5237435 0.85172814
vn -0.015871048 -0.9046479 0.4258642
vn -0.015871048 -0.9046479 0.4258642
vn -0.015871048 -0.999874 -0.00034526698
vn -0.015871048 -0.999874 -0.00034526698
vn -0.015871048 -0.999874 -0.00034526698
vn -0.015871048 -0.999874 -0.00034526698
g shelf06.006_0
f 3/3/3 2/2/2 1/1/1
f 1/1/1 4/4/4 3/3/3
f 1/1/1 5/5/5 4/4/4
f 1/1/1 6/6/6 5/5/5
f 9/9/9 8/8/8 7/7/7
f 7/7/7 10/10/10 9/9/9
f 7/7/7 11/11/11 10/10/10
f 11/11/11 12/12/12 10/10/10
f 15/15/15 14/14/14 13/13/13
f 16/16/16 15/15/15 13/13/13
f 17/17/17 15/15/15 16/16/16
f 18/18/18 17/17/17 16/16/16
f 19/19/19 17/17/17 18/18/18
f 20/20/20 19/19/19 18/18/18
f 19/19/19 20/20/20 21/21/21
f 20/20/20 22/22/22 21/21/21
f 25/25/25 24/24/24 23/23/23
f 23/23/23 26/26/26 25/25/25
f 23/23/23 27/27/27 26/26/26
f 27/27/27 28/28/28 26/26/26
f 31/31/31 30/30/30 29/29/29
f 29/29/29 32/32/32 31/31/31
f 29/29/29 33/33/33 32/32/32
f 29/29/29 34/34/34 33/33/33
f 37/37/37 36/36/36 35/35/35
f 36/36/36 38/38/38 35/35/35
f 36/36/36 39/39/39 38/38/38
f 39/39/39 40/40/40 38/38/38
f 39/39/39 41/41/41 40/40/40
f 41/41/41 42/42/42 40/40/40
f 42/42/42 41/41/41 43/43/43
f 44/44/44 42/42/42 43/43/43
