g shelf01_Mat
v 6.004399 0.0063533783 -5.038612
v 6.5 0.0063533783 -4.5430107
v -0.0063533783 0.0063533783 0.0063533783
v -6.0043974 0.0063533783 -5.038612
v 6.5 0.0063533783 4.454056
v -6.499999 0.0063533783 -4.5430107
v 6.004399 0.0063533783 4.962364
v -6.499999 0.0063533783 4.454056
v -6.0043974 0.0063533783 4.962364
vt 0.7869759 0.09069431
vt 0.7869759 0.09069431
vt 0.7869759 0.09069431
vt 0.7869759 0.09069431
vt 0.7869759 0.09069431
vt 0.7869759 0.09069431
vt 0.7869759 0.09069431
vt 0.7869759 0.09069431
vt 0.7869759 0.09069431
vn -0 1 -0
vn -0 1 -0
vn -0 1 -0
vn -0 1 -0
vn -0 1 -0
vn -0 1 -0
vn -0 1 -0
vn -0 1 -0
vn -0 1 -0
g shelf01_Mat_0
f 3/3/3 2/2/2 1/1/1
f 1/1/1 4/4/4 3/3/3
f 5/5/5 2/2/2 3/3/3
f 3/3/3 4/4/4 6/6/6
f 3/3/3 7/7/7 5/5/5
f 6/6/6 8/8/8 3/3/3
f 9/9/9 7/7/7 3/3/3
f 3/3/3 8/8/8 9/9/9
