g shelf02_Mat.004
v 6.5 0.0063533783 4.454056
v 6.004399 0.0063533783 4.962364
v 6.5 0.0063533783 -4.5430107
v 6.004399 0.0063533783 -5.038612
v -6.0043974 0.0063533783 -5.038612
v -6.0043974 0.0063533783 4.962364
v -6.499999 0.0063533783 4.454056
v -6.499999 0.0063533783 -4.5430107
vt 0.7869759 0.09069431
vt 0.7869759 0.09069431
vt 0.7869759 0.09069431
vt 0.7869759 0.09069431
vt 0.7869759 0.09069431
vt 0.7869759 0.09069431
vt 0.7869759 0.09069431
vt 0.7869759 0.09069431
vn -0 1 -0
vn -0 1 -0
vn -0 1 -0
vn -0 1 -0
vn -0 1 -0
vn -0 1 -0
vn -0 1 -0
vn -0 1 -0
g shelf02_Mat.004_0
f 3/3/3 2/2/2 1/1/1
f 3/3/3 4/4/4 2/2/2
f 2/2/2 4/4/4 5/5/5
f 6/6/6 2/2/2 5/5/5
f 7/7/7 6/6/6 5/5/5
f 7/7/7 5/5/5 8/8/8
