g shelf04
v -4.005864 0.0029320717 2.608015
v 4 0.0029320717 2.608015
v 4 0.0029320717 -1.0009778
v -4.005864 0.0029320717 -1.0009778
v -4.005864 0.0029320717 2.608015
v -4.005864 6.0009766 2.608015
v 4 6.0009766 2.608015
v 4 0.0029320717 2.608015
v 4 0.0029320717 2.608015
v 4 6.0009766 2.608015
v 4 6.0009766 -1.0009778
v 4 0.0029320717 -1.0009778
v -4.005864 0.0029320717 -1.0009778
v -4.005864 6.0009766 -1.0009778
v -4.005864 6.0009766 2.608015
v -4.005864 0.0029320717 2.608015
v -3.878787 0.11730194 2.4936457
v -3.8533716 0.14271736 -1.0009778
v 3.8602152 0.14271736 -1.0009778
v 3.8856306 0.11730194 2.4936457
v -3.878787 0.11730194 2.4936457
v 3.8856306 0.11730194 2.4936457
v 3.8602152 6.0009766 2.4682302
v -3.8533716 6.0009766 2.4682302
v 3.8856306 0.11730194 2.4936457
v 3.8602152 0.14271736 -1.0009778
v 3.7966764 6.0009766 -1.0009778
v 3.8602152 6.0009766 2.4682302
v -3.8533716 0.14271736 -1.0009778
v -3.878787 0.11730194 2.4936457
v -3.8533716 6.0009766 2.4682302
v -3.8025408 6.0009766 -1.0009778
v -4.005864 6.0009766 -1.0009778
v -3.8025408 6.0009766 -1.0009778
v -3.8533716 6.0009766 2.4682302
v -4.005864 6.0009766 2.608015
v 3.8602152 6.0009766 2.4682302
v 4 6.0009766 2.608015
v 3.7966764 6.0009766 -1.0009778
v 4 6.0009766 -1.0009778
v -4.005864 0.0029320717 -1.0009778
v -3.8025408 6.0009766 -1.0009778
v -4.005864 6.0009766 -1.0009778
v -3.8533716 0.14271736 -1.0009778
v 4 0.0029320717 -1.0009778
v 3.8602152 0.14271736 -1.0009778
v 4 6.0009766 -1.0009778
v 3.7966764 6.0009766 -1.0009778
v -3.8660793 4.399804 -0.8993161
v 3.9491692 4.399804 -0.8993161
v 3.9491692 4.501466 -0.8993161
v -3.8660793 4.501466 -0.8993161
v 3.9491692 2.5063534 2.391984
v -3.8660793 2.5063534 2.391984
v -3.8660793 2.5063534 -0.8993161
v 3.9491692 2.5063534 -0.8993161
v -3.8660793 0.39687157 2.391984
v 3.9491692 0.39687157 2.391984
v 3.9491692 0.39687157 -0.8993161
v -3.8660793 0.39687157 -0.8993161
v -3.8660793 4.399804 2.391984
v 3.9491692 4.399804 2.391984
v 3.9491692 4.399804 -0.8993161
v -3.8660793 4.399804 -0.8993161
v -3.8660793 2.4046917 2.391984
v -3.8660793 2.4046917 -0.8993161
v -3.8660793 2.5063534 -0.8993161
v -3.8660793 2.5063534 2.391984
v 3.9491692 0.39687157 -0.8993161
v 3.9491692 0.39687157 2.391984
v 3.9491692 0.49853325 2.391984
v 3.9491692 0.49853325 -0.8993161
v -3.8660793 0.39687157 -0.8993161
v 3.9491692 0.39687157 -0.8993161
v 3.9491692 0.49853325 -0.8993161
v -3.8660793 0.49853325 -0.8993161
v 3.9491692 0.49853325 2.391984
v -3.8660793 0.49853325 2.391984
v -3.8660793 0.49853325 -0.8993161
v 3.9491692 0.49853325 -0.8993161
v 3.9491692 4.501466 2.391984
v -3.8660793 4.501466 2.391984
v -3.8660793 4.501466 -0.8993161
v 3.9491692 4.501466 -0.8993161
v 3.9491692 2.4046917 -0.8993161
v 3.9491692 2.4046917 2.391984
v 3.9491692 2.5063534 2.391984
v 3.9491692 2.5063534 -0.8993161
v -3.8660793 2.4046917 2.391984
v 3.9491692 2.4046917 2.391984
v 3.9491692 2.4046917 -0.8993161
v -3.8660793 2.4046917 -0.8993161
v -3.8660793 2.4046917 -0.8993161
v 3.9491692 2.4046917 -0.8993161
v 3.9491692 2.5063534 -0.8993161
v -3.8660793 2.5063534 -0.8993161
v 3.9491692 4.399804 -0.8993161
v 3.9491692 4.399804 2.391984
v 3.9491692 4.501466 2.391984
v 3.9491692 4.501466 -0.8993161
v -3.8660793 4.399804 2.391984
v -3.8660793 4.399804 -0.8993161
v -3.8660793 4.501466 -0.8993161
v -3.8660793 4.501466 2.391984
v -3.8660793 0.39687157 2.391984
v -3.8660793 0.39687157 -0.8993161
v -3.8660793 0.49853325 -0.8993161
v -3.8660793 0.49853325 2.391984
v 2.1192572 6.0009766 2.608015
v 2.1192572 6.0009766 2.4682302
v -2.1251216 6.0009766 2.4682302
v -2.1251216 6.0009766 2.608015
v 1.623656 8.999999 2.608015
v 2.1192572 8.504397 2.608015
v 2.1192572 6.0009766 2.608015
v -2.1251216 6.0009766 2.608015
v -1.6168127 8.999999 2.608015
v -2.1251216 8.504397 2.608015
v 1.623656 8.999999 2.608015
v -1.6168127 8.999999 2.608015
v -1.6168127 8.999999 2.4682302
v 1.623656 8.999999 2.4682302
v -2.1251216 6.0009766 2.4682302
v -2.1251216 8.504397 2.4682302
v -2.1251216 8.504397 2.608015
v -2.1251216 6.0009766 2.608015
v -2.1251216 6.0009766 2.4682302
v 2.1192572 6.0009766 2.4682302
v 2.1192572 8.504397 2.4682302
v 1.623656 8.999999 2.4682302
v -1.6168127 8.999999 2.4682302
v -2.1251216 8.504397 2.4682302
v 2.1192572 8.504397 2.608015
v 1.623656 8.999999 2.608015
v 1.623656 8.999999 2.4682302
v 2.1192572 8.504397 2.4682302
v -2.1251216 8.504397 2.4682302
v -1.6168127 8.999999 2.4682302
v -1.6168127 8.999999 2.608015
v -2.1251216 8.504397 2.608015
v 2.1192572 6.0009766 2.608015
v 2.1192572 8.504397 2.608015
v 2.1192572 8.504397 2.4682302
v 2.1192572 6.0009766 2.4682302
v 1.4203327 6.115346 2.4173994
v 1.4203327 8.961876 2.4173994
v -1.426197 8.961876 2.4173994
v -1.426197 6.115346 2.4173994
vt 0.21933958 0.09101183
vt 0.21933958 0.09101183
vt 0.21933958 0.09101183
vt 0.21933958 0.09101183
vt 0.21933958 0.09101183
vt 0.21933958 0.09101183
vt 0.21933958 0.09101183
vt 0.21933958 0.09101183
vt 0.21933958 0.09101183
vt 0.21933958 0.09101183
vt 0.21933958 0.09101183
vt 0.21933958 0.09101183
vt 0.21933958 0.09101183
vt 0.21933958 0.09101183
vt 0.21933958 0.09101183
vt 0.21933958 0.09101183
vt 0.21933958 0.09101183
vt 0.21933958 0.09101183
vt 0.21933958 0.09101183
vt 0.21933958 0.09101183
vt 0.21933958 0.09101183
vt 0.21933958 0.09101183
vt 0.21933958 0.09101183
vt 0.21933958 0.09101183
vt 0.21933958 0.09101183
vt 0.21933958 0.09101183
vt 0.21933958 0.09101183
vt 0.21933958 0.09101183
vt 0.21933958 0.09101183
vt 0.21933958 0.09101183
vt 0.21933958 0.09101183
vt 0.21933958 0.09101183
vt 0.21933958 0.09101183
vt 0.21933958 0.09101183
vt 0.21933958 0.09101183
vt 0.21933958 0.09101183
vt 0.21933958 0.09101183
vt 0.21933958 0.09101183
vt 0.21933958 0.09101183
vt 0.21933958 0.09101183
vt 0.21933958 0.09101183
vt 0.21933958 0.09101183
vt 0.21933958 0.09101183
vt 0.21933958 0.09101183
vt 0.21933958 0.09101183
vt 0.21933958 0.09101183
vt 0.21933958 0.09101183
vt 0.21933958 0.09101183
vt 0.21933958 0.09101183
vt 0.21933958 0.09101183
vt 0.21933958 0.09101183
vt 0.21933958 0.09101183
vt 0.21933958 0.09101183
vt 0.21933958 0.09101183
vt 0.21933958 0.09101183
vt 0.21933958 0.09101183
vt 0.21933958 0.09101183
vt 0.21933958 0.09101183
vt 0.21933958 0.09101183
vt 0.21933958 0.09101183
vt 0.21933958 0.09101183
vt 0.21933958 0.09101183
vt 0.21933958 0.09101183
vt 0.21933958 0.09101183
vt 0.21933958 0.09101183
vt 0.21933958 0.09101183
vt 0.21933958 0.09101183
vt 0.21933958 0.09101183
vt 0.21933958 0.09101183
vt 0.21933958 0.09101183
vt 0.21933958 0.09101183
vt 0.21933958 0.09101183
vt 0.21933958 0.09101183
vt 0.21933958 0.09101183
vt 0.21933958 0.09101183
vt 0.21933958 0.09101183
vt 0.21933958 0.09101183
vt 0.21933958 0.09101183
vt 0.21933958 0.09101183
vt 0.21933958 0.09101183
vt 0.21933958 0.09101183
vt 0.21933958 0.09101183
vt 0.21933958 0.09101183
vt 0.21933958 0.09101183
vt 0.21933958 0.09101183
vt 0.21933958 0.09101183
vt 0.21933958 0.09101183
vt 0.21933958 0.09101183
vt 0.21933958 0.09101183
vt 0.21933958 0.09101183
vt 0.21933958 0.09101183
vt 0.21933958 0.09101183
vt 0.21933958 0.09101183
vt 0.21933958 0.09101183
vt 0.21933958 0.09101183
vt 0.21933958 0.09101183
vt 0.21933958 0.09101183
vt 0.21933958 0.09101183
vt 0.21933958 0.09101183
vt 0.21933958 0.09101183
vt 0.21933958 0.09101183
vt 0.21933958 0.09101183
vt 0.21933958 0.09101183
vt 0.21933958 0.09101183
vt 0.21933958 0.09101183
vt 0.21933958 0.09101183
vt 0.21933958 0.09101183
vt 0.21933958 0.09101183
vt 0.21933958 0.09101183
vt 0.21933958 0.09101183
vt 0.21933958 0.09101183
vt 0.21933958 0.09101183
vt 0.21933958 0.09101183
vt 0.21933958 0.09101183
vt 0.21933958 0.09101183
vt 0.21933958 0.09101183
vt 0.21933958 0.09101183
vt 0.21933958 0.09101183
vt 0.21933958 0.09101183
vt 0.21933958 0.09101183
vt 0.21933958 0.09101183
vt 0.21933958 0.09101183
vt 0.21933958 0.09101183
vt 0.21933958 0.09101183
vt 0.21933958 0.09101183
vt 0.21933958 0.09101183
vt 0.21933958 0.09101183
vt 0.21933958 0.09101183
vt 0.21933958 0.09101183
vt 0.21933958 0.09101183
vt 0.21933958 0.09101183
vt 0.21933958 0.09101183
vt 0.21933958 0.09101183
vt 0.21933958 0.09101183
vt 0.21933958 0.09101183
vt 0.21933958 0.09101183
vt 0.21933958 0.09101183
vt 0.21933958 0.09101183
vt 0.21933958 0.09101183
vt 0.21933958 0.09101183
vt 0.21933958 0.09101183
vt 0.21933958 0.09101183
vt 0.21933958 0.09101183
vt 0.21933958 0.09101183
vt 0.37618458 0.8752369
vt 0.37618458 1
vt 0.50094765 1
vt 0.50094765 0.8752369
vn -0.015871048 -0.999874 -0.00034526698
vn -0.015871048 -0.999874 -0.00034526698
vn -0.015871048 -0.999874 -0.00034526698
vn -0.015871048 -0.999874 -0.00034526698
vn -0.015871048 0.015871048 0.99974805
vn -0.015871048 0.015871048 0.99974805
vn -0.015871048 0.015871048 0.99974805
vn -0.015871048 0.015871048 0.99974805
vn 0.999874 0.015871048 -0.00034391563
vn 0.999874 0.015871048 -0.00034391563
vn 0.999874 0.015871048 -0.00034391563
vn 0.999874 0.015871048 -0.00034391563
vn -0.999874 0.015871048 -0.00034391563
vn -0.999874 0.015871048 -0.00034391563
vn -0.999874 0.015871048 -0.00034391563
vn -0.999874 0.015871048 -0.00034391563
vn -0.015871048 0.999874 -0.00034526698
vn -0.015871048 0.999874 -0.00034526698
vn -0.015871048 0.999874 -0.00034526698
vn -0.015871048 0.999874 -0.00034526698
vn -0.015871048 -0.015870988 -0.99974805
vn -0.015871048 -0.015870988 -0.99974805
vn -0.015871048 -0.015870988 -0.99974805
vn -0.015871048 -0.015870988 -0.99974805
vn -0.999874 -0.015870988 -0.00034665503
vn -0.999874 -0.015870988 -0.00034665503
vn -0.999874 -0.015870988 -0.00034665503
vn -0.999874 -0.015870988 -0.00034665503
vn 0.999874 -0.015870988 -0.00034665503
vn 0.999874 -0.015870988 -0.00034665503
vn 0.999874 -0.015870988 -0.00034665503
vn 0.999874 -0.015870988 -0.00034665503
vn -0.015871048 0.999874 -0.00034526698
vn -0.015871048 0.999874 -0.00034526698
vn -0.015871048 0.999874 -0.00034526698
vn -0.015871048 0.999874 -0.00034526698
vn -0.015871048 0.999874 -0.00034526698
vn -0.015871048 0.999874 -0.00034526698
vn -0.015871048 0.999874 -0.00034526698
vn -0.015871048 0.999874 -0.00034526698
vn -0.015871048 0.015871048 -0.99974805
vn -0.015871048 0.015871048 -0.99974805
vn -0.015871048 0.015871048 -0.99974805
vn -0.015871048 0.015871048 -0.99974805
vn -0.015871048 0.015871048 -0.99974805
vn -0.015871048 0.015871048 -0.99974805
vn -0.015871048 0.015871048 -0.99974805
vn -0.015871048 0.015871048 -0.99974805
vn -0.015871048 0.015871048 -0.99974805
vn -0.015871048 0.015871048 -0.99974805
vn -0.015871048 0.015871048 -0.99974805
vn -0.015871048 0.015871048 -0.99974805
vn -0.015871048 0.999874 -0.00034526698
vn -0.015871048 0.999874 -0.00034526698
vn -0.015871048 0.999874 -0.00034526698
vn -0.015871048 0.999874 -0.00034526698
vn -0.015871048 -0.999874 -0.00034526698
vn -0.015871048 -0.999874 -0.00034526698
vn -0.015871048 -0.999874 -0.00034526698
vn -0.015871048 -0.999874 -0.00034526698
vn -0.015871048 -0.999874 -0.00034526698
vn -0.015871048 -0.999874 -0.00034526698
vn -0.015871048 -0.999874 -0.00034526698
vn -0.015871048 -0.999874 -0.00034526698
vn -0.999874 0.015871048 -0.00034391563
vn -0.999874 0.015871048 -0.00034391563
vn -0.999874 0.015871048 -0.00034391563
vn -0.999874 0.015871048 -0.00034391563
vn 0.999874 0.015871048 -0.00034391563
vn 0.999874 0.015871048 -0.00034391563
vn 0.999874 0.015871048 -0.00034391563
vn 0.999874 0.015871048 -0.00034391563
vn -0.015871048 0.015871048 -0.99974805
vn -0.015871048 0.015871048 -0.99974805
vn -0.015871048 0.015871048 -0.99974805
vn -0.015871048 0.015871048 -0.99974805
vn -0.015871048 0.999874 -0.00034526698
vn -0.015871048 0.999874 -0.00034526698
vn -0.015871048 0.999874 -0.00034526698
vn -0.015871048 0.999874 -0.00034526698
vn -0.015871048 0.999874 -0.00034526698
vn -0.015871048 0.999874 -0.00034526698
vn -0.015871048 0.999874 -0.00034526698
vn -0.015871048 0.999874 -0.00034526698
vn 0.999874 0.015871048 -0.00034391563
vn 0.999874 0.015871048 -0.00034391563
vn 0.999874 0.015871048 -0.00034391563
vn 0.999874 0.015871048 -0.00034391563
vn -0.015871048 -0.999874 -0.00034526698
vn -0.015871048 -0.999874 -0.00034526698
vn -0.015871048 -0.999874 -0.00034526698
vn -0.015871048 -0.999874 -0.00034526698
vn -0.015871048 0.015871048 -0.99974805
vn -0.015871048 0.015871048 -0.99974805
vn -0.015871048 0.015871048 -0.99974805
vn -0.015871048 0.015871048 -0.99974805
vn 0.999874 0.015871048 -0.00034391563
vn 0.999874 0.015871048 -0.00034391563
vn 0.999874 0.015871048 -0.00034391563
vn 0.999874 0.015871048 -0.00034391563
vn -0.999874 0.015871048 -0.00034391563
vn -0.999874 0.015871048 -0.00034391563
vn -0.999874 0.015871048 -0.00034391563
vn -0.999874 0.015871048 -0.00034391563
vn -0.999874 0.015871048 -0.00034391563
vn -0.999874 0.015871048 -0.00034391563
vn -0.999874 0.015871048 -0.00034391563
vn -0.999874 0.015871048 -0.00034391563
vn -0.015871048 -0.999874 -0.00034526698
vn -0.015871048 -0.999874 -0.00034526698
vn -0.015871048 -0.999874 -0.00034526698
vn -0.015871048 -0.999874 -0.00034526698
vn -0.015871048 0.015871048 0.99974805
vn -0.015871048 0.015871048 0.99974805
vn -0.015871048 0.015871048 0.99974805
vn -0.015871048 0.015871048 0.99974805
vn -0.015871048 0.015871048 0.99974805
vn -0.015871048 0.015871048 0.99974805
vn -0.015871048 0.999874 -0.00034526698
vn -0.015871048 0.999874 -0.00034526698
vn -0.015871048 0.999874 -0.00034526698
vn -0.015871048 0.999874 -0.00034526698
vn -0.999874 0.015871048 -0.00034391563
vn -0.999874 0.015871048 -0.00034391563
vn -0.999874 0.015871048 -0.00034391563
vn -0.999874 0.015871048 -0.00034391563
vn -0.015871048 0.015871048 -0.99974805
vn -0.015871048 0.015871048 -0.99974805
vn -0.015871048 0.015871048 -0.99974805
vn -0.015871048 0.015871048 -0.99974805
vn -0.015871048 0.015871048 -0.99974805
vn -0.015871048 0.015871048 -0.99974805
vn 0.70710677 0.70710677 -0
vn 0.70710677 0.70710677 -0
vn 0.70710677 0.70710677 -0
vn 0.70710677 0.70710677 -0
vn -0.70710677 0.70710677 -0
vn -0.70710677 0.70710677 -0
vn -0.70710677 0.70710677 -0
vn -0.70710677 0.70710677 -0
vn 0.999874 0.015871048 -0.00034391563
vn 0.999874 0.015871048 -0.00034391563
vn 0.999874 0.015871048 -0.00034391563
vn 0.999874 0.015871048 -0.00034391563
vn -0.015871048 0.015871048 -0.99974805
vn -0.015871048 0.015871048 -0.99974805
vn -0.015871048 0.015871048 -0.99974805
vn -0.015871048 0.015871048 -0.99974805
g shelf04_0
f 3/3/3 2/2/2 1/1/1
f 4/4/4 3/3/3 1/1/1
f 7/7/7 6/6/6 5/5/5
f 8/8/8 7/7/7 5/5/5
f 11/11/11 10/10/10 9/9/9
f 12/12/12 11/11/11 9/9/9
f 15/15/15 14/14/14 13/13/13
f 16/16/16 15/15/15 13/13/13
f 19/19/19 18/18/18 17/17/17
f 20/20/20 19/19/19 17/17/17
f 23/23/23 22/22/22 21/21/21
f 24/24/24 23/23/23 21/21/21
f 27/27/27 26/26/26 25/25/25
f 28/28/28 27/27/27 25/25/25
f 31/31/31 30/30/30 29/29/29
f 32/32/32 31/31/31 29/29/29
f 35/35/35 34/34/34 33/33/33
f 36/36/36 35/35/35 33/33/33
f 37/37/37 35/35/35 36/36/36
f 38/38/38 37/37/37 36/36/36
f 39/39/39 37/37/37 38/38/38
f 40/40/40 39/39/39 38/38/38
f 43/43/43 42/42/42 41/41/41
f 42/42/42 44/44/44 41/41/41
f 41/41/41 44/44/44 45/45/45
f 44/44/44 46/46/46 45/45/45
f 45/45/45 46/46/46 47/47/47
f 46/46/46 48/48/48 47/47/47
f 51/51/51 50/50/50 49/49/49
f 52/52/52 51/51/51 49/49/49
f 55/55/55 54/54/54 53/53/53
f 56/56/56 55/55/55 53/53/53
f 59/59/59 58/58/58 57/57/57
f 60/60/60 59/59/59 57/57/57
f 63/63/63 62/62/62 61/61/61
f 64/64/64 63/63/63 61/61/61
f 67/67/67 66/66/66 65/65/65
f 68/68/68 67/67/67 65/65/65
f 71/71/71 70/70/70 69/69/69
f 72/72/72 71/71/71 69/69/69
f 75/75/75 74/74/74 73/73/73
f 76/76/76 75/75/75 73/73/73
f 79/79/79 78/78/78 77/77/77
f 80/80/80 79/79/79 77/77/77
f 83/83/83 82/82/82 81/81/81
f 84/84/84 83/83/83 81/81/81
f 87/87/87 86/86/86 85/85/85
f 88/88/88 87/87/87 85/85/85
f 91/91/91 90/90/90 89/89/89
f 92/92/92 91/91/91 89/89/89
f 95/95/95 94/94/94 93/93/93
f 96/96/96 95/95/95 93/93/93
f 99/99/99 98/98/98 97/97/97
f 100/100/100 99/99/99 97/97/97
f 103/103/103 102/102/102 101/101/101
f 104/104/104 103/103/103 101/101/101
f 107/107/107 106/106/106 105/105/105
f 108/108/108 107/107/107 105/105/105
f 111/111/111 110/110/110 109/109/109
f 112/112/112 111/111/111 109/109/109
f 115/115/115 114/114/114 113/113/113
f 113/113/113 116/116/116 115/115/115
f 113/113/113 117/117/117 116/116/116
f 117/117/117 118/118/118 116/116/116
f 121/121/121 120/120/120 119/119/119
f 122/122/122 121/121/121 119/119/119
f 125/125/125 124/124/124 123/123/123
f 126/126/126 125/125/125 123/123/123
f 129/129/129 128/128/128 127/127/127
f 127/127/127 130/130/130 129/129/129
f 127/127/127 131/131/131 130/130/130
f 127/127/127 132/132/132 131/131/131
f 135/135/135 134/134/134 133/133/133
f 136/136/136 135/135/135 133/133/133
f 139/139/139 138/138/138 137/137/137
f 140/140/140 139/139/139 137/137/137
f 143/143/143 142/142/142 141/141/141
f 144/144/144 143/143/143 141/141/141
g shelf04_1
f 147/147/147 146/146/146 145/145/145
f 148/148/148 147/147/147 145/145/145
