g shelf01.001
v -3.8602142 0.08602047 -4.399805
v 3.9550347 0.08602047 -4.399805
v 3.9550347 0.08602047 -4.5014668
v -3.8602142 0.08602047 -4.5014668
v -3.999999 2.3988256 -0.0029335022
v -3.999999 -3.0019555 -0.0029335022
v -3.999999 -1.2228746 -4.9716525
v -3.999999 2.3988256 -6.0009775
v -3.999999 -0.42228794 -5.6959925
v -3.999999 1.1026382 -6.0009775
v -3.8347988 2.3988256 -6.0009775
v -3.8347988 1.1026382 -6.0009775
v -3.8347988 -0.42228794 -5.6959925
v -3.8347988 -1.2228746 -4.9716525
v -3.8347988 -3.0019555 -0.0029335022
v -3.8347988 2.3988256 -0.0029335022
v 4.0058656 -3.0019555 -0.0029335022
v 4.0058656 2.3988256 -0.0029335022
v 4.0058656 2.3988256 -6.0009775
v 4.0058656 -1.2228746 -4.9716525
v 4.0058656 -0.42228794 -5.6959925
v 4.0058656 1.1026382 -6.0009775
v 3.9550347 2.3988256 -2.4936466
v -3.8602142 2.3988256 -2.4936466
v -3.8602142 -0.9178896 -2.4936466
v 3.9550347 -0.9178896 -2.4936466
v -3.8602142 2.3988256 -0.39687252
v 3.9550347 2.3988256 -0.39687252
v 3.9550347 -1.9217992 -0.39687252
v -3.8602142 -1.9217992 -0.39687252
v 3.8279576 1.1026382 -6.0009775
v 3.8279576 2.3988256 -6.0009775
v 3.8279576 -0.42228794 -5.6959925
v 3.8279576 -1.2228746 -4.9716525
v 3.8279576 2.3988256 -0.0029335022
v 3.8279576 -3.0019555 -0.0029335022
v -3.8347988 2.3988256 -6.0009775
v -3.999999 2.3988256 -6.0009775
v -3.999999 1.1026382 -6.0009775
v -3.8347988 1.1026382 -6.0009775
v -3.999999 -0.42228794 -5.6959925
v -3.8347988 -0.42228794 -5.6959925
v -3.999999 -1.2228746 -4.9716525
v -3.8347988 -1.2228746 -4.9716525
v -3.999999 -3.0019555 -0.0029335022
v -3.8347988 -3.0019555 -0.0029335022
v 4.0058656 2.60215 -0.0029335022
v -3.999999 2.60215 -0.0029335022
v -3.999999 2.60215 -6.0009775
v 4.0058656 2.60215 -6.0009775
v -3.999999 2.60215 -0.0029335022
v -3.999999 2.3988256 -0.0029335022
v -3.999999 2.3988256 -6.0009775
v -3.999999 2.60215 -6.0009775
v -3.999999 2.3988256 -0.0029335022
v 4.0058656 2.3988256 -0.0029335022
v 4.0058656 2.3988256 -6.0009775
v -3.999999 2.3988256 -6.0009775
v 4.0058656 2.60215 -6.0009775
v -3.999999 2.60215 -6.0009775
v -3.999999 2.3988256 -6.0009775
v 4.0058656 2.3988256 -6.0009775
v 4.0058656 2.3988256 -0.0029335022
v 4.0058656 2.60215 -0.0029335022
v 4.0058656 2.60215 -6.0009775
v 4.0058656 2.3988256 -6.0009775
v -3.8602142 2.3988256 -4.399805
v 3.9550347 2.3988256 -4.399805
v 3.9550347 0.08602047 -4.399805
v -3.8602142 0.08602047 -4.399805
v -3.8347988 2.3988256 -0.0029335022
v -3.999999 2.3988256 -0.0029335022
v -3.999999 2.3988256 -6.0009775
v -3.8347988 2.3988256 -6.0009775
v 3.8279576 -3.0019555 -0.0029335022
v 4.0058656 -3.0019555 -0.0029335022
v 4.0058656 -1.2228746 -4.9716525
v 3.8279576 -1.2228746 -4.9716525
v 4.0058656 -0.42228794 -5.6959925
v 3.8279576 -0.42228794 -5.6959925
v 4.0058656 1.1026382 -6.0009775
v 3.8279576 1.1026382 -6.0009775
v 4.0058656 2.3988256 -6.0009775
v 3.8279576 2.3988256 -6.0009775
v -3.8602142 2.3988256 -2.4046926
v -3.8602142 -0.9178896 -2.4046926
v -3.8602142 -0.9178896 -2.4936466
v -3.8602142 2.3988256 -2.4936466
v 3.9550347 -1.9217992 -0.39687252
v 3.9550347 2.3988256 -0.39687252
v 3.9550347 2.3988256 -0.4985342
v 3.9550347 -1.9217992 -0.4985342
v -3.8602142 -1.9217992 -0.39687252
v 3.9550347 -1.9217992 -0.39687252
v 3.9550347 -1.9217992 -0.4985342
v -3.8602142 -1.9217992 -0.4985342
v 4.0058656 2.3988256 -0.0029335022
v 3.8279576 2.3988256 -0.0029335022
v 3.8279576 2.3988256 -6.0009775
v 4.0058656 2.3988256 -6.0009775
v 3.9550347 2.3988256 -0.4985342
v -3.8602142 2.3988256 -0.4985342
v -3.8602142 -1.9217992 -0.4985342
v 3.9550347 -1.9217992 -0.4985342
v 3.9550347 2.3988256 -4.5014668
v -3.8602142 2.3988256 -4.5014668
v -3.8602142 0.08602047 -4.5014668
v 3.9550347 0.08602047 -4.5014668
v 3.9550347 -0.9178896 -2.4046926
v 3.9550347 2.3988256 -2.4046926
v 3.9550347 2.3988256 -2.4936466
v 3.9550347 -0.9178896 -2.4936466
v -3.8602142 2.3988256 -2.4046926
v 3.9550347 2.3988256 -2.4046926
v 3.9550347 -0.9178896 -2.4046926
v -3.8602142 -0.9178896 -2.4046926
v -3.8602142 -0.9178896 -2.4046926
v 3.9550347 -0.9178896 -2.4046926
v 3.9550347 -0.9178896 -2.4936466
v -3.8602142 -0.9178896 -2.4936466
v 3.9550347 0.08602047 -4.399805
v 3.9550347 2.3988256 -4.399805
v 3.9550347 2.3988256 -4.5014668
v 3.9550347 0.08602047 -4.5014668
v -3.8602142 2.3988256 -4.399805
v -3.8602142 0.08602047 -4.399805
v -3.8602142 0.08602047 -4.5014668
v -3.8602142 2.3988256 -4.5014668
v -3.8602142 2.3988256 -0.39687252
v -3.8602142 -1.9217992 -0.39687252
v -3.8602142 -1.9217992 -0.4985342
v -3.8602142 2.3988256 -0.4985342
v 2.1251225 2.60215 -6.0009775
v 2.1251225 2.3988256 -6.0009775
v -2.119256 2.3988256 -6.0009775
v -2.119256 2.60215 -6.0009775
v -2.119256 2.60215 -8.504399
v -1.6236553 2.60215 -9
v 1.6168141 2.60215 -9
v 2.1251225 2.60215 -8.504399
v -2.119256 2.60215 -6.0009775
v 2.1251225 2.60215 -6.0009775
v 1.6168141 2.60215 -9
v -1.6236553 2.60215 -9
v -1.6236553 2.3988256 -9
v 1.6168141 2.3988256 -9
v -2.119256 2.3988256 -6.0009775
v -2.119256 2.3988256 -8.504399
v -2.119256 2.60215 -8.504399
v -2.119256 2.60215 -6.0009775
v 2.1251225 2.3988256 -8.504399
v 1.6168141 2.3988256 -9
v -1.6236553 2.3988256 -9
v -2.119256 2.3988256 -8.504399
v 2.1251225 2.3988256 -6.0009775
v -2.119256 2.3988256 -6.0009775
v 2.1251225 2.60215 -8.504399
v 1.6168141 2.60215 -9
v 1.6168141 2.3988256 -9
v 2.1251225 2.3988256 -8.504399
v -2.119256 2.3988256 -8.504399
v -1.6236553 2.3988256 -9
v -1.6236553 2.60215 -9
v -2.119256 2.60215 -8.504399
v 2.1251225 2.60215 -6.0009775
v 2.1251225 2.60215 -8.504399
v 2.1251225 2.3988256 -8.504399
v 2.1251225 2.3988256 -6.0009775
vt 0.21855488 0.09101183
vt 0.21855488 0.09101183
vt 0.21855488 0.09101183
vt 0.21855488 0.09101183
vt 0.21855488 0.09101183
vt 0.21855488 0.09101183
vt 0.21855488 0.09101183
vt 0.21855488 0.09101183
vt 0.21855488 0.09101183
vt 0.21855488 0.09101183
vt 0.21855488 0.09101183
vt 0.21855488 0.09101183
vt 0.21855488 0.09101183
vt 0.21855488 0.09101183
vt 0.21855488 0.09101183
vt 0.21855488 0.09101183
vt 0.21855488 0.09101183
vt 0.21855488 0.09101183
vt 0.21855488 0.09101183
vt 0.21855488 0.09101183
vt 0.21855488 0.09101183
vt 0.21855488 0.09101183
vt 0.21855488 0.09101183
vt 0.21855488 0.09101183
vt 0.21855488 0.09101183
vt 0.21855488 0.09101183
vt 0.21855488 0.09101183
vt 0.21855488 0.09101183
vt 0.21855488 0.09101183
vt 0.21855488 0.09101183
vt 0.21855488 0.09101183
vt 0.21855488 0.09101183
vt 0.21855488 0.09101183
vt 0.21855488 0.09101183
vt 0.21855488 0.09101183
vt 0.21855488 0.09101183
vt 0.21855488 0.09101183
vt 0.21855488 0.09101183
vt 0.21855488 0.09101183
vt 0.21855488 0.09101183
vt 0.21855488 0.09101183
vt 0.21855488 0.09101183
vt 0.21855488 0.09101183
vt 0.21855488 0.09101183
vt 0.21855488 0.09101183
vt 0.21855488 0.09101183
vt 0.21855488 0.09101183
vt 0.21855488 0.09101183
vt 0.21855488 0.09101183
vt 0.21855488 0.09101183
vt 0.21855488 0.09101183
vt 0.21855488 0.09101183
vt 0.21855488 0.09101183
vt 0.21855488 0.09101183
vt 0.21855488 0.09101183
vt 0.21855488 0.09101183
vt 0.21855488 0.09101183
vt 0.21855488 0.09101183
vt 0.21855488 0.09101183
vt 0.21855488 0.09101183
vt 0.21855488 0.09101183
vt 0.21855488 0.09101183
vt 0.21855488 0.09101183
vt 0.21855488 0.09101183
vt 0.21855488 0.09101183
vt 0.21855488 0.09101183
vt 0.21855488 0.09101183
vt 0.21855488 0.09101183
vt 0.21855488 0.09101183
vt 0.21855488 0.09101183
vt 0.21855488 0.09101183
vt 0.21855488 0.09101183
vt 0.21855488 0.09101183
vt 0.21855488 0.09101183
vt 0.21855488 0.09101183
vt 0.21855488 0.09101183
vt 0.21855488 0.09101183
vt 0.21855488 0.09101183
vt 0.21855488 0.09101183
vt 0.21855488 0.09101183
vt 0.21855488 0.09101183
vt 0.21855488 0.09101183
vt 0.21855488 0.09101183
vt 0.21855488 0.09101183
vt 0.21855488 0.09101183
vt 0.21855488 0.09101183
vt 0.21855488 0.09101183
vt 0.21855488 0.09101183
vt 0.21855488 0.09101183
vt 0.21855488 0.09101183
vt 0.21855488 0.09101183
vt 0.21855488 0.09101183
vt 0.21855488 0.09101183
vt 0.21855488 0.09101183
vt 0.21855488 0.09101183
vt 0.21855488 0.09101183
vt 0.21855488 0.09101183
vt 0.21855488 0.09101183
vt 0.21855488 0.09101183
vt 0.21855488 0.09101183
vt 0.21855488 0.09101183
vt 0.21855488 0.09101183
vt 0.21855488 0.09101183
vt 0.21855488 0.09101183
vt 0.21855488 0.09101183
vt 0.21855488 0.09101183
vt 0.21855488 0.09101183
vt 0.21855488 0.09101183
vt 0.21855488 0.09101183
vt 0.21855488 0.09101183
vt 0.21855488 0.09101183
vt 0.21855488 0.09101183
vt 0.21855488 0.09101183
vt 0.21855488 0.09101183
vt 0.21855488 0.09101183
vt 0.21855488 0.09101183
vt 0.21855488 0.09101183
vt 0.21855488 0.09101183
vt 0.21855488 0.09101183
vt 0.21855488 0.09101183
vt 0.21855488 0.09101183
vt 0.21855488 0.09101183
vt 0.21855488 0.09101183
vt 0.21855488 0.09101183
vt 0.21855488 0.09101183
vt 0.21855488 0.09101183
vt 0.21855488 0.09101183
vt 0.21855488 0.09101183
vt 0.21855488 0.09101183
vt 0.21855488 0.09101183
vt 0.21855488 0.09101183
vt 0.21855488 0.09101183
vt 0.21855488 0.09101183
vt 0.21855488 0.09101183
vt 0.21855488 0.09101183
vt 0.21855488 0.09101183
vt 0.21855488 0.09101183
vt 0.21855488 0.09101183
vt 0.21855488 0.09101183
vt 0.21855488 0.09101183
vt 0.21855488 0.09101183
vt 0.21855488 0.09101183
vt 0.21855488 0.09101183
vt 0.21855488 0.09101183
vt 0.21855488 0.09101183
vt 0.21855488 0.09101183
vt 0.21855488 0.09101183
vt 0.21855488 0.09101183
vt 0.21855488 0.09101183
vt 0.21855488 0.09101183
vt 0.21855488 0.09101183
vt 0.21855488 0.09101183
vt 0.21855488 0.09101183
vt 0.21855488 0.09101183
vt 0.21855488 0.09101183
vt 0.21855488 0.09101183
vt 0.21855488 0.09101183
vt 0.21855488 0.09101183
vt 0.21855488 0.09101183
vt 0.21855488 0.09101183
vt 0.21855488 0.09101183
vt 0.21855488 0.09101183
vt 0.21855488 0.09101183
vt 0.21855488 0.09101183
vt 0.21855488 0.09101183
vt 0.21855488 0.09101183
vt 0.21855488 0.09101183
vt 0.21855488 0.09101183
vn -0.015871048 -0.999874 -0.00034526698
vn -0.015871048 -0.999874 -0.00034526698
vn -0.015871048 -0.999874 -0.00034526698
vn -0.015871048 -0.999874 -0.00034526698
vn -0.999874 0.015871048 -0.00034391563
vn -0.999874 0.015871048 -0.00034391563
vn -0.999874 0.015871048 -0.00034391563
vn -0.999874 0.015871048 -0.00034391563
vn -0.999874 0.015871048 -0.00034391563
vn -0.999874 0.015871048 -0.00034391563
vn 0.999874 0.015871048 -0.00034391563
vn 0.999874 0.015871048 -0.00034391563
vn 0.999874 0.015871048 -0.00034391563
vn 0.999874 0.015871048 -0.00034391563
vn 0.999874 0.015871048 -0.00034391563
vn 0.999874 0.015871048 -0.00034391563
vn 0.999874 0.015871048 -0.00034391563
vn 0.999874 0.015871048 -0.00034391563
vn 0.999874 0.015871048 -0.00034391563
vn 0.999874 0.015871048 -0.00034391563
vn 0.999874 0.015871048 -0.00034391563
vn 0.999874 0.015871048 -0.00034391563
vn -0.015871048 0.015871048 -0.99974805
vn -0.015871048 0.015871048 -0.99974805
vn -0.015871048 0.015871048 -0.99974805
vn -0.015871048 0.015871048 -0.99974805
vn -0.015871048 0.015871048 0.99974805
vn -0.015871048 0.015871048 0.99974805
vn -0.015871048 0.015871048 0.99974805
vn -0.015871048 0.015871048 0.99974805
vn -0.999874 0.015871048 -0.00034391563
vn -0.999874 0.015871048 -0.00034391563
vn -0.999874 0.015871048 -0.00034391563
vn -0.999874 0.015871048 -0.00034391563
vn -0.999874 0.015871048 -0.00034391563
vn -0.999874 0.015871048 -0.00034391563
vn -0.015871048 0.015871048 -0.99974805
vn -0.015871048 0.015871048 -0.99974805
vn -0.015871048 -0.1110971 -0.9936828
vn -0.015871048 -0.1110971 -0.9936828
vn -0.015871048 -0.46025944 -0.8876426
vn -0.015871048 -0.46025944 -0.8876426
vn -0.015871048 -0.8411638 -0.5405475
vn -0.015871048 -0.8411638 -0.5405475
vn -0.015871048 -0.9363899 -0.35060233
vn -0.015871048 -0.9363899 -0.35060233
vn -0.015871048 0.999874 -0.00034526698
vn -0.015871048 0.999874 -0.00034526698
vn -0.015871048 0.999874 -0.00034526698
vn -0.015871048 0.999874 -0.00034526698
vn -0.999874 0.015871048 -0.00034391563
vn -0.999874 0.015871048 -0.00034391563
vn -0.999874 0.015871048 -0.00034391563
vn -0.999874 0.015871048 -0.00034391563
vn -0.015871048 -0.999874 -0.00034526698
vn -0.015871048 -0.999874 -0.00034526698
vn -0.015871048 -0.999874 -0.00034526698
vn -0.015871048 -0.999874 -0.00034526698
vn -0.015871048 0.015871048 -0.99974805
vn -0.015871048 0.015871048 -0.99974805
vn -0.015871048 0.015871048 -0.99974805
vn -0.015871048 0.015871048 -0.99974805
vn 0.999874 0.015871048 -0.00034391563
vn 0.999874 0.015871048 -0.00034391563
vn 0.999874 0.015871048 -0.00034391563
vn 0.999874 0.015871048 -0.00034391563
vn -0.015871048 0.015871048 0.99974805
vn -0.015871048 0.015871048 0.99974805
vn -0.015871048 0.015871048 0.99974805
vn -0.015871048 0.015871048 0.99974805
vn -0.015871048 0.999874 -0.00034526698
vn -0.015871048 0.999874 -0.00034526698
vn -0.015871048 0.999874 -0.00034526698
vn -0.015871048 0.999874 -0.00034526698
vn -0.015871048 -0.9363899 -0.35060233
vn -0.015871048 -0.9363899 -0.35060233
vn -0.015871048 -0.8411638 -0.5405475
vn -0.015871048 -0.8411638 -0.5405475
vn -0.015871048 -0.46025944 -0.8876426
vn -0.015871048 -0.46025944 -0.8876426
vn -0.015871048 -0.1110971 -0.9936828
vn -0.015871048 -0.1110971 -0.9936828
vn -0.015871048 0.015871048 -0.99974805
vn -0.015871048 0.015871048 -0.99974805
vn -0.999874 0.015871048 -0.00034391563
vn -0.999874 0.015871048 -0.00034391563
vn -0.999874 0.015871048 -0.00034391563
vn -0.999874 0.015871048 -0.00034391563
vn 0.999874 0.015871048 -0.00034391563
vn 0.999874 0.015871048 -0.00034391563
vn 0.999874 0.015871048 -0.00034391563
vn 0.999874 0.015871048 -0.00034391563
vn -0.015871048 -0.999874 -0.00034526698
vn -0.015871048 -0.999874 -0.00034526698
vn -0.015871048 -0.999874 -0.00034526698
vn -0.015871048 -0.999874 -0.00034526698
vn -0.015871048 0.999874 -0.00034526698
vn -0.015871048 0.999874 -0.00034526698
vn -0.015871048 0.999874 -0.00034526698
vn -0.015871048 0.999874 -0.00034526698
vn -0.015871048 0.015871048 -0.99974805
vn -0.015871048 0.015871048 -0.99974805
vn -0.015871048 0.015871048 -0.99974805
vn -0.015871048 0.015871048 -0.99974805
vn -0.015871048 0.015871048 -0.99974805
vn -0.015871048 0.015871048 -0.99974805
vn -0.015871048 0.015871048 -0.99974805
vn -0.015871048 0.015871048 -0.99974805
vn 0.999874 0.015871048 -0.00034391563
vn 0.999874 0.015871048 -0.00034391563
vn 0.999874 0.015871048 -0.00034391563
vn 0.999874 0.015871048 -0.00034391563
vn -0.015871048 0.015871048 0.99974805
vn -0.015871048 0.015871048 0.99974805
vn -0.015871048 0.015871048 0.99974805
vn -0.015871048 0.015871048 0.99974805
vn -0.015871048 -0.999874 -0.00034526698
vn -0.015871048 -0.999874 -0.00034526698
vn -0.015871048 -0.999874 -0.00034526698
vn -0.015871048 -0.999874 -0.00034526698
vn 0.999874 0.015871048 -0.00034391563
vn 0.999874 0.015871048 -0.00034391563
vn 0.999874 0.015871048 -0.00034391563
vn 0.999874 0.015871048 -0.00034391563
vn -0.999874 0.015871048 -0.00034391563
vn -0.999874 0.015871048 -0.00034391563
vn -0.999874 0.015871048 -0.00034391563
vn -0.999874 0.015871048 -0.00034391563
vn -0.999874 0.015871048 -0.00034391563
vn -0.999874 0.015871048 -0.00034391563
vn -0.999874 0.015871048 -0.00034391563
vn -0.999874 0.015871048 -0.00034391563
vn -0.015871048 0.015871048 0.99974805
vn -0.015871048 0.015871048 0.99974805
vn -0.015871048 0.015871048 0.99974805
vn -0.015871048 0.015871048 0.99974805
vn -0.015871048 0.999874 -0.00034526698
vn -0.015871048 0.999874 -0.00034526698
vn -0.015871048 0.999874 -0.00034526698
vn -0.015871048 0.999874 -0.00034526698
vn -0.015871048 0.999874 -0.00034526698
vn -0.015871048 0.999874 -0.00034526698
vn -0.015871048 0.015871048 -0.99974805
vn -0.015871048 0.015871048 -0.99974805
vn -0.015871048 0.015871048 -0.99974805
vn -0.015871048 0.015871048 -0.99974805
vn -0.999874 0.015871048 -0.00034391563
vn -0.999874 0.015871048 -0.00034391563
vn -0.999874 0.015871048 -0.00034391563
vn -0.999874 0.015871048 -0.00034391563
vn -0.015871048 -0.999874 -0.00034526698
vn -0.015871048 -0.999874 -0.00034526698
vn -0.015871048 -0.999874 -0.00034526698
vn -0.015871048 -0.999874 -0.00034526698
vn -0.015871048 -0.999874 -0.00034526698
vn -0.015871048 -0.999874 -0.00034526698
vn 0.7141957 0.015871048 -0.6997661
vn 0.7141957 0.015871048 -0.6997661
vn 0.7141957 0.015871048 -0.6997661
vn 0.7141957 0.015871048 -0.6997661
vn -0.7141957 0.015871048 -0.6997661
vn -0.7141957 0.015871048 -0.6997661
vn -0.7141957 0.015871048 -0.6997661
vn -0.7141957 0.015871048 -0.6997661
vn 0.999874 0.015871048 -0.00034391563
vn 0.999874 0.015871048 -0.00034391563
vn 0.999874 0.015871048 -0.00034391563
vn 0.999874 0.015871048 -0.00034391563
g shelf01.001_0
f 3/3/3 2/2/2 1/1/1
f 4/4/4 3/3/3 1/1/1
f 7/7/7 6/6/6 5/5/5
f 8/8/8 7/7/7 5/5/5
f 7/7/7 8/8/8 9/9/9
f 9/9/9 8/8/8 10/10/10
f 13/13/13 12/12/12 11/11/11
f 14/14/14 13/13/13 11/11/11
f 14/14/14 11/11/11 15/15/15
f 11/11/11 16/16/16 15/15/15
f 19/19/19 18/18/18 17/17/17
f 20/20/20 19/19/19 17/17/17
f 20/20/20 21/21/21 19/19/19
f 21/21/21 22/22/22 19/19/19
f 25/25/25 24/24/24 23/23/23
f 26/26/26 25/25/25 23/23/23
f 29/29/29 28/28/28 27/27/27
f 30/30/30 29/29/29 27/27/27
f 33/33/33 32/32/32 31/31/31
f 34/34/34 32/32/32 33/33/33
f 32/32/32 34/34/34 35/35/35
f 34/34/34 36/36/36 35/35/35
f 39/39/39 38/38/38 37/37/37
f 40/40/40 39/39/39 37/37/37
f 39/39/39 40/40/40 41/41/41
f 40/40/40 42/42/42 41/41/41
f 41/41/41 42/42/42 43/43/43
f 42/42/42 44/44/44 43/43/43
f 43/43/43 44/44/44 45/45/45
f 44/44/44 46/46/46 45/45/45
f 49/49/49 48/48/48 47/47/47
f 50/50/50 49/49/49 47/47/47
f 53/53/53 52/52/52 51/51/51
f 54/54/54 53/53/53 51/51/51
f 57/57/57 56/56/56 55/55/55
f 58/58/58 57/57/57 55/55/55
f 61/61/61 60/60/60 59/59/59
f 62/62/62 61/61/61 59/59/59
f 65/65/65 64/64/64 63/63/63
f 66/66/66 65/65/65 63/63/63
f 69/69/69 68/68/68 67/67/67
f 70/70/70 69/69/69 67/67/67
f 73/73/73 72/72/72 71/71/71
f 74/74/74 73/73/73 71/71/71
f 77/77/77 76/76/76 75/75/75
f 78/78/78 77/77/77 75/75/75
f 79/79/79 77/77/77 78/78/78
f 80/80/80 79/79/79 78/78/78
f 81/81/81 79/79/79 80/80/80
f 82/82/82 81/81/81 80/80/80
f 81/81/81 82/82/82 83/83/83
f 82/82/82 84/84/84 83/83/83
f 87/87/87 86/86/86 85/85/85
f 88/88/88 87/87/87 85/85/85
f 91/91/91 90/90/90 89/89/89
f 92/92/92 91/91/91 89/89/89
f 95/95/95 94/94/94 93/93/93
f 96/96/96 95/95/95 93/93/93
f 99/99/99 98/98/98 97/97/97
f 100/100/100 99/99/99 97/97/97
f 103/103/103 102/102/102 101/101/101
f 104/104/104 103/103/103 101/101/101
f 107/107/107 106/106/106 105/105/105
f 108/108/108 107/107/107 105/105/105
f 111/111/111 110/110/110 109/109/109
f 112/112/112 111/111/111 109/109/109
f 115/115/115 114/114/114 113/113/113
f 116/116/116 115/115/115 113/113/113
f 119/119/119 118/118/118 117/117/117
f 120/120/120 119/119/119 117/117/117
f 123/123/123 122/122/122 121/121/121
f 124/124/124 123/123/123 121/121/121
f 127/127/127 126/126/126 125/125/125
f 128/128/128 127/127/127 125/125/125
f 131/131/131 130/130/130 129/129/129
f 132/132/132 131/131/131 129/129/129
f 135/135/135 134/134/134 133/133/133
f 136/136/136 135/135/135 133/133/133
f 139/139/139 138/138/138 137/137/137
f 137/137/137 140/140/140 139/139/139
f 137/137/137 141/141/141 140/140/140
f 141/141/141 142/142/142 140/140/140
f 145/145/145 144/144/144 143/143/143
f 146/146/146 145/145/145 143/143/143
f 149/149/149 148/148/148 147/147/147
f 150/150/150 149/149/149 147/147/147
f 153/153/153 152/152/152 151/151/151
f 151/151/151 154/154/154 153/153/153
f 151/151/151 155/155/155 154/154/154
f 155/155/155 156/156/156 154/154/154
f 159/159/159 158/158/158 157/157/157
f 160/160/160 159/159/159 157/157/157
f 163/163/163 162/162/162 161/161/161
f 164/164/164 163/163/163 161/161/161
f 167/167/167 166/166/166 165/165/165
f 168/168/168 167/167/167 165/165/165
