g shelf07
v -2.5023434 1.564904 2.7567909
v -2.5023434 4.1093817 -1.6625652
v -2.3952072 4.069206 -1.5822133
v -2.3952072 1.6184719 2.663047
v 2.3991246 1.6184719 2.663047
v 2.5062604 1.564904 2.7567909
v 2.5062604 4.1093817 -1.6625652
v 2.3991246 4.069206 -1.5822133
v 2.5062604 3.2522948 -2.1714609
v 2.5062604 4.1093817 -1.6625652
v -2.5023434 4.1093817 -1.6625652
v -2.5023434 3.2522948 -2.1714609
v 2.3991246 3.2924707 -2.024149
v 2.3991246 0.84173656 2.2211115
v -2.3952072 0.84173656 2.2211115
v -2.3952072 3.2924707 -2.024149
v -2.5023434 1.564904 2.7567909
v 2.5062604 1.564904 2.7567909
v 2.5062604 0.69442487 2.2478955
v -2.5023434 0.69442487 2.2478955
v 2.3991246 1.6184719 2.663047
v -2.3952072 1.6184719 2.663047
v -2.3952072 0.84173656 2.2211115
v 2.3991246 0.84173656 2.2211115
v -2.3952072 4.069206 -1.5822133
v -2.3952072 3.2924707 -2.024149
v -2.3952072 0.84173656 2.2211115
v -2.3952072 1.6184719 2.663047
v 2.3991246 1.6184719 2.663047
v 2.3991246 0.84173656 2.2211115
v 2.3991246 3.2924707 -2.024149
v 2.3991246 4.069206 -1.5822133
v -2.5023434 4.1093817 -1.6625652
v -2.5023434 1.564904 2.7567909
v -2.5023434 0.69442487 2.2478955
v -2.5023434 3.2522948 -2.1714609
v -2.5023434 0.69442487 -2.1714609
v -2.5023434 0.69442487 2.2478955
v 2.5062604 0.69442487 2.2478955
v 2.5062604 3.2522948 -2.1714609
v -2.5023434 3.2522948 -2.1714609
v 2.5062604 0.69442487 2.2478955
v 2.5062604 1.564904 2.7567909
v 2.5062604 4.1093817 -1.6625652
v 2.5062604 3.2522948 -2.1714609
v 2.5062604 0.69442487 -2.1714609
v -2.5023434 5.716421 1.4175923
v -2.5023434 7.4975557 -1.6625652
v -2.3952072 7.443987 -1.5822133
v -2.3952072 5.769989 1.3238482
v 2.3991246 5.769989 1.3238482
v 2.5062604 5.716421 1.4175923
v 2.5062604 7.4975557 -1.6625652
v 2.3991246 7.443987 -1.5822133
v 2.5062604 6.6404676 -2.1714609
v 2.5062604 7.4975557 -1.6625652
v -2.5023434 7.4975557 -1.6625652
v -2.5023434 6.6404676 -2.1714609
v 2.3991246 6.6672516 -2.024149
v 2.3991246 4.9932528 0.8819127
v -2.3952072 4.9932528 0.8819127
v -2.3952072 6.6672516 -2.024149
v -2.5023434 5.716421 1.4175923
v 2.5062604 5.716421 1.4175923
v 2.5062604 4.859333 0.9220886
v -2.5023434 4.859333 0.9220886
v 2.3991246 5.769989 1.3238482
v -2.3952072 5.769989 1.3238482
v -2.3952072 4.9932528 0.8819127
v 2.3991246 4.9932528 0.8819127
v -2.3952072 7.443987 -1.5822133
v -2.3952072 6.6672516 -2.024149
v -2.3952072 4.9932528 0.8819127
v -2.3952072 5.769989 1.3238482
v 2.3991246 5.769989 1.3238482
v 2.3991246 4.9932528 0.8819127
v 2.3991246 6.6672516 -2.024149
v 2.3991246 7.443987 -1.5822133
v -2.5023434 7.4975557 -1.6625652
v -2.5023434 5.716421 1.4175923
v -2.5023434 4.859333 0.9220886
v -2.5023434 6.6404676 -2.1714609
v -2.5023434 4.859333 -2.1714609
v -2.5023434 4.859333 0.9220886
v 2.5062604 4.859333 0.9220886
v 2.5062604 6.6404676 -2.1714609
v -2.5023434 6.6404676 -2.1714609
v 2.5062604 4.859333 0.9220886
v 2.5062604 5.716421 1.4175923
v 2.5062604 7.4975557 -1.6625652
v 2.5062604 6.6404676 -2.1714609
v 2.5062604 4.859333 -2.1714609
v -2.1139758 8.100195 -1.876837
v 2.1178927 8.100195 -1.876837
v 2.1178927 10.604497 -1.876837
v 1.6223893 11.1 -1.876837
v -1.6184719 11.1 -1.876837
v -2.1139758 10.604497 -1.876837
v -1.6184719 11.1 -1.876837
v 1.6223893 11.1 -1.876837
v 1.6223893 11.1 -1.5822133
v -1.6184719 11.1 -1.5822133
v 2.1178927 8.100195 -1.5822133
v 2.1178927 10.604497 -1.5822133
v 2.1178927 10.604497 -1.876837
v 2.1178927 8.100195 -1.876837
v 1.6223893 11.1 -1.5822133
v 2.1178927 10.604497 -1.5822133
v 2.1178927 8.100195 -1.5822133
v -2.1139758 8.100195 -1.5822133
v -1.6184719 11.1 -1.5822133
v -2.1139758 10.604497 -1.5822133
v -2.1139758 10.604497 -1.876837
v -1.6184719 11.1 -1.876837
v -1.6184719 11.1 -1.5822133
v -2.1139758 10.604497 -1.5822133
v 2.1178927 10.604497 -1.5822133
v 1.6223893 11.1 -1.5822133
v 1.6223893 11.1 -1.876837
v 2.1178927 10.604497 -1.876837
v -2.1139758 8.100195 -1.876837
v -2.1139758 10.604497 -1.876837
v -2.1139758 10.604497 -1.5822133
v -2.1139758 8.100195 -1.5822133
v 2.6000044 -0.0019586086 -2.2652047
v 2.6000044 -0.0019586086 -1.5822133
v 2.6000044 8.100195 -1.5822133
v 2.6000044 8.100195 -2.2652047
v -2.5960872 -0.0019586086 -1.5822133
v -2.5960872 -0.0019586086 -2.2652047
v -2.5960872 8.100195 -2.2652047
v -2.5960872 8.100195 -1.5822133
v 2.6000044 8.100195 -1.5822133
v -2.5960872 8.100195 -1.5822133
v -2.5960872 8.100195 -2.2652047
v 2.6000044 8.100195 -2.2652047
v -2.5960872 -0.0019586086 -2.2652047
v 2.6000044 -0.0019586086 -2.2652047
v 2.6000044 8.100195 -2.2652047
v -2.5960872 8.100195 -2.2652047
v 2.6000044 -0.0019586086 -1.5822133
v -2.5960872 -0.0019586086 -1.5822133
v -2.5960872 8.100195 -1.5822133
v 2.6000044 8.100195 -1.5822133
v -1.4175923 8.220722 -1.5286454
v -1.4175923 11.059824 -1.5286454
v 1.4215094 11.059824 -1.5286454
v 1.4215094 8.220722 -1.5286454
vt 0.21960783 0.09264705
vt 0.21960783 0.09264705
vt 0.21960783 0.09264705
vt 0.21960783 0.09264705
vt 0.21960783 0.09264705
vt 0.21960783 0.09264705
vt 0.21960783 0.09264705
vt 0.21960783 0.09264705
vt 0.21960783 0.09264705
vt 0.21960783 0.09264705
vt 0.21960783 0.09264705
vt 0.21960783 0.09264705
vt 0.21960783 0.09264705
vt 0.21960783 0.09264705
vt 0.21960783 0.09264705
vt 0.21960783 0.09264705
vt 0.21960783 0.09264705
vt 0.21960783 0.09264705
vt 0.21960783 0.09264705
vt 0.21960783 0.09264705
vt 0.21960783 0.09264705
vt 0.21960783 0.09264705
vt 0.21960783 0.09264705
vt 0.21960783 0.09264705
vt 0.21960783 0.09264705
vt 0.21960783 0.09264705
vt 0.21960783 0.09264705
vt 0.21960783 0.09264705
vt 0.21960783 0.09264705
vt 0.21960783 0.09264705
vt 0.21960783 0.09264705
vt 0.21960783 0.09264705
vt 0.21960783 0.09264705
vt 0.21960783 0.09264705
vt 0.21960783 0.09264705
vt 0.21960783 0.09264705
vt 0.21960783 0.09264705
vt 0.21960783 0.09264705
vt 0.21960783 0.09264705
vt 0.21960783 0.09264705
vt 0.21960783 0.09264705
vt 0.21960783 0.09264705
vt 0.21960783 0.09264705
vt 0.21960783 0.09264705
vt 0.21960783 0.09264705
vt 0.21960783 0.09264705
vt 0.21960783 0.09264705
vt 0.21960783 0.09264705
vt 0.21960783 0.09264705
vt 0.21960783 0.09264705
vt 0.21960783 0.09264705
vt 0.21960783 0.09264705
vt 0.21960783 0.09264705
vt 0.21960783 0.09264705
vt 0.21960783 0.09264705
vt 0.21960783 0.09264705
vt 0.21960783 0.09264705
vt 0.21960783 0.09264705
vt 0.21960783 0.09264705
vt 0.21960783 0.09264705
vt 0.21960783 0.09264705
vt 0.21960783 0.09264705
vt 0.21960783 0.09264705
vt 0.21960783 0.09264705
vt 0.21960783 0.09264705
vt 0.21960783 0.09264705
vt 0.21960783 0.09264705
vt 0.21960783 0.09264705
vt 0.21960783 0.09264705
vt 0.21960783 0.09264705
vt 0.21960783 0.09264705
vt 0.21960783 0.09264705
vt 0.21960783 0.09264705
vt 0.21960783 0.09264705
vt 0.21960783 0.09264705
vt 0.21960783 0.09264705
vt 0.21960783 0.09264705
vt 0.21960783 0.09264705
vt 0.21960783 0.09264705
vt 0.21960783 0.09264705
vt 0.21960783 0.09264705
vt 0.21960783 0.09264705
vt 0.21960783 0.09264705
vt 0.21960783 0.09264705
vt 0.21960783 0.09264705
vt 0.21960783 0.09264705
vt 0.21960783 0.09264705
vt 0.21960783 0.09264705
vt 0.21960783 0.09264705
vt 0.21960783 0.09264705
vt 0.21960783 0.09264705
vt 0.21960783 0.09264705
vt 0.21960783 0.09264705
vt 0.21960783 0.09264705
vt 0.21960783 0.09264705
vt 0.21960783 0.09264705
vt 0.21960783 0.09264705
vt 0.21960783 0.09264705
vt 0.21960783 0.09264705
vt 0.21960783 0.09264705
vt 0.21960783 0.09264705
vt 0.21960783 0.09264705
vt 0.21960783 0.09264705
vt 0.21960783 0.09264705
vt 0.21960783 0.09264705
vt 0.21960783 0.09264705
vt 0.21960783 0.09264705
vt 0.21960783 0.09264705
vt 0.21960783 0.09264705
vt 0.21960783 0.09264705
vt 0.21960783 0.09264705
vt 0.21960783 0.09264705
vt 0.21960783 0.09264705
vt 0.21960783 0.09264705
vt 0.21960783 0.09264705
vt 0.21960783 0.09264705
vt 0.21960783 0.09264705
vt 0.21960783 0.09264705
vt 0.21960783 0.09264705
vt 0.21960783 0.09264705
vt 0.21960783 0.09264705
vt 0.21960783 0.09264705
vt 0.21960783 0.09264705
vt 0.21960783 0.09264705
vt 0.21960783 0.09264705
vt 0.21960783 0.09264705
vt 0.21960783 0.09264705
vt 0.21960783 0.09264705
vt 0.21960783 0.09264705
vt 0.21960783 0.09264705
vt 0.21960783 0.09264705
vt 0.21960783 0.09264705
vt 0.21960783 0.09264705
vt 0.21960783 0.09264705
vt 0.21960783 0.09264705
vt 0.21960783 0.09264705
vt 0.21960783 0.09264705
vt 0.21960783 0.09264705
vt 0.21960783 0.09264705
vt 0.21960783 0.09264705
vt 0.21960783 0.09264705
vt 0.21960783 0.09264705
vt 0.21960783 0.09264705
vt 0.21960783 0.09264705
vt 0 0.75147057
vt 0 0.87499994
vt 0.123529404 0.87499994
vt 0.123529404 0.75147057
vn -0.015871048 0.87290585 0.4876305
vn -0.015871048 0.87290585 0.4876305
vn -0.015871048 0.87290585 0.4876305
vn -0.015871048 0.87290585 0.4876305
vn -0.015871048 0.87290585 0.4876305
vn -0.015871048 0.87290585 0.4876305
vn -0.015871048 0.87290585 0.4876305
vn -0.015871048 0.87290585 0.4876305
vn -0.015871048 0.49200153 -0.87044966
vn -0.015871048 0.49200153 -0.87044966
vn -0.015871048 0.49200153 -0.87044966
vn -0.015871048 0.49200153 -0.87044966
vn -0.015871048 0.87290585 0.4876305
vn -0.015871048 0.87290585 0.4876305
vn -0.015871048 0.87290585 0.4876305
vn -0.015871048 0.87290585 0.4876305
vn -0.015871048 -0.49200147 0.8704497
vn -0.015871048 -0.49200147 0.8704497
vn -0.015871048 -0.49200147 0.8704497
vn -0.015871048 -0.49200147 0.8704497
vn -0.015871048 0.49200153 -0.87044966
vn -0.015871048 0.49200153 -0.87044966
vn -0.015871048 0.49200153 -0.87044966
vn -0.015871048 0.49200153 -0.87044966
vn 0.999874 0.015871048 -0.00034391563
vn 0.999874 0.015871048 -0.00034391563
vn 0.999874 0.015871048 -0.00034391563
vn 0.999874 0.015871048 -0.00034391563
vn -0.999874 0.015871048 -0.00034391563
vn -0.999874 0.015871048 -0.00034391563
vn -0.999874 0.015871048 -0.00034391563
vn -0.999874 0.015871048 -0.00034391563
vn -0.999874 0.015871048 -0.00034391563
vn -0.999874 0.015871048 -0.00034391563
vn -0.999874 0.015871048 -0.00034391563
vn -0.999874 0.015871048 -0.00034391563
vn -0.999874 0.015871048 -0.00034391563
vn -0.015871048 -0.87290585 -0.4876305
vn -0.015871048 -0.87290585 -0.4876305
vn -0.015871048 -0.87290585 -0.4876305
vn -0.015871048 -0.87290585 -0.4876305
vn 0.999874 0.015871048 -0.00034391563
vn 0.999874 0.015871048 -0.00034391563
vn 0.999874 0.015871048 -0.00034391563
vn 0.999874 0.015871048 -0.00034391563
vn 0.999874 0.015871048 -0.00034391563
vn -0.015871048 0.87290585 0.4876305
vn -0.015871048 0.87290585 0.4876305
vn -0.015871048 0.87290585 0.4876305
vn -0.015871048 0.87290585 0.4876305
vn -0.015871048 0.87290585 0.4876305
vn -0.015871048 0.87290585 0.4876305
vn -0.015871048 0.87290585 0.4876305
vn -0.015871048 0.87290585 0.4876305
vn -0.015871048 0.49200153 -0.87044966
vn -0.015871048 0.49200153 -0.87044966
vn -0.015871048 0.49200153 -0.87044966
vn -0.015871048 0.49200153 -0.87044966
vn -0.015871048 0.87290585 0.4876305
vn -0.015871048 0.87290585 0.4876305
vn -0.015871048 0.87290585 0.4876305
vn -0.015871048 0.87290585 0.4876305
vn -0.015871048 -0.49200147 0.8704497
vn -0.015871048 -0.49200147 0.8704497
vn -0.015871048 -0.49200147 0.8704497
vn -0.015871048 -0.49200147 0.8704497
vn -0.015871048 0.49200153 -0.87044966
vn -0.015871048 0.49200153 -0.87044966
vn -0.015871048 0.49200153 -0.87044966
vn -0.015871048 0.49200153 -0.87044966
vn 0.999874 0.015871048 -0.00034391563
vn 0.999874 0.015871048 -0.00034391563
vn 0.999874 0.015871048 -0.00034391563
vn 0.999874 0.015871048 -0.00034391563
vn -0.999874 0.015871048 -0.00034391563
vn -0.999874 0.015871048 -0.00034391563
vn -0.999874 0.015871048 -0.00034391563
vn -0.999874 0.015871048 -0.00034391563
vn -0.999874 0.015871048 -0.00034391563
vn -0.999874 0.015871048 -0.00034391563
vn -0.999874 0.015871048 -0.00034391563
vn -0.999874 0.015871048 -0.00034391563
vn -0.999874 0.015871048 -0.00034391563
vn -0.015871048 -0.87290585 -0.4876305
vn -0.015871048 -0.87290585 -0.4876305
vn -0.015871048 -0.87290585 -0.4876305
vn -0.015871048 -0.87290585 -0.4876305
vn 0.999874 0.015871048 -0.00034391563
vn 0.999874 0.015871048 -0.00034391563
vn 0.999874 0.015871048 -0.00034391563
vn 0.999874 0.015871048 -0.00034391563
vn 0.999874 0.015871048 -0.00034391563
vn -0.015871048 0.015871048 -0.99974805
vn -0.015871048 0.015871048 -0.99974805
vn -0.015871048 0.015871048 -0.99974805
vn -0.015871048 0.015871048 -0.99974805
vn -0.015871048 0.015871048 -0.99974805
vn -0.015871048 0.015871048 -0.99974805
vn -0.015871048 0.999874 -0.00034526698
vn -0.015871048 0.999874 -0.00034526698
vn -0.015871048 0.999874 -0.00034526698
vn -0.015871048 0.999874 -0.00034526698
vn 0.999874 0.015871048 -0.00034391563
vn 0.999874 0.015871048 -0.00034391563
vn 0.999874 0.015871048 -0.00034391563
vn 0.999874 0.015871048 -0.00034391563
vn -0.015871048 0.015871048 0.99974805
vn -0.015871048 0.015871048 0.99974805
vn -0.015871048 0.015871048 0.99974805
vn -0.015871048 0.015871048 0.99974805
vn -0.015871048 0.015871048 0.99974805
vn -0.015871048 0.015871048 0.99974805
vn -0.70710677 0.70710677 -0
vn -0.70710677 0.70710677 -0
vn -0.70710677 0.70710677 -0
vn -0.70710677 0.70710677 -0
vn 0.70710677 0.70710677 -0
vn 0.70710677 0.70710677 -0
vn 0.70710677 0.70710677 -0
vn 0.70710677 0.70710677 -0
vn -0.999874 0.015871048 -0.00034391563
vn -0.999874 0.015871048 -0.00034391563
vn -0.999874 0.015871048 -0.00034391563
vn -0.999874 0.015871048 -0.00034391563
vn 0.999874 0.015871048 -0.00034391563
vn 0.999874 0.015871048 -0.00034391563
vn 0.999874 0.015871048 -0.00034391563
vn 0.999874 0.015871048 -0.00034391563
vn -0.999874 0.015871048 -0.00034391563
vn -0.999874 0.015871048 -0.00034391563
vn -0.999874 0.015871048 -0.00034391563
vn -0.999874 0.015871048 -0.00034391563
vn -0.015871048 0.999874 -0.00034526698
vn -0.015871048 0.999874 -0.00034526698
vn -0.015871048 0.999874 -0.00034526698
vn -0.015871048 0.999874 -0.00034526698
vn -0.015871048 0.015871048 -0.99974805
vn -0.015871048 0.015871048 -0.99974805
vn -0.015871048 0.015871048 -0.99974805
vn -0.015871048 0.015871048 -0.99974805
vn -0.015871048 0.015871048 0.99974805
vn -0.015871048 0.015871048 0.99974805
vn -0.015871048 0.015871048 0.99974805
vn -0.015871048 0.015871048 0.99974805
vn -0.015871048 0.015871048 0.99974805
vn -0.015871048 0.015871048 0.99974805
vn -0.015871048 0.015871048 0.99974805
vn -0.015871048 0.015871048 0.99974805
g shelf07_0
f 3/3/3 2/2/2 1/1/1
f 4/4/4 3/3/3 1/1/1
f 5/5/5 4/4/4 1/1/1
f 6/6/6 5/5/5 1/1/1
f 5/5/5 6/6/6 7/7/7
f 8/8/8 5/5/5 7/7/7
f 11/11/11 10/10/10 9/9/9
f 12/12/12 11/11/11 9/9/9
f 15/15/15 14/14/14 13/13/13
f 16/16/16 15/15/15 13/13/13
f 19/19/19 18/18/18 17/17/17
f 20/20/20 19/19/19 17/17/17
f 23/23/23 22/22/22 21/21/21
f 24/24/24 23/23/23 21/21/21
f 27/27/27 26/26/26 25/25/25
f 28/28/28 27/27/27 25/25/25
f 31/31/31 30/30/30 29/29/29
f 32/32/32 31/31/31 29/29/29
f 35/35/35 34/34/34 33/33/33
f 36/36/36 35/35/35 33/33/33
f 37/37/37 35/35/35 36/36/36
f 40/40/40 39/39/39 38/38/38
f 41/41/41 40/40/40 38/38/38
f 44/44/44 43/43/43 42/42/42
f 45/45/45 44/44/44 42/42/42
f 42/42/42 46/46/46 45/45/45
f 49/49/49 48/48/48 47/47/47
f 50/50/50 49/49/49 47/47/47
f 51/51/51 50/50/50 47/47/47
f 52/52/52 51/51/51 47/47/47
f 51/51/51 52/52/52 53/53/53
f 54/54/54 51/51/51 53/53/53
f 57/57/57 56/56/56 55/55/55
f 58/58/58 57/57/57 55/55/55
f 61/61/61 60/60/60 59/59/59
f 62/62/62 61/61/61 59/59/59
f 65/65/65 64/64/64 63/63/63
f 66/66/66 65/65/65 63/63/63
f 69/69/69 68/68/68 67/67/67
f 70/70/70 69/69/69 67/67/67
f 73/73/73 72/72/72 71/71/71
f 74/74/74 73/73/73 71/71/71
f 77/77/77 76/76/76 75/75/75
f 78/78/78 77/77/77 75/75/75
f 81/81/81 80/80/80 79/79/79
f 82/82/82 81/81/81 79/79/79
f 83/83/83 81/81/81 82/82/82
f 86/86/86 85/85/85 84/84/84
f 87/87/87 86/86/86 84/84/84
f 90/90/90 89/89/89 88/88/88
f 91/91/91 90/90/90 88/88/88
f 88/88/88 92/92/92 91/91/91
f 95/95/95 94/94/94 93/93/93
f 93/93/93 96/96/96 95/95/95
f 93/93/93 97/97/97 96/96/96
f 93/93/93 98/98/98 97/97/97
f 101/101/101 100/100/100 99/99/99
f 102/102/102 101/101/101 99/99/99
f 105/105/105 104/104/104 103/103/103
f 106/106/106 105/105/105 103/103/103
f 109/109/109 108/108/108 107/107/107
f 107/107/107 110/110/110 109/109/109
f 107/107/107 111/111/111 110/110/110
f 111/111/111 112/112/112 110/110/110
f 115/115/115 114/114/114 113/113/113
f 116/116/116 115/115/115 113/113/113
f 119/119/119 118/118/118 117/117/117
f 120/120/120 119/119/119 117/117/117
f 123/123/123 122/122/122 121/121/121
f 124/124/124 123/123/123 121/121/121
f 127/127/127 126/126/126 125/125/125
f 128/128/128 127/127/127 125/125/125
f 131/131/131 130/130/130 129/129/129
f 132/132/132 131/131/131 129/129/129
f 135/135/135 134/134/134 133/133/133
f 136/136/136 135/135/135 133/133/133
f 139/139/139 138/138/138 137/137/137
f 140/140/140 139/139/139 137/137/137
f 143/143/143 142/142/142 141/141/141
f 144/144/144 143/143/143 141/141/141
g shelf07_1
f 147/147/147 146/146/146 145/145/145
f 148/148/148 147/147/147 145/145/145
