g shelves03.001
v -1.8655411 -0.52935195 6.4072742
v -1.8655411 -0.52935195 4.7639284
v -2.3319263 -0.52935183 4.7639284
v -2.3319263 -0.52935183 6.4072742
v -1.8655409 0.264086 6.4072742
v -1.8655411 -0.52935195 6.4072742
v -2.3319263 -0.52935183 6.4072742
v -2.331926 0.264086 6.4072742
v -2.331926 0.264086 6.4072742
v -2.3319263 -0.52935183 6.4072742
v -2.3319263 -0.52935183 4.7639284
v -2.331926 0.264086 4.7639284
v -0.67609024 0.26408535 4.7639284
v -0.6760905 -0.5293526 4.7639284
v -0.6760905 -0.5293526 6.4072742
v -0.67609024 0.26408535 6.4072742
v -0.6760905 -0.5293526 6.4072742
v -0.6760905 -0.5293526 4.7639284
v -0.93277055 -0.5293523 4.7639284
v -0.93277055 -0.5293523 6.4072742
v -0.9327703 0.26408553 6.4072742
v -0.93277055 -0.5293523 6.4072742
v -1.3991559 -0.5293522 6.4072742
v -1.3991556 0.26408577 6.4072742
v -1.3991556 0.26408577 6.4072742
v -1.3991559 -0.5293522 6.4072742
v -1.8655411 -0.52935195 6.4072742
v -1.8655409 0.264086 6.4072742
v -0.93277055 -0.5293523 6.4072742
v -0.93277055 -0.5293523 4.7639284
v -1.3991559 -0.5293522 4.7639284
v -1.3991559 -0.5293522 6.4072742
v -1.3991559 -0.5293522 6.4072742
v -1.3991559 -0.5293522 4.7639284
v -1.8655411 -0.52935195 4.7639284
v -1.8655411 -0.52935195 6.4072742
v -0.67609024 0.26408535 6.4072742
v -0.6760905 -0.5293526 6.4072742
v -0.93277055 -0.5293523 6.4072742
v -0.9327703 0.26408553 6.4072742
v -0.29954487 -0.529352 6.388292
v 0.12833136 -0.5293519 4.904062
v -0.24821389 -0.5293519 4.763928
v -0.67609024 -0.5293519 6.2481575
v -0.29954487 0.26408583 6.388292
v -0.29954487 -0.529352 6.388292
v -0.67609024 -0.5293519 6.2481575
v -0.6760901 0.26408607 6.2481575
v -0.6760901 0.26408607 6.2481575
v -0.67609024 -0.5293519 6.2481575
v -0.24821389 -0.5293519 4.763928
v -0.24821377 0.26408607 4.763928
v -0.29954487 0.26408583 6.388292
v 0.12833136 0.26408583 4.904062
v 0.12833136 -0.5293519 4.904062
v -0.29954487 -0.529352 6.388292
v 0.1268506 -0.52935207 6.2750916
v 1.0365593 -0.52935195 5.0267134
v 0.73065114 -0.52935195 4.766245
v -0.17905748 -0.52935195 6.0146217
v 0.1268506 0.26408577 6.275091
v 0.1268506 -0.52935207 6.2750916
v -0.17905748 -0.52935195 6.0146217
v -0.17905736 0.264086 6.0146217
v -0.17905736 0.264086 6.0146217
v -0.17905748 -0.52935195 6.0146217
v 0.73065114 -0.52935195 4.766245
v 0.73065126 0.264086 4.766245
v 0.1268506 0.26408577 6.275091
v 1.0365593 0.26408577 5.0267134
v 1.0365593 -0.52935195 5.0267134
v 0.1268506 -0.52935207 6.2750916
v -2.4847426 -0.52935195 3.97959
v -2.4847426 -0.52935195 2.3362446
v -2.951128 -0.52935183 2.3362446
v -2.951128 -0.52935183 3.97959
v -2.4847426 0.264086 3.97959
v -2.4847426 -0.52935195 3.97959
v -2.951128 -0.52935183 3.97959
v -2.9511278 0.264086 3.97959
v -2.9511278 0.264086 3.97959
v -2.951128 -0.52935183 3.97959
v -2.951128 -0.52935183 2.3362446
v -2.9511278 0.264086 2.3362446
v -1.1153176 0.2640853 2.3362446
v -1.1153178 -0.52935266 2.3362446
v -1.1153178 -0.52935266 3.97959
v -1.1153176 0.2640853 3.97959
v -1.1153178 -0.52935266 3.97959
v -1.1153178 -0.52935266 2.3362446
v -1.5519722 -0.5293523 2.3362446
v -1.5519722 -0.5293523 3.97959
v -1.5519719 0.26408553 3.97959
v -1.5519722 -0.5293523 3.97959
v -2.0183575 -0.5293522 3.97959
v -2.0183573 0.26408577 3.97959
v -2.0183573 0.26408577 3.97959
v -2.0183575 -0.5293522 3.97959
v -2.4847426 -0.52935195 3.97959
v -2.4847426 0.264086 3.97959
v -1.5519722 -0.5293523 3.97959
v -1.5519722 -0.5293523 2.3362446
v -2.0183575 -0.5293522 2.3362446
v -2.0183575 -0.5293522 3.97959
v -2.0183575 -0.5293522 3.97959
v -2.0183575 -0.5293522 2.3362446
v -2.4847426 -0.52935195 2.3362446
v -2.4847426 -0.52935195 3.97959
v -1.1153176 0.2640853 3.97959
v -1.1153178 -0.52935266 3.97959
v -1.5519722 -0.5293523 3.97959
v -1.5519719 0.26408553 3.97959
v -0.73506165 -0.52935207 3.9568977
v -0.3071854 -0.52935195 2.4726675
v -0.68744123 -0.52935195 2.3362436
v -1.1153176 -0.52935195 3.8204737
v -0.73506165 0.26408577 3.9568977
v -0.73506165 -0.52935207 3.9568977
v -1.1153176 -0.52935195 3.8204737
v -1.1153175 0.264086 3.8204737
v -1.1153175 0.264086 3.8204737
v -1.1153176 -0.52935195 3.8204737
v -0.68744123 -0.52935195 2.3362436
v -0.6874411 0.264086 2.3362436
v -0.73506165 0.26408577 3.9568977
v -0.3071854 0.26408577 2.4726675
v -0.3071854 -0.52935195 2.4726675
v -0.73506165 -0.52935207 3.9568977
v 0.11308515 -0.52935195 3.979591
v 0.11308515 -0.52935195 2.336245
v -0.3533001 -0.52935183 2.336245
v -0.3533001 -0.52935183 3.979591
v 0.11308539 0.264086 3.979591
v 0.11308515 -0.52935195 3.979591
v -0.3533001 -0.52935183 3.979591
v -0.35329986 0.264086 3.979591
v -0.35329986 0.264086 3.979591
v -0.3533001 -0.52935183 3.979591
v -0.3533001 -0.52935183 2.336245
v -0.35329986 0.264086 2.336245
v 1.302536 0.26408535 2.336245
v 1.3025358 -0.5293526 2.336245
v 1.3025358 -0.5293526 3.979591
v 1.302536 0.26408535 3.979591
v 1.3025358 -0.5293526 3.979591
v 1.3025358 -0.5293526 2.336245
v 1.0458558 -0.5293523 2.336245
v 1.0458558 -0.5293523 3.979591
v 1.045856 0.26408553 3.979591
v 1.0458558 -0.5293523 3.979591
v 0.5794704 -0.5293522 3.979591
v 0.57947063 0.26408577 3.979591
v 0.57947063 0.26408577 3.979591
v 0.5794704 -0.5293522 3.979591
v 0.11308515 -0.52935195 3.979591
v 0.11308539 0.264086 3.979591
v 1.0458558 -0.5293523 3.979591
v 1.0458558 -0.5293523 2.336245
v 0.5794704 -0.5293522 2.336245
v 0.5794704 -0.5293522 3.979591
v 0.5794704 -0.5293522 3.979591
v 0.5794704 -0.5293522 2.336245
v 0.11308515 -0.52935195 2.336245
v 0.11308515 -0.52935195 3.979591
v 1.302536 0.26408535 3.979591
v 1.3025358 -0.5293526 3.979591
v 1.0458558 -0.5293523 3.979591
v 1.045856 0.26408553 3.979591
v 1.6790814 -0.529352 3.9606085
v 2.1069577 -0.5293519 2.4763784
v 1.7304125 -0.5293519 2.3362446
v 1.302536 -0.5293519 3.8204741
v 1.6790814 0.26408583 3.9606085
v 1.6790814 -0.529352 3.9606085
v 1.302536 -0.5293519 3.8204741
v 1.3025361 0.26408607 3.8204741
v 1.3025361 0.26408607 3.8204741
v 1.302536 -0.5293519 3.8204741
v 1.7304125 -0.5293519 2.3362446
v 1.7304125 0.26408607 2.3362446
v 1.6790814 0.26408583 3.9606085
v 2.1069577 0.26408583 2.4763784
v 2.1069577 -0.5293519 2.4763784
v 1.6790814 -0.529352 3.9606085
v 2.1054769 -0.52935207 3.8474083
v 3.0151856 -0.52935195 2.59903
v 2.7092774 -0.52935195 2.3385615
v 1.7995687 -0.52935195 3.5869384
v 2.1054769 0.26408577 3.8474078
v 2.1054769 -0.52935207 3.8474083
v 1.7995687 -0.52935195 3.5869384
v 1.7995689 0.264086 3.5869384
v 1.7995689 0.264086 3.5869384
v 1.7995687 -0.52935195 3.5869384
v 2.7092774 -0.52935195 2.3385615
v 2.7092776 0.264086 2.3385615
v 2.1054769 0.26408577 3.8474078
v 3.0151856 0.26408577 2.59903
v 3.0151856 -0.52935195 2.59903
v 2.1054769 -0.52935207 3.8474083
v -0.8603386 -0.52935207 1.5700696
v -0.39395332 -0.52935195 1.5700696
v -0.39395332 -0.52935195 -0.073275805
v -0.8603386 -0.52935207 -0.073275805
v -0.8603387 0.26408592 1.5700696
v -0.39395356 0.26408586 1.5700696
v -0.39395332 -0.52935195 1.5700696
v -0.8603386 -0.52935207 1.5700696
v -2.0462387 0.2640854 -0.073275805
v -2.0462387 0.2640854 1.5700696
v -2.0462384 -0.52935255 1.5700696
v -2.0462384 -0.52935255 -0.073275805
v -2.0462384 -0.52935255 1.5700696
v -1.6095841 -0.5293522 1.5700696
v -1.6095841 -0.5293522 -0.073275805
v -2.0462384 -0.52935255 -0.073275805
v -1.6095842 0.2640856 1.5700696
v -1.1431988 0.26408574 1.5700696
v -1.1431987 -0.5293522 1.5700696
v -1.6095841 -0.5293522 1.5700696
v -1.1431988 0.26408574 1.5700696
v -0.8603387 0.26408592 1.5700696
v -0.8603386 -0.52935207 1.5700696
v -1.1431987 -0.5293522 1.5700696
v -1.6095841 -0.5293522 1.5700696
v -1.1431987 -0.5293522 1.5700696
v -1.1431987 -0.5293522 -0.073275805
v -1.6095841 -0.5293522 -0.073275805
v -1.1431987 -0.5293522 1.5700696
v -0.8603386 -0.52935207 1.5700696
v -0.8603386 -0.52935207 -0.073275805
v -1.1431987 -0.5293522 -0.073275805
v -2.0462387 0.2640854 1.5700696
v -1.6095842 0.2640856 1.5700696
v -1.6095841 -0.5293522 1.5700696
v -2.0462384 -0.52935255 1.5700696
v 0.85156274 0.26408535 -0.073275566
v 0.8515625 -0.5293526 -0.073275566
v 0.8515625 -0.5293526 1.57007
v 0.85156274 0.26408535 1.57007
v 0.8515625 -0.5293526 1.57007
v 0.8515625 -0.5293526 -0.073275566
v 0.53881377 -0.5293523 -0.073275566
v 0.53881377 -0.5293523 1.57007
v 0.538814 0.26408553 1.57007
v 0.53881377 -0.5293523 1.57007
v 0.072428465 -0.5293522 1.57007
v 0.0724287 0.26408577 1.57007
v 0.0724287 0.26408577 1.57007
v 0.072428465 -0.5293522 1.57007
v -0.39395678 -0.52935195 1.57007
v -0.39395654 0.264086 1.57007
v 0.53881377 -0.5293523 1.57007
v 0.53881377 -0.5293523 -0.073275566
v 0.072428465 -0.5293522 -0.073275566
v 0.072428465 -0.5293522 1.57007
v 0.072428465 -0.5293522 1.57007
v 0.072428465 -0.5293522 -0.073275566
v -0.39395678 -0.52935195 -0.073275566
v -0.39395678 -0.52935195 1.57007
v 0.85156274 0.26408535 1.57007
v 0.8515625 -0.5293526 1.57007
v 0.53881377 -0.5293523 1.57007
v 0.538814 0.26408553 1.57007
v 1.2281082 -0.529352 1.5510881
v 1.6559844 -0.5293519 0.066857815
v 1.2794391 -0.5293519 -0.07327604
v 0.85156274 -0.5293519 1.4109533
v 1.2281082 0.26408583 1.5510881
v 1.2281082 -0.529352 1.5510881
v 0.85156274 -0.5293519 1.4109533
v 0.85156286 0.26408607 1.4109533
v 0.85156286 0.26408607 1.4109533
v 0.85156274 -0.5293519 1.4109533
v 1.2794391 -0.5293519 -0.07327604
v 1.2794392 0.26408607 -0.07327604
v 1.2281082 0.26408583 1.5510881
v 1.6559844 0.26408583 0.066857815
v 1.6559844 -0.5293519 0.066857815
v 1.2281082 -0.529352 1.5510881
vt 0.093948364 0.5327119
vt 0.093948364 0.5327119
vt 0.09394835 0.5327119
vt 0.09394835 0.5327119
vt 0.093948364 0.5327119
vt 0.093948364 0.5327119
vt 0.09394835 0.5327119
vt 0.09394835 0.5327119
vt 0.09394835 0.5327119
vt 0.09394835 0.5327119
vt 0.09394835 0.5327119
vt 0.09394835 0.5327119
vt 0.40644836 0.5952119
vt 0.40644836 0.5952119
vt 0.40644836 0.5952119
vt 0.40644836 0.5952119
vt 0.40644836 0.5952119
vt 0.40644836 0.5952119
vt 0.40644836 0.5952119
vt 0.40644836 0.595212
vt 0.34394833 0.90771186
vt 0.34394836 0.907712
vt 0.34394836 0.907712
vt 0.34394836 0.9077119
vt 0.093948364 0.7827119
vt 0.093948364 0.782712
vt 0.093948364 0.7827119
vt 0.093948364 0.7827119
vt 0.34394836 0.907712
vt 0.34394836 0.9077119
vt 0.34394836 0.9077119
vt 0.34394836 0.907712
vt 0.093948364 0.782712
vt 0.093948364 0.7827119
vt 0.093948364 0.7827119
vt 0.093948364 0.7827119
vt 0.40644836 0.5952119
vt 0.40644836 0.5952119
vt 0.40644836 0.595212
vt 0.40644833 0.59521186
vt 0.21894836 0.7202119
vt 0.21894836 0.7202119
vt 0.21894835 0.7202119
vt 0.21894835 0.7202119
vt 0.21894836 0.7202119
vt 0.21894836 0.7202119
vt 0.21894835 0.7202119
vt 0.21894835 0.7202119
vt 0.21894835 0.7202119
vt 0.21894835 0.7202119
vt 0.21894835 0.7202119
vt 0.21894835 0.7202119
vt 0.21894836 0.7202119
vt 0.21894836 0.7202119
vt 0.21894836 0.7202119
vt 0.21894836 0.7202119
vt 0.03125 0.96875
vt 0.03125 0.96875
vt 0.03125 0.96875
vt 0.03125 0.96875
vt 0.03125 0.96875
vt 0.03125 0.96875
vt 0.03125 0.96875
vt 0.03125 0.96875
vt 0.03125 0.96875
vt 0.03125 0.96875
vt 0.03125 0.96875
vt 0.03125 0.96875
vt 0.03125 0.96875
vt 0.03125 0.96875
vt 0.03125 0.96875
vt 0.03125 0.96875
vt 0.21894836 0.5952119
vt 0.21894836 0.5952119
vt 0.21894835 0.5952119
vt 0.21894835 0.5952119
vt 0.21894836 0.5952119
vt 0.21894836 0.5952119
vt 0.21894835 0.5952119
vt 0.21894835 0.5952119
vt 0.21894835 0.5952119
vt 0.21894835 0.5952119
vt 0.21894835 0.5952119
vt 0.21894835 0.5952119
vt 0.093948364 0.782712
vt 0.093948364 0.782712
vt 0.093948364 0.782712
vt 0.093948364 0.782712
vt 0.093948364 0.782712
vt 0.093948364 0.782712
vt 0.093948364 0.782712
vt 0.093948364 0.782712
vt 0.34394833 0.84521186
vt 0.34394836 0.845212
vt 0.34394836 0.845212
vt 0.34394836 0.845212
vt 0.28144836 0.5327119
vt 0.28144836 0.532712
vt 0.28144836 0.5327119
vt 0.28144836 0.5327119
vt 0.34394836 0.845212
vt 0.34394836 0.845212
vt 0.34394836 0.845212
vt 0.34394836 0.845212
vt 0.28144836 0.532712
vt 0.28144836 0.5327119
vt 0.28144836 0.5327119
vt 0.28144836 0.5327119
vt 0.093948364 0.782712
vt 0.093948364 0.782712
vt 0.093948364 0.782712
vt 0.093948364 0.782712
vt 0.03125 0.96875
vt 0.03125 0.96875
vt 0.03125 0.96875
vt 0.03125 0.96875
vt 0.03125 0.96875
vt 0.03125 0.96875
vt 0.03125 0.96875
vt 0.03125 0.96875
vt 0.03125 0.96875
vt 0.03125 0.96875
vt 0.03125 0.96875
vt 0.03125 0.96875
vt 0.03125 0.96875
vt 0.03125 0.96875
vt 0.03125 0.96875
vt 0.03125 0.96875
vt 0.093948364 0.5327119
vt 0.093948364 0.5327119
vt 0.09394835 0.5327119
vt 0.09394835 0.5327119
vt 0.093948364 0.5327119
vt 0.093948364 0.5327119
vt 0.09394835 0.5327119
vt 0.09394835 0.5327119
vt 0.09394835 0.5327119
vt 0.09394835 0.5327119
vt 0.09394835 0.5327119
vt 0.09394835 0.5327119
vt 0.40644836 0.5952119
vt 0.40644836 0.5952119
vt 0.40644836 0.5952119
vt 0.40644836 0.5952119
vt 0.40644836 0.5952119
vt 0.40644836 0.5952119
vt 0.40644836 0.5952119
vt 0.40644836 0.595212
vt 0.34394833 0.90771186
vt 0.34394836 0.907712
vt 0.34394836 0.907712
vt 0.34394836 0.9077119
vt 0.093948364 0.7827119
vt 0.093948364 0.782712
vt 0.093948364 0.7827119
vt 0.093948364 0.7827119
vt 0.34394836 0.907712
vt 0.34394836 0.9077119
vt 0.34394836 0.9077119
vt 0.34394836 0.907712
vt 0.093948364 0.782712
vt 0.093948364 0.7827119
vt 0.093948364 0.7827119
vt 0.093948364 0.7827119
vt 0.40644836 0.5952119
vt 0.40644836 0.5952119
vt 0.40644836 0.595212
vt 0.40644833 0.59521186
vt 0.21894836 0.6577119
vt 0.21894836 0.6577119
vt 0.21894835 0.6577119
vt 0.21894835 0.6577119
vt 0.21894836 0.6577119
vt 0.21894836 0.6577119
vt 0.21894835 0.6577119
vt 0.21894835 0.6577119
vt 0.21894835 0.6577119
vt 0.21894835 0.6577119
vt 0.21894835 0.6577119
vt 0.21894835 0.6577119
vt 0.21894836 0.6577119
vt 0.21894836 0.6577119
vt 0.21894836 0.6577119
vt 0.21894836 0.6577119
vt 0.093948364 0.6577119
vt 0.093948364 0.6577119
vt 0.09394835 0.6577119
vt 0.09394835 0.6577119
vt 0.093948364 0.6577119
vt 0.093948364 0.6577119
vt 0.09394835 0.6577119
vt 0.09394835 0.6577119
vt 0.09394835 0.6577119
vt 0.09394835 0.6577119
vt 0.09394835 0.6577119
vt 0.09394835 0.6577119
vt 0.093948364 0.6577119
vt 0.093948364 0.6577119
vt 0.093948364 0.6577119
vt 0.093948364 0.6577119
vt 0.21894836 0.8452119
vt 0.21894836 0.8452119
vt 0.21894836 0.8452119
vt 0.21894836 0.8452119
vt 0.21894836 0.8452119
vt 0.21894836 0.8452119
vt 0.21894836 0.8452119
vt 0.21894836 0.8452119
vt 0.093948364 0.782712
vt 0.093948364 0.782712
vt 0.093948364 0.782712
vt 0.093948364 0.782712
vt 0.093948364 0.782712
vt 0.093948364 0.782712
vt 0.093948364 0.782712
vt 0.093948364 0.782712
vt 0.65644836 0.90771186
vt 0.65644836 0.907712
vt 0.65644836 0.907712
vt 0.65644836 0.907712
vt 0.34394836 0.907712
vt 0.34394836 0.907712
vt 0.34394836 0.907712
vt 0.34394836 0.907712
vt 0.65644836 0.907712
vt 0.65644836 0.907712
vt 0.65644836 0.907712
vt 0.65644836 0.907712
vt 0.34394836 0.907712
vt 0.34394836 0.907712
vt 0.34394836 0.907712
vt 0.34394836 0.907712
vt 0.093948364 0.782712
vt 0.093948364 0.782712
vt 0.093948364 0.782712
vt 0.093948364 0.782712
vt 0.40644836 0.5952119
vt 0.40644836 0.5952119
vt 0.40644836 0.5952119
vt 0.40644836 0.5952119
vt 0.40644836 0.5952119
vt 0.40644836 0.5952119
vt 0.40644836 0.5952119
vt 0.40644836 0.595212
vt 0.09394836 0.6577119
vt 0.09394836 0.6577119
vt 0.09394836 0.6577119
vt 0.09394836 0.6577119
vt 0.28144836 0.5952119
vt 0.28144836 0.595212
vt 0.28144836 0.5952119
vt 0.28144836 0.5952119
vt 0.09394836 0.6577119
vt 0.09394836 0.6577119
vt 0.09394836 0.6577119
vt 0.09394836 0.6577119
vt 0.28144836 0.595212
vt 0.28144836 0.5952119
vt 0.28144836 0.5952119
vt 0.28144836 0.5952119
vt 0.40644836 0.5952119
vt 0.40644836 0.5952119
vt 0.40644836 0.595212
vt 0.40644833 0.59521186
vt 0.59394836 0.47021192
vt 0.59394836 0.47021192
vt 0.59394836 0.47021192
vt 0.59394836 0.47021192
vt 0.59394836 0.47021192
vt 0.59394836 0.47021192
vt 0.59394836 0.47021192
vt 0.59394836 0.47021192
vt 0.59394836 0.47021192
vt 0.59394836 0.47021192
vt 0.59394836 0.47021192
vt 0.59394836 0.47021192
vt 0.59394836 0.47021192
vt 0.59394836 0.47021192
vt 0.59394836 0.47021192
vt 0.59394836 0.47021192
vn -0 -1 0
vn -0 -1 0
vn -0 -1 0
vn -0 -1 0
vn -0 0 1
vn -0 0 1
vn -0 0 1
vn -0 0 1
vn -1 0 0
vn -1 0 0
vn -1 0 0
vn -1 0 0
vn 1 0 0
vn 1 0 0
vn 1 0 0
vn 1 0 0
vn -0 -1 0
vn -0 -1 0
vn -0 -1 0
vn -0 -1 0
vn -0 0 1
vn -0 0 1
vn -0 0 1
vn -0 0 1
vn -0 0 1
vn -0 0 1
vn -0 0 1
vn -0 0 1
vn -0 -1 0
vn -0 -1 0
vn -0 -1 0
vn -0 -1 0
vn -0 -1 0
vn -0 -1 0
vn -0 -1 0
vn -0 -1 0
vn -0 0 1
vn -0 0 1
vn -0 0 1
vn -0 0 1
vn -0 -1 0
vn -0 -1 0
vn -0 -1 0
vn -0 -1 0
vn -0.34878653 0 0.93720216
vn -0.34878653 0 0.93720216
vn -0.34878653 0 0.93720216
vn -0.34878653 0 0.93720216
vn -0.9608696 0 -0.27700123
vn -0.9608696 0 -0.27700123
vn -0.9608696 0 -0.27700123
vn -0.9608696 0 -0.27700123
vn 0.9608696 0 0.27700102
vn 0.9608696 0 0.27700102
vn 0.9608696 0 0.27700102
vn 0.9608696 0 0.27700102
vn -0 -1 0
vn -0 -1 0
vn -0 -1 0
vn -0 -1 0
vn -0.6482948 0 0.76138943
vn -0.6482948 0 0.76138943
vn -0.6482948 0 0.76138943
vn -0.6482948 0 0.76138943
vn -0.80818194 0 -0.5889328
vn -0.80818194 0 -0.5889328
vn -0.80818194 0 -0.5889328
vn -0.80818194 0 -0.5889328
vn 0.8081822 0 0.5889325
vn 0.8081822 0 0.5889325
vn 0.8081822 0 0.5889325
vn 0.8081822 0 0.5889325
vn -0 -1 0
vn -0 -1 0
vn -0 -1 0
vn -0 -1 0
vn -0 0 1
vn -0 0 1
vn -0 0 1
vn -0 0 1
vn -1 0 0
vn -1 0 0
vn -1 0 0
vn -1 0 0
vn 1 0 0
vn 1 0 0
vn 1 0 0
vn 1 0 0
vn -0 -1 0
vn -0 -1 0
vn -0 -1 0
vn -0 -1 0
vn -0 0 1
vn -0 0 1
vn -0 0 1
vn -0 0 1
vn -0 0 1
vn -0 0 1
vn -0 0 1
vn -0 0 1
vn -0 -1 0
vn -0 -1 0
vn -0 -1 0
vn -0 -1 0
vn -0 -1 0
vn -0 -1 0
vn -0 -1 0
vn -0 -1 0
vn -0 0 1
vn -0 0 1
vn -0 0 1
vn -0 0 1
vn -0 -1 0
vn -0 -1 0
vn -0 -1 0
vn -0 -1 0
vn -0.3376934 0 0.9412561
vn -0.3376934 0 0.9412561
vn -0.3376934 0 0.9412561
vn -0.3376934 0 0.9412561
vn -0.9608696 0 -0.2770011
vn -0.9608696 0 -0.2770011
vn -0.9608696 0 -0.2770011
vn -0.9608696 0 -0.2770011
vn 0.9608696 0 0.27700102
vn 0.9608696 0 0.27700102
vn 0.9608696 0 0.27700102
vn 0.9608696 0 0.27700102
vn -0 -1 0
vn -0 -1 0
vn -0 -1 0
vn -0 -1 0
vn -0 0 1
vn -0 0 1
vn -0 0 1
vn -0 0 1
vn -1 0 0
vn -1 0 0
vn -1 0 0
vn -1 0 0
vn 1 0 0
vn 1 0 0
vn 1 0 0
vn 1 0 0
vn -0 -1 0
vn -0 -1 0
vn -0 -1 0
vn -0 -1 0
vn -0 0 1
vn -0 0 1
vn -0 0 1
vn -0 0 1
vn -0 0 1
vn -0 0 1
vn -0 0 1
vn -0 0 1
vn -0 -1 0
vn -0 -1 0
vn -0 -1 0
vn -0 -1 0
vn -0 -1 0
vn -0 -1 0
vn -0 -1 0
vn -0 -1 0
vn -0 0 1
vn -0 0 1
vn -0 0 1
vn -0 0 1
vn -0 -1 0
vn -0 -1 0
vn -0 -1 0
vn -0 -1 0
vn -0.34878728 0 0.937202
vn -0.34878728 0 0.937202
vn -0.34878728 0 0.937202
vn -0.34878728 0 0.937202
vn -0.9608696 0 -0.27700126
vn -0.9608696 0 -0.27700126
vn -0.9608696 0 -0.27700126
vn -0.9608696 0 -0.27700126
vn 0.9608696 0 0.27700108
vn 0.9608696 0 0.27700108
vn 0.9608696 0 0.27700108
vn 0.9608696 0 0.27700108
vn -0 -1 0
vn -0 -1 0
vn -0 -1 0
vn -0 -1 0
vn -0.6482952 0 0.7613891
vn -0.6482952 0 0.7613891
vn -0.6482952 0 0.7613891
vn -0.6482952 0 0.7613891
vn -0.80818194 0 -0.5889329
vn -0.80818194 0 -0.5889329
vn -0.80818194 0 -0.5889329
vn -0.80818194 0 -0.5889329
vn 0.8081822 0 0.5889325
vn 0.8081822 0 0.5889325
vn 0.8081822 0 0.5889325
vn 0.8081822 0 0.5889325
vn -0 -1 0
vn -0 -1 0
vn -0 -1 0
vn -0 -1 0
vn -0 0 1
vn -0 0 1
vn -0 0 1
vn -0 0 1
vn -1 0 0
vn -1 0 0
vn -1 0 0
vn -1 0 0
vn -0 -1 0
vn -0 -1 0
vn -0 -1 0
vn -0 -1 0
vn -0 0 1
vn -0 0 1
vn -0 0 1
vn -0 0 1
vn -0 0 1
vn -0 0 1
vn -0 0 1
vn -0 0 1
vn -0 -1 0
vn -0 -1 0
vn -0 -1 0
vn -0 -1 0
vn -0 -1 0
vn -0 -1 0
vn -0 -1 0
vn -0 -1 0
vn -0 0 1
vn -0 0 1
vn -0 0 1
vn -0 0 1
vn 1 0 0
vn 1 0 0
vn 1 0 0
vn 1 0 0
vn -0 -1 0
vn -0 -1 0
vn -0 -1 0
vn -0 -1 0
vn -0 0 1
vn -0 0 1
vn -0 0 1
vn -0 0 1
vn -0 0 1
vn -0 0 1
vn -0 0 1
vn -0 0 1
vn -0 -1 0
vn -0 -1 0
vn -0 -1 0
vn -0 -1 0
vn -0 -1 0
vn -0 -1 0
vn -0 -1 0
vn -0 -1 0
vn -0 0 1
vn -0 0 1
vn -0 0 1
vn -0 0 1
vn -0 -1 0
vn -0 -1 0
vn -0 -1 0
vn -0 -1 0
vn -0.3487884 0 0.93720156
vn -0.3487884 0 0.93720156
vn -0.3487884 0 0.93720156
vn -0.3487884 0 0.93720156
vn -0.9608696 0 -0.27700126
vn -0.9608696 0 -0.27700126
vn -0.9608696 0 -0.27700126
vn -0.9608696 0 -0.27700126
vn 0.9608696 0 0.277001
vn 0.9608696 0 0.277001
vn 0.9608696 0 0.277001
vn 0.9608696 0 0.277001
g shelves03.001_0
f 3/3/3 2/2/2 1/1/1
f 4/4/4 3/3/3 1/1/1
f 7/7/7 6/6/6 5/5/5
f 8/8/8 7/7/7 5/5/5
f 11/11/11 10/10/10 9/9/9
f 12/12/12 11/11/11 9/9/9
f 15/15/15 14/14/14 13/13/13
f 16/16/16 15/15/15 13/13/13
f 19/19/19 18/18/18 17/17/17
f 20/20/20 19/19/19 17/17/17
f 23/23/23 22/22/22 21/21/21
f 24/24/24 23/23/23 21/21/21
f 27/27/27 26/26/26 25/25/25
f 28/28/28 27/27/27 25/25/25
f 31/31/31 30/30/30 29/29/29
f 32/32/32 31/31/31 29/29/29
f 35/35/35 34/34/34 33/33/33
f 36/36/36 35/35/35 33/33/33
f 39/39/39 38/38/38 37/37/37
f 40/40/40 39/39/39 37/37/37
f 43/43/43 42/42/42 41/41/41
f 44/44/44 43/43/43 41/41/41
f 47/47/47 46/46/46 45/45/45
f 48/48/48 47/47/47 45/45/45
f 51/51/51 50/50/50 49/49/49
f 52/52/52 51/51/51 49/49/49
f 55/55/55 54/54/54 53/53/53
f 56/56/56 55/55/55 53/53/53
f 59/59/59 58/58/58 57/57/57
f 60/60/60 59/59/59 57/57/57
f 63/63/63 62/62/62 61/61/61
f 64/64/64 63/63/63 61/61/61
f 67/67/67 66/66/66 65/65/65
f 68/68/68 67/67/67 65/65/65
f 71/71/71 70/70/70 69/69/69
f 72/72/72 71/71/71 69/69/69
f 75/75/75 74/74/74 73/73/73
f 76/76/76 75/75/75 73/73/73
f 79/79/79 78/78/78 77/77/77
f 80/80/80 79/79/79 77/77/77
f 83/83/83 82/82/82 81/81/81
f 84/84/84 83/83/83 81/81/81
f 87/87/87 86/86/86 85/85/85
f 88/88/88 87/87/87 85/85/85
f 91/91/91 90/90/90 89/89/89
f 92/92/92 91/91/91 89/89/89
f 95/95/95 94/94/94 93/93/93
f 96/96/96 95/95/95 93/93/93
f 99/99/99 98/98/98 97/97/97
f 100/100/100 99/99/99 97/97/97
f 103/103/103 102/102/102 101/101/101
f 104/104/104 103/103/103 101/101/101
f 107/107/107 106/106/106 105/105/105
f 108/108/108 107/107/107 105/105/105
f 111/111/111 110/110/110 109/109/109
f 112/112/112 111/111/111 109/109/109
f 115/115/115 114/114/114 113/113/113
f 116/116/116 115/115/115 113/113/113
f 119/119/119 118/118/118 117/117/117
f 120/120/120 119/119/119 117/117/117
f 123/123/123 122/122/122 121/121/121
f 124/124/124 123/123/123 121/121/121
f 127/127/127 126/126/126 125/125/125
f 128/128/128 127/127/127 125/125/125
f 131/131/131 130/130/130 129/129/129
f 132/132/132 131/131/131 129/129/129
f 135/135/135 134/134/134 133/133/133
f 136/136/136 135/135/135 133/133/133
f 139/139/139 138/138/138 137/137/137
f 140/140/140 139/139/139 137/137/137
f 143/143/143 142/142/142 141/141/141
f 144/144/144 143/143/143 141/141/141
f 147/147/147 146/146/146 145/145/145
f 148/148/148 147/147/147 145/145/145
f 151/151/151 150/150/150 149/149/149
f 152/152/152 151/151/151 149/149/149
f 155/155/155 154/154/154 153/153/153
f 156/156/156 155/155/155 153/153/153
f 159/159/159 158/158/158 157/157/157
f 160/160/160 159/159/159 157/157/157
f 163/163/163 162/162/162 161/161/161
f 164/164/164 163/163/163 161/161/161
f 167/167/167 166/166/166 165/165/165
f 168/168/168 167/167/167 165/165/165
f 171/171/171 170/170/170 169/169/169
f 172/172/172 171/171/171 169/169/169
f 175/175/175 174/174/174 173/173/173
f 176/176/176 175/175/175 173/173/173
f 179/179/179 178/178/178 177/177/177
f 180/180/180 179/179/179 177/177/177
f 183/183/183 182/182/182 181/181/181
f 184/184/184 183/183/183 181/181/181
f 187/187/187 186/186/186 185/185/185
f 188/188/188 187/187/187 185/185/185
f 191/191/191 190/190/190 189/189/189
f 192/192/192 191/191/191 189/189/189
f 195/195/195 194/194/194 193/193/193
f 196/196/196 195/195/195 193/193/193
f 199/199/199 198/198/198 197/197/197
f 200/200/200 199/199/199 197/197/197
f 203/203/203 202/202/202 201/201/201
f 204/204/204 203/203/203 201/201/201
f 207/207/207 206/206/206 205/205/205
f 208/208/208 207/207/207 205/205/205
f 211/211/211 210/210/210 209/209/209
f 212/212/212 211/211/211 209/209/209
f 215/215/215 214/214/214 213/213/213
f 216/216/216 215/215/215 213/213/213
f 219/219/219 218/218/218 217/217/217
f 220/220/220 219/219/219 217/217/217
f 223/223/223 222/222/222 221/221/221
f 224/224/224 223/223/223 221/221/221
f 227/227/227 226/226/226 225/225/225
f 228/228/228 227/227/227 225/225/225
f 231/231/231 230/230/230 229/229/229
f 232/232/232 231/231/231 229/229/229
f 235/235/235 234/234/234 233/233/233
f 236/236/236 235/235/235 233/233/233
f 239/239/239 238/238/238 237/237/237
f 240/240/240 239/239/239 237/237/237
f 243/243/243 242/242/242 241/241/241
f 244/244/244 243/243/243 241/241/241
f 247/247/247 246/246/246 245/245/245
f 248/248/248 247/247/247 245/245/245
f 251/251/251 250/250/250 249/249/249
f 252/252/252 251/251/251 249/249/249
f 255/255/255 254/254/254 253/253/253
f 256/256/256 255/255/255 253/253/253
f 259/259/259 258/258/258 257/257/257
f 260/260/260 259/259/259 257/257/257
f 263/263/263 262/262/262 261/261/261
f 264/264/264 263/263/263 261/261/261
f 267/267/267 266/266/266 265/265/265
f 268/268/268 267/267/267 265/265/265
f 271/271/271 270/270/270 269/269/269
f 272/272/272 271/271/271 269/269/269
f 275/275/275 274/274/274 273/273/273
f 276/276/276 275/275/275 273/273/273
f 279/279/279 278/278/278 277/277/277
f 280/280/280 279/279/279 277/277/277
