g shelf03.008
v 1.6183771 1.4940448 0.12225819
v 2.1198459 0.9925759 0.12225819
v 2.1198459 -1.0091547 0.12225819
v 1.6183771 -1.506479 0.12225819
v -1.6183758 -1.506479 0.12225819
v -1.6183758 1.4940448 0.12225819
v -2.1198444 -1.0091547 0.12225819
v -2.1198444 0.9925759 0.12225819
v -2.1198444 -1.0091547 -0.08910465
v -2.1198444 0.9925759 -0.08910465
v -2.1198444 0.9925759 0.12225819
v -2.1198444 -1.0091547 0.12225819
v 1.6183771 1.4940448 0.12225819
v -1.6183758 1.4940448 0.12225819
v -1.6183758 1.4940448 -0.08910465
v 1.6183771 1.4940448 -0.08910465
v 1.6183771 -1.506479 -0.08910465
v 2.1198459 -1.0091547 -0.08910465
v 2.1198459 0.9925759 -0.08910465
v 1.6183771 1.4940448 -0.08910465
v -1.6183758 -1.506479 -0.08910465
v -1.6183758 1.4940448 -0.08910465
v -2.1198444 -1.0091547 -0.08910465
v -2.1198444 0.9925759 -0.08910465
v 2.1198459 0.9925759 0.12225819
v 1.6183771 1.4940448 0.12225819
v 1.6183771 1.4940448 -0.08910465
v 2.1198459 0.9925759 -0.08910465
v -2.1198444 0.9925759 -0.08910465
v -1.6183758 1.4940448 -0.08910465
v -1.6183758 1.4940448 0.12225819
v -2.1198444 0.9925759 0.12225819
v 1.6183771 -1.506479 0.12225819
v 1.6183771 -1.506479 -0.08910465
v -1.6183758 -1.506479 -0.08910465
v -1.6183758 -1.506479 0.12225819
v 1.6183771 -1.506479 0.12225819
v 2.1198459 -1.0091547 0.12225819
v 2.1198459 -1.0091547 -0.08910465
v 1.6183771 -1.506479 -0.08910465
v -1.6183758 -1.506479 -0.08910465
v -2.1198444 -1.0091547 -0.08910465
v -2.1198444 -1.0091547 0.12225819
v -1.6183758 -1.506479 0.12225819
v 2.1198459 -1.0091547 0.12225819
v 2.1198459 0.9925759 0.12225819
v 2.1198459 0.9925759 -0.08910465
v 2.1198459 -1.0091547 -0.08910465
v 1.4194474 -1.3489931 -0.13883698
v 1.4194474 1.4940448 -0.13883698
v -1.419446 1.4940448 -0.13883698
v -1.419446 -1.3489931 -0.13883698
vt 0.21933958 0.09101183
vt 0.21933958 0.09101183
vt 0.21933958 0.09101183
vt 0.21933958 0.09101183
vt 0.21933958 0.09101183
vt 0.21933958 0.09101183
vt 0.21933958 0.09101183
vt 0.21933958 0.09101183
vt 0.21933958 0.09101183
vt 0.21933958 0.09101183
vt 0.21933958 0.09101183
vt 0.21933958 0.09101183
vt 0.21933958 0.09101183
vt 0.21933958 0.09101183
vt 0.21933958 0.09101183
vt 0.21933958 0.09101183
vt 0.21933958 0.09101183
vt 0.21933958 0.09101183
vt 0.21933958 0.09101183
vt 0.21933958 0.09101183
vt 0.21933958 0.09101183
vt 0.21933958 0.09101183
vt 0.21933958 0.09101183
vt 0.21933958 0.09101183
vt 0.21933958 0.09101183
vt 0.21933958 0.09101183
vt 0.21933958 0.09101183
vt 0.21933958 0.09101183
vt 0.21933958 0.09101183
vt 0.21933958 0.09101183
vt 0.21933958 0.09101183
vt 0.21933958 0.09101183
vt 0.21933958 0.09101183
vt 0.21933958 0.09101183
vt 0.21933958 0.09101183
vt 0.21933958 0.09101183
vt 0.21933958 0.09101183
vt 0.21933958 0.09101183
vt 0.21933958 0.09101183
vt 0.21933958 0.09101183
vt 0.21933958 0.09101183
vt 0.21933958 0.09101183
vt 0.21933958 0.09101183
vt 0.21933958 0.09101183
vt 0.21933958 0.09101183
vt 0.21933958 0.09101183
vt 0.21933958 0.09101183
vt 0.21933958 0.09101183
vt 0.12665842 0.8752369
vt 0.12665842 1
vt 0.2514215 1
vt 0.2514215 0.8752369
vn -0.015871048 0.015871048 0.99974805
vn -0.015871048 0.015871048 0.99974805
vn -0.015871048 0.015871048 0.99974805
vn -0.015871048 0.015871048 0.99974805
vn -0.015871048 0.015871048 0.99974805
vn -0.015871048 0.015871048 0.99974805
vn -0.015871048 0.015871048 0.99974805
vn -0.015871048 0.015871048 0.99974805
vn -0.999874 0.015871048 -0.00034391563
vn -0.999874 0.015871048 -0.00034391563
vn -0.999874 0.015871048 -0.00034391563
vn -0.999874 0.015871048 -0.00034391563
vn -0.015871048 0.999874 -0.00034526698
vn -0.015871048 0.999874 -0.00034526698
vn -0.015871048 0.999874 -0.00034526698
vn -0.015871048 0.999874 -0.00034526698
vn -0.015871048 0.015871048 -0.99974805
vn -0.015871048 0.015871048 -0.99974805
vn -0.015871048 0.015871048 -0.99974805
vn -0.015871048 0.015871048 -0.99974805
vn -0.015871048 0.015871048 -0.99974805
vn -0.015871048 0.015871048 -0.99974805
vn -0.015871048 0.015871048 -0.99974805
vn -0.015871048 0.015871048 -0.99974805
vn 0.70710677 0.70710677 -0
vn 0.70710677 0.70710677 -0
vn 0.70710677 0.70710677 -0
vn 0.70710677 0.70710677 -0
vn -0.70710677 0.70710677 -0
vn -0.70710677 0.70710677 -0
vn -0.70710677 0.70710677 -0
vn -0.70710677 0.70710677 -0
vn -0.015871048 -0.999874 -0.00034526698
vn -0.015871048 -0.999874 -0.00034526698
vn -0.015871048 -0.999874 -0.00034526698
vn -0.015871048 -0.999874 -0.00034526698
vn 0.70710677 -0.70710677 -0
vn 0.70710677 -0.70710677 -0
vn 0.70710677 -0.70710677 -0
vn 0.70710677 -0.70710677 -0
vn -0.70710677 -0.70710677 -0
vn -0.70710677 -0.70710677 -0
vn -0.70710677 -0.70710677 -0
vn -0.70710677 -0.70710677 -0
vn 0.999874 0.015871048 -0.00034391563
vn 0.999874 0.015871048 -0.00034391563
vn 0.999874 0.015871048 -0.00034391563
vn 0.999874 0.015871048 -0.00034391563
vn -0.015871048 0.015871048 -0.99974805
vn -0.015871048 0.015871048 -0.99974805
vn -0.015871048 0.015871048 -0.99974805
vn -0.015871048 0.015871048 -0.99974805
g shelf03.008_0
f 3/3/3 2/2/2 1/1/1
f 1/1/1 4/4/4 3/3/3
f 1/1/1 5/5/5 4/4/4
f 1/1/1 6/6/6 5/5/5
f 6/6/6 7/7/7 5/5/5
f 6/6/6 8/8/8 7/7/7
f 11/11/11 10/10/10 9/9/9
f 12/12/12 11/11/11 9/9/9
f 15/15/15 14/14/14 13/13/13
f 16/16/16 15/15/15 13/13/13
f 19/19/19 18/18/18 17/17/17
f 17/17/17 20/20/20 19/19/19
f 17/17/17 21/21/21 20/20/20
f 21/21/21 22/22/22 20/20/20
f 21/21/21 23/23/23 22/22/22
f 23/23/23 24/24/24 22/22/22
f 27/27/27 26/26/26 25/25/25
f 28/28/28 27/27/27 25/25/25
f 31/31/31 30/30/30 29/29/29
f 32/32/32 31/31/31 29/29/29
f 35/35/35 34/34/34 33/33/33
f 36/36/36 35/35/35 33/33/33
f 39/39/39 38/38/38 37/37/37
f 40/40/40 39/39/39 37/37/37
f 43/43/43 42/42/42 41/41/41
f 44/44/44 43/43/43 41/41/41
f 47/47/47 46/46/46 45/45/45
f 48/48/48 47/47/47 45/45/45
g shelf03.008_1
f 51/51/51 50/50/50 49/49/49
f 52/52/52 51/51/51 49/49/49
