g shoe_Speed_L
v 0.46469387 0.0011036899 -0.3049314
v 0.30893552 0.0011036396 -0.58974785
v 0.006532371 0.0011012256 -0.6416866
v -0.49576348 0.0010988619 -0.30482316
v -0.22615057 0.0011012256 -0.590463
v -0.43535167 -0.00025127083 0.09304303
v 0.42316562 -0.0002464503 0.093040645
v -0.40651745 -0.00090669096 0.42638466
v 0.42069346 -0.00090381503 0.4263843
v 0.16704684 -0.0015989915 0.6982396
v -0.22728473 -0.0016014054 0.6945594
v 0.4647151 0.17560907 -0.3049314
v 0.23923725 0.39423862 -0.21371418
v 0.2610672 0.3296495 -0.51426566
v -0.21371979 0.33595294 -0.4920485
v -0.21151084 0.40124723 -0.21373826
v -0.49576658 0.17484133 -0.30482322
v -0.42695636 0.17073284 0.43145078
v -0.45999736 0.17073296 0.028563574
v -0.46042305 0.17368607 0.025756389
v -0.4576915 0.42096627 0.47708207
v -0.24757057 0.4245211 0.69806135
v -0.2496621 0.1707329 0.69597566
v 0.20367914 0.17073284 0.6988303
v 0.22272485 0.4245717 0.69970036
v 0.42581105 0.17073287 0.4392975
v -0.38214785 0.5024402 0.005329117
v -0.49576658 0.17484133 -0.30482322
v -0.24757057 0.7335808 0.682009
v -0.4578771 0.73358077 0.47585756
v 0.22618932 0.7335808 0.68299925
v -0.37970835 0.73201287 -0.0506064
v 0.44038743 0.45486844 0.48689294
v 0.4309575 0.51957905 0.0017100871
v 0.45613584 0.73358077 0.48029357
v 0.40800184 0.17073296 0.025833458
v 0.44537953 0.73201287 -0.05693862
v 0.4647151 0.17560907 -0.3049314
v -0.1920399 0.5839141 -0.21183026
v -0.18697506 0.73044485 -0.20849776
v 0.22618991 0.5842896 -0.21075916
v 0.23928565 0.73044485 -0.2074781
v 0.23923725 0.39423862 -0.21371418
v -0.21151084 0.40124723 -0.21373826
v 0.29198962 0.18062 -0.6265456
v 0.2610672 0.3296495 -0.51426566
v 0.007439792 0.1806417 -0.6781741
v -0.21371979 0.33595294 -0.4920485
v -0.22615057 0.18066813 -0.6266394
v -0.49576658 0.17484133 -0.30482322
v -0.46042305 0.17368607 0.025756389
v -0.45999736 0.17073296 0.028563574
v -0.49576348 0.0010988619 -0.30482316
v -0.22615057 0.0011012256 -0.590463
v -0.43535167 -0.00025127083 0.09304303
v -0.22615057 0.18066813 -0.6266394
v -0.42695636 0.17073284 0.43145078
v -0.40651745 -0.00090669096 0.42638466
v -0.22728473 -0.0016014054 0.6945594
v -0.2496621 0.1707329 0.69597566
v 0.16704684 -0.0015989915 0.6982396
v 0.20367914 0.17073284 0.6988303
v 0.42069346 -0.00090381503 0.4263843
v 0.42581105 0.17073287 0.4392975
v 0.006532371 0.0011012256 -0.6416866
v 0.007439792 0.1806417 -0.6781741
v 0.29198962 0.18062 -0.6265456
v 0.30893552 0.0011036396 -0.58974785
v 0.42316562 -0.0002464503 0.093040645
v 0.40800184 0.17073296 0.025833458
v 0.4647151 0.17560907 -0.3049314
v 0.46469387 0.0011036899 -0.3049314
v -0.43423444 0.65460026 0.35523075
v -0.43423444 0.62710154 0.41987848
v -0.43423444 0.6483579 0.6382624
v -0.43423444 0.8144768 0.80127364
v -0.43423444 0.8375642 0.47096556
v -0.43423444 0.9044928 0.6589683
v -0.43423444 0.9989701 0.8007727
v -0.43423444 1.0184473 0.77156967
v -0.520914 0.6483579 0.6382624
v -0.520914 0.62710154 0.41987848
v -0.520914 0.65460026 0.35523075
v -0.520914 0.8144768 0.80127364
v -0.520914 0.8375642 0.47096556
v -0.520914 0.9044928 0.6589683
v -0.520914 0.9989701 0.8007727
v -0.520914 1.0184473 0.77156967
v -0.43423444 0.65460026 0.35523075
v -0.520914 0.65460026 0.35523075
v -0.520914 0.62710154 0.41987848
v -0.43423444 0.62710154 0.41987848
v -0.43423444 0.6483579 0.6382624
v -0.520914 0.6483579 0.6382624
v -0.520914 0.8144768 0.80127364
v -0.43423444 0.8144768 0.80127364
v -0.43423444 0.9989701 0.8007727
v -0.520914 0.9989701 0.8007727
v -0.520914 1.0184473 0.77156967
v -0.43423444 1.0184473 0.77156967
v -0.43423444 0.9044928 0.6589683
v -0.520914 0.9044928 0.6589683
v -0.520914 0.8375642 0.47096556
v -0.43423444 0.8375642 0.47096556
v -0.43423444 0.62710154 0.41987848
v -0.520914 0.62710154 0.41987848
v -0.520914 0.6483579 0.6382624
v -0.43423444 0.6483579 0.6382624
v -0.43423444 0.8144768 0.80127364
v -0.520914 0.8144768 0.80127364
v -0.520914 0.9989701 0.8007727
v -0.43423444 0.9989701 0.8007727
v -0.43423444 1.0184473 0.77156967
v -0.520914 1.0184473 0.77156967
v -0.520914 0.9044928 0.6589683
v -0.43423444 0.9044928 0.6589683
v -0.43423444 0.8375642 0.47096556
v -0.520914 0.8375642 0.47096556
v -0.520914 0.65460026 0.35523075
v -0.43423444 0.65460026 0.35523075
v -0.38548666 0.5712002 0.47267908
v -0.31552702 0.5697463 -0.01644367
v 0.026374876 0.5712611 0.23694284
v -0.2096265 0.5711879 0.6126283
v -0.1566487 0.56837493 -0.18670174
v 0.18503809 0.5712611 0.613469
v 0.21096271 0.56832284 -0.18582216
v 0.38598877 0.5711383 0.4734189
v 0.37634367 0.5695738 -0.025984228
v 0.18503064 0.7335808 0.6130099
v 0.38597888 0.73345804 0.47295988
v 0.45613584 0.73358077 0.48029357
v 0.22618932 0.7335808 0.68299925
v 0.44537953 0.73201287 -0.05693862
v -0.20963389 0.7335076 0.61216927
v 0.37633383 0.7318935 -0.026443273
v -0.24757057 0.7335808 0.682009
v 0.23928565 0.73044485 -0.2074781
v -0.38549656 0.7335199 0.47222
v 0.21095282 0.7306425 -0.1862812
v -0.4578771 0.73358077 0.47585756
v -0.18697506 0.73044485 -0.20849776
v -0.31553692 0.73206604 -0.016902715
v -0.15665859 0.73069465 -0.18716079
v -0.37970835 0.73201287 -0.0506064
v -0.38549656 0.7335199 0.47222
v -0.31552702 0.5697463 -0.01644367
v -0.38548666 0.5712002 0.47267908
v -0.31553692 0.73206604 -0.016902715
v -0.20963389 0.7335076 0.61216927
v -0.1566487 0.56837493 -0.18670174
v -0.2096265 0.5711879 0.6126283
v -0.15665859 0.73069465 -0.18716079
v 0.18503064 0.7335808 0.6130099
v 0.21096271 0.56832284 -0.18582216
v 0.18503809 0.5712611 0.613469
v 0.21095282 0.7306425 -0.1862812
v 0.38597888 0.73345804 0.47295988
v 0.37634367 0.5695738 -0.025984228
v 0.38598877 0.5711383 0.4734189
v 0.37633383 0.7318935 -0.026443273
vt 0.21513394 0.8442795
vt 0.21513394 0.8442795
vt 0.21513394 0.8442795
vt 0.21513394 0.8442795
vt 0.21513394 0.8442795
vt 0.21513394 0.8442795
vt 0.21513394 0.8442795
vt 0.21513394 0.8442795
vt 0.21513394 0.8442795
vt 0.21513394 0.8442795
vt 0.21513394 0.8442795
vt 0.09420629 0.97110605
vt 0.09420629 0.97110605
vt 0.09420629 0.97110605
vt 0.09420629 0.97110605
vt 0.09420629 0.97110605
vt 0.09420629 0.97110605
vt 0.21513394 0.8442795
vt 0.21513394 0.8442795
vt 0.21513394 0.8442795
vt 0.21513394 0.8442795
vt 0.21513394 0.8442795
vt 0.21513394 0.8442795
vt 0.21513394 0.8442795
vt 0.21513394 0.8442795
vt 0.2151339 0.8442794
vt 0.21513394 0.8442795
vt 0.21513394 0.8442795
vt 0.21513394 0.8442795
vt 0.21513394 0.8442795
vt 0.21513394 0.8442795
vt 0.21513394 0.8442795
vt 0.21513394 0.8442795
vt 0.21513394 0.8442795
vt 0.21513394 0.8442795
vt 0.21513394 0.8442795
vt 0.21513394 0.8442795
vt 0.21513394 0.8442795
vt 0.21513394 0.8442795
vt 0.21513394 0.8442795
vt 0.21513394 0.8442795
vt 0.21513394 0.8442795
vt 0.21513394 0.8442795
vt 0.21513394 0.8442795
vt 0.21513394 0.8442795
vt 0.21513394 0.8442795
vt 0.21513394 0.8442795
vt 0.21513394 0.8442795
vt 0.21513394 0.8442795
vt 0.029318124 0.9681567
vt 0.029318124 0.9681567
vt 0.029318124 0.9681567
vt 0.029318124 0.9681567
vt 0.029318124 0.9681567
vt 0.029318124 0.9681567
vt 0.029318124 0.9681567
vt 0.029318124 0.9681567
vt 0.029318124 0.9681567
vt 0.029318124 0.9681567
vt 0.029318124 0.9681567
vt 0.029318124 0.9681567
vt 0.029318124 0.9681567
vt 0.029318124 0.9681567
vt 0.029318124 0.9681567
vt 0.029318124 0.9681567
vt 0.029318124 0.9681567
vt 0.029318124 0.9681567
vt 0.029318124 0.9681567
vt 0.029318124 0.9681567
vt 0.029318124 0.9681567
vt 0.029318124 0.9681567
vt 0.029318124 0.9681567
vt 0.5292508 0.030230165
vt 0.5292508 0.030230165
vt 0.5292508 0.030230165
vt 0.5292508 0.030230165
vt 0.5292508 0.030230165
vt 0.5292508 0.030230165
vt 0.5292508 0.030230165
vt 0.5292508 0.030230165
vt 0.5292508 0.030230165
vt 0.5292508 0.030230165
vt 0.5292508 0.030230165
vt 0.5292508 0.030230165
vt 0.5292508 0.030230165
vt 0.5292508 0.030230165
vt 0.5292508 0.030230165
vt 0.5292508 0.030230165
vt 0.5292508 0.030230165
vt 0.5292508 0.030230165
vt 0.5292508 0.030230165
vt 0.5292508 0.030230165
vt 0.5292508 0.030230165
vt 0.5292508 0.030230165
vt 0.5292508 0.030230165
vt 0.5292508 0.030230165
vt 0.5292508 0.030230165
vt 0.5292508 0.030230165
vt 0.5292508 0.030230165
vt 0.5292508 0.030230165
vt 0.5292508 0.030230165
vt 0.5292508 0.030230165
vt 0.5292508 0.030230165
vt 0.5292508 0.030230165
vt 0.5292508 0.030230165
vt 0.5292508 0.030230165
vt 0.5292508 0.030230165
vt 0.5292508 0.030230165
vt 0.5292508 0.030230165
vt 0.5292508 0.030230165
vt 0.5292508 0.030230165
vt 0.5292508 0.030230165
vt 0.5292508 0.030230165
vt 0.5292508 0.030230165
vt 0.5292508 0.030230165
vt 0.5292508 0.030230165
vt 0.5292508 0.030230165
vt 0.5292508 0.030230165
vt 0.5292508 0.030230165
vt 0.5292508 0.030230165
vt 0.468292 0.8421174
vt 0.468292 0.8421174
vt 0.468292 0.8421174
vt 0.468292 0.8421174
vt 0.468292 0.8421174
vt 0.468292 0.8421174
vt 0.468292 0.8421174
vt 0.468292 0.8421174
vt 0.468292 0.8421174
vt 0.21513394 0.8442795
vt 0.21513394 0.8442795
vt 0.21513394 0.8442795
vt 0.21513394 0.8442795
vt 0.21513394 0.8442795
vt 0.21513394 0.8442795
vt 0.21513394 0.8442795
vt 0.21513394 0.8442795
vt 0.21513394 0.8442795
vt 0.21513394 0.8442795
vt 0.21513394 0.8442795
vt 0.21513394 0.8442795
vt 0.21513394 0.8442795
vt 0.21513394 0.8442795
vt 0.21513394 0.8442795
vt 0.21513394 0.8442795
vt 0.34177193 0.8413012
vt 0.34177193 0.8413012
vt 0.34177193 0.8413012
vt 0.34177193 0.8413012
vt 0.34177193 0.8413012
vt 0.34177193 0.8413012
vt 0.34177193 0.8413012
vt 0.34177193 0.8413012
vt 0.34177193 0.8413012
vt 0.34177193 0.8413012
vt 0.34177193 0.8413012
vt 0.34177193 0.8413012
vt 0.34177193 0.8413012
vt 0.34177193 0.8413012
vt 0.34177193 0.8413012
vt 0.34177193 0.8413012
vn -0 -1 0
vn -0 -1 0
vn -0 -1 0
vn -0 -1 0
vn -0 -1 -1.0445601E-05
vn -0 -0.9999943 -0.0033930934
vn -0 -0.9999943 -0.0033930934
vn 1.2078756E-05 -0.9999968 -0.0025720568
vn 1.2078756E-05 -0.9999968 -0.0025720568
vn 1.2078756E-05 -0.9999968 -0.0025720568
vn 1.2078756E-05 -0.9999968 -0.0025720568
vn 0.9341431 0.27515465 -0.22730276
vn 0.38284013 0.6219748 -0.6830672
vn 0.3915152 0.79955757 -0.4554378
vn -0.33611682 0.8195572 -0.46405983
vn -0.38473922 0.64366233 -0.66156983
vn -0.90691644 0.2758346 -0.31846157
vn -0.9340538 -0.12203143 0.3356364
vn -0.9903804 -0.09282654 0.10261528
vn -0.9961273 0.05322178 0.069985405
vn -0.9422193 -0.021589791 0.33430022
vn -0.40729636 -0.0097179795 0.91324437
vn -0.46829474 -0.065722816 0.88112456
vn 0.41439632 -0.066161245 0.90768844
vn 0.38694325 -0.017118188 0.9219446
vn 0.939096 -0.06920899 0.33661395
vn -0.9187236 0.17670614 -0.35315993
vn -0.90691644 0.2758346 -0.31846157
vn -0.29923135 0.6465878 0.70170134
vn -0.7477797 0.6193082 0.23933831
vn 0.28222987 0.6481547 0.70727766
vn -0.6836655 0.6114014 -0.39848447
vn 0.91924864 -0.058344003 0.38932997
vn 0.95068234 0.01574192 -0.3097666
vn 0.73243666 0.61165226 0.29902846
vn 0.99763584 -0.0012443496 0.068711154
vn 0.72157454 0.5683615 -0.395342
vn 0.9341431 0.27515465 -0.22730276
vn -0.38319245 0.0007086958 -0.9236682
vn -0.28335488 0.62300384 -0.72909284
vn 0.35116845 -0.024484502 -0.9359922
vn 0.28511974 0.61065394 -0.7387885
vn 0.38284013 0.6219748 -0.6830672
vn -0.38473922 0.64366233 -0.66156983
vn 0.53072536 0.234593 -0.81443024
vn 0.3915152 0.79955757 -0.4554378
vn -0.022876197 0.2762114 -0.9608246
vn -0.33611682 0.8195572 -0.46405983
vn -0.47019204 0.24637489 -0.84747785
vn -0.90691644 0.2758346 -0.31846157
vn -0.9961273 0.05322178 0.069985405
vn -0.9903804 -0.09282654 0.10261528
vn -0.7299871 -0.64537275 -0.22497284
vn -0.37683126 -0.69541276 -0.61188185
vn -0.6633776 -0.7453953 0.06569673
vn -0.47019204 0.24637489 -0.84747785
vn -0.9340538 -0.12203143 0.3356364
vn -0.67521083 -0.69862944 0.23665823
vn -0.34194645 -0.64004034 0.688056
vn -0.46829474 -0.065722816 0.88112456
vn 0.27245325 -0.6492126 0.7101353
vn 0.41439632 -0.066161245 0.90768844
vn 0.7153611 -0.65169775 0.25208807
vn 0.939096 -0.06920899 0.33661395
vn -0.015038409 -0.7362969 -0.6764915
vn -0.022876197 0.2762114 -0.9608246
vn 0.53072536 0.234593 -0.81443024
vn 0.47392863 -0.6576694 -0.58554465
vn 0.7105084 -0.70322514 0.025540767
vn 0.99763584 -0.0012443496 0.068711154
vn 0.9341431 0.27515465 -0.22730276
vn 0.7616141 -0.6325816 -0.1406572
vn 1 0 0
vn 1 0 0
vn 1 0 0
vn 1 0 0
vn 1 0 0
vn 1 0 0
vn 1 0 0
vn 1 0 0
vn -1 0 0
vn -1 0 0
vn -1 0 0
vn -1 0 0
vn -1 0 0
vn -1 0 0
vn -1 0 0
vn -1 0 0
vn -0 -0.92021084 -0.3914231
vn -0 -0.92021084 -0.3914231
vn -0 -0.92021084 -0.3914231
vn -0 -0.92021084 -0.3914231
vn -0 -0.70039904 0.71375144
vn -0 -0.70039904 0.71375144
vn -0 -0.70039904 0.71375144
vn -0 -0.70039904 0.71375144
vn -0 0.83193916 0.55486697
vn -0 0.83193916 0.55486697
vn -0 0.83193916 0.55486697
vn -0 0.83193916 0.55486697
vn -0 0.94208294 -0.33537975
vn -0 0.94208294 -0.33537975
vn -0 0.94208294 -0.33537975
vn -0 0.94208294 -0.33537975
vn -0 -0.9952964 0.09687715
vn -0 -0.9952964 0.09687715
vn -0 -0.9952964 0.09687715
vn -0 -0.9952964 0.09687715
vn -0 0.0027147883 0.9999963
vn -0 0.0027147883 0.9999963
vn -0 0.0027147883 0.9999963
vn -0 0.0027147883 0.9999963
vn -0 0.7028708 -0.7113176
vn -0 0.7028708 -0.7113176
vn -0 0.7028708 -0.7113176
vn -0 0.7028708 -0.7113176
vn -0 0.5345826 -0.8451162
vn -0 0.5345826 -0.8451162
vn -0 0.5345826 -0.8451162
vn -0 0.5345826 -0.8451162
vn 0.73605686 0.6098305 -0.29381475
vn 0.68940455 0.64643157 0.32687545
vn 0.00016297305 0.9999945 -0.0033059886
vn 0.2542411 0.63913256 -0.7258588
vn 0.3099219 0.6308242 0.71134335
vn -0.22822489 0.6441745 -0.730036
vn -0.29161957 0.63550913 0.7149029
vn -0.7025042 0.6141602 -0.3595763
vn -0.71196777 0.63143224 0.307238
vn -0.18682326 0.7804117 -0.5967032
vn -0.49769682 0.8291476 -0.2545821
vn 0.73243666 0.61165226 0.29902846
vn 0.28222987 0.6481547 0.70727766
vn 0.72157454 0.5683615 -0.395342
vn 0.20379595 0.7880512 -0.580898
vn -0.54656357 0.80425787 0.2333188
vn -0.29923135 0.6465878 0.70170134
vn 0.28511974 0.61065394 -0.7387885
vn 0.5077738 0.8372887 -0.20276412
vn -0.22636591 0.8049057 0.5485301
vn -0.7477797 0.6193082 0.23933831
vn -0.28335488 0.62300384 -0.72909284
vn 0.56359285 0.7823673 0.26507464
vn 0.23518018 0.81249267 0.53342855
vn -0.6836655 0.6114014 -0.39848447
vn 0.5077738 0.8372887 -0.20276412
vn 0.68940455 0.64643157 0.32687545
vn 0.73605686 0.6098305 -0.29381475
vn 0.56359285 0.7823673 0.26507464
vn 0.20379595 0.7880512 -0.580898
vn 0.3099219 0.6308242 0.71134335
vn 0.2542411 0.63913256 -0.7258588
vn 0.23518018 0.81249267 0.53342855
vn -0.18682326 0.7804117 -0.5967032
vn -0.29161957 0.63550913 0.7149029
vn -0.22822489 0.6441745 -0.730036
vn -0.22636591 0.8049057 0.5485301
vn -0.49769682 0.8291476 -0.2545821
vn -0.71196777 0.63143224 0.307238
vn -0.7025042 0.6141602 -0.3595763
vn -0.54656357 0.80425787 0.2333188
g shoe_Speed_L_0
f 3/3/3 2/2/2 1/1/1
f 4/4/4 3/3/3 1/1/1
f 5/5/5 3/3/3 4/4/4
f 4/4/4 1/1/1 6/6/6
f 1/1/1 7/7/7 6/6/6
f 6/6/6 7/7/7 8/8/8
f 7/7/7 9/9/9 8/8/8
f 8/8/8 9/9/9 10/10/10
f 11/11/11 8/8/8 10/10/10
f 14/14/14 13/13/13 12/12/12
f 13/13/13 14/14/14 15/15/15
f 16/16/16 13/13/13 15/15/15
f 16/16/16 15/15/15 17/17/17
f 20/20/20 19/19/19 18/18/18
f 21/21/21 20/20/20 18/18/18
f 21/21/21 18/18/18 22/22/22
f 18/18/18 23/23/23 22/22/22
f 22/22/22 23/23/23 24/24/24
f 25/25/25 22/22/22 24/24/24
f 24/24/24 26/26/26 25/25/25
f 20/20/20 21/21/21 27/27/27
f 20/20/20 27/27/27 28/28/28
f 21/21/21 22/22/22 29/29/29
f 29/29/29 22/22/22 25/25/25
f 30/30/30 21/21/21 29/29/29
f 27/27/27 21/21/21 30/30/30
f 31/31/31 29/29/29 25/25/25
f 32/32/32 27/27/27 30/30/30
f 25/25/25 33/33/33 31/31/31
f 26/26/26 33/33/33 25/25/25
f 33/33/33 26/26/26 34/34/34
f 33/33/33 35/35/35 31/31/31
f 35/35/35 33/33/33 34/34/34
f 26/26/26 36/36/36 34/34/34
f 37/37/37 35/35/35 34/34/34
f 36/36/36 38/38/38 34/34/34
f 39/39/39 27/27/27 32/32/32
f 40/40/40 39/39/39 32/32/32
f 37/37/37 34/34/34 41/41/41
f 41/41/41 39/39/39 40/40/40
f 42/42/42 37/37/37 41/41/41
f 42/42/42 41/41/41 40/40/40
f 34/34/34 38/38/38 43/43/43
f 41/41/41 34/34/34 43/43/43
f 41/41/41 43/43/43 39/39/39
f 43/43/43 44/44/44 39/39/39
f 27/27/27 39/39/39 44/44/44
f 28/28/28 27/27/27 44/44/44
f 46/46/46 38/38/38 45/45/45
f 46/46/46 45/45/45 47/47/47
f 46/46/46 47/47/47 48/48/48
f 49/49/49 28/28/28 48/48/48
f 47/47/47 49/49/49 48/48/48
f 52/52/52 51/51/51 50/50/50
f 52/52/52 50/50/50 53/53/53
f 54/54/54 53/53/53 50/50/50
f 53/53/53 55/55/55 52/52/52
f 56/56/56 54/54/54 50/50/50
f 57/57/57 52/52/52 55/55/55
f 58/58/58 57/57/57 55/55/55
f 58/58/58 59/59/59 57/57/57
f 59/59/59 60/60/60 57/57/57
f 60/60/60 59/59/59 61/61/61
f 62/62/62 60/60/60 61/61/61
f 61/61/61 63/63/63 62/62/62
f 63/63/63 64/64/64 62/62/62
f 54/54/54 56/56/56 65/65/65
f 56/56/56 66/66/66 65/65/65
f 65/65/65 66/66/66 67/67/67
f 68/68/68 65/65/65 67/67/67
f 64/64/64 63/63/63 69/69/69
f 70/70/70 64/64/64 69/69/69
f 67/67/67 71/71/71 68/68/68
f 70/70/70 69/69/69 71/71/71
f 71/71/71 72/72/72 68/68/68
f 69/69/69 72/72/72 71/71/71
f 75/75/75 74/74/74 73/73/73
f 73/73/73 76/76/76 75/75/75
f 73/73/73 77/77/77 76/76/76
f 77/77/77 78/78/78 76/76/76
f 78/78/78 79/79/79 76/76/76
f 78/78/78 80/80/80 79/79/79
f 83/83/83 82/82/82 81/81/81
f 81/81/81 84/84/84 83/83/83
f 84/84/84 85/85/85 83/83/83
f 84/84/84 86/86/86 85/85/85
f 84/84/84 87/87/87 86/86/86
f 87/87/87 88/88/88 86/86/86
f 91/91/91 90/90/90 89/89/89
f 92/92/92 91/91/91 89/89/89
f 95/95/95 94/94/94 93/93/93
f 96/96/96 95/95/95 93/93/93
f 99/99/99 98/98/98 97/97/97
f 100/100/100 99/99/99 97/97/97
f 103/103/103 102/102/102 101/101/101
f 104/104/104 103/103/103 101/101/101
f 107/107/107 106/106/106 105/105/105
f 108/108/108 107/107/107 105/105/105
f 111/111/111 110/110/110 109/109/109
f 112/112/112 111/111/111 109/109/109
f 115/115/115 114/114/114 113/113/113
f 116/116/116 115/115/115 113/113/113
f 119/119/119 118/118/118 117/117/117
f 120/120/120 119/119/119 117/117/117
f 123/123/123 122/122/122 121/121/121
f 123/123/123 121/121/121 124/124/124
f 125/125/125 122/122/122 123/123/123
f 123/123/123 124/124/124 126/126/126
f 127/127/127 125/125/125 123/123/123
f 128/128/128 123/123/123 126/126/126
f 129/129/129 127/127/127 123/123/123
f 129/129/129 123/123/123 128/128/128
f 132/132/132 131/131/131 130/130/130
f 133/133/133 132/132/132 130/130/130
f 132/132/132 134/134/134 131/131/131
f 133/133/133 130/130/130 135/135/135
f 134/134/134 136/136/136 131/131/131
f 137/137/137 133/133/133 135/135/135
f 134/134/134 138/138/138 136/136/136
f 137/137/137 135/135/135 139/139/139
f 138/138/138 140/140/140 136/136/136
f 141/141/141 137/137/137 139/139/139
f 138/138/138 142/142/142 140/140/140
f 141/141/141 139/139/139 143/143/143
f 142/142/142 144/144/144 140/140/140
f 145/145/145 141/141/141 143/143/143
f 145/145/145 143/143/143 144/144/144
f 142/142/142 145/145/145 144/144/144
f 148/148/148 147/147/147 146/146/146
f 147/147/147 149/149/149 146/146/146
f 148/148/148 146/146/146 150/150/150
f 147/147/147 151/151/151 149/149/149
f 152/152/152 148/148/148 150/150/150
f 151/151/151 153/153/153 149/149/149
f 152/152/152 150/150/150 154/154/154
f 151/151/151 155/155/155 153/153/153
f 156/156/156 152/152/152 154/154/154
f 155/155/155 157/157/157 153/153/153
f 156/156/156 154/154/154 158/158/158
f 155/155/155 159/159/159 157/157/157
f 160/160/160 156/156/156 158/158/158
f 159/159/159 161/161/161 157/157/157
f 160/160/160 158/158/158 161/161/161
f 159/159/159 160/160/160 161/161/161
