g shoes_SpeedIcon
v 0.44973785 -0.6687314 -1.4454188
v 1.4863759 -0.7141462 -1.7084993
v 0.9216298 -0.73478585 -1.8281001
v 2.1276364 -0.55412024 -0.78137314
v 1.8569578 -0.671164 -1.4594847
v 1.743026 -0.44560087 -0.13773055
v 0.2431483 -0.54801875 -0.73113424
v 1.4588417 -0.3511998 0.4164302
v 0.013656448 -0.44988543 -0.15533085
v 0.26610965 -0.34012806 0.48823553
v 0.95761096 -0.29418015 0.7544583
v 0.4497007 -0.3449971 -1.5013134
v 0.95231444 -0.09713656 -1.7702708
v 0.7796429 0.11460456 -1.2584356
v 1.7662116 -0.022195697 -1.4058722
v 1.5671426 0.18137637 -0.9491689
v 2.1276417 -0.23179841 -0.8370066
v 1.490996 -0.028835714 0.38431698
v 1.8340228 -0.13992196 -0.29194015
v 1.8313099 -0.14461708 -0.28645587
v 1.5126858 0.45261616 0.40399
v 0.99059516 0.49980938 0.63805616
v 0.9957122 0.028619438 0.7171788
v 0.20169657 -0.024618566 0.40874875
v 0.16781244 0.44428143 0.31579837
v -0.0043416494 -0.12824386 -0.19159804
v 1.7115991 0.45456323 -0.4864841
v 2.1276417 -0.23179841 -0.8370066
v 1.0018544 1.0683968 0.5114535
v 1.513869 1.0322268 0.3019051
v 0.17347412 1.0121689 0.18570055
v 1.7465712 0.86354595 -0.65798235
v -0.06319134 0.41127992 -0.21071832
v 0.2935957 0.38827512 -1.0602125
v -0.08607593 0.924498 -0.32221404
v 0.31678006 -0.24898559 -0.891108
v 0.30953628 0.76322657 -1.2391758
v 0.4497007 -0.3449971 -1.5013134
v 1.5317875 0.51849806 -1.0178355
v 1.5206015 0.7907232 -1.0625211
v 0.8003645 0.4696158 -1.305188
v 0.7751842 0.7401709 -1.3553926
v 0.7796429 0.11460456 -1.2584356
v 1.5671426 0.18137637 -0.9491689
v 0.9770456 -0.41066605 -1.9372231
v 0.95231444 -0.09713656 -1.7702708
v 1.5103834 -0.3920195 -1.8294355
v 1.7662116 -0.022195697 -1.4058722
v 1.8823324 -0.3487876 -1.5792669
v 1.8313099 -0.14461708 -0.28645587
v 1.8340228 -0.13992196 -0.29194015
v 2.1276417 -0.23179841 -0.8370066
v 1.743026 -0.44560087 -0.13773055
v 1.490996 -0.028835714 0.38431698
v 2.1276364 -0.55412024 -0.78137314
v 1.4588417 -0.3511998 0.4164302
v 1.8569578 -0.671164 -1.4594847
v 0.95761096 -0.29418015 0.7544583
v 1.8823324 -0.3487876 -1.5792669
v 0.9957122 0.028619438 0.7171788
v 0.26610965 -0.34012806 0.48823553
v 0.20169657 -0.024618566 0.40874875
v 0.013656448 -0.44988543 -0.15533085
v -0.0043416494 -0.12824386 -0.19159804
v 1.4863759 -0.7141462 -1.7084993
v 1.5103834 -0.3920195 -1.8294355
v 0.9770456 -0.41066605 -1.9372231
v 0.9216298 -0.73478585 -1.8281001
v 0.2431483 -0.54801875 -0.73113424
v 0.31678006 -0.24898559 -0.891108
v 0.4497007 -0.3449971 -1.5013134
v 0.44973785 -0.6687314 -1.4454188
v 1.3586515 0.91956425 0.5924496
v 1.5118282 0.8152343 0.22328661
v 1.5571729 0.84703803 0.10318348
v 1.4759953 1.220859 0.24384399
v 1.2443136 1.2761836 0.8198951
v 1.344128 1.4008905 0.54607755
v 1.2446649 1.6183012 0.75995445
v 1.2651483 1.6457562 0.70344144
v 1.7086072 0.85737944 0.16309549
v 1.6632624 0.8255756 0.28319854
v 1.5100856 0.92990565 0.6523616
v 1.6274294 1.2312003 0.30375597
v 1.3957479 1.286525 0.8798072
v 1.4955623 1.411232 0.6059895
v 1.3960992 1.6286423 0.8198665
v 1.4165825 1.6560977 0.7633535
v 1.5571729 0.84703803 0.10318348
v 1.5118282 0.8152343 0.22328661
v 1.6632624 0.8255756 0.28319854
v 1.7086072 0.85737944 0.16309549
v 1.3586515 0.91956425 0.5924496
v 1.2443136 1.2761836 0.8198951
v 1.3957479 1.286525 0.8798072
v 1.5100856 0.92990565 0.6523616
v 1.2446649 1.6183012 0.75995445
v 1.2651483 1.6457562 0.70344144
v 1.4165825 1.6560977 0.7633535
v 1.3960992 1.6286423 0.8198665
v 1.344128 1.4008905 0.54607755
v 1.4759953 1.220859 0.24384399
v 1.6274294 1.2312003 0.30375597
v 1.4955623 1.411232 0.6059895
v 1.5118282 0.8152343 0.22328661
v 1.3586515 0.91956425 0.5924496
v 1.5100856 0.92990565 0.6523616
v 1.6632624 0.8255756 0.28319854
v 1.2443136 1.2761836 0.8198951
v 1.2446649 1.6183012 0.75995445
v 1.3960992 1.6286423 0.8198665
v 1.3957479 1.286525 0.8798072
v 1.2651483 1.6457562 0.70344144
v 1.344128 1.4008905 0.54607755
v 1.4955623 1.411232 0.6059895
v 1.4165825 1.6560977 0.7633535
v 1.4759953 1.220859 0.24384399
v 1.5571729 0.84703803 0.10318348
v 1.7086072 0.85737944 0.16309549
v 1.6274294 1.2312003 0.30375597
v -0.21250293 -0.46259654 -0.81658834
v -0.6005933 -0.46259665 -1.2886857
v -1.1781453 -0.46260124 -1.2785702
v -1.988896 -0.4626057 -0.47915208
v -1.5905226 -0.46260124 -1.102129
v -1.7374616 -0.4651476 0.23551674
v -0.14957619 -0.46513844 -0.06593042
v -1.5670878 -0.46638137 0.84193057
v -0.037104905 -0.466376 0.55147934
v -0.41078764 -0.46768457 1.1433549
v -1.1414231 -0.46768928 1.2750057
v -0.21246366 -0.13407254 -0.81659573
v -0.5974721 0.27751973 -0.5687135
v -0.6626257 0.15592417 -1.1322688
v -1.5329757 0.16779101 -0.9244695
v -1.4311697 0.29071414 -0.41049123
v -1.9889019 -0.13551795 -0.47915113
v -1.6031121 -0.14325255 0.8584772
v -1.8056853 -0.14325237 0.124911174
v -1.8074584 -0.13769281 0.11986856
v -1.6439366 0.32783723 0.95366704
v -1.1777135 0.33452955 1.2886058
v -1.1823144 -0.14325249 1.2854825
v -0.3428264 -0.14325255 1.131585
v -0.30729467 0.33462483 1.1265069
v -0.02310548 -0.14325249 0.5735664
v -1.6698558 0.48122013 0.05460293
v -1.9889019 -0.13551795 -0.47915113
v -1.1833497 0.9163658 1.2589158
v -1.6447101 0.91636574 0.95146745
v -0.3067509 0.9163658 1.0944006
v -1.6849837 0.913414 -0.04971021
v 0.020566223 0.39166152 0.65647936
v -0.1672326 0.5134857 -0.23758836
v 0.047376875 0.91636574 0.6387437
v -0.20122032 -0.14325237 -0.18491043
v -0.16115084 0.913414 -0.35112706
v -0.21246366 -0.13407254 -0.81659573
v -1.3944869 0.634603 -0.4137989
v -1.3839492 0.910462 -0.4094136
v -0.6205664 0.63531 -0.55866677
v -0.59519297 0.910462 -0.55719644
v -0.5974721 0.27751973 -0.5687135
v -1.4311697 0.29071414 -0.41049123
v -0.6448564 -0.124639034 -1.3507956
v -0.6626257 0.15592417 -1.1322688
v -1.1892785 -0.124598145 -1.3463749
v -1.5329757 0.16779101 -0.9244695
v -1.6032249 -0.124548316 -1.1690397
v -1.9889019 -0.13551795 -0.47915113
v -1.8074584 -0.13769281 0.11986856
v -1.8056853 -0.14325237 0.124911174
v -1.988896 -0.4626057 -0.47915208
v -1.5905226 -0.46260124 -1.102129
v -1.7374616 -0.4651476 0.23551674
v -1.6032249 -0.124548316 -1.1690397
v -1.6031121 -0.14325255 0.8584772
v -1.5670878 -0.46638137 0.84193057
v -1.1414231 -0.46768928 1.2750057
v -1.1823144 -0.14325249 1.2854825
v -0.41078764 -0.46768457 1.1433549
v -0.3428264 -0.14325255 1.131585
v -0.037104905 -0.466376 0.55147934
v -0.02310548 -0.14325249 0.5735664
v -1.1781453 -0.46260124 -1.2785702
v -1.1892785 -0.124598145 -1.3463749
v -0.6448564 -0.124639034 -1.3507956
v -0.6005933 -0.46259665 -1.2886857
v -0.14957619 -0.46513844 -0.06593042
v -0.20122032 -0.14325237 -0.18491043
v -0.21246366 -0.13407254 -0.81659573
v -0.21250293 -0.46259654 -0.81658834
v -1.6433357 0.76767695 0.72005844
v -1.6206367 0.7159078 0.8396289
v -1.5439576 0.75592506 1.2435449
v -1.4867212 1.0686607 1.5450454
v -1.6026989 1.1121249 0.934118
v -1.5366874 1.238125 1.281842
v -1.486897 1.4159881 1.5441189
v -1.4971508 1.4526558 1.4901057
v -1.7042774 0.75592506 1.2739799
v -1.7809564 0.7159078 0.87006384
v -1.8036554 0.76767695 0.7504934
v -1.647041 1.0686607 1.5754803
v -1.7630186 1.1121249 0.9645529
v -1.6970071 1.238125 1.312277
v -1.6472168 1.4159881 1.5745538
v -1.6574706 1.4526558 1.5205407
v -1.6433357 0.76767695 0.72005844
v -1.8036554 0.76767695 0.7504934
v -1.7809564 0.7159078 0.87006384
v -1.6206367 0.7159078 0.8396289
v -1.5439576 0.75592506 1.2435449
v -1.7042774 0.75592506 1.2739799
v -1.647041 1.0686607 1.5754803
v -1.4867212 1.0686607 1.5450454
v -1.486897 1.4159881 1.5441189
v -1.6472168 1.4159881 1.5745538
v -1.6574706 1.4526558 1.5205407
v -1.4971508 1.4526558 1.4901057
v -1.5366874 1.238125 1.281842
v -1.6970071 1.238125 1.312277
v -1.7630186 1.1121249 0.9645529
v -1.6026989 1.1121249 0.934118
v -1.6206367 0.7159078 0.8396289
v -1.7809564 0.7159078 0.87006384
v -1.7042774 0.75592506 1.2739799
v -1.5439576 0.75592506 1.2435449
v -1.4867212 1.0686607 1.5450454
v -1.647041 1.0686607 1.5754803
v -1.6472168 1.4159881 1.5745538
v -1.486897 1.4159881 1.5441189
v -1.4971508 1.4526558 1.4901057
v -1.6574706 1.4526558 1.5205407
v -1.6970071 1.238125 1.312277
v -1.5366874 1.238125 1.281842
v -1.6026989 1.1121249 0.934118
v -1.7630186 1.1121249 0.9645529
v -1.8036554 0.76767695 0.7504934
v -1.6433357 0.76767695 0.72005844
v -1.511935 0.6106678 0.92017084
v -1.5542808 0.6079307 -0.0090593025
v -0.83294076 0.6107825 0.33954775
v -1.1375306 0.6106447 1.1172686
v -1.3202055 0.60534894 -0.37974858
v -0.40727636 0.6107825 0.9802487
v -0.63997436 0.6052509 -0.5071975
v -0.084778875 0.61055136 0.65065867
v -0.27796853 0.60760605 -0.26963493
v 1.389628 0.7214024 0.29839477
v 0.83543015 0.6023258 -0.39214236
v 1.6104804 0.56500894 -0.59156847
v 0.98422825 0.7419865 0.4177825
v 1.4523317 0.4929152 -0.9940604
v 0.2941369 0.6952863 0.14641851
v 0.8094763 0.44922182 -1.2466186
v 0.04129713 0.6294661 -0.23354729
v 0.40843412 0.4793098 -1.086152
v -0.4074513 0.9163658 0.97940236
v -0.08495841 0.9161346 0.64981306
v 0.047376875 0.91636574 0.6387437
v -0.3067509 0.9163658 1.0944006
v -0.16115084 0.913414 -0.35112706
v -1.1377054 0.91622794 1.1164219
v -0.27814803 0.9131892 -0.2704805
v -1.1833497 0.9163658 1.2589158
v -0.59519297 0.910462 -0.55719644
v -1.5121145 0.9162511 0.91932523
v -0.6401538 0.91083413 -0.50804305
v -1.6447101 0.91636574 0.95146745
v -1.3839492 0.910462 -0.4094136
v -1.55446 0.9135141 -0.009904819
v -1.3203849 0.9109323 -0.38059407
v -1.6849837 0.913414 -0.04971021
v 0.2944719 0.99628097 0.09365552
v -0.08607593 0.924498 -0.32221404
v 0.041636456 0.93046117 -0.28630862
v 0.17347412 1.0121689 0.18570055
v 0.30953628 0.76322657 -1.2391758
v 0.98456323 1.042981 0.36501944
v 0.40877345 0.7803048 -1.1389133
v 1.0018544 1.0683968 0.5114535
v 0.7751842 0.7401709 -1.3553926
v 1.3899674 1.0223975 0.24563342
v 0.80981565 0.7502167 -1.2993798
v 1.513869 1.0322268 0.3019051
v 1.5206015 0.7907232 -1.0625211
v 1.6108197 0.8660041 -0.6443298
v 1.4526708 0.7939103 -1.0468217
v 1.7465712 0.86354595 -0.65798235
v -1.5121145 0.9162511 0.91932523
v -1.5542808 0.6079307 -0.0090593025
v -1.511935 0.6106678 0.92017084
v -1.55446 0.9135141 -0.009904819
v -1.1377054 0.91622794 1.1164219
v -1.3202055 0.60534894 -0.37974858
v -1.1375306 0.6106447 1.1172686
v -1.3203849 0.9109323 -0.38059407
v -0.4074513 0.9163658 0.97940236
v -0.63997436 0.6052509 -0.5071975
v -0.40727636 0.6107825 0.9802487
v -0.6401538 0.91083413 -0.50804305
v -0.08495841 0.9161346 0.64981306
v -0.27796853 0.60760605 -0.26963493
v -0.084778875 0.61055136 0.65065867
v -0.27814803 0.9131892 -0.2704805
v 1.3899674 1.0223975 0.24563342
v 1.389628 0.7214024 0.29839477
v 1.6104804 0.56500894 -0.59156847
v 1.6108197 0.8660041 -0.6443298
v 0.98456323 1.042981 0.36501944
v 1.4523317 0.4929152 -0.9940604
v 0.98422825 0.7419865 0.4177825
v 1.4526708 0.7939103 -1.0468217
v 0.2944719 0.99628097 0.09365552
v 0.8094763 0.44922182 -1.2466186
v 0.2941369 0.6952863 0.14641851
v 0.80981565 0.7502167 -1.2993798
v 0.041636456 0.93046117 -0.28630862
v 0.40843412 0.4793098 -1.086152
v 0.04129713 0.6294661 -0.23354729
v 0.40877345 0.7803048 -1.1389133
vt 0.21513394 0.8442795
vt 0.21513394 0.8442795
vt 0.21513394 0.8442795
vt 0.21513394 0.8442795
vt 0.21513394 0.8442795
vt 0.21513394 0.8442795
vt 0.21513394 0.8442795
vt 0.21513394 0.8442795
vt 0.21513394 0.8442795
vt 0.21513394 0.8442795
vt 0.21513394 0.8442795
vt 0.09420629 0.97110605
vt 0.09420629 0.97110605
vt 0.09420629 0.97110605
vt 0.09420629 0.97110605
vt 0.09420629 0.97110605
vt 0.09420629 0.97110605
vt 0.21513394 0.8442795
vt 0.21513394 0.8442795
vt 0.21513394 0.8442795
vt 0.21513394 0.8442795
vt 0.21513394 0.8442795
vt 0.21513394 0.8442795
vt 0.21513394 0.8442795
vt 0.21513394 0.8442795
vt 0.2151339 0.8442794
vt 0.21513394 0.8442795
vt 0.21513394 0.8442795
vt 0.21513394 0.8442795
vt 0.21513394 0.8442795
vt 0.21513394 0.8442795
vt 0.21513394 0.8442795
vt 0.21513394 0.8442795
vt 0.21513394 0.8442795
vt 0.21513394 0.8442795
vt 0.21513394 0.8442795
vt 0.21513394 0.8442795
vt 0.21513394 0.8442795
vt 0.21513394 0.8442795
vt 0.21513394 0.8442795
vt 0.21513394 0.8442795
vt 0.21513394 0.8442795
vt 0.21513394 0.8442795
vt 0.21513394 0.8442795
vt 0.21513394 0.8442795
vt 0.21513394 0.8442795
vt 0.21513394 0.8442795
vt 0.21513394 0.8442795
vt 0.21513394 0.8442795
vt 0.029318124 0.9681567
vt 0.029318124 0.9681567
vt 0.029318124 0.9681567
vt 0.029318124 0.9681567
vt 0.029318124 0.9681567
vt 0.029318124 0.9681567
vt 0.029318124 0.9681567
vt 0.029318124 0.9681567
vt 0.029318124 0.9681567
vt 0.029318124 0.9681567
vt 0.029318124 0.9681567
vt 0.029318124 0.9681567
vt 0.029318124 0.9681567
vt 0.029318124 0.9681567
vt 0.029318124 0.9681567
vt 0.029318124 0.9681567
vt 0.029318124 0.9681567
vt 0.029318124 0.9681567
vt 0.029318124 0.9681567
vt 0.029318124 0.9681567
vt 0.029318124 0.9681567
vt 0.029318124 0.9681567
vt 0.029318124 0.9681567
vt 0.5292508 0.030230165
vt 0.5292508 0.030230165
vt 0.5292508 0.030230165
vt 0.5292508 0.030230165
vt 0.5292508 0.030230165
vt 0.5292508 0.030230165
vt 0.5292508 0.030230165
vt 0.5292508 0.030230165
vt 0.5292508 0.030230165
vt 0.5292508 0.030230165
vt 0.5292508 0.030230165
vt 0.5292508 0.030230165
vt 0.5292508 0.030230165
vt 0.5292508 0.030230165
vt 0.5292508 0.030230165
vt 0.5292508 0.030230165
vt 0.5292508 0.030230165
vt 0.5292508 0.030230165
vt 0.5292508 0.030230165
vt 0.5292508 0.030230165
vt 0.5292508 0.030230165
vt 0.5292508 0.030230165
vt 0.5292508 0.030230165
vt 0.5292508 0.030230165
vt 0.5292508 0.030230165
vt 0.5292508 0.030230165
vt 0.5292508 0.030230165
vt 0.5292508 0.030230165
vt 0.5292508 0.030230165
vt 0.5292508 0.030230165
vt 0.5292508 0.030230165
vt 0.5292508 0.030230165
vt 0.5292508 0.030230165
vt 0.5292508 0.030230165
vt 0.5292508 0.030230165
vt 0.5292508 0.030230165
vt 0.5292508 0.030230165
vt 0.5292508 0.030230165
vt 0.5292508 0.030230165
vt 0.5292508 0.030230165
vt 0.5292508 0.030230165
vt 0.5292508 0.030230165
vt 0.5292508 0.030230165
vt 0.5292508 0.030230165
vt 0.5292508 0.030230165
vt 0.5292508 0.030230165
vt 0.5292508 0.030230165
vt 0.5292508 0.030230165
vt 0.21513394 0.8442795
vt 0.21513394 0.8442795
vt 0.21513394 0.8442795
vt 0.21513394 0.8442795
vt 0.21513394 0.8442795
vt 0.21513394 0.8442795
vt 0.21513394 0.8442795
vt 0.21513394 0.8442795
vt 0.21513394 0.8442795
vt 0.21513394 0.8442795
vt 0.21513394 0.8442795
vt 0.09420629 0.97110605
vt 0.09420629 0.97110605
vt 0.09420629 0.97110605
vt 0.09420629 0.97110605
vt 0.09420629 0.97110605
vt 0.09420629 0.97110605
vt 0.21513394 0.8442795
vt 0.21513394 0.8442795
vt 0.21513394 0.8442795
vt 0.21513394 0.8442795
vt 0.21513394 0.8442795
vt 0.21513394 0.8442795
vt 0.21513394 0.8442795
vt 0.21513394 0.8442795
vt 0.2151339 0.8442794
vt 0.21513394 0.8442795
vt 0.21513394 0.8442795
vt 0.21513394 0.8442795
vt 0.21513394 0.8442795
vt 0.21513394 0.8442795
vt 0.21513394 0.8442795
vt 0.21513394 0.8442795
vt 0.21513394 0.8442795
vt 0.21513394 0.8442795
vt 0.21513394 0.8442795
vt 0.21513394 0.8442795
vt 0.21513394 0.8442795
vt 0.21513394 0.8442795
vt 0.21513394 0.8442795
vt 0.21513394 0.8442795
vt 0.21513394 0.8442795
vt 0.21513394 0.8442795
vt 0.21513394 0.8442795
vt 0.21513394 0.8442795
vt 0.21513394 0.8442795
vt 0.21513394 0.8442795
vt 0.21513394 0.8442795
vt 0.21513394 0.8442795
vt 0.029318124 0.9681567
vt 0.029318124 0.9681567
vt 0.029318124 0.9681567
vt 0.029318124 0.9681567
vt 0.029318124 0.9681567
vt 0.029318124 0.9681567
vt 0.029318124 0.9681567
vt 0.029318124 0.9681567
vt 0.029318124 0.9681567
vt 0.029318124 0.9681567
vt 0.029318124 0.9681567
vt 0.029318124 0.9681567
vt 0.029318124 0.9681567
vt 0.029318124 0.9681567
vt 0.029318124 0.9681567
vt 0.029318124 0.9681567
vt 0.029318124 0.9681567
vt 0.029318124 0.9681567
vt 0.029318124 0.9681567
vt 0.029318124 0.9681567
vt 0.029318124 0.9681567
vt 0.029318124 0.9681567
vt 0.029318124 0.9681567
vt 0.5292508 0.030230165
vt 0.5292508 0.030230165
vt 0.5292508 0.030230165
vt 0.5292508 0.030230165
vt 0.5292508 0.030230165
vt 0.5292508 0.030230165
vt 0.5292508 0.030230165
vt 0.5292508 0.030230165
vt 0.5292508 0.030230165
vt 0.5292508 0.030230165
vt 0.5292508 0.030230165
vt 0.5292508 0.030230165
vt 0.5292508 0.030230165
vt 0.5292508 0.030230165
vt 0.5292508 0.030230165
vt 0.5292508 0.030230165
vt 0.5292508 0.030230165
vt 0.5292508 0.030230165
vt 0.5292508 0.030230165
vt 0.5292508 0.030230165
vt 0.5292508 0.030230165
vt 0.5292508 0.030230165
vt 0.5292508 0.030230165
vt 0.5292508 0.030230165
vt 0.5292508 0.030230165
vt 0.5292508 0.030230165
vt 0.5292508 0.030230165
vt 0.5292508 0.030230165
vt 0.5292508 0.030230165
vt 0.5292508 0.030230165
vt 0.5292508 0.030230165
vt 0.5292508 0.030230165
vt 0.5292508 0.030230165
vt 0.5292508 0.030230165
vt 0.5292508 0.030230165
vt 0.5292508 0.030230165
vt 0.5292508 0.030230165
vt 0.5292508 0.030230165
vt 0.5292508 0.030230165
vt 0.5292508 0.030230165
vt 0.5292508 0.030230165
vt 0.5292508 0.030230165
vt 0.5292508 0.030230165
vt 0.5292508 0.030230165
vt 0.5292508 0.030230165
vt 0.5292508 0.030230165
vt 0.5292508 0.030230165
vt 0.5292508 0.030230165
vt 0.468292 0.8421174
vt 0.468292 0.8421174
vt 0.468292 0.8421174
vt 0.468292 0.8421174
vt 0.468292 0.8421174
vt 0.468292 0.8421174
vt 0.468292 0.8421174
vt 0.468292 0.8421174
vt 0.468292 0.8421174
vt 0.468292 0.8421174
vt 0.468292 0.8421174
vt 0.468292 0.8421174
vt 0.468292 0.8421174
vt 0.468292 0.8421174
vt 0.468292 0.8421174
vt 0.468292 0.8421174
vt 0.468292 0.8421174
vt 0.468292 0.8421174
vt 0.21513394 0.8442795
vt 0.21513394 0.8442795
vt 0.21513394 0.8442795
vt 0.21513394 0.8442795
vt 0.21513394 0.8442795
vt 0.21513394 0.8442795
vt 0.21513394 0.8442795
vt 0.21513394 0.8442795
vt 0.21513394 0.8442795
vt 0.21513394 0.8442795
vt 0.21513394 0.8442795
vt 0.21513394 0.8442795
vt 0.21513394 0.8442795
vt 0.21513394 0.8442795
vt 0.21513394 0.8442795
vt 0.21513394 0.8442795
vt 0.21513394 0.8442795
vt 0.21513394 0.8442795
vt 0.21513394 0.8442795
vt 0.21513394 0.8442795
vt 0.21513394 0.8442795
vt 0.21513394 0.8442795
vt 0.21513394 0.8442795
vt 0.21513394 0.8442795
vt 0.21513394 0.8442795
vt 0.21513394 0.8442795
vt 0.21513394 0.8442795
vt 0.21513394 0.8442795
vt 0.21513394 0.8442795
vt 0.21513394 0.8442795
vt 0.21513394 0.8442795
vt 0.21513394 0.8442795
vt 0.34177193 0.8413012
vt 0.34177193 0.8413012
vt 0.34177193 0.8413012
vt 0.34177193 0.8413012
vt 0.34177193 0.8413012
vt 0.34177193 0.8413012
vt 0.34177193 0.8413012
vt 0.34177193 0.8413012
vt 0.34177193 0.8413012
vt 0.34177193 0.8413012
vt 0.34177193 0.8413012
vt 0.34177193 0.8413012
vt 0.34177193 0.8413012
vt 0.34177193 0.8413012
vt 0.34177193 0.8413012
vt 0.34177193 0.8413012
vt 0.34177193 0.8413012
vt 0.34177193 0.8413012
vt 0.34177193 0.8413012
vt 0.34177193 0.8413012
vt 0.34177193 0.8413012
vt 0.34177193 0.8413012
vt 0.34177193 0.8413012
vt 0.34177193 0.8413012
vt 0.34177193 0.8413012
vt 0.34177193 0.8413012
vt 0.34177193 0.8413012
vt 0.34177193 0.8413012
vt 0.34177193 0.8413012
vt 0.34177193 0.8413012
vt 0.34177193 0.8413012
vt 0.34177193 0.8413012
vn -0 -0.98542815 0.17009245
vn -0 -0.98542815 0.17009245
vn -0 -0.9854291 0.1700867
vn -0 -0.98542815 0.17009245
vn -0 -0.98542935 0.17008536
vn 0.0012594884 -0.98595804 0.16698815
vn 0.0012594884 -0.98595804 0.16698815
vn 0.0009469965 -0.98583126 0.16773686
vn 0.0009469965 -0.98583126 0.16773686
vn 0.0009469965 -0.98583126 0.16773686
vn 0.0009469965 -0.98583126 0.16773686
vn -0.7821994 0.17606659 -0.5976325
vn -0.19364211 0.69120514 -0.6962314
vn -0.100782536 0.48082933 -0.8710029
vn 0.48481423 0.7556645 -0.44037056
vn 0.60352325 0.55423754 -0.57321936
vn 0.9602711 0.27902058 -0.005173594
vn 0.74175394 -0.008080065 0.67062354
vn 0.89833325 0.12662081 0.4206716
vn 0.8808431 -0.012513149 0.47324282
vn 0.74982935 0.09120428 0.65531486
vn 0.037719596 0.16038853 0.98633295
vn 0.10629325 0.10399543 0.9888815
vn -0.7227428 0.051817805 0.6891718
vn -0.70257777 0.10413632 0.70394605
vn -0.996897 -0.0745798 -0.025186837
vn 0.98415595 0.17660762 -0.015708493
vn 0.9602711 0.27902058 -0.005173594
vn 0.016251026 0.7668906 0.6415721
vn 0.60477 0.6954511 0.38807377
vn -0.5254237 0.7324663 0.43292385
vn 0.7829087 0.5829175 -0.2173964
vn -0.9981193 -0.054294363 0.02845967
vn -0.76682377 -0.09363075 -0.63499177
vn -0.79111296 0.60352397 -0.09949415
vn -0.9514081 -0.05360327 -0.30323145
vn -0.52232766 0.4519477 -0.72313005
vn -0.7821994 0.17606659 -0.5976325
vn 0.69973934 -0.120816566 -0.7041082
vn 0.53459597 0.51679647 -0.6686767
vn 0.022842234 -0.19412632 -0.98071057
vn 0.0106627885 0.4670708 -0.88415563
vn -0.100782536 0.48082933 -0.8710029
vn 0.60352325 0.55423754 -0.57321936
vn -0.18907772 0.06898523 -0.979536
vn -0.19364211 0.69120514 -0.6962314
vn 0.37920856 0.121972345 -0.917237
vn 0.48481423 0.7556645 -0.44037056
vn 0.7520883 0.1388099 -0.64427865
vn 0.8808431 -0.012513149 0.47324282
vn 0.89833325 0.12662081 0.4206716
vn 0.9602711 0.27902058 -0.005173594
vn 0.591139 -0.682123 0.43042192
vn 0.74175394 -0.008080065 0.67062354
vn 0.7612489 -0.62521833 0.17205259
vn 0.538424 -0.60830283 0.5831528
vn 0.57767206 -0.75798225 -0.30291545
vn 0.060974177 -0.50043553 0.86362404
vn 0.7520883 0.1388099 -0.64427865
vn 0.10629325 0.10399543 0.9888815
vn -0.517416 -0.5449252 0.6598009
vn -0.7227428 0.051817805 0.6891718
vn -0.7577784 -0.64774406 0.078737155
vn -0.996897 -0.0745798 -0.025186837
vn 0.2659996 -0.83139694 -0.4878764
vn 0.37920856 0.121972345 -0.917237
vn -0.18907772 0.06898523 -0.979536
vn -0.22164738 -0.7705468 -0.59760356
vn -0.66886884 -0.7339731 -0.11788941
vn -0.9514081 -0.05360327 -0.30323145
vn -0.7821994 0.17606659 -0.5976325
vn -0.65437394 -0.6938317 -0.30065325
vn -0.928002 -0.063372865 -0.3671461
vn -0.928002 -0.063372865 -0.3671461
vn -0.928002 -0.063372865 -0.3671461
vn -0.928002 -0.063372865 -0.3671461
vn -0.928002 -0.063372865 -0.3671461
vn -0.928002 -0.063372865 -0.3671461
vn -0.928002 -0.063372865 -0.3671461
vn -0.928002 -0.063372865 -0.3671461
vn 0.92800206 0.06337269 0.3671459
vn 0.92800206 0.06337269 0.3671459
vn 0.92800206 0.06337269 0.3671459
vn 0.92800206 0.06337269 0.3671459
vn 0.92800206 0.06337269 0.3671459
vn 0.92800206 0.06337269 0.3671459
vn 0.92800206 0.06337269 0.3671459
vn 0.92800206 0.06337269 0.3671459
vn 0.14583446 -0.9685865 -0.2014261
vn 0.14583446 -0.9685865 -0.2014261
vn 0.14583446 -0.9685865 -0.2014261
vn 0.14583446 -0.9685865 -0.2014261
vn -0.26592603 -0.57752895 0.7718443
vn -0.26592603 -0.57752895 0.7718443
vn -0.26592603 -0.57752895 0.7718443
vn -0.26592603 -0.57752895 0.7718443
vn -0.20672847 0.90740114 0.3659048
vn -0.20672847 0.90740114 0.3659048
vn -0.20672847 0.90740114 0.3659048
vn -0.20672847 0.90740114 0.3659048
vn 0.12495433 0.8754158 -0.46694064
vn 0.12495433 0.8754158 -0.46694064
vn 0.12495433 0.8754158 -0.46694064
vn 0.12495433 0.8754158 -0.46694064
vn -0.036093943 -0.96550095 0.25788593
vn -0.036093943 -0.96550095 0.25788593
vn -0.036093943 -0.96550095 0.25788593
vn -0.036093943 -0.96550095 0.25788593
vn -0.37257338 0.16052252 0.9140139
vn -0.37257338 0.16052252 0.9140139
vn -0.37257338 0.16052252 0.9140139
vn -0.37257338 0.16052252 0.9140139
vn 0.26501885 0.5803488 -0.77003914
vn 0.26501885 0.5803488 -0.77003914
vn 0.26501885 0.5803488 -0.77003914
vn 0.26501885 0.5803488 -0.77003914
vn 0.31486928 0.3933934 -0.8637702
vn 0.31486928 0.3933934 -0.8637702
vn 0.31486928 0.3933934 -0.8637702
vn 0.31486928 0.3933934 -0.8637702
vn -0 -1 0
vn -0 -1 0
vn -0 -1 0
vn -0 -1 0
vn -0 -1 0
vn -0.0006278042 -0.9999943 -0.0033346908
vn -0.0006278042 -0.9999943 -0.0033346908
vn -0.00046777094 -0.9999968 -0.0025290402
vn -0.00046777094 -0.9999968 -0.0025290402
vn -0.00046777094 -0.9999968 -0.0025290402
vn -0.00046777094 -0.9999968 -0.0025290402
vn 0.8753582 0.27515468 -0.39753965
vn 0.24872506 0.6219749 -0.7424844
vn 0.29970267 0.79955745 -0.5204673
vn -0.41676992 0.8195572 -0.39322865
vn -0.5013764 0.64366215 -0.5782047
vn -0.95039886 0.2758345 -0.14372659
vn -0.85506564 -0.12203132 0.50395536
vn -0.9538641 -0.09282641 0.28552842
vn -0.96559584 0.053221587 0.2545431
vn -0.863337 -0.021589734 0.5041658
vn -0.22982241 -0.009717877 0.97318405
vn -0.29574114 -0.06572291 0.95300454
vn 0.57641625 -0.066161305 0.81447333
vn 0.5521038 -0.017118158 0.8335997
vn 0.98539925 -0.06920898 0.1555587
vn -0.96847034 0.176706 -0.17561397
vn -0.95039886 0.2758345 -0.14372659
vn -0.16310816 0.6465877 0.7451979
vn -0.69002056 0.619308 0.37460566
vn 0.40919062 0.64815485 0.6422292
vn -0.74599016 0.6114012 -0.2639834
vn 0.9757322 -0.05834396 0.21105139
vn 0.87622726 0.015741931 -0.48164108
vn 0.77535564 0.6116529 0.15717646
vn 0.99294597 -0.0012443605 -0.11856163
vn 0.6351784 0.56836206 -0.5229846
vn 0.8753582 0.27515468 -0.39753965
vn -0.5487401 0.00070866477 -0.83599275
vn -0.4143646 0.6230036 -0.6634519
vn 0.17043665 -0.02448458 -0.9850643
vn 0.14232671 0.610654 -0.7790025
vn 0.24872506 0.6219749 -0.7424844
vn -0.5013764 0.64366215 -0.5782047
vn 0.3695152 0.23459291 -0.8991243
vn 0.29970267 0.79955745 -0.5204673
vn -0.20167617 0.27621126 -0.93969893
vn -0.41676992 0.8195572 -0.39322865
vn -0.6200032 0.24637493 -0.74491304
vn -0.95039886 0.2758345 -0.14372659
vn -0.96559584 0.053221587 0.2545431
vn -0.9538641 -0.09282641 0.28552842
vn -0.75913763 -0.64537275 -0.08487694
vn -0.48433995 -0.69541276 -0.5308634
vn -0.6394847 -0.74539524 0.18826908
vn -0.6200032 0.24637493 -0.74491304
vn -0.85506564 -0.12203132 0.50395536
vn -0.6192247 -0.6986295 0.35843784
vn -0.20761853 -0.6400404 0.7397586
vn -0.29574114 -0.06572291 0.95300454
vn 0.40011862 -0.6492125 0.6468603
vn 0.57641625 -0.066161305 0.81447333
vn 0.7498254 -0.6516978 0.11424421
vn 0.98539925 -0.06920898 0.1555587
vn -0.14094551 -0.7362969 -0.66181654
vn -0.20167617 0.27621126 -0.93969893
vn 0.3695152 0.23459291 -0.8991243
vn 0.35640416 -0.6576693 -0.66366196
vn 0.70280486 -0.70322526 -0.10742295
vn 0.99294597 -0.0012443605 -0.11856163
vn 0.8753582 0.27515468 -0.39753965
vn 0.7220167 -0.63258153 -0.28023648
vn 0.98245347 0 -0.18650803
vn 0.98245347 0 -0.18650803
vn 0.98245347 0 -0.18650803
vn 0.98245347 0 -0.18650803
vn 0.98245347 0 -0.18650803
vn 0.98245347 0 -0.18650803
vn 0.98245347 0 -0.18650803
vn 0.98245347 0 -0.18650803
vn -0.98245347 0 0.1865077
vn -0.98245347 0 0.1865077
vn -0.98245347 0 0.1865077
vn -0.98245347 0 0.1865077
vn -0.98245347 0 0.1865077
vn -0.98245347 0 0.1865077
vn -0.98245347 0 0.1865077
vn -0.98245347 0 0.1865077
vn -0.07300344 -0.92021084 -0.38455504
vn -0.07300344 -0.92021084 -0.38455504
vn -0.07300344 -0.92021084 -0.38455504
vn -0.07300344 -0.92021084 -0.38455504
vn 0.13312016 -0.7003989 0.7012277
vn 0.13312016 -0.7003989 0.7012277
vn 0.13312016 -0.7003989 0.7012277
vn 0.13312016 -0.7003989 0.7012277
vn 0.10348658 0.8319403 0.54512924
vn 0.10348658 0.8319403 0.54512924
vn 0.10348658 0.8319403 0.54512924
vn 0.10348658 0.8319403 0.54512924
vn -0.06255072 0.9420828 -0.32949552
vn -0.06255072 0.9420828 -0.32949552
vn -0.06255072 0.9420828 -0.32949552
vn -0.06255072 0.9420828 -0.32949552
vn 0.01806846 -0.9952964 0.095177084
vn 0.01806846 -0.9952964 0.095177084
vn 0.01806846 -0.9952964 0.095177084
vn 0.01806846 -0.9952964 0.095177084
vn 0.18650742 0.0027153709 0.98244977
vn 0.18650742 0.0027153709 0.98244977
vn 0.18650742 0.0027153709 0.98244977
vn 0.18650742 0.0027153709 0.98244977
vn -0.13266666 0.7028705 -0.6988367
vn -0.13266666 0.7028705 -0.6988367
vn -0.13266666 0.7028705 -0.6988367
vn -0.13266666 0.7028705 -0.6988367
vn -0.15762085 0.5345831 -0.8302871
vn -0.15762085 0.5345831 -0.8302871
vn -0.15762085 0.5345831 -0.8302871
vn -0.15762085 0.5345831 -0.8302871
vn 0.6683429 0.60983044 -0.42593974
vn 0.7382729 0.6464315 0.19256057
vn -0.00045646838 0.9999945 -0.0032783845
vn 0.114401676 0.6391325 -0.7605405
vn 0.43715513 0.630824 0.6410588
vn -0.36037806 0.6441746 -0.67466044
vn -0.15316762 0.63550913 0.75674826
vn -0.75724155 0.6141602 -0.2222444
vn -0.6421729 0.6314321 0.43463477
vn -0.573594 0.5079202 -0.64265627
vn 0.0010805033 0.9848903 -0.17317615
vn -0.7615544 0.6449188 -0.064145505
vn 0.034500785 0.499132 -0.8658389
vn -0.55263704 0.71427476 0.42942262
vn 0.48378652 0.53401643 -0.6933809
vn 0.0042684916 0.7575747 0.6527345
vn 0.7858946 0.5929719 -0.17536841
vn 0.54623836 0.71584684 0.43495625
vn -0.29483518 0.78041184 -0.5513887
vn -0.5364467 0.8291469 -0.15729043
vn 0.77535564 0.6116529 0.15717646
vn 0.40919062 0.64815485 0.6422292
vn 0.6351784 0.56836206 -0.5229846
vn 0.09187776 0.78805125 -0.60871476
vn -0.49345845 0.80425715 0.33116353
vn -0.16310816 0.6465877 0.7451979
vn 0.14232671 0.610654 -0.7790025
vn 0.46104658 0.83728904 -0.29391012
vn -0.12008875 0.8049057 0.5811244
vn -0.69002056 0.619308 0.37460566
vn -0.4143646 0.6230036 -0.6634519
vn 0.6031421 0.7823674 0.15530917
vn 0.33054236 0.8124925 0.4802058
vn -0.74599016 0.6114012 -0.2639834
vn 0.39568955 0.6866907 -0.6098242
vn -0.79111296 0.60352397 -0.09949415
vn 0.55671567 0.8084198 -0.19111519
vn -0.5254237 0.7324663 0.43292385
vn -0.52232766 0.4519477 -0.72313005
vn 0.027305396 0.6719593 -0.7400845
vn 0.420284 0.86400366 0.27723467
vn 0.016251026 0.7668906 0.6415721
vn 0.0106627885 0.4670708 -0.88415563
vn -0.3956697 0.7609032 -0.5142682
vn 0.0056992867 0.89410573 0.44781974
vn 0.60477 0.6954511 0.38807377
vn 0.53459597 0.51679647 -0.6686767
vn -0.621775 0.77709186 -0.097591735
vn -0.4169898 0.8699491 0.2632641
vn 0.7829087 0.5829175 -0.2173964
vn 0.46104658 0.83728904 -0.29391012
vn 0.7382729 0.6464315 0.19256057
vn 0.6683429 0.60983044 -0.42593974
vn 0.6031421 0.7823674 0.15530917
vn 0.09187776 0.78805125 -0.60871476
vn 0.43715513 0.630824 0.6410588
vn 0.114401676 0.6391325 -0.7605405
vn 0.33054236 0.8124925 0.4802058
vn -0.29483518 0.78041184 -0.5513887
vn -0.15316762 0.63550913 0.75674826
vn -0.36037806 0.6441746 -0.67466044
vn -0.12008875 0.8049057 0.5811244
vn -0.5364467 0.8291469 -0.15729043
vn -0.6421729 0.6314321 0.43463477
vn -0.75724155 0.6141602 -0.2222444
vn -0.49345845 0.80425715 0.33116353
vn -0.3956697 0.7609032 -0.5142682
vn -0.573594 0.5079202 -0.64265627
vn -0.7615544 0.6449188 -0.064145505
vn -0.621775 0.77709186 -0.097591735
vn 0.027305396 0.6719593 -0.7400845
vn -0.55263704 0.71427476 0.42942262
vn 0.034500785 0.499132 -0.8658389
vn -0.4169898 0.8699491 0.2632641
vn 0.39568955 0.6866907 -0.6098242
vn 0.0042684916 0.7575747 0.6527345
vn 0.48378652 0.53401643 -0.6933809
vn 0.0056992867 0.89410573 0.44781974
vn 0.55671567 0.8084198 -0.19111519
vn 0.54623836 0.71584684 0.43495625
vn 0.7858946 0.5929719 -0.17536841
vn 0.420284 0.86400366 0.27723467
g shoes_SpeedIcon_0
f 3/3/3 2/2/2 1/1/1
f 2/2/2 4/4/4 1/1/1
f 2/2/2 5/5/5 4/4/4
f 1/1/1 4/4/4 6/6/6
f 7/7/7 1/1/1 6/6/6
f 7/7/7 6/6/6 8/8/8
f 9/9/9 7/7/7 8/8/8
f 9/9/9 8/8/8 10/10/10
f 8/8/8 11/11/11 10/10/10
f 14/14/14 13/13/13 12/12/12
f 13/13/13 14/14/14 15/15/15
f 14/14/14 16/16/16 15/15/15
f 15/15/15 16/16/16 17/17/17
f 20/20/20 19/19/19 18/18/18
f 19/19/19 21/21/21 18/18/18
f 18/18/18 21/21/21 22/22/22
f 23/23/23 18/18/18 22/22/22
f 23/23/23 22/22/22 24/24/24
f 22/22/22 25/25/25 24/24/24
f 26/26/26 24/24/24 25/25/25
f 21/21/21 19/19/19 27/27/27
f 27/27/27 19/19/19 28/28/28
f 22/22/22 21/21/21 29/29/29
f 22/22/22 29/29/29 25/25/25
f 21/21/21 30/30/30 29/29/29
f 21/21/21 27/27/27 30/30/30
f 29/29/29 31/31/31 25/25/25
f 27/27/27 32/32/32 30/30/30
f 33/33/33 25/25/25 31/31/31
f 33/33/33 26/26/26 25/25/25
f 26/26/26 33/33/33 34/34/34
f 35/35/35 33/33/33 31/31/31
f 33/33/33 35/35/35 34/34/34
f 36/36/36 26/26/26 34/34/34
f 35/35/35 37/37/37 34/34/34
f 38/38/38 36/36/36 34/34/34
f 27/27/27 39/39/39 32/32/32
f 39/39/39 40/40/40 32/32/32
f 34/34/34 37/37/37 41/41/41
f 39/39/39 41/41/41 40/40/40
f 37/37/37 42/42/42 41/41/41
f 41/41/41 42/42/42 40/40/40
f 38/38/38 34/34/34 43/43/43
f 34/34/34 41/41/41 43/43/43
f 43/43/43 41/41/41 39/39/39
f 44/44/44 43/43/43 39/39/39
f 39/39/39 27/27/27 44/44/44
f 27/27/27 28/28/28 44/44/44
f 38/38/38 46/46/46 45/45/45
f 45/45/45 46/46/46 47/47/47
f 47/47/47 46/46/46 48/48/48
f 28/28/28 49/49/49 48/48/48
f 49/49/49 47/47/47 48/48/48
f 52/52/52 51/51/51 50/50/50
f 52/52/52 50/50/50 53/53/53
f 50/50/50 54/54/54 53/53/53
f 53/53/53 55/55/55 52/52/52
f 54/54/54 56/56/56 53/53/53
f 55/55/55 57/57/57 52/52/52
f 58/58/58 56/56/56 54/54/54
f 57/57/57 59/59/59 52/52/52
f 60/60/60 58/58/58 54/54/54
f 58/58/58 60/60/60 61/61/61
f 60/60/60 62/62/62 61/61/61
f 63/63/63 61/61/61 62/62/62
f 64/64/64 63/63/63 62/62/62
f 59/59/59 57/57/57 65/65/65
f 66/66/66 59/59/59 65/65/65
f 66/66/66 65/65/65 67/67/67
f 65/65/65 68/68/68 67/67/67
f 63/63/63 64/64/64 69/69/69
f 64/64/64 70/70/70 69/69/69
f 71/71/71 67/67/67 68/68/68
f 69/69/69 70/70/70 71/71/71
f 72/72/72 71/71/71 68/68/68
f 72/72/72 69/69/69 71/71/71
f 75/75/75 74/74/74 73/73/73
f 73/73/73 76/76/76 75/75/75
f 73/73/73 77/77/77 76/76/76
f 77/77/77 78/78/78 76/76/76
f 77/77/77 79/79/79 78/78/78
f 79/79/79 80/80/80 78/78/78
f 83/83/83 82/82/82 81/81/81
f 81/81/81 84/84/84 83/83/83
f 84/84/84 85/85/85 83/83/83
f 84/84/84 86/86/86 85/85/85
f 86/86/86 87/87/87 85/85/85
f 86/86/86 88/88/88 87/87/87
f 91/91/91 90/90/90 89/89/89
f 92/92/92 91/91/91 89/89/89
f 95/95/95 94/94/94 93/93/93
f 96/96/96 95/95/95 93/93/93
f 99/99/99 98/98/98 97/97/97
f 100/100/100 99/99/99 97/97/97
f 103/103/103 102/102/102 101/101/101
f 104/104/104 103/103/103 101/101/101
f 107/107/107 106/106/106 105/105/105
f 108/108/108 107/107/107 105/105/105
f 111/111/111 110/110/110 109/109/109
f 112/112/112 111/111/111 109/109/109
f 115/115/115 114/114/114 113/113/113
f 116/116/116 115/115/115 113/113/113
f 119/119/119 118/118/118 117/117/117
f 120/120/120 119/119/119 117/117/117
f 123/123/123 122/122/122 121/121/121
f 124/124/124 123/123/123 121/121/121
f 125/125/125 123/123/123 124/124/124
f 124/124/124 121/121/121 126/126/126
f 121/121/121 127/127/127 126/126/126
f 126/126/126 127/127/127 128/128/128
f 127/127/127 129/129/129 128/128/128
f 128/128/128 129/129/129 130/130/130
f 131/131/131 128/128/128 130/130/130
f 134/134/134 133/133/133 132/132/132
f 133/133/133 134/134/134 135/135/135
f 136/136/136 133/133/133 135/135/135
f 136/136/136 135/135/135 137/137/137
f 140/140/140 139/139/139 138/138/138
f 141/141/141 140/140/140 138/138/138
f 141/141/141 138/138/138 142/142/142
f 138/138/138 143/143/143 142/142/142
f 142/142/142 143/143/143 144/144/144
f 145/145/145 142/142/142 144/144/144
f 144/144/144 146/146/146 145/145/145
f 140/140/140 141/141/141 147/147/147
f 140/140/140 147/147/147 148/148/148
f 141/141/141 142/142/142 149/149/149
f 149/149/149 142/142/142 145/145/145
f 150/150/150 141/141/141 149/149/149
f 147/147/147 141/141/141 150/150/150
f 151/151/151 149/149/149 145/145/145
f 152/152/152 147/147/147 150/150/150
f 145/145/145 153/153/153 151/151/151
f 146/146/146 153/153/153 145/145/145
f 153/153/153 146/146/146 154/154/154
f 153/153/153 155/155/155 151/151/151
f 155/155/155 153/153/153 154/154/154
f 146/146/146 156/156/156 154/154/154
f 157/157/157 155/155/155 154/154/154
f 156/156/156 158/158/158 154/154/154
f 159/159/159 147/147/147 152/152/152
f 160/160/160 159/159/159 152/152/152
f 157/157/157 154/154/154 161/161/161
f 161/161/161 159/159/159 160/160/160
f 162/162/162 157/157/157 161/161/161
f 162/162/162 161/161/161 160/160/160
f 154/154/154 158/158/158 163/163/163
f 161/161/161 154/154/154 163/163/163
f 161/161/161 163/163/163 159/159/159
f 163/163/163 164/164/164 159/159/159
f 147/147/147 159/159/159 164/164/164
f 148/148/148 147/147/147 164/164/164
f 166/166/166 158/158/158 165/165/165
f 166/166/166 165/165/165 167/167/167
f 166/166/166 167/167/167 168/168/168
f 169/169/169 148/148/148 168/168/168
f 167/167/167 169/169/169 168/168/168
f 172/172/172 171/171/171 170/170/170
f 172/172/172 170/170/170 173/173/173
f 174/174/174 173/173/173 170/170/170
f 173/173/173 175/175/175 172/172/172
f 176/176/176 174/174/174 170/170/170
f 177/177/177 172/172/172 175/175/175
f 178/178/178 177/177/177 175/175/175
f 178/178/178 179/179/179 177/177/177
f 179/179/179 180/180/180 177/177/177
f 180/180/180 179/179/179 181/181/181
f 182/182/182 180/180/180 181/181/181
f 181/181/181 183/183/183 182/182/182
f 183/183/183 184/184/184 182/182/182
f 174/174/174 176/176/176 185/185/185
f 176/176/176 186/186/186 185/185/185
f 185/185/185 186/186/186 187/187/187
f 188/188/188 185/185/185 187/187/187
f 184/184/184 183/183/183 189/189/189
f 190/190/190 184/184/184 189/189/189
f 187/187/187 191/191/191 188/188/188
f 190/190/190 189/189/189 191/191/191
f 191/191/191 192/192/192 188/188/188
f 189/189/189 192/192/192 191/191/191
f 195/195/195 194/194/194 193/193/193
f 193/193/193 196/196/196 195/195/195
f 193/193/193 197/197/197 196/196/196
f 197/197/197 198/198/198 196/196/196
f 198/198/198 199/199/199 196/196/196
f 198/198/198 200/200/200 199/199/199
f 203/203/203 202/202/202 201/201/201
f 201/201/201 204/204/204 203/203/203
f 204/204/204 205/205/205 203/203/203
f 204/204/204 206/206/206 205/205/205
f 204/204/204 207/207/207 206/206/206
f 207/207/207 208/208/208 206/206/206
f 211/211/211 210/210/210 209/209/209
f 212/212/212 211/211/211 209/209/209
f 215/215/215 214/214/214 213/213/213
f 216/216/216 215/215/215 213/213/213
f 219/219/219 218/218/218 217/217/217
f 220/220/220 219/219/219 217/217/217
f 223/223/223 222/222/222 221/221/221
f 224/224/224 223/223/223 221/221/221
f 227/227/227 226/226/226 225/225/225
f 228/228/228 227/227/227 225/225/225
f 231/231/231 230/230/230 229/229/229
f 232/232/232 231/231/231 229/229/229
f 235/235/235 234/234/234 233/233/233
f 236/236/236 235/235/235 233/233/233
f 239/239/239 238/238/238 237/237/237
f 240/240/240 239/239/239 237/237/237
f 243/243/243 242/242/242 241/241/241
f 243/243/243 241/241/241 244/244/244
f 245/245/245 242/242/242 243/243/243
f 243/243/243 244/244/244 246/246/246
f 247/247/247 245/245/245 243/243/243
f 248/248/248 243/243/243 246/246/246
f 249/249/249 247/247/247 243/243/243
f 249/249/249 243/243/243 248/248/248
f 252/252/252 251/251/251 250/250/250
f 250/250/250 251/251/251 253/253/253
f 252/252/252 254/254/254 251/251/251
f 253/253/253 251/251/251 255/255/255
f 254/254/254 256/256/256 251/251/251
f 251/251/251 257/257/257 255/255/255
f 256/256/256 258/258/258 251/251/251
f 251/251/251 258/258/258 257/257/257
f 261/261/261 260/260/260 259/259/259
f 262/262/262 261/261/261 259/259/259
f 261/261/261 263/263/263 260/260/260
f 262/262/262 259/259/259 264/264/264
f 263/263/263 265/265/265 260/260/260
f 266/266/266 262/262/262 264/264/264
f 263/263/263 267/267/267 265/265/265
f 266/266/266 264/264/264 268/268/268
f 267/267/267 269/269/269 265/265/265
f 270/270/270 266/266/266 268/268/268
f 267/267/267 271/271/271 269/269/269
f 270/270/270 268/268/268 272/272/272
f 271/271/271 273/273/273 269/269/269
f 274/274/274 270/270/270 272/272/272
f 274/274/274 272/272/272 273/273/273
f 271/271/271 274/274/274 273/273/273
f 277/277/277 276/276/276 275/275/275
f 276/276/276 278/278/278 275/275/275
f 279/279/279 276/276/276 277/277/277
f 275/275/275 278/278/278 280/280/280
f 281/281/281 279/279/279 277/277/277
f 278/278/278 282/282/282 280/280/280
f 283/283/283 279/279/279 281/281/281
f 280/280/280 282/282/282 284/284/284
f 285/285/285 283/283/283 281/281/281
f 282/282/282 286/286/286 284/284/284
f 287/287/287 283/283/283 285/285/285
f 284/284/284 286/286/286 288/288/288
f 289/289/289 287/287/287 285/285/285
f 286/286/286 290/290/290 288/288/288
f 290/290/290 287/287/287 289/289/289
f 288/288/288 290/290/290 289/289/289
f 293/293/293 292/292/292 291/291/291
f 292/292/292 294/294/294 291/291/291
f 293/293/293 291/291/291 295/295/295
f 292/292/292 296/296/296 294/294/294
f 297/297/297 293/293/293 295/295/295
f 296/296/296 298/298/298 294/294/294
f 297/297/297 295/295/295 299/299/299
f 296/296/296 300/300/300 298/298/298
f 301/301/301 297/297/297 299/299/299
f 300/300/300 302/302/302 298/298/298
f 301/301/301 299/299/299 303/303/303
f 300/300/300 304/304/304 302/302/302
f 305/305/305 301/301/301 303/303/303
f 304/304/304 306/306/306 302/302/302
f 305/305/305 303/303/303 306/306/306
f 304/304/304 305/305/305 306/306/306
f 309/309/309 308/308/308 307/307/307
f 310/310/310 309/309/309 307/307/307
f 307/307/307 308/308/308 311/311/311
f 312/312/312 309/309/309 310/310/310
f 308/308/308 313/313/313 311/311/311
f 314/314/314 312/312/312 310/310/310
f 311/311/311 313/313/313 315/315/315
f 316/316/316 312/312/312 314/314/314
f 313/313/313 317/317/317 315/315/315
f 318/318/318 316/316/316 314/314/314
f 315/315/315 317/317/317 319/319/319
f 320/320/320 316/316/316 318/318/318
f 317/317/317 321/321/321 319/319/319
f 322/322/322 320/320/320 318/318/318
f 319/319/319 321/321/321 322/322/322
f 321/321/321 320/320/320 322/322/322
