g shoe_Speed_R
v -0.46469387 0.0011036899 -0.3049314
v -0.006532401 0.0011012256 -0.6416866
v -0.30893552 0.0011036396 -0.58974785
v 0.49576345 0.0010988619 -0.30482316
v 0.22615054 0.0011012256 -0.590463
v 0.43535164 -0.00025127083 0.09304303
v -0.4231656 -0.0002464503 0.093040645
v 0.40651748 -0.00090669096 0.42638466
v -0.42069346 -0.00090381503 0.4263843
v -0.16704687 -0.0015989915 0.6982396
v 0.2272847 -0.0016014054 0.6945594
v -0.4647151 0.17560907 -0.3049314
v -0.26106724 0.3296495 -0.51426566
v -0.23923723 0.39423862 -0.21371418
v 0.21371976 0.33595294 -0.4920485
v 0.2115108 0.40124723 -0.21373826
v 0.49576655 0.17484133 -0.30482322
v 0.42695633 0.17073284 0.43145078
v 0.46042302 0.17368607 0.025756389
v 0.4599974 0.17073296 0.028563574
v 0.45769146 0.42096627 0.47708207
v 0.24757054 0.4245211 0.69806135
v 0.24966213 0.1707329 0.69597566
v -0.20367914 0.17073284 0.6988303
v -0.22272483 0.4245717 0.69970036
v -0.42581105 0.17073287 0.4392975
v 0.38214788 0.5024402 0.005329117
v 0.49576655 0.17484133 -0.30482322
v 0.24757054 0.7335808 0.682009
v 0.45787713 0.73358077 0.47585756
v -0.22618932 0.7335808 0.68299925
v 0.37970832 0.73201287 -0.0506064
v -0.4403874 0.45486844 0.48689294
v -0.43095747 0.51957905 0.0017100871
v -0.45613584 0.73358077 0.48029357
v -0.40800187 0.17073296 0.025833458
v -0.44537953 0.73201287 -0.05693862
v -0.4647151 0.17560907 -0.3049314
v 0.19203988 0.5839141 -0.21183026
v 0.18697503 0.73044485 -0.20849776
v -0.22618994 0.5842896 -0.21075916
v -0.23928562 0.73044485 -0.2074781
v -0.23923723 0.39423862 -0.21371418
v 0.2115108 0.40124723 -0.21373826
v -0.29198962 0.18062 -0.6265456
v -0.26106724 0.3296495 -0.51426566
v -0.007439822 0.1806417 -0.6781741
v 0.21371976 0.33595294 -0.4920485
v 0.22615054 0.18066813 -0.6266394
v 0.4599974 0.17073296 0.028563574
v 0.46042302 0.17368607 0.025756389
v 0.49576655 0.17484133 -0.30482322
v 0.49576345 0.0010988619 -0.30482316
v 0.43535164 -0.00025127083 0.09304303
v 0.22615054 0.0011012256 -0.590463
v 0.22615054 0.18066813 -0.6266394
v 0.42695633 0.17073284 0.43145078
v 0.40651748 -0.00090669096 0.42638466
v 0.2272847 -0.0016014054 0.6945594
v 0.24966213 0.1707329 0.69597566
v -0.16704687 -0.0015989915 0.6982396
v -0.20367914 0.17073284 0.6988303
v -0.42069346 -0.00090381503 0.4263843
v -0.42581105 0.17073287 0.4392975
v -0.006532401 0.0011012256 -0.6416866
v -0.007439822 0.1806417 -0.6781741
v -0.29198962 0.18062 -0.6265456
v -0.30893552 0.0011036396 -0.58974785
v -0.4231656 -0.0002464503 0.093040645
v -0.40800187 0.17073296 0.025833458
v -0.4647151 0.17560907 -0.3049314
v -0.46469387 0.0011036899 -0.3049314
v 0.4342344 0.6483579 0.6382624
v 0.4342344 0.62710154 0.41987848
v 0.4342344 0.65460026 0.35523075
v 0.4342344 0.8144768 0.80127364
v 0.4342344 0.8375642 0.47096556
v 0.4342344 0.9044928 0.6589683
v 0.4342344 0.9989701 0.8007727
v 0.4342344 1.0184473 0.77156967
v 0.52091396 0.65460026 0.35523075
v 0.52091396 0.62710154 0.41987848
v 0.52091396 0.6483579 0.6382624
v 0.52091396 0.8144768 0.80127364
v 0.52091396 0.8375642 0.47096556
v 0.52091396 0.9044928 0.6589683
v 0.52091396 0.9989701 0.8007727
v 0.52091396 1.0184473 0.77156967
v 0.4342344 0.65460026 0.35523075
v 0.4342344 0.62710154 0.41987848
v 0.52091396 0.62710154 0.41987848
v 0.52091396 0.65460026 0.35523075
v 0.4342344 0.6483579 0.6382624
v 0.4342344 0.8144768 0.80127364
v 0.52091396 0.8144768 0.80127364
v 0.52091396 0.6483579 0.6382624
v 0.4342344 0.9989701 0.8007727
v 0.4342344 1.0184473 0.77156967
v 0.52091396 1.0184473 0.77156967
v 0.52091396 0.9989701 0.8007727
v 0.4342344 0.9044928 0.6589683
v 0.4342344 0.8375642 0.47096556
v 0.52091396 0.8375642 0.47096556
v 0.52091396 0.9044928 0.6589683
v 0.4342344 0.62710154 0.41987848
v 0.4342344 0.6483579 0.6382624
v 0.52091396 0.6483579 0.6382624
v 0.52091396 0.62710154 0.41987848
v 0.4342344 0.8144768 0.80127364
v 0.4342344 0.9989701 0.8007727
v 0.52091396 0.9989701 0.8007727
v 0.52091396 0.8144768 0.80127364
v 0.4342344 1.0184473 0.77156967
v 0.4342344 0.9044928 0.6589683
v 0.52091396 0.9044928 0.6589683
v 0.52091396 1.0184473 0.77156967
v 0.4342344 0.8375642 0.47096556
v 0.4342344 0.65460026 0.35523075
v 0.52091396 0.65460026 0.35523075
v 0.52091396 0.8375642 0.47096556
v 0.38548663 0.5712002 0.47267908
v -0.026374847 0.5712611 0.23694284
v 0.315527 0.5697463 -0.01644367
v 0.20962647 0.5711879 0.6126283
v 0.15664867 0.56837493 -0.18670174
v -0.18503809 0.5712611 0.613469
v -0.21096268 0.56832284 -0.18582216
v -0.38598874 0.5711383 0.4734189
v -0.3763437 0.5695738 -0.025984228
v -0.18503067 0.7335808 0.6130099
v -0.45613584 0.73358077 0.48029357
v -0.38597888 0.73345804 0.47295988
v -0.22618932 0.7335808 0.68299925
v -0.44537953 0.73201287 -0.05693862
v 0.20963386 0.7335076 0.61216927
v -0.37633383 0.7318935 -0.026443273
v 0.24757054 0.7335808 0.682009
v -0.23928562 0.73044485 -0.2074781
v 0.38549653 0.7335199 0.47222
v -0.21095279 0.7306425 -0.1862812
v 0.45787713 0.73358077 0.47585756
v 0.18697503 0.73044485 -0.20849776
v 0.3155369 0.73206604 -0.016902715
v 0.15665856 0.73069465 -0.18716079
v 0.37970832 0.73201287 -0.0506064
v 0.38549653 0.7335199 0.47222
v 0.38548663 0.5712002 0.47267908
v 0.315527 0.5697463 -0.01644367
v 0.3155369 0.73206604 -0.016902715
v 0.20963386 0.7335076 0.61216927
v 0.15664867 0.56837493 -0.18670174
v 0.20962647 0.5711879 0.6126283
v 0.15665856 0.73069465 -0.18716079
v -0.18503067 0.7335808 0.6130099
v -0.21096268 0.56832284 -0.18582216
v -0.18503809 0.5712611 0.613469
v -0.21095279 0.7306425 -0.1862812
v -0.38597888 0.73345804 0.47295988
v -0.3763437 0.5695738 -0.025984228
v -0.38598874 0.5711383 0.4734189
v -0.37633383 0.7318935 -0.026443273
vt 0.21513394 0.8442795
vt 0.21513394 0.8442795
vt 0.21513394 0.8442795
vt 0.21513394 0.8442795
vt 0.21513394 0.8442795
vt 0.21513394 0.8442795
vt 0.21513394 0.8442795
vt 0.21513394 0.8442795
vt 0.21513394 0.8442795
vt 0.21513394 0.8442795
vt 0.21513394 0.8442795
vt 0.09420629 0.97110605
vt 0.09420629 0.97110605
vt 0.09420629 0.97110605
vt 0.09420629 0.97110605
vt 0.09420629 0.97110605
vt 0.09420629 0.97110605
vt 0.21513394 0.8442795
vt 0.21513394 0.8442795
vt 0.21513394 0.8442795
vt 0.21513394 0.8442795
vt 0.21513394 0.8442795
vt 0.21513394 0.8442795
vt 0.21513394 0.8442795
vt 0.21513394 0.8442795
vt 0.2151339 0.8442794
vt 0.21513394 0.8442795
vt 0.21513394 0.8442795
vt 0.21513394 0.8442795
vt 0.21513394 0.8442795
vt 0.21513394 0.8442795
vt 0.21513394 0.8442795
vt 0.21513394 0.8442795
vt 0.21513394 0.8442795
vt 0.21513394 0.8442795
vt 0.21513394 0.8442795
vt 0.21513394 0.8442795
vt 0.21513394 0.8442795
vt 0.21513394 0.8442795
vt 0.21513394 0.8442795
vt 0.21513394 0.8442795
vt 0.21513394 0.8442795
vt 0.21513394 0.8442795
vt 0.21513394 0.8442795
vt 0.21513394 0.8442795
vt 0.21513394 0.8442795
vt 0.21513394 0.8442795
vt 0.21513394 0.8442795
vt 0.21513394 0.8442795
vt 0.029318124 0.9681567
vt 0.029318124 0.9681567
vt 0.029318124 0.9681567
vt 0.029318124 0.9681567
vt 0.029318124 0.9681567
vt 0.029318124 0.9681567
vt 0.029318124 0.9681567
vt 0.029318124 0.9681567
vt 0.029318124 0.9681567
vt 0.029318124 0.9681567
vt 0.029318124 0.9681567
vt 0.029318124 0.9681567
vt 0.029318124 0.9681567
vt 0.029318124 0.9681567
vt 0.029318124 0.9681567
vt 0.029318124 0.9681567
vt 0.029318124 0.9681567
vt 0.029318124 0.9681567
vt 0.029318124 0.9681567
vt 0.029318124 0.9681567
vt 0.029318124 0.9681567
vt 0.029318124 0.9681567
vt 0.029318124 0.9681567
vt 0.5292508 0.030230165
vt 0.5292508 0.030230165
vt 0.5292508 0.030230165
vt 0.5292508 0.030230165
vt 0.5292508 0.030230165
vt 0.5292508 0.030230165
vt 0.5292508 0.030230165
vt 0.5292508 0.030230165
vt 0.5292508 0.030230165
vt 0.5292508 0.030230165
vt 0.5292508 0.030230165
vt 0.5292508 0.030230165
vt 0.5292508 0.030230165
vt 0.5292508 0.030230165
vt 0.5292508 0.030230165
vt 0.5292508 0.030230165
vt 0.5292508 0.030230165
vt 0.5292508 0.030230165
vt 0.5292508 0.030230165
vt 0.5292508 0.030230165
vt 0.5292508 0.030230165
vt 0.5292508 0.030230165
vt 0.5292508 0.030230165
vt 0.5292508 0.030230165
vt 0.5292508 0.030230165
vt 0.5292508 0.030230165
vt 0.5292508 0.030230165
vt 0.5292508 0.030230165
vt 0.5292508 0.030230165
vt 0.5292508 0.030230165
vt 0.5292508 0.030230165
vt 0.5292508 0.030230165
vt 0.5292508 0.030230165
vt 0.5292508 0.030230165
vt 0.5292508 0.030230165
vt 0.5292508 0.030230165
vt 0.5292508 0.030230165
vt 0.5292508 0.030230165
vt 0.5292508 0.030230165
vt 0.5292508 0.030230165
vt 0.5292508 0.030230165
vt 0.5292508 0.030230165
vt 0.5292508 0.030230165
vt 0.5292508 0.030230165
vt 0.5292508 0.030230165
vt 0.5292508 0.030230165
vt 0.5292508 0.030230165
vt 0.5292508 0.030230165
vt 0.468292 0.8421174
vt 0.468292 0.8421174
vt 0.468292 0.8421174
vt 0.468292 0.8421174
vt 0.468292 0.8421174
vt 0.468292 0.8421174
vt 0.468292 0.8421174
vt 0.468292 0.8421174
vt 0.468292 0.8421174
vt 0.21513394 0.8442795
vt 0.21513394 0.8442795
vt 0.21513394 0.8442795
vt 0.21513394 0.8442795
vt 0.21513394 0.8442795
vt 0.21513394 0.8442795
vt 0.21513394 0.8442795
vt 0.21513394 0.8442795
vt 0.21513394 0.8442795
vt 0.21513394 0.8442795
vt 0.21513394 0.8442795
vt 0.21513394 0.8442795
vt 0.21513394 0.8442795
vt 0.21513394 0.8442795
vt 0.21513394 0.8442795
vt 0.21513394 0.8442795
vt 0.34177193 0.8413012
vt 0.34177193 0.8413012
vt 0.34177193 0.8413012
vt 0.34177193 0.8413012
vt 0.34177193 0.8413012
vt 0.34177193 0.8413012
vt 0.34177193 0.8413012
vt 0.34177193 0.8413012
vt 0.34177193 0.8413012
vt 0.34177193 0.8413012
vt 0.34177193 0.8413012
vt 0.34177193 0.8413012
vt 0.34177193 0.8413012
vt 0.34177193 0.8413012
vt 0.34177193 0.8413012
vt 0.34177193 0.8413012
vn -0 -1 0
vn -0 -1 0
vn -0 -1 0
vn -0 -1 0
vn -0 -1 -1.0445601E-05
vn -0 -0.9999943 -0.0033930938
vn -0 -0.9999943 -0.0033930938
vn -1.2078733E-05 -0.9999968 -0.002572056
vn -1.2078733E-05 -0.9999968 -0.002572056
vn -1.2078733E-05 -0.9999968 -0.002572056
vn -1.2078733E-05 -0.9999968 -0.002572056
vn -0.9341431 0.27515456 -0.22730274
vn -0.39151525 0.79955745 -0.45543793
vn -0.3828401 0.62197477 -0.68306726
vn 0.33611688 0.81955713 -0.4640599
vn 0.38473922 0.6436623 -0.6615699
vn 0.90691644 0.27583453 -0.31846163
vn 0.9340539 -0.12203135 0.33563644
vn 0.9961273 0.053221785 0.0699854
vn 0.9903804 -0.09282647 0.102615274
vn 0.9422193 -0.021589734 0.33430025
vn 0.4072964 -0.009717955 0.91324437
vn 0.4682948 -0.065722786 0.88112456
vn -0.41439626 -0.06616115 0.90768844
vn -0.38694322 -0.017118195 0.9219446
vn -0.93909585 -0.069208905 0.33661398
vn 0.9187236 0.17670612 -0.35315993
vn 0.90691644 0.27583453 -0.31846163
vn 0.2992313 0.6465879 0.7017013
vn 0.7477797 0.61930823 0.23933835
vn -0.28222987 0.6481547 0.7072777
vn 0.6836653 0.6114014 -0.39848453
vn -0.91924864 -0.058344 0.38932997
vn -0.95068234 0.015741903 -0.30976653
vn -0.7324367 0.6116522 0.2990285
vn -0.99763584 -0.0012443569 0.06871119
vn -0.72157466 0.5683615 -0.3953419
vn -0.9341431 0.27515456 -0.22730274
vn 0.38319242 0.00070867 -0.9236682
vn 0.2833548 0.6230038 -0.72909284
vn -0.35116854 -0.0244846 -0.93599206
vn -0.28511983 0.610654 -0.7387885
vn -0.3828401 0.62197477 -0.68306726
vn 0.38473922 0.6436623 -0.6615699
vn -0.5307254 0.23459285 -0.81443036
vn -0.39151525 0.79955745 -0.45543793
vn 0.02287616 0.27621135 -0.9608246
vn 0.33611688 0.81955713 -0.4640599
vn 0.47019204 0.24637489 -0.84747785
vn 0.9903804 -0.09282647 0.102615274
vn 0.9961273 0.053221785 0.0699854
vn 0.90691644 0.27583453 -0.31846163
vn 0.7299871 -0.6453728 -0.22497289
vn 0.6633775 -0.74539536 0.065696724
vn 0.37683126 -0.69541276 -0.61188185
vn 0.47019204 0.24637489 -0.84747785
vn 0.9340539 -0.12203135 0.33563644
vn 0.6752109 -0.69862944 0.23665825
vn 0.3419464 -0.64004034 0.68805605
vn 0.4682948 -0.065722786 0.88112456
vn -0.27245334 -0.64921254 0.7101354
vn -0.41439626 -0.06616115 0.90768844
vn -0.7153611 -0.6516978 0.25208807
vn -0.93909585 -0.069208905 0.33661398
vn 0.015038389 -0.73629683 -0.6764915
vn 0.02287616 0.27621135 -0.9608246
vn -0.5307254 0.23459285 -0.81443036
vn -0.47392863 -0.6576694 -0.5855446
vn -0.7105082 -0.7032252 0.025540771
vn -0.99763584 -0.0012443569 0.06871119
vn -0.9341431 0.27515456 -0.22730274
vn -0.7616141 -0.6325816 -0.1406572
vn -1 0 0
vn -1 0 0
vn -1 0 0
vn -1 0 0
vn -1 0 0
vn -1 0 0
vn -1 0 0
vn -1 0 0
vn 1 0 0
vn 1 0 0
vn 1 0 0
vn 1 0 0
vn 1 0 0
vn 1 0 0
vn 1 0 0
vn 1 0 0
vn -0 -0.9202107 -0.39142334
vn -0 -0.9202107 -0.39142334
vn -0 -0.9202107 -0.39142334
vn -0 -0.9202107 -0.39142334
vn -0 -0.7003989 0.7137515
vn -0 -0.7003989 0.7137515
vn -0 -0.7003989 0.7137515
vn -0 -0.7003989 0.7137515
vn -0 0.8319385 0.5548679
vn -0 0.8319385 0.5548679
vn -0 0.8319385 0.5548679
vn -0 0.8319385 0.5548679
vn -0 0.94208294 -0.33537984
vn -0 0.94208294 -0.33537984
vn -0 0.94208294 -0.33537984
vn -0 0.94208294 -0.33537984
vn -0 -0.9952964 0.09687711
vn -0 -0.9952964 0.09687711
vn -0 -0.9952964 0.09687711
vn -0 -0.9952964 0.09687711
vn -0 0.002715257 0.9999963
vn -0 0.002715257 0.9999963
vn -0 0.002715257 0.9999963
vn -0 0.002715257 0.9999963
vn -0 0.7028709 -0.7113175
vn -0 0.7028709 -0.7113175
vn -0 0.7028709 -0.7113175
vn -0 0.7028709 -0.7113175
vn -0 0.5345828 -0.8451161
vn -0 0.5345828 -0.8451161
vn -0 0.5345828 -0.8451161
vn -0 0.5345828 -0.8451161
vn -0.7360568 0.6098305 -0.29381472
vn -0.00016297279 0.9999945 -0.003305989
vn -0.68940455 0.6464315 0.32687542
vn -0.2542411 0.6391325 -0.7258588
vn -0.3099219 0.63082427 0.7113433
vn 0.22822492 0.64417464 -0.73003596
vn 0.29161954 0.6355092 0.7149029
vn 0.70250416 0.6141602 -0.35957634
vn 0.7119677 0.63143224 0.30723807
vn 0.18682325 0.7804118 -0.596703
vn -0.7324367 0.6116522 0.2990285
vn 0.4976969 0.8291477 -0.25458205
vn -0.28222987 0.6481547 0.7072777
vn -0.72157466 0.5683615 -0.3953419
vn -0.20379598 0.78805125 -0.580898
vn 0.5465635 0.80425787 0.23331887
vn 0.2992313 0.6465879 0.7017013
vn -0.28511983 0.610654 -0.7387885
vn -0.50777394 0.8372887 -0.20276406
vn 0.2263659 0.8049057 0.5485301
vn 0.7477797 0.61930823 0.23933835
vn 0.2833548 0.6230038 -0.72909284
vn -0.5635929 0.7823673 0.26507458
vn -0.23518014 0.81249267 0.53342855
vn 0.6836653 0.6114014 -0.39848453
vn -0.50777394 0.8372887 -0.20276406
vn -0.7360568 0.6098305 -0.29381472
vn -0.68940455 0.6464315 0.32687542
vn -0.5635929 0.7823673 0.26507458
vn -0.20379598 0.78805125 -0.580898
vn -0.3099219 0.63082427 0.7113433
vn -0.2542411 0.6391325 -0.7258588
vn -0.23518014 0.81249267 0.53342855
vn 0.18682325 0.7804118 -0.596703
vn 0.29161954 0.6355092 0.7149029
vn 0.22822492 0.64417464 -0.73003596
vn 0.2263659 0.8049057 0.5485301
vn 0.4976969 0.8291477 -0.25458205
vn 0.7119677 0.63143224 0.30723807
vn 0.70250416 0.6141602 -0.35957634
vn 0.5465635 0.80425787 0.23331887
g shoe_Speed_R_0
f 3/3/3 2/2/2 1/1/1
f 2/2/2 4/4/4 1/1/1
f 2/2/2 5/5/5 4/4/4
f 1/1/1 4/4/4 6/6/6
f 7/7/7 1/1/1 6/6/6
f 7/7/7 6/6/6 8/8/8
f 9/9/9 7/7/7 8/8/8
f 9/9/9 8/8/8 10/10/10
f 8/8/8 11/11/11 10/10/10
f 14/14/14 13/13/13 12/12/12
f 13/13/13 14/14/14 15/15/15
f 14/14/14 16/16/16 15/15/15
f 15/15/15 16/16/16 17/17/17
f 20/20/20 19/19/19 18/18/18
f 19/19/19 21/21/21 18/18/18
f 18/18/18 21/21/21 22/22/22
f 23/23/23 18/18/18 22/22/22
f 23/23/23 22/22/22 24/24/24
f 22/22/22 25/25/25 24/24/24
f 26/26/26 24/24/24 25/25/25
f 21/21/21 19/19/19 27/27/27
f 27/27/27 19/19/19 28/28/28
f 22/22/22 21/21/21 29/29/29
f 22/22/22 29/29/29 25/25/25
f 21/21/21 30/30/30 29/29/29
f 21/21/21 27/27/27 30/30/30
f 29/29/29 31/31/31 25/25/25
f 27/27/27 32/32/32 30/30/30
f 33/33/33 25/25/25 31/31/31
f 33/33/33 26/26/26 25/25/25
f 26/26/26 33/33/33 34/34/34
f 35/35/35 33/33/33 31/31/31
f 33/33/33 35/35/35 34/34/34
f 36/36/36 26/26/26 34/34/34
f 35/35/35 37/37/37 34/34/34
f 38/38/38 36/36/36 34/34/34
f 27/27/27 39/39/39 32/32/32
f 39/39/39 40/40/40 32/32/32
f 34/34/34 37/37/37 41/41/41
f 39/39/39 41/41/41 40/40/40
f 37/37/37 42/42/42 41/41/41
f 41/41/41 42/42/42 40/40/40
f 38/38/38 34/34/34 43/43/43
f 34/34/34 41/41/41 43/43/43
f 43/43/43 41/41/41 39/39/39
f 44/44/44 43/43/43 39/39/39
f 39/39/39 27/27/27 44/44/44
f 27/27/27 28/28/28 44/44/44
f 38/38/38 46/46/46 45/45/45
f 45/45/45 46/46/46 47/47/47
f 47/47/47 46/46/46 48/48/48
f 28/28/28 49/49/49 48/48/48
f 49/49/49 47/47/47 48/48/48
f 52/52/52 51/51/51 50/50/50
f 53/53/53 52/52/52 50/50/50
f 50/50/50 54/54/54 53/53/53
f 53/53/53 55/55/55 52/52/52
f 55/55/55 56/56/56 52/52/52
f 50/50/50 57/57/57 54/54/54
f 57/57/57 58/58/58 54/54/54
f 59/59/59 58/58/58 57/57/57
f 60/60/60 59/59/59 57/57/57
f 59/59/59 60/60/60 61/61/61
f 60/60/60 62/62/62 61/61/61
f 63/63/63 61/61/61 62/62/62
f 64/64/64 63/63/63 62/62/62
f 56/56/56 55/55/55 65/65/65
f 66/66/66 56/56/56 65/65/65
f 66/66/66 65/65/65 67/67/67
f 65/65/65 68/68/68 67/67/67
f 63/63/63 64/64/64 69/69/69
f 64/64/64 70/70/70 69/69/69
f 71/71/71 67/67/67 68/68/68
f 69/69/69 70/70/70 71/71/71
f 72/72/72 71/71/71 68/68/68
f 72/72/72 69/69/69 71/71/71
f 75/75/75 74/74/74 73/73/73
f 73/73/73 76/76/76 75/75/75
f 76/76/76 77/77/77 75/75/75
f 76/76/76 78/78/78 77/77/77
f 76/76/76 79/79/79 78/78/78
f 79/79/79 80/80/80 78/78/78
f 83/83/83 82/82/82 81/81/81
f 81/81/81 84/84/84 83/83/83
f 81/81/81 85/85/85 84/84/84
f 85/85/85 86/86/86 84/84/84
f 86/86/86 87/87/87 84/84/84
f 86/86/86 88/88/88 87/87/87
f 91/91/91 90/90/90 89/89/89
f 92/92/92 91/91/91 89/89/89
f 95/95/95 94/94/94 93/93/93
f 96/96/96 95/95/95 93/93/93
f 99/99/99 98/98/98 97/97/97
f 100/100/100 99/99/99 97/97/97
f 103/103/103 102/102/102 101/101/101
f 104/104/104 103/103/103 101/101/101
f 107/107/107 106/106/106 105/105/105
f 108/108/108 107/107/107 105/105/105
f 111/111/111 110/110/110 109/109/109
f 112/112/112 111/111/111 109/109/109
f 115/115/115 114/114/114 113/113/113
f 116/116/116 115/115/115 113/113/113
f 119/119/119 118/118/118 117/117/117
f 120/120/120 119/119/119 117/117/117
f 123/123/123 122/122/122 121/121/121
f 121/121/121 122/122/122 124/124/124
f 123/123/123 125/125/125 122/122/122
f 124/124/124 122/122/122 126/126/126
f 125/125/125 127/127/127 122/122/122
f 122/122/122 128/128/128 126/126/126
f 127/127/127 129/129/129 122/122/122
f 122/122/122 129/129/129 128/128/128
f 132/132/132 131/131/131 130/130/130
f 131/131/131 133/133/133 130/130/130
f 134/134/134 131/131/131 132/132/132
f 130/130/130 133/133/133 135/135/135
f 136/136/136 134/134/134 132/132/132
f 133/133/133 137/137/137 135/135/135
f 138/138/138 134/134/134 136/136/136
f 135/135/135 137/137/137 139/139/139
f 140/140/140 138/138/138 136/136/136
f 137/137/137 141/141/141 139/139/139
f 142/142/142 138/138/138 140/140/140
f 139/139/139 141/141/141 143/143/143
f 144/144/144 142/142/142 140/140/140
f 141/141/141 145/145/145 143/143/143
f 145/145/145 142/142/142 144/144/144
f 143/143/143 145/145/145 144/144/144
f 148/148/148 147/147/147 146/146/146
f 149/149/149 148/148/148 146/146/146
f 146/146/146 147/147/147 150/150/150
f 151/151/151 148/148/148 149/149/149
f 147/147/147 152/152/152 150/150/150
f 153/153/153 151/151/151 149/149/149
f 150/150/150 152/152/152 154/154/154
f 155/155/155 151/151/151 153/153/153
f 152/152/152 156/156/156 154/154/154
f 157/157/157 155/155/155 153/153/153
f 154/154/154 156/156/156 158/158/158
f 159/159/159 155/155/155 157/157/157
f 156/156/156 160/160/160 158/158/158
f 161/161/161 159/159/159 157/157/157
f 158/158/158 160/160/160 161/161/161
f 160/160/160 159/159/159 161/161/161
