g Skyscraper
v 3.0437593 32.943226 -7.5171814
v 5.647318 28.041496 -5.7919383
v 5.6634574 32.587894 -5.7533903
v 3.0137885 27.705473 -7.5675974
v -0.046363734 33.36223 -8.136564
v -0.09254723 27.308527 -8.191215
v -3.1364737 33.781082 -7.517235
v -3.1987953 26.91097 -7.5678277
v -5.756144 34.136066 -5.7534714
v -5.8321357 26.573494 -5.7922854
v -7.506557 34.37321 -3.1137679
v -7.591684 26.347782 -3.134813
v -8.121208 34.456474 -2.817702E-06
v -8.209503 26.268496 -1.20487275E-05
v -7.5065203 34.37322 3.113748
v -7.591527 26.347815 3.134728
v -5.7561 34.136078 5.7534256
v -5.831951 26.573534 5.7920933
v -3.136452 33.781086 7.5171914
v -3.1987045 26.910994 7.567645
v -0.04635774 33.362225 8.136562
v -0.09252171 27.308533 8.1912155
v 3.0437856 32.943226 7.5172315
v 3.0138996 27.705496 7.5678153
v -2.0320067 39.42575 -2.8878362
v -1.3903146 39.42575 -2.9323103
v -0.7486224 39.42575 -2.8878362
v -2.2459042 39.42575 -2.7544155
v -0.53472507 39.42575 -2.7544155
v -2.2459042 39.42575 2.861979
v -0.53472507 39.42575 -0.76368743
v 0.6512405 39.42575 -0.76368743
v -0.53472507 39.42575 0.9136067
v -0.53472507 39.42575 2.861979
v -2.0320067 39.42575 2.9699864
v -0.7486224 39.42575 2.9699864
v -1.3903146 39.42575 3.005989
v 0.6512405 39.42575 0.9136067
v 2.3624194 39.42575 2.861979
v 0.6512405 39.42575 2.861979
v 0.8651382 39.42575 2.9699864
v 2.1485221 39.42575 2.9699864
v 1.5068299 39.42575 3.005989
v 2.3624194 39.42575 -2.737473
v 0.6512405 39.42575 -2.737473
v 2.2565296 39.42575 -2.839127
v 0.7571303 39.42575 -2.839127
v 1.9388604 39.42575 -2.9068966
v 1.0747998 39.42575 -2.9068966
v -1.6168281 39.358013 -3.9033685
v 2.6966313E-07 39.358013 -4.224976
v 1.6168286 39.358013 -3.9033685
v -2.987509 39.358013 -2.9875088
v 2.9875097 39.358013 -2.9875088
v -3.9033685 39.358013 -1.6168284
v 3.9033687 39.358013 -1.6168284
v -4.224976 39.358013 6.2065205E-08
v 4.2249765 39.358013 6.2065205E-08
v -3.9033685 39.358013 1.6168286
v 3.9033687 39.358013 1.6168286
v -2.987509 39.358013 2.9875088
v 2.9875097 39.358013 2.9875088
v -1.6168281 39.358013 3.9033694
v 1.6168286 39.358013 3.9033694
v 2.6966313E-07 39.358013 4.224976
v -8.34814 25.50269 -3.5128899
v -6.375317 25.754223 -6.491117
v -5.8321357 26.573494 -5.7922854
v -7.591684 26.347782 -3.134813
v -7.591684 26.347782 -3.134813
v -9.040798 25.414423 -1.4432253E-05
v -8.209503 26.268496 -1.20487275E-05
v -8.347963 25.502724 3.5127928
v -7.591527 26.347815 3.134728
v -6.3751097 25.754267 6.4909
v -5.831951 26.573534 5.7920933
v -3.422512 26.131083 8.480946
v -3.1987045 26.910994 7.567645
v 7.4073257 28.265808 3.1346896
v 8.02515 28.344486 1.3563882E-05
v 9.1605625 27.74248 1.4373564E-05
v 8.468006 27.65355 3.513066
v 5.647575 28.04155 5.792197
v 6.495396 27.400393 6.491286
v 8.02515 28.344486 1.3563882E-05
v 8.467738 27.653494 -3.5129323
v 7.407087 28.265759 -3.1345687
v 3.0138996 27.705496 7.5678153
v 5.647575 28.04155 5.792197
v 3.543014 27.021933 8.481201
v -3.1987953 26.91097 -7.5678277
v -5.8321357 26.573494 -5.7922854
v -6.375317 25.754223 -6.491117
v -3.422614 26.131063 -8.481153
v -0.09254723 27.308527 -8.191215
v -3.1987953 26.91097 -7.5678277
v -3.422614 26.131063 -8.481153
v 0.060270704 26.576166 -9.179869
v 3.0137885 27.705473 -7.5675974
v -0.09254723 27.308527 -8.191215
v 3.5428913 27.021906 -8.480962
v -3.1987045 26.910994 7.567645
v 0.0602992 26.576172 9.17987
v -3.422512 26.131083 8.480946
v -0.09252171 27.308533 8.1912155
v 3.543014 27.021933 8.481201
v 3.0138996 27.705496 7.5678153
v 7.407087 28.265759 -3.1345687
v 5.647318 28.041496 -5.7919383
v 6.495109 27.400333 -6.491
v 8.467738 27.653494 -3.5129323
v 3.5428913 27.021906 -8.480962
v 6.495109 27.400333 -6.491
v 5.647318 28.041496 -5.7919383
v 3.0137885 27.705473 -7.5675974
v 7.4073257 28.265808 3.1346896
v 7.413963 32.35042 3.1137393
v 8.028607 32.267014 3.1740253E-06
v 8.02515 28.344486 1.3563882E-05
v 8.028607 32.267014 3.1740253E-06
v 7.4139047 32.350414 -3.113711
v 7.407087 28.265759 -3.1345687
v 7.407087 28.265759 -3.1345687
v 7.4139047 32.350414 -3.113711
v 5.6634574 32.587894 -5.7533903
v 5.647318 28.041496 -5.7919383
v 3.0138996 27.705496 7.5678153
v 3.0437856 32.943226 7.5172315
v 5.6635184 32.587906 5.7534494
v 5.647575 28.04155 5.792197
v 7.413963 32.35042 3.1137393
v 7.4073257 28.265808 3.1346896
v -8.347963 25.502724 3.5127928
v -8.338934 23.653791 3.5128133
v -9.030494 23.560785 -1.2897893E-05
v -9.040798 25.414423 -1.4432253E-05
v -8.33909 23.653757 -3.5129
v -8.34814 25.50269 -3.5128899
v -6.369876 23.91868 -6.4911203
v -6.375317 25.754223 -6.491117
v -3.4225981 24.315517 -8.481147
v -3.422614 26.131063 -8.481153
v 0.053883813 24.784147 -9.179869
v 0.060270704 26.576166 -9.179869
v 3.530118 25.253342 -8.480975
v 3.5428913 27.021906 -8.480962
v 6.476934 25.651588 -6.491017
v 6.495109 27.400333 -6.491
v 8.445946 25.917961 -3.5129378
v 8.467738 27.653494 -3.5129323
v 9.1374855 26.011576 1.2845445E-05
v 9.1605625 27.74248 1.4373564E-05
v 8.446184 25.918015 3.5130572
v 8.468006 27.65355 3.513066
v 6.477189 25.651646 6.491272
v 6.495396 27.400393 6.491286
v 3.530228 25.253366 8.48119
v 3.543014 27.021933 8.481201
v 0.05390915 24.784153 9.17987
v 0.0602992 26.576172 9.17987
v -3.4225075 24.315538 8.480961
v -3.422512 26.131083 8.480946
v -6.369692 23.918722 6.4909263
v -6.3751097 25.754267 6.4909
v -8.338934 23.653791 3.5128133
v -3.44807 20.79462 -8.481131
v -3.4225981 24.315517 -8.481147
v -6.369876 23.91868 -6.4911203
v -6.402905 20.519573 -6.491129
v -8.33909 23.653757 -3.5129
v -8.377196 20.33595 -3.5129259
v -9.030494 23.560785 -1.2897893E-05
v -9.070413 20.271515 -8.9395735E-06
v -8.338934 23.653791 3.5128133
v -8.377088 20.335976 3.5128658
v -8.377088 20.335976 3.5128658
v -6.369692 23.918722 6.4909263
v -6.4027767 20.519602 6.490994
v 0.037346985 21.119429 -9.179869
v -3.4225981 24.315517 -8.481147
v 0.053883813 24.784147 -9.179869
v 3.522592 21.444628 -8.481011
v 3.530118 25.253342 -8.480975
v 6.477106 21.720655 -6.491057
v 6.476934 25.651588 -6.491017
v 8.451259 21.905281 -3.512952
v 8.445946 25.917961 -3.5129378
v 9.144568 21.970165 8.903222E-06
v 9.1374855 26.011576 1.2845445E-05
v 8.451423 21.905317 3.5130346
v 8.446184 25.918015 3.5130572
v 6.477283 21.720697 6.4912333
v 6.477189 25.651646 6.491272
v 3.5226684 21.444645 8.48116
v 3.530228 25.253366 8.48119
v 0.03736455 21.119432 9.17987
v 0.05390915 24.784153 9.17987
v -3.448007 20.794636 8.481001
v -3.4225075 24.315538 8.480961
v -6.4027767 20.519602 6.490994
v -6.369692 23.918722 6.4909263
v -8.415242 7.3748264 3.512918
v -8.453397 4.5482235 3.5129704
v -9.150249 4.5408483 -1.0229362E-06
v -9.110331 7.3389087 -4.9812543E-06
v -8.453409 4.548221 -3.5129771
v -8.415302 7.3748136 -3.5129519
v -6.4689612 4.5692325 -6.4911466
v -6.435933 7.4771295 -6.4911375
v -3.4990137 4.6007066 -8.481098
v -3.4735417 7.630391 -8.481114
v 0.004273341 4.6378736 -9.17987
v 0.020810165 7.8113775 -9.179869
v 3.5075407 4.6750855 -8.481084
v 3.5150664 7.9925847 -8.481048
v 6.477451 4.7066703 -6.491138
v 6.4772787 8.146391 -6.491098
v 8.461884 4.727797 -3.5129802
v 8.456572 8.249266 -3.5129662
v 9.158732 4.7352204 1.0187763E-06
v 9.15165 8.285419 4.9609994E-06
v 8.461903 4.727801 3.51299
v 8.456663 8.249285 3.5130124
v 6.477472 4.7066755 6.491157
v 6.477378 8.146412 6.4911947
v 3.5075493 4.6750865 8.481101
v 3.5151088 7.9925933 8.481132
v 0.0042753518 4.6378746 9.17987
v 0.020819949 7.811381 9.17987
v -3.4990065 4.6007075 8.481083
v -3.473507 7.6303983 8.481042
v -6.4689465 4.5692353 6.491129
v -6.4358616 7.477145 6.491061
v -8.453397 4.5482235 3.5129704
v -8.415242 7.3748264 3.512918
v 6.6547575 34.304802 2.763196
v 6.670945 38.58803 2.763196
v 7.220579 38.58803 0
v 5.1057205 38.58803 5.1057205
v 7.200399 34.221436 0
v 5.1009045 34.542206 5.1057205
v 6.670945 38.58803 -2.763196
v 2.7753983 34.897503 6.670945
v 6.6547575 34.304802 -2.763196
v 2.763196 38.58803 6.670945
v 5.1057205 38.58803 -5.1057205
v 0.03227633 35.316605 7.220579
v 5.1009045 34.542206 -5.1057205
v -0 38.58803 7.220579
v -2.7108455 35.73571 6.670945
v -2.763196 38.58803 6.670945
v 2.763196 38.58803 -6.670945
v 2.7753983 34.897503 -6.670945
v -5.0363517 36.091007 5.1057205
v -5.1057205 38.58803 5.1057205
v 0.03227633 35.316605 -7.220579
v -0 38.58803 -7.220579
v -2.763196 38.58803 -6.670945
v -2.7108455 35.73571 -6.670945
v -5.1057205 38.58803 -5.1057205
v -5.0363517 36.091007 -5.1057205
v -6.670945 38.58803 -2.763196
v -6.5902047 36.32841 -2.763196
v -7.220579 38.58803 0
v -7.1358457 36.411777 0
v -6.670945 38.58803 2.763196
v -6.5902047 36.32841 2.763196
v -1.9061064 39.358013 4.601748
v 2.6966313E-07 39.358013 4.224976
v 2.1597603E-07 39.358013 4.9808965
v 1.9061068 39.358013 4.601748
v -1.6168281 39.358013 3.9033694
v 1.6168286 39.358013 3.9033694
v -3.5220253 39.358013 3.5220249
v 2.9875097 39.358013 2.9875088
v -2.987509 39.358013 2.9875088
v 3.5220256 39.358013 3.5220249
v -4.6017475 39.358013 1.9061065
v 3.9033687 39.358013 1.6168286
v -3.9033685 39.358013 1.6168286
v 4.601748 39.358013 1.9061065
v -4.9808965 39.358013 6.063558E-08
v 4.2249765 39.358013 6.2065205E-08
v -4.224976 39.358013 6.2065205E-08
v 4.980897 39.358013 6.063558E-08
v -4.6017475 39.358013 -1.9061065
v 3.9033687 39.358013 -1.6168284
v -3.9033685 39.358013 -1.6168284
v 4.601748 39.358013 -1.9061065
v -3.5220253 39.358013 -3.5220249
v 2.9875097 39.358013 -2.9875088
v -2.987509 39.358013 -2.9875088
v 3.5220256 39.358013 -3.5220249
v -1.9061064 39.358013 -4.601748
v 1.6168286 39.358013 -3.9033685
v -1.6168281 39.358013 -3.9033685
v 1.9061068 39.358013 -4.601748
v 2.1597603E-07 39.358013 -4.9808965
v 2.6966313E-07 39.358013 -4.224976
v 2.763196 38.58803 6.670945
v 5.1057205 40.281864 5.1057205
v 5.1057205 38.58803 5.1057205
v 6.670945 38.58803 2.763196
v 2.763196 40.281864 6.670945
v 6.670945 40.281864 2.763196
v -0 38.58803 7.220579
v 7.220579 40.281864 0
v -0 40.281864 7.220579
v 7.220579 38.58803 0
v -2.763196 38.58803 6.670945
v 6.670945 40.281864 -2.763196
v -2.763196 40.281864 6.670945
v 6.670945 38.58803 -2.763196
v 5.1057205 40.281864 -5.1057205
v 5.1057205 38.58803 -5.1057205
v -5.1057205 38.58803 5.1057205
v -5.1057205 40.281864 5.1057205
v 2.763196 40.281864 -6.670945
v 2.763196 38.58803 -6.670945
v -6.670945 40.281864 2.763196
v -6.670945 38.58803 2.763196
v -7.220579 38.58803 0
v -7.220579 40.281864 0
v -6.670945 38.58803 -2.763196
v -6.670945 40.281864 -2.763196
v -5.1057205 38.58803 -5.1057205
v -5.1057205 40.281864 -5.1057205
v -2.763196 38.58803 -6.670945
v -2.763196 40.281864 -6.670945
v -0 38.58803 -7.220579
v -0 40.281864 -7.220579
v 8.451259 21.905281 -3.512952
v 5.8878303 20.17397 -5.8978596
v 7.68157 20.294512 -3.191914
v 6.477106 21.720655 -6.491057
v 9.144568 21.970165 8.903222E-06
v 3.2033195 19.993753 -7.7059565
v 8.311521 20.336874 8.482894E-06
v 3.522592 21.444628 -8.481011
v 8.451423 21.905317 3.5130346
v 0.036580313 19.781425 -8.340948
v 7.68172 20.294535 3.1919897
v 0.037346985 21.119429 -9.179869
v 6.477283 21.720697 6.4912333
v -3.130315 19.56936 -7.7060647
v 5.8879914 20.173998 5.89802
v -3.44807 20.79462 -8.481131
v 3.5226684 21.444645 8.48116
v -5.815117 19.389782 -5.897924
v 3.2033892 19.993763 7.7060943
v -6.402905 20.519573 -6.491129
v 0.03736455 21.119432 9.17987
v -7.6089835 19.269894 -3.1918902
v 0.036596272 19.781433 8.340949
v -8.377196 20.33595 -3.5129259
v -3.448007 20.794636 8.481001
v -8.238849 19.227823 -7.7293025E-06
v -3.130258 19.56937 7.7059493
v -9.070413 20.271515 -8.9395735E-06
v -6.4027767 20.519602 6.490994
v -7.6088853 19.269909 3.191836
v -5.815001 19.389797 5.897803
v -8.377088 20.335976 3.5128658
v 6.4772787 8.146391 -6.491098
v 8.456572 8.249266 -3.5129662
v 7.6863976 9.435659 -3.1919267
v 5.887987 9.368491 -5.897896
v 8.317955 9.459264 4.9009395E-06
v 3.5150664 7.9925847 -8.481048
v 9.15165 8.285419 4.9609994E-06
v 3.196482 9.268071 -7.7059894
v 7.6864805 9.435672 3.1919696
v 0.020810165 7.8113775 -9.179869
v 8.456663 8.249285 3.5130124
v 0.021554744 9.149761 -8.340948
v 5.888077 9.368506 5.897985
v -3.4735417 7.630391 -8.481114
v 6.477378 8.146412 6.4911947
v -3.153459 9.031594 -7.706049
v 3.1965203 9.268078 7.7060666
v -6.435933 7.4771295 -6.4911375
v 3.5151088 7.9925933 8.481132
v -5.8451266 8.93153 -5.8979325
v 0.021563636 9.149764 8.340949
v -8.415302 7.3748136 -3.5129519
v 0.020819949 7.811381 9.17987
v -7.643606 8.864729 -3.1919134
v -3.1534276 9.031598 7.705986
v -9.110331 7.3389087 -4.9812543E-06
v -3.473507 7.6303983 8.481042
v -8.275119 8.841285 -4.1327216E-06
v -5.8450623 8.93154 5.8978643
v -8.415242 7.3748264 3.512918
v -6.4358616 7.477145 6.491061
v -7.6435523 8.864736 3.191884
v 5.888077 9.368506 5.897985
v 7.68172 20.294535 3.1919897
v 7.6864805 9.435672 3.1919696
v 5.8879914 20.173998 5.89802
v 8.311521 20.336874 8.482894E-06
v 3.1965203 9.268078 7.7060666
v 8.317955 9.459264 4.9009395E-06
v 3.2033892 19.993763 7.7060943
v 7.68157 20.294512 -3.191914
v 0.021563636 9.149764 8.340949
v 7.6863976 9.435659 -3.1919267
v 0.036596272 19.781433 8.340949
v 5.8878303 20.17397 -5.8978596
v -3.1534276 9.031598 7.705986
v 5.887987 9.368491 -5.897896
v -3.130258 19.56937 7.7059493
v 3.2033195 19.993753 -7.7059565
v -5.8450623 8.93154 5.8978643
v 3.196482 9.268071 -7.7059894
v -5.815001 19.389797 5.897803
v 0.036580313 19.781425 -8.340948
v -7.6435523 8.864736 3.191884
v 0.021554744 9.149761 -8.340948
v -7.6088853 19.269909 3.191836
v -3.130315 19.56936 -7.7060647
v -8.275119 8.841285 -4.1327216E-06
v -3.153459 9.031594 -7.706049
v -8.238849 19.227823 -7.7293025E-06
v -5.815117 19.389782 -5.897924
v -7.643606 8.864729 -3.1919134
v -5.8451266 8.93153 -5.8979325
v -7.6089835 19.269894 -3.1918902
v 3.8649383 3.9943154 9.346057
v 7.137752 4.0266643 7.153164
v 7.2595773 -0.016334888 7.2753263
v 3.9308703 -0.049236305 9.50567
v 9.48374 0.005668869 3.93738
v 0.004379009 3.9562078 10.11609
v 9.324568 4.048299 3.8712661
v 0.0043793824 -0.087994896 10.288854
v 10.2647505 0.013396609 1.081742E-06
v -3.8561888 3.9181466 9.346037
v 10.0924635 4.055897 1.0780313E-06
v -3.9221199 -0.12670645 9.5056505
v 9.483717 0.0056647942 -3.9373696
v -7.1290216 3.885917 7.153134
v 9.324546 4.0482945 -3.8712554
v -7.250847 -0.15948637 7.2752967
v 7.259553 -0.016339704 -7.2753067
v -9.315858 3.864399 3.8712447
v 7.137728 4.02666 -7.1531444
v -9.47503 -0.18137172 3.9373586
v 3.9308603 -0.049237173 -9.5056505
v -10.083779 3.8568468 -1.1719072E-06
v 3.8649285 3.9943151 -9.346037
v -10.256066 -0.18905327 -1.2066215E-06
v 0.004377129 -0.08799589 -10.288853
v -9.315871 3.8643968 -3.8712523
v 0.004376794 3.9562066 -10.116087
v -9.475043 -0.18137369 -3.9373662
v -3.9221282 -0.12670743 -9.505665
v -7.129038 3.8859136 -7.1531534
v -3.856197 3.9181457 -9.346051
v -7.250863 -0.15948945 -7.2753167
v -9.150249 4.5408483 -1.0229362E-06
v -8.453397 4.5482235 3.5129704
v -9.315858 3.864399 3.8712447
v -10.083779 3.8568468 -1.1719072E-06
v -7.1290216 3.885917 7.153134
v -8.453409 4.548221 -3.5129771
v -6.4689465 4.5692353 6.491129
v -9.315871 3.8643968 -3.8712523
v -3.8561888 3.9181466 9.346037
v -6.4689612 4.5692325 -6.4911466
v -3.4990065 4.6007075 8.481083
v -7.129038 3.8859136 -7.1531534
v 0.004379009 3.9562078 10.11609
v -3.4990137 4.6007066 -8.481098
v 0.0042753518 4.6378746 9.17987
v -3.856197 3.9181457 -9.346051
v 3.8649383 3.9943154 9.346057
v 0.004273341 4.6378736 -9.17987
v 3.5075493 4.6750865 8.481101
v 0.004376794 3.9562066 -10.116087
v 7.137752 4.0266643 7.153164
v 3.5075407 4.6750855 -8.481084
v 6.477472 4.7066755 6.491157
v 3.8649285 3.9943151 -9.346037
v 9.324568 4.048299 3.8712661
v 6.477451 4.7066703 -6.491138
v 8.461903 4.727801 3.51299
v 7.137728 4.02666 -7.1531444
v 10.0924635 4.055897 1.0780313E-06
v 8.461884 4.727797 -3.5129802
v 9.158732 4.7352204 1.0187763E-06
v 9.324546 4.0482945 -3.8712554
v -3.1364737 33.781082 -7.517235
v -5.732181 35.516068 -5.7416186
v -5.756144 34.136066 -5.7534714
v -3.1170425 35.116516 -7.501784
v -7.4795623 35.783035 -3.1073415
v -0.046363734 33.36223 -8.136564
v -7.506557 34.37321 -3.1137679
v -0.0322756 34.645218 -8.119874
v -8.09316 35.87678 1.2228618E-09
v 3.0437593 32.943226 -7.5171814
v -8.121208 34.456474 -2.817702E-06
v 3.0524917 34.173916 -7.501784
v -7.4795623 35.783035 3.1073415
v 5.6634574 32.587894 -5.7533903
v -7.5065203 34.37322 3.113748
v 5.6676297 33.774364 -5.7416186
v -5.732181 35.516068 5.741617
v 7.4139047 32.350414 -3.113711
v -5.7561 34.136078 5.7534256
v 7.41501 33.507393 -3.1073415
v -3.1170425 35.116516 7.501784
v 8.028607 32.267014 3.1740253E-06
v -3.136452 33.781086 7.5171914
v 8.028608 33.413647 1.2228618E-09
v -0.0322756 34.645218 8.119874
v 7.413963 32.35042 3.1137393
v -0.04635774 33.362225 8.136562
v 7.41501 33.507393 3.1073415
v 3.0524917 34.173916 7.501784
v 5.6635184 32.587906 5.7534494
v 3.0437856 32.943226 7.5172315
v 5.6676297 33.774364 5.741617
v 5.1009045 34.542206 5.1057205
v 6.6547575 34.304802 2.763196
v 7.41501 33.507393 3.1073415
v 5.6676297 33.774364 5.741617
v 8.028608 33.413647 1.2228618E-09
v 2.7753983 34.897503 6.670945
v 7.200399 34.221436 0
v 3.0524917 34.173916 7.501784
v 7.41501 33.507393 -3.1073415
v 0.03227633 35.316605 7.220579
v 6.6547575 34.304802 -2.763196
v -0.0322756 34.645218 8.119874
v 5.6676297 33.774364 -5.7416186
v -2.7108455 35.73571 6.670945
v 5.1009045 34.542206 -5.1057205
v -3.1170425 35.116516 7.501784
v 3.0524917 34.173916 -7.501784
v -5.0363517 36.091007 5.1057205
v 2.7753983 34.897503 -6.670945
v -5.732181 35.516068 5.741617
v -0.0322756 34.645218 -8.119874
v -6.5902047 36.32841 2.763196
v 0.03227633 35.316605 -7.220579
v -7.4795623 35.783035 3.1073415
v -3.1170425 35.116516 -7.501784
v -7.1358457 36.411777 0
v -2.7108455 35.73571 -6.670945
v -8.09316 35.87678 1.2228618E-09
v -5.732181 35.516068 -5.7416186
v -6.5902047 36.32841 -2.763196
v -5.0363517 36.091007 -5.1057205
v -7.4795623 35.783035 -3.1073415
v 2.1466162 40.281864 -5.1823893
v 3.9664295 40.281864 -3.966429
v 3.5220256 39.358013 -3.5220249
v 1.9061068 39.358013 -4.601748
v 4.601748 39.358013 -1.9061065
v -0 40.281864 -5.609378
v 5.1823893 40.281864 -2.1466162
v 2.1597603E-07 39.358013 -4.9808965
v 4.980897 39.358013 6.063558E-08
v -2.1466162 40.281864 -5.1823893
v 5.609378 40.281864 4.8017526E-08
v -1.9061064 39.358013 -4.601748
v 4.601748 39.358013 1.9061065
v -3.9664295 40.281864 -3.966429
v 5.1823893 40.281864 2.1466162
v -3.5220253 39.358013 -3.5220249
v 3.5220256 39.358013 3.5220249
v -5.1823893 40.281864 -2.1466162
v 3.9664295 40.281864 3.966429
v -4.6017475 39.358013 -1.9061065
v 1.9061068 39.358013 4.601748
v -5.609378 40.281864 4.8017526E-08
v 2.1466162 40.281864 5.1823893
v -4.9808965 39.358013 6.063558E-08
v 2.1597603E-07 39.358013 4.9808965
v -5.1823893 40.281864 2.1466162
v -0 40.281864 5.609378
v -4.6017475 39.358013 1.9061065
v -1.9061064 39.358013 4.601748
v -3.9664295 40.281864 3.966429
v -2.1466162 40.281864 5.1823893
v -3.5220253 39.358013 3.5220249
v 2.763196 40.281864 6.670945
v -0 40.281864 5.609378
v 2.1466162 40.281864 5.1823893
v -0 40.281864 7.220579
v 5.1057205 40.281864 5.1057205
v -2.1466162 40.281864 5.1823893
v 3.9664295 40.281864 3.966429
v -2.763196 40.281864 6.670945
v 6.670945 40.281864 2.763196
v -3.9664295 40.281864 3.966429
v 5.1823893 40.281864 2.1466162
v -5.1057205 40.281864 5.1057205
v 7.220579 40.281864 0
v -5.1823893 40.281864 2.1466162
v 5.609378 40.281864 4.8017526E-08
v -6.670945 40.281864 2.763196
v 6.670945 40.281864 -2.763196
v -5.609378 40.281864 4.8017526E-08
v 5.1823893 40.281864 -2.1466162
v -7.220579 40.281864 0
v 5.1057205 40.281864 -5.1057205
v -5.1823893 40.281864 -2.1466162
v 3.9664295 40.281864 -3.966429
v -6.670945 40.281864 -2.763196
v 2.763196 40.281864 -6.670945
v -3.9664295 40.281864 -3.966429
v 2.1466162 40.281864 -5.1823893
v -5.1057205 40.281864 -5.1057205
v -0 40.281864 -7.220579
v -2.1466162 40.281864 -5.1823893
v -0 40.281864 -5.609378
v -2.763196 40.281864 -6.670945
vt 0.23252943 0.663484
vt 0.23252943 0.663484
vt 0.23252943 0.663484
vt 0.23252943 0.663484
vt 0.23252943 0.663484
vt 0.23252943 0.663484
vt 0.23252943 0.663484
vt 0.23252943 0.663484
vt 0.23252943 0.663484
vt 0.23252942 0.6634839
vt 0.23252943 0.663484
vt 0.23252943 0.663484
vt 0.23252943 0.663484
vt 0.23252943 0.663484
vt 0.23252942 0.663484
vt 0.23252945 0.663484
vt 0.23252943 0.663484
vt 0.23252943 0.663484
vt 0.23252943 0.663484
vt 0.23252943 0.663484
vt 0.23252942 0.663484
vt 0.23252943 0.663484
vt 0.23252942 0.663484
vt 0.23252943 0.663484
vt 0.102313 0.6541828
vt 0.102313 0.6541828
vt 0.102313 0.6541828
vt 0.102313 0.6541828
vt 0.102313 0.6541828
vt 0.102313 0.6541828
vt 0.102313 0.6541828
vt 0.102313 0.6541828
vt 0.102313 0.6541828
vt 0.102313 0.6541828
vt 0.102313 0.6541828
vt 0.102313 0.6541828
vt 0.102313 0.6541828
vt 0.102313 0.6541828
vt 0.102313 0.6541828
vt 0.102313 0.6541828
vt 0.102313 0.6541828
vt 0.102313 0.6541828
vt 0.102313 0.6541828
vt 0.102313 0.6541828
vt 0.102313 0.6541828
vt 0.102313 0.6541828
vt 0.102313 0.6541828
vt 0.102313 0.6541828
vt 0.102313 0.6541828
vt 0.21702752 0.6603836
vt 0.21702752 0.6603836
vt 0.21702752 0.6603836
vt 0.21702752 0.6603836
vt 0.21702752 0.6603836
vt 0.21702752 0.6603836
vt 0.21702752 0.6603836
vt 0.21702752 0.6603836
vt 0.21702752 0.6603836
vt 0.21702752 0.6603836
vt 0.21702752 0.6603836
vt 0.21702752 0.6603836
vt 0.21702752 0.6603836
vt 0.21702752 0.6603836
vt 0.21702752 0.6603836
vt 0.21702752 0.6603836
vt 0.09611215 0.6603835
vt 0.09611215 0.6603836
vt 0.09611215 0.6603835
vt 0.09611216 0.6603836
vt 0.09611216 0.6603836
vt 0.09611216 0.6603836
vt 0.09611216 0.6603836
vt 0.09611216 0.6603836
vt 0.09611218 0.6603836
vt 0.09611216 0.6603836
vt 0.09611216 0.6603836
vt 0.09611218 0.66038364
vt 0.09611216 0.6603836
vt 0.09611216 0.6603836
vt 0.09611216 0.6603836
vt 0.09611216 0.6603836
vt 0.09611215 0.6603836
vt 0.09611216 0.6603836
vt 0.09611216 0.66038364
vt 0.09611215 0.66038364
vt 0.09611216 0.6603836
vt 0.09611215 0.6603835
vt 0.09611216 0.6603835
vt 0.09611216 0.6603836
vt 0.09611218 0.6603836
vt 0.09611216 0.6603836
vt 0.09611216 0.6603836
vt 0.09611216 0.6603836
vt 0.09611215 0.6603836
vt 0.09611216 0.6603836
vt 0.09611218 0.66038364
vt 0.09611215 0.6603836
vt 0.09611216 0.6603836
vt 0.09611215 0.66038364
vt 0.09611216 0.6603836
vt 0.09611216 0.6603835
vt 0.09611216 0.66038364
vt 0.09611216 0.6603836
vt 0.09611218 0.66038364
vt 0.09611216 0.6603836
vt 0.09611216 0.6603836
vt 0.09611216 0.6603836
vt 0.09611218 0.6603836
vt 0.09611215 0.6603835
vt 0.09611216 0.6603836
vt 0.09611213 0.6603836
vt 0.09611216 0.6603836
vt 0.09611215 0.6603836
vt 0.09611216 0.6603836
vt 0.09611216 0.6603836
vt 0.23252943 0.663484
vt 0.23252942 0.663484
vt 0.23252942 0.663484
vt 0.23252943 0.663484
vt 0.23252942 0.663484
vt 0.23252943 0.663484
vt 0.23252942 0.6634839
vt 0.23252945 0.663484
vt 0.23252943 0.663484
vt 0.23252943 0.663484
vt 0.23252942 0.6634839
vt 0.23252943 0.6634839
vt 0.23252942 0.663484
vt 0.23252943 0.663484
vt 0.23252943 0.663484
vt 0.23252942 0.663484
vt 0.23252945 0.66348404
vt 0.15191922 0.6541828
vt 0.15191925 0.6541828
vt 0.15191922 0.6541828
vt 0.15191922 0.6541828
vt 0.15191922 0.6541828
vt 0.15191922 0.65418273
vt 0.15191925 0.6541829
vt 0.15191922 0.6541828
vt 0.15191922 0.6541828
vt 0.15191922 0.6541828
vt 0.15191922 0.6541828
vt 0.15191922 0.6541828
vt 0.15191922 0.6541828
vt 0.15191922 0.65418273
vt 0.15191922 0.6541828
vt 0.15191922 0.6541828
vt 0.15191922 0.6541828
vt 0.15191919 0.6541828
vt 0.15191922 0.6541828
vt 0.15191922 0.6541828
vt 0.15191922 0.6541828
vt 0.15191922 0.6541828
vt 0.15191922 0.6541828
vt 0.15191925 0.6541828
vt 0.15191925 0.6541828
vt 0.15191922 0.6541828
vt 0.15191922 0.6541828
vt 0.15191922 0.6541828
vt 0.15191922 0.6541828
vt 0.15191925 0.65418285
vt 0.15191922 0.65418273
vt 0.15191922 0.6541828
vt 0.15191925 0.6541828
vt 0.23252942 0.663484
vt 0.23252942 0.663484
vt 0.23252946 0.6634841
vt 0.23252945 0.66348404
vt 0.23252943 0.663484
vt 0.23252943 0.663484
vt 0.23252943 0.663484
vt 0.23252942 0.6634839
vt 0.23252945 0.663484
vt 0.23252945 0.663484
vt 0.23252945 0.663484
vt 0.23252942 0.6634839
vt 0.23252942 0.66348386
vt 0.23252942 0.6634839
vt 0.23252942 0.663484
vt 0.23252943 0.663484
vt 0.23252943 0.663484
vt 0.23252943 0.663484
vt 0.23252943 0.663484
vt 0.23252943 0.663484
vt 0.2325294 0.663484
vt 0.23252942 0.663484
vt 0.2325294 0.663484
vt 0.23252942 0.663484
vt 0.23252943 0.663484
vt 0.23252943 0.663484
vt 0.23252943 0.663484
vt 0.23252943 0.663484
vt 0.23252945 0.663484
vt 0.23252946 0.663484
vt 0.23252943 0.6634839
vt 0.23252943 0.663484
vt 0.23252943 0.663484
vt 0.23252943 0.663484
vt 0.23252942 0.66348386
vt 0.23252942 0.6634839
vt 0.23252946 0.663484
vt 0.23252946 0.66348404
vt 0.23252942 0.6634839
vt 0.23252942 0.6634839
vt 0.23252943 0.663484
vt 0.23252943 0.663484
vt 0.23252943 0.663484
vt 0.23252943 0.663484
vt 0.23252943 0.663484
vt 0.23252942 0.663484
vt 0.23252942 0.6634839
vt 0.23252942 0.6634839
vt 0.23252943 0.663484
vt 0.23252943 0.663484
vt 0.23252943 0.663484
vt 0.23252943 0.663484
vt 0.23252943 0.663484
vt 0.23252942 0.663484
vt 0.23252943 0.663484
vt 0.23252942 0.663484
vt 0.23252943 0.663484
vt 0.23252943 0.663484
vt 0.23252943 0.663484
vt 0.23252943 0.663484
vt 0.23252945 0.663484
vt 0.23252945 0.663484
vt 0.23252943 0.6634839
vt 0.23252943 0.6634839
vt 0.23252943 0.663484
vt 0.23252943 0.663484
vt 0.23252943 0.6634839
vt 0.23252942 0.66348386
vt 0.23252946 0.66348404
vt 0.23252946 0.663484
vt 0.21702752 0.6603836
vt 0.21702752 0.6603836
vt 0.21702752 0.6603836
vt 0.21702752 0.6603836
vt 0.21702752 0.6603836
vt 0.21702752 0.6603836
vt 0.21702752 0.6603836
vt 0.21702752 0.6603836
vt 0.21702752 0.6603836
vt 0.21702752 0.6603836
vt 0.21702752 0.6603836
vt 0.21702752 0.6603836
vt 0.21702752 0.6603836
vt 0.21702752 0.6603836
vt 0.21702752 0.6603836
vt 0.21702752 0.6603836
vt 0.21702752 0.6603836
vt 0.21702752 0.6603836
vt 0.21702752 0.6603836
vt 0.21702752 0.6603836
vt 0.21702752 0.6603836
vt 0.21702752 0.6603836
vt 0.21702752 0.6603836
vt 0.21702752 0.6603836
vt 0.21702752 0.6603836
vt 0.21702752 0.6603836
vt 0.21702752 0.6603836
vt 0.21702752 0.6603836
vt 0.21702752 0.6603836
vt 0.21702752 0.6603836
vt 0.21702752 0.6603836
vt 0.21702752 0.6603836
vt 0.15501967 0.6541828
vt 0.15501967 0.6541828
vt 0.15501967 0.6541828
vt 0.15501967 0.6541828
vt 0.15501967 0.6541828
vt 0.15501967 0.6541828
vt 0.15501967 0.6541828
vt 0.15501967 0.6541828
vt 0.15501967 0.6541828
vt 0.15501967 0.6541828
vt 0.15501967 0.6541828
vt 0.15501967 0.6541828
vt 0.15501967 0.6541828
vt 0.15501967 0.6541828
vt 0.15501967 0.6541828
vt 0.15501967 0.6541828
vt 0.15501967 0.6541828
vt 0.15501967 0.6541828
vt 0.15501967 0.6541828
vt 0.15501967 0.6541828
vt 0.15501967 0.6541828
vt 0.15501967 0.6541828
vt 0.15501967 0.6541828
vt 0.15501967 0.6541828
vt 0.15501967 0.6541828
vt 0.15501967 0.6541828
vt 0.15501967 0.6541828
vt 0.15501967 0.6541828
vt 0.15501967 0.6541828
vt 0.15501967 0.6541828
vt 0.15501967 0.6541828
vt 0.15501967 0.6541828
vt 0.27903536 0.6603836
vt 0.27903536 0.6603836
vt 0.27903536 0.6603836
vt 0.27903536 0.6603836
vt 0.27903536 0.6603836
vt 0.27903536 0.6603836
vt 0.27903536 0.6603836
vt 0.27903536 0.6603836
vt 0.27903536 0.6603836
vt 0.27903536 0.6603836
vt 0.27903536 0.6603836
vt 0.27903536 0.6603836
vt 0.27903536 0.6603836
vt 0.27903536 0.6603836
vt 0.27903536 0.6603836
vt 0.27903536 0.6603836
vt 0.27903536 0.6603836
vt 0.27903536 0.6603836
vt 0.27903536 0.6603836
vt 0.27903536 0.6603836
vt 0.27903536 0.6603836
vt 0.27903536 0.6603836
vt 0.27903536 0.6603836
vt 0.27903536 0.6603836
vt 0.27903536 0.6603836
vt 0.27903536 0.6603836
vt 0.27903536 0.6603836
vt 0.27903536 0.6603836
vt 0.27903536 0.6603836
vt 0.27903536 0.6603836
vt 0.27903536 0.6603836
vt 0.27903536 0.6603836
vt 0.28666663 0.6610232
vt 0.28666666 0.6610232
vt 0.28666663 0.6610232
vt 0.28666666 0.6610232
vt 0.28666663 0.6610232
vt 0.28666666 0.6610232
vt 0.28666663 0.6610232
vt 0.28666666 0.6610232
vt 0.28666666 0.6610232
vt 0.28666663 0.66102314
vt 0.28666666 0.6610232
vt 0.28666663 0.66102314
vt 0.28666666 0.6610232
vt 0.28666663 0.6610232
vt 0.28666666 0.6610232
vt 0.28666663 0.6610232
vt 0.28666666 0.6610232
vt 0.28666666 0.66102326
vt 0.28666666 0.6610232
vt 0.28666666 0.66102326
vt 0.28666666 0.66102314
vt 0.28666666 0.6610232
vt 0.28666666 0.66102314
vt 0.28666666 0.6610232
vt 0.28666666 0.6610232
vt 0.28666663 0.66102314
vt 0.28666666 0.6610232
vt 0.28666663 0.66102314
vt 0.28666663 0.6610231
vt 0.28666666 0.6610232
vt 0.28666663 0.6610231
vt 0.28666666 0.6610232
vt 0.21284318 0.65364087
vt 0.21284315 0.65364087
vt 0.21284315 0.65364087
vt 0.21284318 0.65364087
vt 0.21284315 0.65364087
vt 0.21284318 0.65364087
vt 0.21284315 0.65364087
vt 0.21284318 0.65364087
vt 0.21284318 0.65364087
vt 0.21284315 0.6536408
vt 0.21284318 0.65364087
vt 0.21284315 0.6536408
vt 0.21284318 0.65364087
vt 0.21284315 0.65364087
vt 0.21284318 0.65364087
vt 0.21284315 0.65364087
vt 0.21284318 0.65364087
vt 0.21284318 0.65364087
vt 0.21284318 0.65364087
vt 0.21284318 0.65364087
vt 0.21284318 0.6536408
vt 0.21284318 0.65364087
vt 0.21284318 0.6536408
vt 0.21284318 0.65364087
vt 0.21284318 0.65364087
vt 0.21284315 0.6536408
vt 0.21284318 0.65364087
vt 0.21284315 0.6536408
vt 0.21284315 0.65364075
vt 0.21284321 0.65364087
vt 0.21284315 0.65364075
vt 0.21284321 0.65364087
vt 0.1612204 0.663484
vt 0.1612204 0.663484
vt 0.1612204 0.663484
vt 0.1612204 0.663484
vt 0.16122037 0.663484
vt 0.16122043 0.663484
vt 0.1612204 0.663484
vt 0.16122043 0.663484
vt 0.16122037 0.663484
vt 0.1612204 0.6634839
vt 0.1612204 0.663484
vt 0.1612204 0.6634839
vt 0.1612204 0.663484
vt 0.1612204 0.663484
vt 0.1612204 0.663484
vt 0.1612204 0.663484
vt 0.1612204 0.663484
vt 0.1612204 0.66348386
vt 0.1612204 0.663484
vt 0.1612204 0.66348386
vt 0.1612204 0.6634839
vt 0.16122043 0.663484
vt 0.1612204 0.6634839
vt 0.16122043 0.663484
vt 0.1612204 0.663484
vt 0.1612204 0.6634839
vt 0.1612204 0.663484
vt 0.1612204 0.6634839
vt 0.16122043 0.66348404
vt 0.1612204 0.663484
vt 0.1612204 0.663484
vt 0.1612204 0.663484
vt 0.260433 0.6541828
vt 0.26043296 0.6541828
vt 0.26043296 0.6541828
vt 0.260433 0.6541828
vt 0.26043296 0.6541828
vt 0.26043296 0.65418273
vt 0.26043296 0.6541828
vt 0.26043296 0.65418273
vt 0.26043296 0.6541828
vt 0.26043296 0.6541828
vt 0.26043296 0.6541828
vt 0.26043296 0.6541828
vt 0.26043296 0.6541828
vt 0.26043296 0.65418273
vt 0.26043296 0.6541828
vt 0.26043296 0.65418273
vt 0.26043296 0.6541828
vt 0.260433 0.65418285
vt 0.26043296 0.6541828
vt 0.260433 0.65418285
vt 0.26043296 0.6541828
vt 0.26043296 0.65418273
vt 0.26043296 0.6541828
vt 0.26043296 0.65418273
vt 0.26043296 0.65418273
vt 0.26043296 0.6541828
vt 0.26043296 0.65418273
vt 0.26043296 0.6541828
vt 0.26043296 0.6541828
vt 0.26043296 0.6541828
vt 0.26043296 0.6541828
vt 0.26043296 0.6541828
vt 0.15812 0.6572831
vt 0.15812004 0.65728325
vt 0.15812004 0.65728325
vt 0.15812 0.6572831
vt 0.15812 0.6572831
vt 0.15812 0.6572832
vt 0.15812 0.6572831
vt 0.15812 0.6572832
vt 0.15812 0.6572832
vt 0.15812 0.6572832
vt 0.15812 0.6572832
vt 0.15812 0.6572832
vt 0.15812 0.6572831
vt 0.15812 0.6572832
vt 0.15812 0.6572831
vt 0.15812 0.6572832
vt 0.15812004 0.6572832
vt 0.15812 0.6572831
vt 0.15812004 0.6572832
vt 0.15812 0.6572831
vt 0.15812 0.6572832
vt 0.15812 0.6572832
vt 0.15812 0.6572832
vt 0.15812 0.6572832
vt 0.15812 0.6572832
vt 0.15812 0.6572832
vt 0.15812 0.6572832
vt 0.15812 0.6572832
vt 0.15812 0.6572832
vt 0.15812 0.6572832
vt 0.15812 0.6572832
vt 0.15812 0.6572832
vt 0.15191922 0.6541828
vt 0.15191922 0.6541828
vt 0.15191922 0.6541828
vt 0.15191922 0.6541828
vt 0.15191922 0.6541828
vt 0.15191922 0.6541828
vt 0.15191922 0.6541828
vt 0.15191922 0.6541828
vt 0.15191922 0.6541828
vt 0.15191922 0.6541828
vt 0.15191922 0.6541828
vt 0.15191922 0.6541828
vt 0.15191922 0.6541828
vt 0.15191922 0.6541828
vt 0.15191922 0.6541828
vt 0.15191922 0.6541828
vt 0.15191922 0.6541828
vt 0.15191922 0.6541828
vt 0.15191922 0.6541828
vt 0.15191922 0.6541828
vt 0.15191922 0.6541828
vt 0.15191922 0.6541828
vt 0.15191922 0.6541828
vt 0.15191922 0.6541828
vt 0.15191922 0.6541828
vt 0.15191922 0.6541828
vt 0.15191922 0.6541828
vt 0.15191922 0.6541828
vt 0.15191922 0.6541828
vt 0.15191922 0.6541828
vt 0.15191922 0.6541828
vt 0.15191922 0.6541828
vt 0.08991143 0.6603836
vt 0.08991143 0.6603836
vt 0.08991143 0.6603836
vt 0.08991143 0.6603836
vt 0.08991143 0.6603836
vt 0.08991143 0.6603836
vt 0.08991143 0.6603836
vt 0.08991143 0.6603836
vt 0.08991143 0.6603836
vt 0.08991143 0.6603836
vt 0.08991143 0.6603836
vt 0.08991143 0.6603836
vt 0.08991143 0.6603836
vt 0.08991143 0.6603836
vt 0.08991143 0.6603836
vt 0.08991143 0.6603836
vt 0.08991143 0.6603836
vt 0.08991143 0.6603836
vt 0.08991143 0.6603836
vt 0.08991143 0.6603836
vt 0.08991143 0.6603836
vt 0.08991143 0.6603836
vt 0.08991143 0.6603836
vt 0.08991143 0.6603836
vt 0.08991143 0.6603836
vt 0.08991143 0.6603836
vt 0.08991143 0.6603836
vt 0.08991143 0.6603836
vt 0.08991143 0.6603836
vt 0.08991143 0.6603836
vt 0.08991143 0.6603836
vt 0.08991143 0.6603836
vt 0.27283457 0.6603836
vt 0.27283457 0.6603836
vt 0.27283457 0.6603836
vt 0.27283457 0.6603836
vt 0.27283457 0.6603836
vt 0.27283457 0.6603836
vt 0.27283457 0.6603836
vt 0.27283457 0.6603836
vt 0.27283457 0.6603836
vt 0.27283457 0.6603836
vt 0.27283457 0.6603836
vt 0.27283457 0.6603836
vt 0.27283457 0.6603836
vt 0.27283457 0.6603836
vt 0.27283457 0.6603836
vt 0.27283457 0.6603836
vt 0.27283457 0.6603836
vt 0.27283457 0.6603836
vt 0.27283457 0.6603836
vt 0.27283457 0.6603836
vt 0.27283457 0.6603836
vt 0.27283457 0.6603836
vt 0.27283457 0.6603836
vt 0.27283457 0.6603836
vt 0.27283457 0.6603836
vt 0.27283457 0.6603836
vt 0.27283457 0.6603836
vt 0.27283457 0.6603836
vt 0.27283457 0.6603836
vt 0.27283457 0.6603836
vt 0.27283457 0.6603836
vt 0.27283457 0.6603836
vt 0.09301181 0.6603836
vt 0.09301181 0.6603836
vt 0.09301181 0.6603836
vt 0.09301181 0.6603836
vt 0.09301181 0.6603836
vt 0.09301181 0.6603836
vt 0.09301181 0.6603836
vt 0.09301181 0.6603836
vt 0.09301181 0.6603836
vt 0.09301181 0.6603836
vt 0.09301181 0.6603836
vt 0.09301181 0.6603836
vt 0.09301181 0.6603836
vt 0.09301181 0.6603836
vt 0.09301181 0.6603836
vt 0.09301181 0.6603836
vt 0.09301181 0.6603836
vt 0.09301181 0.6603836
vt 0.09301181 0.6603836
vt 0.09301181 0.6603836
vt 0.09301181 0.6603836
vt 0.09301181 0.6603836
vt 0.09301181 0.6603836
vt 0.09301181 0.6603836
vt 0.09301181 0.6603836
vt 0.09301181 0.6603836
vt 0.09301181 0.6603836
vt 0.09301181 0.6603836
vt 0.09301181 0.6603836
vt 0.09301181 0.6603836
vt 0.09301181 0.6603836
vt 0.09301181 0.6603836
vn 0.3854437 0.0075513343 -0.9227004
vn 0.7012785 0.00341203 -0.7128793
vn 0.70979017 0.0038665012 -0.7044026
vn 0.3707002 0.0065923412 -0.9287292
vn 0.00069400255 0.010839893 -0.999941
vn -0.016844908 0.008966729 -0.9998179
vn -0.38426107 0.013213095 -0.9231299
vn -0.39939538 0.010295202 -0.9167209
vn -0.7090754 0.014627428 -0.7049809
vn -0.7179979 0.010828672 -0.695961
vn -0.92458713 0.015301498 -0.38066313
vn -0.9272424 0.010948542 -0.37430143
vn -0.9998801 0.015483597 9.385019E-06
vn -0.99994016 0.010947501 1.5090921E-05
vn -0.92458236 0.015280687 0.38067573
vn -0.9272339 0.010933595 0.37432304
vn -0.70907617 0.014595945 0.70498085
vn -0.717996 0.0108053535 0.6959634
vn -0.3842761 0.013189069 0.923124
vn -0.39941633 0.010276342 0.91671205
vn 0.0006698331 0.010842247 0.999941
vn -0.016885169 0.008968424 0.9998172
vn 0.38542706 0.0075880038 0.9227071
vn 0.37066773 0.0066239806 0.92874193
vn -0 1 0
vn -0 1 0
vn -0 1 0
vn -0 1 0
vn -0 1 0
vn -0 1 0
vn -0 1 0
vn -0 1 0
vn -0 1 0
vn -0 1 0
vn -0 1 0
vn -0 1 0
vn -0 1 0
vn -0 1 0
vn -0 1 0
vn -0 1 0
vn -0 1 0
vn -0 1 0
vn -0 1 0
vn -0 1 0
vn -0 1 0
vn -0 1 0
vn -0 1 0
vn -0 1 0
vn -0 1 0
vn -2.7015182E-07 1 0
vn -4.715902E-07 1 0
vn -2.7015187E-07 1 0
vn 7.370396E-07 1 0
vn -8.744672E-07 1 0
vn 1.5427927E-06 1 0
vn -1.6802204E-06 1 0
vn 7.370398E-07 1 0
vn -8.7446676E-07 1 0
vn -0 1 0
vn -0 1 0
vn -0 1 0
vn -0 1 0
vn 1.3272496E-07 1 0
vn -0 1 0
vn 1.3272476E-07 1 0
vn -0.66819423 0.7046455 -0.2387283
vn -0.53107685 0.72548354 -0.4377569
vn -0.5347894 0.72491664 -0.43416145
vn -0.6692888 0.70447993 -0.23613666
vn -0.6692888 0.70447993 -0.23613666
vn -0.7167744 0.6973051 1.3371775E-05
vn -0.7167744 0.6973051 1.7144017E-05
vn -0.6681922 0.7046398 0.23875074
vn -0.66928464 0.7044746 0.23616427
vn -0.53108263 0.725472 0.43776885
vn -0.5347946 0.7249052 0.4341741
vn -0.32959196 0.7564315 0.5649606
vn -0.33584806 0.7554626 0.56256765
vn 0.42666164 0.87650687 0.22292526
vn 0.4686783 0.88336897 -2.8194812E-05
vn 0.46867827 0.88336897 -2.3541876E-05
vn 0.42761743 0.8766637 0.22046366
vn 0.30535582 0.8568073 0.41549855
vn 0.30870995 0.8573524 0.4118799
vn 0.4686783 0.88336897 -2.8194812E-05
vn 0.4276194 0.876654 -0.22049767
vn 0.42666143 0.87649685 -0.22296485
vn 0.11956778 0.826974 0.5493792
vn 0.30535582 0.8568073 0.41549855
vn 0.1254925 0.82792294 0.5466216
vn -0.33582067 0.75547606 -0.562566
vn -0.5347894 0.72491664 -0.43416145
vn -0.53107685 0.72548354 -0.4377569
vn -0.3295688 0.7564442 -0.56495714
vn -0.10537342 0.7913755 -0.60218036
vn -0.33582067 0.75547606 -0.562566
vn -0.3295688 0.7564442 -0.56495714
vn -0.098217435 0.7925024 -0.601908
vn 0.11960736 0.82697207 -0.5493735
vn -0.10537342 0.7913755 -0.60218036
vn 0.1255257 0.82791984 -0.5466187
vn -0.33584806 0.7554626 0.56256765
vn -0.098254 0.79249597 0.6019105
vn -0.32959196 0.7564315 0.5649606
vn -0.10541803 0.79136765 0.60218287
vn 0.1254925 0.82792294 0.5466216
vn 0.11956778 0.826974 0.5493792
vn 0.42666143 0.87649685 -0.22296485
vn 0.3053719 0.8567974 -0.41550723
vn 0.30872515 0.85734224 -0.41188955
vn 0.4276194 0.876654 -0.22049767
vn 0.1255257 0.82791984 -0.5466187
vn 0.30872515 0.85734224 -0.41188955
vn 0.3053719 0.8567974 -0.41550723
vn 0.11960736 0.82697207 -0.5493735
vn 0.92241126 0.0005035081 0.38620874
vn 0.9248788 0.000876483 0.38026106
vn 1 -0.00034573322 -1.5089837E-05
vn 0.99999976 -0.0007569188 -2.528225E-05
vn 1 -0.00034573322 -1.5089837E-05
vn 0.92487055 0.0008331299 -0.38028136
vn 0.92239845 0.0004623399 -0.38623947
vn 0.92239845 0.0004623399 -0.38623947
vn 0.92487055 0.0008331299 -0.38028136
vn 0.70979017 0.0038665012 -0.7044026
vn 0.7012785 0.00341203 -0.7128793
vn 0.37066773 0.0066239806 0.92874193
vn 0.38542706 0.0075880038 0.9227071
vn 0.70979106 0.003923302 0.70440143
vn 0.70127535 0.0034638054 0.71288204
vn 0.9248788 0.000876483 0.38026106
vn 0.92241126 0.0005035081 0.38620874
vn -0.9228136 -0.004245752 0.38522342
vn -0.9249303 0.0031516429 0.38012373
vn -0.99999416 0.0034393826 2.1601285E-05
vn -0.9999864 -0.005223302 2.4577112E-05
vn -0.92494243 0.003139194 -0.38009435
vn -0.9228272 -0.004256507 -0.38519058
vn -0.7098877 0.002361692 -0.7043109
vn -0.70249945 -0.002029414 -0.7116814
vn -0.38523594 0.0012868167 -0.92281723
vn -0.37205422 -0.00020634869 -0.9282109
vn 9.41417E-05 -5.7279292E-05 -1
vn 0.016478157 -0.00042125554 -0.9998641
vn 0.3854515 -0.0017428538 -0.9227264
vn 0.40032 -0.0032002388 -0.91636986
vn 0.71008253 -0.0036308204 -0.70410913
vn 0.7192239 -0.0075294003 -0.6947375
vn 0.925004 -0.005205336 -0.37992156
vn 0.9277225 -0.011401484 -0.37309635
vn 0.9999831 -0.0058323853 -3.370295E-05
vn 0.9999162 -0.012947243 -3.6298985E-05
vn 0.9250216 -0.0052220277 0.3798788
vn 0.9277413 -0.011417246 0.37304923
vn 0.710081 -0.0036535696 0.7041105
vn 0.71922356 -0.007550646 0.6947377
vn 0.38541052 -0.0017582433 0.92274356
vn 0.4002766 -0.0032143372 0.91638875
vn 3.760054E-05 -5.7625773E-05 1
vn 0.016415171 -0.00042159096 0.9998652
vn -0.38526854 0.0012998435 0.9228035
vn -0.3720924 -0.00019520267 0.92819566
vn -0.70988655 0.0023796211 0.704312
vn -0.70249915 -0.0020142745 0.7116818
vn -0.9249303 0.0031516429 0.38012373
vn -0.39640528 0.0031029878 -0.9180704
vn -0.38523594 0.0012868167 -0.92281723
vn -0.7098877 0.002361692 -0.7043109
vn -0.71678406 0.0070103966 -0.6972599
vn -0.92494243 0.003139194 -0.38009435
vn -0.92699647 0.010443676 -0.37492457
vn -0.99999416 0.0034393826 2.1601285E-05
vn -0.99993026 0.011813087 1.8943996E-05
vn -0.9249303 0.0031516429 0.38012373
vn -0.92698574 0.010457688 0.37495086
vn -0.92698574 0.010457688 0.37495086
vn -0.70988655 0.0023796211 0.704312
vn -0.71678233 0.0070310105 0.6972616
vn -0.012227133 0.00032052936 -0.99992526
vn -0.38523594 0.0012868167 -0.92281723
vn 9.41417E-05 -5.7279292E-05 -1
vn 0.3754533 -0.00059038185 -0.9268411
vn 0.3854515 -0.0017428538 -0.9227264
vn 0.7044094 5.9718523E-06 -0.7097938
vn 0.71008253 -0.0036308204 -0.70410913
vn 0.9233753 0.0010549265 -0.383897
vn 0.925004 -0.005205336 -0.37992156
vn 0.9999988 0.0015344112 -3.0498692E-05
vn 0.9999831 -0.0058323853 -3.370295E-05
vn 0.92339134 0.0010374347 0.3838585
vn 0.9250216 -0.0052220277 0.3798788
vn 0.70440793 -1.8403149E-05 0.70979536
vn 0.710081 -0.0036535696 0.7041105
vn 0.37541595 -0.0006071933 0.9268563
vn 0.38541052 -0.0017582433 0.92274356
vn -0.01227757 0.0003203174 0.99992454
vn 3.760054E-05 -5.7625773E-05 1
vn -0.39643344 0.0031181609 0.9180582
vn -0.38526854 0.0012998435 0.9228035
vn -0.71678233 0.0070310105 0.6972616
vn -0.70988655 0.0023796211 0.704312
vn -0.9231942 0.012193252 0.3841402
vn -0.9247954 0.012228441 0.38026837
vn -0.9999037 0.013876197 5.3740227E-06
vn -0.9999037 0.013876197 5.314194E-06
vn -0.92479855 0.01221172 -0.380261
vn -0.9231974 0.012176382 -0.3841331
vn -0.7098747 0.008088966 -0.7042815
vn -0.7046285 0.007996763 -0.70953125
vn -0.38600427 0.0034971507 -0.92249036
vn -0.3776073 0.0034003905 -0.92595965
vn -0.0019757305 0.0003181481 -0.999998
vn 0.0071045146 0.00027074557 -0.9999747
vn 0.38256308 -0.0006721396 -0.9239291
vn 0.38968563 -0.0006696856 -0.92094773
vn 0.70777994 2.9325827E-05 -0.70643294
vn 0.7116505 4.702771E-05 -0.70253366
vn 0.924215 0.0012119642 -0.38187042
vn 0.9252914 0.0012196623 -0.37925482
vn 0.99999845 0.0017473701 -8.414201E-06
vn 0.99999845 0.0017473698 -7.736044E-06
vn 0.9242195 0.001192337 0.38185978
vn 0.92529565 0.0012001485 0.37924492
vn 0.7077798 1.6047316E-06 0.706433
vn 0.71165067 1.930718E-05 0.7025335
vn 0.38255328 -0.0006917317 0.92393315
vn 0.38967663 -0.00068958936 0.9209515
vn -0.0019898925 0.00031765018 0.999998
vn 0.007090938 0.00026974527 0.99997485
vn -0.3860126 0.0035147087 0.92248684
vn -0.37761575 0.0034176232 0.925956
vn -0.7098743 0.008113194 0.7042816
vn -0.7046284 0.008021009 0.7095311
vn -0.9247954 0.012228441 0.38026837
vn -0.9231942 0.012193252 0.3841402
vn 0.9269985 -0.0032092088 0.37505126
vn 0.9241252 -0.001586289 0.38208652
vn 0.99999785 -0.002101721 0
vn 0.70772785 -0.00039979917 0.7064851
vn 0.9999912 -0.0042043733 0
vn 0.71765953 -0.000889127 0.69639355
vn 0.9241252 -0.0015862914 -0.38208655
vn 0.40035275 0.00087587576 0.91636074
vn 0.9269985 -0.0032092135 -0.37505126
vn 0.3830867 0.00045488545 0.92371225
vn 0.70772785 -0.0003998015 -0.7064851
vn 0.020085461 -0.00053910544 0.9997981
vn 0.71765953 -0.00088913203 -0.69639355
vn -0.00064238225 -0.0003775596 0.99999976
vn -0.36622682 -0.0073536253 0.9304966
vn -0.38443434 -0.0039498582 0.9231438
vn 0.3830867 0.0004549084 -0.92371225
vn 0.40035275 0.00087591755 -0.91636074
vn -0.6977946 -0.019323539 0.71603715
vn -0.7088548 -0.009963616 0.70528406
vn 0.020085461 -0.000539055 -0.9997981
vn -0.000642387 -0.00037753684 -0.99999976
vn -0.38443437 -0.0039498587 -0.9231438
vn -0.36622682 -0.0073536253 -0.9304966
vn -0.7088548 -0.009963622 -0.70528406
vn -0.6977946 -0.019323552 -0.71603715
vn -0.9244616 -0.016010685 -0.38093877
vn -0.9208329 -0.031804774 -0.38865817
vn -0.9998271 -0.018599335 0
vn -0.999305 -0.037277438 0
vn -0.9244616 -0.016010676 0.38093877
vn -0.9208329 -0.03180476 0.38865817
vn 0.19551177 0.8596422 -0.4720067
vn 1.3272476E-07 1 0
vn 4.1638702E-07 0.8596422 -0.5108965
vn -0.195511 0.8596423 -0.47200695
vn 1.3272496E-07 1 0
vn -0 1 0
vn 0.36125815 0.8596423 -0.3612584
vn -0 1 0
vn -0 1 0
vn -0.3612579 0.8596424 -0.36125854
vn 0.472007 0.85964215 -0.19551164
vn -0 1 0
vn -0 1 0
vn -0.47200736 0.85964197 -0.19551165
vn 0.5108969 0.85964197 2.442803E-07
vn -8.7446676E-07 1 0
vn 7.370398E-07 1 0
vn -0.5108971 0.85964185 2.7759125E-07
vn 0.4720073 0.85964197 0.19551165
vn -1.6802204E-06 1 0
vn 1.5427927E-06 1 0
vn -0.47200733 0.85964185 0.19551171
vn 0.36125848 0.85964215 0.36125842
vn -8.744672E-07 1 0
vn 7.370396E-07 1 0
vn -0.36125886 0.85964215 0.3612583
vn 0.19551077 0.8596424 0.47200692
vn -2.7015187E-07 1 0
vn -2.7015182E-07 1 0
vn -0.1955118 0.8596422 0.4720067
vn -6.273564E-07 0.8596422 0.5108964
vn -4.715902E-07 1 0
vn 0.3830867 0.00045488545 0.92371225
vn 0.70710677 0 0.70710677
vn 0.70772785 -0.00039979917 0.7064851
vn 0.9241252 -0.001586289 0.38208652
vn 0.38268366 0 0.92387944
vn 0.92387944 0 0.3826836
vn -0.00064238225 -0.0003775596 0.99999976
vn 1 0 0
vn -0 0 1
vn 0.99999785 -0.002101721 0
vn -0.38443434 -0.0039498582 0.9231438
vn 0.92387944 0 -0.3826836
vn -0.38268366 0 0.92387944
vn 0.9241252 -0.0015862914 -0.38208655
vn 0.70710677 0 -0.70710677
vn 0.70772785 -0.0003998015 -0.7064851
vn -0.7088548 -0.009963616 0.70528406
vn -0.70710677 0 0.70710677
vn 0.38268366 0 -0.92387944
vn 0.3830867 0.0004549084 -0.92371225
vn -0.92387944 0 0.3826836
vn -0.9244616 -0.016010676 0.38093877
vn -0.9998271 -0.018599335 0
vn -1 0 0
vn -0.9244616 -0.016010685 -0.38093877
vn -0.92387944 0 -0.3826836
vn -0.7088548 -0.009963622 -0.70528406
vn -0.70710677 0 -0.70710677
vn -0.38443437 -0.0039498587 -0.9231438
vn -0.38268366 0 -0.92387944
vn -0.000642387 -0.00037753684 -0.99999976
vn -0 0 -1
vn 0.8270471 -0.46143946 -0.3210401
vn 0.6400766 -0.47713086 -0.6022027
vn 0.82502294 -0.46160704 -0.32596937
vn 0.6471061 -0.47652948 -0.59512466
vn 0.8898353 -0.4562818 -1.8016126E-05
vn 0.36297673 -0.5013819 -0.78540695
vn 0.88983536 -0.45628178 -2.1266114E-05
vn 0.37523955 -0.5002745 -0.78033376
vn 0.8270541 -0.4614438 0.3210156
vn 0.037559032 -0.5316429 -0.8461354
vn 0.82503164 -0.4616114 0.32594132
vn 0.05218968 -0.53022194 -0.84625113
vn 0.6471035 -0.47653624 0.595122
vn -0.28360215 -0.5638099 -0.7756857
vn 0.6400731 -0.4771377 0.60220104
vn -0.27100393 -0.56247926 -0.7811364
vn 0.37521645 -0.5002796 0.7803415
vn -0.55021197 -0.5926596 -0.5882358
vn 0.36294863 -0.50138724 0.7854165
vn -0.5428426 -0.5918155 -0.59588265
vn 0.052156508 -0.53022105 0.8462537
vn -0.7243595 -0.6127768 -0.3159239
vn 0.03752115 -0.53164226 0.8461375
vn -0.72221476 -0.612516 -0.32129434
vn -0.271027 -0.562471 0.78113425
vn -0.78460014 -0.6200021 1.5626843E-05
vn -0.28362688 -0.5638016 0.7756826
vn -0.7846002 -0.6200021 1.3837889E-05
vn -0.5428488 -0.59180385 0.5958888
vn -0.72435546 -0.6127694 0.31594747
vn -0.5502173 -0.59264785 0.5882427
vn -0.7222117 -0.6125086 0.32131514
vn 0.5700394 0.5634629 -0.597967
vn 0.7525492 0.5737924 -0.32315943
vn 0.75385356 0.57386845 -0.31996837
vn 0.5744222 0.56371284 -0.5935209
vn 0.8164191 0.57745975 -1.3094249E-05
vn 0.2956169 0.5482902 -0.7822969
vn 0.8164191 0.57745975 -1.1846724E-05
vn 0.30289733 0.5486933 -0.77922326
vn 0.7538567 0.57387424 0.3199506
vn -0.02903455 0.53080827 -0.8469944
vn 0.7525516 0.5737982 0.32314342
vn -0.020813314 0.5312502 -0.84695935
vn 0.57441753 0.56372 0.5935185
vn -0.3534771 0.51375073 -0.7817378
vn 0.5700346 0.5634702 0.5979649
vn -0.34674558 0.5141037 -0.7845157
vn 0.3028798 0.54869777 0.7792269
vn -0.62745774 0.49960786 -0.5972343
vn 0.295601 0.5482948 0.78229976
vn -0.62366486 0.4998032 -0.6010314
vn -0.020834401 0.53125006 0.8469588
vn -0.8096115 0.49031588 -0.32267568
vn -0.029052872 0.5308082 0.8469938
vn -0.8085313 0.49037102 -0.32529005
vn -0.34675783 0.5141003 0.7845125
vn -0.8733561 0.4870823 6.404684E-06
vn -0.3534875 0.5137474 0.7817354
vn -0.873356 0.48708227 7.702173E-06
vn -0.6236655 0.49979976 0.60103375
vn -0.8096088 0.49031407 0.32268524
vn -0.62745833 0.4996043 0.5972365
vn -0.80852777 0.49036917 0.32530138
vn 0.7069794 3.9238316E-07 0.70723414
vn 0.92591125 0.00035433695 0.3777408
vn 0.9240518 0.0003503063 0.3822671
vn 0.71343 8.923985E-06 0.7007265
vn 0.9999999 0.00051653193 -1.8544257E-05
vn 0.38066223 -0.0001944819 0.92471415
vn 0.9999999 0.000516532 -1.9309862E-05
vn 0.39188987 -0.00019372263 0.9200121
vn 0.92590165 0.00036005213 -0.37776423
vn -0.0048496644 8.5111096E-05 0.9999883
vn 0.9240419 0.00035607858 -0.3822911
vn 0.00852012 6.608982E-05 0.99996376
vn 0.7134306 1.693474E-05 -0.700726
vn -0.38892096 0.00091737794 0.92127067
vn 0.7069806 8.3991945E-06 -0.70723295
vn -0.37740478 0.0008835486 0.92604804
vn 0.39191246 -0.00018809449 -0.9200025
vn -0.71178496 0.0020532182 0.7023944
vn 0.38068607 -0.00018899862 -0.9247043
vn -0.705025 0.0020244988 0.7091796
vn 0.008552255 6.640012E-05 -0.9999634
vn -0.9254417 0.0030290599 0.3788781
vn -0.0048174867 8.5222855E-05 -0.99998844
vn -0.92346454 0.003018906 0.38367185
vn -0.37738618 0.00087901903 -0.9260556
vn -0.99999416 0.003411065 1.2332801E-05
vn -0.38890305 0.00091273506 -0.9212782
vn -0.99999416 0.0034110653 1.2692772E-05
vn -0.70502573 0.0020182743 -0.70917886
vn -0.9254488 0.0030248694 -0.3788608
vn -0.7117862 0.0020470035 -0.7023933
vn -0.92347175 0.0030146695 -0.38365445
vn 0.38387448 0.042669445 0.92239887
vn 0.70778483 0.042633597 0.7051404
vn 0.70654154 0.042633772 0.70638627
vn 0.38176268 0.042669594 0.9232749
vn 0.92314523 0.042596087 0.38208437
vn 0.0008125643 0.042679917 0.9990884
vn 0.92351013 0.042596016 0.38120154
vn -0.0016399506 0.042679872 0.99908745
vn 0.99909306 0.042580206 -3.1558634E-06
vn -0.38248792 0.042655755 0.9229753
vn 0.99909306 0.042580206 -3.053351E-06
vn -0.38455665 0.042655542 0.9221154
vn 0.92314374 0.042596042 -0.38208798
vn -0.7069734 0.04260832 0.70595545
vn 0.9235087 0.042595968 -0.38120502
vn -0.70817024 0.042608105 0.70475495
vn 0.7065417 0.042633895 -0.70638597
vn -0.92327267 0.042562984 0.38177997
vn 0.7077849 0.042633712 -0.7051403
vn -0.9236199 0.04256291 0.38093922
vn 0.38176578 0.04266988 -0.92327356
vn -0.9990946 0.04254457 1.9120703E-06
vn 0.38387766 0.042669747 -0.92239755
vn -0.9990946 0.042544574 1.8202335E-06
vn -0.0016354774 0.042680148 -0.99908745
vn -0.92327386 0.04256318 -0.38177717
vn 0.0008171151 0.042680178 -0.9990884
vn -0.92362106 0.042563103 -0.38093653
vn -0.38455376 0.04265584 -0.92211646
vn -0.7069734 0.042608626 -0.70595545
vn -0.3824849 0.042656053 -0.92297655
vn -0.70817024 0.04260842 -0.70475495
vn -0.59118724 0.80653435 9.713353E-07
vn -0.547292 0.8067254 0.22285779
vn -0.5473337 0.8067252 0.22275595
vn -0.59118724 0.80653435 7.117539E-07
vn -0.42199177 0.8072251 0.41268706
vn -0.5472924 0.8067256 -0.22285613
vn -0.42178014 0.8072259 0.412902
vn -0.54733396 0.80672544 -0.22275463
vn -0.23314652 0.80784893 0.5413158
vn -0.42178005 0.8072261 -0.41290155
vn -0.23260546 0.8078504 0.5415464
vn -0.42199174 0.80722535 -0.41268662
vn -0.0084729735 0.8083882 0.58858865
vn -0.23260367 0.8078501 -0.54154754
vn -0.0075860145 0.8083898 0.5885988
vn -0.23314533 0.8078487 -0.5413167
vn 0.21824057 0.8087089 0.54622436
vn -0.007582943 0.80838907 -0.5885998
vn 0.21921721 0.8087096 0.5458321
vn -0.008470509 0.8083875 -0.5885897
vn 0.41200784 0.8088046 0.4196245
vn 0.21922007 0.8087087 -0.54583216
vn 0.41269016 0.8088045 0.41895366
vn 0.2182431 0.80870795 -0.5462246
vn 0.5422669 0.8087761 0.22765708
vn 0.41269135 0.80880356 -0.4189543
vn 0.5424885 0.808776 0.22712888
vn 0.41200888 0.80880356 -0.41962543
vn 0.58815515 0.8087481 -2.0216182E-06
vn 0.54248816 0.8087753 -0.22713208
vn 0.5881551 0.8087482 -2.332122E-06
vn 0.54226667 0.8087755 -0.22765997
vn -0.38426107 0.013213095 -0.9231299
vn -0.71707076 0.018444346 -0.6967563
vn -0.7090754 0.014627428 -0.7049809
vn -0.3981185 0.016313888 -0.91718894
vn -0.9268533 0.01955974 -0.3749139
vn 0.00069400255 0.010839893 -0.999941
vn -0.92458713 0.015301498 -0.38066313
vn -0.015745627 0.013040093 -0.99979097
vn -0.9998023 0.01988749 3.4115972E-06
vn 0.3854437 0.0075513343 -0.9227004
vn -0.9998801 0.015483597 9.385019E-06
vn 0.3712539 0.008869501 -0.928489
vn -0.92685235 0.019533945 0.3749173
vn 0.70979017 0.0038665012 -0.7044026
vn -0.92458236 0.015280687 0.38067573
vn 0.7013942 0.0045734127 -0.71275884
vn -0.717074 0.01840504 0.6967541
vn 0.92487055 0.0008331299 -0.38028136
vn -0.70907617 0.014595945 0.70498085
vn 0.922394 0.0012945846 -0.38624826
vn -0.39812702 0.016283007 0.9171858
vn 1 -0.00034573322 -1.5089837E-05
vn -0.3842761 0.013189069 0.923124
vn 1 7.940891E-05 -5.5710543E-06
vn -0.01575427 0.013039714 0.99979085
vn 0.9248788 0.000876483 0.38026106
vn 0.0006698331 0.010842247 0.999941
vn 0.92239827 0.0013413833 0.38623798
vn 0.3712515 0.008908343 0.9284897
vn 0.70979106 0.003923302 0.70440143
vn 0.38542706 0.0075880038 0.9227071
vn 0.7013986 0.004635028 0.7127542
vn 0.53048116 0.73756796 0.4178317
vn 0.65478903 0.7214763 0.22521797
vn 0.6556017 0.7213717 0.2231801
vn 0.5331963 0.73721606 0.41498706
vn 0.6982274 0.7158761 0
vn 0.34264502 0.7620628 0.5494131
vn 0.6982274 0.7158761 0
vn 0.34712508 0.76147723 0.547409
vn 0.65560126 0.721372 -0.22318009
vn 0.11801049 0.79163754 0.59948605
vn 0.6547887 0.72147673 -0.225218
vn 0.12303846 0.79097366 0.59935135
vn 0.53319585 0.7372163 -0.41498718
vn -0.11035875 0.8220188 0.5586646
vn 0.5304807 0.7375682 -0.41783178
vn -0.106262736 0.82147247 0.56025994
vn 0.34712514 0.76147723 -0.547409
vn -0.30723512 0.8484665 0.43094197
vn 0.34264502 0.7620628 -0.549413
vn -0.30493724 0.84815747 0.43317696
vn 0.12303874 0.7909739 -0.5993512
vn -0.44062433 0.8665195 0.23450829
vn 0.11801073 0.79163766 -0.5994858
vn -0.4399718 0.86643124 0.23605461
vn -0.106262766 0.8214725 -0.56025994
vn -0.48783812 0.8729341 0
vn -0.11035877 0.8220188 -0.5586645
vn -0.48783818 0.8729341 0
vn -0.30493772 0.8481573 -0.43317696
vn -0.44062474 0.86651933 -0.23450817
vn -0.30723563 0.84846646 -0.43094188
vn -0.43997225 0.866431 -0.23605448
vn -0.16059081 0.90768844 0.3877012
vn -0.2967335 0.90768844 0.29673383
vn -0.36125886 0.85964215 0.3612583
vn -0.1955118 0.8596422 0.4720067
vn -0.47200733 0.85964185 0.19551171
vn -4.958115E-07 0.9076884 0.41964483
vn -0.38770086 0.90768856 0.16059133
vn -6.273564E-07 0.8596422 0.5108964
vn -0.5108971 0.85964185 2.7759125E-07
vn 0.16059001 0.90768856 0.38770142
vn -0.419645 0.9076884 2.308541E-07
vn 0.19551077 0.8596424 0.47200692
vn -0.47200736 0.85964197 -0.19551165
vn 0.29673308 0.90768856 0.29673392
vn -0.3877014 0.9076884 -0.16059117
vn 0.36125848 0.85964215 0.36125842
vn -0.3612579 0.8596424 -0.36125854
vn 0.38770047 0.90768874 0.16059129
vn -0.29673308 0.90768856 -0.29673398
vn 0.4720073 0.85964197 0.19551165
vn -0.195511 0.8596423 -0.47200695
vn 0.41964453 0.90768856 2.0462069E-07
vn -0.16059001 0.90768856 -0.38770145
vn 0.5108969 0.85964197 2.442803E-07
vn 4.1638702E-07 0.8596422 -0.5108965
vn 0.3877012 0.9076884 -0.16059116
vn 5.125332E-07 0.9076884 -0.41964483
vn 0.472007 0.85964215 -0.19551164
vn 0.19551177 0.8596422 -0.4720067
vn 0.29673347 0.90768844 -0.2967338
vn 0.16059081 0.90768844 -0.3877012
vn 0.36125815 0.8596423 -0.3612584
vn 9.644407E-07 1 0
vn 5.125332E-07 0.9076884 -0.41964483
vn -0.16059001 0.90768856 -0.38770145
vn 4.822204E-07 1 0
vn 4.822203E-07 1 0
vn 0.16059081 0.90768844 -0.3877012
vn -0.29673308 0.90768856 -0.29673398
vn -4.8222034E-07 1 0
vn 7.233306E-07 1 0
vn 0.29673347 0.90768844 -0.2967338
vn -0.3877014 0.9076884 -0.16059117
vn -2.411102E-07 1 0
vn -0 1 0
vn 0.3877012 0.9076884 -0.16059116
vn -0.419645 0.9076884 2.308541E-07
vn -4.8561924E-07 1 0
vn -0 1 0
vn 0.41964453 0.90768856 2.0462069E-07
vn -0.38770086 0.90768856 0.16059133
vn -4.8561907E-07 1 0
vn 2.411102E-07 1 0
vn 0.38770047 0.90768874 0.16059129
vn -0.2967335 0.90768844 0.29673383
vn -7.233305E-07 1 0
vn 4.8222034E-07 1 0
vn 0.29673308 0.90768856 0.29673392
vn -0.16059081 0.90768844 0.3877012
vn -4.822203E-07 1 0
vn -4.822204E-07 1 0
vn 0.16059001 0.90768856 0.38770142
vn -4.958115E-07 0.9076884 0.41964483
vn -9.644407E-07 1 0
g Skyscraper_0
f 3/3/3 2/2/2 1/1/1
f 2/2/2 4/4/4 1/1/1
f 5/5/5 1/1/1 4/4/4
f 6/6/6 5/5/5 4/4/4
f 7/7/7 5/5/5 6/6/6
f 8/8/8 7/7/7 6/6/6
f 9/9/9 7/7/7 8/8/8
f 10/10/10 9/9/9 8/8/8
f 9/9/9 10/10/10 11/11/11
f 10/10/10 12/12/12 11/11/11
f 13/13/13 11/11/11 12/12/12
f 14/14/14 13/13/13 12/12/12
f 13/13/13 14/14/14 15/15/15
f 14/14/14 16/16/16 15/15/15
f 17/17/17 15/15/15 16/16/16
f 18/18/18 17/17/17 16/16/16
f 19/19/19 17/17/17 18/18/18
f 20/20/20 19/19/19 18/18/18
f 21/21/21 19/19/19 20/20/20
f 22/22/22 21/21/21 20/20/20
f 23/23/23 21/21/21 22/22/22
f 24/24/24 23/23/23 22/22/22
f 27/27/27 26/26/26 25/25/25
f 25/25/25 28/28/28 27/27/27
f 28/28/28 29/29/29 27/27/27
f 28/28/28 30/30/30 29/29/29
f 30/30/30 31/31/31 29/29/29
f 30/30/30 32/32/32 31/31/31
f 30/30/30 33/33/33 32/32/32
f 30/30/30 34/34/34 33/33/33
f 30/30/30 35/35/35 34/34/34
f 35/35/35 36/36/36 34/34/34
f 35/35/35 37/37/37 36/36/36
f 32/32/32 33/33/33 38/38/38
f 32/32/32 38/38/38 39/39/39
f 38/38/38 40/40/40 39/39/39
f 40/40/40 41/41/41 39/39/39
f 41/41/41 42/42/42 39/39/39
f 41/41/41 43/43/43 42/42/42
f 32/32/32 39/39/39 44/44/44
f 45/45/45 32/32/32 44/44/44
f 45/45/45 44/44/44 46/46/46
f 47/47/47 45/45/45 46/46/46
f 47/47/47 46/46/46 48/48/48
f 48/48/48 49/49/49 47/47/47
f 52/52/52 51/51/51 50/50/50
f 50/50/50 53/53/53 52/52/52
f 53/53/53 54/54/54 52/52/52
f 53/53/53 55/55/55 54/54/54
f 55/55/55 56/56/56 54/54/54
f 55/55/55 57/57/57 56/56/56
f 57/57/57 58/58/58 56/56/56
f 57/57/57 59/59/59 58/58/58
f 59/59/59 60/60/60 58/58/58
f 59/59/59 61/61/61 60/60/60
f 61/61/61 62/62/62 60/60/60
f 61/61/61 63/63/63 62/62/62
f 63/63/63 64/64/64 62/62/62
f 63/63/63 65/65/65 64/64/64
f 68/68/68 67/67/67 66/66/66
f 69/69/69 68/68/68 66/66/66
f 66/66/66 71/71/71 70/70/70
f 71/71/71 72/72/72 70/70/70
f 72/72/72 71/71/71 73/73/73
f 74/74/74 72/72/72 73/73/73
f 73/73/73 75/75/75 74/74/74
f 75/75/75 76/76/76 74/74/74
f 75/75/75 77/77/77 76/76/76
f 77/77/77 78/78/78 76/76/76
f 81/81/81 80/80/80 79/79/79
f 82/82/82 81/81/81 79/79/79
f 82/82/82 79/79/79 83/83/83
f 84/84/84 82/82/82 83/83/83
f 81/81/81 86/86/86 85/85/85
f 86/86/86 87/87/87 85/85/85
f 84/84/84 89/89/89 88/88/88
f 90/90/90 84/84/84 88/88/88
f 93/93/93 92/92/92 91/91/91
f 94/94/94 93/93/93 91/91/91
f 97/97/97 96/96/96 95/95/95
f 98/98/98 97/97/97 95/95/95
f 98/98/98 100/100/100 99/99/99
f 101/101/101 98/98/98 99/99/99
f 104/104/104 103/103/103 102/102/102
f 103/103/103 105/105/105 102/102/102
f 103/103/103 106/106/106 105/105/105
f 106/106/106 107/107/107 105/105/105
f 110/110/110 109/109/109 108/108/108
f 111/111/111 110/110/110 108/108/108
f 114/114/114 113/113/113 112/112/112
f 115/115/115 114/114/114 112/112/112
f 118/118/118 117/117/117 116/116/116
f 119/119/119 118/118/118 116/116/116
f 121/121/121 120/120/120 119/119/119
f 122/122/122 121/121/121 119/119/119
f 125/125/125 124/124/124 123/123/123
f 126/126/126 125/125/125 123/123/123
f 129/129/129 128/128/128 127/127/127
f 130/130/130 129/129/129 127/127/127
f 131/131/131 129/129/129 130/130/130
f 132/132/132 131/131/131 130/130/130
f 135/135/135 134/134/134 133/133/133
f 136/136/136 135/135/135 133/133/133
f 135/135/135 136/136/136 137/137/137
f 136/136/136 138/138/138 137/137/137
f 139/139/139 137/137/137 138/138/138
f 140/140/140 139/139/139 138/138/138
f 139/139/139 140/140/140 141/141/141
f 140/140/140 142/142/142 141/141/141
f 141/141/141 142/142/142 143/143/143
f 142/142/142 144/144/144 143/143/143
f 143/143/143 144/144/144 145/145/145
f 144/144/144 146/146/146 145/145/145
f 147/147/147 145/145/145 146/146/146
f 148/148/148 147/147/147 146/146/146
f 147/147/147 148/148/148 149/149/149
f 148/148/148 150/150/150 149/149/149
f 149/149/149 150/150/150 151/151/151
f 150/150/150 152/152/152 151/151/151
f 151/151/151 152/152/152 153/153/153
f 152/152/152 154/154/154 153/153/153
f 153/153/153 154/154/154 155/155/155
f 154/154/154 156/156/156 155/155/155
f 155/155/155 156/156/156 157/157/157
f 156/156/156 158/158/158 157/157/157
f 157/157/157 158/158/158 159/159/159
f 158/158/158 160/160/160 159/159/159
f 159/159/159 160/160/160 161/161/161
f 160/160/160 162/162/162 161/161/161
f 161/161/161 162/162/162 163/163/163
f 162/162/162 164/164/164 163/163/163
f 163/163/163 164/164/164 165/165/165
f 164/164/164 133/133/133 165/165/165
f 168/168/168 167/167/167 166/166/166
f 169/169/169 168/168/168 166/166/166
f 168/168/168 169/169/169 170/170/170
f 169/169/169 171/171/171 170/170/170
f 172/172/172 170/170/170 171/171/171
f 173/173/173 172/172/172 171/171/171
f 172/172/172 173/173/173 174/174/174
f 173/173/173 175/175/175 174/174/174
f 177/177/177 174/174/174 176/176/176
f 178/178/178 177/177/177 176/176/176
f 166/166/166 180/180/180 179/179/179
f 180/180/180 181/181/181 179/179/179
f 179/179/179 181/181/181 182/182/182
f 181/181/181 183/183/183 182/182/182
f 184/184/184 182/182/182 183/183/183
f 185/185/185 184/184/184 183/183/183
f 184/184/184 185/185/185 186/186/186
f 185/185/185 187/187/187 186/186/186
f 186/186/186 187/187/187 188/188/188
f 187/187/187 189/189/189 188/188/188
f 188/188/188 189/189/189 190/190/190
f 189/189/189 191/191/191 190/190/190
f 190/190/190 191/191/191 192/192/192
f 191/191/191 193/193/193 192/192/192
f 192/192/192 193/193/193 194/194/194
f 193/193/193 195/195/195 194/194/194
f 194/194/194 195/195/195 196/196/196
f 195/195/195 197/197/197 196/196/196
f 196/196/196 197/197/197 198/198/198
f 197/197/197 199/199/199 198/198/198
f 198/198/198 199/199/199 200/200/200
f 199/199/199 201/201/201 200/200/200
f 204/204/204 203/203/203 202/202/202
f 205/205/205 204/204/204 202/202/202
f 204/204/204 205/205/205 206/206/206
f 205/205/205 207/207/207 206/206/206
f 208/208/208 206/206/206 207/207/207
f 209/209/209 208/208/208 207/207/207
f 208/208/208 209/209/209 210/210/210
f 209/209/209 211/211/211 210/210/210
f 210/210/210 211/211/211 212/212/212
f 211/211/211 213/213/213 212/212/212
f 212/212/212 213/213/213 214/214/214
f 213/213/213 215/215/215 214/214/214
f 216/216/216 214/214/214 215/215/215
f 217/217/217 216/216/216 215/215/215
f 216/216/216 217/217/217 218/218/218
f 217/217/217 219/219/219 218/218/218
f 218/218/218 219/219/219 220/220/220
f 219/219/219 221/221/221 220/220/220
f 220/220/220 221/221/221 222/222/222
f 221/221/221 223/223/223 222/222/222
f 222/222/222 223/223/223 224/224/224
f 223/223/223 225/225/225 224/224/224
f 224/224/224 225/225/225 226/226/226
f 225/225/225 227/227/227 226/226/226
f 226/226/226 227/227/227 228/228/228
f 227/227/227 229/229/229 228/228/228
f 228/228/228 229/229/229 230/230/230
f 229/229/229 231/231/231 230/230/230
f 230/230/230 231/231/231 232/232/232
f 231/231/231 233/233/233 232/232/232
f 232/232/232 233/233/233 234/234/234
f 233/233/233 235/235/235 234/234/234
f 238/238/238 237/237/237 236/236/236
f 237/237/237 239/239/239 236/236/236
f 240/240/240 238/238/238 236/236/236
f 239/239/239 241/241/241 236/236/236
f 242/242/242 238/238/238 240/240/240
f 241/241/241 239/239/239 243/243/243
f 244/244/244 242/242/242 240/240/240
f 239/239/239 245/245/245 243/243/243
f 246/246/246 242/242/242 244/244/244
f 243/243/243 245/245/245 247/247/247
f 248/248/248 246/246/246 244/244/244
f 245/245/245 249/249/249 247/247/247
f 247/247/247 249/249/249 250/250/250
f 249/249/249 251/251/251 250/250/250
f 246/246/246 248/248/248 252/252/252
f 248/248/248 253/253/253 252/252/252
f 250/250/250 251/251/251 254/254/254
f 251/251/251 255/255/255 254/254/254
f 252/252/252 253/253/253 256/256/256
f 257/257/257 252/252/252 256/256/256
f 258/258/258 257/257/257 256/256/256
f 259/259/259 258/258/258 256/256/256
f 260/260/260 258/258/258 259/259/259
f 261/261/261 260/260/260 259/259/259
f 260/260/260 261/261/261 262/262/262
f 261/261/261 263/263/263 262/262/262
f 264/264/264 262/262/262 263/263/263
f 265/265/265 264/264/264 263/263/263
f 255/255/255 266/266/266 254/254/254
f 264/264/264 265/265/265 266/266/266
f 266/266/266 267/267/267 254/254/254
f 265/265/265 267/267/267 266/266/266
f 270/270/270 269/269/269 268/268/268
f 269/269/269 270/270/270 271/271/271
f 269/269/269 272/272/272 268/268/268
f 273/273/273 269/269/269 271/271/271
f 268/268/268 272/272/272 274/274/274
f 275/275/275 273/273/273 271/271/271
f 272/272/272 276/276/276 274/274/274
f 277/277/277 275/275/275 271/271/271
f 274/274/274 276/276/276 278/278/278
f 279/279/279 275/275/275 277/277/277
f 276/276/276 280/280/280 278/278/278
f 281/281/281 279/279/279 277/277/277
f 278/278/278 280/280/280 282/282/282
f 283/283/283 279/279/279 281/281/281
f 280/280/280 284/284/284 282/282/282
f 285/285/285 283/283/283 281/281/281
f 282/282/282 284/284/284 286/286/286
f 287/287/287 283/283/283 285/285/285
f 284/284/284 288/288/288 286/286/286
f 289/289/289 287/287/287 285/285/285
f 286/286/286 288/288/288 290/290/290
f 291/291/291 287/287/287 289/289/289
f 288/288/288 292/292/292 290/290/290
f 293/293/293 291/291/291 289/289/289
f 290/290/290 292/292/292 294/294/294
f 295/295/295 291/291/291 293/293/293
f 292/292/292 296/296/296 294/294/294
f 297/297/297 295/295/295 293/293/293
f 294/294/294 296/296/296 298/298/298
f 299/299/299 295/295/295 297/297/297
f 298/298/298 299/299/299 297/297/297
f 296/296/296 299/299/299 298/298/298
f 302/302/302 301/301/301 300/300/300
f 301/301/301 302/302/302 303/303/303
f 301/301/301 304/304/304 300/300/300
f 305/305/305 301/301/301 303/303/303
f 300/300/300 304/304/304 306/306/306
f 307/307/307 305/305/305 303/303/303
f 304/304/304 308/308/308 306/306/306
f 309/309/309 307/307/307 303/303/303
f 306/306/306 308/308/308 310/310/310
f 311/311/311 307/307/307 309/309/309
f 308/308/308 312/312/312 310/310/310
f 313/313/313 311/311/311 309/309/309
f 314/314/314 311/311/311 313/313/313
f 315/315/315 314/314/314 313/313/313
f 310/310/310 312/312/312 316/316/316
f 312/312/312 317/317/317 316/316/316
f 314/314/314 315/315/315 318/318/318
f 315/315/315 319/319/319 318/318/318
f 317/317/317 320/320/320 316/316/316
f 320/320/320 321/321/321 316/316/316
f 322/322/322 321/321/321 320/320/320
f 323/323/323 322/322/322 320/320/320
f 322/322/322 323/323/323 324/324/324
f 323/323/323 325/325/325 324/324/324
f 326/326/326 324/324/324 325/325/325
f 327/327/327 326/326/326 325/325/325
f 326/326/326 327/327/327 328/328/328
f 327/327/327 329/329/329 328/328/328
f 318/318/318 319/319/319 330/330/330
f 328/328/328 329/329/329 330/330/330
f 331/331/331 318/318/318 330/330/330
f 329/329/329 331/331/331 330/330/330
f 334/334/334 333/333/333 332/332/332
f 333/333/333 335/335/335 332/332/332
f 334/334/334 332/332/332 336/336/336
f 333/333/333 337/337/337 335/335/335
f 338/338/338 334/334/334 336/336/336
f 337/337/337 339/339/339 335/335/335
f 338/338/338 336/336/336 340/340/340
f 337/337/337 341/341/341 339/339/339
f 342/342/342 338/338/338 340/340/340
f 341/341/341 343/343/343 339/339/339
f 342/342/342 340/340/340 344/344/344
f 341/341/341 345/345/345 343/343/343
f 346/346/346 342/342/342 344/344/344
f 345/345/345 347/347/347 343/343/343
f 346/346/346 344/344/344 348/348/348
f 345/345/345 349/349/349 347/347/347
f 350/350/350 346/346/346 348/348/348
f 349/349/349 351/351/351 347/347/347
f 350/350/350 348/348/348 352/352/352
f 349/349/349 353/353/353 351/351/351
f 354/354/354 350/350/350 352/352/352
f 353/353/353 355/355/355 351/351/351
f 354/354/354 352/352/352 356/356/356
f 353/353/353 357/357/357 355/355/355
f 358/358/358 354/354/354 356/356/356
f 357/357/357 359/359/359 355/355/355
f 358/358/358 356/356/356 360/360/360
f 357/357/357 361/361/361 359/359/359
f 362/362/362 358/358/358 360/360/360
f 361/361/361 363/363/363 359/359/359
f 362/362/362 360/360/360 363/363/363
f 361/361/361 362/362/362 363/363/363
f 366/366/366 365/365/365 364/364/364
f 367/367/367 366/366/366 364/364/364
f 366/366/366 368/368/368 365/365/365
f 367/367/367 364/364/364 369/369/369
f 368/368/368 370/370/370 365/365/365
f 371/371/371 367/367/367 369/369/369
f 368/368/368 372/372/372 370/370/370
f 371/371/371 369/369/369 373/373/373
f 372/372/372 374/374/374 370/370/370
f 375/375/375 371/371/371 373/373/373
f 372/372/372 376/376/376 374/374/374
f 375/375/375 373/373/373 377/377/377
f 376/376/376 378/378/378 374/374/374
f 379/379/379 375/375/375 377/377/377
f 376/376/376 380/380/380 378/378/378
f 379/379/379 377/377/377 381/381/381
f 380/380/380 382/382/382 378/378/378
f 383/383/383 379/379/379 381/381/381
f 380/380/380 384/384/384 382/382/382
f 383/383/383 381/381/381 385/385/385
f 384/384/384 386/386/386 382/382/382
f 387/387/387 383/383/383 385/385/385
f 384/384/384 388/388/388 386/386/386
f 387/387/387 385/385/385 389/389/389
f 388/388/388 390/390/390 386/386/386
f 391/391/391 387/387/387 389/389/389
f 388/388/388 392/392/392 390/390/390
f 391/391/391 389/389/389 393/393/393
f 392/392/392 394/394/394 390/390/390
f 395/395/395 391/391/391 393/393/393
f 395/395/395 393/393/393 394/394/394
f 392/392/392 395/395/395 394/394/394
f 398/398/398 397/397/397 396/396/396
f 397/397/397 399/399/399 396/396/396
f 400/400/400 397/397/397 398/398/398
f 396/396/396 399/399/399 401/401/401
f 402/402/402 400/400/400 398/398/398
f 399/399/399 403/403/403 401/401/401
f 404/404/404 400/400/400 402/402/402
f 401/401/401 403/403/403 405/405/405
f 406/406/406 404/404/404 402/402/402
f 403/403/403 407/407/407 405/405/405
f 408/408/408 404/404/404 406/406/406
f 405/405/405 407/407/407 409/409/409
f 410/410/410 408/408/408 406/406/406
f 407/407/407 411/411/411 409/409/409
f 408/408/408 410/410/410 412/412/412
f 409/409/409 411/411/411 413/413/413
f 410/410/410 414/414/414 412/412/412
f 411/411/411 415/415/415 413/413/413
f 416/416/416 412/412/412 414/414/414
f 413/413/413 415/415/415 417/417/417
f 418/418/418 416/416/416 414/414/414
f 415/415/415 419/419/419 417/417/417
f 420/420/420 416/416/416 418/418/418
f 421/421/421 417/417/417 419/419/419
f 422/422/422 420/420/420 418/418/418
f 423/423/423 421/421/421 419/419/419
f 424/424/424 420/420/420 422/422/422
f 421/421/421 423/423/423 425/425/425
f 426/426/426 424/424/424 422/422/422
f 423/423/423 427/427/427 425/425/425
f 424/424/424 426/426/426 427/427/427
f 426/426/426 425/425/425 427/427/427
f 430/430/430 429/429/429 428/428/428
f 431/431/431 430/430/430 428/428/428
f 430/430/430 432/432/432 429/429/429
f 431/431/431 428/428/428 433/433/433
f 432/432/432 434/434/434 429/429/429
f 435/435/435 431/431/431 433/433/433
f 432/432/432 436/436/436 434/434/434
f 435/435/435 433/433/433 437/437/437
f 436/436/436 438/438/438 434/434/434
f 439/439/439 435/435/435 437/437/437
f 436/436/436 440/440/440 438/438/438
f 439/439/439 437/437/437 441/441/441
f 440/440/440 442/442/442 438/438/438
f 443/443/443 439/439/439 441/441/441
f 440/440/440 444/444/444 442/442/442
f 443/443/443 441/441/441 445/445/445
f 444/444/444 446/446/446 442/442/442
f 447/447/447 443/443/443 445/445/445
f 444/444/444 448/448/448 446/446/446
f 447/447/447 445/445/445 449/449/449
f 448/448/448 450/450/450 446/446/446
f 451/451/451 447/447/447 449/449/449
f 448/448/448 452/452/452 450/450/450
f 451/451/451 449/449/449 453/453/453
f 452/452/452 454/454/454 450/450/450
f 455/455/455 451/451/451 453/453/453
f 452/452/452 456/456/456 454/454/454
f 455/455/455 453/453/453 457/457/457
f 456/456/456 458/458/458 454/454/454
f 459/459/459 455/455/455 457/457/457
f 459/459/459 457/457/457 458/458/458
f 456/456/456 459/459/459 458/458/458
f 462/462/462 461/461/461 460/460/460
f 463/463/463 462/462/462 460/460/460
f 462/462/462 464/464/464 461/461/461
f 463/463/463 460/460/460 465/465/465
f 464/464/464 466/466/466 461/461/461
f 467/467/467 463/463/463 465/465/465
f 464/464/464 468/468/468 466/466/466
f 467/467/467 465/465/465 469/469/469
f 468/468/468 470/470/470 466/466/466
f 471/471/471 467/467/467 469/469/469
f 468/468/468 472/472/472 470/470/470
f 471/471/471 469/469/469 473/473/473
f 472/472/472 474/474/474 470/470/470
f 475/475/475 471/471/471 473/473/473
f 472/472/472 476/476/476 474/474/474
f 475/475/475 473/473/473 477/477/477
f 476/476/476 478/478/478 474/474/474
f 479/479/479 475/475/475 477/477/477
f 476/476/476 480/480/480 478/478/478
f 479/479/479 477/477/477 481/481/481
f 480/480/480 482/482/482 478/478/478
f 483/483/483 479/479/479 481/481/481
f 480/480/480 484/484/484 482/482/482
f 483/483/483 481/481/481 485/485/485
f 484/484/484 486/486/486 482/482/482
f 487/487/487 483/483/483 485/485/485
f 484/484/484 488/488/488 486/486/486
f 487/487/487 485/485/485 489/489/489
f 488/488/488 490/490/490 486/486/486
f 491/491/491 487/487/487 489/489/489
f 491/491/491 489/489/489 490/490/490
f 488/488/488 491/491/491 490/490/490
f 494/494/494 493/493/493 492/492/492
f 493/493/493 495/495/495 492/492/492
f 493/493/493 494/494/494 496/496/496
f 492/492/492 495/495/495 497/497/497
f 494/494/494 498/498/498 496/496/496
f 495/495/495 499/499/499 497/497/497
f 500/500/500 496/496/496 498/498/498
f 497/497/497 499/499/499 501/501/501
f 502/502/502 500/500/500 498/498/498
f 499/499/499 503/503/503 501/501/501
f 500/500/500 502/502/502 504/504/504
f 505/505/505 501/501/501 503/503/503
f 502/502/502 506/506/506 504/504/504
f 507/507/507 505/505/505 503/503/503
f 508/508/508 504/504/504 506/506/506
f 505/505/505 507/507/507 509/509/509
f 510/510/510 508/508/508 506/506/506
f 507/507/507 511/511/511 509/509/509
f 512/512/512 508/508/508 510/510/510
f 509/509/509 511/511/511 513/513/513
f 514/514/514 512/512/512 510/510/510
f 511/511/511 515/515/515 513/513/513
f 516/516/516 512/512/512 514/514/514
f 513/513/513 515/515/515 517/517/517
f 518/518/518 516/516/516 514/514/514
f 515/515/515 519/519/519 517/517/517
f 520/520/520 516/516/516 518/518/518
f 517/517/517 519/519/519 521/521/521
f 522/522/522 520/520/520 518/518/518
f 519/519/519 523/523/523 521/521/521
f 523/523/523 520/520/520 522/522/522
f 521/521/521 523/523/523 522/522/522
f 526/526/526 525/525/525 524/524/524
f 527/527/527 526/526/526 524/524/524
f 526/526/526 528/528/528 525/525/525
f 527/527/527 524/524/524 529/529/529
f 528/528/528 530/530/530 525/525/525
f 531/531/531 527/527/527 529/529/529
f 528/528/528 532/532/532 530/530/530
f 531/531/531 529/529/529 533/533/533
f 532/532/532 534/534/534 530/530/530
f 535/535/535 531/531/531 533/533/533
f 532/532/532 536/536/536 534/534/534
f 535/535/535 533/533/533 537/537/537
f 536/536/536 538/538/538 534/534/534
f 539/539/539 535/535/535 537/537/537
f 538/538/538 536/536/536 540/540/540
f 539/539/539 537/537/537 541/541/541
f 542/542/542 538/538/538 540/540/540
f 543/543/543 539/539/539 541/541/541
f 540/540/540 544/544/544 542/542/542
f 543/543/543 541/541/541 545/545/545
f 544/544/544 546/546/546 542/542/542
f 547/547/547 543/543/543 545/545/545
f 544/544/544 548/548/548 546/546/546
f 545/545/545 549/549/549 547/547/547
f 548/548/548 550/550/550 546/546/546
f 549/549/549 551/551/551 547/547/547
f 548/548/548 552/552/552 550/550/550
f 551/551/551 549/549/549 553/553/553
f 552/552/552 554/554/554 550/550/550
f 555/555/555 551/551/551 553/553/553
f 554/554/554 552/552/552 555/555/555
f 553/553/553 554/554/554 555/555/555
f 558/558/558 557/557/557 556/556/556
f 559/559/559 558/558/558 556/556/556
f 558/558/558 560/560/560 557/557/557
f 559/559/559 556/556/556 561/561/561
f 560/560/560 562/562/562 557/557/557
f 563/563/563 559/559/559 561/561/561
f 560/560/560 564/564/564 562/562/562
f 563/563/563 561/561/561 565/565/565
f 564/564/564 566/566/566 562/562/562
f 567/567/567 563/563/563 565/565/565
f 564/564/564 568/568/568 566/566/566
f 567/567/567 565/565/565 569/569/569
f 568/568/568 570/570/570 566/566/566
f 571/571/571 567/567/567 569/569/569
f 568/568/568 572/572/572 570/570/570
f 571/571/571 569/569/569 573/573/573
f 572/572/572 574/574/574 570/570/570
f 575/575/575 571/571/571 573/573/573
f 572/572/572 576/576/576 574/574/574
f 575/575/575 573/573/573 577/577/577
f 576/576/576 578/578/578 574/574/574
f 579/579/579 575/575/575 577/577/577
f 576/576/576 580/580/580 578/578/578
f 579/579/579 577/577/577 581/581/581
f 580/580/580 582/582/582 578/578/578
f 583/583/583 579/579/579 581/581/581
f 580/580/580 584/584/584 582/582/582
f 583/583/583 581/581/581 585/585/585
f 584/584/584 586/586/586 582/582/582
f 587/587/587 583/583/583 585/585/585
f 587/587/587 585/585/585 586/586/586
f 584/584/584 587/587/587 586/586/586
f 590/590/590 589/589/589 588/588/588
f 589/589/589 591/591/591 588/588/588
f 590/590/590 588/588/588 592/592/592
f 589/589/589 593/593/593 591/591/591
f 594/594/594 590/590/590 592/592/592
f 593/593/593 595/595/595 591/591/591
f 594/594/594 592/592/592 596/596/596
f 593/593/593 597/597/597 595/595/595
f 598/598/598 594/594/594 596/596/596
f 597/597/597 599/599/599 595/595/595
f 598/598/598 596/596/596 600/600/600
f 597/597/597 601/601/601 599/599/599
f 602/602/602 598/598/598 600/600/600
f 601/601/601 603/603/603 599/599/599
f 602/602/602 600/600/600 604/604/604
f 601/601/601 605/605/605 603/603/603
f 606/606/606 602/602/602 604/604/604
f 605/605/605 607/607/607 603/603/603
f 606/606/606 604/604/604 608/608/608
f 605/605/605 609/609/609 607/607/607
f 610/610/610 606/606/606 608/608/608
f 609/609/609 611/611/611 607/607/607
f 610/610/610 608/608/608 612/612/612
f 609/609/609 613/613/613 611/611/611
f 614/614/614 610/610/610 612/612/612
f 613/613/613 615/615/615 611/611/611
f 614/614/614 612/612/612 616/616/616
f 613/613/613 617/617/617 615/615/615
f 618/618/618 614/614/614 616/616/616
f 617/617/617 619/619/619 615/615/615
f 618/618/618 616/616/616 619/619/619
f 617/617/617 618/618/618 619/619/619
