g stickman_Player_Hat
v -0.80577636 4.8699985 0.008076388
v -0.92260253 4.471192 0.41195592
v -0.94110584 4.471846 0.023585346
v -0.942085 4.471192 -0.36725944
v -0.8058237 4.900745 0.35352606
v -0.63883626 4.4669976 0.76270324
v -0.82308793 4.900745 -0.33695096
v -0.6761924 4.4669976 -0.7313599
v -0.570233 4.96366 0.6663678
v -0.052416135 4.4588733 0.9472142
v -0.9817085 5.0141444 0.00853904
v -0.057855256 4.952684 0.83142126
v 0.5695535 4.4683433 0.78515095
v 0.49587554 4.9668336 0.67202455
v 0.8729222 4.462953 0.35022008
v 0.8009403 4.9949965 0.2879422
v 0.9333737 4.465299 -0.02253563
v -0.6034179 4.96366 -0.6608527
v -0.24479295 4.9509196 -0.8416268
v -0.26831362 4.457354 -0.9194175
v 0.044971786 4.954448 -0.85954565
v 0.06890294 4.4603925 -0.9688286
v 0.52960813 4.4683433 -0.8124574
v 0.46111402 4.9668336 -0.7182707
v 0.8930676 4.462953 -0.3909037
v 0.78502035 4.9949965 -0.34878168
v 0.8295504 5.001227 -0.031308465
v -0.11725597 5.0911 -0.9846798
v -0.51703584 5.1306577 -0.8921918
v 0.39421073 5.1260953 -0.9509203
v 0.7354654 5.1253 -0.7213754
v 0.9160131 5.0748906 -0.3929995
v 0.5234746 5.2066627 -0.78976184
v 0.93398404 5.0748906 0.32574573
v 0.8869132 5.0796037 -0.034193832
v 1.0251063 5.531318 -0.045052372
v 1.1254585 5.552626 -0.50776154
v 0.770049 5.1253 0.6618038
v 1.1488929 5.552626 0.4295123
v 0.94796276 5.5659556 -0.8487967
v 0.77925396 5.855244 -0.03042947
v 0.40348688 5.5686927 -1.1073805
v 0.6022022 5.61276 -0.88413584
v 0.6942816 6.0034423 -0.64721847
v 0.8233441 6.0019298 -0.38645577
v -0.10116677 5.559232 -1.1587993
v -0.5416707 5.574412 -1.0622137
v -0.101403624 6.011501 -0.9381941
v 0.33264926 6.022863 -0.7949831
v 0.4820222 5.9531207 -0.69126403
v 0.3126332 6.016931 -0.48453572
v -0.63062084 5.24003 -0.70082414
v -0.07254557 6.0927844 -0.5959647
v -0.03779567 5.9949317 -0.010580268
v -0.31280175 6.0745625 -0.49480247
v 0.4612047 6.035663 -0.23889199
v 0.53638995 5.915528 -0.024529466
v -0.46437958 5.973347 -0.81706995
v 0.8410834 6.0019298 0.3230242
v -0.8599485 5.1177936 -0.6514114
v -0.6727519 5.5891585 -0.7487423
v -0.46865785 6.018316 -0.5078613
v -0.59584606 5.9337926 -0.65907776
v -1.0247853 5.563049 -0.7066281
v -1.1862485 5.523105 -0.37204373
v -1.0150952 5.0197062 -0.36771414
v -0.8540511 5.984137 -0.53798026
v -0.54234815 6.0623403 -0.3581834
v -0.6071347 6.0705094 -0.21172899
v -0.96136534 5.998078 -0.3095373
v -0.9263737 5.9225707 -0.012666765
v -0.614172 5.949723 0.0034220815
v -0.5792687 6.0642314 0.28826788
v -0.44328254 6.018316 0.5070194
v -1.1098324 5.4955277 0.0025052782
v -0.99606085 5.121776 0.39357546
v -1.2017645 5.523105 0.40706065
v -0.8514888 5.1021905 0.62419015
v -0.9453033 5.998078 0.3328609
v -1.0579232 5.563049 0.73422766
v -0.6534122 5.159949 0.7448181
v -0.82670295 5.984137 0.55581546
v -0.4723948 5.1306577 0.8932312
v -0.6350906 5.5891585 0.7575174
v -0.56275916 5.9337926 0.6642282
v -0.34837893 5.9773307 0.841396
v -0.48938063 5.574412 1.029128
v -0.06282812 5.0924983 0.99736875
v 0.4406807 5.1260953 0.9076402
v -0.034695208 5.5506415 1.2050327
v 0.56173337 5.2066627 0.74040085
v -0.047667406 5.99326 0.9444033
v 0.4580993 5.5686927 1.0768422
v -0.19960299 6.10263 0.52857286
v -0.03451541 6.106563 0.5592507
v 0.98865664 5.5659556 0.7787521
v 0.6450819 5.61276 0.83083725
v 0.28758696 6.0169435 0.7927867
v 0.7252091 6.0034423 0.5897374
v 0.1465113 6.0916934 0.54460067
v 0.51540864 5.9531207 0.64403635
v 0.33589405 6.016931 0.44578394
v 0.39581192 5.9997687 0.33057404
v 0.47200888 6.035663 0.1932241
vt 0.5323752 0.03138256
vt 0.5323752 0.03138256
vt 0.5323752 0.03138256
vt 0.5323752 0.03138256
vt 0.5323752 0.03138256
vt 0.5323752 0.03138256
vt 0.5323752 0.03138256
vt 0.5323752 0.03138256
vt 0.5323752 0.03138256
vt 0.5323752 0.03138256
vt 0.5323752 0.03138256
vt 0.5323752 0.03138256
vt 0.5323752 0.03138256
vt 0.5323752 0.03138256
vt 0.5323752 0.03138256
vt 0.5323752 0.03138256
vt 0.5323752 0.03138256
vt 0.5323752 0.03138256
vt 0.5323752 0.03138256
vt 0.5323752 0.03138256
vt 0.5323752 0.03138256
vt 0.5323752 0.03138256
vt 0.5323752 0.03138256
vt 0.5323752 0.03138256
vt 0.5323752 0.03138256
vt 0.5323752 0.03138256
vt 0.5323752 0.03138256
vt 0.5323752 0.03138256
vt 0.5323752 0.03138256
vt 0.5323752 0.03138256
vt 0.5323752 0.03138256
vt 0.5323752 0.03138256
vt 0.5323752 0.03138256
vt 0.5323752 0.03138256
vt 0.5323752 0.03138256
vt 0.5323752 0.03138256
vt 0.5323752 0.03138256
vt 0.5323752 0.03138256
vt 0.5323752 0.03138256
vt 0.5323752 0.03138256
vt 0.5323752 0.03138256
vt 0.5323752 0.03138256
vt 0.5323752 0.03138256
vt 0.5323752 0.03138256
vt 0.5323752 0.03138256
vt 0.5323752 0.03138256
vt 0.5323752 0.03138256
vt 0.5323752 0.03138256
vt 0.5323752 0.03138256
vt 0.5323752 0.03138256
vt 0.5323752 0.03138256
vt 0.5323752 0.03138256
vt 0.5323752 0.03138256
vt 0.5323752 0.03138256
vt 0.5323752 0.03138256
vt 0.5323752 0.03138256
vt 0.5323752 0.03138256
vt 0.5323752 0.03138256
vt 0.5323752 0.03138256
vt 0.5323752 0.03138256
vt 0.5323752 0.03138256
vt 0.5323752 0.03138256
vt 0.5323752 0.03138256
vt 0.5323752 0.03138256
vt 0.5323752 0.03138256
vt 0.5323752 0.03138256
vt 0.5323752 0.03138256
vt 0.5323752 0.03138256
vt 0.5323752 0.03138256
vt 0.5323752 0.03138256
vt 0.5323752 0.03138256
vt 0.5323752 0.03138256
vt 0.5323752 0.03138256
vt 0.5323752 0.03138256
vt 0.5323752 0.03138256
vt 0.5323752 0.03138256
vt 0.5323752 0.03138256
vt 0.5323752 0.03138256
vt 0.5323752 0.03138256
vt 0.5323752 0.03138256
vt 0.5323752 0.03138256
vt 0.5323752 0.03138256
vt 0.5323752 0.03138256
vt 0.5323752 0.03138256
vt 0.5323752 0.03138256
vt 0.5323752 0.03138256
vt 0.5323752 0.03138256
vt 0.5323752 0.03138256
vt 0.5323752 0.03138256
vt 0.5323752 0.03138256
vt 0.5323752 0.03138256
vt 0.5323752 0.03138256
vt 0.5323752 0.03138256
vt 0.5323752 0.03138256
vt 0.5323752 0.03138256
vt 0.5323752 0.03138256
vt 0.5323752 0.03138256
vt 0.5323752 0.03138256
vt 0.5323752 0.03138256
vt 0.5323752 0.03138256
vt 0.5323752 0.03138256
vt 0.5323752 0.03138256
vt 0.5323752 0.03138256
vt 0.5323752 0.03138256
vn -0.9906094 -0.13280684 0.03248655
vn -0.7538312 -0.60727125 0.2509184
vn -0.96840346 -0.24827385 0.023554828
vn -0.7034034 -0.6264673 -0.33580133
vn -0.9124462 -0.11565472 0.39251208
vn -0.51523805 -0.54839385 0.6586304
vn -0.9174995 -0.1849788 -0.35210457
vn -0.5512989 -0.5729435 -0.6064694
vn -0.49754766 -0.0072882203 0.867406
vn -0.0112941405 -0.68489814 0.7285512
vn -0.7580096 -0.65216744 0.009950156
vn 0.040922698 0.029228508 0.9987348
vn 0.53240556 -0.5619596 0.6330448
vn 0.6131414 -0.13447414 0.77844346
vn 0.7661898 -0.55509335 0.3237661
vn 0.8921476 -0.3063592 0.3319891
vn 0.8173365 -0.57569337 0.023199337
vn -0.62189317 -0.09887683 -0.7768347
vn -0.27447146 -0.079645865 -0.9582912
vn -0.24647939 -0.619838 -0.7450159
vn 0.12893283 -0.08329764 -0.98814875
vn 0.10960338 -0.58362824 -0.8045901
vn 0.43198332 -0.5769944 -0.69315785
vn 0.5163165 -0.14570488 -0.84391195
vn 0.75058854 -0.5684732 -0.33683088
vn 0.87592095 -0.30661264 -0.37249333
vn 0.9749454 -0.22147445 -0.020746803
vn -0.053442262 -0.62251955 -0.7807774
vn -0.61546546 -0.47192833 -0.6312575
vn 0.45233783 -0.52449673 -0.7213139
vn 0.3897007 -0.64798206 -0.65441
vn 0.6622908 -0.7297578 -0.16977781
vn 0.4994385 -0.35557407 -0.79001796
vn 0.66926134 -0.7308715 0.13385092
vn 0.78393817 -0.6208092 -0.00606831
vn 0.99154 0.11543464 -0.059357088
vn 0.99196845 0.044425618 -0.11842708
vn 0.42305088 -0.6487942 0.6325299
vn 0.99642736 0.043313004 0.07250225
vn 0.5720919 0.01791939 -0.81999373
vn 0.5671462 0.81951314 -0.08211817
vn 0.4341349 0.05556545 -0.89913255
vn 0.45856407 0.0955207 -0.88351274
vn 0.14864177 0.89553225 -0.41943726
vn 0.4006771 0.9073574 0.12712345
vn -0.02291615 0.100342974 -0.994689
vn -0.6034737 0.03144898 -0.7967624
vn -0.030387154 0.71695226 -0.6964598
vn 0.299037 0.8918245 -0.3394497
vn 0.21838537 0.8481962 -0.48256713
vn 0.08099964 0.9965965 -0.0153101655
vn -0.55452454 -0.24878508 -0.7941086
vn 0.096141 0.99527293 -0.013736398
vn 0.033970896 0.99940526 -0.005927033
vn -0.34033194 0.9297512 0.1404874
vn 0.06838873 0.98152107 0.1787158
vn 0.20318314 0.9791229 -0.0059128786
vn -0.46986607 0.7865958 -0.40061563
vn 0.36751544 0.92354965 -0.10949147
vn -0.3964573 -0.5170185 -0.7586261
vn -0.5885751 0.055607937 -0.80652785
vn -0.15813468 0.9739973 -0.1622426
vn -0.37281662 0.7932123 -0.4814789
vn -0.61389136 0.045769062 -0.7880625
vn -0.9738677 -0.06566202 -0.21741718
vn -0.6985691 -0.6555613 -0.28677598
vn -0.32404232 0.8324593 -0.44945315
vn 0.036016654 0.98744255 -0.15381813
vn -0.08881516 0.9815088 0.16956529
vn -0.5304903 0.8426467 0.09233931
vn 0.010234863 0.99994755 0.00041321665
vn -0.25630644 0.8634065 0.43455285
vn -0.11040442 0.98773265 0.11043088
vn -0.15617251 0.9742365 0.16270624
vn -0.99740726 0.0072412104 0.071598664
vn -0.6733563 -0.67784095 0.29516587
vn -0.9862939 -0.06393171 0.15210894
vn -0.6157712 -0.42963406 0.660485
vn -0.52347314 0.851024 -0.04164213
vn -0.6147303 0.041601293 0.7876395
vn -0.5862913 -0.4007427 0.70403683
vn -0.28004482 0.85079414 0.4446619
vn -0.39790064 -0.4596048 0.79400164
vn -0.4513635 0.15933414 0.87799984
vn -0.31833178 0.7956248 0.5154087
vn -0.3327871 0.6985916 0.6334214
vn -0.5583702 0.15581708 0.81482744
vn -0.008807936 -0.67030615 0.7420324
vn 0.50977635 -0.5455266 0.66522837
vn 0.03076955 0.061543625 0.99763
vn 0.5394634 -0.3593579 0.76147306
vn 0.045307845 0.7516564 0.65799683
vn 0.51751906 0.073978946 0.8524677
vn -0.40583065 0.9070424 -0.11214147
vn 0.23404957 0.96929246 0.07545171
vn 0.6110434 0.018583016 0.7913789
vn 0.49638647 0.107336335 0.86144024
vn 0.30181605 0.8708021 0.38808614
vn 0.40752414 0.83827627 0.36223888
vn 0.13581365 0.99061805 -0.015183669
vn 0.20508313 0.8445071 0.49472082
vn 0.17435336 0.9844073 -0.02330581
vn 0.2584828 0.9411562 0.21774217
vn 0.046696015 0.9871029 -0.15312536
g stickman_Player_Hat_0
f 3/3/3 2/2/2 1/1/1
f 4/4/4 3/3/3 1/1/1
f 2/2/2 5/5/5 1/1/1
f 2/2/2 6/6/6 5/5/5
f 7/7/7 4/4/4 1/1/1
f 8/8/8 4/4/4 7/7/7
f 6/6/6 9/9/9 5/5/5
f 6/6/6 10/10/10 9/9/9
f 7/7/7 1/1/1 11/11/11
f 11/11/11 1/1/1 5/5/5
f 10/10/10 12/12/12 9/9/9
f 10/10/10 13/13/13 12/12/12
f 13/13/13 14/14/14 12/12/12
f 13/13/13 15/15/15 14/14/14
f 15/15/15 16/16/16 14/14/14
f 15/15/15 17/17/17 16/16/16
f 18/18/18 8/8/8 7/7/7
f 8/8/8 18/18/18 19/19/19
f 20/20/20 8/8/8 19/19/19
f 20/20/20 19/19/19 21/21/21
f 22/22/22 20/20/20 21/21/21
f 23/23/23 22/22/22 21/21/21
f 24/24/24 23/23/23 21/21/21
f 23/23/23 24/24/24 25/25/25
f 17/17/17 25/25/25 26/26/26
f 24/24/24 26/26/26 25/25/25
f 17/17/17 27/27/27 16/16/16
f 27/27/27 17/17/17 26/26/26
f 21/21/21 19/19/19 28/28/28
f 18/18/18 29/29/29 19/19/19
f 29/29/29 28/28/28 19/19/19
f 30/30/30 24/24/24 21/21/21
f 28/28/28 30/30/30 21/21/21
f 26/26/26 24/24/24 31/31/31
f 27/27/27 26/26/26 32/32/32
f 32/32/32 26/26/26 31/31/31
f 30/30/30 33/33/33 24/24/24
f 24/24/24 33/33/33 31/31/31
f 16/16/16 27/27/27 34/34/34
f 35/35/35 27/27/27 32/32/32
f 27/27/27 35/35/35 34/34/34
f 36/36/36 35/35/35 32/32/32
f 35/35/35 36/36/36 34/34/34
f 37/37/37 32/32/32 31/31/31
f 37/37/37 36/36/36 32/32/32
f 16/16/16 34/34/34 38/38/38
f 14/14/14 16/16/16 38/38/38
f 36/36/36 39/39/39 34/34/34
f 38/38/38 34/34/34 39/39/39
f 31/31/31 33/33/33 40/40/40
f 40/40/40 37/37/37 31/31/31
f 39/39/39 36/36/36 41/41/41
f 41/41/41 36/36/36 37/37/37
f 30/30/30 42/42/42 33/33/33
f 33/33/33 43/43/43 40/40/40
f 42/42/42 43/43/43 33/33/33
f 37/37/37 40/40/40 44/44/44
f 40/40/40 43/43/43 44/44/44
f 45/45/45 41/41/41 37/37/37
f 45/45/45 37/37/37 44/44/44
f 42/42/42 30/30/30 46/46/46
f 30/30/30 28/28/28 46/46/46
f 46/46/46 28/28/28 47/47/47
f 28/28/28 29/29/29 47/47/47
f 42/42/42 46/46/46 48/48/48
f 48/48/48 46/46/46 47/47/47
f 43/43/43 42/42/42 49/49/49
f 49/49/49 42/42/42 48/48/48
f 43/43/43 50/50/50 44/44/44
f 50/50/50 43/43/43 49/49/49
f 44/44/44 50/50/50 51/51/51
f 50/50/50 49/49/49 51/51/51
f 45/45/45 44/44/44 51/51/51
f 47/47/47 29/29/29 52/52/52
f 18/18/18 52/52/52 29/29/29
f 48/48/48 53/53/53 49/49/49
f 53/53/53 51/51/51 49/49/49
f 54/54/54 51/51/51 53/53/53
f 53/53/53 55/55/55 54/54/54
f 53/53/53 48/48/48 55/55/55
f 56/56/56 45/45/45 51/51/51
f 56/56/56 51/51/51 54/54/54
f 56/56/56 57/57/57 45/45/45
f 57/57/57 56/56/56 54/54/54
f 57/57/57 41/41/41 45/45/45
f 58/58/58 48/48/48 47/47/47
f 48/48/48 58/58/58 55/55/55
f 41/41/41 57/57/57 59/59/59
f 59/59/59 39/39/39 41/41/41
f 60/60/60 52/52/52 18/18/18
f 18/18/18 7/7/7 60/60/60
f 61/61/61 47/47/47 52/52/52
f 47/47/47 61/61/61 58/58/58
f 55/55/55 58/58/58 62/62/62
f 54/54/54 55/55/55 62/62/62
f 58/58/58 63/63/63 62/62/62
f 61/61/61 63/63/63 58/58/58
f 61/61/61 52/52/52 64/64/64
f 52/52/52 60/60/60 64/64/64
f 64/64/64 60/60/60 65/65/65
f 7/7/7 66/66/66 60/60/60
f 60/60/60 66/66/66 65/65/65
f 66/66/66 7/7/7 11/11/11
f 65/65/65 66/66/66 11/11/11
f 61/61/61 64/64/64 67/67/67
f 63/63/63 61/61/61 67/67/67
f 67/67/67 64/64/64 65/65/65
f 62/62/62 63/63/63 68/68/68
f 62/62/62 68/68/68 54/54/54
f 63/63/63 67/67/67 68/68/68
f 68/68/68 69/69/69 54/54/54
f 68/68/68 67/67/67 69/69/69
f 70/70/70 67/67/67 65/65/65
f 67/67/67 70/70/70 69/69/69
f 70/70/70 65/65/65 71/71/71
f 69/69/69 70/70/70 71/71/71
f 54/54/54 69/69/69 72/72/72
f 72/72/72 69/69/69 71/71/71
f 73/73/73 54/54/54 72/72/72
f 72/72/72 71/71/71 73/73/73
f 74/74/74 54/54/54 73/73/73
f 75/75/75 65/65/65 11/11/11
f 65/65/65 75/75/75 71/71/71
f 75/75/75 11/11/11 76/76/76
f 76/76/76 11/11/11 5/5/5
f 75/75/75 77/77/77 71/71/71
f 77/77/77 75/75/75 76/76/76
f 78/78/78 76/76/76 5/5/5
f 9/9/9 78/78/78 5/5/5
f 77/77/77 79/79/79 71/71/71
f 71/71/71 79/79/79 73/73/73
f 77/77/77 76/76/76 80/80/80
f 76/76/76 78/78/78 80/80/80
f 79/79/79 77/77/77 80/80/80
f 9/9/9 81/81/81 78/78/78
f 80/80/80 78/78/78 81/81/81
f 79/79/79 82/82/82 73/73/73
f 82/82/82 79/79/79 80/80/80
f 81/81/81 9/9/9 83/83/83
f 9/9/9 12/12/12 83/83/83
f 84/84/84 80/80/80 81/81/81
f 80/80/80 84/84/84 82/82/82
f 81/81/81 83/83/83 84/84/84
f 73/73/73 82/82/82 85/85/85
f 84/84/84 85/85/85 82/82/82
f 74/74/74 73/73/73 85/85/85
f 86/86/86 85/85/85 84/84/84
f 74/74/74 85/85/85 86/86/86
f 83/83/83 87/87/87 84/84/84
f 87/87/87 86/86/86 84/84/84
f 12/12/12 88/88/88 83/83/83
f 83/83/83 88/88/88 87/87/87
f 88/88/88 12/12/12 89/89/89
f 12/12/12 14/14/14 89/89/89
f 88/88/88 90/90/90 87/87/87
f 88/88/88 89/89/89 90/90/90
f 91/91/91 89/89/89 14/14/14
f 38/38/38 91/91/91 14/14/14
f 90/90/90 92/92/92 87/87/87
f 92/92/92 86/86/86 87/87/87
f 89/89/89 93/93/93 90/90/90
f 89/89/89 91/91/91 93/93/93
f 92/92/92 90/90/90 93/93/93
f 94/94/94 74/74/74 86/86/86
f 94/94/94 54/54/54 74/74/74
f 95/95/95 94/94/94 86/86/86
f 92/92/92 95/95/95 86/86/86
f 95/95/95 54/54/54 94/94/94
f 38/38/38 96/96/96 91/91/91
f 96/96/96 38/38/38 39/39/39
f 91/91/91 97/97/97 93/93/93
f 96/96/96 97/97/97 91/91/91
f 98/98/98 92/92/92 93/93/93
f 92/92/92 98/98/98 95/95/95
f 93/93/93 97/97/97 98/98/98
f 99/99/99 96/96/96 39/39/39
f 96/96/96 99/99/99 97/97/97
f 59/59/59 99/99/99 39/39/39
f 100/100/100 54/54/54 95/95/95
f 98/98/98 100/100/100 95/95/95
f 97/97/97 101/101/101 98/98/98
f 99/99/99 101/101/101 97/97/97
f 100/100/100 98/98/98 102/102/102
f 98/98/98 101/101/101 102/102/102
f 101/101/101 99/99/99 102/102/102
f 100/100/100 102/102/102 54/54/54
f 99/99/99 103/103/103 102/102/102
f 103/103/103 99/99/99 59/59/59
f 102/102/102 103/103/103 54/54/54
f 104/104/104 103/103/103 59/59/59
f 54/54/54 103/103/103 104/104/104
f 57/57/57 104/104/104 59/59/59
f 54/54/54 104/104/104 57/57/57
