g stickman_Worker3_Hat
v 0.30302006 6.2109785 -0.0111192465
v -0.034970403 6.3646107 -0.9329114
v 0.31070167 6.2032967 -1.0020459
v 0.65637374 6.0496645 -0.9252298
v -0.32687128 6.502879 -0.71782655
v 0.9482746 5.919077 -0.71014494
v -0.52659297 6.5950584 -0.3951993
v 1.1479963 5.8345795 -0.3875177
v -0.5957273 6.6334667 -0.018800855
v 1.2171307 5.811535 -0.0034376383
v -0.52659297 6.610421 0.36527932
v 1.1479963 5.849943 0.37296093
v -0.32687128 6.5259237 0.6879065
v 0.9482746 5.9421225 0.6955881
v -0.034970403 6.395337 0.9029913
v 0.65637374 6.080391 0.9106729
v 0.31070167 6.241705 0.9798074
v 0.940593 5.796172 -0.7485529
v 0.71782655 5.5734053 -0.26461208
v 1.1479963 5.703993 -0.41056246
v 1.2248123 5.6809473 -0.0034376383
v 0.5795577 5.6271763 -0.48737848
v 0.76391613 5.5580425 -0.0034376383
v 0.71782655 5.581087 0.2654184
v 1.1556778 5.7193556 0.40368736
v 0.37215447 5.7193556 -0.6410105
v 0.6333289 5.9344406 -0.9866826
v 0.26461208 6.1034355 -1.0634986
v 0.13402486 5.8268986 -0.6947817
v -0.10410488 6.2724314 -0.9866826
v -0.10410488 5.9344406 -0.6410105
v -0.41905046 6.4183817 -0.76391613
v -0.31150806 6.0343018 -0.4950601
v -0.62645376 6.518242 -0.41824406
v -0.44209528 6.0957546 -0.27229363
v -0.6955881 6.55665 -0.018800855
v -0.48818493 6.126481 -0.0111192465
v -0.62645376 6.5336056 0.38832414
v -0.44209528 6.1111174 0.25773692
v -0.41905046 6.4414263 0.73399615
v -0.30382645 6.0496645 0.48050332
v -0.10410488 6.303158 0.96444416
v -0.10410488 5.957485 0.62645376
v 0.26461208 6.134162 1.0489419
v 0.13402486 5.849943 0.680225
v 0.6333289 5.965167 0.97212577
v 0.37983608 5.7424 0.63413537
v 0.5795577 5.64254 0.48818493
v 0.940593 5.8192167 0.74167776
v -0.25773692 4.766837 -0.6256473
v -0.48050332 4.766837 -0.47969693
v 0.0034376383 4.7822 -0.0034376383
v 0.0034376383 4.766837 -0.67941856
v -0.62645376 4.766837 -0.25693047
v 0.25693047 4.766837 -0.6256473
v -0.680225 4.766837 -0.0034376383
v 0.47969693 4.766837 -0.47969693
v -0.62645376 4.766837 0.25773692
v 0.6256473 4.766837 -0.25693047
v -0.48050332 4.766837 0.48050332
v 0.67941856 4.766837 -0.0034376383
v -0.25773692 4.766837 0.62645376
v 0.6256473 4.766837 0.25773692
v 0.0034376383 4.766837 0.680225
v 0.47969693 4.766837 0.48050332
v 0.25693047 4.766837 0.62645376
v -0.61109054 5.4428177 -0.26461208
v -0.6648618 5.465863 -0.0034376383
v -0.680225 5.035693 -0.0034376383
v -0.63413537 5.035693 -0.26461208
v -0.63413537 5.035693 0.25773692
v -0.4728217 5.4044104 -0.48737848
v -0.61109054 5.4428177 0.2654184
v -0.48050332 5.035693 -0.47969693
v -0.48050332 5.035693 0.48050332
v -0.25773692 5.35832 -0.6333289
v -0.4728217 5.4044104 0.48818493
v -0.25773692 5.035693 -0.6333289
v -0.25773692 5.035693 0.63413537
v -0.011925578 5.312231 -0.6871002
v -0.25773692 5.35832 0.63413537
v 0.0034376383 5.035693 -0.67941856
v 0.0034376383 5.035693 0.680225
v 0.26461208 5.266141 -0.6333289
v -0.011925578 5.312231 0.6879065
v 0.26461208 5.035693 -0.6333289
v 0.26461208 5.035693 0.63413537
v 0.48737848 5.2430964 -0.48737848
v 0.26461208 5.266141 0.63413537
v 0.47969693 5.035693 -0.47969693
v 0.47969693 5.035693 0.48050332
v 0.6333289 5.220052 -0.26461208
v 0.48737848 5.2430964 0.48818493
v 0.6333289 5.035693 -0.26461208
v 0.6333289 5.035693 0.25773692
v 0.67941856 5.21237 -0.0034376383
v 0.6333289 5.220052 0.2654184
v 0.67941856 5.035693 -0.0034376383
v -0.44209528 6.0957546 -0.27229363
v -0.48818493 6.126481 -0.0111192465
v -0.6648618 5.465863 -0.0034376383
v -0.61109054 5.4428177 -0.26461208
v -0.61109054 5.4428177 0.2654184
v -0.31150806 6.0343018 -0.4950601
v -0.44209528 6.1111174 0.25773692
v -0.4728217 5.4044104 -0.48737848
v -0.4728217 5.4044104 0.48818493
v -0.10410488 5.9344406 -0.6410105
v -0.30382645 6.0496645 0.48050332
v -0.25773692 5.35832 -0.6333289
v -0.25773692 5.35832 0.63413537
v 0.13402486 5.8268986 -0.6947817
v -0.10410488 5.957485 0.62645376
v -0.011925578 5.312231 -0.6871002
v -0.011925578 5.312231 0.6879065
v 0.37215447 5.7193556 -0.6410105
v 0.13402486 5.849943 0.680225
v 0.26461208 5.266141 -0.6333289
v 0.26461208 5.266141 0.63413537
v 0.5795577 5.6271763 -0.48737848
v 0.37983608 5.7424 0.63413537
v 0.48737848 5.2430964 -0.48737848
v 0.48737848 5.2430964 0.48818493
v 0.71782655 5.5734053 -0.26461208
v 0.5795577 5.64254 0.48818493
v 0.6333289 5.220052 -0.26461208
v 0.6333289 5.220052 0.2654184
v 0.76391613 5.5580425 -0.0034376383
v 0.71782655 5.581087 0.2654184
v 0.67941856 5.21237 -0.0034376383
v -0.41905046 6.4183817 -0.76391613
v -0.32687128 6.502879 -0.71782655
v -0.52659297 6.5950584 -0.3951993
v -0.62645376 6.518242 -0.41824406
v -0.10410488 6.2724314 -0.9866826
v -0.5957273 6.6334667 -0.018800855
v -0.034970403 6.3646107 -0.9329114
v -0.6955881 6.55665 -0.018800855
v 0.26461208 6.1034355 -1.0634986
v -0.52659297 6.610421 0.36527932
v 0.31070167 6.2032967 -1.0020459
v -0.62645376 6.5336056 0.38832414
v 0.6333289 5.9344406 -0.9866826
v -0.32687128 6.5259237 0.6879065
v 0.65637374 6.0496645 -0.9252298
v -0.41905046 6.4414263 0.73399615
v 0.940593 5.796172 -0.7485529
v -0.034970403 6.395337 0.9029913
v 0.9482746 5.919077 -0.71014494
v -0.10410488 6.303158 0.96444416
v 1.1479963 5.703993 -0.41056246
v 0.31070167 6.241705 0.9798074
v 1.1479963 5.8345795 -0.3875177
v 0.26461208 6.134162 1.0489419
v 1.2248123 5.6809473 -0.0034376383
v 0.65637374 6.080391 0.9106729
v 1.2171307 5.811535 -0.0034376383
v 0.6333289 5.965167 0.97212577
v 1.1556778 5.7193556 0.40368736
v 0.9482746 5.9421225 0.6955881
v 1.1479963 5.849943 0.37296093
v 0.940593 5.8192167 0.74167776
v 0.47969693 5.035693 0.48050332
v 0.6333289 5.035693 0.25773692
v 0.6256473 4.766837 0.25773692
v 0.47969693 4.766837 0.48050332
v 0.67941856 4.766837 -0.0034376383
v 0.26461208 5.035693 0.63413537
v 0.67941856 5.035693 -0.0034376383
v 0.25693047 4.766837 0.62645376
v 0.6256473 4.766837 -0.25693047
v 0.0034376383 5.035693 0.680225
v 0.6333289 5.035693 -0.26461208
v 0.0034376383 4.766837 0.680225
v 0.47969693 4.766837 -0.47969693
v -0.25773692 5.035693 0.63413537
v 0.47969693 5.035693 -0.47969693
v -0.25773692 4.766837 0.62645376
v 0.25693047 4.766837 -0.6256473
v -0.48050332 5.035693 0.48050332
v 0.26461208 5.035693 -0.6333289
v -0.48050332 4.766837 0.48050332
v 0.0034376383 4.766837 -0.67941856
v -0.63413537 5.035693 0.25773692
v 0.0034376383 5.035693 -0.67941856
v -0.62645376 4.766837 0.25773692
v -0.25773692 4.766837 -0.6256473
v -0.680225 5.035693 -0.0034376383
v -0.25773692 5.035693 -0.6333289
v -0.680225 4.766837 -0.0034376383
v -0.48050332 4.766837 -0.47969693
v -0.63413537 5.035693 -0.26461208
v -0.48050332 5.035693 -0.47969693
v -0.62645376 4.766837 -0.25693047
vt 0.5260496 0.027810482
vt 0.5260496 0.027810482
vt 0.5260496 0.027810482
vt 0.5260496 0.027810482
vt 0.5260496 0.027810482
vt 0.5260496 0.027810482
vt 0.5260496 0.027810482
vt 0.5260496 0.027810482
vt 0.5260496 0.027810482
vt 0.5260496 0.027810482
vt 0.5260496 0.027810482
vt 0.5260496 0.027810482
vt 0.5260496 0.027810482
vt 0.5260496 0.027810482
vt 0.5260496 0.027810482
vt 0.5260496 0.027810482
vt 0.5260496 0.027810482
vt 0.5260496 0.027810482
vt 0.5260496 0.027810482
vt 0.5260496 0.027810482
vt 0.5260496 0.027810482
vt 0.5260496 0.027810482
vt 0.5260496 0.027810482
vt 0.5260496 0.027810482
vt 0.5260496 0.027810482
vt 0.5260496 0.027810482
vt 0.5260496 0.027810482
vt 0.5260496 0.027810482
vt 0.5260496 0.027810482
vt 0.5260496 0.027810482
vt 0.5260496 0.027810482
vt 0.5260496 0.027810482
vt 0.5260496 0.027810482
vt 0.5260496 0.027810482
vt 0.5260496 0.027810482
vt 0.5260496 0.027810482
vt 0.5260496 0.027810482
vt 0.5260496 0.027810482
vt 0.5260496 0.027810482
vt 0.5260496 0.027810482
vt 0.5260496 0.027810482
vt 0.5260496 0.027810482
vt 0.5260496 0.027810482
vt 0.5260496 0.027810482
vt 0.5260496 0.027810482
vt 0.5260496 0.027810482
vt 0.5260496 0.027810482
vt 0.5260496 0.027810482
vt 0.5260496 0.027810482
vt 0.5260496 0.027810482
vt 0.5260496 0.027810482
vt 0.5260496 0.027810482
vt 0.5260496 0.027810482
vt 0.5260496 0.027810482
vt 0.5260496 0.027810482
vt 0.5260496 0.027810482
vt 0.5260496 0.027810482
vt 0.5260496 0.027810482
vt 0.5260496 0.027810482
vt 0.5260496 0.027810482
vt 0.5260496 0.027810482
vt 0.5260496 0.027810482
vt 0.5260496 0.027810482
vt 0.5260496 0.027810482
vt 0.5260496 0.027810482
vt 0.5260496 0.027810482
vt 0.21773332 0.46931943
vt 0.21773332 0.46931943
vt 0.21773332 0.46931943
vt 0.21773332 0.46931943
vt 0.21773332 0.46931943
vt 0.21773332 0.46931943
vt 0.21773332 0.46931943
vt 0.21773332 0.46931943
vt 0.21773332 0.46931943
vt 0.21773332 0.46931943
vt 0.21773332 0.46931943
vt 0.21773332 0.46931943
vt 0.21773332 0.46931943
vt 0.21773332 0.46931943
vt 0.21773332 0.46931943
vt 0.21773332 0.46931943
vt 0.21773332 0.46931943
vt 0.21773332 0.46931943
vt 0.21773332 0.46931943
vt 0.21773332 0.46931943
vt 0.21773332 0.46931943
vt 0.21773332 0.46931943
vt 0.21773332 0.46931943
vt 0.21773332 0.46931943
vt 0.21773332 0.46931943
vt 0.21773332 0.46931943
vt 0.21773332 0.46931943
vt 0.21773332 0.46931943
vt 0.21773332 0.46931943
vt 0.21773332 0.46931943
vt 0.21773332 0.46931943
vt 0.21773332 0.46931943
vt 0.5260496 0.027810482
vt 0.5260496 0.027810482
vt 0.5260496 0.027810482
vt 0.5260496 0.027810482
vt 0.5260496 0.027810482
vt 0.5260496 0.027810482
vt 0.5260496 0.027810482
vt 0.5260496 0.027810482
vt 0.5260496 0.027810482
vt 0.5260496 0.027810482
vt 0.5260496 0.027810482
vt 0.5260496 0.027810482
vt 0.5260496 0.027810482
vt 0.5260496 0.027810482
vt 0.5260496 0.027810482
vt 0.5260496 0.027810482
vt 0.5260496 0.027810482
vt 0.5260496 0.027810482
vt 0.5260496 0.027810482
vt 0.5260496 0.027810482
vt 0.5260496 0.027810482
vt 0.5260496 0.027810482
vt 0.5260496 0.027810482
vt 0.5260496 0.027810482
vt 0.5260496 0.027810482
vt 0.5260496 0.027810482
vt 0.5260496 0.027810482
vt 0.5260496 0.027810482
vt 0.5260496 0.027810482
vt 0.5260496 0.027810482
vt 0.5260496 0.027810482
vt 0.5260496 0.027810482
vt 0.5260496 0.027810482
vt 0.5260496 0.027810482
vt 0.5260496 0.027810482
vt 0.5260496 0.027810482
vt 0.5260496 0.027810482
vt 0.5260496 0.027810482
vt 0.5260496 0.027810482
vt 0.5260496 0.027810482
vt 0.5260496 0.027810482
vt 0.5260496 0.027810482
vt 0.5260496 0.027810482
vt 0.5260496 0.027810482
vt 0.5260496 0.027810482
vt 0.5260496 0.027810482
vt 0.5260496 0.027810482
vt 0.5260496 0.027810482
vt 0.5260496 0.027810482
vt 0.5260496 0.027810482
vt 0.5260496 0.027810482
vt 0.5260496 0.027810482
vt 0.5260496 0.027810482
vt 0.5260496 0.027810482
vt 0.5260496 0.027810482
vt 0.5260496 0.027810482
vt 0.5260496 0.027810482
vt 0.5260496 0.027810482
vt 0.5260496 0.027810482
vt 0.5260496 0.027810482
vt 0.5260496 0.027810482
vt 0.5260496 0.027810482
vt 0.5260496 0.027810482
vt 0.5260496 0.027810482
vt 0.21773332 0.6567757
vt 0.21773332 0.6567757
vt 0.21773332 0.6567757
vt 0.21773332 0.6567757
vt 0.21773332 0.6567757
vt 0.21773332 0.6567757
vt 0.21773332 0.6567757
vt 0.21773332 0.6567757
vt 0.21773332 0.6567757
vt 0.21773332 0.6567757
vt 0.21773332 0.6567757
vt 0.21773332 0.6567757
vt 0.21773332 0.6567757
vt 0.21773332 0.6567757
vt 0.21773332 0.6567757
vt 0.21773332 0.6567757
vt 0.21773332 0.6567757
vt 0.21773332 0.6567757
vt 0.21773332 0.6567757
vt 0.21773332 0.6567757
vt 0.21773332 0.6567757
vt 0.21773332 0.6567757
vt 0.21773332 0.6567757
vt 0.21773332 0.6567757
vt 0.21773332 0.6567757
vt 0.21773332 0.6567757
vt 0.21773332 0.6567757
vt 0.21773332 0.6567757
vt 0.21773332 0.6567757
vt 0.21773332 0.6567757
vt 0.21773332 0.6567757
vt 0.21773332 0.6567757
vn 0.4280863 0.90373784 -0
vn 0.4280863 0.90373784 -0
vn 0.4280863 0.90373784 -0
vn 0.39677554 0.9046483 -0.1555011
vn 0.4280863 0.90373784 -0
vn 0.39677554 0.9046483 -0.1555011
vn 0.4280863 0.90373784 -0
vn 0.39677554 0.9046483 -0.1555011
vn 0.4280863 0.90373784 -0
vn 0.39677554 0.9046483 -0.1555011
vn 0.4280863 0.90373784 -0
vn 0.39677554 0.9046483 -0.1555011
vn 0.4280863 0.90373784 -0
vn 0.39677554 0.9046483 -0.1555011
vn 0.4280863 0.90373784 -0
vn 0.39677554 0.9046483 -0.1555011
vn 0.4280863 0.90373784 -0
vn 0.07935506 -0.90464824 -0.41870552
vn 0.20632327 -0.9363903 -0.28390837
vn 0.20632327 -0.9363903 -0.28390837
vn 0.26845822 -0.9632913 -0
vn 0.07935506 -0.90464824 -0.41870552
vn 0.26845822 -0.9632913 -0
vn 0.20632327 -0.9363903 0.28390837
vn 0.20632327 -0.9363903 0.28390837
vn -0.11109722 -0.8094221 -0.5766223
vn -0.11109722 -0.8094221 -0.5766223
vn -0.33329153 -0.71419597 -0.6155005
vn -0.33329153 -0.71419597 -0.6155005
vn -0.5554857 -0.6189698 -0.55525845
vn -0.5554857 -0.6189698 -0.55525845
vn -0.74593806 -0.5237437 -0.41142306
vn -0.74593806 -0.5237437 -0.41142306
vn -0.84116423 -0.46025962 -0.28390813
vn -0.84116423 -0.46025962 -0.28390813
vn -0.90373784 -0.4280863 -0
vn -0.90373784 -0.4280863 -0
vn -0.84116423 -0.46025962 0.28390813
vn -0.84116423 -0.46025962 0.28390813
vn -0.71419597 -0.49200165 0.4978539
vn -0.71419597 -0.49200165 0.4978539
vn -0.5554857 -0.5872278 0.58872664
vn -0.5554857 -0.5872278 0.58872664
vn -0.33329153 -0.68245393 0.65051776
vn -0.33329153 -0.68245393 0.65051776
vn -0.07935512 -0.77768004 0.6236317
vn -0.07935512 -0.77768004 0.6236317
vn 0.07935506 -0.8729062 0.48139122
vn 0.07935506 -0.8729062 0.48139122
vn 0.015870985 -0.9998741 -0
vn 0.015870985 -0.9998741 -0
vn -0.015871044 -0.9998741 -0
vn -0.015871044 -0.9998741 -0
vn 0.015870985 -0.9998741 -0
vn -0.015871044 -0.9998741 -0
vn 0.015870985 -0.9998741 -0
vn -0.015871044 -0.9998741 -0
vn 0.015870985 -0.9998741 -0
vn -0.015871044 -0.9998741 -0
vn 0.015870985 -0.9998741 -0
vn -0.015871044 -0.9998741 -0
vn 0.015870985 -0.9998741 -0
vn -0.015871044 -0.9998741 -0
vn -0.015871044 -0.9998741 -0
vn -0.015871044 -0.9998741 -0
vn -0.015871044 -0.9998741 -0
vn -0.9046483 0.1428392 -0.40150765
vn -0.9899495 0.14142136 -0
vn -0.9998741 0.015871044 -0
vn -0.9363903 0.015871048 -0.3506014
vn -0.9363903 0.015871048 0.3506014
vn -0.71419597 0.07935512 -0.6954329
vn -0.9046483 0.1428392 0.40150765
vn -0.71419597 0.015871048 -0.69976586
vn -0.71419597 0.015871048 0.69976586
vn -0.3967756 0.047613144 -0.9166799
vn -0.71419597 0.11109722 0.69107276
vn -0.3967756 -0.015870988 -0.91777843
vn -0.3967756 -0.015870988 0.91777843
vn -0.015871048 -0.015870988 -0.99974805
vn -0.3967756 0.047613144 0.9166799
vn -0.015871048 -0.015870988 -0.99974805
vn -0.015871048 -0.015870988 0.99974805
vn 0.3650335 -0.047613025 -0.9297761
vn -0.015871048 -0.015870988 0.99974805
vn 0.3650335 -0.015870988 -0.9308591
vn 0.3650335 -0.015870988 0.9308591
vn 0.68245393 -0.07935506 -0.72660816
vn 0.3650335 -0.047613025 0.9297761
vn 0.71419597 -0.015870988 -0.69976586
vn 0.71419597 -0.015870988 0.69976586
vn 0.90464824 -0.11109716 -0.4114231
vn 0.68245393 -0.07935506 0.72660816
vn 0.9363903 -0.015870988 -0.3506014
vn 0.9363903 -0.015870988 0.3506014
vn 0.9938838 -0.11043154 -0
vn 0.90464824 -0.11109716 0.4114231
vn 0.9998741 -0.015870985 -0
vn -0.9046483 0.23806536 -0.3534633
vn -0.9681324 0.23806536 -0.07774693
vn -0.9899495 0.14142136 -0
vn -0.9046483 0.1428392 -0.40150765
vn -0.9046483 0.1428392 0.40150765
vn -0.71419597 0.17458129 -0.6778241
vn -0.9046483 0.23806536 0.3534633
vn -0.71419597 0.07935512 -0.6954329
vn -0.71419597 0.11109722 0.69107276
vn -0.3967756 0.07935512 -0.914479
vn -0.71419597 0.17458129 0.6778241
vn -0.3967756 0.047613144 -0.9166799
vn -0.3967756 0.047613144 0.9166799
vn -0.015871048 -0.015870988 -0.99974805
vn -0.3967756 0.11109722 0.9111677
vn -0.015871048 -0.015870988 -0.99974805
vn -0.015871048 -0.015870988 0.99974805
vn 0.3650335 -0.11109716 -0.9243419
vn -0.015871048 0.015871048 0.99974805
vn 0.3650335 -0.047613025 -0.9297761
vn 0.3650335 -0.047613025 0.9297761
vn 0.68245393 -0.17458123 -0.70977324
vn 0.3332914 -0.07935506 0.9394784
vn 0.68245393 -0.07935506 -0.72660816
vn 0.68245393 -0.07935506 0.72660816
vn 0.90464824 -0.20632327 -0.37288368
vn 0.68245393 -0.1428392 0.71683586
vn 0.90464824 -0.11109716 -0.4114231
vn 0.90464824 -0.11109716 0.4114231
vn 0.9681323 -0.2380653 0.07774789
vn 0.90464824 -0.20632327 0.37288368
vn 0.9938838 -0.11043154 -0
vn -0.3650335 0.682454 -0.6332512
vn -0.3650335 0.682454 -0.6332512
vn -0.52374375 0.77768004 -0.34771582
vn -0.52374375 0.77768004 -0.34771582
vn -0.11109722 0.5872278 -0.80176115
vn -0.5872276 0.80942184 -0
vn -0.11109722 0.5872278 -0.80176115
vn -0.5872276 0.80942184 -0
vn 0.20632327 0.42851758 -0.87966096
vn -0.52374375 0.77768004 0.34771582
vn 0.20632327 0.42851758 -0.87966096
vn -0.52374375 0.77768004 0.34771582
vn 0.49200165 0.30154943 -0.8167021
vn -0.3650335 0.71419597 0.59722245
vn 0.49200165 0.30154943 -0.8167021
vn -0.3650335 0.71419597 0.59722245
vn 0.77768004 0.17458129 -0.6039331
vn -0.11109722 0.5872278 0.80176115
vn 0.77768004 0.17458129 -0.6039331
vn -0.11109722 0.5872278 0.80176115
vn 0.9363903 0.11109722 -0.33291236
vn 0.20632327 0.46025968 0.8634766
vn 0.9363903 0.11109722 -0.33291236
vn 0.20632327 0.46025968 0.8634766
vn 0.9968654 0.079116315 -0
vn 0.49200165 0.33329153 0.80427057
vn 0.9968654 0.079116315 -0
vn 0.49200165 0.33329153 0.80427057
vn 0.9363903 0.11109722 0.33291236
vn 0.77768004 0.20632327 0.5938388
vn 0.9363903 0.11109722 0.33291236
vn 0.77768004 0.20632327 0.5938388
vn 0.71419597 -0.015870988 0.69976586
vn 0.9363903 -0.015870988 0.3506014
vn 0.9363903 -0.015870988 0.3506014
vn 0.71419597 -0.015870988 0.69976586
vn 0.9998741 -0.015870985 -0
vn 0.3650335 -0.015870988 0.9308591
vn 0.9998741 -0.015870985 -0
vn 0.39677554 -0.015870988 0.91777843
vn 0.9363903 -0.015870988 -0.3506014
vn -0.015871048 -0.015870988 0.99974805
vn 0.9363903 -0.015870988 -0.3506014
vn -0.015871048 -0.015870988 0.99974805
vn 0.71419597 -0.015870988 -0.69976586
vn -0.3967756 -0.015870988 0.91777843
vn 0.71419597 -0.015870988 -0.69976586
vn -0.3967756 -0.015870988 0.91777843
vn 0.39677554 -0.015870988 -0.91777843
vn -0.71419597 0.015871048 0.69976586
vn 0.3650335 -0.015870988 -0.9308591
vn -0.71419597 -0.015870988 0.69976586
vn -0.015871048 -0.015870988 -0.99974805
vn -0.9363903 0.015871048 0.3506014
vn -0.015871048 -0.015870988 -0.99974805
vn -0.9363903 -0.015870988 0.3506014
vn -0.3967756 -0.015870988 -0.91777843
vn -0.9998741 0.015871044 -0
vn -0.3967756 -0.015870988 -0.91777843
vn -0.9998741 -0.015870985 -0
vn -0.71419597 -0.015870988 -0.69976586
vn -0.9363903 0.015871048 -0.3506014
vn -0.71419597 0.015871048 -0.69976586
vn -0.9363903 -0.015870988 -0.3506014
g stickman_Worker3_Hat_0
f 3/3/3 2/2/2 1/1/1
f 4/4/4 3/3/3 1/1/1
f 2/2/2 5/5/5 1/1/1
f 6/6/6 4/4/4 1/1/1
f 5/5/5 7/7/7 1/1/1
f 8/8/8 6/6/6 1/1/1
f 7/7/7 9/9/9 1/1/1
f 10/10/10 8/8/8 1/1/1
f 9/9/9 11/11/11 1/1/1
f 12/12/12 10/10/10 1/1/1
f 11/11/11 13/13/13 1/1/1
f 14/14/14 12/12/12 1/1/1
f 13/13/13 15/15/15 1/1/1
f 16/16/16 14/14/14 1/1/1
f 15/15/15 17/17/17 1/1/1
f 17/17/17 16/16/16 1/1/1
f 20/20/20 19/19/19 18/18/18
f 19/19/19 20/20/20 21/21/21
f 19/19/19 22/22/22 18/18/18
f 23/23/23 19/19/19 21/21/21
f 24/24/24 23/23/23 21/21/21
f 25/25/25 24/24/24 21/21/21
f 22/22/22 26/26/26 18/18/18
f 26/26/26 27/27/27 18/18/18
f 27/27/27 26/26/26 28/28/28
f 26/26/26 29/29/29 28/28/28
f 28/28/28 29/29/29 30/30/30
f 29/29/29 31/31/31 30/30/30
f 30/30/30 31/31/31 32/32/32
f 31/31/31 33/33/33 32/32/32
f 32/32/32 33/33/33 34/34/34
f 33/33/33 35/35/35 34/34/34
f 34/34/34 35/35/35 36/36/36
f 35/35/35 37/37/37 36/36/36
f 36/36/36 37/37/37 38/38/38
f 37/37/37 39/39/39 38/38/38
f 38/38/38 39/39/39 40/40/40
f 39/39/39 41/41/41 40/40/40
f 40/40/40 41/41/41 42/42/42
f 41/41/41 43/43/43 42/42/42
f 42/42/42 43/43/43 44/44/44
f 43/43/43 45/45/45 44/44/44
f 44/44/44 45/45/45 46/46/46
f 45/45/45 47/47/47 46/46/46
f 47/47/47 48/48/48 46/46/46
f 48/48/48 49/49/49 46/46/46
f 49/49/49 48/48/48 25/25/25
f 48/48/48 24/24/24 25/25/25
f 52/52/52 51/51/51 50/50/50
f 53/53/53 52/52/52 50/50/50
f 51/51/51 52/52/52 54/54/54
f 52/52/52 53/53/53 55/55/55
f 52/52/52 56/56/56 54/54/54
f 57/57/57 52/52/52 55/55/55
f 56/56/56 52/52/52 58/58/58
f 52/52/52 57/57/57 59/59/59
f 52/52/52 60/60/60 58/58/58
f 61/61/61 52/52/52 59/59/59
f 60/60/60 52/52/52 62/62/62
f 52/52/52 61/61/61 63/63/63
f 52/52/52 64/64/64 62/62/62
f 65/65/65 52/52/52 63/63/63
f 64/64/64 52/52/52 66/66/66
f 52/52/52 65/65/65 66/66/66
f 69/69/69 68/68/68 67/67/67
f 70/70/70 69/69/69 67/67/67
f 69/69/69 71/71/71 68/68/68
f 70/70/70 67/67/67 72/72/72
f 71/71/71 73/73/73 68/68/68
f 74/74/74 70/70/70 72/72/72
f 71/71/71 75/75/75 73/73/73
f 74/74/74 72/72/72 76/76/76
f 75/75/75 77/77/77 73/73/73
f 78/78/78 74/74/74 76/76/76
f 75/75/75 79/79/79 77/77/77
f 78/78/78 76/76/76 80/80/80
f 79/79/79 81/81/81 77/77/77
f 82/82/82 78/78/78 80/80/80
f 79/79/79 83/83/83 81/81/81
f 82/82/82 80/80/80 84/84/84
f 83/83/83 85/85/85 81/81/81
f 86/86/86 82/82/82 84/84/84
f 83/83/83 87/87/87 85/85/85
f 86/86/86 84/84/84 88/88/88
f 87/87/87 89/89/89 85/85/85
f 90/90/90 86/86/86 88/88/88
f 87/87/87 91/91/91 89/89/89
f 90/90/90 88/88/88 92/92/92
f 91/91/91 93/93/93 89/89/89
f 94/94/94 90/90/90 92/92/92
f 91/91/91 95/95/95 93/93/93
f 94/94/94 92/92/92 96/96/96
f 95/95/95 97/97/97 93/93/93
f 98/98/98 94/94/94 96/96/96
f 98/98/98 96/96/96 97/97/97
f 95/95/95 98/98/98 97/97/97
f 101/101/101 100/100/100 99/99/99
f 102/102/102 101/101/101 99/99/99
f 101/101/101 103/103/103 100/100/100
f 102/102/102 99/99/99 104/104/104
f 103/103/103 105/105/105 100/100/100
f 106/106/106 102/102/102 104/104/104
f 103/103/103 107/107/107 105/105/105
f 106/106/106 104/104/104 108/108/108
f 107/107/107 109/109/109 105/105/105
f 110/110/110 106/106/106 108/108/108
f 107/107/107 111/111/111 109/109/109
f 110/110/110 108/108/108 112/112/112
f 111/111/111 113/113/113 109/109/109
f 114/114/114 110/110/110 112/112/112
f 111/111/111 115/115/115 113/113/113
f 114/114/114 112/112/112 116/116/116
f 115/115/115 117/117/117 113/113/113
f 118/118/118 114/114/114 116/116/116
f 115/115/115 119/119/119 117/117/117
f 118/118/118 116/116/116 120/120/120
f 119/119/119 121/121/121 117/117/117
f 122/122/122 118/118/118 120/120/120
f 119/119/119 123/123/123 121/121/121
f 122/122/122 120/120/120 124/124/124
f 123/123/123 125/125/125 121/121/121
f 126/126/126 122/122/122 124/124/124
f 123/123/123 127/127/127 125/125/125
f 126/126/126 124/124/124 128/128/128
f 127/127/127 129/129/129 125/125/125
f 130/130/130 126/126/126 128/128/128
f 130/130/130 128/128/128 129/129/129
f 127/127/127 130/130/130 129/129/129
f 133/133/133 132/132/132 131/131/131
f 134/134/134 133/133/133 131/131/131
f 135/135/135 131/131/131 132/132/132
f 136/136/136 133/133/133 134/134/134
f 137/137/137 135/135/135 132/132/132
f 138/138/138 136/136/136 134/134/134
f 139/139/139 135/135/135 137/137/137
f 140/140/140 136/136/136 138/138/138
f 141/141/141 139/139/139 137/137/137
f 142/142/142 140/140/140 138/138/138
f 143/143/143 139/139/139 141/141/141
f 144/144/144 140/140/140 142/142/142
f 145/145/145 143/143/143 141/141/141
f 146/146/146 144/144/144 142/142/142
f 147/147/147 143/143/143 145/145/145
f 144/144/144 146/146/146 148/148/148
f 149/149/149 147/147/147 145/145/145
f 146/146/146 150/150/150 148/148/148
f 151/151/151 147/147/147 149/149/149
f 148/148/148 150/150/150 152/152/152
f 153/153/153 151/151/151 149/149/149
f 150/150/150 154/154/154 152/152/152
f 155/155/155 151/151/151 153/153/153
f 156/156/156 152/152/152 154/154/154
f 157/157/157 155/155/155 153/153/153
f 158/158/158 156/156/156 154/154/154
f 155/155/155 157/157/157 159/159/159
f 160/160/160 156/156/156 158/158/158
f 157/157/157 161/161/161 159/159/159
f 162/162/162 160/160/160 158/158/158
f 159/159/159 161/161/161 162/162/162
f 161/161/161 160/160/160 162/162/162
f 165/165/165 164/164/164 163/163/163
f 166/166/166 165/165/165 163/163/163
f 165/165/165 167/167/167 164/164/164
f 166/166/166 163/163/163 168/168/168
f 167/167/167 169/169/169 164/164/164
f 170/170/170 166/166/166 168/168/168
f 167/167/167 171/171/171 169/169/169
f 170/170/170 168/168/168 172/172/172
f 171/171/171 173/173/173 169/169/169
f 174/174/174 170/170/170 172/172/172
f 171/171/171 175/175/175 173/173/173
f 174/174/174 172/172/172 176/176/176
f 175/175/175 177/177/177 173/173/173
f 178/178/178 174/174/174 176/176/176
f 175/175/175 179/179/179 177/177/177
f 178/178/178 176/176/176 180/180/180
f 179/179/179 181/181/181 177/177/177
f 182/182/182 178/178/178 180/180/180
f 179/179/179 183/183/183 181/181/181
f 182/182/182 180/180/180 184/184/184
f 183/183/183 185/185/185 181/181/181
f 186/186/186 182/182/182 184/184/184
f 183/183/183 187/187/187 185/185/185
f 186/186/186 184/184/184 188/188/188
f 187/187/187 189/189/189 185/185/185
f 190/190/190 186/186/186 188/188/188
f 187/187/187 191/191/191 189/189/189
f 190/190/190 188/188/188 192/192/192
f 191/191/191 193/193/193 189/189/189
f 194/194/194 190/190/190 192/192/192
f 194/194/194 192/192/192 193/193/193
f 191/191/191 194/194/194 193/193/193
