g stickman_Worker4_Hat
v 0.5280067 3.1152253 -0.37167394
v 0.5280067 3.0812402 -0.24252951
v 0.7183248 3.2035875 -0.20854414
v 0.7183248 3.2375727 -0.33768857
v 0.17455876 3.006472 -0.39886224
v 0.17455876 2.972487 -0.2697178
v 0.37847102 3.0132694 -0.25612366
v 0.37847102 3.0472546 -0.3852681
v 1.0309901 3.8425121 -0.18135583
v 1.0309901 3.808527 -0.04541433
v 1.0785697 4.094004 0.022556424
v 1.0785697 4.1279893 -0.106588006
v 0.7183248 3.2375727 -0.33768857
v 0.7183248 3.2035875 -0.20854414
v 0.90184575 3.4074993 -0.16096461
v 0.90184575 3.441485 -0.29010904
v 0.37847102 3.0472546 -0.3852681
v 0.37847102 3.0132694 -0.25612366
v 0.5280067 3.0812402 -0.24252951
v 0.5280067 3.1152253 -0.37167394
v 0.90184575 3.441485 -0.29010904
v 0.90184575 3.4074993 -0.16096461
v 1.0309901 3.808527 -0.04541433
v 1.0309901 3.8425121 -0.18135583
v 0.17455876 3.006472 -0.39886224
v -0.0021651983 2.972487 -0.2697178
v 0.17455876 2.972487 -0.2697178
v -0.0021651983 3.006472 -0.39886224
v -0.17209196 3.006472 -0.39886224
v -0.17209196 2.972487 -0.2697178
v 1.024193 4.100801 0.022556424
v 1.0785697 4.094004 0.022556424
v 1.0309901 3.808527 -0.04541433
v 0.98341066 3.8221211 -0.04541433
v 0.90184575 3.4074993 -0.16096461
v 0.8610633 3.4346876 -0.15416753
v 0.7183248 3.2035875 -0.20854414
v 0.6843394 3.2375727 -0.20174706
v 0.5280067 3.0812402 -0.24252951
v 0.5008184 3.1220226 -0.22893536
v 0.37847102 3.0132694 -0.25612366
v 0.36487687 3.0608487 -0.24252951
v 0.17455876 2.972487 -0.2697178
v 0.16776168 3.0200663 -0.25612366
v -0.0021651983 2.972487 -0.2697178
v -0.0021651983 3.0200663 -0.25612366
v -0.16529489 3.0200663 -0.25612366
v -0.17209196 2.972487 -0.2697178
v -0.36241007 3.0608487 -0.24252951
v -0.37600422 3.0132694 -0.25612366
v -0.50514865 3.1220226 -0.22893536
v -0.5255399 3.0812402 -0.24252951
v -0.6818726 3.2375727 -0.20174706
v -0.715858 3.2035875 -0.20854414
v -0.85859656 3.4346876 -0.15416753
v -0.9061761 3.4074993 -0.16096461
v -0.987741 3.8221211 -0.04541433
v -1.0353205 3.808527 -0.04541433
v -1.0285234 4.100801 0.022556424
v -1.076103 4.094004 0.022556424
v 0.98341066 3.8561063 -0.17455876
v 1.0785697 4.1279893 -0.106588006
v 1.024193 4.1347866 -0.106588006
v 1.0309901 3.8425121 -0.18135583
v 0.8610633 3.4686732 -0.28331196
v 0.90184575 3.441485 -0.29010904
v 0.6843394 3.2715578 -0.3308915
v 0.7183248 3.2375727 -0.33768857
v 0.5008184 3.162805 -0.3580798
v 0.5280067 3.1152253 -0.37167394
v 0.36487687 3.0948343 -0.37167394
v 0.37847102 3.0472546 -0.3852681
v 0.16776168 3.0540519 -0.3852681
v 0.17455876 3.006472 -0.39886224
v -0.0021651983 3.0540519 -0.3852681
v -0.0021651983 3.006472 -0.39886224
v -0.17209196 3.006472 -0.39886224
v -0.16529489 3.0540519 -0.3852681
v -0.37600422 3.0472546 -0.3852681
v -0.36241007 3.0948343 -0.37167394
v -0.5255399 3.1152253 -0.37167394
v -0.50514865 3.162805 -0.3580798
v -0.715858 3.2375727 -0.33768857
v -0.6818726 3.2715578 -0.3308915
v -0.9061761 3.441485 -0.29010904
v -0.85859656 3.4686732 -0.28331196
v -1.0353205 3.8425121 -0.18135583
v -0.987741 3.8561063 -0.17455876
v -1.076103 4.1279893 -0.106588006
v -1.0285234 4.1347866 -0.106588006
v -0.5255399 3.1152253 -0.37167394
v -0.715858 3.2375727 -0.33768857
v -0.715858 3.2035875 -0.20854414
v -0.5255399 3.0812402 -0.24252951
v -0.17209196 3.006472 -0.39886224
v -0.37600422 3.0472546 -0.3852681
v -0.37600422 3.0132694 -0.25612366
v -0.17209196 2.972487 -0.2697178
v -1.0353205 3.8425121 -0.18135583
v -1.076103 4.1279893 -0.106588006
v -1.076103 4.094004 0.022556424
v -1.0353205 3.808527 -0.04541433
v -0.715858 3.2375727 -0.33768857
v -0.9061761 3.441485 -0.29010904
v -0.9061761 3.4074993 -0.16096461
v -0.715858 3.2035875 -0.20854414
v -0.37600422 3.0472546 -0.3852681
v -0.5255399 3.1152253 -0.37167394
v -0.5255399 3.0812402 -0.24252951
v -0.37600422 3.0132694 -0.25612366
v -0.9061761 3.441485 -0.29010904
v -1.0353205 3.8425121 -0.18135583
v -1.0353205 3.808527 -0.04541433
v -0.9061761 3.4074993 -0.16096461
v -1.0693059 4.182366 -0.052211404
v -1.4295509 4.24354 -1.0649755
v -0.88578486 4.277525 -0.58918035
v -0.4643662 4.338699 -0.96301943
v -0.627496 4.3251047 -1.6427269
v 0.079399705 4.35909 -1.0989609
v 0.36487687 4.3251047 -1.6971035
v 0.6027745 4.352293 -0.9698165
v 0.04541433 4.209554 -0.004631877
v -1.7897959 4.100801 -0.14737046
v 1.2281053 4.2367425 -1.2145112
v 0.9698165 4.291119 -0.56199205
v -1.5926807 3.9376712 0.81101704
v -0.97414684 4.1075983 0.44397497
v -0.6206989 4.0260334 0.91297317
v 1.6903064 4.087207 -0.35128272
v 1.0513813 4.161975 0.12451255
v -0.899379 3.8153238 1.5111158
v -0.0837301 3.998845 1.1168854
v 1.6087415 3.9308743 0.6206989
v 0.9086428 4.094004 0.6003077
v 0.079399705 3.7609472 1.7762017
v 0.5008184 4.0260334 1.0081322
v 1.0038018 3.808527 1.3955655
v -0.97414684 4.1075983 0.44397497
v -1.0693059 4.182366 -0.052211404
v -1.0013351 4.549408 0.0293535
v -0.88578486 4.277525 -0.58918035
v -0.8789878 4.4746404 0.48475742
v -0.8178141 4.63777 -0.48042715
v -0.5731194 4.420264 0.9061761
v -0.43038082 4.692147 -0.7998896
v -0.6206989 4.0260334 0.91297317
v -0.4643662 4.338699 -0.96301943
v -0.07693303 4.386278 1.0964942
v -0.0837301 3.998845 1.1168854
v 0.45323884 4.4066696 0.99453807
v 0.5008184 4.0260334 1.0081322
v 0.84746915 4.4746404 0.6342931
v 0.9086428 4.094004 0.6003077
v 0.98341066 4.535814 0.18568611
v 1.0513813 4.161975 0.12451255
v 0.90184575 4.63777 -0.37847102
v 0.9698165 4.291119 -0.56199205
v 0.5687891 4.6989436 -0.7727014
v 0.6027745 4.352293 -0.9698165
v 0.079399705 4.705741 -0.9358311
v 0.079399705 4.35909 -1.0989609
v 0.5687891 4.6989436 -0.7727014
v 0.065805554 4.9436383 -0.69793355
v 0.079399705 4.705741 -0.9358311
v -0.43038082 4.692147 -0.7998896
v -0.355613 4.9232473 -0.5823833
v -0.8178141 4.63777 -0.48042715
v -0.67507553 4.882465 -0.3308915
v -1.0013351 4.549408 0.0293535
v 0.466833 4.9232473 -0.5416008
v 0.04541433 5.256304 -0.39206517
v -0.2740481 5.249507 -0.28331196
v -0.8246112 4.814494 0.09052718
v 0.738716 4.8756676 -0.21534121
v 0.90184575 4.63777 -0.37847102
v 0.98341066 4.535814 0.18568611
v -0.72265506 4.75332 0.44397497
v -0.8789878 4.4746404 0.48475742
v 0.34448564 5.2291155 -0.23573244
v 0.8134838 4.8009 0.22646856
v 0.84746915 4.4746404 0.6342931
v 0.6639482 4.998015 0.25365686
v 0.67074525 4.739726 0.58671355
v 0.45323884 4.4066696 0.99453807
v 0.2697178 5.07958 0.67507553
v 0.37847102 4.6989436 0.8721907
v -0.04294765 5.0455947 0.69546676
v -0.07693303 4.692147 0.9265673
v -0.07693303 4.386278 1.0964942
v -0.5731194 4.420264 0.9061761
v -0.47116327 4.705741 0.7974229
v -0.355613 5.0999713 0.627496
v -0.6614814 5.0184064 0.15170074
vt 0.52932477 0.031775713
vt 0.52932477 0.031775713
vt 0.52932477 0.031775713
vt 0.52932477 0.031775713
vt 0.52932477 0.031775713
vt 0.52932477 0.031775713
vt 0.52932477 0.031775713
vt 0.52932477 0.031775713
vt 0.52932477 0.031775713
vt 0.52932477 0.031775713
vt 0.52932477 0.031775713
vt 0.52932477 0.031775713
vt 0.52932477 0.031775713
vt 0.52932477 0.031775713
vt 0.52932477 0.031775713
vt 0.52932477 0.031775713
vt 0.52932477 0.031775713
vt 0.52932477 0.031775713
vt 0.52932477 0.031775713
vt 0.52932477 0.031775713
vt 0.52932477 0.031775713
vt 0.52932477 0.031775713
vt 0.52932477 0.031775713
vt 0.52932477 0.031775713
vt 0.52932477 0.031775713
vt 0.52932477 0.031775713
vt 0.52932477 0.031775713
vt 0.52932477 0.031775713
vt 0.52932477 0.031775713
vt 0.52932477 0.031775713
vt 0.52932477 0.031775713
vt 0.52932477 0.031775713
vt 0.52932477 0.031775713
vt 0.52932477 0.031775713
vt 0.52932477 0.031775713
vt 0.52932477 0.031775713
vt 0.52932477 0.031775713
vt 0.52932477 0.031775713
vt 0.52932477 0.031775713
vt 0.52932477 0.031775713
vt 0.52932477 0.031775713
vt 0.52932477 0.031775713
vt 0.52932477 0.031775713
vt 0.52932477 0.031775713
vt 0.52932477 0.031775713
vt 0.52932477 0.031775713
vt 0.52932477 0.031775713
vt 0.52932477 0.031775713
vt 0.52932477 0.031775713
vt 0.52932477 0.031775713
vt 0.52932477 0.031775713
vt 0.52932477 0.031775713
vt 0.52932477 0.031775713
vt 0.52932477 0.031775713
vt 0.52932477 0.031775713
vt 0.52932477 0.031775713
vt 0.52932477 0.031775713
vt 0.52932477 0.031775713
vt 0.52932477 0.031775713
vt 0.52932477 0.031775713
vt 0.52932477 0.031775713
vt 0.52932477 0.031775713
vt 0.52932477 0.031775713
vt 0.52932477 0.031775713
vt 0.52932477 0.031775713
vt 0.52932477 0.031775713
vt 0.52932477 0.031775713
vt 0.52932477 0.031775713
vt 0.52932477 0.031775713
vt 0.52932477 0.031775713
vt 0.52932477 0.031775713
vt 0.52932477 0.031775713
vt 0.52932477 0.031775713
vt 0.52932477 0.031775713
vt 0.52932477 0.031775713
vt 0.52932477 0.031775713
vt 0.52932477 0.031775713
vt 0.52932477 0.031775713
vt 0.52932477 0.031775713
vt 0.52932477 0.031775713
vt 0.52932477 0.031775713
vt 0.52932477 0.031775713
vt 0.52932477 0.031775713
vt 0.52932477 0.031775713
vt 0.52932477 0.031775713
vt 0.52932477 0.031775713
vt 0.52932477 0.031775713
vt 0.52932477 0.031775713
vt 0.52932477 0.031775713
vt 0.52932477 0.031775713
vt 0.52932477 0.031775713
vt 0.52932477 0.031775713
vt 0.52932477 0.031775713
vt 0.52932477 0.031775713
vt 0.52932477 0.031775713
vt 0.52932477 0.031775713
vt 0.52932477 0.031775713
vt 0.52932477 0.031775713
vt 0.52932477 0.031775713
vt 0.52932477 0.031775713
vt 0.52932477 0.031775713
vt 0.52932477 0.031775713
vt 0.52932477 0.031775713
vt 0.52932477 0.031775713
vt 0.52932477 0.031775713
vt 0.52932477 0.031775713
vt 0.52932477 0.031775713
vt 0.52932477 0.031775713
vt 0.52932477 0.031775713
vt 0.52932477 0.031775713
vt 0.52932477 0.031775713
vt 0.52932477 0.031775713
vt 0.52932477 0.031775713
vt 0.52932477 0.031775713
vt 0.21805023 0.6567757
vt 0.21805023 0.6567757
vt 0.21805023 0.6567757
vt 0.21805023 0.6567757
vt 0.21805023 0.6567757
vt 0.21805023 0.6567757
vt 0.21805023 0.6567757
vt 0.21805023 0.6567757
vt 0.21805023 0.6567757
vt 0.21805023 0.6567757
vt 0.21805023 0.6567757
vt 0.21805023 0.6567757
vt 0.21805023 0.6567757
vt 0.21805023 0.6567757
vt 0.21805023 0.6567757
vt 0.21805023 0.6567757
vt 0.21805023 0.6567757
vt 0.21805023 0.6567757
vt 0.21805023 0.6567757
vt 0.21805023 0.6567757
vt 0.21805023 0.6567757
vt 0.21805023 0.6567757
vt 0.21805023 0.6567757
vt 0.21805023 0.6567757
vt 0.21805023 0.4705012
vt 0.21805023 0.4705012
vt 0.21805023 0.4705012
vt 0.21805023 0.4705012
vt 0.21805023 0.4705012
vt 0.21805023 0.4705012
vt 0.21805023 0.4705012
vt 0.21805023 0.4705012
vt 0.21805023 0.4705012
vt 0.21805023 0.4705012
vt 0.21805023 0.4705012
vt 0.21805023 0.4705012
vt 0.21805023 0.4705012
vt 0.21805023 0.4705012
vt 0.21805023 0.4705012
vt 0.21805023 0.4705012
vt 0.21805023 0.4705012
vt 0.21805023 0.4705012
vt 0.21805023 0.4705012
vt 0.21805023 0.4705012
vt 0.21805023 0.4705012
vt 0.21805023 0.4705012
vt 0.21805023 0.4705012
vt 0.21805023 0.4705012
vt 0.52932477 0.031775713
vt 0.52932477 0.031775713
vt 0.52932477 0.031775713
vt 0.52932477 0.031775713
vt 0.52932477 0.031775713
vt 0.52932477 0.031775713
vt 0.52932477 0.031775713
vt 0.52932477 0.031775713
vt 0.52932477 0.031775713
vt 0.52932477 0.031775713
vt 0.52932477 0.031775713
vt 0.52932477 0.031775713
vt 0.52932477 0.031775713
vt 0.52932477 0.031775713
vt 0.52932477 0.031775713
vt 0.52932477 0.031775713
vt 0.52932477 0.031775713
vt 0.52932477 0.031775713
vt 0.52932477 0.031775713
vt 0.52932477 0.031775713
vt 0.52932477 0.031775713
vt 0.52932477 0.031775713
vt 0.52932477 0.031775713
vt 0.52932477 0.031775713
vt 0.52932477 0.031775713
vt 0.52932477 0.031775713
vt 0.52932477 0.031775713
vt 0.52932477 0.031775713
vt 0.52932477 0.031775713
vt 0.52932477 0.031775713
vt 0.52932477 0.031775713
vt 0.52932477 0.031775713
vn 0.5491438 -0.80071986 -0.23935084
vn 0.5491438 -0.80071986 -0.23935084
vn 0.5491438 -0.80071986 -0.23935084
vn 0.5491438 -0.80071986 -0.23935084
vn 0.23467368 -0.92650783 -0.29412845
vn 0.23467368 -0.92650783 -0.29412845
vn 0.23467368 -0.92650783 -0.29412845
vn 0.23467368 -0.92650783 -0.29412845
vn 0.9894019 -0.1403327 -0.03729188
vn 0.9894019 -0.1403327 -0.03729188
vn 0.9894019 -0.1403327 -0.03729188
vn 0.9894019 -0.1403327 -0.03729188
vn 0.7378258 -0.64348483 -0.2038145
vn 0.7378258 -0.64348483 -0.2038145
vn 0.7378258 -0.64348483 -0.2038145
vn 0.7378258 -0.64348483 -0.2038145
vn 0.42335576 -0.86361384 -0.2737536
vn 0.42335576 -0.86361384 -0.2737536
vn 0.42335576 -0.86361384 -0.2737536
vn 0.42335576 -0.86361384 -0.2737536
vn 0.9549874 -0.29664594 -0
vn 0.9549874 -0.29664594 -0
vn 0.9549874 -0.29664594 -0
vn 0.9549874 -0.29664594 -0
vn 0.014544666 -0.9579549 -0.28654996
vn 0.014544666 -0.9579549 -0.28654996
vn 0.014544666 -0.9579549 -0.28654996
vn 0.014544666 -0.9579549 -0.28654996
vn -0.016902387 -0.9579549 -0.28642055
vn -0.016902387 -0.9579549 -0.28642055
vn 0.014544666 -0.23467368 0.97196543
vn 0.014544666 -0.23467368 0.97196543
vn -0.016902387 -0.26612073 0.9637915
vn -0.016902387 -0.26612073 0.9637915
vn 0.014544666 -0.23467368 0.97196543
vn 0.014544666 -0.23467368 0.97196543
vn 0.014544666 -0.23467368 0.97196543
vn 0.014544666 -0.23467368 0.97196543
vn 0.014544666 -0.23467368 0.97196543
vn 0.014544666 -0.23467368 0.97196543
vn 0.014544666 -0.23467368 0.97196543
vn 0.014544666 -0.23467368 0.97196543
vn 0.014544666 -0.23467368 0.97196543
vn 0.014544666 -0.23467368 0.97196543
vn 0.014544666 -0.23467368 0.97196543
vn 0.014544666 -0.23467368 0.97196543
vn 0.014544666 -0.23467368 0.97196543
vn 0.014544666 -0.23467368 0.97196543
vn 0.014544666 -0.23467368 0.97196543
vn 0.014544666 -0.23467368 0.97196543
vn 0.014544666 -0.23467368 0.97196543
vn 0.014544666 -0.23467368 0.97196543
vn 0.014544666 -0.23467368 0.97196543
vn 0.014544666 -0.23467368 0.97196543
vn 0.014544666 -0.23467368 0.97196543
vn 0.014544666 -0.23467368 0.97196543
vn 0.014544666 -0.26612073 0.96382993
vn 0.014544666 -0.26612073 0.96382993
vn 0.014544666 -0.23467368 0.97196543
vn 0.014544666 -0.23467368 0.97196543
vn 0.014544666 0.26847845 -0.9631759
vn 0.014544666 0.2370314 -0.9713931
vn 0.014544666 0.2370314 -0.9713931
vn 0.014544666 0.26847845 -0.9631759
vn 0.014544666 0.2370314 -0.9713931
vn 0.014544666 0.2370314 -0.9713931
vn 0.014544666 0.2370314 -0.9713931
vn 0.014544666 0.2370314 -0.9713931
vn 0.014544666 0.2370314 -0.9713931
vn 0.014544666 0.2370314 -0.9713931
vn 0.014544666 0.2370314 -0.9713931
vn 0.014544666 0.2370314 -0.9713931
vn 0.014544666 0.2370314 -0.9713931
vn 0.014544666 0.2370314 -0.9713931
vn 0.014544666 0.2370314 -0.9713931
vn 0.014544666 0.2370314 -0.9713931
vn 0.014544666 0.2370314 -0.9713931
vn 0.014544666 0.2370314 -0.9713931
vn 0.014544666 0.2370314 -0.9713931
vn 0.014544666 0.2370314 -0.9713931
vn 0.014544666 0.2370314 -0.9713931
vn 0.014544666 0.2370314 -0.9713931
vn 0.014544666 0.2370314 -0.9713931
vn 0.014544666 0.2370314 -0.9713931
vn 0.014544666 0.2370314 -0.9713931
vn 0.014544666 0.2370314 -0.9713931
vn -0.016902387 0.26847845 -0.9631374
vn -0.016902387 0.26847845 -0.9631374
vn 0.014544666 0.2370314 -0.9713931
vn 0.014544666 0.2370314 -0.9713931
vn -0.55150145 -0.80071986 -0.23386723
vn -0.55150145 -0.80071986 -0.23386723
vn -0.55150145 -0.80071986 -0.23386723
vn -0.55150145 -0.80071986 -0.23386723
vn -0.2370314 -0.92650783 -0.29223174
vn -0.2370314 -0.92650783 -0.29223174
vn -0.2370314 -0.92650783 -0.29223174
vn -0.2370314 -0.92650783 -0.29223174
vn -0.99013686 -0.14010309 -0
vn -0.99013686 -0.14010309 -0
vn -0.99013686 -0.14010309 -0
vn -0.99013686 -0.14010309 -0
vn -0.74018353 -0.64348483 -0.19507852
vn -0.74018353 -0.64348483 -0.19507852
vn -0.74018353 -0.64348483 -0.19507852
vn -0.74018353 -0.64348483 -0.19507852
vn -0.42571348 -0.86361384 -0.2700725
vn -0.42571348 -0.86361384 -0.2700725
vn -0.42571348 -0.86361384 -0.2700725
vn -0.42571348 -0.86361384 -0.2700725
vn -0.9551936 -0.29598153 -0
vn -0.9551936 -0.29598153 -0
vn -0.9551936 -0.29598153 -0
vn -0.9551936 -0.29598153 -0
vn -0.61439556 0.7716306 0.16463389
vn -0.8345246 -0.014544666 -0.5507787
vn -0.5200545 0.8345246 -0.18196717
vn -0.26847845 0.8659716 -0.42191526
vn -0.39426643 0.04834932 -0.9177235
vn 0.014544666 0.8659716 -0.49988163
vn 0.1403327 0.016902387 -0.98996013
vn 0.32901472 0.8659716 -0.37661982
vn -0.016902387 -0.9894019 -0.14421605
vn -0.9917596 -0.07743865 -0.10205963
vn 0.67493176 -0.04599166 -0.7364454
vn 0.5805908 0.8030775 -0.13409255
vn -0.89741856 -0.17177969 0.40636393
vn -0.5829485 0.7087365 0.39732054
vn -0.3628195 0.67728955 0.64003193
vn 0.9894019 -0.108885646 -0.09606179
vn 0.67493176 0.7087365 0.20532821
vn -0.55150145 -0.23467368 0.8004839
vn -0.04834932 0.6458425 0.7619382
vn 0.92650783 -0.20322669 0.3166736
vn 0.5805908 0.67728955 0.45187742
vn 0.014544666 -0.26612073 0.96382993
vn 0.29756773 0.6458425 0.7030938
vn 0.5491438 -0.26612073 0.79222524
vn -0.5829485 0.7087365 0.39732054
vn -0.61439556 0.7716306 0.16463389
vn -0.92050976 0.39071968 -0
vn -0.5200545 0.8345246 -0.18196717
vn -0.8345246 0.2999254 0.4621834
vn -0.7716306 0.4571604 -0.44225627
vn -0.55150145 0.26847845 0.78978825
vn -0.42571348 0.55150145 -0.71736616
vn -0.3628195 0.67728955 0.64003193
vn -0.26847845 0.8659716 -0.42191526
vn -0.079796374 0.2370314 0.96821934
vn -0.04834932 0.6458425 0.7619382
vn 0.42335576 0.26847845 0.8652683
vn 0.29756773 0.6458425 0.7030938
vn 0.80071986 0.2999254 0.5185484
vn 0.5805908 0.67728955 0.45187742
vn 0.92650783 0.3628195 0.09972599
vn 0.67493176 0.7087365 0.20532821
vn 0.83216685 0.48860747 -0.26222333
vn 0.5805908 0.8030775 -0.13409255
vn 0.48624974 0.5829485 -0.65094715
vn 0.32901472 0.8659716 -0.37661982
vn 0.014544666 0.5829485 -0.8123789
vn 0.014544666 0.8659716 -0.49988163
vn 0.48624974 0.5829485 -0.65094715
vn 0.04599166 0.74018353 -0.67083013
vn 0.014544666 0.5829485 -0.8123789
vn -0.42571348 0.55150145 -0.71736616
vn -0.3628195 0.67728955 -0.64003193
vn -0.7716306 0.4571604 -0.44225627
vn -0.6458425 0.67728955 -0.35237244
vn -0.92050976 0.39071968 -0
vn 0.45480275 0.7087365 -0.5393024
vn 0.04599166 0.9288656 -0.3675506
vn -0.2999254 0.9288656 -0.21737868
vn -0.7942254 0.6076232 -0
vn 0.7378258 0.6458425 -0.19621557
vn 0.83216685 0.48860747 -0.26222333
vn 0.92650783 0.3628195 0.09972599
vn -0.74018353 0.48860747 0.46194273
vn -0.8345246 0.2999254 0.4621834
vn 0.3604617 0.9288656 -0.08529981
vn 0.7692728 0.61439556 0.17532094
vn 0.80071986 0.2999254 0.5185484
vn 0.64348483 0.74018353 0.19507845
vn 0.67493176 0.5200545 0.52346003
vn 0.42335576 0.26847845 0.8652683
vn 0.26612073 0.8030775 0.5331475
vn 0.3604617 0.48860747 0.7945629
vn -0.016902387 0.8030775 0.59563476
vn -0.079796374 0.48860747 0.86884713
vn -0.079796374 0.2370314 0.96821934
vn -0.55150145 0.26847845 0.78978825
vn -0.48860747 0.48860747 0.72285926
vn -0.33137244 0.8030775 0.4952361
vn -0.6458425 0.74018353 0.18712515
g stickman_Worker4_Hat_0
f 3/3/3 2/2/2 1/1/1
f 4/4/4 3/3/3 1/1/1
f 7/7/7 6/6/6 5/5/5
f 8/8/8 7/7/7 5/5/5
f 11/11/11 10/10/10 9/9/9
f 12/12/12 11/11/11 9/9/9
f 15/15/15 14/14/14 13/13/13
f 16/16/16 15/15/15 13/13/13
f 19/19/19 18/18/18 17/17/17
f 20/20/20 19/19/19 17/17/17
f 23/23/23 22/22/22 21/21/21
f 24/24/24 23/23/23 21/21/21
f 27/27/27 26/26/26 25/25/25
f 26/26/26 28/28/28 25/25/25
f 28/28/28 26/26/26 29/29/29
f 26/26/26 30/30/30 29/29/29
f 33/33/33 32/32/32 31/31/31
f 34/34/34 33/33/33 31/31/31
f 35/35/35 33/33/33 34/34/34
f 36/36/36 35/35/35 34/34/34
f 37/37/37 35/35/35 36/36/36
f 38/38/38 37/37/37 36/36/36
f 39/39/39 37/37/37 38/38/38
f 40/40/40 39/39/39 38/38/38
f 41/41/41 39/39/39 40/40/40
f 42/42/42 41/41/41 40/40/40
f 43/43/43 41/41/41 42/42/42
f 44/44/44 43/43/43 42/42/42
f 45/45/45 43/43/43 44/44/44
f 46/46/46 45/45/45 44/44/44
f 45/45/45 46/46/46 47/47/47
f 48/48/48 45/45/45 47/47/47
f 48/48/48 47/47/47 49/49/49
f 50/50/50 48/48/48 49/49/49
f 50/50/50 49/49/49 51/51/51
f 52/52/52 50/50/50 51/51/51
f 52/52/52 51/51/51 53/53/53
f 54/54/54 52/52/52 53/53/53
f 54/54/54 53/53/53 55/55/55
f 56/56/56 54/54/54 55/55/55
f 56/56/56 55/55/55 57/57/57
f 58/58/58 56/56/56 57/57/57
f 58/58/58 57/57/57 59/59/59
f 60/60/60 58/58/58 59/59/59
f 63/63/63 62/62/62 61/61/61
f 62/62/62 64/64/64 61/61/61
f 61/61/61 64/64/64 65/65/65
f 64/64/64 66/66/66 65/65/65
f 65/65/65 66/66/66 67/67/67
f 66/66/66 68/68/68 67/67/67
f 67/67/67 68/68/68 69/69/69
f 68/68/68 70/70/70 69/69/69
f 69/69/69 70/70/70 71/71/71
f 70/70/70 72/72/72 71/71/71
f 71/71/71 72/72/72 73/73/73
f 72/72/72 74/74/74 73/73/73
f 73/73/73 74/74/74 75/75/75
f 74/74/74 76/76/76 75/75/75
f 76/76/76 77/77/77 75/75/75
f 77/77/77 78/78/78 75/75/75
f 77/77/77 79/79/79 78/78/78
f 79/79/79 80/80/80 78/78/78
f 79/79/79 81/81/81 80/80/80
f 81/81/81 82/82/82 80/80/80
f 81/81/81 83/83/83 82/82/82
f 83/83/83 84/84/84 82/82/82
f 83/83/83 85/85/85 84/84/84
f 85/85/85 86/86/86 84/84/84
f 85/85/85 87/87/87 86/86/86
f 87/87/87 88/88/88 86/86/86
f 87/87/87 89/89/89 88/88/88
f 89/89/89 90/90/90 88/88/88
f 93/93/93 92/92/92 91/91/91
f 94/94/94 93/93/93 91/91/91
f 97/97/97 96/96/96 95/95/95
f 98/98/98 97/97/97 95/95/95
f 101/101/101 100/100/100 99/99/99
f 102/102/102 101/101/101 99/99/99
f 105/105/105 104/104/104 103/103/103
f 106/106/106 105/105/105 103/103/103
f 109/109/109 108/108/108 107/107/107
f 110/110/110 109/109/109 107/107/107
f 113/113/113 112/112/112 111/111/111
f 114/114/114 113/113/113 111/111/111
f 117/117/117 116/116/116 115/115/115
f 116/116/116 117/117/117 118/118/118
f 119/119/119 116/116/116 118/118/118
f 119/119/119 118/118/118 120/120/120
f 121/121/121 119/119/119 120/120/120
f 120/120/120 122/122/122 121/121/121
f 119/119/119 123/123/123 116/116/116
f 121/121/121 123/123/123 119/119/119
f 116/116/116 123/123/123 124/124/124
f 116/116/116 124/124/124 115/115/115
f 123/123/123 121/121/121 125/125/125
f 122/122/122 125/125/125 121/121/121
f 122/122/122 126/126/126 125/125/125
f 124/124/124 127/127/127 115/115/115
f 123/123/123 127/127/127 124/124/124
f 127/127/127 128/128/128 115/115/115
f 129/129/129 128/128/128 127/127/127
f 126/126/126 130/130/130 125/125/125
f 125/125/125 130/130/130 123/123/123
f 131/131/131 130/130/130 126/126/126
f 132/132/132 129/129/129 127/127/127
f 123/123/123 132/132/132 127/127/127
f 133/133/133 129/129/129 132/132/132
f 131/131/131 134/134/134 130/130/130
f 123/123/123 130/130/130 134/134/134
f 135/135/135 134/134/134 131/131/131
f 136/136/136 133/133/133 132/132/132
f 123/123/123 136/136/136 132/132/132
f 133/133/133 136/136/136 137/137/137
f 138/138/138 134/134/134 135/135/135
f 123/123/123 134/134/134 138/138/138
f 137/137/137 138/138/138 135/135/135
f 136/136/136 138/138/138 137/137/137
f 136/136/136 123/123/123 138/138/138
f 141/141/141 140/140/140 139/139/139
f 140/140/140 141/141/141 142/142/142
f 143/143/143 141/141/141 139/139/139
f 141/141/141 144/144/144 142/142/142
f 145/145/145 143/143/143 139/139/139
f 142/142/142 144/144/144 146/146/146
f 147/147/147 145/145/145 139/139/139
f 148/148/148 142/142/142 146/146/146
f 149/149/149 145/145/145 147/147/147
f 150/150/150 149/149/149 147/147/147
f 151/151/151 149/149/149 150/150/150
f 152/152/152 151/151/151 150/150/150
f 153/153/153 151/151/151 152/152/152
f 154/154/154 153/153/153 152/152/152
f 155/155/155 153/153/153 154/154/154
f 156/156/156 155/155/155 154/154/154
f 155/155/155 156/156/156 157/157/157
f 156/156/156 158/158/158 157/157/157
f 159/159/159 157/157/157 158/158/158
f 160/160/160 159/159/159 158/158/158
f 159/159/159 160/160/160 161/161/161
f 148/148/148 146/146/146 161/161/161
f 160/160/160 162/162/162 161/161/161
f 162/162/162 148/148/148 161/161/161
f 165/165/165 164/164/164 163/163/163
f 165/165/165 166/166/166 164/164/164
f 166/166/166 167/167/167 164/164/164
f 167/167/167 166/166/166 168/168/168
f 169/169/169 167/167/167 168/168/168
f 169/169/169 168/168/168 170/170/170
f 164/164/164 171/171/171 163/163/163
f 172/172/172 164/164/164 167/167/167
f 171/171/171 164/164/164 172/172/172
f 169/169/169 173/173/173 167/167/167
f 173/173/173 172/172/172 167/167/167
f 174/174/174 169/169/169 170/170/170
f 169/169/169 174/174/174 173/173/173
f 171/171/171 175/175/175 163/163/163
f 175/175/175 176/176/176 163/163/163
f 176/176/176 175/175/175 177/177/177
f 178/178/178 174/174/174 170/170/170
f 179/179/179 178/178/178 170/170/170
f 180/180/180 171/171/171 172/172/172
f 175/175/175 171/171/171 180/180/180
f 175/175/175 181/181/181 177/177/177
f 177/177/177 181/181/181 182/182/182
f 175/175/175 180/180/180 183/183/183
f 181/181/181 175/175/175 183/183/183
f 181/181/181 184/184/184 182/182/182
f 184/184/184 181/181/181 183/183/183
f 185/185/185 182/182/182 184/184/184
f 183/183/183 180/180/180 186/186/186
f 180/180/180 172/172/172 186/186/186
f 186/186/186 184/184/184 183/183/183
f 187/187/187 185/185/185 184/184/184
f 186/186/186 187/187/187 184/184/184
f 172/172/172 188/188/188 186/186/186
f 186/186/186 188/188/188 187/187/187
f 188/188/188 172/172/172 173/173/173
f 187/187/187 189/189/189 185/185/185
f 188/188/188 189/189/189 187/187/187
f 189/189/189 190/190/190 185/185/185
f 190/190/190 189/189/189 191/191/191
f 189/189/189 192/192/192 191/191/191
f 189/189/189 188/188/188 192/192/192
f 191/191/191 192/192/192 179/179/179
f 192/192/192 178/178/178 179/179/179
f 188/188/188 193/193/193 192/192/192
f 193/193/193 188/188/188 173/173/173
f 192/192/192 193/193/193 178/178/178
f 194/194/194 193/193/193 173/173/173
f 193/193/193 194/194/194 178/178/178
f 174/174/174 194/194/194 173/173/173
f 194/194/194 174/174/174 178/178/178
