g stickman_Worker2_Hat
v 0.8144315 4.644449 -0.44166076
v 0.877613 4.3980417 -0.5680237
v 1.0418849 4.3095875 -0.11943507
v 0.87129486 4.5117683 0.29756272
v 1.0418849 4.2716784 0.11433637
v 0.8270678 4.176906 0.6703336
v 0.75125 4.884539 -0.30897963
v 0.68175036 4.429632 0.7019243
v 0.46061516 4.1389976 0.89146876
v 0.37216103 4.3980417 0.87883234
v 0.38479733 4.9350843 -0.57434183
v 0.41638815 4.6886764 -0.7259774
v -0.0006097555 4.9414024 -0.65015966
v -0.0006097555 4.7013125 -0.8144315
v -0.41760755 4.6886764 -0.7259774
v -0.38601685 4.9350843 -0.57434183
v -0.81565094 4.644449 -0.44166076
v -0.75246954 4.884539 -0.30897963
v -0.86619616 4.5117683 0.29756272
v -1.0431044 4.3095875 -0.11943507
v -0.87883234 4.3980417 -0.5680237
v -1.0431044 4.2716784 0.11433637
v -0.82828736 4.176906 0.6703336
v -0.6829698 4.429632 0.7019243
v -0.46183467 4.1389976 0.89146876
v -0.37338054 4.3980417 0.87883234
v -0.37338054 4.3980417 0.87883234
v -0.0006097555 4.1137247 1.030468
v -0.0006097555 4.372769 0.9925592
v 0.37216103 4.3980417 0.87883234
v 0.46061516 4.1389976 0.89146876
v 0.41638815 4.6886764 -0.7259774
v 0.877613 4.3980417 -0.5680237
v 0.8144315 4.644449 -0.44166076
v 0.44797885 4.4422684 -0.88393116
v -0.0006097555 4.7013125 -0.8144315
v -0.0006097555 4.461223 -0.9787034
v -0.44919837 4.4422684 -0.88393116
v -0.41760755 4.6886764 -0.7259774
v -0.87883234 4.3980417 -0.5680237
v -0.81565094 4.644449 -0.44166076
v -0.0006097555 4.372769 0.9925592
v -0.0006097555 4.372769 0.9925592
v 0.37216103 4.3980417 0.87883234
v 0.37216103 4.3980417 0.87883234
v 0.46061516 4.1389976 0.89146876
v 0.877613 4.3980417 -0.5680237
v 0.8649767 4.176906 -1.0355667
v 1.0418849 4.3095875 -0.11943507
v 0.7133411 4.240088 -1.3072472
v 0.44797885 4.4422684 -0.88393116
v 0.32161593 4.2969513 -1.471519
v -0.0006097555 4.461223 -0.9787034
v -0.0006097555 4.33486 -1.5220642
v -0.32283533 4.2969513 -1.471519
v -0.44919837 4.4422684 -0.88393116
v -0.7145605 4.240088 -1.3072472
v -0.87883234 4.3980417 -0.5680237
v -0.86619616 4.176906 -1.0355667
v -1.0431044 4.3095875 -0.11943507
v -0.0006097555 4.372769 0.9925592
v -0.37338054 4.3980417 0.87883234
v -0.37338054 4.3980417 0.87883234
v -0.0006097555 4.372769 0.9925592
v -0.0006097555 4.3538146 -0.71965927
v -0.82828736 4.176906 0.6703336
v -0.46183467 4.1389976 0.89146876
v -0.0006097555 4.1137247 1.030468
v -1.0431044 4.2716784 0.11433637
v 0.46061516 4.1389976 0.89146876
v -1.0431044 4.3095875 -0.11943507
v 0.8270678 4.176906 0.6703336
v -0.86619616 4.176906 -1.0355667
v 1.0418849 4.2716784 0.11433637
v -0.7145605 4.240088 -1.3072472
v 1.0418849 4.3095875 -0.11943507
v -0.32283533 4.2969513 -1.471519
v 0.8649767 4.176906 -1.0355667
v -0.0006097555 4.33486 -1.5220642
v 0.7133411 4.240088 -1.3072472
v 0.32161593 4.2969513 -1.471519
vt 0.5322094 0.03394425
vt 0.5322094 0.03394425
vt 0.5322094 0.03394425
vt 0.5322094 0.03394425
vt 0.5322094 0.03394425
vt 0.5322094 0.03394425
vt 0.5322094 0.03394425
vt 0.5322094 0.03394425
vt 0.5322094 0.03394425
vt 0.5322094 0.03394425
vt 0.5322094 0.03394425
vt 0.5322094 0.03394425
vt 0.5322094 0.03394425
vt 0.5322094 0.03394425
vt 0.5322094 0.03394425
vt 0.5322094 0.03394425
vt 0.5322094 0.03394425
vt 0.5322094 0.03394425
vt 0.5322094 0.03394425
vt 0.5322094 0.03394425
vt 0.5322094 0.03394425
vt 0.5322094 0.03394425
vt 0.5322094 0.03394425
vt 0.5322094 0.03394425
vt 0.5322094 0.03394425
vt 0.5322094 0.03394425
vt 0.5322094 0.03394425
vt 0.5322094 0.03394425
vt 0.5322094 0.03394425
vt 0.5322094 0.03394425
vt 0.5322094 0.03394425
vt 0.21712996 0.46870503
vt 0.21712996 0.46870503
vt 0.21712996 0.46870503
vt 0.21712996 0.46870503
vt 0.21712996 0.46870503
vt 0.21712996 0.46870503
vt 0.21712996 0.46870503
vt 0.21712996 0.46870503
vt 0.21712996 0.46870503
vt 0.21712996 0.46870503
vt 0.5322094 0.03394425
vt 0.5322094 0.03394425
vt 0.5322094 0.03394425
vt 0.5322094 0.03394425
vt 0.5322094 0.03394425
vt 0.21712996 0.6567757
vt 0.21712996 0.6567757
vt 0.21712996 0.6567757
vt 0.21712996 0.6567757
vt 0.21712996 0.6567757
vt 0.21712996 0.6567757
vt 0.21712996 0.6567757
vt 0.21712996 0.6567757
vt 0.21712996 0.6567757
vt 0.21712996 0.6567757
vt 0.21712996 0.6567757
vt 0.21712996 0.6567757
vt 0.21712996 0.6567757
vt 0.21712996 0.6567757
vt 0.5322094 0.03394425
vt 0.5322094 0.03394425
vt 0.5322094 0.03394425
vt 0.5322094 0.03394425
vt 0.5322094 0.03394425
vt 0.5322094 0.03394425
vt 0.5322094 0.03394425
vt 0.5322094 0.03394425
vt 0.5322094 0.03394425
vt 0.5322094 0.03394425
vt 0.5322094 0.03394425
vt 0.5322094 0.03394425
vt 0.5322094 0.03394425
vt 0.5322094 0.03394425
vt 0.5322094 0.03394425
vt 0.5322094 0.03394425
vt 0.5322094 0.03394425
vt 0.5322094 0.03394425
vt 0.5322094 0.03394425
vt 0.5322094 0.03394425
vt 0.5322094 0.03394425
vn 0.7776799 0.49200165 -0.39134172
vn 0.74593794 0.5554857 -0.36744004
vn 0.84116405 0.5237436 -0.13466862
vn 0.8729061 0.42851758 0.23325446
vn 0.84116405 0.49200165 0.22444913
vn 0.71419585 0.30154943 0.6316583
vn 0.809422 0.42851758 -0.401508
vn 0.6507118 0.26980734 0.70977336
vn 0.4920016 0.20632327 0.84579265
vn 0.4920016 0.20632327 0.84579265
vn 0.36503345 0.5237436 -0.7697033
vn 0.36503345 0.5237436 -0.7697033
vn 0.015870988 0.5554857 -0.8313746
vn 0.015870988 0.5554857 -0.8313746
vn -0.3650335 0.5237436 -0.76970327
vn -0.3650335 0.5237436 -0.76970327
vn -0.77768004 0.49200165 -0.39134148
vn -0.809422 0.42851758 -0.401508
vn -0.8729061 0.42851758 0.23325446
vn -0.8411641 0.5237436 -0.13466817
vn -0.74593794 0.5554857 -0.36744004
vn -0.8411641 0.49200165 0.22444887
vn -0.71419597 0.30154943 0.6316582
vn -0.6507118 0.26980734 0.70977336
vn -0.39677548 0.17458129 0.9011607
vn -0.20632327 0.07935512 0.97526073
vn -0.17458129 0.07935512 0.9814398
vn 0.015870988 0.17458129 0.98451483
vn 0.015870988 0.17458129 0.98451483
vn 0.26980734 0.1428392 0.952261
vn 0.26980734 0.1428392 0.952261
vn 0.36503345 0.5237436 -0.7697033
vn 0.74593794 0.5554857 -0.36744004
vn 0.7776799 0.49200165 -0.39134172
vn 0.30154938 0.809422 -0.50388885
vn 0.015870988 0.5554857 -0.8313746
vn 0.015870988 0.8411641 -0.54054695
vn -0.30154943 0.809422 -0.5038888
vn -0.3650335 0.5237436 -0.76970327
vn -0.74593794 0.5554857 -0.36744004
vn -0.77768004 0.49200165 -0.39134148
vn 0.015870987 0.9998741 -0
vn 0.015870987 0.9998741 -0
vn 0.015870987 0.9998741 -0
vn 0.015870987 0.9998741 -0
vn 0.015870987 0.9998741 -0
vn 0.74593794 0.5554857 -0.36744004
vn 0.7776799 0.5554857 -0.294363
vn 0.84116405 0.5237436 -0.13466862
vn 0.36503345 0.8729061 -0.32370597
vn 0.30154938 0.809422 -0.50388885
vn 0.17458123 0.93639016 -0.30445835
vn 0.015870988 0.8411641 -0.54054695
vn 0.015870988 0.96813226 -0.24993609
vn -0.17458129 0.93639016 -0.30445835
vn -0.30154943 0.809422 -0.5038888
vn -0.3650335 0.8729061 -0.32370588
vn -0.74593794 0.5554857 -0.36744004
vn -0.77768004 0.5554857 -0.2943627
vn -0.8411641 0.5237436 -0.13466817
vn 0.015870987 -0.9998741 -0
vn 0.015870987 -0.9998741 -0
vn 0.015870987 -0.9998741 -0
vn 0.015870987 -0.9998741 -0
vn 0.015870987 -0.9998741 -0
vn -0.015871046 -0.9998741 -0
vn -0.015871046 -0.9998741 -0
vn 0.015870987 -0.9998741 -0
vn -0.047565117 -0.99886817 -0
vn 0.015870987 -0.9998741 -0
vn 0.015870987 -0.9998741 -0
vn 0.015870987 -0.9998741 -0
vn 0.17458123 -0.9681322 0.17955908
vn 0.047565117 -0.99886817 -0
vn 0.20632327 -0.9681322 -0.14195344
vn -0.015871046 -0.9998741 -0
vn 0.14142132 -0.9899495 -0
vn -0.17458129 -0.9681322 0.17955908
vn 0.015870987 -0.9998741 -0
vn -0.20632327 -0.9681322 -0.14195344
vn -0.14142138 -0.9899495 -0
g stickman_Worker2_Hat_0
f 3/3/3 2/2/2 1/1/1
f 4/4/4 3/3/3 1/1/1
f 3/3/3 4/4/4 5/5/5
f 5/5/5 4/4/4 6/6/6
f 4/4/4 1/1/1 7/7/7
f 4/4/4 8/8/8 6/6/6
f 6/6/6 8/8/8 9/9/9
f 8/8/8 10/10/10 9/9/9
f 7/7/7 1/1/1 11/11/11
f 1/1/1 12/12/12 11/11/11
f 11/11/11 12/12/12 13/13/13
f 12/12/12 14/14/14 13/13/13
f 14/14/14 15/15/15 13/13/13
f 15/15/15 16/16/16 13/13/13
f 15/15/15 17/17/17 16/16/16
f 17/17/17 18/18/18 16/16/16
f 17/17/17 19/19/19 18/18/18
f 20/20/20 19/19/19 17/17/17
f 21/21/21 20/20/20 17/17/17
f 19/19/19 20/20/20 22/22/22
f 19/19/19 22/22/22 23/23/23
f 24/24/24 19/19/19 23/23/23
f 24/24/24 23/23/23 25/25/25
f 26/26/26 24/24/24 25/25/25
f 25/25/25 27/27/27 26/26/26
f 27/27/27 25/25/25 28/28/28
f 29/29/29 27/27/27 28/28/28
f 30/30/30 29/29/29 28/28/28
f 31/31/31 30/30/30 28/28/28
f 34/34/34 33/33/33 32/32/32
f 33/33/33 35/35/35 32/32/32
f 32/32/32 35/35/35 36/36/36
f 35/35/35 37/37/37 36/36/36
f 37/37/37 38/38/38 36/36/36
f 38/38/38 39/39/39 36/36/36
f 38/38/38 40/40/40 39/39/39
f 40/40/40 41/41/41 39/39/39
f 44/44/44 43/43/43 42/42/42
f 45/45/45 44/44/44 42/42/42
f 45/45/45 46/46/46 44/44/44
f 49/49/49 48/48/48 47/47/47
f 48/48/48 50/50/50 47/47/47
f 47/47/47 50/50/50 51/51/51
f 50/50/50 52/52/52 51/51/51
f 51/51/51 52/52/52 53/53/53
f 52/52/52 54/54/54 53/53/53
f 54/54/54 55/55/55 53/53/53
f 55/55/55 56/56/56 53/53/53
f 55/55/55 57/57/57 56/56/56
f 57/57/57 58/58/58 56/56/56
f 57/57/57 59/59/59 58/58/58
f 59/59/59 60/60/60 58/58/58
f 63/63/63 62/62/62 61/61/61
f 64/64/64 63/63/63 61/61/61
f 67/67/67 66/66/66 65/65/65
f 68/68/68 67/67/67 65/65/65
f 66/66/66 69/69/69 65/65/65
f 70/70/70 68/68/68 65/65/65
f 69/69/69 71/71/71 65/65/65
f 72/72/72 70/70/70 65/65/65
f 71/71/71 73/73/73 65/65/65
f 74/74/74 72/72/72 65/65/65
f 73/73/73 75/75/75 65/65/65
f 76/76/76 74/74/74 65/65/65
f 75/75/75 77/77/77 65/65/65
f 78/78/78 76/76/76 65/65/65
f 77/77/77 79/79/79 65/65/65
f 80/80/80 78/78/78 65/65/65
f 79/79/79 81/81/81 65/65/65
f 81/81/81 80/80/80 65/65/65
