g stickman_Worker1_Hat
v 0.894988 4.902131 -0.3946613
v 0.87497497 4.4018044 -0.56810784
v 1.0417506 4.315081 -0.1211493
v 1.0350795 4.7687106 0.259099
v 1.0417506 4.275055 0.11233652
v 0.7815806 5.048894 -0.2879249
v 0.82827777 4.1749897 0.66603136
v 0.9083301 4.9154735 0.3324803
v 0.40800333 5.2690377 -0.034425974
v 0.80826473 4.6753163 0.7394128
v 0.46137154 4.1349635 0.89284635
v 0.40133226 5.15563 0.50592685
v 0.001070857 5.2957215 0.27244103
v 0.7282124 4.842092 0.6993866
v 0.42801642 4.808737 0.8795042
v 0.4480294 4.63529 0.9528854
v 0.001070857 5.142288 0.6393473
v 0.26124084 4.268384 0.96622753
v 0.001070857 4.1149507 1.0329378
v 0.001070857 4.248371 1.0462797
v 0.25456977 4.321752 0.9728985
v -0.259099 4.268384 0.96622753
v 0.001070857 4.301739 1.0529509
v -0.46590078 4.1349635 0.89284635
v 0.001070857 4.6019354 1.0863059
v -0.44588768 4.63529 0.9528854
v -0.259099 4.321752 0.9728985
v 0.001070857 4.782053 0.9929116
v -0.43254566 4.808737 0.8795042
v -0.806123 4.6753163 0.7394128
v -0.83280706 4.1749897 0.66603136
v -0.39919055 5.15563 0.50592685
v -0.4058615 5.2690377 -0.034425974
v -0.72607064 4.842092 0.6993866
v -0.90618825 4.9154735 0.3324803
v -0.77943873 5.048894 -0.2879249
v -1.0329378 4.7687106 0.259099
v -1.0462797 4.275055 0.11233652
v -0.89284635 4.902131 -0.3946613
v -1.0396087 4.315081 -0.1211493
v -0.8795042 4.4018044 -0.56810784
v 0.46137154 4.9621706 -0.7148704
v 0.87497497 4.4018044 -0.56810784
v 0.894988 4.902131 -0.3946613
v 0.4480294 4.4418306 -0.881646
v 0.001070857 4.9688416 -0.80159366
v 0.001070857 4.461844 -0.9817113
v -0.45255876 4.4418306 -0.881646
v -0.4592297 4.9621706 -0.7148704
v -0.8795042 4.4018044 -0.56810784
v -0.89284635 4.902131 -0.3946613
v 0.46137154 4.9621706 -0.7148704
v 0.894988 4.902131 -0.3946613
v 0.7815806 5.048894 -0.2879249
v 0.45470047 5.095591 -0.56810784
v 0.001070857 5.108933 -0.6815153
v 0.40800333 5.2690377 -0.034425974
v 0.001070857 4.9688416 -0.80159366
v -0.4592297 4.9621706 -0.7148704
v 0.001070857 5.3023925 -0.16784644
v 0.001070857 5.2957215 0.27244103
v -0.4058615 5.2690377 -0.034425974
v -0.4592297 5.095591 -0.56810784
v -0.77943873 5.048894 -0.2879249
v -0.89284635 4.902131 -0.3946613
v 0.87497497 4.4018044 -0.56810784
v 0.8683039 4.1749897 -1.0350795
v 1.0417506 4.315081 -0.1211493
v 0.7148704 4.2417 -1.3085915
v 0.4480294 4.4418306 -0.881646
v 0.32128 4.301739 -1.468696
v 0.001070857 4.461844 -0.9817113
v 0.001070857 4.3350945 -1.5220642
v -0.32580924 4.301739 -1.468696
v -0.45255876 4.4418306 -0.881646
v -0.7127285 4.2417 -1.3085915
v -0.8795042 4.4018044 -0.56810784
v -0.86616206 4.1749897 -1.0350795
v -1.0396087 4.315081 -0.1211493
v 0.001070857 4.3551073 -0.7215414
v -0.83280706 4.1749897 0.66603136
v -0.46590078 4.1349635 0.89284635
v 0.001070857 4.1149507 1.0329378
v -1.0462797 4.275055 0.11233652
v 0.46137154 4.1349635 0.89284635
v -1.0396087 4.315081 -0.1211493
v 0.82827777 4.1749897 0.66603136
v -0.86616206 4.1749897 -1.0350795
v 1.0417506 4.275055 0.11233652
v -0.7127285 4.2417 -1.3085915
v 1.0417506 4.315081 -0.1211493
v -0.32580924 4.301739 -1.468696
v 0.8683039 4.1749897 -1.0350795
v 0.001070857 4.3350945 -1.5220642
v 0.7148704 4.2417 -1.3085915
v 0.32128 4.301739 -1.468696
vt 0.5342267 0.034226693
vt 0.5342267 0.034226693
vt 0.5342267 0.034226693
vt 0.5342267 0.034226693
vt 0.5342267 0.034226693
vt 0.5342267 0.034226693
vt 0.5342267 0.034226693
vt 0.5342267 0.034226693
vt 0.5342267 0.034226693
vt 0.5342267 0.034226693
vt 0.5342267 0.034226693
vt 0.5342267 0.034226693
vt 0.5342267 0.034226693
vt 0.5342267 0.034226693
vt 0.5342267 0.034226693
vt 0.5342267 0.034226693
vt 0.5342267 0.034226693
vt 0.5342267 0.034226693
vt 0.5342267 0.034226693
vt 0.5342267 0.034226693
vt 0.5342267 0.034226693
vt 0.5342267 0.034226693
vt 0.5342267 0.034226693
vt 0.5342267 0.034226693
vt 0.5342267 0.034226693
vt 0.5342267 0.034226693
vt 0.5342267 0.034226693
vt 0.5342267 0.034226693
vt 0.5342267 0.034226693
vt 0.5342267 0.034226693
vt 0.5342267 0.034226693
vt 0.5342267 0.034226693
vt 0.5342267 0.034226693
vt 0.5342267 0.034226693
vt 0.5342267 0.034226693
vt 0.5342267 0.034226693
vt 0.5342267 0.034226693
vt 0.5342267 0.034226693
vt 0.5342267 0.034226693
vt 0.5342267 0.034226693
vt 0.5342267 0.034226693
vt 0.21805023 0.4705012
vt 0.21805023 0.4705012
vt 0.21805023 0.4705012
vt 0.21805023 0.4705012
vt 0.21805023 0.4705012
vt 0.21805023 0.4705012
vt 0.21805023 0.4705012
vt 0.21805023 0.4705012
vt 0.21805023 0.4705012
vt 0.21805023 0.4705012
vt 0.52932477 0.031775713
vt 0.52932477 0.031775713
vt 0.52932477 0.031775713
vt 0.52932477 0.031775713
vt 0.52932477 0.031775713
vt 0.52932477 0.031775713
vt 0.52932477 0.031775713
vt 0.52932477 0.031775713
vt 0.52932477 0.031775713
vt 0.52932477 0.031775713
vt 0.52932477 0.031775713
vt 0.52932477 0.031775713
vt 0.52932477 0.031775713
vt 0.52932477 0.031775713
vt 0.21805023 0.6567757
vt 0.21805023 0.6567757
vt 0.21805023 0.6567757
vt 0.21805023 0.6567757
vt 0.21805023 0.6567757
vt 0.21805023 0.6567757
vt 0.21805023 0.6567757
vt 0.21805023 0.6567757
vt 0.21805023 0.6567757
vt 0.21805023 0.6567757
vt 0.21805023 0.6567757
vt 0.21805023 0.6567757
vt 0.21805023 0.6567757
vt 0.21805023 0.6567757
vt 0.5342267 0.034226693
vt 0.5342267 0.034226693
vt 0.5342267 0.034226693
vt 0.5342267 0.034226693
vt 0.5342267 0.034226693
vt 0.5342267 0.034226693
vt 0.5342267 0.034226693
vt 0.5342267 0.034226693
vt 0.5342267 0.034226693
vt 0.5342267 0.034226693
vt 0.5342267 0.034226693
vt 0.5342267 0.034226693
vt 0.5342267 0.034226693
vt 0.5342267 0.034226693
vt 0.5342267 0.034226693
vt 0.5342267 0.034226693
vt 0.5342267 0.034226693
vn 0.7794822 0.44894028 -0.43687546
vn 0.8109802 0.19695616 -0.5509259
vn 0.9684703 0.10246217 -0.22708325
vn 0.93697226 0.29145014 0.19271696
vn 0.99972326 -0.023524182 -0
vn 0.59049416 0.7954184 -0.13647789
vn 0.7479842 -0.08652592 0.6580524
vn 0.68498814 0.6694263 0.28750598
vn 0.30666098 0.95181876 -0
vn 0.7164862 0.1654582 0.6776954
vn 0.40150607 -0.08652592 0.9117599
vn 0.30701202 0.8584144 0.41093588
vn -0.007968068 0.9844065 0.17572817
vn 0.5274981 0.57493234 0.62545866
vn 0.30701202 0.57493234 0.758417
vn 0.37000805 0.1654582 0.9141759
vn -0.007968068 0.82691646 0.5622684
vn 0.275514 -0.08652592 0.9573951
vn -0.007968068 -0.08652592 0.9962177
vn -0.007968068 -0.08652592 0.9962177
vn 0.275514 -0.11802393 0.9540243
vn -0.29145014 -0.08652592 0.95266473
vn -0.007968068 -0.11802393 0.99297875
vn -0.38594425 -0.08652592 0.91845536
vn -0.007968068 0.13396013 0.9909547
vn -0.38594425 0.1654582 0.90756303
vn -0.29145014 -0.11802393 0.94927716
vn -0.007968068 0.57493234 0.8181622
vn -0.29145014 0.57493234 0.76453227
vn -0.73242235 0.1654582 0.66044
vn -0.7639204 -0.08652592 0.6394833
vn -0.32294822 0.8584144 0.39853376
vn -0.29145014 0.9529084 -0.0838
vn -0.54343426 0.57493234 0.61166334
vn -0.6694263 0.6694263 0.32208204
vn -0.57493234 0.7954184 -0.19173512
vn -0.9529084 0.29145014 0.08379996
vn -0.9844065 -0.023529947 0.17432788
vn -0.7954184 0.44894028 -0.40713903
vn -0.9844065 0.10246217 -0.14298731
vn -0.7954184 0.19695616 -0.57316476
vn 0.37000805 0.5119363 -0.7752517
vn 0.8109802 0.19695616 -0.5509259
vn 0.7794822 0.44894028 -0.43687546
vn 0.40150607 0.29145014 -0.8682452
vn -0.007968068 0.5119363 -0.85898644
vn -0.007968068 0.32294822 -0.9463831
vn -0.38594425 0.29145014 -0.8752736
vn -0.38594425 0.5119363 -0.7674427
vn -0.7954184 0.19695616 -0.57316476
vn -0.7954184 0.44894028 -0.40713903
vn 0.37000805 0.5119363 -0.7752517
vn 0.7794822 0.44894028 -0.43687546
vn 0.59049416 0.7954184 -0.13647789
vn 0.30701202 0.82691646 -0.47111866
vn -0.007968068 0.82691646 -0.5622684
vn 0.30666098 0.95181876 -0
vn -0.007968068 0.5119363 -0.85898644
vn -0.38594425 0.5119363 -0.7674427
vn -0.007968068 0.9844065 -0.17572817
vn -0.007968068 0.9844065 0.17572817
vn -0.29145014 0.9529084 -0.0838
vn -0.32294822 0.82691646 -0.4603408
vn -0.57493234 0.7954184 -0.19173512
vn -0.7954184 0.44894028 -0.40713903
vn 0.7794822 0.57493234 -0.24871741
vn 0.7794822 0.54343426 -0.31158742
vn 0.87397623 0.44894028 -0.18605955
vn 0.37000805 0.8899125 -0.26673925
vn 0.21251798 0.9529084 -0.21633711
vn 0.14952195 0.9529084 -0.2638348
vn -0.007968068 0.9529084 -0.30315366
vn -0.007968068 0.9529084 -0.30315366
vn -0.1654582 0.9529084 -0.25414407
vn -0.22845423 0.9529084 -0.19943495
vn -0.38594425 0.8899125 -0.24311075
vn -0.7639204 0.57493234 -0.29305017
vn -0.7954184 0.54343426 -0.2683072
vn -0.8584144 0.44894028 -0.24814782
vn -0.007968068 -0.9999683 -0
vn -0.03943669 -0.999222 -0
vn -0.007968068 -0.9999683 -0
vn -0.007968068 -0.9999683 -0
vn -0.03943669 -0.999222 -0
vn 0.023524182 -0.99972326 -0
vn -0.007968068 -0.9999683 -0
vn 0.023524182 -0.99972326 -0
vn 0.18101996 -0.9684703 0.17116383
vn 0.054946516 -0.9984894 -0
vn 0.21251798 -0.9684703 -0.13000551
vn -0.007968068 -0.9999683 -0
vn 0.14788263 -0.9890049 -0
vn -0.19695616 -0.9684703 0.15255684
vn -0.007968068 -0.9999683 -0
vn -0.19695616 -0.9684703 -0.15255684
vn -0.13277823 -0.9911458 -0
g stickman_Worker1_Hat_0
f 3/3/3 2/2/2 1/1/1
f 4/4/4 3/3/3 1/1/1
f 3/3/3 4/4/4 5/5/5
f 1/1/1 6/6/6 4/4/4
f 5/5/5 4/4/4 7/7/7
f 6/6/6 8/8/8 4/4/4
f 6/6/6 9/9/9 8/8/8
f 4/4/4 10/10/10 7/7/7
f 4/4/4 8/8/8 10/10/10
f 7/7/7 10/10/10 11/11/11
f 9/9/9 12/12/12 8/8/8
f 9/9/9 13/13/13 12/12/12
f 8/8/8 14/14/14 10/10/10
f 14/14/14 8/8/8 12/12/12
f 14/14/14 15/15/15 10/10/10
f 15/15/15 14/14/14 12/12/12
f 10/10/10 16/16/16 11/11/11
f 15/15/15 16/16/16 10/10/10
f 13/13/13 17/17/17 12/12/12
f 15/15/15 12/12/12 17/17/17
f 18/18/18 11/11/11 16/16/16
f 11/11/11 18/18/18 19/19/19
f 18/18/18 20/20/20 19/19/19
f 21/21/21 18/18/18 16/16/16
f 20/20/20 22/22/22 19/19/19
f 21/21/21 16/16/16 23/23/23
f 22/22/22 24/24/24 19/19/19
f 25/25/25 16/16/16 15/15/15
f 16/16/16 25/25/25 23/23/23
f 24/24/24 22/22/22 26/26/26
f 25/25/25 26/26/26 23/23/23
f 22/22/22 27/27/27 26/26/26
f 26/26/26 27/27/27 23/23/23
f 28/28/28 25/25/25 15/15/15
f 28/28/28 15/15/15 17/17/17
f 25/25/25 28/28/28 29/29/29
f 26/26/26 25/25/25 29/29/29
f 29/29/29 28/28/28 17/17/17
f 26/26/26 30/30/30 24/24/24
f 26/26/26 29/29/29 30/30/30
f 30/30/30 31/31/31 24/24/24
f 32/32/32 29/29/29 17/17/17
f 17/17/17 13/13/13 32/32/32
f 13/13/13 33/33/33 32/32/32
f 34/34/34 29/29/29 32/32/32
f 29/29/29 34/34/34 30/30/30
f 32/32/32 33/33/33 35/35/35
f 35/35/35 34/34/34 32/32/32
f 34/34/34 35/35/35 30/30/30
f 33/33/33 36/36/36 35/35/35
f 30/30/30 37/37/37 31/31/31
f 35/35/35 37/37/37 30/30/30
f 35/35/35 36/36/36 37/37/37
f 37/37/37 38/38/38 31/31/31
f 36/36/36 39/39/39 37/37/37
f 37/37/37 40/40/40 38/38/38
f 40/40/40 37/37/37 39/39/39
f 41/41/41 40/40/40 39/39/39
f 44/44/44 43/43/43 42/42/42
f 43/43/43 45/45/45 42/42/42
f 42/42/42 45/45/45 46/46/46
f 45/45/45 47/47/47 46/46/46
f 47/47/47 48/48/48 46/46/46
f 48/48/48 49/49/49 46/46/46
f 48/48/48 50/50/50 49/49/49
f 50/50/50 51/51/51 49/49/49
f 54/54/54 53/53/53 52/52/52
f 55/55/55 54/54/54 52/52/52
f 55/55/55 52/52/52 56/56/56
f 54/54/54 55/55/55 57/57/57
f 57/57/57 55/55/55 56/56/56
f 52/52/52 58/58/58 56/56/56
f 58/58/58 59/59/59 56/56/56
f 60/60/60 57/57/57 56/56/56
f 57/57/57 60/60/60 61/61/61
f 60/60/60 62/62/62 61/61/61
f 62/62/62 60/60/60 56/56/56
f 63/63/63 62/62/62 56/56/56
f 59/59/59 63/63/63 56/56/56
f 63/63/63 64/64/64 62/62/62
f 64/64/64 63/63/63 59/59/59
f 65/65/65 64/64/64 59/59/59
f 68/68/68 67/67/67 66/66/66
f 67/67/67 69/69/69 66/66/66
f 66/66/66 69/69/69 70/70/70
f 69/69/69 71/71/71 70/70/70
f 70/70/70 71/71/71 72/72/72
f 71/71/71 73/73/73 72/72/72
f 73/73/73 74/74/74 72/72/72
f 74/74/74 75/75/75 72/72/72
f 74/74/74 76/76/76 75/75/75
f 76/76/76 77/77/77 75/75/75
f 76/76/76 78/78/78 77/77/77
f 78/78/78 79/79/79 77/77/77
f 82/82/82 81/81/81 80/80/80
f 83/83/83 82/82/82 80/80/80
f 81/81/81 84/84/84 80/80/80
f 85/85/85 83/83/83 80/80/80
f 84/84/84 86/86/86 80/80/80
f 87/87/87 85/85/85 80/80/80
f 86/86/86 88/88/88 80/80/80
f 89/89/89 87/87/87 80/80/80
f 88/88/88 90/90/90 80/80/80
f 91/91/91 89/89/89 80/80/80
f 90/90/90 92/92/92 80/80/80
f 93/93/93 91/91/91 80/80/80
f 92/92/92 94/94/94 80/80/80
f 95/95/95 93/93/93 80/80/80
f 94/94/94 96/96/96 80/80/80
f 96/96/96 95/95/95 80/80/80
