g store02_Tile02
v 22.000029 -1.5258789E-05 29.00003
v -8.995514 -1.5258789E-05 -38.999985
v 22.000029 -1.5258789E-05 -38.995316
v -20.995476 -1.5258789E-05 -27.004692
v -20.995476 -1.5258789E-05 29.00003
v -8.6000595 0.099983215 27.999985
v -8.6000595 0.099983215 23.999973
v 6.599922 0.099983215 23.999973
v 6.599922 0.099983215 27.999985
v 6.599922 -1.5258789E-05 27.999985
v 6.599922 0.099983215 27.999985
v 6.599922 0.099983215 23.999973
v 6.599922 -1.5258789E-05 23.999973
v -8.6000595 -1.5258789E-05 23.999973
v -8.6000595 0.099983215 23.999973
v -8.6000595 0.099983215 27.999985
v -8.6000595 -1.5258789E-05 27.999985
v 6.599922 -1.5258789E-05 23.999973
v 6.599922 0.099983215 23.999973
v -8.6000595 0.099983215 23.999973
v -8.6000595 -1.5258789E-05 23.999973
v -8.6000595 -1.5258789E-05 27.999985
v -8.6000595 0.099983215 27.999985
v 6.599922 0.099983215 27.999985
v 6.599922 -1.5258789E-05 27.999985
vt 0.091219895 0.58951473
vt 0.091219895 0.58951473
vt 0.091219895 0.58951473
vt 0.091219895 0.58951473
vt 0.091219895 0.58951473
vt 0.21639022 0.03095302
vt 0.21639022 0.03095302
vt 0.21639022 0.03095302
vt 0.21639022 0.03095302
vt 0.21639022 0.03095302
vt 0.21639022 0.03095302
vt 0.21639022 0.03095302
vt 0.21639022 0.03095302
vt 0.21639022 0.03095302
vt 0.21639022 0.03095302
vt 0.21639022 0.03095302
vt 0.21639022 0.03095302
vt 0.21639022 0.03095302
vt 0.21639022 0.03095302
vt 0.21639022 0.03095302
vt 0.21639022 0.03095302
vt 0.21639022 0.03095302
vt 0.21639022 0.03095302
vt 0.21639022 0.03095302
vt 0.21639022 0.03095302
vn -0.0009775162 0.9999995 -0
vn -0.0009775162 0.9999995 -0
vn -0.0009775162 0.9999995 -0
vn -0.0009775162 0.9999995 -0
vn -0.0009775162 0.9999995 -0
vn -0.0009775162 0.9999995 -0
vn -0.0009775162 0.9999995 -0
vn -0.0009775162 0.9999995 -0
vn -0.0009775162 0.9999995 -0
vn 0.9999995 0.0009775162 -0
vn 0.9999995 0.0009775162 -0
vn 0.9999995 0.0009775162 -0
vn 0.9999995 0.0009775162 -0
vn -0.9999995 0.0009775162 -0
vn -0.9999995 0.0009775162 -0
vn -0.9999995 0.0009775162 -0
vn -0.9999995 0.0009775162 -0
vn -0.0009775162 0.0009775162 -0.99999905
vn -0.0009775162 0.0009775162 -0.99999905
vn -0.0009775162 0.0009775162 -0.99999905
vn -0.0009775162 0.0009775162 -0.99999905
vn -0.0009775162 0.0009775162 0.99999905
vn -0.0009775162 0.0009775162 0.99999905
vn -0.0009775162 0.0009775162 0.99999905
vn -0.0009775162 0.0009775162 0.99999905
g store02_Tile02_0
f 3/3/3 2/2/2 1/1/1
f 2/2/2 4/4/4 1/1/1
f 1/1/1 4/4/4 5/5/5
f 8/8/8 7/7/7 6/6/6
f 9/9/9 8/8/8 6/6/6
f 12/12/12 11/11/11 10/10/10
f 13/13/13 12/12/12 10/10/10
f 16/16/16 15/15/15 14/14/14
f 17/17/17 16/16/16 14/14/14
f 20/20/20 19/19/19 18/18/18
f 21/21/21 20/20/20 18/18/18
f 24/24/24 23/23/23 22/22/22
f 25/25/25 24/24/24 22/22/22
