g store_Tile01_Wall
v -17.000298 12.000002 29.000008
v -17.000298 5.722046E-06 29.000008
v 13 5.722046E-06 29.000008
v 13 12.000002 29.000008
v 13 5.722046E-06 29.000008
v 13 5.722046E-06 30.000015
v 13 12.000002 30.000015
v 13 12.000002 29.000008
v -17.000298 5.722046E-06 30.001247
v -17.000298 12.000002 30.001247
v 13 12.000002 30.000015
v 13 5.722046E-06 30.000015
v -17.000298 12.000002 30.001247
v -17.000298 5.722046E-06 30.001247
v -17.000298 5.722046E-06 29.000008
v -17.000298 12.000002 29.000008
v -17.000298 12.000002 30.001247
v -17.000298 12.000002 29.000008
v 13 12.000002 29.000008
v 13 12.000002 30.000015
v -17.000298 9.5999775 28.944397
v 13 9.5999775 28.944397
v 13 10.79999 28.944397
v -17.000298 10.79999 28.944397
v -17.000298 10.79999 28.944397
v 13 10.79999 28.944397
v 13 12.000002 28.944397
v -17.000298 12.000002 28.944397
vt 0.52850413 0.15524425
vt 0.52850413 0.15524425
vt 0.52850413 0.15524425
vt 0.52850413 0.15524425
vt 0.5897857 0.15459386
vt 0.5897857 0.15459386
vt 0.5897857 0.15459386
vt 0.5897857 0.15459386
vt 0.52727985 0.15459386
vt 0.52727985 0.15459386
vt 0.52727985 0.15459386
vt 0.52727985 0.15459386
vt 0.5897857 0.15459386
vt 0.5897857 0.15459386
vt 0.5897857 0.15459386
vt 0.5897857 0.15459386
vt 0.5897857 0.15459386
vt 0.5897857 0.15459386
vt 0.5897857 0.15459386
vt 0.5897857 0.15459386
vt 0.2183469 0.6560408
vt 0.2183469 0.6560408
vt 0.2183469 0.6560408
vt 0.2183469 0.6560408
vt 0.21887487 0.46674046
vt 0.21887487 0.46674046
vt 0.21887487 0.46674046
vt 0.21887487 0.46674046
vn -0.0009775162 0.0009775162 -0.99999905
vn -0.0009775162 0.0009775162 -0.99999905
vn -0.0009775162 0.0009775162 -0.99999905
vn -0.0009775162 0.0009775162 -0.99999905
vn 0.9999995 0.0009775162 -0
vn 0.9999995 0.0009775162 -0
vn 0.9999995 0.0009775162 -0
vn 0.9999995 0.0009775162 -0
vn 0.0009775162 0.0009775162 0.99999905
vn 0.0009775162 0.0009775162 0.99999905
vn 0.0009775162 0.0009775162 0.99999905
vn 0.0009775162 0.0009775162 0.99999905
vn -0.9999995 0.0009775162 -0
vn -0.9999995 0.0009775162 -0
vn -0.9999995 0.0009775162 -0
vn -0.9999995 0.0009775162 -0
vn -0.0009775162 0.9999995 -0
vn -0.0009775162 0.9999995 -0
vn -0.0009775162 0.9999995 -0
vn -0.0009775162 0.9999995 -0
vn -0.0009775162 0.0009775162 -0.99999905
vn -0.0009775162 0.0009775162 -0.99999905
vn -0.0009775162 0.0009775162 -0.99999905
vn -0.0009775162 0.0009775162 -0.99999905
vn -0.0009775162 0.0009775162 -0.99999905
vn -0.0009775162 0.0009775162 -0.99999905
vn -0.0009775162 0.0009775162 -0.99999905
vn -0.0009775162 0.0009775162 -0.99999905
g store_Tile01_Wall_0
f 3/3/3 2/2/2 1/1/1
f 4/4/4 3/3/3 1/1/1
f 7/7/7 6/6/6 5/5/5
f 8/8/8 7/7/7 5/5/5
f 11/11/11 10/10/10 9/9/9
f 12/12/12 11/11/11 9/9/9
f 15/15/15 14/14/14 13/13/13
f 16/16/16 15/15/15 13/13/13
f 19/19/19 18/18/18 17/17/17
f 20/20/20 19/19/19 17/17/17
f 23/23/23 22/22/22 21/21/21
f 24/24/24 23/23/23 21/21/21
f 27/27/27 26/26/26 25/25/25
f 28/28/28 27/27/27 25/25/25
