g store_Tile02_Wall
v -12.999708 12.000019 29.000027
v 16.999702 12.000019 29.000027
v 16.999702 12.000019 29.999958
v -13 12.000019 30.000004
v -12.999708 12.000019 29.000027
v -12.999708 1.1444092E-05 29.000027
v -8 1.1444092E-05 28.996914
v -8 8 28.996914
v 8.000026 8 28.993752
v 16.999702 12.000019 29.000027
v 8.000026 1.1444092E-05 28.993752
v 16.999702 1.1444092E-05 29.000027
v 8.000026 8 29.999958
v 16.999702 1.1444092E-05 29.999958
v 8.000026 1.1444092E-05 29.999958
v 16.999702 12.000019 29.999958
v -8 8 30.003117
v -13 12.000019 30.000004
v -13 1.1444092E-05 30.000004
v -8 1.1444092E-05 30.003117
v -8 1.1444092E-05 28.996914
v -8 1.1444092E-05 30.003117
v -8 8 30.003117
v -8 8 28.996914
v -8 8 28.996914
v -8 8 30.003117
v 8.000026 8 29.999958
v 8.000026 8 28.993752
v 8.000026 8 28.993752
v 8.000026 8 29.999958
v 8.000026 1.1444092E-05 29.999958
v 8.000026 1.1444092E-05 28.993752
v -13 12.000019 30.000004
v -13 1.1444092E-05 30.000004
v -12.999708 1.1444092E-05 29.000027
v -12.999708 12.000019 29.000027
v -12.999708 9.600018 28.943752
v 16.999702 9.600018 28.944386
v 16.999702 10.7999935 28.944386
v -12.999708 10.7999935 28.943752
v -12.999708 10.7999935 28.943752
v 16.999702 10.7999935 28.944386
v 16.999702 12.000019 28.944386
v -12.999708 12.000019 28.943752
v 16.999702 12.000019 29.999958
v 16.999702 12.000019 29.000027
v 16.999702 1.1444092E-05 29.000027
v 16.999702 1.1444092E-05 29.999958
v -1.600029 9.373856 30.000004
v -1.5999813 7.616497 34.000023
v -3.199997 7.616497 34.000023
v -3.199997 9.373856 30.000004
v -3.199997 9.373856 30.000004
v -3.199997 7.616497 34.000023
v -4.8000145 7.616497 34.000023
v -4.8000145 9.373856 30.000004
v -4.8000145 9.373856 30.000004
v -4.8000145 7.616497 34.000023
v -6.3999825 7.616497 34.000023
v -6.400032 9.373856 30.000004
v -6.400032 9.373856 30.000004
v -6.3999825 7.616497 34.000023
v -8 7.616497 34.000023
v -8 9.373856 30.000004
v -8 9.373856 30.000004
v -8 7.616497 34.000023
v -9.600018 7.616497 34.000023
v -9.600018 9.373856 30.000004
v -6.3999825 7.616497 34.000023
v -4.8000145 7.616497 34.000023
v -4.8000145 6.5975 34.000023
v -4.9003525 6.1000385 34.000023
v -5.23415 5.8533993 34.000023
v -5.965847 5.8533993 34.000023
v -6.2996445 6.1000385 34.000023
v -6.3999825 6.5975 34.000023
v -9.600018 7.616497 34.000023
v -8 7.616497 34.000023
v -8 6.5975 34.000023
v -8.100388 6.1000385 34.000023
v -8.434135 5.8533993 34.000023
v -9.165834 5.8533993 34.000023
v -9.49963 6.1000385 34.000023
v -9.600018 6.5975 34.000023
v -4.8000145 7.616497 34.000023
v -3.199997 7.616497 34.000023
v -3.199997 6.5975 34.000023
v -3.3003845 6.1000385 34.000023
v -3.634182 5.8533993 34.000023
v -4.3658314 5.8533993 34.000023
v -4.699627 6.1000385 34.000023
v -4.8000145 6.5975 34.000023
v -8 7.616497 34.000023
v -6.3999825 7.616497 34.000023
v -6.3999825 6.5975 34.000023
v -6.50037 6.1000385 34.000023
v -6.8341675 5.8533993 34.000023
v -7.5658646 5.8533993 34.000023
v -7.8996124 6.1000385 34.000023
v -8 6.5975 34.000023
v -3.199997 7.616497 34.000023
v -1.5999813 7.616497 34.000023
v -1.5999813 6.5975 34.000023
v -1.700367 6.1000385 34.000023
v -2.0341644 5.8533993 34.000023
v -2.7658615 5.8533993 34.000023
v -3.0996113 6.1000385 34.000023
v -3.199997 6.5975 34.000023
v 4.7999907 9.373856 30.000004
v 4.7999907 7.616497 34.000023
v 3.199974 7.616497 34.000023
v 3.199974 9.373856 30.000004
v 3.199974 9.373856 30.000004
v 3.199974 7.616497 34.000023
v 1.6000051 7.616497 34.000023
v 1.6000051 9.373856 30.000004
v 1.6000051 9.373856 30.000004
v 1.6000051 7.616497 34.000023
v -1.1444092E-05 7.616497 34.000023
v -1.1444092E-05 9.373856 30.000004
v -1.1444092E-05 9.373856 30.000004
v -1.1444092E-05 7.616497 34.000023
v -1.5999813 7.616497 34.000023
v -1.600029 9.373856 30.000004
v -1.1444092E-05 7.616497 34.000023
v 1.6000051 7.616497 34.000023
v 1.6000051 6.5975 34.000023
v 1.4996185 6.1000385 34.000023
v 1.1658211 5.8533993 34.000023
v 0.434124 5.8533993 34.000023
v 0.10037613 6.1000385 34.000023
v -1.1444092E-05 6.5975 34.000023
v 1.6000051 7.616497 34.000023
v 3.199974 7.616497 34.000023
v 3.199974 6.5975 34.000023
v 3.0996351 6.1000385 34.000023
v 2.7658386 5.8533993 34.000023
v 2.0341406 5.8533993 34.000023
v 1.7003441 6.1000385 34.000023
v 1.6000051 6.5975 34.000023
v -1.5999813 7.616497 34.000023
v -1.1444092E-05 7.616497 34.000023
v -1.1444092E-05 6.5975 34.000023
v -0.10039902 6.1000385 34.000023
v -0.43414688 5.8533993 34.000023
v -1.1658459 5.8533993 34.000023
v -1.4996414 6.1000385 34.000023
v -1.5999813 6.5975 34.000023
v 3.199974 7.616497 34.000023
v 4.7999907 7.616497 34.000023
v 4.7999907 6.5975 34.000023
v 4.699604 6.1000385 34.000023
v 4.365855 5.8533993 34.000023
v 3.6341581 5.8533993 34.000023
v 3.3003607 6.1000385 34.000023
v 3.199974 6.5975 34.000023
v 9.599994 9.373856 30.000004
v 9.599994 7.616497 34.000023
v 7.999977 7.616497 34.000023
v 7.999977 9.373856 30.000004
v 7.999977 9.373856 30.000004
v 7.999977 7.616497 34.000023
v 6.400008 7.616497 34.000023
v 6.400008 9.373856 30.000004
v 6.400008 9.373856 30.000004
v 6.400008 7.616497 34.000023
v 4.7999907 7.616497 34.000023
v 4.7999907 9.373856 30.000004
v 6.400008 7.616497 34.000023
v 7.999977 7.616497 34.000023
v 7.999977 6.5975 34.000023
v 7.899638 6.1000385 34.000023
v 7.5658417 5.8533993 34.000023
v 6.8341436 5.8533993 34.000023
v 6.500346 6.1000385 34.000023
v 6.400008 6.5975 34.000023
v 7.999977 7.616497 34.000023
v 9.599994 7.616497 34.000023
v 9.599994 6.5975 34.000023
v 9.499607 6.1000385 34.000023
v 9.165858 5.8533993 34.000023
v 8.434161 5.8533993 34.000023
v 8.100364 6.1000385 34.000023
v 7.999977 6.5975 34.000023
v 4.7999907 7.616497 34.000023
v 6.400008 7.616497 34.000023
v 6.400008 6.5975 34.000023
v 6.2996206 6.1000385 34.000023
v 5.965824 5.8533993 34.000023
v 5.234126 5.8533993 34.000023
v 4.900378 6.1000385 34.000023
v 4.7999907 6.5975 34.000023
vt 0.58977807 0.15459424
vt 0.58977807 0.15459424
vt 0.58977807 0.15459424
vt 0.58977807 0.15459424
vt 0.5285012 0.15525366
vt 0.5285012 0.15525366
vt 0.5285012 0.15525366
vt 0.5285012 0.15525366
vt 0.5285012 0.15525366
vt 0.5285012 0.15525366
vt 0.5285012 0.15525366
vt 0.5285012 0.15525366
vt 0.5272819 0.15459424
vt 0.5272819 0.15459424
vt 0.5272819 0.15459424
vt 0.5272819 0.15459424
vt 0.5272819 0.15459424
vt 0.5272819 0.15459424
vt 0.5272819 0.15459424
vt 0.5272819 0.15459424
vt 0.6522867 0.15459424
vt 0.6522867 0.15459424
vt 0.6522867 0.15459424
vt 0.6522867 0.15459424
vt 0.6522867 0.15459424
vt 0.6522867 0.15459424
vt 0.6522867 0.15459424
vt 0.6522867 0.15459424
vt 0.6522867 0.15459424
vt 0.6522867 0.15459424
vt 0.6522867 0.15459424
vt 0.6522867 0.15459424
vt 0.71600217 0.15525366
vt 0.71600217 0.15525366
vt 0.71600217 0.15525366
vt 0.71600217 0.15525366
vt 0.21834704 0.6560442
vt 0.21834704 0.6560442
vt 0.21834704 0.6560442
vt 0.21834704 0.6560442
vt 0.21886961 0.46673915
vt 0.21886961 0.46673915
vt 0.21886961 0.46673915
vt 0.21886961 0.46673915
vt 0.58977807 0.15459424
vt 0.58977807 0.15459424
vt 0.5285012 0.15525366
vt 0.5272819 0.15459424
vt 0.59353554 0.02813375
vt 0.59353554 0.02813375
vt 0.59353554 0.02813375
vt 0.59353554 0.02813375
vt 0.21845903 0.8435202
vt 0.21845903 0.8435202
vt 0.21845903 0.8435202
vt 0.21845903 0.8435202
vt 0.59353554 0.02813375
vt 0.59353554 0.02813375
vt 0.59353554 0.02813375
vt 0.59353554 0.02813375
vt 0.21845903 0.8435202
vt 0.21845903 0.8435202
vt 0.21845903 0.8435202
vt 0.21845903 0.8435202
vt 0.59353554 0.02813375
vt 0.59353554 0.02813375
vt 0.59353554 0.02813375
vt 0.59353554 0.02813375
vt 0.59353554 0.02813375
vt 0.59353554 0.02813375
vt 0.59353554 0.02813375
vt 0.59353554 0.02813375
vt 0.59353554 0.02813375
vt 0.59353554 0.02813375
vt 0.59353554 0.02813375
vt 0.59353554 0.02813375
vt 0.59353554 0.02813375
vt 0.59353554 0.02813375
vt 0.59353554 0.02813375
vt 0.59353554 0.02813375
vt 0.59353554 0.02813375
vt 0.59353554 0.02813375
vt 0.59353554 0.02813375
vt 0.59353554 0.02813375
vt 0.21845903 0.8435202
vt 0.21845903 0.8435202
vt 0.21845903 0.8435202
vt 0.21845903 0.8435202
vt 0.21845903 0.8435202
vt 0.21845903 0.8435202
vt 0.21845903 0.8435202
vt 0.21845903 0.8435202
vt 0.21845903 0.8435202
vt 0.21845903 0.8435202
vt 0.21845903 0.8435202
vt 0.21845903 0.8435202
vt 0.21845903 0.8435202
vt 0.21845903 0.8435202
vt 0.21845903 0.8435202
vt 0.21845903 0.8435202
vt 0.59353554 0.02813375
vt 0.59353554 0.02813375
vt 0.59353554 0.02813375
vt 0.59353554 0.02813375
vt 0.59353554 0.02813375
vt 0.59353554 0.02813375
vt 0.59353554 0.02813375
vt 0.59353554 0.02813375
vt 0.59353554 0.02813375
vt 0.59353554 0.02813375
vt 0.59353554 0.02813375
vt 0.59353554 0.02813375
vt 0.21845903 0.8435202
vt 0.21845903 0.8435202
vt 0.21845903 0.8435202
vt 0.21845903 0.8435202
vt 0.59353554 0.02813375
vt 0.59353554 0.02813375
vt 0.59353554 0.02813375
vt 0.59353554 0.02813375
vt 0.21845903 0.8435202
vt 0.21845903 0.8435202
vt 0.21845903 0.8435202
vt 0.21845903 0.8435202
vt 0.59353554 0.02813375
vt 0.59353554 0.02813375
vt 0.59353554 0.02813375
vt 0.59353554 0.02813375
vt 0.59353554 0.02813375
vt 0.59353554 0.02813375
vt 0.59353554 0.02813375
vt 0.59353554 0.02813375
vt 0.21845903 0.8435202
vt 0.21845903 0.8435202
vt 0.21845903 0.8435202
vt 0.21845903 0.8435202
vt 0.21845903 0.8435202
vt 0.21845903 0.8435202
vt 0.21845903 0.8435202
vt 0.21845903 0.8435202
vt 0.21845903 0.8435202
vt 0.21845903 0.8435202
vt 0.21845903 0.8435202
vt 0.21845903 0.8435202
vt 0.21845903 0.8435202
vt 0.21845903 0.8435202
vt 0.21845903 0.8435202
vt 0.21845903 0.8435202
vt 0.59353554 0.02813375
vt 0.59353554 0.02813375
vt 0.59353554 0.02813375
vt 0.59353554 0.02813375
vt 0.59353554 0.02813375
vt 0.59353554 0.02813375
vt 0.59353554 0.02813375
vt 0.59353554 0.02813375
vt 0.21845903 0.8435202
vt 0.21845903 0.8435202
vt 0.21845903 0.8435202
vt 0.21845903 0.8435202
vt 0.59353554 0.02813375
vt 0.59353554 0.02813375
vt 0.59353554 0.02813375
vt 0.59353554 0.02813375
vt 0.21845903 0.8435202
vt 0.21845903 0.8435202
vt 0.21845903 0.8435202
vt 0.21845903 0.8435202
vt 0.59353554 0.02813375
vt 0.59353554 0.02813375
vt 0.59353554 0.02813375
vt 0.59353554 0.02813375
vt 0.59353554 0.02813375
vt 0.59353554 0.02813375
vt 0.59353554 0.02813375
vt 0.59353554 0.02813375
vt 0.21845903 0.8435202
vt 0.21845903 0.8435202
vt 0.21845903 0.8435202
vt 0.21845903 0.8435202
vt 0.21845903 0.8435202
vt 0.21845903 0.8435202
vt 0.21845903 0.8435202
vt 0.21845903 0.8435202
vt 0.21845903 0.8435202
vt 0.21845903 0.8435202
vt 0.21845903 0.8435202
vt 0.21845903 0.8435202
vt 0.21845903 0.8435202
vt 0.21845903 0.8435202
vt 0.21845903 0.8435202
vt 0.21845903 0.8435202
vn -0.0009775162 0.9999995 -0
vn -0.0009775162 0.9999995 -0
vn -0.0009775162 0.9999995 -0
vn -0.0009775162 0.9999995 -0
vn -0.0009775162 0.0009775162 -0.99999905
vn -0.0009775162 0.0009775162 -0.99999905
vn -0.0009775162 0.0009775162 -0.99999905
vn -0.0009775162 0.0009775162 -0.99999905
vn 0.0009775162 0.0009775162 -0.99999905
vn 0.0009775162 0.0009775162 -0.99999905
vn 0.0009775162 0.0009775162 -0.99999905
vn 0.0009775162 0.0009775162 -0.99999905
vn -0.0009775162 0.0009775162 0.99999905
vn -0.0009775162 0.0009775162 0.99999905
vn -0.0009775162 0.0009775162 0.99999905
vn -0.0009775162 0.0009775162 0.99999905
vn 0.0009775162 0.0009775162 0.99999905
vn 0.0009775162 0.0009775162 0.99999905
vn -0.0009775162 0.0009775162 0.99999905
vn -0.0009775162 0.0009775162 0.99999905
vn 0.9999995 0.0009775162 -0
vn 0.9999995 0.0009775162 -0
vn 0.9999995 0.0009775162 -0
vn 0.9999995 0.0009775162 -0
vn -0.0009775162 -0.9999995 -0
vn -0.0009775162 -0.9999995 -0
vn -0.0009775162 -0.9999995 -0
vn -0.0009775162 -0.9999995 -0
vn -0.9999995 0.0009775162 -0
vn -0.9999995 0.0009775162 -0
vn -0.9999995 0.0009775162 -0
vn -0.9999995 0.0009775162 -0
vn -0.9999995 0.0009775162 -0
vn -0.9999995 0.0009775162 -0
vn -0.9999995 0.0009775162 -0
vn -0.9999995 0.0009775162 -0
vn 0.0009775162 0.0009775162 -0.99999905
vn 0.0009775162 0.0009775162 -0.99999905
vn 0.0009775162 0.0009775162 -0.99999905
vn 0.0009775162 0.0009775162 -0.99999905
vn 0.0009775162 0.0009775162 -0.99999905
vn 0.0009775162 0.0009775162 -0.99999905
vn 0.0009775162 0.0009775162 -0.99999905
vn 0.0009775162 0.0009775162 -0.99999905
vn 0.9999995 0.0009775162 -0
vn 0.9999995 0.0009775162 -0
vn 0.9999995 0.0009775162 -0
vn 0.9999995 0.0009775162 -0
vn -0.0009775162 0.91593313 0.4013297
vn -0.0009775162 0.91593313 0.4013297
vn -0.0009775162 0.91593313 0.4013297
vn -0.0009775162 0.91593313 0.4013297
vn -0.0009775162 0.91593313 0.4013297
vn -0.0009775162 0.91593313 0.4013297
vn -0.0009775162 0.91593313 0.4013297
vn -0.0009775162 0.91593313 0.4013297
vn -0.0009775162 0.91593313 0.4013297
vn -0.0009775162 0.91593313 0.4013297
vn -0.0009775162 0.91593313 0.4013297
vn -0.0009775162 0.91593313 0.4013297
vn -0.0009775162 0.91593313 0.4013297
vn -0.0009775162 0.91593313 0.4013297
vn -0.0009775162 0.91593313 0.4013297
vn -0.0009775162 0.91593313 0.4013297
vn -0.0009775162 0.91593313 0.4013297
vn -0.0009775162 0.91593313 0.4013297
vn -0.0009775162 0.91593313 0.4013297
vn -0.0009775162 0.91593313 0.4013297
vn -0.0009775162 0.0009775162 0.99999905
vn -0.0009775162 0.0009775162 0.99999905
vn -0.0009775162 0.0009775162 0.99999905
vn -0.0009775162 0.0009775162 0.99999905
vn -0.0009775162 0.0009775162 0.99999905
vn -0.0009775162 0.0009775162 0.99999905
vn -0.0009775162 0.0009775162 0.99999905
vn -0.0009775162 0.0009775162 0.99999905
vn -0.0009775162 0.0009775162 0.99999905
vn -0.0009775162 0.0009775162 0.99999905
vn -0.0009775162 0.0009775162 0.99999905
vn -0.0009775162 0.0009775162 0.99999905
vn -0.0009775162 0.0009775162 0.99999905
vn -0.0009775162 0.0009775162 0.99999905
vn -0.0009775162 0.0009775162 0.99999905
vn -0.0009775162 0.0009775162 0.99999905
vn -0.0009775162 0.0009775162 0.99999905
vn -0.0009775162 0.0009775162 0.99999905
vn -0.0009775162 0.0009775162 0.99999905
vn -0.0009775162 0.0009775162 0.99999905
vn -0.0009775162 0.0009775162 0.99999905
vn -0.0009775162 0.0009775162 0.99999905
vn -0.0009775162 0.0009775162 0.99999905
vn -0.0009775162 0.0009775162 0.99999905
vn -0.0009775162 0.0009775162 0.99999905
vn -0.0009775162 0.0009775162 0.99999905
vn -0.0009775162 0.0009775162 0.99999905
vn -0.0009775162 0.0009775162 0.99999905
vn -0.0009775162 0.0009775162 0.99999905
vn -0.0009775162 0.0009775162 0.99999905
vn -0.0009775162 0.0009775162 0.99999905
vn -0.0009775162 0.0009775162 0.99999905
vn -0.0009775162 0.0009775162 0.99999905
vn -0.0009775162 0.0009775162 0.99999905
vn -0.0009775162 0.0009775162 0.99999905
vn -0.0009775162 0.0009775162 0.99999905
vn -0.0009775162 0.0009775162 0.99999905
vn -0.0009775162 0.0009775162 0.99999905
vn -0.0009775162 0.0009775162 0.99999905
vn -0.0009775162 0.0009775162 0.99999905
vn -0.0009775162 0.91593313 0.4013297
vn -0.0009775162 0.91593313 0.4013297
vn -0.0009775162 0.91593313 0.4013297
vn -0.0009775162 0.91593313 0.4013297
vn -0.0009775162 0.91593313 0.4013297
vn -0.0009775162 0.91593313 0.4013297
vn -0.0009775162 0.91593313 0.4013297
vn -0.0009775162 0.91593313 0.4013297
vn -0.0009775162 0.91593313 0.4013297
vn -0.0009775162 0.91593313 0.4013297
vn -0.0009775162 0.91593313 0.4013297
vn -0.0009775162 0.91593313 0.4013297
vn -0.0009775162 0.91593313 0.4013297
vn -0.0009775162 0.91593313 0.4013297
vn -0.0009775162 0.91593313 0.4013297
vn -0.0009775162 0.91593313 0.4013297
vn -0.0009775162 0.0009775162 0.99999905
vn -0.0009775162 0.0009775162 0.99999905
vn -0.0009775162 0.0009775162 0.99999905
vn -0.0009775162 0.0009775162 0.99999905
vn -0.0009775162 0.0009775162 0.99999905
vn -0.0009775162 0.0009775162 0.99999905
vn -0.0009775162 0.0009775162 0.99999905
vn -0.0009775162 0.0009775162 0.99999905
vn -0.0009775162 0.0009775162 0.99999905
vn -0.0009775162 0.0009775162 0.99999905
vn -0.0009775162 0.0009775162 0.99999905
vn -0.0009775162 0.0009775162 0.99999905
vn -0.0009775162 0.0009775162 0.99999905
vn -0.0009775162 0.0009775162 0.99999905
vn -0.0009775162 0.0009775162 0.99999905
vn -0.0009775162 0.0009775162 0.99999905
vn -0.0009775162 0.0009775162 0.99999905
vn -0.0009775162 0.0009775162 0.99999905
vn -0.0009775162 0.0009775162 0.99999905
vn -0.0009775162 0.0009775162 0.99999905
vn -0.0009775162 0.0009775162 0.99999905
vn -0.0009775162 0.0009775162 0.99999905
vn -0.0009775162 0.0009775162 0.99999905
vn -0.0009775162 0.0009775162 0.99999905
vn -0.0009775162 0.0009775162 0.99999905
vn -0.0009775162 0.0009775162 0.99999905
vn -0.0009775162 0.0009775162 0.99999905
vn -0.0009775162 0.0009775162 0.99999905
vn -0.0009775162 0.0009775162 0.99999905
vn -0.0009775162 0.0009775162 0.99999905
vn -0.0009775162 0.0009775162 0.99999905
vn -0.0009775162 0.0009775162 0.99999905
vn -0.0009775162 0.91593313 0.4013297
vn -0.0009775162 0.91593313 0.4013297
vn -0.0009775162 0.91593313 0.4013297
vn -0.0009775162 0.91593313 0.4013297
vn -0.0009775162 0.91593313 0.4013297
vn -0.0009775162 0.91593313 0.4013297
vn -0.0009775162 0.91593313 0.4013297
vn -0.0009775162 0.91593313 0.4013297
vn -0.0009775162 0.91593313 0.4013297
vn -0.0009775162 0.91593313 0.4013297
vn -0.0009775162 0.91593313 0.4013297
vn -0.0009775162 0.91593313 0.4013297
vn -0.0009775162 0.0009775162 0.99999905
vn -0.0009775162 0.0009775162 0.99999905
vn -0.0009775162 0.0009775162 0.99999905
vn -0.0009775162 0.0009775162 0.99999905
vn -0.0009775162 0.0009775162 0.99999905
vn -0.0009775162 0.0009775162 0.99999905
vn -0.0009775162 0.0009775162 0.99999905
vn -0.0009775162 0.0009775162 0.99999905
vn -0.0009775162 0.0009775162 0.99999905
vn -0.0009775162 0.0009775162 0.99999905
vn -0.0009775162 0.0009775162 0.99999905
vn -0.0009775162 0.0009775162 0.99999905
vn -0.0009775162 0.0009775162 0.99999905
vn -0.0009775162 0.0009775162 0.99999905
vn -0.0009775162 0.0009775162 0.99999905
vn -0.0009775162 0.0009775162 0.99999905
vn -0.0009775162 0.0009775162 0.99999905
vn -0.0009775162 0.0009775162 0.99999905
vn -0.0009775162 0.0009775162 0.99999905
vn -0.0009775162 0.0009775162 0.99999905
vn -0.0009775162 0.0009775162 0.99999905
vn -0.0009775162 0.0009775162 0.99999905
vn -0.0009775162 0.0009775162 0.99999905
vn -0.0009775162 0.0009775162 0.99999905
g store_Tile02_Wall_0
f 3/3/3 2/2/2 1/1/1
f 4/4/4 3/3/3 1/1/1
f 7/7/7 6/6/6 5/5/5
f 8/8/8 7/7/7 5/5/5
f 8/8/8 5/5/5 9/9/9
f 5/5/5 10/10/10 9/9/9
f 9/9/9 10/10/10 11/11/11
f 10/10/10 12/12/12 11/11/11
f 15/15/15 14/14/14 13/13/13
f 14/14/14 16/16/16 13/13/13
f 13/13/13 16/16/16 17/17/17
f 16/16/16 18/18/18 17/17/17
f 17/17/17 18/18/18 19/19/19
f 20/20/20 17/17/17 19/19/19
f 23/23/23 22/22/22 21/21/21
f 24/24/24 23/23/23 21/21/21
f 27/27/27 26/26/26 25/25/25
f 28/28/28 27/27/27 25/25/25
f 31/31/31 30/30/30 29/29/29
f 32/32/32 31/31/31 29/29/29
f 35/35/35 34/34/34 33/33/33
f 36/36/36 35/35/35 33/33/33
f 39/39/39 38/38/38 37/37/37
f 40/40/40 39/39/39 37/37/37
f 43/43/43 42/42/42 41/41/41
f 44/44/44 43/43/43 41/41/41
f 47/47/47 46/46/46 45/45/45
f 48/48/48 47/47/47 45/45/45
f 51/51/51 50/50/50 49/49/49
f 52/52/52 51/51/51 49/49/49
f 55/55/55 54/54/54 53/53/53
f 56/56/56 55/55/55 53/53/53
f 59/59/59 58/58/58 57/57/57
f 60/60/60 59/59/59 57/57/57
f 63/63/63 62/62/62 61/61/61
f 64/64/64 63/63/63 61/61/61
f 67/67/67 66/66/66 65/65/65
f 68/68/68 67/67/67 65/65/65
f 71/71/71 70/70/70 69/69/69
f 69/69/69 72/72/72 71/71/71
f 69/69/69 73/73/73 72/72/72
f 69/69/69 74/74/74 73/73/73
f 69/69/69 75/75/75 74/74/74
f 69/69/69 76/76/76 75/75/75
f 79/79/79 78/78/78 77/77/77
f 77/77/77 80/80/80 79/79/79
f 77/77/77 81/81/81 80/80/80
f 77/77/77 82/82/82 81/81/81
f 77/77/77 83/83/83 82/82/82
f 77/77/77 84/84/84 83/83/83
f 87/87/87 86/86/86 85/85/85
f 85/85/85 88/88/88 87/87/87
f 85/85/85 89/89/89 88/88/88
f 85/85/85 90/90/90 89/89/89
f 85/85/85 91/91/91 90/90/90
f 85/85/85 92/92/92 91/91/91
f 95/95/95 94/94/94 93/93/93
f 93/93/93 96/96/96 95/95/95
f 93/93/93 97/97/97 96/96/96
f 93/93/93 98/98/98 97/97/97
f 93/93/93 99/99/99 98/98/98
f 93/93/93 100/100/100 99/99/99
f 103/103/103 102/102/102 101/101/101
f 101/101/101 104/104/104 103/103/103
f 101/101/101 105/105/105 104/104/104
f 101/101/101 106/106/106 105/105/105
f 101/101/101 107/107/107 106/106/106
f 101/101/101 108/108/108 107/107/107
f 111/111/111 110/110/110 109/109/109
f 112/112/112 111/111/111 109/109/109
f 115/115/115 114/114/114 113/113/113
f 116/116/116 115/115/115 113/113/113
f 119/119/119 118/118/118 117/117/117
f 120/120/120 119/119/119 117/117/117
f 123/123/123 122/122/122 121/121/121
f 124/124/124 123/123/123 121/121/121
f 127/127/127 126/126/126 125/125/125
f 125/125/125 128/128/128 127/127/127
f 125/125/125 129/129/129 128/128/128
f 125/125/125 130/130/130 129/129/129
f 125/125/125 131/131/131 130/130/130
f 125/125/125 132/132/132 131/131/131
f 135/135/135 134/134/134 133/133/133
f 133/133/133 136/136/136 135/135/135
f 133/133/133 137/137/137 136/136/136
f 133/133/133 138/138/138 137/137/137
f 133/133/133 139/139/139 138/138/138
f 133/133/133 140/140/140 139/139/139
f 143/143/143 142/142/142 141/141/141
f 141/141/141 144/144/144 143/143/143
f 141/141/141 145/145/145 144/144/144
f 141/141/141 146/146/146 145/145/145
f 141/141/141 147/147/147 146/146/146
f 141/141/141 148/148/148 147/147/147
f 151/151/151 150/150/150 149/149/149
f 149/149/149 152/152/152 151/151/151
f 149/149/149 153/153/153 152/152/152
f 149/149/149 154/154/154 153/153/153
f 149/149/149 155/155/155 154/154/154
f 149/149/149 156/156/156 155/155/155
f 159/159/159 158/158/158 157/157/157
f 160/160/160 159/159/159 157/157/157
f 163/163/163 162/162/162 161/161/161
f 164/164/164 163/163/163 161/161/161
f 167/167/167 166/166/166 165/165/165
f 168/168/168 167/167/167 165/165/165
f 171/171/171 170/170/170 169/169/169
f 169/169/169 172/172/172 171/171/171
f 169/169/169 173/173/173 172/172/172
f 169/169/169 174/174/174 173/173/173
f 169/169/169 175/175/175 174/174/174
f 169/169/169 176/176/176 175/175/175
f 179/179/179 178/178/178 177/177/177
f 177/177/177 180/180/180 179/179/179
f 177/177/177 181/181/181 180/180/180
f 177/177/177 182/182/182 181/181/181
f 177/177/177 183/183/183 182/182/182
f 177/177/177 184/184/184 183/183/183
f 187/187/187 186/186/186 185/185/185
f 185/185/185 188/188/188 187/187/187
f 185/185/185 189/189/189 188/188/188
f 185/185/185 190/190/190 189/189/189
f 185/185/185 191/191/191 190/190/190
f 185/185/185 192/192/192 191/191/191
