g store_Tile02
v 16.99968 2.861023E-05 30.00042
v -12.998936 2.861023E-05 30.00042
v -12.998936 2.861023E-05 -30.00042
v 16.99968 2.861023E-05 -30.00042
v -7.599991 2.861023E-05 28.99504
v 7.5999928 2.861023E-05 28.99504
v 7.5999928 2.861023E-05 24.99504
v -7.599991 2.861023E-05 24.99504
v -7.599991 0.09999466 28.99504
v -7.599991 0.09999466 24.99504
v 7.5999928 0.09999466 24.99504
v 7.5999928 0.09999466 28.99504
v 7.5999928 2.861023E-05 28.99504
v 7.5999928 0.09999466 28.99504
v 7.5999928 0.09999466 24.99504
v 7.5999928 2.861023E-05 24.99504
v -7.599991 2.861023E-05 24.99504
v -7.599991 0.09999466 24.99504
v -7.599991 0.09999466 28.99504
v -7.599991 2.861023E-05 28.99504
v 7.5999928 2.861023E-05 24.99504
v 7.5999928 0.09999466 24.99504
v -7.599991 0.09999466 24.99504
v -7.599991 2.861023E-05 24.99504
v -7.599991 2.861023E-05 28.99504
v -7.599991 0.09999466 28.99504
v 7.5999928 0.09999466 28.99504
v 7.5999928 2.861023E-05 28.99504
vt 0.78124785 0.96875
vt 0.78124785 0.96875
vt 0.78124785 0.96875
vt 0.78124785 0.96875
vt 0.21639454 0.03095302
vt 0.21639454 0.03095302
vt 0.21639454 0.03095302
vt 0.21639454 0.03095302
vt 0.21639454 0.03095302
vt 0.21639454 0.03095302
vt 0.21639454 0.03095302
vt 0.21639454 0.03095302
vt 0.21639454 0.03095302
vt 0.21639454 0.03095302
vt 0.21639454 0.03095302
vt 0.21639454 0.03095302
vt 0.21639454 0.03095302
vt 0.21639454 0.03095302
vt 0.21639454 0.03095302
vt 0.21639454 0.03095302
vt 0.21639454 0.03095302
vt 0.21639454 0.03095302
vt 0.21639454 0.03095302
vt 0.21639454 0.03095302
vt 0.21639454 0.03095302
vt 0.21639454 0.03095302
vt 0.21639454 0.03095302
vt 0.21639454 0.03095302
vn -0.0009775162 0.9999995 -0
vn -0.0009775162 0.9999995 -0
vn -0.0009775162 0.9999995 -0
vn -0.0009775162 0.9999995 -0
vn -0.0009775162 -0.9999995 -0
vn -0.0009775162 -0.9999995 -0
vn -0.0009775162 -0.9999995 -0
vn -0.0009775162 -0.9999995 -0
vn -0.0009775162 0.9999995 -0
vn -0.0009775162 0.9999995 -0
vn -0.0009775162 0.9999995 -0
vn -0.0009775162 0.9999995 -0
vn 0.9999995 0.0009775162 -0
vn 0.9999995 0.0009775162 -0
vn 0.9999995 0.0009775162 -0
vn 0.9999995 0.0009775162 -0
vn -0.9999995 0.0009775162 -0
vn -0.9999995 0.0009775162 -0
vn -0.9999995 0.0009775162 -0
vn -0.9999995 0.0009775162 -0
vn -0.0009775162 0.0009775162 -0.99999905
vn -0.0009775162 0.0009775162 -0.99999905
vn -0.0009775162 0.0009775162 -0.99999905
vn -0.0009775162 0.0009775162 -0.99999905
vn -0.0009775162 0.0009775162 0.99999905
vn -0.0009775162 0.0009775162 0.99999905
vn -0.0009775162 0.0009775162 0.99999905
vn -0.0009775162 0.0009775162 0.99999905
g store_Tile02_0
f 3/3/3 2/2/2 1/1/1
f 4/4/4 3/3/3 1/1/1
f 7/7/7 6/6/6 5/5/5
f 8/8/8 7/7/7 5/5/5
f 11/11/11 10/10/10 9/9/9
f 12/12/12 11/11/11 9/9/9
f 15/15/15 14/14/14 13/13/13
f 16/16/16 15/15/15 13/13/13
f 19/19/19 18/18/18 17/17/17
f 20/20/20 19/19/19 17/17/17
f 23/23/23 22/22/22 21/21/21
f 24/24/24 23/23/23 21/21/21
f 27/27/27 26/26/26 25/25/25
f 28/28/28 27/27/27 25/25/25
