g tomatoSauce
v -0.49316216 0.72702444 -0.49441266
v -7.915497E-05 0.72702444 -0.6986899
v 0.49441266 0.72702444 -0.49441266
v 0.6986899 0.72702444 7.915497E-05
v -0.69884825 0.72702444 7.915497E-05
v -0.49316216 0.72702444 0.49316216
v 0.49441266 0.72702444 0.49316216
v -7.915497E-05 0.72702444 0.69884825
v 0.49441266 0.5565586 -0.49441266
v -7.915497E-05 0.5565586 -0.6986899
v -0.49316216 0.5565586 -0.49441266
v 0.6986899 0.5565586 7.915497E-05
v -0.69884825 0.5565586 7.915497E-05
v -0.49316216 0.5565586 0.49316216
v 0.49441266 0.5565586 0.49316216
v -7.915497E-05 0.5565586 0.69884825
v -0.24098545 0.031072974 -0.58035
v -7.915497E-05 0.26211756 -0.6634697
v -0.23394138 0.26211756 -0.5662619
v -7.915497E-05 0.031072974 -0.6803754
v -7.915497E-05 -0.19856286 -0.69728106
v 0.23660067 0.031072974 -0.58316755
v 0.24364471 -0.19997168 -0.5972557
v -0.25225592 -0.42960745 -0.6099349
v -7.915497E-05 -0.42960745 -0.7141868
v -0.24662066 -0.19856286 -0.5944381
v 0.24927995 -0.42960745 -0.61134374
v 0.4859598 -0.19997168 -0.49723026
v 0.49863908 -0.42960745 -0.5099095
v 0.47468933 0.031072974 -0.4859598
v 0.46201006 0.26211756 -0.47328052
v 0.23096544 0.26211756 -0.5676707
v -0.49316216 -0.19856286 -0.49300385
v -0.24098545 0.031072974 -0.58035
v -0.48048294 0.031072974 -0.48032457
v -0.58050835 0.031072974 -0.24364471
v -0.48048294 0.031072974 -0.48032457
v -0.4692124 0.26211756 -0.4690541
v -0.5650114 0.26211756 -0.23800948
v -0.67912495 0.031072974 -0.0069648623
v -0.5650114 0.26211756 -0.23800948
v -0.66221917 0.26211756 -0.0069648623
v -0.58050835 0.031072974 -0.24364471
v -0.5945964 -0.19997168 -0.25068876
v -0.48048294 0.031072974 -0.48032457
v -0.49316216 -0.19856286 -0.49300385
v -0.7129363 -0.42960745 -0.0069648623
v -0.6086844 -0.42960745 -0.256324
v -0.6960306 -0.19997168 -0.0069648623
v -0.23394138 0.26211756 -0.5662619
v -0.4692124 0.26211756 -0.4690541
v -0.24098545 0.031072974 -0.58035
v -0.5044327 -0.42960745 -0.5056831
v -0.24662066 -0.19856286 -0.5944381
v -0.25225592 -0.42960745 -0.6099349
v -7.915497E-05 0.031072974 -0.6803754
v -7.915497E-05 -0.19856286 -0.69728106
v 0.23096544 0.26211756 -0.5676707
v -7.915497E-05 0.26211756 -0.6634697
v 0.23660067 0.031072974 -0.58316755
v -7.915497E-05 -0.42960745 -0.7141868
v 0.24364471 -0.19997168 -0.5972557
v 0.24927995 -0.42960745 -0.61134374
v 0.47468933 0.031072974 -0.4859598
v 0.4859598 -0.19997168 -0.49723026
v -0.6960306 -0.19997168 -0.0069648623
v -0.5945964 -0.19997168 -0.25068876
v -0.58050835 0.031072974 -0.24364471
v -0.67912495 0.031072974 -0.0069648623
v -0.6086844 -0.42960745 -0.256324
v -0.5044327 -0.42960745 -0.5056831
v -0.49316216 -0.19856286 -0.49300385
v -0.5945964 -0.19997168 -0.25068876
v 0.6986899 0.72702444 7.915497E-05
v 0.49441266 0.5565586 -0.49441266
v 0.6986899 0.5565586 7.915497E-05
v 0.49441266 0.72702444 -0.49441266
v 0.49441266 0.72702444 0.49316216
v -7.915497E-05 0.5565586 -0.6986899
v 0.49441266 0.5565586 0.49316216
v -7.915497E-05 0.72702444 -0.6986899
v -7.915497E-05 0.72702444 0.69884825
v -0.49316216 0.5565586 -0.49441266
v -7.915497E-05 0.5565586 0.69884825
v -0.49316216 0.72702444 -0.49441266
v -0.49316216 0.72702444 0.49316216
v -0.69884825 0.5565586 7.915497E-05
v -0.49316216 0.5565586 0.49316216
v -0.69884825 0.72702444 7.915497E-05
v -0.49316216 -0.48455098 -0.49441266
v -7.915497E-05 0.57909954 -0.61979663
v -0.4382186 0.57909954 -0.4380603
v -7.915497E-05 -0.48455098 -0.6986899
v 0.4380603 0.57909954 -0.4380603
v -0.69884825 -0.48455098 7.915497E-05
v -0.61995494 0.57909954 7.915497E-05
v 0.49441266 -0.48455098 -0.49441266
v 0.61979663 0.57909954 7.915497E-05
v -0.49316216 -0.48455098 0.49316216
v -0.4382186 0.57909954 0.4382186
v 0.6986899 -0.48455098 7.915497E-05
v 0.4380603 0.57909954 0.4382186
v -7.915497E-05 -0.48455098 0.69884825
v -7.915497E-05 0.57909954 0.61995494
v 0.49441266 -0.48455098 0.49316216
v -0.3607341 -0.6592432 -0.36057582
v -7.915497E-05 -0.6592432 -0.5099095
v 0.36057582 -0.6592432 -0.36057582
v 0.5099095 -0.6592432 7.915497E-05
v -0.508659 -0.6592432 7.915497E-05
v -0.3607341 -0.6592432 0.3607341
v 0.36057582 -0.6592432 0.3607341
v -7.915497E-05 -0.6592432 0.508659
vt 0.15497082 0.4672258
vt 0.15497082 0.4672258
vt 0.15497082 0.4672258
vt 0.15497082 0.4672258
vt 0.15497082 0.4672258
vt 0.15497082 0.4672258
vt 0.15497082 0.4672258
vt 0.15497082 0.4672258
vt 0.15497082 0.4672258
vt 0.15497082 0.4672258
vt 0.15497082 0.4672258
vt 0.15497082 0.4672258
vt 0.15497082 0.4672258
vt 0.15497082 0.4672258
vt 0.15497082 0.4672258
vt 0.15497082 0.4672258
vt 0.0944316 0.84001994
vt 0.0944316 0.84001994
vt 0.0944316 0.84001994
vt 0.0944316 0.84001994
vt 0.0944316 0.84001994
vt 0.0944316 0.84001994
vt 0.0944316 0.84001994
vt 0.0944316 0.84001994
vt 0.0944316 0.84001994
vt 0.0944316 0.84001994
vt 0.0944316 0.84001994
vt 0.0944316 0.84001994
vt 0.0944316 0.84001994
vt 0.0944316 0.84001994
vt 0.0944316 0.84001994
vt 0.0944316 0.84001994
vt 0.0944316 0.84001994
vt 0.0944316 0.84001994
vt 0.0944316 0.84001994
vt 0.0944316 0.84001994
vt 0.0944316 0.84001994
vt 0.0944316 0.84001994
vt 0.0944316 0.84001994
vt 0.5946768 0.027519822
vt 0.5946768 0.027519822
vt 0.5946768 0.027519822
vt 0.5946768 0.027519822
vt 0.5946768 0.027519822
vt 0.5946768 0.027519822
vt 0.5946768 0.027519822
vt 0.5946768 0.027519822
vt 0.5946768 0.027519822
vt 0.5946768 0.027519822
vt 0.5946768 0.027519822
vt 0.5946768 0.027519822
vt 0.5946768 0.027519822
vt 0.5946768 0.027519822
vt 0.5946768 0.027519822
vt 0.5946768 0.027519822
vt 0.5946768 0.027519822
vt 0.5946768 0.027519822
vt 0.5946768 0.027519822
vt 0.5946768 0.027519822
vt 0.5946768 0.027519822
vt 0.5946768 0.027519822
vt 0.5946768 0.027519822
vt 0.5946768 0.027519822
vt 0.5946768 0.027519822
vt 0.5946768 0.027519822
vt 0.0944316 0.84001994
vt 0.0944316 0.84001994
vt 0.0944316 0.84001994
vt 0.0944316 0.84001994
vt 0.0944316 0.84001994
vt 0.0944316 0.84001994
vt 0.0944316 0.84001994
vt 0.0944316 0.84001994
vt 0.15497082 0.4672258
vt 0.15497082 0.4672258
vt 0.15497082 0.4672258
vt 0.15497082 0.4672258
vt 0.15497082 0.4672258
vt 0.15497082 0.4672258
vt 0.15497082 0.4672258
vt 0.15497082 0.4672258
vt 0.15497082 0.4672258
vt 0.15497082 0.4672258
vt 0.15497082 0.4672258
vt 0.15497082 0.4672258
vt 0.15497082 0.4672258
vt 0.15497082 0.4672258
vt 0.15497082 0.4672258
vt 0.15497082 0.4672258
vt 0.21869633 0.84001994
vt 0.21869633 0.84001994
vt 0.21869633 0.84001994
vt 0.21869633 0.84001994
vt 0.21869633 0.84001994
vt 0.21869633 0.84001994
vt 0.21869633 0.84001994
vt 0.21869633 0.84001994
vt 0.21869633 0.84001994
vt 0.21869633 0.84001994
vt 0.21869633 0.84001994
vt 0.21869633 0.84001994
vt 0.21869633 0.84001994
vt 0.21869633 0.84001994
vt 0.21869633 0.84001994
vt 0.21869633 0.84001994
vt 0.21869633 0.84001994
vt 0.21869633 0.84001994
vt 0.21869633 0.84001994
vt 0.21869633 0.84001994
vt 0.21869633 0.84001994
vt 0.21869633 0.84001994
vt 0.21869633 0.84001994
vt 0.21869633 0.84001994
vn -0.015871048 0.999874 -0.00034526698
vn -0.015871048 0.999874 -0.00034526698
vn -0.015871048 0.999874 -0.00034526698
vn -0.015871048 0.999874 -0.00034526698
vn -0.015871048 0.999874 -0.00034526698
vn -0.015871048 0.999874 -0.00034526698
vn -0.015871048 0.999874 -0.00034526698
vn -0.015871048 0.999874 -0.00034526698
vn -0.015871048 -0.999874 -0.00034526698
vn -0.015871048 -0.999874 -0.00034526698
vn -0.015871048 -0.999874 -0.00034526698
vn -0.015871048 -0.999874 -0.00034526698
vn -0.015871048 -0.999874 -0.00034526698
vn -0.015871048 -0.999874 -0.00034526698
vn -0.015871048 -0.999874 -0.00034526698
vn -0.015871048 -0.999874 -0.00034526698
vn -0.39677536 0.07935512 -0.91447914
vn -0.015871048 0.07935512 -0.9967201
vn -0.39677536 0.07935512 -0.91447914
vn -0.015871048 0.07935512 -0.9967201
vn -0.015871048 0.07935512 -0.9967201
vn 0.36503333 0.07935512 -0.9276063
vn 0.36503333 0.07935512 -0.9276063
vn -0.39677536 0.07935512 -0.91447914
vn -0.015871048 0.07935512 -0.9967201
vn -0.39677536 0.07935512 -0.91447914
vn 0.36503333 0.07935512 -0.9276063
vn 0.36503333 0.07935512 -0.9276063
vn 0.36503333 0.07935512 -0.9276063
vn 0.36503333 0.07935512 -0.9276063
vn 0.36503333 0.07935512 -0.9276063
vn 0.36503333 0.07935512 -0.9276063
vn -0.7141957 0.07935512 -0.69543314
vn -0.39677536 0.07935512 -0.91447914
vn -0.7141957 0.07935512 -0.69543314
vn -0.90464795 0.07935512 -0.41870615
vn -0.7141957 0.07935512 -0.69543314
vn -0.7141957 0.07935512 -0.69543314
vn -0.90464795 0.07935512 -0.41870615
vn -0.90464795 0.07935512 -0.41870615
vn -0.90464795 0.07935512 -0.41870615
vn -0.90464795 0.07935512 -0.41870615
vn -0.90464795 0.07935512 -0.41870615
vn -0.9363899 0.07935512 -0.34187227
vn -0.7141957 0.07935512 -0.69543314
vn -0.7141957 0.07935512 -0.69543314
vn -0.9363899 0.07935512 -0.34187227
vn -0.9363899 0.07935512 -0.34187227
vn -0.9363899 0.07935512 -0.34187227
vn -0.39677536 0.07935512 -0.91447914
vn -0.7141957 0.07935512 -0.69543314
vn -0.39677536 0.07935512 -0.91447914
vn -0.7141957 0.07935512 -0.69543314
vn -0.39677536 0.07935512 -0.91447914
vn -0.39677536 0.07935512 -0.91447914
vn -0.015871048 0.07935512 -0.9967201
vn -0.015871048 0.07935512 -0.9967201
vn 0.36503333 0.07935512 -0.9276063
vn -0.015871048 0.07935512 -0.9967201
vn 0.36503333 0.07935512 -0.9276063
vn -0.015871048 0.07935512 -0.9967201
vn 0.36503333 0.07935512 -0.9276063
vn 0.36503333 0.07935512 -0.9276063
vn 0.36503333 0.07935512 -0.9276063
vn 0.36503333 0.07935512 -0.9276063
vn -0.9363899 0.07935512 -0.34187227
vn -0.9363899 0.07935512 -0.34187227
vn -0.90464795 0.07935512 -0.41870615
vn -0.90464795 0.07935512 -0.41870615
vn -0.9363899 0.07935512 -0.34187227
vn -0.7141957 0.07935512 -0.69543314
vn -0.7141957 0.07935512 -0.69543314
vn -0.9363899 0.07935512 -0.34187227
vn 0.999874 0.015871048 -0.00034391563
vn 0.7141957 0.015871048 -0.6997661
vn 0.999874 0.015871048 -0.00034391563
vn 0.7141957 0.015871048 -0.6997661
vn 0.7141957 0.015871048 0.6997661
vn -0.015871048 0.015871048 -0.99974805
vn 0.7141957 0.015871048 0.6997661
vn -0.015871048 0.015871048 -0.99974805
vn -0.015871048 0.015871048 0.99974805
vn -0.7141957 0.015871048 -0.6997661
vn -0.015871048 0.015871048 0.99974805
vn -0.7141957 0.015871048 -0.6997661
vn -0.7141957 0.015871048 0.6997661
vn -0.999874 0.015871048 -0.00034391563
vn -0.7141957 0.015871048 0.6997661
vn -0.999874 0.015871048 -0.00034391563
vn -0.65071166 -0.33329135 -0.68226916
vn -0.015871048 0.07935512 -0.9967201
vn -0.7141957 0.07935512 -0.69543314
vn -0.015871048 -0.33329135 -0.94269025
vn 0.7141957 0.07935512 -0.69543314
vn -0.9363899 -0.33329135 -0.109958015
vn -0.9968654 0.079116344 -0
vn 0.65071166 -0.33329135 -0.68226916
vn 0.9968654 0.079116344 -0
vn -0.65071166 -0.33329135 0.68226916
vn -0.7141957 0.07935512 0.69543314
vn 0.9363899 -0.33329135 -0.109958015
vn 0.7141957 0.07935512 0.69543314
vn -0.015871048 -0.33329135 0.94269025
vn -0.015871048 0.07935512 0.9967201
vn 0.65071166 -0.33329135 0.68226916
vn -0.30154932 -0.9046479 -0.30113152
vn -0.015871048 -0.9046479 -0.4258642
vn 0.30154932 -0.9046479 -0.30113152
vn 0.42808634 -0.90373784 -0
vn -0.4280864 -0.90373784 -0
vn -0.30154932 -0.9046479 0.30113152
vn 0.30154932 -0.9046479 0.30113152
vn -0.015871048 -0.9046479 0.4258642
g tomatoSauce_0
f 3/3/3 2/2/2 1/1/1
f 1/1/1 4/4/4 3/3/3
f 1/1/1 5/5/5 4/4/4
f 5/5/5 6/6/6 4/4/4
f 6/6/6 7/7/7 4/4/4
f 6/6/6 8/8/8 7/7/7
f 11/11/11 10/10/10 9/9/9
f 9/9/9 12/12/12 11/11/11
f 12/12/12 13/13/13 11/11/11
f 12/12/12 14/14/14 13/13/13
f 12/12/12 15/15/15 14/14/14
f 15/15/15 16/16/16 14/14/14
f 19/19/19 18/18/18 17/17/17
f 18/18/18 20/20/20 17/17/17
f 20/20/20 22/22/22 21/21/21
f 22/22/22 23/23/23 21/21/21
f 21/21/21 25/25/25 24/24/24
f 26/26/26 21/21/21 24/24/24
f 23/23/23 28/28/28 27/27/27
f 28/28/28 29/29/29 27/27/27
f 31/31/31 30/30/30 22/22/22
f 32/32/32 31/31/31 22/22/22
f 34/34/34 26/26/26 33/33/33
f 35/35/35 34/34/34 33/33/33
f 38/38/38 37/37/37 36/36/36
f 39/39/39 38/38/38 36/36/36
f 42/42/42 41/41/41 40/40/40
f 41/41/41 43/43/43 40/40/40
f 43/43/43 45/45/45 44/44/44
f 45/45/45 46/46/46 44/44/44
f 44/44/44 48/48/48 47/47/47
f 49/49/49 44/44/44 47/47/47
f 51/51/51 50/50/50 45/45/45
f 50/50/50 52/52/52 45/45/45
f 46/46/46 54/54/54 53/53/53
f 54/54/54 55/55/55 53/53/53
f 52/52/52 56/56/56 54/54/54
f 56/56/56 57/57/57 54/54/54
f 59/59/59 58/58/58 56/56/56
f 58/58/58 60/60/60 56/56/56
f 57/57/57 62/62/62 61/61/61
f 62/62/62 63/63/63 61/61/61
f 60/60/60 64/64/64 62/62/62
f 64/64/64 65/65/65 62/62/62
f 68/68/68 67/67/67 66/66/66
f 69/69/69 68/68/68 66/66/66
f 72/72/72 71/71/71 70/70/70
f 73/73/73 72/72/72 70/70/70
f 76/76/76 75/75/75 74/74/74
f 75/75/75 77/77/77 74/74/74
f 76/76/76 74/74/74 78/78/78
f 75/75/75 79/79/79 77/77/77
f 80/80/80 76/76/76 78/78/78
f 79/79/79 81/81/81 77/77/77
f 80/80/80 78/78/78 82/82/82
f 79/79/79 83/83/83 81/81/81
f 84/84/84 80/80/80 82/82/82
f 83/83/83 85/85/85 81/81/81
f 84/84/84 82/82/82 86/86/86
f 83/83/83 87/87/87 85/85/85
f 88/88/88 84/84/84 86/86/86
f 87/87/87 89/89/89 85/85/85
f 88/88/88 86/86/86 89/89/89
f 87/87/87 88/88/88 89/89/89
f 92/92/92 91/91/91 90/90/90
f 91/91/91 93/93/93 90/90/90
f 91/91/91 94/94/94 93/93/93
f 92/92/92 90/90/90 95/95/95
f 96/96/96 92/92/92 95/95/95
f 94/94/94 97/97/97 93/93/93
f 94/94/94 98/98/98 97/97/97
f 96/96/96 95/95/95 99/99/99
f 100/100/100 96/96/96 99/99/99
f 98/98/98 101/101/101 97/97/97
f 98/98/98 102/102/102 101/101/101
f 100/100/100 99/99/99 103/103/103
f 104/104/104 100/100/100 103/103/103
f 102/102/102 104/104/104 105/105/105
f 102/102/102 105/105/105 101/101/101
f 104/104/104 103/103/103 105/105/105
f 90/90/90 106/106/106 95/95/95
f 93/93/93 107/107/107 90/90/90
f 107/107/107 106/106/106 90/90/90
f 108/108/108 107/107/107 93/93/93
f 97/97/97 108/108/108 93/93/93
f 106/106/106 107/107/107 108/108/108
f 109/109/109 108/108/108 97/97/97
f 101/101/101 109/109/109 97/97/97
f 108/108/108 109/109/109 106/106/106
f 106/106/106 110/110/110 95/95/95
f 95/95/95 110/110/110 99/99/99
f 109/109/109 110/110/110 106/106/106
f 110/110/110 111/111/111 99/99/99
f 99/99/99 111/111/111 103/103/103
f 109/109/109 111/111/111 110/110/110
f 112/112/112 109/109/109 101/101/101
f 105/105/105 112/112/112 101/101/101
f 109/109/109 112/112/112 111/111/111
f 103/103/103 113/113/113 105/105/105
f 111/111/111 113/113/113 103/103/103
f 113/113/113 112/112/112 105/105/105
f 112/112/112 113/113/113 111/111/111
