g Tortoise_LOD2
v 0.2806873 -1.0455027 0.5420303
v 0.2586476 -1.041547 0.6743565
v 0.26639685 -0.9513302 0.6299944
v 0.2806873 -1.0455027 0.5420303
v 0.25923803 -1.1340637 0.63426524
v 0.2586476 -1.041547 0.6743565
v 0.2806873 -1.0455027 0.5420303
v 0.2665615 -1.1789457 0.5442704
v 0.25923803 -1.1340637 0.63426524
v 0.2806873 -1.0455027 0.5420303
v 0.2772074 -1.1390207 0.4522936
v 0.2665615 -1.1789457 0.5442704
v 0.2806873 -1.0455027 0.5420303
v 0.28495654 -1.048804 0.40793175
v 0.2772074 -1.1390207 0.4522936
v 0.2806873 -1.0455027 0.5420303
v 0.28436613 -0.9562871 0.4480229
v 0.28495654 -1.048804 0.40793175
v 0.2806873 -1.0455027 0.5420303
v 0.27704266 -0.9114052 0.53801745
v 0.28436613 -0.9562871 0.4480229
v 0.2806873 -1.0455027 0.5420303
v 0.26639685 -0.9513302 0.6299944
v 0.27704266 -0.9114052 0.53801745
v -0.28068736 -1.0455027 0.5420303
v -0.2663969 -0.9513302 0.6299944
v -0.25864765 -1.041547 0.6743565
v -0.28068736 -1.0455027 0.5420303
v -0.25864765 -1.041547 0.6743565
v -0.2592381 -1.1340637 0.63426524
v -0.28068736 -1.0455027 0.5420303
v -0.2592381 -1.1340637 0.63426524
v -0.26656157 -1.1789457 0.5442704
v -0.28068736 -1.0455027 0.5420303
v -0.26656157 -1.1789457 0.5442704
v -0.27720746 -1.1390207 0.4522936
v -0.28068736 -1.0455027 0.5420303
v -0.27720746 -1.1390207 0.4522936
v -0.2849566 -1.048804 0.40793175
v -0.28068736 -1.0455027 0.5420303
v -0.2849566 -1.048804 0.40793175
v -0.2843662 -0.9562871 0.4480229
v -0.28068736 -1.0455027 0.5420303
v -0.2843662 -0.9562871 0.4480229
v -0.27704272 -0.9114052 0.53801745
v -0.28068736 -1.0455027 0.5420303
v -0.27704272 -0.9114052 0.53801745
v -0.2663969 -0.9513302 0.6299944
v -0.5461866 0.44118047 0.9791889
v -0.6263056 0.4725627 0.85927296
v -0.55027735 0.6038057 0.82558465
v -0.4986396 0.55642897 0.9332875
v -0.4086458 0.46065292 1.0761123
v -0.40746763 0.67861456 0.8632467
v -0.37201223 0.5982125 0.9871791
v 0.37201217 0.5982125 0.9871791
v 0.40746757 0.67861456 0.8632467
v 0.5502773 0.6038057 0.8255845
v 0.49863955 0.5564289 0.93328726
v 0.62630564 0.4725627 0.859273
v 0.54618657 0.44118053 0.9791889
v 0.40864572 0.4606529 1.0761123
v 0.5521393 -0.33015355 0.9776293
v 0.623426 -0.36427745 0.8637922
v 0.5473022 -0.4950659 0.8350841
v 0.5019508 -0.44810435 0.93571687
v 0.4128654 -0.35033476 1.0763017
v 0.41523203 -0.57062286 0.86147135
v 0.3815058 -0.48942423 0.98711205
v -0.38150585 -0.48942423 0.9871121
v -0.41523206 -0.5706228 0.86147135
v -0.5473022 -0.4950659 0.835084
v -0.5019509 -0.44810438 0.93571687
v -0.5521392 -0.33015355 0.9776293
v -0.41286552 -0.3503348 1.0763018
v -0.6234261 -0.36427745 0.8637922
v 0.6720669 -0.40194935 0.41496158
v 0.476776 -0.41255683 0.34654358
v 0.45177314 -0.619838 0.4167582
v 0.60907316 -0.5484771 0.4493492
v 0.7318995 -0.41198134 0.51515734
v 0.6221302 -0.558345 0.529423
v 0.6720669 -0.40194935 0.41496158
v 0.8318526 -0.14016204 0.5286419
v 0.74673146 -0.12392715 0.38943422
v 0.476776 -0.41255683 0.34654358
v 0.56498975 -0.12956467 0.3040518
v 0.5632163 0.24250613 0.30507088
v 0.7462544 0.23384166 0.38957042
v 0.6695403 0.51304966 0.41463855
v 0.46967128 0.53101474 0.3486259
v 0.8335532 0.2401931 0.52859366
v 0.8318526 -0.14016204 0.5286419
v 0.73125905 0.51932836 0.5110474
v 0.6695403 0.51304966 0.41463855
v 0.629264 0.66094285 0.5304557
v 0.6101386 0.6537652 0.44927934
v 0.6101386 0.6537652 0.44927934
v 0.46967128 0.53101474 0.3486259
v 0.4522892 0.725908 0.41710523
v 0.4557879 0.79476094 0.53154856
v 0.629264 0.66094285 0.5304557
v 0.4522892 0.725908 0.41710523
v 0.14142762 0.90014267 0.5253779
v 0.14641291 0.7994676 0.38515106
v 0.16632023 0.60520685 0.29524037
v 0.46967128 0.53101474 0.3486259
v -0.1663203 0.60520685 0.29524037
v -0.14641297 0.7994676 0.38515106
v -0.46967134 0.5310148 0.3486259
v -0.14142768 0.90014267 0.52537787
v 0.14142762 0.90014267 0.5253779
v -0.45228925 0.725908 0.41710523
v -0.6695404 0.5130497 0.41463858
v -0.6101386 0.65376526 0.44927937
v -0.62926406 0.6609428 0.5304557
v -0.4557879 0.794761 0.53154856
v -0.6005379 0.66026926 0.62962604
v -0.14142768 0.90014267 0.52537787
v -0.44121802 0.77462614 0.65426314
v -0.15597479 0.881826 0.63959557
v -0.12572435 0.6451455 1.0263954
v 0.14115766 0.49903333 1.144647
v -0.14115772 0.49903336 1.144647
v 0.12572429 0.6451455 1.0263953
v 0.11683448 0.7489787 0.9042642
v -0.116834536 0.7489788 0.9042642
v -0.1784677 -0.13852443 0.22595812
v -0.5649897 -0.12956467 0.30405185
v -0.47677606 -0.41255683 0.34654358
v -0.16649923 -0.49477863 0.2941964
v -0.19323838 0.2441913 1.2226722
v 0.19323832 0.2441913 1.2226721
v 0.19487344 -0.12699305 1.2258519
v -0.19487351 -0.12699305 1.2258519
v 0.12964779 -0.54571515 1.0172278
v 0.14324035 -0.39016426 1.1444279
v 0.4128654 -0.35033476 1.0763017
v 0.3815058 -0.48942423 0.98711205
v 0.46219742 -0.10047357 1.1356635
v 0.5521393 -0.33015355 0.9776293
v 0.6072245 -0.09301427 1.0147475
v 0.40864572 0.4606529 1.0761123
v 0.14115766 0.49903333 1.144647
v 0.12572429 0.6451455 1.0263953
v 0.37201217 0.5982125 0.9871791
v 0.54618657 0.44118053 0.9791889
v 0.6010262 0.20103952 1.02163
v 0.4600492 0.21144994 1.1362114
v 0.46967128 0.53101474 0.3486259
v 0.16632023 0.60520685 0.29524037
v 0.1777567 0.25282985 0.22734073
v 0.5632163 0.24250613 0.30507088
v 0.17846765 -0.13852443 0.22595812
v 0.56498975 -0.12956467 0.3040518
v 0.5632163 0.24250613 0.30507088
v 0.1777567 0.25282985 0.22734073
v -0.16649923 -0.49477863 0.2941964
v 0.16649917 -0.49477863 0.29419637
v -0.1784677 -0.13852443 0.22595812
v 0.16632023 0.60520685 0.29524037
v -0.17775674 0.25282982 0.22734073
v -0.1663203 0.60520685 0.29524037
v -0.5649897 -0.12956467 0.30405185
v -0.5632163 0.24250615 0.30507088
v -0.6072245 -0.09301426 1.0147475
v -0.46004927 0.21144994 1.1362114
v -0.46219742 -0.10047357 1.1356634
v -0.6010261 0.20103952 1.0216302
v -0.7043014 0.19107896 0.89739627
v -0.71038896 -0.07856587 0.891551
v 0.4600492 0.21144994 1.1362114
v 0.6072245 -0.09301427 1.0147475
v 0.46219742 -0.10047357 1.1356635
v 0.6010262 0.20103952 1.02163
v 0.710389 -0.078565866 0.891551
v 0.7043014 0.19107896 0.8973962
v -0.38150585 -0.48942423 0.9871121
v -0.14324039 -0.39016423 1.1444279
v -0.12964785 -0.54571515 1.0172278
v -0.41286552 -0.3503348 1.0763018
v -0.6072245 -0.09301426 1.0147475
v -0.46219742 -0.10047357 1.1356634
v -0.5521392 -0.33015355 0.9776293
v -0.14115772 0.49903336 1.144647
v -0.37201223 0.5982125 0.9871791
v -0.12572435 0.6451455 1.0263954
v -0.4086458 0.46065292 1.0761123
v -0.5461866 0.44118047 0.9791889
v -0.46004927 0.21144994 1.1362114
v -0.6010261 0.20103952 1.0216302
v 0.56498975 -0.12956467 0.3040518
v 0.17846765 -0.13852443 0.22595812
v 0.16649917 -0.49477863 0.29419637
v 0.476776 -0.41255683 0.34654358
v 0.1777567 0.25282985 0.22734073
v -0.17775674 0.25282982 0.22734073
v -0.1784677 -0.13852443 0.22595812
v 0.17846765 -0.13852443 0.22595812
v -0.19487351 -0.12699305 1.2258519
v 0.19487344 -0.12699305 1.2258519
v 0.14324035 -0.39016426 1.1444279
v -0.14324039 -0.39016423 1.1444279
v 0.19487344 -0.12699305 1.2258519
v 0.4128654 -0.35033476 1.0763017
v 0.46219742 -0.10047357 1.1356635
v -0.13904382 -0.7835996 0.6345378
v -0.116137885 -0.6556683 0.8899734
v 0.116137825 -0.6556683 0.8899734
v 0.13904375 -0.7835996 0.6345379
v -0.12124319 -0.80064374 0.5231514
v 0.12124312 -0.80064374 0.5231514
v 0.45177314 -0.619838 0.4167582
v 0.476776 -0.41255683 0.34654358
v 0.16649917 -0.49477863 0.29419637
v 0.14214621 -0.6962469 0.38482824
v 0.44589096 -0.69399875 0.5292461
v 0.12124312 -0.80064374 0.5231514
v -0.14214624 -0.6962468 0.3848282
v -0.16649923 -0.49477863 0.2941964
v -0.47677606 -0.41255683 0.34654358
v -0.45177317 -0.619838 0.4167582
v -0.12124319 -0.80064374 0.5231514
v -0.445891 -0.69399875 0.5292461
v 0.12124312 -0.80064374 0.5231514
v 0.14214621 -0.6962469 0.38482824
v -0.12124319 -0.80064374 0.5231514
v 0.6221302 -0.558345 0.529423
v 0.44589096 -0.69399875 0.5292461
v 0.5879551 -0.564884 0.62366027
v 0.42966798 -0.6787207 0.6450897
v 0.13904375 -0.7835996 0.6345379
v -0.445891 -0.69399875 0.5292461
v -0.60907316 -0.54847723 0.4493492
v -0.6221303 -0.55834496 0.5294231
v -0.47677606 -0.41255683 0.34654358
v -0.60907316 -0.54847723 0.4493492
v -0.67206687 -0.40194935 0.41496155
v -0.5649897 -0.12956467 0.30405185
v -0.7318994 -0.41198134 0.51515734
v -0.6221303 -0.55834496 0.5294231
v -0.74673146 -0.12392715 0.38943422
v -0.5632163 0.24250615 0.30507088
v -0.8318526 -0.14016204 0.52864194
v -0.7462543 0.23384166 0.38957036
v -0.8335533 0.2401931 0.52859354
v -0.46967134 0.5310148 0.3486259
v -0.6695404 0.5130497 0.41463858
v -0.8335533 0.2401931 0.52859354
v -0.73125905 0.51932836 0.5110474
v -0.6010261 0.20103952 1.0216302
v -0.7043014 0.19107896 0.89739627
v -0.6263056 0.4725627 0.85927296
v -0.5461866 0.44118047 0.9791889
v -0.42966804 -0.6787207 0.6450896
v -0.6221303 -0.55834496 0.5294231
v -0.58795506 -0.564884 0.6236603
v -0.445891 -0.69399875 0.5292461
v -0.13904382 -0.7835996 0.6345378
v -0.12124319 -0.80064374 0.5231514
v -0.5521392 -0.33015355 0.9776293
v -0.6234261 -0.36427745 0.8637922
v -0.71038896 -0.07856587 0.891551
v -0.6072245 -0.09301426 1.0147475
v 0.12964779 -0.54571515 1.0172278
v 0.116137825 -0.6556683 0.8899734
v -0.116137885 -0.6556683 0.8899734
v -0.12964785 -0.54571515 1.0172278
v -0.14324039 -0.39016423 1.1444279
v 0.14324035 -0.39016426 1.1444279
v -0.5473022 -0.4950659 0.835084
v -0.42966804 -0.6787207 0.6450896
v -0.58795506 -0.564884 0.6236603
v -0.41523206 -0.5706228 0.86147135
v -0.116137885 -0.6556683 0.8899734
v -0.13904382 -0.7835996 0.6345378
v 0.41523203 -0.57062286 0.86147135
v 0.13904375 -0.7835996 0.6345379
v 0.116137825 -0.6556683 0.8899734
v 0.42966798 -0.6787207 0.6450897
v 0.5473022 -0.4950659 0.8350841
v 0.5879551 -0.564884 0.62366027
v 0.623426 -0.36427745 0.8637922
v 0.7156037 -0.40765756 0.62961984
v 0.710389 -0.078565866 0.891551
v 0.82704055 -0.11407655 0.6445493
v 0.7043014 0.19107896 0.8973962
v 0.82480145 0.21708618 0.6518085
v 0.7156037 -0.40765756 0.62961984
v 0.6221302 -0.558345 0.529423
v 0.5879551 -0.564884 0.62366027
v 0.7318995 -0.41198134 0.51515734
v 0.82704055 -0.11407655 0.6445493
v 0.8318526 -0.14016204 0.5286419
v 0.82480145 0.21708618 0.6518085
v 0.8335532 0.2401931 0.52859366
v 0.8318526 -0.14016204 0.5286419
v 0.82704055 -0.11407655 0.6445493
v 0.60053796 0.6602692 0.6296259
v 0.629264 0.66094285 0.5304557
v 0.73125905 0.51932836 0.5110474
v 0.7160719 0.51620835 0.6293773
v 0.5502773 0.6038057 0.8255845
v 0.8335532 0.2401931 0.52859366
v 0.62630564 0.4725627 0.859273
v 0.82480145 0.21708618 0.6518085
v 0.7043014 0.19107896 0.8973962
v -0.37201223 0.5982125 0.9871791
v -0.40746763 0.67861456 0.8632467
v -0.116834536 0.7489788 0.9042642
v -0.12572435 0.6451455 1.0263954
v 0.15597473 0.88182604 0.63959545
v 0.11683448 0.7489787 0.9042642
v -0.116834536 0.7489788 0.9042642
v -0.15597479 0.881826 0.63959557
v 0.14142762 0.90014267 0.5253779
v -0.14142768 0.90014267 0.52537787
v 0.441218 0.774626 0.65426314
v 0.60053796 0.6602692 0.6296259
v 0.4557879 0.79476094 0.53154856
v 0.15597473 0.88182604 0.63959545
v 0.14142762 0.90014267 0.5253779
v -0.12964785 -0.54571515 1.0172278
v -0.116137885 -0.6556683 0.8899734
v -0.41523206 -0.5706228 0.86147135
v -0.38150585 -0.48942423 0.9871121
v 0.3815058 -0.48942423 0.98711205
v 0.41523203 -0.57062286 0.86147135
v 0.116137825 -0.6556683 0.8899734
v 0.12964779 -0.54571515 1.0172278
v 0.60053796 0.6602692 0.6296259
v 0.5502773 0.6038057 0.8255845
v 0.40746757 0.67861456 0.8632467
v 0.441218 0.774626 0.65426314
v 0.11683448 0.7489787 0.9042642
v 0.15597473 0.88182604 0.63959545
v -0.40746763 0.67861456 0.8632467
v -0.15597479 0.881826 0.63959557
v -0.116834536 0.7489788 0.9042642
v -0.44121802 0.77462614 0.65426314
v -0.55027735 0.6038057 0.82558465
v -0.6005379 0.66026926 0.62962604
v -0.82480156 0.21708618 0.6518085
v -0.7043014 0.19107896 0.89739627
v -0.71038896 -0.07856587 0.891551
v -0.82704043 -0.11407655 0.6445493
v -0.73125905 0.51932836 0.5110474
v -0.6695404 0.5130497 0.41463858
v -0.6101386 0.65376526 0.44927937
v -0.62926406 0.6609428 0.5304557
v 0.6072245 -0.09301427 1.0147475
v 0.710389 -0.078565866 0.891551
v 0.623426 -0.36427745 0.8637922
v 0.5521393 -0.33015355 0.9776293
v -0.82704043 -0.11407655 0.6445493
v -0.8318526 -0.14016204 0.52864194
v -0.8335533 0.2401931 0.52859354
v -0.82480156 0.21708618 0.6518085
v 0.54618657 0.44118053 0.9791889
v 0.62630564 0.4725627 0.859273
v 0.7043014 0.19107896 0.8973962
v 0.6010262 0.20103952 1.02163
v -0.6005379 0.66026926 0.62962604
v -0.55027735 0.6038057 0.82558465
v -0.6263056 0.4725627 0.85927296
v -0.71607196 0.51620835 0.6293773
v -0.62926406 0.6609428 0.5304557
v -0.7043014 0.19107896 0.89739627
v -0.73125905 0.51932836 0.5110474
v -0.82480156 0.21708618 0.6518085
v -0.8335533 0.2401931 0.52859354
v -0.6234261 -0.36427745 0.8637922
v -0.82704043 -0.11407655 0.6445493
v -0.71038896 -0.07856587 0.891551
v -0.7156037 -0.4076576 0.6296198
v -0.8318526 -0.14016204 0.52864194
v -0.7318994 -0.41198134 0.51515734
v -0.6221303 -0.55834496 0.5294231
v -0.58795506 -0.564884 0.6236603
v -0.5473022 -0.4950659 0.835084
v 0.46219742 -0.10047357 1.1356635
v 0.19487344 -0.12699305 1.2258519
v 0.19323832 0.2441913 1.2226721
v 0.4600492 0.21144994 1.1362114
v 0.14115766 0.49903333 1.144647
v 0.40864572 0.4606529 1.0761123
v 0.19323832 0.2441913 1.2226721
v -0.14115772 0.49903336 1.144647
v -0.19323838 0.2441913 1.2226722
v -0.4086458 0.46065292 1.0761123
v -0.46004927 0.21144994 1.1362114
v -0.19487351 -0.12699305 1.2258519
v -0.46219742 -0.10047357 1.1356634
v -0.14324039 -0.39016423 1.1444279
v -0.41286552 -0.3503348 1.0763018
v 0.30908358 0.564597 0.29885927
v 0.31518036 0.5645969 0.16906641
v 0.39800087 0.6474174 0.16906641
v 0.39800087 0.6535144 0.29885924
v 0.48082143 0.56459695 0.16906641
v 0.48691827 0.564597 0.2988513
v 0.39800087 0.48177645 0.16906513
v 0.3980009 0.47567964 0.29881963
v 0.30908358 0.564597 0.29885927
v 0.31518036 0.5645969 0.16906641
v 0.3024325 0.56459695 0.563609
v 0.3980009 0.47567964 0.29881963
v 0.3980009 0.46902865 0.5634018
v 0.49356937 0.5645969 0.5635613
v 0.48691827 0.564597 0.2988513
v 0.39800087 0.6535144 0.29885924
v 0.3980009 0.6601654 0.563609
v 0.30908358 0.564597 0.29885927
v 0.3024325 0.56459695 0.563609
v 0.34488025 0.56431127 0.03737453
v 0.39827022 0.61794364 0.03737454
v 0.39800087 0.6474174 0.16906641
v 0.39800087 0.48177645 0.16906513
v 0.4518501 0.5643113 0.03737453
v 0.3997893 0.5086147 0.037374534
v 0.48082143 0.56459695 0.16906641
v -0.1663203 0.60520685 0.29524037
v -0.46967134 0.5310148 0.3486259
v -0.5632163 0.24250615 0.30507088
v -0.17775674 0.25282982 0.22734073
v 0.05050211 0.68310076 0.34870684
v 0.06723513 0.69855255 0.35518953
v 0.0617245 0.7190158 0.31937972
v 0.049097646 0.7073558 0.31448793
v 0.03257772 0.6938149 0.35162088
v 0.049097646 0.7073558 0.31448793
v 0.036221392 0.71907073 0.3124672
v 0.0019828991 0.7507747 0.31436247
v 0.00203708 0.7203218 0.35919335
v 0.052576855 0.7341739 0.31880352
v 0.0617245 0.7190158 0.31937972
v 0.049097646 0.7073558 0.31448793
v 0.02427951 0.7713477 0.32304674
v -0.02871449 0.6950672 0.35145754
v 0.0019828991 0.7507747 0.31436247
v -0.03237697 0.72067255 0.31223324
v -0.047499366 0.68457466 0.34821004
v -0.0459264 0.7090786 0.3140734
v -0.020420067 0.77189875 0.32276753
v -0.0587876 0.7219449 0.31907886
v -0.048903614 0.7369816 0.318613
v -0.05352344 0.7196046 0.36092755
v -0.027532844 0.7483515 0.37031588
v -0.06459987 0.7018013 0.35481232
v -0.0587876 0.7219449 0.31907886
v -0.047499366 0.68457466 0.34821004
v -0.0459264 0.7090786 0.3140734
v -0.05334311 0.77500993 0.38392434
v -0.020420067 0.77189875 0.32276753
v -0.04907664 0.79917085 0.34436125
v -0.06345051 0.7901494 0.39125475
v -0.058175746 0.80781275 0.3544348
v -0.04652136 0.8185748 0.35894984
v -0.03375622 0.81331825 0.35029653
v 0.0015108 0.7921344 0.3313086
v -0.020420067 0.77189875 0.32276753
v 0.0015108 0.7921344 0.3313086
v 0.02427951 0.7713477 0.32304674
v 0.034675002 0.8140959 0.35117546
v 0.05221743 0.7987229 0.34519565
v 0.046913255 0.81951976 0.36012203
v 0.04784085 0.80563223 0.39838073
v 0.03069028 0.79736763 0.39357457
v 0.0015108 0.7921344 0.3313086
v 0.0013755538 0.77504563 0.38152277
v -0.030378241 0.79621655 0.39282122
v -0.03375622 0.81331825 0.35029653
v -0.048100665 0.804324 0.39720157
v 0.060737114 0.8075414 0.35549283
v 0.057045422 0.77425057 0.3847334
v 0.06631472 0.78967136 0.39232096
v 0.03157934 0.74759823 0.37065625
v 0.057116944 0.71647507 0.3611278
v 0.052576855 0.7341739 0.31880352
v 0.0617245 0.7190158 0.31937972
v 0.06723513 0.69855255 0.35518953
v -0.06345051 0.7901494 0.39125475
v -0.058175746 0.80781275 0.3544348
v -0.04652136 0.8185748 0.35894984
v 0.046913255 0.81951976 0.36012203
v 0.060737114 0.8075414 0.35549283
v 0.04784085 0.80563223 0.39838073
v 0.12572429 0.6451455 1.0263953
v 0.11683448 0.7489787 0.9042642
v 0.40746757 0.67861456 0.8632467
v 0.37201217 0.5982125 0.9871791
v 0.39920884 0.5638413 0.016414665
v 0.4518501 0.5643113 0.03737453
v 0.39827022 0.61794364 0.03737454
v 0.34488025 0.56431127 0.03737453
v 0.3997893 0.5086147 0.037374534
v -0.39921808 0.5638418 0.016414665
v -0.3982726 0.6179438 0.03737454
v -0.45185247 0.56431144 0.03737453
v -0.39979166 0.50861484 0.03737453
v -0.34488264 0.5643114 0.03737453
v -0.39922228 -0.5513194 0.01641453
v -0.39827365 -0.49721712 0.037362456
v -0.4518535 -0.55084944 0.0373744
v -0.34488365 -0.55084944 0.037371755
v -0.3997927 -0.6065461 0.037374396
v 0.39921802 -0.5513171 0.01641453
v 0.39827254 -0.49721652 0.037362456
v 0.34488252 -0.55084884 0.03737176
v 0.3997916 -0.6065455 0.037374396
v 0.4518524 -0.55084884 0.0373744
v -0.39800096 0.47567964 0.2988197
v -0.48691833 0.564597 0.2988513
v -0.49356943 0.5645969 0.5635613
v -0.39800096 0.6535144 0.2988593
v -0.39800096 0.46902865 0.5634018
v -0.39800096 0.6601654 0.563609
v -0.30243257 0.56459695 0.563609
v -0.30908364 0.564597 0.2988593
v -0.39800096 -0.6394812 0.2980276
v -0.48691833 -0.55056375 0.2964067
v -0.49356943 -0.5505638 0.5628478
v -0.39800096 -0.46164653 0.293626
v -0.39800096 -0.6461321 0.5635115
v -0.39800096 -0.4549955 0.5618244
v -0.30243257 -0.5505639 0.56296515
v -0.30908364 -0.55056375 0.29554972
v 0.3980009 -0.63948107 0.29802763
v 0.49356937 -0.5505638 0.5628478
v 0.48691827 -0.55056375 0.2964067
v 0.39800087 -0.46164653 0.293626
v 0.3980009 -0.6461321 0.5635115
v 0.3980009 -0.4549955 0.5618244
v 0.30908358 -0.55056375 0.29554966
v 0.3024325 -0.5505639 0.56296515
v -0.289035 -1.0459411 0.43835998
v -0.2884567 -0.9732952 0.46959144
v -0.28551468 -1.0437007 0.54335207
v -0.28306437 -1.116608 0.47335756
v -0.2826536 -0.9378988 0.5400608
v -0.27477694 -1.1477369 0.5450051
v -0.27425474 -0.9693969 0.61269265
v -0.26888865 -1.1127225 0.61567014
v -0.2682614 -1.0402467 0.64729345
v 0.28903493 -1.0459411 0.43835998
v 0.28551462 -1.0437007 0.54335207
v 0.28845665 -0.9732952 0.46959144
v 0.2830643 -1.116608 0.47335756
v 0.28265354 -0.9378988 0.5400608
v 0.27477688 -1.1477369 0.5450051
v 0.27425468 -0.9693969 0.61269265
v 0.2688886 -1.1127225 0.61567014
v 0.26826134 -1.0402467 0.64729345
v -0.34488264 0.5643114 0.03737453
v -0.39979166 0.50861484 0.03737453
v -0.39800093 0.48177645 0.16906515
v -0.45185247 0.56431144 0.03737453
v -0.3151804 0.5645969 0.16906641
v -0.4808215 0.56459695 0.16906641
v -0.3982726 0.6179438 0.03737454
v -0.39800093 0.64741737 0.16906643
v -0.34488365 -0.55084944 0.037371755
v -0.3997927 -0.6065461 0.037374396
v -0.39800093 -0.6333844 0.16881318
v -0.4518535 -0.55084944 0.0373744
v -0.3151804 -0.5505638 0.16713059
v -0.4808215 -0.5505638 0.16817039
v -0.39827365 -0.49721712 0.037362456
v -0.39800093 -0.4677433 0.16592151
v 0.39800087 -0.6333844 0.16881318
v 0.31518036 -0.5505638 0.16713056
v 0.30908358 -0.55056375 0.29554966
v 0.39800087 -0.4677433 0.16592151
v 0.3980009 -0.63948107 0.29802763
v 0.39800087 -0.46164653 0.293626
v 0.48691827 -0.55056375 0.2964067
v 0.48082143 -0.5505638 0.16817039
v 0.052725684 0.95192444 0.38192284
v -2.6927916E-08 0.81116754 0.48968345
v 0.07847524 0.852465 0.5169153
v -2.6927916E-08 0.8937349 0.5441545
v -2.6927916E-08 0.9246253 0.362396
v -0.0784753 0.852465 0.5169153
v -2.5996593E-08 0.9793759 0.40112716
v -0.052725736 0.95192444 0.3819229
v 0.030362599 0.9979087 0.3194736
v -2.6462255E-08 1.0147568 0.330988
v -2.6927916E-08 0.9817625 0.30682695
v -0.03036265 0.9979089 0.31947362
v -2.6927916E-08 1.0153803 0.295044
v -0.39800093 0.64741737 0.16906643
v -0.48691833 0.564597 0.2988513
v -0.4808215 0.56459695 0.16906641
v -0.39800096 0.6535144 0.2988593
v -0.39800096 0.47567964 0.2988197
v -0.3151804 0.5645969 0.16906641
v -0.39800093 0.48177645 0.16906515
v -0.30908364 0.564597 0.2988593
v -0.39800093 -0.4677433 0.16592151
v -0.48691833 -0.55056375 0.2964067
v -0.4808215 -0.5505638 0.16817039
v -0.39800096 -0.46164653 0.293626
v -0.39800096 -0.6394812 0.2980276
v -0.3151804 -0.5505638 0.16713059
v -0.39800093 -0.6333844 0.16881318
v -0.30908364 -0.55056375 0.29554972
v 0.39800087 -0.4677433 0.16592151
v 0.4518524 -0.55084884 0.0373744
v 0.48082143 -0.5505638 0.16817039
v 0.39827254 -0.49721652 0.037362456
v 0.3997916 -0.6065455 0.037374396
v 0.31518036 -0.5505638 0.16713056
v 0.39800087 -0.6333844 0.16881318
v 0.34488252 -0.55084884 0.03737176
v -0.24308534 -0.93239856 0.42028022
v -0.2843662 -0.9562871 0.4480229
v -0.2849566 -1.048804 0.40793175
v -0.24382353 -1.0480757 0.3701529
v -0.23392867 -0.8762812 0.5328033
v -0.27720746 -1.1390207 0.4522936
v -0.27704272 -0.9114052 0.53801745
v -0.23413439 -1.1608764 0.42561996
v -0.2206177 -0.9262008 0.64780515
v -0.26656157 -1.1789457 0.5442704
v -0.2663969 -0.9513302 0.6299944
v -0.22082362 -1.2107958 0.5406216
v -0.21092878 -1.0390018 0.70327264
v -0.2592381 -1.1340637 0.63426524
v -0.25864765 -1.041547 0.6743565
v -0.21166691 -1.1546786 0.6531449
v 0.24308528 -0.93239856 0.42028022
v 0.28495654 -1.048804 0.40793175
v 0.28436613 -0.9562871 0.4480229
v 0.24382347 -1.0480757 0.3701529
v 0.2339286 -0.8762812 0.5328033
v 0.2772074 -1.1390207 0.4522936
v 0.27704266 -0.9114052 0.53801745
v 0.23413433 -1.1608764 0.42561996
v 0.22061764 -0.9262008 0.64780515
v 0.2665615 -1.1789457 0.5442704
v 0.26639685 -0.9513302 0.6299944
v 0.22082356 -1.2107958 0.5406216
v 0.21092872 -1.0390018 0.70327264
v 0.25923803 -1.1340637 0.63426524
v 0.2586476 -1.041547 0.6743565
v 0.21166685 -1.1546786 0.6531449
v 0.19492564 -0.81958985 0.46317273
v 0.06535226 -0.8256094 0.33116007
v 0.16824023 -0.8535822 0.36376044
v 0.1955699 -0.9639387 0.33430228
v 0.07111459 -0.7655492 0.4516649
v -0.07111461 -0.7655495 0.4516649
v 0.19492257 -0.8190267 0.58760357
v 0.26001993 -0.9532973 0.4537452
v 0.07100272 -0.76483154 0.59848225
v 0.0741169 -0.95517707 0.27506787
v 0.19529973 -1.1130995 0.33396077
v -0.06535233 -0.82560945 0.33116007
v 0.16731739 -0.8513917 0.6889857
v 0.26042083 -0.9532053 0.59661347
v 0.24374695 -1.1235642 0.5966754
v 0.25997415 -1.1235665 0.45369974
v 0.19467345 -1.2574509 0.462803
v 0.19560573 -0.9635465 0.71840143
v 0.0739599 -1.1218195 0.27473322
v -0.07406509 -0.95513976 0.27508864
v 0.16684945 -1.2244904 0.36157128
v 0.06455611 -1.2526249 0.32857385
v -0.07390927 -1.1218559 0.27475598
v -0.19556995 -0.9639388 0.33430234
v -0.19529976 -1.1130996 0.3339608
v -0.06455617 -1.2526249 0.32857376
v 0.07096893 -1.311472 0.4512898
v -0.16824031 -0.85358226 0.36376038
v -0.19492571 -0.8195898 0.46317273
v -0.26002 -0.9532973 0.4537451
v 0.0710401 -1.311371 0.59921974
v -0.070968986 -1.3114719 0.4512898
v 0.19496325 -1.2573129 0.5880978
v 0.16742437 -1.2223067 0.6917975
v 0.1955988 -1.1127437 0.7188435
v 0.073989704 -1.1213524 0.7792225
v 0.064879805 -1.2497158 0.7256059
v -0.07104017 -1.3113711 0.59921974
v -0.19467346 -1.2574508 0.462803
v 0.07398088 -0.9547062 0.77861834
v -0.16684946 -1.2244904 0.36157134
v -0.25997415 -1.1235664 0.45369974
v -0.24374701 -1.1235642 0.5966754
v -0.19496337 -1.2573131 0.5880979
v -0.06487987 -1.2497157 0.725606
v -0.074042425 -1.1213151 0.77924544
v -0.16742444 -1.2223067 0.69179755
v -0.26042092 -0.95320517 0.59661347
v -0.1955988 -1.1127436 0.7188435
v -0.07403395 -0.95474476 0.77864075
v -0.19560581 -0.96354663 0.7184015
v -0.19492264 -0.8190267 0.5876037
v -0.16731744 -0.85139173 0.6889857
v -0.07100272 -0.7648317 0.59848225
v -0.06475082 -0.822849 0.7216163
v 0.06475079 -0.822849 0.7216165
vt 0.5169461 0.047350984
vt 0.5169462 0.047350984
vt 0.5169462 0.047350954
vt 0.516946 0.047350954
vt 0.5169462 0.047350954
vt 0.5169462 0.047350984
vt 0.516946 0.047350954
vt 0.5169462 0.047350984
vt 0.5169462 0.047350954
vt 0.51694596 0.047350924
vt 0.5169462 0.047350954
vt 0.5169462 0.047350984
vt 0.51694596 0.047350924
vt 0.5169462 0.047350984
vt 0.5169462 0.047350954
vt 0.51694596 0.047350924
vt 0.5169462 0.047350954
vt 0.5169462 0.047350984
vt 0.5169459 0.047350895
vt 0.51694614 0.047350984
vt 0.5169462 0.047350954
vt 0.5169461 0.047350984
vt 0.5169462 0.047350954
vt 0.51694614 0.047350984
vt 0.5169461 0.047350984
vt 0.5169462 0.047350954
vt 0.5169462 0.047350984
vt 0.516946 0.047350954
vt 0.5169462 0.047350984
vt 0.5169462 0.047350954
vt 0.516946 0.047350954
vt 0.5169462 0.047350954
vt 0.5169462 0.047350984
vt 0.51694596 0.047350924
vt 0.5169462 0.047350984
vt 0.5169462 0.047350954
vt 0.51694596 0.047350924
vt 0.5169462 0.047350954
vt 0.5169462 0.047350984
vt 0.51694596 0.047350924
vt 0.5169462 0.047350984
vt 0.5169462 0.047350954
vt 0.5169459 0.047350895
vt 0.5169462 0.047350954
vt 0.51694614 0.047350984
vt 0.5169461 0.047350984
vt 0.51694614 0.047350984
vt 0.5169462 0.047350954
vt 0.18320446 0.44167113
vt 0.18320446 0.44167113
vt 0.18320446 0.44167113
vt 0.18320446 0.44167116
vt 0.18320446 0.44167113
vt 0.18320446 0.44167113
vt 0.18320446 0.44167113
vt 0.18320446 0.44167113
vt 0.18320446 0.44167113
vt 0.18320446 0.44167113
vt 0.18320446 0.44167116
vt 0.18320446 0.44167113
vt 0.18320446 0.44167113
vt 0.18320446 0.44167113
vt 0.18320446 0.44167113
vt 0.18320446 0.44167113
vt 0.18320446 0.44167113
vt 0.18320446 0.44167116
vt 0.18320446 0.44167113
vt 0.18320446 0.44167113
vt 0.18320446 0.44167113
vt 0.18320446 0.44167113
vt 0.18320446 0.44167113
vt 0.18320446 0.44167113
vt 0.18320446 0.44167116
vt 0.18320446 0.44167113
vt 0.18320446 0.44167113
vt 0.18320446 0.44167113
vt 0.26653212 0.45799887
vt 0.26653218 0.45799893
vt 0.26653212 0.45799887
vt 0.26653218 0.45799893
vt 0.26653212 0.45799893
vt 0.26653212 0.457999
vt 0.26653212 0.45799887
vt 0.26653218 0.457999
vt 0.26653212 0.45799887
vt 0.26653218 0.457999
vt 0.26653212 0.45799893
vt 0.26653212 0.45799893
vt 0.26653212 0.45799887
vt 0.26653212 0.45799887
vt 0.26653218 0.457999
vt 0.26653218 0.45799893
vt 0.26653218 0.45799893
vt 0.26653212 0.45799893
vt 0.26653212 0.45799887
vt 0.26653218 0.457999
vt 0.26653212 0.45799887
vt 0.26653218 0.45799893
vt 0.26653218 0.45799893
vt 0.26653212 0.45799887
vt 0.26653212 0.45799887
vt 0.26653212 0.457999
vt 0.26653212 0.45799887
vt 0.26653218 0.45799893
vt 0.26653212 0.45799887
vt 0.26653212 0.45799893
vt 0.26653218 0.457999
vt 0.26653212 0.45799893
vt 0.26653212 0.45799887
vt 0.26653218 0.45799893
vt 0.26653218 0.457999
vt 0.26653212 0.457999
vt 0.26653212 0.45799887
vt 0.26653212 0.45799887
vt 0.26653218 0.45799887
vt 0.26653218 0.457999
vt 0.26653212 0.45799887
vt 0.26653212 0.45799893
vt 0.26653218 0.45799893
vt 0.26653212 0.45799893
vt 0.26653212 0.45799893
vt 0.18320446 0.44167113
vt 0.18320446 0.44167113
vt 0.18320446 0.44167113
vt 0.18320446 0.44167113
vt 0.18320446 0.44167113
vt 0.18320446 0.44167113
vt 0.04236442 0.4602735
vt 0.04236442 0.4602735
vt 0.04236442 0.4602735
vt 0.04236442 0.4602735
vt 0.08833488 0.45988443
vt 0.08833488 0.45988443
vt 0.08833488 0.45988443
vt 0.08833488 0.45988443
vt 0.0695341 0.4649998
vt 0.0695341 0.4649998
vt 0.0695341 0.4649998
vt 0.0695341 0.4649998
vt 0.0695341 0.4649998
vt 0.0695341 0.4649998
vt 0.0695341 0.4649998
vt 0.0695341 0.4649998
vt 0.0695341 0.4649998
vt 0.0695341 0.4649998
vt 0.0695341 0.4649998
vt 0.0695341 0.4649998
vt 0.0695341 0.4649998
vt 0.0695341 0.4649998
vt 0.04236442 0.4602735
vt 0.04236442 0.4602735
vt 0.04236442 0.4602735
vt 0.04236442 0.4602735
vt 0.04556622 0.45252252
vt 0.04556622 0.45252252
vt 0.04556622 0.45252252
vt 0.04556622 0.45252252
vt 0.04556622 0.45252252
vt 0.04556622 0.45252252
vt 0.04556622 0.45252252
vt 0.04556622 0.45252252
vt 0.04556622 0.45252252
vt 0.04556622 0.45252252
vt 0.04556622 0.45252252
vt 0.04556622 0.45252252
vt 0.18320446 0.44167113
vt 0.18320446 0.44167113
vt 0.18320446 0.44167113
vt 0.18320446 0.44167113
vt 0.18320446 0.44167113
vt 0.18320446 0.44167113
vt 0.18320446 0.44167113
vt 0.18320446 0.44167113
vt 0.18320446 0.44167113
vt 0.18320446 0.44167113
vt 0.18320446 0.44167113
vt 0.18320446 0.44167113
vt 0.0695341 0.4649998
vt 0.0695341 0.4649998
vt 0.0695341 0.4649998
vt 0.0695341 0.4649998
vt 0.0695341 0.4649998
vt 0.0695341 0.4649998
vt 0.0695341 0.4649998
vt 0.0695341 0.4649998
vt 0.0695341 0.4649998
vt 0.0695341 0.4649998
vt 0.0695341 0.4649998
vt 0.0695341 0.4649998
vt 0.0695341 0.4649998
vt 0.0695341 0.4649998
vt 0.04236442 0.4602735
vt 0.04236442 0.4602735
vt 0.04236442 0.4602735
vt 0.04236442 0.4602735
vt 0.040411294 0.4602735
vt 0.040411294 0.4602735
vt 0.040411294 0.4602735
vt 0.040411294 0.4602735
vt 0.08149897 0.47843915
vt 0.08149896 0.47843915
vt 0.08149894 0.47843912
vt 0.08149894 0.47843912
vt 0.08149896 0.47843912
vt 0.08149894 0.47843912
vt 0.08149894 0.47843912
vt 0.1488846 0.46360087
vt 0.1488846 0.46360093
vt 0.1488846 0.46360093
vt 0.1488846 0.46360087
vt 0.1488846 0.46360093
vt 0.1488846 0.46360093
vt 0.26653212 0.45799887
vt 0.26653218 0.457999
vt 0.26653212 0.45799893
vt 0.26653212 0.45799887
vt 0.26653212 0.45799887
vt 0.26653218 0.45799893
vt 0.26653212 0.45799887
vt 0.26653212 0.45799893
vt 0.26653218 0.457999
vt 0.26653212 0.45799887
vt 0.26653218 0.45799893
vt 0.26653212 0.45799887
vt 0.26653218 0.457999
vt 0.26653212 0.45799887
vt 0.26653212 0.457999
vt 0.26653218 0.457999
vt 0.26653212 0.45799887
vt 0.26653212 0.45799893
vt 0.26653212 0.45799893
vt 0.26653212 0.45799893
vt 0.26653212 0.45799887
vt 0.26653218 0.45799887
vt 0.26653218 0.45799893
vt 0.26653218 0.45799893
vt 0.26653218 0.45799887
vt 0.26653212 0.45799887
vt 0.26653212 0.45799893
vt 0.26653212 0.45799893
vt 0.26653218 0.457999
vt 0.26653212 0.45799887
vt 0.26653212 0.45799893
vt 0.26653218 0.45799893
vt 0.26653212 0.45799887
vt 0.26653218 0.45799893
vt 0.26653218 0.457999
vt 0.26653212 0.45799887
vt 0.26653218 0.457999
vt 0.26653212 0.45799893
vt 0.13817236 0.48352644
vt 0.13817236 0.48352644
vt 0.13817236 0.48352644
vt 0.13817236 0.48352644
vt 0.26653212 0.45799893
vt 0.26653212 0.457999
vt 0.26653212 0.45799893
vt 0.26653212 0.45799887
vt 0.26653212 0.45799893
vt 0.26653218 0.457999
vt 0.13817236 0.48352644
vt 0.13817236 0.48352644
vt 0.13817236 0.48352644
vt 0.13817236 0.48352644
vt 0.18320446 0.44167113
vt 0.18320446 0.44167113
vt 0.18320446 0.44167113
vt 0.18320446 0.44167113
vt 0.18320446 0.44167113
vt 0.18320446 0.44167113
vt 0.15098149 0.48328722
vt 0.15098149 0.48328722
vt 0.15098149 0.48328722
vt 0.15098149 0.48328722
vt 0.15098149 0.48328722
vt 0.15098149 0.48328722
vt 0.15098149 0.48328722
vt 0.15098149 0.48328722
vt 0.15098149 0.48328722
vt 0.15098149 0.48328722
vt 0.15098149 0.48328722
vt 0.15098149 0.48328722
vt 0.15098149 0.48328722
vt 0.15098149 0.48328722
vt 0.15098149 0.48328722
vt 0.15098149 0.48328722
vt 0.15098149 0.48328722
vt 0.15098149 0.48328722
vt 0.15083772 0.46360087
vt 0.15083772 0.46360093
vt 0.15083772 0.46360093
vt 0.15083772 0.46360087
vt 0.15083772 0.46360093
vt 0.15083772 0.46360093
vt 0.26653212 0.45799893
vt 0.26653218 0.457999
vt 0.26653212 0.457999
vt 0.26653212 0.45799893
vt 0.1566971 0.46360087
vt 0.1566971 0.46360093
vt 0.1566971 0.46360087
vt 0.1566971 0.46360093
vt 0.1566971 0.46360093
vt 0.1566971 0.46360093
vt 0.1566971 0.46360087
vt 0.1566971 0.46360087
vt 0.1566971 0.46360093
vt 0.13817236 0.48352644
vt 0.13817236 0.48352644
vt 0.13817236 0.48352644
vt 0.13817236 0.48352644
vt 0.1488846 0.46360087
vt 0.1488846 0.46360093
vt 0.1488846 0.46360093
vt 0.1488846 0.46360087
vt 0.1488846 0.46360093
vt 0.1488846 0.46360093
vt 0.26653212 0.45799893
vt 0.26653212 0.45799893
vt 0.26653212 0.45799887
vt 0.26653212 0.45799893
vt 0.26653218 0.457999
vt 0.13817236 0.48352644
vt 0.13817236 0.48352644
vt 0.13817236 0.48352644
vt 0.13817236 0.48352644
vt 0.13817236 0.48352644
vt 0.13817236 0.48352644
vt 0.13817236 0.48352644
vt 0.13817236 0.48352644
vt 0.15098149 0.48328722
vt 0.15098149 0.48328722
vt 0.15098149 0.48328722
vt 0.15098149 0.48328722
vt 0.15098149 0.48328722
vt 0.15098149 0.48328722
vt 0.15098149 0.48328722
vt 0.15098149 0.48328722
vt 0.15098149 0.48328722
vt 0.15098149 0.48328722
vt 0.15098149 0.48328722
vt 0.15098149 0.48328722
vt 0.15098149 0.48328722
vt 0.15098149 0.48328722
vt 0.15098149 0.48328722
vt 0.15098149 0.48328722
vt 0.26653212 0.45799893
vt 0.26653212 0.45799887
vt 0.26653218 0.45799887
vt 0.26653212 0.457999
vt 0.13817236 0.48352644
vt 0.13817236 0.48352644
vt 0.13817236 0.48352644
vt 0.13817236 0.48352644
vt 0.26653212 0.45799893
vt 0.26653218 0.457999
vt 0.26653212 0.457999
vt 0.26653212 0.45799893
vt 0.13817236 0.48352644
vt 0.13817236 0.48352644
vt 0.13817236 0.48352644
vt 0.13817236 0.48352644
vt 0.1566971 0.46360087
vt 0.1566971 0.46360093
vt 0.1566971 0.46360087
vt 0.1566971 0.46360093
vt 0.1566971 0.46360093
vt 0.1566971 0.46360093
vt 0.1566971 0.46360087
vt 0.1566971 0.46360087
vt 0.1566971 0.46360093
vt 0.15083772 0.46360087
vt 0.15083772 0.46360087
vt 0.15083772 0.46360093
vt 0.15083772 0.46360093
vt 0.15083772 0.46360093
vt 0.15083772 0.46360087
vt 0.15083772 0.46360093
vt 0.15083772 0.46360087
vt 0.15083772 0.46360093
vt 0.08149894 0.47843912
vt 0.08149899 0.47843918
vt 0.08149897 0.47843918
vt 0.08149894 0.47843912
vt 0.08149894 0.47843912
vt 0.08149894 0.47843912
vt 0.08149897 0.47843915
vt 0.08149894 0.47843912
vt 0.08149897 0.47843915
vt 0.08149894 0.47843912
vt 0.08149894 0.47843912
vt 0.08149896 0.47843915
vt 0.08149894 0.47843912
vt 0.08149894 0.47843912
vt 0.08149894 0.47843912
vt 0.15319178 0.516227
vt 0.15319178 0.516227
vt 0.15319178 0.516227
vt 0.15319178 0.516227
vt 0.15319178 0.516227
vt 0.15319178 0.516227
vt 0.15319178 0.516227
vt 0.15319178 0.516227
vt 0.15826064 0.5158221
vt 0.15826064 0.5158221
vt 0.15826064 0.5158221
vt 0.16359001 0.51663196
vt 0.16359001 0.51663196
vt 0.16359001 0.51663196
vt 0.16359001 0.51663196
vt 0.16359001 0.51663196
vt 0.16359001 0.51663196
vt 0.16359001 0.51663196
vt 0.16359001 0.51663196
vt 0.15826064 0.5158221
vt 0.15826064 0.5158221
vt 0.15826064 0.5158221
vt 0.15826064 0.5158221
vt 0.15826064 0.5158221
vt 0.15826064 0.5158221
vt 0.15826064 0.5158221
vt 0.04236442 0.4602735
vt 0.04236442 0.4602735
vt 0.04236442 0.4602735
vt 0.04236442 0.4602735
vt 0.10863532 0.52285194
vt 0.10863532 0.52285194
vt 0.10863538 0.522852
vt 0.10863532 0.522852
vt 0.10863532 0.52285194
vt 0.10863538 0.522852
vt 0.10863532 0.52285194
vt 0.10863532 0.5228519
vt 0.10863532 0.52285194
vt 0.10863532 0.52285194
vt 0.10863538 0.522852
vt 0.10863538 0.52285194
vt 0.10863538 0.5228519
vt 0.10863532 0.52285194
vt 0.10863538 0.5228519
vt 0.10863532 0.52285194
vt 0.10863532 0.52285194
vt 0.10863532 0.522852
vt 0.10863532 0.5228519
vt 0.10863538 0.522852
vt 0.10863532 0.52285194
vt 0.10863532 0.52285194
vt 0.10863532 0.52285194
vt 0.10863532 0.52285194
vt 0.10863532 0.522852
vt 0.10863532 0.52285194
vt 0.10863538 0.522852
vt 0.10863532 0.52285194
vt 0.10863538 0.5228519
vt 0.10863532 0.52285194
vt 0.10863532 0.52285194
vt 0.10863532 0.522852
vt 0.10863538 0.522852
vt 0.10863532 0.52285194
vt 0.10863538 0.5228519
vt 0.10863532 0.5228519
vt 0.10863532 0.5228519
vt 0.10863538 0.5228519
vt 0.10863532 0.52285194
vt 0.10863532 0.52285194
vt 0.10863532 0.522852
vt 0.10863532 0.52285194
vt 0.10863532 0.52285194
vt 0.10863532 0.5228519
vt 0.10863532 0.52285194
vt 0.10863532 0.52285194
vt 0.10863532 0.52285194
vt 0.10863532 0.52285194
vt 0.10863538 0.522852
vt 0.10863532 0.52285194
vt 0.10863532 0.52285194
vt 0.10863532 0.52285194
vt 0.10863532 0.52285194
vt 0.10863532 0.52285194
vt 0.10863532 0.522852
vt 0.10863532 0.52285194
vt 0.10863532 0.52285194
vt 0.10863538 0.522852
vt 0.10863532 0.522852
vt 0.10863538 0.522852
vt 0.10863532 0.522852
vt 0.10863532 0.52285194
vt 0.13817236 0.48352644
vt 0.13817236 0.48352644
vt 0.13817236 0.48352644
vt 0.13817236 0.48352644
vt 0.16370994 0.51650643
vt 0.16370994 0.51650643
vt 0.16370994 0.51650643
vt 0.16370994 0.51650643
vt 0.16370994 0.51650643
vt 0.16370994 0.51650643
vt 0.16370994 0.51650643
vt 0.16370994 0.51650643
vt 0.16370994 0.51650643
vt 0.16370994 0.51650643
vt 0.16370994 0.51650643
vt 0.16370994 0.51650643
vt 0.16370994 0.51650643
vt 0.16370994 0.51650643
vt 0.16370994 0.51650643
vt 0.16370994 0.51650643
vt 0.16370994 0.51650643
vt 0.16370994 0.51650643
vt 0.16370994 0.51650643
vt 0.16370994 0.51650643
vt 0.16359001 0.51663196
vt 0.16359001 0.51663196
vt 0.16359001 0.51663196
vt 0.16359001 0.51663196
vt 0.16359001 0.51663196
vt 0.16359001 0.51663196
vt 0.16359001 0.51663196
vt 0.16359001 0.51663196
vt 0.16359001 0.51663196
vt 0.16359001 0.51663196
vt 0.16359001 0.51663196
vt 0.16359001 0.51663196
vt 0.16359001 0.51663196
vt 0.16359001 0.51663196
vt 0.16359001 0.51663196
vt 0.16359001 0.51663196
vt 0.16359001 0.51663196
vt 0.16359001 0.51663196
vt 0.16359001 0.51663196
vt 0.16359001 0.51663196
vt 0.16359001 0.51663196
vt 0.16359001 0.51663196
vt 0.16359001 0.51663196
vt 0.16359001 0.51663196
vt 0.47352543 0.08751917
vt 0.47352543 0.08751917
vt 0.47352543 0.0875192
vt 0.47352543 0.08751917
vt 0.47352543 0.08751917
vt 0.47352543 0.08751917
vt 0.47352543 0.08751917
vt 0.47352543 0.08751917
vt 0.47352543 0.08751917
vt 0.47352543 0.08751917
vt 0.47352543 0.0875192
vt 0.47352543 0.08751917
vt 0.47352543 0.08751917
vt 0.47352543 0.08751917
vt 0.47352543 0.08751917
vt 0.47352543 0.08751917
vt 0.47352543 0.08751917
vt 0.47352543 0.08751917
vt 0.15826064 0.5158221
vt 0.15826064 0.5158221
vt 0.15826064 0.5158221
vt 0.15826064 0.5158221
vt 0.15826064 0.5158221
vt 0.15826064 0.5158221
vt 0.15826064 0.5158221
vt 0.15826064 0.5158221
vt 0.15826064 0.5158221
vt 0.15826064 0.5158221
vt 0.15826064 0.5158221
vt 0.15826064 0.5158221
vt 0.15826064 0.5158221
vt 0.15826064 0.5158221
vt 0.15826064 0.5158221
vt 0.15826064 0.5158221
vt 0.15319178 0.516227
vt 0.15319178 0.516227
vt 0.15319178 0.516227
vt 0.15319178 0.516227
vt 0.15319178 0.516227
vt 0.15319178 0.516227
vt 0.15319178 0.516227
vt 0.15319178 0.516227
vt 0.1660245 0.5263419
vt 0.1660245 0.526342
vt 0.1660245 0.526342
vt 0.1660245 0.526342
vt 0.1660245 0.5263419
vt 0.1660245 0.526342
vt 0.1660245 0.5263419
vt 0.1660245 0.5263419
vt 0.1660245 0.5263419
vt 0.1660245 0.5263419
vt 0.1660245 0.5263419
vt 0.1660245 0.5263419
vt 0.1660245 0.5263419
vt 0.15319178 0.516227
vt 0.15319178 0.516227
vt 0.15319178 0.516227
vt 0.15319178 0.516227
vt 0.15319178 0.516227
vt 0.15319178 0.516227
vt 0.15319178 0.516227
vt 0.15319178 0.516227
vt 0.15319178 0.516227
vt 0.15319178 0.516227
vt 0.15319178 0.516227
vt 0.15319178 0.516227
vt 0.15319178 0.516227
vt 0.15319178 0.516227
vt 0.15319178 0.516227
vt 0.15319178 0.516227
vt 0.15826064 0.5158221
vt 0.15826064 0.5158221
vt 0.15826064 0.5158221
vt 0.15826064 0.5158221
vt 0.15826064 0.5158221
vt 0.15826064 0.5158221
vt 0.15826064 0.5158221
vt 0.15826064 0.5158221
vt 0.5169462 0.047350954
vt 0.5169462 0.047350954
vt 0.5169462 0.047350924
vt 0.5169462 0.047350954
vt 0.5169462 0.047350954
vt 0.5169462 0.047350954
vt 0.5169462 0.047350924
vt 0.5169462 0.047350954
vt 0.5169462 0.047350954
vt 0.5169462 0.047350924
vt 0.5169462 0.047350954
vt 0.5169462 0.047350954
vt 0.5169462 0.047350954
vt 0.5169462 0.047350954
vt 0.5169462 0.047350924
vt 0.5169462 0.047350954
vt 0.5169462 0.047350954
vt 0.5169462 0.047350924
vt 0.5169462 0.047350954
vt 0.5169462 0.047350954
vt 0.5169462 0.047350954
vt 0.5169462 0.047350954
vt 0.5169462 0.047350924
vt 0.5169462 0.047350954
vt 0.5169462 0.047350954
vt 0.5169462 0.047350924
vt 0.5169462 0.047350954
vt 0.5169462 0.047350954
vt 0.5169462 0.047350954
vt 0.5169462 0.047350954
vt 0.5169462 0.047350924
vt 0.5169462 0.047350954
vt 0.15199322 0.53817767
vt 0.15199322 0.53817767
vt 0.15199322 0.53817767
vt 0.15199322 0.53817767
vt 0.15199322 0.53817767
vt 0.15199322 0.53817767
vt 0.15199322 0.53817767
vt 0.15199322 0.53817767
vt 0.15199322 0.53817767
vt 0.15199322 0.53817767
vt 0.15199322 0.53817767
vt 0.15199322 0.53817767
vt 0.15199322 0.53817767
vt 0.15199322 0.53817767
vt 0.15199322 0.53817767
vt 0.15199322 0.53817767
vt 0.15199322 0.53817767
vt 0.15199322 0.53817767
vt 0.15199322 0.53817767
vt 0.15199322 0.53817767
vt 0.15199322 0.53817767
vt 0.15199322 0.53817767
vt 0.15199322 0.53817767
vt 0.15199322 0.53817767
vt 0.15199322 0.53817767
vt 0.15199322 0.53817767
vt 0.15199322 0.53817767
vt 0.15199322 0.53817767
vt 0.15199322 0.53817767
vt 0.15199322 0.53817767
vt 0.15199322 0.53817767
vt 0.15199322 0.53817767
vt 0.15199322 0.53817767
vt 0.15199322 0.53817767
vt 0.15199322 0.53817767
vt 0.15199322 0.53817767
vt 0.15199322 0.53817767
vt 0.15199322 0.53817767
vt 0.15199322 0.53817767
vt 0.15199322 0.53817767
vt 0.15199322 0.53817767
vt 0.15199322 0.53817767
vt 0.15199322 0.53817767
vt 0.15199322 0.53817767
vt 0.15199322 0.53817767
vt 0.15199322 0.53817767
vt 0.15199322 0.5381777
vt 0.15199322 0.53817767
vt 0.15199322 0.53817767
vt 0.15199322 0.53817767
vt 0.15199322 0.53817767
vt 0.15199322 0.53817767
vt 0.15199322 0.53817767
vt 0.15199322 0.53817767
vt 0.15199322 0.53817767
vt 0.15199322 0.53817767
vn 0.99439347 -0.036637988 0.09919237
vn 0.77209044 -0.015399285 0.63532615
vn 0.8071003 0.3688734 0.46100068
vn 0.99439347 -0.036637988 0.09919237
vn 0.77662826 -0.40894452 0.47917953
vn 0.77209044 -0.015399285 0.63532615
vn 0.99439347 -0.036637988 0.09919237
vn 0.80493325 -0.58563983 0.09543819
vn 0.77662826 -0.40894452 0.47917953
vn 0.99439347 -0.036637988 0.09919237
vn 0.85311466 -0.43004408 -0.29539382
vn 0.80493325 -0.58563983 0.09543819
vn 0.99439347 -0.036637988 0.09919237
vn 0.8812772 -0.045518078 -0.47040266
vn 0.85311466 -0.43004408 -0.29539382
vn 0.99439347 -0.036637988 0.09919237
vn 0.8835867 0.34777412 -0.3135725
vn 0.8812772 -0.045518078 -0.47040266
vn 0.99439347 -0.036637988 0.09919237
vn 0.84843343 0.52472115 0.069486745
vn 0.8835867 0.34777412 -0.3135725
vn 0.99439347 -0.036637988 0.09919237
vn 0.8071003 0.3688734 0.46100068
vn 0.84843343 0.52472115 0.069486745
vn -0.99439347 -0.036637995 0.09919237
vn -0.8071003 0.36887342 0.46100053
vn -0.7720905 -0.015399337 0.635326
vn -0.99439347 -0.036637995 0.09919237
vn -0.7720905 -0.015399337 0.635326
vn -0.7766282 -0.40894464 0.4791795
vn -0.99439347 -0.036637995 0.09919237
vn -0.7766282 -0.40894464 0.4791795
vn -0.80493337 -0.5856398 0.0954381
vn -0.99439347 -0.036637995 0.09919237
vn -0.80493337 -0.5856398 0.0954381
vn -0.85311466 -0.43004403 -0.29539385
vn -0.99439347 -0.036637995 0.09919237
vn -0.85311466 -0.43004403 -0.29539385
vn -0.8812772 -0.04551804 -0.4704026
vn -0.99439347 -0.036637995 0.09919237
vn -0.8812772 -0.04551804 -0.4704026
vn -0.8835867 0.34777412 -0.31357244
vn -0.99439347 -0.036637995 0.09919237
vn -0.8835867 0.34777412 -0.31357244
vn -0.84843343 0.52472115 0.069486804
vn -0.99439347 -0.036637995 0.09919237
vn -0.84843343 0.52472115 0.069486804
vn -0.8071003 0.36887342 0.46100053
vn -0.64492965 0.39134687 0.65644
vn -0.76205456 0.42087114 0.49207756
vn -0.62270236 0.6348128 0.4574435
vn -0.55261666 0.5789464 0.5995296
vn -0.42240694 0.4337318 0.7958952
vn -0.39634228 0.76692355 0.5047189
vn -0.3597289 0.6565508 0.66297525
vn 0.35972905 0.65655077 0.6629752
vn 0.39634246 0.76692337 0.5047189
vn 0.6227023 0.63481295 0.45744342
vn 0.5526166 0.5789466 0.5995295
vn 0.7620543 0.4208714 0.49207777
vn 0.6449293 0.39134708 0.65644
vn 0.42240724 0.43373176 0.795895
vn 0.6538835 -0.37939972 0.6545932
vn 0.7655643 -0.42111045 0.4863922
vn 0.62731665 -0.6339056 0.45236874
vn 0.5608928 -0.56887656 0.6014805
vn 0.42397395 -0.42629698 0.79907256
vn 0.40387622 -0.7670841 0.4984635
vn 0.36322567 -0.6510533 0.6664808
vn -0.36322573 -0.6510535 0.6664806
vn -0.4038762 -0.76708424 0.49846342
vn -0.6273166 -0.6339057 0.4523686
vn -0.560893 -0.5688766 0.6014801
vn -0.6538837 -0.3793995 0.65459317
vn -0.42397425 -0.4262968 0.7990725
vn -0.76556444 -0.42111018 0.4863922
vn 0.61256313 -0.34951788 -0.70894545
vn 0.27767769 -0.278212 -0.91950697
vn 0.35208133 -0.6177366 -0.70316434
vn 0.5608633 -0.5678039 -0.6025207
vn 0.87592643 -0.45347527 -0.16466095
vn 0.7113097 -0.69706 -0.09025434
vn 0.61256313 -0.34951788 -0.70894545
vn 0.95990086 -0.18129048 -0.21383171
vn 0.658456 -0.12063376 -0.7428884
vn 0.27767769 -0.278212 -0.91950697
vn 0.31047103 -0.10381606 -0.9448968
vn 0.3086213 0.10841751 -0.9449859
vn 0.65625 0.12321358 -0.74441546
vn 0.6055999 0.34870225 -0.715301
vn 0.2748783 0.28269204 -0.91898155
vn 0.96107537 0.1733889 -0.2151059
vn 0.95990086 -0.18129048 -0.21383171
vn 0.87755436 0.44471148 -0.17924844
vn 0.6055999 0.34870225 -0.715301
vn 0.7151902 0.69258857 -0.093936205
vn 0.55416775 0.56975716 -0.6068564
vn 0.55416775 0.56975716 -0.6068564
vn 0.2748783 0.28269204 -0.91898155
vn 0.3483353 0.6209521 -0.70219725
vn 0.44778246 0.8819885 -0.14692509
vn 0.7151902 0.69258857 -0.093936205
vn 0.3483353 0.6209521 -0.70219725
vn 0.14638768 0.9659064 -0.21353114
vn 0.12281613 0.6417197 -0.75704163
vn 0.10930786 0.30701536 -0.9454064
vn 0.2748783 0.28269204 -0.91898155
vn -0.10930786 0.30701536 -0.9454064
vn -0.12281612 0.64171964 -0.7570417
vn -0.2748784 0.2826921 -0.91898155
vn -0.14638773 0.9659064 -0.21353132
vn 0.14638768 0.9659064 -0.21353114
vn -0.34833542 0.6209521 -0.7021972
vn -0.6056001 0.3487024 -0.71530074
vn -0.5541679 0.5697575 -0.60685605
vn -0.7151904 0.6925883 -0.09393603
vn -0.44778246 0.88198864 -0.14692506
vn -0.67237556 0.68523985 0.27992412
vn -0.14638773 0.9659064 -0.21353132
vn -0.4413588 0.84364265 0.30572775
vn -0.16677637 0.93842393 0.302566
vn -0.12818666 0.6986426 0.7038939
vn 0.13545617 0.46930632 0.87258416
vn -0.13545622 0.46930635 0.87258416
vn 0.1281867 0.6986426 0.70389384
vn 0.12672678 0.82914144 0.54448575
vn -0.12672667 0.82914144 0.5444858
vn -0.10235325 -0.09589822 -0.9901148
vn -0.31047094 -0.10381604 -0.9448968
vn -0.2776777 -0.27821186 -0.9195071
vn -0.109682254 -0.30265757 -0.9467673
vn -0.16462567 0.16129711 0.97307837
vn 0.16462559 0.16129713 0.97307837
vn 0.16504513 -0.15336962 0.97428846
vn -0.16504525 -0.15336958 0.97428846
vn 0.12955791 -0.6989264 0.703361
vn 0.13411203 -0.4701568 0.8723339
vn 0.42397395 -0.42629698 0.79907256
vn 0.36322567 -0.6510533 0.6664808
vn 0.4802803 -0.14319474 0.8653473
vn 0.6538835 -0.37939972 0.6545932
vn 0.7054737 -0.14227109 0.69430965
vn 0.42240724 0.43373176 0.795895
vn 0.13545617 0.46930632 0.87258416
vn 0.1281867 0.6986426 0.70389384
vn 0.35972905 0.65655077 0.6629752
vn 0.6449293 0.39134708 0.65644
vn 0.70071393 0.14410745 0.69873667
vn 0.47813156 0.14829957 0.8656774
vn 0.2748783 0.28269204 -0.91898155
vn 0.10930786 0.30701536 -0.9454064
vn 0.10259246 0.10046382 -0.9896372
vn 0.3086213 0.10841751 -0.9449859
vn 0.10235312 -0.0958982 -0.9901148
vn 0.31047103 -0.10381606 -0.9448968
vn 0.3086213 0.10841751 -0.9449859
vn 0.10259246 0.10046382 -0.9896372
vn -0.109682254 -0.30265757 -0.9467673
vn 0.10968221 -0.30265763 -0.9467673
vn -0.10235325 -0.09589822 -0.9901148
vn 0.10930786 0.30701536 -0.9454064
vn -0.1025925 0.1004638 -0.9896372
vn -0.10930786 0.30701536 -0.9454064
vn -0.31047094 -0.10381604 -0.9448968
vn -0.30862126 0.10841749 -0.94498605
vn -0.7054737 -0.14227112 0.69430965
vn -0.4781315 0.14829956 0.8656775
vn -0.4802805 -0.14319472 0.86534727
vn -0.700714 0.14410739 0.69873667
vn -0.8339925 0.1451704 0.5323365
vn -0.8379842 -0.139619 0.5275311
vn 0.47813156 0.14829957 0.8656774
vn 0.7054737 -0.14227109 0.69430965
vn 0.4802803 -0.14319474 0.8653473
vn 0.70071393 0.14410745 0.69873667
vn 0.8379842 -0.13961878 0.52753115
vn 0.83399236 0.14517058 0.5323365
vn -0.36322573 -0.6510535 0.6664806
vn -0.13411185 -0.47015682 0.872334
vn -0.12955788 -0.6989264 0.703361
vn -0.42397425 -0.4262968 0.7990725
vn -0.7054737 -0.14227112 0.69430965
vn -0.4802805 -0.14319472 0.86534727
vn -0.6538837 -0.3793995 0.65459317
vn -0.13545622 0.46930635 0.87258416
vn -0.3597289 0.6565508 0.66297525
vn -0.12818666 0.6986426 0.7038939
vn -0.42240694 0.4337318 0.7958952
vn -0.64492965 0.39134687 0.65644
vn -0.4781315 0.14829956 0.8656775
vn -0.700714 0.14410739 0.69873667
vn 0.31047103 -0.10381606 -0.9448968
vn 0.10235312 -0.0958982 -0.9901148
vn 0.10968221 -0.30265763 -0.9467673
vn 0.27767769 -0.278212 -0.91950697
vn 0.10259246 0.10046382 -0.9896372
vn -0.1025925 0.1004638 -0.9896372
vn -0.10235325 -0.09589822 -0.9901148
vn 0.10235312 -0.0958982 -0.9901148
vn -0.16504525 -0.15336958 0.97428846
vn 0.16504513 -0.15336962 0.97428846
vn 0.13411203 -0.4701568 0.8723339
vn -0.13411185 -0.47015682 0.872334
vn 0.16504513 -0.15336962 0.97428846
vn 0.42397395 -0.42629698 0.79907256
vn 0.4802803 -0.14319474 0.8653473
vn -0.1653475 -0.94124407 0.29448238
vn -0.13022652 -0.8292588 0.5434802
vn 0.13022642 -0.8292588 0.5434803
vn 0.1653474 -0.94124407 0.2944824
vn -0.13854496 -0.96355414 -0.22884232
vn 0.13854483 -0.96355414 -0.22884238
vn 0.35208133 -0.6177366 -0.70316434
vn 0.27767769 -0.278212 -0.91950697
vn 0.10968221 -0.30265763 -0.9467673
vn 0.12583363 -0.6328949 -0.7639437
vn 0.44332832 -0.88196945 -0.15996887
vn 0.13854483 -0.96355414 -0.22884238
vn -0.12583368 -0.63289475 -0.76394373
vn -0.109682254 -0.30265757 -0.9467673
vn -0.2776777 -0.27821186 -0.9195071
vn -0.35208127 -0.6177368 -0.7031643
vn -0.13854496 -0.96355414 -0.22884232
vn -0.44332832 -0.88196945 -0.15996876
vn 0.13854483 -0.96355414 -0.22884238
vn 0.12583363 -0.6328949 -0.7639437
vn -0.13854496 -0.96355414 -0.22884232
vn 0.7113097 -0.69706 -0.09025434
vn 0.44332832 -0.88196945 -0.15996887
vn 0.66436845 -0.6959612 0.2724934
vn 0.43698055 -0.8506046 0.29243782
vn 0.1653474 -0.94124407 0.2944824
vn -0.44332832 -0.88196945 -0.15996876
vn -0.56086344 -0.5678041 -0.6025203
vn -0.71130997 -0.69705975 -0.090254046
vn -0.2776777 -0.27821186 -0.9195071
vn -0.56086344 -0.5678041 -0.6025203
vn -0.61256325 -0.34951773 -0.70894533
vn -0.31047094 -0.10381604 -0.9448968
vn -0.87592643 -0.45347527 -0.16466086
vn -0.71130997 -0.69705975 -0.090254046
vn -0.6584559 -0.1206339 -0.74288845
vn -0.30862126 0.10841749 -0.94498605
vn -0.95990086 -0.18129082 -0.21383145
vn -0.6562497 0.12321339 -0.74441564
vn -0.96107525 0.17338875 -0.21510611
vn -0.2748784 0.2826921 -0.91898155
vn -0.6056001 0.3487024 -0.71530074
vn -0.96107525 0.17338875 -0.21510611
vn -0.87755436 0.44471148 -0.17924851
vn -0.700714 0.14410739 0.69873667
vn -0.8339925 0.1451704 0.5323365
vn -0.76205456 0.42087114 0.49207756
vn -0.64492965 0.39134687 0.65644
vn -0.43698078 -0.8506045 0.29243776
vn -0.71130997 -0.69705975 -0.090254046
vn -0.66436857 -0.69596106 0.27249333
vn -0.44332832 -0.88196945 -0.15996876
vn -0.1653475 -0.94124407 0.29448238
vn -0.13854496 -0.96355414 -0.22884232
vn -0.6538837 -0.3793995 0.65459317
vn -0.76556444 -0.42111018 0.4863922
vn -0.8379842 -0.139619 0.5275311
vn -0.7054737 -0.14227112 0.69430965
vn 0.12955791 -0.6989264 0.703361
vn 0.13022642 -0.8292588 0.5434803
vn -0.13022652 -0.8292588 0.5434802
vn -0.12955788 -0.6989264 0.703361
vn -0.13411185 -0.47015682 0.872334
vn 0.13411203 -0.4701568 0.8723339
vn -0.6273166 -0.6339057 0.4523686
vn -0.43698078 -0.8506045 0.29243776
vn -0.66436857 -0.69596106 0.27249333
vn -0.4038762 -0.76708424 0.49846342
vn -0.13022652 -0.8292588 0.5434802
vn -0.1653475 -0.94124407 0.29448238
vn 0.40387622 -0.7670841 0.4984635
vn 0.1653474 -0.94124407 0.2944824
vn 0.13022642 -0.8292588 0.5434803
vn 0.43698055 -0.8506046 0.29243782
vn 0.62731665 -0.6339056 0.45236874
vn 0.66436845 -0.6959612 0.2724934
vn 0.7655643 -0.42111045 0.4863922
vn 0.83856493 -0.47000661 0.27550438
vn 0.8379842 -0.13961878 0.52753115
vn 0.95115805 -0.16358481 0.2617985
vn 0.83399236 0.14517058 0.5323365
vn 0.9500942 0.16312154 0.26591784
vn 0.83856493 -0.47000661 0.27550438
vn 0.7113097 -0.69706 -0.09025434
vn 0.66436845 -0.6959612 0.2724934
vn 0.87592643 -0.45347527 -0.16466095
vn 0.95115805 -0.16358481 0.2617985
vn 0.95990086 -0.18129048 -0.21383171
vn 0.9500942 0.16312154 0.26591784
vn 0.96107537 0.1733889 -0.2151059
vn 0.95990086 -0.18129048 -0.21383171
vn 0.95115805 -0.16358481 0.2617985
vn 0.67237556 0.68524 0.27992406
vn 0.7151902 0.69258857 -0.093936205
vn 0.87755436 0.44471148 -0.17924844
vn 0.8432216 0.46321335 0.27278325
vn 0.6227023 0.63481295 0.45744342
vn 0.96107537 0.1733889 -0.2151059
vn 0.7620543 0.4208714 0.49207777
vn 0.9500942 0.16312154 0.26591784
vn 0.83399236 0.14517058 0.5323365
vn -0.3597289 0.6565508 0.66297525
vn -0.39634228 0.76692355 0.5047189
vn -0.12672667 0.82914144 0.5444858
vn -0.12818666 0.6986426 0.7038939
vn 0.16677645 0.93842393 0.30256596
vn 0.12672678 0.82914144 0.54448575
vn -0.12672667 0.82914144 0.5444858
vn -0.16677637 0.93842393 0.302566
vn 0.14638768 0.9659064 -0.21353114
vn -0.14638773 0.9659064 -0.21353132
vn 0.44135892 0.84364265 0.30572775
vn 0.67237556 0.68524 0.27992406
vn 0.44778246 0.8819885 -0.14692509
vn 0.16677645 0.93842393 0.30256596
vn 0.14638768 0.9659064 -0.21353114
vn -0.12955788 -0.6989264 0.703361
vn -0.13022652 -0.8292588 0.5434802
vn -0.4038762 -0.76708424 0.49846342
vn -0.36322573 -0.6510535 0.6664806
vn 0.36322567 -0.6510533 0.6664808
vn 0.40387622 -0.7670841 0.4984635
vn 0.13022642 -0.8292588 0.5434803
vn 0.12955791 -0.6989264 0.703361
vn 0.67237556 0.68524 0.27992406
vn 0.6227023 0.63481295 0.45744342
vn 0.39634246 0.76692337 0.5047189
vn 0.44135892 0.84364265 0.30572775
vn 0.12672678 0.82914144 0.54448575
vn 0.16677645 0.93842393 0.30256596
vn -0.39634228 0.76692355 0.5047189
vn -0.16677637 0.93842393 0.302566
vn -0.12672667 0.82914144 0.5444858
vn -0.4413588 0.84364265 0.30572775
vn -0.62270236 0.6348128 0.4574435
vn -0.67237556 0.68523985 0.27992412
vn -0.9500942 0.16312137 0.26591796
vn -0.8339925 0.1451704 0.5323365
vn -0.8379842 -0.139619 0.5275311
vn -0.9511579 -0.16358511 0.26179868
vn -0.87755436 0.44471148 -0.17924851
vn -0.6056001 0.3487024 -0.71530074
vn -0.5541679 0.5697575 -0.60685605
vn -0.7151904 0.6925883 -0.09393603
vn 0.7054737 -0.14227109 0.69430965
vn 0.8379842 -0.13961878 0.52753115
vn 0.7655643 -0.42111045 0.4863922
vn 0.6538835 -0.37939972 0.6545932
vn -0.9511579 -0.16358511 0.26179868
vn -0.95990086 -0.18129082 -0.21383145
vn -0.96107525 0.17338875 -0.21510611
vn -0.9500942 0.16312137 0.26591796
vn 0.6449293 0.39134708 0.65644
vn 0.7620543 0.4208714 0.49207777
vn 0.83399236 0.14517058 0.5323365
vn 0.70071393 0.14410745 0.69873667
vn -0.67237556 0.68523985 0.27992412
vn -0.62270236 0.6348128 0.4574435
vn -0.76205456 0.42087114 0.49207756
vn -0.8432216 0.4632134 0.27278313
vn -0.7151904 0.6925883 -0.09393603
vn -0.8339925 0.1451704 0.5323365
vn -0.87755436 0.44471148 -0.17924851
vn -0.9500942 0.16312137 0.26591796
vn -0.96107525 0.17338875 -0.21510611
vn -0.76556444 -0.42111018 0.4863922
vn -0.9511579 -0.16358511 0.26179868
vn -0.8379842 -0.139619 0.5275311
vn -0.83856493 -0.47000667 0.2755043
vn -0.95990086 -0.18129082 -0.21383145
vn -0.87592643 -0.45347527 -0.16466086
vn -0.71130997 -0.69705975 -0.090254046
vn -0.66436857 -0.69596106 0.27249333
vn -0.6273166 -0.6339057 0.4523686
vn 0.4802803 -0.14319474 0.8653473
vn 0.16504513 -0.15336962 0.97428846
vn 0.16462559 0.16129713 0.97307837
vn 0.47813156 0.14829957 0.8656774
vn 0.13545617 0.46930632 0.87258416
vn 0.42240724 0.43373176 0.795895
vn 0.16462559 0.16129713 0.97307837
vn -0.13545622 0.46930635 0.87258416
vn -0.16462567 0.16129711 0.97307837
vn -0.42240694 0.4337318 0.7958952
vn -0.4781315 0.14829956 0.8656775
vn -0.16504525 -0.15336958 0.97428846
vn -0.4802805 -0.14319472 0.86534727
vn -0.13411185 -0.47015682 0.872334
vn -0.42397425 -0.4262968 0.7990725
vn -0.9993573 0 -0.035847154
vn -0.99176675 0.0007885609 -0.12805498
vn -0.0005065785 0.99169946 -0.1285769
vn -0 0.9993574 -0.035845604
vn 0.9923874 0.0031089615 -0.12311595
vn 0.99935716 0 -0.0358494
vn -0.00031228637 -0.9922897 -0.123939574
vn -0 -0.99935704 -0.035855036
vn -0.9993573 0 -0.035847154
vn -0.99176675 0.0007885609 -0.12805498
vn -0.99968433 0.0005011854 -0.025117915
vn -0 -0.99935704 -0.035855036
vn -0.000115437135 -0.99968433 -0.02512346
vn 0.99968433 0.00050102035 -0.025119875
vn 0.99935716 0 -0.0358494
vn -0 0.9993574 -0.035845604
vn -0.00011560257 0.9996846 -0.025114994
vn -0.9993573 0 -0.035847154
vn -0.99968433 0.0005011854 -0.025117915
vn -0.8263768 0.00063381926 -0.5631172
vn -0.00038862057 0.8269492 -0.56227654
vn -0.0005065785 0.99169946 -0.1285769
vn -0.00031228637 -0.9922897 -0.123939574
vn 0.8301818 0.0065727634 -0.5574541
vn 0.010532644 -0.8305546 -0.55683756
vn 0.9923874 0.0031089615 -0.12311595
vn -0.10930786 0.30701536 -0.9454064
vn -0.2748784 0.2826921 -0.91898155
vn -0.30862126 0.10841749 -0.94498605
vn -0.1025925 0.1004638 -0.9896372
vn 0.13171777 -0.8021678 -0.5823891
vn 0.9693442 -0.10729524 -0.22104186
vn 0.8465628 0.08301244 -0.52577585
vn 0.12826733 -0.547807 -0.8267134
vn -0.5754593 -0.6695659 -0.4696042
vn 0.12826733 -0.547807 -0.8267134
vn -0.24097697 -0.30217484 -0.92229086
vn 0.0062917224 -0.05069752 -0.99869424
vn -0.015743628 -0.8161648 -0.5776046
vn 0.68065083 0.48560798 -0.548543
vn 0.8465628 0.08301244 -0.52577585
vn 0.12826733 -0.547807 -0.8267134
vn 0.46192926 0.32669038 -0.82455736
vn 0.5576532 -0.67810607 -0.47874323
vn 0.0062917224 -0.05069752 -0.99869424
vn 0.23859769 -0.3035819 -0.9224473
vn -0.14464085 -0.7969046 -0.58653384
vn -0.14645384 -0.5399962 -0.82882774
vn -0.44316766 0.3331639 -0.8322284
vn -0.84267247 0.11522675 -0.52595246
vn -0.66100883 0.51317066 -0.54746985
vn -0.8104823 0.56438047 0.15682177
vn -0.98908174 0.08422795 -0.12092557
vn -0.974326 -0.07566053 -0.21204758
vn -0.84267247 0.11522675 -0.52595246
vn -0.14464085 -0.7969046 -0.58653384
vn -0.14645384 -0.5399962 -0.82882774
vn -0.80150086 -0.47544852 -0.36269137
vn -0.44316766 0.3331639 -0.8322284
vn -0.640905 0.06071551 -0.7652153
vn -0.98645043 0.14205766 -0.0820675
vn -0.85018486 0.33666778 -0.40477222
vn -0.15696143 0.98272175 -0.098086946
vn 0.23072474 0.9013204 -0.3665891
vn -0 0.77867055 -0.62743294
vn -0.44316766 0.3331639 -0.8322284
vn -0 0.77867055 -0.62743294
vn 0.46192926 0.32669038 -0.82455736
vn -0.24587412 0.89345175 -0.37588552
vn 0.6553748 0.07537876 -0.75153303
vn 0.13710149 0.98562324 -0.09874134
vn 0.13220704 0.93636066 0.32519218
vn -0.5773523 0.7726345 0.26400807
vn -0 0.77867055 -0.62743294
vn -0.028979953 0.9481462 0.3165104
vn 0.54422784 0.78970367 0.28316805
vn 0.23072474 0.9013204 -0.3665891
vn -0.16023447 0.9306476 0.32896817
vn 0.8474742 0.36764997 -0.38291138
vn 0.81858736 -0.44726145 -0.36037746
vn 0.98196155 0.17461906 -0.07252353
vn 0.98895746 0.07549836 -0.1275268
vn 0.8331964 0.53365636 0.14489512
vn 0.68065083 0.48560798 -0.548543
vn 0.8465628 0.08301244 -0.52577585
vn 0.9693442 -0.10729524 -0.22104186
vn -0.98645043 0.14205766 -0.0820675
vn -0.85018486 0.33666778 -0.40477222
vn -0.15696143 0.98272175 -0.098086946
vn 0.13710149 0.98562324 -0.09874134
vn 0.8474742 0.36764997 -0.38291138
vn 0.13220704 0.93636066 0.32519218
vn 0.1281867 0.6986426 0.70389384
vn 0.12672678 0.82914144 0.54448575
vn 0.39634246 0.76692337 0.5047189
vn 0.35972905 0.65655077 0.6629752
vn 0.005559936 0.0015839211 -0.9999833
vn 0.8301818 0.0065727634 -0.5574541
vn -0.00038862057 0.8269492 -0.56227654
vn -0.8263768 0.00063381926 -0.5631172
vn 0.010532644 -0.8305546 -0.55683756
vn -0.005624625 0.0015885377 -0.99998295
vn 0.00038736654 0.8269501 -0.5622752
vn -0.8301951 0.00657327 -0.5574341
vn -0.010533333 -0.83055407 -0.5568384
vn 0.8263639 0.00063341804 -0.56313604
vn -0.0056746714 0.0014981522 -0.99998283
vn 5.091167E-05 0.8256008 -0.56425464
vn -0.82974374 0.005679969 -0.55811566
vn 0.82548386 -0.00028595663 -0.5644257
vn -0.010864538 -0.8303245 -0.5571743
vn 0.0056451596 0.0015135655 -0.99998295
vn -5.1340037E-05 0.8256041 -0.5642499
vn -0.8254898 -0.00028581676 -0.56441694
vn 0.010863917 -0.830321 -0.55717933
vn 0.82973766 0.005679913 -0.5581247
vn -0 -0.99935704 -0.035855025
vn -0.99935716 0 -0.035849474
vn -0.99968433 0.0005009662 -0.025119852
vn -0 0.9993573 -0.035845805
vn 0.00011559978 -0.99968433 -0.025123445
vn 0.00011565683 0.9996846 -0.025115088
vn 0.99968433 0.0005011311 -0.025118032
vn 0.9993573 0 -0.035847295
vn -7.494627E-05 -0.9993579 -0.035829853
vn -0.99935263 -0.00034917632 -0.03597417
vn -0.99968016 -0.004220899 -0.024935039
vn -7.746709E-05 0.99934524 -0.036179308
vn 0.00025552214 -0.99968815 -0.024972478
vn 0.00025312477 0.999691 -0.024855735
vn 0.99968123 -0.004223134 -0.024890779
vn 0.99935216 -0.00035039123 -0.035989285
vn 7.505403E-05 -0.9993579 -0.035829924
vn 0.99968016 -0.004220791 -0.02493509
vn 0.99935263 -0.0003491224 -0.035974197
vn 7.7332224E-05 0.99934524 -0.03617936
vn -0.0002554133 -0.99968815 -0.024972502
vn -0.00025312472 0.999691 -0.024855666
vn -0.99935216 -0.00035058 -0.035989396
vn -0.99968123 -0.0042234063 -0.024890695
vn -0.9987424 -0.0365992 0.034268007
vn -0.99865025 0.011365784 0.050681155
vn -0.994385 -0.035414867 0.09972115
vn -0.9950536 -0.08414108 0.052808337
vn -0.9947547 0.029942378 0.09780915
vn -0.9897682 -0.1005471 0.1012384
vn -0.9891984 0.013709988 0.1459406
vn -0.9855135 -0.08163515 0.14865685
vn -0.9857713 -0.033407144 0.16473873
vn 0.9987424 -0.0365992 0.034268007
vn 0.994385 -0.035414807 0.09972114
vn 0.99865025 0.011366062 0.050681155
vn 0.9950536 -0.08414108 0.052808337
vn 0.9947547 0.029942654 0.09780915
vn 0.9897682 -0.10054711 0.1012384
vn 0.9891984 0.013709988 0.1459406
vn 0.9855135 -0.081635155 0.14865685
vn 0.9857713 -0.033407144 0.16473873
vn 0.8263639 0.00063341804 -0.56313604
vn -0.010533333 -0.83055407 -0.5568384
vn 0.0003152927 -0.9922897 -0.12393991
vn -0.8301951 0.00657327 -0.5574341
vn 0.9917658 0.00078841107 -0.12806244
vn -0.9923883 0.0031089769 -0.123108216
vn 0.00038736654 0.8269501 -0.5622752
vn 0.00050954515 0.99169946 -0.12857634
vn 0.82548386 -0.00028595663 -0.5644257
vn -0.010864538 -0.8303245 -0.5571743
vn 6.414578E-05 -0.9922685 -0.124110155
vn -0.82974374 0.005679969 -0.55811566
vn 0.9915447 0 -0.12976494
vn -0.9922976 0.0023354683 -0.12385464
vn 5.091167E-05 0.8256008 -0.56425464
vn 0.00026213162 0.99131083 -0.13154016
vn -6.272718E-05 -0.99226826 -0.12411217
vn -0.9915452 0 -0.12976159
vn -0.99935216 -0.00035058 -0.035989396
vn -0.00026077766 0.9913111 -0.13153812
vn 7.505403E-05 -0.9993579 -0.035829924
vn 7.7332224E-05 0.99934524 -0.03617936
vn 0.99935263 -0.0003491224 -0.035974197
vn 0.99229723 0.0023345572 -0.12385805
vn 0.97959375 0.11851601 -0.16232727
vn -0 -0.7453593 -0.66666305
vn 0.98822683 0.06358703 -0.13915598
vn -0 0.85837203 0.51302785
vn -0 -0.71955633 -0.69443405
vn -0.98822683 0.06358713 -0.13915609
vn -0 0.87760365 0.47938684
vn -0.97959375 0.11851641 -0.16232666
vn 0.8921596 0.26848948 -0.36326957
vn -0 0.965483 0.26046595
vn -0 -0.54294384 -0.839769
vn -0.89215916 0.26849204 -0.36326835
vn -0 0.5846025 -0.8113198
vn 0.00050954515 0.99169946 -0.12857634
vn -0.99935716 0 -0.035849474
vn -0.9923883 0.0031089769 -0.123108216
vn -0 0.9993573 -0.035845805
vn -0 -0.99935704 -0.035855025
vn 0.9917658 0.00078841107 -0.12806244
vn 0.0003152927 -0.9922897 -0.12393991
vn 0.9993573 0 -0.035847295
vn 0.00026213162 0.99131083 -0.13154016
vn -0.99935263 -0.00034917632 -0.03597417
vn -0.9922976 0.0023354683 -0.12385464
vn -7.746709E-05 0.99934524 -0.036179308
vn -7.494627E-05 -0.9993579 -0.035829853
vn 0.9915447 0 -0.12976494
vn 6.414578E-05 -0.9922685 -0.124110155
vn 0.99935216 -0.00035039123 -0.035989285
vn -0.00026077766 0.9913111 -0.13153812
vn 0.82973766 0.005679913 -0.5581247
vn 0.99229723 0.0023345572 -0.12385805
vn -5.1340037E-05 0.8256041 -0.5642499
vn 0.010863917 -0.830321 -0.55717933
vn -0.9915452 0 -0.12976159
vn -6.272718E-05 -0.99226826 -0.12411217
vn -0.8254898 -0.00028581676 -0.56441694
vn -0.6621989 0.53493637 -0.5247243
vn -0.8835867 0.34777412 -0.31357244
vn -0.8812772 -0.04551804 -0.4704026
vn -0.67537487 -0.043664057 -0.73618084
vn -0.62810576 0.77705467 0.04085659
vn -0.85311466 -0.43004403 -0.29539385
vn -0.84843343 0.52472115 0.069486804
vn -0.6173846 -0.6089682 -0.49798983
vn -0.5497147 0.56596524 0.6144079
vn -0.80493337 -0.5856398 0.0954381
vn -0.8071003 0.36887342 0.46100053
vn -0.5654974 -0.8210337 0.07820693
vn -0.5182304 -0.0003151402 0.855241
vn -0.7766282 -0.40894464 0.4791795
vn -0.7720905 -0.015399337 0.635326
vn -0.50490034 -0.5779384 0.6411418
vn 0.66219896 0.53493625 -0.5247244
vn 0.8812772 -0.045518078 -0.47040266
vn 0.8835867 0.34777412 -0.3135725
vn 0.67537487 -0.043664105 -0.7361808
vn 0.6281057 0.77705467 0.04085647
vn 0.85311466 -0.43004408 -0.29539382
vn 0.84843343 0.52472115 0.069486745
vn 0.61738455 -0.60896826 -0.49798983
vn 0.5497145 0.56596535 0.6144081
vn 0.80493325 -0.58563983 0.09543819
vn 0.8071003 0.3688734 0.46100068
vn 0.5654972 -0.8210338 0.0782071
vn 0.5182302 -0.00031507976 0.85524106
vn 0.77662826 -0.40894452 0.47917953
vn 0.77209044 -0.015399285 0.63532615
vn 0.5049003 -0.5779384 0.6411419
vn 0.6800765 0.70338804 -0.20673938
vn 0.19588745 0.67334133 -0.7129092
vn 0.57794476 0.5600066 -0.5936098
vn 0.68281734 0.18223748 -0.7074955
vn 0.20067716 0.9532946 -0.2257392
vn -0.20067778 0.95329446 -0.22573905
vn 0.6816731 0.7042429 0.19840325
vn 0.95490366 0.20067564 -0.21883391
vn 0.20106812 0.9565065 0.21134524
vn 0.21765915 0.19691369 -0.95595473
vn 0.6841713 -0.17850846 -0.707138
vn -0.19589792 0.67332035 -0.71292603
vn 0.5801475 0.5645398 0.58713174
vn 0.95501876 0.18887147 0.22861926
vn 0.95048964 -0.21084368 0.22828579
vn 0.95553017 -0.21236348 -0.20460631
vn 0.69314605 -0.6959048 -0.18779008
vn 0.6994386 0.1707182 0.6940036
vn 0.21841528 -0.18751152 -0.9576712
vn -0.2176158 0.19693942 -0.9559593
vn 0.57865024 -0.55930233 -0.5935865
vn 0.19693838 -0.6721405 -0.71375245
vn -0.21837683 -0.18753344 -0.9576757
vn -0.6827417 0.18220094 -0.70757794
vn -0.68409383 -0.17847349 -0.7072219
vn -0.19695199 -0.6721174 -0.71377033
vn 0.20120573 -0.95525116 -0.216821
vn -0.57792324 0.5599863 -0.5936498
vn -0.68007576 0.70338875 -0.20673946
vn -0.95490366 0.20067541 -0.21883443
vn 0.20056614 -0.95464414 0.22006299
vn -0.20120579 -0.9552511 -0.21682169
vn 0.7000061 -0.68393874 0.20547299
vn 0.6046422 -0.54753494 0.5784577
vn 0.7098639 -0.17975837 0.681014
vn 0.22116473 -0.18853895 0.9568382
vn 0.1976574 -0.67080814 0.7148063
vn -0.20056579 -0.9546444 0.22006266
vn -0.69314605 -0.6959045 -0.18779112
vn 0.22043781 0.19751017 0.9551947
vn -0.5786269 -0.55928 -0.5936302
vn -0.95553017 -0.21236342 -0.20460673
vn -0.95048976 -0.21084347 0.22828554
vn -0.7000061 -0.6839389 0.20547254
vn -0.19764315 -0.67083156 0.71478814
vn -0.22120613 -0.18851645 0.95683306
vn -0.60466456 -0.54755795 0.57841265
vn -0.95501876 0.18887155 0.22861917
vn -0.70994055 -0.17979531 0.6809244
vn -0.2204808 0.19748387 0.95519024
vn -0.69951606 0.17075561 0.69391626
vn -0.6816723 0.7042435 0.19840369
vn -0.5801693 0.56456125 0.58708966
vn -0.20106848 0.9565064 0.21134537
vn -0.19734052 0.6804894 0.70568466
vn 0.19735138 0.68046725 0.7057029
g Tortoise_LOD2_0
f 3/3/3 2/2/2 1/1/1
f 6/6/6 5/5/5 4/4/4
f 9/9/9 8/8/8 7/7/7
f 12/12/12 11/11/11 10/10/10
f 15/15/15 14/14/14 13/13/13
f 18/18/18 17/17/17 16/16/16
f 21/21/21 20/20/20 19/19/19
f 24/24/24 23/23/23 22/22/22
f 27/27/27 26/26/26 25/25/25
f 30/30/30 29/29/29 28/28/28
f 33/33/33 32/32/32 31/31/31
f 36/36/36 35/35/35 34/34/34
f 39/39/39 38/38/38 37/37/37
f 42/42/42 41/41/41 40/40/40
f 45/45/45 44/44/44 43/43/43
f 48/48/48 47/47/47 46/46/46
f 51/51/51 50/50/50 49/49/49
f 52/52/52 51/51/51 49/49/49
f 49/49/49 53/53/53 52/52/52
f 54/54/54 51/51/51 52/52/52
f 53/53/53 55/55/55 52/52/52
f 55/55/55 54/54/54 52/52/52
f 58/58/58 57/57/57 56/56/56
f 59/59/59 58/58/58 56/56/56
f 60/60/60 58/58/58 59/59/59
f 61/61/61 60/60/60 59/59/59
f 61/61/61 59/59/59 56/56/56
f 62/62/62 61/61/61 56/56/56
f 65/65/65 64/64/64 63/63/63
f 66/66/66 65/65/65 63/63/63
f 66/66/66 63/63/63 67/67/67
f 68/68/68 65/65/65 66/66/66
f 69/69/69 66/66/66 67/67/67
f 69/69/69 68/68/68 66/66/66
f 72/72/72 71/71/71 70/70/70
f 73/73/73 72/72/72 70/70/70
f 73/73/73 70/70/70 74/74/74
f 73/73/73 74/74/74 72/72/72
f 70/70/70 75/75/75 74/74/74
f 74/74/74 76/76/76 72/72/72
f 79/79/79 78/78/78 77/77/77
f 80/80/80 79/79/79 77/77/77
f 82/82/82 80/80/80 81/81/81
f 80/80/80 83/83/83 81/81/81
f 81/81/81 83/83/83 84/84/84
f 83/83/83 85/85/85 84/84/84
f 83/83/83 86/86/86 85/85/85
f 86/86/86 87/87/87 85/85/85
f 87/87/87 88/88/88 85/85/85
f 88/88/88 89/89/89 85/85/85
f 89/89/89 88/88/88 90/90/90
f 88/88/88 91/91/91 90/90/90
f 85/85/85 89/89/89 92/92/92
f 93/93/93 85/85/85 92/92/92
f 92/92/92 89/89/89 94/94/94
f 89/89/89 95/95/95 94/94/94
f 94/94/94 95/95/95 96/96/96
f 95/95/95 97/97/97 96/96/96
f 95/95/95 99/99/99 98/98/98
f 99/99/99 100/100/100 98/98/98
f 102/102/102 98/98/98 101/101/101
f 98/98/98 103/103/103 101/101/101
f 101/101/101 103/103/103 104/104/104
f 103/103/103 105/105/105 104/104/104
f 105/105/105 103/103/103 106/106/106
f 103/103/103 107/107/107 106/106/106
f 106/106/106 108/108/108 105/105/105
f 108/108/108 109/109/109 105/105/105
f 109/109/109 108/108/108 110/110/110
f 105/105/105 109/109/109 111/111/111
f 112/112/112 105/105/105 111/111/111
f 113/113/113 109/109/109 110/110/110
f 110/110/110 114/114/114 113/113/113
f 114/114/114 115/115/115 113/113/113
f 113/113/113 115/115/115 116/116/116
f 109/109/109 113/113/113 117/117/117
f 117/117/117 113/113/113 116/116/116
f 117/117/117 116/116/116 118/118/118
f 119/119/119 109/109/109 117/117/117
f 120/120/120 117/117/117 118/118/118
f 119/119/119 117/117/117 120/120/120
f 121/121/121 119/119/119 120/120/120
f 124/124/124 123/123/123 122/122/122
f 123/123/123 125/125/125 122/122/122
f 125/125/125 126/126/126 122/122/122
f 126/126/126 127/127/127 122/122/122
f 130/130/130 129/129/129 128/128/128
f 131/131/131 130/130/130 128/128/128
f 134/134/134 133/133/133 132/132/132
f 135/135/135 134/134/134 132/132/132
f 138/138/138 137/137/137 136/136/136
f 139/139/139 138/138/138 136/136/136
f 138/138/138 141/141/141 140/140/140
f 141/141/141 142/142/142 140/140/140
f 145/145/145 144/144/144 143/143/143
f 146/146/146 145/145/145 143/143/143
f 148/148/148 147/147/147 143/143/143
f 149/149/149 148/148/148 143/143/143
f 152/152/152 151/151/151 150/150/150
f 153/153/153 152/152/152 150/150/150
f 156/156/156 155/155/155 154/154/154
f 157/157/157 156/156/156 154/154/154
f 159/159/159 158/158/158 154/154/154
f 158/158/158 160/160/160 154/154/154
f 157/157/157 162/162/162 161/161/161
f 162/162/162 163/163/163 161/161/161
f 162/162/162 160/160/160 164/164/164
f 165/165/165 162/162/162 164/164/164
f 168/168/168 167/167/167 166/166/166
f 167/167/167 169/169/169 166/166/166
f 169/169/169 170/170/170 166/166/166
f 170/170/170 171/171/171 166/166/166
f 174/174/174 173/173/173 172/172/172
f 173/173/173 175/175/175 172/172/172
f 173/173/173 176/176/176 175/175/175
f 176/176/176 177/177/177 175/175/175
f 180/180/180 179/179/179 178/178/178
f 179/179/179 181/181/181 178/178/178
f 181/181/181 183/183/183 182/182/182
f 184/184/184 181/181/181 182/182/182
f 187/187/187 186/186/186 185/185/185
f 186/186/186 188/188/188 185/185/185
f 190/190/190 188/188/188 189/189/189
f 191/191/191 190/190/190 189/189/189
f 194/194/194 193/193/193 192/192/192
f 195/195/195 194/194/194 192/192/192
f 198/198/198 197/197/197 196/196/196
f 199/199/199 198/198/198 196/196/196
f 202/202/202 201/201/201 200/200/200
f 203/203/203 202/202/202 200/200/200
f 202/202/202 205/205/205 204/204/204
f 205/205/205 206/206/206 204/204/204
f 209/209/209 208/208/208 207/207/207
f 210/210/210 209/209/209 207/207/207
f 207/207/207 211/211/211 210/210/210
f 211/211/211 212/212/212 210/210/210
f 215/215/215 214/214/214 213/213/213
f 216/216/216 215/215/215 213/213/213
f 216/216/216 213/213/213 217/217/217
f 218/218/218 216/216/216 217/217/217
f 216/216/216 219/219/219 215/215/215
f 219/219/219 220/220/220 215/215/215
f 221/221/221 220/220/220 219/219/219
f 222/222/222 221/221/221 219/219/219
f 222/222/222 219/219/219 223/223/223
f 224/224/224 222/222/222 223/223/223
f 219/219/219 226/226/226 225/225/225
f 227/227/227 219/219/219 225/225/225
f 213/213/213 80/80/80 228/228/228
f 229/229/229 213/213/213 228/228/228
f 229/229/229 228/228/228 230/230/230
f 231/231/231 229/229/229 230/230/230
f 218/218/218 229/229/229 231/231/231
f 232/232/232 218/218/218 231/231/231
f 234/234/234 222/222/222 233/233/233
f 235/235/235 234/234/234 233/233/233
f 222/222/222 237/237/237 236/236/236
f 237/237/237 238/238/238 236/236/236
f 236/236/236 238/238/238 239/239/239
f 240/240/240 238/238/238 237/237/237
f 241/241/241 240/240/240 237/237/237
f 238/238/238 242/242/242 239/239/239
f 242/242/242 238/238/238 240/240/240
f 239/239/239 242/242/242 243/243/243
f 244/244/244 242/242/242 240/240/240
f 242/242/242 245/245/245 243/243/243
f 245/245/245 242/242/242 244/244/244
f 246/246/246 245/245/245 244/244/244
f 243/243/243 245/245/245 247/247/247
f 245/245/245 248/248/248 247/247/247
f 248/248/248 245/245/245 249/249/249
f 250/250/250 248/248/248 249/249/249
f 253/253/253 252/252/252 251/251/251
f 254/254/254 253/253/253 251/251/251
f 257/257/257 256/256/256 255/255/255
f 256/256/256 258/258/258 255/255/255
f 255/255/255 258/258/258 259/259/259
f 258/258/258 260/260/260 259/259/259
f 263/263/263 262/262/262 261/261/261
f 264/264/264 263/263/263 261/261/261
f 267/267/267 266/266/266 265/265/265
f 268/268/268 267/267/267 265/265/265
f 268/268/268 265/265/265 269/269/269
f 265/265/265 270/270/270 269/269/269
f 273/273/273 272/272/272 271/271/271
f 272/272/272 274/274/274 271/271/271
f 274/274/274 272/272/272 275/275/275
f 272/272/272 276/276/276 275/275/275
f 279/279/279 278/278/278 277/277/277
f 278/278/278 280/280/280 277/277/277
f 281/281/281 277/277/277 280/280/280
f 282/282/282 281/281/281 280/280/280
f 283/283/283 281/281/281 282/282/282
f 284/284/284 283/283/283 282/282/282
f 283/283/283 284/284/284 285/285/285
f 284/284/284 286/286/286 285/285/285
f 287/287/287 285/285/285 286/286/286
f 288/288/288 287/287/287 286/286/286
f 291/291/291 290/290/290 289/289/289
f 290/290/290 292/292/292 289/289/289
f 289/289/289 292/292/292 293/293/293
f 292/292/292 294/294/294 293/293/293
f 297/297/297 296/296/296 295/295/295
f 298/298/298 297/297/297 295/295/295
f 301/301/301 300/300/300 299/299/299
f 302/302/302 301/301/301 299/299/299
f 299/299/299 303/303/303 302/302/302
f 304/304/304 301/301/301 302/302/302
f 303/303/303 305/305/305 302/302/302
f 306/306/306 304/304/304 302/302/302
f 306/306/306 302/302/302 305/305/305
f 307/307/307 306/306/306 305/305/305
f 310/310/310 309/309/309 308/308/308
f 311/311/311 310/310/310 308/308/308
f 314/314/314 313/313/313 312/312/312
f 315/315/315 314/314/314 312/312/312
f 312/312/312 316/316/316 315/315/315
f 316/316/316 317/317/317 315/315/315
f 319/319/319 102/102/102 318/318/318
f 102/102/102 320/320/320 318/318/318
f 318/318/318 320/320/320 321/321/321
f 320/320/320 322/322/322 321/321/321
f 325/325/325 324/324/324 323/323/323
f 326/326/326 325/325/325 323/323/323
f 329/329/329 328/328/328 327/327/327
f 330/330/330 329/329/329 327/327/327
f 333/333/333 332/332/332 331/331/331
f 334/334/334 333/333/333 331/331/331
f 333/333/333 334/334/334 335/335/335
f 334/334/334 336/336/336 335/335/335
f 339/339/339 338/338/338 337/337/337
f 338/338/338 340/340/340 337/337/337
f 341/341/341 337/337/337 340/340/340
f 342/342/342 341/341/341 340/340/340
f 345/345/345 344/344/344 343/343/343
f 346/346/346 345/345/345 343/343/343
f 349/349/349 348/348/348 347/347/347
f 350/350/350 349/349/349 347/347/347
f 353/353/353 352/352/352 351/351/351
f 354/354/354 353/353/353 351/351/351
f 357/357/357 356/356/356 355/355/355
f 358/358/358 357/357/357 355/355/355
f 361/361/361 360/360/360 359/359/359
f 362/362/362 361/361/361 359/359/359
f 365/365/365 364/364/364 363/363/363
f 366/366/366 365/365/365 363/363/363
f 363/363/363 367/367/367 366/366/366
f 365/365/365 366/366/366 368/368/368
f 367/367/367 369/369/369 366/366/366
f 366/366/366 370/370/370 368/368/368
f 366/366/366 369/369/369 370/370/370
f 369/369/369 371/371/371 370/370/370
f 374/374/374 373/373/373 372/372/372
f 373/373/373 375/375/375 372/372/372
f 373/373/373 376/376/376 375/375/375
f 376/376/376 377/377/377 375/375/375
f 375/375/375 377/377/377 378/378/378
f 379/379/379 375/375/375 378/378/378
f 372/372/372 375/375/375 379/379/379
f 380/380/380 372/372/372 379/379/379
f 383/383/383 382/382/382 381/381/381
f 384/384/384 383/383/383 381/381/381
f 384/384/384 386/386/386 385/385/385
f 387/387/387 384/384/384 385/385/385
f 387/387/387 385/385/385 388/388/388
f 389/389/389 387/387/387 388/388/388
f 389/389/389 388/388/388 390/390/390
f 391/391/391 389/389/389 390/390/390
f 389/389/389 391/391/391 392/392/392
f 391/391/391 393/393/393 392/392/392
f 394/394/394 392/392/392 393/393/393
f 395/395/395 394/394/394 393/393/393
f 398/398/398 397/397/397 396/396/396
f 399/399/399 398/398/398 396/396/396
f 400/400/400 398/398/398 399/399/399
f 401/401/401 400/400/400 399/399/399
f 402/402/402 400/400/400 401/401/401
f 403/403/403 402/402/402 401/401/401
f 403/403/403 404/404/404 402/402/402
f 404/404/404 405/405/405 402/402/402
f 404/404/404 407/407/407 406/406/406
f 407/407/407 408/408/408 406/406/406
f 409/409/409 408/408/408 407/407/407
f 410/410/410 409/409/409 407/407/407
f 410/410/410 411/411/411 409/409/409
f 411/411/411 412/412/412 409/409/409
f 411/411/411 413/413/413 412/412/412
f 413/413/413 414/414/414 412/412/412
f 416/416/416 415/415/415 405/405/405
f 417/417/417 416/416/416 405/405/405
f 405/405/405 415/415/415 418/418/418
f 419/419/419 416/416/416 417/417/417
f 415/415/415 420/420/420 418/418/418
f 421/421/421 419/419/419 417/417/417
f 418/418/418 420/420/420 421/421/421
f 420/420/420 419/419/419 421/421/421
f 424/424/424 423/423/423 422/422/422
f 425/425/425 424/424/424 422/422/422
f 428/428/428 427/427/427 426/426/426
f 429/429/429 428/428/428 426/426/426
f 431/431/431 426/426/426 430/430/430
f 432/432/432 431/431/431 430/430/430
f 432/432/432 430/430/430 433/433/433
f 430/430/430 434/434/434 433/433/433
f 432/432/432 433/433/433 435/435/435
f 435/435/435 436/436/436 432/432/432
f 436/436/436 437/437/437 432/432/432
f 433/433/433 438/438/438 435/435/435
f 440/440/440 434/434/434 439/439/439
f 441/441/441 440/440/440 439/439/439
f 441/441/441 439/439/439 442/442/442
f 443/443/443 441/441/441 442/442/442
f 440/440/440 441/441/441 444/444/444
f 441/441/441 443/443/443 445/445/445
f 441/441/441 446/446/446 444/444/444
f 446/446/446 441/441/441 445/445/445
f 446/446/446 447/447/447 444/444/444
f 446/446/446 445/445/445 447/447/447
f 447/447/447 448/448/448 444/444/444
f 445/445/445 449/449/449 447/447/447
f 451/451/451 449/449/449 450/450/450
f 452/452/452 451/451/451 450/450/450
f 454/454/454 448/448/448 453/453/453
f 455/455/455 454/454/454 453/453/453
f 455/455/455 453/453/453 456/456/456
f 457/457/457 455/455/455 456/456/456
f 455/455/455 457/457/457 458/458/458
f 459/459/459 455/455/455 458/458/458
f 459/459/459 460/460/460 455/455/455
f 460/460/460 461/461/461 455/455/455
f 433/433/433 454/454/454 462/462/462
f 463/463/463 433/433/433 462/462/462
f 463/463/463 462/462/462 464/464/464
f 465/465/465 463/463/463 464/464/464
f 464/464/464 466/466/466 465/465/465
f 466/466/466 464/464/464 467/467/467
f 464/464/464 468/468/468 467/467/467
f 468/468/468 464/464/464 469/469/469
f 470/470/470 468/468/468 469/469/469
f 471/471/471 470/470/470 469/469/469
f 472/472/472 471/471/471 469/469/469
f 472/472/472 458/458/458 471/471/471
f 458/458/458 473/473/473 471/471/471
f 466/466/466 474/474/474 465/465/465
f 465/465/465 474/474/474 475/475/475
f 474/474/474 476/476/476 475/475/475
f 465/465/465 475/475/475 438/438/438
f 475/475/475 477/477/477 438/438/438
f 438/438/438 477/477/477 478/478/478
f 479/479/479 438/438/438 478/478/478
f 479/479/479 478/478/478 480/480/480
f 478/478/478 481/481/481 480/480/480
f 483/483/483 482/482/482 473/473/473
f 484/484/484 483/483/483 473/473/473
f 476/476/476 486/486/486 485/485/485
f 487/487/487 476/476/476 485/485/485
f 490/490/490 489/489/489 488/488/488
f 491/491/491 490/490/490 488/488/488
f 494/494/494 493/493/493 492/492/492
f 495/495/495 494/494/494 492/492/492
f 492/492/492 493/493/493 496/496/496
f 492/492/492 496/496/496 495/495/495
f 499/499/499 498/498/498 497/497/497
f 500/500/500 499/499/499 497/497/497
f 497/497/497 498/498/498 501/501/501
f 500/500/500 497/497/497 501/501/501
f 504/504/504 503/503/503 502/502/502
f 502/502/502 503/503/503 505/505/505
f 504/504/504 502/502/502 506/506/506
f 506/506/506 502/502/502 505/505/505
f 509/509/509 508/508/508 507/507/507
f 507/507/507 510/510/510 509/509/509
f 507/507/507 508/508/508 511/511/511
f 507/507/507 511/511/511 510/510/510
f 514/514/514 513/513/513 512/512/512
f 515/515/515 513/513/513 514/514/514
f 516/516/516 514/514/514 512/512/512
f 517/517/517 515/515/515 514/514/514
f 516/516/516 512/512/512 518/518/518
f 519/519/519 515/515/515 517/517/517
f 512/512/512 519/519/519 518/518/518
f 518/518/518 519/519/519 517/517/517
f 522/522/522 521/521/521 520/520/520
f 523/523/523 521/521/521 522/522/522
f 524/524/524 522/522/522 520/520/520
f 525/525/525 523/523/523 522/522/522
f 524/524/524 520/520/520 526/526/526
f 527/527/527 523/523/523 525/525/525
f 520/520/520 527/527/527 526/526/526
f 526/526/526 527/527/527 525/525/525
f 530/530/530 529/529/529 528/528/528
f 530/530/530 531/531/531 529/529/529
f 529/529/529 532/532/532 528/528/528
f 531/531/531 533/533/533 529/529/529
f 528/528/528 532/532/532 534/534/534
f 531/531/531 534/534/534 533/533/533
f 532/532/532 535/535/535 534/534/534
f 534/534/534 535/535/535 533/533/533
f 538/538/538 537/537/537 536/536/536
f 538/538/538 536/536/536 539/539/539
f 538/538/538 540/540/540 537/537/537
f 538/538/538 539/539/539 541/541/541
f 538/538/538 542/542/542 540/540/540
f 538/538/538 541/541/541 543/543/543
f 538/538/538 544/544/544 542/542/542
f 538/538/538 543/543/543 544/544/544
f 547/547/547 546/546/546 545/545/545
f 545/545/545 546/546/546 548/548/548
f 549/549/549 546/546/546 547/547/547
f 548/548/548 546/546/546 550/550/550
f 551/551/551 546/546/546 549/549/549
f 550/550/550 546/546/546 552/552/552
f 553/553/553 546/546/546 551/551/551
f 552/552/552 546/546/546 553/553/553
f 556/556/556 555/555/555 554/554/554
f 557/557/557 555/555/555 556/556/556
f 558/558/558 556/556/556 554/554/554
f 559/559/559 557/557/557 556/556/556
f 558/558/558 554/554/554 560/560/560
f 559/559/559 561/561/561 557/557/557
f 561/561/561 558/558/558 560/560/560
f 561/561/561 560/560/560 557/557/557
f 564/564/564 563/563/563 562/562/562
f 565/565/565 563/563/563 564/564/564
f 566/566/566 564/564/564 562/562/562
f 567/567/567 565/565/565 564/564/564
f 566/566/566 562/562/562 568/568/568
f 567/567/567 569/569/569 565/565/565
f 569/569/569 566/566/566 568/568/568
f 569/569/569 568/568/568 565/565/565
f 572/572/572 571/571/571 570/570/570
f 573/573/573 571/571/571 572/572/572
f 574/574/574 572/572/572 570/570/570
f 575/575/575 573/573/573 572/572/572
f 574/574/574 570/570/570 576/576/576
f 577/577/577 573/573/573 575/575/575
f 576/576/576 577/577/577 575/575/575
f 570/570/570 577/577/577 576/576/576
f 580/580/580 579/579/579 578/578/578
f 580/580/580 578/578/578 581/581/581
f 579/579/579 582/582/582 578/578/578
f 582/582/582 579/579/579 583/583/583
f 583/583/583 581/581/581 584/584/584
f 578/578/578 584/584/584 581/581/581
f 585/585/585 582/582/582 583/583/583
f 585/585/585 583/583/583 584/584/584
f 578/578/578 582/582/582 586/586/586
f 584/584/584 578/578/578 587/587/587
f 578/578/578 586/586/586 587/587/587
f 588/588/588 582/582/582 585/585/585
f 582/582/582 588/588/588 586/586/586
f 585/585/585 584/584/584 589/589/589
f 584/584/584 587/587/587 589/589/589
f 589/589/589 588/588/588 585/585/585
f 586/586/586 590/590/590 587/587/587
f 586/586/586 588/588/588 590/590/590
f 590/590/590 588/588/588 589/589/589
f 587/587/587 590/590/590 589/589/589
f 593/593/593 592/592/592 591/591/591
f 592/592/592 594/594/594 591/591/591
f 595/595/595 592/592/592 593/593/593
f 591/591/591 594/594/594 596/596/596
f 597/597/597 595/595/595 593/593/593
f 594/594/594 598/598/598 596/596/596
f 598/598/598 595/595/595 597/597/597
f 596/596/596 598/598/598 597/597/597
f 601/601/601 600/600/600 599/599/599
f 600/600/600 602/602/602 599/599/599
f 603/603/603 600/600/600 601/601/601
f 599/599/599 602/602/602 604/604/604
f 605/605/605 603/603/603 601/601/601
f 602/602/602 606/606/606 604/604/604
f 606/606/606 603/603/603 605/605/605
f 604/604/604 606/606/606 605/605/605
f 609/609/609 608/608/608 607/607/607
f 608/608/608 610/610/610 607/607/607
f 611/611/611 608/608/608 609/609/609
f 607/607/607 610/610/610 612/612/612
f 613/613/613 611/611/611 609/609/609
f 610/610/610 614/614/614 612/612/612
f 614/614/614 611/611/611 613/613/613
f 612/612/612 614/614/614 613/613/613
f 617/617/617 616/616/616 615/615/615
f 618/618/618 617/617/617 615/615/615
f 615/615/615 616/616/616 619/619/619
f 620/620/620 617/617/617 618/618/618
f 616/616/616 621/621/621 619/619/619
f 622/622/622 620/620/620 618/618/618
f 619/619/619 621/621/621 623/623/623
f 624/624/624 620/620/620 622/622/622
f 621/621/621 625/625/625 623/623/623
f 626/626/626 624/624/624 622/622/622
f 623/623/623 625/625/625 627/627/627
f 628/628/628 624/624/624 626/626/626
f 625/625/625 629/629/629 627/627/627
f 630/630/630 628/628/628 626/626/626
f 627/627/627 629/629/629 630/630/630
f 629/629/629 628/628/628 630/630/630
f 633/633/633 632/632/632 631/631/631
f 632/632/632 634/634/634 631/631/631
f 633/633/633 631/631/631 635/635/635
f 632/632/632 636/636/636 634/634/634
f 637/637/637 633/633/633 635/635/635
f 636/636/636 638/638/638 634/634/634
f 637/637/637 635/635/635 639/639/639
f 636/636/636 640/640/640 638/638/638
f 641/641/641 637/637/637 639/639/639
f 640/640/640 642/642/642 638/638/638
f 641/641/641 639/639/639 643/643/643
f 640/640/640 644/644/644 642/642/642
f 645/645/645 641/641/641 643/643/643
f 644/644/644 646/646/646 642/642/642
f 645/645/645 643/643/643 646/646/646
f 644/644/644 645/645/645 646/646/646
f 649/649/649 648/648/648 647/647/647
f 650/650/650 649/649/649 647/647/647
f 648/648/648 649/649/649 650/650/650
f 648/648/648 651/651/651 647/647/647
f 652/652/652 651/651/651 648/648/648
f 647/647/647 651/651/651 653/653/653
f 654/654/654 650/650/650 647/647/647
f 654/654/654 647/647/647 653/653/653
f 655/655/655 651/651/651 652/652/652
f 651/651/651 655/655/655 653/653/653
f 656/656/656 648/648/648 650/650/650
f 650/650/650 654/654/654 657/657/657
f 650/650/650 657/657/657 656/656/656
f 658/658/658 652/652/652 648/648/648
f 658/658/658 648/648/648 656/656/656
f 653/653/653 655/655/655 659/659/659
f 660/660/660 654/654/654 653/653/653
f 660/660/660 653/653/653 659/659/659
f 660/660/660 661/661/661 654/654/654
f 654/654/654 662/662/662 657/657/657
f 661/661/661 662/662/662 654/654/654
f 657/657/657 662/662/662 663/663/663
f 663/663/663 662/662/662 661/661/661
f 664/664/664 660/660/660 659/659/659
f 660/660/660 664/664/664 661/661/661
f 657/657/657 665/665/665 656/656/656
f 666/666/666 658/658/658 656/656/656
f 666/666/666 656/656/656 665/665/665
f 667/667/667 657/657/657 663/663/663
f 665/665/665 657/657/657 667/667/667
f 668/668/668 665/665/665 667/667/667
f 668/668/668 667/667/667 663/663/663
f 669/669/669 666/666/666 665/665/665
f 669/669/669 665/665/665 668/668/668
f 666/666/666 670/670/670 658/658/658
f 669/669/669 671/671/671 666/666/666
f 671/671/671 670/670/670 666/666/666
f 672/672/672 669/669/669 668/668/668
f 671/671/671 669/669/669 672/672/672
f 673/673/673 668/668/668 663/663/663
f 668/668/668 673/673/673 672/672/672
f 670/670/670 674/674/674 658/658/658
f 658/658/658 674/674/674 652/652/652
f 674/674/674 670/670/670 675/675/675
f 674/674/674 675/675/675 652/652/652
f 670/670/670 671/671/671 676/676/676
f 670/670/670 676/676/676 675/675/675
f 673/673/673 663/663/663 677/677/677
f 673/673/673 678/678/678 672/672/672
f 678/678/678 673/673/673 677/677/677
f 663/663/663 679/679/679 677/677/677
f 679/679/679 663/663/663 661/661/661
f 679/679/679 661/661/661 680/680/680
f 677/677/677 679/679/679 680/680/680
f 661/661/661 681/681/681 680/680/680
f 664/664/664 681/681/681 661/661/661
f 680/680/680 681/681/681 682/682/682
f 681/681/681 664/664/664 682/682/682
f 683/683/683 677/677/677 680/680/680
f 683/683/683 680/680/680 682/682/682
f 684/684/684 678/678/678 677/677/677
f 677/677/677 683/683/683 684/684/684
f 672/672/672 678/678/678 685/685/685
f 678/678/678 684/684/684 685/685/685
f 664/664/664 686/686/686 682/682/682
f 686/686/686 664/664/664 659/659/659
f 687/687/687 672/672/672 685/685/685
f 687/687/687 671/671/671 672/672/672
f 671/671/671 687/687/687 688/688/688
f 687/687/687 685/685/685 688/688/688
f 671/671/671 688/688/688 676/676/676
f 689/689/689 688/688/688 685/685/685
f 676/676/676 688/688/688 689/689/689
f 684/684/684 690/690/690 685/685/685
f 690/690/690 689/689/689 685/685/685
f 683/683/683 691/691/691 684/684/684
f 690/690/690 684/684/684 691/691/691
f 682/682/682 692/692/692 683/683/683
f 692/692/692 691/691/691 683/683/683
f 693/693/693 690/690/690 691/691/691
f 689/689/689 690/690/690 693/693/693
f 691/691/691 692/692/692 693/693/693
f 694/694/694 676/676/676 689/689/689
f 675/675/675 676/676/676 694/694/694
f 695/695/695 689/689/689 693/693/693
f 692/692/692 695/695/695 693/693/693
f 689/689/689 695/695/695 694/694/694
f 692/692/692 682/682/682 696/696/696
f 682/682/682 686/686/686 696/696/696
f 697/697/697 695/695/695 692/692/692
f 695/695/695 697/697/697 694/694/694
f 696/696/696 697/697/697 692/692/692
f 698/698/698 675/675/675 694/694/694
f 652/652/652 675/675/675 698/698/698
f 694/694/694 697/697/697 699/699/699
f 697/697/697 696/696/696 699/699/699
f 698/698/698 694/694/694 699/699/699
f 700/700/700 652/652/652 698/698/698
f 700/700/700 698/698/698 699/699/699
f 700/700/700 655/655/655 652/652/652
f 696/696/696 701/701/701 699/699/699
f 701/701/701 700/700/700 699/699/699
f 696/696/696 686/686/686 701/701/701
f 700/700/700 701/701/701 655/655/655
f 686/686/686 702/702/702 701/701/701
f 701/701/701 702/702/702 655/655/655
f 702/702/702 686/686/686 659/659/659
f 655/655/655 702/702/702 659/659/659
