g trashBin
v 1.7503664 2.4739745 2.0024202
v -1.7519066 2.4739745 2.0024202
v -1.7519066 2.9750006 2.0024202
v 1.7503664 2.9750006 2.0024202
v 2.0008798 2.4739745 -1.7503664
v 2.0008798 2.4739745 1.7519066
v 2.0008798 2.9750006 1.7519066
v 2.0008798 2.9750006 -1.7503664
v -1.7519066 2.9750006 -1.6472139
v -1.5161295 1.3000004 -1.426173
v -1.5161295 1.3000004 1.422801
v -1.7519066 2.9750006 1.6487541
v -2.0024202 2.4739745 1.7519066
v -2.0024202 2.4739745 -1.7503664
v -2.0024202 2.9750006 -1.7503664
v -2.0024202 2.9750006 1.7519066
v -1.7519066 2.4739745 -2.0008798
v 1.7503664 2.4739745 -2.0008798
v 1.7503664 2.9750006 -2.0008798
v -1.7519066 2.9750006 -2.0008798
v -1.7519066 2.4739745 2.0024202
v -2.0024202 2.4739745 1.7519066
v -2.0024202 2.9750006 1.7519066
v -1.7519066 2.9750006 2.0024202
v -1.7519066 2.4739745 -2.0008798
v -2.0024202 2.4739745 -1.7503664
v -2.0024202 -0.0016858578 -1.7503664
v -1.7519066 -0.0016858578 -2.0008798
v 2.0008798 2.4739745 -1.7503664
v 1.7503664 2.4739745 -2.0008798
v 1.7503664 -0.0016858578 -2.0008798
v 2.0008798 -0.0016858578 -1.7503664
v 1.7503664 2.4739745 2.0024202
v 2.0008798 2.4739745 1.7519066
v 2.0008798 -0.0016858578 1.7519066
v 1.7503664 -0.0016858578 2.0024202
v -1.5161295 1.3000004 -1.426173
v -1.422801 1.3000004 -1.5145893
v 1.426173 1.3000004 -1.5145893
v 1.5145893 1.3000004 -1.426173
v -1.5161295 1.3000004 1.422801
v 1.5145893 1.3000004 1.422801
v -1.422801 1.3000004 1.5161295
v 1.426173 1.3000004 1.5161295
v 1.7503664 2.9750006 -1.6472139
v 1.5145893 1.3000004 -1.426173
v 1.426173 1.3000004 -1.5145893
v 1.6472139 2.9750006 -1.7503664
v -1.7519066 2.9750006 1.6487541
v -1.5161295 1.3000004 1.422801
v -1.422801 1.3000004 1.5161295
v -1.6487541 2.9750006 1.7519066
v 1.6472139 2.9750006 -1.7503664
v 1.426173 1.3000004 -1.5145893
v -1.422801 1.3000004 -1.5145893
v -1.6487541 2.9750006 -1.7503664
v -1.6487541 2.9750006 1.7519066
v -1.422801 1.3000004 1.5161295
v 1.426173 1.3000004 1.5161295
v 1.6472139 2.9750006 1.7519066
v 1.6472139 2.9750006 1.7519066
v 1.426173 1.3000004 1.5161295
v 1.5145893 1.3000004 1.422801
v 1.7503664 2.9750006 1.6487541
v -1.6487541 2.9750006 -1.7503664
v -1.422801 1.3000004 -1.5145893
v -1.5161295 1.3000004 -1.426173
v -1.7519066 2.9750006 -1.6472139
v 1.7503664 2.9750006 1.6487541
v 1.5145893 1.3000004 1.422801
v 1.5145893 1.3000004 -1.426173
v 1.7503664 2.9750006 -1.6472139
v 1.7503664 2.9750006 2.0024202
v 2.0008798 2.9750006 1.7519066
v 2.0008798 2.4739745 1.7519066
v 1.7503664 2.4739745 2.0024202
v 2.0008798 2.9750006 -1.7503664
v 1.7503664 2.9750006 -2.0008798
v 1.7503664 2.4739745 -2.0008798
v 2.0008798 2.4739745 -1.7503664
v -1.7519066 2.9750006 -2.0008798
v -2.0024202 2.9750006 -1.7503664
v -2.0024202 2.4739745 -1.7503664
v -1.7519066 2.4739745 -2.0008798
v -1.7519066 -0.0016858578 2.0024202
v -2.0024202 -0.0016858578 1.7519066
v -2.0024202 2.4739745 1.7519066
v -1.7519066 2.4739745 2.0024202
v -1.7519066 -0.0016858578 -2.0008798
v 1.7503664 -0.0016858578 -2.0008798
v 1.7503664 2.4739745 -2.0008798
v -1.7519066 2.4739745 -2.0008798
v -2.0024202 -0.0016858578 1.7519066
v -2.0024202 -0.0016858578 -1.7503664
v -2.0024202 2.4739745 -1.7503664
v -2.0024202 2.4739745 1.7519066
v 2.0008798 -0.0016858578 -1.7503664
v 2.0008798 -0.0016858578 1.7519066
v 2.0008798 2.4739745 1.7519066
v 2.0008798 2.4739745 -1.7503664
v 1.7503664 -0.0016858578 2.0024202
v -1.7519066 -0.0016858578 2.0024202
v -1.7519066 2.4739745 2.0024202
v 1.7503664 2.4739745 2.0024202
v -1.7519066 -0.0016858578 2.0024202
v 0.0016858578 -0.0016858578 -0.0016858578
v -2.0024202 -0.0016858578 1.7519066
v 1.7503664 -0.0016858578 2.0024202
v -2.0024202 -0.0016858578 -1.7503664
v 2.0008798 -0.0016858578 1.7519066
v -1.7519066 -0.0016858578 -2.0008798
v 2.0008798 -0.0016858578 -1.7503664
v 1.7503664 -0.0016858578 -2.0008798
v 1.7503664 2.9750006 1.6487541
v 2.0008798 2.9750006 1.7519066
v 1.7503664 2.9750006 2.0024202
v 1.6472139 2.9750006 1.7519066
v 1.7503664 2.9750006 -1.6472139
v -1.7519066 2.9750006 2.0024202
v 2.0008798 2.9750006 -1.7503664
v -1.6487541 2.9750006 1.7519066
v 1.6472139 2.9750006 -1.7503664
v -2.0024202 2.9750006 1.7519066
v 1.7503664 2.9750006 -2.0008798
v -1.7519066 2.9750006 1.6487541
v -1.6487541 2.9750006 -1.7503664
v -2.0024202 2.9750006 -1.7503664
v -1.7519066 2.9750006 -2.0008798
v -1.7519066 2.9750006 -1.6472139
v 1.1363635 0.12602663 -2.05
v 1.1363635 2.400294 -2.05
v -1.1379037 2.400294 -2.05
v -1.1379037 0.12602663 -2.05
vt 0.5934976 0.031775698
vt 0.5934976 0.031775698
vt 0.5934976 0.031775698
vt 0.5934976 0.031775698
vt 0.5934976 0.031775698
vt 0.5934976 0.031775698
vt 0.5934976 0.031775698
vt 0.5934976 0.031775698
vt 0.7807382 0.031775698
vt 0.7807382 0.031775698
vt 0.7807382 0.031775698
vt 0.7807382 0.031775698
vt 0.5934976 0.031775698
vt 0.5934976 0.031775698
vt 0.5934976 0.031775698
vt 0.5934976 0.031775698
vt 0.5934976 0.031775698
vt 0.5934976 0.031775698
vt 0.5934976 0.031775698
vt 0.5934976 0.031775698
vt 0.5934976 0.031775698
vt 0.5934976 0.031775698
vt 0.5934976 0.031775698
vt 0.5934976 0.031775698
vt 0.21901631 0.8431517
vt 0.21901631 0.8431517
vt 0.21901631 0.8431517
vt 0.21901631 0.8431517
vt 0.21901631 0.8431517
vt 0.21901631 0.8431517
vt 0.21901631 0.8431517
vt 0.21901631 0.8431517
vt 0.21901631 0.8431517
vt 0.21901631 0.8431517
vt 0.21901631 0.8431517
vt 0.21901631 0.8431517
vt 0.9679788 0.031775698
vt 0.9679788 0.031775698
vt 0.9679788 0.031775698
vt 0.9679788 0.031775698
vt 0.9679788 0.031775698
vt 0.9679788 0.031775698
vt 0.9679788 0.031775698
vt 0.9679788 0.031775698
vt 0.7807382 0.031775698
vt 0.7807382 0.031775698
vt 0.7807382 0.031775698
vt 0.7807382 0.031775698
vt 0.7807382 0.031775698
vt 0.7807382 0.031775698
vt 0.7807382 0.031775698
vt 0.7807382 0.031775698
vt 0.7807382 0.031775698
vt 0.7807382 0.031775698
vt 0.7807382 0.031775698
vt 0.7807382 0.031775698
vt 0.7807382 0.031775698
vt 0.7807382 0.031775698
vt 0.7807382 0.031775698
vt 0.7807382 0.031775698
vt 0.7807382 0.031775698
vt 0.7807382 0.031775698
vt 0.7807382 0.031775698
vt 0.7807382 0.031775698
vt 0.7807382 0.031775698
vt 0.7807382 0.031775698
vt 0.7807382 0.031775698
vt 0.7807382 0.031775698
vt 0.7807382 0.031775698
vt 0.7807382 0.031775698
vt 0.7807382 0.031775698
vt 0.7807382 0.031775698
vt 0.5934976 0.031775698
vt 0.5934976 0.031775698
vt 0.5934976 0.031775698
vt 0.5934976 0.031775698
vt 0.5934976 0.031775698
vt 0.5934976 0.031775698
vt 0.5934976 0.031775698
vt 0.5934976 0.031775698
vt 0.5934976 0.031775698
vt 0.5934976 0.031775698
vt 0.5934976 0.031775698
vt 0.5934976 0.031775698
vt 0.21901631 0.8431517
vt 0.21901631 0.8431517
vt 0.21901631 0.8431517
vt 0.21901631 0.8431517
vt 0.21901631 0.8431517
vt 0.21901631 0.8431517
vt 0.21901631 0.8431517
vt 0.21901631 0.8431517
vt 0.21901631 0.8431517
vt 0.21901631 0.8431517
vt 0.21901631 0.8431517
vt 0.21901631 0.8431517
vt 0.21901631 0.8431517
vt 0.21901631 0.8431517
vt 0.21901631 0.8431517
vt 0.21901631 0.8431517
vt 0.21901631 0.8431517
vt 0.21901631 0.8431517
vt 0.21901631 0.8431517
vt 0.21901631 0.8431517
vt 0.28142986 0.8431517
vt 0.28142986 0.8431517
vt 0.28142986 0.8431517
vt 0.28142986 0.8431517
vt 0.28142986 0.8431517
vt 0.28142986 0.8431517
vt 0.28142986 0.8431517
vt 0.28142986 0.8431517
vt 0.28142986 0.8431517
vt 0.5934976 0.031775698
vt 0.5934976 0.031775698
vt 0.5934976 0.031775698
vt 0.5934976 0.031775698
vt 0.5934976 0.031775698
vt 0.5934976 0.031775698
vt 0.5934976 0.031775698
vt 0.5934976 0.031775698
vt 0.5934976 0.031775698
vt 0.5934976 0.031775698
vt 0.5934976 0.031775698
vt 0.5934976 0.031775698
vt 0.5934976 0.031775698
vt 0.5934976 0.031775698
vt 0.5934976 0.031775698
vt 0.5934976 0.031775698
vt 0.37321448 0.37321448
vt 0.37321448 0.5017129
vt 0.5017129 0.5017129
vt 0.5017129 0.37321448
vn -0.015871048 0.015871048 0.99974805
vn -0.015871048 0.015871048 0.99974805
vn -0.015871048 0.015871048 0.99974805
vn -0.015871048 0.015871048 0.99974805
vn 0.999874 0.015871048 -0.00034391563
vn 0.999874 0.015871048 -0.00034391563
vn 0.999874 0.015871048 -0.00034391563
vn 0.999874 0.015871048 -0.00034391563
vn 0.98994946 0.14142141 -0
vn 0.98994946 0.14142141 -0
vn 0.98994946 0.14142141 -0
vn 0.98994946 0.14142141 -0
vn -0.999874 0.015871048 -0.00034391563
vn -0.999874 0.015871048 -0.00034391563
vn -0.999874 0.015871048 -0.00034391563
vn -0.999874 0.015871048 -0.00034391563
vn -0.015871048 0.015871048 -0.99974805
vn -0.015871048 0.015871048 -0.99974805
vn -0.015871048 0.015871048 -0.99974805
vn -0.015871048 0.015871048 -0.99974805
vn -0.7141957 0.015871048 0.6997661
vn -0.7141957 0.015871048 0.6997661
vn -0.7141957 0.015871048 0.6997661
vn -0.7141957 0.015871048 0.6997661
vn -0.7141957 0.015871048 -0.6997661
vn -0.7141957 0.015871048 -0.6997661
vn -0.7141957 0.015871048 -0.6997661
vn -0.7141957 0.015871048 -0.6997661
vn 0.7141957 0.015871048 -0.6997661
vn 0.7141957 0.015871048 -0.6997661
vn 0.7141957 0.015871048 -0.6997661
vn 0.7141957 0.015871048 -0.6997661
vn 0.7141957 0.015871048 0.6997661
vn 0.7141957 0.015871048 0.6997661
vn 0.7141957 0.015871048 0.6997661
vn 0.7141957 0.015871048 0.6997661
vn -0.015871048 0.999874 -0.00034526698
vn -0.015871048 0.999874 -0.00034526698
vn -0.015871048 0.999874 -0.00034526698
vn -0.015871048 0.999874 -0.00034526698
vn -0.015871048 0.999874 -0.00034526698
vn -0.015871048 0.999874 -0.00034526698
vn -0.015871048 0.999874 -0.00034526698
vn -0.015871048 0.999874 -0.00034526698
vn -0.68245375 0.17458117 0.7097734
vn -0.68245375 0.17458117 0.7097734
vn -0.68245375 0.17458117 0.7097734
vn -0.68245375 0.17458117 0.7097734
vn 0.68245363 0.17458117 -0.70977354
vn 0.68245363 0.17458117 -0.70977354
vn 0.68245363 0.17458117 -0.70977354
vn 0.68245363 0.17458117 -0.70977354
vn -0.015871048 0.1428392 0.98961866
vn -0.015871048 0.1428392 0.98961866
vn -0.015871048 0.1428392 0.98961866
vn -0.015871048 0.1428392 0.98961866
vn -0.015871048 0.1428392 -0.98961866
vn -0.015871048 0.1428392 -0.98961866
vn -0.015871048 0.1428392 -0.98961866
vn -0.015871048 0.1428392 -0.98961866
vn -0.68245375 0.17458117 -0.7097734
vn -0.68245375 0.17458117 -0.7097734
vn -0.68245375 0.17458117 -0.7097734
vn -0.68245375 0.17458117 -0.7097734
vn 0.68245363 0.17458117 0.70977354
vn 0.68245363 0.17458117 0.70977354
vn 0.68245363 0.17458117 0.70977354
vn 0.68245363 0.17458117 0.70977354
vn -0.98994946 0.14142141 -0
vn -0.98994946 0.14142141 -0
vn -0.98994946 0.14142141 -0
vn -0.98994946 0.14142141 -0
vn 0.7141957 0.015871048 0.6997661
vn 0.7141957 0.015871048 0.6997661
vn 0.7141957 0.015871048 0.6997661
vn 0.7141957 0.015871048 0.6997661
vn 0.7141957 0.015871048 -0.6997661
vn 0.7141957 0.015871048 -0.6997661
vn 0.7141957 0.015871048 -0.6997661
vn 0.7141957 0.015871048 -0.6997661
vn -0.7141957 0.015871048 -0.6997661
vn -0.7141957 0.015871048 -0.6997661
vn -0.7141957 0.015871048 -0.6997661
vn -0.7141957 0.015871048 -0.6997661
vn -0.7141957 0.015871048 0.6997661
vn -0.7141957 0.015871048 0.6997661
vn -0.7141957 0.015871048 0.6997661
vn -0.7141957 0.015871048 0.6997661
vn -0.015871048 0.015871048 -0.99974805
vn -0.015871048 0.015871048 -0.99974805
vn -0.015871048 0.015871048 -0.99974805
vn -0.015871048 0.015871048 -0.99974805
vn -0.999874 0.015871048 -0.00034391563
vn -0.999874 0.015871048 -0.00034391563
vn -0.999874 0.015871048 -0.00034391563
vn -0.999874 0.015871048 -0.00034391563
vn 0.999874 0.015871048 -0.00034391563
vn 0.999874 0.015871048 -0.00034391563
vn 0.999874 0.015871048 -0.00034391563
vn 0.999874 0.015871048 -0.00034391563
vn -0.015871048 0.015871048 0.99974805
vn -0.015871048 0.015871048 0.99974805
vn -0.015871048 0.015871048 0.99974805
vn -0.015871048 0.015871048 0.99974805
vn -0.015871048 -0.999874 -0.00034526698
vn -0.015871048 -0.999874 -0.00034526698
vn -0.015871048 -0.999874 -0.00034526698
vn -0.015871048 -0.999874 -0.00034526698
vn -0.015871048 -0.999874 -0.00034526698
vn -0.015871048 -0.999874 -0.00034526698
vn -0.015871048 -0.999874 -0.00034526698
vn -0.015871048 -0.999874 -0.00034526698
vn -0.015871048 -0.999874 -0.00034526698
vn -0.015871048 0.999874 -0.00034526698
vn -0.015871048 0.999874 -0.00034526698
vn -0.015871048 0.999874 -0.00034526698
vn -0.015871048 0.999874 -0.00034526698
vn -0.015871048 0.999874 -0.00034526698
vn -0.015871048 0.999874 -0.00034526698
vn -0.015871048 0.999874 -0.00034526698
vn -0.015871048 0.999874 -0.00034526698
vn -0.015871048 0.999874 -0.00034526698
vn -0.015871048 0.999874 -0.00034526698
vn -0.015871048 0.999874 -0.00034526698
vn -0.015871048 0.999874 -0.00034526698
vn -0.015871048 0.999874 -0.00034526698
vn -0.015871048 0.999874 -0.00034526698
vn -0.015871048 0.999874 -0.00034526698
vn -0.015871048 0.999874 -0.00034526698
vn -0.015871048 0.015871048 -0.99974805
vn -0.015871048 0.015871048 -0.99974805
vn -0.015871048 0.015871048 -0.99974805
vn -0.015871048 0.015871048 -0.99974805
g trashBin_0
f 3/3/3 2/2/2 1/1/1
f 4/4/4 3/3/3 1/1/1
f 7/7/7 6/6/6 5/5/5
f 8/8/8 7/7/7 5/5/5
f 11/11/11 10/10/10 9/9/9
f 12/12/12 11/11/11 9/9/9
f 15/15/15 14/14/14 13/13/13
f 16/16/16 15/15/15 13/13/13
f 19/19/19 18/18/18 17/17/17
f 20/20/20 19/19/19 17/17/17
f 23/23/23 22/22/22 21/21/21
f 24/24/24 23/23/23 21/21/21
f 27/27/27 26/26/26 25/25/25
f 28/28/28 27/27/27 25/25/25
f 31/31/31 30/30/30 29/29/29
f 32/32/32 31/31/31 29/29/29
f 35/35/35 34/34/34 33/33/33
f 36/36/36 35/35/35 33/33/33
f 39/39/39 38/38/38 37/37/37
f 37/37/37 40/40/40 39/39/39
f 37/37/37 41/41/41 40/40/40
f 41/41/41 42/42/42 40/40/40
f 41/41/41 43/43/43 42/42/42
f 43/43/43 44/44/44 42/42/42
f 47/47/47 46/46/46 45/45/45
f 48/48/48 47/47/47 45/45/45
f 51/51/51 50/50/50 49/49/49
f 52/52/52 51/51/51 49/49/49
f 55/55/55 54/54/54 53/53/53
f 56/56/56 55/55/55 53/53/53
f 59/59/59 58/58/58 57/57/57
f 60/60/60 59/59/59 57/57/57
f 63/63/63 62/62/62 61/61/61
f 64/64/64 63/63/63 61/61/61
f 67/67/67 66/66/66 65/65/65
f 68/68/68 67/67/67 65/65/65
f 71/71/71 70/70/70 69/69/69
f 72/72/72 71/71/71 69/69/69
f 75/75/75 74/74/74 73/73/73
f 76/76/76 75/75/75 73/73/73
f 79/79/79 78/78/78 77/77/77
f 80/80/80 79/79/79 77/77/77
f 83/83/83 82/82/82 81/81/81
f 84/84/84 83/83/83 81/81/81
f 87/87/87 86/86/86 85/85/85
f 88/88/88 87/87/87 85/85/85
f 91/91/91 90/90/90 89/89/89
f 92/92/92 91/91/91 89/89/89
f 95/95/95 94/94/94 93/93/93
f 96/96/96 95/95/95 93/93/93
f 99/99/99 98/98/98 97/97/97
f 100/100/100 99/99/99 97/97/97
f 103/103/103 102/102/102 101/101/101
f 104/104/104 103/103/103 101/101/101
f 107/107/107 106/106/106 105/105/105
f 105/105/105 106/106/106 108/108/108
f 109/109/109 106/106/106 107/107/107
f 108/108/108 106/106/106 110/110/110
f 111/111/111 106/106/106 109/109/109
f 110/110/110 106/106/106 112/112/112
f 113/113/113 106/106/106 111/111/111
f 112/112/112 106/106/106 113/113/113
f 116/116/116 115/115/115 114/114/114
f 117/117/117 116/116/116 114/114/114
f 114/114/114 115/115/115 118/118/118
f 119/119/119 116/116/116 117/117/117
f 115/115/115 120/120/120 118/118/118
f 121/121/121 119/119/119 117/117/117
f 118/118/118 120/120/120 122/122/122
f 123/123/123 119/119/119 121/121/121
f 120/120/120 124/124/124 122/122/122
f 125/125/125 123/123/123 121/121/121
f 122/122/122 124/124/124 126/126/126
f 127/127/127 123/123/123 125/125/125
f 124/124/124 128/128/128 126/126/126
f 129/129/129 127/127/127 125/125/125
f 126/126/126 128/128/128 129/129/129
f 128/128/128 127/127/127 129/129/129
g trashBin_1
f 132/132/132 131/131/131 130/130/130
f 133/133/133 132/132/132 130/130/130
