g tray_Cookie
v -1.5485678 0.0022215843 2.0506861
v -1.7351959 0.20218015 2.2017658
v 1.7351964 0.20218015 2.2017658
v 1.5485682 0.0022215843 2.0506861
v 1.5485682 0.0022215843 -2.0506864
v 1.7351964 0.20218015 -2.2017663
v -1.7351959 0.20218015 -2.2017663
v -1.5485678 0.0022215843 -2.0506864
v 2.0506864 0.0022215843 1.5485678
v 2.2728627 0.20218015 1.6640995
v 2.2728627 0.20218015 -1.6640999
v 2.0506864 0.0022215843 -1.5485682
v 1.8018491 0.0022215843 -1.9840336
v 1.5485682 0.0022215843 -2.0506864
v -1.5485678 0.0022215843 -2.0506864
v -1.8018486 0.0022215843 -1.9840336
v 1.9840336 0.0022215843 -1.8018491
v -1.9840333 0.0022215843 -1.8018491
v 2.0506864 0.0022215843 -1.5485682
v -2.0506861 0.0022215843 -1.5485682
v 2.0506864 0.0022215843 1.5485678
v -2.0506861 0.0022215843 1.5485678
v 1.9840336 0.0022215843 1.8018486
v -1.9840333 0.0022215843 1.8018486
v 1.8018491 0.0022215843 1.9840333
v -1.8018486 0.0022215843 1.9840333
v 1.5485682 0.0022215843 2.0506861
v -1.5485678 0.0022215843 2.0506861
v 2.0506864 0.0022215843 1.5485678
v 1.9840336 0.0022215843 1.8018486
v 2.2017663 0.20218015 1.930711
v 2.2728627 0.20218015 1.6640995
v 1.9840336 0.0022215843 1.8018486
v 1.8018491 0.0022215843 1.9840333
v 2.0062513 0.20218015 2.1262257
v 2.2017663 0.20218015 1.930711
v 1.8018491 0.0022215843 1.9840333
v 1.5485682 0.0022215843 2.0506861
v 1.7351964 0.20218015 2.2017658
v 2.0062513 0.20218015 2.1262257
v -2.2728622 0.20218015 1.6640995
v -2.2017658 0.20218015 1.930711
v -1.9840333 0.0022215843 1.8018486
v -2.0506861 0.0022215843 1.5485678
v -2.2017658 0.20218015 1.930711
v -2.0062506 0.20218015 2.1262257
v -1.8018486 0.0022215843 1.9840333
v -1.9840333 0.0022215843 1.8018486
v -2.0062506 0.20218015 2.1262257
v -1.7351959 0.20218015 2.2017658
v -1.5485678 0.0022215843 2.0506861
v -1.8018486 0.0022215843 1.9840333
v -2.0506861 0.0022215843 -1.5485682
v -1.9840333 0.0022215843 -1.8018491
v -2.2017658 0.20218015 -1.9307113
v -2.2728622 0.20218015 -1.6640999
v -1.9840333 0.0022215843 -1.8018491
v -1.8018486 0.0022215843 -1.9840336
v -2.0062506 0.20218015 -2.1262264
v -2.2017658 0.20218015 -1.9307113
v -1.8018486 0.0022215843 -1.9840336
v -1.5485678 0.0022215843 -2.0506864
v -1.7351959 0.20218015 -2.2017663
v -2.0062506 0.20218015 -2.1262264
v 2.2728627 0.20218015 -1.6640999
v 2.2017663 0.20218015 -1.9307113
v 1.9840336 0.0022215843 -1.8018491
v 2.0506864 0.0022215843 -1.5485682
v 2.2017663 0.20218015 -1.9307113
v 2.0062513 0.20218015 -2.1262264
v 1.8018491 0.0022215843 -1.9840336
v 1.9840336 0.0022215843 -1.8018491
v 2.0062513 0.20218015 -2.1262264
v 1.7351964 0.20218015 -2.2017663
v 1.5485682 0.0022215843 -2.0506864
v 1.8018491 0.0022215843 -1.9840336
v -2.0506861 0.0022215843 -1.5485682
v -2.2728622 0.20218015 -1.6640999
v -2.2728622 0.20218015 1.6640995
v -2.0506861 0.0022215843 1.5485678
v -1.5441244 0.09553552 2.0018075
v 1.5441248 0.09553552 2.0018075
v 1.7218657 0.26883292 2.1262257
v -1.7218652 0.26883292 2.1262257
v 1.5441248 0.09553552 -2.0018077
v -1.5441244 0.09553552 -2.0018077
v -1.7218652 0.26883292 -2.1262264
v 1.7218657 0.26883292 -2.1262264
v 2.0106947 0.09997916 1.5441244
v 2.0106947 0.09997916 -1.5441248
v 2.2106533 0.27771997 -1.6552129
v 2.2106533 0.27771997 1.6552124
v -1.7796309 0.09553552 -1.944042
v -1.5441244 0.09553552 -2.0018077
v 1.5441248 0.09553552 -2.0018077
v 1.7796315 0.09553552 -1.944042
v -1.9484851 0.09997916 -1.7796315
v 1.9484854 0.09997916 -1.7796315
v -2.0106943 0.09997916 -1.5441248
v 2.0106947 0.09997916 -1.5441248
v -2.0106943 0.09997916 1.5441244
v 2.0106947 0.09997916 1.5441244
v -1.9484851 0.09997916 1.7796309
v 1.9484854 0.09997916 1.7796309
v -1.7796309 0.09553552 1.9440415
v 1.7796315 0.09553552 1.9440415
v -1.5441244 0.09553552 2.0018075
v 1.5441248 0.09553552 2.0018075
v 2.0106947 0.09997916 1.5441244
v 2.2106533 0.27771997 1.6552124
v 2.148444 0.27771997 1.899606
v 1.9484854 0.09997916 1.7796309
v 1.9484854 0.09997916 1.7796309
v 2.148444 0.27771997 1.899606
v 1.9707031 0.27771997 2.0729039
v 1.7796315 0.09553552 1.9440415
v 1.7796315 0.09553552 1.9440415
v 1.9707031 0.27771997 2.0729039
v 1.7218657 0.26883292 2.1262257
v 1.5441248 0.09553552 2.0018075
v -2.210653 0.27771997 1.6552124
v -2.0106943 0.09997916 1.5441244
v -1.9484851 0.09997916 1.7796309
v -2.1484435 0.27771997 1.899606
v -2.1484435 0.27771997 1.899606
v -1.9484851 0.09997916 1.7796309
v -1.7796309 0.09553552 1.9440415
v -1.9707024 0.27771997 2.0729039
v -1.9707024 0.27771997 2.0729039
v -1.7796309 0.09553552 1.9440415
v -1.5441244 0.09553552 2.0018075
v -1.7218652 0.26883292 2.1262257
v -2.0106943 0.09997916 -1.5441248
v -2.210653 0.27771997 -1.6552129
v -2.1484435 0.27771997 -1.8996067
v -1.9484851 0.09997916 -1.7796315
v -1.9484851 0.09997916 -1.7796315
v -2.1484435 0.27771997 -1.8996067
v -1.9707024 0.27771997 -2.072904
v -1.7796309 0.09553552 -1.944042
v -1.7796309 0.09553552 -1.944042
v -1.9707024 0.27771997 -2.072904
v -1.7218652 0.26883292 -2.1262264
v -1.5441244 0.09553552 -2.0018077
v 2.2106533 0.27771997 -1.6552129
v 2.0106947 0.09997916 -1.5441248
v 1.9484854 0.09997916 -1.7796315
v 2.148444 0.27771997 -1.8996067
v 2.148444 0.27771997 -1.8996067
v 1.9484854 0.09997916 -1.7796315
v 1.7796315 0.09553552 -1.944042
v 1.9707031 0.27771997 -2.072904
v 1.9707031 0.27771997 -2.072904
v 1.7796315 0.09553552 -1.944042
v 1.5441248 0.09553552 -2.0018077
v 1.7218657 0.26883292 -2.1262264
v -2.0106943 0.09997916 -1.5441248
v -2.0106943 0.09997916 1.5441244
v -2.210653 0.27771997 1.6552124
v -2.210653 0.27771997 -1.6552129
v 2.2017663 0.20218015 1.930711
v 2.148444 0.27771997 1.899606
v 2.2106533 0.27771997 1.6552124
v 2.2728627 0.20218015 1.6640995
v 2.0062513 0.20218015 2.1262257
v 1.9707031 0.27771997 2.0729039
v 2.148444 0.27771997 1.899606
v 2.2017663 0.20218015 1.930711
v 1.7351964 0.20218015 2.2017658
v 1.7218657 0.26883292 2.1262257
v 1.9707031 0.27771997 2.0729039
v 2.0062513 0.20218015 2.1262257
v -2.2728622 0.20218015 1.6640995
v -2.210653 0.27771997 1.6552124
v -2.1484435 0.27771997 1.899606
v -2.2017658 0.20218015 1.930711
v -2.2017658 0.20218015 1.930711
v -2.1484435 0.27771997 1.899606
v -1.9707024 0.27771997 2.0729039
v -2.0062506 0.20218015 2.1262257
v -2.0062506 0.20218015 2.1262257
v -1.9707024 0.27771997 2.0729039
v -1.7218652 0.26883292 2.1262257
v -1.7351959 0.20218015 2.2017658
v -2.2017658 0.20218015 -1.9307113
v -2.1484435 0.27771997 -1.8996067
v -2.210653 0.27771997 -1.6552129
v -2.2728622 0.20218015 -1.6640999
v -2.0062506 0.20218015 -2.1262264
v -1.9707024 0.27771997 -2.072904
v -2.1484435 0.27771997 -1.8996067
v -2.2017658 0.20218015 -1.9307113
v -1.7351959 0.20218015 -2.2017663
v -1.7218652 0.26883292 -2.1262264
v -1.9707024 0.27771997 -2.072904
v -2.0062506 0.20218015 -2.1262264
v 2.2728627 0.20218015 -1.6640999
v 2.2106533 0.27771997 -1.6552129
v 2.148444 0.27771997 -1.8996067
v 2.2017663 0.20218015 -1.9307113
v 2.2017663 0.20218015 -1.9307113
v 2.148444 0.27771997 -1.8996067
v 1.9707031 0.27771997 -2.072904
v 2.0062513 0.20218015 -2.1262264
v 2.0062513 0.20218015 -2.1262264
v 1.9707031 0.27771997 -2.072904
v 1.7218657 0.26883292 -2.1262264
v 1.7351964 0.20218015 -2.2017663
v -2.2728622 0.20218015 -1.6640999
v -2.210653 0.27771997 -1.6552129
v -2.210653 0.27771997 1.6552124
v -2.2728622 0.20218015 1.6640995
v -1.7351959 0.20218015 2.2017658
v -1.7218652 0.26883292 2.1262257
v 1.7218657 0.26883292 2.1262257
v 1.7351964 0.20218015 2.2017658
v 1.7351964 0.20218015 -2.2017663
v 1.7218657 0.26883292 -2.1262264
v -1.7218652 0.26883292 -2.1262264
v -1.7351959 0.20218015 -2.2017663
v 2.2728627 0.20218015 1.6640995
v 2.2106533 0.27771997 1.6552124
v 2.2106533 0.27771997 -1.6552129
v 2.2728627 0.20218015 -1.6640999
vt 0.9059403 0.09453565
vt 0.9059403 0.09453565
vt 0.9059403 0.09453565
vt 0.9059403 0.09453565
vt 0.9059403 0.09453565
vt 0.9059403 0.09453565
vt 0.9059403 0.09453565
vt 0.9059403 0.09453565
vt 0.9059403 0.09453565
vt 0.9059403 0.09453565
vt 0.9059403 0.09453565
vt 0.9059403 0.09453565
vt 0.9059403 0.09453565
vt 0.9059403 0.09453565
vt 0.9059403 0.09453565
vt 0.9059403 0.09453565
vt 0.9059403 0.09453565
vt 0.9059403 0.09453565
vt 0.9059403 0.09453565
vt 0.9059403 0.09453565
vt 0.9059403 0.09453565
vt 0.9059403 0.09453565
vt 0.9059403 0.09453565
vt 0.9059403 0.09453565
vt 0.9059403 0.09453565
vt 0.9059403 0.09453565
vt 0.9059403 0.09453565
vt 0.9059403 0.09453565
vt 0.9059403 0.09453565
vt 0.9059403 0.09453565
vt 0.9059403 0.09453565
vt 0.9059403 0.09453565
vt 0.9059403 0.09453565
vt 0.9059403 0.09453565
vt 0.9059403 0.09453565
vt 0.9059403 0.09453565
vt 0.9059403 0.09453565
vt 0.9059403 0.09453565
vt 0.9059403 0.09453565
vt 0.9059403 0.09453565
vt 0.9059403 0.09453565
vt 0.9059403 0.09453565
vt 0.9059403 0.09453565
vt 0.9059403 0.09453565
vt 0.9059403 0.09453565
vt 0.9059403 0.09453565
vt 0.9059403 0.09453565
vt 0.9059403 0.09453565
vt 0.9059403 0.09453565
vt 0.9059403 0.09453565
vt 0.9059403 0.09453565
vt 0.9059403 0.09453565
vt 0.9059403 0.09453565
vt 0.9059403 0.09453565
vt 0.9059403 0.09453565
vt 0.9059403 0.09453565
vt 0.9059403 0.09453565
vt 0.9059403 0.09453565
vt 0.9059403 0.09453565
vt 0.9059403 0.09453565
vt 0.9059403 0.09453565
vt 0.9059403 0.09453565
vt 0.9059403 0.09453565
vt 0.9059403 0.09453565
vt 0.9059403 0.09453565
vt 0.9059403 0.09453565
vt 0.9059403 0.09453565
vt 0.9059403 0.09453565
vt 0.9059403 0.09453565
vt 0.9059403 0.09453565
vt 0.9059403 0.09453565
vt 0.9059403 0.09453565
vt 0.9059403 0.09453565
vt 0.9059403 0.09453565
vt 0.9059403 0.09453565
vt 0.9059403 0.09453565
vt 0.9059403 0.09453565
vt 0.9059403 0.09453565
vt 0.9059403 0.09453565
vt 0.9059403 0.09453565
vt 0.9059403 0.09453565
vt 0.9059403 0.09453565
vt 0.9059403 0.09453565
vt 0.9059403 0.09453565
vt 0.9059403 0.09453565
vt 0.9059403 0.09453565
vt 0.9059403 0.09453565
vt 0.9059403 0.09453565
vt 0.9059403 0.09453565
vt 0.9059403 0.09453565
vt 0.9059403 0.09453565
vt 0.9059403 0.09453565
vt 0.9059403 0.09453565
vt 0.9059403 0.09453565
vt 0.9059403 0.09453565
vt 0.9059403 0.09453565
vt 0.9059403 0.09453565
vt 0.9059403 0.09453565
vt 0.9059403 0.09453565
vt 0.9059403 0.09453565
vt 0.9059403 0.09453565
vt 0.9059403 0.09453565
vt 0.9059403 0.09453565
vt 0.9059403 0.09453565
vt 0.9059403 0.09453565
vt 0.9059403 0.09453565
vt 0.9059403 0.09453565
vt 0.9059403 0.09453565
vt 0.9059403 0.09453565
vt 0.9059403 0.09453565
vt 0.9059403 0.09453565
vt 0.9059403 0.09453565
vt 0.9059403 0.09453565
vt 0.9059403 0.09453565
vt 0.9059403 0.09453565
vt 0.9059403 0.09453565
vt 0.9059403 0.09453565
vt 0.9059403 0.09453565
vt 0.9059403 0.09453565
vt 0.9059403 0.09453565
vt 0.9059403 0.09453565
vt 0.9059403 0.09453565
vt 0.9059403 0.09453565
vt 0.9059403 0.09453565
vt 0.9059403 0.09453565
vt 0.9059403 0.09453565
vt 0.9059403 0.09453565
vt 0.9059403 0.09453565
vt 0.9059403 0.09453565
vt 0.9059403 0.09453565
vt 0.9059403 0.09453565
vt 0.9059403 0.09453565
vt 0.9059403 0.09453565
vt 0.9059403 0.09453565
vt 0.9059403 0.09453565
vt 0.9059403 0.09453565
vt 0.9059403 0.09453565
vt 0.9059403 0.09453565
vt 0.9059403 0.09453565
vt 0.9059403 0.09453565
vt 0.9059403 0.09453565
vt 0.9059403 0.09453565
vt 0.9059403 0.09453565
vt 0.9059403 0.09453565
vt 0.9059403 0.09453565
vt 0.9059403 0.09453565
vt 0.9059403 0.09453565
vt 0.9059403 0.09453565
vt 0.9059403 0.09453565
vt 0.9059403 0.09453565
vt 0.9059403 0.09453565
vt 0.9059403 0.09453565
vt 0.9059403 0.09453565
vt 0.9059403 0.09453565
vt 0.9059403 0.09453565
vt 0.9059403 0.09453565
vt 0.9059403 0.09453565
vt 0.9059403 0.09453565
vt 0.9059403 0.09453565
vt 0.9059403 0.09453565
vt 0.9059403 0.09453565
vt 0.9059403 0.09453565
vt 0.9059403 0.09453565
vt 0.9059403 0.09453565
vt 0.9059403 0.09453565
vt 0.9059403 0.09453565
vt 0.9059403 0.09453565
vt 0.9059403 0.09453565
vt 0.9059403 0.09453565
vt 0.9059403 0.09453565
vt 0.9059403 0.09453565
vt 0.9059403 0.09453565
vt 0.9059403 0.09453565
vt 0.9059403 0.09453565
vt 0.9059403 0.09453565
vt 0.9059403 0.09453565
vt 0.9059403 0.09453565
vt 0.9059403 0.09453565
vt 0.9059403 0.09453565
vt 0.9059403 0.09453565
vt 0.9059403 0.09453565
vt 0.9059403 0.09453565
vt 0.9059403 0.09453565
vt 0.9059403 0.09453565
vt 0.9059403 0.09453565
vt 0.9059403 0.09453565
vt 0.9059403 0.09453565
vt 0.9059403 0.09453565
vt 0.9059403 0.09453565
vt 0.9059403 0.09453565
vt 0.9059403 0.09453565
vt 0.9059403 0.09453565
vt 0.9059403 0.09453565
vt 0.9059403 0.09453565
vt 0.9059403 0.09453565
vt 0.9059403 0.09453565
vt 0.9059403 0.09453565
vt 0.9059403 0.09453565
vt 0.9059403 0.09453565
vt 0.9059403 0.09453565
vt 0.9059403 0.09453565
vt 0.9059403 0.09453565
vt 0.9059403 0.09453565
vt 0.9059403 0.09453565
vt 0.9059403 0.09453565
vt 0.9059403 0.09453565
vt 0.9059403 0.09453565
vt 0.9059403 0.09453565
vt 0.9059403 0.09453565
vt 0.9059403 0.09453565
vt 0.9059403 0.09453565
vt 0.9059403 0.09453565
vt 0.9059403 0.09453565
vt 0.9059403 0.09453565
vt 0.9059403 0.09453565
vt 0.9059403 0.09453565
vt 0.9059403 0.09453565
vt 0.9059403 0.09453565
vt 0.9059403 0.09453565
vt 0.9059403 0.09453565
vt 0.9059403 0.09453565
vt 0.9059403 0.09453565
vt 0.9059403 0.09453565
vt 0.9059403 0.09453565
vn -0.015871048 -0.5872276 0.80926627
vn -0.015871048 -0.5872276 0.80926627
vn -0.015871048 -0.5872276 0.80926627
vn -0.015871048 -0.5872276 0.80926627
vn -0.015871048 -0.5872276 -0.80926627
vn -0.015871048 -0.5872276 -0.80926627
vn -0.015871048 -0.5872276 -0.80926627
vn -0.015871048 -0.5872276 -0.80926627
vn 0.6750135 -0.7378055 -0
vn 0.6750135 -0.7378055 -0
vn 0.6750135 -0.7378055 -0
vn 0.6750135 -0.7378055 -0
vn -0.015871048 -0.999874 -0.00034526698
vn -0.015871048 -0.999874 -0.00034526698
vn -0.015871048 -0.999874 -0.00034526698
vn -0.015871048 -0.999874 -0.00034526698
vn -0.015871048 -0.999874 -0.00034526698
vn -0.015871048 -0.999874 -0.00034526698
vn -0.015871048 -0.999874 -0.00034526698
vn -0.015871048 -0.999874 -0.00034526698
vn -0.015871048 -0.999874 -0.00034526698
vn -0.015871048 -0.999874 -0.00034526698
vn -0.015871048 -0.999874 -0.00034526698
vn -0.015871048 -0.999874 -0.00034526698
vn -0.015871048 -0.999874 -0.00034526698
vn -0.015871048 -0.999874 -0.00034526698
vn -0.015871048 -0.999874 -0.00034526698
vn -0.015871048 -0.999874 -0.00034526698
vn 0.6189696 -0.7776798 0.10995791
vn 0.6189696 -0.7776798 0.10995791
vn 0.6189696 -0.7776798 0.10995791
vn 0.6189696 -0.7776798 0.10995791
vn 0.46025944 -0.7776798 0.42822355
vn 0.46025944 -0.7776798 0.42822355
vn 0.46025944 -0.7776798 0.42822355
vn 0.46025944 -0.7776798 0.42822355
vn 0.17458117 -0.68245363 0.70977354
vn 0.17458117 -0.68245363 0.70977354
vn 0.17458117 -0.68245363 0.70977354
vn 0.17458117 -0.68245363 0.70977354
vn -0.6189697 -0.7776798 0.10995764
vn -0.6189697 -0.7776798 0.10995764
vn -0.6189697 -0.7776798 0.10995764
vn -0.6189697 -0.7776798 0.10995764
vn -0.46025944 -0.7776798 0.42822355
vn -0.46025944 -0.7776798 0.42822355
vn -0.46025944 -0.7776798 0.42822355
vn -0.46025944 -0.7776798 0.42822355
vn -0.17458117 -0.68245363 0.70977354
vn -0.17458117 -0.68245363 0.70977354
vn -0.17458117 -0.68245363 0.70977354
vn -0.17458117 -0.68245363 0.70977354
vn -0.6189697 -0.7776798 -0.10995764
vn -0.6189697 -0.7776798 -0.10995764
vn -0.6189697 -0.7776798 -0.10995764
vn -0.6189697 -0.7776798 -0.10995764
vn -0.46025944 -0.7776798 -0.42822355
vn -0.46025944 -0.7776798 -0.42822355
vn -0.46025944 -0.7776798 -0.42822355
vn -0.46025944 -0.7776798 -0.42822355
vn -0.17458117 -0.68245363 -0.70977354
vn -0.17458117 -0.68245363 -0.70977354
vn -0.17458117 -0.68245363 -0.70977354
vn -0.17458117 -0.68245363 -0.70977354
vn 0.6189696 -0.7776798 -0.10995791
vn 0.6189696 -0.7776798 -0.10995791
vn 0.6189696 -0.7776798 -0.10995791
vn 0.6189696 -0.7776798 -0.10995791
vn 0.46025944 -0.7776798 -0.42822355
vn 0.46025944 -0.7776798 -0.42822355
vn 0.46025944 -0.7776798 -0.42822355
vn 0.46025944 -0.7776798 -0.42822355
vn 0.17458117 -0.68245363 -0.70977354
vn 0.17458117 -0.68245363 -0.70977354
vn 0.17458117 -0.68245363 -0.70977354
vn 0.17458117 -0.68245363 -0.70977354
vn -0.67501354 -0.73780537 -0
vn -0.67501354 -0.73780537 -0
vn -0.67501354 -0.73780537 -0
vn -0.67501354 -0.73780537 -0
vn -0.015871048 0.5872276 -0.80926627
vn -0.015871048 0.5872276 -0.80926627
vn -0.015871048 0.5872276 -0.80926627
vn -0.015871048 0.5872276 -0.80926627
vn -0.015871048 0.5872276 0.80926627
vn -0.015871048 0.5872276 0.80926627
vn -0.015871048 0.5872276 0.80926627
vn -0.015871048 0.5872276 0.80926627
vn -0.6750134 0.7378054 -0
vn -0.6750134 0.7378054 -0
vn -0.6750134 0.7378054 -0
vn -0.6750134 0.7378054 -0
vn -0.015871048 0.999874 -0.00034526698
vn -0.015871048 0.999874 -0.00034526698
vn -0.015871048 0.999874 -0.00034526698
vn -0.015871048 0.999874 -0.00034526698
vn -0.015871048 0.999874 -0.00034526698
vn -0.015871048 0.999874 -0.00034526698
vn -0.015871048 0.999874 -0.00034526698
vn -0.015871048 0.999874 -0.00034526698
vn -0.015871048 0.999874 -0.00034526698
vn -0.015871048 0.999874 -0.00034526698
vn -0.015871048 0.999874 -0.00034526698
vn -0.015871048 0.999874 -0.00034526698
vn -0.015871048 0.999874 -0.00034526698
vn -0.015871048 0.999874 -0.00034526698
vn -0.015871048 0.999874 -0.00034526698
vn -0.015871048 0.999874 -0.00034526698
vn -0.6189697 0.7776798 -0.10995764
vn -0.6189697 0.7776798 -0.10995764
vn -0.6189697 0.7776798 -0.10995764
vn -0.6189697 0.7776798 -0.10995764
vn -0.42851746 0.7776798 -0.45998576
vn -0.42851746 0.7776798 -0.45998576
vn -0.42851746 0.7776798 -0.45998576
vn -0.42851746 0.7776798 -0.45998576
vn -0.17458117 0.68245375 -0.7097734
vn -0.17458117 0.68245375 -0.7097734
vn -0.17458117 0.68245375 -0.7097734
vn -0.17458117 0.68245375 -0.7097734
vn 0.6189696 0.7776798 -0.10995791
vn 0.6189696 0.7776798 -0.10995791
vn 0.6189696 0.7776798 -0.10995791
vn 0.6189696 0.7776798 -0.10995791
vn 0.4285174 0.7776798 -0.45998588
vn 0.4285174 0.7776798 -0.45998588
vn 0.4285174 0.7776798 -0.45998588
vn 0.4285174 0.7776798 -0.45998588
vn 0.17458117 0.68245375 -0.7097734
vn 0.17458117 0.68245375 -0.7097734
vn 0.17458117 0.68245375 -0.7097734
vn 0.17458117 0.68245375 -0.7097734
vn 0.6189696 0.7776798 0.10995791
vn 0.6189696 0.7776798 0.10995791
vn 0.6189696 0.7776798 0.10995791
vn 0.6189696 0.7776798 0.10995791
vn 0.4285174 0.7776798 0.45998588
vn 0.4285174 0.7776798 0.45998588
vn 0.4285174 0.7776798 0.45998588
vn 0.4285174 0.7776798 0.45998588
vn 0.17458117 0.68245375 0.7097734
vn 0.17458117 0.68245375 0.7097734
vn 0.17458117 0.68245375 0.7097734
vn 0.17458117 0.68245375 0.7097734
vn -0.6189697 0.7776798 0.10995764
vn -0.6189697 0.7776798 0.10995764
vn -0.6189697 0.7776798 0.10995764
vn -0.6189697 0.7776798 0.10995764
vn -0.42851746 0.7776798 0.45998576
vn -0.42851746 0.7776798 0.45998576
vn -0.42851746 0.7776798 0.45998576
vn -0.42851746 0.7776798 0.45998576
vn -0.17458117 0.68245375 0.7097734
vn -0.17458117 0.68245375 0.7097734
vn -0.17458117 0.68245375 0.7097734
vn -0.17458117 0.68245375 0.7097734
vn 0.6750134 0.7378055 -0
vn 0.6750134 0.7378055 -0
vn 0.6750134 0.7378055 -0
vn 0.6750134 0.7378055 -0
vn 0.7459377 0.6189697 0.24587288
vn 0.7459377 0.6189697 0.24587288
vn 0.7459377 0.6189697 0.24587288
vn 0.7459377 0.6189697 0.24587288
vn 0.55548555 0.6189697 0.5552588
vn 0.55548555 0.6189697 0.5552588
vn 0.55548555 0.6189697 0.5552588
vn 0.55548555 0.6189697 0.5552588
vn 0.17458117 0.68245375 0.7097734
vn 0.17458117 0.68245375 0.7097734
vn 0.17458117 0.68245375 0.7097734
vn 0.17458117 0.68245375 0.7097734
vn -0.7459378 0.6189697 0.24587251
vn -0.7459378 0.6189697 0.24587251
vn -0.7459378 0.6189697 0.24587251
vn -0.7459378 0.6189697 0.24587251
vn -0.5554856 0.6189697 0.55525875
vn -0.5554856 0.6189697 0.55525875
vn -0.5554856 0.6189697 0.55525875
vn -0.5554856 0.6189697 0.55525875
vn -0.17458117 0.68245375 0.7097734
vn -0.17458117 0.68245375 0.7097734
vn -0.17458117 0.68245375 0.7097734
vn -0.17458117 0.68245375 0.7097734
vn -0.7459378 0.6189697 -0.24587251
vn -0.7459378 0.6189697 -0.24587251
vn -0.7459378 0.6189697 -0.24587251
vn -0.7459378 0.6189697 -0.24587251
vn -0.5554856 0.6189697 -0.55525875
vn -0.5554856 0.6189697 -0.55525875
vn -0.5554856 0.6189697 -0.55525875
vn -0.5554856 0.6189697 -0.55525875
vn -0.17458117 0.68245375 -0.7097734
vn -0.17458117 0.68245375 -0.7097734
vn -0.17458117 0.68245375 -0.7097734
vn -0.17458117 0.68245375 -0.7097734
vn 0.7459377 0.6189697 -0.24587288
vn 0.7459377 0.6189697 -0.24587288
vn 0.7459377 0.6189697 -0.24587288
vn 0.7459377 0.6189697 -0.24587288
vn 0.55548555 0.6189697 -0.5552588
vn 0.55548555 0.6189697 -0.5552588
vn 0.55548555 0.6189697 -0.5552588
vn 0.55548555 0.6189697 -0.5552588
vn 0.17458117 0.68245375 -0.7097734
vn 0.17458117 0.68245375 -0.7097734
vn 0.17458117 0.68245375 -0.7097734
vn 0.17458117 0.68245375 -0.7097734
vn -0.7669368 0.64172256 -0
vn -0.7669368 0.64172256 -0
vn -0.7669368 0.64172256 -0
vn -0.7669368 0.64172256 -0
vn -0.015871048 0.7459378 0.66582644
vn -0.015871048 0.7459378 0.66582644
vn -0.015871048 0.7459378 0.66582644
vn -0.015871048 0.7459378 0.66582644
vn -0.015871048 0.7459378 -0.66582644
vn -0.015871048 0.7459378 -0.66582644
vn -0.015871048 0.7459378 -0.66582644
vn -0.015871048 0.7459378 -0.66582644
vn 0.7669368 0.64172256 -0
vn 0.7669368 0.64172256 -0
vn 0.7669368 0.64172256 -0
vn 0.7669368 0.64172256 -0
g tray_Cookie_0
f 3/3/3 2/2/2 1/1/1
f 4/4/4 3/3/3 1/1/1
f 7/7/7 6/6/6 5/5/5
f 8/8/8 7/7/7 5/5/5
f 11/11/11 10/10/10 9/9/9
f 12/12/12 11/11/11 9/9/9
f 15/15/15 14/14/14 13/13/13
f 13/13/13 16/16/16 15/15/15
f 13/13/13 17/17/17 16/16/16
f 17/17/17 18/18/18 16/16/16
f 17/17/17 19/19/19 18/18/18
f 19/19/19 20/20/20 18/18/18
f 19/19/19 21/21/21 20/20/20
f 21/21/21 22/22/22 20/20/20
f 21/21/21 23/23/23 22/22/22
f 23/23/23 24/24/24 22/22/22
f 23/23/23 25/25/25 24/24/24
f 25/25/25 26/26/26 24/24/24
f 25/25/25 27/27/27 26/26/26
f 27/27/27 28/28/28 26/26/26
f 31/31/31 30/30/30 29/29/29
f 32/32/32 31/31/31 29/29/29
f 35/35/35 34/34/34 33/33/33
f 36/36/36 35/35/35 33/33/33
f 39/39/39 38/38/38 37/37/37
f 40/40/40 39/39/39 37/37/37
f 43/43/43 42/42/42 41/41/41
f 44/44/44 43/43/43 41/41/41
f 47/47/47 46/46/46 45/45/45
f 48/48/48 47/47/47 45/45/45
f 51/51/51 50/50/50 49/49/49
f 52/52/52 51/51/51 49/49/49
f 55/55/55 54/54/54 53/53/53
f 56/56/56 55/55/55 53/53/53
f 59/59/59 58/58/58 57/57/57
f 60/60/60 59/59/59 57/57/57
f 63/63/63 62/62/62 61/61/61
f 64/64/64 63/63/63 61/61/61
f 67/67/67 66/66/66 65/65/65
f 68/68/68 67/67/67 65/65/65
f 71/71/71 70/70/70 69/69/69
f 72/72/72 71/71/71 69/69/69
f 75/75/75 74/74/74 73/73/73
f 76/76/76 75/75/75 73/73/73
f 79/79/79 78/78/78 77/77/77
f 80/80/80 79/79/79 77/77/77
f 83/83/83 82/82/82 81/81/81
f 84/84/84 83/83/83 81/81/81
f 87/87/87 86/86/86 85/85/85
f 88/88/88 87/87/87 85/85/85
f 91/91/91 90/90/90 89/89/89
f 92/92/92 91/91/91 89/89/89
f 95/95/95 94/94/94 93/93/93
f 93/93/93 96/96/96 95/95/95
f 93/93/93 97/97/97 96/96/96
f 97/97/97 98/98/98 96/96/96
f 97/97/97 99/99/99 98/98/98
f 99/99/99 100/100/100 98/98/98
f 99/99/99 101/101/101 100/100/100
f 101/101/101 102/102/102 100/100/100
f 101/101/101 103/103/103 102/102/102
f 103/103/103 104/104/104 102/102/102
f 103/103/103 105/105/105 104/104/104
f 105/105/105 106/106/106 104/104/104
f 105/105/105 107/107/107 106/106/106
f 107/107/107 108/108/108 106/106/106
f 111/111/111 110/110/110 109/109/109
f 112/112/112 111/111/111 109/109/109
f 115/115/115 114/114/114 113/113/113
f 116/116/116 115/115/115 113/113/113
f 119/119/119 118/118/118 117/117/117
f 120/120/120 119/119/119 117/117/117
f 123/123/123 122/122/122 121/121/121
f 124/124/124 123/123/123 121/121/121
f 127/127/127 126/126/126 125/125/125
f 128/128/128 127/127/127 125/125/125
f 131/131/131 130/130/130 129/129/129
f 132/132/132 131/131/131 129/129/129
f 135/135/135 134/134/134 133/133/133
f 136/136/136 135/135/135 133/133/133
f 139/139/139 138/138/138 137/137/137
f 140/140/140 139/139/139 137/137/137
f 143/143/143 142/142/142 141/141/141
f 144/144/144 143/143/143 141/141/141
f 147/147/147 146/146/146 145/145/145
f 148/148/148 147/147/147 145/145/145
f 151/151/151 150/150/150 149/149/149
f 152/152/152 151/151/151 149/149/149
f 155/155/155 154/154/154 153/153/153
f 156/156/156 155/155/155 153/153/153
f 159/159/159 158/158/158 157/157/157
f 160/160/160 159/159/159 157/157/157
f 163/163/163 162/162/162 161/161/161
f 164/164/164 163/163/163 161/161/161
f 167/167/167 166/166/166 165/165/165
f 168/168/168 167/167/167 165/165/165
f 171/171/171 170/170/170 169/169/169
f 172/172/172 171/171/171 169/169/169
f 175/175/175 174/174/174 173/173/173
f 176/176/176 175/175/175 173/173/173
f 179/179/179 178/178/178 177/177/177
f 180/180/180 179/179/179 177/177/177
f 183/183/183 182/182/182 181/181/181
f 184/184/184 183/183/183 181/181/181
f 187/187/187 186/186/186 185/185/185
f 188/188/188 187/187/187 185/185/185
f 191/191/191 190/190/190 189/189/189
f 192/192/192 191/191/191 189/189/189
f 195/195/195 194/194/194 193/193/193
f 196/196/196 195/195/195 193/193/193
f 199/199/199 198/198/198 197/197/197
f 200/200/200 199/199/199 197/197/197
f 203/203/203 202/202/202 201/201/201
f 204/204/204 203/203/203 201/201/201
f 207/207/207 206/206/206 205/205/205
f 208/208/208 207/207/207 205/205/205
f 211/211/211 210/210/210 209/209/209
f 212/212/212 211/211/211 209/209/209
f 215/215/215 214/214/214 213/213/213
f 216/216/216 215/215/215 213/213/213
f 219/219/219 218/218/218 217/217/217
f 220/220/220 219/219/219 217/217/217
f 223/223/223 222/222/222 221/221/221
f 224/224/224 223/223/223 221/221/221
