g tray
v -1.5490224 0.0020039082 2.05
v -1.5490224 0.4989736 2.05
v 1.5490224 0.4989736 2.05
v 1.5490224 0.0020039082 2.05
v 1.5490224 0.0020039082 -2.05
v 1.5490224 0.4989736 -2.05
v -1.5490224 0.4989736 -2.05
v -1.5490224 0.0020039082 -2.05
v 2.05 0.0020039082 1.5490224
v 2.05 0.4989736 1.5490224
v 2.05 0.4989736 -1.5490224
v 2.05 0.0020039082 -1.5490224
v 1.9017106 0.0020039082 -1.9017106
v 1.5490224 0.0020039082 -2.05
v -1.5490224 0.0020039082 -2.05
v -1.9017105 0.0020039082 -1.9017106
v 2.05 0.0020039082 -1.5490224
v -2.05 0.0020039082 -1.5490224
v 2.05 0.0020039082 1.5490224
v -2.05 0.0020039082 1.5490224
v 1.9017106 0.0020039082 1.9017105
v -1.9017105 0.0020039082 1.9017105
v 1.5490224 0.0020039082 2.05
v -1.5490224 0.0020039082 2.05
v 2.05 0.0020039082 1.5490224
v 1.9017106 0.0020039082 1.9017105
v 1.9017106 0.4989736 1.9017105
v 2.05 0.4989736 1.5490224
v 1.9017106 0.0020039082 1.9017105
v 1.5490224 0.0020039082 2.05
v 1.5490224 0.4989736 2.05
v 1.9017106 0.4989736 1.9017105
v -2.05 0.4989736 1.5490224
v -1.9017105 0.4989736 1.9017105
v -1.9017105 0.0020039082 1.9017105
v -2.05 0.0020039082 1.5490224
v -1.9017105 0.4989736 1.9017105
v -1.5490224 0.4989736 2.05
v -1.5490224 0.0020039082 2.05
v -1.9017105 0.0020039082 1.9017105
v -2.05 0.0020039082 -1.5490224
v -1.9017105 0.0020039082 -1.9017106
v -1.9017105 0.4989736 -1.9017106
v -2.05 0.4989736 -1.5490224
v -1.9017105 0.0020039082 -1.9017106
v -1.5490224 0.0020039082 -2.05
v -1.5490224 0.4989736 -2.05
v -1.9017105 0.4989736 -1.9017106
v 2.05 0.4989736 -1.5490224
v 1.9017106 0.4989736 -1.9017106
v 1.9017106 0.0020039082 -1.9017106
v 2.05 0.0020039082 -1.5490224
v 1.9017106 0.4989736 -1.9017106
v 1.5490224 0.4989736 -2.05
v 1.5490224 0.0020039082 -2.05
v 1.9017106 0.0020039082 -1.9017106
v -2.05 0.0020039082 -1.5490224
v -2.05 0.4989736 -1.5490224
v -2.05 0.4989736 1.5490224
v -2.05 0.0020039082 1.5490224
v -1.5289834 0.09017587 1.9498043
v 1.5289834 0.09017587 1.9498043
v 1.5289834 0.4989736 1.9498043
v -1.5289834 0.4989736 1.9498043
v 1.5289834 0.09017587 -1.9498044
v -1.5289834 0.09017587 -1.9498044
v -1.5289834 0.4989736 -1.9498044
v 1.5289834 0.4989736 -1.9498044
v 1.9498044 0.09017587 1.5289834
v 1.9498044 0.09017587 -1.5289834
v 1.9498044 0.4989736 -1.5289834
v 1.9498044 0.4989736 1.5289834
v -1.825562 0.09017587 -1.825562
v -1.5289834 0.09017587 -1.9498044
v 1.5289834 0.09017587 -1.9498044
v 1.825562 0.09017587 -1.825562
v -1.9498043 0.09017587 -1.5289834
v 1.9498044 0.09017587 -1.5289834
v -1.9498043 0.09017587 1.5289834
v 1.9498044 0.09017587 1.5289834
v -1.825562 0.09017587 1.825562
v 1.825562 0.09017587 1.825562
v -1.5289834 0.09017587 1.9498043
v 1.5289834 0.09017587 1.9498043
v 1.9498044 0.09017587 1.5289834
v 1.9498044 0.4989736 1.5289834
v 1.825562 0.4989736 1.825562
v 1.825562 0.09017587 1.825562
v 1.825562 0.09017587 1.825562
v 1.825562 0.4989736 1.825562
v 1.5289834 0.4989736 1.9498043
v 1.5289834 0.09017587 1.9498043
v -1.9498043 0.4989736 1.5289834
v -1.9498043 0.09017587 1.5289834
v -1.825562 0.09017587 1.825562
v -1.825562 0.4989736 1.825562
v -1.825562 0.4989736 1.825562
v -1.825562 0.09017587 1.825562
v -1.5289834 0.09017587 1.9498043
v -1.5289834 0.4989736 1.9498043
v -1.9498043 0.09017587 -1.5289834
v -1.9498043 0.4989736 -1.5289834
v -1.825562 0.4989736 -1.825562
v -1.825562 0.09017587 -1.825562
v -1.825562 0.09017587 -1.825562
v -1.825562 0.4989736 -1.825562
v -1.5289834 0.4989736 -1.9498044
v -1.5289834 0.09017587 -1.9498044
v 1.9498044 0.4989736 -1.5289834
v 1.9498044 0.09017587 -1.5289834
v 1.825562 0.09017587 -1.825562
v 1.825562 0.4989736 -1.825562
v 1.825562 0.4989736 -1.825562
v 1.825562 0.09017587 -1.825562
v 1.5289834 0.09017587 -1.9498044
v 1.5289834 0.4989736 -1.9498044
v -1.9498043 0.09017587 -1.5289834
v -1.9498043 0.09017587 1.5289834
v -1.9498043 0.4989736 1.5289834
v -1.9498043 0.4989736 -1.5289834
v 1.9017106 0.4989736 -1.9017106
v 1.5289834 0.4989736 -1.9498044
v 1.5490224 0.4989736 -2.05
v 1.825562 0.4989736 -1.825562
v -1.5289834 0.4989736 -1.9498044
v 2.05 0.4989736 -1.5490224
v -1.5490224 0.4989736 -2.05
v 1.9498044 0.4989736 -1.5289834
v -1.825562 0.4989736 -1.825562
v 2.05 0.4989736 1.5490224
v -1.9017105 0.4989736 -1.9017106
v 1.9498044 0.4989736 1.5289834
v -1.9498043 0.4989736 -1.5289834
v 1.9017106 0.4989736 1.9017105
v -2.05 0.4989736 -1.5490224
v 1.825562 0.4989736 1.825562
v -1.9498043 0.4989736 1.5289834
v 1.5490224 0.4989736 2.05
v -2.05 0.4989736 1.5490224
v 1.5289834 0.4989736 1.9498043
v -1.825562 0.4989736 1.825562
v -1.5490224 0.4989736 2.05
v -1.9017105 0.4989736 1.9017105
v -1.5289834 0.4989736 1.9498043
vt 0.7179793 0.21927598
vt 0.7179793 0.21927598
vt 0.7179793 0.21927598
vt 0.7179793 0.21927598
vt 0.7179793 0.21927598
vt 0.7179793 0.21927598
vt 0.7179793 0.21927598
vt 0.7179793 0.21927598
vt 0.7179793 0.21927598
vt 0.7179793 0.21927598
vt 0.7179793 0.21927598
vt 0.7179793 0.21927598
vt 0.7179793 0.21927598
vt 0.7179793 0.21927598
vt 0.7179793 0.21927598
vt 0.7179793 0.21927598
vt 0.7179793 0.21927598
vt 0.7179793 0.21927598
vt 0.7179793 0.21927598
vt 0.7179793 0.21927598
vt 0.7179793 0.21927598
vt 0.7179793 0.21927598
vt 0.7179793 0.21927598
vt 0.7179793 0.21927598
vt 0.7179793 0.21927598
vt 0.7179793 0.21927598
vt 0.7179793 0.21927598
vt 0.7179793 0.21927598
vt 0.7179793 0.21927598
vt 0.7179793 0.21927598
vt 0.7179793 0.21927598
vt 0.7179793 0.21927598
vt 0.7179793 0.21927598
vt 0.7179793 0.21927598
vt 0.7179793 0.21927598
vt 0.7179793 0.21927598
vt 0.7179793 0.21927598
vt 0.7179793 0.21927598
vt 0.7179793 0.21927598
vt 0.7179793 0.21927598
vt 0.7179793 0.21927598
vt 0.7179793 0.21927598
vt 0.7179793 0.21927598
vt 0.7179793 0.21927598
vt 0.7179793 0.21927598
vt 0.7179793 0.21927598
vt 0.7179793 0.21927598
vt 0.7179793 0.21927598
vt 0.7179793 0.21927598
vt 0.7179793 0.21927598
vt 0.7179793 0.21927598
vt 0.7179793 0.21927598
vt 0.7179793 0.21927598
vt 0.7179793 0.21927598
vt 0.7179793 0.21927598
vt 0.7179793 0.21927598
vt 0.7179793 0.21927598
vt 0.7179793 0.21927598
vt 0.7179793 0.21927598
vt 0.7179793 0.21927598
vt 0.7179793 0.21927598
vt 0.7179793 0.21927598
vt 0.7179793 0.21927598
vt 0.7179793 0.21927598
vt 0.7179793 0.21927598
vt 0.7179793 0.21927598
vt 0.7179793 0.21927598
vt 0.7179793 0.21927598
vt 0.7179793 0.21927598
vt 0.7179793 0.21927598
vt 0.7179793 0.21927598
vt 0.7179793 0.21927598
vt 0.7179793 0.21927598
vt 0.7179793 0.21927598
vt 0.7179793 0.21927598
vt 0.7179793 0.21927598
vt 0.7179793 0.21927598
vt 0.7179793 0.21927598
vt 0.7179793 0.21927598
vt 0.7179793 0.21927598
vt 0.7179793 0.21927598
vt 0.7179793 0.21927598
vt 0.7179793 0.21927598
vt 0.7179793 0.21927598
vt 0.7179793 0.21927598
vt 0.7179793 0.21927598
vt 0.7179793 0.21927598
vt 0.7179793 0.21927598
vt 0.7179793 0.21927598
vt 0.7179793 0.21927598
vt 0.7179793 0.21927598
vt 0.7179793 0.21927598
vt 0.7179793 0.21927598
vt 0.7179793 0.21927598
vt 0.7179793 0.21927598
vt 0.7179793 0.21927598
vt 0.7179793 0.21927598
vt 0.7179793 0.21927598
vt 0.7179793 0.21927598
vt 0.7179793 0.21927598
vt 0.7179793 0.21927598
vt 0.7179793 0.21927598
vt 0.7179793 0.21927598
vt 0.7179793 0.21927598
vt 0.7179793 0.21927598
vt 0.7179793 0.21927598
vt 0.7179793 0.21927598
vt 0.7179793 0.21927598
vt 0.7179793 0.21927598
vt 0.7179793 0.21927598
vt 0.7179793 0.21927598
vt 0.7179793 0.21927598
vt 0.7179793 0.21927598
vt 0.7179793 0.21927598
vt 0.7179793 0.21927598
vt 0.7179793 0.21927598
vt 0.7179793 0.21927598
vt 0.7179793 0.21927598
vt 0.7179793 0.21927598
vt 0.7179793 0.21927598
vt 0.7179793 0.21927598
vt 0.7179793 0.21927598
vt 0.7179793 0.21927598
vt 0.7179793 0.21927598
vt 0.7179793 0.21927598
vt 0.7179793 0.21927598
vt 0.7179793 0.21927598
vt 0.7179793 0.21927598
vt 0.7179793 0.21927598
vt 0.7179793 0.21927598
vt 0.7179793 0.21927598
vt 0.7179793 0.21927598
vt 0.7179793 0.21927598
vt 0.7179793 0.21927598
vt 0.7179793 0.21927598
vt 0.7179793 0.21927598
vt 0.7179793 0.21927598
vt 0.7179793 0.21927598
vt 0.7179793 0.21927598
vt 0.7179793 0.21927598
vt 0.7179793 0.21927598
vt 0.7179793 0.21927598
vt 0.7179793 0.21927598
vt 0.7179793 0.21927598
vn -0.015871048 0.015871048 0.99974805
vn -0.015871048 0.015871048 0.99974805
vn -0.015871048 0.015871048 0.99974805
vn -0.015871048 0.015871048 0.99974805
vn -0.015871048 0.015871048 -0.99974805
vn -0.015871048 0.015871048 -0.99974805
vn -0.015871048 0.015871048 -0.99974805
vn -0.015871048 0.015871048 -0.99974805
vn 0.999874 0.015871048 -0.00034391563
vn 0.999874 0.015871048 -0.00034391563
vn 0.999874 0.015871048 -0.00034391563
vn 0.999874 0.015871048 -0.00034391563
vn -0.015871048 -0.999874 -0.00034526698
vn -0.015871048 -0.999874 -0.00034526698
vn -0.015871048 -0.999874 -0.00034526698
vn -0.015871048 -0.999874 -0.00034526698
vn -0.015871048 -0.999874 -0.00034526698
vn -0.015871048 -0.999874 -0.00034526698
vn -0.015871048 -0.999874 -0.00034526698
vn -0.015871048 -0.999874 -0.00034526698
vn -0.015871048 -0.999874 -0.00034526698
vn -0.015871048 -0.999874 -0.00034526698
vn -0.015871048 -0.999874 -0.00034526698
vn -0.015871048 -0.999874 -0.00034526698
vn 0.9363899 0.015871048 0.35060233
vn 0.9363899 0.015871048 0.35060233
vn 0.9363899 0.015871048 0.35060233
vn 0.9363899 0.015871048 0.35060233
vn 0.39677536 0.015871048 0.9177785
vn 0.39677536 0.015871048 0.9177785
vn 0.39677536 0.015871048 0.9177785
vn 0.39677536 0.015871048 0.9177785
vn -0.9363899 0.015871048 0.35060233
vn -0.9363899 0.015871048 0.35060233
vn -0.9363899 0.015871048 0.35060233
vn -0.9363899 0.015871048 0.35060233
vn -0.39677536 0.015871048 0.9177785
vn -0.39677536 0.015871048 0.9177785
vn -0.39677536 0.015871048 0.9177785
vn -0.39677536 0.015871048 0.9177785
vn -0.9363899 0.015871048 -0.35060233
vn -0.9363899 0.015871048 -0.35060233
vn -0.9363899 0.015871048 -0.35060233
vn -0.9363899 0.015871048 -0.35060233
vn -0.39677536 0.015871048 -0.9177785
vn -0.39677536 0.015871048 -0.9177785
vn -0.39677536 0.015871048 -0.9177785
vn -0.39677536 0.015871048 -0.9177785
vn 0.9363899 0.015871048 -0.35060233
vn 0.9363899 0.015871048 -0.35060233
vn 0.9363899 0.015871048 -0.35060233
vn 0.9363899 0.015871048 -0.35060233
vn 0.39677536 0.015871048 -0.9177785
vn 0.39677536 0.015871048 -0.9177785
vn 0.39677536 0.015871048 -0.9177785
vn 0.39677536 0.015871048 -0.9177785
vn -0.999874 0.015871048 -0.00034391563
vn -0.999874 0.015871048 -0.00034391563
vn -0.999874 0.015871048 -0.00034391563
vn -0.999874 0.015871048 -0.00034391563
vn -0.015871048 0.015871048 -0.99974805
vn -0.015871048 0.015871048 -0.99974805
vn -0.015871048 0.015871048 -0.99974805
vn -0.015871048 0.015871048 -0.99974805
vn -0.015871048 0.015871048 0.99974805
vn -0.015871048 0.015871048 0.99974805
vn -0.015871048 0.015871048 0.99974805
vn -0.015871048 0.015871048 0.99974805
vn -0.999874 0.015871048 -0.00034391563
vn -0.999874 0.015871048 -0.00034391563
vn -0.999874 0.015871048 -0.00034391563
vn -0.999874 0.015871048 -0.00034391563
vn -0.015871048 0.999874 -0.00034526698
vn -0.015871048 0.999874 -0.00034526698
vn -0.015871048 0.999874 -0.00034526698
vn -0.015871048 0.999874 -0.00034526698
vn -0.015871048 0.999874 -0.00034526698
vn -0.015871048 0.999874 -0.00034526698
vn -0.015871048 0.999874 -0.00034526698
vn -0.015871048 0.999874 -0.00034526698
vn -0.015871048 0.999874 -0.00034526698
vn -0.015871048 0.999874 -0.00034526698
vn -0.015871048 0.999874 -0.00034526698
vn -0.015871048 0.999874 -0.00034526698
vn -0.9363899 0.015871048 -0.35060233
vn -0.9363899 0.015871048 -0.35060233
vn -0.9363899 0.015871048 -0.35060233
vn -0.9363899 0.015871048 -0.35060233
vn -0.39677536 0.015871048 -0.9177785
vn -0.39677536 0.015871048 -0.9177785
vn -0.39677536 0.015871048 -0.9177785
vn -0.39677536 0.015871048 -0.9177785
vn 0.9363899 0.015871048 -0.35060233
vn 0.9363899 0.015871048 -0.35060233
vn 0.9363899 0.015871048 -0.35060233
vn 0.9363899 0.015871048 -0.35060233
vn 0.39677536 0.015871048 -0.9177785
vn 0.39677536 0.015871048 -0.9177785
vn 0.39677536 0.015871048 -0.9177785
vn 0.39677536 0.015871048 -0.9177785
vn 0.9363899 0.015871048 0.35060233
vn 0.9363899 0.015871048 0.35060233
vn 0.9363899 0.015871048 0.35060233
vn 0.9363899 0.015871048 0.35060233
vn 0.39677536 0.015871048 0.9177785
vn 0.39677536 0.015871048 0.9177785
vn 0.39677536 0.015871048 0.9177785
vn 0.39677536 0.015871048 0.9177785
vn -0.9363899 0.015871048 0.35060233
vn -0.9363899 0.015871048 0.35060233
vn -0.9363899 0.015871048 0.35060233
vn -0.9363899 0.015871048 0.35060233
vn -0.39677536 0.015871048 0.9177785
vn -0.39677536 0.015871048 0.9177785
vn -0.39677536 0.015871048 0.9177785
vn -0.39677536 0.015871048 0.9177785
vn 0.999874 0.015871048 -0.00034391563
vn 0.999874 0.015871048 -0.00034391563
vn 0.999874 0.015871048 -0.00034391563
vn 0.999874 0.015871048 -0.00034391563
vn -0.015871048 0.999874 -0.00034526698
vn -0.015871048 0.999874 -0.00034526698
vn -0.015871048 0.999874 -0.00034526698
vn -0.015871048 0.999874 -0.00034526698
vn -0.015871048 0.999874 -0.00034526698
vn -0.015871048 0.999874 -0.00034526698
vn -0.015871048 0.999874 -0.00034526698
vn -0.015871048 0.999874 -0.00034526698
vn -0.015871048 0.999874 -0.00034526698
vn -0.015871048 0.999874 -0.00034526698
vn -0.015871048 0.999874 -0.00034526698
vn -0.015871048 0.999874 -0.00034526698
vn -0.015871048 0.999874 -0.00034526698
vn -0.015871048 0.999874 -0.00034526698
vn -0.015871048 0.999874 -0.00034526698
vn -0.015871048 0.999874 -0.00034526698
vn -0.015871048 0.999874 -0.00034526698
vn -0.015871048 0.999874 -0.00034526698
vn -0.015871048 0.999874 -0.00034526698
vn -0.015871048 0.999874 -0.00034526698
vn -0.015871048 0.999874 -0.00034526698
vn -0.015871048 0.999874 -0.00034526698
vn -0.015871048 0.999874 -0.00034526698
vn -0.015871048 0.999874 -0.00034526698
g tray_0
f 3/3/3 2/2/2 1/1/1
f 4/4/4 3/3/3 1/1/1
f 7/7/7 6/6/6 5/5/5
f 8/8/8 7/7/7 5/5/5
f 11/11/11 10/10/10 9/9/9
f 12/12/12 11/11/11 9/9/9
f 15/15/15 14/14/14 13/13/13
f 13/13/13 16/16/16 15/15/15
f 13/13/13 17/17/17 16/16/16
f 17/17/17 18/18/18 16/16/16
f 17/17/17 19/19/19 18/18/18
f 19/19/19 20/20/20 18/18/18
f 19/19/19 21/21/21 20/20/20
f 21/21/21 22/22/22 20/20/20
f 21/21/21 23/23/23 22/22/22
f 23/23/23 24/24/24 22/22/22
f 27/27/27 26/26/26 25/25/25
f 28/28/28 27/27/27 25/25/25
f 31/31/31 30/30/30 29/29/29
f 32/32/32 31/31/31 29/29/29
f 35/35/35 34/34/34 33/33/33
f 36/36/36 35/35/35 33/33/33
f 39/39/39 38/38/38 37/37/37
f 40/40/40 39/39/39 37/37/37
f 43/43/43 42/42/42 41/41/41
f 44/44/44 43/43/43 41/41/41
f 47/47/47 46/46/46 45/45/45
f 48/48/48 47/47/47 45/45/45
f 51/51/51 50/50/50 49/49/49
f 52/52/52 51/51/51 49/49/49
f 55/55/55 54/54/54 53/53/53
f 56/56/56 55/55/55 53/53/53
f 59/59/59 58/58/58 57/57/57
f 60/60/60 59/59/59 57/57/57
f 63/63/63 62/62/62 61/61/61
f 64/64/64 63/63/63 61/61/61
f 67/67/67 66/66/66 65/65/65
f 68/68/68 67/67/67 65/65/65
f 71/71/71 70/70/70 69/69/69
f 72/72/72 71/71/71 69/69/69
f 75/75/75 74/74/74 73/73/73
f 73/73/73 76/76/76 75/75/75
f 73/73/73 77/77/77 76/76/76
f 77/77/77 78/78/78 76/76/76
f 77/77/77 79/79/79 78/78/78
f 79/79/79 80/80/80 78/78/78
f 79/79/79 81/81/81 80/80/80
f 81/81/81 82/82/82 80/80/80
f 81/81/81 83/83/83 82/82/82
f 83/83/83 84/84/84 82/82/82
f 87/87/87 86/86/86 85/85/85
f 88/88/88 87/87/87 85/85/85
f 91/91/91 90/90/90 89/89/89
f 92/92/92 91/91/91 89/89/89
f 95/95/95 94/94/94 93/93/93
f 96/96/96 95/95/95 93/93/93
f 99/99/99 98/98/98 97/97/97
f 100/100/100 99/99/99 97/97/97
f 103/103/103 102/102/102 101/101/101
f 104/104/104 103/103/103 101/101/101
f 107/107/107 106/106/106 105/105/105
f 108/108/108 107/107/107 105/105/105
f 111/111/111 110/110/110 109/109/109
f 112/112/112 111/111/111 109/109/109
f 115/115/115 114/114/114 113/113/113
f 116/116/116 115/115/115 113/113/113
f 119/119/119 118/118/118 117/117/117
f 120/120/120 119/119/119 117/117/117
f 123/123/123 122/122/122 121/121/121
f 122/122/122 124/124/124 121/121/121
f 125/125/125 122/122/122 123/123/123
f 121/121/121 124/124/124 126/126/126
f 127/127/127 125/125/125 123/123/123
f 124/124/124 128/128/128 126/126/126
f 129/129/129 125/125/125 127/127/127
f 126/126/126 128/128/128 130/130/130
f 131/131/131 129/129/129 127/127/127
f 128/128/128 132/132/132 130/130/130
f 133/133/133 129/129/129 131/131/131
f 130/130/130 132/132/132 134/134/134
f 135/135/135 133/133/133 131/131/131
f 132/132/132 136/136/136 134/134/134
f 137/137/137 133/133/133 135/135/135
f 134/134/134 136/136/136 138/138/138
f 139/139/139 137/137/137 135/135/135
f 136/136/136 140/140/140 138/138/138
f 141/141/141 137/137/137 139/139/139
f 138/138/138 140/140/140 142/142/142
f 143/143/143 141/141/141 139/139/139
f 140/140/140 144/144/144 142/142/142
f 144/144/144 141/141/141 143/143/143
f 142/142/142 144/144/144 143/143/143
