g tree_Apple
v 5.6100497 2.6617198 -9.743669
v 6.0995283 3.2373247 -7.4306755
v 4.6946692 3.6930768 -7.1428804
v 4.523161 1.4905487 -8.664163
v 1.3208268 1.7851495 -6.870568
v 2.8454456 4.2007775 -8.182349
v 4.165371 4.845515 -11.565507
v 4.523161 1.4905487 -8.664163
v 2.8454456 4.2007775 -8.182349
v 4.165371 4.845515 -11.565507
v 3.8964612 3.642159 -13.232215
v 5.0165577 1.1184528 -10.804293
v 2.4964015 -4.7838073 -11.931274
v 0.6275744 -4.8139725 -10.505185
v 4.3143554 -3.2757275 -11.103223
v -2.9453328 3.0739584 -7.5182233
v -3.396763 0.088828705 -7.390088
v -4.8726597 2.1931016 -9.169349
v 3.0621479 0.6890995 -14.3897295
v 3.8964612 3.642159 -13.232215
v 2.3543413 4.850033 -13.562585
v 4.6946692 3.6930768 -7.1428804
v 5.969052 1.8191105 -5.8134265
v 3.2133875 2.8037717 -5.747899
v 1.3208268 1.7851495 -6.870568
v -2.9453328 3.0739584 -7.5182233
v 2.8454456 4.2007775 -8.182349
v 2.3543413 4.850033 -13.562585
v 4.165371 4.845515 -11.565507
v 1.9192846 6.1906934 -10.278174
v 2.3543413 4.850033 -13.562585
v 3.8964612 3.642159 -13.232215
v 4.165371 4.845515 -11.565507
v 0.6275744 -4.8139725 -10.505185
v 2.4964015 -4.7838073 -11.931274
v 0.7171476 -4.9505467 -12.751106
v 3.0621479 0.6890995 -14.3897295
v 2.3543413 4.850033 -13.562585
v 0.83693945 0.7710631 -15.30579
v -3.2604322 -7.1041875 -7.037056
v -1.2340615 -6.2650423 -4.746227
v -1.4553055 -7.0673676 -7.0094056
v 0.51026964 -5.476287 -7.338192
v -2.5611832 -6.895046 -8.834487
v 0.42227373 -4.9509287 -9.247572
v -0.22061862 -3.7481894 -9.830447
v -3.1516726 -5.3009977 -9.59446
v -4.8519187 -5.4110804 -8.52844
v -2.473542 -2.1818001 -9.399942
v 1.5524557 -3.2487488 -8.221486
v 0.51026964 -5.476287 -7.338192
v 1.5524557 -3.2487488 -8.221486
v 0.17572191 -3.8380017 -4.478586
v -1.2340615 -6.2650423 -4.746227
v 0.88272333 -1.9797418 -5.878065
v -0.35816884 -0.8147624 -6.297327
v 0.88272333 -1.9797418 -5.878065
v -2.0971267 -1.7536838 -3.9686496
v 0.17572191 -3.8380017 -4.478586
v -1.2340615 -6.2650423 -4.746227
v -2.1312397 -0.42591852 -7.779363
v -2.473542 -2.1818001 -9.399942
v -4.6876945 -4.6826887 -4.3082986
v -4.016596 -6.244076 -5.384696
v -5.4357395 -3.6041992 -6.329071
v -4.8519187 -5.4110804 -8.52844
v -4.8188725 -2.591016 -4.645784
v -3.9688709 -0.7254878 -5.499217
v -2.5606704 -0.20573276 -5.394421
v -4.186979 -2.0885546 -7.900635
v -5.4357395 -3.6041992 -6.329071
v -4.8519187 -5.4110804 -8.52844
v -3.1516726 -5.3009977 -9.59446
v -1.2340615 -6.2650423 -4.746227
v -3.2604322 -7.1041875 -7.037056
v -4.016596 -6.244076 -5.384696
v -4.8519187 -5.4110804 -8.52844
v -2.5611832 -6.895046 -8.834487
v -1.4553055 -7.0673676 -7.0094056
v 6.0995283 3.2373247 -7.4306755
v 5.6100497 2.6617198 -9.743669
v 7.1652713 1.3474302 -8.58378
v 5.969052 1.8191105 -5.8134265
v 4.6946692 3.6930768 -7.1428804
v 7.55822 -0.30847105 -8.163835
v 6.3480253 -1.2488458 -6.2763376
v 6.65683 -1.852824 -10.250219
v 3.7908087 -2.2977188 -5.719424
v 2.2001483 1.1014125 -4.98532
v 3.2133875 2.8037717 -5.747899
v 1.4968208 -0.599985 -5.7961893
v 1.6699448 2.2926693 -7.0116515
v 4.6946692 3.6930768 -7.1428804
v 1.0977992 -1.8370366 -7.3299284
v 3.0451283 2.6198094 -9.092099
v 5.6100497 2.6617198 -9.743669
v 3.8641486 1.4020804 -10.835316
v 0.43333107 0.3877394 -8.824088
v 2.5034359 -2.9211833 -7.660716
v 4.828088 -2.9057198 -8.70899
v 4.5131474 -2.5495114 -10.633411
v 1.2324128 -2.2085333 -9.229221
v 1.4968208 -0.599985 -5.7961893
v 1.6699448 2.2926693 -7.0116515
v 2.2001483 1.1014125 -4.98532
v 4.5507097 -1.2426908 -11.333725
v 6.65683 -1.852824 -10.250219
v 1.4852506 -0.6373255 -10.19597
v 3.8641486 1.4020804 -10.835316
v 5.6100497 2.6617198 -9.743669
v 7.1652713 1.3474302 -8.58378
v 1.3208268 1.7851495 -6.870568
v -0.7907464 -0.672771 -6.6071224
v -2.9453328 3.0739584 -7.5182233
v -3.396763 0.088828705 -7.390088
v -0.49331266 5.73166 -11.83456
v 2.3543413 4.850033 -13.562585
v 1.9192846 6.1906934 -10.278174
v -0.68790466 5.7354407 -9.467253
v 2.8454456 4.2007775 -8.182349
v 4.165371 4.845515 -11.565507
v -2.9453328 3.0739584 -7.5182233
v -3.6254854 4.2716837 -9.699781
v -4.8726597 2.1931016 -9.169349
v -2.3229406 3.6933365 -13.421012
v 2.3543413 4.850033 -13.562585
v -5.7786703 -0.19554701 -12.40225
v -2.4468257 1.6902009 -15.027848
v 0.83693945 0.7710631 -15.30579
v -4.0222654 -0.06734482 -14.851831
v -5.1526494 -1.8674226 -13.345187
v -4.5696983 -2.911692 -9.4787655
v -4.293305 -4.0186443 -11.881143
v -3.396763 0.088828705 -7.390088
v -1.9574863 -2.9848661 -7.4654636
v 0.83693945 0.7710631 -15.30579
v -2.4468257 1.6902009 -15.027848
v 0.08964409 -4.0331273 -14.656652
v -2.2048516 -3.884726 -14.087793
v -5.1526494 -1.8674226 -13.345187
v 1.7059482 -2.80363 -14.661055
v 3.0621479 0.6890995 -14.3897295
v 2.77463 -4.309683 -13.335302
v 0.08964409 -4.0331273 -14.656652
v 4.3143554 -3.2757275 -11.103223
v 2.4964015 -4.7838073 -11.931274
v -4.293305 -4.0186443 -11.881143
v -5.7786703 -0.19554701 -12.40225
v 0.7171476 -4.9505467 -12.751106
v 2.77463 -4.309683 -13.335302
v 2.4964015 -4.7838073 -11.931274
v 0.6275744 -4.8139725 -10.505185
v -3.2793803 -4.177837 -10.084463
v -4.5696983 -2.911692 -9.4787655
v -1.9574863 -2.9848661 -7.4654636
v 0.6275744 -4.8139725 -10.505185
v -3.2793803 -4.177837 -10.084463
v 1.6601079 -3.089898 -8.015578
v -0.7907464 -0.672771 -6.6071224
v -3.396763 0.088828705 -7.390088
v 1.6601079 -3.089898 -8.015578
v 1.3208268 1.7851495 -6.870568
v 4.523161 1.4905487 -8.664163
v 4.696451 -1.4757243 -9.519999
v 4.3143554 -3.2757275 -11.103223
v 4.696451 -1.4757243 -9.519999
v 5.0165577 1.1184528 -10.804293
v 4.523161 1.4905487 -8.664163
v 4.165371 4.845515 -11.565507
v 3.0621479 0.6890995 -14.3897295
v 3.8964612 3.642159 -13.232215
v 6.3480253 -1.2488458 -6.2763376
v 4.828088 -2.9057198 -8.70899
v 3.7908087 -2.2977188 -5.719424
v 0.47513598 -0.13466953 -9.217363
v -0.22087249 -0.54383373 -9.250222
v -0.1538379 -0.8928019 -5.221068
v -0.5698501 -0.20590693 -9.301505
v 0.83432865 -0.29733795 -5.091801
v 0.32823083 0.36027703 -9.302083
v 0.63082296 0.3778926 -5.542022
v -0.08246547 0.6199733 -9.3412
v -0.04979585 0.61837065 -5.2798414
v -0.50661725 0.26111224 -9.385612
v -0.7457342 0.2104282 -5.2045817
v -0.6864307 -0.5247137 -5.3746214
v 0.52248895 -0.27932322 -2.4682019
v 0.31217036 0.60358775 -2.6507642
v -0.36430678 0.75232935 -2.6292026
v -1.0742381 0.30011737 -2.7047536
v -0.7700907 -0.92415434 -2.5820725
v -1.1054825 -0.23491198 -2.2420514
v 0.9276705 -0.2010924 -0.031167306
v 0.9456646 0.8659355 -0.047542155
v -0.08417987 -1.0255733 -0.010448888
v -0.307559 1.3380617 -0.0351974
v -1.0933071 -0.43363422 0.005729504
v -0.95216453 0.5660965 -0.008220203
v -0.090813115 0.11093837 -6.5516424
v -2.2212682 -1.5904238 -7.4401035
v 0.0795847 -0.56146085 -6.2745733
v -2.3449914 -1.0724308 -7.6555176
v -2.5306916 -1.3351823 -6.9829416
v -0.4317205 0.18109766 -5.8776298
v -0.33143878 -0.22578324 -5.701045
v -2.6087296 -0.9985052 -7.120008
v 0.25803158 -0.19044732 -6.3096123
v 0.17314124 2.8848524 -7.7699313
v -0.4749917 0.11531686 -6.07801
v 0.732402 2.643623 -7.949398
v 0.57913667 3.0637965 -7.25167
v 0.50390685 0.1632745 -5.5711045
v 0.063114405 0.35078123 -5.42293
v 0.936963 2.9072955 -7.3640513
vt 0.2830496 0.46579397
vt 0.2830496 0.4657939
vt 0.28304964 0.46579397
vt 0.2830496 0.46579394
vt 0.28304958 0.4657939
vt 0.28304964 0.4657939
vt 0.2830496 0.4657939
vt 0.2830496 0.46579394
vt 0.28304964 0.4657939
vt 0.2830496 0.4657939
vt 0.28304964 0.46579394
vt 0.28304964 0.4657939
vt 0.28304964 0.46579394
vt 0.2830496 0.46579394
vt 0.28304964 0.4657939
vt 0.28304964 0.46579397
vt 0.28304964 0.4657939
vt 0.2830496 0.4657939
vt 0.2830496 0.4657939
vt 0.28304964 0.46579394
vt 0.28304964 0.4657939
vt 0.28304964 0.46579397
vt 0.2830496 0.4657939
vt 0.28304964 0.4657939
vt 0.28304958 0.4657939
vt 0.28304964 0.46579397
vt 0.28304964 0.4657939
vt 0.28304964 0.4657939
vt 0.2830496 0.4657939
vt 0.28304964 0.46579397
vt 0.28304964 0.4657939
vt 0.28304964 0.46579394
vt 0.2830496 0.4657939
vt 0.2830496 0.46579394
vt 0.28304964 0.46579394
vt 0.28304964 0.4657939
vt 0.2830496 0.4657939
vt 0.28304964 0.4657939
vt 0.28304964 0.46579397
vt 0.2830496 0.4657939
vt 0.28304964 0.46579394
vt 0.28304964 0.4657939
vt 0.28304964 0.4657939
vt 0.28304964 0.46579397
vt 0.28304964 0.4657939
vt 0.28304964 0.4657939
vt 0.2830496 0.4657939
vt 0.2830496 0.46579394
vt 0.28304964 0.4657939
vt 0.28304964 0.4657939
vt 0.28304964 0.4657939
vt 0.28304964 0.4657939
vt 0.2830496 0.4657939
vt 0.28304964 0.46579394
vt 0.28304958 0.46579388
vt 0.28304964 0.4657939
vt 0.28304958 0.46579388
vt 0.2830496 0.4657939
vt 0.2830496 0.4657939
vt 0.28304964 0.46579394
vt 0.2830496 0.46579394
vt 0.28304964 0.4657939
vt 0.28304964 0.46579394
vt 0.2830496 0.46579388
vt 0.28304964 0.46579394
vt 0.2830496 0.46579394
vt 0.28304964 0.4657939
vt 0.28304964 0.4657939
vt 0.28304964 0.4657939
vt 0.28304964 0.4657939
vt 0.28304964 0.46579394
vt 0.2830496 0.46579394
vt 0.2830496 0.4657939
vt 0.28304964 0.46579394
vt 0.2830496 0.4657939
vt 0.2830496 0.46579388
vt 0.2830496 0.46579394
vt 0.28304964 0.46579397
vt 0.28304964 0.4657939
vt 0.2830496 0.4657939
vt 0.2830496 0.46579397
vt 0.28304964 0.46579394
vt 0.2830496 0.4657939
vt 0.28304964 0.46579397
vt 0.28304964 0.4657939
vt 0.28304964 0.4657939
vt 0.28304964 0.4657939
vt 0.2830496 0.4657939
vt 0.28304964 0.46579394
vt 0.28304964 0.4657939
vt 0.2830496 0.4657939
vt 0.28304964 0.4657939
vt 0.28304964 0.46579397
vt 0.28304964 0.4657939
vt 0.28304964 0.4657939
vt 0.2830496 0.46579397
vt 0.2830496 0.4657939
vt 0.28304958 0.4657939
vt 0.28304964 0.4657939
vt 0.28304964 0.46579394
vt 0.28304964 0.4657939
vt 0.28304964 0.4657939
vt 0.2830496 0.4657939
vt 0.28304964 0.4657939
vt 0.28304964 0.46579394
vt 0.28304964 0.4657939
vt 0.28304964 0.4657939
vt 0.2830496 0.4657939
vt 0.2830496 0.4657939
vt 0.2830496 0.46579397
vt 0.28304964 0.46579394
vt 0.28304958 0.4657939
vt 0.2830496 0.46579388
vt 0.28304964 0.46579397
vt 0.28304964 0.4657939
vt 0.28304964 0.46579394
vt 0.28304964 0.4657939
vt 0.28304964 0.46579397
vt 0.28304964 0.46579397
vt 0.28304964 0.4657939
vt 0.2830496 0.4657939
vt 0.28304964 0.46579397
vt 0.28304964 0.4657939
vt 0.2830496 0.4657939
vt 0.28304964 0.4657939
vt 0.28304964 0.4657939
vt 0.2830496 0.4657939
vt 0.2830496 0.4657939
vt 0.28304964 0.46579397
vt 0.28304964 0.4657939
vt 0.28304964 0.4657939
vt 0.28304964 0.46579397
vt 0.2830496 0.46579394
vt 0.28304964 0.4657939
vt 0.28304964 0.4657939
vt 0.28304964 0.46579397
vt 0.2830496 0.4657939
vt 0.2830496 0.4657939
vt 0.28304964 0.4657939
vt 0.28304964 0.4657939
vt 0.2830496 0.4657939
vt 0.2830496 0.4657939
vt 0.2830496 0.46579394
vt 0.2830496 0.4657939
vt 0.28304964 0.4657939
vt 0.28304964 0.46579394
vt 0.2830496 0.46579394
vt 0.2830496 0.4657939
vt 0.28304964 0.4657939
vt 0.2830496 0.46579394
vt 0.28304964 0.46579394
vt 0.2830496 0.46579394
vt 0.2830496 0.4657939
vt 0.28304964 0.46579397
vt 0.28304964 0.4657939
vt 0.2830496 0.46579394
vt 0.2830496 0.4657939
vt 0.28304964 0.4657939
vt 0.2830496 0.46579388
vt 0.28304964 0.4657939
vt 0.28304964 0.4657939
vt 0.28304958 0.4657939
vt 0.2830496 0.46579394
vt 0.28304964 0.465794
vt 0.28304964 0.4657939
vt 0.28304964 0.465794
vt 0.28304964 0.4657939
vt 0.2830496 0.46579394
vt 0.2830496 0.4657939
vt 0.2830496 0.4657939
vt 0.28304964 0.46579394
vt 0.28304964 0.4657939
vt 0.28304964 0.46579394
vt 0.2830496 0.4657939
vt 0.34398597 0.030889213
vt 0.34398597 0.030889213
vt 0.34398597 0.030889213
vt 0.34398597 0.030889213
vt 0.34398597 0.030889213
vt 0.34398597 0.030889213
vt 0.34398597 0.030889213
vt 0.34398597 0.030889213
vt 0.34398597 0.030889213
vt 0.34398597 0.030889213
vt 0.34398597 0.030889213
vt 0.34398597 0.030889213
vt 0.34398597 0.030889213
vt 0.34398597 0.030889213
vt 0.34398597 0.030889213
vt 0.34398597 0.030889213
vt 0.34398597 0.030889213
vt 0.34398597 0.030889213
vt 0.34398597 0.030889213
vt 0.34398597 0.030889213
vt 0.34398597 0.030889213
vt 0.34398597 0.030889213
vt 0.34398597 0.030889213
vt 0.34398597 0.030889213
vt 0.34398597 0.030889213
vt 0.34398597 0.030889213
vt 0.34398597 0.030889213
vt 0.34398597 0.030889213
vt 0.34398597 0.030889213
vt 0.34398597 0.030889213
vt 0.34398597 0.030889213
vt 0.34398597 0.030889213
vt 0.34398597 0.030889213
vt 0.34398597 0.030889213
vt 0.34398597 0.030889213
vt 0.34398597 0.030889213
vt 0.34398597 0.030889213
vt 0.34398597 0.030889213
vt 0.34398597 0.030889213
vt 0.34398597 0.030889213
vn 0.3807662 0.67039806 -0.6368543
vn 0.6269229 0.7646537 0.1492392
vn 0.037580885 0.98386174 0.1749394
vn 0.7963637 0.089139715 0.5982131
vn 0.22849761 0.1430474 0.96297777
vn 0.44146287 0.52694243 0.7262522
vn 0.7813154 0.6176864 -0.08949783
vn 0.7963637 0.089139715 0.5982131
vn 0.44146287 0.52694243 0.7262522
vn 0.7813154 0.6176864 -0.08949783
vn 0.73252726 0.27084768 -0.62453604
vn 0.9929249 0.033386927 -0.11395307
vn 0.39791474 -0.9127312 0.09265955
vn 0.07293563 -0.95873946 0.27477092
vn 0.8422385 -0.53873026 0.020101614
vn -0.3927225 0.44019896 0.80746144
vn -0.5618156 -0.05375322 0.8255143
vn -0.89099556 0.29142454 0.34813616
vn 0.64294213 0.005868108 -0.76589227
vn 0.73252726 0.27084768 -0.62453604
vn 0.2322945 0.66665214 -0.70824724
vn 0.037580885 0.98386174 0.1749394
vn 0.5601295 0.28965154 0.7761165
vn -0.19726852 0.73082095 0.65344155
vn 0.22849761 0.1430474 0.96297777
vn -0.3927225 0.44019896 0.80746144
vn 0.44146287 0.52694243 0.7262522
vn 0.2322945 0.66665214 -0.70824724
vn 0.7813154 0.6176864 -0.08949783
vn 0.2219149 0.952823 0.20707974
vn 0.2322945 0.66665214 -0.70824724
vn 0.73252726 0.27084768 -0.62453604
vn 0.7813154 0.6176864 -0.08949783
vn 0.07293563 -0.95873946 0.27477092
vn 0.39791474 -0.9127312 0.09265955
vn -0.010400797 -0.9750463 -0.22175793
vn 0.64294213 0.005868108 -0.76589227
vn 0.2322945 0.66665214 -0.70824724
vn 0.14931586 0.099963345 -0.9837235
vn -0.34998736 -0.93535835 0.051122457
vn 0.33294794 -0.64455885 0.688251
vn 0.34766752 -0.93711275 0.030772215
vn 0.7788279 -0.6262351 0.035449713
vn -0.035489164 -0.8162865 -0.576556
vn 0.59703314 -0.47229916 -0.64844817
vn 0.31538552 0.17689413 -0.93233067
vn -0.27865735 -0.20313379 -0.9386623
vn -0.82088643 -0.30116665 -0.48522595
vn -0.17455803 0.48052964 -0.8594305
vn 0.93425184 0.16727 -0.31495112
vn 0.7788279 -0.6262351 0.035449713
vn 0.93425184 0.16727 -0.31495112
vn 0.6334759 -0.119098425 0.7645416
vn 0.33294794 -0.64455885 0.688251
vn 0.8180559 0.49131006 0.29899675
vn 0.5244386 0.8458019 0.09789462
vn 0.8180559 0.49131006 0.29899675
vn 0.098159716 0.37875968 0.92027485
vn 0.6334759 -0.119098425 0.7645416
vn 0.33294794 -0.64455885 0.688251
vn -0.0005049416 0.8880374 -0.459771
vn -0.17455803 0.48052964 -0.8594305
vn -0.60063434 -0.2995333 0.741295
vn -0.53765607 -0.7308591 0.42044124
vn -0.99759406 0.057588916 -0.03859299
vn -0.82088643 -0.30116665 -0.48522595
vn -0.7280158 0.3137021 0.6095768
vn -0.6126833 0.75463194 0.23483983
vn -0.02301148 0.9295443 0.36799136
vn -0.71565706 0.49034628 -0.49738863
vn -0.99759406 0.057588916 -0.03859299
vn -0.82088643 -0.30116665 -0.48522595
vn -0.27865735 -0.20313379 -0.9386623
vn 0.33294794 -0.64455885 0.688251
vn -0.34998736 -0.93535835 0.051122457
vn -0.53765607 -0.7308591 0.42044124
vn -0.82088643 -0.30116665 -0.48522595
vn -0.035489164 -0.8162865 -0.576556
vn 0.34766752 -0.93711275 0.030772215
vn 0.6269229 0.7646537 0.1492392
vn 0.3807662 0.67039806 -0.6368543
vn 0.917773 0.34532586 -0.19606791
vn 0.5601295 0.28965154 0.7761165
vn 0.037580885 0.98386174 0.1749394
vn 0.9945714 -0.102450795 0.018211018
vn 0.63506734 -0.44044006 0.63458806
vn 0.7181074 -0.46384874 -0.51881236
vn 0.079698615 -0.67148125 0.7367231
vn -0.41705534 0.17870902 0.89113855
vn -0.19726852 0.73082095 0.65344155
vn -0.7114728 -0.2170663 0.6683478
vn -0.73844016 0.65894073 0.1431896
vn 0.037580885 0.98386174 0.1749394
vn -0.7935261 -0.5146953 0.32466143
vn -0.40559232 0.7978419 -0.44603044
vn 0.3807662 0.67039806 -0.6368543
vn -0.1033708 0.43511882 -0.89441943
vn -0.94049543 0.24260661 -0.23792948
vn -0.2684941 -0.94803315 0.1707165
vn 0.24155731 -0.97012234 0.02264365
vn -0.0056442767 -0.7766007 -0.6299678
vn -0.66625655 -0.651727 -0.3624281
vn -0.7114728 -0.2170663 0.6683478
vn -0.73844016 0.65894073 0.1431896
vn -0.41705534 0.17870902 0.89113855
vn 0.07334927 -0.10981183 -0.9912423
vn 0.7181074 -0.46384874 -0.51881236
vn -0.6014011 -0.04148734 -0.7978694
vn -0.1033708 0.43511882 -0.89441943
vn 0.3807662 0.67039806 -0.6368543
vn 0.917773 0.34532586 -0.19606791
vn 0.22849761 0.1430474 0.96297777
vn -0.009275636 -0.12694448 0.9918665
vn -0.3927225 0.44019896 0.80746144
vn -0.5618156 -0.05375322 0.8255143
vn -0.2679513 0.8911651 -0.36609688
vn 0.2322945 0.66665214 -0.70824724
vn 0.2219149 0.952823 0.20707974
vn -0.22020723 0.88669705 0.4065431
vn 0.44146287 0.52694243 0.7262522
vn 0.7813154 0.6176864 -0.08949783
vn -0.3927225 0.44019896 0.80746144
vn -0.6759014 0.72979665 0.10273317
vn -0.89099556 0.29142454 0.34813616
vn -0.48724774 0.6667417 -0.5639548
vn 0.2322945 0.66665214 -0.70824724
vn -0.97774214 0.12093345 -0.17145123
vn -0.30904102 0.3443028 -0.88653773
vn 0.14931586 0.099963345 -0.9837235
vn -0.5524129 0.09555254 -0.82807595
vn -0.80984205 -0.35018408 -0.4706665
vn -0.77957046 -0.44216532 0.4435759
vn -0.6289063 -0.7689932 -0.114569336
vn -0.5618156 -0.05375322 0.8255143
vn -0.22313826 -0.5760066 0.7864005
vn 0.14931586 0.099963345 -0.9837235
vn -0.30904102 0.3443028 -0.88653773
vn -0.0022377402 -0.59735554 -0.8019734
vn -0.32595813 -0.7164858 -0.61676526
vn -0.80984205 -0.35018408 -0.4706665
vn 0.38683912 -0.24426514 -0.88920754
vn 0.64294213 0.005868108 -0.76589227
vn 0.57751006 -0.62778074 -0.5218942
vn -0.0022377402 -0.59735554 -0.8019734
vn 0.8422385 -0.53873026 0.020101614
vn 0.39791474 -0.9127312 0.09265955
vn -0.6289063 -0.7689932 -0.114569336
vn -0.97774214 0.12093345 -0.17145123
vn -0.010400797 -0.9750463 -0.22175793
vn 0.57751006 -0.62778074 -0.5218942
vn 0.39791474 -0.9127312 0.09265955
vn 0.07293563 -0.95873946 0.27477092
vn -0.3174017 -0.8950388 0.31330782
vn -0.77957046 -0.44216532 0.4435759
vn -0.22313826 -0.5760066 0.7864005
vn 0.07293563 -0.95873946 0.27477092
vn -0.3174017 -0.8950388 0.31330782
vn 0.331766 -0.59567285 0.7315088
vn -0.009275636 -0.12694448 0.9918665
vn -0.5618156 -0.05375322 0.8255143
vn 0.331766 -0.59567285 0.7315088
vn 0.22849761 0.1430474 0.96297777
vn 0.7963637 0.089139715 0.5982131
vn 0.8492396 -0.29050624 0.4409062
vn 0.8422385 -0.53873026 0.020101614
vn 0.8492396 -0.29050624 0.4409062
vn 0.9929249 0.033386927 -0.11395307
vn 0.7963637 0.089139715 0.5982131
vn 0.7813154 0.6176864 -0.08949783
vn 0.64294213 0.005868108 -0.76589227
vn 0.73252726 0.27084768 -0.62453604
vn 0.63506734 -0.44044006 0.63458806
vn 0.24155731 -0.97012234 0.02264365
vn 0.079698615 -0.67148125 0.7367231
vn 0.93268883 -0.34724426 -0.097533844
vn -0.09792223 -0.9910499 -0.09072731
vn -0.083551146 -0.99498785 -0.054940917
vn -0.9230968 -0.37965894 -0.061247777
vn 0.92856026 -0.36992538 0.030512607
vn 0.7122995 0.6459888 -0.27445942
vn 0.7581699 0.651642 -0.023262234
vn -0.041102853 0.817901 -0.5738889
vn -0.106302135 0.99338984 -0.04331908
vn -0.8350433 0.49054512 -0.24913478
vn -0.8811438 0.46467263 -0.08754973
vn -0.90421027 -0.41719568 -0.091387615
vn 0.894732 -0.44256327 -0.059936594
vn 0.7099034 0.6980097 -0.0939124
vn -0.19983363 0.97231275 -0.1211383
vn -0.8969449 0.430305 -0.10162452
vn -0.24165946 -0.9694337 -0.04241329
vn -0.949071 -0.314796 -0.0129484935
vn 0.889749 -0.4140773 -0.19205897
vn 0.77347744 0.5873619 -0.23819885
vn 0.006816769 -0.998362 -0.056804426
vn -0.19434385 0.96649283 -0.16769631
vn -0.93061185 -0.36326373 0.044733472
vn -0.8776136 0.47755596 -0.041651223
vn 0.12231771 0.5443388 -0.8298998
vn -0.08747272 -0.9012442 -0.42439073
vn 0.48909897 -0.8461403 -0.21172811
vn -0.35531992 0.19957344 -0.91319126
vn -0.7004815 -0.54091823 0.4655461
vn -0.5964687 0.7186251 0.35749564
vn -0.3138927 -0.38360772 0.86851394
vn -0.91987723 0.3870849 0.06317577
vn 0.4201111 -0.5070653 -0.75258976
vn -0.66198874 0.5325598 -0.5274001
vn -0.9605698 0.055560477 -0.27243108
vn 0.41809383 0.06872993 -0.90580004
vn -0.06391156 0.93200016 0.3567787
vn 0.90950626 0.11907405 0.39827108
vn -0.17974563 0.5737353 0.79907405
vn 0.8421841 0.53706133 0.04786491
g tree_Apple_0
f 3/3/3 2/2/2 1/1/1
f 6/6/6 5/5/5 4/4/4
f 9/9/9 8/8/8 7/7/7
f 12/12/12 11/11/11 10/10/10
f 15/15/15 14/14/14 13/13/13
f 18/18/18 17/17/17 16/16/16
f 21/21/21 20/20/20 19/19/19
f 24/24/24 23/23/23 22/22/22
f 27/27/27 26/26/26 25/25/25
f 30/30/30 29/29/29 28/28/28
f 33/33/33 32/32/32 31/31/31
f 36/36/36 35/35/35 34/34/34
f 39/39/39 38/38/38 37/37/37
f 42/42/42 41/41/41 40/40/40
f 43/43/43 41/41/41 42/42/42
f 42/42/42 44/44/44 43/43/43
f 44/44/44 45/45/45 43/43/43
f 45/45/45 44/44/44 46/46/46
f 47/47/47 46/46/46 44/44/44
f 44/44/44 48/48/48 47/47/47
f 47/47/47 49/49/49 46/46/46
f 46/46/46 49/49/49 50/50/50
f 46/46/46 50/50/50 45/45/45
f 52/52/52 51/51/51 45/45/45
f 51/51/51 52/52/52 53/53/53
f 54/54/54 51/51/51 53/53/53
f 53/53/53 52/52/52 55/55/55
f 57/57/57 50/50/50 56/56/56
f 58/58/58 57/57/57 56/56/56
f 59/59/59 57/57/57 58/58/58
f 60/60/60 59/59/59 58/58/58
f 50/50/50 61/61/61 56/56/56
f 61/61/61 50/50/50 62/62/62
f 63/63/63 60/60/60 58/58/58
f 60/60/60 63/63/63 64/64/64
f 63/63/63 65/65/65 64/64/64
f 65/65/65 66/66/66 64/64/64
f 67/67/67 65/65/65 63/63/63
f 67/67/67 63/63/63 58/58/58
f 67/67/67 68/68/68 65/65/65
f 67/67/67 58/58/58 68/68/68
f 69/69/69 58/58/58 56/56/56
f 56/56/56 61/61/61 69/69/69
f 58/58/58 69/69/69 68/68/68
f 68/68/68 69/69/69 61/61/61
f 68/68/68 61/61/61 70/70/70
f 62/62/62 70/70/70 61/61/61
f 68/68/68 70/70/70 71/71/71
f 70/70/70 72/72/72 71/71/71
f 62/62/62 72/72/72 70/70/70
f 62/62/62 73/73/73 72/72/72
f 76/76/76 75/75/75 74/74/74
f 76/76/76 77/77/77 75/75/75
f 77/77/77 78/78/78 75/75/75
f 78/78/78 79/79/79 75/75/75
f 82/82/82 81/81/81 80/80/80
f 80/80/80 83/83/83 82/82/82
f 83/83/83 80/80/80 84/84/84
f 83/83/83 85/85/85 82/82/82
f 86/86/86 85/85/85 83/83/83
f 86/86/86 87/87/87 85/85/85
f 88/88/88 86/86/86 83/83/83
f 89/89/89 88/88/88 83/83/83
f 90/90/90 89/89/89 83/83/83
f 88/88/88 89/89/89 91/91/91
f 90/90/90 92/92/92 89/89/89
f 90/90/90 93/93/93 92/92/92
f 91/91/91 94/94/94 88/88/88
f 93/93/93 95/95/95 92/92/92
f 93/93/93 96/96/96 95/95/95
f 97/97/97 95/95/95 96/96/96
f 95/95/95 98/98/98 92/92/92
f 97/97/97 98/98/98 95/95/95
f 99/99/99 88/88/88 94/94/94
f 100/100/100 88/88/88 99/99/99
f 87/87/87 100/100/100 101/101/101
f 99/99/99 102/102/102 100/100/100
f 102/102/102 99/99/99 94/94/94
f 102/102/102 101/101/101 100/100/100
f 98/98/98 102/102/102 94/94/94
f 103/103/103 98/98/98 94/94/94
f 104/104/104 98/98/98 103/103/103
f 105/105/105 104/104/104 103/103/103
f 101/101/101 102/102/102 106/106/106
f 106/106/106 107/107/107 101/101/101
f 102/102/102 98/98/98 108/108/108
f 108/108/108 106/106/106 102/102/102
f 109/109/109 108/108/108 98/98/98
f 108/108/108 109/109/109 106/106/106
f 106/106/106 109/109/109 107/107/107
f 110/110/110 107/107/107 109/109/109
f 107/107/107 110/110/110 111/111/111
f 85/85/85 107/107/107 111/111/111
f 114/114/114 113/113/113 112/112/112
f 114/114/114 115/115/115 113/113/113
f 118/118/118 117/117/117 116/116/116
f 118/118/118 116/116/116 119/119/119
f 118/118/118 119/119/119 120/120/120
f 120/120/120 121/121/121 118/118/118
f 119/119/119 122/122/122 120/120/120
f 123/123/123 122/122/122 119/119/119
f 123/123/123 119/119/119 116/116/116
f 123/123/123 124/124/124 122/122/122
f 123/123/123 116/116/116 125/125/125
f 125/125/125 116/116/116 126/126/126
f 123/123/123 127/127/127 124/124/124
f 127/127/127 123/123/123 125/125/125
f 128/128/128 125/125/125 126/126/126
f 129/129/129 128/128/128 126/126/126
f 128/128/128 130/130/130 125/125/125
f 130/130/130 127/127/127 125/125/125
f 131/131/131 127/127/127 130/130/130
f 132/132/132 124/124/124 127/127/127
f 132/132/132 127/127/127 133/133/133
f 124/124/124 132/132/132 134/134/134
f 135/135/135 134/134/134 132/132/132
f 137/137/137 136/136/136 130/130/130
f 136/136/136 138/138/138 130/130/130
f 138/138/138 139/139/139 130/130/130
f 139/139/139 140/140/140 130/130/130
f 138/138/138 136/136/136 141/141/141
f 141/141/141 136/136/136 142/142/142
f 141/141/141 142/142/142 143/143/143
f 141/141/141 143/143/143 144/144/144
f 142/142/142 145/145/145 143/143/143
f 145/145/145 146/146/146 143/143/143
f 140/140/140 139/139/139 147/147/147
f 140/140/140 147/147/147 148/148/148
f 149/149/149 139/139/139 138/138/138
f 147/147/147 139/139/139 149/149/149
f 149/149/149 138/138/138 150/150/150
f 151/151/151 149/149/149 150/150/150
f 152/152/152 147/147/147 149/149/149
f 153/153/153 147/147/147 152/152/152
f 147/147/147 153/153/153 154/154/154
f 153/153/153 155/155/155 154/154/154
f 155/155/155 157/157/157 156/156/156
f 158/158/158 155/155/155 156/156/156
f 160/160/160 155/155/155 159/159/159
f 159/159/159 155/155/155 161/161/161
f 159/159/159 161/161/161 162/162/162
f 161/161/161 163/163/163 162/162/162
f 163/163/163 161/161/161 164/164/164
f 165/165/165 161/161/161 152/152/152
f 165/165/165 164/164/164 161/161/161
f 165/165/165 167/167/167 166/166/166
f 168/168/168 166/166/166 167/167/167
f 167/167/167 169/169/169 168/168/168
f 165/165/165 170/170/170 167/167/167
f 171/171/171 167/167/167 170/170/170
f 174/174/174 173/173/173 172/172/172
f 173/173/173 87/87/87 172/172/172
f 177/177/177 176/176/176 175/175/175
f 178/178/178 176/176/176 177/177/177
f 179/179/179 177/177/177 175/175/175
f 175/175/175 180/180/180 179/179/179
f 180/180/180 181/181/181 179/179/179
f 180/180/180 182/182/182 181/181/181
f 182/182/182 183/183/183 181/181/181
f 182/182/182 184/184/184 183/183/183
f 184/184/184 178/178/178 185/185/185
f 184/184/184 185/185/185 183/183/183
f 186/186/186 178/178/178 177/177/177
f 178/178/178 186/186/186 185/185/185
f 177/177/177 179/179/179 187/187/187
f 179/179/179 181/181/181 188/188/188
f 187/187/187 179/179/179 188/188/188
f 181/181/181 183/183/183 189/189/189
f 188/188/188 181/181/181 189/189/189
f 183/183/183 185/185/185 190/190/190
f 189/189/189 183/183/183 190/190/190
f 186/186/186 177/177/177 191/191/191
f 191/191/191 177/177/177 187/187/187
f 185/185/185 186/186/186 192/192/192
f 190/190/190 185/185/185 192/192/192
f 192/192/192 186/186/186 191/191/191
f 187/187/187 188/188/188 193/193/193
f 188/188/188 194/194/194 193/193/193
f 188/188/188 189/189/189 194/194/194
f 187/187/187 193/193/193 195/195/195
f 191/191/191 187/187/187 195/195/195
f 189/189/189 196/196/196 194/194/194
f 189/189/189 190/190/190 196/196/196
f 191/191/191 195/195/195 197/197/197
f 192/192/192 191/191/191 197/197/197
f 190/190/190 198/198/198 196/196/196
f 192/192/192 197/197/197 198/198/198
f 190/190/190 192/192/192 198/198/198
f 201/201/201 200/200/200 199/199/199
f 200/200/200 202/202/202 199/199/199
f 203/203/203 200/200/200 201/201/201
f 199/199/199 202/202/202 204/204/204
f 205/205/205 203/203/203 201/201/201
f 202/202/202 206/206/206 204/204/204
f 206/206/206 203/203/203 205/205/205
f 204/204/204 206/206/206 205/205/205
f 209/209/209 208/208/208 207/207/207
f 208/208/208 210/210/210 207/207/207
f 211/211/211 208/208/208 209/209/209
f 207/207/207 210/210/210 212/212/212
f 213/213/213 211/211/211 209/209/209
f 210/210/210 214/214/214 212/212/212
f 214/214/214 211/211/211 213/213/213
f 212/212/212 214/214/214 213/213/213
