g tree_Orange
v 0.63969326 -0.8970976 0.003818512
v 0.7469444 -0.12488365 0.003818512
v 0.5753422 -0.039082527 -2.3986225
v 0.42518902 -0.5538912 -2.5916758
v -0.41137505 -0.9399977 0.003818512
v 0.36083794 0.62587833 -2.4200735
v 0.78984547 0.7545805 0.003818512
v -0.2183218 -0.5538912 -3.0635843
v -0.90473366 -0.38228893 0.003818512
v -0.11106968 0.6687794 -2.5702257
v -0.08961964 1.0977869 0.003818512
v -0.62587833 -0.16778469 -2.741829
v -0.7760315 0.47572613 0.003818512
v -0.51862717 0.368474 -2.9563322
v 0.36083794 -0.61824226 -5.7019796
v 0.63969326 -0.23213577 -5.7234297
v -0.11106968 -0.68259335 -5.809231
v 0.4895401 0.23977184 -6.109536
v -0.49717617 -0.44664 -5.959384
v -0.56152725 0.11106968 -5.809231
v -0.025268555 0.41137505 -5.873582
v -0.4328251 -0.25358582 -8.190222
v -0.046718597 -0.23213577 -8.125871
v -0.7116804 0.025268555 -8.254573
v 0.16778469 0.11106968 -8.147321
v -0.64732933 0.41137505 -8.297474
v 0.06053257 0.47572613 -8.190222
v -0.30412292 0.6044283 -8.276024
v 0.18923473 0.2183218 -9.5630455
v 0.2750368 -0.06053257 -9.520144
v 0.12488365 -0.31793785 -9.498693
v -0.17542076 -0.3393879 -9.5415945
v -0.389925 -0.12488365 -9.605946
v -0.32557392 0.17542076 -9.627396
v -0.068169594 0.32557392 -9.605946
v 4.0074005 -3.685645 -11.300525
v 1.3475552 -0.70404434 -14.968537
v 1.9267149 -4.9726667 -12.7806
v 1.3261042 -5.122819 -9.520144
v -1.140687 -4.8439646 -13.98182
v 3.9430494 1.5911455 -13.874569
v 5.337323 -1.6264095 -8.147321
v -4.315341 -0.08198357 -14.882736
v -3.58603 -5.294422 -12.351593
v -0.368474 -3.2351875 -6.9461
v -0.9261837 3.1999235 -14.839835
v 5.4231243 4.0150366 -10.635563
v 3.8786983 6.009921 -12.7806
v 3.556943 3.1784716 -7.375108
v -1.4838934 6.4818277 -11.321976
v 2.2270203 6.9751863 -9.627396
v 0.12488365 2.9854193 -6.710147
v -4.8945017 4.0364866 -8.7693815
v -5.967019 2.1488543 -11.107471
v -6.1600733 -2.5702257 -12.7806
v -4.444043 -3.621294 -8.361824
v -2.4706106 -0.42518902 -6.645795
vt 0.3447028 0.030889213
vt 0.3447028 0.030889213
vt 0.3447028 0.030889213
vt 0.3447028 0.030889213
vt 0.3447028 0.030889213
vt 0.3447028 0.030889213
vt 0.3447028 0.030889213
vt 0.3447028 0.030889213
vt 0.3447028 0.030889213
vt 0.3447028 0.030889213
vt 0.3447028 0.030889213
vt 0.3447028 0.030889213
vt 0.3447028 0.030889213
vt 0.3447028 0.030889213
vt 0.3447028 0.030889213
vt 0.3447028 0.030889213
vt 0.3447028 0.030889213
vt 0.3447028 0.030889213
vt 0.3447028 0.030889213
vt 0.3447028 0.030889213
vt 0.3447028 0.030889213
vt 0.3447028 0.030889213
vt 0.3447028 0.030889213
vt 0.3447028 0.030889213
vt 0.3447028 0.030889213
vt 0.3447028 0.030889213
vt 0.3447028 0.030889213
vt 0.3447028 0.030889213
vt 0.3447028 0.030889213
vt 0.3447028 0.030889213
vt 0.3447028 0.030889213
vt 0.3447028 0.030889213
vt 0.3447028 0.030889213
vt 0.3447028 0.030889213
vt 0.3447028 0.030889213
vt 0.22020067 0.46579394
vt 0.22020067 0.46579394
vt 0.22020067 0.46579394
vt 0.22020067 0.46579394
vt 0.22020067 0.46579394
vt 0.22020067 0.46579394
vt 0.22020067 0.46579394
vt 0.22020067 0.46579394
vt 0.22020067 0.46579394
vt 0.22020067 0.46579394
vt 0.22020067 0.46579394
vt 0.22020067 0.46579394
vt 0.22020067 0.46579394
vt 0.22020067 0.46579394
vt 0.22020067 0.46579394
vt 0.22020067 0.46579394
vt 0.22020067 0.46579394
vt 0.22020067 0.46579394
vt 0.22020067 0.46579394
vt 0.22020067 0.46579394
vt 0.22020067 0.46579394
vt 0.22020067 0.46579394
vn 0.64990914 -0.74475324 -0.15152796
vn 0.99767095 -0.04922968 -0.04721353
vn 0.99767095 -0.04922968 -0.04721353
vn 0.5866797 -0.8079827 -0.05450573
vn -0.3617615 -0.90282685 -0.23244841
vn 0.70890135 0.70530766 -0
vn 0.77636796 0.6146793 -0.13936345
vn -0.33014685 -0.9344415 -0.1334996
vn -0.9540884 -0.2995251 -0
vn -0.20368797 0.962441 -0.17949517
vn -0.1720733 0.962441 -0.20999543
vn -0.93082637 -0.30214733 -0.2055949
vn -0.8675969 0.4882204 -0.09442689
vn -0.83598214 0.51983505 -0.17579931
vn 0.5234503 -0.8395974 -0.14517564
vn 0.98973316 -0.14292748 -0
vn -0.23530275 -0.9660562 -0.106620714
vn 0.74475324 0.64629394 -0.16627312
vn -0.8675969 -0.46022087 -0.188341
vn -0.8675969 0.4882204 0.09442689
vn -0.10884386 0.9940557 -0.0025135817
vn -0.3610308 -0.932554 -0
vn 0.49161124 -0.87081474 -0
vn -0.93082637 -0.33376205 -0.14887969
vn 0.98973316 -0.14292748 -0
vn -0.83474636 0.5506346 -0
vn 0.70890135 0.70530766 -0
vn -0.10884386 0.9940557 -0.0025135817
vn 0.64990914 0.42499095 -0.63008
vn 0.8395974 -0.1756885 -0.51401335
vn 0.46022087 -0.74475324 -0.48325908
vn -0.1720733 -0.77636796 -0.6063362
vn -0.6146793 -0.30214733 -0.72861266
vn -0.51983505 0.33014685 -0.78789246
vn 0.04922968 0.6779086 -0.73349595
vn 0.77636796 -0.5866797 -0.23034698
vn 0.30214733 -0.14407378 -0.94231087
vn 0.42860615 -0.77636796 -0.4621142
vn 0.20730323 -0.90282685 0.3767347
vn -0.01399976 -0.7131386 -0.7008833
vn 0.68152386 -0.01761496 -0.73158383
vn 0.8079827 -0.30214733 0.5058369
vn -0.4882204 0.0772292 -0.86929655
vn -0.3933763 -0.90282685 -0.17366277
vn 0.01761496 -0.5234503 0.8518741
vn -0.14045864 0.42499095 -0.89423376
vn 0.9554214 0.2952458 -0
vn 0.5234503 0.6779086 -0.51617795
vn 0.46022087 0.2985322 0.8361072
vn -0.3617615 0.8992116 -0.24606323
vn 0.20730323 0.8992116 0.38528416
vn -0.01399976 0.2985322 0.9542969
vn -0.7095234 0.55144984 0.43872502
vn -0.93082637 0.33014685 -0.15673329
vn -0.8675969 -0.33376205 -0.368617
vn -0.5830645 -0.55506504 0.59324414
vn -0.2985322 -0.01761496 0.954237
g tree_Orange_0
f 3/3/3 2/2/2 1/1/1
f 4/4/4 3/3/3 1/1/1
f 4/4/4 1/1/1 5/5/5
f 3/3/3 6/6/6 2/2/2
f 6/6/6 7/7/7 2/2/2
f 8/8/8 4/4/4 5/5/5
f 8/8/8 5/5/5 9/9/9
f 6/6/6 10/10/10 7/7/7
f 10/10/10 11/11/11 7/7/7
f 12/12/12 8/8/8 9/9/9
f 12/12/12 9/9/9 13/13/13
f 14/14/14 13/13/13 11/11/11
f 10/10/10 14/14/14 11/11/11
f 14/14/14 12/12/12 13/13/13
f 4/4/4 15/15/15 3/3/3
f 3/3/3 16/16/16 6/6/6
f 15/15/15 16/16/16 3/3/3
f 8/8/8 17/17/17 4/4/4
f 17/17/17 15/15/15 4/4/4
f 6/6/6 18/18/18 10/10/10
f 16/16/16 18/18/18 6/6/6
f 12/12/12 19/19/19 8/8/8
f 19/19/19 17/17/17 8/8/8
f 14/14/14 20/20/20 12/12/12
f 20/20/20 19/19/19 12/12/12
f 10/10/10 21/21/21 14/14/14
f 18/18/18 21/21/21 10/10/10
f 21/21/21 20/20/20 14/14/14
f 17/17/17 22/22/22 15/15/15
f 15/15/15 23/23/23 16/16/16
f 22/22/22 23/23/23 15/15/15
f 19/19/19 24/24/24 17/17/17
f 24/24/24 22/22/22 17/17/17
f 16/16/16 25/25/25 18/18/18
f 23/23/23 25/25/25 16/16/16
f 20/20/20 26/26/26 19/19/19
f 26/26/26 24/24/24 19/19/19
f 18/18/18 27/27/27 21/21/21
f 25/25/25 27/27/27 18/18/18
f 21/21/21 28/28/28 20/20/20
f 28/28/28 26/26/26 20/20/20
f 27/27/27 28/28/28 21/21/21
f 27/27/27 29/29/29 28/28/28
f 25/25/25 30/30/30 27/27/27
f 30/30/30 29/29/29 27/27/27
f 31/31/31 30/30/30 25/25/25
f 23/23/23 31/31/31 25/25/25
f 30/30/30 31/31/31 29/29/29
f 32/32/32 31/31/31 23/23/23
f 22/22/22 32/32/32 23/23/23
f 31/31/31 32/32/32 29/29/29
f 33/33/33 32/32/32 22/22/22
f 24/24/24 33/33/33 22/22/22
f 32/32/32 33/33/33 29/29/29
f 34/34/34 33/33/33 24/24/24
f 26/26/26 34/34/34 24/24/24
f 33/33/33 34/34/34 29/29/29
f 28/28/28 35/35/35 26/26/26
f 29/29/29 35/35/35 28/28/28
f 34/34/34 35/35/35 29/29/29
f 35/35/35 34/34/34 26/26/26
f 38/38/38 37/37/37 36/36/36
f 39/39/39 38/38/38 36/36/36
f 38/38/38 40/40/40 37/37/37
f 40/40/40 38/38/38 39/39/39
f 36/36/36 37/37/37 41/41/41
f 39/39/39 36/36/36 42/42/42
f 36/36/36 41/41/41 42/42/42
f 43/43/43 37/37/37 40/40/40
f 44/44/44 40/40/40 39/39/39
f 44/44/44 43/43/43 40/40/40
f 39/39/39 42/42/42 45/45/45
f 45/45/45 44/44/44 39/39/39
f 41/41/41 37/37/37 46/46/46
f 46/46/46 37/37/37 43/43/43
f 42/42/42 41/41/41 47/47/47
f 48/48/48 41/41/41 46/46/46
f 47/47/47 41/41/41 48/48/48
f 42/42/42 47/47/47 49/49/49
f 45/45/45 42/42/42 49/49/49
f 48/48/48 46/46/46 50/50/50
f 50/50/50 46/46/46 43/43/43
f 47/47/47 48/48/48 51/51/51
f 49/49/49 47/47/47 51/51/51
f 51/51/51 48/48/48 50/50/50
f 49/49/49 51/51/51 52/52/52
f 45/45/45 49/49/49 52/52/52
f 51/51/51 50/50/50 53/53/53
f 51/51/51 53/53/53 52/52/52
f 50/50/50 43/43/43 54/54/54
f 53/53/53 50/50/50 54/54/54
f 55/55/55 43/43/43 44/44/44
f 43/43/43 55/55/55 54/54/54
f 55/55/55 44/44/44 56/56/56
f 56/56/56 54/54/54 55/55/55
f 56/56/56 44/44/44 45/45/45
f 53/53/53 54/54/54 56/56/56
f 57/57/57 45/45/45 52/52/52
f 56/56/56 45/45/45 57/57/57
f 52/52/52 53/53/53 57/57/57
f 57/57/57 53/53/53 56/56/56
