g veg_Tomato
v 0.115816236 0.45902264 -0.10278869
v 0.1646694 0.46390796 0.00794512
v 0.17606843 0.76842594 -0.036022723
v 0.06370616 0.48344922 0.058426738
v 0.15978408 0.7895957 -0.08324742
v 0.011596143 0.48670614 -0.055563986
v 0.11255932 0.7928525 -0.06207776
v 0.13047218 0.7749398 -0.013224602
v 0.16955471 0.89544415 0.05516982
v 0.08650434 0.5046189 0.0014313459
v -0.09262395 0.5127611 -0.12070155
v -0.11705053 0.48507762 -0.3096004
v 0.047421813 0.48996294 -0.21840787
v -0.31246316 0.5778986 -0.058820844
v 0.1646694 0.4785639 -0.3763664
v -0.09262395 0.5111327 0.05679828
v 0.20375192 0.5046189 -0.18095374
v -0.121935844 0.4769355 0.2603531
v 0.42196268 0.5339308 -0.2118941
v 0.05067867 0.49484825 0.17567432
v 0.27703166 0.5143895 -0.022995234
v 0.18421066 0.5013621 0.36945856
v 0.4056783 0.5078758 0.13496333
v 0.21352255 0.5046189 0.13659179
v 0.03765118 -0.35682514 0.6006968
v -0.33526134 -0.31448573 0.49484825
v -0.4769355 0.14147711 0.6283803
v -0.5697565 -0.37473798 0.14147711
v 0.24283445 0.050284505 0.7293434
v 0.049050212 -0.6043478 -0.032765865
v 0.5115268 -0.38776547 0.31734848
v -0.43459606 -0.45778835 -0.3551967
v -0.7781966 0.20498621 -0.014853001
v 0.24283445 -0.4317333 -0.53432494
v -0.52253175 -0.12558687 -0.6173753
v -0.33363283 0.37434387 0.40039885
v -0.55510056 0.37760067 -0.39427924
v 0.11255932 0.41179788 0.62023807
v 0.0897612 0.5111327 -0.021366775
v -0.23429811 0.025857925 -0.77044857
v 0.5375818 0.40039885 0.4801923
v 0.68902665 -0.031137407 0.34666038
v 0.1646694 0.31897688 -0.5945772
v 0.7215954 0.21964216 -0.04090804
v 0.6255175 -0.2786601 -0.19235283
v 0.36985266 -0.06696308 -0.63854504
v 0.5994625 0.048656106 -0.39102235
vt 0.15435904 0.4714573
vt 0.15435904 0.4714573
vt 0.15435904 0.4714573
vt 0.15435904 0.4714573
vt 0.15435904 0.4714573
vt 0.15435904 0.4714573
vt 0.15435904 0.4714573
vt 0.15435904 0.4714573
vt 0.15435904 0.4714573
vt 0.15435904 0.4714573
vt 0.15435904 0.4714573
vt 0.15435904 0.4714573
vt 0.15435904 0.4714573
vt 0.15435904 0.4714573
vt 0.15435904 0.4714573
vt 0.15435904 0.4714573
vt 0.15435904 0.4714573
vt 0.15435904 0.4714573
vt 0.15435904 0.4714573
vt 0.15435904 0.4714573
vt 0.15435904 0.4714573
vt 0.15435904 0.4714573
vt 0.15435904 0.4714573
vt 0.15435904 0.4714573
vt 0.2166946 0.84547067
vt 0.2166946 0.84547067
vt 0.2166946 0.84547067
vt 0.2166946 0.84547067
vt 0.2166946 0.84547067
vt 0.2166946 0.84547067
vt 0.2166946 0.84547067
vt 0.2166946 0.84547067
vt 0.2166946 0.84547067
vt 0.2166946 0.84547067
vt 0.2166946 0.84547067
vt 0.2166946 0.84547067
vt 0.2166946 0.84547067
vt 0.2166946 0.84547067
vt 0.2166946 0.84547067
vt 0.2166946 0.84547067
vt 0.2166946 0.84547067
vt 0.2166946 0.84547067
vt 0.2166946 0.84547067
vt 0.2166946 0.84547067
vt 0.2166946 0.84547067
vt 0.2166946 0.84547067
vt 0.2166946 0.84547067
vn 0.3636076 0.016903639 -0.9313988
vn 0.93437445 0.016903639 0.35589132
vn 0.9660837 -0.04651493 0.2540052
vn -0.2705778 0.30228698 0.9140078
vn 0.3953169 0.3657055 -0.84260553
vn -0.8730538 0.2705778 -0.40566576
vn -0.77792597 0.49254262 -0.3901704
vn -0.42912412 0.016903639 0.9030874
vn 0.173352 0.7462168 0.642736
vn 0.014805667 0.99989045 -0
vn 0.173352 0.9681816 -0.1804812
vn 0.0779944 0.9969537 -0
vn 0.014805667 0.99989045 -0
vn 0.173352 0.9681816 -0.1804812
vn -0.08007297 0.9967891 -0
vn 0.109933496 0.9681816 0.22480884
vn -0.14374065 0.9681816 -0.20484883
vn 0.014805667 0.99989045 -0
vn -0.08007297 0.9967891 -0
vn -0.08007297 0.9967891 -0
vn -0.04856078 0.99882025 -0
vn -0.04856078 0.99882025 -0
vn -0.016903069 0.9998572 -0
vn -0.016903069 0.9998572 -0
vn 0.014805675 -0.648991 0.760652
vn -0.42912412 -0.648991 0.6282223
vn -0.61937964 0.17544997 0.765236
vn -0.71450746 -0.648991 0.2613231
vn 0.26847982 -0.07822418 0.9601039
vn 0.04651493 -0.99779296 0.047387186
vn 0.648991 -0.6807003 0.33979082
vn -0.5242518 -0.7441188 -0.41406184
vn -0.96309644 0.26915663 -0
vn 0.33189833 -0.6807003 -0.6530625
vn -0.65108895 -0.23677057 -0.72112614
vn -0.3657055 0.8730538 0.32254702
vn -0.61937964 0.68279815 -0.38749912
vn -0.016903639 0.71450746 0.69942355
vn 0.07822418 0.9681816 -0.23770861
vn -0.17544997 0.11203134 -0.9780932
vn 0.6172818 0.61937964 0.48511034
vn 0.90266514 -0.14164275 0.40636554
vn 0.26847982 0.65108895 -0.7099308
vn 0.90266514 0.42912412 -0.03237465
vn 0.8075374 -0.522154 -0.27429664
vn 0.522154 -0.04651493 -0.8515818
vn 0.8075374 0.23886847 -0.53928214
g veg_Tomato_0
f 3/3/3 2/2/2 1/1/1
f 2/2/2 3/3/3 4/4/4
f 5/5/5 3/3/3 1/1/1
f 5/5/5 1/1/1 6/6/6
f 7/7/7 6/6/6 4/4/4
f 7/7/7 5/5/5 6/6/6
f 3/3/3 8/8/8 4/4/4
f 8/8/8 7/7/7 4/4/4
f 5/5/5 9/9/9 3/3/3
f 9/9/9 5/5/5 7/7/7
f 9/9/9 7/7/7 8/8/8
f 8/8/8 3/3/3 9/9/9
f 12/12/12 11/11/11 10/10/10
f 13/13/13 12/12/12 10/10/10
f 11/11/11 14/14/14 10/10/10
f 15/15/15 13/13/13 10/10/10
f 14/14/14 16/16/16 10/10/10
f 17/17/17 15/15/15 10/10/10
f 16/16/16 18/18/18 10/10/10
f 19/19/19 17/17/17 10/10/10
f 18/18/18 20/20/20 10/10/10
f 21/21/21 19/19/19 10/10/10
f 20/20/20 22/22/22 10/10/10
f 23/23/23 21/21/21 10/10/10
f 22/22/22 24/24/24 10/10/10
f 24/24/24 23/23/23 10/10/10
f 27/27/27 26/26/26 25/25/25
f 25/25/25 26/26/26 28/28/28
f 27/27/27 28/28/28 26/26/26
f 25/25/25 29/29/29 27/27/27
f 30/30/30 25/25/25 28/28/28
f 29/29/29 25/25/25 31/31/31
f 25/25/25 30/30/30 31/31/31
f 32/32/32 30/30/30 28/28/28
f 33/33/33 28/28/28 27/27/27
f 28/28/28 33/33/33 32/32/32
f 30/30/30 32/32/32 34/34/34
f 30/30/30 34/34/34 31/31/31
f 35/35/35 32/32/32 33/33/33
f 34/34/34 32/32/32 35/35/35
f 36/36/36 33/33/33 27/27/27
f 37/37/37 35/35/35 33/33/33
f 33/33/33 36/36/36 37/37/37
f 36/36/36 27/27/27 38/38/38
f 29/29/29 38/38/38 27/27/27
f 39/39/39 36/36/36 38/38/38
f 37/37/37 36/36/36 39/39/39
f 37/37/37 40/40/40 35/35/35
f 40/40/40 34/34/34 35/35/35
f 38/38/38 29/29/29 41/41/41
f 39/39/39 38/38/38 41/41/41
f 29/29/29 31/31/31 42/42/42
f 41/41/41 29/29/29 42/42/42
f 37/37/37 39/39/39 43/43/43
f 40/40/40 37/37/37 43/43/43
f 39/39/39 41/41/41 44/44/44
f 41/41/41 42/42/42 44/44/44
f 43/43/43 39/39/39 44/44/44
f 31/31/31 45/45/45 42/42/42
f 34/34/34 45/45/45 31/31/31
f 45/45/45 44/44/44 42/42/42
f 46/46/46 34/34/34 40/40/40
f 43/43/43 46/46/46 40/40/40
f 34/34/34 46/46/46 45/45/45
f 47/47/47 43/43/43 44/44/44
f 45/45/45 47/47/47 44/44/44
f 46/46/46 47/47/47 45/45/45
f 43/43/43 47/47/47 46/46/46
