g veg_Carrot
v 1.2743123 -0.23836756 -0.06615174
v 1.361745 -0.08469808 -0.07939911
v 1.2663639 -0.16683173 -0.19067705
v 0.56425303 0.16700208 0.10076523
v 1.2769618 0.23323894 -0.18537807
v 0.5059646 -0.095295906 0.116662025
v 1.3273019 0.061023116 -0.19597602
v 1.367044 0.14845574 -0.02376008
v 1.4253324 -0.04495585 0.24383688
v 1.5048167 0.055724144 0.047775745
v 1.4544766 -0.14298642 0.039827347
v 0.6225415 0.07162106 -0.055553794
v -1.2055963 -0.013162255 0.0053840876
v -1.1393594 -0.12708962 -0.09794545
v -1.13671 -0.021110654 -0.14828539
v -1.1632048 0.090167284 -0.10589385
v -0.7790309 -0.026409626 -0.34434652
v -1.1420089 -0.16683173 0.013332605
v -0.7737318 -0.27016127 -0.23041916
v -1.1393594 -0.116491675 0.11931157
v -0.7737318 -0.36289287 0.021281004
v -0.14580631 -0.029059052 -0.45297503
v -0.14050734 -0.34699607 -0.3046044
v -0.7710825 -0.2489655 0.26503265
v -1.13671 -0.007863283 0.15905368
v -0.14315689 -0.4662224 0.02393043
v -1.131411 0.10076523 0.10871363
v -0.7657834 0.002734661 0.35511482
v -1.1605552 0.14050734 8.523464E-05
v -0.7710825 0.2464863 0.24118745
v -0.13785791 -0.31785178 0.34186745
v -0.80022657 0.33921802 -0.01051271
v -0.13255894 0.013332605 0.46109378
v -0.80552566 0.22529054 -0.25161493
v -0.13520837 0.3312695 0.3153727
v -0.15375471 0.30212533 -0.3337487
v -0.15110528 0.45049596 -0.015811682
v 0.4344287 -0.50066566 0.02393043
v 0.43972766 -0.33904767 0.3683622
v 0.44767606 0.015982032 0.49818647
v 0.43972766 0.3604138 0.33921802
v 0.4185319 0.49023807 -0.018461108
v 0.41323292 0.3312695 -0.36289287
v 0.43707824 -0.37084138 -0.33109915
v 0.4264803 -0.026409626 -0.49271715
v 0.7470668 -0.02376008 -0.45562458
v 0.7470668 -0.3416971 -0.30725396
v 0.7470668 -0.46092343 0.02393043
v 0.7523657 -0.31255293 0.34186745
v 0.76296365 0.015982032 0.46109378
v 0.76296365 0.33391905 0.31272328
v 0.7444173 0.45579493 -0.015811682
v 0.73911834 0.3074243 -0.3337487
v 0.93253005 -0.26221287 -0.23571813
v 0.93253005 -0.35229504 0.018631458
v 0.937829 -0.2410171 0.25973368
v 0.9457774 0.013332605 0.3524654
v 0.94047844 -0.018461108 -0.34699607
v 0.9457774 0.23323894 -0.2569139
v 0.9510764 0.34716642 -0.013162255
v 0.9510764 0.25708425 0.23853791
v 1.0623543 -0.01051271 -0.1880275
v 1.0570554 -0.14298642 -0.12708962
v 1.1047459 -0.002564311 0.002734661
v 1.0570554 -0.19067705 0.01068306
v 1.0597048 -0.12973905 0.14050734
v 1.0650038 0.0053840876 0.1908474
v 1.0676533 0.13785791 0.1299094
v 1.0676533 0.18819785 -0.0052137375
v 1.0650038 0.12725997 -0.13768756
vt 0.15547878 0.47066864
vt 0.15547878 0.47066864
vt 0.15547878 0.47066864
vt 0.15547878 0.47066864
vt 0.15547878 0.47066864
vt 0.15547878 0.47066864
vt 0.15547878 0.47066864
vt 0.15547878 0.47066864
vt 0.15547878 0.47066864
vt 0.15547878 0.47066864
vt 0.15547878 0.47066864
vt 0.15547878 0.47066864
vt 0.4674849 0.9673314
vt 0.4674849 0.9673314
vt 0.4674849 0.9673314
vt 0.4674849 0.9673314
vt 0.4674849 0.9673314
vt 0.4674849 0.9673314
vt 0.4674849 0.9673314
vt 0.4674849 0.9673314
vt 0.4674849 0.9673314
vt 0.4674849 0.9673314
vt 0.4674849 0.9673314
vt 0.4674849 0.9673314
vt 0.4674849 0.9673314
vt 0.4674849 0.9673314
vt 0.4674849 0.9673314
vt 0.4674849 0.9673314
vt 0.4674849 0.9673314
vt 0.4674849 0.9673314
vt 0.4674849 0.9673314
vt 0.4674849 0.9673314
vt 0.4674849 0.9673314
vt 0.4674849 0.9673314
vt 0.4674849 0.9673314
vt 0.4674849 0.9673314
vt 0.4674849 0.9673314
vt 0.4674849 0.9673314
vt 0.4674849 0.9673314
vt 0.4674849 0.9673314
vt 0.4674849 0.9673314
vt 0.4674849 0.9673314
vt 0.4674849 0.9673314
vt 0.4674849 0.9673314
vt 0.4674849 0.9673314
vt 0.4674849 0.9673314
vt 0.4674849 0.9673314
vt 0.4674849 0.9673314
vt 0.4674849 0.9673314
vt 0.4674849 0.9673314
vt 0.4674849 0.9673314
vt 0.4674849 0.9673314
vt 0.4674849 0.9673314
vt 0.4674849 0.9673314
vt 0.4674849 0.9673314
vt 0.4674849 0.9673314
vt 0.4674849 0.9673314
vt 0.4674849 0.9673314
vt 0.4674849 0.9673314
vt 0.4674849 0.9673314
vt 0.4674849 0.9673314
vt 0.4674849 0.9673314
vt 0.4674849 0.9673314
vt 0.4674849 0.9673314
vt 0.4674849 0.9673314
vt 0.4674849 0.9673314
vt 0.4674849 0.9673314
vt 0.4674849 0.9673314
vt 0.4674849 0.9673314
vt 0.4674849 0.9673314
vn 0.23828089 -0.9044419 0.3538461
vn 0.87271994 0.42788 0.23511411
vn 0.14311504 -0.23828089 -0.9605937
vn -0.8719874 0.39615804 0.28757048
vn 0.111393094 0.84026545 -0.53060865
vn -0.9354313 -0.2700029 0.22818133
vn 0.52377844 -0.58722234 -0.6171111
vn 0.74583215 0.14238244 0.6507393
vn 0.2700029 -0.079671144 0.9595577
vn 0.74583215 0.6182118 -0.24808982
vn 0.4603346 -0.80927604 -0.3649169
vn -0.96715325 0.14238244 -0.210575
vn -0.9988498 -0.047947977 -0
vn -0.71337765 -0.52377844 -0.46556252
vn -0.6816557 -0.079671144 -0.7273225
vn -0.7450996 0.39615804 -0.53654957
vn -0.3009922 -0.047949195 -0.95242035
vn -0.70674384 -0.7074696 -0
vn -0.3009922 -0.7141102 -0.63202083
vn -0.6816557 -0.4603346 0.5687157
vn -0.3009922 -0.93616384 0.18166162
vn -0.11066049 -0.047949195 -0.99270093
vn -0.11066049 -0.74583215 -0.65687793
vn -0.3009922 -0.6506663 0.6971636
vn -0.6816557 0.047216594 0.730148
vn -0.11003173 -0.993928 -0
vn -0.6816557 0.4913239 0.5421682
vn -0.3009922 0.047216594 0.95245695
vn -0.7450996 0.64993376 0.14970878
vn -0.3009922 0.6816557 0.66689515
vn -0.11066049 -0.68238825 0.72256523
vn -0.33271414 0.9354313 -0.11945539
vn -0.11066049 0.047216594 0.99273604
vn -0.33271414 0.6182118 -0.7121204
vn -0.11066049 0.71337765 0.6919874
vn -0.11066049 0.6816557 -0.72325635
vn -0.110111445 0.99391925 -0
vn 0.016227245 -0.99960774 0.022825517
vn 0.016227245 -0.68238825 0.7308098
vn 0.016227245 0.047216594 0.99875283
vn 0.016227245 0.7450996 0.6667558
vn 0.016227245 0.9988752 -0.04455349
vn 0.016227245 0.6816557 -0.7314931
vn 0.016227245 -0.74583215 -0.66593623
vn 0.016227245 -0.047949195 -0.99871796
vn 0.30172485 -0.047949195 -0.95218855
vn 0.30172485 -0.7141102 -0.63167137
vn 0.30172485 -0.93616384 0.18044221
vn 0.30172485 -0.6506663 0.69684684
vn 0.30172485 0.047216594 0.95222515
vn 0.30172485 0.71337765 0.63249856
vn 0.26889107 0.96317065 -0
vn 0.2700029 0.64993376 -0.71041155
vn 0.6189443 -0.58722234 -0.52161086
vn 0.6417573 -0.76690775 -0
vn 0.6506663 -0.52377844 0.54980856
vn 0.6506663 0.015494645 0.75920564
vn 0.6189443 -0.047949195 -0.78396994
vn 0.6189443 0.52304596 -0.5859444
vn 0.6189443 0.77682155 -0.11600097
vn 0.6506663 0.5547679 0.5185228
vn 0.87271994 -0.047949195 -0.48586088
vn 0.87271994 -0.36516875 -0.3240551
vn 0.99960774 -0.016227245 -0.022825733
vn 0.8710839 -0.49113414 -0
vn 0.87271994 -0.3334468 0.35661346
vn 0.9044419 -0.016227245 0.42628807
vn 0.9044419 0.33271414 0.26699466
vn 0.9039464 0.4276456 -0
vn 0.9044419 0.3009922 -0.30230537
g veg_Carrot_0
f 3/3/3 2/2/2 1/1/1
f 1/1/1 4/4/4 3/3/3
f 3/3/3 4/4/4 2/2/2
f 2/2/2 4/4/4 1/1/1
f 7/7/7 6/6/6 5/5/5
f 7/7/7 5/5/5 8/8/8
f 5/5/5 6/6/6 8/8/8
f 8/8/8 6/6/6 7/7/7
f 11/11/11 10/10/10 9/9/9
f 9/9/9 12/12/12 11/11/11
f 11/11/11 12/12/12 10/10/10
f 10/10/10 12/12/12 9/9/9
f 15/15/15 14/14/14 13/13/13
f 16/16/16 15/15/15 13/13/13
f 15/15/15 17/17/17 14/14/14
f 17/17/17 15/15/15 16/16/16
f 14/14/14 18/18/18 13/13/13
f 17/17/17 19/19/19 14/14/14
f 14/14/14 19/19/19 18/18/18
f 18/18/18 20/20/20 13/13/13
f 19/19/19 21/21/21 18/18/18
f 18/18/18 21/21/21 20/20/20
f 17/17/17 22/22/22 19/19/19
f 19/19/19 23/23/23 21/21/21
f 22/22/22 23/23/23 19/19/19
f 21/21/21 24/24/24 20/20/20
f 20/20/20 25/25/25 13/13/13
f 20/20/20 24/24/24 25/25/25
f 23/23/23 26/26/26 21/21/21
f 21/21/21 26/26/26 24/24/24
f 25/25/25 27/27/27 13/13/13
f 24/24/24 28/28/28 25/25/25
f 25/25/25 28/28/28 27/27/27
f 27/27/27 29/29/29 13/13/13
f 29/29/29 16/16/16 13/13/13
f 27/27/27 30/30/30 29/29/29
f 28/28/28 30/30/30 27/27/27
f 24/24/24 31/31/31 28/28/28
f 26/26/26 31/31/31 24/24/24
f 29/29/29 32/32/32 16/16/16
f 30/30/30 32/32/32 29/29/29
f 28/28/28 33/33/33 30/30/30
f 31/31/31 33/33/33 28/28/28
f 32/32/32 34/34/34 16/16/16
f 34/34/34 17/17/17 16/16/16
f 30/30/30 35/35/35 32/32/32
f 33/33/33 35/35/35 30/30/30
f 34/34/34 36/36/36 17/17/17
f 36/36/36 22/22/22 17/17/17
f 32/32/32 37/37/37 34/34/34
f 35/35/35 37/37/37 32/32/32
f 37/37/37 36/36/36 34/34/34
f 26/26/26 38/38/38 31/31/31
f 31/31/31 39/39/39 33/33/33
f 38/38/38 39/39/39 31/31/31
f 33/33/33 40/40/40 35/35/35
f 39/39/39 40/40/40 33/33/33
f 35/35/35 41/41/41 37/37/37
f 40/40/40 41/41/41 35/35/35
f 37/37/37 42/42/42 36/36/36
f 41/41/41 42/42/42 37/37/37
f 36/36/36 43/43/43 22/22/22
f 42/42/42 43/43/43 36/36/36
f 44/44/44 38/38/38 26/26/26
f 23/23/23 44/44/44 26/26/26
f 22/22/22 45/45/45 23/23/23
f 43/43/43 45/45/45 22/22/22
f 45/45/45 44/44/44 23/23/23
f 45/45/45 46/46/46 44/44/44
f 46/46/46 45/45/45 43/43/43
f 44/44/44 47/47/47 38/38/38
f 46/46/46 47/47/47 44/44/44
f 38/38/38 48/48/48 39/39/39
f 47/47/47 48/48/48 38/38/38
f 39/39/39 49/49/49 40/40/40
f 48/48/48 49/49/49 39/39/39
f 40/40/40 50/50/50 41/41/41
f 49/49/49 50/50/50 40/40/40
f 41/41/41 51/51/51 42/42/42
f 50/50/50 51/51/51 41/41/41
f 42/42/42 52/52/52 43/43/43
f 51/51/51 52/52/52 42/42/42
f 53/53/53 46/46/46 43/43/43
f 52/52/52 53/53/53 43/43/43
f 47/47/47 54/54/54 48/48/48
f 48/48/48 55/55/55 49/49/49
f 54/54/54 55/55/55 48/48/48
f 49/49/49 56/56/56 50/50/50
f 55/55/55 56/56/56 49/49/49
f 50/50/50 57/57/57 51/51/51
f 56/56/56 57/57/57 50/50/50
f 46/46/46 58/58/58 47/47/47
f 58/58/58 54/54/54 47/47/47
f 53/53/53 59/59/59 46/46/46
f 59/59/59 58/58/58 46/46/46
f 52/52/52 60/60/60 53/53/53
f 60/60/60 59/59/59 53/53/53
f 51/51/51 61/61/61 52/52/52
f 57/57/57 61/61/61 51/51/51
f 61/61/61 60/60/60 52/52/52
f 58/58/58 62/62/62 54/54/54
f 62/62/62 58/58/58 59/59/59
f 54/54/54 63/63/63 55/55/55
f 62/62/62 63/63/63 54/54/54
f 62/62/62 64/64/64 63/63/63
f 63/63/63 65/65/65 55/55/55
f 63/63/63 64/64/64 65/65/65
f 55/55/55 65/65/65 56/56/56
f 65/65/65 66/66/66 56/56/56
f 56/56/56 66/66/66 57/57/57
f 65/65/65 64/64/64 66/66/66
f 66/66/66 67/67/67 57/57/57
f 57/57/57 67/67/67 61/61/61
f 66/66/66 64/64/64 67/67/67
f 67/67/67 68/68/68 61/61/61
f 61/61/61 68/68/68 60/60/60
f 67/67/67 64/64/64 68/68/68
f 68/68/68 69/69/69 60/60/60
f 60/60/60 69/69/69 59/59/59
f 68/68/68 64/64/64 69/69/69
f 70/70/70 64/64/64 62/62/62
f 70/70/70 62/62/62 59/59/59
f 69/69/69 70/70/70 59/59/59
f 69/69/69 64/64/64 70/70/70
