g veg_Wheat
v -0.27627122 -1.2116263 -0.9437598
v -0.08043599 -0.10864627 0.13220859
v 0.15141487 -0.104144335 0.0061537027
v 0.05462277 0.07593405 -0.1649208
v -0.49011433 -1.2251322 -0.8379637
v -0.1772281 0.069181085 -0.036614895
v -0.57790256 -1.0630617 -0.99103034
v -0.36405945 -1.0473049 -1.0990773
v 0.6511324 0.38206732 0.5846554
v 0.02085805 0.32354176 0.88628674
v 0.42153245 1.07762 0.8930397
v 0.3877678 0.86602783 0.12545562
v -0.24475753 0.8075025 0.42933786
v 0.041116953 0.0916909 0.069181085
v 0.32248938 0.07593405 0.51487505
v -0.36631048 -0.08838749 0.69495344
v -0.305534 0.65218484 0.8637769
v 0.036614895 0.6454319 -0.034363985
v -0.6476829 0.40682805 0.2312516
v -0.11194968 -0.28422272 -0.2392031
v 0.74567354 -0.065877676 0.102945805
v 0.25270897 0.04667127 0.5531417
v 0.7726853 0.72871816 0.31903982
v 0.5318305 0.40907907 -0.36525798
v -0.05567527 0.60041237 0.033165455
v -0.14121246 -0.28197175 -0.22569722
v 0.6803951 -0.6218697 -0.36750895
v 0.104144335 -0.37426192 0.22449875
v 0.80645 0.32129085 -0.13115609
v 0.3832658 -0.065877676 -0.89423823
v -0.197487 0.19298494 -0.31123447
v -0.31453788 -0.7726853 -0.64663047
v 0.08613646 -0.33599526 0.19298494
v -0.62067115 -0.6758932 0.2627654
v -0.67469466 0.16147125 0.5531417
v -0.19523597 0.188483 -0.3044815
v -0.951565 -0.15141487 -0.21444237
v -0.27852225 -0.7726853 -0.6623873
vt 0.030870438 0.3406186
vt 0.030870438 0.3406186
vt 0.030870438 0.3406186
vt 0.030870438 0.3406186
vt 0.030870438 0.3406186
vt 0.030870438 0.3406186
vt 0.030870438 0.3406186
vt 0.030870438 0.3406186
vt 0.030870438 0.3406186
vt 0.030870438 0.3406186
vt 0.030870438 0.3406186
vt 0.030870438 0.3406186
vt 0.030870438 0.3406186
vt 0.030870438 0.3406186
vt 0.030870438 0.3406186
vt 0.030870438 0.3406186
vt 0.030870438 0.3406186
vt 0.030870438 0.3406186
vt 0.030870438 0.3406186
vt 0.030870438 0.3406186
vt 0.030870438 0.3406186
vt 0.030870438 0.3406186
vt 0.030870438 0.3406186
vt 0.030870438 0.3406186
vt 0.030870438 0.3406186
vt 0.030870438 0.3406186
vt 0.030870438 0.3406186
vt 0.030870438 0.3406186
vt 0.030870438 0.3406186
vt 0.030870438 0.3406186
vt 0.030870438 0.3406186
vt 0.030870438 0.3406186
vt 0.030870438 0.3406186
vt 0.030870438 0.3406186
vt 0.030870438 0.3406186
vt 0.030870438 0.3406186
vt 0.030870438 0.3406186
vt 0.030870438 0.3406186
vn 0.5541772 -0.7871074 -0.2708312
vn -0.14461333 -0.00096803904 0.98948777
vn 0.9035725 0.057264507 0.424591
vn 0.4668284 0.8434039 -0.26597202
vn -0.46489233 -0.84533995 0.2632024
vn -0.55224115 0.78517133 0.2802423
vn -0.87252015 -0.059200585 -0.48497826
vn 0.1465494 -0.00096803904 -0.98920286
vn 0.8744562 -0.43771213 0.20912765
vn -0.3775435 -0.52506095 0.7627397
vn 0.29213077 0.7269388 0.6214657
vn 0.3503633 0.5231249 -0.7769079
vn -0.9003548 0.4351566 -0
vn -0.23196214 -0.72887486 -0.6441545
vn 0.9035725 -0.23389822 0.35895455
vn -0.3775435 -0.6706423 0.63851374
vn -0.14461333 0.6104737 0.7787226
vn 0.3503633 0.7269388 -0.5905976
vn -0.9307527 0.26107842 -0.25600287
vn 0.030084312 -0.6997586 -0.7137457
vn 0.7751486 -0.6317791 -0
vn -0.20284587 -0.32124704 0.9250156
vn 0.5832935 0.6978225 0.41570714
vn 0.3503633 0.2901947 -0.8905238
vn -0.7269388 0.66870624 -0.15617932
vn -0.6104737 -0.6706423 -0.42137954
vn 0.7213682 -0.6925518 -0
vn -0.20284587 -0.2630145 0.9432269
vn 0.6997586 0.66870624 0.25133628
vn 0.20478195 0.26107842 -0.9433464
vn -0.7214065 0.6925118 -0
vn -0.66870624 -0.6706423 -0.32104656
vn 0.9035725 -0.1465494 0.40259162
vn -0.31931096 -0.7871074 0.5277333
vn -0.2901947 0.55224115 0.78154767
vn 0.3794796 0.78517133 -0.48938864
vn -0.9016364 0.1737296 -0.39606792
vn 0.17566568 -0.6124098 -0.7707761
g veg_Wheat_0
f 3/3/3 2/2/2 1/1/1
f 3/3/3 1/1/1 4/4/4
f 2/2/2 3/3/3 4/4/4
f 2/2/2 5/5/5 1/1/1
f 2/2/2 6/6/6 5/5/5
f 6/6/6 2/2/2 4/4/4
f 6/6/6 7/7/7 5/5/5
f 5/5/5 7/7/7 1/1/1
f 6/6/6 4/4/4 7/7/7
f 7/7/7 8/8/8 1/1/1
f 4/4/4 8/8/8 7/7/7
f 1/1/1 8/8/8 4/4/4
f 11/11/11 10/10/10 9/9/9
f 9/9/9 12/12/12 11/11/11
f 11/11/11 13/13/13 10/10/10
f 11/11/11 12/12/12 13/13/13
f 12/12/12 9/9/9 14/14/14
f 9/9/9 10/10/10 14/14/14
f 13/13/13 14/14/14 10/10/10
f 13/13/13 12/12/12 14/14/14
f 17/17/17 16/16/16 15/15/15
f 15/15/15 18/18/18 17/17/17
f 17/17/17 19/19/19 16/16/16
f 17/17/17 18/18/18 19/19/19
f 18/18/18 15/15/15 20/20/20
f 15/15/15 16/16/16 20/20/20
f 19/19/19 20/20/20 16/16/16
f 19/19/19 18/18/18 20/20/20
f 23/23/23 22/22/22 21/21/21
f 21/21/21 24/24/24 23/23/23
f 23/23/23 25/25/25 22/22/22
f 23/23/23 24/24/24 25/25/25
f 24/24/24 21/21/21 26/26/26
f 21/21/21 22/22/22 26/26/26
f 25/25/25 26/26/26 22/22/22
f 25/25/25 24/24/24 26/26/26
f 29/29/29 28/28/28 27/27/27
f 27/27/27 30/30/30 29/29/29
f 29/29/29 31/31/31 28/28/28
f 29/29/29 30/30/30 31/31/31
f 30/30/30 27/27/27 32/32/32
f 27/27/27 28/28/28 32/32/32
f 31/31/31 32/32/32 28/28/28
f 31/31/31 30/30/30 32/32/32
f 35/35/35 34/34/34 33/33/33
f 33/33/33 36/36/36 35/35/35
f 35/35/35 37/37/37 34/34/34
f 35/35/35 36/36/36 37/37/37
f 36/36/36 33/33/33 38/38/38
f 33/33/33 34/34/34 38/38/38
f 37/37/37 38/38/38 34/34/34
f 37/37/37 36/36/36 38/38/38
