g wall.007
v 55.004448 -0.49689317 12
v -21.997387 -0.503093 11.999999
v -21.997387 0.5031135 11.999999
v 55.004448 0.5031031 11.999999
v 55.004448 -0.49689317 12
v 55.004448 -0.5030996 0
v 7.9940643 -0.503087 0
v 7.9940643 -0.503087 8
v -8.002588 -0.5030946 8
v -21.997387 -0.503093 11.999999
v -8.002588 -0.5030946 0
v -21.997387 -0.503093 0
v -8.002172 0.5031119 8
v -21.997387 0.5031135 0
v -8.002172 0.5031119 0
v -21.997387 0.5031135 11.999999
v 8.001175 0.5031195 8
v 55.004448 0.5031031 11.999999
v 55.004448 0.5031107 0
v 8.001177 0.5031195 0
v 7.9940643 -0.503087 0
v 8.001177 0.5031195 0
v 8.001175 0.5031195 8
v 7.9940643 -0.503087 8
v 7.9940643 -0.503087 8
v 8.001175 0.5031195 8
v -8.002172 0.5031119 8
v -8.002588 -0.5030946 8
v -8.002588 -0.5030946 8
v -8.002172 0.5031119 8
v -8.002172 0.5031119 0
v -8.002588 -0.5030946 0
v 55.004448 0.5031031 11.999999
v 55.004448 0.5031107 0
v 55.004448 -0.5030996 0
v 55.004448 -0.49689317 12
v 55.004448 -0.55311793 9.599995
v -21.997387 -0.55309224 9.599995
v -21.997387 -0.55309224 10.799997
v 55.004448 -0.55311793 10.799997
v 55.004448 -0.55311793 10.799997
v -21.997387 -0.55309224 10.799997
v -21.997387 -0.55309224 11.999998
v 55.004448 -0.55311793 11.999998
vt 0.5897821 0.15459386
vt 0.5897821 0.15459386
vt 0.5897821 0.15459386
vt 0.5897821 0.15459386
vt 0.5910013 0.53024757
vt 0.5910013 0.53024757
vt 0.5910013 0.53024757
vt 0.5910013 0.53024757
vt 0.5910013 0.53024757
vt 0.5910013 0.53024757
vt 0.5910013 0.53024757
vt 0.5910013 0.53024757
vt 0.5910013 0.53024757
vt 0.5910013 0.53024757
vt 0.5910013 0.53024757
vt 0.5910013 0.53024757
vt 0.5910013 0.53024757
vt 0.5910013 0.53024757
vt 0.5910013 0.53024757
vt 0.5910013 0.53024757
vt 0.5910013 0.53024757
vt 0.5910013 0.53024757
vt 0.5910013 0.53024757
vt 0.5910013 0.53024757
vt 0.5910013 0.53024757
vt 0.5910013 0.53024757
vt 0.5910013 0.53024757
vt 0.5910013 0.53024757
vt 0.5910013 0.53024757
vt 0.5910013 0.53024757
vt 0.5910013 0.53024757
vt 0.5910013 0.53024757
vt 0.7160013 0.15524754
vt 0.7160013 0.15524754
vt 0.7160013 0.15524754
vt 0.7160013 0.15524754
vt 0.21834314 0.65604085
vt 0.21834314 0.65604085
vt 0.21834314 0.65604085
vt 0.21834314 0.65604085
vt 0.21887505 0.46674383
vt 0.21887505 0.46674383
vt 0.21887505 0.46674383
vt 0.21887505 0.46674383
vn -0 0 1
vn -0 0 1
vn -0 0 1
vn -0 0 1
vn 5.2540414E-05 -1 0.00031032605
vn 5.2540414E-05 -1 0.00031032605
vn 5.2540414E-05 -1 0.00031032605
vn 5.2540414E-05 -1 0.00031032605
vn -0 -1 0
vn -0 -1 0
vn -0 -1 0
vn -0 -1 0
vn -0 1 0
vn -0 1 0
vn -0 1 0
vn -0 1 0
vn -0 1 0
vn -0 1 0
vn -0 1 0
vn -0 1 0
vn -0.9999751 0.0070675076 0
vn -0.9999751 0.0070675076 0
vn -0.9999751 0.0070675076 0
vn -0.9999751 0.0070675076 0
vn -0 0 -1
vn -0 0 -1
vn -0 0 -1
vn -0 0 -1
vn 1 -0.00041323723 0
vn 1 -0.00041323723 0
vn 1 -0.00041323723 0
vn 1 -0.00041323723 0
vn 1 0 0
vn 1 0 0
vn 1 0 0
vn 1 0 0
vn -0 -1 0
vn -0 -1 0
vn -0 -1 0
vn -0 -1 0
vn -0 -1 0
vn -0 -1 0
vn -0 -1 0
vn -0 -1 0
g wall.007_0
f 3/3/3 2/2/2 1/1/1
f 4/4/4 3/3/3 1/1/1
f 7/7/7 6/6/6 5/5/5
f 8/8/8 7/7/7 5/5/5
f 8/8/8 5/5/5 9/9/9
f 5/5/5 10/10/10 9/9/9
f 9/9/9 10/10/10 11/11/11
f 10/10/10 12/12/12 11/11/11
f 15/15/15 14/14/14 13/13/13
f 14/14/14 16/16/16 13/13/13
f 13/13/13 16/16/16 17/17/17
f 16/16/16 18/18/18 17/17/17
f 17/17/17 18/18/18 19/19/19
f 20/20/20 17/17/17 19/19/19
f 23/23/23 22/22/22 21/21/21
f 24/24/24 23/23/23 21/21/21
f 27/27/27 26/26/26 25/25/25
f 28/28/28 27/27/27 25/25/25
f 31/31/31 30/30/30 29/29/29
f 32/32/32 31/31/31 29/29/29
f 35/35/35 34/34/34 33/33/33
f 36/36/36 35/35/35 33/33/33
f 39/39/39 38/38/38 37/37/37
f 40/40/40 39/39/39 37/37/37
f 43/43/43 42/42/42 41/41/41
f 44/44/44 43/43/43 41/41/41
