g wall.018
v -0.9993057 -8 8.373846
v -1.0039005 -16.000002 -9.536743E-07
v -1.0022964 -8 -9.536743E-07
v -0.997694 -16.00001 12
v -0.99931145 8 8.373848
v -0.9976959 15.9999695 12
v -1.0023022 8 4.7683716E-07
v -1.0000038 15.9999695 0
v 1.002306 15.9999695 12
v 1.0023041 -16.000002 11.999998
v -0.997694 -16.00001 12
v -0.9976959 15.9999695 12
v 1.0023003 -8 -4.7683716E-07
v 1.0023041 -16.000002 -9.536743E-07
v 1.0023041 -16.000002 11.999998
v 1.0023003 -8 8.373844
v 1.002306 15.9999695 12
v 1.0022907 8 8.373846
v 1.0022945 15.9999695 4.7683716E-07
v 1.0022907 8 9.536743E-07
v 1.0022907 8 9.536743E-07
v -1.0023022 8 4.7683716E-07
v -0.99931145 8 8.373848
v 1.0022907 8 8.373846
v 1.0023003 -8 8.373844
v -0.9993057 -8 8.373846
v -1.0022964 -8 -9.536743E-07
v 1.0023003 -8 -4.7683716E-07
v -1.0039005 -16.000002 -9.536743E-07
v -0.997694 -16.00001 12
v 1.0023041 -16.000002 11.999998
v 1.0023041 -16.000002 -9.536743E-07
v 1.0022907 8 8.373846
v -0.99931145 8 8.373848
v -0.9993057 -8 8.373846
v 1.0023003 -8 8.373844
v 1.1079941 -16 10.799997
v 1.108017 15.9999695 10.799997
v 1.108017 15.9999695 9.599995
v 1.1079941 -16.000004 9.599995
v 1.1079941 -16.000004 11.999998
v 1.108017 15.9999695 11.999998
v 1.108017 15.9999695 10.799997
v 1.1079941 -16 10.799997
v -0.9977274 3.7570748 11.373846
v -9.022553 3.7570682 9.616476
v -9.02256 5.3570695 9.616476
v -0.99773455 5.3570743 11.373846
v -0.99773455 5.3570743 11.373846
v -9.02256 5.3570695 9.616476
v -9.022568 6.9570694 9.616476
v -0.9977417 6.957074 11.373846
v -0.9977417 6.957074 11.373846
v -9.022568 6.9570694 9.616476
v -9.022575 8.557069 9.616476
v -0.99774885 8.557074 11.373846
v -0.99774885 8.557074 11.373846
v -9.022575 8.557069 9.616476
v -9.022582 10.157067 9.616476
v -0.997756 10.157074 11.373846
v -0.997756 10.157074 11.373846
v -9.022582 10.157067 9.616476
v -9.022589 11.757068 9.616476
v -0.99776316 11.757074 11.373846
v -9.022575 8.557069 9.616476
v -9.022568 6.9570694 9.616476
v -9.022568 6.9570694 8.597511
v -9.022568 7.0574408 8.100035
v -9.02257 7.391221 7.8534074
v -9.022573 8.122916 7.8534074
v -9.022574 8.456697 8.100035
v -9.022575 8.557069 8.597511
v -9.022589 11.757068 9.616476
v -9.022582 10.157067 9.616476
v -9.022582 10.157067 8.597511
v -9.022582 10.25744 8.100035
v -9.022583 10.59122 7.8534074
v -9.022588 11.322915 7.8534074
v -9.022589 11.656697 8.100035
v -9.022589 11.757068 8.597511
v -9.022568 6.9570694 9.616476
v -9.02256 5.3570695 9.616476
v -9.02256 5.3570695 8.597511
v -9.022561 5.457441 8.100035
v -9.022562 5.7912216 7.8534074
v -9.022566 6.522917 7.8534074
v -9.022568 6.856698 8.100035
v -9.022568 6.9570694 8.597511
v -9.022582 10.157067 9.616476
v -9.022575 8.557069 9.616476
v -9.022575 8.557069 8.597511
v -9.022575 8.65744 8.100035
v -9.022576 8.99122 7.8534074
v -9.02258 9.722916 7.8534074
v -9.022581 10.056697 8.100035
v -9.022582 10.157067 8.597511
v -9.02256 5.3570695 9.616476
v -9.022553 3.7570682 9.616476
v -9.022553 3.7570682 8.597511
v -9.022553 3.8574414 8.100035
v -9.022554 4.1912203 7.8534074
v -9.022559 4.9229174 7.8534074
v -9.02256 5.2566977 8.100035
v -9.02256 5.3570695 8.597511
v -0.9977231 -2.6429245 11.373846
v -9.022549 -2.6429307 9.616476
v -9.022556 -1.0429306 9.616476
v -0.99773026 -1.0429258 11.373846
v -0.99773026 -1.0429258 11.373846
v -9.022556 -1.0429306 9.616476
v -9.022564 0.5570699 9.616476
v -0.9977374 0.5570754 11.373846
v -0.9977374 0.5570754 11.373846
v -9.022564 0.5570699 9.616476
v -9.022571 2.1570683 9.616476
v -0.99774456 2.157075 11.373846
v -0.99774456 2.157075 11.373846
v -9.022571 2.1570683 9.616476
v -9.022553 3.7570682 9.616476
v -0.9977274 3.7570748 11.373846
v -9.022571 2.1570683 9.616476
v -9.022564 0.5570699 9.616476
v -9.022564 0.5570699 8.597511
v -9.022564 0.65744126 8.100035
v -9.022565 0.99122155 7.8534074
v -9.02257 1.7229167 7.8534074
v -9.022571 2.056697 8.100035
v -9.022571 2.1570683 8.597511
v -9.022564 0.5570699 9.616476
v -9.022556 -1.0429306 9.616476
v -9.022556 -1.0429306 8.597511
v -9.022556 -0.9425583 8.100035
v -9.022558 -0.608778 7.8534074
v -9.022562 0.122917175 7.8534074
v -9.022563 0.45669758 8.100035
v -9.022564 0.5570699 8.597511
v -9.022553 3.7570682 9.616476
v -9.022571 2.1570683 9.616476
v -9.022571 2.1570683 8.597511
v -9.022571 2.2574406 8.100035
v -9.022572 2.5912209 7.8534074
v -9.022576 3.322916 7.8534074
v -9.022577 3.6566968 8.100035
v -9.022553 3.7570682 8.597511
v -9.022556 -1.0429306 9.616476
v -9.022549 -2.6429307 9.616476
v -9.022549 -2.6429307 8.597511
v -9.02255 -2.5425584 8.100035
v -9.022551 -2.208779 7.8534074
v -9.022554 -1.4770823 7.8534074
v -9.022556 -1.143302 8.100035
v -9.022556 -1.0429306 8.597511
v -0.99772596 -7.4429235 11.373846
v -9.0225525 -7.44293 9.616476
v -9.022559 -5.842929 9.616476
v -0.9977331 -5.842923 11.373846
v -0.9977331 -5.842923 11.373846
v -9.022559 -5.842929 9.616476
v -9.022566 -4.2429304 9.616476
v -0.99774027 -4.2429237 11.373846
v -0.99774027 -4.2429237 11.373846
v -9.022566 -4.2429304 9.616476
v -9.022549 -2.6429307 9.616476
v -0.9977231 -2.6429245 11.373846
v -9.022566 -4.2429304 9.616476
v -9.022559 -5.842929 9.616476
v -9.022559 -5.842929 8.597511
v -9.02256 -5.7425575 8.100035
v -9.022561 -5.408777 7.8534074
v -9.022565 -4.677082 7.8534074
v -9.022566 -4.343302 8.100035
v -9.022566 -4.2429304 8.597511
v -9.022559 -5.842929 9.616476
v -9.0225525 -7.44293 9.616476
v -9.0225525 -7.44293 8.597511
v -9.0225525 -7.342558 8.100035
v -9.022553 -7.0087757 7.8534074
v -9.022558 -6.2770824 7.8534074
v -9.022559 -5.943301 8.100035
v -9.022559 -5.842929 8.597511
v -9.022549 -2.6429307 9.616476
v -9.022566 -4.2429304 9.616476
v -9.022566 -4.2429304 8.597511
v -9.022567 -4.142558 8.100035
v -9.022568 -3.8087776 7.8534074
v -9.022572 -3.0770824 7.8534074
v -9.022573 -2.7433012 8.100035
v -9.022549 -2.6429307 8.597511
vt 0.5897821 0.15459386
vt 0.5897821 0.15459386
vt 0.5897821 0.15459386
vt 0.5897821 0.15459386
vt 0.5897821 0.15459386
vt 0.5897821 0.15459386
vt 0.5897821 0.15459386
vt 0.5897821 0.15459386
vt 0.5897821 0.15459386
vt 0.5897821 0.15459386
vt 0.5897821 0.15459386
vt 0.5897821 0.15459386
vt 0.5285013 0.15524754
vt 0.5285013 0.15524754
vt 0.5285013 0.15524754
vt 0.5285013 0.15524754
vt 0.5285013 0.15524754
vt 0.5285013 0.15524754
vt 0.5285013 0.15524754
vt 0.5285013 0.15524754
vt 0.6522821 0.15459386
vt 0.6522821 0.15459386
vt 0.6522821 0.15459386
vt 0.6522821 0.15459386
vt 0.6522821 0.15459386
vt 0.6522821 0.15459386
vt 0.6522821 0.15459386
vt 0.6522821 0.15459386
vt 0.7160013 0.15524754
vt 0.7160013 0.15524754
vt 0.7160013 0.15524754
vt 0.7160013 0.15524754
vt 0.6522821 0.15459386
vt 0.6522821 0.15459386
vt 0.6522821 0.15459386
vt 0.6522821 0.15459386
vt 0.21834314 0.65604085
vt 0.21834314 0.65604085
vt 0.21834314 0.65604085
vt 0.21834314 0.65604085
vt 0.21887505 0.46674383
vt 0.21887505 0.46674383
vt 0.21887505 0.46674383
vt 0.21887505 0.46674383
vt 0.5935316 0.02813375
vt 0.5935316 0.02813375
vt 0.5935316 0.02813375
vt 0.5935316 0.02813375
vt 0.21845382 0.8435202
vt 0.21845382 0.8435202
vt 0.21845382 0.8435202
vt 0.21845382 0.8435202
vt 0.5935316 0.02813375
vt 0.5935316 0.02813375
vt 0.5935316 0.02813375
vt 0.5935316 0.02813375
vt 0.21845382 0.8435202
vt 0.21845382 0.8435202
vt 0.21845382 0.8435202
vt 0.21845382 0.8435202
vt 0.5935316 0.02813375
vt 0.5935316 0.02813375
vt 0.5935316 0.02813375
vt 0.5935316 0.02813375
vt 0.5935316 0.02813375
vt 0.5935316 0.02813375
vt 0.5935316 0.02813375
vt 0.5935316 0.02813375
vt 0.5935316 0.02813375
vt 0.5935316 0.02813375
vt 0.5935316 0.02813375
vt 0.5935316 0.02813375
vt 0.5935316 0.02813375
vt 0.5935316 0.02813375
vt 0.5935316 0.02813375
vt 0.5935316 0.02813375
vt 0.5935316 0.02813375
vt 0.5935316 0.02813375
vt 0.5935316 0.02813375
vt 0.5935316 0.02813375
vt 0.21845382 0.8435202
vt 0.21845382 0.8435202
vt 0.21845382 0.8435202
vt 0.21845382 0.8435202
vt 0.21845382 0.8435202
vt 0.21845382 0.8435202
vt 0.21845382 0.8435202
vt 0.21845382 0.8435202
vt 0.21845382 0.8435202
vt 0.21845382 0.8435202
vt 0.21845382 0.8435202
vt 0.21845382 0.8435202
vt 0.21845382 0.8435202
vt 0.21845382 0.8435202
vt 0.21845382 0.8435202
vt 0.21845382 0.8435202
vt 0.5935316 0.02813375
vt 0.5935316 0.02813375
vt 0.5935316 0.02813375
vt 0.5935316 0.02813375
vt 0.5935316 0.02813375
vt 0.5935316 0.02813375
vt 0.5935316 0.02813375
vt 0.5935316 0.02813375
vt 0.5935316 0.02813375
vt 0.5935316 0.02813375
vt 0.5935316 0.02813375
vt 0.5935316 0.02813375
vt 0.21845382 0.8435202
vt 0.21845382 0.8435202
vt 0.21845382 0.8435202
vt 0.21845382 0.8435202
vt 0.5935316 0.02813375
vt 0.5935316 0.02813375
vt 0.5935316 0.02813375
vt 0.5935316 0.02813375
vt 0.21845382 0.8435202
vt 0.21845382 0.8435202
vt 0.21845382 0.8435202
vt 0.21845382 0.8435202
vt 0.5935316 0.02813375
vt 0.5935316 0.02813375
vt 0.5935316 0.02813375
vt 0.5935316 0.02813375
vt 0.5935316 0.02813375
vt 0.5935316 0.02813375
vt 0.5935316 0.02813375
vt 0.5935316 0.02813375
vt 0.21845382 0.8435202
vt 0.21845382 0.8435202
vt 0.21845382 0.8435202
vt 0.21845382 0.8435202
vt 0.21845382 0.8435202
vt 0.21845382 0.8435202
vt 0.21845382 0.8435202
vt 0.21845382 0.8435202
vt 0.21845382 0.8435202
vt 0.21845382 0.8435202
vt 0.21845382 0.8435202
vt 0.21845382 0.8435202
vt 0.21845382 0.8435202
vt 0.21845382 0.8435202
vt 0.21845382 0.8435202
vt 0.21845382 0.8435202
vt 0.5935316 0.02813375
vt 0.5935316 0.02813375
vt 0.5935316 0.02813375
vt 0.5935316 0.02813375
vt 0.5935316 0.02813375
vt 0.5935316 0.02813375
vt 0.5935316 0.02813375
vt 0.5935316 0.02813375
vt 0.21845382 0.8435202
vt 0.21845382 0.8435202
vt 0.21845382 0.8435202
vt 0.21845382 0.8435202
vt 0.5935316 0.02813375
vt 0.5935316 0.02813375
vt 0.5935316 0.02813375
vt 0.5935316 0.02813375
vt 0.21845382 0.8435202
vt 0.21845382 0.8435202
vt 0.21845382 0.8435202
vt 0.21845382 0.8435202
vt 0.5935316 0.02813375
vt 0.5935316 0.02813375
vt 0.5935316 0.02813375
vt 0.5935316 0.02813375
vt 0.5935316 0.02813375
vt 0.5935316 0.02813375
vt 0.5935316 0.02813375
vt 0.5935316 0.02813375
vt 0.21845382 0.8435202
vt 0.21845382 0.8435202
vt 0.21845382 0.8435202
vt 0.21845382 0.8435202
vt 0.21845382 0.8435202
vt 0.21845382 0.8435202
vt 0.21845382 0.8435202
vt 0.21845382 0.8435202
vt 0.21845382 0.8435202
vt 0.21845382 0.8435202
vt 0.21845382 0.8435202
vt 0.21845382 0.8435202
vt 0.21845382 0.8435202
vt 0.21845382 0.8435202
vt 0.21845382 0.8435202
vt 0.21845382 0.8435202
vn -0.9999999 0.00010183235 0.00045142358
vn -0.9999999 0.00010183235 0.00045142358
vn -0.9999999 0.00010183235 0.00045142358
vn -0.9999999 0.00010183235 0.00045142358
vn -1 0.00018569102 0.0002600694
vn -1 0.00018569102 0.0002600694
vn -1 0.00018569102 0.0002600694
vn -1 0.00018569102 0.0002600694
vn -0 0 1
vn -0 0 1
vn -0 0 1
vn -0 0 1
vn 1 0 0
vn 1 0 0
vn 1 0 0
vn 1 0 0
vn 1 0 0
vn 1 0 0
vn 1 0 0
vn 1 0 0
vn -0 -1 0
vn -0 -1 0
vn -0 -1 0
vn -0 -1 0
vn -0 1 0
vn -0 1 0
vn -0 1 0
vn -0 1 0
vn -0 -1 0
vn -0 -1 0
vn -0 -1 0
vn -0 -1 0
vn -0 0 -1
vn -0 0 -1
vn -0 0 -1
vn -0 0 -1
vn 1 0 0
vn 1 0 0
vn 1 0 0
vn 1 0 0
vn 1 0 0
vn 1 0 0
vn 1 0 0
vn 1 0 0
vn -0.21392217 0 0.97685075
vn -0.21392217 0 0.97685075
vn -0.21392217 0 0.97685075
vn -0.21392217 0 0.97685075
vn -0.21392214 0 0.97685075
vn -0.21392214 0 0.97685075
vn -0.21392214 0 0.97685075
vn -0.21392214 0 0.97685075
vn -0.21392208 0 0.97685075
vn -0.21392208 0 0.97685075
vn -0.21392208 0 0.97685075
vn -0.21392208 0 0.97685075
vn -0.21392217 0 0.9768506
vn -0.21392217 0 0.9768506
vn -0.21392217 0 0.9768506
vn -0.21392217 0 0.9768506
vn -0.2139221 0 0.97685075
vn -0.2139221 0 0.97685075
vn -0.2139221 0 0.97685075
vn -0.2139221 0 0.97685075
vn -1 0 0
vn -1 0 0
vn -1 0 0
vn -1 0 0
vn -1 0 0
vn -1 0 0
vn -1 0 0
vn -1 0 0
vn -1 0 0
vn -1 0 0
vn -1 0 0
vn -1 0 0
vn -1 0 0
vn -1 0 0
vn -1 0 0
vn -1 0 0
vn -1 0 0
vn -1 0 0
vn -1 0 0
vn -1 0 0
vn -1 0 0
vn -1 0 0
vn -1 0 0
vn -1 0 0
vn -1 0 0
vn -1 0 0
vn -1 0 0
vn -1 0 0
vn -1 0 0
vn -1 0 0
vn -1 0 0
vn -1 0 0
vn -1 0 0
vn -1 0 0
vn -1 0 0
vn -1 0 0
vn -1 0 0
vn -1 0 0
vn -1 0 0
vn -1 0 0
vn -0.21392217 0 0.9768506
vn -0.21392217 0 0.9768506
vn -0.21392217 0 0.9768506
vn -0.21392217 0 0.9768506
vn -0.21392216 0 0.97685075
vn -0.21392216 0 0.97685075
vn -0.21392216 0 0.97685075
vn -0.21392216 0 0.97685075
vn -0.21392213 0 0.97685075
vn -0.21392213 0 0.97685075
vn -0.21392213 0 0.97685075
vn -0.21392213 0 0.97685075
vn -0.21392214 0 0.97685075
vn -0.21392214 0 0.97685075
vn -0.21392214 0 0.97685075
vn -0.21392214 0 0.97685075
vn -1 0 0
vn -1 0 0
vn -1 0 0
vn -1 0 0
vn -1 0 0
vn -1 0 0
vn -1 0 0
vn -1 0 0
vn -1 0 0
vn -1 0 0
vn -1 0 0
vn -1 0 0
vn -1 0 0
vn -1 0 0
vn -1 0 0
vn -1 0 0
vn -1 0 0
vn -1 0 0
vn -1 0 0
vn -1 0 0
vn -1 0 0
vn -1 0 0
vn -1 0 0
vn -1 0 0
vn -1 0 0
vn -1 0 0
vn -1 0 0
vn -1 0 0
vn -1 0 0
vn -1 0 0
vn -1 0 0
vn -1 0 0
vn -0.21392228 0 0.9768506
vn -0.21392228 0 0.9768506
vn -0.21392228 0 0.9768506
vn -0.21392228 0 0.9768506
vn -0.21392205 0 0.97685075
vn -0.21392205 0 0.97685075
vn -0.21392205 0 0.97685075
vn -0.21392205 0 0.97685075
vn -0.21392226 0 0.9768506
vn -0.21392226 0 0.9768506
vn -0.21392226 0 0.9768506
vn -0.21392226 0 0.9768506
vn -1 0 0
vn -1 0 0
vn -1 0 0
vn -1 0 0
vn -1 0 0
vn -1 0 0
vn -1 0 0
vn -1 0 0
vn -1 0 0
vn -1 0 0
vn -1 0 0
vn -1 0 0
vn -1 0 0
vn -1 0 0
vn -1 0 0
vn -1 0 0
vn -1 0 0
vn -1 0 0
vn -1 0 0
vn -1 0 0
vn -1 0 0
vn -1 0 0
vn -1 0 0
vn -1 0 0
g wall.018_0
f 3/3/3 2/2/2 1/1/1
f 2/2/2 4/4/4 1/1/1
f 1/1/1 4/4/4 5/5/5
f 4/4/4 6/6/6 5/5/5
f 5/5/5 6/6/6 7/7/7
f 6/6/6 8/8/8 7/7/7
f 11/11/11 10/10/10 9/9/9
f 12/12/12 11/11/11 9/9/9
f 15/15/15 14/14/14 13/13/13
f 16/16/16 15/15/15 13/13/13
f 17/17/17 15/15/15 16/16/16
f 18/18/18 17/17/17 16/16/16
f 19/19/19 17/17/17 18/18/18
f 20/20/20 19/19/19 18/18/18
f 23/23/23 22/22/22 21/21/21
f 24/24/24 23/23/23 21/21/21
f 27/27/27 26/26/26 25/25/25
f 28/28/28 27/27/27 25/25/25
f 31/31/31 30/30/30 29/29/29
f 32/32/32 31/31/31 29/29/29
f 35/35/35 34/34/34 33/33/33
f 36/36/36 35/35/35 33/33/33
f 39/39/39 38/38/38 37/37/37
f 40/40/40 39/39/39 37/37/37
f 43/43/43 42/42/42 41/41/41
f 44/44/44 43/43/43 41/41/41
f 47/47/47 46/46/46 45/45/45
f 48/48/48 47/47/47 45/45/45
f 51/51/51 50/50/50 49/49/49
f 52/52/52 51/51/51 49/49/49
f 55/55/55 54/54/54 53/53/53
f 56/56/56 55/55/55 53/53/53
f 59/59/59 58/58/58 57/57/57
f 60/60/60 59/59/59 57/57/57
f 63/63/63 62/62/62 61/61/61
f 64/64/64 63/63/63 61/61/61
f 67/67/67 66/66/66 65/65/65
f 65/65/65 68/68/68 67/67/67
f 65/65/65 69/69/69 68/68/68
f 65/65/65 70/70/70 69/69/69
f 65/65/65 71/71/71 70/70/70
f 65/65/65 72/72/72 71/71/71
f 75/75/75 74/74/74 73/73/73
f 73/73/73 76/76/76 75/75/75
f 73/73/73 77/77/77 76/76/76
f 73/73/73 78/78/78 77/77/77
f 73/73/73 79/79/79 78/78/78
f 73/73/73 80/80/80 79/79/79
f 83/83/83 82/82/82 81/81/81
f 81/81/81 84/84/84 83/83/83
f 81/81/81 85/85/85 84/84/84
f 81/81/81 86/86/86 85/85/85
f 81/81/81 87/87/87 86/86/86
f 81/81/81 88/88/88 87/87/87
f 91/91/91 90/90/90 89/89/89
f 89/89/89 92/92/92 91/91/91
f 89/89/89 93/93/93 92/92/92
f 89/89/89 94/94/94 93/93/93
f 89/89/89 95/95/95 94/94/94
f 89/89/89 96/96/96 95/95/95
f 99/99/99 98/98/98 97/97/97
f 97/97/97 100/100/100 99/99/99
f 97/97/97 101/101/101 100/100/100
f 97/97/97 102/102/102 101/101/101
f 97/97/97 103/103/103 102/102/102
f 97/97/97 104/104/104 103/103/103
f 107/107/107 106/106/106 105/105/105
f 108/108/108 107/107/107 105/105/105
f 111/111/111 110/110/110 109/109/109
f 112/112/112 111/111/111 109/109/109
f 115/115/115 114/114/114 113/113/113
f 116/116/116 115/115/115 113/113/113
f 119/119/119 118/118/118 117/117/117
f 120/120/120 119/119/119 117/117/117
f 123/123/123 122/122/122 121/121/121
f 121/121/121 124/124/124 123/123/123
f 121/121/121 125/125/125 124/124/124
f 121/121/121 126/126/126 125/125/125
f 121/121/121 127/127/127 126/126/126
f 121/121/121 128/128/128 127/127/127
f 131/131/131 130/130/130 129/129/129
f 129/129/129 132/132/132 131/131/131
f 129/129/129 133/133/133 132/132/132
f 129/129/129 134/134/134 133/133/133
f 129/129/129 135/135/135 134/134/134
f 129/129/129 136/136/136 135/135/135
f 139/139/139 138/138/138 137/137/137
f 137/137/137 140/140/140 139/139/139
f 137/137/137 141/141/141 140/140/140
f 137/137/137 142/142/142 141/141/141
f 137/137/137 143/143/143 142/142/142
f 137/137/137 144/144/144 143/143/143
f 147/147/147 146/146/146 145/145/145
f 145/145/145 148/148/148 147/147/147
f 145/145/145 149/149/149 148/148/148
f 145/145/145 150/150/150 149/149/149
f 145/145/145 151/151/151 150/150/150
f 145/145/145 152/152/152 151/151/151
f 155/155/155 154/154/154 153/153/153
f 156/156/156 155/155/155 153/153/153
f 159/159/159 158/158/158 157/157/157
f 160/160/160 159/159/159 157/157/157
f 163/163/163 162/162/162 161/161/161
f 164/164/164 163/163/163 161/161/161
f 167/167/167 166/166/166 165/165/165
f 165/165/165 168/168/168 167/167/167
f 165/165/165 169/169/169 168/168/168
f 165/165/165 170/170/170 169/169/169
f 165/165/165 171/171/171 170/170/170
f 165/165/165 172/172/172 171/171/171
f 175/175/175 174/174/174 173/173/173
f 173/173/173 176/176/176 175/175/175
f 173/173/173 177/177/177 176/176/176
f 173/173/173 178/178/178 177/177/177
f 173/173/173 179/179/179 178/178/178
f 173/173/173 180/180/180 179/179/179
f 183/183/183 182/182/182 181/181/181
f 181/181/181 184/184/184 183/183/183
f 181/181/181 185/185/185 184/184/184
f 181/181/181 186/186/186 185/185/185
f 181/181/181 187/187/187 186/186/186
f 181/181/181 188/188/188 187/187/187
