g wheatMill
v -1.7384121 0 1.5
v -1.7384121 0 -1.5
v -1.5828112 0.5 -1.3657389
v -1.5828112 0.5 1.3657389
v -1.7384121 0 -1.5
v 1.7384121 0 -1.5
v 1.5828112 0.5 -1.3657389
v -1.5828112 0.5 -1.3657389
v 1.7384121 0 -1.5
v 1.7384121 0 1.5
v 1.5828112 0.5 1.3657389
v 1.5828112 0.5 -1.3657389
v 1.7384121 0 1.5
v -1.7384121 0 1.5
v -1.5828112 0.5 1.3657389
v 1.5828112 0.5 1.3657389
v -1.7384121 0 -1.5
v -1.7384121 0 1.5
v 1.7384121 0 1.5
v 1.7384121 0 -1.5
v 1.5828112 0.5 -1.3657389
v 1.5828112 0.5 1.3657389
v -1.5828112 0.5 1.3657389
v -1.5828112 0.5 -1.3657389
v -1.2522051 1.6113498 1.0422077
v -1.2522051 2.4635577 -0.9562641
v -1.2522051 2.4635577 1.0349592
v -1.2522051 1.6113499 -0.9562641
v -1.252205 2.3276358 -1.2002373
v -1.252205 1.7472718 -1.2002373
v -1.2522051 2.4635577 -0.9562641
v -1.252205 2.3276358 -1.2002373
v 1.2522051 2.3276358 -1.2002373
v 1.2522051 2.4635577 -0.9562641
v 1.2522051 1.6113499 -0.9562641
v 1.2522051 1.6113498 1.0422077
v 1.2522051 2.4635577 1.0349592
v 1.2522051 2.4635577 -0.9562641
v 1.2522051 1.7472718 -1.2002373
v 1.2522051 2.3276358 -1.2002373
v 1.2522051 1.6113498 1.0422077
v -1.2522051 1.6113498 1.0422077
v -1.2522051 2.4635577 1.0349592
v 1.2522051 2.4635577 1.0349592
v -1.2522051 1.6113499 -0.9562641
v -1.2522051 1.6113498 1.0422077
v 1.2522051 1.6113498 1.0422077
v 1.2522051 1.6113499 -0.9562641
v 1.2522051 2.4635577 -0.9562641
v 1.2522051 2.4635577 1.0349592
v -1.2522051 2.4635577 1.0349592
v -1.2522051 2.4635577 -0.9562641
v -1.252205 1.7472718 -1.2002373
v 1.2522051 1.7472718 -1.2002373
v 1.2522051 2.3276358 -1.2002373
v -1.252205 2.3276358 -1.2002373
v 1.2522051 1.6113499 -0.9562641
v 1.2522051 1.7472718 -1.2002373
v -1.252205 1.7472718 -1.2002373
v -1.2522051 1.6113499 -0.9562641
v 1.2522051 1.6113499 -0.6543151
v 1.2522051 0.3262292 -0.6543151
v 1.4906173 0.3262292 -0.6543151
v 1.4906173 1.6113498 -0.6543151
v 1.4906173 1.6113498 -0.6543151
v 1.4906173 0.3262292 -0.6543151
v 1.4906173 0.3262292 0.70153224
v 1.4906173 1.6113498 0.70153224
v 1.4906173 2.4635577 -0.6543151
v 1.4906173 1.6113498 -1.0905252
v 1.4906173 2.4635577 0.70153224
v 1.4906173 2.4635577 -1.0905252
v 1.4906173 1.7416694 -1.2864337
v 1.4906173 2.3332381 -1.2864337
v 1.4906173 2.4635577 1.0422077
v 1.4906173 1.6113497 1.0422077
v 1.4906173 2.3332381 1.2
v 1.4906173 1.7416694 1.2
v 1.2522051 1.6113499 0.70153224
v 1.2522051 0.3262292 0.70153224
v 1.2522051 0.3262292 -0.6543151
v 1.2522051 1.6113499 -0.6543151
v 1.2522051 2.4635577 0.70153224
v 1.2522051 1.6113498 1.0422077
v 1.2522051 2.4635577 -0.6543151
v 1.2522051 2.4635577 1.0422077
v 1.2522051 1.7416694 1.2
v 1.2522051 2.3332381 1.2
v 1.2522051 2.4635577 -1.0905252
v 1.2522051 1.6113499 -1.0905252
v 1.2522051 2.3332381 -1.2864337
v 1.2522051 1.7416694 -1.2864337
v 1.4906173 1.6113498 0.70153224
v 1.4906173 0.3262292 0.70153224
v 1.2522051 0.3262292 0.70153224
v 1.2522051 1.6113499 0.70153224
v 1.2522051 2.4635577 -0.6543151
v 1.2522051 2.4635577 -1.0905252
v 1.4906173 2.4635577 -1.0905252
v 1.4906173 2.4635577 -0.6543151
v 1.4906173 2.4635577 0.70153224
v 1.2522051 2.4635577 0.70153224
v 1.2522051 2.4635577 1.0422077
v 1.4906173 2.4635577 1.0422077
v 1.4906173 1.6113498 -0.6543151
v 1.4906173 1.6113498 -1.0905252
v 1.2522051 1.6113499 -1.0905252
v 1.2522051 1.6113499 -0.6543151
v 1.2522051 1.6113498 1.0422077
v 1.2522051 1.7416694 1.2
v 1.4906173 1.7416694 1.2
v 1.4906173 1.6113497 1.0422077
v 1.2522051 1.6113499 0.70153224
v 1.2522051 1.6113498 1.0422077
v 1.4906173 1.6113497 1.0422077
v 1.4906173 1.6113498 0.70153224
v 1.4906173 2.3332381 1.2
v 1.4906173 1.7416694 1.2
v 1.2522051 1.7416694 1.2
v 1.2522051 2.3332381 1.2
v 1.4906173 2.4635577 1.0422077
v 1.4906173 2.3332381 1.2
v 1.2522051 2.3332381 1.2
v 1.2522051 2.4635577 1.0422077
v 1.2522051 2.3332381 -1.2864337
v 1.2522051 1.7416694 -1.2864337
v 1.4906173 1.7416694 -1.2864337
v 1.4906173 2.3332381 -1.2864337
v 1.2522051 2.4635577 -1.0905252
v 1.2522051 2.3332381 -1.2864337
v 1.4906173 2.3332381 -1.2864337
v 1.4906173 2.4635577 -1.0905252
v 1.4906173 1.6113498 -1.0905252
v 1.4906173 1.7416694 -1.2864337
v 1.2522051 1.7416694 -1.2864337
v 1.2522051 1.6113499 -1.0905252
v -1.2522051 1.6113499 -0.6543151
v -1.4906173 1.6113498 -0.6543151
v -1.4906173 0.3262292 -0.6543151
v -1.2522051 0.3262292 -0.6543151
v -1.4906173 1.6113498 -0.6543151
v -1.4906173 0.3262292 0.70153224
v -1.4906173 0.3262292 -0.6543151
v -1.4906173 1.6113498 0.70153224
v -1.4906173 2.4635577 -0.6543151
v -1.4906173 1.6113498 -1.0905252
v -1.4906173 2.4635577 0.70153224
v -1.4906173 2.4635577 -1.0905252
v -1.4906173 1.7416694 -1.2864337
v -1.4906173 2.3332381 -1.2864337
v -1.4906173 2.4635577 1.0422077
v -1.4906173 1.6113497 1.0422077
v -1.4906173 2.3332381 1.2
v -1.4906173 1.7416694 1.2
v -1.2522051 1.6113499 0.70153224
v -1.2522051 0.3262292 -0.6543151
v -1.2522051 0.3262292 0.70153224
v -1.2522051 1.6113499 -0.6543151
v -1.2522051 2.4635577 0.70153224
v -1.2522051 1.6113498 1.0422077
v -1.2522051 2.4635577 -0.6543151
v -1.2522051 2.4635577 1.0422077
v -1.2522051 1.7416694 1.2
v -1.2522051 2.3332381 1.2
v -1.2522051 2.4635577 -1.0905252
v -1.2522051 1.6113499 -1.0905252
v -1.2522051 2.3332381 -1.2864337
v -1.2522051 1.7416694 -1.2864337
v -1.4906173 1.6113498 0.70153224
v -1.2522051 1.6113499 0.70153224
v -1.2522051 0.3262292 0.70153224
v -1.4906173 0.3262292 0.70153224
v -1.2522051 2.4635577 -0.6543151
v -1.4906173 2.4635577 -1.0905252
v -1.2522051 2.4635577 -1.0905252
v -1.4906173 2.4635577 -0.6543151
v -1.4906173 2.4635577 0.70153224
v -1.2522051 2.4635577 0.70153224
v -1.2522051 2.4635577 1.0422077
v -1.4906173 2.4635577 1.0422077
v -1.4906173 1.6113498 -0.6543151
v -1.2522051 1.6113499 -0.6543151
v -1.2522051 1.6113499 -1.0905252
v -1.4906173 1.6113498 -1.0905252
v -1.2522051 1.6113498 1.0422077
v -1.4906173 1.6113497 1.0422077
v -1.4906173 1.7416694 1.2
v -1.2522051 1.7416694 1.2
v -1.2522051 1.6113499 0.70153224
v -1.4906173 1.6113498 0.70153224
v -1.4906173 1.6113497 1.0422077
v -1.2522051 1.6113498 1.0422077
v -1.4906173 2.3332381 1.2
v -1.2522051 2.3332381 1.2
v -1.2522051 1.7416694 1.2
v -1.4906173 1.7416694 1.2
v -1.4906173 2.4635577 1.0422077
v -1.2522051 2.4635577 1.0422077
v -1.2522051 2.3332381 1.2
v -1.4906173 2.3332381 1.2
v -1.2522051 2.3332381 -1.2864337
v -1.4906173 2.3332381 -1.2864337
v -1.4906173 1.7416694 -1.2864337
v -1.2522051 1.7416694 -1.2864337
v -1.2522051 2.4635577 -1.0905252
v -1.4906173 2.4635577 -1.0905252
v -1.4906173 2.3332381 -1.2864337
v -1.2522051 2.3332381 -1.2864337
v -1.4906173 1.6113498 -1.0905252
v -1.2522051 1.6113499 -1.0905252
v -1.2522051 1.7416694 -1.2864337
v -1.4906173 1.7416694 -1.2864337
v -1.5226786 2.2543795 0
v -1.5226786 2.210313 0.1356222
v -1.6737303 2.210313 0.1356222
v -1.6737303 2.2543795 0
v -1.5226786 2.210313 0.1356222
v -1.5226786 2.094946 0.21944135
v -1.6737303 2.094946 0.21944135
v -1.6737303 2.210313 0.1356222
v -1.5226786 2.094946 0.21944135
v -1.5226786 1.9523443 0.21944135
v -1.6737303 1.9523443 0.21944135
v -1.6737303 2.094946 0.21944135
v -1.5226786 1.9523443 0.21944135
v -1.5226787 1.0036095 0.08764017
v -1.6202894 1.0036095 0.08764017
v -1.6737303 1.9523443 0.21944135
v -1.5226787 1.0036095 0.08764017
v -1.5226787 0.97513354 0
v -1.6202894 0.97513354 0
v -1.6202894 1.0036095 0.08764017
v -1.5226787 0.97513354 0
v -1.5226787 1.0036095 -0.08764017
v -1.6202894 1.0036095 -0.08764017
v -1.6202894 0.97513354 0
v -1.5226787 1.0036095 -0.08764017
v -1.5226786 1.9523443 -0.21944135
v -1.6737303 1.9523443 -0.21944135
v -1.6202894 1.0036095 -0.08764017
v -1.5226786 1.9523443 -0.21944135
v -1.5226786 2.094946 -0.21944135
v -1.6737303 2.094946 -0.21944135
v -1.6737303 1.9523443 -0.21944135
v -1.6202894 1.0036095 0.08764017
v -1.6202894 0.97513354 0
v -1.6202894 1.0036095 -0.08764017
v -1.6737303 1.9523443 0.21944135
v -1.6737303 1.9523443 -0.21944135
v -1.6737303 2.094946 0.21944135
v -1.6737303 2.094946 -0.21944135
v -1.6737303 2.210313 0.1356222
v -1.6737303 2.210313 -0.1356222
v -1.6737303 2.2543795 0
v -1.5226786 2.094946 -0.21944135
v -1.5226786 2.210313 -0.1356222
v -1.6737303 2.210313 -0.1356222
v -1.6737303 2.094946 -0.21944135
v -1.5226786 2.210313 -0.1356222
v -1.5226786 2.2543795 0
v -1.6737303 2.2543795 0
v -1.6737303 2.210313 -0.1356222
v -1.5226787 1.0036095 -0.08764017
v -1.5226787 0.97513354 0
v -1.5226787 1.0036095 0.08764017
v -1.5226786 1.9523443 -0.21944135
v -1.5226786 1.9523443 0.21944135
v -1.5226786 2.094946 -0.21944135
v -1.5226786 2.094946 0.21944135
v -1.5226786 2.210313 -0.1356222
v -1.5226786 2.210313 0.1356222
v -1.5226786 2.2543795 0
v -1.5799469 1.1021292 -0.07000033
v -1.5799469 1.1627511 -0.035000302
v -2.1298842 1.2271395 -0.07217399
v -2.1298842 1.1021298 -0.14434823
v -1.5799469 1.1627511 -0.035000302
v -1.5799469 1.1627511 0.03499969
v -2.1298842 1.2271394 0.07217457
v -2.1298842 1.2271395 -0.07217399
v -1.5799469 1.1627511 0.03499969
v -1.5799469 1.1021292 0.06999966
v -2.1298842 1.1021298 0.14434889
v -2.1298842 1.2271394 0.07217457
v -1.5799469 1.1021292 0.06999966
v -1.5799469 1.0415075 0.03499969
v -2.1298842 0.97712034 0.07217457
v -2.1298842 1.1021298 0.14434889
v -2.1298842 1.1021298 0.14434889
v -2.1298842 0.97712034 0.07217457
v -2.1298842 0.97712034 -0.07217393
v -2.1298842 1.1021298 -0.14434823
v -2.1298842 1.2271394 0.07217457
v -2.1298842 1.2271395 -0.07217399
v -1.5799469 1.0415075 0.03499969
v -1.5799469 1.0415075 -0.035000302
v -2.1298842 0.97712034 -0.07217393
v -2.1298842 0.97712034 0.07217457
v -1.5799469 1.0415075 -0.035000302
v -1.5799469 1.1021292 -0.07000033
v -2.1298842 1.1021298 -0.14434823
v -2.1298842 0.97712034 -0.07217393
v 1.2522051 2.4635577 -0.9562641
v -1.2522051 2.4635577 -0.9562641
v -1.2522051 2.4635577 1.0349592
v 1.2522051 2.4635577 1.0349592
v -1.2522051 2.4635577 1.0349592
v -1.8783077 5 1.532765
v 1.8783077 5 1.532765
v 1.2522051 2.4635577 1.0349592
v 1.2522051 2.4635577 -0.9562641
v 1.8783077 5 -1.45407
v -1.8783077 5 -1.45407
v -1.2522051 2.4635577 -0.9562641
v 1.2522051 2.4635577 1.0349592
v 1.8783077 5 1.532765
v 1.8783077 5 -1.45407
v 1.2522051 2.4635577 -0.9562641
v -1.2522051 2.4635577 -0.9562641
v -1.8783077 5 -1.45407
v -1.8783077 5 1.532765
v -1.2522051 2.4635577 1.0349592
v 1.2019442 2.532444 -0.9040378
v 1.2019442 2.532444 0.9827329
v -1.2019442 2.532444 0.9827329
v -1.2019442 2.532444 -0.9040378
v -1.2019442 2.532444 0.9827329
v 1.2019442 2.532444 0.9827329
v 1.8099798 5.029936 1.4661705
v -1.8099798 5.029936 1.4661705
v 1.2019442 2.532444 -0.9040378
v -1.2019442 2.532444 -0.9040378
v -1.8099798 5.029936 -1.3874755
v 1.8099798 5.029936 -1.3874755
v 1.2019442 2.532444 0.9827329
v 1.2019442 2.532444 -0.9040378
v 1.8099798 5.029936 -1.3874755
v 1.8099798 5.029936 1.4661705
v -1.2019442 2.532444 -0.9040378
v -1.2019442 2.532444 0.9827329
v -1.8099798 5.029936 1.4661705
v -1.8099798 5.029936 -1.3874755
v -1.8783077 5 -1.45407
v -1.8099798 5.029936 -1.3874755
v -1.8099798 5.029936 1.4661705
v -1.8783077 5 1.532765
v 1.8783077 5 -1.45407
v 1.8099798 5.029936 -1.3874755
v -1.8099798 5.029936 -1.3874755
v -1.8783077 5 -1.45407
v 1.8783077 5 1.532765
v 1.8099798 5.029936 1.4661705
v 1.8099798 5.029936 -1.3874755
v 1.8783077 5 -1.45407
v -1.8783077 5 1.532765
v -1.8099798 5.029936 1.4661705
v 1.8099798 5.029936 1.4661705
v 1.8783077 5 1.532765
vt 0.09402484 0.59710824
vt 0.09402484 0.59710824
vt 0.09402484 0.59710824
vt 0.09402484 0.59710824
vt 0.09402484 0.59710824
vt 0.09402484 0.59710824
vt 0.09402484 0.59710824
vt 0.09402484 0.59710824
vt 0.09402484 0.59710824
vt 0.09402484 0.59710824
vt 0.09402484 0.59710824
vt 0.09402484 0.59710824
vt 0.09402484 0.59710824
vt 0.09402484 0.59710824
vt 0.09402484 0.59710824
vt 0.09402484 0.59710824
vt 0.09402484 0.59710824
vt 0.09402484 0.59710824
vt 0.09402484 0.59710824
vt 0.09402484 0.59710824
vt 0.09402484 0.59710824
vt 0.09402484 0.59710824
vt 0.09402484 0.59710824
vt 0.09402484 0.59710824
vt 0.15652484 0.59710824
vt 0.15652484 0.59710824
vt 0.15652484 0.59710824
vt 0.15652484 0.59710824
vt 0.15652484 0.59710824
vt 0.15652484 0.59710824
vt 0.15652484 0.59710824
vt 0.15652484 0.59710824
vt 0.15652484 0.59710824
vt 0.15652484 0.59710824
vt 0.15652484 0.59710824
vt 0.15652484 0.59710824
vt 0.15652484 0.59710824
vt 0.15652484 0.59710824
vt 0.15652484 0.59710824
vt 0.15652484 0.59710824
vt 0.15652484 0.59710824
vt 0.15652484 0.59710824
vt 0.15652484 0.59710824
vt 0.15652484 0.59710824
vt 0.15652484 0.59710824
vt 0.15652484 0.59710824
vt 0.15652484 0.59710824
vt 0.15652484 0.59710824
vt 0.15652484 0.59710824
vt 0.15652484 0.59710824
vt 0.15652484 0.59710824
vt 0.15652484 0.59710824
vt 0.15652484 0.59710824
vt 0.15652484 0.59710824
vt 0.15652484 0.59710824
vt 0.15652484 0.59710824
vt 0.15652484 0.59710824
vt 0.15652484 0.59710824
vt 0.15652484 0.59710824
vt 0.15652484 0.59710824
vt 0.09402484 0.59710824
vt 0.09402484 0.59710824
vt 0.09402484 0.59710824
vt 0.09402484 0.59710824
vt 0.09402484 0.59710824
vt 0.09402484 0.59710824
vt 0.09402484 0.59710824
vt 0.09402484 0.59710824
vt 0.09402484 0.59710824
vt 0.09402484 0.59710824
vt 0.09402484 0.59710824
vt 0.09402484 0.59710824
vt 0.09402484 0.59710824
vt 0.09402484 0.59710824
vt 0.09402484 0.59710824
vt 0.09402484 0.59710824
vt 0.09402484 0.59710824
vt 0.09402484 0.59710824
vt 0.09402484 0.59710824
vt 0.09402484 0.59710824
vt 0.09402484 0.59710824
vt 0.09402484 0.59710824
vt 0.09402484 0.59710824
vt 0.09402484 0.59710824
vt 0.09402484 0.59710824
vt 0.09402484 0.59710824
vt 0.09402484 0.59710824
vt 0.09402484 0.59710824
vt 0.09402484 0.59710824
vt 0.09402484 0.59710824
vt 0.09402484 0.59710824
vt 0.09402484 0.59710824
vt 0.09402484 0.59710824
vt 0.09402484 0.59710824
vt 0.09402484 0.59710824
vt 0.09402484 0.59710824
vt 0.09402484 0.59710824
vt 0.09402484 0.59710824
vt 0.09402484 0.59710824
vt 0.09402484 0.59710824
vt 0.09402484 0.59710824
vt 0.09402484 0.59710824
vt 0.09402484 0.59710824
vt 0.09402484 0.59710824
vt 0.09402484 0.59710824
vt 0.09402484 0.59710824
vt 0.09402484 0.59710824
vt 0.09402484 0.59710824
vt 0.09402484 0.59710824
vt 0.09402484 0.59710824
vt 0.09402484 0.59710824
vt 0.09402484 0.59710824
vt 0.09402484 0.59710824
vt 0.09402484 0.59710824
vt 0.09402484 0.59710824
vt 0.09402484 0.59710824
vt 0.09402484 0.59710824
vt 0.09402484 0.59710824
vt 0.09402484 0.59710824
vt 0.09402484 0.59710824
vt 0.09402484 0.59710824
vt 0.09402484 0.59710824
vt 0.09402484 0.59710824
vt 0.09402484 0.59710824
vt 0.09402484 0.59710824
vt 0.09402484 0.59710824
vt 0.09402484 0.59710824
vt 0.09402484 0.59710824
vt 0.09402484 0.59710824
vt 0.09402484 0.59710824
vt 0.09402484 0.59710824
vt 0.09402484 0.59710824
vt 0.09402484 0.59710824
vt 0.09402484 0.59710824
vt 0.09402484 0.59710824
vt 0.09402484 0.59710824
vt 0.09402484 0.59710824
vt 0.09402484 0.59710824
vt 0.09402484 0.59710824
vt 0.09402484 0.59710824
vt 0.09402484 0.59710824
vt 0.09402484 0.59710824
vt 0.09402484 0.59710824
vt 0.09402484 0.59710824
vt 0.09402484 0.59710824
vt 0.09402484 0.59710824
vt 0.09402484 0.59710824
vt 0.09402484 0.59710824
vt 0.09402484 0.59710824
vt 0.09402484 0.59710824
vt 0.09402484 0.59710824
vt 0.09402484 0.59710824
vt 0.09402484 0.59710824
vt 0.09402484 0.59710824
vt 0.09402484 0.59710824
vt 0.09402484 0.59710824
vt 0.09402484 0.59710824
vt 0.09402484 0.59710824
vt 0.09402484 0.59710824
vt 0.09402484 0.59710824
vt 0.09402484 0.59710824
vt 0.09402484 0.59710824
vt 0.09402484 0.59710824
vt 0.09402484 0.59710824
vt 0.09402484 0.59710824
vt 0.09402484 0.59710824
vt 0.09402484 0.59710824
vt 0.09402484 0.59710824
vt 0.09402484 0.59710824
vt 0.09402484 0.59710824
vt 0.09402484 0.59710824
vt 0.09402484 0.59710824
vt 0.09402484 0.59710824
vt 0.09402484 0.59710824
vt 0.09402484 0.59710824
vt 0.09402484 0.59710824
vt 0.09402484 0.59710824
vt 0.09402484 0.59710824
vt 0.09402484 0.59710824
vt 0.09402484 0.59710824
vt 0.09402484 0.59710824
vt 0.09402484 0.59710824
vt 0.09402484 0.59710824
vt 0.09402484 0.59710824
vt 0.09402484 0.59710824
vt 0.09402484 0.59710824
vt 0.09402484 0.59710824
vt 0.09402484 0.59710824
vt 0.09402484 0.59710824
vt 0.09402484 0.59710824
vt 0.09402484 0.59710824
vt 0.09402484 0.59710824
vt 0.09402484 0.59710824
vt 0.09402484 0.59710824
vt 0.09402484 0.59710824
vt 0.09402484 0.59710824
vt 0.09402484 0.59710824
vt 0.09402484 0.59710824
vt 0.09402484 0.59710824
vt 0.09402484 0.59710824
vt 0.09402484 0.59710824
vt 0.09402484 0.59710824
vt 0.09402484 0.59710824
vt 0.09402484 0.59710824
vt 0.09402484 0.59710824
vt 0.09402484 0.59710824
vt 0.09402484 0.59710824
vt 0.09402484 0.59710824
vt 0.09402484 0.59710824
vt 0.09402484 0.59710824
vt 0.09402484 0.59710824
vt 0.09402484 0.59710824
vt 0.59402484 0.097108245
vt 0.59402484 0.097108245
vt 0.59402484 0.097108245
vt 0.59402484 0.097108245
vt 0.59402484 0.097108245
vt 0.59402484 0.097108245
vt 0.59402484 0.097108245
vt 0.59402484 0.097108245
vt 0.59402484 0.097108245
vt 0.59402484 0.097108245
vt 0.59402484 0.097108245
vt 0.59402484 0.097108245
vt 0.59402484 0.097108245
vt 0.59402484 0.097108245
vt 0.59402484 0.097108245
vt 0.59402484 0.097108245
vt 0.59402484 0.097108245
vt 0.59402484 0.097108245
vt 0.59402484 0.097108245
vt 0.59402484 0.097108245
vt 0.59402484 0.097108245
vt 0.59402484 0.097108245
vt 0.59402484 0.097108245
vt 0.59402484 0.097108245
vt 0.59402484 0.097108245
vt 0.59402484 0.097108245
vt 0.59402484 0.097108245
vt 0.59402484 0.097108245
vt 0.59402484 0.097108245
vt 0.59402484 0.097108245
vt 0.59402484 0.097108245
vt 0.59402484 0.097108245
vt 0.59402484 0.097108245
vt 0.59402484 0.097108245
vt 0.59402484 0.097108245
vt 0.59402484 0.097108245
vt 0.59402484 0.097108245
vt 0.59402484 0.097108245
vt 0.59402484 0.097108245
vt 0.59402484 0.097108245
vt 0.59402484 0.097108245
vt 0.59402484 0.097108245
vt 0.59402484 0.097108245
vt 0.59402484 0.097108245
vt 0.59402484 0.097108245
vt 0.59402484 0.097108245
vt 0.59402484 0.097108245
vt 0.59402484 0.097108245
vt 0.59402484 0.097108245
vt 0.59402484 0.097108245
vt 0.59402484 0.097108245
vt 0.59402484 0.097108245
vt 0.59402484 0.097108245
vt 0.59402484 0.097108245
vt 0.59402484 0.097108245
vt 0.59402484 0.097108245
vt 0.59402484 0.097108245
vt 0.59402484 0.097108245
vt 0.59402484 0.097108245
vt 0.59402484 0.097108245
vt 0.53152484 0.97210824
vt 0.53152484 0.97210824
vt 0.53152484 0.97210824
vt 0.53152484 0.97210824
vt 0.53152484 0.97210824
vt 0.53152484 0.97210824
vt 0.53152484 0.97210824
vt 0.53152484 0.97210824
vt 0.53152484 0.97210824
vt 0.53152484 0.97210824
vt 0.53152484 0.97210824
vt 0.53152484 0.97210824
vt 0.53152484 0.97210824
vt 0.53152484 0.97210824
vt 0.53152484 0.97210824
vt 0.53152484 0.97210824
vt 0.53152484 0.97210824
vt 0.53152484 0.97210824
vt 0.53152484 0.97210824
vt 0.53152484 0.97210824
vt 0.53152484 0.97210824
vt 0.53152484 0.97210824
vt 0.53152484 0.97210824
vt 0.53152484 0.97210824
vt 0.53152484 0.97210824
vt 0.53152484 0.97210824
vt 0.53152484 0.97210824
vt 0.53152484 0.97210824
vt 0.53152484 0.97210824
vt 0.53152484 0.97210824
vt 0.15652484 0.59710824
vt 0.15652484 0.59710824
vt 0.15652484 0.59710824
vt 0.15652484 0.59710824
vt 0.65652484 0.034608245
vt 0.65652484 0.034608245
vt 0.65652484 0.034608245
vt 0.65652484 0.034608245
vt 0.65652484 0.034608245
vt 0.65652484 0.034608245
vt 0.65652484 0.034608245
vt 0.65652484 0.034608245
vt 0.65652484 0.034608245
vt 0.65652484 0.034608245
vt 0.65652484 0.034608245
vt 0.65652484 0.034608245
vt 0.65652484 0.034608245
vt 0.65652484 0.034608245
vt 0.65652484 0.034608245
vt 0.65652484 0.034608245
vt 0.90652484 0.034608245
vt 0.90652484 0.034608245
vt 0.90652484 0.034608245
vt 0.90652484 0.034608245
vt 0.78152484 0.034608245
vt 0.78152484 0.034608245
vt 0.78152484 0.034608245
vt 0.78152484 0.034608245
vt 0.78152484 0.034608245
vt 0.78152484 0.034608245
vt 0.78152484 0.034608245
vt 0.78152484 0.034608245
vt 0.78152484 0.034608245
vt 0.78152484 0.034608245
vt 0.78152484 0.034608245
vt 0.78152484 0.034608245
vt 0.78152484 0.034608245
vt 0.78152484 0.034608245
vt 0.78152484 0.034608245
vt 0.78152484 0.034608245
vt 0.65652484 0.034608245
vt 0.65652484 0.034608245
vt 0.65652484 0.034608245
vt 0.65652484 0.034608245
vt 0.65652484 0.034608245
vt 0.65652484 0.034608245
vt 0.65652484 0.034608245
vt 0.65652484 0.034608245
vt 0.65652484 0.034608245
vt 0.65652484 0.034608245
vt 0.65652484 0.034608245
vt 0.65652484 0.034608245
vt 0.65652484 0.034608245
vt 0.65652484 0.034608245
vt 0.65652484 0.034608245
vt 0.65652484 0.034608245
vn -0.95483226 0.29714552 0
vn -0.95483226 0.29714552 0
vn -0.95483226 0.29714552 0
vn -0.95483226 0.29714552 0
vn -0 0.2593355 -0.9657873
vn -0 0.2593355 -0.9657873
vn -0 0.2593355 -0.9657873
vn -0 0.2593355 -0.9657873
vn 0.95483226 0.29714552 0
vn 0.95483226 0.29714552 0
vn 0.95483226 0.29714552 0
vn 0.95483226 0.29714552 0
vn -0 0.2593355 0.9657873
vn -0 0.2593355 0.9657873
vn -0 0.2593355 0.9657873
vn -0 0.2593355 0.9657873
vn -0 -1 0
vn -0 -1 0
vn -0 -1 0
vn -0 -1 0
vn -0 1 0
vn -0 1 0
vn -0 1 0
vn -0 1 0
vn -1 0 0
vn -1 0 0
vn -1 0 0
vn -1 0 0
vn -1 0 0
vn -1 0 0
vn -0 0.8735771 -0.48668575
vn -0 0.8735771 -0.48668575
vn -0 0.8735771 -0.48668575
vn -0 0.8735771 -0.48668575
vn 1 0 0
vn 1 0 0
vn 1 0 0
vn 1 0 0
vn 1 0 0
vn 1 0 0
vn -0 0.008505344 0.9999639
vn -0 0.008505344 0.9999639
vn -0 0.008505344 0.9999639
vn -0 0.008505344 0.9999639
vn -0 -1 0
vn -0 -1 0
vn -0 -1 0
vn -0 -1 0
vn -0 1 0
vn -0 1 0
vn -0 1 0
vn -0 1 0
vn -0 0 -1
vn -0 0 -1
vn -0 0 -1
vn -0 0 -1
vn -0 -0.8735773 -0.48668543
vn -0 -0.8735773 -0.48668543
vn -0 -0.8735773 -0.48668543
vn -0 -0.8735773 -0.48668543
vn -0 0 -1
vn -0 0 -1
vn -0 0 -1
vn -0 0 -1
vn 1 0 0
vn 1 0 0
vn 1 0 0
vn 1 0 0
vn 1 0 0
vn 1 0 0
vn 1 0 0
vn 1 0 0
vn 1 0 0
vn 1 0 0
vn 1 0 0
vn 1 0 0
vn 1 0 0
vn 1 0 0
vn -1 0 0
vn -1 0 0
vn -1 0 0
vn -1 0 0
vn -1 0 0
vn -1 0 0
vn -1 0 0
vn -1 0 0
vn -1 0 0
vn -1 0 0
vn -1 0 0
vn -1 0 0
vn -1 0 0
vn -1 0 0
vn -0 0 1
vn -0 0 1
vn -0 0 1
vn -0 0 1
vn -0 1 0
vn -0 1 0
vn -0 1 0
vn -0 1 0
vn -0 1 0
vn -0 1 0
vn -0 1 0
vn -0 1 0
vn -0 -1 0
vn -0 -1 0
vn -0 -1 0
vn -0 -1 0
vn -0 -0.771035 0.6367928
vn -0 -0.771035 0.6367928
vn -0 -0.771035 0.6367928
vn -0 -0.771035 0.6367928
vn -0 -1 0
vn -0 -1 0
vn -0 -1 0
vn -0 -1 0
vn -0 0 1
vn -0 0 1
vn -0 0 1
vn -0 0 1
vn -0 0.77103513 0.6367926
vn -0 0.77103513 0.6367926
vn -0 0.77103513 0.6367926
vn -0 0.77103513 0.6367926
vn -0 0 -1
vn -0 0 -1
vn -0 0 -1
vn -0 0 -1
vn -0 0.8326111 -0.5538581
vn -0 0.8326111 -0.5538581
vn -0 0.8326111 -0.5538581
vn -0 0.8326111 -0.5538581
vn -0 -0.8326112 -0.55385786
vn -0 -0.8326112 -0.55385786
vn -0 -0.8326112 -0.55385786
vn -0 -0.8326112 -0.55385786
vn -0 0 -1
vn -0 0 -1
vn -0 0 -1
vn -0 0 -1
vn -1 0 0
vn -1 0 0
vn -1 0 0
vn -1 0 0
vn -1 0 0
vn -1 0 0
vn -1 0 0
vn -1 0 0
vn -1 0 0
vn -1 0 0
vn -1 0 0
vn -1 0 0
vn -1 0 0
vn -1 0 0
vn 1 0 0
vn 1 0 0
vn 1 0 0
vn 1 0 0
vn 1 0 0
vn 1 0 0
vn 1 0 0
vn 1 0 0
vn 1 0 0
vn 1 0 0
vn 1 0 0
vn 1 0 0
vn 1 0 0
vn 1 0 0
vn -0 0 1
vn -0 0 1
vn -0 0 1
vn -0 0 1
vn -0 1 0
vn -0 1 0
vn -0 1 0
vn -0 1 0
vn -0 1 0
vn -0 1 0
vn -0 1 0
vn -0 1 0
vn -0 -1 0
vn -0 -1 0
vn -0 -1 0
vn -0 -1 0
vn -0 -0.771035 0.6367928
vn -0 -0.771035 0.6367928
vn -0 -0.771035 0.6367928
vn -0 -0.771035 0.6367928
vn -0 -1 0
vn -0 -1 0
vn -0 -1 0
vn -0 -1 0
vn -0 0 1
vn -0 0 1
vn -0 0 1
vn -0 0 1
vn -0 0.77103513 0.6367926
vn -0 0.77103513 0.6367926
vn -0 0.77103513 0.6367926
vn -0 0.77103513 0.6367926
vn -0 0 -1
vn -0 0 -1
vn -0 0 -1
vn -0 0 -1
vn -0 0.8326111 -0.5538581
vn -0 0.8326111 -0.5538581
vn -0 0.8326111 -0.5538581
vn -0 0.8326111 -0.5538581
vn -0 -0.8326112 -0.55385786
vn -0 -0.8326112 -0.55385786
vn -0 -0.8326112 -0.55385786
vn -0 -0.8326112 -0.55385786
vn -0 0.95105636 0.30901757
vn -0 0.95105636 0.30901757
vn -0 0.95105636 0.30901757
vn -0 0.95105636 0.30901757
vn -0 0.5877852 0.809017
vn -0 0.5877852 0.809017
vn -0 0.5877852 0.809017
vn -0 0.5877852 0.809017
vn -0 0 1
vn -0 0 1
vn -0 0 1
vn -0 0 1
vn -0 -0.13760158 0.99048764
vn -0 -0.13760158 0.99048764
vn -0 -0.13760158 0.99048764
vn -0 -0.13760158 0.99048764
vn -0 -0.95105654 0.30901676
vn -0 -0.95105654 0.30901676
vn -0 -0.95105654 0.30901676
vn -0 -0.95105654 0.30901676
vn -0 -0.95105654 -0.30901676
vn -0 -0.95105654 -0.30901676
vn -0 -0.95105654 -0.30901676
vn -0 -0.95105654 -0.30901676
vn -0 -0.13760158 -0.99048764
vn -0 -0.13760158 -0.99048764
vn -0 -0.13760158 -0.99048764
vn -0 -0.13760158 -0.99048764
vn -0 0 -1
vn -0 0 -1
vn -0 0 -1
vn -0 0 -1
vn -0.99917334 -0.040651433 0
vn -0.99917334 -0.040651433 0
vn -0.99917334 -0.040651433 0
vn -0.99917334 -0.040651433 0
vn -0.99917334 -0.040651433 0
vn -0.99917334 -0.040651433 0
vn -0.99917334 -0.040651433 0
vn -0.99917334 -0.040651433 0
vn -0.99917334 -0.040651433 0
vn -0.99917334 -0.040651433 0
vn -0 0.5877852 -0.809017
vn -0 0.5877852 -0.809017
vn -0 0.5877852 -0.809017
vn -0 0.5877852 -0.809017
vn -0 0.95105636 -0.30901757
vn -0 0.95105636 -0.30901757
vn -0 0.95105636 -0.30901757
vn -0 0.95105636 -0.30901757
vn 1 0 0
vn 1 0 0
vn 1 0 0
vn 1 0 0
vn 1 0 0
vn 1 0 0
vn 1 0 0
vn 1 0 0
vn 1 0 0
vn 1 0 0
vn 0.116287574 0.4966073 -0.8601501
vn 0.116287574 0.4966073 -0.8601501
vn 0.116287574 0.4966073 -0.8601501
vn 0.116287574 0.4966073 -0.8601501
vn 0.11628885 0.99321544 0
vn 0.11628885 0.99321544 0
vn 0.11628885 0.99321544 0
vn 0.11628885 0.99321544 0
vn 0.11628922 0.49660742 0.86014986
vn 0.11628922 0.49660742 0.86014986
vn 0.11628922 0.49660742 0.86014986
vn 0.11628922 0.49660742 0.86014986
vn 0.11628797 -0.49660805 0.86014974
vn 0.11628797 -0.49660805 0.86014974
vn 0.11628797 -0.49660805 0.86014974
vn 0.11628797 -0.49660805 0.86014974
vn -1 0 0
vn -1 0 0
vn -1 0 0
vn -1 0 0
vn -1 0 0
vn -1 0 0
vn 0.11628664 -0.9932156 0
vn 0.11628664 -0.9932156 0
vn 0.11628664 -0.9932156 0
vn 0.11628664 -0.9932156 0
vn 0.11628597 -0.49660826 -0.86014986
vn 0.11628597 -0.49660826 -0.86014986
vn 0.11628597 -0.49660826 -0.86014986
vn 0.11628597 -0.49660826 -0.86014986
vn -0 -1 0
vn -0 -1 0
vn -0 -1 0
vn -0 -1 0
vn -0 -0.19258744 0.98127985
vn -0 -0.19258744 0.98127985
vn -0 -0.19258744 0.98127985
vn -0 -0.19258744 0.98127985
vn -0 -0.19258744 -0.98127985
vn -0 -0.19258744 -0.98127985
vn -0 -0.19258744 -0.98127985
vn -0 -0.19258744 -0.98127985
vn 0.9708594 -0.23964965 0
vn 0.9708594 -0.23964965 0
vn 0.9708594 -0.23964965 0
vn 0.9708594 -0.23964965 0
vn -0.9708594 -0.23964965 0
vn -0.9708594 -0.23964965 0
vn -0.9708594 -0.23964965 0
vn -0.9708594 -0.23964965 0
vn -0 1 0
vn -0 1 0
vn -0 1 0
vn -0 1 0
vn -0 0.19004165 -0.98177606
vn -0 0.19004165 -0.98177606
vn -0 0.19004165 -0.98177606
vn -0 0.19004165 -0.98177606
vn -0 0.1900417 0.98177606
vn -0 0.1900417 0.98177606
vn -0 0.1900417 0.98177606
vn -0 0.1900417 0.98177606
vn -0.9716196 0.236549 0
vn -0.9716196 0.236549 0
vn -0.9716196 0.236549 0
vn -0.9716196 0.236549 0
vn 0.9716196 0.236549 0
vn 0.9716196 0.236549 0
vn 0.9716196 0.236549 0
vn 0.9716196 0.236549 0
vn -0.40129432 0.91594917 0
vn -0.40129432 0.91594917 0
vn -0.40129432 0.91594917 0
vn -0.40129432 0.91594917 0
vn -0 0.9120839 -0.41000357
vn -0 0.9120839 -0.41000357
vn -0 0.9120839 -0.41000357
vn -0 0.9120839 -0.41000357
vn 0.40129432 0.91594917 0
vn 0.40129432 0.91594917 0
vn 0.40129432 0.91594917 0
vn 0.40129432 0.91594917 0
vn -0 0.9120839 0.41000357
vn -0 0.9120839 0.41000357
vn -0 0.9120839 0.41000357
vn -0 0.9120839 0.41000357
g wheatMill_0
f 3/3/3 2/2/2 1/1/1
f 4/4/4 3/3/3 1/1/1
f 7/7/7 6/6/6 5/5/5
f 8/8/8 7/7/7 5/5/5
f 11/11/11 10/10/10 9/9/9
f 12/12/12 11/11/11 9/9/9
f 15/15/15 14/14/14 13/13/13
f 16/16/16 15/15/15 13/13/13
f 19/19/19 18/18/18 17/17/17
f 20/20/20 19/19/19 17/17/17
f 23/23/23 22/22/22 21/21/21
f 24/24/24 23/23/23 21/21/21
f 27/27/27 26/26/26 25/25/25
f 26/26/26 28/28/28 25/25/25
f 26/26/26 29/29/29 28/28/28
f 29/29/29 30/30/30 28/28/28
f 33/33/33 32/32/32 31/31/31
f 34/34/34 33/33/33 31/31/31
f 37/37/37 36/36/36 35/35/35
f 38/38/38 37/37/37 35/35/35
f 35/35/35 39/39/39 38/38/38
f 39/39/39 40/40/40 38/38/38
f 43/43/43 42/42/42 41/41/41
f 44/44/44 43/43/43 41/41/41
f 47/47/47 46/46/46 45/45/45
f 48/48/48 47/47/47 45/45/45
f 51/51/51 50/50/50 49/49/49
f 52/52/52 51/51/51 49/49/49
f 55/55/55 54/54/54 53/53/53
f 56/56/56 55/55/55 53/53/53
f 59/59/59 58/58/58 57/57/57
f 60/60/60 59/59/59 57/57/57
f 63/63/63 62/62/62 61/61/61
f 64/64/64 63/63/63 61/61/61
f 67/67/67 66/66/66 65/65/65
f 68/68/68 67/67/67 65/65/65
f 68/68/68 65/65/65 69/69/69
f 65/65/65 70/70/70 69/69/69
f 71/71/71 68/68/68 69/69/69
f 70/70/70 72/72/72 69/69/69
f 70/70/70 73/73/73 72/72/72
f 73/73/73 74/74/74 72/72/72
f 71/71/71 75/75/75 68/68/68
f 75/75/75 76/76/76 68/68/68
f 75/75/75 77/77/77 76/76/76
f 77/77/77 78/78/78 76/76/76
f 81/81/81 80/80/80 79/79/79
f 82/82/82 81/81/81 79/79/79
f 82/82/82 79/79/79 83/83/83
f 79/79/79 84/84/84 83/83/83
f 85/85/85 82/82/82 83/83/83
f 84/84/84 86/86/86 83/83/83
f 84/84/84 87/87/87 86/86/86
f 87/87/87 88/88/88 86/86/86
f 85/85/85 89/89/89 82/82/82
f 89/89/89 90/90/90 82/82/82
f 89/89/89 91/91/91 90/90/90
f 91/91/91 92/92/92 90/90/90
f 95/95/95 94/94/94 93/93/93
f 96/96/96 95/95/95 93/93/93
f 99/99/99 98/98/98 97/97/97
f 100/100/100 99/99/99 97/97/97
f 101/101/101 100/100/100 97/97/97
f 102/102/102 101/101/101 97/97/97
f 102/102/102 103/103/103 101/101/101
f 103/103/103 104/104/104 101/101/101
f 107/107/107 106/106/106 105/105/105
f 108/108/108 107/107/107 105/105/105
f 111/111/111 110/110/110 109/109/109
f 112/112/112 111/111/111 109/109/109
f 115/115/115 114/114/114 113/113/113
f 116/116/116 115/115/115 113/113/113
f 119/119/119 118/118/118 117/117/117
f 120/120/120 119/119/119 117/117/117
f 123/123/123 122/122/122 121/121/121
f 124/124/124 123/123/123 121/121/121
f 127/127/127 126/126/126 125/125/125
f 128/128/128 127/127/127 125/125/125
f 131/131/131 130/130/130 129/129/129
f 132/132/132 131/131/131 129/129/129
f 135/135/135 134/134/134 133/133/133
f 136/136/136 135/135/135 133/133/133
f 139/139/139 138/138/138 137/137/137
f 140/140/140 139/139/139 137/137/137
f 143/143/143 142/142/142 141/141/141
f 142/142/142 144/144/144 141/141/141
f 141/141/141 144/144/144 145/145/145
f 146/146/146 141/141/141 145/145/145
f 144/144/144 147/147/147 145/145/145
f 148/148/148 146/146/146 145/145/145
f 149/149/149 146/146/146 148/148/148
f 150/150/150 149/149/149 148/148/148
f 151/151/151 147/147/147 144/144/144
f 152/152/152 151/151/151 144/144/144
f 153/153/153 151/151/151 152/152/152
f 154/154/154 153/153/153 152/152/152
f 157/157/157 156/156/156 155/155/155
f 156/156/156 158/158/158 155/155/155
f 155/155/155 158/158/158 159/159/159
f 160/160/160 155/155/155 159/159/159
f 158/158/158 161/161/161 159/159/159
f 162/162/162 160/160/160 159/159/159
f 163/163/163 160/160/160 162/162/162
f 164/164/164 163/163/163 162/162/162
f 165/165/165 161/161/161 158/158/158
f 166/166/166 165/165/165 158/158/158
f 167/167/167 165/165/165 166/166/166
f 168/168/168 167/167/167 166/166/166
f 171/171/171 170/170/170 169/169/169
f 172/172/172 171/171/171 169/169/169
f 175/175/175 174/174/174 173/173/173
f 174/174/174 176/176/176 173/173/173
f 176/176/176 177/177/177 173/173/173
f 177/177/177 178/178/178 173/173/173
f 179/179/179 178/178/178 177/177/177
f 180/180/180 179/179/179 177/177/177
f 183/183/183 182/182/182 181/181/181
f 184/184/184 183/183/183 181/181/181
f 187/187/187 186/186/186 185/185/185
f 188/188/188 187/187/187 185/185/185
f 191/191/191 190/190/190 189/189/189
f 192/192/192 191/191/191 189/189/189
f 195/195/195 194/194/194 193/193/193
f 196/196/196 195/195/195 193/193/193
f 199/199/199 198/198/198 197/197/197
f 200/200/200 199/199/199 197/197/197
f 203/203/203 202/202/202 201/201/201
f 204/204/204 203/203/203 201/201/201
f 207/207/207 206/206/206 205/205/205
f 208/208/208 207/207/207 205/205/205
f 211/211/211 210/210/210 209/209/209
f 212/212/212 211/211/211 209/209/209
f 215/215/215 214/214/214 213/213/213
f 216/216/216 215/215/215 213/213/213
f 219/219/219 218/218/218 217/217/217
f 220/220/220 219/219/219 217/217/217
f 223/223/223 222/222/222 221/221/221
f 224/224/224 223/223/223 221/221/221
f 227/227/227 226/226/226 225/225/225
f 228/228/228 227/227/227 225/225/225
f 231/231/231 230/230/230 229/229/229
f 232/232/232 231/231/231 229/229/229
f 235/235/235 234/234/234 233/233/233
f 236/236/236 235/235/235 233/233/233
f 239/239/239 238/238/238 237/237/237
f 240/240/240 239/239/239 237/237/237
f 243/243/243 242/242/242 241/241/241
f 244/244/244 243/243/243 241/241/241
f 247/247/247 246/246/246 245/245/245
f 245/245/245 248/248/248 247/247/247
f 248/248/248 249/249/249 247/247/247
f 248/248/248 250/250/250 249/249/249
f 250/250/250 251/251/251 249/249/249
f 250/250/250 252/252/252 251/251/251
f 252/252/252 253/253/253 251/251/251
f 252/252/252 254/254/254 253/253/253
f 257/257/257 256/256/256 255/255/255
f 258/258/258 257/257/257 255/255/255
f 261/261/261 260/260/260 259/259/259
f 262/262/262 261/261/261 259/259/259
f 265/265/265 264/264/264 263/263/263
f 263/263/263 266/266/266 265/265/265
f 266/266/266 267/267/267 265/265/265
f 266/266/266 268/268/268 267/267/267
f 268/268/268 269/269/269 267/267/267
f 268/268/268 270/270/270 269/269/269
f 270/270/270 271/271/271 269/269/269
f 270/270/270 272/272/272 271/271/271
f 275/275/275 274/274/274 273/273/273
f 276/276/276 275/275/275 273/273/273
f 279/279/279 278/278/278 277/277/277
f 280/280/280 279/279/279 277/277/277
f 283/283/283 282/282/282 281/281/281
f 284/284/284 283/283/283 281/281/281
f 287/287/287 286/286/286 285/285/285
f 288/288/288 287/287/287 285/285/285
f 291/291/291 290/290/290 289/289/289
f 289/289/289 292/292/292 291/291/291
f 289/289/289 293/293/293 292/292/292
f 293/293/293 294/294/294 292/292/292
f 297/297/297 296/296/296 295/295/295
f 298/298/298 297/297/297 295/295/295
f 301/301/301 300/300/300 299/299/299
f 302/302/302 301/301/301 299/299/299
f 305/305/305 304/304/304 303/303/303
f 306/306/306 305/305/305 303/303/303
f 309/309/309 308/308/308 307/307/307
f 310/310/310 309/309/309 307/307/307
f 313/313/313 312/312/312 311/311/311
f 314/314/314 313/313/313 311/311/311
f 317/317/317 316/316/316 315/315/315
f 318/318/318 317/317/317 315/315/315
f 321/321/321 320/320/320 319/319/319
f 322/322/322 321/321/321 319/319/319
f 325/325/325 324/324/324 323/323/323
f 326/326/326 325/325/325 323/323/323
f 329/329/329 328/328/328 327/327/327
f 330/330/330 329/329/329 327/327/327
f 333/333/333 332/332/332 331/331/331
f 334/334/334 333/333/333 331/331/331
f 337/337/337 336/336/336 335/335/335
f 338/338/338 337/337/337 335/335/335
f 341/341/341 340/340/340 339/339/339
f 342/342/342 341/341/341 339/339/339
f 345/345/345 344/344/344 343/343/343
f 346/346/346 345/345/345 343/343/343
f 349/349/349 348/348/348 347/347/347
f 350/350/350 349/349/349 347/347/347
f 353/353/353 352/352/352 351/351/351
f 354/354/354 353/353/353 351/351/351
f 357/357/357 356/356/356 355/355/355
f 358/358/358 357/357/357 355/355/355
