g wrench
v -0.7898174 1.9436758 1.256198
v -0.48054656 1.9911492 1.1391413
v -0.37854367 1.9731151 1.3632557
v -0.64314604 1.6508465 1.6849453
v -0.3302312 1.8766544 1.5044838
v -0.31500193 1.6606383 1.6230611
v 1.5334822 -1.4129602 -1.3726058
v 1.2679555 -1.6208878 -1.1944114
v 1.5083122 -1.4744478 -1.1437856
v 0.4148948 -1.9725024 -1.375854
v 0.11603281 -1.7350105 -0.8420401
v 0.5095442 -1.9915566 -1.1506523
v -0.012787832 -1.7043674 -1.0424109
v 0.3671525 -1.8771807 -1.5154138
v -0.06358684 -1.6030658 -1.1868798
v 0.3448861 -1.6628152 -1.63198
v -0.0521981 -1.4061646 -1.3169135
v 0.076227926 1.4081686 1.3108004
v -0.31500193 1.6606383 1.6230611
v -0.3302312 1.8766544 1.5044838
v 0.08947356 1.603666 1.1766628
v -0.37854367 1.9731151 1.3632557
v 0.040135197 1.7021765 1.0331368
v -0.48054656 1.9911492 1.1391413
v -0.08769175 1.7341999 0.8347383
v 0.13925147 1.0678546 1.0621425
v 0.076227926 1.4081686 1.3108004
v 0.08947356 1.603666 1.1766628
v 0.18856972 1.1719489 0.8487034
v 0.05263292 0.72648257 0.8731575
v 0.040135197 1.7021765 1.0331368
v 0.11510514 0.86005604 0.68753016
v 0.13911934 1.2712294 0.7041921
v 0.09608473 1.008296 0.53901905
v -0.08769175 1.7341999 0.8347383
v -0.02656688 1.3971612 0.5783522
v -0.12966807 1.0719931 0.37129003
v 0.09608473 1.008296 0.53901905
v -0.024505528 0.91001415 0.29838192
v 0.65696895 -0.20156993 -0.6823919
v 0.8713542 -0.32649538 -0.64318603
v 0.71808165 -0.3023258 -0.84717166
v 1.1697518 -0.42268488 -0.80558944
v 1.0486779 -0.40116242 -1.0137997
v 1.4720263 -0.72045034 -1.1240321
v 1.2764268 -0.66837025 -1.2821345
v 1.5324541 -1.2296419 -1.4767847
v 1.3401197 -1.1648593 -1.6252866
v 0.8713542 -0.32649538 -0.64318603
v 1.2202706 -0.5244833 -0.6546274
v 0.9253005 -0.43421865 -0.48542845
v 1.1697518 -0.42268488 -0.80558944
v 1.5298516 -0.8362191 -0.9601679
v 1.4720263 -0.72045034 -1.1240321
v -0.12158703 -0.89570993 -0.7081735
v -0.95048124 0.45536917 0.5026061
v -0.8936574 0.34192222 0.6687107
v -0.06075691 -1.0171626 -0.53035206
v -0.0521981 -1.4061646 -1.3169135
v -0.19360855 -1.2183952 -0.89397025
v -0.06358684 -1.6030658 -1.1868798
v -0.10634413 -1.0589296 -1.0761386
v -0.020040713 -0.72161883 -0.886666
v -0.12158703 -0.89570993 -0.7081735
v -0.09340752 -0.6235354 -0.72086555
v -0.95048124 0.45536917 0.5026061
v -0.8252219 0.49521157 0.2980889
v -0.86248803 0.6557038 0.3381301
v -1.2412344 0.75092274 0.55159664
v -1.2499131 0.5447253 0.67967975
v -1.5040874 0.82574517 0.9655958
v -1.4866382 1.0178939 0.8243408
v -1.5585693 1.3313136 1.3237046
v -1.4792281 1.4711853 1.1209761
v -1.5075452 1.2268808 1.4719226
v -1.4563273 0.7310635 1.1080667
v -1.3133928 1.1344149 1.6092098
v -1.3281488 0.696711 1.3026547
v -1.1989698 0.44301897 0.8285942
v -0.95048124 0.45536917 0.5026061
v -0.8936574 0.34192222 0.6687107
v -1.0753852 0.41980058 1.0364052
v -0.8936574 0.34192222 0.6687107
v -0.68848693 0.30830702 0.8467674
v -0.6867914 0.21882907 0.70275056
v 0.049062133 -0.9079777 -0.30440155
v -0.06075691 -1.0171626 -0.53035206
v 0.15427843 -1.0696465 -0.3771027
v -0.13846563 -1.3278996 -0.7289173
v 0.06456873 -1.3946321 -0.57878566
v -0.012787832 -1.7043674 -1.0424109
v 0.11603281 -1.7350105 -0.8420401
v -1.4792281 1.4711853 1.1209761
v -1.007805 1.1836486 0.7668878
v -1.3191595 1.6410962 1.2293818
v -1.4866382 1.0178939 0.8243408
v -1.2412344 0.75092274 0.55159664
v -0.67842185 1.1548531 0.6239444
v -0.86248803 0.6557038 0.3381301
v -0.12966807 1.0719931 0.37129003
v -0.02656688 1.3971612 0.5783522
v -0.024505528 0.91001415 0.29838192
v -0.8252219 0.49521157 0.2980889
v 0.65696895 -0.20156993 -0.6823919
v -0.09340752 -0.6235354 -0.72086555
v -0.5294253 1.4267664 0.76819414
v -0.08769175 1.7341999 0.8347383
v -0.48054656 1.9911492 1.1391413
v -0.7898174 1.9436758 1.256198
v 0.71808165 -0.3023258 -0.84717166
v -0.020040713 -0.72161883 -0.886666
v 0.5103888 -0.8702324 -1.1529145
v 1.0486779 -0.40116242 -1.0137997
v 0.82328534 -0.830236 -1.234804
v 1.2764268 -0.66837025 -1.2821345
v 1.1234046 -1.3253293 -1.6300116
v 1.3401197 -1.1648593 -1.6252866
v 0.2998132 -1.1244918 -1.2585204
v -0.10634413 -1.0589296 -1.0761386
v -0.0521981 -1.4061646 -1.3169135
v 0.3448861 -1.6628152 -1.63198
v 0.6222829 -1.6199634 -1.6576477
v -1.3133928 1.1344149 1.6092098
v -1.1719517 1.3471937 1.6596978
v -0.8417811 0.85217977 1.2522068
v -1.3281488 0.696711 1.3026547
v -1.0753852 0.41980058 1.0364052
v -0.68848693 0.30830702 0.8467674
v -0.50781846 0.81424296 1.122647
v 0.05263292 0.72648257 0.8731575
v -0.6867914 0.21882907 0.70275056
v 0.13925147 1.0678546 1.0621425
v 0.13882835 0.6494804 0.7041691
v 0.049062133 -0.9079777 -0.30440155
v 0.79642373 -0.47999734 -0.27473617
v -0.36292988 1.0943563 1.2548902
v 0.076227926 1.4081686 1.3108004
v -0.31500193 1.6606383 1.6230611
v -0.64314604 1.6508465 1.6849453
v 0.15427843 -1.0696465 -0.3771027
v 0.88996756 -0.64549947 -0.34471703
v 0.67748666 -1.2038448 -0.6644572
v 1.2122601 -0.73242855 -0.5272875
v 0.46863347 -1.4615422 -0.76502925
v 0.99131924 -1.1657178 -0.743611
v 1.4470855 -1.0096551 -0.7899568
v 1.5083122 -1.4744478 -1.1437856
v 1.2679555 -1.6208878 -1.1944114
v 0.06456873 -1.3946321 -0.57878566
v 0.11603281 -1.7350105 -0.8420401
v 0.5095442 -1.9915566 -1.1506523
v 0.76967686 -1.9142351 -1.2267891
v -0.5294253 1.4267664 0.76819414
v -0.7898174 1.9436758 1.256198
v -0.64314604 1.6508465 1.6849453
v -0.36292988 1.0943563 1.2548902
v -0.19360855 -1.2183952 -0.89397025
v -0.12158703 -0.89570993 -0.7081735
v -0.06075691 -1.0171626 -0.53035206
v -0.13846563 -1.3278996 -0.7289173
v -0.06358684 -1.6030658 -1.1868798
v -0.012787832 -1.7043674 -1.0424109
v -1.4792281 1.4711853 1.1209761
v -1.3191595 1.6410962 1.2293818
v -1.5585693 1.3313136 1.3237046
v -1.1719517 1.3471937 1.6596978
v -1.5075452 1.2268808 1.4719226
v -1.3133928 1.1344149 1.6092098
v -0.7898174 1.9436758 1.256198
v -0.37854367 1.9731151 1.3632557
v -0.3302312 1.8766544 1.5044838
v -0.64314604 1.6508465 1.6849453
v 0.67748666 -1.2038448 -0.6644572
v 0.99131924 -1.1657178 -0.743611
v 0.82328534 -0.830236 -1.234804
v 0.5103888 -0.8702324 -1.1529145
v -1.007805 1.1836486 0.7668878
v -0.67842185 1.1548531 0.6239444
v -0.50781846 0.81424296 1.122647
v -0.8417811 0.85217977 1.2522068
v 1.4720263 -0.72045034 -1.1240321
v 1.5324541 -1.2296419 -1.4767847
v 1.5298516 -0.8362191 -0.9601679
v 1.5334822 -1.4129602 -1.3726058
v 1.4470855 -1.0096551 -0.7899568
v 1.5083122 -1.4744478 -1.1437856
v -0.67842185 1.1548531 0.6239444
v -0.5294253 1.4267664 0.76819414
v -0.36292988 1.0943563 1.2548902
v -0.50781846 0.81424296 1.122647
v 0.09608473 1.008296 0.53901905
v 0.8713542 -0.32649538 -0.64318603
v 0.9253005 -0.43421865 -0.48542845
v 0.11510514 0.86005604 0.68753016
v 0.13882835 0.6494804 0.7041691
v 0.05263292 0.72648257 0.8731575
v 0.79642373 -0.47999734 -0.27473617
v 0.88996756 -0.64549947 -0.34471703
v 1.2122601 -0.73242855 -0.5272875
v 1.2202706 -0.5244833 -0.6546274
v 1.4470855 -1.0096551 -0.7899568
v 1.5298516 -0.8362191 -0.9601679
v 0.6222829 -1.6199634 -1.6576477
v 0.3448861 -1.6628152 -1.63198
v 0.3671525 -1.8771807 -1.5154138
v 0.4148948 -1.9725024 -1.375854
v 0.76967686 -1.9142351 -1.2267891
v 0.5095442 -1.9915566 -1.1506523
v 1.5334822 -1.4129602 -1.3726058
v 1.5324541 -1.2296419 -1.4767847
v 1.3401197 -1.1648593 -1.6252866
v 1.1234046 -1.3253293 -1.6300116
v 1.2679555 -1.6208878 -1.1944114
v 0.46863347 -1.4615422 -0.76502925
v 0.67748666 -1.2038448 -0.6644572
v 0.5103888 -0.8702324 -1.1529145
v 0.2998132 -1.1244918 -1.2585204
v 0.46863347 -1.4615422 -0.76502925
v 0.2998132 -1.1244918 -1.2585204
v 0.6222829 -1.6199634 -1.6576477
v 0.76967686 -1.9142351 -1.2267891
v -1.1719517 1.3471937 1.6596978
v -1.3191595 1.6410962 1.2293818
v -1.007805 1.1836486 0.7668878
v -0.8417811 0.85217977 1.2522068
v 0.99131924 -1.1657178 -0.743611
v 1.2679555 -1.6208878 -1.1944114
v 1.1234046 -1.3253293 -1.6300116
v 0.82328534 -0.830236 -1.234804
vt 0.71802074 0.034140334
vt 0.71802074 0.034140334
vt 0.71802074 0.034140334
vt 0.71802074 0.034140334
vt 0.71802074 0.034140334
vt 0.71802074 0.034140334
vt 0.71802074 0.034140334
vt 0.71802074 0.034140334
vt 0.71802074 0.034140334
vt 0.71802074 0.034140334
vt 0.71802074 0.034140334
vt 0.71802074 0.034140334
vt 0.71802074 0.034140334
vt 0.71802074 0.034140334
vt 0.71802074 0.034140334
vt 0.71802074 0.034140334
vt 0.71802074 0.034140334
vt 0.71802074 0.034140334
vt 0.71802074 0.034140334
vt 0.71802074 0.034140334
vt 0.71802074 0.034140334
vt 0.71802074 0.034140334
vt 0.71802074 0.034140334
vt 0.71802074 0.034140334
vt 0.71802074 0.034140334
vt 0.71802074 0.034140334
vt 0.71802074 0.034140334
vt 0.71802074 0.034140334
vt 0.71802074 0.034140334
vt 0.71802074 0.034140334
vt 0.71802074 0.034140334
vt 0.71802074 0.034140334
vt 0.71802074 0.034140334
vt 0.71802074 0.034140334
vt 0.71802074 0.034140334
vt 0.71802074 0.034140334
vt 0.71802074 0.034140334
vt 0.71802074 0.034140334
vt 0.71802074 0.034140334
vt 0.71802074 0.034140334
vt 0.71802074 0.034140334
vt 0.71802074 0.034140334
vt 0.71802074 0.034140334
vt 0.71802074 0.034140334
vt 0.71802074 0.034140334
vt 0.71802074 0.034140334
vt 0.71802074 0.034140334
vt 0.71802074 0.034140334
vt 0.71802074 0.034140334
vt 0.71802074 0.034140334
vt 0.71802074 0.034140334
vt 0.71802074 0.034140334
vt 0.71802074 0.034140334
vt 0.71802074 0.034140334
vt 0.71802074 0.034140334
vt 0.71802074 0.034140334
vt 0.71802074 0.034140334
vt 0.71802074 0.034140334
vt 0.71802074 0.034140334
vt 0.71802074 0.034140334
vt 0.71802074 0.034140334
vt 0.71802074 0.034140334
vt 0.71802074 0.034140334
vt 0.71802074 0.034140334
vt 0.71802074 0.034140334
vt 0.71802074 0.034140334
vt 0.71802074 0.034140334
vt 0.71802074 0.034140334
vt 0.71802074 0.034140334
vt 0.71802074 0.034140334
vt 0.71802074 0.034140334
vt 0.71802074 0.034140334
vt 0.71802074 0.034140334
vt 0.71802074 0.034140334
vt 0.71802074 0.034140334
vt 0.71802074 0.034140334
vt 0.71802074 0.034140334
vt 0.71802074 0.034140334
vt 0.71802074 0.034140334
vt 0.71802074 0.034140334
vt 0.71802074 0.034140334
vt 0.71802074 0.034140334
vt 0.71802074 0.034140334
vt 0.71802074 0.034140334
vt 0.71802074 0.034140334
vt 0.71802074 0.034140334
vt 0.71802074 0.034140334
vt 0.71802074 0.034140334
vt 0.71802074 0.034140334
vt 0.71802074 0.034140334
vt 0.71802074 0.034140334
vt 0.71802074 0.034140334
vt 0.71802074 0.034140334
vt 0.71802074 0.034140334
vt 0.71802074 0.034140334
vt 0.71802074 0.034140334
vt 0.71802074 0.034140334
vt 0.71802074 0.034140334
vt 0.71802074 0.034140334
vt 0.71802074 0.034140334
vt 0.71802074 0.034140334
vt 0.71802074 0.034140334
vt 0.71802074 0.034140334
vt 0.71802074 0.034140334
vt 0.71802074 0.034140334
vt 0.71802074 0.034140334
vt 0.71802074 0.034140334
vt 0.71802074 0.034140334
vt 0.71802074 0.034140334
vt 0.71802074 0.034140334
vt 0.71802074 0.034140334
vt 0.71802074 0.034140334
vt 0.71802074 0.034140334
vt 0.71802074 0.034140334
vt 0.71802074 0.034140334
vt 0.71802074 0.034140334
vt 0.71802074 0.034140334
vt 0.71802074 0.034140334
vt 0.71802074 0.034140334
vt 0.71802074 0.034140334
vt 0.71802074 0.034140334
vt 0.71802074 0.034140334
vt 0.71802074 0.034140334
vt 0.71802074 0.034140334
vt 0.71802074 0.034140334
vt 0.71802074 0.034140334
vt 0.71802074 0.034140334
vt 0.71802074 0.034140334
vt 0.71802074 0.034140334
vt 0.71802074 0.034140334
vt 0.71802074 0.034140334
vt 0.71802074 0.034140334
vt 0.71802074 0.034140334
vt 0.71802074 0.034140334
vt 0.71802074 0.034140334
vt 0.71802074 0.034140334
vt 0.71802074 0.034140334
vt 0.71802074 0.034140334
vt 0.71802074 0.034140334
vt 0.71802074 0.034140334
vt 0.71802074 0.034140334
vt 0.71802074 0.034140334
vt 0.71802074 0.034140334
vt 0.71802074 0.034140334
vt 0.71802074 0.034140334
vt 0.71802074 0.034140334
vt 0.71802074 0.034140334
vt 0.71802074 0.034140334
vt 0.71802074 0.034140334
vt 0.71802074 0.034140334
vt 0.71802074 0.034140334
vt 0.71802074 0.034140334
vt 0.71802074 0.034140334
vt 0.71802074 0.034140334
vt 0.71802074 0.034140334
vt 0.71802074 0.034140334
vt 0.71802074 0.034140334
vt 0.71802074 0.034140334
vt 0.71802074 0.034140334
vt 0.71802074 0.034140334
vt 0.71802074 0.034140334
vt 0.71802074 0.034140334
vt 0.71802074 0.034140334
vt 0.71802074 0.034140334
vt 0.71802074 0.034140334
vt 0.71802074 0.034140334
vt 0.71802074 0.034140334
vt 0.71802074 0.034140334
vt 0.71802074 0.034140334
vt 0.71802074 0.034140334
vt 0.71802074 0.034140334
vt 0.71802074 0.034140334
vt 0.71802074 0.034140334
vt 0.71802074 0.034140334
vt 0.71802074 0.034140334
vt 0.71802074 0.034140334
vt 0.71802074 0.034140334
vt 0.71802074 0.034140334
vt 0.71802074 0.034140334
vt 0.71802074 0.034140334
vt 0.71802074 0.034140334
vt 0.71802074 0.034140334
vt 0.71802074 0.034140334
vt 0.71802074 0.034140334
vt 0.71802074 0.034140334
vt 0.71802074 0.034140334
vt 0.71802074 0.034140334
vt 0.71802074 0.034140334
vt 0.71802074 0.034140334
vt 0.71802074 0.034140334
vt 0.71802074 0.034140334
vt 0.71802074 0.034140334
vt 0.71802074 0.034140334
vt 0.71802074 0.034140334
vt 0.71802074 0.034140334
vt 0.71802074 0.034140334
vt 0.71802074 0.034140334
vt 0.71802074 0.034140334
vt 0.71802074 0.034140334
vt 0.71802074 0.034140334
vt 0.71802074 0.034140334
vt 0.71802074 0.034140334
vt 0.71802074 0.034140334
vt 0.71802074 0.034140334
vt 0.71802074 0.034140334
vt 0.71802074 0.034140334
vt 0.71802074 0.034140334
vt 0.71802074 0.034140334
vt 0.71802074 0.034140334
vt 0.71802074 0.034140334
vt 0.71802074 0.034140334
vt 0.71802074 0.034140334
vt 0.71802074 0.034140334
vt 0.71802074 0.034140334
vt 0.71802074 0.034140334
vt 0.71802074 0.034140334
vt 0.71802074 0.034140334
vt 0.71802074 0.034140334
vt 0.71802074 0.034140334
vt 0.71802074 0.034140334
vt 0.71802074 0.034140334
vt 0.71802074 0.034140334
vt 0.71802074 0.034140334
vt 0.71802074 0.034140334
vt 0.71802074 0.034140334
vt 0.71802074 0.034140334
vt 0.71802074 0.034140334
vt 0.71802074 0.034140334
vt 0.71802074 0.034140334
vn -0.10355062 0.986545 0.12651528
vn -0.10355062 0.986545 0.12651528
vn -0.10355062 0.986545 0.12651528
vn 0.14821577 0.48389098 0.86248565
vn 0.14821577 0.48389098 0.86248565
vn 0.14821577 0.48389098 0.86248565
vn 0.5381534 -0.8269326 -0.16301346
vn 0.5381534 -0.8269326 -0.16301346
vn 0.5381534 -0.8269326 -0.16301346
vn -0.57762474 -0.8123145 -0.080590025
vn -0.45543817 -0.8797537 0.13641694
vn -0.45543817 -0.8797537 0.13641694
vn -0.57005656 -0.81902796 -0.06502915
vn -0.69763744 -0.5716958 -0.431817
vn -0.7003046 -0.5560499 -0.4476405
vn -0.7069807 -0.37735564 -0.598148
vn -0.7069807 -0.37735564 -0.598148
vn 0.71140313 0.37026113 0.5973377
vn 0.71140313 0.37026113 0.5973377
vn 0.7046146 0.56502396 0.42926228
vn 0.70660514 0.5526466 0.4419174
vn 0.5819181 0.81018156 0.070547745
vn 0.5748037 0.8163527 0.056293797
vn 0.457432 0.8773634 -0.14487797
vn 0.457432 0.8773634 -0.14487797
vn 0.98046714 -0.11184034 0.16178976
vn 0.9757401 0.044847496 0.21428944
vn 0.980645 0.1930673 0.032564037
vn 0.9995609 0.003466525 -0.02942868
vn 0.9534236 -0.28561938 0.09697926
vn 0.8781104 0.39739844 -0.2664516
vn 0.9804196 -0.18857905 -0.056703597
vn 0.8769944 0.26323757 -0.4019786
vn 0.96353734 -0.045590222 -0.26366138
vn 0.7510696 0.49207234 -0.44018084
vn 0.71830475 0.39684597 -0.57144684
vn 0.62909114 0.45231467 -0.6321833
vn 0.60802984 0.4850975 -0.6284744
vn 0.5119929 0.68734145 -0.51519406
vn 0.49364626 0.7552096 -0.43124434
vn 0.39205918 0.8866502 -0.24523672
vn 0.38651523 0.90559566 -0.17464964
vn 0.3955502 0.90077484 -0.17928948
vn 0.40674296 0.8937989 -0.1889016
vn 0.59169245 0.6592671 -0.4639687
vn 0.58984375 0.664904 -0.45824367
vn 0.62572426 0.4946125 -0.60318124
vn 0.62572426 0.4946125 -0.60318124
vn 0.4651902 0.7976241 0.38391918
vn 0.6330903 0.7225308 0.2777513
vn 0.4651902 0.7976241 0.38391918
vn 0.63453484 0.72166944 0.27669275
vn 0.77318513 0.6141042 0.15830599
vn 0.77318513 0.6141042 0.15830599
vn -0.8677561 -0.49526203 -0.041409906
vn -0.8677561 -0.49526203 -0.041409906
vn -0.8677561 -0.49526203 -0.041409906
vn -0.8677561 -0.49526203 -0.041409906
vn -0.94979495 -0.01099738 -0.31267992
vn -0.9550748 0.1472239 -0.25721037
vn -0.94979495 -0.01099738 -0.31267992
vn -0.9530044 0.17727195 -0.2456772
vn -0.92700005 0.2052833 -0.31389427
vn -0.9168652 0.19252516 -0.3497032
vn -0.8477164 0.026397897 -0.52979255
vn -0.68981355 -0.24480425 -0.68134284
vn -0.8293902 -0.023467245 -0.5581765
vn -0.70816094 -0.24907868 -0.66065717
vn -0.7035302 -0.34407768 -0.6218166
vn -0.69437265 -0.55752355 -0.45498782
vn -0.9428999 -0.28620556 -0.1703707
vn -0.94178575 -0.07251486 -0.32830054
vn -0.99725 -0.07339902 -0.010241282
vn -0.97743666 0.084274076 -0.19368929
vn -0.869611 -0.3307582 0.36657298
vn -0.8148238 -0.5419949 0.20567836
vn -0.7260276 -0.41961002 0.5448039
vn -0.68371624 -0.588342 0.4317243
vn -0.5593164 -0.8267508 -0.060401432
vn -0.4655039 -0.7969063 -0.3850277
vn -0.4655039 -0.7969063 -0.3850277
vn -0.43212965 -0.88547504 0.17087406
vn -0.36604446 -0.8916671 0.26634806
vn -0.39154875 -0.881211 0.26487115
vn -0.47332197 -0.73471403 0.48596454
vn -0.4865412 -0.6949581 0.52944386
vn -0.57381064 -0.49247566 0.6543768
vn -0.5939318 -0.45999208 0.66003966
vn -0.6580976 -0.44481283 0.6074941
vn -0.6527038 -0.42171282 0.6293934
vn -0.6749629 -0.5565502 0.48443466
vn -0.6749629 -0.5565502 0.48443466
vn -0.20961311 0.6036088 -0.7692326
vn -0.27795705 0.55368835 -0.7849644
vn -0.172145 0.6399657 -0.7488724
vn -0.28122416 0.5366483 -0.7955637
vn -0.29079425 0.5492155 -0.7834546
vn -0.28039914 0.5579088 -0.78109807
vn -0.22019562 0.43395188 -0.87361306
vn -0.21530104 0.4519458 -0.86567336
vn -0.2659834 0.5625042 -0.78284216
vn -0.20696516 0.42123163 -0.8830228
vn -0.20766823 0.4225325 -0.88223594
vn -0.32712722 0.6364624 -0.69850075
vn -0.32623455 0.63493055 -0.7003101
vn -0.27673018 0.5568886 -0.7831319
vn -0.26265094 0.54911995 -0.79339886
vn -0.33080605 0.538164 -0.77520764
vn -0.36990085 0.53244925 -0.76136136
vn -0.3116873 0.61865336 -0.7211927
vn -0.31233484 0.6168384 -0.7224662
vn -0.2603964 0.53306526 -0.8050063
vn -0.26792616 0.54278326 -0.7959911
vn -0.27480525 0.52844065 -0.8032636
vn -0.28643283 0.5237157 -0.80229545
vn -0.29236922 0.4998185 -0.8152924
vn -0.29236922 0.4998185 -0.8152924
vn -0.26403683 0.53076756 -0.80533856
vn -0.2696958 0.5269517 -0.80596906
vn -0.28600666 0.52377367 -0.80240965
vn -0.20342799 0.5465338 -0.81235325
vn -0.16110496 0.55342066 -0.8171724
vn 0.3280376 -0.48058498 0.813283
vn 0.3623602 -0.43629867 0.8236131
vn 0.2634772 -0.5321987 0.8045771
vn 0.2582053 -0.5500558 0.7942094
vn 0.25083637 -0.5354599 0.80645144
vn 0.32847372 -0.64730966 0.6878192
vn 0.2664331 -0.52956396 0.8053418
vn 0.33750015 -0.63843125 0.69173616
vn 0.34100804 -0.6510708 0.67810047
vn 0.2792215 -0.5258739 0.8034252
vn 0.33958226 -0.64853024 0.6812432
vn 0.21376319 -0.4336848 0.87534153
vn 0.21302092 -0.43247283 0.87612176
vn 0.26828736 -0.53097355 0.8037965
vn 0.28179938 -0.53612566 0.7957125
vn 0.21216208 -0.5452288 0.810995
vn 0.17085482 -0.5471882 0.8193862
vn 0.2283556 -0.4616998 0.8571389
vn 0.22808966 -0.46004647 0.8580981
vn 0.283187 -0.552154 0.78417546
vn 0.275222 -0.54356813 0.7929606
vn 0.28196856 -0.55317706 0.78389335
vn 0.267854 -0.55728817 0.7859288
vn 0.2563477 -0.5623861 0.7861347
vn 0.24909528 -0.58415085 0.77247614
vn 0.24909528 -0.58415085 0.77247614
vn 0.27577594 -0.5564087 0.78380924
vn 0.26181749 -0.55911094 0.78666806
vn 0.34062356 -0.5358141 0.7725794
vn 0.37909064 -0.525105 0.7619417
vn -0.89348793 -0.4490859 -0.0010654673
vn -0.89348793 -0.4490859 -0.0010654673
vn -0.89348793 -0.4490859 -0.0010654673
vn -0.89348793 -0.4490859 -0.0010654673
vn -0.9622676 -0.17646411 0.20712687
vn -0.9427305 0.020838702 0.33290386
vn -0.9427305 0.020838702 0.33290386
vn -0.96238637 -0.17295218 0.2095235
vn -0.9280445 -0.36615965 0.068267375
vn -0.9280445 -0.36615965 0.068267375
vn -0.76315665 0.6315162 0.13703701
vn -0.64531535 0.6279709 0.434995
vn -0.61143684 0.6188457 0.49312788
vn -0.55137473 0.441863 0.70763195
vn -0.55026037 0.49374238 0.6733736
vn -0.52287006 0.14839812 0.8393955
vn -0.21131417 0.77195317 0.5995287
vn -0.21131417 0.77195317 0.5995287
vn -0.21131417 0.77195317 0.5995287
vn -0.21131417 0.77195317 0.5995287
vn -0.038854517 -0.8312928 -0.5544751
vn -0.038854517 -0.8312928 -0.5544751
vn -0.038854517 -0.8312928 -0.5544751
vn -0.038854517 -0.8312928 -0.5544751
vn 0.27898312 0.83476335 0.47469828
vn 0.27898312 0.83476335 0.47469828
vn 0.27898312 0.83476335 0.47469828
vn 0.27898312 0.83476335 0.47469828
vn 0.95691675 0.23330763 -0.17285234
vn 0.99319494 -0.051499177 0.10445825
vn 0.99902034 0.041769784 0.014618889
vn 0.988364 -0.052123237 0.1428975
vn 0.98567086 -0.07844052 0.14933173
vn 0.99201804 0.03952311 0.119741425
vn -0.8610283 0.23162216 0.4527488
vn -0.8610283 0.23162216 0.4527488
vn -0.8610283 0.23162216 0.4527488
vn -0.8610283 0.23162216 0.4527488
vn 0.8976278 0.41911182 0.13641705
vn 0.8976278 0.41911182 0.13641705
vn 0.79421926 0.3366439 0.50585246
vn 0.9147192 0.27725884 0.2939666
vn 0.88778794 0.13162813 0.44102904
vn 0.9061517 0.13379018 0.40123472
vn 0.8381982 0.10412104 0.5353341
vn 0.672016 0.33552667 0.6601639
vn 0.6915412 0.32387573 0.6456587
vn 0.68082273 0.3311718 0.6533036
vn 0.8102872 0.22824936 0.5397563
vn 0.8102872 0.22824936 0.5397563
vn 0.23227298 -0.63689137 -0.73513174
vn -0.007373 -0.4782915 -0.87817013
vn 0.2717 -0.6578936 -0.7023924
vn 0.34087858 -0.7960096 -0.5001706
vn 0.32762256 -0.8272599 -0.4564039
vn 0.2320044 -0.9562126 -0.17841376
vn 0.3045992 -0.65196514 -0.694378
vn 0.40398207 -0.47891715 -0.7793823
vn 0.40398207 -0.47891715 -0.7793823
vn 0.32480595 -0.6211089 -0.7132495
vn 0.20798591 -0.7759563 -0.5955114
vn 0.7483304 -0.3999695 -0.5291748
vn 0.7483304 -0.3999695 -0.5291748
vn 0.7483304 -0.3999695 -0.5291748
vn 0.7483304 -0.3999695 -0.5291748
vn 0.8570187 0.5121648 0.056623057
vn 0.8570187 0.5121648 0.056623057
vn 0.8570187 0.5121648 0.056623057
vn 0.8570187 0.5121648 0.056623057
vn 0.8531207 0.5180215 0.06195852
vn 0.8531207 0.5180215 0.06195852
vn 0.8531207 0.5180215 0.06195852
vn 0.8531207 0.5180215 0.06195852
vn -0.86997086 -0.49138263 -0.041155502
vn -0.86997086 -0.49138263 -0.041155502
vn -0.86997086 -0.49138263 -0.041155502
vn -0.86997086 -0.49138263 -0.041155502
g wrench_0
f 3/3/3 2/2/2 1/1/1
f 6/6/6 5/5/5 4/4/4
f 9/9/9 8/8/8 7/7/7
f 12/12/12 11/11/11 10/10/10
f 11/11/11 13/13/13 10/10/10
f 10/10/10 13/13/13 14/14/14
f 13/13/13 15/15/15 14/14/14
f 14/14/14 15/15/15 16/16/16
f 15/15/15 17/17/17 16/16/16
f 20/20/20 19/19/19 18/18/18
f 21/21/21 20/20/20 18/18/18
f 22/22/22 20/20/20 21/21/21
f 23/23/23 22/22/22 21/21/21
f 24/24/24 22/22/22 23/23/23
f 25/25/25 24/24/24 23/23/23
f 28/28/28 27/27/27 26/26/26
f 29/29/29 28/28/28 26/26/26
f 29/29/29 26/26/26 30/30/30
f 31/31/31 28/28/28 29/29/29
f 32/32/32 29/29/29 30/30/30
f 33/33/33 31/31/31 29/29/29
f 33/33/33 29/29/29 32/32/32
f 34/34/34 33/33/33 32/32/32
f 35/35/35 31/31/31 33/33/33
f 36/36/36 35/35/35 33/33/33
f 36/36/36 33/33/33 37/37/37
f 33/33/33 38/38/38 37/37/37
f 38/38/38 39/39/39 37/37/37
f 40/40/40 39/39/39 38/38/38
f 41/41/41 40/40/40 38/38/38
f 41/41/41 42/42/42 40/40/40
f 41/41/41 43/43/43 42/42/42
f 43/43/43 44/44/44 42/42/42
f 43/43/43 45/45/45 44/44/44
f 45/45/45 46/46/46 44/44/44
f 45/45/45 47/47/47 46/46/46
f 47/47/47 48/48/48 46/46/46
f 51/51/51 50/50/50 49/49/49
f 50/50/50 52/52/52 49/49/49
f 50/50/50 53/53/53 52/52/52
f 53/53/53 54/54/54 52/52/52
f 57/57/57 56/56/56 55/55/55
f 58/58/58 57/57/57 55/55/55
f 61/61/61 60/60/60 59/59/59
f 60/60/60 62/62/62 59/59/59
f 62/62/62 60/60/60 63/63/63
f 60/60/60 64/64/64 63/63/63
f 63/63/63 64/64/64 65/65/65
f 65/65/65 64/64/64 66/66/66
f 67/67/67 65/65/65 66/66/66
f 68/68/68 67/67/67 66/66/66
f 68/68/68 66/66/66 69/69/69
f 66/66/66 70/70/70 69/69/69
f 69/69/69 70/70/70 71/71/71
f 72/72/72 69/69/69 71/71/71
f 72/72/72 71/71/71 73/73/73
f 74/74/74 72/72/72 73/73/73
f 73/73/73 71/71/71 75/75/75
f 71/71/71 76/76/76 75/75/75
f 71/71/71 70/70/70 76/76/76
f 75/75/75 76/76/76 77/77/77
f 76/76/76 78/78/78 77/77/77
f 70/70/70 79/79/79 76/76/76
f 76/76/76 79/79/79 78/78/78
f 70/70/70 80/80/80 79/79/79
f 80/80/80 81/81/81 79/79/79
f 79/79/79 82/82/82 78/78/78
f 79/79/79 83/83/83 82/82/82
f 83/83/83 84/84/84 82/82/82
f 84/84/84 83/83/83 85/85/85
f 85/85/85 83/83/83 86/86/86
f 83/83/83 87/87/87 86/86/86
f 88/88/88 86/86/86 87/87/87
f 88/88/88 87/87/87 89/89/89
f 90/90/90 88/88/88 89/89/89
f 90/90/90 89/89/89 91/91/91
f 92/92/92 90/90/90 91/91/91
f 95/95/95 94/94/94 93/93/93
f 93/93/93 94/94/94 96/96/96
f 96/96/96 94/94/94 97/97/97
f 97/97/97 94/94/94 98/98/98
f 99/99/99 97/97/97 98/98/98
f 100/100/100 99/99/99 98/98/98
f 100/100/100 98/98/98 101/101/101
f 99/99/99 100/100/100 102/102/102
f 103/103/103 99/99/99 102/102/102
f 103/103/103 102/102/102 104/104/104
f 105/105/105 103/103/103 104/104/104
f 98/98/98 106/106/106 101/101/101
f 107/107/107 101/101/101 106/106/106
f 108/108/108 107/107/107 106/106/106
f 109/109/109 108/108/108 106/106/106
f 105/105/105 104/104/104 110/110/110
f 111/111/111 105/105/105 110/110/110
f 112/112/112 111/111/111 110/110/110
f 110/110/110 113/113/113 112/112/112
f 113/113/113 114/114/114 112/112/112
f 115/115/115 114/114/114 113/113/113
f 116/116/116 114/114/114 115/115/115
f 117/117/117 116/116/116 115/115/115
f 112/112/112 118/118/118 111/111/111
f 118/118/118 119/119/119 111/111/111
f 120/120/120 119/119/119 118/118/118
f 121/121/121 120/120/120 118/118/118
f 122/122/122 121/121/121 118/118/118
f 125/125/125 124/124/124 123/123/123
f 125/125/125 123/123/123 126/126/126
f 125/125/125 126/126/126 127/127/127
f 127/127/127 128/128/128 125/125/125
f 128/128/128 129/129/129 125/125/125
f 128/128/128 130/130/130 129/129/129
f 130/130/130 128/128/128 131/131/131
f 130/130/130 132/132/132 129/129/129
f 133/133/133 130/130/130 131/131/131
f 133/133/133 131/131/131 134/134/134
f 135/135/135 133/133/133 134/134/134
f 132/132/132 136/136/136 129/129/129
f 132/132/132 137/137/137 136/136/136
f 137/137/137 138/138/138 136/136/136
f 138/138/138 139/139/139 136/136/136
f 135/135/135 134/134/134 140/140/140
f 141/141/141 135/135/135 140/140/140
f 140/140/140 142/142/142 141/141/141
f 141/141/141 142/142/142 143/143/143
f 144/144/144 142/142/142 140/140/140
f 142/142/142 145/145/145 143/143/143
f 143/143/143 145/145/145 146/146/146
f 146/146/146 145/145/145 147/147/147
f 145/145/145 148/148/148 147/147/147
f 149/149/149 144/144/144 140/140/140
f 144/144/144 149/149/149 150/150/150
f 144/144/144 150/150/150 151/151/151
f 144/144/144 151/151/151 152/152/152
f 155/155/155 154/154/154 153/153/153
f 156/156/156 155/155/155 153/153/153
f 159/159/159 158/158/158 157/157/157
f 160/160/160 159/159/159 157/157/157
f 160/160/160 157/157/157 161/161/161
f 162/162/162 160/160/160 161/161/161
f 165/165/165 164/164/164 163/163/163
f 166/166/166 164/164/164 165/165/165
f 167/167/167 166/166/166 165/165/165
f 168/168/168 166/166/166 167/167/167
f 171/171/171 170/170/170 169/169/169
f 172/172/172 171/171/171 169/169/169
f 175/175/175 174/174/174 173/173/173
f 176/176/176 175/175/175 173/173/173
f 179/179/179 178/178/178 177/177/177
f 180/180/180 179/179/179 177/177/177
f 183/183/183 182/182/182 181/181/181
f 184/184/184 182/182/182 183/183/183
f 185/185/185 184/184/184 183/183/183
f 186/186/186 184/184/184 185/185/185
f 189/189/189 188/188/188 187/187/187
f 190/190/190 189/189/189 187/187/187
f 193/193/193 192/192/192 191/191/191
f 194/194/194 193/193/193 191/191/191
f 193/193/193 194/194/194 195/195/195
f 194/194/194 196/196/196 195/195/195
f 195/195/195 197/197/197 193/193/193
f 193/193/193 197/197/197 198/198/198
f 198/198/198 199/199/199 193/193/193
f 199/199/199 200/200/200 193/193/193
f 199/199/199 201/201/201 200/200/200
f 201/201/201 202/202/202 200/200/200
f 205/205/205 204/204/204 203/203/203
f 205/205/205 203/203/203 206/206/206
f 203/203/203 207/207/207 206/206/206
f 208/208/208 206/206/206 207/207/207
f 211/211/211 210/210/210 209/209/209
f 212/212/212 211/211/211 209/209/209
f 213/213/213 212/212/212 209/209/209
f 216/216/216 215/215/215 214/214/214
f 217/217/217 216/216/216 214/214/214
f 220/220/220 219/219/219 218/218/218
f 221/221/221 220/220/220 218/218/218
f 224/224/224 223/223/223 222/222/222
f 225/225/225 224/224/224 222/222/222
f 228/228/228 227/227/227 226/226/226
f 229/229/229 228/228/228 226/226/226
